<?xml version="1.0" encoding="UTF-8" standalone="no"?>
<svg
   xmlns:dc="http://purl.org/dc/elements/1.1/"
   xmlns:cc="http://creativecommons.org/ns#"
   xmlns:rdf="http://www.w3.org/1999/02/22-rdf-syntax-ns#"
   xmlns:svg="http://www.w3.org/2000/svg"
   xmlns="http://www.w3.org/2000/svg"
   viewBox="0 0 310.62668 377.94666"
   height="377.94666"
   width="310.62668"
   xml:space="preserve"
   id="svg2"
   version="1.1"><metadata
     id="metadata8"><rdf:RDF><cc:Work
         rdf:about=""><dc:format>image/svg+xml</dc:format><dc:type
           rdf:resource="http://purl.org/dc/dcmitype/StillImage" /></cc:Work></rdf:RDF></metadata><defs
     id="defs6"><clipPath
       id="clipPath20"
       clipPathUnits="userSpaceOnUse"><path
         id="path18"
         d="M 0,2834.65 V 0 h 2329.69 v 2834.65 z" /></clipPath></defs><g
     transform="matrix(1.3333333,0,0,-1.3333333,0,377.94667)"
     id="g10"><g
       transform="scale(0.1)"
       id="g12"><g
         id="g14"><g
           clip-path="url(#clipPath20)"
           id="g16"><path
             id="path22"
             style="fill:#ffffff;fill-opacity:1;fill-rule:nonzero;stroke:none"
             d="m 1340.5,2131.16 c 12.51,27.07 24.09,48.62 40.8,74.31 7.37,11.32 15.69,19.21 23.11,30.67 -3.56,1.02 -8.73,-1.91 -10.97,-3.5 -7.42,-5.38 -10.77,-14.13 -16.72,-18.8 -14.02,-11.08 -13.62,-21.11 -20.98,-26.28 -6.57,-4.64 -8.46,-7.69 -13.06,-14.9 -3.08,-4.83 -5.34,-8.73 -8.59,-18.23 -1.16,-3.43 -3.45,-0.4 -8.94,-7.94 -7.18,-9.8 -10.39,-20.38 -13.38,-32.26 -0.96,-3.9 -7.59,-5.96 -11.84,-14.07 -5.73,-10.92 -9.46,-21.03 -11.93,-36.95 -0.6,-3.69 -6.83,-6.25 -11.15,-16.53 -3.05,-7.23 -5.22,-8.82 -7.9,-22.45 -1.63,-8.31 -5.43,-9.51 -9.7,-21.57 -3.29,-9.2 -3.42,-18.06 -4.57,-30.08 -0.27,-2.33 -4.21,-6.95 -7.85,-13.69 -6.09,-11.26 -5.89,-18.78 -8.31,-30.41 -0.92,-4.2 -5.63,-9.76 -10.17,-27.78 -3.99,-15.99 -0.34,-26.59 -1.68,-34.46 -3.52,-20.45 -7.05,-38.21 -5.14,-58.35 0.94,-9.85 2.44,-20.01 1.78,-29.48 -1.88,-29.7 -3.48,-54.17 -3.32,-87.83 0.1,-18.32 1.54,-43.41 4.3,-64.29 3.05,-23.06 7.45,-41.06 7.45,-41.06 h 75.14 c 0,0 -2.94,43.44 0.96,89.19 2.29,27.41 8.83,56.47 14.75,76.88 7.51,26.04 12.18,39.51 26.37,73.85 0.29,0.76 -0.1,3.98 -3.85,0.83 -7.84,-6.58 -14.37,-12.37 -20.56,-21.69 -9.47,-14.25 -15.22,-25.99 -22.88,-40.63 -8.95,-17.02 -13.88,-31.84 -23.11,-52.52 -0.55,14.92 1.88,29.13 4.89,42.87 3.12,14.04 5.59,25.16 9.99,37.26 7.83,21.35 15.43,39.17 27.98,59.03 7.29,11.47 16.59,21.77 26.02,30.32 11.29,10.33 21.73,19.4 33.55,29.5 -12.41,6.4 -28.95,-6.96 -32.26,-7.65 -17.48,-3.41 -24.58,-19.61 -29.95,-21.83 -7.63,-3.19 -12.06,-7.87 -17.38,-14.32 -4.08,-4.86 -5.29,-12.33 -9.58,-14.98 -7.14,-4.45 -12.36,-11.15 -17.26,-20.51 -2.02,-3.86 -7.49,-22.13 -13.6,-19.78 10.42,61.93 32.29,120.01 67.37,171.7 22.26,32.77 46.47,60.88 82.12,86.1 4.7,3.33 5.63,4.89 -0.93,4.66 -33.35,-4.06 -35.38,-19.28 -40.87,-20.71 -5.21,-1.35 -11.65,-7.52 -15.78,-11.53 -7.41,-7.33 -7.27,-13.5 -10.12,-15.43 -6.08,-4.25 -10.67,-8.66 -14.82,-16.02 -2.17,-3.85 -5.85,-12.3 -9.11,-14.24 -8.55,-4.96 -16.85,-12.19 -20.98,-19.99 -3.06,-5.7 -4.27,-11.89 -8.26,-17.49 -4.26,-6.02 -10.24,-10.53 -15.36,-14.88 3.9,26.46 16.37,57.82 24.95,84.87 11.55,36.12 25.54,68.95 41.33,103.07" /><path
             id="path24"
             style="fill:#ffffff;fill-opacity:1;fill-rule:nonzero;stroke:none"
             d="m 1417.21,1916.66 c 28.45,63.86 58.38,111.91 97.26,168.11 5.09,7.37 9.65,14.58 14.09,21.49 1.99,3.11 11.55,16.85 13.55,19.77 13.04,19.68 18.52,25.7 31.87,44.52 3.61,5.12 6.53,9.13 8.07,15.04 2.85,11.01 -6.61,18.39 -8.77,28.96 -2.22,10.79 -1.02,22.57 3.94,31.68 3.11,5.7 6.18,7.93 9.32,15.58 6.05,14.73 3.96,46.59 10.87,47.42 -1.75,-15.12 -2.15,-32.12 0.22,-46.62 2.77,-16.93 13.05,-27.19 17.28,-45.12 11.42,2.06 23.84,1.57 33.44,0.74 9.55,-0.82 21.61,1.83 31.41,5.18 13.26,4.53 24.27,12.78 37.79,15.98 -11.5,-11.05 -27.73,-15.2 -41.32,-23.59 -5,-3.14 -9.71,-7.28 -13.06,-12.45 -5.48,-8.51 -9.79,-16.64 -18.33,-20.37 -15.22,-6.63 -28.25,-3.49 -45.59,-6.71 -25.76,-26.54 -50,-62.63 -72.38,-100.59 -56.74,-95.96 -104.02,-195.36 -131.54,-297.28 9.52,17.73 18.61,34.88 28.91,51.75 11.38,18.74 24.17,37.09 38.13,55.47 32.65,43.05 64.97,80.64 101.16,120.19 29.23,31.96 61.25,58.76 96.97,81.18 47.19,29.57 105.41,50.28 156.57,39.6 5.81,-1.36 14.14,-2.91 17.77,-6.73 -64.12,8.97 -121.55,-13.43 -164.4,-47.75 -33.86,-27.08 -62.39,-54.56 -91.4,-90.27 -14.98,-17.21 -28.45,-36.13 -41.84,-54.45 -14.01,-19.27 -26.43,-39.55 -38.77,-59.83 -41.54,-68.61 -72.98,-141.25 -96.09,-216.51 -0.67,-2.39 -0.81,-4.78 -1.49,-7.15 1.12,1.68 2.74,3.52 3.81,5.24 31.14,50.61 68.58,99.45 115.97,132.22 4.13,2.83 8.47,8.26 9.56,12.54 5.15,20.09 -10.18,29.74 11.02,57.51 4.85,6.39 11.49,8.71 16.08,14.64 8.68,13.4 15.75,37.41 23.01,43.86 -3.64,-15.64 -12.63,-32.14 -14.53,-48.26 -2.03,-17.68 2.49,-32.14 3.27,-50.88 12.53,-1.71 22.21,-7.01 32.03,-10.04 15.28,-4.77 24.46,-3.56 39.57,-2.25 6.46,0.54 18.15,4.31 25.11,2.89 -14.61,-7.98 -34.34,-6.51 -49.28,-14.14 -10.46,-5.36 -13.5,-13.27 -27.92,-16.05 -12.84,-2.5 -23.63,-1.16 -31.98,3.12 -6.49,3.27 -11.57,4.64 -17.4,1.85 -15.55,-7.47 -26.17,-18.02 -38.69,-30.65 -29.09,-29.26 -52.82,-61.92 -74.98,-104.75 -5.84,-11.39 -11.11,-22.64 -16.12,-34.24 -2.47,-5.66 -8.59,-21.34 -8.59,-21.34 h -75.97 c 0,0 -0.21,21.9 0.51,29.91 1.46,15.94 3.61,27.75 6.72,43.93 4.4,23.27 8.73,44.37 14.75,66.94 5.89,21.96 12.22,42.56 19.74,63.65 15.72,43.96 32.4,86.06 50.67,127.06" /><path
             id="path26"
             style="fill:#ffffff;fill-opacity:1;fill-rule:nonzero;stroke:none"
             d="m 682.559,1324.82 c 27.722,22.67 48.261,35.82 75.949,52.32 11.238,6.72 28.25,14.33 41.336,20.25 47.988,21.69 111.465,37.68 171.269,38.77 1.082,0 1.016,-0.04 1.016,-0.04 h 445.911 c 0,0 -1.68,0.04 1.55,0.04 14.18,0 28.24,-4.93 36.92,-13.12 8.7,-8.26 12.86,-20.99 15.13,-33.63 1.93,-10.79 0.98,-20.38 -1.53,-31.91 -1.95,-9.1 -3.44,-14.53 -8.5,-22.27 -3.08,-4.7 -5.97,-7.93 -11.67,-12.48 -5.86,-4.68 -14.16,-6.3 -23.69,-6.4 -0.99,-0.04 -3.11,-0.1 -3.04,-0.08 0.09,0.08 -521.562,0.08 -521.562,0.08 0,0 -3.25,0.01 -4.871,0.01 -34.16,0.12 -70.097,-1.62 -103.847,-6.04 -25.828,-3.52 -51.731,-7.55 -76.707,-14.06 -31.504,-8.22 -61.836,-19.61 -92.129,-30.9 16.785,22.31 36.172,41.24 58.465,59.46" /><path
             id="path28"
             style="fill:#ffffff;fill-opacity:1;fill-rule:nonzero;stroke:none"
             d="m 837.395,1502.23 c 27.39,19.78 60.652,36.02 90.105,47.31 14.961,5.66 34.824,11.93 50.605,15.86 19.063,4.81 40.965,8.41 58.825,8.94 5.39,0.15 0.79,0.04 0.79,0.04 l 382.46,0.04 c 0,0 8.18,-0.44 11.04,-0.99 7.18,-1.55 12.98,-4.49 15.4,-6.02 5.93,-3.8 13.38,-11.81 17.27,-18.14 9.95,-16.36 11.7,-34 8.49,-52.36 -3.68,-20.98 -19.61,-44.88 -41.24,-45.46 -3.76,-0.1 -11.28,0 -11.28,0 h -414.23 c 0,0 -24.107,-0.47 -35.122,-0.87 -20.379,-0.8 -42.957,-3.12 -60.75,-5.74 -15.227,-2.19 -30.078,-5.07 -45.317,-9.15 -51.062,-13.79 -95.449,-39.7 -141.851,-59.84 31.25,54.64 73.531,96.49 114.805,126.38" /><path
             id="path30"
             style="fill:#ffffff;fill-opacity:1;fill-rule:nonzero;stroke:none"
             d="m 623.438,1242.29 c 66.484,39.27 146.582,54.77 219.882,57.23 1.746,0.08 5.227,0.19 5.227,0.19 l 571.743,-0.04 c 0,0 1.03,0 6.21,0.04 34.64,0.04 47.29,-34.35 47.14,-62.16 -0.07,-9.14 -1.62,-18.49 -4.15,-24.77 -3.3,-8.19 -6.96,-14.87 -12.91,-21.32 -2.11,-2.35 -9.79,-7.74 -13.18,-8.57 -7.92,-1.93 -17.66,-1.72 -17.59,-1.72 0.06,0 -425.27,-0.07 -425.27,0 0,0 -22.942,0.93 -38.88,2.46 -11.465,1.14 -20.176,2.34 -32.082,4.6 -29.285,5.81 -53.562,15.36 -78.926,23.18 -16.914,5.22 -34.714,9.12 -53.269,11.92 -34.141,5.24 -71.414,7.62 -105.891,5 -43.855,-3.25 -82.847,-11.85 -124.558,-25.08 7.05,11 36.378,27.12 56.504,39.04" /><path
             id="path32"
             style="fill:#ffffff;fill-opacity:1;fill-rule:nonzero;stroke:none"
             d="m 931.395,1063.01 c -19.54,6.89 -38.614,15.78 -55.719,27.08 -22.278,14.75 -33.203,26.47 -62.004,39.78 -24.656,11.39 -44.324,22.62 -78.699,35.08 -16.575,6.02 -43.442,14.27 -66.477,18.23 -32.91,5.58 -64.641,8.03 -64.641,8.03 0,0 6.731,4.18 10.774,5.43 33.594,10.23 63.254,15.22 97.742,17.77 30.246,2.26 58.027,-0.69 88.352,-5.42 12.441,-1.97 28.613,-5.8 42.668,-9.82 45.64,-12.98 97.539,-33.58 143.55,-33.66 2.571,0 2.289,0.05 2.289,0.05 h 425 c 0,0 -3.21,0 1.3,0 12.88,0.03 36.95,-4.13 46.6,-21.21 11.2,-19.69 14.68,-43.13 5.27,-66.6 -2.84,-7.06 -7.56,-17.16 -14.37,-23.29 -5.96,-5.4 -15.66,-8.86 -21.28,-8.86 -1.61,-0.08 -4.37,0 -4.37,0 h -371.7 c 0,0 1.4,0 -2.03,0 -38.01,0 -85.857,4.6 -122.255,17.41" /><path
             id="path34"
             style="fill:#ffffff;fill-opacity:1;fill-rule:nonzero;stroke:none"
             d="m 1100.71,931.16 c -10.51,10.801 -25.01,27.352 -38.14,43.039 -25.23,30.091 -36.53,57.181 -36.53,57.181 h 247.92 c 0,0 0.66,-28.61 -5.08,-61.72 -5.36,-30.762 -16.72,-63.18 -28.79,-86.672 -0.45,-24.078 9.72,-46.468 11.39,-70.25 -20.37,-12.5 -42.27,-24.886 -60.52,-42.437 -1.16,-1.063 -3.05,-1.063 -3.82,1.828 -9.78,36.672 -14.93,69.359 -22.95,105.601 -22.6,17.481 -43.78,33.032 -63.48,53.43" /><path
             id="path36"
             style="fill:#ffffff;fill-opacity:1;fill-rule:nonzero;stroke:none"
             d="m 1356.22,951.512 c -7.04,12.937 -12.26,30.039 -20.31,40.207 -1.72,-9.059 0.4,-14.66 -0.82,-23.328 -1.14,-7.282 -7.1,-4.25 -8.3,-0.832 -3.47,9.839 -7.19,21.98 -10.35,32.07 -5.29,16.811 -6.99,31.691 -6.99,31.691 l 41.24,0.06 c 0,0 1.59,-0.39 2.32,-4.42 1.97,-10.39 1.5,-20.52 4.35,-32.562 3.64,-15.519 8.36,-29.679 14.06,-44.136 4.94,-12.731 11.34,-25.571 16.55,-38.223 0.7,-1.66 1.05,-4.84 -0.21,-6.5 -1.54,-1.93 -4.17,-1.68 -5.68,0 -11.81,13.422 -16.58,28.621 -25.86,45.973" /><path
             id="path38"
             style="fill:#ffffff;fill-opacity:1;fill-rule:nonzero;stroke:none"
             d="m 1420.04,922.02 c -7,14.949 -16.88,31.761 -16.02,48.71 4.58,-5.968 6.43,-10.269 12.72,-13.621 2.87,-0.91 8.9,-0.058 7.39,4.961 -2.78,9.352 -7.08,17.258 -11.07,30.078 -5.93,18.962 -11.67,39.212 -11.67,39.212 l -42.1,0.02 c 0,0 2.35,-17.08 11.92,-43.29 8.38,-23.231 21.38,-49.789 35.6,-74.668 11.59,-20.5 22.12,-38.363 35.25,-53.32 4.51,-5.153 15.54,-0.633 10.77,6.066 -12.47,17.633 -24.11,37.172 -32.79,55.852" /><path
             id="path40"
             style="fill:#ffffff;fill-opacity:1;fill-rule:nonzero;stroke:none"
             d="m 1693.4,2344.9 c -9.13,-3.97 -17.21,-9.13 -21.76,-17.91 -3.33,-6.31 -5.55,-15.92 0.78,-21.33 11.12,-9.49 24.37,0.22 29.75,9.92 6.79,12.34 5.03,35.95 5.03,35.95 0,0 -7.9,-4.11 -13.8,-6.63" /><path
             id="path42"
             style="fill:#ffffff;fill-opacity:1;fill-rule:nonzero;stroke:none"
             d="m 1703.06,2285.97 c 4,7.53 12.74,15.67 22.34,21.5 10.84,6.63 22.07,13.07 29.88,17.72 7.81,4.7 9.29,7.99 9.29,7.99 0,0 -6.43,-2.21 -9.96,-4.3 -19.26,-11.49 -40.32,-24.55 -48.86,-28.32 -10.8,-4.71 -25.48,-5.62 -38.69,-7.31 -2.11,16.69 -6.46,23.62 -6.4,38.44 0.11,7.11 1.84,16.34 3.03,22.77 4.15,21.43 4.96,32.25 4.96,32.25 0,0 -3.28,-3.05 -4.47,-12.48 -1.34,-8.52 -2.3,-11.66 -4.25,-21.73 -2.24,-11.63 -4.54,-21.48 -11.51,-28.74 -10.01,-10.36 -19.29,-28.82 -11.55,-42.96 4.51,-8.26 12.03,-7.06 14.39,-9.19 2.36,-2.12 3.78,-7.2 10.92,-9.57 15.4,-5.14 32.83,8.66 40.88,23.93" /><path
             id="path44"
             style="fill:#ffffff;fill-opacity:1;fill-rule:nonzero;stroke:none"
             d="m 1683.11,2241.89 c 5.22,8.49 10.59,14.43 18.82,19.49 13.66,8.32 23.79,13.97 32.13,18.23 3.61,1.81 6.63,3.97 7.55,7.83 -3.72,-1.4 -17.84,-8.02 -31.85,-16.35 -10.02,-5.99 -27.26,-13.46 -38.85,-14 -4.58,-0.2 -7.99,0.93 -11.74,1.05 -7.76,0.32 -17.66,-1.55 -17.66,-1.55 0,0 -2.51,10.98 -5.81,18.89 -1.67,4.05 -4.36,8.21 -5.81,15.82 -0.97,5.08 -1.26,12.7 -0.87,17.25 1.13,13.73 4.84,27.07 4.21,40.97 -8.63,-17.93 -5.12,-40 -15.24,-53.88 -4.26,-5.83 -7.65,-10.43 -11.02,-17.78 -5.55,-12.06 -4.89,-24.55 2.62,-36.18 4.34,-6.63 13.91,-6.38 15.56,-7.66 2.51,-1.86 4.66,-8.79 14.01,-10.88 16.02,-3.59 34.9,3.83 43.95,18.75" /><path
             id="path46"
             style="fill:#ffffff;fill-opacity:1;fill-rule:nonzero;stroke:none"
             d="m 1687.59,1891.3 c 3.72,7.54 6.13,17.42 10.88,24.41 -10.75,-1.61 -12.5,-2.84 -28.03,-4.55 -3.38,-0.32 -10.42,-3.84 -12.72,-6.15 -6.15,-6.21 -11.51,-11.97 -9.14,-22.38 0.93,-4.05 4.5,-7.02 6.49,-7.64 12.92,-4.21 26.06,3.48 32.52,16.31" /><path
             id="path48"
             style="fill:#ffffff;fill-opacity:1;fill-rule:nonzero;stroke:none"
             d="m 1700.71,1870.78 c 14.69,3.43 31.67,10.64 38.47,8.37 -13.78,-7.33 -31.17,-9.99 -46.43,-14.35 -11.66,-3.35 -19.97,-12.16 -30.39,-20.15 -9.53,-7.27 -22.24,-10.22 -33.59,-4.88 -3.82,1.82 -7.54,7.99 -8.2,11.28 -0.59,2.63 -6.06,5.27 -8.89,7.58 -2.84,2.36 -4.19,8.25 -4.26,10.53 -0.48,20.33 15,28.54 29.9,40.49 11.23,8.99 25.81,47.16 34.7,55.07 -1.58,-12.3 -17.58,-35.51 -24.54,-53.58 -5.54,-14.39 -3.73,-25.89 -7.29,-41.04 10.65,-0.68 22.53,-2.92 33.26,-3.09 8.44,-0.11 18.61,1.72 27.26,3.77" /><path
             id="path50"
             style="fill:#ffffff;fill-opacity:1;fill-rule:nonzero;stroke:none"
             d="m 1685.23,1839.43 c -8.25,-1.53 -18.34,-4.13 -25.23,-5.59 -23.96,-5.07 -35.4,6.66 -54.54,6.44 1.69,21.9 -5.91,31.71 0.35,45.87 5.58,12.6 10.75,25.94 15.55,36.62 3.89,8.56 5.07,15.79 5.07,15.79 0,0 -5.81,-8.69 -22.3,-40.86 -5.76,-11.22 -16.03,-13.63 -25.17,-24.23 -10.5,-12.12 -16.52,-37.75 2.9,-48.51 3.86,-2.12 3.3,-8.78 6.11,-11.47 12.99,-12.21 39.2,-10.98 55.59,3.9 13.05,11.89 28.91,13.82 42.41,17.32 7.91,2.05 14.84,5.4 14.84,5.4 0,0 -3.75,1.54 -15.58,-0.68" /><path
             id="path52"
             style="fill:#ffffff;fill-opacity:1;fill-rule:nonzero;stroke:none"
             d="m 1205.24,1585.19 c -0.97,0 -1.98,0 0,0 z m -111.9,315.54 c -7.99,-10.56 -11.68,-22.7 -20.49,-31.92 -4.61,-4.83 -11.63,-2.57 -15.27,2.99 -4.05,6.29 -10.6,15.18 -5.74,21.4 8.01,10.26 24.75,16.81 39.01,14.96 0.84,-0.1 5.43,-3.49 2.49,-7.43 z m -38.33,-60.39 c -4.47,-11.96 -17.8,-13.25 -29.15,-15.62 -2.12,-0.46 -8.65,0 -11.56,2.87 -4.91,4.8 -9.15,11.35 -8.3,19.54 0.46,5.06 4.68,10.02 9.91,12.03 9.46,3.67 20.69,9.57 30.03,4.33 8.02,-4.49 12.23,-14.72 9.07,-23.15 z m -24.56,-63.22 c -3.26,-4.71 -11.64,10.95 -12.73,18.13 -3.13,20.76 15.06,26.06 30.24,25.42 0.47,-12.39 -9.13,-31.57 -17.51,-43.55 z m -16.38,-56.03 c -2.98,-8.35 -4.4,-16.04 -7.72,-23.69 -3.23,-7.4 -16.975,-10.04 -24.612,-7.67 -10.898,3.37 -20.234,27.83 -7.851,37.2 9.48,7.08 19.289,8.22 31.353,9.7 2.17,0.26 10.28,-0.23 10.6,-0.99 2.02,-5.07 0.74,-7.61 -1.77,-14.55 z m -18.34,-64.58 c -2.195,-6.43 -3.179,-13.03 -6.011,-19.2 -1.426,-3.12 -3.301,0.98 -3.371,1.19 -4.286,10.64 -6.973,19.66 -3.328,29.03 2.058,5.18 9.168,9.95 15.898,10.37 -0.41,-6.67 -0.883,-14.9 -3.188,-21.39 z m -21.66,-31.5 c -4.91,2.23 -4.84,8.55 -6.89,12.49 -1.946,3.84 -6.145,9.12 -4.414,14.16 9.492,-5.32 13.906,-14.83 11.304,-26.65 z m -16.375,39.32 c -11.34,9.31 -12.312,24.21 -19.863,35.61 8.328,5.33 22.395,4.26 26.699,-6.29 3.457,-8.48 5.977,-20.94 -2.617,-27.41 -0.937,-0.69 -3.144,-2.81 -4.219,-1.91 z m -42.246,76.84 c -1.699,2.43 -5.066,9.43 -2.5,10.32 20.281,6.98 35.496,7.21 39.824,-14.49 3.079,-15.48 -7.492,-28.77 -22.324,-23.36 -4.25,1.58 -8.469,18.07 -15,27.53 z m -29.504,49 c -1.425,1.78 -2.566,7.17 -0.789,8.55 10.535,8.48 26.028,9.13 38.008,7.96 15.813,-1.44 19.063,-16.13 16.414,-28.32 -3.473,-16.04 -27.793,-18.03 -34.683,-15.36 -6.77,2.6 -11.497,17.93 -18.95,27.17 z m 3.45,57.03 c 13.671,8.85 39.793,15.42 44.152,-8.57 1.308,-7.23 -0.5,-16.83 -10.266,-19.97 -10.027,-3.22 -21.843,-6.69 -31.015,-2.97 -11.258,4.61 -13.489,24.65 -2.871,31.51 z m -14.161,40.35 c 1.036,4.61 6.121,6.78 10.411,7.88 11.066,2.73 23.437,6.85 33.574,0.38 3.972,-2.5 4.265,-6.04 4.785,-11.02 0.898,-8.06 -0.242,-14.65 -5.559,-17.74 -10.777,-6.32 -21.734,-6.89 -34.257,-4.43 -10.157,2 -10.985,15.47 -8.954,24.93 z m -11.339,-62.21 c -9.461,7.01 -13.661,16.91 -20.641,26.72 -1.684,2.4 0,3.39 1.297,3.76 16.816,4.76 29.265,-3.63 26.672,-21.96 -0.481,-3.56 -2.785,-11.85 -7.328,-8.52 z m -46.383,56.61 c -6.313,5.45 -1.926,14.92 3.562,17.68 9.61,4.77 24.719,5.49 34.696,2.12 6.449,-2.16 9.699,-11.39 8.539,-21.46 -0.481,-4.13 -1.731,-8.68 -3.762,-10.02 -7.609,-5.19 -19.387,-5.39 -28.652,-3.47 -6.551,1.39 -8.887,10.34 -14.383,15.15 z m -7.258,57.25 c 6.094,13.25 28.308,13.37 40.398,7.46 9.856,-4.85 11.094,-23.19 0.332,-30.42 -8.582,-5.72 -22.117,-3.62 -31.218,-1.95 -12.942,2.38 -13.973,15.1 -9.512,24.91 z m 0.488,49.6 c 9.238,8.79 21.192,4.75 32.305,3.22 2.156,-0.3 4.719,-1.82 6.172,-3.27 7.59,-7.67 8.191,-20.24 -0.266,-26.53 -9.742,-7.25 -21.91,-2.54 -33.641,-1.95 -3.164,0.13 -6.64,3.85 -7.363,6.23 -2.109,7.43 -3.387,16.5 2.793,22.3 z m 5.946,41.5 c 9.796,4.09 26.632,5.97 33.578,-5.03 4.254,-6.74 3.015,-19.22 -3.813,-21.04 -6.695,-1.72 -29.461,-5.5 -34.91,7.09 -2.695,6.19 -1.555,16.16 5.145,18.98 z m 30.16,35.26 c 2.847,-1.26 4.605,-3.53 5.269,-7.01 1.399,-7.55 -0.586,-15.75 -7.832,-17.07 -10.887,-1.99 -27.058,-2.62 -27,12.77 0.051,17.18 16.953,16.99 29.563,11.31 z m -21.907,31.92 c 5.789,2.22 15.325,1.72 20.52,-0.99 2.625,-1.37 6.16,-5.68 4.668,-10.22 -1.848,-5.93 -7.356,-8.07 -13.637,-8.14 -6.012,-0.06 -12.906,0.42 -15.347,5.34 -2.305,4.65 -1.321,12.04 3.796,14.01 z m 6.758,25.74 c 5.293,1.93 13.125,1.8 16.985,-2.38 5.3,-5.79 1.121,-15 -8.887,-14.54 -3.527,0.15 -7.695,1.36 -9.836,2.58 -5.156,2.91 -3.445,12.49 1.738,14.34 z m 23.809,16.59 c 0.683,2.23 4.172,4.85 5.996,5.49 3.965,1.41 8.613,1.7 12.422,0.19 7.597,-3.13 6.562,-12.53 -1.563,-15.83 -3.633,-1.48 -9.218,-2.42 -11.953,-1.48 -5.105,1.74 -6.531,6.18 -4.902,11.63 z m 23.691,-36.77 c -8.301,-2.42 -19.851,-2.89 -22.324,5.61 -4.207,14.42 14.004,16.58 23.437,13.55 6.524,-2.06 8.821,-16.3 -1.113,-19.16 z m 5.489,47.64 c 2.617,8.93 12.753,13.78 21.921,11.05 7.903,-2.31 9.719,-13.06 4.387,-18.28 -2.41,-2.36 -6.406,-4.74 -10.703,-5.69 -9.387,-2.09 -18.594,3.07 -15.605,12.92 z m 41.25,-32.8 c -1.485,-5.83 -5.77,-9.84 -12.618,-11.36 -6.797,-1.49 -16.211,-1.9 -19.98,2.3 -3.606,3.98 -5.254,9.57 -2.266,13.87 6.035,8.56 17.063,11.56 26.887,9.38 5.594,-1.31 9.727,-7.05 7.977,-14.19 z m -3.665,34.31 c 3.665,8.11 12.954,12.19 21.887,9.47 1.778,-0.57 5.457,-3.45 5.969,-6.29 1.062,-5.64 -0.899,-10.79 -5.598,-13.74 -6.047,-3.84 -11.023,-6 -17.949,-3.17 -5.203,2.18 -6.484,8.94 -4.309,13.73 z m 38.45,-22.77 c 4.062,-6.91 -2.129,-13.84 -5.285,-15.74 -6.993,-4.09 -16.844,-6.6 -21.051,0.32 -4.145,6.8 -0.715,14.86 6.504,17.85 6.902,2.86 14.043,7.2 19.832,-2.43 z m 11.582,-26.38 c 4.55,-3.77 8.574,-11.7 3.093,-17.97 -5.132,-5.9 -11.511,-7.66 -19.597,-8.97 -5.449,-0.93 -12.434,3.11 -13.301,7.94 -0.82,4.14 -1.57,11.71 2.527,15.2 8.032,6.83 18.789,10.79 27.278,3.8 z m 9.668,44.98 c 4.316,-1.27 7.07,-5.82 4.902,-10.22 -1.309,-2.7 -5.176,-5.64 -7.637,-7.16 -6.777,-4.16 -12.566,-2.46 -14.707,2.52 -3.886,9.14 9.219,17.29 17.442,14.86 z m 16.496,-22.79 c 4.761,-0.42 6.941,-3.73 7.881,-7.36 1.22,-4.87 -0.38,-9.37 -4.49,-12.14 -4.895,-3.25 -11.001,-5.17 -15.864,-5.25 -6.601,-0.1 -12.703,9.57 -9.141,15.86 3.797,6.73 13.313,9.61 21.614,8.89 z m 27.291,-34.89 c 2.8,-8.28 -3.28,-12.14 -9.66,-15.54 -6.5,-3.47 -15.23,-6.71 -19.745,-2.39 -5.757,5.43 -8.328,14.58 -1.902,20.6 8.907,8.37 25.407,14.65 31.307,-2.67 z m 11.77,-20.77 c 10.46,-1.33 12.54,-16.2 10.43,-21.58 -2.39,-4.62 -7.66,-8.24 -10.43,-9.66 -7.68,-3.95 -16.64,-5.45 -23.68,-1.8 -6.44,3.33 -9.22,13.09 -5.72,20.73 4.71,10.34 19.61,13.6 29.4,12.31 z m 21.51,-46.04 c 3.6,-5 2.82,-13.88 0.68,-16.66 -6.59,-9.01 -24.95,-14.16 -32.53,-10.47 -5.76,2.82 -11.44,15.5 -4.71,23.11 7.02,7.9 19.23,12.61 30.32,10.3 2.46,-0.54 4.09,-3.27 6.24,-6.28 z m 4.65,-28.37 c 5.03,-0.54 9.51,-6.07 11.94,-12.11 3.17,-7.8 -0.03,-16.89 -2.53,-18.59 -6.02,-4.09 -25.07,-15.56 -37.08,-8.69 -6.6,3.79 -8.42,12.44 -8.83,17.55 -1.33,16.5 23.72,23.27 36.5,21.84 z m -70.389,-118.09 c -2.578,6.55 -4.949,16.24 0.195,20.22 10.394,8.19 33.904,15.37 42.834,2.97 5.82,-8.05 4.11,-21.69 -6.07,-26.92 -10.5,-5.36 -31.041,-11.54 -36.959,3.73 z m -50.418,-0.72 c 10.429,5.3 25.469,11.7 36.687,4.46 5.149,-3.29 10.442,-16.95 6.825,-23.01 -7.696,-12.88 -27.965,-16.15 -40.848,-12.85 -10.977,2.85 -14.27,25.53 -2.664,31.4 z m -9.375,44.49 c 12.578,8.86 37.449,14.57 43.418,-4.77 1.558,-5.02 2.449,-10.57 -0.11,-14.62 -6.98,-11.21 -24.668,-14.16 -36.496,-12.49 -12.82,1.85 -18.855,23.43 -6.812,31.88 z m -10.598,45.07 c 12.09,6.86 37.852,15.97 43.938,-3.67 2.422,-8.03 2.175,-17.95 -4.7,-21.49 -9.851,-5.16 -25.468,-10.58 -36.804,-3.5 -9.485,6 -10.766,23.89 -2.434,28.66 z m 67.688,81.04 c -5.078,-4.53 -10.215,-5.5 -16.946,-7.79 -9.441,-3.2 -19.316,4.08 -20.41,13.1 -1.816,15.45 14.746,17.76 25.711,19.69 7.988,1.44 12.942,-5.73 14.414,-10.56 1.504,-4.64 1.313,-10.87 -2.769,-14.44 z m 20.312,-36.37 c -7.2,-10.72 -36.176,-17.46 -42.558,-6.44 -4.668,8.06 -7.59,19.39 1.191,24.8 9.227,5.66 20.145,9.05 30.857,7.12 10.09,-1.77 15.22,-18.36 10.51,-25.48 z m 15.44,-66.34 c 4.13,-6.55 7,-15.38 0.87,-23.52 -5.54,-7.45 -25.36,-10.94 -35.501,-8.48 -5.567,1.4 -8.203,8.16 -9.063,12.73 -1.172,6.17 -1.738,12.38 3.739,17.41 7.851,7.2 18.345,7.05 28.395,7.05 4.15,0 10,-2.7 11.56,-5.19 z m -5.76,22.26 c -6.18,-11.34 -27.094,-12.8 -36.496,-11.54 -6.633,0.88 -11.289,11.56 -11.098,20.5 0.07,4.6 1.508,7.65 4.649,9.33 10.441,5.6 21.144,9.35 32.375,7.53 10.96,-1.74 15.22,-17.22 10.57,-25.82 z m -110.07,24.43 c -7.122,21.88 20.21,28.77 36.168,25.41 11.105,-2.32 14.816,-23.66 4.472,-30.39 -12.769,-8.32 -35.457,-11 -40.64,4.98 z m -41.211,-53.73 c 8.179,8.44 22.957,8.97 34.507,7.42 7.082,-0.99 10.129,-8.15 11.125,-15.92 2.754,-21.38 -25.949,-24.98 -39.589,-19.98 -9.004,3.3 -13.692,20.58 -6.043,28.48 z m -5.793,41.41 c 8.574,10.08 22.879,12.47 34.746,9.21 7.234,-1.97 10.593,-10.43 10.41,-19.91 -0.137,-5.38 -3.809,-9.29 -7.129,-10.65 -8.418,-3.42 -18.164,-5.96 -27.363,-4.84 -11.348,1.4 -18.223,17.26 -10.664,26.19 z m 1.367,45.11 c 10.527,4.3 30.144,8.14 33.445,-6.89 4.465,-20.04 -19.168,-23.29 -31.797,-19.81 -9.656,2.66 -11.492,22.72 -1.648,26.7 z m 75.73,33.09 c 7.871,-4.47 9.516,-17.08 4.739,-24.39 -6.375,-9.67 -28.145,-15.28 -39.856,-6.81 -6.68,4.85 -10.269,24.73 3.399,29.5 10.949,3.82 21.425,7.53 31.718,1.7 z m -11.16,14.39 c -8.926,-5.53 -21.648,-7.73 -30.09,-3.03 -7.351,4.01 -7.066,14.75 -3.425,20.52 5.988,9.62 20.859,10.66 31.14,7.65 8.852,-2.57 12.18,-19.04 2.375,-25.14 z m -72.285,15.67 c 0.906,2.86 2.18,3.68 3.945,4.55 7.52,3.58 15.762,4.54 22.942,-0.08 5.183,-3.35 4.734,-11.09 0.894,-15.11 -5.633,-5.91 -17.058,-6.15 -24.375,-2.31 -4.707,2.46 -4.929,8.29 -3.406,12.95 z m 2.402,-31.35 c 3.321,9.49 15.149,8.96 24.102,7.8 11.016,-1.44 13.23,-15.56 9.316,-21.5 -5.41,-8.2 -17.754,-6.63 -27.59,-5.38 -7.988,1.02 -8.457,11.6 -5.828,19.08 z m 155.51,-285.2 c 2.71,-10.71 0,-20.89 -9.54,-24.3 -12.239,-4.32 -28.802,-10.64 -38.606,-4.05 -11.192,7.51 -16.582,28.81 -3.719,37.16 15.203,9.94 45.445,16.45 51.865,-8.81 z m -16.506,33.3 c -8.242,-9.35 -21.672,-9.04 -34.851,-12.91 -5.102,-1.47 -11.133,3.02 -13.801,7.68 -4.863,8.7 -9.746,20.36 -0.402,28.77 7.738,7.05 18.273,6.45 27.753,9.28 4.25,1.28 9.457,2.77 14.622,-0.72 10.675,-7.29 14.835,-22.91 6.679,-32.1 z m 87.306,140.15 c 2.32,-6.8 5.44,-11.8 2.79,-18.58 -3.14,-8.33 -11.22,-9.47 -18.79,-12.21 -7.07,-2.56 -18.86,-5.8 -24.78,0.4 -6.82,7.04 -9.55,21.39 -1.41,27.55 10.55,7.86 36.61,18.7 42.19,2.84 z m 143.29,61.18 c 6.22,25.39 13.95,51.14 15.89,77.97 2.85,40.08 -5.8,81.73 -31.5,112.08 2.53,-13.08 5.88,-24.14 7.64,-37.88 2.08,-16.59 -0.26,-35.07 -4.54,-51.77 -3.25,-12.64 -8.93,-24.93 -14.58,-36.67 -6.67,-13.91 -16.64,-29.04 -26.55,-41.45 -27.82,-34.58 -71.14,-102.07 -71.14,-102.07 0,0 -3.65,0.26 -5.79,0.26 -0.5,8.4 19.45,37.22 29.51,53.35 22.09,35.35 38.82,54.37 58.04,85.03 12.04,19.33 21.23,42.84 24.18,64.16 5.99,43.43 -17.42,95.47 -51.1,112.79 7.7,-32.44 6.9,-78.16 -10.36,-97.4 -32.71,-36.42 -52.14,-63.69 -75.46,-110.39 -0.68,-1.25 -6.12,6.3 -10.64,9.24 -5.07,3.34 -2.23,13.36 -4.05,20.1 -1.64,5.74 -4.34,10.15 -5.13,11.15 -6.91,8.46 -13.59,8.99 -15.04,11.53 -1.67,2.86 -0.87,10 -6.9,18.14 -3.01,4.08 -10.67,7.11 -13.79,10.96 -3.38,4.2 -4.91,17.05 -14.22,22.32 -4.421,2.48 -6.472,10.19 -10.71,13.97 -13.086,11.59 -26.153,9.35 -28.66,10.08 -3.372,0.91 -9.934,9.27 -21.633,11.28 -11.426,1.95 -17.735,-5.68 -23.66,-2.91 -14.907,6.88 -29.153,7.45 -44.993,-10.19 -4.746,-5.24 -12.961,-0.34 -23.214,-8.18 -9,-6.86 -9.161,-13.2 -13.75,-14.07 -8.602,-1.61 -15.016,-8.5 -18.348,-16.02 -1.719,-3.88 -3.02,-11.7 -4.016,-16.86 -1.414,-7.12 -5.027,-13.7 -5.094,-18.93 -0.082,-7.27 2.223,-11.21 1.571,-14.47 -1.055,-4.71 -4.863,-9.03 -5.34,-13.44 -0.332,-2.5 -0.551,-9.16 1.269,-12.91 2.293,-4.62 -1.601,-8.64 -3.632,-13.56 -1.938,-4.58 -3.965,-12.42 -3.364,-17.95 0.832,-7.59 5.176,-10.37 1.797,-16.35 -5.535,-9.72 -12.527,-24.88 -0.261,-44.25 2.253,-3.54 -5.149,-10.43 -5.555,-20.54 -0.461,-11 6.172,-19.12 7.984,-24 0.356,-1.75 -2.926,-1.65 -3.035,-3.53 -29.226,30.9 -55.066,59.39 -88.945,86.22 -20.711,16.36 -41.184,30.12 -64.121,42.41 -61.297,32.87 -132.481,54.85 -196.992,46.82 24.289,-19.56 54.941,-33.51 79.89,-55.72 23.645,-21.06 45.09,-39.04 66.621,-61.41 33.801,-35.1 61.25,-70.7 89.863,-112.01 8.508,-12.23 14.094,-20.41 22.024,-33.17 7.976,-12.76 16.824,-26.31 24.102,-38.96 36.601,-63.58 66.613,-122.44 96.972,-187.58 8.418,-18.02 15.52,-36.88 23.77,-54.79 2.207,-4.85 5.371,-1.25 7.605,0 10.981,6.36 22.649,11.66 34.055,17.04 9.082,4.18 17.375,7.05 25.508,10.18 20.547,7.82 40.019,12.08 61.543,16.55 35.919,7.52 100.439,5.98 100.439,5.98 l 122.35,0.04 c 0.78,0 1.6,0 3.33,0 -1.28,35.06 -9.61,69.14 -11.63,104.31 -1.55,28.5 -0.61,56.04 0.41,84.59 2.71,77.36 14.09,160.4 31.38,230.88" /><path
             id="path54"
             style="fill:#ffffff;fill-opacity:1;fill-rule:nonzero;stroke:none"
             d="m 395.145,2295.17 c -23.875,-23.8 -30.997,-32.56 -44.918,-58.88 -8.207,-15.47 -18.606,-35.33 -21.575,-60.93 49.063,18.68 89.075,56.78 125.235,98.87 26.75,31.2 47.508,72.6 73.879,103.42 -46.457,-15.58 -95.5,-45.51 -132.621,-82.48" /><path
             id="path56"
             style="fill:#ffffff;fill-opacity:1;fill-rule:nonzero;stroke:none"
             d="m 254.719,2228.26 c 18.496,31.24 44.976,65.01 72.437,88.06 -12.715,-28.57 -28.379,-56.88 -33.765,-90.68 -10.688,-67.26 -20.754,-114.38 -31.914,-175.78 30.515,21.76 62.683,55.95 95.039,79.82 24.988,18.36 50.046,30.63 75.75,48.3 15.293,10.54 25.246,24.08 37.961,36.76 -15.161,-63.83 -71.172,-128.26 -111.282,-158.31 -50.383,-37.79 -68.449,-43.81 -149.425,-126.14 -10.282,101.66 -8.446,207.32 45.199,297.97" /><path
             id="path58"
             style="fill:#ffffff;fill-opacity:1;fill-rule:nonzero;stroke:none"
             d="m 89.5312,1890.61 c 3.7696,52.8 10.1094,95.02 22.9178,146.51 8.996,35.97 28.352,89.51 56.242,111.47 -3.41,-13.04 -5.207,-32.6 -6.523,-45.79 -5.469,-54.39 4.941,-117.57 6.191,-171.91 0.618,-26.71 0.379,-47.31 -3.613,-72.41 -4.148,-26.33 -0.691,-58.62 -0.691,-58.62 0,0 14.422,16.47 27.312,36.99 28.145,44.7 37.149,57.97 59.832,82.19 28.117,30.05 59.582,57.87 95.11,82.52 -4.289,-16.7 -22.422,-49.16 -29.914,-62.21 -10.008,-17.46 -14.54,-33.31 -38.219,-72.85 -33.313,-55.55 -48.149,-63.04 -85.129,-122.45 -8.02,-12.92 -40.852,-62.06 -48.817,-77.08 -17.328,35.86 -23.859,67.19 -45.1089,125.56 -13.3594,36.68 -11.3555,73.36 -9.5899,98.08" /><path
             id="path60"
             style="fill:#ffffff;fill-opacity:1;fill-rule:nonzero;stroke:none"
             d="m 38.0938,1615.93 c -20.086,52.09 -29.28521,100.4 -36.10161,155.23 -4.16016,33.55 -2.226565,78.27 9.75391,110.53 3.1484,-7.88 9.543,-27.87 10.4101,-30.87 8.918,-29.96 12.6368,-44.35 25.0899,-73.25 9.5234,-22.16 21.1601,-39.82 33.6328,-61.73 11.3203,-19.99 20.8791,-46.31 29.0821,-66.45 26.367,-64.56 28.32,-125.01 38.398,-131.62 7.278,15.54 9.539,30.42 10.352,37.75 7.844,71.45 17.258,136.39 107.227,220.6 8.261,-25.07 4.062,-71.28 -0.887,-96.03 -10.754,-54.12 -19.446,-80.11 -43.274,-132.56 -12.605,-27.62 -29.422,-68.27 -34.043,-81.73 -12.082,-35.07 -16.211,-53.44 -23.82,-74.2 -42.469,70.79 -94.7538,143.89 -125.8202,224.33" /><path
             id="path62"
             style="fill:#ffffff;fill-opacity:1;fill-rule:nonzero;stroke:none"
             d="m 108.125,1290.31 c -30.2344,42.11 -41.2695,63.27 -60.9492,108.07 -16.5313,37.61 -21.2852,51.54 -30.9649,93.64 -5.2851,22.94 -8.28121,43.77 -4.1718,57.35 23.6836,-42.88 39.8359,-90.86 70.8125,-126.41 24.5974,-28.21 48.2694,-52.24 67.8244,-76.05 29.988,-36.59 53.609,-71.22 82.39,-109.3 2.422,19.09 3.36,38.44 -0.925,69.71 -5.852,42.87 -2.239,78 5.23,119.5 9.492,52.65 16.445,78.72 34.719,131.98 22.351,-43.84 22.265,-94.54 27.883,-141.02 10.808,-90.21 -17.407,-197.78 -22.942,-242.6 -1.496,-11.82 0.559,-40.98 1.145,-52.34 -42.199,33.25 -79.738,66.8 -116.137,103.3 -16.578,16.55 -39.344,43.96 -53.914,64.17" /><path
             id="path64"
             style="fill:#ffffff;fill-opacity:1;fill-rule:nonzero;stroke:none"
             d="m 268.105,959.531 c -19.218,13.84 -70.839,53.309 -95.285,84.359 -35.601,45.21 -43.445,64.58 -66.922,116.59 -2.871,6.35 -16.1714,35.78 -17.2535,55.77 76.9415,-92.9 145.8285,-106.74 219.2265,-183.83 26.926,-28.24 54.512,-54.83 69.07,-68.158 11.184,-10.274 25.051,-13.403 25.051,-13.403 0,0 -1.457,19.813 -8.691,33.582 -48.965,93.609 -58.211,191.449 -50.781,296.459 22.351,-27.67 29.406,-46.15 43.585,-72.9 15.426,-29.16 23.297,-47.18 30.497,-65.13 41.906,-104.27 52.812,-224.741 78.703,-285.358 -79.914,26.918 -142.844,41.308 -227.2,102.019" /><path
             id="path66"
             style="fill:#ffffff;fill-opacity:1;fill-rule:nonzero;stroke:none"
             d="m 595.84,713.449 c -21.629,-1.469 -64.016,-1.328 -86.594,2.352 -114.391,18.301 -220.73,101.211 -274.207,192.277 48.484,-29.598 83.555,-49.348 126.199,-64.109 37.981,-13.141 74.016,-17.02 137.414,-35.028 38.274,-10.8 76.153,-26.132 89.461,-31.113 42.422,-15.797 60.278,-11.898 60.278,-11.898 0,0 0,6.441 -15.852,23.718 -31.57,34.461 -43.137,42.711 -69.109,69.204 -8.528,8.75 -28.078,38.476 -38,58.226 -28.075,55.891 -31.192,100.692 -56.825,162.072 93.543,-54.94 139.129,-130.74 188.583,-226.322 15.207,-29.258 35.781,-63.066 54.57,-81.656 12.637,-12.473 30.437,-31.422 30.437,-31.422 0,0 -13.047,-3.078 -53.672,-9.059 -18.211,-2.679 -57.046,-14.761 -92.683,-17.242" /><path
             id="path68"
             style="fill:#ffffff;fill-opacity:1;fill-rule:nonzero;stroke:none"
             d="m 1049.31,706.18 c 49.39,-8.059 93.28,-20.071 138.19,-35.481 12.08,-4.148 30.44,-13.289 43.17,-19.719 31.84,-16.21 50.16,-26.718 77.52,-45.539 44.06,-30.351 91.4,-63.05 134.12,-112.671 0.92,-0.969 7.82,-8.348 3.2,-11.961 -8.35,-6.547 -28.97,-15.911 -35.84,-9.84 -39.08,34.75 -37.11,45.89 -84.47,88.769 -12.15,10.953 -30.48,26.301 -52.4,41.293 -21.38,14.617 -47.22,30.598 -71.22,42.449 -21.82,10.731 -55.42,13.93 -74.29,13.93 l 0.25,-0.129 c -8.56,0.34 -57.83,0.598 -69.24,-0.133 -96.796,-6.628 -92.062,-15.296 -147.87,-30.41 -45.926,-12.488 -95.164,-21.398 -144.075,-27.957 -50.078,-6.801 -94.89,-7.621 -141.843,-2.82 -63.653,6.551 -133.282,24.289 -185.242,57.769 47.515,-0.789 96.304,-9.929 143.574,-6.3 19.883,1.539 52.156,4.531 73.992,11.261 43.43,13.329 68.34,18.547 114.324,31.36 39.504,11 79.336,14.801 120.61,19.14 57.097,6.11 109.99,4.739 157.54,-3.011" /><path
             id="path70"
             style="fill:#ffffff;fill-opacity:1;fill-rule:nonzero;stroke:none"
             d="m 1934.51,2295.17 c 23.88,-23.8 31.04,-32.56 44.96,-58.88 8.18,-15.47 18.6,-35.33 21.56,-60.93 -49.08,18.68 -89.06,56.78 -125.25,98.87 -26.77,31.2 -47.49,72.6 -73.86,103.42 46.45,-15.58 95.49,-45.51 132.59,-82.48" /><path
             id="path72"
             style="fill:#ffffff;fill-opacity:1;fill-rule:nonzero;stroke:none"
             d="m 2074.99,2228.26 c -18.52,31.24 -45,65.01 -72.46,88.06 12.85,-30.75 31.57,-69.05 33.76,-90.68 6.82,-67.73 20.75,-114.38 31.92,-175.78 -30.5,21.76 -62.73,55.95 -95.05,79.82 -24.96,18.36 -50.03,30.63 -75.7,48.3 -15.34,10.54 -25.28,24.08 -38,36.76 15.14,-63.83 71.17,-128.26 111.3,-158.31 50.36,-37.79 68.42,-43.81 149.35,-126.14 10.29,101.66 8.47,207.32 -45.12,297.97" /><path
             id="path74"
             style="fill:#ffffff;fill-opacity:1;fill-rule:nonzero;stroke:none"
             d="m 2240.15,1890.61 c -3.8,52.8 -10.06,95.02 -22.92,146.51 -8.97,35.97 -28.35,89.51 -56.29,111.47 3.46,-13.04 5.23,-32.6 6.57,-45.79 5.5,-54.39 -4.89,-117.57 -6.19,-171.91 -0.6,-26.71 -0.38,-47.31 3.6,-72.41 4.15,-26.33 0.71,-58.62 0.71,-58.62 0,0 -14.4,16.47 -27.33,36.99 -28.08,44.7 -37.1,57.97 -59.84,82.19 -28.09,30.05 -59.6,57.87 -95.13,82.52 4.32,-16.7 22.47,-49.16 29.96,-62.21 10.05,-17.46 14.52,-33.31 38.22,-72.85 33.3,-55.55 48.15,-63.04 85.11,-122.45 7.99,-12.92 40.88,-62.06 48.83,-77.08 17.35,35.86 23.86,67.19 45.13,125.56 13.38,36.68 11.38,73.36 9.57,98.08" /><path
             id="path76"
             style="fill:#ffffff;fill-opacity:1;fill-rule:nonzero;stroke:none"
             d="m 2291.59,1615.93 c 20.08,52.09 29.26,100.4 36.11,155.23 4.17,33.55 2.2,78.27 -9.75,110.53 -3.14,-7.88 -9.54,-27.87 -10.41,-30.87 -8.94,-29.96 -12.63,-44.35 -25.06,-73.25 -9.54,-22.16 -21.23,-39.82 -33.66,-61.73 -11.33,-19.99 -20.89,-46.31 -29.14,-66.45 -26.33,-64.56 -28.28,-125.01 -38.36,-131.62 -7.29,15.54 -9.55,30.42 -10.35,37.75 -7.84,71.45 -17.25,136.39 -107.21,220.6 -8.29,-25.07 -4.09,-71.28 0.83,-96.03 10.81,-54.12 19.53,-80.11 43.32,-132.56 12.61,-27.62 29.42,-68.27 34.07,-81.73 12,-35.07 16.17,-53.44 23.82,-74.2 42.46,70.79 94.72,143.89 125.79,224.33" /><path
             id="path78"
             style="fill:#ffffff;fill-opacity:1;fill-rule:nonzero;stroke:none"
             d="m 2221.56,1290.31 c 30.28,42.11 41.28,63.27 60.94,108.07 16.54,37.61 21.27,51.54 30.98,93.64 5.28,22.94 8.27,43.77 4.14,57.35 -23.61,-42.88 -39.86,-90.86 -70.83,-126.41 -24.55,-28.21 -48.23,-52.24 -67.78,-76.05 -29.96,-36.59 -53.64,-71.22 -82.38,-109.3 -2.42,19.09 -3.39,38.44 0.88,69.71 5.88,42.87 2.27,78 -5.2,119.5 -9.49,52.65 -16.46,78.72 -34.71,131.98 -22.32,-43.84 -22.25,-94.54 -27.89,-141.02 -10.85,-90.21 17.44,-197.78 22.99,-242.6 1.45,-11.82 -0.6,-40.98 -1.19,-52.34 42.2,33.25 79.74,66.8 116.14,103.3 16.58,16.55 39.3,43.96 53.91,64.17" /><path
             id="path80"
             style="fill:#ffffff;fill-opacity:1;fill-rule:nonzero;stroke:none"
             d="m 2061.6,959.531 c 19.2,13.84 70.84,53.309 95.26,84.359 35.61,45.21 43.45,64.58 66.94,116.59 2.84,6.35 16.17,35.78 17.24,55.77 -76.93,-92.9 -145.83,-106.74 -219.23,-183.83 -26.91,-28.24 -54.49,-54.83 -69.05,-68.158 -11.18,-10.274 -25.05,-13.403 -25.05,-13.403 0,0 1.44,19.813 8.66,33.582 48.99,93.609 58.23,191.449 50.77,296.459 -22.28,-27.67 -29.38,-46.15 -43.55,-72.9 -15.41,-29.16 -23.3,-47.18 -30.48,-65.13 -41.93,-104.27 -52.89,-224.741 -78.76,-285.358 79.98,26.918 142.88,41.308 227.25,102.019" /><path
             id="path82"
             style="fill:#ffffff;fill-opacity:1;fill-rule:nonzero;stroke:none"
             d="m 1733.84,713.449 c 21.66,-1.469 64.02,-1.328 86.63,2.352 114.4,18.301 220.69,101.211 274.19,192.277 -48.54,-29.598 -83.61,-49.348 -126.22,-64.109 -38.02,-13.141 -74.01,-17.02 -137.37,-35.028 -38.31,-10.8 -76.17,-26.132 -89.5,-31.113 -42.42,-15.797 -60.28,-11.898 -60.28,-11.898 0,0 0,6.441 15.83,23.718 31.6,34.461 43.19,42.711 69.11,69.204 8.55,8.75 28.1,38.476 38.02,58.226 28.08,55.891 31.19,100.692 56.87,162.072 -93.56,-54.94 -139.23,-130.74 -188.65,-226.322 -15.18,-29.258 -35.74,-63.066 -54.53,-81.656 -12.6,-12.473 -30.44,-31.422 -30.44,-31.422 0,0 13.03,-3.078 53.69,-9.059 18.19,-2.679 56.99,-14.761 92.65,-17.242" /><path
             id="path84"
             style="fill:#ffffff;fill-opacity:1;fill-rule:nonzero;stroke:none"
             d="m 1280.38,706.18 c -49.39,-8.059 -93.24,-20.071 -138.18,-35.481 -12.12,-4.148 -30.46,-13.289 -43.19,-19.719 -31.83,-16.21 -50.11,-26.718 -77.51,-45.539 -44.105,-30.351 -91.371,-63.05 -134.129,-112.671 -0.918,-0.969 -7.851,-8.348 -3.199,-11.961 8.379,-6.547 29.012,-15.911 35.801,-9.84 39.109,34.75 37.117,45.89 84.517,88.769 12.1,10.953 30.44,26.301 52.4,41.293 21.41,14.617 47.17,30.598 71.22,42.449 21.78,10.731 55.45,13.93 74.28,13.93 l -0.28,-0.129 c 8.59,0.34 57.85,0.598 69.27,-0.133 96.83,-6.628 92.06,-15.296 147.85,-30.41 45.94,-12.488 95.19,-21.398 144.09,-27.957 50.04,-6.801 94.92,-7.621 141.85,-2.82 63.66,6.551 133.26,24.289 185.22,57.769 -47.49,-0.789 -96.25,-9.929 -143.57,-6.3 -19.9,1.539 -52.14,4.531 -73.97,11.261 -43.43,13.329 -68.37,18.547 -114.31,31.36 -39.52,11 -79.37,14.801 -120.59,19.14 -57.13,6.11 -110.02,4.739 -157.57,-3.011" /><path
             id="path86"
             style="fill:#ffffff;fill-opacity:1;fill-rule:nonzero;stroke:none"
             d="m 1103.64,2834.65 -86.94,-322.88 h -92.313 l -57.746,210.34 -56.446,-210.34 h -92.09 l -86.953,322.88 h 86.914 l 49.532,-222.26 59.57,222.26 h 83.059 l 56.531,-222.26 52.002,222.26 h 84.88" /><path
             id="path88"
             style="fill:#ffffff;fill-opacity:1;fill-rule:nonzero;stroke:none"
             d="m 1390.52,2772.2 h -148.54 v -60.07 h 137.68 v -62.45 h -137.68 v -137.91 h -82.83 v 322.88 h 231.37 v -62.45" /><path
             id="path90"
             style="fill:#ffffff;fill-opacity:1;fill-rule:nonzero;stroke:none"
             d="m 1628.38,2730.89 c 0,9.08 -2.46,16.9 -7.36,23.47 -4.91,6.56 -10.63,11.14 -17.14,13.74 -8.67,3.45 -17.13,5.36 -25.37,5.72 -8.23,0.36 -19.23,0.55 -32.96,0.55 h -14.3 v -96.5 h 23.84 c 14.18,0 25.85,0.87 35.02,2.6 9.18,1.73 16.89,5.2 23.1,10.39 5.34,4.61 9.22,10.13 11.61,16.55 2.37,6.41 3.56,14.24 3.56,23.48 z m 86.1,1.84 c 0,-14.45 -2.54,-28.58 -7.59,-42.39 -5.07,-13.8 -12.3,-25.41 -21.69,-34.8 -12.87,-12.73 -27.22,-22.34 -43.04,-28.84 -15.83,-6.51 -35.52,-9.75 -59.09,-9.75 h -51.82 v -105.18 h -83.27 v 322.88 h 137.04 c 20.53,0 37.85,-1.77 51.94,-5.31 14.09,-3.55 26.56,-8.86 37.4,-15.94 13.01,-8.53 22.95,-19.44 29.81,-32.74 6.87,-13.3 10.31,-29.27 10.31,-47.93" /><path
             id="path92"
             style="fill:#ffffff;fill-opacity:1;fill-rule:nonzero;stroke:none"
             d="M 514.453,257.879 456.406,70.5703 h -63.75 L 354.492,196.84 316.785,70.5703 H 252.41 L 194.863,257.879 h 62.989 L 290,128.781 329.973,257.879 h 53.211 l 38,-129.098 31.621,129.098 h 61.648" /><path
             id="path94"
             style="fill:#ffffff;fill-opacity:1;fill-rule:nonzero;stroke:none"
             d="m 664.922,286.07 h -4.492 c -2.676,0.789 -6.133,1.668 -10.403,2.668 -4.273,1 -8.843,1.512 -13.726,1.512 -11.758,0 -19.699,-2.109 -23.867,-6.352 -4.164,-4.226 -6.223,-12.386 -6.223,-24.507 v -1.512 h 46.184 V 217.191 H 608.203 V 70.5703 H 547.988 V 217.191 h -25.703 v 40.688 h 25.703 v 5.172 c 0,22.91 6.082,40.09 18.274,51.539 12.156,11.461 30.593,17.18 55.281,17.18 8.906,0 16.965,-0.301 24.187,-0.918 7.231,-0.602 13.625,-1.411 19.192,-2.411 V 286.07" /><path
             id="path96"
             style="fill:#ffffff;fill-opacity:1;fill-rule:nonzero;stroke:none"
             d="m 804.285,165.559 c 0,18.203 -3.101,31.421 -9.305,39.64 -6.218,8.211 -16.054,12.313 -29.472,12.313 -5.653,0 -11.477,-0.864 -17.461,-2.582 -5.996,-1.719 -11.719,-4.192 -17.149,-7.399 V 113.43 c 3.997,-1.551 8.262,-2.559 12.825,-3.008 4.539,-0.434 9.043,-0.652 13.472,-0.652 15.852,0 27.676,4.628 35.45,13.89 7.765,9.281 11.64,23.238 11.64,41.899 z m 61.887,1.261 c 0,-15.468 -2.363,-29.531 -7.07,-42.211 -4.727,-12.679 -10.918,-23.121 -18.582,-31.359 -8,-8.668 -17.051,-15.2305 -27.161,-19.668 -10.097,-4.4609 -20.925,-6.6836 -32.48,-6.6836 -10.652,0 -19.727,1.1407 -27.149,3.4219 -7.453,2.2813 -15.07,5.4688 -22.832,9.5781 V 1.85156 H 670.684 V 257.879 h 60.214 v -19.52 c 9.219,7.34 18.633,13.289 28.235,17.86 9.605,4.551 20.691,6.832 33.238,6.832 23.32,0 41.457,-8.563 54.399,-25.692 12.937,-17.109 19.402,-40.64 19.402,-70.539" /><path
             id="path98"
             style="fill:#ffffff;fill-opacity:1;fill-rule:nonzero;stroke:none"
             d="m 894.629,70.5703 h 62.3906 v 65.5508 H 894.629 Z" /><path
             id="path100"
             style="fill:#ffffff;fill-opacity:1;fill-rule:nonzero;stroke:none"
             d="m 1116.41,118.609 c 3.89,4.782 6.81,10.532 8.76,17.262 1.95,6.731 2.92,16.051 2.92,27.938 0,11.011 -1,20.23 -3,27.691 -2.01,7.449 -4.79,13.391 -8.34,17.852 -3.57,4.546 -7.84,7.769 -12.84,9.668 -5,1.878 -10.41,2.839 -16.19,2.839 -5.79,0 -10.92,-0.777 -15.43,-2.339 -4.51,-1.559 -8.81,-4.668 -12.93,-9.34 -3.66,-4.34 -6.58,-10.289 -8.75,-17.84 -2.17,-7.57 -3.26,-17.07 -3.26,-28.531 0,-10.227 0.94,-19.098 2.85,-26.61 1.89,-7.5 4.66,-13.539 8.33,-18.097 3.57,-4.332 7.81,-7.5 12.77,-9.512 4.94,-1.988 10.58,-2.988 16.92,-2.988 5.45,0 10.65,0.91 15.6,2.75 4.94,1.828 9.15,4.918 12.59,9.257 z m 73.89,45.532 c 0,-30.801 -8.99,-55.082 -26.94,-72.8012 -17.95,-17.7382 -43.16,-26.6093 -75.64,-26.6093 -32.47,0 -57.68,8.8711 -75.65,26.6093 -17.949,17.7192 -26.933,42.0002 -26.933,72.8012 0,31.019 9.035,55.379 27.113,73.058 18.07,17.68 43.23,26.52 75.47,26.52 32.7,0 57.95,-8.887 75.82,-26.688 17.84,-17.793 26.76,-42.082 26.76,-72.89" /><path
             id="path102"
             style="fill:#ffffff;fill-opacity:1;fill-rule:nonzero;stroke:none"
             d="m 1352.04,200.68 h -5.34 c -2.55,0.871 -6.65,1.55 -12.31,1.992 -5.67,0.449 -10.38,0.668 -14.15,0.668 -8.55,0 -16.08,-0.559 -22.63,-1.668 -6.55,-1.113 -13.6,-3 -21.14,-5.66 V 70.5703 h -60.22 V 257.879 h 60.22 v -27.52 c 13.19,11.352 24.69,18.879 34.45,22.602 9.77,3.73 18.75,5.598 26.96,5.598 2.11,0 4.5,-0.059 7.15,-0.18 2.68,-0.109 5.01,-0.27 7.01,-0.5 V 200.68" /><path
             id="path104"
             style="fill:#ffffff;fill-opacity:1;fill-rule:nonzero;stroke:none"
             d="m 1490.9,129.609 v 84.911 c -3.43,1.441 -7.66,2.582 -12.64,3.41 -4.99,0.84 -9.5,1.261 -13.49,1.261 -15.75,0 -27.56,-4.543 -35.44,-13.601 -7.87,-9.059 -11.82,-21.699 -11.82,-37.942 0,-18.019 3.36,-30.589 10.07,-37.699 6.71,-7.129 16.67,-10.679 29.88,-10.679 5.99,0 11.87,0.949 17.63,2.839 5.77,1.891 11.05,4.391 15.81,7.5 z m 60.22,-37.527 c 0,-17.5703 -2.5,-32.3515 -7.5,-44.3632 -5.01,-12.0196 -12.01,-21.4102 -21.03,-28.1876 C 1513.59,12.6289 1502.72,7.66016 1490,4.58984 1477.25,1.53906 1462.89,0 1446.87,0 c -13.01,0 -25.82,0.789062 -38.45,2.35938 -12.61,1.53906 -23.54,3.42968 -32.77,5.66015 V 54.8906 h 7.32 c 7.34,-2.9023 16.26,-5.5312 26.81,-7.9297 10.56,-2.3789 20,-3.582 28.33,-3.582 11.1,0 20.13,1.0313 27.06,3.0899 6.94,2.0624 12.24,4.9804 15.91,8.7617 3.45,3.5507 5.95,8.1093 7.49,13.6679 1.56,5.5625 2.33,12.2227 2.33,20.0235 v 3.4883 c -7.21,-5.8907 -15.21,-10.5508 -23.98,-14 -8.77,-3.461 -18.56,-5.1797 -29.33,-5.1797 -26.21,0 -46.42,7.8906 -60.64,23.6992 -14.21,15.7893 -21.32,39.8003 -21.32,72.0503 0,15.461 2.18,28.79 6.5,40.032 4.34,11.238 10.44,21.019 18.32,29.347 7.34,7.789 16.36,13.852 27.06,18.18 10.74,4.352 21.7,6.512 32.92,6.512 10.11,0 19.29,-1.18 27.57,-3.582 8.27,-2.399 15.8,-5.699 22.58,-9.93 l 2.17,8.34 h 58.37 V 92.082" /><path
             id="path106"
             style="fill:#ffffff;fill-opacity:1;fill-rule:nonzero;stroke:none"
             d="M 1766.39,330.109 1634.11,16.5195 h -51.19 l 131.73,313.5895 h 51.74" /><path
             id="path108"
             style="fill:#ffffff;fill-opacity:1;fill-rule:nonzero;stroke:none"
             d="m 1922.61,119.559 v 38.91 c -8.12,-0.668 -16.89,-1.578 -26.35,-2.75 -9.45,-1.16 -16.63,-2.52 -21.52,-4.071 -5.99,-1.878 -10.58,-4.628 -13.75,-8.226 -3.17,-3.602 -4.76,-8.344 -4.76,-14.211 0,-3.883 0.34,-7.051 1.01,-9.481 0.65,-2.429 2.34,-4.769 4.99,-6.98 2.56,-2.219 5.63,-3.859 9.17,-4.91 3.57,-1.051 9.12,-1.578 16.69,-1.578 6,0 12.09,1.207 18.25,3.66 6.17,2.437 11.6,5.656 16.27,9.637 z m 0,-29.1371 c -3.23,-2.4531 -7.22,-5.4024 -12,-8.8516 -4.78,-3.4414 -9.3,-6.1719 -13.52,-8.1601 -5.89,-2.6797 -12,-4.6485 -18.35,-5.9297 -6.33,-1.2813 -13.29,-1.9219 -20.85,-1.9219 -17.79,0 -32.68,5.5234 -44.69,16.5234 -12.01,11.0078 -18.02,25.066 -18.02,42.188 0,13.679 3.06,24.859 9.18,33.531 6.1,8.679 14.78,15.508 26.02,20.519 11.12,5 24.91,8.559 41.35,10.68 16.47,2.109 33.54,3.672 51.22,4.672 v 1 c 0,10.328 -4.22,17.476 -12.68,21.437 -8.45,3.942 -20.9,5.911 -37.36,5.911 -9.91,0 -20.46,-1.75 -31.69,-5.258 -11.22,-3.5 -19.29,-6.192 -24.19,-8.09 h -5.51 v 45.219 c 6.36,1.66 16.66,3.629 30.96,5.91 14.27,2.269 28.59,3.418 42.94,3.418 34.15,0 58.79,-5.25 73.98,-15.77 15.18,-10.5 22.75,-26.98 22.75,-49.449 V 70.5703 h -59.54 v 19.8516" /><path
             id="path110"
             style="fill:#ffffff;fill-opacity:1;fill-rule:nonzero;stroke:none"
             d="m 2156.07,200.68 h -5.31 c -2.56,0.871 -6.67,1.55 -12.33,1.992 -5.66,0.449 -10.38,0.668 -14.15,0.668 -8.54,0 -16.08,-0.559 -22.63,-1.668 -6.56,-1.113 -13.61,-3 -21.15,-5.66 V 70.5703 h -60.21 V 257.879 h 60.21 v -27.52 c 13.22,11.352 24.69,18.879 34.46,22.602 9.76,3.73 18.76,5.598 26.96,5.598 2.11,0 4.5,-0.059 7.16,-0.18 2.66,-0.109 5,-0.27 6.99,-0.5 V 200.68" /></g></g></g></g></svg>