<?xml version="1.0" encoding="UTF-8" standalone="no"?>
<svg
   xmlns:dc="http://purl.org/dc/elements/1.1/"
   xmlns:cc="http://creativecommons.org/ns#"
   xmlns:rdf="http://www.w3.org/1999/02/22-rdf-syntax-ns#"
   xmlns:svg="http://www.w3.org/2000/svg"
   xmlns="http://www.w3.org/2000/svg"
   viewBox="0 0 1408.7067 377.94666"
   height="377.94666"
   width="1408.7067"
   xml:space="preserve"
   id="svg2"
   version="1.1"><metadata
     id="metadata8"><rdf:RDF><cc:Work
         rdf:about=""><dc:format>image/svg+xml</dc:format><dc:type
           rdf:resource="http://purl.org/dc/dcmitype/StillImage" /></cc:Work></rdf:RDF></metadata><defs
     id="defs6"><clipPath
       id="clipPath20"
       clipPathUnits="userSpaceOnUse"><path
         id="path18"
         d="M 0,0 H 10565 V 2834.64 H 0 Z" /></clipPath></defs><g
     transform="matrix(1.3333333,0,0,-1.3333333,0,377.94667)"
     id="g10"><g
       transform="scale(0.1)"
       id="g12"><g
         id="g14"><g
           clip-path="url(#clipPath20)"
           id="g16"><path
             id="path22"
             style="fill:#ffffff;fill-opacity:1;fill-rule:nonzero;stroke:none"
             d="m 3197.52,1623.82 -120.39,-447.06 h -127.81 l -79.96,291.23 -78.16,-291.23 h -127.5 l -120.4,447.06 h 120.34 l 68.58,-307.75 82.5,307.75 h 114.99 l 78.27,-307.75 72.01,307.75 h 117.53" /><path
             id="path24"
             style="fill:#ffffff;fill-opacity:1;fill-rule:nonzero;stroke:none"
             d="m 3450.05,1263.24 c 7.01,8.59 12.26,18.95 15.77,31.07 3.49,12.11 5.25,28.87 5.25,50.29 0,19.81 -1.8,36.42 -5.41,49.85 -3.6,13.41 -8.6,24.11 -15.01,32.12 -6.41,8.19 -14.11,14 -23.12,17.42 -8.99,3.39 -18.72,5.09 -29.12,5.09 -10.41,0 -19.66,-1.4 -27.77,-4.19 -8.1,-2.81 -15.87,-8.42 -23.26,-16.83 -6.61,-7.79 -11.87,-18.51 -15.77,-32.13 -3.9,-13.61 -5.86,-30.72 -5.86,-51.33 0,-18.41 1.71,-34.37 5.11,-47.88 3.4,-13.52 8.4,-24.38 15.01,-32.58 6.4,-7.82 14.06,-13.51 22.97,-17.11 8.9,-3.61 19.07,-5.41 30.47,-5.41 9.81,0 19.17,1.65 28.08,4.96 8.89,3.3 16.46,8.85 22.66,16.66 z m 133.02,81.96 c 0,-55.44 -16.18,-99.13 -48.49,-131.05 -32.33,-31.93 -77.72,-47.88 -136.17,-47.88 -58.44,0 -103.83,15.95 -136.16,47.88 -32.32,31.92 -48.49,75.61 -48.49,131.05 0,55.85 16.26,99.69 48.79,131.51 32.53,31.82 77.81,47.73 135.86,47.73 58.85,0 104.34,-16.02 136.46,-48.03 32.13,-32.03 48.2,-75.76 48.2,-131.21" /><path
             id="path26"
             style="fill:#ffffff;fill-opacity:1;fill-rule:nonzero;stroke:none"
             d="m 3904.91,1410.95 h -9.58 c -4.59,1.6 -11.99,2.81 -22.18,3.61 -10.18,0.79 -18.67,1.2 -25.45,1.2 -15.38,0 -28.96,-1.01 -40.74,-3.01 -11.79,-2 -24.47,-5.4 -38.05,-10.2 v -225.79 h -108.39 v 337.18 h 108.39 v -49.55 c 23.77,20.42 44.43,33.98 62.01,40.68 17.57,6.71 33.75,10.07 48.53,10.07 3.79,0 8.09,-0.1 12.88,-0.3 4.8,-0.2 8.99,-0.51 12.58,-0.9 v -102.99" /><path
             id="path28"
             style="fill:#ffffff;fill-opacity:1;fill-rule:nonzero;stroke:none"
             d="m 3966.16,1176.76 h 108.391 v 467.18 H 3966.16 Z" /><path
             id="path30"
             style="fill:#ffffff;fill-opacity:1;fill-rule:nonzero;stroke:none"
             d="m 4395.81,1269.57 v 165.69 c -7.6,3.2 -15.58,5.52 -23.97,6.91 -8.38,1.41 -16.07,2.11 -23.07,2.11 -28.36,0 -49.63,-8.86 -63.81,-26.62 -14.17,-17.73 -21.27,-42.34 -21.27,-73.82 0,-33.07 5.69,-57.08 17.08,-72.02 11.38,-14.93 29.65,-22.39 54.82,-22.39 9.79,0 20.17,1.85 31.15,5.57 10.99,3.7 20.67,8.55 29.07,14.57 z m 108.37,-92.81 h -108.37 v 35.13 c -18.61,-15.2 -35.99,-26.42 -52.19,-33.62 -16.2,-7.2 -34.88,-10.8 -56.07,-10.8 -40.99,0 -73.77,15.8 -98.36,47.43 -24.6,31.62 -36.89,74.26 -36.89,127.9 0,28.62 4.16,53.99 12.45,76.11 8.3,22.11 19.64,41.08 34.04,56.9 13.59,15.01 30.08,26.67 49.47,34.98 19.4,8.3 38.79,12.45 58.18,12.45 20.19,0 36.73,-2.15 49.63,-6.45 12.89,-4.31 26.14,-9.76 39.74,-16.36 v 143.51 h 108.37 v -467.18" /><path
             id="path32"
             style="fill:#ffffff;fill-opacity:1;fill-rule:nonzero;stroke:none"
             d="m 5142.8,1537.35 h -205.66 v -83.16 h 190.65 v -86.48 h -190.65 v -190.95 h -114.69 v 447.06 h 320.35 v -86.47" /><path
             id="path34"
             style="fill:#ffffff;fill-opacity:1;fill-rule:nonzero;stroke:none"
             d="m 5428.04,1263.24 c 7,8.59 12.25,18.95 15.75,31.07 3.5,12.11 5.25,28.87 5.25,50.29 0,19.81 -1.79,36.42 -5.41,49.85 -3.58,13.41 -8.59,24.11 -15.01,32.12 -6.39,8.19 -14.09,14 -23.11,17.42 -9.01,3.39 -18.72,5.09 -29.11,5.09 -10.42,0 -19.66,-1.4 -27.79,-4.19 -8.1,-2.81 -15.87,-8.42 -23.25,-16.83 -6.62,-7.79 -11.87,-18.51 -15.78,-32.13 -3.91,-13.61 -5.86,-30.72 -5.86,-51.33 0,-18.41 1.71,-34.37 5.12,-47.88 3.39,-13.52 8.4,-24.38 15.02,-32.58 6.39,-7.82 14.05,-13.51 22.96,-17.11 8.9,-3.61 19.07,-5.41 30.47,-5.41 9.81,0 19.17,1.65 28.08,4.96 8.89,3.3 16.45,8.85 22.67,16.66 z m 133,81.96 c 0,-55.44 -16.16,-99.13 -48.48,-131.05 -32.35,-31.93 -77.73,-47.88 -136.16,-47.88 -58.45,0 -103.85,15.95 -136.18,47.88 -32.31,31.92 -48.48,75.61 -48.48,131.05 0,55.85 16.26,99.69 48.79,131.51 32.54,31.82 77.81,47.73 135.87,47.73 58.84,0 104.33,-16.02 136.45,-48.03 32.12,-32.03 48.19,-75.76 48.19,-131.21" /><path
             id="path36"
             style="fill:#ffffff;fill-opacity:1;fill-rule:nonzero;stroke:none"
             d="m 5850.18,1263.24 c 7,8.59 12.25,18.95 15.75,31.07 3.5,12.11 5.25,28.87 5.25,50.29 0,19.81 -1.8,36.42 -5.41,49.85 -3.59,13.41 -8.59,24.11 -15.01,32.12 -6.39,8.19 -14.1,14 -23.12,17.42 -9,3.39 -18.71,5.09 -29.1,5.09 -10.42,0 -19.67,-1.4 -27.8,-4.19 -8.09,-2.81 -15.86,-8.42 -23.24,-16.83 -6.62,-7.79 -11.87,-18.51 -15.78,-32.13 -3.91,-13.61 -5.86,-30.72 -5.86,-51.33 0,-18.41 1.71,-34.37 5.12,-47.88 3.39,-13.52 8.4,-24.38 15.02,-32.58 6.39,-7.82 14.04,-13.51 22.96,-17.11 8.9,-3.61 19.07,-5.41 30.47,-5.41 9.81,0 19.16,1.65 28.08,4.96 8.89,3.3 16.45,8.85 22.67,16.66 z m 132.99,81.96 c 0,-55.44 -16.16,-99.13 -48.47,-131.05 -32.35,-31.93 -77.73,-47.88 -136.16,-47.88 -58.45,0 -103.85,15.95 -136.18,47.88 -32.31,31.92 -48.49,75.61 -48.49,131.05 0,55.85 16.27,99.69 48.79,131.51 32.55,31.82 77.81,47.73 135.88,47.73 58.84,0 104.33,-16.02 136.45,-48.03 32.12,-32.03 48.18,-75.76 48.18,-131.21" /><path
             id="path38"
             style="fill:#ffffff;fill-opacity:1;fill-rule:nonzero;stroke:none"
             d="m 6280.12,1269.57 v 165.69 c -7.61,3.2 -15.57,5.52 -23.97,6.91 -8.4,1.41 -16.07,2.11 -23.06,2.11 -28.38,0 -49.63,-8.86 -63.81,-26.62 -14.19,-17.73 -21.28,-42.34 -21.28,-73.82 0,-33.07 5.7,-57.08 17.08,-72.02 11.38,-14.93 29.65,-22.39 54.82,-22.39 9.79,0 20.16,1.85 31.15,5.57 10.98,3.7 20.68,8.55 29.07,14.57 z m 108.38,-92.81 h -108.38 v 35.13 c -18.61,-15.2 -36,-26.42 -52.18,-33.62 -16.2,-7.2 -34.89,-10.8 -56.08,-10.8 -40.98,0 -73.77,15.8 -98.35,47.43 -24.6,31.62 -36.9,74.26 -36.9,127.9 0,28.62 4.15,53.99 12.45,76.11 8.29,22.11 19.65,41.08 34.04,56.9 13.59,15.01 30.08,26.67 49.48,34.98 19.39,8.3 38.78,12.45 58.17,12.45 20.18,0 36.74,-2.15 49.62,-6.45 12.89,-4.31 26.15,-9.76 39.75,-16.36 v 143.51 h 108.38 v -467.18" /><path
             id="path40"
             style="fill:#ffffff;fill-opacity:1;fill-rule:nonzero;stroke:none"
             d="m 6956.54,1480.14 c 0,12.59 -3.41,23.42 -10.21,32.51 -6.8,9.08 -14.7,15.43 -23.7,19.02 -12.02,4.79 -23.72,7.44 -35.15,7.94 -11.4,0.49 -26.61,0.75 -45.62,0.75 h -19.82 v -133.61 h 33.04 c 19.61,0 35.77,1.2 48.47,3.6 12.71,2.4 23.36,7.18 31.99,14.37 7.4,6.39 12.74,14.04 16.06,22.92 3.3,8.88 4.94,19.72 4.94,32.5 z m 119.2,2.57 c 0,-20.02 -3.5,-39.59 -10.51,-58.7 -7,-19.12 -17.01,-35.18 -30.02,-48.18 -17.83,-17.62 -37.69,-30.93 -59.59,-39.94 -21.93,-9 -49.19,-13.51 -81.83,-13.51 h -71.75 v -145.62 h -115.29 v 447.06 h 189.75 c 28.42,0 52.39,-2.45 71.92,-7.36 19.5,-4.9 36.76,-12.25 51.78,-22.06 18.01,-11.82 31.77,-26.92 41.28,-45.34 9.5,-18.41 14.26,-40.53 14.26,-66.35" /><path
             id="path42"
             style="fill:#ffffff;fill-opacity:1;fill-rule:nonzero;stroke:none"
             d="m 7384.11,1410.95 h -9.58 c -4.58,1.6 -11.99,2.81 -22.18,3.61 -10.18,0.79 -18.67,1.2 -25.45,1.2 -15.38,0 -28.95,-1.01 -40.73,-3.01 -11.8,-2 -24.49,-5.4 -38.06,-10.2 v -225.79 h -108.38 v 337.18 h 108.38 v -49.55 c 23.77,20.42 44.43,33.98 62.01,40.68 17.57,6.71 33.75,10.07 48.54,10.07 3.79,0 8.08,-0.1 12.88,-0.3 4.78,-0.2 8.98,-0.51 12.57,-0.9 v -102.99" /><path
             id="path44"
             style="fill:#ffffff;fill-opacity:1;fill-rule:nonzero;stroke:none"
             d="m 7645.35,1263.24 c 7,8.59 12.26,18.95 15.78,31.07 3.48,12.11 5.25,28.87 5.25,50.29 0,19.81 -1.82,36.42 -5.4,49.85 -3.62,13.41 -8.63,24.11 -15.02,32.12 -6.42,8.19 -14.12,14 -23.12,17.42 -9,3.39 -18.72,5.09 -29.13,5.09 -10.42,0 -19.66,-1.4 -27.76,-4.19 -8.11,-2.81 -15.87,-8.42 -23.27,-16.83 -6.61,-7.79 -11.86,-18.51 -15.77,-32.13 -3.9,-13.61 -5.86,-30.72 -5.86,-51.33 0,-18.41 1.71,-34.37 5.1,-47.88 3.42,-13.52 8.42,-24.38 15.02,-32.58 6.4,-7.82 14.07,-13.51 22.98,-17.11 8.89,-3.61 19.05,-5.41 30.46,-5.41 9.8,0 19.16,1.65 28.08,4.96 8.9,3.3 16.47,8.85 22.66,16.66 z m 133.02,81.96 c 0,-55.44 -16.18,-99.13 -48.5,-131.05 -32.31,-31.93 -77.72,-47.88 -136.16,-47.88 -58.45,0 -103.83,15.95 -136.16,47.88 -32.33,31.92 -48.49,75.61 -48.49,131.05 0,55.85 16.25,99.69 48.8,131.51 32.52,31.82 77.81,47.73 135.85,47.73 58.85,0 104.34,-16.02 136.46,-48.03 32.13,-32.03 48.2,-75.76 48.2,-131.21" /><path
             id="path46"
             style="fill:#ffffff;fill-opacity:1;fill-rule:nonzero;stroke:none"
             d="m 8063.63,1283.04 v 152.84 c -6.2,2.58 -13.81,4.65 -22.78,6.16 -8.97,1.49 -17.08,2.24 -24.27,2.24 -28.36,0 -49.62,-8.16 -63.8,-24.46 -14.19,-16.32 -21.28,-39.09 -21.28,-68.31 0,-32.43 6.04,-55.05 18.14,-67.86 12.07,-12.81 30.01,-19.21 53.77,-19.21 10.77,0 21.37,1.7 31.74,5.1 10.39,3.4 19.88,7.91 28.48,13.5 z m 108.38,-67.55 c 0,-31.62 -4.51,-58.24 -13.51,-79.85 -9.01,-21.62 -21.62,-38.53 -37.85,-50.74 -16.2,-12.41 -35.77,-21.37 -58.69,-26.88 -22.91,-5.5 -48.79,-8.26 -77.6,-8.26 -23.43,0 -46.51,1.4 -69.21,4.21 -22.72,2.8 -42.38,6.2 -58.99,10.21 v 84.36 h 13.18 c 13.19,-5.2 29.28,-9.95 48.27,-14.26 18.99,-4.29 35.97,-6.45 50.97,-6.45 19.97,0 36.22,1.85 48.72,5.56 12.49,3.7 22.02,8.95 28.62,15.76 6.19,6.4 10.7,14.61 13.48,24.61 2.82,10.01 4.23,22.02 4.23,36.03 v 6.31 c -13,-10.62 -27.41,-19.02 -43.2,-25.21 -15.78,-6.23 -33.38,-9.32 -52.77,-9.32 -47.17,0 -83.56,14.21 -109.16,42.63 -25.59,28.42 -38.38,71.67 -38.38,129.71 0,27.82 3.9,51.84 11.69,72.05 7.81,20.23 18.79,37.84 32.99,52.85 13.2,14 29.45,24.92 48.73,32.72 19.3,7.81 39.03,11.71 59.22,11.71 18.21,0 34.75,-2.15 49.62,-6.45 14.91,-4.31 28.44,-10.26 40.65,-17.87 l 3.9,15.02 h 105.09 v -298.45" /><path
             id="path48"
             style="fill:#ffffff;fill-opacity:1;fill-rule:nonzero;stroke:none"
             d="m 8506.8,1410.95 h -9.59 c -4.6,1.6 -11.99,2.81 -22.17,3.61 -10.2,0.79 -18.67,1.2 -25.48,1.2 -15.37,0 -28.94,-1.01 -40.73,-3.01 -11.78,-2 -24.46,-5.4 -38.04,-10.2 v -225.79 h -108.41 v 337.18 h 108.41 v -49.55 c 23.76,20.42 44.43,33.98 62,40.68 17.58,6.71 33.76,10.07 48.53,10.07 3.8,0 8.1,-0.1 12.88,-0.3 4.8,-0.2 9,-0.51 12.6,-0.9 v -102.99" /><path
             id="path50"
             style="fill:#ffffff;fill-opacity:1;fill-rule:nonzero;stroke:none"
             d="M 8760.52,1264.96 V 1335 c -14.61,-1.2 -30.41,-2.86 -47.42,-4.94 -17.05,-2.1 -29.95,-4.54 -38.74,-7.35 -10.82,-3.39 -19.08,-8.32 -24.78,-14.8 -5.7,-6.5 -8.55,-15.02 -8.55,-25.59 0,-6.98 0.6,-12.68 1.79,-17.06 1.21,-4.39 4.22,-8.58 9.03,-12.57 4.6,-3.99 10.09,-6.93 16.49,-8.83 6.42,-1.89 16.43,-2.84 30.03,-2.84 10.82,0 21.77,2.19 32.88,6.57 11.11,4.4 20.87,10.19 29.27,17.37 z m 0,-52.46 c -5.79,-4.42 -13.02,-9.71 -21.61,-15.91 -8.6,-6.21 -16.72,-11.12 -24.34,-14.72 -10.59,-4.8 -21.61,-8.36 -33.01,-10.66 -11.4,-2.3 -23.92,-3.45 -37.53,-3.45 -32.02,0 -58.84,9.9 -80.46,29.72 -21.63,19.82 -32.43,45.13 -32.43,75.96 0,24.62 5.5,44.74 16.53,60.36 10.99,15.6 26.61,27.92 46.81,36.92 20.02,9.01 44.85,15.41 74.47,19.22 29.62,3.8 60.35,6.6 92.17,8.4 v 1.8 c 0,18.63 -7.6,31.48 -22.82,38.59 -15.22,7.1 -37.62,10.66 -67.25,10.66 -17.81,0 -36.82,-3.15 -57.05,-9.46 -20.21,-6.31 -34.71,-11.15 -43.53,-14.57 h -9.9 v 81.36 c 11.4,3.01 29.96,6.56 55.68,10.67 25.72,4.1 51.5,6.15 77.31,6.15 61.46,0 105.85,-9.45 133.16,-28.37 27.31,-18.91 40.99,-48.59 40.99,-89.02 v -229.39 h -107.19 v 35.74" /><path
             id="path52"
             style="fill:#ffffff;fill-opacity:1;fill-rule:nonzero;stroke:none"
             d="m 9284.77,1415.76 v -239 h -108.38 v 168.44 c 0,16.41 -0.4,30.37 -1.21,41.89 -0.79,11.5 -2.98,20.86 -6.6,28.07 -3.59,7.2 -9.07,12.45 -16.36,15.76 -7.32,3.3 -17.57,4.96 -30.77,4.96 -10.62,0 -20.92,-2.16 -30.92,-6.46 -10.02,-4.31 -19.02,-8.87 -27.03,-13.66 v -239 h -108.38 v 337.18 h 108.38 v -37.23 c 18.58,14.6 36.38,26.01 53.38,34.22 16.98,8.21 35.77,12.31 56.37,12.31 22.2,0 41.79,-4.95 58.78,-14.85 16.98,-9.92 30.27,-24.48 39.88,-43.7 21.57,18.22 42.55,32.53 62.95,42.94 20.38,10.4 40.37,15.61 59.97,15.61 36.36,0 64.01,-10.91 82.88,-32.72 18.9,-21.82 28.35,-53.24 28.35,-94.28 v -219.48 h -108.4 v 168.44 c 0,16.61 -0.34,30.63 -1.06,42.04 -0.69,11.4 -2.85,20.71 -6.43,27.92 -3.41,7.2 -8.82,12.45 -16.23,15.76 -7.41,3.3 -17.8,4.96 -31.23,4.96 -8.99,0 -17.81,-1.57 -26.4,-4.66 -8.62,-3.1 -19.13,-8.26 -31.54,-15.46" /><path
             id="path54"
             style="fill:#ffffff;fill-opacity:1;fill-rule:nonzero;stroke:none"
             d="m 9923.71,1415.76 v -239 h -108.4 v 168.44 c 0,16.41 -0.41,30.37 -1.19,41.89 -0.81,11.5 -3.01,20.86 -6.6,28.07 -3.61,7.2 -9.06,12.45 -16.36,15.76 -7.31,3.3 -17.58,4.96 -30.79,4.96 -10.62,0 -20.92,-2.16 -30.93,-6.46 -10.01,-4.31 -19.01,-8.87 -27.02,-13.66 v -239 h -108.38 v 337.18 h 108.38 v -37.23 c 18.61,14.6 36.4,26.01 53.39,34.22 16.99,8.21 35.77,12.31 56.38,12.31 22.18,0 41.77,-4.95 58.76,-14.85 16.99,-9.92 30.29,-24.48 39.88,-43.7 21.59,18.22 42.57,32.53 62.95,42.94 20.4,10.4 40.42,15.61 60.02,15.61 36.3,0 64,-10.91 82.9,-32.72 18.8,-21.82 28.3,-53.24 28.3,-94.28 v -219.48 h -108.4 v 168.44 c 0,16.61 -0.4,30.63 -1.1,42.04 -0.6,11.4 -2.8,20.71 -6.4,27.92 -3.4,7.2 -8.8,12.45 -16.2,15.76 -7.4,3.3 -17.84,4.96 -31.24,4.96 -9.02,0 -17.82,-1.57 -26.44,-4.66 -8.6,-3.1 -19.1,-8.26 -31.51,-15.46" /><path
             id="path56"
             style="fill:#ffffff;fill-opacity:1;fill-rule:nonzero;stroke:none"
             d="m 10457.9,1388.74 c -0.6,22.61 -6.3,39.63 -16.8,51.03 -10.7,11.42 -27.2,17.12 -49.6,17.12 -20.8,0 -37.9,-5.41 -51.3,-16.21 -13.5,-10.81 -21,-28.13 -22.5,-51.94 z m 107.4,-63.35 h -247.4 c 1.6,-26.43 11.7,-46.64 30.2,-60.66 18.5,-14 45.8,-21.01 81.8,-21.01 22.9,0 45,4.1 66.4,12.3 21.4,8.21 38.3,17.01 50.7,26.44 h 12 v -86.77 c -24.4,-9.82 -47.4,-16.92 -69,-21.33 -21.6,-4.39 -45.6,-6.6 -71.8,-6.6 -67.6,0 -119.5,15.21 -155.5,45.63 -36,30.42 -54,73.76 -54,130 0,55.64 17,99.73 51.1,132.27 34.2,32.52 81,48.78 140.4,48.78 54.9,0 96.1,-13.86 123.7,-41.58 27.6,-27.73 41.4,-67.6 41.4,-119.64 v -37.83" /><path
             id="path58"
             style="fill:#ffffff;fill-opacity:1;fill-rule:nonzero;stroke:none"
             d="m 1340.5,2131.15 c 12.51,27.07 24.09,48.62 40.79,74.3 7.37,11.32 15.69,19.22 23.11,30.67 -3.54,1.02 -8.73,-1.91 -10.96,-3.5 -7.42,-5.38 -10.77,-14.12 -16.71,-18.8 -14.03,-11.07 -13.64,-21.11 -21,-26.27 -6.57,-4.64 -8.45,-7.69 -13.05,-14.91 -3.08,-4.82 -5.35,-8.73 -8.6,-18.23 -1.15,-3.42 -3.45,-0.39 -8.92,-7.93 -7.19,-9.8 -10.41,-20.39 -13.39,-32.26 -0.96,-3.9 -7.59,-5.97 -11.86,-14.07 -5.71,-10.92 -9.43,-21.03 -11.9,-36.95 -0.62,-3.69 -6.86,-6.25 -11.16,-16.53 -3.05,-7.23 -5.24,-8.83 -7.9,-22.46 -1.65,-8.3 -5.43,-9.5 -9.7,-21.56 -3.3,-9.2 -3.43,-18.06 -4.58,-30.08 -0.27,-2.33 -4.2,-6.95 -7.83,-13.69 -6.1,-11.26 -5.9,-18.78 -8.32,-30.41 -0.93,-4.2 -5.65,-9.77 -10.18,-27.79 -3.98,-15.98 -0.33,-26.58 -1.68,-34.45 -3.53,-20.45 -7.03,-38.21 -5.14,-58.35 0.94,-9.85 2.44,-20.01 1.78,-29.48 -1.87,-29.7 -3.48,-54.17 -3.32,-87.83 0.11,-18.32 1.54,-43.41 4.32,-64.29 3.04,-23.06 7.44,-41.07 7.44,-41.07 h 75.14 c 0,0 -2.94,43.45 0.95,89.19 2.31,27.42 8.83,56.49 14.76,76.9 7.51,26.02 12.18,39.5 26.37,73.84 0.3,0.76 -0.1,3.98 -3.85,0.83 -7.84,-6.58 -14.39,-12.37 -20.58,-21.69 -9.45,-14.25 -15.21,-25.99 -22.87,-40.63 -8.95,-17.02 -13.89,-31.85 -23.11,-52.52 -0.54,14.92 1.88,29.12 4.91,42.87 3.1,14.04 5.56,25.16 9.98,37.26 7.83,21.35 15.43,39.16 27.99,59.03 7.27,11.47 16.57,21.77 26.01,30.32 11.29,10.32 21.73,19.4 33.55,29.5 -12.42,6.4 -28.96,-6.97 -32.27,-7.65 -17.47,-3.41 -24.58,-19.61 -29.93,-21.82 -7.65,-3.2 -12.07,-7.89 -17.38,-14.34 -4.09,-4.84 -5.32,-12.32 -9.59,-14.98 -7.13,-4.44 -12.37,-11.14 -17.27,-20.5 -2.01,-3.86 -7.5,-22.13 -13.59,-19.78 10.42,61.92 32.28,120.01 67.38,171.69 22.25,32.78 46.45,60.89 82.12,86.11 4.7,3.34 5.61,4.89 -0.95,4.66 -33.34,-4.05 -35.38,-19.27 -40.87,-20.71 -5.2,-1.35 -11.65,-7.52 -15.77,-11.53 -7.41,-7.33 -7.28,-13.51 -10.13,-15.43 -6.08,-4.25 -10.66,-8.65 -14.81,-16.03 -2.19,-3.84 -5.86,-12.3 -9.11,-14.23 -8.57,-4.96 -16.86,-12.19 -20.99,-19.99 -3.05,-5.7 -4.27,-11.89 -8.25,-17.49 -4.27,-6.02 -10.23,-10.53 -15.36,-14.88 3.9,26.47 16.37,57.82 24.95,84.87 11.53,36.12 25.54,68.95 41.33,103.07" /><path
             id="path60"
             style="fill:#ffffff;fill-opacity:1;fill-rule:nonzero;stroke:none"
             d="m 1417.21,1916.65 c 28.44,63.85 58.37,111.9 97.26,168.11 5.08,7.36 9.64,14.58 14.08,21.49 2,3.11 11.56,16.85 13.55,19.76 13.04,19.69 18.52,25.72 31.86,44.53 3.62,5.11 6.55,9.13 8.09,15.04 2.84,11.01 -6.61,18.4 -8.79,28.96 -2.2,10.79 -0.99,22.57 3.96,31.68 3.1,5.69 6.19,7.93 9.31,15.57 6.07,14.73 3.97,46.6 10.87,47.44 -1.75,-15.13 -2.15,-32.13 0.23,-46.64 2.76,-16.93 13.03,-27.18 17.27,-45.11 11.43,2.06 23.83,1.57 33.45,0.74 9.54,-0.82 21.61,1.83 31.4,5.18 13.26,4.53 24.27,12.78 37.79,15.98 -11.5,-11.05 -27.73,-15.2 -41.33,-23.59 -5,-3.14 -9.71,-7.29 -13.05,-12.45 -5.46,-8.5 -9.78,-16.64 -18.34,-20.38 -15.19,-6.62 -28.24,-3.48 -45.57,-6.7 -25.76,-26.54 -50.01,-62.63 -72.38,-100.58 -56.73,-95.98 -104.04,-195.37 -131.54,-297.29 9.51,17.73 18.6,34.88 28.9,51.75 11.38,18.74 24.18,37.09 38.13,55.47 32.66,43.05 64.97,80.64 101.18,120.19 29.21,31.95 61.24,58.76 96.95,81.18 47.19,29.57 105.41,50.28 156.56,39.6 5.82,-1.36 14.14,-2.91 17.77,-6.74 -64.11,8.98 -121.54,-13.42 -164.39,-47.74 -33.86,-27.08 -62.39,-54.56 -91.39,-90.27 -14.98,-17.21 -28.45,-36.13 -41.83,-54.45 -14.02,-19.27 -26.45,-39.55 -38.77,-59.83 -41.55,-68.61 -72.99,-141.25 -96.12,-216.51 -0.66,-2.38 -0.81,-4.78 -1.46,-7.16 1.09,1.69 2.71,3.53 3.81,5.25 31.12,50.6 68.55,99.45 115.96,132.22 4.14,2.82 8.45,8.26 9.57,12.53 5.12,20.09 -10.19,29.75 10.99,57.52 4.86,6.38 11.51,8.71 16.1,14.64 8.67,13.4 15.74,37.41 23,43.86 -3.65,-15.63 -12.61,-32.15 -14.53,-48.26 -2.03,-17.68 2.49,-32.14 3.28,-50.88 12.52,-1.71 22.21,-7.01 32.03,-10.04 15.28,-4.77 24.46,-3.56 39.57,-2.25 6.45,0.54 18.15,4.31 25.1,2.89 -14.61,-7.98 -34.33,-6.51 -49.28,-14.14 -10.46,-5.36 -13.49,-13.27 -27.92,-16.05 -12.84,-2.5 -23.64,-1.16 -31.98,3.12 -6.49,3.27 -11.56,4.64 -17.39,1.85 -15.56,-7.47 -26.18,-18.02 -38.7,-30.65 -29.08,-29.26 -52.81,-61.93 -74.96,-104.74 -5.86,-11.41 -11.13,-22.65 -16.13,-34.26 -2.47,-5.65 -8.6,-21.34 -8.6,-21.34 h -75.98 c 0,0 -0.19,21.91 0.52,29.91 1.46,15.94 3.63,27.76 6.72,43.93 4.41,23.27 8.72,44.38 14.76,66.95 5.88,21.96 12.21,42.56 19.74,63.65 15.71,43.96 32.41,86.06 50.67,127.06" /><path
             id="path62"
             style="fill:#ffffff;fill-opacity:1;fill-rule:nonzero;stroke:none"
             d="m 682.551,1324.8 c 27.73,22.68 48.269,35.82 75.957,52.33 11.25,6.72 28.262,14.33 41.336,20.26 47.988,21.68 111.465,37.67 171.269,38.77 1.082,0 1.016,-0.05 1.016,-0.05 h 445.901 c 0,0 -1.66,0.05 1.56,0.05 14.19,0 28.22,-4.94 36.91,-13.15 8.71,-8.26 12.87,-20.97 15.14,-33.62 1.92,-10.78 0.98,-20.36 -1.53,-31.89 -1.97,-9.11 -3.43,-14.54 -8.51,-22.28 -3.06,-4.71 -5.97,-7.94 -11.68,-12.48 -5.86,-4.68 -14.16,-6.31 -23.67,-6.4 -1,-0.04 -3.12,-0.1 -3.05,-0.07 0.1,0.07 -521.559,0.07 -521.559,0.07 0,0 -3.243,0.01 -4.871,0.01 -34.141,0.11 -70.09,-1.63 -103.832,-6.03 -25.848,-3.53 -51.747,-7.56 -76.727,-14.06 -31.504,-8.23 -61.836,-19.62 -92.117,-30.91 16.785,22.31 36.16,41.24 58.457,59.45" /><path
             id="path64"
             style="fill:#ffffff;fill-opacity:1;fill-rule:nonzero;stroke:none"
             d="m 837.383,1502.21 c 27.402,19.79 60.664,36.04 90.129,47.32 14.949,5.66 34.812,11.93 50.593,15.86 19.063,4.81 40.965,8.42 58.825,8.94 5.39,0.15 0.79,0.04 0.79,0.04 l 382.46,0.04 c 0,0 8.19,-0.44 11.03,-1 7.19,-1.55 12.99,-4.48 15.39,-6.01 5.94,-3.81 13.4,-11.81 17.3,-18.14 9.93,-16.35 11.68,-34 8.46,-52.37 -3.67,-20.97 -19.61,-44.86 -41.23,-45.45 -3.77,-0.1 -11.28,0 -11.28,0 h -414.22 c 0,0 -24.114,-0.47 -35.122,-0.87 -20.379,-0.8 -42.969,-3.12 -60.75,-5.74 -15.215,-2.19 -30.078,-5.07 -45.317,-9.15 -51.074,-13.8 -95.449,-39.7 -141.851,-59.84 31.25,54.63 73.531,96.48 114.793,126.37" /><path
             id="path66"
             style="fill:#ffffff;fill-opacity:1;fill-rule:nonzero;stroke:none"
             d="m 623.438,1242.28 c 66.484,39.28 146.582,54.77 219.882,57.23 1.746,0.08 5.227,0.19 5.227,0.19 l 571.723,-0.05 c 0,0 1.04,0 6.21,0.05 34.65,0.03 47.31,-34.35 47.15,-62.15 -0.07,-9.16 -1.62,-18.5 -4.16,-24.77 -3.29,-8.19 -6.93,-14.88 -12.89,-21.34 -2.13,-2.34 -9.78,-7.72 -13.17,-8.55 -7.92,-1.94 -17.67,-1.72 -17.61,-1.72 0.08,0 -425.26,-0.08 -425.26,0 0,0 -22.95,0.92 -38.868,2.45 -11.477,1.13 -20.18,2.33 -32.094,4.6 -29.285,5.82 -53.562,15.35 -78.926,23.17 -16.922,5.24 -34.714,9.13 -53.281,11.94 -34.129,5.22 -71.414,7.6 -105.887,4.99 -43.847,-3.26 -82.839,-11.85 -124.55,-25.08 7.05,10.99 36.367,27.12 56.504,39.04" /><path
             id="path68"
             style="fill:#ffffff;fill-opacity:1;fill-rule:nonzero;stroke:none"
             d="m 931.395,1063 c -19.547,6.89 -38.614,15.78 -55.719,27.07 -22.285,14.75 -33.215,26.48 -62.016,39.79 -24.644,11.39 -44.324,22.63 -78.687,35.08 -16.582,6.01 -43.442,14.28 -66.477,18.22 -32.91,5.59 -64.641,8.04 -64.641,8.04 0,0 6.719,4.19 10.774,5.43 33.586,10.22 63.254,15.21 97.742,17.76 30.246,2.27 58.027,-0.68 88.352,-5.42 12.441,-1.96 28.613,-5.79 42.668,-9.8 45.64,-12.99 97.527,-33.59 143.55,-33.67 2.571,0 2.278,0.04 2.278,0.04 h 425.011 c 0,0 -3.21,0 1.3,0 12.87,0.04 36.93,-4.13 46.6,-21.21 11.2,-19.68 14.68,-43.12 5.27,-66.6 -2.85,-7.05 -7.58,-17.16 -14.37,-23.28 -5.97,-5.4 -15.67,-8.87 -21.27,-8.87 -1.62,-0.08 -4.4,0 -4.4,0 h -371.69 c 0,0 1.41,0 -2.03,0 -38,0 -85.847,4.6 -122.245,17.42" /><path
             id="path70"
             style="fill:#ffffff;fill-opacity:1;fill-rule:nonzero;stroke:none"
             d="m 1100.71,931.16 c -10.51,10.789 -25.01,27.328 -38.15,43.039 -25.23,30.071 -36.52,57.161 -36.52,57.161 h 247.91 c 0,0 0.66,-28.6 -5.07,-61.719 -5.36,-30.75 -16.72,-63.172 -28.8,-86.661 -0.44,-24.082 9.72,-46.468 11.39,-70.261 -20.36,-12.5 -42.26,-24.867 -60.51,-42.418 -1.17,-1.082 -3.05,-1.082 -3.82,1.828 -9.77,36.66 -14.92,69.34 -22.94,105.59 -22.61,17.472 -43.8,33.043 -63.49,53.441" /><path
             id="path72"
             style="fill:#ffffff;fill-opacity:1;fill-rule:nonzero;stroke:none"
             d="m 1356.2,951.488 c -7.01,12.953 -12.24,30.051 -20.29,40.223 -1.73,-9.07 0.4,-14.652 -0.83,-23.332 -1.13,-7.27 -7.09,-4.25 -8.3,-0.828 -3.48,9.84 -7.17,21.988 -10.35,32.078 -5.29,16.801 -6.98,31.681 -6.98,31.681 l 41.24,0.05 c 0,0 1.59,-0.39 2.32,-4.4 1.97,-10.39 1.48,-20.54 4.33,-32.581 3.66,-15.508 8.37,-29.668 14.07,-44.129 4.96,-12.73 11.35,-25.57 16.55,-38.211 0.7,-1.66 1.04,-4.859 -0.21,-6.519 -1.53,-1.918 -4.16,-1.68 -5.67,0 -11.81,13.429 -16.57,28.64 -25.88,45.968" /><path
             id="path74"
             style="fill:#ffffff;fill-opacity:1;fill-rule:nonzero;stroke:none"
             d="m 1420.04,922.012 c -7.01,14.949 -16.88,31.758 -16.02,48.718 4.56,-5.992 6.44,-10.281 12.72,-13.621 2.87,-0.91 8.89,-0.058 7.38,4.961 -2.77,9.34 -7.08,17.25 -11.06,30.071 -5.92,18.949 -11.67,39.199 -11.67,39.199 l -42.1,0.02 c 0,0 2.33,-17.08 11.9,-43.29 8.41,-23.211 21.4,-49.769 35.62,-74.672 11.59,-20.476 22.11,-38.347 35.25,-53.308 4.5,-5.149 15.54,-0.629 10.76,6.07 -12.47,17.641 -24.11,37.168 -32.78,55.852" /><path
             id="path76"
             style="fill:#ffffff;fill-opacity:1;fill-rule:nonzero;stroke:none"
             d="m 1693.4,2344.89 c -9.14,-3.98 -17.21,-9.13 -21.77,-17.91 -3.32,-6.3 -5.56,-15.92 0.79,-21.34 11.12,-9.48 24.38,0.23 29.75,9.92 6.79,12.35 5.02,35.96 5.02,35.96 0,0 -7.89,-4.11 -13.79,-6.63" /><path
             id="path78"
             style="fill:#ffffff;fill-opacity:1;fill-rule:nonzero;stroke:none"
             d="m 1703.06,2285.95 c 3.99,7.54 12.74,15.68 22.33,21.51 10.84,6.63 22.07,13.06 29.88,17.72 7.81,4.7 9.3,7.99 9.3,7.99 0,0 -6.44,-2.22 -9.96,-4.29 -19.28,-11.5 -40.31,-24.56 -48.87,-28.33 -10.8,-4.71 -25.47,-5.62 -38.7,-7.31 -2.11,16.69 -6.44,23.62 -6.39,38.44 0.11,7.12 1.83,16.34 3.04,22.77 4.14,21.43 4.95,32.25 4.95,32.25 0,0 -3.27,-3.05 -4.46,-12.49 -1.35,-8.51 -2.3,-11.66 -4.26,-21.73 -2.22,-11.62 -4.55,-21.47 -11.5,-28.73 -10.02,-10.36 -19.3,-28.82 -11.56,-42.96 4.51,-8.26 12.04,-7.06 14.4,-9.19 2.35,-2.12 3.79,-7.21 10.92,-9.57 15.39,-5.14 32.83,8.67 40.88,23.92" /><path
             id="path80"
             style="fill:#ffffff;fill-opacity:1;fill-rule:nonzero;stroke:none"
             d="m 1683.11,2241.88 c 5.22,8.48 10.58,14.43 18.81,19.48 13.67,8.33 23.8,13.97 32.13,18.24 3.62,1.81 6.63,3.97 7.55,7.83 -3.73,-1.4 -17.83,-8.03 -31.83,-16.36 -10.03,-5.98 -27.27,-13.46 -38.85,-13.99 -4.59,-0.2 -7.99,0.93 -11.74,1.04 -7.77,0.33 -17.67,-1.55 -17.67,-1.55 0,0 -2.51,10.98 -5.83,18.89 -1.66,4.06 -4.35,8.22 -5.8,15.83 -0.97,5.08 -1.26,12.71 -0.86,17.25 1.14,13.73 4.84,27.07 4.2,40.97 -8.63,-17.93 -5.1,-40.01 -15.23,-53.88 -4.28,-5.83 -7.66,-10.43 -11.02,-17.78 -5.56,-12.06 -4.9,-24.55 2.62,-36.18 4.34,-6.62 13.91,-6.38 15.56,-7.67 2.51,-1.85 4.65,-8.78 14.01,-10.86 16.02,-3.6 34.9,3.82 43.95,18.74" /><path
             id="path82"
             style="fill:#ffffff;fill-opacity:1;fill-rule:nonzero;stroke:none"
             d="m 1687.58,1891.29 c 3.73,7.53 6.13,17.42 10.89,24.41 -10.76,-1.61 -12.49,-2.84 -28.04,-4.55 -3.39,-0.32 -10.4,-3.84 -12.72,-6.15 -6.15,-6.21 -11.52,-11.96 -9.13,-22.38 0.92,-4.05 4.5,-7.02 6.49,-7.65 12.93,-4.2 26.05,3.49 32.51,16.32" /><path
             id="path84"
             style="fill:#ffffff;fill-opacity:1;fill-rule:nonzero;stroke:none"
             d="m 1700.7,1870.77 c 14.69,3.43 31.66,10.64 38.48,8.37 -13.79,-7.33 -31.17,-10 -46.45,-14.35 -11.65,-3.36 -19.97,-12.16 -30.37,-20.15 -9.55,-7.26 -22.24,-10.22 -33.59,-4.88 -3.83,1.82 -7.54,7.99 -8.2,11.28 -0.6,2.63 -6.08,5.26 -8.89,7.58 -2.83,2.36 -4.2,8.25 -4.26,10.52 -0.49,20.34 14.98,28.55 29.89,40.5 11.23,8.99 25.81,47.16 34.7,55.07 -1.58,-12.3 -17.58,-35.51 -24.55,-53.58 -5.53,-14.39 -3.71,-25.9 -7.28,-41.04 10.66,-0.68 22.54,-2.91 33.28,-3.09 8.42,-0.11 18.59,1.72 27.24,3.77" /><path
             id="path86"
             style="fill:#ffffff;fill-opacity:1;fill-rule:nonzero;stroke:none"
             d="m 1685.22,1839.42 c -8.25,-1.53 -18.34,-4.13 -25.23,-5.59 -23.95,-5.07 -35.4,6.66 -54.52,6.44 1.68,21.91 -5.93,31.71 0.33,45.87 5.59,12.6 10.76,25.94 15.56,36.61 3.89,8.57 5.07,15.8 5.07,15.8 0,0 -5.8,-8.69 -22.32,-40.86 -5.74,-11.23 -16.02,-13.63 -25.15,-24.23 -10.51,-12.12 -16.54,-37.75 2.9,-48.51 3.86,-2.12 3.3,-8.78 6.11,-11.47 12.98,-12.21 39.19,-10.98 55.58,3.9 13.05,11.89 28.91,13.82 42.43,17.32 7.9,2.04 14.83,5.41 14.83,5.41 0,0 -3.75,1.52 -15.59,-0.69" /><path
             id="path88"
             style="fill:#ffffff;fill-opacity:1;fill-rule:nonzero;stroke:none"
             d="m 1205.22,1585.17 c -0.94,0 -1.96,0 0,0 z m -111.88,315.55 c -7.99,-10.56 -11.69,-22.7 -20.5,-31.92 -4.6,-4.83 -11.63,-2.57 -15.27,2.99 -4.04,6.29 -10.59,15.18 -5.72,21.39 8,10.27 24.75,16.82 39,14.96 0.84,-0.09 5.43,-3.48 2.49,-7.42 z M 1055,1840.33 c -4.47,-11.96 -17.8,-13.26 -29.14,-15.62 -2.12,-0.46 -8.64,0 -11.57,2.87 -4.91,4.79 -9.14,11.34 -8.29,19.54 0.46,5.06 4.67,10.02 9.9,12.03 9.47,3.67 20.69,9.57 30.03,4.33 8.03,-4.48 12.23,-14.72 9.07,-23.15 z m -24.55,-63.22 c -3.26,-4.71 -11.64,10.95 -12.74,18.12 -3.12,20.77 15.08,26.07 30.25,25.43 0.47,-12.39 -9.13,-31.57 -17.51,-43.55 z m -16.39,-56.03 c -2.97,-8.36 -4.4,-16.03 -7.72,-23.69 -3.22,-7.4 -16.977,-10.04 -24.602,-7.67 -10.898,3.37 -20.246,27.83 -7.859,37.2 9.48,7.08 19.297,8.22 31.361,9.7 2.17,0.26 10.28,-0.23 10.59,-0.99 2.02,-5.08 0.74,-7.62 -1.77,-14.55 z m -18.33,-64.59 c -2.207,-6.42 -3.179,-13.03 -6.023,-19.2 -1.414,-3.12 -3.281,1 -3.359,1.19 -4.278,10.65 -6.985,19.66 -3.328,29.03 2.058,5.19 9.16,9.96 15.898,10.38 -0.41,-6.67 -0.891,-14.9 -3.188,-21.4 z M 974.082,1625 c -4.922,2.22 -4.852,8.55 -6.914,12.49 -1.941,3.83 -6.133,9.12 -4.402,14.16 9.492,-5.33 13.894,-14.83 11.316,-26.65 z m -16.387,39.31 c -11.34,9.32 -12.312,24.21 -19.863,35.62 8.328,5.33 22.383,4.26 26.711,-6.29 3.453,-8.48 5.965,-20.94 -2.641,-27.41 -0.925,-0.69 -3.132,-2.81 -4.207,-1.92 z m -42.246,76.85 c -1.699,2.42 -5.066,9.43 -2.5,10.32 20.281,6.98 35.496,7.21 39.832,-14.48 3.071,-15.49 -7.508,-28.78 -22.332,-23.36 -4.25,1.56 -8.469,18.06 -15,27.52 z m -29.504,48.99 c -1.414,1.79 -2.578,7.18 -0.8,8.56 10.546,8.48 26.027,9.13 38.019,7.96 15.813,-1.44 19.055,-16.14 16.414,-28.32 -3.473,-16.04 -27.801,-18.04 -34.683,-15.37 -6.77,2.6 -11.497,17.94 -18.95,27.17 z m 3.45,57.03 c 13.664,8.86 39.785,15.43 44.14,-8.56 1.32,-7.23 -0.488,-16.83 -10.254,-19.97 -10.027,-3.22 -21.843,-6.69 -31.008,-2.97 -11.277,4.61 -13.496,24.65 -2.878,31.5 z m -14.168,40.36 c 1.035,4.6 6.128,6.78 10.418,7.88 11.066,2.72 23.425,6.85 33.585,0.38 3.954,-2.5 4.254,-6.04 4.774,-11.02 0.898,-8.07 -0.242,-14.66 -5.559,-17.74 -10.777,-6.32 -21.734,-6.89 -34.257,-4.43 -10.157,2.01 -10.985,15.47 -8.961,24.93 z m -11.332,-62.21 c -9.469,7.01 -13.661,16.91 -20.641,26.72 -1.684,2.4 0,3.39 1.297,3.76 16.804,4.75 29.277,-3.63 26.66,-21.96 -0.469,-3.56 -2.781,-11.85 -7.316,-8.52 z m -46.383,56.61 c -6.301,5.45 -1.926,14.92 3.562,17.68 9.61,4.77 24.707,5.49 34.707,2.12 6.426,-2.16 9.68,-11.39 8.528,-21.47 -0.481,-4.12 -1.743,-8.67 -3.762,-10.01 -7.617,-5.19 -19.395,-5.4 -28.652,-3.47 -6.551,1.39 -8.887,10.35 -14.383,15.15 z m -7.27,57.25 c 6.098,13.25 28.313,13.36 40.41,7.46 9.856,-4.85 11.094,-23.19 0.332,-30.42 -8.589,-5.72 -22.117,-3.62 -31.218,-1.95 -12.942,2.38 -13.965,15.1 -9.524,24.91 z m 0.5,49.61 c 9.231,8.77 21.184,4.75 32.305,3.21 2.148,-0.31 4.719,-1.82 6.172,-3.27 7.59,-7.67 8.191,-20.24 -0.266,-26.53 -9.742,-7.25 -21.922,-2.53 -33.641,-1.94 -3.164,0.12 -6.64,3.84 -7.363,6.22 -2.109,7.42 -3.387,16.49 2.793,22.31 z m 5.946,41.49 c 9.796,4.09 26.632,5.97 33.578,-5.03 4.254,-6.74 3.015,-19.22 -3.821,-21.03 -6.687,-1.73 -29.453,-5.51 -34.902,7.07 -2.703,6.2 -1.563,16.17 5.145,18.99 z m 30.16,35.25 c 2.84,-1.25 4.605,-3.52 5.269,-7 1.399,-7.55 -0.586,-15.75 -7.832,-17.08 -10.894,-1.98 -27.058,-2.61 -27,12.78 0.039,17.17 16.953,16.98 29.563,11.3 z m -21.914,31.93 c 5.789,2.21 15.332,1.72 20.527,-0.99 2.625,-1.37 6.148,-5.68 4.668,-10.22 -1.848,-5.93 -7.363,-8.07 -13.625,-8.15 -6.024,-0.05 -12.93,0.43 -15.359,5.34 -2.305,4.66 -1.333,12.04 3.789,14.02 z m 6.765,25.74 c 5.293,1.93 13.125,1.8 16.985,-2.38 5.3,-5.79 1.113,-15 -8.887,-14.54 -3.527,0.15 -7.695,1.36 -9.824,2.57 -5.176,2.92 -3.457,12.5 1.726,14.35 z m 23.809,16.59 c 0.683,2.23 4.16,4.84 5.984,5.49 3.969,1.41 8.625,1.7 12.426,0.19 7.605,-3.13 6.562,-12.53 -1.555,-15.83 -3.633,-1.47 -9.218,-2.43 -11.953,-1.47 -5.117,1.73 -6.531,6.17 -4.902,11.62 z m 23.68,-36.76 c -8.29,-2.43 -19.84,-2.9 -22.325,5.6 -4.195,14.42 14.004,16.58 23.449,13.56 6.512,-2.07 8.821,-16.31 -1.124,-19.16 z m 5.492,47.62 c 2.632,8.94 12.761,13.79 21.929,11.06 7.895,-2.31 9.707,-13.06 4.387,-18.29 -2.41,-2.34 -6.406,-4.73 -10.703,-5.68 -9.387,-2.1 -18.605,3.07 -15.613,12.91 z m 41.258,-32.79 c -1.485,-5.83 -5.77,-9.83 -12.618,-11.35 -6.804,-1.5 -16.218,-1.92 -19.992,2.28 -3.594,3.99 -5.254,9.59 -2.242,13.88 6.016,8.56 17.039,11.55 26.863,9.38 5.606,-1.31 9.727,-7.05 7.989,-14.19 z m -3.665,34.31 c 3.665,8.11 12.954,12.19 21.875,9.47 1.79,-0.58 5.469,-3.45 5.981,-6.29 1.062,-5.64 -0.899,-10.79 -5.609,-13.74 -6.036,-3.85 -11.012,-6.01 -17.95,-3.17 -5.203,2.18 -6.472,8.94 -4.297,13.73 z m 38.442,-22.78 c 4.07,-6.9 -2.129,-13.83 -5.285,-15.73 -6.985,-4.09 -16.836,-6.6 -21.043,0.33 -4.145,6.79 -0.715,14.86 6.504,17.84 6.89,2.86 14.031,7.2 19.824,-2.44 z m 11.582,-26.36 c 4.566,-3.78 8.57,-11.7 3.101,-17.97 -5.132,-5.91 -11.519,-7.68 -19.586,-8.98 -5.46,-0.93 -12.445,3.11 -13.324,7.93 -0.808,4.15 -1.57,11.72 2.539,15.21 8.032,6.83 18.782,10.79 27.27,3.81 z m 9.676,44.98 c 4.304,-1.28 7.058,-5.84 4.902,-10.23 -1.309,-2.7 -5.187,-5.65 -7.645,-7.15 -6.769,-4.18 -12.57,-2.46 -14.687,2.51 -3.898,9.15 9.207,17.29 17.43,14.87 z m 16.504,-22.8 c 4.743,-0.42 6.923,-3.73 7.863,-7.36 1.23,-4.87 -0.37,-9.38 -4.48,-12.14 -4.895,-3.25 -10.993,-5.17 -15.876,-5.24 -6.589,-0.12 -12.691,9.56 -9.121,15.84 3.782,6.74 13.305,9.62 21.614,8.9 z m 27.273,-34.89 c 2.81,-8.28 -3.26,-12.14 -9.66,-15.54 -6.5,-3.47 -15.22,-6.71 -19.735,-2.39 -5.769,5.43 -8.335,14.58 -1.902,20.6 8.917,8.36 25.397,14.65 31.297,-2.67 z m 11.78,-20.77 c 10.46,-1.33 12.54,-16.2 10.43,-21.58 -2.39,-4.62 -7.67,-8.24 -10.43,-9.66 -7.68,-3.95 -16.64,-5.45 -23.69,-1.8 -6.43,3.34 -9.21,13.09 -5.72,20.73 4.72,10.34 19.62,13.6 29.41,12.31 z m 21.52,-46.04 c 3.58,-5 2.8,-13.88 0.67,-16.66 -6.59,-9.01 -24.96,-14.16 -32.53,-10.47 -5.76,2.82 -11.44,15.5 -4.7,23.11 7,7.9 19.22,12.61 30.3,10.3 2.47,-0.55 4.09,-3.27 6.26,-6.28 z m 4.64,-28.37 c 5.03,-0.54 9.51,-6.08 11.94,-12.11 3.16,-7.8 -0.03,-16.89 -2.53,-18.59 -6.02,-4.09 -25.08,-15.57 -37.08,-8.69 -6.61,3.79 -8.42,12.44 -8.83,17.55 -1.33,16.51 23.72,23.27 36.5,21.84 z m -70.397,-118.09 c -2.563,6.55 -4.941,16.24 0.203,20.22 10.394,8.2 33.894,15.37 42.834,2.97 5.81,-8.05 4.11,-21.7 -6.07,-26.92 -10.5,-5.37 -31.041,-11.54 -36.967,3.73 z m -50.41,-0.72 c 10.429,5.3 25.457,11.7 36.687,4.46 5.137,-3.29 10.442,-16.96 6.817,-23.02 -7.696,-12.87 -27.957,-16.15 -40.84,-12.84 -10.969,2.85 -14.277,25.53 -2.664,31.4 z m -9.375,44.49 c 12.586,8.85 37.437,14.57 43.418,-4.78 1.558,-5.01 2.437,-10.56 -0.117,-14.61 -6.973,-11.21 -24.661,-14.16 -36.497,-12.49 -12.8,1.85 -18.847,23.43 -6.804,31.88 z m -10.598,45.08 c 12.09,6.85 37.86,15.96 43.926,-3.68 2.434,-8.03 2.187,-17.94 -4.695,-21.49 -9.844,-5.16 -25.453,-10.58 -36.809,-3.5 -9.48,6 -10.762,23.89 -2.422,28.67 z m 67.676,81.02 c -5.059,-4.52 -10.203,-5.49 -16.941,-7.78 -9.434,-3.2 -19.309,4.07 -20.403,13.1 -1.816,15.46 14.754,17.76 25.711,19.69 7.988,1.45 12.934,-5.73 14.406,-10.56 1.504,-4.64 1.309,-10.86 -2.773,-14.45 z m 20.314,-36.37 c -7.19,-10.71 -36.166,-17.45 -42.56,-6.43 -4.668,8.07 -7.57,19.39 1.203,24.8 9.219,5.66 20.137,9.05 30.857,7.12 10.09,-1.78 15.22,-18.36 10.5,-25.49 z m 15.44,-66.33 c 4.13,-6.56 7.01,-15.37 0.89,-23.52 -5.56,-7.45 -25.37,-10.94 -35.519,-8.48 -5.566,1.4 -8.203,8.16 -9.055,12.73 -1.172,6.17 -1.726,12.38 3.731,17.41 7.851,7.2 18.343,7.04 28.403,7.04 4.15,0 10,-2.68 11.55,-5.18 z m -5.75,22.26 c -6.18,-11.34 -27.094,-12.8 -36.496,-11.55 -6.621,0.89 -11.289,11.57 -11.098,20.51 0.07,4.6 1.508,7.64 4.649,9.33 10.441,5.6 21.132,9.35 32.375,7.53 10.96,-1.74 15.21,-17.22 10.57,-25.82 z m -110.082,24.42 c -7.102,21.89 20.222,28.79 36.18,25.41 11.105,-2.31 14.804,-23.65 4.472,-30.39 -12.781,-8.31 -35.469,-10.99 -40.652,4.98 z m -41.211,-53.73 c 8.191,8.45 22.976,8.98 34.512,7.43 7.089,-0.99 10.144,-8.15 11.125,-15.92 2.761,-21.38 -25.942,-24.98 -39.59,-19.98 -9.004,3.29 -13.684,20.58 -6.047,28.47 z m -5.774,41.43 c 8.555,10.07 22.872,12.46 34.731,9.2 7.242,-1.97 10.594,-10.43 10.43,-19.91 -0.137,-5.38 -3.829,-9.29 -7.141,-10.65 -8.43,-3.42 -18.176,-5.96 -27.371,-4.84 -11.34,1.39 -18.215,17.27 -10.649,26.2 z m 1.36,45.1 c 10.527,4.29 30.144,8.14 33.445,-6.9 4.465,-20.02 -19.168,-23.28 -31.797,-19.8 -9.668,2.65 -11.504,22.72 -1.648,26.7 z m 75.722,33.09 c 7.872,-4.47 9.524,-17.08 4.739,-24.39 -6.367,-9.67 -28.137,-15.27 -39.848,-6.81 -6.68,4.85 -10.281,24.72 3.41,29.49 10.93,3.83 21.414,7.54 31.699,1.71 z m -11.152,14.38 c -8.933,-5.52 -21.66,-7.72 -30.098,-3.02 -7.343,4.02 -7.058,14.75 -3.417,20.52 5.976,9.62 20.847,10.66 31.132,7.64 8.86,-2.56 12.176,-19.04 2.383,-25.14 z m -72.285,15.68 c 0.906,2.86 2.18,3.68 3.953,4.55 7.5,3.58 15.742,4.54 22.934,-0.07 5.183,-3.36 4.722,-11.11 0.886,-15.12 -5.617,-5.91 -17.043,-6.15 -24.355,-2.31 -4.727,2.47 -4.949,8.29 -3.418,12.95 z m 2.402,-31.34 c 3.321,9.48 15.149,8.95 24.102,7.79 11.023,-1.44 13.23,-15.56 9.316,-21.5 -5.41,-8.2 -17.761,-6.63 -27.59,-5.38 -7.988,1.02 -8.464,11.61 -5.828,19.09 z m 155.51,-285.21 c 2.7,-10.71 0,-20.89 -9.53,-24.31 -12.257,-4.31 -28.82,-10.64 -38.609,-4.04 -11.199,7.51 -16.589,28.81 -3.726,37.16 15.203,9.94 45.445,16.45 51.865,-8.81 z m -16.518,33.3 c -8.23,-9.35 -21.66,-9.04 -34.851,-12.91 -5.09,-1.47 -11.133,3.02 -13.777,7.68 -4.875,8.7 -9.758,20.36 -0.422,28.77 7.734,7.05 18.281,6.45 27.754,9.28 4.25,1.28 9.464,2.77 14.621,-0.72 10.683,-7.29 14.843,-22.91 6.675,-32.1 z m 87.308,140.15 c 2.32,-6.81 5.45,-11.8 2.8,-18.58 -3.14,-8.33 -11.22,-9.47 -18.8,-12.21 -7.07,-2.56 -18.85,-5.79 -24.77,0.4 -6.81,7.04 -9.55,21.39 -1.41,27.54 10.56,7.86 36.6,18.71 42.18,2.85 z m 143.29,61.18 c 6.23,25.39 13.97,51.14 15.9,77.97 2.84,40.07 -5.8,81.73 -31.51,112.08 2.53,-13.09 5.88,-24.14 7.64,-37.88 2.09,-16.59 -0.25,-35.07 -4.53,-51.77 -3.24,-12.64 -8.94,-24.93 -14.59,-36.67 -6.67,-13.91 -16.63,-29.04 -26.54,-41.45 -27.82,-34.58 -71.15,-102.07 -71.15,-102.07 0,0 -3.63,0.26 -5.78,0.26 -0.51,8.41 19.44,37.22 29.51,53.35 22.09,35.35 38.82,54.37 58.03,85.03 12.04,19.32 21.23,42.84 24.19,64.16 5.99,43.43 -17.43,95.48 -51.09,112.79 7.69,-32.44 6.89,-78.17 -10.38,-97.4 -32.7,-36.43 -52.13,-63.69 -75.46,-110.39 -0.67,-1.25 -6.12,6.3 -10.64,9.23 -5.06,3.36 -2.22,13.37 -4.04,20.11 -1.64,5.73 -4.34,10.15 -5.14,11.15 -6.9,8.46 -13.58,8.99 -15.04,11.53 -1.67,2.86 -0.86,10 -6.89,18.13 -3.01,4.1 -10.67,7.13 -13.8,10.97 -3.37,4.2 -4.9,17.05 -14.21,22.32 -4.421,2.48 -6.472,10.19 -10.718,13.97 -13.086,11.59 -26.145,9.35 -28.652,10.08 -3.364,0.9 -9.934,9.27 -21.633,11.28 -11.438,1.95 -17.735,-5.68 -23.672,-2.92 -14.895,6.89 -29.153,7.46 -44.981,-10.18 -4.746,-5.25 -12.961,-0.34 -23.214,-8.18 -8.993,-6.86 -9.161,-13.2 -13.75,-14.06 -8.602,-1.62 -15.028,-8.51 -18.348,-16.03 -1.719,-3.87 -3.02,-11.7 -4.024,-16.86 -1.406,-7.13 -5.007,-13.69 -5.078,-18.93 -0.09,-7.28 2.215,-11.21 1.575,-14.47 -1.067,-4.71 -4.883,-9.04 -5.344,-13.44 -0.352,-2.5 -0.559,-9.16 1.261,-12.91 2.286,-4.62 -1.613,-8.63 -3.632,-13.56 -1.938,-4.58 -3.977,-12.42 -3.352,-17.95 0.82,-7.59 5.164,-10.37 1.785,-16.35 -5.535,-9.72 -12.539,-24.88 -0.269,-44.25 2.254,-3.54 -5.141,-10.43 -5.547,-20.54 -0.473,-11 6.172,-19.13 7.984,-24 0.344,-1.75 -2.926,-1.65 -3.047,-3.53 -29.214,30.9 -55.054,59.39 -88.941,86.22 -20.703,16.36 -41.176,30.12 -64.113,42.4 -61.289,32.87 -132.492,54.86 -196.992,46.82 24.289,-19.55 54.941,-33.5 79.89,-55.71 23.637,-21.06 45.09,-39.04 66.621,-61.41 33.789,-35.11 61.25,-70.7 89.863,-112.01 8.5,-12.23 14.094,-20.41 22.012,-33.17 7.981,-12.76 16.848,-26.31 24.106,-38.96 36.621,-63.57 66.621,-122.44 96.98,-187.59 8.43,-18.01 15.508,-36.87 23.762,-54.78 2.215,-4.86 5.379,-1.25 7.613,0 10.981,6.35 22.649,11.66 34.043,17.04 9.106,4.18 17.387,7.06 25.512,10.18 20.547,7.83 40.039,12.08 61.551,16.55 35.919,7.52 100.439,5.97 100.439,5.97 l 122.33,0.04 c 0.8,0 1.63,0 3.34,0 -1.28,35.07 -9.61,69.15 -11.64,104.33 -1.54,28.49 -0.59,56.03 0.41,84.58 2.74,77.36 14.11,160.4 31.39,230.88" /><path
             id="path90"
             style="fill:#ffffff;fill-opacity:1;fill-rule:nonzero;stroke:none"
             d="m 395.137,2295.16 c -23.867,-23.8 -30.989,-32.57 -44.91,-58.88 -8.196,-15.47 -18.606,-35.33 -21.575,-60.93 49.051,18.67 89.075,56.78 125.235,98.87 26.75,31.2 47.5,72.6 73.886,103.42 -46.472,-15.58 -95.507,-45.52 -132.636,-82.48" /><path
             id="path92"
             style="fill:#ffffff;fill-opacity:1;fill-rule:nonzero;stroke:none"
             d="m 254.719,2228.25 c 18.484,31.24 44.976,65.01 72.437,88.05 -12.722,-28.57 -28.386,-56.87 -33.765,-90.66 -10.676,-67.27 -20.754,-114.39 -31.914,-175.79 30.503,21.76 62.683,55.95 95.039,79.81 24.988,18.37 50.046,30.64 75.75,48.3 15.285,10.55 25.234,24.09 37.949,36.77 -15.149,-63.84 -71.16,-128.27 -111.277,-158.31 -50.383,-37.79 -68.45,-43.81 -149.418,-126.15 -10.282,101.67 -8.458,207.33 45.199,297.98" /><path
             id="path94"
             style="fill:#ffffff;fill-opacity:1;fill-rule:nonzero;stroke:none"
             d="m 89.5234,1890.59 c 3.7657,52.8 10.1055,95.02 22.9256,146.52 8.989,35.97 28.34,89.51 56.25,111.47 -3.418,-13.04 -5.215,-32.6 -6.531,-45.79 -5.469,-54.4 4.941,-117.58 6.184,-171.91 0.625,-26.72 0.386,-47.31 -3.618,-72.41 -4.136,-26.33 -0.679,-58.62 -0.679,-58.62 0,0 14.422,16.47 27.3,36.99 28.149,44.7 37.161,57.97 59.836,82.19 28.133,30.05 59.598,57.88 95.125,82.52 -4.285,-16.69 -22.429,-49.16 -29.921,-62.21 -10.008,-17.45 -14.547,-33.32 -38.219,-72.85 -33.313,-55.55 -48.149,-63.04 -85.141,-122.45 -8.008,-12.92 -40.847,-62.06 -48.805,-77.08 -17.328,35.86 -23.859,67.19 -45.1206,125.56 -13.3477,36.68 -11.3555,73.37 -9.586,98.07" /><path
             id="path96"
             style="fill:#ffffff;fill-opacity:1;fill-rule:nonzero;stroke:none"
             d="M 38.0938,1615.92 C 18.0078,1668 8.80078,1716.31 1.99219,1771.15 c -4.16016,33.55 -2.226565,78.26 9.74611,110.52 3.1445,-7.87 9.5508,-27.87 10.4179,-30.86 8.9102,-29.96 12.629,-44.35 25.0782,-73.25 9.5234,-22.16 21.1718,-39.83 33.6328,-61.73 11.332,-19.99 20.8908,-46.31 29.0818,-66.45 26.379,-64.57 28.321,-125.02 38.418,-131.62 7.258,15.54 9.531,30.42 10.344,37.75 7.844,71.45 17.246,136.39 107.227,220.6 8.25,-25.07 4.074,-71.28 -0.887,-96.03 -10.766,-54.12 -19.453,-80.11 -43.281,-132.56 -12.598,-27.62 -29.426,-68.27 -34.036,-81.73 -12.082,-35.06 -16.218,-53.46 -23.82,-74.19 -42.476,70.78 -94.7538,143.87 -125.8202,224.32" /><path
             id="path98"
             style="fill:#ffffff;fill-opacity:1;fill-rule:nonzero;stroke:none"
             d="m 108.125,1290.31 c -30.2422,42.1 -41.2695,63.25 -60.9492,108.07 -16.5313,37.59 -21.2852,51.53 -30.9649,93.63 -5.2851,22.95 -8.2734,43.77 -4.1718,57.34 23.6836,-42.87 39.8476,-90.85 70.8125,-126.41 24.5894,-28.21 48.2814,-52.23 67.8244,-76.04 29.988,-36.58 53.601,-71.21 82.383,-109.3 2.429,19.09 3.367,38.43 -0.918,69.71 -5.864,42.86 -2.246,78 5.23,119.49 9.492,52.66 16.445,78.72 34.719,131.99 22.344,-43.83 22.258,-94.54 27.871,-141.03 10.828,-90.2 -17.395,-197.76 -22.941,-242.6 -1.485,-11.81 0.558,-40.96 1.156,-52.32 -42.199,33.23 -79.738,66.79 -116.137,103.29 -16.59,16.54 -39.344,43.95 -53.914,64.18" /><path
             id="path100"
             style="fill:#ffffff;fill-opacity:1;fill-rule:nonzero;stroke:none"
             d="m 268.105,959.531 c -19.218,13.84 -70.847,53.299 -95.293,84.349 -35.593,45.21 -43.437,64.58 -66.921,116.59 -2.871,6.34 -16.1644,35.78 -17.2465,55.78 76.9415,-92.91 145.8285,-106.74 219.2265,-183.84 26.934,-28.24 54.512,-54.832 69.07,-68.16 11.172,-10.281 25.039,-13.391 25.039,-13.391 0,0 -1.445,19.801 -8.687,33.582 -48.969,93.589 -58.203,191.439 -50.781,296.449 22.351,-27.67 29.402,-46.15 43.593,-72.91 15.426,-29.15 23.29,-47.17 30.504,-65.11 41.899,-104.29 52.805,-224.749 78.696,-285.37 -79.914,26.922 -142.844,41.309 -227.2,102.031" /><path
             id="path102"
             style="fill:#ffffff;fill-opacity:1;fill-rule:nonzero;stroke:none"
             d="m 595.828,713.43 c -21.617,-1.45 -63.992,-1.321 -86.59,2.359 C 394.844,734.102 288.516,817 235.027,908.059 c 48.496,-29.59 83.559,-49.34 126.211,-64.11 37.981,-13.121 74.004,-17.008 137.414,-35.019 38.262,-10.809 76.145,-26.121 89.453,-31.102 42.422,-15.797 60.286,-11.918 60.286,-11.918 0,0 0,6.449 -15.852,23.731 -31.57,34.461 -43.137,42.699 -69.121,69.187 -8.523,8.75 -28.074,38.481 -37.996,58.25 -28.067,55.883 -31.192,100.672 -56.828,162.062 93.554,-54.94 139.133,-130.749 188.594,-226.32 15.207,-29.269 35.773,-63.082 54.57,-81.66 12.637,-12.469 30.437,-31.422 30.437,-31.422 0,0 -13.047,-3.066 -53.66,-9.066 C 670.312,728 631.484,715.91 595.828,713.43" /><path
             id="path104"
             style="fill:#ffffff;fill-opacity:1;fill-rule:nonzero;stroke:none"
             d="m 1049.31,706.18 c 49.39,-8.078 93.28,-20.078 138.19,-35.489 12.07,-4.152 30.44,-13.281 43.16,-19.73 31.84,-16.199 50.16,-26.723 77.52,-45.531 44.07,-30.352 91.41,-63.051 134.12,-112.668 0.91,-0.981 7.82,-8.364 3.22,-11.961 -8.37,-6.563 -29,-15.903 -35.85,-9.852 -39.08,34.762 -37.11,45.891 -84.47,88.781 -12.15,10.942 -30.49,26.29 -52.41,41.282 -21.37,14.629 -47.21,30.609 -71.22,42.449 -21.82,10.738 -55.42,13.949 -74.28,13.949 l 0.26,-0.14 c -8.58,0.332 -57.84,0.609 -69.25,-0.129 C 961.492,650.5 966.238,641.84 910.422,626.719 864.512,614.23 815.254,605.34 766.367,598.781 c -50.09,-6.812 -94.914,-7.633 -141.863,-2.84 -63.645,6.559 -133.274,24.297 -185.234,57.789 47.507,-0.8 96.296,-9.929 143.562,-6.308 19.895,1.527 52.156,4.527 74.016,11.269 43.418,13.329 68.328,18.528 114.304,31.348 39.512,10.992 79.344,14.801 120.606,19.152 57.109,6.11 110.002,4.731 157.552,-3.011" /><path
             id="path106"
             style="fill:#ffffff;fill-opacity:1;fill-rule:nonzero;stroke:none"
             d="m 1934.51,2295.16 c 23.88,-23.8 31.03,-32.57 44.94,-58.88 8.21,-15.47 18.62,-35.33 21.59,-60.93 -49.1,18.67 -89.08,56.78 -125.27,98.87 -26.77,31.2 -47.49,72.6 -73.87,103.42 46.48,-15.58 95.5,-45.52 132.61,-82.48" /><path
             id="path108"
             style="fill:#ffffff;fill-opacity:1;fill-rule:nonzero;stroke:none"
             d="m 2074.97,2228.25 c -18.51,31.24 -44.99,65.01 -72.44,88.05 12.84,-30.74 31.56,-69.04 33.76,-90.66 6.83,-67.74 20.74,-114.39 31.91,-175.79 -30.49,21.76 -62.71,55.95 -95.06,79.81 -24.94,18.37 -50.01,30.64 -75.7,48.3 -15.31,10.55 -25.26,24.09 -37.98,36.77 15.15,-63.84 71.17,-128.27 111.28,-158.31 50.37,-37.79 68.44,-43.81 149.38,-126.15 10.27,101.67 8.45,207.33 -45.15,297.98" /><path
             id="path110"
             style="fill:#ffffff;fill-opacity:1;fill-rule:nonzero;stroke:none"
             d="m 2240.16,1890.59 c -3.81,52.8 -10.08,95.02 -22.93,146.52 -8.99,35.97 -28.34,89.51 -56.29,111.47 3.45,-13.04 5.22,-32.6 6.56,-45.79 5.52,-54.4 -4.88,-117.58 -6.17,-171.91 -0.62,-26.72 -0.39,-47.31 3.58,-72.41 4.15,-26.33 0.72,-58.62 0.72,-58.62 0,0 -14.42,16.47 -27.33,36.99 -28.09,44.7 -37.11,57.97 -59.84,82.19 -28.11,30.05 -59.6,57.88 -95.14,82.52 4.34,-16.69 22.46,-49.16 29.96,-62.21 10.05,-17.45 14.53,-33.32 38.22,-72.85 33.3,-55.55 48.15,-63.04 85.1,-122.45 8.01,-12.92 40.9,-62.06 48.85,-77.08 17.34,35.86 23.86,67.19 45.12,125.56 13.39,36.68 11.38,73.37 9.59,98.07" /><path
             id="path112"
             style="fill:#ffffff;fill-opacity:1;fill-rule:nonzero;stroke:none"
             d="m 2291.58,1615.92 c 20.08,52.08 29.27,100.39 36.12,155.23 4.16,33.55 2.19,78.26 -9.75,110.52 -3.15,-7.87 -9.53,-27.87 -10.42,-30.86 -8.94,-29.96 -12.64,-44.35 -25.06,-73.25 -9.53,-22.16 -21.24,-39.83 -33.66,-61.73 -11.33,-19.99 -20.88,-46.31 -29.12,-66.45 -26.34,-64.57 -28.29,-125.02 -38.38,-131.62 -7.29,15.54 -9.54,30.42 -10.33,37.75 -7.85,71.45 -17.27,136.39 -107.23,220.6 -8.28,-25.07 -4.08,-71.28 0.84,-96.03 10.8,-54.12 19.53,-80.11 43.32,-132.56 12.6,-27.62 29.42,-68.27 34.06,-81.73 12.01,-35.06 16.17,-53.46 23.83,-74.19 42.44,70.78 94.73,143.87 125.78,224.32" /><path
             id="path114"
             style="fill:#ffffff;fill-opacity:1;fill-rule:nonzero;stroke:none"
             d="m 2221.56,1290.31 c 30.28,42.1 41.26,63.25 60.94,108.07 16.52,37.59 21.26,51.53 30.98,93.63 5.29,22.95 8.26,43.77 4.14,57.34 -23.62,-42.87 -39.87,-90.85 -70.83,-126.41 -24.54,-28.21 -48.24,-52.23 -67.79,-76.04 -29.96,-36.58 -53.64,-71.21 -82.38,-109.3 -2.4,19.09 -3.38,38.43 0.88,69.71 5.9,42.86 2.29,78 -5.2,119.49 -9.49,52.66 -16.44,78.72 -34.7,131.99 -22.33,-43.83 -22.27,-94.54 -27.88,-141.03 -10.86,-90.2 17.43,-197.76 22.98,-242.6 1.44,-11.81 -0.6,-40.96 -1.2,-52.32 42.2,33.23 79.75,66.79 116.14,103.29 16.59,16.54 39.29,43.95 53.92,64.18" /><path
             id="path116"
             style="fill:#ffffff;fill-opacity:1;fill-rule:nonzero;stroke:none"
             d="m 2061.59,959.531 c 19.19,13.84 70.83,53.299 95.27,84.349 35.6,45.21 43.45,64.58 66.93,116.59 2.83,6.34 16.17,35.78 17.25,55.78 -76.94,-92.91 -145.83,-106.74 -219.23,-183.84 -26.93,-28.24 -54.49,-54.832 -69.06,-68.16 -11.17,-10.281 -25.04,-13.391 -25.04,-13.391 0,0 1.43,19.801 8.66,33.582 48.98,93.589 58.23,191.439 50.76,296.449 -22.28,-27.67 -29.38,-46.15 -43.55,-72.91 -15.4,-29.15 -23.29,-47.17 -30.47,-65.11 -41.94,-104.29 -52.89,-224.749 -78.76,-285.37 79.97,26.922 142.88,41.309 227.24,102.031" /><path
             id="path118"
             style="fill:#ffffff;fill-opacity:1;fill-rule:nonzero;stroke:none"
             d="m 1733.85,713.43 c 21.66,-1.45 64,-1.321 86.62,2.359 114.39,18.313 220.69,101.211 274.19,192.27 -48.55,-29.59 -83.61,-49.34 -126.22,-64.11 -38.01,-13.121 -74.01,-17.008 -137.39,-35.019 -38.3,-10.809 -76.17,-26.121 -89.49,-31.102 -42.41,-15.797 -60.27,-11.918 -60.27,-11.918 0,0 0,6.449 15.84,23.731 31.58,34.461 43.16,42.699 69.1,69.187 8.56,8.75 28.11,38.481 38.02,58.25 28.07,55.883 31.2,100.672 56.86,162.062 -93.55,-54.94 -139.22,-130.749 -188.65,-226.32 -15.17,-29.269 -35.74,-63.082 -54.51,-81.66 -12.62,-12.469 -30.47,-31.422 -30.47,-31.422 0,0 13.05,-3.066 53.7,-9.066 18.2,-2.672 57,-14.762 92.67,-17.242" /><path
             id="path120"
             style="fill:#ffffff;fill-opacity:1;fill-rule:nonzero;stroke:none"
             d="m 1280.37,706.18 c -49.38,-8.078 -93.23,-20.078 -138.18,-35.489 -12.12,-4.152 -30.45,-13.281 -43.18,-19.73 -31.83,-16.199 -50.11,-26.723 -77.51,-45.531 -44.098,-30.352 -91.371,-63.051 -134.117,-112.668 -0.93,-0.981 -7.863,-8.364 -3.223,-11.961 8.391,-6.563 29.024,-15.903 35.813,-9.852 39.097,34.762 37.117,45.891 84.517,88.781 12.1,10.942 30.44,26.29 52.39,41.282 21.42,14.629 47.19,30.609 71.23,42.449 21.78,10.738 55.44,13.949 74.27,13.949 l -0.27,-0.14 c 8.59,0.332 57.83,0.609 69.27,-0.129 96.82,-6.641 92.06,-15.301 147.85,-30.422 45.94,-12.489 95.18,-21.379 144.08,-27.938 50.06,-6.812 94.91,-7.633 141.86,-2.84 63.66,6.559 133.26,24.297 185.2,57.789 -47.48,-0.8 -96.24,-9.929 -143.55,-6.308 -19.91,1.527 -52.13,4.527 -73.99,11.269 -43.42,13.329 -68.35,18.528 -114.29,31.348 -39.53,10.992 -79.36,14.801 -120.6,19.152 -57.13,6.11 -110.01,4.731 -157.57,-3.011" /><path
             id="path122"
             style="fill:#ffffff;fill-opacity:1;fill-rule:nonzero;stroke:none"
             d="m 1103.64,2834.64 -86.95,-322.87 h -92.315 l -57.734,210.33 -56.453,-210.33 h -92.09 l -86.946,322.87 h 86.907 l 49.531,-222.26 59.578,222.26 h 83.059 l 56.519,-222.26 52.014,222.26 h 84.88" /><path
             id="path124"
             style="fill:#ffffff;fill-opacity:1;fill-rule:nonzero;stroke:none"
             d="m 1390.51,2772.2 h -148.54 v -60.08 h 137.7 v -62.44 h -137.7 v -137.91 h -82.81 v 322.87 h 231.35 v -62.44" /><path
             id="path126"
             style="fill:#ffffff;fill-opacity:1;fill-rule:nonzero;stroke:none"
             d="m 1628.38,2730.88 c 0,9.08 -2.46,16.9 -7.36,23.46 -4.93,6.57 -10.63,11.14 -17.13,13.74 -8.68,3.46 -17.13,5.37 -25.37,5.74 -8.25,0.35 -19.24,0.54 -32.97,0.54 h -14.31 v -96.5 h 23.85 c 14.17,0 25.84,0.87 35.03,2.6 9.18,1.73 16.87,5.2 23.08,10.39 5.35,4.6 9.22,10.13 11.6,16.55 2.39,6.41 3.58,14.24 3.58,23.48 z m 86.09,1.85 c 0,-14.46 -2.54,-28.59 -7.59,-42.4 -5.06,-13.81 -12.29,-25.41 -21.68,-34.79 -12.88,-12.74 -27.22,-22.34 -43.05,-28.85 -15.82,-6.51 -35.53,-9.76 -59.08,-9.76 h -51.83 v -105.16 h -83.27 v 322.87 h 137.05 c 20.53,0 37.83,-1.77 51.92,-5.31 14.1,-3.55 26.58,-8.85 37.42,-15.94 13,-8.53 22.94,-19.44 29.81,-32.75 6.87,-13.3 10.3,-29.26 10.3,-47.91" /><path
             id="path128"
             style="fill:#ffffff;fill-opacity:1;fill-rule:nonzero;stroke:none"
             d="M 499.316,257.871 441.27,70.5508 H 377.52 L 339.355,196.82 301.648,70.5508 H 237.266 L 179.727,257.871 h 62.988 l 32.148,-129.09 39.973,129.09 h 53.199 l 38,-129.09 31.633,129.09 h 61.648" /><path
             id="path130"
             style="fill:#ffffff;fill-opacity:1;fill-rule:nonzero;stroke:none"
             d="m 649.773,286.059 h -4.492 c -2.664,0.781 -6.121,1.671 -10.398,2.671 -4.27,0.989 -8.836,1.5 -13.723,1.5 -11.758,0 -19.707,-2.109 -23.863,-6.339 -4.16,-4.231 -6.235,-12.403 -6.235,-24.52 v -1.5 h 46.196 V 217.168 H 593.059 V 70.5508 H 532.844 V 217.168 h -25.688 v 40.703 h 25.688 v 5.168 c 0,22.902 6.094,40.082 18.269,51.551 12.18,11.449 30.606,17.172 55.293,17.172 8.899,0 16.953,-0.301 24.18,-0.91 7.226,-0.614 13.625,-1.422 19.187,-2.422 v -42.371" /><path
             id="path132"
             style="fill:#ffffff;fill-opacity:1;fill-rule:nonzero;stroke:none"
             d="m 789.148,165.539 c 0,18.211 -3.101,31.43 -9.312,39.641 -6.215,8.211 -16.035,12.332 -29.465,12.332 -5.652,0 -11.484,-0.871 -17.473,-2.59 -5.984,-1.711 -11.699,-4.184 -17.136,-7.402 v -94.102 c 3.984,-1.559 8.261,-2.547 12.812,-2.996 4.551,-0.442 9.043,-0.672 13.477,-0.672 15.871,0 27.683,4.641 35.449,13.91 7.766,9.27 11.648,23.231 11.648,41.879 z m 61.887,1.262 c 0,-15.461 -2.363,-29.52 -7.082,-42.199 -4.723,-12.68 -10.918,-23.133 -18.57,-31.352 -8,-8.6719 -17.055,-15.25 -27.16,-19.6914 -10.11,-4.4492 -20.938,-6.668 -32.493,-6.668 -10.652,0 -19.714,1.1406 -27.144,3.418 -7.441,2.2695 -15.051,5.4805 -22.824,9.582 V 1.82812 H 655.547 V 257.871 h 60.215 v -19.512 c 9.211,7.332 18.625,13.282 28.23,17.852 9.613,4.559 20.688,6.828 33.242,6.828 23.325,0 41.45,-8.559 54.387,-25.68 12.941,-17.129 19.414,-40.64 19.414,-70.558" /><path
             id="path134"
             style="fill:#ffffff;fill-opacity:1;fill-rule:nonzero;stroke:none"
             d="m 879.492,70.5508 h 62.3828 v 65.5586 H 879.492 Z" /><path
             id="path136"
             style="fill:#ffffff;fill-opacity:1;fill-rule:nonzero;stroke:none"
             d="m 1101.28,118.602 c 3.89,4.777 6.81,10.539 8.75,17.257 1.94,6.719 2.92,16.039 2.92,27.942 0,11 -1,20.23 -3,27.679 -2,7.45 -4.78,13.399 -8.34,17.848 -3.56,4.563 -7.84,7.793 -12.85,9.684 -5,1.879 -10.4,2.828 -16.18,2.828 -5.78,0 -10.92,-0.781 -15.43,-2.328 -4.5,-1.551 -8.81,-4.68 -12.92,-9.352 -3.67,-4.32 -6.59,-10.269 -8.76,-17.84 -2.17,-7.558 -3.25,-17.07 -3.25,-28.519 0,-10.242 0.94,-19.11 2.83,-26.61 1.89,-7.511 4.67,-13.531 8.34,-18.101 3.56,-4.328 7.81,-7.488 12.76,-9.5 4.94,-2.012 10.59,-3 16.94,-3 5.44,0 10.64,0.91 15.59,2.75 4.94,1.832 9.15,4.91 12.6,9.262 z m 73.88,45.539 c 0,-30.813 -8.99,-55.082 -26.94,-72.8207 -17.97,-17.7305 -43.16,-26.6015 -75.64,-26.6015 -32.47,0 -57.69,8.871 -75.646,26.6015 C 978.977,109.059 970,133.328 970,164.141 c 0,31.007 9.031,55.371 27.109,73.039 18.071,17.691 43.221,26.539 75.471,26.539 32.7,0 57.96,-8.899 75.8,-26.699 17.85,-17.79 26.78,-42.079 26.78,-72.879" /><path
             id="path138"
             style="fill:#ffffff;fill-opacity:1;fill-rule:nonzero;stroke:none"
             d="m 1336.89,200.66 h -5.33 c -2.56,0.891 -6.66,1.559 -12.32,2 -5.66,0.442 -10.37,0.668 -14.14,0.668 -8.55,0 -16.09,-0.558 -22.64,-1.668 -6.54,-1.121 -13.59,-3 -21.13,-5.672 V 70.5508 h -60.22 V 257.871 h 60.22 v -27.519 c 13.2,11.347 24.69,18.867 34.44,22.609 9.77,3.719 18.76,5.578 26.96,5.578 2.11,0 4.5,-0.059 7.17,-0.16 2.66,-0.117 4.99,-0.289 6.99,-0.508 V 200.66" /><path
             id="path140"
             style="fill:#ffffff;fill-opacity:1;fill-rule:nonzero;stroke:none"
             d="m 1475.76,129.609 v 84.903 c -3.44,1.429 -7.65,2.578 -12.65,3.41 -4.99,0.84 -9.49,1.258 -13.48,1.258 -15.76,0 -27.58,-4.539 -35.45,-13.61 -7.87,-9.05 -11.82,-21.699 -11.82,-37.941 0,-18 3.36,-30.57 10.08,-37.688 6.7,-7.121 16.66,-10.691 29.86,-10.691 6,0 11.88,0.949 17.64,2.852 5.77,1.878 11.06,4.378 15.82,7.507 z m 60.22,-37.5387 c 0,-17.5586 -2.5,-32.3594 -7.51,-44.3594 -5.01,-12.0195 -12.01,-21.4101 -21.03,-28.1914 -9,-6.9101 -19.86,-11.87888 -32.6,-14.92966 C 1462.11,1.53125 1447.73,0 1431.72,0 1418.71,0 1405.9,0.78125 1393.28,2.33984 1380.65,3.89062 1369.73,5.78906 1360.5,8 v 46.8789 h 7.33 c 7.33,-2.8906 16.26,-5.5273 26.82,-7.918 10.55,-2.3906 19.98,-3.5898 28.31,-3.5898 11.1,0 20.13,1.0273 27.07,3.0781 6.94,2.0625 12.24,4.9805 15.9,8.7617 3.45,3.5703 5.95,8.1172 7.49,13.668 1.56,5.5703 2.34,12.2422 2.34,20.0195 v 3.5118 c -7.22,-5.8985 -15.21,-10.5704 -23.99,-14.0118 -8.77,-3.4492 -18.55,-5.1679 -29.32,-5.1679 -26.22,0 -46.43,7.8906 -60.64,23.6914 -14.22,15.7771 -21.32,39.7971 -21.32,72.0471 0,15.453 2.17,28.801 6.49,40.031 4.33,11.23 10.44,21.02 18.32,29.359 7.34,7.782 16.36,13.84 27.07,18.172 10.72,4.348 21.69,6.508 32.91,6.508 10.11,0 19.3,-1.187 27.57,-3.578 8.27,-2.402 15.8,-5.691 22.58,-9.93 l 2.17,8.34 h 58.38 V 92.0703" /><path
             id="path142"
             style="fill:#ffffff;fill-opacity:1;fill-rule:nonzero;stroke:none"
             d="M 1751.25,330.102 1618.96,16.5117 h -51.19 l 131.74,313.5903 h 51.74" /><path
             id="path144"
             style="fill:#ffffff;fill-opacity:1;fill-rule:nonzero;stroke:none"
             d="m 1905.52,121.91 v 91.68 c -4.2,1.781 -8.62,3.058 -13.26,3.832 -4.64,0.777 -8.89,1.16 -12.77,1.16 -15.69,0 -27.46,-4.902 -35.3,-14.73 -7.85,-9.813 -11.78,-23.422 -11.78,-40.852 0,-18.301 3.16,-31.578 9.46,-39.852 6.28,-8.257 16.4,-12.386 30.33,-12.386 5.41,0 11.16,1.019 17.24,3.066 6.08,2.063 11.44,4.754 16.08,8.082 z m 59.98,-51.3592 h -59.98 V 90 c -10.3,-8.4297 -19.91,-14.6289 -28.87,-18.6211 -8.96,-3.9805 -19.32,-5.9687 -31.03,-5.9687 -22.68,0 -40.83,8.7382 -54.44,26.25 -13.6,17.4998 -20.41,41.0778 -20.41,70.7698 0,15.84 2.31,29.879 6.9,42.121 4.59,12.23 10.86,22.73 18.82,31.48 7.52,8.297 16.65,14.758 27.39,19.36 10.73,4.589 21.46,6.89 32.18,6.89 11.18,0 20.34,-1.191 27.47,-3.57 7.13,-2.391 14.47,-5.402 21.99,-9.063 v 79.422 h 59.98 V 70.5508" /><path
             id="path146"
             style="fill:#ffffff;fill-opacity:1;fill-rule:nonzero;stroke:none"
             d="m 2111.14,119.359 v 38.75 c -8.08,-0.66 -16.83,-1.578 -26.25,-2.73 -9.41,-1.16 -16.56,-2.508 -21.42,-4.07 -5.99,-1.868 -10.56,-4.598 -13.71,-8.188 -3.17,-3.582 -4.74,-8.312 -4.74,-14.16 0,-3.871 0.33,-7.012 1,-9.441 0.66,-2.43 2.32,-4.75 4.99,-6.961 2.53,-2.2 5.58,-3.829 9.13,-4.879 3.54,-1.051 9.08,-1.571 16.61,-1.571 5.98,0 12.05,1.211 18.19,3.641 6.14,2.43 11.55,5.629 16.2,9.609 z m 0,-29.0309 c -3.21,-2.4375 -7.2,-5.3789 -11.96,-8.8086 -4.77,-3.4414 -9.25,-6.1484 -13.46,-8.1406 -5.87,-2.6601 -11.96,-4.6172 -18.27,-5.8984 -6.32,-1.2696 -13.24,-1.9102 -20.77,-1.9102 -17.72,0 -32.57,5.4805 -44.52,16.4492 -11.97,10.961 -17.95,24.9685 -17.95,42.0315 0,13.621 3.05,24.758 9.14,33.398 6.09,8.633 14.73,15.449 25.92,20.43 11.07,4.992 24.8,8.531 41.2,10.633 16.4,2.097 33.39,3.648 51,4.66 v 1 c 0,10.289 -4.2,17.406 -12.62,21.34 -8.42,3.929 -20.83,5.898 -37.22,5.898 -9.86,0 -20.38,-1.75 -31.56,-5.23 -11.19,-3.489 -19.22,-6.18 -24.09,-8.059 h -5.48 v 45.02 c 6.31,1.66 16.58,3.629 30.82,5.898 14.22,2.27 28.48,3.41 42.77,3.41 34.01,0 58.57,-5.238 73.69,-15.711 15.12,-10.457 22.68,-26.879 22.68,-49.25 V 70.5508 h -59.32 v 19.7773" /></g></g></g></g></svg>