<?xml version="1.0" encoding="UTF-8" standalone="no"?>
<svg
   xmlns:dc="http://purl.org/dc/elements/1.1/"
   xmlns:cc="http://creativecommons.org/ns#"
   xmlns:rdf="http://www.w3.org/1999/02/22-rdf-syntax-ns#"
   xmlns:svg="http://www.w3.org/2000/svg"
   xmlns="http://www.w3.org/2000/svg"
   viewBox="0 0 858.53333 377.94666"
   height="377.94666"
   width="858.53333"
   xml:space="preserve"
   id="svg2"
   version="1.1"><metadata
     id="metadata8"><rdf:RDF><cc:Work
         rdf:about=""><dc:format>image/svg+xml</dc:format><dc:type
           rdf:resource="http://purl.org/dc/dcmitype/StillImage" /></cc:Work></rdf:RDF></metadata><defs
     id="defs6"><clipPath
       id="clipPath20"
       clipPathUnits="userSpaceOnUse"><path
         id="path18"
         d="M 0,2834.64 V 0 h 6438.95 v 2834.64 z" /></clipPath></defs><g
     transform="matrix(1.3333333,0,0,-1.3333333,0,377.94667)"
     id="g10"><g
       transform="scale(0.1)"
       id="g12"><g
         id="g14"><g
           clip-path="url(#clipPath20)"
           id="g16"><path
             id="path22"
             style="fill:#ffffff;fill-opacity:1;fill-rule:nonzero;stroke:none"
             d="m 3197.34,1623.82 -120.4,-447.05 h -127.81 l -79.96,291.23 -78.15,-291.23 h -127.5 l -120.4,447.05 h 120.33 l 68.59,-307.74 82.49,307.74 h 115 l 78.27,-307.74 72,307.74 h 117.54" /><path
             id="path24"
             style="fill:#ffffff;fill-opacity:1;fill-rule:nonzero;stroke:none"
             d="m 3461.43,1263.25 c 7,8.59 12.26,18.95 15.75,31.07 3.51,12.11 5.26,28.86 5.26,50.29 0,19.81 -1.8,36.42 -5.41,49.84 -3.6,13.4 -8.6,24.11 -15.01,32.12 -6.4,8.2 -14.1,14.01 -23.13,17.42 -8.99,3.39 -18.71,5.09 -29.1,5.09 -10.42,0 -19.67,-1.4 -27.79,-4.19 -8.1,-2.81 -15.86,-8.42 -23.25,-16.82 -6.62,-7.81 -11.87,-18.52 -15.78,-32.13 -3.9,-13.61 -5.86,-30.72 -5.86,-51.33 0,-18.42 1.71,-34.38 5.12,-47.89 3.39,-13.51 8.4,-24.37 15.02,-32.57 6.4,-7.82 14.04,-13.52 22.96,-17.12 8.91,-3.6 19.07,-5.4 30.48,-5.4 9.8,0 19.16,1.64 28.07,4.95 8.89,3.3 16.45,8.86 22.67,16.67 z m 133,81.96 c 0,-55.45 -16.16,-99.13 -48.48,-131.05 -32.34,-31.94 -77.72,-47.89 -136.16,-47.89 -58.45,0 -103.85,15.95 -136.17,47.89 -32.32,31.92 -48.49,75.6 -48.49,131.05 0,55.85 16.26,99.68 48.78,131.5 32.55,31.82 77.81,47.73 135.88,47.73 58.85,0 104.34,-16.01 136.46,-48.03 32.1,-32.03 48.18,-75.75 48.18,-131.2" /><path
             id="path26"
             style="fill:#ffffff;fill-opacity:1;fill-rule:nonzero;stroke:none"
             d="m 3916.28,1410.95 h -9.58 c -4.6,1.6 -11.98,2.81 -22.16,3.61 -10.2,0.79 -18.69,1.19 -25.48,1.19 -15.37,0 -28.96,-0.99 -40.73,-3 -11.79,-2 -24.47,-5.4 -38.05,-10.2 v -225.78 h -108.4 v 337.17 h 108.4 v -49.54 c 23.77,20.42 44.44,33.97 62.01,40.68 17.58,6.7 33.76,10.06 48.53,10.06 3.78,0 8.1,-0.1 12.88,-0.3 4.8,-0.2 9,-0.5 12.58,-0.9 v -102.99" /><path
             id="path28"
             style="fill:#ffffff;fill-opacity:1;fill-rule:nonzero;stroke:none"
             d="m 3977.53,1176.77 h 108.379 v 467.172 H 3977.53 Z" /><path
             id="path30"
             style="fill:#ffffff;fill-opacity:1;fill-rule:nonzero;stroke:none"
             d="m 4407.19,1269.58 v 165.68 c -7.61,3.21 -15.57,5.52 -23.96,6.91 -8.4,1.42 -16.08,2.11 -23.08,2.11 -28.37,0 -49.62,-8.86 -63.81,-26.62 -14.18,-17.72 -21.27,-42.33 -21.27,-73.81 0,-33.08 5.7,-57.09 17.08,-72.02 11.38,-14.94 29.64,-22.4 54.83,-22.4 9.78,0 20.15,1.86 31.15,5.57 10.98,3.7 20.67,8.56 29.06,14.58 z m 108.38,-92.81 h -108.38 v 35.13 c -18.6,-15.21 -35.99,-26.42 -52.18,-33.62 -16.21,-7.21 -34.9,-10.81 -56.08,-10.81 -40.99,0 -73.78,15.8 -98.35,47.44 -24.6,31.62 -36.89,74.25 -36.89,127.9 0,28.61 4.15,53.98 12.45,76.1 8.28,22.12 19.64,41.08 34.02,56.9 13.6,15.01 30.1,26.67 49.49,34.98 19.39,8.3 38.78,12.45 58.18,12.45 20.17,0 36.74,-2.14 49.62,-6.45 12.88,-4.31 26.14,-9.76 39.74,-16.36 v 143.51 h 108.38 v -467.17" /><path
             id="path32"
             style="fill:#ffffff;fill-opacity:1;fill-rule:nonzero;stroke:none"
             d="M 5169.55,1537.35 H 4963.9 v -83.16 h 190.66 v -86.47 H 4963.9 v -190.95 h -114.69 v 447.05 h 320.34 v -86.47" /><path
             id="path34"
             style="fill:#ffffff;fill-opacity:1;fill-rule:nonzero;stroke:none"
             d="m 5454.78,1263.25 c 7,8.59 12.26,18.95 15.78,31.07 3.48,12.11 5.26,28.86 5.26,50.29 0,19.81 -1.82,36.42 -5.41,49.84 -3.62,13.4 -8.63,24.11 -15.02,32.12 -6.42,8.2 -14.12,14.01 -23.12,17.42 -8.99,3.39 -18.71,5.09 -29.13,5.09 -10.41,0 -19.66,-1.4 -27.76,-4.19 -8.1,-2.81 -15.87,-8.42 -23.28,-16.82 -6.6,-7.81 -11.84,-18.52 -15.75,-32.13 -3.9,-13.61 -5.86,-30.72 -5.86,-51.33 0,-18.42 1.71,-34.38 5.1,-47.89 3.41,-13.51 8.41,-24.37 15.01,-32.57 6.4,-7.82 14.07,-13.52 22.99,-17.12 8.89,-3.6 19.05,-5.4 30.45,-5.4 9.8,0 19.17,1.64 28.07,4.95 8.92,3.3 16.48,8.86 22.67,16.67 z m 133.03,81.96 c 0,-55.45 -16.18,-99.13 -48.51,-131.05 -32.31,-31.94 -77.71,-47.89 -136.16,-47.89 -58.44,0 -103.82,15.95 -136.16,47.89 -32.32,31.92 -48.48,75.6 -48.48,131.05 0,55.85 16.25,99.68 48.79,131.5 32.52,31.82 77.81,47.73 135.85,47.73 58.85,0 104.34,-16.01 136.45,-48.03 32.14,-32.03 48.22,-75.75 48.22,-131.2" /><path
             id="path36"
             style="fill:#ffffff;fill-opacity:1;fill-rule:nonzero;stroke:none"
             d="m 5876.92,1263.25 c 7,8.59 12.25,18.95 15.78,31.07 3.48,12.11 5.25,28.86 5.25,50.29 0,19.81 -1.82,36.42 -5.41,49.84 -3.61,13.4 -8.62,24.11 -15.02,32.12 -6.41,8.2 -14.11,14.01 -23.11,17.42 -8.99,3.39 -18.71,5.09 -29.13,5.09 -10.41,0 -19.66,-1.4 -27.77,-4.19 -8.09,-2.81 -15.86,-8.42 -23.27,-16.82 -6.6,-7.81 -11.84,-18.52 -15.75,-32.13 -3.91,-13.61 -5.86,-30.72 -5.86,-51.33 0,-18.42 1.7,-34.38 5.1,-47.89 3.41,-13.51 8.41,-24.37 15.01,-32.57 6.4,-7.82 14.07,-13.52 22.98,-17.12 8.88,-3.6 19.06,-5.4 30.46,-5.4 9.8,0 19.17,1.64 28.07,4.95 8.91,3.3 16.48,8.86 22.67,16.67 z m 133.03,81.96 c 0,-55.45 -16.19,-99.13 -48.51,-131.05 -32.31,-31.94 -77.71,-47.89 -136.16,-47.89 -58.44,0 -103.82,15.95 -136.16,47.89 -32.33,31.92 -48.48,75.6 -48.48,131.05 0,55.85 16.25,99.68 48.79,131.5 32.52,31.82 77.81,47.73 135.85,47.73 58.85,0 104.34,-16.01 136.45,-48.03 32.14,-32.03 48.22,-75.75 48.22,-131.2" /><path
             id="path38"
             style="fill:#ffffff;fill-opacity:1;fill-rule:nonzero;stroke:none"
             d="m 6306.87,1269.58 v 165.68 c -7.59,3.21 -15.58,5.52 -23.96,6.91 -8.38,1.42 -16.08,2.11 -23.06,2.11 -28.37,0 -49.64,-8.86 -63.83,-26.62 -14.16,-17.72 -21.25,-42.33 -21.25,-73.81 0,-33.08 5.67,-57.09 17.08,-72.02 11.38,-14.94 29.65,-22.4 54.81,-22.4 9.78,0 20.17,1.86 31.15,5.57 10.99,3.7 20.66,8.56 29.06,14.58 z m 108.38,-92.81 h -108.38 v 35.13 c -18.6,-15.21 -35.98,-26.42 -52.18,-33.62 -16.21,-7.21 -34.88,-10.81 -56.06,-10.81 -41.01,0 -73.77,15.8 -98.37,47.44 -24.6,31.62 -36.88,74.25 -36.88,127.9 0,28.61 4.15,53.98 12.44,76.1 8.3,22.12 19.63,41.08 34.04,56.9 13.58,15.01 30.08,26.67 49.47,34.98 19.39,8.3 38.78,12.45 58.17,12.45 20.2,0 36.74,-2.14 49.64,-6.45 12.88,-4.31 26.13,-9.76 39.73,-16.36 v 143.51 h 108.38 v -467.17" /><path
             id="path40"
             style="fill:#ffffff;fill-opacity:1;fill-rule:nonzero;stroke:none"
             d="m 2830.15,899.422 c 0,12.578 -3.41,23.418 -10.21,32.488 -6.81,9.09 -14.71,15.43 -23.72,19.031 -12.01,4.797 -23.72,7.45 -35.13,7.938 -11.41,0.492 -26.62,0.762 -45.64,0.762 h -19.81 v -133.61 h 33.02 c 19.62,0 35.78,1.18 48.49,3.59 12.71,2.391 23.37,7.188 31.98,14.367 7.4,6.403 12.76,14.043 16.06,22.922 3.31,8.891 4.96,19.731 4.96,32.512 z m 119.2,2.566 c 0,-20.019 -3.52,-39.59 -10.52,-58.699 -7,-19.117 -17.01,-35.187 -30.02,-48.187 -17.82,-17.614 -37.68,-30.922 -59.6,-39.942 -21.92,-9 -49.2,-13.512 -81.81,-13.512 h -71.76 V 596.039 H 2580.35 V 1043.1 h 189.75 c 28.42,0 52.39,-2.46 71.91,-7.36 19.51,-4.9 36.78,-12.27 51.78,-22.06 18.02,-11.82 31.78,-26.93 41.29,-45.34 9.5,-18.418 14.27,-40.531 14.27,-66.352" /><path
             id="path42"
             style="fill:#ffffff;fill-opacity:1;fill-rule:nonzero;stroke:none"
             d="m 3257.71,830.219 h -9.58 c -4.58,1.609 -11.99,2.812 -22.17,3.601 -10.19,0.809 -18.67,1.211 -25.46,1.211 -15.38,0 -28.96,-1 -40.74,-3 -11.79,-2 -24.47,-5.41 -38.05,-10.211 V 596.039 h -108.38 v 337.172 h 108.38 v -49.539 c 23.77,20.418 44.44,33.969 62.01,40.68 17.57,6.699 33.76,10.058 48.54,10.058 3.79,0 8.08,-0.109 12.88,-0.289 4.79,-0.211 8.98,-0.512 12.57,-0.91 V 830.219" /><path
             id="path44"
             style="fill:#ffffff;fill-opacity:1;fill-rule:nonzero;stroke:none"
             d="m 3518.95,682.52 c 7,8.589 12.26,18.941 15.78,31.07 3.48,12.101 5.26,28.859 5.26,50.281 0,19.82 -1.83,36.43 -5.41,49.848 -3.62,13.402 -8.63,24.109 -15.02,32.121 -6.42,8.211 -14.12,14.012 -23.12,17.41 -9,3.398 -18.72,5.109 -29.13,5.109 -10.41,0 -19.66,-1.41 -27.76,-4.199 -8.11,-2.808 -15.87,-8.422 -23.28,-16.82 -6.6,-7.801 -11.85,-18.52 -15.75,-32.129 -3.9,-13.609 -5.86,-30.723 -5.86,-51.34 0,-18.41 1.7,-34.371 5.09,-47.891 3.42,-13.5 8.42,-24.359 15.02,-32.57 6.4,-7.808 14.07,-13.512 22.98,-17.109 8.89,-3.61 19.05,-5.41 30.46,-5.41 9.8,0 19.17,1.648 28.07,4.961 8.91,3.296 16.48,8.847 22.67,16.668 z m 133.03,81.96 c 0,-55.449 -16.18,-99.128 -48.51,-131.07 -32.31,-31.922 -77.72,-47.879 -136.16,-47.879 -58.45,0 -103.83,15.957 -136.16,47.879 -32.33,31.942 -48.48,75.621 -48.48,131.07 0,55.84 16.25,99.68 48.79,131.5 32.52,31.829 77.81,47.739 135.85,47.739 58.85,0 104.34,-16.028 136.45,-48.039 32.14,-32.032 48.22,-75.77 48.22,-131.2" /><path
             id="path46"
             style="fill:#ffffff;fill-opacity:1;fill-rule:nonzero;stroke:none"
             d="m 3937.23,702.32 v 152.821 c -6.2,2.597 -13.81,4.66 -22.78,6.16 -8.98,1.5 -17.08,2.25 -24.26,2.25 -28.37,0 -49.63,-8.153 -63.81,-24.473 -14.19,-16.316 -21.28,-39.066 -21.28,-68.289 0,-32.43 6.04,-55.059 18.14,-67.859 12.08,-12.821 30.01,-19.211 53.78,-19.211 10.77,0 21.36,1.691 31.73,5.09 10.39,3.39 19.89,7.91 28.48,13.511 z m 108.38,-67.558 c 0,-31.621 -4.51,-58.242 -13.52,-79.852 -8.99,-21.621 -21.61,-38.539 -37.84,-50.738 -16.2,-12.422 -35.77,-21.371 -58.68,-26.883 -22.92,-5.5 -48.8,-8.258 -77.62,-8.258 -23.42,0 -46.49,1.41 -69.2,4.207 -22.72,2.801 -42.38,6.211 -58.99,10.211 v 84.371 h 13.17 c 13.21,-5.218 29.29,-9.961 48.29,-14.269 18.98,-4.301 35.97,-6.449 50.96,-6.449 19.97,0 36.22,1.847 48.72,5.546 12.48,3.704 22.02,8.961 28.62,15.774 6.2,6.406 10.71,14.609 13.49,24.609 2.81,10.008 4.22,22.02 4.22,36.028 v 6.312 c -13,-10.621 -27.4,-19.019 -43.2,-25.223 -15.78,-6.207 -33.38,-9.296 -52.77,-9.296 -47.17,0 -83.56,14.199 -109.17,42.617 -25.58,28.429 -38.37,71.66 -38.37,129.711 0,27.82 3.9,51.84 11.7,72.058 7.8,20.211 18.77,37.821 32.98,52.84 13.2,14.012 29.45,24.922 48.72,32.731 19.31,7.8 39.04,11.711 59.23,11.711 18.21,0 34.75,-2.149 49.63,-6.469 14.9,-4.301 28.43,-10.25 40.65,-17.86 l 3.9,15.02 h 105.08 V 634.762" /><path
             id="path48"
             style="fill:#ffffff;fill-opacity:1;fill-rule:nonzero;stroke:none"
             d="m 4380.4,830.219 h -9.58 c -4.58,1.609 -12,2.812 -22.18,3.601 -10.19,0.809 -18.67,1.211 -25.45,1.211 -15.37,0 -28.96,-1 -40.73,-3 -11.81,-2 -24.5,-5.41 -38.07,-10.211 V 596.039 h -108.38 v 337.172 h 108.38 v -49.539 c 23.77,20.418 44.43,33.969 62.01,40.68 17.57,6.699 33.75,10.058 48.55,10.058 3.79,0 8.07,-0.109 12.88,-0.289 4.78,-0.211 8.97,-0.512 12.57,-0.91 V 830.219" /><path
             id="path50"
             style="fill:#ffffff;fill-opacity:1;fill-rule:nonzero;stroke:none"
             d="m 4634.12,684.219 v 70.043 c -14.61,-1.203 -30.41,-2.852 -47.43,-4.942 -17.03,-2.09 -29.94,-4.531 -38.74,-7.332 -10.81,-3.386 -19.07,-8.328 -24.77,-14.816 -5.7,-6.481 -8.55,-15.012 -8.55,-25.582 0,-6.981 0.61,-12.668 1.79,-17.051 1.22,-4.41 4.23,-8.598 9.02,-12.578 4.6,-3.992 10.11,-6.93 16.51,-8.832 6.41,-1.891 16.42,-2.84 30.03,-2.84 10.81,0 21.77,2.199 32.87,6.582 11.11,4.391 20.88,10.18 29.27,17.348 z m 0,-52.457 c -5.79,-4.403 -13.02,-9.703 -21.62,-15.903 -8.59,-6.211 -16.71,-11.121 -24.32,-14.711 -10.6,-4.808 -21.61,-8.367 -33.02,-10.668 -11.4,-2.3 -23.92,-3.449 -37.52,-3.449 -32.03,0 -58.85,9.91 -80.46,29.719 -21.64,19.82 -32.43,45.141 -32.43,75.961 0,24.617 5.5,44.75 16.51,60.348 11,15.613 26.63,27.921 46.82,36.941 20.02,9 44.84,15.398 74.47,19.211 29.62,3.801 60.35,6.609 92.17,8.398 v 1.813 c 0,18.609 -7.61,31.469 -22.82,38.566 -15.22,7.114 -37.62,10.672 -67.24,10.672 -17.82,0 -36.83,-3.16 -57.05,-9.461 -20.22,-6.308 -34.72,-11.16 -43.54,-14.558 h -9.9 V 926 c 11.4,3.012 29.97,6.559 55.68,10.672 25.72,4.09 51.51,6.137 77.32,6.137 61.45,0 105.84,-9.438 133.16,-28.368 27.31,-18.921 40.97,-48.582 40.97,-89.019 V 596.039 h -107.18 v 35.723" /><path
             id="path52"
             style="fill:#ffffff;fill-opacity:1;fill-rule:nonzero;stroke:none"
             d="M 5158.37,835.031 V 596.039 H 5049.98 V 764.48 c 0,16.411 -0.41,30.36 -1.2,41.872 -0.81,11.519 -3,20.867 -6.6,28.078 -3.61,7.211 -9.06,12.461 -16.35,15.761 -7.32,3.309 -17.58,4.95 -30.8,4.95 -10.61,0 -20.91,-2.153 -30.92,-6.442 -10.01,-4.32 -19.02,-8.871 -27.03,-13.668 V 596.039 h -108.37 v 337.172 h 108.37 V 895.98 c 18.61,14.598 36.4,26.02 53.39,34.231 17,8.199 35.78,12.309 56.38,12.309 22.18,0 41.77,-4.961 58.76,-14.872 16.99,-9.91 30.3,-24.457 39.88,-43.687 21.59,18.211 42.57,32.539 62.95,42.937 20.4,10.411 40.38,15.622 59.97,15.622 36.39,0 64.02,-10.918 82.91,-32.739 18.87,-21.812 28.32,-53.242 28.32,-94.269 V 596.039 H 5271.26 V 764.48 c 0,16.598 -0.36,30.622 -1.05,42.032 -0.69,11.41 -2.85,20.707 -6.46,27.918 -3.39,7.211 -8.8,12.461 -16.21,15.761 -7.41,3.309 -17.82,4.95 -31.22,4.95 -9.02,0 -17.82,-1.539 -26.43,-4.653 -8.61,-3.109 -19.1,-8.258 -31.52,-15.457" /><path
             id="path54"
             style="fill:#ffffff;fill-opacity:1;fill-rule:nonzero;stroke:none"
             d="M 5797.32,835.031 V 596.039 H 5688.91 V 764.48 c 0,16.411 -0.4,30.36 -1.19,41.872 -0.8,11.519 -3,20.867 -6.59,28.078 -3.62,7.211 -9.07,12.461 -16.37,15.761 -7.31,3.309 -17.57,4.95 -30.79,4.95 -10.62,0 -20.92,-2.153 -30.93,-6.442 -10.01,-4.32 -19,-8.871 -27.02,-13.668 V 596.039 h -108.38 v 337.172 h 108.38 V 895.98 c 18.6,14.598 36.41,26.02 53.4,34.231 16.98,8.199 35.77,12.309 56.38,12.309 22.16,0 41.76,-4.961 58.75,-14.872 16.99,-9.91 30.3,-24.457 39.88,-43.687 21.59,18.211 42.58,32.539 62.96,42.937 20.4,10.411 40.37,15.622 59.97,15.622 36.38,0 64,-10.918 82.9,-32.739 18.88,-21.812 28.33,-53.242 28.33,-94.269 V 596.039 H 5910.21 V 764.48 c 0,16.598 -0.36,30.622 -1.05,42.032 -0.71,11.41 -2.86,20.707 -6.47,27.918 -3.39,7.211 -8.8,12.461 -16.21,15.761 -7.4,3.309 -17.81,4.95 -31.21,4.95 -9.02,0 -17.82,-1.539 -26.45,-4.653 -8.59,-3.109 -19.1,-8.258 -31.5,-15.457" /><path
             id="path56"
             style="fill:#ffffff;fill-opacity:1;fill-rule:nonzero;stroke:none"
             d="m 6331.47,808 c -0.61,22.629 -6.22,39.641 -16.81,51.051 -10.62,11.41 -27.14,17.121 -49.56,17.121 -20.8,0 -37.93,-5.41 -51.33,-16.223 -13.41,-10.801 -20.91,-28.121 -22.51,-51.949 z m 107.48,-63.352 h -247.39 c 1.59,-26.418 11.65,-46.628 30.16,-60.648 18.52,-14 45.8,-21.02 81.83,-21.02 22.82,0 44.93,4.122 66.34,12.321 21.43,8.211 38.34,17.008 50.75,26.418 h 12 v -86.758 c -24.41,-9.82 -47.42,-16.93 -69.05,-21.32 -21.62,-4.411 -45.55,-6.61 -71.76,-6.61 -67.65,0 -119.49,15.207 -155.53,45.629 -36.02,30.43 -54.04,73.762 -54.04,130.012 0,55.648 17.07,99.726 51.19,132.258 34.13,32.519 80.93,48.789 140.36,48.789 54.86,0 96.08,-13.867 123.7,-41.578 27.64,-27.743 41.44,-67.602 41.44,-119.653 v -37.84" /><path
             id="path58"
             style="fill:#ffffff;fill-opacity:1;fill-rule:nonzero;stroke:none"
             d="m 1340.5,2131.15 c 12.51,27.07 24.09,48.62 40.79,74.3 7.37,11.32 15.69,19.22 23.11,30.67 -3.54,1.02 -8.73,-1.91 -10.96,-3.5 -7.42,-5.38 -10.77,-14.12 -16.71,-18.8 -14.03,-11.07 -13.64,-21.11 -21,-26.27 -6.57,-4.64 -8.45,-7.69 -13.05,-14.91 -3.08,-4.82 -5.35,-8.73 -8.6,-18.23 -1.15,-3.42 -3.45,-0.39 -8.92,-7.93 -7.19,-9.8 -10.41,-20.39 -13.39,-32.26 -0.96,-3.9 -7.59,-5.97 -11.86,-14.07 -5.71,-10.92 -9.43,-21.03 -11.9,-36.95 -0.62,-3.69 -6.86,-6.25 -11.16,-16.53 -3.05,-7.23 -5.24,-8.83 -7.9,-22.46 -1.65,-8.3 -5.43,-9.5 -9.7,-21.56 -3.3,-9.2 -3.43,-18.06 -4.58,-30.08 -0.27,-2.33 -4.2,-6.95 -7.83,-13.69 -6.1,-11.26 -5.9,-18.78 -8.32,-30.41 -0.93,-4.2 -5.65,-9.77 -10.18,-27.79 -3.98,-15.98 -0.33,-26.58 -1.68,-34.45 -3.53,-20.45 -7.03,-38.21 -5.14,-58.35 0.94,-9.85 2.44,-20.01 1.78,-29.48 -1.87,-29.7 -3.48,-54.17 -3.32,-87.83 0.11,-18.32 1.54,-43.41 4.32,-64.29 3.04,-23.06 7.44,-41.07 7.44,-41.07 h 75.14 c 0,0 -2.94,43.45 0.95,89.19 2.31,27.42 8.83,56.48 14.76,76.89 7.51,26.03 12.18,39.51 26.37,73.85 0.3,0.76 -0.1,3.98 -3.85,0.83 -7.84,-6.58 -14.39,-12.37 -20.58,-21.69 -9.45,-14.25 -15.21,-25.99 -22.87,-40.63 -8.95,-17.02 -13.89,-31.84 -23.11,-52.52 -0.54,14.92 1.88,29.12 4.91,42.87 3.1,14.04 5.56,25.16 9.98,37.26 7.83,21.35 15.43,39.16 27.99,59.03 7.27,11.47 16.57,21.77 26.01,30.32 11.29,10.32 21.73,19.4 33.55,29.5 -12.42,6.4 -28.96,-6.97 -32.27,-7.65 -17.47,-3.41 -24.58,-19.61 -29.93,-21.82 -7.65,-3.2 -12.07,-7.89 -17.38,-14.34 -4.09,-4.84 -5.32,-12.32 -9.59,-14.98 -7.13,-4.44 -12.37,-11.14 -17.27,-20.5 -2.01,-3.86 -7.5,-22.13 -13.59,-19.78 10.42,61.92 32.28,120.01 67.38,171.69 22.25,32.78 46.45,60.89 82.12,86.11 4.7,3.34 5.61,4.89 -0.95,4.66 -33.34,-4.05 -35.38,-19.27 -40.87,-20.71 -5.2,-1.35 -11.65,-7.52 -15.77,-11.53 -7.41,-7.33 -7.28,-13.51 -10.13,-15.43 -6.08,-4.25 -10.66,-8.65 -14.81,-16.03 -2.19,-3.84 -5.86,-12.3 -9.11,-14.23 -8.57,-4.96 -16.86,-12.19 -20.99,-19.99 -3.05,-5.7 -4.27,-11.89 -8.25,-17.49 -4.27,-6.02 -10.23,-10.53 -15.36,-14.88 3.9,26.47 16.37,57.82 24.95,84.87 11.53,36.12 25.54,68.95 41.33,103.07" /><path
             id="path60"
             style="fill:#ffffff;fill-opacity:1;fill-rule:nonzero;stroke:none"
             d="m 1417.21,1916.65 c 28.44,63.85 58.37,111.9 97.26,168.11 5.08,7.36 9.64,14.58 14.08,21.49 2,3.11 11.56,16.85 13.55,19.76 13.04,19.69 18.52,25.72 31.86,44.53 3.62,5.11 6.55,9.13 8.09,15.04 2.84,11.01 -6.61,18.4 -8.79,28.96 -2.2,10.79 -0.99,22.57 3.96,31.68 3.1,5.69 6.19,7.93 9.31,15.57 6.07,14.73 3.97,46.6 10.87,47.44 -1.75,-15.13 -2.15,-32.13 0.23,-46.64 2.76,-16.93 13.03,-27.18 17.27,-45.11 11.43,2.06 23.83,1.57 33.45,0.74 9.54,-0.82 21.61,1.83 31.4,5.18 13.26,4.53 24.27,12.78 37.79,15.98 -11.5,-11.05 -27.73,-15.2 -41.33,-23.59 -5,-3.14 -9.71,-7.29 -13.05,-12.45 -5.46,-8.5 -9.78,-16.64 -18.34,-20.38 -15.19,-6.62 -28.24,-3.48 -45.57,-6.7 -25.76,-26.54 -50.01,-62.63 -72.38,-100.58 -56.73,-95.98 -104.04,-195.37 -131.54,-297.29 9.51,17.73 18.6,34.88 28.9,51.75 11.38,18.74 24.18,37.09 38.13,55.47 32.66,43.05 64.97,80.64 101.18,120.19 29.21,31.95 61.24,58.76 96.95,81.18 47.19,29.57 105.41,50.28 156.56,39.6 5.82,-1.36 14.14,-2.91 17.77,-6.74 -64.11,8.98 -121.54,-13.42 -164.39,-47.74 -33.86,-27.08 -62.39,-54.56 -91.39,-90.27 -14.98,-17.21 -28.45,-36.13 -41.83,-54.45 -14.02,-19.27 -26.45,-39.55 -38.77,-59.83 -41.55,-68.61 -72.99,-141.25 -96.12,-216.51 -0.66,-2.39 -0.81,-4.79 -1.46,-7.16 1.09,1.69 2.71,3.53 3.81,5.25 31.12,50.61 68.55,99.45 115.96,132.22 4.14,2.82 8.45,8.26 9.57,12.53 5.12,20.09 -10.19,29.75 10.99,57.52 4.86,6.38 11.51,8.71 16.1,14.64 8.67,13.4 15.74,37.41 23,43.86 -3.65,-15.63 -12.61,-32.15 -14.53,-48.26 -2.03,-17.68 2.49,-32.14 3.28,-50.88 12.52,-1.71 22.21,-7.01 32.03,-10.04 15.28,-4.77 24.46,-3.56 39.57,-2.25 6.45,0.54 18.15,4.31 25.1,2.89 -14.61,-7.98 -34.33,-6.51 -49.28,-14.14 -10.46,-5.36 -13.49,-13.27 -27.92,-16.05 -12.84,-2.5 -23.64,-1.16 -31.98,3.12 -6.49,3.27 -11.56,4.64 -17.39,1.85 -15.56,-7.47 -26.18,-18.02 -38.7,-30.65 -29.08,-29.26 -52.81,-61.92 -74.96,-104.75 -5.86,-11.39 -11.13,-22.64 -16.13,-34.25 -2.47,-5.65 -8.6,-21.34 -8.6,-21.34 h -75.98 c 0,0 -0.19,21.91 0.52,29.91 1.46,15.95 3.63,27.76 6.72,43.94 4.41,23.26 8.72,44.37 14.76,66.94 5.88,21.96 12.21,42.56 19.74,63.65 15.71,43.96 32.41,86.06 50.67,127.06" /><path
             id="path62"
             style="fill:#ffffff;fill-opacity:1;fill-rule:nonzero;stroke:none"
             d="m 682.551,1324.8 c 27.73,22.68 48.265,35.82 75.957,52.33 11.25,6.72 28.262,14.33 41.336,20.26 47.976,21.68 111.465,37.67 171.269,38.77 1.082,0 1.016,-0.05 1.016,-0.05 h 445.901 c 0,0 -1.66,0.05 1.56,0.05 14.19,0 28.22,-4.95 36.91,-13.14 8.71,-8.26 12.87,-20.98 15.14,-33.63 1.92,-10.78 0.98,-20.36 -1.53,-31.89 -1.97,-9.11 -3.43,-14.54 -8.51,-22.28 -3.06,-4.71 -5.97,-7.94 -11.68,-12.48 -5.86,-4.68 -14.16,-6.31 -23.67,-6.4 -1,-0.04 -3.12,-0.1 -3.05,-0.07 0.1,0.07 -521.559,0.07 -521.559,0.07 0,0 -3.243,0.01 -4.871,0.01 -34.141,0.11 -70.098,-1.63 -103.832,-6.03 -25.848,-3.53 -51.747,-7.56 -76.727,-14.06 -31.504,-8.23 -61.836,-19.62 -92.117,-30.91 16.785,22.31 36.16,41.24 58.457,59.45" /><path
             id="path64"
             style="fill:#ffffff;fill-opacity:1;fill-rule:nonzero;stroke:none"
             d="m 837.383,1502.21 c 27.39,19.79 60.652,36.04 90.129,47.32 14.937,5.66 34.8,11.93 50.586,15.86 19.058,4.81 40.972,8.42 58.832,8.94 5.38,0.15 0.79,0.04 0.79,0.04 l 382.46,0.04 c 0,0 8.19,-0.44 11.03,-1 7.19,-1.55 12.99,-4.48 15.39,-6.01 5.94,-3.81 13.4,-11.81 17.3,-18.14 9.93,-16.35 11.68,-34 8.46,-52.37 -3.67,-20.97 -19.61,-44.86 -41.23,-45.45 -3.77,-0.1 -11.28,0 -11.28,0 h -414.23 c 0,0 -24.104,-0.47 -35.124,-0.87 -20.367,-0.8 -42.957,-3.12 -60.738,-5.74 -15.215,-2.19 -30.078,-5.07 -45.317,-9.15 -51.074,-13.8 -95.449,-39.7 -141.859,-59.84 31.258,54.63 73.539,96.48 114.801,126.37" /><path
             id="path66"
             style="fill:#ffffff;fill-opacity:1;fill-rule:nonzero;stroke:none"
             d="m 623.434,1242.28 c 66.488,39.28 146.578,54.77 219.886,57.23 1.746,0.08 5.227,0.19 5.227,0.19 l 571.723,-0.05 c 0,0 1.04,0 6.21,0.05 34.65,0.03 47.31,-34.35 47.15,-62.15 -0.07,-9.16 -1.62,-18.5 -4.16,-24.77 -3.29,-8.19 -6.93,-14.88 -12.89,-21.34 -2.13,-2.34 -9.78,-7.72 -13.17,-8.55 -7.92,-1.94 -17.67,-1.72 -17.61,-1.72 0.08,0 -425.26,-0.08 -425.26,0 0,0 -22.95,0.92 -38.868,2.45 -11.477,1.13 -20.18,2.33 -32.094,4.6 -29.297,5.82 -53.57,15.35 -78.926,23.17 -16.922,5.24 -34.722,9.13 -53.281,11.94 -34.141,5.22 -71.414,7.6 -105.887,4.99 -43.847,-3.26 -82.847,-11.85 -124.554,-25.08 7.054,10.99 36.371,27.12 56.504,39.04" /><path
             id="path68"
             style="fill:#ffffff;fill-opacity:1;fill-rule:nonzero;stroke:none"
             d="m 931.395,1063 c -19.547,6.9 -38.614,15.79 -55.719,27.07 -22.285,14.75 -33.215,26.49 -62.016,39.79 -24.644,11.39 -44.324,22.64 -78.687,35.08 -16.582,6.01 -43.446,14.28 -66.481,18.22 -32.906,5.59 -64.637,8.04 -64.637,8.04 0,0 6.719,4.19 10.774,5.43 33.586,10.22 63.246,15.21 97.738,17.76 30.238,2.27 58.031,-0.68 88.356,-5.42 12.441,-1.96 28.613,-5.79 42.668,-9.8 45.64,-12.99 97.515,-33.59 143.55,-33.67 2.563,0 2.27,0.04 2.27,0.04 h 425.019 c 0,0 -3.21,0 1.3,0 12.87,0.04 36.93,-4.13 46.6,-21.21 11.2,-19.67 14.68,-43.12 5.27,-66.6 -2.85,-7.05 -7.58,-17.15 -14.37,-23.28 -5.97,-5.39 -15.67,-8.87 -21.27,-8.87 -1.62,-0.08 -4.4,0 -4.4,0 h -371.69 c 0,0 1.41,0 -2.03,0 -38.01,0 -85.847,4.61 -122.245,17.42" /><path
             id="path70"
             style="fill:#ffffff;fill-opacity:1;fill-rule:nonzero;stroke:none"
             d="m 1100.71,931.172 c -10.51,10.777 -25.02,27.316 -38.15,43.027 -25.23,30.071 -36.52,57.161 -36.52,57.161 h 247.91 c 0,0 0.66,-28.59 -5.07,-61.719 -5.36,-30.743 -16.72,-63.161 -28.8,-86.661 -0.44,-24.082 9.72,-46.46 11.39,-70.25 -20.36,-12.5 -42.26,-24.878 -60.51,-42.421 -1.17,-1.079 -3.05,-1.079 -3.82,1.82 -9.77,36.66 -14.92,69.351 -22.95,105.601 -22.6,17.461 -43.79,33.032 -63.48,53.442" /><path
             id="path72"
             style="fill:#ffffff;fill-opacity:1;fill-rule:nonzero;stroke:none"
             d="m 1356.2,951.5 c -7.01,12.949 -12.24,30.039 -20.29,40.219 -1.73,-9.071 0.4,-14.649 -0.83,-23.34 -1.13,-7.27 -7.09,-4.238 -8.3,-0.82 -3.48,9.839 -7.17,21.992 -10.35,32.07 -5.29,16.811 -6.98,31.691 -6.98,31.691 l 41.24,0.04 c 0,0 1.59,-0.39 2.32,-4.39 1.97,-10.39 1.48,-20.55 4.33,-32.579 3.66,-15.512 8.37,-29.672 14.07,-44.141 4.96,-12.73 11.35,-25.57 16.55,-38.199 0.7,-1.66 1.04,-4.871 -0.21,-6.531 -1.53,-1.911 -4.16,-1.68 -5.67,0 -11.81,13.441 -16.57,28.64 -25.88,45.98" /><path
             id="path74"
             style="fill:#ffffff;fill-opacity:1;fill-rule:nonzero;stroke:none"
             d="m 1420.04,922.012 c -7.01,14.957 -16.88,31.758 -16.02,48.726 4.56,-6 6.44,-10.289 12.72,-13.629 2.87,-0.898 8.89,-0.058 7.38,4.961 -2.77,9.348 -7.08,17.258 -11.06,30.071 -5.92,18.949 -11.67,39.199 -11.67,39.199 l -42.1,0.02 c 0,0 2.33,-17.07 11.9,-43.282 8.41,-23.219 21.4,-49.777 35.62,-74.668 11.59,-20.48 22.11,-38.351 35.25,-53.32 4.5,-5.149 15.54,-0.621 10.76,6.082 -12.47,17.637 -24.11,37.168 -32.78,55.84" /><path
             id="path76"
             style="fill:#ffffff;fill-opacity:1;fill-rule:nonzero;stroke:none"
             d="m 1693.4,2344.89 c -9.14,-3.98 -17.21,-9.13 -21.77,-17.91 -3.32,-6.3 -5.56,-15.92 0.79,-21.34 11.12,-9.48 24.38,0.23 29.75,9.92 6.79,12.35 5.02,35.96 5.02,35.96 0,0 -7.89,-4.11 -13.79,-6.63" /><path
             id="path78"
             style="fill:#ffffff;fill-opacity:1;fill-rule:nonzero;stroke:none"
             d="m 1703.06,2285.95 c 3.99,7.54 12.74,15.68 22.33,21.51 10.84,6.63 22.07,13.06 29.88,17.72 7.81,4.7 9.3,7.99 9.3,7.99 0,0 -6.44,-2.22 -9.96,-4.29 -19.28,-11.5 -40.31,-24.56 -48.87,-28.33 -10.8,-4.71 -25.47,-5.62 -38.7,-7.31 -2.11,16.69 -6.44,23.62 -6.39,38.44 0.11,7.12 1.83,16.34 3.04,22.77 4.14,21.43 4.95,32.25 4.95,32.25 0,0 -3.27,-3.05 -4.46,-12.49 -1.35,-8.51 -2.3,-11.66 -4.26,-21.73 -2.22,-11.62 -4.55,-21.47 -11.5,-28.73 -10.02,-10.36 -19.3,-28.82 -11.56,-42.96 4.51,-8.26 12.04,-7.06 14.4,-9.19 2.35,-2.12 3.79,-7.21 10.92,-9.57 15.39,-5.14 32.83,8.67 40.88,23.92" /><path
             id="path80"
             style="fill:#ffffff;fill-opacity:1;fill-rule:nonzero;stroke:none"
             d="m 1683.11,2241.88 c 5.22,8.48 10.58,14.43 18.81,19.48 13.67,8.33 23.8,13.97 32.13,18.24 3.62,1.81 6.63,3.97 7.55,7.83 -3.73,-1.4 -17.83,-8.03 -31.83,-16.36 -10.03,-5.98 -27.27,-13.46 -38.85,-13.99 -4.59,-0.2 -7.99,0.93 -11.74,1.04 -7.77,0.33 -17.67,-1.55 -17.67,-1.55 0,0 -2.51,10.98 -5.83,18.89 -1.66,4.06 -4.35,8.22 -5.8,15.83 -0.97,5.08 -1.26,12.71 -0.86,17.25 1.14,13.73 4.84,27.07 4.2,40.97 -8.63,-17.93 -5.1,-40.01 -15.23,-53.88 -4.28,-5.83 -7.66,-10.43 -11.02,-17.78 -5.56,-12.06 -4.9,-24.55 2.62,-36.18 4.34,-6.62 13.91,-6.38 15.56,-7.67 2.51,-1.85 4.65,-8.78 14.01,-10.86 16.02,-3.6 34.9,3.82 43.95,18.74" /><path
             id="path82"
             style="fill:#ffffff;fill-opacity:1;fill-rule:nonzero;stroke:none"
             d="m 1687.58,1891.29 c 3.73,7.53 6.13,17.42 10.89,24.41 -10.76,-1.61 -12.49,-2.84 -28.04,-4.55 -3.39,-0.32 -10.4,-3.84 -12.72,-6.15 -6.15,-6.21 -11.52,-11.96 -9.13,-22.38 0.92,-4.05 4.5,-7.02 6.49,-7.65 12.93,-4.2 26.05,3.49 32.51,16.32" /><path
             id="path84"
             style="fill:#ffffff;fill-opacity:1;fill-rule:nonzero;stroke:none"
             d="m 1700.7,1870.77 c 14.69,3.43 31.66,10.64 38.48,8.37 -13.79,-7.33 -31.17,-10 -46.45,-14.35 -11.65,-3.36 -19.97,-12.16 -30.37,-20.15 -9.55,-7.26 -22.24,-10.22 -33.59,-4.88 -3.83,1.82 -7.54,7.99 -8.2,11.28 -0.6,2.63 -6.08,5.26 -8.89,7.58 -2.83,2.36 -4.2,8.25 -4.26,10.52 -0.49,20.34 14.98,28.55 29.89,40.5 11.23,8.99 25.81,47.16 34.7,55.07 -1.58,-12.3 -17.58,-35.51 -24.55,-53.58 -5.53,-14.39 -3.71,-25.9 -7.28,-41.04 10.66,-0.68 22.54,-2.91 33.28,-3.09 8.42,-0.11 18.59,1.72 27.24,3.77" /><path
             id="path86"
             style="fill:#ffffff;fill-opacity:1;fill-rule:nonzero;stroke:none"
             d="m 1685.22,1839.42 c -8.25,-1.53 -18.34,-4.13 -25.23,-5.59 -23.95,-5.07 -35.4,6.66 -54.52,6.44 1.68,21.91 -5.93,31.71 0.33,45.87 5.59,12.6 10.76,25.94 15.56,36.61 3.89,8.57 5.07,15.8 5.07,15.8 0,0 -5.8,-8.69 -22.32,-40.86 -5.74,-11.23 -16.02,-13.63 -25.15,-24.23 -10.51,-12.12 -16.54,-37.75 2.9,-48.51 3.86,-2.12 3.3,-8.78 6.11,-11.47 12.98,-12.21 39.19,-10.98 55.58,3.9 13.05,11.89 28.91,13.82 42.43,17.32 7.9,2.04 14.83,5.41 14.83,5.41 0,0 -3.75,1.52 -15.59,-0.69" /><path
             id="path88"
             style="fill:#ffffff;fill-opacity:1;fill-rule:nonzero;stroke:none"
             d="m 1205.22,1585.17 c -0.94,0 -1.96,0 0,0 z m -111.88,315.55 c -7.99,-10.56 -11.69,-22.7 -20.5,-31.92 -4.61,-4.83 -11.63,-2.57 -15.27,2.99 -4.04,6.29 -10.59,15.18 -5.72,21.39 8,10.27 24.74,16.82 39,14.96 0.84,-0.09 5.43,-3.48 2.49,-7.42 z m -38.35,-60.39 c -4.46,-11.96 -17.79,-13.26 -29.13,-15.62 -2.12,-0.46 -8.64,0 -11.57,2.87 -4.91,4.79 -9.14,11.34 -8.29,19.54 0.46,5.06 4.67,10.02 9.9,12.03 9.46,3.67 20.69,9.57 30.03,4.33 8.03,-4.48 12.23,-14.72 9.06,-23.15 z m -24.54,-63.22 c -3.27,-4.71 -11.65,10.95 -12.74,18.12 -3.13,20.77 15.07,26.07 30.25,25.43 0.47,-12.39 -9.14,-31.57 -17.51,-43.55 z m -16.39,-56.03 c -2.98,-8.35 -4.4,-16.04 -7.72,-23.69 -3.22,-7.4 -16.977,-10.04 -24.61,-7.67 -10.89,3.37 -20.238,27.83 -7.851,37.2 9.473,7.08 19.297,8.22 31.361,9.7 2.17,0.26 10.28,-0.23 10.59,-0.99 2.02,-5.07 0.74,-7.61 -1.77,-14.55 z m -18.33,-64.59 c -2.207,-6.42 -3.179,-13.02 -6.023,-19.19 -1.414,-3.13 -3.289,0.98 -3.359,1.19 -4.286,10.64 -6.985,19.65 -3.328,29.02 2.058,5.19 9.16,9.96 15.898,10.38 -0.41,-6.67 -0.891,-14.9 -3.188,-21.4 z M 974.07,1625 c -4.922,2.22 -4.84,8.55 -6.902,12.48 -1.941,3.84 -6.133,9.13 -4.402,14.17 9.492,-5.33 13.894,-14.83 11.304,-26.65 z m -16.382,39.31 c -11.333,9.32 -12.305,24.22 -19.868,35.62 8.34,5.33 22.395,4.26 26.723,-6.29 3.453,-8.48 5.953,-20.94 -2.641,-27.41 -0.933,-0.69 -3.14,-2.81 -4.214,-1.92 z m -42.25,76.85 c -1.7,2.43 -5.055,9.43 -2.5,10.32 20.292,6.98 35.507,7.21 39.843,-14.49 3.071,-15.48 -7.515,-28.77 -22.343,-23.36 -4.239,1.58 -8.458,18.07 -15,27.53 z m -29.493,48.99 c -1.425,1.79 -2.578,7.18 -0.8,8.56 10.546,8.48 26.027,9.13 38.007,7.96 15.825,-1.44 19.067,-16.14 16.426,-28.32 -3.473,-16.04 -27.801,-18.04 -34.683,-15.37 -6.782,2.6 -11.497,17.94 -18.95,27.17 z m 3.442,57.03 c 13.672,8.86 39.785,15.43 44.136,-8.56 1.332,-7.23 -0.476,-16.83 -10.242,-19.97 -10.027,-3.22 -21.843,-6.69 -31.008,-2.97 -11.277,4.61 -13.496,24.65 -2.886,31.5 z m -14.16,40.36 c 1.035,4.6 6.128,6.78 10.418,7.88 11.066,2.72 23.425,6.85 33.585,0.38 3.954,-2.5 4.254,-6.04 4.774,-11.02 0.898,-8.07 -0.242,-14.66 -5.559,-17.74 -10.777,-6.32 -21.734,-6.89 -34.257,-4.43 -10.157,2.01 -10.997,15.47 -8.961,24.93 z m -11.332,-62.21 c -9.469,7.01 -13.661,16.91 -20.641,26.72 -1.684,2.4 0,3.39 1.289,3.76 16.812,4.75 29.273,-3.63 26.656,-21.96 -0.469,-3.56 -2.769,-11.85 -7.304,-8.52 z m -46.383,56.61 c -6.313,5.45 -1.926,14.92 3.562,17.68 9.61,4.77 24.707,5.49 34.696,2.12 6.437,-2.16 9.691,-11.39 8.539,-21.47 -0.493,-4.12 -1.743,-8.67 -3.774,-10.01 -7.605,-5.19 -19.383,-5.4 -28.64,-3.47 -6.551,1.39 -8.887,10.35 -14.383,15.15 z m -7.27,57.25 c 6.098,13.25 28.305,13.36 40.41,7.46 9.844,-4.85 11.094,-23.19 0.332,-30.42 -8.589,-5.72 -22.117,-3.62 -31.226,-1.95 -12.934,2.38 -13.965,15.1 -9.516,24.91 z m 0.488,49.61 c 9.243,8.77 21.196,4.75 32.305,3.21 2.16,-0.31 4.731,-1.82 6.184,-3.27 7.59,-7.67 8.191,-20.24 -0.266,-26.53 -9.742,-7.25 -21.922,-2.53 -33.641,-1.94 -3.164,0.12 -6.652,3.84 -7.374,6.22 -2.11,7.42 -3.376,16.49 2.792,22.31 z m 5.958,41.49 c 9.796,4.09 26.632,5.97 33.578,-5.03 4.254,-6.74 3.015,-19.22 -3.821,-21.03 -6.687,-1.73 -29.465,-5.51 -34.914,7.07 -2.691,6.2 -1.551,16.17 5.157,18.99 z m 30.16,35.25 c 2.832,-1.25 4.605,-3.52 5.269,-7 1.399,-7.55 -0.586,-15.75 -7.832,-17.08 -10.894,-1.98 -27.066,-2.61 -27.012,12.78 0.039,17.17 16.965,16.98 29.575,11.3 z m -21.914,31.93 c 5.789,2.21 15.332,1.72 20.527,-0.99 2.625,-1.37 6.148,-5.68 4.668,-10.22 -1.848,-5.93 -7.363,-8.07 -13.637,-8.15 -6.012,-0.05 -12.918,0.43 -15.347,5.34 -2.305,4.66 -1.333,12.04 3.789,14.02 z m 6.754,25.74 c 5.304,1.93 13.136,1.8 16.996,-2.38 5.293,-5.79 1.113,-15 -8.887,-14.54 -3.527,0.15 -7.695,1.36 -9.824,2.57 -5.176,2.92 -3.457,12.5 1.715,14.35 z m 23.82,16.59 c 0.676,2.23 4.16,4.84 5.984,5.49 3.969,1.41 8.625,1.7 12.426,0.19 7.598,-3.13 6.562,-12.53 -1.563,-15.83 -3.632,-1.47 -9.21,-2.43 -11.957,-1.47 -5.105,1.73 -6.519,6.17 -4.89,11.62 z m 23.68,-36.76 c -8.29,-2.43 -19.84,-2.9 -22.325,5.6 -4.195,14.42 14.004,16.58 23.449,13.56 6.512,-2.07 8.821,-16.31 -1.124,-19.16 z m 5.492,47.62 c 2.632,8.94 12.754,13.79 21.929,11.06 7.895,-2.31 9.707,-13.06 4.375,-18.29 -2.398,-2.34 -6.406,-4.73 -10.703,-5.68 -9.375,-2.1 -18.593,3.07 -15.601,12.91 z m 41.25,-32.79 c -1.489,-5.83 -5.762,-9.83 -12.618,-11.35 -6.796,-1.5 -16.21,-1.92 -19.984,2.28 -3.594,3.99 -5.254,9.59 -2.242,13.88 6.016,8.56 17.039,11.55 26.863,9.38 5.606,-1.31 9.727,-7.05 7.981,-14.19 z m -3.657,34.31 c 3.657,8.11 12.954,12.19 21.875,9.47 1.79,-0.58 5.469,-3.45 5.981,-6.29 1.055,-5.64 -0.899,-10.79 -5.609,-13.74 -6.036,-3.85 -11.012,-6.01 -17.95,-3.17 -5.203,2.18 -6.472,8.94 -4.297,13.73 z m 38.442,-22.78 c 4.07,-6.9 -2.129,-13.83 -5.285,-15.73 -6.985,-4.09 -16.844,-6.6 -21.043,0.33 -4.145,6.79 -0.727,14.86 6.504,17.84 6.89,2.86 14.031,7.2 19.824,-2.44 z m 11.582,-26.36 c 4.566,-3.78 8.57,-11.7 3.101,-17.97 -5.132,-5.91 -11.519,-7.68 -19.586,-8.98 -5.468,-0.93 -12.445,3.11 -13.324,7.93 -0.816,4.15 -1.582,11.72 2.539,15.21 8.032,6.83 18.782,10.79 27.27,3.81 z m 9.668,44.98 c 4.312,-1.28 7.066,-5.84 4.91,-10.23 -1.316,-2.7 -5.187,-5.65 -7.645,-7.15 -6.769,-4.18 -12.582,-2.46 -14.687,2.51 -3.906,9.15 9.195,17.29 17.422,14.87 z m 16.504,-22.8 c 4.751,-0.42 6.931,-3.73 7.871,-7.36 1.23,-4.87 -0.37,-9.38 -4.49,-12.14 -4.885,-3.25 -10.983,-5.17 -15.866,-5.24 -6.589,-0.12 -12.691,9.56 -9.121,15.84 3.782,6.74 13.305,9.62 21.606,8.9 z m 27.281,-34.89 c 2.81,-8.28 -3.26,-12.14 -9.66,-15.54 -6.5,-3.47 -15.22,-6.71 -19.735,-2.39 -5.769,5.43 -8.335,14.58 -1.914,20.6 8.929,8.36 25.409,14.65 31.309,-2.67 z m 11.78,-20.77 c 10.46,-1.33 12.54,-16.2 10.43,-21.58 -2.4,-4.62 -7.67,-8.24 -10.43,-9.66 -7.68,-3.95 -16.64,-5.45 -23.69,-1.8 -6.43,3.34 -9.22,13.09 -5.72,20.73 4.72,10.34 19.62,13.6 29.41,12.31 z m 21.52,-46.04 c 3.58,-5 2.8,-13.88 0.67,-16.66 -6.6,-9.01 -24.96,-14.16 -32.54,-10.47 -5.75,2.82 -11.43,15.5 -4.69,23.11 7,7.9 19.22,12.61 30.3,10.3 2.47,-0.55 4.09,-3.27 6.26,-6.28 z m 4.63,-28.37 c 5.04,-0.54 9.51,-6.08 11.95,-12.11 3.16,-7.8 -0.03,-16.89 -2.53,-18.59 -6.02,-4.09 -25.08,-15.57 -37.09,-8.69 -6.6,3.79 -8.42,12.44 -8.83,17.55 -1.32,16.51 23.73,23.27 36.5,21.84 z m -70.387,-118.09 c -2.563,6.55 -4.941,16.24 0.203,20.22 10.394,8.2 33.894,15.37 42.834,2.97 5.81,-8.05 4.11,-21.7 -6.07,-26.92 -10.5,-5.37 -31.041,-11.54 -36.967,3.73 z m -50.41,-0.72 c 10.429,5.3 25.457,11.7 36.687,4.46 5.137,-3.29 10.442,-16.96 6.817,-23.02 -7.703,-12.87 -27.957,-16.15 -40.852,-12.84 -10.957,2.85 -14.265,25.53 -2.652,31.4 z m -9.375,44.49 c 12.578,8.85 37.437,14.57 43.418,-4.78 1.558,-5.01 2.437,-10.56 -0.117,-14.61 -6.973,-11.21 -24.668,-14.16 -36.504,-12.49 -12.793,1.85 -18.852,23.43 -6.797,31.88 z m -10.598,45.08 c 12.09,6.85 37.86,15.96 43.926,-3.68 2.434,-8.03 2.18,-17.94 -4.695,-21.49 -9.844,-5.16 -25.453,-10.58 -36.809,-3.5 -9.48,6 -10.762,23.89 -2.422,28.67 z m 67.676,81.02 c -5.066,-4.52 -10.203,-5.49 -16.941,-7.78 -9.434,-3.2 -19.321,4.07 -20.403,13.1 -1.816,15.46 14.754,17.76 25.711,19.69 7.988,1.45 12.934,-5.73 14.406,-10.56 1.504,-4.64 1.309,-10.86 -2.773,-14.45 z m 20.304,-36.37 c -7.19,-10.71 -36.156,-17.45 -42.55,-6.43 -4.668,8.07 -7.57,19.39 1.203,24.8 9.219,5.66 20.137,9.05 30.857,7.12 10.08,-1.78 15.22,-18.36 10.49,-25.49 z m 15.45,-66.33 c 4.12,-6.56 7.01,-15.37 0.88,-23.52 -5.55,-7.45 -25.37,-10.94 -35.509,-8.48 -5.566,1.4 -8.203,8.16 -9.055,12.73 -1.179,6.17 -1.726,12.38 3.731,17.41 7.851,7.2 18.333,7.04 28.403,7.04 4.15,0 10,-2.68 11.55,-5.18 z m -5.76,22.26 c -6.18,-11.34 -27.084,-12.8 -36.486,-11.55 -6.621,0.89 -11.289,11.57 -11.098,20.51 0.07,4.6 1.508,7.64 4.649,9.33 10.441,5.6 21.132,9.35 32.365,7.53 10.96,-1.74 15.22,-17.22 10.57,-25.82 z m -110.072,24.42 c -7.102,21.89 20.222,28.79 36.18,25.41 11.093,-2.31 14.804,-23.65 4.472,-30.39 -12.781,-8.31 -35.469,-10.99 -40.652,4.98 z m -41.211,-53.73 c 8.191,8.45 22.976,8.98 34.512,7.43 7.082,-0.99 10.144,-8.15 11.125,-15.92 2.761,-21.38 -25.942,-24.98 -39.59,-19.98 -9.004,3.29 -13.696,20.58 -6.047,28.47 z m -5.774,41.43 c 8.555,10.07 22.872,12.46 34.731,9.2 7.242,-1.97 10.586,-10.43 10.43,-19.91 -0.137,-5.38 -3.829,-9.29 -7.153,-10.65 -8.418,-3.42 -18.164,-5.96 -27.359,-4.84 -11.352,1.39 -18.227,17.27 -10.649,26.2 z m 1.348,45.1 c 10.527,4.29 30.156,8.14 33.457,-6.9 4.453,-20.02 -19.168,-23.28 -31.797,-19.8 -9.668,2.65 -11.504,22.72 -1.66,26.7 z m 75.734,33.09 c 7.872,-4.47 9.524,-17.08 4.739,-24.39 -6.367,-9.67 -28.149,-15.27 -39.848,-6.81 -6.68,4.85 -10.281,24.72 3.399,29.49 10.941,3.83 21.425,7.54 31.71,1.71 z m -11.164,14.38 c -8.921,-5.52 -21.648,-7.72 -30.093,-3.02 -7.344,4.02 -7.051,14.75 -3.418,20.52 5.984,9.62 20.855,10.66 31.132,7.64 8.868,-2.56 12.184,-19.04 2.379,-25.14 z m -72.273,15.68 c 0.906,2.86 2.18,3.68 3.953,4.55 7.5,3.58 15.742,4.54 22.934,-0.07 5.175,-3.36 4.722,-11.11 0.886,-15.12 -5.617,-5.91 -17.043,-6.15 -24.367,-2.31 -4.722,2.47 -4.937,8.29 -3.406,12.95 z m 2.394,-31.34 c 3.321,9.48 15.157,8.95 24.11,7.79 11.023,-1.44 13.23,-15.56 9.308,-21.5 -5.414,-8.2 -17.753,-6.63 -27.582,-5.38 -7.988,1.02 -8.464,11.61 -5.836,19.09 z m 155.508,-285.21 c 2.71,-10.71 0,-20.89 -9.53,-24.3 -12.247,-4.32 -28.81,-10.65 -38.599,-4.05 -11.211,7.51 -16.597,28.81 -3.726,37.16 15.191,9.94 45.445,16.45 51.855,-8.81 z m -16.508,33.3 c -8.23,-9.35 -21.66,-9.04 -34.851,-12.91 -5.09,-1.47 -11.133,3.02 -13.777,7.68 -4.883,8.7 -9.766,20.36 -0.422,28.77 7.734,7.05 18.281,6.45 27.754,9.28 4.25,1.28 9.464,2.77 14.621,-0.72 10.683,-7.29 14.843,-22.91 6.675,-32.1 z m 87.308,140.15 c 2.32,-6.81 5.45,-11.8 2.79,-18.58 -3.14,-8.33 -11.21,-9.47 -18.79,-12.21 -7.07,-2.56 -18.86,-5.79 -24.78,0.4 -6.8,7.04 -9.55,21.39 -1.41,27.54 10.57,7.86 36.6,18.71 42.19,2.85 z m 143.29,61.18 c 6.23,25.39 13.97,51.14 15.9,77.97 2.84,40.07 -5.8,81.73 -31.51,112.08 2.53,-13.09 5.88,-24.14 7.64,-37.88 2.09,-16.59 -0.25,-35.07 -4.53,-51.77 -3.24,-12.64 -8.94,-24.93 -14.59,-36.67 -6.67,-13.91 -16.63,-29.04 -26.55,-41.45 -27.81,-34.58 -71.14,-102.07 -71.14,-102.07 0,0 -3.63,0.26 -5.78,0.26 -0.51,8.41 19.44,37.22 29.5,53.35 22.1,35.35 38.82,54.37 58.04,85.03 12.04,19.32 21.23,42.84 24.19,64.16 5.99,43.43 -17.43,95.48 -51.1,112.79 7.69,-32.44 6.89,-78.17 -10.37,-97.4 -32.7,-36.43 -52.13,-63.69 -75.46,-110.39 -0.67,-1.25 -6.12,6.3 -10.64,9.23 -5.06,3.36 -2.22,13.37 -4.04,20.11 -1.64,5.73 -4.34,10.15 -5.14,11.15 -6.91,8.46 -13.59,8.99 -15.04,11.53 -1.67,2.86 -0.87,10 -6.89,18.13 -3.01,4.1 -10.68,7.13 -13.8,10.97 -3.37,4.2 -4.9,17.05 -14.21,22.32 -4.421,2.48 -6.484,10.19 -10.718,13.97 -13.086,11.59 -26.152,9.35 -28.652,10.08 -3.364,0.9 -9.946,9.27 -21.641,11.28 -11.43,1.95 -17.727,-5.68 -23.664,-2.92 -14.895,6.89 -29.153,7.46 -44.981,-10.18 -4.754,-5.25 -12.961,-0.34 -23.214,-8.18 -9,-6.86 -9.161,-13.2 -13.75,-14.06 -8.614,-1.62 -15.028,-8.51 -18.348,-16.03 -1.731,-3.87 -3.02,-11.7 -4.024,-16.86 -1.418,-7.13 -5.007,-13.69 -5.086,-18.93 -0.082,-7.28 2.223,-11.21 1.583,-14.47 -1.067,-4.71 -4.883,-9.04 -5.352,-13.44 -0.344,-2.5 -0.551,-9.16 1.269,-12.91 2.286,-4.62 -1.613,-8.63 -3.632,-13.56 -1.938,-4.58 -3.977,-12.42 -3.364,-17.95 0.825,-7.59 5.176,-10.37 1.797,-16.35 -5.547,-9.72 -12.539,-24.88 -0.269,-44.25 2.254,-3.54 -5.141,-10.43 -5.547,-20.54 -0.473,-11 6.172,-19.13 7.984,-24 0.332,-1.75 -2.926,-1.65 -3.047,-3.53 -29.214,30.9 -55.054,59.39 -88.949,86.22 -20.703,16.36 -41.172,30.12 -64.109,42.4 -61.289,32.87 -132.492,54.86 -196.992,46.82 24.285,-19.55 54.941,-33.5 79.89,-55.71 23.641,-21.06 45.09,-39.04 66.621,-61.41 33.793,-35.11 61.254,-70.7 89.867,-112.01 8.5,-12.23 14.094,-20.41 22.012,-33.17 7.981,-12.76 16.844,-26.31 24.106,-38.96 36.621,-63.58 66.621,-122.44 96.98,-187.59 8.43,-18.01 15.496,-36.87 23.762,-54.78 2.207,-4.86 5.371,-1.25 7.613,0 10.981,6.35 22.641,11.66 34.043,17.04 9.106,4.18 17.387,7.06 25.512,10.18 20.547,7.83 40.039,12.08 61.551,16.55 35.909,7.52 100.439,5.97 100.439,5.97 l 122.33,0.04 c 0.8,0 1.63,0 3.34,0 -1.28,35.07 -9.61,69.15 -11.64,104.32 -1.54,28.5 -0.59,56.04 0.41,84.59 2.74,77.36 14.11,160.4 31.39,230.88" /><path
             id="path90"
             style="fill:#ffffff;fill-opacity:1;fill-rule:nonzero;stroke:none"
             d="m 395.137,2295.16 c -23.871,-23.8 -30.992,-32.57 -44.91,-58.88 -8.2,-15.47 -18.61,-35.33 -21.579,-60.93 49.051,18.67 89.071,56.78 125.235,98.87 26.754,31.2 47.504,72.6 73.887,103.42 -46.469,-15.58 -95.504,-45.52 -132.633,-82.48" /><path
             id="path92"
             style="fill:#ffffff;fill-opacity:1;fill-rule:nonzero;stroke:none"
             d="m 254.711,2228.25 c 18.492,31.24 44.98,65.01 72.441,88.05 -12.718,-28.57 -28.382,-56.87 -33.769,-90.66 -10.672,-67.27 -20.746,-114.39 -31.906,-175.79 30.503,21.76 62.683,55.95 95.031,79.81 24.996,18.37 50.051,30.64 75.758,48.3 15.277,10.55 25.234,24.09 37.945,36.77 -15.145,-63.84 -71.164,-128.27 -111.273,-158.31 -50.387,-37.79 -68.45,-43.81 -149.422,-126.15 -10.282,101.67 -8.454,207.33 45.195,297.98" /><path
             id="path94"
             style="fill:#ffffff;fill-opacity:1;fill-rule:nonzero;stroke:none"
             d="m 89.5234,1890.59 c 3.7657,52.8 10.1016,95.02 22.9256,146.52 8.989,35.97 28.34,89.51 56.246,111.47 -3.418,-13.04 -5.215,-32.6 -6.531,-45.79 -5.469,-54.4 4.945,-117.58 6.188,-171.91 0.617,-26.72 0.382,-47.31 -3.618,-72.41 -4.136,-26.33 -0.687,-58.62 -0.687,-58.62 0,0 14.426,16.47 27.305,36.99 28.144,44.7 37.16,57.97 59.836,82.19 28.132,30.05 59.597,57.88 95.124,82.52 -4.285,-16.69 -22.425,-49.16 -29.921,-62.21 -10.004,-17.45 -14.543,-33.32 -38.215,-72.85 -33.313,-55.55 -48.153,-63.04 -85.141,-122.45 -8.008,-12.92 -40.847,-62.06 -48.805,-77.08 -17.328,35.86 -23.863,67.19 -45.1206,125.56 -13.3516,36.68 -11.3555,73.37 -9.586,98.07" /><path
             id="path96"
             style="fill:#ffffff;fill-opacity:1;fill-rule:nonzero;stroke:none"
             d="M 38.0898,1615.92 C 18.0039,1668 8.80078,1716.32 1.99219,1771.15 c -4.16016,33.55 -2.226565,78.26 9.74611,110.52 3.1406,-7.87 9.5469,-27.87 10.414,-30.86 8.9063,-29.96 12.6329,-44.35 25.0821,-73.25 9.5234,-22.16 21.1679,-39.83 33.6289,-61.73 11.3281,-19.99 20.8907,-46.31 29.0857,-66.45 26.375,-64.57 28.321,-125.02 38.414,-131.62 7.258,15.54 9.532,30.42 10.344,37.75 7.84,71.45 17.25,136.39 107.227,220.6 8.254,-25.07 4.07,-71.28 -0.891,-96.03 -10.758,-54.12 -19.445,-80.11 -43.281,-132.56 -12.598,-27.62 -29.418,-68.27 -34.028,-81.73 -12.082,-35.07 -16.218,-53.45 -23.82,-74.19 -42.476,70.78 -94.7578,143.87 -125.8242,224.32" /><path
             id="path98"
             style="fill:#ffffff;fill-opacity:1;fill-rule:nonzero;stroke:none"
             d="m 108.121,1290.31 c -30.246,42.1 -41.2655,63.25 -60.9491,108.07 -16.5274,37.59 -21.2813,51.53 -30.961,93.63 -5.289,22.95 -8.27731,43.77 -4.1718,57.34 23.6797,-42.87 39.8398,-90.85 70.8125,-126.41 24.5894,-28.21 48.2774,-52.23 67.8244,-76.04 29.988,-36.58 53.601,-71.21 82.383,-109.3 2.425,19.09 3.363,38.43 -0.926,69.71 -5.856,42.86 -2.246,78 5.238,119.5 9.488,52.65 16.445,78.71 34.715,131.98 22.348,-43.83 22.262,-94.54 27.871,-141.03 10.828,-90.2 -17.391,-197.76 -22.941,-242.6 -1.485,-11.81 0.562,-40.96 1.16,-52.31 -42.199,33.22 -79.742,66.78 -116.141,103.28 -16.586,16.54 -39.344,43.95 -53.914,64.18" /><path
             id="path100"
             style="fill:#ffffff;fill-opacity:1;fill-rule:nonzero;stroke:none"
             d="m 268.102,959.531 c -19.215,13.848 -70.844,53.299 -95.29,84.349 -35.601,45.22 -43.437,64.59 -66.921,116.59 -2.879,6.34 -16.1683,35.78 -17.2543,55.78 76.9453,-92.91 145.8323,-106.74 219.2303,-183.83 26.934,-28.24 54.516,-54.83 69.071,-68.17 11.171,-10.27 25.042,-13.391 25.042,-13.391 0,0 -1.445,19.801 -8.687,33.59 -48.969,93.591 -58.211,191.431 -50.781,296.441 22.351,-27.67 29.402,-46.15 43.586,-72.91 15.429,-29.15 23.297,-47.17 30.507,-65.11 41.903,-104.28 52.805,-224.749 78.692,-285.37 -79.91,26.93 -142.84,41.309 -227.195,102.031" /><path
             id="path102"
             style="fill:#ffffff;fill-opacity:1;fill-rule:nonzero;stroke:none"
             d="m 595.824,713.43 c -21.613,-1.442 -63.992,-1.321 -86.586,2.371 -114.394,18.301 -220.726,101.211 -274.215,192.258 48.497,-29.59 83.563,-49.329 126.211,-64.098 37.985,-13.121 74.008,-17.012 137.418,-35.02 38.262,-10.82 76.145,-26.132 89.453,-31.113 42.418,-15.797 60.278,-11.918 60.278,-11.918 0,0 0,6.449 -15.844,23.731 -31.578,34.461 -43.141,42.699 -69.121,69.199 -8.531,8.75 -28.074,38.48 -37.996,58.25 -28.074,55.879 -31.192,100.66 -56.828,162.05 93.554,-54.94 139.125,-130.749 188.59,-226.312 15.211,-29.277 35.777,-63.09 54.57,-81.656 12.637,-12.481 30.441,-31.434 30.441,-31.434 0,0 -13.047,-3.058 -53.664,-9.058 C 670.309,728 631.48,715.91 595.824,713.43" /><path
             id="path104"
             style="fill:#ffffff;fill-opacity:1;fill-rule:nonzero;stroke:none"
             d="m 1049.31,706.191 c 49.39,-8.089 93.28,-20.082 138.19,-35.492 12.07,-4.16 30.44,-13.277 43.16,-19.73 31.84,-16.207 50.16,-26.719 77.52,-45.539 44.07,-30.34 91.41,-63.051 134.12,-112.66 0.91,-0.981 7.82,-8.36 3.22,-11.969 -8.37,-6.551 -29,-15.903 -35.85,-9.852 -39.08,34.77 -37.11,45.903 -84.47,88.789 -12.15,10.942 -30.49,26.293 -52.41,41.274 -21.37,14.629 -47.21,30.609 -71.22,42.457 -21.82,10.73 -55.42,13.953 -74.28,13.953 l 0.26,-0.141 c -8.58,0.328 -57.84,0.61 -69.25,-0.14 -96.808,-6.641 -92.062,-15.289 -147.878,-30.411 -45.918,-12.5 -95.168,-21.378 -144.067,-27.941 -50.082,-6.82 -94.902,-7.641 -141.851,-2.84 -63.649,6.551 -133.274,24.301 -185.242,57.781 47.515,-0.8 96.304,-9.921 143.57,-6.308 19.887,1.539 52.156,4.527 74.008,11.269 43.418,13.34 68.332,18.528 114.312,31.348 39.512,10.992 79.344,14.801 120.606,19.16 57.097,6.11 109.992,4.723 157.552,-3.008" /><path
             id="path106"
             style="fill:#ffffff;fill-opacity:1;fill-rule:nonzero;stroke:none"
             d="m 1934.51,2295.16 c 23.88,-23.8 31.03,-32.57 44.94,-58.88 8.21,-15.47 18.62,-35.33 21.59,-60.93 -49.1,18.67 -89.08,56.78 -125.27,98.87 -26.77,31.2 -47.49,72.6 -73.87,103.42 46.48,-15.58 95.5,-45.52 132.61,-82.48" /><path
             id="path108"
             style="fill:#ffffff;fill-opacity:1;fill-rule:nonzero;stroke:none"
             d="m 2074.97,2228.25 c -18.51,31.24 -44.99,65.01 -72.44,88.05 12.84,-30.74 31.56,-69.04 33.76,-90.66 6.83,-67.74 20.74,-114.39 31.91,-175.79 -30.49,21.76 -62.71,55.95 -95.06,79.81 -24.94,18.37 -50.01,30.64 -75.7,48.3 -15.31,10.55 -25.26,24.09 -37.98,36.77 15.15,-63.84 71.17,-128.27 111.28,-158.31 50.37,-37.79 68.44,-43.81 149.38,-126.15 10.27,101.67 8.45,207.33 -45.15,297.98" /><path
             id="path110"
             style="fill:#ffffff;fill-opacity:1;fill-rule:nonzero;stroke:none"
             d="m 2240.16,1890.59 c -3.81,52.8 -10.08,95.02 -22.93,146.52 -8.99,35.97 -28.34,89.51 -56.29,111.47 3.45,-13.04 5.22,-32.6 6.56,-45.79 5.52,-54.4 -4.88,-117.58 -6.17,-171.91 -0.62,-26.72 -0.39,-47.31 3.58,-72.41 4.15,-26.33 0.72,-58.62 0.72,-58.62 0,0 -14.42,16.47 -27.33,36.99 -28.09,44.7 -37.11,57.97 -59.84,82.19 -28.11,30.05 -59.6,57.88 -95.14,82.52 4.34,-16.69 22.46,-49.16 29.96,-62.21 10.05,-17.45 14.53,-33.32 38.22,-72.85 33.3,-55.55 48.15,-63.04 85.1,-122.45 8.01,-12.92 40.9,-62.06 48.85,-77.08 17.34,35.86 23.86,67.19 45.12,125.56 13.39,36.68 11.38,73.37 9.59,98.07" /><path
             id="path112"
             style="fill:#ffffff;fill-opacity:1;fill-rule:nonzero;stroke:none"
             d="m 2291.58,1615.92 c 20.08,52.08 29.27,100.4 36.12,155.23 4.16,33.55 2.19,78.26 -9.75,110.52 -3.15,-7.87 -9.53,-27.87 -10.42,-30.86 -8.94,-29.96 -12.64,-44.35 -25.06,-73.25 -9.53,-22.16 -21.24,-39.83 -33.66,-61.73 -11.33,-19.99 -20.88,-46.31 -29.12,-66.45 -26.34,-64.57 -28.29,-125.02 -38.38,-131.62 -7.29,15.54 -9.54,30.42 -10.33,37.75 -7.85,71.45 -17.27,136.39 -107.23,220.6 -8.28,-25.07 -4.08,-71.28 0.84,-96.03 10.8,-54.12 19.53,-80.11 43.32,-132.56 12.6,-27.62 29.42,-68.27 34.06,-81.73 12.01,-35.07 16.17,-53.45 23.83,-74.19 42.44,70.78 94.73,143.87 125.78,224.32" /><path
             id="path114"
             style="fill:#ffffff;fill-opacity:1;fill-rule:nonzero;stroke:none"
             d="m 2221.56,1290.31 c 30.28,42.1 41.26,63.25 60.94,108.07 16.52,37.59 21.26,51.53 30.98,93.63 5.29,22.95 8.26,43.77 4.14,57.34 -23.62,-42.87 -39.87,-90.85 -70.83,-126.41 -24.54,-28.21 -48.24,-52.23 -67.79,-76.04 -29.96,-36.58 -53.64,-71.21 -82.38,-109.3 -2.4,19.09 -3.38,38.43 0.88,69.71 5.9,42.86 2.29,78 -5.2,119.5 -9.49,52.65 -16.44,78.71 -34.7,131.98 -22.33,-43.83 -22.27,-94.54 -27.88,-141.03 -10.86,-90.2 17.43,-197.76 22.98,-242.6 1.44,-11.81 -0.6,-40.96 -1.2,-52.31 42.2,33.22 79.75,66.78 116.14,103.28 16.59,16.54 39.29,43.95 53.92,64.18" /><path
             id="path116"
             style="fill:#ffffff;fill-opacity:1;fill-rule:nonzero;stroke:none"
             d="m 2061.59,959.531 c 19.19,13.848 70.83,53.299 95.27,84.349 35.6,45.22 43.45,64.59 66.93,116.59 2.83,6.34 16.17,35.78 17.25,55.78 -76.94,-92.91 -145.83,-106.74 -219.23,-183.83 -26.93,-28.24 -54.49,-54.83 -69.06,-68.17 -11.17,-10.27 -25.04,-13.391 -25.04,-13.391 0,0 1.43,19.801 8.66,33.59 48.98,93.591 58.23,191.431 50.76,296.441 -22.28,-27.67 -29.38,-46.15 -43.55,-72.91 -15.4,-29.15 -23.29,-47.17 -30.47,-65.11 -41.94,-104.28 -52.89,-224.749 -78.76,-285.37 79.97,26.93 142.88,41.309 227.24,102.031" /><path
             id="path118"
             style="fill:#ffffff;fill-opacity:1;fill-rule:nonzero;stroke:none"
             d="m 1733.85,713.43 c 21.66,-1.442 64,-1.321 86.62,2.371 114.39,18.301 220.69,101.211 274.19,192.258 -48.55,-29.59 -83.61,-49.329 -126.22,-64.098 -38.01,-13.121 -74.01,-17.012 -137.39,-35.02 -38.3,-10.82 -76.17,-26.132 -89.49,-31.113 -42.41,-15.797 -60.27,-11.918 -60.27,-11.918 0,0 0,6.449 15.84,23.731 31.58,34.461 43.16,42.699 69.1,69.199 8.56,8.75 28.11,38.48 38.02,58.25 28.07,55.879 31.2,100.66 56.86,162.05 -93.55,-54.94 -139.22,-130.749 -188.65,-226.312 -15.17,-29.277 -35.74,-63.09 -54.51,-81.656 -12.62,-12.481 -30.47,-31.434 -30.47,-31.434 0,0 13.05,-3.058 53.7,-9.058 18.2,-2.68 57,-14.77 92.67,-17.25" /><path
             id="path120"
             style="fill:#ffffff;fill-opacity:1;fill-rule:nonzero;stroke:none"
             d="m 1280.37,706.191 c -49.38,-8.089 -93.23,-20.082 -138.18,-35.492 -12.12,-4.16 -30.46,-13.277 -43.18,-19.73 -31.83,-16.207 -50.11,-26.719 -77.51,-45.539 -44.105,-30.34 -91.371,-63.051 -134.129,-112.66 -0.918,-0.981 -7.851,-8.36 -3.223,-11.969 8.403,-6.551 29.028,-15.903 35.825,-9.852 39.097,34.77 37.105,45.903 84.517,88.789 12.1,10.942 30.44,26.293 52.39,41.274 21.42,14.629 47.19,30.609 71.22,42.457 21.79,10.73 55.45,13.953 74.28,13.953 l -0.27,-0.141 c 8.59,0.328 57.83,0.61 69.27,-0.14 96.82,-6.641 92.06,-15.289 147.85,-30.411 45.94,-12.5 95.18,-21.378 144.08,-27.941 50.06,-6.82 94.91,-7.641 141.86,-2.84 63.66,6.551 133.26,24.301 185.2,57.781 -47.48,-0.8 -96.24,-9.921 -143.55,-6.308 -19.91,1.539 -52.13,4.527 -73.99,11.269 -43.42,13.34 -68.35,18.528 -114.29,31.348 -39.53,10.992 -79.36,14.801 -120.6,19.16 -57.13,6.11 -110.01,4.723 -157.57,-3.008" /><path
             id="path122"
             style="fill:#ffffff;fill-opacity:1;fill-rule:nonzero;stroke:none"
             d="m 1103.64,2834.64 -86.95,-322.87 h -92.315 l -57.742,210.33 -56.445,-210.33 h -92.09 l -86.95,322.87 h 86.903 l 49.539,-222.26 59.578,222.26 h 83.059 l 56.519,-222.26 52.014,222.26 h 84.88" /><path
             id="path124"
             style="fill:#ffffff;fill-opacity:1;fill-rule:nonzero;stroke:none"
             d="m 1390.51,2772.2 h -148.54 v -60.08 h 137.7 v -62.44 h -137.7 v -137.91 h -82.82 v 322.87 h 231.36 v -62.44" /><path
             id="path126"
             style="fill:#ffffff;fill-opacity:1;fill-rule:nonzero;stroke:none"
             d="m 1628.38,2730.88 c 0,9.08 -2.46,16.9 -7.36,23.46 -4.93,6.57 -10.63,11.14 -17.13,13.74 -8.68,3.46 -17.13,5.37 -25.37,5.74 -8.25,0.35 -19.24,0.54 -32.97,0.54 h -14.31 v -96.5 h 23.85 c 14.17,0 25.84,0.87 35.03,2.6 9.18,1.73 16.87,5.2 23.08,10.39 5.35,4.6 9.22,10.13 11.6,16.55 2.39,6.41 3.58,14.24 3.58,23.48 z m 86.09,1.85 c 0,-14.46 -2.54,-28.59 -7.59,-42.4 -5.06,-13.81 -12.29,-25.41 -21.68,-34.79 -12.88,-12.74 -27.22,-22.34 -43.05,-28.85 -15.82,-6.51 -35.53,-9.76 -59.08,-9.76 h -51.83 v -105.16 h -83.27 v 322.87 h 137.05 c 20.53,0 37.83,-1.77 51.92,-5.31 14.1,-3.55 26.58,-8.85 37.42,-15.94 13,-8.53 22.94,-19.44 29.81,-32.75 6.87,-13.3 10.3,-29.26 10.3,-47.91" /><path
             id="path128"
             style="fill:#ffffff;fill-opacity:1;fill-rule:nonzero;stroke:none"
             d="M 499.312,257.871 441.266,70.5586 H 377.52 L 339.352,196.828 301.645,70.5586 H 237.266 L 179.723,257.871 h 62.988 l 32.152,-129.082 39.965,129.082 h 53.207 l 38,-129.082 31.633,129.082 h 61.644" /><path
             id="path130"
             style="fill:#ffffff;fill-opacity:1;fill-rule:nonzero;stroke:none"
             d="m 649.77,286.07 h -4.493 c -2.66,0.782 -6.121,1.66 -10.394,2.66 -4.27,0.989 -8.844,1.5 -13.727,1.5 -11.754,0 -19.707,-2.109 -23.867,-6.332 -4.152,-4.238 -6.23,-12.398 -6.23,-24.527 v -1.5 h 46.199 V 217.18 H 593.059 V 70.5586 H 532.836 V 217.18 h -25.684 v 40.691 h 25.684 v 5.168 c 0,22.91 6.094,40.082 18.273,51.551 12.176,11.461 30.606,17.18 55.293,17.18 8.895,0 16.957,-0.309 24.184,-0.911 7.226,-0.609 13.625,-1.429 19.184,-2.429 v -42.36" /><path
             id="path132"
             style="fill:#ffffff;fill-opacity:1;fill-rule:nonzero;stroke:none"
             d="m 789.148,165.539 c 0,18.211 -3.101,31.43 -9.312,39.652 -6.215,8.2 -16.035,12.329 -29.465,12.329 -5.652,0 -11.484,-0.879 -17.473,-2.598 -5.988,-1.703 -11.703,-4.184 -17.14,-7.402 v -94.09 c 3.988,-1.559 8.265,-2.551 12.816,-3 4.547,-0.45 9.039,-0.668 13.477,-0.668 15.871,0 27.683,4.629 35.449,13.91 7.766,9.258 11.648,23.219 11.648,41.867 z m 61.875,1.27 c 0,-15.469 -2.363,-29.528 -7.07,-42.2 -4.723,-12.679 -10.918,-23.129 -18.57,-31.3473 -8,-8.6719 -17.055,-15.2617 -27.16,-19.6914 -10.11,-4.4492 -20.938,-6.6797 -32.493,-6.6797 -10.664,0 -19.714,1.1485 -27.152,3.418 -7.441,2.2812 -15.047,5.4922 -22.82,9.5898 V 1.82812 H 655.543 V 257.871 h 60.215 v -19.512 c 9.215,7.34 18.629,13.282 28.234,17.852 9.613,4.57 20.688,6.828 33.242,6.828 23.325,0 41.45,-8.551 54.387,-25.68 12.941,-17.129 19.402,-40.64 19.402,-70.55" /><path
             id="path134"
             style="fill:#ffffff;fill-opacity:1;fill-rule:nonzero;stroke:none"
             d="m 879.48,70.5586 h 62.3945 v 65.5508 H 879.48 Z" /><path
             id="path136"
             style="fill:#ffffff;fill-opacity:1;fill-rule:nonzero;stroke:none"
             d="m 1101.28,118.609 c 3.89,4.77 6.8,10.532 8.75,17.25 1.93,6.731 2.91,16.051 2.91,27.95 0,10.992 -1,20.23 -2.99,27.671 -2.01,7.461 -4.78,13.399 -8.34,17.848 -3.57,4.57 -7.85,7.801 -12.85,9.692 -5,1.871 -10.4,2.832 -16.18,2.832 -5.78,0 -10.93,-0.782 -15.43,-2.34 -4.5,-1.543 -8.82,-4.672 -12.92,-9.34 -3.67,-4.332 -6.59,-10.274 -8.77,-17.852 -2.17,-7.558 -3.24,-17.07 -3.24,-28.511 0,-10.239 0.93,-19.11 2.83,-26.61 1.89,-7.519 4.67,-13.527 8.34,-18.097 3.55,-4.34 7.81,-7.5 12.76,-9.512 4.94,-2 10.59,-2.988 16.93,-2.988 5.45,0 10.65,0.898 15.6,2.75 4.94,1.82 9.14,4.898 12.6,9.257 z m 73.88,45.532 c 0,-30.801 -8.99,-55.082 -26.94,-72.8207 -17.97,-17.7305 -43.17,-26.6015 -75.64,-26.6015 -32.47,0 -57.69,8.871 -75.646,26.6015 -17.957,17.7387 -26.946,42.0197 -26.946,72.8207 0,31.007 9.043,55.371 27.114,73.039 18.068,17.699 43.218,26.55 75.478,26.55 32.7,0 57.96,-8.91 75.8,-26.699 17.85,-17.801 26.78,-42.09 26.78,-72.89" /><path
             id="path138"
             style="fill:#ffffff;fill-opacity:1;fill-rule:nonzero;stroke:none"
             d="m 1336.89,200.66 h -5.33 c -2.56,0.899 -6.66,1.559 -12.32,2.012 -5.66,0.43 -10.37,0.668 -14.14,0.668 -8.55,0 -16.09,-0.57 -22.64,-1.68 -6.54,-1.121 -13.59,-2.988 -21.13,-5.672 V 70.5586 h -60.22 V 257.871 h 60.22 v -27.519 c 13.2,11.347 24.69,18.878 34.44,22.617 9.77,3.711 18.76,5.582 26.96,5.582 2.11,0 4.5,-0.063 7.17,-0.172 2.66,-0.117 4.99,-0.277 6.99,-0.508 V 200.66" /><path
             id="path140"
             style="fill:#ffffff;fill-opacity:1;fill-rule:nonzero;stroke:none"
             d="m 1475.76,129.609 v 84.903 c -3.44,1.437 -7.65,2.578 -12.65,3.418 -4.99,0.84 -9.49,1.25 -13.48,1.25 -15.76,0 -27.58,-4.539 -35.45,-13.602 -7.87,-9.058 -11.82,-21.699 -11.82,-37.949 0,-18 3.36,-30.559 10.08,-37.688 6.7,-7.113 16.66,-10.691 29.86,-10.691 6,0 11.88,0.961 17.64,2.859 5.77,1.871 11.06,4.371 15.82,7.5 z m 60.22,-37.5387 c 0,-17.5586 -2.5,-32.3515 -7.51,-44.3594 -5.01,-12.0117 -12.01,-21.4023 -21.03,-28.1797 -9,-6.9218 -19.86,-11.88276 -32.6,-14.94136 C 1462.11,1.53906 1447.73,0 1431.72,0 1418.71,0 1405.9,0.78125 1393.28,2.33984 1380.65,3.89844 1369.73,5.80078 1360.5,8 v 46.8789 h 7.33 c 7.33,-2.8906 16.26,-5.5273 26.82,-7.9101 10.55,-2.3985 19.98,-3.5899 28.31,-3.5899 11.1,0 20.13,1.0313 27.07,3.082 6.94,2.0508 12.24,4.9805 15.9,8.75 3.45,3.5782 5.95,8.1289 7.49,13.668 1.56,5.5703 2.34,12.25 2.34,20.0195 v 3.5235 c -7.22,-5.9024 -15.21,-10.5703 -23.99,-14.0117 -8.77,-3.4493 -18.55,-5.1719 -29.32,-5.1719 -26.22,0 -46.43,7.8906 -60.64,23.6914 -14.22,15.7813 -21.32,39.7893 -21.32,72.0503 0,15.45 2.17,28.79 6.49,40.02 4.33,11.23 10.44,21.02 18.32,29.359 7.34,7.789 16.36,13.84 27.07,18.18 10.72,4.34 21.69,6.5 32.91,6.5 10.11,0 19.3,-1.187 27.57,-3.57 8.27,-2.399 15.8,-5.699 22.58,-9.938 l 2.17,8.34 h 58.38 V 92.0703" /><path
             id="path142"
             style="fill:#ffffff;fill-opacity:1;fill-rule:nonzero;stroke:none"
             d="M 1751.25,330.109 1618.96,16.5195 h -51.19 l 131.74,313.5895 h 51.74" /><path
             id="path144"
             style="fill:#ffffff;fill-opacity:1;fill-rule:nonzero;stroke:none"
             d="m 1905.52,121.91 v 91.68 c -4.2,1.781 -8.62,3.07 -13.26,3.832 -4.64,0.777 -8.89,1.168 -12.77,1.168 -15.69,0 -27.46,-4.899 -35.3,-14.731 -7.85,-9.82 -11.78,-23.429 -11.78,-40.859 0,-18.301 3.16,-31.578 9.46,-39.84 6.28,-8.262 16.4,-12.398 30.33,-12.398 5.41,0 11.16,1.027 17.24,3.078 6.08,2.051 11.44,4.75 16.08,8.07 z m 59.98,-51.3514 h -59.98 V 90 c -10.3,-8.4219 -19.91,-14.6289 -28.87,-18.6211 -8.96,-3.9805 -19.32,-5.9687 -31.03,-5.9687 -22.68,0 -40.83,8.75 -54.44,26.25 -13.6,17.4998 -20.41,41.0898 -20.41,70.7808 0,15.84 2.31,29.879 6.9,42.11 4.59,12.238 10.86,22.73 18.82,31.48 7.52,8.297 16.65,14.77 27.39,19.36 10.73,4.589 21.46,6.89 32.18,6.89 11.18,0 20.34,-1.191 27.47,-3.57 7.13,-2.391 14.47,-5.391 21.99,-9.051 v 79.418 h 59.98 V 70.5586" /><path
             id="path146"
             style="fill:#ffffff;fill-opacity:1;fill-rule:nonzero;stroke:none"
             d="m 2111.14,119.371 v 38.75 c -8.08,-0.66 -16.83,-1.582 -26.25,-2.73 -9.41,-1.172 -16.56,-2.52 -21.42,-4.071 -5.99,-1.871 -10.56,-4.601 -13.71,-8.199 -3.17,-3.57 -4.74,-8.301 -4.74,-14.16 0,-3.871 0.33,-7.012 1,-9.43 0.66,-2.441 2.32,-4.75 4.99,-6.961 2.53,-2.199 5.58,-3.84 9.13,-4.879 3.54,-1.05 9.08,-1.582 16.61,-1.582 5.98,0 12.05,1.211 18.19,3.653 6.14,2.418 11.55,5.629 16.2,9.609 z m 0,-29.0429 c -3.21,-2.4375 -7.2,-5.3672 -11.96,-8.8086 -4.77,-3.4414 -9.25,-6.1484 -13.46,-8.1406 -5.87,-2.6601 -11.96,-4.6094 -18.27,-5.8984 -6.32,-1.2696 -13.24,-1.9024 -20.77,-1.9024 -17.72,0 -32.57,5.4727 -44.52,16.4531 -11.97,10.9493 -17.95,24.9568 -17.95,42.0278 0,13.613 3.05,24.75 9.14,33.402 6.09,8.629 14.73,15.449 25.92,20.43 11.07,4.98 24.8,8.531 41.2,10.621 16.4,2.109 33.39,3.648 51,4.668 v 1 c 0,10.289 -4.2,17.398 -12.62,21.34 -8.42,3.929 -20.83,5.902 -37.22,5.902 -9.86,0 -20.38,-1.762 -31.56,-5.231 -11.19,-3.5 -19.22,-6.191 -24.09,-8.07 h -5.48 v 45.02 c 6.31,1.66 16.58,3.629 30.82,5.898 14.22,2.27 28.48,3.422 42.77,3.422 34.01,0 58.57,-5.242 73.69,-15.711 15.12,-10.461 22.68,-26.891 22.68,-49.25 V 70.5586 h -59.32 v 19.7695" /></g></g></g></g></svg>