<?xml version="1.0" encoding="UTF-8" standalone="no"?>
<svg
   xmlns:dc="http://purl.org/dc/elements/1.1/"
   xmlns:cc="http://creativecommons.org/ns#"
   xmlns:rdf="http://www.w3.org/1999/02/22-rdf-syntax-ns#"
   xmlns:svg="http://www.w3.org/2000/svg"
   xmlns="http://www.w3.org/2000/svg"
   viewBox="0 0 857.89331 377.94666"
   height="377.94666"
   width="857.89331"
   xml:space="preserve"
   id="svg2"
   version="1.1"><metadata
     id="metadata8"><rdf:RDF><cc:Work
         rdf:about=""><dc:format>image/svg+xml</dc:format><dc:type
           rdf:resource="http://purl.org/dc/dcmitype/StillImage" /></cc:Work></rdf:RDF></metadata><defs
     id="defs6"><clipPath
       id="clipPath20"
       clipPathUnits="userSpaceOnUse"><path
         id="path18"
         d="M 0,0 H 6434 V 2834.64 H 0 Z" /></clipPath></defs><g
     transform="matrix(1.3333333,0,0,-1.3333333,0,377.94667)"
     id="g10"><g
       transform="scale(0.1)"
       id="g12"><g
         id="g14"><g
           clip-path="url(#clipPath20)"
           id="g16"><path
             id="path22"
             style="fill:#ffffff;fill-opacity:1;fill-rule:nonzero;stroke:none"
             d="m 3192.58,1619.8 -120.4,-447.05 h -127.81 l -79.96,291.23 -78.16,-291.23 h -127.5 l -120.39,447.05 h 120.33 l 68.59,-307.74 82.49,307.74 h 115 l 78.27,-307.74 72,307.74 h 117.54" /><path
             id="path24"
             style="fill:#ffffff;fill-opacity:1;fill-rule:nonzero;stroke:none"
             d="m 3456.67,1259.22 c 7,8.6 12.26,18.96 15.75,31.08 3.51,12.11 5.26,28.86 5.26,50.28 0,19.82 -1.8,36.43 -5.41,49.85 -3.6,13.4 -8.6,24.11 -15.01,32.12 -6.4,8.19 -14.11,14 -23.13,17.42 -8.99,3.39 -18.71,5.09 -29.1,5.09 -10.42,0 -19.67,-1.4 -27.79,-4.19 -8.1,-2.81 -15.86,-8.42 -23.25,-16.83 -6.62,-7.8 -11.87,-18.52 -15.78,-32.12 -3.9,-13.61 -5.86,-30.72 -5.86,-51.34 0,-18.42 1.71,-34.37 5.12,-47.88 3.39,-13.51 8.4,-24.37 15.02,-32.58 6.4,-7.81 14.04,-13.51 22.96,-17.12 8.91,-3.59 19.07,-5.4 30.48,-5.4 9.8,0 19.16,1.64 28.07,4.96 8.89,3.3 16.45,8.85 22.67,16.66 z m 133,81.97 c 0,-55.45 -16.16,-99.13 -48.48,-131.06 -32.34,-31.93 -77.72,-47.89 -136.16,-47.89 -58.45,0 -103.85,15.96 -136.17,47.89 -32.32,31.93 -48.49,75.61 -48.49,131.06 0,55.85 16.26,99.68 48.78,131.49 32.55,31.83 77.81,47.74 135.88,47.74 58.85,0 104.34,-16.01 136.45,-48.04 32.11,-32.02 48.19,-75.74 48.19,-131.19" /><path
             id="path26"
             style="fill:#ffffff;fill-opacity:1;fill-rule:nonzero;stroke:none"
             d="m 3911.52,1406.93 h -9.58 c -4.6,1.59 -11.98,2.8 -22.16,3.6 -10.2,0.8 -18.69,1.2 -25.48,1.2 -15.37,0 -28.96,-1 -40.74,-3.01 -11.78,-2 -24.46,-5.39 -38.04,-10.2 v -225.77 h -108.4 v 337.17 h 108.4 v -49.55 c 23.77,20.42 44.44,33.98 62.01,40.69 17.58,6.7 33.76,10.05 48.52,10.05 3.79,0 8.11,-0.1 12.89,-0.3 4.8,-0.2 9,-0.5 12.58,-0.89 v -102.99" /><path
             id="path28"
             style="fill:#ffffff;fill-opacity:1;fill-rule:nonzero;stroke:none"
             d="m 3972.77,1172.75 h 108.379 v 467.172 H 3972.77 Z" /><path
             id="path30"
             style="fill:#ffffff;fill-opacity:1;fill-rule:nonzero;stroke:none"
             d="m 4402.43,1265.55 v 165.69 c -7.61,3.2 -15.57,5.51 -23.96,6.91 -8.4,1.41 -16.08,2.11 -23.08,2.11 -28.37,0 -49.62,-8.87 -63.81,-26.62 -14.18,-17.73 -21.27,-42.33 -21.27,-73.81 0,-33.09 5.7,-57.09 17.08,-72.02 11.38,-14.94 29.64,-22.4 54.83,-22.4 9.78,0 20.15,1.85 31.15,5.56 10.98,3.7 20.67,8.57 29.06,14.58 z m 108.38,-92.8 h -108.38 v 35.13 c -18.6,-15.22 -35.99,-26.42 -52.18,-33.63 -16.21,-7.2 -34.9,-10.81 -56.08,-10.81 -40.99,0 -73.78,15.8 -98.35,47.45 -24.6,31.62 -36.89,74.24 -36.89,127.9 0,28.61 4.15,53.98 12.45,76.09 8.28,22.12 19.64,41.09 34.02,56.9 13.6,15.01 30.1,26.67 49.49,34.98 19.39,8.3 38.78,12.46 58.18,12.46 20.17,0 36.73,-2.15 49.62,-6.46 12.88,-4.3 26.14,-9.75 39.74,-16.36 v 143.52 h 108.38 v -467.17" /><path
             id="path32"
             style="fill:#ffffff;fill-opacity:1;fill-rule:nonzero;stroke:none"
             d="m 5164.79,1533.33 h -205.65 v -83.16 h 190.65 v -86.47 h -190.65 v -190.95 h -114.69 v 447.05 h 320.34 v -86.47" /><path
             id="path34"
             style="fill:#ffffff;fill-opacity:1;fill-rule:nonzero;stroke:none"
             d="m 5450.02,1259.22 c 7,8.6 12.26,18.96 15.78,31.08 3.48,12.11 5.25,28.86 5.25,50.28 0,19.82 -1.81,36.43 -5.41,49.85 -3.61,13.4 -8.62,24.11 -15.01,32.12 -6.42,8.19 -14.12,14 -23.12,17.42 -8.99,3.39 -18.71,5.09 -29.13,5.09 -10.41,0 -19.66,-1.4 -27.76,-4.19 -8.1,-2.81 -15.87,-8.42 -23.28,-16.83 -6.6,-7.8 -11.84,-18.52 -15.75,-32.12 -3.9,-13.61 -5.86,-30.72 -5.86,-51.34 0,-18.42 1.71,-34.37 5.1,-47.88 3.41,-13.51 8.41,-24.37 15.01,-32.58 6.4,-7.81 14.07,-13.51 22.99,-17.12 8.88,-3.59 19.05,-5.4 30.45,-5.4 9.8,0 19.17,1.64 28.07,4.96 8.92,3.3 16.48,8.85 22.67,16.66 z m 133.03,81.97 c 0,-55.45 -16.18,-99.13 -48.51,-131.06 -32.31,-31.93 -77.71,-47.89 -136.16,-47.89 -58.44,0 -103.82,15.96 -136.16,47.89 -32.32,31.93 -48.48,75.61 -48.48,131.06 0,55.85 16.25,99.68 48.79,131.49 32.52,31.83 77.81,47.74 135.85,47.74 58.85,0 104.33,-16.01 136.45,-48.04 32.14,-32.02 48.22,-75.74 48.22,-131.19" /><path
             id="path36"
             style="fill:#ffffff;fill-opacity:1;fill-rule:nonzero;stroke:none"
             d="m 5872.16,1259.22 c 7,8.6 12.25,18.96 15.78,31.08 3.48,12.11 5.25,28.86 5.25,50.28 0,19.82 -1.82,36.43 -5.41,49.85 -3.61,13.4 -8.62,24.11 -15.02,32.12 -6.41,8.19 -14.11,14 -23.11,17.42 -9,3.39 -18.71,5.09 -29.13,5.09 -10.41,0 -19.66,-1.4 -27.77,-4.19 -8.09,-2.81 -15.87,-8.42 -23.27,-16.83 -6.6,-7.8 -11.84,-18.52 -15.75,-32.12 -3.91,-13.61 -5.86,-30.72 -5.86,-51.34 0,-18.42 1.7,-34.37 5.1,-47.88 3.41,-13.51 8.41,-24.37 15.01,-32.58 6.4,-7.81 14.07,-13.51 22.98,-17.12 8.88,-3.59 19.06,-5.4 30.46,-5.4 9.8,0 19.17,1.64 28.07,4.96 8.91,3.3 16.48,8.85 22.67,16.66 z m 133.03,81.97 c 0,-55.45 -16.19,-99.13 -48.51,-131.06 -32.31,-31.93 -77.72,-47.89 -136.16,-47.89 -58.44,0 -103.82,15.96 -136.16,47.89 -32.33,31.93 -48.48,75.61 -48.48,131.06 0,55.85 16.25,99.68 48.79,131.49 32.52,31.83 77.81,47.74 135.85,47.74 58.85,0 104.34,-16.01 136.45,-48.04 32.14,-32.02 48.22,-75.74 48.22,-131.19" /><path
             id="path38"
             style="fill:#ffffff;fill-opacity:1;fill-rule:nonzero;stroke:none"
             d="m 6302.11,1265.55 v 165.69 c -7.59,3.2 -15.58,5.51 -23.97,6.91 -8.37,1.41 -16.07,2.11 -23.05,2.11 -28.37,0 -49.64,-8.87 -63.83,-26.62 -14.16,-17.73 -21.25,-42.33 -21.25,-73.81 0,-33.09 5.67,-57.09 17.08,-72.02 11.38,-14.94 29.65,-22.4 54.8,-22.4 9.79,0 20.18,1.85 31.16,5.56 10.99,3.7 20.66,8.57 29.06,14.58 z m 108.38,-92.8 h -108.38 v 35.13 c -18.6,-15.22 -35.98,-26.42 -52.18,-33.63 -16.21,-7.2 -34.88,-10.81 -56.06,-10.81 -41.01,0 -73.77,15.8 -98.37,47.45 -24.6,31.62 -36.88,74.24 -36.88,127.9 0,28.61 4.15,53.98 12.43,76.09 8.31,22.12 19.64,41.09 34.05,56.9 13.58,15.01 30.08,26.67 49.47,34.98 19.39,8.3 38.78,12.46 58.16,12.46 20.21,0 36.75,-2.15 49.65,-6.46 12.88,-4.3 26.13,-9.75 39.73,-16.36 v 143.52 h 108.38 v -467.17" /><path
             id="path40"
             style="fill:#ffffff;fill-opacity:1;fill-rule:nonzero;stroke:none"
             d="m 2825.39,895.398 c 0,12.571 -3.41,23.411 -10.21,32.493 -6.81,9.089 -14.71,15.429 -23.72,19.031 -12.01,4.797 -23.72,7.437 -35.13,7.937 -11.41,0.493 -26.62,0.75 -45.64,0.75 h -19.81 V 822.012 h 33.02 c 19.62,0 35.78,1.179 48.49,3.578 12.71,2.39 23.37,7.199 31.98,14.379 7.4,6.39 12.76,14.043 16.06,22.922 3.31,8.879 4.96,19.718 4.96,32.507 z m 119.19,2.571 c 0,-20.02 -3.51,-39.59 -10.51,-58.707 -7,-19.121 -17.01,-35.184 -30.02,-48.184 -17.82,-17.617 -37.68,-30.93 -59.6,-39.937 -21.92,-9 -49.2,-13.52 -81.81,-13.52 h -71.76 V 592.02 h -115.29 v 447.06 h 189.75 c 28.42,0 52.38,-2.46 71.91,-7.36 19.51,-4.91 36.78,-12.27 51.78,-22.07 18.02,-11.81 31.78,-26.92 41.29,-45.341 9.5,-18.418 14.26,-40.52 14.26,-66.34" /><path
             id="path42"
             style="fill:#ffffff;fill-opacity:1;fill-rule:nonzero;stroke:none"
             d="m 3252.95,826.199 h -9.58 c -4.58,1.61 -11.99,2.813 -22.17,3.602 -10.19,0.801 -18.68,1.199 -25.46,1.199 -15.38,0 -28.96,-0.988 -40.74,-3 -11.79,-2 -24.47,-5.41 -38.05,-10.199 V 592.02 h -108.39 v 337.171 h 108.39 v -49.55 c 23.77,20.418 44.44,33.98 62.01,40.687 17.57,6.703 33.75,10.063 48.54,10.063 3.79,0 8.08,-0.11 12.88,-0.301 4.79,-0.199 8.98,-0.5 12.57,-0.899 V 826.199" /><path
             id="path44"
             style="fill:#ffffff;fill-opacity:1;fill-rule:nonzero;stroke:none"
             d="m 3514.19,678.488 c 7,8.602 12.26,18.953 15.78,31.082 3.48,12.102 5.25,28.852 5.25,50.282 0,19.808 -1.82,36.429 -5.41,49.839 -3.61,13.399 -8.62,24.118 -15.02,32.118 -6.41,8.222 -14.11,14.019 -23.11,17.41 -9,3.402 -18.72,5.109 -29.13,5.109 -10.41,0 -19.66,-1.398 -27.76,-4.199 -8.11,-2.801 -15.87,-8.41 -23.28,-16.809 -6.6,-7.808 -11.85,-18.519 -15.75,-32.129 -3.9,-13.621 -5.86,-30.722 -5.86,-51.339 0,-18.422 1.7,-34.383 5.09,-47.891 3.42,-13.512 8.42,-24.371 15.02,-32.57 6.4,-7.813 14.07,-13.512 22.98,-17.121 8.89,-3.598 19.05,-5.411 30.46,-5.411 9.8,0 19.17,1.653 28.07,4.961 8.91,3.301 16.48,8.86 22.67,16.668 z m 133.03,81.973 c 0,-55.449 -16.18,-99.141 -48.51,-131.07 -32.31,-31.922 -77.72,-47.879 -136.16,-47.879 -58.45,0 -103.83,15.957 -136.16,47.879 -32.33,31.929 -48.48,75.621 -48.48,131.07 0,55.84 16.25,99.668 48.79,131.5 32.52,31.828 77.81,47.73 135.85,47.73 58.85,0 104.33,-16.019 136.45,-48.031 32.14,-32.031 48.22,-75.769 48.22,-131.199" /><path
             id="path46"
             style="fill:#ffffff;fill-opacity:1;fill-rule:nonzero;stroke:none"
             d="m 3932.47,698.301 v 152.82 c -6.2,2.598 -13.81,4.66 -22.78,6.149 -8.98,1.511 -17.08,2.261 -24.26,2.261 -28.37,0 -49.63,-8.16 -63.81,-24.472 -14.19,-16.321 -21.28,-39.079 -21.28,-68.297 0,-32.434 6.04,-55.051 18.14,-67.864 12.08,-12.808 30.01,-19.207 53.78,-19.207 10.77,0 21.36,1.688 31.72,5.09 10.4,3.399 19.9,7.91 28.49,13.52 z m 108.38,-67.563 c 0,-31.617 -4.51,-58.238 -13.52,-79.847 -8.99,-21.629 -21.61,-38.539 -37.84,-50.75 -16.2,-12.411 -35.77,-21.36 -58.68,-26.871 -22.92,-5.5 -48.8,-8.258 -77.62,-8.258 -23.42,0 -46.49,1.398 -69.21,4.207 -22.71,2.801 -42.37,6.211 -58.98,10.211 v 84.371 h 13.17 c 13.21,-5.223 29.29,-9.973 48.29,-14.27 18.98,-4.301 35.97,-6.461 50.96,-6.461 19.97,0 36.22,1.86 48.72,5.559 12.48,3.699 22.02,8.949 28.62,15.769 6.2,6.411 10.71,14.614 13.49,24.614 2.8,10.008 4.22,22.008 4.22,36.027 v 6.301 c -13,-10.61 -27.4,-19.012 -43.2,-25.211 -15.78,-6.207 -33.38,-9.309 -52.77,-9.309 -47.17,0 -83.56,14.2 -109.17,42.629 -25.58,28.43 -38.37,71.66 -38.37,129.711 0,27.82 3.9,51.828 11.69,72.059 7.81,20.199 18.78,37.82 32.99,52.84 13.2,14 29.45,24.921 48.72,32.722 19.31,7.809 39.04,11.707 59.23,11.707 18.2,0 34.75,-2.148 49.63,-6.457 14.9,-4.301 28.43,-10.261 40.65,-17.859 l 3.9,15.019 h 105.08 V 630.738" /><path
             id="path48"
             style="fill:#ffffff;fill-opacity:1;fill-rule:nonzero;stroke:none"
             d="m 4375.63,826.199 h -9.58 c -4.58,1.61 -11.99,2.813 -22.17,3.602 -10.19,0.801 -18.67,1.199 -25.45,1.199 -15.37,0 -28.96,-0.988 -40.73,-3 -11.81,-2 -24.5,-5.41 -38.07,-10.199 V 592.02 h -108.38 v 337.171 h 108.38 v -49.55 c 23.77,20.418 44.43,33.98 62.01,40.687 17.57,6.703 33.75,10.063 48.55,10.063 3.78,0 8.07,-0.11 12.88,-0.301 4.78,-0.199 8.97,-0.5 12.56,-0.899 V 826.199" /><path
             id="path50"
             style="fill:#ffffff;fill-opacity:1;fill-rule:nonzero;stroke:none"
             d="m 4629.36,680.199 v 70.039 c -14.61,-1.199 -30.41,-2.847 -47.43,-4.937 -17.03,-2.09 -29.94,-4.531 -38.74,-7.332 -10.81,-3.391 -19.07,-8.328 -24.77,-14.821 -5.71,-6.476 -8.55,-15.007 -8.55,-25.589 0,-6.981 0.61,-12.661 1.79,-17.047 1.22,-4.403 4.23,-8.59 9.02,-12.571 4.6,-4 10.11,-6.941 16.51,-8.832 6.41,-1.898 16.42,-2.839 30.03,-2.839 10.81,0 21.76,2.191 32.87,6.582 11.11,4.378 20.88,10.168 29.27,17.347 z m 0,-52.461 c -5.8,-4.398 -13.02,-9.707 -21.62,-15.91 -8.59,-6.199 -16.71,-11.109 -24.32,-14.699 -10.6,-4.809 -21.61,-8.367 -33.02,-10.668 C 4539,584.16 4526.47,583 4512.88,583 c -32.03,0 -58.85,9.922 -80.46,29.73 -21.64,19.821 -32.43,45.141 -32.43,75.961 0,24.618 5.5,44.739 16.51,60.348 11,15.602 26.63,27.922 46.82,36.93 20.02,9.011 44.84,15.402 74.47,19.211 29.62,3.808 60.34,6.609 92.17,8.41 v 1.808 c 0,18.614 -7.61,31.473 -22.82,38.571 -15.22,7.109 -37.62,10.672 -67.24,10.672 -17.82,0 -36.83,-3.161 -57.05,-9.473 -20.22,-6.309 -34.72,-11.148 -43.54,-14.559 h -9.9 v 81.371 c 11.4,3.008 29.97,6.551 55.68,10.661 25.72,4.089 51.51,6.148 77.32,6.148 61.45,0 105.84,-9.449 133.16,-28.367 27.31,-18.922 40.97,-48.594 40.97,-89.031 V 592.02 h -107.18 v 35.718" /><path
             id="path52"
             style="fill:#ffffff;fill-opacity:1;fill-rule:nonzero;stroke:none"
             d="M 5153.61,831 V 592.02 h -108.4 v 168.441 c 0,16.398 -0.41,30.359 -1.19,41.867 -0.81,11.512 -3,20.871 -6.6,28.082 -3.61,7.199 -9.06,12.461 -16.36,15.762 -7.31,3.308 -17.57,4.949 -30.79,4.949 -10.61,0 -20.91,-2.152 -30.92,-6.449 -10.01,-4.313 -19.02,-8.863 -27.03,-13.672 V 592.02 h -108.37 v 337.171 h 108.37 v -37.23 c 18.61,14.598 36.4,26.008 53.39,34.23 17,8.2 35.77,12.297 56.38,12.297 22.18,0 41.77,-4.957 58.76,-14.859 16.99,-9.91 30.3,-24.457 39.88,-43.688 21.59,18.207 42.57,32.539 62.95,42.938 20.4,10.41 40.38,15.609 59.97,15.609 36.39,0 64.02,-10.918 82.91,-32.726 18.87,-21.813 28.32,-53.242 28.32,-94.274 V 592.02 H 5266.5 v 168.441 c 0,16.598 -0.36,30.617 -1.05,42.027 -0.69,11.403 -2.85,20.711 -6.47,27.922 -3.38,7.199 -8.79,12.461 -16.2,15.762 -7.41,3.308 -17.82,4.949 -31.22,4.949 -9.02,0 -17.82,-1.543 -26.43,-4.652 -8.61,-3.11 -19.1,-8.258 -31.52,-15.469" /><path
             id="path54"
             style="fill:#ffffff;fill-opacity:1;fill-rule:nonzero;stroke:none"
             d="M 5792.56,831 V 592.02 h -108.41 v 168.441 c 0,16.398 -0.4,30.359 -1.19,41.867 -0.8,11.512 -3,20.871 -6.59,28.082 -3.62,7.199 -9.08,12.461 -16.37,15.762 -7.31,3.308 -17.57,4.949 -30.79,4.949 -10.62,0 -20.92,-2.152 -30.93,-6.449 -10.01,-4.313 -19,-8.863 -27.02,-13.672 V 592.02 h -108.38 v 337.171 h 108.38 v -37.23 c 18.6,14.598 36.41,26.008 53.4,34.23 16.98,8.2 35.77,12.297 56.38,12.297 22.16,0 41.76,-4.957 58.75,-14.859 16.99,-9.91 30.3,-24.457 39.88,-43.688 21.59,18.207 42.58,32.539 62.96,42.938 20.4,10.41 40.37,15.609 59.97,15.609 36.37,0 64,-10.918 82.9,-32.726 18.88,-21.813 28.33,-53.242 28.33,-94.274 V 592.02 h -108.38 v 168.441 c 0,16.598 -0.36,30.617 -1.06,42.027 -0.7,11.403 -2.85,20.711 -6.46,27.922 -3.39,7.199 -8.8,12.461 -16.21,15.762 -7.4,3.308 -17.81,4.949 -31.21,4.949 -9.03,0 -17.82,-1.543 -26.45,-4.652 -8.59,-3.11 -19.1,-8.258 -31.5,-15.469" /><path
             id="path56"
             style="fill:#ffffff;fill-opacity:1;fill-rule:nonzero;stroke:none"
             d="m 6326.71,803.98 c -0.61,22.629 -6.22,39.641 -16.81,51.051 -10.62,11.399 -27.14,17.11 -49.56,17.11 -20.8,0 -37.93,-5.411 -51.33,-16.219 -13.41,-10.801 -20.91,-28.113 -22.51,-51.942 z m 107.48,-63.351 H 6186.8 c 1.59,-26.418 11.65,-46.629 30.16,-60.649 18.52,-14.011 45.8,-21.019 81.83,-21.019 22.82,0 44.93,4.109 66.34,12.32 21.43,8.207 38.34,17.008 50.75,26.418 h 12 V 610.93 c -24.41,-9.809 -47.42,-16.918 -69.05,-21.309 -21.62,-4.41 -45.55,-6.621 -71.76,-6.621 -67.65,0 -119.49,15.219 -155.53,45.641 -36.02,30.429 -54.04,73.757 -54.04,130.007 0,55.641 17.07,99.731 51.19,132.25 34.13,32.524 80.93,48.793 140.36,48.793 54.86,0 96.08,-13.863 123.7,-41.582 27.64,-27.73 41.44,-67.597 41.44,-119.648 v -37.832" /><path
             id="path58"
             style="fill:#ffffff;fill-opacity:1;fill-rule:nonzero;stroke:none"
             d="m 1340.5,2131.15 c 12.51,27.07 24.09,48.62 40.79,74.3 7.37,11.32 15.69,19.22 23.11,30.67 -3.54,1.02 -8.73,-1.91 -10.96,-3.5 -7.42,-5.38 -10.77,-14.12 -16.71,-18.8 -14.03,-11.07 -13.64,-21.11 -21,-26.27 -6.57,-4.64 -8.45,-7.69 -13.05,-14.91 -3.08,-4.82 -5.35,-8.73 -8.6,-18.23 -1.15,-3.42 -3.45,-0.39 -8.92,-7.93 -7.19,-9.8 -10.41,-20.39 -13.39,-32.26 -0.96,-3.9 -7.59,-5.97 -11.86,-14.07 -5.71,-10.92 -9.43,-21.03 -11.9,-36.95 -0.62,-3.69 -6.86,-6.25 -11.16,-16.53 -3.05,-7.23 -5.24,-8.83 -7.9,-22.46 -1.65,-8.3 -5.43,-9.5 -9.7,-21.56 -3.3,-9.2 -3.43,-18.06 -4.58,-30.08 -0.27,-2.33 -4.2,-6.95 -7.83,-13.69 -6.1,-11.26 -5.9,-18.78 -8.32,-30.41 -0.93,-4.2 -5.65,-9.77 -10.18,-27.79 -3.98,-15.98 -0.33,-26.58 -1.68,-34.45 -3.53,-20.45 -7.03,-38.21 -5.14,-58.35 0.94,-9.85 2.44,-20.01 1.78,-29.48 -1.87,-29.7 -3.48,-54.17 -3.32,-87.83 0.11,-18.32 1.54,-43.41 4.32,-64.29 3.04,-23.06 7.44,-41.07 7.44,-41.07 h 75.14 c 0,0 -2.94,43.45 0.95,89.19 2.31,27.42 8.83,56.48 14.76,76.89 7.51,26.03 12.18,39.51 26.37,73.85 0.3,0.76 -0.1,3.98 -3.85,0.83 -7.84,-6.58 -14.39,-12.37 -20.58,-21.69 -9.45,-14.25 -15.21,-25.99 -22.87,-40.63 -8.95,-17.02 -13.89,-31.84 -23.11,-52.52 -0.54,14.92 1.88,29.12 4.91,42.87 3.1,14.04 5.56,25.16 9.98,37.26 7.83,21.35 15.43,39.16 27.99,59.03 7.27,11.47 16.57,21.77 26.01,30.32 11.29,10.32 21.73,19.4 33.55,29.5 -12.42,6.4 -28.96,-6.97 -32.27,-7.65 -17.47,-3.41 -24.58,-19.61 -29.93,-21.82 -7.65,-3.2 -12.07,-7.89 -17.38,-14.34 -4.09,-4.84 -5.32,-12.32 -9.59,-14.98 -7.13,-4.44 -12.37,-11.14 -17.27,-20.5 -2.01,-3.86 -7.5,-22.13 -13.59,-19.78 10.42,61.92 32.28,120.01 67.38,171.69 22.25,32.78 46.45,60.89 82.12,86.11 4.7,3.34 5.61,4.89 -0.95,4.66 -33.34,-4.05 -35.38,-19.27 -40.87,-20.71 -5.2,-1.35 -11.65,-7.52 -15.77,-11.53 -7.41,-7.33 -7.28,-13.51 -10.13,-15.43 -6.08,-4.25 -10.66,-8.65 -14.81,-16.03 -2.19,-3.84 -5.86,-12.3 -9.11,-14.23 -8.57,-4.96 -16.86,-12.19 -20.99,-19.99 -3.05,-5.7 -4.27,-11.89 -8.25,-17.49 -4.27,-6.02 -10.23,-10.53 -15.36,-14.88 3.9,26.47 16.37,57.82 24.95,84.87 11.53,36.12 25.54,68.95 41.33,103.07" /><path
             id="path60"
             style="fill:#ffffff;fill-opacity:1;fill-rule:nonzero;stroke:none"
             d="m 1417.21,1916.65 c 28.44,63.85 58.37,111.9 97.26,168.11 5.08,7.36 9.64,14.58 14.08,21.49 2,3.11 11.56,16.85 13.55,19.76 13.04,19.69 18.52,25.72 31.86,44.53 3.62,5.11 6.55,9.13 8.09,15.04 2.84,11.01 -6.61,18.4 -8.79,28.96 -2.2,10.79 -0.99,22.57 3.96,31.68 3.1,5.69 6.19,7.93 9.31,15.57 6.07,14.73 3.97,46.6 10.87,47.44 -1.75,-15.13 -2.15,-32.13 0.23,-46.64 2.76,-16.93 13.03,-27.18 17.27,-45.11 11.43,2.06 23.83,1.57 33.45,0.74 9.54,-0.82 21.61,1.83 31.4,5.18 13.26,4.53 24.27,12.78 37.79,15.98 -11.5,-11.05 -27.73,-15.2 -41.33,-23.59 -5,-3.14 -9.71,-7.29 -13.05,-12.45 -5.46,-8.5 -9.78,-16.64 -18.34,-20.38 -15.19,-6.62 -28.24,-3.48 -45.57,-6.7 -25.76,-26.54 -50.01,-62.63 -72.38,-100.58 -56.73,-95.98 -104.04,-195.37 -131.54,-297.29 9.51,17.73 18.6,34.88 28.9,51.75 11.38,18.74 24.18,37.09 38.13,55.47 32.66,43.05 64.97,80.64 101.18,120.19 29.21,31.95 61.24,58.76 96.95,81.18 47.19,29.57 105.41,50.28 156.56,39.6 5.82,-1.36 14.14,-2.91 17.77,-6.74 -64.11,8.98 -121.54,-13.42 -164.39,-47.74 -33.86,-27.08 -62.39,-54.56 -91.39,-90.27 -14.98,-17.21 -28.45,-36.13 -41.83,-54.45 -14.02,-19.27 -26.45,-39.55 -38.77,-59.83 -41.55,-68.61 -72.99,-141.25 -96.12,-216.51 -0.66,-2.39 -0.81,-4.79 -1.46,-7.16 1.09,1.69 2.71,3.53 3.81,5.25 31.12,50.61 68.55,99.45 115.96,132.22 4.14,2.82 8.45,8.26 9.57,12.53 5.12,20.09 -10.19,29.75 10.99,57.52 4.86,6.38 11.51,8.71 16.1,14.64 8.67,13.4 15.74,37.41 23,43.86 -3.65,-15.63 -12.61,-32.15 -14.53,-48.26 -2.03,-17.68 2.49,-32.14 3.28,-50.88 12.52,-1.71 22.21,-7.01 32.03,-10.04 15.28,-4.77 24.46,-3.56 39.57,-2.25 6.45,0.54 18.15,4.31 25.1,2.89 -14.61,-7.98 -34.33,-6.51 -49.28,-14.14 -10.46,-5.36 -13.49,-13.27 -27.92,-16.05 -12.84,-2.5 -23.64,-1.16 -31.98,3.12 -6.49,3.27 -11.56,4.64 -17.39,1.85 -15.56,-7.47 -26.18,-18.02 -38.7,-30.65 -29.08,-29.26 -52.81,-61.92 -74.96,-104.75 -5.86,-11.39 -11.13,-22.64 -16.13,-34.25 -2.47,-5.65 -8.6,-21.34 -8.6,-21.34 h -75.98 c 0,0 -0.19,21.91 0.52,29.91 1.46,15.95 3.63,27.76 6.72,43.94 4.41,23.26 8.72,44.37 14.76,66.94 5.88,21.96 12.21,42.56 19.74,63.65 15.71,43.96 32.41,86.06 50.67,127.06" /><path
             id="path62"
             style="fill:#ffffff;fill-opacity:1;fill-rule:nonzero;stroke:none"
             d="m 682.551,1324.8 c 27.73,22.68 48.265,35.82 75.957,52.33 11.242,6.72 28.254,14.33 41.336,20.26 47.984,21.68 111.465,37.67 171.269,38.77 1.082,0 1.016,-0.05 1.016,-0.05 h 445.901 c 0,0 -1.66,0.05 1.56,0.05 14.19,0 28.22,-4.95 36.91,-13.14 8.71,-8.26 12.87,-20.98 15.14,-33.63 1.92,-10.78 0.98,-20.36 -1.53,-31.89 -1.97,-9.11 -3.43,-14.54 -8.51,-22.28 -3.06,-4.71 -5.97,-7.94 -11.68,-12.48 -5.86,-4.68 -14.16,-6.31 -23.67,-6.4 -1,-0.04 -3.12,-0.1 -3.05,-0.07 0.1,0.07 -521.559,0.07 -521.559,0.07 0,0 -3.243,0.01 -4.871,0.01 -34.149,0.11 -70.094,-1.63 -103.836,-6.03 -25.844,-3.53 -51.743,-7.56 -76.723,-14.06 -31.504,-8.23 -61.836,-19.62 -92.117,-30.91 16.785,22.31 36.16,41.24 58.457,59.45" /><path
             id="path64"
             style="fill:#ffffff;fill-opacity:1;fill-rule:nonzero;stroke:none"
             d="m 837.383,1502.21 c 27.398,19.79 60.66,36.04 90.121,47.32 14.953,5.66 34.816,11.93 50.598,15.86 19.062,4.81 40.968,8.42 58.828,8.94 5.39,0.15 0.79,0.04 0.79,0.04 l 382.46,0.04 c 0,0 8.19,-0.44 11.03,-1 7.19,-1.55 12.99,-4.48 15.39,-6.01 5.94,-3.81 13.4,-11.81 17.3,-18.14 9.93,-16.35 11.68,-34 8.46,-52.37 -3.67,-20.97 -19.61,-44.86 -41.23,-45.45 -3.77,-0.1 -11.28,0 -11.28,0 h -414.23 c 0,0 -24.104,-0.47 -35.116,-0.87 -20.375,-0.8 -42.965,-3.12 -60.754,-5.74 -15.215,-2.19 -30.078,-5.07 -45.312,-9.15 -51.071,-13.8 -95.446,-39.7 -141.856,-59.84 31.258,54.63 73.539,96.48 114.801,126.37" /><path
             id="path66"
             style="fill:#ffffff;fill-opacity:1;fill-rule:nonzero;stroke:none"
             d="m 623.434,1242.28 c 66.488,39.28 146.582,54.77 219.886,57.23 1.742,0.08 5.219,0.19 5.219,0.19 l 571.731,-0.05 c 0,0 1.04,0 6.21,0.05 34.65,0.03 47.31,-34.35 47.15,-62.15 -0.07,-9.16 -1.62,-18.5 -4.16,-24.77 -3.29,-8.19 -6.93,-14.88 -12.89,-21.34 -2.13,-2.34 -9.78,-7.72 -13.17,-8.55 -7.92,-1.94 -17.67,-1.72 -17.61,-1.72 0.08,0 -425.26,-0.08 -425.26,0 0,0 -22.95,0.92 -38.876,2.45 -11.469,1.13 -20.176,2.33 -32.09,4.6 -29.285,5.82 -53.562,15.35 -78.926,23.17 -16.918,5.24 -34.714,9.13 -53.277,11.94 -34.133,5.22 -71.414,7.6 -105.887,4.99 -43.847,-3.26 -82.847,-11.85 -124.554,-25.08 7.054,10.99 36.371,27.12 56.504,39.04" /><path
             id="path68"
             style="fill:#ffffff;fill-opacity:1;fill-rule:nonzero;stroke:none"
             d="m 931.391,1063 c -19.543,6.89 -38.614,15.78 -55.723,27.07 -22.285,14.75 -33.207,26.48 -62.008,39.79 -24.644,11.39 -44.324,22.63 -78.687,35.08 -16.582,6.01 -43.446,14.28 -66.481,18.22 -32.906,5.59 -64.637,8.04 -64.637,8.04 0,0 6.719,4.19 10.774,5.43 33.586,10.22 63.246,15.21 97.738,17.76 30.246,2.27 58.031,-0.68 88.356,-5.42 12.441,-1.96 28.613,-5.79 42.668,-9.8 45.636,-12.99 97.523,-33.59 143.547,-33.67 2.57,0 2.277,0.04 2.277,0.04 h 425.015 c 0,0 -3.21,0 1.3,0 12.87,0.04 36.93,-4.13 46.6,-21.21 11.2,-19.68 14.68,-43.12 5.27,-66.6 -2.85,-7.05 -7.58,-17.16 -14.37,-23.28 -5.97,-5.4 -15.67,-8.87 -21.27,-8.87 -1.62,-0.08 -4.4,0 -4.4,0 h -371.69 c 0,0 1.41,0 -2.03,0 -38,0 -85.847,4.6 -122.249,17.42" /><path
             id="path70"
             style="fill:#ffffff;fill-opacity:1;fill-rule:nonzero;stroke:none"
             d="m 1100.71,931.16 c -10.51,10.789 -25.01,27.328 -38.15,43.039 -25.23,30.071 -36.52,57.161 -36.52,57.161 h 247.91 c 0,0 0.66,-28.6 -5.07,-61.719 -5.36,-30.75 -16.72,-63.172 -28.8,-86.661 -0.44,-24.082 9.72,-46.468 11.39,-70.261 -20.36,-12.5 -42.26,-24.867 -60.51,-42.418 -1.17,-1.082 -3.05,-1.082 -3.82,1.828 -9.77,36.66 -14.93,69.34 -22.95,105.59 -22.6,17.472 -43.79,33.043 -63.48,53.441" /><path
             id="path72"
             style="fill:#ffffff;fill-opacity:1;fill-rule:nonzero;stroke:none"
             d="m 1356.2,951.488 c -7.01,12.953 -12.24,30.051 -20.29,40.223 -1.73,-9.07 0.4,-14.652 -0.83,-23.332 -1.13,-7.27 -7.09,-4.25 -8.3,-0.828 -3.48,9.84 -7.17,21.988 -10.35,32.078 -5.29,16.801 -6.98,31.681 -6.98,31.681 l 41.24,0.05 c 0,0 1.59,-0.39 2.32,-4.4 1.97,-10.39 1.48,-20.54 4.33,-32.581 3.66,-15.508 8.37,-29.668 14.07,-44.129 4.96,-12.73 11.35,-25.57 16.55,-38.211 0.7,-1.66 1.04,-4.859 -0.21,-6.519 -1.53,-1.918 -4.16,-1.68 -5.67,0 -11.81,13.429 -16.57,28.64 -25.88,45.968" /><path
             id="path74"
             style="fill:#ffffff;fill-opacity:1;fill-rule:nonzero;stroke:none"
             d="m 1420.04,922.012 c -7.01,14.949 -16.88,31.758 -16.02,48.718 4.56,-5.992 6.44,-10.281 12.72,-13.621 2.87,-0.91 8.89,-0.058 7.38,4.961 -2.77,9.34 -7.08,17.25 -11.06,30.071 -5.92,18.949 -11.67,39.199 -11.67,39.199 l -42.1,0.02 c 0,0 2.33,-17.08 11.9,-43.29 8.41,-23.211 21.4,-49.769 35.62,-74.672 11.59,-20.476 22.11,-38.347 35.25,-53.308 4.5,-5.149 15.54,-0.629 10.76,6.07 -12.47,17.641 -24.11,37.168 -32.78,55.852" /><path
             id="path76"
             style="fill:#ffffff;fill-opacity:1;fill-rule:nonzero;stroke:none"
             d="m 1693.4,2344.89 c -9.14,-3.98 -17.21,-9.13 -21.77,-17.91 -3.32,-6.3 -5.56,-15.92 0.79,-21.34 11.12,-9.48 24.38,0.23 29.75,9.92 6.79,12.35 5.02,35.96 5.02,35.96 0,0 -7.89,-4.11 -13.79,-6.63" /><path
             id="path78"
             style="fill:#ffffff;fill-opacity:1;fill-rule:nonzero;stroke:none"
             d="m 1703.06,2285.95 c 3.99,7.54 12.74,15.68 22.33,21.51 10.84,6.63 22.07,13.06 29.88,17.72 7.81,4.7 9.3,7.99 9.3,7.99 0,0 -6.44,-2.22 -9.96,-4.29 -19.28,-11.5 -40.31,-24.56 -48.87,-28.33 -10.8,-4.71 -25.47,-5.62 -38.7,-7.31 -2.11,16.69 -6.44,23.62 -6.39,38.44 0.11,7.12 1.83,16.34 3.04,22.77 4.14,21.43 4.95,32.25 4.95,32.25 0,0 -3.27,-3.05 -4.46,-12.49 -1.35,-8.51 -2.3,-11.66 -4.26,-21.73 -2.22,-11.62 -4.55,-21.47 -11.5,-28.73 -10.02,-10.36 -19.3,-28.82 -11.56,-42.96 4.51,-8.26 12.04,-7.06 14.4,-9.19 2.35,-2.12 3.79,-7.21 10.92,-9.57 15.39,-5.14 32.83,8.67 40.88,23.92" /><path
             id="path80"
             style="fill:#ffffff;fill-opacity:1;fill-rule:nonzero;stroke:none"
             d="m 1683.11,2241.88 c 5.22,8.48 10.58,14.43 18.81,19.48 13.67,8.33 23.8,13.97 32.13,18.24 3.62,1.81 6.63,3.97 7.55,7.83 -3.73,-1.4 -17.83,-8.03 -31.83,-16.36 -10.03,-5.98 -27.27,-13.46 -38.85,-13.99 -4.59,-0.2 -7.99,0.93 -11.74,1.04 -7.77,0.33 -17.67,-1.55 -17.67,-1.55 0,0 -2.51,10.98 -5.83,18.89 -1.66,4.06 -4.35,8.22 -5.8,15.83 -0.97,5.08 -1.26,12.71 -0.86,17.25 1.14,13.73 4.84,27.07 4.2,40.97 -8.63,-17.93 -5.1,-40.01 -15.23,-53.88 -4.28,-5.83 -7.66,-10.43 -11.02,-17.78 -5.56,-12.06 -4.9,-24.55 2.62,-36.18 4.34,-6.62 13.91,-6.38 15.56,-7.67 2.51,-1.85 4.65,-8.78 14.01,-10.86 16.02,-3.6 34.9,3.82 43.95,18.74" /><path
             id="path82"
             style="fill:#ffffff;fill-opacity:1;fill-rule:nonzero;stroke:none"
             d="m 1687.58,1891.29 c 3.73,7.53 6.13,17.42 10.89,24.41 -10.76,-1.61 -12.49,-2.84 -28.04,-4.55 -3.39,-0.32 -10.4,-3.84 -12.72,-6.15 -6.15,-6.21 -11.52,-11.96 -9.13,-22.38 0.92,-4.05 4.5,-7.02 6.49,-7.65 12.93,-4.2 26.05,3.49 32.51,16.32" /><path
             id="path84"
             style="fill:#ffffff;fill-opacity:1;fill-rule:nonzero;stroke:none"
             d="m 1700.7,1870.77 c 14.69,3.43 31.66,10.64 38.48,8.37 -13.79,-7.33 -31.17,-10 -46.45,-14.35 -11.65,-3.36 -19.97,-12.16 -30.37,-20.15 -9.55,-7.26 -22.24,-10.22 -33.59,-4.88 -3.83,1.82 -7.54,7.99 -8.2,11.28 -0.6,2.63 -6.08,5.26 -8.89,7.58 -2.83,2.36 -4.2,8.25 -4.26,10.52 -0.49,20.34 14.98,28.55 29.89,40.5 11.23,8.99 25.81,47.16 34.7,55.07 -1.58,-12.3 -17.58,-35.51 -24.55,-53.58 -5.53,-14.39 -3.71,-25.9 -7.28,-41.04 10.66,-0.68 22.54,-2.91 33.28,-3.09 8.42,-0.11 18.59,1.72 27.24,3.77" /><path
             id="path86"
             style="fill:#ffffff;fill-opacity:1;fill-rule:nonzero;stroke:none"
             d="m 1685.22,1839.42 c -8.25,-1.53 -18.34,-4.13 -25.23,-5.59 -23.95,-5.07 -35.4,6.66 -54.52,6.44 1.68,21.91 -5.93,31.71 0.33,45.87 5.59,12.6 10.76,25.94 15.56,36.61 3.89,8.57 5.07,15.8 5.07,15.8 0,0 -5.8,-8.69 -22.32,-40.86 -5.74,-11.23 -16.02,-13.63 -25.15,-24.23 -10.51,-12.12 -16.54,-37.75 2.9,-48.51 3.86,-2.12 3.3,-8.78 6.11,-11.47 12.98,-12.21 39.19,-10.98 55.58,3.9 13.05,11.89 28.91,13.82 42.43,17.32 7.9,2.04 14.83,5.41 14.83,5.41 0,0 -3.75,1.52 -15.59,-0.69" /><path
             id="path88"
             style="fill:#ffffff;fill-opacity:1;fill-rule:nonzero;stroke:none"
             d="m 1205.22,1585.17 c -0.94,0 -1.96,0 0,0 z m -111.88,315.55 c -7.99,-10.56 -11.69,-22.7 -20.5,-31.92 -4.6,-4.83 -11.63,-2.57 -15.27,2.99 -4.05,6.29 -10.59,15.18 -5.73,21.39 8.01,10.27 24.76,16.82 39,14.96 0.84,-0.09 5.43,-3.48 2.5,-7.42 z M 1055,1840.33 c -4.47,-11.96 -17.8,-13.26 -29.14,-15.62 -2.12,-0.46 -8.65,0 -11.58,2.87 -4.9,4.79 -9.14,11.34 -8.28,19.54 0.45,5.06 4.67,10.02 9.9,12.03 9.47,3.67 20.69,9.57 30.03,4.33 8.02,-4.48 12.23,-14.72 9.07,-23.15 z m -24.55,-63.22 c -3.27,-4.71 -11.65,10.95 -12.74,18.12 -3.13,20.77 15.08,26.07 30.24,25.43 0.47,-12.39 -9.13,-31.57 -17.5,-43.55 z m -16.39,-56.03 c -2.97,-8.35 -4.4,-16.04 -7.72,-23.69 -3.22,-7.4 -16.977,-10.04 -24.606,-7.67 -10.894,3.37 -20.242,27.83 -7.855,37.2 9.476,7.08 19.289,8.22 31.361,9.7 2.17,0.26 10.27,-0.23 10.59,-0.99 2.02,-5.07 0.74,-7.61 -1.77,-14.55 z m -18.333,-64.59 c -2.207,-6.42 -3.184,-13.02 -6.02,-19.19 -1.422,-3.13 -3.285,0.98 -3.359,1.19 -4.282,10.64 -6.985,19.65 -3.336,29.02 2.066,5.19 9.168,9.96 15.906,10.38 -0.418,-6.67 -0.891,-14.9 -3.191,-21.4 z M 974.078,1625 c -4.922,2.22 -4.848,8.55 -6.91,12.48 -1.941,3.84 -6.133,9.13 -4.41,14.17 9.5,-5.33 13.902,-14.83 11.32,-26.65 z m -16.387,39.31 c -11.336,9.32 -12.316,24.22 -19.863,35.62 8.332,5.33 22.387,4.26 26.707,-6.29 3.457,-8.48 5.969,-20.94 -2.633,-27.41 -0.929,-0.69 -3.136,-2.81 -4.211,-1.92 z m -42.246,76.85 c -1.699,2.43 -5.062,9.43 -2.5,10.32 20.282,6.98 35.496,7.21 39.832,-14.49 3.067,-15.48 -7.507,-28.77 -22.332,-23.36 -4.25,1.58 -8.465,18.07 -15,27.53 z m -29.5,48.99 c -1.418,1.79 -2.578,7.18 -0.804,8.56 10.547,8.48 26.031,9.13 38.019,7.96 15.809,-1.44 19.059,-16.14 16.418,-28.32 -3.48,-16.04 -27.801,-18.04 -34.691,-15.37 -6.766,2.6 -11.489,17.94 -18.942,27.17 z m 3.446,57.03 c 13.66,8.86 39.785,15.43 44.14,-8.56 1.317,-7.23 -0.484,-16.83 -10.25,-19.97 -10.035,-3.22 -21.851,-6.69 -31.011,-2.97 -11.274,4.61 -13.493,24.65 -2.879,31.5 z m -14.164,40.36 c 1.027,4.6 6.128,6.78 10.418,7.88 11.058,2.72 23.425,6.85 33.578,0.38 3.961,-2.5 4.261,-6.04 4.781,-11.02 0.898,-8.07 -0.25,-14.66 -5.563,-17.74 -10.773,-6.32 -21.738,-6.89 -34.257,-4.43 -10.157,2.01 -10.985,15.47 -8.957,24.93 z m -11.336,-62.21 c -9.473,7.01 -13.657,16.91 -20.637,26.72 -1.688,2.4 0,3.39 1.293,3.76 16.805,4.75 29.277,-3.63 26.66,-21.96 -0.469,-3.56 -2.785,-11.85 -7.316,-8.52 z m -46.387,56.61 c -6.297,5.45 -1.918,14.92 3.57,17.68 9.61,4.77 24.707,5.49 34.703,2.12 6.43,-2.16 9.684,-11.39 8.532,-21.47 -0.485,-4.12 -1.747,-8.67 -3.766,-10.01 -7.613,-5.19 -19.391,-5.4 -28.648,-3.47 -6.551,1.39 -8.887,10.35 -14.391,15.15 z m -7.262,57.25 c 6.09,13.25 28.309,13.36 40.406,7.46 9.856,-4.85 11.094,-23.19 0.332,-30.42 -8.585,-5.72 -22.113,-3.62 -31.218,-1.95 -12.938,2.38 -13.965,15.1 -9.52,24.91 z m 0.496,49.61 c 9.227,8.77 21.188,4.75 32.305,3.21 2.152,-0.31 4.715,-1.82 6.176,-3.27 7.59,-7.67 8.187,-20.24 -0.266,-26.53 -9.75,-7.25 -21.922,-2.53 -33.641,-1.94 -3.164,0.12 -6.644,3.84 -7.367,6.22 -2.109,7.42 -3.39,16.49 2.793,22.31 z m 5.946,41.49 c 9.8,4.09 26.636,5.97 33.574,-5.03 4.262,-6.74 3.023,-19.22 -3.813,-21.03 -6.695,-1.73 -29.457,-5.51 -34.906,7.07 -2.699,6.2 -1.559,16.17 5.145,18.99 z m 30.164,35.25 c 2.836,-1.25 4.601,-3.52 5.269,-7 1.399,-7.55 -0.59,-15.75 -7.836,-17.08 -10.89,-1.98 -27.058,-2.61 -27,12.78 0.039,17.17 16.957,16.98 29.567,11.3 z m -21.922,31.93 c 5.797,2.21 15.332,1.72 20.535,-0.99 2.625,-1.37 6.148,-5.68 4.668,-10.22 -1.848,-5.93 -7.363,-8.07 -13.629,-8.15 -6.02,-0.05 -12.926,0.43 -15.355,5.34 -2.313,4.66 -1.333,12.04 3.781,14.02 z m 6.769,25.74 c 5.297,1.93 13.129,1.8 16.981,-2.38 5.304,-5.79 1.121,-15 -8.887,-14.54 -3.519,0.15 -7.695,1.36 -9.824,2.57 -5.168,2.92 -3.457,12.5 1.73,14.35 z m 23.813,16.59 c 0.68,2.23 4.16,4.84 5.98,5.49 3.973,1.41 8.629,1.7 12.43,0.19 7.602,-3.13 6.555,-12.53 -1.559,-15.83 -3.632,-1.47 -9.214,-2.43 -11.953,-1.47 -5.113,1.73 -6.535,6.17 -4.898,11.62 z m 23.68,-36.76 c -8.29,-2.43 -19.848,-2.9 -22.325,5.6 -4.203,14.42 14.004,16.58 23.449,13.56 6.512,-2.07 8.813,-16.31 -1.124,-19.16 z m 5.492,47.62 c 2.629,8.94 12.758,13.79 21.929,11.06 7.887,-2.31 9.707,-13.06 4.383,-18.29 -2.414,-2.34 -6.406,-4.73 -10.703,-5.68 -9.387,-2.1 -18.605,3.07 -15.609,12.91 z m 41.254,-32.79 c -1.485,-5.83 -5.766,-9.83 -12.618,-11.35 -6.808,-1.5 -16.214,-1.92 -19.988,2.28 -3.598,3.99 -5.254,9.59 -2.25,13.88 6.024,8.56 17.047,11.55 26.871,9.38 5.606,-1.31 9.727,-7.05 7.985,-14.19 z m -3.664,34.31 c 3.664,8.11 12.957,12.19 21.878,9.47 1.79,-0.58 5.469,-3.45 5.981,-6.29 1.059,-5.64 -0.899,-10.79 -5.609,-13.74 -6.036,-3.85 -11.02,-6.01 -17.95,-3.17 -5.203,2.18 -6.472,8.94 -4.3,13.73 z m 38.437,-22.78 c 4.078,-6.9 -2.129,-13.83 -5.277,-15.73 -6.989,-4.09 -16.84,-6.6 -21.051,0.33 -4.141,6.79 -0.711,14.86 6.512,17.84 6.89,2.86 14.031,7.2 19.816,-2.44 z m 11.59,-26.36 c 4.562,-3.78 8.566,-11.7 3.098,-17.97 -5.137,-5.91 -11.516,-7.68 -19.59,-8.98 -5.457,-0.93 -12.438,3.11 -13.321,7.93 -0.808,4.15 -1.57,11.72 2.543,15.21 8.024,6.83 18.782,10.79 27.27,3.81 z m 9.672,44.98 c 4.308,-1.28 7.062,-5.84 4.906,-10.23 -1.313,-2.7 -5.187,-5.65 -7.652,-7.15 -6.762,-4.18 -12.567,-2.46 -14.688,2.51 -3.894,9.15 9.211,17.29 17.434,14.87 z m 16.504,-22.8 c 4.747,-0.42 6.927,-3.73 7.867,-7.36 1.23,-4.87 -0.38,-9.38 -4.49,-12.14 -4.893,-3.25 -10.987,-5.17 -15.866,-5.24 -6.589,-0.12 -12.699,9.56 -9.125,15.84 3.786,6.74 13.309,9.62 21.614,8.9 z m 27.277,-34.89 c 2.81,-8.28 -3.26,-12.14 -9.66,-15.54 -6.5,-3.47 -15.22,-6.71 -19.738,-2.39 -5.766,5.43 -8.332,14.58 -1.903,20.6 8.911,8.36 25.401,14.65 31.301,-2.67 z m 11.78,-20.77 c 10.46,-1.33 12.53,-16.2 10.42,-21.58 -2.39,-4.62 -7.66,-8.24 -10.42,-9.66 -7.68,-3.95 -16.64,-5.45 -23.7,-1.8 -6.42,3.34 -9.21,13.09 -5.72,20.73 4.73,10.34 19.63,13.6 29.42,12.31 z m 21.52,-46.04 c 3.58,-5 2.79,-13.88 0.67,-16.66 -6.6,-9.01 -24.96,-14.16 -32.54,-10.47 -5.75,2.82 -11.43,15.5 -4.69,23.11 7,7.9 19.21,12.61 30.3,10.3 2.47,-0.55 4.09,-3.27 6.26,-6.28 z m 4.64,-28.37 c 5.03,-0.54 9.51,-6.08 11.94,-12.11 3.16,-7.8 -0.04,-16.89 -2.53,-18.59 -6.02,-4.09 -25.09,-15.57 -37.09,-8.69 -6.6,3.79 -8.42,12.44 -8.83,17.55 -1.32,16.51 23.72,23.27 36.51,21.84 z m -70.397,-118.09 c -2.566,6.55 -4.941,16.24 0.203,20.22 10.394,8.2 33.894,15.37 42.834,2.97 5.81,-8.05 4.1,-21.7 -6.07,-26.92 -10.51,-5.37 -31.041,-11.54 -36.967,3.73 z m -50.41,-0.72 c 10.429,5.3 25.457,11.7 36.687,4.46 5.137,-3.29 10.442,-16.96 6.817,-23.02 -7.699,-12.87 -27.965,-16.15 -40.844,-12.84 -10.969,2.85 -14.273,25.53 -2.66,31.4 z m -9.383,44.49 c 12.59,8.85 37.441,14.57 43.426,-4.78 1.554,-5.01 2.437,-10.56 -0.125,-14.61 -6.973,-11.21 -24.656,-14.16 -36.492,-12.49 -12.805,1.85 -18.848,23.43 -6.809,31.88 z m -10.59,45.08 c 12.09,6.85 37.856,15.96 43.926,-3.68 2.426,-8.03 2.184,-17.94 -4.695,-21.49 -9.852,-5.16 -25.457,-10.58 -36.809,-3.5 -9.48,6 -10.762,23.89 -2.422,28.67 z m 67.676,81.02 c -5.063,-4.52 -10.203,-5.49 -16.941,-7.78 -9.442,-3.2 -19.313,4.07 -20.403,13.1 -1.816,15.46 14.75,17.76 25.707,19.69 7.989,1.45 12.938,-5.73 14.41,-10.56 1.504,-4.64 1.309,-10.86 -2.773,-14.45 z m 20.304,-36.37 c -7.18,-10.71 -36.16,-17.45 -42.55,-6.43 -4.668,8.07 -7.574,19.39 1.203,24.8 9.211,5.66 20.137,9.05 30.857,7.12 10.08,-1.78 15.21,-18.36 10.49,-25.49 z m 15.45,-66.33 c 4.12,-6.56 7,-15.37 0.88,-23.52 -5.55,-7.45 -25.37,-10.94 -35.517,-8.48 -5.566,1.4 -8.195,8.16 -9.047,12.73 -1.176,6.17 -1.734,12.38 3.731,17.41 7.851,7.2 18.333,7.04 28.403,7.04 4.14,0 10,-2.68 11.55,-5.18 z m -5.76,22.26 c -6.17,-11.34 -27.084,-12.8 -36.486,-11.55 -6.629,0.89 -11.289,11.57 -11.098,20.51 0.07,4.6 1.5,7.64 4.645,9.33 10.445,5.6 21.132,9.35 32.369,7.53 10.96,-1.74 15.22,-17.22 10.57,-25.82 z m -110.072,24.42 c -7.106,21.89 20.222,28.79 36.176,25.41 11.105,-2.31 14.808,-23.65 4.476,-30.39 -12.781,-8.31 -35.472,-10.99 -40.652,4.98 z m -41.211,-53.73 c 8.187,8.45 22.973,8.98 34.512,7.43 7.086,-0.99 10.14,-8.15 11.125,-15.92 2.761,-21.38 -25.942,-24.98 -39.598,-19.98 -8.996,3.29 -13.68,20.58 -6.039,28.47 z m -5.777,41.43 c 8.558,10.07 22.875,12.46 34.734,9.2 7.238,-1.97 10.59,-10.43 10.422,-19.91 -0.137,-5.38 -3.828,-9.29 -7.137,-10.65 -8.43,-3.42 -18.172,-5.96 -27.367,-4.84 -11.344,1.39 -18.219,17.27 -10.652,26.2 z m 1.359,45.1 c 10.527,4.29 30.144,8.14 33.449,-6.9 4.461,-20.02 -19.168,-23.28 -31.797,-19.8 -9.668,2.65 -11.504,22.72 -1.652,26.7 z m 75.726,33.09 c 7.872,-4.47 9.524,-17.08 4.731,-24.39 -6.367,-9.67 -28.133,-15.27 -39.844,-6.81 -6.68,4.85 -10.277,24.72 3.41,29.49 10.934,3.83 21.414,7.54 31.703,1.71 z m -11.156,14.38 c -8.929,-5.52 -21.656,-7.72 -30.097,-3.02 -7.344,4.02 -7.063,14.75 -3.418,20.52 5.98,9.62 20.851,10.66 31.132,7.64 8.864,-2.56 12.18,-19.04 2.383,-25.14 z m -72.281,15.68 c 0.902,2.86 2.172,3.68 3.949,4.55 7.504,3.58 15.746,4.54 22.938,-0.07 5.179,-3.36 4.722,-11.11 0.886,-15.12 -5.621,-5.91 -17.046,-6.15 -24.359,-2.31 -4.727,2.47 -4.945,8.29 -3.414,12.95 z m 2.398,-31.34 c 3.321,9.48 15.145,8.95 24.106,7.79 11.019,-1.44 13.226,-15.56 9.312,-21.5 -5.41,-8.2 -17.757,-6.63 -27.586,-5.38 -7.992,1.02 -8.464,11.61 -5.832,19.09 z m 155.504,-285.21 c 2.71,-10.71 0,-20.89 -9.53,-24.3 -12.247,-4.32 -28.81,-10.65 -38.602,-4.05 -11.2,7.51 -16.59,28.81 -3.723,37.16 15.199,9.94 45.445,16.45 51.855,-8.81 z m -16.508,33.3 c -8.23,-9.35 -21.664,-9.04 -34.851,-12.91 -5.094,-1.47 -11.133,3.02 -13.785,7.68 -4.871,8.7 -9.754,20.36 -0.414,28.77 7.734,7.05 18.281,6.45 27.754,9.28 4.25,1.28 9.457,2.77 14.621,-0.72 10.673,-7.29 14.833,-22.91 6.675,-32.1 z m 87.308,140.15 c 2.32,-6.81 5.44,-11.8 2.8,-18.58 -3.15,-8.33 -11.22,-9.47 -18.8,-12.21 -7.07,-2.56 -18.86,-5.79 -24.78,0.4 -6.8,7.04 -9.55,21.39 -1.4,27.54 10.55,7.86 36.6,18.71 42.18,2.85 z m 143.29,61.18 c 6.23,25.39 13.97,51.14 15.9,77.97 2.84,40.07 -5.8,81.73 -31.51,112.08 2.53,-13.09 5.88,-24.14 7.64,-37.88 2.09,-16.59 -0.25,-35.07 -4.53,-51.77 -3.24,-12.64 -8.94,-24.93 -14.59,-36.67 -6.67,-13.91 -16.63,-29.04 -26.55,-41.45 -27.81,-34.58 -71.14,-102.07 -71.14,-102.07 0,0 -3.63,0.26 -5.78,0.26 -0.51,8.41 19.44,37.22 29.5,53.35 22.1,35.35 38.83,54.37 58.04,85.03 12.04,19.32 21.23,42.84 24.19,64.16 5.99,43.43 -17.43,95.48 -51.1,112.79 7.7,-32.44 6.9,-78.17 -10.38,-97.4 -32.69,-36.43 -52.12,-63.69 -75.45,-110.39 -0.67,-1.25 -6.13,6.3 -10.64,9.23 -5.06,3.36 -2.23,13.37 -4.04,20.11 -1.64,5.73 -4.34,10.15 -5.14,11.15 -6.91,8.46 -13.58,8.99 -15.04,11.53 -1.67,2.86 -0.87,10 -6.89,18.13 -3.01,4.1 -10.68,7.13 -13.8,10.97 -3.37,4.2 -4.9,17.05 -14.21,22.32 -4.421,2.48 -6.476,10.19 -10.718,13.97 -13.086,11.59 -26.149,9.35 -28.652,10.08 -3.368,0.9 -9.938,9.27 -21.637,11.28 -11.438,1.95 -17.731,-5.68 -23.668,-2.92 -14.895,6.89 -29.156,7.46 -44.981,-10.18 -4.75,-5.25 -12.964,-0.34 -23.214,-8.18 -8.997,-6.86 -9.165,-13.2 -13.75,-14.06 -8.606,-1.62 -15.028,-8.51 -18.348,-16.03 -1.723,-3.87 -3.02,-11.7 -4.024,-16.86 -1.41,-7.13 -5.015,-13.69 -5.082,-18.93 -0.086,-7.28 2.215,-11.21 1.571,-14.47 -1.059,-4.71 -4.875,-9.04 -5.34,-13.44 -0.348,-2.5 -0.559,-9.16 1.258,-12.91 2.293,-4.62 -1.606,-8.63 -3.633,-13.56 -1.934,-4.58 -3.969,-12.42 -3.348,-17.95 0.821,-7.59 5.164,-10.37 1.785,-16.35 -5.535,-9.72 -12.535,-24.88 -0.265,-44.25 2.254,-3.54 -5.141,-10.43 -5.555,-20.54 -0.469,-11 6.172,-19.13 7.988,-24 0.344,-1.75 -2.922,-1.65 -3.043,-3.53 -29.222,30.9 -55.062,59.39 -88.949,86.22 -20.703,16.36 -41.172,30.12 -64.109,42.4 -61.289,32.87 -132.492,54.86 -196.992,46.82 24.285,-19.55 54.941,-33.5 79.89,-55.71 23.641,-21.06 45.09,-39.04 66.621,-61.41 33.793,-35.11 61.254,-70.7 89.867,-112.01 8.5,-12.23 14.094,-20.41 22.012,-33.17 7.981,-12.76 16.844,-26.31 24.106,-38.96 36.613,-63.58 66.613,-122.44 96.98,-187.59 8.422,-18.01 15.504,-36.87 23.762,-54.78 2.211,-4.86 5.375,-1.25 7.609,0 10.977,6.35 22.649,11.66 34.047,17.04 9.098,4.18 17.379,7.06 25.512,10.18 20.539,7.83 40.031,12.08 61.551,16.55 35.909,7.52 100.439,5.97 100.439,5.97 l 122.33,0.04 c 0.8,0 1.63,0 3.34,0 -1.28,35.07 -9.61,69.15 -11.64,104.32 -1.54,28.5 -0.59,56.04 0.41,84.59 2.74,77.36 14.11,160.4 31.39,230.88" /><path
             id="path90"
             style="fill:#ffffff;fill-opacity:1;fill-rule:nonzero;stroke:none"
             d="m 395.137,2295.16 c -23.871,-23.8 -30.992,-32.57 -44.91,-58.88 -8.2,-15.47 -18.61,-35.33 -21.579,-60.93 49.051,18.67 89.071,56.78 125.235,98.87 26.754,31.2 47.504,72.6 73.887,103.42 -46.469,-15.58 -95.504,-45.52 -132.633,-82.48" /><path
             id="path92"
             style="fill:#ffffff;fill-opacity:1;fill-rule:nonzero;stroke:none"
             d="m 254.711,2228.25 c 18.492,31.24 44.98,65.01 72.441,88.05 -12.718,-28.57 -28.382,-56.87 -33.769,-90.66 -10.672,-67.27 -20.746,-114.39 -31.906,-175.79 30.503,21.76 62.683,55.95 95.031,79.81 24.996,18.37 50.051,30.64 75.758,48.3 15.277,10.55 25.234,24.09 37.945,36.77 -15.145,-63.84 -71.164,-128.27 -111.273,-158.31 -50.387,-37.79 -68.45,-43.81 -149.422,-126.15 -10.282,101.67 -8.454,207.33 45.195,297.98" /><path
             id="path94"
             style="fill:#ffffff;fill-opacity:1;fill-rule:nonzero;stroke:none"
             d="m 89.5234,1890.59 c 3.7657,52.8 10.1016,95.02 22.9256,146.52 8.989,35.97 28.34,89.51 56.246,111.47 -3.418,-13.04 -5.215,-32.6 -6.531,-45.79 -5.469,-54.4 4.945,-117.58 6.188,-171.91 0.617,-26.72 0.382,-47.31 -3.618,-72.41 -4.136,-26.33 -0.687,-58.62 -0.687,-58.62 0,0 14.426,16.47 27.305,36.99 28.144,44.7 37.16,57.97 59.836,82.19 28.132,30.05 59.597,57.88 95.124,82.52 -4.285,-16.69 -22.425,-49.16 -29.921,-62.21 -10.004,-17.45 -14.543,-33.32 -38.215,-72.85 -33.313,-55.55 -48.153,-63.04 -85.141,-122.45 -8.008,-12.92 -40.847,-62.06 -48.805,-77.08 -17.328,35.86 -23.863,67.19 -45.1206,125.56 -13.3516,36.68 -11.3555,73.37 -9.586,98.07" /><path
             id="path96"
             style="fill:#ffffff;fill-opacity:1;fill-rule:nonzero;stroke:none"
             d="M 38.0898,1615.92 C 18.0039,1668 8.80078,1716.32 1.99219,1771.15 c -4.16016,33.55 -2.226565,78.26 9.74611,110.52 3.1406,-7.87 9.5469,-27.87 10.414,-30.86 8.9063,-29.96 12.6329,-44.35 25.0821,-73.25 9.5234,-22.16 21.1679,-39.83 33.6289,-61.73 11.3281,-19.99 20.8907,-46.31 29.0857,-66.45 26.375,-64.57 28.321,-125.02 38.414,-131.62 7.258,15.54 9.532,30.42 10.344,37.75 7.84,71.45 17.25,136.39 107.227,220.6 8.254,-25.07 4.07,-71.28 -0.891,-96.03 -10.758,-54.12 -19.445,-80.11 -43.281,-132.56 -12.598,-27.62 -29.418,-68.27 -34.028,-81.73 -12.082,-35.07 -16.218,-53.46 -23.82,-74.19 -42.476,70.78 -94.7578,143.87 -125.8242,224.32" /><path
             id="path98"
             style="fill:#ffffff;fill-opacity:1;fill-rule:nonzero;stroke:none"
             d="m 108.121,1290.31 c -30.246,42.1 -41.2655,63.25 -60.9491,108.07 -16.5274,37.59 -21.2813,51.53 -30.961,93.63 -5.289,22.95 -8.27731,43.77 -4.1718,57.34 23.6797,-42.87 39.8398,-90.85 70.8125,-126.41 24.5894,-28.21 48.2774,-52.23 67.8244,-76.04 29.988,-36.58 53.601,-71.21 82.383,-109.3 2.425,19.09 3.363,38.43 -0.926,69.71 -5.856,42.86 -2.246,78 5.238,119.5 9.488,52.65 16.445,78.71 34.715,131.98 22.348,-43.83 22.262,-94.54 27.871,-141.03 10.828,-90.2 -17.391,-197.76 -22.941,-242.6 -1.485,-11.81 0.562,-40.96 1.16,-52.32 -42.199,33.23 -79.742,66.79 -116.141,103.29 -16.586,16.54 -39.344,43.95 -53.914,64.18" /><path
             id="path100"
             style="fill:#ffffff;fill-opacity:1;fill-rule:nonzero;stroke:none"
             d="m 268.102,959.531 c -19.215,13.84 -70.844,53.299 -95.29,84.349 -35.601,45.21 -43.437,64.58 -66.921,116.59 -2.879,6.34 -16.1683,35.78 -17.2543,55.78 76.9453,-92.91 145.8323,-106.74 219.2303,-183.84 26.934,-28.24 54.516,-54.832 69.071,-68.16 11.171,-10.281 25.042,-13.391 25.042,-13.391 0,0 -1.445,19.801 -8.687,33.582 -48.969,93.589 -58.211,191.439 -50.781,296.449 22.351,-27.67 29.402,-46.15 43.586,-72.91 15.429,-29.15 23.297,-47.17 30.507,-65.11 41.903,-104.29 52.805,-224.749 78.692,-285.37 -79.91,26.922 -142.84,41.309 -227.195,102.031" /><path
             id="path102"
             style="fill:#ffffff;fill-opacity:1;fill-rule:nonzero;stroke:none"
             d="m 595.824,713.43 c -21.613,-1.45 -63.992,-1.321 -86.586,2.359 C 394.844,734.102 288.512,817 235.023,908.059 c 48.497,-29.59 83.563,-49.34 126.211,-64.11 37.985,-13.121 74.008,-17.008 137.418,-35.019 38.262,-10.809 76.145,-26.121 89.453,-31.102 42.418,-15.797 60.278,-11.918 60.278,-11.918 0,0 0,6.449 -15.844,23.731 -31.578,34.461 -43.141,42.699 -69.121,69.187 -8.531,8.75 -28.074,38.481 -37.996,58.25 -28.074,55.883 -31.192,100.672 -56.828,162.062 93.554,-54.94 139.125,-130.749 188.59,-226.32 15.211,-29.269 35.777,-63.082 54.57,-81.66 12.637,-12.469 30.441,-31.422 30.441,-31.422 0,0 -13.047,-3.066 -53.664,-9.066 C 670.309,728 631.48,715.91 595.824,713.43" /><path
             id="path104"
             style="fill:#ffffff;fill-opacity:1;fill-rule:nonzero;stroke:none"
             d="m 1049.31,706.18 c 49.39,-8.078 93.27,-20.078 138.19,-35.489 12.07,-4.152 30.44,-13.281 43.16,-19.73 31.84,-16.199 50.16,-26.723 77.52,-45.531 44.07,-30.352 91.41,-63.051 134.12,-112.668 0.91,-0.981 7.82,-8.364 3.22,-11.961 -8.37,-6.563 -29,-15.903 -35.85,-9.852 -39.08,34.762 -37.11,45.891 -84.47,88.781 -12.15,10.942 -30.49,26.29 -52.41,41.282 -21.37,14.629 -47.21,30.609 -71.22,42.449 -21.82,10.738 -55.42,13.949 -74.28,13.949 l 0.25,-0.14 c -8.57,0.332 -57.83,0.609 -69.24,-0.129 C 961.492,650.5 966.234,641.84 910.414,626.719 864.508,614.23 815.254,605.34 766.363,598.781 c -50.09,-6.812 -94.91,-7.633 -141.859,-2.84 -63.649,6.559 -133.274,24.297 -185.242,57.789 47.515,-0.8 96.304,-9.929 143.57,-6.308 19.887,1.527 52.156,4.527 74.008,11.269 43.418,13.329 68.332,18.528 114.312,31.348 39.512,10.992 79.344,14.801 120.606,19.152 57.105,6.11 109.992,4.731 157.552,-3.011" /><path
             id="path106"
             style="fill:#ffffff;fill-opacity:1;fill-rule:nonzero;stroke:none"
             d="m 1934.51,2295.16 c 23.88,-23.8 31.03,-32.57 44.94,-58.88 8.21,-15.47 18.62,-35.33 21.59,-60.93 -49.1,18.67 -89.08,56.78 -125.27,98.87 -26.77,31.2 -47.49,72.6 -73.87,103.42 46.48,-15.58 95.5,-45.52 132.61,-82.48" /><path
             id="path108"
             style="fill:#ffffff;fill-opacity:1;fill-rule:nonzero;stroke:none"
             d="m 2074.97,2228.25 c -18.51,31.24 -44.99,65.01 -72.44,88.05 12.84,-30.74 31.56,-69.04 33.76,-90.66 6.83,-67.74 20.74,-114.39 31.91,-175.79 -30.49,21.76 -62.71,55.95 -95.06,79.81 -24.94,18.37 -50.01,30.64 -75.7,48.3 -15.31,10.55 -25.26,24.09 -37.98,36.77 15.15,-63.84 71.17,-128.27 111.28,-158.31 50.37,-37.79 68.44,-43.81 149.38,-126.15 10.27,101.67 8.45,207.33 -45.15,297.98" /><path
             id="path110"
             style="fill:#ffffff;fill-opacity:1;fill-rule:nonzero;stroke:none"
             d="m 2240.16,1890.59 c -3.81,52.8 -10.08,95.02 -22.93,146.52 -8.99,35.97 -28.34,89.51 -56.29,111.47 3.45,-13.04 5.22,-32.6 6.56,-45.79 5.52,-54.4 -4.88,-117.58 -6.17,-171.91 -0.62,-26.72 -0.39,-47.31 3.58,-72.41 4.15,-26.33 0.72,-58.62 0.72,-58.62 0,0 -14.42,16.47 -27.33,36.99 -28.09,44.7 -37.11,57.97 -59.84,82.19 -28.11,30.05 -59.6,57.88 -95.14,82.52 4.34,-16.69 22.46,-49.16 29.96,-62.21 10.05,-17.45 14.53,-33.32 38.22,-72.85 33.3,-55.55 48.15,-63.04 85.1,-122.45 8.01,-12.92 40.9,-62.06 48.85,-77.08 17.34,35.86 23.86,67.19 45.12,125.56 13.39,36.68 11.38,73.37 9.59,98.07" /><path
             id="path112"
             style="fill:#ffffff;fill-opacity:1;fill-rule:nonzero;stroke:none"
             d="m 2291.58,1615.92 c 20.08,52.08 29.27,100.4 36.12,155.23 4.16,33.55 2.19,78.26 -9.75,110.52 -3.15,-7.87 -9.53,-27.87 -10.42,-30.86 -8.94,-29.96 -12.64,-44.35 -25.06,-73.25 -9.53,-22.16 -21.24,-39.83 -33.66,-61.73 -11.33,-19.99 -20.88,-46.31 -29.12,-66.45 -26.34,-64.57 -28.29,-125.02 -38.38,-131.62 -7.29,15.54 -9.54,30.42 -10.33,37.75 -7.85,71.45 -17.27,136.39 -107.23,220.6 -8.28,-25.07 -4.08,-71.28 0.84,-96.03 10.8,-54.12 19.53,-80.11 43.32,-132.56 12.6,-27.62 29.42,-68.27 34.06,-81.73 12.01,-35.07 16.17,-53.46 23.83,-74.19 42.44,70.78 94.73,143.87 125.78,224.32" /><path
             id="path114"
             style="fill:#ffffff;fill-opacity:1;fill-rule:nonzero;stroke:none"
             d="m 2221.56,1290.31 c 30.28,42.1 41.26,63.25 60.94,108.07 16.52,37.59 21.26,51.53 30.98,93.63 5.29,22.95 8.26,43.77 4.14,57.34 -23.62,-42.87 -39.87,-90.85 -70.83,-126.41 -24.54,-28.21 -48.24,-52.23 -67.79,-76.04 -29.96,-36.58 -53.64,-71.21 -82.38,-109.3 -2.4,19.09 -3.38,38.43 0.88,69.71 5.9,42.86 2.29,78 -5.2,119.5 -9.49,52.65 -16.44,78.71 -34.7,131.98 -22.33,-43.83 -22.27,-94.54 -27.88,-141.03 -10.86,-90.2 17.43,-197.76 22.98,-242.6 1.44,-11.81 -0.6,-40.96 -1.2,-52.32 42.2,33.23 79.75,66.79 116.14,103.29 16.59,16.54 39.29,43.95 53.92,64.18" /><path
             id="path116"
             style="fill:#ffffff;fill-opacity:1;fill-rule:nonzero;stroke:none"
             d="m 2061.59,959.531 c 19.19,13.84 70.83,53.299 95.27,84.349 35.6,45.21 43.45,64.58 66.93,116.59 2.83,6.34 16.17,35.78 17.25,55.78 -76.94,-92.91 -145.83,-106.74 -219.23,-183.84 -26.93,-28.24 -54.49,-54.832 -69.06,-68.16 -11.17,-10.281 -25.04,-13.391 -25.04,-13.391 0,0 1.43,19.801 8.66,33.582 48.98,93.589 58.23,191.439 50.76,296.449 -22.28,-27.67 -29.38,-46.15 -43.55,-72.91 -15.4,-29.15 -23.29,-47.17 -30.47,-65.11 -41.94,-104.29 -52.89,-224.749 -78.76,-285.37 79.97,26.922 142.88,41.309 227.24,102.031" /><path
             id="path118"
             style="fill:#ffffff;fill-opacity:1;fill-rule:nonzero;stroke:none"
             d="m 1733.85,713.43 c 21.66,-1.45 64,-1.321 86.62,2.359 114.39,18.313 220.69,101.211 274.19,192.27 -48.55,-29.59 -83.61,-49.34 -126.22,-64.11 -38.01,-13.121 -74.01,-17.008 -137.39,-35.019 -38.3,-10.809 -76.17,-26.121 -89.49,-31.102 -42.41,-15.797 -60.27,-11.918 -60.27,-11.918 0,0 0,6.449 15.84,23.731 31.58,34.461 43.16,42.699 69.1,69.187 8.56,8.75 28.11,38.481 38.02,58.25 28.07,55.883 31.2,100.672 56.86,162.062 -93.55,-54.94 -139.22,-130.749 -188.65,-226.32 -15.17,-29.269 -35.74,-63.082 -54.51,-81.66 -12.62,-12.469 -30.47,-31.422 -30.47,-31.422 0,0 13.05,-3.066 53.7,-9.066 18.2,-2.672 57,-14.762 92.67,-17.242" /><path
             id="path120"
             style="fill:#ffffff;fill-opacity:1;fill-rule:nonzero;stroke:none"
             d="m 1280.37,706.18 c -49.38,-8.078 -93.23,-20.078 -138.18,-35.489 -12.12,-4.152 -30.46,-13.281 -43.18,-19.73 -31.83,-16.199 -50.12,-26.723 -77.51,-45.531 -44.102,-30.352 -91.371,-63.051 -134.121,-112.668 -0.926,-0.981 -7.859,-8.364 -3.223,-11.961 8.387,-6.563 29.024,-15.903 35.817,-9.852 39.097,34.762 37.113,45.891 84.517,88.781 12.1,10.942 30.44,26.29 52.39,41.282 21.42,14.629 47.19,30.609 71.22,42.449 21.79,10.738 55.45,13.949 74.28,13.949 l -0.27,-0.14 c 8.59,0.332 57.83,0.609 69.27,-0.129 96.82,-6.641 92.06,-15.301 147.85,-30.422 45.94,-12.489 95.18,-21.379 144.08,-27.938 50.06,-6.812 94.91,-7.633 141.86,-2.84 63.66,6.559 133.26,24.297 185.2,57.789 -47.48,-0.8 -96.24,-9.929 -143.55,-6.308 -19.91,1.527 -52.13,4.527 -73.99,11.269 -43.42,13.329 -68.35,18.528 -114.29,31.348 -39.53,10.992 -79.36,14.801 -120.6,19.152 -57.13,6.11 -110.01,4.731 -157.57,-3.011" /><path
             id="path122"
             style="fill:#ffffff;fill-opacity:1;fill-rule:nonzero;stroke:none"
             d="m 1103.64,2834.64 -86.96,-322.87 H 924.375 L 866.637,2722.1 810.18,2511.77 h -92.082 l -86.95,322.87 h 86.903 l 49.531,-222.26 59.586,222.26 h 83.051 l 56.527,-222.26 52.004,222.26 h 84.89" /><path
             id="path124"
             style="fill:#ffffff;fill-opacity:1;fill-rule:nonzero;stroke:none"
             d="m 1390.51,2772.2 h -148.54 v -60.08 h 137.7 v -62.44 h -137.7 v -137.91 h -82.81 v 322.87 h 231.35 v -62.44" /><path
             id="path126"
             style="fill:#ffffff;fill-opacity:1;fill-rule:nonzero;stroke:none"
             d="m 1628.38,2730.88 c 0,9.08 -2.46,16.9 -7.36,23.46 -4.93,6.57 -10.63,11.14 -17.13,13.74 -8.68,3.46 -17.13,5.37 -25.37,5.74 -8.25,0.35 -19.24,0.54 -32.97,0.54 h -14.31 v -96.5 h 23.85 c 14.17,0 25.84,0.87 35.03,2.6 9.18,1.73 16.87,5.2 23.08,10.39 5.35,4.6 9.22,10.13 11.6,16.55 2.39,6.41 3.58,14.24 3.58,23.48 z m 86.09,1.85 c 0,-14.46 -2.54,-28.59 -7.59,-42.4 -5.06,-13.81 -12.29,-25.41 -21.68,-34.79 -12.88,-12.74 -27.22,-22.34 -43.05,-28.85 -15.82,-6.51 -35.53,-9.76 -59.08,-9.76 h -51.83 v -105.16 h -83.27 v 322.87 h 137.05 c 20.53,0 37.83,-1.77 51.92,-5.31 14.1,-3.55 26.58,-8.85 37.42,-15.94 13,-8.53 22.94,-19.44 29.81,-32.75 6.87,-13.3 10.3,-29.26 10.3,-47.91" /><path
             id="path128"
             style="fill:#ffffff;fill-opacity:1;fill-rule:nonzero;stroke:none"
             d="M 499.312,257.871 441.266,70.5508 H 377.52 L 339.352,196.82 301.645,70.5508 H 237.266 L 179.723,257.871 h 62.988 l 32.152,-129.09 39.965,129.09 h 53.207 l 38,-129.09 31.633,129.09 h 61.644" /><path
             id="path130"
             style="fill:#ffffff;fill-opacity:1;fill-rule:nonzero;stroke:none"
             d="m 649.77,286.059 h -4.493 c -2.66,0.781 -6.121,1.671 -10.394,2.671 -4.27,0.989 -8.844,1.5 -13.727,1.5 -11.754,0 -19.707,-2.109 -23.867,-6.339 -4.152,-4.231 -6.23,-12.403 -6.23,-24.52 v -1.5 h 46.199 V 217.168 H 593.059 V 70.5508 H 532.836 V 217.168 h -25.684 v 40.703 h 25.684 v 5.168 c 0,22.902 6.094,40.082 18.273,51.551 12.176,11.449 30.606,17.172 55.293,17.172 8.895,0 16.957,-0.301 24.184,-0.91 7.226,-0.614 13.625,-1.422 19.184,-2.422 v -42.371" /><path
             id="path132"
             style="fill:#ffffff;fill-opacity:1;fill-rule:nonzero;stroke:none"
             d="m 789.145,165.539 c 0,18.211 -3.106,31.43 -9.317,39.641 -6.211,8.211 -16.035,12.332 -29.457,12.332 -5.66,0 -11.484,-0.871 -17.473,-2.59 -5.988,-1.711 -11.703,-4.184 -17.14,-7.402 v -94.102 c 3.988,-1.559 8.265,-2.547 12.816,-2.996 4.547,-0.442 9.039,-0.672 13.477,-0.672 15.863,0 27.683,4.641 35.449,13.91 7.766,9.27 11.645,23.231 11.645,41.879 z m 61.886,1.262 c 0,-15.461 -2.363,-29.52 -7.082,-42.199 C 839.23,111.922 833.035,101.469 825.375,93.25 817.383,84.5781 808.324,78 798.223,73.5586 c -10.11,-4.4492 -20.938,-6.668 -32.493,-6.668 -10.656,0 -19.714,1.1406 -27.152,3.418 -7.441,2.2695 -15.047,5.4805 -22.82,9.582 V 1.82812 H 655.543 V 257.871 h 60.215 v -19.512 c 9.215,7.332 18.629,13.282 28.234,17.852 9.606,4.559 20.688,6.828 33.238,6.828 23.321,0 41.454,-8.559 54.391,-25.68 12.941,-17.129 19.41,-40.64 19.41,-70.558" /><path
             id="path134"
             style="fill:#ffffff;fill-opacity:1;fill-rule:nonzero;stroke:none"
             d="m 879.488,70.5508 h 62.3867 v 65.5586 H 879.488 Z" /><path
             id="path136"
             style="fill:#ffffff;fill-opacity:1;fill-rule:nonzero;stroke:none"
             d="m 1101.27,118.602 c 3.89,4.777 6.81,10.539 8.75,17.257 1.95,6.719 2.92,16.039 2.92,27.942 0,11 -0.99,20.23 -2.99,27.679 -2.01,7.45 -4.79,13.399 -8.34,17.848 -3.57,4.563 -7.85,7.793 -12.85,9.684 -5.01,1.879 -10.4,2.828 -16.18,2.828 -5.78,0 -10.92,-0.781 -15.43,-2.328 -4.51,-1.551 -8.82,-4.68 -12.93,-9.352 -3.67,-4.32 -6.58,-10.269 -8.76,-17.84 -2.16,-7.558 -3.24,-17.07 -3.24,-28.519 0,-10.242 0.94,-19.11 2.83,-26.61 1.89,-7.511 4.67,-13.531 8.33,-18.101 3.57,-4.328 7.82,-7.488 12.77,-9.5 4.94,-2.012 10.59,-3 16.93,-3 5.45,0 10.65,0.91 15.6,2.75 4.94,1.832 9.15,4.91 12.59,9.262 z m 73.89,45.539 c 0,-30.813 -8.99,-55.082 -26.94,-72.8207 -17.97,-17.7305 -43.17,-26.6015 -75.64,-26.6015 -32.47,0 -57.69,8.871 -75.646,26.6015 -17.957,17.7387 -26.938,42.0077 -26.938,72.8207 0,31.007 9.031,55.371 27.109,73.039 18.065,17.691 43.225,26.539 75.475,26.539 32.7,0 57.96,-8.899 75.8,-26.699 17.85,-17.79 26.78,-42.079 26.78,-72.879" /><path
             id="path138"
             style="fill:#ffffff;fill-opacity:1;fill-rule:nonzero;stroke:none"
             d="m 1336.89,200.66 h -5.33 c -2.56,0.891 -6.66,1.559 -12.32,2 -5.66,0.442 -10.37,0.668 -14.14,0.668 -8.55,0 -16.09,-0.558 -22.64,-1.668 -6.54,-1.121 -13.59,-3 -21.13,-5.672 V 70.5508 h -60.22 V 257.871 h 60.22 v -27.519 c 13.2,11.347 24.69,18.867 34.44,22.609 9.77,3.719 18.76,5.578 26.96,5.578 2.11,0 4.5,-0.059 7.17,-0.16 2.66,-0.117 4.99,-0.289 6.99,-0.508 V 200.66" /><path
             id="path140"
             style="fill:#ffffff;fill-opacity:1;fill-rule:nonzero;stroke:none"
             d="m 1475.76,129.609 v 84.903 c -3.44,1.429 -7.65,2.578 -12.65,3.41 -4.99,0.84 -9.49,1.258 -13.48,1.258 -15.76,0 -27.58,-4.539 -35.45,-13.61 -7.87,-9.05 -11.82,-21.699 -11.82,-37.941 0,-18 3.36,-30.57 10.08,-37.688 6.7,-7.121 16.66,-10.691 29.86,-10.691 6,0 11.88,0.949 17.64,2.852 5.77,1.878 11.06,4.378 15.82,7.507 z m 60.22,-37.5387 c 0,-17.5586 -2.5,-32.3594 -7.51,-44.3594 -5.01,-12.0195 -12.01,-21.4101 -21.03,-28.1914 -9,-6.9101 -19.86,-11.87888 -32.6,-14.92966 C 1462.11,1.53125 1447.73,0 1431.72,0 1418.71,0 1405.9,0.78125 1393.28,2.33984 1380.65,3.89062 1369.73,5.78906 1360.5,8 v 46.8789 h 7.33 c 7.33,-2.8906 16.26,-5.5273 26.82,-7.918 10.55,-2.3906 19.98,-3.5898 28.31,-3.5898 11.1,0 20.13,1.0273 27.07,3.0781 6.94,2.0625 12.24,4.9805 15.9,8.7617 3.45,3.5703 5.95,8.1172 7.49,13.668 1.56,5.5703 2.34,12.2422 2.34,20.0195 v 3.5118 c -7.22,-5.8985 -15.21,-10.5704 -23.99,-14.0118 -8.77,-3.4492 -18.55,-5.1679 -29.32,-5.1679 -26.22,0 -46.43,7.8906 -60.64,23.6914 -14.22,15.7771 -21.32,39.7971 -21.32,72.0471 0,15.453 2.17,28.801 6.49,40.031 4.33,11.23 10.44,21.02 18.32,29.359 7.34,7.782 16.36,13.84 27.07,18.172 10.72,4.348 21.69,6.508 32.91,6.508 10.11,0 19.3,-1.187 27.57,-3.578 8.27,-2.402 15.8,-5.691 22.58,-9.93 l 2.17,8.34 h 58.38 V 92.0703" /><path
             id="path142"
             style="fill:#ffffff;fill-opacity:1;fill-rule:nonzero;stroke:none"
             d="M 1751.25,330.102 1618.96,16.5117 h -51.19 l 131.74,313.5903 h 51.74" /><path
             id="path144"
             style="fill:#ffffff;fill-opacity:1;fill-rule:nonzero;stroke:none"
             d="m 1905.52,121.91 v 91.68 c -4.2,1.781 -8.62,3.058 -13.26,3.832 -4.64,0.777 -8.89,1.16 -12.77,1.16 -15.69,0 -27.46,-4.902 -35.3,-14.73 -7.85,-9.813 -11.78,-23.422 -11.78,-40.852 0,-18.301 3.16,-31.578 9.46,-39.852 6.28,-8.257 16.4,-12.386 30.33,-12.386 5.41,0 11.16,1.019 17.24,3.066 6.08,2.063 11.44,4.754 16.08,8.082 z m 59.98,-51.3592 h -59.98 V 90 c -10.3,-8.4297 -19.91,-14.6289 -28.87,-18.6211 -8.96,-3.9805 -19.32,-5.9687 -31.03,-5.9687 -22.68,0 -40.83,8.7382 -54.44,26.25 -13.6,17.4998 -20.41,41.0778 -20.41,70.7698 0,15.84 2.31,29.879 6.9,42.121 4.59,12.23 10.86,22.73 18.82,31.48 7.52,8.297 16.65,14.758 27.39,19.36 10.73,4.589 21.46,6.89 32.18,6.89 11.18,0 20.34,-1.191 27.47,-3.57 7.13,-2.391 14.47,-5.402 21.99,-9.063 v 79.422 h 59.98 V 70.5508" /><path
             id="path146"
             style="fill:#ffffff;fill-opacity:1;fill-rule:nonzero;stroke:none"
             d="m 2122.44,187.852 c -0.33,12.519 -3.44,21.929 -9.31,28.238 -5.86,6.32 -15,9.469 -27.41,9.469 -11.52,0 -20.98,-2.989 -28.41,-8.969 -7.42,-5.981 -11.58,-15.559 -12.46,-28.738 z m 59.48,-35.063 h -136.9 c 0.89,-14.617 6.45,-25.801 16.69,-33.559 10.25,-7.75 25.34,-11.628 45.27,-11.628 12.64,0 24.87,2.269 36.72,6.808 11.86,4.539 21.21,9.41 28.09,14.629 h 6.64 V 81.0195 c -13.52,-5.4297 -26.25,-9.3593 -38.22,-11.8007 -11.96,-2.4297 -25.19,-3.6485 -39.7,-3.6485 -37.43,0 -66.13,8.4102 -86.07,25.2578 -19.93,16.8199 -29.9,40.8129 -29.9,71.9339 0,30.789 9.44,55.187 28.33,73.179 18.88,18 44.78,27.008 77.67,27.008 30.35,0 53.16,-7.679 68.45,-23.008 15.29,-15.339 22.93,-37.41 22.93,-66.211 v -20.941" /></g></g></g></g></svg>