<?xml version="1.0" encoding="UTF-8" standalone="no"?>
<svg
   xmlns:dc="http://purl.org/dc/elements/1.1/"
   xmlns:cc="http://creativecommons.org/ns#"
   xmlns:rdf="http://www.w3.org/1999/02/22-rdf-syntax-ns#"
   xmlns:svg="http://www.w3.org/2000/svg"
   xmlns="http://www.w3.org/2000/svg"
   viewBox="0 0 1408.6934 377.94666"
   height="377.94666"
   width="1408.6934"
   xml:space="preserve"
   id="svg2"
   version="1.1"><metadata
     id="metadata8"><rdf:RDF><cc:Work
         rdf:about=""><dc:format>image/svg+xml</dc:format><dc:type
           rdf:resource="http://purl.org/dc/dcmitype/StillImage" /></cc:Work></rdf:RDF></metadata><defs
     id="defs6"><clipPath
       id="clipPath20"
       clipPathUnits="userSpaceOnUse"><path
         id="path18"
         d="M 0,0 H 10565 V 2834.64 H 0 Z" /></clipPath></defs><g
     transform="matrix(1.3333333,0,0,-1.3333333,0,377.94667)"
     id="g10"><g
       transform="scale(0.1)"
       id="g12"><g
         id="g14"><g
           clip-path="url(#clipPath20)"
           id="g16"><path
             id="path22"
             style="fill:#ffffff;fill-opacity:1;fill-rule:nonzero;stroke:none"
             d="m 1340.51,2134.11 c 12.51,27.07 24.09,48.62 40.79,74.31 7.37,11.32 15.69,19.21 23.11,30.67 -3.55,1.02 -8.73,-1.91 -10.96,-3.5 -7.42,-5.38 -10.77,-14.13 -16.71,-18.8 -14.03,-11.08 -13.64,-21.11 -21,-26.28 -6.57,-4.64 -8.45,-7.69 -13.05,-14.9 -3.08,-4.83 -5.35,-8.73 -8.6,-18.23 -1.15,-3.43 -3.45,-0.4 -8.93,-7.93 -7.18,-9.81 -10.4,-20.4 -13.38,-32.27 -0.96,-3.9 -7.59,-5.96 -11.86,-14.06 -5.71,-10.92 -9.43,-21.04 -11.9,-36.96 -0.62,-3.69 -6.86,-6.25 -11.16,-16.52 -3.05,-7.24 -5.24,-8.83 -7.91,-22.46 -1.64,-8.31 -5.42,-9.51 -9.69,-21.56 -3.3,-9.21 -3.43,-18.07 -4.58,-30.08 -0.27,-2.34 -4.21,-6.95 -7.84,-13.69 -6.09,-11.27 -5.89,-18.79 -8.32,-30.41 -0.92,-4.21 -5.63,-9.78 -10.17,-27.8 -3.98,-15.97 -0.33,-26.57 -1.68,-34.45 -3.53,-20.45 -7.04,-38.21 -5.14,-58.35 0.94,-9.85 2.44,-20.01 1.79,-29.48 -1.88,-29.7 -3.49,-54.17 -3.33,-87.82 0.11,-18.33 1.54,-43.42 4.31,-64.3 3.05,-23.06 7.44,-41.06 7.44,-41.06 h 75.14 c 0,0 -2.93,43.45 0.96,89.18 2.3,27.42 8.83,56.48 14.76,76.89 7.5,26.03 12.18,39.51 26.37,73.86 0.3,0.75 -0.1,3.97 -3.85,0.83 -7.84,-6.59 -14.38,-12.38 -20.57,-21.69 -9.46,-14.26 -15.22,-26 -22.88,-40.64 -8.95,-17.01 -13.88,-31.84 -23.1,-52.52 -0.56,14.92 1.87,29.12 4.89,42.87 3.11,14.04 5.58,25.16 9.98,37.26 7.84,21.35 15.43,39.17 27.99,59.03 7.28,11.47 16.58,21.77 26.02,30.32 11.29,10.32 21.73,19.39 33.55,29.5 -12.42,6.4 -28.96,-6.96 -32.27,-7.64 -17.47,-3.41 -24.58,-19.62 -29.94,-21.83 -7.64,-3.2 -12.07,-7.88 -17.38,-14.33 -4.08,-4.85 -5.3,-12.33 -9.59,-14.98 -7.12,-4.45 -12.36,-11.15 -17.26,-20.5 -2.01,-3.87 -7.49,-22.13 -13.6,-19.79 10.43,61.93 32.29,120.01 67.38,171.7 22.26,32.77 46.46,60.89 82.13,86.1 4.69,3.33 5.61,4.89 -0.95,4.66 -33.34,-4.05 -35.38,-19.28 -40.87,-20.71 -5.21,-1.35 -11.65,-7.52 -15.77,-11.53 -7.41,-7.33 -7.28,-13.5 -10.13,-15.43 -6.08,-4.24 -10.66,-8.65 -14.82,-16.02 -2.17,-3.84 -5.85,-12.31 -9.1,-14.23 -8.56,-4.97 -16.86,-12.2 -20.99,-19.99 -3.05,-5.71 -4.27,-11.89 -8.25,-17.5 -4.27,-6.02 -10.23,-10.53 -15.36,-14.88 3.9,26.47 16.36,57.82 24.95,84.87 11.54,36.12 25.54,68.95 41.33,103.07" /><path
             id="path24"
             style="fill:#ffffff;fill-opacity:1;fill-rule:nonzero;stroke:none"
             d="m 1417.22,1919.61 c 28.44,63.85 58.37,111.91 97.26,168.12 5.09,7.36 9.64,14.57 14.08,21.48 2,3.11 11.56,16.86 13.55,19.77 13.04,19.68 18.52,25.7 31.87,44.52 3.61,5.11 6.54,9.13 8.08,15.04 2.84,11.02 -6.61,18.4 -8.78,28.97 -2.21,10.78 -1.01,22.56 3.95,31.67 3.1,5.7 6.19,7.93 9.31,15.58 6.06,14.73 3.97,46.59 10.88,47.43 -1.76,-15.13 -2.16,-32.13 0.22,-46.64 2.76,-16.92 13.04,-27.18 17.27,-45.11 11.42,2.06 23.84,1.57 33.45,0.74 9.54,-0.81 21.61,1.84 31.4,5.18 13.26,4.53 24.27,12.79 37.79,15.98 -11.5,-11.05 -27.73,-15.2 -41.32,-23.58 -5,-3.15 -9.71,-7.3 -13.05,-12.46 -5.48,-8.5 -9.79,-16.64 -18.35,-20.37 -15.2,-6.63 -28.24,-3.49 -45.57,-6.71 -25.76,-26.54 -50.01,-62.63 -72.38,-100.59 -56.73,-95.96 -104.03,-195.36 -131.54,-297.29 9.51,17.74 18.6,34.89 28.9,51.77 11.38,18.74 24.18,37.08 38.13,55.46 32.66,43.06 64.97,80.63 101.17,120.19 29.22,31.96 61.25,58.76 96.96,81.18 47.19,29.57 105.41,50.29 156.57,39.6 5.81,-1.36 14.13,-2.91 17.77,-6.74 -64.12,8.99 -121.55,-13.42 -164.4,-47.75 -33.86,-27.07 -62.39,-54.56 -91.39,-90.26 -14.98,-17.21 -28.45,-36.12 -41.84,-54.45 -14.01,-19.27 -26.44,-39.55 -38.76,-59.82 -41.55,-68.61 -73,-141.26 -96.12,-216.52 -0.66,-2.38 -0.81,-4.78 -1.47,-7.15 1.11,1.68 2.73,3.52 3.82,5.25 31.12,50.6 68.55,99.44 115.96,132.21 4.13,2.83 8.46,8.25 9.56,12.54 5.13,20.08 -10.18,29.74 11.01,57.52 4.86,6.37 11.5,8.7 16.09,14.63 8.67,13.4 15.74,37.41 23,43.86 -3.65,-15.63 -12.61,-32.14 -14.53,-48.25 -2.03,-17.68 2.49,-32.15 3.28,-50.89 12.52,-1.71 22.2,-7.01 32.03,-10.04 15.28,-4.77 24.45,-3.56 39.57,-2.25 6.45,0.55 18.15,4.32 25.11,2.9 -14.62,-7.99 -34.35,-6.52 -49.3,-14.15 -10.45,-5.35 -13.48,-13.27 -27.91,-16.05 -12.84,-2.5 -23.63,-1.16 -31.98,3.13 -6.49,3.27 -11.56,4.63 -17.39,1.85 -15.56,-7.48 -26.18,-18.02 -38.7,-30.66 -29.08,-29.26 -52.82,-61.92 -74.97,-104.74 -5.85,-11.4 -11.12,-22.65 -16.13,-34.25 -2.46,-5.66 -8.58,-21.34 -8.58,-21.34 h -75.99 c 0,0 -0.19,21.91 0.52,29.91 1.46,15.94 3.62,27.76 6.72,43.93 4.41,23.27 8.72,44.37 14.75,66.94 5.89,21.96 12.22,42.56 19.75,63.65 15.71,43.96 32.4,86.06 50.67,127.06" /><path
             id="path26"
             style="fill:#ffffff;fill-opacity:1;fill-rule:nonzero;stroke:none"
             d="m 682.555,1327.77 c 27.734,22.68 48.265,35.81 75.957,52.32 11.246,6.72 28.258,14.33 41.336,20.26 47.984,21.69 111.464,37.66 171.269,38.77 1.086,0 1.016,-0.05 1.016,-0.05 h 445.907 c 0,0 -1.67,0.05 1.56,0.05 14.19,0 28.23,-4.94 36.92,-13.13 8.69,-8.26 12.86,-20.98 15.13,-33.63 1.92,-10.78 0.98,-20.37 -1.53,-31.9 -1.96,-9.11 -3.44,-14.54 -8.5,-22.28 -3.08,-4.71 -5.99,-7.93 -11.68,-12.48 -5.86,-4.68 -14.17,-6.31 -23.68,-6.4 -1,-0.04 -3.12,-0.09 -3.05,-0.08 0.1,0.08 -521.565,0.08 -521.565,0.08 0,0 -3.243,0.01 -4.872,0.01 -34.144,0.12 -70.093,-1.62 -103.835,-6.03 -25.844,-3.53 -51.743,-7.55 -76.723,-14.06 -31.504,-8.23 -61.836,-19.61 -92.117,-30.9 16.785,22.3 36.16,41.24 58.457,59.45" /><path
             id="path28"
             style="fill:#ffffff;fill-opacity:1;fill-rule:nonzero;stroke:none"
             d="m 837.387,1505.18 c 27.398,19.79 60.66,36.03 90.125,47.31 14.949,5.66 34.812,11.93 50.593,15.87 19.063,4.8 40.965,8.4 58.835,8.93 5.38,0.15 0.79,0.04 0.79,0.04 l 382.45,0.04 c 0,0 8.2,-0.44 11.04,-0.99 7.18,-1.55 12.99,-4.49 15.39,-6.02 5.94,-3.8 13.39,-11.81 17.3,-18.14 9.93,-16.35 11.68,-34 8.47,-52.36 -3.68,-20.98 -19.62,-44.87 -41.24,-45.46 -3.76,-0.1 -11.28,0 -11.28,0 h -414.23 c 0,0 -24.11,-0.47 -35.122,-0.87 -20.375,-0.8 -42.965,-3.12 -60.75,-5.74 -15.215,-2.19 -30.078,-5.07 -45.317,-9.14 -51.066,-13.81 -95.441,-39.71 -141.851,-59.84 31.254,54.63 73.539,96.48 114.797,126.37" /><path
             id="path30"
             style="fill:#ffffff;fill-opacity:1;fill-rule:nonzero;stroke:none"
             d="m 623.438,1245.24 c 66.488,39.28 146.582,54.78 219.886,57.23 1.742,0.09 5.223,0.19 5.223,0.19 l 571.743,-0.05 c 0,0 1.03,0 6.21,0.05 34.65,0.03 47.3,-34.34 47.14,-62.16 -0.07,-9.14 -1.62,-18.49 -4.16,-24.76 -3.29,-8.19 -6.94,-14.88 -12.89,-21.33 -2.12,-2.34 -9.78,-7.73 -13.17,-8.56 -7.93,-1.94 -17.67,-1.72 -17.61,-1.72 0.07,0 -425.27,-0.08 -425.27,0 0,0 -22.946,0.92 -38.868,2.46 -11.473,1.13 -20.18,2.33 -32.094,4.6 -29.285,5.81 -53.562,15.35 -78.926,23.17 -16.918,5.23 -34.714,9.12 -53.273,11.93 -34.137,5.23 -71.418,7.6 -105.891,5 -43.847,-3.27 -82.843,-11.86 -124.554,-25.09 7.054,10.99 36.371,27.13 56.504,39.04" /><path
             id="path32"
             style="fill:#ffffff;fill-opacity:1;fill-rule:nonzero;stroke:none"
             d="m 931.395,1065.96 c -19.543,6.9 -38.614,15.78 -55.719,27.08 -22.285,14.75 -33.211,26.48 -62.008,39.78 -24.648,11.4 -44.328,22.63 -78.691,35.08 -16.582,6.01 -43.446,14.27 -66.481,18.23 -32.906,5.59 -64.633,8.03 -64.633,8.03 0,0 6.719,4.19 10.77,5.44 33.586,10.21 63.25,15.21 97.738,17.76 30.246,2.27 58.035,-0.69 88.356,-5.42 12.441,-1.97 28.613,-5.79 42.668,-9.81 45.636,-12.98 97.523,-33.59 143.546,-33.67 2.571,0 2.278,0.05 2.278,0.05 h 425.021 c 0,0 -3.21,0 1.3,0 12.87,0.03 36.93,-4.13 46.6,-21.21 11.2,-19.69 14.68,-43.12 5.27,-66.6 -2.85,-7.06 -7.57,-17.16 -14.38,-23.29 -5.96,-5.39 -15.66,-8.86 -21.26,-8.86 -1.62,-0.08 -4.39,0 -4.39,0 h -371.71 c 0,0 1.41,0 -2.02,0 -38.01,0 -85.853,4.6 -122.255,17.41" /><path
             id="path34"
             style="fill:#ffffff;fill-opacity:1;fill-rule:nonzero;stroke:none"
             d="m 1100.71,934.121 c -10.51,10.801 -25.01,27.34 -38.15,43.027 -25.22,30.092 -36.52,57.182 -36.52,57.182 h 247.92 c 0,0 0.66,-28.6 -5.07,-61.721 -5.36,-30.757 -16.72,-63.179 -28.8,-86.668 -0.44,-24.082 9.72,-46.461 11.39,-70.25 -20.36,-12.5 -42.26,-24.882 -60.52,-42.429 -1.16,-1.071 -3.04,-1.071 -3.81,1.816 -9.78,36.66 -14.94,69.363 -22.95,105.602 -22.6,17.468 -43.8,33.039 -63.49,53.441" /><path
             id="path36"
             style="fill:#ffffff;fill-opacity:1;fill-rule:nonzero;stroke:none"
             d="m 1356.21,954.449 c -7.01,12.961 -12.25,30.063 -20.29,40.223 -1.73,-9.07 0.4,-14.652 -0.83,-23.332 -1.13,-7.27 -7.1,-4.25 -8.3,-0.828 -3.47,9.847 -7.17,21.988 -10.35,32.068 -5.29,16.81 -6.98,31.69 -6.98,31.69 l 41.24,0.06 c 0,0 1.59,-0.39 2.32,-4.41 1.97,-10.39 1.49,-20.54 4.34,-32.58 3.65,-15.512 8.36,-29.672 14.06,-44.129 4.95,-12.731 11.35,-25.57 16.55,-38.211 0.7,-1.66 1.05,-4.852 -0.21,-6.512 -1.53,-1.929 -4.16,-1.687 -5.67,0 -11.81,13.422 -16.58,28.633 -25.88,45.961" /><path
             id="path38"
             style="fill:#ffffff;fill-opacity:1;fill-rule:nonzero;stroke:none"
             d="m 1420.05,924.98 c -7.01,14.942 -16.88,31.75 -16.02,48.711 4.56,-5.98 6.44,-10.293 12.72,-13.632 2.87,-0.899 8.89,-0.047 7.38,4.972 -2.77,9.34 -7.08,17.25 -11.06,30.059 -5.92,18.96 -11.68,39.21 -11.68,39.21 l -42.09,0.03 c 0,0 2.34,-17.08 11.91,-43.291 8.4,-23.219 21.39,-49.777 35.61,-74.68 11.58,-20.48 22.11,-38.347 35.25,-53.308 4.5,-5.141 15.54,-0.621 10.76,6.078 -12.47,17.621 -24.11,37.172 -32.78,55.851" /><path
             id="path40"
             style="fill:#ffffff;fill-opacity:1;fill-rule:nonzero;stroke:none"
             d="m 1693.41,2347.86 c -9.14,-3.98 -17.21,-9.13 -21.77,-17.91 -3.32,-6.31 -5.55,-15.93 0.79,-21.34 11.11,-9.48 24.37,0.23 29.75,9.92 6.78,12.34 5.02,35.95 5.02,35.95 0,0 -7.9,-4.11 -13.79,-6.62" /><path
             id="path42"
             style="fill:#ffffff;fill-opacity:1;fill-rule:nonzero;stroke:none"
             d="m 1703.07,2288.92 c 4,7.53 12.74,15.68 22.33,21.51 10.84,6.62 22.07,13.06 29.88,17.71 7.81,4.7 9.3,7.99 9.3,7.99 0,0 -6.44,-2.21 -9.96,-4.29 -19.27,-11.5 -40.31,-24.56 -48.86,-28.33 -10.8,-4.71 -25.48,-5.62 -38.71,-7.3 -2.11,16.68 -6.44,23.61 -6.39,38.43 0.11,7.11 1.84,16.34 3.04,22.78 4.14,21.42 4.95,32.24 4.95,32.24 0,0 -3.27,-3.05 -4.47,-12.48 -1.34,-8.52 -2.3,-11.66 -4.25,-21.73 -2.23,-11.63 -4.55,-21.47 -11.5,-28.75 -10.02,-10.35 -19.3,-28.81 -11.56,-42.95 4.51,-8.26 12.04,-7.06 14.4,-9.18 2.35,-2.12 3.79,-7.21 10.92,-9.58 15.39,-5.13 32.83,8.67 40.88,23.93" /><path
             id="path44"
             style="fill:#ffffff;fill-opacity:1;fill-rule:nonzero;stroke:none"
             d="m 1683.12,2244.84 c 5.22,8.48 10.58,14.43 18.81,19.49 13.66,8.32 23.8,13.97 32.13,18.22 3.62,1.82 6.64,3.99 7.56,7.85 -3.73,-1.41 -17.84,-8.04 -31.84,-16.36 -10.03,-5.99 -27.27,-13.46 -38.86,-13.99 -4.58,-0.21 -7.99,0.92 -11.74,1.04 -7.76,0.32 -17.66,-1.55 -17.66,-1.55 0,0 -2.51,10.98 -5.82,18.89 -1.67,4.05 -4.36,8.22 -5.8,15.82 -0.98,5.08 -1.27,12.71 -0.87,17.25 1.13,13.73 4.84,27.07 4.2,40.97 -8.63,-17.92 -5.1,-40 -15.23,-53.88 -4.27,-5.83 -7.66,-10.43 -11.02,-17.77 -5.56,-12.06 -4.9,-24.56 2.62,-36.18 4.33,-6.64 13.91,-6.39 15.56,-7.67 2.51,-1.86 4.65,-8.79 14.01,-10.87 16.01,-3.6 34.9,3.83 43.95,18.74" /><path
             id="path46"
             style="fill:#ffffff;fill-opacity:1;fill-rule:nonzero;stroke:none"
             d="m 1687.59,1894.25 c 3.73,7.54 6.14,17.43 10.89,24.41 -10.76,-1.61 -12.5,-2.84 -28.04,-4.54 -3.39,-0.32 -10.4,-3.85 -12.72,-6.16 -6.15,-6.21 -11.51,-11.96 -9.13,-22.38 0.92,-4.04 4.5,-7.02 6.49,-7.64 12.93,-4.21 26.06,3.48 32.51,16.31" /><path
             id="path48"
             style="fill:#ffffff;fill-opacity:1;fill-rule:nonzero;stroke:none"
             d="m 1700.71,1873.73 c 14.69,3.43 31.67,10.64 38.48,8.37 -13.79,-7.33 -31.17,-9.99 -46.44,-14.35 -11.66,-3.36 -19.98,-12.16 -30.38,-20.14 -9.55,-7.27 -22.25,-10.23 -33.59,-4.89 -3.82,1.82 -7.54,7.99 -8.21,11.28 -0.59,2.64 -6.06,5.27 -8.88,7.58 -2.84,2.36 -4.2,8.26 -4.26,10.53 -0.49,20.33 14.99,28.55 29.89,40.49 11.23,8.99 25.81,47.16 34.7,55.08 -1.58,-12.31 -17.57,-35.52 -24.54,-53.58 -5.54,-14.39 -3.73,-25.9 -7.29,-41.05 10.66,-0.68 22.54,-2.91 33.27,-3.09 8.42,-0.11 18.6,1.73 27.25,3.77" /><path
             id="path50"
             style="fill:#ffffff;fill-opacity:1;fill-rule:nonzero;stroke:none"
             d="m 1685.24,1842.38 c -8.26,-1.53 -18.35,-4.13 -25.24,-5.58 -23.96,-5.08 -35.4,6.66 -54.53,6.43 1.69,21.91 -5.92,31.72 0.34,45.88 5.59,12.59 10.76,25.93 15.56,36.61 3.89,8.56 5.07,15.79 5.07,15.79 0,0 -5.81,-8.69 -22.32,-40.85 -5.74,-11.23 -16.02,-13.64 -25.15,-24.24 -10.51,-12.12 -16.53,-37.75 2.9,-48.5 3.86,-2.12 3.3,-8.79 6.11,-11.48 12.98,-12.21 39.19,-10.98 55.58,3.9 13.05,11.9 28.91,13.83 42.42,17.33 7.91,2.04 14.84,5.39 14.84,5.39 0,0 -3.75,1.54 -15.58,-0.68" /><path
             id="path52"
             style="fill:#ffffff;fill-opacity:1;fill-rule:nonzero;stroke:none"
             d="m 1205.23,1588.14 c -0.95,0 -1.96,0 0,0 z m -111.89,315.54 c -7.98,-10.56 -11.68,-22.7 -20.5,-31.91 -4.6,-4.84 -11.62,-2.58 -15.27,2.98 -4.04,6.29 -10.59,15.19 -5.72,21.4 8,10.26 24.75,16.81 39,14.96 0.84,-0.1 5.43,-3.49 2.49,-7.43 z M 1055,1843.29 c -4.47,-11.97 -17.8,-13.25 -29.14,-15.62 -2.12,-0.46 -8.64,0 -11.57,2.88 -4.9,4.79 -9.14,11.34 -8.29,19.54 0.46,5.05 4.68,10.01 9.9,12.02 9.47,3.67 20.7,9.58 30.03,4.34 8.03,-4.5 12.24,-14.74 9.07,-23.16 z m -24.55,-63.22 c -3.26,-4.71 -11.64,10.95 -12.73,18.12 -3.13,20.77 15.07,26.07 30.24,25.43 0.47,-12.38 -9.13,-31.56 -17.51,-43.55 z m -16.38,-56.04 c -2.98,-8.34 -4.41,-16.03 -7.73,-23.68 -3.22,-7.4 -16.969,-10.04 -24.602,-7.67 -10.894,3.38 -20.238,27.83 -7.855,37.2 9.476,7.08 19.293,8.22 31.357,9.7 2.17,0.26 10.28,-0.23 10.59,-0.99 2.03,-5.07 0.75,-7.61 -1.76,-14.56 z m -18.34,-64.58 c -2.207,-6.41 -3.179,-13.02 -6.019,-19.19 -1.418,-3.12 -3.285,0.98 -3.359,1.19 -4.282,10.65 -6.981,19.65 -3.332,29.02 2.062,5.2 9.164,9.97 15.902,10.38 -0.414,-6.66 -0.891,-14.9 -3.192,-21.4 z m -21.648,-31.49 c -4.922,2.23 -4.848,8.55 -6.91,12.49 -1.942,3.84 -6.133,9.13 -4.406,14.16 9.496,-5.32 13.898,-14.82 11.316,-26.65 z m -16.387,39.32 c -11.332,9.31 -12.312,24.21 -19.863,35.61 8.336,5.33 22.387,4.26 26.711,-6.29 3.453,-8.48 5.965,-20.93 -2.633,-27.41 -0.933,-0.68 -3.14,-2.81 -4.215,-1.91 z m -42.246,76.84 c -1.699,2.43 -5.062,9.43 -2.5,10.32 20.281,6.99 35.504,7.21 39.832,-14.49 3.071,-15.48 -7.508,-28.77 -22.332,-23.35 -4.25,1.57 -8.461,18.06 -15,27.52 z m -29.496,49 c -1.422,1.78 -2.578,7.17 -0.808,8.56 10.546,8.48 26.031,9.12 38.019,7.95 15.813,-1.44 19.059,-16.13 16.422,-28.32 -3.481,-16.04 -27.805,-18.03 -34.691,-15.36 -6.77,2.6 -11.493,17.93 -18.942,27.17 z m 3.442,57.03 c 13.664,8.85 39.785,15.43 44.14,-8.57 1.32,-7.23 -0.484,-16.82 -10.25,-19.97 -10.031,-3.22 -21.847,-6.68 -31.012,-2.97 -11.273,4.62 -13.488,24.65 -2.878,31.51 z m -14.165,40.35 c 1.032,4.61 6.133,6.78 10.418,7.88 11.063,2.73 23.43,6.85 33.582,0.39 3.958,-2.51 4.262,-6.05 4.778,-11.02 0.898,-8.07 -0.246,-14.66 -5.563,-17.75 -10.773,-6.32 -21.734,-6.89 -34.257,-4.42 -10.157,2 -10.985,15.46 -8.958,24.92 z m -11.335,-62.2 c -9.469,7 -13.657,16.9 -20.637,26.71 -1.688,2.4 0,3.39 1.293,3.77 16.804,4.75 29.277,-3.64 26.66,-21.97 -0.469,-3.55 -2.781,-11.85 -7.316,-8.51 z m -46.383,56.6 c -6.301,5.45 -1.922,14.92 3.566,17.69 9.61,4.77 24.707,5.49 34.703,2.11 6.43,-2.15 9.684,-11.39 8.531,-21.46 -0.484,-4.13 -1.746,-8.67 -3.765,-10.02 -7.613,-5.18 -19.391,-5.4 -28.649,-3.46 -6.55,1.38 -8.886,10.33 -14.386,15.14 z m -7.262,57.26 c 6.09,13.25 28.305,13.36 40.402,7.46 9.856,-4.85 11.094,-23.2 0.332,-30.43 -8.586,-5.72 -22.113,-3.62 -31.218,-1.95 -12.934,2.38 -13.965,15.1 -9.516,24.92 z m 0.492,49.6 c 9.231,8.78 21.188,4.75 32.305,3.21 2.152,-0.3 4.719,-1.81 6.176,-3.27 7.589,-7.67 8.187,-20.24 -0.262,-26.53 -9.75,-7.24 -21.926,-2.53 -33.645,-1.94 -3.164,0.13 -6.644,3.84 -7.367,6.22 -2.109,7.43 -3.387,16.5 2.793,22.31 z m 5.946,41.5 c 9.8,4.08 26.636,5.96 33.578,-5.04 4.261,-6.74 3.019,-19.22 -3.817,-21.03 -6.691,-1.73 -29.457,-5.51 -34.906,7.08 -2.699,6.18 -1.559,16.17 5.145,18.99 z m 30.164,35.25 c 2.836,-1.25 4.601,-3.52 5.273,-7.01 1.395,-7.55 -0.594,-15.75 -7.84,-17.07 -10.89,-1.99 -27.055,-2.62 -27,12.78 0.039,17.17 16.957,16.98 29.567,11.3 z m -21.918,31.92 c 5.793,2.21 15.332,1.72 20.531,-0.99 2.625,-1.36 6.152,-5.68 4.668,-10.23 -1.848,-5.92 -7.363,-8.06 -13.629,-8.14 -6.02,-0.05 -12.926,0.43 -15.356,5.35 -2.308,4.65 -1.328,12.04 3.786,14.01 z m 6.765,25.75 c 5.297,1.93 13.129,1.79 16.985,-2.39 5.3,-5.8 1.117,-14.99 -8.887,-14.54 -3.524,0.15 -7.695,1.36 -9.824,2.57 -5.172,2.92 -3.457,12.5 1.726,14.36 z m 23.813,16.58 c 0.679,2.24 4.16,4.85 5.98,5.49 3.973,1.42 8.629,1.71 12.43,0.19 7.601,-3.13 6.558,-12.53 -1.559,-15.83 -3.633,-1.47 -9.215,-2.42 -11.953,-1.47 -5.113,1.74 -6.531,6.17 -4.898,11.62 z m 23.683,-36.77 c -8.293,-2.42 -19.847,-2.89 -22.324,5.61 -4.203,14.43 14.004,16.58 23.445,13.55 6.516,-2.06 8.817,-16.3 -1.121,-19.16 z m 5.489,47.63 c 2.628,8.95 12.757,13.79 21.933,11.06 7.887,-2.31 9.707,-13.06 4.379,-18.28 -2.41,-2.35 -6.406,-4.74 -10.703,-5.69 -9.387,-2.1 -18.598,3.08 -15.609,12.91 z m 41.254,-32.78 c -1.485,-5.83 -5.766,-9.85 -12.618,-11.36 -6.804,-1.5 -16.215,-1.91 -19.984,2.29 -3.602,3.98 -5.254,9.57 -2.25,13.87 6.019,8.56 17.043,11.56 26.867,9.38 5.606,-1.31 9.727,-7.05 7.985,-14.18 z m -3.665,34.3 c 3.665,8.11 12.957,12.19 21.883,9.47 1.785,-0.57 5.469,-3.45 5.977,-6.29 1.058,-5.64 -0.899,-10.79 -5.606,-13.74 -6.035,-3.84 -11.019,-6.01 -17.949,-3.16 -5.207,2.17 -6.476,8.93 -4.305,13.72 z m 38.442,-22.78 c 4.074,-6.9 -2.129,-13.83 -5.281,-15.73 -6.981,-4.09 -16.84,-6.6 -21.047,0.33 -4.145,6.79 -0.715,14.85 6.508,17.84 6.894,2.87 14.031,7.2 19.82,-2.44 z m 11.586,-26.37 c 4.562,-3.77 8.566,-11.7 3.097,-17.96 -5.132,-5.91 -11.515,-7.67 -19.586,-8.98 -5.46,-0.93 -12.437,3.11 -13.324,7.93 -0.808,4.15 -1.57,11.73 2.547,15.21 8.024,6.83 18.777,10.79 27.266,3.8 z m 9.672,44.99 c 4.312,-1.27 7.066,-5.83 4.906,-10.23 -1.313,-2.7 -5.184,-5.64 -7.649,-7.15 -6.765,-4.17 -12.57,-2.46 -14.687,2.51 -3.898,9.15 9.207,17.29 17.43,14.87 z m 16.504,-22.8 c 4.753,-0.41 6.933,-3.73 7.863,-7.36 1.23,-4.87 -0.37,-9.37 -4.48,-12.14 -4.895,-3.25 -10.993,-5.17 -15.868,-5.25 -6.594,-0.11 -12.699,9.56 -9.129,15.86 3.785,6.74 13.309,9.61 21.614,8.89 z m 27.283,-34.89 c 2.8,-8.27 -3.27,-12.14 -9.66,-15.54 -6.51,-3.46 -15.23,-6.7 -19.745,-2.39 -5.765,5.44 -8.332,14.58 -1.902,20.6 8.917,8.37 25.407,14.65 31.307,-2.67 z m 11.77,-20.77 c 10.46,-1.32 12.54,-16.2 10.43,-21.58 -2.39,-4.62 -7.66,-8.24 -10.43,-9.65 -7.67,-3.96 -16.64,-5.46 -23.69,-1.81 -6.43,3.34 -9.21,13.09 -5.72,20.73 4.73,10.34 19.63,13.6 29.41,12.31 z m 21.52,-46.04 c 3.58,-5 2.8,-13.87 0.67,-16.66 -6.59,-9.01 -24.96,-14.16 -32.53,-10.47 -5.76,2.82 -11.44,15.5 -4.7,23.12 7.01,7.89 19.22,12.6 30.31,10.29 2.46,-0.54 4.09,-3.27 6.25,-6.28 z m 4.64,-28.36 c 5.04,-0.55 9.51,-6.08 11.94,-12.12 3.16,-7.8 -0.03,-16.89 -2.53,-18.59 -6.02,-4.09 -25.08,-15.56 -37.08,-8.69 -6.6,3.79 -8.42,12.44 -8.83,17.55 -1.33,16.51 23.72,23.27 36.5,21.85 z m -70.393,-118.1 c -2.567,6.55 -4.942,16.24 0.203,20.22 10.39,8.2 33.89,15.37 42.83,2.97 5.81,-8.05 4.11,-21.69 -6.07,-26.92 -10.5,-5.36 -31.037,-11.53 -36.963,3.73 z m -50.41,-0.72 c 10.429,5.3 25.457,11.7 36.687,4.47 5.137,-3.29 10.442,-16.97 6.817,-23.03 -7.7,-12.87 -27.961,-16.14 -40.844,-12.83 -10.969,2.84 -14.274,25.52 -2.66,31.39 z m -9.379,44.49 c 12.586,8.86 37.437,14.58 43.422,-4.77 1.554,-5.02 2.441,-10.57 -0.121,-14.62 -6.973,-11.21 -24.661,-14.16 -36.497,-12.49 -12.8,1.86 -18.847,23.43 -6.804,31.88 z m -10.594,45.07 c 12.09,6.86 37.856,15.97 43.926,-3.66 2.43,-8.04 2.183,-17.95 -4.695,-21.49 -9.848,-5.17 -25.457,-10.59 -36.809,-3.5 -9.481,5.99 -10.762,23.89 -2.422,28.65 z m 67.676,81.04 c -5.063,-4.52 -10.203,-5.49 -16.942,-7.78 -9.437,-3.2 -19.312,4.07 -20.402,13.09 -1.816,15.46 14.75,17.77 25.707,19.69 7.988,1.44 12.938,-5.73 14.41,-10.55 1.504,-4.65 1.309,-10.87 -2.773,-14.45 z m 20.31,-36.37 c -7.19,-10.72 -36.166,-17.46 -42.556,-6.44 -4.668,8.06 -7.574,19.39 1.203,24.8 9.215,5.66 20.137,9.06 30.863,7.12 10.08,-1.78 15.21,-18.37 10.49,-25.48 z m 15.45,-66.34 c 4.12,-6.55 7,-15.37 0.88,-23.51 -5.56,-7.46 -25.37,-10.95 -35.519,-8.49 -5.566,1.4 -8.199,8.17 -9.051,12.72 -1.176,6.18 -1.73,12.39 3.731,17.42 7.851,7.2 18.339,7.05 28.409,7.05 4.14,0 9.99,-2.69 11.55,-5.19 z m -5.76,22.26 c -6.18,-11.33 -27.09,-12.79 -36.492,-11.54 -6.625,0.89 -11.289,11.56 -11.094,20.5 0.066,4.6 1.5,7.64 4.641,9.33 10.445,5.61 21.132,9.36 32.375,7.53 10.96,-1.73 15.22,-17.22 10.57,-25.82 z m -110.078,24.43 c -7.106,21.88 20.226,28.78 36.176,25.41 11.105,-2.32 14.812,-23.65 4.48,-30.39 -12.785,-8.31 -35.477,-11 -40.656,4.98 z m -41.211,-53.73 c 8.187,8.44 22.972,8.97 34.511,7.42 7.086,-0.99 10.141,-8.14 11.126,-15.92 2.761,-21.38 -25.938,-24.97 -39.594,-19.97 -9,3.29 -13.684,20.57 -6.043,28.47 z m -5.778,41.42 c 8.563,10.07 22.879,12.46 34.735,9.2 7.238,-1.97 10.59,-10.43 10.426,-19.91 -0.137,-5.38 -3.829,-9.28 -7.141,-10.65 -8.43,-3.42 -18.168,-5.96 -27.367,-4.84 -11.344,1.4 -18.219,17.27 -10.653,26.2 z m 1.36,45.09 c 10.527,4.31 30.144,8.15 33.453,-6.88 4.457,-20.03 -19.172,-23.3 -31.797,-19.81 -9.668,2.65 -11.504,22.72 -1.656,26.69 z m 75.726,33.1 c 7.871,-4.47 9.524,-17.08 4.735,-24.38 -6.367,-9.68 -28.137,-15.28 -39.848,-6.82 -6.68,4.85 -10.277,24.73 3.41,29.49 10.934,3.83 21.414,7.54 31.703,1.71 z m -11.156,14.39 c -8.93,-5.53 -21.656,-7.72 -30.098,-3.03 -7.343,4.01 -7.058,14.75 -3.417,20.52 5.98,9.62 20.855,10.66 31.132,7.65 8.864,-2.57 12.184,-19.04 2.383,-25.14 z m -72.281,15.67 c 0.902,2.87 2.176,3.68 3.949,4.55 7.508,3.58 15.75,4.54 22.938,-0.08 5.179,-3.35 4.726,-11.09 0.886,-15.1 -5.621,-5.91 -17.047,-6.16 -24.359,-2.32 -4.727,2.47 -4.945,8.3 -3.414,12.95 z m 2.398,-31.34 c 3.321,9.48 15.149,8.95 24.106,7.8 11.019,-1.44 13.226,-15.57 9.312,-21.51 -5.41,-8.2 -17.758,-6.63 -27.582,-5.38 -7.996,1.02 -8.468,11.61 -5.836,19.09 z m 155.51,-285.2 c 2.71,-10.72 0,-20.9 -9.53,-24.31 -12.253,-4.32 -28.816,-10.64 -38.609,-4.05 -11.199,7.51 -16.589,28.81 -3.722,37.16 15.199,9.94 45.441,16.45 51.861,-8.8 z m -16.51,33.3 c -8.234,-9.36 -21.668,-9.05 -34.855,-12.91 -5.094,-1.48 -11.133,3.01 -13.781,7.67 -4.875,8.71 -9.758,20.37 -0.418,28.77 7.734,7.05 18.281,6.46 27.754,9.28 4.25,1.29 9.46,2.77 14.621,-0.72 10.679,-7.29 14.839,-22.91 6.679,-32.09 z m 87.3,140.14 c 2.33,-6.8 5.45,-11.8 2.8,-18.58 -3.14,-8.32 -11.21,-9.46 -18.79,-12.21 -7.07,-2.55 -18.86,-5.79 -24.78,0.4 -6.81,7.05 -9.55,21.4 -1.41,27.54 10.56,7.86 36.6,18.71 42.18,2.85 z m 143.3,61.19 c 6.23,25.39 13.96,51.13 15.9,77.96 2.84,40.08 -5.8,81.74 -31.5,112.08 2.52,-13.09 5.87,-24.15 7.64,-37.88 2.08,-16.59 -0.26,-35.06 -4.54,-51.76 -3.25,-12.65 -8.94,-24.94 -14.59,-36.68 -6.67,-13.91 -16.63,-29.04 -26.56,-41.44 -27.8,-34.59 -71.13,-102.08 -71.13,-102.08 0,0 -3.64,0.26 -5.79,0.26 -0.51,8.41 19.44,37.22 29.51,53.35 22.09,35.35 38.82,54.37 58.04,85.02 12.04,19.33 21.23,42.85 24.19,64.17 5.99,43.43 -17.43,95.48 -51.1,112.8 7.69,-32.45 6.89,-78.17 -10.38,-97.41 -32.69,-36.42 -52.13,-63.69 -75.46,-110.39 -0.66,-1.25 -6.12,6.3 -10.63,9.23 -5.07,3.35 -2.23,13.37 -4.05,20.11 -1.64,5.74 -4.34,10.15 -5.14,11.15 -6.9,8.46 -13.58,9 -15.03,11.53 -1.68,2.86 -0.87,10 -6.9,18.14 -3,4.09 -10.67,7.12 -13.79,10.96 -3.38,4.2 -4.91,17.06 -14.22,22.32 -4.417,2.48 -6.472,10.19 -10.714,13.97 -13.086,11.59 -26.153,9.36 -28.653,10.08 -3.367,0.91 -9.937,9.27 -21.636,11.28 -11.438,1.95 -17.731,-5.68 -23.668,-2.91 -14.891,6.88 -29.157,7.45 -44.981,-10.19 -4.75,-5.24 -12.965,-0.34 -23.211,-8.18 -9,-6.86 -9.16,-13.2 -13.75,-14.07 -8.609,-1.61 -15.031,-8.5 -18.351,-16.01 -1.723,-3.88 -3.016,-11.7 -4.024,-16.87 -1.41,-7.12 -5.011,-13.69 -5.082,-18.93 -0.082,-7.27 2.215,-11.22 1.575,-14.47 -1.063,-4.71 -4.879,-9.03 -5.344,-13.44 -0.348,-2.5 -0.559,-9.16 1.261,-12.91 2.29,-4.62 -1.609,-8.64 -3.632,-13.56 -1.938,-4.58 -3.973,-12.42 -3.352,-17.95 0.82,-7.58 5.164,-10.37 1.785,-16.35 -5.535,-9.71 -12.531,-24.88 -0.265,-44.25 2.254,-3.54 -5.137,-10.43 -5.551,-20.54 -0.473,-11 6.172,-19.12 7.984,-24 0.344,-1.75 -2.922,-1.66 -3.039,-3.53 -29.219,30.9 -55.062,59.39 -88.949,86.22 -20.703,16.36 -41.176,30.12 -64.113,42.41 -61.289,32.87 -132.492,54.85 -196.992,46.82 24.289,-19.56 54.941,-33.51 79.89,-55.72 23.641,-21.05 45.09,-39.04 66.621,-61.41 33.797,-35.11 61.258,-70.7 89.871,-112.01 8.496,-12.23 14.09,-20.41 22.012,-33.17 7.977,-12.76 16.84,-26.31 24.102,-38.96 36.617,-63.57 66.617,-122.43 96.98,-187.58 8.426,-18.03 15.504,-36.88 23.762,-54.79 2.211,-4.85 5.375,-1.25 7.609,0 10.981,6.36 22.649,11.66 34.051,17.04 9.098,4.18 17.379,7.06 25.508,10.18 20.543,7.83 40.035,12.08 61.551,16.55 35.915,7.52 100.435,5.98 100.435,5.98 l 122.35,0.04 c 0.78,0 1.61,0 3.33,0 -1.28,35.06 -9.6,69.14 -11.63,104.32 -1.55,28.49 -0.6,56.04 0.4,84.59 2.73,77.35 14.11,160.39 31.39,230.88" /><path
             id="path54"
             style="fill:#ffffff;fill-opacity:1;fill-rule:nonzero;stroke:none"
             d="m 395.141,2298.12 c -23.871,-23.8 -30.993,-32.57 -44.911,-58.88 -8.199,-15.47 -18.609,-35.33 -21.578,-60.93 49.051,18.67 89.075,56.78 125.235,98.87 26.754,31.21 47.504,72.61 73.886,103.43 -46.468,-15.58 -95.503,-45.52 -132.632,-82.49" /><path
             id="path56"
             style="fill:#ffffff;fill-opacity:1;fill-rule:nonzero;stroke:none"
             d="m 254.719,2231.21 c 18.488,31.24 44.976,65.02 72.437,88.06 -12.718,-28.57 -28.383,-56.88 -33.765,-90.68 -10.676,-67.25 -20.75,-114.38 -31.911,-175.78 30.508,21.76 62.684,55.95 95.036,79.82 24.992,18.36 50.046,30.63 75.754,48.3 15.281,10.55 25.234,24.08 37.945,36.77 -15.141,-63.84 -71.16,-128.27 -111.274,-158.31 -50.386,-37.79 -68.449,-43.81 -149.421,-126.15 -10.282,101.66 -8.45,207.32 45.199,297.97" /><path
             id="path58"
             style="fill:#ffffff;fill-opacity:1;fill-rule:nonzero;stroke:none"
             d="m 89.5273,1893.55 c 3.7696,52.81 10.1016,95.02 22.9297,146.52 8.984,35.97 28.34,89.51 56.242,111.47 -3.418,-13.04 -5.215,-32.6 -6.531,-45.79 -5.469,-54.39 4.945,-117.57 6.187,-171.91 0.622,-26.71 0.383,-47.31 -3.613,-72.41 -4.14,-26.32 -0.687,-58.62 -0.687,-58.62 0,0 14.422,16.47 27.3,36.99 28.149,44.71 37.161,57.97 59.836,82.19 28.133,30.05 59.598,57.88 95.125,82.53 -4.285,-16.7 -22.425,-49.17 -29.921,-62.22 -10.004,-17.45 -14.543,-33.32 -38.215,-72.85 -33.313,-55.54 -48.153,-63.04 -85.137,-122.45 -8.008,-12.92 -40.852,-62.06 -48.809,-77.07 -17.324,35.85 -23.863,67.19 -45.1168,125.55 -13.3555,36.68 -11.3594,73.36 -9.5899,98.07" /><path
             id="path60"
             style="fill:#ffffff;fill-opacity:1;fill-rule:nonzero;stroke:none"
             d="m 38.0938,1618.88 c -20.086,52.09 -29.28911,100.4 -36.09771,155.23 -4.16015,33.55 -2.226559,78.27 9.74611,110.53 3.1406,-7.87 9.5469,-27.87 10.414,-30.86 8.9102,-29.97 12.6329,-44.36 25.086,-73.25 9.5195,-22.17 21.164,-39.84 33.625,-61.74 11.332,-19.99 20.8908,-46.3 29.0898,-66.45 26.371,-64.56 28.32,-125.01 38.41,-131.62 7.258,15.55 9.531,30.43 10.344,37.75 7.844,71.45 17.25,136.39 107.227,220.6 8.257,-25.06 4.074,-71.28 -0.887,-96.03 -10.758,-54.12 -19.449,-80.11 -43.281,-132.56 -12.598,-27.62 -29.422,-68.27 -34.032,-81.72 -12.078,-35.07 -16.218,-53.45 -23.816,-74.2 -42.481,70.79 -94.7618,143.88 -125.8282,224.32" /><path
             id="path62"
             style="fill:#ffffff;fill-opacity:1;fill-rule:nonzero;stroke:none"
             d="m 108.125,1293.27 c -30.2383,42.11 -41.2656,63.26 -60.9492,108.06 -16.5274,37.61 -21.2813,51.54 -30.961,93.65 -5.289,22.94 -8.2773,43.77 -4.1679,57.34 23.6758,-42.88 39.8398,-90.86 70.8086,-126.41 24.5895,-28.21 48.2735,-52.23 67.8245,-76.05 29.988,-36.58 53.601,-71.21 82.382,-109.3 2.426,19.09 3.364,38.44 -0.921,69.71 -5.856,42.87 -2.246,78.01 5.238,119.5 9.484,52.65 16.445,78.72 34.711,131.97 22.348,-43.82 22.262,-94.53 27.871,-141 10.828,-90.22 -17.387,-197.78 -22.941,-242.62 -1.485,-11.81 0.562,-40.97 1.16,-52.32 -42.2,33.24 -79.742,66.79 -116.141,103.3 -16.586,16.53 -39.344,43.95 -53.914,64.17" /><path
             id="path64"
             style="fill:#ffffff;fill-opacity:1;fill-rule:nonzero;stroke:none"
             d="m 268.105,962.488 c -19.214,13.832 -70.843,53.302 -95.289,84.352 -35.597,45.22 -43.437,64.58 -66.921,116.59 -2.875,6.34 -16.1684,35.78 -17.2505,55.78 76.9415,-92.9 145.8285,-106.74 219.2265,-183.83 26.934,-28.25 54.516,-54.841 69.07,-68.169 11.18,-10.281 25.047,-13.402 25.047,-13.402 0,0 -1.445,19.812 -8.691,33.589 -48.965,93.602 -58.207,191.442 -50.781,296.452 22.351,-27.67 29.402,-46.15 43.589,-72.91 15.426,-29.15 23.293,-47.16 30.504,-65.11 41.903,-104.28 52.805,-224.752 78.696,-285.361 -79.914,26.91 -142.844,41.293 -227.2,102.019" /><path
             id="path66"
             style="fill:#ffffff;fill-opacity:1;fill-rule:nonzero;stroke:none"
             d="m 595.828,716.391 c -21.613,-1.45 -63.992,-1.321 -86.586,2.371 -114.394,18.297 -220.726,101.199 -274.215,192.258 48.496,-29.59 83.563,-49.329 126.211,-64.098 37.985,-13.133 74.012,-17.012 137.418,-35.031 38.262,-10.801 76.145,-26.121 89.453,-31.102 42.418,-15.801 60.282,-11.91 60.282,-11.91 0,0 0,6.441 -15.848,23.723 -31.574,34.468 -43.141,42.699 -69.121,69.187 -8.527,8.762 -28.074,38.492 -37.996,58.25 -28.071,55.883 -31.192,100.681 -56.828,162.061 93.554,-54.95 139.129,-130.748 188.59,-226.319 15.21,-29.261 35.777,-63.082 54.57,-81.66 12.637,-12.461 30.445,-31.422 30.445,-31.422 0,0 -13.047,-3.07 -53.668,-9.07 -18.223,-2.668 -57.051,-14.758 -92.707,-17.238" /><path
             id="path68"
             style="fill:#ffffff;fill-opacity:1;fill-rule:nonzero;stroke:none"
             d="m 1049.31,709.141 c 49.39,-8.071 93.28,-20.082 138.19,-35.481 12.08,-4.16 30.45,-13.289 43.17,-19.738 31.84,-16.203 50.16,-26.723 77.52,-45.531 44.07,-30.352 91.4,-63.039 134.12,-112.672 0.91,-0.981 7.82,-8.36 3.22,-11.957 -8.37,-6.563 -28.99,-15.903 -35.85,-9.84 -39.09,34.75 -37.11,45.879 -84.48,88.769 -12.15,10.95 -30.48,26.297 -52.39,41.289 -21.38,14.622 -47.22,30.598 -71.23,42.45 -21.82,10.718 -55.42,13.941 -74.29,13.941 l 0.26,-0.141 c -8.57,0.34 -57.84,0.61 -69.24,-0.14 -96.81,-6.629 -92.072,-15.289 -147.888,-30.41 -45.91,-12.489 -95.164,-21.379 -144.055,-27.95 -50.09,-6.789 -94.906,-7.609 -141.859,-2.832 -63.649,6.563 -133.274,24.301 -185.238,57.793 47.511,-0.8 96.3,-9.941 143.566,-6.312 19.891,1.543 52.16,4.543 74.012,11.269 43.418,13.332 68.328,18.532 114.308,31.352 39.512,11 79.348,14.801 120.606,19.141 57.105,6.121 109.998,4.738 157.548,-3" /><path
             id="path70"
             style="fill:#ffffff;fill-opacity:1;fill-rule:nonzero;stroke:none"
             d="m 1934.52,2298.12 c 23.88,-23.8 31.03,-32.57 44.95,-58.88 8.19,-15.47 18.61,-35.33 21.57,-60.93 -49.09,18.67 -89.07,56.78 -125.26,98.87 -26.76,31.21 -47.48,72.61 -73.87,103.43 46.47,-15.58 95.51,-45.52 132.61,-82.49" /><path
             id="path72"
             style="fill:#ffffff;fill-opacity:1;fill-rule:nonzero;stroke:none"
             d="m 2074.98,2231.21 c -18.52,31.24 -44.98,65.02 -72.44,88.06 12.85,-30.75 31.56,-69.05 33.75,-90.68 6.84,-67.73 20.76,-114.38 31.93,-175.78 -30.51,21.76 -62.73,55.95 -95.06,79.82 -24.95,18.36 -50.03,30.63 -75.7,48.3 -15.32,10.55 -25.27,24.08 -37.99,36.77 15.14,-63.84 71.17,-128.27 111.29,-158.31 50.37,-37.79 68.43,-43.81 149.37,-126.15 10.28,101.66 8.46,207.32 -45.15,297.97" /><path
             id="path74"
             style="fill:#ffffff;fill-opacity:1;fill-rule:nonzero;stroke:none"
             d="m 2240.16,1893.55 c -3.8,52.81 -10.07,95.02 -22.92,146.52 -8.98,35.97 -28.35,89.51 -56.29,111.47 3.45,-13.04 5.22,-32.6 6.56,-45.79 5.52,-54.39 -4.89,-117.57 -6.18,-171.91 -0.61,-26.71 -0.38,-47.31 3.59,-72.41 4.15,-26.32 0.72,-58.62 0.72,-58.62 0,0 -14.42,16.47 -27.33,36.99 -28.08,44.71 -37.11,57.97 -59.85,82.19 -28.1,30.05 -59.59,57.88 -95.13,82.53 4.33,-16.7 22.47,-49.17 29.96,-62.22 10.05,-17.45 14.53,-33.32 38.23,-72.85 33.29,-55.54 48.14,-63.04 85.09,-122.45 8.01,-12.92 40.9,-62.06 48.84,-77.07 17.35,35.85 23.87,67.19 45.13,125.55 13.38,36.68 11.39,73.36 9.58,98.07" /><path
             id="path76"
             style="fill:#ffffff;fill-opacity:1;fill-rule:nonzero;stroke:none"
             d="m 2291.59,1618.88 c 20.08,52.09 29.27,100.4 36.11,155.23 4.17,33.55 2.2,78.27 -9.74,110.53 -3.14,-7.87 -9.54,-27.87 -10.42,-30.86 -8.94,-29.97 -12.63,-44.36 -25.06,-73.25 -9.53,-22.17 -21.24,-39.84 -33.66,-61.74 -11.33,-19.99 -20.88,-46.3 -29.13,-66.45 -26.33,-64.56 -28.28,-125.01 -38.37,-131.62 -7.29,15.55 -9.54,30.43 -10.33,37.75 -7.86,71.45 -17.26,136.39 -107.23,220.6 -8.29,-25.06 -4.08,-71.28 0.84,-96.03 10.81,-54.12 19.53,-80.11 43.32,-132.56 12.6,-27.62 29.42,-68.27 34.07,-81.72 12,-35.07 16.16,-53.45 23.82,-74.2 42.45,70.79 94.72,143.88 125.78,224.32" /><path
             id="path78"
             style="fill:#ffffff;fill-opacity:1;fill-rule:nonzero;stroke:none"
             d="m 2221.57,1293.27 c 30.27,42.11 41.26,63.26 60.94,108.06 16.53,37.61 21.26,51.54 30.97,93.65 5.29,22.94 8.27,43.77 4.15,57.34 -23.62,-42.88 -39.86,-90.86 -70.83,-126.41 -24.55,-28.21 -48.24,-52.23 -67.79,-76.05 -29.95,-36.58 -53.64,-71.21 -82.37,-109.3 -2.41,19.09 -3.39,38.44 0.87,69.71 5.89,42.87 2.28,78.01 -5.19,119.5 -9.5,52.65 -16.46,78.72 -34.71,131.97 -22.32,-43.82 -22.26,-94.53 -27.88,-141 -10.86,-90.22 17.43,-197.78 22.97,-242.62 1.45,-11.81 -0.59,-40.97 -1.18,-52.32 42.19,33.24 79.74,66.79 116.13,103.3 16.59,16.53 39.3,43.95 53.92,64.17" /><path
             id="path80"
             style="fill:#ffffff;fill-opacity:1;fill-rule:nonzero;stroke:none"
             d="m 2061.6,962.488 c 19.2,13.832 70.84,53.302 95.27,84.352 35.6,45.22 43.45,64.58 66.93,116.59 2.83,6.34 16.17,35.78 17.25,55.78 -76.94,-92.9 -145.84,-106.74 -219.23,-183.83 -26.92,-28.25 -54.49,-54.841 -69.05,-68.169 -11.18,-10.281 -25.05,-13.402 -25.05,-13.402 0,0 1.43,19.812 8.65,33.589 48.99,93.602 58.24,191.442 50.77,296.452 -22.28,-27.67 -29.37,-46.15 -43.55,-72.91 -15.4,-29.15 -23.29,-47.16 -30.47,-65.11 -41.93,-104.28 -52.89,-224.752 -78.76,-285.361 79.97,26.91 142.88,41.293 227.24,102.019" /><path
             id="path82"
             style="fill:#ffffff;fill-opacity:1;fill-rule:nonzero;stroke:none"
             d="m 1733.86,716.391 c 21.65,-1.45 64,-1.321 86.62,2.371 114.39,18.297 220.69,101.199 274.19,192.258 -48.55,-29.59 -83.61,-49.329 -126.23,-64.098 -38.01,-13.133 -74,-17.012 -137.37,-35.031 -38.3,-10.801 -76.17,-26.121 -89.49,-31.102 -42.42,-15.801 -60.28,-11.91 -60.28,-11.91 0,0 0,6.441 15.83,23.723 31.59,34.468 43.18,42.699 69.11,69.187 8.55,8.762 28.1,38.492 38.02,58.25 28.07,55.883 31.19,100.681 56.86,162.061 -93.55,-54.95 -139.22,-130.748 -188.65,-226.319 -15.18,-29.261 -35.74,-63.082 -54.51,-81.66 -12.62,-12.461 -30.47,-31.422 -30.47,-31.422 0,0 13.04,-3.07 53.7,-9.07 18.19,-2.668 57,-14.758 92.67,-17.238" /><path
             id="path84"
             style="fill:#ffffff;fill-opacity:1;fill-rule:nonzero;stroke:none"
             d="m 1280.38,709.141 c -49.38,-8.071 -93.23,-20.082 -138.19,-35.481 -12.12,-4.16 -30.45,-13.289 -43.17,-19.738 -31.84,-16.203 -50.12,-26.723 -77.51,-45.531 -44.108,-30.352 -91.377,-63.039 -134.127,-112.672 -0.922,-0.981 -7.856,-8.36 -3.223,-11.957 8.391,-6.563 29.024,-15.903 35.817,-9.84 39.101,34.75 37.113,45.879 84.523,88.769 12.09,10.95 30.43,26.297 52.39,41.289 21.42,14.622 47.18,30.598 71.22,42.45 21.78,10.718 55.45,13.941 74.29,13.941 l -0.28,-0.141 c 8.59,0.34 57.83,0.61 69.27,-0.14 96.82,-6.629 92.05,-15.289 147.85,-30.41 45.94,-12.489 95.18,-21.379 144.08,-27.95 50.06,-6.789 94.92,-7.609 141.86,-2.832 63.66,6.563 133.26,24.301 185.21,57.793 -47.49,-0.8 -96.24,-9.941 -143.57,-6.312 -19.9,1.543 -52.13,4.543 -73.98,11.269 -43.42,13.332 -68.35,18.532 -114.3,31.352 -39.52,11 -79.36,14.801 -120.59,19.141 -57.13,6.121 -110.02,4.738 -157.57,-3" /><path
             id="path86"
             style="fill:#ffffff;fill-opacity:1;fill-rule:nonzero;stroke:none"
             d="m 1106.78,2834.64 -86.96,-322.87 H 927.512 L 869.77,2722.1 813.32,2511.77 h -92.086 l -86.953,322.87 h 86.907 l 49.535,-222.26 59.582,222.26 h 83.05 l 56.528,-222.26 52.007,222.26 h 84.89" /><path
             id="path88"
             style="fill:#ffffff;fill-opacity:1;fill-rule:nonzero;stroke:none"
             d="m 1393.65,2772.2 h -148.53 v -60.08 h 137.69 v -62.44 h -137.69 v -137.91 h -82.83 v 322.87 h 231.36 v -62.44" /><path
             id="path90"
             style="fill:#ffffff;fill-opacity:1;fill-rule:nonzero;stroke:none"
             d="m 1631.53,2730.88 c 0,9.08 -2.46,16.9 -7.37,23.46 -4.92,6.57 -10.63,11.14 -17.13,13.74 -8.68,3.46 -17.13,5.37 -25.37,5.74 -8.24,0.35 -19.23,0.54 -32.96,0.54 h -14.32 v -96.5 h 23.86 c 14.16,0 25.83,0.87 35.02,2.6 9.18,1.73 16.88,5.2 23.09,10.39 5.34,4.6 9.22,10.13 11.6,16.55 2.39,6.41 3.58,14.24 3.58,23.48 z m 86.09,1.85 c 0,-14.46 -2.54,-28.59 -7.6,-42.4 -5.05,-13.81 -12.28,-25.41 -21.68,-34.79 -12.87,-12.74 -27.21,-22.34 -43.04,-28.85 -15.83,-6.51 -35.53,-9.76 -59.09,-9.76 h -51.83 v -105.16 h -83.26 v 322.87 h 137.04 c 20.53,0 37.84,-1.77 51.93,-5.31 14.09,-3.55 26.57,-8.85 37.41,-15.94 13.01,-8.53 22.95,-19.44 29.81,-32.75 6.87,-13.3 10.31,-29.26 10.31,-47.91" /><path
             id="path92"
             style="fill:#ffffff;fill-opacity:1;fill-rule:nonzero;stroke:none"
             d="M 734.492,257.871 676.445,70.5508 H 612.703 L 574.531,196.82 536.824,70.5508 H 472.449 L 414.902,257.871 h 62.989 l 32.16,-129.09 39.965,129.09 h 53.207 l 37.992,-129.09 31.637,129.09 h 61.64" /><path
             id="path94"
             style="fill:#ffffff;fill-opacity:1;fill-rule:nonzero;stroke:none"
             d="m 902.031,286.059 h -4.488 c -2.664,0.781 -6.125,1.671 -10.398,2.671 -4.27,0.989 -8.844,1.5 -13.723,1.5 -11.758,0 -19.711,-2.109 -23.871,-6.339 -4.156,-4.231 -6.231,-12.403 -6.231,-24.52 v -1.5 h 46.2 V 217.168 H 845.316 V 70.5508 H 785.102 V 217.168 h -25.688 v 40.703 h 25.688 v 5.168 c 0,22.902 6.093,40.082 18.265,51.551 12.18,11.449 30.613,17.172 55.301,17.172 8.891,0 16.953,-0.301 24.18,-0.91 7.226,-0.614 13.621,-1.422 19.183,-2.422 v -42.371" /><path
             id="path96"
             style="fill:#ffffff;fill-opacity:1;fill-rule:nonzero;stroke:none"
             d="m 1058.49,165.539 c 0,18.211 -3.11,31.43 -9.32,39.641 -6.21,8.211 -16.04,12.332 -29.46,12.332 -5.66,0 -11.48,-0.871 -17.47,-2.59 -5.99,-1.711 -11.705,-4.184 -17.142,-7.402 v -94.102 c 3.988,-1.559 8.265,-2.547 12.816,-2.996 4.546,-0.442 9.036,-0.672 13.476,-0.672 15.87,0 27.69,4.641 35.45,13.91 7.77,9.27 11.65,23.231 11.65,41.879 z m 61.88,1.262 c 0,-15.461 -2.36,-29.52 -7.08,-42.199 -4.72,-12.68 -10.91,-23.133 -18.57,-31.352 -8,-8.6719 -17.05,-15.25 -27.16,-19.6914 -10.1,-4.4492 -20.93,-6.668 -32.48,-6.668 -10.67,0 -19.72,1.1406 -27.16,3.418 -7.44,2.2695 -15.049,5.4805 -22.822,9.582 V 1.82812 H 924.883 V 257.871 h 60.215 v -19.512 c 9.214,7.332 18.632,13.282 28.232,17.852 9.61,4.559 20.69,6.828 33.24,6.828 23.32,0 41.46,-8.559 54.39,-25.68 12.94,-17.129 19.41,-40.64 19.41,-70.558" /><path
             id="path98"
             style="fill:#ffffff;fill-opacity:1;fill-rule:nonzero;stroke:none"
             d="m 1165.91,70.5508 h 62.3906 v 65.5586 H 1165.91 Z" /><path
             id="path100"
             style="fill:#ffffff;fill-opacity:1;fill-rule:nonzero;stroke:none"
             d="m 1404.77,118.602 c 3.89,4.777 6.81,10.539 8.76,17.257 1.94,6.719 2.92,16.039 2.92,27.942 0,11 -1.01,20.23 -3.01,27.679 -2,7.45 -4.78,13.399 -8.34,17.848 -3.56,4.563 -7.84,7.793 -12.84,9.684 -5,1.879 -10.4,2.84 -16.18,2.84 -5.79,0 -10.92,-0.793 -15.43,-2.34 -4.51,-1.551 -8.81,-4.68 -12.93,-9.352 -3.67,-4.32 -6.58,-10.269 -8.76,-17.84 -2.16,-7.558 -3.25,-17.07 -3.25,-28.519 0,-10.242 0.95,-19.11 2.84,-26.61 1.89,-7.511 4.67,-13.531 8.33,-18.101 3.57,-4.328 7.82,-7.488 12.77,-9.5 4.94,-2.012 10.59,-3 16.93,-3 5.45,0 10.65,0.91 15.6,2.75 4.94,1.832 9.14,4.91 12.59,9.262 z m 73.89,45.539 c 0,-30.813 -8.98,-55.082 -26.94,-72.8207 -17.96,-17.7305 -43.17,-26.6015 -75.64,-26.6015 -32.47,0 -57.69,8.871 -75.65,26.6015 -17.95,17.7387 -26.93,42.0077 -26.93,72.8207 0,31.007 9.03,55.371 27.1,73.039 18.07,17.691 43.23,26.539 75.48,26.539 32.69,0 57.96,-8.899 75.81,-26.699 17.85,-17.79 26.77,-42.079 26.77,-72.879" /><path
             id="path102"
             style="fill:#ffffff;fill-opacity:1;fill-rule:nonzero;stroke:none"
             d="m 1657.48,200.66 h -5.33 c -2.56,0.891 -6.66,1.559 -12.32,2 -5.66,0.442 -10.38,0.668 -14.15,0.668 -8.54,0 -16.08,-0.558 -22.63,-1.668 -6.55,-1.121 -13.6,-3 -21.14,-5.672 V 70.5508 H 1521.7 V 257.871 h 60.21 v -27.519 c 13.21,11.347 24.69,18.867 34.45,22.609 9.76,3.719 18.76,5.578 26.97,5.578 2.1,0 4.49,-0.059 7.15,-0.16 2.66,-0.117 5,-0.289 7,-0.508 V 200.66" /><path
             id="path104"
             style="fill:#ffffff;fill-opacity:1;fill-rule:nonzero;stroke:none"
             d="m 1813.43,129.609 v 84.903 c -3.44,1.429 -7.66,2.578 -12.65,3.41 -4.99,0.848 -9.49,1.258 -13.48,1.258 -15.76,0 -27.57,-4.539 -35.45,-13.61 -7.88,-9.05 -11.81,-21.699 -11.81,-37.941 0,-18 3.35,-30.57 10.06,-37.688 6.72,-7.121 16.67,-10.691 29.88,-10.691 5.99,0 11.87,0.949 17.64,2.852 5.76,1.878 11.04,4.378 15.81,7.507 z m 60.21,-37.5387 c 0,-17.5586 -2.5,-32.3594 -7.5,-44.3594 -5.01,-12.0195 -12.01,-21.4101 -21.02,-28.1914 C 1836.11,12.6211 1825.24,7.64062 1812.51,4.58984 1799.78,1.53125 1785.41,0 1769.39,0 1756.38,0 1743.57,0.78125 1730.95,2.33984 1718.33,3.89062 1707.4,5.78906 1698.17,8 v 46.8789 h 7.33 c 7.33,-2.8906 16.26,-5.5273 26.81,-7.918 10.55,-2.3906 19.99,-3.5898 28.32,-3.5898 11.1,0 20.13,1.0273 27.07,3.0781 6.94,2.0625 12.23,4.9805 15.9,8.7617 3.44,3.5703 5.95,8.1172 7.49,13.668 1.56,5.5703 2.34,12.2422 2.34,20.0195 v 3.5118 c -7.22,-5.8985 -15.22,-10.5704 -24,-14.0118 -8.77,-3.4492 -18.54,-5.1679 -29.31,-5.1679 -26.21,0 -46.43,7.8906 -60.64,23.6914 -14.22,15.7771 -21.33,39.7971 -21.33,72.0471 0,15.453 2.17,28.801 6.5,40.031 4.33,11.23 10.44,21.02 18.32,29.359 7.34,7.782 16.36,13.84 27.07,18.172 10.72,4.348 21.69,6.508 32.91,6.508 10.11,0 19.3,-1.187 27.57,-3.578 8.27,-2.402 15.8,-5.691 22.58,-9.93 l 2.17,8.34 h 58.37 V 92.0703" /><path
             id="path106"
             style="fill:#ffffff;fill-opacity:1;fill-rule:nonzero;stroke:none"
             d="m 3197.34,1623.82 -120.4,-447.06 h -127.81 l -79.96,291.23 -78.15,-291.23 h -127.5 l -120.4,447.06 h 120.33 l 68.59,-307.75 82.49,307.75 h 115 l 78.27,-307.75 72,307.75 h 117.54" /><path
             id="path108"
             style="fill:#ffffff;fill-opacity:1;fill-rule:nonzero;stroke:none"
             d="m 3449.87,1263.24 c 7,8.59 12.25,18.95 15.76,31.07 3.5,12.11 5.26,28.87 5.26,50.29 0,19.81 -1.81,36.42 -5.41,49.85 -3.6,13.41 -8.61,24.11 -15.02,32.12 -6.4,8.19 -14.1,14 -23.11,17.42 -9,3.39 -18.72,5.09 -29.12,5.09 -10.42,0 -19.67,-1.4 -27.78,-4.19 -8.1,-2.81 -15.87,-8.42 -23.26,-16.83 -6.61,-7.79 -11.86,-18.51 -15.76,-32.13 -3.91,-13.61 -5.86,-30.72 -5.86,-51.33 0,-18.41 1.7,-34.37 5.1,-47.88 3.4,-13.52 8.41,-24.38 15.02,-32.58 6.39,-7.82 14.06,-13.51 22.97,-17.11 8.9,-3.61 19.06,-5.41 30.47,-5.41 9.8,0 19.16,1.65 28.07,4.96 8.9,3.3 16.46,8.85 22.67,16.66 z m 133.01,81.96 c 0,-55.44 -16.17,-99.13 -48.49,-131.05 -32.33,-31.93 -77.72,-47.88 -136.16,-47.88 -58.44,0 -103.84,15.95 -136.17,47.88 -32.31,31.92 -48.49,75.61 -48.49,131.05 0,55.85 16.26,99.69 48.8,131.51 32.53,31.82 77.81,47.73 135.86,47.73 58.85,0 104.34,-16.02 136.45,-48.03 32.13,-32.03 48.2,-75.76 48.2,-131.21" /><path
             id="path110"
             style="fill:#ffffff;fill-opacity:1;fill-rule:nonzero;stroke:none"
             d="m 3904.73,1410.95 h -9.58 c -4.59,1.6 -11.99,2.81 -22.18,3.61 -10.19,0.79 -18.67,1.2 -25.46,1.2 -15.38,0 -28.96,-1.01 -40.73,-3.01 -11.8,-2 -24.48,-5.4 -38.06,-10.2 v -225.79 h -108.39 v 337.18 h 108.39 v -49.55 c 23.77,20.42 44.44,33.98 62.01,40.68 17.58,6.71 33.76,10.07 48.54,10.07 3.79,0 8.09,-0.1 12.88,-0.3 4.79,-0.2 8.99,-0.51 12.58,-0.9 v -102.99" /><path
             id="path112"
             style="fill:#ffffff;fill-opacity:1;fill-rule:nonzero;stroke:none"
             d="m 3965.98,1176.76 h 108.391 v 467.18 H 3965.98 Z" /><path
             id="path114"
             style="fill:#ffffff;fill-opacity:1;fill-rule:nonzero;stroke:none"
             d="m 4395.62,1269.57 v 165.69 c -7.6,3.2 -15.58,5.52 -23.97,6.91 -8.38,1.41 -16.07,2.11 -23.06,2.11 -28.37,0 -49.63,-8.86 -63.81,-26.62 -14.18,-17.73 -21.27,-42.34 -21.27,-73.82 0,-33.07 5.69,-57.08 17.08,-72.02 11.38,-14.93 29.64,-22.39 54.82,-22.39 9.78,0 20.16,1.85 31.15,5.57 10.98,3.7 20.67,8.55 29.06,14.57 z M 4504,1176.76 h -108.38 v 35.13 c -18.6,-15.2 -35.99,-26.42 -52.18,-33.62 -16.2,-7.2 -34.89,-10.8 -56.08,-10.8 -40.99,0 -73.77,15.8 -98.35,47.43 -24.6,31.62 -36.89,74.26 -36.89,127.9 0,28.62 4.15,53.99 12.45,76.11 8.29,22.11 19.63,41.08 34.03,56.9 13.59,15.01 30.09,26.67 49.48,34.98 19.39,8.3 38.78,12.45 58.17,12.45 20.19,0 36.74,-2.15 49.63,-6.45 12.89,-4.31 26.14,-9.76 39.74,-16.36 v 143.51 H 4504 v -467.18" /><path
             id="path116"
             style="fill:#ffffff;fill-opacity:1;fill-rule:nonzero;stroke:none"
             d="m 5142.62,1537.35 h -205.67 v -83.16 h 190.66 v -86.48 h -190.66 v -190.95 h -114.68 v 447.06 h 320.35 v -86.47" /><path
             id="path118"
             style="fill:#ffffff;fill-opacity:1;fill-rule:nonzero;stroke:none"
             d="m 5427.85,1263.24 c 7,8.59 12.26,18.95 15.75,31.07 3.51,12.11 5.26,28.87 5.26,50.29 0,19.81 -1.8,36.42 -5.41,49.85 -3.59,13.41 -8.6,24.11 -15.01,32.12 -6.4,8.19 -14.09,14 -23.12,17.42 -9,3.39 -18.72,5.09 -29.11,5.09 -10.42,0 -19.66,-1.4 -27.78,-4.19 -8.11,-2.81 -15.87,-8.42 -23.25,-16.83 -6.63,-7.79 -11.88,-18.51 -15.79,-32.13 -3.9,-13.61 -5.85,-30.72 -5.85,-51.33 0,-18.41 1.7,-34.37 5.11,-47.88 3.39,-13.52 8.4,-24.38 15.02,-32.58 6.4,-7.82 14.05,-13.51 22.96,-17.11 8.91,-3.61 19.07,-5.41 30.48,-5.41 9.8,0 19.17,1.65 28.08,4.96 8.88,3.3 16.44,8.85 22.66,16.66 z m 133,81.96 c 0,-55.44 -16.15,-99.13 -48.48,-131.05 -32.34,-31.93 -77.72,-47.88 -136.16,-47.88 -58.45,0 -103.85,15.95 -136.17,47.88 -32.32,31.92 -48.49,75.61 -48.49,131.05 0,55.85 16.26,99.69 48.79,131.51 32.54,31.82 77.81,47.73 135.87,47.73 58.85,0 104.34,-16.02 136.46,-48.03 32.12,-32.03 48.18,-75.76 48.18,-131.21" /><path
             id="path120"
             style="fill:#ffffff;fill-opacity:1;fill-rule:nonzero;stroke:none"
             d="m 5849.99,1263.24 c 7,8.59 12.26,18.95 15.75,31.07 3.51,12.11 5.26,28.87 5.26,50.29 0,19.81 -1.8,36.42 -5.41,49.85 -3.6,13.41 -8.6,24.11 -15.01,32.12 -6.4,8.19 -14.11,14 -23.13,17.42 -8.99,3.39 -18.71,5.09 -29.1,5.09 -10.42,0 -19.67,-1.4 -27.79,-4.19 -8.1,-2.81 -15.86,-8.42 -23.25,-16.83 -6.62,-7.79 -11.87,-18.51 -15.78,-32.13 -3.9,-13.61 -5.86,-30.72 -5.86,-51.33 0,-18.41 1.71,-34.37 5.12,-47.88 3.39,-13.52 8.4,-24.38 15.02,-32.58 6.4,-7.82 14.04,-13.51 22.96,-17.11 8.91,-3.61 19.07,-5.41 30.48,-5.41 9.8,0 19.16,1.65 28.07,4.96 8.89,3.3 16.45,8.85 22.67,16.66 z m 133,81.96 c 0,-55.44 -16.16,-99.13 -48.48,-131.05 -32.34,-31.93 -77.72,-47.88 -136.16,-47.88 -58.45,0 -103.85,15.95 -136.17,47.88 -32.32,31.92 -48.5,75.61 -48.5,131.05 0,55.85 16.27,99.69 48.79,131.51 32.55,31.82 77.81,47.73 135.88,47.73 58.85,0 104.34,-16.02 136.45,-48.03 32.12,-32.03 48.19,-75.76 48.19,-131.21" /><path
             id="path122"
             style="fill:#ffffff;fill-opacity:1;fill-rule:nonzero;stroke:none"
             d="m 6279.93,1269.57 v 165.69 c -7.61,3.2 -15.56,5.52 -23.96,6.91 -8.4,1.41 -16.08,2.11 -23.07,2.11 -28.38,0 -49.63,-8.86 -63.81,-26.62 -14.19,-17.73 -21.28,-42.34 -21.28,-73.82 0,-33.07 5.71,-57.08 17.08,-72.02 11.38,-14.93 29.65,-22.39 54.83,-22.39 9.78,0 20.15,1.85 31.15,5.57 10.98,3.7 20.67,8.55 29.06,14.57 z m 108.38,-92.81 h -108.38 v 35.13 c -18.6,-15.2 -35.99,-26.42 -52.18,-33.62 -16.2,-7.2 -34.89,-10.8 -56.08,-10.8 -40.98,0 -73.77,15.8 -98.35,47.43 -24.6,31.62 -36.89,74.26 -36.89,127.9 0,28.62 4.15,53.99 12.45,76.11 8.29,22.11 19.65,41.08 34.03,56.9 13.59,15.01 30.09,26.67 49.48,34.98 19.4,8.3 38.78,12.45 58.18,12.45 20.17,0 36.73,-2.15 49.62,-6.45 12.89,-4.31 26.15,-9.76 39.74,-16.36 v 143.51 h 108.38 v -467.18" /><path
             id="path124"
             style="fill:#ffffff;fill-opacity:1;fill-rule:nonzero;stroke:none"
             d="m 6956.36,1480.14 c 0,12.59 -3.41,23.42 -10.22,32.51 -6.79,9.08 -14.69,15.43 -23.7,19.02 -12.02,4.79 -23.72,7.44 -35.15,7.94 -11.39,0.49 -26.61,0.75 -45.62,0.75 h -19.81 v -133.61 h 33.03 c 19.61,0 35.77,1.2 48.48,3.6 12.7,2.4 23.36,7.18 31.98,14.37 7.4,6.39 12.75,14.04 16.07,22.92 3.3,8.88 4.94,19.72 4.94,32.5 z m 119.2,2.57 c 0,-20.02 -3.51,-39.59 -10.51,-58.7 -7,-19.12 -17.01,-35.18 -30.03,-48.18 -17.82,-17.62 -37.69,-30.93 -59.59,-39.94 -21.92,-9 -49.19,-13.51 -81.83,-13.51 h -71.74 v -145.62 h -115.3 v 447.06 h 189.76 c 28.42,0 52.38,-2.45 71.91,-7.36 19.5,-4.9 36.76,-12.25 51.78,-22.06 18.02,-11.82 31.78,-26.92 41.29,-45.34 9.49,-18.41 14.26,-40.53 14.26,-66.35" /><path
             id="path126"
             style="fill:#ffffff;fill-opacity:1;fill-rule:nonzero;stroke:none"
             d="m 7383.93,1410.95 h -9.58 c -4.58,1.6 -12,2.81 -22.18,3.61 -10.19,0.79 -18.67,1.2 -25.45,1.2 -15.38,0 -28.96,-1.01 -40.73,-3.01 -11.81,-2 -24.5,-5.4 -38.07,-10.2 v -225.79 h -108.38 v 337.18 h 108.38 v -49.55 c 23.77,20.42 44.43,33.98 62.01,40.68 17.57,6.71 33.75,10.07 48.55,10.07 3.79,0 8.07,-0.1 12.88,-0.3 4.77,-0.2 8.97,-0.51 12.57,-0.9 v -102.99" /><path
             id="path128"
             style="fill:#ffffff;fill-opacity:1;fill-rule:nonzero;stroke:none"
             d="m 7645.17,1263.24 c 7,8.59 12.25,18.95 15.78,31.07 3.47,12.11 5.24,28.87 5.24,50.29 0,19.81 -1.81,36.42 -5.4,49.85 -3.61,13.41 -8.62,24.11 -15.02,32.12 -6.41,8.19 -14.12,14 -23.11,17.42 -9.01,3.39 -18.72,5.09 -29.13,5.09 -10.42,0 -19.66,-1.4 -27.77,-4.19 -8.1,-2.81 -15.87,-8.42 -23.27,-16.83 -6.6,-7.79 -11.86,-18.51 -15.76,-32.13 -3.91,-13.61 -5.86,-30.72 -5.86,-51.33 0,-18.41 1.71,-34.37 5.1,-47.88 3.41,-13.52 8.41,-24.38 15.02,-32.58 6.39,-7.82 14.07,-13.51 22.97,-17.11 8.89,-3.61 19.06,-5.41 30.46,-5.41 9.81,0 19.16,1.65 28.08,4.96 8.91,3.3 16.47,8.85 22.67,16.66 z m 133.01,81.96 c 0,-55.44 -16.18,-99.13 -48.49,-131.05 -32.32,-31.93 -77.73,-47.88 -136.16,-47.88 -58.45,0 -103.83,15.95 -136.17,47.88 -32.32,31.92 -48.48,75.61 -48.48,131.05 0,55.85 16.25,99.69 48.8,131.51 32.52,31.82 77.81,47.73 135.85,47.73 58.84,0 104.33,-16.02 136.45,-48.03 32.14,-32.03 48.2,-75.76 48.2,-131.21" /><path
             id="path130"
             style="fill:#ffffff;fill-opacity:1;fill-rule:nonzero;stroke:none"
             d="m 8063.45,1283.04 v 152.84 c -6.2,2.58 -13.81,4.65 -22.79,6.16 -8.97,1.49 -17.08,2.24 -24.26,2.24 -28.36,0 -49.62,-8.16 -63.8,-24.46 -14.19,-16.32 -21.28,-39.09 -21.28,-68.31 0,-32.43 6.03,-55.05 18.13,-67.86 12.07,-12.81 30.01,-19.21 53.77,-19.21 10.77,0 21.37,1.7 31.74,5.1 10.39,3.4 19.88,7.91 28.49,13.5 z m 108.38,-67.55 c 0,-31.62 -4.52,-58.24 -13.52,-79.85 -9,-21.62 -21.61,-38.53 -37.84,-50.74 -16.2,-12.41 -35.77,-21.37 -58.69,-26.88 -22.91,-5.5 -48.79,-8.26 -77.61,-8.26 -23.43,0 -46.5,1.4 -69.21,4.21 -22.71,2.8 -42.37,6.2 -58.98,10.21 v 84.36 h 13.17 c 13.19,-5.2 29.29,-9.95 48.27,-14.26 19,-4.29 35.98,-6.45 50.98,-6.45 19.97,0 36.22,1.85 48.72,5.56 12.48,3.7 22.01,8.95 28.61,15.76 6.19,6.4 10.71,14.61 13.49,24.61 2.81,10.01 4.23,22.02 4.23,36.03 v 6.31 c -13,-10.62 -27.41,-19.02 -43.21,-25.21 -15.78,-6.23 -33.37,-9.32 -52.77,-9.32 -47.17,0 -83.55,14.21 -109.16,42.63 -25.59,28.42 -38.38,71.67 -38.38,129.71 0,27.82 3.91,51.84 11.69,72.05 7.81,20.23 18.79,37.84 33,52.85 13.19,14 29.44,24.92 48.72,32.72 19.31,7.81 39.03,11.71 59.23,11.71 18.2,0 34.74,-2.15 49.62,-6.45 14.9,-4.31 28.44,-10.26 40.64,-17.87 l 3.91,15.02 h 105.09 v -298.45" /><path
             id="path132"
             style="fill:#ffffff;fill-opacity:1;fill-rule:nonzero;stroke:none"
             d="m 8506.61,1410.95 h -9.59 c -4.6,1.6 -11.98,2.81 -22.17,3.61 -10.19,0.79 -18.67,1.2 -25.47,1.2 -15.38,0 -28.95,-1.01 -40.74,-3.01 -11.77,-2 -24.46,-5.4 -38.03,-10.2 V 1176.76 H 8262.2 v 337.18 h 108.41 v -49.55 c 23.76,20.42 44.43,33.98 62,40.68 17.58,6.71 33.76,10.07 48.52,10.07 3.8,0 8.11,-0.1 12.88,-0.3 4.81,-0.2 9.01,-0.51 12.6,-0.9 v -102.99" /><path
             id="path134"
             style="fill:#ffffff;fill-opacity:1;fill-rule:nonzero;stroke:none"
             d="M 8760.33,1264.96 V 1335 c -14.61,-1.2 -30.41,-2.86 -47.42,-4.94 -17.04,-2.1 -29.94,-4.54 -38.74,-7.35 -10.82,-3.39 -19.07,-8.32 -24.78,-14.8 -5.7,-6.5 -8.55,-15.02 -8.55,-25.59 0,-6.98 0.61,-12.68 1.8,-17.06 1.21,-4.39 4.22,-8.58 9.02,-12.57 4.6,-3.99 10.1,-6.93 16.49,-8.83 6.42,-1.89 16.43,-2.84 30.03,-2.84 10.82,0 21.77,2.19 32.88,6.57 11.12,4.4 20.87,10.19 29.27,17.37 z m 0,-52.46 c -5.79,-4.42 -13.02,-9.71 -21.61,-15.91 -8.59,-6.21 -16.72,-11.12 -24.34,-14.72 -10.58,-4.8 -21.61,-8.36 -33,-10.66 -11.41,-2.3 -23.93,-3.45 -37.53,-3.45 -32.02,0 -58.85,9.9 -80.46,29.72 -21.63,19.82 -32.43,45.13 -32.43,75.96 0,24.62 5.5,44.74 16.52,60.36 11,15.6 26.61,27.92 46.82,36.92 20.02,9.01 44.84,15.41 74.46,19.22 29.63,3.8 60.35,6.6 92.18,8.4 v 1.8 c 0,18.63 -7.61,31.48 -22.82,38.59 -15.23,7.1 -37.62,10.66 -67.25,10.66 -17.81,0 -36.83,-3.15 -57.05,-9.46 -20.22,-6.31 -34.72,-11.15 -43.54,-14.57 h -9.9 v 81.36 c 11.41,3.01 29.96,6.56 55.68,10.67 25.73,4.1 51.51,6.15 77.32,6.15 61.45,0 105.85,-9.45 133.15,-28.37 27.32,-18.91 40.99,-48.59 40.99,-89.02 v -229.39 h -107.19 v 35.74" /><path
             id="path136"
             style="fill:#ffffff;fill-opacity:1;fill-rule:nonzero;stroke:none"
             d="m 9284.58,1415.76 v -239 H 9176.2 v 168.44 c 0,16.41 -0.4,30.37 -1.21,41.89 -0.78,11.5 -2.98,20.86 -6.59,28.07 -3.6,7.2 -9.07,12.45 -16.37,15.76 -7.31,3.3 -17.57,4.96 -30.77,4.96 -10.62,0 -20.92,-2.16 -30.92,-6.46 -10.02,-4.31 -19.01,-8.87 -27.03,-13.66 v -239 h -108.38 v 337.18 h 108.38 v -37.23 c 18.58,14.6 36.39,26.01 53.38,34.22 16.98,8.21 35.77,12.31 56.38,12.31 22.19,0 41.78,-4.95 58.78,-14.85 16.98,-9.92 30.27,-24.48 39.88,-43.7 21.56,18.22 42.55,32.53 62.95,42.94 20.38,10.4 40.37,15.61 59.97,15.61 36.36,0 64,-10.91 82.88,-32.72 18.9,-21.82 28.35,-53.24 28.35,-94.28 v -219.48 h -108.41 v 168.44 c 0,16.61 -0.33,30.63 -1.05,42.04 -0.7,11.4 -2.86,20.71 -6.44,27.92 -3.41,7.2 -8.82,12.45 -16.23,15.76 -7.4,3.3 -17.79,4.96 -31.22,4.96 -8.99,0 -17.81,-1.57 -26.41,-4.66 -8.62,-3.1 -19.13,-8.26 -31.54,-15.46" /><path
             id="path138"
             style="fill:#ffffff;fill-opacity:1;fill-rule:nonzero;stroke:none"
             d="m 9923.53,1415.76 v -239 h -108.4 v 168.44 c 0,16.41 -0.41,30.37 -1.19,41.89 -0.81,11.5 -3.01,20.86 -6.61,28.07 -3.61,7.2 -9.06,12.45 -16.35,15.76 -7.32,3.3 -17.58,4.96 -30.79,4.96 -10.63,0 -20.92,-2.16 -30.93,-6.46 -10.01,-4.31 -19.02,-8.87 -27.02,-13.66 v -239 h -108.38 v 337.18 h 108.38 v -37.23 c 18.6,14.6 36.39,26.01 53.39,34.22 16.99,8.21 35.77,12.31 56.37,12.31 22.18,0 41.77,-4.95 58.76,-14.85 16.99,-9.92 30.29,-24.48 39.88,-43.7 21.6,18.22 42.57,32.53 62.95,42.94 20.4,10.4 40.41,15.61 60.01,15.61 36.3,0 64,-10.91 82.9,-32.72 18.8,-21.82 28.3,-53.24 28.3,-94.28 v -219.48 h -108.4 v 168.44 c 0,16.61 -0.3,30.63 -1,42.04 -0.7,11.4 -2.9,20.71 -6.5,27.92 -3.4,7.2 -8.8,12.45 -16.2,15.76 -7.4,3.3 -17.83,4.96 -31.23,4.96 -9.02,0 -17.82,-1.57 -26.43,-4.66 -8.6,-3.1 -19.1,-8.26 -31.51,-15.46" /><path
             id="path140"
             style="fill:#ffffff;fill-opacity:1;fill-rule:nonzero;stroke:none"
             d="m 10457.7,1388.74 c -0.6,22.61 -6.2,39.63 -16.8,51.03 -10.6,11.42 -27.2,17.12 -49.6,17.12 -20.8,0 -37.9,-5.41 -51.3,-16.21 -13.4,-10.81 -20.9,-28.13 -22.5,-51.94 z m 107.5,-63.35 h -247.4 c 1.6,-26.43 11.6,-46.64 30.1,-60.66 18.5,-14 45.8,-21.01 81.9,-21.01 22.8,0 44.9,4.1 66.3,12.3 21.4,8.21 38.3,17.01 50.7,26.44 h 12 v -86.77 c -24.4,-9.82 -47.4,-16.92 -69,-21.33 -21.6,-4.39 -45.5,-6.6 -71.8,-6.6 -67.6,0 -119.4,15.21 -155.5,45.63 -36,30.42 -54,73.76 -54,130 0,55.64 17,99.73 51.2,132.27 34.1,32.52 80.9,48.78 140.3,48.78 54.9,0 96.1,-13.86 123.7,-41.58 27.7,-27.73 41.5,-67.6 41.5,-119.64 v -37.83" /></g></g></g></g></svg>