<?xml version="1.0" encoding="UTF-8" standalone="no"?>
<svg
   xmlns:dc="http://purl.org/dc/elements/1.1/"
   xmlns:cc="http://creativecommons.org/ns#"
   xmlns:rdf="http://www.w3.org/1999/02/22-rdf-syntax-ns#"
   xmlns:svg="http://www.w3.org/2000/svg"
   xmlns="http://www.w3.org/2000/svg"
   viewBox="0 0 858.53333 377.94666"
   height="377.94666"
   width="858.53333"
   xml:space="preserve"
   id="svg2"
   version="1.1"><metadata
     id="metadata8"><rdf:RDF><cc:Work
         rdf:about=""><dc:format>image/svg+xml</dc:format><dc:type
           rdf:resource="http://purl.org/dc/dcmitype/StillImage" /></cc:Work></rdf:RDF></metadata><defs
     id="defs6"><clipPath
       id="clipPath20"
       clipPathUnits="userSpaceOnUse"><path
         id="path18"
         d="M 0,2834.65 V 0 h 6438.95 v 2834.65 z" /></clipPath></defs><g
     transform="matrix(1.3333333,0,0,-1.3333333,0,377.94667)"
     id="g10"><g
       transform="scale(0.1)"
       id="g12"><g
         id="g14"><g
           clip-path="url(#clipPath20)"
           id="g16"><path
             id="path22"
             style="fill:#ffffff;fill-opacity:1;fill-rule:nonzero;stroke:none"
             d="m 1340.51,2134.12 c 12.51,27.07 24.09,48.61 40.79,74.31 7.37,11.31 15.69,19.21 23.11,30.67 -3.55,1.02 -8.73,-1.92 -10.96,-3.5 -7.42,-5.39 -10.77,-14.14 -16.72,-18.81 -14.03,-11.07 -13.63,-21.11 -20.99,-26.27 -6.57,-4.64 -8.45,-7.69 -13.06,-14.9 -3.07,-4.83 -5.34,-8.73 -8.59,-18.24 -1.15,-3.42 -3.45,-0.39 -8.93,-7.93 -7.18,-9.81 -10.4,-20.39 -13.38,-32.26 -0.96,-3.9 -7.6,-5.96 -11.86,-14.07 -5.72,-10.92 -9.44,-21.03 -11.9,-36.95 -0.62,-3.69 -6.86,-6.25 -11.16,-16.53 -3.05,-7.23 -5.24,-8.83 -7.91,-22.46 -1.64,-8.3 -5.42,-9.5 -9.7,-21.56 -3.29,-9.2 -3.42,-18.06 -4.57,-30.08 -0.27,-2.33 -4.21,-6.95 -7.84,-13.69 -6.09,-11.26 -5.89,-18.78 -8.32,-30.41 -0.92,-4.2 -5.63,-9.77 -10.17,-27.79 -3.98,-15.98 -0.33,-26.58 -1.68,-34.45 -3.53,-20.45 -7.04,-38.21 -5.14,-58.35 0.94,-9.85 2.44,-20.01 1.78,-29.48 -1.88,-29.7 -3.48,-54.17 -3.32,-87.83 0.11,-18.32 1.54,-43.41 4.31,-64.29 3.04,-23.06 7.44,-41.07 7.44,-41.07 h 75.14 c 0,0 -2.93,43.45 0.96,89.19 2.3,27.42 8.83,56.48 14.76,76.89 7.5,26.03 12.17,39.51 26.36,73.85 0.3,0.76 -0.09,3.98 -3.84,0.83 -7.84,-6.58 -14.38,-12.38 -20.58,-21.69 -9.45,-14.26 -15.21,-25.99 -22.87,-40.63 -8.95,-17.02 -13.88,-31.84 -23.1,-52.52 -0.56,14.92 1.87,29.12 4.89,42.87 3.11,14.04 5.58,25.16 9.98,37.26 7.84,21.35 15.43,39.16 27.99,59.02 7.28,11.48 16.58,21.78 26.02,30.33 11.29,10.32 21.72,19.39 33.54,29.5 -12.41,6.4 -28.95,-6.97 -32.26,-7.65 -17.47,-3.41 -24.58,-19.61 -29.94,-21.82 -7.64,-3.2 -12.07,-7.89 -17.38,-14.34 -4.08,-4.84 -5.3,-12.32 -9.59,-14.98 -7.13,-4.44 -12.36,-11.15 -17.26,-20.5 -2.01,-3.86 -7.49,-22.13 -13.6,-19.78 10.43,61.92 32.29,120.01 67.38,171.69 22.26,32.78 46.46,60.89 82.13,86.11 4.69,3.33 5.61,4.89 -0.96,4.65 -33.34,-4.05 -35.37,-19.26 -40.86,-20.7 -5.21,-1.35 -11.65,-7.52 -15.77,-11.53 -7.42,-7.34 -7.28,-13.51 -10.13,-15.43 -6.09,-4.25 -10.66,-8.66 -14.82,-16.03 -2.17,-3.84 -5.85,-12.3 -9.11,-14.23 -8.55,-4.96 -16.85,-12.19 -20.98,-19.99 -3.06,-5.7 -4.27,-11.89 -8.26,-17.5 -4.26,-6.01 -10.23,-10.52 -15.36,-14.87 3.91,26.46 16.37,57.82 24.95,84.87 11.55,36.12 25.55,68.95 41.34,103.07" /><path
             id="path24"
             style="fill:#ffffff;fill-opacity:1;fill-rule:nonzero;stroke:none"
             d="m 1417.22,1919.62 c 28.44,63.85 58.37,111.9 97.26,168.11 5.09,7.36 9.64,14.58 14.08,21.48 2,3.11 11.56,16.86 13.55,19.77 13.04,19.69 18.52,25.72 31.87,44.53 3.61,5.11 6.54,9.13 8.07,15.04 2.85,11.01 -6.6,18.4 -8.77,28.96 -2.21,10.79 -1.01,22.57 3.95,31.68 3.1,5.69 6.19,7.93 9.31,15.58 6.06,14.72 3.97,46.59 10.88,47.43 -1.76,-15.13 -2.16,-32.13 0.21,-46.64 2.77,-16.93 13.05,-27.18 17.28,-45.11 11.42,2.06 23.84,1.57 33.44,0.74 9.55,-0.81 21.62,1.83 31.41,5.18 13.26,4.53 24.27,12.78 37.79,15.98 -11.5,-11.05 -27.73,-15.2 -41.32,-23.59 -5,-3.14 -9.71,-7.28 -13.05,-12.46 -5.48,-8.5 -9.79,-16.64 -18.35,-20.37 -15.2,-6.62 -28.24,-3.48 -45.58,-6.7 -25.75,-26.54 -50,-62.63 -72.37,-100.59 -56.73,-95.96 -104.03,-195.36 -131.54,-297.29 9.5,17.74 18.6,34.89 28.9,51.76 11.38,18.74 24.18,37.09 38.13,55.47 32.66,43.05 64.97,80.63 101.17,120.19 29.22,31.95 61.25,58.76 96.96,81.18 47.19,29.57 105.41,50.28 156.57,39.6 5.81,-1.36 14.13,-2.91 17.77,-6.74 -64.12,8.98 -121.55,-13.42 -164.4,-47.74 -33.86,-27.08 -62.39,-54.57 -91.4,-90.27 -14.97,-17.21 -28.44,-36.13 -41.83,-54.45 -14.01,-19.28 -26.44,-39.55 -38.76,-59.83 -41.55,-68.61 -73,-141.26 -96.12,-216.51 -0.66,-2.39 -0.81,-4.79 -1.47,-7.16 1.11,1.69 2.73,3.53 3.82,5.25 31.12,50.61 68.55,99.45 115.95,132.22 4.14,2.82 8.47,8.25 9.57,12.54 5.13,20.08 -10.18,29.74 11.01,57.51 4.86,6.38 11.5,8.71 16.09,14.63 8.67,13.41 15.74,37.42 23,43.87 -3.65,-15.64 -12.62,-32.15 -14.53,-48.26 -2.03,-17.68 2.49,-32.14 3.28,-50.88 12.52,-1.71 22.2,-7.01 32.03,-10.04 15.28,-4.77 24.45,-3.56 39.56,-2.25 6.46,0.54 18.16,4.31 25.12,2.89 -14.62,-7.99 -34.35,-6.51 -49.3,-14.14 -10.45,-5.36 -13.49,-13.27 -27.91,-16.05 -12.84,-2.5 -23.63,-1.16 -31.98,3.12 -6.49,3.27 -11.56,4.64 -17.39,1.85 -15.56,-7.47 -26.18,-18.02 -38.7,-30.65 -29.08,-29.26 -52.82,-61.93 -74.97,-104.75 -5.85,-11.39 -11.12,-22.64 -16.13,-34.25 -2.46,-5.66 -8.58,-21.33 -8.58,-21.33 h -75.99 c 0,0 -0.19,21.9 0.52,29.91 1.46,15.94 3.62,27.75 6.72,43.92 4.41,23.27 8.72,44.38 14.75,66.95 5.89,21.96 12.22,42.56 19.75,63.65 15.71,43.96 32.4,86.06 50.67,127.06" /><path
             id="path26"
             style="fill:#ffffff;fill-opacity:1;fill-rule:nonzero;stroke:none"
             d="m 682.551,1327.77 c 27.73,22.69 48.269,35.83 75.961,52.33 11.238,6.73 28.258,14.34 41.332,20.26 47.984,21.68 111.465,37.66 171.269,38.76 1.082,0 1.016,-0.04 1.016,-0.04 h 445.911 c 0,0 -1.67,0.04 1.55,0.04 14.19,0 28.23,-4.93 36.92,-13.13 8.7,-8.25 12.87,-20.98 15.14,-33.63 1.92,-10.78 0.97,-20.36 -1.53,-31.9 -1.96,-9.09 -3.44,-14.53 -8.5,-22.27 -3.08,-4.7 -5.99,-7.93 -11.69,-12.48 -5.85,-4.67 -14.16,-6.3 -23.67,-6.39 -1,-0.05 -3.13,-0.11 -3.05,-0.08 0.1,0.08 -521.569,0.08 -521.569,0.08 0,0 -3.243,0.01 -4.868,0.01 -34.152,0.11 -70.097,-1.63 -103.835,-6.04 -25.844,-3.52 -51.743,-7.56 -76.723,-14.06 -31.504,-8.22 -61.84,-19.62 -92.117,-30.91 16.785,22.32 36.16,41.24 58.453,59.45" /><path
             id="path28"
             style="fill:#ffffff;fill-opacity:1;fill-rule:nonzero;stroke:none"
             d="m 837.387,1505.19 c 27.398,19.78 60.66,36.02 90.125,47.31 14.949,5.66 34.812,11.93 50.59,15.86 19.066,4.81 40.968,8.41 58.838,8.94 5.38,0.15 0.79,0.04 0.79,0.04 l 382.45,0.03 c 0,0 8.2,-0.43 11.04,-0.98 7.18,-1.55 12.98,-4.49 15.39,-6.02 5.94,-3.81 13.39,-11.81 17.3,-18.14 9.93,-16.36 11.68,-34.01 8.47,-52.37 -3.68,-20.97 -19.62,-44.87 -41.24,-45.45 -3.76,-0.1 -11.28,0 -11.28,0 h -414.24 c 0,0 -24.1,-0.47 -35.116,-0.87 -20.371,-0.8 -42.965,-3.13 -60.746,-5.74 -15.223,-2.19 -30.086,-5.07 -45.317,-9.15 -51.066,-13.8 -95.449,-39.69 -141.859,-59.84 31.262,54.63 73.539,96.48 114.805,126.38" /><path
             id="path30"
             style="fill:#ffffff;fill-opacity:1;fill-rule:nonzero;stroke:none"
             d="m 623.434,1245.26 c 66.488,39.27 146.582,54.76 219.886,57.22 1.746,0.08 5.219,0.2 5.219,0.2 l 571.751,-0.05 c 0,0 1.03,0 6.21,0.05 34.64,0.03 47.3,-34.36 47.14,-62.16 -0.07,-9.15 -1.62,-18.5 -4.16,-24.77 -3.29,-8.19 -6.94,-14.88 -12.89,-21.33 -2.12,-2.35 -9.79,-7.73 -13.18,-8.57 -7.92,-1.92 -17.66,-1.71 -17.6,-1.71 0.07,0 -425.27,-0.08 -425.27,0 0,0 -22.95,0.92 -38.876,2.45 -11.465,1.14 -20.176,2.34 -32.086,4.6 -29.289,5.82 -53.566,15.35 -78.93,23.18 -16.914,5.23 -34.71,9.13 -53.277,11.93 -34.133,5.22 -71.41,7.61 -105.883,4.99 -43.851,-3.25 -82.851,-11.85 -124.554,-25.08 7.05,11 36.367,27.12 56.5,39.05" /><path
             id="path32"
             style="fill:#ffffff;fill-opacity:1;fill-rule:nonzero;stroke:none"
             d="m 931.395,1065.98 c -19.547,6.88 -38.614,15.77 -55.727,27.07 -22.277,14.74 -33.203,26.47 -62.008,39.78 -24.644,11.39 -44.324,22.63 -78.687,35.08 -16.578,6.02 -43.442,14.28 -66.477,18.22 -32.91,5.59 -64.641,8.04 -64.641,8.04 0,0 6.727,4.19 10.774,5.43 33.59,10.23 63.246,15.22 97.742,17.76 30.242,2.27 58.035,-0.68 88.352,-5.42 12.441,-1.96 28.617,-5.79 42.668,-9.8 45.636,-12.99 97.527,-33.58 143.55,-33.66 2.567,0 2.274,0.04 2.274,0.04 h 425.025 c 0,0 -3.21,0 1.29,0 12.88,0.04 36.94,-4.13 46.61,-21.21 11.19,-19.68 14.68,-43.13 5.27,-66.61 -2.85,-7.05 -7.57,-17.15 -14.38,-23.28 -5.96,-5.4 -15.66,-8.86 -21.26,-8.86 -1.62,-0.08 -4.39,0 -4.39,0 h -371.71 c 0,0 1.41,0 -2.02,0 -38.01,0 -85.857,4.6 -122.255,17.42" /><path
             id="path34"
             style="fill:#ffffff;fill-opacity:1;fill-rule:nonzero;stroke:none"
             d="m 1100.71,934.129 c -10.51,10.789 -25.01,27.34 -38.15,43.043 -25.23,30.078 -36.52,57.168 -36.52,57.168 h 247.92 c 0,0 0.66,-28.61 -5.08,-61.719 -5.35,-30.75 -16.71,-63.18 -28.79,-86.66 -0.45,-24.082 9.72,-46.481 11.39,-70.27 -20.36,-12.5 -42.26,-24.871 -60.52,-42.429 -1.16,-1.063 -3.04,-1.063 -3.82,1.84 -9.78,36.66 -14.93,69.339 -22.95,105.589 -22.59,17.481 -43.79,33.039 -63.48,53.438" /><path
             id="path36"
             style="fill:#ffffff;fill-opacity:1;fill-rule:nonzero;stroke:none"
             d="m 1356.21,954.461 c -7.02,12.949 -12.25,30.051 -20.29,40.219 -1.73,-9.059 0.4,-14.649 -0.83,-23.328 -1.13,-7.274 -7.1,-4.25 -8.3,-0.832 -3.47,9.839 -7.18,21.98 -10.35,32.07 -5.29,16.82 -6.99,31.7 -6.99,31.7 l 41.25,0.05 c 0,0 1.58,-0.39 2.32,-4.41 1.97,-10.39 1.49,-20.53 4.33,-32.571 3.66,-15.507 8.37,-29.668 14.07,-44.148 4.95,-12.723 11.35,-25.551 16.55,-38.199 0.7,-1.66 1.05,-4.852 -0.21,-6.512 -1.53,-1.93 -4.16,-1.68 -5.67,0 -11.81,13.43 -16.58,28.629 -25.88,45.961" /><path
             id="path38"
             style="fill:#ffffff;fill-opacity:1;fill-rule:nonzero;stroke:none"
             d="m 1420.05,924.98 c -7.01,14.95 -16.88,31.758 -16.02,48.719 4.56,-5.98 6.44,-10.277 12.72,-13.621 2.87,-0.918 8.89,-0.058 7.38,4.953 -2.77,9.36 -7.08,17.27 -11.06,30.078 -5.93,18.951 -11.68,39.211 -11.68,39.211 l -42.09,0.02 c 0,0 2.34,-17.08 11.9,-43.289 8.41,-23.223 21.4,-49.781 35.62,-74.672 11.58,-20.488 22.11,-38.359 35.25,-53.309 4.5,-5.16 15.53,-0.64 10.76,6.059 -12.47,17.633 -24.11,37.172 -32.78,55.851" /><path
             id="path40"
             style="fill:#ffffff;fill-opacity:1;fill-rule:nonzero;stroke:none"
             d="m 1693.4,2347.86 c -9.13,-3.98 -17.2,-9.13 -21.76,-17.91 -3.32,-6.31 -5.56,-15.92 0.79,-21.34 11.11,-9.48 24.37,0.23 29.75,9.93 6.78,12.34 5.02,35.95 5.02,35.95 0,0 -7.9,-4.11 -13.8,-6.63" /><path
             id="path42"
             style="fill:#ffffff;fill-opacity:1;fill-rule:nonzero;stroke:none"
             d="m 1703.07,2288.93 c 3.99,7.53 12.74,15.67 22.33,21.5 10.84,6.63 22.07,13.06 29.88,17.72 7.81,4.7 9.3,7.99 9.3,7.99 0,0 -6.44,-2.21 -9.96,-4.3 -19.27,-11.49 -40.31,-24.55 -48.86,-28.32 -10.8,-4.72 -25.48,-5.62 -38.71,-7.31 -2.11,16.69 -6.44,23.61 -6.39,38.44 0.11,7.12 1.84,16.34 3.04,22.77 4.14,21.43 4.95,32.24 4.95,32.24 0,0 -3.27,-3.04 -4.47,-12.48 -1.34,-8.51 -2.3,-11.66 -4.25,-21.72 -2.23,-11.63 -4.55,-21.48 -11.5,-28.75 -10.02,-10.35 -19.3,-28.81 -11.56,-42.95 4.51,-8.26 12.04,-7.06 14.4,-9.19 2.35,-2.12 3.78,-7.21 10.92,-9.57 15.39,-5.14 32.83,8.66 40.88,23.93" /><path
             id="path44"
             style="fill:#ffffff;fill-opacity:1;fill-rule:nonzero;stroke:none"
             d="m 1683.12,2244.86 c 5.22,8.47 10.58,14.42 18.81,19.47 13.66,8.33 23.8,13.97 32.13,18.24 3.62,1.81 6.64,3.97 7.56,7.83 -3.74,-1.4 -17.84,-8.02 -31.85,-16.35 -10.02,-5.99 -27.26,-13.46 -38.85,-14 -4.58,-0.21 -7.99,0.93 -11.74,1.04 -7.76,0.33 -17.66,-1.55 -17.66,-1.55 0,0 -2.51,10.98 -5.82,18.89 -1.67,4.06 -4.36,8.22 -5.8,15.84 -0.98,5.07 -1.27,12.69 -0.87,17.24 1.13,13.73 4.84,27.07 4.2,40.97 -8.63,-17.93 -5.1,-40 -15.24,-53.88 -4.26,-5.83 -7.65,-10.43 -11.01,-17.78 -5.56,-12.06 -4.9,-24.55 2.62,-36.18 4.33,-6.62 13.91,-6.38 15.56,-7.67 2.5,-1.85 4.65,-8.78 14.01,-10.86 16.01,-3.6 34.89,3.82 43.95,18.75" /><path
             id="path46"
             style="fill:#ffffff;fill-opacity:1;fill-rule:nonzero;stroke:none"
             d="m 1687.59,1894.26 c 3.73,7.53 6.14,17.42 10.89,24.41 -10.76,-1.61 -12.5,-2.84 -28.04,-4.55 -3.39,-0.32 -10.4,-3.84 -12.72,-6.16 -6.15,-6.2 -11.51,-11.96 -9.13,-22.37 0.92,-4.05 4.5,-7.02 6.49,-7.65 12.92,-4.2 26.05,3.49 32.51,16.32" /><path
             id="path48"
             style="fill:#ffffff;fill-opacity:1;fill-rule:nonzero;stroke:none"
             d="m 1700.71,1873.74 c 14.69,3.43 31.67,10.64 38.48,8.37 -13.79,-7.33 -31.17,-10 -46.44,-14.35 -11.66,-3.35 -19.98,-12.16 -30.38,-20.15 -9.55,-7.27 -22.25,-10.22 -33.59,-4.88 -3.83,1.82 -7.54,7.99 -8.21,11.28 -0.59,2.63 -6.06,5.26 -8.88,7.58 -2.84,2.36 -4.2,8.25 -4.26,10.52 -0.49,20.34 14.99,28.55 29.89,40.5 11.23,8.99 25.81,47.16 34.7,55.07 -1.58,-12.3 -17.57,-35.52 -24.54,-53.58 -5.54,-14.39 -3.73,-25.9 -7.29,-41.04 10.66,-0.68 22.54,-2.92 33.27,-3.09 8.42,-0.11 18.6,1.72 27.25,3.77" /><path
             id="path50"
             style="fill:#ffffff;fill-opacity:1;fill-rule:nonzero;stroke:none"
             d="m 1685.23,1842.38 c -8.25,-1.52 -18.34,-4.12 -25.23,-5.58 -23.96,-5.07 -35.4,6.66 -54.53,6.44 1.68,21.9 -5.92,31.71 0.34,45.87 5.59,12.6 10.76,25.94 15.56,36.61 3.88,8.57 5.07,15.8 5.07,15.8 0,0 -5.81,-8.69 -22.32,-40.86 -5.74,-11.23 -16.02,-13.63 -25.16,-24.23 -10.5,-12.12 -16.52,-37.75 2.9,-48.51 3.87,-2.12 3.31,-8.78 6.12,-11.47 12.98,-12.21 39.19,-10.98 55.58,3.9 13.05,11.89 28.91,13.82 42.42,17.32 7.91,2.05 14.84,5.4 14.84,5.4 0,0 -3.75,1.53 -15.59,-0.69" /><path
             id="path52"
             style="fill:#ffffff;fill-opacity:1;fill-rule:nonzero;stroke:none"
             d="m 1205.23,1588.14 c -0.95,0 -1.96,0 0,0 z m -111.89,315.55 c -7.99,-10.56 -11.68,-22.7 -20.5,-31.92 -4.6,-4.83 -11.62,-2.57 -15.27,2.99 -4.05,6.29 -10.59,15.18 -5.72,21.39 8,10.27 24.75,16.81 38.99,14.96 0.84,-0.09 5.43,-3.48 2.5,-7.42 z M 1055,1843.3 c -4.47,-11.97 -17.8,-13.26 -29.14,-15.62 -2.12,-0.46 -8.65,0 -11.57,2.87 -4.91,4.79 -9.14,11.34 -8.29,19.54 0.45,5.06 4.68,10.02 9.9,12.03 9.47,3.67 20.69,9.57 30.03,4.33 8.03,-4.49 12.24,-14.72 9.07,-23.15 z m -24.55,-63.22 c -3.27,-4.72 -11.64,10.95 -12.73,18.12 -3.13,20.77 15.07,26.07 30.23,25.42 0.48,-12.38 -9.12,-31.56 -17.5,-43.54 z m -16.38,-56.04 c -2.98,-8.35 -4.41,-16.03 -7.73,-23.68 -3.22,-7.41 -16.977,-10.04 -24.602,-7.67 -10.898,3.37 -20.238,27.83 -7.855,37.2 9.476,7.08 19.293,8.22 31.357,9.7 2.17,0.26 10.27,-0.23 10.59,-0.99 2.02,-5.07 0.74,-7.61 -1.76,-14.56 z m -18.34,-64.58 c -2.207,-6.42 -3.179,-13.02 -6.019,-19.19 -1.418,-3.13 -3.289,0.98 -3.363,1.19 -4.282,10.64 -6.977,19.65 -3.328,29.02 2.062,5.19 9.16,9.96 15.898,10.38 -0.418,-6.67 -0.887,-14.9 -3.188,-21.4 z m -21.652,-31.5 c -4.922,2.24 -4.848,8.56 -6.906,12.49 -1.942,3.84 -6.133,9.13 -4.414,14.17 9.504,-5.33 13.906,-14.83 11.32,-26.66 z m -16.383,39.32 c -11.332,9.32 -12.32,24.22 -19.863,35.62 8.328,5.33 22.387,4.25 26.711,-6.29 3.449,-8.48 5.961,-20.94 -2.633,-27.41 -0.933,-0.69 -3.144,-2.81 -4.215,-1.92 z m -42.25,76.85 c -1.695,2.42 -5.058,9.43 -2.496,10.32 20.281,6.98 35.496,7.21 39.828,-14.49 3.075,-15.49 -7.504,-28.77 -22.328,-23.36 -4.25,1.58 -8.461,18.06 -15.004,27.53 z m -29.5,48.99 c -1.418,1.79 -2.57,7.18 -0.8,8.56 10.543,8.48 26.031,9.13 38.015,7.96 15.809,-1.45 19.063,-16.13 16.418,-28.33 -3.473,-16.04 -27.797,-18.03 -34.683,-15.36 -6.77,2.61 -11.497,17.94 -18.95,27.17 z m 3.45,57.03 c 13.664,8.86 39.785,15.43 44.14,-8.56 1.32,-7.23 -0.484,-16.83 -10.254,-19.98 -10.027,-3.21 -21.843,-6.68 -31.011,-2.96 -11.27,4.61 -13.485,24.65 -2.875,31.5 z m -14.168,40.36 c 1.035,4.6 6.128,6.78 10.418,7.88 11.058,2.72 23.433,6.85 33.578,0.38 3.965,-2.5 4.269,-6.04 4.785,-11.02 0.894,-8.07 -0.246,-14.65 -5.563,-17.74 -10.777,-6.33 -21.742,-6.89 -34.261,-4.43 -10.157,2.01 -10.985,15.47 -8.957,24.93 z m -11.336,-62.21 c -9.473,7 -13.657,16.91 -20.633,26.72 -1.688,2.4 0,3.39 1.289,3.76 16.808,4.76 29.277,-3.63 26.66,-21.96 -0.469,-3.56 -2.777,-11.85 -7.316,-8.52 z m -46.387,56.61 c -6.297,5.45 -1.918,14.92 3.57,17.68 9.614,4.77 24.711,5.49 34.703,2.12 6.43,-2.16 9.688,-11.39 8.532,-21.47 -0.485,-4.13 -1.743,-8.67 -3.766,-10.01 -7.609,-5.19 -19.387,-5.4 -28.645,-3.47 -6.55,1.39 -8.886,10.35 -14.394,15.15 z m -7.254,57.25 c 6.082,13.25 28.305,13.36 40.398,7.46 9.856,-4.85 11.094,-23.19 0.332,-30.42 -8.582,-5.72 -22.113,-3.62 -31.218,-1.95 -12.93,2.38 -13.965,15.1 -9.512,24.91 z m 0.492,49.61 c 9.231,8.77 21.188,4.75 32.301,3.21 2.152,-0.3 4.715,-1.82 6.176,-3.27 7.593,-7.67 8.191,-20.24 -0.266,-26.53 -9.75,-7.25 -21.918,-2.54 -33.641,-1.95 -3.164,0.13 -6.64,3.85 -7.367,6.23 -2.109,7.43 -3.39,16.49 2.797,22.31 z m 5.946,41.49 c 9.796,4.1 26.632,5.97 33.578,-5.03 4.254,-6.75 3.015,-19.22 -3.817,-21.03 -6.691,-1.73 -29.457,-5.51 -34.906,7.07 -2.703,6.19 -1.559,16.17 5.145,18.99 z m 30.16,35.26 c 2.84,-1.26 4.601,-3.53 5.269,-7.02 1.399,-7.54 -0.586,-15.74 -7.836,-17.07 -10.886,-1.98 -27.054,-2.61 -27,12.78 0.043,17.18 16.957,16.98 29.567,11.31 z m -21.914,31.92 c 5.793,2.21 15.324,1.72 20.527,-0.99 2.625,-1.37 6.156,-5.68 4.668,-10.22 -1.848,-5.93 -7.359,-8.07 -13.629,-8.14 -6.02,-0.06 -12.922,0.41 -15.355,5.34 -2.305,4.65 -1.325,12.04 3.789,14.01 z m 6.765,25.74 c 5.293,1.93 13.125,1.8 16.985,-2.38 5.3,-5.8 1.117,-15 -8.887,-14.55 -3.527,0.16 -7.703,1.37 -9.824,2.58 -5.176,2.92 -3.457,12.5 1.726,14.35 z m 23.809,16.59 c 0.68,2.23 4.164,4.85 5.98,5.49 3.977,1.42 8.633,1.7 12.434,0.19 7.601,-3.13 6.558,-12.54 -1.563,-15.83 -3.629,-1.48 -9.214,-2.42 -11.953,-1.48 -5.109,1.74 -6.527,6.18 -4.898,11.63 z M 879.195,2106 c -8.297,-2.43 -19.855,-2.89 -22.332,5.61 -4.195,14.42 14.012,16.58 23.453,13.55 6.516,-2.06 8.817,-16.3 -1.121,-19.16 z m 5.489,47.63 c 2.625,8.94 12.757,13.79 21.925,11.06 7.895,-2.31 9.707,-13.06 4.387,-18.29 -2.41,-2.35 -6.41,-4.73 -10.707,-5.68 -9.383,-2.1 -18.601,3.07 -15.605,12.91 z m 41.254,-32.79 c -1.489,-5.83 -5.766,-9.84 -12.622,-11.36 -6.8,-1.49 -16.211,-1.91 -19.988,2.29 -3.594,3.98 -5.246,9.59 -2.242,13.88 6.019,8.56 17.043,11.55 26.867,9.38 5.606,-1.31 9.723,-7.05 7.985,-14.19 z m -3.668,34.31 c 3.668,8.1 12.96,12.19 21.886,9.47 1.782,-0.57 5.461,-3.45 5.977,-6.29 1.058,-5.64 -0.899,-10.79 -5.606,-13.74 -6.043,-3.85 -11.019,-6 -17.949,-3.17 -5.211,2.18 -6.476,8.94 -4.308,13.73 z m 38.445,-22.77 c 4.07,-6.92 -2.137,-13.84 -5.281,-15.74 -6.989,-4.09 -16.844,-6.6 -21.055,0.32 -4.141,6.8 -0.711,14.86 6.512,17.85 6.89,2.86 14.031,7.2 19.824,-2.43 z M 972.301,2106 c 4.558,-3.77 8.566,-11.7 3.094,-17.96 -5.129,-5.92 -11.516,-7.68 -19.583,-8.98 -5.46,-0.93 -12.445,3.1 -13.324,7.93 -0.812,4.15 -1.57,11.72 2.539,15.21 8.024,6.83 18.782,10.78 27.274,3.8 z m 9.672,44.98 c 4.304,-1.27 7.066,-5.83 4.902,-10.22 -1.313,-2.7 -5.187,-5.65 -7.645,-7.15 -6.769,-4.17 -12.57,-2.47 -14.687,2.51 -3.902,9.15 9.203,17.29 17.43,14.86 z m 16.5,-22.79 c 4.757,-0.42 6.937,-3.73 7.867,-7.36 1.23,-4.87 -0.38,-9.37 -4.49,-12.14 -4.893,-3.25 -10.987,-5.17 -15.858,-5.24 -6.597,-0.12 -12.707,9.55 -9.133,15.84 3.789,6.74 13.313,9.62 21.614,8.9 z m 27.277,-34.89 c 2.81,-8.28 -3.26,-12.14 -9.65,-15.55 -6.51,-3.46 -15.23,-6.7 -19.748,-2.38 -5.762,5.43 -8.329,14.58 -1.899,20.6 8.907,8.37 25.407,14.65 31.297,-2.67 z m 11.78,-20.77 c 10.46,-1.33 12.53,-16.21 10.42,-21.58 -2.38,-4.63 -7.65,-8.24 -10.42,-9.66 -7.68,-3.95 -16.64,-5.45 -23.69,-1.8 -6.43,3.33 -9.21,13.08 -5.72,20.73 4.72,10.34 19.62,13.6 29.41,12.31 z m 21.52,-46.05 c 3.58,-5 2.79,-13.87 0.67,-16.66 -6.59,-9 -24.96,-14.16 -32.54,-10.46 -5.75,2.82 -11.43,15.5 -4.69,23.11 7.01,7.9 19.21,12.61 30.31,10.3 2.46,-0.55 4.09,-3.27 6.25,-6.29 z m 4.64,-28.36 c 5.03,-0.54 9.51,-6.08 11.94,-12.11 3.16,-7.8 -0.03,-16.89 -2.53,-18.59 -6.02,-4.09 -25.08,-15.56 -37.08,-8.69 -6.6,3.79 -8.43,12.44 -8.84,17.55 -1.32,16.51 23.73,23.27 36.51,21.84 z m -70.393,-118.09 c -2.567,6.55 -4.945,16.24 0.199,20.22 10.394,8.2 33.894,15.37 42.834,2.97 5.81,-8.05 4.11,-21.7 -6.07,-26.93 -10.5,-5.36 -31.041,-11.53 -36.963,3.74 z m -50.414,-0.72 c 10.429,5.3 25.461,11.7 36.687,4.46 5.141,-3.29 10.446,-16.96 6.817,-23.02 -7.696,-12.87 -27.965,-16.15 -40.84,-12.84 -10.973,2.85 -14.274,25.53 -2.664,31.4 z m -9.375,44.49 c 12.582,8.85 37.437,14.57 43.422,-4.78 1.55,-5.01 2.441,-10.56 -0.121,-14.61 -6.981,-11.21 -24.664,-14.16 -36.497,-12.5 -12.8,1.86 -18.847,23.44 -6.804,31.89 z m -10.598,45.08 c 12.094,6.85 37.856,15.96 43.93,-3.68 2.422,-8.02 2.183,-17.95 -4.695,-21.49 -9.856,-5.16 -25.457,-10.58 -36.809,-3.5 -9.481,6 -10.762,23.89 -2.426,28.67 z m 67.68,81.02 c -5.067,-4.52 -10.203,-5.49 -16.942,-7.78 -9.437,-3.2 -19.316,4.07 -20.402,13.1 -1.82,15.46 14.746,17.76 25.707,19.69 7.988,1.45 12.934,-5.73 14.41,-10.56 1.504,-4.64 1.305,-10.87 -2.773,-14.45 z m 20.31,-36.36 c -7.19,-10.72 -36.166,-17.46 -42.556,-6.44 -4.668,8.06 -7.578,19.38 1.203,24.8 9.207,5.66 20.137,9.05 30.863,7.12 10.08,-1.78 15.21,-18.36 10.49,-25.48 z m 15.44,-66.34 c 4.13,-6.56 7,-15.38 0.88,-23.52 -5.55,-7.45 -25.37,-10.94 -35.509,-8.48 -5.566,1.4 -8.199,8.16 -9.055,12.73 -1.172,6.17 -1.734,12.38 3.731,17.41 7.855,7.19 18.343,7.04 28.403,7.04 4.14,0 10,-2.68 11.55,-5.18 z m -5.75,22.26 c -6.18,-11.34 -27.094,-12.8 -36.496,-11.55 -6.629,0.89 -11.289,11.57 -11.09,20.5 0.062,4.61 1.492,7.66 4.641,9.34 10.441,5.6 21.128,9.35 32.365,7.54 10.96,-1.75 15.23,-17.23 10.58,-25.83 z m -110.078,24.42 c -7.11,21.89 20.218,28.78 36.172,25.41 11.105,-2.31 14.816,-23.65 4.476,-30.39 -12.777,-8.31 -35.469,-10.99 -40.648,4.98 z m -41.211,-53.72 c 8.183,8.44 22.969,8.97 34.511,7.41 7.083,-0.98 10.137,-8.14 11.122,-15.91 2.765,-21.38 -25.942,-24.98 -39.598,-19.98 -8.996,3.29 -13.676,20.58 -6.035,28.48 z m -5.781,41.41 c 8.566,10.08 22.875,12.47 34.734,9.21 7.242,-1.98 10.594,-10.43 10.422,-19.91 -0.129,-5.39 -3.828,-9.29 -7.133,-10.65 -8.43,-3.42 -18.168,-5.97 -27.371,-4.84 -11.34,1.39 -18.219,17.26 -10.652,26.19 z m 1.359,45.11 c 10.527,4.29 30.144,8.14 33.449,-6.89 4.465,-20.04 -19.164,-23.29 -31.797,-19.81 -9.668,2.65 -11.496,22.72 -1.652,26.7 z m 75.73,33.09 c 7.871,-4.47 9.524,-17.08 4.727,-24.39 -6.367,-9.67 -28.129,-15.27 -39.84,-6.81 -6.684,4.84 -10.277,24.72 3.406,29.49 10.938,3.83 21.414,7.54 31.707,1.71 z m -11.16,14.38 c -8.926,-5.52 -21.652,-7.72 -30.097,-3.02 -7.344,4.01 -7.055,14.75 -3.414,20.52 5.98,9.62 20.855,10.66 31.132,7.65 8.86,-2.57 12.184,-19.05 2.379,-25.15 z m -72.281,15.68 c 0.902,2.86 2.172,3.68 3.949,4.55 7.512,3.58 15.754,4.54 22.942,-0.08 5.179,-3.35 4.726,-11.1 0.886,-15.11 -5.625,-5.91 -17.047,-6.15 -24.363,-2.31 -4.723,2.46 -4.941,8.29 -3.414,12.95 z m 2.398,-31.35 c 3.321,9.48 15.153,8.96 24.11,7.8 11.019,-1.44 13.222,-15.56 9.308,-21.5 -5.41,-8.2 -17.757,-6.63 -27.586,-5.39 -7.988,1.03 -8.464,11.61 -5.832,19.09 z m 155.514,-285.2 c 2.71,-10.71 0,-20.9 -9.54,-24.3 -12.243,-4.33 -28.806,-10.65 -38.602,-4.05 -11.196,7.51 -16.586,28.81 -3.723,37.16 15.199,9.94 45.445,16.45 51.865,-8.81 z m -16.51,33.3 c -8.238,-9.35 -21.672,-9.04 -34.855,-12.91 -5.098,-1.47 -11.133,3.02 -13.789,7.67 -4.867,8.71 -9.754,20.37 -0.414,28.78 7.738,7.04 18.281,6.45 27.758,9.27 4.25,1.29 9.453,2.77 14.617,-0.71 10.673,-7.29 14.843,-22.91 6.683,-32.1 z m 87.3,140.15 c 2.33,-6.81 5.45,-11.8 2.8,-18.59 -3.14,-8.32 -11.22,-9.46 -18.79,-12.2 -7.07,-2.56 -18.86,-5.8 -24.79,0.4 -6.8,7.04 -9.54,21.39 -1.4,27.54 10.55,7.86 36.6,18.71 42.18,2.85 z m 143.3,61.18 c 6.22,25.39 13.96,51.14 15.89,77.97 2.85,40.07 -5.8,81.73 -31.5,112.08 2.53,-13.08 5.88,-24.14 7.64,-37.89 2.09,-16.58 -0.25,-35.06 -4.53,-51.76 -3.25,-12.64 -8.94,-24.93 -14.59,-36.67 -6.67,-13.91 -16.63,-29.04 -26.56,-41.45 -27.81,-34.58 -71.13,-102.07 -71.13,-102.07 0,0 -3.64,0.26 -5.79,0.26 -0.51,8.41 19.44,37.22 29.5,53.35 22.1,35.35 38.83,54.37 58.05,85.02 12.04,19.33 21.23,42.85 24.18,64.16 6,43.44 -17.42,95.48 -51.1,112.8 7.7,-32.44 6.9,-78.17 -10.37,-97.4 -32.69,-36.43 -52.13,-63.69 -75.46,-110.4 -0.66,-1.25 -6.12,6.31 -10.63,9.24 -5.07,3.35 -2.23,13.37 -4.05,20.11 -1.64,5.74 -4.34,10.15 -5.14,11.15 -6.91,8.46 -13.58,8.99 -15.04,11.53 -1.67,2.86 -0.87,10 -6.89,18.13 -3.01,4.09 -10.68,7.13 -13.8,10.97 -3.37,4.2 -4.9,17.05 -14.21,22.32 -4.421,2.48 -6.472,10.19 -10.714,13.97 -13.09,11.59 -26.153,9.35 -28.653,10.08 -3.371,0.9 -9.941,9.27 -21.636,11.28 -11.438,1.95 -17.735,-5.69 -23.668,-2.92 -14.891,6.89 -29.157,7.46 -44.985,-10.18 -4.75,-5.25 -12.961,-0.34 -23.214,-8.18 -8.997,-6.86 -9.161,-13.2 -13.75,-14.07 -8.606,-1.61 -15.024,-8.5 -18.348,-16.02 -1.719,-3.87 -3.02,-11.7 -4.02,-16.86 -1.414,-7.12 -5.019,-13.69 -5.086,-18.93 -0.086,-7.28 2.215,-11.21 1.571,-14.47 -1.059,-4.71 -4.871,-9.04 -5.34,-13.44 -0.348,-2.5 -0.559,-9.16 1.265,-12.91 2.29,-4.62 -1.613,-8.64 -3.64,-13.56 -1.93,-4.58 -3.965,-12.42 -3.348,-17.95 0.821,-7.59 5.164,-10.38 1.789,-16.36 -5.535,-9.71 -12.531,-24.88 -0.265,-44.24 2.254,-3.55 -5.145,-10.43 -5.559,-20.55 -0.465,-10.99 6.172,-19.12 7.988,-24 0.344,-1.74 -2.918,-1.64 -3.035,-3.52 -29.222,30.9 -55.07,59.39 -88.949,86.22 -20.703,16.36 -41.176,30.12 -64.117,42.4 -61.289,32.87 -132.492,54.86 -196.992,46.82 24.293,-19.55 54.941,-33.5 79.89,-55.71 23.641,-21.06 45.09,-39.04 66.625,-61.42 33.797,-35.1 61.25,-70.69 89.871,-112 8.496,-12.23 14.086,-20.41 22.012,-33.17 7.977,-12.76 16.836,-26.32 24.098,-38.97 36.613,-63.57 66.613,-122.43 96.98,-187.57 8.422,-18.03 15.504,-36.88 23.766,-54.79 2.211,-4.85 5.375,-1.26 7.605,0 10.985,6.36 22.653,11.65 34.055,17.03 9.098,4.19 17.379,7.06 25.508,10.19 20.543,7.82 40.035,12.08 61.547,16.55 35.919,7.52 100.439,5.98 100.439,5.98 l 122.35,0.04 c 0.78,0 1.61,0 3.33,0 -1.28,35.06 -9.6,69.14 -11.63,104.31 -1.55,28.49 -0.6,56.04 0.4,84.59 2.73,77.36 14.11,160.4 31.39,230.88" /><path
             id="path54"
             style="fill:#ffffff;fill-opacity:1;fill-rule:nonzero;stroke:none"
             d="m 395.141,2298.13 c -23.875,-23.8 -30.996,-32.57 -44.914,-58.88 -8.2,-15.47 -18.606,-35.33 -21.575,-60.93 49.047,18.67 89.075,56.78 125.235,98.87 26.754,31.2 47.5,72.6 73.883,103.42 -46.469,-15.58 -95.504,-45.51 -132.629,-82.48" /><path
             id="path56"
             style="fill:#ffffff;fill-opacity:1;fill-rule:nonzero;stroke:none"
             d="m 254.711,2231.22 c 18.492,31.24 44.98,65.01 72.441,88.05 -12.718,-28.57 -28.379,-56.87 -33.761,-90.66 -10.68,-67.27 -20.754,-114.4 -31.911,-175.79 30.5,21.76 62.68,55.95 95.028,79.82 24.996,18.36 50.051,30.63 75.758,48.29 15.277,10.55 25.238,24.09 37.945,36.77 -15.145,-63.84 -71.164,-128.27 -111.27,-158.31 -50.386,-37.79 -68.449,-43.81 -149.425,-126.15 -10.278,101.67 -8.454,207.33 45.195,297.98" /><path
             id="path58"
             style="fill:#ffffff;fill-opacity:1;fill-rule:nonzero;stroke:none"
             d="m 89.5234,1893.56 c 3.7657,52.8 10.1055,95.03 22.9256,146.52 8.989,35.97 28.348,89.51 56.246,111.47 -3.418,-13.04 -5.211,-32.6 -6.531,-45.8 -5.469,-54.39 4.945,-117.57 6.188,-171.9 0.617,-26.71 0.382,-47.31 -3.618,-72.41 -4.136,-26.33 -0.679,-58.62 -0.679,-58.62 0,0 14.418,16.47 27.297,36.99 28.144,44.7 37.164,57.98 59.836,82.19 28.132,30.05 59.597,57.88 95.124,82.52 -4.285,-16.7 -22.425,-49.17 -29.921,-62.21 -10.004,-17.45 -14.543,-33.31 -38.215,-72.85 -33.313,-55.55 -48.153,-63.04 -85.141,-122.45 -8.008,-12.92 -40.847,-62.06 -48.805,-77.08 -17.32,35.86 -23.863,67.19 -45.1206,125.56 -13.3516,36.67 -11.3555,73.37 -9.586,98.07" /><path
             id="path60"
             style="fill:#ffffff;fill-opacity:1;fill-rule:nonzero;stroke:none"
             d="m 38.0898,1618.89 c -20.082,52.08 -29.28902,100.4 -36.09761,155.23 -4.15625,33.55 -2.226565,78.26 9.74611,110.52 3.1445,-7.87 9.5469,-27.87 10.414,-30.86 8.9141,-29.96 12.6368,-44.35 25.0821,-73.25 9.5234,-22.16 21.1679,-39.83 33.6289,-61.73 11.3281,-19.99 20.8907,-46.31 29.0857,-66.45 26.375,-64.57 28.328,-125.02 38.414,-131.62 7.262,15.54 9.532,30.42 10.348,37.75 7.836,71.45 17.246,136.38 107.223,220.6 8.254,-25.07 4.07,-71.28 -0.891,-96.03 -10.75,-54.12 -19.441,-80.12 -43.281,-132.56 -12.59,-27.62 -29.414,-68.27 -34.028,-81.73 -12.082,-35.07 -16.218,-53.45 -23.82,-74.19 -42.476,70.78 -94.7578,143.88 -125.8242,224.32" /><path
             id="path62"
             style="fill:#ffffff;fill-opacity:1;fill-rule:nonzero;stroke:none"
             d="m 108.121,1293.28 c -30.2382,42.1 -41.2655,63.25 -60.9491,108.06 -16.5235,37.61 -21.2813,51.54 -30.961,93.64 -5.289,22.94 -8.27731,43.77 -4.1718,57.34 23.6797,-42.88 39.8398,-90.85 70.8125,-126.41 24.5894,-28.2 48.2774,-52.23 67.8244,-76.04 29.988,-36.58 53.605,-71.21 82.383,-109.29 2.425,19.08 3.363,38.43 -0.926,69.7 -5.856,42.87 -2.246,78 5.238,119.5 9.488,52.65 16.445,78.72 34.719,131.97 22.344,-43.83 22.258,-94.53 27.867,-141.01 10.828,-90.2 -17.391,-197.77 -22.937,-242.6 -1.489,-11.82 0.562,-40.97 1.156,-52.33 -42.199,33.23 -79.742,66.79 -116.141,103.29 -16.586,16.55 -39.34,43.96 -53.914,64.18" /><path
             id="path64"
             style="fill:#ffffff;fill-opacity:1;fill-rule:nonzero;stroke:none"
             d="m 268.105,962.5 c -19.218,13.84 -70.847,53.3 -95.289,84.36 -35.605,45.2 -43.441,64.58 -66.925,116.59 -2.871,6.34 -16.1683,35.77 -17.2465,55.77 76.9375,-92.91 145.8245,-106.75 219.2225,-183.84 26.934,-28.24 54.516,-54.821 69.071,-68.15 11.175,-10.289 25.042,-13.41 25.042,-13.41 0,0 -1.445,19.809 -8.687,33.59 -48.969,93.6 -58.203,191.44 -50.781,296.46 22.351,-27.68 29.402,-46.16 43.586,-72.91 15.429,-29.15 23.297,-47.18 30.507,-65.12 41.903,-104.29 52.805,-224.738 78.692,-285.371 -79.906,26.922 -142.84,41.312 -227.192,102.031" /><path
             id="path66"
             style="fill:#ffffff;fill-opacity:1;fill-rule:nonzero;stroke:none"
             d="m 595.828,716.41 c -21.617,-1.461 -63.996,-1.332 -86.586,2.352 -114.394,18.297 -220.73,101.207 -274.215,192.277 48.493,-29.59 83.559,-49.348 126.211,-64.109 37.981,-13.129 74.004,-17.02 137.414,-35.02 38.262,-10.808 76.149,-26.129 89.453,-31.121 42.422,-15.789 60.278,-11.898 60.278,-11.898 0,0 0,6.437 -15.844,23.718 -31.578,34.461 -43.137,42.7 -69.121,69.2 -8.523,8.75 -28.074,38.472 -37.992,58.242 -28.071,55.879 -31.192,100.669 -56.828,162.059 93.554,-54.94 139.129,-130.739 188.586,-226.321 15.211,-29.269 35.781,-63.07 54.57,-81.66 12.637,-12.469 30.441,-31.418 30.441,-31.418 0,0 -13.039,-3.07 -53.664,-9.07 -18.219,-2.672 -57.051,-14.75 -92.703,-17.231" /><path
             id="path68"
             style="fill:#ffffff;fill-opacity:1;fill-rule:nonzero;stroke:none"
             d="m 1049.31,709.141 c 49.39,-8.059 93.28,-20.071 138.19,-35.481 12.08,-4.148 30.45,-13.289 43.17,-19.719 31.84,-16.203 50.16,-26.722 77.52,-45.543 44.07,-30.339 91.4,-63.046 134.12,-112.668 0.91,-0.968 7.82,-8.359 3.21,-11.96 -8.36,-6.551 -28.98,-15.899 -35.84,-9.84 -39.09,34.75 -37.12,45.89 -84.48,88.781 -12.15,10.93 -30.48,26.289 -52.4,41.277 -21.38,14.621 -47.21,30.602 -71.22,42.453 -21.82,10.731 -55.42,13.93 -74.29,13.93 l 0.25,-0.121 c -8.56,0.328 -57.83,0.602 -69.24,-0.141 -96.8,-6.629 -92.062,-15.289 -147.886,-30.41 -45.906,-12.488 -95.156,-21.39 -144.051,-27.961 -50.09,-6.797 -94.91,-7.617 -141.855,-2.816 -63.653,6.547 -133.278,24.289 -185.246,57.777 47.519,-0.801 96.304,-9.929 143.57,-6.308 19.895,1.539 52.156,4.531 74.008,11.257 43.426,13.34 68.336,18.551 114.316,31.364 39.512,11 79.34,14.797 120.606,19.136 57.101,6.122 109.998,4.743 157.548,-3.007" /><path
             id="path70"
             style="fill:#ffffff;fill-opacity:1;fill-rule:nonzero;stroke:none"
             d="m 1934.52,2298.13 c 23.88,-23.8 31.03,-32.57 44.95,-58.88 8.19,-15.47 18.61,-35.33 21.57,-60.93 -49.09,18.67 -89.07,56.78 -125.26,98.87 -26.76,31.2 -47.48,72.6 -73.87,103.42 46.47,-15.58 95.51,-45.51 132.61,-82.48" /><path
             id="path72"
             style="fill:#ffffff;fill-opacity:1;fill-rule:nonzero;stroke:none"
             d="m 2074.98,2231.22 c -18.52,31.24 -44.98,65.01 -72.44,88.05 12.85,-30.74 31.56,-69.04 33.75,-90.66 6.84,-67.74 20.76,-114.4 31.93,-175.79 -30.51,21.76 -62.73,55.95 -95.06,79.82 -24.95,18.36 -50.03,30.63 -75.7,48.29 -15.32,10.55 -25.27,24.09 -37.99,36.77 15.14,-63.84 71.17,-128.27 111.29,-158.31 50.37,-37.79 68.43,-43.81 149.37,-126.15 10.28,101.67 8.46,207.33 -45.15,297.98" /><path
             id="path74"
             style="fill:#ffffff;fill-opacity:1;fill-rule:nonzero;stroke:none"
             d="m 2240.16,1893.56 c -3.8,52.8 -10.07,95.03 -22.92,146.52 -8.98,35.97 -28.35,89.51 -56.29,111.47 3.45,-13.04 5.22,-32.6 6.56,-45.8 5.52,-54.39 -4.89,-117.57 -6.18,-171.9 -0.61,-26.71 -0.38,-47.31 3.6,-72.41 4.14,-26.33 0.71,-58.62 0.71,-58.62 0,0 -14.42,16.47 -27.33,36.99 -28.08,44.7 -37.11,57.98 -59.85,82.19 -28.1,30.05 -59.59,57.88 -95.13,82.52 4.33,-16.7 22.47,-49.17 29.96,-62.21 10.05,-17.45 14.53,-33.31 38.23,-72.85 33.29,-55.55 48.14,-63.04 85.09,-122.45 8.01,-12.92 40.9,-62.06 48.84,-77.08 17.35,35.86 23.87,67.19 45.13,125.56 13.38,36.67 11.39,73.37 9.58,98.07" /><path
             id="path76"
             style="fill:#ffffff;fill-opacity:1;fill-rule:nonzero;stroke:none"
             d="m 2291.59,1618.89 c 20.08,52.08 29.27,100.4 36.11,155.23 4.17,33.55 2.2,78.26 -9.74,110.52 -3.14,-7.87 -9.54,-27.87 -10.42,-30.86 -8.94,-29.96 -12.63,-44.35 -25.05,-73.25 -9.54,-22.16 -21.25,-39.83 -33.67,-61.73 -11.33,-19.99 -20.88,-46.31 -29.13,-66.45 -26.33,-64.57 -28.28,-125.02 -38.37,-131.62 -7.29,15.54 -9.54,30.42 -10.33,37.75 -7.86,71.45 -17.26,136.38 -107.23,220.6 -8.29,-25.07 -4.08,-71.28 0.84,-96.03 10.81,-54.12 19.53,-80.12 43.32,-132.56 12.6,-27.62 29.42,-68.27 34.07,-81.73 12,-35.07 16.16,-53.45 23.82,-74.19 42.45,70.78 94.72,143.88 125.78,224.32" /><path
             id="path78"
             style="fill:#ffffff;fill-opacity:1;fill-rule:nonzero;stroke:none"
             d="m 2221.57,1293.28 c 30.27,42.1 41.26,63.25 60.94,108.06 16.53,37.61 21.26,51.54 30.97,93.64 5.29,22.94 8.27,43.77 4.15,57.34 -23.62,-42.88 -39.86,-90.85 -70.83,-126.41 -24.55,-28.2 -48.23,-52.23 -67.79,-76.04 -29.95,-36.58 -53.63,-71.21 -82.37,-109.29 -2.41,19.08 -3.39,38.43 0.87,69.7 5.89,42.87 2.28,78 -5.19,119.5 -9.5,52.65 -16.46,78.72 -34.71,131.97 -22.32,-43.83 -22.26,-94.53 -27.88,-141.01 -10.86,-90.2 17.43,-197.77 22.97,-242.6 1.45,-11.82 -0.6,-40.97 -1.18,-52.33 42.19,33.23 79.74,66.79 116.13,103.29 16.59,16.55 39.3,43.96 53.92,64.18" /><path
             id="path80"
             style="fill:#ffffff;fill-opacity:1;fill-rule:nonzero;stroke:none"
             d="m 2061.6,962.5 c 19.2,13.84 70.84,53.3 95.27,84.36 35.6,45.2 43.45,64.58 66.93,116.59 2.83,6.34 16.17,35.77 17.25,55.77 -76.94,-92.91 -145.84,-106.75 -219.24,-183.84 -26.91,-28.24 -54.48,-54.821 -69.04,-68.15 -11.18,-10.289 -25.05,-13.41 -25.05,-13.41 0,0 1.43,19.809 8.65,33.59 48.99,93.6 58.23,191.44 50.77,296.46 -22.28,-27.68 -29.37,-46.16 -43.55,-72.91 -15.4,-29.15 -23.29,-47.18 -30.47,-65.12 -41.93,-104.29 -52.89,-224.738 -78.76,-285.371 79.97,26.922 142.88,41.312 227.24,102.031" /><path
             id="path82"
             style="fill:#ffffff;fill-opacity:1;fill-rule:nonzero;stroke:none"
             d="m 1733.85,716.41 c 21.66,-1.461 64.01,-1.332 86.63,2.352 114.39,18.297 220.69,101.207 274.18,192.277 -48.54,-29.59 -83.6,-49.348 -126.22,-64.109 -38.01,-13.129 -74,-17.02 -137.37,-35.02 -38.3,-10.808 -76.18,-26.129 -89.49,-31.121 -42.42,-15.789 -60.28,-11.898 -60.28,-11.898 0,0 0,6.437 15.83,23.718 31.59,34.461 43.18,42.7 69.11,69.2 8.55,8.75 28.1,38.472 38.02,58.242 28.07,55.879 31.19,100.669 56.86,162.059 -93.55,-54.94 -139.22,-130.739 -188.65,-226.321 -15.18,-29.269 -35.74,-63.07 -54.52,-81.66 -12.61,-12.469 -30.46,-31.418 -30.46,-31.418 0,0 13.04,-3.07 53.7,-9.07 18.19,-2.672 56.99,-14.75 92.66,-17.231" /><path
             id="path84"
             style="fill:#ffffff;fill-opacity:1;fill-rule:nonzero;stroke:none"
             d="m 1280.38,709.141 c -49.39,-8.059 -93.24,-20.071 -138.19,-35.481 -12.12,-4.148 -30.46,-13.289 -43.18,-19.719 -31.83,-16.203 -50.12,-26.722 -77.5,-45.543 -44.112,-30.339 -91.381,-63.046 -134.131,-112.668 -0.918,-0.968 -7.859,-8.359 -3.219,-11.96 8.391,-6.551 29.024,-15.899 35.813,-9.84 39.097,34.75 37.117,45.89 84.517,88.781 12.1,10.93 30.44,26.289 52.4,41.277 21.42,14.621 47.18,30.602 71.21,42.453 21.79,10.731 55.46,13.93 74.29,13.93 l -0.27,-0.121 c 8.58,0.328 57.83,0.602 69.27,-0.141 96.82,-6.629 92.05,-15.289 147.85,-30.41 45.93,-12.488 95.18,-21.39 144.08,-27.961 50.06,-6.797 94.92,-7.617 141.86,-2.816 63.66,6.547 133.25,24.289 185.21,57.777 -47.49,-0.801 -96.25,-9.929 -143.57,-6.308 -19.9,1.539 -52.13,4.531 -73.98,11.257 -43.42,13.34 -68.35,18.551 -114.3,31.364 -39.52,11 -79.36,14.797 -120.59,19.136 -57.13,6.122 -110.02,4.743 -157.57,-3.007" /><path
             id="path86"
             style="fill:#ffffff;fill-opacity:1;fill-rule:nonzero;stroke:none"
             d="m 1106.77,2834.65 -86.95,-322.88 h -92.308 l -57.746,210.34 -56.45,-210.34 H 721.23 l -86.953,322.88 h 86.911 l 49.531,-222.27 59.578,222.27 h 83.055 l 56.531,-222.27 52.007,222.27 h 84.88" /><path
             id="path88"
             style="fill:#ffffff;fill-opacity:1;fill-rule:nonzero;stroke:none"
             d="m 1393.65,2772.2 h -148.53 v -60.07 h 137.69 v -62.45 h -137.69 v -137.91 h -82.84 v 322.88 h 231.37 v -62.45" /><path
             id="path90"
             style="fill:#ffffff;fill-opacity:1;fill-rule:nonzero;stroke:none"
             d="m 1631.52,2730.88 c 0,9.09 -2.46,16.91 -7.37,23.47 -4.92,6.56 -10.62,11.15 -17.13,13.74 -8.68,3.46 -17.13,5.37 -25.37,5.73 -8.24,0.36 -19.23,0.55 -32.96,0.55 h -14.31 v -96.5 h 23.85 c 14.17,0 25.84,0.86 35.02,2.6 9.18,1.73 16.88,5.2 23.1,10.39 5.34,4.6 9.21,10.13 11.59,16.54 2.39,6.42 3.58,14.25 3.58,23.48 z m 86.09,1.85 c 0,-14.46 -2.54,-28.58 -7.59,-42.39 -5.06,-13.8 -12.29,-25.41 -21.69,-34.8 -12.86,-12.73 -27.21,-22.34 -43.04,-28.84 -15.83,-6.51 -35.52,-9.76 -59.08,-9.76 h -51.83 v -105.17 h -83.27 v 322.88 h 137.05 c 20.52,0 37.83,-1.77 51.93,-5.31 14.09,-3.55 26.57,-8.86 37.41,-15.95 13,-8.53 22.94,-19.44 29.81,-32.73 6.86,-13.31 10.3,-29.28 10.3,-47.93" /><path
             id="path92"
             style="fill:#ffffff;fill-opacity:1;fill-rule:nonzero;stroke:none"
             d="M 734.488,257.879 676.445,70.5703 H 612.699 L 574.531,196.828 536.824,70.5703 H 472.445 L 414.902,257.879 h 62.985 l 32.156,-129.098 39.969,129.098 h 53.207 l 37.996,-129.098 31.633,129.098 h 61.64" /><path
             id="path94"
             style="fill:#ffffff;fill-opacity:1;fill-rule:nonzero;stroke:none"
             d="m 902.035,286.07 h -4.492 c -2.66,0.782 -6.121,1.668 -10.395,2.668 -4.265,1 -8.843,1.512 -13.726,1.512 -11.75,0 -19.707,-2.121 -23.867,-6.352 -4.157,-4.226 -6.235,-12.398 -6.235,-24.519 v -1.5 h 46.2 v -40.688 h -44.2 V 70.5703 H 785.102 V 217.191 h -25.684 v 40.688 h 25.684 v 5.172 c 0,22.91 6.093,40.09 18.273,51.539 12.172,11.461 30.605,17.18 55.293,17.18 8.894,0 16.957,-0.301 24.184,-0.918 7.226,-0.602 13.625,-1.411 19.183,-2.411 V 286.07" /><path
             id="path96"
             style="fill:#ffffff;fill-opacity:1;fill-rule:nonzero;stroke:none"
             d="m 1058.49,165.559 c 0,18.203 -3.1,31.41 -9.32,39.632 -6.21,8.219 -16.03,12.321 -29.45,12.321 -5.67,0 -11.49,-0.864 -17.47,-2.582 -6,-1.719 -11.707,-4.192 -17.148,-7.41 v -94.09 c 3.992,-1.551 8.265,-2.559 12.82,-3.008 4.538,-0.442 9.038,-0.66 13.478,-0.66 15.86,0 27.68,4.636 35.45,13.898 7.76,9.27 11.64,23.238 11.64,41.899 z m 61.89,1.261 c 0,-15.468 -2.37,-29.531 -7.08,-42.211 -4.73,-12.679 -10.92,-23.129 -18.58,-31.359 -7.99,-8.668 -17.05,-15.2305 -27.16,-19.668 -10.1,-4.4726 -20.93,-6.6836 -32.48,-6.6836 -10.66,0 -19.72,1.1407 -27.16,3.4102 -7.44,2.293 -15.045,5.4805 -22.818,9.5898 V 1.85156 H 924.887 V 257.879 h 60.215 v -19.52 c 9.214,7.34 18.628,13.289 28.228,17.852 9.61,4.559 20.69,6.84 33.25,6.84 23.31,0 41.45,-8.571 54.39,-25.692 12.94,-17.121 19.41,-40.64 19.41,-70.539" /><path
             id="path98"
             style="fill:#ffffff;fill-opacity:1;fill-rule:nonzero;stroke:none"
             d="m 1165.91,70.5703 h 62.3906 v 65.5508 H 1165.91 Z" /><path
             id="path100"
             style="fill:#ffffff;fill-opacity:1;fill-rule:nonzero;stroke:none"
             d="m 1404.77,118.609 c 3.9,4.782 6.81,10.532 8.76,17.25 1.94,6.743 2.92,16.063 2.92,27.95 0,11.011 -1,20.222 -3,27.679 -2,7.453 -4.78,13.391 -8.34,17.864 -3.56,4.546 -7.84,7.769 -12.84,9.668 -5.01,1.878 -10.4,2.839 -16.19,2.839 -5.78,0 -10.92,-0.789 -15.43,-2.339 -4.5,-1.559 -8.81,-4.668 -12.93,-9.34 -3.66,-4.34 -6.58,-10.289 -8.75,-17.84 -2.17,-7.57 -3.25,-17.07 -3.25,-28.531 0,-10.227 0.94,-19.098 2.83,-26.61 1.89,-7.508 4.67,-13.539 8.34,-18.097 3.56,-4.332 7.82,-7.5 12.76,-9.512 4.95,-1.988 10.59,-3 16.93,-3 5.45,0 10.65,0.922 15.6,2.762 4.94,1.82 9.15,4.91 12.59,9.257 z m 73.9,45.532 c 0,-30.801 -8.99,-55.082 -26.94,-72.8012 -17.96,-17.7382 -43.18,-26.6093 -75.65,-26.6093 -32.47,0 -57.68,8.8711 -75.64,26.6093 -17.96,17.7192 -26.94,42.0002 -26.94,72.8012 0,31.019 9.03,55.379 27.11,73.058 18.06,17.68 43.22,26.52 75.47,26.52 32.7,0 57.96,-8.887 75.81,-26.699 17.85,-17.782 26.78,-42.079 26.78,-72.879" /><path
             id="path102"
             style="fill:#ffffff;fill-opacity:1;fill-rule:nonzero;stroke:none"
             d="m 1657.48,200.672 h -5.33 c -2.56,0.879 -6.66,1.558 -12.32,2 -5.66,0.449 -10.37,0.668 -14.14,0.668 -8.55,0 -16.09,-0.57 -22.64,-1.668 -6.55,-1.113 -13.59,-3 -21.13,-5.672 V 70.5703 H 1521.7 V 257.879 h 60.22 v -27.52 c 13.2,11.352 24.68,18.879 34.44,22.602 9.77,3.73 18.76,5.59 26.97,5.59 2.11,0 4.49,-0.051 7.16,-0.172 2.66,-0.109 4.99,-0.277 6.99,-0.5 v -57.207" /><path
             id="path104"
             style="fill:#ffffff;fill-opacity:1;fill-rule:nonzero;stroke:none"
             d="m 1813.43,129.609 v 84.903 c -3.43,1.437 -7.65,2.59 -12.64,3.418 -5,0.84 -9.49,1.25 -13.49,1.25 -15.75,0 -27.57,-4.532 -35.44,-13.59 -7.88,-9.07 -11.82,-21.711 -11.82,-37.942 0,-18.019 3.36,-30.589 10.07,-37.699 6.71,-7.129 16.67,-10.679 29.87,-10.679 5.99,0 11.88,0.941 17.64,2.839 5.77,1.891 11.04,4.391 15.81,7.5 z m 60.22,-37.527 c 0,-17.5703 -2.5,-32.3515 -7.51,-44.3632 -5,-12.0274 -12,-21.4102 -21.02,-28.1876 -9,-6.9023 -19.87,-11.87104 -32.6,-14.94136 C 1799.78,1.53906 1785.41,0 1769.4,0 c -13.01,0 -25.83,0.789062 -38.45,2.35156 -12.62,1.54688 -23.55,3.4375 -32.78,5.66797 V 54.8789 h 7.33 c 7.33,-2.8906 16.27,-5.5195 26.81,-7.918 10.56,-2.3906 19.99,-3.5898 28.32,-3.5898 11.11,0 20.13,1.0391 27.07,3.0898 6.94,2.0703 12.24,4.9883 15.9,8.7696 3.45,3.5507 5.95,8.1093 7.5,13.6601 1.55,5.5586 2.33,12.2305 2.33,20.0196 v 3.5 c -7.22,-5.8907 -15.21,-10.5508 -23.99,-14 -8.77,-3.461 -18.54,-5.1797 -29.32,-5.1797 -26.21,0 -46.42,7.8906 -60.64,23.6992 -14.22,15.7893 -21.32,39.8003 -21.32,72.0503 0,15.461 2.17,28.79 6.5,40.032 4.33,11.226 10.43,21.008 18.32,29.347 7.33,7.789 16.35,13.852 27.07,18.18 10.72,4.34 21.68,6.512 32.91,6.512 10.1,0 19.29,-1.192 27.57,-3.582 8.27,-2.399 15.79,-5.699 22.57,-9.93 l 2.17,8.34 h 58.38 V 92.082" /><path
             id="path106"
             style="fill:#ffffff;fill-opacity:1;fill-rule:nonzero;stroke:none"
             d="m 3197.34,1623.83 -120.4,-447.05 h -127.81 l -79.96,291.22 -78.15,-291.22 h -127.5 l -120.4,447.05 h 120.33 l 68.59,-307.74 82.49,307.74 h 115 l 78.27,-307.74 72,307.74 h 117.54" /><path
             id="path108"
             style="fill:#ffffff;fill-opacity:1;fill-rule:nonzero;stroke:none"
             d="m 3461.43,1263.25 c 7,8.6 12.26,18.96 15.75,31.08 3.51,12.11 5.26,28.86 5.26,50.28 0,19.82 -1.8,36.43 -5.41,49.84 -3.6,13.41 -8.6,24.12 -15.01,32.13 -6.4,8.19 -14.1,14 -23.13,17.42 -8.99,3.38 -18.71,5.09 -29.1,5.09 -10.42,0 -19.67,-1.4 -27.79,-4.2 -8.1,-2.8 -15.86,-8.41 -23.25,-16.82 -6.62,-7.8 -11.87,-18.52 -15.78,-32.12 -3.9,-13.61 -5.86,-30.72 -5.86,-51.34 0,-18.42 1.71,-34.37 5.12,-47.88 3.39,-13.52 8.4,-24.37 15.02,-32.58 6.4,-7.81 14.04,-13.51 22.96,-17.12 8.91,-3.59 19.07,-5.4 30.48,-5.4 9.8,0 19.16,1.64 28.07,4.95 8.89,3.3 16.45,8.86 22.67,16.67 z m 133,81.97 c 0,-55.45 -16.16,-99.13 -48.48,-131.06 -32.34,-31.93 -77.72,-47.89 -136.16,-47.89 -58.45,0 -103.85,15.96 -136.17,47.89 -32.32,31.93 -48.49,75.61 -48.49,131.06 0,55.85 16.26,99.67 48.78,131.49 32.55,31.83 77.81,47.74 135.88,47.74 58.85,0 104.34,-16.02 136.46,-48.04 32.1,-32.02 48.18,-75.74 48.18,-131.19" /><path
             id="path110"
             style="fill:#ffffff;fill-opacity:1;fill-rule:nonzero;stroke:none"
             d="m 3916.28,1410.96 h -9.58 c -4.6,1.59 -11.98,2.8 -22.16,3.6 -10.2,0.8 -18.69,1.2 -25.48,1.2 -15.37,0 -28.96,-1 -40.73,-3.01 -11.79,-2 -24.47,-5.39 -38.05,-10.2 v -225.77 h -108.4 v 337.17 h 108.4 v -49.55 c 23.77,20.42 44.44,33.98 62.01,40.68 17.58,6.71 33.76,10.06 48.53,10.06 3.78,0 8.1,-0.1 12.88,-0.3 4.8,-0.2 9,-0.5 12.58,-0.89 v -102.99" /><path
             id="path112"
             style="fill:#ffffff;fill-opacity:1;fill-rule:nonzero;stroke:none"
             d="m 3977.53,1176.78 h 108.379 v 467.168 H 3977.53 Z" /><path
             id="path114"
             style="fill:#ffffff;fill-opacity:1;fill-rule:nonzero;stroke:none"
             d="m 4407.19,1269.58 v 165.69 c -7.61,3.2 -15.57,5.51 -23.96,6.9 -8.4,1.42 -16.08,2.11 -23.08,2.11 -28.37,0 -49.62,-8.86 -63.81,-26.61 -14.18,-17.73 -21.27,-42.34 -21.27,-73.81 0,-33.09 5.7,-57.09 17.08,-72.02 11.38,-14.94 29.64,-22.4 54.83,-22.4 9.78,0 20.15,1.85 31.15,5.56 10.98,3.7 20.67,8.57 29.06,14.58 z m 108.38,-92.8 h -108.38 v 35.13 c -18.6,-15.22 -35.99,-26.42 -52.18,-33.63 -16.21,-7.2 -34.9,-10.81 -56.08,-10.81 -40.99,0 -73.78,15.8 -98.35,47.44 -24.6,31.62 -36.89,74.25 -36.89,127.9 0,28.62 4.15,53.99 12.45,76.1 8.28,22.12 19.64,41.09 34.02,56.9 13.6,15.01 30.1,26.67 49.49,34.98 19.39,8.3 38.78,12.46 58.18,12.46 20.17,0 36.74,-2.15 49.62,-6.46 12.88,-4.3 26.14,-9.75 39.74,-16.36 v 143.52 h 108.38 v -467.17" /><path
             id="path116"
             style="fill:#ffffff;fill-opacity:1;fill-rule:nonzero;stroke:none"
             d="M 5169.55,1537.36 H 4963.9 v -83.16 h 190.66 v -86.47 H 4963.9 v -190.95 h -114.69 v 447.05 h 320.34 v -86.47" /><path
             id="path118"
             style="fill:#ffffff;fill-opacity:1;fill-rule:nonzero;stroke:none"
             d="m 5454.78,1263.25 c 7,8.6 12.26,18.96 15.78,31.08 3.48,12.11 5.26,28.86 5.26,50.28 0,19.82 -1.82,36.43 -5.41,49.84 -3.62,13.41 -8.63,24.12 -15.02,32.13 -6.42,8.19 -14.12,14 -23.12,17.42 -8.99,3.38 -18.71,5.09 -29.13,5.09 -10.41,0 -19.66,-1.4 -27.76,-4.2 -8.1,-2.8 -15.87,-8.41 -23.28,-16.82 -6.6,-7.8 -11.84,-18.52 -15.75,-32.12 -3.9,-13.61 -5.86,-30.72 -5.86,-51.34 0,-18.42 1.71,-34.37 5.1,-47.88 3.41,-13.52 8.41,-24.37 15.01,-32.58 6.4,-7.81 14.07,-13.51 22.99,-17.12 8.89,-3.59 19.05,-5.4 30.45,-5.4 9.8,0 19.17,1.64 28.07,4.95 8.92,3.3 16.48,8.86 22.67,16.67 z m 133.03,81.97 c 0,-55.45 -16.18,-99.13 -48.51,-131.06 -32.31,-31.93 -77.71,-47.89 -136.16,-47.89 -58.44,0 -103.82,15.96 -136.16,47.89 -32.32,31.93 -48.48,75.61 -48.48,131.06 0,55.85 16.25,99.67 48.79,131.49 32.52,31.83 77.81,47.74 135.85,47.74 58.85,0 104.34,-16.02 136.45,-48.04 32.14,-32.02 48.22,-75.74 48.22,-131.19" /><path
             id="path120"
             style="fill:#ffffff;fill-opacity:1;fill-rule:nonzero;stroke:none"
             d="m 5876.92,1263.25 c 7,8.6 12.25,18.96 15.78,31.08 3.48,12.11 5.25,28.86 5.25,50.28 0,19.82 -1.82,36.43 -5.41,49.84 -3.61,13.41 -8.62,24.12 -15.02,32.13 -6.41,8.19 -14.11,14 -23.11,17.42 -8.99,3.38 -18.71,5.09 -29.13,5.09 -10.41,0 -19.66,-1.4 -27.77,-4.2 -8.09,-2.8 -15.86,-8.41 -23.27,-16.82 -6.6,-7.8 -11.84,-18.52 -15.75,-32.12 -3.91,-13.61 -5.86,-30.72 -5.86,-51.34 0,-18.42 1.7,-34.37 5.1,-47.88 3.41,-13.52 8.41,-24.37 15.01,-32.58 6.4,-7.81 14.07,-13.51 22.98,-17.12 8.88,-3.59 19.06,-5.4 30.46,-5.4 9.8,0 19.17,1.64 28.07,4.95 8.91,3.3 16.48,8.86 22.67,16.67 z m 133.03,81.97 c 0,-55.45 -16.19,-99.13 -48.51,-131.06 -32.31,-31.93 -77.71,-47.89 -136.16,-47.89 -58.44,0 -103.82,15.96 -136.16,47.89 -32.33,31.93 -48.48,75.61 -48.48,131.06 0,55.85 16.25,99.67 48.79,131.49 32.52,31.83 77.81,47.74 135.85,47.74 58.85,0 104.34,-16.02 136.45,-48.04 32.14,-32.02 48.22,-75.74 48.22,-131.19" /><path
             id="path122"
             style="fill:#ffffff;fill-opacity:1;fill-rule:nonzero;stroke:none"
             d="m 6306.87,1269.58 v 165.69 c -7.59,3.2 -15.58,5.51 -23.96,6.9 -8.38,1.42 -16.08,2.11 -23.06,2.11 -28.37,0 -49.64,-8.86 -63.83,-26.61 -14.16,-17.73 -21.25,-42.34 -21.25,-73.81 0,-33.09 5.67,-57.09 17.08,-72.02 11.38,-14.94 29.65,-22.4 54.81,-22.4 9.78,0 20.17,1.85 31.15,5.56 10.99,3.7 20.66,8.57 29.06,14.58 z m 108.38,-92.8 h -108.38 v 35.13 c -18.6,-15.22 -35.98,-26.42 -52.18,-33.63 -16.21,-7.2 -34.88,-10.81 -56.06,-10.81 -41.01,0 -73.77,15.8 -98.37,47.44 -24.6,31.62 -36.88,74.25 -36.88,127.9 0,28.62 4.15,53.99 12.44,76.1 8.3,22.12 19.63,41.09 34.04,56.9 13.58,15.01 30.08,26.67 49.47,34.98 19.39,8.3 38.78,12.46 58.17,12.46 20.2,0 36.74,-2.15 49.64,-6.46 12.88,-4.3 26.13,-9.75 39.73,-16.36 v 143.52 h 108.38 v -467.17" /><path
             id="path124"
             style="fill:#ffffff;fill-opacity:1;fill-rule:nonzero;stroke:none"
             d="m 2830.15,899.43 c 0,12.57 -3.41,23.41 -10.21,32.492 -6.81,9.09 -14.71,15.43 -23.72,19.027 -12.01,4.789 -23.72,7.442 -35.13,7.942 -11.41,0.488 -26.62,0.75 -45.64,0.75 h -19.81 V 826.039 h 33.02 c 19.62,0 35.78,1.18 48.49,3.582 12.71,2.391 23.37,7.199 31.98,14.379 7.4,6.391 12.76,14.039 16.06,22.922 3.31,8.879 4.96,19.719 4.96,32.508 z m 119.2,2.558 c 0,-20.019 -3.52,-39.59 -10.52,-58.699 -7,-19.117 -17.01,-35.18 -30.02,-48.18 -17.82,-17.621 -37.68,-30.929 -59.6,-39.937 -21.92,-9.012 -49.2,-13.524 -81.81,-13.524 h -71.76 V 596.051 h -115.29 v 447.059 h 189.75 c 28.42,0 52.39,-2.46 71.91,-7.37 19.51,-4.9 36.78,-12.26 51.78,-22.06 18.02,-11.81 31.78,-26.918 41.29,-45.34 9.5,-18.422 14.27,-40.531 14.27,-66.352" /><path
             id="path126"
             style="fill:#ffffff;fill-opacity:1;fill-rule:nonzero;stroke:none"
             d="m 3257.71,830.23 h -9.58 c -4.58,1.61 -11.99,2.809 -22.17,3.598 -10.19,0.801 -18.67,1.203 -25.46,1.203 -15.38,0 -28.96,-1 -40.74,-3 -11.79,-2 -24.47,-5.41 -38.05,-10.203 V 596.051 h -108.38 v 337.16 h 108.38 v -49.543 c 23.77,20.422 44.44,33.98 62.01,40.691 17.57,6.7 33.76,10.063 48.54,10.063 3.79,0 8.08,-0.113 12.88,-0.301 4.79,-0.199 8.98,-0.512 12.57,-0.91 V 830.23" /><path
             id="path128"
             style="fill:#ffffff;fill-opacity:1;fill-rule:nonzero;stroke:none"
             d="m 3518.95,682.52 c 7,8.589 12.26,18.949 15.78,31.082 3.48,12.089 5.26,28.847 5.26,50.277 0,19.812 -1.83,36.422 -5.41,49.84 -3.62,13.402 -8.63,24.109 -15.02,32.121 -6.42,8.211 -14.12,14.019 -23.12,17.41 -9,3.398 -18.72,5.109 -29.13,5.109 -10.41,0 -19.66,-1.41 -27.76,-4.199 -8.11,-2.801 -15.87,-8.422 -23.28,-16.808 -6.6,-7.813 -11.85,-18.524 -15.75,-32.133 -3.9,-13.617 -5.86,-30.731 -5.86,-51.34 0,-18.418 1.7,-34.379 5.09,-47.891 3.42,-13.508 8.42,-24.367 15.02,-32.566 6.4,-7.813 14.07,-13.524 22.98,-17.121 8.89,-3.602 19.05,-5.41 30.46,-5.41 9.8,0 19.17,1.648 28.07,4.961 8.91,3.296 16.48,8.859 22.67,16.668 z m 133.03,81.96 c 0,-55.449 -16.18,-99.128 -48.51,-131.058 -32.31,-31.922 -77.72,-47.883 -136.16,-47.883 -58.45,0 -103.83,15.961 -136.16,47.883 -32.33,31.93 -48.48,75.609 -48.48,131.058 0,55.84 16.25,99.68 48.79,131.508 32.52,31.821 77.81,47.731 135.85,47.731 58.85,0 104.34,-16.02 136.45,-48.028 32.14,-32.043 48.22,-75.781 48.22,-131.211" /><path
             id="path130"
             style="fill:#ffffff;fill-opacity:1;fill-rule:nonzero;stroke:none"
             d="m 3937.23,702.332 v 152.816 c -6.2,2.602 -13.81,4.661 -22.78,6.153 -8.98,1.5 -17.08,2.258 -24.26,2.258 -28.37,0 -49.63,-8.161 -63.81,-24.481 -14.19,-16.308 -21.28,-39.066 -21.28,-68.289 0,-32.43 6.04,-55.059 18.14,-67.859 12.08,-12.809 30.01,-19.211 53.78,-19.211 10.77,0 21.36,1.691 31.73,5.09 10.39,3.402 19.89,7.91 28.48,13.523 z m 108.38,-67.562 c 0,-31.622 -4.51,-58.25 -13.52,-79.86 -8.99,-21.621 -21.61,-38.531 -37.84,-50.738 -16.2,-12.41 -35.77,-21.371 -58.68,-26.871 -22.92,-5.5 -48.8,-8.27 -77.62,-8.27 -23.42,0 -46.49,1.41 -69.2,4.207 -22.72,2.813 -42.38,6.211 -58.99,10.223 v 84.359 h 13.17 c 13.21,-5.211 29.29,-9.961 48.29,-14.261 18.98,-4.297 35.97,-6.457 50.96,-6.457 19.97,0 36.22,1.859 48.72,5.558 12.48,3.699 22.02,8.949 28.62,15.77 6.2,6.41 10.71,14.609 13.49,24.609 2.81,10.012 4.22,22.012 4.22,36.02 v 6.312 c -13,-10.609 -27.4,-19.012 -43.2,-25.211 -15.78,-6.211 -33.38,-9.308 -52.77,-9.308 -47.17,0 -83.56,14.199 -109.17,42.628 -25.58,28.43 -38.37,71.661 -38.37,129.711 0,27.821 3.9,51.829 11.7,72.059 7.8,20.199 18.77,37.82 32.98,52.84 13.2,14 29.45,24.922 48.72,32.719 19.31,7.8 39.04,11.711 59.23,11.711 18.21,0 34.75,-2.149 49.63,-6.461 14.9,-4.297 28.43,-10.258 40.65,-17.868 l 3.9,15.02 h 105.08 V 634.77" /><path
             id="path132"
             style="fill:#ffffff;fill-opacity:1;fill-rule:nonzero;stroke:none"
             d="m 4380.4,830.23 h -9.58 c -4.58,1.61 -12,2.809 -22.18,3.598 -10.19,0.801 -18.67,1.203 -25.45,1.203 -15.37,0 -28.96,-1 -40.73,-3 -11.81,-2 -24.5,-5.41 -38.07,-10.203 V 596.051 h -108.38 v 337.16 h 108.38 v -49.543 c 23.77,20.422 44.43,33.98 62.01,40.691 17.57,6.7 33.75,10.063 48.55,10.063 3.79,0 8.07,-0.113 12.88,-0.301 4.78,-0.199 8.97,-0.512 12.57,-0.91 V 830.23" /><path
             id="path134"
             style="fill:#ffffff;fill-opacity:1;fill-rule:nonzero;stroke:none"
             d="m 4634.12,684.23 v 70.04 c -14.61,-1.2 -30.41,-2.848 -47.43,-4.942 -17.03,-2.09 -29.94,-4.527 -38.74,-7.34 -10.81,-3.379 -19.07,-8.328 -24.77,-14.808 -5.7,-6.489 -8.55,-15.008 -8.55,-25.59 0,-6.981 0.61,-12.66 1.79,-17.051 1.22,-4.398 4.23,-8.59 9.02,-12.578 4.6,-3.992 10.11,-6.93 16.51,-8.82 6.41,-1.903 16.42,-2.852 30.03,-2.852 10.81,0 21.77,2.199 32.87,6.59 11.11,4.383 20.88,10.172 29.27,17.351 z m 0,-52.46 c -5.79,-4.411 -13.02,-9.711 -21.62,-15.911 -8.59,-6.199 -16.71,-11.109 -24.32,-14.711 -10.6,-4.796 -21.61,-8.367 -33.02,-10.66 -11.4,-2.297 -23.92,-3.457 -37.52,-3.457 -32.03,0 -58.85,9.91 -80.46,29.731 -21.64,19.808 -32.43,45.136 -32.43,75.957 0,24.621 5.5,44.742 16.51,60.351 11,15.602 26.63,27.918 46.82,36.93 20.02,9.012 44.84,15.398 74.47,19.211 29.62,3.809 60.35,6.609 92.17,8.41 v 1.809 c 0,18.609 -7.61,31.468 -22.82,38.57 -15.22,7.109 -37.62,10.66 -67.24,10.66 -17.82,0 -36.83,-3.148 -57.05,-9.461 -20.22,-6.308 -34.72,-11.148 -43.54,-14.558 h -9.9 v 81.371 c 11.4,3.008 29.97,6.547 55.68,10.66 25.72,4.09 51.51,6.137 77.32,6.137 61.45,0 105.84,-9.438 133.16,-28.368 27.31,-18.91 40.97,-48.582 40.97,-89.019 V 596.051 h -107.18 v 35.719" /><path
             id="path136"
             style="fill:#ffffff;fill-opacity:1;fill-rule:nonzero;stroke:none"
             d="M 5158.37,835.031 V 596.051 H 5049.98 V 764.48 c 0,16.411 -0.41,30.372 -1.2,41.879 -0.81,11.512 -3,20.871 -6.6,28.082 -3.61,7.2 -9.06,12.457 -16.35,15.758 -7.32,3.313 -17.58,4.949 -30.8,4.949 -10.61,0 -20.91,-2.148 -30.92,-6.449 -10.01,-4.308 -19.02,-8.859 -27.03,-13.668 v -238.98 h -108.37 v 337.16 h 108.37 v -37.223 c 18.61,14.602 36.4,26.012 53.39,34.231 17,8.203 35.78,12.301 56.38,12.301 22.18,0 41.77,-4.961 58.76,-14.86 16.99,-9.91 30.3,-24.469 39.88,-43.691 21.59,18.211 42.57,32.543 62.95,42.941 20.4,10.41 40.38,15.61 59.97,15.61 36.39,0 64.02,-10.918 82.91,-32.731 18.87,-21.809 28.32,-53.25 28.32,-94.269 V 596.051 H 5271.26 V 764.48 c 0,16.61 -0.36,30.629 -1.05,42.04 -0.69,11.402 -2.85,20.71 -6.46,27.921 -3.39,7.2 -8.8,12.457 -16.21,15.758 -7.41,3.313 -17.82,4.949 -31.22,4.949 -9.02,0 -17.82,-1.539 -26.43,-4.648 -8.61,-3.121 -19.1,-8.262 -31.52,-15.469" /><path
             id="path138"
             style="fill:#ffffff;fill-opacity:1;fill-rule:nonzero;stroke:none"
             d="M 5797.32,835.031 V 596.051 H 5688.91 V 764.48 c 0,16.411 -0.4,30.372 -1.19,41.879 -0.8,11.512 -3,20.871 -6.59,28.082 -3.62,7.2 -9.07,12.457 -16.37,15.758 -7.31,3.313 -17.57,4.949 -30.79,4.949 -10.62,0 -20.92,-2.148 -30.93,-6.449 -10.01,-4.308 -19,-8.859 -27.02,-13.668 v -238.98 h -108.38 v 337.16 h 108.38 v -37.223 c 18.6,14.602 36.41,26.012 53.4,34.231 16.98,8.203 35.77,12.301 56.38,12.301 22.16,0 41.76,-4.961 58.75,-14.86 16.99,-9.91 30.3,-24.469 39.88,-43.691 21.59,18.211 42.58,32.543 62.96,42.941 20.4,10.41 40.37,15.61 59.97,15.61 36.38,0 64,-10.918 82.9,-32.731 18.88,-21.809 28.33,-53.25 28.33,-94.269 V 596.051 H 5910.21 V 764.48 c 0,16.61 -0.36,30.629 -1.05,42.04 -0.71,11.402 -2.86,20.71 -6.47,27.921 -3.39,7.2 -8.8,12.457 -16.21,15.758 -7.4,3.313 -17.81,4.949 -31.21,4.949 -9.02,0 -17.82,-1.539 -26.45,-4.648 -8.59,-3.121 -19.1,-8.262 -31.5,-15.469" /><path
             id="path140"
             style="fill:#ffffff;fill-opacity:1;fill-rule:nonzero;stroke:none"
             d="m 6331.47,808.012 c -0.61,22.629 -6.22,39.636 -16.81,51.039 -10.62,11.41 -27.14,17.117 -49.56,17.117 -20.8,0 -37.93,-5.406 -51.33,-16.219 -13.41,-10.801 -20.91,-28.109 -22.51,-51.937 z m 107.48,-63.352 h -247.39 c 1.59,-26.43 11.65,-46.629 30.16,-60.648 18.52,-14.012 45.8,-21.024 81.83,-21.024 22.82,0 44.93,4.114 66.34,12.313 21.43,8.219 38.34,17.019 50.75,26.429 h 12 v -86.769 c -24.41,-9.813 -47.42,-16.922 -69.05,-21.32 -21.62,-4.403 -45.55,-6.61 -71.76,-6.61 -67.65,0 -119.49,15.219 -155.53,45.641 -36.02,30.43 -54.04,73.758 -54.04,130.008 0,55.64 17.07,99.718 51.19,132.25 34.13,32.519 80.93,48.789 140.36,48.789 54.86,0 96.08,-13.86 123.7,-41.578 27.64,-27.731 41.44,-67.602 41.44,-119.653 V 744.66" /></g></g></g></g></svg>