<?xml version="1.0" encoding="UTF-8" standalone="no"?>
<svg
   xmlns:dc="http://purl.org/dc/elements/1.1/"
   xmlns:cc="http://creativecommons.org/ns#"
   xmlns:rdf="http://www.w3.org/1999/02/22-rdf-syntax-ns#"
   xmlns:svg="http://www.w3.org/2000/svg"
   xmlns="http://www.w3.org/2000/svg"
   viewBox="0 0 310.62668 377.94666"
   height="377.94666"
   width="310.62668"
   xml:space="preserve"
   id="svg2"
   version="1.1"><metadata
     id="metadata8"><rdf:RDF><cc:Work
         rdf:about=""><dc:format>image/svg+xml</dc:format><dc:type
           rdf:resource="http://purl.org/dc/dcmitype/StillImage" /></cc:Work></rdf:RDF></metadata><defs
     id="defs6"><clipPath
       id="clipPath20"
       clipPathUnits="userSpaceOnUse"><path
         id="path18"
         d="M 0,2834.64 V 0 h 2329.71 v 2834.64 z" /></clipPath></defs><g
     transform="matrix(1.3333333,0,0,-1.3333333,0,377.94667)"
     id="g10"><g
       transform="scale(0.1)"
       id="g12"><g
         id="g14"><g
           clip-path="url(#clipPath20)"
           id="g16"><path
             id="path22"
             style="fill:#ffffff;fill-opacity:1;fill-rule:nonzero;stroke:none"
             d="m 1340.53,2131.13 c 12.47,27.05 24.06,48.64 40.76,74.3 7.37,11.3 15.69,19.19 23.15,30.68 -3.6,1.01 -8.73,-1.92 -11,-3.49 -7.4,-5.38 -10.76,-14.14 -16.7,-18.83 -14.04,-11.04 -13.63,-21.1 -20.99,-26.29 -6.56,-4.61 -8.44,-7.64 -13.07,-14.87 -3.07,-4.84 -5.35,-8.74 -8.56,-18.22 -1.19,-3.42 -3.45,-0.4 -8.98,-7.97 -7.13,-9.8 -10.38,-20.35 -13.35,-32.26 -0.96,-3.9 -7.62,-5.95 -11.84,-14.07 -5.74,-10.91 -9.48,-21.04 -11.94,-36.92 -0.6,-3.72 -6.85,-6.26 -11.17,-16.54 -3.03,-7.24 -5.19,-8.82 -7.89,-22.45 -1.62,-8.31 -5.43,-9.54 -9.71,-21.56 -3.26,-9.21 -3.41,-18.06 -4.56,-30.1 -0.28,-2.35 -4.23,-6.94 -7.83,-13.68 -6.12,-11.27 -5.89,-18.77 -8.32,-30.4 -0.93,-4.23 -5.65,-9.77 -10.18,-27.8 -3.97,-15.99 -0.35,-26.55 -1.66,-34.48 -3.56,-20.4 -7.07,-38.19 -5.16,-58.32 0.94,-9.84 2.44,-20.02 1.8,-29.46 -1.88,-29.71 -3.46,-54.17 -3.33,-87.83 0.09,-18.36 1.53,-43.42 4.32,-64.32 3.03,-23.05 7.42,-41.06 7.42,-41.06 h 75.16 c 0,0 -2.94,43.45 0.96,89.16 2.31,27.46 8.82,56.49 14.74,76.91 7.48,26.02 12.17,39.52 26.37,73.85 0.31,0.78 -0.09,3.96 -3.86,0.84 -7.84,-6.62 -14.35,-12.35 -20.56,-21.72 -9.44,-14.25 -15.21,-25.99 -22.88,-40.63 -8.94,-17.02 -13.86,-31.83 -23.09,-52.48 -0.55,14.89 1.88,29.08 4.89,42.88 3.09,14 5.56,25.13 9.95,37.24 7.84,21.37 15.46,39.15 28.03,59.03 7.29,11.45 16.58,21.74 26.01,30.33 11.28,10.31 21.7,19.38 33.56,29.47 -12.44,6.39 -29,-6.95 -32.27,-7.61 -17.48,-3.41 -24.6,-19.66 -29.97,-21.84 -7.6,-3.23 -12.03,-7.87 -17.35,-14.32 -4.11,-4.84 -5.31,-12.36 -9.61,-14.99 -7.15,-4.44 -12.34,-11.16 -17.24,-20.51 -2,-3.87 -7.52,-22.11 -13.6,-19.81 10.4,61.94 32.28,120.03 67.38,171.72 22.21,32.77 46.45,60.91 82.11,86.09 4.71,3.34 5.65,4.88 -0.95,4.68 -33.32,-4.03 -35.35,-19.3 -40.88,-20.75 -5.18,-1.29 -11.61,-7.49 -15.76,-11.49 -7.41,-7.32 -7.29,-13.52 -10.14,-15.45 -6.07,-4.2 -10.67,-8.67 -14.81,-16.03 -2.14,-3.8 -5.85,-12.29 -9.12,-14.22 -8.53,-4.96 -16.82,-12.2 -20.98,-20 -3.04,-5.66 -4.23,-11.87 -8.24,-17.45 -4.25,-6.06 -10.26,-10.55 -15.36,-14.91 3.9,26.46 16.39,57.8 24.94,84.88 11.57,36.13 25.52,68.94 41.36,103.07" /><path
             id="path24"
             style="fill:#ffffff;fill-opacity:1;fill-rule:nonzero;stroke:none"
             d="m 1417.23,1916.64 c 28.44,63.81 58.34,111.9 97.25,168.1 5.07,7.36 9.67,14.59 14.09,21.49 1.99,3.08 11.58,16.82 13.56,19.74 13.01,19.73 18.53,25.73 31.86,44.57 3.59,5.08 6.52,9.09 8.05,15 2.86,11.03 -6.58,18.41 -8.78,28.99 -2.18,10.79 -1.01,22.56 4,31.69 3.09,5.66 6.15,7.92 9.31,15.58 6.03,14.72 3.96,46.57 10.86,47.43 -1.77,-15.14 -2.13,-32.15 0.19,-46.67 2.8,-16.94 13.07,-27.2 17.32,-45.09 11.39,2.05 23.84,1.55 33.41,0.71 9.57,-0.78 21.6,1.85 31.44,5.21 13.26,4.51 24.24,12.77 37.77,15.99 -11.52,-11.07 -27.73,-15.25 -41.34,-23.63 -4.98,-3.11 -9.71,-7.29 -13.01,-12.42 -5.53,-8.54 -9.79,-16.64 -18.36,-20.39 -15.2,-6.65 -28.26,-3.48 -45.57,-6.72 -25.77,-26.52 -50.04,-62.61 -72.42,-100.59 -56.72,-95.93 -104.03,-195.36 -131.52,-297.3 9.54,17.77 18.59,34.92 28.88,51.76 11.43,18.78 24.22,37.09 38.14,55.49 32.66,43.04 64.97,80.63 101.15,120.18 29.24,31.99 61.29,58.8 96.99,81.17 47.22,29.59 105.42,50.28 156.59,39.65 5.83,-1.37 14.15,-2.91 17.75,-6.75 -64.09,8.96 -121.55,-13.45 -164.42,-47.76 -33.83,-27.04 -62.35,-54.57 -91.38,-90.27 -14.94,-17.2 -28.44,-36.13 -41.8,-54.42 -14.03,-19.31 -26.48,-39.55 -38.8,-59.86 -41.54,-68.58 -72.97,-141.24 -96.13,-216.49 -0.63,-2.39 -0.76,-4.8 -1.47,-7.17 1.16,1.65 2.76,3.51 3.83,5.26 31.14,50.56 68.6,99.41 116,132.23 4.1,2.78 8.44,8.2 9.52,12.49 5.17,20.08 -10.19,29.76 11.04,57.54 4.86,6.37 11.47,8.71 16.09,14.63 8.68,13.38 15.73,37.44 23,43.88 -3.68,-15.64 -12.63,-32.16 -14.55,-48.27 -2.02,-17.67 2.49,-32.16 3.3,-50.88 12.48,-1.73 22.18,-7.04 31.99,-10.06 15.33,-4.79 24.49,-3.54 39.57,-2.22 6.5,0.54 18.2,4.27 25.15,2.87 -14.62,-7.99 -34.33,-6.52 -49.3,-14.11 -10.44,-5.36 -13.51,-13.32 -27.9,-16.06 -12.88,-2.49 -23.67,-1.2 -32.02,3.1 -6.48,3.29 -11.52,4.66 -17.36,1.86 -15.56,-7.45 -26.2,-18.02 -38.75,-30.66 -29.04,-29.27 -52.79,-61.94 -74.92,-104.72 -5.86,-11.43 -11.14,-22.68 -16.13,-34.3 -2.46,-5.62 -8.61,-21.3 -8.61,-21.3 h -75.95 c 0,0 -0.23,21.92 0.52,29.9 1.45,15.96 3.59,27.76 6.68,43.93 4.39,23.29 8.72,44.38 14.78,66.94 5.89,21.96 12.23,42.55 19.73,63.63 15.7,43.96 32.38,86.11 50.68,127.1" /><path
             id="path26"
             style="fill:#ffffff;fill-opacity:1;fill-rule:nonzero;stroke:none"
             d="m 682.539,1324.75 c 27.742,22.65 48.277,35.85 75.981,52.38 11.25,6.73 28.273,14.35 41.308,20.28 48.024,21.66 111.504,37.6 171.281,38.69 1.071,0 1.008,-0.04 1.008,-0.04 h 445.953 c 0,0 -1.7,0.04 1.54,0.04 14.19,0 28.25,-4.94 36.9,-13.08 8.7,-8.33 12.89,-21.04 15.13,-33.7 1.92,-10.78 0.97,-20.26 -1.53,-31.82 -1.96,-9.18 -3.43,-14.54 -8.47,-22.3 -3.06,-4.73 -5.97,-7.92 -11.69,-12.5 -5.86,-4.71 -14.16,-6.26 -23.7,-6.34 -1,-0.04 -3.1,-0.19 -3.04,-0.06 0.08,0.06 -521.562,0.06 -521.562,0.06 0,0 -3.257,0.01 -4.867,0.01 -34.152,0.1 -70.125,-1.66 -103.855,-6.13 -25.852,-3.45 -51.75,-7.46 -76.719,-14.01 -31.477,-8.18 -61.809,-19.61 -92.082,-30.95 16.766,22.33 36.156,41.33 58.414,59.47" /><path
             id="path28"
             style="fill:#ffffff;fill-opacity:1;fill-rule:nonzero;stroke:none"
             d="m 837.371,1502.2 c 27.402,19.75 60.703,36.04 90.149,47.31 14.976,5.63 34.792,11.91 50.609,15.84 19.066,4.81 40.921,8.4 58.811,8.98 5.38,0.13 0.81,0.03 0.81,0.03 l 382.44,0.04 c 0,0 8.21,-0.45 11.06,-0.99 7.14,-1.6 12.95,-4.53 15.37,-6.06 5.92,-3.76 13.37,-11.8 17.26,-18.13 9.97,-16.33 11.69,-33.96 8.51,-52.35 -3.7,-20.98 -19.6,-44.88 -41.26,-45.45 -3.72,-0.09 -11.28,0 -11.28,0 h -414.22 c 0,0 -24.075,-0.48 -35.118,-0.89 -20.391,-0.81 -42.961,-3.1 -60.727,-5.75 -15.265,-2.16 -30.101,-5.05 -45.32,-9.1 -51.098,-13.78 -95.485,-39.74 -141.891,-59.8 31.258,54.51 73.563,96.44 114.797,126.32" /><path
             id="path30"
             style="fill:#ffffff;fill-opacity:1;fill-rule:nonzero;stroke:none"
             d="m 623.43,1242.28 c 66.472,39.25 146.566,54.77 219.925,57.16 1.711,0.07 5.18,0.29 5.18,0.29 l 571.745,-0.05 c 0,0 1.03,0 6.23,0.05 34.65,0.03 47.3,-34.45 47.11,-62.2 -0.06,-9.11 -1.6,-18.5 -4.12,-24.72 -3.31,-8.26 -6.94,-14.97 -12.87,-21.36 -2.16,-2.41 -9.85,-7.73 -13.24,-8.58 -7.91,-1.94 -17.66,-1.75 -17.6,-1.75 0.11,0 -425.23,-0.07 -425.23,0 0,0 -22.986,0.93 -38.88,2.52 -11.5,1.11 -20.157,2.28 -32.106,4.51 -29.285,5.82 -53.582,15.39 -78.914,23.2 -16.91,5.21 -34.742,9.09 -53.301,11.91 -34.082,5.3 -71.406,7.63 -105.843,4.98 -43.86,-3.21 -82.868,-11.84 -124.598,-25 7.074,10.97 36.387,27.15 56.512,39.04" /><path
             id="path32"
             style="fill:#ffffff;fill-opacity:1;fill-rule:nonzero;stroke:none"
             d="m 931.41,1062.96 c -19.547,6.88 -38.605,15.76 -55.722,27.1 -22.297,14.74 -33.204,26.47 -62,39.82 -24.684,11.31 -44.348,22.6 -78.692,35.09 -16.582,5.99 -43.437,14.2 -66.516,18.14 -32.894,5.63 -64.628,8.01 -64.628,8.01 0,0 6.738,4.27 10.773,5.49 33.598,10.16 63.27,15.26 97.73,17.73 30.247,2.36 58.04,-0.59 88.364,-5.35 12.469,-1.96 28.636,-5.8 42.699,-9.8 45.609,-13.07 97.484,-33.66 143.555,-33.72 2.547,0 2.23,0.03 2.23,0.03 h 425.057 c 0,0 -3.24,0 1.25,0 12.91,0.03 36.97,-4.11 46.64,-21.25 11.2,-19.65 14.67,-43.1 5.28,-66.57 -2.85,-7.03 -7.6,-17.09 -14.4,-23.3 -5.95,-5.34 -15.66,-8.86 -21.24,-8.86 -1.65,-0.06 -4.38,0 -4.38,0 h -371.76 c 0,0 1.42,0 -2.01,0 -38.01,0 -85.867,4.63 -122.23,17.44" /><path
             id="path34"
             style="fill:#ffffff;fill-opacity:1;fill-rule:nonzero;stroke:none"
             d="m 1100.74,931.109 c -10.54,10.789 -25.06,27.34 -38.17,43.032 -25.22,30.109 -36.51,57.229 -36.51,57.229 h 247.87 c 0,0 0.7,-28.58 -5.04,-61.698 -5.37,-30.82 -16.71,-63.211 -28.81,-86.703 -0.45,-24.117 9.74,-46.508 11.39,-70.258 -20.33,-12.52 -42.24,-24.941 -60.53,-42.492 -1.13,-1.047 -3.02,-1.047 -3.77,1.851 -9.78,36.711 -14.96,69.34 -22.95,105.571 -22.64,17.488 -43.81,33.058 -63.48,53.468" /><path
             id="path36"
             style="fill:#ffffff;fill-opacity:1;fill-rule:nonzero;stroke:none"
             d="m 1356.22,951.469 c -7,12.922 -12.24,30.082 -20.32,40.203 -1.7,-9.043 0.41,-14.66 -0.78,-23.344 -1.17,-7.226 -7.13,-4.219 -8.31,-0.848 -3.47,9.942 -7.19,22.04 -10.39,32.09 -5.24,16.89 -6.96,31.75 -6.96,31.75 l 41.27,0.05 c 0,0 1.56,-0.47 2.27,-4.47 1.97,-10.31 1.49,-20.53 4.35,-32.529 3.68,-15.531 8.36,-29.633 14.08,-44.109 4.93,-12.723 11.33,-25.551 16.54,-38.203 0.69,-1.688 1.05,-4.848 -0.2,-6.547 -1.55,-1.934 -4.17,-1.711 -5.68,0 -11.79,13.449 -16.57,28.59 -25.87,45.957" /><path
             id="path38"
             style="fill:#ffffff;fill-opacity:1;fill-rule:nonzero;stroke:none"
             d="m 1420.08,922.012 c -7.05,14.91 -16.91,31.699 -16.03,48.726 4.54,-5.968 6.42,-10.328 12.71,-13.629 2.88,-0.918 8.89,-0.05 7.38,4.95 -2.8,9.281 -7.11,17.293 -11.09,30.089 -5.92,18.912 -11.68,39.202 -11.68,39.202 l -42.09,0.02 c 0,0 2.37,-17.14 11.96,-43.382 8.38,-23.117 21.34,-49.769 35.6,-74.597 11.54,-20.5 22.1,-38.332 35.25,-53.371 4.5,-5.122 15.55,-0.551 10.76,6.171 -12.5,17.618 -24.15,37.161 -32.77,55.821" /><path
             id="path40"
             style="fill:#ffffff;fill-opacity:1;fill-rule:nonzero;stroke:none"
             d="m 1693.38,2344.89 c -9.08,-3.98 -17.18,-9.15 -21.72,-17.93 -3.33,-6.32 -5.54,-15.95 0.81,-21.36 11.07,-9.45 24.31,0.26 29.7,9.96 6.78,12.33 5.06,35.92 5.06,35.92 0,0 -7.89,-4.08 -13.85,-6.59" /><path
             id="path42"
             style="fill:#ffffff;fill-opacity:1;fill-rule:nonzero;stroke:none"
             d="m 1703.06,2285.93 c 4,7.52 12.75,15.67 22.36,21.51 10.82,6.65 22.05,13.08 29.86,17.7 7.81,4.72 9.3,8.02 9.3,8.02 0,0 -6.43,-2.23 -9.95,-4.3 -19.29,-11.52 -40.33,-24.54 -48.85,-28.32 -10.79,-4.74 -25.46,-5.66 -38.74,-7.31 -2.09,16.67 -6.45,23.59 -6.39,38.45 0.16,7.08 1.85,16.31 3.08,22.73 4.11,21.44 4.95,32.24 4.95,32.24 0,0 -3.3,-3.03 -4.47,-12.45 -1.35,-8.54 -2.31,-11.66 -4.26,-21.75 -2.27,-11.64 -4.53,-21.48 -11.53,-28.75 -9.99,-10.34 -19.27,-28.82 -11.52,-42.96 4.49,-8.26 11.99,-7.03 14.37,-9.14 2.37,-2.15 3.79,-7.22 10.95,-9.6 15.36,-5.16 32.82,8.69 40.84,23.93" /><path
             id="path44"
             style="fill:#ffffff;fill-opacity:1;fill-rule:nonzero;stroke:none"
             d="m 1683.1,2241.88 c 5.24,8.45 10.6,14.39 18.85,19.48 13.66,8.33 23.81,13.94 32.14,18.21 3.59,1.84 6.6,3.97 7.52,7.84 -3.69,-1.41 -17.8,-8.01 -31.82,-16.39 -10.02,-5.97 -27.29,-13.43 -38.89,-13.95 -4.55,-0.24 -7.97,0.93 -11.73,1.03 -7.78,0.35 -17.65,-1.54 -17.65,-1.54 0,0 -2.51,10.95 -5.83,18.9 -1.64,4.05 -4.36,8.18 -5.8,15.82 -0.98,5.05 -1.23,12.7 -0.83,17.22 1.11,13.73 4.85,27.11 4.17,40.98 -8.6,-17.94 -5.08,-40.01 -15.23,-53.86 -4.28,-5.83 -7.67,-10.47 -11,-17.81 -5.57,-12.02 -4.93,-24.54 2.61,-36.18 4.34,-6.59 13.89,-6.38 15.57,-7.63 2.5,-1.86 4.63,-8.78 13.97,-10.9 16.03,-3.58 34.94,3.83 43.95,18.78" /><path
             id="path46"
             style="fill:#ffffff;fill-opacity:1;fill-rule:nonzero;stroke:none"
             d="m 1687.62,1891.29 c 3.7,7.51 6.11,17.38 10.88,24.4 -10.76,-1.65 -12.52,-2.85 -28.08,-4.58 -3.38,-0.28 -10.38,-3.8 -12.7,-6.12 -6.13,-6.22 -11.48,-12 -9.1,-22.39 0.93,-4.03 4.48,-7 6.46,-7.67 12.91,-4.17 26.04,3.48 32.54,16.36" /><path
             id="path48"
             style="fill:#ffffff;fill-opacity:1;fill-rule:nonzero;stroke:none"
             d="m 1700.69,1870.76 c 14.74,3.44 31.68,10.6 38.49,8.37 -13.76,-7.33 -31.17,-10.03 -46.43,-14.39 -11.66,-3.31 -19.97,-12.11 -30.36,-20.13 -9.57,-7.27 -22.29,-10.23 -33.61,-4.88 -3.83,1.82 -7.52,8.02 -8.22,11.27 -0.57,2.67 -6.04,5.28 -8.86,7.61 -2.86,2.37 -4.2,8.26 -4.29,10.49 -0.48,20.35 15.02,28.58 29.95,40.5 11.22,9.02 25.75,47.19 34.7,55.08 -1.64,-12.29 -17.58,-35.52 -24.59,-53.59 -5.53,-14.36 -3.7,-25.89 -7.25,-41.05 10.62,-0.65 22.54,-2.91 33.27,-3.07 8.41,-0.09 18.59,1.7 27.2,3.79" /><path
             id="path50"
             style="fill:#ffffff;fill-opacity:1;fill-rule:nonzero;stroke:none"
             d="m 1685.26,1839.37 c -8.26,-1.53 -18.37,-4.1 -25.26,-5.56 -23.95,-5.06 -35.37,6.68 -54.55,6.42 1.72,21.92 -5.91,31.72 0.36,45.88 5.62,12.61 10.76,25.93 15.57,36.62 3.9,8.59 5.05,15.8 5.05,15.8 0,0 -5.82,-8.67 -22.28,-40.85 -5.76,-11.23 -16.04,-13.64 -25.18,-24.26 -10.48,-12.13 -16.54,-37.72 2.9,-48.49 3.87,-2.16 3.32,-8.78 6.14,-11.5 12.95,-12.21 39.18,-10.95 55.54,3.9 13.06,11.94 28.95,13.87 42.43,17.36 7.93,2.03 14.86,5.39 14.86,5.39 0,0 -3.76,1.53 -15.58,-0.71" /><path
             id="path52"
             style="fill:#ffffff;fill-opacity:1;fill-rule:nonzero;stroke:none"
             d="m 1205.26,1585.16 c -0.96,0 -1.97,0 0,0 z m -111.89,315.54 c -8.02,-10.59 -11.69,-22.68 -20.5,-31.9 -4.63,-4.84 -11.63,-2.62 -15.31,2.98 -4.03,6.29 -10.55,15.18 -5.68,21.41 7.98,10.26 24.71,16.78 38.95,14.92 0.85,-0.09 5.48,-3.47 2.54,-7.41 z M 1055,1840.29 c -4.45,-11.94 -17.77,-13.26 -29.16,-15.63 -2.09,-0.46 -8.6,0 -11.53,2.88 -4.9,4.81 -9.15,11.33 -8.28,19.54 0.45,5.1 4.64,10.05 9.88,12.05 9.44,3.64 20.67,9.54 30,4.34 8.06,-4.47 12.29,-14.72 9.09,-23.18 z m -24.53,-63.2 c -3.28,-4.74 -11.65,10.92 -12.73,18.12 -3.16,20.73 15.08,26.04 30.24,25.42 0.48,-12.37 -9.14,-31.59 -17.51,-43.54 z m -16.41,-56.05 c -2.97,-8.34 -4.4,-16.04 -7.74,-23.66 -3.18,-7.45 -16.922,-10.06 -24.578,-7.68 -10.879,3.38 -20.215,27.83 -7.847,37.19 9.449,7.11 19.257,8.23 31.345,9.7 2.21,0.23 10.27,-0.26 10.61,-0.98 2.01,-5.05 0.71,-7.64 -1.79,-14.57 z m -18.302,-64.56 c -2.235,-6.42 -3.207,-13.05 -6.063,-19.24 -1.425,-3.1 -3.242,1 -3.367,1.22 -4.234,10.66 -6.957,19.64 -3.281,29 2.051,5.21 9.117,10 15.871,10.42 -0.426,-6.69 -0.898,-14.92 -3.16,-21.4 z m -21.692,-31.53 c -4.918,2.25 -4.851,8.58 -6.898,12.51 -1.941,3.85 -6.098,9.15 -4.41,14.16 9.531,-5.32 13.937,-14.8 11.308,-26.67 z m -16.351,39.34 c -11.32,9.31 -12.305,24.18 -19.879,35.62 8.324,5.34 22.394,4.27 26.726,-6.3 3.45,-8.49 5.95,-20.94 -2.667,-27.4 -0.934,-0.72 -3.122,-2.82 -4.18,-1.92 z m -42.277,76.83 c -1.668,2.43 -5.04,9.43 -2.489,10.31 20.309,7.02 35.52,7.22 39.856,-14.45 3.05,-15.5 -7.547,-28.78 -22.344,-23.37 -4.27,1.56 -8.445,18.07 -15.023,27.51 z m -29.469,49.03 c -1.426,1.75 -2.567,7.14 -0.828,8.53 10.566,8.46 26.015,9.14 38.023,7.94 15.789,-1.45 19.059,-16.13 16.445,-28.33 -3.472,-16.02 -27.808,-18.03 -34.687,-15.33 -6.777,2.58 -11.52,17.95 -18.953,27.19 z m 3.441,56.99 c 13.66,8.85 39.754,15.45 44.113,-8.53 1.34,-7.25 -0.48,-16.87 -10.246,-19.99 -10.007,-3.24 -21.812,-6.7 -30.988,-2.96 -11.266,4.59 -13.504,24.63 -2.879,31.48 z m -14.172,40.38 c 1.032,4.58 6.106,6.78 10.403,7.87 11.078,2.75 23.429,6.85 33.593,0.39 3.954,-2.49 4.282,-6.02 4.793,-11.04 0.911,-8.04 -0.277,-14.66 -5.593,-17.73 -10.778,-6.33 -21.715,-6.88 -34.254,-4.42 -10.164,1.99 -10.957,15.48 -8.942,24.93 z m -11.316,-62.19 c -9.508,6.99 -13.656,16.87 -20.68,26.67 -1.66,2.41 0,3.39 1.309,3.78 16.793,4.77 29.281,-3.6 26.683,-21.96 -0.468,-3.54 -2.796,-11.84 -7.312,-8.49 z m -46.387,56.61 c -6.305,5.44 -1.926,14.89 3.551,17.67 9.633,4.78 24.734,5.48 34.699,2.1 6.418,-2.13 9.695,-11.37 8.508,-21.46 -0.43,-4.11 -1.715,-8.7 -3.731,-10 -7.632,-5.21 -19.406,-5.39 -28.664,-3.48 -6.527,1.37 -8.875,10.35 -14.363,15.17 z m -7.265,57.24 c 6.058,13.24 28.304,13.34 40.39,7.44 9.867,-4.85 11.078,-23.16 0.317,-30.4 -8.551,-5.74 -22.094,-3.65 -31.219,-1.95 -12.906,2.39 -13.934,15.11 -9.488,24.91 z m 0.492,49.57 c 9.234,8.78 21.164,4.77 32.289,3.24 2.129,-0.33 4.742,-1.84 6.203,-3.29 7.558,-7.63 8.144,-20.21 -0.293,-26.51 -9.758,-7.26 -21.93,-2.53 -33.649,-1.94 -3.14,0.11 -6.605,3.84 -7.363,6.23 -2.09,7.42 -3.394,16.46 2.813,22.27 z m 5.937,41.5 c 9.789,4.13 26.656,6.01 33.59,-5.02 4.219,-6.75 3.008,-19.19 -3.828,-21.03 -6.711,-1.75 -29.441,-5.49 -34.938,7.06 -2.671,6.2 -1.546,16.21 5.176,18.99 z m 30.172,35.3 c 2.848,-1.28 4.578,-3.57 5.281,-7.05 1.348,-7.52 -0.632,-15.73 -7.84,-17.07 -10.921,-1.98 -27.082,-2.59 -27.031,12.77 0.031,17.22 16.973,16.99 29.59,11.35 z m -21.926,31.9 c 5.809,2.21 15.309,1.69 20.528,-0.99 2.601,-1.37 6.125,-5.7 4.632,-10.23 -1.793,-5.92 -7.351,-8.09 -13.578,-8.16 -6.054,-0.05 -12.949,0.43 -15.382,5.35 -2.321,4.68 -1.34,12.06 3.8,14.03 z m 6.778,25.76 c 5.304,1.93 13.136,1.76 16.933,-2.39 5.313,-5.8 1.164,-15.02 -8.871,-14.56 -3.512,0.13 -7.68,1.38 -9.82,2.56 -5.137,2.92 -3.449,12.52 1.758,14.39 z m 23.769,16.59 c 0.707,2.2 4.188,4.85 6.024,5.47 3.964,1.43 8.586,1.68 12.402,0.17 7.625,-3.1 6.59,-12.49 -1.551,-15.8 -3.601,-1.48 -9.222,-2.43 -11.941,-1.48 -5.121,1.7 -6.547,6.13 -4.934,11.64 z m 23.707,-36.81 c -8.293,-2.43 -19.867,-2.9 -22.34,5.63 -4.168,14.4 14.024,16.59 23.45,13.58 6.55,-2.11 8.808,-16.35 -1.11,-19.21 z m 5.473,47.65 c 2.672,8.93 12.754,13.77 21.937,11.06 7.883,-2.31 9.719,-13.05 4.387,-18.29 -2.418,-2.36 -6.402,-4.76 -10.707,-5.71 -9.371,-2.08 -18.601,3.11 -15.617,12.94 z m 41.289,-32.78 c -1.484,-5.83 -5.781,-9.82 -12.625,-11.36 -6.813,-1.53 -16.207,-1.89 -19.992,2.27 -3.578,3.97 -5.27,9.6 -2.274,13.91 6.059,8.53 17.051,11.52 26.868,9.37 5.636,-1.33 9.73,-7.08 8.023,-14.19 z m -3.695,34.3 c 3.695,8.13 12.984,12.19 21.894,9.44 1.809,-0.56 5.453,-3.44 5.961,-6.24 1.051,-5.66 -0.906,-10.84 -5.574,-13.79 -6.074,-3.79 -11.047,-5.98 -17.965,-3.14 -5.227,2.16 -6.461,8.93 -4.316,13.73 z m 38.457,-22.8 c 4.05,-6.9 -2.11,-13.82 -5.289,-15.72 -6.965,-4.07 -16.817,-6.57 -21.043,0.34 -4.121,6.8 -0.692,14.84 6.488,17.82 6.887,2.87 14.047,7.22 19.844,-2.44 z m 11.601,-26.37 c 4.547,-3.73 8.539,-11.7 3.082,-17.92 -5.117,-5.96 -11.543,-7.69 -19.586,-9.02 -5.445,-0.93 -12.465,3.15 -13.3,7.93 -0.836,4.17 -1.618,11.72 2.531,15.25 7.996,6.84 18.75,10.79 27.273,3.76 z m 9.641,44.97 c 4.305,-1.23 7.082,-5.78 4.945,-10.17 -1.328,-2.72 -5.207,-5.67 -7.668,-7.17 -6.769,-4.19 -12.582,-2.46 -14.68,2.5 -3.902,9.17 9.211,17.27 17.403,14.84 z m 16.504,-22.75 c 4.761,-0.43 6.931,-3.75 7.851,-7.36 1.26,-4.87 -0.32,-9.36 -4.47,-12.15 -4.893,-3.27 -10.959,-5.18 -15.834,-5.25 -6.621,-0.11 -12.704,9.58 -9.145,15.87 3.797,6.7 13.289,9.59 21.598,8.89 z m 27.281,-34.92 c 2.83,-8.28 -3.27,-12.15 -9.67,-15.56 -6.48,-3.46 -15.22,-6.66 -19.717,-2.33 -5.773,5.42 -8.328,14.53 -1.906,20.59 8.893,8.35 25.403,14.65 31.293,-2.7 z m 11.77,-20.74 c 10.5,-1.35 12.56,-16.19 10.46,-21.57 -2.39,-4.65 -7.67,-8.25 -10.46,-9.67 -7.63,-3.95 -16.64,-5.44 -23.66,-1.82 -6.41,3.34 -9.22,13.1 -5.74,20.76 4.75,10.33 19.62,13.55 29.4,12.3 z m 21.52,-46.03 c 3.62,-5.04 2.81,-13.91 0.71,-16.71 -6.63,-8.98 -24.96,-14.16 -32.56,-10.44 -5.77,2.83 -11.41,15.52 -4.71,23.09 7.04,7.89 19.24,12.62 30.33,10.29 2.48,-0.54 4.09,-3.23 6.23,-6.23 z m 4.67,-28.41 c 5.01,-0.54 9.48,-6.06 11.92,-12.07 3.18,-7.81 -0.04,-16.92 -2.53,-18.61 -6,-4.1 -25.06,-15.55 -37.08,-8.68 -6.57,3.75 -8.41,12.41 -8.83,17.56 -1.35,16.46 23.74,23.23 36.52,21.8 z m -70.39,-118.05 c -2.605,6.53 -4.941,16.23 0.18,20.2 10.37,8.2 33.87,15.34 42.85,2.97 5.82,-8.03 4.08,-21.68 -6.11,-26.93 -10.47,-5.36 -31.002,-11.55 -36.92,3.76 z m -50.453,-0.75 c 10.461,5.31 25.508,11.7 36.738,4.46 5.106,-3.31 10.418,-16.98 6.758,-23.02 -7.652,-12.85 -27.945,-16.14 -40.801,-12.82 -11,2.86 -14.261,25.51 -2.695,31.38 z m -9.367,44.48 c 12.598,8.85 37.461,14.59 43.43,-4.78 1.543,-5 2.441,-10.53 -0.114,-14.61 -6.957,-11.19 -24.687,-14.17 -36.507,-12.47 -12.789,1.87 -18.809,23.43 -6.809,31.86 z m -10.574,45.12 c 12.07,6.85 37.844,15.92 43.894,-3.7 2.422,-8.01 2.211,-17.96 -4.664,-21.49 -9.844,-5.19 -25.445,-10.6 -36.789,-3.49 -9.508,5.98 -10.812,23.89 -2.441,28.68 z m 67.664,80.98 c -5.043,-4.51 -10.215,-5.48 -16.961,-7.73 -9.418,-3.23 -19.277,4.05 -20.359,13.05 -1.829,15.47 14.742,17.8 25.675,19.73 8.028,1.45 12.965,-5.75 14.434,-10.58 1.5,-4.62 1.277,-10.86 -2.789,-14.47 z m 20.33,-36.35 c -7.2,-10.72 -36.158,-17.47 -42.545,-6.42 -4.691,8.03 -7.605,19.4 1.176,24.81 9.219,5.63 20.121,9.02 30.849,7.09 10.1,-1.75 15.2,-18.34 10.52,-25.48 z m 15.41,-66.34 c 4.16,-6.53 7.04,-15.34 0.89,-23.5 -5.53,-7.45 -25.37,-10.92 -35.532,-8.47 -5.54,1.35 -8.149,8.12 -9.016,12.72 -1.203,6.14 -1.758,12.37 3.691,17.38 7.91,7.21 18.367,7.08 28.457,7.08 4.11,0 9.97,-2.72 11.51,-5.21 z m -5.71,22.28 c -6.19,-11.35 -27.12,-12.84 -36.511,-11.56 -6.648,0.9 -11.281,11.58 -11.105,20.5 0.058,4.58 1.492,7.67 4.672,9.32 10.422,5.64 21.113,9.35 32.354,7.58 10.93,-1.77 15.21,-17.27 10.59,-25.84 z m -110.108,24.43 c -7.074,21.89 20.25,28.78 36.168,25.41 11.117,-2.34 14.847,-23.69 4.468,-30.39 -12.769,-8.31 -35.433,-11.02 -40.636,4.98 z m -41.188,-53.73 c 8.192,8.43 22.965,8.95 34.477,7.41 7.105,-0.98 10.148,-8.16 11.133,-15.94 2.781,-21.34 -25.934,-24.97 -39.59,-19.98 -8.977,3.3 -13.684,20.6 -6.02,28.51 z m -5.789,41.43 c 8.531,10.03 22.887,12.43 34.723,9.16 7.254,-1.97 10.613,-10.41 10.402,-19.87 -0.113,-5.38 -3.773,-9.29 -7.098,-10.66 -8.421,-3.42 -18.16,-5.95 -27.367,-4.85 -11.375,1.41 -18.257,17.25 -10.66,26.22 z m 1.371,45.08 c 10.492,4.31 30.106,8.16 33.422,-6.89 4.453,-20.03 -19.152,-23.3 -31.789,-19.83 -9.68,2.69 -11.484,22.75 -1.633,26.72 z m 75.723,33.1 c 7.867,-4.51 9.492,-17.08 4.687,-24.38 -6.363,-9.69 -28.093,-15.32 -39.804,-6.82 -6.7,4.85 -10.278,24.68 3.41,29.47 10.914,3.84 21.426,7.57 31.707,1.73 z m -11.164,14.36 c -8.914,-5.51 -21.633,-7.72 -30.117,-3.01 -7.344,4 -7.036,14.74 -3.418,20.52 6.019,9.63 20.871,10.67 31.144,7.66 8.856,-2.61 12.184,-19.04 2.391,-25.17 z m -72.281,15.67 c 0.914,2.88 2.148,3.71 3.945,4.57 7.484,3.58 15.734,4.55 22.937,-0.1 5.196,-3.31 4.746,-11.06 0.899,-15.12 -5.649,-5.9 -17.051,-6.12 -24.367,-2.26 -4.743,2.45 -4.938,8.29 -3.414,12.91 z m 2.402,-31.33 c 3.336,9.46 15.144,8.94 24.086,7.8 11.047,-1.45 13.223,-15.58 9.308,-21.5 -5.406,-8.22 -17.742,-6.66 -27.554,-5.38 -8.028,1.02 -8.508,11.62 -5.84,19.08 z m 155.484,-285.2 c 2.73,-10.72 0,-20.91 -9.5,-24.32 -12.25,-4.33 -28.816,-10.66 -38.601,-4.04 -11.207,7.5 -16.594,28.82 -3.75,37.16 15.195,9.92 45.441,16.47 51.851,-8.8 z m -16.508,33.29 c -8.203,-9.35 -21.66,-9.02 -34.847,-12.89 -5.067,-1.47 -11.141,3.01 -13.77,7.63 -4.871,8.72 -9.757,20.39 -0.425,28.79 7.746,7.07 18.253,6.49 27.765,9.27 4.27,1.31 9.434,2.79 14.625,-0.68 10.68,-7.3 14.81,-22.93 6.652,-32.12 z m 87.298,140.15 c 2.34,-6.81 5.44,-11.8 2.82,-18.58 -3.12,-8.32 -11.22,-9.44 -18.78,-12.21 -7.09,-2.54 -18.87,-5.8 -24.78,0.41 -6.81,7.02 -9.58,21.41 -1.41,27.52 10.56,7.86 36.6,18.75 42.15,2.86 z m 143.32,61.16 c 6.2,25.39 13.93,51.16 15.87,77.99 2.87,40.07 -5.81,81.71 -31.47,112.1 2.52,-13.09 5.88,-24.17 7.61,-37.9 2.12,-16.59 -0.23,-35.08 -4.52,-51.77 -3.25,-12.65 -8.92,-24.92 -14.59,-36.66 -6.65,-13.94 -16.64,-29.07 -26.55,-41.45 -27.8,-34.6 -71.15,-102.08 -71.15,-102.08 0,0 -3.61,0.29 -5.79,0.29 -0.51,8.39 19.45,37.21 29.54,53.34 22.08,35.32 38.79,54.35 58.05,85.01 12.01,19.35 21.21,42.86 24.16,64.14 5.97,43.44 -17.44,95.51 -51.13,112.8 7.71,-32.42 6.95,-78.16 -10.36,-97.38 -32.69,-36.45 -52.14,-63.72 -75.43,-110.38 -0.7,-1.28 -6.15,6.3 -10.64,9.24 -5.05,3.36 -2.26,13.34 -4.03,20.09 -1.68,5.75 -4.35,10.16 -5.17,11.16 -6.9,8.44 -13.59,8.97 -15.04,11.5 -1.66,2.86 -0.84,10.03 -6.89,18.12 -3,4.13 -10.69,7.15 -13.79,11 -3.37,4.22 -4.9,17.06 -14.2,22.33 -4.422,2.48 -6.465,10.2 -10.722,13.94 -13.102,11.61 -26.18,9.34 -28.676,10.1 -3.367,0.92 -9.91,9.28 -21.617,11.28 -11.418,1.94 -17.707,-5.71 -23.696,-2.92 -14.863,6.88 -29.109,7.44 -44.972,-10.19 -4.715,-5.27 -12.93,-0.33 -23.18,-8.2 -9.035,-6.85 -9.18,-13.19 -13.746,-14.02 -8.629,-1.65 -15.039,-8.54 -18.375,-16.03 -1.688,-3.88 -3.008,-11.7 -4.004,-16.89 -1.418,-7.09 -5.027,-13.69 -5.121,-18.94 -0.074,-7.23 2.246,-11.16 1.617,-14.44 -1.109,-4.73 -4.875,-9.06 -5.344,-13.47 -0.363,-2.49 -0.547,-9.11 1.227,-12.88 2.308,-4.65 -1.59,-8.65 -3.61,-13.57 -1.933,-4.56 -3.961,-12.4 -3.359,-17.97 0.84,-7.56 5.195,-10.35 1.813,-16.32 -5.579,-9.72 -12.555,-24.88 -0.297,-44.27 2.281,-3.53 -5.11,-10.41 -5.536,-20.54 -0.464,-10.96 6.141,-19.11 7.969,-23.99 0.364,-1.77 -2.922,-1.63 -3.023,-3.51 -29.235,30.88 -55.086,59.35 -88.946,86.18 -20.738,16.39 -41.21,30.15 -64.156,42.41 -61.258,32.91 -132.468,54.9 -196.965,46.84 24.301,-19.56 54.914,-33.53 79.918,-55.72 23.614,-21.05 45.071,-39.04 66.598,-61.42 33.777,-35.11 61.227,-70.71 89.863,-111.98 8.473,-12.23 14.098,-20.43 22.004,-33.18 7.961,-12.76 16.871,-26.33 24.09,-38.98 36.609,-63.56 66.645,-122.45 97,-187.57 8.41,-18.03 15.52,-36.91 23.781,-54.78 2.184,-4.85 5.375,-1.28 7.578,0 11.008,6.36 22.684,11.67 34.067,17.05 9.117,4.14 17.398,7.03 25.492,10.19 20.539,7.82 40.035,12.04 61.551,16.49 35.937,7.56 100.447,6.03 100.447,6.03 l 122.38,0.03 c 0.74,0 1.59,0 3.28,0 -1.24,35.08 -9.56,69.11 -11.58,104.29 -1.6,28.53 -0.65,56.05 0.35,84.63 2.75,77.33 14.12,160.37 31.42,230.83" /><path
             id="path54"
             style="fill:#ffffff;fill-opacity:1;fill-rule:nonzero;stroke:none"
             d="m 395.168,2295.14 c -23.883,-23.81 -31.027,-32.58 -44.918,-58.9 -8.215,-15.43 -18.602,-35.31 -21.613,-60.94 49.074,18.72 89.097,56.82 125.254,98.9 26.761,31.21 47.488,72.62 73.863,103.43 -46.453,-15.58 -95.465,-45.51 -132.586,-82.49" /><path
             id="path56"
             style="fill:#ffffff;fill-opacity:1;fill-rule:nonzero;stroke:none"
             d="m 254.711,2228.24 c 18.504,31.24 44.977,65 72.422,88.04 -12.719,-28.55 -28.371,-56.85 -33.758,-90.69 -10.684,-67.22 -20.719,-114.38 -31.891,-175.79 30.481,21.78 62.664,55.97 95,79.85 25.039,18.33 50.075,30.65 75.805,48.3 15.262,10.51 25.195,24.07 37.906,36.75 -15.144,-63.85 -71.125,-128.28 -111.254,-158.29 -50.402,-37.77 -68.461,-43.83 -149.414,-126.16 -10.312,101.68 -8.468,207.32 45.184,297.99" /><path
             id="path58"
             style="fill:#ffffff;fill-opacity:1;fill-rule:nonzero;stroke:none"
             d="m 89.5391,1890.55 c 3.7461,52.8 10.0664,95.05 22.9379,146.52 8.961,35.99 28.335,89.55 56.23,111.51 -3.418,-13.06 -5.23,-32.61 -6.559,-45.81 -5.468,-54.42 4.985,-117.58 6.192,-171.9 0.613,-26.73 0.398,-47.32 -3.59,-72.46 -4.168,-26.26 -0.719,-58.61 -0.719,-58.61 0,0 14.449,16.49 27.309,37.01 28.168,44.73 37.156,57.99 59.859,82.22 28.098,30.02 59.598,57.85 95.141,82.47 -4.305,-16.68 -22.434,-49.12 -29.969,-62.19 -9.976,-17.47 -14.496,-33.3 -38.195,-72.85 -33.305,-55.56 -48.141,-63.03 -85.117,-122.45 -8.043,-12.9 -40.871,-62.06 -48.817,-77.09 -17.347,35.89 -23.867,67.21 -45.1482,125.55 -13.3321,36.72 -11.3399,73.41 -9.5547,98.08" /><path
             id="path60"
             style="fill:#ffffff;fill-opacity:1;fill-rule:nonzero;stroke:none"
             d="m 38.0703,1615.91 c -20.0781,52.05 -29.28905,100.36 -36.09764,155.23 -4.12891,33.51 -2.195316,78.25 9.74614,110.51 3.1757,-7.87 9.5703,-27.87 10.4492,-30.85 8.8984,-30.01 12.6484,-44.37 25.0664,-73.25 9.5508,-22.21 21.1445,-39.86 33.6328,-61.77 11.3164,-20 20.9028,-46.32 29.1128,-66.44 26.368,-64.55 28.321,-125.02 38.375,-131.59 7.266,15.55 9.559,30.4 10.333,37.73 7.871,71.43 17.289,136.37 107.246,220.62 8.265,-25.11 4.054,-71.29 -0.895,-96.05 -10.758,-54.14 -19.457,-80.12 -43.246,-132.54 -12.609,-27.65 -29.465,-68.28 -34.051,-81.76 -12.094,-35.03 -16.203,-53.42 -23.828,-74.14 -42.476,70.73 -94.7578,143.84 -125.8437,224.3" /><path
             id="path62"
             style="fill:#ffffff;fill-opacity:1;fill-rule:nonzero;stroke:none"
             d="m 108.137,1290.29 c -30.2464,42.09 -41.2972,63.28 -60.9651,108.1 -16.5313,37.55 -21.3047,51.5 -30.9336,93.59 -5.2969,22.95 -8.28127,43.8 -4.1992,57.32 23.7148,-42.83 39.8671,-90.85 70.8125,-126.35 24.5704,-28.23 48.2814,-52.3 67.8284,-76.06 29.965,-36.65 53.617,-71.22 82.402,-109.31 2.426,19.14 3.363,38.39 -0.934,69.66 -5.855,42.88 -2.269,78.02 5.235,119.57 9.48,52.61 16.426,78.71 34.73,131.97 22.301,-43.85 22.223,-94.56 27.864,-141.09 10.82,-90.16 -17.411,-197.71 -22.938,-242.56 -1.48,-11.8 0.555,-40.97 1.137,-52.37 -42.176,33.23 -79.723,66.87 -116.149,103.32 -16.589,16.55 -39.312,43.96 -53.89,64.21" /><path
             id="path64"
             style="fill:#ffffff;fill-opacity:1;fill-rule:nonzero;stroke:none"
             d="m 268.09,959.48 c -19.207,13.821 -70.856,53.35 -95.293,84.42 -35.606,45.18 -43.438,64.57 -66.918,116.55 -2.883,6.28 -16.1602,35.82 -17.2306,55.76 76.9646,-92.89 145.8476,-106.7 219.2266,-183.8 26.926,-28.26 54.531,-54.82 69.043,-68.191 11.187,-10.219 25.09,-13.43 25.09,-13.43 0,0 -1.449,19.891 -8.703,33.66 -48.95,93.611 -58.192,191.441 -50.785,296.391 22.367,-27.64 29.394,-46.13 43.574,-72.84 15.453,-29.17 23.316,-47.25 30.539,-65.15 41.851,-104.31 52.797,-224.741 78.683,-285.338 -79.929,26.847 -142.871,41.269 -227.226,101.968" /><path
             id="path66"
             style="fill:#ffffff;fill-opacity:1;fill-rule:nonzero;stroke:none"
             d="m 595.852,713.391 c -21.664,-1.403 -63.993,-1.282 -86.629,2.418 -114.375,18.222 -220.727,101.132 -274.172,192.281 48.472,-29.668 83.547,-49.391 126.179,-64.149 37.993,-13.191 74.036,-17.082 137.446,-35.043 38.242,-10.789 76.148,-26.148 89.445,-31.117 42.426,-15.769 60.246,-11.89 60.246,-11.89 0,0 0,6.5 -15.812,23.699 -31.598,34.551 -43.129,42.73 -69.149,69.211 -8.5,8.758 -28.047,38.539 -38.008,58.277 -28.039,55.863 -31.14,100.672 -56.804,162.072 93.578,-55.03 139.133,-130.759 188.574,-226.349 15.199,-29.27 35.82,-63.129 54.586,-81.699 12.641,-12.383 30.43,-31.411 30.43,-31.411 0,0 -13.008,-3.05 -53.637,-9.031 -18.242,-2.691 -57.043,-14.75 -92.695,-17.269" /><path
             id="path68"
             style="fill:#ffffff;fill-opacity:1;fill-rule:nonzero;stroke:none"
             d="m 1049.29,706.18 c 49.44,-8.039 93.28,-20.129 138.2,-35.571 12.09,-4.121 30.48,-13.211 43.2,-19.699 31.83,-16.148 50.17,-26.68 77.53,-45.461 44.05,-30.347 91.39,-63.109 134.09,-112.75 0.92,-0.98 7.81,-8.301 3.23,-11.929 -8.35,-6.59 -28.99,-15.872 -35.88,-9.84 -39.09,34.808 -37.12,45.89 -84.48,88.781 -12.1,10.918 -30.46,26.309 -52.37,41.258 -21.4,14.633 -47.24,30.57 -71.24,42.519 -21.78,10.731 -55.39,13.91 -74.28,13.91 l 0.28,-0.117 c -8.59,0.289 -57.86,0.539 -69.25,-0.121 -96.793,-6.66 -92.09,-15.332 -147.89,-30.519 -45.91,-12.391 -95.164,-21.27 -144.059,-27.871 -50.109,-6.809 -94.887,-7.649 -141.883,-2.84 -63.629,6.59 -133.281,24.3 -185.218,57.761 47.5,-0.812 96.289,-9.921 143.562,-6.25 19.906,1.469 52.172,4.457 74.031,11.2 43.418,13.379 68.34,18.539 114.313,31.347 39.523,11.082 79.316,14.774 120.605,19.192 57.11,6.082 109.979,4.742 157.509,-3" /><path
             id="path70"
             style="fill:#ffffff;fill-opacity:1;fill-rule:nonzero;stroke:none"
             d="m 1934.51,2295.14 c 23.89,-23.81 31.06,-32.58 44.95,-58.9 8.2,-15.43 18.59,-35.31 21.61,-60.94 -49.11,18.72 -89.09,56.82 -125.28,98.9 -26.77,31.21 -47.46,72.62 -73.85,103.43 46.46,-15.58 95.47,-45.51 132.57,-82.49" /><path
             id="path72"
             style="fill:#ffffff;fill-opacity:1;fill-rule:nonzero;stroke:none"
             d="m 2075,2228.24 c -18.53,31.24 -44.99,65 -72.43,88.04 12.83,-30.76 31.53,-69.03 33.75,-90.69 6.83,-67.7 20.72,-114.38 31.9,-175.79 -30.47,21.78 -62.7,55.97 -95.07,79.85 -24.94,18.33 -50,30.65 -75.7,48.3 -15.3,10.51 -25.23,24.07 -37.95,36.75 15.15,-63.85 71.13,-128.28 111.25,-158.29 50.41,-37.77 68.47,-43.83 149.36,-126.16 10.32,101.68 8.51,207.32 -45.11,297.99" /><path
             id="path74"
             style="fill:#ffffff;fill-opacity:1;fill-rule:nonzero;stroke:none"
             d="m 2240.16,1890.55 c -3.83,52.8 -10.04,95.05 -22.93,146.52 -8.96,35.99 -28.34,89.55 -56.27,111.51 3.45,-13.06 5.24,-32.61 6.58,-45.81 5.51,-54.42 -4.94,-117.58 -6.19,-171.9 -0.6,-26.73 -0.39,-47.32 3.58,-72.46 4.18,-26.26 0.74,-58.61 0.74,-58.61 0,0 -14.44,16.49 -27.34,37.01 -28.1,44.73 -37.1,57.99 -59.87,82.22 -28.06,30.02 -59.59,57.85 -95.13,82.47 4.33,-16.68 22.46,-49.12 30,-62.19 10.01,-17.47 14.48,-33.3 38.2,-72.85 33.29,-55.56 48.12,-63.03 85.08,-122.45 8.04,-12.9 40.91,-62.06 48.84,-77.09 17.37,35.89 23.87,67.21 45.16,125.55 13.36,36.72 11.37,73.41 9.55,98.08" /><path
             id="path76"
             style="fill:#ffffff;fill-opacity:1;fill-rule:nonzero;stroke:none"
             d="m 2291.63,1615.91 c 20.07,52.05 29.26,100.36 36.11,155.23 4.14,33.51 2.17,78.25 -9.75,110.51 -3.17,-7.87 -9.56,-27.87 -10.45,-30.85 -8.92,-30.01 -12.64,-44.37 -25.04,-73.25 -9.57,-22.21 -21.27,-39.86 -33.67,-61.77 -11.32,-20 -20.9,-46.32 -29.15,-66.44 -26.34,-64.55 -28.29,-125.02 -38.34,-131.59 -7.29,15.55 -9.57,30.4 -10.32,37.73 -7.91,71.43 -17.3,136.37 -107.25,220.62 -8.29,-25.11 -4.06,-71.29 0.86,-96.05 10.79,-54.14 19.53,-80.12 43.28,-132.54 12.6,-27.65 29.46,-68.28 34.08,-81.76 12.02,-35.03 16.16,-53.42 23.83,-74.14 42.45,70.73 94.73,143.84 125.81,224.3" /><path
             id="path78"
             style="fill:#ffffff;fill-opacity:1;fill-rule:nonzero;stroke:none"
             d="m 2221.57,1290.29 c 30.27,42.09 41.29,63.28 60.95,108.1 16.55,37.55 21.24,51.5 30.95,93.59 5.3,22.95 8.27,43.8 4.18,57.32 -23.6,-42.83 -39.89,-90.85 -70.83,-126.35 -24.53,-28.23 -48.24,-52.3 -67.8,-76.06 -29.93,-36.65 -53.64,-71.22 -82.39,-109.31 -2.42,19.14 -3.4,38.39 0.89,69.66 5.88,42.88 2.3,78.02 -5.17,119.57 -9.51,52.61 -16.47,78.71 -34.76,131.97 -22.27,-43.85 -22.21,-94.56 -27.87,-141.09 -10.85,-90.16 17.45,-197.71 22.97,-242.56 1.46,-11.8 -0.58,-40.97 -1.16,-52.37 42.17,33.23 79.72,66.87 116.15,103.32 16.58,16.55 39.27,43.96 53.89,64.21" /><path
             id="path80"
             style="fill:#ffffff;fill-opacity:1;fill-rule:nonzero;stroke:none"
             d="m 2061.64,959.48 c 19.18,13.821 70.83,53.35 95.26,84.42 35.6,45.18 43.45,64.57 66.93,116.55 2.84,6.28 16.16,35.82 17.23,55.76 -76.97,-92.89 -145.86,-106.7 -219.24,-183.8 -26.91,-28.26 -54.47,-54.82 -69.02,-68.191 -11.19,-10.219 -25.09,-13.43 -25.09,-13.43 0,0 1.44,19.891 8.66,33.66 48.98,93.611 58.22,191.441 50.78,296.391 -22.3,-27.64 -29.37,-46.13 -43.53,-72.84 -15.43,-29.17 -23.32,-47.25 -30.51,-65.15 -41.89,-104.31 -52.87,-224.741 -78.75,-285.338 79.98,26.847 142.9,41.269 227.28,101.968" /><path
             id="path82"
             style="fill:#ffffff;fill-opacity:1;fill-rule:nonzero;stroke:none"
             d="m 1733.85,713.391 c 21.69,-1.403 64,-1.282 86.66,2.418 114.37,18.222 220.69,101.132 274.14,192.281 -48.51,-29.668 -83.59,-49.391 -126.19,-64.149 -38.01,-13.191 -74.02,-17.082 -137.4,-35.043 -38.28,-10.789 -76.17,-26.148 -89.48,-31.117 -42.43,-15.769 -60.25,-11.89 -60.25,-11.89 0,0 0,6.5 15.8,23.699 31.61,34.551 43.21,42.73 69.13,69.211 8.53,8.758 28.08,38.539 38.04,58.277 28.04,55.863 31.13,100.672 56.84,162.072 -93.58,-55.03 -139.22,-130.759 -188.64,-226.349 -15.19,-29.27 -35.78,-63.129 -54.53,-81.699 -12.63,-12.383 -30.45,-31.411 -30.45,-31.411 0,0 13,-3.05 53.72,-9.031 18.16,-2.691 56.94,-14.75 92.61,-17.269" /><path
             id="path84"
             style="fill:#ffffff;fill-opacity:1;fill-rule:nonzero;stroke:none"
             d="m 1280.41,706.18 c -49.41,-8.039 -93.24,-20.129 -138.19,-35.571 -12.13,-4.121 -30.49,-13.211 -43.21,-19.699 -31.82,-16.148 -50.11,-26.68 -77.52,-45.461 -44.088,-30.347 -91.373,-63.109 -134.088,-112.75 -0.925,-0.98 -7.851,-8.301 -3.246,-11.929 8.379,-6.59 29.059,-15.872 35.801,-9.84 39.148,34.808 37.109,45.89 84.573,88.781 12.05,10.918 30.41,26.309 52.37,41.258 21.43,14.633 47.21,30.57 71.23,42.519 21.74,10.731 55.42,13.91 74.28,13.91 l -0.31,-0.117 c 8.62,0.289 57.87,0.539 69.28,-0.121 96.81,-6.66 92.08,-15.332 147.86,-30.519 45.94,-12.391 95.2,-21.27 144.09,-27.871 50.08,-6.809 94.9,-7.649 141.88,-2.84 63.64,6.59 133.27,24.3 185.19,57.761 -47.47,-0.812 -96.23,-9.921 -143.56,-6.25 -19.91,1.469 -52.15,4.457 -74,11.2 -43.44,13.379 -68.36,18.539 -114.31,31.347 -39.52,11.082 -79.33,14.774 -120.6,19.192 -57.12,6.082 -110,4.742 -157.52,-3" /><path
             id="path86"
             style="fill:#ffffff;fill-opacity:1;fill-rule:nonzero;stroke:none"
             d="m 1103.67,2834.64 -86.95,-322.91 h -92.31 l -57.785,210.34 -56.41,-210.34 h -92.113 l -86.95,322.91 h 86.907 l 49.515,-222.26 59.578,222.26 h 83.078 l 56.508,-222.26 52.032,222.26 h 84.9" /><path
             id="path88"
             style="fill:#ffffff;fill-opacity:1;fill-rule:nonzero;stroke:none"
             d="M 1390.51,2772.18 H 1242 v -60.06 h 137.68 v -62.46 H 1242 v -137.93 h -82.86 v 322.91 h 231.37 v -62.46" /><path
             id="path90"
             style="fill:#ffffff;fill-opacity:1;fill-rule:nonzero;stroke:none"
             d="m 1628.38,2730.85 c 0,9.1 -2.46,16.92 -7.36,23.46 -4.92,6.6 -10.64,11.15 -17.13,13.74 -8.69,3.5 -17.13,5.36 -25.38,5.74 -8.24,0.37 -19.2,0.54 -32.93,0.54 h -14.34 v -96.47 h 23.85 c 14.17,0 25.84,0.82 35.04,2.58 9.19,1.7 16.91,5.22 23.08,10.37 5.35,4.65 9.22,10.15 11.62,16.57 2.38,6.4 3.55,14.22 3.55,23.47 z m 86.14,1.86 c 0,-14.49 -2.58,-28.61 -7.62,-42.41 -5.04,-13.78 -12.29,-25.41 -21.67,-34.78 -12.9,-12.73 -27.23,-22.36 -43.04,-28.84 -15.86,-6.48 -35.53,-9.75 -59.11,-9.75 h -51.84 v -105.2 h -83.25 v 322.91 h 137.04 c 20.56,0 37.85,-1.8 51.95,-5.32 14.1,-3.59 26.54,-8.84 37.42,-15.96 12.98,-8.5 22.89,-19.45 29.81,-32.74 6.87,-13.28 10.31,-29.27 10.31,-47.91" /><path
             id="path92"
             style="fill:#ffffff;fill-opacity:1;fill-rule:nonzero;stroke:none"
             d="M 498.707,257.871 440.652,70.5312 H 376.887 L 338.727,196.762 301.035,70.5312 h -64.39 L 179.094,257.871 h 62.984 l 32.164,-129.07 39.977,129.07 h 53.207 l 38.008,-129.07 31.601,129.07 h 61.672" /><path
             id="path94"
             style="fill:#ffffff;fill-opacity:1;fill-rule:nonzero;stroke:none"
             d="m 649.16,286.07 h -4.476 c -2.696,0.692 -6.153,1.59 -10.442,2.59 -4.222,0.988 -8.832,1.551 -13.715,1.551 -11.754,0 -19.691,-2.09 -23.879,-6.402 -4.125,-4.18 -6.183,-12.309 -6.183,-24.5 v -1.438 h 46.16 v -40.73 H 592.457 V 70.5312 H 532.195 V 217.141 h -25.648 v 40.73 h 25.648 V 263 c 0,22.859 6.125,40.078 18.309,51.578 12.176,11.481 30.57,17.113 55.277,17.113 8.883,0 16.973,-0.269 24.215,-0.929 7.176,-0.543 13.566,-1.364 19.164,-2.364 V 286.07" /><path
             id="path96"
             style="fill:#ffffff;fill-opacity:1;fill-rule:nonzero;stroke:none"
             d="m 788.516,165.488 c 0,18.25 -3.086,31.403 -9.313,39.684 -6.18,8.18 -16.043,12.258 -29.441,12.258 -5.684,0 -11.516,-0.879 -17.481,-2.508 -5.98,-1.75 -11.711,-4.274 -17.14,-7.453 V 113.41 c 3.98,-1.609 8.265,-2.601 12.797,-2.988 4.585,-0.512 9.07,-0.711 13.503,-0.711 15.84,0 27.704,4.668 35.418,13.879 7.774,9.332 11.657,23.25 11.657,41.898 z m 61.898,1.231 c 0,-15.367 -2.371,-29.5 -7.051,-42.18 -4.742,-12.687 -10.953,-23.051 -18.582,-31.3398 -8.019,-8.6875 -17.043,-15.1797 -27.168,-19.668 -10.125,-4.5 -20.937,-6.7031 -32.511,-6.7031 -10.614,0 -19.696,1.1328 -27.129,3.4922 -7.481,2.2383 -15.059,5.3985 -22.832,9.4805 V 1.85156 h -60.2 V 257.871 h 60.2 v -19.512 c 9.218,7.27 18.625,13.211 28.242,17.813 9.57,4.598 20.664,6.828 33.242,6.828 23.332,0 41.457,-8.578 54.367,-25.641 12.969,-17.187 19.422,-40.687 19.422,-70.64" /><path
             id="path98"
             style="fill:#ffffff;fill-opacity:1;fill-rule:nonzero;stroke:none"
             d="m 878.855,70.5312 h 62.3984 v 65.5391 H 878.855 Z" /><path
             id="path100"
             style="fill:#ffffff;fill-opacity:1;fill-rule:nonzero;stroke:none"
             d="m 1100.66,118.551 c 3.87,4.801 6.78,10.558 8.73,17.301 1.94,6.738 2.91,15.988 2.91,27.867 0,11.09 -0.99,20.261 -2.99,27.761 -2,7.372 -4.78,13.309 -8.33,17.821 -3.55,4.59 -7.84,7.777 -12.83,9.679 -4.99,1.899 -10.38,2.848 -16.17,2.848 -5.79,0 -10.96,-0.808 -15.45,-2.398 -4.49,-1.489 -8.82,-4.59 -12.9,-9.289 -3.7,-4.391 -6.62,-10.332 -8.77,-17.801 -2.19,-7.602 -3.26,-17.141 -3.26,-28.621 0,-10.18 0.94,-19.039 2.84,-26.578 1.9,-7.539 4.64,-13.551 8.33,-18.039 3.55,-4.403 7.82,-7.532 12.76,-9.532 4.93,-2 10.61,-2.992 16.95,-2.992 5.44,0 10.66,0.922 15.6,2.774 4.93,1.73 9.12,4.91 12.58,9.199 z m 73.9,45.578 c 0,-30.848 -9.02,-55.149 -26.93,-72.8478 -17.97,-17.7304 -43.21,-26.5898 -75.65,-26.5898 -32.5,0 -57.68,8.8594 -75.652,26.5898 -17.973,17.6988 -26.926,41.9998 -26.926,72.8478 0,30.93 9.004,55.301 27.078,73.07 18.07,17.68 43.25,26.52 75.5,26.52 32.7,0 57.92,-8.887 75.79,-26.778 17.88,-17.761 26.79,-42.07 26.79,-72.812" /><path
             id="path102"
             style="fill:#ffffff;fill-opacity:1;fill-rule:nonzero;stroke:none"
             d="m 1336.27,200.609 h -5.33 c -2.54,0.903 -6.62,1.602 -12.3,1.993 -5.69,0.507 -10.36,0.718 -14.14,0.718 -8.58,0 -16.1,-0.621 -22.62,-1.711 -6.58,-1.097 -13.6,-2.988 -21.18,-5.699 V 70.5312 h -60.2 V 257.871 h 60.2 v -27.492 c 13.2,11.269 24.72,18.832 34.47,22.582 9.77,3.75 18.74,5.5 26.95,5.5 2.09,0 4.49,-0.051 7.18,-0.141 2.64,-0.109 4.98,-0.261 6.97,-0.449 v -57.262" /><path
             id="path104"
             style="fill:#ffffff;fill-opacity:1;fill-rule:nonzero;stroke:none"
             d="m 1475.18,129.531 v 84.91 c -3.5,1.489 -7.68,2.618 -12.66,3.469 -5.03,0.86 -9.51,1.219 -13.49,1.219 -15.74,0 -27.55,-4.57 -35.48,-13.609 -7.86,-9.02 -11.81,-21.68 -11.81,-37.961 0,-17.95 3.37,-30.539 10.1,-37.618 6.72,-7.211 16.66,-10.691 29.86,-10.691 5.98,0 11.86,0.949 17.63,2.852 5.78,1.886 11.07,4.328 15.85,7.429 z m 60.2,-37.4919 c 0,-17.5586 -2.5,-32.3399 -7.54,-44.3203 -5,-12.0899 -11.98,-21.4102 -21.02,-28.1876 C 1497.84,12.6289 1486.98,7.55859 1474.26,4.51172 1461.53,1.46875 1447.12,0 1431.1,0 c -12.97,0 -25.84,0.691406 -38.4,2.30078 -12.64,1.58984 -23.59,3.5 -32.83,5.67969 V 54.8594 h 7.32 c 7.33,-2.8985 16.31,-5.5703 26.82,-7.9102 10.57,-2.4492 20,-3.6211 28.32,-3.6211 11.12,0 20.17,1.0235 27.1,3.0625 6.92,2.0508 12.24,4.9688 15.87,8.7696 3.44,3.6015 5.99,8.1914 7.54,13.6601 1.54,5.6094 2.34,12.3008 2.34,20.0781 v 3.4414 c -7.24,-5.8906 -15.27,-10.5898 -24.04,-13.9609 -8.77,-3.5195 -18.55,-5.1406 -29.32,-5.1406 -26.17,0 -46.42,7.8828 -60.62,23.6523 -14.22,15.7694 -21.34,39.8284 -21.34,72.0784 0,15.472 2.2,28.742 6.53,40.031 4.34,11.172 10.41,20.961 18.28,29.359 7.35,7.782 16.39,13.809 27.11,18.102 10.72,4.41 21.66,6.539 32.89,6.539 10.12,0 19.32,-1.16 27.6,-3.609 8.27,-2.352 15.78,-5.621 22.56,-9.911 l 2.15,8.391 h 58.4 V 92.0391" /><path
             id="path106"
             style="fill:#ffffff;fill-opacity:1;fill-rule:nonzero;stroke:none"
             d="M 1750.67,330.102 1618.38,16.5312 h -51.21 l 131.75,313.5708 h 51.75" /><path
             id="path108"
             style="fill:#ffffff;fill-opacity:1;fill-rule:nonzero;stroke:none"
             d="m 1918.22,188.352 c -0.35,12.457 -3.45,21.949 -9.33,28.347 -5.9,6.27 -15.08,9.41 -27.56,9.41 -11.53,0 -21.07,-2.988 -28.5,-8.968 -7.43,-6 -11.63,-15.629 -12.53,-28.789 z m 59.7,-35.321 H 1840.5 c 0.89,-14.66 6.46,-25.84 16.75,-33.633 10.27,-7.789 25.43,-11.679 45.45,-11.679 12.68,0 24.95,2.242 36.88,6.84 11.88,4.589 21.26,9.48 28.16,14.671 h 6.68 V 81.0586 c -13.58,-5.4883 -26.35,-9.4297 -38.39,-11.8203 -11.97,-2.5078 -25.24,-3.6992 -39.82,-3.6992 -37.59,0 -66.39,8.3711 -86.41,25.3515 -20.01,16.8794 -30.05,40.9884 -30.05,72.2384 0,30.832 9.51,55.32 28.48,73.449 18.91,18.012 44.95,27.141 77.95,27.141 30.49,0 53.4,-7.731 68.73,-23.149 15.33,-15.441 23.01,-37.511 23.01,-66.461 v -21.078" /><path
             id="path110"
             style="fill:#ffffff;fill-opacity:1;fill-rule:nonzero;stroke:none"
             d="m 2165.99,129.941 c 0,-19.382 -8.63,-34.9722 -26,-46.8121 -17.33,-11.8203 -41.08,-17.7305 -71.24,-17.7305 -16.67,0 -31.79,1.4805 -45.37,4.5704 -13.57,3.2226 -24.46,6.6015 -32.69,10.4023 v 49.4179 h 5.55 c 2.98,-2.219 6.44,-4.469 10.39,-7.027 3.94,-2.434 9.55,-5.16 16.75,-8.063 6.23,-2.48 13.32,-4.769 21.21,-6.609 7.9,-1.738 16.33,-2.649 25.37,-2.649 11.77,0 20.51,1.258 26.14,3.911 5.7,2.527 8.55,6.398 8.55,11.5 0,4.589 -1.71,7.957 -5.06,10.007 -3.28,2.051 -9.62,4.012 -19,5.911 -4.45,1 -10.47,2.07 -18.1,3.218 -7.58,1.153 -14.5,2.621 -20.74,4.223 -17.02,4.488 -29.66,11.398 -37.89,20.848 -8.19,9.32 -12.33,21.023 -12.33,35.101 0,17.969 8.51,32.91 25.62,44.949 17.03,11.93 40.37,17.891 69.97,17.891 14.02,0 27.44,-1.352 40.26,-4.199 12.88,-2.86 22.88,-5.871 30.12,-9.172 V 202.32 h -5.19 c -8.89,6.071 -19.04,11.051 -30.42,14.879 -11.38,3.852 -22.94,5.77 -34.62,5.77 -9.69,0 -17.79,-1.278 -24.43,-3.989 -6.59,-2.691 -9.91,-6.492 -9.91,-11.39 0,-4.379 1.5,-7.828 4.5,-10.11 2.99,-2.421 10.07,-4.71 21.15,-7 6.15,-1.308 12.71,-2.48 19.8,-3.621 7.04,-1.14 14.15,-2.668 21.23,-4.347 15.83,-4.211 27.51,-10.621 35.04,-19.461 7.6,-8.832 11.34,-19.949 11.34,-33.11" /></g></g></g></g></svg>