<?xml version="1.0" encoding="UTF-8" standalone="no"?>
<svg
   xmlns:dc="http://purl.org/dc/elements/1.1/"
   xmlns:cc="http://creativecommons.org/ns#"
   xmlns:rdf="http://www.w3.org/1999/02/22-rdf-syntax-ns#"
   xmlns:svg="http://www.w3.org/2000/svg"
   xmlns="http://www.w3.org/2000/svg"
   viewBox="0 0 1763.6133 377.94666"
   height="377.94666"
   width="1763.6133"
   xml:space="preserve"
   id="svg2"
   version="1.1"><metadata
     id="metadata8"><rdf:RDF><cc:Work
         rdf:about=""><dc:format>image/svg+xml</dc:format><dc:type
           rdf:resource="http://purl.org/dc/dcmitype/StillImage" /></cc:Work></rdf:RDF></metadata><defs
     id="defs6"><clipPath
       id="clipPath20"
       clipPathUnits="userSpaceOnUse"><path
         id="path18"
         d="M 0,0 H 13227 V 2834.6 H 0 Z" /></clipPath></defs><g
     transform="matrix(1.3333333,0,0,-1.3333333,0,377.94667)"
     id="g10"><g
       transform="scale(0.1)"
       id="g12"><g
         id="g14"><g
           clip-path="url(#clipPath20)"
           id="g16"><path
             id="path22"
             style="fill:#ffffff;fill-opacity:1;fill-rule:nonzero;stroke:none"
             d="m 1340.52,2131.09 c 12.48,27.05 24.07,48.64 40.77,74.3 7.36,11.31 15.68,19.2 23.14,30.68 -3.59,1.02 -8.74,-1.91 -10.99,-3.49 -7.41,-5.38 -10.77,-14.13 -16.7,-18.83 -14.05,-11.04 -13.64,-21.09 -21,-26.29 -6.6,-4.61 -8.44,-7.64 -13.07,-14.87 -3.06,-4.83 -5.34,-8.74 -8.56,-18.21 -1.19,-3.43 -3.45,-0.4 -8.96,-7.97 -7.15,-9.81 -10.39,-20.36 -13.37,-32.27 -0.96,-3.89 -7.61,-5.94 -11.84,-14.07 -5.73,-10.91 -9.48,-21.03 -11.94,-36.92 -0.6,-3.71 -6.85,-6.26 -11.16,-16.53 -3.04,-7.24 -5.2,-8.83 -7.9,-22.46 -1.62,-8.3 -5.42,-9.54 -9.71,-21.56 -3.26,-9.21 -3.41,-18.06 -4.55,-30.1 -0.29,-2.34 -4.23,-6.94 -7.84,-13.68 -6.11,-11.27 -5.88,-18.77 -8.32,-30.4 -0.92,-4.22 -5.65,-9.77 -10.18,-27.8 -3.97,-15.99 -0.35,-26.55 -1.65,-34.47 -3.57,-20.4 -7.07,-38.2 -5.17,-58.33 0.94,-9.84 2.44,-20.01 1.81,-29.46 -1.89,-29.71 -3.48,-54.17 -3.34,-87.83 0.1,-18.35 1.53,-43.42 4.32,-64.31 3.03,-23.05 7.43,-41.06 7.43,-41.06 h 75.14 c 0,0 -2.93,43.45 0.97,89.16 2.31,27.45 8.82,56.49 14.74,76.91 7.49,26.02 12.18,39.51 26.37,73.84 0.32,0.78 -0.09,3.97 -3.86,0.84 -7.83,-6.61 -14.35,-12.35 -20.56,-21.71 -9.44,-14.25 -15.2,-25.99 -22.88,-40.63 -8.94,-17.02 -13.86,-31.83 -23.09,-52.49 -0.55,14.9 1.88,29.09 4.89,42.88 3.09,14.01 5.56,25.13 9.96,37.24 7.84,21.37 15.45,39.16 28.03,59.04 7.29,11.45 16.58,21.74 26,30.32 11.28,10.31 21.73,19.38 33.56,29.48 -12.44,6.39 -28.99,-6.96 -32.26,-7.62 -17.48,-3.4 -24.61,-19.65 -29.97,-21.84 -7.61,-3.22 -12.04,-7.87 -17.35,-14.31 -4.12,-4.86 -5.31,-12.37 -9.61,-15 -7.14,-4.44 -12.35,-11.16 -17.25,-20.5 -2.01,-3.87 -7.52,-22.11 -13.6,-19.81 10.4,61.93 32.28,120.02 67.38,171.72 22.22,32.77 46.45,60.9 82.11,86.08 4.72,3.35 5.65,4.89 -0.95,4.68 -33.33,-4.03 -35.35,-19.3 -40.88,-20.74 -5.17,-1.3 -11.62,-7.5 -15.76,-11.5 -7.4,-7.32 -7.28,-13.51 -10.14,-15.45 -6.06,-4.2 -10.63,-8.66 -14.8,-16.02 -2.16,-3.81 -5.86,-12.3 -9.12,-14.23 -8.53,-4.95 -16.83,-12.2 -20.99,-20 -3.04,-5.66 -4.23,-11.87 -8.26,-17.45 -4.23,-6.05 -10.19,-10.55 -15.34,-14.91 3.91,26.46 16.38,57.8 24.95,84.88 11.56,36.12 25.53,68.95 41.35,103.07" /><path
             id="path24"
             style="fill:#ffffff;fill-opacity:1;fill-rule:nonzero;stroke:none"
             d="m 1417.22,1916.6 c 28.44,63.82 58.35,111.9 97.26,168.11 5.1,7.36 9.65,14.58 14.08,21.48 2,3.09 11.58,16.83 13.57,19.74 13,19.73 18.52,25.73 31.86,44.57 3.59,5.09 6.52,9.09 8.04,15 2.86,11.04 -6.58,18.41 -8.74,29 -2.21,10.79 -1.04,22.55 3.96,31.68 3.09,5.66 6.15,7.92 9.31,15.58 6.04,14.72 3.96,46.58 10.86,47.43 -1.77,-15.13 -2.19,-32.14 0.2,-46.67 2.78,-16.94 13.06,-27.2 17.3,-45.09 11.41,2.05 23.84,1.56 33.42,0.71 9.57,-0.78 21.63,1.85 31.44,5.21 13.25,4.51 24.24,12.77 37.77,15.99 -11.52,-11.07 -27.73,-15.24 -41.34,-23.62 -4.98,-3.12 -9.72,-7.3 -13.01,-12.43 -5.52,-8.53 -9.79,-16.63 -18.37,-20.39 -15.19,-6.65 -28.24,-3.47 -45.56,-6.72 -25.77,-26.52 -50.03,-62.61 -72.42,-100.58 -56.72,-95.95 -104.02,-195.36 -131.52,-297.3 9.53,17.77 18.6,34.91 28.89,51.76 11.42,18.77 24.21,37.09 38.14,55.48 32.66,43.05 64.96,80.63 101.18,120.18 29.2,31.99 61.25,58.8 96.95,81.18 47.22,29.59 105.43,50.28 156.59,39.64 5.83,-1.37 14.14,-2.91 17.75,-6.75 -64.1,8.96 -121.55,-13.44 -164.41,-47.75 -33.84,-27.06 -62.35,-54.58 -91.39,-90.28 -14.94,-17.2 -28.43,-36.12 -41.8,-54.42 -14.03,-19.3 -26.48,-39.55 -38.79,-59.86 -41.54,-68.58 -72.97,-141.23 -96.13,-216.49 -0.64,-2.38 -0.77,-4.79 -1.47,-7.17 1.15,1.66 2.75,3.52 3.82,5.26 31.15,50.57 68.58,99.42 115.99,132.23 4.12,2.79 8.45,8.21 9.54,12.5 5.15,20.08 -10.19,29.75 11.03,57.53 4.86,6.38 11.47,8.71 16.09,14.63 8.67,13.39 15.74,37.44 23,43.88 -3.68,-15.64 -12.62,-32.15 -14.55,-48.27 -2.01,-17.67 2.49,-32.15 3.3,-50.87 12.49,-1.74 22.18,-7.04 32,-10.06 15.31,-4.79 24.45,-3.55 39.57,-2.22 6.49,0.54 18.19,4.27 25.14,2.87 -14.62,-7.99 -34.35,-6.52 -49.3,-14.12 -10.49,-5.36 -13.51,-13.31 -27.9,-16.06 -12.88,-2.49 -23.67,-1.19 -32.01,3.1 -6.48,3.3 -11.53,4.67 -17.36,1.87 -15.57,-7.46 -26.2,-18.03 -38.74,-30.66 -29.05,-29.28 -52.81,-61.94 -74.94,-104.73 -5.85,-11.42 -11.14,-22.67 -16.13,-34.28 -2.46,-5.63 -8.6,-21.3 -8.6,-21.3 h -75.96 c 0,0 -0.23,21.91 0.52,29.89 1.46,15.96 3.59,27.76 6.68,43.93 4.41,23.28 8.73,44.38 14.79,66.93 5.88,21.96 12.22,42.55 19.72,63.64 15.71,43.95 32.39,86.1 50.68,127.09" /><path
             id="path26"
             style="fill:#ffffff;fill-opacity:1;fill-rule:nonzero;stroke:none"
             d="m 682.535,1324.76 c 27.742,22.64 48.277,35.85 75.985,52.37 11.242,6.74 28.257,14.35 41.308,20.28 48.016,21.67 111.496,37.6 171.27,38.68 1.074,0 1.011,-0.03 1.011,-0.03 h 445.951 c 0,0 -1.7,0.03 1.55,0.03 14.18,0 28.23,-4.92 36.89,-13.07 8.71,-8.33 12.89,-21.04 15.13,-33.69 1.93,-10.78 0.98,-20.27 -1.52,-31.83 -1.96,-9.18 -3.44,-14.54 -8.48,-22.29 -3.11,-4.73 -5.99,-7.92 -11.69,-12.5 -5.86,-4.71 -14.16,-6.26 -23.7,-6.34 -1,-0.04 -3.11,-0.2 -3.04,-0.08 0.09,0.08 -521.555,0.08 -521.555,0.08 0,0 -3.266,0.01 -4.872,0.01 -34.152,0.09 -70.125,-1.66 -103.859,-6.14 -25.844,-3.44 -51.742,-7.46 -76.715,-14.01 -31.476,-8.17 -61.804,-19.61 -92.101,-30.95 16.785,22.34 36.175,41.33 58.437,59.48" /><path
             id="path28"
             style="fill:#ffffff;fill-opacity:1;fill-rule:nonzero;stroke:none"
             d="m 837.363,1502.19 c 27.399,19.74 60.688,36.03 90.149,47.3 14.972,5.63 34.797,11.91 50.597,15.83 19.075,4.83 40.941,8.42 58.821,8.98 5.39,0.14 0.81,0.04 0.81,0.04 l 382.44,0.03 c 0,0 8.21,-0.44 11.05,-0.99 7.16,-1.59 12.96,-4.52 15.38,-6.05 5.93,-3.77 13.41,-11.8 17.3,-18.12 9.93,-16.33 11.66,-33.97 8.48,-52.35 -3.71,-20.98 -19.61,-44.88 -41.27,-45.44 -3.72,-0.08 -11.27,0 -11.27,0 h -414.22 c 0,0 -24.091,-0.47 -35.126,-0.88 -20.391,-0.82 -42.965,-3.11 -60.734,-5.76 -15.258,-2.16 -30.09,-5.05 -45.317,-9.11 -51.094,-13.77 -95.473,-39.72 -141.887,-59.79 31.258,54.52 73.567,96.43 114.797,126.31" /><path
             id="path30"
             style="fill:#ffffff;fill-opacity:1;fill-rule:nonzero;stroke:none"
             d="m 623.422,1242.29 c 66.48,39.24 146.574,54.76 219.906,57.15 1.734,0.07 5.203,0.3 5.203,0.3 l 571.749,-0.06 c 0,0 1.03,0 6.22,0.06 34.65,0.03 47.31,-34.46 47.12,-62.21 -0.06,-9.11 -1.6,-18.5 -4.13,-24.73 -3.31,-8.25 -6.93,-14.96 -12.93,-21.34 -2.1,-2.42 -9.78,-7.74 -13.13,-8.59 -7.95,-1.93 -17.7,-1.75 -17.64,-1.75 0.11,0 -425.28,-0.06 -425.28,0 0,0 -22.92,0.93 -38.838,2.52 -11.496,1.12 -20.164,2.29 -32.106,4.51 -29.289,5.82 -53.554,15.4 -78.89,23.21 -16.938,5.2 -34.77,9.08 -53.328,11.9 -34.106,5.3 -71.395,7.64 -105.844,4.98 -43.859,-3.21 -82.867,-11.83 -124.594,-25 7.074,10.97 36.391,27.14 56.512,39.05" /><path
             id="path32"
             style="fill:#ffffff;fill-opacity:1;fill-rule:nonzero;stroke:none"
             d="m 931.402,1062.96 c -19.547,6.88 -38.609,15.76 -55.718,27.11 -22.305,14.74 -33.207,26.46 -62.008,39.81 -24.676,11.31 -44.34,22.6 -78.688,35.08 -16.582,6.01 -43.441,14.21 -66.515,18.16 -32.891,5.62 -64.621,8 -64.621,8 0,0 6.73,4.27 10.765,5.49 33.602,10.17 63.274,15.27 97.731,17.74 30.25,2.34 58.043,-0.61 88.359,-5.36 12.473,-1.96 28.641,-5.8 42.695,-9.81 45.618,-13.06 97.493,-33.64 143.563,-33.71 2.547,0 2.23,0.04 2.23,0.04 h 425.055 c 0,0 -3.23,0 1.26,0 12.91,0.03 36.96,-4.11 46.63,-21.25 11.2,-19.66 14.68,-43.11 5.29,-66.57 -2.86,-7.04 -7.6,-17.1 -14.41,-23.3 -5.95,-5.35 -15.65,-8.86 -21.24,-8.86 -1.65,-0.07 -4.38,0 -4.38,0 h -371.76 c 0,0 1.42,0 -2.01,0 -38.01,0 -85.853,4.63 -122.228,17.43" /><path
             id="path34"
             style="fill:#ffffff;fill-opacity:1;fill-rule:nonzero;stroke:none"
             d="m 1100.73,931.109 c -10.54,10.789 -25.06,27.352 -38.16,43.032 -25.23,30.119 -36.52,57.239 -36.52,57.239 h 247.89 c 0,0 0.69,-28.6 -5.06,-61.708 -5.36,-30.813 -16.7,-63.203 -28.8,-86.692 -0.45,-24.121 9.73,-46.511 11.38,-70.261 -20.32,-12.52 -42.24,-24.949 -60.52,-42.5 -1.15,-1.047 -3.04,-1.047 -3.78,1.851 -9.78,36.7 -14.96,69.352 -22.95,105.578 -22.64,17.493 -43.81,33.051 -63.48,53.461" /><path
             id="path36"
             style="fill:#ffffff;fill-opacity:1;fill-rule:nonzero;stroke:none"
             d="m 1356.22,951.469 c -7,12.922 -12.25,30.082 -20.32,40.203 -1.7,-9.031 0.41,-14.66 -0.79,-23.344 -1.17,-7.226 -7.13,-4.219 -8.3,-0.848 -3.48,9.93 -7.2,22.04 -10.36,32.09 -5.28,16.89 -7.01,31.76 -7.01,31.76 l 41.28,0.05 c 0,0 1.57,-0.47 2.28,-4.48 1.97,-10.32 1.48,-20.52 4.34,-32.521 3.68,-15.527 8.36,-29.641 14.08,-44.129 4.94,-12.719 11.34,-25.539 16.55,-38.199 0.68,-1.68 1.04,-4.84 -0.18,-6.531 -1.58,-1.942 -4.2,-1.719 -5.7,0 -11.8,13.441 -16.58,28.582 -25.87,45.949" /><path
             id="path38"
             style="fill:#ffffff;fill-opacity:1;fill-rule:nonzero;stroke:none"
             d="m 1420.07,922.012 c -7.05,14.906 -16.91,31.699 -16.04,48.718 4.55,-5.96 6.43,-10.32 12.72,-13.628 2.88,-0.911 8.89,-0.051 7.38,4.957 -2.79,9.293 -7.07,17.293 -11.08,30.089 -5.92,18.912 -11.68,39.212 -11.68,39.212 l -42.08,0.02 c 0,0 2.34,-17.14 11.94,-43.38 8.38,-23.141 21.34,-49.781 35.61,-74.609 11.55,-20.5 22.1,-38.34 35.24,-53.371 4.49,-5.122 15.54,-0.559 10.76,6.16 -12.49,17.621 -24.14,37.16 -32.77,55.832" /><path
             id="path40"
             style="fill:#ffffff;fill-opacity:1;fill-rule:nonzero;stroke:none"
             d="m 1693.42,2344.86 c -9.14,-3.98 -17.23,-9.15 -21.77,-17.93 -3.33,-6.32 -5.54,-15.95 0.79,-21.36 11.09,-9.46 24.34,0.25 29.75,9.96 6.76,12.33 5.03,35.92 5.03,35.92 0,0 -7.9,-4.09 -13.8,-6.59" /><path
             id="path42"
             style="fill:#ffffff;fill-opacity:1;fill-rule:nonzero;stroke:none"
             d="m 1703.05,2285.9 c 3.99,7.51 12.74,15.67 22.35,21.5 10.83,6.65 22.06,13.08 29.87,17.7 7.81,4.72 9.3,8.03 9.3,8.03 0,0 -6.43,-2.24 -9.94,-4.31 -19.3,-11.52 -40.34,-24.53 -48.86,-28.32 -10.8,-4.73 -25.47,-5.65 -38.71,-7.3 -2.13,16.66 -6.47,23.58 -6.42,38.44 0.15,7.09 1.85,16.31 3.08,22.74 4.11,21.44 4.95,32.24 4.95,32.24 0,0 -3.3,-3.03 -4.47,-12.45 -1.35,-8.55 -2.31,-11.67 -4.26,-21.76 -2.26,-11.63 -4.54,-21.47 -11.53,-28.74 -9.99,-10.35 -19.27,-28.82 -11.53,-42.96 4.5,-8.26 12.01,-7.04 14.38,-9.14 2.37,-2.16 3.8,-7.22 10.95,-9.6 15.37,-5.16 32.82,8.69 40.84,23.93" /><path
             id="path44"
             style="fill:#ffffff;fill-opacity:1;fill-rule:nonzero;stroke:none"
             d="m 1683.1,2241.84 c 5.23,8.46 10.6,14.39 18.84,19.48 13.66,8.33 23.81,13.95 32.14,18.22 3.59,1.83 6.6,3.97 7.52,7.83 -3.69,-1.41 -17.8,-8.01 -31.82,-16.38 -10.05,-5.97 -27.28,-13.43 -38.88,-13.96 -4.56,-0.24 -7.97,0.93 -11.73,1.04 -7.74,0.34 -17.66,-1.55 -17.66,-1.55 0,0 -2.51,10.96 -5.83,18.91 -1.64,4.04 -4.36,8.18 -5.81,15.81 -0.97,5.05 -1.22,12.7 -0.82,17.23 1.12,13.72 4.84,27.1 4.17,40.98 -8.59,-17.95 -5.09,-40.02 -15.23,-53.87 -4.28,-5.83 -7.67,-10.46 -11.04,-17.81 -5.53,-12.02 -4.89,-24.54 2.66,-36.17 4.33,-6.6 13.88,-6.38 15.56,-7.64 2.5,-1.85 4.63,-8.78 13.98,-10.9 16.02,-3.58 34.92,3.83 43.95,18.78" /><path
             id="path46"
             style="fill:#ffffff;fill-opacity:1;fill-rule:nonzero;stroke:none"
             d="m 1687.61,1891.25 c 3.7,7.51 6.11,17.38 10.88,24.4 -10.76,-1.65 -12.52,-2.85 -28.07,-4.58 -3.36,-0.28 -10.39,-3.8 -12.71,-6.12 -6.13,-6.22 -11.49,-11.99 -9.1,-22.39 0.92,-4.03 4.49,-7 6.47,-7.66 12.93,-4.17 26.04,3.48 32.53,16.35" /><path
             id="path48"
             style="fill:#ffffff;fill-opacity:1;fill-rule:nonzero;stroke:none"
             d="m 1700.69,1870.73 c 14.72,3.43 31.67,10.59 38.49,8.36 -13.78,-7.33 -31.18,-10.02 -46.44,-14.38 -11.66,-3.32 -19.98,-12.12 -30.37,-20.14 -9.57,-7.27 -22.27,-10.22 -33.6,-4.88 -3.83,1.83 -7.52,8.02 -8.21,11.28 -0.58,2.66 -6.05,5.27 -8.87,7.6 -2.86,2.37 -4.18,8.26 -4.29,10.5 -0.48,20.34 15.01,28.57 29.94,40.49 11.23,9.02 25.79,47.18 34.7,55.09 -1.62,-12.29 -17.58,-35.53 -24.59,-53.6 -5.52,-14.36 -3.69,-25.89 -7.26,-41.04 10.64,-0.66 22.56,-2.91 33.29,-3.07 8.41,-0.1 18.59,1.7 27.21,3.79" /><path
             id="path50"
             style="fill:#ffffff;fill-opacity:1;fill-rule:nonzero;stroke:none"
             d="m 1685.25,1839.33 c -8.26,-1.52 -18.37,-4.1 -25.25,-5.56 -23.96,-5.05 -35.37,6.68 -54.55,6.43 1.71,21.91 -5.91,31.71 0.35,45.87 5.62,12.61 10.76,25.93 15.57,36.62 3.89,8.58 5.05,15.81 5.05,15.81 0,0 -5.81,-8.68 -22.28,-40.86 -5.76,-11.23 -16.03,-13.64 -25.18,-24.25 -10.48,-12.13 -16.54,-37.73 2.9,-48.49 3.87,-2.16 3.32,-8.79 6.14,-11.5 12.95,-12.21 39.18,-10.96 55.54,3.9 13.07,11.93 28.95,13.86 42.43,17.35 7.9,2.03 14.86,5.39 14.86,5.39 0,0 -3.76,1.53 -15.58,-0.71" /><path
             id="path52"
             style="fill:#ffffff;fill-opacity:1;fill-rule:nonzero;stroke:none"
             d="m 1205.25,1585.13 c -0.96,0 -1.97,0 0,0 z m -111.89,315.53 c -8.02,-10.58 -11.69,-22.68 -20.5,-31.9 -4.63,-4.84 -11.63,-2.61 -15.31,2.98 -4.03,6.29 -10.55,15.18 -5.68,21.41 7.98,10.26 24.71,16.79 38.95,14.92 0.85,-0.09 5.47,-3.47 2.54,-7.41 z M 1055,1840.25 c -4.46,-11.94 -17.78,-13.25 -29.16,-15.62 -2.1,-0.46 -8.61,0 -11.53,2.88 -4.9,4.8 -9.16,11.33 -8.29,19.54 0.45,5.09 4.64,10.04 9.88,12.04 9.45,3.65 20.67,9.55 30.04,4.34 8.02,-4.48 12.24,-14.72 9.06,-23.18 z m -24.54,-63.19 c -3.28,-4.74 -11.65,10.92 -12.73,18.11 -3.16,20.74 15.08,26.05 30.25,25.42 0.47,-12.36 -9.15,-31.58 -17.52,-43.53 z m -16.41,-56.05 c -2.97,-8.35 -4.4,-16.04 -7.73,-23.66 -3.19,-7.45 -16.929,-10.06 -24.582,-7.69 -10.879,3.38 -20.23,27.84 -7.851,37.19 9.453,7.12 19.258,8.23 31.343,9.71 2.2,0.23 10.27,-0.26 10.61,-0.99 2.02,-5.05 0.71,-7.63 -1.79,-14.56 z m -18.304,-64.57 c -2.23,-6.41 -3.207,-13.05 -6.055,-19.24 -1.425,-3.1 -3.25,1.02 -3.359,1.23 -4.246,10.65 -6.973,19.64 -3.297,29 2.055,5.21 9.117,9.99 15.871,10.42 -0.426,-6.69 -0.898,-14.93 -3.16,-21.41 z m -21.687,-31.52 c -4.918,2.25 -4.848,8.57 -6.903,12.51 -1.937,3.84 -6.097,9.15 -4.402,14.16 9.516,-5.32 13.93,-14.81 11.305,-26.67 z m -16.348,39.34 c -11.332,9.31 -12.313,24.18 -19.883,35.62 8.328,5.34 22.399,4.27 26.723,-6.3 3.453,-8.49 5.953,-20.94 -2.664,-27.4 -0.91,-0.72 -3.117,-2.82 -4.176,-1.92 z m -42.281,76.83 c -1.664,2.42 -5.039,9.43 -2.492,10.31 20.316,7.02 35.519,7.22 39.859,-14.45 3.055,-15.5 -7.543,-28.78 -22.348,-23.37 -4.261,1.56 -8.441,18.06 -15.019,27.51 z m -29.473,49.03 c -1.426,1.75 -2.578,7.14 -0.82,8.52 10.566,8.47 26.047,9.15 38.023,7.95 15.785,-1.45 19.059,-16.13 16.442,-28.33 -3.497,-16.02 -27.805,-18.03 -34.696,-15.33 -6.765,2.58 -11.511,17.94 -18.949,27.19 z m 3.441,56.99 c 13.664,8.85 39.762,15.44 44.118,-8.54 1.339,-7.25 -0.485,-16.86 -10.25,-19.98 -10,-3.24 -21.813,-6.7 -30.981,-2.96 -11.273,4.59 -13.512,24.62 -2.887,31.48 z m -14.164,40.37 c 1.028,4.58 6.098,6.78 10.403,7.87 11.078,2.75 23.425,6.85 33.593,0.39 3.954,-2.49 4.278,-6.02 4.79,-11.04 0.906,-8.04 -0.274,-14.65 -5.598,-17.73 -10.77,-6.32 -21.707,-6.88 -34.246,-4.42 -10.172,2 -10.957,15.48 -8.942,24.93 z m -11.328,-62.19 c -9.504,6.99 -13.656,16.88 -20.676,26.68 -1.652,2.41 0,3.39 1.317,3.78 16.785,4.76 29.277,-3.61 26.68,-21.97 -0.469,-3.54 -2.797,-11.83 -7.321,-8.49 z m -46.386,56.61 c -6.305,5.44 -1.918,14.9 3.558,17.67 9.625,4.78 24.723,5.48 34.699,2.11 6.418,-2.14 9.692,-11.38 8.532,-21.47 -0.481,-4.11 -1.735,-8.69 -3.758,-9.99 -7.629,-5.22 -19.399,-5.4 -28.66,-3.48 -6.536,1.36 -8.879,10.35 -14.371,15.16 z m -7.262,57.24 c 6.058,13.24 28.312,13.34 40.418,7.45 9.836,-4.85 11.054,-23.17 0.293,-30.41 -8.559,-5.73 -22.098,-3.65 -31.223,-1.95 -12.906,2.39 -13.934,15.11 -9.488,24.91 z m 0.496,49.57 c 9.226,8.79 21.16,4.77 32.289,3.24 2.133,-0.33 4.734,-1.83 6.195,-3.29 7.563,-7.63 8.149,-20.21 -0.289,-26.51 -9.75,-7.25 -21.922,-2.53 -33.644,-1.94 -3.141,0.11 -6.614,3.84 -7.367,6.24 -2.094,7.41 -3.387,16.45 2.816,22.26 z m 5.934,41.5 c 9.792,4.13 26.64,6 33.589,-5.01 4.219,-6.76 3.008,-19.2 -3.828,-21.04 -6.707,-1.74 -29.453,-5.49 -34.922,7.06 -2.683,6.21 -1.562,16.21 5.161,18.99 z m 30.171,35.3 c 2.848,-1.28 4.582,-3.56 5.27,-7.04 1.363,-7.53 -0.621,-15.74 -7.875,-17.08 -10.875,-1.98 -27.031,-2.59 -26.984,12.77 0.035,17.22 16.972,16.99 29.589,11.35 z m -21.921,31.9 c 5.8,2.22 15.304,1.69 20.527,-0.98 2.605,-1.38 6.16,-5.71 4.637,-10.23 -1.805,-5.92 -7.36,-8.09 -13.598,-8.16 -6.039,-0.05 -12.93,0.43 -15.367,5.34 -2.325,4.68 -1.34,12.07 3.801,14.03 z m 6.777,25.76 c 5.297,1.93 13.129,1.76 16.969,-2.39 5.277,-5.8 1.125,-15.01 -8.911,-14.55 -3.507,0.13 -7.668,1.37 -9.816,2.56 -5.148,2.91 -3.449,12.51 1.758,14.38 z m 23.777,16.59 c 0.703,2.2 4.18,4.85 6.012,5.47 3.965,1.43 8.594,1.68 12.402,0.17 7.625,-3.1 6.586,-12.49 -1.547,-15.8 -3.629,-1.48 -9.218,-2.43 -11.945,-1.48 -5.121,1.71 -6.547,6.14 -4.922,11.64 z m 23.703,-36.81 c -8.297,-2.42 -19.875,-2.9 -22.343,5.64 -4.172,14.39 14.023,16.58 23.445,13.56 6.555,-2.1 8.812,-16.33 -1.102,-19.2 z m 5.473,47.66 c 2.66,8.92 12.75,13.77 21.937,11.06 7.875,-2.31 9.711,-13.06 4.379,-18.3 -2.414,-2.36 -6.398,-4.75 -10.707,-5.7 -9.371,-2.08 -18.593,3.11 -15.609,12.94 z m 41.285,-32.79 c -1.484,-5.82 -5.777,-9.83 -12.629,-11.36 -6.808,-1.52 -16.199,-1.89 -19.988,2.27 -3.578,3.97 -5.27,9.61 -2.277,13.91 6.066,8.53 17.05,11.52 26.871,9.37 5.632,-1.33 9.73,-7.08 8.023,-14.19 z m -3.691,34.3 c 3.691,8.13 12.98,12.19 21.894,9.45 1.801,-0.56 5.449,-3.45 5.957,-6.25 1.063,-5.66 -0.902,-10.83 -5.578,-13.78 -6.074,-3.8 -11.043,-5.99 -17.965,-3.14 -5.222,2.15 -6.457,8.92 -4.308,13.72 z m 38.457,-22.8 c 4.051,-6.89 -2.129,-13.81 -5.293,-15.71 -6.969,-4.07 -16.817,-6.58 -21.047,0.34 -4.137,6.79 -0.688,14.83 6.488,17.81 6.891,2.87 14.051,7.22 19.852,-2.44 z m 11.601,-26.37 c 4.539,-3.73 8.535,-11.7 3.075,-17.93 -5.157,-5.95 -11.543,-7.68 -19.579,-9 -5.449,-0.93 -12.472,3.14 -13.312,7.92 -0.828,4.18 -1.609,11.72 2.535,15.25 7.996,6.84 18.754,10.79 27.281,3.76 z m 9.629,44.98 c 4.317,-1.23 7.09,-5.79 4.938,-10.18 -1.317,-2.72 -5.192,-5.66 -7.649,-7.16 -6.777,-4.2 -12.59,-2.47 -14.687,2.5 -3.903,9.16 9.219,17.26 17.398,14.84 z m 16.508,-22.76 c 4.763,-0.42 6.923,-3.74 7.863,-7.36 1.25,-4.86 -0.33,-9.36 -4.48,-12.14 -4.891,-3.27 -10.957,-5.19 -15.832,-5.26 -6.621,-0.1 -12.703,9.58 -9.149,15.88 3.801,6.69 13.293,9.58 21.598,8.88 z m 27.283,-34.92 c 2.83,-8.28 -3.27,-12.14 -9.67,-15.55 -6.48,-3.47 -15.21,-6.67 -19.715,-2.34 -5.773,5.43 -8.328,14.54 -1.906,20.59 8.901,8.36 25.401,14.65 31.291,-2.7 z m 11.77,-20.74 c 10.5,-1.34 12.56,-16.19 10.47,-21.57 -2.4,-4.65 -7.68,-8.25 -10.47,-9.67 -7.64,-3.95 -16.63,-5.44 -23.66,-1.82 -6.42,3.35 -9.22,13.1 -5.74,20.76 4.75,10.33 19.62,13.55 29.4,12.3 z m 21.52,-46.03 c 3.62,-5.04 2.81,-13.91 0.71,-16.7 -6.63,-8.99 -24.96,-14.17 -32.56,-10.45 -5.77,2.83 -11.41,15.52 -4.71,23.1 7.04,7.89 19.24,12.62 30.36,10.29 2.44,-0.54 4.06,-3.24 6.2,-6.24 z m 4.67,-28.41 c 5.01,-0.54 9.48,-6.05 11.92,-12.07 3.18,-7.8 -0.04,-16.91 -2.53,-18.61 -6,-4.1 -25.06,-15.55 -37.08,-8.68 -6.57,3.75 -8.41,12.41 -8.83,17.56 -1.34,16.47 23.75,23.23 36.52,21.8 z m -70.384,-118.05 c -2.609,6.53 -4.941,16.23 0.176,20.2 10.378,8.21 33.898,15.34 42.848,2.97 5.82,-8.03 4.08,-21.68 -6.11,-26.92 -10.47,-5.36 -31,-11.55 -36.914,3.75 z m -50.461,-0.75 c 10.469,5.31 25.5,11.7 36.739,4.46 5.109,-3.31 10.422,-16.97 6.797,-23.01 -7.692,-12.86 -27.985,-16.15 -40.84,-12.83 -11,2.86 -14.258,25.52 -2.696,31.38 z m -9.363,44.49 c 12.598,8.85 37.461,14.58 43.426,-4.79 1.543,-5 2.441,-10.53 -0.106,-14.61 -6.957,-11.18 -24.695,-14.16 -36.507,-12.47 -12.793,1.87 -18.84,23.43 -6.813,31.87 z m -10.578,45.1 c 12.07,6.86 37.852,15.94 43.934,-3.69 2.394,-8.01 2.175,-17.96 -4.7,-21.48 -9.839,-5.2 -25.445,-10.61 -36.839,-3.5 -9.457,5.99 -10.762,23.89 -2.395,28.67 z m 67.668,80.99 c -5.047,-4.51 -10.211,-5.48 -16.965,-7.73 -9.414,-3.22 -19.277,4.05 -20.351,13.05 -1.836,15.48 14.738,17.79 25.672,19.73 8.027,1.44 12.96,-5.75 14.437,-10.58 1.496,-4.62 1.27,-10.86 -2.793,-14.47 z m 20.328,-36.34 c -7.2,-10.72 -36.152,-17.47 -42.555,-6.43 -4.683,8.03 -7.589,19.4 1.188,24.81 9.223,5.63 20.121,9.02 30.847,7.09 10.1,-1.75 15.2,-18.34 10.52,-25.47 z m 15.41,-66.35 c 4.16,-6.54 7.04,-15.35 0.89,-23.5 -5.53,-7.45 -25.37,-10.92 -35.53,-8.47 -5.543,1.36 -8.149,8.13 -9.02,12.72 -1.176,6.14 -1.758,12.37 3.731,17.39 7.871,7.2 18.329,7.07 28.419,7.07 4.11,0 9.97,-2.72 11.51,-5.21 z m -5.71,22.29 c -6.19,-11.35 -27.118,-12.84 -36.508,-11.57 -6.653,0.9 -11.282,11.58 -11.11,20.51 0.059,4.57 1.496,7.66 4.676,9.32 10.418,5.63 21.117,9.34 32.352,7.57 10.93,-1.77 15.21,-17.27 10.59,-25.83 z m -110.106,24.42 c -7.086,21.89 20.25,28.78 36.172,25.4 11.117,-2.32 14.832,-23.68 4.461,-30.38 -12.77,-8.31 -35.43,-11.01 -40.633,4.98 z m -41.188,-53.73 c 8.141,8.43 22.969,8.95 34.473,7.41 7.109,-0.98 10.152,-8.16 11.133,-15.94 2.789,-21.34 -25.934,-24.96 -39.59,-19.98 -8.98,3.31 -13.676,20.61 -6.016,28.51 z m -5.793,41.43 c 8.532,10.04 22.887,12.44 34.731,9.16 7.25,-1.97 10.609,-10.41 10.402,-19.87 -0.121,-5.38 -3.801,-9.29 -7.101,-10.66 -8.473,-3.42 -18.176,-5.95 -27.371,-4.84 -11.375,1.4 -18.254,17.24 -10.661,26.21 z m 1.375,45.08 c 10.493,4.31 30.102,8.16 33.422,-6.89 4.453,-20.03 -19.148,-23.3 -31.793,-19.82 -9.675,2.68 -11.523,22.74 -1.629,26.71 z m 75.723,33.1 c 7.863,-4.5 9.492,-17.08 4.695,-24.38 -6.371,-9.69 -28.097,-15.32 -39.812,-6.82 -6.699,4.85 -10.274,24.69 3.406,29.47 10.914,3.84 21.426,7.57 31.711,1.73 z m -11.168,14.37 c -8.91,-5.51 -21.644,-7.73 -30.117,-3.01 -7.344,4 -7.031,14.73 -3.418,20.51 6.008,9.63 20.875,10.67 31.148,7.67 8.852,-2.61 12.188,-19.05 2.387,-25.17 z m -72.273,15.67 c 0.91,2.87 2.14,3.7 3.941,4.57 7.488,3.58 15.734,4.54 22.938,-0.11 5.179,-3.3 4.746,-11.06 0.898,-15.11 -5.648,-5.91 -17.051,-6.12 -24.367,-2.27 -4.746,2.45 -4.938,8.29 -3.41,12.92 z m 2.394,-31.34 c 3.321,9.46 15.153,8.94 24.094,7.8 11.043,-1.44 13.219,-15.57 9.301,-21.5 -5.407,-8.21 -17.735,-6.65 -27.555,-5.38 -8.027,1.02 -8.504,11.62 -5.84,19.08 z m 155.486,-285.2 c 2.74,-10.71 0,-20.91 -9.5,-24.31 -12.244,-4.33 -28.814,-10.66 -38.603,-4.04 -11.199,7.49 -16.59,28.81 -3.742,37.16 15.187,9.92 45.435,16.47 51.845,-8.81 z m -16.521,33.3 c -8.184,-9.35 -21.644,-9.02 -34.828,-12.89 -5.074,-1.48 -11.149,3 -13.773,7.63 -4.876,8.72 -9.758,20.39 -0.426,28.79 7.75,7.07 18.265,6.49 27.769,9.27 4.258,1.3 9.434,2.78 14.617,-0.69 10.682,-7.3 14.812,-22.92 6.641,-32.11 z m 87.321,140.14 c 2.33,-6.8 5.43,-11.79 2.81,-18.58 -3.12,-8.32 -11.22,-9.44 -18.78,-12.2 -7.08,-2.55 -18.87,-5.81 -24.78,0.4 -6.81,7.02 -9.58,21.41 -1.41,27.53 10.51,7.85 36.6,18.73 42.16,2.85 z m 143.32,61.17 c 6.22,25.39 13.93,51.15 15.87,77.98 2.85,40.07 -5.81,81.71 -31.47,112.11 2.51,-13.1 5.87,-24.18 7.6,-37.91 2.12,-16.59 -0.23,-35.07 -4.52,-51.76 -3.26,-12.65 -8.92,-24.93 -14.59,-36.67 -6.65,-13.94 -16.64,-29.07 -26.54,-41.45 -27.81,-34.6 -71.15,-102.08 -71.15,-102.08 0,0 -3.62,0.29 -5.8,0.29 -0.51,8.4 19.45,37.21 29.54,53.34 22.08,35.33 38.8,54.35 58.05,85.02 12,19.34 21.2,42.85 24.15,64.13 5.98,43.44 -17.44,95.51 -51.07,112.8 7.67,-32.42 6.9,-78.16 -10.41,-97.37 -32.69,-36.45 -52.11,-63.72 -75.42,-110.4 -0.71,-1.27 -6.16,6.31 -10.65,9.24 -5.05,3.36 -2.26,13.35 -4.03,20.11 -1.68,5.74 -4.35,10.15 -5.17,11.15 -6.9,8.45 -13.59,8.98 -15.04,11.5 -1.65,2.86 -0.84,10.03 -6.89,18.13 -3,4.12 -10.69,7.14 -13.78,11 -3.38,4.21 -4.91,17.05 -14.21,22.32 -4.42,2.48 -6.466,10.2 -10.72,13.95 -13.102,11.6 -26.176,9.34 -28.672,10.09 -3.375,0.92 -9.918,9.28 -21.621,11.28 -11.461,1.95 -17.711,-5.7 -23.688,-2.92 -14.871,6.88 -29.121,7.44 -44.984,-10.19 -4.719,-5.26 -12.93,-0.33 -23.18,-8.2 -9.031,-6.85 -9.176,-13.19 -13.742,-14.02 -8.629,-1.65 -15.039,-8.53 -18.371,-16.03 -1.719,-3.87 -3.008,-11.69 -4.008,-16.89 -1.422,-7.09 -5.019,-13.69 -5.117,-18.94 -0.078,-7.23 2.238,-11.17 1.609,-14.43 -1.101,-4.74 -4.879,-9.06 -5.344,-13.47 -0.363,-2.49 -0.57,-9.12 1.235,-12.89 2.305,-4.64 -1.598,-8.65 -3.613,-13.57 -1.934,-4.56 -3.965,-12.4 -3.356,-17.96 0.828,-7.56 5.164,-10.36 1.801,-16.33 -5.57,-9.71 -12.547,-24.88 -0.285,-44.27 2.269,-3.52 -5.141,-10.41 -5.539,-20.53 -0.465,-10.98 6.136,-19.12 7.972,-24 0.352,-1.77 -2.922,-1.63 -3.027,-3.51 -29.23,30.88 -55.078,59.36 -88.945,86.19 -20.731,16.38 -41.203,30.14 -64.149,42.41 -61.265,32.91 -132.476,54.89 -196.972,46.83 24.304,-19.55 54.918,-33.53 79.894,-55.71 23.637,-21.06 45.09,-39.05 66.617,-61.43 33.785,-35.1 61.231,-70.71 89.867,-111.98 8.473,-12.23 14.098,-20.43 22.008,-33.18 7.961,-12.75 16.856,-26.32 24.102,-38.97 36.601,-63.57 66.633,-122.45 96.984,-187.57 8.406,-18.02 15.516,-36.9 23.782,-54.76 2.179,-4.86 5.378,-1.28 7.574,0 11.011,6.35 22.687,11.66 34.066,17.03 9.117,4.15 17.402,7.03 25.496,10.2 20.535,7.82 40.031,12.03 61.547,16.49 35.939,7.55 100.449,6.02 100.449,6.02 l 122.38,0.04 c 0.75,0 1.59,0 3.28,0 -1.24,35.07 -9.56,69.09 -11.58,104.27 -1.6,28.53 -0.65,56.05 0.36,84.63 2.75,77.33 14.11,160.37 31.42,230.84" /><path
             id="path54"
             style="fill:#ffffff;fill-opacity:1;fill-rule:nonzero;stroke:none"
             d="m 395.156,2295.11 c -23.883,-23.82 -31.023,-32.59 -44.918,-58.9 -8.207,-15.44 -18.617,-35.32 -21.609,-60.94 49.07,18.71 89.098,56.82 125.254,98.89 26.765,31.21 47.488,72.63 73.871,103.44 -46.465,-15.59 -95.473,-45.51 -132.598,-82.49" /><path
             id="path56"
             style="fill:#ffffff;fill-opacity:1;fill-rule:nonzero;stroke:none"
             d="m 254.703,2228.2 c 18.5,31.25 44.977,65.01 72.426,88.04 -12.719,-28.54 -28.379,-56.85 -33.762,-90.69 -10.687,-67.23 -20.722,-114.37 -31.887,-175.78 30.477,21.78 62.661,55.97 95.04,79.84 25,18.34 50.035,30.65 75.761,48.3 15.258,10.52 25.199,24.07 37.91,36.76 -15.14,-63.86 -71.125,-128.29 -111.246,-158.3 -50.414,-37.77 -68.476,-43.83 -149.457,-126.16 -10.273,101.68 -8.437,207.33 45.215,297.99" /><path
             id="path58"
             style="fill:#ffffff;fill-opacity:1;fill-rule:nonzero;stroke:none"
             d="m 89.5312,1890.52 c 3.7305,52.79 10.0743,95.04 22.9338,146.51 8.961,35.99 28.34,89.55 56.234,111.51 -3.418,-13.06 -5.23,-32.61 -6.527,-45.81 -5.496,-54.42 4.953,-117.58 6.164,-171.9 0.605,-26.73 0.398,-47.32 -3.59,-72.45 -4.176,-26.27 -0.723,-58.61 -0.723,-58.61 0,0 14.45,16.49 27.309,37 28.164,44.73 37.152,57.99 59.859,82.22 28.106,30.03 59.594,57.86 95.137,82.47 -4.297,-16.68 -22.433,-49.13 -29.957,-62.18 -9.98,-17.47 -14.508,-33.31 -38.207,-72.85 -33.297,-55.56 -48.168,-63.04 -85.117,-122.46 -8.043,-12.89 -40.863,-62.06 -48.809,-77.08 -17.351,35.88 -23.871,67.21 -45.156,125.55 -13.3281,36.72 -11.3398,73.4 -9.5508,98.08" /><path
             id="path60"
             style="fill:#ffffff;fill-opacity:1;fill-rule:nonzero;stroke:none"
             d="m 38.0664,1615.88 c -20.0781,52.05 -29.29687,100.36 -36.07031,155.23 -4.16406,33.51 -2.230465,78.25 9.71871,110.5 3.168,-7.86 9.5664,-27.86 10.4493,-30.85 8.8945,-30 12.6406,-44.36 25.0625,-73.24 9.5507,-22.21 21.1757,-39.86 33.6328,-61.77 11.3164,-20 20.9026,-46.32 29.1056,-66.45 26.367,-64.54 28.32,-124.99 38.379,-131.57 7.265,15.56 9.562,30.41 10.34,37.73 7.832,71.43 17.285,136.36 107.246,220.6 8.258,-25.1 4.05,-71.28 -0.903,-96.05 -10.75,-54.13 -19.457,-80.1 -43.242,-132.52 -12.609,-27.64 -29.461,-68.27 -34.047,-81.74 -12.097,-35.02 -16.211,-53.42 -23.832,-74.14 -42.48,70.72 -94.7537,143.82 -125.8396,224.27" /><path
             id="path62"
             style="fill:#ffffff;fill-opacity:1;fill-rule:nonzero;stroke:none"
             d="m 108.125,1290.29 c -30.2422,42.09 -41.293,63.28 -60.957,108.11 -16.5313,37.54 -21.3086,51.49 -30.9414,93.57 -5.293,22.95 -8.27738,43.79 -4.1914,57.32 23.6836,-42.82 39.8593,-90.84 70.8086,-126.34 24.5742,-28.22 48.2772,-52.3 67.8322,-76.06 29.961,-36.65 53.617,-71.22 82.394,-109.3 2.426,19.12 3.368,38.39 -0.929,69.66 -5.852,42.88 -2.27,78.01 5.238,119.56 9.48,52.6 16.426,78.7 34.726,131.95 22.309,-43.84 22.219,-94.55 27.868,-141.07 10.812,-90.16 -17.414,-197.71 -22.942,-242.55 -1.484,-11.81 0.551,-40.98 1.133,-52.38 -42.172,33.24 -79.723,66.87 -116.148,103.32 -16.586,16.56 -39.305,43.96 -53.891,64.21" /><path
             id="path64"
             style="fill:#ffffff;fill-opacity:1;fill-rule:nonzero;stroke:none"
             d="m 268.082,959.48 c -19.203,13.821 -70.852,53.35 -95.289,84.42 -35.605,45.18 -43.441,64.58 -66.926,116.55 -2.879,6.29 -16.1561,35.82 -17.2225,55.76 76.9295,-92.89 145.8355,-106.7 219.2265,-183.8 26.918,-28.26 54.531,-54.82 69.043,-68.191 11.188,-10.231 25.09,-13.43 25.09,-13.43 0,0 -1.453,19.879 -8.707,33.66 -48.957,93.611 -58.195,191.441 -50.781,296.391 22.363,-27.64 29.386,-46.12 43.574,-72.83 15.453,-29.17 23.308,-47.26 30.535,-65.16 41.855,-104.3 52.793,-224.729 78.684,-285.35 -79.934,26.871 -142.868,41.281 -227.227,101.98" /><path
             id="path66"
             style="fill:#ffffff;fill-opacity:1;fill-rule:nonzero;stroke:none"
             d="m 595.844,713.391 c -21.66,-1.411 -64.004,-1.289 -86.621,2.41 -114.383,18.23 -220.731,101.14 -274.184,192.289 48.477,-29.66 83.551,-49.391 126.184,-64.141 37.992,-13.199 74.031,-17.078 137.449,-35.039 38.238,-10.789 76.137,-26.16 89.437,-31.129 42.426,-15.769 60.258,-11.883 60.258,-11.883 0,0 0,6.481 -15.824,23.692 -31.59,34.539 -43.164,42.73 -69.141,69.211 -8.504,8.758 -28.05,38.527 -37.988,58.269 -28.066,55.871 -31.168,100.68 -56.824,162.08 93.574,-55.03 139.129,-130.752 188.574,-226.349 15.203,-29.262 35.809,-63.121 54.582,-81.699 12.645,-12.391 30.426,-31.403 30.426,-31.403 0,0 -13.008,-3.058 -53.633,-9.051 -18.242,-2.679 -57.047,-14.738 -92.695,-17.257" /><path
             id="path68"
             style="fill:#ffffff;fill-opacity:1;fill-rule:nonzero;stroke:none"
             d="m 1049.28,706.172 c 49.45,-8.031 93.28,-20.113 138.21,-35.551 12.09,-4.133 30.47,-13.23 43.19,-19.699 31.83,-16.152 50.15,-26.692 77.52,-45.481 44.07,-30.332 91.4,-63.089 134.1,-112.722 0.92,-0.981 7.82,-8.321 3.23,-11.949 -8.35,-6.579 -29.02,-15.872 -35.87,-9.829 -39.09,34.797 -37.12,45.887 -84.48,88.778 -12.12,10.922 -30.46,26.312 -52.38,41.269 -21.4,14.621 -47.23,30.551 -71.23,42.5 -21.79,10.731 -55.4,13.903 -74.29,13.903 l 0.29,-0.11 c -8.6,0.297 -57.87,0.539 -69.25,-0.121 -96.812,-6.66 -92.093,-15.332 -147.898,-30.512 -45.91,-12.398 -95.168,-21.289 -144.055,-27.886 -50.113,-6.801 -94.902,-7.633 -141.887,-2.832 -63.625,6.582 -133.265,24.3 -185.222,57.761 47.504,-0.812 96.293,-9.921 143.57,-6.261 19.906,1.492 52.168,4.468 74.031,11.211 43.411,13.371 68.317,18.55 114.309,31.347 39.516,11.071 79.316,14.782 120.609,19.184 57.106,6.09 109.983,4.75 157.503,-3" /><path
             id="path70"
             style="fill:#ffffff;fill-opacity:1;fill-rule:nonzero;stroke:none"
             d="m 1934.5,2295.11 c 23.89,-23.82 31.06,-32.59 44.95,-58.9 8.21,-15.44 18.61,-35.32 21.62,-60.94 -49.11,18.71 -89.1,56.82 -125.29,98.89 -26.77,31.21 -47.46,72.63 -73.85,103.44 46.46,-15.59 95.47,-45.51 132.57,-82.49" /><path
             id="path72"
             style="fill:#ffffff;fill-opacity:1;fill-rule:nonzero;stroke:none"
             d="m 2074.99,2228.2 c -18.53,31.25 -44.99,65.01 -72.42,88.04 12.82,-30.75 31.52,-69.02 33.74,-90.69 6.83,-67.7 20.72,-114.37 31.9,-175.78 -30.47,21.78 -62.69,55.97 -95.08,79.84 -24.94,18.34 -50,30.65 -75.69,48.3 -15.3,10.52 -25.23,24.07 -37.94,36.76 15.14,-63.86 71.12,-128.29 111.27,-158.3 50.38,-37.77 68.44,-43.83 149.33,-126.16 10.29,101.68 8.5,207.33 -45.11,297.99" /><path
             id="path74"
             style="fill:#ffffff;fill-opacity:1;fill-rule:nonzero;stroke:none"
             d="m 2240.15,1890.52 c -3.8,52.79 -10.04,95.04 -22.93,146.51 -8.96,35.99 -28.34,89.55 -56.27,111.51 3.45,-13.06 5.24,-32.61 6.55,-45.81 5.54,-54.42 -4.9,-117.58 -6.15,-171.9 -0.6,-26.73 -0.4,-47.32 3.57,-72.45 4.17,-26.27 0.74,-58.61 0.74,-58.61 0,0 -14.44,16.49 -27.33,37 -28.11,44.73 -37.11,57.99 -59.87,82.22 -28.08,30.03 -59.59,57.86 -95.14,82.47 4.34,-16.68 22.46,-49.13 30,-62.18 10.01,-17.47 14.48,-33.31 38.2,-72.85 33.29,-55.56 48.18,-63.04 85.08,-122.46 8.04,-12.89 40.92,-62.06 48.84,-77.08 17.38,35.88 23.88,67.21 45.17,125.55 13.35,36.72 11.36,73.4 9.54,98.08" /><path
             id="path76"
             style="fill:#ffffff;fill-opacity:1;fill-rule:nonzero;stroke:none"
             d="m 2291.61,1615.88 c 20.08,52.05 29.26,100.36 36.11,155.23 4.15,33.51 2.18,78.25 -9.73,110.5 -3.18,-7.86 -9.57,-27.86 -10.46,-30.85 -8.92,-30 -12.64,-44.36 -25.04,-73.24 -9.56,-22.21 -21.27,-39.86 -33.66,-61.77 -11.33,-20 -20.9,-46.32 -29.15,-66.45 -26.34,-64.54 -28.29,-124.99 -38.34,-131.57 -7.3,15.56 -9.57,30.41 -10.33,37.73 -7.86,71.43 -17.29,136.36 -107.25,220.6 -8.29,-25.1 -4.06,-71.28 0.86,-96.05 10.8,-54.13 19.53,-80.1 43.28,-132.52 12.61,-27.64 29.46,-68.27 34.08,-81.74 12.02,-35.02 16.15,-53.42 23.83,-74.14 42.45,70.72 94.73,143.82 125.8,224.27" /><path
             id="path78"
             style="fill:#ffffff;fill-opacity:1;fill-rule:nonzero;stroke:none"
             d="m 2221.56,1290.29 c 30.28,42.09 41.29,63.28 60.95,108.11 16.54,37.54 21.29,51.49 30.96,93.57 5.29,22.95 8.26,43.79 4.17,57.32 -23.6,-42.82 -39.88,-90.84 -70.83,-126.34 -24.54,-28.22 -48.25,-52.3 -67.8,-76.06 -29.93,-36.65 -53.64,-71.22 -82.39,-109.3 -2.41,19.12 -3.39,38.39 0.89,69.66 5.88,42.88 2.3,78.01 -5.21,119.56 -9.48,52.6 -16.42,78.7 -34.71,131.95 -22.28,-43.84 -22.23,-94.55 -27.88,-141.07 -10.84,-90.16 17.46,-197.71 22.98,-242.55 1.45,-11.81 -0.59,-40.98 -1.17,-52.38 42.18,33.24 79.73,66.87 116.15,103.32 16.59,16.56 39.27,43.96 53.89,64.21" /><path
             id="path80"
             style="fill:#ffffff;fill-opacity:1;fill-rule:nonzero;stroke:none"
             d="m 2061.63,959.48 c 19.18,13.821 70.83,53.35 95.26,84.42 35.6,45.18 43.45,64.58 66.93,116.55 2.84,6.29 16.16,35.82 17.23,55.76 -76.92,-92.89 -145.85,-106.7 -219.24,-183.8 -26.91,-28.26 -54.51,-54.82 -69.02,-68.191 -11.18,-10.231 -25.09,-13.43 -25.09,-13.43 0,0 1.44,19.879 8.67,33.66 48.97,93.611 58.22,191.441 50.77,296.391 -22.3,-27.64 -29.37,-46.12 -43.54,-72.83 -15.43,-29.17 -23.31,-47.26 -30.5,-65.16 -41.89,-104.3 -52.88,-224.729 -78.75,-285.35 79.99,26.871 142.9,41.281 227.28,101.98" /><path
             id="path82"
             style="fill:#ffffff;fill-opacity:1;fill-rule:nonzero;stroke:none"
             d="m 1733.84,713.391 c 21.69,-1.411 64,-1.289 86.66,2.41 114.37,18.23 220.69,101.14 274.15,192.289 -48.52,-29.66 -83.59,-49.391 -126.19,-64.141 -38.02,-13.199 -74.03,-17.078 -137.42,-35.039 -38.27,-10.789 -76.17,-26.16 -89.47,-31.129 -42.42,-15.769 -60.26,-11.883 -60.26,-11.883 0,0 0,6.481 15.82,23.692 31.61,34.539 43.2,42.73 69.12,69.211 8.54,8.758 28.08,38.527 38.01,58.269 28.07,55.871 31.17,100.68 56.87,162.08 -93.58,-55.03 -139.22,-130.752 -188.64,-226.349 -15.2,-29.262 -35.78,-63.121 -54.53,-81.699 -12.63,-12.391 -30.45,-31.403 -30.45,-31.403 0,0 13.01,-3.058 53.7,-9.051 18.18,-2.679 56.96,-14.738 92.63,-17.257" /><path
             id="path84"
             style="fill:#ffffff;fill-opacity:1;fill-rule:nonzero;stroke:none"
             d="m 1280.4,706.172 c -49.43,-8.031 -93.24,-20.113 -138.19,-35.551 -12.13,-4.133 -30.49,-13.23 -43.21,-19.699 -31.82,-16.152 -50.08,-26.692 -77.52,-45.481 -44.085,-30.332 -91.375,-63.089 -134.085,-112.722 -0.93,-0.981 -7.86,-8.321 -3.247,-11.949 8.375,-6.579 29.059,-15.872 35.825,-9.829 39.125,34.797 37.121,45.887 84.547,88.778 12.05,10.922 30.41,26.312 52.37,41.269 21.43,14.621 47.19,30.551 71.23,42.5 21.74,10.731 55.42,13.903 74.28,13.903 l -0.3,-0.11 c 8.61,0.297 57.86,0.539 69.27,-0.121 96.85,-6.66 92.09,-15.332 147.86,-30.512 45.94,-12.398 95.2,-21.289 144.09,-27.886 50.08,-6.801 94.93,-7.633 141.88,-2.832 63.64,6.582 133.24,24.3 185.2,57.761 -47.48,-0.812 -96.24,-9.921 -143.57,-6.261 -19.91,1.492 -52.14,4.468 -74.01,11.211 -43.43,13.371 -68.35,18.55 -114.29,31.347 -39.53,11.071 -79.34,14.782 -120.6,19.184 -57.12,6.09 -110,4.75 -157.53,-3" /><path
             id="path86"
             style="fill:#ffffff;fill-opacity:1;fill-rule:nonzero;stroke:none"
             d="m 1103.66,2834.6 -86.96,-322.9 h -92.313 l -57.766,210.33 -56.422,-210.33 h -92.101 l -86.95,322.9 h 86.911 l 49.503,-222.26 59.59,222.26 h 83.09 l 56.492,-222.26 52.026,222.26 h 84.9" /><path
             id="path88"
             style="fill:#ffffff;fill-opacity:1;fill-rule:nonzero;stroke:none"
             d="m 1390.51,2772.14 h -148.53 v -60.06 h 137.69 v -62.46 H 1241.98 V 2511.7 h -82.85 v 322.9 h 231.38 v -62.46" /><path
             id="path90"
             style="fill:#ffffff;fill-opacity:1;fill-rule:nonzero;stroke:none"
             d="m 1628.37,2730.8 c 0,9.11 -2.46,16.93 -7.36,23.47 -4.91,6.6 -10.61,11.16 -17.13,13.74 -8.68,3.51 -17.12,5.37 -25.37,5.74 -8.25,0.37 -19.21,0.54 -32.93,0.54 h -14.35 v -96.47 h 23.86 c 14.16,0 25.84,0.83 35.04,2.59 9.18,1.7 16.88,5.21 23.07,10.37 5.35,4.64 9.22,10.14 11.61,16.56 2.39,6.41 3.56,14.23 3.56,23.46 z m 86.13,1.86 c 0,-14.46 -2.58,-28.59 -7.62,-42.39 -5.04,-13.79 -12.27,-25.41 -21.66,-34.79 -12.9,-12.72 -27.23,-22.35 -43.04,-28.84 -15.85,-6.48 -35.53,-9.75 -59.08,-9.75 h -51.87 V 2511.7 h -83.24 v 322.9 h 137.06 c 20.52,0 37.81,-1.79 51.91,-5.32 14.1,-3.58 26.55,-8.85 37.38,-15.96 13.03,-8.5 22.98,-19.45 29.86,-32.74 6.86,-13.28 10.3,-29.27 10.3,-47.92" /><path
             id="path92"
             style="fill:#ffffff;fill-opacity:1;fill-rule:nonzero;stroke:none"
             d="M 498.699,257.871 440.648,70.5391 H 376.879 L 338.715,196.77 301.023,70.5391 H 236.637 L 179.082,257.871 h 62.988 l 32.164,-129.07 39.977,129.07 h 53.207 l 38.008,-129.07 31.601,129.07 h 61.672" /><path
             id="path94"
             style="fill:#ffffff;fill-opacity:1;fill-rule:nonzero;stroke:none"
             d="m 649.148,286.07 h -4.476 c -2.692,0.711 -6.149,1.61 -10.43,2.602 -4.23,1 -8.836,1.547 -13.719,1.547 -11.75,0 -19.695,-2.09 -23.878,-6.391 -4.129,-4.199 -6.192,-12.328 -6.192,-24.5 v -1.457 h 46.168 v -40.73 H 592.445 V 70.5391 h -60.25 V 217.141 h -25.656 v 40.73 h 25.656 v 5.141 c 0,22.859 6.121,40.078 18.297,51.566 12.18,11.481 30.586,17.121 55.289,17.121 8.875,0 16.961,-0.269 24.199,-0.929 7.188,-0.551 13.598,-1.372 19.168,-2.36 v -42.34" /><path
             id="path96"
             style="fill:#ffffff;fill-opacity:1;fill-rule:nonzero;stroke:none"
             d="m 788.512,165.5 c 0,18.238 -3.09,31.398 -9.317,39.68 -6.222,8.172 -16.047,12.261 -29.437,12.261 -5.688,0 -11.516,-0.882 -17.488,-2.519 -5.977,-1.754 -11.704,-4.262 -17.133,-7.453 v -94.051 c 3.98,-1.609 8.265,-2.609 12.801,-2.996 4.582,-0.5 9.066,-0.703 13.503,-0.703 15.829,0 27.68,4.672 35.411,13.871 7.773,9.332 11.66,23.262 11.66,41.91 z m 61.894,1.23 c 0,-15.371 -2.375,-29.5 -7.078,-42.179 -4.711,-12.692 -10.926,-23.063 -18.598,-31.3518 -7.976,-8.6875 -17.003,-15.168 -27.125,-19.6601 -10.121,-4.5 -20.941,-6.6993 -32.511,-6.6993 -10.629,0 -19.699,1.129 -27.125,3.4805 -7.449,2.2383 -15.055,5.3985 -22.832,9.4883 V 1.85938 H 654.938 V 257.871 h 60.199 v -19.512 c 9.215,7.282 18.617,13.219 28.238,17.813 9.605,4.598 20.672,6.84 33.242,6.84 23.324,0 41.457,-8.582 54.363,-25.653 12.969,-17.179 19.426,-40.687 19.426,-70.629" /><path
             id="path98"
             style="fill:#ffffff;fill-opacity:1;fill-rule:nonzero;stroke:none"
             d="m 878.848,70.5391 h 62.4023 v 65.5312 H 878.848 Z" /><path
             id="path100"
             style="fill:#ffffff;fill-opacity:1;fill-rule:nonzero;stroke:none"
             d="m 1100.65,118.559 c 3.9,4.793 6.82,10.55 8.77,17.293 1.9,6.75 2.87,16 2.87,27.878 0,11.079 -0.99,20.25 -2.99,27.75 -2,7.391 -4.75,13.329 -8.33,17.829 -3.54,4.589 -7.84,7.769 -12.83,9.671 -4.99,1.899 -10.38,2.86 -16.17,2.86 -5.79,0 -10.96,-0.809 -15.45,-2.399 -4.49,-1.5 -8.81,-4.601 -12.9,-9.293 -3.7,-4.386 -6.62,-10.328 -8.76,-17.808 -2.2,-7.59 -3.27,-17.129 -3.27,-28.61 0,-10.179 0.94,-19.039 2.84,-26.589 1.9,-7.532 4.67,-13.551 8.33,-18.039 3.55,-4.391 7.82,-7.532 12.76,-9.532 4.94,-1.992 10.61,-2.992 16.95,-2.992 5.44,0 10.66,0.922 15.6,2.781 4.94,1.731 9.1,4.911 12.58,9.2 z m 73.9,45.57 c 0,-30.848 -9.02,-55.141 -26.93,-72.8478 -17.97,-17.7226 -43.21,-26.582 -75.65,-26.582 -32.5,0 -57.67,8.8594 -75.646,26.582 -17.972,17.7068 -26.929,41.9998 -26.929,72.8478 0,30.949 9.003,55.312 27.074,73.082 18.071,17.668 43.251,26.508 75.501,26.508 32.7,0 57.96,-8.891 75.79,-26.77 17.87,-17.769 26.79,-42.07 26.79,-72.82" /><path
             id="path102"
             style="fill:#ffffff;fill-opacity:1;fill-rule:nonzero;stroke:none"
             d="m 1336.27,200.621 h -5.33 c -2.55,0.891 -6.63,1.598 -12.31,1.988 -5.68,0.512 -10.36,0.711 -14.15,0.711 -8.54,0 -16.09,-0.601 -22.61,-1.711 -6.58,-1.089 -13.6,-2.988 -21.17,-5.679 V 70.5391 h -60.21 V 257.871 h 60.21 v -27.492 c 13.2,11.269 24.7,18.832 34.47,22.582 9.76,3.75 18.73,5.519 26.94,5.519 2.1,0 4.49,-0.05 7.19,-0.152 2.63,-0.117 4.98,-0.258 6.97,-0.457 v -57.25" /><path
             id="path104"
             style="fill:#ffffff;fill-opacity:1;fill-rule:nonzero;stroke:none"
             d="m 1475.12,129.539 v 84.91 c -3.44,1.492 -7.62,2.61 -12.6,3.461 -5.03,0.86 -9.52,1.219 -13.51,1.219 -15.74,0 -27.56,-4.559 -35.47,-13.598 -7.86,-9.031 -11.79,-21.679 -11.79,-37.953 0,-17.969 3.35,-30.558 10.08,-37.637 6.71,-7.203 16.66,-10.679 29.86,-10.679 5.98,0 11.86,0.949 17.64,2.84 5.77,1.886 11.06,4.339 15.79,7.437 z m 60.25,-37.4999 c 0,-17.5586 -2.5,-32.3282 -7.54,-44.3203 -4.99,-12.0782 -11.98,-21.3985 -21.02,-28.1876 C 1497.83,12.6406 1486.98,7.57812 1474.25,4.51172 1461.5,1.46875 1447.11,0 1431.09,0 c -12.97,0 -25.83,0.699219 -38.41,2.30859 -12.63,1.58985 -23.58,3.49219 -32.82,5.67969 V 54.8594 h 7.33 c 7.33,-2.8985 16.3,-5.5586 26.82,-7.9102 10.57,-2.4492 19.99,-3.6211 28.32,-3.6211 11.11,0 20.17,1.0313 27.09,3.0703 6.93,2.0625 12.24,4.9727 15.87,8.7735 3.45,3.5898 5.97,8.1797 7.53,13.6562 1.55,5.6016 2.3,12.293 2.3,20.0821 v 3.4296 c -7.18,-5.8789 -15.21,-10.5703 -23.99,-13.9609 -8.77,-3.5078 -18.54,-5.1406 -29.31,-5.1406 -26.18,0 -46.42,7.8828 -60.63,23.6523 -14.22,15.7814 -21.34,39.8394 -21.34,72.0784 0,15.472 2.19,28.75 6.53,40.031 4.34,11.18 10.42,20.961 18.3,29.359 7.33,7.782 16.37,13.821 27.1,18.11 10.72,4.402 21.66,6.543 32.88,6.543 10.12,0 19.32,-1.16 27.6,-3.614 8.26,-2.359 15.78,-5.628 22.56,-9.91 l 2.15,8.383 h 58.4 V 92.0391" /><path
             id="path106"
             style="fill:#ffffff;fill-opacity:1;fill-rule:nonzero;stroke:none"
             d="M 1750.65,330.109 1618.36,16.5312 h -51.2 l 131.75,313.5778 h 51.74" /><path
             id="path108"
             style="fill:#ffffff;fill-opacity:1;fill-rule:nonzero;stroke:none"
             d="m 1918.21,188.352 c -0.35,12.468 -3.44,21.949 -9.33,28.347 -5.89,6.281 -15.08,9.422 -27.56,9.422 -11.53,0 -21.07,-2.992 -28.5,-8.98 -7.43,-6 -11.63,-15.629 -12.54,-28.789 z m 59.7,-35.301 h -137.42 c 0.88,-14.672 6.46,-25.852 16.75,-33.653 10.28,-7.789 25.43,-11.679 45.45,-11.679 12.67,0 24.95,2.25 36.89,6.84 11.88,4.589 21.25,9.48 28.14,14.679 h 6.69 V 81.0586 c -13.58,-5.4805 -26.35,-9.4297 -38.38,-11.8086 -11.98,-2.5117 -25.26,-3.6992 -39.83,-3.6992 -37.59,0 -66.39,8.3789 -86.41,25.3476 -20.01,16.8716 -30.05,40.9926 -30.05,72.2426 0,30.828 9.51,55.328 28.48,73.437 18.91,18.024 44.95,27.141 77.94,27.141 30.51,0 53.42,-7.719 68.74,-23.141 15.32,-15.43 23.01,-37.508 23.01,-66.469 v -21.058" /><path
             id="path110"
             style="fill:#ffffff;fill-opacity:1;fill-rule:nonzero;stroke:none"
             d="m 2165.99,129.941 c 0,-19.371 -8.64,-34.9722 -26.01,-46.8004 -17.34,-11.8203 -41.08,-17.7422 -71.23,-17.7422 -16.68,0 -31.8,1.4922 -45.38,4.5821 -13.54,3.2109 -24.46,6.5898 -32.7,10.3906 v 49.4299 h 5.55 c 2.99,-2.211 6.46,-4.481 10.41,-7.031 3.94,-2.442 9.51,-5.161 16.74,-8.059 6.24,-2.481 13.3,-4.77 21.22,-6.602 7.88,-1.75 16.32,-2.668 25.36,-2.668 11.78,0 20.51,1.258 26.14,3.918 5.7,2.532 8.55,6.391 8.55,11.5 0,4.582 -1.71,7.961 -5.05,10 -3.3,2.051 -9.63,4.012 -19.01,5.922 -4.45,0.989 -10.46,2.071 -18.1,3.207 -7.59,1.16 -14.5,2.633 -20.74,4.231 -17.02,4.48 -29.65,11.402 -37.89,20.84 -8.23,9.332 -12.32,21.031 -12.32,35.113 0,17.969 8.56,32.918 25.58,44.949 17.06,11.918 40.4,17.891 70.01,17.891 13.97,0 27.42,-1.364 40.25,-4.211 12.89,-2.852 22.89,-5.871 30.13,-9.16 V 202.32 h -5.19 c -8.89,6.078 -19.04,11.059 -30.43,14.891 -11.38,3.848 -22.93,5.769 -34.61,5.769 -9.69,0 -17.8,-1.289 -24.44,-4 -6.59,-2.691 -9.91,-6.48 -9.91,-11.371 0,-4.398 1.5,-7.828 4.49,-10.129 3,-2.402 10.09,-4.71 21.16,-6.992 6.15,-1.308 12.71,-2.476 19.8,-3.617 7.04,-1.152 14.15,-2.672 21.23,-4.359 15.83,-4.203 27.51,-10.621 35.05,-19.453 7.6,-8.84 11.34,-19.95 11.34,-33.118" /><path
             id="path112"
             style="fill:#ffffff;fill-opacity:1;fill-rule:nonzero;stroke:none"
             d="m 2832.73,1474.29 c 0,12.49 -3.39,23.25 -10.17,32.31 -6.77,9.01 -14.63,15.33 -23.57,18.93 -11.97,4.73 -23.63,7.4 -34.96,7.89 -11.33,0.5 -26.47,0.72 -45.4,0.72 h -19.68 v -132.8 h 32.83 c 19.51,0 35.59,1.16 48.23,3.5 12.66,2.44 23.22,7.23 31.81,14.34 7.35,6.28 12.69,13.92 15.99,22.74 3.26,8.89 4.92,19.66 4.92,32.37 z m 118.56,2.55 c 0,-19.92 -3.53,-39.34 -10.48,-58.41 -6.96,-18.95 -16.89,-35 -29.86,-47.91 -17.7,-17.52 -37.49,-30.7 -59.25,-39.75 -21.82,-8.93 -48.95,-13.36 -81.39,-13.36 h -71.36 v -144.9 h -114.69 v 444.63 h 188.7 c 28.28,0 52.13,-2.44 71.56,-7.32 19.42,-4.88 36.58,-12.2 51.48,-21.94 17.94,-11.76 31.62,-26.74 41.09,-45.07 9.45,-18.29 14.2,-40.31 14.2,-65.97" /><path
             id="path114"
             style="fill:#ffffff;fill-opacity:1;fill-rule:nonzero;stroke:none"
             d="m 3260.44,1405.48 h -9.55 c -4.56,1.62 -11.91,2.81 -22.05,3.63 -10.14,0.7 -18.57,1.16 -25.33,1.16 -15.28,0 -28.81,-0.99 -40.53,-2.98 -11.72,-1.98 -24.34,-5.42 -37.81,-10.21 v -224.57 h -107.81 v 335.39 h 107.81 v -49.26 c 23.61,20.27 44.17,33.77 61.66,40.45 17.49,6.63 33.58,9.99 48.28,9.99 3.79,0 8.02,-0.1 12.8,-0.33 4.78,-0.18 8.95,-0.49 12.53,-0.85 v -102.42" /><path
             id="path116"
             style="fill:#ffffff;fill-opacity:1;fill-rule:nonzero;stroke:none"
             d="m 3522.71,1258.5 c 6.96,8.59 12.18,18.94 15.68,30.94 3.49,12.01 5.22,28.69 5.22,50 0,19.7 -1.79,36.21 -5.35,49.6 -3.63,13.37 -8.59,24.04 -14.94,31.98 -6.4,8.13 -14.07,13.9 -23.01,17.35 -8.94,3.32 -18.62,5.05 -28.95,5.05 -10.35,0 -19.56,-1.46 -27.65,-4.26 -8.03,-2.69 -15.77,-8.29 -23.12,-16.7 -6.6,-7.78 -11.8,-18.44 -15.67,-31.87 -3.88,-13.55 -5.83,-30.64 -5.83,-51.15 0,-18.23 1.66,-34.19 5.06,-47.55 3.39,-13.45 8.35,-24.25 14.96,-32.49 6.35,-7.76 13.95,-13.34 22.78,-16.97 8.9,-3.61 18.98,-5.43 30.32,-5.43 9.75,0 19.11,1.68 27.97,4.92 8.84,3.36 16.36,8.91 22.53,16.58 z m 132.27,81.59 c 0,-55.21 -16.05,-98.61 -48.21,-130.41 -32.16,-31.7 -77.28,-47.54 -135.41,-47.54 -58.13,0 -103.3,15.84 -135.46,47.54 -32.12,31.8 -48.19,75.2 -48.19,130.41 0,55.55 16.17,99.07 48.51,130.79 32.33,31.62 77.36,47.46 135.14,47.46 58.5,0 103.76,-15.96 135.68,-47.79 31.97,-31.84 47.94,-75.37 47.94,-130.46" /><path
             id="path118"
             style="fill:#ffffff;fill-opacity:1;fill-rule:nonzero;stroke:none"
             d="m 3941.12,1278.3 v 151.92 c -6.12,2.63 -13.71,4.66 -22.63,6.21 -8.92,1.43 -16.95,2.2 -24.06,2.2 -28.22,0 -49.41,-8.09 -63.46,-24.34 -14.16,-16.26 -21.19,-38.89 -21.19,-67.98 0,-32.25 6,-54.75 17.98,-67.47 12.09,-12.75 29.88,-19.05 53.5,-19.05 10.73,0 21.26,1.6 31.55,5.05 10.38,3.32 19.83,7.86 28.31,13.46 z m 107.87,-67.21 c 0,-31.42 -4.53,-57.92 -13.47,-79.51 -8.95,-21.5 -21.49,-38.3 -37.57,-50.39 -16.18,-12.38 -35.65,-21.28 -58.41,-26.8 -22.86,-5.4 -48.55,-8.17 -77.19,-8.17 -23.3,0 -46.3,1.36 -68.88,4.16 -22.58,2.8 -42.14,6.24 -58.68,10.23 v 83.92 h 13.19 c 13.07,-5.27 29.04,-10 47.99,-14.25 18.85,-4.23 35.71,-6.36 50.7,-6.36 19.84,0 36.05,1.75 48.39,5.46 12.45,3.71 21.98,8.89 28.46,15.67 6.24,6.43 10.65,14.55 13.46,24.48 2.79,10.04 4.14,21.95 4.14,35.86 v 6.23 c -12.9,-10.46 -27.15,-18.88 -42.96,-25 -15.69,-6.26 -33.2,-9.32 -52.41,-9.32 -46.92,0 -83.1,14.18 -108.55,42.48 -25.53,28.26 -38.25,71.26 -38.25,128.99 0,27.62 3.88,51.57 11.64,71.61 7.75,20.15 18.67,37.62 32.83,52.57 13.08,13.92 29.29,24.8 48.51,32.56 19.12,7.77 38.75,11.59 58.87,11.59 18.04,0 34.51,-2.12 49.3,-6.4 14.9,-4.24 28.28,-10.21 40.47,-17.75 l 3.9,14.95 h 104.52 v -296.81" /><path
             id="path120"
             style="fill:#ffffff;fill-opacity:1;fill-rule:nonzero;stroke:none"
             d="m 4384.37,1405.48 h -9.45 c -4.6,1.62 -12,2.81 -22.09,3.63 -10.1,0.7 -18.57,1.16 -25.33,1.16 -15.34,0 -28.76,-0.99 -40.48,-2.98 -11.72,-1.98 -24.35,-5.42 -37.85,-10.21 v -224.57 h -107.89 v 335.39 h 107.89 v -49.26 c 23.6,20.27 44.16,33.77 61.65,40.45 17.49,6.63 33.52,9.99 48.21,9.99 3.79,0 8.12,-0.1 12.8,-0.33 4.79,-0.18 9.03,-0.49 12.54,-0.85 v -102.42" /><path
             id="path122"
             style="fill:#ffffff;fill-opacity:1;fill-rule:nonzero;stroke:none"
             d="m 4639.17,1260.24 v 69.74 c -14.54,-1.28 -30.25,-2.84 -47.13,-4.93 -16.89,-2.16 -29.83,-4.54 -38.59,-7.33 -10.72,-3.33 -18.91,-8.25 -24.61,-14.73 -5.7,-6.5 -8.49,-14.89 -8.49,-25.45 0,-6.93 0.58,-12.61 1.75,-16.94 1.28,-4.41 4.26,-8.54 9.06,-12.5 4.5,-3.97 10.02,-6.89 16.34,-8.78 6.41,-1.9 16.34,-2.85 29.9,-2.85 10.75,0 21.63,2.16 32.64,6.57 11.14,4.32 20.84,10.1 29.13,17.2 z m 0,-52.12 c -5.78,-4.45 -12.91,-9.68 -21.49,-15.82 -8.59,-6.24 -16.62,-11.12 -24.21,-14.63 -10.47,-4.78 -21.5,-8.36 -32.77,-10.61 -11.4,-2.36 -23.87,-3.49 -37.32,-3.49 -31.88,0 -58.52,9.84 -80.03,29.53 -21.49,19.81 -32.25,44.9 -32.25,75.63 0,24.47 5.41,44.42 16.34,59.97 11.04,15.53 26.56,27.82 46.62,36.77 19.95,8.93 44.63,15.37 74.07,19.04 29.44,3.8 59.97,6.6 91.7,8.42 v 1.81 c 0,18.52 -7.61,31.29 -22.68,38.33 -15.18,7.04 -37.5,10.61 -66.95,10.61 -17.7,0 -36.56,-3.1 -56.72,-9.44 -20.16,-6.22 -34.5,-11.05 -43.26,-14.38 h -9.86 v 80.86 c 11.3,2.99 29.76,6.51 55.33,10.62 25.64,4.06 51.28,6.09 76.92,6.09 61.16,0 105.3,-9.38 132.48,-28.23 27.19,-18.77 40.69,-48.32 40.69,-88.51 v -228.18 h -106.61 v 35.61" /><path
             id="path124"
             style="fill:#ffffff;fill-opacity:1;fill-rule:nonzero;stroke:none"
             d="m 5163.11,1410.27 v -237.76 h -107.86 v 167.58 c 0,16.35 -0.36,30.21 -1.17,41.69 -0.82,11.36 -2.99,20.73 -6.59,27.84 -3.53,7.25 -9,12.45 -16.21,15.68 -7.34,3.36 -17.49,4.92 -30.69,4.92 -10.46,0 -20.77,-2.11 -30.7,-6.35 -9.93,-4.35 -18.99,-8.81 -26.93,-13.6 V 1172.51 H 4835.2 v 335.39 h 107.76 v -37.02 c 18.5,14.48 36.19,25.88 53.17,33.98 16.85,8.19 35.53,12.24 56.02,12.24 22.11,0 41.6,-4.91 58.47,-14.76 16.87,-9.84 30.14,-24.35 39.71,-43.44 21.46,18.1 42.29,32.39 62.59,42.73 20.2,10.34 40.15,15.47 59.64,15.47 36.18,0 63.64,-10.83 82.41,-32.5 18.76,-21.72 28.19,-52.93 28.19,-93.74 v -218.35 h -107.75 v 167.58 c 0,16.52 -0.42,30.43 -1.05,41.82 -0.72,11.28 -2.84,20.6 -6.46,27.71 -3.33,7.25 -8.77,12.45 -16.07,15.68 -7.42,3.36 -17.81,4.92 -31.08,4.92 -8.99,0 -17.71,-1.47 -26.28,-4.54 -8.6,-3.18 -19.07,-8.28 -31.36,-15.41" /><path
             id="path126"
             style="fill:#ffffff;fill-opacity:1;fill-rule:nonzero;stroke:none"
             d="m 5676.45,1260.24 v 69.74 c -14.43,-1.28 -30.25,-2.84 -47.14,-4.93 -16.89,-2.16 -29.72,-4.54 -38.48,-7.33 -10.75,-3.33 -19.02,-8.25 -24.71,-14.73 -5.6,-6.5 -8.45,-14.89 -8.45,-25.45 0,-6.93 0.54,-12.61 1.82,-16.94 1.16,-4.41 4.14,-8.54 8.93,-12.5 4.51,-3.97 10.02,-6.89 16.46,-8.78 6.31,-1.9 16.24,-2.85 29.79,-2.85 10.75,0 21.63,2.16 32.76,6.57 11.01,4.32 20.72,10.1 29.02,17.2 z m 0,-52.12 c -5.78,-4.45 -12.91,-9.68 -21.49,-15.82 -8.49,-6.24 -16.63,-11.12 -24.11,-14.63 -10.58,-4.78 -21.5,-8.36 -32.88,-10.61 -11.39,-2.36 -23.76,-3.49 -37.32,-3.49 -31.88,0 -58.53,9.84 -80.03,29.53 -21.49,19.81 -32.25,44.9 -32.25,75.63 0,24.47 5.41,44.42 16.45,59.97 10.93,15.53 26.45,27.82 46.51,36.77 19.96,8.93 44.62,15.37 74.08,19.04 29.44,3.8 60.07,6.6 91.69,8.42 v 1.81 c 0,18.52 -7.6,31.29 -22.68,38.33 -15.18,7.04 -37.46,10.61 -66.94,10.61 -17.7,0 -36.58,-3.1 -56.72,-9.44 -20.06,-6.22 -34.51,-11.05 -43.27,-14.38 h -9.86 v 80.86 c 11.3,2.99 29.77,6.51 55.43,10.62 25.56,4.06 51.17,6.09 76.83,6.09 61.15,0 105.29,-9.38 132.47,-28.23 27.2,-18.77 40.8,-48.32 40.8,-88.51 v -228.18 h -106.71 v 35.61" /><path
             id="path128"
             style="fill:#ffffff;fill-opacity:1;fill-rule:nonzero;stroke:none"
             d="m 6544.8,1172.51 h -114.07 v 297.72 l -82.49,-193.21 h -79.13 l -82.38,193.21 V 1172.51 H 6078.6 v 444.63 h 133.25 l 99.99,-223.05 99.73,223.05 h 133.23 v -444.63" /><path
             id="path130"
             style="fill:#ffffff;fill-opacity:1;fill-rule:nonzero;stroke:none"
             d="m 6977.19,1172.51 h -107.77 v 37.04 c -19.84,-15.09 -38.07,-26.6 -54.59,-34.46 -16.51,-7.85 -36.18,-11.79 -58.99,-11.79 -37,0 -65.46,10.67 -85.51,31.97 -19.92,21.23 -30,52.77 -30,94.32 v 218.31 h 107.86 v -166.39 c 0,-16.88 0.5,-30.91 1.67,-42.22 1.1,-11.18 3.57,-20.55 7.54,-27.85 3.79,-7.42 9.53,-12.74 17.22,-16.19 7.68,-3.33 18.39,-5.04 32.12,-5.04 9.11,0 19.32,1.71 30.43,5.04 11.11,3.45 21.85,8.42 32.25,14.91 v 237.74 h 107.77 v -335.39" /><path
             id="path132"
             style="fill:#ffffff;fill-opacity:1;fill-rule:nonzero;stroke:none"
             d="m 7406.44,1172.51 h -107.77 v 166.41 c 0,13.55 -0.72,26.95 -2.18,40.41 -1.34,13.47 -3.74,23.35 -7.12,29.78 -3.98,7.29 -9.81,12.72 -17.49,16.06 -7.67,3.45 -18.38,5.05 -32.11,5.05 -9.75,0 -19.65,-1.52 -29.67,-4.79 -10.05,-3.15 -21.01,-8.21 -32.75,-15.16 v -237.76 h -107.77 v 335.39 h 107.77 v -37.02 c 19.12,14.89 37.49,26.37 55.09,34.32 17.6,7.94 37.13,11.9 58.6,11.9 36.19,0 64.47,-10.51 84.86,-31.59 20.3,-21.15 30.54,-52.66 30.54,-94.65 v -218.35" /><path
             id="path134"
             style="fill:#ffffff;fill-opacity:1;fill-rule:nonzero;stroke:none"
             d="m 7714.38,1264.87 v 164.81 c -7.49,3.16 -15.51,5.42 -23.79,6.87 -8.4,1.35 -16.05,2.08 -23,2.08 -28.22,0 -49.32,-8.81 -63.47,-26.45 -14.06,-17.64 -21.08,-42.1 -21.08,-73.39 0,-32.94 5.64,-56.89 16.94,-71.72 11.37,-14.83 29.48,-22.29 54.55,-22.29 9.73,0 19.99,1.85 31.01,5.56 10.91,3.72 20.54,8.57 28.84,14.53 z m 107.86,-92.36 h -107.86 v 34.96 c -18.51,-15.08 -35.73,-26.29 -51.88,-33.42 -16.06,-7.14 -34.65,-10.75 -55.76,-10.75 -40.8,0 -73.36,15.71 -97.82,47.15 -24.46,31.44 -36.72,73.9 -36.72,127.19 0,28.56 4.21,53.69 12.4,75.74 8.2,22.05 19.54,40.88 33.9,56.59 13.41,14.9 29.85,26.5 49.17,34.78 19.3,8.26 38.51,12.35 57.83,12.35 20.13,0 36.59,-2.12 49.4,-6.4 12.81,-4.24 25.94,-9.7 39.48,-16.26 v 142.7 h 107.86 v -464.63" /><path
             id="path136"
             style="fill:#ffffff;fill-opacity:1;fill-rule:nonzero;stroke:none"
             d="m 8022.4,1172.51 h -107.87 v 335.39 h 107.87 z m 2.99,383.12 h -113.84 v 81.51 h 113.84 v -81.51" /><path
             id="path138"
             style="fill:#ffffff;fill-opacity:1;fill-rule:nonzero;stroke:none"
             d="m 8317.51,1260.24 v 69.74 c -14.55,-1.28 -30.25,-2.84 -47.25,-4.93 -16.89,-2.16 -29.71,-4.54 -38.48,-7.33 -10.75,-3.33 -18.92,-8.25 -24.6,-14.73 -5.71,-6.5 -8.56,-14.89 -8.56,-25.45 0,-6.93 0.65,-12.61 1.82,-16.94 1.16,-4.41 4.14,-8.54 8.94,-12.5 4.6,-3.97 10.02,-6.89 16.44,-8.78 6.39,-1.9 16.36,-2.85 29.9,-2.85 10.69,0 21.64,2.16 32.66,6.57 11.01,4.32 20.71,10.1 29.13,17.2 z m 0,-52.12 c -5.78,-4.45 -12.91,-9.68 -21.5,-15.82 -8.59,-6.24 -16.62,-11.12 -24.21,-14.63 -10.58,-4.78 -21.5,-8.36 -32.88,-10.61 -11.28,-2.36 -23.75,-3.49 -37.32,-3.49 -31.8,0 -58.52,9.84 -80.03,29.53 -21.49,19.81 -32.24,44.9 -32.24,75.63 0,24.47 5.5,44.42 16.43,59.97 10.93,15.53 26.47,27.82 46.63,36.77 19.86,8.93 44.51,15.37 74.06,19.04 29.45,3.8 59.99,6.6 91.66,8.42 v 1.81 c 0,18.52 -7.55,31.29 -22.74,38.33 -15.07,7.04 -37.39,10.61 -66.83,10.61 -17.72,0 -36.69,-3.1 -56.74,-9.44 -20.15,-6.22 -34.6,-11.05 -43.36,-14.38 h -9.86 v 80.86 c 11.41,2.99 29.88,6.51 55.43,10.62 25.56,4.06 51.18,6.09 76.93,6.09 61.04,0 105.18,-9.38 132.37,-28.23 27.2,-18.77 40.79,-48.32 40.79,-88.51 v -228.18 h -106.59 v 35.61" /><path
             id="path140"
             style="fill:#ffffff;fill-opacity:1;fill-rule:nonzero;stroke:none"
             d="m 8513.79,1172.51 h 107.762 v 464.629 H 8513.79 Z" /><path
             id="path142"
             style="fill:#ffffff;fill-opacity:1;fill-rule:nonzero;stroke:none"
             d="m 9131.83,1264.87 v 164.81 c -7.58,3.16 -15.51,5.42 -23.9,6.87 -8.29,1.35 -15.96,2.08 -22.9,2.08 -28.22,0 -49.4,-8.81 -63.46,-26.45 -14.16,-17.64 -21.18,-42.1 -21.18,-73.39 0,-32.94 5.67,-56.89 17.04,-71.72 11.26,-14.83 29.47,-22.29 54.44,-22.29 9.73,0 20.09,1.85 31,5.56 10.92,3.72 20.57,8.57 28.96,14.53 z m 107.76,-92.36 h -107.76 v 34.96 c -18.52,-15.08 -35.84,-26.29 -51.9,-33.42 -16.16,-7.14 -34.74,-10.75 -55.85,-10.75 -40.69,0 -73.36,15.71 -97.81,47.15 -24.45,31.44 -36.63,73.9 -36.63,127.19 0,28.56 4.1,53.69 12.31,75.74 8.3,22.05 19.53,40.88 33.88,56.59 13.54,14.9 29.96,26.5 49.17,34.78 19.32,8.26 38.62,12.35 57.94,12.35 20.03,0 36.49,-2.12 49.31,-6.4 12.81,-4.24 26.04,-9.7 39.58,-16.26 v 142.7 h 107.76 v -464.63" /><path
             id="path144"
             style="fill:#ffffff;fill-opacity:1;fill-rule:nonzero;stroke:none"
             d="m 9555.29,1383.34 c -0.53,22.5 -6.14,39.49 -16.72,50.76 -10.56,11.4 -26.9,17.03 -49.22,17.03 -20.69,0 -37.77,-5.38 -51.15,-16.12 -13.26,-10.75 -20.77,-27.91 -22.29,-51.67 z m 106.96,-62.94 h -246.08 c 1.63,-26.29 11.62,-46.44 30.04,-60.35 18.39,-13.91 45.49,-20.87 81.35,-20.87 22.67,0 44.72,4.07 66.02,12.19 21.22,8.12 38.02,16.88 50.42,26.3 h 11.94 v -86.26 c -24.34,-9.76 -47.17,-16.92 -68.67,-21.24 -21.51,-4.44 -45.26,-6.6 -71.36,-6.6 -67.3,0 -118.89,15.19 -154.65,45.45 -35.88,30.26 -53.84,73.34 -53.84,129.25 0,55.38 17.03,99.23 50.99,131.56 33.92,32.34 80.45,48.51 139.62,48.51 54.54,0 95.55,-13.78 123.03,-41.38 27.46,-27.54 41.19,-67.25 41.19,-118.99 v -37.57" /><path
             id="path146"
             style="fill:#ffffff;fill-opacity:1;fill-rule:nonzero;stroke:none"
             d="m 10168.6,1343.97 -54.7,159.26 -54.7,-159.26 z m 177.1,-171.46 h -118.5 l -30.9,89.87 h -164.6 l -31,-89.87 h -115.54 l 164.24,444.63 h 132 l 164.3,-444.63" /><path
             id="path148"
             style="fill:#ffffff;fill-opacity:1;fill-rule:nonzero;stroke:none"
             d="m 10394.5,1172.51 h 107.699 v 464.629 H 10394.5 Z" /><path
             id="path150"
             style="fill:#ffffff;fill-opacity:1;fill-rule:nonzero;stroke:none"
             d="m 10702.1,1172.51 h -107.9 v 335.39 h 107.9 z m 3,383.12 h -113.8 v 81.51 h 113.8 v -81.51" /><path
             id="path152"
             style="fill:#ffffff;fill-opacity:1;fill-rule:nonzero;stroke:none"
             d="m 11121.7,1410.27 v -237.76 h -107.8 v 167.58 c 0,16.35 -0.3,30.21 -1.2,41.69 -0.8,11.36 -2.9,20.73 -6.5,27.84 -3.7,7.25 -9,12.45 -16.4,15.68 -7.2,3.36 -17.4,4.92 -30.5,4.92 -10.6,0 -20.8,-2.11 -30.9,-6.35 -9.9,-4.35 -18.8,-8.81 -26.8,-13.6 v -237.76 h -107.8 v 335.39 h 107.8 v -37.02 c 18.5,14.48 36.2,25.88 53.1,33.98 17,8.19 35.6,12.24 56.1,12.24 22,0 41.5,-4.91 58.5,-14.76 16.9,-9.84 30.1,-24.35 39.6,-43.44 21.5,18.1 42.3,32.39 62.6,42.73 20.3,10.34 40.1,15.47 59.6,15.47 36.3,0 63.8,-10.83 82.5,-32.5 18.8,-21.72 28.2,-52.93 28.2,-93.74 V 1172.51 H 11234 v 167.58 c 0,16.52 -0.3,30.43 -1.1,41.82 -0.6,11.28 -2.8,20.6 -6.3,27.71 -3.5,7.25 -8.8,12.45 -16.2,15.68 -7.3,3.36 -17.7,4.92 -31.1,4.92 -8.9,0 -17.7,-1.47 -26.3,-4.54 -8.5,-3.18 -18.9,-8.28 -31.3,-15.41" /><path
             id="path154"
             style="fill:#ffffff;fill-opacity:1;fill-rule:nonzero;stroke:none"
             d="m 11655.5,1383.34 c -0.7,22.5 -6.3,39.49 -16.7,50.76 -10.6,11.4 -27.1,17.03 -49.4,17.03 -20.7,0 -37.6,-5.38 -51,-16.12 -13.4,-10.75 -20.8,-27.91 -22.4,-51.67 z m 106.8,-62.94 h -246.1 c 1.7,-26.29 11.7,-46.44 30.1,-60.35 18.4,-13.91 45.6,-20.87 81.3,-20.87 22.8,0 44.7,4.07 66.1,12.19 21.3,8.12 38.1,16.88 50.5,26.3 h 11.9 v -86.26 c -24.3,-9.76 -47.2,-16.92 -68.7,-21.24 -21.5,-4.44 -45.3,-6.6 -71.4,-6.6 -67.2,0 -118.8,15.19 -154.7,45.45 -35.8,30.26 -53.7,73.34 -53.7,129.25 0,55.38 16.9,99.23 50.9,131.56 34,32.34 80.5,48.51 139.6,48.51 54.5,0 95.6,-13.78 123,-41.38 27.5,-27.54 41.2,-67.25 41.2,-118.99 v -37.57" /><path
             id="path156"
             style="fill:#ffffff;fill-opacity:1;fill-rule:nonzero;stroke:none"
             d="m 12165.9,1172.51 h -107.8 v 166.41 c 0,13.55 -0.8,26.95 -2.1,40.41 -1.4,13.47 -3.8,23.35 -7.1,29.78 -4,7.29 -9.8,12.72 -17.5,16.06 -7.7,3.45 -18.4,5.05 -32.2,5.05 -9.7,0 -19.6,-1.52 -29.7,-4.79 -10.1,-3.15 -20.9,-8.21 -32.7,-15.16 v -237.76 h -107.7 v 335.39 h 107.7 v -37.02 c 19.1,14.89 37.4,26.37 55,34.32 17.6,7.94 37.1,11.9 58.6,11.9 36.2,0 64.5,-10.51 84.9,-31.59 20.4,-21.15 30.6,-52.66 30.6,-94.65 v -218.35" /><path
             id="path158"
             style="fill:#ffffff;fill-opacity:1;fill-rule:nonzero;stroke:none"
             d="m 12470,1175.46 c -11.6,-2.97 -23.8,-5.26 -36.8,-6.97 -12.9,-1.62 -28.7,-2.46 -47.4,-2.46 -41.9,0 -73,8.36 -93.4,25.38 -20.4,16.87 -30.6,45.88 -30.6,86.89 v 156.71 h -44.2 v 72.89 h 44.2 v 95.83 h 107.8 v -95.83 h 100.4 v -72.89 h -100.4 v -119.03 c 0,-11.77 0.1,-21.98 0.3,-30.75 0.2,-8.77 1.8,-16.65 4.7,-23.62 2.8,-7.06 7.7,-12.52 14.8,-16.59 7.1,-4.17 17.3,-6.2 30.8,-6.2 5.6,0 12.9,1.16 21.9,3.61 9.1,2.35 15.3,4.62 18.9,6.6 h 9 v -73.57" /><path
             id="path160"
             style="fill:#ffffff;fill-opacity:1;fill-rule:nonzero;stroke:none"
             d="m 12735.5,1258.5 c 7,8.59 12.2,18.94 15.7,30.94 3.4,12.01 5.2,28.69 5.2,50 0,19.7 -1.8,36.21 -5.3,49.6 -3.7,13.37 -8.6,24.04 -15,31.98 -6.4,8.13 -14,13.9 -23,17.35 -8.9,3.32 -18.6,5.05 -29,5.05 -10.3,0 -19.5,-1.46 -27.6,-4.26 -8,-2.69 -15.7,-8.29 -23.1,-16.7 -6.5,-7.78 -11.8,-18.44 -15.7,-31.87 -3.9,-13.55 -5.8,-30.64 -5.8,-51.15 0,-18.23 1.7,-34.19 5.1,-47.55 3.4,-13.45 8.3,-24.25 14.9,-32.49 6.3,-7.76 14,-13.34 22.8,-16.97 8.9,-3.61 19,-5.43 30.3,-5.43 9.8,0 19.1,1.68 28,4.92 8.8,3.36 16.3,8.91 22.5,16.58 z m 132.3,81.59 c 0,-55.21 -16.1,-98.61 -48.2,-130.41 -32.2,-31.7 -77.3,-47.54 -135.5,-47.54 -58.1,0 -103.3,15.84 -135.3,47.54 -32.2,31.8 -48.3,75.2 -48.3,130.41 0,55.55 16.2,99.07 48.5,130.79 32.4,31.62 77.4,47.46 135.1,47.46 58.6,0 103.8,-15.96 135.7,-47.79 32,-31.84 48,-75.37 48,-130.46" /><path
             id="path162"
             style="fill:#ffffff;fill-opacity:1;fill-rule:nonzero;stroke:none"
             d="m 13227.1,1278.84 c 0,-34.59 -15.5,-62.56 -46.6,-83.8 -31,-21.11 -73.5,-31.74 -127.5,-31.74 -29.8,0 -56.9,2.81 -81.2,8.3 -24.3,5.61 -43.8,11.74 -58.5,18.52 v 88.44 h 9.8 c 5.4,-3.78 11.6,-7.89 18.7,-12.42 7,-4.41 17.1,-9.25 30,-14.5 11.1,-4.5 23.8,-8.43 38,-11.79 14.1,-3.24 29.2,-4.92 45.3,-4.92 21.2,0 36.8,2.4 46.9,6.99 10.2,4.71 15.3,11.62 15.3,20.85 0,8.12 -3,14.03 -9,17.74 -6,3.71 -17.3,7.18 -34,10.62 -8,1.81 -18.9,3.75 -32.5,5.83 -13.6,2.07 -26,4.53 -37.2,7.63 -30.4,7.94 -53,20.26 -67.7,37.18 -14.8,16.79 -22.2,37.69 -22.2,62.81 0,32.25 15.3,59.06 45.9,80.48 30.6,21.4 72.3,32.04 125.3,32.04 25,0 49.1,-2.52 72.2,-7.57 22.9,-5.12 40.9,-10.53 53.8,-16.26 v -84.81 h -9.3 c -15.9,10.92 -34.1,19.82 -54.5,26.69 -20.4,6.86 -41,10.35 -61.9,10.35 -17.4,0 -31.9,-2.45 -43.8,-7.13 -11.8,-4.8 -17.7,-11.57 -17.7,-20.33 0,-7.94 2.7,-14.1 8,-18.24 5.4,-4.16 18.1,-8.32 38,-12.57 10.9,-2.16 22.7,-4.27 35.3,-6.35 12.7,-2.07 25.3,-4.75 38.1,-7.9 28.3,-7.42 49.2,-19.03 62.8,-34.84 13.4,-15.8 20.2,-35.64 20.2,-59.3" /></g></g></g></g></svg>