<?xml version="1.0" encoding="UTF-8" standalone="no"?>
<svg
   xmlns:dc="http://purl.org/dc/elements/1.1/"
   xmlns:cc="http://creativecommons.org/ns#"
   xmlns:rdf="http://www.w3.org/1999/02/22-rdf-syntax-ns#"
   xmlns:svg="http://www.w3.org/2000/svg"
   xmlns="http://www.w3.org/2000/svg"
   viewBox="0 0 817.97333 377.94666"
   height="377.94666"
   width="817.97333"
   xml:space="preserve"
   id="svg2"
   version="1.1"><metadata
     id="metadata8"><rdf:RDF><cc:Work
         rdf:about=""><dc:format>image/svg+xml</dc:format><dc:type
           rdf:resource="http://purl.org/dc/dcmitype/StillImage" /></cc:Work></rdf:RDF></metadata><defs
     id="defs6"><clipPath
       id="clipPath20"
       clipPathUnits="userSpaceOnUse"><path
         id="path18"
         d="M 0,2834.65 V 0 h 6134.76 v 2834.65 z" /></clipPath></defs><g
     transform="matrix(1.3333333,0,0,-1.3333333,0,377.94667)"
     id="g10"><g
       transform="scale(0.1)"
       id="g12"><g
         id="g14"><g
           clip-path="url(#clipPath20)"
           id="g16"><path
             id="path22"
             style="fill:#ffffff;fill-opacity:1;fill-rule:nonzero;stroke:none"
             d="m 1340.51,2131.15 c 12.51,27.08 24.09,48.63 40.8,74.32 7.36,11.32 15.69,19.21 23.1,30.66 -3.54,1.03 -8.72,-1.91 -10.96,-3.5 -7.42,-5.38 -10.77,-14.12 -16.71,-18.8 -14.03,-11.08 -13.64,-21.11 -21,-26.28 -6.57,-4.63 -8.45,-7.68 -13.05,-14.9 -3.08,-4.83 -5.34,-8.72 -8.6,-18.22 -1.15,-3.44 -3.45,-0.41 -8.93,-7.93 -7.18,-9.82 -10.4,-20.41 -13.38,-32.27 -0.96,-3.9 -7.59,-5.97 -11.85,-14.07 -5.72,-10.93 -9.44,-21.03 -11.91,-36.95 -0.62,-3.69 -6.85,-6.25 -11.16,-16.53 -3.05,-7.23 -5.23,-8.83 -7.9,-22.45 -1.65,-8.32 -5.43,-9.51 -9.7,-21.57 -3.3,-9.2 -3.43,-18.06 -4.58,-30.09 -0.26,-2.32 -4.2,-6.94 -7.84,-13.68 -6.08,-11.27 -5.88,-18.78 -8.32,-30.41 -0.92,-4.2 -5.63,-9.77 -10.17,-27.79 -3.98,-15.98 -0.33,-26.58 -1.68,-34.46 -3.53,-20.44 -7.03,-38.2 -5.14,-58.35 0.94,-9.84 2.44,-20.01 1.79,-29.48 -1.88,-29.7 -3.48,-54.16 -3.32,-87.82 0.1,-18.33 1.53,-43.42 4.3,-64.29 3.05,-23.07 7.44,-41.07 7.44,-41.07 h 75.14 c 0,0 -2.93,43.45 0.96,89.19 2.3,27.42 8.83,56.48 14.76,76.89 7.51,26.03 12.18,39.51 26.37,73.85 0.3,0.76 -0.1,3.97 -3.85,0.83 -7.83,-6.58 -14.38,-12.37 -20.57,-21.69 -9.46,-14.26 -15.21,-26 -22.87,-40.63 -8.96,-17.02 -13.89,-31.85 -23.11,-52.53 -0.55,14.93 1.88,29.13 4.89,42.88 3.11,14.04 5.58,25.16 9.99,37.25 7.84,21.35 15.43,39.17 27.99,59.03 7.28,11.48 16.57,21.77 26.01,30.33 11.29,10.32 21.73,19.39 33.55,29.49 -12.42,6.41 -28.96,-6.95 -32.26,-7.64 -17.48,-3.41 -24.59,-19.61 -29.94,-21.83 -7.65,-3.2 -12.08,-7.87 -17.38,-14.33 -4.09,-4.85 -5.31,-12.33 -9.59,-14.98 -7.13,-4.44 -12.36,-11.15 -17.27,-20.5 -2.01,-3.87 -7.49,-22.13 -13.59,-19.79 10.42,61.93 32.29,120.01 67.37,171.71 22.26,32.77 46.46,60.88 82.13,86.09 4.69,3.34 5.62,4.89 -0.95,4.66 -33.34,-4.05 -35.38,-19.27 -40.87,-20.7 -5.21,-1.35 -11.65,-7.52 -15.77,-11.53 -7.41,-7.33 -7.28,-13.51 -10.13,-15.43 -6.08,-4.25 -10.66,-8.66 -14.82,-16.02 -2.17,-3.85 -5.85,-12.31 -9.1,-14.24 -8.56,-4.96 -16.85,-12.19 -20.98,-19.99 -3.06,-5.71 -4.28,-11.89 -8.26,-17.49 -4.27,-6.03 -10.23,-10.53 -15.36,-14.89 3.9,26.47 16.37,57.83 24.95,84.87 11.54,36.13 25.54,68.96 41.33,103.07" /><path
             id="path24"
             style="fill:#ffffff;fill-opacity:1;fill-rule:nonzero;stroke:none"
             d="m 1417.22,1916.65 c 28.45,63.86 58.37,111.91 97.26,168.12 5.09,7.36 9.64,14.58 14.08,21.48 2,3.11 11.56,16.86 13.55,19.77 13.05,19.69 18.52,25.71 31.87,44.53 3.62,5.11 6.55,9.13 8.08,15.04 2.85,11.01 -6.61,18.39 -8.78,28.96 -2.2,10.79 -1.01,22.57 3.95,31.68 3.11,5.7 6.19,7.93 9.31,15.58 6.07,14.73 3.97,46.58 10.88,47.42 -1.75,-15.12 -2.15,-32.12 0.22,-46.62 2.77,-16.93 13.04,-27.19 17.28,-45.12 11.42,2.06 23.83,1.56 33.44,0.73 9.54,-0.81 21.61,1.84 31.4,5.19 13.26,4.53 24.27,12.78 37.79,15.98 -11.5,-11.06 -27.72,-15.2 -41.32,-23.59 -5,-3.14 -9.71,-7.29 -13.05,-12.45 -5.47,-8.51 -9.79,-16.65 -18.35,-20.37 -15.19,-6.64 -28.23,-3.49 -45.57,-6.71 -25.76,-26.54 -50,-62.63 -72.38,-100.59 -56.73,-95.97 -104.03,-195.36 -131.54,-297.29 9.51,17.73 18.6,34.89 28.9,51.76 11.39,18.74 24.18,37.09 38.13,55.47 32.66,43.05 64.97,80.64 101.17,120.18 29.22,31.97 61.25,58.76 96.96,81.18 47.2,29.57 105.42,50.29 156.57,39.61 5.82,-1.36 14.14,-2.91 17.77,-6.74 -64.11,8.97 -121.54,-13.42 -164.4,-47.75 -33.85,-27.07 -62.39,-54.56 -91.39,-90.26 -14.98,-17.21 -28.45,-36.13 -41.83,-54.46 -14.02,-19.27 -26.44,-39.55 -38.77,-59.83 -41.54,-68.6 -73,-141.24 -96.12,-216.5 -0.66,-2.39 -0.8,-4.79 -1.46,-7.16 1.1,1.69 2.72,3.52 3.81,5.25 31.13,50.6 68.56,99.44 115.96,132.22 4.14,2.82 8.46,8.25 9.56,12.53 5.14,20.09 -10.18,29.75 11.01,57.52 4.86,6.38 11.5,8.71 16.09,14.63 8.68,13.41 15.75,37.42 23.01,43.86 -3.65,-15.63 -12.62,-32.13 -14.54,-48.25 -2.03,-17.68 2.5,-32.15 3.28,-50.89 12.53,-1.71 22.21,-7 32.04,-10.03 15.27,-4.77 24.44,-3.56 39.56,-2.25 6.46,0.54 18.15,4.31 25.11,2.89 -14.62,-7.99 -34.34,-6.51 -49.29,-14.15 -10.46,-5.35 -13.49,-13.26 -27.91,-16.05 -12.84,-2.5 -23.64,-1.15 -31.99,3.13 -6.49,3.27 -11.56,4.64 -17.39,1.85 -15.56,-7.48 -26.18,-18.02 -38.7,-30.65 -29.08,-29.27 -52.81,-61.92 -74.97,-104.75 -5.84,-11.4 -11.12,-22.64 -16.13,-34.24 -2.46,-5.67 -8.58,-21.34 -8.58,-21.34 h -75.99 c 0,0 -0.19,21.9 0.52,29.9 1.46,15.94 3.62,27.76 6.73,43.93 4.4,23.27 8.72,44.38 14.74,66.95 5.89,21.95 12.23,42.55 19.75,63.64 15.72,43.97 32.41,86.07 50.67,127.06" /><path
             id="path26"
             style="fill:#ffffff;fill-opacity:1;fill-rule:nonzero;stroke:none"
             d="m 682.555,1324.81 c 27.734,22.68 48.265,35.82 75.961,52.33 11.242,6.73 28.254,14.34 41.332,20.26 47.984,21.68 111.464,37.66 171.269,38.76 1.086,0 1.016,-0.05 1.016,-0.05 h 445.917 c 0,0 -1.67,0.05 1.55,0.05 14.19,0 28.23,-4.94 36.92,-13.13 8.69,-8.26 12.86,-20.98 15.13,-33.62 1.93,-10.79 0.98,-20.38 -1.53,-31.9 -1.96,-9.11 -3.44,-14.54 -8.5,-22.28 -3.07,-4.71 -5.98,-7.94 -11.68,-12.48 -5.86,-4.68 -14.16,-6.3 -23.68,-6.39 -1,-0.05 -3.12,-0.1 -3.05,-0.08 0.1,0.08 -521.565,0.08 -521.565,0.08 0,0 -3.243,0.01 -4.868,0.01 -34.144,0.11 -70.101,-1.63 -103.839,-6.04 -25.844,-3.52 -51.739,-7.56 -76.723,-14.07 -31.504,-8.22 -61.836,-19.61 -92.113,-30.9 16.789,22.31 36.164,41.24 58.453,59.45" /><path
             id="path28"
             style="fill:#ffffff;fill-opacity:1;fill-rule:nonzero;stroke:none"
             d="m 837.395,1502.22 c 27.39,19.79 60.656,36.03 90.117,47.31 14.953,5.67 34.816,11.94 50.593,15.87 19.067,4.8 40.975,8.41 58.835,8.93 5.39,0.15 0.79,0.04 0.79,0.04 l 382.46,0.04 c 0,0 8.19,-0.43 11.04,-0.99 7.18,-1.55 12.98,-4.49 15.39,-6.02 5.94,-3.8 13.39,-11.81 17.29,-18.13 9.93,-16.36 11.68,-34.01 8.47,-52.37 -3.68,-20.98 -19.61,-44.87 -41.23,-45.46 -3.77,-0.09 -11.28,0 -11.28,0 h -414.24 c 0,0 -24.107,-0.47 -35.122,-0.87 -20.375,-0.79 -42.965,-3.12 -60.75,-5.73 -15.215,-2.19 -30.074,-5.08 -45.317,-9.15 C 813.375,1421.89 769,1396 722.59,1375.85 c 31.254,54.63 73.539,96.48 114.805,126.37" /><path
             id="path30"
             style="fill:#ffffff;fill-opacity:1;fill-rule:nonzero;stroke:none"
             d="m 623.438,1242.29 c 66.484,39.27 146.582,54.77 219.89,57.23 1.738,0.08 5.219,0.19 5.219,0.19 l 571.743,-0.04 c 0,0 1.03,0 6.21,0.04 34.65,0.04 47.3,-34.35 47.14,-62.15 -0.06,-9.15 -1.62,-18.5 -4.15,-24.78 -3.3,-8.19 -6.95,-14.87 -12.89,-21.32 -2.13,-2.35 -9.79,-7.74 -13.18,-8.57 -7.92,-1.93 -17.67,-1.72 -17.61,-1.72 0.07,0 -425.27,-0.07 -425.27,0 0,0 -22.946,0.93 -38.864,2.46 -11.477,1.14 -20.184,2.34 -32.098,4.6 -29.285,5.82 -53.562,15.36 -78.926,23.18 -16.918,5.22 -34.711,9.12 -53.273,11.93 -34.133,5.23 -71.418,7.61 -105.891,4.99 -43.847,-3.25 -82.851,-11.85 -124.554,-25.09 7.054,11.01 36.371,27.13 56.504,39.05" /><path
             id="path32"
             style="fill:#ffffff;fill-opacity:1;fill-rule:nonzero;stroke:none"
             d="m 931.402,1063.01 c -19.55,6.89 -38.613,15.78 -55.726,27.08 -22.281,14.75 -33.203,26.47 -62.008,39.77 -24.648,11.4 -44.328,22.64 -78.691,35.08 -16.582,6.02 -43.446,14.28 -66.481,18.24 -32.906,5.58 -64.633,8.03 -64.633,8.03 0,0 6.719,4.19 10.77,5.43 33.586,10.22 63.25,15.22 97.738,17.77 30.246,2.26 58.035,-0.69 88.359,-5.43 12.438,-1.97 28.61,-5.79 42.668,-9.81 45.633,-12.98 97.524,-33.58 143.543,-33.66 2.571,0 2.278,0.04 2.278,0.04 h 425.021 c 0,0 -3.21,0 1.3,0 12.87,0.04 36.94,-4.13 46.6,-21.2 11.2,-19.69 14.68,-43.13 5.27,-66.6 -2.84,-7.06 -7.57,-17.16 -14.37,-23.3 -5.97,-5.39 -15.66,-8.86 -21.27,-8.86 -1.61,-0.08 -4.39,0 -4.39,0 h -371.71 c 0,0 1.41,0 -2.02,0 -38,0 -85.853,4.61 -122.248,17.42" /><path
             id="path34"
             style="fill:#ffffff;fill-opacity:1;fill-rule:nonzero;stroke:none"
             d="m 1100.71,931.16 c -10.5,10.801 -25,27.352 -38.14,43.039 -25.23,30.081 -36.53,57.181 -36.53,57.181 h 247.92 c 0,0 0.67,-28.61 -5.07,-61.72 -5.36,-30.762 -16.72,-63.172 -28.8,-86.672 -0.44,-24.078 9.72,-46.468 11.4,-70.25 -20.36,-12.508 -42.27,-24.886 -60.53,-42.437 -1.16,-1.071 -3.04,-1.071 -3.81,1.828 -9.78,36.66 -14.94,69.351 -22.95,105.609 -22.6,17.461 -43.79,33.032 -63.49,53.422" /><path
             id="path36"
             style="fill:#ffffff;fill-opacity:1;fill-rule:nonzero;stroke:none"
             d="m 1356.22,951.512 c -7.02,12.929 -12.26,30.039 -20.3,40.207 -1.72,-9.059 0.4,-14.66 -0.82,-23.328 -1.14,-7.282 -7.1,-4.262 -8.31,-0.832 -3.47,9.839 -7.17,21.98 -10.34,32.062 -5.3,16.819 -6.99,31.699 -6.99,31.699 l 41.24,0.06 c 0,0 1.59,-0.39 2.32,-4.42 1.97,-10.39 1.49,-20.53 4.34,-32.562 3.66,-15.519 8.36,-29.679 14.07,-44.136 4.95,-12.731 11.34,-25.571 16.54,-38.211 0.7,-1.66 1.05,-4.852 -0.21,-6.512 -1.53,-1.93 -4.16,-1.68 -5.67,0 -11.81,13.422 -16.57,28.621 -25.87,45.973" /><path
             id="path38"
             style="fill:#ffffff;fill-opacity:1;fill-rule:nonzero;stroke:none"
             d="m 1420.06,922.012 c -7.02,14.949 -16.89,31.769 -16.03,48.718 4.57,-5.98 6.44,-10.281 12.72,-13.609 2.88,-0.922 8.9,-0.062 7.38,4.938 -2.76,9.363 -7.07,17.269 -11.06,30.089 -5.92,18.952 -11.67,39.212 -11.67,39.212 l -42.1,0.02 c 0,0 2.35,-17.08 11.91,-43.29 8.4,-23.231 21.39,-49.789 35.61,-74.668 11.59,-20.5 22.11,-38.363 35.26,-53.32 4.5,-5.153 15.53,-0.633 10.75,6.066 -12.47,17.633 -24.11,37.172 -32.77,55.844" /><path
             id="path40"
             style="fill:#ffffff;fill-opacity:1;fill-rule:nonzero;stroke:none"
             d="m 1693.41,2344.9 c -9.14,-3.97 -17.21,-9.13 -21.76,-17.91 -3.32,-6.31 -5.56,-15.92 0.78,-21.34 11.11,-9.48 24.38,0.23 29.75,9.92 6.79,12.35 5.03,35.95 5.03,35.95 0,0 -7.9,-4.1 -13.8,-6.62" /><path
             id="path42"
             style="fill:#ffffff;fill-opacity:1;fill-rule:nonzero;stroke:none"
             d="m 1703.07,2285.96 c 4,7.54 12.75,15.68 22.33,21.51 10.85,6.63 22.07,13.07 29.88,17.72 7.81,4.69 9.3,7.99 9.3,7.99 0,0 -6.43,-2.22 -9.96,-4.3 -19.27,-11.49 -40.31,-24.55 -48.86,-28.32 -10.8,-4.71 -25.48,-5.62 -38.7,-7.31 -2.11,16.68 -6.45,23.62 -6.39,38.44 0.11,7.11 1.83,16.33 3.03,22.77 4.14,21.43 4.95,32.24 4.95,32.24 0,0 -3.27,-3.05 -4.47,-12.47 -1.34,-8.53 -2.3,-11.66 -4.24,-21.74 -2.23,-11.62 -4.55,-21.47 -11.51,-28.73 -10.01,-10.37 -19.3,-28.82 -11.56,-42.96 4.51,-8.26 12.04,-7.07 14.4,-9.19 2.36,-2.12 3.79,-7.21 10.92,-9.57 15.39,-5.14 32.84,8.66 40.88,23.92" /><path
             id="path44"
             style="fill:#ffffff;fill-opacity:1;fill-rule:nonzero;stroke:none"
             d="m 1683.12,2241.89 c 5.22,8.48 10.58,14.43 18.82,19.49 13.66,8.32 23.79,13.96 32.13,18.22 3.61,1.82 6.63,3.98 7.55,7.84 -3.73,-1.4 -17.84,-8.03 -31.84,-16.35 -10.03,-6 -27.27,-13.47 -38.85,-14 -4.59,-0.2 -8,0.93 -11.74,1.05 -7.77,0.31 -17.67,-1.55 -17.67,-1.55 0,0 -2.51,10.97 -5.82,18.88 -1.66,4.06 -4.35,8.22 -5.8,15.83 -0.97,5.08 -1.26,12.7 -0.87,17.25 1.14,13.73 4.84,27.07 4.2,40.97 -8.62,-17.93 -5.1,-40.01 -15.23,-53.88 -4.27,-5.84 -7.66,-10.43 -11.02,-17.78 -5.56,-12.06 -4.9,-24.56 2.62,-36.18 4.34,-6.63 13.91,-6.38 15.56,-7.66 2.51,-1.86 4.65,-8.79 14.01,-10.88 16.02,-3.59 34.9,3.83 43.95,18.75" /><path
             id="path46"
             style="fill:#ffffff;fill-opacity:1;fill-rule:nonzero;stroke:none"
             d="m 1687.6,1891.3 c 3.73,7.54 6.13,17.42 10.89,24.4 -10.77,-1.61 -12.5,-2.84 -28.05,-4.54 -3.38,-0.32 -10.4,-3.84 -12.71,-6.15 -6.15,-6.21 -11.52,-11.97 -9.14,-22.38 0.93,-4.06 4.5,-7.03 6.49,-7.65 12.93,-4.2 26.06,3.49 32.52,16.32" /><path
             id="path48"
             style="fill:#ffffff;fill-opacity:1;fill-rule:nonzero;stroke:none"
             d="m 1700.72,1870.78 c 14.68,3.43 31.66,10.64 38.48,8.36 -13.8,-7.33 -31.17,-9.99 -46.45,-14.34 -11.65,-3.36 -19.97,-12.16 -30.38,-20.15 -9.54,-7.27 -22.24,-10.22 -33.59,-4.88 -3.82,1.82 -7.54,7.98 -8.2,11.28 -0.59,2.63 -6.07,5.27 -8.88,7.57 -2.85,2.37 -4.21,8.26 -4.27,10.53 -0.48,20.33 14.99,28.55 29.9,40.49 11.22,9 25.8,47.16 34.7,55.08 -1.59,-12.31 -17.58,-35.52 -24.55,-53.58 -5.54,-14.39 -3.72,-25.89 -7.28,-41.05 10.66,-0.68 22.53,-2.91 33.26,-3.09 8.43,-0.11 18.61,1.73 27.26,3.78" /><path
             id="path50"
             style="fill:#ffffff;fill-opacity:1;fill-rule:nonzero;stroke:none"
             d="m 1685.24,1839.43 c -8.25,-1.54 -18.35,-4.13 -25.24,-5.59 -23.96,-5.08 -35.39,6.66 -54.53,6.44 1.69,21.9 -5.91,31.71 0.34,45.87 5.59,12.59 10.76,25.93 15.56,36.62 3.89,8.55 5.08,15.78 5.08,15.78 0,0 -5.82,-8.69 -22.33,-40.85 -5.73,-11.24 -16.02,-13.63 -25.15,-24.24 -10.51,-12.11 -16.53,-37.75 2.9,-48.5 3.86,-2.12 3.3,-8.79 6.11,-11.48 12.98,-12.2 39.19,-10.97 55.59,3.9 13.05,11.9 28.91,13.83 42.42,17.33 7.9,2.04 14.83,5.4 14.83,5.4 0,0 -3.74,1.53 -15.58,-0.68" /><path
             id="path52"
             style="fill:#ffffff;fill-opacity:1;fill-rule:nonzero;stroke:none"
             d="m 1205.23,1585.18 c -0.95,0 -1.96,0 0,0 z m -111.89,315.55 c -7.98,-10.57 -11.68,-22.7 -20.5,-31.93 -4.6,-4.82 -11.62,-2.57 -15.26,3 -4.05,6.28 -10.6,15.18 -5.73,21.4 8.01,10.26 24.76,16.8 39,14.95 0.84,-0.1 5.43,-3.48 2.49,-7.42 z m -38.34,-60.4 c -4.47,-11.96 -17.79,-13.25 -29.14,-15.62 -2.12,-0.45 -8.64,0 -11.57,2.88 -4.9,4.79 -9.14,11.34 -8.29,19.53 0.46,5.06 4.68,10.02 9.9,12.03 9.47,3.68 20.7,9.58 30.03,4.34 8.03,-4.49 12.24,-14.73 9.07,-23.16 z m -24.55,-63.21 c -3.26,-4.72 -11.64,10.94 -12.73,18.12 -3.13,20.76 15.07,26.07 30.24,25.43 0.47,-12.39 -9.13,-31.57 -17.51,-43.55 z m -16.38,-56.04 c -2.98,-8.35 -4.41,-16.03 -7.73,-23.68 -3.21,-7.41 -16.969,-10.04 -24.598,-7.68 -10.898,3.38 -20.238,27.84 -7.855,37.21 9.472,7.08 19.289,8.22 31.353,9.69 2.17,0.27 10.28,-0.22 10.6,-0.98 2.02,-5.08 0.74,-7.62 -1.77,-14.56 z m -18.34,-64.58 c -2.199,-6.42 -3.175,-13.02 -6.019,-19.19 -1.418,-3.13 -3.285,0.98 -3.359,1.18 -4.278,10.65 -6.977,19.66 -3.329,29.03 2.059,5.19 9.161,9.96 15.899,10.37 -0.414,-6.66 -0.887,-14.89 -3.192,-21.39 z M 974.082,1625 c -4.922,2.23 -4.848,8.56 -6.91,12.49 -1.942,3.84 -6.125,9.13 -4.402,14.16 9.496,-5.32 13.902,-14.82 11.312,-26.65 z m -16.383,39.32 c -11.336,9.31 -12.316,24.21 -19.863,35.61 8.332,5.34 22.391,4.27 26.707,-6.29 3.453,-8.47 5.965,-20.93 -2.629,-27.4 -0.934,-0.69 -3.144,-2.81 -4.215,-1.92 z m -42.25,76.85 c -1.695,2.43 -5.062,9.42 -2.5,10.32 20.281,6.98 35.504,7.21 39.832,-14.49 3.074,-15.48 -7.508,-28.78 -22.332,-23.36 -4.25,1.57 -8.457,18.06 -15,27.53 z m -29.496,48.99 c -1.422,1.78 -2.574,7.18 -0.808,8.56 10.546,8.48 26.031,9.12 38.015,7.95 15.817,-1.43 19.067,-16.13 16.43,-28.32 -3.481,-16.03 -27.809,-18.03 -34.695,-15.36 -6.766,2.6 -11.493,17.94 -18.942,27.17 z m 3.442,57.03 c 13.667,8.86 39.789,15.43 44.14,-8.56 1.324,-7.24 -0.476,-16.83 -10.254,-19.98 -10.027,-3.21 -21.84,-6.68 -31.008,-2.96 -11.265,4.61 -13.484,24.64 -2.878,31.5 z m -14.165,40.36 c 1.036,4.6 6.133,6.78 10.415,7.88 11.066,2.73 23.433,6.85 33.589,0.38 3.957,-2.51 4.262,-6.05 4.774,-11.02 0.898,-8.07 -0.246,-14.66 -5.555,-17.75 -10.781,-6.32 -21.742,-6.88 -34.265,-4.42 -10.157,2 -10.985,15.46 -8.958,24.93 z m -11.339,-62.21 c -9.465,7 -13.653,16.91 -20.629,26.71 -1.684,2.4 0,3.39 1.285,3.77 16.816,4.75 29.281,-3.64 26.664,-21.96 -0.469,-3.56 -2.781,-11.85 -7.32,-8.52 z m -46.379,56.61 c -6.301,5.44 -1.922,14.92 3.566,17.68 9.61,4.77 24.707,5.49 34.703,2.12 6.438,-2.16 9.684,-11.4 8.528,-21.46 -0.485,-4.14 -1.735,-8.68 -3.762,-10.02 -7.609,-5.19 -19.387,-5.39 -28.649,-3.47 -6.55,1.38 -8.878,10.34 -14.386,15.15 z m -7.262,57.25 c 6.09,13.25 28.309,13.36 40.402,7.46 9.856,-4.85 11.094,-23.19 0.332,-30.43 -8.582,-5.71 -22.113,-3.61 -31.218,-1.94 -12.934,2.38 -13.965,15.1 -9.516,24.91 z m 0.492,49.6 c 9.235,8.79 21.188,4.75 32.305,3.22 2.152,-0.31 4.719,-1.82 6.176,-3.28 7.593,-7.67 8.195,-20.23 -0.262,-26.52 -9.75,-7.25 -21.926,-2.54 -33.645,-1.95 -3.164,0.13 -6.644,3.85 -7.367,6.23 -2.109,7.42 -3.394,16.49 2.793,22.3 z m 5.953,41.5 c 9.789,4.09 26.633,5.97 33.571,-5.03 4.261,-6.75 3.019,-19.22 -3.817,-21.04 -6.687,-1.72 -29.453,-5.51 -34.902,7.08 -2.703,6.19 -1.563,16.17 5.148,18.99 z m 30.153,35.25 c 2.84,-1.25 4.605,-3.52 5.277,-7 1.395,-7.56 -0.594,-15.75 -7.844,-17.08 -10.886,-1.99 -27.051,-2.61 -26.996,12.78 0.039,17.17 16.957,16.98 29.563,11.3 z m -21.914,31.92 c 5.793,2.22 15.332,1.73 20.531,-0.99 2.621,-1.36 6.152,-5.67 4.668,-10.22 -1.848,-5.92 -7.36,-8.06 -13.629,-8.14 -6.02,-0.05 -12.918,0.42 -15.356,5.34 -2.304,4.66 -1.324,12.04 3.786,14.01 z m 6.765,25.75 c 5.297,1.93 13.129,1.8 16.985,-2.38 5.304,-5.8 1.117,-15 -8.883,-14.54 -3.528,0.14 -7.699,1.36 -9.828,2.57 -5.176,2.92 -3.457,12.5 1.726,14.35 z m 23.813,16.58 c 0.679,2.24 4.168,4.85 5.98,5.5 3.973,1.41 8.629,1.7 12.43,0.18 7.605,-3.12 6.562,-12.53 -1.559,-15.82 -3.633,-1.48 -9.211,-2.43 -11.949,-1.48 -5.117,1.74 -6.531,6.17 -4.902,11.62 z m 23.687,-36.76 c -8.297,-2.42 -19.851,-2.89 -22.328,5.6 -4.203,14.43 14.004,16.59 23.449,13.56 6.512,-2.06 8.813,-16.31 -1.121,-19.16 z m 5.485,47.63 c 2.628,8.94 12.761,13.78 21.933,11.06 7.891,-2.31 9.707,-13.07 4.379,-18.28 -2.41,-2.36 -6.406,-4.74 -10.703,-5.69 -9.379,-2.1 -18.598,3.07 -15.609,12.91 z m 41.254,-32.79 c -1.485,-5.83 -5.762,-9.84 -12.618,-11.36 -6.804,-1.49 -16.211,-1.91 -19.984,2.29 -3.602,3.98 -5.254,9.58 -2.25,13.88 6.023,8.55 17.043,11.55 26.875,9.37 5.601,-1.31 9.715,-7.04 7.977,-14.18 z m -3.657,34.3 c 3.657,8.12 12.953,12.2 21.875,9.48 1.785,-0.57 5.469,-3.46 5.977,-6.29 1.062,-5.64 -0.899,-10.8 -5.606,-13.74 -6.035,-3.84 -11.015,-6.01 -17.949,-3.17 -5.199,2.18 -6.473,8.93 -4.297,13.72 z m 38.438,-22.77 c 4.07,-6.9 -2.133,-13.84 -5.281,-15.73 -6.985,-4.09 -16.844,-6.61 -21.051,0.32 -4.145,6.8 -0.715,14.86 6.508,17.85 6.894,2.86 14.031,7.2 19.824,-2.44 z m 11.586,-26.37 c 4.558,-3.77 8.57,-11.7 3.093,-17.97 -5.132,-5.9 -11.519,-7.67 -19.582,-8.98 -5.464,-0.92 -12.441,3.12 -13.32,7.95 -0.816,4.14 -1.574,11.71 2.539,15.19 8.024,6.84 18.777,10.79 27.27,3.81 z m 9.672,44.98 c 4.308,-1.27 7.062,-5.82 4.902,-10.22 -1.313,-2.71 -5.18,-5.64 -7.645,-7.16 -6.769,-4.16 -12.574,-2.46 -14.691,2.52 -3.898,9.14 9.207,17.29 17.434,14.86 z m 16.503,-22.79 c 4.75,-0.43 6.93,-3.73 7.86,-7.37 1.23,-4.86 -0.37,-9.37 -4.48,-12.14 -4.895,-3.25 -10.993,-5.16 -15.868,-5.24 -6.59,-0.1 -12.699,9.56 -9.129,15.85 3.789,6.74 13.309,9.62 21.617,8.9 z m 27.28,-34.89 c 2.81,-8.28 -3.26,-12.14 -9.66,-15.54 -6.5,-3.48 -15.23,-6.71 -19.745,-2.4 -5.757,5.44 -8.332,14.58 -1.902,20.61 8.917,8.37 25.407,14.65 31.307,-2.67 z m 11.77,-20.78 c 10.46,-1.32 12.54,-16.2 10.43,-21.58 -2.39,-4.61 -7.66,-8.23 -10.43,-9.65 -7.67,-3.96 -16.64,-5.46 -23.69,-1.8 -6.43,3.33 -9.21,13.08 -5.72,20.73 4.73,10.33 19.63,13.6 29.41,12.3 z m 21.52,-46.03 c 3.59,-5.01 2.8,-13.89 0.68,-16.66 -6.6,-9.02 -24.96,-14.17 -32.54,-10.48 -5.75,2.82 -11.44,15.5 -4.69,23.12 7,7.89 19.21,12.61 30.3,10.29 2.46,-0.54 4.09,-3.26 6.25,-6.27 z m 4.64,-28.37 c 5.04,-0.54 9.51,-6.08 11.95,-12.11 3.16,-7.8 -0.04,-16.9 -2.54,-18.59 -6.02,-4.09 -25.08,-15.57 -37.08,-8.7 -6.6,3.79 -8.42,12.44 -8.83,17.56 -1.33,16.5 23.72,23.26 36.5,21.84 z m -70.389,-118.1 c -2.571,6.56 -4.946,16.24 0.199,20.23 10.39,8.19 33.89,15.37 42.83,2.97 5.82,-8.06 4.11,-21.7 -6.07,-26.93 -10.5,-5.36 -31.037,-11.53 -36.959,3.73 z m -50.414,-0.72 c 10.429,5.31 25.457,11.7 36.687,4.47 5.137,-3.29 10.442,-16.96 6.817,-23.02 -7.696,-12.87 -27.961,-16.15 -40.844,-12.84 -10.969,2.85 -14.274,25.53 -2.66,31.39 z m -9.375,44.49 c 12.582,8.86 37.441,14.58 43.422,-4.76 1.55,-5.02 2.441,-10.57 -0.122,-14.62 -6.976,-11.22 -24.664,-14.17 -36.496,-12.5 -12.804,1.86 -18.847,23.44 -6.804,31.88 z m -10.59,45.08 c 12.09,6.86 37.855,15.97 43.918,-3.67 2.43,-8.03 2.183,-17.95 -4.692,-21.49 -9.851,-5.17 -25.46,-10.58 -36.812,-3.5 -9.477,6 -10.758,23.89 -2.414,28.66 z m 67.676,81.03 c -5.071,-4.52 -10.207,-5.49 -16.95,-7.78 -9.437,-3.2 -19.312,4.07 -20.402,13.1 -1.816,15.45 14.75,17.76 25.715,19.69 7.98,1.44 12.93,-5.74 14.402,-10.56 1.504,-4.64 1.309,-10.87 -2.765,-14.45 z m 20.302,-36.37 c -7.19,-10.71 -36.166,-17.45 -42.556,-6.43 -4.668,8.06 -7.567,19.39 1.203,24.8 9.219,5.66 20.137,9.05 30.863,7.11 10.08,-1.77 15.21,-18.36 10.49,-25.48 z m 15.44,-66.33 c 4.13,-6.56 7.01,-15.38 0.89,-23.52 -5.55,-7.46 -25.37,-10.94 -35.519,-8.48 -5.566,1.4 -8.195,8.16 -9.051,12.72 -1.172,6.17 -1.73,12.38 3.731,17.42 7.855,7.19 18.339,7.03 28.409,7.03 4.14,0 9.99,-2.68 11.54,-5.17 z m -5.75,22.26 c -6.17,-11.34 -27.09,-12.8 -36.492,-11.55 -6.625,0.89 -11.289,11.57 -11.094,20.51 0.066,4.59 1.5,7.64 4.648,9.33 10.438,5.6 21.133,9.35 32.368,7.53 10.96,-1.74 15.22,-17.23 10.57,-25.82 z m -110.07,24.42 c -7.118,21.88 20.218,28.78 36.168,25.41 11.105,-2.31 14.816,-23.65 4.48,-30.38 -12.777,-8.32 -35.477,-11.01 -40.648,4.97 z m -41.219,-53.72 c 8.187,8.44 22.972,8.96 34.511,7.42 7.086,-0.99 10.141,-8.15 11.126,-15.93 2.765,-21.37 -25.938,-24.97 -39.594,-19.97 -9.004,3.29 -13.68,20.58 -6.043,28.48 z m -5.781,41.41 c 8.566,10.07 22.875,12.46 34.738,9.2 7.238,-1.97 10.59,-10.43 10.426,-19.91 -0.137,-5.38 -3.829,-9.28 -7.137,-10.64 -8.434,-3.42 -18.168,-5.97 -27.371,-4.85 -11.34,1.4 -18.219,17.27 -10.656,26.2 z m 1.363,45.11 c 10.527,4.29 30.144,8.13 33.453,-6.9 4.461,-20.03 -19.164,-23.29 -31.797,-19.8 -9.668,2.65 -11.504,22.72 -1.656,26.7 z m 75.73,33.09 c 7.867,-4.47 9.52,-17.08 4.731,-24.39 -6.367,-9.67 -28.133,-15.28 -39.848,-6.82 -6.68,4.85 -10.277,24.73 3.41,29.5 10.938,3.83 21.414,7.54 31.707,1.71 z m -11.16,14.38 c -8.926,-5.52 -21.656,-7.72 -30.098,-3.02 -7.343,4.01 -7.054,14.75 -3.417,20.51 5.988,9.62 20.859,10.67 31.132,7.66 8.864,-2.57 12.188,-19.05 2.383,-25.15 z m -72.281,15.68 c 0.902,2.86 2.176,3.67 3.957,4.54 7.5,3.58 15.746,4.55 22.93,-0.07 5.179,-3.36 4.726,-11.09 0.886,-15.11 -5.621,-5.91 -17.047,-6.16 -24.359,-2.31 -4.727,2.46 -4.941,8.29 -3.414,12.95 z m 2.398,-31.35 c 3.325,9.48 15.153,8.95 24.114,7.8 11.011,-1.44 13.218,-15.57 9.304,-21.5 -5.41,-8.21 -17.758,-6.63 -27.59,-5.39 -7.98,1.03 -8.46,11.61 -5.828,19.09 z m 155.51,-285.2 c 2.71,-10.71 0,-20.9 -9.53,-24.3 -12.249,-4.32 -28.812,-10.65 -38.609,-4.06 -11.195,7.51 -16.589,28.81 -3.718,37.17 15.195,9.93 45.437,16.45 51.857,-8.81 z m -16.506,33.3 c -8.238,-9.35 -21.672,-9.05 -34.859,-12.91 -5.094,-1.48 -11.125,3.01 -13.781,7.67 -4.875,8.71 -9.758,20.37 -0.418,28.77 7.742,7.05 18.281,6.46 27.757,9.28 4.25,1.29 9.457,2.77 14.618,-0.72 10.679,-7.29 14.839,-22.91 6.683,-32.09 z m 87.296,140.15 c 2.33,-6.81 5.45,-11.81 2.8,-18.59 -3.14,-8.32 -11.21,-9.46 -18.79,-12.2 -7.07,-2.56 -18.86,-5.8 -24.78,0.4 -6.8,7.04 -9.55,21.39 -1.41,27.54 10.56,7.86 36.61,18.7 42.18,2.85 z m 143.3,61.18 c 6.23,25.39 13.96,51.14 15.9,77.97 2.85,40.08 -5.8,81.72 -31.5,112.08 2.52,-13.08 5.88,-24.15 7.64,-37.89 2.08,-16.58 -0.25,-35.06 -4.54,-51.76 -3.25,-12.65 -8.94,-24.93 -14.59,-36.67 -6.66,-13.92 -16.63,-29.04 -26.56,-41.45 -27.8,-34.59 -71.13,-102.08 -71.13,-102.08 0,0 -3.63,0.27 -5.79,0.27 -0.5,8.4 19.45,37.22 29.51,53.35 22.09,35.34 38.83,54.37 58.04,85.03 12.05,19.32 21.23,42.83 24.19,64.15 5.99,43.43 -17.43,95.48 -51.1,112.8 7.7,-32.45 6.89,-78.16 -10.38,-97.4 -32.69,-36.43 -52.12,-63.69 -75.46,-110.39 -0.66,-1.26 -6.12,6.29 -10.63,9.23 -5.07,3.35 -2.23,13.36 -4.05,20.11 -1.64,5.73 -4.34,10.14 -5.13,11.15 -6.91,8.46 -13.59,8.99 -15.04,11.53 -1.67,2.86 -0.87,10 -6.89,18.14 -3.01,4.08 -10.68,7.11 -13.8,10.95 -3.37,4.21 -4.91,17.06 -14.22,22.33 -4.417,2.48 -6.468,10.19 -10.71,13.97 -13.09,11.59 -26.157,9.35 -28.657,10.08 -3.367,0.91 -9.937,9.27 -21.632,11.28 -11.442,1.94 -17.735,-5.68 -23.664,-2.92 -14.899,6.89 -29.165,7.46 -44.989,-10.18 -4.754,-5.25 -12.957,-0.35 -23.211,-8.18 -8.996,-6.86 -9.16,-13.2 -13.75,-14.07 -8.609,-1.61 -15.023,-8.5 -18.351,-16.02 -1.719,-3.88 -3.016,-11.7 -4.024,-16.86 -1.41,-7.12 -5.011,-13.7 -5.082,-18.93 -0.082,-7.28 2.215,-11.22 1.575,-14.47 -1.063,-4.72 -4.879,-9.03 -5.344,-13.44 -0.352,-2.5 -0.559,-9.17 1.261,-12.91 2.29,-4.62 -1.613,-8.64 -3.632,-13.56 -1.93,-4.59 -3.965,-12.42 -3.352,-17.95 0.82,-7.6 5.164,-10.37 1.793,-16.35 -5.543,-9.72 -12.539,-24.89 -0.269,-44.26 2.25,-3.54 -5.141,-10.42 -5.555,-20.54 -0.473,-10.99 6.172,-19.12 7.98,-24 0.348,-1.74 -2.914,-1.64 -3.031,-3.52 -29.223,30.89 -55.074,59.39 -88.953,86.21 -20.703,16.37 -41.176,30.13 -64.117,42.41 -61.285,32.86 -132.488,54.85 -196.988,46.83 24.289,-19.57 54.937,-33.52 79.89,-55.72 23.641,-21.06 45.09,-39.04 66.621,-61.42 33.797,-35.1 61.258,-70.7 89.871,-112 8.496,-12.23 14.09,-20.42 22.012,-33.17 7.98,-12.76 16.836,-26.32 24.102,-38.96 36.617,-63.58 66.621,-122.44 96.98,-187.59 8.426,-18.02 15.504,-36.88 23.766,-54.79 2.207,-4.85 5.375,-1.25 7.605,0 10.985,6.36 22.649,11.66 34.055,17.04 9.094,4.18 17.375,7.06 25.508,10.19 20.543,7.82 40.035,12.07 61.55,16.54 35.912,7.52 100.432,5.98 100.432,5.98 l 122.35,0.05 c 0.78,0 1.61,0 3.33,0 -1.28,35.06 -9.6,69.13 -11.63,104.31 -1.55,28.49 -0.6,56.04 0.41,84.59 2.73,77.36 14.1,160.39 31.38,230.88" /><path
             id="path54"
             style="fill:#ffffff;fill-opacity:1;fill-rule:nonzero;stroke:none"
             d="m 395.141,2295.17 c -23.875,-23.81 -30.993,-32.56 -44.914,-58.88 -8.196,-15.47 -18.606,-35.33 -21.575,-60.93 49.051,18.67 89.075,56.78 125.235,98.87 26.754,31.2 47.504,72.6 73.883,103.42 -46.465,-15.58 -95.5,-45.51 -132.629,-82.48" /><path
             id="path56"
             style="fill:#ffffff;fill-opacity:1;fill-rule:nonzero;stroke:none"
             d="m 254.711,2228.25 c 18.496,31.25 44.984,65.02 72.441,88.07 -12.718,-28.58 -28.379,-56.88 -33.761,-90.68 -10.676,-67.26 -20.75,-114.39 -31.911,-175.78 30.508,21.75 62.684,55.94 95.036,79.82 24.992,18.36 50.043,30.63 75.754,48.3 15.273,10.54 25.242,24.08 37.945,36.76 -15.141,-63.84 -71.16,-128.26 -111.274,-158.31 -50.386,-37.79 -68.449,-43.81 -149.425,-126.15 -10.278,101.67 -8.446,207.33 45.195,297.97" /><path
             id="path58"
             style="fill:#ffffff;fill-opacity:1;fill-rule:nonzero;stroke:none"
             d="m 89.5234,1890.6 c 3.7735,52.8 10.1055,95.02 22.9336,146.52 8.984,35.97 28.34,89.5 56.238,111.47 -3.414,-13.05 -5.211,-32.6 -6.527,-45.79 -5.469,-54.4 4.941,-117.57 6.184,-171.91 0.617,-26.71 0.382,-47.31 -3.61,-72.42 -4.14,-26.32 -0.683,-58.61 -0.683,-58.61 0,0 14.414,16.47 27.293,36.99 28.152,44.7 37.164,57.97 59.836,82.19 28.132,30.04 59.597,57.87 95.124,82.52 -4.281,-16.7 -22.421,-49.17 -29.921,-62.21 -10.004,-17.46 -14.539,-33.31 -38.211,-72.85 -33.313,-55.55 -48.157,-63.05 -85.145,-122.45 -8,-12.92 -40.844,-62.07 -48.801,-77.09 -17.324,35.87 -23.867,67.2 -45.1168,125.57 -13.3555,36.67 -11.3633,73.36 -9.5938,98.07" /><path
             id="path60"
             style="fill:#ffffff;fill-opacity:1;fill-rule:nonzero;stroke:none"
             d="m 38.0938,1615.93 c -20.086,52.08 -29.29302,100.4 -36.09771,155.22 -4.16015,33.56 -2.226559,78.27 9.74221,110.53 3.1445,-7.88 9.5469,-27.87 10.4179,-30.86 8.9102,-29.96 12.6329,-44.35 25.0782,-73.25 9.5273,-22.17 21.1679,-39.83 33.6328,-61.73 11.3242,-20 20.8908,-46.31 29.0818,-66.46 26.375,-64.56 28.328,-125.01 38.414,-131.61 7.262,15.54 9.535,30.42 10.348,37.74 7.836,71.45 17.25,136.39 107.223,220.61 8.261,-25.07 4.07,-71.28 -0.879,-96.03 -10.762,-54.12 -19.453,-80.12 -43.285,-132.57 -12.598,-27.62 -29.422,-68.26 -34.036,-81.72 -12.082,-35.07 -16.218,-53.45 -23.812,-74.19 -42.481,70.78 -94.7658,143.87 -125.8282,224.32" /><path
             id="path62"
             style="fill:#ffffff;fill-opacity:1;fill-rule:nonzero;stroke:none"
             d="m 108.121,1290.31 c -30.2382,42.11 -41.2655,63.27 -60.9491,108.07 -16.5235,37.6 -21.2774,51.53 -30.961,93.63 -5.2851,22.95 -8.27731,43.78 -4.1718,57.35 23.6836,-42.87 39.8398,-90.86 70.8164,-126.4 24.5855,-28.21 48.2735,-52.24 67.8205,-76.04 29.992,-36.59 53.609,-71.22 82.386,-109.3 2.422,19.08 3.36,38.43 -0.929,69.71 -5.856,42.86 -2.246,77.99 5.246,119.49 9.48,52.64 16.445,78.71 34.711,131.97 22.348,-43.83 22.262,-94.53 27.871,-141.01 10.824,-90.21 -17.387,-197.78 -22.941,-242.61 -1.485,-11.82 0.562,-40.97 1.16,-52.33 -42.203,33.25 -79.742,66.8 -116.141,103.3 -16.586,16.54 -39.344,43.96 -53.918,64.17" /><path
             id="path64"
             style="fill:#ffffff;fill-opacity:1;fill-rule:nonzero;stroke:none"
             d="m 268.105,959.531 c -19.218,13.84 -70.843,53.299 -95.289,84.359 -35.597,45.21 -43.441,64.58 -66.925,116.59 -2.868,6.34 -16.1644,35.78 -17.2465,55.77 76.9375,-92.91 145.8245,-106.74 219.2225,-183.83 26.938,-28.25 54.52,-54.83 69.071,-68.158 11.175,-10.274 25.05,-13.403 25.05,-13.403 0,0 -1.445,19.813 -8.691,33.582 -48.965,93.619 -58.207,191.449 -50.781,296.459 22.351,-27.68 29.402,-46.14 43.582,-72.91 15.433,-29.15 23.3,-47.18 30.511,-65.12 41.903,-104.28 52.801,-224.729 78.696,-285.358 -79.914,26.918 -142.844,41.297 -227.2,102.019" /><path
             id="path66"
             style="fill:#ffffff;fill-opacity:1;fill-rule:nonzero;stroke:none"
             d="m 595.828,713.449 c -21.613,-1.469 -63.996,-1.328 -86.586,2.352 C 394.848,734.102 288.512,817 235.027,908.078 c 48.496,-29.59 83.563,-49.348 126.219,-64.117 37.977,-13.121 74.004,-17.012 137.41,-35.02 38.262,-10.8 76.145,-26.132 89.453,-31.113 42.418,-15.797 60.282,-11.906 60.282,-11.906 0,0 0,6.437 -15.848,23.726 -31.574,34.461 -43.141,42.711 -69.121,69.192 -8.527,8.762 -28.074,38.488 -37.996,58.25 -28.071,55.879 -31.192,100.68 -56.828,162.05 93.558,-54.93 139.129,-130.73 188.59,-226.32 15.21,-29.25 35.777,-63.058 54.57,-81.66 12.633,-12.461 30.445,-31.41 30.445,-31.41 0,0 -13.047,-3.078 -53.672,-9.07 -18.219,-2.668 -57.051,-14.75 -92.703,-17.231" /><path
             id="path68"
             style="fill:#ffffff;fill-opacity:1;fill-rule:nonzero;stroke:none"
             d="m 1049.31,706.18 c 49.4,-8.059 93.28,-20.071 138.19,-35.481 12.09,-4.148 30.45,-13.289 43.17,-19.73 31.85,-16.188 50.16,-26.719 77.52,-45.539 44.07,-30.34 91.41,-63.039 134.12,-112.66 0.92,-0.981 7.82,-8.36 3.22,-11.969 -8.36,-6.539 -28.99,-15.903 -35.84,-9.832 -39.09,34.75 -37.12,45.89 -84.49,88.781 -12.14,10.93 -30.48,26.289 -52.39,41.27 -21.38,14.628 -47.22,30.609 -71.22,42.449 -21.82,10.73 -55.43,13.941 -74.3,13.941 l 0.26,-0.129 c -8.57,0.34 -57.84,0.598 -69.24,-0.14 -96.806,-6.629 -92.072,-15.289 -147.888,-30.411 -45.91,-12.492 -95.164,-21.39 -144.055,-27.949 -50.09,-6.801 -94.906,-7.621 -141.859,-2.82 -63.649,6.539 -133.278,24.289 -185.238,57.769 47.511,-0.8 96.3,-9.929 143.566,-6.308 19.894,1.539 52.16,4.527 74.012,11.269 43.422,13.329 68.328,18.547 114.308,31.348 39.512,11.012 79.348,14.813 120.606,19.152 57.105,6.118 109.998,4.739 157.548,-3.011" /><path
             id="path70"
             style="fill:#ffffff;fill-opacity:1;fill-rule:nonzero;stroke:none"
             d="m 1934.52,2295.17 c 23.89,-23.81 31.03,-32.56 44.96,-58.88 8.19,-15.47 18.6,-35.33 21.56,-60.93 -49.08,18.67 -89.06,56.78 -125.25,98.87 -26.77,31.2 -47.49,72.6 -73.88,103.42 46.48,-15.58 95.51,-45.51 132.61,-82.48" /><path
             id="path72"
             style="fill:#ffffff;fill-opacity:1;fill-rule:nonzero;stroke:none"
             d="m 2074.99,2228.25 c -18.52,31.25 -44.99,65.02 -72.45,88.07 12.85,-30.75 31.57,-69.05 33.76,-90.68 6.83,-67.74 20.75,-114.39 31.92,-175.78 -30.5,21.75 -62.72,55.94 -95.06,79.82 -24.94,18.36 -50.03,30.63 -75.7,48.3 -15.32,10.54 -25.26,24.08 -37.98,36.76 15.14,-63.84 71.16,-128.26 111.28,-158.31 50.37,-37.79 68.44,-43.81 149.37,-126.15 10.28,101.67 8.46,207.33 -45.14,297.97" /><path
             id="path74"
             style="fill:#ffffff;fill-opacity:1;fill-rule:nonzero;stroke:none"
             d="m 2240.16,1890.6 c -3.8,52.8 -10.07,95.02 -22.92,146.52 -8.98,35.97 -28.34,89.5 -56.29,111.47 3.46,-13.05 5.23,-32.6 6.57,-45.79 5.51,-54.4 -4.89,-117.57 -6.18,-171.91 -0.61,-26.71 -0.39,-47.31 3.59,-72.42 4.15,-26.32 0.72,-58.61 0.72,-58.61 0,0 -14.42,16.47 -27.33,36.99 -28.09,44.7 -37.12,57.97 -59.85,82.19 -28.1,30.04 -59.59,57.87 -95.13,82.52 4.33,-16.7 22.46,-49.17 29.96,-62.21 10.04,-17.46 14.52,-33.31 38.22,-72.85 33.3,-55.55 48.15,-63.05 85.1,-122.45 8,-12.92 40.9,-62.07 48.84,-77.09 17.34,35.87 23.86,67.2 45.13,125.57 13.38,36.67 11.38,73.36 9.57,98.07" /><path
             id="path76"
             style="fill:#ffffff;fill-opacity:1;fill-rule:nonzero;stroke:none"
             d="m 2291.6,1615.93 c 20.08,52.08 29.26,100.4 36.11,155.22 4.17,33.56 2.2,78.27 -9.74,110.53 -3.15,-7.88 -9.54,-27.87 -10.43,-30.86 -8.93,-29.96 -12.63,-44.35 -25.05,-73.25 -9.53,-22.17 -21.24,-39.83 -33.66,-61.73 -11.33,-20 -20.88,-46.31 -29.13,-66.46 -26.33,-64.56 -28.28,-125.01 -38.38,-131.61 -7.28,15.54 -9.54,30.42 -10.33,37.74 -7.85,71.45 -17.26,136.39 -107.23,220.61 -8.28,-25.07 -4.08,-71.28 0.84,-96.03 10.81,-54.12 19.53,-80.12 43.32,-132.57 12.6,-27.62 29.43,-68.26 34.07,-81.72 12,-35.07 16.17,-53.45 23.82,-74.19 42.45,70.78 94.73,143.87 125.79,224.32" /><path
             id="path78"
             style="fill:#ffffff;fill-opacity:1;fill-rule:nonzero;stroke:none"
             d="m 2221.57,1290.31 c 30.28,42.11 41.27,63.27 60.94,108.07 16.54,37.6 21.26,51.53 30.98,93.63 5.29,22.95 8.26,43.78 4.15,57.35 -23.62,-42.87 -39.86,-90.86 -70.84,-126.4 -24.54,-28.21 -48.23,-52.24 -67.79,-76.04 -29.95,-36.59 -53.63,-71.22 -82.37,-109.3 -2.41,19.08 -3.39,38.43 0.88,69.71 5.88,42.86 2.27,77.99 -5.2,119.49 -9.5,52.64 -16.45,78.71 -34.71,131.97 -22.32,-43.83 -22.25,-94.53 -27.88,-141.01 -10.85,-90.21 17.44,-197.78 22.98,-242.61 1.45,-11.82 -0.6,-40.97 -1.19,-52.33 42.2,33.25 79.74,66.8 116.14,103.3 16.58,16.54 39.29,43.96 53.91,64.17" /><path
             id="path80"
             style="fill:#ffffff;fill-opacity:1;fill-rule:nonzero;stroke:none"
             d="m 2061.6,959.531 c 19.2,13.84 70.85,53.299 95.28,84.359 35.6,45.21 43.44,64.58 66.93,116.59 2.83,6.34 16.16,35.78 17.24,55.77 -76.93,-92.91 -145.83,-106.74 -219.23,-183.83 -26.91,-28.25 -54.49,-54.83 -69.05,-68.158 -11.18,-10.274 -25.05,-13.403 -25.05,-13.403 0,0 1.44,19.813 8.66,33.582 48.99,93.619 58.23,191.449 50.76,296.459 -22.27,-27.68 -29.37,-46.14 -43.54,-72.91 -15.4,-29.15 -23.3,-47.18 -30.48,-65.12 -41.93,-104.28 -52.89,-224.729 -78.76,-285.358 79.98,26.918 142.88,41.297 227.24,102.019" /><path
             id="path82"
             style="fill:#ffffff;fill-opacity:1;fill-rule:nonzero;stroke:none"
             d="m 1733.86,713.449 c 21.66,-1.469 64.01,-1.328 86.63,2.352 114.38,18.301 220.69,101.199 274.18,192.277 -48.55,-29.59 -83.61,-49.348 -126.22,-64.117 -38.01,-13.121 -74.01,-17.012 -137.38,-35.02 -38.3,-10.8 -76.17,-26.132 -89.49,-31.113 -42.41,-15.797 -60.28,-11.906 -60.28,-11.906 0,0 0,6.437 15.84,23.726 31.59,34.461 43.17,42.711 69.1,69.192 8.55,8.762 28.11,38.488 38.02,58.25 28.07,55.879 31.2,100.68 56.87,162.05 -93.56,-54.93 -139.23,-130.73 -188.65,-226.32 -15.19,-29.25 -35.74,-63.058 -54.52,-81.66 -12.62,-12.461 -30.46,-31.41 -30.46,-31.41 0,0 13.04,-3.078 53.69,-9.07 18.2,-2.668 57,-14.75 92.67,-17.231" /><path
             id="path84"
             style="fill:#ffffff;fill-opacity:1;fill-rule:nonzero;stroke:none"
             d="m 1280.38,706.18 c -49.38,-8.059 -93.23,-20.071 -138.18,-35.481 -12.13,-4.148 -30.46,-13.289 -43.18,-19.73 -31.84,-16.188 -50.12,-26.719 -77.51,-45.539 -44.108,-30.34 -91.377,-63.039 -134.127,-112.66 -0.922,-0.981 -7.852,-8.36 -3.223,-11.969 8.391,-6.539 29.028,-15.903 35.817,-9.832 39.105,34.75 37.117,45.89 84.523,88.781 12.1,10.93 30.43,26.289 52.39,41.27 21.42,14.628 47.18,30.609 71.22,42.449 21.78,10.73 55.45,13.941 74.29,13.941 l -0.28,-0.129 c 8.59,0.34 57.84,0.598 69.27,-0.14 96.82,-6.629 92.05,-15.289 147.85,-30.411 45.94,-12.492 95.19,-21.39 144.08,-27.949 50.06,-6.801 94.92,-7.621 141.86,-2.82 63.66,6.539 133.26,24.289 185.21,57.769 -47.48,-0.8 -96.24,-9.929 -143.56,-6.308 -19.9,1.539 -52.13,4.527 -73.98,11.269 -43.43,13.329 -68.36,18.547 -114.31,31.348 -39.51,11.012 -79.35,14.813 -120.59,19.152 -57.12,6.118 -110.02,4.739 -157.57,-3.011" /><path
             id="path86"
             style="fill:#ffffff;fill-opacity:1;fill-rule:nonzero;stroke:none"
             d="m 1103.64,2834.65 -86.95,-322.88 h -92.311 l -57.742,210.34 -56.449,-210.34 h -92.083 l -86.953,322.88 h 86.91 l 49.528,-222.26 59.582,222.26 h 83.055 l 56.527,-222.26 52.006,222.26 h 84.88" /><path
             id="path88"
             style="fill:#ffffff;fill-opacity:1;fill-rule:nonzero;stroke:none"
             d="m 1390.52,2772.2 h -148.53 v -60.07 h 137.69 v -62.45 h -137.69 v -137.91 h -82.83 v 322.88 h 231.36 v -62.45" /><path
             id="path90"
             style="fill:#ffffff;fill-opacity:1;fill-rule:nonzero;stroke:none"
             d="m 1628.4,2730.88 c 0,9.09 -2.47,16.91 -7.38,23.47 -4.91,6.57 -10.62,11.15 -17.13,13.74 -8.67,3.46 -17.13,5.37 -25.36,5.73 -8.25,0.36 -19.23,0.55 -32.97,0.55 h -14.31 v -96.5 h 23.85 c 14.17,0 25.84,0.87 35.03,2.6 9.18,1.73 16.87,5.2 23.09,10.39 5.34,4.61 9.21,10.13 11.59,16.54 2.39,6.42 3.59,14.25 3.59,23.48 z m 86.09,1.85 c 0,-14.45 -2.54,-28.58 -7.6,-42.39 -5.06,-13.8 -12.29,-25.4 -21.68,-34.8 -12.87,-12.73 -27.21,-22.34 -43.05,-28.84 -15.82,-6.5 -35.52,-9.75 -59.08,-9.75 h -51.83 v -105.18 h -83.27 v 322.88 h 137.05 c 20.52,0 37.83,-1.77 51.93,-5.31 14.09,-3.55 26.57,-8.86 37.41,-15.95 13.01,-8.53 22.95,-19.43 29.81,-32.73 6.86,-13.31 10.31,-29.28 10.31,-47.93" /><path
             id="path92"
             style="fill:#ffffff;fill-opacity:1;fill-rule:nonzero;stroke:none"
             d="M 498.691,257.871 440.648,70.5703 h -63.75 L 338.73,196.84 301.023,70.5703 H 236.645 L 179.102,257.871 h 62.988 l 32.152,-129.09 39.969,129.09 h 53.207 l 37.996,-129.09 31.637,129.09 h 61.64" /><path
             id="path94"
             style="fill:#ffffff;fill-opacity:1;fill-rule:nonzero;stroke:none"
             d="m 649.148,286.059 h -4.492 c -2.66,0.793 -6.121,1.679 -10.386,2.671 -4.274,1 -8.848,1.508 -13.727,1.508 -11.758,0 -19.715,-2.109 -23.867,-6.34 -4.16,-4.226 -6.238,-12.386 -6.238,-24.519 v -1.508 h 46.203 v -40.68 H 592.438 V 70.5703 H 532.223 V 217.191 h -25.692 v 40.68 h 25.692 v 5.18 c 0,22.898 6.093,40.09 18.265,51.539 12.18,11.461 30.61,17.18 55.293,17.18 8.899,0 16.961,-0.301 24.184,-0.918 7.23,-0.602 13.629,-1.411 19.183,-2.422 v -42.371" /><path
             id="path96"
             style="fill:#ffffff;fill-opacity:1;fill-rule:nonzero;stroke:none"
             d="m 788.531,165.551 c 0,18.211 -3.109,31.429 -9.316,39.64 -6.219,8.207 -16.035,12.321 -29.465,12.321 -5.656,0 -11.48,-0.871 -17.469,-2.59 -5.992,-1.711 -11.699,-4.184 -17.14,-7.402 v -94.09 c 3.992,-1.551 8.265,-2.559 12.812,-3.008 4.547,-0.442 9.043,-0.66 13.485,-0.66 15.859,0 27.679,4.636 35.449,13.886 7.758,9.282 11.644,23.25 11.644,41.903 z m 61.879,1.258 c 0,-15.457 -2.363,-29.52 -7.074,-42.207 -4.723,-12.672 -10.918,-23.122 -18.578,-31.352 -7.996,-8.6797 -17.055,-15.2305 -27.156,-19.668 -10.106,-4.4726 -20.93,-6.6836 -32.489,-6.6836 -10.656,0 -19.718,1.1407 -27.152,3.4102 -7.441,2.293 -15.047,5.4805 -22.82,9.5898 V 1.83984 H 654.926 V 257.871 h 60.215 v -19.512 c 9.211,7.332 18.629,13.282 28.238,17.852 9.601,4.559 20.68,6.84 33.238,6.84 23.317,0 41.449,-8.571 54.391,-25.692 12.933,-17.121 19.402,-40.64 19.402,-70.55" /><path
             id="path98"
             style="fill:#ffffff;fill-opacity:1;fill-rule:nonzero;stroke:none"
             d="m 878.871,70.5703 h 62.3906 v 65.5391 H 878.871 Z" /><path
             id="path100"
             style="fill:#ffffff;fill-opacity:1;fill-rule:nonzero;stroke:none"
             d="m 1100.65,118.609 c 3.89,4.77 6.81,10.52 8.76,17.25 1.94,6.743 2.92,16.063 2.92,27.942 0,11.008 -1,20.23 -3,27.687 -2.01,7.461 -4.79,13.391 -8.34,17.852 -3.56,4.558 -7.85,7.781 -12.85,9.68 -5.01,1.878 -10.4,2.839 -16.18,2.839 -5.78,0 -10.92,-0.789 -15.43,-2.339 -4.5,-1.559 -8.82,-4.68 -12.93,-9.348 -3.66,-4.34 -6.58,-10.281 -8.75,-17.832 -2.17,-7.57 -3.25,-17.078 -3.25,-28.539 0,-10.219 0.94,-19.09 2.83,-26.602 1.89,-7.508 4.67,-13.551 8.34,-18.097 3.56,-4.332 7.82,-7.5 12.77,-9.512 4.94,-1.988 10.58,-3 16.92,-3 5.45,0 10.66,0.91 15.6,2.762 4.94,1.82 9.15,4.91 12.59,9.257 z m 73.9,45.52 c 0,-30.797 -8.99,-55.07 -26.94,-72.8009 -17.96,-17.7265 -43.18,-26.5976 -75.65,-26.5976 -32.46,0 -57.68,8.8711 -75.644,26.5976 -17.957,17.7309 -26.937,42.0039 -26.937,72.8009 0,31.031 9.035,55.391 27.105,73.07 18.066,17.672 43.226,26.52 75.476,26.52 32.69,0 57.96,-8.887 75.81,-26.688 17.85,-17.793 26.78,-42.09 26.78,-72.902" /><path
             id="path102"
             style="fill:#ffffff;fill-opacity:1;fill-rule:nonzero;stroke:none"
             d="m 1336.28,200.68 h -5.33 c -2.56,0.859 -6.66,1.539 -12.32,1.98 -5.66,0.449 -10.37,0.672 -14.14,0.672 -8.55,0 -16.09,-0.562 -22.63,-1.672 -6.55,-1.101 -13.6,-2.988 -21.14,-5.648 V 70.5703 H 1200.5 V 257.871 h 60.22 v -27.512 c 13.2,11.34 24.68,18.871 34.45,22.602 9.75,3.719 18.75,5.59 26.95,5.59 2.12,0 4.5,-0.063 7.17,-0.172 2.66,-0.117 4.99,-0.277 6.99,-0.508 V 200.68" /><path
             id="path104"
             style="fill:#ffffff;fill-opacity:1;fill-rule:nonzero;stroke:none"
             d="m 1475.15,129.609 v 84.903 c -3.44,1.437 -7.66,2.578 -12.65,3.41 -4.99,0.848 -9.49,1.258 -13.48,1.258 -15.76,0 -27.57,-4.532 -35.45,-13.602 -7.88,-9.047 -11.82,-21.699 -11.82,-37.937 0,-18.012 3.36,-30.582 10.08,-37.7 6.71,-7.132 16.66,-10.671 29.86,-10.671 6,0 11.88,0.949 17.65,2.832 5.76,1.886 11.04,4.386 15.81,7.507 z m 60.22,-37.5387 c 0,-17.5586 -2.51,-32.3515 -7.51,-44.3594 -5.01,-12.0117 -12.01,-21.4101 -21.02,-28.1914 -9,-6.8984 -19.88,-11.87106 -32.61,-14.93747 C 1461.49,1.53906 1447.12,0 1431.11,0 c -13,0 -25.83,0.789062 -38.44,2.33984 -12.63,1.55078 -23.55,3.44141 -32.78,5.67188 V 54.8789 h 7.33 c 7.33,-2.8984 16.26,-5.5273 26.81,-7.9297 10.55,-2.3789 19.99,-3.5781 28.32,-3.5781 11.1,0 20.13,1.0273 27.06,3.0898 6.95,2.0586 12.24,4.9805 15.91,8.7579 3.44,3.5624 5.94,8.1132 7.49,13.6718 1.56,5.5703 2.34,12.2305 2.34,20.0196 v 3.4882 c -7.23,-5.8789 -15.22,-10.5468 -23.99,-13.9882 -8.78,-3.461 -18.55,-5.1797 -29.32,-5.1797 -26.21,0 -46.43,7.8906 -60.64,23.6992 -14.22,15.7893 -21.32,39.7893 -21.32,72.0503 0,15.45 2.16,28.79 6.49,40.032 4.33,11.226 10.44,21.008 18.32,29.347 7.34,7.782 16.36,13.852 27.07,18.172 10.72,4.348 21.69,6.52 32.91,6.52 10.11,0 19.29,-1.192 27.58,-3.59 8.27,-2.402 15.79,-5.699 22.57,-9.93 l 2.17,8.34 h 58.38 V 92.0703" /><path
             id="path106"
             style="fill:#ffffff;fill-opacity:1;fill-rule:nonzero;stroke:none"
             d="M 1750.64,330.109 1618.36,16.5195 h -51.2 L 1698.9,330.109 h 51.74" /><path
             id="path108"
             style="fill:#ffffff;fill-opacity:1;fill-rule:nonzero;stroke:none"
             d="m 1918.21,188.32 c -0.33,12.578 -3.45,22.008 -9.34,28.36 -5.9,6.34 -15.07,9.5 -27.53,9.5 -11.56,0 -21.07,-2.989 -28.52,-8.989 -7.45,-6.031 -11.62,-15.652 -12.51,-28.871 z m 59.71,-35.179 h -137.44 c 0.89,-14.692 6.47,-25.922 16.76,-33.7 10.28,-7.793 25.44,-11.671 45.46,-11.671 12.67,0 24.96,2.269 36.86,6.832 11.9,4.558 21.29,9.437 28.19,14.668 h 6.67 V 81.082 c -13.57,-5.4531 -26.35,-9.4101 -38.37,-11.8515 -12.01,-2.4493 -25.3,-3.6719 -39.86,-3.6719 -37.59,0 -66.39,8.4609 -86.4,25.3398 -20.02,16.9216 -30.02,40.9926 -30.02,72.2426 0,30.91 9.47,55.41 28.43,73.468 18.96,18.071 44.95,27.11 77.98,27.11 30.47,0 53.38,-7.707 68.73,-23.09 15.34,-15.418 23.01,-37.578 23.01,-66.481 v -21.007" /><path
             id="path110"
             style="fill:#ffffff;fill-opacity:1;fill-rule:nonzero;stroke:none"
             d="m 2166.01,129.941 c 0,-19.339 -8.68,-34.941 -26.03,-46.7926 -17.35,-11.8281 -41.08,-17.7578 -71.22,-17.7578 -16.68,0 -31.8,1.5586 -45.37,4.668 -13.57,3.1328 -24.46,6.5625 -32.69,10.3516 v 49.3708 h 5.5 c 3,-2.121 6.47,-4.429 10.43,-6.929 3.94,-2.493 9.53,-5.18 16.76,-8.082 6.23,-2.559 13.29,-4.758 21.18,-6.59 7.9,-1.84 16.35,-2.75 25.36,-2.75 11.78,0 20.51,1.3 26.18,3.922 5.67,2.609 8.51,6.468 8.51,11.589 0,4.547 -1.67,7.86 -5.01,9.911 -3.33,2.07 -9.67,4.027 -19.01,5.929 -4.44,0.989 -10.48,2.09 -18.1,3.25 -7.61,1.168 -14.54,2.59 -20.77,4.258 -17,4.441 -29.63,11.371 -37.86,20.77 -8.23,9.39 -12.34,21.089 -12.34,35.113 0,18.019 8.53,33 25.61,44.937 17.06,11.95 40.39,17.942 69.96,17.942 14.01,0 27.45,-1.422 40.29,-4.262 12.84,-2.828 22.88,-5.867 30.11,-9.09 V 202.34 h -5.17 c -8.9,6.101 -19.04,11.082 -30.45,14.93 -11.39,3.839 -22.92,5.75 -34.6,5.75 -9.68,0 -17.82,-1.34 -24.44,-4 -6.62,-2.68 -9.92,-6.461 -9.92,-11.348 0,-4.453 1.49,-7.82 4.5,-10.16 3,-2.352 10.06,-4.692 21.18,-7.024 6.12,-1.218 12.7,-2.41 19.77,-3.578 7.05,-1.172 14.15,-2.648 21.26,-4.422 15.79,-4.117 27.47,-10.59 35.03,-19.437 7.56,-8.84 11.35,-19.871 11.35,-33.11" /><path
             id="path112"
             style="fill:#ffffff;fill-opacity:1;fill-rule:nonzero;stroke:none"
             d="m 2832.72,2052.73 c 0,12.52 -3.39,23.29 -10.15,32.33 -6.77,9.03 -14.64,15.35 -23.6,18.92 -11.94,4.76 -23.58,7.4 -34.94,7.9 -11.34,0.49 -26.47,0.74 -45.39,0.74 h -19.7 v -132.89 h 32.85 c 19.5,0 35.58,1.19 48.21,3.58 12.65,2.37 23.25,7.15 31.82,14.3 7.35,6.35 12.69,13.95 15.97,22.79 3.29,8.84 4.93,19.62 4.93,32.33 z m 118.55,2.56 c 0,-19.91 -3.49,-39.38 -10.45,-58.39 -6.97,-19.01 -16.92,-34.99 -29.86,-47.94 -17.72,-17.51 -37.48,-30.75 -59.28,-39.71 -21.8,-8.95 -48.93,-13.44 -81.37,-13.44 h -71.37 v -144.83 h -114.68 v 444.66 H 2773 c 28.26,0 52.1,-2.44 71.52,-7.32 19.41,-4.88 36.57,-12.2 51.51,-21.94 17.92,-11.76 31.6,-26.78 41.05,-45.1 9.46,-18.32 14.19,-40.32 14.19,-65.99" /><path
             id="path114"
             style="fill:#ffffff;fill-opacity:1;fill-rule:nonzero;stroke:none"
             d="m 3260.43,1983.92 h -9.53 c -4.57,1.58 -11.93,2.78 -22.05,3.57 -10.14,0.8 -18.58,1.19 -25.33,1.19 -15.29,0 -28.8,-0.98 -40.53,-2.98 -11.72,-1.98 -24.33,-5.38 -37.83,-10.15 v -224.57 h -107.81 v 335.36 h 107.81 v -49.27 c 23.63,20.31 44.19,33.79 61.67,40.46 17.48,6.67 33.57,10.01 48.28,10.01 3.76,0 8.04,-0.11 12.81,-0.31 4.77,-0.2 8.94,-0.48 12.51,-0.89 v -102.42" /><path
             id="path116"
             style="fill:#ffffff;fill-opacity:1;fill-rule:nonzero;stroke:none"
             d="m 3522.71,1836.99 c 6.96,8.56 12.19,18.86 15.67,30.9 3.49,12.05 5.24,28.72 5.24,50.03 0,19.71 -1.8,36.22 -5.38,49.56 -3.59,13.34 -8.57,24 -14.93,31.95 -6.38,8.18 -14.05,13.94 -22.99,17.33 -8.97,3.38 -18.63,5.08 -28.98,5.08 -10.35,0 -19.55,-1.4 -27.62,-4.18 -8.06,-2.8 -15.78,-8.36 -23.14,-16.72 -6.58,-7.76 -11.8,-18.42 -15.68,-31.96 -3.88,-13.53 -5.82,-30.55 -5.82,-51.06 0,-18.32 1.68,-34.19 5.07,-47.63 3.39,-13.44 8.36,-24.24 14.93,-32.4 6.37,-7.77 13.99,-13.45 22.84,-17.02 8.87,-3.58 18.97,-5.38 30.31,-5.38 9.77,0 19.07,1.64 27.94,4.93 8.84,3.28 16.36,8.8 22.54,16.57 z m 132.29,81.53 c 0,-55.14 -16.08,-98.6 -48.23,-130.36 -32.15,-31.75 -77.29,-47.62 -135.43,-47.62 -58.13,0 -103.27,15.87 -135.43,47.62 -32.15,31.76 -48.22,75.22 -48.22,130.36 0,55.54 16.17,99.14 48.53,130.79 32.34,31.65 77.39,47.48 135.12,47.48 58.53,0 103.77,-15.93 135.73,-47.78 31.95,-31.85 47.93,-75.35 47.93,-130.49" /><path
             id="path118"
             style="fill:#ffffff;fill-opacity:1;fill-rule:nonzero;stroke:none"
             d="m 3941.16,1856.7 v 151.99 c -6.16,2.6 -13.71,4.64 -22.65,6.13 -8.94,1.49 -16.99,2.24 -24.14,2.24 -28.21,0 -49.37,-8.12 -63.47,-24.33 -14.09,-16.23 -21.14,-38.87 -21.14,-67.94 0,-32.25 6.01,-54.75 18.02,-67.49 12.02,-12.74 29.84,-19.12 53.48,-19.12 10.73,0 21.25,1.7 31.58,5.08 10.34,3.38 19.76,7.85 28.32,13.44 z m 107.79,-67.19 c 0,-31.45 -4.48,-57.94 -13.44,-79.44 -8.96,-21.5 -21.49,-38.32 -37.62,-50.46 -16.12,-12.35 -35.59,-21.25 -58.38,-26.73 -22.8,-5.47 -48.53,-8.22 -77.19,-8.22 -23.3,0 -46.24,1.41 -68.85,4.19 -22.59,2.79 -42.15,6.17 -58.67,10.16 v 83.91 h 13.12 c 13.12,-5.18 29.13,-9.91 48.01,-14.19 18.88,-4.28 35.77,-6.42 50.7,-6.42 19.86,0 36.02,1.85 48.45,5.53 12.42,3.68 21.91,8.91 28.48,15.68 6.16,6.37 10.63,14.53 13.43,24.48 2.76,9.96 4.17,21.89 4.17,35.83 v 6.27 c -12.93,-10.54 -27.26,-18.92 -42.96,-25.07 -15.7,-6.18 -33.2,-9.26 -52.5,-9.26 -46.92,0 -83.11,14.12 -108.56,42.41 -25.46,28.25 -38.17,71.25 -38.17,129 0,27.66 3.89,51.55 11.63,71.66 7.75,20.11 18.69,37.62 32.81,52.56 13.11,13.92 29.27,24.79 48.46,32.55 19.19,7.76 38.83,11.64 58.91,11.64 18.09,0 34.55,-2.14 49.36,-6.42 14.81,-4.28 28.28,-10.19 40.41,-17.76 l 3.9,14.93 h 104.5 v -296.83" /><path
             id="path120"
             style="fill:#ffffff;fill-opacity:1;fill-rule:nonzero;stroke:none"
             d="m 4384.38,1983.92 h -9.51 c -4.58,1.58 -11.93,2.78 -22.06,3.57 -10.13,0.8 -18.57,1.19 -25.32,1.19 -15.31,0 -28.8,-0.98 -40.52,-2.98 -11.74,-1.98 -24.34,-5.38 -37.84,-10.15 v -224.57 h -107.81 v 335.36 h 107.81 v -49.27 c 23.62,20.31 44.19,33.79 61.67,40.46 17.47,6.67 33.56,10.01 48.26,10.01 3.77,0 8.04,-0.11 12.82,-0.31 4.77,-0.2 8.95,-0.48 12.5,-0.89 v -102.42" /><path
             id="path122"
             style="fill:#ffffff;fill-opacity:1;fill-rule:nonzero;stroke:none"
             d="m 4639.18,1838.71 v 69.65 c -14.53,-1.19 -30.24,-2.82 -47.17,-4.91 -16.92,-2.08 -29.76,-4.52 -38.52,-7.3 -10.76,-3.36 -18.96,-8.28 -24.63,-14.73 -5.68,-6.45 -8.52,-14.93 -8.52,-25.46 0,-6.94 0.59,-12.59 1.79,-16.96 1.2,-4.37 4.18,-8.53 8.96,-12.5 4.58,-3.97 10.06,-6.89 16.42,-8.78 6.37,-1.88 16.32,-2.83 29.88,-2.83 10.74,0 21.64,2.18 32.69,6.55 11.06,4.36 20.75,10.12 29.1,17.27 z m 0,-52.19 c -5.76,-4.38 -12.93,-9.66 -21.49,-15.83 -8.56,-6.17 -16.62,-11.04 -24.19,-14.63 -10.56,-4.77 -21.49,-8.31 -32.84,-10.59 -11.35,-2.29 -23.79,-3.44 -37.33,-3.44 -31.85,0 -58.53,9.85 -80.02,29.56 -21.5,19.72 -32.26,44.9 -32.26,75.55 0,24.49 5.47,44.5 16.42,60.03 10.95,15.52 26.47,27.76 46.59,36.73 19.9,8.95 44.59,15.33 74.05,19.11 29.46,3.78 60.03,6.56 91.68,8.36 v 1.79 c 0,18.52 -7.57,31.3 -22.7,38.37 -15.12,7.08 -37.42,10.61 -66.89,10.61 -17.71,0 -36.63,-3.14 -56.73,-9.41 -20.12,-6.27 -34.54,-11.09 -43.3,-14.49 h -9.86 v 80.94 c 11.36,2.98 29.81,6.52 55.4,10.59 25.57,4.09 51.21,6.12 76.89,6.12 61.11,0 105.27,-9.39 132.43,-28.22 27.19,-18.81 40.78,-48.33 40.78,-88.53 v -228.16 h -106.63 v 35.54" /><path
             id="path124"
             style="fill:#ffffff;fill-opacity:1;fill-rule:nonzero;stroke:none"
             d="m 5163.06,1988.68 v -237.7 h -107.79 v 167.54 c 0,16.31 -0.4,30.2 -1.2,41.65 -0.79,11.44 -2.98,20.76 -6.57,27.92 -3.59,7.17 -9.01,12.4 -16.27,15.68 -7.27,3.28 -17.47,4.92 -30.61,4.92 -10.57,0 -20.8,-2.13 -30.76,-6.41 -9.95,-4.28 -18.93,-8.82 -26.88,-13.6 v -237.7 h -107.81 v 335.36 h 107.81 v -37.03 c 18.5,14.53 36.19,25.88 53.09,34.04 16.9,8.16 35.59,12.24 56.08,12.24 22.06,0 41.56,-4.92 58.45,-14.77 16.9,-9.86 30.13,-24.34 39.66,-43.46 21.47,18.12 42.33,32.35 62.63,42.71 20.26,10.35 40.15,15.52 59.62,15.52 36.19,0 63.68,-10.84 82.46,-32.54 18.78,-21.7 28.18,-52.96 28.18,-93.77 v -218.3 h -107.8 v 167.54 c 0,16.51 -0.35,30.44 -1.05,41.8 -0.69,11.35 -2.84,20.61 -6.41,27.77 -3.4,7.17 -8.76,12.4 -16.13,15.68 -7.37,3.28 -17.72,4.92 -31.06,4.92 -8.96,0 -17.72,-1.53 -26.27,-4.62 -8.57,-3.08 -19.01,-8.21 -31.37,-15.39" /><path
             id="path126"
             style="fill:#ffffff;fill-opacity:1;fill-rule:nonzero;stroke:none"
             d="m 5676.48,1838.71 v 69.65 c -14.53,-1.19 -30.25,-2.82 -47.18,-4.91 -16.91,-2.08 -29.75,-4.52 -38.52,-7.3 -10.76,-3.36 -18.96,-8.28 -24.63,-14.73 -5.68,-6.45 -8.52,-14.93 -8.52,-25.46 0,-6.94 0.6,-12.59 1.8,-16.96 1.19,-4.37 4.17,-8.53 8.95,-12.5 4.58,-3.97 10.05,-6.89 16.43,-8.78 6.36,-1.88 16.32,-2.83 29.86,-2.83 10.75,0 21.64,2.18 32.71,6.55 11.03,4.36 20.74,10.12 29.1,17.27 z m 0,-52.19 c -5.77,-4.38 -12.94,-9.66 -21.49,-15.83 -8.57,-6.17 -16.64,-11.04 -24.19,-14.63 -10.57,-4.77 -21.5,-8.31 -32.85,-10.59 -11.35,-2.29 -23.78,-3.44 -37.33,-3.44 -31.85,0 -58.54,9.85 -80.03,29.56 -21.5,19.72 -32.25,44.9 -32.25,75.55 0,24.49 5.47,44.5 16.42,60.03 10.95,15.52 26.48,27.76 46.59,36.73 19.9,8.95 44.58,15.33 74.06,19.11 29.46,3.78 60.02,6.56 91.67,8.36 v 1.79 c 0,18.52 -7.57,31.3 -22.69,38.37 -15.14,7.08 -37.43,10.61 -66.9,10.61 -17.71,0 -36.63,-3.14 -56.73,-9.41 -20.12,-6.27 -34.54,-11.09 -43.29,-14.49 h -9.88 v 80.94 c 11.37,2.98 29.82,6.52 55.41,10.59 25.57,4.09 51.21,6.12 76.9,6.12 61.1,0 105.26,-9.39 132.42,-28.22 27.19,-18.81 40.77,-48.33 40.77,-88.53 v -228.16 h -106.61 v 35.54" /><path
             id="path128"
             style="fill:#ffffff;fill-opacity:1;fill-rule:nonzero;stroke:none"
             d="m 3050.42,1172.58 h -114.08 v 297.71 l -82.42,-193.19 h -79.13 l -82.42,193.19 v -297.71 h -108.11 v 444.64 h 133.19 l 100.04,-223.06 99.74,223.06 h 133.19 v -444.64" /><path
             id="path130"
             style="fill:#ffffff;fill-opacity:1;fill-rule:nonzero;stroke:none"
             d="M 3482.92,1172.58 H 3375.1 v 37.03 c -19.88,-15.14 -38.07,-26.63 -54.58,-34.49 -16.5,-7.86 -36.18,-11.8 -59.05,-11.8 -36.97,0 -65.46,10.65 -85.44,31.95 -19.99,21.31 -29.97,52.75 -29.97,94.37 v 218.28 h 107.81 V 1341.6 c 0,-16.92 0.54,-31 1.64,-42.26 1.09,-11.24 3.63,-20.56 7.61,-27.91 3.78,-7.37 9.51,-12.75 17.17,-16.14 7.66,-3.38 18.36,-5.07 32.11,-5.07 9.15,0 19.3,1.69 30.45,5.07 11.15,3.39 21.9,8.36 32.25,14.95 v 237.68 h 107.82 v -335.34" /><path
             id="path132"
             style="fill:#ffffff;fill-opacity:1;fill-rule:nonzero;stroke:none"
             d="m 3912.1,1172.58 h -107.79 v 166.33 c 0,13.54 -0.7,27.03 -2.09,40.47 -1.39,13.44 -3.79,23.33 -7.17,29.7 -3.98,7.36 -9.79,12.74 -17.46,16.13 -7.66,3.39 -18.38,5.07 -32.12,5.07 -9.74,0 -19.64,-1.6 -29.7,-4.77 -10.06,-3.18 -20.95,-8.27 -32.69,-15.24 v -237.69 h -107.81 v 335.34 h 107.81 v -37.02 c 19.08,14.93 37.42,26.38 55.02,34.35 17.59,7.94 37.13,11.93 58.59,11.93 36.2,0 64.48,-10.54 84.86,-31.64 20.38,-21.11 30.55,-52.67 30.55,-94.66 v -218.3" /><path
             id="path134"
             style="fill:#ffffff;fill-opacity:1;fill-rule:nonzero;stroke:none"
             d="m 4220.08,1264.89 v 164.78 c -7.55,3.19 -15.5,5.49 -23.83,6.88 -8.35,1.4 -15.99,2.1 -22.95,2.1 -28.22,0 -49.37,-8.83 -63.46,-26.47 -14.1,-17.64 -21.15,-42.12 -21.15,-73.42 0,-32.9 5.65,-56.79 16.97,-71.64 11.33,-14.85 29.51,-22.27 54.53,-22.27 9.73,0 20.06,1.83 30.98,5.53 10.93,3.69 20.56,8.53 28.91,14.51 z m 107.8,-92.31 h -107.8 v 34.94 c -18.5,-15.13 -35.8,-26.28 -51.9,-33.45 -16.11,-7.17 -34.7,-10.75 -55.77,-10.75 -40.77,0 -73.37,15.72 -97.83,47.19 -24.47,31.44 -36.68,73.85 -36.68,127.21 0,28.46 4.13,53.7 12.37,75.69 8.25,22 19.54,40.86 33.86,56.59 13.5,14.93 29.92,26.53 49.2,34.8 19.3,8.25 38.57,12.38 57.87,12.38 20.07,0 36.53,-2.14 49.36,-6.42 12.81,-4.28 26,-9.7 39.52,-16.27 v 142.74 h 107.8 v -464.65" /><path
             id="path136"
             style="fill:#ffffff;fill-opacity:1;fill-rule:nonzero;stroke:none"
             d="m 4528.05,1172.58 h -107.8 v 335.34 h 107.8 z m 2.99,383.12 h -113.78 v 81.53 h 113.78 v -81.53" /><path
             id="path138"
             style="fill:#ffffff;fill-opacity:1;fill-rule:nonzero;stroke:none"
             d="m 4823.15,1260.3 v 69.65 c -14.52,-1.19 -30.24,-2.83 -47.17,-4.92 -16.92,-2.07 -29.76,-4.51 -38.51,-7.28 -10.77,-3.36 -18.98,-8.29 -24.64,-14.74 -5.69,-6.45 -8.53,-14.93 -8.53,-25.45 0,-6.94 0.6,-12.6 1.8,-16.96 1.19,-4.38 4.18,-8.54 8.95,-12.51 4.58,-3.98 10.06,-6.9 16.44,-8.78 6.37,-1.88 16.31,-2.81 29.86,-2.81 10.75,0 21.64,2.16 32.7,6.53 11.05,4.36 20.75,10.12 29.1,17.27 z m 0,-52.18 c -5.75,-4.39 -12.93,-9.67 -21.49,-15.83 -8.57,-6.18 -16.63,-11.05 -24.18,-14.64 -10.56,-4.77 -21.51,-8.3 -32.86,-10.6 -11.33,-2.28 -23.79,-3.43 -37.33,-3.43 -31.85,0 -58.52,9.86 -80.02,29.57 -21.49,19.71 -32.26,44.89 -32.26,75.55 0,24.48 5.47,44.49 16.43,60.02 10.95,15.53 26.47,27.77 46.59,36.73 19.89,8.95 44.58,15.33 74.05,19.11 29.46,3.79 60.02,6.57 91.67,8.37 v 1.8 c 0,18.5 -7.55,31.28 -22.69,38.35 -15.13,7.07 -37.42,10.61 -66.89,10.61 -17.72,0 -36.63,-3.14 -56.73,-9.41 -20.11,-6.28 -34.54,-11.1 -43.3,-14.48 h -9.87 v 80.92 c 11.36,2.99 29.83,6.52 55.4,10.59 25.58,4.09 51.22,6.14 76.9,6.14 61.12,0 105.26,-9.41 132.44,-28.23 27.18,-18.81 40.77,-48.33 40.77,-88.54 v -228.14 h -106.63 v 35.54" /><path
             id="path140"
             style="fill:#ffffff;fill-opacity:1;fill-rule:nonzero;stroke:none"
             d="m 5019.46,1172.58 h 107.801 v 464.652 H 5019.46 Z" /><path
             id="path142"
             style="fill:#ffffff;fill-opacity:1;fill-rule:nonzero;stroke:none"
             d="m 5604.33,1264.88 v 164.79 c -7.56,3.19 -15.51,5.49 -23.84,6.88 -8.35,1.39 -15.98,2.1 -22.94,2.1 -28.22,0 -49.37,-8.83 -63.47,-26.46 -14.1,-17.67 -21.16,-42.13 -21.16,-73.44 0,-32.9 5.67,-56.78 17,-71.64 11.31,-14.84 29.49,-22.26 54.52,-22.26 9.73,0 20.07,1.83 30.98,5.53 10.92,3.69 20.56,8.52 28.91,14.5 z m 107.79,-92.3 h -107.79 v 34.94 c -18.5,-15.15 -35.8,-26.29 -51.91,-33.45 -16.1,-7.17 -34.69,-10.75 -55.76,-10.75 -40.77,0 -73.37,15.71 -97.84,47.19 -24.45,31.44 -36.68,73.85 -36.68,127.2 0,28.47 4.12,53.7 12.37,75.71 8.26,21.99 19.54,40.86 33.86,56.58 13.52,14.93 29.93,26.53 49.21,34.79 19.29,8.26 38.57,12.39 57.86,12.39 20.08,0 36.54,-2.14 49.37,-6.42 12.82,-4.28 25.99,-9.7 39.52,-16.27 v 142.74 h 107.79 v -464.65" /><path
             id="path144"
             style="fill:#ffffff;fill-opacity:1;fill-rule:nonzero;stroke:none"
             d="m 6027.85,1383.39 c -0.59,22.51 -6.17,39.42 -16.72,50.77 -10.55,11.36 -26.98,17.03 -49.27,17.03 -20.71,0 -37.73,-5.38 -51.06,-16.13 -13.34,-10.75 -20.81,-27.97 -22.41,-51.67 z m 106.91,-62.99 h -246.07 c 1.6,-26.28 11.6,-46.39 30.02,-60.33 18.41,-13.94 45.53,-20.91 81.37,-20.91 22.7,0 44.68,4.09 66,12.25 21.3,8.16 38.11,16.91 50.46,26.28 h 11.95 v -86.3 c -24.3,-9.77 -47.19,-16.83 -68.68,-21.2 -21.5,-4.38 -45.29,-6.57 -71.38,-6.57 -67.28,0 -118.85,15.12 -154.68,45.4 -35.83,30.25 -53.75,73.34 -53.75,129.28 0,55.35 16.97,99.19 50.91,131.55 33.94,32.35 80.47,48.53 139.6,48.53 54.55,0 95.57,-13.79 123.04,-41.36 27.48,-27.57 41.21,-67.23 41.21,-118.99 v -37.63" /><path
             id="path146"
             style="fill:#ffffff;fill-opacity:1;fill-rule:nonzero;stroke:none"
             d="M 2825.04,765.57 2770.35,924.859 2715.63,765.57 Z M 3002,594.16 h -118.42 l -30.96,89.871 h -164.55 l -30.99,-89.871 h -115.56 l 164.25,444.65 h 131.99 L 3002,594.16" /><path
             id="path148"
             style="fill:#ffffff;fill-opacity:1;fill-rule:nonzero;stroke:none"
             d="m 3050.76,594.16 h 107.809 v 464.648 H 3050.76 Z" /><path
             id="path150"
             style="fill:#ffffff;fill-opacity:1;fill-rule:nonzero;stroke:none"
             d="m 3358.43,594.16 h -107.8 V 929.5 h 107.8 z m 2.99,383.129 h -113.78 v 81.521 h 113.78 v -81.521" /><path
             id="path152"
             style="fill:#ffffff;fill-opacity:1;fill-rule:nonzero;stroke:none"
             d="M 3778.08,831.859 V 594.16 h -107.79 v 167.52 c 0,16.32 -0.41,30.218 -1.19,41.648 -0.8,11.461 -2.99,20.774 -6.59,27.934 -3.59,7.179 -9,12.386 -16.25,15.679 -7.28,3.289 -17.48,4.918 -30.62,4.918 -10.55,0 -20.8,-2.129 -30.76,-6.418 -9.96,-4.281 -18.91,-8.8 -26.88,-13.582 V 594.16 H 3450.21 V 929.5 H 3558 v -37.02 c 18.5,14.532 36.19,25.891 53.11,34.04 16.89,8.16 35.56,12.242 56.05,12.242 22.07,0 41.57,-4.922 58.46,-14.782 16.89,-9.851 30.12,-24.332 39.67,-43.449 21.46,18.11 42.34,32.36 62.62,42.707 20.27,10.352 40.15,15.524 59.64,15.524 36.18,0 63.66,-10.852 82.45,-32.543 18.76,-21.707 28.18,-52.969 28.18,-93.77 V 594.16 h -107.81 v 167.52 c 0,16.519 -0.34,30.461 -1.04,41.8 -0.7,11.372 -2.83,20.622 -6.42,27.782 -3.38,7.179 -8.77,12.386 -16.14,15.679 -7.36,3.289 -17.71,4.918 -31.05,4.918 -8.95,0 -17.72,-1.539 -26.27,-4.621 -8.56,-3.09 -19.03,-8.207 -31.37,-15.379" /><path
             id="path154"
             style="fill:#ffffff;fill-opacity:1;fill-rule:nonzero;stroke:none"
             d="m 4311.81,804.969 c -0.58,22.511 -6.17,39.429 -16.72,50.769 -10.54,11.364 -26.97,17.032 -49.27,17.032 -20.71,0 -37.72,-5.379 -51.08,-16.129 -13.32,-10.75 -20.8,-27.973 -22.38,-51.672 z m 106.92,-62.989 h -246.08 c 1.58,-26.281 11.6,-46.39 30.02,-60.332 18.4,-13.929 45.55,-20.91 81.37,-20.91 22.69,0 44.71,4.102 65.99,12.25 21.29,8.16 38.13,16.91 50.47,26.282 h 11.96 v -86.301 c -24.3,-9.77 -47.19,-16.828 -68.7,-21.199 -21.5,-4.379 -45.29,-6.559 -71.36,-6.559 -67.29,0 -118.85,15.109 -154.69,45.391 -35.84,30.25 -53.75,73.347 -53.75,129.277 0,55.359 16.97,99.191 50.92,131.551 33.94,32.351 80.47,48.531 139.59,48.531 54.55,0 95.56,-13.793 123.04,-41.352 27.49,-27.57 41.22,-67.238 41.22,-119 V 741.98" /><path
             id="path156"
             style="fill:#ffffff;fill-opacity:1;fill-rule:nonzero;stroke:none"
             d="m 4822.22,594.16 h -107.79 v 166.32 c 0,13.54 -0.7,27.04 -2.09,40.469 -1.39,13.449 -3.79,23.34 -7.17,29.723 -3.98,7.359 -9.8,12.726 -17.46,16.117 -7.66,3.391 -18.38,5.07 -32.11,5.07 -9.75,0 -19.65,-1.589 -29.71,-4.769 -10.06,-3.192 -20.95,-8.262 -32.69,-15.231 V 594.16 H 4485.39 V 929.5 h 107.81 v -37.02 c 19.08,14.93 37.42,26.379 55.02,34.34 17.6,7.961 37.13,11.942 58.59,11.942 36.19,0 64.47,-10.551 84.86,-31.641 20.38,-21.109 30.55,-52.672 30.55,-94.672 V 594.16" /><path
             id="path158"
             style="fill:#ffffff;fill-opacity:1;fill-rule:nonzero;stroke:none"
             d="m 5126.34,597.109 c -11.56,-2.968 -23.81,-5.308 -36.74,-6.988 -12.94,-1.68 -28.77,-2.531 -47.48,-2.531 -41.81,0 -72.91,8.461 -93.34,25.379 -20.39,16.922 -30.58,45.883 -30.58,86.89 v 156.782 h -44.22 V 929.5 h 44.22 v 95.87 h 107.79 V 929.5 h 100.35 v -72.859 h -100.35 v -119.02 c 0,-11.781 0.1,-22.043 0.29,-30.801 0.2,-8.781 1.8,-16.66 4.77,-23.64 2.77,-6.981 7.7,-12.508 14.75,-16.602 7.03,-4.078 17.3,-6.129 30.82,-6.129 5.54,0 12.83,1.192 21.87,3.582 9.02,2.399 15.33,4.578 18.91,6.571 h 8.94 v -73.493" /><path
             id="path160"
             style="fill:#ffffff;fill-opacity:1;fill-rule:nonzero;stroke:none"
             d="m 5391.89,680.16 c 6.95,8.559 12.19,18.86 15.66,30.91 3.48,12.032 5.24,28.711 5.24,50.02 0,19.699 -1.8,36.23 -5.39,49.57 -3.58,13.328 -8.56,23.988 -14.92,31.942 -6.37,8.168 -14.05,13.937 -22.99,17.328 -8.97,3.379 -18.62,5.07 -28.97,5.07 -10.37,0 -19.55,-1.391 -27.63,-4.172 -8.05,-2.789 -15.79,-8.367 -23.15,-16.726 -6.56,-7.75 -11.78,-18.411 -15.66,-31.954 -3.89,-13.527 -5.82,-30.558 -5.82,-51.058 0,-18.32 1.68,-34.192 5.06,-47.629 3.39,-13.441 8.37,-24.25 14.94,-32.402 6.36,-7.77 13.98,-13.438 22.83,-17.028 8.87,-3.582 18.98,-5.383 30.31,-5.383 9.77,0 19.08,1.641 27.93,4.942 8.85,3.289 16.39,8.801 22.56,16.57 z m 132.28,81.52 c 0,-55.141 -16.07,-98.578 -48.22,-130.34 -32.15,-31.762 -77.3,-47.629 -135.43,-47.629 -58.14,0 -103.28,15.867 -135.43,47.629 -32.17,31.762 -48.22,75.199 -48.22,130.34 0,55.55 16.15,99.148 48.52,130.8 32.36,31.641 77.4,47.481 135.13,47.481 58.52,0 103.77,-15.941 135.73,-47.781 31.95,-31.86 47.92,-75.352 47.92,-130.5" /><path
             id="path162"
             style="fill:#ffffff;fill-opacity:1;fill-rule:nonzero;stroke:none"
             d="m 5883.49,700.469 c 0,-34.641 -15.51,-62.559 -46.58,-83.77 -31.08,-21.187 -73.56,-31.801 -127.5,-31.801 -29.86,0 -56.95,2.801 -81.23,8.364 -24.3,5.578 -43.81,11.738 -58.54,18.508 v 88.402 h 9.85 c 5.39,-3.781 11.6,-7.91 18.67,-12.402 7.07,-4.489 17.07,-9.301 30.02,-14.481 11.15,-4.578 23.79,-8.5 37.91,-11.789 14.14,-3.289 29.28,-4.93 45.39,-4.93 21.11,0 36.74,2.34 46.89,7.02 10.16,4.672 15.22,11.59 15.22,20.75 0,8.16 -2.99,14.082 -8.95,17.769 -5.95,3.68 -17.32,7.219 -34.04,10.61 -7.95,1.781 -18.77,3.73 -32.4,5.832 -13.63,2.07 -26.04,4.609 -37.17,7.59 -30.47,7.961 -53.07,20.371 -67.79,37.179 -14.75,16.828 -22.11,37.789 -22.11,62.871 0,32.25 15.27,59.071 45.84,80.481 30.56,21.387 72.32,32.09 125.27,32.09 25.1,0 49.14,-2.532 72.13,-7.614 22.99,-5.078 40.96,-10.5 53.89,-16.277 V 830.07 H 5859 c -15.92,10.942 -34.08,19.848 -54.47,26.731 -20.43,6.867 -41.08,10.301 -61.98,10.301 -17.32,0 -31.91,-2.383 -43.77,-7.172 -11.83,-4.782 -17.75,-11.551 -17.75,-20.321 0,-7.937 2.7,-14.007 8.07,-18.199 5.37,-4.18 18,-8.359 37.93,-12.551 10.93,-2.187 22.73,-4.328 35.39,-6.429 12.61,-2.078 25.31,-4.7 38.06,-7.899 28.27,-7.359 49.16,-18.961 62.72,-34.793 13.53,-15.808 20.29,-35.59 20.29,-59.269" /></g></g></g></g></svg>