<?xml version="1.0" encoding="UTF-8" standalone="no"?>
<svg width="644px" height="284px" viewBox="0 0 644 284" version="1.1" xmlns="http://www.w3.org/2000/svg" xmlns:xlink="http://www.w3.org/1999/xlink" xmlns:sketch="http://www.bohemiancoding.com/sketch/ns">
    <!-- Generator: Sketch 3.4.4 (17249) - http://www.bohemiancoding.com/sketch -->
    <title>WFPlogo-finnish-standard-white</title>
    <desc>Created with Sketch.</desc>
    <defs></defs>
    <g id="Page-1" stroke="none" stroke-width="1" fill="none" fill-rule="evenodd" sketch:type="MSPage">
        <g id="WFPlogo-finnish-standard-white" sketch:type="MSLayerGroup" fill="#FFFFFF">
            <path d="M319.535,121.356 L307.495,166.061 L294.714,166.061 L286.718,136.938 L278.902,166.061 L266.152,166.061 L254.113,121.356 L266.146,121.356 L273.004,152.13 L281.254,121.356 L292.753,121.356 L300.581,152.13 L307.781,121.356 L319.535,121.356" id="Fill-1" sketch:type="MSShapeGroup"></path>
            <path d="M345.944,157.413 C346.644,156.554 347.169,155.518 347.519,154.306 C347.87,153.095 348.044,151.42 348.044,149.277 C348.044,147.296 347.865,145.635 347.503,144.293 C347.144,142.953 346.644,141.882 346.002,141.081 C345.363,140.261 344.592,139.68 343.69,139.339 C342.791,139 341.819,138.83 340.78,138.83 C339.738,138.83 338.813,138.97 338,139.249 C337.191,139.53 336.415,140.091 335.676,140.931 C335.014,141.712 334.489,142.783 334.098,144.144 C333.708,145.505 333.512,147.216 333.512,149.277 C333.512,151.119 333.683,152.715 334.024,154.066 C334.363,155.417 334.864,156.503 335.526,157.323 C336.166,158.105 336.93,158.675 337.822,159.035 C338.712,159.395 339.729,159.575 340.87,159.575 C341.85,159.575 342.786,159.411 343.677,159.08 C344.566,158.75 345.322,158.194 345.944,157.413 L345.944,157.413 Z M359.244,149.217 C359.244,154.762 357.627,159.13 354.396,162.322 C351.162,165.516 346.624,167.111 340.78,167.111 C334.935,167.111 330.395,165.516 327.163,162.322 C323.931,159.13 322.313,154.762 322.313,149.217 C322.313,143.632 323.94,139.249 327.192,136.067 C330.447,132.885 334.973,131.294 340.78,131.294 C346.665,131.294 351.213,132.895 354.425,136.097 C357.636,139.3 359.244,143.672 359.244,149.217 L359.244,149.217 Z" id="Fill-2" sketch:type="MSShapeGroup"></path>
            <path d="M391.429,142.643 L390.471,142.643 C390.011,142.483 389.273,142.362 388.254,142.282 C387.235,142.203 386.386,142.163 385.707,142.163 C384.169,142.163 382.811,142.262 381.633,142.463 C380.455,142.663 379.187,143.003 377.829,143.483 L377.829,166.061 L366.989,166.061 L366.989,132.344 L377.829,132.344 L377.829,137.298 C380.206,135.256 382.273,133.901 384.03,133.23 C385.788,132.56 387.406,132.224 388.882,132.224 C389.261,132.224 389.693,132.234 390.17,132.254 C390.651,132.274 391.071,132.304 391.429,132.344 L391.429,142.643" id="Fill-3" sketch:type="MSShapeGroup"></path>
            <path d="M397.554,119.344 L408.392,119.344 L408.392,166.061 L397.554,166.061 L397.554,119.344 Z" id="Fill-4" sketch:type="MSShapeGroup"></path>
            <path d="M440.52,156.78 L440.52,140.212 C439.759,139.891 438.962,139.66 438.124,139.521 C437.284,139.379 436.516,139.31 435.816,139.31 C432.979,139.31 430.854,140.196 429.435,141.972 C428.017,143.744 427.308,146.205 427.308,149.353 C427.308,152.661 427.877,155.062 429.016,156.555 C430.154,158.049 431.98,158.795 434.499,158.795 C435.477,158.795 436.514,158.609 437.614,158.238 C438.711,157.868 439.681,157.382 440.52,156.78 L440.52,156.78 Z M451.358,166.061 L440.52,166.061 L440.52,162.548 C438.66,164.069 436.92,165.19 435.302,165.91 C433.681,166.631 431.812,166.991 429.694,166.991 C425.595,166.991 422.316,165.411 419.859,162.247 C417.399,159.085 416.169,154.822 416.169,149.457 C416.169,146.596 416.584,144.059 417.415,141.847 C418.243,139.635 419.378,137.739 420.817,136.157 C422.177,134.656 423.827,133.49 425.766,132.659 C427.705,131.829 429.644,131.414 431.583,131.414 C433.601,131.414 435.257,131.628 436.545,132.059 C437.833,132.49 439.16,133.035 440.52,133.695 L440.52,119.344 L451.358,119.344 L451.358,166.061 L451.358,166.061 Z" id="Fill-5" sketch:type="MSShapeGroup"></path>
            <path d="M516.755,130.003 L496.191,130.003 L496.191,138.319 L515.256,138.319 L515.256,146.966 L496.191,146.966 L496.191,166.061 L484.722,166.061 L484.722,121.356 L516.755,121.356 L516.755,130.003" id="Fill-6" sketch:type="MSShapeGroup"></path>
            <path d="M545.279,157.413 C545.979,156.554 546.504,155.518 546.857,154.306 C547.205,153.095 547.382,151.42 547.382,149.277 C547.382,147.296 547.201,145.635 546.841,144.293 C546.48,142.953 545.979,141.882 545.339,141.081 C544.698,140.261 543.928,139.68 543.028,139.339 C542.128,139 541.157,138.83 540.115,138.83 C539.074,138.83 538.149,138.97 537.338,139.249 C536.529,139.53 535.751,140.091 535.011,140.931 C534.351,141.712 533.827,142.783 533.436,144.144 C533.045,145.505 532.85,147.216 532.85,149.277 C532.85,151.119 533.021,152.715 533.36,154.066 C533.701,155.417 534.201,156.503 534.861,157.323 C535.5,158.105 536.268,158.675 537.16,159.035 C538.048,159.395 539.065,159.575 540.205,159.575 C541.185,159.575 542.122,159.411 543.012,159.08 C543.904,158.75 544.66,158.194 545.279,157.413 L545.279,157.413 Z M558.582,149.217 C558.582,154.762 556.963,159.13 553.731,162.322 C550.5,165.516 545.959,167.111 540.115,167.111 C534.271,167.111 529.733,165.516 526.499,162.322 C523.267,159.13 521.651,154.762 521.651,149.217 C521.651,143.632 523.276,139.249 526.53,136.067 C529.782,132.885 534.311,131.294 540.115,131.294 C546,131.294 550.548,132.895 553.76,136.097 C556.974,139.3 558.582,143.672 558.582,149.217 L558.582,149.217 Z" id="Fill-7" sketch:type="MSShapeGroup"></path>
            <path d="M587.493,157.413 C588.193,156.554 588.718,155.518 589.071,154.306 C589.418,153.095 589.596,151.42 589.596,149.277 C589.596,147.296 589.414,145.635 589.055,144.293 C588.694,142.953 588.193,141.882 587.553,141.081 C586.912,140.261 586.142,139.68 585.242,139.339 C584.342,139 583.371,138.83 582.329,138.83 C581.288,138.83 580.363,138.97 579.552,139.249 C578.743,139.53 577.965,140.091 577.225,140.931 C576.565,141.712 576.041,142.783 575.65,144.144 C575.259,145.505 575.064,147.216 575.064,149.277 C575.064,151.119 575.234,152.715 575.574,154.066 C575.915,155.417 576.415,156.503 577.075,157.323 C577.714,158.105 578.482,158.675 579.373,159.035 C580.261,159.395 581.279,159.575 582.418,159.575 C583.399,159.575 584.335,159.411 585.226,159.08 C586.117,158.75 586.874,158.194 587.493,157.413 L587.493,157.413 Z M600.795,149.217 C600.795,154.762 599.177,159.13 595.945,162.322 C592.713,165.516 588.173,167.111 582.329,167.111 C576.485,167.111 571.947,165.516 568.712,162.322 C565.48,159.13 563.865,154.762 563.865,149.217 C563.865,143.632 565.49,139.249 568.744,136.067 C571.996,132.885 576.525,131.294 582.329,131.294 C588.213,131.294 592.763,132.895 595.974,136.097 C599.188,139.3 600.795,143.672 600.795,149.217 L600.795,149.217 Z" id="Fill-8" sketch:type="MSShapeGroup"></path>
            <path d="M630.488,156.78 L630.488,140.212 C629.729,139.891 628.93,139.66 628.091,139.521 C627.253,139.379 626.484,139.31 625.786,139.31 C622.949,139.31 620.822,140.196 619.403,141.972 C617.987,143.744 617.278,146.205 617.278,149.353 C617.278,152.661 617.845,155.062 618.986,156.555 C620.124,158.049 621.951,158.795 624.466,158.795 C625.445,158.795 626.484,158.609 627.582,158.238 C628.681,157.868 629.648,157.382 630.488,156.78 L630.488,156.78 Z M641.326,166.061 L630.488,166.061 L630.488,162.548 C628.627,164.069 626.89,165.19 625.27,165.91 C623.649,166.631 621.782,166.991 619.664,166.991 C615.563,166.991 612.287,165.411 609.827,162.247 C607.367,159.085 606.139,154.822 606.139,149.457 C606.139,146.596 606.554,144.059 607.382,141.847 C608.212,139.635 609.346,137.739 610.787,136.157 C612.145,134.656 613.794,133.49 615.734,132.659 C617.672,131.829 619.612,131.414 621.55,131.414 C623.571,131.414 625.225,131.628 626.515,132.059 C627.803,132.49 629.127,133.035 630.488,133.695 L630.488,119.344 L641.326,119.344 L641.326,166.061 L641.326,166.061 Z" id="Fill-9" sketch:type="MSShapeGroup"></path>
            <path d="M282.815,193.796 C282.815,192.538 282.475,191.454 281.795,190.547 C281.114,189.638 280.324,189.004 279.422,188.644 C278.222,188.164 277.051,187.899 275.91,187.85 C274.769,187.801 273.248,187.774 271.346,187.774 L269.365,187.774 L269.365,201.135 L272.667,201.135 C274.628,201.135 276.245,201.017 277.516,200.776 C278.787,200.537 279.853,200.057 280.713,199.339 C281.454,198.699 281.99,197.935 282.32,197.047 C282.65,196.158 282.815,195.074 282.815,193.796 L282.815,193.796 Z M294.735,193.539 C294.735,195.541 294.384,197.498 293.684,199.409 C292.983,201.321 291.982,202.928 290.682,204.228 C288.9,205.989 286.914,207.32 284.722,208.222 C282.53,209.122 279.802,209.573 276.541,209.573 L269.365,209.573 L269.365,224.134 L257.835,224.134 L257.835,179.428 L276.811,179.428 C279.653,179.428 282.049,179.674 284.001,180.164 C285.953,180.654 287.68,181.391 289.18,182.37 C290.982,183.552 292.358,185.063 293.309,186.904 C294.259,188.746 294.735,190.957 294.735,193.539 L294.735,193.539 Z" id="Fill-10" sketch:type="MSShapeGroup"></path>
            <path d="M325.572,200.716 L324.614,200.716 C324.156,200.555 323.415,200.435 322.396,200.356 C321.377,200.275 320.529,200.235 319.851,200.235 C318.313,200.235 316.955,200.335 315.777,200.535 C314.598,200.735 313.33,201.076 311.972,201.556 L311.972,224.134 L301.133,224.134 L301.133,190.417 L311.972,190.417 L311.972,195.371 C314.349,193.329 316.416,191.974 318.173,191.303 C319.93,190.633 321.548,190.297 323.027,190.297 C323.406,190.297 323.834,190.308 324.315,190.326 C324.793,190.347 325.212,190.377 325.572,190.417 L325.572,200.716" id="Fill-11" sketch:type="MSShapeGroup"></path>
            <path d="M351.696,215.486 C352.396,214.627 352.921,213.592 353.274,212.379 C353.622,211.169 353.799,209.493 353.799,207.351 C353.799,205.369 353.617,203.708 353.258,202.366 C352.897,201.026 352.396,199.955 351.756,199.154 C351.115,198.333 350.345,197.753 349.445,197.413 C348.544,197.073 347.573,196.902 346.532,196.902 C345.491,196.902 344.566,197.043 343.755,197.322 C342.945,197.603 342.168,198.164 341.428,199.004 C340.768,199.784 340.243,200.856 339.853,202.217 C339.462,203.578 339.267,205.289 339.267,207.351 C339.267,209.192 339.437,210.788 339.776,212.14 C340.118,213.49 340.618,214.576 341.278,215.397 C341.917,216.178 342.685,216.748 343.576,217.108 C344.464,217.469 345.481,217.649 346.622,217.649 C347.602,217.649 348.539,217.484 349.429,217.153 C350.32,216.823 351.077,216.268 351.696,215.486 L351.696,215.486 Z M364.999,207.29 C364.999,212.835 363.38,217.203 360.148,220.397 C356.917,223.589 352.375,225.185 346.532,225.185 C340.687,225.185 336.149,223.589 332.916,220.397 C329.683,217.203 328.068,212.835 328.068,207.29 C328.068,201.706 329.693,197.322 332.947,194.14 C336.199,190.957 340.728,189.366 346.532,189.366 C352.417,189.366 356.965,190.969 360.177,194.17 C363.391,197.373 364.999,201.747 364.999,207.29 L364.999,207.29 Z" id="Fill-12" sketch:type="MSShapeGroup"></path>
            <path d="M393.524,213.506 L393.524,198.224 C392.904,197.964 392.143,197.758 391.246,197.608 C390.348,197.458 389.538,197.383 388.82,197.383 C385.983,197.383 383.857,198.198 382.439,199.83 C381.02,201.462 380.311,203.737 380.311,206.659 C380.311,209.902 380.915,212.165 382.125,213.445 C383.333,214.727 385.125,215.366 387.502,215.366 C388.58,215.366 389.639,215.197 390.675,214.857 C391.714,214.518 392.665,214.066 393.524,213.506 L393.524,213.506 Z M404.362,220.262 C404.362,223.424 403.911,226.086 403.01,228.247 C402.111,230.409 400.849,232.101 399.226,233.321 C397.606,234.563 395.649,235.458 393.358,236.009 C391.066,236.559 388.478,236.835 385.596,236.835 C383.253,236.835 380.947,236.694 378.675,236.414 C376.404,236.134 374.438,235.793 372.777,235.393 L372.777,226.956 L374.094,226.956 C375.415,227.478 377.023,227.952 378.922,228.383 C380.821,228.813 382.52,229.028 384.019,229.028 C386.016,229.028 387.641,228.843 388.891,228.473 C390.139,228.103 391.093,227.577 391.752,226.896 C392.373,226.255 392.824,225.435 393.102,224.435 C393.382,223.434 393.524,222.233 393.524,220.832 L393.524,220.201 C392.224,221.263 390.784,222.103 389.204,222.723 C387.625,223.344 385.866,223.653 383.927,223.653 C379.209,223.653 375.571,222.233 373.01,219.391 C370.452,216.548 369.172,212.225 369.172,206.42 C369.172,203.638 369.563,201.236 370.342,199.214 C371.123,197.193 372.22,195.432 373.641,193.93 C374.96,192.529 376.585,191.438 378.513,190.657 C380.444,189.877 382.417,189.486 384.436,189.486 C386.256,189.486 387.911,189.701 389.399,190.133 C390.889,190.563 392.242,191.158 393.463,191.919 L393.854,190.417 L404.362,190.417 L404.362,220.262 L404.362,220.262 Z" id="Fill-13" sketch:type="MSShapeGroup"></path>
            <path d="M437.84,200.716 L436.882,200.716 C436.424,200.555 435.683,200.435 434.665,200.356 C433.646,200.275 432.797,200.235 432.12,200.235 C430.583,200.235 429.224,200.335 428.046,200.535 C426.866,200.735 425.597,201.076 424.24,201.556 L424.24,224.134 L413.402,224.134 L413.402,190.417 L424.24,190.417 L424.24,195.371 C426.617,193.329 428.683,191.974 430.441,191.303 C432.198,190.633 433.816,190.297 435.295,190.297 C435.674,190.297 436.103,190.308 436.583,190.326 C437.062,190.347 437.481,190.377 437.84,190.417 L437.84,200.716" id="Fill-14" sketch:type="MSShapeGroup"></path>
            <path d="M463.212,215.316 L463.212,208.312 C461.751,208.432 460.171,208.597 458.47,208.806 C456.767,209.015 455.476,209.259 454.596,209.539 C453.515,209.878 452.689,210.372 452.119,211.021 C451.548,211.669 451.264,212.522 451.264,213.579 C451.264,214.277 451.325,214.846 451.443,215.284 C451.565,215.725 451.866,216.144 452.345,216.542 C452.805,216.941 453.356,217.235 453.996,217.425 C454.637,217.614 455.638,217.709 456.999,217.709 C458.08,217.709 459.175,217.489 460.286,217.051 C461.397,216.612 462.374,216.033 463.212,215.316 L463.212,215.316 Z M463.212,220.562 C462.633,221.002 461.911,221.532 461.051,222.152 C460.192,222.773 459.379,223.264 458.619,223.623 C457.559,224.104 456.458,224.46 455.317,224.69 C454.177,224.92 452.924,225.035 451.565,225.035 C448.362,225.035 445.68,224.044 443.519,222.063 C441.355,220.081 440.276,217.549 440.276,214.467 C440.276,212.005 440.826,209.992 441.927,208.432 C443.027,206.871 444.589,205.64 446.609,204.738 C448.611,203.838 451.093,203.198 454.056,202.817 C457.018,202.437 460.09,202.156 463.273,201.977 L463.273,201.796 C463.273,199.935 462.512,198.649 460.991,197.939 C459.469,197.228 457.229,196.872 454.267,196.872 C452.485,196.872 450.583,197.188 448.562,197.818 C446.54,198.449 445.089,198.934 444.208,199.274 L443.218,199.274 L443.218,191.138 C444.358,190.837 446.214,190.482 448.786,190.071 C451.358,189.662 453.937,189.457 456.518,189.457 C462.663,189.457 467.102,190.401 469.833,192.294 C472.565,194.186 473.931,197.152 473.931,201.196 L473.931,224.134 L463.212,224.134 L463.212,220.562 L463.212,220.562 Z" id="Fill-15" sketch:type="MSShapeGroup"></path>
            <path d="M515.638,200.235 L515.638,224.134 L504.798,224.134 L504.798,207.29 C504.798,205.649 504.757,204.254 504.679,203.103 C504.598,201.951 504.378,201.016 504.019,200.295 C503.658,199.574 503.113,199.049 502.383,198.719 C501.652,198.388 500.625,198.224 499.304,198.224 C498.243,198.224 497.212,198.439 496.211,198.868 C495.21,199.3 494.31,199.755 493.509,200.235 L493.509,224.134 L482.671,224.134 L482.671,190.417 L493.509,190.417 L493.509,194.14 C495.37,192.68 497.149,191.538 498.848,190.717 C500.547,189.897 502.425,189.486 504.486,189.486 C506.704,189.486 508.663,189.982 510.362,190.973 C512.061,191.964 513.392,193.419 514.35,195.342 C516.509,193.521 518.607,192.088 520.645,191.048 C522.685,190.007 524.683,189.486 526.642,189.486 C530.281,189.486 533.043,190.578 534.933,192.76 C536.82,194.941 537.765,198.084 537.765,202.187 L537.765,224.134 L526.927,224.134 L526.927,207.29 C526.927,205.63 526.891,204.228 526.822,203.087 C526.752,201.946 526.537,201.016 526.175,200.295 C525.836,199.574 525.295,199.049 524.555,198.719 C523.814,198.388 522.773,198.224 521.433,198.224 C520.531,198.224 519.651,198.378 518.79,198.689 C517.929,199 516.879,199.515 515.638,200.235" id="Fill-16" sketch:type="MSShapeGroup"></path>
            <path d="M579.533,200.235 L579.533,224.134 L568.692,224.134 L568.692,207.29 C568.692,205.649 568.652,204.254 568.573,203.103 C568.493,201.951 568.273,201.016 567.914,200.295 C567.552,199.574 567.006,199.049 566.277,198.719 C565.545,198.388 564.52,198.224 563.198,198.224 C562.136,198.224 561.106,198.439 560.105,198.868 C559.104,199.3 558.205,199.755 557.403,200.235 L557.403,224.134 L546.565,224.134 L546.565,190.417 L557.403,190.417 L557.403,194.14 C559.263,192.68 561.043,191.538 562.743,190.717 C564.441,189.897 566.32,189.486 568.38,189.486 C570.597,189.486 572.557,189.982 574.255,190.973 C575.955,191.964 577.286,193.419 578.244,195.342 C580.403,193.521 582.501,192.088 584.54,191.048 C586.58,190.007 588.577,189.486 590.537,189.486 C594.174,189.486 596.937,190.578 598.827,192.76 C600.714,194.941 601.66,198.084 601.66,202.187 L601.66,224.134 L590.822,224.134 L590.822,207.29 C590.822,205.63 590.786,204.228 590.716,203.087 C590.646,201.946 590.431,201.016 590.07,200.295 C589.731,199.574 589.19,199.049 588.449,198.719 C587.708,198.388 586.667,198.224 585.328,198.224 C584.425,198.224 583.545,198.378 582.683,198.689 C581.824,199 580.773,199.515 579.533,200.235" id="Fill-17" sketch:type="MSShapeGroup"></path>
            <path d="M632.948,202.938 C632.887,200.675 632.326,198.974 631.267,197.833 C630.205,196.692 628.553,196.121 626.311,196.121 C624.231,196.121 622.518,196.662 621.178,197.743 C619.836,198.823 619.086,200.555 618.927,202.938 L632.948,202.938 L632.948,202.938 Z M643.696,209.273 L618.957,209.273 C619.116,211.915 620.122,213.936 621.973,215.338 C623.825,216.738 626.553,217.44 630.156,217.44 C632.438,217.44 634.649,217.028 636.79,216.208 C638.933,215.387 640.624,214.507 641.865,213.566 L643.065,213.566 L643.065,222.242 C640.624,223.224 638.323,223.935 636.16,224.374 C633.998,224.815 631.605,225.035 628.984,225.035 C622.219,225.035 617.035,223.514 613.431,220.472 C609.829,217.429 608.027,213.096 608.027,207.471 C608.027,201.906 609.734,197.498 613.146,194.245 C616.559,190.993 621.239,189.366 627.182,189.366 C632.667,189.366 636.79,190.753 639.552,193.524 C642.316,196.298 643.696,200.284 643.696,205.489 L643.696,209.273 L643.696,209.273 Z" id="Fill-18" sketch:type="MSShapeGroup"></path>
            <g id="WFPlogo-finnish-emblem-white" sketch:type="MSShapeGroup">
                <path d="M134.05,70.885 C135.301,68.178 136.459,66.023 138.129,63.455 C138.867,62.323 139.699,61.533 140.441,60.388 C140.086,60.286 139.568,60.579 139.344,60.738 C138.602,61.276 138.267,62.15 137.673,62.618 C136.27,63.726 136.309,64.728 135.574,65.246 C134.917,65.709 134.728,66.014 134.268,66.736 C133.96,67.218 133.734,67.609 133.409,68.559 C133.293,68.901 133.064,68.598 132.516,69.352 C131.797,70.332 131.475,71.391 131.177,72.578 C131.082,72.968 130.418,73.175 129.992,73.985 C129.42,75.077 129.048,76.088 128.801,77.68 C128.74,78.049 128.116,78.305 127.685,79.333 C127.38,80.056 127.162,80.216 126.895,81.579 C126.731,82.41 126.352,82.529 125.925,83.735 C125.595,84.655 125.583,85.541 125.467,86.743 C125.441,86.976 125.047,87.438 124.684,88.112 C124.075,89.238 124.094,89.99 123.852,91.153 C123.759,91.573 123.288,92.13 122.834,93.932 C122.436,95.53 122.801,96.59 122.667,97.377 C122.314,99.422 121.963,101.198 122.153,103.212 C122.247,104.197 122.397,105.213 122.331,106.16 C122.143,109.13 121.983,111.577 121.999,114.943 C122.009,116.775 122.153,119.284 122.43,121.372 C122.735,123.678 123.174,125.479 123.174,125.479 L130.688,125.479 C130.688,125.479 130.394,121.134 130.784,116.56 C131.014,113.818 131.667,110.912 132.259,108.871 C133.01,106.268 133.477,104.92 134.897,101.486 C134.926,101.41 134.886,101.088 134.511,101.403 C133.727,102.061 133.073,102.64 132.454,103.572 C131.508,104.997 130.932,106.171 130.167,107.635 C129.272,109.337 128.778,110.819 127.856,112.887 C127.801,111.395 128.043,109.975 128.346,108.6 C128.657,107.196 128.903,106.084 129.344,104.874 C130.127,102.739 130.887,100.958 132.143,98.972 C132.871,97.824 133.8,96.794 134.745,95.939 C135.874,94.907 136.917,93.999 138.099,92.989 C136.858,92.349 135.204,93.685 134.873,93.754 C133.125,94.095 132.415,95.715 131.879,95.936 C131.115,96.256 130.672,96.725 130.141,97.37 C129.733,97.854 129.61,98.602 129.182,98.868 C128.469,99.312 127.946,99.982 127.456,100.918 C127.254,101.304 126.706,103.131 126.096,102.896 C127.138,96.704 129.325,90.895 132.834,85.726 C135.059,82.449 137.479,79.638 141.046,77.116 C141.516,76.783 141.608,76.627 140.952,76.65 C137.618,77.056 137.414,78.578 136.865,78.722 C136.344,78.856 135.7,79.473 135.288,79.874 C134.546,80.607 134.559,81.225 134.275,81.417 C133.667,81.842 133.208,82.283 132.793,83.019 C132.575,83.404 132.208,84.25 131.882,84.443 C131.026,84.939 130.197,85.662 129.784,86.442 C129.478,87.012 129.357,87.631 128.958,88.191 C128.532,88.793 127.935,89.244 127.422,89.679 C127.812,87.033 129.059,83.897 129.917,81.192 C131.071,77.58 132.471,74.297 134.05,70.885" id="Fill-1"></path>
                <path d="M141.721,92.335 C144.566,85.95 147.558,81.145 151.448,75.524 C151.956,74.788 152.412,74.066 152.856,73.375 C153.055,73.064 154.011,71.69 154.21,71.399 C155.514,69.43 156.062,68.828 157.397,66.946 C157.758,66.435 158.051,66.033 158.206,65.442 C158.49,64.341 157.544,63.602 157.327,62.546 C157.107,61.467 157.227,60.289 157.722,59.378 C158.033,58.809 158.341,58.585 158.654,57.821 C159.26,56.348 159.05,53.161 159.741,53.078 C159.566,54.59 159.526,56.29 159.763,57.741 C160.04,59.434 161.067,60.459 161.491,62.252 C162.633,62.046 163.874,62.095 164.835,62.178 C165.79,62.26 166.997,61.995 167.975,61.66 C169.301,61.207 170.403,60.382 171.754,60.062 C170.605,61.167 168.982,61.582 167.622,62.421 C167.122,62.735 166.651,63.15 166.317,63.666 C165.77,64.517 165.338,65.33 164.483,65.704 C162.963,66.366 161.659,66.052 159.925,66.374 C157.349,69.028 154.924,72.637 152.687,76.433 C147.014,86.03 142.284,95.969 139.534,106.161 C140.485,104.388 141.393,102.673 142.423,100.986 C143.561,99.112 144.841,97.277 146.237,95.439 C149.502,91.134 152.734,87.375 156.354,83.42 C159.276,80.225 162.478,77.544 166.049,75.302 C170.768,72.345 176.59,70.274 181.706,71.342 C182.288,71.478 183.12,71.633 183.483,72.016 C177.072,71.118 171.329,73.358 167.043,76.79 C163.658,79.498 160.804,82.246 157.905,85.817 C156.407,87.538 155.059,89.43 153.721,91.262 C152.32,93.189 151.077,95.217 149.844,97.245 C145.69,104.106 142.545,111.37 140.233,118.896 C140.167,119.135 140.152,119.375 140.086,119.612 C140.196,119.443 140.358,119.259 140.467,119.087 C143.58,114.026 147.323,109.142 152.063,105.865 C152.477,105.583 152.909,105.039 153.02,104.612 C153.533,102.603 152.001,101.637 154.12,98.86 C154.606,98.222 155.27,97.989 155.729,97.396 C156.596,96.056 157.303,93.655 158.03,93.01 C157.665,94.574 156.768,96.225 156.577,97.836 C156.374,99.604 156.826,101.05 156.905,102.924 C158.157,103.095 159.125,103.625 160.108,103.928 C161.635,104.405 162.553,104.284 164.065,104.153 C164.709,104.099 165.879,103.722 166.575,103.864 C165.114,104.662 163.141,104.515 161.646,105.278 C160.6,105.814 160.297,106.605 158.855,106.883 C157.571,107.133 156.491,106.999 155.657,106.571 C155.007,106.244 154.5,106.107 153.917,106.386 C152.362,107.133 151.299,108.188 150.047,109.451 C147.139,112.377 144.766,115.643 142.551,119.926 C141.965,121.065 141.438,122.19 140.938,123.351 C140.692,123.916 140.079,125.485 140.079,125.485 L132.481,125.485 C132.481,125.485 132.461,123.294 132.533,122.494 C132.678,120.899 132.895,119.718 133.205,118.1 C133.645,115.774 134.077,113.663 134.68,111.406 C135.268,109.21 135.902,107.15 136.655,105.041 C138.225,100.645 139.895,96.435 141.721,92.335" id="Fill-2"></path>
                <path d="M68.255,151.52 C71.029,149.252 73.082,147.938 75.851,146.287 C76.976,145.615 78.677,144.854 79.985,144.261 C84.783,142.093 91.131,140.494 97.112,140.384 C97.22,140.384 97.213,140.389 97.213,140.389 L141.803,140.389 C141.803,140.389 141.637,140.384 141.959,140.384 C143.378,140.384 144.782,140.879 145.651,141.698 C146.521,142.524 146.937,143.796 147.165,145.061 C147.357,146.139 147.262,147.097 147.011,148.25 C146.815,149.161 146.668,149.704 146.161,150.478 C145.854,150.949 145.563,151.272 144.993,151.726 C144.407,152.194 143.577,152.357 142.625,152.366 C142.526,152.37 142.313,152.376 142.321,152.373 C142.331,152.366 90.165,152.366 90.165,152.366 C90.165,152.366 89.84,152.365 89.677,152.365 C86.263,152.354 82.668,152.528 79.294,152.968 C76.71,153.321 74.12,153.724 71.622,154.374 C68.471,155.197 65.438,156.336 62.41,157.465 C64.088,155.234 66.026,153.341 68.255,151.52" id="Fill-3"></path>
                <path d="M83.739,133.779 C86.479,131.8 89.805,130.175 92.751,129.047 C94.246,128.481 96.232,127.854 97.811,127.461 C99.717,126.98 101.907,126.619 103.694,126.567 C104.232,126.552 103.773,126.563 103.773,126.563 L142.018,126.559 C142.018,126.559 142.837,126.603 143.122,126.659 C143.84,126.814 144.42,127.107 144.661,127.26 C145.254,127.641 146,128.441 146.39,129.074 C147.383,130.709 147.558,132.474 147.237,134.311 C146.87,136.408 145.276,138.797 143.114,138.856 C142.737,138.866 141.986,138.856 141.986,138.856 L100.563,138.856 C100.563,138.856 98.152,138.903 97.051,138.943 C95.013,139.023 92.754,139.255 90.976,139.517 C89.454,139.736 87.968,140.024 86.444,140.432 C81.337,141.812 76.9,144.402 72.259,146.416 C75.384,140.953 79.613,136.768 83.739,133.779" id="Fill-4"></path>
                <path d="M62.344,159.772 C68.993,155.844 77.002,154.295 84.332,154.049 C84.507,154.041 84.854,154.03 84.854,154.03 L142.028,154.035 C142.028,154.035 142.131,154.035 142.649,154.03 C146.114,154.027 147.379,157.465 147.364,160.245 C147.357,161.161 147.202,162.095 146.948,162.722 C146.619,163.541 146.254,164.21 145.659,164.856 C145.446,165.09 144.68,165.628 144.341,165.711 C143.549,165.905 142.575,165.883 142.581,165.883 C142.588,165.883 100.054,165.891 100.054,165.883 C100.054,165.883 97.759,165.791 96.167,165.638 C95.02,165.525 94.149,165.405 92.958,165.178 C90.029,164.596 87.602,163.643 85.065,162.861 C83.373,162.337 81.594,161.948 79.738,161.667 C76.324,161.145 72.596,160.907 69.149,161.168 C64.764,161.494 60.864,162.353 56.693,163.676 C57.399,162.577 60.331,160.964 62.344,159.772" id="Fill-5"></path>
                <path d="M93.14,177.7 C91.185,177.011 89.278,176.122 87.567,174.993 C85.339,173.518 84.247,172.345 81.367,171.014 C78.902,169.875 76.934,168.751 73.498,167.506 C71.839,166.905 69.153,166.078 66.85,165.684 C63.559,165.125 60.386,164.88 60.386,164.88 C60.386,164.88 61.058,164.461 61.463,164.337 C64.822,163.315 67.788,162.816 71.237,162.561 C74.262,162.334 77.04,162.629 80.073,163.103 C81.317,163.299 82.934,163.682 84.339,164.083 C88.903,165.382 94.092,167.442 98.694,167.45 C98.951,167.45 98.922,167.446 98.922,167.446 L141.423,167.446 C141.423,167.446 141.102,167.446 141.553,167.446 C142.84,167.442 145.247,167.859 146.213,169.567 C147.333,171.535 147.681,173.879 146.741,176.227 C146.456,176.932 145.983,177.943 145.303,178.555 C144.707,179.095 143.737,179.442 143.176,179.442 C143.014,179.45 142.737,179.442 142.737,179.442 L105.567,179.442 C105.567,179.442 105.708,179.442 105.365,179.442 C101.564,179.442 96.78,178.982 93.14,177.7" id="Fill-6"></path>
                <path d="M110.071,190.884 C109.02,189.805 107.57,188.151 106.256,186.58 C103.734,183.573 102.604,180.864 102.604,180.864 L127.395,180.864 C127.395,180.864 127.461,183.724 126.888,187.036 C126.352,190.111 125.216,193.353 124.008,195.702 C123.964,198.11 124.981,200.349 125.148,202.728 C123.112,203.978 120.921,205.215 119.096,206.97 C118.98,207.078 118.792,207.078 118.714,206.787 C117.737,203.121 117.222,199.853 116.42,196.228 C114.16,194.481 112.04,192.924 110.071,190.884" id="Fill-7"></path>
                <path d="M135.621,188.851 C134.919,187.556 134.396,185.846 133.591,184.829 C133.418,185.736 133.631,186.294 133.508,187.162 C133.395,187.889 132.799,187.587 132.678,187.245 C132.331,186.261 131.961,185.046 131.643,184.037 C131.115,182.357 130.946,180.869 130.946,180.869 L135.07,180.864 C135.07,180.864 135.228,180.903 135.301,181.304 C135.499,182.343 135.45,183.358 135.735,184.562 C136.1,186.113 136.572,187.529 137.141,188.975 C137.637,190.248 138.277,191.532 138.796,192.796 C138.867,192.962 138.901,193.282 138.776,193.448 C138.623,193.64 138.36,193.616 138.208,193.448 C137.028,192.105 136.551,190.584 135.621,188.851" id="Fill-8"></path>
                <path d="M142.004,191.799 C141.303,190.304 140.317,188.623 140.403,186.927 C140.859,187.526 141.046,187.955 141.674,188.289 C141.961,188.38 142.564,188.295 142.413,187.793 C142.135,186.859 141.705,186.068 141.306,184.786 C140.714,182.891 140.139,180.866 140.139,180.866 L135.929,180.864 C135.929,180.864 136.163,182.572 137.12,185.193 C137.96,187.514 139.259,190.17 140.681,192.66 C141.84,194.708 142.892,196.495 144.207,197.991 C144.657,198.506 145.76,198.054 145.283,197.384 C144.036,195.62 142.872,193.667 142.004,191.799" id="Fill-9"></path>
                <path d="M169.34,49.511 C168.426,49.909 167.62,50.424 167.164,51.302 C166.832,51.933 166.608,52.894 167.243,53.435 C168.354,54.384 169.68,53.413 170.217,52.444 C170.896,51.209 170.719,48.848 170.719,48.848 C170.719,48.848 169.93,49.259 169.34,49.511" id="Fill-10"></path>
                <path d="M170.306,55.405 C170.706,54.651 171.581,53.837 172.54,53.254 C173.624,52.591 174.747,51.948 175.528,51.482 C176.308,51.012 176.458,50.683 176.458,50.683 C176.458,50.683 175.814,50.905 175.461,51.113 C173.534,52.262 171.43,53.568 170.575,53.945 C169.495,54.416 168.028,54.507 166.705,54.676 C166.494,53.007 166.06,52.314 166.066,50.832 C166.077,50.121 166.249,49.198 166.37,48.555 C166.784,46.412 166.865,45.33 166.865,45.33 C166.865,45.33 166.538,45.635 166.418,46.579 C166.284,47.43 166.188,47.745 165.993,48.752 C165.77,49.914 165.538,50.899 164.842,51.625 C163.84,52.662 162.913,54.507 163.686,55.921 C164.137,56.747 164.89,56.627 165.126,56.84 C165.362,57.052 165.505,57.56 166.218,57.797 C167.757,58.311 169.501,56.931 170.306,55.405" id="Fill-11"></path>
                <path d="M168.311,59.812 C168.833,58.964 169.37,58.369 170.193,57.864 C171.559,57.031 172.573,56.467 173.406,56.04 C173.767,55.859 174.069,55.643 174.161,55.257 C173.788,55.397 172.377,56.06 170.977,56.892 C169.974,57.491 168.25,58.239 167.092,58.292 C166.633,58.312 166.293,58.199 165.918,58.187 C165.141,58.156 164.152,58.343 164.152,58.343 C164.152,58.343 163.901,57.245 163.569,56.454 C163.403,56.048 163.133,55.632 162.989,54.871 C162.891,54.363 162.863,53.601 162.903,53.146 C163.016,51.773 163.386,50.439 163.323,49.049 C162.459,50.842 162.812,53.05 161.799,54.437 C161.372,55.02 161.034,55.48 160.698,56.215 C160.141,57.421 160.208,58.67 160.959,59.833 C161.393,60.496 162.35,60.471 162.515,60.6 C162.766,60.785 162.981,61.478 163.917,61.686 C165.518,62.046 167.407,61.304 168.311,59.812" id="Fill-12"></path>
                <path d="M168.758,94.871 C169.131,94.118 169.372,93.129 169.847,92.43 C168.772,92.591 168.598,92.714 167.043,92.885 C166.705,92.917 166.003,93.269 165.772,93.5 C165.157,94.121 164.62,94.697 164.859,95.738 C164.951,96.143 165.308,96.44 165.507,96.503 C166.8,96.923 168.113,96.154 168.758,94.871" id="Fill-13"></path>
                <path d="M170.071,96.923 C171.54,96.58 173.237,95.859 173.918,96.086 C172.54,96.819 170.801,97.086 169.274,97.521 C168.109,97.857 167.277,98.737 166.237,99.536 C165.282,100.263 164.012,100.558 162.877,100.024 C162.495,99.842 162.124,99.225 162.057,98.896 C161.998,98.633 161.45,98.37 161.168,98.138 C160.885,97.902 160.749,97.313 160.743,97.086 C160.694,95.052 162.241,94.231 163.732,93.037 C164.855,92.137 166.312,88.32 167.202,87.529 C167.043,88.759 165.444,91.08 164.747,92.887 C164.194,94.326 164.375,95.476 164.018,96.992 C165.084,97.059 166.273,97.283 167.346,97.3 C168.188,97.311 169.206,97.128 170.071,96.923" id="Fill-14"></path>
                <path d="M168.523,100.058 C167.698,100.211 166.688,100.471 166,100.617 C163.604,101.124 162.459,99.951 160.547,99.973 C160.715,97.783 159.955,96.802 160.581,95.386 C161.139,94.126 161.657,92.792 162.136,91.725 C162.526,90.868 162.643,90.145 162.643,90.145 C162.643,90.145 162.063,91.014 160.412,94.231 C159.837,95.353 158.809,95.594 157.897,96.654 C156.845,97.866 156.243,100.429 158.186,101.505 C158.573,101.717 158.516,102.383 158.797,102.652 C160.095,103.873 162.716,103.75 164.356,102.262 C165.661,101.073 167.247,100.88 168.598,100.53 C169.388,100.326 170.082,99.99 170.082,99.99 C170.082,99.99 169.707,99.837 168.523,100.058" id="Fill-15"></path>
                <path d="M120.523,125.483 C120.428,125.483 120.327,125.483 120.523,125.483 L120.523,125.483 Z M109.334,93.928 C108.536,94.984 108.166,96.198 107.284,97.12 C106.824,97.603 106.122,97.377 105.757,96.821 C105.353,96.192 104.698,95.303 105.185,94.682 C105.985,93.655 107.66,93 109.085,93.185 C109.169,93.195 109.628,93.534 109.334,93.928 L109.334,93.928 Z M105.5,99.967 C105.053,101.163 103.72,101.293 102.586,101.529 C102.374,101.575 101.722,101.529 101.429,101.242 C100.939,100.763 100.515,100.108 100.6,99.288 C100.646,98.783 101.068,98.287 101.59,98.085 C102.537,97.718 103.66,97.128 104.593,97.652 C105.396,98.101 105.817,99.124 105.5,99.967 L105.5,99.967 Z M103.045,106.289 C102.719,106.76 101.881,105.194 101.772,104.477 C101.459,102.4 103.279,101.87 104.796,101.934 C104.843,103.173 103.883,105.091 103.045,106.289 L103.045,106.289 Z M101.407,111.892 C101.109,112.727 100.966,113.496 100.634,114.261 C100.312,115.001 98.937,115.265 98.174,115.028 C97.085,114.691 96.15,112.245 97.388,111.308 C98.336,110.6 99.317,110.486 100.524,110.338 C100.741,110.312 101.552,110.361 101.583,110.437 C101.786,110.944 101.658,111.198 101.407,111.892 L101.407,111.892 Z M99.573,118.351 C99.353,118.993 99.255,119.653 98.971,120.27 C98.829,120.583 98.643,120.172 98.635,120.151 C98.207,119.087 97.937,118.186 98.302,117.249 C98.508,116.73 99.218,116.253 99.892,116.211 C99.851,116.878 99.803,117.701 99.573,118.351 L99.573,118.351 Z M97.408,121.5 C96.916,121.278 96.923,120.645 96.717,120.252 C96.523,119.868 96.104,119.339 96.276,118.835 C97.226,119.368 97.666,120.318 97.408,121.5 L97.408,121.5 Z M95.77,117.569 C94.636,116.637 94.538,115.147 93.783,114.007 C94.617,113.474 96.022,113.581 96.454,114.636 C96.8,115.484 97.051,116.73 96.191,117.377 C96.098,117.446 95.877,117.658 95.77,117.569 L95.77,117.569 Z M91.545,109.884 C91.375,109.641 91.039,108.941 91.295,108.852 C93.323,108.154 94.845,108.131 95.278,110.301 C95.585,111.849 94.527,113.178 93.045,112.637 C92.62,112.479 92.199,110.83 91.545,109.884 L91.545,109.884 Z M88.595,104.985 C88.453,104.806 88.337,104.267 88.515,104.129 C89.569,103.281 91.118,103.216 92.316,103.333 C93.897,103.477 94.222,104.947 93.959,106.165 C93.61,107.769 91.178,107.969 90.489,107.702 C89.812,107.442 89.34,105.908 88.595,104.985 L88.595,104.985 Z M88.939,99.282 C90.306,98.396 92.918,97.739 93.354,100.138 C93.485,100.861 93.305,101.821 92.329,102.135 C91.325,102.457 90.144,102.804 89.228,102.432 C88.1,101.971 87.878,99.967 88.939,99.282 L88.939,99.282 Z M87.523,95.246 C87.626,94.786 88.136,94.568 88.565,94.458 C89.671,94.185 90.908,93.773 91.923,94.42 C92.319,94.67 92.349,95.024 92.401,95.522 C92.491,96.329 92.376,96.988 91.845,97.296 C90.767,97.928 89.671,97.985 88.419,97.739 C87.403,97.538 87.32,96.192 87.523,95.246 L87.523,95.246 Z M86.39,101.467 C85.442,100.766 85.024,99.776 84.326,98.795 C84.157,98.555 84.326,98.456 84.455,98.419 C86.136,97.944 87.383,98.783 87.121,100.615 C87.074,100.971 86.843,101.8 86.39,101.467 L86.39,101.467 Z M81.751,95.806 C81.121,95.261 81.559,94.314 82.108,94.038 C83.069,93.561 84.579,93.489 85.578,93.826 C86.221,94.042 86.546,94.965 86.431,95.973 C86.383,96.385 86.257,96.84 86.055,96.974 C85.294,97.493 84.116,97.514 83.19,97.321 C82.535,97.182 82.301,96.287 81.751,95.806 L81.751,95.806 Z M81.025,90.081 C81.634,88.756 83.855,88.745 85.065,89.335 C86.051,89.82 86.175,91.654 85.099,92.377 C84.24,92.949 82.887,92.739 81.977,92.572 C80.683,92.334 80.58,91.062 81.025,90.081 L81.025,90.081 Z M81.074,85.121 C81.997,84.243 83.193,84.645 84.305,84.799 C84.52,84.83 84.776,84.981 84.922,85.126 C85.681,85.893 85.741,87.15 84.896,87.779 C83.921,88.504 82.704,88.033 81.532,87.974 C81.215,87.961 80.867,87.589 80.795,87.351 C80.584,86.609 80.456,85.702 81.074,85.121 L81.074,85.121 Z M81.669,80.971 C82.649,80.562 84.332,80.374 85.026,81.474 C85.453,82.148 85.329,83.396 84.645,83.578 C83.976,83.75 81.699,84.128 81.154,82.87 C80.884,82.25 80.998,81.253 81.669,80.971 L81.669,80.971 Z M84.685,77.446 C84.969,77.571 85.146,77.798 85.212,78.146 C85.352,78.901 85.153,79.721 84.429,79.854 C83.339,80.052 81.723,80.115 81.729,78.576 C81.732,76.859 83.424,76.878 84.685,77.446 L84.685,77.446 Z M82.493,74.253 C83.073,74.032 84.026,74.081 84.546,74.352 C84.809,74.489 85.162,74.92 85.013,75.374 C84.829,75.967 84.277,76.181 83.65,76.189 C83.048,76.194 82.358,76.146 82.115,75.655 C81.884,75.189 81.982,74.451 82.493,74.253 L82.493,74.253 Z M83.17,71.679 C83.7,71.486 84.483,71.499 84.868,71.917 C85.398,72.496 84.98,73.417 83.98,73.371 C83.627,73.356 83.21,73.235 82.997,73.114 C82.48,72.822 82.651,71.864 83.17,71.679 L83.17,71.679 Z M85.551,70.02 C85.619,69.797 85.967,69.536 86.149,69.471 C86.546,69.33 87.012,69.301 87.392,69.453 C88.152,69.765 88.048,70.705 87.236,71.035 C86.873,71.183 86.315,71.278 86.041,71.183 C85.53,71.009 85.388,70.565 85.551,70.02 L85.551,70.02 Z M87.919,73.697 C87.09,73.939 85.935,73.986 85.687,73.136 C85.267,71.694 87.087,71.478 88.032,71.781 C88.683,71.987 88.913,73.412 87.919,73.697 L87.919,73.697 Z M88.468,68.934 C88.731,68.04 89.744,67.555 90.662,67.828 C91.45,68.059 91.632,69.134 91.1,69.657 C90.858,69.892 90.459,70.13 90.029,70.225 C89.091,70.435 88.169,69.918 88.468,68.934 L88.468,68.934 Z M92.594,72.213 C92.445,72.796 92.017,73.197 91.332,73.349 C90.651,73.498 89.71,73.54 89.334,73.12 C88.974,72.722 88.808,72.162 89.108,71.732 C89.71,70.876 90.813,70.577 91.795,70.794 C92.356,70.925 92.768,71.499 92.594,72.213 L92.594,72.213 Z M92.228,68.782 C92.594,67.972 93.523,67.563 94.415,67.835 C94.594,67.892 94.962,68.18 95.013,68.464 C95.119,69.028 94.923,69.543 94.453,69.838 C93.849,70.223 93.351,70.439 92.658,70.155 C92.137,69.937 92.01,69.261 92.228,68.782 L92.228,68.782 Z M96.071,71.06 C96.479,71.75 95.858,72.443 95.544,72.633 C94.845,73.042 93.859,73.293 93.438,72.601 C93.024,71.921 93.367,71.115 94.089,70.816 C94.779,70.53 95.493,70.096 96.071,71.06 L96.071,71.06 Z M97.23,73.697 C97.687,74.074 98.087,74.867 97.54,75.494 C97.026,76.084 96.388,76.261 95.581,76.391 C95.035,76.484 94.337,76.08 94.249,75.598 C94.168,75.183 94.092,74.426 94.503,74.078 C95.306,73.394 96.381,72.998 97.23,73.697 L97.23,73.697 Z M98.197,69.199 C98.628,69.326 98.904,69.782 98.688,70.221 C98.557,70.492 98.169,70.786 97.923,70.936 C97.247,71.353 96.666,71.183 96.454,70.685 C96.064,69.77 97.375,68.956 98.197,69.199 L98.197,69.199 Z M99.848,71.478 C100.323,71.52 100.541,71.851 100.634,72.214 C100.757,72.701 100.597,73.152 100.186,73.428 C99.696,73.753 99.087,73.945 98.599,73.953 C97.94,73.964 97.329,72.996 97.687,72.368 C98.065,71.694 99.017,71.406 99.848,71.478 L99.848,71.478 Z M102.576,74.967 C102.856,75.795 102.249,76.181 101.61,76.521 C100.959,76.868 100.087,77.192 99.636,76.76 C99.059,76.217 98.802,75.302 99.445,74.7 C100.337,73.864 101.986,73.235 102.576,74.967 L102.576,74.967 Z M103.753,77.044 C104.799,77.177 105.007,78.664 104.796,79.202 C104.557,79.664 104.03,80.026 103.753,80.168 C102.986,80.563 102.089,80.713 101.384,80.348 C100.741,80.015 100.463,79.039 100.812,78.275 C101.285,77.241 102.775,76.915 103.753,77.044 L103.753,77.044 Z M105.905,81.648 C106.263,82.148 106.185,83.036 105.972,83.314 C105.313,84.215 103.476,84.73 102.719,84.361 C102.143,84.079 101.575,82.811 102.249,82.05 C102.95,81.26 104.171,80.789 105.28,81.02 C105.526,81.075 105.689,81.347 105.905,81.648 L105.905,81.648 Z M106.369,84.485 C106.873,84.539 107.32,85.093 107.563,85.696 C107.879,86.476 107.56,87.385 107.31,87.555 C106.708,87.964 104.802,89.112 103.602,88.424 C102.942,88.045 102.76,87.18 102.719,86.669 C102.586,85.018 105.091,84.342 106.369,84.485 L106.369,84.485 Z M99.33,96.294 C99.073,95.639 98.835,94.67 99.35,94.272 C100.389,93.453 102.739,92.735 103.633,93.975 C104.214,94.78 104.044,96.145 103.026,96.667 C101.976,97.204 99.922,97.821 99.33,96.294 L99.33,96.294 Z M94.289,96.367 C95.331,95.836 96.835,95.197 97.957,95.92 C98.471,96.249 99.002,97.616 98.639,98.222 C97.869,99.509 95.843,99.837 94.555,99.506 C93.458,99.221 93.127,96.953 94.289,96.367 L94.289,96.367 Z M93.351,91.917 C94.609,91.032 97.095,90.46 97.693,92.394 C97.849,92.896 97.937,93.451 97.681,93.856 C96.983,94.977 95.215,95.272 94.031,95.105 C92.751,94.92 92.146,92.762 93.351,91.917 L93.351,91.917 Z M92.291,87.41 C93.501,86.724 96.077,85.813 96.684,87.777 C96.927,88.58 96.902,89.572 96.214,89.926 C95.23,90.442 93.669,90.984 92.534,90.276 C91.585,89.676 91.457,87.887 92.291,87.41 L92.291,87.41 Z M99.059,79.307 C98.553,79.759 98.039,79.856 97.365,80.085 C96.421,80.405 95.434,79.678 95.325,78.775 C95.143,77.229 96.8,76.999 97.895,76.806 C98.694,76.662 99.189,77.379 99.336,77.862 C99.487,78.326 99.467,78.949 99.059,79.307 L99.059,79.307 Z M101.09,82.944 C100.371,84.015 97.474,84.689 96.835,83.587 C96.368,82.781 96.077,81.648 96.955,81.107 C97.876,80.541 98.968,80.202 100.041,80.395 C101.049,80.573 101.562,82.231 101.09,82.944 L101.09,82.944 Z M102.634,89.577 C103.047,90.233 103.335,91.115 102.723,91.929 C102.167,92.674 100.186,93.023 99.171,92.777 C98.614,92.637 98.351,91.961 98.266,91.504 C98.148,90.887 98.093,90.266 98.639,89.763 C99.424,89.043 100.473,89.059 101.48,89.059 C101.894,89.059 102.479,89.328 102.634,89.577 L102.634,89.577 Z M102.059,87.351 C101.441,88.485 99.35,88.631 98.41,88.506 C97.747,88.417 97.281,87.349 97.3,86.455 C97.307,85.996 97.45,85.691 97.765,85.522 C98.809,84.962 99.878,84.587 101.002,84.769 C102.098,84.943 102.524,86.491 102.059,87.351 L102.059,87.351 Z M91.051,84.909 C90.341,82.72 93.074,82.031 94.669,82.368 C95.779,82.599 96.15,84.733 95.117,85.407 C93.838,86.238 91.569,86.506 91.051,84.909 L91.051,84.909 Z M86.93,90.282 C87.749,89.437 89.228,89.384 90.381,89.539 C91.09,89.638 91.396,90.354 91.494,91.131 C91.77,93.269 88.9,93.629 87.534,93.129 C86.634,92.8 86.166,91.071 86.93,90.282 L86.93,90.282 Z M86.353,86.14 C87.209,85.132 88.64,84.893 89.826,85.219 C90.55,85.416 90.885,86.262 90.868,87.21 C90.854,87.748 90.485,88.139 90.154,88.275 C89.311,88.617 88.337,88.871 87.418,88.759 C86.283,88.62 85.596,87.033 86.353,86.14 L86.353,86.14 Z M86.488,81.629 C87.541,81.2 89.503,80.815 89.834,82.319 C90.279,84.322 87.916,84.647 86.654,84.299 C85.687,84.034 85.503,82.027 86.488,81.629 L86.488,81.629 Z M94.061,78.32 C94.848,78.767 95.013,80.028 94.534,80.759 C93.897,81.726 91.721,82.287 90.55,81.44 C89.882,80.955 89.522,78.968 90.891,78.491 C91.984,78.108 93.032,77.737 94.061,78.32 L94.061,78.32 Z M92.945,76.882 C92.052,77.434 90.78,77.654 89.936,77.184 C89.201,76.783 89.23,75.709 89.594,75.132 C90.192,74.17 91.679,74.066 92.707,74.368 C93.593,74.624 93.925,76.272 92.945,76.882 L92.945,76.882 Z M85.717,75.314 C85.808,75.028 85.935,74.946 86.112,74.859 C86.863,74.501 87.687,74.405 88.406,74.867 C88.924,75.202 88.878,75.976 88.495,76.378 C87.933,76.969 86.79,76.993 86.059,76.609 C85.586,76.363 85.564,75.78 85.717,75.314 L85.717,75.314 Z M85.957,78.449 C86.289,77.5 87.472,77.553 88.368,77.669 C89.47,77.813 89.69,79.225 89.299,79.819 C88.758,80.639 87.523,80.482 86.54,80.357 C85.741,80.255 85.694,79.197 85.957,78.449 L85.957,78.449 Z M101.508,106.969 C101.779,108.04 101.508,109.058 100.555,109.399 C99.33,109.831 97.673,110.464 96.694,109.804 C95.574,109.053 95.035,106.923 96.322,106.088 C97.842,105.094 100.866,104.443 101.508,106.969 L101.508,106.969 Z M99.857,103.639 C99.034,104.574 97.69,104.543 96.372,104.93 C95.862,105.077 95.258,104.628 94.993,104.162 C94.506,103.292 94.018,102.126 94.952,101.285 C95.725,100.58 96.78,100.64 97.727,100.357 C98.152,100.229 98.673,100.08 99.189,100.429 C100.257,101.158 100.673,102.72 99.857,103.639 L99.857,103.639 Z M108.587,89.624 C108.82,90.305 109.132,90.804 108.867,91.482 C108.553,92.315 107.746,92.429 106.988,92.703 C106.281,92.959 105.102,93.283 104.51,92.663 C103.829,91.959 103.555,90.524 104.369,89.909 C105.425,89.123 108.029,88.038 108.587,89.624 L108.587,89.624 Z M122.917,83.506 C123.54,80.967 124.313,78.392 124.506,75.709 C124.791,71.702 123.926,67.536 121.356,64.501 C121.609,65.81 121.944,66.915 122.12,68.289 C122.329,69.948 122.094,71.796 121.667,73.466 C121.342,74.73 120.773,75.959 120.208,77.133 C119.541,78.524 118.544,80.037 117.553,81.278 C114.772,84.736 110.439,91.485 110.439,91.485 C110.439,91.485 110.075,91.459 109.86,91.459 C109.809,90.619 111.804,87.737 112.811,86.124 C115.02,82.589 116.693,80.687 118.615,77.621 C119.819,75.689 120.738,73.337 121.034,71.205 C121.632,66.862 119.291,61.658 115.924,59.926 C116.693,63.17 116.613,67.743 114.886,69.666 C111.617,73.309 109.673,76.035 107.34,80.705 C107.274,80.83 106.728,80.075 106.277,79.782 C105.77,79.447 106.054,78.445 105.872,77.771 C105.708,77.198 105.438,76.756 105.358,76.656 C104.668,75.81 104,75.757 103.855,75.503 C103.687,75.217 103.768,74.503 103.165,73.69 C102.865,73.281 102.098,72.977 101.786,72.593 C101.448,72.173 101.295,70.888 100.364,70.361 C99.922,70.113 99.717,69.342 99.293,68.964 C97.984,67.805 96.678,68.029 96.427,67.956 C96.091,67.866 95.434,67.029 94.264,66.828 C93.12,66.633 92.491,67.396 91.897,67.12 C90.408,66.431 88.981,66.374 87.399,68.138 C86.924,68.663 86.103,68.172 85.078,68.956 C84.178,69.642 84.161,70.276 83.703,70.363 C82.842,70.524 82.2,71.213 81.868,71.965 C81.695,72.352 81.566,73.135 81.465,73.651 C81.324,74.364 80.964,75.02 80.957,75.544 C80.949,76.272 81.179,76.665 81.114,76.991 C81.008,77.462 80.627,77.894 80.58,78.335 C80.545,78.585 80.524,79.251 80.706,79.626 C80.935,80.088 80.545,80.49 80.343,80.982 C80.149,81.44 79.946,82.224 80.008,82.777 C80.09,83.536 80.524,83.814 80.187,84.413 C79.633,85.384 78.933,86.9 80.16,88.837 C80.385,89.191 79.646,89.88 79.604,90.891 C79.558,91.991 80.222,92.804 80.403,93.291 C80.437,93.466 80.111,93.456 80.099,93.644 C77.177,90.554 74.593,87.705 71.204,85.022 C69.134,83.386 67.087,82.01 64.793,80.782 C58.664,77.495 51.544,75.296 45.094,76.1 C47.522,78.056 50.588,79.45 53.083,81.671 C55.447,83.777 57.592,85.575 59.745,87.812 C63.125,91.323 65.871,94.882 68.732,99.013 C69.581,100.236 70.141,101.054 70.933,102.33 C71.731,103.606 72.617,104.961 73.343,106.226 C77.005,112.584 80.005,118.47 83.041,124.985 C83.884,126.786 84.592,128.672 85.418,130.463 C85.639,130.949 85.955,130.588 86.179,130.463 C87.276,129.828 88.443,129.297 89.584,128.759 C90.493,128.341 91.321,128.053 92.134,127.741 C94.188,126.958 96.138,126.533 98.29,126.086 C101.881,125.334 108.333,125.489 108.333,125.489 L120.567,125.485 L120.901,125.485 C120.773,121.978 119.94,118.57 119.737,115.053 C119.583,112.203 119.677,109.449 119.778,106.594 C120.051,98.858 121.188,90.554 122.917,83.506 L122.917,83.506 Z" id="Fill-16"></path>
                <path d="M39.514,54.484 C37.127,56.864 36.415,57.741 35.023,60.372 C34.203,61.919 33.162,63.906 32.865,66.465 C37.771,64.598 41.772,60.787 45.389,56.578 C48.064,53.458 50.139,49.318 52.777,46.236 C48.13,47.794 43.227,50.788 39.514,54.484" id="Fill-17"></path>
                <path d="M25.472,61.175 C27.321,58.051 29.97,54.674 32.716,52.37 C31.444,55.226 29.877,58.057 29.339,61.436 C28.271,68.163 27.264,72.875 26.148,79.015 C29.199,76.839 32.416,73.42 35.651,71.034 C38.151,69.197 40.656,67.97 43.227,66.204 C44.755,65.149 45.75,63.795 47.021,62.527 C45.507,68.911 39.905,75.354 35.894,78.358 C30.855,82.137 29.049,82.739 20.952,90.973 C19.924,80.806 20.107,70.24 25.472,61.175" id="Fill-18"></path>
                <g id="Group-22">
                    <path d="M8.953,94.941 C9.33,89.661 9.963,85.439 11.246,80.289 C12.144,76.692 14.08,71.338 16.87,69.142 C16.528,70.447 16.349,72.402 16.217,73.722 C15.67,79.161 16.711,85.478 16.835,90.912 C16.897,93.583 16.874,95.643 16.474,98.153 C16.06,100.786 16.405,104.015 16.405,104.015 C16.405,104.015 17.848,102.368 19.136,100.316 C21.95,95.846 22.852,94.519 25.119,92.097 C27.933,89.092 31.079,86.309 34.632,83.845 C34.203,85.515 32.389,88.761 31.64,90.066 C30.639,91.811 30.185,93.398 27.818,97.351 C24.487,102.906 23.003,103.655 19.304,109.596 C18.503,110.888 15.219,115.802 14.423,117.304 C12.691,113.718 12.037,110.585 9.912,104.748 C8.576,101.08 8.776,97.412 8.953,94.941" id="Fill-19"></path>
                    <path d="M3.81,122.408 C1.801,117.2 0.88,112.368 0.2,106.885 C-0.216,103.53 -0.023,99.059 1.174,95.833 C1.488,96.62 2.129,98.62 2.216,98.919 C3.106,101.915 3.479,103.354 4.724,106.244 C5.676,108.46 6.841,110.227 8.087,112.417 C9.22,114.416 10.176,117.048 10.996,119.062 C13.633,125.519 13.828,131.564 14.837,132.224 C15.563,130.67 15.79,129.182 15.871,128.449 C16.655,121.304 17.596,114.81 26.594,106.389 C27.419,108.896 27.001,113.517 26.505,115.992 C25.429,121.404 24.56,124.003 22.177,129.248 C20.917,132.01 19.235,136.075 18.774,137.421 C17.566,140.928 17.152,142.766 16.392,144.84 C12.144,137.762 6.916,130.453 3.81,122.408" id="Fill-21"></path>
                </g>
                <path d="M10.813,154.969 C7.788,150.759 6.686,148.644 4.718,144.162 C3.065,140.403 2.589,139.009 1.622,134.799 C1.093,132.504 0.794,130.422 1.205,129.065 C3.572,133.352 5.188,138.15 8.286,141.706 C10.745,144.527 13.113,146.929 15.068,149.31 C18.067,152.968 20.428,156.431 23.306,160.24 C23.549,158.331 23.643,156.397 23.214,153.269 C22.628,148.983 22.989,145.469 23.738,141.319 C24.687,136.054 25.382,133.448 27.209,128.121 C29.444,132.504 29.435,137.575 29.996,142.224 C31.079,151.244 28.257,162 27.702,166.484 C27.554,167.665 27.758,170.58 27.818,171.716 C23.598,168.393 19.844,165.037 16.204,161.387 C14.545,159.733 12.27,156.992 10.813,154.969" id="Fill-23"></path>
                <path d="M26.811,188.047 C24.889,186.663 19.726,182.717 17.282,179.612 C13.722,175.091 12.938,173.154 10.589,167.953 C10.302,167.319 8.973,164.375 8.864,162.375 C16.559,171.666 23.447,173.049 30.787,180.759 C33.48,183.583 36.239,186.242 37.694,187.575 C38.812,188.603 40.199,188.914 40.199,188.914 C40.199,188.914 40.054,186.934 39.33,185.556 C34.433,176.197 33.509,166.412 34.251,155.911 C36.487,158.678 37.192,160.526 38.61,163.202 C40.153,166.117 40.94,167.919 41.661,169.713 C45.851,180.142 46.941,192.188 49.53,198.25 C41.539,195.558 35.246,194.119 26.811,188.047" id="Fill-24"></path>
                <path d="M59.583,212.657 C57.421,212.802 53.184,212.789 50.924,212.421 C39.485,210.59 28.852,202.3 23.503,193.194 C28.353,196.153 31.859,198.128 36.124,199.605 C39.922,200.917 43.525,201.306 49.866,203.107 C53.692,204.188 57.48,205.719 58.811,206.217 C63.053,207.797 64.839,207.409 64.839,207.409 C64.839,207.409 64.839,206.764 63.254,205.036 C60.097,201.59 58.94,200.766 56.342,198.117 C55.489,197.242 53.535,194.269 52.542,192.292 C49.735,186.704 49.423,182.225 46.86,176.086 C56.215,181.58 60.772,189.161 65.719,198.718 C67.24,201.645 69.296,205.026 71.176,206.884 C72.439,208.131 74.22,210.026 74.22,210.026 C74.22,210.026 72.915,210.333 68.854,210.933 C67.031,211.2 63.148,212.409 59.583,212.657" id="Fill-25"></path>
                <path d="M104.931,213.382 C109.87,214.19 114.259,215.39 118.75,216.931 C119.958,217.346 121.794,218.259 123.067,218.904 C126.25,220.524 128.083,221.576 130.819,223.457 C135.225,226.492 139.959,229.762 144.231,234.724 C144.322,234.822 145.012,235.56 144.552,235.92 C143.715,236.576 141.653,237.51 140.967,236.905 C137.059,233.429 137.256,232.316 132.52,228.027 C131.305,226.933 129.471,225.398 127.28,223.899 C125.142,222.436 122.558,220.838 120.158,219.654 C117.975,218.58 114.616,218.259 112.729,218.259 L112.755,218.273 C111.898,218.24 106.971,218.212 105.831,218.286 C96.15,218.95 96.624,219.816 91.042,221.328 C86.451,222.577 81.526,223.466 76.637,224.122 C71.628,224.803 67.146,224.885 62.451,224.406 C56.086,223.75 49.123,221.976 43.927,218.627 C48.678,218.707 53.557,219.62 58.284,219.258 C60.272,219.105 63.5,218.805 65.685,218.131 C70.026,216.798 72.518,216.278 77.116,214.996 C81.067,213.897 85.05,213.516 89.176,213.081 C94.887,212.47 100.176,212.608 104.931,213.382" id="Fill-26"></path>
                <path d="M193.452,54.484 C195.839,56.864 196.554,57.741 197.946,60.372 C198.766,61.919 199.807,63.906 200.104,66.465 C195.195,64.598 191.197,60.787 187.578,56.578 C184.901,53.458 182.829,49.318 180.191,46.236 C184.838,47.794 189.741,50.788 193.452,54.484" id="Fill-27"></path>
                <path d="M207.498,61.175 C205.646,58.051 202.999,54.674 200.253,52.37 C201.538,55.444 203.41,59.274 203.629,61.436 C204.312,68.21 205.704,72.875 206.821,79.015 C203.771,76.839 200.549,73.42 197.315,71.034 C194.821,69.197 192.313,67.97 189.745,66.204 C188.213,65.149 187.218,63.795 185.947,62.527 C187.461,68.911 193.063,75.354 197.075,78.358 C202.112,82.137 203.918,82.739 212.012,90.973 C213.04,80.806 212.858,70.24 207.498,61.175" id="Fill-28"></path>
                <g id="Group-32">
                    <path d="M224.016,94.941 C223.635,89.661 223.008,85.439 221.723,80.289 C220.825,76.692 218.889,71.338 216.094,69.142 C216.44,70.447 216.617,72.402 216.75,73.722 C217.302,79.161 216.262,85.478 216.133,90.912 C216.072,93.583 216.094,95.643 216.492,98.153 C216.907,100.786 216.564,104.015 216.564,104.015 C216.564,104.015 215.122,102.368 213.831,100.316 C211.022,95.846 210.12,94.519 207.846,92.097 C205.036,89.092 201.886,86.309 198.333,83.845 C198.766,85.515 200.579,88.761 201.329,90.066 C202.333,91.811 202.782,93.398 205.151,97.351 C208.481,102.906 209.965,103.655 213.661,109.596 C214.461,110.888 217.75,115.802 218.545,117.304 C220.28,113.718 220.931,110.585 223.057,104.748 C224.396,101.08 224.196,97.412 224.016,94.941" id="Fill-29"></path>
                    <path d="M229.159,122.408 C231.167,117.2 232.085,112.368 232.77,106.885 C233.186,103.53 232.99,99.059 231.795,95.833 C231.481,96.62 230.842,98.62 230.753,98.919 C229.86,101.915 229.49,103.354 228.248,106.244 C227.294,108.46 226.124,110.227 224.881,112.417 C223.749,114.416 222.793,117.048 221.969,119.062 C219.335,125.519 219.14,131.564 218.131,132.224 C217.403,130.67 217.177,129.182 217.098,128.449 C216.313,121.304 215.372,114.81 206.375,106.389 C205.547,108.896 205.967,113.517 206.459,115.992 C207.54,121.404 208.413,124.003 210.792,129.248 C212.051,132.01 213.734,136.075 214.198,137.421 C215.399,140.928 215.815,142.766 216.581,144.84 C220.825,137.762 226.053,130.453 229.159,122.408" id="Fill-31"></path>
                </g>
                <path d="M222.157,154.969 C225.184,150.759 226.283,148.644 228.25,144.162 C229.903,140.403 230.376,139.009 231.348,134.799 C231.877,132.504 232.174,130.422 231.762,129.065 C229.401,133.352 227.776,138.15 224.679,141.706 C222.225,144.527 219.856,146.929 217.901,149.31 C214.905,152.968 212.537,156.431 209.663,160.24 C209.422,158.331 209.325,156.397 209.75,153.269 C210.34,148.983 209.979,145.469 209.231,141.319 C208.282,136.054 207.586,133.448 205.76,128.121 C203.528,132.504 203.534,137.575 202.972,142.224 C201.886,151.244 204.715,162 205.27,166.484 C205.415,167.665 205.21,170.58 205.151,171.716 C209.371,168.393 213.125,165.037 216.764,161.387 C218.423,159.733 220.694,156.992 222.157,154.969" id="Fill-33"></path>
                <path d="M206.16,188.047 C208.079,186.663 213.243,182.717 215.686,179.612 C219.247,175.091 220.032,173.154 222.379,167.953 C222.663,167.319 223.997,164.375 224.105,162.375 C216.411,171.666 209.521,173.049 202.181,180.759 C199.489,183.583 196.733,186.242 195.276,187.575 C194.159,188.603 192.772,188.914 192.772,188.914 C192.772,188.914 192.915,186.934 193.637,185.556 C198.536,176.197 199.46,166.412 198.713,155.911 C196.486,158.678 195.776,160.526 194.359,163.202 C192.819,166.117 192.03,167.919 191.311,169.713 C187.118,180.142 186.023,192.188 183.435,198.25 C191.432,195.558 197.723,194.119 206.16,188.047" id="Fill-34"></path>
                <path d="M173.385,212.657 C175.551,212.802 179.786,212.789 182.047,212.421 C193.487,210.59 204.117,202.3 209.466,193.194 C204.612,196.153 201.106,198.128 196.844,199.605 C193.043,200.917 189.444,201.306 183.106,203.107 C179.276,204.188 175.489,205.719 174.157,206.217 C169.916,207.797 168.129,207.409 168.129,207.409 C168.129,207.409 168.129,206.764 169.713,205.036 C172.872,201.59 174.03,200.766 176.624,198.117 C177.479,197.242 179.434,194.269 180.425,192.292 C183.233,186.704 183.545,182.225 186.112,176.086 C176.756,181.58 172.19,189.161 167.247,198.718 C165.729,201.645 163.672,205.026 161.795,206.884 C160.534,208.131 158.749,210.026 158.749,210.026 C158.749,210.026 160.053,210.333 164.119,210.933 C165.938,211.2 169.819,212.409 173.385,212.657" id="Fill-35"></path>
                <path d="M128.038,213.382 C123.099,214.19 118.714,215.39 114.219,216.931 C113.007,217.346 111.174,218.259 109.902,218.904 C106.718,220.524 104.89,221.576 102.151,223.457 C97.74,226.492 93.013,229.762 88.738,234.724 C88.646,234.822 87.953,235.56 88.416,235.92 C89.255,236.576 91.318,237.51 91.998,236.905 C95.908,233.429 95.709,232.316 100.45,228.027 C101.659,226.933 103.493,225.398 105.689,223.899 C107.831,222.436 110.407,220.838 112.811,219.654 C114.989,218.58 118.356,218.259 120.239,218.259 L120.211,218.273 C121.071,218.24 125.995,218.212 127.138,218.286 C136.821,218.95 136.344,219.816 141.923,221.328 C146.517,222.577 151.442,223.466 156.332,224.122 C161.337,224.803 165.823,224.885 170.517,224.406 C176.883,223.75 183.843,221.976 189.038,218.627 C184.29,218.707 179.414,219.62 174.682,219.258 C172.692,219.105 169.469,218.805 167.284,218.131 C162.942,216.798 160.449,216.278 155.854,214.996 C151.902,213.897 147.918,213.516 143.794,213.081 C138.082,212.47 132.793,212.608 128.038,213.382" id="Fill-36"></path>
                <path d="M110.365,0.536 L101.669,32.824 L92.438,32.824 L86.664,11.79 L81.019,32.824 L71.81,32.824 L63.115,0.536 L71.806,0.536 L76.759,22.762 L82.717,0.536 L91.022,0.536 L96.675,22.762 L101.876,0.536 L110.365,0.536" id="Fill-37"></path>
                <path d="M139.051,6.781 L124.198,6.781 L124.198,12.788 L137.967,12.788 L137.967,19.033 L124.198,19.033 L124.198,32.824 L115.916,32.824 L115.916,0.536 L139.051,0.536 L139.051,6.781" id="Fill-38"></path>
                <path d="M162.838,10.913 C162.838,10.004 162.592,9.222 162.102,8.566 C161.61,7.909 161.04,7.452 160.389,7.192 C159.521,6.846 158.676,6.655 157.852,6.619 C157.028,6.583 155.928,6.564 154.555,6.564 L153.125,6.564 L153.125,16.214 L155.509,16.214 C156.926,16.214 158.093,16.127 159.012,15.954 C159.93,15.781 160.7,15.434 161.321,14.915 C161.856,14.455 162.243,13.902 162.481,13.26 C162.719,12.619 162.838,11.836 162.838,10.913 L162.838,10.913 Z M171.448,10.727 C171.448,12.173 171.194,13.586 170.688,14.967 C170.182,16.348 169.459,17.508 168.52,18.447 C167.233,19.72 165.798,20.681 164.215,21.331 C162.633,21.982 160.663,22.307 158.307,22.307 L153.125,22.307 L153.125,32.824 L144.797,32.824 L144.797,0.536 L158.502,0.536 C160.555,0.536 162.286,0.713 163.695,1.067 C165.104,1.422 166.352,1.953 167.436,2.661 C168.737,3.514 169.731,4.605 170.417,5.935 C171.104,7.266 171.448,8.863 171.448,10.727 L171.448,10.727 Z" id="Fill-39"></path>
                <path d="M49.932,258.213 L44.127,276.945 L37.752,276.945 L33.936,264.318 L30.165,276.945 L23.727,276.945 L17.973,258.213 L24.271,258.213 L27.487,271.122 L31.483,258.213 L36.804,258.213 L40.604,271.122 L43.767,258.213 L49.932,258.213" id="Fill-40"></path>
                <path d="M64.977,255.394 L64.528,255.394 C64.262,255.316 63.916,255.227 63.489,255.127 C63.062,255.028 62.604,254.977 62.116,254.977 C60.941,254.977 60.146,255.188 59.729,255.611 C59.314,256.034 59.106,256.851 59.106,258.063 L59.106,258.213 L63.726,258.213 L63.726,262.283 L59.306,262.283 L59.306,276.945 L53.284,276.945 L53.284,262.283 L50.716,262.283 L50.716,258.213 L53.284,258.213 L53.284,257.696 C53.284,255.406 53.894,253.688 55.111,252.541 C56.329,251.396 58.172,250.824 60.641,250.824 C61.53,250.824 62.336,250.854 63.059,250.915 C63.782,250.976 64.421,251.057 64.977,251.157 L64.977,255.394" id="Fill-41"></path>
                <path d="M78.915,267.446 C78.915,265.625 78.604,264.303 77.983,263.482 C77.362,262.661 76.38,262.249 75.038,262.249 C74.472,262.249 73.889,262.336 73.29,262.508 C72.691,262.679 72.12,262.926 71.576,263.248 L71.576,272.658 C71.975,272.814 72.403,272.913 72.858,272.958 C73.312,273.002 73.762,273.025 74.206,273.025 C75.792,273.025 76.974,272.561 77.751,271.634 C78.527,270.707 78.915,269.311 78.915,267.446 L78.915,267.446 Z M85.104,267.32 C85.104,268.866 84.867,270.272 84.396,271.54 C83.923,272.808 83.304,273.853 82.538,274.675 C81.739,275.542 80.833,276.2 79.823,276.644 C78.812,277.089 77.729,277.311 76.574,277.311 C75.508,277.311 74.602,277.197 73.858,276.969 C73.114,276.742 72.354,276.421 71.576,276.011 L71.576,283.817 L65.555,283.817 L65.555,258.213 L71.576,258.213 L71.576,260.164 C72.498,259.431 73.439,258.836 74.4,258.379 C75.36,257.923 76.468,257.696 77.724,257.696 C80.056,257.696 81.869,258.552 83.163,260.264 C84.456,261.977 85.104,264.328 85.104,267.32 L85.104,267.32 Z" id="Fill-42"></path>
                <path d="M87.949,270.389 L94.188,270.389 L94.188,276.945 L87.949,276.945 L87.949,270.389 Z" id="Fill-43"></path>
                <path d="M110.128,272.14 C110.517,271.662 110.809,271.086 111.003,270.414 C111.197,269.742 111.295,268.81 111.295,267.62 C111.295,266.52 111.195,265.597 110.995,264.852 C110.795,264.107 110.517,263.512 110.161,263.067 C109.805,262.611 109.377,262.288 108.876,262.099 C108.376,261.911 107.836,261.816 107.258,261.816 C106.68,261.816 106.166,261.894 105.715,262.049 C105.265,262.204 104.834,262.517 104.423,262.984 C104.056,263.416 103.764,264.011 103.547,264.768 C103.33,265.524 103.222,266.475 103.222,267.62 C103.222,268.644 103.316,269.531 103.505,270.281 C103.694,271.032 103.972,271.634 104.339,272.091 C104.695,272.524 105.121,272.84 105.616,273.041 C106.11,273.242 106.674,273.341 107.309,273.341 C107.853,273.341 108.374,273.25 108.868,273.066 C109.362,272.883 109.783,272.575 110.128,272.14 L110.128,272.14 Z M117.516,267.586 C117.516,270.667 116.618,273.094 114.823,274.868 C113.026,276.641 110.506,277.528 107.258,277.528 C104.011,277.528 101.49,276.641 99.694,274.868 C97.898,273.094 97,270.667 97,267.586 C97,264.485 97.903,262.049 99.711,260.282 C101.518,258.513 104.033,257.628 107.258,257.628 C110.528,257.628 113.054,258.518 114.838,260.298 C116.624,262.077 117.516,264.506 117.516,267.586 L117.516,267.586 Z" id="Fill-44"></path>
                <path d="M133.69,263.934 L133.157,263.934 C132.901,263.845 132.491,263.778 131.924,263.734 C131.359,263.69 130.887,263.667 130.51,263.667 C129.656,263.667 128.902,263.723 128.247,263.834 C127.592,263.946 126.887,264.134 126.133,264.401 L126.133,276.945 L120.112,276.945 L120.112,258.213 L126.133,258.213 L126.133,260.965 C127.454,259.83 128.602,259.078 129.578,258.704 C130.554,258.332 131.454,258.146 132.274,258.146 C132.485,258.146 132.723,258.152 132.991,258.162 C133.256,258.174 133.49,258.191 133.69,258.213 L133.69,263.934" id="Fill-45"></path>
                <path d="M147.577,271.039 L147.577,262.549 C147.233,262.406 146.811,262.291 146.311,262.208 C145.812,262.124 145.363,262.082 144.963,262.082 C143.387,262.082 142.206,262.536 141.418,263.443 C140.631,264.348 140.237,265.613 140.237,267.237 C140.237,269.037 140.573,270.294 141.245,271.006 C141.915,271.718 142.911,272.075 144.231,272.075 C144.831,272.075 145.418,271.98 145.995,271.79 C146.572,271.602 147.1,271.352 147.577,271.039 L147.577,271.039 Z M153.598,274.793 C153.598,276.549 153.348,278.029 152.847,279.229 C152.346,280.431 151.647,281.37 150.745,282.048 C149.844,282.739 148.758,283.236 147.485,283.541 C146.211,283.847 144.774,284 143.172,284 C141.872,284 140.59,283.922 139.329,283.766 C138.066,283.611 136.973,283.421 136.05,283.2 L136.05,278.512 L136.784,278.512 C137.516,278.801 138.41,279.065 139.465,279.304 C140.52,279.543 141.463,279.663 142.296,279.663 C143.407,279.663 144.309,279.56 145.003,279.355 C145.698,279.149 146.227,278.857 146.593,278.479 C146.938,278.122 147.188,277.667 147.342,277.112 C147.499,276.555 147.577,275.888 147.577,275.11 L147.577,274.759 C146.854,275.349 146.055,275.816 145.177,276.16 C144.3,276.505 143.323,276.677 142.246,276.677 C139.624,276.677 137.602,275.888 136.181,274.308 C134.759,272.73 134.049,270.328 134.049,267.103 C134.049,265.558 134.266,264.223 134.699,263.1 C135.131,261.977 135.743,260.998 136.531,260.164 C137.264,259.386 138.167,258.78 139.238,258.347 C140.309,257.912 141.407,257.696 142.529,257.696 C143.54,257.696 144.458,257.815 145.286,258.054 C146.113,258.294 146.866,258.623 147.543,259.047 L147.76,258.213 L153.598,258.213 L153.598,274.793 L153.598,274.793 Z" id="Fill-46"></path>
                <path d="M175.125,250.99 L161.897,282.349 L156.778,282.349 L169.952,250.99 L175.125,250.99" id="Fill-47"></path>
                <path d="M190.502,255.479 L190.055,255.479 C189.79,255.402 189.445,255.313 189.02,255.213 C188.595,255.114 188.139,255.064 187.653,255.064 C186.482,255.064 185.689,255.275 185.275,255.696 C184.861,256.117 184.654,256.93 184.654,258.137 L184.654,258.287 L189.256,258.287 L189.256,262.341 L184.854,262.341 L184.854,276.945 L178.856,276.945 L178.856,262.341 L176.297,262.341 L176.297,258.287 L178.856,258.287 L178.856,257.772 C178.856,255.491 179.462,253.779 180.675,252.638 C181.888,251.497 183.724,250.927 186.183,250.927 C187.069,250.927 187.872,250.957 188.592,251.018 C189.312,251.079 189.949,251.16 190.502,251.259 L190.502,255.479" id="Fill-48"></path>
                <path d="M190.396,258.287 L196.395,258.287 L196.395,276.945 L190.396,276.945 L190.396,258.287 Z M190.23,251.093 L196.561,251.093 L196.561,255.628 L190.23,255.628 L190.23,251.093 Z" id="Fill-49"></path>
            </g>
        </g>
    </g>
</svg>