<?xml version="1.0" encoding="UTF-8" standalone="no"?>
<svg
   xmlns:dc="http://purl.org/dc/elements/1.1/"
   xmlns:cc="http://creativecommons.org/ns#"
   xmlns:rdf="http://www.w3.org/1999/02/22-rdf-syntax-ns#"
   xmlns:svg="http://www.w3.org/2000/svg"
   xmlns="http://www.w3.org/2000/svg"
   viewBox="0 0 850.74664 377.94666"
   height="377.94666"
   width="850.74664"
   xml:space="preserve"
   id="svg2"
   version="1.1"><metadata
     id="metadata8"><rdf:RDF><cc:Work
         rdf:about=""><dc:format>image/svg+xml</dc:format><dc:type
           rdf:resource="http://purl.org/dc/dcmitype/StillImage" /></cc:Work></rdf:RDF></metadata><defs
     id="defs6"><clipPath
       id="clipPath20"
       clipPathUnits="userSpaceOnUse"><path
         id="path18"
         d="M 0,2834.65 V 0 h 6380.56 v 2834.65 z" /></clipPath></defs><g
     transform="matrix(1.3333333,0,0,-1.3333333,0,377.94667)"
     id="g10"><g
       transform="scale(0.1)"
       id="g12"><g
         id="g14"><g
           clip-path="url(#clipPath20)"
           id="g16"><path
             id="path22"
             style="fill:#ffffff;fill-opacity:1;fill-rule:nonzero;stroke:none"
             d="m 1340.55,2131.13 c 12.48,27.05 24.07,48.64 40.77,74.3 7.36,11.3 15.68,19.19 23.14,30.68 -3.59,1.02 -8.73,-1.91 -10.99,-3.49 -7.42,-5.38 -10.77,-14.13 -16.7,-18.83 -14.05,-11.04 -13.64,-21.1 -21,-26.28 -6.57,-4.62 -8.44,-7.65 -13.06,-14.88 -3.07,-4.83 -5.35,-8.74 -8.57,-18.21 -1.19,-3.42 -3.44,-0.41 -8.97,-7.97 -7.14,-9.81 -10.38,-20.36 -13.35,-32.26 -0.97,-3.91 -7.62,-5.96 -11.85,-14.08 -5.73,-10.91 -9.48,-21.04 -11.94,-36.92 -0.6,-3.72 -6.85,-6.26 -11.17,-16.53 -3.03,-7.25 -5.19,-8.83 -7.89,-22.46 -1.62,-8.31 -5.43,-9.54 -9.71,-21.56 -3.25,-9.21 -3.42,-18.06 -4.55,-30.1 -0.29,-2.35 -4.23,-6.94 -7.83,-13.68 -6.12,-11.27 -5.89,-18.77 -8.33,-30.4 -0.92,-4.23 -5.66,-9.77 -10.18,-27.8 -3.97,-15.99 -0.34,-26.55 -1.65,-34.48 -3.57,-20.4 -7.07,-38.19 -5.17,-58.32 0.94,-9.84 2.44,-20.02 1.8,-29.46 -1.89,-29.72 -3.47,-54.17 -3.33,-87.83 0.1,-18.36 1.53,-43.42 4.33,-64.32 3.02,-23.05 7.42,-41.06 7.42,-41.06 h 75.14 c 0,0 -2.93,43.45 0.97,89.15 2.31,27.46 8.83,56.5 14.74,76.92 7.49,26.02 12.18,39.52 26.37,73.85 0.32,0.78 -0.09,3.96 -3.85,0.83 -7.84,-6.61 -14.35,-12.35 -20.57,-21.71 -9.44,-14.25 -15.2,-25.99 -22.88,-40.62 -8.94,-17.04 -13.86,-31.84 -23.09,-52.5 -0.54,14.9 1.88,29.09 4.9,42.89 3.08,14 5.54,25.13 9.95,37.23 7.83,21.37 15.45,39.16 28.03,59.04 7.28,11.45 16.58,21.74 26,30.32 11.28,10.32 21.7,19.38 33.56,29.48 -12.45,6.39 -28.99,-6.95 -32.25,-7.61 -17.49,-3.41 -24.62,-19.66 -29.98,-21.84 -7.61,-3.23 -12.03,-7.88 -17.35,-14.32 -4.12,-4.84 -5.31,-12.36 -9.61,-14.99 -7.14,-4.45 -12.35,-11.17 -17.25,-20.51 -2,-3.86 -7.52,-22.11 -13.6,-19.81 10.41,61.94 32.28,120.03 67.38,171.72 22.22,32.77 46.45,60.91 82.12,86.09 4.71,3.34 5.62,4.88 -0.96,4.68 -33.33,-4.03 -35.36,-19.3 -40.88,-20.74 -5.17,-1.3 -11.61,-7.5 -15.75,-11.49 -7.41,-7.33 -7.29,-13.54 -10.15,-15.46 -6.07,-4.2 -10.65,-8.66 -14.8,-16.02 -2.15,-3.81 -5.86,-12.3 -9.12,-14.24 -8.53,-4.95 -16.83,-12.19 -20.99,-19.99 -3.04,-5.66 -4.23,-11.87 -8.25,-17.45 -4.24,-6.06 -10.22,-10.55 -15.34,-14.91 3.89,26.46 16.39,57.8 24.94,84.88 11.57,36.13 25.52,68.94 41.35,103.07" /><path
             id="path24"
             style="fill:#ffffff;fill-opacity:1;fill-rule:nonzero;stroke:none"
             d="m 1417.26,1916.64 c 28.43,63.82 58.34,111.9 97.25,168.1 5.06,7.37 9.66,14.59 14.08,21.49 2,3.08 11.58,16.82 13.57,19.74 13,19.73 18.51,25.73 31.86,44.57 3.59,5.09 6.52,9.09 8.04,15 2.86,11.03 -6.57,18.41 -8.78,28.99 -2.17,10.79 -1,22.56 4,31.69 3.09,5.66 6.15,7.92 9.31,15.58 6.04,14.72 3.97,46.58 10.86,47.43 -1.77,-15.13 -2.15,-32.14 0.2,-46.67 2.78,-16.94 13.05,-27.2 17.31,-45.09 11.4,2.05 23.84,1.55 33.41,0.71 9.57,-0.77 21.61,1.85 31.42,5.21 13.28,4.51 24.26,12.77 37.79,16 -11.52,-11.08 -27.73,-15.26 -41.34,-23.63 -4.98,-3.12 -9.72,-7.3 -13,-12.43 -5.53,-8.53 -9.81,-16.64 -18.38,-20.39 -15.18,-6.65 -28.24,-3.48 -45.55,-6.72 -25.77,-26.52 -50.04,-62.61 -72.43,-100.59 -56.72,-95.93 -104.02,-195.36 -131.52,-297.31 9.54,17.79 18.6,34.92 28.89,51.77 11.42,18.78 24.22,37.09 38.13,55.49 32.67,43.04 64.97,80.63 101.2,120.18 29.19,31.99 61.24,58.8 96.94,81.17 47.22,29.59 105.43,50.29 156.59,39.66 5.82,-1.38 14.14,-2.92 17.76,-6.76 -64.11,8.96 -121.56,-13.45 -164.41,-47.76 -33.85,-27.04 -62.36,-54.57 -91.4,-90.27 -14.93,-17.2 -28.43,-36.13 -41.79,-54.42 -14.03,-19.31 -26.49,-39.55 -38.8,-59.86 -41.54,-68.59 -72.97,-141.24 -96.13,-216.49 -0.64,-2.39 -0.77,-4.8 -1.47,-7.18 1.15,1.66 2.75,3.52 3.82,5.26 31.15,50.57 68.6,99.41 116,132.24 4.1,2.78 8.44,8.2 9.52,12.49 5.17,20.08 -10.18,29.76 11.04,57.54 4.87,6.37 11.47,8.71 16.09,14.63 8.7,13.38 15.74,37.44 23,43.88 -3.68,-15.64 -12.63,-32.16 -14.55,-48.27 -2.02,-17.67 2.49,-32.16 3.3,-50.88 12.5,-1.74 22.18,-7.04 32,-10.06 15.32,-4.79 24.49,-3.54 39.56,-2.22 6.51,0.54 18.2,4.27 25.15,2.87 -14.62,-8 -34.34,-6.52 -49.3,-14.12 -10.46,-5.36 -13.51,-13.31 -27.9,-16.05 -12.87,-2.5 -23.67,-1.2 -32.02,3.09 -6.47,3.3 -11.51,4.67 -17.35,1.87 -15.56,-7.46 -26.2,-18.02 -38.74,-30.66 -29.05,-29.28 -52.81,-61.94 -74.94,-104.73 -5.85,-11.43 -11.14,-22.68 -16.13,-34.29 -2.45,-5.63 -8.61,-21.3 -8.61,-21.3 h -75.95 c 0,0 -0.23,21.91 0.52,29.9 1.46,15.96 3.59,27.76 6.68,43.93 4.41,23.29 8.73,44.38 14.79,66.94 5.88,21.95 12.22,42.55 19.72,63.63 15.71,43.95 32.39,86.11 50.69,127.1" /><path
             id="path26"
             style="fill:#ffffff;fill-opacity:1;fill-rule:nonzero;stroke:none"
             d="m 682.555,1324.77 c 27.742,22.64 48.273,35.85 75.984,52.37 11.242,6.74 28.262,14.36 41.316,20.28 48.004,21.66 111.489,37.6 171.266,38.68 1.098,0 1.012,-0.04 1.012,-0.04 H 1418.1 c 0,0 -1.7,0.04 1.54,0.04 14.19,0 28.24,-4.93 36.88,-13.07 8.71,-8.33 12.91,-21.05 15.14,-33.69 1.93,-10.78 0.97,-20.27 -1.52,-31.83 -1.96,-9.19 -3.44,-14.54 -8.48,-22.29 -3.08,-4.73 -5.97,-7.93 -11.68,-12.51 -5.86,-4.7 -14.17,-6.25 -23.71,-6.33 -1,-0.04 -3.11,-0.2 -3.04,-0.07 0.09,0.07 -521.558,0.07 -521.558,0.07 0,0 -3.27,0.01 -4.875,0.01 -34.152,0.1 -70.121,-1.66 -103.859,-6.13 -25.844,-3.45 -51.747,-7.47 -76.715,-14.02 -31.477,-8.17 -61.797,-19.61 -92.078,-30.95 16.761,22.33 36.152,41.33 58.41,59.48" /><path
             id="path28"
             style="fill:#ffffff;fill-opacity:1;fill-rule:nonzero;stroke:none"
             d="m 837.383,1502.19 c 27.414,19.76 60.703,36.04 90.144,47.32 14.977,5.62 34.809,11.9 50.618,15.83 19.062,4.82 40.925,8.41 58.815,8.98 5.38,0.14 0.81,0.04 0.81,0.04 l 382.44,0.03 c 0,0 8.21,-0.44 11.06,-0.98 7.15,-1.61 12.96,-4.54 15.37,-6.06 5.93,-3.76 13.37,-11.81 17.28,-18.13 9.95,-16.34 11.68,-33.97 8.5,-52.36 -3.71,-20.97 -19.61,-44.87 -41.27,-45.44 -3.72,-0.08 -11.27,0 -11.27,0 h -414.23 c 0,0 -24.084,-0.47 -35.123,-0.88 -20.39,-0.82 -42.965,-3.1 -60.726,-5.76 -15.266,-2.16 -30.098,-5.05 -45.328,-9.1 -51.094,-13.77 -95.473,-39.73 -141.879,-59.79 31.25,54.51 73.558,96.43 114.789,126.3" /><path
             id="path30"
             style="fill:#ffffff;fill-opacity:1;fill-rule:nonzero;stroke:none"
             d="m 623.441,1242.3 c 66.481,39.23 146.575,54.76 219.922,57.15 1.719,0.07 5.188,0.3 5.188,0.3 l 571.759,-0.05 c 0,0 1.03,0 6.23,0.05 34.64,0.03 47.3,-34.46 47.1,-62.21 -0.05,-9.11 -1.59,-18.51 -4.12,-24.72 -3.31,-8.26 -6.93,-14.97 -12.89,-21.35 -2.14,-2.42 -9.82,-7.75 -13.19,-8.59 -7.93,-1.93 -17.69,-1.75 -17.62,-1.75 0.12,0 -425.24,-0.06 -425.24,0 0,0 -22.982,0.93 -38.885,2.52 -11.496,1.12 -20.156,2.29 -32.105,4.51 -29.293,5.83 -53.59,15.4 -78.914,23.21 -16.91,5.19 -34.742,9.08 -53.305,11.9 -34.086,5.31 -71.394,7.63 -105.84,4.98 -43.859,-3.21 -82.871,-11.84 -124.597,-25 7.074,10.97 36.39,27.15 56.507,39.05" /><path
             id="path32"
             style="fill:#ffffff;fill-opacity:1;fill-rule:nonzero;stroke:none"
             d="m 931.426,1062.97 c -19.551,6.88 -38.61,15.75 -55.723,27.11 -22.305,14.74 -33.207,26.46 -62.008,39.81 -24.675,11.31 -44.34,22.59 -78.675,35.09 -16.586,5.99 -43.45,14.2 -66.512,18.15 -32.906,5.62 -64.637,8 -64.637,8 0,0 6.734,4.27 10.762,5.49 33.605,10.17 63.281,15.27 97.738,17.74 30.246,2.34 58.039,-0.6 88.356,-5.35 12.472,-1.97 28.644,-5.82 42.703,-9.81 45.609,-13.08 97.488,-33.65 143.558,-33.73 2.547,0 2.231,0.05 2.231,0.05 h 425.061 c 0,0 -3.23,0 1.26,0 12.92,0.03 36.96,-4.11 46.64,-21.25 11.2,-19.67 14.67,-43.11 5.28,-66.57 -2.86,-7.03 -7.6,-17.1 -14.41,-23.31 -5.96,-5.35 -15.65,-8.85 -21.23,-8.85 -1.66,-0.07 -4.39,0 -4.39,0 h -371.76 c 0,0 1.41,0 -2.02,0 -38.01,0 -85.857,4.62 -122.224,17.43" /><path
             id="path34"
             style="fill:#ffffff;fill-opacity:1;fill-rule:nonzero;stroke:none"
             d="m 1100.75,931.109 c -10.54,10.801 -25.05,27.352 -38.16,43.032 -25.23,30.119 -36.51,57.239 -36.51,57.239 h 247.88 c 0,0 0.71,-28.58 -5.05,-61.689 -5.37,-30.82 -16.7,-63.222 -28.79,-86.703 -0.45,-24.117 9.72,-46.519 11.37,-70.269 -20.32,-12.508 -42.24,-24.949 -60.52,-42.481 -1.15,-1.058 -3.05,-1.058 -3.77,1.832 -9.79,36.719 -14.97,69.352 -22.95,105.59 -22.65,17.488 -43.83,33.051 -63.5,53.449" /><path
             id="path36"
             style="fill:#ffffff;fill-opacity:1;fill-rule:nonzero;stroke:none"
             d="m 1356.25,951.488 c -7,12.922 -12.25,30.071 -20.32,40.192 -1.69,-9.039 0.41,-14.668 -0.79,-23.34 -1.18,-7.231 -7.13,-4.219 -8.3,-0.852 -3.47,9.942 -7.2,22.043 -10.39,32.09 -5.25,16.902 -6.98,31.762 -6.98,31.762 l 41.28,0.04 c 0,0 1.57,-0.46 2.28,-4.46 1.96,-10.33 1.48,-20.54 4.34,-32.529 3.68,-15.532 8.36,-29.641 14.08,-44.121 4.94,-12.719 11.33,-25.551 16.55,-38.2 0.68,-1.699 1.04,-4.851 -0.2,-6.539 -1.56,-1.929 -4.18,-1.722 -5.68,0 -11.8,13.449 -16.58,28.571 -25.87,45.957" /><path
             id="path38"
             style="fill:#ffffff;fill-opacity:1;fill-rule:nonzero;stroke:none"
             d="m 1420.1,922.012 c -7.05,14.929 -16.9,31.699 -16.03,48.738 4.54,-5.961 6.43,-10.34 12.71,-13.629 2.88,-0.93 8.89,-0.051 7.38,4.938 -2.79,9.293 -7.08,17.312 -11.08,30.101 -5.92,18.92 -11.68,39.21 -11.68,39.21 l -42.09,0.01 c 0,0 2.36,-17.13 11.94,-43.368 8.4,-23.133 21.36,-49.793 35.62,-74.614 11.55,-20.5 22.1,-38.339 35.24,-53.378 4.49,-5.11 15.55,-0.54 10.76,6.171 -12.5,17.629 -24.15,37.168 -32.77,55.821" /><path
             id="path40"
             style="fill:#ffffff;fill-opacity:1;fill-rule:nonzero;stroke:none"
             d="m 1693.42,2344.89 c -9.1,-3.98 -17.2,-9.14 -21.74,-17.93 -3.34,-6.31 -5.56,-15.95 0.8,-21.36 11.07,-9.45 24.33,0.27 29.71,9.96 6.78,12.34 5.06,35.92 5.06,35.92 0,0 -7.89,-4.08 -13.83,-6.59" /><path
             id="path42"
             style="fill:#ffffff;fill-opacity:1;fill-rule:nonzero;stroke:none"
             d="m 1703.08,2285.93 c 3.99,7.52 12.74,15.68 22.35,21.51 10.83,6.65 22.06,13.08 29.87,17.7 7.81,4.72 9.3,8.03 9.3,8.03 0,0 -6.43,-2.24 -9.94,-4.31 -19.3,-11.52 -40.34,-24.54 -48.86,-28.32 -10.8,-4.74 -25.47,-5.65 -38.72,-7.31 -2.12,16.67 -6.46,23.59 -6.41,38.45 0.15,7.09 1.84,16.32 3.08,22.74 4.11,21.43 4.95,32.24 4.95,32.24 0,0 -3.3,-3.04 -4.46,-12.45 -1.36,-8.55 -2.32,-11.66 -4.27,-21.76 -2.26,-11.63 -4.54,-21.47 -11.53,-28.74 -9.99,-10.35 -19.27,-28.82 -11.53,-42.97 4.5,-8.26 12.01,-7.03 14.38,-9.13 2.37,-2.16 3.8,-7.22 10.96,-9.61 15.36,-5.15 32.82,8.7 40.83,23.93" /><path
             id="path44"
             style="fill:#ffffff;fill-opacity:1;fill-rule:nonzero;stroke:none"
             d="m 1683.13,2241.88 c 5.23,8.46 10.6,14.4 18.84,19.48 13.66,8.34 23.81,13.94 32.14,18.21 3.59,1.84 6.6,3.98 7.52,7.84 -3.69,-1.41 -17.79,-8 -31.83,-16.39 -10.03,-5.97 -27.27,-13.42 -38.87,-13.95 -4.56,-0.24 -7.97,0.93 -11.73,1.03 -7.77,0.35 -17.66,-1.54 -17.66,-1.54 0,0 -2.51,10.96 -5.83,18.91 -1.64,4.04 -4.36,8.17 -5.81,15.81 -0.98,5.05 -1.22,12.7 -0.82,17.22 1.12,13.73 4.84,27.11 4.17,40.98 -8.59,-17.94 -5.08,-40.01 -15.23,-53.86 -4.28,-5.83 -7.67,-10.46 -11.03,-17.81 -5.54,-12.02 -4.88,-24.54 2.65,-36.18 4.34,-6.59 13.88,-6.38 15.56,-7.62 2.51,-1.87 4.63,-8.79 13.98,-10.91 16.02,-3.58 34.92,3.83 43.95,18.78" /><path
             id="path46"
             style="fill:#ffffff;fill-opacity:1;fill-rule:nonzero;stroke:none"
             d="m 1687.65,1891.29 c 3.69,7.51 6.1,17.38 10.87,24.4 -10.76,-1.65 -12.52,-2.85 -28.06,-4.58 -3.38,-0.28 -10.4,-3.8 -12.73,-6.12 -6.11,-6.22 -11.48,-12 -9.08,-22.39 0.92,-4.04 4.48,-7.01 6.46,-7.67 12.9,-4.17 26.04,3.48 32.54,16.36" /><path
             id="path48"
             style="fill:#ffffff;fill-opacity:1;fill-rule:nonzero;stroke:none"
             d="m 1700.73,1870.76 c 14.72,3.44 31.66,10.6 38.48,8.36 -13.78,-7.32 -31.18,-10.02 -46.43,-14.38 -11.67,-3.31 -19.98,-12.11 -30.38,-20.13 -9.57,-7.27 -22.27,-10.23 -33.6,-4.89 -3.83,1.83 -7.52,8.03 -8.21,11.27 -0.59,2.68 -6.05,5.29 -8.87,7.62 -2.86,2.37 -4.19,8.26 -4.29,10.49 -0.48,20.35 15.01,28.58 29.95,40.49 11.23,9.03 25.76,47.2 34.69,55.09 -1.61,-12.29 -17.57,-35.52 -24.59,-53.59 -5.52,-14.36 -3.68,-25.89 -7.25,-41.05 10.63,-0.65 22.55,-2.91 33.28,-3.07 8.41,-0.09 18.59,1.7 27.22,3.79" /><path
             id="path50"
             style="fill:#ffffff;fill-opacity:1;fill-rule:nonzero;stroke:none"
             d="m 1685.28,1839.37 c -8.26,-1.53 -18.37,-4.11 -25.25,-5.56 -23.96,-5.06 -35.37,6.68 -54.55,6.42 1.72,21.91 -5.91,31.72 0.35,45.88 5.61,12.61 10.76,25.92 15.57,36.62 3.89,8.59 5.05,15.8 5.05,15.8 0,0 -5.82,-8.67 -22.28,-40.85 -5.75,-11.23 -16.03,-13.64 -25.18,-24.27 -10.47,-12.12 -16.54,-37.71 2.9,-48.48 3.87,-2.16 3.32,-8.79 6.15,-11.5 12.94,-12.21 39.17,-10.96 55.53,3.9 13.07,11.94 28.95,13.87 42.43,17.36 7.91,2.02 14.87,5.39 14.87,5.39 0,0 -3.77,1.53 -15.59,-0.71" /><path
             id="path52"
             style="fill:#ffffff;fill-opacity:1;fill-rule:nonzero;stroke:none"
             d="m 1205.28,1585.15 c -0.95,0 -1.97,0 0,0 z m -111.89,315.55 c -8.03,-10.59 -11.69,-22.68 -20.5,-31.9 -4.64,-4.85 -11.64,-2.62 -15.31,2.98 -4.04,6.29 -10.55,15.18 -5.69,21.41 7.99,10.26 24.72,16.78 38.95,14.92 0.86,-0.09 5.48,-3.48 2.55,-7.41 z m -38.38,-60.41 c -4.45,-11.94 -17.76,-13.26 -29.15,-15.63 -2.1,-0.46 -8.6,0 -11.53,2.88 -4.9,4.81 -9.16,11.32 -8.29,19.54 0.46,5.1 4.64,10.05 9.89,12.05 9.44,3.64 20.67,9.54 29.99,4.33 8.06,-4.47 12.29,-14.71 9.09,-23.17 z m -24.53,-63.2 c -3.28,-4.74 -11.64,10.92 -12.73,18.12 -3.16,20.73 15.09,26.04 30.25,25.42 0.48,-12.37 -9.14,-31.59 -17.52,-43.54 z m -16.41,-56.05 c -2.97,-8.35 -4.4,-16.05 -7.73,-23.66 -3.19,-7.45 -16.926,-10.06 -24.578,-7.68 -10.883,3.38 -20.219,27.83 -7.852,37.19 9.453,7.11 19.258,8.22 31.34,9.7 2.21,0.23 10.28,-0.26 10.62,-0.99 2.01,-5.04 0.71,-7.62 -1.8,-14.56 z m -18.3,-64.57 c -2.231,-6.4 -3.208,-13.04 -6.051,-19.24 -1.426,-3.1 -3.254,1.01 -3.371,1.23 -4.243,10.65 -6.961,19.64 -3.286,29 2.051,5.21 9.11,10 15.868,10.42 -0.422,-6.69 -0.899,-14.92 -3.16,-21.41 z m -21.688,-31.52 c -4.918,2.25 -4.852,8.58 -6.898,12.51 -1.946,3.85 -6.106,9.14 -4.407,14.16 9.528,-5.33 13.926,-14.81 11.305,-26.67 z m -16.352,39.34 c -11.32,9.31 -12.332,24.18 -19.878,35.62 8.332,5.34 22.39,4.27 26.718,-6.3 3.453,-8.49 5.957,-20.94 -2.668,-27.4 -0.918,-0.72 -3.113,-2.82 -4.172,-1.92 z m -42.277,76.83 c -1.668,2.42 -5.043,9.43 -2.492,10.3 20.316,7.03 35.519,7.23 39.855,-14.44 3.059,-15.5 -7.539,-28.78 -22.347,-23.37 -4.258,1.56 -8.438,18.06 -15.016,27.51 z m -29.473,49.03 c -1.425,1.75 -2.562,7.13 -0.824,8.52 10.567,8.47 26.028,9.15 38.024,7.95 15.789,-1.45 19.062,-16.14 16.445,-28.33 -3.473,-16.02 -27.805,-18.03 -34.687,-15.33 -6.778,2.58 -11.52,17.94 -18.958,27.19 z m 3.446,56.99 c 13.656,8.85 39.754,15.45 44.113,-8.54 1.34,-7.25 -0.488,-16.86 -10.254,-19.98 -9.992,-3.24 -21.832,-6.7 -30.98,-2.96 -11.27,4.59 -13.504,24.63 -2.879,31.48 z m -14.172,40.38 c 1.031,4.58 6.101,6.78 10.398,7.87 11.082,2.75 23.434,6.85 33.602,0.39 3.953,-2.49 4.277,-6.02 4.785,-11.04 0.906,-8.04 -0.269,-14.67 -5.598,-17.73 -10.769,-6.33 -21.707,-6.89 -34.246,-4.42 -10.168,1.99 -10.953,15.48 -8.941,24.93 z m -11.316,-62.19 c -9.508,6.99 -13.665,16.87 -20.684,26.67 -1.656,2.41 0,3.39 1.312,3.78 16.786,4.77 29.282,-3.6 26.688,-21.96 -0.477,-3.54 -2.809,-11.84 -7.316,-8.49 z m -46.387,56.61 c -6.313,5.44 -1.922,14.89 3.554,17.67 9.625,4.78 24.731,5.48 34.692,2.1 6.422,-2.13 9.691,-11.37 8.519,-21.46 -0.445,-4.11 -1.722,-8.7 -3.746,-10 -7.632,-5.21 -19.394,-5.39 -28.66,-3.48 -6.527,1.37 -8.879,10.35 -14.359,15.17 z m -7.274,57.24 c 6.067,13.24 28.313,13.34 40.399,7.44 9.867,-4.85 11.078,-23.16 0.308,-30.4 -8.543,-5.74 -22.093,-3.66 -31.218,-1.95 -12.907,2.38 -13.93,15.11 -9.489,24.91 z m 0.5,49.57 c 9.227,8.78 21.157,4.77 32.285,3.24 2.133,-0.32 4.743,-1.84 6.2,-3.3 7.562,-7.62 8.144,-20.21 -0.285,-26.5 -9.754,-7.26 -21.926,-2.53 -33.649,-1.94 -3.14,0.11 -6.613,3.84 -7.363,6.23 -2.098,7.42 -3.395,16.46 2.812,22.27 z m 5.938,41.5 c 9.785,4.13 26.648,6.01 33.59,-5.02 4.211,-6.75 3,-19.19 -3.836,-21.03 -6.707,-1.75 -29.438,-5.49 -34.93,7.06 -2.672,6.2 -1.551,16.21 5.176,18.99 z m 30.172,35.3 c 2.843,-1.28 4.578,-3.57 5.281,-7.05 1.344,-7.52 -0.637,-15.73 -7.844,-17.07 -10.926,-1.98 -27.078,-2.59 -27.035,12.77 0.035,17.22 16.973,16.99 29.598,11.35 z m -21.93,31.9 c 5.809,2.21 15.313,1.69 20.531,-0.99 2.602,-1.37 6.133,-5.7 4.657,-10.23 -1.825,-5.92 -7.379,-8.09 -13.602,-8.16 -6.059,-0.05 -12.945,0.43 -15.387,5.36 -2.324,4.67 -1.344,12.05 3.801,14.02 z m 6.781,25.76 c 5.297,1.93 13.129,1.76 16.953,-2.39 5.293,-5.8 1.137,-15.02 -8.894,-14.56 -3.508,0.13 -7.68,1.38 -9.817,2.56 -5.14,2.93 -3.453,12.52 1.758,14.39 z m 23.782,16.59 c 0.695,2.2 4.171,4.85 6.007,5.47 3.961,1.43 8.594,1.68 12.403,0.17 7.625,-3.1 6.59,-12.49 -1.547,-15.8 -3.606,-1.48 -9.223,-2.43 -11.973,-1.48 -5.098,1.7 -6.523,6.13 -4.89,11.64 z m 23.699,-36.8 c -8.297,-2.44 -19.871,-2.91 -22.344,5.63 -4.172,14.39 14.02,16.58 23.441,13.57 6.559,-2.11 8.821,-16.35 -1.097,-19.2 z m 5.472,47.64 c 2.664,8.93 12.75,13.78 21.942,11.07 7.871,-2.32 9.707,-13.06 4.375,-18.3 -2.414,-2.36 -6.399,-4.76 -10.711,-5.71 -9.363,-2.08 -18.594,3.12 -15.606,12.94 z m 41.286,-32.77 c -1.489,-5.84 -5.778,-9.83 -12.625,-11.37 -6.821,-1.53 -16.207,-1.89 -19.997,2.28 -3.574,3.96 -5.269,9.59 -2.269,13.9 6.059,8.53 17.051,11.52 26.863,9.37 5.637,-1.33 9.731,-7.08 8.028,-14.18 z m -3.696,34.29 c 3.696,8.13 12.985,12.19 21.895,9.44 1.801,-0.56 5.449,-3.44 5.961,-6.24 1.054,-5.66 -0.899,-10.84 -5.575,-13.79 -6.078,-3.79 -11.05,-5.98 -17.968,-3.14 -5.227,2.16 -6.461,8.93 -4.313,13.73 z m 38.457,-22.8 c 4.051,-6.9 -2.117,-13.82 -5.293,-15.72 -6.965,-4.07 -16.812,-6.57 -21.047,0.34 -4.105,6.8 -0.683,14.84 6.497,17.82 6.91,2.87 14.046,7.22 19.843,-2.44 z M 972.34,2103 c 4.547,-3.74 8.535,-11.71 3.082,-17.93 -5.117,-5.96 -11.543,-7.69 -19.582,-9.01 -5.449,-0.94 -12.473,3.14 -13.305,7.92 -0.84,4.18 -1.617,11.72 2.527,15.25 8,6.84 18.75,10.79 27.278,3.77 z m 9.64,44.96 c 4.309,-1.23 7.079,-5.78 4.938,-10.17 -1.32,-2.72 -5.199,-5.67 -7.66,-7.17 -6.774,-4.19 -12.586,-2.46 -14.688,2.51 -3.894,9.16 9.223,17.26 17.41,14.83 z m 16.5,-22.75 c 4.77,-0.43 6.94,-3.75 7.86,-7.36 1.26,-4.87 -0.33,-9.36 -4.48,-12.15 -4.887,-3.27 -10.954,-5.18 -15.829,-5.25 -6.629,-0.11 -12.707,9.58 -9.144,15.88 3.793,6.69 13.289,9.58 21.593,8.88 z m 27.29,-34.92 c 2.82,-8.28 -3.28,-12.15 -9.67,-15.56 -6.49,-3.46 -15.22,-6.66 -19.717,-2.33 -5.781,5.43 -8.336,14.53 -1.914,20.59 8.901,8.35 25.411,14.65 31.301,-2.7 z m 11.77,-20.74 c 10.49,-1.35 12.55,-16.19 10.46,-21.57 -2.39,-4.65 -7.68,-8.25 -10.46,-9.67 -7.64,-3.95 -16.64,-5.44 -23.66,-1.82 -6.42,3.34 -9.22,13.1 -5.75,20.76 4.76,10.33 19.62,13.55 29.41,12.3 z m 21.51,-46.03 c 3.62,-5.04 2.82,-13.91 0.71,-16.71 -6.63,-8.98 -24.96,-14.16 -32.56,-10.44 -5.76,2.83 -11.41,15.52 -4.71,23.09 7.04,7.89 19.25,12.62 30.33,10.29 2.48,-0.54 4.1,-3.23 6.23,-6.23 z m 4.67,-28.41 c 5.02,-0.54 9.48,-6.06 11.91,-12.07 3.2,-7.81 -0.02,-16.92 -2.51,-18.61 -6.01,-4.1 -25.06,-15.55 -37.09,-8.68 -6.57,3.75 -8.41,12.41 -8.83,17.56 -1.34,16.46 23.75,23.23 36.52,21.8 z m -70.38,-118.05 c -2.61,6.53 -4.938,16.23 0.176,20.2 10.374,8.2 33.894,15.33 42.854,2.97 5.81,-8.03 4.08,-21.68 -6.11,-26.93 -10.48,-5.36 -31.006,-11.55 -36.92,3.76 z m -50.457,-0.76 c 10.469,5.32 25.508,11.71 36.73,4.47 5.114,-3.31 10.422,-16.98 6.805,-23.02 -7.691,-12.85 -27.984,-16.14 -40.844,-12.82 -11,2.86 -14.258,25.51 -2.691,31.37 z m -9.371,44.49 c 12.601,8.85 37.465,14.59 43.429,-4.78 1.543,-5 2.446,-10.53 -0.105,-14.61 -6.957,-11.19 -24.695,-14.17 -36.508,-12.47 -12.801,1.87 -18.812,23.43 -6.816,31.86 z m -10.574,45.12 c 12.066,6.85 37.855,15.92 43.91,-3.7 2.414,-8 2.195,-17.96 -4.68,-21.49 -9.84,-5.19 -25.438,-10.6 -36.785,-3.49 -9.508,5.98 -10.813,23.89 -2.445,28.68 z m 67.664,80.98 c -5.04,-4.51 -10.207,-5.48 -16.957,-7.73 -9.422,-3.23 -19.282,4.05 -20.352,13.05 -1.84,15.48 14.73,17.8 25.66,19.73 8.035,1.45 12.973,-5.75 14.445,-10.58 1.5,-4.61 1.282,-10.86 -2.796,-14.47 z m 20.338,-36.35 c -7.21,-10.72 -36.159,-17.47 -42.549,-6.42 -4.696,8.03 -7.598,19.4 1.171,24.81 9.227,5.62 20.126,9.02 30.858,7.09 10.1,-1.75 15.19,-18.34 10.52,-25.48 z m 15.41,-66.34 c 4.15,-6.53 7.04,-15.34 0.89,-23.5 -5.53,-7.45 -25.38,-10.92 -35.537,-8.47 -5.543,1.35 -8.148,8.12 -9.015,12.72 -1.196,6.14 -1.758,12.37 3.73,17.38 7.863,7.21 18.322,7.07 28.422,7.07 4.11,0 9.96,-2.71 11.51,-5.2 z m -5.72,22.28 c -6.19,-11.35 -27.114,-12.84 -36.505,-11.56 -6.648,0.9 -11.277,11.58 -11.113,20.5 0.062,4.58 1.5,7.67 4.679,9.32 10.418,5.64 21.118,9.35 32.349,7.58 10.94,-1.77 15.21,-17.27 10.59,-25.84 z m -110.107,24.43 c -7.07,21.89 20.262,28.78 36.172,25.41 11.117,-2.34 14.848,-23.69 4.461,-30.39 -12.765,-8.31 -35.426,-11.02 -40.633,4.98 z m -41.183,-53.73 c 8.187,8.43 22.965,8.95 34.472,7.41 7.11,-0.98 10.153,-8.16 11.133,-15.94 2.785,-21.34 -25.929,-24.97 -39.59,-19.98 -8.976,3.3 -13.675,20.6 -6.015,28.51 z m -5.789,41.43 c 8.527,10.03 22.887,12.43 34.719,9.16 7.253,-1.97 10.617,-10.41 10.406,-19.87 -0.117,-5.39 -3.774,-9.29 -7.106,-10.66 -8.418,-3.42 -18.152,-5.95 -27.355,-4.85 -11.371,1.41 -18.27,17.25 -10.664,26.22 z m 1.367,45.08 c 10.496,4.31 30.105,8.16 33.426,-6.89 4.453,-20.03 -19.156,-23.3 -31.789,-19.83 -9.68,2.69 -11.489,22.75 -1.637,26.72 z m 75.723,33.1 c 7.871,-4.5 9.496,-17.08 4.695,-24.38 -6.367,-9.68 -28.102,-15.32 -39.813,-6.82 -6.695,4.85 -10.269,24.68 3.415,29.47 10.91,3.84 21.417,7.57 31.703,1.73 z m -11.164,14.36 c -8.911,-5.51 -21.633,-7.72 -30.122,-3.01 -7.339,4 -7.027,14.74 -3.414,20.52 6.016,9.64 20.875,10.67 31.145,7.66 8.855,-2.6 12.191,-19.04 2.391,-25.17 z m -72.274,15.67 c 0.91,2.88 2.145,3.71 3.945,4.57 7.485,3.58 15.731,4.55 22.93,-0.1 5.207,-3.31 4.75,-11.06 0.899,-15.11 -5.645,-5.91 -17.051,-6.13 -24.368,-2.27 -4.746,2.46 -4.933,8.29 -3.406,12.91 z m 2.391,-31.33 c 3.336,9.46 15.156,8.94 24.097,7.8 11.043,-1.45 13.219,-15.58 9.301,-21.5 -5.402,-8.22 -17.738,-6.66 -27.554,-5.38 -8.032,1.02 -8.508,11.62 -5.844,19.08 z m 155.486,-285.21 c 2.74,-10.71 0,-20.9 -9.5,-24.31 -12.24,-4.33 -28.807,-10.66 -38.603,-4.03 -11.2,7.49 -16.586,28.81 -3.739,37.15 15.184,9.93 45.432,16.47 51.842,-8.81 z m -16.494,33.3 c -8.211,-9.35 -21.668,-9.02 -34.852,-12.89 -5.074,-1.47 -11.152,3.01 -13.777,7.63 -4.867,8.72 -9.754,20.39 -0.422,28.79 7.746,7.07 18.258,6.49 27.766,9.27 4.265,1.31 9.433,2.79 14.625,-0.68 10.684,-7.3 14.814,-22.93 6.66,-32.12 z m 87.294,140.15 c 2.34,-6.81 5.43,-11.8 2.81,-18.58 -3.11,-8.32 -11.21,-9.44 -18.76,-12.21 -7.1,-2.54 -18.89,-5.8 -24.8,0.41 -6.81,7.02 -9.57,21.4 -1.41,27.52 10.55,7.86 36.6,18.75 42.16,2.86 z m 143.33,61.16 c 6.2,25.39 13.93,51.16 15.87,77.99 2.85,40.07 -5.81,81.71 -31.47,112.1 2.51,-13.09 5.87,-24.17 7.6,-37.9 2.12,-16.59 -0.23,-35.08 -4.52,-51.77 -3.26,-12.64 -8.92,-24.92 -14.6,-36.66 -6.63,-13.94 -16.62,-29.07 -26.54,-41.46 -27.8,-34.6 -71.15,-102.07 -71.15,-102.07 0,0 -3.61,0.29 -5.8,0.29 -0.5,8.39 19.46,37.21 29.54,53.34 22.08,35.32 38.81,54.35 58.06,85.01 12,19.35 21.2,42.86 24.15,64.14 5.98,43.44 -17.43,95.51 -51.11,112.8 7.71,-32.42 6.94,-78.16 -10.38,-97.38 -32.69,-36.45 -52.12,-63.72 -75.42,-110.38 -0.7,-1.28 -6.15,6.3 -10.65,9.24 -5.05,3.36 -2.26,13.34 -4.03,20.1 -1.68,5.75 -4.35,10.15 -5.16,11.16 -6.9,8.43 -13.6,8.97 -15.05,11.49 -1.65,2.86 -0.84,10.03 -6.89,18.12 -3,4.13 -10.68,7.15 -13.78,11 -3.38,4.22 -4.9,17.06 -14.21,22.34 -4.416,2.47 -6.463,10.19 -10.717,13.93 -13.098,11.61 -26.176,9.35 -28.672,10.1 -3.375,0.92 -9.918,9.28 -21.621,11.28 -11.422,1.95 -17.715,-5.71 -23.695,-2.92 -14.867,6.88 -29.11,7.44 -44.977,-10.19 -4.711,-5.26 -12.933,-0.33 -23.183,-8.2 -9.032,-6.85 -9.172,-13.19 -13.735,-14.02 -8.632,-1.65 -15.05,-8.53 -18.379,-16.03 -1.695,-3.88 -3.007,-11.7 -4.003,-16.89 -1.422,-7.09 -5.032,-13.69 -5.122,-18.94 -0.078,-7.23 2.243,-11.16 1.618,-14.44 -1.11,-4.73 -4.875,-9.06 -5.348,-13.46 -0.367,-2.5 -0.543,-9.12 1.234,-12.89 2.301,-4.65 -1.601,-8.65 -3.613,-13.57 -1.937,-4.56 -3.965,-12.4 -3.359,-17.97 0.84,-7.56 5.195,-10.35 1.804,-16.32 -5.574,-9.72 -12.55,-24.88 -0.285,-44.28 2.27,-3.52 -5.113,-10.41 -5.539,-20.53 -0.465,-10.96 6.141,-19.11 7.977,-23.99 0.347,-1.77 -2.926,-1.63 -3.035,-3.52 -29.227,30.89 -55.075,59.36 -88.942,86.19 -20.734,16.39 -41.211,30.15 -64.152,42.41 -61.262,32.92 -132.473,54.9 -196.973,46.84 24.313,-19.55 54.922,-33.53 79.922,-55.72 23.613,-21.04 45.066,-39.04 66.598,-61.42 33.777,-35.11 61.226,-70.71 89.863,-111.98 8.476,-12.24 14.102,-20.43 22.004,-33.19 7.961,-12.75 16.871,-26.32 24.082,-38.97 36.621,-63.57 66.656,-122.45 97.008,-187.57 8.41,-18.03 15.515,-36.91 23.781,-54.79 2.176,-4.85 5.375,-1.28 7.574,0 11.012,6.36 22.688,11.67 34.07,17.05 9.11,4.15 17.403,7.04 25.489,10.2 20.535,7.82 40.035,12.03 61.551,16.49 35.945,7.55 100.445,6.02 100.445,6.02 l 122.39,0.04 c 0.74,0 1.59,0 3.28,0 -1.24,35.07 -9.56,69.1 -11.58,104.29 -1.6,28.52 -0.65,56.05 0.36,84.63 2.75,77.33 14.1,160.37 31.42,230.83" /><path
             id="path54"
             style="fill:#ffffff;fill-opacity:1;fill-rule:nonzero;stroke:none"
             d="m 395.176,2295.15 c -23.875,-23.81 -31.031,-32.59 -44.91,-58.91 -8.215,-15.43 -18.61,-35.31 -21.618,-60.94 49.079,18.72 89.094,56.83 125.258,98.91 26.77,31.2 47.481,72.62 73.867,103.43 -46.461,-15.59 -95.468,-45.52 -132.597,-82.49" /><path
             id="path56"
             style="fill:#ffffff;fill-opacity:1;fill-rule:nonzero;stroke:none"
             d="m 254.723,2228.24 c 18.496,31.24 44.968,65 72.422,88.04 -12.719,-28.55 -28.375,-56.85 -33.762,-90.69 -10.684,-67.22 -20.719,-114.37 -31.891,-175.79 30.485,21.79 62.668,55.98 95.028,79.85 25.019,18.34 50.058,30.65 75.785,48.3 15.257,10.51 25.195,24.07 37.906,36.75 -15.145,-63.85 -71.117,-128.28 -111.242,-158.29 -50.422,-37.77 -68.485,-43.83 -149.422,-126.16 -10.324,101.68 -8.485,207.32 45.176,297.99" /><path
             id="path58"
             style="fill:#ffffff;fill-opacity:1;fill-rule:nonzero;stroke:none"
             d="m 89.5469,1890.55 c 3.75,52.8 10.0664,95.05 22.9331,146.52 8.961,35.99 28.34,89.55 56.235,111.51 -3.418,-13.06 -5.235,-32.61 -6.563,-45.81 -5.464,-54.42 4.989,-117.58 6.2,-171.9 0.613,-26.73 0.398,-47.32 -3.59,-72.46 -4.172,-26.26 -0.719,-58.61 -0.719,-58.61 0,0 14.441,16.49 27.309,37.01 28.16,44.72 37.148,57.98 59.855,82.22 28.094,30.02 59.594,57.85 95.137,82.47 -4.293,-16.68 -22.434,-49.13 -29.957,-62.19 -9.981,-17.47 -14.512,-33.3 -38.207,-72.85 -33.297,-55.56 -48.125,-63.03 -85.118,-122.45 -8.042,-12.9 -40.867,-62.07 -48.808,-77.09 -17.356,35.89 -23.871,67.21 -45.1563,125.55 -13.336,36.72 -11.3438,73.41 -9.5508,98.08" /><path
             id="path60"
             style="fill:#ffffff;fill-opacity:1;fill-rule:nonzero;stroke:none"
             d="m 38.082,1615.9 c -20.0781,52.05 -29.29684,100.37 -36.10544,155.24 -4.1289,33.51 -2.19531,78.25 9.74614,110.51 3.1757,-7.87 9.5703,-27.87 10.4492,-30.85 8.9023,-30.01 12.6484,-44.37 25.0703,-73.25 9.5508,-22.21 21.1406,-39.86 33.6328,-61.78 11.3125,-19.99 20.902,-46.31 29.109,-66.44 26.379,-64.54 28.332,-125.01 38.375,-131.58 7.266,15.55 9.567,30.4 10.336,37.73 7.883,71.43 17.285,136.36 107.25,220.61 8.266,-25.1 4.055,-71.28 -0.894,-96.04 -10.758,-54.14 -19.461,-80.12 -43.254,-132.54 -12.602,-27.65 -29.457,-68.28 -34.043,-81.76 -12.102,-35.02 -16.211,-53.42 -23.832,-74.13 -42.481,70.72 -94.7618,143.82 -125.84,224.28" /><path
             id="path62"
             style="fill:#ffffff;fill-opacity:1;fill-rule:nonzero;stroke:none"
             d="m 108.141,1290.3 c -30.2465,42.09 -41.2972,63.28 -60.9574,108.11 -16.5352,37.53 -21.3086,51.49 -30.9453,93.57 -5.2969,22.95 -8.27346,43.79 -4.1875,57.32 23.707,-42.82 39.8594,-90.85 70.8047,-126.34 24.5705,-28.22 48.2895,-52.29 67.8325,-76.06 29.96,-36.64 53.624,-71.22 82.398,-109.31 2.426,19.14 3.375,38.39 -0.934,69.67 -5.847,42.88 -2.257,78.01 5.258,119.56 9.465,52.6 16.406,78.69 34.707,131.95 22.309,-43.84 22.231,-94.55 27.867,-141.07 10.817,-90.16 -17.41,-197.71 -22.937,-242.55 -1.481,-11.81 0.551,-40.98 1.133,-52.38 -42.168,33.24 -79.723,66.87 -116.149,103.33 -16.586,16.55 -39.301,43.94 -53.89,64.2" /><path
             id="path64"
             style="fill:#ffffff;fill-opacity:1;fill-rule:nonzero;stroke:none"
             d="m 268.102,959.48 c -19.207,13.821 -70.852,53.35 -95.293,84.44 -35.606,45.16 -43.446,64.57 -66.926,116.53 -2.879,6.3 -16.1564,35.82 -17.2228,55.77 76.9488,-92.89 145.8478,-106.71 219.2268,-183.8 26.922,-28.26 54.531,-54.818 69.047,-68.201 11.179,-10.207 25.093,-13.43 25.093,-13.43 0,0 -1.457,19.902 -8.707,33.672 -48.957,93.619 -58.191,191.439 -50.781,296.389 22.359,-27.64 29.379,-46.12 43.57,-72.83 15.453,-29.18 23.317,-47.27 30.539,-65.16 41.848,-104.3 52.793,-224.739 78.684,-285.34 -79.934,26.851 -142.875,41.261 -227.23,101.96" /><path
             id="path66"
             style="fill:#ffffff;fill-opacity:1;fill-rule:nonzero;stroke:none"
             d="m 595.867,713.391 c -21.664,-1.403 -63.992,-1.282 -86.629,2.418 -114.375,18.222 -220.73,101.14 -274.183,192.293 48.476,-29.672 83.554,-49.403 126.183,-64.153 38,-13.199 74.039,-17.07 137.457,-35.027 38.239,-10.801 76.149,-26.16 89.442,-31.141 42.429,-15.769 60.254,-11.883 60.254,-11.883 0,0 0,6.5 -15.825,23.692 -31.593,34.551 -43.132,42.738 -69.144,69.219 -8.5,8.75 -28.047,38.55 -38.008,58.281 -28.047,55.851 -31.137,100.68 -56.801,162.06 93.575,-55.02 139.125,-130.74 188.571,-226.349 15.226,-29.262 35.824,-63.11 54.589,-81.692 12.637,-12.379 30.422,-31.41 30.422,-31.41 0,0 -13.007,-3.051 -53.66,-9.027 -18.219,-2.703 -57.015,-14.742 -92.668,-17.281" /><path
             id="path68"
             style="fill:#ffffff;fill-opacity:1;fill-rule:nonzero;stroke:none"
             d="m 1049.31,706.18 c 49.41,-8.032 93.28,-20.121 138.19,-35.551 12.1,-4.117 30.49,-13.219 43.21,-19.707 31.83,-16.152 50.17,-26.684 77.54,-45.473 44.04,-30.34 91.39,-63.097 134.08,-112.738 0.92,-0.981 7.82,-8.301 3.24,-11.941 -8.36,-6.579 -29.01,-15.872 -35.89,-9.829 -39.08,34.797 -37.11,45.887 -84.47,88.778 -12.1,10.929 -30.46,26.32 -52.38,41.269 -21.4,14.621 -47.24,30.551 -71.23,42.524 -21.79,10.718 -55.4,13.898 -74.3,13.898 l 0.29,-0.121 c -8.59,0.289 -57.87,0.531 -69.25,-0.109 -96.797,-6.668 -92.09,-15.328 -147.902,-30.539 -45.903,-12.379 -95.165,-21.27 -144.051,-27.871 -50.11,-6.801 -94.887,-7.649 -141.883,-2.821 -63.629,6.571 -133.277,24.289 -185.223,57.742 47.496,-0.8 96.285,-9.921 143.571,-6.25 19.906,1.489 52.168,4.481 74.035,11.2 43.394,13.379 68.34,18.55 114.308,31.359 39.52,11.082 79.309,14.77 120.606,19.18 57.101,6.09 109.979,4.75 157.509,-3" /><path
             id="path70"
             style="fill:#ffffff;fill-opacity:1;fill-rule:nonzero;stroke:none"
             d="m 1934.53,2295.15 c 23.89,-23.81 31.07,-32.59 44.96,-58.91 8.2,-15.43 18.6,-35.31 21.6,-60.94 -49.1,18.72 -89.09,56.83 -125.27,98.91 -26.78,31.2 -47.48,72.62 -73.85,103.43 46.46,-15.59 95.46,-45.52 132.56,-82.49" /><path
             id="path72"
             style="fill:#ffffff;fill-opacity:1;fill-rule:nonzero;stroke:none"
             d="m 2075.02,2228.24 c -18.52,31.24 -44.98,65 -72.42,88.04 12.82,-30.75 31.53,-69.02 33.75,-90.69 6.83,-67.7 20.72,-114.37 31.9,-175.79 -30.47,21.79 -62.7,55.98 -95.08,79.85 -24.94,18.34 -50,30.65 -75.7,48.3 -15.3,10.51 -25.22,24.07 -37.94,36.75 15.14,-63.85 71.12,-128.28 111.27,-158.29 50.39,-37.77 68.45,-43.83 149.35,-126.16 10.29,101.68 8.49,207.32 -45.13,297.99" /><path
             id="path74"
             style="fill:#ffffff;fill-opacity:1;fill-rule:nonzero;stroke:none"
             d="m 2240.19,1890.55 c -3.81,52.8 -10.04,95.05 -22.93,146.52 -8.96,35.99 -28.34,89.55 -56.27,111.51 3.45,-13.06 5.24,-32.61 6.56,-45.81 5.54,-54.42 -4.91,-117.58 -6.16,-171.9 -0.6,-26.73 -0.4,-47.32 3.57,-72.46 4.17,-26.26 0.74,-58.61 0.74,-58.61 0,0 -14.45,16.49 -27.33,37.01 -28.11,44.72 -37.11,57.98 -59.87,82.22 -28.07,30.02 -59.59,57.85 -95.15,82.47 4.34,-16.68 22.47,-49.13 30,-62.19 10.01,-17.47 14.48,-33.3 38.21,-72.85 33.29,-55.56 48.15,-63.03 85.08,-122.45 8.04,-12.9 40.92,-62.07 48.84,-77.09 17.38,35.89 23.88,67.21 45.16,125.55 13.36,36.72 11.37,73.41 9.55,98.08" /><path
             id="path76"
             style="fill:#ffffff;fill-opacity:1;fill-rule:nonzero;stroke:none"
             d="m 2291.66,1615.9 c 20.07,52.05 29.27,100.37 36.11,155.24 4.13,33.51 2.18,78.25 -9.74,110.51 -3.18,-7.87 -9.57,-27.87 -10.46,-30.85 -8.92,-30.01 -12.64,-44.37 -25.04,-73.25 -9.56,-22.21 -21.27,-39.86 -33.66,-61.78 -11.33,-19.99 -20.9,-46.31 -29.16,-66.44 -26.33,-64.54 -28.28,-125.01 -38.33,-131.58 -7.3,15.55 -9.57,30.4 -10.33,37.73 -7.9,71.43 -17.3,136.36 -107.25,220.61 -8.29,-25.1 -4.06,-71.28 0.86,-96.04 10.79,-54.14 19.53,-80.12 43.28,-132.54 12.61,-27.65 29.47,-68.28 34.08,-81.76 12.02,-35.02 16.15,-53.42 23.83,-74.13 42.45,70.72 94.73,143.82 125.81,224.28" /><path
             id="path78"
             style="fill:#ffffff;fill-opacity:1;fill-rule:nonzero;stroke:none"
             d="m 2221.6,1290.3 c 30.28,42.09 41.3,63.28 60.95,108.11 16.55,37.53 21.26,51.49 30.96,93.57 5.29,22.95 8.26,43.79 4.17,57.32 -23.61,-42.82 -39.89,-90.85 -70.83,-126.34 -24.54,-28.22 -48.25,-52.29 -67.8,-76.06 -29.93,-36.64 -53.64,-71.22 -82.39,-109.31 -2.41,19.14 -3.39,38.39 0.88,69.67 5.89,42.88 2.31,78.01 -5.19,119.56 -9.49,52.6 -16.43,78.69 -34.72,131.95 -22.29,-43.84 -22.23,-94.55 -27.88,-141.07 -10.84,-90.16 17.46,-197.71 22.97,-242.55 1.45,-11.81 -0.58,-40.98 -1.16,-52.38 42.18,33.24 79.73,66.87 116.15,103.33 16.59,16.55 39.27,43.94 53.89,64.2" /><path
             id="path80"
             style="fill:#ffffff;fill-opacity:1;fill-rule:nonzero;stroke:none"
             d="m 2061.67,959.48 c 19.17,13.821 70.83,53.35 95.26,84.44 35.61,45.16 43.45,64.57 66.94,116.53 2.82,6.3 16.15,35.82 17.22,55.77 -76.96,-92.89 -145.86,-106.71 -219.24,-183.8 -26.92,-28.26 -54.5,-54.818 -69.03,-68.201 -11.18,-10.207 -25.09,-13.43 -25.09,-13.43 0,0 1.44,19.902 8.67,33.672 48.98,93.619 58.22,191.439 50.77,296.389 -22.29,-27.64 -29.36,-46.12 -43.53,-72.83 -15.43,-29.18 -23.32,-47.27 -30.51,-65.16 -41.89,-104.3 -52.87,-224.739 -78.75,-285.34 79.99,26.851 142.91,41.261 227.29,101.96" /><path
             id="path82"
             style="fill:#ffffff;fill-opacity:1;fill-rule:nonzero;stroke:none"
             d="m 1733.87,713.391 c 21.69,-1.403 64.01,-1.282 86.66,2.418 114.37,18.222 220.7,101.14 274.17,192.293 -48.53,-29.672 -83.6,-49.403 -126.21,-64.153 -38.02,-13.199 -74.03,-17.07 -137.41,-35.027 -38.27,-10.801 -76.17,-26.16 -89.48,-31.141 -42.43,-15.769 -60.25,-11.883 -60.25,-11.883 0,0 0,6.5 15.81,23.692 31.6,34.551 43.21,42.738 69.13,69.219 8.52,8.75 28.07,38.55 38.03,58.281 28.04,55.851 31.15,100.68 56.84,162.06 -93.58,-55.02 -139.22,-130.74 -188.64,-226.349 -15.19,-29.262 -35.79,-63.11 -54.53,-81.692 -12.63,-12.379 -30.44,-31.41 -30.44,-31.41 0,0 13,-3.051 53.7,-9.027 18.18,-2.703 56.95,-14.742 92.62,-17.281" /><path
             id="path84"
             style="fill:#ffffff;fill-opacity:1;fill-rule:nonzero;stroke:none"
             d="m 1280.42,706.18 c -49.41,-8.032 -93.22,-20.121 -138.18,-35.551 -12.13,-4.117 -30.5,-13.219 -43.21,-19.707 -31.83,-16.152 -50.11,-26.684 -77.53,-45.473 -44.09,-30.34 -91.371,-63.097 -134.09,-112.738 -0.926,-0.981 -7.844,-8.301 -3.234,-11.941 8.375,-6.579 29.051,-15.872 35.804,-9.829 39.137,34.797 37.11,45.887 84.56,88.778 12.05,10.929 30.42,26.32 52.38,41.269 21.42,14.621 47.2,30.551 71.22,42.524 21.75,10.718 55.43,13.898 74.29,13.898 l -0.3,-0.121 c 8.61,0.289 57.86,0.531 69.28,-0.109 96.81,-6.668 92.08,-15.328 147.85,-30.539 45.94,-12.379 95.2,-21.27 144.08,-27.871 50.09,-6.801 94.9,-7.649 141.89,-2.821 63.65,6.571 133.27,24.289 185.2,57.742 -47.48,-0.8 -96.24,-9.921 -143.56,-6.25 -19.92,1.489 -52.15,4.481 -74.02,11.2 -43.43,13.379 -68.35,18.55 -114.3,31.359 -39.52,11.082 -79.32,14.77 -120.59,19.18 -57.13,6.09 -110,4.75 -157.54,-3" /><path
             id="path86"
             style="fill:#ffffff;fill-opacity:1;fill-rule:nonzero;stroke:none"
             d="m 2832.78,2052.68 c 0,12.54 -3.4,23.31 -10.17,32.37 -6.78,9.01 -14.64,15.33 -23.58,18.89 -11.96,4.77 -23.63,7.39 -34.96,7.88 -11.33,0.49 -26.47,0.77 -45.39,0.77 h -19.69 v -132.88 h 32.83 c 19.51,0 35.59,1.17 48.24,3.56 12.65,2.39 23.25,7.17 31.8,14.28 7.36,6.36 12.7,13.99 16,22.81 3.23,8.84 4.92,19.61 4.92,32.32 z m 118.55,2.58 c 0,-19.9 -3.49,-39.37 -10.48,-58.39 -6.95,-19.01 -16.89,-35.01 -29.85,-47.92 -17.7,-17.52 -37.49,-30.76 -59.25,-39.74 -21.82,-8.94 -48.98,-13.42 -81.39,-13.42 h -71.37 V 1750.92 H 2584.3 v 444.69 h 188.77 c 28.21,0 52.07,-2.43 71.49,-7.32 19.43,-4.88 36.58,-12.2 51.49,-21.95 17.93,-11.75 31.62,-26.79 41.1,-45.07 9.44,-18.35 14.18,-40.34 14.18,-66.01" /><path
             id="path88"
             style="fill:#ffffff;fill-opacity:1;fill-rule:nonzero;stroke:none"
             d="m 3251.88,1983.86 h -9.5 c -4.61,1.63 -11.96,2.8 -22.05,3.62 -10.13,0.76 -18.56,1.16 -25.32,1.16 -15.32,0 -28.8,-0.98 -40.51,-2.98 -11.72,-1.98 -24.34,-5.36 -37.87,-10.15 v -224.59 h -107.82 v 335.38 h 107.82 v -49.27 c 23.67,20.33 44.22,33.77 61.71,40.46 17.43,6.69 33.52,10.04 48.2,10.04 3.79,0 8.09,-0.15 12.85,-0.33 4.73,-0.17 8.93,-0.49 12.49,-0.9 v -102.44" /><path
             id="path90"
             style="fill:#ffffff;fill-opacity:1;fill-rule:nonzero;stroke:none"
             d="m 3505.62,1836.93 c 6.96,8.59 12.12,18.88 15.68,30.94 3.49,12.01 5.18,28.73 5.18,50.01 0,19.74 -1.8,36.21 -5.32,49.59 -3.62,13.32 -8.58,23.99 -14.91,31.92 -6.43,8.19 -14.09,13.97 -23.03,17.36 -8.93,3.38 -18.62,5.05 -29,5.05 -10.29,0 -19.57,-1.4 -27.61,-4.17 -8.03,-2.78 -15.76,-8.38 -23.17,-16.74 -6.5,-7.77 -11.79,-18.38 -15.68,-31.93 -3.88,-13.55 -5.83,-30.58 -5.83,-51.08 0,-18.3 1.72,-34.19 5.18,-47.61 3.34,-13.46 8.29,-24.27 14.9,-32.44 6.31,-7.76 13.94,-13.4 22.78,-17.03 8.86,-3.56 19.04,-5.38 30.31,-5.38 9.76,0 19.13,1.69 27.98,4.98 8.85,3.25 16.4,8.82 22.54,16.53 z m 132.23,81.52 c 0,-55.09 -16.02,-98.59 -48.17,-130.34 -32.16,-31.77 -77.29,-47.6 -135.46,-47.6 -58.09,0 -103.23,15.83 -135.42,47.6 -32.17,31.75 -48.24,75.25 -48.24,130.34 0,55.57 16.22,99.18 48.56,130.82 32.34,31.66 77.36,47.52 135.1,47.52 58.52,0 103.84,-15.95 135.7,-47.79 31.99,-31.9 47.93,-75.39 47.93,-130.55" /><path
             id="path92"
             style="fill:#ffffff;fill-opacity:1;fill-rule:nonzero;stroke:none"
             d="m 3915.55,1856.67 v 151.98 c -6.24,2.58 -13.7,4.67 -22.74,6.16 -8.93,1.49 -16.94,2.21 -24.05,2.21 -28.24,0 -49.43,-8.09 -63.48,-24.35 -14.16,-16.21 -21.19,-38.83 -21.19,-67.93 0,-32.25 6,-54.75 18.1,-67.48 11.97,-12.74 29.76,-19.11 53.39,-19.11 10.71,0 21.28,1.67 31.66,5.06 10.26,3.38 19.73,7.84 28.31,13.46 z m 107.76,-67.21 c 0,-31.43 -4.53,-57.9 -13.47,-79.4 -8.94,-21.49 -21.49,-38.35 -37.56,-50.5 -16.19,-12.33 -35.68,-21.22 -58.41,-26.75 -22.76,-5.45 -48.57,-8.16 -77.19,-8.16 -23.31,0 -46.2,1.4 -68.9,4.15 -22.58,2.81 -42.14,6.19 -58.67,10.17 v 83.92 h 13.18 c 13.07,-5.2 29.15,-9.89 47.99,-14.18 18.84,-4.29 35.82,-6.42 50.71,-6.42 19.83,0 36.05,1.8 48.39,5.51 12.45,3.65 21.98,8.9 28.58,15.67 6.11,6.38 10.63,14.55 13.32,24.49 2.79,9.98 4.27,21.9 4.27,35.86 v 6.22 c -13.02,-10.51 -27.26,-18.87 -42.96,-25.06 -15.7,-6.19 -33.21,-9.26 -52.52,-9.26 -46.93,0 -83.1,14.14 -108.55,42.42 -25.45,28.27 -38.16,71.26 -38.16,128.99 0,27.69 3.89,51.58 11.64,71.69 7.68,20.09 18.68,37.62 32.74,52.58 13.18,13.89 29.27,24.74 48.5,32.5 19.12,7.77 38.87,11.66 58.87,11.66 18.16,0 34.61,-2.12 49.42,-6.41 14.8,-4.29 28.29,-10.21 40.36,-17.74 l 3.9,14.89 h 104.52 v -296.84" /><path
             id="path94"
             style="fill:#ffffff;fill-opacity:1;fill-rule:nonzero;stroke:none"
             d="m 4350.21,1983.86 h -9.56 c -4.61,1.63 -11.89,2.8 -22.1,3.62 -10.08,0.76 -18.57,1.16 -25.23,1.16 -15.32,0 -28.85,-0.98 -40.57,-2.98 -11.72,-1.98 -24.34,-5.36 -37.87,-10.15 v -224.59 h -107.76 v 335.38 h 107.76 v -49.27 c 23.62,20.33 44.16,33.77 61.66,40.46 17.48,6.69 33.65,10.04 48.33,10.04 3.8,0 8.02,-0.15 12.82,-0.33 4.77,-0.17 8.91,-0.49 12.52,-0.9 v -102.44" /><path
             id="path96"
             style="fill:#ffffff;fill-opacity:1;fill-rule:nonzero;stroke:none"
             d="m 4596.44,1838.67 v 69.68 c -14.53,-1.23 -30.25,-2.84 -47.13,-4.91 -17.02,-2.12 -29.83,-4.56 -38.6,-7.3 -10.74,-3.37 -18.9,-8.28 -24.6,-14.78 -5.69,-6.44 -8.54,-14.9 -8.54,-25.45 0,-6.93 0.62,-12.58 1.8,-16.93 1.17,-4.36 4.16,-8.55 8.94,-12.51 4.61,-3.98 10.14,-6.89 16.45,-8.79 6.4,-1.89 16.34,-2.83 29.92,-2.83 10.74,0 21.62,2.2 32.64,6.57 11.01,4.37 20.72,10.08 29.12,17.25 z m 0,-52.18 c -5.76,-4.39 -12.91,-9.68 -21.49,-15.81 -8.59,-6.2 -16.62,-11.07 -24.22,-14.64 -10.58,-4.78 -21.49,-8.3 -32.79,-10.61 -11.37,-2.31 -23.85,-3.44 -37.4,-3.44 -31.78,0 -58.54,9.84 -80.03,29.59 -21.51,19.69 -32.25,44.85 -32.25,75.52 0,24.47 5.51,44.48 16.45,60.02 10.92,15.54 26.45,27.78 46.61,36.72 19.87,9 44.53,15.37 74.08,19.16 29.43,3.75 59.97,6.54 91.67,8.36 v 1.75 c 0,18.52 -7.58,31.3 -22.75,38.39 -15.09,7.05 -37.4,10.63 -66.85,10.63 -17.69,0 -36.67,-3.17 -56.72,-9.45 -20.14,-6.22 -34.63,-11.06 -43.38,-14.45 h -9.85 v 80.89 c 11.4,3.04 29.87,6.56 55.44,10.61 25.55,4.11 51.15,6.15 76.91,6.15 61.06,0 105.31,-9.44 132.37,-28.23 27.2,-18.83 40.8,-48.33 40.8,-88.52 v -228.21 h -106.6 v 35.57" /><path
             id="path98"
             style="fill:#ffffff;fill-opacity:1;fill-rule:nonzero;stroke:none"
             d="m 5111.8,1988.64 v -237.72 h -107.87 v 167.53 c 0,16.36 -0.36,30.23 -1.18,41.7 -0.83,11.42 -2.99,20.73 -6.61,27.91 -3.5,7.19 -8.97,12.38 -16.18,15.67 -7.34,3.31 -17.48,4.92 -30.69,4.92 -10.59,0 -20.77,-2.1 -30.7,-6.41 -9.95,-4.28 -19,-8.8 -26.93,-13.6 v -237.72 h -107.75 v 335.38 h 107.75 v -37.03 c 18.49,14.53 36.17,25.87 53.16,34.05 16.86,8.18 35.53,12.24 56.02,12.24 22.11,0 41.6,-4.92 58.48,-14.76 16.87,-9.84 30.13,-24.35 39.59,-43.46 21.46,18.11 42.42,32.34 62.71,42.69 20.2,10.33 40.15,15.53 59.63,15.53 36.19,0 63.65,-10.84 82.4,-32.56 18.75,-21.68 28.21,-52.95 28.21,-93.77 v -218.31 h -107.78 v 167.53 c 0,16.53 -0.41,30.5 -1.03,41.84 -0.73,11.33 -2.83,20.59 -6.45,27.77 -3.45,7.19 -8.77,12.38 -16.19,15.67 -7.3,3.31 -17.69,4.92 -30.96,4.92 -9.07,0 -17.83,-1.53 -26.29,-4.6 -8.59,-3.12 -19.08,-8.21 -31.34,-15.41" /><path
             id="path100"
             style="fill:#ffffff;fill-opacity:1;fill-rule:nonzero;stroke:none"
             d="m 5741.14,1988.64 v -237.72 h -107.78 v 167.53 c 0,16.36 -0.46,30.23 -1.29,41.7 -0.69,11.42 -2.97,20.73 -6.47,27.91 -3.62,7.19 -9.09,12.38 -16.31,15.67 -7.21,3.31 -17.49,4.92 -30.57,4.92 -10.59,0 -20.88,-2.1 -30.83,-6.41 -9.92,-4.28 -18.87,-8.8 -26.82,-13.6 V 1750.92 H 5413.2 v 335.38 h 107.87 v -37.03 c 18.51,14.53 36.2,25.87 53.05,34.05 16.88,8.18 35.64,12.24 56.04,12.24 22.12,0 41.6,-4.92 58.46,-14.76 17,-9.84 30.14,-24.35 39.73,-43.46 21.45,18.11 42.28,32.34 62.6,42.69 20.3,10.33 40.12,15.53 59.63,15.53 36.16,0 63.63,-10.84 82.52,-32.56 18.75,-21.68 28.08,-52.95 28.08,-93.77 v -218.31 h -107.75 v 167.53 c 0,16.53 -0.32,30.5 -1.04,41.84 -0.74,11.33 -2.85,20.59 -6.49,27.77 -3.32,7.19 -8.75,12.38 -16.05,15.67 -7.43,3.31 -17.71,4.92 -31.09,4.92 -8.94,0 -17.71,-1.53 -26.28,-4.6 -8.58,-3.12 -18.95,-8.21 -31.34,-15.41" /><path
             id="path102"
             style="fill:#ffffff;fill-opacity:1;fill-rule:nonzero;stroke:none"
             d="m 6266.32,1961.77 c -0.65,22.5 -6.17,39.44 -16.72,50.77 -10.57,11.34 -27.01,17.03 -49.34,17.03 -20.69,0 -37.66,-5.37 -51.04,-16.12 -13.35,-10.75 -20.75,-27.96 -22.38,-51.68 z m 106.85,-63 H 6127.1 c 1.64,-26.29 11.61,-46.39 30.04,-60.33 18.42,-13.93 45.58,-20.88 81.32,-20.88 22.8,0 44.73,4.06 66.06,12.24 21.33,8.18 38.11,16.88 50.51,26.29 h 11.91 v -86.31 c -24.31,-9.76 -47.16,-16.87 -68.68,-21.25 -21.48,-4.36 -45.32,-6.54 -71.42,-6.54 -67.22,0 -118.79,15.14 -154.66,45.4 -35.88,30.25 -53.74,73.34 -53.74,129.32 0,55.32 16.92,99.18 50.89,131.51 33.98,32.34 80.56,48.57 139.62,48.57 54.56,0 95.57,-13.83 123.03,-41.38 27.46,-27.6 41.19,-67.26 41.19,-119.01 v -37.63" /><path
             id="path104"
             style="fill:#ffffff;fill-opacity:1;fill-rule:nonzero;stroke:none"
             d="m 2818.25,1343.99 -54.71,159.25 -54.71,-159.25 z m 176.94,-171.47 H 2876.8 l -30.97,89.86 H 2681.3 l -31.02,-89.86 h -115.56 l 164.27,444.64 h 131.97 l 164.23,-444.64" /><path
             id="path106"
             style="fill:#ffffff;fill-opacity:1;fill-rule:nonzero;stroke:none"
             d="m 3042.15,1172.52 h 107.773 v 464.652 H 3042.15 Z" /><path
             id="path108"
             style="fill:#ffffff;fill-opacity:1;fill-rule:nonzero;stroke:none"
             d="m 3347.93,1172.52 h -107.79 v 335.39 h 107.79 z m 3.01,383.13 h -113.78 v 81.52 h 113.78 v -81.52" /><path
             id="path110"
             style="fill:#ffffff;fill-opacity:1;fill-rule:nonzero;stroke:none"
             d="m 3765.73,1410.28 v -237.76 h -107.76 v 167.58 c 0,16.34 -0.45,30.21 -1.17,41.69 -0.81,11.37 -2.97,20.72 -6.59,27.84 -3.64,7.25 -9,12.44 -16.31,15.67 -7.23,3.36 -17.48,4.92 -30.57,4.92 -10.59,0 -20.78,-2.1 -30.83,-6.35 -9.93,-4.35 -18.88,-8.8 -26.82,-13.59 v -237.76 h -107.76 v 335.39 h 107.76 v -37.02 c 18.51,14.48 36.19,25.87 53.05,33.99 16.99,8.17 35.65,12.23 56.15,12.23 22,0 41.49,-4.92 58.46,-14.76 16.87,-9.84 30.03,-24.35 39.59,-43.45 21.47,18.1 42.41,32.4 62.61,42.74 20.31,10.34 40.14,15.47 59.64,15.47 36.17,0 63.75,-10.83 82.51,-32.5 18.76,-21.73 28.2,-52.93 28.2,-93.74 v -218.35 h -107.88 v 167.58 c 0,16.52 -0.3,30.43 -1.03,41.83 -0.64,11.27 -2.85,20.58 -6.35,27.7 -3.45,7.25 -8.77,12.44 -16.19,15.67 -7.31,3.36 -17.69,4.92 -31.08,4.92 -8.94,0 -17.71,-1.47 -26.28,-4.53 -8.48,-3.19 -18.97,-8.29 -31.35,-15.41" /><path
             id="path112"
             style="fill:#ffffff;fill-opacity:1;fill-rule:nonzero;stroke:none"
             d="m 4297.67,1383.35 c -0.65,22.5 -6.14,39.48 -16.7,50.76 -10.59,11.39 -27.03,17.03 -49.35,17.03 -20.68,0 -37.66,-5.38 -51.03,-16.12 -13.37,-10.75 -20.78,-27.9 -22.4,-51.67 z m 106.85,-62.94 h -246.06 c 1.63,-26.29 11.61,-46.45 30.04,-60.36 18.41,-13.9 45.57,-20.85 81.44,-20.85 22.68,0 44.61,4.06 65.94,12.18 21.31,8.12 38.1,16.88 50.51,26.3 h 11.92 v -86.26 c -24.33,-9.76 -47.17,-16.93 -68.66,-21.24 -21.51,-4.44 -45.36,-6.59 -71.36,-6.59 -67.3,0 -118.89,15.18 -154.75,45.44 -35.89,30.26 -53.76,73.33 -53.76,129.25 0,55.38 17.03,99.23 50.9,131.56 33.98,32.33 80.56,48.51 139.62,48.51 54.56,0 95.58,-13.78 123.04,-41.39 27.46,-27.53 41.18,-67.25 41.18,-118.98 v -37.57" /><path
             id="path114"
             style="fill:#ffffff;fill-opacity:1;fill-rule:nonzero;stroke:none"
             d="m 4806.29,1172.52 h -107.87 v 166.41 c 0,13.55 -0.61,26.95 -2.08,40.41 -1.35,13.47 -3.8,23.35 -7.13,29.76 -3.96,7.31 -9.8,12.74 -17.47,16.08 -7.69,3.44 -18.4,5.04 -32.12,5.04 -9.77,0 -19.64,-1.52 -29.67,-4.78 -10.14,-3.15 -21.01,-8.22 -32.75,-15.16 v -237.76 h -107.75 v 335.39 h 107.75 v -37.02 c 19.13,14.88 37.5,26.36 55.1,34.31 17.59,7.94 37.12,11.91 58.6,11.91 36.18,0 64.47,-10.51 84.74,-31.59 20.39,-21.16 30.65,-52.67 30.65,-94.65 v -218.35" /><path
             id="path116"
             style="fill:#ffffff;fill-opacity:1;fill-rule:nonzero;stroke:none"
             d="m 5108.5,1175.46 c -11.59,-2.96 -23.75,-5.25 -36.66,-6.97 -13.05,-1.6 -28.85,-2.45 -47.54,-2.45 -41.83,0 -72.95,8.37 -93.36,25.38 -20.31,16.87 -30.58,45.87 -30.58,86.88 v 156.72 h -44.18 v 72.89 h 44.18 v 95.85 h 107.87 v -95.85 h 100.27 v -72.89 h -100.27 v -119.03 c 0,-11.77 0.08,-21.98 0.27,-30.74 0.17,-8.78 1.81,-16.65 4.77,-23.62 2.8,-7.07 7.71,-12.54 14.73,-16.6 7.02,-4.17 17.34,-6.2 30.75,-6.2 5.61,0 12.93,1.16 21.95,3.61 9.01,2.35 15.26,4.61 18.87,6.6 h 8.93 v -73.58" /><path
             id="path118"
             style="fill:#ffffff;fill-opacity:1;fill-rule:nonzero;stroke:none"
             d="m 5364.8,1260.26 v 69.73 c -14.55,-1.28 -30.25,-2.85 -47.24,-4.92 -16.9,-2.17 -29.71,-4.55 -38.48,-7.34 -10.76,-3.32 -18.94,-8.25 -24.61,-14.73 -5.7,-6.49 -8.55,-14.89 -8.55,-25.45 0,-6.93 0.64,-12.62 1.81,-16.93 1.18,-4.42 4.15,-8.55 8.95,-12.51 4.61,-3.98 10.02,-6.89 16.45,-8.79 6.29,-1.89 16.34,-2.83 29.78,-2.83 10.76,0 21.76,2.15 32.77,6.57 11.02,4.3 20.71,10.08 29.12,17.2 z m 0,-52.13 c -5.78,-4.45 -13.01,-9.68 -21.5,-15.81 -8.57,-6.26 -16.6,-11.14 -24.2,-14.63 -10.58,-4.79 -21.5,-8.38 -32.89,-10.63 -11.27,-2.35 -23.75,-3.47 -37.3,-3.47 -31.9,0 -58.54,9.83 -80.04,29.52 -21.49,19.81 -32.25,44.9 -32.25,75.63 0,24.47 5.51,44.43 16.45,59.97 10.91,15.53 26.46,27.82 46.62,36.77 19.86,8.94 44.51,15.37 73.97,19.04 29.54,3.8 60.07,6.6 91.67,8.42 v 1.82 c 0,18.51 -7.48,31.28 -22.65,38.31 -15.08,7.04 -37.4,10.62 -66.84,10.62 -17.83,0 -36.7,-3.11 -56.86,-9.45 -20.03,-6.21 -34.49,-11.05 -43.24,-14.38 h -9.86 v 80.88 c 11.41,2.98 29.88,6.49 55.43,10.6 25.57,4.07 51.17,6.09 76.82,6.09 61.15,0 105.29,-9.38 132.48,-28.22 27.2,-18.78 40.8,-48.32 40.8,-88.51 V 1172.52 H 5364.8 v 35.61" /><path
             id="path120"
             style="fill:#ffffff;fill-opacity:1;fill-rule:nonzero;stroke:none"
             d="m 5667.01,1172.52 h -107.77 v 335.39 h 107.77 z m 2.98,383.13 h -113.72 v 81.52 h 113.72 v -81.52" /><path
             id="path122"
             style="fill:#ffffff;fill-opacity:1;fill-rule:nonzero;stroke:none"
             d="m 6000.38,1405.49 h -9.53 c -4.64,1.63 -11.92,2.79 -22.11,3.61 -10.09,0.71 -18.58,1.18 -25.34,1.18 -15.23,0 -28.74,-1 -40.46,-2.98 -11.72,-1.98 -24.34,-5.42 -37.87,-10.21 V 1172.52 H 5757.3 v 335.39 h 107.77 v -49.26 c 23.61,20.27 44.15,33.77 61.65,40.45 17.49,6.64 33.52,9.99 48.33,9.99 3.69,0 8.03,-0.09 12.8,-0.33 4.8,-0.18 8.94,-0.49 12.53,-0.85 v -102.42" /><path
             id="path124"
             style="fill:#ffffff;fill-opacity:1;fill-rule:nonzero;stroke:none"
             d="m 6273.58,1383.35 c -0.52,22.5 -6.13,39.48 -16.7,50.76 -10.58,11.39 -26.91,17.03 -49.23,17.03 -20.69,0 -37.77,-5.38 -51.16,-16.12 -13.24,-10.75 -20.76,-27.9 -22.29,-51.67 z m 106.98,-62.94 h -246.08 c 1.52,-26.29 11.62,-46.45 30.04,-60.36 18.32,-13.9 45.47,-20.85 81.35,-20.85 22.65,0 44.71,4.06 65.91,12.18 21.35,8.12 38.21,16.88 50.51,26.3 h 11.93 v -86.26 c -24.23,-9.76 -47.16,-16.93 -68.65,-21.24 -21.49,-4.44 -45.24,-6.59 -71.36,-6.59 -67.31,0 -118.89,15.18 -154.63,45.44 -35.88,30.26 -53.78,73.33 -53.78,129.25 0,55.38 16.94,99.23 50.93,131.56 33.85,32.33 80.43,48.51 139.61,48.51 54.42,0 95.44,-13.78 123.03,-41.39 27.46,-27.53 41.19,-67.25 41.19,-118.98 v -37.57" /><path
             id="path126"
             style="fill:#ffffff;fill-opacity:1;fill-rule:nonzero;stroke:none"
             d="m 3050.48,594.121 h -114.1 v 297.75 l -82.43,-193.23 h -79.14 l -82.42,193.23 V 594.121 H 2584.3 v 444.619 h 133.21 l 100.04,-223.041 99.74,223.041 h 133.19 V 594.121" /><path
             id="path128"
             style="fill:#ffffff;fill-opacity:1;fill-rule:nonzero;stroke:none"
             d="m 3359.3,680.121 c 6.95,8.578 12.24,18.84 15.67,30.949 3.54,12 5.21,28.668 5.21,50.012 0,19.668 -1.72,36.207 -5.36,49.59 -3.61,13.238 -8.57,23.906 -14.9,31.848 -6.41,8.25 -14.05,14.031 -23.04,17.351 -8.93,3.449 -18.6,5.047 -28.95,5.047 -10.33,0 -19.55,-1.328 -27.64,-4.137 -8.03,-2.801 -15.75,-8.281 -23.11,-16.691 -6.55,-7.781 -11.81,-18.449 -15.69,-32 -3.88,-13.539 -5.83,-30.52 -5.83,-51.008 0,-18.371 1.67,-34.211 5.05,-47.684 3.4,-13.457 8.39,-24.257 14.97,-32.367 6.38,-7.769 14.01,-13.48 22.86,-16.98 8.84,-3.621 18.98,-5.442 30.31,-5.442 9.74,0 19.05,1.68 27.91,4.93 8.85,3.359 16.38,8.82 22.54,16.582 z m 132.35,81.578 c 0,-55.199 -16.15,-98.578 -48.3,-130.41 -32.17,-31.699 -77.29,-47.66 -135.42,-47.66 -58.13,0 -103.23,15.961 -135.38,47.66 -32.15,31.832 -48.22,75.211 -48.22,130.41 0,55.582 16.15,99.082 48.48,130.821 32.36,31.582 77.4,47.398 135.12,47.398 58.49,0 103.8,-15.898 135.7,-47.777 31.97,-31.801 48.02,-75.34 48.02,-130.442" /><path
             id="path130"
             style="fill:#ffffff;fill-opacity:1;fill-rule:nonzero;stroke:none"
             d="M 3896.31,594.121 H 3788.55 V 760.41 c 0,13.578 -0.73,27.07 -2.2,40.539 -1.34,13.481 -3.67,23.36 -7.12,29.66 -3.98,7.411 -9.8,12.731 -17.47,16.192 -7.7,3.328 -18.4,5.039 -32.13,5.039 -9.76,0 -19.65,-1.629 -29.67,-4.789 -10.01,-3.153 -21.01,-8.211 -32.75,-15.27 v -237.66 h -107.75 v 335.32 h 107.75 V 892.52 c 19.14,14.89 37.51,26.371 55.1,34.308 17.6,7.942 37.13,11.922 58.61,11.922 36.17,0 64.46,-10.578 84.85,-31.609 20.4,-21.141 30.54,-52.672 30.54,-94.672 V 594.121" /><path
             id="path132"
             style="fill:#ffffff;fill-opacity:1;fill-rule:nonzero;stroke:none"
             d="m 4204.26,686.488 v 164.711 c -7.47,3.262 -15.51,5.52 -23.79,6.871 -8.4,1.45 -15.94,2.2 -23.02,2.2 -28.09,0 -49.29,-8.942 -63.45,-26.59 -14.05,-17.621 -21.08,-42.102 -21.08,-73.399 0,-32.82 5.68,-56.75 16.92,-71.601 11.39,-14.821 29.5,-22.289 54.56,-22.289 9.74,0 20.11,1.847 31.01,5.578 10.92,3.711 20.56,8.429 28.85,14.519 z m 107.86,-92.367 h -107.86 v 34.969 c -18.52,-15.199 -35.72,-26.301 -51.89,-33.418 -16.05,-7.262 -34.64,-10.75 -55.76,-10.75 -40.8,0 -73.36,15.707 -97.81,47.156 -24.46,31.422 -36.74,73.883 -36.74,127.184 0,28.437 4.21,53.679 12.4,75.738 8.2,21.941 19.55,40.879 33.91,56.602 13.53,14.91 29.84,26.507 49.16,34.726 19.32,8.313 38.63,12.422 57.84,12.422 20.14,0 36.6,-2.121 49.42,-6.461 12.8,-4.258 26.02,-9.719 39.47,-16.211 V 1058.8 h 107.86 V 594.121" /><path
             id="path134"
             style="fill:#ffffff;fill-opacity:1;fill-rule:nonzero;stroke:none"
             d="m 4512.29,594.121 h -107.88 v 335.32 h 107.88 z m 2.98,383.098 h -113.83 v 81.581 h 113.83 v -81.581" /><path
             id="path136"
             style="fill:#ffffff;fill-opacity:1;fill-rule:nonzero;stroke:none"
             d="m 4807.4,681.859 v 69.621 c -14.55,-1.16 -30.25,-2.851 -47.15,-4.91 -16.99,-2.07 -29.82,-4.429 -38.6,-7.242 -10.74,-3.418 -18.91,-8.34 -24.58,-14.726 -5.7,-6.481 -8.56,-15.012 -8.56,-25.43 0,-7.051 0.65,-12.621 1.81,-17.043 1.15,-4.328 4.14,-8.559 8.94,-12.539 4.63,-3.961 10.13,-6.879 16.45,-8.77 6.41,-1.89 16.36,-2.718 29.91,-2.718 10.74,0 21.62,2.16 32.64,6.449 11.01,4.437 20.72,10.211 29.14,17.308 z m 0,-52.238 c -5.78,-4.351 -12.91,-9.551 -21.51,-15.812 -8.59,-6.137 -16.62,-11.02 -24.21,-14.649 -10.58,-4.769 -21.48,-8.23 -32.75,-10.609 -11.42,-2.25 -23.88,-3.371 -37.46,-3.371 -31.74,0 -58.51,9.84 -80.01,29.531 -21.51,19.687 -32.25,44.898 -32.25,75.629 0,24.48 5.51,44.441 16.44,59.98 10.92,15.52 26.45,27.719 46.64,36.77 19.84,8.93 44.5,15.25 74.05,19.051 29.46,3.777 59.99,6.589 91.7,8.41 v 1.82 c 0,18.5 -7.6,31.277 -22.79,38.32 -15.06,7.047 -37.39,10.629 -66.84,10.629 -17.7,0 -36.67,-3.109 -56.72,-9.449 -20.15,-6.223 -34.61,-11.051 -43.38,-14.5 h -9.84 v 80.938 c 11.4,2.98 29.86,6.55 55.43,10.601 25.54,4.059 51.18,6.11 76.94,6.11 61.04,0 105.28,-9.34 132.36,-28.239 C 4900.39,892 4914,862.5 4914,822.32 V 594.121 h -106.6 v 35.5" /><path
             id="path138"
             style="fill:#ffffff;fill-opacity:1;fill-rule:nonzero;stroke:none"
             d="m 5003.66,594.121 h 107.789 v 464.68 H 5003.66 Z" /><path
             id="path140"
             style="fill:#ffffff;fill-opacity:1;fill-rule:nonzero;stroke:none"
             d="m 1103.69,2834.65 -86.96,-322.92 h -92.312 l -57.777,210.34 -56.414,-210.34 h -92.106 l -86.961,322.92 h 86.922 l 49.508,-222.27 59.574,222.27 h 83.078 l 56.516,-222.27 52.032,222.27 h 84.9" /><path
             id="path142"
             style="fill:#ffffff;fill-opacity:1;fill-rule:nonzero;stroke:none"
             d="m 1390.54,2772.2 h -148.53 v -60.07 h 137.69 v -62.46 h -137.69 v -137.94 h -82.85 v 322.92 h 231.38 v -62.45" /><path
             id="path144"
             style="fill:#ffffff;fill-opacity:1;fill-rule:nonzero;stroke:none"
             d="m 1628.4,2730.85 c 0,9.11 -2.46,16.94 -7.36,23.47 -4.91,6.6 -10.63,11.16 -17.13,13.74 -8.69,3.5 -17.12,5.37 -25.37,5.74 -8.25,0.37 -19.21,0.54 -32.93,0.54 h -14.36 v -96.47 h 23.86 c 14.17,0 25.85,0.82 35.05,2.58 9.19,1.69 16.9,5.22 23.07,10.37 5.35,4.64 9.22,10.14 11.61,16.56 2.4,6.41 3.56,14.23 3.56,23.47 z m 86.13,1.86 c 0,-14.48 -2.58,-28.6 -7.62,-42.4 -5.03,-13.79 -12.27,-25.41 -21.66,-34.78 -12.9,-12.73 -27.23,-22.35 -43.03,-28.84 -15.86,-6.49 -35.54,-9.76 -59.1,-9.76 h -51.87 v -105.2 h -83.23 v 322.92 h 137.05 c 20.54,0 37.82,-1.8 51.92,-5.32 14.1,-3.59 26.55,-8.85 37.41,-15.96 13,-8.51 22.92,-19.46 29.84,-32.75 6.85,-13.28 10.29,-29.26 10.29,-47.91" /><path
             id="path146"
             style="fill:#ffffff;fill-opacity:1;fill-rule:nonzero;stroke:none"
             d="M 556.426,257.871 498.375,70.5391 h -63.77 L 396.441,196.762 358.75,70.5391 H 294.352 L 236.801,257.871 h 62.988 l 32.168,-129.07 39.977,129.07 h 53.207 l 38.007,-129.07 31.653,129.07 h 61.625" /><path
             id="path148"
             style="fill:#ffffff;fill-opacity:1;fill-rule:nonzero;stroke:none"
             d="m 706.879,286.07 h -4.481 c -2.695,0.7 -6.152,1.602 -10.382,2.59 -4.282,1 -8.887,1.551 -13.77,1.551 -11.754,0 -19.691,-2.082 -23.816,-6.391 -4.192,-4.191 -6.246,-12.32 -6.246,-24.5 v -1.449 h 46.164 v -40.73 H 650.176 V 70.5391 H 589.977 V 217.141 H 564.27 v 40.73 h 25.707 v 5.141 c 0,22.847 6.062,40.078 18.238,51.566 12.183,11.492 30.633,17.113 55.293,17.113 8.879,0 16.965,-0.261 24.203,-0.929 7.234,-0.532 13.629,-1.352 19.168,-2.352 v -42.34" /><path
             id="path150"
             style="fill:#ffffff;fill-opacity:1;fill-rule:nonzero;stroke:none"
             d="m 846.277,165.5 c 0,18.238 -3.132,31.398 -9.359,39.672 -6.172,8.18 -15.988,12.258 -29.438,12.258 -5.671,0 -11.46,-0.879 -17.484,-2.508 -5.976,-1.742 -11.703,-4.274 -17.141,-7.453 v -94.047 c 3.981,-1.621 8.274,-2.621 12.805,-3 4.582,-0.524 9.067,-0.703 13.5,-0.703 15.899,0 27.703,4.672 35.481,13.871 7.761,9.332 11.636,23.262 11.636,41.91 z m 61.86,1.211 c 0,-15.352 -2.375,-29.481 -7.059,-42.172 -4.734,-12.68 -10.949,-23.039 -18.574,-31.3398 -8.027,-8.6875 -17.055,-15.168 -27.172,-19.6601 -10.129,-4.5079 -20.945,-6.6993 -32.461,-6.6993 -10.664,0 -19.746,1.1211 -27.18,3.4688 -7.425,2.25 -15.054,5.4102 -22.836,9.4922 V 1.85938 H 712.66 V 257.871 h 60.195 v -19.512 c 9.231,7.282 18.625,13.211 28.25,17.813 9.622,4.598 20.665,6.84 33.235,6.84 23.332,0 41.461,-8.582 54.383,-25.653 12.957,-17.179 19.414,-40.687 19.414,-70.648" /><path
             id="path152"
             style="fill:#ffffff;fill-opacity:1;fill-rule:nonzero;stroke:none"
             d="m 936.582,70.5391 h 62.3867 v 65.543 H 936.582 Z" /><path
             id="path154"
             style="fill:#ffffff;fill-opacity:1;fill-rule:nonzero;stroke:none"
             d="m 1158.4,118.551 c 3.9,4.801 6.82,10.558 8.76,17.301 1.95,6.738 2.92,15.988 2.92,27.867 0,11.101 -0.99,20.261 -3.03,27.769 -2.02,7.364 -4.75,13.301 -8.35,17.813 -3.54,4.597 -7.85,7.781 -12.82,9.687 -5,1.883 -10.39,2.852 -16.18,2.852 -5.79,0 -10.9,-0.82 -15.46,-2.399 -4.49,-1.511 -8.81,-4.589 -12.9,-9.293 -3.69,-4.398 -6.61,-10.328 -8.76,-17.796 -2.15,-7.614 -3.27,-17.153 -3.27,-28.633 0,-10.168 0.95,-19.028 2.85,-26.578 1.9,-7.551 4.69,-13.551 8.33,-18.039 3.56,-4.391 7.82,-7.543 12.76,-9.532 4.93,-1.992 10.6,-2.992 16.95,-2.992 5.43,0 10.65,0.922 15.6,2.781 4.94,1.731 9.16,4.903 12.6,9.192 z m 73.88,45.578 c 0,-30.859 -8.96,-55.141 -26.93,-72.8595 -17.97,-17.7187 -43.21,-26.5781 -75.65,-26.5781 -32.48,0 -57.68,8.8594 -75.65,26.5781 -17.98,17.7185 -26.93,42.0005 -26.93,72.8595 0,30.941 9,55.312 27.07,73.082 18.07,17.668 43.26,26.508 75.51,26.508 32.7,0 57.99,-8.887 75.79,-26.778 17.88,-17.761 26.79,-42.082 26.79,-72.812" /><path
             id="path156"
             style="fill:#ffffff;fill-opacity:1;fill-rule:nonzero;stroke:none"
             d="m 1394,200.621 h -5.33 c -2.55,0.899 -6.62,1.598 -12.31,1.988 -5.63,0.512 -10.36,0.711 -14.15,0.711 -8.51,0 -16.09,-0.609 -22.61,-1.711 -6.58,-1.097 -13.6,-2.988 -21.13,-5.687 V 70.5391 h -60.24 V 257.871 h 60.24 v -27.492 c 13.21,11.269 24.66,18.832 34.43,22.582 9.76,3.738 18.77,5.508 26.95,5.508 2.15,0 4.54,-0.047 7.18,-0.149 2.63,-0.121 4.98,-0.25 6.97,-0.449 v -57.25" /><path
             id="path158"
             style="fill:#ffffff;fill-opacity:1;fill-rule:nonzero;stroke:none"
             d="m 1532.91,129.52 v 84.921 c -3.44,1.5 -7.68,2.618 -12.66,3.469 -4.98,0.852 -9.52,1.219 -13.5,1.219 -15.74,0 -27.55,-4.578 -35.42,-13.598 -7.9,-9.019 -11.85,-21.691 -11.85,-37.961 0,-17.961 3.36,-30.55 10.09,-37.629 6.72,-7.203 16.66,-10.679 29.86,-10.679 5.99,0 11.88,0.937 17.63,2.828 5.78,1.91 11.07,4.34 15.85,7.43 z m 60.2,-37.4888 c 0,-17.5507 -2.5,-32.3203 -7.49,-44.3124 C 1580.57,35.6289 1573.59,26.3086 1564.6,19.5312 1555.56,12.6289 1544.71,7.57031 1531.99,4.5 1519.25,1.48047 1504.85,0 1488.86,0 c -13.01,0 -25.81,0.691406 -38.44,2.30859 -12.64,1.58985 -23.54,3.48047 -32.77,5.67188 V 54.8594 h 7.33 c 7.32,-2.8985 16.25,-5.5703 26.81,-7.9102 10.51,-2.4609 19.94,-3.6172 28.33,-3.6172 11.06,0 20.11,1.0274 27.03,3.0664 6.94,2.0508 12.24,4.9727 15.94,8.7618 3.44,3.5898 5.93,8.1796 7.47,13.6601 1.54,5.6211 2.35,12.3008 2.35,20.0899 v 3.4296 c -7.24,-5.8789 -15.22,-10.5898 -23.99,-13.9687 -8.77,-3.5117 -18.54,-5.1328 -29.34,-5.1328 -26.2,0 -46.46,7.8828 -60.66,23.6601 -14.21,15.7736 -21.28,39.8206 -21.28,72.0816 0,15.461 2.13,28.739 6.48,40.02 4.34,11.18 10.41,20.949 18.3,29.359 7.32,7.782 16.36,13.821 27.09,18.11 10.72,4.402 21.66,6.543 32.88,6.543 10.13,0 19.33,-1.16 27.61,-3.614 8.27,-2.359 15.77,-5.636 22.56,-9.918 l 2.16,8.391 h 58.39 V 92.0312" /><path
             id="path160"
             style="fill:#ffffff;fill-opacity:1;fill-rule:nonzero;stroke:none"
             d="M 1808.39,330.109 1676.1,16.5195 h -51.21 l 131.75,313.5895 h 51.75" /><path
             id="path162"
             style="fill:#ffffff;fill-opacity:1;fill-rule:nonzero;stroke:none"
             d="m 1972.6,286.07 h -4.47 c -2.65,0.7 -6.15,1.602 -10.39,2.59 -4.28,1 -8.83,1.551 -13.71,1.551 -11.75,0 -19.76,-2.082 -23.88,-6.391 -4.18,-4.191 -6.25,-12.32 -6.25,-24.5 v -1.449 h 46.23 v -40.73 h -44.24 V 70.5391 h -60.2 V 217.141 h -25.7 v 40.73 h 25.7 v 5.141 c 0,22.847 6.07,40.078 18.25,51.566 12.18,11.492 30.63,17.113 55.28,17.113 8.94,0 16.98,-0.261 24.21,-0.929 7.24,-0.532 13.63,-1.352 19.17,-2.352 v -42.34" /><path
             id="path164"
             style="fill:#ffffff;fill-opacity:1;fill-rule:nonzero;stroke:none"
             d="m 2114.16,200.621 h -5.33 c -2.54,0.899 -6.62,1.598 -12.31,1.988 -5.68,0.512 -10.36,0.711 -14.15,0.711 -8.51,0 -16.08,-0.609 -22.61,-1.711 -6.58,-1.097 -13.6,-2.988 -21.17,-5.687 V 70.5391 h -60.21 V 257.871 h 60.21 v -27.492 c 13.2,11.269 24.7,18.832 34.46,22.582 9.77,3.738 18.74,5.508 26.96,5.508 2.11,0 4.48,-0.047 7.18,-0.149 2.63,-0.121 4.98,-0.25 6.97,-0.449 v -57.25" /></g></g></g></g></svg>