<?xml version="1.0" encoding="UTF-8" standalone="no"?>
<svg
   xmlns:dc="http://purl.org/dc/elements/1.1/"
   xmlns:cc="http://creativecommons.org/ns#"
   xmlns:rdf="http://www.w3.org/1999/02/22-rdf-syntax-ns#"
   xmlns:svg="http://www.w3.org/2000/svg"
   xmlns="http://www.w3.org/2000/svg"
   viewBox="0 0 310.62668 378.05334"
   height="378.05334"
   width="310.62668"
   xml:space="preserve"
   id="svg2"
   version="1.1"><metadata
     id="metadata8"><rdf:RDF><cc:Work
         rdf:about=""><dc:format>image/svg+xml</dc:format><dc:type
           rdf:resource="http://purl.org/dc/dcmitype/StillImage" /></cc:Work></rdf:RDF></metadata><defs
     id="defs6"><clipPath
       id="clipPath20"
       clipPathUnits="userSpaceOnUse"><path
         id="path18"
         d="M 0,0 H 2329.7 V 2835 H 0 Z" /></clipPath></defs><g
     transform="matrix(1.3333333,0,0,-1.3333333,0,378.05333)"
     id="g10"><g
       transform="scale(0.1)"
       id="g12"><g
         id="g14"><g
           clip-path="url(#clipPath20)"
           id="g16"><path
             id="path22"
             style="fill:#ffffff;fill-opacity:1;fill-rule:nonzero;stroke:none"
             d="m 1340.51,2131.88 c 12.5,27.07 24.08,48.62 40.78,74.3 7.39,11.32 15.71,19.22 23.13,30.68 -3.56,1.02 -8.73,-1.91 -10.98,-3.51 -7.42,-5.38 -10.76,-14.12 -16.7,-18.8 -14.04,-11.07 -13.65,-21.1 -20.99,-26.28 -6.58,-4.63 -8.46,-7.68 -13.07,-14.9 -3.07,-4.82 -5.33,-8.73 -8.59,-18.23 -1.16,-3.42 -3.44,-0.39 -8.93,-7.93 -7.19,-9.8 -10.41,-20.39 -13.38,-32.26 -0.95,-3.9 -7.6,-5.97 -11.85,-14.07 -5.73,-10.92 -9.44,-21.03 -11.92,-36.95 -0.6,-3.69 -6.85,-6.25 -11.15,-16.53 -3.05,-7.23 -5.23,-8.83 -7.91,-22.45 -1.64,-8.31 -5.43,-9.51 -9.69,-21.57 -3.3,-9.2 -3.43,-18.06 -4.59,-30.08 -0.25,-2.33 -4.2,-6.95 -7.83,-13.69 -6.09,-11.26 -5.9,-18.78 -8.32,-30.41 -0.92,-4.2 -5.64,-9.77 -10.18,-27.79 -3.98,-15.98 -0.33,-26.58 -1.67,-34.45 -3.52,-20.45 -7.04,-38.21 -5.14,-58.35 0.94,-9.85 2.44,-20.01 1.78,-29.48 -1.88,-29.7 -3.48,-54.17 -3.32,-87.83 0.11,-18.32 1.54,-43.41 4.31,-64.29 3.05,-23.06 7.44,-41.07 7.44,-41.07 h 75.14 c 0,0 -2.93,43.45 0.96,89.19 2.3,27.42 8.83,56.48 14.76,76.89 7.5,26.03 12.17,39.51 26.37,73.85 0.29,0.76 -0.1,3.98 -3.85,0.83 -7.85,-6.58 -14.39,-12.37 -20.58,-21.69 -9.46,-14.25 -15.22,-25.99 -22.87,-40.63 -8.95,-17.02 -13.89,-31.84 -23.11,-52.52 -0.55,14.92 1.87,29.12 4.9,42.87 3.11,14.04 5.57,25.16 9.98,37.26 7.83,21.35 15.43,39.16 27.99,59.03 7.29,11.47 16.58,21.77 26.02,30.32 11.29,10.32 21.73,19.39 33.55,29.5 -12.42,6.4 -28.96,-6.96 -32.26,-7.65 -17.49,-3.4 -24.59,-19.61 -29.95,-21.82 -7.63,-3.2 -12.07,-7.89 -17.38,-14.33 -4.08,-4.85 -5.31,-12.33 -9.59,-14.99 -7.13,-4.44 -12.36,-11.14 -17.26,-20.5 -2.02,-3.86 -7.5,-22.13 -13.6,-19.78 10.43,61.93 32.29,120.01 67.38,171.69 22.25,32.78 46.45,60.9 82.13,86.11 4.69,3.33 5.61,4.89 -0.95,4.66 -33.34,-4.05 -35.37,-19.28 -40.86,-20.71 -5.22,-1.35 -11.66,-7.52 -15.78,-11.54 -7.41,-7.32 -7.29,-13.5 -10.12,-15.42 -6.09,-4.25 -10.67,-8.66 -14.83,-16.02 -2.18,-3.85 -5.85,-12.31 -9.1,-14.24 -8.57,-4.96 -16.85,-12.19 -20.99,-19.99 -3.05,-5.7 -4.26,-11.89 -8.25,-17.49 -4.27,-6.02 -10.23,-10.53 -15.37,-14.88 3.91,26.46 16.37,57.82 24.96,84.87 11.53,36.12 25.53,68.95 41.33,103.07" /><path
             id="path24"
             style="fill:#ffffff;fill-opacity:1;fill-rule:nonzero;stroke:none"
             d="m 1417.21,1917.38 c 28.46,63.85 58.38,111.9 97.27,168.11 5.08,7.37 9.65,14.58 14.08,21.49 1.99,3.11 11.56,16.85 13.55,19.76 13.03,19.69 18.52,25.71 31.86,44.53 3.61,5.11 6.54,9.13 8.09,15.04 2.85,11.01 -6.61,18.4 -8.79,28.96 -2.19,10.79 -1,22.57 3.96,31.68 3.11,5.69 6.19,7.93 9.32,15.57 6.05,14.73 3.96,46.6 10.86,47.43 -1.74,-15.12 -2.15,-32.13 0.23,-46.63 2.76,-16.93 13.03,-27.18 17.27,-45.11 11.42,2.06 23.83,1.57 33.45,0.74 9.54,-0.82 21.61,1.83 31.39,5.18 13.26,4.53 24.28,12.78 37.79,15.98 -11.48,-11.05 -27.71,-15.2 -41.32,-23.59 -5,-3.14 -9.71,-7.29 -13.05,-12.45 -5.47,-8.5 -9.79,-16.64 -18.34,-20.37 -15.2,-6.63 -28.24,-3.49 -45.57,-6.72 -25.76,-26.53 -50.02,-62.62 -72.38,-100.57 -56.74,-95.98 -104.04,-195.37 -131.54,-297.29 9.51,17.73 18.59,34.88 28.9,51.75 11.37,18.74 24.18,37.09 38.13,55.47 32.65,43.05 64.98,80.64 101.17,120.19 29.22,31.95 61.25,58.76 96.95,81.18 47.19,29.57 105.41,50.28 156.57,39.6 5.82,-1.36 14.14,-2.91 17.77,-6.74 -64.1,8.98 -121.54,-13.42 -164.4,-47.75 -33.84,-27.07 -62.38,-54.55 -91.38,-90.26 -14.98,-17.21 -28.46,-36.13 -41.84,-54.45 -14,-19.27 -26.44,-39.55 -38.77,-59.83 -41.54,-68.61 -72.99,-141.25 -96.11,-216.51 -0.66,-2.39 -0.8,-4.79 -1.47,-7.16 1.1,1.69 2.72,3.53 3.81,5.25 31.14,50.61 68.56,99.45 115.96,132.22 4.14,2.82 8.46,8.26 9.57,12.53 5.14,20.09 -10.18,29.75 11,57.52 4.86,6.38 11.5,8.71 16.09,14.64 8.67,13.4 15.74,37.41 23.01,43.86 -3.65,-15.64 -12.62,-32.15 -14.53,-48.26 -2.03,-17.68 2.5,-32.14 3.28,-50.88 12.52,-1.71 22.2,-7.01 32.03,-10.04 15.27,-4.77 24.45,-3.56 39.57,-2.25 6.44,0.54 18.14,4.31 25.1,2.89 -14.61,-7.98 -34.34,-6.51 -49.28,-14.14 -10.47,-5.36 -13.5,-13.27 -27.91,-16.05 -12.85,-2.5 -23.65,-1.16 -31.99,3.12 -6.49,3.27 -11.57,4.64 -17.39,1.85 -15.56,-7.47 -26.19,-18.02 -38.71,-30.65 -29.08,-29.26 -52.81,-61.92 -74.96,-104.75 -5.86,-11.39 -11.13,-22.64 -16.13,-34.25 -2.46,-5.65 -8.59,-21.34 -8.59,-21.34 h -75.98 c 0,0 -0.2,21.91 0.53,29.91 1.44,15.95 3.61,27.76 6.72,43.94 4.39,23.26 8.71,44.37 14.74,66.94 5.88,21.96 12.23,42.56 19.75,63.65 15.7,43.96 32.4,86.06 50.66,127.06" /><path
             id="path26"
             style="fill:#ffffff;fill-opacity:1;fill-rule:nonzero;stroke:none"
             d="m 682.555,1325.53 c 27.734,22.68 48.265,35.82 75.957,52.33 11.246,6.72 28.258,14.33 41.336,20.26 47.984,21.68 111.464,37.67 171.269,38.77 1.086,0 1.016,-0.05 1.016,-0.05 h 445.897 c 0,0 -1.66,0.05 1.56,0.05 14.2,0 28.23,-4.94 36.92,-13.15 8.71,-8.26 12.87,-20.97 15.14,-33.62 1.93,-10.78 0.97,-20.36 -1.53,-31.89 -1.97,-9.11 -3.44,-14.54 -8.51,-22.28 -3.07,-4.71 -5.98,-7.94 -11.68,-12.48 -5.86,-4.68 -14.16,-6.31 -23.68,-6.4 -0.99,-0.04 -3.12,-0.1 -3.04,-0.07 0.1,0.07 -521.565,0.07 -521.565,0.07 0,0 -3.243,0.01 -4.872,0.01 -34.144,0.11 -70.093,-1.63 -103.835,-6.03 -25.844,-3.53 -51.743,-7.56 -76.723,-14.06 -31.504,-8.23 -61.836,-19.62 -92.117,-30.91 16.785,22.31 36.16,41.24 58.457,59.45" /><path
             id="path28"
             style="fill:#ffffff;fill-opacity:1;fill-rule:nonzero;stroke:none"
             d="m 837.387,1502.94 c 27.398,19.79 60.66,36.04 90.125,47.32 14.949,5.66 34.812,11.93 50.593,15.86 19.063,4.81 40.965,8.42 58.835,8.94 5.38,0.15 0.79,0.04 0.79,0.04 l 382.45,0.04 c 0,0 8.2,-0.44 11.04,-1 7.18,-1.55 12.98,-4.48 15.39,-6.01 5.93,-3.81 13.39,-11.81 17.3,-18.14 9.92,-16.35 11.68,-34 8.46,-52.37 -3.67,-20.97 -19.61,-44.86 -41.23,-45.45 -3.77,-0.1 -11.27,0 -11.27,0 h -414.24 c 0,0 -24.11,-0.47 -35.122,-0.87 -20.375,-0.8 -42.965,-3.12 -60.75,-5.74 -15.215,-2.19 -30.078,-5.07 -45.317,-9.15 -51.066,-13.8 -95.441,-39.7 -141.851,-59.84 31.254,54.63 73.539,96.48 114.797,126.37" /><path
             id="path30"
             style="fill:#ffffff;fill-opacity:1;fill-rule:nonzero;stroke:none"
             d="m 623.438,1243.01 c 66.488,39.28 146.582,54.77 219.886,57.23 1.742,0.08 5.223,0.19 5.223,0.19 l 571.733,-0.05 c 0,0 1.03,0 6.21,0.05 34.65,0.03 47.3,-34.35 47.15,-62.15 -0.06,-9.16 -1.62,-18.5 -4.16,-24.77 -3.28,-8.19 -6.94,-14.88 -12.89,-21.34 -2.13,-2.34 -9.79,-7.72 -13.17,-8.55 -7.93,-1.94 -17.67,-1.72 -17.61,-1.72 0.07,0 -425.27,-0.08 -425.27,0 0,0 -22.946,0.92 -38.868,2.45 -11.473,1.13 -20.18,2.33 -32.094,4.6 -29.285,5.82 -53.562,15.35 -78.926,23.17 -16.918,5.24 -34.714,9.13 -53.273,11.94 -34.137,5.22 -71.418,7.6 -105.891,4.99 -43.847,-3.26 -82.843,-11.85 -124.554,-25.08 7.054,10.99 36.371,27.12 56.504,39.04" /><path
             id="path32"
             style="fill:#ffffff;fill-opacity:1;fill-rule:nonzero;stroke:none"
             d="m 931.395,1063.73 c -19.543,6.89 -38.614,15.78 -55.719,27.07 -22.285,14.75 -33.211,26.48 -62.008,39.79 -24.648,11.39 -44.328,22.63 -78.691,35.08 -16.582,6.01 -43.446,14.28 -66.481,18.22 -32.906,5.59 -64.633,8.04 -64.633,8.04 0,0 6.719,4.19 10.77,5.43 33.586,10.22 63.25,15.21 97.738,17.76 30.246,2.27 58.035,-0.68 88.356,-5.42 12.441,-1.96 28.613,-5.79 42.668,-9.8 45.636,-12.99 97.523,-33.59 143.546,-33.67 2.571,0 2.278,0.04 2.278,0.04 h 425.021 c 0,0 -3.22,0 1.29,0 12.87,0.04 36.94,-4.13 46.6,-21.21 11.21,-19.68 14.69,-43.12 5.28,-66.6 -2.85,-7.05 -7.58,-17.16 -14.38,-23.28 -5.95,-5.4 -15.66,-8.87 -21.27,-8.87 -1.62,-0.08 -4.39,0 -4.39,0 h -371.7 c 0,0 1.41,0 -2.02,0 -38.01,0 -85.853,4.6 -122.255,17.42" /><path
             id="path34"
             style="fill:#ffffff;fill-opacity:1;fill-rule:nonzero;stroke:none"
             d="m 1100.71,931.891 c -10.51,10.789 -25.01,27.328 -38.15,43.039 -25.22,30.07 -36.52,57.16 -36.52,57.16 h 247.91 c 0,0 0.66,-28.6 -5.06,-61.719 -5.37,-30.75 -16.72,-63.172 -28.81,-86.66 -0.43,-24.082 9.73,-46.473 11.41,-70.262 -20.37,-12.5 -42.27,-24.871 -60.53,-42.418 -1.15,-1.082 -3.04,-1.082 -3.81,1.828 -9.78,36.661 -14.93,69.34 -22.95,105.59 -22.6,17.469 -43.8,33.039 -63.49,53.442" /><path
             id="path36"
             style="fill:#ffffff;fill-opacity:1;fill-rule:nonzero;stroke:none"
             d="m 1356.22,952.219 c -7.02,12.949 -12.25,30.051 -20.3,40.222 -1.74,-9.07 0.39,-14.652 -0.84,-23.332 -1.13,-7.269 -7.09,-4.25 -8.3,-0.828 -3.47,9.84 -7.17,21.989 -10.35,32.079 -5.27,16.8 -6.97,31.68 -6.97,31.68 l 41.25,0.05 c 0,0 1.58,-0.39 2.3,-4.4 1.98,-10.39 1.49,-20.54 4.34,-32.581 3.65,-15.507 8.38,-29.668 14.06,-44.129 4.96,-12.73 11.37,-25.57 16.56,-38.21 0.71,-1.661 1.04,-4.86 -0.21,-6.52 -1.52,-1.922 -4.16,-1.68 -5.67,0 -11.81,13.43 -16.58,28.641 -25.87,45.969" /><path
             id="path38"
             style="fill:#ffffff;fill-opacity:1;fill-rule:nonzero;stroke:none"
             d="m 1420.04,922.738 c -7.01,14.953 -16.87,31.762 -16.01,48.723 4.57,-5.992 6.44,-10.281 12.71,-13.621 2.87,-0.91 8.91,-0.059 7.39,4.961 -2.78,9.34 -7.07,17.25 -11.06,30.07 -5.92,18.949 -11.68,39.199 -11.68,39.199 l -42.09,0.02 c 0,0 2.33,-17.08 11.9,-43.289 8.41,-23.211 21.4,-49.77 35.62,-74.672 11.58,-20.481 22.11,-38.348 35.26,-53.309 4.49,-5.148 15.52,-0.629 10.76,6.071 -12.48,17.64 -24.12,37.168 -32.8,55.847" /><path
             id="path40"
             style="fill:#ffffff;fill-opacity:1;fill-rule:nonzero;stroke:none"
             d="m 1693.4,2345.62 c -9.14,-3.98 -17.2,-9.13 -21.75,-17.91 -3.32,-6.3 -5.57,-15.92 0.78,-21.33 11.11,-9.49 24.37,0.22 29.74,9.91 6.8,12.35 5.02,35.96 5.02,35.96 0,0 -7.89,-4.11 -13.79,-6.63" /><path
             id="path42"
             style="fill:#ffffff;fill-opacity:1;fill-rule:nonzero;stroke:none"
             d="m 1703.07,2286.68 c 3.99,7.54 12.74,15.68 22.33,21.51 10.84,6.63 22.07,13.06 29.88,17.72 7.81,4.7 9.3,7.99 9.3,7.99 0,0 -6.43,-2.22 -9.97,-4.3 -19.27,-11.49 -40.31,-24.55 -48.86,-28.32 -10.8,-4.71 -25.47,-5.62 -38.69,-7.31 -2.11,16.69 -6.45,23.62 -6.39,38.44 0.1,7.11 1.82,16.34 3.03,22.77 4.14,21.43 4.96,32.25 4.96,32.25 0,0 -3.28,-3.05 -4.48,-12.48 -1.34,-8.52 -2.3,-11.66 -4.25,-21.74 -2.23,-11.62 -4.55,-21.47 -11.51,-28.73 -10.02,-10.37 -19.29,-28.82 -11.56,-42.96 4.51,-8.26 12.05,-7.06 14.41,-9.19 2.35,-2.12 3.79,-7.21 10.92,-9.57 15.39,-5.14 32.83,8.67 40.88,23.92" /><path
             id="path44"
             style="fill:#ffffff;fill-opacity:1;fill-rule:nonzero;stroke:none"
             d="m 1683.11,2242.61 c 5.23,8.48 10.59,14.43 18.83,19.48 13.65,8.33 23.79,13.97 32.13,18.23 3.61,1.82 6.62,3.98 7.54,7.84 -3.73,-1.4 -17.84,-8.03 -31.84,-16.36 -10.02,-5.98 -27.27,-13.46 -38.85,-13.99 -4.59,-0.2 -7.99,0.93 -11.74,1.05 -7.77,0.32 -17.65,-1.56 -17.65,-1.56 0,0 -2.52,10.99 -5.84,18.9 -1.66,4.05 -4.36,8.21 -5.8,15.82 -0.98,5.08 -1.25,12.71 -0.86,17.25 1.13,13.73 4.84,27.07 4.2,40.97 -8.64,-17.93 -5.1,-40.01 -15.24,-53.88 -4.27,-5.83 -7.65,-10.43 -11.01,-17.78 -5.57,-12.06 -4.9,-24.55 2.61,-36.18 4.34,-6.63 13.91,-6.38 15.57,-7.67 2.5,-1.85 4.65,-8.78 14.01,-10.86 16.01,-3.6 34.9,3.83 43.94,18.74" /><path
             id="path46"
             style="fill:#ffffff;fill-opacity:1;fill-rule:nonzero;stroke:none"
             d="m 1687.58,1892.02 c 3.73,7.53 6.14,17.42 10.9,24.41 -10.76,-1.61 -12.5,-2.84 -28.05,-4.55 -3.37,-0.32 -10.39,-3.84 -12.71,-6.15 -6.15,-6.21 -11.52,-11.96 -9.12,-22.38 0.92,-4.05 4.49,-7.02 6.48,-7.65 12.93,-4.2 26.06,3.49 32.5,16.32" /><path
             id="path48"
             style="fill:#ffffff;fill-opacity:1;fill-rule:nonzero;stroke:none"
             d="m 1700.71,1871.5 c 14.69,3.43 31.66,10.64 38.47,8.37 -13.78,-7.33 -31.17,-10 -46.44,-14.35 -11.64,-3.36 -19.96,-12.16 -30.37,-20.15 -9.55,-7.26 -22.25,-10.22 -33.6,-4.88 -3.82,1.82 -7.53,7.99 -8.2,11.28 -0.58,2.63 -6.07,5.27 -8.89,7.58 -2.83,2.36 -4.19,8.25 -4.25,10.52 -0.49,20.34 14.98,28.55 29.9,40.49 11.23,9 25.8,47.17 34.69,55.08 -1.59,-12.3 -17.58,-35.51 -24.55,-53.58 -5.53,-14.39 -3.72,-25.9 -7.29,-41.05 10.66,-0.67 22.56,-2.91 33.28,-3.08 8.42,-0.11 18.6,1.72 27.25,3.77" /><path
             id="path50"
             style="fill:#ffffff;fill-opacity:1;fill-rule:nonzero;stroke:none"
             d="m 1685.24,1840.15 c -8.26,-1.53 -18.36,-4.13 -25.24,-5.59 -23.96,-5.07 -35.41,6.66 -54.53,6.44 1.68,21.9 -5.91,31.71 0.34,45.88 5.58,12.59 10.76,25.93 15.56,36.6 3.89,8.57 5.06,15.8 5.06,15.8 0,0 -5.8,-8.69 -22.3,-40.86 -5.75,-11.22 -16.04,-13.63 -25.16,-24.23 -10.51,-12.12 -16.54,-37.75 2.89,-48.51 3.87,-2.12 3.3,-8.78 6.11,-11.47 12.99,-12.21 39.2,-10.98 55.59,3.9 13.05,11.89 28.91,13.82 42.42,17.32 7.91,2.04 14.85,5.4 14.85,5.4 0,0 -3.75,1.53 -15.59,-0.68" /><path
             id="path52"
             style="fill:#ffffff;fill-opacity:1;fill-rule:nonzero;stroke:none"
             d="m 1205.24,1585.9 c -0.96,0 -1.97,0 0,0 z m -111.9,315.55 c -7.98,-10.56 -11.68,-22.7 -20.5,-31.92 -4.6,-4.83 -11.62,-2.57 -15.27,2.99 -4.04,6.29 -10.59,15.18 -5.72,21.39 8,10.27 24.75,16.82 39,14.97 0.84,-0.1 5.43,-3.49 2.49,-7.43 z M 1055,1841.06 c -4.47,-11.96 -17.8,-13.26 -29.14,-15.62 -2.12,-0.46 -8.64,0 -11.57,2.87 -4.9,4.79 -9.14,11.34 -8.29,19.54 0.46,5.05 4.68,10.01 9.9,12.03 9.47,3.67 20.7,9.57 30.03,4.33 8.03,-4.48 12.24,-14.73 9.07,-23.15 z m -24.55,-63.22 c -3.26,-4.71 -11.64,10.95 -12.73,18.12 -3.13,20.77 15.07,26.07 30.24,25.43 0.47,-12.39 -9.13,-31.57 -17.51,-43.55 z m -16.38,-56.03 c -2.98,-8.35 -4.41,-16.04 -7.73,-23.69 -3.22,-7.4 -16.969,-10.04 -24.602,-7.67 -10.894,3.37 -20.238,27.83 -7.855,37.2 9.476,7.08 19.293,8.22 31.357,9.7 2.17,0.26 10.28,-0.23 10.59,-0.99 2.03,-5.07 0.75,-7.61 -1.76,-14.55 z m -18.34,-64.59 c -2.207,-6.42 -3.179,-13.02 -6.019,-19.19 -1.418,-3.13 -3.285,0.98 -3.359,1.19 -4.282,10.64 -6.981,19.65 -3.332,29.02 2.062,5.19 9.164,9.96 15.902,10.38 -0.414,-6.67 -0.891,-14.9 -3.192,-21.4 z m -21.648,-31.49 c -4.922,2.22 -4.848,8.55 -6.91,12.48 -1.942,3.84 -6.133,9.13 -4.406,14.17 9.496,-5.33 13.898,-14.83 11.316,-26.65 z m -16.387,39.31 c -11.332,9.32 -12.312,24.22 -19.863,35.62 8.336,5.33 22.387,4.26 26.711,-6.29 3.453,-8.48 5.965,-20.94 -2.633,-27.41 -0.933,-0.69 -3.14,-2.81 -4.215,-1.92 z m -42.246,76.85 c -1.699,2.43 -5.062,9.43 -2.5,10.32 20.281,6.98 35.496,7.21 39.832,-14.49 3.071,-15.48 -7.508,-28.77 -22.332,-23.36 -4.25,1.58 -8.461,18.07 -15,27.53 z m -29.496,48.99 c -1.422,1.79 -2.578,7.18 -0.808,8.56 10.546,8.48 26.031,9.13 38.019,7.96 15.813,-1.44 19.059,-16.14 16.422,-28.32 -3.481,-16.04 -27.805,-18.04 -34.691,-15.37 -6.77,2.6 -11.493,17.94 -18.942,27.17 z m 3.442,57.03 c 13.664,8.86 39.785,15.43 44.14,-8.56 1.32,-7.23 -0.484,-16.83 -10.25,-19.97 -10.031,-3.22 -21.847,-6.69 -31.012,-2.97 -11.273,4.61 -13.488,24.65 -2.878,31.5 z m -14.165,40.36 c 1.032,4.61 6.133,6.78 10.418,7.88 11.063,2.73 23.43,6.85 33.582,0.38 3.958,-2.5 4.262,-6.04 4.778,-11.02 0.898,-8.06 -0.246,-14.66 -5.563,-17.74 -10.773,-6.32 -21.734,-6.89 -34.257,-4.43 -10.157,2.01 -10.985,15.47 -8.958,24.93 z m -11.335,-62.21 c -9.469,7.01 -13.657,16.91 -20.637,26.72 -1.688,2.4 0,3.38 1.293,3.76 16.804,4.75 29.277,-3.64 26.66,-21.96 -0.469,-3.56 -2.781,-11.85 -7.316,-8.52 z m -46.383,56.61 c -6.301,5.45 -1.922,14.92 3.566,17.68 9.61,4.77 24.707,5.49 34.703,2.12 6.43,-2.16 9.684,-11.39 8.531,-21.47 -0.484,-4.12 -1.746,-8.67 -3.765,-10.01 -7.613,-5.19 -19.391,-5.4 -28.649,-3.47 -6.55,1.39 -8.886,10.34 -14.386,15.15 z m -7.262,57.25 c 6.09,13.25 28.305,13.37 40.402,7.46 9.856,-4.85 11.094,-23.19 0.332,-30.42 -8.586,-5.72 -22.113,-3.62 -31.218,-1.95 -12.934,2.38 -13.965,15.1 -9.516,24.91 z m 0.492,49.6 c 9.231,8.78 21.188,4.76 32.305,3.22 2.152,-0.31 4.719,-1.82 6.176,-3.27 7.589,-7.67 8.187,-20.24 -0.262,-26.53 -9.75,-7.25 -21.926,-2.54 -33.645,-1.94 -3.164,0.12 -6.644,3.84 -7.367,6.22 -2.109,7.42 -3.387,16.49 2.793,22.3 z m 5.946,41.5 c 9.8,4.09 26.636,5.96 33.578,-5.03 4.261,-6.74 3.019,-19.22 -3.817,-21.04 -6.691,-1.72 -29.457,-5.5 -34.906,7.09 -2.699,6.19 -1.559,16.16 5.145,18.98 z m 30.164,35.25 c 2.836,-1.25 4.601,-3.52 5.273,-7 1.395,-7.55 -0.594,-15.75 -7.84,-17.08 -10.89,-1.98 -27.058,-2.61 -27,12.78 0.039,17.17 16.957,16.98 29.567,11.3 z m -21.918,31.93 c 5.793,2.21 15.332,1.71 20.531,-0.99 2.625,-1.37 6.152,-5.68 4.668,-10.23 -1.848,-5.92 -7.363,-8.06 -13.629,-8.14 -6.02,-0.05 -12.926,0.43 -15.356,5.34 -2.308,4.66 -1.328,12.04 3.786,14.02 z m 6.765,25.75 c 5.297,1.92 13.129,1.79 16.985,-2.39 5.3,-5.79 1.117,-15 -8.887,-14.54 -3.524,0.15 -7.695,1.36 -9.824,2.57 -5.172,2.92 -3.457,12.5 1.726,14.36 z m 23.813,16.58 c 0.679,2.23 4.16,4.85 5.98,5.49 3.973,1.41 8.629,1.7 12.43,0.18 7.601,-3.12 6.558,-12.52 -1.559,-15.82 -3.633,-1.47 -9.215,-2.43 -11.953,-1.47 -5.113,1.73 -6.531,6.17 -4.898,11.62 z m 23.683,-36.76 c -8.293,-2.43 -19.847,-2.9 -22.324,5.6 -4.203,14.42 14.004,16.58 23.445,13.56 6.516,-2.07 8.817,-16.32 -1.121,-19.16 z m 5.489,47.62 c 2.628,8.94 12.757,13.79 21.933,11.06 7.887,-2.31 9.707,-13.06 4.379,-18.29 -2.41,-2.34 -6.406,-4.73 -10.703,-5.68 -9.387,-2.1 -18.605,3.07 -15.609,12.91 z m 41.254,-32.79 c -1.485,-5.83 -5.766,-9.83 -12.618,-11.35 -6.804,-1.5 -16.215,-1.92 -19.984,2.29 -3.602,3.98 -5.254,9.57 -2.25,13.87 6.019,8.56 17.043,11.55 26.867,9.38 5.606,-1.31 9.727,-7.05 7.985,-14.19 z m -3.665,34.31 c 3.665,8.11 12.957,12.19 21.883,9.47 1.785,-0.58 5.469,-3.45 5.977,-6.29 1.058,-5.64 -0.899,-10.79 -5.606,-13.74 -6.035,-3.85 -11.019,-6.01 -17.949,-3.17 -5.207,2.18 -6.476,8.94 -4.305,13.73 z m 38.442,-22.78 c 4.074,-6.9 -2.129,-13.83 -5.281,-15.73 -6.989,-4.09 -16.84,-6.6 -21.047,0.33 -4.145,6.79 -0.715,14.86 6.508,17.84 6.894,2.86 14.031,7.2 19.82,-2.44 z m 11.586,-26.36 c 4.562,-3.78 8.566,-11.71 3.097,-17.97 -5.132,-5.91 -11.515,-7.68 -19.586,-8.98 -5.46,-0.93 -12.437,3.11 -13.324,7.93 -0.808,4.15 -1.57,11.72 2.547,15.2 8.024,6.84 18.777,10.8 27.266,3.82 z m 9.672,44.97 c 4.312,-1.27 7.066,-5.83 4.906,-10.22 -1.313,-2.71 -5.184,-5.64 -7.649,-7.15 -6.765,-4.17 -12.57,-2.46 -14.687,2.51 -3.898,9.15 9.207,17.28 17.43,14.86 z m 16.504,-22.79 c 4.753,-0.42 6.933,-3.73 7.863,-7.36 1.23,-4.87 -0.37,-9.38 -4.48,-12.14 -4.895,-3.25 -10.993,-5.17 -15.868,-5.25 -6.594,-0.11 -12.699,9.57 -9.129,15.85 3.785,6.74 13.309,9.62 21.614,8.9 z m 27.283,-34.89 c 2.8,-8.28 -3.27,-12.14 -9.66,-15.54 -6.51,-3.47 -15.23,-6.71 -19.745,-2.39 -5.765,5.43 -8.332,14.58 -1.902,20.6 8.917,8.36 25.407,14.65 31.307,-2.67 z m 11.77,-20.77 c 10.46,-1.33 12.54,-16.2 10.43,-21.58 -2.39,-4.62 -7.66,-8.24 -10.43,-9.66 -7.67,-3.95 -16.64,-5.45 -23.69,-1.8 -6.43,3.34 -9.21,13.09 -5.72,20.73 4.73,10.34 19.63,13.59 29.41,12.31 z m 21.52,-46.04 c 3.58,-5 2.8,-13.88 0.67,-16.66 -6.59,-9.01 -24.96,-14.16 -32.53,-10.47 -5.76,2.82 -11.44,15.5 -4.7,23.11 7.01,7.9 19.22,12.61 30.31,10.3 2.46,-0.55 4.09,-3.27 6.25,-6.28 z m 4.64,-28.37 c 5.04,-0.54 9.51,-6.08 11.94,-12.11 3.16,-7.8 -0.03,-16.89 -2.53,-18.59 -6.02,-4.09 -25.08,-15.57 -37.08,-8.69 -6.6,3.79 -8.42,12.44 -8.83,17.55 -1.33,16.51 23.72,23.27 36.5,21.84 z m -70.393,-118.09 c -2.567,6.55 -4.942,16.24 0.203,20.22 10.39,8.19 33.89,15.37 42.83,2.97 5.81,-8.05 4.11,-21.7 -6.07,-26.92 -10.5,-5.36 -31.037,-11.54 -36.963,3.73 z m -50.41,-0.73 c 10.429,5.31 25.457,11.71 36.687,4.47 5.137,-3.29 10.442,-16.96 6.817,-23.02 -7.7,-12.87 -27.961,-16.15 -40.844,-12.84 -10.969,2.85 -14.274,25.53 -2.66,31.39 z m -9.379,44.5 c 12.586,8.85 37.437,14.57 43.422,-4.77 1.554,-5.02 2.441,-10.57 -0.121,-14.62 -6.973,-11.21 -24.661,-14.16 -36.497,-12.49 -12.8,1.85 -18.847,23.43 -6.804,31.88 z m -10.594,45.08 c 12.09,6.85 37.856,15.96 43.926,-3.68 2.43,-8.03 2.183,-17.94 -4.695,-21.49 -9.848,-5.16 -25.457,-10.58 -36.809,-3.5 -9.481,6 -10.762,23.89 -2.422,28.67 z m 67.676,81.02 c -5.063,-4.52 -10.203,-5.49 -16.942,-7.78 -9.437,-3.2 -19.312,4.07 -20.402,13.1 -1.816,15.46 14.75,17.76 25.707,19.69 7.988,1.44 12.938,-5.73 14.41,-10.56 1.504,-4.64 1.309,-10.87 -2.773,-14.45 z m 20.31,-36.37 c -7.19,-10.71 -36.166,-17.45 -42.556,-6.43 -4.668,8.07 -7.574,19.39 1.203,24.8 9.215,5.66 20.137,9.05 30.863,7.12 10.08,-1.78 15.21,-18.36 10.49,-25.49 z m 15.44,-66.33 c 4.13,-6.56 7.01,-15.38 0.89,-23.51 -5.56,-7.46 -25.37,-10.95 -35.519,-8.49 -5.566,1.4 -8.199,8.16 -9.051,12.73 -1.176,6.17 -1.73,12.38 3.731,17.41 7.851,7.2 18.339,7.04 28.409,7.04 4.14,0 9.99,-2.69 11.54,-5.18 z m -5.75,22.26 c -6.18,-11.34 -27.09,-12.8 -36.492,-11.55 -6.625,0.89 -11.289,11.57 -11.094,20.51 0.066,4.59 1.5,7.64 4.641,9.33 10.445,5.6 21.132,9.35 32.375,7.53 10.96,-1.74 15.22,-17.22 10.57,-25.82 z m -110.078,24.42 c -7.106,21.89 20.226,28.79 36.176,25.41 11.105,-2.31 14.812,-23.65 4.48,-30.39 -12.785,-8.31 -35.477,-10.99 -40.656,4.98 z m -41.211,-53.73 c 8.187,8.45 22.972,8.98 34.511,7.43 7.086,-0.99 10.141,-8.15 11.126,-15.92 2.761,-21.38 -25.938,-24.98 -39.594,-19.98 -9,3.29 -13.684,20.58 -6.043,28.47 z m -5.778,41.43 c 8.563,10.07 22.879,12.46 34.735,9.2 7.238,-1.97 10.59,-10.43 10.426,-19.92 -0.137,-5.37 -3.829,-9.28 -7.141,-10.64 -8.43,-3.42 -18.168,-5.96 -27.367,-4.84 -11.344,1.4 -18.219,17.26 -10.653,26.2 z m 1.36,45.1 c 10.527,4.29 30.144,8.14 33.453,-6.9 4.457,-20.02 -19.172,-23.28 -31.797,-19.8 -9.668,2.65 -11.504,22.72 -1.656,26.7 z m 75.726,33.09 c 7.871,-4.47 9.524,-17.08 4.735,-24.39 -6.367,-9.67 -28.137,-15.28 -39.848,-6.81 -6.68,4.85 -10.277,24.72 3.41,29.49 10.934,3.83 21.414,7.54 31.703,1.71 z m -11.156,14.38 c -8.93,-5.52 -21.656,-7.72 -30.098,-3.02 -7.343,4.01 -7.058,14.75 -3.417,20.52 5.98,9.62 20.855,10.66 31.132,7.64 8.864,-2.57 12.184,-19.04 2.383,-25.14 z m -72.281,15.68 c 0.902,2.86 2.176,3.68 3.949,4.55 7.508,3.58 15.75,4.54 22.938,-0.08 5.179,-3.35 4.726,-11.1 0.886,-15.11 -5.621,-5.91 -17.047,-6.15 -24.359,-2.31 -4.727,2.46 -4.945,8.29 -3.414,12.95 z m 2.398,-31.35 c 3.321,9.49 15.149,8.96 24.106,7.8 11.019,-1.44 13.226,-15.56 9.312,-21.5 -5.41,-8.2 -17.758,-6.63 -27.582,-5.38 -7.996,1.02 -8.468,11.61 -5.836,19.08 z m 155.51,-285.2 c 2.71,-10.71 0,-20.89 -9.53,-24.3 -12.253,-4.32 -28.816,-10.65 -38.609,-4.05 -11.199,7.51 -16.589,28.81 -3.722,37.16 15.199,9.94 45.441,16.45 51.861,-8.81 z m -16.51,33.3 c -8.234,-9.35 -21.668,-9.04 -34.855,-12.91 -5.094,-1.47 -11.133,3.02 -13.781,7.68 -4.875,8.7 -9.758,20.36 -0.418,28.77 7.734,7.05 18.281,6.45 27.754,9.28 4.25,1.28 9.46,2.77 14.621,-0.72 10.679,-7.29 14.839,-22.91 6.679,-32.1 z m 87.3,140.14 c 2.33,-6.8 5.45,-11.79 2.8,-18.57 -3.14,-8.33 -11.21,-9.46 -18.79,-12.21 -7.07,-2.56 -18.86,-5.8 -24.78,0.4 -6.81,7.04 -9.55,21.39 -1.41,27.54 10.56,7.86 36.6,18.71 42.18,2.84 z m 143.3,61.19 c 6.23,25.39 13.96,51.14 15.89,77.97 2.86,40.07 -5.8,81.73 -31.5,112.08 2.54,-13.09 5.88,-24.15 7.64,-37.88 2.09,-16.59 -0.26,-35.07 -4.53,-51.77 -3.25,-12.64 -8.93,-24.93 -14.59,-36.67 -6.66,-13.91 -16.63,-29.04 -26.55,-41.45 -27.81,-34.58 -71.14,-102.07 -71.14,-102.07 0,0 -3.64,0.26 -5.79,0.26 -0.51,8.41 19.44,37.22 29.51,53.34 22.09,35.36 38.82,54.38 58.05,85.04 12.03,19.32 21.23,42.84 24.18,64.16 5.99,43.43 -17.42,95.47 -51.1,112.79 7.69,-32.44 6.89,-78.17 -10.38,-97.4 -32.69,-36.43 -52.13,-63.69 -75.46,-110.39 -0.66,-1.25 -6.12,6.3 -10.63,9.23 -5.07,3.36 -2.23,13.37 -4.05,20.11 -1.64,5.73 -4.34,10.15 -5.14,11.15 -6.9,8.46 -13.58,8.99 -15.03,11.53 -1.68,2.86 -0.87,10 -6.9,18.13 -3,4.1 -10.67,7.13 -13.79,10.97 -3.38,4.2 -4.91,17.06 -14.22,22.32 -4.417,2.48 -6.472,10.19 -10.714,13.97 -13.086,11.59 -26.149,9.35 -28.653,10.07 -3.367,0.91 -9.937,9.28 -21.636,11.29 -11.438,1.95 -17.731,-5.68 -23.668,-2.92 -14.891,6.89 -29.157,7.45 -44.981,-10.18 -4.75,-5.25 -12.965,-0.34 -23.211,-8.19 -9,-6.85 -9.168,-13.19 -13.75,-14.06 -8.609,-1.61 -15.031,-8.5 -18.351,-16.02 -1.723,-3.87 -3.016,-11.7 -4.024,-16.86 -1.41,-7.13 -5.011,-13.69 -5.082,-18.93 -0.082,-7.28 2.215,-11.22 1.575,-14.47 -1.063,-4.71 -4.879,-9.03 -5.344,-13.44 -0.348,-2.5 -0.559,-9.16 1.261,-12.91 2.29,-4.62 -1.609,-8.64 -3.632,-13.56 -1.938,-4.58 -3.973,-12.42 -3.352,-17.95 0.82,-7.59 5.164,-10.37 1.785,-16.35 -5.535,-9.72 -12.531,-24.88 -0.265,-44.25 2.254,-3.54 -5.137,-10.43 -5.551,-20.54 -0.473,-11 6.172,-19.12 7.984,-24 0.344,-1.75 -2.922,-1.66 -3.039,-3.53 -29.222,30.9 -55.062,59.39 -88.949,86.22 -20.703,16.36 -41.176,30.12 -64.113,42.4 -61.289,32.87 -132.492,54.86 -196.992,46.82 24.289,-19.55 54.941,-33.5 79.89,-55.71 23.641,-21.06 45.09,-39.04 66.621,-61.41 33.797,-35.11 61.258,-70.7 89.871,-112.01 8.496,-12.23 14.09,-20.41 22.012,-33.17 7.977,-12.76 16.84,-26.31 24.102,-38.96 36.617,-63.58 66.617,-122.44 96.98,-187.59 8.426,-18.01 15.504,-36.87 23.762,-54.78 2.211,-4.86 5.375,-1.25 7.609,0 10.981,6.35 22.649,11.66 34.051,17.04 9.098,4.18 17.379,7.06 25.508,10.18 20.543,7.83 40.035,12.08 61.551,16.55 35.915,7.52 100.435,5.97 100.435,5.97 l 122.34,0.04 c 0.8,0 1.62,0 3.34,0 -1.27,35.07 -9.61,69.15 -11.64,104.32 -1.54,28.5 -0.59,56.04 0.41,84.59 2.73,77.36 14.1,160.4 31.39,230.88" /><path
             id="path54"
             style="fill:#ffffff;fill-opacity:1;fill-rule:nonzero;stroke:none"
             d="m 395.141,2295.89 c -23.871,-23.8 -30.993,-32.57 -44.911,-58.88 -8.199,-15.47 -18.609,-35.33 -21.578,-60.93 49.051,18.67 89.075,56.78 125.235,98.87 26.754,31.2 47.504,72.6 73.886,103.42 -46.468,-15.58 -95.503,-45.51 -132.632,-82.48" /><path
             id="path56"
             style="fill:#ffffff;fill-opacity:1;fill-rule:nonzero;stroke:none"
             d="m 254.719,2228.98 c 18.488,31.24 44.976,65.01 72.437,88.06 -12.718,-28.58 -28.383,-56.88 -33.765,-90.67 -10.676,-67.27 -20.75,-114.39 -31.911,-175.79 30.508,21.76 62.684,55.95 95.036,79.81 24.992,18.37 50.046,30.64 75.754,48.31 15.281,10.54 25.234,24.08 37.945,36.76 -15.141,-63.84 -71.16,-128.27 -111.274,-158.31 -50.386,-37.79 -68.449,-43.81 -149.421,-126.15 -10.282,101.67 -8.45,207.33 45.199,297.98" /><path
             id="path58"
             style="fill:#ffffff;fill-opacity:1;fill-rule:nonzero;stroke:none"
             d="m 89.5273,1891.32 c 3.7696,52.8 10.1016,95.02 22.9297,146.52 8.984,35.97 28.34,89.51 56.242,111.47 -3.418,-13.04 -5.215,-32.6 -6.531,-45.79 -5.469,-54.4 4.945,-117.57 6.187,-171.91 0.622,-26.72 0.383,-47.31 -3.613,-72.41 -4.14,-26.33 -0.687,-58.62 -0.687,-58.62 0,0 14.422,16.47 27.3,36.99 28.149,44.7 37.161,57.97 59.836,82.19 28.133,30.05 59.598,57.88 95.125,82.53 -4.285,-16.7 -22.425,-49.17 -29.921,-62.22 -10.004,-17.45 -14.543,-33.32 -38.215,-72.85 -33.313,-55.55 -48.153,-63.04 -85.137,-122.45 -8.008,-12.92 -40.852,-62.06 -48.809,-77.08 -17.324,35.86 -23.863,67.19 -45.1168,125.56 -13.3555,36.68 -11.3594,73.36 -9.5899,98.07" /><path
             id="path60"
             style="fill:#ffffff;fill-opacity:1;fill-rule:nonzero;stroke:none"
             d="m 38.0938,1616.65 c -20.086,52.08 -29.28911,100.4 -36.09771,155.23 -4.16015,33.55 -2.226559,78.26 9.74611,110.52 3.1406,-7.87 9.5469,-27.86 10.414,-30.86 8.9102,-29.96 12.6329,-44.35 25.086,-73.25 9.5195,-22.16 21.164,-39.83 33.625,-61.73 11.332,-19.99 20.8908,-46.31 29.0898,-66.45 26.371,-64.57 28.32,-125.02 38.41,-131.62 7.258,15.54 9.531,30.42 10.344,37.75 7.844,71.45 17.25,136.39 107.227,220.6 8.257,-25.07 4.074,-71.28 -0.887,-96.03 -10.758,-54.12 -19.449,-80.11 -43.281,-132.56 -12.598,-27.62 -29.422,-68.27 -34.032,-81.73 -12.078,-35.06 -16.218,-53.46 -23.816,-74.19 -42.481,70.78 -94.7618,143.87 -125.8282,224.32" /><path
             id="path62"
             style="fill:#ffffff;fill-opacity:1;fill-rule:nonzero;stroke:none"
             d="m 108.125,1291.04 c -30.2422,42.1 -41.2656,63.25 -60.9492,108.07 -16.5274,37.59 -21.2813,51.53 -30.961,93.63 -5.289,22.95 -8.2773,43.77 -4.1679,57.34 23.6758,-42.87 39.8398,-90.85 70.8086,-126.41 24.5895,-28.21 48.2775,-52.23 67.8245,-76.04 29.988,-36.58 53.601,-71.21 82.382,-109.3 2.426,19.09 3.364,38.43 -0.921,69.71 -5.856,42.86 -2.246,78 5.238,119.49 9.484,52.66 16.445,78.72 34.711,131.99 22.348,-43.83 22.262,-94.54 27.871,-141.03 10.828,-90.2 -17.387,-197.76 -22.941,-242.6 -1.485,-11.81 0.562,-40.96 1.16,-52.32 -42.2,33.23 -79.742,66.79 -116.141,103.29 -16.586,16.54 -39.344,43.95 -53.914,64.18" /><path
             id="path64"
             style="fill:#ffffff;fill-opacity:1;fill-rule:nonzero;stroke:none"
             d="m 268.105,960.262 c -19.214,13.84 -70.843,53.298 -95.289,84.348 -35.597,45.21 -43.437,64.58 -66.921,116.59 -2.875,6.34 -16.1684,35.78 -17.2505,55.78 76.9415,-92.91 145.8285,-106.74 219.2265,-183.84 26.934,-28.24 54.516,-54.831 69.07,-68.16 11.172,-10.281 25.047,-13.39 25.047,-13.39 0,0 -1.445,19.801 -8.691,33.578 -48.965,93.592 -58.207,191.442 -50.781,296.452 22.351,-27.67 29.402,-46.15 43.589,-72.91 15.426,-29.15 23.293,-47.17 30.504,-65.11 41.903,-104.29 52.805,-224.748 78.696,-285.37 -79.914,26.918 -142.844,41.309 -227.2,102.032" /><path
             id="path66"
             style="fill:#ffffff;fill-opacity:1;fill-rule:nonzero;stroke:none"
             d="m 595.828,714.16 c -21.613,-1.449 -63.992,-1.32 -86.586,2.36 -114.394,18.308 -220.726,101.21 -274.215,192.269 48.496,-29.59 83.563,-49.34 126.211,-64.109 37.985,-13.121 74.012,-17.012 137.418,-35.02 38.262,-10.808 76.145,-26.121 89.453,-31.101 42.418,-15.797 60.282,-11.918 60.282,-11.918 0,0 0,6.449 -15.848,23.73 -31.574,34.457 -43.141,42.699 -69.121,69.188 -8.527,8.75 -28.074,38.48 -37.996,58.25 -28.071,55.882 -31.192,100.671 -56.828,162.061 93.554,-54.94 139.129,-130.749 188.59,-226.319 15.21,-29.27 35.777,-63.082 54.57,-81.66 12.637,-12.469 30.445,-31.422 30.445,-31.422 0,0 -13.047,-3.071 -53.668,-9.071 -18.223,-2.668 -57.051,-14.757 -92.707,-17.238" /><path
             id="path68"
             style="fill:#ffffff;fill-opacity:1;fill-rule:nonzero;stroke:none"
             d="m 1049.31,706.91 c 49.39,-8.082 93.28,-20.082 138.19,-35.488 12.08,-4.152 30.45,-13.281 43.17,-19.731 31.83,-16.203 50.16,-26.722 77.52,-45.531 44.06,-30.351 91.4,-63.051 134.12,-112.672 0.92,-0.976 7.81,-8.359 3.22,-11.957 -8.38,-6.562 -29,-15.902 -35.86,-9.851 -39.08,34.761 -37.11,45.89 -84.47,88.781 -12.15,10.937 -30.49,26.289 -52.4,41.277 -21.37,14.633 -47.21,30.614 -71.21,42.453 -21.84,10.739 -55.43,13.95 -74.3,13.95 l 0.26,-0.141 c -8.57,0.328 -57.84,0.609 -69.24,-0.129 -96.81,-6.641 -92.072,-15.301 -147.888,-30.422 -45.91,-12.488 -95.164,-21.379 -144.055,-27.937 -50.09,-6.813 -94.906,-7.633 -141.859,-2.84 -63.649,6.558 -133.274,24.297 -185.238,57.789 47.511,-0.801 96.3,-9.93 143.566,-6.313 19.891,1.532 52.16,4.532 74.012,11.274 43.418,13.328 68.328,18.527 114.308,31.348 39.512,10.992 79.348,14.8 120.606,19.152 57.105,6.109 109.998,4.726 157.548,-3.012" /><path
             id="path70"
             style="fill:#ffffff;fill-opacity:1;fill-rule:nonzero;stroke:none"
             d="m 1934.53,2295.89 c 23.87,-23.8 31.02,-32.57 44.94,-58.88 8.2,-15.47 18.61,-35.33 21.58,-60.93 -49.09,18.67 -89.07,56.78 -125.26,98.87 -26.78,31.2 -47.5,72.6 -73.87,103.42 46.46,-15.58 95.5,-45.51 132.61,-82.48" /><path
             id="path72"
             style="fill:#ffffff;fill-opacity:1;fill-rule:nonzero;stroke:none"
             d="m 2074.99,2228.98 c -18.52,31.24 -44.99,65.01 -72.45,88.06 12.85,-30.75 31.57,-69.05 33.76,-90.67 6.83,-67.74 20.75,-114.39 31.92,-175.79 -30.5,21.76 -62.72,55.95 -95.06,79.81 -24.94,18.37 -50.02,30.64 -75.7,48.31 -15.32,10.54 -25.27,24.08 -37.98,36.76 15.14,-63.84 71.16,-128.27 111.28,-158.31 50.37,-37.79 68.43,-43.81 149.37,-126.15 10.28,101.67 8.46,207.33 -45.14,297.98" /><path
             id="path74"
             style="fill:#ffffff;fill-opacity:1;fill-rule:nonzero;stroke:none"
             d="m 2240.17,1891.32 c -3.81,52.8 -10.08,95.02 -22.93,146.52 -8.98,35.97 -28.34,89.51 -56.29,111.47 3.46,-13.04 5.23,-32.6 6.56,-45.79 5.52,-54.4 -4.88,-117.57 -6.17,-171.91 -0.61,-26.72 -0.39,-47.31 3.59,-72.41 4.15,-26.33 0.72,-58.62 0.72,-58.62 0,0 -14.42,16.47 -27.33,36.99 -28.09,44.7 -37.11,57.97 -59.85,82.19 -28.1,30.05 -59.6,57.88 -95.14,82.53 4.34,-16.7 22.47,-49.17 29.97,-62.22 10.04,-17.45 14.53,-33.32 38.22,-72.85 33.3,-55.55 48.14,-63.04 85.1,-122.45 8,-12.92 40.89,-62.06 48.84,-77.08 17.35,35.86 23.86,67.19 45.12,125.56 13.39,36.68 11.39,73.36 9.59,98.07" /><path
             id="path76"
             style="fill:#ffffff;fill-opacity:1;fill-rule:nonzero;stroke:none"
             d="m 2291.6,1616.65 c 20.07,52.08 29.26,100.4 36.11,155.23 4.16,33.55 2.2,78.26 -9.75,110.52 -3.14,-7.87 -9.53,-27.86 -10.42,-30.86 -8.93,-29.96 -12.63,-44.35 -25.05,-73.25 -9.54,-22.16 -21.24,-39.83 -33.67,-61.73 -11.32,-19.99 -20.88,-46.31 -29.12,-66.45 -26.34,-64.57 -28.29,-125.02 -38.38,-131.62 -7.28,15.54 -9.54,30.42 -10.33,37.75 -7.85,71.45 -17.26,136.39 -107.23,220.6 -8.28,-25.07 -4.08,-71.28 0.84,-96.03 10.81,-54.12 19.54,-80.11 43.32,-132.56 12.6,-27.62 29.43,-68.27 34.07,-81.73 12.01,-35.06 16.17,-53.46 23.83,-74.19 42.44,70.78 94.72,143.87 125.78,224.32" /><path
             id="path78"
             style="fill:#ffffff;fill-opacity:1;fill-rule:nonzero;stroke:none"
             d="m 2221.58,1291.04 c 30.27,42.1 41.26,63.25 60.93,108.07 16.53,37.59 21.26,51.53 30.98,93.63 5.29,22.95 8.26,43.77 4.14,57.34 -23.61,-42.87 -39.86,-90.85 -70.83,-126.41 -24.54,-28.21 -48.23,-52.23 -67.78,-76.04 -29.96,-36.58 -53.64,-71.21 -82.38,-109.3 -2.41,19.09 -3.38,38.43 0.87,69.71 5.9,42.86 2.29,78 -5.19,119.49 -9.49,52.66 -16.45,78.72 -34.71,131.99 -22.32,-43.83 -22.26,-94.54 -27.88,-141.03 -10.86,-90.2 17.43,-197.76 22.98,-242.6 1.45,-11.81 -0.6,-40.96 -1.19,-52.32 42.2,33.23 79.74,66.79 116.13,103.29 16.59,16.54 39.3,43.95 53.93,64.18" /><path
             id="path80"
             style="fill:#ffffff;fill-opacity:1;fill-rule:nonzero;stroke:none"
             d="m 2061.61,960.262 c 19.19,13.84 70.83,53.298 95.26,84.348 35.61,45.21 43.46,64.58 66.93,116.59 2.84,6.34 16.18,35.78 17.26,55.78 -76.94,-92.91 -145.84,-106.74 -219.24,-183.84 -26.92,-28.24 -54.48,-54.831 -69.05,-68.16 -11.17,-10.281 -25.04,-13.39 -25.04,-13.39 0,0 1.43,19.801 8.65,33.578 48.99,93.592 58.23,191.442 50.76,296.452 -22.27,-27.67 -29.37,-46.15 -43.54,-72.91 -15.4,-29.15 -23.29,-47.17 -30.48,-65.11 -41.93,-104.29 -52.88,-224.748 -78.76,-285.37 79.97,26.918 142.88,41.309 227.25,102.032" /><path
             id="path82"
             style="fill:#ffffff;fill-opacity:1;fill-rule:nonzero;stroke:none"
             d="m 1733.85,714.16 c 21.66,-1.449 64.01,-1.32 86.62,2.36 114.41,18.308 220.71,101.21 274.2,192.269 -48.54,-29.59 -83.6,-49.34 -126.22,-64.109 -38.01,-13.121 -74,-17.012 -137.39,-35.02 -38.3,-10.808 -76.17,-26.121 -89.49,-31.101 -42.4,-15.797 -60.28,-11.918 -60.28,-11.918 0,0 0,6.449 15.84,23.73 31.59,34.457 43.17,42.699 69.11,69.188 8.55,8.75 28.1,38.48 38.02,58.25 28.07,55.882 31.19,100.671 56.87,162.061 -93.57,-54.94 -139.23,-130.749 -188.66,-226.319 -15.18,-29.27 -35.75,-63.082 -54.52,-81.66 -12.61,-12.469 -30.46,-31.422 -30.46,-31.422 0,0 13.04,-3.071 53.71,-9.071 18.18,-2.668 56.99,-14.757 92.65,-17.238" /><path
             id="path84"
             style="fill:#ffffff;fill-opacity:1;fill-rule:nonzero;stroke:none"
             d="m 1280.38,706.91 c -49.38,-8.082 -93.23,-20.082 -138.19,-35.488 -12.12,-4.152 -30.45,-13.281 -43.17,-19.731 -31.84,-16.203 -50.12,-26.722 -77.51,-45.531 -44.108,-30.351 -91.377,-63.051 -134.127,-112.672 -0.922,-0.976 -7.856,-8.359 -3.223,-11.957 8.391,-6.562 29.024,-15.902 35.817,-9.851 39.101,34.761 37.113,45.89 84.523,88.781 12.09,10.937 30.43,26.289 52.39,41.277 21.42,14.633 47.18,30.614 71.22,42.453 21.78,10.739 55.45,13.95 74.28,13.95 L 1202.11,658 c 8.6,0.328 57.84,0.609 69.28,-0.129 96.82,-6.641 92.05,-15.301 147.85,-30.422 45.94,-12.488 95.18,-21.379 144.09,-27.937 50.05,-6.813 94.9,-7.633 141.85,-2.84 63.65,6.558 133.26,24.297 185.21,57.789 -47.49,-0.801 -96.24,-9.93 -143.57,-6.313 -19.9,1.532 -52.13,4.532 -73.98,11.274 -43.42,13.328 -68.34,18.527 -114.3,31.348 -39.51,10.992 -79.36,14.8 -120.59,19.152 -57.12,6.109 -110.02,4.726 -157.57,-3.012" /><path
             id="path86"
             style="fill:#ffffff;fill-opacity:1;fill-rule:nonzero;stroke:none"
             d="m 1103.65,2835.37 -86.96,-322.88 h -92.311 l -57.738,210.33 -56.453,-210.33 h -92.086 l -86.95,322.88 h 86.907 l 49.531,-222.26 59.582,222.26 h 83.055 l 56.527,-222.26 52.006,222.26 h 84.89" /><path
             id="path88"
             style="fill:#ffffff;fill-opacity:1;fill-rule:nonzero;stroke:none"
             d="m 1390.51,2772.92 h -148.53 v -60.07 h 137.69 v -62.45 h -137.69 v -137.91 h -82.82 v 322.88 h 231.35 v -62.45" /><path
             id="path90"
             style="fill:#ffffff;fill-opacity:1;fill-rule:nonzero;stroke:none"
             d="m 1628.38,2731.61 c 0,9.08 -2.46,16.9 -7.36,23.46 -4.92,6.57 -10.62,11.14 -17.13,13.74 -8.67,3.46 -17.13,5.37 -25.37,5.73 -8.24,0.36 -19.24,0.55 -32.97,0.55 h -14.3 v -96.5 h 23.85 c 14.16,0 25.84,0.87 35.02,2.6 9.18,1.73 16.88,5.2 23.09,10.38 5.35,4.61 9.22,10.14 11.6,16.56 2.38,6.41 3.57,14.24 3.57,23.48 z m 86.1,1.85 c 0,-14.46 -2.54,-28.59 -7.6,-42.4 -5.06,-13.81 -12.29,-25.41 -21.68,-34.79 -12.87,-12.73 -27.21,-22.34 -43.05,-28.85 -15.82,-6.51 -35.52,-9.76 -59.08,-9.76 h -51.82 v -105.17 h -83.28 v 322.88 h 137.05 c 20.53,0 37.84,-1.77 51.94,-5.31 14.08,-3.55 26.56,-8.86 37.4,-15.95 13.01,-8.52 22.95,-19.43 29.82,-32.73 6.86,-13.31 10.3,-29.28 10.3,-47.92" /><path
             id="path92"
             style="fill:#ffffff;fill-opacity:1;fill-rule:nonzero;stroke:none"
             d="M 555.398,259.461 496.992,70.9883 H 432.859 L 394.453,198.031 356.52,70.9883 H 291.742 L 233.844,259.461 h 63.379 l 32.351,-129.902 40.207,129.902 h 53.539 l 38.235,-129.902 31.82,129.902 h 62.023" /><path
             id="path94"
             style="fill:#ffffff;fill-opacity:1;fill-rule:nonzero;stroke:none"
             d="m 696.477,287.828 h -4.52 c -2.68,0.781 -6.164,1.684 -10.457,2.684 -4.297,1.008 -8.902,1.508 -13.809,1.508 -11.828,0 -19.836,-2.122 -24.015,-6.379 -4.184,-4.25 -6.274,-12.469 -6.274,-24.672 v -1.508 h 46.485 V 218.512 H 639.414 V 70.9883 H 578.828 V 218.512 h -25.844 v 40.949 h 25.844 v 5.199 c 0,23.051 6.129,40.328 18.379,51.86 12.25,11.519 30.797,17.289 55.637,17.289 8.949,0 17.058,-0.309 24.336,-0.93 7.269,-0.609 13.699,-1.418 19.297,-2.43 v -42.621" /><path
             id="path96"
             style="fill:#ffffff;fill-opacity:1;fill-rule:nonzero;stroke:none"
             d="m 836.711,166.57 c 0,18.321 -3.125,31.61 -9.375,39.879 -6.258,8.262 -16.137,12.391 -29.641,12.391 -5.691,0 -11.558,-0.86 -17.582,-2.602 -6.027,-1.718 -11.777,-4.199 -17.246,-7.449 v -94.668 c 4.02,-1.57 8.317,-2.57 12.895,-3.019 4.574,-0.454 9.097,-0.672 13.558,-0.672 15.961,0 27.852,4.66 35.668,13.992 7.817,9.316 11.723,23.379 11.723,42.148 z m 62.266,1.258 c 0,-15.558 -2.379,-29.707 -7.125,-42.457 -4.75,-12.762 -10.985,-23.281 -18.692,-31.5624 -8.043,-8.7188 -17.152,-15.3281 -27.32,-19.7969 -10.172,-4.4726 -21.067,-6.7109 -32.692,-6.7109 -10.726,0 -19.832,1.1484 -27.32,3.4375 -7.488,2.2929 -15.144,5.5 -22.961,9.6406 V 1.85156 H 702.281 V 259.461 h 60.586 v -19.629 c 9.274,7.379 18.742,13.367 28.406,17.949 9.668,4.59 20.817,6.879 33.446,6.879 23.465,0 41.707,-8.609 54.73,-25.84 13.012,-17.23 19.528,-40.898 19.528,-70.992" /><path
             id="path98"
             style="fill:#ffffff;fill-opacity:1;fill-rule:nonzero;stroke:none"
             d="m 927.605,70.9883 h 62.7695 v 65.9609 H 927.605 Z" /><path
             id="path100"
             style="fill:#ffffff;fill-opacity:1;fill-rule:nonzero;stroke:none"
             d="m 1150.75,119.32 c 3.91,4.809 6.85,10.61 8.82,17.371 1.95,6.77 2.93,16.149 2.93,28.118 0,11.07 -1.01,20.363 -3.02,27.863 -2.01,7.488 -4.82,13.476 -8.39,17.949 -3.59,4.59 -7.89,7.828 -12.93,9.738 -5.03,1.903 -10.46,2.852 -16.28,2.852 -5.82,0 -10.99,-0.781 -15.52,-2.352 -4.53,-1.57 -8.87,-4.699 -13.01,-9.398 -3.69,-4.371 -6.63,-10.352 -8.81,-17.961 -2.18,-7.609 -3.27,-17.172 -3.27,-28.691 0,-10.297 0.95,-19.219 2.85,-26.77 1.91,-7.559 4.7,-13.617 8.39,-18.207 3.58,-4.371 7.86,-7.551 12.84,-9.57 4.98,-2.012 10.66,-3.024 17.04,-3.024 5.48,0 10.71,0.934 15.69,2.774 4.97,1.847 9.2,4.949 12.67,9.308 z m 74.35,45.821 c 0,-31 -9.04,-55.411 -27.11,-73.2504 -18.06,-17.8515 -43.43,-26.7695 -76.11,-26.7695 -32.67,0 -58.04,8.918 -76.1,26.7695 -18.07,17.8394 -27.11,42.2504 -27.11,73.2504 0,31.218 9.09,55.718 27.27,73.507 18.18,17.793 43.49,26.692 75.94,26.692 32.9,0 58.32,-8.961 76.29,-26.86 17.95,-17.902 26.93,-42.351 26.93,-73.339" /><path
             id="path102"
             style="fill:#ffffff;fill-opacity:1;fill-rule:nonzero;stroke:none"
             d="m 1387.84,201.898 h -5.37 c -2.56,0.891 -6.7,1.563 -12.39,2.012 -5.7,0.449 -10.45,0.668 -14.24,0.668 -8.59,0 -16.19,-0.558 -22.77,-1.68 -6.58,-1.117 -13.67,-3.019 -21.27,-5.699 V 70.9883 h -60.58 V 259.461 h 60.58 V 231.77 c 13.28,11.41 24.85,18.992 34.67,22.742 9.82,3.75 18.87,5.617 27.13,5.617 2.11,0 4.51,-0.059 7.19,-0.168 2.69,-0.109 5.04,-0.281 7.05,-0.5 v -57.563" /><path
             id="path104"
             style="fill:#ffffff;fill-opacity:1;fill-rule:nonzero;stroke:none"
             d="m 1527.56,130.398 v 85.422 c -3.45,1.461 -7.71,2.598 -12.73,3.442 -5.02,0.84 -9.53,1.258 -13.56,1.258 -15.85,0 -27.75,-4.559 -35.66,-13.668 -7.93,-9.122 -11.89,-21.852 -11.89,-38.184 0,-18.129 3.37,-30.777 10.13,-37.93 6.74,-7.156 16.76,-10.75 30.06,-10.75 6.02,0 11.93,0.953 17.74,2.864 5.82,1.898 11.11,4.418 15.91,7.546 z m 60.59,-37.7574 c 0,-17.6797 -2.52,-32.5625 -7.56,-44.6406 -5.04,-12.0898 -12.09,-21.5391 -21.15,-28.3711 -9.06,-6.9297 -20,-11.93749 -32.79,-15.01952 C 1513.83,1.53906 1499.36,0 1483.25,0 c -13.09,0 -25.98,0.789062 -38.67,2.35156 -12.72,1.57032 -23.7,3.45703 -32.99,5.69922 V 55.2188 h 7.38 c 7.36,-2.9102 16.37,-5.5704 26.97,-7.9805 10.63,-2.3985 20.12,-3.5977 28.5,-3.5977 11.17,0 20.25,1.0274 27.23,3.0977 6.99,2.0703 12.32,5.0117 16.01,8.8125 3.46,3.5781 5.98,8.1601 7.54,13.7578 1.56,5.6016 2.34,12.3125 2.34,20.1406 v 3.5196 c -7.26,-5.9297 -15.31,-10.6172 -24.14,-14.0899 -8.83,-3.4805 -18.65,-5.1992 -29.51,-5.1992 -26.37,0 -46.7,7.9414 -60.99,23.8203 -14.32,15.891 -21.47,40.059 -21.47,72.5 0,15.559 2.19,28.988 6.54,40.289 4.36,11.301 10.51,21.141 18.44,29.543 7.36,7.816 16.45,13.918 27.23,18.289 10.78,4.359 21.83,6.539 33.1,6.539 10.18,0 19.44,-1.199 27.76,-3.601 8.32,-2.411 15.9,-5.739 22.71,-9.989 l 2.19,8.391 h 58.73 V 92.6406" /><path
             id="path106"
             style="fill:#ffffff;fill-opacity:1;fill-rule:nonzero;stroke:none"
             d="M 1804.75,332.129 1671.65,16.6211 h -51.51 l 132.54,315.5079 h 52.07" /><path
             id="path108"
             style="fill:#ffffff;fill-opacity:1;fill-rule:nonzero;stroke:none"
             d="m 1908.4,70.9883 h -60.58 V 259.461 h 60.58 z m 1.67,215.3207 h -63.93 v 45.82 h 63.93 v -45.82" /><path
             id="path110"
             style="fill:#ffffff;fill-opacity:1;fill-rule:nonzero;stroke:none"
             d="m 2068.61,72.6484 c -6.5,-1.6679 -13.37,-2.9804 -20.65,-3.9375 -7.27,-0.9297 -16.17,-1.4101 -26.69,-1.4101 -23.49,0 -40.97,4.75 -52.44,14.2695 -11.47,9.5 -17.2,25.7817 -17.2,48.8277 v 88.114 h -24.84 v 40.949 h 24.84 v 53.867 h 60.58 v -53.867 h 56.4 v -40.949 h -56.4 v -66.891 c 0,-6.621 0.06,-12.391 0.18,-17.32 0.11,-4.93 0.99,-9.352 2.67,-13.281 1.57,-3.93 4.32,-7.032 8.28,-9.329 3.96,-2.293 9.74,-3.441 17.32,-3.441 3.12,0 7.23,0.672 12.29,2.012 5.08,1.347 8.63,2.578 10.64,3.687 h 5.02 V 72.6484" /></g></g></g></g></svg>