<?xml version="1.0" encoding="UTF-8" standalone="no"?>
<svg
   xmlns:dc="http://purl.org/dc/elements/1.1/"
   xmlns:cc="http://creativecommons.org/ns#"
   xmlns:rdf="http://www.w3.org/1999/02/22-rdf-syntax-ns#"
   xmlns:svg="http://www.w3.org/2000/svg"
   xmlns="http://www.w3.org/2000/svg"
   viewBox="0 0 1775.8533 378.05334"
   height="378.05334"
   width="1775.8533"
   xml:space="preserve"
   id="svg2"
   version="1.1"><metadata
     id="metadata8"><rdf:RDF><cc:Work
         rdf:about=""><dc:format>image/svg+xml</dc:format><dc:type
           rdf:resource="http://purl.org/dc/dcmitype/StillImage" /></cc:Work></rdf:RDF></metadata><defs
     id="defs6"><clipPath
       id="clipPath20"
       clipPathUnits="userSpaceOnUse"><path
         id="path18"
         d="M 0,0 H 13318.9 V 2835 H 0 Z" /></clipPath></defs><g
     transform="matrix(1.3333333,0,0,-1.3333333,0,378.05333)"
     id="g10"><g
       transform="scale(0.1)"
       id="g12"><g
         id="g14"><g
           clip-path="url(#clipPath20)"
           id="g16"><path
             id="path22"
             style="fill:#ffffff;fill-opacity:1;fill-rule:nonzero;stroke:none"
             d="m 2831.01,1474.87 c 0,12.48 -3.38,23.22 -10.13,32.24 -6.75,9.01 -14.59,15.31 -23.53,18.87 -11.91,4.76 -23.53,7.38 -34.85,7.87 -11.31,0.5 -26.41,0.75 -45.27,0.75 h -19.66 v -132.55 h 32.77 c 19.45,0 35.49,1.19 48.1,3.57 12.61,2.38 23.18,7.13 31.72,14.26 7.34,6.34 12.66,13.92 15.94,22.74 3.27,8.81 4.91,19.56 4.91,32.25 z m 118.25,2.54 c 0,-19.86 -3.48,-39.27 -10.43,-58.23 -6.95,-18.96 -16.88,-34.9 -29.78,-47.8 -17.68,-17.48 -37.38,-30.68 -59.12,-39.62 -21.75,-8.93 -48.81,-13.41 -81.17,-13.41 h -71.19 V 1173.9 H 2583.2 v 443.5 h 188.24 c 28.19,0 51.97,-2.43 71.34,-7.3 19.35,-4.86 36.48,-12.16 51.38,-21.89 17.87,-11.72 31.52,-26.71 40.95,-44.97 9.43,-18.28 14.15,-40.21 14.15,-65.83" /><path
             id="path24"
             style="fill:#ffffff;fill-opacity:1;fill-rule:nonzero;stroke:none"
             d="m 3250.3,1406.22 h -9.51 c -4.56,1.59 -11.89,2.78 -22,3.58 -10.1,0.79 -18.52,1.19 -25.25,1.19 -15.26,0 -28.74,-1 -40.42,-2.98 -11.69,-1.99 -24.28,-5.36 -37.75,-10.13 V 1173.9 h -107.52 v 334.49 h 107.52 v -49.15 c 23.58,20.26 44.08,33.71 61.51,40.36 17.44,6.65 33.49,9.98 48.15,9.98 3.77,0 8.03,-0.1 12.79,-0.3 4.75,-0.2 8.91,-0.5 12.48,-0.89 v -102.17" /><path
             id="path26"
             style="fill:#ffffff;fill-opacity:1;fill-rule:nonzero;stroke:none"
             d="m 3504.58,1259.68 c 6.94,8.54 12.16,18.81 15.63,30.83 3.48,12.01 5.21,28.64 5.21,49.89 0,19.65 -1.78,36.14 -5.36,49.44 -3.57,13.3 -8.54,23.93 -14.89,31.87 -6.36,8.14 -14,13.9 -22.93,17.28 -8.94,3.37 -18.57,5.06 -28.9,5.06 -10.32,0 -19.5,-1.39 -27.55,-4.17 -8.04,-2.78 -15.74,-8.34 -23.08,-16.68 -6.55,-7.74 -11.76,-18.37 -15.64,-31.87 -3.87,-13.5 -5.81,-30.48 -5.81,-50.93 0,-18.27 1.69,-34.11 5.07,-47.51 3.37,-13.4 8.34,-24.18 14.89,-32.31 6.35,-7.75 13.95,-13.41 22.78,-16.98 8.84,-3.58 18.92,-5.36 30.24,-5.36 9.72,0 19.01,1.64 27.85,4.91 8.83,3.28 16.33,8.79 22.49,16.53 z m 131.94,81.31 c 0,-55 -16.03,-98.34 -48.1,-130.01 -32.07,-31.67 -77.1,-47.51 -135.08,-47.51 -57.98,0 -103,15.84 -135.07,47.51 -32.07,31.67 -48.1,75.01 -48.1,130.01 0,55.41 16.13,98.89 48.39,130.46 32.27,31.58 77.2,47.36 134.78,47.36 58.38,0 103.51,-15.89 135.38,-47.65 31.87,-31.78 47.8,-75.17 47.8,-130.17" /><path
             id="path28"
             style="fill:#ffffff;fill-opacity:1;fill-rule:nonzero;stroke:none"
             d="m 3914.63,1279.34 v 151.61 c -6.14,2.57 -13.67,4.61 -22.59,6.1 -8.91,1.49 -16.94,2.24 -24.07,2.24 -28.14,0 -49.23,-8.09 -63.3,-24.28 -14.06,-16.19 -21.1,-38.77 -21.1,-67.76 0,-32.17 6,-54.61 17.98,-67.31 11.99,-12.71 29.77,-19.07 53.35,-19.07 10.69,0 21.19,1.69 31.49,5.06 10.31,3.38 19.72,7.85 28.24,13.41 z m 107.52,-67.02 c 0,-31.37 -4.46,-57.78 -13.4,-79.22 -8.94,-21.45 -21.45,-38.23 -37.53,-50.34 -16.08,-12.32 -35.49,-21.19 -58.23,-26.66 -22.74,-5.46 -48.4,-8.2 -76.99,-8.2 -23.24,0 -46.12,1.4 -68.66,4.18 -22.54,2.78 -42.05,6.16 -58.53,10.12 v 83.7 h 13.09 c 13.09,-5.16 29.05,-9.87 47.89,-14.15 18.83,-4.27 35.68,-6.4 50.56,-6.4 19.82,0 35.93,1.84 48.33,5.51 12.39,3.68 21.86,8.89 28.4,15.64 6.15,6.36 10.61,14.49 13.38,24.42 2.78,9.93 4.17,21.85 4.17,35.74 v 6.26 c -12.89,-10.52 -27.17,-18.86 -42.84,-25.02 -15.67,-6.16 -33.12,-9.23 -52.36,-9.23 -46.8,0 -82.9,14.1 -108.28,42.29 -25.39,28.19 -38.08,71.08 -38.08,128.67 0,27.6 3.87,51.43 11.6,71.49 7.74,20.05 18.64,37.53 32.73,52.42 13.08,13.9 29.2,24.72 48.34,32.46 19.13,7.75 38.72,11.62 58.75,11.62 18.05,0 34.46,-2.13 49.24,-6.41 14.77,-4.26 28.2,-10.17 40.3,-17.72 l 3.89,14.9 h 104.23 v -296.07" /><path
             id="path30"
             style="fill:#ffffff;fill-opacity:1;fill-rule:nonzero;stroke:none"
             d="m 4349.4,1406.22 h -9.5 c -4.56,1.59 -11.89,2.78 -22,3.58 -10.11,0.79 -18.52,1.19 -25.26,1.19 -15.26,0 -28.73,-1 -40.42,-2.98 -11.69,-1.99 -24.28,-5.36 -37.74,-10.13 V 1173.9 h -107.53 v 334.49 h 107.53 v -49.15 c 23.58,20.26 44.08,33.71 61.51,40.36 17.44,6.65 33.49,9.98 48.15,9.98 3.77,0 8.03,-0.1 12.78,-0.3 4.76,-0.2 8.92,-0.5 12.48,-0.89 v -102.17" /><path
             id="path32"
             style="fill:#ffffff;fill-opacity:1;fill-rule:nonzero;stroke:none"
             d="m 4596.24,1261.39 v 69.48 c -14.5,-1.19 -30.19,-2.83 -47.07,-4.9 -16.88,-2.08 -29.68,-4.5 -38.42,-7.27 -10.72,-3.37 -18.91,-8.28 -24.57,-14.7 -5.66,-6.44 -8.49,-14.89 -8.49,-25.38 0,-6.94 0.6,-12.58 1.79,-16.94 1.19,-4.35 4.17,-8.5 8.93,-12.46 4.57,-3.96 10.03,-6.88 16.38,-8.76 6.36,-1.88 16.28,-2.82 29.79,-2.82 10.72,0 21.6,2.18 32.61,6.53 11.03,4.36 20.71,10.09 29.05,17.22 z m 0,-52.04 c -5.77,-4.38 -12.91,-9.64 -21.45,-15.79 -8.54,-6.15 -16.58,-11.03 -24.13,-14.6 -10.52,-4.77 -21.44,-8.28 -32.76,-10.57 -11.32,-2.28 -23.73,-3.43 -37.23,-3.43 -31.77,0 -58.38,9.84 -79.83,29.49 -21.44,19.67 -32.16,44.78 -32.16,75.36 0,24.42 5.46,44.38 16.38,59.87 10.92,15.49 26.4,27.7 46.46,36.63 19.86,8.94 44.48,15.3 73.87,19.06 29.39,3.77 59.87,6.56 91.44,8.34 v 1.79 c 0,18.47 -7.55,31.23 -22.64,38.27 -15.09,7.05 -37.33,10.58 -66.71,10.58 -17.68,0 -36.54,-3.13 -56.6,-9.39 -20.05,-6.25 -34.45,-11.06 -43.18,-14.44 h -9.83 v 80.72 c 11.31,2.98 29.73,6.5 55.25,10.57 25.51,4.07 51.08,6.11 76.69,6.11 60.96,0 105,-9.38 132.1,-28.15 27.11,-18.76 40.66,-48.2 40.66,-88.31 V 1173.9 h -106.33 v 35.45" /><path
             id="path34"
             style="fill:#ffffff;fill-opacity:1;fill-rule:nonzero;stroke:none"
             d="M 5111.43,1410.99 V 1173.9 h -107.52 v 167.09 c 0,16.29 -0.4,30.14 -1.2,41.55 -0.79,11.42 -2.97,20.71 -6.55,27.85 -3.57,7.15 -8.98,12.37 -16.23,15.64 -7.25,3.28 -17.43,4.92 -30.53,4.92 -10.53,0 -20.75,-2.14 -30.68,-6.41 -9.93,-4.27 -18.87,-8.78 -26.81,-13.55 V 1173.9 h -107.52 v 334.49 h 107.52 v -36.94 c 18.45,14.5 36.1,25.81 52.96,33.96 16.85,8.14 35.49,12.21 55.92,12.21 22.02,0 41.45,-4.91 58.31,-14.75 16.85,-9.82 30.04,-24.27 39.56,-43.33 21.41,18.07 42.23,32.27 62.46,42.59 20.22,10.32 40.05,15.49 59.48,15.49 36.09,0 63.5,-10.82 82.24,-32.46 18.73,-21.65 28.11,-52.83 28.11,-93.53 V 1173.9 h -107.53 v 167.09 c 0,16.48 -0.34,30.39 -1.04,41.7 -0.7,11.33 -2.83,20.56 -6.4,27.7 -3.38,7.15 -8.74,12.37 -16.09,15.64 -7.35,3.28 -17.67,4.92 -30.97,4.92 -8.94,0 -17.68,-1.54 -26.21,-4.62 -8.54,-3.08 -18.97,-8.19 -31.28,-15.34" /><path
             id="path36"
             style="fill:#ffffff;fill-opacity:1;fill-rule:nonzero;stroke:none"
             d="M 5740.41,1410.99 V 1173.9 h -107.53 v 167.09 c 0,16.29 -0.4,30.14 -1.19,41.55 -0.8,11.42 -2.98,20.71 -6.55,27.85 -3.58,7.15 -8.99,12.37 -16.23,15.64 -7.25,3.28 -17.43,4.92 -30.54,4.92 -10.52,0 -20.75,-2.14 -30.67,-6.41 -9.94,-4.27 -18.87,-8.78 -26.81,-13.55 V 1173.9 h -107.53 v 334.49 h 107.53 v -36.94 c 18.44,14.5 36.09,25.81 52.95,33.96 16.86,8.14 35.5,12.21 55.93,12.21 22.01,0 41.45,-4.91 58.3,-14.75 16.86,-9.82 30.05,-24.27 39.57,-43.33 21.41,18.07 42.22,32.27 62.45,42.59 20.23,10.32 40.05,15.49 59.49,15.49 36.08,0 63.5,-10.82 82.23,-32.46 18.74,-21.65 28.11,-52.83 28.11,-93.53 V 1173.9 H 5852.4 v 167.09 c 0,16.48 -0.35,30.39 -1.04,41.7 -0.7,11.33 -2.83,20.56 -6.41,27.7 -3.38,7.15 -8.74,12.37 -16.08,15.64 -7.35,3.28 -17.68,4.92 -30.98,4.92 -8.93,0 -17.68,-1.54 -26.21,-4.62 -8.54,-3.08 -18.97,-8.19 -31.27,-15.34" /><path
             id="path38"
             style="fill:#ffffff;fill-opacity:1;fill-rule:nonzero;stroke:none"
             d="m 6245.18,1261.39 v 69.48 c -14.5,-1.19 -30.19,-2.83 -47.06,-4.9 -16.88,-2.08 -29.69,-4.5 -38.43,-7.27 -10.72,-3.37 -18.91,-8.28 -24.57,-14.7 -5.66,-6.44 -8.49,-14.89 -8.49,-25.38 0,-6.94 0.6,-12.58 1.79,-16.94 1.19,-4.35 4.17,-8.5 8.93,-12.46 4.57,-3.96 10.03,-6.88 16.39,-8.76 6.35,-1.88 16.27,-2.82 29.78,-2.82 10.72,0 21.6,2.18 32.61,6.53 11.03,4.36 20.71,10.09 29.05,17.22 z m 0,-52.04 c -5.77,-4.38 -12.91,-9.64 -21.45,-15.79 -8.54,-6.15 -16.58,-11.03 -24.13,-14.6 -10.52,-4.77 -21.44,-8.28 -32.76,-10.57 -11.32,-2.28 -23.73,-3.43 -37.23,-3.43 -31.77,0 -58.38,9.84 -79.82,29.49 -21.45,19.67 -32.17,44.78 -32.17,75.36 0,24.42 5.46,44.38 16.38,59.87 10.92,15.49 26.41,27.7 46.46,36.63 19.86,8.94 44.48,15.3 73.87,19.06 29.39,3.77 59.87,6.56 91.44,8.34 v 1.79 c 0,18.47 -7.55,31.23 -22.64,38.27 -15.09,7.05 -37.33,10.58 -66.71,10.58 -17.68,0 -36.54,-3.13 -56.6,-9.39 -20.05,-6.25 -34.45,-11.06 -43.18,-14.44 h -9.83 v 80.72 c 11.32,2.98 29.73,6.5 55.25,10.57 25.51,4.07 51.08,6.11 76.69,6.11 60.96,0 105,-9.38 132.1,-28.15 27.11,-18.76 40.66,-48.2 40.66,-88.31 V 1173.9 h -106.33 v 35.45" /><path
             id="path40"
             style="fill:#ffffff;fill-opacity:1;fill-rule:nonzero;stroke:none"
             d="m 6864.96,1344.87 -54.57,158.88 -54.57,-158.88 z m 176.5,-170.97 h -118.13 l -30.89,89.65 h -164.12 l -30.88,-89.65 h -115.28 l 163.83,443.5 h 131.64 l 163.83,-443.5" /><path
             id="path42"
             style="fill:#ffffff;fill-opacity:1;fill-rule:nonzero;stroke:none"
             d="m 7082.77,1173.9 h 107.52 v 463.461 h -107.52 z" /><path
             id="path44"
             style="fill:#ffffff;fill-opacity:1;fill-rule:nonzero;stroke:none"
             d="M 7382.32,1173.9 H 7274.8 v 334.49 h 107.52 z m 2.97,382.14 h -113.48 v 81.32 h 113.48 v -81.32" /><path
             id="path46"
             style="fill:#ffffff;fill-opacity:1;fill-rule:nonzero;stroke:none"
             d="M 7793.57,1410.99 V 1173.9 h -107.54 v 167.09 c 0,16.29 -0.39,30.14 -1.19,41.55 -0.78,11.42 -2.97,20.71 -6.54,27.85 -3.58,7.15 -8.99,12.37 -16.23,15.64 -7.27,3.28 -17.43,4.92 -30.53,4.92 -10.53,0 -20.76,-2.14 -30.69,-6.41 -9.94,-4.27 -18.86,-8.78 -26.81,-13.55 V 1173.9 h -107.52 v 334.49 h 107.52 v -36.94 c 18.46,14.5 36.09,25.81 52.95,33.96 16.85,8.14 35.51,12.21 55.93,12.21 22.02,0 41.45,-4.91 58.31,-14.75 16.85,-9.82 30.03,-24.27 39.57,-43.33 21.4,18.07 42.22,32.27 62.44,42.59 20.23,10.32 40.06,15.49 59.49,15.49 36.09,0 63.5,-10.82 82.25,-32.46 18.73,-21.65 28.1,-52.83 28.1,-93.53 V 1173.9 h -107.52 v 167.09 c 0,16.48 -0.35,30.39 -1.05,41.7 -0.71,11.33 -2.84,20.56 -6.41,27.7 -3.38,7.15 -8.73,12.37 -16.07,15.64 -7.35,3.28 -17.68,4.92 -30.98,4.92 -8.95,0 -17.68,-1.54 -26.21,-4.62 -8.54,-3.08 -18.97,-8.19 -31.27,-15.34" /><path
             id="path48"
             style="fill:#ffffff;fill-opacity:1;fill-rule:nonzero;stroke:none"
             d="m 8318.59,1384.18 c -0.61,22.44 -6.15,39.32 -16.68,50.64 -10.53,11.32 -26.91,16.98 -49.16,16.98 -20.65,0 -37.62,-5.37 -50.92,-16.09 -13.3,-10.72 -20.76,-27.9 -22.34,-51.53 z m 106.62,-62.84 h -245.43 c 1.6,-26.21 11.56,-46.27 29.94,-60.17 18.36,-13.9 45.41,-20.84 81.15,-20.84 22.64,0 44.59,4.06 65.84,12.2 21.25,8.15 38.03,16.88 50.34,26.21 h 11.91 v -86.07 c -24.22,-9.74 -47.07,-16.79 -68.52,-21.15 -21.44,-4.37 -45.15,-6.56 -71.17,-6.56 -67.13,0 -118.55,15.09 -154.29,45.28 -35.75,30.18 -53.62,73.17 -53.62,128.97 0,55.2 16.94,98.93 50.78,131.2 33.87,32.27 80.28,48.4 139.26,48.4 54.4,0 95.31,-13.75 122.72,-41.25 27.4,-27.5 41.09,-67.07 41.09,-118.7 v -37.52" /><path
             id="path50"
             style="fill:#ffffff;fill-opacity:1;fill-rule:nonzero;stroke:none"
             d="m 8820.37,1173.9 h -107.52 v 165.9 c 0,13.5 -0.71,26.96 -2.09,40.36 -1.39,13.41 -3.77,23.28 -7.15,29.64 -3.97,7.34 -9.79,12.7 -17.42,16.08 -7.64,3.38 -18.32,5.07 -32.02,5.07 -9.72,0 -19.6,-1.6 -29.64,-4.77 -10.02,-3.18 -20.9,-8.24 -32.6,-15.19 V 1173.9 h -107.54 v 334.49 h 107.54 v -36.94 c 19.02,14.9 37.32,26.31 54.86,34.26 17.56,7.94 37.05,11.91 58.46,11.91 36.09,0 64.3,-10.53 84.63,-31.57 20.33,-21.05 30.49,-52.53 30.49,-94.42 V 1173.9" /><path
             id="path52"
             style="fill:#ffffff;fill-opacity:1;fill-rule:nonzero;stroke:none"
             d="m 9116.36,1176.85 c -11.52,-2.97 -23.73,-5.29 -36.64,-6.98 -12.91,-1.68 -28.69,-2.52 -47.36,-2.52 -41.7,0 -72.72,8.44 -93.07,25.32 -20.37,16.87 -30.53,45.76 -30.53,86.67 v 156.37 h -44.08 v 72.68 h 44.08 V 1604 h 107.52 v -95.61 h 100.08 v -72.68 h -100.08 v -118.72 c 0,-11.74 0.1,-21.98 0.3,-30.73 0.19,-8.75 1.77,-16.61 4.74,-23.57 2.78,-6.96 7.68,-12.47 14.71,-16.55 7.03,-4.08 17.27,-6.12 30.74,-6.12 5.53,0 12.81,1.19 21.82,3.58 9,2.38 15.29,4.57 18.87,6.55 h 8.9 v -73.3" /><path
             id="path54"
             style="fill:#ffffff;fill-opacity:1;fill-rule:nonzero;stroke:none"
             d="m 9366.46,1261.39 v 69.48 c -14.49,-1.19 -30.2,-2.83 -47.07,-4.9 -16.88,-2.08 -29.69,-4.5 -38.42,-7.27 -10.72,-3.37 -18.9,-8.28 -24.57,-14.7 -5.66,-6.44 -8.49,-14.89 -8.49,-25.38 0,-6.94 0.6,-12.58 1.79,-16.94 1.19,-4.35 4.16,-8.5 8.93,-12.46 4.57,-3.96 10.04,-6.88 16.38,-8.76 6.35,-1.88 16.29,-2.82 29.79,-2.82 10.72,0 21.6,2.18 32.62,6.53 11.01,4.36 20.7,10.09 29.04,17.22 z m 0,-52.04 c -5.76,-4.38 -12.91,-9.64 -21.45,-15.79 -8.53,-6.15 -16.58,-11.03 -24.14,-14.6 -10.5,-4.77 -21.44,-8.28 -32.75,-10.57 -11.33,-2.28 -23.73,-3.43 -37.23,-3.43 -31.77,0 -58.38,9.84 -79.82,29.49 -21.45,19.67 -32.17,44.78 -32.17,75.36 0,24.42 5.45,44.38 16.37,59.87 10.94,15.49 26.42,27.7 46.46,36.63 19.87,8.94 44.5,15.3 73.87,19.06 29.4,3.77 59.88,6.56 91.45,8.34 v 1.79 c 0,18.47 -7.54,31.23 -22.64,38.27 -15.08,7.05 -37.33,10.58 -66.72,10.58 -17.68,0 -36.52,-3.13 -56.58,-9.39 -20.06,-6.25 -34.45,-11.06 -43.2,-14.44 h -9.83 v 80.72 c 11.33,2.98 29.75,6.5 55.25,10.57 25.51,4.07 51.08,6.11 76.7,6.11 60.96,0 105,-9.38 132.09,-28.15 27.11,-18.76 40.67,-48.2 40.67,-88.31 V 1173.9 h -106.33 v 35.45" /><path
             id="path56"
             style="fill:#ffffff;fill-opacity:1;fill-rule:nonzero;stroke:none"
             d="m 9797.36,1406.22 h -9.51 c -4.55,1.59 -11.88,2.78 -22,3.58 -10.09,0.79 -18.51,1.19 -25.25,1.19 -15.25,0 -28.73,-1 -40.43,-2.98 -11.68,-1.99 -24.26,-5.36 -37.73,-10.13 V 1173.9 h -107.52 v 334.49 h 107.52 v -49.15 c 23.57,20.26 44.08,33.71 61.52,40.36 17.42,6.65 33.48,9.98 48.14,9.98 3.75,0 8.03,-0.1 12.78,-0.3 4.76,-0.2 8.92,-0.5 12.48,-0.89 v -102.17" /><path
             id="path58"
             style="fill:#ffffff;fill-opacity:1;fill-rule:nonzero;stroke:none"
             d="m 10064.4,1384.18 c -0.6,22.44 -6.1,39.32 -16.6,50.64 -10.6,11.32 -26.9,16.98 -49.19,16.98 -20.65,0 -37.62,-5.37 -50.92,-16.09 -13.3,-10.72 -20.76,-27.9 -22.34,-51.53 z m 106.7,-62.84 h -245.46 c 1.6,-26.21 11.56,-46.27 29.94,-60.17 18.36,-13.9 45.42,-20.84 81.12,-20.84 22.7,0 44.6,4.06 65.9,12.2 21.2,8.15 38,16.88 50.3,26.21 h 11.9 v -86.07 c -24.2,-9.74 -47.1,-16.79 -68.5,-21.15 -21.4,-4.37 -45.2,-6.56 -71.2,-6.56 -67.1,0 -118.52,15.09 -154.27,45.28 -35.74,30.18 -53.61,73.17 -53.61,128.97 0,55.2 16.94,98.93 50.78,131.2 33.87,32.27 80.28,48.4 139.3,48.4 54.4,0 95.3,-13.75 122.7,-41.25 27.4,-27.5 41.1,-67.07 41.1,-118.7 v -37.52" /><path
             id="path60"
             style="fill:#ffffff;fill-opacity:1;fill-rule:nonzero;stroke:none"
             d="m 10893.2,1173.9 h -113.8 v 296.96 l -82.2,-192.71 h -78.9 l -82.2,192.71 V 1173.9 h -107.9 v 443.5 h 132.9 l 99.8,-222.49 99.4,222.49 h 132.9 v -443.5" /><path
             id="path62"
             style="fill:#ffffff;fill-opacity:1;fill-rule:nonzero;stroke:none"
             d="m 11193.9,1259.68 c 7,8.54 12.2,18.81 15.7,30.83 3.4,12.01 5.2,28.64 5.2,49.89 0,19.65 -1.8,36.14 -5.4,49.44 -3.5,13.3 -8.5,23.93 -14.9,31.87 -6.3,8.14 -14,13.9 -22.9,17.28 -8.9,3.37 -18.6,5.06 -28.9,5.06 -10.3,0 -19.5,-1.39 -27.5,-4.17 -8.1,-2.78 -15.8,-8.34 -23.1,-16.68 -6.6,-7.74 -11.8,-18.37 -15.7,-31.87 -3.8,-13.5 -5.8,-30.48 -5.8,-50.93 0,-18.27 1.7,-34.11 5.1,-47.51 3.4,-13.4 8.3,-24.18 14.9,-32.31 6.3,-7.75 13.9,-13.41 22.8,-16.98 8.8,-3.58 18.9,-5.36 30.2,-5.36 9.7,0 19,1.64 27.8,4.91 8.9,3.28 16.4,8.79 22.5,16.53 z m 132,81.31 c 0,-55 -16.1,-98.34 -48.1,-130.01 -32.1,-31.67 -77.1,-47.51 -135.1,-47.51 -58,0 -103,15.84 -135.1,47.51 -32,31.67 -48.1,75.01 -48.1,130.01 0,55.41 16.2,98.89 48.4,130.46 32.3,31.58 77.2,47.36 134.8,47.36 58.4,0 103.5,-15.89 135.4,-47.65 31.8,-31.78 47.8,-75.17 47.8,-130.17" /><path
             id="path64"
             style="fill:#ffffff;fill-opacity:1;fill-rule:nonzero;stroke:none"
             d="m 11722.2,1173.9 h -107.5 v 165.9 c 0,13.5 -0.7,26.96 -2.1,40.36 -1.4,13.41 -3.7,23.28 -7.1,29.64 -4,7.34 -9.8,12.7 -17.4,16.08 -7.7,3.38 -18.4,5.07 -32.1,5.07 -9.7,0 -19.6,-1.6 -29.6,-4.77 -10,-3.18 -20.9,-8.24 -32.6,-15.19 V 1173.9 h -107.5 v 334.49 h 107.5 v -36.94 c 19,14.9 37.3,26.31 54.9,34.26 17.5,7.94 37,11.91 58.4,11.91 36.1,0 64.3,-10.53 84.7,-31.57 20.3,-21.05 30.4,-52.53 30.4,-94.42 V 1173.9" /><path
             id="path66"
             style="fill:#ffffff;fill-opacity:1;fill-rule:nonzero;stroke:none"
             d="m 12022.1,1265.97 v 164.37 c -7.6,3.18 -15.5,5.46 -23.8,6.86 -8.3,1.39 -15.9,2.09 -22.9,2.09 -28.1,0 -49.2,-8.8 -63.3,-26.41 -14,-17.59 -21.1,-42.01 -21.1,-73.23 0,-32.81 5.7,-56.63 17,-71.44 11.3,-14.83 29.4,-22.23 54.3,-22.23 9.7,0 20.1,1.84 31,5.52 10.8,3.68 20.4,8.5 28.8,14.47 z m 107.5,-92.07 h -107.5 v 34.84 c -18.5,-15.08 -35.7,-26.21 -51.8,-33.36 -16,-7.14 -34.6,-10.72 -55.6,-10.72 -40.7,0 -73.2,15.7 -97.6,47.07 -24.4,31.37 -36.6,73.66 -36.6,126.88 0,28.4 4.1,53.56 12.4,75.51 8.2,21.94 19.4,40.75 33.7,56.44 13.5,14.89 29.9,26.46 49.1,34.7 19.3,8.24 38.5,12.36 57.7,12.36 20.1,0 36.5,-2.13 49.3,-6.41 12.7,-4.26 25.9,-9.67 39.4,-16.23 v 142.38 h 107.5 V 1173.9" /><path
             id="path68"
             style="fill:#ffffff;fill-opacity:1;fill-rule:nonzero;stroke:none"
             d="m 12321.9,1173.9 h -107.5 v 334.49 h 107.5 z m 3,382.14 h -113.5 v 81.32 h 113.5 v -81.32" /><path
             id="path70"
             style="fill:#ffffff;fill-opacity:1;fill-rule:nonzero;stroke:none"
             d="m 12609,1261.39 v 69.48 c -14.5,-1.19 -30.2,-2.83 -47.1,-4.9 -16.9,-2.08 -29.7,-4.5 -38.4,-7.27 -10.7,-3.37 -18.9,-8.28 -24.6,-14.7 -5.6,-6.44 -8.5,-14.89 -8.5,-25.38 0,-6.94 0.6,-12.58 1.8,-16.94 1.2,-4.35 4.2,-8.5 8.9,-12.46 4.6,-3.96 10.1,-6.88 16.4,-8.76 6.4,-1.88 16.3,-2.82 29.8,-2.82 10.7,0 21.6,2.18 32.6,6.53 11.1,4.36 20.7,10.09 29.1,17.22 z m 0,-52.04 c -5.8,-4.38 -13,-9.64 -21.5,-15.79 -8.5,-6.15 -16.6,-11.03 -24.1,-14.6 -10.5,-4.77 -21.5,-8.28 -32.8,-10.57 -11.3,-2.28 -23.7,-3.43 -37.2,-3.43 -31.8,0 -58.4,9.84 -79.8,29.49 -21.5,19.67 -32.2,44.78 -32.2,75.36 0,24.42 5.5,44.38 16.4,59.87 10.9,15.49 26.4,27.7 46.5,36.63 19.8,8.94 44.4,15.3 73.8,19.06 29.4,3.77 59.9,6.56 91.5,8.34 v 1.79 c 0,18.47 -7.6,31.23 -22.7,38.27 -15.1,7.05 -37.3,10.58 -66.7,10.58 -17.7,0 -36.5,-3.13 -56.6,-9.39 -20.1,-6.25 -34.4,-11.06 -43.2,-14.44 h -9.8 v 80.72 c 11.3,2.98 29.7,6.5 55.3,10.57 25.5,4.07 51,6.11 76.7,6.11 60.9,0 104.9,-9.38 132,-28.15 27.2,-18.76 40.7,-48.2 40.7,-88.31 V 1173.9 H 12609 v 35.45" /><path
             id="path72"
             style="fill:#ffffff;fill-opacity:1;fill-rule:nonzero;stroke:none"
             d="m 12797.4,1173.9 h 107.598 v 463.461 H 12797.4 Z" /><path
             id="path74"
             style="fill:#ffffff;fill-opacity:1;fill-rule:nonzero;stroke:none"
             d="m 13212.2,1384.18 c -0.6,22.44 -6.1,39.32 -16.6,50.64 -10.6,11.32 -27,16.98 -49.2,16.98 -20.6,0 -37.6,-5.37 -50.9,-16.09 -13.3,-10.72 -20.8,-27.9 -22.4,-51.53 z m 106.7,-62.84 h -245.5 c 1.6,-26.21 11.6,-46.27 30,-60.17 18.3,-13.9 45.4,-20.84 81.1,-20.84 22.7,0 44.6,4.06 65.9,12.2 21.2,8.15 38,16.88 50.3,26.21 h 11.9 v -86.07 c -24.2,-9.74 -47.1,-16.79 -68.5,-21.15 -21.4,-4.37 -45.2,-6.56 -71.2,-6.56 -67.1,0 -118.5,15.09 -154.3,45.28 -35.7,30.18 -53.6,73.17 -53.6,128.97 0,55.2 16.9,98.93 50.8,131.2 33.9,32.27 80.3,48.4 139.3,48.4 54.3,0 95.3,-13.75 122.7,-41.25 27.4,-27.5 41.1,-67.07 41.1,-118.7 v -37.52" /><path
             id="path76"
             style="fill:#ffffff;fill-opacity:1;fill-rule:nonzero;stroke:none"
             d="m 1340.5,2131.88 c 12.51,27.07 24.09,48.62 40.79,74.3 7.37,11.32 15.69,19.22 23.11,30.68 -3.54,1.02 -8.73,-1.91 -10.96,-3.51 -7.42,-5.38 -10.77,-14.12 -16.71,-18.8 -14.03,-11.07 -13.64,-21.1 -21,-26.28 -6.57,-4.63 -8.45,-7.68 -13.05,-14.9 -3.08,-4.82 -5.35,-8.73 -8.6,-18.23 -1.15,-3.42 -3.45,-0.39 -8.92,-7.93 -7.19,-9.8 -10.41,-20.39 -13.39,-32.26 -0.96,-3.9 -7.59,-5.97 -11.86,-14.07 -5.71,-10.92 -9.43,-21.03 -11.9,-36.95 -0.62,-3.69 -6.86,-6.25 -11.16,-16.53 -3.05,-7.23 -5.24,-8.83 -7.9,-22.45 -1.65,-8.31 -5.43,-9.51 -9.7,-21.57 -3.3,-9.2 -3.43,-18.06 -4.58,-30.08 -0.27,-2.33 -4.2,-6.95 -7.83,-13.69 -6.1,-11.26 -5.9,-18.78 -8.32,-30.41 -0.93,-4.2 -5.65,-9.77 -10.18,-27.79 -3.98,-15.98 -0.33,-26.58 -1.68,-34.45 -3.53,-20.45 -7.03,-38.21 -5.14,-58.35 0.94,-9.85 2.44,-20.01 1.78,-29.48 -1.87,-29.7 -3.48,-54.17 -3.32,-87.83 0.11,-18.32 1.54,-43.41 4.32,-64.29 3.04,-23.06 7.44,-41.07 7.44,-41.07 h 75.14 c 0,0 -2.94,43.45 0.95,89.19 2.31,27.42 8.83,56.48 14.76,76.89 7.51,26.03 12.18,39.51 26.37,73.85 0.3,0.76 -0.1,3.98 -3.85,0.83 -7.84,-6.58 -14.39,-12.37 -20.58,-21.69 -9.45,-14.25 -15.21,-25.99 -22.87,-40.63 -8.95,-17.02 -13.89,-31.84 -23.11,-52.52 -0.54,14.92 1.88,29.12 4.91,42.87 3.1,14.04 5.56,25.16 9.98,37.26 7.83,21.35 15.43,39.16 27.99,59.03 7.27,11.47 16.57,21.77 26.01,30.32 11.29,10.32 21.73,19.39 33.55,29.5 -12.42,6.4 -28.96,-6.96 -32.27,-7.65 -17.47,-3.4 -24.58,-19.61 -29.93,-21.82 -7.65,-3.2 -12.07,-7.89 -17.38,-14.33 -4.09,-4.85 -5.32,-12.33 -9.59,-14.99 -7.13,-4.44 -12.37,-11.14 -17.27,-20.5 -2.01,-3.86 -7.5,-22.13 -13.59,-19.78 10.42,61.93 32.28,120.01 67.38,171.69 22.25,32.78 46.45,60.9 82.12,86.11 4.7,3.33 5.61,4.89 -0.95,4.66 -33.34,-4.05 -35.38,-19.28 -40.87,-20.71 -5.2,-1.35 -11.65,-7.52 -15.77,-11.54 -7.41,-7.32 -7.28,-13.5 -10.13,-15.42 -6.08,-4.25 -10.66,-8.66 -14.81,-16.02 -2.19,-3.85 -5.86,-12.31 -9.11,-14.24 -8.57,-4.96 -16.86,-12.19 -20.99,-19.99 -3.05,-5.7 -4.27,-11.89 -8.25,-17.49 -4.27,-6.02 -10.23,-10.53 -15.36,-14.88 3.9,26.46 16.37,57.82 24.95,84.87 11.53,36.12 25.54,68.95 41.33,103.07" /><path
             id="path78"
             style="fill:#ffffff;fill-opacity:1;fill-rule:nonzero;stroke:none"
             d="m 1417.21,1917.38 c 28.44,63.85 58.37,111.9 97.26,168.11 5.08,7.37 9.64,14.58 14.08,21.49 2,3.11 11.56,16.85 13.55,19.76 13.04,19.69 18.52,25.71 31.86,44.53 3.62,5.11 6.55,9.13 8.09,15.04 2.84,11.01 -6.61,18.4 -8.79,28.96 -2.2,10.79 -0.99,22.57 3.96,31.68 3.1,5.69 6.19,7.93 9.31,15.57 6.07,14.73 3.97,46.6 10.87,47.43 -1.75,-15.12 -2.15,-32.13 0.23,-46.63 2.76,-16.93 13.03,-27.18 17.27,-45.11 11.43,2.06 23.83,1.57 33.45,0.74 9.54,-0.82 21.61,1.83 31.4,5.18 13.26,4.53 24.27,12.78 37.79,15.98 -11.5,-11.05 -27.73,-15.2 -41.33,-23.59 -5,-3.14 -9.71,-7.29 -13.05,-12.45 -5.46,-8.5 -9.78,-16.64 -18.34,-20.37 -15.19,-6.63 -28.24,-3.49 -45.57,-6.72 -25.76,-26.53 -50.01,-62.62 -72.38,-100.57 -56.73,-95.98 -104.04,-195.37 -131.54,-297.29 9.51,17.73 18.6,34.88 28.9,51.75 11.38,18.74 24.18,37.09 38.13,55.47 32.66,43.05 64.97,80.64 101.18,120.19 29.21,31.95 61.24,58.76 96.95,81.18 47.19,29.57 105.41,50.28 156.56,39.6 5.82,-1.36 14.14,-2.91 17.77,-6.74 -64.11,8.98 -121.54,-13.42 -164.39,-47.75 -33.86,-27.07 -62.39,-54.55 -91.39,-90.26 -14.98,-17.21 -28.45,-36.13 -41.83,-54.45 -14.02,-19.27 -26.45,-39.55 -38.77,-59.83 -41.55,-68.61 -72.99,-141.25 -96.12,-216.51 -0.66,-2.39 -0.81,-4.79 -1.46,-7.16 1.09,1.69 2.71,3.53 3.81,5.25 31.12,50.61 68.55,99.45 115.96,132.22 4.14,2.82 8.45,8.26 9.57,12.53 5.12,20.09 -10.19,29.75 10.99,57.52 4.86,6.38 11.51,8.71 16.1,14.64 8.67,13.4 15.74,37.41 23,43.86 -3.65,-15.64 -12.61,-32.15 -14.53,-48.26 -2.03,-17.68 2.49,-32.14 3.28,-50.88 12.52,-1.71 22.21,-7.01 32.03,-10.04 15.28,-4.77 24.46,-3.56 39.57,-2.25 6.45,0.54 18.15,4.31 25.1,2.89 -14.61,-7.98 -34.33,-6.51 -49.28,-14.14 -10.46,-5.36 -13.49,-13.27 -27.92,-16.05 -12.84,-2.5 -23.64,-1.16 -31.98,3.12 -6.49,3.27 -11.56,4.64 -17.39,1.85 -15.56,-7.47 -26.18,-18.02 -38.7,-30.65 -29.08,-29.26 -52.81,-61.92 -74.96,-104.75 -5.86,-11.39 -11.13,-22.64 -16.13,-34.25 -2.47,-5.65 -8.6,-21.34 -8.6,-21.34 h -75.98 c 0,0 -0.19,21.91 0.52,29.91 1.46,15.95 3.63,27.76 6.72,43.94 4.41,23.26 8.72,44.37 14.76,66.94 5.88,21.96 12.21,42.56 19.74,63.65 15.71,43.96 32.41,86.06 50.67,127.06" /><path
             id="path80"
             style="fill:#ffffff;fill-opacity:1;fill-rule:nonzero;stroke:none"
             d="m 682.551,1325.53 c 27.73,22.68 48.265,35.82 75.957,52.33 11.242,6.72 28.254,14.33 41.336,20.26 47.984,21.68 111.465,37.67 171.269,38.77 1.082,0 1.016,-0.05 1.016,-0.05 h 445.901 c 0,0 -1.66,0.05 1.56,0.05 14.19,0 28.22,-4.94 36.91,-13.15 8.71,-8.26 12.87,-20.97 15.14,-33.62 1.92,-10.78 0.98,-20.36 -1.53,-31.89 -1.97,-9.11 -3.43,-14.54 -8.51,-22.28 -3.06,-4.71 -5.97,-7.94 -11.68,-12.48 -5.86,-4.68 -14.16,-6.31 -23.67,-6.4 -1,-0.04 -3.12,-0.1 -3.05,-0.07 0.1,0.07 -521.559,0.07 -521.559,0.07 0,0 -3.243,0.01 -4.871,0.01 -34.149,0.11 -70.094,-1.63 -103.836,-6.03 -25.844,-3.53 -51.743,-7.56 -76.723,-14.06 -31.504,-8.23 -61.836,-19.62 -92.117,-30.91 16.785,22.31 36.16,41.24 58.457,59.45" /><path
             id="path82"
             style="fill:#ffffff;fill-opacity:1;fill-rule:nonzero;stroke:none"
             d="m 837.383,1502.94 c 27.398,19.79 60.66,36.04 90.121,47.32 14.953,5.66 34.816,11.93 50.598,15.86 19.062,4.81 40.968,8.42 58.828,8.94 5.39,0.15 0.79,0.04 0.79,0.04 l 382.46,0.04 c 0,0 8.19,-0.44 11.03,-1 7.19,-1.55 12.99,-4.48 15.39,-6.01 5.94,-3.81 13.4,-11.81 17.3,-18.14 9.93,-16.35 11.68,-34 8.46,-52.37 -3.67,-20.97 -19.61,-44.86 -41.23,-45.45 -3.77,-0.1 -11.28,0 -11.28,0 h -414.23 c 0,0 -24.104,-0.47 -35.116,-0.87 -20.375,-0.8 -42.965,-3.12 -60.754,-5.74 -15.215,-2.19 -30.078,-5.07 -45.312,-9.15 -51.071,-13.8 -95.446,-39.7 -141.856,-59.84 31.258,54.63 73.539,96.48 114.801,126.37" /><path
             id="path84"
             style="fill:#ffffff;fill-opacity:1;fill-rule:nonzero;stroke:none"
             d="m 623.434,1243.01 c 66.488,39.28 146.582,54.77 219.886,57.23 1.742,0.08 5.219,0.19 5.219,0.19 l 571.731,-0.05 c 0,0 1.04,0 6.21,0.05 34.65,0.03 47.31,-34.35 47.15,-62.15 -0.07,-9.16 -1.62,-18.5 -4.16,-24.77 -3.29,-8.19 -6.93,-14.88 -12.89,-21.34 -2.13,-2.34 -9.78,-7.72 -13.17,-8.55 -7.92,-1.94 -17.67,-1.72 -17.61,-1.72 0.08,0 -425.26,-0.08 -425.26,0 0,0 -22.95,0.92 -38.876,2.45 -11.469,1.13 -20.176,2.33 -32.09,4.6 -29.285,5.82 -53.562,15.35 -78.926,23.17 -16.918,5.24 -34.714,9.13 -53.277,11.94 -34.133,5.22 -71.414,7.6 -105.887,4.99 -43.847,-3.26 -82.847,-11.85 -124.554,-25.08 7.054,10.99 36.371,27.12 56.504,39.04" /><path
             id="path86"
             style="fill:#ffffff;fill-opacity:1;fill-rule:nonzero;stroke:none"
             d="m 931.391,1063.73 c -19.543,6.89 -38.614,15.78 -55.723,27.07 -22.285,14.75 -33.207,26.48 -62.008,39.79 -24.644,11.39 -44.324,22.63 -78.687,35.08 -16.582,6.01 -43.446,14.28 -66.481,18.22 -32.906,5.59 -64.637,8.04 -64.637,8.04 0,0 6.719,4.19 10.774,5.43 33.586,10.22 63.246,15.21 97.738,17.76 30.246,2.27 58.031,-0.68 88.356,-5.42 12.441,-1.96 28.613,-5.79 42.668,-9.8 45.636,-12.99 97.523,-33.59 143.547,-33.67 2.57,0 2.277,0.04 2.277,0.04 h 425.015 c 0,0 -3.21,0 1.3,0 12.87,0.04 36.93,-4.13 46.6,-21.21 11.2,-19.68 14.68,-43.12 5.27,-66.6 -2.85,-7.05 -7.58,-17.16 -14.37,-23.28 -5.97,-5.4 -15.67,-8.87 -21.27,-8.87 -1.62,-0.08 -4.4,0 -4.4,0 h -371.69 c 0,0 1.41,0 -2.03,0 -38,0 -85.847,4.6 -122.249,17.42" /><path
             id="path88"
             style="fill:#ffffff;fill-opacity:1;fill-rule:nonzero;stroke:none"
             d="m 1100.71,931.891 c -10.51,10.789 -25.01,27.328 -38.15,43.039 -25.23,30.07 -36.52,57.16 -36.52,57.16 h 247.91 c 0,0 0.66,-28.6 -5.07,-61.719 -5.36,-30.75 -16.72,-63.172 -28.8,-86.66 -0.44,-24.082 9.72,-46.473 11.39,-70.262 -20.36,-12.5 -42.26,-24.871 -60.51,-42.418 -1.17,-1.082 -3.05,-1.082 -3.82,1.828 -9.77,36.661 -14.93,69.34 -22.95,105.59 -22.6,17.469 -43.79,33.039 -63.48,53.442" /><path
             id="path90"
             style="fill:#ffffff;fill-opacity:1;fill-rule:nonzero;stroke:none"
             d="m 1356.2,952.219 c -7.01,12.949 -12.24,30.051 -20.29,40.222 -1.73,-9.07 0.4,-14.652 -0.83,-23.332 -1.13,-7.269 -7.09,-4.25 -8.3,-0.828 -3.48,9.84 -7.17,21.989 -10.35,32.079 -5.29,16.8 -6.98,31.68 -6.98,31.68 l 41.24,0.05 c 0,0 1.59,-0.39 2.32,-4.4 1.97,-10.39 1.48,-20.54 4.33,-32.581 3.66,-15.507 8.37,-29.668 14.07,-44.129 4.96,-12.73 11.35,-25.57 16.55,-38.21 0.7,-1.661 1.04,-4.86 -0.21,-6.52 -1.53,-1.922 -4.16,-1.68 -5.67,0 -11.81,13.43 -16.57,28.641 -25.88,45.969" /><path
             id="path92"
             style="fill:#ffffff;fill-opacity:1;fill-rule:nonzero;stroke:none"
             d="m 1420.04,922.738 c -7.01,14.953 -16.88,31.762 -16.02,48.723 4.56,-5.992 6.44,-10.281 12.72,-13.621 2.87,-0.91 8.89,-0.059 7.38,4.961 -2.77,9.34 -7.08,17.25 -11.06,30.07 -5.92,18.949 -11.67,39.199 -11.67,39.199 l -42.1,0.02 c 0,0 2.33,-17.08 11.9,-43.289 8.41,-23.211 21.4,-49.77 35.62,-74.672 11.59,-20.481 22.11,-38.348 35.25,-53.309 4.5,-5.148 15.54,-0.629 10.76,6.071 -12.47,17.64 -24.11,37.168 -32.78,55.847" /><path
             id="path94"
             style="fill:#ffffff;fill-opacity:1;fill-rule:nonzero;stroke:none"
             d="m 1693.4,2345.62 c -9.14,-3.98 -17.21,-9.13 -21.77,-17.91 -3.32,-6.3 -5.56,-15.92 0.79,-21.33 11.12,-9.49 24.38,0.22 29.75,9.91 6.79,12.35 5.02,35.96 5.02,35.96 0,0 -7.89,-4.11 -13.79,-6.63" /><path
             id="path96"
             style="fill:#ffffff;fill-opacity:1;fill-rule:nonzero;stroke:none"
             d="m 1703.06,2286.68 c 3.99,7.54 12.74,15.68 22.33,21.51 10.84,6.63 22.07,13.06 29.88,17.72 7.81,4.7 9.3,7.99 9.3,7.99 0,0 -6.44,-2.22 -9.96,-4.3 -19.28,-11.49 -40.31,-24.55 -48.87,-28.32 -10.8,-4.71 -25.47,-5.62 -38.7,-7.31 -2.11,16.69 -6.44,23.62 -6.39,38.44 0.11,7.11 1.83,16.34 3.04,22.77 4.14,21.43 4.95,32.25 4.95,32.25 0,0 -3.27,-3.05 -4.46,-12.48 -1.35,-8.52 -2.3,-11.66 -4.26,-21.74 -2.22,-11.62 -4.55,-21.47 -11.5,-28.73 -10.02,-10.37 -19.3,-28.82 -11.56,-42.96 4.51,-8.26 12.04,-7.06 14.4,-9.19 2.35,-2.12 3.79,-7.21 10.92,-9.57 15.39,-5.14 32.83,8.67 40.88,23.92" /><path
             id="path98"
             style="fill:#ffffff;fill-opacity:1;fill-rule:nonzero;stroke:none"
             d="m 1683.11,2242.61 c 5.22,8.48 10.58,14.43 18.81,19.48 13.67,8.33 23.8,13.97 32.13,18.23 3.62,1.82 6.63,3.98 7.55,7.84 -3.73,-1.4 -17.83,-8.03 -31.83,-16.36 -10.03,-5.98 -27.27,-13.46 -38.85,-13.99 -4.59,-0.2 -7.99,0.93 -11.74,1.05 -7.77,0.32 -17.67,-1.56 -17.67,-1.56 0,0 -2.51,10.99 -5.83,18.9 -1.66,4.05 -4.35,8.21 -5.8,15.82 -0.97,5.08 -1.26,12.71 -0.86,17.25 1.14,13.73 4.84,27.07 4.2,40.97 -8.63,-17.93 -5.1,-40.01 -15.23,-53.88 -4.28,-5.83 -7.66,-10.43 -11.02,-17.78 -5.56,-12.06 -4.9,-24.55 2.62,-36.18 4.34,-6.63 13.91,-6.38 15.56,-7.67 2.51,-1.85 4.65,-8.78 14.01,-10.86 16.02,-3.6 34.9,3.83 43.95,18.74" /><path
             id="path100"
             style="fill:#ffffff;fill-opacity:1;fill-rule:nonzero;stroke:none"
             d="m 1687.58,1892.02 c 3.73,7.53 6.13,17.42 10.89,24.41 -10.76,-1.61 -12.49,-2.84 -28.04,-4.55 -3.39,-0.32 -10.4,-3.84 -12.72,-6.15 -6.15,-6.21 -11.52,-11.96 -9.13,-22.38 0.92,-4.05 4.5,-7.02 6.49,-7.65 12.93,-4.2 26.05,3.49 32.51,16.32" /><path
             id="path102"
             style="fill:#ffffff;fill-opacity:1;fill-rule:nonzero;stroke:none"
             d="m 1700.7,1871.5 c 14.69,3.43 31.66,10.64 38.48,8.37 -13.79,-7.33 -31.17,-10 -46.45,-14.35 -11.65,-3.36 -19.97,-12.16 -30.37,-20.15 -9.55,-7.26 -22.24,-10.22 -33.59,-4.88 -3.83,1.82 -7.54,7.99 -8.2,11.28 -0.6,2.63 -6.08,5.27 -8.89,7.58 -2.83,2.36 -4.2,8.25 -4.26,10.52 -0.49,20.34 14.98,28.55 29.89,40.49 11.23,9 25.81,47.17 34.7,55.08 -1.58,-12.3 -17.58,-35.51 -24.55,-53.58 -5.53,-14.39 -3.71,-25.9 -7.28,-41.05 10.66,-0.67 22.54,-2.91 33.28,-3.08 8.42,-0.11 18.59,1.72 27.24,3.77" /><path
             id="path104"
             style="fill:#ffffff;fill-opacity:1;fill-rule:nonzero;stroke:none"
             d="m 1685.22,1840.15 c -8.25,-1.53 -18.34,-4.13 -25.23,-5.59 -23.95,-5.07 -35.4,6.66 -54.52,6.44 1.68,21.9 -5.93,31.71 0.33,45.88 5.59,12.59 10.76,25.93 15.56,36.6 3.89,8.57 5.07,15.8 5.07,15.8 0,0 -5.8,-8.69 -22.32,-40.86 -5.74,-11.22 -16.02,-13.63 -25.15,-24.23 -10.51,-12.12 -16.54,-37.75 2.9,-48.51 3.86,-2.12 3.3,-8.78 6.11,-11.47 12.98,-12.21 39.19,-10.98 55.58,3.9 13.05,11.89 28.91,13.82 42.43,17.32 7.9,2.04 14.83,5.4 14.83,5.4 0,0 -3.75,1.53 -15.59,-0.68" /><path
             id="path106"
             style="fill:#ffffff;fill-opacity:1;fill-rule:nonzero;stroke:none"
             d="m 1205.22,1585.9 c -0.94,0 -1.96,0 0,0 z m -111.88,315.55 c -7.99,-10.56 -11.69,-22.7 -20.5,-31.92 -4.6,-4.83 -11.63,-2.57 -15.27,2.99 -4.05,6.29 -10.59,15.18 -5.73,21.39 8.01,10.27 24.76,16.82 39,14.97 0.84,-0.1 5.43,-3.49 2.5,-7.43 z M 1055,1841.06 c -4.47,-11.96 -17.8,-13.26 -29.14,-15.62 -2.12,-0.46 -8.65,0 -11.58,2.87 -4.9,4.79 -9.14,11.34 -8.28,19.54 0.45,5.05 4.67,10.01 9.9,12.03 9.47,3.67 20.69,9.57 30.03,4.33 8.02,-4.48 12.23,-14.73 9.07,-23.15 z m -24.55,-63.22 c -3.27,-4.71 -11.65,10.95 -12.74,18.12 -3.13,20.77 15.08,26.07 30.24,25.43 0.47,-12.39 -9.13,-31.57 -17.5,-43.55 z m -16.39,-56.03 c -2.97,-8.35 -4.4,-16.04 -7.72,-23.69 -3.22,-7.4 -16.977,-10.04 -24.606,-7.67 -10.894,3.37 -20.242,27.83 -7.855,37.2 9.476,7.08 19.289,8.22 31.361,9.7 2.17,0.26 10.27,-0.23 10.59,-0.99 2.02,-5.07 0.74,-7.61 -1.77,-14.55 z m -18.333,-64.59 c -2.207,-6.42 -3.184,-13.02 -6.02,-19.19 -1.422,-3.13 -3.285,0.98 -3.359,1.19 -4.282,10.64 -6.985,19.65 -3.336,29.02 2.066,5.19 9.168,9.96 15.906,10.38 -0.418,-6.67 -0.891,-14.9 -3.191,-21.4 z m -21.649,-31.49 c -4.922,2.22 -4.848,8.55 -6.91,12.48 -1.941,3.84 -6.133,9.13 -4.41,14.17 9.5,-5.33 13.902,-14.83 11.32,-26.65 z m -16.387,39.31 c -11.336,9.32 -12.316,24.22 -19.863,35.62 8.332,5.33 22.387,4.26 26.707,-6.29 3.457,-8.48 5.969,-20.94 -2.633,-27.41 -0.929,-0.69 -3.136,-2.81 -4.211,-1.92 z m -42.246,76.85 c -1.699,2.43 -5.062,9.43 -2.5,10.32 20.282,6.98 35.496,7.21 39.832,-14.49 3.067,-15.48 -7.507,-28.77 -22.332,-23.36 -4.25,1.58 -8.465,18.07 -15,27.53 z m -29.5,48.99 c -1.418,1.79 -2.578,7.18 -0.804,8.56 10.547,8.48 26.031,9.13 38.019,7.96 15.809,-1.44 19.059,-16.14 16.418,-28.32 -3.48,-16.04 -27.801,-18.04 -34.691,-15.37 -6.766,2.6 -11.489,17.94 -18.942,27.17 z m 3.446,57.03 c 13.66,8.86 39.785,15.43 44.14,-8.56 1.317,-7.23 -0.484,-16.83 -10.25,-19.97 -10.035,-3.22 -21.851,-6.69 -31.011,-2.97 -11.274,4.61 -13.493,24.65 -2.879,31.5 z m -14.164,40.36 c 1.027,4.61 6.128,6.78 10.418,7.88 11.058,2.73 23.425,6.85 33.578,0.38 3.961,-2.5 4.261,-6.04 4.781,-11.02 0.898,-8.06 -0.25,-14.66 -5.563,-17.74 -10.773,-6.32 -21.738,-6.89 -34.257,-4.43 -10.157,2.01 -10.985,15.47 -8.957,24.93 z m -11.336,-62.21 c -9.473,7.01 -13.657,16.91 -20.637,26.72 -1.688,2.4 0,3.38 1.293,3.76 16.805,4.75 29.277,-3.64 26.66,-21.96 -0.469,-3.56 -2.785,-11.85 -7.316,-8.52 z m -46.387,56.61 c -6.297,5.45 -1.918,14.92 3.57,17.68 9.61,4.77 24.707,5.49 34.703,2.12 6.43,-2.16 9.684,-11.39 8.532,-21.47 -0.485,-4.12 -1.747,-8.67 -3.766,-10.01 -7.613,-5.19 -19.391,-5.4 -28.648,-3.47 -6.551,1.39 -8.887,10.34 -14.391,15.15 z m -7.262,57.25 c 6.09,13.25 28.309,13.37 40.406,7.46 9.856,-4.85 11.094,-23.19 0.332,-30.42 -8.585,-5.72 -22.113,-3.62 -31.218,-1.95 -12.938,2.38 -13.965,15.1 -9.52,24.91 z m 0.496,49.6 c 9.227,8.78 21.188,4.76 32.305,3.22 2.152,-0.31 4.715,-1.82 6.176,-3.27 7.59,-7.67 8.187,-20.24 -0.266,-26.53 -9.75,-7.25 -21.922,-2.54 -33.641,-1.94 -3.164,0.12 -6.644,3.84 -7.367,6.22 -2.109,7.42 -3.39,16.49 2.793,22.3 z m 5.946,41.5 c 9.8,4.09 26.636,5.96 33.574,-5.03 4.262,-6.74 3.023,-19.22 -3.813,-21.04 -6.695,-1.72 -29.457,-5.5 -34.906,7.09 -2.699,6.19 -1.559,16.16 5.145,18.98 z m 30.164,35.25 c 2.836,-1.25 4.601,-3.52 5.269,-7 1.399,-7.55 -0.59,-15.75 -7.836,-17.08 -10.89,-1.98 -27.058,-2.61 -27,12.78 0.039,17.17 16.957,16.98 29.567,11.3 z m -21.922,31.93 c 5.797,2.21 15.332,1.71 20.535,-0.99 2.625,-1.37 6.148,-5.68 4.668,-10.23 -1.848,-5.92 -7.363,-8.06 -13.629,-8.14 -6.02,-0.05 -12.926,0.43 -15.355,5.34 -2.313,4.66 -1.333,12.04 3.781,14.02 z m 6.769,25.75 c 5.297,1.92 13.129,1.79 16.981,-2.39 5.304,-5.79 1.121,-15 -8.887,-14.54 -3.519,0.15 -7.695,1.36 -9.824,2.57 -5.168,2.92 -3.457,12.5 1.73,14.36 z m 23.813,16.58 c 0.68,2.23 4.16,4.85 5.98,5.49 3.973,1.41 8.629,1.7 12.43,0.18 7.602,-3.12 6.555,-12.52 -1.559,-15.82 -3.632,-1.47 -9.214,-2.43 -11.953,-1.47 -5.113,1.73 -6.535,6.17 -4.898,11.62 z m 23.68,-36.76 c -8.29,-2.43 -19.848,-2.9 -22.325,5.6 -4.203,14.42 14.004,16.58 23.449,13.56 6.512,-2.07 8.813,-16.32 -1.124,-19.16 z m 5.492,47.62 c 2.629,8.94 12.758,13.79 21.929,11.06 7.887,-2.31 9.707,-13.06 4.383,-18.29 -2.414,-2.34 -6.406,-4.73 -10.703,-5.68 -9.387,-2.1 -18.605,3.07 -15.609,12.91 z m 41.254,-32.79 c -1.485,-5.83 -5.766,-9.83 -12.618,-11.35 -6.808,-1.5 -16.214,-1.92 -19.988,2.29 -3.598,3.98 -5.254,9.57 -2.25,13.87 6.024,8.56 17.047,11.55 26.871,9.38 5.606,-1.31 9.727,-7.05 7.985,-14.19 z m -3.664,34.31 c 3.664,8.11 12.957,12.19 21.878,9.47 1.79,-0.58 5.469,-3.45 5.981,-6.29 1.059,-5.64 -0.899,-10.79 -5.609,-13.74 -6.036,-3.85 -11.02,-6.01 -17.95,-3.17 -5.203,2.18 -6.472,8.94 -4.3,13.73 z m 38.437,-22.78 c 4.078,-6.9 -2.129,-13.83 -5.277,-15.73 -6.989,-4.09 -16.84,-6.6 -21.051,0.33 -4.141,6.79 -0.711,14.86 6.512,17.84 6.89,2.86 14.031,7.2 19.816,-2.44 z m 11.59,-26.36 c 4.562,-3.78 8.566,-11.71 3.098,-17.97 -5.137,-5.91 -11.516,-7.68 -19.59,-8.98 -5.457,-0.93 -12.438,3.11 -13.321,7.93 -0.808,4.15 -1.57,11.72 2.543,15.2 8.024,6.84 18.782,10.8 27.27,3.82 z m 9.672,44.97 c 4.308,-1.27 7.062,-5.83 4.906,-10.22 -1.313,-2.71 -5.187,-5.64 -7.652,-7.15 -6.762,-4.17 -12.567,-2.46 -14.688,2.51 -3.894,9.15 9.211,17.28 17.434,14.86 z m 16.504,-22.79 c 4.747,-0.42 6.927,-3.73 7.867,-7.36 1.23,-4.87 -0.38,-9.38 -4.49,-12.14 -4.893,-3.25 -10.987,-5.17 -15.866,-5.25 -6.589,-0.11 -12.699,9.57 -9.125,15.85 3.786,6.74 13.309,9.62 21.614,8.9 z m 27.277,-34.89 c 2.81,-8.28 -3.26,-12.14 -9.66,-15.54 -6.5,-3.47 -15.22,-6.71 -19.738,-2.39 -5.766,5.43 -8.332,14.58 -1.903,20.6 8.911,8.36 25.401,14.65 31.301,-2.67 z m 11.78,-20.77 c 10.46,-1.33 12.53,-16.2 10.42,-21.58 -2.39,-4.62 -7.66,-8.24 -10.42,-9.66 -7.68,-3.95 -16.64,-5.45 -23.7,-1.8 -6.42,3.34 -9.21,13.09 -5.72,20.73 4.73,10.34 19.63,13.59 29.42,12.31 z m 21.52,-46.04 c 3.58,-5 2.79,-13.88 0.67,-16.66 -6.6,-9.01 -24.96,-14.16 -32.54,-10.47 -5.75,2.82 -11.43,15.5 -4.69,23.11 7,7.9 19.21,12.61 30.3,10.3 2.47,-0.55 4.09,-3.27 6.26,-6.28 z m 4.64,-28.37 c 5.03,-0.54 9.51,-6.08 11.94,-12.11 3.16,-7.8 -0.04,-16.89 -2.53,-18.59 -6.02,-4.09 -25.09,-15.57 -37.09,-8.69 -6.6,3.79 -8.42,12.44 -8.83,17.55 -1.32,16.51 23.72,23.27 36.51,21.84 z m -70.397,-118.09 c -2.566,6.55 -4.941,16.24 0.203,20.22 10.394,8.19 33.894,15.37 42.834,2.97 5.81,-8.05 4.1,-21.7 -6.07,-26.92 -10.51,-5.36 -31.041,-11.54 -36.967,3.73 z m -50.41,-0.73 c 10.429,5.31 25.457,11.71 36.687,4.47 5.137,-3.29 10.442,-16.96 6.817,-23.02 -7.699,-12.87 -27.965,-16.15 -40.844,-12.84 -10.969,2.85 -14.273,25.53 -2.66,31.39 z m -9.383,44.5 c 12.59,8.85 37.441,14.57 43.426,-4.77 1.554,-5.02 2.437,-10.57 -0.125,-14.62 -6.973,-11.21 -24.656,-14.16 -36.492,-12.49 -12.805,1.85 -18.848,23.43 -6.809,31.88 z m -10.59,45.08 c 12.09,6.85 37.856,15.96 43.926,-3.68 2.426,-8.03 2.184,-17.94 -4.695,-21.49 -9.852,-5.16 -25.457,-10.58 -36.809,-3.5 -9.48,6 -10.762,23.89 -2.422,28.67 z m 67.676,81.02 c -5.063,-4.52 -10.203,-5.49 -16.941,-7.78 -9.442,-3.2 -19.313,4.07 -20.403,13.1 -1.816,15.46 14.75,17.76 25.707,19.69 7.989,1.44 12.938,-5.73 14.41,-10.56 1.504,-4.64 1.309,-10.87 -2.773,-14.45 z m 20.304,-36.37 c -7.18,-10.71 -36.16,-17.45 -42.55,-6.43 -4.668,8.07 -7.574,19.39 1.203,24.8 9.211,5.66 20.137,9.05 30.857,7.12 10.08,-1.78 15.21,-18.36 10.49,-25.49 z m 15.45,-66.33 c 4.12,-6.56 7,-15.38 0.88,-23.51 -5.55,-7.46 -25.37,-10.95 -35.517,-8.49 -5.566,1.4 -8.195,8.16 -9.047,12.73 -1.176,6.17 -1.734,12.38 3.731,17.41 7.851,7.2 18.333,7.04 28.403,7.04 4.14,0 10,-2.69 11.55,-5.18 z m -5.76,22.26 c -6.17,-11.34 -27.084,-12.8 -36.486,-11.55 -6.629,0.89 -11.289,11.57 -11.098,20.51 0.07,4.59 1.5,7.64 4.645,9.33 10.445,5.6 21.132,9.35 32.369,7.53 10.96,-1.74 15.22,-17.22 10.57,-25.82 z m -110.072,24.42 c -7.106,21.89 20.222,28.79 36.176,25.41 11.105,-2.31 14.808,-23.65 4.476,-30.39 -12.781,-8.31 -35.472,-10.99 -40.652,4.98 z m -41.211,-53.73 c 8.187,8.45 22.973,8.98 34.512,7.43 7.086,-0.99 10.14,-8.15 11.125,-15.92 2.761,-21.38 -25.942,-24.98 -39.598,-19.98 -8.996,3.29 -13.68,20.58 -6.039,28.47 z m -5.777,41.43 c 8.558,10.07 22.875,12.46 34.734,9.2 7.238,-1.97 10.59,-10.43 10.422,-19.92 -0.137,-5.37 -3.828,-9.28 -7.137,-10.64 -8.43,-3.42 -18.172,-5.96 -27.367,-4.84 -11.344,1.4 -18.219,17.26 -10.652,26.2 z m 1.359,45.1 c 10.527,4.29 30.144,8.14 33.449,-6.9 4.461,-20.02 -19.168,-23.28 -31.797,-19.8 -9.668,2.65 -11.504,22.72 -1.652,26.7 z m 75.726,33.09 c 7.872,-4.47 9.524,-17.08 4.731,-24.39 -6.367,-9.67 -28.133,-15.28 -39.844,-6.81 -6.68,4.85 -10.277,24.72 3.41,29.49 10.934,3.83 21.414,7.54 31.703,1.71 z m -11.156,14.38 c -8.929,-5.52 -21.656,-7.72 -30.097,-3.02 -7.344,4.01 -7.063,14.75 -3.418,20.52 5.98,9.62 20.851,10.66 31.132,7.64 8.864,-2.57 12.18,-19.04 2.383,-25.14 z m -72.281,15.68 c 0.902,2.86 2.172,3.68 3.949,4.55 7.504,3.58 15.746,4.54 22.938,-0.08 5.179,-3.35 4.722,-11.1 0.886,-15.11 -5.621,-5.91 -17.046,-6.15 -24.359,-2.31 -4.727,2.46 -4.945,8.29 -3.414,12.95 z m 2.398,-31.35 c 3.321,9.49 15.145,8.96 24.106,7.8 11.019,-1.44 13.226,-15.56 9.312,-21.5 -5.41,-8.2 -17.757,-6.63 -27.586,-5.38 -7.992,1.02 -8.464,11.61 -5.832,19.08 z m 155.504,-285.2 c 2.71,-10.71 0,-20.89 -9.53,-24.3 -12.247,-4.32 -28.81,-10.65 -38.602,-4.05 -11.2,7.51 -16.59,28.81 -3.723,37.16 15.199,9.94 45.445,16.45 51.855,-8.81 z m -16.508,33.3 c -8.23,-9.35 -21.664,-9.04 -34.851,-12.91 -5.094,-1.47 -11.133,3.02 -13.785,7.68 -4.871,8.7 -9.754,20.36 -0.414,28.77 7.734,7.05 18.281,6.45 27.754,9.28 4.25,1.28 9.457,2.77 14.621,-0.72 10.673,-7.29 14.833,-22.91 6.675,-32.1 z m 87.308,140.14 c 2.32,-6.8 5.44,-11.79 2.8,-18.57 -3.15,-8.33 -11.22,-9.46 -18.8,-12.21 -7.07,-2.56 -18.86,-5.8 -24.78,0.4 -6.8,7.04 -9.55,21.39 -1.4,27.54 10.55,7.86 36.6,18.71 42.18,2.84 z m 143.29,61.19 c 6.23,25.39 13.97,51.14 15.9,77.97 2.84,40.07 -5.8,81.73 -31.51,112.08 2.53,-13.09 5.88,-24.15 7.64,-37.88 2.09,-16.59 -0.25,-35.07 -4.53,-51.77 -3.24,-12.64 -8.94,-24.93 -14.59,-36.67 -6.67,-13.91 -16.63,-29.04 -26.55,-41.45 -27.81,-34.58 -71.14,-102.07 -71.14,-102.07 0,0 -3.63,0.26 -5.78,0.26 -0.51,8.41 19.44,37.22 29.5,53.34 22.1,35.36 38.83,54.38 58.04,85.04 12.04,19.32 21.23,42.84 24.19,64.16 5.99,43.43 -17.43,95.47 -51.1,112.79 7.7,-32.44 6.9,-78.17 -10.38,-97.4 -32.69,-36.43 -52.12,-63.69 -75.45,-110.39 -0.67,-1.25 -6.13,6.3 -10.64,9.23 -5.06,3.36 -2.23,13.37 -4.04,20.11 -1.64,5.73 -4.34,10.15 -5.14,11.15 -6.91,8.46 -13.58,8.99 -15.04,11.53 -1.67,2.86 -0.87,10 -6.89,18.13 -3.01,4.1 -10.68,7.13 -13.8,10.97 -3.37,4.2 -4.9,17.06 -14.21,22.32 -4.421,2.48 -6.476,10.19 -10.718,13.97 -13.086,11.59 -26.149,9.35 -28.652,10.07 -3.368,0.91 -9.938,9.28 -21.637,11.29 -11.438,1.95 -17.731,-5.68 -23.668,-2.92 -14.895,6.89 -29.156,7.45 -44.981,-10.18 -4.75,-5.25 -12.964,-0.34 -23.214,-8.19 -8.997,-6.85 -9.165,-13.19 -13.75,-14.06 -8.606,-1.61 -15.028,-8.5 -18.348,-16.02 -1.723,-3.87 -3.02,-11.7 -4.024,-16.86 -1.41,-7.13 -5.015,-13.69 -5.082,-18.93 -0.086,-7.28 2.215,-11.22 1.571,-14.47 -1.059,-4.71 -4.875,-9.03 -5.34,-13.44 -0.348,-2.5 -0.559,-9.16 1.258,-12.91 2.293,-4.62 -1.606,-8.64 -3.633,-13.56 -1.934,-4.58 -3.969,-12.42 -3.348,-17.95 0.821,-7.59 5.164,-10.37 1.785,-16.35 -5.535,-9.72 -12.535,-24.88 -0.265,-44.25 2.254,-3.54 -5.141,-10.43 -5.555,-20.54 -0.469,-11 6.172,-19.12 7.988,-24 0.344,-1.75 -2.922,-1.66 -3.043,-3.53 -29.222,30.9 -55.062,59.39 -88.949,86.22 -20.703,16.36 -41.172,30.12 -64.109,42.4 -61.289,32.87 -132.492,54.86 -196.992,46.82 24.285,-19.55 54.941,-33.5 79.89,-55.71 23.641,-21.06 45.09,-39.04 66.621,-61.41 33.793,-35.11 61.254,-70.7 89.867,-112.01 8.5,-12.23 14.094,-20.41 22.012,-33.17 7.981,-12.76 16.844,-26.31 24.106,-38.96 36.613,-63.58 66.613,-122.44 96.98,-187.59 8.422,-18.01 15.504,-36.87 23.762,-54.78 2.211,-4.86 5.375,-1.25 7.609,0 10.977,6.35 22.649,11.66 34.047,17.04 9.098,4.18 17.379,7.06 25.512,10.18 20.539,7.83 40.031,12.08 61.551,16.55 35.909,7.52 100.439,5.97 100.439,5.97 l 122.33,0.04 c 0.8,0 1.63,0 3.34,0 -1.28,35.07 -9.61,69.15 -11.64,104.32 -1.54,28.5 -0.59,56.04 0.41,84.59 2.74,77.36 14.11,160.4 31.39,230.88" /><path
             id="path108"
             style="fill:#ffffff;fill-opacity:1;fill-rule:nonzero;stroke:none"
             d="m 395.137,2295.89 c -23.871,-23.8 -30.992,-32.57 -44.91,-58.88 -8.2,-15.47 -18.61,-35.33 -21.579,-60.93 49.051,18.67 89.071,56.78 125.235,98.87 26.754,31.2 47.504,72.6 73.887,103.42 -46.469,-15.58 -95.504,-45.51 -132.633,-82.48" /><path
             id="path110"
             style="fill:#ffffff;fill-opacity:1;fill-rule:nonzero;stroke:none"
             d="m 254.711,2228.98 c 18.492,31.24 44.98,65.01 72.441,88.06 -12.718,-28.58 -28.382,-56.88 -33.769,-90.67 -10.672,-67.27 -20.746,-114.39 -31.906,-175.79 30.503,21.76 62.683,55.95 95.031,79.81 24.996,18.37 50.051,30.64 75.758,48.31 15.277,10.54 25.234,24.08 37.945,36.76 -15.145,-63.84 -71.164,-128.27 -111.273,-158.31 -50.387,-37.79 -68.45,-43.81 -149.422,-126.15 -10.282,101.67 -8.454,207.33 45.195,297.98" /><path
             id="path112"
             style="fill:#ffffff;fill-opacity:1;fill-rule:nonzero;stroke:none"
             d="m 89.5234,1891.32 c 3.7657,52.8 10.1016,95.02 22.9256,146.52 8.989,35.97 28.34,89.51 56.246,111.47 -3.418,-13.04 -5.215,-32.6 -6.531,-45.79 -5.469,-54.4 4.945,-117.57 6.188,-171.91 0.617,-26.72 0.382,-47.31 -3.618,-72.41 -4.136,-26.33 -0.687,-58.62 -0.687,-58.62 0,0 14.426,16.47 27.305,36.99 28.144,44.7 37.16,57.97 59.836,82.19 28.132,30.05 59.597,57.88 95.124,82.53 -4.285,-16.7 -22.425,-49.17 -29.921,-62.22 -10.004,-17.45 -14.543,-33.32 -38.215,-72.85 -33.313,-55.55 -48.153,-63.04 -85.141,-122.45 -8.008,-12.92 -40.847,-62.06 -48.805,-77.08 -17.328,35.86 -23.863,67.19 -45.1206,125.56 -13.3516,36.68 -11.3555,73.36 -9.586,98.07" /><path
             id="path114"
             style="fill:#ffffff;fill-opacity:1;fill-rule:nonzero;stroke:none"
             d="m 38.0898,1616.65 c -20.0859,52.08 -29.28902,100.4 -36.09761,155.23 -4.16016,33.55 -2.226565,78.26 9.74611,110.52 3.1406,-7.87 9.5469,-27.86 10.414,-30.86 8.9063,-29.96 12.6329,-44.35 25.0821,-73.25 9.5234,-22.16 21.1679,-39.83 33.6289,-61.73 11.3281,-19.99 20.8907,-46.31 29.0857,-66.45 26.375,-64.57 28.321,-125.02 38.414,-131.62 7.258,15.54 9.532,30.42 10.344,37.75 7.84,71.45 17.25,136.39 107.227,220.6 8.254,-25.07 4.07,-71.28 -0.891,-96.03 -10.758,-54.12 -19.445,-80.11 -43.281,-132.56 -12.598,-27.62 -29.418,-68.27 -34.028,-81.73 -12.082,-35.06 -16.218,-53.46 -23.82,-74.19 -42.476,70.78 -94.7578,143.87 -125.8242,224.32" /><path
             id="path116"
             style="fill:#ffffff;fill-opacity:1;fill-rule:nonzero;stroke:none"
             d="m 108.121,1291.04 c -30.246,42.1 -41.2655,63.25 -60.9491,108.07 -16.5274,37.59 -21.2813,51.53 -30.961,93.63 -5.289,22.95 -8.27731,43.77 -4.1718,57.34 23.6797,-42.87 39.8398,-90.85 70.8125,-126.41 24.5894,-28.21 48.2774,-52.23 67.8244,-76.04 29.988,-36.58 53.601,-71.21 82.383,-109.3 2.425,19.09 3.363,38.43 -0.926,69.71 -5.856,42.86 -2.246,78 5.238,119.49 9.488,52.66 16.445,78.72 34.715,131.99 22.348,-43.83 22.262,-94.54 27.871,-141.03 10.828,-90.2 -17.391,-197.76 -22.941,-242.6 -1.485,-11.81 0.562,-40.96 1.16,-52.32 -42.199,33.23 -79.742,66.79 -116.141,103.29 -16.586,16.54 -39.344,43.95 -53.914,64.18" /><path
             id="path118"
             style="fill:#ffffff;fill-opacity:1;fill-rule:nonzero;stroke:none"
             d="m 268.102,960.262 c -19.215,13.84 -70.844,53.298 -95.29,84.348 -35.601,45.21 -43.437,64.58 -66.921,116.59 -2.879,6.34 -16.1683,35.78 -17.2543,55.78 76.9453,-92.91 145.8323,-106.74 219.2303,-183.84 26.934,-28.24 54.516,-54.831 69.071,-68.16 11.171,-10.281 25.042,-13.39 25.042,-13.39 0,0 -1.445,19.801 -8.687,33.578 -48.969,93.592 -58.211,191.442 -50.781,296.452 22.351,-27.67 29.402,-46.15 43.586,-72.91 15.429,-29.15 23.297,-47.17 30.507,-65.11 41.903,-104.29 52.805,-224.748 78.692,-285.37 -79.91,26.918 -142.84,41.309 -227.195,102.032" /><path
             id="path120"
             style="fill:#ffffff;fill-opacity:1;fill-rule:nonzero;stroke:none"
             d="m 595.824,714.16 c -21.613,-1.449 -63.992,-1.32 -86.586,2.36 -114.394,18.308 -220.726,101.21 -274.215,192.269 48.497,-29.59 83.563,-49.34 126.211,-64.109 37.985,-13.121 74.008,-17.012 137.418,-35.02 38.262,-10.808 76.145,-26.121 89.453,-31.101 42.418,-15.797 60.278,-11.918 60.278,-11.918 0,0 0,6.449 -15.844,23.73 -31.578,34.457 -43.141,42.699 -69.121,69.188 -8.531,8.75 -28.074,38.48 -37.996,58.25 -28.074,55.882 -31.192,100.671 -56.828,162.061 93.554,-54.94 139.125,-130.749 188.59,-226.319 15.211,-29.27 35.777,-63.082 54.57,-81.66 12.637,-12.469 30.441,-31.422 30.441,-31.422 0,0 -13.047,-3.071 -53.664,-9.071 -18.222,-2.668 -57.051,-14.757 -92.707,-17.238" /><path
             id="path122"
             style="fill:#ffffff;fill-opacity:1;fill-rule:nonzero;stroke:none"
             d="m 1049.31,706.91 c 49.39,-8.082 93.27,-20.082 138.19,-35.488 12.07,-4.152 30.44,-13.281 43.16,-19.731 31.84,-16.203 50.16,-26.722 77.52,-45.531 44.07,-30.351 91.41,-63.051 134.12,-112.672 0.91,-0.976 7.82,-8.359 3.22,-11.957 -8.37,-6.562 -29,-15.902 -35.85,-9.851 -39.08,34.761 -37.11,45.89 -84.47,88.781 -12.15,10.937 -30.49,26.289 -52.41,41.277 -21.37,14.633 -47.21,30.614 -71.22,42.453 -21.82,10.739 -55.42,13.95 -74.28,13.95 l 0.25,-0.141 c -8.57,0.328 -57.83,0.609 -69.24,-0.129 -96.808,-6.641 -92.066,-15.301 -147.886,-30.422 -45.906,-12.488 -95.16,-21.379 -144.051,-27.937 -50.09,-6.813 -94.91,-7.633 -141.859,-2.84 -63.649,6.558 -133.274,24.297 -185.242,57.789 47.515,-0.801 96.304,-9.93 143.57,-6.313 19.887,1.532 52.156,4.532 74.008,11.274 43.418,13.328 68.332,18.527 114.312,31.348 39.512,10.992 79.344,14.8 120.606,19.152 57.105,6.109 109.992,4.726 157.552,-3.012" /><path
             id="path124"
             style="fill:#ffffff;fill-opacity:1;fill-rule:nonzero;stroke:none"
             d="m 1934.52,2295.89 c 23.87,-23.8 31.02,-32.57 44.94,-58.88 8.2,-15.47 18.61,-35.33 21.58,-60.93 -49.09,18.67 -89.07,56.78 -125.26,98.87 -26.78,31.2 -47.5,72.6 -73.88,103.42 46.48,-15.58 95.51,-45.51 132.62,-82.48" /><path
             id="path126"
             style="fill:#ffffff;fill-opacity:1;fill-rule:nonzero;stroke:none"
             d="m 2074.98,2228.98 c -18.52,31.24 -44.99,65.01 -72.45,88.06 12.85,-30.75 31.57,-69.05 33.76,-90.67 6.83,-67.74 20.75,-114.39 31.92,-175.79 -30.5,21.76 -62.72,55.95 -95.06,79.81 -24.94,18.37 -50.02,30.64 -75.7,48.31 -15.32,10.54 -25.27,24.08 -37.98,36.76 15.14,-63.84 71.16,-128.27 111.28,-158.31 50.37,-37.79 68.43,-43.81 149.37,-126.15 10.28,101.67 8.46,207.33 -45.14,297.98" /><path
             id="path128"
             style="fill:#ffffff;fill-opacity:1;fill-rule:nonzero;stroke:none"
             d="m 2240.16,1891.32 c -3.81,52.8 -10.08,95.02 -22.93,146.52 -8.98,35.97 -28.34,89.51 -56.29,111.47 3.46,-13.04 5.23,-32.6 6.56,-45.79 5.52,-54.4 -4.88,-117.57 -6.17,-171.91 -0.61,-26.72 -0.39,-47.31 3.59,-72.41 4.15,-26.33 0.72,-58.62 0.72,-58.62 0,0 -14.42,16.47 -27.33,36.99 -28.09,44.7 -37.11,57.97 -59.85,82.19 -28.1,30.05 -59.6,57.88 -95.13,82.53 4.33,-16.7 22.46,-49.17 29.96,-62.22 10.04,-17.45 14.53,-33.32 38.22,-72.85 33.3,-55.55 48.14,-63.04 85.1,-122.45 8,-12.92 40.89,-62.06 48.84,-77.08 17.35,35.86 23.86,67.19 45.12,125.56 13.39,36.68 11.39,73.36 9.59,98.07" /><path
             id="path130"
             style="fill:#ffffff;fill-opacity:1;fill-rule:nonzero;stroke:none"
             d="m 2291.59,1616.65 c 20.08,52.08 29.26,100.4 36.11,155.23 4.16,33.55 2.2,78.26 -9.75,110.52 -3.14,-7.87 -9.53,-27.86 -10.42,-30.86 -8.93,-29.96 -12.63,-44.35 -25.05,-73.25 -9.54,-22.16 -21.24,-39.83 -33.67,-61.73 -11.32,-19.99 -20.88,-46.31 -29.12,-66.45 -26.34,-64.57 -28.29,-125.02 -38.38,-131.62 -7.28,15.54 -9.54,30.42 -10.33,37.75 -7.85,71.45 -17.26,136.39 -107.23,220.6 -8.28,-25.07 -4.08,-71.28 0.84,-96.03 10.81,-54.12 19.54,-80.11 43.33,-132.56 12.59,-27.62 29.42,-68.27 34.06,-81.73 12.01,-35.06 16.17,-53.46 23.83,-74.19 42.44,70.78 94.72,143.87 125.78,224.32" /><path
             id="path132"
             style="fill:#ffffff;fill-opacity:1;fill-rule:nonzero;stroke:none"
             d="m 2221.57,1291.04 c 30.27,42.1 41.26,63.25 60.93,108.07 16.53,37.59 21.26,51.53 30.98,93.63 5.29,22.95 8.26,43.77 4.14,57.34 -23.61,-42.87 -39.86,-90.85 -70.83,-126.41 -24.54,-28.21 -48.23,-52.23 -67.78,-76.04 -29.96,-36.58 -53.64,-71.21 -82.38,-109.3 -2.41,19.09 -3.38,38.43 0.87,69.71 5.9,42.86 2.29,78 -5.19,119.49 -9.49,52.66 -16.45,78.72 -34.71,131.99 -22.32,-43.83 -22.26,-94.54 -27.88,-141.03 -10.86,-90.2 17.43,-197.76 22.98,-242.6 1.45,-11.81 -0.6,-40.96 -1.19,-52.32 42.2,33.23 79.74,66.79 116.13,103.29 16.59,16.54 39.3,43.95 53.93,64.18" /><path
             id="path134"
             style="fill:#ffffff;fill-opacity:1;fill-rule:nonzero;stroke:none"
             d="m 2061.6,960.262 c 19.19,13.84 70.83,53.298 95.26,84.348 35.61,45.21 43.46,64.58 66.93,116.59 2.84,6.34 16.18,35.78 17.26,55.78 -76.94,-92.91 -145.84,-106.74 -219.24,-183.84 -26.92,-28.24 -54.48,-54.831 -69.05,-68.16 -11.17,-10.281 -25.04,-13.39 -25.04,-13.39 0,0 1.43,19.801 8.65,33.578 48.99,93.592 58.23,191.442 50.76,296.452 -22.27,-27.67 -29.37,-46.15 -43.54,-72.91 -15.4,-29.15 -23.29,-47.17 -30.48,-65.11 -41.93,-104.29 -52.88,-224.748 -78.76,-285.37 79.97,26.918 142.88,41.309 227.25,102.032" /><path
             id="path136"
             style="fill:#ffffff;fill-opacity:1;fill-rule:nonzero;stroke:none"
             d="m 1733.85,714.16 c 21.66,-1.449 64,-1.32 86.62,2.36 114.4,18.308 220.7,101.21 274.19,192.269 -48.54,-29.59 -83.6,-49.34 -126.22,-64.109 -38.01,-13.121 -74,-17.012 -137.39,-35.02 -38.3,-10.808 -76.17,-26.121 -89.49,-31.101 -42.41,-15.797 -60.27,-11.918 -60.27,-11.918 0,0 0,6.449 15.84,23.73 31.58,34.457 43.16,42.699 69.1,69.188 8.56,8.75 28.11,38.48 38.02,58.25 28.07,55.882 31.2,100.671 56.87,162.061 -93.56,-54.94 -139.23,-130.749 -188.66,-226.319 -15.17,-29.27 -35.74,-63.082 -54.51,-81.66 -12.62,-12.469 -30.47,-31.422 -30.47,-31.422 0,0 13.05,-3.071 53.7,-9.071 18.2,-2.668 57,-14.757 92.67,-17.238" /><path
             id="path138"
             style="fill:#ffffff;fill-opacity:1;fill-rule:nonzero;stroke:none"
             d="m 1280.37,706.91 c -49.38,-8.082 -93.23,-20.082 -138.18,-35.488 -12.12,-4.152 -30.46,-13.281 -43.18,-19.731 -31.83,-16.203 -50.12,-26.722 -77.51,-45.531 -44.102,-30.351 -91.371,-63.051 -134.121,-112.672 -0.926,-0.976 -7.859,-8.359 -3.223,-11.957 8.387,-6.562 29.024,-15.902 35.817,-9.851 39.097,34.761 37.113,45.89 84.517,88.781 12.1,10.937 30.44,26.289 52.39,41.277 21.42,14.633 47.19,30.614 71.22,42.453 21.79,10.739 55.45,13.95 74.28,13.95 L 1202.11,658 c 8.59,0.328 57.83,0.609 69.27,-0.129 96.82,-6.641 92.06,-15.301 147.85,-30.422 45.94,-12.488 95.18,-21.379 144.08,-27.937 50.06,-6.813 94.91,-7.633 141.86,-2.84 63.66,6.558 133.26,24.297 185.21,57.789 -47.49,-0.801 -96.25,-9.93 -143.56,-6.313 -19.91,1.532 -52.13,4.532 -73.99,11.274 -43.42,13.328 -68.35,18.527 -114.29,31.348 -39.53,10.992 -79.36,14.8 -120.6,19.152 -57.13,6.109 -110.01,4.726 -157.57,-3.012" /><path
             id="path140"
             style="fill:#ffffff;fill-opacity:1;fill-rule:nonzero;stroke:none"
             d="m 1103.64,2835.37 -86.96,-322.88 h -92.305 l -57.738,210.33 -56.457,-210.33 h -92.082 l -86.95,322.88 h 86.903 l 49.531,-222.26 59.586,222.26 h 83.051 l 56.527,-222.26 52.004,222.26 h 84.89" /><path
             id="path142"
             style="fill:#ffffff;fill-opacity:1;fill-rule:nonzero;stroke:none"
             d="m 1390.51,2772.92 h -148.54 v -60.07 h 137.7 v -62.45 h -137.7 v -137.91 h -82.81 v 322.88 h 231.35 v -62.45" /><path
             id="path144"
             style="fill:#ffffff;fill-opacity:1;fill-rule:nonzero;stroke:none"
             d="m 1628.38,2731.61 c 0,9.08 -2.46,16.9 -7.36,23.46 -4.93,6.57 -10.63,11.14 -17.13,13.74 -8.68,3.46 -17.13,5.37 -25.37,5.73 -8.25,0.36 -19.24,0.55 -32.97,0.55 h -14.31 v -96.5 h 23.85 c 14.17,0 25.84,0.87 35.03,2.6 9.18,1.73 16.87,5.2 23.08,10.38 5.35,4.61 9.22,10.14 11.6,16.56 2.39,6.41 3.58,14.24 3.58,23.48 z m 86.09,1.85 c 0,-14.46 -2.54,-28.59 -7.59,-42.4 -5.06,-13.81 -12.29,-25.41 -21.68,-34.79 -12.88,-12.73 -27.22,-22.34 -43.05,-28.85 -15.82,-6.51 -35.53,-9.76 -59.08,-9.76 h -51.83 v -105.17 h -83.27 v 322.88 h 137.05 c 20.53,0 37.83,-1.77 51.92,-5.31 14.1,-3.55 26.58,-8.86 37.42,-15.95 13,-8.52 22.94,-19.43 29.81,-32.73 6.87,-13.31 10.3,-29.28 10.3,-47.92" /><path
             id="path146"
             style="fill:#ffffff;fill-opacity:1;fill-rule:nonzero;stroke:none"
             d="M 555.395,259.461 496.988,70.9883 H 432.855 L 394.449,198.031 356.516,70.9883 H 291.738 L 233.84,259.461 h 63.379 l 32.351,-129.902 40.203,129.902 h 53.543 l 38.231,-129.902 31.82,129.902 h 62.028" /><path
             id="path148"
             style="fill:#ffffff;fill-opacity:1;fill-rule:nonzero;stroke:none"
             d="m 696.469,287.828 h -4.516 c -2.68,0.781 -6.168,1.684 -10.461,2.684 -4.297,1.008 -8.898,1.508 -13.804,1.508 -11.829,0 -19.836,-2.122 -24.016,-6.379 -4.184,-4.25 -6.274,-12.469 -6.274,-24.672 v -1.508 h 46.485 V 218.512 H 639.41 V 70.9883 H 578.824 V 218.512 H 552.98 v 40.949 h 25.844 v 5.199 c 0,23.051 6.125,40.328 18.379,51.86 12.25,11.519 30.793,17.289 55.633,17.289 8.949,0 17.062,-0.309 24.336,-0.93 7.269,-0.609 13.703,-1.418 19.297,-2.43 v -42.621" /><path
             id="path150"
             style="fill:#ffffff;fill-opacity:1;fill-rule:nonzero;stroke:none"
             d="m 836.703,166.57 c 0,18.321 -3.125,31.61 -9.375,39.879 -6.254,8.262 -16.133,12.391 -29.637,12.391 -5.695,0 -11.558,-0.86 -17.586,-2.602 -6.023,-1.718 -11.777,-4.199 -17.246,-7.449 v -94.668 c 4.02,-1.57 8.317,-2.57 12.899,-3.019 4.574,-0.454 9.097,-0.672 13.558,-0.672 15.961,0 27.852,4.66 35.668,13.992 7.813,9.316 11.719,23.379 11.719,42.148 z m 62.266,1.258 c 0,-15.558 -2.375,-29.707 -7.121,-42.457 C 887.094,112.609 880.863,102.09 873.152,93.8086 865.113,85.0898 856,78.4805 845.836,74.0117 835.664,69.5391 824.77,67.3008 813.145,67.3008 c -10.727,0 -19.833,1.1484 -27.321,3.4375 -7.488,2.2929 -15.144,5.5 -22.965,9.6406 V 1.85156 H 702.273 V 259.461 h 60.586 v -19.629 c 9.274,7.379 18.746,13.367 28.411,17.949 9.668,4.59 20.816,6.879 33.441,6.879 23.469,0 41.711,-8.609 54.73,-25.84 13.016,-17.23 19.528,-40.898 19.528,-70.992" /><path
             id="path152"
             style="fill:#ffffff;fill-opacity:1;fill-rule:nonzero;stroke:none"
             d="m 927.602,70.9883 h 62.7695 v 65.9609 H 927.602 Z" /><path
             id="path154"
             style="fill:#ffffff;fill-opacity:1;fill-rule:nonzero;stroke:none"
             d="m 1150.74,119.32 c 3.92,4.809 6.86,10.61 8.82,17.371 1.95,6.77 2.93,16.149 2.93,28.118 0,11.07 -1.01,20.363 -3.02,27.863 -2.01,7.488 -4.81,13.476 -8.39,17.949 -3.58,4.59 -7.89,7.828 -12.93,9.738 -5.02,1.903 -10.45,2.852 -16.27,2.852 -5.82,0 -10.99,-0.781 -15.52,-2.352 -4.53,-1.57 -8.87,-4.699 -13.01,-9.398 -3.69,-4.371 -6.63,-10.352 -8.81,-17.961 -2.19,-7.609 -3.28,-17.172 -3.28,-28.691 0,-10.297 0.95,-19.219 2.86,-26.77 1.9,-7.559 4.7,-13.617 8.39,-18.207 3.58,-4.371 7.86,-7.551 12.84,-9.57 4.98,-2.012 10.66,-3.024 17.03,-3.024 5.48,0 10.72,0.934 15.7,2.774 4.97,1.847 9.2,4.949 12.66,9.308 z m 74.36,45.821 c 0,-31 -9.05,-55.411 -27.11,-73.2504 -18.07,-17.8515 -43.44,-26.7695 -76.11,-26.7695 -32.67,0 -58.04,8.918 -76.11,26.7695 -18.07,17.8394 -27.1,42.2504 -27.1,73.2504 0,31.218 9.08,55.718 27.27,73.507 18.18,17.793 43.49,26.692 75.94,26.692 32.9,0 58.32,-8.961 76.27,-26.86 17.96,-17.902 26.95,-42.351 26.95,-73.339" /><path
             id="path156"
             style="fill:#ffffff;fill-opacity:1;fill-rule:nonzero;stroke:none"
             d="m 1387.82,201.898 h -5.36 c -2.57,0.891 -6.7,1.563 -12.39,2.012 -5.69,0.449 -10.44,0.668 -14.24,0.668 -8.59,0 -16.18,-0.558 -22.77,-1.68 -6.59,-1.117 -13.68,-3.019 -21.26,-5.699 V 70.9883 h -60.59 V 259.461 h 60.59 V 231.77 c 13.28,11.41 24.83,18.992 34.66,22.742 9.82,3.75 18.86,5.617 27.12,5.617 2.12,0 4.53,-0.059 7.2,-0.168 2.69,-0.109 5.03,-0.281 7.04,-0.5 v -57.563" /><path
             id="path158"
             style="fill:#ffffff;fill-opacity:1;fill-rule:nonzero;stroke:none"
             d="m 1527.55,130.398 v 85.422 c -3.46,1.461 -7.71,2.598 -12.73,3.442 -5.02,0.84 -9.54,1.258 -13.56,1.258 -15.85,0 -27.74,-4.559 -35.66,-13.668 -7.93,-9.122 -11.89,-21.852 -11.89,-38.184 0,-18.129 3.37,-30.777 10.13,-37.93 6.75,-7.156 16.77,-10.75 30.06,-10.75 6.02,0 11.94,0.953 17.74,2.864 5.81,1.898 11.1,4.418 15.91,7.546 z m 60.58,-37.7574 c 0,-17.6797 -2.51,-32.5625 -7.54,-44.6406 -5.04,-12.0898 -12.09,-21.5391 -21.16,-28.3711 -9.06,-6.9297 -20,-11.93749 -32.8,-15.01952 C 1513.82,1.53906 1499.36,0 1483.24,0 c -13.08,0 -25.98,0.789062 -38.68,2.35156 -12.7,1.57032 -23.69,3.45703 -32.98,5.69922 V 55.2188 h 7.38 c 7.37,-2.9102 16.36,-5.5704 26.98,-7.9805 10.61,-2.3985 20.1,-3.5977 28.48,-3.5977 11.18,0 20.26,1.0274 27.24,3.0977 6.98,2.0703 12.31,5.0117 16.01,8.8125 3.45,3.5781 5.97,8.1601 7.54,13.7578 1.56,5.6016 2.34,12.3125 2.34,20.1406 v 3.5196 c -7.27,-5.9297 -15.31,-10.6172 -24.14,-14.0899 -8.82,-3.4805 -18.65,-5.1992 -29.5,-5.1992 -26.37,0 -46.71,7.9414 -61.01,23.8203 -14.31,15.891 -21.45,40.059 -21.45,72.5 0,15.559 2.17,28.988 6.53,40.289 4.35,11.301 10.51,21.141 18.44,29.543 7.37,7.816 16.45,13.918 27.23,18.289 10.78,4.359 21.83,6.539 33.11,6.539 10.17,0 19.42,-1.199 27.74,-3.601 8.32,-2.411 15.9,-5.739 22.72,-9.989 l 2.18,8.391 h 58.73 V 92.6406" /><path
             id="path160"
             style="fill:#ffffff;fill-opacity:1;fill-rule:nonzero;stroke:none"
             d="M 1804.74,332.129 1671.64,16.6211 h -51.51 l 132.55,315.5079 h 52.06" /><path
             id="path162"
             style="fill:#ffffff;fill-opacity:1;fill-rule:nonzero;stroke:none"
             d="M 1908.39,70.9883 H 1847.8 V 259.461 h 60.59 z m 1.67,215.3207 h -63.94 v 45.82 h 63.94 v -45.82" /><path
             id="path164"
             style="fill:#ffffff;fill-opacity:1;fill-rule:nonzero;stroke:none"
             d="m 2068.6,72.6484 c -6.5,-1.6679 -13.37,-2.9804 -20.65,-3.9375 -7.27,-0.9297 -16.17,-1.4101 -26.69,-1.4101 -23.49,0 -40.97,4.75 -52.44,14.2695 -11.47,9.5 -17.2,25.7817 -17.2,48.8277 v 88.114 h -24.84 v 40.949 h 24.84 v 53.867 h 60.58 v -53.867 h 56.4 v -40.949 h -56.4 v -66.891 c 0,-6.621 0.06,-12.391 0.18,-17.32 0.11,-4.93 0.99,-9.352 2.67,-13.281 1.57,-3.93 4.32,-7.032 8.28,-9.329 3.96,-2.293 9.74,-3.441 17.32,-3.441 3.12,0 7.23,0.672 12.29,2.012 5.08,1.347 8.63,2.578 10.64,3.687 h 5.02 V 72.6484" /></g></g></g></g></svg>