<?xml version="1.0" encoding="UTF-8" standalone="no"?>
<svg
   xmlns:dc="http://purl.org/dc/elements/1.1/"
   xmlns:cc="http://creativecommons.org/ns#"
   xmlns:rdf="http://www.w3.org/1999/02/22-rdf-syntax-ns#"
   xmlns:svg="http://www.w3.org/2000/svg"
   xmlns="http://www.w3.org/2000/svg"
   viewBox="0 0 846.93335 378.05334"
   height="378.05334"
   width="846.93335"
   xml:space="preserve"
   id="svg2"
   version="1.1"><metadata
     id="metadata8"><rdf:RDF><cc:Work
         rdf:about=""><dc:format>image/svg+xml</dc:format><dc:type
           rdf:resource="http://purl.org/dc/dcmitype/StillImage" /></cc:Work></rdf:RDF></metadata><defs
     id="defs6"><clipPath
       id="clipPath20"
       clipPathUnits="userSpaceOnUse"><path
         id="path18"
         d="M 0,0 H 6351.95 V 2835 H 0 Z" /></clipPath></defs><g
     transform="matrix(1.3333333,0,0,-1.3333333,0,378.05333)"
     id="g10"><g
       transform="scale(0.1)"
       id="g12"><g
         id="g14"><g
           clip-path="url(#clipPath20)"
           id="g16"><path
             id="path22"
             style="fill:#ffffff;fill-opacity:1;fill-rule:nonzero;stroke:none"
             d="m 1340.5,2131.88 c 12.5,27.07 24.08,48.62 40.78,74.3 7.39,11.32 15.71,19.22 23.13,30.68 -3.56,1.02 -8.73,-1.91 -10.98,-3.51 -7.42,-5.38 -10.76,-14.12 -16.7,-18.8 -14.04,-11.07 -13.65,-21.1 -20.99,-26.28 -6.58,-4.63 -8.46,-7.68 -13.07,-14.9 -3.07,-4.82 -5.33,-8.73 -8.59,-18.23 -1.16,-3.42 -3.44,-0.39 -8.93,-7.93 -7.19,-9.8 -10.41,-20.39 -13.38,-32.26 -0.95,-3.9 -7.6,-5.97 -11.85,-14.07 -5.73,-10.92 -9.44,-21.03 -11.92,-36.95 -0.6,-3.69 -6.85,-6.25 -11.15,-16.53 -3.05,-7.23 -5.23,-8.83 -7.91,-22.45 -1.64,-8.31 -5.43,-9.51 -9.69,-21.57 -3.3,-9.2 -3.43,-18.06 -4.59,-30.08 -0.25,-2.33 -4.2,-6.95 -7.83,-13.69 -6.09,-11.26 -5.9,-18.78 -8.32,-30.41 -0.92,-4.21 -5.64,-9.77 -10.18,-27.79 -3.98,-15.98 -0.33,-26.57 -1.67,-34.45 -3.52,-20.44 -7.04,-38.21 -5.14,-58.35 0.94,-9.85 2.44,-20.01 1.78,-29.48 -1.88,-29.7 -3.48,-54.17 -3.32,-87.83 0.11,-18.32 1.54,-43.41 4.31,-64.29 3.05,-23.06 7.44,-41.07 7.44,-41.07 h 75.14 c 0,0 -2.93,43.45 0.96,89.19 2.3,27.42 8.83,56.49 14.76,76.9 7.5,26.02 12.17,39.5 26.37,73.84 0.29,0.76 -0.1,3.98 -3.85,0.83 -7.85,-6.59 -14.39,-12.37 -20.58,-21.69 -9.46,-14.25 -15.22,-25.99 -22.87,-40.63 -8.95,-17.02 -13.89,-31.85 -23.11,-52.52 -0.55,14.92 1.87,29.12 4.9,42.87 3.11,14.04 5.57,25.16 9.98,37.26 7.83,21.34 15.43,39.16 27.99,59.02 7.29,11.48 16.58,21.78 26.02,30.33 11.29,10.31 21.73,19.39 33.55,29.49 -12.42,6.41 -28.96,-6.95 -32.26,-7.63 -17.48,-3.42 -24.59,-19.61 -29.95,-21.84 -7.63,-3.19 -12.07,-7.87 -17.38,-14.32 -4.08,-4.86 -5.31,-12.34 -9.59,-14.99 -7.13,-4.44 -12.36,-11.14 -17.26,-20.49 -2.02,-3.87 -7.5,-22.13 -13.6,-19.79 10.43,61.93 32.29,120 67.38,171.69 22.25,32.78 46.45,60.9 82.13,86.11 4.69,3.33 5.61,4.89 -0.95,4.66 -33.34,-4.05 -35.37,-19.28 -40.86,-20.71 -5.22,-1.35 -11.66,-7.52 -15.78,-11.54 -7.41,-7.32 -7.29,-13.5 -10.12,-15.42 -6.09,-4.25 -10.67,-8.66 -14.83,-16.02 -2.18,-3.85 -5.85,-12.31 -9.1,-14.24 -8.57,-4.96 -16.85,-12.19 -20.99,-19.99 -3.05,-5.7 -4.26,-11.88 -8.25,-17.49 -4.27,-6.02 -10.23,-10.52 -15.37,-14.88 3.91,26.46 16.37,57.82 24.96,84.87 11.53,36.12 25.53,68.95 41.33,103.07" /><path
             id="path24"
             style="fill:#ffffff;fill-opacity:1;fill-rule:nonzero;stroke:none"
             d="m 1417.2,1917.38 c 28.46,63.85 58.38,111.9 97.27,168.11 5.08,7.37 9.65,14.58 14.08,21.49 1.99,3.11 11.56,16.85 13.55,19.76 13.03,19.69 18.52,25.71 31.86,44.53 3.61,5.11 6.54,9.13 8.09,15.04 2.85,11.01 -6.61,18.4 -8.79,28.96 -2.19,10.79 -1,22.57 3.96,31.68 3.11,5.69 6.19,7.93 9.32,15.57 6.05,14.73 3.96,46.6 10.86,47.43 -1.74,-15.12 -2.15,-32.13 0.23,-46.63 2.76,-16.93 13.03,-27.18 17.27,-45.11 11.42,2.06 23.83,1.57 33.45,0.74 9.54,-0.82 21.61,1.83 31.39,5.18 13.26,4.53 24.28,12.78 37.79,15.98 -11.48,-11.05 -27.71,-15.2 -41.32,-23.59 -5,-3.14 -9.71,-7.29 -13.05,-12.45 -5.47,-8.5 -9.79,-16.64 -18.34,-20.37 -15.2,-6.63 -28.24,-3.49 -45.57,-6.72 -25.76,-26.53 -50.02,-62.62 -72.38,-100.57 -56.74,-95.98 -104.04,-195.37 -131.54,-297.29 9.51,17.73 18.59,34.88 28.9,51.75 11.37,18.74 24.18,37.09 38.13,55.47 32.65,43.05 64.98,80.64 101.17,120.19 29.22,31.95 61.25,58.76 96.95,81.18 47.19,29.57 105.41,50.28 156.57,39.6 5.82,-1.36 14.14,-2.91 17.77,-6.74 -64.1,8.98 -121.54,-13.42 -164.4,-47.75 -33.84,-27.07 -62.38,-54.55 -91.38,-90.26 -14.98,-17.21 -28.46,-36.12 -41.84,-54.45 -14,-19.27 -26.44,-39.55 -38.77,-59.84 -41.54,-68.6 -72.99,-141.24 -96.11,-216.5 -0.66,-2.38 -0.8,-4.78 -1.47,-7.16 1.1,1.69 2.72,3.53 3.81,5.25 31.14,50.6 68.56,99.45 115.96,132.22 4.14,2.82 8.46,8.26 9.57,12.53 5.14,20.09 -10.18,29.75 11,57.52 4.86,6.38 11.5,8.7 16.09,14.64 8.67,13.4 15.74,37.41 23.01,43.86 -3.65,-15.64 -12.62,-32.14 -14.53,-48.25 -2.03,-17.69 2.5,-32.15 3.28,-50.89 12.52,-1.71 22.21,-7 32.03,-10.04 15.27,-4.78 24.45,-3.56 39.57,-2.26 6.44,0.55 18.14,4.32 25.1,2.9 -14.61,-7.98 -34.34,-6.51 -49.28,-14.15 -10.47,-5.35 -13.5,-13.26 -27.91,-16.04 -12.85,-2.5 -23.65,-1.16 -31.99,3.12 -6.49,3.27 -11.56,4.64 -17.39,1.85 -15.56,-7.47 -26.19,-18.02 -38.71,-30.65 -29.08,-29.26 -52.81,-61.93 -74.96,-104.74 -5.86,-11.41 -11.13,-22.65 -16.13,-34.26 -2.46,-5.65 -8.59,-21.34 -8.59,-21.34 h -75.98 c 0,0 -0.2,21.91 0.53,29.91 1.44,15.94 3.61,27.76 6.72,43.93 4.39,23.27 8.71,44.38 14.74,66.95 5.88,21.96 12.23,42.56 19.75,63.65 15.7,43.96 32.4,86.06 50.66,127.06" /><path
             id="path26"
             style="fill:#ffffff;fill-opacity:1;fill-rule:nonzero;stroke:none"
             d="m 682.555,1325.53 c 27.734,22.68 48.261,35.82 75.957,52.33 11.238,6.72 28.25,14.33 41.328,20.26 47.988,21.68 111.465,37.67 171.269,38.77 1.094,0 1.016,-0.05 1.016,-0.05 h 445.895 c 0,0 -1.66,0.05 1.56,0.05 14.2,0 28.23,-4.94 36.92,-13.15 8.71,-8.26 12.87,-20.97 15.14,-33.62 1.93,-10.78 0.97,-20.36 -1.53,-31.89 -1.97,-9.11 -3.44,-14.54 -8.51,-22.28 -3.07,-4.71 -5.98,-7.94 -11.68,-12.48 -5.86,-4.68 -14.16,-6.31 -23.67,-6.4 -1,-0.04 -3.13,-0.1 -3.05,-0.07 0.1,0.07 -521.563,0.07 -521.563,0.07 0,0 -3.242,0.01 -4.864,0.01 -34.152,0.11 -70.097,-1.63 -103.839,-6.03 -25.848,-3.53 -51.746,-7.56 -76.727,-14.06 -31.504,-8.23 -61.836,-19.62 -92.109,-30.91 16.777,22.31 36.152,41.24 58.457,59.45" /><path
             id="path28"
             style="fill:#ffffff;fill-opacity:1;fill-rule:nonzero;stroke:none"
             d="m 837.379,1502.94 c 27.402,19.79 60.664,36.04 90.125,47.32 14.953,5.66 34.816,11.93 50.598,15.86 19.062,4.81 40.968,8.42 58.828,8.94 5.39,0.15 0.8,0.04 0.8,0.04 l 382.44,0.04 c 0,0 8.2,-0.44 11.04,-1 7.18,-1.55 12.98,-4.48 15.39,-6.01 5.93,-3.81 13.4,-11.81 17.3,-18.14 9.92,-16.35 11.68,-34 8.46,-52.37 -3.67,-20.97 -19.61,-44.86 -41.23,-45.45 -3.77,-0.1 -11.27,0 -11.27,0 h -414.24 c 0,0 -24.1,-0.47 -35.116,-0.87 -20.371,-0.8 -42.969,-3.12 -60.754,-5.74 -15.215,-2.19 -30.078,-5.07 -45.312,-9.15 -51.063,-13.8 -95.438,-39.7 -141.856,-59.84 31.262,54.63 73.547,96.48 114.797,126.37" /><path
             id="path30"
             style="fill:#ffffff;fill-opacity:1;fill-rule:nonzero;stroke:none"
             d="m 623.434,1243.01 c 66.484,39.28 146.582,54.77 219.882,57.23 1.746,0.08 5.223,0.19 5.223,0.19 l 571.731,-0.05 c 0,0 1.03,0 6.21,0.05 34.65,0.03 47.3,-34.35 47.15,-62.15 -0.06,-9.16 -1.62,-18.5 -4.16,-24.77 -3.28,-8.19 -6.94,-14.88 -12.89,-21.34 -2.13,-2.34 -9.79,-7.72 -13.17,-8.55 -7.93,-1.94 -17.67,-1.72 -17.61,-1.72 0.07,0 -425.26,-0.08 -425.26,0 0,0 -22.946,0.92 -38.876,2.45 -11.473,1.13 -20.176,2.33 -32.09,4.6 -29.285,5.82 -53.562,15.35 -78.926,23.17 -16.921,5.24 -34.714,9.13 -53.269,11.94 -34.141,5.22 -71.426,7.6 -105.899,4.99 -43.847,-3.26 -82.843,-11.85 -124.55,-25.08 7.054,10.99 36.371,27.12 56.504,39.04" /><path
             id="path32"
             style="fill:#ffffff;fill-opacity:1;fill-rule:nonzero;stroke:none"
             d="m 931.391,1063.73 c -19.539,6.89 -38.614,15.78 -55.723,27.07 -22.285,14.75 -33.211,26.48 -62,39.79 -24.648,11.39 -44.336,22.63 -78.691,35.08 -16.582,6.01 -43.45,14.28 -66.485,18.22 -32.91,5.59 -64.637,8.04 -64.637,8.04 0,0 6.719,4.19 10.774,5.43 33.59,10.22 63.246,15.21 97.738,17.76 30.246,2.27 58.039,-0.68 88.352,-5.42 12.441,-1.96 28.613,-5.79 42.676,-9.8 45.632,-12.99 97.519,-33.59 143.543,-33.67 2.57,0 2.277,0.04 2.277,0.04 h 425.015 c 0,0 -3.22,0 1.29,0 12.87,0.04 36.94,-4.13 46.6,-21.21 11.21,-19.68 14.69,-43.12 5.28,-66.6 -2.85,-7.05 -7.58,-17.16 -14.38,-23.28 -5.95,-5.4 -15.66,-8.87 -21.27,-8.87 -1.62,-0.08 -4.39,0 -4.39,0 h -371.69 c 0,0 1.41,0 -2.02,0 -38.01,0 -85.861,4.6 -122.259,17.42" /><path
             id="path34"
             style="fill:#ffffff;fill-opacity:1;fill-rule:nonzero;stroke:none"
             d="m 1100.71,931.891 c -10.52,10.789 -25.01,27.328 -38.16,43.039 -25.21,30.07 -36.52,57.16 -36.52,57.16 h 247.91 c 0,0 0.66,-28.6 -5.06,-61.719 -5.37,-30.75 -16.72,-63.172 -28.81,-86.66 -0.43,-24.082 9.73,-46.473 11.41,-70.262 -20.37,-12.5 -42.27,-24.871 -60.53,-42.418 -1.15,-1.082 -3.04,-1.082 -3.81,1.828 -9.77,36.661 -14.93,69.34 -22.95,105.59 -22.59,17.469 -43.79,33.039 -63.48,53.442" /><path
             id="path36"
             style="fill:#ffffff;fill-opacity:1;fill-rule:nonzero;stroke:none"
             d="m 1356.21,952.219 c -7.02,12.949 -12.25,30.051 -20.3,40.222 -1.74,-9.07 0.39,-14.652 -0.84,-23.332 -1.13,-7.269 -7.09,-4.25 -8.3,-0.828 -3.47,9.84 -7.17,21.989 -10.35,32.079 -5.27,16.8 -6.97,31.68 -6.97,31.68 l 41.25,0.05 c 0,0 1.58,-0.39 2.3,-4.4 1.98,-10.39 1.49,-20.54 4.34,-32.581 3.65,-15.507 8.38,-29.668 14.06,-44.129 4.96,-12.73 11.37,-25.57 16.56,-38.21 0.71,-1.661 1.04,-4.86 -0.21,-6.52 -1.52,-1.922 -4.16,-1.68 -5.67,0 -11.81,13.43 -16.58,28.641 -25.87,45.969" /><path
             id="path38"
             style="fill:#ffffff;fill-opacity:1;fill-rule:nonzero;stroke:none"
             d="m 1420.03,922.738 c -7.01,14.953 -16.87,31.762 -16.01,48.723 4.57,-5.992 6.44,-10.281 12.71,-13.621 2.87,-0.91 8.91,-0.059 7.39,4.961 -2.78,9.34 -7.07,17.25 -11.06,30.07 -5.92,18.949 -11.68,39.199 -11.68,39.199 l -42.09,0.02 c 0,0 2.33,-17.08 11.9,-43.289 8.41,-23.211 21.4,-49.77 35.62,-74.672 11.58,-20.481 22.11,-38.348 35.26,-53.309 4.49,-5.148 15.52,-0.629 10.76,6.071 -12.48,17.64 -24.12,37.168 -32.8,55.847" /><path
             id="path40"
             style="fill:#ffffff;fill-opacity:1;fill-rule:nonzero;stroke:none"
             d="m 1693.39,2345.62 c -9.14,-3.98 -17.2,-9.13 -21.75,-17.91 -3.32,-6.3 -5.57,-15.92 0.78,-21.33 11.11,-9.49 24.37,0.22 29.74,9.91 6.8,12.35 5.02,35.96 5.02,35.96 0,0 -7.89,-4.11 -13.79,-6.63" /><path
             id="path42"
             style="fill:#ffffff;fill-opacity:1;fill-rule:nonzero;stroke:none"
             d="m 1703.06,2286.68 c 3.99,7.54 12.74,15.68 22.33,21.51 10.84,6.63 22.07,13.06 29.88,17.72 7.81,4.7 9.3,7.99 9.3,7.99 0,0 -6.43,-2.22 -9.97,-4.3 -19.27,-11.49 -40.31,-24.55 -48.86,-28.32 -10.8,-4.71 -25.47,-5.62 -38.69,-7.31 -2.11,16.69 -6.45,23.62 -6.39,38.44 0.1,7.11 1.82,16.34 3.03,22.77 4.14,21.43 4.96,32.25 4.96,32.25 0,0 -3.28,-3.05 -4.48,-12.48 -1.34,-8.52 -2.3,-11.66 -4.25,-21.74 -2.23,-11.62 -4.55,-21.47 -11.51,-28.73 -10.02,-10.37 -19.29,-28.82 -11.56,-42.96 4.51,-8.26 12.05,-7.06 14.41,-9.19 2.35,-2.12 3.79,-7.21 10.92,-9.57 15.39,-5.14 32.83,8.67 40.88,23.92" /><path
             id="path44"
             style="fill:#ffffff;fill-opacity:1;fill-rule:nonzero;stroke:none"
             d="m 1683.1,2242.61 c 5.23,8.48 10.59,14.43 18.83,19.48 13.65,8.33 23.79,13.97 32.13,18.23 3.61,1.82 6.62,3.98 7.54,7.84 -3.73,-1.4 -17.84,-8.03 -31.84,-16.36 -10.02,-5.98 -27.26,-13.46 -38.85,-13.99 -4.59,-0.2 -7.99,0.93 -11.74,1.05 -7.77,0.32 -17.65,-1.56 -17.65,-1.56 0,0 -2.52,10.99 -5.84,18.9 -1.66,4.05 -4.36,8.21 -5.8,15.82 -0.98,5.08 -1.25,12.71 -0.86,17.25 1.13,13.73 4.84,27.07 4.2,40.97 -8.64,-17.93 -5.1,-40.01 -15.24,-53.88 -4.27,-5.83 -7.65,-10.43 -11.01,-17.78 -5.57,-12.06 -4.9,-24.55 2.61,-36.18 4.34,-6.63 13.91,-6.38 15.57,-7.67 2.5,-1.85 4.65,-8.78 14.01,-10.86 16.01,-3.6 34.9,3.83 43.94,18.74" /><path
             id="path46"
             style="fill:#ffffff;fill-opacity:1;fill-rule:nonzero;stroke:none"
             d="m 1687.57,1892.02 c 3.73,7.53 6.14,17.43 10.9,24.41 -10.76,-1.61 -12.5,-2.84 -28.05,-4.54 -3.37,-0.33 -10.39,-3.85 -12.71,-6.16 -6.15,-6.21 -11.52,-11.96 -9.12,-22.38 0.92,-4.05 4.49,-7.03 6.48,-7.65 12.93,-4.2 26.06,3.49 32.5,16.32" /><path
             id="path48"
             style="fill:#ffffff;fill-opacity:1;fill-rule:nonzero;stroke:none"
             d="m 1700.7,1871.5 c 14.69,3.43 31.66,10.64 38.47,8.37 -13.78,-7.34 -31.17,-9.99 -46.44,-14.35 -11.64,-3.36 -19.96,-12.16 -30.37,-20.16 -9.55,-7.26 -22.25,-10.21 -33.6,-4.87 -3.82,1.82 -7.53,7.99 -8.2,11.28 -0.58,2.64 -6.07,5.27 -8.89,7.58 -2.83,2.36 -4.19,8.25 -4.25,10.53 -0.49,20.33 14.98,28.54 29.9,40.48 11.23,9 25.8,47.17 34.69,55.08 -1.59,-12.3 -17.58,-35.51 -24.55,-53.57 -5.53,-14.4 -3.71,-25.9 -7.29,-41.06 10.66,-0.68 22.56,-2.91 33.28,-3.08 8.42,-0.11 18.6,1.72 27.25,3.77" /><path
             id="path50"
             style="fill:#ffffff;fill-opacity:1;fill-rule:nonzero;stroke:none"
             d="m 1685.23,1840.15 c -8.26,-1.53 -18.36,-4.13 -25.23,-5.59 -23.97,-5.07 -35.42,6.66 -54.54,6.44 1.68,21.9 -5.91,31.71 0.34,45.87 5.58,12.6 10.76,25.94 15.56,36.62 3.89,8.56 5.06,15.79 5.06,15.79 0,0 -5.8,-8.69 -22.3,-40.86 -5.75,-11.22 -16.04,-13.63 -25.16,-24.23 -10.51,-12.13 -16.54,-37.75 2.89,-48.51 3.87,-2.11 3.3,-8.78 6.11,-11.47 12.99,-12.2 39.2,-10.98 55.59,3.9 13.05,11.89 28.91,13.82 42.42,17.32 7.91,2.04 14.85,5.4 14.85,5.4 0,0 -3.75,1.53 -15.59,-0.68" /><path
             id="path52"
             style="fill:#ffffff;fill-opacity:1;fill-rule:nonzero;stroke:none"
             d="m 1205.23,1585.9 c -0.96,0 -1.97,0 0,0 z m -111.9,315.55 c -7.98,-10.56 -11.67,-22.71 -20.49,-31.93 -4.6,-4.82 -11.63,-2.56 -15.27,3 -4.05,6.28 -10.59,15.19 -5.73,21.4 8.01,10.26 24.76,16.81 39,14.96 0.84,-0.1 5.43,-3.49 2.49,-7.43 z M 1055,1841.06 c -4.48,-11.96 -17.8,-13.25 -29.15,-15.62 -2.11,-0.47 -8.64,0 -11.57,2.87 -4.89,4.79 -9.14,11.34 -8.29,19.54 0.46,5.05 4.69,10.01 9.9,12.03 9.48,3.67 20.71,9.57 30.04,4.33 8.02,-4.49 12.23,-14.73 9.07,-23.15 z m -24.56,-63.21 c -3.26,-4.72 -11.64,10.93 -12.73,18.11 -3.13,20.77 15.08,26.07 30.24,25.42 0.47,-12.38 -9.13,-31.56 -17.51,-43.53 z m -16.38,-56.04 c -2.97,-8.36 -4.4,-16.03 -7.72,-23.69 -3.22,-7.4 -16.969,-10.04 -24.606,-7.67 -10.898,3.37 -20.234,27.83 -7.851,37.2 9.472,7.08 19.285,8.22 31.357,9.7 2.17,0.26 10.27,-0.23 10.59,-0.99 2.02,-5.08 0.75,-7.62 -1.77,-14.55 z m -18.333,-64.59 c -2.207,-6.42 -3.184,-13.03 -6.024,-19.2 -1.418,-3.12 -3.281,1 -3.359,1.19 -4.278,10.65 -6.973,19.66 -3.332,29.03 2.062,5.19 9.172,9.96 15.91,10.38 -0.422,-6.67 -0.899,-14.9 -3.195,-21.4 z m -21.649,-31.49 c -4.922,2.22 -4.844,8.55 -6.914,12.49 -1.934,3.83 -6.133,9.12 -4.406,14.16 9.504,-5.33 13.898,-14.83 11.32,-26.65 z m -16.387,39.31 c -11.328,9.32 -12.316,24.21 -19.863,35.62 8.34,5.33 22.383,4.26 26.707,-6.29 3.457,-8.48 5.969,-20.94 -2.625,-27.41 -0.937,-0.69 -3.144,-2.81 -4.219,-1.92 z m -42.246,76.85 c -1.699,2.42 -5.058,9.43 -2.5,10.32 20.282,6.98 35.496,7.21 39.832,-14.48 3.067,-15.49 -7.507,-28.78 -22.332,-23.36 -4.25,1.56 -8.457,18.06 -15,27.52 z m -29.492,48.99 c -1.426,1.79 -2.578,7.18 -0.812,8.57 10.547,8.47 26.027,9.12 38.019,7.95 15.809,-1.45 19.063,-16.14 16.426,-28.32 -3.488,-16.04 -27.813,-18.03 -34.699,-15.37 -6.766,2.6 -11.492,17.94 -18.934,27.17 z m 3.438,57.03 c 13.66,8.86 39.785,15.43 44.14,-8.56 1.317,-7.23 -0.488,-16.83 -10.254,-19.97 -10.031,-3.21 -21.847,-6.69 -31.007,-2.97 -11.278,4.62 -13.485,24.65 -2.879,31.5 z m -14.161,40.36 c 1.024,4.61 6.133,6.78 10.411,7.87 11.062,2.74 23.437,6.86 33.582,0.4 3.957,-2.51 4.269,-6.06 4.777,-11.03 0.898,-8.06 -0.246,-14.66 -5.559,-17.74 -10.769,-6.32 -21.738,-6.9 -34.257,-4.43 -10.157,2.01 -10.985,15.46 -8.954,24.93 z m -11.339,-62.2 c -9.473,6.99 -13.661,16.89 -20.633,26.71 -1.692,2.4 0,3.38 1.289,3.76 16.805,4.75 29.277,-3.64 26.66,-21.96 -0.469,-3.55 -2.785,-11.85 -7.316,-8.51 z m -46.387,56.6 c -6.297,5.45 -1.922,14.92 3.566,17.68 9.61,4.77 24.707,5.49 34.707,2.12 6.426,-2.16 9.688,-11.39 8.535,-21.46 -0.488,-4.13 -1.75,-8.67 -3.769,-10.02 -7.617,-5.19 -19.395,-5.39 -28.652,-3.47 -6.543,1.39 -8.887,10.34 -14.387,15.15 z m -7.254,57.24 c 6.082,13.27 28.301,13.38 40.398,7.47 9.856,-4.85 11.094,-23.19 0.332,-30.42 -8.582,-5.72 -22.117,-3.62 -31.218,-1.94 -12.93,2.37 -13.965,15.09 -9.512,24.89 z m 0.488,49.61 c 9.227,8.78 21.192,4.76 32.305,3.22 2.148,-0.31 4.715,-1.82 6.172,-3.27 7.597,-7.67 8.191,-20.24 -0.254,-26.53 -9.758,-7.24 -21.934,-2.54 -33.652,-1.95 -3.164,0.13 -6.641,3.85 -7.364,6.23 -2.109,7.42 -3.39,16.49 2.793,22.3 z m 5.946,41.5 c 9.796,4.09 26.632,5.96 33.574,-5.03 4.269,-6.74 3.019,-19.22 -3.817,-21.04 -6.691,-1.72 -29.453,-5.5 -34.902,7.09 -2.695,6.19 -1.562,16.16 5.145,18.98 z m 30.168,35.25 c 2.832,-1.25 4.597,-3.52 5.273,-7 1.387,-7.55 -0.598,-15.75 -7.844,-17.08 -10.886,-1.98 -27.058,-2.61 -27,12.78 0.039,17.17 16.953,16.98 29.571,11.3 z m -21.926,31.93 c 5.793,2.21 15.332,1.71 20.539,-0.99 2.617,-1.37 6.152,-5.68 4.668,-10.23 -1.856,-5.92 -7.363,-8.06 -13.633,-8.14 -6.016,-0.05 -12.93,0.43 -15.352,5.34 -2.316,4.66 -1.328,12.04 3.778,14.02 z m 6.769,25.75 c 5.293,1.92 13.125,1.79 16.981,-2.39 5.304,-5.79 1.125,-15 -8.887,-14.54 -3.523,0.15 -7.695,1.36 -9.824,2.57 -5.164,2.92 -3.457,12.5 1.73,14.36 z m 23.809,16.58 c 0.684,2.23 4.16,4.85 5.984,5.49 3.977,1.41 8.625,1.7 12.434,0.18 7.598,-3.12 6.551,-12.52 -1.563,-15.82 -3.632,-1.47 -9.218,-2.43 -11.953,-1.47 -5.117,1.73 -6.535,6.17 -4.902,11.62 z m 23.691,-36.76 c -8.3,-2.43 -19.855,-2.9 -22.324,5.6 -4.211,14.42 14.004,16.58 23.438,13.56 6.523,-2.07 8.816,-16.32 -1.114,-19.16 z m 5.489,47.62 c 2.625,8.94 12.754,13.79 21.933,11.06 7.879,-2.31 9.707,-13.06 4.375,-18.29 -2.414,-2.34 -6.406,-4.73 -10.703,-5.68 -9.387,-2.1 -18.605,3.07 -15.605,12.91 z m 41.25,-32.79 c -1.485,-5.83 -5.762,-9.83 -12.618,-11.35 -6.808,-1.5 -16.211,-1.92 -19.98,2.29 -3.606,3.98 -5.254,9.57 -2.258,13.87 6.027,8.56 17.043,11.55 26.867,9.38 5.606,-1.31 9.727,-7.05 7.989,-14.19 z m -3.664,34.31 c 3.664,8.11 12.96,12.19 21.886,9.47 1.778,-0.58 5.469,-3.45 5.977,-6.29 1.055,-5.64 -0.899,-10.79 -5.606,-13.74 -6.035,-3.85 -11.027,-6.01 -17.949,-3.17 -5.215,2.18 -6.484,8.94 -4.308,13.73 z m 38.437,-22.78 c 4.074,-6.9 -2.129,-13.83 -5.281,-15.73 -6.985,-4.09 -16.836,-6.6 -21.047,0.33 -4.141,6.79 -0.711,14.86 6.516,17.84 6.894,2.86 14.023,7.2 19.812,-2.44 z m 11.594,-26.36 c 4.558,-3.78 8.562,-11.71 3.094,-17.97 -5.137,-5.91 -11.512,-7.68 -19.59,-8.98 -5.457,-0.93 -12.43,3.11 -13.321,7.93 -0.808,4.15 -1.57,11.72 2.551,15.2 8.016,6.84 18.77,10.8 27.266,3.82 z m 9.668,44.97 c 4.316,-1.27 7.07,-5.83 4.902,-10.22 -1.309,-2.71 -5.176,-5.64 -7.648,-7.15 -6.766,-4.17 -12.567,-2.46 -14.688,2.51 -3.894,9.15 9.211,17.28 17.434,14.86 z m 16.504,-22.79 c 4.747,-0.42 6.937,-3.73 7.867,-7.36 1.23,-4.87 -0.38,-9.38 -4.49,-12.14 -4.893,-3.25 -10.987,-5.17 -15.858,-5.25 -6.601,-0.11 -12.707,9.57 -9.133,15.85 3.782,6.74 13.313,9.62 21.614,8.9 z m 27.287,-34.89 c 2.8,-8.28 -3.27,-12.14 -9.67,-15.54 -6.51,-3.47 -15.22,-6.71 -19.738,-2.39 -5.77,5.43 -8.329,14.58 -1.903,20.6 8.911,8.36 25.411,14.65 31.311,-2.67 z m 11.77,-20.77 c 10.45,-1.33 12.53,-16.2 10.42,-21.58 -2.39,-4.62 -7.66,-8.24 -10.42,-9.66 -7.67,-3.95 -16.64,-5.45 -23.7,-1.8 -6.42,3.34 -9.21,13.09 -5.72,20.73 4.74,10.34 19.64,13.59 29.42,12.31 z m 21.52,-46.04 c 3.58,-5 2.79,-13.88 0.67,-16.66 -6.6,-9.01 -24.96,-14.16 -32.54,-10.47 -5.76,2.82 -11.43,15.5 -4.69,23.11 7,7.9 19.21,12.61 30.3,10.3 2.47,-0.55 4.1,-3.27 6.26,-6.28 z m 4.64,-28.37 c 5.04,-0.54 9.51,-6.08 11.94,-12.11 3.15,-7.8 -0.04,-16.89 -2.53,-18.59 -6.02,-4.09 -25.09,-15.57 -37.09,-8.69 -6.6,3.79 -8.42,12.44 -8.83,17.55 -1.33,16.51 23.72,23.27 36.51,21.84 z m -70.393,-118.09 c -2.57,6.55 -4.942,16.24 0.195,20.21 10.388,8.2 33.898,15.38 42.828,2.98 5.82,-8.05 4.11,-21.7 -6.06,-26.92 -10.51,-5.36 -31.045,-11.54 -36.963,3.73 z m -50.41,-0.73 c 10.429,5.31 25.449,11.71 36.679,4.48 5.137,-3.31 10.45,-16.97 6.817,-23.03 -7.695,-12.87 -27.961,-16.15 -40.84,-12.83 -10.969,2.84 -14.277,25.52 -2.656,31.38 z m -9.387,44.5 c 12.59,8.85 37.441,14.56 43.43,-4.77 1.55,-5.02 2.441,-10.57 -0.129,-14.62 -6.973,-11.21 -24.656,-14.17 -36.492,-12.49 -12.805,1.86 -18.848,23.43 -6.809,31.88 z m -10.594,45.08 c 12.09,6.85 37.86,15.96 43.926,-3.68 2.43,-8.03 2.188,-17.94 -4.687,-21.48 -9.856,-5.18 -25.461,-10.59 -36.817,-3.51 -9.473,6 -10.762,23.9 -2.422,28.67 z m 67.676,81.02 c -5.059,-4.52 -10.195,-5.49 -16.934,-7.78 -9.445,-3.2 -19.316,4.07 -20.41,13.1 -1.816,15.46 14.754,17.76 25.711,19.69 7.989,1.44 12.942,-5.73 14.406,-10.56 1.504,-4.64 1.309,-10.87 -2.773,-14.45 z m 20.308,-36.37 c -7.18,-10.71 -36.16,-17.45 -42.554,-6.43 -4.668,8.07 -7.57,19.39 1.211,24.8 9.207,5.66 20.137,9.05 30.863,7.12 10.07,-1.78 15.2,-18.36 10.48,-25.49 z m 15.45,-66.34 c 4.12,-6.55 7,-15.37 0.88,-23.51 -5.55,-7.45 -25.37,-10.94 -35.517,-8.48 -5.566,1.41 -8.191,8.16 -9.051,12.73 -1.172,6.17 -1.73,12.38 3.731,17.41 7.851,7.2 18.337,7.04 28.417,7.04 4.13,0 9.98,-2.69 11.54,-5.19 z m -5.76,22.27 c -6.17,-11.34 -27.088,-12.79 -36.482,-11.54 -6.633,0.88 -11.289,11.56 -11.094,20.5 0.058,4.59 1.492,7.64 4.637,9.33 10.441,5.6 21.132,9.35 32.369,7.53 10.96,-1.74 15.22,-17.22 10.57,-25.82 z m -110.076,24.42 c -7.102,21.89 20.234,28.79 36.18,25.41 11.105,-2.31 14.816,-23.65 4.484,-30.39 -12.793,-8.31 -35.48,-10.99 -40.664,4.98 z m -41.211,-53.73 c 8.191,8.45 22.977,8.98 34.512,7.43 7.09,-0.99 10.144,-8.15 11.133,-15.92 2.753,-21.38 -25.938,-24.97 -39.602,-19.97 -8.992,3.28 -13.68,20.57 -6.043,28.46 z m -5.773,41.43 c 8.566,10.07 22.882,12.46 34.738,9.2 7.234,-1.97 10.586,-10.43 10.418,-19.92 -0.137,-5.37 -3.828,-9.27 -7.137,-10.64 -8.43,-3.42 -18.164,-5.96 -27.363,-4.84 -11.348,1.4 -18.223,17.26 -10.656,26.2 z m 1.359,45.1 c 10.527,4.29 30.144,8.14 33.457,-6.9 4.453,-20.02 -19.18,-23.28 -31.797,-19.8 -9.668,2.65 -11.504,22.72 -1.66,26.7 z m 75.723,33.09 c 7.871,-4.47 9.531,-17.08 4.734,-24.39 -6.367,-9.67 -28.133,-15.28 -39.844,-6.81 -6.68,4.85 -10.281,24.72 3.41,29.49 10.938,3.83 21.414,7.54 31.7,1.71 z m -11.153,14.38 c -8.926,-5.52 -21.66,-7.72 -30.097,-3.02 -7.344,4.01 -7.063,14.75 -3.418,20.52 5.976,9.62 20.859,10.66 31.132,7.64 8.868,-2.57 12.188,-19.04 2.383,-25.14 z m -72.285,15.68 c 0.906,2.86 2.176,3.68 3.953,4.55 7.512,3.58 15.754,4.54 22.942,-0.08 5.175,-3.35 4.726,-11.1 0.879,-15.11 -5.618,-5.91 -17.043,-6.15 -24.356,-2.31 -4.727,2.46 -4.941,8.29 -3.418,12.95 z m 2.402,-31.35 c 3.321,9.49 15.145,8.96 24.102,7.8 11.023,-1.44 13.23,-15.56 9.316,-21.5 -5.41,-8.2 -17.754,-6.63 -27.578,-5.38 -8,1.02 -8.476,11.61 -5.84,19.08 z m 155.504,-285.19 c 2.72,-10.72 0,-20.9 -9.53,-24.32 -12.243,-4.31 -28.806,-10.64 -38.602,-4.04 -11.2,7.51 -16.59,28.81 -3.719,37.16 15.195,9.94 45.441,16.45 51.851,-8.8 z m -16.5,33.3 c -8.242,-9.36 -21.672,-9.05 -34.863,-12.91 -5.09,-1.49 -11.133,3.01 -13.781,7.67 -4.871,8.7 -9.754,20.36 -0.418,28.77 7.734,7.05 18.281,6.45 27.754,9.28 4.258,1.28 9.461,2.77 14.629,-0.72 10.669,-7.29 14.829,-22.91 6.679,-32.09 z m 87.3,140.13 c 2.33,-6.79 5.44,-11.79 2.8,-18.57 -3.15,-8.33 -11.21,-9.47 -18.79,-12.21 -7.07,-2.56 -18.87,-5.8 -24.79,0.4 -6.8,7.04 -9.55,21.39 -1.4,27.54 10.55,7.87 36.6,18.71 42.18,2.84 z m 143.29,61.19 c 6.23,25.39 13.96,51.14 15.89,77.97 2.86,40.07 -5.8,81.73 -31.5,112.08 2.54,-13.09 5.88,-24.15 7.64,-37.88 2.09,-16.59 -0.26,-35.07 -4.53,-51.77 -3.25,-12.64 -8.93,-24.93 -14.59,-36.67 -6.66,-13.91 -16.63,-29.04 -26.55,-41.45 -27.81,-34.58 -71.13,-102.08 -71.13,-102.08 0,0 -3.64,0.27 -5.79,0.27 -0.52,8.41 19.44,37.22 29.5,53.34 22.09,35.36 38.83,54.38 58.05,85.04 12.03,19.32 21.23,42.84 24.18,64.16 5.99,43.43 -17.42,95.47 -51.1,112.79 7.7,-32.44 6.9,-78.17 -10.38,-97.4 -32.68,-36.43 -52.12,-63.69 -75.46,-110.39 -0.66,-1.25 -6.12,6.3 -10.62,9.23 -5.08,3.36 -2.24,13.37 -4.05,20.11 -1.64,5.73 -4.34,10.15 -5.14,11.15 -6.91,8.46 -13.58,8.99 -15.03,11.53 -1.68,2.86 -0.88,10 -6.9,18.13 -3,4.1 -10.68,7.13 -13.8,10.97 -3.37,4.2 -4.91,17.06 -14.21,22.32 -4.425,2.48 -6.476,10.19 -10.714,13.97 -13.086,11.59 -26.153,9.35 -28.653,10.07 -3.371,0.91 -9.941,9.28 -21.64,11.29 -11.438,1.95 -17.735,-5.68 -23.672,-2.92 -14.883,6.89 -29.152,7.45 -44.981,-10.18 -4.746,-5.25 -12.96,-0.34 -23.203,-8.19 -9.004,-6.85 -9.172,-13.19 -13.75,-14.06 -8.613,-1.61 -15.039,-8.5 -18.359,-16.02 -1.719,-3.87 -3.008,-11.7 -4.023,-16.86 -1.407,-7.13 -5.012,-13.69 -5.079,-18.93 -0.078,-7.28 2.215,-11.22 1.571,-14.47 -1.063,-4.71 -4.871,-9.03 -5.34,-13.44 -0.352,-2.5 -0.559,-9.16 1.258,-12.91 2.297,-4.62 -1.61,-8.64 -3.633,-13.56 -1.934,-4.58 -3.973,-12.42 -3.348,-17.95 0.821,-7.59 5.164,-10.37 1.785,-16.35 -5.535,-9.72 -12.527,-24.88 -0.261,-44.25 2.246,-3.54 -5.137,-10.43 -5.559,-20.54 -0.469,-11.01 6.172,-19.13 7.988,-24 0.344,-1.75 -2.918,-1.66 -3.035,-3.53 -29.23,30.9 -55.07,59.39 -88.957,86.22 -20.703,16.36 -41.172,30.12 -64.109,42.4 -61.289,32.87 -132.492,54.86 -196.992,46.82 24.285,-19.55 54.941,-33.5 79.89,-55.71 23.641,-21.06 45.09,-39.04 66.621,-61.41 33.801,-35.11 61.262,-70.7 89.875,-112.01 8.496,-12.23 14.082,-20.41 22.012,-33.16 7.969,-12.77 16.836,-26.32 24.102,-38.97 36.609,-63.57 66.609,-122.44 96.972,-187.59 8.426,-18.01 15.508,-36.87 23.77,-54.78 2.207,-4.86 5.371,-1.25 7.605,0 10.977,6.35 22.649,11.66 34.055,17.04 9.09,4.18 17.371,7.06 25.508,10.18 20.535,7.83 40.027,12.08 61.543,16.55 35.913,7.52 100.443,5.97 100.443,5.97 l 122.33,0.04 c 0.8,0 1.62,0 3.34,0 -1.27,35.07 -9.61,69.15 -11.64,104.33 -1.54,28.49 -0.59,56.03 0.41,84.59 2.73,77.34 14.1,160.39 31.39,230.87" /><path
             id="path54"
             style="fill:#ffffff;fill-opacity:1;fill-rule:nonzero;stroke:none"
             d="m 395.137,2295.89 c -23.871,-23.8 -30.992,-32.57 -44.91,-58.88 -8.2,-15.47 -18.61,-35.33 -21.579,-60.93 49.051,18.67 89.071,56.78 125.235,98.87 26.754,31.2 47.504,72.6 73.887,103.42 -46.469,-15.58 -95.504,-45.51 -132.633,-82.48" /><path
             id="path56"
             style="fill:#ffffff;fill-opacity:1;fill-rule:nonzero;stroke:none"
             d="m 254.711,2228.98 c 18.492,31.24 44.98,65.01 72.441,88.06 -12.718,-28.58 -28.382,-56.88 -33.769,-90.67 -10.672,-67.27 -20.746,-114.39 -31.906,-175.79 30.503,21.76 62.683,55.95 95.031,79.81 24.996,18.37 50.051,30.64 75.758,48.31 15.277,10.54 25.234,24.08 37.945,36.76 -15.145,-63.84 -71.164,-128.27 -111.273,-158.31 -50.387,-37.79 -68.45,-43.81 -149.422,-126.14 -10.282,101.66 -8.454,207.32 45.195,297.97" /><path
             id="path58"
             style="fill:#ffffff;fill-opacity:1;fill-rule:nonzero;stroke:none"
             d="m 89.5234,1891.32 c 3.7657,52.79 10.1016,95.02 22.9256,146.52 8.989,35.97 28.34,89.51 56.246,111.47 -3.418,-13.04 -5.215,-32.6 -6.531,-45.79 -5.469,-54.4 4.945,-117.57 6.188,-171.91 0.617,-26.72 0.382,-47.31 -3.618,-72.42 -4.136,-26.32 -0.687,-58.61 -0.687,-58.61 0,0 14.426,16.47 27.305,36.99 28.144,44.71 37.16,57.97 59.836,82.19 28.132,30.05 59.597,57.88 95.124,82.53 -4.285,-16.7 -22.425,-49.17 -29.921,-62.22 -10.004,-17.46 -14.543,-33.32 -38.215,-72.85 -33.313,-55.55 -48.153,-63.05 -85.141,-122.45 -8.008,-12.92 -40.847,-62.06 -48.805,-77.08 -17.328,35.86 -23.863,67.19 -45.1206,125.57 -13.3516,36.67 -11.3555,73.35 -9.586,98.06" /><path
             id="path60"
             style="fill:#ffffff;fill-opacity:1;fill-rule:nonzero;stroke:none"
             d="m 38.0898,1616.65 c -20.0859,52.08 -29.28902,100.39 -36.09761,155.23 -4.16016,33.54 -2.226565,78.27 9.74611,110.51 3.1406,-7.87 9.5469,-27.85 10.414,-30.85 8.9063,-29.96 12.6329,-44.35 25.0821,-73.25 9.5234,-22.16 21.1679,-39.83 33.6289,-61.73 11.3281,-19.99 20.8907,-46.31 29.0857,-66.45 26.375,-64.57 28.321,-125.02 38.414,-131.62 7.258,15.54 9.532,30.42 10.344,37.75 7.84,71.45 17.25,136.39 107.227,220.6 8.254,-25.07 4.07,-71.28 -0.891,-96.03 -10.758,-54.12 -19.445,-80.11 -43.281,-132.56 -12.598,-27.62 -29.418,-68.27 -34.028,-81.73 -12.082,-35.06 -16.218,-53.46 -23.82,-74.19 -42.476,70.78 -94.7578,143.87 -125.8242,224.32" /><path
             id="path62"
             style="fill:#ffffff;fill-opacity:1;fill-rule:nonzero;stroke:none"
             d="m 108.121,1291.04 c -30.246,42.1 -41.2655,63.25 -60.9491,108.07 -16.5274,37.59 -21.2813,51.53 -30.961,93.63 -5.289,22.95 -8.27731,43.77 -4.1718,57.34 23.6797,-42.87 39.8398,-90.85 70.8125,-126.41 24.5894,-28.21 48.2774,-52.23 67.8244,-76.04 29.988,-36.58 53.601,-71.21 82.383,-109.3 2.425,19.09 3.363,38.43 -0.926,69.71 -5.856,42.86 -2.246,78 5.238,119.49 9.488,52.66 16.445,78.72 34.715,131.99 22.348,-43.83 22.262,-94.54 27.871,-141.03 10.828,-90.2 -17.391,-197.76 -22.941,-242.6 -1.485,-11.81 0.562,-40.96 1.16,-52.32 -42.199,33.23 -79.742,66.79 -116.141,103.29 -16.586,16.54 -39.344,43.95 -53.914,64.18" /><path
             id="path64"
             style="fill:#ffffff;fill-opacity:1;fill-rule:nonzero;stroke:none"
             d="m 268.102,960.262 c -19.215,13.84 -70.844,53.298 -95.29,84.348 -35.601,45.21 -43.437,64.58 -66.921,116.59 -2.879,6.34 -16.1683,35.78 -17.2543,55.78 76.9453,-92.91 145.8323,-106.74 219.2303,-183.84 26.934,-28.24 54.516,-54.831 69.071,-68.16 11.171,-10.281 25.042,-13.39 25.042,-13.39 0,0 -1.445,19.801 -8.687,33.578 -48.969,93.592 -58.211,191.442 -50.781,296.452 22.351,-27.67 29.402,-46.15 43.586,-72.91 15.429,-29.15 23.297,-47.17 30.507,-65.11 41.903,-104.29 52.805,-224.748 78.692,-285.37 -79.91,26.918 -142.84,41.309 -227.195,102.032" /><path
             id="path66"
             style="fill:#ffffff;fill-opacity:1;fill-rule:nonzero;stroke:none"
             d="m 595.824,714.16 c -21.613,-1.449 -63.992,-1.32 -86.586,2.36 -114.394,18.308 -220.726,101.21 -274.215,192.269 48.497,-29.59 83.563,-49.34 126.211,-64.109 37.985,-13.121 74.008,-17.012 137.418,-35.02 38.262,-10.808 76.145,-26.121 89.453,-31.101 42.418,-15.797 60.278,-11.918 60.278,-11.918 0,0 0,6.449 -15.848,23.73 -31.574,34.457 -43.137,42.699 -69.117,69.188 -8.531,8.75 -28.074,38.48 -37.996,58.25 -28.074,55.882 -31.192,100.671 -56.828,162.061 93.554,-54.94 139.125,-130.749 188.59,-226.319 15.214,-29.27 35.781,-63.082 54.57,-81.66 12.637,-12.469 30.449,-31.422 30.449,-31.422 0,0 -13.047,-3.071 -53.672,-9.071 -18.222,-2.668 -57.051,-14.757 -92.707,-17.238" /><path
             id="path68"
             style="fill:#ffffff;fill-opacity:1;fill-rule:nonzero;stroke:none"
             d="m 1049.31,706.91 c 49.39,-8.082 93.27,-20.082 138.19,-35.488 12.07,-4.152 30.44,-13.281 43.16,-19.731 31.84,-16.203 50.16,-26.722 77.52,-45.531 44.06,-30.351 91.4,-63.051 134.12,-112.672 0.92,-0.976 7.81,-8.359 3.22,-11.957 -8.38,-6.562 -29,-15.902 -35.86,-9.851 -39.08,34.761 -37.11,45.89 -84.47,88.781 -12.15,10.937 -30.49,26.289 -52.4,41.277 -21.37,14.633 -47.21,30.614 -71.21,42.453 -21.84,10.739 -55.43,13.95 -74.3,13.95 l 0.26,-0.141 c -8.56,0.328 -57.84,0.609 -69.24,-0.129 C 961.5,651.23 966.234,642.57 910.414,627.449 864.508,614.961 815.25,606.07 766.363,599.512 c -50.09,-6.813 -94.902,-7.633 -141.855,-2.84 -63.653,6.558 -133.278,24.297 -185.246,57.789 47.515,-0.801 96.304,-9.93 143.57,-6.313 19.887,1.532 52.164,4.532 74.008,11.274 43.418,13.328 68.332,18.527 114.308,31.348 39.512,10.992 79.356,14.8 120.606,19.152 57.109,6.109 109.996,4.726 157.556,-3.012" /><path
             id="path70"
             style="fill:#ffffff;fill-opacity:1;fill-rule:nonzero;stroke:none"
             d="m 1934.52,2295.89 c 23.87,-23.8 31.02,-32.57 44.94,-58.88 8.2,-15.47 18.61,-35.33 21.58,-60.93 -49.09,18.67 -89.07,56.78 -125.26,98.87 -26.78,31.2 -47.5,72.6 -73.87,103.42 46.46,-15.58 95.5,-45.51 132.61,-82.48" /><path
             id="path72"
             style="fill:#ffffff;fill-opacity:1;fill-rule:nonzero;stroke:none"
             d="m 2074.98,2228.98 c -18.52,31.24 -44.99,65.01 -72.45,88.06 12.85,-30.75 31.57,-69.05 33.76,-90.67 6.83,-67.74 20.75,-114.39 31.92,-175.79 -30.5,21.76 -62.72,55.95 -95.06,79.81 -24.94,18.37 -50.02,30.64 -75.7,48.31 -15.32,10.54 -25.27,24.08 -37.98,36.76 15.14,-63.84 71.16,-128.27 111.28,-158.31 50.37,-37.79 68.43,-43.81 149.37,-126.14 10.28,101.66 8.46,207.32 -45.14,297.97" /><path
             id="path74"
             style="fill:#ffffff;fill-opacity:1;fill-rule:nonzero;stroke:none"
             d="m 2240.16,1891.32 c -3.81,52.79 -10.08,95.02 -22.93,146.52 -8.98,35.97 -28.34,89.51 -56.29,111.47 3.46,-13.04 5.23,-32.6 6.56,-45.79 5.52,-54.4 -4.88,-117.57 -6.17,-171.91 -0.61,-26.72 -0.39,-47.31 3.59,-72.42 4.15,-26.32 0.72,-58.61 0.72,-58.61 0,0 -14.42,16.47 -27.33,36.99 -28.09,44.71 -37.11,57.97 -59.85,82.19 -28.1,30.05 -59.6,57.88 -95.13,82.53 4.33,-16.7 22.46,-49.17 29.96,-62.22 10.04,-17.46 14.53,-33.32 38.22,-72.85 33.3,-55.55 48.14,-63.05 85.1,-122.45 8,-12.92 40.89,-62.06 48.84,-77.08 17.35,35.86 23.86,67.19 45.12,125.57 13.39,36.67 11.39,73.35 9.59,98.06" /><path
             id="path76"
             style="fill:#ffffff;fill-opacity:1;fill-rule:nonzero;stroke:none"
             d="m 2291.59,1616.65 c 20.08,52.08 29.26,100.39 36.11,155.23 4.16,33.54 2.2,78.27 -9.75,110.51 -3.14,-7.87 -9.53,-27.85 -10.42,-30.85 -8.93,-29.96 -12.63,-44.35 -25.05,-73.25 -9.54,-22.16 -21.24,-39.83 -33.67,-61.73 -11.32,-19.99 -20.88,-46.31 -29.12,-66.45 -26.34,-64.57 -28.29,-125.02 -38.38,-131.62 -7.28,15.54 -9.54,30.42 -10.33,37.75 -7.85,71.45 -17.26,136.39 -107.23,220.6 -8.28,-25.07 -4.08,-71.28 0.84,-96.03 10.81,-54.12 19.54,-80.11 43.33,-132.56 12.59,-27.62 29.42,-68.27 34.06,-81.73 12.01,-35.06 16.17,-53.46 23.83,-74.19 42.44,70.78 94.72,143.87 125.78,224.32" /><path
             id="path78"
             style="fill:#ffffff;fill-opacity:1;fill-rule:nonzero;stroke:none"
             d="m 2221.57,1291.04 c 30.27,42.1 41.26,63.25 60.93,108.07 16.53,37.59 21.26,51.53 30.98,93.63 5.29,22.95 8.26,43.77 4.14,57.34 -23.61,-42.87 -39.86,-90.85 -70.83,-126.41 -24.54,-28.21 -48.23,-52.23 -67.78,-76.04 -29.96,-36.58 -53.64,-71.21 -82.38,-109.3 -2.41,19.09 -3.38,38.43 0.87,69.71 5.9,42.86 2.29,78 -5.19,119.49 -9.49,52.66 -16.45,78.72 -34.71,131.99 -22.32,-43.83 -22.26,-94.54 -27.88,-141.03 -10.86,-90.2 17.43,-197.76 22.98,-242.6 1.45,-11.81 -0.6,-40.96 -1.19,-52.32 42.2,33.23 79.74,66.79 116.13,103.29 16.59,16.54 39.3,43.95 53.93,64.18" /><path
             id="path80"
             style="fill:#ffffff;fill-opacity:1;fill-rule:nonzero;stroke:none"
             d="m 2061.6,960.262 c 19.19,13.84 70.83,53.298 95.26,84.348 35.61,45.21 43.46,64.58 66.93,116.59 2.84,6.34 16.18,35.78 17.26,55.78 -76.94,-92.91 -145.84,-106.74 -219.24,-183.84 -26.92,-28.24 -54.48,-54.831 -69.05,-68.16 -11.17,-10.281 -25.04,-13.39 -25.04,-13.39 0,0 1.43,19.801 8.65,33.578 48.99,93.592 58.23,191.442 50.76,296.452 -22.27,-27.67 -29.37,-46.15 -43.54,-72.91 -15.4,-29.15 -23.29,-47.17 -30.48,-65.11 -41.93,-104.29 -52.88,-224.748 -78.76,-285.37 79.97,26.918 142.88,41.309 227.25,102.032" /><path
             id="path82"
             style="fill:#ffffff;fill-opacity:1;fill-rule:nonzero;stroke:none"
             d="m 1733.84,714.16 c 21.66,-1.449 64.01,-1.32 86.62,2.36 114.41,18.308 220.71,101.21 274.2,192.269 -48.54,-29.59 -83.6,-49.34 -126.22,-64.109 -38.01,-13.121 -74,-17.012 -137.39,-35.02 -38.3,-10.808 -76.17,-26.121 -89.49,-31.101 -42.4,-15.797 -60.28,-11.918 -60.28,-11.918 0,0 0,6.449 15.84,23.73 31.59,34.457 43.17,42.699 69.11,69.188 8.55,8.75 28.1,38.48 38.02,58.25 28.07,55.882 31.19,100.671 56.87,162.061 -93.57,-54.94 -139.23,-130.749 -188.66,-226.319 -15.18,-29.27 -35.75,-63.082 -54.52,-81.66 -12.61,-12.469 -30.46,-31.422 -30.46,-31.422 0,0 13.04,-3.071 53.71,-9.071 18.18,-2.668 56.99,-14.757 92.65,-17.238" /><path
             id="path84"
             style="fill:#ffffff;fill-opacity:1;fill-rule:nonzero;stroke:none"
             d="m 1280.37,706.91 c -49.38,-8.082 -93.23,-20.082 -138.19,-35.488 -12.11,-4.152 -30.45,-13.281 -43.16,-19.731 -31.84,-16.203 -50.13,-26.722 -77.52,-45.531 -44.102,-30.351 -91.367,-63.051 -134.121,-112.672 -0.918,-0.976 -7.852,-8.359 -3.223,-11.957 8.387,-6.562 29.024,-15.902 35.821,-9.851 39.101,34.761 37.109,45.89 84.513,88.781 12.1,10.937 30.44,26.289 52.4,41.277 21.41,14.633 47.18,30.614 71.21,42.453 21.79,10.739 55.45,13.95 74.28,13.95 L 1202.1,658 c 8.6,0.328 57.84,0.609 69.28,-0.129 96.82,-6.641 92.05,-15.301 147.85,-30.422 45.94,-12.488 95.18,-21.379 144.09,-27.937 50.05,-6.813 94.9,-7.633 141.85,-2.84 63.65,6.558 133.26,24.297 185.21,57.789 -47.49,-0.801 -96.24,-9.93 -143.57,-6.313 -19.9,1.532 -52.13,4.532 -73.98,11.274 -43.42,13.328 -68.34,18.527 -114.3,31.348 -39.51,10.992 -79.36,14.8 -120.59,19.152 -57.12,6.109 -110.02,4.726 -157.57,-3.012" /><path
             id="path86"
             style="fill:#ffffff;fill-opacity:1;fill-rule:nonzero;stroke:none"
             d="m 1103.65,2835.37 -86.97,-322.88 h -92.309 l -57.734,210.33 -56.457,-210.33 h -92.078 l -86.954,322.88 h 86.903 l 49.531,-222.26 59.582,222.26 h 83.055 l 56.535,-222.26 51.996,222.26 h 84.9" /><path
             id="path88"
             style="fill:#ffffff;fill-opacity:1;fill-rule:nonzero;stroke:none"
             d="m 1390.5,2772.92 h -148.53 v -60.07 h 137.69 v -62.45 h -137.69 v -137.91 h -82.81 v 322.88 h 231.34 v -62.45" /><path
             id="path90"
             style="fill:#ffffff;fill-opacity:1;fill-rule:nonzero;stroke:none"
             d="m 1628.37,2731.61 c 0,9.08 -2.46,16.9 -7.36,23.46 -4.92,6.57 -10.62,11.14 -17.13,13.74 -8.67,3.46 -17.13,5.37 -25.37,5.73 -8.24,0.36 -19.24,0.55 -32.97,0.55 h -14.29 v -96.5 h 23.84 c 14.16,0 25.84,0.87 35.02,2.6 9.18,1.73 16.88,5.2 23.09,10.38 5.35,4.61 9.22,10.14 11.6,16.56 2.38,6.41 3.57,14.24 3.57,23.48 z m 86.1,1.85 c 0,-14.46 -2.54,-28.59 -7.6,-42.4 -5.06,-13.81 -12.29,-25.41 -21.68,-34.79 -12.87,-12.73 -27.21,-22.34 -43.05,-28.85 -15.82,-6.51 -35.52,-9.76 -59.08,-9.76 h -51.81 v -105.17 h -83.29 v 322.88 h 137.05 c 20.53,0 37.84,-1.77 51.94,-5.31 14.08,-3.55 26.56,-8.86 37.4,-15.95 13.01,-8.52 22.95,-19.43 29.82,-32.73 6.86,-13.31 10.3,-29.28 10.3,-47.92" /><path
             id="path92"
             style="fill:#ffffff;fill-opacity:1;fill-rule:nonzero;stroke:none"
             d="M 555.395,259.461 496.988,70.9883 H 432.855 L 394.449,198.031 356.516,70.9883 H 291.738 L 233.84,259.461 h 63.379 l 32.351,-129.902 40.203,129.902 h 53.543 l 38.231,-129.902 31.82,129.902 h 62.028" /><path
             id="path94"
             style="fill:#ffffff;fill-opacity:1;fill-rule:nonzero;stroke:none"
             d="m 696.469,287.828 h -4.52 c -2.676,0.781 -6.164,1.684 -10.449,2.684 -4.297,1.008 -8.906,1.508 -13.809,1.508 -11.836,0 -19.843,-2.122 -24.023,-6.379 -4.18,-4.25 -6.27,-12.469 -6.27,-24.672 v -1.508 h 46.485 V 218.512 H 639.41 V 70.9883 H 578.824 V 218.512 H 552.98 v 40.949 h 25.844 v 5.199 c 0,23.051 6.125,40.328 18.379,51.86 12.25,11.519 30.801,17.289 55.633,17.289 8.957,0 17.062,-0.309 24.336,-0.93 7.277,-0.609 13.703,-1.418 19.297,-2.43 v -42.621" /><path
             id="path96"
             style="fill:#ffffff;fill-opacity:1;fill-rule:nonzero;stroke:none"
             d="m 836.703,166.57 c 0,18.321 -3.125,31.61 -9.375,39.879 -6.258,8.262 -16.133,12.391 -29.637,12.391 -5.695,0 -11.562,-0.86 -17.578,-2.602 -6.035,-1.718 -11.777,-4.199 -17.246,-7.449 v -94.668 c 4.012,-1.57 8.309,-2.57 12.891,-3.019 4.57,-0.454 9.101,-0.672 13.554,-0.672 15.965,0 27.852,4.66 35.672,13.992 7.813,9.316 11.719,23.379 11.719,42.148 z m 62.266,1.258 c 0,-15.558 -2.371,-29.707 -7.117,-42.457 C 887.094,112.609 880.863,102.09 873.16,93.8086 865.113,85.0898 856,78.4805 845.836,74.0117 835.66,69.5391 824.77,67.3008 813.141,67.3008 c -10.723,0 -19.825,1.1484 -27.317,3.4375 -7.488,2.2929 -15.144,5.5 -22.957,9.6406 V 1.85156 H 702.281 V 259.461 h 60.586 v -19.629 c 9.266,7.379 18.738,13.367 28.399,17.949 9.668,4.59 20.82,6.879 33.445,6.879 23.469,0 41.711,-8.609 54.738,-25.84 13.008,-17.23 19.52,-40.898 19.52,-70.992" /><path
             id="path98"
             style="fill:#ffffff;fill-opacity:1;fill-rule:nonzero;stroke:none"
             d="m 927.602,70.9883 h 62.7656 v 65.9609 H 927.602 Z" /><path
             id="path100"
             style="fill:#ffffff;fill-opacity:1;fill-rule:nonzero;stroke:none"
             d="m 1150.74,119.32 c 3.92,4.809 6.85,10.61 8.83,17.371 1.95,6.77 2.93,16.149 2.93,28.118 0,11.07 -1.02,20.363 -3.03,27.863 -2.01,7.488 -4.81,13.476 -8.38,17.949 -3.59,4.59 -7.89,7.828 -12.93,9.738 -5.04,1.903 -10.47,2.852 -16.28,2.852 -5.82,0 -10.99,-0.781 -15.52,-2.352 -4.53,-1.57 -8.87,-4.699 -13.01,-9.398 -3.69,-4.371 -6.64,-10.352 -8.81,-17.961 -2.18,-7.609 -3.28,-17.172 -3.28,-28.691 0,-10.297 0.95,-19.219 2.86,-26.77 1.9,-7.559 4.7,-13.617 8.39,-18.207 3.58,-4.371 7.86,-7.551 12.84,-9.57 4.98,-2.012 10.66,-3.024 17.03,-3.024 5.49,0 10.72,0.934 15.7,2.774 4.96,1.847 9.2,4.949 12.66,9.308 z m 74.35,45.821 c 0,-31 -9.04,-55.411 -27.11,-73.2504 -18.06,-17.8515 -43.43,-26.7695 -76.1,-26.7695 -32.67,0 -58.04,8.918 -76.1,26.7695 -18.08,17.8394 -27.11,42.2504 -27.11,73.2504 0,31.218 9.08,55.718 27.26,73.507 18.19,17.793 43.5,26.692 75.95,26.692 32.9,0 58.31,-8.961 76.28,-26.86 17.95,-17.902 26.93,-42.351 26.93,-73.339" /><path
             id="path102"
             style="fill:#ffffff;fill-opacity:1;fill-rule:nonzero;stroke:none"
             d="m 1387.83,201.898 h -5.37 c -2.56,0.891 -6.7,1.563 -12.39,2.012 -5.7,0.449 -10.45,0.668 -14.24,0.668 -8.59,0 -16.19,-0.558 -22.77,-1.68 -6.58,-1.117 -13.67,-3.019 -21.27,-5.699 V 70.9883 h -60.58 V 259.461 h 60.58 V 231.77 c 13.28,11.41 24.85,18.992 34.67,22.742 9.82,3.75 18.87,5.617 27.13,5.617 2.11,0 4.51,-0.059 7.19,-0.168 2.69,-0.109 5.04,-0.281 7.05,-0.5 v -57.563" /><path
             id="path104"
             style="fill:#ffffff;fill-opacity:1;fill-rule:nonzero;stroke:none"
             d="m 1527.55,130.398 v 85.422 c -3.45,1.461 -7.71,2.598 -12.73,3.442 -5.02,0.84 -9.53,1.258 -13.56,1.258 -15.85,0 -27.75,-4.559 -35.66,-13.668 -7.93,-9.122 -11.89,-21.852 -11.89,-38.184 0,-18.129 3.37,-30.777 10.13,-37.93 6.74,-7.156 16.76,-10.75 30.06,-10.75 6.02,0 11.93,0.953 17.74,2.864 5.82,1.898 11.11,4.418 15.91,7.546 z m 60.59,-37.7574 c 0,-17.6797 -2.52,-32.5625 -7.56,-44.6406 -5.04,-12.0898 -12.09,-21.5391 -21.15,-28.3711 -9.06,-6.9297 -20,-11.93749 -32.79,-15.01952 C 1513.82,1.53906 1499.35,0 1483.24,0 c -13.09,0 -25.98,0.789062 -38.67,2.35156 -12.72,1.57032 -23.7,3.45703 -32.99,5.69922 V 55.2188 h 7.38 c 7.36,-2.9102 16.37,-5.5704 26.97,-7.9805 10.63,-2.3985 20.12,-3.5977 28.5,-3.5977 11.17,0 20.25,1.0274 27.23,3.0977 6.99,2.0703 12.32,5.0117 16.01,8.8125 3.46,3.5781 5.98,8.1601 7.54,13.7578 1.56,5.6016 2.34,12.3125 2.34,20.1406 v 3.5196 c -7.26,-5.9297 -15.31,-10.6172 -24.14,-14.0899 -8.83,-3.4805 -18.65,-5.1992 -29.51,-5.1992 -26.37,0 -46.7,7.9414 -60.99,23.8203 -14.32,15.891 -21.47,40.059 -21.47,72.5 0,15.559 2.19,28.988 6.54,40.289 4.36,11.301 10.51,21.141 18.44,29.543 7.36,7.816 16.45,13.918 27.23,18.289 10.78,4.359 21.83,6.539 33.1,6.539 10.18,0 19.44,-1.199 27.76,-3.601 8.32,-2.411 15.9,-5.739 22.71,-9.989 l 2.19,8.391 h 58.73 V 92.6406" /><path
             id="path106"
             style="fill:#ffffff;fill-opacity:1;fill-rule:nonzero;stroke:none"
             d="M 1804.74,332.129 1671.64,16.6211 h -51.51 l 132.54,315.5079 h 52.07" /><path
             id="path108"
             style="fill:#ffffff;fill-opacity:1;fill-rule:nonzero;stroke:none"
             d="m 1908.39,70.9883 h -60.58 V 259.461 h 60.58 z m 1.67,215.3207 h -63.93 v 45.82 h 63.93 v -45.82" /><path
             id="path110"
             style="fill:#ffffff;fill-opacity:1;fill-rule:nonzero;stroke:none"
             d="m 2068.6,72.6484 c -6.5,-1.6679 -13.37,-2.9804 -20.65,-3.9375 -7.27,-0.9297 -16.17,-1.4101 -26.69,-1.4101 -23.49,0 -40.97,4.75 -52.44,14.2695 -11.47,9.5 -17.2,25.7817 -17.2,48.8277 v 88.114 h -24.84 v 40.949 h 24.84 v 53.867 h 60.58 v -53.867 h 56.4 v -40.949 h -56.4 v -66.891 c 0,-6.621 0.06,-12.391 0.18,-17.32 0.11,-4.93 0.99,-9.352 2.67,-13.281 1.57,-3.93 4.32,-7.032 8.28,-9.329 3.96,-2.293 9.74,-3.441 17.32,-3.441 3.12,0 7.23,0.672 12.29,2.012 5.08,1.347 8.63,2.578 10.64,3.687 h 5.02 V 72.6484" /><path
             id="path112"
             style="fill:#ffffff;fill-opacity:1;fill-rule:nonzero;stroke:none"
             d="m 2831.46,2053.56 c 0,12.48 -3.38,23.23 -10.13,32.24 -6.75,9.02 -14.6,15.31 -23.53,18.88 -11.92,4.75 -23.53,7.38 -34.85,7.87 -11.32,0.5 -26.41,0.75 -45.27,0.75 h -19.66 v -132.55 h 32.76 c 19.46,0 35.49,1.19 48.11,3.57 12.6,2.38 23.18,7.13 31.72,14.26 7.34,6.34 12.65,13.92 15.93,22.74 3.27,8.8 4.92,19.56 4.92,32.24 z m 118.25,2.55 c 0,-19.86 -3.48,-39.27 -10.43,-58.23 -6.96,-18.97 -16.88,-34.9 -29.79,-47.8 -17.67,-17.48 -37.38,-30.69 -59.12,-39.62 -21.75,-8.94 -48.8,-13.41 -81.17,-13.41 h -71.18 V 1752.6 h -114.38 v 443.49 h 188.24 c 28.2,0 51.98,-2.43 71.34,-7.29 19.36,-4.87 36.49,-12.16 51.38,-21.89 17.87,-11.71 31.52,-26.71 40.96,-44.98 9.42,-18.27 14.15,-40.21 14.15,-65.82" /><path
             id="path114"
             style="fill:#ffffff;fill-opacity:1;fill-rule:nonzero;stroke:none"
             d="m 3250.74,1984.92 h -9.51 c -4.56,1.59 -11.88,2.78 -21.99,3.58 -10.11,0.79 -18.53,1.19 -25.27,1.19 -15.25,0 -28.72,-1 -40.42,-2.98 -11.68,-1.98 -24.26,-5.36 -37.73,-10.13 V 1752.6 h -107.53 v 334.49 h 107.53 v -49.15 c 23.57,20.25 44.08,33.7 61.51,40.36 17.44,6.65 33.49,9.98 48.15,9.98 3.76,0 8.03,-0.11 12.78,-0.3 4.76,-0.2 8.92,-0.5 12.48,-0.89 v -102.17" /><path
             id="path116"
             style="fill:#ffffff;fill-opacity:1;fill-rule:nonzero;stroke:none"
             d="m 3505.02,1838.38 c 6.94,8.53 12.16,18.81 15.63,30.83 3.47,12.01 5.21,28.64 5.21,49.89 0,19.65 -1.78,36.13 -5.35,49.44 -3.58,13.3 -8.55,23.93 -14.9,31.87 -6.35,8.14 -14,13.89 -22.93,17.27 -8.94,3.38 -18.57,5.07 -28.89,5.07 -10.33,0 -19.51,-1.39 -27.56,-4.18 -8.04,-2.77 -15.73,-8.34 -23.09,-16.68 -6.54,-7.73 -11.75,-18.35 -15.63,-31.86 -3.87,-13.51 -5.81,-30.48 -5.81,-50.93 0,-18.27 1.69,-34.11 5.07,-47.51 3.38,-13.41 8.34,-24.18 14.89,-32.31 6.36,-7.76 13.95,-13.41 22.78,-16.99 8.84,-3.57 18.92,-5.36 30.24,-5.36 9.72,0 19.01,1.64 27.85,4.91 8.83,3.29 16.33,8.79 22.49,16.54 z m 131.94,81.31 c 0,-55 -16.03,-98.34 -48.1,-130.01 -32.07,-31.67 -77.09,-47.51 -135.07,-47.51 -57.99,0 -103.02,15.84 -135.08,47.51 -32.07,31.67 -48.1,75.01 -48.1,130.01 0,55.41 16.13,98.88 48.39,130.47 32.27,31.56 77.2,47.35 134.79,47.35 58.38,0 103.5,-15.89 135.37,-47.66 31.87,-31.76 47.8,-75.15 47.8,-130.16" /><path
             id="path118"
             style="fill:#ffffff;fill-opacity:1;fill-rule:nonzero;stroke:none"
             d="m 3915.07,1858.04 v 151.61 c -6.14,2.58 -13.67,4.61 -22.58,6.1 -8.92,1.48 -16.94,2.24 -24.07,2.24 -28.14,0 -49.24,-8.1 -63.3,-24.28 -14.07,-16.19 -21.11,-38.77 -21.11,-67.76 0,-32.17 6,-54.61 17.98,-67.32 11.99,-12.7 29.78,-19.06 53.35,-19.06 10.7,0 21.19,1.69 31.5,5.06 10.3,3.38 19.71,7.85 28.23,13.41 z m 107.53,-67.03 c 0,-31.36 -4.47,-57.77 -13.41,-79.21 -8.93,-21.45 -21.45,-38.24 -37.52,-50.35 -16.09,-12.31 -35.5,-21.19 -58.23,-26.66 -22.75,-5.46 -48.41,-8.19 -77,-8.19 -23.23,0 -46.12,1.4 -68.66,4.18 -22.54,2.77 -42.04,6.15 -58.52,10.12 v 83.7 h 13.08 c 13.09,-5.17 29.05,-9.87 47.88,-14.15 18.84,-4.27 35.7,-6.41 50.57,-6.41 19.83,0 35.94,1.85 48.33,5.52 12.39,3.67 21.86,8.89 28.4,15.63 6.15,6.36 10.61,14.5 13.39,24.43 2.77,9.93 4.16,21.84 4.16,35.74 v 6.26 c -12.89,-10.53 -27.17,-18.87 -42.83,-25.02 -15.67,-6.16 -33.12,-9.24 -52.37,-9.24 -46.79,0 -82.9,14.1 -108.28,42.3 -25.38,28.19 -38.07,71.08 -38.07,128.67 0,27.6 3.86,51.42 11.6,71.48 7.73,20.06 18.64,37.53 32.72,52.42 13.09,13.9 29.2,24.72 48.34,32.48 19.13,7.73 38.72,11.61 58.75,11.61 18.06,0 34.46,-2.14 49.24,-6.41 14.78,-4.27 28.2,-10.18 40.31,-17.72 l 3.88,14.9 h 104.24 v -296.08" /><path
             id="path120"
             style="fill:#ffffff;fill-opacity:1;fill-rule:nonzero;stroke:none"
             d="m 4349.84,1984.92 h -9.51 c -4.56,1.59 -11.88,2.78 -21.99,3.58 -10.11,0.79 -18.53,1.19 -25.26,1.19 -15.26,0 -28.72,-1 -40.42,-2.98 -11.69,-1.98 -24.27,-5.36 -37.74,-10.13 V 1752.6 h -107.53 v 334.49 h 107.53 v -49.15 c 23.58,20.25 44.08,33.7 61.52,40.36 17.43,6.65 33.48,9.98 48.14,9.98 3.76,0 8.03,-0.11 12.78,-0.3 4.76,-0.2 8.92,-0.5 12.48,-0.89 v -102.17" /><path
             id="path122"
             style="fill:#ffffff;fill-opacity:1;fill-rule:nonzero;stroke:none"
             d="m 4596.68,1840.09 v 69.48 c -14.49,-1.19 -30.19,-2.83 -47.06,-4.9 -16.88,-2.08 -29.69,-4.51 -38.42,-7.28 -10.72,-3.37 -18.91,-8.27 -24.58,-14.69 -5.65,-6.44 -8.49,-14.9 -8.49,-25.39 0,-6.93 0.6,-12.58 1.79,-16.93 1.19,-4.36 4.17,-8.51 8.94,-12.46 4.57,-3.97 10.03,-6.89 16.38,-8.76 6.35,-1.89 16.28,-2.82 29.79,-2.82 10.72,0 21.59,2.17 32.61,6.53 11.02,4.36 20.7,10.09 29.04,17.22 z m 0,-52.04 c -5.76,-4.38 -12.91,-9.64 -21.45,-15.8 -8.53,-6.15 -16.58,-11.02 -24.13,-14.59 -10.51,-4.77 -21.44,-8.29 -32.75,-10.57 -11.33,-2.29 -23.73,-3.43 -37.24,-3.43 -31.76,0 -58.38,9.83 -79.82,29.48 -21.45,19.67 -32.17,44.79 -32.17,75.36 0,24.43 5.46,44.39 16.38,59.88 10.93,15.49 26.41,27.69 46.46,36.63 19.87,8.94 44.49,15.29 73.87,19.06 29.39,3.77 59.87,6.55 91.45,8.34 v 1.79 c 0,18.46 -7.55,31.22 -22.64,38.27 -15.09,7.05 -37.34,10.58 -66.72,10.58 -17.68,0 -36.53,-3.13 -56.59,-9.39 -20.06,-6.25 -34.45,-11.06 -43.2,-14.44 h -9.82 v 80.72 c 11.32,2.97 29.74,6.49 55.25,10.57 25.51,4.07 51.08,6.11 76.7,6.11 60.96,0 104.99,-9.39 132.09,-28.16 27.11,-18.75 40.67,-48.2 40.67,-88.3 V 1752.6 h -106.34 v 35.45" /><path
             id="path124"
             style="fill:#ffffff;fill-opacity:1;fill-rule:nonzero;stroke:none"
             d="M 5111.88,1989.69 V 1752.6 h -107.53 v 167.09 c 0,16.29 -0.4,30.13 -1.2,41.55 -0.79,11.42 -2.97,20.7 -6.55,27.85 -3.57,7.15 -8.98,12.36 -16.23,15.64 -7.25,3.28 -17.42,4.92 -30.53,4.92 -10.52,0 -20.75,-2.14 -30.68,-6.41 -9.93,-4.28 -18.87,-8.79 -26.81,-13.55 V 1752.6 h -107.53 v 334.49 h 107.53 v -36.93 c 18.45,14.49 36.1,25.8 52.95,33.94 16.86,8.15 35.5,12.22 55.93,12.22 22.01,0 41.45,-4.91 58.31,-14.75 16.86,-9.82 30.04,-24.27 39.56,-43.33 21.41,18.07 42.23,32.27 62.45,42.59 20.23,10.32 40.06,15.49 59.49,15.49 36.09,0 63.5,-10.82 82.24,-32.47 18.73,-21.64 28.11,-52.81 28.11,-93.52 V 1752.6 h -107.52 v 167.09 c 0,16.48 -0.35,30.39 -1.05,41.7 -0.7,11.32 -2.83,20.55 -6.4,27.7 -3.38,7.15 -8.74,12.36 -16.09,15.64 -7.34,3.28 -17.67,4.92 -30.97,4.92 -8.94,0 -17.68,-1.54 -26.22,-4.62 -8.53,-3.09 -18.96,-8.19 -31.26,-15.34" /><path
             id="path126"
             style="fill:#ffffff;fill-opacity:1;fill-rule:nonzero;stroke:none"
             d="M 5740.85,1989.69 V 1752.6 h -107.53 v 167.09 c 0,16.29 -0.4,30.13 -1.19,41.55 -0.79,11.42 -2.98,20.7 -6.55,27.85 -3.58,7.15 -8.99,12.36 -16.23,15.64 -7.26,3.28 -17.43,4.92 -30.53,4.92 -10.53,0 -20.75,-2.14 -30.69,-6.41 -9.93,-4.28 -18.86,-8.79 -26.8,-13.55 V 1752.6 H 5413.8 v 334.49 h 107.53 v -36.93 c 18.45,14.49 36.09,25.8 52.95,33.94 16.85,8.15 35.5,12.22 55.93,12.22 22.01,0 41.44,-4.91 58.31,-14.75 16.85,-9.82 30.03,-24.27 39.56,-43.33 21.4,18.07 42.22,32.27 62.45,42.59 20.22,10.32 40.06,15.49 59.49,15.49 36.08,0 63.5,-10.82 82.24,-32.47 18.73,-21.64 28.1,-52.81 28.1,-93.52 V 1752.6 h -107.52 v 167.09 c 0,16.48 -0.35,30.39 -1.04,41.7 -0.71,11.32 -2.84,20.55 -6.41,27.7 -3.38,7.15 -8.74,12.36 -16.08,15.64 -7.35,3.28 -17.68,4.92 -30.98,4.92 -8.94,0 -17.68,-1.54 -26.21,-4.62 -8.54,-3.09 -18.97,-8.19 -31.27,-15.34" /><path
             id="path128"
             style="fill:#ffffff;fill-opacity:1;fill-rule:nonzero;stroke:none"
             d="m 6245.62,1840.09 v 69.48 c -14.5,-1.19 -30.19,-2.83 -47.07,-4.9 -16.87,-2.08 -29.68,-4.51 -38.41,-7.28 -10.73,-3.37 -18.92,-8.27 -24.58,-14.69 -5.66,-6.44 -8.49,-14.9 -8.49,-25.39 0,-6.93 0.6,-12.58 1.79,-16.93 1.19,-4.36 4.17,-8.51 8.93,-12.46 4.57,-3.97 10.03,-6.89 16.39,-8.76 6.35,-1.89 16.28,-2.82 29.78,-2.82 10.73,0 21.6,2.17 32.61,6.53 11.03,4.36 20.71,10.09 29.05,17.22 z m 0,-52.04 c -5.77,-4.38 -12.91,-9.64 -21.45,-15.8 -8.54,-6.15 -16.58,-11.02 -24.13,-14.59 -10.52,-4.77 -21.45,-8.29 -32.75,-10.57 -11.33,-2.29 -23.74,-3.43 -37.24,-3.43 -31.77,0 -58.38,9.83 -79.83,29.48 -21.44,19.67 -32.16,44.79 -32.16,75.36 0,24.43 5.46,44.39 16.37,59.88 10.93,15.49 26.42,27.69 46.47,36.63 19.86,8.94 44.48,15.29 73.87,19.06 29.39,3.77 59.87,6.55 91.44,8.34 v 1.79 c 0,18.46 -7.55,31.22 -22.64,38.27 -15.08,7.05 -37.33,10.58 -66.71,10.58 -17.68,0 -36.54,-3.13 -56.6,-9.39 -20.05,-6.25 -34.45,-11.06 -43.19,-14.44 h -9.82 v 80.72 c 11.31,2.97 29.73,6.49 55.25,10.57 25.51,4.07 51.07,6.11 76.7,6.11 60.96,0 104.99,-9.39 132.09,-28.16 27.11,-18.75 40.66,-48.2 40.66,-88.3 V 1752.6 h -106.33 v 35.45" /><path
             id="path130"
             style="fill:#ffffff;fill-opacity:1;fill-rule:nonzero;stroke:none"
             d="m 2816.98,1343.57 -54.56,158.88 -54.57,-158.88 z m 176.51,-170.98 h -118.12 l -30.9,89.65 h -164.11 l -30.9,-89.65 H 2534.2 l 163.82,443.5 h 131.65 l 163.82,-443.5" /><path
             id="path132"
             style="fill:#ffffff;fill-opacity:1;fill-rule:nonzero;stroke:none"
             d="m 3034.79,1172.59 h 107.531 v 463.461 H 3034.79 Z" /><path
             id="path134"
             style="fill:#ffffff;fill-opacity:1;fill-rule:nonzero;stroke:none"
             d="m 3334.36,1172.59 h -107.53 v 334.5 h 107.53 z m 2.96,382.15 h -113.47 v 81.31 h 113.47 v -81.31" /><path
             id="path136"
             style="fill:#ffffff;fill-opacity:1;fill-rule:nonzero;stroke:none"
             d="m 3745.6,1409.69 v -237.1 h -107.53 v 167.09 c 0,16.29 -0.4,30.14 -1.19,41.56 -0.8,11.41 -2.98,20.71 -6.56,27.85 -3.57,7.15 -8.98,12.36 -16.23,15.64 -7.25,3.28 -17.42,4.92 -30.53,4.92 -10.52,0 -20.75,-2.14 -30.68,-6.41 -9.93,-4.28 -18.87,-8.79 -26.81,-13.55 v -237.1 h -107.53 v 334.5 h 107.53 v -36.93 c 18.45,14.49 36.1,25.81 52.95,33.94 16.86,8.14 35.5,12.22 55.93,12.22 22.01,0 41.45,-4.91 58.31,-14.75 16.86,-9.82 30.04,-24.27 39.56,-43.33 21.41,18.07 42.23,32.27 62.45,42.59 20.23,10.32 40.06,15.49 59.5,15.49 36.08,0 63.49,-10.82 82.23,-32.47 18.73,-21.64 28.11,-52.82 28.11,-93.52 v -217.74 h -107.52 v 167.09 c 0,16.49 -0.35,30.39 -1.05,41.7 -0.7,11.33 -2.83,20.57 -6.4,27.71 -3.38,7.15 -8.74,12.36 -16.09,15.64 -7.34,3.28 -17.67,4.92 -30.97,4.92 -8.94,0 -17.68,-1.55 -26.21,-4.62 -8.54,-3.09 -18.97,-8.2 -31.27,-15.34" /><path
             id="path138"
             style="fill:#ffffff;fill-opacity:1;fill-rule:nonzero;stroke:none"
             d="m 4270.62,1382.88 c -0.6,22.44 -6.16,39.32 -16.68,50.63 -10.53,11.32 -26.91,16.98 -49.15,16.98 -20.65,0 -37.63,-5.35 -50.93,-16.08 -13.3,-10.72 -20.75,-27.9 -22.34,-51.53 z m 106.63,-62.85 h -245.43 c 1.59,-26.21 11.56,-46.27 29.93,-60.17 18.37,-13.89 45.42,-20.84 81.16,-20.84 22.64,0 44.58,4.06 65.83,12.2 21.25,8.15 38.03,16.88 50.34,26.22 H 4371 v -86.08 c -24.23,-9.73 -47.07,-16.78 -68.52,-21.15 -21.44,-4.36 -45.17,-6.54 -71.18,-6.54 -67.12,0 -118.55,15.07 -154.29,45.27 -35.74,30.18 -53.61,73.16 -53.61,128.96 0,55.2 16.92,98.93 50.78,131.21 33.86,32.27 80.27,48.4 139.25,48.4 54.4,0 95.31,-13.75 122.71,-41.25 27.4,-27.51 41.11,-67.07 41.11,-118.71 v -37.52" /><path
             id="path140"
             style="fill:#ffffff;fill-opacity:1;fill-rule:nonzero;stroke:none"
             d="m 4772.41,1172.59 h -107.53 v 165.9 c 0,13.52 -0.69,26.97 -2.08,40.37 -1.38,13.4 -3.77,23.28 -7.15,29.63 -3.97,7.35 -9.78,12.71 -17.42,16.09 -7.64,3.38 -18.32,5.07 -32.02,5.07 -9.73,0 -19.61,-1.59 -29.64,-4.77 -10.03,-3.18 -20.9,-8.24 -32.61,-15.19 v -237.1 h -107.52 v 334.5 h 107.52 v -36.93 c 19.04,14.88 37.33,26.3 54.88,34.24 17.55,7.94 37.04,11.92 58.45,11.92 36.09,0 64.3,-10.53 84.63,-31.58 20.33,-21.04 30.49,-52.51 30.49,-94.41 v -217.74" /><path
             id="path142"
             style="fill:#ffffff;fill-opacity:1;fill-rule:nonzero;stroke:none"
             d="m 5068.39,1175.54 c -11.51,-2.97 -23.73,-5.29 -36.64,-6.97 -12.9,-1.68 -28.69,-2.52 -47.36,-2.52 -41.69,0 -72.72,8.44 -93.07,25.31 -20.36,16.88 -30.53,45.76 -30.53,86.68 v 156.37 h -44.08 v 72.68 h 44.08 v 95.6 h 107.52 v -95.6 h 100.08 v -72.68 h -100.08 v -118.73 c 0,-11.74 0.1,-21.98 0.29,-30.73 0.21,-8.75 1.79,-16.6 4.76,-23.57 2.77,-6.95 7.67,-12.46 14.7,-16.54 7.03,-4.08 17.27,-6.12 30.74,-6.12 5.54,0 12.81,1.2 21.82,3.58 9.01,2.38 15.3,4.57 18.86,6.54 h 8.91 v -73.3" /><path
             id="path144"
             style="fill:#ffffff;fill-opacity:1;fill-rule:nonzero;stroke:none"
             d="m 5318.5,1260.09 v 69.47 c -14.5,-1.19 -30.19,-2.83 -47.06,-4.9 -16.88,-2.07 -29.69,-4.49 -38.42,-7.26 -10.73,-3.38 -18.92,-8.28 -24.58,-14.71 -5.66,-6.43 -8.49,-14.88 -8.49,-25.37 0,-6.94 0.6,-12.58 1.79,-16.94 1.19,-4.35 4.17,-8.51 8.93,-12.46 4.57,-3.96 10.03,-6.89 16.39,-8.77 6.35,-1.87 16.28,-2.81 29.79,-2.81 10.72,0 21.59,2.17 32.6,6.53 11.03,4.35 20.71,10.09 29.05,17.22 z m 0,-52.05 c -5.77,-4.37 -12.91,-9.63 -21.45,-15.78 -8.53,-6.15 -16.58,-11.04 -24.13,-14.61 -10.52,-4.77 -21.45,-8.28 -32.75,-10.57 -11.33,-2.28 -23.73,-3.41 -37.24,-3.41 -31.77,0 -58.38,9.82 -79.82,29.47 -21.45,19.67 -32.17,44.78 -32.17,75.37 0,24.41 5.46,44.37 16.37,59.86 10.93,15.49 26.42,27.7 46.47,36.64 19.86,8.93 44.48,15.3 73.87,19.07 29.39,3.77 59.87,6.54 91.44,8.34 v 1.77 c 0,18.47 -7.55,31.23 -22.63,38.28 -15.09,7.05 -37.34,10.58 -66.72,10.58 -17.68,0 -36.54,-3.13 -56.6,-9.39 -20.05,-6.25 -34.45,-11.06 -43.19,-14.44 h -9.82 v 80.72 c 11.32,2.97 29.73,6.49 55.25,10.57 25.51,4.07 51.08,6.11 76.7,6.11 60.96,0 104.99,-9.38 132.09,-28.15 27.11,-18.76 40.66,-48.21 40.66,-88.32 V 1172.59 H 5318.5 v 35.45" /><path
             id="path146"
             style="fill:#ffffff;fill-opacity:1;fill-rule:nonzero;stroke:none"
             d="m 5749.39,1404.92 h -9.51 c -4.56,1.59 -11.88,2.78 -21.99,3.57 -10.11,0.8 -18.52,1.2 -25.26,1.2 -15.26,0 -28.72,-1 -40.42,-2.98 -11.69,-1.98 -24.27,-5.37 -37.74,-10.13 v -223.99 h -107.53 v 334.5 h 107.53 v -49.15 c 23.58,20.25 44.08,33.7 61.52,40.36 17.43,6.65 33.48,9.98 48.14,9.98 3.76,0 8.03,-0.11 12.78,-0.3 4.76,-0.2 8.92,-0.5 12.48,-0.89 v -102.17" /><path
             id="path148"
             style="fill:#ffffff;fill-opacity:1;fill-rule:nonzero;stroke:none"
             d="m 6016.48,1382.88 c -0.59,22.44 -6.15,39.32 -16.68,50.63 -10.52,11.32 -26.9,16.98 -49.15,16.98 -20.64,0 -37.62,-5.35 -50.92,-16.08 -13.3,-10.72 -20.76,-27.9 -22.34,-51.53 z m 106.64,-62.85 h -245.43 c 1.59,-26.21 11.56,-46.27 29.93,-60.17 18.37,-13.89 45.42,-20.84 81.16,-20.84 22.64,0 44.58,4.06 65.83,12.2 21.25,8.15 38.03,16.88 50.34,26.22 h 11.92 v -86.08 c -24.23,-9.73 -47.08,-16.78 -68.52,-21.15 -21.45,-4.36 -45.17,-6.54 -71.18,-6.54 -67.12,0 -118.55,15.07 -154.29,45.27 -35.74,30.18 -53.61,73.16 -53.61,128.96 0,55.2 16.92,98.93 50.78,131.21 33.86,32.27 80.27,48.4 139.25,48.4 54.4,0 95.31,-13.75 122.71,-41.25 27.4,-27.51 41.11,-67.07 41.11,-118.71 v -37.52" /><path
             id="path150"
             style="fill:#ffffff;fill-opacity:1;fill-rule:nonzero;stroke:none"
             d="M 3048.59,592.59 H 2934.8 v 296.949 l -82.2,-192.687 h -78.93 l -82.21,192.687 V 592.59 h -107.82 v 443.5 h 132.84 l 99.78,-222.481 99.48,222.481 h 132.85 v -443.5" /><path
             id="path152"
             style="fill:#ffffff;fill-opacity:1;fill-rule:nonzero;stroke:none"
             d="m 3349.34,678.371 c 6.94,8.539 12.15,18.809 15.63,30.84 3.47,12.008 5.21,28.641 5.21,49.891 0,19.636 -1.78,36.128 -5.36,49.429 -3.57,13.321 -8.54,23.938 -14.9,31.867 -6.35,8.153 -13.99,13.911 -22.93,17.293 -8.93,3.379 -18.56,5.059 -28.88,5.059 -10.34,0 -19.52,-1.391 -27.56,-4.18 -8.04,-2.781 -15.74,-8.34 -23.09,-16.679 -6.54,-7.743 -11.76,-18.36 -15.63,-31.86 -3.87,-13.511 -5.81,-30.492 -5.81,-50.929 0,-18.274 1.69,-34.114 5.06,-47.5 3.38,-13.422 8.34,-24.18 14.9,-32.332 6.35,-7.75 13.94,-13.399 22.78,-16.969 8.84,-3.582 18.92,-5.371 30.23,-5.371 9.73,0 19.02,1.64 27.86,4.922 8.82,3.277 16.32,8.789 22.49,16.519 z m 131.94,81.309 c 0,-55 -16.04,-98.34 -48.11,-130 -32.07,-31.68 -77.09,-47.52 -135.06,-47.52 -57.99,0 -103.02,15.84 -135.08,47.52 -32.07,31.66 -48.11,75 -48.11,130 0,55.41 16.13,98.89 48.4,130.468 32.27,31.563 77.2,47.364 134.79,47.364 58.37,0 103.49,-15.891 135.37,-47.653 31.86,-31.781 47.8,-75.16 47.8,-130.179" /><path
             id="path154"
             style="fill:#ffffff;fill-opacity:1;fill-rule:nonzero;stroke:none"
             d="M 3877.63,592.59 H 3770.1 v 165.898 c 0,13.524 -0.7,26.973 -2.08,40.371 -1.39,13.403 -3.77,23.282 -7.15,29.629 -3.98,7.34 -9.79,12.711 -17.42,16.09 -7.65,3.383 -18.32,5.063 -32.02,5.063 -9.73,0 -19.61,-1.582 -29.64,-4.762 -10.03,-3.188 -20.9,-8.25 -32.61,-15.199 V 592.59 h -107.53 v 334.488 h 107.53 v -36.93 c 19.03,14.883 37.32,26.313 54.87,34.262 17.55,7.93 37.04,11.91 58.46,11.91 36.08,0 64.3,-10.531 84.63,-31.582 20.32,-21.039 30.49,-52.519 30.49,-94.41 V 592.59" /><path
             id="path156"
             style="fill:#ffffff;fill-opacity:1;fill-rule:nonzero;stroke:none"
             d="m 4177.47,684.66 v 164.379 c -7.53,3.18 -15.45,5.473 -23.77,6.852 -8.32,1.39 -15.95,2.089 -22.88,2.089 -28.13,0 -49.24,-8.808 -63.3,-26.402 -14.06,-17.598 -21.1,-42.019 -21.1,-73.226 0,-32.813 5.65,-56.641 16.94,-71.442 11.29,-14.832 29.42,-22.23 54.38,-22.23 9.71,0 20.01,1.84 30.91,5.511 10.89,3.688 20.5,8.508 28.82,14.469 z M 4285,592.59 h -107.53 v 34.851 c -18.45,-15.082 -35.69,-26.222 -51.76,-33.363 -16.06,-7.148 -34.61,-10.726 -55.63,-10.726 -40.66,0 -73.18,15.707 -97.57,47.07 -24.39,31.367 -36.59,73.68 -36.59,126.879 0,28.398 4.11,53.57 12.34,75.508 8.22,21.953 19.48,40.761 33.77,56.441 13.48,14.898 29.84,26.469 49.08,34.711 19.24,8.238 38.47,12.359 57.71,12.359 20.04,0 36.44,-2.148 49.24,-6.398 12.79,-4.281 25.92,-9.692 39.41,-16.231 V 1056.05 H 4285 V 592.59" /><path
             id="path158"
             style="fill:#ffffff;fill-opacity:1;fill-rule:nonzero;stroke:none"
             d="M 4477.33,592.59 H 4369.8 v 334.488 h 107.53 z m 2.97,382.148 h -113.47 v 81.312 h 113.47 v -81.312" /><path
             id="path160"
             style="fill:#ffffff;fill-opacity:1;fill-rule:nonzero;stroke:none"
             d="m 4764.37,680.09 v 69.469 c -14.5,-1.188 -30.19,-2.829 -47.07,-4.899 -16.87,-2.07 -29.68,-4.488 -38.41,-7.262 -10.73,-3.378 -18.92,-8.277 -24.58,-14.707 -5.66,-6.429 -8.49,-14.882 -8.49,-25.371 0,-6.941 0.6,-12.582 1.79,-16.941 1.19,-4.348 4.17,-8.508 8.93,-12.457 4.57,-3.961 10.03,-6.891 16.39,-8.774 6.35,-1.867 16.28,-2.808 29.78,-2.808 10.73,0 21.6,2.172 32.61,6.531 11.03,4.348 20.71,10.09 29.05,17.219 z m 0,-52.051 c -5.77,-4.367 -12.91,-9.629 -21.45,-15.777 -8.54,-6.153 -16.58,-11.043 -24.13,-14.614 -10.52,-4.769 -21.45,-8.277 -32.75,-10.57 -11.33,-2.277 -23.74,-3.406 -37.24,-3.406 -31.77,0 -58.38,9.816 -79.83,29.469 -21.44,19.668 -32.16,44.781 -32.16,75.371 0,24.41 5.46,44.367 16.37,59.859 10.93,15.488 26.42,27.699 46.47,36.641 19.86,8.929 44.48,15.297 73.87,19.066 29.39,3.774 59.87,6.543 91.44,8.344 v 1.769 c 0,18.477 -7.55,31.231 -22.64,38.278 -15.08,7.062 -37.33,10.57 -66.71,10.57 -17.68,0 -36.54,-3.117 -56.6,-9.367 -20.05,-6.25 -34.45,-11.082 -43.19,-14.461 H 4566 v 80.73 c 11.31,2.957 29.73,6.5 55.25,10.559 25.51,4.078 51.07,6.121 76.7,6.121 60.96,0 104.99,-9.383 132.09,-28.152 27.11,-18.77 40.66,-48.199 40.66,-88.321 V 592.59 h -106.33 v 35.449" /><path
             id="path162"
             style="fill:#ffffff;fill-opacity:1;fill-rule:nonzero;stroke:none"
             d="m 4952.82,592.59 h 107.531 v 463.461 H 4952.82 Z" /><path
             id="path164"
             style="fill:#ffffff;fill-opacity:1;fill-rule:nonzero;stroke:none"
             d="m 5367.64,802.879 c -0.6,22.449 -6.16,39.32 -16.68,50.633 -10.53,11.328 -26.91,16.968 -49.15,16.968 -20.65,0 -37.63,-5.351 -50.93,-16.07 -13.3,-10.719 -20.75,-27.89 -22.34,-51.531 z m 106.63,-62.848 h -245.43 c 1.59,-26.211 11.56,-46.269 29.93,-60.172 18.37,-13.89 45.42,-20.839 81.16,-20.839 22.64,0 44.58,4.058 65.83,12.199 21.25,8.152 38.03,16.883 50.34,26.222 h 11.92 v -86.082 c -24.23,-9.73 -47.07,-16.781 -68.52,-21.148 -21.44,-4.359 -45.16,-6.539 -71.18,-6.539 -67.12,0 -118.54,15.066 -154.29,45.269 -35.74,30.18 -53.61,73.161 -53.61,128.957 0,55.204 16.92,98.93 50.78,131.223 33.86,32.258 80.27,48.391 139.25,48.391 54.4,0 95.31,-13.75 122.71,-41.25 27.41,-27.524 41.11,-67.071 41.11,-118.711 v -37.52" /></g></g></g></g></svg>