<?xml version="1.0" encoding="UTF-8" standalone="no"?>
<svg
   xmlns:dc="http://purl.org/dc/elements/1.1/"
   xmlns:cc="http://creativecommons.org/ns#"
   xmlns:rdf="http://www.w3.org/1999/02/22-rdf-syntax-ns#"
   xmlns:svg="http://www.w3.org/2000/svg"
   xmlns="http://www.w3.org/2000/svg"
   viewBox="0 0 858.26666 377.94666"
   height="377.94666"
   width="858.26666"
   xml:space="preserve"
   id="svg2"
   version="1.1"><metadata
     id="metadata8"><rdf:RDF><cc:Work
         rdf:about=""><dc:format>image/svg+xml</dc:format><dc:type
           rdf:resource="http://purl.org/dc/dcmitype/StillImage" /></cc:Work></rdf:RDF></metadata><defs
     id="defs6"><clipPath
       id="clipPath20"
       clipPathUnits="userSpaceOnUse"><path
         id="path18"
         d="M 0,2834.64 V 0 h 6436.96 v 2834.64 z" /></clipPath></defs><g
     transform="matrix(1.3333333,0,0,-1.3333333,0,377.94667)"
     id="g10"><g
       transform="scale(0.1)"
       id="g12"><g
         id="g14"><g
           clip-path="url(#clipPath20)"
           id="g16"><path
             id="path22"
             style="fill:#ffffff;fill-opacity:1;fill-rule:nonzero;stroke:none"
             d="m 3195.35,1623.82 -120.4,-447.05 h -127.81 l -79.96,291.22 -78.16,-291.22 h -127.5 l -120.39,447.05 h 120.33 l 68.58,-307.74 82.5,307.74 h 114.99 l 78.28,-307.74 72,307.74 h 117.54" /><path
             id="path24"
             style="fill:#ffffff;fill-opacity:1;fill-rule:nonzero;stroke:none"
             d="m 3459.44,1263.24 c 7,8.6 12.25,18.96 15.75,31.08 3.51,12.11 5.25,28.86 5.25,50.28 0,19.82 -1.79,36.43 -5.41,49.84 -3.59,13.41 -8.59,24.12 -15.01,32.13 -6.39,8.19 -14.1,14 -23.12,17.42 -8.99,3.38 -18.71,5.09 -29.1,5.09 -10.42,0 -19.67,-1.4 -27.8,-4.2 -8.09,-2.8 -15.85,-8.41 -23.24,-16.82 -6.62,-7.8 -11.87,-18.52 -15.78,-32.12 -3.9,-13.61 -5.86,-30.72 -5.86,-51.34 0,-18.42 1.71,-34.37 5.12,-47.88 3.39,-13.52 8.4,-24.37 15.02,-32.58 6.4,-7.81 14.04,-13.51 22.96,-17.12 8.9,-3.59 19.07,-5.4 30.48,-5.4 9.8,0 19.16,1.64 28.07,4.95 8.89,3.3 16.45,8.86 22.67,16.67 z m 133,81.97 c 0,-55.45 -16.17,-99.13 -48.48,-131.06 -32.34,-31.93 -77.72,-47.89 -136.16,-47.89 -58.45,0 -103.85,15.96 -136.17,47.89 -32.32,31.93 -48.5,75.61 -48.5,131.06 0,55.85 16.27,99.67 48.79,131.49 32.55,31.83 77.81,47.74 135.88,47.74 58.85,0 104.33,-16.02 136.45,-48.04 32.11,-32.02 48.19,-75.74 48.19,-131.19" /><path
             id="path26"
             style="fill:#ffffff;fill-opacity:1;fill-rule:nonzero;stroke:none"
             d="m 3914.29,1410.95 h -9.58 c -4.6,1.59 -11.98,2.8 -22.17,3.6 -10.19,0.8 -18.68,1.2 -25.47,1.2 -15.38,0 -28.96,-1 -40.74,-3.01 -11.78,-2 -24.46,-5.39 -38.04,-10.2 v -225.77 h -108.4 v 337.17 h 108.4 v -49.55 c 23.77,20.42 44.44,33.98 62.01,40.68 17.58,6.71 33.76,10.06 48.52,10.06 3.79,0 8.11,-0.1 12.88,-0.3 4.81,-0.2 9.01,-0.5 12.59,-0.89 v -102.99" /><path
             id="path28"
             style="fill:#ffffff;fill-opacity:1;fill-rule:nonzero;stroke:none"
             d="m 3975.54,1176.77 h 108.383 v 467.172 H 3975.54 Z" /><path
             id="path30"
             style="fill:#ffffff;fill-opacity:1;fill-rule:nonzero;stroke:none"
             d="m 4405.2,1269.57 v 165.69 c -7.61,3.2 -15.58,5.51 -23.96,6.9 -8.4,1.42 -16.08,2.11 -23.08,2.11 -28.37,0 -49.62,-8.86 -63.81,-26.61 -14.18,-17.73 -21.27,-42.34 -21.27,-73.81 0,-33.09 5.69,-57.09 17.08,-72.02 11.38,-14.94 29.64,-22.4 54.83,-22.4 9.78,0 20.15,1.85 31.15,5.56 10.97,3.7 20.67,8.57 29.06,14.58 z m 108.38,-92.8 H 4405.2 v 35.13 c -18.6,-15.22 -36,-26.42 -52.18,-33.63 -16.21,-7.2 -34.9,-10.81 -56.08,-10.81 -40.99,0 -73.78,15.8 -98.35,47.44 -24.6,31.62 -36.9,74.25 -36.9,127.9 0,28.62 4.15,53.99 12.46,76.1 8.28,22.12 19.63,41.09 34.02,56.9 13.6,15.01 30.1,26.67 49.49,34.98 19.39,8.3 38.78,12.46 58.17,12.46 20.18,0 36.74,-2.15 49.62,-6.46 12.88,-4.3 26.15,-9.75 39.75,-16.36 v 143.52 h 108.38 v -467.17" /><path
             id="path32"
             style="fill:#ffffff;fill-opacity:1;fill-rule:nonzero;stroke:none"
             d="m 5167.55,1537.35 h -205.64 v -83.16 h 190.65 v -86.47 h -190.65 v -190.95 h -114.69 v 447.05 h 320.33 v -86.47" /><path
             id="path34"
             style="fill:#ffffff;fill-opacity:1;fill-rule:nonzero;stroke:none"
             d="m 5452.79,1263.24 c 7,8.6 12.25,18.96 15.78,31.08 3.48,12.11 5.25,28.86 5.25,50.28 0,19.82 -1.81,36.43 -5.41,49.84 -3.61,13.41 -8.62,24.12 -15.02,32.13 -6.41,8.19 -14.11,14 -23.11,17.42 -9,3.38 -18.71,5.09 -29.13,5.09 -10.41,0 -19.66,-1.4 -27.77,-4.2 -8.09,-2.8 -15.87,-8.41 -23.27,-16.82 -6.6,-7.8 -11.84,-18.52 -15.75,-32.12 -3.91,-13.61 -5.86,-30.72 -5.86,-51.34 0,-18.42 1.71,-34.37 5.1,-47.88 3.41,-13.52 8.41,-24.37 15.01,-32.58 6.39,-7.81 14.07,-13.51 22.99,-17.12 8.88,-3.59 19.05,-5.4 30.45,-5.4 9.8,0 19.17,1.64 28.07,4.95 8.92,3.3 16.48,8.86 22.67,16.67 z m 133.03,81.97 c 0,-55.45 -16.19,-99.13 -48.51,-131.06 -32.31,-31.93 -77.72,-47.89 -136.16,-47.89 -58.44,0 -103.82,15.96 -136.16,47.89 -32.32,31.93 -48.48,75.61 -48.48,131.06 0,55.85 16.25,99.67 48.79,131.49 32.52,31.83 77.81,47.74 135.85,47.74 58.85,0 104.33,-16.02 136.45,-48.04 32.14,-32.02 48.22,-75.74 48.22,-131.19" /><path
             id="path36"
             style="fill:#ffffff;fill-opacity:1;fill-rule:nonzero;stroke:none"
             d="m 5874.93,1263.24 c 7,8.6 12.25,18.96 15.78,31.08 3.47,12.11 5.25,28.86 5.25,50.28 0,19.82 -1.82,36.43 -5.41,49.84 -3.61,13.41 -8.62,24.12 -15.02,32.13 -6.41,8.19 -14.11,14 -23.11,17.42 -9,3.38 -18.71,5.09 -29.13,5.09 -10.41,0 -19.66,-1.4 -27.77,-4.2 -8.09,-2.8 -15.87,-8.41 -23.27,-16.82 -6.6,-7.8 -11.84,-18.52 -15.75,-32.12 -3.91,-13.61 -5.86,-30.72 -5.86,-51.34 0,-18.42 1.7,-34.37 5.1,-47.88 3.41,-13.52 8.41,-24.37 15.01,-32.58 6.39,-7.81 14.07,-13.51 22.98,-17.12 8.88,-3.59 19.06,-5.4 30.45,-5.4 9.81,0 19.17,1.64 28.08,4.95 8.91,3.3 16.48,8.86 22.67,16.67 z m 133.02,81.97 c 0,-55.45 -16.18,-99.13 -48.5,-131.06 -32.32,-31.93 -77.72,-47.89 -136.16,-47.89 -58.44,0 -103.82,15.96 -136.17,47.89 -32.32,31.93 -48.47,75.61 -48.47,131.06 0,55.85 16.25,99.67 48.79,131.49 32.52,31.83 77.81,47.74 135.85,47.74 58.84,0 104.34,-16.02 136.45,-48.04 32.14,-32.02 48.21,-75.74 48.21,-131.19" /><path
             id="path38"
             style="fill:#ffffff;fill-opacity:1;fill-rule:nonzero;stroke:none"
             d="m 6304.88,1269.57 v 165.69 c -7.59,3.2 -15.58,5.51 -23.97,6.9 -8.38,1.42 -16.07,2.11 -23.05,2.11 -28.37,0 -49.64,-8.86 -63.83,-26.61 -14.16,-17.73 -21.25,-42.34 -21.25,-73.81 0,-33.09 5.67,-57.09 17.08,-72.02 11.38,-14.94 29.65,-22.4 54.8,-22.4 9.79,0 20.18,1.85 31.16,5.56 10.99,3.7 20.66,8.57 29.06,14.58 z m 108.38,-92.8 h -108.38 v 35.13 c -18.61,-15.22 -35.98,-26.42 -52.18,-33.63 -16.21,-7.2 -34.88,-10.81 -56.06,-10.81 -41.01,0 -73.77,15.8 -98.37,47.44 -24.6,31.62 -36.88,74.25 -36.88,127.9 0,28.62 4.15,53.99 12.43,76.1 8.3,22.12 19.64,41.09 34.05,56.9 13.58,15.01 30.07,26.67 49.47,34.98 19.38,8.3 38.78,12.46 58.16,12.46 20.21,0 36.75,-2.15 49.65,-6.46 12.88,-4.3 26.12,-9.75 39.73,-16.36 v 143.52 h 108.38 v -467.17" /><path
             id="path40"
             style="fill:#ffffff;fill-opacity:1;fill-rule:nonzero;stroke:none"
             d="m 2828.15,899.422 c 0,12.566 -3.4,23.406 -10.2,32.488 -6.81,9.09 -14.71,15.43 -23.73,19.031 -12,4.789 -23.71,7.438 -35.12,7.938 -11.41,0.492 -26.62,0.75 -45.64,0.75 h -19.81 V 826.031 h 33.02 c 19.61,0 35.78,1.18 48.49,3.578 12.71,2.391 23.37,7.2 31.97,14.379 7.41,6.391 12.77,14.043 16.07,22.922 3.3,8.879 4.95,19.719 4.95,32.512 z m 119.2,2.558 c 0,-20.019 -3.51,-39.589 -10.51,-58.699 -7.01,-19.121 -17.02,-35.179 -30.02,-48.179 -17.82,-17.622 -37.68,-30.93 -59.6,-39.942 -21.92,-9.012 -49.2,-13.519 -81.81,-13.519 h -71.76 V 596.039 h -115.3 V 1043.1 h 189.76 c 28.42,0 52.38,-2.46 71.9,-7.37 19.52,-4.9 36.79,-12.26 51.79,-22.06 18.02,-11.81 31.78,-26.92 41.29,-45.342 9.5,-18.418 14.26,-40.527 14.26,-66.348" /><path
             id="path42"
             style="fill:#ffffff;fill-opacity:1;fill-rule:nonzero;stroke:none"
             d="m 3255.72,830.219 h -9.58 c -4.58,1.609 -11.99,2.812 -22.18,3.601 -10.19,0.801 -18.67,1.2 -25.45,1.2 -15.38,0 -28.96,-1 -40.74,-3 -11.79,-2 -24.47,-5.411 -38.05,-10.2 V 596.039 h -108.39 v 337.16 h 108.39 V 883.66 c 23.77,20.418 44.44,33.981 62.01,40.692 17.57,6.699 33.75,10.058 48.54,10.058 3.79,0 8.07,-0.109 12.88,-0.301 4.78,-0.199 8.97,-0.507 12.57,-0.91 v -102.98" /><path
             id="path44"
             style="fill:#ffffff;fill-opacity:1;fill-rule:nonzero;stroke:none"
             d="m 3516.96,682.512 c 7,8.59 12.25,18.949 15.78,31.078 3.48,12.09 5.25,28.851 5.25,50.281 0,19.809 -1.82,36.418 -5.41,49.84 -3.61,13.398 -8.62,24.109 -15.02,32.117 -6.41,8.211 -14.11,14.024 -23.11,17.41 -9.01,3.403 -18.72,5.114 -29.13,5.114 -10.41,0 -19.66,-1.411 -27.77,-4.204 -8.1,-2.796 -15.87,-8.418 -23.27,-16.808 -6.6,-7.809 -11.85,-18.52 -15.75,-32.129 -3.91,-13.621 -5.86,-30.731 -5.86,-51.34 0,-18.422 1.7,-34.383 5.09,-47.891 3.42,-13.511 8.42,-24.371 15.02,-32.57 6.39,-7.808 14.07,-13.519 22.98,-17.121 8.88,-3.598 19.05,-5.41 30.46,-5.41 9.8,0 19.17,1.652 28.07,4.961 8.91,3.301 16.48,8.859 22.67,16.672 z m 133.03,81.957 c 0,-55.449 -16.19,-99.129 -48.51,-131.059 -32.31,-31.922 -77.73,-47.879 -136.16,-47.879 -58.45,0 -103.83,15.957 -136.16,47.879 -32.33,31.93 -48.48,75.61 -48.48,131.059 0,55.84 16.25,99.679 48.79,131.511 32.52,31.821 77.81,47.731 135.85,47.731 58.85,0 104.33,-16.02 136.45,-48.031 32.14,-32.039 48.22,-75.782 48.22,-131.211" /><path
             id="path46"
             style="fill:#ffffff;fill-opacity:1;fill-rule:nonzero;stroke:none"
             d="m 3935.24,702.32 v 152.821 c -6.2,2.597 -13.81,4.66 -22.78,6.148 -8.98,1.5 -17.08,2.262 -24.26,2.262 -28.37,0 -49.63,-8.16 -63.81,-24.481 -14.19,-16.308 -21.28,-39.07 -21.28,-68.289 0,-32.429 6.04,-55.062 18.14,-67.859 12.08,-12.813 30,-19.211 53.77,-19.211 10.78,0 21.37,1.687 31.73,5.09 10.39,3.398 19.9,7.91 28.49,13.519 z m 108.38,-67.558 c 0,-31.621 -4.51,-58.25 -13.52,-79.864 -8.99,-21.617 -21.61,-38.527 -37.84,-50.738 -16.2,-12.41 -35.77,-21.371 -58.68,-26.871 -22.92,-5.5 -48.8,-8.269 -77.62,-8.269 -23.43,0 -46.49,1.41 -69.21,4.21 -22.71,2.809 -42.37,6.211 -58.98,10.219 v 84.36 h 13.17 c 13.21,-5.207 29.29,-9.957 48.28,-14.258 18.99,-4.301 35.98,-6.461 50.97,-6.461 19.97,0 36.22,1.859 48.72,5.558 12.48,3.704 22.02,8.954 28.61,15.774 6.21,6.406 10.72,14.609 13.5,24.609 2.8,10.008 4.22,22.008 4.22,36.02 v 6.308 c -13,-10.609 -27.4,-19.007 -43.2,-25.211 -15.79,-6.207 -33.38,-9.308 -52.77,-9.308 -47.18,0 -83.56,14.199 -109.17,42.629 -25.58,28.429 -38.38,71.66 -38.38,129.711 0,27.82 3.91,51.832 11.7,72.058 7.81,20.203 18.78,37.821 32.99,52.84 13.19,14 29.44,24.922 48.72,32.723 19.31,7.801 39.04,11.711 59.23,11.711 18.2,0 34.75,-2.153 49.63,-6.461 14.9,-4.301 28.43,-10.262 40.64,-17.871 l 3.91,15.019 h 105.08 V 634.762" /><path
             id="path48"
             style="fill:#ffffff;fill-opacity:1;fill-rule:nonzero;stroke:none"
             d="m 4378.4,830.219 h -9.58 c -4.58,1.609 -11.99,2.812 -22.17,3.601 -10.19,0.801 -18.68,1.2 -25.45,1.2 -15.37,0 -28.96,-1 -40.74,-3 -11.8,-2 -24.49,-5.411 -38.06,-10.2 V 596.039 h -108.38 v 337.16 H 4242.4 V 883.66 c 23.77,20.418 44.43,33.981 62.01,40.692 17.57,6.699 33.75,10.058 48.54,10.058 3.79,0 8.08,-0.109 12.88,-0.301 4.79,-0.199 8.98,-0.507 12.57,-0.91 v -102.98" /><path
             id="path50"
             style="fill:#ffffff;fill-opacity:1;fill-rule:nonzero;stroke:none"
             d="m 4632.12,684.219 v 70.043 c -14.61,-1.203 -30.41,-2.852 -47.42,-4.942 -17.03,-2.09 -29.94,-4.531 -38.74,-7.34 -10.81,-3.378 -19.07,-8.332 -24.77,-14.808 -5.71,-6.492 -8.55,-15.012 -8.55,-25.594 0,-6.976 0.61,-12.656 1.79,-17.047 1.22,-4.402 4.23,-8.59 9.02,-12.582 4.6,-3.988 10.11,-6.929 16.51,-8.82 6.41,-1.899 16.42,-2.848 30.03,-2.848 10.81,0 21.76,2.199 32.87,6.59 11.11,4.379 20.88,10.168 29.26,17.348 z m 0,-52.457 c -5.79,-4.41 -13.01,-9.711 -21.61,-15.91 -8.59,-6.204 -16.72,-11.114 -24.32,-14.711 -10.6,-4.801 -21.61,-8.371 -33.02,-10.661 -11.4,-2.3 -23.93,-3.46 -37.52,-3.46 -32.03,0 -58.85,9.91 -80.46,29.73 -21.64,19.809 -32.43,45.141 -32.43,75.961 0,24.617 5.5,44.738 16.51,60.348 11,15.601 26.62,27.921 46.82,36.929 20.02,9.012 44.84,15.403 74.47,19.211 29.62,3.813 60.34,6.61 92.17,8.41 v 1.813 c 0,18.609 -7.61,31.469 -22.82,38.566 -15.22,7.114 -37.62,10.66 -67.24,10.66 -17.82,0 -36.84,-3.148 -57.05,-9.457 -20.22,-6.312 -34.73,-11.152 -43.54,-14.562 h -9.9 V 926 c 11.4,3.012 29.96,6.551 55.68,10.66 25.72,4.09 51.51,6.141 77.32,6.141 61.45,0 105.84,-9.442 133.15,-28.371 27.32,-18.91 40.98,-48.578 40.98,-89.02 V 596.039 h -107.19 v 35.723" /><path
             id="path52"
             style="fill:#ffffff;fill-opacity:1;fill-rule:nonzero;stroke:none"
             d="M 5156.38,835.02 V 596.039 h -108.4 v 168.43 c 0,16.41 -0.41,30.371 -1.19,41.883 -0.81,11.507 -3.01,20.867 -6.6,28.078 -3.61,7.199 -9.06,12.461 -16.36,15.761 -7.31,3.309 -17.58,4.95 -30.79,4.95 -10.61,0 -20.92,-2.153 -30.93,-6.45 -10.01,-4.312 -19.01,-8.863 -27.02,-13.671 V 596.039 h -108.38 v 337.16 h 108.38 V 895.98 c 18.61,14.598 36.4,26.008 53.39,34.231 16.99,8.199 35.77,12.301 56.38,12.301 22.18,0 41.77,-4.961 58.76,-14.864 16.99,-9.91 30.3,-24.468 39.88,-43.687 21.59,18.211 42.57,32.539 62.95,42.937 20.4,10.411 40.38,15.614 59.97,15.614 36.39,0 64.01,-10.922 82.91,-32.731 18.87,-21.812 28.32,-53.25 28.32,-94.269 V 596.039 h -108.38 v 168.43 c 0,16.609 -0.36,30.633 -1.05,42.043 -0.7,11.398 -2.85,20.707 -6.47,27.918 -3.39,7.199 -8.8,12.461 -16.2,15.761 -7.41,3.309 -17.82,4.95 -31.22,4.95 -9.02,0 -17.82,-1.539 -26.43,-4.653 -8.61,-3.117 -19.11,-8.258 -31.52,-15.468" /><path
             id="path54"
             style="fill:#ffffff;fill-opacity:1;fill-rule:nonzero;stroke:none"
             d="M 5795.33,835.02 V 596.039 h -108.41 v 168.43 c 0,16.41 -0.4,30.371 -1.19,41.883 -0.8,11.507 -3,20.867 -6.59,28.078 -3.62,7.199 -9.08,12.461 -16.37,15.761 -7.32,3.309 -17.57,4.95 -30.79,4.95 -10.62,0 -20.92,-2.153 -30.93,-6.45 -10.01,-4.312 -19,-8.863 -27.02,-13.671 V 596.039 h -108.38 v 337.16 h 108.38 V 895.98 c 18.6,14.598 36.4,26.008 53.4,34.231 16.98,8.199 35.77,12.301 56.37,12.301 22.17,0 41.77,-4.961 58.75,-14.864 17,-9.91 30.31,-24.468 39.89,-43.687 21.59,18.211 42.57,32.539 62.96,42.937 20.4,10.411 40.37,15.614 59.97,15.614 36.37,0 64,-10.922 82.9,-32.731 18.87,-21.812 28.33,-53.25 28.33,-94.269 V 596.039 h -108.38 v 168.43 c 0,16.609 -0.36,30.633 -1.06,42.043 -0.7,11.398 -2.85,20.707 -6.46,27.918 -3.39,7.199 -8.8,12.461 -16.21,15.761 -7.41,3.309 -17.82,4.95 -31.21,4.95 -9.03,0 -17.83,-1.539 -26.45,-4.653 -8.59,-3.117 -19.1,-8.258 -31.5,-15.468" /><path
             id="path56"
             style="fill:#ffffff;fill-opacity:1;fill-rule:nonzero;stroke:none"
             d="m 6329.48,808 c -0.61,22.629 -6.22,39.641 -16.81,51.039 -10.62,11.41 -27.14,17.121 -49.56,17.121 -20.8,0 -37.93,-5.41 -51.33,-16.219 -13.42,-10.8 -20.92,-28.113 -22.51,-51.941 z m 107.48,-63.352 h -247.39 c 1.59,-26.429 11.65,-46.628 30.16,-60.648 18.52,-14.012 45.8,-21.02 81.83,-21.02 22.82,0 44.93,4.11 66.34,12.309 21.43,8.223 38.34,17.02 50.75,26.43 h 12 v -86.77 c -24.41,-9.808 -47.42,-16.918 -69.05,-21.32 -21.62,-4.399 -45.55,-6.609 -71.76,-6.609 -67.65,0 -119.49,15.218 -155.53,45.64 -36.02,30.43 -54.04,73.762 -54.04,130.012 0,55.637 17.07,99.719 51.19,132.25 34.13,32.519 80.93,48.789 140.36,48.789 54.85,0 96.08,-13.859 123.7,-41.582 27.64,-27.731 41.44,-67.598 41.44,-119.649 v -37.832" /><path
             id="path58"
             style="fill:#ffffff;fill-opacity:1;fill-rule:nonzero;stroke:none"
             d="m 1340.5,2131.15 c 12.51,27.07 24.09,48.62 40.79,74.3 7.37,11.32 15.69,19.22 23.11,30.67 -3.54,1.02 -8.73,-1.91 -10.96,-3.5 -7.42,-5.38 -10.77,-14.12 -16.71,-18.8 -14.03,-11.07 -13.64,-21.11 -21,-26.27 -6.57,-4.64 -8.45,-7.69 -13.05,-14.91 -3.08,-4.82 -5.35,-8.73 -8.6,-18.23 -1.15,-3.42 -3.45,-0.39 -8.92,-7.93 -7.19,-9.8 -10.41,-20.39 -13.39,-32.26 -0.96,-3.9 -7.59,-5.97 -11.86,-14.07 -5.71,-10.92 -9.43,-21.03 -11.9,-36.95 -0.62,-3.69 -6.86,-6.25 -11.16,-16.53 -3.05,-7.23 -5.24,-8.83 -7.9,-22.46 -1.65,-8.3 -5.43,-9.5 -9.7,-21.56 -3.3,-9.2 -3.43,-18.06 -4.58,-30.08 -0.27,-2.33 -4.2,-6.95 -7.83,-13.69 -6.1,-11.26 -5.9,-18.78 -8.32,-30.41 -0.93,-4.2 -5.65,-9.77 -10.18,-27.79 -3.98,-15.98 -0.33,-26.58 -1.68,-34.45 -3.53,-20.45 -7.03,-38.21 -5.14,-58.35 0.94,-9.85 2.44,-20.01 1.78,-29.48 -1.87,-29.7 -3.48,-54.17 -3.32,-87.83 0.11,-18.32 1.54,-43.41 4.32,-64.29 3.04,-23.06 7.44,-41.07 7.44,-41.07 h 75.14 c 0,0 -2.94,43.45 0.95,89.19 2.31,27.42 8.83,56.48 14.76,76.89 7.51,26.03 12.18,39.51 26.37,73.85 0.3,0.76 -0.1,3.98 -3.85,0.83 -7.84,-6.58 -14.39,-12.37 -20.58,-21.69 -9.45,-14.25 -15.21,-25.99 -22.87,-40.63 -8.95,-17.02 -13.89,-31.84 -23.11,-52.52 -0.54,14.92 1.88,29.12 4.91,42.87 3.1,14.04 5.56,25.16 9.98,37.26 7.83,21.35 15.43,39.16 27.99,59.03 7.27,11.47 16.57,21.77 26.01,30.32 11.29,10.32 21.73,19.4 33.55,29.5 -12.42,6.4 -28.96,-6.97 -32.27,-7.65 -17.47,-3.41 -24.58,-19.61 -29.93,-21.82 -7.65,-3.2 -12.07,-7.89 -17.38,-14.34 -4.09,-4.84 -5.32,-12.32 -9.59,-14.98 -7.13,-4.44 -12.37,-11.14 -17.27,-20.5 -2.01,-3.86 -7.5,-22.13 -13.59,-19.78 10.42,61.92 32.28,120.01 67.38,171.69 22.25,32.78 46.45,60.89 82.12,86.11 4.7,3.34 5.61,4.89 -0.95,4.66 -33.34,-4.05 -35.38,-19.27 -40.87,-20.71 -5.2,-1.35 -11.65,-7.52 -15.77,-11.53 -7.41,-7.33 -7.28,-13.51 -10.13,-15.43 -6.08,-4.25 -10.66,-8.65 -14.81,-16.03 -2.19,-3.84 -5.86,-12.3 -9.11,-14.23 -8.57,-4.96 -16.86,-12.19 -20.99,-19.99 -3.05,-5.7 -4.27,-11.89 -8.25,-17.49 -4.27,-6.02 -10.23,-10.53 -15.36,-14.88 3.9,26.47 16.37,57.82 24.95,84.87 11.53,36.12 25.54,68.95 41.33,103.07" /><path
             id="path60"
             style="fill:#ffffff;fill-opacity:1;fill-rule:nonzero;stroke:none"
             d="m 1417.21,1916.65 c 28.44,63.85 58.37,111.9 97.26,168.11 5.08,7.36 9.64,14.58 14.08,21.49 2,3.11 11.56,16.85 13.55,19.76 13.04,19.69 18.52,25.72 31.86,44.53 3.62,5.11 6.55,9.13 8.09,15.04 2.84,11.01 -6.61,18.4 -8.79,28.96 -2.2,10.79 -0.99,22.57 3.96,31.68 3.1,5.69 6.19,7.93 9.31,15.57 6.07,14.73 3.97,46.6 10.87,47.44 -1.75,-15.13 -2.15,-32.13 0.23,-46.64 2.76,-16.93 13.03,-27.18 17.27,-45.11 11.43,2.06 23.83,1.57 33.45,0.74 9.54,-0.82 21.61,1.83 31.4,5.18 13.26,4.53 24.27,12.78 37.79,15.98 -11.5,-11.05 -27.73,-15.2 -41.33,-23.59 -5,-3.14 -9.71,-7.29 -13.05,-12.45 -5.46,-8.5 -9.78,-16.64 -18.34,-20.38 -15.19,-6.62 -28.24,-3.48 -45.57,-6.7 -25.76,-26.54 -50.01,-62.63 -72.38,-100.58 -56.73,-95.98 -104.04,-195.37 -131.54,-297.29 9.51,17.73 18.6,34.88 28.9,51.75 11.38,18.74 24.18,37.09 38.13,55.47 32.66,43.05 64.97,80.64 101.18,120.19 29.21,31.95 61.24,58.76 96.95,81.18 47.19,29.57 105.41,50.28 156.56,39.6 5.82,-1.36 14.14,-2.91 17.77,-6.74 -64.11,8.98 -121.54,-13.42 -164.39,-47.74 -33.86,-27.08 -62.39,-54.56 -91.39,-90.27 -14.98,-17.21 -28.45,-36.13 -41.83,-54.45 -14.02,-19.27 -26.45,-39.55 -38.77,-59.83 -41.55,-68.61 -72.99,-141.25 -96.12,-216.51 -0.66,-2.39 -0.81,-4.79 -1.46,-7.16 1.09,1.69 2.71,3.53 3.81,5.25 31.12,50.61 68.55,99.45 115.96,132.22 4.14,2.82 8.45,8.26 9.57,12.53 5.12,20.09 -10.19,29.75 10.99,57.52 4.86,6.38 11.51,8.71 16.1,14.64 8.67,13.4 15.74,37.41 23,43.86 -3.65,-15.63 -12.61,-32.15 -14.53,-48.26 -2.03,-17.68 2.49,-32.14 3.28,-50.88 12.52,-1.71 22.21,-7.01 32.03,-10.04 15.28,-4.77 24.46,-3.56 39.57,-2.25 6.45,0.54 18.15,4.31 25.1,2.89 -14.61,-7.98 -34.33,-6.51 -49.28,-14.14 -10.46,-5.36 -13.49,-13.27 -27.92,-16.05 -12.84,-2.5 -23.64,-1.16 -31.98,3.12 -6.49,3.27 -11.56,4.64 -17.39,1.85 -15.56,-7.47 -26.18,-18.02 -38.7,-30.65 -29.08,-29.26 -52.81,-61.92 -74.96,-104.75 -5.86,-11.39 -11.13,-22.64 -16.13,-34.25 -2.47,-5.65 -8.6,-21.34 -8.6,-21.34 h -75.98 c 0,0 -0.19,21.91 0.52,29.91 1.46,15.95 3.63,27.76 6.72,43.94 4.41,23.26 8.72,44.37 14.76,66.94 5.88,21.96 12.21,42.56 19.74,63.65 15.71,43.96 32.41,86.06 50.67,127.06" /><path
             id="path62"
             style="fill:#ffffff;fill-opacity:1;fill-rule:nonzero;stroke:none"
             d="m 682.551,1324.81 c 27.73,22.67 48.265,35.82 75.957,52.32 11.242,6.72 28.254,14.34 41.336,20.25 47.988,21.69 111.465,37.68 171.269,38.78 1.082,0 1.016,-0.05 1.016,-0.05 h 445.901 c 0,0 -1.66,0.05 1.56,0.05 14.19,0 28.22,-4.95 36.91,-13.14 8.71,-8.26 12.87,-20.99 15.14,-33.62 1.92,-10.79 0.98,-20.38 -1.53,-31.9 -1.97,-9.1 -3.43,-14.55 -8.51,-22.28 -3.06,-4.71 -5.97,-7.93 -11.68,-12.48 -5.86,-4.67 -14.16,-6.31 -23.67,-6.39 -1,-0.06 -3.12,-0.12 -3.05,-0.08 0.1,0.08 -521.559,0.08 -521.559,0.08 0,0 -3.243,0 -4.871,0 -34.153,0.12 -70.09,-1.62 -103.836,-6.04 -25.844,-3.51 -51.743,-7.55 -76.723,-14.06 -31.504,-8.22 -61.836,-19.61 -92.117,-30.9 16.785,22.31 36.16,41.23 58.457,59.46" /><path
             id="path64"
             style="fill:#ffffff;fill-opacity:1;fill-rule:nonzero;stroke:none"
             d="m 837.383,1502.21 c 27.402,19.79 60.664,36.04 90.117,47.32 14.961,5.66 34.824,11.93 50.605,15.86 19.063,4.81 40.955,8.42 58.825,8.94 5.39,0.15 0.79,0.04 0.79,0.04 l 382.46,0.04 c 0,0 8.19,-0.44 11.03,-1 7.19,-1.55 12.99,-4.48 15.39,-6.01 5.94,-3.81 13.4,-11.81 17.3,-18.14 9.93,-16.35 11.68,-34 8.46,-52.37 -3.67,-20.97 -19.61,-44.86 -41.23,-45.45 -3.77,-0.1 -11.28,0 -11.28,0 h -414.22 c 0,0 -24.114,-0.47 -35.122,-0.87 -20.379,-0.8 -42.969,-3.12 -60.762,-5.74 -15.215,-2.19 -30.078,-5.07 -45.312,-9.15 -51.067,-13.8 -95.442,-39.7 -141.852,-59.84 31.258,54.63 73.539,96.48 114.801,126.37" /><path
             id="path66"
             style="fill:#ffffff;fill-opacity:1;fill-rule:nonzero;stroke:none"
             d="m 623.434,1242.29 c 66.488,39.27 146.582,54.76 219.886,57.22 1.739,0.08 5.215,0.2 5.215,0.2 l 571.735,-0.06 c 0,0 1.04,0 6.21,0.06 34.65,0.02 47.31,-34.36 47.15,-62.17 -0.07,-9.14 -1.62,-18.5 -4.16,-24.77 -3.29,-8.18 -6.93,-14.88 -12.89,-21.32 -2.13,-2.35 -9.78,-7.74 -13.17,-8.56 -7.92,-1.93 -17.67,-1.72 -17.61,-1.72 0.08,0 -425.26,-0.07 -425.26,0 0,0 -22.95,0.92 -38.88,2.44 -11.465,1.14 -20.176,2.35 -32.09,4.61 -29.277,5.82 -53.554,15.36 -78.925,23.17 -16.915,5.23 -34.707,9.14 -53.274,11.93 -34.133,5.24 -71.414,7.62 -105.887,5 -43.847,-3.26 -82.847,-11.85 -124.554,-25.08 7.054,11 36.371,27.11 56.504,39.05" /><path
             id="path68"
             style="fill:#ffffff;fill-opacity:1;fill-rule:nonzero;stroke:none"
             d="m 931.387,1063.01 c -19.539,6.87 -38.614,15.76 -55.723,27.07 -22.285,14.75 -33.203,26.46 -62.004,39.78 -24.644,11.39 -44.324,22.62 -78.687,35.08 -16.582,6.02 -43.446,14.28 -66.481,18.23 -32.906,5.58 -64.637,8.02 -64.637,8.02 0,0 6.719,4.2 10.774,5.43 33.586,10.24 63.246,15.22 97.738,17.78 30.246,2.26 58.031,-0.69 88.356,-5.43 12.441,-1.96 28.613,-5.79 42.668,-9.81 45.632,-12.99 97.527,-33.57 143.543,-33.65 2.578,0 2.285,0.04 2.285,0.04 h 425.011 c 0,0 -3.21,0 1.3,0 12.87,0.04 36.93,-4.14 46.6,-21.21 11.2,-19.69 14.68,-43.13 5.27,-66.6 -2.85,-7.06 -7.58,-17.17 -14.37,-23.29 -5.97,-5.41 -15.67,-8.86 -21.27,-8.86 -1.62,-0.08 -4.4,0 -4.4,0 h -371.7 c 0,0 1.41,0 -2.02,0 -38,0 -85.847,4.59 -122.253,17.42" /><path
             id="path70"
             style="fill:#ffffff;fill-opacity:1;fill-rule:nonzero;stroke:none"
             d="m 1100.7,931.148 c -10.5,10.801 -25,27.352 -38.14,43.051 -25.23,30.081 -36.52,57.171 -36.52,57.171 h 247.91 c 0,0 0.66,-28.61 -5.07,-61.722 -5.36,-30.757 -16.72,-63.179 -28.8,-86.66 -0.44,-24.078 9.72,-46.476 11.39,-70.269 -20.36,-12.5 -42.26,-24.867 -60.51,-42.43 -1.17,-1.07 -3.05,-1.07 -3.82,1.84 -9.78,36.66 -14.93,69.34 -22.94,105.59 -22.61,17.48 -43.81,33.043 -63.5,53.429" /><path
             id="path72"
             style="fill:#ffffff;fill-opacity:1;fill-rule:nonzero;stroke:none"
             d="m 1356.2,951.488 c -7.01,12.942 -12.24,30.051 -20.29,40.211 -1.73,-9.058 0.4,-14.648 -0.83,-23.32 -1.13,-7.27 -7.09,-4.258 -8.3,-0.84 -3.48,9.84 -7.17,21.992 -10.35,32.09 -5.29,16.801 -6.98,31.681 -6.98,31.681 l 41.24,0.06 c 0,0 1.59,-0.39 2.32,-4.42 1.97,-10.39 1.48,-20.52 4.33,-32.571 3.66,-15.508 8.37,-29.668 14.07,-44.117 4.96,-12.742 11.35,-25.571 16.55,-38.231 0.7,-1.66 1.04,-4.84 -0.21,-6.5 -1.53,-1.929 -4.16,-1.679 -5.67,0 -11.81,13.418 -16.57,28.629 -25.88,45.957" /><path
             id="path74"
             style="fill:#ffffff;fill-opacity:1;fill-rule:nonzero;stroke:none"
             d="m 1420.04,922.012 c -7.01,14.937 -16.88,31.758 -16.02,48.707 4.56,-5.969 6.44,-10.27 12.72,-13.61 2.87,-0.918 8.89,-0.058 7.38,4.961 -2.77,9.34 -7.08,17.25 -11.06,30.059 -5.92,18.971 -11.67,39.221 -11.67,39.221 l -42.1,0.02 c 0,0 2.33,-17.09 11.9,-43.3 8.41,-23.211 21.4,-49.769 35.62,-74.672 11.59,-20.488 22.11,-38.359 35.25,-53.296 4.5,-5.161 15.54,-0.653 10.76,6.046 -12.47,17.641 -24.11,37.172 -32.78,55.864" /><path
             id="path76"
             style="fill:#ffffff;fill-opacity:1;fill-rule:nonzero;stroke:none"
             d="m 1693.4,2344.89 c -9.14,-3.98 -17.21,-9.13 -21.77,-17.91 -3.32,-6.3 -5.56,-15.92 0.79,-21.34 11.12,-9.48 24.38,0.23 29.75,9.92 6.79,12.35 5.02,35.96 5.02,35.96 0,0 -7.89,-4.11 -13.79,-6.63" /><path
             id="path78"
             style="fill:#ffffff;fill-opacity:1;fill-rule:nonzero;stroke:none"
             d="m 1703.06,2285.95 c 3.99,7.54 12.74,15.68 22.33,21.51 10.84,6.63 22.07,13.06 29.88,17.72 7.81,4.7 9.3,7.99 9.3,7.99 0,0 -6.44,-2.22 -9.96,-4.29 -19.28,-11.5 -40.31,-24.56 -48.87,-28.33 -10.8,-4.71 -25.47,-5.62 -38.7,-7.31 -2.11,16.69 -6.44,23.62 -6.39,38.44 0.11,7.12 1.83,16.34 3.04,22.77 4.14,21.43 4.95,32.25 4.95,32.25 0,0 -3.27,-3.05 -4.46,-12.49 -1.35,-8.51 -2.3,-11.66 -4.26,-21.73 -2.22,-11.62 -4.55,-21.47 -11.5,-28.73 -10.02,-10.36 -19.3,-28.82 -11.56,-42.96 4.51,-8.26 12.04,-7.06 14.4,-9.19 2.35,-2.12 3.79,-7.21 10.92,-9.57 15.39,-5.14 32.83,8.67 40.88,23.92" /><path
             id="path80"
             style="fill:#ffffff;fill-opacity:1;fill-rule:nonzero;stroke:none"
             d="m 1683.11,2241.88 c 5.22,8.48 10.58,14.43 18.81,19.48 13.67,8.33 23.8,13.97 32.13,18.24 3.62,1.81 6.63,3.97 7.55,7.83 -3.73,-1.4 -17.83,-8.03 -31.83,-16.36 -10.03,-5.98 -27.27,-13.46 -38.85,-13.99 -4.59,-0.2 -7.99,0.93 -11.74,1.04 -7.77,0.33 -17.67,-1.55 -17.67,-1.55 0,0 -2.51,10.98 -5.83,18.89 -1.66,4.06 -4.35,8.22 -5.8,15.83 -0.97,5.08 -1.26,12.71 -0.86,17.25 1.14,13.73 4.84,27.07 4.2,40.97 -8.63,-17.93 -5.1,-40.01 -15.23,-53.88 -4.28,-5.83 -7.66,-10.43 -11.02,-17.78 -5.56,-12.06 -4.9,-24.55 2.62,-36.18 4.34,-6.62 13.91,-6.38 15.56,-7.67 2.51,-1.85 4.65,-8.78 14.01,-10.86 16.02,-3.6 34.9,3.82 43.95,18.74" /><path
             id="path82"
             style="fill:#ffffff;fill-opacity:1;fill-rule:nonzero;stroke:none"
             d="m 1687.58,1891.29 c 3.73,7.53 6.13,17.42 10.89,24.41 -10.76,-1.61 -12.49,-2.84 -28.04,-4.55 -3.39,-0.32 -10.4,-3.84 -12.72,-6.15 -6.15,-6.21 -11.52,-11.96 -9.13,-22.38 0.92,-4.05 4.5,-7.02 6.49,-7.65 12.93,-4.2 26.05,3.49 32.51,16.32" /><path
             id="path84"
             style="fill:#ffffff;fill-opacity:1;fill-rule:nonzero;stroke:none"
             d="m 1700.7,1870.77 c 14.69,3.43 31.66,10.64 38.48,8.37 -13.79,-7.33 -31.17,-10 -46.45,-14.35 -11.65,-3.36 -19.97,-12.16 -30.37,-20.15 -9.55,-7.26 -22.24,-10.22 -33.59,-4.88 -3.83,1.82 -7.54,7.99 -8.2,11.28 -0.6,2.63 -6.08,5.26 -8.89,7.58 -2.83,2.36 -4.2,8.25 -4.26,10.52 -0.49,20.34 14.98,28.55 29.89,40.5 11.23,8.99 25.81,47.16 34.7,55.07 -1.58,-12.3 -17.58,-35.51 -24.55,-53.58 -5.53,-14.39 -3.71,-25.9 -7.28,-41.04 10.66,-0.68 22.54,-2.91 33.28,-3.09 8.42,-0.11 18.59,1.72 27.24,3.77" /><path
             id="path86"
             style="fill:#ffffff;fill-opacity:1;fill-rule:nonzero;stroke:none"
             d="m 1685.22,1839.42 c -8.25,-1.53 -18.34,-4.13 -25.23,-5.59 -23.95,-5.07 -35.4,6.66 -54.52,6.44 1.68,21.91 -5.93,31.71 0.33,45.87 5.59,12.6 10.76,25.94 15.56,36.61 3.89,8.57 5.07,15.8 5.07,15.8 0,0 -5.8,-8.69 -22.32,-40.86 -5.74,-11.23 -16.02,-13.63 -25.15,-24.23 -10.51,-12.12 -16.54,-37.75 2.9,-48.51 3.86,-2.12 3.3,-8.78 6.11,-11.47 12.98,-12.21 39.19,-10.98 55.58,3.9 13.05,11.89 28.91,13.82 42.43,17.32 7.9,2.04 14.83,5.41 14.83,5.41 0,0 -3.75,1.52 -15.59,-0.69" /><path
             id="path88"
             style="fill:#ffffff;fill-opacity:1;fill-rule:nonzero;stroke:none"
             d="m 1205.22,1585.17 c -0.94,0 -1.96,0 0,0 z m -111.88,315.55 c -7.99,-10.56 -11.69,-22.7 -20.51,-31.92 -4.59,-4.83 -11.62,-2.57 -15.26,2.99 -4.05,6.29 -10.6,15.18 -5.73,21.39 8,10.27 24.76,16.82 39,14.96 0.84,-0.09 5.43,-3.48 2.5,-7.42 z M 1055,1840.33 c -4.47,-11.96 -17.8,-13.26 -29.14,-15.62 -2.13,-0.46 -8.65,0 -11.58,2.87 -4.9,4.79 -9.14,11.34 -8.28,19.54 0.45,5.06 4.67,10.02 9.9,12.03 9.47,3.67 20.69,9.57 30.03,4.33 8.02,-4.48 12.23,-14.72 9.07,-23.15 z m -24.55,-63.22 c -3.26,-4.71 -11.64,10.95 -12.74,18.12 -3.12,20.77 15.08,26.07 30.24,25.43 0.47,-12.39 -9.12,-31.57 -17.5,-43.55 z m -16.39,-56.03 c -2.97,-8.35 -4.4,-16.04 -7.72,-23.69 -3.22,-7.4 -16.977,-10.04 -24.602,-7.67 -10.898,3.37 -20.246,27.83 -7.859,37.2 9.48,7.08 19.285,8.22 31.351,9.7 2.17,0.26 10.28,-0.23 10.6,-0.99 2.02,-5.07 0.74,-7.61 -1.77,-14.55 z m -18.337,-64.59 c -2.207,-6.42 -3.184,-13.02 -6.016,-19.19 -1.426,-3.13 -3.281,0.98 -3.359,1.19 -4.278,10.64 -6.985,19.65 -3.34,29.02 2.07,5.19 9.172,9.96 15.91,10.38 -0.422,-6.67 -0.891,-14.9 -3.195,-21.4 z M 974.082,1625 c -4.922,2.22 -4.852,8.55 -6.914,12.48 -1.941,3.84 -6.133,9.13 -4.414,14.17 9.504,-5.33 13.906,-14.83 11.328,-26.65 z m -16.387,39.31 c -11.34,9.32 -12.324,24.22 -19.863,35.62 8.328,5.33 22.383,4.26 26.699,-6.29 3.457,-8.48 5.977,-20.94 -2.629,-27.41 -0.925,-0.69 -3.132,-2.81 -4.207,-1.92 z m -42.246,76.85 c -1.699,2.43 -5.066,9.43 -2.5,10.32 20.274,6.98 35.489,7.21 39.824,-14.49 3.067,-15.48 -7.5,-28.77 -22.324,-23.36 -4.258,1.58 -8.469,18.07 -15,27.53 z m -29.504,48.99 c -1.414,1.79 -2.578,7.18 -0.808,8.56 10.547,8.48 26.035,9.13 38.027,7.96 15.801,-1.44 19.055,-16.14 16.414,-28.32 -3.484,-16.04 -27.801,-18.04 -34.695,-15.37 -6.758,2.6 -11.485,17.94 -18.938,27.17 z m 3.45,57.03 c 13.652,8.86 39.785,15.43 44.14,-8.56 1.309,-7.23 -0.488,-16.83 -10.254,-19.97 -10.039,-3.22 -21.855,-6.69 -31.015,-2.97 -11.27,4.61 -13.489,24.65 -2.871,31.5 z m -14.168,40.36 c 1.023,4.6 6.128,6.78 10.418,7.88 11.054,2.72 23.425,6.85 33.574,0.38 3.965,-2.5 4.265,-6.04 4.785,-11.02 0.898,-8.07 -0.254,-14.66 -5.566,-17.74 -10.77,-6.32 -21.739,-6.89 -34.258,-4.43 -10.157,2.01 -10.977,15.47 -8.953,24.93 z m -11.34,-62.21 c -9.473,7.01 -13.653,16.91 -20.633,26.72 -1.692,2.4 0,3.39 1.297,3.76 16.797,4.75 29.277,-3.63 26.66,-21.96 -0.469,-3.56 -2.793,-11.85 -7.324,-8.52 z m -46.387,56.61 c -6.289,5.45 -1.914,14.92 3.574,17.68 9.61,4.77 24.707,5.49 34.707,2.12 6.426,-2.16 9.68,-11.39 8.528,-21.47 -0.481,-4.12 -1.75,-8.67 -3.762,-10.01 -7.617,-5.19 -19.395,-5.4 -28.652,-3.47 -6.551,1.39 -8.887,10.35 -14.395,15.15 z m -7.258,57.25 c 6.086,13.25 28.313,13.36 40.403,7.46 9.863,-4.85 11.093,-23.19 0.332,-30.42 -8.582,-5.72 -22.11,-3.62 -31.211,-1.95 -12.942,2.38 -13.965,15.1 -9.524,24.91 z m 0.5,49.61 c 9.219,8.77 21.184,4.75 32.305,3.21 2.148,-0.31 4.707,-1.82 6.172,-3.27 7.59,-7.67 8.183,-20.24 -0.266,-26.53 -9.754,-7.25 -21.922,-2.53 -33.641,-1.94 -3.164,0.12 -6.64,3.84 -7.363,6.22 -2.109,7.42 -3.398,16.49 2.793,22.31 z m 5.938,41.49 c 9.804,4.09 26.64,5.97 33.574,-5.03 4.266,-6.74 3.027,-19.22 -3.809,-21.03 -6.699,-1.73 -29.453,-5.51 -34.902,7.07 -2.703,6.2 -1.563,16.17 5.137,18.99 z m 30.168,35.25 c 2.84,-1.25 4.597,-3.52 5.269,-7 1.399,-7.55 -0.594,-15.75 -7.84,-17.08 -10.886,-1.98 -27.05,-2.61 -26.992,12.78 0.039,17.17 16.953,16.98 29.563,11.3 z m -21.926,31.93 c 5.801,2.21 15.332,1.72 20.539,-0.99 2.625,-1.37 6.148,-5.68 4.668,-10.22 -1.848,-5.93 -7.363,-8.07 -13.625,-8.15 -6.024,-0.05 -12.93,0.43 -15.359,5.34 -2.317,4.66 -1.333,12.04 3.777,14.02 z m 6.777,25.74 c 5.293,1.93 13.125,1.8 16.973,-2.38 5.312,-5.79 1.125,-15 -8.887,-14.54 -3.515,0.15 -7.695,1.36 -9.824,2.57 -5.164,2.92 -3.457,12.5 1.738,14.35 z m 23.809,16.59 c 0.683,2.23 4.16,4.84 5.976,5.49 3.977,1.41 8.633,1.7 12.434,0.19 7.605,-3.13 6.551,-12.53 -1.555,-15.83 -3.633,-1.47 -9.218,-2.43 -11.953,-1.47 -5.117,1.73 -6.543,6.17 -4.902,11.62 z m 23.68,-36.76 c -8.29,-2.43 -19.852,-2.9 -22.325,5.6 -4.207,14.42 14.004,16.58 23.449,13.56 6.512,-2.07 8.809,-16.31 -1.124,-19.16 z m 5.492,47.62 c 2.625,8.94 12.761,13.79 21.929,11.06 7.883,-2.31 9.707,-13.06 4.387,-18.29 -2.422,-2.34 -6.406,-4.73 -10.703,-5.68 -9.395,-2.1 -18.613,3.07 -15.613,12.91 z m 41.258,-32.79 c -1.485,-5.83 -5.77,-9.83 -12.618,-11.35 -6.816,-1.5 -16.218,-1.92 -19.992,2.28 -3.601,3.99 -5.254,9.59 -2.254,13.88 6.028,8.56 17.051,11.55 26.875,9.38 5.606,-1.31 9.727,-7.05 7.989,-14.19 z m -3.672,34.31 c 3.672,8.11 12.961,12.19 21.882,9.47 1.79,-0.58 5.469,-3.45 5.981,-6.29 1.062,-5.64 -0.899,-10.79 -5.609,-13.74 -6.036,-3.85 -11.024,-6.01 -17.95,-3.17 -5.203,2.18 -6.472,8.94 -4.304,13.73 z m 38.437,-22.78 c 4.082,-6.9 -2.129,-13.83 -5.273,-15.73 -6.992,-4.09 -16.836,-6.6 -21.055,0.33 -4.141,6.79 -0.703,14.86 6.516,17.84 6.89,2.86 14.031,7.2 19.812,-2.44 z m 11.594,-26.36 c 4.558,-3.78 8.562,-11.7 3.094,-17.97 -5.137,-5.91 -11.512,-7.68 -19.59,-8.98 -5.449,-0.93 -12.434,3.11 -13.321,7.93 -0.8,4.15 -1.562,11.72 2.547,15.21 8.02,6.83 18.782,10.79 27.27,3.81 z m 9.676,44.98 c 4.304,-1.28 7.058,-5.84 4.902,-10.23 -1.309,-2.7 -5.187,-5.65 -7.656,-7.15 -6.758,-4.18 -12.559,-2.46 -14.688,2.51 -3.886,9.15 9.219,17.29 17.442,14.87 z m 16.504,-22.8 c 4.743,-0.42 6.923,-3.73 7.863,-7.36 1.23,-4.87 -0.38,-9.38 -4.48,-12.14 -4.907,-3.25 -11.001,-5.17 -15.876,-5.24 -6.589,-0.12 -12.703,9.56 -9.129,15.84 3.79,6.74 13.313,9.62 21.622,8.9 z m 27.273,-34.89 c 2.8,-8.28 -3.27,-12.14 -9.66,-15.54 -6.5,-3.47 -15.22,-6.71 -19.742,-2.39 -5.762,5.43 -8.328,14.58 -1.895,20.6 8.907,8.36 25.397,14.65 31.297,-2.67 z m 11.78,-20.77 c 10.46,-1.33 12.53,-16.2 10.42,-21.58 -2.38,-4.62 -7.66,-8.24 -10.42,-9.66 -7.68,-3.95 -16.64,-5.45 -23.7,-1.8 -6.43,3.34 -9.2,13.09 -5.72,20.73 4.73,10.34 19.63,13.6 29.42,12.31 z m 21.51,-46.04 c 3.59,-5 2.8,-13.88 0.68,-16.66 -6.59,-9.01 -24.96,-14.16 -32.53,-10.47 -5.76,2.82 -11.45,15.5 -4.71,23.11 7.01,7.9 19.22,12.61 30.31,10.3 2.46,-0.55 4.09,-3.27 6.25,-6.28 z m 4.65,-28.37 c 5.03,-0.54 9.51,-6.08 11.94,-12.11 3.16,-7.8 -0.04,-16.89 -2.53,-18.59 -6.03,-4.09 -25.09,-15.57 -37.08,-8.69 -6.61,3.79 -8.42,12.44 -8.83,17.55 -1.33,16.51 23.71,23.27 36.5,21.84 z m -70.397,-118.09 c -2.57,6.55 -4.941,16.24 0.203,20.22 10.394,8.2 33.884,15.37 42.834,2.97 5.81,-8.05 4.1,-21.7 -6.08,-26.92 -10.5,-5.37 -31.031,-11.54 -36.957,3.73 z m -50.41,-0.72 c 10.429,5.3 25.457,11.7 36.687,4.46 5.137,-3.29 10.442,-16.96 6.817,-23.02 -7.696,-12.87 -27.969,-16.15 -40.84,-12.84 -10.977,2.85 -14.277,25.53 -2.664,31.4 z m -9.387,44.49 c 12.598,8.85 37.442,14.57 43.43,-4.78 1.551,-5.01 2.437,-10.56 -0.129,-14.61 -6.973,-11.21 -24.649,-14.16 -36.485,-12.49 -12.812,1.85 -18.847,23.43 -6.816,31.88 z m -10.586,45.08 c 12.09,6.85 37.852,15.96 43.926,-3.68 2.422,-8.03 2.187,-17.94 -4.695,-21.49 -9.856,-5.16 -25.461,-10.58 -36.809,-3.5 -9.48,6 -10.762,23.89 -2.422,28.67 z m 67.676,81.02 c -5.059,-4.52 -10.203,-5.49 -16.941,-7.78 -9.446,-3.2 -19.309,4.07 -20.403,13.1 -1.816,15.46 14.746,17.76 25.703,19.69 7.989,1.45 12.942,-5.73 14.414,-10.56 1.504,-4.64 1.309,-10.86 -2.773,-14.45 z m 20.314,-36.37 c -7.19,-10.71 -36.173,-17.45 -42.56,-6.43 -4.668,8.07 -7.578,19.39 1.203,24.8 9.207,5.66 20.137,9.05 30.857,7.12 10.09,-1.78 15.21,-18.36 10.5,-25.49 z m 15.44,-66.33 c 4.13,-6.56 7,-15.37 0.89,-23.52 -5.56,-7.45 -25.37,-10.94 -35.531,-8.48 -5.566,1.4 -8.191,8.16 -9.043,12.73 -1.172,6.17 -1.738,12.38 3.731,17.41 7.851,7.2 18.343,7.04 28.403,7.04 4.14,0 10,-2.68 11.55,-5.18 z m -5.75,22.26 c -6.18,-11.34 -27.094,-12.8 -36.496,-11.55 -6.633,0.89 -11.289,11.57 -11.098,20.51 0.07,4.6 1.496,7.64 4.641,9.33 10.449,5.6 21.133,9.35 32.383,7.53 10.96,-1.74 15.21,-17.22 10.57,-25.82 z m -110.082,24.42 c -7.11,21.89 20.222,28.79 36.172,25.41 11.113,-2.31 14.812,-23.65 4.48,-30.39 -12.781,-8.31 -35.476,-10.99 -40.652,4.98 z m -41.211,-53.73 c 8.183,8.45 22.969,8.98 34.512,7.43 7.089,-0.99 10.136,-8.15 11.125,-15.92 2.761,-21.38 -25.942,-24.98 -39.602,-19.98 -8.992,3.29 -13.672,20.58 -6.035,28.47 z m -5.781,41.43 c 8.562,10.07 22.879,12.46 34.738,9.2 7.234,-1.97 10.594,-10.43 10.418,-19.91 -0.137,-5.38 -3.828,-9.29 -7.129,-10.65 -8.438,-3.42 -18.176,-5.96 -27.371,-4.84 -11.34,1.39 -18.215,17.27 -10.656,26.2 z m 1.367,45.1 c 10.527,4.29 30.137,8.14 33.445,-6.9 4.465,-20.02 -19.168,-23.28 -31.797,-19.8 -9.668,2.65 -11.504,22.72 -1.648,26.7 z m 75.722,33.09 c 7.872,-4.47 9.524,-17.08 4.727,-24.39 -6.367,-9.67 -28.125,-15.27 -39.844,-6.81 -6.679,4.85 -10.273,24.72 3.418,29.49 10.93,3.83 21.406,7.54 31.699,1.71 z m -11.152,14.38 c -8.933,-5.52 -21.66,-7.72 -30.098,-3.02 -7.343,4.02 -7.07,14.75 -3.417,20.52 5.976,9.62 20.847,10.66 31.132,7.64 8.86,-2.56 12.176,-19.04 2.383,-25.14 z m -72.285,15.68 c 0.898,2.86 2.168,3.68 3.945,4.55 7.508,3.58 15.75,4.54 22.942,-0.07 5.183,-3.36 4.722,-11.11 0.886,-15.12 -5.625,-5.91 -17.05,-6.15 -24.355,-2.31 -4.727,2.47 -4.949,8.29 -3.418,12.95 z m 2.402,-31.34 c 3.321,9.48 15.137,8.95 24.102,7.79 11.016,-1.44 13.223,-15.56 9.316,-21.5 -5.41,-8.2 -17.761,-6.63 -27.59,-5.38 -7.996,1.02 -8.464,11.61 -5.828,19.09 z m 155.51,-285.21 c 2.7,-10.71 0,-20.89 -9.53,-24.3 -12.257,-4.32 -28.82,-10.65 -38.616,-4.05 -11.192,7.51 -16.582,28.81 -3.719,37.16 15.203,9.94 45.435,16.45 51.865,-8.81 z m -16.518,33.3 c -8.23,-9.35 -21.667,-9.04 -34.851,-12.91 -5.098,-1.47 -11.133,3.02 -13.789,7.68 -4.863,8.7 -9.746,20.36 -0.41,28.77 7.734,7.05 18.281,6.45 27.754,9.28 4.25,1.28 9.453,2.77 14.621,-0.72 10.673,-7.29 14.833,-22.91 6.675,-32.1 z m 87.308,140.15 c 2.32,-6.81 5.44,-11.8 2.8,-18.58 -3.14,-8.33 -11.22,-9.47 -18.8,-12.21 -7.07,-2.56 -18.85,-5.79 -24.77,0.4 -6.82,7.04 -9.55,21.39 -1.41,27.54 10.55,7.86 36.6,18.71 42.18,2.85 z m 143.29,61.18 c 6.23,25.39 13.97,51.14 15.9,77.97 2.84,40.07 -5.8,81.73 -31.51,112.08 2.53,-13.09 5.88,-24.14 7.64,-37.88 2.09,-16.59 -0.25,-35.07 -4.53,-51.77 -3.24,-12.64 -8.94,-24.93 -14.59,-36.67 -6.67,-13.91 -16.63,-29.04 -26.54,-41.45 -27.82,-34.58 -71.15,-102.07 -71.15,-102.07 0,0 -3.64,0.26 -5.79,0.26 -0.5,8.41 19.45,37.22 29.52,53.35 22.09,35.35 38.82,54.37 58.03,85.03 12.04,19.32 21.23,42.84 24.19,64.16 5.99,43.43 -17.43,95.48 -51.09,112.79 7.69,-32.44 6.89,-78.17 -10.39,-97.4 -32.69,-36.43 -52.12,-63.69 -75.45,-110.39 -0.67,-1.25 -6.13,6.3 -10.64,9.23 -5.06,3.36 -2.23,13.37 -4.05,20.11 -1.64,5.73 -4.33,10.15 -5.14,11.15 -6.89,8.46 -13.57,8.99 -15.03,11.53 -1.67,2.86 -0.86,10 -6.9,18.13 -3,4.1 -10.66,7.13 -13.79,10.97 -3.38,4.2 -4.9,17.05 -14.22,22.32 -4.411,2.48 -6.462,10.19 -10.708,13.97 -13.086,11.59 -26.145,9.35 -28.652,10.08 -3.372,0.9 -9.934,9.27 -21.633,11.28 -11.446,1.95 -17.735,-5.68 -23.672,-2.92 -14.895,6.89 -29.16,7.46 -44.981,-10.18 -4.746,-5.25 -12.968,-0.34 -23.214,-8.18 -8.993,-6.86 -9.168,-13.2 -13.75,-14.06 -8.602,-1.62 -15.028,-8.51 -18.348,-16.03 -1.719,-3.87 -3.02,-11.7 -4.024,-16.86 -1.406,-7.13 -5.019,-13.69 -5.078,-18.93 -0.09,-7.28 2.207,-11.21 1.563,-14.47 -1.055,-4.71 -4.871,-9.04 -5.332,-13.44 -0.352,-2.5 -0.567,-9.16 1.25,-12.91 2.297,-4.62 -1.602,-8.63 -3.633,-13.56 -1.934,-4.58 -3.965,-12.42 -3.34,-17.95 0.82,-7.59 5.156,-10.37 1.777,-16.35 -5.531,-9.72 -12.531,-24.88 -0.261,-44.25 2.254,-3.54 -5.141,-10.43 -5.555,-20.54 -0.469,-11 6.168,-19.13 7.984,-24 0.352,-1.75 -2.918,-1.65 -3.039,-3.53 -29.222,30.9 -55.062,59.39 -88.949,86.22 -20.703,16.36 -41.172,30.12 -64.109,42.4 -61.289,32.87 -132.492,54.86 -196.992,46.82 24.285,-19.55 54.941,-33.5 79.89,-55.71 23.641,-21.06 45.09,-39.04 66.621,-61.41 33.793,-35.11 61.254,-70.7 89.867,-112.01 8.5,-12.23 14.094,-20.41 22.012,-33.17 7.981,-12.76 16.844,-26.31 24.106,-38.96 36.613,-63.58 66.609,-122.44 96.98,-187.59 8.418,-18.01 15.508,-36.87 23.762,-54.78 2.215,-4.86 5.379,-1.25 7.605,0 10.977,6.35 22.657,11.66 34.051,17.04 9.094,4.18 17.375,7.06 25.512,10.18 20.535,7.83 40.027,12.08 61.551,16.55 35.919,7.52 100.429,5.97 100.429,5.97 l 122.34,0.04 c 0.8,0 1.63,0 3.34,0 -1.28,35.07 -9.61,69.15 -11.64,104.32 -1.54,28.5 -0.59,56.04 0.41,84.59 2.74,77.36 14.11,160.4 31.39,230.88" /><path
             id="path90"
             style="fill:#ffffff;fill-opacity:1;fill-rule:nonzero;stroke:none"
             d="m 395.137,2295.16 c -23.871,-23.8 -30.992,-32.57 -44.91,-58.88 -8.2,-15.47 -18.61,-35.33 -21.579,-60.93 49.051,18.67 89.071,56.78 125.235,98.87 26.754,31.2 47.504,72.6 73.887,103.42 -46.469,-15.58 -95.504,-45.52 -132.633,-82.48" /><path
             id="path92"
             style="fill:#ffffff;fill-opacity:1;fill-rule:nonzero;stroke:none"
             d="m 254.711,2228.25 c 18.492,31.24 44.98,65.01 72.441,88.05 -12.718,-28.57 -28.382,-56.87 -33.769,-90.66 -10.672,-67.27 -20.746,-114.39 -31.906,-175.79 30.503,21.76 62.683,55.95 95.031,79.81 24.996,18.37 50.051,30.64 75.758,48.3 15.277,10.55 25.234,24.09 37.945,36.77 -15.145,-63.84 -71.164,-128.27 -111.273,-158.31 -50.387,-37.79 -68.45,-43.81 -149.422,-126.15 -10.282,101.67 -8.454,207.33 45.195,297.98" /><path
             id="path94"
             style="fill:#ffffff;fill-opacity:1;fill-rule:nonzero;stroke:none"
             d="m 89.5234,1890.59 c 3.7657,52.8 10.1016,95.02 22.9256,146.52 8.989,35.97 28.34,89.51 56.246,111.47 -3.418,-13.04 -5.215,-32.6 -6.531,-45.79 -5.469,-54.4 4.945,-117.58 6.188,-171.91 0.617,-26.72 0.382,-47.31 -3.618,-72.41 -4.136,-26.33 -0.687,-58.62 -0.687,-58.62 0,0 14.426,16.47 27.305,36.99 28.144,44.7 37.16,57.97 59.836,82.19 28.132,30.05 59.597,57.88 95.124,82.52 -4.285,-16.69 -22.425,-49.16 -29.921,-62.21 -10.004,-17.45 -14.543,-33.32 -38.215,-72.85 -33.313,-55.55 -48.153,-63.04 -85.141,-122.45 -8.008,-12.92 -40.847,-62.06 -48.805,-77.08 -17.328,35.86 -23.863,67.19 -45.1206,125.56 -13.3516,36.68 -11.3555,73.37 -9.586,98.07" /><path
             id="path96"
             style="fill:#ffffff;fill-opacity:1;fill-rule:nonzero;stroke:none"
             d="M 38.0898,1615.92 C 18.0039,1668 8.80078,1716.32 1.99219,1771.15 c -4.16016,33.55 -2.226565,78.26 9.74611,110.52 3.1406,-7.87 9.5469,-27.87 10.414,-30.86 8.9063,-29.96 12.6329,-44.35 25.0821,-73.25 9.5234,-22.16 21.1679,-39.83 33.6289,-61.73 11.3281,-19.99 20.8907,-46.31 29.0857,-66.45 26.375,-64.57 28.321,-125.02 38.414,-131.62 7.258,15.54 9.532,30.42 10.344,37.75 7.84,71.45 17.25,136.39 107.227,220.6 8.254,-25.07 4.07,-71.28 -0.891,-96.03 -10.758,-54.12 -19.445,-80.11 -43.281,-132.56 -12.598,-27.62 -29.418,-68.27 -34.028,-81.73 -12.082,-35.07 -16.218,-53.45 -23.82,-74.19 -42.476,70.78 -94.7578,143.87 -125.8242,224.32" /><path
             id="path98"
             style="fill:#ffffff;fill-opacity:1;fill-rule:nonzero;stroke:none"
             d="m 108.121,1290.31 c -30.246,42.09 -41.2655,63.25 -60.9491,108.07 -16.5274,37.59 -21.2813,51.53 -30.961,93.63 -5.289,22.95 -8.27731,43.77 -4.1718,57.34 23.6797,-42.87 39.8398,-90.85 70.8125,-126.41 24.5894,-28.21 48.2774,-52.24 67.8244,-76.04 29.988,-36.59 53.601,-71.22 82.383,-109.3 2.425,19.08 3.363,38.44 -0.926,69.71 -5.856,42.87 -2.246,78 5.238,119.5 9.488,52.65 16.445,78.71 34.715,131.98 22.348,-43.83 22.262,-94.54 27.871,-141.03 10.828,-90.2 -17.391,-197.76 -22.941,-242.6 -1.485,-11.82 0.562,-40.96 1.16,-52.33 -42.199,33.25 -79.742,66.8 -116.141,103.3 -16.586,16.55 -39.344,43.95 -53.914,64.18" /><path
             id="path100"
             style="fill:#ffffff;fill-opacity:1;fill-rule:nonzero;stroke:none"
             d="m 268.102,959.531 c -19.215,13.828 -70.844,53.299 -95.29,84.359 -35.601,45.19 -43.437,64.57 -66.921,116.58 -2.879,6.35 -16.1683,35.78 -17.2543,55.78 76.9453,-92.91 145.8323,-106.74 219.2303,-183.85 26.934,-28.24 54.516,-54.822 69.071,-68.138 11.171,-10.293 25.042,-13.403 25.042,-13.403 0,0 -1.445,19.813 -8.687,33.571 -48.969,93.6 -58.211,191.45 -50.781,296.47 22.351,-27.68 29.402,-46.15 43.586,-72.91 15.429,-29.16 23.297,-47.19 30.507,-65.12 41.903,-104.29 52.805,-224.741 78.692,-285.37 -79.91,26.922 -142.84,41.309 -227.195,102.031" /><path
             id="path102"
             style="fill:#ffffff;fill-opacity:1;fill-rule:nonzero;stroke:none"
             d="m 595.824,713.441 c -21.613,-1.472 -63.992,-1.332 -86.586,2.34 -114.394,18.321 -220.726,101.207 -274.215,192.289 48.497,-29.59 83.563,-49.359 126.211,-64.121 37.985,-13.129 74.008,-17.019 137.418,-35.019 38.262,-10.801 76.145,-26.121 89.453,-31.102 42.418,-15.797 60.278,-11.906 60.278,-11.906 0,0 0,6.437 -15.844,23.726 -31.578,34.454 -43.141,42.704 -69.121,69.18 -8.531,8.75 -28.074,38.481 -37.996,58.242 -28.074,55.879 -31.192,100.69 -56.828,162.07 93.554,-54.94 139.125,-130.742 188.59,-226.331 15.211,-29.25 35.777,-63.059 54.57,-81.661 12.637,-12.457 30.441,-31.398 30.441,-31.398 0,0 -13.047,-3.09 -53.664,-9.078 -18.222,-2.66 -57.051,-14.75 -92.707,-17.231" /><path
             id="path104"
             style="fill:#ffffff;fill-opacity:1;fill-rule:nonzero;stroke:none"
             d="m 1049.31,706.172 c 49.38,-8.063 93.27,-20.07 138.19,-35.492 12.07,-4.141 30.44,-13.282 43.16,-19.719 31.84,-16.191 50.16,-26.723 77.52,-45.531 44.07,-30.352 91.41,-63.051 134.12,-112.668 0.91,-0.981 7.82,-8.364 3.22,-11.961 -8.37,-6.563 -29,-15.903 -35.85,-9.84 -39.08,34.738 -37.11,45.879 -84.47,88.769 -12.15,10.942 -30.49,26.29 -52.41,41.29 -21.37,14.628 -47.21,30.601 -71.22,42.441 -21.82,10.738 -55.42,13.937 -74.28,13.937 l 0.25,-0.128 c -8.57,0.332 -57.83,0.601 -69.24,-0.141 -96.808,-6.617 -92.07,-15.289 -147.89,-30.41 -45.898,-12.481 -95.156,-21.391 -144.047,-27.949 -50.09,-6.801 -94.91,-7.622 -141.859,-2.829 -63.649,6.559 -133.274,24.297 -185.242,57.789 47.515,-0.8 96.304,-9.941 143.57,-6.308 19.887,1.527 52.156,4.527 74.008,11.269 43.418,13.321 68.332,18.539 114.312,31.348 39.512,11 79.344,14.813 120.606,19.141 57.109,6.109 110.002,4.75 157.552,-3.008" /><path
             id="path106"
             style="fill:#ffffff;fill-opacity:1;fill-rule:nonzero;stroke:none"
             d="m 1934.51,2295.16 c 23.88,-23.8 31.03,-32.57 44.94,-58.88 8.21,-15.47 18.62,-35.33 21.59,-60.93 -49.1,18.67 -89.08,56.78 -125.27,98.87 -26.77,31.2 -47.49,72.6 -73.87,103.42 46.48,-15.58 95.5,-45.52 132.61,-82.48" /><path
             id="path108"
             style="fill:#ffffff;fill-opacity:1;fill-rule:nonzero;stroke:none"
             d="m 2074.97,2228.25 c -18.51,31.24 -44.99,65.01 -72.44,88.05 12.84,-30.74 31.56,-69.04 33.76,-90.66 6.83,-67.74 20.74,-114.39 31.91,-175.79 -30.49,21.76 -62.71,55.95 -95.06,79.81 -24.94,18.37 -50.01,30.64 -75.7,48.3 -15.31,10.55 -25.26,24.09 -37.98,36.77 15.15,-63.84 71.17,-128.27 111.28,-158.31 50.37,-37.79 68.44,-43.81 149.38,-126.15 10.27,101.67 8.45,207.33 -45.15,297.98" /><path
             id="path110"
             style="fill:#ffffff;fill-opacity:1;fill-rule:nonzero;stroke:none"
             d="m 2240.16,1890.59 c -3.81,52.8 -10.08,95.02 -22.93,146.52 -8.99,35.97 -28.34,89.51 -56.29,111.47 3.45,-13.04 5.22,-32.6 6.56,-45.79 5.52,-54.4 -4.88,-117.58 -6.17,-171.91 -0.62,-26.72 -0.39,-47.31 3.58,-72.41 4.15,-26.33 0.72,-58.62 0.72,-58.62 0,0 -14.42,16.47 -27.33,36.99 -28.09,44.7 -37.11,57.97 -59.84,82.19 -28.11,30.05 -59.6,57.88 -95.14,82.52 4.34,-16.69 22.46,-49.16 29.96,-62.21 10.05,-17.45 14.53,-33.32 38.22,-72.85 33.3,-55.55 48.15,-63.04 85.1,-122.45 8.01,-12.92 40.9,-62.06 48.85,-77.08 17.34,35.86 23.86,67.19 45.12,125.56 13.39,36.68 11.38,73.37 9.59,98.07" /><path
             id="path112"
             style="fill:#ffffff;fill-opacity:1;fill-rule:nonzero;stroke:none"
             d="m 2291.58,1615.92 c 20.08,52.08 29.27,100.4 36.12,155.23 4.16,33.55 2.19,78.26 -9.75,110.52 -3.15,-7.87 -9.53,-27.87 -10.42,-30.86 -8.94,-29.96 -12.64,-44.35 -25.06,-73.25 -9.53,-22.16 -21.24,-39.83 -33.66,-61.73 -11.33,-19.99 -20.88,-46.31 -29.12,-66.45 -26.34,-64.57 -28.29,-125.02 -38.38,-131.62 -7.29,15.54 -9.54,30.42 -10.33,37.75 -7.85,71.45 -17.27,136.39 -107.23,220.6 -8.28,-25.07 -4.08,-71.28 0.84,-96.03 10.8,-54.12 19.53,-80.11 43.32,-132.56 12.6,-27.62 29.42,-68.27 34.06,-81.73 12.01,-35.07 16.17,-53.45 23.83,-74.19 42.44,70.78 94.73,143.87 125.78,224.32" /><path
             id="path114"
             style="fill:#ffffff;fill-opacity:1;fill-rule:nonzero;stroke:none"
             d="m 2221.56,1290.31 c 30.28,42.09 41.26,63.25 60.94,108.07 16.52,37.59 21.26,51.53 30.98,93.63 5.29,22.95 8.26,43.77 4.14,57.34 -23.62,-42.87 -39.87,-90.85 -70.83,-126.41 -24.54,-28.21 -48.24,-52.24 -67.79,-76.04 -29.96,-36.59 -53.64,-71.22 -82.38,-109.3 -2.4,19.08 -3.38,38.44 0.88,69.71 5.9,42.87 2.29,78 -5.2,119.5 -9.49,52.65 -16.44,78.71 -34.7,131.98 -22.33,-43.83 -22.27,-94.54 -27.88,-141.03 -10.86,-90.2 17.43,-197.76 22.98,-242.6 1.44,-11.82 -0.6,-40.96 -1.2,-52.33 42.2,33.25 79.75,66.8 116.14,103.3 16.59,16.55 39.29,43.95 53.92,64.18" /><path
             id="path116"
             style="fill:#ffffff;fill-opacity:1;fill-rule:nonzero;stroke:none"
             d="m 2061.59,959.531 c 19.19,13.828 70.83,53.299 95.27,84.359 35.6,45.19 43.45,64.57 66.93,116.58 2.83,6.35 16.17,35.78 17.25,55.78 -76.94,-92.91 -145.83,-106.74 -219.23,-183.85 -26.93,-28.24 -54.49,-54.822 -69.06,-68.138 -11.17,-10.293 -25.04,-13.403 -25.04,-13.403 0,0 1.43,19.813 8.66,33.571 48.98,93.6 58.23,191.45 50.76,296.47 -22.28,-27.68 -29.38,-46.15 -43.55,-72.91 -15.4,-29.16 -23.29,-47.19 -30.47,-65.12 -41.94,-104.29 -52.89,-224.741 -78.76,-285.37 79.97,26.922 142.88,41.309 227.24,102.031" /><path
             id="path118"
             style="fill:#ffffff;fill-opacity:1;fill-rule:nonzero;stroke:none"
             d="m 1733.85,713.441 c 21.66,-1.472 64,-1.332 86.62,2.34 114.39,18.321 220.69,101.207 274.19,192.289 -48.55,-29.59 -83.61,-49.359 -126.22,-64.121 -38.01,-13.129 -74.01,-17.019 -137.39,-35.019 -38.3,-10.801 -76.17,-26.121 -89.49,-31.102 -42.41,-15.797 -60.27,-11.906 -60.27,-11.906 0,0 0,6.437 15.84,23.726 31.58,34.454 43.16,42.704 69.1,69.18 8.56,8.75 28.11,38.481 38.02,58.242 28.07,55.879 31.2,100.69 56.86,162.07 -93.55,-54.94 -139.22,-130.742 -188.65,-226.331 -15.17,-29.25 -35.74,-63.059 -54.51,-81.661 -12.62,-12.457 -30.47,-31.398 -30.47,-31.398 0,0 13.05,-3.09 53.7,-9.078 18.2,-2.66 57,-14.75 92.67,-17.231" /><path
             id="path120"
             style="fill:#ffffff;fill-opacity:1;fill-rule:nonzero;stroke:none"
             d="m 1280.37,706.172 c -49.38,-8.063 -93.23,-20.07 -138.18,-35.492 -12.12,-4.141 -30.45,-13.282 -43.18,-19.719 -31.83,-16.191 -50.12,-26.723 -77.51,-45.531 -44.098,-30.352 -91.371,-63.051 -134.117,-112.668 -0.93,-0.981 -7.863,-8.364 -3.223,-11.961 8.379,-6.563 29.024,-15.903 35.813,-9.84 39.097,34.738 37.117,45.879 84.517,88.769 12.09,10.942 30.43,26.29 52.39,41.29 21.42,14.628 47.18,30.601 71.23,42.441 21.77,10.738 55.44,13.937 74.27,13.937 l -0.27,-0.128 c 8.59,0.332 57.83,0.601 69.27,-0.141 96.82,-6.617 92.06,-15.289 147.85,-30.41 45.94,-12.481 95.18,-21.391 144.08,-27.949 50.06,-6.801 94.91,-7.622 141.86,-2.829 63.66,6.559 133.26,24.297 185.2,57.789 -47.48,-0.8 -96.24,-9.941 -143.55,-6.308 -19.91,1.527 -52.13,4.527 -73.99,11.269 -43.42,13.321 -68.35,18.539 -114.29,31.348 -39.53,11 -79.36,14.813 -120.6,19.141 -57.13,6.109 -110.01,4.75 -157.57,-3.008" /><path
             id="path122"
             style="fill:#ffffff;fill-opacity:1;fill-rule:nonzero;stroke:none"
             d="m 1103.64,2834.64 -86.96,-322.87 h -92.305 l -57.734,210.33 -56.465,-210.33 h -92.078 l -86.95,322.87 h 86.903 l 49.531,-222.26 59.586,222.26 h 83.047 l 56.531,-222.26 52.004,222.26 h 84.89" /><path
             id="path124"
             style="fill:#ffffff;fill-opacity:1;fill-rule:nonzero;stroke:none"
             d="m 1390.51,2772.2 h -148.54 v -60.08 h 137.7 v -62.44 h -137.7 v -137.91 h -82.81 v 322.87 h 231.35 v -62.44" /><path
             id="path126"
             style="fill:#ffffff;fill-opacity:1;fill-rule:nonzero;stroke:none"
             d="m 1628.38,2730.88 c 0,9.08 -2.46,16.9 -7.36,23.46 -4.93,6.57 -10.63,11.14 -17.13,13.74 -8.68,3.46 -17.13,5.37 -25.37,5.74 -8.25,0.35 -19.24,0.54 -32.97,0.54 h -14.31 v -96.5 h 23.85 c 14.17,0 25.84,0.87 35.03,2.6 9.18,1.73 16.87,5.2 23.08,10.39 5.35,4.6 9.22,10.13 11.6,16.55 2.39,6.41 3.58,14.24 3.58,23.48 z m 86.09,1.85 c 0,-14.46 -2.54,-28.59 -7.59,-42.4 -5.06,-13.81 -12.29,-25.41 -21.68,-34.79 -12.88,-12.74 -27.22,-22.34 -43.05,-28.85 -15.82,-6.51 -35.53,-9.76 -59.08,-9.76 h -51.83 v -105.16 h -83.27 v 322.87 h 137.05 c 20.53,0 37.83,-1.77 51.92,-5.31 14.1,-3.55 26.58,-8.85 37.42,-15.94 13,-8.53 22.94,-19.44 29.81,-32.75 6.87,-13.3 10.3,-29.26 10.3,-47.91" /><path
             id="path128"
             style="fill:#ffffff;fill-opacity:1;fill-rule:nonzero;stroke:none"
             d="M 529.312,257.871 471.266,70.5508 H 407.52 L 369.352,196.82 331.645,70.5508 H 267.266 L 209.723,257.871 h 62.988 l 32.152,-129.101 39.965,129.101 h 53.207 l 38,-129.101 31.633,129.101 h 61.644" /><path
             id="path130"
             style="fill:#ffffff;fill-opacity:1;fill-rule:nonzero;stroke:none"
             d="m 679.77,286.059 h -4.493 c -2.66,0.781 -6.121,1.679 -10.394,2.671 -4.27,1 -8.844,1.508 -13.727,1.508 -11.754,0 -19.707,-2.109 -23.867,-6.347 -4.152,-4.219 -6.23,-12.403 -6.23,-24.512 v -1.508 h 46.199 V 217.168 H 623.059 V 70.5508 H 562.836 V 217.168 h -25.684 v 40.703 h 25.684 v 5.18 c 0,22.89 6.094,40.078 18.273,51.539 12.176,11.449 30.606,17.172 55.293,17.172 8.895,0 16.957,-0.293 24.184,-0.922 7.226,-0.602 13.625,-1.41 19.184,-2.399 v -42.382" /><path
             id="path132"
             style="fill:#ffffff;fill-opacity:1;fill-rule:nonzero;stroke:none"
             d="m 819.141,165.551 c 0,18.199 -3.106,31.418 -9.317,39.629 -6.211,8.218 -16.031,12.32 -29.453,12.32 -5.66,0 -11.484,-0.859 -17.473,-2.578 -5.988,-1.723 -11.703,-4.184 -17.14,-7.402 v -94.102 c 3.988,-1.559 8.265,-2.559 12.816,-3.008 4.547,-0.43 9.039,-0.66 13.477,-0.66 15.863,0 27.683,4.648 35.449,13.898 7.766,9.282 11.641,23.25 11.641,41.903 z m 61.894,1.25 c 0,-15.449 -2.363,-29.512 -7.09,-42.211 -4.715,-12.668 -10.91,-23.121 -18.574,-31.3517 -7.988,-8.668 -17.051,-15.2266 -27.148,-19.6797 -10.11,-4.457 -20.938,-6.6602 -32.493,-6.6602 -10.656,0 -19.714,1.1328 -27.152,3.4102 -7.441,2.2695 -15.047,5.4726 -22.82,9.5703 V 1.83984 H 685.543 V 257.871 h 60.215 v -19.512 c 9.215,7.321 18.629,13.282 28.234,17.852 9.606,4.551 20.688,6.84 33.235,6.84 23.32,0 41.457,-8.582 54.394,-25.692 12.941,-17.121 19.414,-40.64 19.414,-70.558" /><path
             id="path134"
             style="fill:#ffffff;fill-opacity:1;fill-rule:nonzero;stroke:none"
             d="m 909.492,70.5508 h 62.3828 v 65.5586 H 909.492 Z" /><path
             id="path136"
             style="fill:#ffffff;fill-opacity:1;fill-rule:nonzero;stroke:none"
             d="m 1131.27,118.602 c 3.89,4.777 6.82,10.539 8.75,17.257 1.95,6.719 2.93,16.039 2.93,27.93 0,11.02 -1,20.231 -3.01,27.699 -1.99,7.442 -4.78,13.391 -8.34,17.852 -3.55,4.551 -7.83,7.769 -12.84,9.672 -5.01,1.886 -10.4,2.828 -16.18,2.828 -5.78,0 -10.92,-0.781 -15.43,-2.328 -4.51,-1.563 -8.81,-4.68 -12.93,-9.352 -3.67,-4.32 -6.58,-10.281 -8.75,-17.828 -2.17,-7.562 -3.25,-17.07 -3.25,-28.543 0,-10.23 0.94,-19.098 2.83,-26.598 1.88,-7.5 4.67,-13.543 8.33,-18.113 3.57,-4.308 7.82,-7.476 12.77,-9.488 4.94,-2.012 10.59,-3.012 16.94,-3.012 5.44,0 10.64,0.922 15.58,2.762 4.94,1.832 9.16,4.922 12.6,9.262 z m 73.89,45.539 c 0,-30.821 -8.99,-55.082 -26.94,-72.8129 -17.97,-17.7265 -43.16,-26.5976 -75.64,-26.5976 -32.47,0 -57.69,8.8711 -75.65,26.5976 -17.96,17.7309 -26.93,41.9919 -26.93,72.8129 0,31.019 9.02,55.371 27.11,73.05 18.07,17.668 43.22,26.52 75.47,26.52 32.69,0 57.96,-8.879 75.8,-26.699 17.85,-17.774 26.78,-42.071 26.78,-72.871" /><path
             id="path138"
             style="fill:#ffffff;fill-opacity:1;fill-rule:nonzero;stroke:none"
             d="m 1366.89,200.672 h -5.33 c -2.56,0.867 -6.66,1.558 -12.32,1.988 -5.66,0.449 -10.37,0.66 -14.14,0.66 -8.55,0 -16.09,-0.55 -22.64,-1.66 -6.54,-1.109 -13.59,-3.012 -21.13,-5.66 V 70.5508 h -60.22 V 257.871 h 60.22 v -27.519 c 13.2,11.347 24.69,18.867 34.44,22.597 9.77,3.731 18.76,5.59 26.96,5.59 2.11,0 4.5,-0.059 7.17,-0.16 2.66,-0.117 4.99,-0.289 6.99,-0.508 v -57.199" /><path
             id="path140"
             style="fill:#ffffff;fill-opacity:1;fill-rule:nonzero;stroke:none"
             d="m 1505.76,129.609 v 84.903 c -3.44,1.429 -7.65,2.578 -12.65,3.398 -4.99,0.84 -9.49,1.27 -13.48,1.27 -15.76,0 -27.58,-4.532 -35.45,-13.61 -7.87,-9.05 -11.82,-21.699 -11.82,-37.929 0,-18.012 3.36,-30.59 10.08,-37.7 6.7,-7.132 16.66,-10.679 29.86,-10.679 6,0 11.88,0.937 17.64,2.828 5.77,1.898 11.06,4.398 15.82,7.519 z m 60.22,-37.5387 c 0,-17.5586 -2.5,-32.3594 -7.51,-44.3515 -5.01,-12.0391 -12.01,-21.4297 -21.03,-28.2071 -9,-6.8906 -19.86,-11.87108 -32.6,-14.92186 C 1492.11,1.51953 1477.73,0 1461.72,0 c -13.01,0 -25.82,0.78125 -38.44,2.35156 -12.63,1.53906 -23.55,3.42969 -32.78,5.66016 V 54.8789 h 7.33 c 7.33,-2.8906 16.26,-5.5195 26.82,-7.9297 10.55,-2.3789 19.98,-3.5898 28.31,-3.5898 11.1,0 20.13,1.039 27.07,3.0898 6.94,2.0703 12.24,4.9805 15.9,8.7696 3.45,3.5507 5.95,8.1015 7.49,13.6718 1.56,5.5586 2.34,12.2188 2.34,20.0196 v 3.4882 c -7.22,-5.8867 -15.21,-10.5586 -23.99,-14 -8.77,-3.457 -18.55,-5.1796 -29.32,-5.1796 -26.22,0 -46.43,7.8906 -60.64,23.7031 -14.22,15.7771 -21.32,39.7971 -21.32,72.0471 0,15.453 2.17,28.801 6.49,40.043 4.33,11.226 10.44,21.008 18.32,29.347 7.34,7.77 16.36,13.852 27.07,18.161 10.72,4.359 21.69,6.531 32.91,6.531 10.11,0 19.3,-1.192 27.57,-3.602 8.27,-2.398 15.8,-5.679 22.58,-9.918 l 2.17,8.34 h 58.38 V 92.0703" /><path
             id="path142"
             style="fill:#ffffff;fill-opacity:1;fill-rule:nonzero;stroke:none"
             d="M 1781.25,330.102 1648.96,16.5117 h -51.19 l 131.74,313.5903 h 51.74" /><path
             id="path144"
             style="fill:#ffffff;fill-opacity:1;fill-rule:nonzero;stroke:none"
             d="m 1894.81,283.711 h -63.79 v 45.348 h 63.79 z m 0,-216.4805 c 0,-21.0391 -6.48,-37.461 -19.43,-49.2617 -12.97,-11.79692 -29.63,-17.699269 -50.02,-17.699269 -10.85,0 -20.74,0.46875 -29.65,1.410159 -8.92,0.96093 -15.43,1.92187 -19.52,2.91015 V 47.4609 h 4.64 c 3.31,-1.1093 7.45,-2.0507 12.42,-2.832 4.97,-0.7578 8.89,-1.1484 11.77,-1.1484 11.48,0 19.33,3.4414 23.52,10.289 4.19,6.8789 6.29,18.1602 6.29,33.8907 V 216.578 h -35.39 v 40.551 h 95.37 V 67.2305" /><path
             id="path146"
             style="fill:#ffffff;fill-opacity:1;fill-rule:nonzero;stroke:none"
             d="m 2060.4,165.18 c 0,18.121 -3.11,31.289 -9.29,39.468 -6.19,8.18 -15.96,12.274 -29.34,12.274 -5.64,0 -11.44,-0.863 -17.4,-2.563 -5.97,-1.718 -11.66,-4.179 -17.08,-7.39 v -93.731 c 3.98,-1.539 8.24,-2.539 12.77,-2.976 4.53,-0.43 9,-0.672 13.43,-0.672 15.8,0 27.56,4.629 35.31,13.851 7.73,9.239 11.6,23.137 11.6,41.739 z m 61.64,1.23 c 0,-15.39 -2.36,-29.398 -7.06,-42.031 -4.7,-12.617 -10.87,-23.027 -18.51,-31.2306 -7.95,-8.6367 -16.97,-15.1796 -27.04,-19.6093 -10.06,-4.418 -20.85,-6.6407 -32.35,-6.6407 -10.62,0 -19.65,1.1328 -27.05,3.3907 -7.42,2.289 -15,5.4726 -22.74,9.5703 V 2.10938 h -59.98 V 257.129 h 59.98 v -19.43 c 9.18,7.301 18.56,13.219 28.13,17.77 9.57,4.531 20.61,6.82 33.11,6.82 23.22,0 41.28,-8.539 54.18,-25.59 12.89,-17.07 19.33,-40.488 19.33,-70.289" /></g></g></g></g></svg>