<?xml version="1.0" encoding="UTF-8" standalone="no"?>
<svg
   xmlns:dc="http://purl.org/dc/elements/1.1/"
   xmlns:cc="http://creativecommons.org/ns#"
   xmlns:rdf="http://www.w3.org/1999/02/22-rdf-syntax-ns#"
   xmlns:svg="http://www.w3.org/2000/svg"
   xmlns="http://www.w3.org/2000/svg"
   viewBox="0 0 310.62668 377.95999"
   height="377.95999"
   width="310.62668"
   xml:space="preserve"
   id="svg2"
   version="1.1"><metadata
     id="metadata8"><rdf:RDF><cc:Work
         rdf:about=""><dc:format>image/svg+xml</dc:format><dc:type
           rdf:resource="http://purl.org/dc/dcmitype/StillImage" /></cc:Work></rdf:RDF></metadata><defs
     id="defs6"><clipPath
       id="clipPath20"
       clipPathUnits="userSpaceOnUse"><path
         id="path18"
         d="M 0,2834.66 V 0 h 2329.67 v 2834.66 z" /></clipPath></defs><g
     transform="matrix(1.3333333,0,0,-1.3333333,0,377.96)"
     id="g10"><g
       transform="scale(0.1)"
       id="g12"><g
         id="g14"><g
           clip-path="url(#clipPath20)"
           id="g16"><path
             id="path22"
             style="fill:#ffffff;fill-opacity:1;fill-rule:nonzero;stroke:none"
             d="m 1340.5,2134.12 c 12.42,27.11 24.02,48.65 40.72,74.35 7.41,11.32 15.79,19.2 23.14,30.63 -3.6,1.01 -8.74,-1.92 -10.94,-3.49 -7.48,-5.38 -10.77,-14.13 -16.71,-18.77 -14.1,-11.09 -13.63,-21.16 -21.04,-26.29 -6.5,-4.67 -8.38,-7.7 -13.02,-14.93 -3.06,-4.83 -5.4,-8.74 -8.62,-18.21 -1.12,-3.43 -3.38,-0.41 -8.92,-7.92 -7.14,-9.8 -10.43,-20.4 -13.41,-32.26 -0.96,-3.9 -7.5,-6.01 -11.83,-14.07 -5.73,-10.96 -9.48,-21.04 -11.9,-36.98 -0.64,-3.65 -6.83,-6.26 -11.11,-16.54 -3.14,-7.2 -5.29,-8.82 -8,-22.45 -1.55,-8.31 -5.36,-9.48 -9.69,-21.55 -3.27,-9.21 -3.38,-18.07 -4.51,-30.05 -0.23,-2.34 -4.28,-6.99 -7.84,-13.71 -6.06,-11.3 -5.89,-18.79 -8.37,-30.43 -0.93,-4.17 -5.66,-9.77 -10.12,-27.8 -3.98,-15.93 -0.41,-26.54 -1.71,-34.41 -3.57,-20.45 -7.03,-38.25 -5.11,-58.38 0.94,-9.84 2.37,-20.01 1.8,-29.46 -1.89,-29.71 -3.54,-54.17 -3.4,-87.83 0.1,-18.32 1.6,-43.42 4.38,-64.32 3.04,-23.04 7.38,-41.04 7.38,-41.04 h 75.14 c 0,0 -2.94,43.44 0.96,89.19 2.37,27.41 8.83,56.5 14.74,76.86 7.54,26.08 12.24,39.52 26.37,73.9 0.38,0.73 -0.09,3.97 -3.86,0.79 -7.83,-6.56 -14.28,-12.36 -20.55,-21.66 -9.39,-14.25 -15.15,-25.98 -22.82,-40.62 -8.94,-17.03 -13.87,-31.89 -23.16,-52.55 -0.49,14.95 1.9,29.14 4.89,42.88 3.1,14.06 5.62,25.13 9.96,37.24 7.84,21.37 15.45,39.16 28.03,59.04 7.35,11.5 16.58,21.79 26.06,30.32 11.22,10.3 21.7,19.4 33.5,29.52 -12.44,6.4 -28.99,-7 -32.25,-7.66 -17.48,-3.41 -24.57,-19.6 -29.98,-21.84 -7.54,-3.17 -12.03,-7.87 -17.29,-14.31 -4.18,-4.85 -5.37,-12.31 -9.61,-15 -7.1,-4.44 -12.4,-11.17 -17.3,-20.5 -2,-3.87 -7.53,-22.11 -13.61,-19.76 10.46,61.94 32.29,120.02 67.39,171.66 22.27,32.76 46.5,60.9 82.11,86.14 4.7,3.31 5.64,4.88 -0.95,4.63 -33.34,-4.04 -35.36,-19.25 -40.78,-20.69 -5.28,-1.36 -11.65,-7.56 -15.87,-11.56 -7.34,-7.32 -7.22,-13.46 -10.08,-15.39 -6.05,-4.26 -10.67,-8.67 -14.79,-16.03 -2.15,-3.85 -5.86,-12.29 -9.19,-14.22 -8.46,-4.96 -16.83,-12.2 -20.93,-20 -3.04,-5.71 -4.22,-11.93 -8.21,-17.5 -4.33,-6.01 -10.29,-10.55 -15.38,-14.91 3.9,26.51 16.39,57.85 24.89,84.87 11.56,36.13 25.51,68.95 41.4,103.07" /><path
             id="path24"
             style="fill:#ffffff;fill-opacity:1;fill-rule:nonzero;stroke:none"
             d="m 1417.14,1919.64 c 28.44,63.87 58.41,111.9 97.32,168.1 5.06,7.35 9.65,14.58 14.03,21.48 1.99,3.15 11.57,16.89 13.57,19.8 12.99,19.67 18.52,25.67 31.91,44.51 3.53,5.09 6.45,9.15 8.04,15.05 2.86,10.98 -6.64,18.36 -8.78,28.95 -2.18,10.78 -1.01,22.55 3.94,31.68 3.09,5.72 6.15,7.91 9.38,15.58 6.03,14.72 3.94,46.57 10.85,47.42 -1.77,-15.13 -2.13,-32.14 0.2,-46.66 2.78,-16.89 13,-27.14 17.31,-45.09 11.34,2.05 23.79,1.56 33.42,0.77 9.57,-0.83 21.59,1.79 31.38,5.15 13.31,4.57 24.29,12.77 37.82,16 -11.52,-11.08 -27.79,-15.2 -41.4,-23.58 -4.98,-3.17 -9.72,-7.29 -13.01,-12.48 -5.4,-8.48 -9.79,-16.64 -18.36,-20.39 -15.14,-6.59 -28.25,-3.48 -45.51,-6.66 -25.83,-26.58 -50.09,-62.67 -72.36,-100.59 -56.85,-95.99 -104.08,-195.35 -131.57,-297.29 9.54,17.71 18.59,34.86 28.83,51.76 11.42,18.72 24.2,37.09 38.13,55.43 32.72,43.1 65.02,80.68 101.21,120.23 29.23,31.94 61.28,58.74 96.93,81.17 47.27,29.54 105.42,50.29 156.65,39.6 5.82,-1.37 14.08,-2.92 17.75,-6.76 -64.17,9.02 -121.62,-13.39 -164.38,-47.75 -33.88,-27.05 -62.39,-54.52 -91.43,-90.23 -14.94,-17.25 -28.43,-36.12 -41.86,-54.46 -13.97,-19.26 -26.42,-39.55 -38.8,-59.86 -41.48,-68.58 -72.9,-141.24 -96.05,-216.49 -0.7,-2.39 -0.83,-4.79 -1.54,-7.17 1.21,1.72 2.76,3.57 3.82,5.26 31.15,50.63 68.66,99.47 116,132.23 4.1,2.84 8.5,8.26 9.58,12.56 5.11,20.07 -10.23,29.72 10.98,57.47 4.86,6.37 11.53,8.71 16.15,14.63 8.69,13.44 15.73,37.43 22.94,43.87 -3.66,-15.63 -12.63,-32.15 -14.54,-48.26 -2.02,-17.67 2.54,-32.1 3.35,-50.87 12.55,-1.68 22.12,-6.99 32.04,-10.01 15.21,-4.78 24.47,-3.6 39.52,-2.27 6.5,0.53 18.2,4.32 25.15,2.9 -14.62,-7.97 -34.33,-6.5 -49.36,-14.15 -10.37,-5.36 -13.5,-13.26 -27.84,-16.06 -12.82,-2.49 -23.73,-1.14 -32.01,3.11 -6.54,3.28 -11.58,4.66 -17.42,1.86 -15.56,-7.46 -26.2,-18.03 -38.72,-30.66 -29.01,-29.22 -52.83,-61.89 -74.9,-104.73 -5.85,-11.37 -11.19,-22.62 -16.18,-34.24 -2.41,-5.68 -8.62,-21.34 -8.62,-21.34 h -75.88 c 0,0 -0.29,21.9 0.46,29.88 1.51,15.97 3.64,27.77 6.72,43.93 4.47,23.29 8.74,44.38 14.74,66.94 5.89,21.96 12.28,42.61 19.72,63.68 15.71,43.96 32.5,86.05 50.68,127.05" /><path
             id="path26"
             style="fill:#ffffff;fill-opacity:1;fill-rule:nonzero;stroke:none"
             d="m 682.527,1327.81 c 27.75,22.66 48.285,35.86 75.93,52.37 11.246,6.62 28.266,14.26 41.355,20.18 47.969,21.66 111.45,37.71 171.282,38.8 1.07,0 1.011,-0.04 1.011,-0.04 h 445.885 c 0,0 -1.71,0.04 1.6,0.04 14.13,0 28.25,-4.93 36.83,-13.08 8.7,-8.32 12.96,-21.04 15.19,-33.69 1.93,-10.78 0.98,-20.39 -1.59,-31.94 -1.95,-9.07 -3.36,-14.44 -8.41,-22.19 -3.06,-4.72 -5.96,-7.95 -11.68,-12.5 -5.86,-4.71 -14.22,-6.37 -23.77,-6.45 -1,-0.04 -3.1,-0.09 -3.04,-0.07 0.09,0.07 -521.479,0.07 -521.479,0.07 0,0 -3.262,0.01 -4.871,0.01 -34.153,0.1 -70.125,-1.55 -103.856,-6.01 -25.848,-3.46 -51.742,-7.59 -76.715,-14.02 -31.531,-8.3 -61.859,-19.61 -92.137,-30.94 16.79,22.32 36.157,41.21 58.465,59.46" /><path
             id="path28"
             style="fill:#ffffff;fill-opacity:1;fill-rule:nonzero;stroke:none"
             d="m 837.363,1505.24 c 27.387,19.78 60.645,36.03 90.149,47.29 14.91,5.67 34.789,11.94 50.55,15.88 19.063,4.76 40.978,8.39 58.858,8.91 5.38,0.16 0.78,0.06 0.78,0.06 l 382.4,0.03 c 0,0 8.27,-0.45 11.13,-0.99 7.14,-1.55 12.94,-4.48 15.31,-6.01 5.93,-3.8 13.42,-11.81 17.31,-18.13 9.92,-16.37 11.7,-34.02 8.53,-52.4 -3.71,-20.94 -19.61,-44.88 -41.34,-45.4 -3.65,-0.09 -11.21,0 -11.21,0 h -414.21 c 0,0 -24.14,-0.53 -35.124,-0.89 -20.391,-0.81 -42.957,-3.1 -60.777,-5.74 -15.207,-2.17 -30.047,-5.05 -45.324,-9.22 -51.036,-13.79 -95.418,-39.63 -141.833,-59.81 31.262,54.64 73.508,96.51 114.801,126.42" /><path
             id="path30"
             style="fill:#ffffff;fill-opacity:1;fill-rule:nonzero;stroke:none"
             d="m 623.418,1245.23 c 66.48,39.37 146.57,54.87 219.875,57.28 1.766,0.07 5.23,0.16 5.23,0.16 l 571.677,-0.04 c 0,0 1.04,0 6.29,0.04 34.58,0.03 47.25,-34.32 47.11,-62.08 -0.06,-9.22 -1.66,-18.5 -4.12,-24.84 -3.38,-8.15 -6.94,-14.85 -12.88,-21.35 -2.21,-2.3 -9.79,-7.74 -13.24,-8.48 -7.91,-1.93 -17.65,-1.73 -17.59,-1.73 0.06,0 -425.27,-0.08 -425.27,0 0,0 -22.945,0.91 -38.895,2.39 -11.437,1.23 -20.152,2.4 -32.039,4.64 -29.293,5.81 -53.586,15.38 -78.953,23.2 -16.937,5.19 -34.707,9.08 -53.265,11.91 -34.141,5.18 -71.403,7.62 -105.899,4.98 -43.855,-3.23 -82.863,-11.84 -124.547,-25.12 7.082,11.08 36.399,27.15 56.516,39.04" /><path
             id="path32"
             style="fill:#ffffff;fill-opacity:1;fill-rule:nonzero;stroke:none"
             d="m 931.34,1066.02 c -19.547,6.88 -38.61,15.75 -55.719,27.11 -22.242,14.73 -33.203,26.46 -62.008,39.69 -24.621,11.43 -44.277,22.61 -78.679,35.09 -16.582,5.99 -43.446,14.32 -66.473,18.27 -32.879,5.61 -64.613,8.01 -64.613,8.01 0,0 6.679,4.15 10.769,5.47 33.602,10.17 63.215,15.15 97.731,17.75 30.246,2.23 58.043,-0.72 88.355,-5.48 12.41,-1.96 28.582,-5.79 42.649,-9.79 45.668,-12.95 97.539,-33.55 143.543,-33.62 2.554,0 2.293,0.04 2.293,0.04 h 424.982 c 0,0 -3.18,0 1.38,0 12.86,0.03 36.85,-4.1 46.52,-21.24 11.26,-19.67 14.67,-43.1 5.34,-66.58 -2.85,-7.03 -7.6,-17.21 -14.41,-23.3 -5.95,-5.33 -15.65,-8.86 -21.3,-8.86 -1.66,-0.07 -4.31,0 -4.31,0 h -371.75 c 0,0 1.4,0 -2.02,0 -38.01,0 -85.862,4.64 -122.28,17.44" /><path
             id="path34"
             style="fill:#ffffff;fill-opacity:1;fill-rule:nonzero;stroke:none"
             d="m 1100.67,934.191 c -10.51,10.789 -24.97,27.329 -38.14,43.008 -25.24,30.111 -36.53,57.111 -36.53,57.111 h 247.97 c 0,0 0.59,-28.57 -5.17,-61.701 -5.3,-30.679 -16.7,-63.078 -28.73,-86.558 -0.51,-24.121 9.72,-46.52 11.43,-70.262 -20.38,-12.527 -42.35,-24.937 -60.53,-42.5 -1.26,-1.059 -3.15,-1.059 -3.82,1.84 -9.78,36.723 -15.02,69.351 -23.01,105.582 -22.59,17.488 -43.8,33.059 -63.47,53.48" /><path
             id="path36"
             style="fill:#ffffff;fill-opacity:1;fill-rule:nonzero;stroke:none"
             d="m 1356.2,954.539 c -7.01,12.922 -12.31,29.953 -20.33,40.18 -1.73,-9.028 0.37,-14.637 -0.84,-23.34 -1.12,-7.199 -7.07,-4.199 -8.24,-0.848 -3.52,9.84 -7.25,22.051 -10.39,32.089 -5.24,16.79 -6.97,31.64 -6.97,31.64 l 41.21,0.05 c 0,0 1.64,-0.34 2.28,-4.34 2.07,-10.44 1.55,-20.54 4.41,-32.54 3.67,-15.52 8.3,-29.739 14.01,-44.219 4.94,-12.723 11.39,-25.551 16.56,-38.191 0.73,-1.59 1.03,-4.86 -0.19,-6.438 -1.59,-1.934 -4.13,-1.711 -5.69,0 -11.8,13.34 -16.59,28.59 -25.82,45.957" /><path
             id="path38"
             style="fill:#ffffff;fill-opacity:1;fill-rule:nonzero;stroke:none"
             d="m 1419.99,924.969 c -6.99,15.031 -16.85,31.801 -15.98,48.711 4.5,-5.969 6.38,-10.211 12.72,-13.621 2.88,-0.809 8.89,-0.039 7.32,5.05 -2.79,9.289 -7.05,17.192 -11.03,29.993 -5.92,19.028 -11.67,39.188 -11.67,39.188 l -42.09,0.02 c 0,0 2.3,-17.02 11.89,-43.251 8.44,-23.227 21.4,-49.77 35.67,-74.61 11.5,-20.488 22.04,-38.437 35.24,-53.359 4.44,-5.11 15.55,-0.668 10.77,6.051 -12.5,17.621 -24.15,37.16 -32.84,55.828" /><path
             id="path40"
             style="fill:#ffffff;fill-opacity:1;fill-rule:nonzero;stroke:none"
             d="m 1693.35,2347.88 c -9.09,-3.97 -17.25,-9.15 -21.72,-17.93 -3.4,-6.31 -5.59,-15.89 0.8,-21.3 11.07,-9.52 24.37,0.2 29.7,9.9 6.79,12.33 5.01,35.98 5.01,35.98 0,0 -7.89,-4.14 -13.79,-6.65" /><path
             id="path42"
             style="fill:#ffffff;fill-opacity:1;fill-rule:nonzero;stroke:none"
             d="m 1703.03,2288.92 c 3.99,7.57 12.74,15.67 22.35,21.51 10.83,6.65 22,13.07 29.81,17.75 7.81,4.67 9.35,7.97 9.35,7.97 0,0 -6.48,-2.21 -9.94,-4.3 -19.29,-11.46 -40.4,-24.54 -48.85,-28.33 -10.79,-4.67 -25.47,-5.59 -38.74,-7.31 -2.09,16.68 -6.5,23.66 -6.33,38.45 0.1,7.15 1.73,16.32 3.02,22.8 4.12,21.4 4.95,32.24 4.95,32.24 0,0 -3.36,-3.09 -4.52,-12.5 -1.3,-8.5 -2.26,-11.67 -4.21,-21.7 -2.2,-11.64 -4.59,-21.48 -11.54,-28.75 -9.98,-10.35 -19.32,-28.82 -11.57,-42.96 4.55,-8.27 11.99,-7.09 14.43,-9.19 2.31,-2.1 3.79,-7.23 10.89,-9.6 15.42,-5.11 32.88,8.68 40.9,23.92" /><path
             id="path44"
             style="fill:#ffffff;fill-opacity:1;fill-rule:nonzero;stroke:none"
             d="m 1683.13,2244.87 c 5.18,8.46 10.49,14.45 18.79,19.48 13.65,8.32 23.75,14 32.14,18.22 3.52,1.82 6.53,4 7.46,7.83 -3.62,-1.42 -17.79,-8 -31.77,-16.33 -9.99,-5.97 -27.27,-13.49 -38.88,-14.02 -4.62,-0.17 -7.96,0.94 -11.73,1.04 -7.78,0.34 -17.66,-1.54 -17.66,-1.54 0,0 -2.56,11.01 -5.81,18.91 -1.71,4.04 -4.42,8.23 -5.82,15.81 -0.97,5.11 -1.22,12.69 -0.88,17.28 1.11,13.72 4.84,27.05 4.17,40.95 -8.53,-17.92 -5.09,-39.98 -15.17,-53.89 -4.33,-5.84 -7.67,-10.41 -10.98,-17.75 -5.6,-12.08 -4.9,-24.56 2.55,-36.18 4.39,-6.65 13.86,-6.37 15.55,-7.68 2.57,-1.87 4.69,-8.79 13.98,-10.86 16.08,-3.63 34.92,3.84 44.06,18.73" /><path
             id="path46"
             style="fill:#ffffff;fill-opacity:1;fill-rule:nonzero;stroke:none"
             d="m 1687.53,1894.29 c 3.75,7.55 6.11,17.42 10.87,24.39 -10.74,-1.59 -12.52,-2.84 -27.96,-4.52 -3.43,-0.34 -10.44,-3.85 -12.7,-6.18 -6.23,-6.21 -11.54,-11.93 -9.22,-22.38 0.93,-4.04 4.55,-7 6.53,-7.61 12.9,-4.22 25.98,3.48 32.48,16.3" /><path
             id="path48"
             style="fill:#ffffff;fill-opacity:1;fill-rule:nonzero;stroke:none"
             d="m 1700.73,1873.77 c 14.68,3.42 31.61,10.65 38.43,8.35 -13.78,-7.32 -31.19,-9.96 -46.49,-14.32 -11.67,-3.37 -19.92,-12.17 -30.38,-20.14 -9.55,-7.27 -22.15,-10.22 -33.54,-4.87 -3.83,1.77 -7.58,7.96 -8.27,11.27 -0.52,2.61 -6.05,5.22 -8.87,7.54 -2.86,2.38 -4.17,8.27 -4.23,10.56 -0.42,20.29 14.95,28.51 29.94,40.49 11.17,8.97 25.76,47.12 34.64,55.03 -1.52,-12.29 -17.58,-35.48 -24.53,-53.54 -5.57,-14.42 -3.73,-25.89 -7.23,-41.04 10.56,-0.71 22.53,-2.91 33.25,-3.12 8.37,-0.1 18.61,1.75 27.28,3.79" /><path
             id="path50"
             style="fill:#ffffff;fill-opacity:1;fill-rule:nonzero;stroke:none"
             d="m 1685.23,1842.43 c -8.32,-1.53 -18.37,-4.16 -25.25,-5.62 -24.02,-5.06 -35.37,6.68 -54.56,6.48 1.72,21.85 -5.9,31.72 0.31,45.88 5.61,12.54 10.75,25.92 15.55,36.59 3.9,8.55 5.05,15.79 5.05,15.79 0,0 -5.7,-8.7 -22.2,-40.88 -5.77,-11.22 -16.1,-13.63 -25.19,-24.19 -10.54,-12.13 -16.54,-37.79 2.9,-48.54 3.87,-2.1 3.25,-8.79 6.08,-11.45 12.95,-12.21 39.18,-11.01 55.6,3.9 13.01,11.88 28.95,13.81 42.36,17.3 8.02,2.03 14.94,5.39 14.94,5.39 0,0 -3.77,1.53 -15.59,-0.65" /><path
             id="path52"
             style="fill:#ffffff;fill-opacity:1;fill-rule:nonzero;stroke:none"
             d="m 1205.18,1588.17 c -0.97,0 -1.97,0 0,0 z m -111.84,315.52 c -8.04,-10.53 -11.7,-22.67 -20.51,-31.89 -4.61,-4.84 -11.64,-2.56 -15.28,2.98 -4.03,6.29 -10.61,15.18 -5.74,21.4 8.02,10.26 24.74,16.78 39.01,14.98 0.85,-0.14 5.46,-3.54 2.52,-7.47 z m -38.37,-60.35 c -4.48,-11.99 -17.8,-13.25 -29.14,-15.62 -2.1,-0.46 -8.66,0 -11.59,2.88 -4.9,4.75 -9.1,11.33 -8.29,19.54 0.46,5.03 4.7,9.98 9.94,11.98 9.45,3.71 20.67,9.61 30.01,4.35 8,-4.47 12.25,-14.72 9.07,-23.13 z m -24.57,-63.25 c -3.22,-4.67 -11.65,10.98 -12.73,18.12 -3.1,20.79 15.09,26.1 30.25,25.41 0.48,-12.35 -9.09,-31.52 -17.52,-43.53 z m -16.35,-56.04 c -2.97,-8.35 -4.41,-15.99 -7.74,-23.66 -3.24,-7.4 -16.99,-10.07 -24.58,-7.69 -10.937,3.38 -20.269,27.83 -7.906,37.19 9.504,7.11 19.317,8.23 31.396,9.71 2.15,0.28 10.27,-0.2 10.56,-0.99 2.07,-5.05 0.77,-7.58 -1.73,-14.56 z m -18.366,-64.57 c -2.172,-6.41 -3.149,-12.98 -6,-19.18 -1.426,-3.12 -3.305,0.98 -3.372,1.17 -4.292,10.65 -6.96,19.69 -3.339,29.05 2.05,5.16 9.175,9.94 15.922,10.36 -0.422,-6.68 -0.891,-14.87 -3.211,-21.4 z m -21.629,-31.47 c -4.918,2.2 -4.856,8.52 -6.903,12.46 -1.941,3.84 -6.156,9.14 -4.41,14.16 9.477,-5.33 13.879,-14.81 11.313,-26.62 z m -16.414,39.29 c -11.325,9.31 -12.305,24.23 -19.821,35.61 8.328,5.34 22.36,4.28 26.668,-6.29 3.45,-8.46 6.008,-20.94 -2.613,-27.4 -0.934,-0.66 -3.113,-2.83 -4.234,-1.92 z m -42.211,76.88 c -1.731,2.43 -5.102,9.41 -2.492,10.31 20.246,6.97 35.457,7.22 39.792,-14.51 3.11,-15.5 -7.488,-28.77 -22.281,-23.36 -4.265,1.56 -8.5,18.06 -15.019,27.56 z m -29.532,48.98 c -1.367,1.8 -2.558,7.19 -0.765,8.52 10.508,8.52 26.012,9.15 38.019,8 15.793,-1.45 19.055,-16.13 16.391,-28.33 -3.481,-16.04 -27.809,-18.03 -34.688,-15.39 -6.781,2.65 -11.46,17.95 -18.957,27.2 z m 3.442,57.03 c 13.664,8.86 39.816,15.4 44.176,-8.59 1.328,-7.24 -0.489,-16.79 -10.254,-19.98 -10.059,-3.18 -21.86,-6.64 -31.039,-2.96 -11.266,4.65 -13.453,24.68 -2.883,31.53 z m -14.168,40.33 c 1.082,4.62 6.156,6.78 10.457,7.93 11.019,2.68 23.433,6.84 33.594,0.33 3.957,-2.49 4.222,-6.02 4.738,-10.98 0.902,-8.1 -0.223,-14.66 -5.539,-17.79 -10.777,-6.32 -21.774,-6.88 -34.25,-4.42 -10.168,2 -11.02,15.48 -9,24.93 z m -11.32,-62.19 c -9.45,6.98 -13.661,16.93 -20.625,26.73 -1.657,2.41 0,3.39 1.316,3.73 16.785,4.76 29.273,-3.62 26.625,-21.97 -0.477,-3.54 -2.738,-11.83 -7.316,-8.49 z m -46.387,56.61 c -6.309,5.44 -1.922,14.93 3.609,17.67 9.571,4.78 24.672,5.47 34.696,2.1 6.421,-2.14 9.64,-11.37 8.503,-21.41 -0.484,-4.16 -1.707,-8.69 -3.781,-10.04 -7.57,-5.22 -19.344,-5.4 -28.601,-3.46 -6.586,1.39 -8.883,10.32 -14.426,15.14 z m -7.27,57.23 c 6.121,13.25 28.313,13.4 40.418,7.45 9.848,-4.8 11.11,-23.17 0.356,-30.41 -8.61,-5.74 -22.102,-3.59 -31.227,-1.95 -12.961,2.39 -13.984,15.11 -9.547,24.91 z m 0.493,49.63 c 9.238,8.78 21.226,4.77 32.355,3.18 2.129,-0.27 4.676,-1.77 6.137,-3.23 7.617,-7.69 8.207,-20.27 -0.231,-26.57 -9.754,-7.25 -21.929,-2.52 -33.644,-1.95 -3.2,0.18 -6.672,3.86 -7.367,6.25 -2.145,7.41 -3.391,16.5 2.75,22.32 z m 5.996,41.5 c 9.796,4.07 26.609,5.95 33.531,-5.08 4.277,-6.69 3.066,-19.19 -3.77,-21.02 -6.711,-1.7 -29.492,-5.5 -34.929,7.1 -2.727,6.21 -1.551,16.16 5.168,19 z m 30.117,35.24 c 2.847,-1.28 4.64,-3.51 5.285,-6.99 1.406,-7.58 -0.578,-15.79 -7.84,-17.07 -10.867,-1.98 -27.027,-2.66 -26.98,12.77 0.039,17.16 16.914,16.99 29.535,11.29 z m -21.922,31.9 c 5.801,2.24 15.359,1.75 20.582,-0.99 2.605,-1.32 6.121,-5.64 4.637,-10.22 -1.86,-5.92 -7.36,-8.04 -13.633,-8.11 -6,-0.04 -12.895,0.43 -15.332,5.35 -2.321,4.63 -1.336,12 3.746,13.97 z m 6.769,25.76 c 5.309,1.94 13.141,1.82 17,-2.39 5.313,-5.81 1.098,-15.01 -8.878,-14.56 -3.508,0.2 -7.708,1.38 -9.813,2.62 -5.199,2.92 -3.453,12.46 1.691,14.33 z m 23.832,16.59 c 0.653,2.26 4.188,4.85 5.965,5.48 3.965,1.42 8.649,1.73 12.461,0.22 7.571,-3.16 6.532,-12.56 -1.547,-15.86 -3.668,-1.47 -9.222,-2.43 -11.984,-1.47 -5.086,1.76 -6.508,6.19 -4.895,11.63 z m 23.708,-36.75 c -8.29,-2.42 -19.872,-2.9 -22.336,5.58 -4.231,14.45 14.023,16.59 23.441,13.57 6.492,-2.05 8.812,-16.29 -1.105,-19.15 z m 5.476,47.6 c 2.606,8.98 12.754,13.83 21.938,11.08 7.878,-2.33 9.71,-13.08 4.382,-18.32 -2.414,-2.3 -6.398,-4.69 -10.711,-5.65 -9.367,-2.07 -18.593,3.05 -15.609,12.89 z m 41.231,-32.78 c -1.485,-5.83 -5.778,-9.84 -12.633,-11.34 -6.746,-1.5 -16.2,-1.92 -19.934,2.3 -3.633,3.97 -5.262,9.54 -2.269,13.86 6.003,8.57 17.05,11.57 26.871,9.36 5.578,-1.32 9.726,-7.02 7.965,-14.18 z m -3.637,34.29 c 3.637,8.13 12.918,12.19 21.887,9.51 1.75,-0.57 5.457,-3.45 5.96,-6.3 1.051,-5.67 -0.906,-10.79 -5.632,-13.74 -6.016,-3.85 -10.989,-6.04 -17.903,-3.19 -5.226,2.21 -6.515,8.98 -4.312,13.72 z m 38.449,-22.74 c 4.055,-6.9 -2.168,-13.87 -5.293,-15.72 -7.019,-4.12 -16.867,-6.63 -21.039,0.28 -4.172,6.81 -0.742,14.9 6.484,17.88 6.891,2.87 14.047,7.2 19.848,-2.44 z m 11.543,-26.37 c 4.602,-3.79 8.594,-11.7 3.137,-17.98 -5.16,-5.9 -11.543,-7.68 -19.641,-8.96 -5.449,-0.92 -12.41,3.1 -13.301,7.93 -0.773,4.11 -1.554,11.72 2.532,15.19 8.054,6.84 18.808,10.78 27.273,3.82 z m 9.684,44.97 c 4.32,-1.29 7.097,-5.83 4.902,-10.22 -1.328,-2.73 -5.199,-5.67 -7.664,-7.17 -6.723,-4.15 -12.527,-2.46 -14.684,2.5 -3.902,9.16 9.211,17.32 17.446,14.89 z m 16.511,-22.8 c 4.775,-0.44 6.925,-3.7 7.865,-7.37 1.25,-4.87 -0.39,-9.36 -4.48,-12.14 -4.892,-3.22 -11.014,-5.13 -15.889,-5.27 -6.566,-0.09 -12.703,9.59 -9.089,15.89 3.746,6.75 13.293,9.63 21.593,8.89 z m 27.295,-34.87 c 2.78,-8.28 -3.28,-12.15 -9.67,-15.55 -6.49,-3.47 -15.22,-6.72 -19.758,-2.4 -5.738,5.43 -8.347,14.59 -1.874,20.59 8.902,8.36 25.402,14.65 31.302,-2.64 z m 11.76,-20.8 c 10.45,-1.34 12.52,-16.2 10.42,-21.57 -2.39,-4.59 -7.66,-8.24 -10.42,-9.67 -7.68,-3.95 -16.63,-5.44 -23.72,-1.76 -6.41,3.28 -9.21,13.04 -5.67,20.71 4.68,10.32 19.61,13.6 29.39,12.29 z m 21.5,-46.02 c 3.59,-4.99 2.82,-13.91 0.68,-16.66 -6.58,-9.04 -24.95,-14.16 -32.5,-10.5 -5.77,2.84 -11.48,15.52 -4.72,23.16 6.98,7.88 19.21,12.55 30.3,10.28 2.48,-0.53 4.08,-3.28 6.24,-6.28 z m 4.64,-28.36 c 5.05,-0.54 9.53,-6.11 11.95,-12.13 3.18,-7.8 -0.04,-16.91 -2.5,-18.58 -6.04,-4.07 -25.12,-15.57 -37.09,-8.71 -6.62,3.81 -8.46,12.47 -8.82,17.56 -1.35,16.51 23.69,23.29 36.46,21.86 z m -70.394,-118.11 c -2.547,6.54 -4.934,16.24 0.234,20.2 10.38,8.21 33.88,15.4 42.8,2.97 5.82,-8.03 4.13,-21.67 -6.05,-26.92 -10.52,-5.35 -31.066,-11.49 -36.984,3.75 z m -50.398,-0.74 c 10.41,5.31 25.453,11.7 36.683,4.51 5.164,-3.3 10.481,-16.97 6.817,-23.07 -7.711,-12.85 -27.95,-16.14 -40.86,-12.82 -10.937,2.86 -14.258,25.51 -2.64,31.38 z m -9.364,44.53 c 12.602,8.85 37.399,14.53 43.426,-4.78 1.543,-5.01 2.442,-10.59 -0.168,-14.62 -6.957,-11.21 -24.629,-14.15 -36.449,-12.52 -12.781,1.88 -18.863,23.44 -6.809,31.92 z m -10.601,45.06 c 12.097,6.85 37.875,15.98 43.918,-3.7 2.429,-8 2.219,-17.9 -4.715,-21.49 -9.844,-5.13 -25.445,-10.54 -36.781,-3.49 -9.461,5.99 -10.758,23.9 -2.422,28.68 z m 67.691,81.04 c -5.101,-4.51 -10.215,-5.48 -16.961,-7.79 -9.418,-3.22 -19.34,4.05 -20.414,13.11 -1.836,15.42 14.739,17.74 25.727,19.67 7.969,1.45 12.906,-5.75 14.379,-10.58 1.5,-4.61 1.328,-10.85 -2.731,-14.41 z m 20.266,-36.4 c -7.14,-10.73 -36.152,-17.42 -42.539,-6.43 -4.633,8.09 -7.543,19.41 1.234,24.81 9.16,5.69 20.121,9.03 30.845,7.14 10.04,-1.79 15.21,-18.38 10.46,-25.52 z m 15.48,-66.34 c 4.1,-6.54 6.98,-15.35 0.89,-23.52 -5.58,-7.44 -25.38,-10.91 -35.534,-8.46 -5.543,1.41 -8.207,8.19 -9.078,12.73 -1.149,6.19 -1.703,12.36 3.75,17.43 7.851,7.15 18.362,7.02 28.402,7.02 4.17,0 10.03,-2.66 11.57,-5.2 z m -5.76,22.28 c -6.15,-11.33 -27.08,-12.79 -36.521,-11.57 -6.598,0.89 -11.285,11.59 -11.051,20.5 0.059,4.64 1.492,7.67 4.614,9.38 10.48,5.59 21.113,9.35 32.358,7.51 10.99,-1.76 15.26,-17.2 10.6,-25.82 z m -110.056,24.42 c -7.137,21.89 20.187,28.78 36.16,25.4 11.117,-2.32 14.797,-23.62 4.469,-30.37 -12.774,-8.31 -35.488,-11.02 -40.629,4.97 z m -41.25,-53.73 c 8.203,8.43 22.969,8.95 34.531,7.41 7.113,-0.98 10.156,-8.1 11.137,-15.88 2.723,-21.39 -25.934,-24.97 -39.594,-19.99 -9.027,3.26 -13.68,20.58 -6.074,28.46 z m -5.785,41.43 c 8.586,10.1 22.883,12.44 34.777,9.21 7.199,-1.97 10.555,-10.46 10.406,-19.92 -0.117,-5.38 -3.84,-9.28 -7.16,-10.66 -8.41,-3.42 -18.152,-5.95 -27.367,-4.84 -11.32,1.4 -18.195,17.3 -10.656,26.21 z m 1.371,45.08 c 10.551,4.31 30.16,8.16 33.476,-6.88 4.454,-20.03 -19.183,-23.31 -31.789,-19.77 -9.675,2.62 -11.527,22.68 -1.687,26.65 z m 75.719,33.11 c 7.863,-4.46 9.546,-17.08 4.746,-24.39 -6.36,-9.69 -28.153,-15.26 -39.86,-6.82 -6.644,4.85 -10.277,24.75 3.403,29.53 10.972,3.78 21.425,7.51 31.711,1.68 z m -11.106,14.36 c -8.969,-5.51 -21.695,-7.68 -30.121,-3.01 -7.34,4.02 -7.09,14.73 -3.414,20.51 5.969,9.64 20.867,10.67 31.148,7.67 8.852,-2.55 12.18,-19.05 2.387,-25.17 z m -72.34,15.73 c 0.914,2.81 2.203,3.64 4.004,4.52 7.488,3.56 15.738,4.53 22.942,-0.06 5.14,-3.37 4.679,-11.12 0.839,-15.11 -5.597,-5.91 -17.05,-6.18 -24.371,-2.34 -4.683,2.47 -4.937,8.3 -3.414,12.99 z m 2.403,-31.4 c 3.336,9.52 15.148,9 24.144,7.8 10.988,-1.44 13.227,-15.57 9.309,-21.5 -5.407,-8.15 -17.797,-6.6 -27.614,-5.38 -7.968,1.02 -8.445,11.62 -5.839,19.08 z m 155.534,-285.19 c 2.68,-10.71 0,-20.86 -9.56,-24.26 -12.244,-4.33 -28.81,-10.65 -38.599,-4.09 -11.203,7.55 -16.594,28.81 -3.688,37.16 15.192,9.97 45.437,16.46 51.847,-8.81 z m -16.515,33.34 c -8.246,-9.39 -21.648,-9.07 -34.836,-12.93 -5.125,-1.48 -11.14,3 -13.832,7.68 -4.867,8.72 -9.75,20.37 -0.359,28.78 7.683,7.02 18.25,6.44 27.703,9.28 4.269,1.25 9.492,2.73 14.621,-0.75 10.688,-7.29 14.878,-22.91 6.703,-32.06 z m 87.315,140.14 c 2.31,-6.8 5.41,-11.84 2.81,-18.63 -3.14,-8.32 -11.24,-9.44 -18.8,-12.21 -7.08,-2.54 -18.9,-5.74 -24.81,0.41 -6.81,7.08 -9.53,21.41 -1.4,27.58 10.58,7.85 36.59,18.69 42.2,2.85 z m 143.32,61.18 c 6.18,25.38 13.92,51.15 15.85,77.92 2.86,40.13 -5.8,81.77 -31.46,112.11 2.46,-13.1 5.88,-24.12 7.54,-37.91 2.19,-16.59 -0.23,-35.02 -4.46,-51.76 -3.21,-12.6 -8.92,-24.93 -14.59,-36.67 -6.69,-13.88 -16.63,-29.01 -26.53,-41.45 -27.86,-34.54 -71.14,-102.08 -71.14,-102.08 0,0 -3.68,0.3 -5.81,0.3 -0.54,8.38 19.45,37.2 29.49,53.32 22.13,35.39 38.84,54.42 58.1,85.02 12,19.36 21.14,42.87 24.09,64.2 6.09,43.44 -17.33,95.45 -51.06,112.8 7.71,-32.48 6.89,-78.17 -10.42,-97.43 -32.63,-36.39 -52.07,-63.67 -75.41,-110.39 -0.67,-1.22 -6.1,6.3 -10.62,9.24 -5.07,3.36 -2.23,13.34 -4.06,20.1 -1.64,5.75 -4.33,10.15 -5.11,11.15 -6.9,8.45 -13.6,9.03 -15.05,11.56 -1.65,2.86 -0.87,9.97 -6.89,18.13 -3,4.06 -10.68,7.08 -13.78,10.93 -3.38,4.23 -4.96,17.06 -14.27,22.34 -4.416,2.47 -6.455,10.2 -10.666,13.99 -13.094,11.55 -26.172,9.35 -28.668,10.04 -3.371,0.92 -9.973,9.28 -21.672,11.28 -11.414,1.95 -17.711,-5.65 -23.633,-2.92 -14.863,6.94 -29.175,7.5 -44.976,-10.13 -4.77,-5.26 -12.988,-0.36 -23.242,-8.2 -8.977,-6.85 -9.118,-13.19 -13.743,-14.08 -8.566,-1.59 -15.039,-8.47 -18.312,-16.03 -1.75,-3.88 -3.066,-11.7 -4.066,-16.83 -1.372,-7.15 -5,-13.69 -5.059,-18.95 -0.074,-7.28 2.242,-11.21 1.555,-14.48 -1.047,-4.68 -4.875,-9.01 -5.34,-13.41 -0.309,-2.5 -0.555,-9.18 1.285,-12.95 2.309,-4.59 -1.594,-8.59 -3.668,-13.54 -1.934,-4.59 -3.961,-12.42 -3.301,-17.94 0.781,-7.61 5.129,-10.38 1.75,-16.37 -5.515,-9.73 -12.492,-24.89 -0.238,-44.22 2.223,-3.59 -5.164,-10.47 -5.59,-20.54 -0.469,-11.02 6.192,-19.17 8.027,-24.05 0.301,-1.71 -2.925,-1.62 -3.085,-3.51 -29.168,30.89 -55.02,59.41 -88.942,86.24 -20.68,16.33 -41.152,30.13 -64.098,42.42 -61.312,32.85 -132.46,54.83 -196.957,46.8 24.247,-19.59 54.911,-33.5 79.856,-55.74 23.676,-21.05 45.062,-39.05 66.648,-61.37 33.785,-35.11 61.231,-70.71 89.867,-112.04 8.473,-12.23 14.04,-20.42 22.008,-33.17 7.961,-12.75 16.813,-26.32 24.078,-38.92 36.618,-63.62 66.59,-122.45 97.008,-187.62 8.406,-18.03 15.457,-36.85 23.719,-54.75 2.242,-4.86 5.379,-1.27 7.633,0 10.953,6.33 22.633,11.66 34.066,17.02 9.063,4.19 17.344,7.03 25.492,10.17 20.536,7.83 40.032,12.11 61.543,16.57 35.891,7.5 100.431,5.97 100.431,5.97 l 122.39,0.04 c 0.69,0 1.53,0 3.28,0 -1.24,35.06 -9.62,69.15 -11.63,104.32 -1.5,28.47 -0.55,56.06 0.47,84.58 2.62,77.33 14.04,160.37 31.37,230.89" /><path
             id="path54"
             style="fill:#ffffff;fill-opacity:1;fill-rule:nonzero;stroke:none"
             d="m 395.102,2298.13 c -23.875,-23.81 -30.965,-32.58 -44.911,-58.84 -8.214,-15.49 -18.605,-35.37 -21.57,-60.94 49.078,18.66 89.051,56.76 125.27,98.85 26.707,31.19 47.48,72.6 73.863,103.42 -46.461,-15.58 -95.527,-45.5 -132.652,-82.49" /><path
             id="path56"
             style="fill:#ffffff;fill-opacity:1;fill-rule:nonzero;stroke:none"
             d="m 254.711,2231.23 c 18.496,31.24 44.977,65 72.418,88.06 -12.715,-28.57 -28.367,-56.87 -33.754,-90.65 -10.684,-67.28 -20.777,-114.38 -31.895,-175.79 30.485,21.73 62.665,55.92 95,79.79 24.985,18.39 50.079,30.65 75.747,48.31 15.324,10.57 25.257,24.06 37.964,36.75 -15.14,-63.8 -71.175,-128.24 -111.281,-158.31 -50.375,-37.76 -68.437,-43.76 -149.422,-126.12 -10.273,101.66 -8.429,207.32 45.223,297.96" /><path
             id="path58"
             style="fill:#ffffff;fill-opacity:1;fill-rule:nonzero;stroke:none"
             d="m 89.4883,1893.61 c 3.7851,52.79 10.1211,94.98 22.9337,146.51 9.019,35.93 28.336,89.49 56.23,111.45 -3.418,-13.06 -5.172,-32.61 -6.507,-45.8 -5.461,-54.38 4.933,-117.59 6.199,-171.91 0.609,-26.73 0.402,-47.31 -3.649,-72.39 -4.109,-26.33 -0.656,-58.61 -0.656,-58.61 0,0 14.445,16.49 27.301,37.01 28.156,44.67 37.152,57.92 59.805,82.16 28.152,30.01 59.593,57.85 95.132,82.52 -4.3,-16.68 -22.429,-49.18 -29.906,-62.24 -10.031,-17.42 -14.555,-33.31 -38.195,-72.84 -33.364,-55.5 -48.18,-63.04 -85.18,-122.46 -7.976,-12.89 -40.805,-62.06 -48.808,-77.03 -17.293,35.83 -23.868,67.16 -45.0903,125.55 -13.336,36.67 -11.3438,73.35 -9.6094,98.08" /><path
             id="path60"
             style="fill:#ffffff;fill-opacity:1;fill-rule:nonzero;stroke:none"
             d="m 38.0781,1618.91 c -20.082,52.11 -29.29294,100.42 -36.10544,155.24 -4.125,33.56 -2.19141,78.24 9.74614,110.49 3.121,-7.85 9.5703,-27.85 10.3945,-30.84 8.957,-29.95 12.6445,-44.36 25.1211,-73.25 9.4922,-22.14 21.1484,-39.8 33.6406,-61.71 11.3125,-20 20.84,-46.31 29.051,-66.45 26.367,-64.6 28.32,-125.03 38.429,-131.6 7.27,15.49 9.5,30.39 10.336,37.7 7.836,71.48 17.227,136.42 107.243,220.61 8.265,-25.06 4.05,-71.29 -0.899,-95.99 -10.754,-54.13 -19.453,-80.17 -43.301,-132.59 -12.609,-27.62 -29.398,-68.28 -34.046,-81.75 -12.036,-35.09 -16.204,-53.38 -23.774,-74.21 -42.473,70.84 -94.7538,143.92 -125.8359,224.35" /><path
             id="path62"
             style="fill:#ffffff;fill-opacity:1;fill-rule:nonzero;stroke:none"
             d="m 108.082,1293.36 c -30.2461,42.09 -41.2382,63.16 -60.9062,107.98 -16.5313,37.66 -21.3008,51.57 -30.9961,93.66 -5.2891,22.97 -8.27345,43.79 -4.1328,57.37 23.6484,-42.89 39.8047,-90.86 70.8047,-126.47 24.5744,-28.11 48.2854,-52.18 67.8324,-75.95 29.964,-36.64 53.554,-71.22 82.339,-109.31 2.422,19.02 3.364,38.39 -0.933,69.67 -5.856,42.87 -2.211,78.01 5.254,119.45 9.519,52.68 16.465,78.77 34.707,132.03 22.363,-43.82 22.285,-94.51 27.867,-141.03 10.82,-90.17 -17.356,-197.73 -22.941,-242.56 -1.485,-11.81 0.55,-40.98 1.199,-52.38 -42.238,33.24 -79.785,66.86 -116.145,103.32 -16.586,16.55 -39.371,43.95 -53.949,64.22" /><path
             id="path64"
             style="fill:#ffffff;fill-opacity:1;fill-rule:nonzero;stroke:none"
             d="m 268.082,962.539 c -19.199,13.813 -70.848,53.231 -95.277,84.301 -35.61,45.31 -43.446,64.57 -66.926,116.67 -2.875,6.28 -16.1563,35.71 -17.2267,55.76 76.9097,-92.89 145.7817,-106.82 219.1637,-183.8 26.985,-28.26 54.539,-54.939 69.102,-68.189 11.184,-10.332 25.031,-13.422 25.031,-13.422 0,0 -1.453,19.762 -8.703,33.532 -48.949,93.619 -58.195,191.439 -50.785,296.499 22.367,-27.62 29.453,-46.12 43.633,-72.95 15.394,-29.17 23.258,-47.13 30.476,-65.03 41.914,-104.31 52.801,-224.719 78.684,-285.449 -79.867,26.969 -142.809,41.391 -227.172,102.078" /><path
             id="path66"
             style="fill:#ffffff;fill-opacity:1;fill-rule:nonzero;stroke:none"
             d="m 595.785,716.449 c -21.601,-1.508 -63.988,-1.277 -86.562,2.321 -114.375,18.332 -220.727,101.25 -274.239,192.281 48.536,-29.563 83.551,-49.281 126.246,-64.031 37.989,-13.188 73.969,-17.079 137.387,-35.04 38.297,-10.8 76.145,-26.148 89.442,-31.121 42.421,-15.777 60.304,-11.89 60.304,-11.89 0,0 0,6.371 -15.879,23.691 -31.539,34.43 -43.113,42.731 -69.086,69.211 -8.554,8.75 -28.101,38.43 -38,58.168 -28.043,55.961 -31.199,100.771 -56.804,162.061 93.515,-54.92 139.125,-130.651 188.57,-226.221 15.199,-29.277 35.762,-63.129 54.582,-81.707 12.645,-12.492 30.426,-31.402 30.426,-31.402 0,0 -13.067,-3.059 -53.676,-9.028 -18.199,-2.711 -57.058,-14.871 -92.711,-17.293" /><path
             id="path68"
             style="fill:#ffffff;fill-opacity:1;fill-rule:nonzero;stroke:none"
             d="m 1049.27,709.129 c 49.4,-8.039 93.28,-20.008 138.2,-35.438 12.03,-4.121 30.41,-13.222 43.13,-19.711 31.9,-16.25 50.23,-26.679 77.6,-45.57 44.05,-30.351 91.34,-62.98 134.07,-112.629 0.93,-0.98 7.82,-8.41 3.18,-11.941 -8.29,-6.578 -28.89,-15.981 -35.76,-9.828 -39.2,34.687 -37.11,45.886 -84.53,88.789 -12.1,10.918 -30.46,26.179 -52.44,41.25 -21.39,14.629 -47.18,30.57 -71.23,42.398 -21.78,10.723 -55.34,14.02 -74.25,14.02 l 0.31,-0.239 c -8.59,0.418 -57.87,0.661 -69.28,-0.121 -96.809,-6.648 -92.055,-15.211 -147.848,-30.39 -45.969,-12.52 -95.172,-21.399 -144.055,-27.879 -50.113,-6.801 -94.945,-7.641 -141.89,-2.84 -63.625,6.48 -133.27,24.191 -185.215,57.762 47.5,-0.821 96.297,-9.91 143.566,-6.371 19.848,1.589 52.11,4.578 73.973,11.328 43.429,13.25 68.34,18.531 114.308,31.332 39.516,10.969 79.375,14.789 120.606,19.191 57.097,6.09 110.035,4.637 157.555,-3.113" /><path
             id="path70"
             style="fill:#ffffff;fill-opacity:1;fill-rule:nonzero;stroke:none"
             d="m 1934.47,2298.13 c 23.83,-23.81 31.06,-32.58 44.95,-58.84 8.14,-15.49 18.6,-35.37 21.56,-60.94 -49.05,18.66 -89.04,56.76 -125.23,98.85 -26.82,31.19 -47.52,72.6 -73.89,103.42 46.5,-15.58 95.51,-45.5 132.61,-82.49" /><path
             id="path72"
             style="fill:#ffffff;fill-opacity:1;fill-rule:nonzero;stroke:none"
             d="m 2074.96,2231.23 c -18.52,31.24 -44.99,65 -72.43,88.06 12.83,-30.72 31.53,-69.04 33.7,-90.65 6.82,-67.76 20.71,-114.38 31.95,-175.79 -30.48,21.73 -62.7,55.92 -95.01,79.79 -25.01,18.39 -50.12,30.65 -75.76,48.31 -15.35,10.57 -25.28,24.06 -38.01,36.75 15.21,-63.8 71.18,-128.24 111.3,-158.31 50.42,-37.76 68.43,-43.76 149.36,-126.12 10.35,101.66 8.51,207.32 -45.1,297.96" /><path
             id="path74"
             style="fill:#ffffff;fill-opacity:1;fill-rule:nonzero;stroke:none"
             d="m 2240.11,1893.61 c -3.81,52.79 -10.03,94.98 -22.99,146.51 -8.95,35.93 -28.34,89.49 -56.21,111.45 3.4,-13.06 5.19,-32.61 6.61,-45.8 5.42,-54.38 -4.9,-117.59 -6.27,-171.91 -0.53,-26.73 -0.34,-47.31 3.63,-72.39 4.12,-26.33 0.75,-58.61 0.75,-58.61 0,0 -14.43,16.49 -27.33,37.01 -28.11,44.67 -37.1,57.92 -59.93,82.16 -28,30.01 -59.6,57.85 -95.08,82.52 4.27,-16.68 22.46,-49.18 30,-62.24 10.02,-17.42 14.41,-33.31 38.2,-72.84 33.29,-55.5 48.11,-63.04 85.09,-122.46 7.98,-12.89 40.91,-62.06 48.84,-77.03 17.37,35.83 23.8,67.16 45.1,125.55 13.41,36.67 11.42,73.35 9.59,98.08" /><path
             id="path76"
             style="fill:#ffffff;fill-opacity:1;fill-rule:nonzero;stroke:none"
             d="m 2291.59,1618.91 c 20.02,52.11 29.26,100.42 36.11,155.24 4.14,33.56 2.17,78.24 -9.75,110.49 -3.23,-7.85 -9.56,-27.85 -10.45,-30.84 -8.92,-29.95 -12.64,-44.36 -25.1,-73.25 -9.46,-22.14 -21.15,-39.8 -33.61,-61.71 -11.37,-20 -20.95,-46.31 -29.15,-66.45 -26.33,-64.6 -28.29,-125.03 -38.33,-131.6 -7.36,15.49 -9.58,30.39 -10.4,37.7 -7.84,71.48 -17.29,136.42 -107.23,220.61 -8.24,-25.06 -4.07,-71.29 0.85,-95.99 10.8,-54.13 19.53,-80.17 43.28,-132.59 12.61,-27.62 29.52,-68.28 34.07,-81.75 12.09,-35.09 16.22,-53.38 23.9,-74.21 42.39,70.84 94.72,143.92 125.81,224.35" /><path
             id="path78"
             style="fill:#ffffff;fill-opacity:1;fill-rule:nonzero;stroke:none"
             d="m 2221.53,1293.36 c 30.27,42.09 41.24,63.16 60.9,107.98 16.53,37.66 21.29,51.57 31,93.66 5.24,22.97 8.22,43.79 4.11,57.37 -23.59,-42.89 -39.88,-90.86 -70.77,-126.47 -24.53,-28.11 -48.3,-52.18 -67.85,-75.95 -29.88,-36.64 -53.64,-71.22 -82.33,-109.31 -2.47,19.02 -3.33,38.39 0.9,69.67 5.87,42.87 2.22,78.01 -5.18,119.45 -9.52,52.68 -16.47,78.77 -34.76,132.03 -22.33,-43.82 -22.27,-94.51 -27.94,-141.03 -10.84,-90.17 17.47,-197.73 23.04,-242.56 1.4,-11.81 -0.63,-40.98 -1.16,-52.38 42.17,33.24 79.67,66.86 116.15,103.32 16.59,16.55 39.27,43.95 53.89,64.22" /><path
             id="path80"
             style="fill:#ffffff;fill-opacity:1;fill-rule:nonzero;stroke:none"
             d="m 2061.54,962.539 c 19.24,13.813 70.9,53.231 95.31,84.301 35.56,45.31 43.4,64.57 66.89,116.67 2.84,6.28 16.21,35.71 17.27,55.76 -76.96,-92.89 -145.8,-106.82 -219.29,-183.8 -26.85,-28.26 -54.39,-54.939 -68.97,-68.189 -11.24,-10.332 -25.09,-13.422 -25.09,-13.422 0,0 1.39,19.762 8.68,33.532 48.97,93.619 58.16,191.439 50.77,296.499 -22.31,-27.62 -29.37,-46.12 -43.6,-72.95 -15.43,-29.17 -23.31,-47.13 -30.45,-65.03 -41.94,-104.31 -52.86,-224.719 -78.8,-285.449 79.99,26.969 142.96,41.391 227.28,102.078" /><path
             id="path82"
             style="fill:#ffffff;fill-opacity:1;fill-rule:nonzero;stroke:none"
             d="m 1733.75,716.449 c 21.75,-1.508 64.07,-1.277 86.67,2.321 114.36,18.332 220.68,101.25 274.2,192.281 -48.57,-29.563 -83.65,-49.281 -126.19,-64.031 -38.02,-13.188 -74.04,-17.079 -137.4,-35.04 -38.29,-10.8 -76.17,-26.148 -89.55,-31.121 -42.36,-15.777 -60.19,-11.89 -60.19,-11.89 0,0 0,6.371 15.81,23.691 31.56,34.43 43.16,42.731 69.14,69.211 8.46,8.75 28,38.43 38.02,58.168 27.99,55.961 31.19,100.771 56.84,162.061 -93.58,-54.92 -139.27,-130.651 -188.63,-226.221 -15.23,-29.277 -35.78,-63.129 -54.54,-81.707 -12.62,-12.492 -30.43,-31.402 -30.43,-31.402 0,0 13,-3.059 53.7,-9.028 18.11,-2.711 56.95,-14.871 92.55,-17.293" /><path
             id="path84"
             style="fill:#ffffff;fill-opacity:1;fill-rule:nonzero;stroke:none"
             d="m 1280.33,709.129 c -49.33,-8.039 -93.18,-20.008 -138.14,-35.438 -12.18,-4.121 -30.51,-13.222 -43.23,-19.711 -31.78,-16.25 -50.1,-26.679 -77.49,-45.57 -44.087,-30.351 -91.365,-62.98 -134.134,-112.629 -0.93,-0.98 -7.856,-8.41 -3.191,-11.941 8.378,-6.578 29,-15.981 35.796,-9.828 39.09,34.687 37.11,45.886 84.509,88.789 12.11,10.918 30.47,26.179 52.39,41.25 21.42,14.629 47.23,30.57 71.22,42.398 21.73,10.723 55.46,14.02 74.26,14.02 l -0.24,-0.239 c 8.61,0.418 57.81,0.661 69.27,-0.121 96.81,-6.648 92.03,-15.211 147.81,-30.39 45.93,-12.52 95.25,-21.399 144.14,-27.879 50.02,-6.801 94.89,-7.641 141.82,-2.84 63.64,6.48 133.32,24.191 185.25,57.762 -47.52,-0.821 -96.29,-9.91 -143.56,-6.371 -19.97,1.589 -52.21,4.578 -74,11.328 -43.38,13.25 -68.37,18.531 -114.3,31.332 -39.59,10.969 -79.34,14.789 -120.65,19.191 -57.08,6.09 -109.94,4.637 -157.53,-3.113" /><path
             id="path86"
             style="fill:#ffffff;fill-opacity:1;fill-rule:nonzero;stroke:none"
             d="m 1106.73,2834.66 -86.92,-322.86 h -92.298 l -57.789,210.34 -56.411,-210.34 h -92.113 l -86.945,322.86 h 86.906 l 49.504,-222.25 59.578,222.25 h 83.11 l 56.476,-222.25 52.042,222.25 h 84.86" /><path
             id="path88"
             style="fill:#ffffff;fill-opacity:1;fill-rule:nonzero;stroke:none"
             d="m 1393.6,2772.2 h -148.52 v -60.06 h 137.69 v -62.46 H 1245.08 V 2511.8 h -82.85 v 322.86 h 231.37 v -62.46" /><path
             id="path90"
             style="fill:#ffffff;fill-opacity:1;fill-rule:nonzero;stroke:none"
             d="m 1631.52,2730.91 c 0,9.06 -2.52,16.88 -7.42,23.48 -4.92,6.54 -10.64,11.09 -17.07,13.73 -8.69,3.46 -17.18,5.37 -25.36,5.68 -8.32,0.38 -19.28,0.61 -33,0.61 h -14.36 v -96.52 h 23.92 c 14.11,0 25.79,0.88 35.04,2.57 9.14,1.76 16.85,5.22 23.02,10.43 5.41,4.59 9.28,10.09 11.62,16.5 2.33,6.47 3.61,14.29 3.61,23.52 z m 86.07,1.82 c 0,-14.42 -2.58,-28.56 -7.61,-42.4 -5.04,-13.79 -12.34,-25.41 -21.67,-34.79 -12.85,-12.72 -27.22,-22.34 -43.03,-28.83 -15.81,-6.49 -35.6,-9.76 -59.14,-9.76 h -51.83 V 2511.8 h -83.23 v 322.86 h 137.01 c 20.52,0 37.86,-1.8 51.91,-5.32 14.16,-3.53 26.66,-8.84 37.48,-15.95 12.97,-8.51 22.9,-19.4 29.76,-32.75 6.86,-13.28 10.35,-29.23 10.35,-47.91" /><path
             id="path92"
             style="fill:#ffffff;fill-opacity:1;fill-rule:nonzero;stroke:none"
             d="M 410.453,255.59 352.922,69.9297 h -63.18 L 251.91,195.082 214.535,69.9297 H 150.727 L 93.6914,255.59 h 62.4296 l 31.871,-127.969 39.61,127.969 h 52.742 l 37.664,-127.969 31.347,127.969 h 61.098" /><path
             id="path94"
             style="fill:#ffffff;fill-opacity:1;fill-rule:nonzero;stroke:none"
             d="m 566.355,283.531 h -4.445 c -2.64,0.77 -6.074,1.649 -10.308,2.649 -4.231,0.98 -8.766,1.48 -13.598,1.48 -11.652,0 -19.535,-2.09 -23.656,-6.281 -4.121,-4.188 -6.184,-12.289 -6.184,-24.297 v -1.492 h 45.797 V 215.25 H 510.145 V 69.9297 h -59.68 V 215.25 h -25.461 v 40.34 h 25.461 v 5.129 c 0,22.691 6.035,39.73 18.105,51.082 12.067,11.347 30.336,17.031 54.805,17.031 8.816,0 16.805,-0.312 23.969,-0.91 7.168,-0.613 13.5,-1.41 19.011,-2.402 v -41.989" /><path
             id="path96"
             style="fill:#ffffff;fill-opacity:1;fill-rule:nonzero;stroke:none"
             d="m 721.438,164.082 c 0,18.047 -3.083,31.137 -9.243,39.289 -6.156,8.141 -15.89,12.211 -29.191,12.211 -5.609,0 -11.387,-0.863 -17.32,-2.562 -5.942,-1.7 -11.602,-4.161 -16.993,-7.34 v -93.27 c 3.961,-1.539 8.196,-2.531 12.7,-2.969 4.511,-0.441 8.964,-0.66 13.367,-0.66 15.722,0 27.433,4.598 35.129,13.789 7.703,9.18 11.551,23.02 11.551,41.512 z m 61.335,1.238 c 0,-15.32 -2.343,-29.261 -7.011,-41.828 -4.688,-12.57 -10.821,-22.933 -18.418,-31.0818 -7.926,-8.5899 -16.899,-15.1016 -26.914,-19.5 -10.02,-4.418 -20.75,-6.6094 -32.203,-6.6094 -10.567,0 -19.539,1.1211 -26.915,3.3789 -7.374,2.2617 -14.917,5.4219 -22.621,9.5117 V 1.80859 H 589.008 V 255.59 h 59.683 v -19.34 c 9.137,7.27 18.465,13.172 27.989,17.68 9.519,4.519 20.504,6.789 32.945,6.789 23.113,0 41.082,-8.5 53.91,-25.469 12.813,-16.969 19.238,-40.281 19.238,-69.93" /><path
             id="path98"
             style="fill:#ffffff;fill-opacity:1;fill-rule:nonzero;stroke:none"
             d="m 827.898,69.9297 h 61.8359 v 64.9688 H 827.898 Z" /><path
             id="path100"
             style="fill:#ffffff;fill-opacity:1;fill-rule:nonzero;stroke:none"
             d="m 1064.65,117.551 c 3.86,4.73 6.75,10.441 8.68,17.109 1.92,6.672 2.89,15.891 2.89,27.692 0,10.91 -0.99,20.058 -2.97,27.437 -1.99,7.383 -4.74,13.281 -8.27,17.691 -3.52,4.52 -7.77,7.711 -12.72,9.59 -4.97,1.871 -10.32,2.809 -16.05,2.809 -5.73,0 -10.82,-0.77 -15.29,-2.309 -4.46,-1.55 -8.73,-4.629 -12.81,-9.261 -3.64,-4.297 -6.53,-10.2 -8.676,-17.7 -2.149,-7.488 -3.235,-16.91 -3.235,-28.257 0,-10.153 0.942,-18.942 2.817,-26.383 1.874,-7.438 4.624,-13.41 8.274,-17.938 3.52,-4.293 7.74,-7.429 12.64,-9.422 4.9,-1.98 10.5,-2.968 16.78,-2.968 5.4,0 10.56,0.91 15.46,2.73 4.9,1.809 9.06,4.879 12.48,9.18 z m 73.24,45.121 c 0,-30.524 -8.91,-54.582 -26.7,-72.1603 -17.8,-17.582 -42.79,-26.3711 -74.98,-26.3711 -32.18,0 -57.179,8.7891 -74.972,26.3711 -17.8,17.5783 -26.695,41.6363 -26.695,72.1603 0,30.75 8.953,54.898 26.863,72.41 17.91,17.527 42.844,26.289 74.804,26.289 32.41,0 57.45,-8.812 75.15,-26.441 17.68,-17.641 26.53,-41.719 26.53,-72.258" /><path
             id="path102"
             style="fill:#ffffff;fill-opacity:1;fill-rule:nonzero;stroke:none"
             d="m 1315.12,198.879 h -5.28 c -2.53,0.883 -6.6,1.551 -12.21,1.992 -5.61,0.438 -10.28,0.66 -14.02,0.66 -8.47,0 -15.95,-0.562 -22.43,-1.652 -6.5,-1.098 -13.48,-2.981 -20.95,-5.629 V 69.9297 h -59.69 V 255.59 h 59.69 v -27.281 c 13.09,11.25 24.46,18.711 34.14,22.402 9.68,3.687 18.58,5.539 26.73,5.539 2.08,0 4.45,-0.051 7.09,-0.16 2.64,-0.121 4.95,-0.281 6.93,-0.5 v -56.711" /><path
             id="path104"
             style="fill:#ffffff;fill-opacity:1;fill-rule:nonzero;stroke:none"
             d="m 1469.69,128.449 v 84.153 c -3.41,1.437 -7.59,2.558 -12.53,3.39 -4.95,0.828 -9.4,1.238 -13.36,1.238 -15.62,0 -27.33,-4.488 -35.13,-13.468 -7.82,-8.992 -11.72,-21.52 -11.72,-37.614 0,-17.847 3.33,-30.308 9.98,-37.359 6.65,-7.059 16.52,-10.59 29.61,-10.59 5.94,0 11.77,0.942 17.49,2.813 5.71,1.879 10.94,4.359 15.66,7.437 z m 59.69,-37.1873 c 0,-17.4297 -2.48,-32.0703 -7.44,-43.9805 -4.96,-11.9023 -11.91,-21.2226 -20.83,-27.9414 C 1492.18,12.5117 1481.4,7.58203 1468.78,4.53906 1456.17,1.51172 1441.92,0 1426.05,0 c -12.89,0 -25.6,0.769531 -38.11,2.30859 -12.51,1.54297 -23.34,3.42188 -32.49,5.6211 V 54.3906 h 7.27 c 7.27,-2.8711 16.12,-5.4883 26.58,-7.8594 10.45,-2.3593 19.81,-3.539 28.06,-3.539 11,0 19.95,1.0078 26.83,3.0469 6.88,2.0429 12.13,4.9297 15.77,8.6718 3.4,3.5391 5.88,8.0508 7.43,13.5703 1.53,5.5079 2.3,12.1172 2.3,19.8282 v 3.4804 c -7.15,-5.8476 -15.08,-10.4804 -23.78,-13.8906 -8.69,-3.418 -18.38,-5.1172 -29.05,-5.1172 -25.99,0 -46.02,7.8164 -60.11,23.4688 -14.09,15.6482 -21.13,39.4492 -21.13,71.4182 0,15.32 2.14,28.543 6.44,39.679 4.29,11.133 10.35,20.844 18.16,29.102 7.27,7.711 16.21,13.719 26.84,18.012 10.61,4.297 21.49,6.457 32.6,6.457 10.02,0 19.13,-1.188 27.34,-3.559 8.19,-2.371 15.65,-5.648 22.37,-9.84 l 2.15,8.27 h 57.86 V 91.2617" /><path
             id="path106"
             style="fill:#ffffff;fill-opacity:1;fill-rule:nonzero;stroke:none"
             d="M 1759.68,327.172 1628.57,16.3594 h -50.75 l 130.57,310.8126 h 51.29" /><path
             id="path108"
             style="fill:#ffffff;fill-opacity:1;fill-rule:nonzero;stroke:none"
             d="m 2016.1,69.9297 h -69.28 l -52.04,80.7303 -16.06,-19.781 V 69.9297 h -59.69 V 327.172 h 59.69 V 173.738 l 63.92,81.852 h 68.66 l -66.71,-80.02 71.51,-105.6403" /><path
             id="path110"
             style="fill:#ffffff;fill-opacity:1;fill-rule:nonzero;stroke:none"
             d="m 2162.74,117.551 c 3.86,4.73 6.75,10.441 8.68,17.109 1.92,6.672 2.89,15.891 2.89,27.692 0,10.91 -0.98,20.058 -2.97,27.437 -1.99,7.383 -4.74,13.281 -8.27,17.691 -3.52,4.52 -7.77,7.711 -12.72,9.59 -4.96,1.871 -10.32,2.809 -16.05,2.809 -5.73,0 -10.82,-0.77 -15.29,-2.309 -4.46,-1.55 -8.73,-4.629 -12.81,-9.261 -3.64,-4.297 -6.53,-10.2 -8.68,-17.7 -2.14,-7.488 -3.23,-16.91 -3.23,-28.257 0,-10.153 0.94,-18.942 2.81,-26.383 1.88,-7.438 4.63,-13.41 8.28,-17.938 3.52,-4.293 7.74,-7.429 12.64,-9.422 4.9,-1.98 10.5,-2.968 16.78,-2.968 5.4,0 10.56,0.91 15.46,2.73 4.9,1.809 9.06,4.879 12.48,9.18 z m 73.24,45.121 c 0,-30.524 -8.9,-54.582 -26.7,-72.1603 -17.8,-17.582 -42.79,-26.3711 -74.98,-26.3711 -32.18,0 -57.18,8.7891 -74.97,26.3711 -17.8,17.5783 -26.7,41.6363 -26.7,72.1603 0,30.75 8.96,54.898 26.87,72.41 17.91,17.527 42.84,26.289 74.8,26.289 32.41,0 57.45,-8.812 75.15,-26.441 17.68,-17.641 26.53,-41.719 26.53,-72.258" /></g></g></g></g></svg>