<?xml version="1.0" encoding="UTF-8" standalone="no"?>
<svg
   xmlns:dc="http://purl.org/dc/elements/1.1/"
   xmlns:cc="http://creativecommons.org/ns#"
   xmlns:rdf="http://www.w3.org/1999/02/22-rdf-syntax-ns#"
   xmlns:svg="http://www.w3.org/2000/svg"
   xmlns="http://www.w3.org/2000/svg"
   viewBox="0 0 858.46667 377.76001"
   height="377.76001"
   width="858.46667"
   xml:space="preserve"
   id="svg2"
   version="1.1"><metadata
     id="metadata8"><rdf:RDF><cc:Work
         rdf:about=""><dc:format>image/svg+xml</dc:format><dc:type
           rdf:resource="http://purl.org/dc/dcmitype/StillImage" /></cc:Work></rdf:RDF></metadata><defs
     id="defs6" /><g
     transform="matrix(1.3333333,0,0,-1.3333333,0,377.76)"
     id="g10"><g
       transform="scale(0.1)"
       id="g12"><path
         id="path14"
         style="fill:#ffffff;fill-opacity:1;fill-rule:nonzero;stroke:none"
         d="m 3196.86,1622.34 -120.4,-447.05 h -127.82 l -79.95,291.23 -78.16,-291.23 h -127.5 l -120.4,447.05 h 120.33 l 68.59,-307.74 82.49,307.74 h 115 l 78.27,-307.74 72.01,307.74 h 117.54" /><path
         id="path16"
         style="fill:#ffffff;fill-opacity:1;fill-rule:nonzero;stroke:none"
         d="m 3460.94,1261.77 c 7,8.59 12.26,18.95 15.75,31.07 3.51,12.11 5.26,28.86 5.26,50.29 0,19.81 -1.8,36.42 -5.41,49.84 -3.6,13.4 -8.6,24.11 -15.01,32.12 -6.4,8.2 -14.1,14.01 -23.13,17.42 -8.99,3.39 -18.71,5.09 -29.1,5.09 -10.42,0 -19.67,-1.4 -27.79,-4.19 -8.1,-2.81 -15.86,-8.42 -23.24,-16.82 -6.62,-7.81 -11.88,-18.52 -15.78,-32.13 -3.91,-13.61 -5.86,-30.72 -5.86,-51.33 0,-18.42 1.7,-34.38 5.11,-47.89 3.39,-13.51 8.4,-24.37 15.02,-32.57 6.4,-7.82 14.05,-13.52 22.96,-17.12 8.91,-3.6 19.07,-5.4 30.48,-5.4 9.8,0 19.16,1.64 28.08,4.95 8.88,3.3 16.44,8.86 22.66,16.67 z m 133,81.96 c 0,-55.45 -16.16,-99.13 -48.48,-131.05 -32.34,-31.94 -77.72,-47.89 -136.16,-47.89 -58.45,0 -103.85,15.95 -136.17,47.89 -32.31,31.92 -48.49,75.6 -48.49,131.05 0,55.85 16.26,99.68 48.78,131.5 32.55,31.82 77.82,47.73 135.88,47.73 58.85,0 104.34,-16.01 136.46,-48.03 32.11,-32.03 48.18,-75.75 48.18,-131.2" /><path
         id="path18"
         style="fill:#ffffff;fill-opacity:1;fill-rule:nonzero;stroke:none"
         d="m 3915.8,1409.47 h -9.58 c -4.6,1.6 -11.99,2.81 -22.17,3.61 -10.2,0.79 -18.68,1.19 -25.48,1.19 -15.37,0 -28.96,-0.99 -40.73,-3 -11.79,-2 -24.47,-5.4 -38.05,-10.2 v -225.78 h -108.4 v 337.17 h 108.4 v -49.54 c 23.77,20.42 44.44,33.97 62.01,40.68 17.58,6.7 33.76,10.06 48.53,10.06 3.79,0 8.1,-0.1 12.88,-0.3 4.8,-0.2 9,-0.5 12.59,-0.9 v -102.99" /><path
         id="path20"
         style="fill:#ffffff;fill-opacity:1;fill-rule:nonzero;stroke:none"
         d="m 3977.05,1175.29 h 108.371 v 467.172 H 3977.05 Z" /><path
         id="path22"
         style="fill:#ffffff;fill-opacity:1;fill-rule:nonzero;stroke:none"
         d="m 4406.7,1268.1 v 165.68 c -7.6,3.21 -15.57,5.52 -23.96,6.91 -8.4,1.42 -16.07,2.11 -23.08,2.11 -28.37,0 -49.62,-8.86 -63.81,-26.62 -14.18,-17.72 -21.27,-42.33 -21.27,-73.81 0,-33.08 5.7,-57.09 17.09,-72.02 11.37,-14.94 29.63,-22.4 54.82,-22.4 9.78,0 20.16,1.86 31.15,5.57 10.98,3.7 20.68,8.56 29.06,14.58 z m 108.38,-92.81 H 4406.7 v 35.13 c -18.6,-15.21 -35.99,-26.42 -52.17,-33.62 -16.21,-7.21 -34.91,-10.81 -56.09,-10.81 -40.98,0 -73.78,15.8 -98.35,47.44 -24.6,31.62 -36.89,74.25 -36.89,127.9 0,28.61 4.15,53.98 12.45,76.1 8.28,22.12 19.64,41.08 34.02,56.9 13.61,15.01 30.1,26.67 49.5,34.98 19.38,8.3 38.77,12.45 58.17,12.45 20.17,0 36.74,-2.14 49.62,-6.45 12.88,-4.31 26.14,-9.76 39.74,-16.36 v 143.51 h 108.38 v -467.17" /><path
         id="path24"
         style="fill:#ffffff;fill-opacity:1;fill-rule:nonzero;stroke:none"
         d="m 5169.06,1535.87 h -205.65 v -83.16 h 190.66 v -86.47 h -190.66 v -190.95 h -114.68 v 447.05 h 320.33 v -86.47" /><path
         id="path26"
         style="fill:#ffffff;fill-opacity:1;fill-rule:nonzero;stroke:none"
         d="m 5454.29,1261.77 c 7,8.59 12.26,18.95 15.78,31.07 3.48,12.11 5.26,28.86 5.26,50.29 0,19.81 -1.82,36.42 -5.41,49.84 -3.62,13.4 -8.63,24.11 -15.02,32.12 -6.42,8.2 -14.11,14.01 -23.12,17.42 -8.99,3.39 -18.71,5.09 -29.13,5.09 -10.41,0 -19.66,-1.4 -27.76,-4.19 -8.1,-2.81 -15.87,-8.42 -23.27,-16.82 -6.61,-7.81 -11.85,-18.52 -15.76,-32.13 -3.9,-13.61 -5.86,-30.72 -5.86,-51.33 0,-18.42 1.71,-34.38 5.1,-47.89 3.41,-13.51 8.41,-24.37 15.01,-32.57 6.4,-7.82 14.07,-13.52 22.99,-17.12 8.89,-3.6 19.05,-5.4 30.45,-5.4 9.8,0 19.17,1.64 28.08,4.95 8.91,3.3 16.47,8.86 22.66,16.67 z m 133.03,81.96 c 0,-55.45 -16.18,-99.13 -48.51,-131.05 -32.31,-31.94 -77.71,-47.89 -136.16,-47.89 -58.44,0 -103.82,15.95 -136.16,47.89 -32.32,31.92 -48.48,75.6 -48.48,131.05 0,55.85 16.25,99.68 48.79,131.5 32.52,31.82 77.81,47.73 135.85,47.73 58.85,0 104.34,-16.01 136.46,-48.03 32.14,-32.03 48.21,-75.75 48.21,-131.2" /><path
         id="path28"
         style="fill:#ffffff;fill-opacity:1;fill-rule:nonzero;stroke:none"
         d="m 5876.43,1261.77 c 7,8.59 12.26,18.95 15.78,31.07 3.48,12.11 5.26,28.86 5.26,50.29 0,19.81 -1.83,36.42 -5.41,49.84 -3.62,13.4 -8.63,24.11 -15.02,32.12 -6.42,8.2 -14.12,14.01 -23.12,17.42 -8.99,3.39 -18.71,5.09 -29.13,5.09 -10.41,0 -19.66,-1.4 -27.76,-4.19 -8.1,-2.81 -15.87,-8.42 -23.28,-16.82 -6.6,-7.81 -11.84,-18.52 -15.75,-32.13 -3.9,-13.61 -5.86,-30.72 -5.86,-51.33 0,-18.42 1.7,-34.38 5.1,-47.89 3.41,-13.51 8.41,-24.37 15.01,-32.57 6.4,-7.82 14.07,-13.52 22.98,-17.12 8.89,-3.6 19.06,-5.4 30.46,-5.4 9.8,0 19.17,1.64 28.07,4.95 8.91,3.3 16.48,8.86 22.67,16.67 z m 133.03,81.96 c 0,-55.45 -16.18,-99.13 -48.51,-131.05 -32.31,-31.94 -77.71,-47.89 -136.16,-47.89 -58.44,0 -103.82,15.95 -136.16,47.89 -32.33,31.92 -48.48,75.6 -48.48,131.05 0,55.85 16.25,99.68 48.79,131.5 32.52,31.82 77.81,47.73 135.85,47.73 58.85,0 104.35,-16.01 136.46,-48.03 32.13,-32.03 48.21,-75.75 48.21,-131.2" /><path
         id="path30"
         style="fill:#ffffff;fill-opacity:1;fill-rule:nonzero;stroke:none"
         d="m 6306.38,1268.1 v 165.68 c -7.59,3.21 -15.57,5.52 -23.96,6.91 -8.38,1.42 -16.08,2.11 -23.06,2.11 -28.37,0 -49.64,-8.86 -63.83,-26.62 -14.16,-17.72 -21.25,-42.33 -21.25,-73.81 0,-33.08 5.68,-57.09 17.08,-72.02 11.38,-14.94 29.65,-22.4 54.81,-22.4 9.78,0 20.17,1.86 31.15,5.57 11,3.7 20.66,8.56 29.06,14.58 z m 108.38,-92.81 h -108.38 v 35.13 c -18.6,-15.21 -35.97,-26.42 -52.18,-33.62 -16.21,-7.21 -34.88,-10.81 -56.06,-10.81 -41.01,0 -73.77,15.8 -98.37,47.44 -24.6,31.62 -36.87,74.25 -36.87,127.9 0,28.61 4.15,53.98 12.43,76.1 8.3,22.12 19.64,41.08 34.04,56.9 13.58,15.01 30.08,26.67 49.47,34.98 19.39,8.3 38.78,12.45 58.17,12.45 20.2,0 36.74,-2.14 49.65,-6.45 12.88,-4.31 26.12,-9.76 39.72,-16.36 v 143.51 h 108.38 v -467.17" /><path
         id="path32"
         style="fill:#ffffff;fill-opacity:1;fill-rule:nonzero;stroke:none"
         d="m 2829.66,897.941 c 0,12.579 -3.41,23.418 -10.21,32.489 -6.81,9.09 -14.71,15.429 -23.72,19.031 -12.01,4.801 -23.72,7.449 -35.13,7.937 -11.41,0.493 -26.62,0.762 -45.63,0.762 h -19.82 V 824.551 h 33.02 c 19.62,0 35.78,1.179 48.5,3.59 12.7,2.39 23.36,7.191 31.97,14.371 7.4,6.398 12.76,14.039 16.06,22.918 3.31,8.89 4.96,19.73 4.96,32.511 z m 119.2,2.571 c 0,-20.02 -3.51,-39.59 -10.52,-58.703 -7,-19.118 -17.01,-35.188 -30.02,-48.188 -17.82,-17.609 -37.68,-30.922 -59.59,-39.941 -21.92,-9 -49.2,-13.508 -81.82,-13.508 h -71.76 V 594.559 h -115.29 v 447.061 h 189.75 c 28.42,0 52.39,-2.46 71.91,-7.36 19.52,-4.9 36.78,-12.27 51.79,-22.06 18.01,-11.82 31.77,-26.93 41.28,-45.341 9.51,-18.418 14.27,-40.527 14.27,-66.347" /><path
         id="path34"
         style="fill:#ffffff;fill-opacity:1;fill-rule:nonzero;stroke:none"
         d="m 3257.22,828.738 h -9.58 c -4.58,1.614 -11.99,2.813 -22.17,3.602 -10.19,0.808 -18.67,1.211 -25.46,1.211 -15.38,0 -28.96,-1 -40.74,-3 -11.79,-2 -24.47,-5.41 -38.05,-10.211 V 594.559 H 3012.84 V 931.73 h 108.38 v -49.539 c 23.77,20.418 44.44,33.969 62.01,40.68 17.58,6.699 33.76,10.059 48.54,10.059 3.79,0 8.08,-0.11 12.88,-0.289 4.79,-0.211 8.98,-0.512 12.57,-0.911 V 828.738" /><path
         id="path36"
         style="fill:#ffffff;fill-opacity:1;fill-rule:nonzero;stroke:none"
         d="m 3518.46,681.039 c 7,8.59 12.26,18.941 15.78,31.07 3.48,12.102 5.26,28.86 5.26,50.282 0,19.82 -1.83,36.429 -5.41,49.851 -3.62,13.399 -8.63,24.11 -15.02,32.117 -6.42,8.211 -14.11,14.012 -23.12,17.411 -9,3.402 -18.72,5.109 -29.13,5.109 -10.41,0 -19.66,-1.41 -27.76,-4.199 -8.11,-2.809 -15.87,-8.418 -23.27,-16.821 -6.61,-7.8 -11.86,-18.519 -15.76,-32.129 -3.9,-13.609 -5.86,-30.718 -5.86,-51.339 0,-18.411 1.7,-34.371 5.09,-47.891 3.42,-13.5 8.42,-24.359 15.02,-32.57 6.4,-7.809 14.07,-13.508 22.98,-17.11 8.89,-3.609 19.05,-5.41 30.46,-5.41 9.8,0 19.17,1.649 28.08,4.961 8.9,3.301 16.47,8.848 22.66,16.668 z M 3651.49,763 c 0,-55.449 -16.18,-99.129 -48.51,-131.07 -32.31,-31.918 -77.72,-47.879 -136.16,-47.879 -58.45,0 -103.83,15.961 -136.16,47.879 -32.33,31.941 -48.48,75.621 -48.48,131.07 0,55.84 16.25,99.68 48.79,131.5 32.52,31.832 77.81,47.742 135.85,47.742 58.85,0 104.34,-16.031 136.46,-48.043 32.14,-32.027 48.21,-75.769 48.21,-131.199" /><path
         id="path38"
         style="fill:#ffffff;fill-opacity:1;fill-rule:nonzero;stroke:none"
         d="m 3936.74,700.84 v 152.82 c -6.2,2.602 -13.81,4.66 -22.78,6.16 -8.97,1.5 -17.08,2.25 -24.26,2.25 -28.37,0 -49.63,-8.148 -63.81,-24.468 -14.19,-16.321 -21.28,-39.071 -21.28,-68.293 0,-32.43 6.04,-55.059 18.14,-67.86 12.08,-12.82 30.01,-19.207 53.78,-19.207 10.77,0 21.37,1.688 31.73,5.09 10.39,3.387 19.89,7.906 28.48,13.508 z m 108.38,-67.559 c 0,-31.621 -4.51,-58.242 -13.51,-79.851 -9,-21.621 -21.61,-38.539 -37.85,-50.739 -16.2,-12.421 -35.77,-21.371 -58.68,-26.882 -22.92,-5.5 -48.8,-8.258 -77.61,-8.258 -23.43,0 -46.5,1.41 -69.21,4.211 -22.72,2.797 -42.38,6.207 -58.99,10.207 v 84.371 h 13.18 c 13.2,-5.219 29.28,-9.961 48.28,-14.27 18.98,-4.3 35.97,-6.449 50.96,-6.449 19.98,0 36.23,1.848 48.73,5.551 12.48,3.699 22.02,8.957 28.61,15.769 6.2,6.411 10.71,14.61 13.49,24.61 2.81,10.008 4.22,22.019 4.22,36.031 v 6.309 c -12.99,-10.621 -27.4,-19.02 -43.2,-25.219 -15.78,-6.211 -33.38,-9.301 -52.76,-9.301 -47.18,0 -83.57,14.199 -109.17,42.621 -25.59,28.43 -38.38,71.656 -38.38,129.707 0,27.821 3.9,51.84 11.7,72.063 7.8,20.207 18.78,37.82 32.99,52.84 13.19,14.007 29.44,24.918 48.72,32.73 19.3,7.797 39.03,11.707 59.22,11.707 18.21,0 34.75,-2.148 49.63,-6.469 14.91,-4.3 28.43,-10.25 40.65,-17.859 l 3.9,15.019 h 105.08 V 633.281" /><path
         id="path40"
         style="fill:#ffffff;fill-opacity:1;fill-rule:nonzero;stroke:none"
         d="m 4379.91,828.738 h -9.58 c -4.58,1.614 -12,2.813 -22.18,3.602 -10.19,0.808 -18.67,1.211 -25.45,1.211 -15.37,0 -28.95,-1 -40.73,-3 -11.81,-2 -24.49,-5.41 -38.07,-10.211 V 594.559 H 4135.52 V 931.73 h 108.38 v -49.539 c 23.77,20.418 44.43,33.969 62.01,40.68 17.57,6.699 33.75,10.059 48.55,10.059 3.79,0 8.07,-0.11 12.88,-0.289 4.78,-0.211 8.97,-0.512 12.57,-0.911 V 828.738" /><path
         id="path42"
         style="fill:#ffffff;fill-opacity:1;fill-rule:nonzero;stroke:none"
         d="m 4633.63,682.738 v 70.043 c -14.61,-1.199 -30.41,-2.851 -47.42,-4.941 -17.04,-2.09 -29.95,-4.531 -38.74,-7.328 -10.81,-3.391 -19.08,-8.332 -24.78,-14.821 -5.7,-6.48 -8.54,-15.011 -8.54,-25.582 0,-6.98 0.6,-12.668 1.78,-17.05 1.22,-4.411 4.23,-8.598 9.03,-12.579 4.6,-3.992 10.1,-6.929 16.5,-8.832 6.42,-1.886 16.43,-2.839 30.03,-2.839 10.81,0 21.77,2.203 32.87,6.582 11.11,4.39 20.88,10.179 29.27,17.347 z m 0,-52.457 c -5.79,-4.402 -13.02,-9.699 -21.61,-15.902 -8.6,-6.207 -16.72,-11.117 -24.33,-14.707 -10.6,-4.813 -21.61,-8.371 -33.02,-10.672 -11.39,-2.301 -23.92,-3.449 -37.52,-3.449 -32.03,0 -58.84,9.91 -80.46,29.719 -21.64,19.82 -32.43,45.14 -32.43,75.96 0,24.622 5.5,44.75 16.52,60.352 10.99,15.609 26.62,27.918 46.81,36.938 20.02,9 44.85,15.402 74.48,19.21 29.61,3.801 60.34,6.61 92.16,8.399 v 1.812 c 0,18.61 -7.6,31.469 -22.82,38.571 -15.21,7.109 -37.62,10.668 -67.24,10.668 -17.82,0 -36.83,-3.16 -57.05,-9.461 -20.22,-6.309 -34.72,-11.16 -43.54,-14.559 h -9.89 v 81.36 c 11.39,3.011 29.96,6.562 55.67,10.671 25.72,4.09 51.51,6.141 77.32,6.141 61.45,0 105.84,-9.441 133.16,-28.371 27.31,-18.922 40.98,-48.582 40.98,-89.02 V 594.559 h -107.19 v 35.722" /><path
         id="path44"
         style="fill:#ffffff;fill-opacity:1;fill-rule:nonzero;stroke:none"
         d="M 5157.89,833.551 V 594.559 h -108.4 V 763 c 0,16.41 -0.41,30.359 -1.19,41.871 -0.81,11.52 -3.01,20.867 -6.61,28.078 -3.61,7.211 -9.06,12.461 -16.35,15.762 -7.32,3.309 -17.58,4.949 -30.79,4.949 -10.62,0 -20.92,-2.148 -30.93,-6.441 -10.01,-4.321 -19.02,-8.867 -27.02,-13.668 V 594.559 H 4828.22 V 931.73 H 4936.6 V 894.5 c 18.6,14.602 36.39,26.02 53.39,34.23 16.99,8.2 35.77,12.309 56.37,12.309 22.18,0 41.77,-4.957 58.76,-14.867 16.99,-9.91 30.3,-24.461 39.88,-43.692 21.6,18.211 42.57,32.54 62.95,42.942 20.4,10.41 40.38,15.617 59.97,15.617 36.39,0 64.02,-10.918 82.91,-32.738 18.87,-21.813 28.33,-53.242 28.33,-94.27 V 594.559 H 5270.78 V 763 c 0,16.602 -0.36,30.621 -1.06,42.031 -0.69,11.41 -2.85,20.707 -6.46,27.918 -3.39,7.211 -8.8,12.461 -16.2,15.762 -7.42,3.309 -17.83,4.949 -31.23,4.949 -9.02,0 -17.82,-1.539 -26.43,-4.648 -8.6,-3.114 -19.1,-8.262 -31.51,-15.461" /><path
         id="path46"
         style="fill:#ffffff;fill-opacity:1;fill-rule:nonzero;stroke:none"
         d="M 5796.83,833.551 V 594.559 H 5688.42 V 763 c 0,16.41 -0.4,30.359 -1.19,41.871 -0.8,11.52 -3,20.867 -6.59,28.078 -3.61,7.211 -9.07,12.461 -16.37,15.762 -7.31,3.309 -17.57,4.949 -30.79,4.949 -10.61,0 -20.92,-2.148 -30.93,-6.441 -10.01,-4.321 -19,-8.867 -27.02,-13.668 V 594.559 H 5467.15 V 931.73 h 108.38 V 894.5 c 18.61,14.602 36.41,26.02 53.4,34.23 16.98,8.2 35.77,12.309 56.38,12.309 22.17,0 41.77,-4.957 58.75,-14.867 16.99,-9.91 30.3,-24.461 39.88,-43.692 21.59,18.211 42.58,32.54 62.96,42.942 20.4,10.41 40.37,15.617 59.97,15.617 36.38,0 64,-10.918 82.9,-32.738 18.88,-21.813 28.33,-53.242 28.33,-94.27 V 594.559 H 5909.72 V 763 c 0,16.602 -0.36,30.621 -1.05,42.031 -0.71,11.41 -2.85,20.707 -6.47,27.918 -3.39,7.211 -8.8,12.461 -16.21,15.762 -7.4,3.309 -17.81,4.949 -31.21,4.949 -9.02,0 -17.82,-1.539 -26.45,-4.648 -8.59,-3.114 -19.1,-8.262 -31.5,-15.461" /><path
         id="path48"
         style="fill:#ffffff;fill-opacity:1;fill-rule:nonzero;stroke:none"
         d="m 6330.98,806.52 c -0.6,22.628 -6.22,39.64 -16.81,51.05 -10.62,11.41 -27.13,17.121 -49.56,17.121 -20.8,0 -37.93,-5.41 -51.32,-16.222 -13.42,-10.797 -20.92,-28.117 -22.51,-51.949 z m 107.48,-63.348 h -247.39 c 1.59,-26.422 11.65,-46.633 30.17,-60.652 18.51,-14 45.8,-21.02 81.82,-21.02 22.82,0 44.93,4.121 66.34,12.32 21.43,8.211 38.34,17.012 50.75,26.418 h 12 V 613.48 c -24.41,-9.82 -47.42,-16.929 -69.05,-21.32 -21.62,-4.41 -45.55,-6.609 -71.76,-6.609 -67.64,0 -119.49,15.211 -155.52,45.629 -36.03,30.429 -54.05,73.761 -54.05,130.011 0,55.649 17.07,99.731 51.19,132.258 34.13,32.52 80.93,48.793 140.37,48.793 54.85,0 96.07,-13.871 123.7,-41.582 27.63,-27.738 41.43,-67.601 41.43,-119.648 v -37.84" /><path
         id="path50"
         style="fill:#ffffff;fill-opacity:1;fill-rule:nonzero;stroke:none"
         d="m 1340.5,2129.67 c 12.51,27.07 24.09,48.62 40.79,74.31 7.37,11.31 15.69,19.21 23.11,30.66 -3.54,1.02 -8.73,-1.91 -10.96,-3.5 -7.42,-5.38 -10.77,-14.12 -16.71,-18.8 -14.03,-11.07 -13.64,-21.1 -21,-26.27 -6.57,-4.64 -8.45,-7.69 -13.05,-14.91 -3.08,-4.82 -5.35,-8.73 -8.6,-18.23 -1.15,-3.42 -3.45,-0.39 -8.92,-7.93 -7.19,-9.8 -10.41,-20.39 -13.39,-32.26 -0.96,-3.9 -7.59,-5.97 -11.86,-14.07 -5.71,-10.92 -9.43,-21.03 -11.9,-36.95 -0.62,-3.69 -6.86,-6.25 -11.16,-16.53 -3.05,-7.23 -5.24,-8.83 -7.9,-22.46 -1.65,-8.3 -5.43,-9.5 -9.7,-21.56 -3.3,-9.2 -3.43,-18.06 -4.58,-30.08 -0.27,-2.33 -4.2,-6.95 -7.83,-13.69 -6.1,-11.26 -5.9,-18.78 -8.32,-30.41 -0.93,-4.2 -5.65,-9.77 -10.18,-27.79 -3.98,-15.98 -0.33,-26.58 -1.68,-34.45 -3.53,-20.45 -7.03,-38.21 -5.14,-58.35 0.94,-9.85 2.44,-20.01 1.78,-29.48 -1.87,-29.7 -3.48,-54.17 -3.32,-87.83 0.11,-18.32 1.54,-43.41 4.32,-64.29 3.04,-23.06 7.44,-41.07 7.44,-41.07 h 75.14 c 0,0 -2.94,43.45 0.95,89.19 2.31,27.42 8.83,56.48 14.76,76.89 7.51,26.03 12.18,39.51 26.37,73.85 0.3,0.76 -0.1,3.98 -3.85,0.83 -7.84,-6.58 -14.39,-12.37 -20.58,-21.69 -9.45,-14.25 -15.21,-25.99 -22.87,-40.63 -8.95,-17.02 -13.89,-31.84 -23.11,-52.52 -0.54,14.92 1.88,29.12 4.91,42.87 3.1,14.04 5.56,25.16 9.98,37.26 7.83,21.35 15.43,39.16 27.99,59.02 7.27,11.48 16.57,21.78 26.01,30.33 11.29,10.32 21.73,19.4 33.55,29.5 -12.42,6.4 -28.96,-6.96 -32.27,-7.65 -17.47,-3.41 -24.58,-19.6 -29.93,-21.82 -7.65,-3.2 -12.07,-7.89 -17.38,-14.34 -4.09,-4.84 -5.32,-12.32 -9.59,-14.98 -7.13,-4.44 -12.37,-11.14 -17.27,-20.5 -2.01,-3.86 -7.5,-22.13 -13.59,-19.78 10.42,61.92 32.28,120.01 67.38,171.7 22.25,32.77 46.45,60.88 82.12,86.1 4.7,3.34 5.61,4.89 -0.95,4.66 -33.34,-4.06 -35.38,-19.27 -40.87,-20.72 -5.2,-1.34 -11.65,-7.51 -15.77,-11.52 -7.41,-7.33 -7.28,-13.51 -10.13,-15.43 -6.08,-4.25 -10.66,-8.65 -14.81,-16.02 -2.19,-3.85 -5.86,-12.31 -9.11,-14.24 -8.57,-4.96 -16.86,-12.19 -20.99,-19.99 -3.05,-5.7 -4.27,-11.89 -8.25,-17.49 -4.27,-6.02 -10.23,-10.53 -15.36,-14.88 3.9,26.47 16.37,57.82 24.95,84.87 11.53,36.12 25.54,68.95 41.33,103.07" /><path
         id="path52"
         style="fill:#ffffff;fill-opacity:1;fill-rule:nonzero;stroke:none"
         d="m 1417.21,1915.17 c 28.44,63.85 58.37,111.9 97.26,168.11 5.08,7.36 9.64,14.58 14.08,21.49 2,3.11 11.56,16.85 13.55,19.76 13.04,19.69 18.52,25.72 31.86,44.53 3.62,5.11 6.55,9.13 8.09,15.04 2.84,11.01 -6.61,18.4 -8.79,28.96 -2.2,10.79 -0.99,22.56 3.96,31.68 3.1,5.69 6.19,7.93 9.31,15.57 6.07,14.74 3.97,46.6 10.87,47.44 -1.75,-15.13 -2.15,-32.13 0.23,-46.64 2.76,-16.93 13.03,-27.18 17.27,-45.11 11.43,2.06 23.83,1.57 33.45,0.74 9.54,-0.81 21.61,1.83 31.4,5.18 13.26,4.53 24.27,12.78 37.79,15.98 -11.5,-11.05 -27.73,-15.2 -41.33,-23.59 -5,-3.14 -9.71,-7.29 -13.05,-12.45 -5.46,-8.5 -9.78,-16.65 -18.34,-20.38 -15.19,-6.62 -28.24,-3.48 -45.57,-6.7 -25.76,-26.54 -50.01,-62.63 -72.38,-100.58 -56.73,-95.98 -104.04,-195.37 -131.54,-297.29 9.51,17.73 18.6,34.88 28.9,51.75 11.38,18.74 24.18,37.09 38.13,55.47 32.66,43.05 64.97,80.64 101.18,120.19 29.21,31.95 61.24,58.76 96.95,81.18 47.19,29.57 105.41,50.28 156.56,39.6 5.82,-1.36 14.14,-2.91 17.77,-6.74 -64.11,8.98 -121.54,-13.42 -164.39,-47.74 -33.86,-27.08 -62.39,-54.57 -91.39,-90.27 -14.98,-17.21 -28.45,-36.13 -41.83,-54.45 -14.02,-19.27 -26.45,-39.55 -38.77,-59.83 -41.55,-68.61 -72.99,-141.25 -96.12,-216.51 -0.66,-2.39 -0.81,-4.79 -1.46,-7.16 1.09,1.69 2.71,3.53 3.81,5.25 31.12,50.61 68.55,99.45 115.96,132.22 4.14,2.82 8.45,8.26 9.57,12.53 5.12,20.09 -10.19,29.75 10.99,57.52 4.86,6.38 11.51,8.71 16.1,14.63 8.67,13.41 15.74,37.42 23,43.87 -3.65,-15.63 -12.61,-32.15 -14.53,-48.26 -2.03,-17.68 2.49,-32.14 3.28,-50.88 12.52,-1.71 22.21,-7.01 32.03,-10.04 15.28,-4.77 24.46,-3.56 39.57,-2.25 6.45,0.54 18.15,4.31 25.1,2.89 -14.61,-7.98 -34.33,-6.51 -49.28,-14.14 -10.46,-5.36 -13.49,-13.27 -27.92,-16.05 -12.84,-2.5 -23.64,-1.16 -31.98,3.12 -6.49,3.27 -11.56,4.64 -17.39,1.85 -15.56,-7.47 -26.18,-18.02 -38.7,-30.65 -29.08,-29.26 -52.81,-61.92 -74.96,-104.75 -5.86,-11.39 -11.13,-22.64 -16.13,-34.25 -2.47,-5.65 -8.6,-21.34 -8.6,-21.34 h -75.98 c 0,0 -0.19,21.91 0.52,29.91 1.46,15.95 3.63,27.76 6.72,43.94 4.41,23.26 8.72,44.37 14.76,66.94 5.88,21.96 12.21,42.56 19.74,63.65 15.71,43.96 32.41,86.06 50.67,127.06" /><path
         id="path54"
         style="fill:#ffffff;fill-opacity:1;fill-rule:nonzero;stroke:none"
         d="m 682.551,1323.32 c 27.73,22.68 48.265,35.82 75.957,52.33 11.242,6.72 28.254,14.33 41.336,20.26 47.984,21.68 111.465,37.67 171.269,38.77 1.082,0 1.016,-0.05 1.016,-0.05 h 445.901 c 0,0 -1.66,0.05 1.56,0.05 14.19,0 28.22,-4.95 36.91,-13.14 8.71,-8.26 12.87,-20.98 15.14,-33.63 1.92,-10.78 0.98,-20.36 -1.53,-31.89 -1.97,-9.11 -3.43,-14.54 -8.51,-22.28 -3.06,-4.71 -5.97,-7.94 -11.68,-12.48 -5.86,-4.68 -14.16,-6.31 -23.67,-6.4 -1,-0.04 -3.12,-0.1 -3.05,-0.07 0.1,0.07 -521.559,0.07 -521.559,0.07 0,0 -3.243,0.01 -4.871,0.01 -34.149,0.11 -70.094,-1.63 -103.836,-6.03 -25.844,-3.53 -51.743,-7.56 -76.723,-14.06 -31.504,-8.23 -61.836,-19.62 -92.117,-30.91 16.785,22.31 36.16,41.24 58.457,59.45" /><path
         id="path56"
         style="fill:#ffffff;fill-opacity:1;fill-rule:nonzero;stroke:none"
         d="m 837.383,1500.73 c 27.398,19.79 60.66,36.04 90.121,47.32 14.953,5.66 34.816,11.93 50.598,15.86 19.062,4.81 40.968,8.42 58.828,8.94 5.39,0.15 0.79,0.04 0.79,0.04 l 382.46,0.04 c 0,0 8.19,-0.44 11.03,-1 7.19,-1.55 12.99,-4.48 15.39,-6.01 5.94,-3.81 13.4,-11.81 17.3,-18.14 9.93,-16.35 11.68,-34 8.46,-52.37 -3.67,-20.97 -19.61,-44.86 -41.23,-45.45 -3.77,-0.1 -11.28,0 -11.28,0 h -414.23 c 0,0 -24.104,-0.47 -35.116,-0.87 -20.375,-0.8 -42.965,-3.12 -60.754,-5.74 -15.215,-2.19 -30.078,-5.07 -45.312,-9.15 -51.071,-13.8 -95.446,-39.7 -141.856,-59.84 31.258,54.63 73.539,96.48 114.801,126.37" /><path
         id="path58"
         style="fill:#ffffff;fill-opacity:1;fill-rule:nonzero;stroke:none"
         d="m 623.434,1240.8 c 66.488,39.28 146.582,54.77 219.886,57.23 1.742,0.08 5.219,0.19 5.219,0.19 l 571.731,-0.05 c 0,0 1.04,0 6.21,0.05 34.65,0.03 47.31,-34.35 47.15,-62.15 -0.07,-9.16 -1.62,-18.5 -4.16,-24.77 -3.29,-8.19 -6.93,-14.88 -12.89,-21.34 -2.13,-2.34 -9.78,-7.72 -13.17,-8.55 -7.92,-1.94 -17.67,-1.72 -17.61,-1.72 0.08,0 -425.26,-0.08 -425.26,0 0,0 -22.95,0.92 -38.876,2.45 -11.469,1.13 -20.176,2.33 -32.09,4.6 -29.285,5.82 -53.562,15.35 -78.926,23.17 -16.918,5.24 -34.714,9.13 -53.277,11.94 -34.133,5.22 -71.414,7.6 -105.887,4.99 -43.847,-3.26 -82.847,-11.85 -124.554,-25.08 7.054,10.99 36.371,27.12 56.504,39.04" /><path
         id="path60"
         style="fill:#ffffff;fill-opacity:1;fill-rule:nonzero;stroke:none"
         d="m 931.391,1061.52 c -19.543,6.89 -38.614,15.78 -55.723,27.07 -22.285,14.75 -33.207,26.48 -62.008,39.79 -24.644,11.39 -44.324,22.63 -78.687,35.08 -16.582,6.01 -43.446,14.28 -66.481,18.22 -32.906,5.59 -64.637,8.04 -64.637,8.04 0,0 6.719,4.19 10.774,5.43 33.586,10.22 63.246,15.21 97.738,17.76 30.246,2.27 58.031,-0.68 88.356,-5.42 12.441,-1.96 28.613,-5.79 42.668,-9.8 45.636,-12.99 97.523,-33.59 143.547,-33.67 2.57,0 2.277,0.04 2.277,0.04 h 425.015 c 0,0 -3.21,0 1.3,0 12.87,0.04 36.93,-4.13 46.6,-21.21 11.2,-19.68 14.68,-43.12 5.27,-66.6 -2.85,-7.05 -7.58,-17.16 -14.37,-23.28 -5.97,-5.4 -15.67,-8.87 -21.27,-8.87 -1.62,-0.08 -4.4,0 -4.4,0 h -371.69 c 0,0 1.41,0 -2.03,0 -38,0 -85.847,4.6 -122.249,17.42" /><path
         id="path62"
         style="fill:#ffffff;fill-opacity:1;fill-rule:nonzero;stroke:none"
         d="m 1100.71,929.68 c -10.51,10.789 -25.01,27.332 -38.15,43.039 -25.23,30.071 -36.52,57.161 -36.52,57.161 h 247.91 c 0,0 0.66,-28.6 -5.07,-61.72 -5.36,-30.75 -16.72,-63.172 -28.8,-86.66 -0.44,-24.078 9.72,-46.469 11.39,-70.262 -20.36,-12.5 -42.26,-24.867 -60.51,-42.418 -1.17,-1.082 -3.05,-1.082 -3.82,1.828 -9.77,36.661 -14.93,69.34 -22.95,105.59 -22.6,17.473 -43.79,33.043 -63.48,53.442" /><path
         id="path64"
         style="fill:#ffffff;fill-opacity:1;fill-rule:nonzero;stroke:none"
         d="m 1356.2,950.012 c -7.01,12.949 -12.24,30.047 -20.29,40.218 -1.73,-9.07 0.4,-14.648 -0.83,-23.332 -1.13,-7.269 -7.09,-4.25 -8.3,-0.828 -3.48,9.84 -7.17,21.989 -10.35,32.078 -5.29,16.802 -6.98,31.682 -6.98,31.682 l 41.24,0.05 c 0,0 1.59,-0.39 2.32,-4.4 1.97,-10.39 1.48,-20.54 4.33,-32.582 3.66,-15.507 8.37,-29.668 14.07,-44.128 4.96,-12.731 11.35,-25.571 16.55,-38.211 0.7,-1.661 1.04,-4.86 -0.21,-6.52 -1.53,-1.918 -4.16,-1.68 -5.67,0 -11.81,13.43 -16.57,28.641 -25.88,45.973" /><path
         id="path66"
         style="fill:#ffffff;fill-opacity:1;fill-rule:nonzero;stroke:none"
         d="m 1420.04,920.531 c -7.01,14.949 -16.88,31.758 -16.02,48.719 4.56,-5.988 6.44,-10.281 12.72,-13.621 2.87,-0.91 8.89,-0.059 7.38,4.961 -2.77,9.34 -7.08,17.25 -11.06,30.07 -5.92,18.95 -11.67,39.2 -11.67,39.2 l -42.1,0.02 c 0,0 2.33,-17.08 11.9,-43.29 8.41,-23.211 21.4,-49.77 35.62,-74.668 11.59,-20.481 22.11,-38.352 35.25,-53.313 4.5,-5.148 15.54,-0.629 10.76,6.071 -12.47,17.64 -24.11,37.172 -32.78,55.851" /><path
         id="path68"
         style="fill:#ffffff;fill-opacity:1;fill-rule:nonzero;stroke:none"
         d="m 1693.4,2343.41 c -9.14,-3.98 -17.21,-9.12 -21.77,-17.91 -3.32,-6.3 -5.56,-15.92 0.79,-21.33 11.12,-9.49 24.38,0.22 29.75,9.91 6.79,12.35 5.02,35.96 5.02,35.96 0,0 -7.89,-4.11 -13.79,-6.63" /><path
         id="path70"
         style="fill:#ffffff;fill-opacity:1;fill-rule:nonzero;stroke:none"
         d="m 1703.06,2284.47 c 3.99,7.54 12.74,15.68 22.33,21.51 10.84,6.63 22.07,13.06 29.88,17.72 7.81,4.7 9.3,7.99 9.3,7.99 0,0 -6.44,-2.22 -9.96,-4.3 -19.28,-11.48 -40.31,-24.55 -48.87,-28.32 -10.8,-4.71 -25.47,-5.62 -38.7,-7.3 -2.11,16.68 -6.44,23.61 -6.39,38.43 0.11,7.12 1.83,16.34 3.04,22.77 4.14,21.43 4.95,32.24 4.95,32.24 0,0 -3.27,-3.04 -4.46,-12.48 -1.35,-8.51 -2.3,-11.66 -4.26,-21.73 -2.22,-11.62 -4.55,-21.47 -11.5,-28.73 -10.02,-10.36 -19.3,-28.82 -11.56,-42.96 4.51,-8.26 12.04,-7.06 14.4,-9.19 2.35,-2.12 3.79,-7.2 10.92,-9.57 15.39,-5.14 32.83,8.66 40.88,23.92" /><path
         id="path72"
         style="fill:#ffffff;fill-opacity:1;fill-rule:nonzero;stroke:none"
         d="m 1683.11,2240.4 c 5.22,8.48 10.58,14.43 18.81,19.48 13.67,8.33 23.8,13.97 32.13,18.24 3.62,1.81 6.63,3.97 7.55,7.83 -3.73,-1.4 -17.83,-8.03 -31.83,-16.35 -10.03,-5.99 -27.27,-13.47 -38.85,-14 -4.59,-0.21 -7.99,0.93 -11.74,1.04 -7.77,0.32 -17.67,-1.55 -17.67,-1.55 0,0 -2.51,10.98 -5.83,18.89 -1.66,4.06 -4.35,8.22 -5.8,15.83 -0.97,5.08 -1.26,12.71 -0.86,17.25 1.14,13.73 4.84,27.07 4.2,40.97 -8.63,-17.93 -5.1,-40.01 -15.23,-53.88 -4.28,-5.83 -7.66,-10.43 -11.02,-17.77 -5.56,-12.07 -4.9,-24.56 2.62,-36.19 4.34,-6.62 13.91,-6.38 15.56,-7.67 2.51,-1.85 4.65,-8.78 14.01,-10.86 16.02,-3.6 34.9,3.82 43.95,18.74" /><path
         id="path74"
         style="fill:#ffffff;fill-opacity:1;fill-rule:nonzero;stroke:none"
         d="m 1687.58,1889.81 c 3.73,7.53 6.13,17.42 10.89,24.41 -10.76,-1.61 -12.49,-2.84 -28.04,-4.54 -3.39,-0.33 -10.4,-3.85 -12.72,-6.16 -6.15,-6.21 -11.52,-11.97 -9.13,-22.38 0.92,-4.05 4.5,-7.02 6.49,-7.65 12.93,-4.2 26.05,3.49 32.51,16.32" /><path
         id="path76"
         style="fill:#ffffff;fill-opacity:1;fill-rule:nonzero;stroke:none"
         d="m 1700.7,1869.29 c 14.69,3.43 31.66,10.64 38.48,8.37 -13.79,-7.33 -31.17,-10 -46.45,-14.35 -11.65,-3.36 -19.97,-12.16 -30.37,-20.15 -9.55,-7.27 -22.24,-10.22 -33.59,-4.88 -3.83,1.82 -7.54,7.99 -8.2,11.28 -0.6,2.63 -6.08,5.26 -8.89,7.58 -2.83,2.36 -4.2,8.25 -4.26,10.52 -0.49,20.34 14.98,28.55 29.89,40.5 11.23,8.99 25.81,47.16 34.7,55.07 -1.58,-12.3 -17.58,-35.52 -24.55,-53.58 -5.53,-14.38 -3.71,-25.89 -7.28,-41.04 10.66,-0.68 22.54,-2.91 33.28,-3.09 8.42,-0.11 18.59,1.72 27.24,3.77" /><path
         id="path78"
         style="fill:#ffffff;fill-opacity:1;fill-rule:nonzero;stroke:none"
         d="m 1685.22,1837.94 c -8.25,-1.53 -18.34,-4.13 -25.23,-5.59 -23.95,-5.07 -35.4,6.67 -54.52,6.44 1.68,21.91 -5.93,31.71 0.33,45.87 5.59,12.6 10.76,25.94 15.56,36.61 3.89,8.57 5.07,15.8 5.07,15.8 0,0 -5.8,-8.69 -22.32,-40.86 -5.74,-11.23 -16.02,-13.63 -25.15,-24.23 -10.51,-12.12 -16.54,-37.75 2.9,-48.51 3.86,-2.12 3.3,-8.78 6.11,-11.47 12.98,-12.21 39.19,-10.98 55.58,3.9 13.05,11.89 28.91,13.82 42.43,17.32 7.9,2.05 14.83,5.4 14.83,5.4 0,0 -3.75,1.53 -15.59,-0.68" /><path
         id="path80"
         style="fill:#ffffff;fill-opacity:1;fill-rule:nonzero;stroke:none"
         d="m 1205.22,1583.69 c -0.94,0 -1.96,0 0,0 z m -111.88,315.55 c -7.99,-10.56 -11.69,-22.7 -20.5,-31.92 -4.6,-4.83 -11.63,-2.57 -15.27,2.99 -4.05,6.29 -10.59,15.19 -5.73,21.4 8.01,10.26 24.76,16.81 39,14.96 0.84,-0.1 5.43,-3.49 2.5,-7.43 z M 1055,1838.85 c -4.47,-11.96 -17.8,-13.26 -29.14,-15.62 -2.12,-0.46 -8.65,0 -11.58,2.87 -4.9,4.79 -9.14,11.34 -8.28,19.54 0.45,5.06 4.67,10.02 9.9,12.03 9.47,3.67 20.69,9.57 30.03,4.33 8.02,-4.48 12.23,-14.72 9.07,-23.15 z m -24.55,-63.22 c -3.27,-4.71 -11.65,10.95 -12.74,18.12 -3.13,20.77 15.08,26.07 30.24,25.43 0.47,-12.39 -9.13,-31.57 -17.5,-43.55 z m -16.39,-56.03 c -2.97,-8.35 -4.4,-16.04 -7.72,-23.69 -3.22,-7.4 -16.977,-10.04 -24.606,-7.67 -10.894,3.37 -20.242,27.83 -7.855,37.2 9.476,7.08 19.289,8.22 31.361,9.7 2.17,0.26 10.27,-0.23 10.59,-0.99 2.02,-5.07 0.74,-7.61 -1.77,-14.55 z m -18.333,-64.59 c -2.207,-6.42 -3.184,-13.02 -6.02,-19.19 -1.422,-3.13 -3.285,0.98 -3.359,1.19 -4.282,10.64 -6.985,19.65 -3.336,29.02 2.066,5.19 9.168,9.96 15.906,10.38 -0.418,-6.67 -0.891,-14.9 -3.191,-21.4 z m -21.649,-31.49 c -4.922,2.22 -4.848,8.55 -6.91,12.48 -1.941,3.84 -6.133,9.13 -4.41,14.17 9.5,-5.33 13.902,-14.83 11.32,-26.65 z m -16.387,39.31 c -11.336,9.32 -12.316,24.22 -19.863,35.62 8.332,5.33 22.387,4.26 26.707,-6.29 3.457,-8.48 5.969,-20.94 -2.633,-27.41 -0.929,-0.69 -3.136,-2.81 -4.211,-1.92 z m -42.246,76.85 c -1.699,2.43 -5.062,9.43 -2.5,10.32 20.282,6.98 35.496,7.21 39.832,-14.49 3.067,-15.48 -7.507,-28.77 -22.332,-23.36 -4.25,1.58 -8.465,18.07 -15,27.53 z m -29.5,48.99 c -1.418,1.79 -2.578,7.18 -0.804,8.56 10.547,8.48 26.031,9.13 38.019,7.96 15.809,-1.44 19.059,-16.14 16.418,-28.32 -3.48,-16.04 -27.801,-18.04 -34.691,-15.37 -6.766,2.6 -11.489,17.94 -18.942,27.17 z m 3.446,57.03 c 13.66,8.86 39.785,15.43 44.14,-8.56 1.317,-7.23 -0.484,-16.83 -10.25,-19.97 -10.035,-3.22 -21.851,-6.69 -31.011,-2.97 -11.274,4.61 -13.493,24.65 -2.879,31.5 z m -14.164,40.36 c 1.027,4.6 6.128,6.78 10.418,7.88 11.058,2.73 23.425,6.85 33.578,0.38 3.961,-2.5 4.261,-6.04 4.781,-11.02 0.898,-8.07 -0.25,-14.66 -5.563,-17.74 -10.773,-6.32 -21.738,-6.89 -34.257,-4.43 -10.157,2.01 -10.985,15.47 -8.957,24.93 z m -11.336,-62.21 c -9.473,7.01 -13.657,16.91 -20.637,26.72 -1.688,2.4 0,3.39 1.293,3.76 16.805,4.75 29.277,-3.63 26.66,-21.96 -0.469,-3.56 -2.785,-11.85 -7.316,-8.52 z m -46.387,56.61 c -6.297,5.45 -1.918,14.92 3.57,17.68 9.61,4.77 24.707,5.49 34.703,2.13 6.43,-2.17 9.684,-11.4 8.532,-21.47 -0.485,-4.13 -1.747,-8.68 -3.766,-10.02 -7.613,-5.19 -19.391,-5.39 -28.648,-3.47 -6.551,1.39 -8.887,10.35 -14.391,15.15 z m -7.262,57.25 c 6.09,13.25 28.309,13.36 40.406,7.46 9.856,-4.85 11.094,-23.19 0.332,-30.42 -8.585,-5.72 -22.113,-3.62 -31.218,-1.95 -12.938,2.38 -13.965,15.1 -9.52,24.91 z m 0.496,49.61 c 9.227,8.77 21.188,4.75 32.305,3.21 2.152,-0.3 4.715,-1.82 6.176,-3.27 7.59,-7.67 8.187,-20.24 -0.266,-26.53 -9.75,-7.25 -21.922,-2.53 -33.641,-1.94 -3.164,0.12 -6.644,3.84 -7.367,6.22 -2.109,7.42 -3.39,16.49 2.793,22.31 z m 5.946,41.49 c 9.8,4.09 26.636,5.97 33.574,-5.03 4.262,-6.74 3.023,-19.22 -3.813,-21.03 -6.695,-1.73 -29.457,-5.51 -34.906,7.07 -2.699,6.2 -1.559,16.17 5.145,18.99 z m 30.164,35.25 c 2.836,-1.25 4.601,-3.52 5.269,-7.01 1.399,-7.54 -0.59,-15.74 -7.836,-17.07 -10.89,-1.98 -27.058,-2.61 -27,12.79 0.039,17.16 16.957,16.97 29.567,11.29 z m -21.922,31.93 c 5.797,2.21 15.332,1.72 20.535,-0.99 2.625,-1.37 6.148,-5.68 4.668,-10.22 -1.848,-5.93 -7.363,-8.07 -13.629,-8.15 -6.02,-0.05 -12.926,0.42 -15.355,5.34 -2.313,4.66 -1.333,12.05 3.781,14.02 z m 6.769,25.74 c 5.297,1.93 13.129,1.8 16.981,-2.38 5.304,-5.8 1.121,-15 -8.887,-14.55 -3.519,0.16 -7.695,1.37 -9.824,2.58 -5.168,2.92 -3.457,12.5 1.73,14.35 z m 23.813,16.59 c 0.68,2.23 4.16,4.84 5.98,5.49 3.973,1.42 8.629,1.71 12.43,0.19 7.602,-3.13 6.555,-12.54 -1.559,-15.83 -3.632,-1.47 -9.214,-2.43 -11.953,-1.47 -5.113,1.73 -6.535,6.17 -4.898,11.62 z m 23.68,-36.77 c -8.29,-2.42 -19.848,-2.89 -22.325,5.61 -4.203,14.42 14.004,16.58 23.449,13.55 6.512,-2.06 8.813,-16.3 -1.124,-19.16 z m 5.492,47.63 c 2.629,8.94 12.758,13.79 21.929,11.06 7.887,-2.31 9.707,-13.06 4.383,-18.29 -2.414,-2.34 -6.406,-4.73 -10.703,-5.68 -9.387,-2.1 -18.605,3.07 -15.609,12.91 z m 41.254,-32.79 c -1.485,-5.83 -5.766,-9.84 -12.618,-11.35 -6.808,-1.5 -16.214,-1.92 -19.988,2.28 -3.598,3.98 -5.254,9.59 -2.25,13.88 6.024,8.56 17.047,11.55 26.871,9.38 5.606,-1.31 9.727,-7.05 7.985,-14.19 z m -3.664,34.31 c 3.664,8.1 12.957,12.19 21.878,9.47 1.79,-0.57 5.469,-3.45 5.981,-6.29 1.059,-5.64 -0.899,-10.79 -5.609,-13.74 -6.036,-3.84 -11.02,-6.01 -17.95,-3.17 -5.203,2.18 -6.472,8.94 -4.3,13.73 z m 38.437,-22.78 c 4.078,-6.9 -2.129,-13.83 -5.277,-15.73 -6.989,-4.09 -16.84,-6.6 -21.051,0.33 -4.141,6.79 -0.711,14.86 6.512,17.84 6.89,2.86 14.031,7.2 19.816,-2.44 z m 11.59,-26.37 c 4.562,-3.77 8.566,-11.69 3.098,-17.96 -5.137,-5.91 -11.516,-7.68 -19.59,-8.98 -5.457,-0.93 -12.438,3.1 -13.321,7.93 -0.808,4.15 -1.57,11.73 2.543,15.21 8.024,6.83 18.782,10.79 27.27,3.8 z m 9.672,44.99 c 4.308,-1.27 7.062,-5.84 4.906,-10.23 -1.313,-2.7 -5.187,-5.65 -7.652,-7.15 -6.762,-4.17 -12.567,-2.46 -14.688,2.51 -3.894,9.15 9.211,17.29 17.434,14.87 z m 16.504,-22.8 c 4.747,-0.42 6.927,-3.73 7.867,-7.36 1.23,-4.87 -0.38,-9.38 -4.49,-12.14 -4.893,-3.25 -10.987,-5.17 -15.866,-5.24 -6.589,-0.12 -12.699,9.55 -9.125,15.84 3.786,6.74 13.309,9.62 21.614,8.9 z m 27.277,-34.89 c 2.81,-8.28 -3.26,-12.14 -9.66,-15.55 -6.5,-3.46 -15.22,-6.7 -19.738,-2.38 -5.766,5.43 -8.332,14.58 -1.903,20.6 8.911,8.36 25.401,14.65 31.301,-2.67 z m 11.78,-20.77 c 10.46,-1.33 12.53,-16.2 10.42,-21.58 -2.39,-4.62 -7.66,-8.24 -10.42,-9.66 -7.68,-3.95 -16.64,-5.45 -23.7,-1.8 -6.42,3.34 -9.21,13.08 -5.72,20.73 4.73,10.34 19.63,13.6 29.42,12.31 z m 21.52,-46.04 c 3.58,-5 2.79,-13.88 0.67,-16.66 -6.6,-9.01 -24.96,-14.16 -32.54,-10.47 -5.75,2.82 -11.43,15.5 -4.69,23.11 7,7.9 19.21,12.61 30.3,10.3 2.47,-0.55 4.09,-3.27 6.26,-6.28 z m 4.64,-28.37 c 5.03,-0.55 9.51,-6.08 11.94,-12.11 3.16,-7.8 -0.04,-16.89 -2.53,-18.59 -6.02,-4.09 -25.09,-15.57 -37.09,-8.69 -6.6,3.79 -8.42,12.44 -8.83,17.55 -1.32,16.51 23.72,23.27 36.51,21.84 z m -70.397,-118.09 c -2.566,6.55 -4.941,16.24 0.203,20.22 10.394,8.2 33.894,15.37 42.834,2.97 5.81,-8.05 4.1,-21.7 -6.07,-26.92 -10.51,-5.37 -31.041,-11.54 -36.967,3.73 z m -50.41,-0.72 c 10.429,5.3 25.457,11.69 36.687,4.46 5.137,-3.29 10.442,-16.96 6.817,-23.02 -7.699,-12.87 -27.965,-16.15 -40.844,-12.84 -10.969,2.85 -14.273,25.53 -2.66,31.4 z m -9.383,44.49 c 12.59,8.85 37.441,14.57 43.426,-4.77 1.554,-5.02 2.437,-10.57 -0.125,-14.62 -6.973,-11.21 -24.656,-14.16 -36.492,-12.49 -12.805,1.85 -18.848,23.43 -6.809,31.88 z m -10.59,45.08 c 12.09,6.85 37.856,15.96 43.926,-3.68 2.426,-8.02 2.184,-17.95 -4.695,-21.48 -9.852,-5.17 -25.457,-10.59 -36.809,-3.51 -9.48,6 -10.762,23.89 -2.422,28.67 z m 67.676,81.03 c -5.063,-4.53 -10.203,-5.5 -16.941,-7.79 -9.442,-3.2 -19.313,4.08 -20.403,13.1 -1.816,15.46 14.75,17.76 25.707,19.69 7.989,1.45 12.938,-5.73 14.41,-10.56 1.504,-4.63 1.309,-10.86 -2.773,-14.44 z m 20.304,-36.38 c -7.18,-10.71 -36.16,-17.45 -42.55,-6.43 -4.668,8.06 -7.574,19.39 1.203,24.8 9.211,5.66 20.137,9.05 30.857,7.12 10.08,-1.78 15.21,-18.36 10.49,-25.49 z m 15.45,-66.33 c 4.12,-6.56 7,-15.37 0.88,-23.52 -5.55,-7.45 -25.37,-10.94 -35.517,-8.48 -5.566,1.4 -8.195,8.16 -9.047,12.73 -1.176,6.17 -1.734,12.38 3.731,17.41 7.851,7.2 18.333,7.04 28.403,7.04 4.14,0 10,-2.68 11.55,-5.18 z m -5.76,22.26 c -6.17,-11.34 -27.084,-12.8 -36.486,-11.55 -6.629,0.89 -11.289,11.57 -11.098,20.5 0.07,4.61 1.5,7.65 4.645,9.34 10.445,5.6 21.132,9.35 32.369,7.53 10.96,-1.74 15.22,-17.22 10.57,-25.82 z m -110.072,24.42 c -7.106,21.89 20.222,28.78 36.176,25.41 11.105,-2.31 14.808,-23.65 4.476,-30.39 -12.781,-8.31 -35.472,-10.99 -40.652,4.98 z m -41.211,-53.73 c 8.187,8.45 22.973,8.98 34.512,7.42 7.086,-0.98 10.14,-8.14 11.125,-15.91 2.761,-21.38 -25.942,-24.98 -39.598,-19.98 -8.996,3.29 -13.68,20.58 -6.039,28.47 z m -5.777,41.42 c 8.558,10.08 22.875,12.47 34.734,9.21 7.238,-1.97 10.59,-10.43 10.422,-19.91 -0.137,-5.38 -3.828,-9.28 -7.137,-10.65 -8.43,-3.42 -18.172,-5.97 -27.367,-4.84 -11.344,1.39 -18.219,17.27 -10.652,26.19 z m 1.359,45.11 c 10.527,4.29 30.144,8.14 33.449,-6.9 4.461,-20.03 -19.168,-23.28 -31.797,-19.8 -9.668,2.65 -11.504,22.72 -1.652,26.7 z m 75.726,33.09 c 7.872,-4.47 9.524,-17.08 4.731,-24.39 -6.367,-9.67 -28.133,-15.27 -39.844,-6.81 -6.68,4.84 -10.277,24.72 3.41,29.49 10.934,3.83 21.414,7.54 31.703,1.71 z m -11.156,14.38 c -8.929,-5.52 -21.656,-7.72 -30.097,-3.02 -7.344,4.02 -7.063,14.75 -3.418,20.52 5.98,9.62 20.851,10.66 31.132,7.64 8.864,-2.56 12.18,-19.04 2.383,-25.14 z m -72.281,15.68 c 0.902,2.86 2.172,3.68 3.949,4.55 7.504,3.58 15.746,4.54 22.938,-0.07 5.179,-3.36 4.722,-11.1 0.886,-15.12 -5.621,-5.9 -17.046,-6.15 -24.359,-2.31 -4.727,2.46 -4.945,8.29 -3.414,12.95 z m 2.398,-31.34 c 3.321,9.48 15.145,8.95 24.106,7.79 11.019,-1.44 13.226,-15.56 9.312,-21.5 -5.41,-8.2 -17.757,-6.63 -27.586,-5.38 -7.992,1.02 -8.464,11.6 -5.832,19.09 z m 155.504,-285.21 c 2.71,-10.71 0,-20.89 -9.53,-24.3 -12.247,-4.32 -28.81,-10.65 -38.602,-4.05 -11.2,7.51 -16.59,28.81 -3.723,37.16 15.199,9.94 45.445,16.45 51.855,-8.81 z m -16.508,33.3 c -8.23,-9.35 -21.664,-9.04 -34.851,-12.91 -5.094,-1.47 -11.133,3.02 -13.785,7.68 -4.871,8.7 -9.754,20.36 -0.414,28.77 7.734,7.05 18.281,6.45 27.754,9.28 4.25,1.28 9.457,2.76 14.621,-0.72 10.673,-7.29 14.833,-22.91 6.675,-32.1 z m 87.308,140.15 c 2.32,-6.81 5.44,-11.8 2.8,-18.58 -3.15,-8.33 -11.22,-9.47 -18.8,-12.21 -7.07,-2.56 -18.86,-5.79 -24.78,0.4 -6.8,7.04 -9.55,21.39 -1.4,27.54 10.55,7.86 36.6,18.71 42.18,2.85 z m 143.29,61.18 c 6.23,25.39 13.97,51.14 15.9,77.97 2.84,40.07 -5.8,81.73 -31.51,112.08 2.53,-13.09 5.88,-24.14 7.64,-37.89 2.09,-16.58 -0.25,-35.06 -4.53,-51.76 -3.24,-12.64 -8.94,-24.93 -14.59,-36.67 -6.67,-13.91 -16.63,-29.04 -26.55,-41.45 -27.81,-34.58 -71.14,-102.07 -71.14,-102.07 0,0 -3.63,0.26 -5.78,0.26 -0.51,8.41 19.44,37.22 29.5,53.35 22.1,35.35 38.83,54.37 58.04,85.02 12.04,19.33 21.23,42.85 24.19,64.16 5.99,43.44 -17.43,95.49 -51.1,112.81 7.7,-32.45 6.9,-78.18 -10.38,-97.41 -32.69,-36.43 -52.12,-63.69 -75.45,-110.4 -0.67,-1.25 -6.13,6.31 -10.64,9.24 -5.06,3.35 -2.23,13.37 -4.04,20.11 -1.64,5.73 -4.34,10.15 -5.14,11.15 -6.91,8.46 -13.58,8.99 -15.04,11.53 -1.67,2.86 -0.87,10 -6.89,18.13 -3.01,4.09 -10.68,7.13 -13.8,10.97 -3.37,4.2 -4.9,17.05 -14.21,22.32 -4.421,2.48 -6.476,10.19 -10.718,13.97 -13.086,11.59 -26.149,9.35 -28.652,10.08 -3.368,0.9 -9.938,9.27 -21.637,11.28 -11.438,1.95 -17.731,-5.69 -23.668,-2.92 -14.895,6.89 -29.156,7.46 -44.981,-10.18 -4.75,-5.25 -12.964,-0.34 -23.214,-8.18 -8.997,-6.86 -9.165,-13.2 -13.75,-14.07 -8.606,-1.61 -15.028,-8.5 -18.348,-16.01 -1.723,-3.88 -3.02,-11.7 -4.024,-16.87 -1.41,-7.13 -5.015,-13.69 -5.082,-18.93 -0.086,-7.28 2.215,-11.21 1.571,-14.47 -1.059,-4.71 -4.875,-9.03 -5.34,-13.44 -0.348,-2.5 -0.559,-9.16 1.258,-12.91 2.293,-4.62 -1.606,-8.64 -3.633,-13.56 -1.934,-4.58 -3.969,-12.42 -3.348,-17.95 0.821,-7.59 5.164,-10.37 1.785,-16.36 -5.535,-9.71 -12.535,-24.87 -0.265,-44.24 2.254,-3.54 -5.141,-10.43 -5.555,-20.54 -0.469,-11 6.172,-19.13 7.988,-24 0.344,-1.75 -2.922,-1.65 -3.043,-3.53 -29.222,30.9 -55.062,59.39 -88.949,86.22 -20.703,16.36 -41.172,30.12 -64.109,42.4 -61.289,32.87 -132.492,54.86 -196.992,46.82 24.285,-19.56 54.941,-33.5 79.89,-55.71 23.641,-21.06 45.09,-39.04 66.621,-61.42 33.793,-35.1 61.254,-70.69 89.867,-112 8.5,-12.23 14.094,-20.41 22.012,-33.17 7.981,-12.76 16.844,-26.31 24.106,-38.96 36.613,-63.58 66.613,-122.44 96.98,-187.59 8.422,-18.01 15.504,-36.87 23.762,-54.78 2.211,-4.86 5.375,-1.25 7.609,0 10.977,6.35 22.649,11.66 34.047,17.04 9.098,4.18 17.379,7.06 25.512,10.18 20.539,7.83 40.031,12.08 61.551,16.55 35.909,7.52 100.439,5.97 100.439,5.97 l 122.33,0.04 c 0.8,0 1.63,0 3.34,0 -1.28,35.07 -9.61,69.15 -11.64,104.32 -1.54,28.5 -0.59,56.04 0.41,84.59 2.74,77.36 14.11,160.4 31.39,230.88" /><path
         id="path82"
         style="fill:#ffffff;fill-opacity:1;fill-rule:nonzero;stroke:none"
         d="m 395.137,2293.68 c -23.871,-23.8 -30.992,-32.57 -44.91,-58.88 -8.2,-15.47 -18.61,-35.34 -21.579,-60.93 49.051,18.68 89.071,56.78 125.235,98.87 26.754,31.2 47.504,72.6 73.887,103.42 -46.469,-15.58 -95.504,-45.52 -132.633,-82.48" /><path
         id="path84"
         style="fill:#ffffff;fill-opacity:1;fill-rule:nonzero;stroke:none"
         d="m 254.711,2226.77 c 18.492,31.24 44.98,65.02 72.441,88.05 -12.718,-28.56 -28.382,-56.87 -33.769,-90.66 -10.672,-67.27 -20.746,-114.39 -31.906,-175.79 30.503,21.76 62.683,55.95 95.031,79.81 24.996,18.37 50.051,30.64 75.758,48.3 15.277,10.55 25.234,24.09 37.945,36.77 -15.145,-63.84 -71.164,-128.27 -111.273,-158.31 -50.387,-37.79 -68.45,-43.81 -149.422,-126.14 -10.282,101.66 -8.454,207.32 45.195,297.97" /><path
         id="path86"
         style="fill:#ffffff;fill-opacity:1;fill-rule:nonzero;stroke:none"
         d="m 89.5234,1889.11 c 3.7657,52.8 10.1016,95.02 22.9256,146.52 8.989,35.97 28.34,89.51 56.246,111.47 -3.418,-13.05 -5.215,-32.6 -6.531,-45.8 -5.469,-54.39 4.945,-117.57 6.188,-171.9 0.617,-26.71 0.382,-47.31 -3.618,-72.41 -4.136,-26.33 -0.687,-58.62 -0.687,-58.62 0,0 14.426,16.47 27.305,36.99 28.144,44.7 37.16,57.97 59.836,82.19 28.132,30.05 59.597,57.88 95.124,82.52 -4.285,-16.69 -22.425,-49.16 -29.921,-62.21 -10.004,-17.45 -14.543,-33.32 -38.215,-72.85 -33.313,-55.55 -48.153,-63.04 -85.141,-122.45 -8.008,-12.92 -40.847,-62.06 -48.805,-77.08 -17.328,35.86 -23.863,67.19 -45.1206,125.56 -13.3516,36.68 -11.3555,73.37 -9.586,98.07" /><path
         id="path88"
         style="fill:#ffffff;fill-opacity:1;fill-rule:nonzero;stroke:none"
         d="m 38.0898,1614.44 c -20.0859,52.08 -29.28902,100.4 -36.09761,155.23 -4.16016,33.55 -2.226565,78.26 9.74611,110.52 3.1406,-7.87 9.5469,-27.87 10.414,-30.86 8.9063,-29.96 12.6329,-44.35 25.0821,-73.25 9.5234,-22.16 21.1679,-39.83 33.6289,-61.73 11.3281,-19.99 20.8907,-46.31 29.0857,-66.45 26.375,-64.57 28.321,-125.02 38.414,-131.62 7.258,15.54 9.532,30.42 10.344,37.75 7.84,71.45 17.25,136.39 107.227,220.6 8.254,-25.07 4.07,-71.28 -0.891,-96.03 -10.758,-54.12 -19.445,-80.11 -43.281,-132.56 -12.598,-27.62 -29.418,-68.27 -34.028,-81.73 -12.082,-35.07 -16.218,-53.45 -23.82,-74.19 -42.476,70.78 -94.7578,143.87 -125.8242,224.32" /><path
         id="path90"
         style="fill:#ffffff;fill-opacity:1;fill-rule:nonzero;stroke:none"
         d="m 108.121,1288.83 c -30.246,42.1 -41.2655,63.25 -60.9491,108.07 -16.5274,37.59 -21.2813,51.53 -30.961,93.63 -5.289,22.95 -8.27731,43.77 -4.1718,57.34 23.6797,-42.87 39.8398,-90.85 70.8125,-126.41 24.5894,-28.21 48.2774,-52.23 67.8244,-76.04 29.988,-36.58 53.601,-71.21 82.383,-109.3 2.425,19.09 3.363,38.43 -0.926,69.71 -5.856,42.86 -2.246,78 5.238,119.5 9.488,52.65 16.445,78.71 34.715,131.98 22.348,-43.83 22.262,-94.54 27.871,-141.03 10.828,-90.2 -17.391,-197.76 -22.941,-242.6 -1.485,-11.81 0.562,-40.96 1.16,-52.32 -42.199,33.23 -79.742,66.79 -116.141,103.29 -16.586,16.54 -39.344,43.95 -53.914,64.18" /><path
         id="path92"
         style="fill:#ffffff;fill-opacity:1;fill-rule:nonzero;stroke:none"
         d="m 268.102,958.051 c -19.215,13.84 -70.844,53.299 -95.29,84.349 -35.601,45.21 -43.437,64.58 -66.921,116.59 -2.879,6.34 -16.1683,35.78 -17.2543,55.78 76.9453,-92.91 145.8323,-106.74 219.2303,-183.84 26.934,-28.24 54.516,-54.828 69.071,-68.16 11.171,-10.282 25.042,-13.391 25.042,-13.391 0,0 -1.445,19.801 -8.687,33.582 -48.969,93.589 -58.211,191.439 -50.781,296.449 22.351,-27.67 29.402,-46.15 43.586,-72.91 15.429,-29.15 23.297,-47.17 30.507,-65.11 41.903,-104.29 52.805,-224.749 78.692,-285.37 -79.91,26.921 -142.84,41.312 -227.195,102.031" /><path
         id="path94"
         style="fill:#ffffff;fill-opacity:1;fill-rule:nonzero;stroke:none"
         d="m 595.824,711.949 c -21.613,-1.449 -63.992,-1.32 -86.586,2.36 -114.394,18.312 -220.726,101.211 -274.215,192.273 48.497,-29.594 83.563,-49.34 126.211,-64.113 37.985,-13.117 74.008,-17.008 137.418,-35.02 38.262,-10.808 76.145,-26.117 89.453,-31.097 42.418,-15.801 60.278,-11.922 60.278,-11.922 0,0 0,6.449 -15.844,23.73 -31.578,34.461 -43.141,42.699 -69.121,69.192 -8.531,8.75 -28.074,38.48 -37.996,58.25 -28.074,55.878 -31.192,100.668 -56.828,162.058 93.554,-54.94 139.125,-130.75 188.59,-226.32 15.211,-29.27 35.777,-63.078 54.57,-81.66 12.637,-12.469 30.441,-31.418 30.441,-31.418 0,0 -13.047,-3.071 -53.664,-9.071 -18.222,-2.671 -57.051,-14.761 -92.707,-17.242" /><path
         id="path96"
         style="fill:#ffffff;fill-opacity:1;fill-rule:nonzero;stroke:none"
         d="m 1049.31,704.699 c 49.39,-8.078 93.27,-20.078 138.19,-35.488 12.07,-4.152 30.44,-13.281 43.16,-19.731 31.84,-16.199 50.16,-26.718 77.52,-45.531 44.07,-30.347 91.41,-63.051 134.12,-112.668 0.91,-0.98 7.82,-8.359 3.22,-11.961 -8.37,-6.558 -29,-15.898 -35.85,-9.851 -39.08,34.761 -37.11,45.89 -84.47,88.781 -12.15,10.941 -30.49,26.289 -52.41,41.281 -21.37,14.629 -47.21,30.61 -71.22,42.449 -21.82,10.739 -55.42,13.95 -74.28,13.95 l 0.25,-0.141 c -8.57,0.332 -57.83,0.609 -69.24,-0.129 -96.808,-6.64 -92.066,-15.301 -147.886,-30.422 -45.906,-12.488 -95.16,-21.379 -144.051,-27.937 -50.09,-6.809 -94.91,-7.629 -141.859,-2.84 -63.649,6.559 -133.274,24.301 -185.242,57.789 47.515,-0.801 96.304,-9.93 143.57,-6.309 19.887,1.528 52.156,4.528 74.008,11.27 43.418,13.328 68.332,18.531 114.312,31.348 39.512,10.992 79.344,14.8 120.606,19.152 57.105,6.109 109.992,4.73 157.552,-3.012" /><path
         id="path98"
         style="fill:#ffffff;fill-opacity:1;fill-rule:nonzero;stroke:none"
         d="m 1934.51,2293.68 c 23.88,-23.8 31.03,-32.57 44.94,-58.88 8.21,-15.47 18.62,-35.34 21.59,-60.93 -49.1,18.68 -89.08,56.78 -125.27,98.87 -26.77,31.2 -47.49,72.6 -73.87,103.42 46.48,-15.58 95.5,-45.52 132.61,-82.48" /><path
         id="path100"
         style="fill:#ffffff;fill-opacity:1;fill-rule:nonzero;stroke:none"
         d="m 2074.97,2226.77 c -18.51,31.24 -44.99,65.02 -72.44,88.05 12.84,-30.74 31.56,-69.04 33.76,-90.66 6.83,-67.74 20.74,-114.39 31.91,-175.79 -30.49,21.76 -62.71,55.95 -95.06,79.81 -24.94,18.37 -50.01,30.64 -75.7,48.3 -15.31,10.55 -25.26,24.09 -37.98,36.77 15.15,-63.84 71.17,-128.27 111.28,-158.31 50.37,-37.79 68.44,-43.81 149.38,-126.14 10.27,101.66 8.45,207.32 -45.15,297.97" /><path
         id="path102"
         style="fill:#ffffff;fill-opacity:1;fill-rule:nonzero;stroke:none"
         d="m 2240.16,1889.11 c -3.81,52.8 -10.08,95.02 -22.93,146.52 -8.99,35.97 -28.34,89.51 -56.29,111.47 3.45,-13.05 5.22,-32.6 6.56,-45.8 5.52,-54.39 -4.88,-117.57 -6.17,-171.9 -0.62,-26.71 -0.39,-47.31 3.58,-72.41 4.15,-26.33 0.72,-58.62 0.72,-58.62 0,0 -14.42,16.47 -27.33,36.99 -28.09,44.7 -37.11,57.97 -59.84,82.19 -28.11,30.05 -59.6,57.88 -95.14,82.52 4.34,-16.69 22.46,-49.16 29.96,-62.21 10.05,-17.45 14.53,-33.32 38.22,-72.85 33.3,-55.55 48.15,-63.04 85.1,-122.45 8.01,-12.92 40.9,-62.06 48.85,-77.08 17.34,35.86 23.86,67.19 45.12,125.56 13.39,36.68 11.38,73.37 9.59,98.07" /><path
         id="path104"
         style="fill:#ffffff;fill-opacity:1;fill-rule:nonzero;stroke:none"
         d="m 2291.58,1614.44 c 20.08,52.08 29.27,100.4 36.12,155.23 4.16,33.55 2.19,78.26 -9.75,110.52 -3.15,-7.87 -9.53,-27.87 -10.42,-30.86 -8.94,-29.96 -12.64,-44.35 -25.06,-73.25 -9.53,-22.16 -21.24,-39.83 -33.66,-61.73 -11.33,-19.99 -20.88,-46.31 -29.12,-66.45 -26.34,-64.57 -28.29,-125.02 -38.38,-131.62 -7.29,15.54 -9.54,30.42 -10.33,37.75 -7.85,71.45 -17.27,136.39 -107.23,220.6 -8.28,-25.07 -4.08,-71.28 0.84,-96.03 10.8,-54.12 19.53,-80.11 43.32,-132.56 12.6,-27.62 29.42,-68.27 34.06,-81.73 12.01,-35.07 16.17,-53.45 23.83,-74.19 42.44,70.78 94.73,143.87 125.78,224.32" /><path
         id="path106"
         style="fill:#ffffff;fill-opacity:1;fill-rule:nonzero;stroke:none"
         d="m 2221.56,1288.83 c 30.28,42.1 41.26,63.25 60.94,108.07 16.52,37.59 21.26,51.53 30.98,93.63 5.29,22.95 8.26,43.77 4.14,57.34 -23.62,-42.87 -39.87,-90.85 -70.83,-126.41 -24.54,-28.21 -48.24,-52.23 -67.79,-76.04 -29.96,-36.58 -53.64,-71.21 -82.38,-109.3 -2.4,19.09 -3.38,38.43 0.88,69.71 5.9,42.86 2.29,78 -5.2,119.5 -9.49,52.65 -16.44,78.71 -34.7,131.98 -22.33,-43.83 -22.27,-94.54 -27.88,-141.03 -10.86,-90.2 17.43,-197.76 22.98,-242.6 1.44,-11.81 -0.6,-40.96 -1.2,-52.32 42.2,33.23 79.75,66.79 116.14,103.29 16.59,16.54 39.29,43.95 53.92,64.18" /><path
         id="path108"
         style="fill:#ffffff;fill-opacity:1;fill-rule:nonzero;stroke:none"
         d="m 2061.59,958.051 c 19.19,13.84 70.83,53.299 95.27,84.349 35.6,45.21 43.45,64.58 66.93,116.59 2.83,6.34 16.17,35.78 17.25,55.78 -76.94,-92.91 -145.83,-106.74 -219.23,-183.84 -26.93,-28.24 -54.49,-54.828 -69.06,-68.16 -11.17,-10.282 -25.04,-13.391 -25.04,-13.391 0,0 1.43,19.801 8.66,33.582 48.98,93.589 58.23,191.439 50.76,296.449 -22.28,-27.67 -29.38,-46.15 -43.55,-72.91 -15.4,-29.15 -23.29,-47.17 -30.47,-65.11 -41.94,-104.29 -52.89,-224.749 -78.76,-285.37 79.97,26.921 142.88,41.312 227.24,102.031" /><path
         id="path110"
         style="fill:#ffffff;fill-opacity:1;fill-rule:nonzero;stroke:none"
         d="m 1733.85,711.949 c 21.66,-1.449 64,-1.32 86.62,2.36 114.39,18.312 220.69,101.211 274.19,192.273 -48.55,-29.594 -83.61,-49.34 -126.22,-64.113 -38.01,-13.117 -74.01,-17.008 -137.39,-35.02 -38.3,-10.808 -76.17,-26.117 -89.49,-31.097 -42.41,-15.801 -60.27,-11.922 -60.27,-11.922 0,0 0,6.449 15.84,23.73 31.58,34.461 43.16,42.699 69.1,69.192 8.56,8.75 28.11,38.48 38.02,58.25 28.07,55.878 31.2,100.668 56.86,162.058 -93.55,-54.94 -139.22,-130.75 -188.65,-226.32 -15.17,-29.27 -35.74,-63.078 -54.51,-81.66 -12.62,-12.469 -30.47,-31.418 -30.47,-31.418 0,0 13.05,-3.071 53.7,-9.071 18.2,-2.671 57,-14.761 92.67,-17.242" /><path
         id="path112"
         style="fill:#ffffff;fill-opacity:1;fill-rule:nonzero;stroke:none"
         d="m 1280.37,704.699 c -49.38,-8.078 -93.23,-20.078 -138.18,-35.488 -12.12,-4.152 -30.46,-13.281 -43.18,-19.731 -31.83,-16.199 -50.12,-26.718 -77.51,-45.531 -44.102,-30.347 -91.371,-63.051 -134.121,-112.668 -0.926,-0.98 -7.859,-8.359 -3.223,-11.961 8.387,-6.558 29.024,-15.898 35.817,-9.851 39.097,34.761 37.113,45.89 84.517,88.781 12.1,10.941 30.44,26.289 52.39,41.281 21.42,14.629 47.19,30.61 71.22,42.449 21.79,10.739 55.45,13.95 74.28,13.95 l -0.27,-0.141 c 8.59,0.332 57.83,0.609 69.27,-0.129 96.82,-6.64 92.06,-15.301 147.85,-30.422 45.94,-12.488 95.18,-21.379 144.08,-27.937 50.06,-6.809 94.91,-7.629 141.86,-2.84 63.66,6.559 133.26,24.301 185.2,57.789 -47.48,-0.801 -96.24,-9.93 -143.55,-6.309 -19.91,1.528 -52.13,4.528 -73.99,11.27 -43.42,13.328 -68.35,18.531 -114.29,31.348 -39.53,10.992 -79.36,14.8 -120.6,19.152 -57.13,6.109 -110.01,4.73 -157.57,-3.012" /><path
         id="path114"
         style="fill:#ffffff;fill-opacity:1;fill-rule:nonzero;stroke:none"
         d="m 1103.64,2833.16 -86.96,-322.87 h -92.305 l -57.738,210.33 -56.457,-210.33 h -92.082 l -86.95,322.87 h 86.903 l 49.531,-222.26 59.586,222.26 h 83.051 l 56.527,-222.26 52.004,222.26 h 84.89" /><path
         id="path116"
         style="fill:#ffffff;fill-opacity:1;fill-rule:nonzero;stroke:none"
         d="m 1390.51,2770.71 h -148.54 v -60.07 h 137.7 v -62.44 h -137.7 v -137.91 h -82.81 v 322.87 h 231.35 v -62.45" /><path
         id="path118"
         style="fill:#ffffff;fill-opacity:1;fill-rule:nonzero;stroke:none"
         d="m 1628.38,2729.39 c 0,9.09 -2.46,16.91 -7.36,23.47 -4.93,6.57 -10.63,11.14 -17.13,13.74 -8.68,3.47 -17.13,5.37 -25.37,5.74 -8.25,0.35 -19.24,0.54 -32.97,0.54 h -14.31 v -96.5 h 23.85 c 14.17,0 25.84,0.87 35.03,2.6 9.18,1.73 16.87,5.2 23.08,10.39 5.35,4.61 9.22,10.13 11.6,16.55 2.39,6.41 3.58,14.24 3.58,23.47 z m 86.09,1.86 c 0,-14.46 -2.54,-28.59 -7.59,-42.4 -5.06,-13.8 -12.29,-25.41 -21.68,-34.8 -12.88,-12.73 -27.22,-22.34 -43.05,-28.84 -15.82,-6.51 -35.53,-9.75 -59.08,-9.75 h -51.83 v -105.17 h -83.27 v 322.87 h 137.05 c 20.53,0 37.83,-1.77 51.92,-5.31 14.1,-3.55 26.58,-8.85 37.42,-15.94 13,-8.53 22.94,-19.44 29.81,-32.74 6.87,-13.3 10.3,-29.28 10.3,-47.92" /><path
         id="path120"
         style="fill:#ffffff;fill-opacity:1;fill-rule:nonzero;stroke:none"
         d="M 408.09,255.602 350.559,69.9297 h -63.18 L 249.547,195.09 212.172,69.9297 H 148.363 L 91.3281,255.602 h 62.4339 l 31.867,-127.973 39.609,127.973 h 52.742 l 37.665,-127.973 31.347,127.973 h 61.098" /><path
         id="path122"
         style="fill:#ffffff;fill-opacity:1;fill-rule:nonzero;stroke:none"
         d="m 563.992,283.539 h -4.445 c -2.645,0.77 -6.074,1.652 -10.309,2.641 -4.226,0.992 -8.765,1.492 -13.597,1.492 -11.653,0 -19.536,-2.09 -23.661,-6.281 -4.121,-4.192 -6.179,-12.301 -6.179,-24.309 v -1.48 h 45.797 V 215.25 H 507.781 V 69.9297 H 448.102 V 215.25 h -25.461 v 40.352 h 25.461 v 5.117 c 0,22.703 6.035,39.73 18.105,51.09 12.063,11.351 30.336,17.023 54.805,17.023 8.816,0 16.804,-0.301 23.968,-0.91 7.168,-0.602 13.5,-1.41 19.012,-2.391 v -41.992" /><path
         id="path124"
         style="fill:#ffffff;fill-opacity:1;fill-rule:nonzero;stroke:none"
         d="m 719.07,164.082 c 0,18.047 -3.078,31.148 -9.234,39.289 -6.16,8.141 -15.895,12.219 -29.195,12.219 -5.614,0 -11.387,-0.86 -17.321,-2.559 -5.941,-1.711 -11.601,-4.16 -16.992,-7.351 v -93.27 c 3.961,-1.539 8.192,-2.531 12.699,-2.969 4.512,-0.441 8.965,-0.66 13.368,-0.66 15.718,0 27.433,4.598 35.128,13.789 7.704,9.192 11.547,23.032 11.547,41.512 z m 61.34,1.238 c 0,-15.32 -2.344,-29.25 -7.012,-41.82 -4.687,-12.57 -10.82,-22.93 -18.418,-31.0898 -7.925,-8.5899 -16.898,-15.0899 -26.914,-19.5 -10.019,-4.4102 -20.754,-6.6094 -32.203,-6.6094 -10.566,0 -19.539,1.1211 -26.914,3.3906 -7.379,2.25 -14.918,5.418 -22.621,9.5 V 1.82031 H 586.645 V 255.602 h 59.683 V 236.25 c 9.137,7.281 18.469,13.172 27.988,17.691 9.524,4.52 20.504,6.778 32.946,6.778 23.113,0 41.082,-8.489 53.91,-25.469 12.812,-16.969 19.238,-40.281 19.238,-69.93" /><path
         id="path126"
         style="fill:#ffffff;fill-opacity:1;fill-rule:nonzero;stroke:none"
         d="m 825.535,69.9297 h 61.8359 v 64.9727 H 825.535 Z" /><path
         id="path128"
         style="fill:#ffffff;fill-opacity:1;fill-rule:nonzero;stroke:none"
         d="m 1062.29,117.551 c 3.85,4.738 6.74,10.441 8.68,17.109 1.92,6.672 2.89,15.899 2.89,27.692 0,10.91 -0.99,20.058 -2.97,27.449 -1.99,7.379 -4.75,13.281 -8.27,17.679 -3.53,4.52 -7.78,7.719 -12.73,9.59 -4.96,1.879 -10.31,2.809 -16.04,2.809 -5.73,0 -10.82,-0.77 -15.3,-2.309 -4.46,-1.539 -8.73,-4.629 -12.81,-9.261 -3.63,-4.297 -6.521,-10.188 -8.67,-17.688 -2.148,-7.492 -3.23,-16.922 -3.23,-28.269 0,-10.141 0.933,-18.93 2.808,-26.372 1.875,-7.441 4.632,-13.421 8.272,-17.941 3.53,-4.297 7.75,-7.43 12.65,-9.43 4.9,-1.98 10.5,-2.961 16.78,-2.961 5.4,0 10.55,0.903 15.45,2.723 4.91,1.82 9.07,4.879 12.49,9.18 z m 73.24,45.129 c 0,-30.532 -8.91,-54.578 -26.7,-72.1605 -17.8,-17.5898 -42.79,-26.3789 -74.98,-26.3789 -32.18,0 -57.178,8.7891 -74.971,26.3789 -17.805,17.5825 -26.699,41.6285 -26.699,72.1605 0,30.75 8.953,54.89 26.863,72.41 17.91,17.531 42.837,26.289 74.807,26.289 32.41,0 57.45,-8.82 75.14,-26.449 17.69,-17.629 26.54,-41.719 26.54,-72.25" /><path
         id="path130"
         style="fill:#ffffff;fill-opacity:1;fill-rule:nonzero;stroke:none"
         d="m 1312.76,198.891 h -5.28 c -2.53,0.879 -6.61,1.539 -12.21,1.98 -5.62,0.438 -10.28,0.66 -14.02,0.66 -8.47,0 -15.95,-0.551 -22.44,-1.652 -6.49,-1.098 -13.47,-2.969 -20.94,-5.617 V 69.9297 h -59.69 V 255.602 h 59.69 v -27.293 c 13.08,11.25 24.46,18.711 34.14,22.402 9.67,3.699 18.58,5.539 26.73,5.539 2.08,0 4.45,-0.051 7.09,-0.16 2.63,-0.11 4.95,-0.281 6.93,-0.488 v -56.711" /><path
         id="path132"
         style="fill:#ffffff;fill-opacity:1;fill-rule:nonzero;stroke:none"
         d="m 1467.33,128.461 v 84.148 c -3.41,1.43 -7.59,2.563 -12.53,3.391 -4.95,0.832 -9.4,1.238 -13.36,1.238 -15.62,0 -27.33,-4.496 -35.14,-13.476 -7.81,-8.981 -11.72,-21.512 -11.72,-37.61 0,-17.851 3.34,-30.312 9.99,-37.363 6.65,-7.059 16.52,-10.59 29.6,-10.59 5.94,0 11.77,0.942 17.5,2.821 5.71,1.871 10.93,4.351 15.66,7.441 z m 59.69,-37.1993 c 0,-17.4219 -2.48,-32.0703 -7.44,-43.9726 -4.97,-11.9102 -11.91,-21.2188 -20.83,-27.9375 C 1489.82,12.5117 1479.04,7.58203 1466.42,4.53906 1453.8,1.51172 1439.56,0 1423.69,0 c -12.89,0 -25.6,0.769531 -38.11,2.32031 -12.51,1.53907 -23.34,3.41016 -32.49,5.60938 V 54.3984 h 7.27 c 7.26,-2.8789 16.12,-5.4882 26.58,-7.8672 10.45,-2.3593 19.8,-3.539 28.06,-3.539 11,0 19.95,1.0078 26.83,3.0586 6.88,2.039 12.13,4.9297 15.76,8.668 3.41,3.5312 5.89,8.0429 7.43,13.5624 1.54,5.5079 2.31,12.1172 2.31,19.8399 v 3.4687 c -7.15,-5.8476 -15.08,-10.4804 -23.78,-13.8789 -8.69,-3.4218 -18.38,-5.1289 -29.05,-5.1289 -25.99,0 -46.02,7.8164 -60.11,23.4766 -14.09,15.6404 -21.13,39.4534 -21.13,71.4104 0,15.32 2.14,28.551 6.43,39.679 4.3,11.133 10.35,20.844 18.17,29.102 7.26,7.719 16.21,13.719 26.83,18.02 10.62,4.3 21.5,6.449 32.61,6.449 10.02,0 19.13,-1.188 27.33,-3.547 8.2,-2.371 15.66,-5.66 22.38,-9.84 l 2.15,8.27 h 57.86 V 91.2617" /><path
         id="path134"
         style="fill:#ffffff;fill-opacity:1;fill-rule:nonzero;stroke:none"
         d="M 1757.32,327.18 1626.21,16.3711 h -50.76 L 1706.03,327.18 h 51.29" /><path
         id="path136"
         style="fill:#ffffff;fill-opacity:1;fill-rule:nonzero;stroke:none"
         d="m 2013.74,69.9297 h -69.28 l -52.04,80.7303 -16.07,-19.781 V 69.9297 h -59.68 V 327.18 h 59.68 V 173.742 l 63.93,81.86 h 68.66 l -66.71,-80.02 71.51,-105.6523" /><path
         id="path138"
         style="fill:#ffffff;fill-opacity:1;fill-rule:nonzero;stroke:none"
         d="m 2160.38,117.551 c 3.85,4.738 6.74,10.441 8.68,17.109 1.92,6.672 2.89,15.899 2.89,27.692 0,10.91 -0.99,20.058 -2.97,27.449 -1.99,7.379 -4.75,13.281 -8.27,17.679 -3.53,4.52 -7.78,7.719 -12.73,9.59 -4.96,1.879 -10.31,2.809 -16.04,2.809 -5.73,0 -10.82,-0.77 -15.29,-2.309 -4.47,-1.539 -8.73,-4.629 -12.82,-9.261 -3.63,-4.297 -6.52,-10.188 -8.67,-17.688 -2.15,-7.492 -3.23,-16.922 -3.23,-28.269 0,-10.141 0.94,-18.93 2.81,-26.372 1.88,-7.441 4.63,-13.421 8.27,-17.941 3.53,-4.297 7.75,-7.43 12.65,-9.43 4.9,-1.98 10.5,-2.961 16.78,-2.961 5.4,0 10.55,0.903 15.46,2.723 4.9,1.82 9.06,4.879 12.48,9.18 z m 73.24,45.129 c 0,-30.532 -8.91,-54.578 -26.7,-72.1605 -17.8,-17.5898 -42.79,-26.3789 -74.98,-26.3789 -32.18,0 -57.18,8.7891 -74.97,26.3789 -17.8,17.5825 -26.7,41.6285 -26.7,72.1605 0,30.75 8.95,54.89 26.86,72.41 17.91,17.531 42.85,26.289 74.81,26.289 32.41,0 57.45,-8.82 75.14,-26.449 17.69,-17.629 26.54,-41.719 26.54,-72.25" /></g></g></svg>