<?xml version="1.0" encoding="UTF-8" standalone="no"?>
<svg
   xmlns:dc="http://purl.org/dc/elements/1.1/"
   xmlns:cc="http://creativecommons.org/ns#"
   xmlns:rdf="http://www.w3.org/1999/02/22-rdf-syntax-ns#"
   xmlns:svg="http://www.w3.org/2000/svg"
   xmlns="http://www.w3.org/2000/svg"
   viewBox="0 0 310.62668 377.94666"
   height="377.94666"
   width="310.62668"
   xml:space="preserve"
   id="svg2"
   version="1.1"><metadata
     id="metadata8"><rdf:RDF><cc:Work
         rdf:about=""><dc:format>image/svg+xml</dc:format><dc:type
           rdf:resource="http://purl.org/dc/dcmitype/StillImage" /></cc:Work></rdf:RDF></metadata><defs
     id="defs6"><clipPath
       id="clipPath20"
       clipPathUnits="userSpaceOnUse"><path
         id="path18"
         d="M 0,2834.64 V 0 h 2329.69 v 2834.64 z" /></clipPath></defs><g
     transform="matrix(1.3333333,0,0,-1.3333333,0,377.94667)"
     id="g10"><g
       transform="scale(0.1)"
       id="g12"><g
         id="g14"><g
           clip-path="url(#clipPath20)"
           id="g16"><path
             id="path22"
             style="fill:#ffffff;fill-opacity:1;fill-rule:nonzero;stroke:none"
             d="m 1340.5,2131.15 c 12.51,27.07 24.09,48.62 40.79,74.3 7.38,11.32 15.7,19.22 23.12,30.67 -3.55,1.02 -8.73,-1.91 -10.97,-3.5 -7.42,-5.38 -10.77,-14.12 -16.71,-18.8 -14.03,-11.07 -13.64,-21.11 -20.99,-26.27 -6.57,-4.64 -8.46,-7.69 -13.06,-14.91 -3.08,-4.82 -5.34,-8.73 -8.59,-18.23 -1.16,-3.42 -3.45,-0.39 -8.93,-7.93 -7.19,-9.8 -10.41,-20.39 -13.39,-32.26 -0.95,-3.9 -7.59,-5.97 -11.85,-14.07 -5.72,-10.92 -9.44,-21.03 -11.91,-36.95 -0.61,-3.69 -6.85,-6.25 -11.16,-16.53 -3.05,-7.23 -5.23,-8.83 -7.9,-22.46 -1.64,-8.3 -5.43,-9.5 -9.7,-21.56 -3.3,-9.2 -3.42,-18.06 -4.58,-30.08 -0.26,-2.33 -4.2,-6.95 -7.83,-13.69 -6.09,-11.26 -5.9,-18.78 -8.32,-30.41 -0.93,-4.2 -5.64,-9.77 -10.18,-27.79 -3.98,-15.98 -0.33,-26.58 -1.67,-34.45 -3.53,-20.45 -7.04,-38.21 -5.14,-58.35 0.94,-9.85 2.44,-20.01 1.78,-29.48 -1.88,-29.7 -3.48,-54.17 -3.32,-87.83 0.1,-18.32 1.54,-43.41 4.31,-64.29 3.05,-23.06 7.44,-41.07 7.44,-41.07 h 75.14 c 0,0 -2.94,43.45 0.96,89.19 2.3,27.42 8.83,56.48 14.75,76.89 7.51,26.03 12.18,39.51 26.38,73.85 0.29,0.76 -0.11,3.98 -3.86,0.83 -7.84,-6.58 -14.38,-12.37 -20.57,-21.69 -9.46,-14.25 -15.22,-25.99 -22.87,-40.63 -8.95,-17.02 -13.89,-31.84 -23.11,-52.52 -0.55,14.92 1.87,29.12 4.9,42.87 3.11,14.04 5.57,25.16 9.98,37.26 7.83,21.35 15.43,39.16 27.99,59.03 7.28,11.47 16.57,21.77 26.02,30.32 11.29,10.32 21.72,19.4 33.54,29.5 -12.41,6.4 -28.95,-6.97 -32.26,-7.65 -17.48,-3.41 -24.58,-19.61 -29.94,-21.82 -7.64,-3.2 -12.07,-7.89 -17.38,-14.34 -4.08,-4.84 -5.31,-12.32 -9.59,-14.98 -7.13,-4.44 -12.36,-11.14 -17.26,-20.5 -2.02,-3.86 -7.5,-22.13 -13.6,-19.78 10.42,61.92 32.29,120.01 67.38,171.69 22.25,32.78 46.45,60.89 82.12,86.11 4.7,3.34 5.62,4.89 -0.94,4.66 -33.34,-4.05 -35.38,-19.27 -40.87,-20.71 -5.21,-1.35 -11.65,-7.52 -15.77,-11.53 -7.42,-7.33 -7.29,-13.51 -10.13,-15.43 -6.08,-4.25 -10.67,-8.65 -14.82,-16.03 -2.18,-3.84 -5.85,-12.3 -9.11,-14.23 -8.56,-4.96 -16.85,-12.19 -20.98,-19.99 -3.06,-5.7 -4.27,-11.89 -8.26,-17.49 -4.26,-6.02 -10.23,-10.53 -15.36,-14.88 3.9,26.47 16.37,57.82 24.95,84.87 11.54,36.12 25.54,68.95 41.33,103.07" /><path
             id="path24"
             style="fill:#ffffff;fill-opacity:1;fill-rule:nonzero;stroke:none"
             d="m 1417.21,1916.65 c 28.45,63.85 58.37,111.9 97.27,168.11 5.08,7.36 9.64,14.58 14.08,21.49 1.99,3.11 11.55,16.85 13.54,19.76 13.04,19.69 18.52,25.72 31.87,44.53 3.61,5.11 6.54,9.13 8.09,15.04 2.84,11.01 -6.62,18.4 -8.79,28.96 -2.2,10.79 -1,22.57 3.95,31.68 3.11,5.69 6.19,7.93 9.32,15.57 6.06,14.73 3.96,46.6 10.87,47.44 -1.75,-15.13 -2.15,-32.13 0.22,-46.64 2.77,-16.93 13.04,-27.18 17.28,-45.11 11.42,2.06 23.83,1.57 33.44,0.74 9.55,-0.82 21.62,1.83 31.4,5.18 13.26,4.53 24.28,12.78 37.79,15.98 -11.49,-11.05 -27.72,-15.2 -41.32,-23.59 -5,-3.14 -9.71,-7.29 -13.05,-12.45 -5.47,-8.5 -9.79,-16.64 -18.34,-20.38 -15.2,-6.62 -28.24,-3.48 -45.58,-6.7 -25.76,-26.54 -50.01,-62.63 -72.38,-100.58 -56.73,-95.98 -104.03,-195.37 -131.53,-297.29 9.51,17.73 18.59,34.88 28.89,51.75 11.38,18.74 24.18,37.09 38.14,55.47 32.65,43.05 64.97,80.64 101.17,120.19 29.22,31.95 61.24,58.76 96.95,81.18 47.19,29.57 105.41,50.28 156.57,39.6 5.82,-1.36 14.14,-2.91 17.77,-6.74 -64.11,8.98 -121.54,-13.42 -164.4,-47.74 -33.85,-27.08 -62.39,-54.56 -91.38,-90.27 -14.98,-17.21 -28.46,-36.13 -41.84,-54.45 -14.01,-19.27 -26.44,-39.55 -38.77,-59.83 -41.54,-68.61 -72.99,-141.25 -96.11,-216.51 -0.66,-2.39 -0.81,-4.79 -1.47,-7.16 1.1,1.69 2.72,3.53 3.81,5.25 31.13,50.61 68.56,99.45 115.96,132.22 4.14,2.82 8.46,8.26 9.57,12.53 5.13,20.09 -10.19,29.75 11,57.52 4.86,6.38 11.5,8.71 16.09,14.64 8.67,13.4 15.74,37.41 23.01,43.86 -3.65,-15.63 -12.62,-32.15 -14.53,-48.26 -2.03,-17.68 2.49,-32.14 3.28,-50.88 12.52,-1.71 22.2,-7.01 32.03,-10.04 15.27,-4.77 24.45,-3.56 39.57,-2.25 6.44,0.54 18.14,4.31 25.1,2.89 -14.61,-7.98 -34.34,-6.51 -49.29,-14.14 -10.46,-5.36 -13.49,-13.27 -27.91,-16.05 -12.84,-2.5 -23.64,-1.16 -31.98,3.12 -6.5,3.27 -11.57,4.64 -17.4,1.85 -15.55,-7.47 -26.18,-18.02 -38.7,-30.65 -29.08,-29.26 -52.81,-61.92 -74.96,-104.75 -5.86,-11.39 -11.13,-22.64 -16.13,-34.25 -2.46,-5.65 -8.59,-21.34 -8.59,-21.34 h -75.98 c 0,0 -0.2,21.91 0.52,29.91 1.45,15.95 3.62,27.76 6.72,43.94 4.4,23.26 8.72,44.37 14.75,66.94 5.88,21.96 12.22,42.56 19.75,63.65 15.7,43.96 32.4,86.06 50.66,127.06" /><path
             id="path26"
             style="fill:#ffffff;fill-opacity:1;fill-rule:nonzero;stroke:none"
             d="m 682.555,1324.8 c 27.734,22.68 48.265,35.82 75.957,52.33 11.246,6.72 28.258,14.33 41.336,20.26 47.984,21.68 111.464,37.67 171.269,38.77 1.086,0 1.016,-0.05 1.016,-0.05 h 445.897 c 0,0 -1.66,0.05 1.56,0.05 14.19,0 28.23,-4.95 36.92,-13.14 8.7,-8.26 12.86,-20.98 15.14,-33.63 1.92,-10.78 0.97,-20.36 -1.54,-31.89 -1.96,-9.11 -3.43,-14.54 -8.5,-22.28 -3.07,-4.71 -5.98,-7.94 -11.68,-12.48 -5.86,-4.68 -14.16,-6.31 -23.68,-6.4 -0.99,-0.04 -3.12,-0.1 -3.04,-0.07 0.1,0.07 -521.565,0.07 -521.565,0.07 0,0 -3.243,0.01 -4.872,0.01 -34.144,0.11 -70.093,-1.63 -103.835,-6.03 -25.844,-3.53 -51.743,-7.56 -76.723,-14.06 -31.504,-8.23 -61.836,-19.62 -92.117,-30.91 16.785,22.31 36.16,41.24 58.457,59.45" /><path
             id="path28"
             style="fill:#ffffff;fill-opacity:1;fill-rule:nonzero;stroke:none"
             d="m 837.387,1502.21 c 27.398,19.79 60.66,36.04 90.125,47.32 14.949,5.66 34.812,11.93 50.593,15.86 19.063,4.81 40.965,8.42 58.835,8.94 5.38,0.15 0.79,0.04 0.79,0.04 l 382.45,0.04 c 0,0 8.19,-0.44 11.04,-1 7.18,-1.55 12.98,-4.48 15.39,-6.01 5.93,-3.81 13.39,-11.81 17.29,-18.14 9.93,-16.35 11.68,-34 8.47,-52.37 -3.67,-20.97 -19.61,-44.86 -41.23,-45.45 -3.77,-0.1 -11.28,0 -11.28,0 h -414.23 c 0,0 -24.11,-0.47 -35.122,-0.87 -20.375,-0.8 -42.965,-3.12 -60.75,-5.74 -15.215,-2.19 -30.078,-5.07 -45.317,-9.15 -51.066,-13.8 -95.441,-39.7 -141.851,-59.84 31.254,54.63 73.539,96.48 114.797,126.37" /><path
             id="path30"
             style="fill:#ffffff;fill-opacity:1;fill-rule:nonzero;stroke:none"
             d="m 623.438,1242.28 c 66.488,39.28 146.582,54.77 219.886,57.23 1.742,0.08 5.223,0.19 5.223,0.19 l 571.733,-0.05 c 0,0 1.03,0 6.21,0.05 34.65,0.03 47.3,-34.35 47.15,-62.15 -0.07,-9.16 -1.62,-18.5 -4.16,-24.77 -3.29,-8.19 -6.94,-14.88 -12.89,-21.34 -2.13,-2.34 -9.79,-7.72 -13.18,-8.55 -7.92,-1.94 -17.66,-1.72 -17.6,-1.72 0.07,0 -425.27,-0.08 -425.27,0 0,0 -22.946,0.92 -38.868,2.45 -11.473,1.13 -20.18,2.33 -32.094,4.6 -29.285,5.82 -53.562,15.35 -78.926,23.17 -16.918,5.24 -34.714,9.13 -53.273,11.94 -34.137,5.22 -71.418,7.6 -105.891,4.99 -43.847,-3.26 -82.843,-11.85 -124.554,-25.08 7.054,10.99 36.371,27.12 56.504,39.04" /><path
             id="path32"
             style="fill:#ffffff;fill-opacity:1;fill-rule:nonzero;stroke:none"
             d="m 931.395,1063 c -19.543,6.89 -38.614,15.78 -55.719,27.07 -22.285,14.75 -33.211,26.48 -62.008,39.79 -24.648,11.39 -44.328,22.63 -78.691,35.08 -16.582,6.01 -43.446,14.28 -66.481,18.22 -32.906,5.59 -64.633,8.04 -64.633,8.04 0,0 6.719,4.19 10.77,5.43 33.586,10.22 63.25,15.21 97.738,17.76 30.246,2.27 58.035,-0.68 88.356,-5.42 12.441,-1.96 28.613,-5.79 42.668,-9.8 45.636,-12.99 97.523,-33.59 143.546,-33.67 2.571,0 2.278,0.04 2.278,0.04 h 425.011 c 0,0 -3.21,0 1.3,0 12.87,0.04 36.94,-4.13 46.6,-21.21 11.2,-19.68 14.68,-43.12 5.28,-66.6 -2.85,-7.05 -7.58,-17.16 -14.38,-23.28 -5.96,-5.4 -15.66,-8.87 -21.27,-8.87 -1.62,-0.08 -4.39,0 -4.39,0 h -371.7 c 0,0 1.41,0 -2.02,0 -38.01,0 -85.853,4.6 -122.255,17.42" /><path
             id="path34"
             style="fill:#ffffff;fill-opacity:1;fill-rule:nonzero;stroke:none"
             d="m 1100.71,931.16 c -10.51,10.789 -25.01,27.328 -38.15,43.039 -25.22,30.071 -36.52,57.161 -36.52,57.161 h 247.91 c 0,0 0.66,-28.6 -5.07,-61.719 -5.36,-30.75 -16.72,-63.172 -28.8,-86.661 -0.44,-24.082 9.73,-46.468 11.4,-70.261 -20.36,-12.5 -42.27,-24.867 -60.52,-42.418 -1.16,-1.082 -3.04,-1.082 -3.82,1.828 -9.77,36.66 -14.92,69.34 -22.94,105.59 -22.6,17.472 -43.8,33.043 -63.49,53.441" /><path
             id="path36"
             style="fill:#ffffff;fill-opacity:1;fill-rule:nonzero;stroke:none"
             d="m 1356.21,951.488 c -7.02,12.953 -12.25,30.051 -20.3,40.223 -1.73,-9.07 0.4,-14.652 -0.83,-23.332 -1.13,-7.27 -7.09,-4.25 -8.3,-0.828 -3.47,9.84 -7.17,21.988 -10.35,32.078 -5.28,16.801 -6.97,31.681 -6.97,31.681 l 41.24,0.05 c 0,0 1.58,-0.39 2.31,-4.4 1.98,-10.39 1.49,-20.54 4.34,-32.581 3.65,-15.508 8.37,-29.668 14.06,-44.129 4.96,-12.73 11.36,-25.57 16.55,-38.211 0.71,-1.66 1.05,-4.859 -0.2,-6.519 -1.53,-1.918 -4.16,-1.68 -5.68,0 -11.8,13.429 -16.57,28.64 -25.87,45.968" /><path
             id="path38"
             style="fill:#ffffff;fill-opacity:1;fill-rule:nonzero;stroke:none"
             d="m 1420.04,922.012 c -7.01,14.949 -16.87,31.758 -16.01,48.718 4.56,-5.992 6.43,-10.281 12.71,-13.621 2.87,-0.91 8.9,-0.058 7.39,4.961 -2.78,9.34 -7.08,17.25 -11.07,30.071 -5.92,18.949 -11.67,39.199 -11.67,39.199 l -42.1,0.02 c 0,0 2.34,-17.08 11.91,-43.29 8.4,-23.211 21.39,-49.769 35.61,-74.672 11.59,-20.476 22.11,-38.347 35.26,-53.308 4.5,-5.149 15.53,-0.629 10.76,6.07 -12.47,17.641 -24.11,37.168 -32.79,55.852" /><path
             id="path40"
             style="fill:#ffffff;fill-opacity:1;fill-rule:nonzero;stroke:none"
             d="m 1693.4,2344.89 c -9.14,-3.98 -17.2,-9.13 -21.76,-17.91 -3.32,-6.3 -5.56,-15.92 0.79,-21.34 11.11,-9.48 24.37,0.23 29.74,9.92 6.79,12.35 5.02,35.96 5.02,35.96 0,0 -7.89,-4.11 -13.79,-6.63" /><path
             id="path42"
             style="fill:#ffffff;fill-opacity:1;fill-rule:nonzero;stroke:none"
             d="m 1703.06,2285.95 c 4,7.54 12.75,15.68 22.34,21.51 10.84,6.63 22.07,13.06 29.88,17.72 7.8,4.7 9.3,7.99 9.3,7.99 0,0 -6.44,-2.22 -9.97,-4.29 -19.27,-11.5 -40.31,-24.56 -48.86,-28.33 -10.8,-4.71 -25.47,-5.62 -38.7,-7.31 -2.11,16.69 -6.45,23.62 -6.39,38.44 0.11,7.12 1.83,16.34 3.04,22.77 4.14,21.43 4.95,32.25 4.95,32.25 0,0 -3.27,-3.05 -4.47,-12.49 -1.34,-8.51 -2.3,-11.66 -4.25,-21.73 -2.23,-11.62 -4.55,-21.47 -11.51,-28.73 -10.02,-10.36 -19.29,-28.82 -11.56,-42.96 4.51,-8.26 12.04,-7.06 14.4,-9.19 2.36,-2.12 3.79,-7.21 10.92,-9.57 15.39,-5.14 32.83,8.67 40.88,23.92" /><path
             id="path44"
             style="fill:#ffffff;fill-opacity:1;fill-rule:nonzero;stroke:none"
             d="m 1683.11,2241.88 c 5.22,8.48 10.59,14.43 18.82,19.48 13.66,8.33 23.8,13.97 32.13,18.24 3.61,1.81 6.63,3.97 7.55,7.83 -3.73,-1.4 -17.84,-8.03 -31.84,-16.36 -10.03,-5.98 -27.27,-13.46 -38.85,-13.99 -4.59,-0.2 -7.99,0.93 -11.74,1.04 -7.77,0.33 -17.66,-1.55 -17.66,-1.55 0,0 -2.51,10.98 -5.83,18.89 -1.66,4.06 -4.36,8.22 -5.8,15.83 -0.98,5.08 -1.26,12.71 -0.86,17.25 1.13,13.73 4.83,27.07 4.2,40.97 -8.64,-17.93 -5.11,-40.01 -15.24,-53.88 -4.27,-5.83 -7.65,-10.43 -11.01,-17.78 -5.57,-12.06 -4.9,-24.55 2.61,-36.18 4.34,-6.62 13.91,-6.38 15.56,-7.67 2.51,-1.85 4.66,-8.78 14.02,-10.86 16.01,-3.6 34.9,3.82 43.94,18.74" /><path
             id="path46"
             style="fill:#ffffff;fill-opacity:1;fill-rule:nonzero;stroke:none"
             d="m 1687.58,1891.29 c 3.73,7.53 6.14,17.42 10.89,24.41 -10.75,-1.61 -12.49,-2.84 -28.04,-4.55 -3.38,-0.32 -10.4,-3.84 -12.71,-6.15 -6.15,-6.21 -11.52,-11.96 -9.13,-22.38 0.92,-4.05 4.49,-7.02 6.48,-7.65 12.93,-4.2 26.06,3.49 32.51,16.32" /><path
             id="path48"
             style="fill:#ffffff;fill-opacity:1;fill-rule:nonzero;stroke:none"
             d="m 1700.71,1870.77 c 14.69,3.43 31.66,10.64 38.47,8.37 -13.78,-7.33 -31.17,-10 -46.44,-14.35 -11.65,-3.36 -19.97,-12.16 -30.37,-20.15 -9.55,-7.26 -22.25,-10.22 -33.6,-4.88 -3.82,1.82 -7.53,7.99 -8.2,11.28 -0.59,2.63 -6.07,5.26 -8.89,7.58 -2.83,2.36 -4.19,8.25 -4.25,10.52 -0.49,20.34 14.98,28.55 29.89,40.5 11.23,8.99 25.8,47.16 34.7,55.07 -1.59,-12.3 -17.58,-35.51 -24.55,-53.58 -5.53,-14.39 -3.72,-25.9 -7.29,-41.04 10.66,-0.68 22.55,-2.91 33.28,-3.09 8.42,-0.11 18.6,1.72 27.25,3.77" /><path
             id="path50"
             style="fill:#ffffff;fill-opacity:1;fill-rule:nonzero;stroke:none"
             d="m 1685.23,1839.42 c -8.25,-1.53 -18.35,-4.13 -25.23,-5.59 -23.96,-5.07 -35.41,6.66 -54.53,6.44 1.68,21.91 -5.92,31.71 0.34,45.87 5.58,12.6 10.76,25.94 15.55,36.61 3.9,8.57 5.07,15.8 5.07,15.8 0,0 -5.8,-8.69 -22.31,-40.86 -5.75,-11.23 -16.03,-13.63 -25.15,-24.23 -10.52,-12.12 -16.54,-37.75 2.89,-48.51 3.87,-2.12 3.3,-8.78 6.11,-11.47 12.98,-12.21 39.19,-10.98 55.59,3.9 13.05,11.89 28.91,13.82 42.42,17.32 7.9,2.04 14.84,5.41 14.84,5.41 0,0 -3.75,1.52 -15.59,-0.69" /><path
             id="path52"
             style="fill:#ffffff;fill-opacity:1;fill-rule:nonzero;stroke:none"
             d="m 1205.23,1585.17 c -0.95,0 -1.96,0 0,0 z m -111.89,315.55 c -7.98,-10.56 -11.68,-22.7 -20.5,-31.92 -4.6,-4.83 -11.62,-2.57 -15.27,2.99 -4.04,6.29 -10.59,15.18 -5.72,21.39 8,10.27 24.75,16.82 39,14.96 0.84,-0.09 5.43,-3.48 2.49,-7.42 z M 1055,1840.33 c -4.47,-11.96 -17.8,-13.26 -29.14,-15.62 -2.12,-0.46 -8.64,0 -11.57,2.87 -4.9,4.79 -9.14,11.34 -8.29,19.54 0.46,5.06 4.68,10.02 9.9,12.03 9.47,3.67 20.7,9.57 30.03,4.33 8.03,-4.48 12.24,-14.72 9.07,-23.15 z m -24.55,-63.22 c -3.26,-4.71 -11.64,10.95 -12.73,18.12 -3.13,20.77 15.07,26.07 30.24,25.43 0.47,-12.39 -9.13,-31.57 -17.51,-43.55 z m -16.38,-56.03 c -2.98,-8.35 -4.41,-16.04 -7.73,-23.69 -3.22,-7.4 -16.969,-10.04 -24.602,-7.67 -10.894,3.37 -20.238,27.83 -7.855,37.2 9.476,7.08 19.293,8.22 31.357,9.7 2.17,0.26 10.28,-0.23 10.59,-0.99 2.03,-5.07 0.75,-7.61 -1.76,-14.55 z m -18.34,-64.59 c -2.207,-6.42 -3.179,-13.02 -6.019,-19.19 -1.418,-3.13 -3.285,0.98 -3.359,1.19 -4.282,10.64 -6.981,19.65 -3.332,29.02 2.062,5.19 9.164,9.96 15.902,10.38 -0.414,-6.67 -0.891,-14.9 -3.192,-21.4 z M 974.082,1625 c -4.922,2.22 -4.848,8.55 -6.91,12.48 -1.942,3.84 -6.133,9.13 -4.406,14.17 9.496,-5.33 13.898,-14.83 11.316,-26.65 z m -16.387,39.31 c -11.332,9.32 -12.312,24.22 -19.863,35.62 8.336,5.33 22.387,4.26 26.711,-6.29 3.453,-8.48 5.965,-20.94 -2.633,-27.41 -0.933,-0.69 -3.14,-2.81 -4.215,-1.92 z m -42.246,76.85 c -1.699,2.43 -5.062,9.43 -2.5,10.32 20.281,6.98 35.496,7.21 39.832,-14.49 3.071,-15.48 -7.508,-28.77 -22.332,-23.36 -4.25,1.58 -8.461,18.07 -15,27.53 z m -29.496,48.99 c -1.422,1.79 -2.578,7.18 -0.808,8.56 10.546,8.48 26.031,9.13 38.019,7.96 15.813,-1.44 19.059,-16.14 16.422,-28.32 -3.481,-16.04 -27.805,-18.04 -34.691,-15.37 -6.77,2.6 -11.493,17.94 -18.942,27.17 z m 3.442,57.03 c 13.664,8.86 39.785,15.43 44.14,-8.56 1.32,-7.23 -0.484,-16.83 -10.25,-19.97 -10.031,-3.22 -21.847,-6.69 -31.012,-2.97 -11.273,4.61 -13.488,24.65 -2.878,31.5 z m -14.165,40.36 c 1.032,4.6 6.133,6.78 10.418,7.88 11.063,2.72 23.43,6.85 33.582,0.38 3.958,-2.5 4.262,-6.04 4.778,-11.02 0.898,-8.07 -0.246,-14.66 -5.563,-17.74 -10.773,-6.32 -21.734,-6.89 -34.257,-4.43 -10.157,2.01 -10.985,15.47 -8.958,24.93 z m -11.335,-62.21 c -9.469,7.01 -13.657,16.91 -20.637,26.72 -1.688,2.4 0,3.39 1.293,3.76 16.804,4.75 29.277,-3.63 26.66,-21.96 -0.469,-3.56 -2.781,-11.85 -7.316,-8.52 z m -46.383,56.61 c -6.301,5.45 -1.922,14.92 3.566,17.68 9.61,4.77 24.707,5.49 34.703,2.12 6.43,-2.16 9.684,-11.39 8.531,-21.47 -0.484,-4.12 -1.746,-8.67 -3.765,-10.01 -7.613,-5.19 -19.391,-5.4 -28.649,-3.47 -6.55,1.39 -8.886,10.35 -14.386,15.15 z m -7.262,57.25 c 6.09,13.25 28.305,13.36 40.402,7.46 9.856,-4.85 11.094,-23.19 0.332,-30.42 -8.586,-5.72 -22.113,-3.62 -31.218,-1.95 -12.934,2.38 -13.965,15.1 -9.516,24.91 z m 0.492,49.61 c 9.231,8.77 21.188,4.75 32.305,3.21 2.152,-0.31 4.719,-1.82 6.176,-3.27 7.589,-7.67 8.187,-20.24 -0.262,-26.53 -9.75,-7.25 -21.926,-2.53 -33.645,-1.94 -3.164,0.12 -6.644,3.84 -7.367,6.22 -2.109,7.42 -3.387,16.49 2.793,22.31 z m 5.946,41.49 c 9.8,4.09 26.636,5.97 33.578,-5.03 4.261,-6.74 3.019,-19.22 -3.817,-21.03 -6.691,-1.73 -29.457,-5.51 -34.906,7.07 -2.699,6.2 -1.559,16.17 5.145,18.99 z m 30.164,35.25 c 2.836,-1.25 4.601,-3.52 5.273,-7 1.395,-7.55 -0.594,-15.75 -7.84,-17.08 -10.89,-1.98 -27.058,-2.61 -27,12.78 0.039,17.17 16.957,16.98 29.567,11.3 z m -21.918,31.93 c 5.793,2.21 15.332,1.72 20.531,-0.99 2.625,-1.37 6.152,-5.68 4.668,-10.22 -1.848,-5.93 -7.363,-8.07 -13.629,-8.15 -6.02,-0.05 -12.926,0.43 -15.356,5.34 -2.308,4.66 -1.328,12.04 3.786,14.02 z m 6.765,25.74 c 5.297,1.93 13.129,1.8 16.985,-2.38 5.3,-5.79 1.117,-15 -8.887,-14.54 -3.524,0.15 -7.695,1.36 -9.824,2.57 -5.172,2.92 -3.457,12.5 1.726,14.35 z m 23.813,16.59 c 0.679,2.23 4.16,4.84 5.98,5.49 3.973,1.41 8.629,1.7 12.43,0.19 7.601,-3.13 6.558,-12.53 -1.559,-15.83 -3.633,-1.47 -9.215,-2.43 -11.953,-1.47 -5.113,1.73 -6.531,6.17 -4.898,11.62 z m 23.683,-36.76 c -8.293,-2.43 -19.847,-2.9 -22.324,5.6 -4.203,14.42 14.004,16.58 23.445,13.56 6.516,-2.07 8.817,-16.31 -1.121,-19.16 z m 5.489,47.62 c 2.628,8.94 12.757,13.79 21.933,11.06 7.887,-2.31 9.707,-13.06 4.379,-18.29 -2.41,-2.34 -6.406,-4.73 -10.703,-5.68 -9.387,-2.1 -18.605,3.07 -15.609,12.91 z m 41.254,-32.79 c -1.485,-5.83 -5.766,-9.83 -12.618,-11.35 -6.804,-1.5 -16.215,-1.92 -19.984,2.28 -3.602,3.99 -5.254,9.59 -2.25,13.88 6.019,8.56 17.043,11.55 26.867,9.38 5.606,-1.31 9.727,-7.05 7.985,-14.19 z m -3.665,34.31 c 3.665,8.11 12.957,12.19 21.883,9.47 1.785,-0.58 5.469,-3.45 5.977,-6.29 1.058,-5.64 -0.899,-10.79 -5.606,-13.74 -6.035,-3.85 -11.019,-6.01 -17.949,-3.17 -5.207,2.18 -6.476,8.94 -4.305,13.73 z m 38.442,-22.78 c 4.074,-6.9 -2.129,-13.83 -5.281,-15.73 -6.989,-4.09 -16.84,-6.6 -21.047,0.33 -4.145,6.79 -0.715,14.86 6.508,17.84 6.894,2.86 14.031,7.2 19.82,-2.44 z m 11.586,-26.36 c 4.562,-3.78 8.566,-11.7 3.097,-17.97 -5.132,-5.91 -11.515,-7.68 -19.586,-8.98 -5.46,-0.93 -12.437,3.11 -13.324,7.93 -0.808,4.15 -1.57,11.72 2.547,15.21 8.024,6.83 18.777,10.79 27.266,3.81 z m 9.672,44.98 c 4.312,-1.28 7.066,-5.84 4.906,-10.23 -1.313,-2.7 -5.184,-5.65 -7.649,-7.15 -6.765,-4.18 -12.57,-2.46 -14.687,2.51 -3.898,9.15 9.207,17.29 17.43,14.87 z m 16.504,-22.8 c 4.753,-0.42 6.933,-3.73 7.863,-7.36 1.23,-4.87 -0.37,-9.38 -4.48,-12.14 -4.895,-3.25 -10.993,-5.17 -15.868,-5.24 -6.594,-0.12 -12.699,9.56 -9.129,15.84 3.785,6.74 13.309,9.62 21.614,8.9 z m 27.283,-34.89 c 2.8,-8.28 -3.27,-12.14 -9.66,-15.54 -6.51,-3.47 -15.23,-6.71 -19.745,-2.39 -5.765,5.43 -8.332,14.58 -1.902,20.6 8.917,8.36 25.407,14.65 31.307,-2.67 z m 11.77,-20.77 c 10.46,-1.33 12.54,-16.2 10.43,-21.58 -2.39,-4.62 -7.66,-8.24 -10.43,-9.66 -7.67,-3.95 -16.64,-5.45 -23.69,-1.8 -6.43,3.34 -9.21,13.09 -5.72,20.73 4.73,10.34 19.63,13.6 29.41,12.31 z m 21.52,-46.04 c 3.58,-5 2.8,-13.88 0.67,-16.66 -6.59,-9.01 -24.96,-14.16 -32.53,-10.47 -5.76,2.82 -11.44,15.5 -4.7,23.11 7.01,7.9 19.22,12.61 30.31,10.3 2.46,-0.55 4.09,-3.27 6.25,-6.28 z m 4.64,-28.37 c 5.04,-0.54 9.51,-6.08 11.94,-12.11 3.16,-7.8 -0.03,-16.89 -2.53,-18.59 -6.02,-4.09 -25.08,-15.57 -37.08,-8.69 -6.6,3.79 -8.42,12.44 -8.83,17.55 -1.33,16.51 23.72,23.27 36.5,21.84 z m -70.393,-118.09 c -2.567,6.55 -4.942,16.24 0.203,20.22 10.39,8.2 33.89,15.37 42.83,2.97 5.81,-8.05 4.11,-21.7 -6.07,-26.92 -10.5,-5.37 -31.037,-11.54 -36.963,3.73 z m -50.41,-0.72 c 10.429,5.3 25.457,11.7 36.687,4.46 5.137,-3.29 10.442,-16.96 6.817,-23.02 -7.7,-12.87 -27.961,-16.15 -40.844,-12.84 -10.969,2.85 -14.274,25.53 -2.66,31.4 z m -9.379,44.49 c 12.586,8.85 37.437,14.57 43.422,-4.78 1.554,-5.01 2.441,-10.56 -0.121,-14.61 -6.973,-11.21 -24.661,-14.16 -36.497,-12.49 -12.8,1.85 -18.847,23.43 -6.804,31.88 z m -10.594,45.08 c 12.09,6.85 37.856,15.96 43.926,-3.68 2.43,-8.03 2.183,-17.94 -4.695,-21.49 -9.848,-5.16 -25.457,-10.58 -36.809,-3.5 -9.481,6 -10.762,23.89 -2.422,28.67 z m 67.676,81.02 c -5.063,-4.52 -10.203,-5.49 -16.942,-7.78 -9.437,-3.2 -19.312,4.07 -20.402,13.1 -1.816,15.46 14.75,17.76 25.707,19.69 7.988,1.45 12.938,-5.73 14.41,-10.56 1.504,-4.64 1.309,-10.86 -2.773,-14.45 z m 20.31,-36.37 c -7.19,-10.71 -36.166,-17.45 -42.556,-6.43 -4.668,8.07 -7.574,19.39 1.203,24.8 9.215,5.66 20.137,9.05 30.863,7.12 10.08,-1.78 15.21,-18.36 10.49,-25.49 z m 15.44,-66.33 c 4.13,-6.56 7.01,-15.37 0.89,-23.52 -5.56,-7.45 -25.37,-10.94 -35.519,-8.48 -5.566,1.4 -8.199,8.16 -9.051,12.73 -1.176,6.17 -1.73,12.38 3.731,17.41 7.851,7.2 18.339,7.04 28.409,7.04 4.14,0 9.99,-2.68 11.54,-5.18 z m -5.75,22.26 c -6.18,-11.34 -27.09,-12.8 -36.492,-11.55 -6.625,0.89 -11.289,11.57 -11.094,20.51 0.066,4.6 1.5,7.64 4.641,9.33 10.445,5.6 21.132,9.35 32.375,7.53 10.96,-1.74 15.22,-17.22 10.57,-25.82 z m -110.078,24.42 c -7.106,21.89 20.226,28.79 36.176,25.41 11.105,-2.31 14.812,-23.65 4.48,-30.39 -12.785,-8.31 -35.477,-10.99 -40.656,4.98 z m -41.211,-53.73 c 8.187,8.45 22.972,8.98 34.511,7.43 7.086,-0.99 10.141,-8.15 11.126,-15.92 2.761,-21.38 -25.938,-24.98 -39.594,-19.98 -9,3.29 -13.684,20.58 -6.043,28.47 z m -5.778,41.43 c 8.563,10.07 22.879,12.46 34.735,9.2 7.238,-1.97 10.59,-10.43 10.426,-19.91 -0.137,-5.38 -3.829,-9.29 -7.141,-10.65 -8.43,-3.42 -18.168,-5.96 -27.367,-4.84 -11.344,1.39 -18.219,17.27 -10.653,26.2 z m 1.36,45.1 c 10.527,4.29 30.144,8.14 33.453,-6.9 4.457,-20.02 -19.172,-23.28 -31.797,-19.8 -9.668,2.65 -11.504,22.72 -1.656,26.7 z m 75.726,33.09 c 7.871,-4.47 9.524,-17.08 4.735,-24.39 -6.367,-9.67 -28.137,-15.27 -39.848,-6.81 -6.68,4.85 -10.277,24.72 3.41,29.49 10.934,3.83 21.414,7.54 31.703,1.71 z m -11.156,14.38 c -8.93,-5.52 -21.656,-7.72 -30.098,-3.02 -7.343,4.02 -7.058,14.75 -3.417,20.52 5.98,9.62 20.855,10.66 31.132,7.64 8.864,-2.56 12.184,-19.04 2.383,-25.14 z m -72.281,15.68 c 0.902,2.86 2.176,3.68 3.949,4.55 7.508,3.58 15.75,4.54 22.938,-0.07 5.179,-3.36 4.726,-11.11 0.886,-15.12 -5.621,-5.91 -17.047,-6.15 -24.359,-2.31 -4.727,2.47 -4.945,8.29 -3.414,12.95 z m 2.398,-31.34 c 3.321,9.48 15.149,8.95 24.106,7.79 11.019,-1.44 13.226,-15.56 9.312,-21.5 -5.41,-8.2 -17.758,-6.63 -27.582,-5.38 -7.996,1.02 -8.468,11.61 -5.836,19.09 z m 155.51,-285.21 c 2.71,-10.71 0,-20.89 -9.53,-24.3 -12.253,-4.32 -28.816,-10.65 -38.609,-4.05 -11.199,7.51 -16.589,28.81 -3.722,37.16 15.199,9.94 45.441,16.45 51.861,-8.81 z m -16.51,33.3 c -8.234,-9.35 -21.668,-9.04 -34.855,-12.91 -5.094,-1.47 -11.133,3.02 -13.781,7.68 -4.875,8.7 -9.758,20.36 -0.418,28.77 7.734,7.05 18.281,6.45 27.754,9.28 4.25,1.28 9.46,2.77 14.621,-0.72 10.679,-7.29 14.839,-22.91 6.679,-32.1 z m 87.3,140.15 c 2.33,-6.81 5.45,-11.8 2.8,-18.58 -3.14,-8.33 -11.21,-9.47 -18.79,-12.21 -7.07,-2.56 -18.86,-5.79 -24.78,0.4 -6.81,7.04 -9.55,21.39 -1.41,27.54 10.56,7.86 36.6,18.71 42.18,2.85 z m 143.3,61.18 c 6.23,25.39 13.96,51.14 15.89,77.97 2.85,40.07 -5.8,81.73 -31.5,112.08 2.53,-13.09 5.88,-24.14 7.64,-37.88 2.09,-16.59 -0.26,-35.07 -4.53,-51.77 -3.25,-12.64 -8.94,-24.93 -14.59,-36.67 -6.67,-13.91 -16.64,-29.04 -26.55,-41.45 -27.81,-34.58 -71.14,-102.07 -71.14,-102.07 0,0 -3.64,0.26 -5.79,0.26 -0.51,8.41 19.44,37.22 29.51,53.35 22.09,35.35 38.82,54.37 58.04,85.03 12.04,19.32 21.23,42.84 24.19,64.16 5.98,43.43 -17.43,95.48 -51.1,112.79 7.69,-32.44 6.89,-78.17 -10.38,-97.4 -32.69,-36.43 -52.13,-63.69 -75.46,-110.39 -0.66,-1.25 -6.12,6.3 -10.63,9.23 -5.07,3.36 -2.23,13.37 -4.05,20.11 -1.64,5.73 -4.34,10.15 -5.14,11.15 -6.9,8.46 -13.58,8.99 -15.03,11.53 -1.68,2.86 -0.87,10 -6.9,18.13 -3,4.1 -10.67,7.13 -13.79,10.97 -3.38,4.2 -4.91,17.05 -14.22,22.32 -4.417,2.48 -6.472,10.19 -10.714,13.97 -13.086,11.59 -26.149,9.35 -28.653,10.08 -3.367,0.9 -9.937,9.27 -21.636,11.28 -11.438,1.95 -17.731,-5.68 -23.668,-2.92 -14.891,6.89 -29.157,7.46 -44.981,-10.18 -4.75,-5.25 -12.965,-0.34 -23.211,-8.18 -9,-6.86 -9.168,-13.2 -13.75,-14.06 -8.609,-1.62 -15.031,-8.51 -18.351,-16.03 -1.723,-3.87 -3.016,-11.7 -4.024,-16.86 -1.41,-7.13 -5.011,-13.69 -5.082,-18.93 -0.082,-7.28 2.215,-11.21 1.575,-14.47 -1.063,-4.71 -4.879,-9.04 -5.344,-13.44 -0.348,-2.5 -0.559,-9.16 1.261,-12.91 2.29,-4.62 -1.609,-8.63 -3.632,-13.56 -1.938,-4.58 -3.973,-12.42 -3.352,-17.95 0.82,-7.59 5.164,-10.37 1.785,-16.35 -5.535,-9.72 -12.531,-24.88 -0.265,-44.25 2.254,-3.54 -5.137,-10.43 -5.551,-20.54 -0.473,-11 6.172,-19.13 7.984,-24 0.344,-1.75 -2.922,-1.65 -3.039,-3.53 -29.222,30.9 -55.062,59.39 -88.949,86.22 -20.703,16.36 -41.176,30.12 -64.113,42.4 -61.289,32.87 -132.492,54.86 -196.992,46.82 24.289,-19.55 54.941,-33.5 79.89,-55.71 23.641,-21.06 45.09,-39.04 66.621,-61.41 33.797,-35.11 61.258,-70.7 89.871,-112.01 8.496,-12.23 14.09,-20.41 22.012,-33.17 7.977,-12.76 16.84,-26.31 24.102,-38.96 36.617,-63.58 66.617,-122.44 96.98,-187.59 8.426,-18.01 15.504,-36.87 23.762,-54.78 2.211,-4.86 5.375,-1.25 7.609,0 10.981,6.35 22.649,11.66 34.051,17.04 9.098,4.18 17.379,7.06 25.508,10.18 20.543,7.83 40.035,12.08 61.551,16.55 35.915,7.52 100.435,5.97 100.435,5.97 l 122.34,0.04 c 0.79,0 1.62,0 3.34,0 -1.28,35.07 -9.61,69.15 -11.64,104.32 -1.54,28.5 -0.6,56.04 0.41,84.59 2.73,77.36 14.1,160.4 31.39,230.88" /><path
             id="path54"
             style="fill:#ffffff;fill-opacity:1;fill-rule:nonzero;stroke:none"
             d="m 395.141,2295.16 c -23.871,-23.8 -30.993,-32.57 -44.911,-58.88 -8.199,-15.47 -18.609,-35.33 -21.578,-60.93 49.051,18.67 89.075,56.78 125.235,98.87 26.754,31.2 47.504,72.6 73.886,103.42 -46.468,-15.58 -95.503,-45.52 -132.632,-82.48" /><path
             id="path56"
             style="fill:#ffffff;fill-opacity:1;fill-rule:nonzero;stroke:none"
             d="m 254.719,2228.25 c 18.488,31.24 44.976,65.01 72.437,88.05 -12.718,-28.57 -28.383,-56.87 -33.765,-90.66 -10.676,-67.27 -20.75,-114.39 -31.911,-175.79 30.508,21.76 62.684,55.95 95.036,79.81 24.992,18.37 50.046,30.64 75.754,48.3 15.281,10.55 25.234,24.09 37.945,36.77 -15.141,-63.84 -71.16,-128.27 -111.274,-158.31 -50.386,-37.79 -68.449,-43.81 -149.421,-126.15 -10.282,101.67 -8.45,207.33 45.199,297.98" /><path
             id="path58"
             style="fill:#ffffff;fill-opacity:1;fill-rule:nonzero;stroke:none"
             d="m 89.5273,1890.59 c 3.7696,52.8 10.1016,95.02 22.9297,146.52 8.984,35.97 28.34,89.51 56.242,111.47 -3.418,-13.04 -5.215,-32.6 -6.531,-45.79 -5.469,-54.4 4.945,-117.58 6.187,-171.91 0.622,-26.72 0.383,-47.31 -3.613,-72.41 -4.14,-26.33 -0.687,-58.62 -0.687,-58.62 0,0 14.422,16.47 27.3,36.99 28.149,44.7 37.161,57.97 59.836,82.19 28.133,30.05 59.598,57.88 95.125,82.52 -4.285,-16.69 -22.425,-49.16 -29.921,-62.21 -10.004,-17.45 -14.543,-33.32 -38.215,-72.85 -33.313,-55.55 -48.153,-63.04 -85.137,-122.45 -8.008,-12.92 -40.852,-62.06 -48.809,-77.08 -17.324,35.86 -23.863,67.19 -45.1168,125.56 -13.3555,36.68 -11.3594,73.37 -9.5899,98.07" /><path
             id="path60"
             style="fill:#ffffff;fill-opacity:1;fill-rule:nonzero;stroke:none"
             d="m 38.0938,1615.92 c -20.086,52.08 -29.28911,100.4 -36.09771,155.23 -4.16015,33.55 -2.226559,78.26 9.74611,110.52 3.1406,-7.87 9.5469,-27.87 10.414,-30.86 8.9102,-29.96 12.6329,-44.35 25.086,-73.25 9.5195,-22.16 21.164,-39.83 33.625,-61.73 11.332,-19.99 20.8908,-46.31 29.0898,-66.45 26.371,-64.57 28.32,-125.02 38.41,-131.62 7.258,15.54 9.531,30.42 10.344,37.75 7.844,71.45 17.25,136.39 107.227,220.6 8.257,-25.07 4.074,-71.28 -0.887,-96.03 -10.758,-54.12 -19.449,-80.11 -43.281,-132.56 -12.598,-27.62 -29.422,-68.27 -34.032,-81.73 -12.078,-35.07 -16.218,-53.45 -23.816,-74.19 -42.481,70.78 -94.7618,143.87 -125.8282,224.32" /><path
             id="path62"
             style="fill:#ffffff;fill-opacity:1;fill-rule:nonzero;stroke:none"
             d="m 108.125,1290.31 c -30.2422,42.1 -41.2656,63.25 -60.9492,108.07 -16.5274,37.59 -21.2813,51.53 -30.961,93.63 -5.289,22.95 -8.2773,43.77 -4.1679,57.34 23.6758,-42.87 39.8398,-90.85 70.8086,-126.41 24.5895,-28.21 48.2775,-52.23 67.8245,-76.04 29.988,-36.58 53.601,-71.21 82.382,-109.3 2.426,19.09 3.364,38.43 -0.921,69.71 -5.856,42.86 -2.246,78 5.238,119.5 9.484,52.65 16.445,78.71 34.711,131.98 22.348,-43.83 22.262,-94.54 27.871,-141.03 10.828,-90.2 -17.387,-197.76 -22.941,-242.6 -1.485,-11.81 0.562,-40.96 1.16,-52.32 -42.2,33.23 -79.742,66.79 -116.141,103.29 -16.586,16.54 -39.344,43.95 -53.914,64.18" /><path
             id="path64"
             style="fill:#ffffff;fill-opacity:1;fill-rule:nonzero;stroke:none"
             d="m 268.105,959.531 c -19.214,13.84 -70.843,53.299 -95.289,84.349 -35.597,45.21 -43.437,64.58 -66.921,116.59 -2.875,6.34 -16.1684,35.78 -17.2505,55.78 76.9415,-92.91 145.8285,-106.74 219.2265,-183.84 26.934,-28.24 54.516,-54.832 69.07,-68.16 11.172,-10.281 25.047,-13.391 25.047,-13.391 0,0 -1.445,19.801 -8.691,33.582 -48.965,93.589 -58.207,191.439 -50.781,296.449 22.351,-27.67 29.402,-46.15 43.589,-72.91 15.426,-29.15 23.293,-47.17 30.504,-65.11 41.903,-104.29 52.805,-224.749 78.696,-285.37 -79.914,26.922 -142.844,41.309 -227.2,102.031" /><path
             id="path66"
             style="fill:#ffffff;fill-opacity:1;fill-rule:nonzero;stroke:none"
             d="m 595.828,713.43 c -21.613,-1.45 -63.992,-1.321 -86.586,2.359 C 394.848,734.102 288.516,817 235.027,908.059 c 48.496,-29.59 83.563,-49.34 126.211,-64.11 37.985,-13.121 74.012,-17.008 137.418,-35.019 38.262,-10.809 76.145,-26.121 89.453,-31.102 42.418,-15.797 60.282,-11.918 60.282,-11.918 0,0 0,6.449 -15.848,23.731 -31.574,34.461 -43.141,42.699 -69.121,69.187 -8.527,8.75 -28.074,38.481 -37.996,58.25 -28.071,55.883 -31.192,100.672 -56.828,162.062 93.554,-54.94 139.129,-130.749 188.59,-226.32 15.21,-29.269 35.777,-63.082 54.57,-81.66 12.637,-12.469 30.445,-31.422 30.445,-31.422 0,0 -13.047,-3.066 -53.668,-9.066 C 670.312,728 631.484,715.91 595.828,713.43" /><path
             id="path68"
             style="fill:#ffffff;fill-opacity:1;fill-rule:nonzero;stroke:none"
             d="m 1049.31,706.18 c 49.39,-8.078 93.28,-20.078 138.19,-35.489 12.08,-4.152 30.44,-13.281 43.17,-19.73 31.83,-16.199 50.16,-26.723 77.52,-45.531 44.06,-30.352 91.4,-63.051 134.12,-112.668 0.91,-0.981 7.81,-8.364 3.21,-11.961 -8.37,-6.563 -28.99,-15.903 -35.85,-9.852 -39.08,34.762 -37.11,45.891 -84.47,88.781 -12.15,10.942 -30.49,26.29 -52.4,41.282 -21.38,14.629 -47.22,30.609 -71.22,42.449 -21.83,10.738 -55.42,13.949 -74.29,13.949 l 0.26,-0.14 c -8.57,0.332 -57.84,0.609 -69.24,-0.129 C 961.5,650.5 966.238,641.84 910.422,626.719 864.512,614.23 815.258,605.34 766.367,598.781 c -50.09,-6.812 -94.906,-7.633 -141.859,-2.84 -63.649,6.559 -133.274,24.297 -185.238,57.789 47.511,-0.8 96.3,-9.929 143.566,-6.308 19.891,1.527 52.16,4.527 74.012,11.269 43.418,13.329 68.328,18.528 114.308,31.348 39.512,10.992 79.348,14.801 120.606,19.152 57.105,6.11 109.998,4.731 157.548,-3.011" /><path
             id="path70"
             style="fill:#ffffff;fill-opacity:1;fill-rule:nonzero;stroke:none"
             d="m 1934.52,2295.16 c 23.87,-23.8 31.02,-32.57 44.94,-58.88 8.2,-15.47 18.61,-35.33 21.58,-60.93 -49.09,18.67 -89.07,56.78 -125.26,98.87 -26.77,31.2 -47.49,72.6 -73.87,103.42 46.47,-15.58 95.5,-45.52 132.61,-82.48" /><path
             id="path72"
             style="fill:#ffffff;fill-opacity:1;fill-rule:nonzero;stroke:none"
             d="m 2074.98,2228.25 c -18.52,31.24 -44.99,65.01 -72.45,88.05 12.85,-30.74 31.57,-69.04 33.76,-90.66 6.83,-67.74 20.75,-114.39 31.92,-175.79 -30.5,21.76 -62.72,55.95 -95.06,79.81 -24.94,18.37 -50.02,30.64 -75.7,48.3 -15.32,10.55 -25.27,24.09 -37.98,36.77 15.14,-63.84 71.16,-128.27 111.28,-158.31 50.37,-37.79 68.43,-43.81 149.37,-126.15 10.28,101.67 8.46,207.33 -45.14,297.98" /><path
             id="path74"
             style="fill:#ffffff;fill-opacity:1;fill-rule:nonzero;stroke:none"
             d="m 2240.16,1890.59 c -3.81,52.8 -10.08,95.02 -22.93,146.52 -8.98,35.97 -28.34,89.51 -56.29,111.47 3.46,-13.04 5.23,-32.6 6.56,-45.79 5.52,-54.4 -4.88,-117.58 -6.17,-171.91 -0.61,-26.72 -0.39,-47.31 3.59,-72.41 4.15,-26.33 0.72,-58.62 0.72,-58.62 0,0 -14.42,16.47 -27.33,36.99 -28.09,44.7 -37.11,57.97 -59.85,82.19 -28.1,30.05 -59.6,57.88 -95.13,82.52 4.33,-16.69 22.46,-49.16 29.96,-62.21 10.04,-17.45 14.53,-33.32 38.22,-72.85 33.3,-55.55 48.14,-63.04 85.1,-122.45 8,-12.92 40.89,-62.06 48.84,-77.08 17.35,35.86 23.86,67.19 45.12,125.56 13.39,36.68 11.39,73.37 9.59,98.07" /><path
             id="path76"
             style="fill:#ffffff;fill-opacity:1;fill-rule:nonzero;stroke:none"
             d="m 2291.59,1615.92 c 20.08,52.08 29.26,100.4 36.11,155.23 4.16,33.55 2.2,78.26 -9.75,110.52 -3.14,-7.87 -9.53,-27.87 -10.42,-30.86 -8.93,-29.96 -12.63,-44.35 -25.05,-73.25 -9.54,-22.16 -21.24,-39.83 -33.67,-61.73 -11.32,-19.99 -20.88,-46.31 -29.12,-66.45 -26.34,-64.57 -28.29,-125.02 -38.38,-131.62 -7.28,15.54 -9.54,30.42 -10.33,37.75 -7.85,71.45 -17.26,136.39 -107.23,220.6 -8.28,-25.07 -4.08,-71.28 0.84,-96.03 10.81,-54.12 19.54,-80.11 43.33,-132.56 12.59,-27.62 29.42,-68.27 34.06,-81.73 12.01,-35.07 16.17,-53.45 23.83,-74.19 42.44,70.78 94.72,143.87 125.78,224.32" /><path
             id="path78"
             style="fill:#ffffff;fill-opacity:1;fill-rule:nonzero;stroke:none"
             d="m 2221.57,1290.31 c 30.27,42.1 41.26,63.25 60.93,108.07 16.53,37.59 21.26,51.53 30.98,93.63 5.29,22.95 8.26,43.77 4.14,57.34 -23.61,-42.87 -39.86,-90.85 -70.83,-126.41 -24.54,-28.21 -48.23,-52.23 -67.78,-76.04 -29.96,-36.58 -53.64,-71.21 -82.38,-109.3 -2.41,19.09 -3.38,38.43 0.87,69.71 5.9,42.86 2.29,78 -5.19,119.5 -9.49,52.65 -16.45,78.71 -34.71,131.98 -22.32,-43.83 -22.26,-94.54 -27.88,-141.03 -10.86,-90.2 17.43,-197.76 22.98,-242.6 1.45,-11.81 -0.6,-40.96 -1.19,-52.32 42.2,33.23 79.74,66.79 116.13,103.29 16.59,16.54 39.3,43.95 53.93,64.18" /><path
             id="path80"
             style="fill:#ffffff;fill-opacity:1;fill-rule:nonzero;stroke:none"
             d="m 2061.6,959.531 c 19.19,13.84 70.83,53.299 95.26,84.349 35.61,45.21 43.46,64.58 66.93,116.59 2.84,6.34 16.18,35.78 17.26,55.78 -76.94,-92.91 -145.84,-106.74 -219.24,-183.84 -26.92,-28.24 -54.48,-54.832 -69.05,-68.16 -11.17,-10.281 -25.04,-13.391 -25.04,-13.391 0,0 1.43,19.801 8.65,33.582 48.99,93.589 58.23,191.439 50.76,296.449 -22.27,-27.67 -29.37,-46.15 -43.54,-72.91 -15.4,-29.15 -23.29,-47.17 -30.48,-65.11 -41.93,-104.29 -52.88,-224.749 -78.76,-285.37 79.97,26.922 142.88,41.309 227.25,102.031" /><path
             id="path82"
             style="fill:#ffffff;fill-opacity:1;fill-rule:nonzero;stroke:none"
             d="m 1733.85,713.43 c 21.66,-1.45 64.01,-1.321 86.62,2.359 114.4,18.313 220.7,101.211 274.19,192.27 -48.54,-29.59 -83.6,-49.34 -126.22,-64.11 -38.01,-13.121 -74,-17.008 -137.38,-35.019 -38.3,-10.809 -76.17,-26.121 -89.49,-31.102 -42.41,-15.797 -60.28,-11.918 -60.28,-11.918 0,0 0,6.449 15.84,23.731 31.59,34.461 43.17,42.699 69.11,69.187 8.55,8.75 28.1,38.481 38.01,58.25 28.08,55.883 31.2,100.672 56.87,162.062 -93.56,-54.94 -139.22,-130.749 -188.65,-226.32 -15.18,-29.269 -35.75,-63.082 -54.52,-81.66 -12.61,-12.469 -30.46,-31.422 -30.46,-31.422 0,0 13.04,-3.066 53.7,-9.066 18.19,-2.672 57,-14.762 92.66,-17.242" /><path
             id="path84"
             style="fill:#ffffff;fill-opacity:1;fill-rule:nonzero;stroke:none"
             d="m 1280.38,706.18 c -49.39,-8.078 -93.24,-20.078 -138.19,-35.489 -12.12,-4.152 -30.45,-13.281 -43.17,-19.73 -31.84,-16.199 -50.12,-26.723 -77.51,-45.531 -44.108,-30.352 -91.377,-63.051 -134.127,-112.668 -0.922,-0.981 -7.856,-8.364 -3.223,-11.961 8.391,-6.563 29.024,-15.903 35.817,-9.852 39.101,34.762 37.113,45.891 84.523,88.781 12.09,10.942 30.43,26.29 52.39,41.282 21.42,14.629 47.18,30.609 71.22,42.449 21.78,10.738 55.45,13.949 74.28,13.949 l -0.28,-0.14 c 8.6,0.332 57.84,0.609 69.27,-0.129 96.83,-6.641 92.06,-15.301 147.85,-30.422 45.94,-12.489 95.19,-21.379 144.09,-27.938 50.05,-6.812 94.91,-7.633 141.85,-2.84 63.66,6.559 133.26,24.297 185.21,57.789 -47.48,-0.8 -96.24,-9.929 -143.56,-6.308 -19.9,1.527 -52.13,4.527 -73.98,11.269 -43.42,13.329 -68.35,18.528 -114.3,31.348 -39.52,10.992 -79.36,14.801 -120.6,19.152 -57.12,6.11 -110.01,4.731 -157.56,-3.011" /><path
             id="path86"
             style="fill:#ffffff;fill-opacity:1;fill-rule:nonzero;stroke:none"
             d="m 1103.65,2834.64 -86.96,-322.87 h -92.311 l -57.738,210.33 -56.453,-210.33 h -92.086 l -86.95,322.87 h 86.907 l 49.531,-222.26 59.582,222.26 h 83.055 l 56.527,-222.26 52.006,222.26 h 84.89" /><path
             id="path88"
             style="fill:#ffffff;fill-opacity:1;fill-rule:nonzero;stroke:none"
             d="m 1390.51,2772.2 h -148.53 v -60.08 h 137.69 v -62.44 h -137.69 v -137.91 h -82.82 v 322.87 h 231.35 v -62.44" /><path
             id="path90"
             style="fill:#ffffff;fill-opacity:1;fill-rule:nonzero;stroke:none"
             d="m 1628.38,2730.88 c 0,9.08 -2.46,16.9 -7.36,23.46 -4.92,6.57 -10.62,11.14 -17.13,13.74 -8.68,3.46 -17.13,5.37 -25.37,5.74 -8.24,0.35 -19.24,0.54 -32.97,0.54 h -14.3 v -96.5 h 23.84 c 14.17,0 25.84,0.87 35.03,2.6 9.18,1.73 16.88,5.2 23.09,10.39 5.35,4.6 9.22,10.13 11.6,16.55 2.38,6.41 3.57,14.24 3.57,23.48 z m 86.1,1.85 c 0,-14.46 -2.54,-28.59 -7.6,-42.4 -5.06,-13.81 -12.29,-25.41 -21.68,-34.79 -12.87,-12.74 -27.22,-22.34 -43.05,-28.85 -15.82,-6.51 -35.52,-9.76 -59.08,-9.76 h -51.82 v -105.16 h -83.28 v 322.87 h 137.05 c 20.53,0 37.84,-1.77 51.93,-5.31 14.09,-3.55 26.57,-8.85 37.41,-15.94 13.01,-8.53 22.95,-19.44 29.81,-32.75 6.87,-13.3 10.31,-29.26 10.31,-47.91" /><path
             id="path92"
             style="fill:#ffffff;fill-opacity:1;fill-rule:nonzero;stroke:none"
             d="M 499.316,257.871 441.27,70.5508 H 377.523 L 339.355,196.82 301.648,70.5508 H 237.27 L 179.727,257.871 h 62.988 l 32.152,-129.09 39.969,129.09 h 53.207 l 37.996,-129.09 31.633,129.09 h 61.644" /><path
             id="path94"
             style="fill:#ffffff;fill-opacity:1;fill-rule:nonzero;stroke:none"
             d="m 649.773,286.059 h -4.492 c -2.66,0.781 -6.121,1.671 -10.394,2.671 -4.266,0.989 -8.84,1.5 -13.727,1.5 -11.75,0 -19.707,-2.109 -23.863,-6.339 -4.156,-4.231 -6.235,-12.403 -6.235,-24.52 v -1.5 h 46.2 v -40.703 h -44.2 V 70.5508 H 532.844 V 217.168 h -25.688 v 40.703 h 25.688 v 5.168 c 0,22.902 6.094,40.082 18.269,51.551 12.18,11.449 30.606,17.172 55.293,17.172 8.899,0 16.957,-0.301 24.184,-0.91 7.226,-0.614 13.625,-1.422 19.183,-2.422 v -42.371" /><path
             id="path96"
             style="fill:#ffffff;fill-opacity:1;fill-rule:nonzero;stroke:none"
             d="m 789.148,165.539 c 0,18.211 -3.101,31.43 -9.312,39.641 -6.215,8.211 -16.035,12.332 -29.461,12.332 -5.656,0 -11.484,-0.871 -17.469,-2.59 -5.992,-1.711 -11.707,-4.184 -17.144,-7.402 v -94.102 c 3.988,-1.559 8.265,-2.547 12.816,-2.996 4.547,-0.442 9.039,-0.672 13.477,-0.672 15.867,0 27.687,4.641 35.449,13.91 7.766,9.27 11.644,23.231 11.644,41.879 z m 61.887,1.262 c 0,-15.461 -2.363,-29.52 -7.082,-42.199 -4.719,-12.68 -10.91,-23.133 -18.57,-31.352 -7.996,-8.6719 -17.055,-15.25 -27.156,-19.6914 -10.106,-4.4492 -20.938,-6.668 -32.489,-6.668 -10.66,0 -19.718,1.1406 -27.152,3.418 -7.441,2.2695 -15.051,5.4805 -22.824,9.582 V 1.82812 H 655.547 V 257.871 h 60.215 v -19.512 c 9.215,7.332 18.629,13.282 28.238,17.852 9.605,4.559 20.684,6.828 33.234,6.828 23.325,0 41.454,-8.559 54.391,-25.68 12.941,-17.129 19.41,-40.64 19.41,-70.558" /><path
             id="path98"
             style="fill:#ffffff;fill-opacity:1;fill-rule:nonzero;stroke:none"
             d="m 879.492,70.5508 h 62.3867 v 65.5586 H 879.492 Z" /><path
             id="path100"
             style="fill:#ffffff;fill-opacity:1;fill-rule:nonzero;stroke:none"
             d="m 1101.28,118.602 c 3.89,4.777 6.81,10.539 8.75,17.257 1.94,6.719 2.92,16.039 2.92,27.942 0,11 -1,20.23 -3,27.679 -2,7.45 -4.78,13.399 -8.34,17.848 -3.56,4.563 -7.84,7.793 -12.85,9.684 -5,1.879 -10.4,2.828 -16.18,2.828 -5.78,0 -10.92,-0.781 -15.43,-2.328 -4.5,-1.551 -8.81,-4.68 -12.92,-9.352 -3.67,-4.32 -6.59,-10.269 -8.76,-17.84 -2.17,-7.558 -3.25,-17.07 -3.25,-28.519 0,-10.242 0.94,-19.11 2.83,-26.61 1.89,-7.511 4.67,-13.531 8.34,-18.101 3.56,-4.328 7.82,-7.488 12.77,-9.5 4.94,-2.012 10.58,-3 16.93,-3 5.44,0 10.65,0.91 15.59,2.75 4.94,1.832 9.15,4.91 12.6,9.262 z m 73.88,45.539 c 0,-30.813 -8.98,-55.082 -26.93,-72.8207 -17.97,-17.7305 -43.17,-26.6015 -75.65,-26.6015 -32.47,0 -57.68,8.871 -75.642,26.6015 C 978.98,109.059 970,133.328 970,164.141 c 0,31.007 9.031,55.371 27.109,73.039 18.071,17.691 43.221,26.539 75.471,26.539 32.7,0 57.96,-8.899 75.8,-26.699 17.86,-17.79 26.78,-42.079 26.78,-72.879" /><path
             id="path102"
             style="fill:#ffffff;fill-opacity:1;fill-rule:nonzero;stroke:none"
             d="m 1336.9,200.66 h -5.33 c -2.56,0.891 -6.66,1.559 -12.33,2 -5.65,0.442 -10.37,0.668 -14.14,0.668 -8.54,0 -16.08,-0.558 -22.63,-1.668 -6.55,-1.121 -13.6,-3 -21.14,-5.672 V 70.5508 h -60.21 V 257.871 h 60.21 v -27.519 c 13.21,11.347 24.69,18.867 34.45,22.609 9.76,3.719 18.76,5.578 26.96,5.578 2.11,0 4.49,-0.059 7.17,-0.16 2.65,-0.117 4.99,-0.289 6.99,-0.508 V 200.66" /><path
             id="path104"
             style="fill:#ffffff;fill-opacity:1;fill-rule:nonzero;stroke:none"
             d="m 1475.77,129.609 v 84.903 c -3.44,1.429 -7.66,2.578 -12.66,3.41 -4.99,0.84 -9.48,1.258 -13.48,1.258 -15.76,0 -27.57,-4.539 -35.45,-13.61 -7.87,-9.05 -11.81,-21.699 -11.81,-37.941 0,-18 3.36,-30.57 10.08,-37.688 6.7,-7.121 16.66,-10.691 29.86,-10.691 6,0 11.87,0.949 17.64,2.852 5.77,1.878 11.05,4.378 15.82,7.507 z m 60.21,-37.5387 c 0,-17.5586 -2.5,-32.3594 -7.51,-44.3594 -5.01,-12.0195 -12,-21.4101 -21.02,-28.1914 -9.01,-6.9101 -19.87,-11.87888 -32.6,-14.92966 C 1462.11,1.53125 1447.74,0 1431.72,0 c -13,0 -25.82,0.78125 -38.43,2.33984 C 1380.66,3.89062 1369.73,5.78906 1360.5,8 v 46.8789 h 7.34 c 7.32,-2.8906 16.26,-5.5273 26.81,-7.918 10.55,-2.3906 19.98,-3.5898 28.31,-3.5898 11.11,0 20.13,1.0273 27.07,3.0781 6.95,2.0625 12.24,4.9805 15.9,8.7617 3.45,3.5703 5.95,8.1172 7.49,13.668 1.57,5.5703 2.35,12.2422 2.35,20.0195 v 3.5118 c -7.23,-5.8985 -15.22,-10.5704 -24,-14.0118 -8.77,-3.4492 -18.54,-5.1679 -29.31,-5.1679 -26.22,0 -46.44,7.8906 -60.65,23.6914 -14.22,15.7771 -21.32,39.7971 -21.32,72.0471 0,15.453 2.17,28.801 6.5,40.031 4.32,11.23 10.44,21.02 18.32,29.359 7.33,7.782 16.36,13.84 27.07,18.172 10.71,4.348 21.69,6.508 32.91,6.508 10.11,0 19.29,-1.187 27.57,-3.578 8.27,-2.402 15.8,-5.691 22.57,-9.93 l 2.17,8.34 h 58.38 V 92.0703" /><path
             id="path106"
             style="fill:#ffffff;fill-opacity:1;fill-rule:nonzero;stroke:none"
             d="M 1751.25,330.102 1618.97,16.5117 h -51.19 l 131.74,313.5903 h 51.73" /><path
             id="path108"
             style="fill:#ffffff;fill-opacity:1;fill-rule:nonzero;stroke:none"
             d="M 1971.48,70.5508 H 1911.5 V 163.09 c 0,7.531 -0.39,15.039 -1.16,22.512 -0.77,7.476 -2.1,12.988 -3.99,16.539 -2.21,4.097 -5.45,7.078 -9.71,8.968 -4.27,1.879 -10.22,2.821 -17.87,2.821 -5.43,0 -10.93,-0.891 -16.52,-2.649 -5.6,-1.781 -11.66,-4.601 -18.2,-8.48 V 70.5508 h -59.98 V 257.129 h 59.98 v -20.598 c 10.62,8.309 20.82,14.68 30.61,19.098 9.79,4.43 20.66,6.652 32.61,6.652 20.13,0 35.86,-5.871 47.2,-17.613 11.34,-11.738 17.01,-29.297 17.01,-52.668 V 70.5508" /><path
             id="path110"
             style="fill:#ffffff;fill-opacity:1;fill-rule:nonzero;stroke:none"
             d="m 2119.79,118.398 c 3.87,4.762 6.78,10.493 8.72,17.204 1.94,6.699 2.91,15.968 2.91,27.816 0,10.973 -1,20.164 -2.99,27.582 -1.99,7.418 -4.77,13.352 -8.31,17.789 -3.55,4.539 -7.81,7.742 -12.79,9.621 -4.99,1.891 -10.36,2.84 -16.12,2.84 -5.76,0 -10.88,-0.781 -15.37,-2.328 -4.48,-1.551 -8.77,-4.66 -12.87,-9.301 -3.66,-4.332 -6.56,-10.25 -8.73,-17.793 -2.16,-7.527 -3.23,-16.996 -3.23,-28.41 0,-10.18 0.93,-19.02 2.82,-26.488 1.88,-7.481 4.65,-13.489 8.31,-18.032 3.54,-4.32 7.78,-7.476 12.71,-9.468 4.93,-1.989 10.55,-2.989 16.86,-2.989 5.42,0 10.6,0.911 15.54,2.739 4.92,1.832 9.1,4.898 12.54,9.218 z m 73.6,45.364 c 0,-30.692 -8.95,-54.864 -26.83,-72.5237 -17.89,-17.668 -43.01,-26.5 -75.35,-26.5 -32.34,0 -57.46,8.832 -75.35,26.5 -17.88,17.6597 -26.83,41.8317 -26.83,72.5237 0,30.898 9,55.16 27,72.769 18,17.61 43.06,26.418 75.18,26.418 32.56,0 57.74,-8.871 75.51,-26.59 17.78,-17.718 26.67,-41.918 26.67,-72.597" /></g></g></g></g></svg>