<?xml version="1.0" encoding="UTF-8" standalone="no"?>
<svg
   xmlns:dc="http://purl.org/dc/elements/1.1/"
   xmlns:cc="http://creativecommons.org/ns#"
   xmlns:rdf="http://www.w3.org/1999/02/22-rdf-syntax-ns#"
   xmlns:svg="http://www.w3.org/2000/svg"
   xmlns="http://www.w3.org/2000/svg"
   viewBox="0 0 1023.0933 377.94666"
   height="377.94666"
   width="1023.0933"
   xml:space="preserve"
   id="svg2"
   version="1.1"><metadata
     id="metadata8"><rdf:RDF><cc:Work
         rdf:about=""><dc:format>image/svg+xml</dc:format><dc:type
           rdf:resource="http://purl.org/dc/dcmitype/StillImage" /></cc:Work></rdf:RDF></metadata><defs
     id="defs6"><clipPath
       id="clipPath20"
       clipPathUnits="userSpaceOnUse"><path
         id="path18"
         d="M 0,0 H 7673 V 2834.65 H 0 Z" /></clipPath></defs><g
     transform="matrix(1.3333333,0,0,-1.3333333,0,377.94667)"
     id="g10"><g
       transform="scale(0.1)"
       id="g12"><g
         id="g14"><g
           clip-path="url(#clipPath20)"
           id="g16"><path
             id="path22"
             style="fill:#ffffff;fill-opacity:1;fill-rule:nonzero;stroke:none"
             d="m 1340.5,2131.15 c 12.51,27.06 24.11,48.64 40.8,74.32 7.35,11.34 15.68,19.23 23.1,30.66 -3.54,1.01 -8.73,-1.9 -10.96,-3.5 -7.42,-5.39 -10.77,-14.12 -16.72,-18.8 -14.01,-11.08 -13.65,-21.1 -20.98,-26.26 -6.58,-4.65 -8.45,-7.69 -13.07,-14.91 -3.08,-4.82 -5.36,-8.73 -8.56,-18.23 -1.17,-3.44 -3.48,-0.39 -8.96,-7.93 -7.16,-9.83 -10.4,-20.39 -13.38,-32.27 -0.94,-3.91 -7.59,-5.99 -11.84,-14.08 -5.72,-10.9 -9.43,-21.04 -11.91,-36.92 -0.64,-3.71 -6.86,-6.28 -11.16,-16.56 -3.05,-7.22 -5.22,-8.83 -7.9,-22.44 -1.64,-8.32 -5.42,-9.49 -9.7,-21.56 -3.31,-9.2 -3.44,-18.07 -4.58,-30.11 -0.27,-2.31 -4.22,-6.92 -7.82,-13.67 -6.13,-11.24 -5.93,-18.76 -8.33,-30.4 -0.94,-4.22 -5.66,-9.77 -10.17,-27.79 -4.01,-15.99 -0.34,-26.56 -1.68,-34.46 -3.54,-20.47 -7.05,-38.19 -5.15,-58.36 0.94,-9.82 2.44,-20 1.78,-29.46 -1.87,-29.7 -3.48,-54.18 -3.31,-87.82 0.1,-18.33 1.53,-43.41 4.31,-64.32 3.04,-23.04 7.43,-41.06 7.43,-41.06 h 75.14 c 0,0 -2.93,43.44 0.94,89.19 2.35,27.43 8.83,56.49 14.79,76.89 7.49,26.06 12.17,39.49 26.35,73.85 0.3,0.76 -0.1,3.97 -3.85,0.83 -7.85,-6.59 -14.38,-12.37 -20.57,-21.67 -9.46,-14.28 -15.21,-26.02 -22.87,-40.67 -8.96,-16.99 -13.89,-31.84 -23.12,-52.51 -0.53,14.92 1.88,29.14 4.93,42.88 3.07,14.05 5.54,25.14 9.96,37.25 7.83,21.34 15.46,39.16 28,59.04 7.25,11.47 16.55,21.76 26.01,30.33 11.27,10.3 21.71,19.39 33.55,29.5 -12.42,6.39 -28.97,-6.97 -32.28,-7.67 -17.46,-3.41 -24.58,-19.6 -29.93,-21.83 -7.63,-3.18 -12.07,-7.86 -17.39,-14.32 -4.09,-4.85 -5.29,-12.33 -9.56,-14.98 -7.16,-4.44 -12.38,-11.14 -17.29,-20.5 -2.01,-3.85 -7.5,-22.11 -13.58,-19.76 10.4,61.9 32.27,119.98 67.39,171.7 22.24,32.77 46.42,60.86 82.1,86.08 4.72,3.35 5.62,4.88 -0.94,4.68 -33.34,-4.08 -35.38,-19.3 -40.87,-20.73 -5.21,-1.34 -11.67,-7.53 -15.78,-11.54 -7.39,-7.32 -7.29,-13.47 -10.14,-15.42 -6.08,-4.25 -10.63,-8.66 -14.77,-16.02 -2.21,-3.84 -5.89,-12.31 -9.13,-14.24 -8.57,-4.95 -16.87,-12.18 -20.98,-19.97 -3.07,-5.73 -4.28,-11.91 -8.26,-17.53 -4.28,-6.02 -10.22,-10.5 -15.35,-14.85 3.89,26.46 16.36,57.8 24.95,84.85 11.5,36.15 25.52,68.96 41.31,103.07" /><path
             id="path24"
             style="fill:#ffffff;fill-opacity:1;fill-rule:nonzero;stroke:none"
             d="m 1417.22,1916.64 c 28.45,63.88 58.36,111.95 97.25,168.13 5.08,7.35 9.67,14.58 14.08,21.47 2.01,3.15 11.58,16.86 13.55,19.8 13.04,19.66 18.53,25.68 31.86,44.51 3.62,5.12 6.57,9.13 8.1,15.02 2.84,11.03 -6.62,18.43 -8.8,28.99 -2.21,10.78 -0.99,22.54 3.96,31.67 3.1,5.7 6.18,7.93 9.32,15.59 6.06,14.72 3.95,46.59 10.87,47.43 -1.78,-15.12 -2.14,-32.15 0.24,-46.62 2.74,-16.96 13.04,-27.23 17.25,-45.16 11.44,2.07 23.82,1.62 33.45,0.74 9.56,-0.81 21.6,1.84 31.41,5.22 13.27,4.51 24.27,12.77 37.78,15.95 -11.5,-11.04 -27.73,-15.19 -41.34,-23.58 -4.98,-3.14 -9.7,-7.29 -13.04,-12.44 -5.45,-8.5 -9.79,-16.65 -18.33,-20.4 -15.21,-6.62 -28.26,-3.48 -45.58,-6.69 -25.75,-26.55 -50,-62.64 -72.37,-100.59 -56.72,-95.96 -104.05,-195.36 -131.54,-297.29 9.5,17.75 18.6,34.88 28.9,51.77 11.38,18.73 24.18,37.09 38.12,55.48 32.68,43.01 64.98,80.6 101.18,120.17 29.22,31.98 61.23,58.76 96.95,81.16 47.19,29.57 105.42,50.31 156.55,39.6 5.82,-1.34 14.14,-2.88 17.79,-6.71 -64.11,8.99 -121.54,-13.42 -164.41,-47.73 -33.85,-27.09 -62.37,-54.58 -91.37,-90.3 -14.98,-17.19 -28.45,-36.13 -41.83,-54.45 -14.02,-19.26 -26.46,-39.53 -38.77,-59.83 -41.54,-68.59 -73.01,-141.23 -96.12,-216.48 -0.66,-2.41 -0.8,-4.82 -1.47,-7.16 1.1,1.67 2.71,3.51 3.82,5.22 31.1,50.63 68.55,99.46 115.95,132.23 4.15,2.81 8.46,8.26 9.56,12.51 5.11,20.11 -10.17,29.76 11,57.53 4.88,6.39 11.51,8.73 16.09,14.65 8.7,13.4 15.76,37.39 23.01,43.87 -3.65,-15.65 -12.6,-32.17 -14.52,-48.26 -2.04,-17.68 2.48,-32.14 3.28,-50.9 12.51,-1.71 22.21,-6.99 32.04,-10.03 15.25,-4.78 24.45,-3.55 39.56,-2.24 6.43,0.53 18.13,4.31 25.09,2.87 -14.58,-7.95 -34.31,-6.49 -49.29,-14.14 -10.44,-5.35 -13.49,-13.24 -27.91,-16.02 -12.84,-2.51 -23.64,-1.17 -31.97,3.11 -6.48,3.28 -11.56,4.65 -17.38,1.83 -15.59,-7.45 -26.19,-18.02 -38.73,-30.63 -29.06,-29.26 -52.81,-61.93 -74.95,-104.75 -5.85,-11.39 -11.13,-22.67 -16.12,-34.24 -2.48,-5.69 -8.6,-21.33 -8.6,-21.33 h -75.98 c 0,0 -0.2,21.86 0.53,29.89 1.45,15.92 3.62,27.76 6.69,43.92 4.42,23.27 8.73,44.37 14.79,66.95 5.85,21.97 12.2,42.58 19.73,63.64 15.72,43.98 32.41,86.09 50.67,127.05" /><path
             id="path26"
             style="fill:#ffffff;fill-opacity:1;fill-rule:nonzero;stroke:none"
             d="m 682.555,1324.86 c 27.722,22.67 48.257,35.78 75.953,52.3 11.25,6.69 28.254,14.3 41.332,20.25 47.992,21.65 111.469,37.64 171.269,38.74 1.102,0 1.036,-0.03 1.036,-0.03 h 445.915 c 0,0 -1.68,0.03 1.53,0.03 14.18,0 28.23,-4.95 36.92,-13.14 8.7,-8.26 12.85,-20.99 15.12,-33.62 1.93,-10.76 1.01,-20.33 -1.5,-31.9 -1.98,-9.09 -3.45,-14.51 -8.54,-22.26 -3.04,-4.69 -5.95,-7.9 -11.67,-12.45 -5.85,-4.68 -14.14,-6.35 -23.67,-6.42 -0.98,-0.07 -3.12,-0.14 -3.05,-0.07 0.1,0.07 -521.555,0.07 -521.555,0.07 0,0 -3.247,0 -4.883,0 -34.145,0.14 -70.082,-1.6 -103.813,-6.02 -25.847,-3.54 -51.754,-7.56 -76.738,-14.05 -31.504,-8.22 -61.836,-19.66 -92.117,-30.9 16.785,22.28 36.172,41.2 58.461,59.47" /><path
             id="path28"
             style="fill:#ffffff;fill-opacity:1;fill-rule:nonzero;stroke:none"
             d="m 837.398,1502.24 c 27.391,19.76 60.649,36.02 90.114,47.29 14.949,5.69 34.816,11.94 50.586,15.85 19.058,4.82 40.972,8.43 58.842,8.97 5.4,0.13 0.78,0.03 0.78,0.03 l 382.48,0.04 c 0,0 8.19,-0.44 11.03,-1.01 7.16,-1.54 12.98,-4.48 15.38,-6.02 5.92,-3.78 13.38,-11.77 17.3,-18.13 9.93,-16.35 11.67,-33.98 8.45,-52.37 -3.68,-20.94 -19.6,-44.85 -41.23,-45.45 -3.78,-0.1 -11.28,0 -11.28,0 h -414.23 c 0,0 -24.112,-0.47 -35.112,-0.87 -20.371,-0.77 -42.957,-3.11 -60.75,-5.71 -15.223,-2.21 -30.086,-5.09 -45.305,-9.17 -51.07,-13.78 -95.449,-39.68 -141.871,-59.8 31.258,54.58 73.547,96.46 114.816,126.35" /><path
             id="path30"
             style="fill:#ffffff;fill-opacity:1;fill-rule:nonzero;stroke:none"
             d="m 623.438,1242.32 c 66.488,39.25 146.574,54.77 219.882,57.18 1.739,0.14 5.215,0.21 5.215,0.21 h 571.725 c 0,0 1.07,0 6.22,0 34.64,0.06 47.32,-34.32 47.15,-62.14 -0.07,-9.17 -1.6,-18.54 -4.14,-24.76 -3.31,-8.22 -6.96,-14.91 -12.91,-21.33 -2.14,-2.34 -9.76,-7.76 -13.17,-8.56 -7.9,-1.94 -17.67,-1.74 -17.6,-1.74 0.07,0 -425.27,-0.07 -425.27,0 0,0 -22.942,0.93 -38.864,2.47 -11.473,1.14 -20.184,2.35 -32.106,4.62 -29.281,5.81 -53.547,15.32 -78.925,23.14 -16.911,5.22 -34.715,9.17 -53.282,11.91 -34.109,5.29 -71.402,7.62 -105.879,5.01 -43.847,-3.27 -82.839,-11.83 -124.55,-25.08 7.058,11.04 36.371,27.16 56.504,39.07" /><path
             id="path32"
             style="fill:#ffffff;fill-opacity:1;fill-rule:nonzero;stroke:none"
             d="m 931.391,1063.06 c -19.543,6.81 -38.61,15.71 -55.715,27.02 -22.293,14.78 -33.211,26.48 -62.004,39.79 -24.649,11.37 -44.332,22.61 -78.695,35.12 -16.575,5.96 -43.446,14.25 -66.469,18.2 -32.91,5.55 -64.653,8.02 -64.653,8.02 0,0 6.727,4.21 10.774,5.42 33.574,10.24 63.242,15.25 97.754,17.8 30.234,2.26 58.027,-0.68 88.344,-5.42 12.441,-2.02 28.609,-5.82 42.656,-9.84 45.648,-12.98 97.523,-33.57 143.558,-33.64 2.563,0 2.278,0.07 2.278,0.07 h 425.021 c 0,0 -3.21,0 1.31,0 12.87,0 36.92,-4.15 46.58,-21.27 11.2,-19.67 14.69,-43.08 5.28,-66.56 -2.87,-7.09 -7.59,-17.19 -14.37,-23.28 -5.96,-5.42 -15.66,-8.89 -21.27,-8.89 -1.61,-0.07 -4.42,0 -4.42,0 h -371.7 c 0,0 1.44,0 -2,0 -38,0 -85.857,4.62 -122.259,17.46" /><path
             id="path34"
             style="fill:#ffffff;fill-opacity:1;fill-rule:nonzero;stroke:none"
             d="m 1100.7,931.148 c -10.5,10.832 -24.98,27.364 -38.16,43.082 -25.2,30.1 -36.5,57.19 -36.5,57.19 h 247.9 c 0,0 0.67,-28.64 -5.05,-61.74 -5.35,-30.77 -16.72,-63.211 -28.83,-86.692 -0.4,-24.078 9.77,-46.476 11.4,-70.226 -20.36,-12.5 -42.23,-24.883 -60.49,-42.41 -1.18,-1.141 -3.05,-1.141 -3.82,1.808 -9.76,36.649 -14.91,69.36 -22.94,105.61 -22.61,17.468 -43.81,32.98 -63.51,53.378" /><path
             id="path36"
             style="fill:#ffffff;fill-opacity:1;fill-rule:nonzero;stroke:none"
             d="m 1356.21,951.488 c -7.02,12.973 -12.27,30.09 -20.29,40.262 -1.75,-9.09 0.4,-14.648 -0.84,-23.34 -1.14,-7.301 -7.09,-4.289 -8.29,-0.871 -3.48,9.891 -7.16,22 -10.34,32.102 -5.29,16.799 -6.99,31.709 -6.99,31.709 l 41.23,0.07 c 0,0 1.61,-0.4 2.32,-4.42 1.97,-10.44 1.5,-20.53 4.34,-32.57 3.65,-15.52 8.36,-29.7 14.09,-44.149 4.94,-12.781 11.32,-25.551 16.51,-38.191 0.7,-1.68 1.07,-4.879 -0.2,-6.559 -1.54,-1.929 -4.15,-1.672 -5.68,0 -11.78,13.449 -16.56,28.629 -25.86,45.957" /><path
             id="path38"
             style="fill:#ffffff;fill-opacity:1;fill-rule:nonzero;stroke:none"
             d="m 1420.06,922.051 c -7.02,14.918 -16.89,31.711 -16.02,48.699 4.54,-5.949 6.42,-10.301 12.71,-13.648 2.87,-0.872 8.89,-0.071 7.39,5.019 -2.77,9.301 -7.09,17.188 -11.07,30.027 -5.92,18.942 -11.67,39.202 -11.67,39.202 l -42.11,0.07 c 0,0 2.34,-17.13 11.91,-43.342 8.39,-23.219 21.4,-49.769 35.62,-74.648 11.57,-20.469 22.11,-38.328 35.24,-53.309 4.52,-5.16 15.53,-0.68 10.77,6.078 -12.47,17.59 -24.11,37.121 -32.77,55.852" /><path
             id="path40"
             style="fill:#ffffff;fill-opacity:1;fill-rule:nonzero;stroke:none"
             d="m 1693.4,2344.89 c -9.13,-3.97 -17.2,-9.13 -21.78,-17.89 -3.31,-6.32 -5.55,-15.91 0.81,-21.33 11.1,-9.51 24.38,0.23 29.77,9.9 6.75,12.33 5.01,35.95 5.01,35.95 0,0 -7.89,-4.09 -13.81,-6.63" /><path
             id="path42"
             style="fill:#ffffff;fill-opacity:1;fill-rule:nonzero;stroke:none"
             d="m 1703.06,2285.97 c 4.02,7.52 12.74,15.68 22.34,21.5 10.84,6.62 22.07,13.08 29.86,17.73 7.84,4.68 9.3,8 9.3,8 0,0 -6.42,-2.21 -9.93,-4.32 -19.3,-11.48 -40.33,-24.55 -48.9,-28.33 -10.8,-4.68 -25.45,-5.62 -38.69,-7.3 -2.11,16.69 -6.45,23.62 -6.39,38.43 0.1,7.13 1.84,16.36 3.05,22.78 4.14,21.44 4.95,32.24 4.95,32.24 0,0 -3.28,-3.05 -4.45,-12.47 -1.37,-8.53 -2.31,-11.68 -4.28,-21.74 -2.21,-11.61 -4.55,-21.47 -11.5,-28.73 -10,-10.37 -19.3,-28.83 -11.57,-42.95 4.55,-8.29 12.04,-7.09 14.41,-9.19 2.37,-2.11 3.78,-7.23 10.94,-9.6 15.38,-5.11 32.84,8.69 40.86,23.95" /><path
             id="path44"
             style="fill:#ffffff;fill-opacity:1;fill-rule:nonzero;stroke:none"
             d="m 1683.13,2241.89 c 5.22,8.49 10.57,14.45 18.79,19.5 13.69,8.33 23.81,13.95 32.14,18.22 3.62,1.81 6.62,3.98 7.53,7.83 -3.71,-1.4 -17.83,-8.02 -31.83,-16.35 -10,-5.99 -27.27,-13.48 -38.83,-14.02 -4.59,-0.2 -8,0.94 -11.75,1.07 -7.75,0.3 -17.66,-1.54 -17.66,-1.54 0,0 -2.51,10.97 -5.82,18.86 -1.67,4.08 -4.37,8.23 -5.82,15.86 -0.96,5.05 -1.27,12.7 -0.87,17.23 1.15,13.74 4.86,27.09 4.22,40.96 -8.63,-17.92 -5.11,-40 -15.25,-53.87 -4.28,-5.82 -7.63,-10.44 -11,-17.76 -5.58,-12.08 -4.92,-24.56 2.61,-36.19 4.35,-6.62 13.91,-6.39 15.55,-7.69 2.54,-1.84 4.67,-8.77 14.05,-10.84 15.98,-3.62 34.87,3.81 43.94,18.73" /><path
             id="path46"
             style="fill:#ffffff;fill-opacity:1;fill-rule:nonzero;stroke:none"
             d="m 1687.58,1891.29 c 3.74,7.53 6.12,17.43 10.9,24.42 -10.77,-1.61 -12.51,-2.85 -28.06,-4.55 -3.38,-0.34 -10.37,-3.84 -12.71,-6.15 -6.15,-6.19 -11.5,-11.97 -9.13,-22.38 0.94,-4.04 4.52,-7.02 6.49,-7.66 12.95,-4.18 26.05,3.52 32.51,16.32" /><path
             id="path48"
             style="fill:#ffffff;fill-opacity:1;fill-rule:nonzero;stroke:none"
             d="m 1700.72,1870.79 c 14.68,3.41 31.63,10.64 38.46,8.36 -13.78,-7.35 -31.17,-10 -46.46,-14.35 -11.64,-3.37 -19.96,-12.17 -30.36,-20.16 -9.53,-7.26 -22.24,-10.2 -33.58,-4.88 -3.85,1.83 -7.56,7.99 -8.19,11.31 -0.6,2.6 -6.09,5.24 -8.9,7.55 -2.84,2.38 -4.21,8.26 -4.28,10.53 -0.47,20.33 14.98,28.54 29.9,40.51 11.23,8.99 25.82,47.15 34.71,55.05 -1.6,-12.28 -17.59,-35.52 -24.54,-53.55 -5.56,-14.41 -3.71,-25.91 -7.29,-41.07 10.67,-0.66 22.53,-2.91 33.28,-3.08 8.42,-0.1 18.59,1.71 27.25,3.78" /><path
             id="path50"
             style="fill:#ffffff;fill-opacity:1;fill-rule:nonzero;stroke:none"
             d="m 1685.23,1839.43 c -8.26,-1.55 -18.35,-4.13 -25.24,-5.59 -23.95,-5.09 -35.39,6.65 -54.52,6.46 1.68,21.86 -5.92,31.69 0.34,45.84 5.59,12.61 10.76,25.96 15.55,36.63 3.91,8.56 5.09,15.78 5.09,15.78 0,0 -5.82,-8.69 -22.32,-40.86 -5.75,-11.21 -16.05,-13.62 -25.15,-24.22 -10.53,-12.11 -16.55,-37.76 2.89,-48.5 3.87,-2.14 3.31,-8.79 6.11,-11.46 12.98,-12.21 39.17,-11.01 55.58,3.87 13.05,11.91 28.9,13.81 42.41,17.33 7.93,2.04 14.85,5.42 14.85,5.42 0,0 -3.74,1.5 -15.59,-0.7" /><path
             id="path52"
             style="fill:#ffffff;fill-opacity:1;fill-rule:nonzero;stroke:none"
             d="m 1205.21,1585.19 c -0.93,0 -1.93,0 0,0 z m -111.87,315.53 c -7.99,-10.53 -11.67,-22.7 -20.5,-31.93 -4.61,-4.81 -11.63,-2.55 -15.25,3.01 -4.07,6.29 -10.6,15.18 -5.75,21.4 8.03,10.24 24.75,16.79 38.99,14.96 0.87,-0.11 5.46,-3.49 2.51,-7.44 z m -38.35,-60.4 c -4.45,-11.93 -17.8,-13.24 -29.14,-15.61 -2.1,-0.47 -8.62,0 -11.57,2.88 -4.88,4.81 -9.13,11.33 -8.29,19.53 0.47,5.08 4.68,10.03 9.91,12.03 9.47,3.68 20.69,9.57 30.02,4.36 8.03,-4.49 12.24,-14.76 9.07,-23.19 z m -24.54,-63.2 c -3.26,-4.72 -11.65,10.94 -12.72,18.13 -3.15,20.76 15.06,26.05 30.23,25.41 0.47,-12.38 -9.13,-31.57 -17.51,-43.54 z m -16.38,-56.02 c -2.97,-8.36 -4.4,-16.05 -7.73,-23.72 -3.22,-7.39 -16.977,-10.02 -24.598,-7.65 -10.902,3.38 -20.234,27.82 -7.859,37.19 9.469,7.09 19.297,8.23 31.367,9.69 2.16,0.28 10.27,-0.19 10.59,-0.96 2.02,-5.09 0.73,-7.63 -1.77,-14.55 z m -18.347,-64.61 c -2.207,-6.39 -3.18,-13.01 -6.02,-19.2 -1.406,-3.11 -3.277,1 -3.348,1.2 -4.281,10.64 -6.992,19.67 -3.343,29.03 2.078,5.19 9.168,9.97 15.918,10.37 -0.434,-6.66 -0.903,-14.88 -3.207,-21.4 z m -21.641,-31.48 c -4.91,2.21 -4.848,8.54 -6.926,12.48 -1.937,3.85 -6.117,9.13 -4.39,14.18 9.496,-5.35 13.894,-14.85 11.316,-26.66 z m -16.387,39.3 c -11.34,9.33 -12.304,24.22 -19.863,35.62 8.324,5.35 22.387,4.24 26.719,-6.29 3.445,-8.46 5.957,-20.93 -2.641,-27.39 -0.937,-0.7 -3.144,-2.81 -4.215,-1.94 z m -42.234,76.85 c -1.711,2.42 -5.07,9.44 -2.512,10.34 20.281,6.99 35.496,7.19 39.828,-14.48 3.082,-15.52 -7.504,-28.8 -22.339,-23.38 -4.247,1.58 -8.461,18.06 -14.977,27.52 z m -29.504,49 c -1.437,1.78 -2.574,7.2 -0.801,8.56 10.535,8.46 26.02,9.13 38.008,7.96 15.801,-1.43 19.047,-16.15 16.422,-28.33 -3.492,-16.05 -27.809,-18.03 -34.699,-15.35 -6.75,2.58 -11.489,17.93 -18.93,27.16 z m 3.445,57.02 c 13.645,8.87 39.77,15.45 44.133,-8.56 1.32,-7.22 -0.488,-16.82 -10.254,-19.97 -10.035,-3.21 -21.836,-6.69 -31,-2.97 -11.273,4.61 -13.496,24.64 -2.879,31.5 z m -14.175,40.37 c 1.035,4.61 6.128,6.79 10.433,7.86 11.051,2.75 23.406,6.89 33.578,0.4 3.946,-2.51 4.242,-6.05 4.782,-11.03 0.882,-8.07 -0.27,-14.65 -5.575,-17.74 -10.777,-6.32 -21.734,-6.88 -34.261,-4.41 -10.153,2.01 -10.985,15.46 -8.957,24.92 z m -11.34,-62.21 c -9.461,7 -13.649,16.9 -20.633,26.72 -1.676,2.41 0,3.38 1.301,3.75 16.8,4.75 29.261,-3.61 26.656,-21.94 -0.469,-3.55 -2.777,-11.87 -7.324,-8.53 z m -46.387,56.62 c -6.289,5.42 -1.91,14.92 3.574,17.66 9.602,4.79 24.719,5.49 34.719,2.14 6.418,-2.17 9.668,-11.4 8.527,-21.46 -0.504,-4.16 -1.758,-8.67 -3.777,-10.05 -7.613,-5.18 -19.383,-5.37 -28.648,-3.43 -6.54,1.36 -8.875,10.33 -14.395,15.14 z m -7.258,57.23 c 6.086,13.27 28.313,13.37 40.403,7.45 9.863,-4.81 11.101,-23.17 0.332,-30.4 -8.579,-5.71 -22.11,-3.61 -31.204,-1.93 -12.941,2.37 -13.98,15.08 -9.531,24.88 z m 0.5,49.63 c 9.231,8.76 21.188,4.72 32.305,3.2 2.144,-0.29 4.719,-1.83 6.172,-3.27 7.593,-7.66 8.191,-20.23 -0.25,-26.52 -9.766,-7.26 -21.938,-2.54 -33.649,-1.94 -3.172,0.13 -6.648,3.81 -7.371,6.23 -2.125,7.42 -3.394,16.48 2.793,22.3 z m 5.953,41.5 c 9.797,4.09 26.625,5.95 33.578,-5.05 4.247,-6.72 3.008,-19.22 -3.812,-21.04 -6.703,-1.74 -29.465,-5.51 -34.918,7.09 -2.703,6.19 -1.566,16.16 5.152,19 z m 30.153,35.25 c 2.84,-1.27 4.597,-3.55 5.265,-7.02 1.403,-7.56 -0.57,-15.75 -7.828,-17.05 -10.902,-2.02 -27.055,-2.62 -27.004,12.77 0.055,17.16 16.973,16.95 29.567,11.3 z m -21.926,31.9 c 5.805,2.21 15.351,1.75 20.539,-0.99 2.641,-1.34 6.148,-5.66 4.68,-10.21 -1.86,-5.92 -7.375,-8.06 -13.649,-8.15 -6.019,-0.04 -12.906,0.43 -15.347,5.35 -2.305,4.65 -1.34,12.03 3.777,14 z m 6.773,25.76 c 5.301,1.94 13.129,1.8 16.973,-2.41 5.316,-5.79 1.137,-14.98 -8.863,-14.51 -3.528,0.13 -7.703,1.34 -9.832,2.57 -5.184,2.91 -3.457,12.48 1.722,14.35 z m 23.832,16.59 c 0.664,2.2 4.145,4.85 5.965,5.48 3.969,1.41 8.629,1.7 12.426,0.2 7.59,-3.14 6.555,-12.54 -1.555,-15.85 -3.629,-1.47 -9.215,-2.41 -11.953,-1.47 -5.117,1.73 -6.523,6.19 -4.883,11.64 z m 23.676,-36.79 c -8.297,-2.41 -19.867,-2.88 -22.34,5.61 -4.195,14.42 14.012,16.59 23.446,13.55 6.515,-2.04 8.828,-16.28 -1.106,-19.16 z m 5.485,47.63 c 2.624,8.96 12.746,13.8 21.937,11.06 7.879,-2.3 9.703,-13.04 4.383,-18.29 -2.422,-2.34 -6.418,-4.72 -10.719,-5.68 -9.383,-2.07 -18.609,3.07 -15.601,12.91 z m 41.253,-32.78 c -1.488,-5.82 -5.769,-9.83 -12.625,-11.38 -6.808,-1.47 -16.222,-1.9 -19.988,2.32 -3.594,3.98 -5.246,9.59 -2.254,13.88 6.02,8.55 17.063,11.57 26.891,9.36 5.586,-1.31 9.715,-7.03 7.976,-14.18 z m -3.66,34.31 c 3.66,8.1 12.938,12.18 21.867,9.46 1.79,-0.56 5.493,-3.44 5.989,-6.27 1.054,-5.66 -0.903,-10.82 -5.617,-13.76 -6.024,-3.85 -11.004,-6.01 -17.942,-3.14 -5.199,2.18 -6.473,8.93 -4.297,13.71 z m 38.422,-22.77 c 4.082,-6.93 -2.117,-13.85 -5.281,-15.76 -6.977,-4.08 -16.824,-6.59 -21.035,0.34 -4.149,6.79 -0.703,14.85 6.504,17.86 6.906,2.88 14.031,7.19 19.812,-2.44 z m 11.606,-26.39 c 4.55,-3.75 8.566,-11.67 3.082,-17.96 -5.118,-5.92 -11.508,-7.66 -19.586,-8.96 -5.45,-0.94 -12.426,3.11 -13.325,7.93 -0.804,4.14 -1.574,11.73 2.559,15.18 8.008,6.85 18.777,10.8 27.27,3.81 z m 9.668,45.02 c 4.312,-1.28 7.054,-5.86 4.898,-10.24 -1.316,-2.71 -5.187,-5.65 -7.641,-7.15 -6.773,-4.18 -12.574,-2.48 -14.683,2.51 -3.91,9.13 9.199,17.28 17.426,14.88 z m 16.492,-22.82 c 4.761,-0.43 6.941,-3.75 7.871,-7.35 1.22,-4.88 -0.38,-9.36 -4.48,-12.15 -4.903,-3.24 -10.985,-5.17 -15.868,-5.24 -6.594,-0.14 -12.711,9.56 -9.133,15.85 3.782,6.72 13.313,9.6 21.61,8.89 z m 27.281,-34.91 c 2.81,-8.26 -3.25,-12.11 -9.66,-15.52 -6.49,-3.48 -15.22,-6.68 -19.735,-2.41 -5.769,5.45 -8.328,14.58 -1.902,20.61 8.927,8.36 25.417,14.65 31.297,-2.68 z m 11.78,-20.74 c 10.46,-1.34 12.54,-16.22 10.43,-21.6 -2.41,-4.62 -7.66,-8.22 -10.43,-9.63 -7.66,-3.98 -16.63,-5.49 -23.68,-1.8 -6.44,3.31 -9.23,13.07 -5.73,20.73 4.73,10.3 19.64,13.57 29.41,12.3 z m 21.53,-46.05 c 3.58,-4.98 2.78,-13.88 0.68,-16.65 -6.63,-9.04 -24.99,-14.15 -32.55,-10.47 -5.75,2.81 -11.44,15.48 -4.69,23.11 7,7.89 19.21,12.61 30.28,10.3 2.47,-0.57 4.11,-3.27 6.28,-6.29 z m 4.62,-28.36 c 5.05,-0.57 9.53,-6.09 11.97,-12.14 3.15,-7.8 -0.06,-16.86 -2.54,-18.56 -6.02,-4.12 -25.08,-15.58 -37.09,-8.7 -6.61,3.78 -8.43,12.44 -8.83,17.56 -1.34,16.49 23.71,23.24 36.49,21.84 z m -70.383,-118.09 c -2.559,6.55 -4.934,16.22 0.199,20.2 10.384,8.2 33.894,15.39 42.824,2.97 5.82,-8.05 4.11,-21.7 -6.05,-26.92 -10.5,-5.35 -31.036,-11.53 -36.973,3.75 z m -50.414,-0.73 c 10.433,5.28 25.469,11.7 36.687,4.48 5.149,-3.32 10.43,-16.99 6.821,-23.04 -7.692,-12.89 -27.957,-16.16 -40.832,-12.82 -10.973,2.82 -14.286,25.52 -2.676,31.38 z m -9.367,44.47 c 12.578,8.87 37.422,14.59 43.41,-4.75 1.57,-5.02 2.437,-10.56 -0.117,-14.61 -6.973,-11.21 -24.664,-14.18 -36.504,-12.5 -12.793,1.87 -18.828,23.43 -6.789,31.86 z m -10.602,45.09 c 12.09,6.86 37.856,15.95 43.934,-3.68 2.422,-8.03 2.183,-17.92 -4.703,-21.48 -9.848,-5.17 -25.45,-10.56 -36.801,-3.5 -9.485,5.98 -10.758,23.91 -2.43,28.66 z m 67.672,81.04 c -5.063,-4.52 -10.195,-5.49 -16.938,-7.8 -9.429,-3.18 -19.312,4.08 -20.402,13.11 -1.805,15.45 14.75,17.76 25.719,19.7 7.976,1.44 12.93,-5.76 14.398,-10.57 1.504,-4.65 1.325,-10.87 -2.777,-14.44 z m 20.324,-36.36 c -7.19,-10.73 -36.176,-17.45 -42.558,-6.46 -4.668,8.07 -7.582,19.4 1.183,24.82 9.231,5.65 20.153,9.03 30.875,7.12 10.08,-1.8 15.21,-18.39 10.5,-25.48 z m 15.43,-66.35 c 4.13,-6.55 7,-15.39 0.89,-23.52 -5.56,-7.45 -25.37,-10.93 -35.519,-8.49 -5.566,1.43 -8.195,8.19 -9.051,12.74 -1.183,6.15 -1.722,12.37 3.731,17.39 7.855,7.23 18.329,7.07 28.409,7.07 4.13,0 9.99,-2.68 11.54,-5.19 z m -5.75,22.28 c -6.18,-11.35 -27.094,-12.82 -36.488,-11.58 -6.641,0.9 -11.29,11.58 -11.09,20.53 0.07,4.58 1.492,7.63 4.633,9.3 10.453,5.62 21.132,9.36 32.375,7.55 10.95,-1.73 15.21,-17.21 10.57,-25.8 z m -110.082,24.41 c -7.09,21.87 20.234,28.76 36.187,25.41 11.102,-2.34 14.813,-23.67 4.477,-30.4 -12.793,-8.33 -35.484,-11.01 -40.664,4.99 z m -41.207,-53.71 c 8.199,8.42 22.98,8.95 34.515,7.38 7.09,-0.97 10.133,-8.12 11.122,-15.88 2.757,-21.4 -25.934,-24.99 -39.594,-20 -9,3.27 -13.684,20.6 -6.043,28.5 z m -5.785,41.39 c 8.562,10.07 22.875,12.44 34.75,9.2 7.222,-1.97 10.586,-10.43 10.418,-19.9 -0.149,-5.38 -3.829,-9.3 -7.141,-10.63 -8.43,-3.44 -18.16,-5.99 -27.359,-4.85 -11.352,1.37 -18.227,17.26 -10.668,26.18 z m 1.371,45.09 c 10.519,4.32 30.133,8.16 33.441,-6.89 4.453,-20 -19.156,-23.27 -31.801,-19.8 -9.664,2.68 -11.504,22.75 -1.64,26.69 z m 75.718,33.11 c 7.875,-4.49 9.532,-17.09 4.731,-24.38 -6.371,-9.66 -28.141,-15.29 -39.848,-6.82 -6.672,4.85 -10.261,24.71 3.414,29.5 10.938,3.81 21.418,7.52 31.703,1.7 z m -11.152,14.38 c -8.93,-5.51 -21.656,-7.72 -30.098,-3.01 -7.343,4.02 -7.058,14.75 -3.425,20.5 5.984,9.63 20.867,10.67 31.132,7.66 8.86,-2.58 12.192,-19.06 2.391,-25.15 z m -72.289,15.69 c 0.902,2.84 2.172,3.68 3.965,4.55 7.504,3.57 15.73,4.54 22.926,-0.07 5.183,-3.38 4.73,-11.11 0.902,-15.12 -5.621,-5.92 -17.059,-6.15 -24.383,-2.3 -4.715,2.44 -4.929,8.29 -3.41,12.94 z m 2.406,-31.34 c 3.313,9.46 15.153,8.92 24.114,7.75 11.004,-1.4 13.211,-15.5 9.3,-21.46 -5.406,-8.2 -17.757,-6.62 -27.574,-5.39 -8,1.04 -8.48,11.61 -5.84,19.1 z m 155.52,-285.22 c 2.7,-10.7 0,-20.89 -9.53,-24.3 -12.263,-4.32 -28.83,-10.64 -38.619,-4.06 -11.199,7.49 -16.586,28.83 -3.726,37.16 15.199,9.93 45.445,16.46 51.875,-8.8 z m -16.528,33.31 c -8.226,-9.36 -21.667,-9.06 -34.847,-12.9 -5.082,-1.51 -11.137,3.01 -13.777,7.66 -4.883,8.69 -9.766,20.36 -0.418,28.79 7.742,7.03 18.273,6.43 27.742,9.27 4.246,1.26 9.461,2.77 14.633,-0.74 10.685,-7.26 14.825,-22.91 6.667,-32.08 z m 87.328,140.14 c 2.3,-6.79 5.41,-11.81 2.77,-18.59 -3.14,-8.3 -11.2,-9.47 -18.79,-12.18 -7.06,-2.58 -18.86,-5.82 -24.78,0.37 -6.79,7.05 -9.54,21.41 -1.41,27.56 10.57,7.85 36.62,18.69 42.21,2.84 z m 143.27,61.2 c 6.22,25.38 13.98,51.1 15.92,77.96 2.81,40.07 -5.82,81.7 -31.51,112.07 2.51,-13.07 5.86,-24.15 7.63,-37.89 2.08,-16.59 -0.27,-35.05 -4.55,-51.73 -3.21,-12.65 -8.93,-24.96 -14.58,-36.7 -6.65,-13.91 -16.62,-29.03 -26.55,-41.43 -27.8,-34.58 -71.14,-102.07 -71.14,-102.07 0,0 -3.64,0.26 -5.79,0.26 -0.49,8.4 19.47,37.19 29.51,53.31 22.1,35.38 38.82,54.38 58.05,85.05 12.04,19.33 21.24,42.84 24.18,64.14 5.99,43.45 -17.42,95.49 -51.1,112.81 7.69,-32.44 6.89,-78.16 -10.37,-97.39 -32.67,-36.45 -52.14,-63.67 -75.45,-110.4 -0.67,-1.23 -6.12,6.29 -10.63,9.24 -5.08,3.34 -2.24,13.37 -4.05,20.1 -1.64,5.75 -4.35,10.16 -5.15,11.17 -6.89,8.42 -13.58,8.95 -15.04,11.5 -1.68,2.87 -0.86,10 -6.9,18.13 -2.99,4.11 -10.67,7.15 -13.78,10.96 -3.38,4.22 -4.92,17.06 -14.21,22.35 -4.416,2.47 -6.494,10.16 -10.74,13.97 -13.074,11.57 -26.133,9.34 -28.625,10.07 -3.379,0.91 -9.949,9.27 -21.64,11.27 -11.434,1.94 -17.743,-5.68 -23.68,-2.91 -14.879,6.89 -29.16,7.46 -44.981,-10.2 -4.746,-5.22 -12.961,-0.34 -23.207,-8.16 -9,-6.86 -9.168,-13.21 -13.746,-14.08 -8.613,-1.6 -15.035,-8.49 -18.359,-16.02 -1.707,-3.87 -3.012,-11.71 -4.016,-16.85 -1.402,-7.12 -5.015,-13.71 -5.086,-18.93 -0.082,-7.29 2.207,-11.21 1.575,-14.48 -1.071,-4.71 -4.883,-9 -5.352,-13.42 -0.332,-2.5 -0.551,-9.16 1.273,-12.91 2.27,-4.65 -1.605,-8.65 -3.648,-13.57 -1.926,-4.58 -3.965,-12.4 -3.344,-17.93 0.821,-7.62 5.168,-10.4 1.789,-16.39 -5.535,-9.7 -12.527,-24.88 -0.265,-44.24 2.254,-3.51 -5.133,-10.41 -5.551,-20.54 -0.473,-11 6.172,-19.13 7.976,-23.98 0.348,-1.77 -2.91,-1.67 -3.027,-3.54 -29.234,30.9 -55.066,59.39 -88.945,86.22 -20.703,16.35 -41.172,30.13 -64.113,42.41 -61.301,32.84 -132.508,54.84 -197,46.82 24.296,-19.57 54.929,-33.52 79.878,-55.72 23.649,-21.07 45.102,-39.06 66.633,-61.41 33.801,-35.11 61.258,-70.7 89.871,-112 8.492,-12.24 14.098,-20.44 22.02,-33.18 7.961,-12.73 16.82,-26.32 24.078,-38.95 36.621,-63.59 66.621,-122.45 96.992,-187.59 8.43,-18.03 15.52,-36.9 23.762,-54.79 2.223,-4.84 5.363,-1.23 7.605,0 10.989,6.36 22.661,11.67 34.047,17.02 9.098,4.18 17.391,7.09 25.52,10.21 20.531,7.82 40.035,12.07 61.551,16.55 35.905,7.49 100.445,5.96 100.445,5.96 l 122.34,0.07 c 0.78,0 1.61,0 3.35,0 -1.31,35.04 -9.64,69.12 -11.64,104.3 -1.57,28.46 -0.6,56.02 0.4,84.58 2.74,77.36 14.08,160.4 31.37,230.9" /><path
             id="path54"
             style="fill:#ffffff;fill-opacity:1;fill-rule:nonzero;stroke:none"
             d="m 395.137,2295.17 c -23.883,-23.78 -30.989,-32.54 -44.918,-58.9 -8.192,-15.45 -18.594,-35.32 -21.571,-60.91 49.063,18.68 89.079,56.76 125.247,98.87 26.742,31.2 47.492,72.61 73.878,103.44 -46.468,-15.59 -95.515,-45.55 -132.636,-82.5" /><path
             id="path56"
             style="fill:#ffffff;fill-opacity:1;fill-rule:nonzero;stroke:none"
             d="m 254.703,2228.24 c 18.496,31.24 44.985,65.01 72.453,88.1 -12.722,-28.61 -28.371,-56.89 -33.758,-90.7 -10.683,-67.26 -20.769,-114.38 -31.921,-175.78 30.515,21.76 62.687,55.94 95.027,79.82 25,18.37 50.066,30.63 75.754,48.3 15.281,10.53 25.254,24.07 37.957,36.75 -15.149,-63.81 -71.168,-128.25 -111.27,-158.29 -50.394,-37.8 -68.457,-43.81 -149.425,-126.14 -10.282,101.66 -8.461,207.31 45.183,297.94" /><path
             id="path58"
             style="fill:#ffffff;fill-opacity:1;fill-rule:nonzero;stroke:none"
             d="m 89.5234,1890.6 c 3.7774,52.8 10.1016,95.04 22.9416,146.54 8.965,35.96 28.324,89.5 56.234,111.43 -3.426,-13.03 -5.215,-32.56 -6.535,-45.77 -5.469,-54.39 4.949,-117.57 6.188,-171.91 0.617,-26.72 0.382,-47.32 -3.618,-72.4 -4.144,-26.32 -0.679,-58.63 -0.679,-58.63 0,0 14.429,16.49 27.3,36.99 28.149,44.71 37.161,57.95 59.836,82.17 28.125,30.06 59.598,57.89 95.118,82.53 -4.282,-16.67 -22.414,-49.16 -29.918,-62.19 -10,-17.47 -14.532,-33.31 -38.207,-72.84 -33.313,-55.56 -48.164,-63.08 -85.153,-122.48 -7.992,-12.91 -40.836,-62.08 -48.793,-77.06 -17.324,35.86 -23.879,67.16 -45.1169,125.55 -13.3594,36.66 -11.3711,73.38 -9.5977,98.07" /><path
             id="path60"
             style="fill:#ffffff;fill-opacity:1;fill-rule:nonzero;stroke:none"
             d="M 38.0859,1615.95 C 18.0039,1668.02 8.78906,1716.32 2,1771.16 c -4.16406,33.55 -2.238281,78.27 9.7344,110.53 3.1445,-7.89 9.5625,-27.89 10.4336,-30.86 8.8984,-29.97 12.6093,-44.35 25.082,-73.24 9.4961,-22.18 21.1523,-39.83 33.6094,-61.74 11.3398,-20 20.9026,-46.33 29.0976,-66.45 26.371,-64.58 28.328,-125.01 38.41,-131.64 7.258,15.55 9.531,30.43 10.356,37.76 7.82,71.46 17.234,136.39 107.215,220.59 8.261,-25.04 4.066,-71.26 -0.899,-96.01 -10.738,-54.11 -19.434,-80.14 -43.277,-132.58 -12.59,-27.63 -29.414,-68.25 -34.012,-81.74 -12.09,-35.05 -16.223,-53.43 -23.828,-74.19 -42.492,70.78 -94.7658,143.89 -125.8361,224.36" /><path
             id="path62"
             style="fill:#ffffff;fill-opacity:1;fill-rule:nonzero;stroke:none"
             d="m 108.121,1290.34 c -30.2343,42.07 -41.2772,63.27 -60.9374,108.01 -16.5391,37.64 -21.3047,51.58 -30.9688,93.65 -5.289,22.95 -8.2773,43.78 -4.1836,57.37 23.6836,-42.88 39.8555,-90.87 70.8204,-126.43 24.5974,-28.2 48.2774,-52.21 67.8244,-76.01 29.984,-36.59 53.594,-71.24 82.39,-109.3 2.422,19.06 3.36,38.4 -0.937,69.7 -5.856,42.88 -2.242,77.99 5.25,119.5 9.48,52.63 16.453,78.69 34.715,131.96 22.34,-43.84 22.258,-94.54 27.855,-141.02 10.84,-90.17 -17.387,-197.73 -22.937,-242.61 -1.477,-11.77 0.566,-40.94 1.172,-52.31 -42.207,33.25 -79.75,66.82 -116.153,103.27 -16.593,16.6 -39.332,43.95 -53.91,64.22" /><path
             id="path64"
             style="fill:#ffffff;fill-opacity:1;fill-rule:nonzero;stroke:none"
             d="m 268.113,959.578 c -19.226,13.781 -70.867,53.242 -95.297,84.352 -35.597,45.21 -43.425,64.54 -66.921,116.58 -2.875,6.36 -16.1684,35.79 -17.2583,55.78 76.9373,-92.9 145.8323,-106.75 219.2463,-183.87 26.918,-28.23 54.512,-54.779 69.058,-68.158 11.168,-10.301 25.051,-13.383 25.051,-13.383 0,0 -1.441,19.812 -8.695,33.582 -48.961,93.579 -58.207,191.429 -50.785,296.449 22.355,-27.7 29.414,-46.15 43.593,-72.91 15.418,-29.16 23.293,-47.16 30.5,-65.08 41.907,-104.34 52.809,-224.74 78.692,-285.408 -79.899,26.949 -142.836,41.328 -227.184,102.066" /><path
             id="path66"
             style="fill:#ffffff;fill-opacity:1;fill-rule:nonzero;stroke:none"
             d="m 595.828,713.43 c -21.617,-1.41 -63.992,-1.34 -86.582,2.41 -114.398,18.262 -220.73,101.199 -274.207,192.238 48.492,-29.566 83.547,-49.367 126.199,-64.078 37.977,-13.18 74.012,-17.059 137.407,-35.051 38.273,-10.84 76.152,-26.09 89.46,-31.109 42.422,-15.781 60.286,-11.899 60.286,-11.899 0,0 0,6.418 -15.836,23.739 -31.586,34.449 -43.145,42.679 -69.133,69.172 -8.524,8.757 -28.074,38.457 -37.992,58.25 -28.075,55.859 -31.2,100.668 -56.836,162.068 93.558,-54.98 139.125,-130.76 188.594,-226.35 15.195,-29.218 35.765,-63.07 54.558,-81.672 12.645,-12.437 30.449,-31.359 30.449,-31.359 0,0 -13.039,-3.078 -53.656,-9.098 -18.227,-2.679 -57.055,-14.781 -92.711,-17.261" /><path
             id="path68"
             style="fill:#ffffff;fill-opacity:1;fill-rule:nonzero;stroke:none"
             d="m 1049.3,706.199 c 49.4,-8.078 93.31,-20.058 138.19,-35.508 12.07,-4.152 30.43,-13.25 43.17,-19.73 31.84,-16.191 50.17,-26.691 77.53,-45.492 44.05,-30.36 91.4,-63.078 134.1,-112.699 0.91,-0.942 7.84,-8.36 3.26,-11.981 -8.4,-6.551 -29.04,-15.848 -35.86,-9.828 -39.09,34.777 -37.12,45.891 -84.48,88.758 -12.17,10.972 -30.5,26.293 -52.41,41.34 -21.36,14.582 -47.22,30.562 -71.23,42.41 -21.84,10.761 -55.42,13.972 -74.28,13.972 l 0.27,-0.121 c -8.57,0.328 -57.86,0.59 -69.26,-0.14 -96.792,-6.621 -92.062,-15.321 -147.878,-30.442 -45.902,-12.5 -95.164,-21.398 -144.059,-27.957 -50.086,-6.82 -94.914,-7.621 -141.871,-2.801 -63.64,6.551 -133.258,24.282 -185.23,57.79 47.511,-0.809 96.304,-9.969 143.582,-6.36 19.875,1.539 52.152,4.551 73.992,11.301 43.43,13.309 68.34,18.539 114.309,31.379 39.531,10.969 79.363,14.769 120.617,19.129 57.105,6.082 109.998,4.75 157.538,-3.02" /><path
             id="path70"
             style="fill:#ffffff;fill-opacity:1;fill-rule:nonzero;stroke:none"
             d="m 1934.53,2295.17 c 23.88,-23.78 31,-32.54 44.91,-58.9 8.23,-15.45 18.64,-35.32 21.6,-60.91 -49.09,18.68 -89.09,56.76 -125.27,98.87 -26.76,31.2 -47.5,72.61 -73.85,103.44 46.46,-15.59 95.48,-45.55 132.61,-82.5" /><path
             id="path72"
             style="fill:#ffffff;fill-opacity:1;fill-rule:nonzero;stroke:none"
             d="m 2074.96,2228.24 c -18.5,31.24 -44.98,65.01 -72.44,88.1 12.84,-30.77 31.57,-69.06 33.78,-90.7 6.82,-67.73 20.73,-114.38 31.9,-175.78 -30.49,21.76 -62.7,55.94 -95.05,79.82 -24.95,18.37 -50.02,30.63 -75.71,48.3 -15.32,10.53 -25.25,24.07 -37.96,36.75 15.15,-63.81 71.14,-128.25 111.27,-158.29 50.36,-37.8 68.42,-43.81 149.36,-126.14 10.3,101.66 8.45,207.31 -45.15,297.94" /><path
             id="path74"
             style="fill:#ffffff;fill-opacity:1;fill-rule:nonzero;stroke:none"
             d="m 2240.18,1890.6 c -3.82,52.8 -10.11,95.04 -22.95,146.54 -8.96,35.96 -28.32,89.5 -56.28,111.43 3.43,-13.03 5.21,-32.56 6.55,-45.77 5.52,-54.39 -4.88,-117.57 -6.15,-171.91 -0.64,-26.72 -0.4,-47.32 3.57,-72.4 4.15,-26.32 0.73,-58.63 0.73,-58.63 0,0 -14.44,16.49 -27.35,36.99 -28.09,44.71 -37.12,57.95 -59.83,82.17 -28.13,30.06 -59.59,57.89 -95.15,82.53 4.35,-16.67 22.48,-49.16 29.97,-62.19 10.03,-17.47 14.51,-33.31 38.22,-72.84 33.28,-55.56 48.13,-63.08 85.08,-122.48 8.03,-12.91 40.91,-62.08 48.87,-77.06 17.32,35.86 23.85,67.16 45.12,125.55 13.38,36.66 11.4,73.38 9.6,98.07" /><path
             id="path76"
             style="fill:#ffffff;fill-opacity:1;fill-rule:nonzero;stroke:none"
             d="m 2291.61,1615.95 c 20.07,52.07 29.23,100.37 36.09,155.21 4.18,33.55 2.2,78.27 -9.74,110.53 -3.15,-7.89 -9.53,-27.89 -10.43,-30.86 -8.93,-29.97 -12.65,-44.35 -25.05,-73.24 -9.53,-22.18 -21.24,-39.83 -33.68,-61.74 -11.3,-20 -20.87,-46.33 -29.09,-66.45 -26.36,-64.58 -28.29,-125.01 -38.4,-131.64 -7.29,15.55 -9.53,30.43 -10.33,37.76 -7.86,71.46 -17.26,136.39 -107.22,220.59 -8.26,-25.04 -4.08,-71.26 0.83,-96.01 10.8,-54.11 19.53,-80.14 43.35,-132.58 12.57,-27.63 29.39,-68.25 34.04,-81.74 12,-35.05 16.18,-53.43 23.81,-74.19 42.48,70.78 94.75,143.89 125.82,224.36" /><path
             id="path78"
             style="fill:#ffffff;fill-opacity:1;fill-rule:nonzero;stroke:none"
             d="m 2221.57,1290.34 c 30.28,42.07 41.28,63.27 60.94,108.01 16.52,37.64 21.27,51.58 30.98,93.65 5.28,22.95 8.25,43.78 4.14,57.37 -23.62,-42.88 -39.87,-90.87 -70.83,-126.43 -24.55,-28.2 -48.24,-52.21 -67.8,-76.01 -29.97,-36.59 -53.64,-71.24 -82.37,-109.3 -2.41,19.06 -3.38,38.4 0.87,69.7 5.89,42.88 2.28,77.99 -5.19,119.5 -9.49,52.63 -16.45,78.69 -34.71,131.96 -22.31,-43.84 -22.27,-94.54 -27.85,-141.02 -10.87,-90.17 17.42,-197.73 22.94,-242.61 1.47,-11.77 -0.57,-40.94 -1.18,-52.31 42.18,33.25 79.73,66.82 116.13,103.27 16.62,16.6 39.28,43.95 53.93,64.22" /><path
             id="path80"
             style="fill:#ffffff;fill-opacity:1;fill-rule:nonzero;stroke:none"
             d="m 2061.58,959.578 c 19.2,13.781 70.83,53.242 95.29,84.352 35.61,45.21 43.43,64.54 66.92,116.58 2.84,6.36 16.18,35.79 17.25,55.78 -76.92,-92.9 -145.82,-106.75 -219.22,-183.87 -26.93,-28.23 -54.49,-54.779 -69.07,-68.158 -11.17,-10.301 -25.01,-13.383 -25.01,-13.383 0,0 1.4,19.812 8.63,33.582 48.99,93.579 58.26,191.429 50.77,296.449 -22.28,-27.7 -29.37,-46.15 -43.55,-72.91 -15.39,-29.16 -23.28,-47.16 -30.46,-65.08 -41.95,-104.34 -52.89,-224.74 -78.76,-285.408 79.96,26.949 142.87,41.328 227.21,102.066" /><path
             id="path82"
             style="fill:#ffffff;fill-opacity:1;fill-rule:nonzero;stroke:none"
             d="m 1733.87,713.43 c 21.63,-1.41 63.97,-1.34 86.61,2.41 114.38,18.262 220.7,101.199 274.18,192.238 -48.53,-29.566 -83.58,-49.367 -126.22,-64.078 -37.99,-13.18 -74.02,-17.059 -137.39,-35.051 -38.29,-10.84 -76.15,-26.09 -89.5,-31.109 -42.4,-15.781 -60.26,-11.899 -60.26,-11.899 0,0 0,6.418 15.85,23.739 31.57,34.449 43.18,42.679 69.1,69.172 8.55,8.757 28.09,38.457 38.03,58.25 28.05,55.859 31.2,100.668 56.85,162.068 -93.54,-54.98 -139.23,-130.76 -188.66,-226.35 -15.15,-29.218 -35.75,-63.07 -54.51,-81.672 -12.61,-12.437 -30.47,-31.359 -30.47,-31.359 0,0 13.04,-3.078 53.71,-9.098 18.19,-2.679 56.98,-14.781 92.68,-17.261" /><path
             id="path84"
             style="fill:#ffffff;fill-opacity:1;fill-rule:nonzero;stroke:none"
             d="m 1280.4,706.199 c -49.4,-8.078 -93.25,-20.058 -138.19,-35.508 -12.14,-4.152 -30.47,-13.25 -43.18,-19.73 -31.84,-16.191 -50.13,-26.691 -77.52,-45.492 -44.115,-30.36 -91.373,-63.078 -134.127,-112.699 -0.922,-0.942 -7.848,-8.36 -3.235,-11.981 8.403,-6.551 29.036,-15.848 35.825,-9.828 39.093,34.777 37.121,45.891 84.527,88.758 12.09,10.972 30.44,26.293 52.39,41.34 21.41,14.582 47.19,30.562 71.21,42.41 21.8,10.761 55.44,13.972 74.31,13.972 l -0.31,-0.121 c 8.6,0.328 57.83,0.59 69.27,-0.14 96.85,-6.621 92.07,-15.321 147.85,-30.442 45.96,-12.5 95.22,-21.398 144.11,-27.957 50.04,-6.82 94.92,-7.621 141.84,-2.801 63.68,6.551 133.28,24.282 185.21,57.79 -47.49,-0.809 -96.25,-9.969 -143.57,-6.36 -19.91,1.539 -52.11,4.551 -73.98,11.301 -43.41,13.309 -68.36,18.539 -114.28,31.379 -39.53,10.969 -79.36,14.769 -120.6,19.129 -57.16,6.082 -109.99,4.75 -157.55,-3.02" /><path
             id="path86"
             style="fill:#ffffff;fill-opacity:1;fill-rule:nonzero;stroke:none"
             d="m 1103.64,2834.65 -86.95,-322.87 h -92.303 l -57.754,210.33 -56.457,-210.33 h -92.071 l -86.957,322.87 h 86.903 l 49.531,-222.27 59.582,222.27 h 83.063 l 56.531,-222.27 52.002,222.27 h 84.88" /><path
             id="path88"
             style="fill:#ffffff;fill-opacity:1;fill-rule:nonzero;stroke:none"
             d="m 1390.5,2772.21 h -148.53 v -60.07 h 137.69 v -62.44 h -137.69 v -137.92 h -82.81 v 322.87 h 231.34 v -62.44" /><path
             id="path90"
             style="fill:#ffffff;fill-opacity:1;fill-rule:nonzero;stroke:none"
             d="m 1628.38,2730.91 c 0,9.06 -2.44,16.88 -7.35,23.44 -4.93,6.59 -10.64,11.14 -17.13,13.75 -8.69,3.47 -17.15,5.35 -25.38,5.72 -8.23,0.36 -19.23,0.57 -32.98,0.57 h -14.31 v -96.53 h 23.88 c 14.14,0 25.82,0.87 35.02,2.61 9.19,1.74 16.88,5.19 23.06,10.37 5.35,4.62 9.24,10.17 11.61,16.59 2.41,6.39 3.58,14.21 3.58,23.48 z m 86.08,1.84 c 0,-14.49 -2.5,-28.6 -7.58,-42.41 -5.05,-13.82 -12.28,-25.39 -21.67,-34.78 -12.89,-12.75 -27.23,-22.35 -43.05,-28.86 -15.82,-6.49 -35.55,-9.77 -59.09,-9.77 h -51.84 v -105.15 h -83.24 v 322.87 h 137.02 c 20.53,0 37.85,-1.77 51.93,-5.32 14.09,-3.54 26.6,-8.86 37.43,-15.95 13,-8.5 22.94,-19.43 29.8,-32.71 6.86,-13.31 10.29,-29.29 10.29,-47.92" /><path
             id="path92"
             style="fill:#ffffff;fill-opacity:1;fill-rule:nonzero;stroke:none"
             d="M 500.73,257.852 442.691,70.5703 H 378.945 L 340.77,196.859 303.062,70.5703 H 238.684 L 181.145,257.852 h 62.992 l 32.136,-129.09 39.965,129.09 h 53.211 l 38.012,-129.09 31.621,129.09 h 61.648" /><path
             id="path94"
             style="fill:#ffffff;fill-opacity:1;fill-rule:nonzero;stroke:none"
             d="m 651.184,286.09 h -4.485 c -2.676,0.801 -6.117,1.672 -10.398,2.672 -4.266,1 -8.828,1.468 -13.711,1.468 -11.774,0 -19.719,-2.07 -23.879,-6.281 -4.149,-4.289 -6.223,-12.437 -6.223,-24.551 v -1.546 h 46.184 V 217.191 H 594.477 V 70.5703 H 534.262 V 217.191 h -25.688 v 40.661 h 25.688 v 5.226 c 0,22.871 6.086,40.063 18.258,51.5 12.175,11.512 30.605,17.192 55.3,17.192 8.899,0 16.953,-0.27 24.184,-0.872 7.238,-0.668 13.625,-1.468 19.18,-2.476 V 286.09" /><path
             id="path96"
             style="fill:#ffffff;fill-opacity:1;fill-rule:nonzero;stroke:none"
             d="m 790.574,165.551 c 0,18.187 -3.109,31.429 -9.328,39.668 -6.207,8.222 -16.019,12.301 -29.465,12.301 -5.652,0 -11.469,-0.872 -17.457,-2.61 -5.984,-1.672 -11.707,-4.148 -17.156,-7.351 v -94.11 c 3.992,-1.539 8.277,-2.551 12.82,-3.008 4.555,-0.472 9.051,-0.671 13.485,-0.671 15.867,0 27.672,4.621 35.449,13.91 7.758,9.3 11.652,23.211 11.652,41.871 z m 61.871,1.269 c 0,-15.449 -2.355,-29.488 -7.07,-42.199 C 840.645,111.91 834.453,101.48 826.797,93.2383 818.805,84.6211 809.742,78 799.641,73.5898 c -10.098,-4.4882 -20.942,-6.6914 -32.493,-6.6914 -10.656,0 -19.714,1.1328 -27.136,3.4024 -7.461,2.2773 -15.051,5.4883 -22.844,9.6289 V 1.87891 H 656.969 V 257.852 h 60.199 v -19.461 c 9.227,7.3 18.629,13.238 28.242,17.859 9.613,4.551 20.684,6.828 33.242,6.828 23.328,0 41.453,-8.566 54.399,-25.687 12.941,-17.121 19.394,-40.672 19.394,-70.571" /><path
             id="path98"
             style="fill:#ffffff;fill-opacity:1;fill-rule:nonzero;stroke:none"
             d="m 880.906,70.5703 h 62.3945 v 65.5508 H 880.906 Z" /><path
             id="path100"
             style="fill:#ffffff;fill-opacity:1;fill-rule:nonzero;stroke:none"
             d="m 1102.68,118.602 c 3.91,4.808 6.82,10.558 8.76,17.25 1.94,6.757 2.94,16.058 2.94,27.957 0,11.043 -1,20.269 -3.01,27.703 -2,7.418 -4.78,13.367 -8.36,17.859 -3.55,4.539 -7.82,7.75 -12.84,9.688 -4.98,1.882 -10.37,2.812 -16.19,2.812 -5.75,0 -10.9,-0.801 -15.42,-2.34 -4.51,-1.543 -8.79,-4.679 -12.91,-9.359 -3.68,-4.293 -6.59,-10.242 -8.76,-17.863 -2.17,-7.559 -3.24,-17.059 -3.24,-28.5 0,-10.227 0.93,-19.129 2.82,-26.618 1.89,-7.492 4.67,-13.511 8.34,-18.062 3.55,-4.34 7.8,-7.488 12.78,-9.5 4.92,-2 10.57,-3.008 16.93,-3.008 5.41,0 10.63,0.867 15.58,2.75 4.95,1.801 9.16,4.879 12.58,9.231 z m 73.91,45.546 c 0,-30.769 -9,-55.058 -26.96,-72.7769 -17.96,-17.7813 -43.14,-26.6211 -75.65,-26.6211 -32.44,0 -57.66,8.8398 -75.617,26.6211 -17.957,17.7189 -26.957,42.0079 -26.957,72.7769 0,31.043 9.032,55.383 27.125,73.043 18.059,17.719 43.209,26.547 75.449,26.547 32.71,0 57.99,-8.886 75.82,-26.687 17.86,-17.789 26.79,-42.071 26.79,-72.903" /><path
             id="path102"
             style="fill:#ffffff;fill-opacity:1;fill-rule:nonzero;stroke:none"
             d="m 1338.32,200.672 h -5.35 c -2.54,0.859 -6.65,1.609 -12.31,2.008 -5.65,0.468 -10.37,0.66 -14.15,0.66 -8.52,0 -16.08,-0.539 -22.63,-1.668 -6.56,-1.133 -13.58,-3.012 -21.14,-5.684 V 70.5703 h -60.2 V 257.852 h 60.2 v -27.493 c 13.21,11.379 24.68,18.871 34.45,22.61 9.76,3.75 18.76,5.633 26.95,5.633 2.14,0 4.51,-0.071 7.19,-0.211 2.64,-0.141 4.99,-0.262 6.99,-0.539 v -57.18" /><path
             id="path104"
             style="fill:#ffffff;fill-opacity:1;fill-rule:nonzero;stroke:none"
             d="m 1477.18,129.629 v 84.883 c -3.44,1.476 -7.66,2.609 -12.64,3.41 -5.02,0.867 -9.5,1.269 -13.48,1.269 -15.75,0 -27.59,-4.543 -35.44,-13.57 -7.91,-9.101 -11.81,-21.742 -11.81,-37.992 0,-18 3.34,-30.57 10.07,-37.66 6.68,-7.16 16.65,-10.699 29.86,-10.699 5.99,0 11.88,0.941 17.62,2.871 5.79,1.879 11.07,4.347 15.82,7.488 z m 60.2,-37.5196 c 0,-17.5977 -2.48,-32.3711 -7.49,-44.3399 -5.02,-12.0507 -12.01,-21.4804 -21.03,-28.2383 C 1499.85,12.6484 1489.02,7.62891 1476.24,4.62109 1463.54,1.53906 1449.15,0 1433.13,0 c -13,0 -25.82,0.800781 -38.42,2.35156 -12.64,1.52735 -23.55,3.46875 -32.78,5.67969 V 54.9102 h 7.33 c 7.32,-2.9414 16.25,-5.5391 26.82,-7.961 10.53,-2.3281 19.96,-3.539 28.3,-3.539 11.1,0 20.12,1.0117 27.08,3.0898 6.93,2.0703 12.21,4.9414 15.89,8.7617 3.44,3.5391 5.95,8.0899 7.49,13.6367 1.58,5.5508 2.34,12.2305 2.34,20 v 3.543 c -7.22,-5.8906 -15.22,-10.5625 -24.01,-14.043 -8.77,-3.4179 -18.53,-5.1601 -29.29,-5.1601 -26.23,0 -46.43,7.8906 -60.65,23.6914 -14.21,15.7813 -21.33,39.7893 -21.33,72.0393 0,15.453 2.17,28.82 6.52,40.051 4.31,11.25 10.44,21.011 18.3,29.371 7.32,7.757 16.35,13.847 27.09,18.129 10.7,4.351 21.67,6.558 32.9,6.558 10.11,0 19.31,-1.207 27.56,-3.617 8.26,-2.41 15.82,-5.68 22.58,-9.902 l 2.17,8.293 h 58.36 V 92.1094" /><path
             id="path106"
             style="fill:#ffffff;fill-opacity:1;fill-rule:nonzero;stroke:none"
             d="M 1752.7,330.102 1620.39,16.5195 h -51.2 l 131.73,313.5825 h 51.78" /><path
             id="path108"
             style="fill:#ffffff;fill-opacity:1;fill-rule:nonzero;stroke:none"
             d="m 1920.71,200.129 h -5.28 c -2.54,0.941 -6.62,1.609 -12.28,2.012 -5.64,0.468 -10.33,0.66 -14.08,0.66 -8.52,0 -16.04,-0.52 -22.54,-1.672 -6.52,-1.059 -13.57,-2.938 -21.06,-5.609 V 70.5703 H 1785.5 V 257.121 h 59.97 V 229.77 c 13.14,11.23 24.61,18.789 34.31,22.468 9.73,3.75 18.7,5.551 26.85,5.551 2.11,0 4.48,0 7.13,-0.129 2.68,-0.14 4.98,-0.281 6.95,-0.539 v -56.992" /><path
             id="path110"
             style="fill:#ffffff;fill-opacity:1;fill-rule:nonzero;stroke:none"
             d="m 2123.52,70.5703 h -59.99 v 20.6016 c -11.04,-8.4219 -21.18,-14.7813 -30.35,-19.2031 -9.19,-4.3399 -20.12,-6.5469 -32.87,-6.5469 -20.56,0 -36.41,5.9492 -47.53,17.789 -11.13,11.8399 -16.68,29.3671 -16.68,52.5001 v 121.41 h 60 v -92.512 c 0,-9.418 0.3,-17.25 0.9,-23.539 0.61,-6.211 2.04,-11.441 4.25,-15.519 2.11,-4.071 5.28,-7.09 9.56,-8.961 4.25,-1.871 10.21,-2.809 17.86,-2.809 5.09,0 10.73,0.938 16.93,2.809 6.22,1.871 12.16,4.68 17.93,8.289 v 132.242 h 59.99 V 70.5703" /><path
             id="path112"
             style="fill:#ffffff;fill-opacity:1;fill-rule:nonzero;stroke:none"
             d="m 2784.96,1893.65 c 0,37.4 -18.28,56.13 -54.81,56.13 h -86.46 v -125.22 h 84.65 c 37.74,0 56.62,23.02 56.62,69.09 z m -9.64,181.42 c 0,38.46 -15.53,57.7 -46.58,57.7 h -85.05 V 2020.4 h 81.15 c 33.65,0 50.48,18.21 50.48,54.67 z m 88.83,-175.13 c 0,-48.17 -13.54,-86.62 -40.63,-115.32 -19.47,-20.46 -49.26,-30.69 -89.38,-30.69 h -166.43 v 449.48 h 164.88 c 34.54,0 63.34,-11.01 86.35,-32.98 23,-21.97 34.51,-50.22 34.51,-84.75 0,-38.32 -11.77,-69.13 -35.32,-92.42 11.83,-7.02 22.16,-18.46 30.99,-34.3 10.02,-18.28 15.03,-37.95 15.03,-59.02" /><path
             id="path114"
             style="fill:#ffffff;fill-opacity:1;fill-rule:nonzero;stroke:none"
             d="m 3156.18,1870.58 c -12.23,-87.05 -54.34,-130.57 -126.31,-130.57 -42.91,0 -74.9,19.23 -95.93,57.71 -16.66,30.45 -24.98,69.03 -24.98,115.71 0,51.11 9.42,92.18 28.29,123.24 23.03,37.67 58.42,56.51 106.15,56.51 38.69,0 68.37,-15.82 89.02,-47.46 15.84,-24.45 23.76,-51.87 23.76,-82.3 h -68.48 c -8,40.83 -25.56,61.27 -52.68,61.27 -20.77,0 -35.64,-14.05 -44.6,-42.14 -5.78,-18.26 -8.67,-40.52 -8.67,-66.81 0,-73.64 18.34,-110.45 55.06,-110.45 25.53,0 42.49,21.76 50.89,65.29 h 68.48" /><path
             id="path116"
             style="fill:#ffffff;fill-opacity:1;fill-rule:nonzero;stroke:none"
             d="m 3372.03,1950.84 c 0,18.5 -3.26,34.37 -9.74,47.65 -9.33,18.89 -23.75,28.34 -43.25,28.34 -19.5,0 -34.41,-8.65 -44.74,-25.94 -8.33,-14.08 -12.49,-30.75 -12.49,-50.05 z m 73.78,-34.5 c 0,-1.8 0,-4.63 0.04,-8.44 0.01,-3.82 0.03,-6.62 0.03,-8.43 h -184.07 v -20.7 c 0,-18.82 4.93,-35.61 14.82,-50.42 11.31,-16.81 25.75,-25.19 43.31,-25.19 11.52,0 22.46,4.61 32.86,13.87 10.4,9.27 16.81,19.63 19.23,31.11 h 70.17 c -6.22,-32.85 -20.27,-58.88 -42.14,-78.1 -22.47,-20.01 -50.17,-30.03 -83.08,-30.03 -42.33,0 -74.74,17.93 -97.21,53.79 -19.07,30.47 -28.6,68.15 -28.6,113.03 0,51.29 8.22,92.75 24.68,124.43 21.47,41.27 55.38,61.92 101.74,61.92 46.76,0 81.46,-21.99 104.14,-65.97 16.05,-31.14 24.08,-68.09 24.08,-110.87" /><path
             id="path118"
             style="fill:#ffffff;fill-opacity:1;fill-rule:nonzero;stroke:none"
             d="m 3804.5,1753.93 h -72.77 v 181.79 l -60.61,-181.79 h -42.44 l -60.7,185.41 v -185.41 h -73.84 v 334.97 h 78.91 l 77.07,-242.29 76.26,242.29 h 78.12 v -334.97" /><path
             id="path120"
             style="fill:#ffffff;fill-opacity:1;fill-rule:nonzero;stroke:none"
             d="m 4110.08,1753.93 h -70.64 v 209.62 L 3936.9,1753.93 h -70.84 v 333.89 h 70.64 l -0.2,-210.48 102.94,210.48 h 70.64 v -333.89" /><path
             id="path122"
             style="fill:#ffffff;fill-opacity:1;fill-rule:nonzero;stroke:none"
             d="m 4361.57,1914.17 c 0,74.38 -19.93,111.58 -59.77,111.58 -22.46,0 -38.95,-14.04 -49.47,-42.1 -7.09,-19.46 -10.62,-42.62 -10.62,-69.48 0,-27.07 3.53,-49.93 10.62,-68.57 10.1,-26.88 26.59,-40.31 49.47,-40.31 22.23,0 38.52,13.63 48.85,40.9 7.28,19.06 10.92,41.71 10.92,67.98 z m 70.66,-2.54 c 0,-46.49 -7.77,-84.57 -23.22,-114.22 -19.86,-38.27 -50.93,-57.4 -93.27,-57.4 -29.9,0 -54.57,16.17 -74.03,48.53 v -170.53 h -70.64 v 469.81 h 70.64 v -50.36 c 16.05,37.14 42.13,55.72 78.24,55.72 40.74,0 70.8,-21.45 90.27,-64.33 14.65,-32.06 22.01,-71.14 22.01,-117.22" /><path
             id="path124"
             style="fill:#ffffff;fill-opacity:1;fill-rule:nonzero;stroke:none"
             d="m 4726.53,1753.93 h -70.63 v 149.82 h -102.75 v -149.82 h -70.62 v 333.89 h 70.62 v -127.35 h 102.75 v 127.35 h 70.63 v -333.89" /><path
             id="path126"
             style="fill:#ffffff;fill-opacity:1;fill-rule:nonzero;stroke:none"
             d="m 4940.58,1885.86 v 31.5 c -13.12,-7.6 -34.93,-15.61 -65.45,-24.01 -8.67,-2.4 -16.16,-7.81 -22.44,-16.2 -6.36,-8.41 -9.51,-17.11 -9.51,-26.1 0,-31.22 11.64,-46.83 34.98,-46.83 41.62,0 62.42,27.21 62.42,81.64 z m 83.6,-131.93 h -76.02 c -5.07,8.43 -7.58,18.45 -7.58,30.09 v 3.32 c -26.16,-31.56 -55.05,-47.33 -86.56,-47.33 -27.36,0 -48.16,9.5 -62.34,28.48 -12.77,16.78 -19.13,39.36 -19.13,67.74 0,31.57 7.2,55.45 21.61,71.63 10.83,12.2 29.16,22.48 55.05,30.87 l 73.6,23.98 c 11.81,5 17.77,16.09 17.77,33.28 0,26.97 -14.35,40.47 -43.01,40.47 -31.24,0 -47.89,-19.98 -49.9,-59.94 h -66.42 c 0,77.77 37.85,116.66 113.51,116.66 75.48,0 113.24,-35.3 113.24,-105.86 v -182.26 c 0,-14.85 5.35,-27.98 16.18,-39.41 v -11.72" /><path
             id="path128"
             style="fill:#ffffff;fill-opacity:1;fill-rule:nonzero;stroke:none"
             d="m 5243.11,1936.93 v 88.82 h -44.92 c -40,0 -59.96,-13.71 -59.96,-41.11 0,-20 5.81,-33.42 17.45,-40.21 8.43,-5 23.01,-7.5 43.71,-7.5 z m 70.63,-183 h -70.63 v 124.14 h -46.75 l -64.58,-124.14 h -80.24 l 79.73,139.87 c -43.88,15.63 -65.81,46.22 -65.81,91.76 0,56.76 31.97,89.93 95.91,99.56 12.08,1.81 32.78,2.7 62.14,2.7 h 90.23 v -333.89" /><path
             id="path130"
             style="fill:#ffffff;fill-opacity:1;fill-rule:nonzero;stroke:none"
             d="m 2858.8,1137.47 h -75.98 v 378.87 h -145.55 v -378.87 h -75.98 v 449.5 h 297.51 v -449.5" /><path
             id="path132"
             style="fill:#ffffff;fill-opacity:1;fill-rule:nonzero;stroke:none"
             d="m 3111.24,1297.73 c 0,74.38 -19.93,111.59 -59.78,111.59 -22.47,0 -38.95,-14.05 -49.47,-42.11 -7.09,-19.44 -10.61,-42.63 -10.61,-69.48 0,-27.09 3.52,-49.94 10.61,-68.56 10.1,-26.89 26.59,-40.33 49.47,-40.33 22.24,0 38.52,13.64 48.86,40.94 7.27,19.02 10.92,41.67 10.92,67.95 z m 70.64,-2.54 c 0,-46.49 -7.73,-84.54 -23.19,-114.21 -19.86,-38.29 -50.95,-57.42 -93.29,-57.42 -29.89,0 -54.56,16.18 -74.02,48.55 v -170.56 h -70.64 v 469.84 h 70.64 v -50.36 c 16.05,37.14 42.12,55.71 78.24,55.71 40.73,0 70.82,-21.46 90.28,-64.33 14.65,-32.06 21.98,-71.14 21.98,-117.22" /><path
             id="path134"
             style="fill:#ffffff;fill-opacity:1;fill-rule:nonzero;stroke:none"
             d="m 3417.31,1300.3 c 0,27.3 -3.94,50.47 -11.8,69.57 -11.12,26.28 -28.49,39.45 -52.1,39.45 -24.23,0 -41.81,-13.06 -52.72,-39.15 -7.87,-18.66 -11.79,-41.98 -11.79,-69.87 0,-72.87 21.5,-109.32 64.51,-109.32 42.61,0 63.9,36.45 63.9,109.32 z m 70.64,0 c 0,-49.69 -9.83,-90.05 -29.46,-121.13 -23.46,-37.09 -58.55,-55.61 -105.24,-55.61 -47.1,0 -82.38,18.45 -105.83,55.31 -19.44,30.84 -29.16,71.34 -29.16,121.43 0,49.7 9.82,90.07 29.46,121.14 23.44,36.85 58.63,55.3 105.53,55.3 46.69,0 81.78,-18.55 105.24,-55.6 19.63,-31.07 29.46,-71.33 29.46,-120.84" /><path
             id="path136"
             style="fill:#ffffff;fill-opacity:1;fill-rule:nonzero;stroke:none"
             d="m 3721.26,1203.82 v 201.21 h -70.63 c 0,-91.18 -10.78,-158.2 -32.32,-201.21 z m 97.38,-148.76 h -70.63 v 82.41 h -158.39 v -82.41 h -70.64 v 148.76 h 24.67 c 27.07,47.35 40.62,136.52 40.62,267.57 h 207.61 v -267.57 h 26.76 v -148.76" /><path
             id="path138"
             style="fill:#ffffff;fill-opacity:1;fill-rule:nonzero;stroke:none"
             d="m 4043.69,1300.3 c 0,27.3 -3.94,50.47 -11.81,69.57 -11.12,26.28 -28.49,39.45 -52.1,39.45 -24.23,0 -41.8,-13.06 -52.71,-39.15 -7.88,-18.66 -11.81,-41.98 -11.81,-69.87 0,-72.87 21.51,-109.32 64.52,-109.32 42.6,0 63.91,36.45 63.91,109.32 z m 70.64,0 c 0,-49.69 -9.84,-90.05 -29.47,-121.13 -23.46,-37.09 -58.54,-55.61 -105.23,-55.61 -47.11,0 -82.39,18.45 -105.83,55.31 -19.45,30.84 -29.17,71.34 -29.17,121.43 0,49.7 9.81,90.07 29.46,121.14 23.45,36.85 58.63,55.3 105.54,55.3 46.69,0 81.77,-18.55 105.23,-55.6 19.63,-31.07 29.47,-71.33 29.47,-120.84" /><path
             id="path140"
             style="fill:#ffffff;fill-opacity:1;fill-rule:nonzero;stroke:none"
             d="m 4343.35,1241.57 c 0,26.93 -15.68,40.37 -47.06,40.37 h -61.04 v -87.75 h 59.82 c 32.18,0 48.28,15.78 48.28,47.38 z m -12.84,134.81 c 0,25.52 -13.9,38.29 -41.69,38.29 h -53.57 v -76.01 h 51.74 c 29,0 43.52,12.58 43.52,37.72 z m 86.67,-139.65 c 0,-26.66 -7.63,-49.1 -22.88,-67.35 -17.73,-21.27 -42.42,-31.91 -74.16,-31.91 h -155.52 v 333.92 h 148.36 c 26.52,0 48.4,-7.93 65.6,-23.76 17.19,-15.85 25.76,-36.91 25.76,-63.18 0,-10.84 -3.85,-23.18 -11.55,-37.02 -8.52,-15.06 -18.36,-25.25 -29.51,-30.63 16.77,-2.62 30.19,-12.65 40.28,-30.11 9.07,-15.24 13.62,-31.9 13.62,-49.96" /><path
             id="path142"
             style="fill:#ffffff;fill-opacity:1;fill-rule:nonzero;stroke:none"
             d="m 4655.9,1300.3 c 0,27.3 -3.95,50.47 -11.77,69.57 -11.14,26.28 -28.5,39.45 -52.11,39.45 -24.25,0 -41.81,-13.06 -52.7,-39.15 -7.9,-18.66 -11.85,-41.98 -11.85,-69.87 0,-72.87 21.54,-109.32 64.55,-109.32 42.61,0 63.88,36.45 63.88,109.32 z m 70.63,0 c 0,-49.69 -9.83,-90.05 -29.43,-121.13 -23.48,-37.09 -58.56,-55.61 -105.24,-55.61 -47.12,0 -82.38,18.45 -105.85,55.31 -19.44,30.84 -29.17,71.34 -29.17,121.43 0,49.7 9.83,90.07 29.5,121.14 23.41,36.85 58.59,55.3 105.52,55.3 46.68,0 81.76,-18.55 105.24,-55.6 19.6,-31.07 29.43,-71.33 29.43,-120.84" /><path
             id="path144"
             style="fill:#ffffff;fill-opacity:1;fill-rule:nonzero;stroke:none"
             d="m 5029.4,1137.47 h -70.63 v 267.56 h -80.26 v -163.46 c 0,-27.92 -7.04,-52.19 -21.15,-72.87 -15.89,-23.67 -37.21,-35.51 -64.01,-35.51 -14.47,0 -26.05,1.2 -34.71,3.61 v 62.4 c 4.68,-1.93 10.83,-2.87 18.56,-2.87 20.44,0 30.67,16.72 30.67,50.23 v 224.83 h 221.53 v -333.92" /><path
             id="path146"
             style="fill:#ffffff;fill-opacity:1;fill-rule:nonzero;stroke:none"
             d="m 5253.61,1241.01 c 0,31.57 -17.43,47.36 -52.2,47.36 h -34.49 v -94.18 h 37.46 c 32.81,0 49.23,15.59 49.23,46.82 z m 70.64,3.28 c 0,-35.99 -12.55,-63.34 -37.56,-82.07 -22.25,-16.5 -51.88,-24.75 -88.9,-24.75 h -101.5 v 333.92 h 70.63 v -126.3 h 51.04 c 32.4,0 58.03,-8.57 76.85,-25.63 19.6,-17.72 29.44,-42.77 29.44,-75.17" /><path
             id="path148"
             style="fill:#ffffff;fill-opacity:1;fill-rule:nonzero;stroke:none"
             d="m 5607.51,1254.12 c -12.24,-87.02 -54.38,-130.56 -126.35,-130.56 -42.87,0 -74.88,19.25 -95.92,57.72 -16.65,30.43 -24.95,69.02 -24.95,115.71 0,51.11 9.41,92.18 28.26,123.25 23.05,37.65 58.43,56.5 106.16,56.5 38.69,0 68.39,-15.82 89.03,-47.46 15.81,-24.44 23.77,-51.87 23.77,-82.32 h -68.49 c -8.02,40.85 -25.55,61.28 -52.7,61.28 -20.74,0 -35.63,-14.04 -44.59,-42.13 -5.78,-18.28 -8.66,-40.52 -8.66,-66.81 0,-73.64 18.33,-110.46 55.05,-110.46 25.55,0 42.48,21.77 50.9,65.28 h 68.49" /><path
             id="path150"
             style="fill:#ffffff;fill-opacity:1;fill-rule:nonzero;stroke:none"
             d="m 5888.24,1405.03 h -87.35 v -267.56 h -70.64 v 267.56 h -88.82 v 66.36 h 246.81 v -66.36" /><path
             id="path152"
             style="fill:#ffffff;fill-opacity:1;fill-rule:nonzero;stroke:none"
             d="m 6114.12,1241.57 c 0,26.93 -15.71,40.37 -47.09,40.37 h -60.99 v -87.75 h 59.79 c 32.18,0 48.29,15.78 48.29,47.38 z m -12.84,134.81 c 0,25.52 -13.91,38.29 -41.7,38.29 h -53.54 v -76.01 h 51.69 c 29.04,0 43.55,12.58 43.55,37.72 z m 86.69,-139.65 c 0,-26.66 -7.66,-49.1 -22.94,-67.35 -17.67,-21.27 -42.41,-31.91 -74.12,-31.91 H 5935.4 v 333.92 h 148.36 c 26.48,0 48.36,-7.93 65.55,-23.76 17.18,-15.85 25.82,-36.91 25.82,-63.18 0,-10.84 -3.88,-23.18 -11.58,-37.02 -8.52,-15.06 -18.35,-25.25 -29.5,-30.63 16.73,-2.62 30.17,-12.65 40.28,-30.11 9.09,-15.24 13.64,-31.9 13.64,-49.96" /><path
             id="path154"
             style="fill:#ffffff;fill-opacity:1;fill-rule:nonzero;stroke:none"
             d="m 6408.5,1334.39 c 0,18.52 -3.28,34.37 -9.77,47.65 -9.33,18.9 -23.74,28.34 -43.24,28.34 -19.5,0 -34.42,-8.64 -44.75,-25.93 -8.33,-14.08 -12.47,-30.74 -12.47,-50.06 z m 73.78,-34.49 c 0,-1.8 0,-4.64 0,-8.45 0.02,-3.82 0.06,-6.62 0.06,-8.43 h -184.07 v -20.67 c 0,-18.83 4.91,-35.66 14.82,-50.43 11.29,-16.79 25.75,-25.22 43.31,-25.22 11.5,0 22.47,4.61 32.83,13.91 10.44,9.23 16.82,19.6 19.27,31.1 h 70.16 c -6.22,-32.84 -20.26,-58.9 -42.14,-78.12 -22.47,-20 -50.16,-30.03 -83.07,-30.03 -42.35,0 -74.78,17.92 -97.26,53.8 -19.06,30.47 -28.55,68.13 -28.55,113.01 0,51.3 8.22,92.78 24.67,124.45 21.48,41.27 55.39,61.92 101.74,61.92 46.76,0 81.47,-21.99 104.14,-65.97 16.06,-31.13 24.09,-68.09 24.09,-110.87" /><path
             id="path156"
             style="fill:#ffffff;fill-opacity:1;fill-rule:nonzero;stroke:none"
             d="m 6777.78,1137.47 h -70.63 v 149.83 h -102.74 v -149.83 h -70.63 v 333.92 h 70.63 v -127.37 h 102.74 v 127.37 h 70.63 v -333.92" /><path
             id="path158"
             style="fill:#ffffff;fill-opacity:1;fill-rule:nonzero;stroke:none"
             d="m 7086.01,1137.47 h -70.64 V 1287.3 H 6912.63 V 1137.47 H 6842 v 333.92 h 70.63 v -127.37 h 102.74 v 127.37 h 70.64 v -333.92" /><path
             id="path160"
             style="fill:#ffffff;fill-opacity:1;fill-rule:nonzero;stroke:none"
             d="m 7300.05,1269.44 v 31.5 c -13.05,-7.63 -34.85,-15.66 -65.42,-24.01 -8.62,-2.41 -16.12,-7.83 -22.47,-16.23 -6.32,-8.38 -9.5,-17.09 -9.5,-26.11 0,-31.2 11.67,-46.82 34.98,-46.82 41.61,0 62.41,27.22 62.41,81.67 z m 83.61,-131.97 h -75.98 c -5.09,8.42 -7.63,18.46 -7.63,30.1 v 3.34 c -26.15,-31.57 -54.98,-47.35 -86.55,-47.35 -27.36,0 -48.1,9.49 -62.28,28.49 -12.77,16.79 -19.2,39.37 -19.2,67.76 0,31.57 7.23,55.45 21.68,71.64 10.8,12.16 29.16,22.47 54.98,30.83 l 73.64,24.01 c 11.84,4.98 17.73,16.06 17.73,33.26 0,26.97 -14.32,40.47 -42.94,40.47 -31.31,0 -47.9,-19.98 -49.9,-59.95 h -66.42 c 0,77.77 37.79,116.67 113.51,116.67 75.45,0 113.17,-35.3 113.17,-105.87 v -182.24 c 0,-14.84 5.42,-27.98 16.19,-39.42 v -11.74" /><path
             id="path162"
             style="fill:#ffffff;fill-opacity:1;fill-rule:nonzero;stroke:none"
             d="m 7602.58,1320.47 v 88.85 h -44.87 c -40,0 -60,-13.71 -60,-41.13 0,-20 5.82,-33.4 17.49,-40.19 8.42,-5.02 23,-7.53 43.71,-7.53 z m 70.63,-183 h -70.63 v 124.14 h -46.75 l -64.55,-124.14 h -80.26 l 79.79,139.89 c -43.94,15.62 -65.88,46.23 -65.88,91.75 0,56.76 31.97,89.93 95.95,99.57 12.07,1.81 32.8,2.71 62.17,2.71 h 90.16 v -333.92" /><path
             id="path164"
             style="fill:#ffffff;fill-opacity:1;fill-rule:nonzero;stroke:none"
             d="m 2858.8,521.031 h -75.98 V 899.879 H 2637.27 V 521.031 h -75.98 V 970.52 H 2858.8 V 521.031" /><path
             id="path166"
             style="fill:#ffffff;fill-opacity:1;fill-rule:nonzero;stroke:none"
             d="m 3111.24,681.289 c 0,74.391 -19.93,111.57 -59.78,111.57 -22.47,0 -38.95,-14.05 -49.47,-42.07 -7.09,-19.469 -10.61,-42.641 -10.61,-69.5 0,-27.09 3.52,-49.93 10.61,-68.559 10.1,-26.89 26.59,-40.339 49.47,-40.339 22.24,0 38.52,13.66 48.86,40.937 7.27,19.031 10.92,41.672 10.92,67.961 z m 70.64,-2.539 c 0,-46.488 -7.73,-84.551 -23.19,-114.211 -19.86,-38.301 -50.95,-57.43 -93.29,-57.43 -29.89,0 -54.56,16.192 -74.02,48.571 V 385.109 h -70.64 V 854.93 h 70.64 v -50.371 c 16.05,37.16 42.12,55.722 78.24,55.722 40.73,0 70.82,-21.429 90.28,-64.312 14.65,-32.071 21.98,-71.129 21.98,-117.219" /><path
             id="path168"
             style="fill:#ffffff;fill-opacity:1;fill-rule:nonzero;stroke:none"
             d="m 3417.31,683.871 c 0,27.277 -3.94,50.469 -11.8,69.559 -11.12,26.289 -28.49,39.429 -52.1,39.429 -24.23,0 -41.81,-13.039 -52.72,-39.129 -7.87,-18.66 -11.79,-41.968 -11.79,-69.859 0,-72.883 21.5,-109.332 64.51,-109.332 42.61,0 63.9,36.449 63.9,109.332 z m 70.64,0 c 0,-49.699 -9.83,-90.07 -29.46,-121.133 -23.46,-37.09 -58.55,-55.629 -105.24,-55.629 -47.1,0 -82.38,18.469 -105.83,55.321 -19.44,30.832 -29.16,71.34 -29.16,121.441 0,49.699 9.82,90.059 29.46,121.129 23.44,36.859 58.63,55.281 105.53,55.281 46.69,0 81.78,-18.519 105.24,-55.582 19.63,-31.07 29.46,-71.34 29.46,-120.828" /><path
             id="path170"
             style="fill:#ffffff;fill-opacity:1;fill-rule:nonzero;stroke:none"
             d="M 3753.19,788.578 H 3611.03 V 521.031 h -70.64 V 854.93 h 212.8 v -66.352" /><path
             id="path172"
             style="fill:#ffffff;fill-opacity:1;fill-rule:nonzero;stroke:none"
             d="m 3984.73,681.289 c 0,74.391 -19.94,111.57 -59.78,111.57 -22.46,0 -38.94,-14.05 -49.47,-42.07 -7.09,-19.469 -10.62,-42.641 -10.62,-69.5 0,-27.09 3.53,-49.93 10.62,-68.559 10.11,-26.89 26.59,-40.339 49.47,-40.339 22.24,0 38.53,13.66 48.86,40.937 7.27,19.031 10.92,41.672 10.92,67.961 z m 70.63,-2.539 c 0,-46.488 -7.72,-84.551 -23.17,-114.211 -19.88,-38.301 -50.96,-57.43 -93.29,-57.43 -29.91,0 -54.57,16.192 -74.04,48.571 V 385.109 h -70.63 V 854.93 h 70.63 v -50.371 c 16.06,37.16 42.12,55.722 78.25,55.722 40.73,0 70.82,-21.429 90.28,-64.312 14.65,-32.071 21.97,-71.129 21.97,-117.219" /><path
             id="path174"
             style="fill:#ffffff;fill-opacity:1;fill-rule:nonzero;stroke:none"
             d="m 4255.49,653 v 31.5 c -13.08,-7.621 -34.88,-15.648 -65.43,-24.012 -8.64,-2.41 -16.14,-7.816 -22.46,-16.218 -6.34,-8.399 -9.49,-17.09 -9.49,-26.122 0,-31.207 11.65,-46.82 34.98,-46.82 41.6,0 62.4,27.223 62.4,81.672 z m 83.61,-131.969 h -76 c -5.08,8.418 -7.61,18.449 -7.61,30.09 v 3.348 c -26.15,-31.571 -55.01,-47.36 -86.55,-47.36 -27.36,0 -48.13,9.5 -62.31,28.5 -12.77,16.782 -19.16,39.36 -19.16,67.762 0,31.559 7.21,55.449 21.64,71.629 10.81,12.18 29.16,22.48 55.01,30.84 l 73.62,24.019 c 11.83,4.981 17.75,16.051 17.75,33.243 0,26.988 -14.33,40.468 -42.98,40.468 -31.27,0 -47.89,-19.968 -49.89,-59.941 h -66.42 c 0,77.793 37.82,116.652 113.51,116.652 75.47,0 113.2,-35.281 113.2,-105.84 V 572.199 c 0,-14.847 5.39,-28 16.19,-39.429 v -11.739" /><path
             id="path176"
             style="fill:#ffffff;fill-opacity:1;fill-rule:nonzero;stroke:none"
             d="m 4693.96,521.031 h -72.78 v 181.797 l -60.59,-181.797 h -42.48 l -60.67,185.41 v -185.41 h -73.85 v 334.981 h 78.9 l 77.09,-242.282 76.25,242.282 h 78.13 V 521.031" /><path
             id="path178"
             style="fill:#ffffff;fill-opacity:1;fill-rule:nonzero;stroke:none"
             d="m 5062.65,521.031 h -72.78 v 181.797 l -60.6,-181.797 h -42.4 l -60.74,185.41 v -185.41 h -73.84 v 334.981 h 78.92 l 77.06,-242.282 76.25,242.282 h 78.13 V 521.031" /><path
             id="path180"
             style="fill:#ffffff;fill-opacity:1;fill-rule:nonzero;stroke:none"
             d="m 5274.07,653 v 31.5 c -13.1,-7.621 -34.91,-15.648 -65.45,-24.012 -8.65,-2.41 -16.15,-7.816 -22.44,-16.218 -6.35,-8.399 -9.49,-17.09 -9.49,-26.122 0,-31.207 11.64,-46.82 34.98,-46.82 41.6,0 62.4,27.223 62.4,81.672 z m 83.62,-131.969 h -76.02 c -5.09,8.418 -7.6,18.449 -7.6,30.09 v 3.348 c -26.15,-31.571 -55.04,-47.36 -86.54,-47.36 -27.36,0 -48.16,9.5 -62.34,28.5 -12.78,16.782 -19.14,39.36 -19.14,67.762 0,31.559 7.19,55.449 21.61,71.629 10.84,12.18 29.17,22.48 55.05,30.84 l 73.61,24.019 c 11.81,4.981 17.75,16.051 17.75,33.243 0,26.988 -14.34,40.468 -43.01,40.468 -31.23,0 -47.89,-19.968 -49.89,-59.941 h -66.42 c 0,77.793 37.86,116.652 113.51,116.652 75.48,0 113.24,-35.281 113.24,-105.84 V 572.199 c 0,-14.847 5.36,-28 16.19,-39.429 v -11.739" /></g></g></g></g></svg>