<?xml version="1.0" encoding="UTF-8" standalone="no"?>
<svg
   xmlns:dc="http://purl.org/dc/elements/1.1/"
   xmlns:cc="http://creativecommons.org/ns#"
   xmlns:rdf="http://www.w3.org/1999/02/22-rdf-syntax-ns#"
   xmlns:svg="http://www.w3.org/2000/svg"
   xmlns="http://www.w3.org/2000/svg"
   viewBox="0 0 310.62668 377.94666"
   height="377.94666"
   width="310.62668"
   xml:space="preserve"
   id="svg2"
   version="1.1"><metadata
     id="metadata8"><rdf:RDF><cc:Work
         rdf:about=""><dc:format>image/svg+xml</dc:format><dc:type
           rdf:resource="http://purl.org/dc/dcmitype/StillImage" /></cc:Work></rdf:RDF></metadata><defs
     id="defs6"><clipPath
       id="clipPath20"
       clipPathUnits="userSpaceOnUse"><path
         id="path18"
         d="M 0,2834.64 V 0 h 2329.68 v 2834.64 z" /></clipPath></defs><g
     transform="matrix(1.3333333,0,0,-1.3333333,0,377.94667)"
     id="g10"><g
       transform="scale(0.1)"
       id="g12"><g
         id="g14"><g
           clip-path="url(#clipPath20)"
           id="g16"><path
             id="path22"
             style="fill:#ffffff;fill-opacity:1;fill-rule:nonzero;stroke:none"
             d="m 1340.5,2131.15 c 12.51,27.07 24.09,48.63 40.79,74.31 7.37,11.32 15.69,19.22 23.11,30.66 -3.54,1.03 -8.73,-1.9 -10.96,-3.49 -7.42,-5.38 -10.77,-14.12 -16.71,-18.8 -14.03,-11.08 -13.64,-21.1 -21,-26.28 -6.57,-4.64 -8.45,-7.69 -13.05,-14.9 -3.08,-4.83 -5.35,-8.73 -8.6,-18.22 -1.15,-3.44 -3.45,-0.41 -8.92,-7.95 -7.19,-9.8 -10.41,-20.39 -13.39,-32.25 -0.96,-3.91 -7.59,-5.98 -11.86,-14.07 -5.71,-10.93 -9.43,-21.04 -11.9,-36.96 -0.62,-3.69 -6.86,-6.25 -11.16,-16.53 -3.05,-7.22 -5.24,-8.83 -7.9,-22.45 -1.65,-8.31 -5.43,-9.5 -9.7,-21.56 -3.3,-9.2 -3.43,-18.06 -4.58,-30.09 -0.27,-2.32 -4.2,-6.95 -7.83,-13.68 -6.1,-11.26 -5.9,-18.78 -8.32,-30.41 -0.93,-4.21 -5.65,-9.78 -10.18,-27.8 -3.98,-15.97 -0.33,-26.57 -1.68,-34.45 -3.53,-20.44 -7.03,-38.2 -5.14,-58.35 0.94,-9.84 2.44,-20.01 1.78,-29.47 -1.87,-29.71 -3.48,-54.17 -3.32,-87.83 0.11,-18.32 1.54,-43.41 4.32,-64.3 3.04,-23.06 7.44,-41.06 7.44,-41.06 h 75.14 c 0,0 -2.94,43.44 0.95,89.19 2.31,27.42 8.83,56.48 14.76,76.89 7.51,26.03 12.18,39.5 26.37,73.85 0.3,0.76 -0.1,3.97 -3.85,0.83 -7.84,-6.59 -14.39,-12.38 -20.58,-21.69 -9.45,-14.26 -15.21,-26 -22.87,-40.64 -8.95,-17.02 -13.89,-31.84 -23.11,-52.52 -0.54,14.93 1.88,29.13 4.91,42.88 3.1,14.04 5.56,25.15 9.98,37.25 7.83,21.35 15.43,39.16 27.99,59.03 7.27,11.48 16.57,21.77 26.01,30.33 11.29,10.31 21.73,19.39 33.55,29.49 -12.42,6.41 -28.96,-6.95 -32.27,-7.64 -17.47,-3.42 -24.58,-19.61 -29.93,-21.83 -7.65,-3.2 -12.07,-7.87 -17.38,-14.33 -4.09,-4.85 -5.32,-12.33 -9.59,-14.98 -7.13,-4.44 -12.37,-11.14 -17.27,-20.5 -2.01,-3.87 -7.5,-22.13 -13.59,-19.78 10.42,61.92 32.28,120 67.38,171.7 22.25,32.77 46.45,60.87 82.12,86.09 4.7,3.34 5.61,4.89 -0.95,4.67 -33.34,-4.06 -35.38,-19.28 -40.87,-20.72 -5.2,-1.34 -11.65,-7.52 -15.77,-11.53 -7.41,-7.32 -7.28,-13.49 -10.13,-15.43 -6.08,-4.24 -10.66,-8.65 -14.81,-16.01 -2.19,-3.85 -5.86,-12.31 -9.11,-14.24 -8.57,-4.96 -16.86,-12.19 -20.99,-19.99 -3.05,-5.71 -4.27,-11.89 -8.25,-17.49 -4.27,-6.03 -10.23,-10.53 -15.36,-14.89 3.9,26.47 16.37,57.82 24.95,84.87 11.53,36.13 25.54,68.95 41.33,103.07" /><path
             id="path24"
             style="fill:#ffffff;fill-opacity:1;fill-rule:nonzero;stroke:none"
             d="m 1417.21,1916.65 c 28.44,63.86 58.37,111.9 97.26,168.12 5.08,7.36 9.64,14.58 14.08,21.48 2,3.12 11.56,16.86 13.55,19.77 13.04,19.68 18.52,25.71 31.86,44.53 3.62,5.11 6.55,9.13 8.09,15.03 2.84,11.01 -6.61,18.4 -8.79,28.96 -2.2,10.79 -0.99,22.57 3.96,31.68 3.1,5.71 6.19,7.93 9.31,15.58 6.07,14.74 3.97,46.59 10.87,47.43 -1.75,-15.13 -2.15,-32.13 0.23,-46.63 2.76,-16.92 13.03,-27.19 17.27,-45.12 11.43,2.06 23.83,1.57 33.45,0.74 9.54,-0.81 21.61,1.83 31.4,5.19 13.26,4.53 24.27,12.77 37.79,15.98 -11.5,-11.06 -27.73,-15.2 -41.33,-23.6 -5,-3.13 -9.71,-7.28 -13.05,-12.45 -5.46,-8.5 -9.78,-16.64 -18.34,-20.37 -15.19,-6.63 -28.24,-3.49 -45.57,-6.71 -25.76,-26.54 -50.01,-62.63 -72.38,-100.58 -56.73,-95.97 -104.04,-195.37 -131.54,-297.29 9.51,17.73 18.6,34.88 28.9,51.76 11.38,18.74 24.18,37.09 38.13,55.47 32.66,43.04 64.97,80.63 101.18,120.18 29.21,31.97 61.24,58.76 96.95,81.18 47.19,29.57 105.41,50.29 156.56,39.6 5.82,-1.35 14.14,-2.91 17.77,-6.74 -64.11,8.98 -121.54,-13.41 -164.39,-47.74 -33.86,-27.07 -62.39,-54.56 -91.39,-90.27 -14.98,-17.21 -28.45,-36.12 -41.83,-54.45 -14.02,-19.26 -26.45,-39.55 -38.77,-59.83 -41.55,-68.6 -72.99,-141.25 -96.12,-216.5 -0.66,-2.39 -0.81,-4.79 -1.46,-7.16 1.09,1.69 2.71,3.52 3.81,5.24 31.12,50.61 68.55,99.46 115.96,132.23 4.14,2.81 8.45,8.25 9.57,12.53 5.12,20.09 -10.19,29.74 10.99,57.52 4.86,6.38 11.51,8.7 16.1,14.64 8.67,13.4 15.74,37.4 23,43.85 -3.65,-15.63 -12.61,-32.13 -14.53,-48.25 -2.03,-17.69 2.49,-32.15 3.28,-50.89 12.52,-1.71 22.21,-7 32.03,-10.04 15.28,-4.77 24.46,-3.55 39.57,-2.25 6.45,0.54 18.15,4.31 25.1,2.9 -14.61,-7.99 -34.33,-6.52 -49.28,-14.15 -10.46,-5.35 -13.49,-13.26 -27.92,-16.05 -12.84,-2.5 -23.64,-1.16 -31.98,3.13 -6.49,3.27 -11.56,4.64 -17.39,1.84 -15.56,-7.47 -26.18,-18.01 -38.7,-30.64 -29.08,-29.27 -52.81,-61.93 -74.96,-104.75 -5.86,-11.4 -11.13,-22.64 -16.13,-34.25 -2.47,-5.66 -8.6,-21.34 -8.6,-21.34 h -75.98 c 0,0 -0.19,21.9 0.52,29.91 1.46,15.94 3.63,27.75 6.72,43.93 4.41,23.27 8.72,44.37 14.76,66.95 5.88,21.95 12.21,42.56 19.74,63.64 15.71,43.97 32.41,86.07 50.67,127.06" /><path
             id="path26"
             style="fill:#ffffff;fill-opacity:1;fill-rule:nonzero;stroke:none"
             d="m 682.551,1324.81 c 27.73,22.67 48.265,35.82 75.957,52.32 11.242,6.73 28.254,14.34 41.336,20.26 47.984,21.68 111.465,37.67 171.269,38.77 1.082,0 1.016,-0.05 1.016,-0.05 h 445.901 c 0,0 -1.66,0.05 1.56,0.05 14.19,0 28.22,-4.94 36.91,-13.14 8.71,-8.26 12.87,-20.98 15.14,-33.62 1.92,-10.79 0.98,-20.37 -1.53,-31.9 -1.97,-9.1 -3.43,-14.54 -8.51,-22.27 -3.06,-4.71 -5.97,-7.94 -11.68,-12.48 -5.86,-4.68 -14.16,-6.31 -23.67,-6.4 -1,-0.05 -3.12,-0.11 -3.05,-0.08 0.1,0.08 -521.559,0.08 -521.559,0.08 0,0 -3.243,0.01 -4.871,0.01 -34.149,0.11 -70.094,-1.63 -103.836,-6.04 -25.844,-3.52 -51.743,-7.56 -76.723,-14.06 -31.504,-8.22 -61.836,-19.62 -92.117,-30.91 16.785,22.32 36.16,41.24 58.457,59.46" /><path
             id="path28"
             style="fill:#ffffff;fill-opacity:1;fill-rule:nonzero;stroke:none"
             d="m 837.383,1502.22 c 27.398,19.78 60.66,36.03 90.121,47.31 14.953,5.67 34.816,11.94 50.598,15.86 19.062,4.82 40.968,8.42 58.828,8.95 5.39,0.14 0.79,0.04 0.79,0.04 l 382.46,0.04 c 0,0 8.19,-0.44 11.03,-1 7.19,-1.55 12.99,-4.48 15.39,-6.02 5.94,-3.8 13.4,-11.8 17.3,-18.13 9.93,-16.36 11.68,-34.01 8.46,-52.37 -3.67,-20.97 -19.61,-44.87 -41.23,-45.45 -3.77,-0.1 -11.28,0 -11.28,0 h -414.23 c 0,0 -24.104,-0.47 -35.116,-0.87 -20.375,-0.8 -42.965,-3.13 -60.754,-5.74 -15.215,-2.19 -30.078,-5.07 -45.312,-9.16 -51.071,-13.79 -95.446,-39.69 -141.856,-59.84 31.258,54.64 73.539,96.49 114.801,126.38" /><path
             id="path30"
             style="fill:#ffffff;fill-opacity:1;fill-rule:nonzero;stroke:none"
             d="m 623.434,1242.29 c 66.488,39.27 146.582,54.76 219.886,57.22 1.742,0.08 5.219,0.2 5.219,0.2 l 571.731,-0.05 c 0,0 1.04,0 6.21,0.05 34.65,0.03 47.31,-34.36 47.15,-62.16 -0.07,-9.15 -1.62,-18.5 -4.16,-24.77 -3.29,-8.19 -6.93,-14.88 -12.89,-21.33 -2.13,-2.35 -9.78,-7.73 -13.17,-8.56 -7.92,-1.93 -17.67,-1.72 -17.61,-1.72 0.08,0 -425.26,-0.07 -425.26,0 0,0 -22.95,0.92 -38.876,2.45 -11.469,1.14 -20.176,2.34 -32.09,4.6 -29.285,5.82 -53.562,15.36 -78.926,23.18 -16.918,5.23 -34.714,9.13 -53.277,11.93 -34.133,5.23 -71.414,7.61 -105.887,4.99 -43.847,-3.25 -82.847,-11.84 -124.554,-25.08 7.054,11 36.371,27.12 56.504,39.05" /><path
             id="path32"
             style="fill:#ffffff;fill-opacity:1;fill-rule:nonzero;stroke:none"
             d="m 931.391,1063.01 c -19.543,6.88 -38.614,15.77 -55.723,27.07 -22.285,14.75 -33.207,26.47 -62.008,39.78 -24.644,11.39 -44.324,22.63 -78.687,35.08 -16.582,6.02 -43.446,14.28 -66.481,18.23 -32.906,5.58 -64.637,8.03 -64.637,8.03 0,0 6.719,4.19 10.774,5.43 33.586,10.23 63.246,15.22 97.738,17.77 30.246,2.26 58.031,-0.69 88.356,-5.42 12.441,-1.97 28.613,-5.8 42.668,-9.81 45.636,-12.99 97.523,-33.58 143.547,-33.66 2.57,0 2.277,0.04 2.277,0.04 h 425.015 c 0,0 -3.21,0 1.3,0 12.87,0.04 36.93,-4.13 46.6,-21.21 11.2,-19.68 14.68,-43.13 5.27,-66.6 -2.85,-7.06 -7.58,-17.16 -14.37,-23.29 -5.97,-5.4 -15.67,-8.86 -21.27,-8.86 -1.62,-0.08 -4.4,0 -4.4,0 h -371.69 c 0,0 1.41,0 -2.03,0 -38,0 -85.847,4.6 -122.249,17.42" /><path
             id="path34"
             style="fill:#ffffff;fill-opacity:1;fill-rule:nonzero;stroke:none"
             d="m 1100.71,931.16 c -10.51,10.789 -25.01,27.34 -38.15,43.039 -25.23,30.081 -36.52,57.171 -36.52,57.171 h 247.91 c 0,0 0.66,-28.61 -5.07,-61.722 -5.36,-30.75 -16.72,-63.168 -28.8,-86.66 -0.44,-24.078 9.72,-46.476 11.39,-70.258 -20.36,-12.5 -42.26,-24.878 -60.51,-42.429 -1.17,-1.071 -3.05,-1.071 -3.82,1.828 -9.77,36.66 -14.93,69.351 -22.95,105.601 -22.6,17.469 -43.79,33.032 -63.48,53.43" /><path
             id="path36"
             style="fill:#ffffff;fill-opacity:1;fill-rule:nonzero;stroke:none"
             d="m 1356.2,951.5 c -7.01,12.941 -12.24,30.039 -20.29,40.211 -1.73,-9.063 0.4,-14.652 -0.83,-23.332 -1.13,-7.27 -7.09,-4.25 -8.3,-0.828 -3.48,9.84 -7.17,21.988 -10.35,32.078 -5.29,16.811 -6.98,31.691 -6.98,31.691 l 41.24,0.05 c 0,0 1.59,-0.39 2.32,-4.41 1.97,-10.39 1.48,-20.53 4.33,-32.569 3.66,-15.512 8.37,-29.672 14.07,-44.129 4.96,-12.742 11.35,-25.571 16.55,-38.223 0.7,-1.66 1.04,-4.848 -0.21,-6.508 -1.53,-1.929 -4.16,-1.679 -5.67,0 -11.81,13.43 -16.57,28.629 -25.88,45.969" /><path
             id="path38"
             style="fill:#ffffff;fill-opacity:1;fill-rule:nonzero;stroke:none"
             d="m 1420.04,922.012 c -7.01,14.949 -16.88,31.758 -16.02,48.718 4.56,-5.98 6.44,-10.281 12.72,-13.621 2.87,-0.91 8.89,-0.058 7.38,4.961 -2.77,9.348 -7.08,17.258 -11.06,30.071 -5.92,18.959 -11.67,39.209 -11.67,39.209 l -42.1,0.02 c 0,0 2.33,-17.08 11.9,-43.292 8.41,-23.219 21.4,-49.777 35.62,-74.668 11.59,-20.488 22.11,-38.359 35.25,-53.308 4.5,-5.161 15.54,-0.641 10.76,6.058 -12.47,17.641 -24.11,37.168 -32.78,55.852" /><path
             id="path40"
             style="fill:#ffffff;fill-opacity:1;fill-rule:nonzero;stroke:none"
             d="m 1693.4,2344.89 c -9.14,-3.97 -17.21,-9.12 -21.77,-17.91 -3.32,-6.3 -5.56,-15.91 0.79,-21.32 11.12,-9.5 24.38,0.21 29.75,9.91 6.79,12.34 5.02,35.95 5.02,35.95 0,0 -7.89,-4.11 -13.79,-6.63" /><path
             id="path42"
             style="fill:#ffffff;fill-opacity:1;fill-rule:nonzero;stroke:none"
             d="m 1703.06,2285.96 c 3.99,7.54 12.74,15.67 22.33,21.51 10.84,6.62 22.07,13.06 29.88,17.72 7.81,4.69 9.3,7.99 9.3,7.99 0,0 -6.44,-2.22 -9.96,-4.3 -19.28,-11.49 -40.31,-24.55 -48.87,-28.32 -10.8,-4.72 -25.47,-5.63 -38.7,-7.31 -2.11,16.68 -6.44,23.62 -6.39,38.44 0.11,7.11 1.83,16.33 3.04,22.77 4.14,21.43 4.95,32.24 4.95,32.24 0,0 -3.27,-3.05 -4.46,-12.48 -1.35,-8.52 -2.3,-11.66 -4.26,-21.73 -2.22,-11.63 -4.55,-21.47 -11.5,-28.74 -10.02,-10.36 -19.3,-28.82 -11.56,-42.96 4.51,-8.26 12.04,-7.06 14.4,-9.18 2.35,-2.13 3.79,-7.2 10.92,-9.58 15.39,-5.14 32.83,8.67 40.88,23.93" /><path
             id="path44"
             style="fill:#ffffff;fill-opacity:1;fill-rule:nonzero;stroke:none"
             d="m 1683.11,2241.89 c 5.22,8.47 10.58,14.43 18.81,19.48 13.67,8.33 23.8,13.97 32.13,18.23 3.62,1.82 6.63,3.97 7.55,7.83 -3.73,-1.39 -17.83,-8.02 -31.83,-16.34 -10.03,-6 -27.27,-13.47 -38.85,-14.01 -4.59,-0.19 -7.99,0.94 -11.74,1.06 -7.77,0.31 -17.67,-1.57 -17.67,-1.57 0,0 -2.51,10.99 -5.83,18.9 -1.66,4.05 -4.35,8.21 -5.8,15.83 -0.97,5.08 -1.26,12.7 -0.86,17.25 1.14,13.73 4.84,27.07 4.2,40.96 -8.63,-17.92 -5.1,-40.01 -15.23,-53.87 -4.28,-5.84 -7.66,-10.43 -11.02,-17.78 -5.56,-12.07 -4.9,-24.56 2.62,-36.19 4.34,-6.62 13.91,-6.38 15.56,-7.65 2.51,-1.86 4.65,-8.79 14.01,-10.88 16.02,-3.6 34.9,3.82 43.95,18.75" /><path
             id="path46"
             style="fill:#ffffff;fill-opacity:1;fill-rule:nonzero;stroke:none"
             d="m 1687.58,1891.3 c 3.73,7.53 6.13,17.42 10.89,24.4 -10.76,-1.61 -12.49,-2.84 -28.04,-4.54 -3.39,-0.33 -10.4,-3.84 -12.72,-6.16 -6.15,-6.2 -11.52,-11.96 -9.13,-22.37 0.92,-4.06 4.5,-7.03 6.49,-7.66 12.93,-4.2 26.05,3.5 32.51,16.33" /><path
             id="path48"
             style="fill:#ffffff;fill-opacity:1;fill-rule:nonzero;stroke:none"
             d="m 1700.7,1870.77 c 14.69,3.44 31.66,10.65 38.48,8.37 -13.79,-7.33 -31.17,-9.99 -46.45,-14.34 -11.65,-3.36 -19.97,-12.16 -30.37,-20.16 -9.55,-7.26 -22.24,-10.21 -33.59,-4.87 -3.83,1.81 -7.54,7.98 -8.2,11.28 -0.6,2.63 -6.08,5.26 -8.89,7.57 -2.83,2.37 -4.2,8.26 -4.26,10.53 -0.49,20.33 14.98,28.55 29.89,40.49 11.23,8.99 25.81,47.17 34.7,55.08 -1.58,-12.31 -17.58,-35.52 -24.55,-53.58 -5.53,-14.39 -3.71,-25.89 -7.28,-41.05 10.66,-0.68 22.54,-2.91 33.28,-3.09 8.42,-0.11 18.59,1.72 27.24,3.77" /><path
             id="path50"
             style="fill:#ffffff;fill-opacity:1;fill-rule:nonzero;stroke:none"
             d="m 1685.22,1839.43 c -8.25,-1.54 -18.34,-4.14 -25.23,-5.59 -23.95,-5.08 -35.4,6.66 -54.52,6.43 1.68,21.91 -5.93,31.71 0.33,45.87 5.59,12.6 10.76,25.94 15.56,36.63 3.89,8.55 5.07,15.78 5.07,15.78 0,0 -5.8,-8.69 -22.32,-40.85 -5.74,-11.22 -16.02,-13.64 -25.15,-24.23 -10.51,-12.13 -16.54,-37.76 2.9,-48.52 3.86,-2.11 3.3,-8.78 6.11,-11.46 12.98,-12.21 39.19,-10.99 55.58,3.89 13.05,11.9 28.91,13.82 42.43,17.33 7.9,2.04 14.83,5.4 14.83,5.4 0,0 -3.75,1.52 -15.59,-0.68" /><path
             id="path52"
             style="fill:#ffffff;fill-opacity:1;fill-rule:nonzero;stroke:none"
             d="m 1205.22,1585.18 c -0.94,0 -1.96,0 0,0 z m -111.88,315.54 c -7.99,-10.55 -11.69,-22.7 -20.5,-31.92 -4.6,-4.82 -11.63,-2.57 -15.27,3 -4.05,6.28 -10.59,15.18 -5.73,21.4 8.01,10.25 24.76,16.8 39,14.96 0.84,-0.1 5.43,-3.5 2.5,-7.44 z M 1055,1840.33 c -4.47,-11.96 -17.8,-13.25 -29.14,-15.61 -2.12,-0.47 -8.65,0 -11.58,2.87 -4.9,4.78 -9.14,11.34 -8.28,19.53 0.45,5.06 4.67,10.02 9.9,12.03 9.47,3.67 20.69,9.57 30.03,4.34 8.02,-4.49 12.23,-14.73 9.07,-23.16 z m -24.55,-63.21 c -3.27,-4.72 -11.65,10.94 -12.74,18.12 -3.13,20.77 15.08,26.06 30.24,25.42 0.47,-12.39 -9.13,-31.57 -17.5,-43.54 z m -16.39,-56.03 c -2.97,-8.36 -4.4,-16.04 -7.72,-23.7 -3.22,-7.4 -16.977,-10.04 -24.606,-7.66 -10.894,3.37 -20.242,27.82 -7.855,37.2 9.476,7.08 19.289,8.22 31.361,9.69 2.17,0.27 10.27,-0.22 10.59,-0.98 2.02,-5.08 0.74,-7.62 -1.77,-14.55 z m -18.333,-64.59 c -2.207,-6.42 -3.184,-13.03 -6.02,-19.2 -1.422,-3.13 -3.285,0.99 -3.359,1.19 -4.282,10.64 -6.985,19.66 -3.336,29.02 2.066,5.2 9.168,9.96 15.906,10.38 -0.418,-6.67 -0.891,-14.89 -3.191,-21.39 z M 974.078,1625 c -4.922,2.23 -4.848,8.56 -6.91,12.49 -1.941,3.84 -6.133,9.12 -4.41,14.16 9.5,-5.32 13.902,-14.82 11.32,-26.65 z m -16.387,39.32 c -11.336,9.31 -12.316,24.21 -19.863,35.61 8.332,5.33 22.387,4.26 26.707,-6.29 3.457,-8.47 5.969,-20.93 -2.633,-27.41 -0.929,-0.68 -3.136,-2.8 -4.211,-1.91 z m -42.246,76.84 c -1.699,2.43 -5.062,9.44 -2.5,10.33 20.282,6.98 35.496,7.2 39.832,-14.49 3.067,-15.49 -7.507,-28.78 -22.332,-23.36 -4.25,1.57 -8.465,18.06 -15,27.52 z m -29.5,49 c -1.418,1.78 -2.578,7.18 -0.804,8.56 10.547,8.48 26.031,9.12 38.019,7.95 15.809,-1.44 19.059,-16.13 16.418,-28.32 -3.48,-16.03 -27.801,-18.03 -34.691,-15.36 -6.766,2.6 -11.489,17.94 -18.942,27.17 z m 3.446,57.03 c 13.66,8.86 39.785,15.43 44.14,-8.57 1.317,-7.22 -0.484,-16.82 -10.25,-19.97 -10.035,-3.21 -21.851,-6.69 -31.011,-2.97 -11.274,4.62 -13.493,24.65 -2.879,31.51 z m -14.164,40.36 c 1.027,4.6 6.128,6.78 10.418,7.87 11.058,2.74 23.425,6.86 33.578,0.39 3.961,-2.51 4.261,-6.05 4.781,-11.02 0.898,-8.07 -0.25,-14.66 -5.563,-17.75 -10.773,-6.32 -21.738,-6.89 -34.257,-4.42 -10.157,2 -10.985,15.46 -8.957,24.93 z m -11.336,-62.21 c -9.473,7 -13.657,16.9 -20.637,26.71 -1.688,2.4 0,3.39 1.293,3.76 16.805,4.76 29.277,-3.63 26.66,-21.95 -0.469,-3.56 -2.785,-11.86 -7.316,-8.52 z m -46.387,56.61 c -6.297,5.44 -1.918,14.92 3.57,17.67 9.61,4.77 24.707,5.5 34.703,2.13 6.43,-2.17 9.684,-11.4 8.532,-21.46 -0.485,-4.14 -1.747,-8.68 -3.766,-10.02 -7.613,-5.2 -19.391,-5.39 -28.648,-3.47 -6.551,1.38 -8.887,10.34 -14.391,15.15 z m -7.262,57.24 c 6.09,13.26 28.309,13.37 40.406,7.46 9.856,-4.84 11.094,-23.18 0.332,-30.42 -8.585,-5.71 -22.113,-3.61 -31.218,-1.94 -12.938,2.38 -13.965,15.1 -9.52,24.9 z m 0.496,49.61 c 9.227,8.78 21.188,4.75 32.305,3.21 2.152,-0.3 4.715,-1.81 6.176,-3.27 7.59,-7.67 8.187,-20.23 -0.266,-26.52 -9.75,-7.25 -21.922,-2.54 -33.641,-1.95 -3.164,0.13 -6.644,3.84 -7.367,6.23 -2.109,7.42 -3.39,16.49 2.793,22.3 z m 5.946,41.5 c 9.8,4.09 26.636,5.96 33.574,-5.03 4.262,-6.74 3.023,-19.22 -3.813,-21.04 -6.695,-1.72 -29.457,-5.51 -34.906,7.08 -2.699,6.19 -1.559,16.16 5.145,18.99 z m 30.164,35.25 c 2.836,-1.25 4.601,-3.53 5.269,-7 1.399,-7.56 -0.59,-15.76 -7.836,-17.09 -10.89,-1.98 -27.058,-2.6 -27,12.79 0.039,17.17 16.957,16.97 29.567,11.3 z m -21.922,31.92 c 5.797,2.22 15.332,1.72 20.535,-0.99 2.625,-1.36 6.148,-5.67 4.668,-10.22 -1.848,-5.93 -7.363,-8.06 -13.629,-8.14 -6.02,-0.06 -12.926,0.43 -15.355,5.34 -2.313,4.66 -1.333,12.04 3.781,14.01 z m 6.769,25.74 c 5.297,1.94 13.129,1.8 16.981,-2.38 5.304,-5.79 1.121,-15 -8.887,-14.54 -3.519,0.15 -7.695,1.36 -9.824,2.58 -5.168,2.92 -3.457,12.49 1.73,14.34 z m 23.813,16.59 c 0.68,2.24 4.16,4.85 5.98,5.49 3.973,1.42 8.629,1.71 12.43,0.19 7.602,-3.12 6.555,-12.53 -1.559,-15.82 -3.632,-1.48 -9.214,-2.43 -11.953,-1.48 -5.113,1.73 -6.535,6.17 -4.898,11.62 z m 23.68,-36.76 c -8.29,-2.42 -19.848,-2.89 -22.325,5.6 -4.203,14.43 14.004,16.59 23.449,13.56 6.512,-2.07 8.813,-16.31 -1.124,-19.16 z m 5.492,47.62 c 2.629,8.94 12.758,13.79 21.929,11.07 7.887,-2.32 9.707,-13.07 4.383,-18.29 -2.414,-2.35 -6.406,-4.74 -10.703,-5.69 -9.387,-2.09 -18.605,3.08 -15.609,12.91 z m 41.254,-32.78 c -1.485,-5.84 -5.766,-9.84 -12.618,-11.36 -6.808,-1.5 -16.214,-1.92 -19.988,2.29 -3.598,3.98 -5.254,9.58 -2.25,13.88 6.024,8.55 17.047,11.55 26.871,9.37 5.606,-1.31 9.727,-7.05 7.985,-14.18 z m -3.664,34.3 c 3.664,8.11 12.957,12.2 21.878,9.47 1.79,-0.56 5.469,-3.45 5.981,-6.29 1.059,-5.64 -0.899,-10.79 -5.609,-13.74 -6.036,-3.83 -11.02,-6 -17.95,-3.16 -5.203,2.18 -6.472,8.93 -4.3,13.72 z m 38.437,-22.77 c 4.078,-6.91 -2.129,-13.83 -5.277,-15.74 -6.989,-4.09 -16.84,-6.6 -21.051,0.33 -4.141,6.79 -0.711,14.86 6.512,17.85 6.89,2.86 14.031,7.19 19.816,-2.44 z m 11.59,-26.37 c 4.562,-3.77 8.566,-11.7 3.098,-17.97 -5.137,-5.91 -11.516,-7.68 -19.59,-8.98 -5.457,-0.92 -12.438,3.11 -13.321,7.93 -0.808,4.16 -1.57,11.73 2.543,15.21 8.024,6.84 18.782,10.79 27.27,3.81 z m 9.672,44.98 c 4.308,-1.27 7.062,-5.83 4.906,-10.23 -1.313,-2.7 -5.187,-5.64 -7.652,-7.15 -6.762,-4.16 -12.567,-2.46 -14.688,2.52 -3.894,9.14 9.211,17.28 17.434,14.86 z m 16.504,-22.79 c 4.747,-0.43 6.927,-3.73 7.867,-7.37 1.23,-4.86 -0.38,-9.37 -4.49,-12.14 -4.893,-3.25 -10.987,-5.16 -15.866,-5.24 -6.589,-0.12 -12.699,9.56 -9.125,15.85 3.786,6.74 13.309,9.62 21.614,8.9 z m 27.277,-34.9 c 2.81,-8.27 -3.26,-12.13 -9.66,-15.53 -6.5,-3.48 -15.22,-6.71 -19.738,-2.4 -5.766,5.44 -8.332,14.58 -1.903,20.6 8.911,8.37 25.401,14.65 31.301,-2.67 z m 11.78,-20.77 c 10.46,-1.33 12.53,-16.2 10.42,-21.58 -2.39,-4.62 -7.66,-8.23 -10.42,-9.65 -7.68,-3.96 -16.64,-5.46 -23.7,-1.81 -6.42,3.34 -9.21,13.09 -5.72,20.74 4.73,10.33 19.63,13.59 29.42,12.3 z m 21.52,-46.03 c 3.58,-5 2.79,-13.89 0.67,-16.66 -6.6,-9.02 -24.96,-14.16 -32.54,-10.47 -5.75,2.81 -11.43,15.49 -4.69,23.1 7,7.9 19.21,12.62 30.3,10.3 2.47,-0.54 4.09,-3.26 6.26,-6.27 z m 4.64,-28.37 c 5.03,-0.55 9.51,-6.09 11.94,-12.12 3.16,-7.79 -0.04,-16.89 -2.53,-18.59 -6.02,-4.09 -25.09,-15.56 -37.09,-8.69 -6.6,3.79 -8.42,12.44 -8.83,17.55 -1.32,16.51 23.72,23.27 36.51,21.85 z m -70.397,-118.1 c -2.566,6.55 -4.941,16.24 0.203,20.22 10.394,8.2 33.894,15.38 42.834,2.97 5.81,-8.05 4.1,-21.7 -6.07,-26.92 -10.51,-5.36 -31.041,-11.53 -36.967,3.73 z m -50.41,-0.72 c 10.429,5.3 25.457,11.7 36.687,4.47 5.137,-3.3 10.442,-16.96 6.817,-23.02 -7.699,-12.88 -27.965,-16.16 -40.844,-12.84 -10.969,2.84 -14.273,25.53 -2.66,31.39 z m -9.383,44.49 c 12.59,8.86 37.441,14.57 43.426,-4.76 1.554,-5.02 2.437,-10.57 -0.125,-14.62 -6.973,-11.22 -24.656,-14.17 -36.492,-12.49 -12.805,1.85 -18.848,23.42 -6.809,31.87 z m -10.59,45.08 c 12.09,6.86 37.856,15.96 43.926,-3.67 2.426,-8.03 2.184,-17.95 -4.695,-21.49 -9.852,-5.17 -25.457,-10.58 -36.809,-3.5 -9.48,5.99 -10.762,23.89 -2.422,28.66 z m 67.676,81.04 c -5.063,-4.54 -10.203,-5.5 -16.941,-7.8 -9.442,-3.19 -19.313,4.08 -20.403,13.11 -1.816,15.45 14.75,17.75 25.707,19.69 7.989,1.44 12.938,-5.74 14.41,-10.56 1.504,-4.64 1.309,-10.87 -2.773,-14.44 z m 20.304,-36.38 c -7.18,-10.71 -36.16,-17.45 -42.55,-6.44 -4.668,8.07 -7.574,19.4 1.203,24.81 9.211,5.66 20.137,9.04 30.857,7.11 10.08,-1.78 15.21,-18.36 10.49,-25.48 z m 15.45,-66.34 c 4.12,-6.55 7,-15.37 0.88,-23.52 -5.55,-7.45 -25.37,-10.93 -35.517,-8.47 -5.566,1.4 -8.195,8.16 -9.047,12.72 -1.176,6.17 -1.734,12.38 3.731,17.42 7.851,7.19 18.333,7.03 28.403,7.03 4.14,0 10,-2.68 11.55,-5.18 z m -5.76,22.27 c -6.17,-11.34 -27.084,-12.8 -36.486,-11.55 -6.629,0.88 -11.289,11.57 -11.098,20.5 0.07,4.6 1.5,7.65 4.645,9.33 10.445,5.6 21.132,9.35 32.369,7.54 10.96,-1.74 15.22,-17.23 10.57,-25.82 z m -110.072,24.42 c -7.106,21.88 20.222,28.78 36.176,25.4 11.105,-2.3 14.808,-23.64 4.476,-30.38 -12.781,-8.31 -35.472,-11 -40.652,4.98 z m -41.211,-53.73 c 8.187,8.45 22.973,8.97 34.512,7.42 7.086,-0.99 10.14,-8.15 11.125,-15.92 2.761,-21.37 -25.942,-24.97 -39.598,-19.97 -8.996,3.28 -13.68,20.58 -6.039,28.47 z m -5.777,41.42 c 8.558,10.07 22.875,12.46 34.734,9.2 7.238,-1.97 10.59,-10.43 10.422,-19.91 -0.137,-5.38 -3.828,-9.28 -7.137,-10.64 -8.43,-3.42 -18.172,-5.97 -27.367,-4.85 -11.344,1.4 -18.219,17.27 -10.652,26.2 z m 1.359,45.1 c 10.527,4.3 30.144,8.14 33.449,-6.89 4.461,-20.03 -19.168,-23.29 -31.797,-19.81 -9.668,2.66 -11.504,22.73 -1.652,26.7 z m 75.726,33.1 c 7.872,-4.47 9.524,-17.09 4.731,-24.4 -6.367,-9.66 -28.133,-15.27 -39.844,-6.81 -6.68,4.85 -10.277,24.72 3.41,29.5 10.934,3.82 21.414,7.53 31.703,1.71 z m -11.156,14.37 c -8.929,-5.52 -21.656,-7.71 -30.097,-3.02 -7.344,4.02 -7.063,14.75 -3.418,20.52 5.98,9.62 20.851,10.67 31.132,7.65 8.864,-2.57 12.18,-19.04 2.383,-25.15 z m -72.281,15.69 c 0.902,2.86 2.172,3.67 3.949,4.55 7.504,3.57 15.746,4.54 22.938,-0.08 5.179,-3.36 4.722,-11.09 0.886,-15.12 -5.621,-5.9 -17.046,-6.15 -24.359,-2.3 -4.727,2.46 -4.945,8.29 -3.414,12.95 z m 2.398,-31.35 c 3.321,9.48 15.145,8.95 24.106,7.79 11.019,-1.43 13.226,-15.56 9.312,-21.5 -5.41,-8.2 -17.757,-6.62 -27.586,-5.37 -7.992,1.01 -8.464,11.6 -5.832,19.08 z m 155.504,-285.2 c 2.71,-10.72 0,-20.89 -9.53,-24.31 -12.247,-4.32 -28.81,-10.65 -38.602,-4.05 -11.2,7.51 -16.59,28.81 -3.723,37.16 15.199,9.94 45.445,16.46 51.855,-8.8 z m -16.508,33.3 c -8.23,-9.35 -21.664,-9.05 -34.851,-12.91 -5.094,-1.48 -11.133,3.01 -13.785,7.67 -4.871,8.7 -9.754,20.36 -0.414,28.78 7.734,7.04 18.281,6.44 27.754,9.28 4.25,1.27 9.457,2.76 14.621,-0.73 10.673,-7.28 14.833,-22.91 6.675,-32.09 z m 87.308,140.14 c 2.32,-6.8 5.44,-11.8 2.8,-18.57 -3.15,-8.33 -11.22,-9.48 -18.8,-12.21 -7.07,-2.56 -18.86,-5.8 -24.78,0.39 -6.8,7.05 -9.55,21.4 -1.4,27.55 10.55,7.86 36.6,18.7 42.18,2.84 z m 143.29,61.19 c 6.23,25.39 13.97,51.14 15.9,77.96 2.84,40.08 -5.8,81.73 -31.51,112.08 2.53,-13.08 5.88,-24.14 7.64,-37.88 2.09,-16.59 -0.25,-35.07 -4.53,-51.77 -3.24,-12.63 -8.94,-24.93 -14.59,-36.67 -6.67,-13.91 -16.63,-29.03 -26.55,-41.44 -27.81,-34.58 -71.14,-102.08 -71.14,-102.08 0,0 -3.63,0.27 -5.78,0.27 -0.51,8.4 19.44,37.22 29.5,53.34 22.1,35.35 38.83,54.38 58.04,85.03 12.04,19.33 21.23,42.84 24.19,64.16 5.99,43.43 -17.43,95.48 -51.1,112.8 7.7,-32.45 6.9,-78.17 -10.38,-97.4 -32.69,-36.42 -52.12,-63.69 -75.45,-110.4 -0.67,-1.25 -6.13,6.3 -10.64,9.24 -5.06,3.35 -2.23,13.37 -4.04,20.11 -1.64,5.73 -4.34,10.14 -5.14,11.15 -6.91,8.46 -13.58,8.98 -15.04,11.52 -1.67,2.86 -0.87,10 -6.89,18.14 -3.01,4.09 -10.68,7.12 -13.8,10.96 -3.37,4.2 -4.9,17.05 -14.21,22.33 -4.421,2.48 -6.476,10.18 -10.718,13.96 -13.086,11.59 -26.149,9.36 -28.652,10.08 -3.368,0.91 -9.938,9.28 -21.637,11.29 -11.438,1.94 -17.731,-5.68 -23.668,-2.93 -14.895,6.9 -29.156,7.46 -44.981,-10.18 -4.75,-5.25 -12.964,-0.34 -23.214,-8.18 -8.997,-6.85 -9.165,-13.19 -13.75,-14.06 -8.606,-1.61 -15.028,-8.5 -18.348,-16.02 -1.723,-3.88 -3.02,-11.7 -4.024,-16.87 -1.41,-7.12 -5.015,-13.69 -5.082,-18.93 -0.086,-7.27 2.215,-11.21 1.571,-14.47 -1.059,-4.71 -4.875,-9.02 -5.34,-13.44 -0.348,-2.5 -0.559,-9.16 1.258,-12.91 2.293,-4.62 -1.606,-8.63 -3.633,-13.55 -1.934,-4.59 -3.969,-12.42 -3.348,-17.95 0.821,-7.6 5.164,-10.37 1.785,-16.36 -5.535,-9.72 -12.535,-24.87 -0.265,-44.25 2.254,-3.53 -5.141,-10.43 -5.555,-20.54 -0.469,-11 6.172,-19.13 7.988,-24 0.344,-1.75 -2.922,-1.65 -3.043,-3.52 -29.222,30.89 -55.062,59.39 -88.949,86.21 -20.703,16.36 -41.172,30.12 -64.109,42.41 -61.289,32.86 -132.492,54.85 -196.992,46.83 24.285,-19.57 54.941,-33.52 79.89,-55.73 23.641,-21.05 45.09,-39.04 66.621,-61.4 33.793,-35.11 61.254,-70.71 89.867,-112.01 8.5,-12.23 14.094,-20.42 22.012,-33.17 7.981,-12.76 16.844,-26.32 24.106,-38.96 36.613,-63.58 66.613,-122.45 96.98,-187.59 8.422,-18.02 15.504,-36.88 23.762,-54.79 2.211,-4.85 5.375,-1.25 7.609,0 10.977,6.36 22.649,11.66 34.047,17.04 9.098,4.18 17.379,7.06 25.512,10.19 20.539,7.82 40.031,12.08 61.551,16.54 35.909,7.52 100.439,5.98 100.439,5.98 l 122.33,0.04 c 0.8,0 1.63,0 3.34,0 -1.28,35.07 -9.61,69.15 -11.64,104.32 -1.54,28.49 -0.59,56.04 0.41,84.59 2.74,77.35 14.11,160.39 31.39,230.88" /><path
             id="path54"
             style="fill:#ffffff;fill-opacity:1;fill-rule:nonzero;stroke:none"
             d="m 395.137,2295.17 c -23.871,-23.81 -30.992,-32.57 -44.91,-58.89 -8.2,-15.47 -18.61,-35.33 -21.579,-60.93 49.051,18.69 89.071,56.79 125.235,98.88 26.754,31.19 47.504,72.6 73.887,103.42 -46.469,-15.59 -95.504,-45.52 -132.633,-82.48" /><path
             id="path56"
             style="fill:#ffffff;fill-opacity:1;fill-rule:nonzero;stroke:none"
             d="m 254.711,2228.25 c 18.492,31.24 44.98,65.02 72.441,88.06 -12.718,-28.56 -28.382,-56.88 -33.769,-90.67 -10.672,-67.27 -20.746,-114.39 -31.906,-175.78 30.503,21.75 62.683,55.94 95.031,79.81 24.996,18.37 50.051,30.63 75.758,48.3 15.277,10.55 25.234,24.08 37.945,36.77 -15.145,-63.85 -71.164,-128.28 -111.273,-158.31 -50.387,-37.79 -68.45,-43.81 -149.422,-126.14 -10.282,101.66 -8.454,207.32 45.195,297.96" /><path
             id="path58"
             style="fill:#ffffff;fill-opacity:1;fill-rule:nonzero;stroke:none"
             d="m 89.5234,1890.6 c 3.7657,52.79 10.1016,95.02 22.9256,146.52 8.989,35.97 28.34,89.5 56.246,111.47 -3.418,-13.05 -5.215,-32.6 -6.531,-45.8 -5.469,-54.39 4.945,-117.56 6.188,-171.9 0.617,-26.72 0.382,-47.32 -3.618,-72.42 -4.136,-26.32 -0.687,-58.62 -0.687,-58.62 0,0 14.426,16.48 27.305,37 28.144,44.7 37.16,57.97 59.836,82.19 28.132,30.04 59.597,57.87 95.124,82.51 -4.285,-16.69 -22.425,-49.16 -29.921,-62.2 -10.004,-17.46 -14.543,-33.32 -38.215,-72.85 -33.313,-55.55 -48.153,-63.05 -85.141,-122.46 -8.008,-12.92 -40.847,-62.06 -48.805,-77.08 -17.328,35.86 -23.863,67.19 -45.1206,125.57 -13.3516,36.67 -11.3555,73.36 -9.586,98.07" /><path
             id="path60"
             style="fill:#ffffff;fill-opacity:1;fill-rule:nonzero;stroke:none"
             d="m 38.0898,1615.93 c -20.0859,52.08 -29.28902,100.39 -36.09761,155.22 -4.16016,33.55 -2.226565,78.28 9.74611,110.52 3.1406,-7.87 9.5469,-27.86 10.414,-30.86 8.9063,-29.96 12.6329,-44.34 25.0821,-73.24 9.5234,-22.17 21.1679,-39.83 33.6289,-61.74 11.3281,-19.99 20.8907,-46.31 29.0857,-66.44 26.375,-64.57 28.321,-125.02 38.414,-131.63 7.258,15.54 9.532,30.42 10.344,37.76 7.84,71.44 17.25,136.39 107.227,220.59 8.254,-25.06 4.07,-71.27 -0.891,-96.02 -10.758,-54.12 -19.445,-80.12 -43.281,-132.57 -12.598,-27.62 -29.418,-68.26 -34.028,-81.73 -12.082,-35.06 -16.218,-53.45 -23.82,-74.19 -42.476,70.78 -94.7578,143.88 -125.8242,224.33" /><path
             id="path62"
             style="fill:#ffffff;fill-opacity:1;fill-rule:nonzero;stroke:none"
             d="m 108.121,1290.31 c -30.246,42.1 -41.2655,63.26 -60.9491,108.07 -16.5274,37.6 -21.2813,51.53 -30.961,93.63 -5.289,22.95 -8.27731,43.77 -4.1718,57.35 23.6797,-42.87 39.8398,-90.85 70.8125,-126.42 24.5894,-28.2 48.2774,-52.23 67.8244,-76.03 29.988,-36.59 53.601,-71.22 82.383,-109.3 2.425,19.08 3.363,38.43 -0.926,69.71 -5.856,42.86 -2.246,77.99 5.238,119.49 9.488,52.65 16.445,78.72 34.715,131.98 22.348,-43.83 22.262,-94.53 27.871,-141.03 10.828,-90.19 -17.391,-197.76 -22.941,-242.59 -1.485,-11.82 0.562,-40.97 1.16,-52.33 -42.199,33.24 -79.742,66.79 -116.141,103.29 -16.586,16.55 -39.344,43.96 -53.914,64.18" /><path
             id="path64"
             style="fill:#ffffff;fill-opacity:1;fill-rule:nonzero;stroke:none"
             d="m 268.102,959.531 c -19.215,13.84 -70.844,53.299 -95.29,84.359 -35.601,45.2 -43.437,64.58 -66.921,116.59 -2.879,6.34 -16.1683,35.77 -17.2543,55.77 76.9453,-92.91 145.8323,-106.74 219.2303,-183.84 26.934,-28.24 54.516,-54.82 69.071,-68.148 11.171,-10.282 25.042,-13.403 25.042,-13.403 0,0 -1.445,19.813 -8.687,33.582 -48.969,93.599 -58.211,191.439 -50.781,296.459 22.351,-27.68 29.402,-46.15 43.586,-72.91 15.429,-29.15 23.297,-47.18 30.507,-65.12 41.903,-104.28 52.805,-224.741 78.692,-285.37 -79.91,26.93 -142.84,41.309 -227.195,102.031" /><path
             id="path66"
             style="fill:#ffffff;fill-opacity:1;fill-rule:nonzero;stroke:none"
             d="m 595.824,713.441 c -21.613,-1.461 -63.992,-1.332 -86.586,2.348 C 394.844,734.102 288.512,817 235.023,908.07 c 48.497,-29.59 83.563,-49.351 126.211,-64.109 37.985,-13.133 74.008,-17.02 137.418,-35.02 38.262,-10.812 76.145,-26.132 89.453,-31.113 42.418,-15.797 60.278,-11.906 60.278,-11.906 0,0 0,6.437 -15.844,23.726 -31.578,34.454 -43.141,42.704 -69.121,69.192 -8.531,8.75 -28.074,38.48 -37.996,58.238 -28.074,55.883 -31.192,100.682 -56.828,162.062 93.554,-54.94 139.125,-130.742 188.59,-226.32 15.211,-29.261 35.777,-63.07 54.57,-81.66 12.637,-12.469 30.441,-31.41 30.441,-31.41 0,0 -13.047,-3.078 -53.664,-9.07 -18.222,-2.668 -57.051,-14.758 -92.707,-17.239" /><path
             id="path68"
             style="fill:#ffffff;fill-opacity:1;fill-rule:nonzero;stroke:none"
             d="m 1049.31,706.18 c 49.39,-8.071 93.27,-20.078 138.19,-35.489 12.07,-4.152 30.44,-13.281 43.16,-19.722 31.84,-16.199 50.16,-26.719 77.52,-45.539 44.07,-30.34 91.41,-63.051 134.12,-112.668 0.91,-0.973 7.82,-8.352 3.22,-11.961 -8.37,-6.551 -29,-15.903 -35.85,-9.84 -39.08,34.75 -37.11,45.891 -84.47,88.777 -12.15,10.942 -30.49,26.293 -52.41,41.282 -21.37,14.628 -47.21,30.601 -71.22,42.449 -21.82,10.73 -55.42,13.941 -74.28,13.941 l 0.25,-0.129 c -8.57,0.328 -57.83,0.598 -69.24,-0.14 -96.808,-6.629 -92.066,-15.289 -147.886,-30.411 -45.906,-12.492 -95.16,-21.39 -144.051,-27.949 -50.09,-6.812 -94.91,-7.633 -141.859,-2.832 -63.649,6.551 -133.274,24.301 -185.242,57.781 47.515,-0.8 96.304,-9.929 143.57,-6.308 19.887,1.539 52.156,4.527 74.008,11.269 43.418,13.329 68.332,18.539 114.312,31.348 39.512,11 79.344,14.813 120.606,19.152 57.105,6.11 109.992,4.739 157.552,-3.011" /><path
             id="path70"
             style="fill:#ffffff;fill-opacity:1;fill-rule:nonzero;stroke:none"
             d="m 1934.51,2295.17 c 23.88,-23.81 31.03,-32.57 44.94,-58.89 8.21,-15.47 18.62,-35.33 21.59,-60.93 -49.1,18.69 -89.08,56.79 -125.27,98.88 -26.77,31.19 -47.49,72.6 -73.87,103.42 46.48,-15.59 95.5,-45.52 132.61,-82.48" /><path
             id="path72"
             style="fill:#ffffff;fill-opacity:1;fill-rule:nonzero;stroke:none"
             d="m 2074.97,2228.25 c -18.51,31.24 -44.99,65.02 -72.44,88.06 12.84,-30.75 31.56,-69.05 33.76,-90.67 6.83,-67.74 20.74,-114.39 31.91,-175.78 -30.49,21.75 -62.71,55.94 -95.06,79.81 -24.94,18.37 -50.01,30.63 -75.7,48.3 -15.31,10.55 -25.26,24.08 -37.98,36.77 15.15,-63.85 71.17,-128.28 111.28,-158.31 50.37,-37.79 68.44,-43.81 149.38,-126.14 10.27,101.66 8.45,207.32 -45.15,297.96" /><path
             id="path74"
             style="fill:#ffffff;fill-opacity:1;fill-rule:nonzero;stroke:none"
             d="m 2240.16,1890.6 c -3.81,52.79 -10.08,95.02 -22.93,146.52 -8.99,35.97 -28.34,89.5 -56.29,111.47 3.45,-13.05 5.22,-32.6 6.56,-45.8 5.52,-54.39 -4.88,-117.56 -6.17,-171.9 -0.62,-26.72 -0.39,-47.32 3.58,-72.42 4.15,-26.32 0.72,-58.62 0.72,-58.62 0,0 -14.42,16.48 -27.33,37 -28.09,44.7 -37.11,57.97 -59.84,82.19 -28.11,30.04 -59.6,57.87 -95.14,82.51 4.34,-16.69 22.46,-49.16 29.96,-62.2 10.05,-17.46 14.53,-33.32 38.22,-72.85 33.3,-55.55 48.15,-63.05 85.1,-122.46 8.01,-12.92 40.9,-62.06 48.85,-77.08 17.34,35.86 23.86,67.19 45.12,125.57 13.39,36.67 11.38,73.36 9.59,98.07" /><path
             id="path76"
             style="fill:#ffffff;fill-opacity:1;fill-rule:nonzero;stroke:none"
             d="m 2291.58,1615.93 c 20.08,52.08 29.27,100.39 36.12,155.22 4.16,33.55 2.19,78.28 -9.75,110.52 -3.15,-7.87 -9.53,-27.86 -10.42,-30.86 -8.94,-29.96 -12.64,-44.34 -25.06,-73.24 -9.53,-22.17 -21.24,-39.83 -33.66,-61.74 -11.33,-19.99 -20.88,-46.31 -29.12,-66.44 -26.34,-64.57 -28.29,-125.02 -38.38,-131.63 -7.29,15.54 -9.54,30.42 -10.33,37.76 -7.85,71.44 -17.27,136.39 -107.23,220.59 -8.28,-25.06 -4.08,-71.27 0.84,-96.02 10.8,-54.12 19.53,-80.12 43.32,-132.57 12.6,-27.62 29.42,-68.26 34.06,-81.73 12.01,-35.06 16.17,-53.45 23.83,-74.19 42.44,70.78 94.73,143.88 125.78,224.33" /><path
             id="path78"
             style="fill:#ffffff;fill-opacity:1;fill-rule:nonzero;stroke:none"
             d="m 2221.56,1290.31 c 30.28,42.1 41.26,63.26 60.94,108.07 16.52,37.6 21.26,51.53 30.98,93.63 5.29,22.95 8.26,43.77 4.14,57.35 -23.62,-42.87 -39.87,-90.85 -70.83,-126.42 -24.54,-28.2 -48.24,-52.23 -67.79,-76.03 -29.96,-36.59 -53.64,-71.22 -82.38,-109.3 -2.4,19.08 -3.38,38.43 0.88,69.71 5.9,42.86 2.29,77.99 -5.2,119.49 -9.49,52.65 -16.44,78.72 -34.7,131.98 -22.33,-43.83 -22.27,-94.53 -27.88,-141.03 -10.86,-90.19 17.43,-197.76 22.98,-242.59 1.44,-11.82 -0.6,-40.97 -1.2,-52.33 42.2,33.24 79.75,66.79 116.14,103.29 16.59,16.55 39.29,43.96 53.92,64.18" /><path
             id="path80"
             style="fill:#ffffff;fill-opacity:1;fill-rule:nonzero;stroke:none"
             d="m 2061.59,959.531 c 19.19,13.84 70.83,53.299 95.27,84.359 35.6,45.2 43.45,64.58 66.93,116.59 2.83,6.34 16.17,35.77 17.25,55.77 -76.94,-92.91 -145.83,-106.74 -219.23,-183.84 -26.93,-28.24 -54.49,-54.82 -69.06,-68.148 -11.17,-10.282 -25.04,-13.403 -25.04,-13.403 0,0 1.43,19.813 8.66,33.582 48.98,93.599 58.23,191.439 50.76,296.459 -22.28,-27.68 -29.38,-46.15 -43.55,-72.91 -15.4,-29.15 -23.29,-47.18 -30.47,-65.12 -41.94,-104.28 -52.89,-224.741 -78.76,-285.37 79.97,26.93 142.88,41.309 227.24,102.031" /><path
             id="path82"
             style="fill:#ffffff;fill-opacity:1;fill-rule:nonzero;stroke:none"
             d="m 1733.85,713.441 c 21.66,-1.461 64,-1.332 86.62,2.348 114.39,18.313 220.69,101.211 274.19,192.281 -48.55,-29.59 -83.61,-49.351 -126.22,-64.109 -38.01,-13.133 -74.01,-17.02 -137.39,-35.02 -38.3,-10.812 -76.17,-26.132 -89.49,-31.113 -42.41,-15.797 -60.27,-11.906 -60.27,-11.906 0,0 0,6.437 15.84,23.726 31.58,34.454 43.16,42.704 69.1,69.192 8.56,8.75 28.11,38.48 38.02,58.238 28.07,55.883 31.2,100.682 56.86,162.062 -93.55,-54.94 -139.22,-130.742 -188.65,-226.32 -15.17,-29.261 -35.74,-63.07 -54.51,-81.66 -12.62,-12.469 -30.47,-31.41 -30.47,-31.41 0,0 13.05,-3.078 53.7,-9.07 18.2,-2.668 57,-14.758 92.67,-17.239" /><path
             id="path84"
             style="fill:#ffffff;fill-opacity:1;fill-rule:nonzero;stroke:none"
             d="m 1280.37,706.18 c -49.38,-8.071 -93.23,-20.078 -138.18,-35.489 -12.12,-4.152 -30.46,-13.281 -43.18,-19.722 -31.83,-16.199 -50.12,-26.719 -77.51,-45.539 -44.102,-30.34 -91.371,-63.051 -134.121,-112.668 -0.926,-0.973 -7.859,-8.352 -3.223,-11.961 8.387,-6.551 29.024,-15.903 35.817,-9.84 39.097,34.75 37.113,45.891 84.517,88.777 12.1,10.942 30.44,26.293 52.39,41.282 21.42,14.628 47.19,30.601 71.22,42.449 21.79,10.73 55.45,13.941 74.28,13.941 l -0.27,-0.129 c 8.59,0.328 57.83,0.598 69.27,-0.14 96.82,-6.629 92.06,-15.289 147.85,-30.411 45.94,-12.492 95.18,-21.39 144.08,-27.949 50.06,-6.812 94.91,-7.633 141.86,-2.832 63.66,6.551 133.26,24.301 185.2,57.781 -47.48,-0.8 -96.24,-9.929 -143.55,-6.308 -19.91,1.539 -52.13,4.527 -73.99,11.269 -43.42,13.329 -68.35,18.539 -114.29,31.348 -39.53,11 -79.36,14.813 -120.6,19.152 -57.13,6.11 -110.01,4.739 -157.57,-3.011" /><path
             id="path86"
             style="fill:#ffffff;fill-opacity:1;fill-rule:nonzero;stroke:none"
             d="m 1103.64,2834.64 -86.96,-322.87 H 924.375 L 866.637,2722.1 810.18,2511.77 h -92.082 l -86.95,322.87 h 86.903 l 49.531,-222.26 59.586,222.26 h 83.051 l 56.527,-222.26 52.004,222.26 h 84.89" /><path
             id="path88"
             style="fill:#ffffff;fill-opacity:1;fill-rule:nonzero;stroke:none"
             d="m 1390.51,2772.2 h -148.54 v -60.08 h 137.7 v -62.44 h -137.7 v -137.91 h -82.81 v 322.87 h 231.35 v -62.44" /><path
             id="path90"
             style="fill:#ffffff;fill-opacity:1;fill-rule:nonzero;stroke:none"
             d="m 1628.38,2730.88 c 0,9.08 -2.46,16.91 -7.36,23.47 -4.93,6.56 -10.63,11.14 -17.13,13.74 -8.68,3.46 -17.13,5.37 -25.37,5.73 -8.25,0.35 -19.24,0.55 -32.97,0.55 h -14.31 v -96.51 h 23.85 c 14.17,0 25.84,0.87 35.03,2.6 9.18,1.74 16.87,5.2 23.08,10.39 5.35,4.61 9.22,10.14 11.6,16.55 2.39,6.42 3.58,14.24 3.58,23.48 z m 86.09,1.85 c 0,-14.46 -2.54,-28.59 -7.59,-42.39 -5.06,-13.8 -12.29,-25.41 -21.68,-34.8 -12.88,-12.74 -27.22,-22.34 -43.05,-28.85 -15.82,-6.5 -35.53,-9.74 -59.08,-9.74 h -51.83 v -105.18 h -83.27 v 322.87 h 137.05 c 20.53,0 37.83,-1.77 51.92,-5.31 14.1,-3.54 26.58,-8.85 37.42,-15.94 13,-8.53 22.94,-19.43 29.81,-32.73 6.87,-13.3 10.3,-29.28 10.3,-47.93" /><path
             id="path92"
             style="fill:#ffffff;fill-opacity:1;fill-rule:nonzero;stroke:none"
             d="M 499.312,257.871 441.266,70.5586 H 377.52 L 339.352,196.828 301.645,70.5586 H 237.266 L 179.723,257.871 h 62.988 l 32.152,-129.09 39.965,129.09 h 53.207 l 38,-129.09 31.633,129.09 h 61.644" /><path
             id="path94"
             style="fill:#ffffff;fill-opacity:1;fill-rule:nonzero;stroke:none"
             d="m 649.77,286.07 h -4.493 c -2.66,0.782 -6.121,1.668 -10.394,2.66 -4.27,1 -8.844,1.508 -13.727,1.508 -11.754,0 -19.707,-2.109 -23.867,-6.34 -4.152,-4.226 -6.23,-12.398 -6.23,-24.519 v -1.508 h 46.199 V 217.18 H 593.059 V 70.5586 H 532.836 V 217.18 h -25.684 v 40.691 h 25.684 v 5.18 c 0,22.898 6.094,40.078 18.273,51.539 12.176,11.461 30.606,17.18 55.293,17.18 8.895,0 16.957,-0.301 24.184,-0.918 7.226,-0.602 13.625,-1.422 19.184,-2.411 V 286.07" /><path
             id="path96"
             style="fill:#ffffff;fill-opacity:1;fill-rule:nonzero;stroke:none"
             d="m 789.145,165.551 c 0,18.199 -3.106,31.418 -9.317,39.64 -6.211,8.207 -16.035,12.321 -29.457,12.321 -5.66,0 -11.484,-0.871 -17.473,-2.59 -5.988,-1.711 -11.703,-4.184 -17.14,-7.402 v -94.09 c 3.988,-1.559 8.265,-2.559 12.816,-3.008 4.547,-0.442 9.039,-0.66 13.477,-0.66 15.863,0 27.683,4.636 35.449,13.898 7.766,9.27 11.645,23.238 11.645,41.891 z m 61.886,1.258 c 0,-15.457 -2.363,-29.52 -7.082,-42.207 C 839.23,111.93 833.035,101.48 825.375,93.25 817.383,84.5781 808.324,78.0117 798.223,73.5703 c -10.11,-4.4609 -20.938,-6.6719 -32.493,-6.6719 -10.656,0 -19.714,1.1407 -27.152,3.4102 -7.441,2.2812 -15.047,5.4805 -22.82,9.582 V 1.83984 H 655.543 V 257.871 h 60.215 v -19.512 c 9.215,7.332 18.629,13.282 28.234,17.852 9.606,4.559 20.688,6.84 33.238,6.84 23.321,0 41.454,-8.571 54.391,-25.692 12.941,-17.121 19.41,-40.64 19.41,-70.55" /><path
             id="path98"
             style="fill:#ffffff;fill-opacity:1;fill-rule:nonzero;stroke:none"
             d="m 879.488,70.5586 h 62.3867 v 65.5508 H 879.488 Z" /><path
             id="path100"
             style="fill:#ffffff;fill-opacity:1;fill-rule:nonzero;stroke:none"
             d="m 1101.27,118.602 c 3.89,4.777 6.81,10.539 8.75,17.257 1.95,6.731 2.92,16.051 2.92,27.942 0,11.008 -0.99,20.23 -2.99,27.687 -2.01,7.453 -4.79,13.391 -8.34,17.852 -3.57,4.558 -7.85,7.781 -12.85,9.672 -5.01,1.886 -10.4,2.84 -16.18,2.84 -5.78,0 -10.92,-0.782 -15.43,-2.34 -4.51,-1.551 -8.82,-4.672 -12.93,-9.34 -3.67,-4.332 -6.58,-10.281 -8.76,-17.84 -2.16,-7.562 -3.24,-17.07 -3.24,-28.531 0,-10.231 0.94,-19.102 2.83,-26.602 1.89,-7.508 4.67,-13.539 8.33,-18.109 3.57,-4.32 7.82,-7.488 12.77,-9.5 4.94,-2 10.59,-3 16.93,-3 5.45,0 10.65,0.91 15.6,2.762 4.94,1.82 9.15,4.91 12.59,9.25 z m 73.89,45.539 c 0,-30.813 -8.99,-55.082 -26.94,-72.8129 -17.97,-17.7265 -43.17,-26.5976 -75.64,-26.5976 -32.47,0 -57.69,8.8711 -75.646,26.5976 -17.957,17.7309 -26.938,41.9999 -26.938,72.8129 0,31.019 9.031,55.371 27.109,73.05 18.065,17.68 43.225,26.528 75.475,26.528 32.7,0 57.96,-8.887 75.8,-26.699 17.85,-17.782 26.78,-42.079 26.78,-72.879" /><path
             id="path102"
             style="fill:#ffffff;fill-opacity:1;fill-rule:nonzero;stroke:none"
             d="m 1336.89,200.672 h -5.33 c -2.56,0.879 -6.66,1.558 -12.32,2 -5.66,0.437 -10.37,0.656 -14.14,0.656 -8.55,0 -16.09,-0.558 -22.64,-1.668 -6.54,-1.109 -13.59,-3 -21.13,-5.66 V 70.5586 h -60.22 V 257.871 h 60.22 v -27.519 c 13.2,11.347 24.69,18.878 34.44,22.609 9.77,3.719 18.76,5.59 26.96,5.59 2.11,0 4.5,-0.063 7.17,-0.172 2.66,-0.117 4.99,-0.277 6.99,-0.508 v -57.199" /><path
             id="path104"
             style="fill:#ffffff;fill-opacity:1;fill-rule:nonzero;stroke:none"
             d="m 1475.76,129.609 v 84.903 c -3.44,1.437 -7.65,2.578 -12.65,3.41 -4.99,0.84 -9.49,1.258 -13.48,1.258 -15.76,0 -27.58,-4.532 -35.45,-13.602 -7.87,-9.058 -11.82,-21.699 -11.82,-37.937 0,-18.012 3.36,-30.582 10.08,-37.7 6.7,-7.121 16.66,-10.679 29.86,-10.679 6,0 11.88,0.949 17.64,2.84 5.77,1.886 11.06,4.386 15.82,7.507 z m 60.22,-37.5387 c 0,-17.5586 -2.5,-32.3515 -7.51,-44.3515 -5.01,-12.0274 -12.01,-21.418 -21.03,-28.1993 -9,-6.8984 -19.86,-11.87106 -32.6,-14.92966 C 1462.11,1.53125 1447.73,0 1431.72,0 c -13.01,0 -25.82,0.78125 -38.44,2.35156 -12.63,1.54688 -23.55,3.4375 -32.78,5.66016 V 54.8789 h 7.33 c 7.33,-2.8906 16.26,-5.5195 26.82,-7.918 10.55,-2.3906 19.98,-3.5898 28.31,-3.5898 11.1,0 20.13,1.0391 27.07,3.0898 6.94,2.0586 12.24,4.9805 15.9,8.7579 3.45,3.5624 5.95,8.1093 7.49,13.6718 1.56,5.5586 2.34,12.2305 2.34,20.0196 v 3.5 c -7.22,-5.8985 -15.21,-10.5586 -23.99,-14 -8.77,-3.461 -18.55,-5.1797 -29.32,-5.1797 -26.22,0 -46.43,7.8906 -60.64,23.6992 -14.22,15.7813 -21.32,39.7893 -21.32,72.0503 0,15.45 2.17,28.79 6.49,40.032 4.33,11.226 10.44,21.008 18.32,29.347 7.34,7.782 16.36,13.852 27.07,18.172 10.72,4.348 21.69,6.52 32.91,6.52 10.11,0 19.3,-1.192 27.57,-3.59 8.27,-2.402 15.8,-5.691 22.58,-9.93 l 2.17,8.34 h 58.38 V 92.0703" /><path
             id="path106"
             style="fill:#ffffff;fill-opacity:1;fill-rule:nonzero;stroke:none"
             d="M 1751.25,330.109 1618.96,16.5117 h -51.19 l 131.74,313.5973 h 51.74" /><path
             id="path108"
             style="fill:#ffffff;fill-opacity:1;fill-rule:nonzero;stroke:none"
             d="m 1946.22,129.711 c 0,-19.281 -8.63,-34.8204 -25.92,-46.6094 -17.27,-11.793 -40.92,-17.6914 -70.93,-17.6914 -16.63,0 -31.68,1.5507 -45.2,4.6484 -13.52,3.1016 -24.37,6.5312 -32.56,10.3008 v 49.1796 h 5.48 c 3,-2.109 6.45,-4.398 10.38,-6.891 3.94,-2.5 9.5,-5.187 16.7,-8.07 6.21,-2.547 13.24,-4.726 21.1,-6.558 7.86,-1.829 16.28,-2.739 25.26,-2.739 11.74,0 20.44,1.297 26.08,3.899 5.65,2.609 8.48,6.461 8.48,11.55 0,4.54 -1.66,7.84 -4.99,9.891 -3.32,2.051 -9.64,4.008 -18.94,5.891 -4.43,1 -10.45,2.09 -18.03,3.25 -7.58,1.156 -14.49,2.578 -20.68,4.238 -16.95,4.418 -29.52,11.309 -37.71,20.68 -8.21,9.351 -12.3,21.011 -12.3,34.968 0,17.942 8.5,32.872 25.5,44.782 17,11.898 40.23,17.859 69.7,17.859 13.95,0 27.33,-1.418 40.12,-4.238 12.8,-2.821 22.79,-5.84 29.98,-9.051 v -47.191 h -5.14 c -8.86,6.089 -18.97,11.05 -30.32,14.871 -11.35,3.82 -22.85,5.73 -34.48,5.73 -9.63,0 -17.75,-1.32 -24.33,-3.992 -6.59,-2.656 -9.89,-6.418 -9.89,-11.289 0,-4.43 1.49,-7.809 4.49,-10.141 2.98,-2.32 10.02,-4.648 21.1,-6.976 6.08,-1.223 12.65,-2.403 19.69,-3.571 7.03,-1.171 14.08,-2.632 21.17,-4.402 15.73,-4.098 27.36,-10.551 34.9,-19.348 7.52,-8.812 11.29,-19.812 11.29,-32.98" /><path
             id="path110"
             style="fill:#ffffff;fill-opacity:1;fill-rule:nonzero;stroke:none"
             d="M 2150.02,257.129 2078.08,70.5586 h -67.79 L 1938.86,257.129 H 2002 l 43.3,-128.418 42.76,128.418 h 61.96" /></g></g></g></g></svg>