<?xml version="1.0" encoding="UTF-8" standalone="no"?>
<svg
   xmlns:dc="http://purl.org/dc/elements/1.1/"
   xmlns:cc="http://creativecommons.org/ns#"
   xmlns:rdf="http://www.w3.org/1999/02/22-rdf-syntax-ns#"
   xmlns:svg="http://www.w3.org/2000/svg"
   xmlns="http://www.w3.org/2000/svg"
   viewBox="0 0 1408.4268 377.94666"
   height="377.94666"
   width="1408.4268"
   xml:space="preserve"
   id="svg2"
   version="1.1"><metadata
     id="metadata8"><rdf:RDF><cc:Work
         rdf:about=""><dc:format>image/svg+xml</dc:format><dc:type
           rdf:resource="http://purl.org/dc/dcmitype/StillImage" /></cc:Work></rdf:RDF></metadata><defs
     id="defs6"><clipPath
       id="clipPath20"
       clipPathUnits="userSpaceOnUse"><path
         id="path18"
         d="M 0,0 H 10563 V 2834.64 H 0 Z" /></clipPath></defs><g
     transform="matrix(1.3333333,0,0,-1.3333333,0,377.94667)"
     id="g10"><g
       transform="scale(0.1)"
       id="g12"><g
         id="g14"><g
           clip-path="url(#clipPath20)"
           id="g16"><path
             id="path22"
             style="fill:#ffffff;fill-opacity:1;fill-rule:nonzero;stroke:none"
             d="m 3195.35,1623.83 -120.4,-447.06 h -127.81 l -79.96,291.23 -78.16,-291.23 h -127.5 l -120.4,447.06 h 120.34 l 68.58,-307.75 82.5,307.75 h 114.99 l 78.28,-307.75 72,307.75 h 117.54" /><path
             id="path24"
             style="fill:#ffffff;fill-opacity:1;fill-rule:nonzero;stroke:none"
             d="m 3447.88,1263.24 c 7,8.6 12.25,18.96 15.76,31.08 3.49,12.11 5.26,28.86 5.26,50.28 0,19.82 -1.81,36.43 -5.41,49.85 -3.61,13.41 -8.61,24.12 -15.02,32.12 -6.4,8.2 -14.1,14.01 -23.11,17.43 -9,3.38 -18.72,5.08 -29.12,5.08 -10.42,0 -19.67,-1.39 -27.78,-4.19 -8.1,-2.81 -15.87,-8.41 -23.26,-16.82 -6.61,-7.8 -11.87,-18.52 -15.77,-32.13 -3.9,-13.61 -5.86,-30.72 -5.86,-51.34 0,-18.41 1.71,-34.36 5.11,-47.88 3.4,-13.52 8.4,-24.37 15.02,-32.58 6.39,-7.81 14.05,-13.5 22.97,-17.11 8.9,-3.6 19.06,-5.41 30.46,-5.41 9.81,0 19.17,1.65 28.08,4.96 8.9,3.3 16.46,8.85 22.67,16.66 z m 133.01,81.97 c 0,-55.44 -16.17,-99.13 -48.49,-131.06 -32.33,-31.92 -77.72,-47.88 -136.16,-47.88 -58.45,0 -103.84,15.96 -136.17,47.88 -32.32,31.93 -48.49,75.62 -48.49,131.06 0,55.85 16.26,99.68 48.8,131.5 32.53,31.83 77.8,47.73 135.86,47.73 58.84,0 104.34,-16.01 136.45,-48.02 32.13,-32.03 48.2,-75.76 48.2,-131.21" /><path
             id="path26"
             style="fill:#ffffff;fill-opacity:1;fill-rule:nonzero;stroke:none"
             d="m 3902.73,1410.96 h -9.58 c -4.59,1.59 -11.98,2.8 -22.17,3.6 -10.19,0.79 -18.68,1.2 -25.46,1.2 -15.38,0 -28.96,-1 -40.73,-3 -11.8,-2.01 -24.48,-5.41 -38.06,-10.21 v -225.78 h -108.39 v 337.18 h 108.39 v -49.55 c 23.77,20.42 44.44,33.97 62.01,40.68 17.57,6.71 33.76,10.07 48.54,10.07 3.78,0 8.09,-0.11 12.88,-0.3 4.79,-0.21 8.99,-0.51 12.57,-0.9 v -102.99" /><path
             id="path28"
             style="fill:#ffffff;fill-opacity:1;fill-rule:nonzero;stroke:none"
             d="m 3963.98,1176.77 h 108.391 v 467.18 H 3963.98 Z" /><path
             id="path30"
             style="fill:#ffffff;fill-opacity:1;fill-rule:nonzero;stroke:none"
             d="m 4393.63,1269.57 v 165.69 c -7.6,3.21 -15.58,5.52 -23.97,6.92 -8.38,1.41 -16.07,2.11 -23.06,2.11 -28.37,0 -49.64,-8.87 -63.82,-26.62 -14.17,-17.74 -21.27,-42.35 -21.27,-73.82 0,-33.08 5.7,-57.08 17.08,-72.02 11.39,-14.93 29.65,-22.4 54.82,-22.4 9.79,0 20.17,1.85 31.16,5.57 10.98,3.7 20.66,8.56 29.06,14.57 z m 108.38,-92.8 h -108.38 v 35.13 c -18.61,-15.21 -35.99,-26.42 -52.18,-33.63 -16.21,-7.19 -34.89,-10.8 -56.08,-10.8 -40.99,0 -73.77,15.8 -98.35,47.43 -24.6,31.62 -36.89,74.26 -36.89,127.9 0,28.63 4.15,54 12.44,76.12 8.3,22.11 19.64,41.07 34.04,56.89 13.59,15.01 30.08,26.67 49.47,34.98 19.4,8.3 38.79,12.45 58.18,12.45 20.19,0 36.74,-2.14 49.63,-6.44 12.89,-4.32 26.14,-9.77 39.74,-16.37 v 143.52 h 108.38 v -467.18" /><path
             id="path32"
             style="fill:#ffffff;fill-opacity:1;fill-rule:nonzero;stroke:none"
             d="m 5140.63,1537.35 h -205.67 v -83.16 h 190.66 v -86.47 h -190.66 v -190.95 h -114.69 v 447.06 h 320.36 v -86.48" /><path
             id="path34"
             style="fill:#ffffff;fill-opacity:1;fill-rule:nonzero;stroke:none"
             d="m 5425.86,1263.24 c 7,8.6 12.26,18.96 15.75,31.08 3.51,12.11 5.26,28.86 5.26,50.28 0,19.82 -1.8,36.43 -5.41,49.85 -3.59,13.41 -8.6,24.12 -15.01,32.12 -6.4,8.2 -14.1,14.01 -23.12,17.43 -9,3.38 -18.72,5.08 -29.11,5.08 -10.42,0 -19.66,-1.39 -27.78,-4.19 -8.11,-2.81 -15.87,-8.41 -23.26,-16.82 -6.62,-7.8 -11.87,-18.52 -15.78,-32.13 -3.9,-13.61 -5.86,-30.72 -5.86,-51.34 0,-18.41 1.71,-34.36 5.12,-47.88 3.39,-13.52 8.4,-24.37 15.02,-32.58 6.4,-7.81 14.05,-13.5 22.96,-17.11 8.9,-3.6 19.07,-5.41 30.48,-5.41 9.8,0 19.17,1.65 28.07,4.96 8.89,3.3 16.45,8.85 22.67,16.66 z m 133,81.97 c 0,-55.44 -16.15,-99.13 -48.48,-131.06 -32.34,-31.92 -77.72,-47.88 -136.16,-47.88 -58.45,0 -103.85,15.96 -136.17,47.88 -32.32,31.93 -48.49,75.62 -48.49,131.06 0,55.85 16.26,99.68 48.79,131.5 32.54,31.83 77.81,47.73 135.87,47.73 58.85,0 104.33,-16.01 136.45,-48.02 32.12,-32.03 48.19,-75.76 48.19,-131.21" /><path
             id="path36"
             style="fill:#ffffff;fill-opacity:1;fill-rule:nonzero;stroke:none"
             d="m 5848,1263.24 c 7,8.6 12.25,18.96 15.75,31.08 3.51,12.11 5.25,28.86 5.25,50.28 0,19.82 -1.79,36.43 -5.41,49.85 -3.59,13.41 -8.59,24.12 -15.01,32.12 -6.39,8.2 -14.1,14.01 -23.12,17.43 -9,3.38 -18.71,5.08 -29.1,5.08 -10.42,0 -19.67,-1.39 -27.8,-4.19 -8.09,-2.81 -15.85,-8.41 -23.24,-16.82 -6.62,-7.8 -11.87,-18.52 -15.78,-32.13 -3.91,-13.61 -5.86,-30.72 -5.86,-51.34 0,-18.41 1.71,-34.36 5.12,-47.88 3.39,-13.52 8.4,-24.37 15.02,-32.58 6.39,-7.81 14.04,-13.5 22.96,-17.11 8.9,-3.6 19.07,-5.41 30.48,-5.41 9.8,0 19.16,1.65 28.07,4.96 8.89,3.3 16.45,8.85 22.67,16.66 z m 133,81.97 c 0,-55.44 -16.17,-99.13 -48.48,-131.06 -32.34,-31.92 -77.73,-47.88 -136.16,-47.88 -58.45,0 -103.85,15.96 -136.17,47.88 -32.32,31.93 -48.5,75.62 -48.5,131.06 0,55.85 16.27,99.68 48.79,131.5 32.55,31.83 77.81,47.73 135.88,47.73 58.85,0 104.33,-16.01 136.45,-48.02 32.12,-32.03 48.19,-75.76 48.19,-131.21" /><path
             id="path38"
             style="fill:#ffffff;fill-opacity:1;fill-rule:nonzero;stroke:none"
             d="m 6277.94,1269.57 v 165.69 c -7.61,3.21 -15.57,5.52 -23.97,6.92 -8.39,1.41 -16.07,2.11 -23.06,2.11 -28.38,0 -49.63,-8.87 -63.81,-26.62 -14.19,-17.74 -21.28,-42.35 -21.28,-73.82 0,-33.08 5.7,-57.08 17.08,-72.02 11.38,-14.93 29.65,-22.4 54.82,-22.4 9.79,0 20.16,1.85 31.16,5.57 10.97,3.7 20.67,8.56 29.06,14.57 z m 108.38,-92.8 h -108.38 v 35.13 c -18.6,-15.21 -36,-26.42 -52.18,-33.63 -16.2,-7.19 -34.89,-10.8 -56.08,-10.8 -40.98,0 -73.77,15.8 -98.35,47.43 -24.6,31.62 -36.9,74.26 -36.9,127.9 0,28.63 4.15,54 12.45,76.12 8.3,22.11 19.65,41.07 34.04,56.89 13.59,15.01 30.09,26.67 49.48,34.98 19.39,8.3 38.78,12.45 58.17,12.45 20.18,0 36.74,-2.14 49.62,-6.44 12.89,-4.32 26.16,-9.77 39.75,-16.37 v 143.52 h 108.38 v -467.18" /><path
             id="path40"
             style="fill:#ffffff;fill-opacity:1;fill-rule:nonzero;stroke:none"
             d="m 6954.37,1480.15 c 0,12.59 -3.41,23.42 -10.22,32.51 -6.8,9.08 -14.7,15.43 -23.7,19.01 -12.02,4.8 -23.72,7.44 -35.15,7.94 -11.39,0.5 -26.61,0.75 -45.62,0.75 h -19.82 v -133.6 h 33.04 c 19.61,0 35.77,1.19 48.48,3.59 12.7,2.41 23.36,7.18 31.98,14.38 7.4,6.38 12.74,14.03 16.06,22.92 3.3,8.87 4.95,19.71 4.95,32.5 z m 119.19,2.57 c 0,-20.02 -3.5,-39.59 -10.5,-58.71 -7.01,-19.12 -17.02,-35.17 -30.03,-48.18 -17.82,-17.62 -37.69,-30.93 -59.59,-39.93 -21.93,-9 -49.19,-13.52 -81.83,-13.52 h -71.75 v -145.61 h -115.29 v 447.06 h 189.76 c 28.41,0 52.38,-2.45 71.91,-7.36 19.5,-4.91 36.76,-12.26 51.78,-22.06 18.02,-11.82 31.77,-26.93 41.29,-45.35 9.49,-18.4 14.25,-40.52 14.25,-66.34" /><path
             id="path42"
             style="fill:#ffffff;fill-opacity:1;fill-rule:nonzero;stroke:none"
             d="m 7381.93,1410.96 h -9.58 c -4.58,1.59 -11.99,2.8 -22.17,3.6 -10.19,0.79 -18.68,1.2 -25.45,1.2 -15.38,0 -28.96,-1 -40.74,-3 -11.8,-2.01 -24.49,-5.41 -38.06,-10.21 v -225.78 h -108.38 v 337.18 h 108.38 v -49.55 c 23.77,20.42 44.43,33.97 62.01,40.68 17.57,6.71 33.75,10.07 48.54,10.07 3.79,0 8.08,-0.11 12.89,-0.3 4.77,-0.21 8.97,-0.51 12.56,-0.9 v -102.99" /><path
             id="path44"
             style="fill:#ffffff;fill-opacity:1;fill-rule:nonzero;stroke:none"
             d="m 7643.17,1263.24 c 7.01,8.6 12.26,18.96 15.79,31.08 3.47,12.11 5.24,28.86 5.24,50.28 0,19.82 -1.82,36.43 -5.4,49.85 -3.61,13.41 -8.62,24.12 -15.02,32.12 -6.42,8.2 -14.12,14.01 -23.12,17.43 -9,3.38 -18.72,5.08 -29.13,5.08 -10.42,0 -19.65,-1.39 -27.76,-4.19 -8.11,-2.81 -15.87,-8.41 -23.27,-16.82 -6.6,-7.8 -11.86,-18.52 -15.76,-32.13 -3.91,-13.61 -5.86,-30.72 -5.86,-51.34 0,-18.41 1.71,-34.36 5.09,-47.88 3.42,-13.52 8.42,-24.37 15.02,-32.58 6.4,-7.81 14.08,-13.5 22.98,-17.11 8.89,-3.6 19.06,-5.41 30.46,-5.41 9.81,0 19.16,1.65 28.08,4.96 8.9,3.3 16.47,8.85 22.66,16.66 z m 133.02,81.97 c 0,-55.44 -16.18,-99.13 -48.49,-131.06 -32.32,-31.92 -77.73,-47.88 -136.17,-47.88 -58.44,0 -103.82,15.96 -136.16,47.88 -32.32,31.93 -48.49,75.62 -48.49,131.06 0,55.85 16.25,99.68 48.8,131.5 32.52,31.83 77.82,47.73 135.85,47.73 58.85,0 104.34,-16.01 136.46,-48.02 32.14,-32.03 48.2,-75.76 48.2,-131.21" /><path
             id="path46"
             style="fill:#ffffff;fill-opacity:1;fill-rule:nonzero;stroke:none"
             d="m 8061.46,1283.05 v 152.83 c -6.21,2.59 -13.81,4.66 -22.79,6.16 -8.97,1.5 -17.08,2.25 -24.27,2.25 -28.36,0 -49.61,-8.17 -63.79,-24.46 -14.19,-16.32 -21.28,-39.1 -21.28,-68.32 0,-32.43 6.03,-55.04 18.13,-67.86 12.07,-12.81 30.01,-19.21 53.77,-19.21 10.77,0 21.37,1.7 31.74,5.1 10.39,3.4 19.88,7.91 28.49,13.51 z m 108.37,-67.55 c 0,-31.62 -4.51,-58.24 -13.51,-79.85 -9.01,-21.63 -21.61,-38.54 -37.84,-50.75 -16.2,-12.41 -35.77,-21.36 -58.69,-26.87 -22.91,-5.51 -48.79,-8.26 -77.61,-8.26 -23.43,0 -46.51,1.39 -69.21,4.21 -22.72,2.8 -42.37,6.2 -58.99,10.2 v 84.37 h 13.18 c 13.19,-5.21 29.29,-9.95 48.27,-14.26 18.99,-4.3 35.98,-6.46 50.98,-6.46 19.97,0 36.22,1.86 48.72,5.56 12.48,3.7 22.01,8.96 28.61,15.76 6.19,6.41 10.7,14.61 13.49,24.61 2.81,10.01 4.23,22.02 4.23,36.04 v 6.3 c -13,-10.61 -27.42,-19.02 -43.21,-25.21 -15.78,-6.22 -33.38,-9.32 -52.77,-9.32 -47.17,0 -83.56,14.21 -109.16,42.63 -25.59,28.43 -38.38,71.67 -38.38,129.72 0,27.82 3.91,51.83 11.69,72.05 7.81,20.22 18.79,37.83 33,52.84 13.19,14 29.44,24.92 48.72,32.72 19.3,7.82 39.03,11.71 59.23,11.71 18.2,0 34.74,-2.14 49.62,-6.44 14.9,-4.32 28.43,-10.27 40.64,-17.87 l 3.91,15.02 h 105.08 V 1215.5" /><path
             id="path48"
             style="fill:#ffffff;fill-opacity:1;fill-rule:nonzero;stroke:none"
             d="m 8504.62,1410.96 h -9.59 c -4.6,1.59 -11.98,2.8 -22.17,3.6 -10.19,0.79 -18.67,1.2 -25.48,1.2 -15.37,0 -28.94,-1 -40.73,-3 -11.78,-2.01 -24.46,-5.41 -38.04,-10.21 v -225.78 h -108.4 v 337.18 h 108.4 v -49.55 c 23.76,20.42 44.44,33.97 62.01,40.68 17.57,6.71 33.76,10.07 48.52,10.07 3.8,0 8.11,-0.11 12.88,-0.3 4.81,-0.21 9.01,-0.51 12.6,-0.9 v -102.99" /><path
             id="path50"
             style="fill:#ffffff;fill-opacity:1;fill-rule:nonzero;stroke:none"
             d="M 8758.34,1264.96 V 1335 c -14.61,-1.2 -30.41,-2.85 -47.42,-4.94 -17.04,-2.1 -29.94,-4.53 -38.74,-7.34 -10.82,-3.39 -19.07,-8.32 -24.78,-14.81 -5.7,-6.49 -8.55,-15.02 -8.55,-25.58 0,-6.99 0.6,-12.68 1.79,-17.07 1.22,-4.39 4.22,-8.58 9.03,-12.56 4.6,-4 10.1,-6.94 16.49,-8.83 6.42,-1.9 16.43,-2.84 30.03,-2.84 10.82,0 21.77,2.18 32.88,6.57 11.12,4.39 20.87,10.18 29.27,17.36 z m 0,-52.46 c -5.79,-4.41 -13.02,-9.71 -21.61,-15.91 -8.6,-6.21 -16.72,-11.11 -24.34,-14.71 -10.58,-4.81 -21.61,-8.36 -33.01,-10.67 -11.4,-2.29 -23.92,-3.45 -37.52,-3.45 -32.03,0 -58.85,9.91 -80.46,29.72 -21.63,19.83 -32.44,45.14 -32.44,75.97 0,24.62 5.5,44.73 16.53,60.35 10.99,15.61 26.61,27.92 46.81,36.92 20.02,9.02 44.85,15.41 74.47,19.22 29.63,3.8 60.35,6.6 92.18,8.4 v 1.81 c 0,18.62 -7.61,31.47 -22.83,38.58 -15.22,7.1 -37.61,10.67 -67.24,10.67 -17.82,0 -36.83,-3.16 -57.05,-9.47 -20.22,-6.31 -34.72,-11.15 -43.54,-14.57 h -9.9 v 81.37 c 11.4,3.01 29.96,6.55 55.68,10.66 25.72,4.11 51.51,6.16 77.32,6.16 61.45,0 105.85,-9.46 133.15,-28.37 27.32,-18.92 40.99,-48.6 40.99,-89.03 v -229.38 h -107.19 v 35.73" /><path
             id="path52"
             style="fill:#ffffff;fill-opacity:1;fill-rule:nonzero;stroke:none"
             d="m 9282.59,1415.76 v -238.99 h -108.38 v 168.44 c 0,16.4 -0.4,30.37 -1.21,41.88 -0.78,11.51 -2.98,20.86 -6.59,28.08 -3.6,7.19 -9.08,12.45 -16.37,15.76 -7.32,3.3 -17.57,4.95 -30.77,4.95 -10.62,0 -20.92,-2.16 -30.92,-6.45 -10.02,-4.31 -19.01,-8.87 -27.03,-13.67 v -238.99 h -108.38 v 337.18 h 108.38 v -37.24 c 18.58,14.61 36.39,26.02 53.38,34.23 16.98,8.2 35.77,12.3 56.37,12.3 22.2,0 41.79,-4.95 58.78,-14.85 16.99,-9.91 30.28,-24.47 39.89,-43.69 21.56,18.21 42.55,32.53 62.95,42.94 20.38,10.4 40.37,15.6 59.97,15.6 36.35,0 64,-10.9 82.88,-32.71 18.89,-21.83 28.35,-53.24 28.35,-94.29 v -219.47 h -108.41 v 168.44 c 0,16.61 -0.33,30.62 -1.06,42.04 -0.69,11.39 -2.85,20.7 -6.43,27.92 -3.41,7.19 -8.82,12.45 -16.23,15.76 -7.4,3.3 -17.8,4.95 -31.22,4.95 -9,0 -17.82,-1.56 -26.41,-4.66 -8.62,-3.09 -19.13,-8.26 -31.54,-15.46" /><path
             id="path54"
             style="fill:#ffffff;fill-opacity:1;fill-rule:nonzero;stroke:none"
             d="m 9921.53,1415.76 v -238.99 h -108.4 v 168.44 c 0,16.4 -0.41,30.37 -1.19,41.88 -0.81,11.51 -3,20.86 -6.6,28.08 -3.61,7.19 -9.06,12.45 -16.36,15.76 -7.31,3.3 -17.57,4.95 -30.79,4.95 -10.62,0 -20.91,-2.16 -30.92,-6.45 -10.01,-4.31 -19.02,-8.87 -27.03,-13.67 v -238.99 h -108.37 v 337.18 h 108.37 v -37.24 c 18.61,14.61 36.4,26.02 53.39,34.23 17,8.2 35.77,12.3 56.38,12.3 22.18,0 41.77,-4.95 58.76,-14.85 16.99,-9.91 30.29,-24.47 39.88,-43.69 21.59,18.21 42.57,32.53 62.95,42.94 20.4,10.4 40.4,15.6 60,15.6 36.3,0 64,-10.9 82.9,-32.71 18.8,-21.83 28.3,-53.24 28.3,-94.29 v -219.47 h -108.4 v 168.44 c 0,16.61 -0.3,30.62 -1,42.04 -0.7,11.39 -2.9,20.7 -6.5,27.92 -3.4,7.19 -8.8,12.45 -16.2,15.76 -7.4,3.3 -17.82,4.95 -31.22,4.95 -9.02,0 -17.82,-1.56 -26.43,-4.66 -8.61,-3.09 -19.1,-8.26 -31.52,-15.46" /><path
             id="path56"
             style="fill:#ffffff;fill-opacity:1;fill-rule:nonzero;stroke:none"
             d="m 10455.7,1388.74 c -0.6,22.62 -6.2,39.63 -16.8,51.04 -10.6,11.41 -27.2,17.12 -49.6,17.12 -20.8,0 -37.9,-5.41 -51.3,-16.22 -13.4,-10.81 -20.9,-28.13 -22.5,-51.94 z m 107.5,-63.35 h -247.4 c 1.6,-26.42 11.6,-46.64 30.1,-60.65 18.6,-14.01 45.8,-21.02 81.9,-21.02 22.8,0 44.9,4.1 66.3,12.31 21.4,8.21 38.3,17.01 50.8,26.43 h 12 v -86.77 c -24.5,-9.82 -47.5,-16.92 -69.1,-21.32 -21.6,-4.4 -45.5,-6.61 -71.8,-6.61 -67.6,0 -119.4,15.22 -155.5,45.64 -36,30.42 -54,73.76 -54,130 0,55.63 17.1,99.73 51.2,132.27 34.1,32.51 80.9,48.77 140.3,48.77 54.9,0 96.1,-13.85 123.7,-41.58 27.7,-27.72 41.5,-67.6 41.5,-119.64 v -37.83" /><path
             id="path58"
             style="fill:#ffffff;fill-opacity:1;fill-rule:nonzero;stroke:none"
             d="m 1340.5,2131.15 c 12.51,27.07 24.09,48.63 40.79,74.31 7.38,11.32 15.7,19.22 23.12,30.66 -3.55,1.03 -8.73,-1.9 -10.97,-3.49 -7.42,-5.38 -10.77,-14.12 -16.71,-18.8 -14.03,-11.08 -13.64,-21.1 -20.99,-26.28 -6.57,-4.64 -8.46,-7.69 -13.06,-14.9 -3.08,-4.83 -5.34,-8.73 -8.59,-18.22 -1.16,-3.44 -3.45,-0.41 -8.93,-7.95 -7.19,-9.8 -10.41,-20.39 -13.39,-32.25 -0.95,-3.91 -7.59,-5.98 -11.85,-14.07 -5.72,-10.93 -9.44,-21.04 -11.91,-36.96 -0.61,-3.69 -6.85,-6.25 -11.16,-16.53 -3.05,-7.22 -5.23,-8.83 -7.9,-22.45 -1.64,-8.31 -5.43,-9.5 -9.7,-21.56 -3.3,-9.2 -3.42,-18.06 -4.58,-30.09 -0.26,-2.32 -4.2,-6.95 -7.83,-13.68 -6.09,-11.26 -5.9,-18.78 -8.32,-30.41 -0.93,-4.21 -5.64,-9.78 -10.18,-27.8 -3.98,-15.97 -0.33,-26.57 -1.67,-34.45 -3.53,-20.44 -7.04,-38.2 -5.14,-58.35 0.94,-9.84 2.44,-20.01 1.78,-29.47 -1.88,-29.71 -3.48,-54.17 -3.32,-87.83 0.1,-18.32 1.54,-43.41 4.31,-64.3 3.05,-23.06 7.44,-41.06 7.44,-41.06 h 75.14 c 0,0 -2.94,43.44 0.96,89.19 2.3,27.42 8.83,56.48 14.75,76.89 7.51,26.03 12.18,39.5 26.38,73.85 0.29,0.76 -0.11,3.97 -3.86,0.83 -7.84,-6.59 -14.38,-12.38 -20.57,-21.69 -9.46,-14.26 -15.22,-26 -22.87,-40.64 -8.95,-17.02 -13.89,-31.84 -23.11,-52.52 -0.55,14.93 1.87,29.13 4.9,42.88 3.11,14.04 5.57,25.15 9.98,37.25 7.83,21.35 15.43,39.16 27.99,59.03 7.28,11.48 16.57,21.77 26.02,30.33 11.29,10.31 21.72,19.39 33.54,29.49 -12.41,6.41 -28.95,-6.95 -32.26,-7.64 -17.48,-3.42 -24.58,-19.61 -29.94,-21.83 -7.64,-3.2 -12.07,-7.87 -17.38,-14.33 -4.08,-4.85 -5.31,-12.33 -9.59,-14.98 -7.13,-4.44 -12.36,-11.14 -17.26,-20.5 -2.02,-3.87 -7.5,-22.13 -13.6,-19.78 10.42,61.92 32.29,120 67.38,171.7 22.25,32.77 46.45,60.87 82.12,86.09 4.7,3.34 5.62,4.89 -0.94,4.67 -33.34,-4.06 -35.38,-19.28 -40.87,-20.72 -5.21,-1.34 -11.65,-7.52 -15.77,-11.53 -7.42,-7.32 -7.29,-13.49 -10.13,-15.43 -6.08,-4.24 -10.67,-8.65 -14.82,-16.01 -2.18,-3.85 -5.85,-12.31 -9.11,-14.24 -8.56,-4.96 -16.85,-12.19 -20.98,-19.99 -3.06,-5.71 -4.27,-11.89 -8.26,-17.49 -4.26,-6.03 -10.23,-10.53 -15.36,-14.89 3.9,26.47 16.37,57.82 24.95,84.87 11.54,36.13 25.54,68.95 41.33,103.07" /><path
             id="path60"
             style="fill:#ffffff;fill-opacity:1;fill-rule:nonzero;stroke:none"
             d="m 1417.21,1916.65 c 28.45,63.86 58.37,111.9 97.27,168.12 5.08,7.36 9.64,14.58 14.08,21.48 1.99,3.12 11.55,16.86 13.54,19.77 13.04,19.68 18.52,25.71 31.87,44.53 3.61,5.11 6.54,9.13 8.09,15.03 2.84,11.01 -6.62,18.4 -8.79,28.96 -2.2,10.79 -1,22.57 3.95,31.68 3.11,5.71 6.19,7.93 9.32,15.58 6.06,14.74 3.96,46.59 10.87,47.43 -1.75,-15.13 -2.15,-32.13 0.22,-46.63 2.77,-16.92 13.04,-27.19 17.28,-45.12 11.42,2.06 23.83,1.57 33.44,0.74 9.55,-0.81 21.62,1.83 31.4,5.19 13.26,4.53 24.28,12.77 37.79,15.98 -11.49,-11.06 -27.72,-15.2 -41.32,-23.6 -5,-3.13 -9.71,-7.28 -13.05,-12.45 -5.47,-8.5 -9.79,-16.64 -18.34,-20.37 -15.2,-6.63 -28.24,-3.49 -45.58,-6.71 -25.76,-26.54 -50.01,-62.63 -72.38,-100.58 -56.73,-95.97 -104.03,-195.37 -131.53,-297.29 9.51,17.73 18.59,34.88 28.89,51.76 11.38,18.74 24.18,37.09 38.14,55.47 32.65,43.04 64.97,80.63 101.17,120.18 29.22,31.97 61.24,58.76 96.95,81.18 47.19,29.57 105.41,50.29 156.57,39.6 5.82,-1.35 14.14,-2.91 17.77,-6.74 -64.11,8.98 -121.54,-13.41 -164.4,-47.74 -33.85,-27.07 -62.39,-54.56 -91.38,-90.27 -14.98,-17.21 -28.46,-36.12 -41.84,-54.45 -14.01,-19.26 -26.44,-39.55 -38.77,-59.83 -41.54,-68.6 -72.99,-141.25 -96.11,-216.5 -0.66,-2.39 -0.81,-4.79 -1.47,-7.16 1.1,1.69 2.72,3.52 3.81,5.24 31.13,50.61 68.56,99.46 115.96,132.23 4.14,2.81 8.46,8.25 9.57,12.53 5.13,20.09 -10.19,29.74 11,57.52 4.86,6.38 11.5,8.7 16.09,14.64 8.67,13.4 15.74,37.4 23.01,43.85 -3.65,-15.63 -12.62,-32.13 -14.53,-48.25 -2.03,-17.69 2.49,-32.15 3.28,-50.89 12.52,-1.71 22.2,-7 32.03,-10.04 15.27,-4.77 24.45,-3.55 39.57,-2.25 6.44,0.54 18.14,4.31 25.1,2.9 -14.61,-7.99 -34.34,-6.52 -49.29,-14.15 -10.46,-5.35 -13.49,-13.26 -27.91,-16.05 -12.84,-2.5 -23.64,-1.16 -31.98,3.13 -6.5,3.27 -11.57,4.64 -17.4,1.84 -15.55,-7.47 -26.18,-18.01 -38.7,-30.64 -29.08,-29.27 -52.81,-61.93 -74.96,-104.75 -5.86,-11.4 -11.13,-22.64 -16.13,-34.25 -2.46,-5.66 -8.59,-21.34 -8.59,-21.34 h -75.98 c 0,0 -0.2,21.9 0.52,29.91 1.45,15.94 3.62,27.75 6.72,43.93 4.4,23.27 8.72,44.37 14.75,66.95 5.88,21.95 12.22,42.56 19.75,63.64 15.7,43.97 32.4,86.07 50.66,127.06" /><path
             id="path62"
             style="fill:#ffffff;fill-opacity:1;fill-rule:nonzero;stroke:none"
             d="m 682.555,1324.81 c 27.734,22.67 48.265,35.82 75.957,52.32 11.246,6.73 28.258,14.34 41.336,20.26 47.984,21.68 111.464,37.67 171.269,38.77 1.086,0 1.016,-0.05 1.016,-0.05 h 445.897 c 0,0 -1.66,0.05 1.56,0.05 14.19,0 28.23,-4.94 36.92,-13.14 8.7,-8.26 12.86,-20.98 15.14,-33.62 1.92,-10.79 0.97,-20.37 -1.54,-31.9 -1.96,-9.1 -3.43,-14.54 -8.5,-22.27 -3.07,-4.71 -5.98,-7.94 -11.68,-12.48 -5.86,-4.68 -14.16,-6.31 -23.68,-6.4 -0.99,-0.05 -3.12,-0.11 -3.04,-0.08 0.1,0.08 -521.565,0.08 -521.565,0.08 0,0 -3.243,0.01 -4.872,0.01 -34.144,0.11 -70.093,-1.63 -103.835,-6.04 -25.844,-3.52 -51.743,-7.56 -76.723,-14.06 -31.504,-8.22 -61.836,-19.62 -92.117,-30.91 16.785,22.32 36.16,41.24 58.457,59.46" /><path
             id="path64"
             style="fill:#ffffff;fill-opacity:1;fill-rule:nonzero;stroke:none"
             d="m 837.387,1502.22 c 27.398,19.78 60.66,36.03 90.125,47.31 14.949,5.67 34.812,11.94 50.593,15.86 19.063,4.82 40.965,8.42 58.835,8.95 5.38,0.14 0.79,0.04 0.79,0.04 l 382.45,0.04 c 0,0 8.19,-0.44 11.04,-1 7.18,-1.55 12.98,-4.48 15.39,-6.02 5.93,-3.8 13.39,-11.8 17.29,-18.13 9.93,-16.36 11.68,-34.01 8.47,-52.37 -3.67,-20.97 -19.61,-44.87 -41.23,-45.45 -3.77,-0.1 -11.28,0 -11.28,0 h -414.23 c 0,0 -24.11,-0.47 -35.122,-0.87 -20.375,-0.8 -42.965,-3.13 -60.75,-5.74 -15.215,-2.19 -30.078,-5.07 -45.317,-9.16 -51.066,-13.79 -95.441,-39.69 -141.851,-59.84 31.254,54.64 73.539,96.49 114.797,126.38" /><path
             id="path66"
             style="fill:#ffffff;fill-opacity:1;fill-rule:nonzero;stroke:none"
             d="m 623.438,1242.29 c 66.488,39.27 146.582,54.76 219.886,57.22 1.742,0.08 5.223,0.2 5.223,0.2 l 571.733,-0.05 c 0,0 1.03,0 6.21,0.05 34.65,0.03 47.3,-34.36 47.15,-62.16 -0.07,-9.15 -1.62,-18.5 -4.16,-24.77 -3.29,-8.19 -6.94,-14.88 -12.89,-21.33 -2.13,-2.35 -9.79,-7.73 -13.18,-8.56 -7.92,-1.93 -17.66,-1.72 -17.6,-1.72 0.07,0 -425.27,-0.07 -425.27,0 0,0 -22.946,0.92 -38.868,2.45 -11.473,1.14 -20.18,2.34 -32.094,4.6 -29.285,5.82 -53.562,15.36 -78.926,23.18 -16.918,5.23 -34.714,9.13 -53.273,11.93 -34.137,5.23 -71.418,7.61 -105.891,4.99 -43.847,-3.25 -82.843,-11.84 -124.554,-25.08 7.054,11 36.371,27.12 56.504,39.05" /><path
             id="path68"
             style="fill:#ffffff;fill-opacity:1;fill-rule:nonzero;stroke:none"
             d="m 931.395,1063.01 c -19.543,6.88 -38.614,15.77 -55.719,27.07 -22.285,14.75 -33.211,26.47 -62.008,39.78 -24.648,11.39 -44.328,22.63 -78.691,35.08 -16.582,6.02 -43.446,14.28 -66.481,18.23 -32.906,5.58 -64.633,8.03 -64.633,8.03 0,0 6.719,4.19 10.77,5.43 33.586,10.23 63.25,15.22 97.738,17.77 30.246,2.26 58.035,-0.69 88.356,-5.42 12.441,-1.97 28.613,-5.8 42.668,-9.81 45.636,-12.99 97.523,-33.58 143.546,-33.66 2.571,0 2.278,0.04 2.278,0.04 h 425.011 c 0,0 -3.21,0 1.3,0 12.87,0.04 36.94,-4.13 46.6,-21.21 11.2,-19.68 14.68,-43.13 5.28,-66.6 -2.85,-7.06 -7.58,-17.16 -14.38,-23.29 -5.96,-5.4 -15.66,-8.86 -21.27,-8.86 -1.62,-0.08 -4.39,0 -4.39,0 h -371.7 c 0,0 1.41,0 -2.02,0 -38.01,0 -85.853,4.6 -122.255,17.42" /><path
             id="path70"
             style="fill:#ffffff;fill-opacity:1;fill-rule:nonzero;stroke:none"
             d="m 1100.71,931.16 c -10.51,10.789 -25.01,27.34 -38.15,43.039 -25.22,30.081 -36.52,57.171 -36.52,57.171 h 247.91 c 0,0 0.66,-28.61 -5.07,-61.722 -5.36,-30.75 -16.72,-63.168 -28.8,-86.66 -0.44,-24.078 9.73,-46.476 11.4,-70.258 -20.36,-12.5 -42.27,-24.878 -60.52,-42.429 -1.16,-1.071 -3.04,-1.071 -3.82,1.828 -9.77,36.66 -14.92,69.351 -22.94,105.601 -22.6,17.469 -43.8,33.032 -63.49,53.43" /><path
             id="path72"
             style="fill:#ffffff;fill-opacity:1;fill-rule:nonzero;stroke:none"
             d="m 1356.21,951.5 c -7.02,12.941 -12.25,30.039 -20.3,40.211 -1.73,-9.063 0.4,-14.652 -0.83,-23.332 -1.13,-7.27 -7.09,-4.25 -8.3,-0.828 -3.47,9.84 -7.17,21.988 -10.35,32.078 -5.28,16.811 -6.97,31.691 -6.97,31.691 l 41.24,0.05 c 0,0 1.58,-0.39 2.31,-4.41 1.98,-10.39 1.49,-20.53 4.34,-32.569 3.65,-15.512 8.37,-29.672 14.06,-44.129 4.96,-12.742 11.36,-25.571 16.55,-38.223 0.71,-1.66 1.05,-4.848 -0.2,-6.508 -1.53,-1.929 -4.16,-1.679 -5.68,0 -11.8,13.43 -16.57,28.629 -25.87,45.969" /><path
             id="path74"
             style="fill:#ffffff;fill-opacity:1;fill-rule:nonzero;stroke:none"
             d="m 1420.04,922.012 c -7.01,14.949 -16.87,31.758 -16.01,48.718 4.56,-5.98 6.43,-10.281 12.71,-13.621 2.87,-0.91 8.9,-0.058 7.39,4.961 -2.78,9.348 -7.08,17.258 -11.07,30.071 -5.92,18.959 -11.67,39.209 -11.67,39.209 l -42.1,0.02 c 0,0 2.34,-17.08 11.91,-43.292 8.4,-23.219 21.39,-49.777 35.61,-74.668 11.59,-20.488 22.11,-38.359 35.26,-53.308 4.5,-5.161 15.53,-0.641 10.76,6.058 -12.47,17.641 -24.11,37.168 -32.79,55.852" /><path
             id="path76"
             style="fill:#ffffff;fill-opacity:1;fill-rule:nonzero;stroke:none"
             d="m 1693.4,2344.89 c -9.14,-3.97 -17.2,-9.12 -21.76,-17.91 -3.32,-6.3 -5.56,-15.91 0.79,-21.32 11.11,-9.5 24.37,0.21 29.74,9.91 6.79,12.34 5.02,35.95 5.02,35.95 0,0 -7.89,-4.11 -13.79,-6.63" /><path
             id="path78"
             style="fill:#ffffff;fill-opacity:1;fill-rule:nonzero;stroke:none"
             d="m 1703.06,2285.96 c 4,7.54 12.75,15.67 22.34,21.51 10.84,6.62 22.07,13.06 29.88,17.72 7.8,4.69 9.3,7.99 9.3,7.99 0,0 -6.44,-2.22 -9.97,-4.3 -19.27,-11.49 -40.31,-24.55 -48.86,-28.32 -10.8,-4.72 -25.47,-5.63 -38.7,-7.31 -2.11,16.68 -6.45,23.62 -6.39,38.44 0.11,7.11 1.83,16.33 3.04,22.77 4.14,21.43 4.95,32.24 4.95,32.24 0,0 -3.27,-3.05 -4.47,-12.48 -1.34,-8.52 -2.3,-11.66 -4.25,-21.73 -2.23,-11.63 -4.55,-21.47 -11.51,-28.74 -10.02,-10.36 -19.29,-28.82 -11.56,-42.96 4.51,-8.26 12.04,-7.06 14.4,-9.18 2.36,-2.13 3.79,-7.2 10.92,-9.58 15.39,-5.14 32.83,8.67 40.88,23.93" /><path
             id="path80"
             style="fill:#ffffff;fill-opacity:1;fill-rule:nonzero;stroke:none"
             d="m 1683.11,2241.89 c 5.22,8.47 10.59,14.43 18.82,19.48 13.66,8.33 23.8,13.97 32.13,18.23 3.61,1.82 6.63,3.97 7.55,7.83 -3.73,-1.39 -17.84,-8.02 -31.84,-16.34 -10.03,-6 -27.27,-13.47 -38.85,-14.01 -4.59,-0.19 -7.99,0.94 -11.74,1.06 -7.77,0.31 -17.66,-1.57 -17.66,-1.57 0,0 -2.51,10.99 -5.83,18.9 -1.66,4.05 -4.36,8.21 -5.8,15.83 -0.98,5.08 -1.26,12.7 -0.86,17.25 1.13,13.73 4.83,27.07 4.2,40.96 -8.64,-17.92 -5.11,-40.01 -15.24,-53.87 -4.27,-5.84 -7.65,-10.43 -11.01,-17.78 -5.57,-12.07 -4.9,-24.56 2.61,-36.19 4.34,-6.62 13.91,-6.38 15.56,-7.65 2.51,-1.86 4.66,-8.79 14.02,-10.88 16.01,-3.6 34.9,3.82 43.94,18.75" /><path
             id="path82"
             style="fill:#ffffff;fill-opacity:1;fill-rule:nonzero;stroke:none"
             d="m 1687.58,1891.3 c 3.73,7.53 6.14,17.42 10.89,24.4 -10.75,-1.61 -12.49,-2.84 -28.04,-4.54 -3.38,-0.33 -10.4,-3.84 -12.71,-6.16 -6.15,-6.2 -11.52,-11.96 -9.13,-22.37 0.92,-4.06 4.49,-7.03 6.48,-7.66 12.93,-4.2 26.06,3.5 32.51,16.33" /><path
             id="path84"
             style="fill:#ffffff;fill-opacity:1;fill-rule:nonzero;stroke:none"
             d="m 1700.71,1870.77 c 14.69,3.44 31.66,10.65 38.47,8.37 -13.78,-7.33 -31.17,-9.99 -46.44,-14.34 -11.65,-3.36 -19.97,-12.16 -30.37,-20.16 -9.55,-7.26 -22.25,-10.21 -33.6,-4.87 -3.82,1.81 -7.53,7.98 -8.2,11.28 -0.59,2.63 -6.07,5.26 -8.89,7.57 -2.83,2.37 -4.19,8.26 -4.25,10.53 -0.49,20.33 14.98,28.55 29.89,40.49 11.23,8.99 25.8,47.17 34.7,55.08 -1.59,-12.31 -17.58,-35.52 -24.55,-53.58 -5.53,-14.39 -3.72,-25.89 -7.29,-41.05 10.66,-0.68 22.55,-2.91 33.28,-3.09 8.42,-0.11 18.6,1.72 27.25,3.77" /><path
             id="path86"
             style="fill:#ffffff;fill-opacity:1;fill-rule:nonzero;stroke:none"
             d="m 1685.23,1839.43 c -8.25,-1.54 -18.35,-4.14 -25.23,-5.59 -23.96,-5.08 -35.41,6.66 -54.53,6.43 1.68,21.91 -5.92,31.71 0.34,45.87 5.58,12.6 10.76,25.94 15.55,36.63 3.9,8.55 5.07,15.78 5.07,15.78 0,0 -5.8,-8.69 -22.31,-40.85 -5.75,-11.22 -16.03,-13.64 -25.15,-24.23 -10.52,-12.13 -16.54,-37.76 2.89,-48.52 3.87,-2.11 3.3,-8.78 6.11,-11.46 12.98,-12.21 39.19,-10.99 55.59,3.89 13.05,11.9 28.91,13.82 42.42,17.33 7.9,2.04 14.84,5.4 14.84,5.4 0,0 -3.75,1.52 -15.59,-0.68" /><path
             id="path88"
             style="fill:#ffffff;fill-opacity:1;fill-rule:nonzero;stroke:none"
             d="m 1205.23,1585.18 c -0.95,0 -1.96,0 0,0 z m -111.89,315.54 c -7.98,-10.55 -11.68,-22.7 -20.5,-31.92 -4.6,-4.82 -11.62,-2.57 -15.27,3 -4.04,6.28 -10.59,15.18 -5.72,21.4 8,10.25 24.75,16.8 39,14.96 0.84,-0.1 5.43,-3.5 2.49,-7.44 z M 1055,1840.33 c -4.47,-11.96 -17.8,-13.25 -29.14,-15.61 -2.12,-0.47 -8.64,0 -11.57,2.87 -4.9,4.78 -9.14,11.34 -8.29,19.53 0.46,5.06 4.68,10.02 9.9,12.03 9.47,3.67 20.7,9.57 30.03,4.34 8.03,-4.49 12.24,-14.73 9.07,-23.16 z m -24.55,-63.21 c -3.26,-4.72 -11.64,10.94 -12.73,18.12 -3.13,20.77 15.07,26.06 30.24,25.42 0.47,-12.39 -9.13,-31.57 -17.51,-43.54 z m -16.38,-56.03 c -2.98,-8.36 -4.41,-16.04 -7.73,-23.7 -3.22,-7.4 -16.969,-10.04 -24.602,-7.66 -10.894,3.37 -20.238,27.82 -7.855,37.2 9.476,7.08 19.293,8.22 31.357,9.69 2.17,0.27 10.28,-0.22 10.59,-0.98 2.03,-5.08 0.75,-7.62 -1.76,-14.55 z m -18.34,-64.59 c -2.207,-6.42 -3.179,-13.03 -6.019,-19.2 -1.418,-3.13 -3.285,0.99 -3.359,1.19 -4.282,10.64 -6.981,19.66 -3.332,29.02 2.062,5.2 9.164,9.96 15.902,10.38 -0.414,-6.67 -0.891,-14.89 -3.192,-21.39 z M 974.082,1625 c -4.922,2.23 -4.848,8.56 -6.91,12.49 -1.942,3.84 -6.133,9.12 -4.406,14.16 9.496,-5.32 13.898,-14.82 11.316,-26.65 z m -16.387,39.32 c -11.332,9.31 -12.312,24.21 -19.863,35.61 8.336,5.33 22.387,4.26 26.711,-6.29 3.453,-8.47 5.965,-20.93 -2.633,-27.41 -0.933,-0.68 -3.14,-2.8 -4.215,-1.91 z m -42.246,76.84 c -1.699,2.43 -5.062,9.44 -2.5,10.33 20.281,6.98 35.496,7.2 39.832,-14.49 3.071,-15.49 -7.508,-28.78 -22.332,-23.36 -4.25,1.57 -8.461,18.06 -15,27.52 z m -29.496,49 c -1.422,1.78 -2.578,7.18 -0.808,8.56 10.546,8.48 26.031,9.12 38.019,7.95 15.813,-1.44 19.059,-16.13 16.422,-28.32 -3.481,-16.03 -27.805,-18.03 -34.691,-15.36 -6.77,2.6 -11.493,17.94 -18.942,27.17 z m 3.442,57.03 c 13.664,8.86 39.785,15.43 44.14,-8.57 1.32,-7.22 -0.484,-16.82 -10.25,-19.97 -10.031,-3.21 -21.847,-6.69 -31.012,-2.97 -11.273,4.62 -13.488,24.65 -2.878,31.51 z m -14.165,40.36 c 1.032,4.6 6.133,6.78 10.418,7.87 11.063,2.74 23.43,6.86 33.582,0.39 3.958,-2.51 4.262,-6.05 4.778,-11.02 0.898,-8.07 -0.246,-14.66 -5.563,-17.75 -10.773,-6.32 -21.734,-6.89 -34.257,-4.42 -10.157,2 -10.985,15.46 -8.958,24.93 z m -11.335,-62.21 c -9.469,7 -13.657,16.9 -20.637,26.71 -1.688,2.4 0,3.39 1.293,3.76 16.804,4.76 29.277,-3.63 26.66,-21.95 -0.469,-3.56 -2.781,-11.86 -7.316,-8.52 z m -46.383,56.61 c -6.301,5.44 -1.922,14.92 3.566,17.67 9.61,4.77 24.707,5.5 34.703,2.13 6.43,-2.17 9.684,-11.4 8.531,-21.46 -0.484,-4.14 -1.746,-8.68 -3.765,-10.02 -7.613,-5.2 -19.391,-5.39 -28.649,-3.47 -6.55,1.38 -8.886,10.34 -14.386,15.15 z m -7.262,57.24 c 6.09,13.26 28.305,13.37 40.402,7.46 9.856,-4.84 11.094,-23.18 0.332,-30.42 -8.586,-5.71 -22.113,-3.61 -31.218,-1.94 -12.934,2.38 -13.965,15.1 -9.516,24.9 z m 0.492,49.61 c 9.231,8.78 21.188,4.75 32.305,3.21 2.152,-0.3 4.719,-1.81 6.176,-3.27 7.589,-7.67 8.187,-20.23 -0.262,-26.52 -9.75,-7.25 -21.926,-2.54 -33.645,-1.95 -3.164,0.13 -6.644,3.84 -7.367,6.23 -2.109,7.42 -3.387,16.49 2.793,22.3 z m 5.946,41.5 c 9.8,4.09 26.636,5.96 33.578,-5.03 4.261,-6.74 3.019,-19.22 -3.817,-21.04 -6.691,-1.72 -29.457,-5.51 -34.906,7.08 -2.699,6.19 -1.559,16.16 5.145,18.99 z m 30.164,35.25 c 2.836,-1.25 4.601,-3.53 5.273,-7 1.395,-7.56 -0.594,-15.76 -7.84,-17.09 -10.89,-1.98 -27.058,-2.6 -27,12.79 0.039,17.17 16.957,16.97 29.567,11.3 z m -21.918,31.92 c 5.793,2.22 15.332,1.72 20.531,-0.99 2.625,-1.36 6.152,-5.67 4.668,-10.22 -1.848,-5.93 -7.363,-8.06 -13.629,-8.14 -6.02,-0.06 -12.926,0.43 -15.356,5.34 -2.308,4.66 -1.328,12.04 3.786,14.01 z m 6.765,25.74 c 5.297,1.94 13.129,1.8 16.985,-2.38 5.3,-5.79 1.117,-15 -8.887,-14.54 -3.524,0.15 -7.695,1.36 -9.824,2.58 -5.172,2.92 -3.457,12.49 1.726,14.34 z m 23.813,16.59 c 0.679,2.24 4.16,4.85 5.98,5.49 3.973,1.42 8.629,1.71 12.43,0.19 7.601,-3.12 6.558,-12.53 -1.559,-15.82 -3.633,-1.48 -9.215,-2.43 -11.953,-1.48 -5.113,1.73 -6.531,6.17 -4.898,11.62 z m 23.683,-36.76 c -8.293,-2.42 -19.847,-2.89 -22.324,5.6 -4.203,14.43 14.004,16.59 23.445,13.56 6.516,-2.07 8.817,-16.31 -1.121,-19.16 z m 5.489,47.62 c 2.628,8.94 12.757,13.79 21.933,11.07 7.887,-2.32 9.707,-13.07 4.379,-18.29 -2.41,-2.35 -6.406,-4.74 -10.703,-5.69 -9.387,-2.09 -18.605,3.08 -15.609,12.91 z m 41.254,-32.78 c -1.485,-5.84 -5.766,-9.84 -12.618,-11.36 -6.804,-1.5 -16.215,-1.92 -19.984,2.29 -3.602,3.98 -5.254,9.58 -2.25,13.88 6.019,8.55 17.043,11.55 26.867,9.37 5.606,-1.31 9.727,-7.05 7.985,-14.18 z m -3.665,34.3 c 3.665,8.11 12.957,12.2 21.883,9.47 1.785,-0.56 5.469,-3.45 5.977,-6.29 1.058,-5.64 -0.899,-10.79 -5.606,-13.74 -6.035,-3.83 -11.019,-6 -17.949,-3.16 -5.207,2.18 -6.476,8.93 -4.305,13.72 z m 38.442,-22.77 c 4.074,-6.91 -2.129,-13.83 -5.281,-15.74 -6.989,-4.09 -16.84,-6.6 -21.047,0.33 -4.145,6.79 -0.715,14.86 6.508,17.85 6.894,2.86 14.031,7.19 19.82,-2.44 z m 11.586,-26.37 c 4.562,-3.77 8.566,-11.7 3.097,-17.97 -5.132,-5.91 -11.515,-7.68 -19.586,-8.98 -5.46,-0.92 -12.437,3.11 -13.324,7.93 -0.808,4.16 -1.57,11.73 2.547,15.21 8.024,6.84 18.777,10.79 27.266,3.81 z m 9.672,44.98 c 4.312,-1.27 7.066,-5.83 4.906,-10.23 -1.313,-2.7 -5.184,-5.64 -7.649,-7.15 -6.765,-4.16 -12.57,-2.46 -14.687,2.52 -3.898,9.14 9.207,17.28 17.43,14.86 z m 16.504,-22.79 c 4.753,-0.43 6.933,-3.73 7.863,-7.37 1.23,-4.86 -0.37,-9.37 -4.48,-12.14 -4.895,-3.25 -10.993,-5.16 -15.868,-5.24 -6.594,-0.12 -12.699,9.56 -9.129,15.85 3.785,6.74 13.309,9.62 21.614,8.9 z m 27.283,-34.9 c 2.8,-8.27 -3.27,-12.13 -9.66,-15.53 -6.51,-3.48 -15.23,-6.71 -19.745,-2.4 -5.765,5.44 -8.332,14.58 -1.902,20.6 8.917,8.37 25.407,14.65 31.307,-2.67 z m 11.77,-20.77 c 10.46,-1.33 12.54,-16.2 10.43,-21.58 -2.39,-4.62 -7.66,-8.23 -10.43,-9.65 -7.67,-3.96 -16.64,-5.46 -23.69,-1.81 -6.43,3.34 -9.21,13.09 -5.72,20.74 4.73,10.33 19.63,13.59 29.41,12.3 z m 21.52,-46.03 c 3.58,-5 2.8,-13.89 0.67,-16.66 -6.59,-9.02 -24.96,-14.16 -32.53,-10.47 -5.76,2.81 -11.44,15.49 -4.7,23.1 7.01,7.9 19.22,12.62 30.31,10.3 2.46,-0.54 4.09,-3.26 6.25,-6.27 z m 4.64,-28.37 c 5.04,-0.55 9.51,-6.09 11.94,-12.12 3.16,-7.79 -0.03,-16.89 -2.53,-18.59 -6.02,-4.09 -25.08,-15.56 -37.08,-8.69 -6.6,3.79 -8.42,12.44 -8.83,17.55 -1.33,16.51 23.72,23.27 36.5,21.85 z m -70.393,-118.1 c -2.567,6.55 -4.942,16.24 0.203,20.22 10.39,8.2 33.89,15.38 42.83,2.97 5.81,-8.05 4.11,-21.7 -6.07,-26.92 -10.5,-5.36 -31.037,-11.53 -36.963,3.73 z m -50.41,-0.72 c 10.429,5.3 25.457,11.7 36.687,4.47 5.137,-3.3 10.442,-16.96 6.817,-23.02 -7.7,-12.88 -27.961,-16.16 -40.844,-12.84 -10.969,2.84 -14.274,25.53 -2.66,31.39 z m -9.379,44.49 c 12.586,8.86 37.437,14.57 43.422,-4.76 1.554,-5.02 2.441,-10.57 -0.121,-14.62 -6.973,-11.22 -24.661,-14.17 -36.497,-12.49 -12.8,1.85 -18.847,23.42 -6.804,31.87 z m -10.594,45.08 c 12.09,6.86 37.856,15.96 43.926,-3.67 2.43,-8.03 2.183,-17.95 -4.695,-21.49 -9.848,-5.17 -25.457,-10.58 -36.809,-3.5 -9.481,5.99 -10.762,23.89 -2.422,28.66 z m 67.676,81.04 c -5.063,-4.54 -10.203,-5.5 -16.942,-7.8 -9.437,-3.19 -19.312,4.08 -20.402,13.11 -1.816,15.45 14.75,17.75 25.707,19.69 7.988,1.44 12.938,-5.74 14.41,-10.56 1.504,-4.64 1.309,-10.87 -2.773,-14.44 z m 20.31,-36.38 c -7.19,-10.71 -36.166,-17.45 -42.556,-6.44 -4.668,8.07 -7.574,19.4 1.203,24.81 9.215,5.66 20.137,9.04 30.863,7.11 10.08,-1.78 15.21,-18.36 10.49,-25.48 z m 15.44,-66.34 c 4.13,-6.55 7.01,-15.37 0.89,-23.52 -5.56,-7.45 -25.37,-10.93 -35.519,-8.47 -5.566,1.4 -8.199,8.16 -9.051,12.72 -1.176,6.17 -1.73,12.38 3.731,17.42 7.851,7.19 18.339,7.03 28.409,7.03 4.14,0 9.99,-2.68 11.54,-5.18 z m -5.75,22.27 c -6.18,-11.34 -27.09,-12.8 -36.492,-11.55 -6.625,0.88 -11.289,11.57 -11.094,20.5 0.066,4.6 1.5,7.65 4.641,9.33 10.445,5.6 21.132,9.35 32.375,7.54 10.96,-1.74 15.22,-17.23 10.57,-25.82 z m -110.078,24.42 c -7.106,21.88 20.226,28.78 36.176,25.4 11.105,-2.3 14.812,-23.64 4.48,-30.38 -12.785,-8.31 -35.477,-11 -40.656,4.98 z m -41.211,-53.73 c 8.187,8.45 22.972,8.97 34.511,7.42 7.086,-0.99 10.141,-8.15 11.126,-15.92 2.761,-21.37 -25.938,-24.97 -39.594,-19.97 -9,3.28 -13.684,20.58 -6.043,28.47 z m -5.778,41.42 c 8.563,10.07 22.879,12.46 34.735,9.2 7.238,-1.97 10.59,-10.43 10.426,-19.91 -0.137,-5.38 -3.829,-9.28 -7.141,-10.64 -8.43,-3.42 -18.168,-5.97 -27.367,-4.85 -11.344,1.4 -18.219,17.27 -10.653,26.2 z m 1.36,45.1 c 10.527,4.3 30.144,8.14 33.453,-6.89 4.457,-20.03 -19.172,-23.29 -31.797,-19.81 -9.668,2.66 -11.504,22.73 -1.656,26.7 z m 75.726,33.1 c 7.871,-4.47 9.524,-17.09 4.735,-24.4 -6.367,-9.66 -28.137,-15.27 -39.848,-6.81 -6.68,4.85 -10.277,24.72 3.41,29.5 10.934,3.82 21.414,7.53 31.703,1.71 z m -11.156,14.37 c -8.93,-5.52 -21.656,-7.71 -30.098,-3.02 -7.343,4.02 -7.058,14.75 -3.417,20.52 5.98,9.62 20.855,10.67 31.132,7.65 8.864,-2.57 12.184,-19.04 2.383,-25.15 z m -72.281,15.69 c 0.902,2.86 2.176,3.67 3.949,4.55 7.508,3.57 15.75,4.54 22.938,-0.08 5.179,-3.36 4.726,-11.09 0.886,-15.12 -5.621,-5.9 -17.047,-6.15 -24.359,-2.3 -4.727,2.46 -4.945,8.29 -3.414,12.95 z m 2.398,-31.35 c 3.321,9.48 15.149,8.95 24.106,7.79 11.019,-1.43 13.226,-15.56 9.312,-21.5 -5.41,-8.2 -17.758,-6.62 -27.582,-5.37 -7.996,1.01 -8.468,11.6 -5.836,19.08 z m 155.51,-285.2 c 2.71,-10.72 0,-20.89 -9.53,-24.31 -12.253,-4.32 -28.816,-10.65 -38.609,-4.05 -11.199,7.51 -16.589,28.81 -3.722,37.16 15.199,9.94 45.441,16.46 51.861,-8.8 z m -16.51,33.3 c -8.234,-9.35 -21.668,-9.05 -34.855,-12.91 -5.094,-1.48 -11.133,3.01 -13.781,7.67 -4.875,8.7 -9.758,20.36 -0.418,28.78 7.734,7.04 18.281,6.44 27.754,9.28 4.25,1.27 9.46,2.76 14.621,-0.73 10.679,-7.28 14.839,-22.91 6.679,-32.09 z m 87.3,140.14 c 2.33,-6.8 5.45,-11.8 2.8,-18.57 -3.14,-8.33 -11.21,-9.48 -18.79,-12.21 -7.07,-2.56 -18.86,-5.8 -24.78,0.39 -6.81,7.05 -9.55,21.4 -1.41,27.55 10.56,7.86 36.6,18.7 42.18,2.84 z m 143.3,61.19 c 6.23,25.39 13.96,51.14 15.89,77.96 2.85,40.08 -5.8,81.73 -31.5,112.08 2.53,-13.08 5.88,-24.14 7.64,-37.88 2.09,-16.59 -0.26,-35.07 -4.53,-51.77 -3.25,-12.63 -8.94,-24.93 -14.59,-36.67 -6.67,-13.91 -16.64,-29.03 -26.55,-41.44 -27.81,-34.58 -71.14,-102.08 -71.14,-102.08 0,0 -3.64,0.27 -5.79,0.27 -0.51,8.4 19.44,37.22 29.51,53.34 22.09,35.35 38.82,54.38 58.04,85.03 12.04,19.33 21.23,42.84 24.19,64.16 5.98,43.43 -17.43,95.48 -51.1,112.8 7.69,-32.45 6.89,-78.17 -10.38,-97.4 -32.69,-36.42 -52.13,-63.69 -75.46,-110.4 -0.66,-1.25 -6.12,6.3 -10.63,9.24 -5.07,3.35 -2.23,13.37 -4.05,20.11 -1.64,5.73 -4.34,10.14 -5.14,11.15 -6.9,8.46 -13.58,8.98 -15.03,11.52 -1.68,2.86 -0.87,10 -6.9,18.14 -3,4.09 -10.67,7.12 -13.79,10.96 -3.38,4.2 -4.91,17.05 -14.22,22.33 -4.417,2.48 -6.472,10.18 -10.714,13.96 -13.086,11.59 -26.149,9.36 -28.653,10.08 -3.367,0.91 -9.937,9.28 -21.636,11.29 -11.438,1.94 -17.731,-5.68 -23.668,-2.93 -14.891,6.9 -29.157,7.46 -44.981,-10.18 -4.75,-5.25 -12.965,-0.34 -23.211,-8.18 -9,-6.85 -9.168,-13.19 -13.75,-14.06 -8.609,-1.61 -15.031,-8.5 -18.351,-16.02 -1.723,-3.88 -3.016,-11.7 -4.024,-16.87 -1.41,-7.12 -5.011,-13.69 -5.082,-18.93 -0.082,-7.27 2.215,-11.21 1.575,-14.47 -1.063,-4.71 -4.879,-9.02 -5.344,-13.44 -0.348,-2.5 -0.559,-9.16 1.261,-12.91 2.29,-4.62 -1.609,-8.63 -3.632,-13.55 -1.938,-4.59 -3.973,-12.42 -3.352,-17.95 0.82,-7.6 5.164,-10.37 1.785,-16.36 -5.535,-9.72 -12.531,-24.87 -0.265,-44.25 2.254,-3.53 -5.137,-10.43 -5.551,-20.54 -0.473,-11 6.172,-19.13 7.984,-24 0.344,-1.75 -2.922,-1.65 -3.039,-3.52 -29.222,30.89 -55.062,59.39 -88.949,86.21 -20.703,16.36 -41.176,30.12 -64.113,42.41 -61.289,32.86 -132.492,54.85 -196.992,46.83 24.289,-19.57 54.941,-33.52 79.89,-55.73 23.641,-21.05 45.09,-39.04 66.621,-61.4 33.797,-35.11 61.258,-70.71 89.871,-112.01 8.496,-12.23 14.09,-20.42 22.012,-33.17 7.977,-12.76 16.84,-26.32 24.102,-38.96 36.617,-63.58 66.617,-122.45 96.98,-187.59 8.426,-18.02 15.504,-36.88 23.762,-54.79 2.211,-4.85 5.375,-1.25 7.609,0 10.981,6.36 22.649,11.66 34.051,17.04 9.098,4.18 17.379,7.06 25.508,10.19 20.543,7.82 40.035,12.08 61.551,16.54 35.915,7.52 100.435,5.98 100.435,5.98 l 122.34,0.04 c 0.79,0 1.62,0 3.34,0 -1.28,35.07 -9.61,69.15 -11.64,104.32 -1.54,28.49 -0.6,56.04 0.41,84.59 2.73,77.35 14.1,160.39 31.39,230.88" /><path
             id="path90"
             style="fill:#ffffff;fill-opacity:1;fill-rule:nonzero;stroke:none"
             d="m 395.141,2295.17 c -23.871,-23.81 -30.993,-32.57 -44.911,-58.89 -8.199,-15.47 -18.609,-35.33 -21.578,-60.93 49.051,18.69 89.075,56.79 125.235,98.88 26.754,31.19 47.504,72.6 73.886,103.42 -46.468,-15.59 -95.503,-45.52 -132.632,-82.48" /><path
             id="path92"
             style="fill:#ffffff;fill-opacity:1;fill-rule:nonzero;stroke:none"
             d="m 254.719,2228.25 c 18.488,31.24 44.976,65.02 72.437,88.06 -12.718,-28.56 -28.383,-56.88 -33.765,-90.67 -10.676,-67.27 -20.75,-114.39 -31.911,-175.78 30.508,21.75 62.684,55.94 95.036,79.81 24.992,18.37 50.046,30.63 75.754,48.3 15.281,10.55 25.234,24.08 37.945,36.77 -15.141,-63.85 -71.16,-128.28 -111.274,-158.31 -50.386,-37.79 -68.449,-43.81 -149.421,-126.14 -10.282,101.66 -8.45,207.32 45.199,297.96" /><path
             id="path94"
             style="fill:#ffffff;fill-opacity:1;fill-rule:nonzero;stroke:none"
             d="m 89.5273,1890.6 c 3.7696,52.79 10.1016,95.02 22.9297,146.52 8.984,35.97 28.34,89.5 56.242,111.47 -3.418,-13.05 -5.215,-32.6 -6.531,-45.8 -5.469,-54.39 4.945,-117.56 6.187,-171.9 0.622,-26.72 0.383,-47.32 -3.613,-72.42 -4.14,-26.32 -0.687,-58.62 -0.687,-58.62 0,0 14.422,16.48 27.3,37 28.149,44.7 37.161,57.97 59.836,82.19 28.133,30.04 59.598,57.87 95.125,82.51 -4.285,-16.69 -22.425,-49.16 -29.921,-62.2 -10.004,-17.46 -14.543,-33.32 -38.215,-72.85 -33.313,-55.55 -48.153,-63.05 -85.137,-122.46 -8.008,-12.92 -40.852,-62.06 -48.809,-77.08 -17.324,35.86 -23.863,67.19 -45.1168,125.57 -13.3555,36.67 -11.3594,73.36 -9.5899,98.07" /><path
             id="path96"
             style="fill:#ffffff;fill-opacity:1;fill-rule:nonzero;stroke:none"
             d="m 38.0938,1615.93 c -20.086,52.08 -29.28911,100.39 -36.09771,155.22 -4.16015,33.55 -2.226559,78.28 9.74611,110.52 3.1406,-7.87 9.5469,-27.86 10.414,-30.86 8.9102,-29.96 12.6329,-44.34 25.086,-73.24 9.5195,-22.17 21.164,-39.83 33.625,-61.74 11.332,-19.99 20.8908,-46.31 29.0898,-66.44 26.371,-64.57 28.32,-125.02 38.41,-131.63 7.258,15.54 9.531,30.42 10.344,37.76 7.844,71.44 17.25,136.39 107.227,220.59 8.257,-25.06 4.074,-71.27 -0.887,-96.02 -10.758,-54.12 -19.449,-80.12 -43.281,-132.57 -12.598,-27.62 -29.422,-68.26 -34.032,-81.73 -12.078,-35.06 -16.218,-53.45 -23.816,-74.19 -42.481,70.78 -94.7618,143.88 -125.8282,224.33" /><path
             id="path98"
             style="fill:#ffffff;fill-opacity:1;fill-rule:nonzero;stroke:none"
             d="m 108.125,1290.31 c -30.2422,42.1 -41.2656,63.26 -60.9492,108.07 -16.5274,37.6 -21.2813,51.53 -30.961,93.63 -5.289,22.95 -8.2773,43.77 -4.1679,57.35 23.6758,-42.87 39.8398,-90.85 70.8086,-126.42 24.5895,-28.2 48.2775,-52.23 67.8245,-76.03 29.988,-36.59 53.601,-71.22 82.382,-109.3 2.426,19.08 3.364,38.43 -0.921,69.71 -5.856,42.86 -2.246,77.99 5.238,119.49 9.484,52.65 16.445,78.72 34.711,131.98 22.348,-43.83 22.262,-94.53 27.871,-141.03 10.828,-90.19 -17.387,-197.76 -22.941,-242.59 -1.485,-11.82 0.562,-40.97 1.16,-52.33 -42.2,33.24 -79.742,66.79 -116.141,103.29 -16.586,16.55 -39.344,43.96 -53.914,64.18" /><path
             id="path100"
             style="fill:#ffffff;fill-opacity:1;fill-rule:nonzero;stroke:none"
             d="m 268.105,959.531 c -19.214,13.84 -70.843,53.299 -95.289,84.359 -35.597,45.2 -43.437,64.58 -66.921,116.59 -2.875,6.34 -16.1684,35.77 -17.2505,55.77 76.9415,-92.91 145.8285,-106.74 219.2265,-183.84 26.934,-28.24 54.516,-54.82 69.07,-68.148 11.172,-10.282 25.047,-13.403 25.047,-13.403 0,0 -1.445,19.813 -8.691,33.582 -48.965,93.599 -58.207,191.439 -50.781,296.459 22.351,-27.68 29.402,-46.15 43.589,-72.91 15.426,-29.15 23.293,-47.18 30.504,-65.12 41.903,-104.28 52.805,-224.741 78.696,-285.37 -79.914,26.93 -142.844,41.309 -227.2,102.031" /><path
             id="path102"
             style="fill:#ffffff;fill-opacity:1;fill-rule:nonzero;stroke:none"
             d="m 595.828,713.441 c -21.613,-1.461 -63.992,-1.332 -86.586,2.348 C 394.848,734.102 288.516,817 235.027,908.07 c 48.496,-29.59 83.563,-49.351 126.211,-64.109 37.985,-13.133 74.012,-17.02 137.418,-35.02 38.262,-10.812 76.145,-26.132 89.453,-31.113 42.418,-15.797 60.282,-11.906 60.282,-11.906 0,0 0,6.437 -15.848,23.726 -31.574,34.454 -43.141,42.704 -69.121,69.192 -8.527,8.75 -28.074,38.48 -37.996,58.238 -28.071,55.883 -31.192,100.682 -56.828,162.062 93.554,-54.94 139.129,-130.742 188.59,-226.32 15.21,-29.261 35.777,-63.07 54.57,-81.66 12.637,-12.469 30.445,-31.41 30.445,-31.41 0,0 -13.047,-3.078 -53.668,-9.07 -18.223,-2.668 -57.051,-14.758 -92.707,-17.239" /><path
             id="path104"
             style="fill:#ffffff;fill-opacity:1;fill-rule:nonzero;stroke:none"
             d="m 1049.31,706.18 c 49.39,-8.071 93.28,-20.078 138.19,-35.489 12.08,-4.152 30.44,-13.281 43.17,-19.722 31.83,-16.199 50.16,-26.719 77.52,-45.539 44.06,-30.34 91.4,-63.051 134.12,-112.668 0.91,-0.973 7.81,-8.352 3.21,-11.961 -8.37,-6.551 -28.99,-15.903 -35.85,-9.84 -39.08,34.75 -37.11,45.891 -84.47,88.777 -12.15,10.942 -30.49,26.293 -52.4,41.282 -21.38,14.628 -47.22,30.601 -71.22,42.449 -21.83,10.73 -55.42,13.941 -74.29,13.941 l 0.26,-0.129 c -8.57,0.328 -57.84,0.598 -69.24,-0.14 -96.81,-6.629 -92.072,-15.289 -147.888,-30.411 -45.91,-12.492 -95.164,-21.39 -144.055,-27.949 -50.09,-6.812 -94.906,-7.633 -141.859,-2.832 -63.649,6.551 -133.274,24.301 -185.238,57.781 47.511,-0.8 96.3,-9.929 143.566,-6.308 19.891,1.539 52.16,4.527 74.012,11.269 43.418,13.329 68.328,18.539 114.308,31.348 39.512,11 79.348,14.813 120.606,19.152 57.105,6.11 109.998,4.739 157.548,-3.011" /><path
             id="path106"
             style="fill:#ffffff;fill-opacity:1;fill-rule:nonzero;stroke:none"
             d="m 1934.52,2295.17 c 23.87,-23.81 31.02,-32.57 44.94,-58.89 8.2,-15.47 18.61,-35.33 21.58,-60.93 -49.09,18.69 -89.07,56.79 -125.26,98.88 -26.77,31.19 -47.49,72.6 -73.87,103.42 46.47,-15.59 95.5,-45.52 132.61,-82.48" /><path
             id="path108"
             style="fill:#ffffff;fill-opacity:1;fill-rule:nonzero;stroke:none"
             d="m 2074.98,2228.25 c -18.52,31.24 -44.99,65.02 -72.45,88.06 12.85,-30.75 31.57,-69.05 33.76,-90.67 6.83,-67.74 20.75,-114.39 31.92,-175.78 -30.5,21.75 -62.72,55.94 -95.06,79.81 -24.94,18.37 -50.02,30.63 -75.7,48.3 -15.32,10.55 -25.27,24.08 -37.98,36.77 15.14,-63.85 71.16,-128.28 111.28,-158.31 50.37,-37.79 68.43,-43.81 149.37,-126.14 10.28,101.66 8.46,207.32 -45.14,297.96" /><path
             id="path110"
             style="fill:#ffffff;fill-opacity:1;fill-rule:nonzero;stroke:none"
             d="m 2240.16,1890.6 c -3.81,52.79 -10.08,95.02 -22.93,146.52 -8.98,35.97 -28.34,89.5 -56.29,111.47 3.46,-13.05 5.23,-32.6 6.56,-45.8 5.52,-54.39 -4.88,-117.56 -6.17,-171.9 -0.61,-26.72 -0.39,-47.32 3.59,-72.42 4.15,-26.32 0.72,-58.62 0.72,-58.62 0,0 -14.42,16.48 -27.33,37 -28.09,44.7 -37.11,57.97 -59.85,82.19 -28.1,30.04 -59.6,57.87 -95.13,82.51 4.33,-16.69 22.46,-49.16 29.96,-62.2 10.04,-17.46 14.53,-33.32 38.22,-72.85 33.3,-55.55 48.14,-63.05 85.1,-122.46 8,-12.92 40.89,-62.06 48.84,-77.08 17.35,35.86 23.86,67.19 45.12,125.57 13.39,36.67 11.39,73.36 9.59,98.07" /><path
             id="path112"
             style="fill:#ffffff;fill-opacity:1;fill-rule:nonzero;stroke:none"
             d="m 2291.59,1615.93 c 20.08,52.08 29.26,100.39 36.11,155.22 4.16,33.55 2.2,78.28 -9.75,110.52 -3.14,-7.87 -9.53,-27.86 -10.42,-30.86 -8.93,-29.96 -12.63,-44.34 -25.05,-73.24 -9.54,-22.17 -21.24,-39.83 -33.67,-61.74 -11.32,-19.99 -20.88,-46.31 -29.12,-66.44 -26.34,-64.57 -28.29,-125.02 -38.38,-131.63 -7.28,15.54 -9.54,30.42 -10.33,37.76 -7.85,71.44 -17.26,136.39 -107.23,220.59 -8.28,-25.06 -4.08,-71.27 0.84,-96.02 10.81,-54.12 19.54,-80.12 43.33,-132.57 12.59,-27.62 29.42,-68.26 34.06,-81.73 12.01,-35.06 16.17,-53.45 23.83,-74.19 42.44,70.78 94.72,143.88 125.78,224.33" /><path
             id="path114"
             style="fill:#ffffff;fill-opacity:1;fill-rule:nonzero;stroke:none"
             d="m 2221.57,1290.31 c 30.27,42.1 41.26,63.26 60.93,108.07 16.53,37.6 21.26,51.53 30.98,93.63 5.29,22.95 8.26,43.77 4.14,57.35 -23.61,-42.87 -39.86,-90.85 -70.83,-126.42 -24.54,-28.2 -48.23,-52.23 -67.78,-76.03 -29.96,-36.59 -53.64,-71.22 -82.38,-109.3 -2.41,19.08 -3.38,38.43 0.87,69.71 5.9,42.86 2.29,77.99 -5.19,119.49 -9.49,52.65 -16.45,78.72 -34.71,131.98 -22.32,-43.83 -22.26,-94.53 -27.88,-141.03 -10.86,-90.19 17.43,-197.76 22.98,-242.59 1.45,-11.82 -0.6,-40.97 -1.19,-52.33 42.2,33.24 79.74,66.79 116.13,103.29 16.59,16.55 39.3,43.96 53.93,64.18" /><path
             id="path116"
             style="fill:#ffffff;fill-opacity:1;fill-rule:nonzero;stroke:none"
             d="m 2061.6,959.531 c 19.19,13.84 70.83,53.299 95.26,84.359 35.61,45.2 43.46,64.58 66.93,116.59 2.84,6.34 16.18,35.77 17.26,55.77 -76.94,-92.91 -145.84,-106.74 -219.24,-183.84 -26.92,-28.24 -54.48,-54.82 -69.05,-68.148 -11.17,-10.282 -25.04,-13.403 -25.04,-13.403 0,0 1.43,19.813 8.65,33.582 48.99,93.599 58.23,191.439 50.76,296.459 -22.27,-27.68 -29.37,-46.15 -43.54,-72.91 -15.4,-29.15 -23.29,-47.18 -30.48,-65.12 -41.93,-104.28 -52.88,-224.741 -78.76,-285.37 79.97,26.93 142.88,41.309 227.25,102.031" /><path
             id="path118"
             style="fill:#ffffff;fill-opacity:1;fill-rule:nonzero;stroke:none"
             d="m 1733.85,713.441 c 21.66,-1.461 64.01,-1.332 86.62,2.348 114.4,18.313 220.7,101.211 274.19,192.281 -48.54,-29.59 -83.6,-49.351 -126.22,-64.109 -38.01,-13.133 -74,-17.02 -137.38,-35.02 -38.3,-10.812 -76.17,-26.132 -89.49,-31.113 -42.41,-15.797 -60.28,-11.906 -60.28,-11.906 0,0 0,6.437 15.84,23.726 31.59,34.454 43.17,42.704 69.11,69.192 8.55,8.75 28.1,38.48 38.01,58.238 28.08,55.883 31.2,100.682 56.87,162.062 -93.56,-54.94 -139.22,-130.742 -188.65,-226.32 -15.18,-29.261 -35.75,-63.07 -54.52,-81.66 -12.61,-12.469 -30.46,-31.41 -30.46,-31.41 0,0 13.04,-3.078 53.7,-9.07 18.19,-2.668 57,-14.758 92.66,-17.239" /><path
             id="path120"
             style="fill:#ffffff;fill-opacity:1;fill-rule:nonzero;stroke:none"
             d="m 1280.38,706.18 c -49.39,-8.071 -93.24,-20.078 -138.19,-35.489 -12.12,-4.152 -30.45,-13.281 -43.17,-19.722 -31.84,-16.199 -50.12,-26.719 -77.51,-45.539 -44.108,-30.34 -91.377,-63.051 -134.127,-112.668 -0.922,-0.973 -7.856,-8.352 -3.223,-11.961 8.391,-6.551 29.024,-15.903 35.817,-9.84 39.101,34.75 37.113,45.891 84.523,88.777 12.09,10.942 30.43,26.293 52.39,41.282 21.42,14.628 47.18,30.601 71.22,42.449 21.78,10.73 55.45,13.941 74.28,13.941 l -0.28,-0.129 c 8.6,0.328 57.84,0.598 69.27,-0.14 96.83,-6.629 92.06,-15.289 147.85,-30.411 45.94,-12.492 95.19,-21.39 144.09,-27.949 50.05,-6.812 94.91,-7.633 141.85,-2.832 63.66,6.551 133.26,24.301 185.21,57.781 -47.48,-0.8 -96.24,-9.929 -143.56,-6.308 -19.9,1.539 -52.13,4.527 -73.98,11.269 -43.42,13.329 -68.35,18.539 -114.3,31.348 -39.52,11 -79.36,14.813 -120.6,19.152 -57.12,6.11 -110.01,4.739 -157.56,-3.011" /><path
             id="path122"
             style="fill:#ffffff;fill-opacity:1;fill-rule:nonzero;stroke:none"
             d="m 1103.65,2834.64 -86.96,-322.87 h -92.311 l -57.738,210.33 -56.453,-210.33 h -92.086 l -86.95,322.87 h 86.907 l 49.531,-222.26 59.582,222.26 h 83.055 l 56.527,-222.26 52.006,222.26 h 84.89" /><path
             id="path124"
             style="fill:#ffffff;fill-opacity:1;fill-rule:nonzero;stroke:none"
             d="m 1390.51,2772.2 h -148.53 v -60.08 h 137.69 v -62.44 h -137.69 v -137.91 h -82.82 v 322.87 h 231.35 v -62.44" /><path
             id="path126"
             style="fill:#ffffff;fill-opacity:1;fill-rule:nonzero;stroke:none"
             d="m 1628.38,2730.88 c 0,9.08 -2.46,16.91 -7.36,23.47 -4.92,6.56 -10.62,11.14 -17.13,13.74 -8.68,3.46 -17.13,5.37 -25.37,5.73 -8.24,0.35 -19.24,0.55 -32.97,0.55 h -14.3 v -96.51 h 23.84 c 14.17,0 25.84,0.87 35.03,2.6 9.18,1.74 16.88,5.2 23.09,10.39 5.35,4.61 9.22,10.14 11.6,16.55 2.38,6.42 3.57,14.24 3.57,23.48 z m 86.1,1.85 c 0,-14.46 -2.54,-28.59 -7.6,-42.39 -5.06,-13.8 -12.29,-25.41 -21.68,-34.8 -12.87,-12.74 -27.22,-22.34 -43.05,-28.85 -15.82,-6.5 -35.52,-9.74 -59.08,-9.74 h -51.82 v -105.18 h -83.28 v 322.87 h 137.05 c 20.53,0 37.84,-1.77 51.93,-5.31 14.09,-3.54 26.57,-8.85 37.41,-15.94 13.01,-8.53 22.95,-19.43 29.81,-32.73 6.87,-13.3 10.31,-29.28 10.31,-47.93" /><path
             id="path128"
             style="fill:#ffffff;fill-opacity:1;fill-rule:nonzero;stroke:none"
             d="M 499.316,257.871 441.27,70.5586 H 377.523 L 339.355,196.828 301.648,70.5586 H 237.27 L 179.727,257.871 h 62.988 l 32.152,-129.09 39.969,129.09 h 53.207 l 37.996,-129.09 31.633,129.09 h 61.644" /><path
             id="path130"
             style="fill:#ffffff;fill-opacity:1;fill-rule:nonzero;stroke:none"
             d="m 649.773,286.07 h -4.492 c -2.66,0.782 -6.121,1.668 -10.394,2.66 -4.266,1 -8.84,1.508 -13.727,1.508 -11.75,0 -19.707,-2.109 -23.863,-6.34 -4.156,-4.226 -6.235,-12.398 -6.235,-24.519 v -1.508 h 46.2 V 217.18 h -44.2 V 70.5586 H 532.844 V 217.18 h -25.688 v 40.691 h 25.688 v 5.18 c 0,22.898 6.094,40.078 18.269,51.539 12.18,11.461 30.606,17.18 55.293,17.18 8.899,0 16.957,-0.301 24.184,-0.918 7.226,-0.602 13.625,-1.422 19.183,-2.411 V 286.07" /><path
             id="path132"
             style="fill:#ffffff;fill-opacity:1;fill-rule:nonzero;stroke:none"
             d="m 789.148,165.551 c 0,18.199 -3.101,31.418 -9.312,39.64 -6.215,8.207 -16.035,12.321 -29.461,12.321 -5.656,0 -11.484,-0.871 -17.469,-2.59 -5.992,-1.711 -11.707,-4.184 -17.144,-7.402 v -94.09 c 3.988,-1.559 8.265,-2.559 12.816,-3.008 4.547,-0.442 9.039,-0.66 13.477,-0.66 15.867,0 27.687,4.636 35.449,13.898 7.766,9.27 11.644,23.238 11.644,41.891 z m 61.887,1.258 c 0,-15.457 -2.363,-29.52 -7.082,-42.207 -4.719,-12.672 -10.91,-23.122 -18.57,-31.352 -7.996,-8.6719 -17.055,-15.2383 -27.156,-19.6797 -10.106,-4.4609 -20.938,-6.6719 -32.489,-6.6719 -10.66,0 -19.718,1.1407 -27.152,3.4102 -7.441,2.2812 -15.051,5.4805 -22.824,9.582 V 1.83984 H 655.547 V 257.871 h 60.215 v -19.512 c 9.215,7.332 18.629,13.282 28.238,17.852 9.605,4.559 20.684,6.84 33.234,6.84 23.325,0 41.454,-8.571 54.391,-25.692 12.941,-17.121 19.41,-40.64 19.41,-70.55" /><path
             id="path134"
             style="fill:#ffffff;fill-opacity:1;fill-rule:nonzero;stroke:none"
             d="m 879.492,70.5586 h 62.3867 v 65.5508 H 879.492 Z" /><path
             id="path136"
             style="fill:#ffffff;fill-opacity:1;fill-rule:nonzero;stroke:none"
             d="m 1101.28,118.602 c 3.89,4.777 6.81,10.539 8.75,17.257 1.94,6.731 2.92,16.051 2.92,27.942 0,11.008 -1,20.23 -3,27.687 -2,7.453 -4.78,13.391 -8.34,17.852 -3.56,4.558 -7.84,7.781 -12.85,9.672 -5,1.886 -10.4,2.84 -16.18,2.84 -5.78,0 -10.92,-0.782 -15.43,-2.34 -4.5,-1.551 -8.81,-4.672 -12.92,-9.34 -3.67,-4.332 -6.59,-10.281 -8.76,-17.84 -2.17,-7.562 -3.25,-17.07 -3.25,-28.531 0,-10.231 0.94,-19.102 2.83,-26.602 1.89,-7.508 4.67,-13.539 8.34,-18.109 3.56,-4.32 7.82,-7.488 12.77,-9.5 4.94,-2 10.58,-3 16.93,-3 5.44,0 10.65,0.91 15.59,2.762 4.94,1.82 9.15,4.91 12.6,9.25 z m 73.88,45.539 c 0,-30.813 -8.98,-55.082 -26.93,-72.8129 -17.97,-17.7265 -43.17,-26.5976 -75.65,-26.5976 -32.47,0 -57.68,8.8711 -75.642,26.5976 C 978.98,109.059 970,133.328 970,164.141 c 0,31.019 9.031,55.371 27.109,73.05 18.071,17.68 43.221,26.528 75.471,26.528 32.7,0 57.96,-8.887 75.8,-26.699 17.86,-17.782 26.78,-42.079 26.78,-72.879" /><path
             id="path138"
             style="fill:#ffffff;fill-opacity:1;fill-rule:nonzero;stroke:none"
             d="m 1336.9,200.672 h -5.33 c -2.56,0.879 -6.66,1.558 -12.33,2 -5.65,0.437 -10.37,0.656 -14.14,0.656 -8.54,0 -16.08,-0.558 -22.63,-1.668 -6.55,-1.109 -13.6,-3 -21.14,-5.66 V 70.5586 h -60.21 V 257.871 h 60.21 v -27.519 c 13.21,11.347 24.69,18.878 34.45,22.609 9.76,3.719 18.76,5.59 26.96,5.59 2.11,0 4.49,-0.063 7.17,-0.172 2.65,-0.117 4.99,-0.277 6.99,-0.508 v -57.199" /><path
             id="path140"
             style="fill:#ffffff;fill-opacity:1;fill-rule:nonzero;stroke:none"
             d="m 1475.77,129.609 v 84.903 c -3.44,1.437 -7.66,2.578 -12.66,3.41 -4.99,0.84 -9.48,1.258 -13.48,1.258 -15.76,0 -27.57,-4.532 -35.45,-13.602 -7.87,-9.058 -11.81,-21.699 -11.81,-37.937 0,-18.012 3.36,-30.582 10.08,-37.7 6.7,-7.121 16.66,-10.679 29.86,-10.679 6,0 11.87,0.949 17.64,2.84 5.77,1.886 11.05,4.386 15.82,7.507 z m 60.21,-37.5387 c 0,-17.5586 -2.5,-32.3515 -7.51,-44.3515 -5.01,-12.0274 -12,-21.418 -21.02,-28.1993 -9.01,-6.8984 -19.87,-11.87106 -32.6,-14.92966 C 1462.11,1.53125 1447.74,0 1431.72,0 c -13,0 -25.82,0.78125 -38.43,2.35156 -12.63,1.54688 -23.56,3.4375 -32.79,5.66016 V 54.8789 h 7.34 c 7.32,-2.8906 16.26,-5.5195 26.81,-7.918 10.55,-2.3906 19.98,-3.5898 28.31,-3.5898 11.11,0 20.13,1.0391 27.07,3.0898 6.95,2.0586 12.24,4.9805 15.9,8.7579 3.45,3.5624 5.95,8.1093 7.49,13.6718 1.57,5.5586 2.35,12.2305 2.35,20.0196 v 3.5 c -7.23,-5.8985 -15.22,-10.5586 -24,-14 -8.77,-3.461 -18.54,-5.1797 -29.31,-5.1797 -26.22,0 -46.44,7.8906 -60.65,23.6992 -14.22,15.7813 -21.32,39.7893 -21.32,72.0503 0,15.45 2.17,28.79 6.5,40.032 4.32,11.226 10.44,21.008 18.32,29.347 7.33,7.782 16.36,13.852 27.07,18.172 10.71,4.348 21.69,6.52 32.91,6.52 10.11,0 19.29,-1.192 27.57,-3.59 8.27,-2.402 15.8,-5.691 22.57,-9.93 l 2.17,8.34 h 58.38 V 92.0703" /><path
             id="path142"
             style="fill:#ffffff;fill-opacity:1;fill-rule:nonzero;stroke:none"
             d="M 1751.25,330.109 1618.97,16.5117 h -51.19 l 131.74,313.5973 h 51.73" /><path
             id="path144"
             style="fill:#ffffff;fill-opacity:1;fill-rule:nonzero;stroke:none"
             d="m 1946.23,129.711 c 0,-19.281 -8.64,-34.8204 -25.92,-46.6094 -17.28,-11.793 -40.93,-17.6914 -70.94,-17.6914 -16.62,0 -31.68,1.5507 -45.2,4.6484 -13.51,3.1016 -24.36,6.5312 -32.55,10.3008 v 49.1796 h 5.47 c 3,-2.109 6.46,-4.398 10.39,-6.891 3.93,-2.5 9.5,-5.187 16.69,-8.07 6.22,-2.547 13.25,-4.726 21.11,-6.558 7.86,-1.829 16.28,-2.739 25.25,-2.739 11.74,0 20.44,1.297 26.09,3.899 5.64,2.609 8.47,6.461 8.47,11.55 0,4.54 -1.66,7.84 -4.99,9.891 -3.32,2.051 -9.64,4.008 -18.93,5.891 -4.44,1 -10.45,2.09 -18.03,3.25 -7.59,1.156 -14.49,2.578 -20.68,4.238 -16.96,4.418 -29.53,11.309 -37.72,20.68 -8.2,9.351 -12.29,21.011 -12.29,34.968 0,17.942 8.49,32.872 25.49,44.782 17.01,11.898 40.24,17.859 69.7,17.859 13.96,0 27.34,-1.418 40.13,-4.238 12.79,-2.821 22.78,-5.84 29.98,-9.051 v -47.191 h -5.15 c -8.85,6.089 -18.96,11.05 -30.32,14.871 -11.35,3.82 -22.84,5.73 -34.47,5.73 -9.63,0 -17.76,-1.32 -24.34,-3.992 -6.59,-2.656 -9.88,-6.418 -9.88,-11.289 0,-4.43 1.48,-7.809 4.48,-10.141 2.99,-2.32 10.02,-4.648 21.1,-6.976 6.09,-1.223 12.65,-2.403 19.69,-3.571 7.03,-1.171 14.08,-2.632 21.17,-4.402 15.74,-4.098 27.37,-10.551 34.91,-19.348 7.52,-8.812 11.29,-19.812 11.29,-32.98" /><path
             id="path146"
             style="fill:#ffffff;fill-opacity:1;fill-rule:nonzero;stroke:none"
             d="M 2150.02,257.129 2078.08,70.5586 h -67.78 l -71.44,186.5704 h 63.15 l 43.3,-128.418 42.75,128.418 h 61.96" /></g></g></g></g></svg>