<?xml version="1.0" encoding="UTF-8" standalone="no"?>
<svg
   xmlns:dc="http://purl.org/dc/elements/1.1/"
   xmlns:cc="http://creativecommons.org/ns#"
   xmlns:rdf="http://www.w3.org/1999/02/22-rdf-syntax-ns#"
   xmlns:svg="http://www.w3.org/2000/svg"
   xmlns="http://www.w3.org/2000/svg"
   viewBox="0 0 858.53333 377.94666"
   height="377.94666"
   width="858.53333"
   xml:space="preserve"
   id="svg2"
   version="1.1"><metadata
     id="metadata8"><rdf:RDF><cc:Work
         rdf:about=""><dc:format>image/svg+xml</dc:format><dc:type
           rdf:resource="http://purl.org/dc/dcmitype/StillImage" /></cc:Work></rdf:RDF></metadata><defs
     id="defs6"><clipPath
       id="clipPath20"
       clipPathUnits="userSpaceOnUse"><path
         id="path18"
         d="M 0,2834.64 V 0 h 6438.96 v 2834.64 z" /></clipPath></defs><g
     transform="matrix(1.3333333,0,0,-1.3333333,0,377.94667)"
     id="g10"><g
       transform="scale(0.1)"
       id="g12"><g
         id="g14"><g
           clip-path="url(#clipPath20)"
           id="g16"><path
             id="path22"
             style="fill:#ffffff;fill-opacity:1;fill-rule:nonzero;stroke:none"
             d="m 3197.35,1623.82 -120.4,-447.05 h -127.81 l -79.96,291.22 -78.16,-291.22 h -127.5 l -120.39,447.05 h 120.33 l 68.58,-307.74 82.5,307.74 h 114.99 l 78.27,-307.74 72.01,307.74 h 117.54" /><path
             id="path24"
             style="fill:#ffffff;fill-opacity:1;fill-rule:nonzero;stroke:none"
             d="m 3461.44,1263.24 c 7,8.6 12.25,18.96 15.75,31.08 3.5,12.11 5.25,28.86 5.25,50.28 0,19.82 -1.8,36.43 -5.41,49.84 -3.59,13.41 -8.59,24.12 -15.01,32.13 -6.39,8.19 -14.1,14 -23.12,17.42 -9,3.38 -18.71,5.09 -29.11,5.09 -10.41,0 -19.66,-1.4 -27.79,-4.2 -8.09,-2.8 -15.86,-8.41 -23.24,-16.82 -6.62,-7.8 -11.88,-18.52 -15.78,-32.12 -3.91,-13.61 -5.86,-30.72 -5.86,-51.34 0,-18.42 1.71,-34.37 5.12,-47.88 3.39,-13.52 8.39,-24.37 15.02,-32.58 6.39,-7.81 14.04,-13.51 22.95,-17.12 8.91,-3.59 19.08,-5.4 30.48,-5.4 9.81,0 19.16,1.64 28.08,4.95 8.89,3.3 16.44,8.86 22.67,16.67 z m 132.99,81.97 c 0,-55.45 -16.16,-99.13 -48.47,-131.06 -32.35,-31.93 -77.73,-47.89 -136.17,-47.89 -58.44,0 -103.84,15.96 -136.17,47.89 -32.31,31.93 -48.49,75.61 -48.49,131.06 0,55.85 16.27,99.67 48.79,131.49 32.54,31.83 77.81,47.74 135.87,47.74 58.85,0 104.34,-16.02 136.46,-48.04 32.11,-32.02 48.18,-75.74 48.18,-131.19" /><path
             id="path26"
             style="fill:#ffffff;fill-opacity:1;fill-rule:nonzero;stroke:none"
             d="m 3916.29,1410.95 h -9.58 c -4.6,1.59 -11.98,2.8 -22.17,3.6 -10.19,0.8 -18.68,1.2 -25.48,1.2 -15.37,0 -28.95,-1 -40.73,-3.01 -11.79,-2 -24.46,-5.39 -38.05,-10.2 v -225.77 h -108.4 v 337.17 h 108.4 v -49.55 c 23.77,20.42 44.45,33.98 62.01,40.68 17.58,6.71 33.76,10.06 48.53,10.06 3.79,0 8.11,-0.1 12.88,-0.3 4.81,-0.2 9.01,-0.5 12.59,-0.89 v -102.99" /><path
             id="path28"
             style="fill:#ffffff;fill-opacity:1;fill-rule:nonzero;stroke:none"
             d="m 3977.54,1176.77 h 108.383 v 467.172 H 3977.54 Z" /><path
             id="path30"
             style="fill:#ffffff;fill-opacity:1;fill-rule:nonzero;stroke:none"
             d="m 4407.2,1269.57 v 165.69 c -7.61,3.2 -15.58,5.51 -23.97,6.9 -8.4,1.42 -16.07,2.11 -23.07,2.11 -28.37,0 -49.62,-8.86 -63.81,-26.61 -14.18,-17.73 -21.27,-42.34 -21.27,-73.81 0,-33.09 5.69,-57.09 17.08,-72.02 11.38,-14.94 29.64,-22.4 54.82,-22.4 9.79,0 20.16,1.85 31.15,5.56 10.98,3.7 20.68,8.57 29.07,14.58 z m 108.38,-92.8 H 4407.2 v 35.13 c -18.61,-15.22 -36,-26.42 -52.18,-33.63 -16.21,-7.2 -34.9,-10.81 -56.08,-10.81 -40.99,0 -73.78,15.8 -98.35,47.44 -24.6,31.62 -36.9,74.25 -36.9,127.9 0,28.62 4.15,53.99 12.45,76.1 8.28,22.12 19.64,41.09 34.03,56.9 13.6,15.01 30.09,26.67 49.49,34.98 19.38,8.3 38.78,12.46 58.17,12.46 20.18,0 36.74,-2.15 49.62,-6.46 12.88,-4.3 26.14,-9.75 39.75,-16.36 v 143.52 h 108.38 v -467.17" /><path
             id="path32"
             style="fill:#ffffff;fill-opacity:1;fill-rule:nonzero;stroke:none"
             d="m 5169.55,1537.35 h -205.64 v -83.16 h 190.65 v -86.47 h -190.65 v -190.95 h -114.69 v 447.05 h 320.33 v -86.47" /><path
             id="path34"
             style="fill:#ffffff;fill-opacity:1;fill-rule:nonzero;stroke:none"
             d="m 5454.79,1263.24 c 7,8.6 12.25,18.96 15.78,31.08 3.47,12.11 5.25,28.86 5.25,50.28 0,19.82 -1.82,36.43 -5.41,49.84 -3.61,13.41 -8.62,24.12 -15.02,32.13 -6.42,8.19 -14.11,14 -23.11,17.42 -9,3.38 -18.72,5.09 -29.14,5.09 -10.41,0 -19.65,-1.4 -27.76,-4.2 -8.09,-2.8 -15.87,-8.41 -23.27,-16.82 -6.6,-7.8 -11.85,-18.52 -15.75,-32.12 -3.91,-13.61 -5.86,-30.72 -5.86,-51.34 0,-18.42 1.71,-34.37 5.1,-47.88 3.4,-13.52 8.4,-24.37 15.01,-32.58 6.39,-7.81 14.07,-13.51 22.98,-17.12 8.89,-3.59 19.06,-5.4 30.45,-5.4 9.81,0 19.17,1.64 28.08,4.95 8.92,3.3 16.47,8.86 22.67,16.67 z m 133.02,81.97 c 0,-55.45 -16.18,-99.13 -48.5,-131.06 -32.32,-31.93 -77.72,-47.89 -136.17,-47.89 -58.43,0 -103.81,15.96 -136.16,47.89 -32.31,31.93 -48.47,75.61 -48.47,131.06 0,55.85 16.25,99.67 48.78,131.49 32.52,31.83 77.82,47.74 135.85,47.74 58.85,0 104.34,-16.02 136.46,-48.04 32.14,-32.02 48.21,-75.74 48.21,-131.19" /><path
             id="path36"
             style="fill:#ffffff;fill-opacity:1;fill-rule:nonzero;stroke:none"
             d="m 5876.92,1263.24 c 7.01,8.6 12.26,18.96 15.79,31.08 3.47,12.11 5.25,28.86 5.25,50.28 0,19.82 -1.83,36.43 -5.41,49.84 -3.61,13.41 -8.62,24.12 -15.02,32.13 -6.42,8.19 -14.11,14 -23.12,17.42 -8.99,3.38 -18.71,5.09 -29.13,5.09 -10.41,0 -19.65,-1.4 -27.76,-4.2 -8.1,-2.8 -15.87,-8.41 -23.27,-16.82 -6.6,-7.8 -11.85,-18.52 -15.75,-32.12 -3.91,-13.61 -5.86,-30.72 -5.86,-51.34 0,-18.42 1.7,-34.37 5.09,-47.88 3.41,-13.52 8.41,-24.37 15.01,-32.58 6.4,-7.81 14.08,-13.51 22.98,-17.12 8.89,-3.59 19.07,-5.4 30.46,-5.4 9.81,0 19.17,1.64 28.08,4.95 8.9,3.3 16.47,8.86 22.66,16.67 z m 133.03,81.97 c 0,-55.45 -16.18,-99.13 -48.5,-131.06 -32.32,-31.93 -77.72,-47.89 -136.17,-47.89 -58.43,0 -103.82,15.96 -136.16,47.89 -32.32,31.93 -48.48,75.61 -48.48,131.06 0,55.85 16.25,99.67 48.79,131.49 32.52,31.83 77.82,47.74 135.85,47.74 58.85,0 104.35,-16.02 136.46,-48.04 32.14,-32.02 48.21,-75.74 48.21,-131.19" /><path
             id="path38"
             style="fill:#ffffff;fill-opacity:1;fill-rule:nonzero;stroke:none"
             d="m 6306.88,1269.57 v 165.69 c -7.59,3.2 -15.58,5.51 -23.97,6.9 -8.38,1.42 -16.07,2.11 -23.06,2.11 -28.37,0 -49.64,-8.86 -63.82,-26.61 -14.16,-17.73 -21.25,-42.34 -21.25,-73.81 0,-33.09 5.67,-57.09 17.08,-72.02 11.37,-14.94 29.64,-22.4 54.8,-22.4 9.79,0 20.18,1.85 31.15,5.56 11,3.7 20.67,8.57 29.07,14.58 z m 108.37,-92.8 h -108.37 v 35.13 c -18.61,-15.22 -35.98,-26.42 -52.18,-33.63 -16.21,-7.2 -34.89,-10.81 -56.07,-10.81 -41,0 -73.77,15.8 -98.37,47.44 -24.6,31.62 -36.87,74.25 -36.87,127.9 0,28.62 4.15,53.99 12.43,76.1 8.3,22.12 19.64,41.09 34.04,56.9 13.59,15.01 30.08,26.67 49.48,34.98 19.38,8.3 38.78,12.46 58.16,12.46 20.21,0 36.75,-2.15 49.65,-6.46 12.88,-4.3 26.12,-9.75 39.73,-16.36 v 143.52 h 108.37 v -467.17" /><path
             id="path40"
             style="fill:#ffffff;fill-opacity:1;fill-rule:nonzero;stroke:none"
             d="m 2830.15,899.422 c 0,12.566 -3.4,23.406 -10.2,32.488 -6.82,9.09 -14.72,15.43 -23.73,19.031 -12.01,4.789 -23.72,7.438 -35.13,7.938 -11.4,0.492 -26.61,0.75 -45.63,0.75 h -19.82 V 826.031 h 33.03 c 19.61,0 35.77,1.18 48.49,3.578 12.7,2.391 23.37,7.2 31.97,14.379 7.41,6.391 12.76,14.043 16.07,22.922 3.3,8.879 4.95,19.719 4.95,32.512 z m 119.2,2.558 c 0,-20.019 -3.51,-39.589 -10.51,-58.699 -7.01,-19.121 -17.02,-35.179 -30.03,-48.179 -17.81,-17.622 -37.68,-30.93 -59.59,-39.942 -21.92,-9.012 -49.2,-13.519 -81.82,-13.519 h -71.76 V 596.039 H 2580.35 V 1043.1 h 189.75 c 28.43,0 52.39,-2.46 71.91,-7.37 19.52,-4.9 36.78,-12.26 51.79,-22.06 18.02,-11.81 31.78,-26.92 41.29,-45.342 9.5,-18.418 14.26,-40.527 14.26,-66.348" /><path
             id="path42"
             style="fill:#ffffff;fill-opacity:1;fill-rule:nonzero;stroke:none"
             d="m 3257.71,830.219 h -9.58 c -4.58,1.609 -11.99,2.812 -22.17,3.601 -10.19,0.801 -18.67,1.2 -25.46,1.2 -15.37,0 -28.95,-1 -40.73,-3 -11.8,-2 -24.48,-5.411 -38.06,-10.2 V 596.039 h -108.38 v 337.16 h 108.38 V 883.66 c 23.77,20.418 44.44,33.981 62.02,40.692 17.57,6.699 33.75,10.058 48.54,10.058 3.78,0 8.07,-0.109 12.88,-0.301 4.78,-0.199 8.97,-0.507 12.56,-0.91 v -102.98" /><path
             id="path44"
             style="fill:#ffffff;fill-opacity:1;fill-rule:nonzero;stroke:none"
             d="m 3518.96,682.512 c 7,8.59 12.25,18.949 15.78,31.078 3.47,12.09 5.25,28.851 5.25,50.281 0,19.809 -1.83,36.418 -5.41,49.84 -3.61,13.398 -8.62,24.109 -15.02,32.117 -6.42,8.211 -14.11,14.024 -23.11,17.41 -9.01,3.403 -18.73,5.114 -29.14,5.114 -10.41,0 -19.65,-1.411 -27.76,-4.204 -8.1,-2.796 -15.87,-8.418 -23.27,-16.808 -6.6,-7.809 -11.86,-18.52 -15.75,-32.129 -3.91,-13.621 -5.86,-30.731 -5.86,-51.34 0,-18.422 1.7,-34.383 5.09,-47.891 3.41,-13.511 8.41,-24.371 15.02,-32.57 6.39,-7.808 14.07,-13.519 22.97,-17.121 8.89,-3.598 19.06,-5.41 30.46,-5.41 9.81,0 19.17,1.652 28.08,4.961 8.91,3.301 16.47,8.859 22.67,16.672 z m 133.02,81.957 c 0,-55.449 -16.18,-99.129 -48.5,-131.059 -32.32,-31.922 -77.73,-47.879 -136.17,-47.879 -58.44,0 -103.82,15.957 -136.16,47.879 -32.32,31.93 -48.47,75.61 -48.47,131.059 0,55.84 16.25,99.679 48.78,131.511 32.52,31.821 77.82,47.731 135.85,47.731 58.85,0 104.34,-16.02 136.46,-48.031 32.14,-32.039 48.21,-75.782 48.21,-131.211" /><path
             id="path46"
             style="fill:#ffffff;fill-opacity:1;fill-rule:nonzero;stroke:none"
             d="m 3937.24,702.32 v 152.821 c -6.2,2.597 -13.81,4.66 -22.79,6.148 -8.97,1.5 -17.08,2.262 -24.25,2.262 -28.37,0 -49.63,-8.16 -63.81,-24.481 -14.19,-16.308 -21.28,-39.07 -21.28,-68.289 0,-32.429 6.03,-55.062 18.13,-67.859 12.08,-12.813 30.01,-19.211 53.78,-19.211 10.77,0 21.37,1.687 31.73,5.09 10.39,3.398 19.89,7.91 28.49,13.519 z m 108.38,-67.558 c 0,-31.621 -4.52,-58.25 -13.52,-79.864 -8.99,-21.617 -21.61,-38.527 -37.84,-50.738 -16.2,-12.41 -35.77,-21.371 -58.68,-26.871 -22.92,-5.5 -48.8,-8.269 -77.62,-8.269 -23.43,0 -46.5,1.41 -69.21,4.21 -22.71,2.809 -42.37,6.211 -58.98,10.219 v 84.36 h 13.17 c 13.2,-5.207 29.29,-9.957 48.28,-14.258 18.99,-4.301 35.98,-6.461 50.97,-6.461 19.97,0 36.22,1.859 48.72,5.558 12.48,3.704 22.02,8.954 28.61,15.774 6.2,6.406 10.71,14.609 13.5,24.609 2.8,10.008 4.22,22.008 4.22,36.02 v 6.308 c -13,-10.609 -27.41,-19.007 -43.21,-25.211 -15.78,-6.207 -33.38,-9.308 -52.76,-9.308 -47.18,0 -83.56,14.199 -109.17,42.629 -25.59,28.429 -38.38,71.66 -38.38,129.711 0,27.82 3.91,51.832 11.7,72.058 7.8,20.203 18.78,37.821 32.99,52.84 13.19,14 29.44,24.922 48.72,32.723 19.31,7.801 39.03,11.711 59.23,11.711 18.2,0 34.74,-2.153 49.63,-6.461 14.9,-4.301 28.42,-10.262 40.64,-17.871 l 3.91,15.019 h 105.08 V 634.762" /><path
             id="path48"
             style="fill:#ffffff;fill-opacity:1;fill-rule:nonzero;stroke:none"
             d="m 4380.4,830.219 h -9.58 c -4.58,1.609 -11.99,2.812 -22.18,3.601 -10.18,0.801 -18.67,1.2 -25.45,1.2 -15.37,0 -28.95,-1 -40.73,-3 -11.81,-2 -24.49,-5.411 -38.07,-10.2 V 596.039 h -108.37 v 337.16 h 108.37 V 883.66 c 23.77,20.418 44.44,33.981 62.02,40.692 17.56,6.699 33.75,10.058 48.54,10.058 3.79,0 8.08,-0.109 12.88,-0.301 4.79,-0.199 8.98,-0.507 12.57,-0.91 v -102.98" /><path
             id="path50"
             style="fill:#ffffff;fill-opacity:1;fill-rule:nonzero;stroke:none"
             d="m 4634.12,684.219 v 70.043 c -14.61,-1.203 -30.41,-2.852 -47.42,-4.942 -17.03,-2.09 -29.94,-4.531 -38.74,-7.34 -10.81,-3.378 -19.07,-8.332 -24.78,-14.808 -5.7,-6.492 -8.54,-15.012 -8.54,-25.594 0,-6.976 0.6,-12.656 1.79,-17.047 1.22,-4.402 4.22,-8.59 9.02,-12.582 4.6,-3.988 10.11,-6.929 16.5,-8.82 6.42,-1.899 16.43,-2.848 30.03,-2.848 10.81,0 21.77,2.199 32.87,6.59 11.12,4.379 20.88,10.168 29.27,17.348 z m 0,-52.457 c -5.79,-4.41 -13.02,-9.711 -21.61,-15.91 -8.59,-6.204 -16.72,-11.114 -24.33,-14.711 -10.59,-4.801 -21.61,-8.371 -33.01,-10.661 -11.4,-2.3 -23.93,-3.46 -37.52,-3.46 -32.03,0 -58.85,9.91 -80.46,29.73 -21.64,19.809 -32.43,45.141 -32.43,75.961 0,24.617 5.49,44.738 16.51,60.348 11,15.601 26.62,27.921 46.82,36.929 20.02,9.012 44.84,15.403 74.47,19.211 29.62,3.813 60.34,6.61 92.17,8.41 v 1.813 c 0,18.609 -7.61,31.469 -22.83,38.566 -15.21,7.114 -37.61,10.66 -67.23,10.66 -17.82,0 -36.84,-3.148 -57.05,-9.457 -20.23,-6.312 -34.73,-11.152 -43.55,-14.562 h -9.89 V 926 c 11.4,3.012 29.96,6.551 55.67,10.66 25.73,4.09 51.52,6.141 77.33,6.141 61.44,0 105.84,-9.442 133.15,-28.371 27.32,-18.91 40.98,-48.578 40.98,-89.02 V 596.039 h -107.19 v 35.723" /><path
             id="path52"
             style="fill:#ffffff;fill-opacity:1;fill-rule:nonzero;stroke:none"
             d="M 5158.38,835.02 V 596.039 h -108.4 v 168.43 c 0,16.41 -0.41,30.371 -1.19,41.883 -0.81,11.507 -3.01,20.867 -6.6,28.078 -3.62,7.199 -9.06,12.461 -16.36,15.761 -7.31,3.309 -17.58,4.95 -30.79,4.95 -10.62,0 -20.92,-2.153 -30.93,-6.45 -10.01,-4.312 -19.01,-8.863 -27.02,-13.671 V 596.039 h -108.38 v 337.16 h 108.38 V 895.98 c 18.6,14.598 36.4,26.008 53.39,34.231 16.99,8.199 35.77,12.301 56.38,12.301 22.17,0 41.76,-4.961 58.76,-14.864 16.99,-9.91 30.3,-24.468 39.88,-43.687 21.59,18.211 42.57,32.539 62.95,42.937 20.4,10.411 40.38,15.614 59.97,15.614 36.38,0 64.01,-10.922 82.91,-32.731 18.87,-21.812 28.32,-53.25 28.32,-94.269 V 596.039 h -108.38 v 168.43 c 0,16.609 -0.36,30.633 -1.06,42.043 -0.69,11.398 -2.85,20.707 -6.46,27.918 -3.39,7.199 -8.8,12.461 -16.2,15.761 -7.41,3.309 -17.82,4.95 -31.22,4.95 -9.03,0 -17.82,-1.539 -26.44,-4.653 -8.6,-3.117 -19.1,-8.258 -31.51,-15.468" /><path
             id="path54"
             style="fill:#ffffff;fill-opacity:1;fill-rule:nonzero;stroke:none"
             d="M 5797.32,835.02 V 596.039 h -108.4 v 168.43 c 0,16.41 -0.4,30.371 -1.2,41.883 -0.8,11.507 -2.99,20.867 -6.59,28.078 -3.61,7.199 -9.07,12.461 -16.36,15.761 -7.32,3.309 -17.57,4.95 -30.8,4.95 -10.61,0 -20.91,-2.153 -30.92,-6.45 -10.01,-4.312 -19.01,-8.863 -27.02,-13.671 V 596.039 h -108.38 v 337.16 h 108.38 V 895.98 c 18.6,14.598 36.4,26.008 53.39,34.231 16.99,8.199 35.78,12.301 56.38,12.301 22.17,0 41.77,-4.961 58.75,-14.864 16.99,-9.91 30.3,-24.468 39.88,-43.687 21.6,18.211 42.58,32.539 62.96,42.937 20.4,10.411 40.37,15.614 59.97,15.614 36.38,0 64.01,-10.922 82.9,-32.731 18.88,-21.812 28.33,-53.25 28.33,-94.269 V 596.039 h -108.38 v 168.43 c 0,16.609 -0.36,30.633 -1.05,42.043 -0.7,11.398 -2.85,20.707 -6.46,27.918 -3.39,7.199 -8.8,12.461 -16.22,15.761 -7.4,3.309 -17.81,4.95 -31.21,4.95 -9.02,0 -17.82,-1.539 -26.44,-4.653 -8.6,-3.117 -19.1,-8.258 -31.51,-15.468" /><path
             id="path56"
             style="fill:#ffffff;fill-opacity:1;fill-rule:nonzero;stroke:none"
             d="m 6331.47,808 c -0.6,22.629 -6.22,39.641 -16.8,51.039 -10.63,11.41 -27.14,17.121 -49.56,17.121 -20.8,0 -37.93,-5.41 -51.33,-16.219 -13.42,-10.8 -20.92,-28.113 -22.51,-51.941 z m 107.49,-63.352 h -247.4 c 1.59,-26.429 11.65,-46.628 30.17,-60.648 18.51,-14.012 45.8,-21.02 81.82,-21.02 22.83,0 44.94,4.11 66.34,12.309 21.44,8.223 38.34,17.02 50.75,26.43 h 12.01 v -86.77 c -24.42,-9.808 -47.43,-16.918 -69.06,-21.32 -21.62,-4.399 -45.54,-6.609 -71.75,-6.609 -67.65,0 -119.5,15.218 -155.53,45.64 -36.03,30.43 -54.04,73.762 -54.04,130.012 0,55.637 17.07,99.719 51.19,132.25 34.13,32.519 80.92,48.789 140.36,48.789 54.85,0 96.07,-13.859 123.7,-41.582 27.64,-27.731 41.44,-67.598 41.44,-119.649 v -37.832" /><path
             id="path58"
             style="fill:#ffffff;fill-opacity:1;fill-rule:nonzero;stroke:none"
             d="m 1340.5,2131.15 c 12.51,27.07 24.09,48.63 40.79,74.31 7.37,11.32 15.69,19.22 23.11,30.66 -3.54,1.03 -8.73,-1.9 -10.96,-3.49 -7.42,-5.38 -10.77,-14.12 -16.71,-18.8 -14.03,-11.08 -13.64,-21.1 -21,-26.28 -6.57,-4.64 -8.45,-7.69 -13.05,-14.9 -3.08,-4.83 -5.35,-8.73 -8.6,-18.22 -1.15,-3.44 -3.45,-0.41 -8.92,-7.95 -7.19,-9.8 -10.41,-20.39 -13.39,-32.25 -0.96,-3.91 -7.59,-5.98 -11.86,-14.07 -5.71,-10.93 -9.43,-21.04 -11.9,-36.96 -0.62,-3.69 -6.86,-6.25 -11.16,-16.53 -3.05,-7.22 -5.24,-8.83 -7.9,-22.45 -1.65,-8.31 -5.43,-9.5 -9.7,-21.56 -3.3,-9.2 -3.43,-18.06 -4.58,-30.09 -0.27,-2.32 -4.2,-6.95 -7.83,-13.68 -6.1,-11.26 -5.9,-18.78 -8.32,-30.41 -0.93,-4.21 -5.65,-9.78 -10.18,-27.8 -3.98,-15.97 -0.33,-26.57 -1.68,-34.45 -3.53,-20.44 -7.03,-38.2 -5.14,-58.35 0.94,-9.84 2.44,-20.01 1.78,-29.47 -1.87,-29.71 -3.48,-54.17 -3.32,-87.83 0.11,-18.32 1.54,-43.41 4.32,-64.3 3.04,-23.06 7.44,-41.06 7.44,-41.06 h 75.14 c 0,0 -2.94,43.44 0.95,89.19 2.31,27.42 8.83,56.48 14.76,76.89 7.51,26.03 12.18,39.5 26.37,73.85 0.3,0.76 -0.1,3.97 -3.85,0.83 -7.84,-6.59 -14.39,-12.38 -20.58,-21.69 -9.45,-14.26 -15.21,-26 -22.87,-40.64 -8.95,-17.02 -13.89,-31.84 -23.11,-52.52 -0.54,14.93 1.88,29.13 4.91,42.88 3.1,14.04 5.56,25.15 9.98,37.25 7.83,21.35 15.43,39.16 27.99,59.03 7.27,11.48 16.57,21.77 26.01,30.33 11.29,10.31 21.73,19.39 33.55,29.49 -12.42,6.41 -28.96,-6.95 -32.27,-7.64 -17.47,-3.42 -24.58,-19.61 -29.93,-21.83 -7.65,-3.2 -12.07,-7.87 -17.38,-14.33 -4.09,-4.85 -5.32,-12.33 -9.59,-14.98 -7.13,-4.44 -12.37,-11.14 -17.27,-20.5 -2.01,-3.87 -7.5,-22.13 -13.59,-19.78 10.42,61.92 32.28,120 67.38,171.7 22.25,32.77 46.45,60.87 82.12,86.09 4.7,3.34 5.61,4.89 -0.95,4.67 -33.34,-4.06 -35.38,-19.28 -40.87,-20.72 -5.2,-1.34 -11.65,-7.52 -15.77,-11.53 -7.41,-7.32 -7.28,-13.49 -10.13,-15.43 -6.08,-4.24 -10.66,-8.65 -14.81,-16.01 -2.19,-3.85 -5.86,-12.31 -9.11,-14.24 -8.57,-4.96 -16.86,-12.19 -20.99,-19.99 -3.05,-5.71 -4.27,-11.89 -8.25,-17.49 -4.27,-6.03 -10.23,-10.53 -15.36,-14.89 3.9,26.47 16.37,57.82 24.95,84.87 11.53,36.13 25.54,68.95 41.33,103.07" /><path
             id="path60"
             style="fill:#ffffff;fill-opacity:1;fill-rule:nonzero;stroke:none"
             d="m 1417.21,1916.65 c 28.44,63.86 58.37,111.9 97.26,168.12 5.08,7.36 9.64,14.58 14.08,21.48 2,3.12 11.56,16.86 13.55,19.77 13.04,19.68 18.52,25.71 31.86,44.53 3.62,5.11 6.55,9.13 8.09,15.03 2.84,11.01 -6.61,18.4 -8.79,28.96 -2.2,10.79 -0.99,22.57 3.96,31.68 3.1,5.71 6.19,7.93 9.31,15.58 6.07,14.74 3.97,46.59 10.87,47.43 -1.75,-15.13 -2.15,-32.13 0.23,-46.63 2.76,-16.92 13.03,-27.19 17.27,-45.12 11.43,2.06 23.83,1.57 33.45,0.74 9.54,-0.81 21.61,1.83 31.4,5.19 13.26,4.53 24.27,12.77 37.79,15.98 -11.5,-11.06 -27.73,-15.2 -41.33,-23.6 -5,-3.13 -9.71,-7.28 -13.05,-12.45 -5.46,-8.5 -9.78,-16.64 -18.34,-20.37 -15.19,-6.63 -28.24,-3.49 -45.57,-6.71 -25.76,-26.54 -50.01,-62.63 -72.38,-100.58 -56.73,-95.97 -104.04,-195.37 -131.54,-297.29 9.51,17.73 18.6,34.88 28.9,51.76 11.38,18.74 24.18,37.09 38.13,55.47 32.66,43.04 64.97,80.63 101.18,120.18 29.21,31.97 61.24,58.76 96.95,81.18 47.19,29.57 105.41,50.29 156.56,39.6 5.82,-1.35 14.14,-2.91 17.77,-6.74 -64.11,8.98 -121.54,-13.41 -164.39,-47.74 -33.86,-27.07 -62.39,-54.56 -91.39,-90.27 -14.98,-17.21 -28.45,-36.12 -41.83,-54.45 -14.02,-19.26 -26.45,-39.55 -38.77,-59.83 -41.55,-68.6 -72.99,-141.25 -96.12,-216.5 -0.66,-2.39 -0.81,-4.79 -1.46,-7.16 1.09,1.69 2.71,3.52 3.81,5.24 31.12,50.61 68.55,99.46 115.96,132.23 4.14,2.81 8.45,8.25 9.57,12.53 5.12,20.09 -10.19,29.74 10.99,57.52 4.86,6.38 11.51,8.7 16.1,14.64 8.67,13.4 15.74,37.4 23,43.85 -3.65,-15.63 -12.61,-32.13 -14.53,-48.25 -2.03,-17.69 2.49,-32.15 3.28,-50.89 12.52,-1.71 22.21,-7 32.03,-10.04 15.28,-4.77 24.46,-3.55 39.57,-2.25 6.45,0.54 18.15,4.31 25.1,2.9 -14.61,-7.99 -34.33,-6.52 -49.28,-14.15 -10.46,-5.35 -13.49,-13.26 -27.92,-16.05 -12.84,-2.5 -23.64,-1.16 -31.98,3.13 -6.49,3.27 -11.56,4.64 -17.39,1.84 -15.56,-7.47 -26.18,-18.01 -38.7,-30.64 -29.08,-29.27 -52.81,-61.93 -74.96,-104.75 -5.86,-11.4 -11.13,-22.64 -16.13,-34.25 -2.47,-5.66 -8.6,-21.34 -8.6,-21.34 h -75.98 c 0,0 -0.19,21.9 0.52,29.91 1.46,15.94 3.63,27.75 6.72,43.93 4.41,23.27 8.72,44.37 14.76,66.95 5.88,21.95 12.21,42.56 19.74,63.64 15.71,43.97 32.41,86.07 50.67,127.06" /><path
             id="path62"
             style="fill:#ffffff;fill-opacity:1;fill-rule:nonzero;stroke:none"
             d="m 682.551,1324.81 c 27.73,22.67 48.261,35.82 75.957,52.32 11.25,6.73 28.262,14.34 41.336,20.26 47.976,21.68 111.465,37.67 171.269,38.77 1.082,0 1.016,-0.05 1.016,-0.05 h 445.901 c 0,0 -1.66,0.05 1.56,0.05 14.19,0 28.22,-4.94 36.91,-13.14 8.71,-8.26 12.87,-20.98 15.14,-33.62 1.92,-10.79 0.98,-20.37 -1.53,-31.9 -1.97,-9.1 -3.43,-14.54 -8.51,-22.27 -3.06,-4.71 -5.97,-7.94 -11.68,-12.48 -5.86,-4.68 -14.16,-6.31 -23.67,-6.4 -1,-0.05 -3.12,-0.11 -3.05,-0.08 0.1,0.08 -521.559,0.08 -521.559,0.08 0,0 -3.243,0.01 -4.871,0.01 -34.141,0.11 -70.098,-1.63 -103.832,-6.04 -25.848,-3.52 -51.747,-7.56 -76.727,-14.06 -31.504,-8.22 -61.836,-19.62 -92.117,-30.91 16.785,22.32 36.16,41.24 58.457,59.46" /><path
             id="path64"
             style="fill:#ffffff;fill-opacity:1;fill-rule:nonzero;stroke:none"
             d="m 837.383,1502.22 c 27.39,19.78 60.652,36.03 90.129,47.31 14.937,5.67 34.8,11.94 50.586,15.86 19.058,4.82 40.972,8.42 58.832,8.95 5.38,0.14 0.79,0.04 0.79,0.04 l 382.46,0.04 c 0,0 8.19,-0.44 11.03,-1 7.19,-1.55 12.99,-4.48 15.39,-6.02 5.94,-3.8 13.4,-11.8 17.3,-18.13 9.93,-16.36 11.68,-34.01 8.46,-52.37 -3.67,-20.97 -19.61,-44.87 -41.23,-45.45 -3.77,-0.1 -11.28,0 -11.28,0 h -414.23 c 0,0 -24.104,-0.47 -35.124,-0.87 -20.367,-0.8 -42.957,-3.13 -60.738,-5.74 -15.215,-2.19 -30.078,-5.07 -45.317,-9.16 -51.074,-13.79 -95.449,-39.69 -141.851,-59.84 31.25,54.64 73.531,96.49 114.793,126.38" /><path
             id="path66"
             style="fill:#ffffff;fill-opacity:1;fill-rule:nonzero;stroke:none"
             d="m 623.43,1242.29 c 66.492,39.27 146.582,54.76 219.89,57.22 1.746,0.08 5.227,0.2 5.227,0.2 l 571.723,-0.05 c 0,0 1.04,0 6.21,0.05 34.65,0.03 47.31,-34.36 47.15,-62.16 -0.07,-9.15 -1.62,-18.5 -4.16,-24.77 -3.29,-8.19 -6.93,-14.88 -12.89,-21.33 -2.13,-2.35 -9.78,-7.73 -13.17,-8.56 -7.92,-1.93 -17.67,-1.72 -17.61,-1.72 0.08,0 -425.26,-0.07 -425.26,0 0,0 -22.95,0.92 -38.868,2.45 -11.477,1.14 -20.18,2.34 -32.094,4.6 -29.297,5.82 -53.57,15.36 -78.926,23.18 -16.922,5.23 -34.722,9.13 -53.281,11.93 -34.141,5.23 -71.414,7.61 -105.887,4.99 -43.847,-3.25 -82.839,-11.84 -124.558,-25.08 7.058,11 36.375,27.12 56.504,39.05" /><path
             id="path68"
             style="fill:#ffffff;fill-opacity:1;fill-rule:nonzero;stroke:none"
             d="m 931.395,1063.01 c -19.547,6.88 -38.614,15.77 -55.719,27.07 -22.285,14.75 -33.215,26.47 -62.016,39.78 -24.644,11.39 -44.324,22.63 -78.687,35.08 -16.582,6.02 -43.442,14.28 -66.489,18.23 -32.898,5.58 -64.629,8.03 -64.629,8.03 0,0 6.719,4.19 10.774,5.43 33.586,10.23 63.254,15.22 97.742,17.77 30.234,2.26 58.027,-0.69 88.352,-5.42 12.441,-1.97 28.613,-5.8 42.668,-9.81 45.64,-12.99 97.515,-33.58 143.55,-33.66 2.563,0 2.27,0.04 2.27,0.04 h 425.019 c 0,0 -3.21,0 1.3,0 12.87,0.04 36.93,-4.13 46.6,-21.21 11.2,-19.68 14.68,-43.13 5.27,-66.6 -2.85,-7.06 -7.58,-17.16 -14.37,-23.29 -5.97,-5.4 -15.67,-8.86 -21.27,-8.86 -1.62,-0.08 -4.4,0 -4.4,0 h -371.69 c 0,0 1.41,0 -2.03,0 -38.01,0 -85.847,4.6 -122.245,17.42" /><path
             id="path70"
             style="fill:#ffffff;fill-opacity:1;fill-rule:nonzero;stroke:none"
             d="m 1100.71,931.16 c -10.51,10.789 -25.02,27.34 -38.15,43.039 -25.23,30.081 -36.52,57.171 -36.52,57.171 h 247.91 c 0,0 0.66,-28.61 -5.07,-61.722 -5.36,-30.75 -16.72,-63.168 -28.8,-86.66 -0.44,-24.078 9.72,-46.476 11.39,-70.258 -20.36,-12.5 -42.26,-24.878 -60.51,-42.429 -1.17,-1.071 -3.05,-1.071 -3.82,1.828 -9.77,36.66 -14.92,69.351 -22.95,105.601 -22.6,17.469 -43.79,33.032 -63.48,53.43" /><path
             id="path72"
             style="fill:#ffffff;fill-opacity:1;fill-rule:nonzero;stroke:none"
             d="m 1356.2,951.5 c -7.01,12.941 -12.24,30.039 -20.29,40.211 -1.73,-9.063 0.4,-14.652 -0.83,-23.332 -1.13,-7.27 -7.09,-4.25 -8.3,-0.828 -3.48,9.84 -7.17,21.988 -10.35,32.078 -5.29,16.811 -6.98,31.691 -6.98,31.691 l 41.24,0.05 c 0,0 1.59,-0.39 2.32,-4.41 1.97,-10.39 1.48,-20.53 4.33,-32.569 3.66,-15.512 8.37,-29.672 14.07,-44.129 4.96,-12.742 11.35,-25.571 16.55,-38.223 0.7,-1.66 1.04,-4.848 -0.21,-6.508 -1.53,-1.929 -4.16,-1.679 -5.67,0 -11.81,13.43 -16.57,28.629 -25.88,45.969" /><path
             id="path74"
             style="fill:#ffffff;fill-opacity:1;fill-rule:nonzero;stroke:none"
             d="m 1420.04,922.012 c -7.01,14.949 -16.88,31.758 -16.02,48.718 4.56,-5.98 6.44,-10.281 12.72,-13.621 2.87,-0.91 8.89,-0.058 7.38,4.961 -2.77,9.348 -7.08,17.258 -11.06,30.071 -5.92,18.959 -11.67,39.209 -11.67,39.209 l -42.1,0.02 c 0,0 2.33,-17.08 11.9,-43.292 8.41,-23.219 21.4,-49.777 35.62,-74.668 11.59,-20.488 22.11,-38.359 35.25,-53.308 4.5,-5.161 15.54,-0.641 10.76,6.058 -12.47,17.641 -24.11,37.168 -32.78,55.852" /><path
             id="path76"
             style="fill:#ffffff;fill-opacity:1;fill-rule:nonzero;stroke:none"
             d="m 1693.4,2344.89 c -9.14,-3.97 -17.21,-9.12 -21.77,-17.91 -3.32,-6.3 -5.56,-15.91 0.79,-21.32 11.12,-9.5 24.38,0.21 29.75,9.91 6.79,12.34 5.02,35.95 5.02,35.95 0,0 -7.89,-4.11 -13.79,-6.63" /><path
             id="path78"
             style="fill:#ffffff;fill-opacity:1;fill-rule:nonzero;stroke:none"
             d="m 1703.06,2285.96 c 3.99,7.54 12.74,15.67 22.33,21.51 10.84,6.62 22.07,13.06 29.88,17.72 7.81,4.69 9.3,7.99 9.3,7.99 0,0 -6.44,-2.22 -9.96,-4.3 -19.28,-11.49 -40.31,-24.55 -48.87,-28.32 -10.8,-4.72 -25.47,-5.63 -38.7,-7.31 -2.11,16.68 -6.44,23.62 -6.39,38.44 0.11,7.11 1.83,16.33 3.04,22.77 4.14,21.43 4.95,32.24 4.95,32.24 0,0 -3.27,-3.05 -4.46,-12.48 -1.35,-8.52 -2.3,-11.66 -4.26,-21.73 -2.22,-11.63 -4.55,-21.47 -11.5,-28.74 -10.02,-10.36 -19.3,-28.82 -11.56,-42.96 4.51,-8.26 12.04,-7.06 14.4,-9.18 2.35,-2.13 3.79,-7.2 10.92,-9.58 15.39,-5.14 32.83,8.67 40.88,23.93" /><path
             id="path80"
             style="fill:#ffffff;fill-opacity:1;fill-rule:nonzero;stroke:none"
             d="m 1683.11,2241.89 c 5.22,8.47 10.58,14.43 18.81,19.48 13.67,8.33 23.8,13.97 32.13,18.23 3.62,1.82 6.63,3.97 7.55,7.83 -3.73,-1.39 -17.83,-8.02 -31.83,-16.34 -10.03,-6 -27.27,-13.47 -38.85,-14.01 -4.59,-0.19 -7.99,0.94 -11.74,1.06 -7.77,0.31 -17.67,-1.57 -17.67,-1.57 0,0 -2.51,10.99 -5.83,18.9 -1.66,4.05 -4.35,8.21 -5.8,15.83 -0.97,5.08 -1.26,12.7 -0.86,17.25 1.14,13.73 4.84,27.07 4.2,40.96 -8.63,-17.92 -5.1,-40.01 -15.23,-53.87 -4.28,-5.84 -7.66,-10.43 -11.02,-17.78 -5.56,-12.07 -4.9,-24.56 2.62,-36.19 4.34,-6.62 13.91,-6.38 15.56,-7.65 2.51,-1.86 4.65,-8.79 14.01,-10.88 16.02,-3.6 34.9,3.82 43.95,18.75" /><path
             id="path82"
             style="fill:#ffffff;fill-opacity:1;fill-rule:nonzero;stroke:none"
             d="m 1687.58,1891.3 c 3.73,7.53 6.13,17.42 10.89,24.4 -10.76,-1.61 -12.49,-2.84 -28.04,-4.54 -3.39,-0.33 -10.4,-3.84 -12.72,-6.16 -6.15,-6.2 -11.52,-11.96 -9.13,-22.37 0.92,-4.06 4.5,-7.03 6.49,-7.66 12.93,-4.2 26.05,3.5 32.51,16.33" /><path
             id="path84"
             style="fill:#ffffff;fill-opacity:1;fill-rule:nonzero;stroke:none"
             d="m 1700.7,1870.77 c 14.69,3.44 31.66,10.65 38.48,8.37 -13.79,-7.33 -31.17,-9.99 -46.45,-14.34 -11.65,-3.36 -19.97,-12.16 -30.37,-20.16 -9.55,-7.26 -22.24,-10.21 -33.59,-4.87 -3.83,1.81 -7.54,7.98 -8.2,11.28 -0.6,2.63 -6.08,5.26 -8.89,7.57 -2.83,2.37 -4.2,8.26 -4.26,10.53 -0.49,20.33 14.98,28.55 29.89,40.49 11.23,8.99 25.81,47.17 34.7,55.08 -1.58,-12.31 -17.58,-35.52 -24.55,-53.58 -5.53,-14.39 -3.71,-25.89 -7.28,-41.05 10.66,-0.68 22.54,-2.91 33.28,-3.09 8.42,-0.11 18.59,1.72 27.24,3.77" /><path
             id="path86"
             style="fill:#ffffff;fill-opacity:1;fill-rule:nonzero;stroke:none"
             d="m 1685.22,1839.43 c -8.25,-1.54 -18.34,-4.14 -25.23,-5.59 -23.95,-5.08 -35.4,6.66 -54.52,6.43 1.68,21.91 -5.93,31.71 0.33,45.87 5.59,12.6 10.76,25.94 15.56,36.63 3.89,8.55 5.07,15.78 5.07,15.78 0,0 -5.8,-8.69 -22.32,-40.85 -5.74,-11.22 -16.02,-13.64 -25.15,-24.23 -10.51,-12.13 -16.54,-37.76 2.9,-48.52 3.86,-2.11 3.3,-8.78 6.11,-11.46 12.98,-12.21 39.19,-10.99 55.58,3.89 13.05,11.9 28.91,13.82 42.43,17.33 7.9,2.04 14.83,5.4 14.83,5.4 0,0 -3.75,1.52 -15.59,-0.68" /><path
             id="path88"
             style="fill:#ffffff;fill-opacity:1;fill-rule:nonzero;stroke:none"
             d="m 1205.22,1585.18 c -0.94,0 -1.96,0 0,0 z m -111.88,315.54 c -7.99,-10.55 -11.69,-22.7 -20.5,-31.92 -4.61,-4.82 -11.63,-2.57 -15.27,3 -4.04,6.28 -10.59,15.18 -5.72,21.4 8,10.25 24.74,16.8 39,14.96 0.84,-0.1 5.43,-3.5 2.49,-7.44 z m -38.35,-60.39 c -4.46,-11.96 -17.79,-13.25 -29.13,-15.61 -2.12,-0.47 -8.64,0 -11.57,2.87 -4.91,4.78 -9.14,11.34 -8.29,19.53 0.46,5.06 4.67,10.02 9.9,12.03 9.46,3.67 20.69,9.57 30.03,4.34 8.03,-4.49 12.23,-14.73 9.06,-23.16 z m -24.54,-63.21 c -3.27,-4.72 -11.65,10.94 -12.74,18.12 -3.13,20.77 15.07,26.06 30.25,25.42 0.47,-12.39 -9.14,-31.57 -17.51,-43.54 z m -16.39,-56.03 c -2.98,-8.36 -4.4,-16.04 -7.72,-23.7 -3.22,-7.4 -16.977,-10.04 -24.61,-7.66 -10.89,3.37 -20.238,27.82 -7.851,37.2 9.473,7.08 19.297,8.22 31.361,9.69 2.17,0.27 10.28,-0.22 10.59,-0.98 2.02,-5.08 0.74,-7.62 -1.77,-14.55 z m -18.33,-64.59 c -2.207,-6.42 -3.179,-13.03 -6.023,-19.2 -1.414,-3.13 -3.289,0.99 -3.359,1.19 -4.286,10.64 -6.985,19.66 -3.328,29.02 2.058,5.2 9.16,9.96 15.898,10.38 -0.41,-6.67 -0.891,-14.89 -3.188,-21.39 z M 974.07,1625 c -4.922,2.23 -4.84,8.56 -6.902,12.49 -1.941,3.84 -6.133,9.12 -4.402,14.16 9.492,-5.32 13.894,-14.82 11.304,-26.65 z m -16.382,39.32 c -11.333,9.31 -12.305,24.21 -19.868,35.61 8.34,5.33 22.395,4.26 26.723,-6.29 3.453,-8.47 5.953,-20.93 -2.641,-27.41 -0.933,-0.68 -3.14,-2.8 -4.214,-1.91 z m -42.25,76.84 c -1.7,2.43 -5.055,9.44 -2.5,10.33 20.292,6.98 35.507,7.2 39.843,-14.49 3.071,-15.49 -7.515,-28.78 -22.343,-23.36 -4.239,1.57 -8.458,18.06 -15,27.52 z m -29.493,49 c -1.425,1.78 -2.578,7.18 -0.8,8.56 10.546,8.48 26.027,9.12 38.007,7.95 15.825,-1.44 19.067,-16.13 16.426,-28.32 -3.473,-16.03 -27.801,-18.03 -34.683,-15.36 -6.782,2.6 -11.497,17.94 -18.95,27.17 z m 3.442,57.03 c 13.672,8.86 39.785,15.43 44.136,-8.57 1.332,-7.22 -0.476,-16.82 -10.242,-19.97 -10.027,-3.21 -21.843,-6.69 -31.008,-2.97 -11.277,4.62 -13.496,24.65 -2.886,31.51 z m -14.16,40.36 c 1.035,4.6 6.128,6.78 10.418,7.87 11.066,2.74 23.425,6.86 33.585,0.39 3.954,-2.51 4.254,-6.05 4.774,-11.02 0.898,-8.07 -0.242,-14.66 -5.559,-17.75 -10.777,-6.32 -21.734,-6.89 -34.257,-4.42 -10.157,2 -10.997,15.46 -8.961,24.93 z m -11.332,-62.21 c -9.469,7 -13.661,16.9 -20.641,26.71 -1.684,2.4 0,3.39 1.289,3.76 16.812,4.76 29.273,-3.63 26.656,-21.95 -0.469,-3.56 -2.769,-11.86 -7.304,-8.52 z m -46.383,56.61 c -6.313,5.44 -1.926,14.92 3.562,17.67 9.61,4.77 24.707,5.5 34.696,2.13 6.437,-2.17 9.691,-11.4 8.539,-21.46 -0.493,-4.14 -1.743,-8.68 -3.774,-10.02 -7.605,-5.2 -19.383,-5.39 -28.64,-3.47 -6.551,1.38 -8.887,10.34 -14.383,15.15 z m -7.27,57.24 c 6.098,13.26 28.305,13.37 40.41,7.46 9.844,-4.84 11.094,-23.18 0.332,-30.42 -8.589,-5.71 -22.117,-3.61 -31.226,-1.94 -12.934,2.38 -13.965,15.1 -9.516,24.9 z m 0.488,49.61 c 9.243,8.78 21.196,4.75 32.305,3.21 2.16,-0.3 4.731,-1.81 6.184,-3.27 7.59,-7.67 8.191,-20.23 -0.266,-26.52 -9.742,-7.25 -21.922,-2.54 -33.641,-1.95 -3.164,0.13 -6.652,3.84 -7.374,6.23 -2.11,7.42 -3.376,16.49 2.792,22.3 z m 5.958,41.5 c 9.796,4.09 26.632,5.96 33.578,-5.03 4.254,-6.74 3.015,-19.22 -3.821,-21.04 -6.687,-1.72 -29.465,-5.51 -34.914,7.08 -2.691,6.19 -1.551,16.16 5.157,18.99 z m 30.16,35.25 c 2.832,-1.25 4.605,-3.53 5.269,-7 1.399,-7.56 -0.586,-15.76 -7.832,-17.09 -10.894,-1.98 -27.066,-2.6 -27.012,12.79 0.039,17.17 16.965,16.97 29.575,11.3 z m -21.914,31.92 c 5.789,2.22 15.332,1.72 20.527,-0.99 2.625,-1.36 6.148,-5.67 4.668,-10.22 -1.848,-5.93 -7.363,-8.06 -13.637,-8.14 -6.012,-0.06 -12.918,0.43 -15.347,5.34 -2.305,4.66 -1.333,12.04 3.789,14.01 z m 6.754,25.74 c 5.304,1.94 13.136,1.8 16.996,-2.38 5.293,-5.79 1.113,-15 -8.887,-14.54 -3.527,0.15 -7.695,1.36 -9.824,2.58 -5.176,2.92 -3.457,12.49 1.715,14.34 z m 23.82,16.59 c 0.676,2.24 4.16,4.85 5.984,5.49 3.969,1.42 8.625,1.71 12.426,0.19 7.598,-3.12 6.562,-12.53 -1.563,-15.82 -3.632,-1.48 -9.21,-2.43 -11.957,-1.48 -5.105,1.73 -6.519,6.17 -4.89,11.62 z m 23.68,-36.76 c -8.29,-2.42 -19.84,-2.89 -22.325,5.6 -4.195,14.43 14.004,16.59 23.449,13.56 6.512,-2.07 8.821,-16.31 -1.124,-19.16 z m 5.492,47.62 c 2.632,8.94 12.754,13.79 21.929,11.07 7.895,-2.32 9.707,-13.07 4.375,-18.29 -2.398,-2.35 -6.406,-4.74 -10.703,-5.69 -9.375,-2.09 -18.593,3.08 -15.601,12.91 z m 41.25,-32.78 c -1.489,-5.84 -5.762,-9.84 -12.618,-11.36 -6.796,-1.5 -16.21,-1.92 -19.984,2.29 -3.594,3.98 -5.254,9.58 -2.242,13.88 6.016,8.55 17.039,11.55 26.863,9.37 5.606,-1.31 9.727,-7.05 7.981,-14.18 z m -3.657,34.3 c 3.657,8.11 12.954,12.2 21.875,9.47 1.79,-0.56 5.469,-3.45 5.981,-6.29 1.055,-5.64 -0.899,-10.79 -5.609,-13.74 -6.036,-3.83 -11.012,-6 -17.95,-3.16 -5.203,2.18 -6.472,8.93 -4.297,13.72 z m 38.442,-22.77 c 4.07,-6.91 -2.129,-13.83 -5.285,-15.74 -6.985,-4.09 -16.844,-6.6 -21.043,0.33 -4.145,6.79 -0.727,14.86 6.504,17.85 6.89,2.86 14.031,7.19 19.824,-2.44 z m 11.582,-26.37 c 4.566,-3.77 8.57,-11.7 3.101,-17.97 -5.132,-5.91 -11.519,-7.68 -19.586,-8.98 -5.468,-0.92 -12.445,3.11 -13.324,7.93 -0.816,4.16 -1.582,11.73 2.539,15.21 8.032,6.84 18.782,10.79 27.27,3.81 z m 9.668,44.98 c 4.312,-1.27 7.066,-5.83 4.91,-10.23 -1.316,-2.7 -5.187,-5.64 -7.645,-7.15 -6.769,-4.16 -12.582,-2.46 -14.687,2.52 -3.906,9.14 9.195,17.28 17.422,14.86 z m 16.504,-22.79 c 4.751,-0.43 6.931,-3.73 7.871,-7.37 1.23,-4.86 -0.37,-9.37 -4.49,-12.14 -4.885,-3.25 -10.983,-5.16 -15.866,-5.24 -6.589,-0.12 -12.691,9.56 -9.121,15.85 3.782,6.74 13.305,9.62 21.606,8.9 z m 27.281,-34.9 c 2.81,-8.27 -3.26,-12.13 -9.66,-15.53 -6.5,-3.48 -15.22,-6.71 -19.735,-2.4 -5.769,5.44 -8.335,14.58 -1.914,20.6 8.929,8.37 25.409,14.65 31.309,-2.67 z m 11.78,-20.77 c 10.46,-1.33 12.54,-16.2 10.43,-21.58 -2.4,-4.62 -7.67,-8.23 -10.43,-9.65 -7.68,-3.96 -16.64,-5.46 -23.69,-1.81 -6.43,3.34 -9.22,13.09 -5.72,20.74 4.72,10.33 19.62,13.59 29.41,12.3 z m 21.52,-46.03 c 3.58,-5 2.8,-13.89 0.67,-16.66 -6.6,-9.02 -24.96,-14.16 -32.54,-10.47 -5.75,2.81 -11.43,15.49 -4.69,23.1 7,7.9 19.22,12.62 30.3,10.3 2.47,-0.54 4.09,-3.26 6.26,-6.27 z m 4.63,-28.37 c 5.04,-0.55 9.51,-6.09 11.95,-12.12 3.16,-7.79 -0.03,-16.89 -2.53,-18.59 -6.02,-4.09 -25.08,-15.56 -37.09,-8.69 -6.6,3.79 -8.42,12.44 -8.83,17.55 -1.32,16.51 23.73,23.27 36.5,21.85 z m -70.387,-118.1 c -2.563,6.55 -4.941,16.24 0.203,20.22 10.394,8.2 33.894,15.38 42.834,2.97 5.81,-8.05 4.11,-21.7 -6.07,-26.92 -10.5,-5.36 -31.041,-11.53 -36.967,3.73 z m -50.41,-0.72 c 10.429,5.3 25.457,11.7 36.687,4.47 5.137,-3.3 10.442,-16.96 6.817,-23.02 -7.703,-12.88 -27.957,-16.16 -40.852,-12.84 -10.957,2.84 -14.265,25.53 -2.652,31.39 z m -9.375,44.49 c 12.578,8.86 37.437,14.57 43.418,-4.76 1.558,-5.02 2.437,-10.57 -0.117,-14.62 -6.973,-11.22 -24.668,-14.17 -36.504,-12.49 -12.793,1.85 -18.852,23.42 -6.797,31.87 z m -10.598,45.08 c 12.09,6.86 37.86,15.96 43.926,-3.67 2.434,-8.03 2.18,-17.95 -4.695,-21.49 -9.844,-5.17 -25.453,-10.58 -36.809,-3.5 -9.48,5.99 -10.762,23.89 -2.422,28.66 z m 67.676,81.04 c -5.066,-4.54 -10.203,-5.5 -16.941,-7.8 -9.434,-3.19 -19.321,4.08 -20.403,13.11 -1.816,15.45 14.754,17.75 25.711,19.69 7.988,1.44 12.934,-5.74 14.406,-10.56 1.504,-4.64 1.309,-10.87 -2.773,-14.44 z m 20.304,-36.38 c -7.19,-10.71 -36.156,-17.45 -42.55,-6.44 -4.668,8.07 -7.57,19.4 1.203,24.81 9.219,5.66 20.137,9.04 30.857,7.11 10.08,-1.78 15.22,-18.36 10.49,-25.48 z m 15.45,-66.34 c 4.12,-6.55 7.01,-15.37 0.88,-23.52 -5.55,-7.45 -25.37,-10.93 -35.509,-8.47 -5.566,1.4 -8.203,8.16 -9.055,12.72 -1.179,6.17 -1.726,12.38 3.731,17.42 7.851,7.19 18.333,7.03 28.403,7.03 4.15,0 10,-2.68 11.55,-5.18 z m -5.76,22.27 c -6.18,-11.34 -27.084,-12.8 -36.486,-11.55 -6.621,0.88 -11.289,11.57 -11.098,20.5 0.07,4.6 1.508,7.65 4.649,9.33 10.441,5.6 21.132,9.35 32.365,7.54 10.96,-1.74 15.22,-17.23 10.57,-25.82 z m -110.072,24.42 c -7.102,21.88 20.222,28.78 36.18,25.4 11.093,-2.3 14.804,-23.64 4.472,-30.38 -12.781,-8.31 -35.469,-11 -40.652,4.98 z m -41.211,-53.73 c 8.191,8.45 22.976,8.97 34.512,7.42 7.082,-0.99 10.144,-8.15 11.125,-15.92 2.761,-21.37 -25.942,-24.97 -39.59,-19.97 -9.004,3.28 -13.696,20.58 -6.047,28.47 z m -5.774,41.42 c 8.555,10.07 22.872,12.46 34.731,9.2 7.242,-1.97 10.586,-10.43 10.43,-19.91 -0.137,-5.38 -3.829,-9.28 -7.153,-10.64 -8.418,-3.42 -18.164,-5.97 -27.359,-4.85 -11.352,1.4 -18.227,17.27 -10.649,26.2 z m 1.348,45.1 c 10.527,4.3 30.156,8.14 33.457,-6.89 4.453,-20.03 -19.168,-23.29 -31.797,-19.81 -9.668,2.66 -11.504,22.73 -1.66,26.7 z m 75.734,33.1 c 7.872,-4.47 9.524,-17.09 4.739,-24.4 -6.367,-9.66 -28.149,-15.27 -39.848,-6.81 -6.68,4.85 -10.281,24.72 3.399,29.5 10.941,3.82 21.425,7.53 31.71,1.71 z m -11.164,14.37 c -8.921,-5.52 -21.648,-7.71 -30.093,-3.02 -7.344,4.02 -7.051,14.75 -3.418,20.52 5.984,9.62 20.855,10.67 31.132,7.65 8.868,-2.57 12.184,-19.04 2.379,-25.15 z m -72.273,15.69 c 0.906,2.86 2.18,3.67 3.953,4.55 7.5,3.57 15.742,4.54 22.934,-0.08 5.175,-3.36 4.722,-11.09 0.886,-15.12 -5.617,-5.9 -17.043,-6.15 -24.367,-2.3 -4.722,2.46 -4.937,8.29 -3.406,12.95 z m 2.394,-31.35 c 3.321,9.48 15.157,8.95 24.11,7.79 11.023,-1.43 13.23,-15.56 9.308,-21.5 -5.414,-8.2 -17.753,-6.62 -27.582,-5.37 -7.988,1.01 -8.464,11.6 -5.836,19.08 z m 155.508,-285.2 c 2.71,-10.72 0,-20.89 -9.53,-24.31 -12.247,-4.32 -28.81,-10.65 -38.599,-4.05 -11.211,7.51 -16.597,28.81 -3.726,37.16 15.191,9.94 45.445,16.46 51.855,-8.8 z m -16.508,33.3 c -8.23,-9.35 -21.66,-9.05 -34.851,-12.91 -5.09,-1.48 -11.133,3.01 -13.777,7.67 -4.883,8.7 -9.766,20.36 -0.422,28.78 7.734,7.04 18.281,6.44 27.754,9.28 4.25,1.27 9.464,2.76 14.621,-0.73 10.683,-7.28 14.843,-22.91 6.675,-32.09 z m 87.308,140.14 c 2.32,-6.8 5.45,-11.8 2.79,-18.57 -3.14,-8.33 -11.21,-9.48 -18.79,-12.21 -7.07,-2.56 -18.86,-5.8 -24.78,0.39 -6.8,7.05 -9.55,21.4 -1.41,27.55 10.57,7.86 36.6,18.7 42.19,2.84 z m 143.29,61.19 c 6.23,25.39 13.97,51.14 15.9,77.96 2.84,40.08 -5.8,81.73 -31.51,112.08 2.53,-13.08 5.88,-24.14 7.64,-37.88 2.09,-16.59 -0.25,-35.07 -4.53,-51.77 -3.24,-12.63 -8.94,-24.93 -14.59,-36.67 -6.67,-13.91 -16.63,-29.03 -26.55,-41.44 -27.81,-34.58 -71.14,-102.08 -71.14,-102.08 0,0 -3.63,0.27 -5.78,0.27 -0.51,8.4 19.44,37.22 29.5,53.34 22.1,35.35 38.82,54.38 58.04,85.03 12.04,19.33 21.23,42.84 24.19,64.16 5.99,43.43 -17.43,95.48 -51.1,112.8 7.69,-32.45 6.89,-78.17 -10.37,-97.4 -32.7,-36.42 -52.13,-63.69 -75.46,-110.4 -0.67,-1.25 -6.12,6.3 -10.64,9.24 -5.06,3.35 -2.22,13.37 -4.04,20.11 -1.64,5.73 -4.34,10.14 -5.14,11.15 -6.91,8.46 -13.59,8.98 -15.04,11.52 -1.67,2.86 -0.87,10 -6.89,18.14 -3.01,4.09 -10.68,7.12 -13.8,10.96 -3.37,4.2 -4.9,17.05 -14.21,22.33 -4.421,2.48 -6.484,10.18 -10.718,13.96 -13.086,11.59 -26.152,9.36 -28.652,10.08 -3.364,0.91 -9.946,9.28 -21.641,11.29 -11.43,1.94 -17.727,-5.68 -23.664,-2.93 -14.895,6.9 -29.153,7.46 -44.981,-10.18 -4.754,-5.25 -12.961,-0.34 -23.214,-8.18 -9,-6.85 -9.161,-13.19 -13.75,-14.06 -8.614,-1.61 -15.028,-8.5 -18.348,-16.02 -1.731,-3.88 -3.02,-11.7 -4.024,-16.87 -1.418,-7.12 -5.007,-13.69 -5.086,-18.93 -0.082,-7.27 2.223,-11.21 1.583,-14.47 -1.067,-4.71 -4.883,-9.02 -5.352,-13.44 -0.344,-2.5 -0.551,-9.16 1.269,-12.91 2.286,-4.62 -1.613,-8.63 -3.632,-13.55 -1.938,-4.59 -3.977,-12.42 -3.364,-17.95 0.825,-7.6 5.176,-10.37 1.797,-16.36 -5.547,-9.72 -12.539,-24.87 -0.269,-44.25 2.254,-3.53 -5.141,-10.43 -5.547,-20.54 -0.473,-11 6.172,-19.13 7.984,-24 0.332,-1.75 -2.926,-1.65 -3.047,-3.52 -29.214,30.89 -55.054,59.39 -88.941,86.21 -20.703,16.36 -41.176,30.12 -64.121,42.41 -61.289,32.86 -132.484,54.85 -196.992,46.83 24.297,-19.57 54.937,-33.52 79.898,-55.73 23.637,-21.05 45.078,-39.04 66.621,-61.4 33.789,-35.11 61.25,-70.71 89.863,-112.01 8.5,-12.23 14.094,-20.42 22.012,-33.17 7.981,-12.76 16.836,-26.32 24.106,-38.96 36.621,-63.58 66.621,-122.45 96.98,-187.59 8.43,-18.02 15.496,-36.88 23.762,-54.79 2.207,-4.85 5.371,-1.25 7.613,0 10.981,6.36 22.641,11.66 34.043,17.04 9.106,4.18 17.387,7.06 25.512,10.19 20.547,7.82 40.039,12.08 61.551,16.54 35.909,7.52 100.439,5.98 100.439,5.98 l 122.33,0.04 c 0.8,0 1.63,0 3.34,0 -1.28,35.07 -9.61,69.15 -11.64,104.32 -1.54,28.49 -0.59,56.04 0.41,84.59 2.74,77.35 14.11,160.39 31.39,230.88" /><path
             id="path90"
             style="fill:#ffffff;fill-opacity:1;fill-rule:nonzero;stroke:none"
             d="m 395.137,2295.17 c -23.875,-23.81 -30.989,-32.57 -44.91,-58.89 -8.207,-15.47 -18.618,-35.33 -21.582,-60.93 49.058,18.69 89.082,56.79 125.234,98.88 26.758,31.19 47.508,72.6 73.887,103.42 -46.465,-15.59 -95.5,-45.52 -132.629,-82.48" /><path
             id="path92"
             style="fill:#ffffff;fill-opacity:1;fill-rule:nonzero;stroke:none"
             d="m 254.719,2228.25 c 18.484,31.24 44.976,65.02 72.437,88.06 -12.722,-28.56 -28.386,-56.88 -33.765,-90.67 -10.688,-67.27 -20.754,-114.39 -31.914,-175.78 30.503,21.75 62.683,55.94 95.039,79.81 24.988,18.37 50.039,30.63 75.75,48.3 15.285,10.55 25.234,24.08 37.937,36.77 -15.137,-63.85 -71.148,-128.28 -111.265,-158.31 -50.391,-37.79 -68.45,-43.81 -149.418,-126.14 -10.29,101.66 -8.458,207.32 45.199,297.96" /><path
             id="path94"
             style="fill:#ffffff;fill-opacity:1;fill-rule:nonzero;stroke:none"
             d="m 89.5234,1890.6 c 3.7657,52.79 10.0938,95.02 22.9256,146.52 8.989,35.97 28.34,89.5 56.25,111.47 -3.418,-13.05 -5.215,-32.6 -6.543,-45.8 -5.468,-54.39 4.953,-117.56 6.196,-171.9 0.625,-26.72 0.386,-47.32 -3.618,-72.42 -4.136,-26.32 -0.679,-58.62 -0.679,-58.62 0,0 14.414,16.48 27.3,37 28.149,44.7 37.153,57.97 59.829,82.19 28.14,30.04 59.605,57.87 95.132,82.51 -4.296,-16.69 -22.429,-49.16 -29.921,-62.2 -10.008,-17.46 -14.547,-33.32 -38.219,-72.85 -33.313,-55.55 -48.149,-63.05 -85.141,-122.46 -8.008,-12.92 -40.847,-62.06 -48.805,-77.08 -17.328,35.86 -23.871,67.19 -45.1206,125.57 -13.3555,36.67 -11.3555,73.36 -9.586,98.07" /><path
             id="path96"
             style="fill:#ffffff;fill-opacity:1;fill-rule:nonzero;stroke:none"
             d="m 38.0938,1615.93 c -20.0977,52.08 -29.29302,100.39 -36.10161,155.22 -4.16016,33.55 -2.226565,78.28 9.74611,110.52 3.1328,-7.87 9.5429,-27.86 10.4179,-30.86 8.9102,-29.96 12.629,-44.34 25.0782,-73.24 9.5234,-22.17 21.1718,-39.83 33.6328,-61.74 11.332,-19.99 20.8788,-46.31 29.0818,-66.44 26.367,-64.57 28.321,-125.02 38.418,-131.63 7.246,15.54 9.531,30.42 10.332,37.76 7.856,71.44 17.258,136.39 107.231,220.59 8.258,-25.06 4.082,-71.27 -0.879,-96.02 -10.766,-54.12 -19.453,-80.12 -43.281,-132.57 -12.598,-27.62 -29.426,-68.26 -34.036,-81.73 -12.082,-35.06 -16.218,-53.45 -23.82,-74.19 -42.476,70.78 -94.7617,143.88 -125.8202,224.33" /><path
             id="path98"
             style="fill:#ffffff;fill-opacity:1;fill-rule:nonzero;stroke:none"
             d="m 108.113,1290.31 c -30.2302,42.1 -41.2575,63.26 -60.9372,108.07 -16.5313,37.6 -21.2852,51.53 -30.9649,93.63 -5.2851,22.95 -8.2734,43.77 -4.1718,57.35 23.6757,-42.87 39.8476,-90.85 70.8125,-126.42 24.5894,-28.2 48.2694,-52.23 67.8244,-76.03 29.988,-36.59 53.601,-71.22 82.383,-109.3 2.421,19.08 3.355,38.43 -0.918,69.71 -5.864,42.86 -2.246,77.99 5.23,119.49 9.492,52.65 16.445,78.72 34.707,131.98 22.356,-43.83 22.27,-94.53 27.871,-141.03 10.84,-90.19 -17.383,-197.76 -22.929,-242.59 -1.485,-11.82 0.558,-40.97 1.156,-52.33 -42.199,33.24 -79.746,66.79 -116.137,103.29 -16.59,16.55 -39.351,43.96 -53.926,64.18" /><path
             id="path100"
             style="fill:#ffffff;fill-opacity:1;fill-rule:nonzero;stroke:none"
             d="m 268.098,959.531 c -19.211,13.84 -70.84,53.299 -95.286,84.359 -35.593,45.2 -43.437,64.58 -66.921,116.59 -2.871,6.34 -16.1722,35.77 -17.2465,55.77 76.9295,-92.91 145.8205,-106.74 219.2145,-183.84 26.938,-28.24 54.524,-54.82 69.082,-68.148 11.172,-10.282 25.039,-13.403 25.039,-13.403 0,0 -1.445,19.813 -8.687,33.582 -48.969,93.599 -58.203,191.439 -50.781,296.459 22.351,-27.68 29.402,-46.15 43.593,-72.91 15.426,-29.15 23.29,-47.18 30.504,-65.12 41.899,-104.28 52.793,-224.741 78.696,-285.37 -79.922,26.93 -142.856,41.309 -227.207,102.031" /><path
             id="path102"
             style="fill:#ffffff;fill-opacity:1;fill-rule:nonzero;stroke:none"
             d="m 595.828,713.441 c -21.617,-1.461 -64.004,-1.332 -86.59,2.348 C 394.844,734.102 288.508,817 235.027,908.07 c 48.496,-29.59 83.559,-49.351 126.211,-64.109 37.981,-13.133 74.004,-17.02 137.414,-35.02 38.262,-10.812 76.145,-26.132 89.453,-31.113 42.415,-15.797 60.286,-11.906 60.286,-11.906 0,0 0,6.437 -15.852,23.726 -31.57,34.454 -43.137,42.704 -69.121,69.192 -8.523,8.75 -28.074,38.48 -37.996,58.238 -28.067,55.883 -31.192,100.682 -56.828,162.062 93.554,-54.94 139.133,-130.742 188.586,-226.32 15.215,-29.261 35.781,-63.07 54.566,-81.66 12.641,-12.469 30.449,-31.41 30.449,-31.41 0,0 -13.047,-3.078 -53.672,-9.07 -18.218,-2.668 -57.046,-14.758 -92.695,-17.239" /><path
             id="path104"
             style="fill:#ffffff;fill-opacity:1;fill-rule:nonzero;stroke:none"
             d="m 1049.31,706.18 c 49.39,-8.071 93.28,-20.078 138.19,-35.489 12.07,-4.152 30.44,-13.281 43.16,-19.722 31.84,-16.199 50.16,-26.719 77.52,-45.539 44.07,-30.34 91.41,-63.051 134.12,-112.668 0.91,-0.973 7.82,-8.352 3.22,-11.961 -8.37,-6.551 -29,-15.903 -35.85,-9.84 -39.08,34.75 -37.11,45.891 -84.47,88.777 -12.15,10.942 -30.49,26.293 -52.41,41.282 -21.37,14.628 -47.21,30.601 -71.22,42.449 -21.82,10.73 -55.42,13.941 -74.28,13.941 l 0.26,-0.129 c -8.58,0.328 -57.84,0.598 -69.25,-0.14 -96.808,-6.629 -92.062,-15.289 -147.878,-30.411 -45.918,-12.492 -95.168,-21.39 -144.067,-27.949 -50.078,-6.812 -94.902,-7.633 -141.851,-2.832 -63.652,6.551 -133.274,24.301 -185.234,57.781 47.507,-0.8 96.296,-9.929 143.562,-6.308 19.895,1.539 52.156,4.527 74.016,11.269 43.418,13.329 68.32,18.539 114.304,31.348 39.512,11 79.344,14.813 120.606,19.152 57.097,6.11 109.992,4.739 157.552,-3.011" /><path
             id="path106"
             style="fill:#ffffff;fill-opacity:1;fill-rule:nonzero;stroke:none"
             d="m 1934.51,2295.17 c 23.88,-23.81 31.03,-32.57 44.94,-58.89 8.21,-15.47 18.62,-35.33 21.59,-60.93 -49.1,18.69 -89.08,56.79 -125.27,98.88 -26.77,31.19 -47.49,72.6 -73.87,103.42 46.48,-15.59 95.5,-45.52 132.61,-82.48" /><path
             id="path108"
             style="fill:#ffffff;fill-opacity:1;fill-rule:nonzero;stroke:none"
             d="m 2074.97,2228.25 c -18.51,31.24 -44.99,65.02 -72.44,88.06 12.84,-30.75 31.56,-69.05 33.76,-90.67 6.83,-67.74 20.74,-114.39 31.91,-175.78 -30.49,21.75 -62.71,55.94 -95.06,79.81 -24.94,18.37 -50.01,30.63 -75.7,48.3 -15.31,10.55 -25.26,24.08 -37.98,36.77 15.15,-63.85 71.17,-128.28 111.28,-158.31 50.37,-37.79 68.44,-43.81 149.38,-126.14 10.27,101.66 8.45,207.32 -45.15,297.96" /><path
             id="path110"
             style="fill:#ffffff;fill-opacity:1;fill-rule:nonzero;stroke:none"
             d="m 2240.15,1890.6 c -3.81,52.79 -10.08,95.02 -22.92,146.52 -8.99,35.97 -28.34,89.5 -56.29,111.47 3.45,-13.05 5.22,-32.6 6.56,-45.8 5.52,-54.39 -4.88,-117.56 -6.17,-171.9 -0.62,-26.72 -0.39,-47.32 3.58,-72.42 4.15,-26.32 0.72,-58.62 0.72,-58.62 0,0 -14.42,16.48 -27.33,37 -28.09,44.7 -37.11,57.97 -59.84,82.19 -28.11,30.04 -59.6,57.87 -95.14,82.51 4.34,-16.69 22.46,-49.16 29.96,-62.2 10.05,-17.46 14.53,-33.32 38.22,-72.85 33.3,-55.55 48.15,-63.05 85.1,-122.46 8.01,-12.92 40.9,-62.06 48.85,-77.08 17.34,35.86 23.86,67.19 45.11,125.57 13.4,36.67 11.39,73.36 9.59,98.07" /><path
             id="path112"
             style="fill:#ffffff;fill-opacity:1;fill-rule:nonzero;stroke:none"
             d="m 2291.58,1615.93 c 20.08,52.08 29.27,100.39 36.11,155.22 4.16,33.55 2.21,78.28 -9.75,110.52 -3.14,-7.87 -9.53,-27.86 -10.41,-30.86 -8.94,-29.96 -12.63,-44.34 -25.05,-73.24 -9.54,-22.17 -21.25,-39.83 -33.68,-61.74 -11.32,-19.99 -20.88,-46.31 -29.12,-66.44 -26.33,-64.57 -28.28,-125.02 -38.37,-131.63 -7.29,15.54 -9.54,30.42 -10.33,37.76 -7.85,71.44 -17.27,136.39 -107.23,220.59 -8.28,-25.06 -4.08,-71.27 0.84,-96.02 10.8,-54.12 19.53,-80.12 43.32,-132.57 12.6,-27.62 29.42,-68.26 34.06,-81.73 12.01,-35.06 16.17,-53.45 23.83,-74.19 42.44,70.78 94.72,143.88 125.78,224.33" /><path
             id="path114"
             style="fill:#ffffff;fill-opacity:1;fill-rule:nonzero;stroke:none"
             d="m 2221.56,1290.31 c 30.27,42.1 41.27,63.26 60.94,108.07 16.52,37.6 21.26,51.53 30.97,93.63 5.29,22.95 8.26,43.77 4.14,57.35 -23.61,-42.87 -39.86,-90.85 -70.82,-126.42 -24.55,-28.2 -48.24,-52.23 -67.79,-76.03 -29.96,-36.59 -53.64,-71.22 -82.38,-109.3 -2.4,19.08 -3.38,38.43 0.88,69.71 5.9,42.86 2.29,77.99 -5.2,119.49 -9.49,52.65 -16.44,78.72 -34.7,131.98 -22.33,-43.83 -22.27,-94.53 -27.88,-141.03 -10.86,-90.19 17.43,-197.76 22.98,-242.59 1.44,-11.82 -0.6,-40.97 -1.2,-52.33 42.2,33.24 79.75,66.79 116.14,103.29 16.59,16.55 39.29,43.96 53.92,64.18" /><path
             id="path116"
             style="fill:#ffffff;fill-opacity:1;fill-rule:nonzero;stroke:none"
             d="m 2061.59,959.531 c 19.19,13.84 70.83,53.299 95.27,84.359 35.6,45.2 43.45,64.58 66.92,116.59 2.84,6.34 16.18,35.77 17.27,55.77 -76.95,-92.91 -145.84,-106.74 -219.24,-183.84 -26.93,-28.24 -54.49,-54.82 -69.06,-68.148 -11.17,-10.282 -25.04,-13.403 -25.04,-13.403 0,0 1.43,19.813 8.66,33.582 48.98,93.599 58.23,191.439 50.76,296.459 -22.28,-27.68 -29.38,-46.15 -43.55,-72.91 -15.4,-29.15 -23.29,-47.18 -30.47,-65.12 -41.94,-104.28 -52.89,-224.741 -78.76,-285.37 79.97,26.93 142.88,41.309 227.24,102.031" /><path
             id="path118"
             style="fill:#ffffff;fill-opacity:1;fill-rule:nonzero;stroke:none"
             d="m 1733.85,713.441 c 21.66,-1.461 64,-1.332 86.62,2.348 114.39,18.313 220.69,101.211 274.19,192.281 -48.55,-29.59 -83.61,-49.351 -126.22,-64.109 -38.01,-13.133 -74.01,-17.02 -137.39,-35.02 -38.3,-10.812 -76.17,-26.132 -89.49,-31.113 -42.41,-15.797 -60.27,-11.906 -60.27,-11.906 0,0 0,6.437 15.84,23.726 31.58,34.454 43.16,42.704 69.1,69.192 8.56,8.75 28.11,38.48 38.02,58.238 28.07,55.883 31.2,100.682 56.86,162.062 -93.55,-54.94 -139.22,-130.742 -188.65,-226.32 -15.17,-29.261 -35.74,-63.07 -54.51,-81.66 -12.62,-12.469 -30.47,-31.41 -30.47,-31.41 0,0 13.05,-3.078 53.7,-9.07 18.2,-2.668 57,-14.758 92.67,-17.239" /><path
             id="path120"
             style="fill:#ffffff;fill-opacity:1;fill-rule:nonzero;stroke:none"
             d="m 1280.37,706.18 c -49.38,-8.071 -93.23,-20.078 -138.18,-35.489 -12.12,-4.152 -30.46,-13.281 -43.18,-19.722 -31.83,-16.199 -50.11,-26.719 -77.51,-45.539 -44.105,-30.34 -91.371,-63.051 -134.129,-112.668 -0.918,-0.973 -7.851,-8.352 -3.223,-11.961 8.403,-6.551 29.028,-15.903 35.825,-9.84 39.097,34.75 37.105,45.891 84.517,88.777 12.1,10.942 30.44,26.293 52.39,41.282 21.42,14.628 47.19,30.601 71.22,42.449 21.79,10.73 55.45,13.941 74.28,13.941 l -0.27,-0.129 c 8.59,0.328 57.83,0.598 69.27,-0.14 96.82,-6.629 92.06,-15.289 147.85,-30.411 45.94,-12.492 95.18,-21.39 144.08,-27.949 50.06,-6.812 94.91,-7.633 141.86,-2.832 63.66,6.551 133.26,24.301 185.2,57.781 -47.48,-0.8 -96.24,-9.929 -143.55,-6.308 -19.91,1.539 -52.13,4.527 -73.99,11.269 -43.42,13.329 -68.35,18.539 -114.29,31.348 -39.53,11 -79.36,14.813 -120.6,19.152 -57.13,6.11 -110.01,4.739 -157.57,-3.011" /><path
             id="path122"
             style="fill:#ffffff;fill-opacity:1;fill-rule:nonzero;stroke:none"
             d="m 1103.64,2834.64 -86.95,-322.87 h -92.315 l -57.742,210.33 -56.445,-210.33 h -92.09 l -86.953,322.87 h 86.914 l 49.531,-222.26 59.578,222.26 h 83.059 l 56.519,-222.26 52.014,222.26 h 84.88" /><path
             id="path124"
             style="fill:#ffffff;fill-opacity:1;fill-rule:nonzero;stroke:none"
             d="m 1390.51,2772.2 h -148.54 v -60.08 h 137.7 v -62.44 h -137.7 v -137.91 h -82.82 v 322.87 h 231.36 v -62.44" /><path
             id="path126"
             style="fill:#ffffff;fill-opacity:1;fill-rule:nonzero;stroke:none"
             d="m 1628.38,2730.88 c 0,9.08 -2.46,16.91 -7.36,23.47 -4.93,6.56 -10.63,11.14 -17.13,13.74 -8.68,3.46 -17.13,5.37 -25.37,5.73 -8.25,0.35 -19.24,0.55 -32.97,0.55 h -14.31 v -96.51 h 23.85 c 14.17,0 25.84,0.87 35.03,2.6 9.18,1.74 16.87,5.2 23.08,10.39 5.35,4.61 9.22,10.14 11.6,16.55 2.39,6.42 3.58,14.24 3.58,23.48 z m 86.09,1.85 c 0,-14.46 -2.54,-28.59 -7.59,-42.39 -5.06,-13.8 -12.29,-25.41 -21.68,-34.8 -12.88,-12.74 -27.22,-22.34 -43.05,-28.85 -15.82,-6.5 -35.53,-9.74 -59.08,-9.74 h -51.83 v -105.18 h -83.27 v 322.87 h 137.05 c 20.53,0 37.83,-1.77 51.92,-5.31 14.1,-3.54 26.58,-8.85 37.42,-15.94 13,-8.53 22.94,-19.43 29.81,-32.73 6.87,-13.3 10.3,-29.28 10.3,-47.93" /><path
             id="path128"
             style="fill:#ffffff;fill-opacity:1;fill-rule:nonzero;stroke:none"
             d="M 499.309,257.871 441.262,70.5586 H 377.52 L 339.348,196.828 301.648,70.5586 H 237.266 L 179.719,257.871 h 62.984 l 32.16,-129.09 39.973,129.09 h 53.199 l 38,-129.09 31.633,129.09 h 61.641" /><path
             id="path130"
             style="fill:#ffffff;fill-opacity:1;fill-rule:nonzero;stroke:none"
             d="m 649.773,286.07 h -4.492 c -2.664,0.782 -6.133,1.668 -10.398,2.66 -4.27,1 -8.836,1.508 -13.723,1.508 -11.758,0 -19.707,-2.109 -23.863,-6.34 -4.16,-4.226 -6.235,-12.398 -6.235,-24.519 v -1.508 h 46.196 V 217.18 H 593.059 V 70.5586 H 532.844 V 217.18 h -25.688 v 40.691 h 25.688 v 5.18 c 0,22.898 6.094,40.078 18.261,51.539 12.188,11.461 30.606,17.18 55.29,17.18 8.91,0 16.964,-0.301 24.191,-0.918 7.226,-0.602 13.625,-1.422 19.187,-2.411 V 286.07" /><path
             id="path132"
             style="fill:#ffffff;fill-opacity:1;fill-rule:nonzero;stroke:none"
             d="m 789.148,165.551 c 0,18.199 -3.101,31.418 -9.312,39.64 -6.215,8.207 -16.035,12.321 -29.465,12.321 -5.652,0 -11.484,-0.871 -17.473,-2.59 -5.996,-1.711 -11.699,-4.184 -17.144,-7.402 v -94.09 c 3.992,-1.559 8.269,-2.559 12.82,-3.008 4.539,-0.442 9.031,-0.66 13.477,-0.66 15.871,0 27.683,4.636 35.449,13.898 7.766,9.27 11.648,23.238 11.648,41.891 z m 61.875,1.258 c 0,-15.457 -2.363,-29.52 -7.07,-42.207 -4.723,-12.672 -10.918,-23.122 -18.57,-31.352 -8,-8.6719 -17.055,-15.2383 -27.16,-19.6797 -10.11,-4.4609 -20.938,-6.6719 -32.493,-6.6719 -10.664,0 -19.714,1.1407 -27.144,3.4102 -7.441,2.2812 -15.063,5.4805 -22.832,9.582 V 1.83984 H 655.535 V 257.871 h 60.219 v -19.512 c 9.219,7.332 18.633,13.282 28.238,17.852 9.613,4.559 20.688,6.84 33.242,6.84 23.325,0 41.45,-8.571 54.387,-25.692 12.941,-17.121 19.402,-40.64 19.402,-70.55" /><path
             id="path134"
             style="fill:#ffffff;fill-opacity:1;fill-rule:nonzero;stroke:none"
             d="m 879.48,70.5586 h 62.3945 v 65.5508 H 879.48 Z" /><path
             id="path136"
             style="fill:#ffffff;fill-opacity:1;fill-rule:nonzero;stroke:none"
             d="m 1101.28,118.602 c 3.89,4.777 6.8,10.539 8.75,17.257 1.93,6.731 2.91,16.051 2.91,27.942 0,11.008 -1,20.23 -2.99,27.687 -2.01,7.453 -4.78,13.391 -8.34,17.852 -3.57,4.558 -7.85,7.781 -12.85,9.672 -5,1.886 -10.4,2.84 -16.18,2.84 -5.78,0 -10.93,-0.782 -15.43,-2.34 -4.5,-1.551 -8.82,-4.672 -12.92,-9.34 -3.67,-4.332 -6.59,-10.281 -8.77,-17.84 -2.17,-7.562 -3.24,-17.07 -3.24,-28.531 0,-10.231 0.93,-19.102 2.83,-26.602 1.89,-7.508 4.67,-13.539 8.34,-18.109 3.55,-4.32 7.81,-7.488 12.76,-9.5 4.94,-2 10.59,-3 16.93,-3 5.45,0 10.65,0.91 15.6,2.762 4.94,1.82 9.14,4.91 12.6,9.25 z m 73.88,45.539 c 0,-30.813 -8.99,-55.082 -26.94,-72.8129 -17.97,-17.7265 -43.17,-26.5976 -75.64,-26.5976 -32.47,0 -57.69,8.8711 -75.646,26.5976 -17.957,17.7309 -26.946,41.9999 -26.946,72.8129 0,31.019 9.043,55.371 27.114,73.05 18.068,17.68 43.218,26.528 75.478,26.528 32.7,0 57.96,-8.887 75.8,-26.699 17.85,-17.782 26.78,-42.079 26.78,-72.879" /><path
             id="path138"
             style="fill:#ffffff;fill-opacity:1;fill-rule:nonzero;stroke:none"
             d="m 1336.89,200.672 h -5.33 c -2.56,0.879 -6.66,1.558 -12.32,2 -5.66,0.437 -10.37,0.656 -14.14,0.656 -8.55,0 -16.09,-0.558 -22.64,-1.668 -6.54,-1.109 -13.59,-3 -21.13,-5.66 V 70.5586 h -60.22 V 257.871 h 60.22 v -27.519 c 13.2,11.347 24.69,18.878 34.44,22.609 9.77,3.719 18.76,5.59 26.96,5.59 2.11,0 4.5,-0.063 7.17,-0.172 2.66,-0.117 4.99,-0.277 6.99,-0.508 v -57.199" /><path
             id="path140"
             style="fill:#ffffff;fill-opacity:1;fill-rule:nonzero;stroke:none"
             d="m 1475.76,129.609 v 84.903 c -3.44,1.437 -7.65,2.578 -12.65,3.41 -4.99,0.84 -9.49,1.258 -13.48,1.258 -15.76,0 -27.58,-4.532 -35.45,-13.602 -7.87,-9.058 -11.82,-21.699 -11.82,-37.937 0,-18.012 3.36,-30.582 10.08,-37.7 6.7,-7.121 16.66,-10.679 29.86,-10.679 6,0 11.88,0.949 17.64,2.84 5.77,1.886 11.06,4.386 15.82,7.507 z m 60.22,-37.5387 c 0,-17.5586 -2.5,-32.3515 -7.51,-44.3515 -5.01,-12.0274 -12.01,-21.418 -21.03,-28.1993 -9,-6.8984 -19.86,-11.87106 -32.6,-14.92966 C 1462.11,1.53125 1447.73,0 1431.72,0 c -13.01,0 -25.82,0.78125 -38.44,2.35156 -12.63,1.54688 -23.55,3.4375 -32.78,5.66016 V 54.8789 h 7.33 c 7.33,-2.8906 16.26,-5.5195 26.82,-7.918 10.55,-2.3906 19.98,-3.5898 28.31,-3.5898 11.1,0 20.13,1.0391 27.07,3.0898 6.94,2.0586 12.24,4.9805 15.9,8.7579 3.45,3.5624 5.95,8.1093 7.49,13.6718 1.56,5.5586 2.34,12.2305 2.34,20.0196 v 3.5 c -7.22,-5.8985 -15.21,-10.5586 -23.99,-14 -8.77,-3.461 -18.55,-5.1797 -29.32,-5.1797 -26.22,0 -46.43,7.8906 -60.64,23.6992 -14.22,15.7813 -21.32,39.7893 -21.32,72.0503 0,15.45 2.17,28.79 6.49,40.032 4.33,11.226 10.44,21.008 18.32,29.347 7.34,7.782 16.36,13.852 27.07,18.172 10.72,4.348 21.69,6.52 32.91,6.52 10.11,0 19.3,-1.192 27.57,-3.59 8.27,-2.402 15.8,-5.691 22.58,-9.93 l 2.17,8.34 h 58.38 V 92.0703" /><path
             id="path142"
             style="fill:#ffffff;fill-opacity:1;fill-rule:nonzero;stroke:none"
             d="M 1751.25,330.109 1618.96,16.5117 h -51.19 l 131.74,313.5973 h 51.74" /><path
             id="path144"
             style="fill:#ffffff;fill-opacity:1;fill-rule:nonzero;stroke:none"
             d="m 1946.22,129.711 c 0,-19.281 -8.63,-34.8204 -25.92,-46.6094 -17.27,-11.793 -40.92,-17.6914 -70.93,-17.6914 -16.63,0 -31.68,1.5507 -45.2,4.6484 -13.52,3.1016 -24.37,6.5312 -32.56,10.3008 v 49.1796 h 5.48 c 3,-2.109 6.45,-4.398 10.38,-6.891 3.94,-2.5 9.5,-5.187 16.7,-8.07 6.21,-2.547 13.24,-4.726 21.1,-6.558 7.86,-1.829 16.28,-2.739 25.26,-2.739 11.74,0 20.44,1.297 26.08,3.899 5.65,2.609 8.48,6.461 8.48,11.55 0,4.54 -1.66,7.84 -4.99,9.891 -3.32,2.051 -9.64,4.008 -18.94,5.891 -4.43,1 -10.45,2.09 -18.03,3.25 -7.58,1.156 -14.49,2.578 -20.68,4.238 -16.95,4.418 -29.52,11.309 -37.71,20.68 -8.21,9.351 -12.3,21.011 -12.3,34.968 0,17.942 8.5,32.872 25.5,44.782 17,11.898 40.23,17.859 69.7,17.859 13.95,0 27.33,-1.418 40.12,-4.238 12.8,-2.821 22.79,-5.84 29.98,-9.051 v -47.191 h -5.14 c -8.86,6.089 -18.97,11.05 -30.32,14.871 -11.35,3.82 -22.85,5.73 -34.48,5.73 -9.63,0 -17.75,-1.32 -24.33,-3.992 -6.59,-2.656 -9.89,-6.418 -9.89,-11.289 0,-4.43 1.49,-7.809 4.49,-10.141 2.98,-2.32 10.02,-4.648 21.1,-6.976 6.08,-1.223 12.65,-2.403 19.69,-3.571 7.03,-1.171 14.08,-2.632 21.17,-4.402 15.73,-4.098 27.36,-10.551 34.9,-19.348 7.52,-8.812 11.29,-19.812 11.29,-32.98" /><path
             id="path146"
             style="fill:#ffffff;fill-opacity:1;fill-rule:nonzero;stroke:none"
             d="M 2150.02,257.129 2078.08,70.5586 h -67.79 L 1938.86,257.129 H 2002 l 43.3,-128.418 42.76,128.418 h 61.96" /></g></g></g></g></svg>