<?xml version="1.0" encoding="UTF-8" standalone="no"?>
<svg
   xmlns:dc="http://purl.org/dc/elements/1.1/"
   xmlns:cc="http://creativecommons.org/ns#"
   xmlns:rdf="http://www.w3.org/1999/02/22-rdf-syntax-ns#"
   xmlns:svg="http://www.w3.org/2000/svg"
   xmlns="http://www.w3.org/2000/svg"
   viewBox="0 0 911.65332 377.94666"
   height="377.94666"
   width="911.65332"
   xml:space="preserve"
   id="svg2"
   version="1.1"><metadata
     id="metadata8"><rdf:RDF><cc:Work
         rdf:about=""><dc:format>image/svg+xml</dc:format><dc:type
           rdf:resource="http://purl.org/dc/dcmitype/StillImage" /></cc:Work></rdf:RDF></metadata><defs
     id="defs6"><clipPath
       id="clipPath20"
       clipPathUnits="userSpaceOnUse"><path
         id="path18"
         d="M 0,0 H 6837 V 2834.64 H 0 Z" /></clipPath></defs><g
     transform="matrix(1.3333333,0,0,-1.3333333,0,377.94667)"
     id="g10"><g
       transform="scale(0.1)"
       id="g12"><g
         id="g14"><g
           clip-path="url(#clipPath20)"
           id="g16"><path
             id="path22"
             style="fill:#ffffff;fill-opacity:1;fill-rule:nonzero;stroke:none"
             d="m 1340.5,2131.15 c 12.51,27.07 24.09,48.62 40.79,74.3 7.37,11.32 15.69,19.22 23.11,30.67 -3.54,1.02 -8.73,-1.91 -10.96,-3.5 -7.42,-5.38 -10.77,-14.12 -16.71,-18.8 -14.03,-11.08 -13.64,-21.1 -21,-26.27 -6.57,-4.64 -8.45,-7.69 -13.05,-14.91 -3.08,-4.82 -5.35,-8.73 -8.6,-18.22 -1.15,-3.44 -3.45,-0.4 -8.92,-7.94 -7.19,-9.8 -10.41,-20.39 -13.39,-32.25 -0.96,-3.91 -7.59,-5.98 -11.86,-14.08 -5.71,-10.92 -9.43,-21.03 -11.9,-36.95 -0.62,-3.69 -6.86,-6.25 -11.16,-16.54 -3.05,-7.22 -5.24,-8.82 -7.9,-22.45 -1.65,-8.3 -5.43,-9.5 -9.7,-21.56 -3.3,-9.2 -3.43,-18.05 -4.58,-30.08 -0.27,-2.33 -4.2,-6.95 -7.83,-13.69 -6.1,-11.26 -5.9,-18.77 -8.32,-30.41 -0.93,-4.2 -5.65,-9.77 -10.18,-27.79 -3.98,-15.98 -0.33,-26.57 -1.68,-34.45 -3.53,-20.44 -7.03,-38.21 -5.14,-58.35 0.94,-9.85 2.44,-20.01 1.78,-29.48 -1.87,-29.7 -3.48,-54.17 -3.32,-87.83 0.11,-18.32 1.54,-43.41 4.32,-64.29 3.04,-23.06 7.44,-41.07 7.44,-41.07 h 75.14 c 0,0 -2.94,43.45 0.95,89.19 2.31,27.42 8.83,56.49 14.76,76.9 7.51,26.02 12.18,39.5 26.37,73.84 0.3,0.76 -0.1,3.98 -3.85,0.83 -7.84,-6.59 -14.39,-12.37 -20.58,-21.69 -9.45,-14.25 -15.21,-25.99 -22.87,-40.63 -8.95,-17.02 -13.89,-31.85 -23.11,-52.52 -0.54,14.92 1.88,29.12 4.91,42.87 3.1,14.04 5.56,25.16 9.98,37.26 7.83,21.34 15.43,39.16 27.99,59.02 7.27,11.49 16.57,21.78 26.01,30.33 11.29,10.32 21.73,19.4 33.55,29.5 -12.42,6.4 -28.96,-6.96 -32.27,-7.64 -17.47,-3.42 -24.58,-19.61 -29.93,-21.84 -7.65,-3.19 -12.07,-7.87 -17.38,-14.33 -4.09,-4.85 -5.32,-12.33 -9.59,-14.98 -7.13,-4.44 -12.37,-11.14 -17.27,-20.49 -2.01,-3.87 -7.5,-22.13 -13.59,-19.79 10.42,61.92 32.28,120 67.38,171.7 22.25,32.78 46.45,60.88 82.12,86.1 4.7,3.34 5.61,4.89 -0.95,4.66 -33.34,-4.06 -35.38,-19.27 -40.87,-20.72 -5.2,-1.34 -11.65,-7.51 -15.77,-11.52 -7.41,-7.33 -7.28,-13.5 -10.13,-15.43 -6.08,-4.24 -10.66,-8.65 -14.81,-16.02 -2.19,-3.85 -5.86,-12.3 -9.11,-14.24 -8.57,-4.96 -16.86,-12.18 -20.99,-19.99 -3.05,-5.7 -4.27,-11.88 -8.25,-17.49 -4.27,-6.02 -10.23,-10.52 -15.36,-14.88 3.9,26.47 16.37,57.81 24.95,84.86 11.53,36.13 25.54,68.96 41.33,103.08" /><path
             id="path24"
             style="fill:#ffffff;fill-opacity:1;fill-rule:nonzero;stroke:none"
             d="m 1417.21,1916.65 c 28.44,63.85 58.37,111.9 97.26,168.11 5.08,7.36 9.64,14.58 14.08,21.49 2,3.11 11.56,16.85 13.55,19.76 13.04,19.69 18.52,25.72 31.86,44.53 3.62,5.11 6.55,9.14 8.09,15.03 2.84,11.02 -6.61,18.41 -8.79,28.97 -2.2,10.79 -0.99,22.57 3.96,31.68 3.1,5.69 6.19,7.93 9.31,15.57 6.07,14.73 3.97,46.6 10.87,47.44 -1.75,-15.13 -2.15,-32.13 0.23,-46.64 2.76,-16.93 13.03,-27.18 17.27,-45.11 11.43,2.06 23.83,1.57 33.45,0.74 9.54,-0.82 21.61,1.83 31.4,5.18 13.26,4.53 24.27,12.78 37.79,15.98 -11.5,-11.05 -27.73,-15.2 -41.33,-23.59 -5,-3.14 -9.71,-7.29 -13.05,-12.45 -5.46,-8.51 -9.78,-16.64 -18.34,-20.38 -15.19,-6.62 -28.24,-3.48 -45.57,-6.7 -25.76,-26.55 -50.01,-62.63 -72.38,-100.59 -56.73,-95.97 -104.04,-195.36 -131.54,-297.28 9.51,17.73 18.6,34.88 28.9,51.75 11.38,18.74 24.18,37.09 38.13,55.47 32.66,43.05 64.97,80.64 101.18,120.19 29.21,31.96 61.24,58.76 96.95,81.18 47.19,29.57 105.41,50.28 156.56,39.6 5.82,-1.36 14.14,-2.91 17.77,-6.74 -64.11,8.98 -121.54,-13.42 -164.39,-47.74 -33.86,-27.07 -62.39,-54.56 -91.39,-90.28 -14.98,-17.2 -28.45,-36.11 -41.83,-54.44 -14.02,-19.27 -26.45,-39.55 -38.77,-59.83 -41.55,-68.61 -72.99,-141.25 -96.12,-216.51 -0.66,-2.38 -0.81,-4.78 -1.46,-7.16 1.09,1.69 2.71,3.53 3.81,5.25 31.12,50.6 68.55,99.45 115.96,132.22 4.14,2.82 8.45,8.26 9.57,12.53 5.12,20.09 -10.19,29.75 10.99,57.52 4.86,6.38 11.51,8.71 16.1,14.64 8.67,13.4 15.74,37.41 23,43.86 -3.65,-15.63 -12.61,-32.14 -14.53,-48.25 -2.03,-17.69 2.49,-32.15 3.28,-50.89 12.52,-1.71 22.21,-7 32.03,-10.04 15.28,-4.78 24.46,-3.56 39.57,-2.26 6.45,0.55 18.15,4.32 25.1,2.9 -14.61,-7.98 -34.33,-6.51 -49.28,-14.15 -10.46,-5.35 -13.49,-13.26 -27.92,-16.04 -12.84,-2.5 -23.64,-1.16 -31.98,3.12 -6.49,3.27 -11.56,4.64 -17.39,1.85 -15.56,-7.47 -26.18,-18.02 -38.7,-30.65 -29.08,-29.26 -52.81,-61.93 -74.96,-104.74 -5.86,-11.41 -11.13,-22.65 -16.13,-34.26 -2.47,-5.65 -8.6,-21.34 -8.6,-21.34 h -75.98 c 0,0 -0.19,21.91 0.52,29.91 1.46,15.94 3.63,27.76 6.72,43.93 4.41,23.27 8.72,44.38 14.76,66.95 5.88,21.96 12.21,42.56 19.74,63.65 15.71,43.96 32.41,86.06 50.67,127.06" /><path
             id="path26"
             style="fill:#ffffff;fill-opacity:1;fill-rule:nonzero;stroke:none"
             d="m 682.551,1324.8 c 27.73,22.68 48.261,35.82 75.957,52.33 11.25,6.72 28.262,14.33 41.336,20.26 47.976,21.68 111.465,37.67 171.269,38.77 1.082,0 1.016,-0.05 1.016,-0.05 h 445.901 c 0,0 -1.66,0.05 1.56,0.05 14.19,0 28.22,-4.94 36.91,-13.15 8.71,-8.26 12.87,-20.97 15.14,-33.62 1.92,-10.78 0.98,-20.36 -1.53,-31.89 -1.97,-9.11 -3.43,-14.54 -8.51,-22.28 -3.06,-4.71 -5.97,-7.94 -11.68,-12.48 -5.86,-4.68 -14.16,-6.31 -23.67,-6.4 -1,-0.04 -3.12,-0.1 -3.05,-0.07 0.1,0.07 -521.559,0.07 -521.559,0.07 0,0 -3.243,0.01 -4.871,0.01 -34.141,0.11 -70.098,-1.63 -103.832,-6.03 -25.848,-3.53 -51.747,-7.56 -76.727,-14.06 -31.504,-8.23 -61.836,-19.62 -92.117,-30.91 16.785,22.31 36.16,41.24 58.457,59.45" /><path
             id="path28"
             style="fill:#ffffff;fill-opacity:1;fill-rule:nonzero;stroke:none"
             d="m 837.383,1502.21 c 27.39,19.79 60.652,36.04 90.129,47.32 14.937,5.66 34.8,11.93 50.586,15.86 19.058,4.81 40.972,8.42 58.832,8.94 5.38,0.15 0.79,0.04 0.79,0.04 l 382.46,0.04 c 0,0 8.19,-0.44 11.03,-1 7.19,-1.55 12.99,-4.48 15.39,-6.01 5.94,-3.81 13.4,-11.81 17.3,-18.14 9.93,-16.35 11.68,-34 8.46,-52.37 -3.67,-20.97 -19.61,-44.86 -41.23,-45.45 -3.77,-0.1 -11.28,0 -11.28,0 h -414.23 c 0,0 -24.104,-0.47 -35.124,-0.87 -20.367,-0.8 -42.957,-3.12 -60.738,-5.74 -15.215,-2.19 -30.078,-5.07 -45.317,-9.15 -51.074,-13.8 -95.449,-39.7 -141.851,-59.84 31.25,54.63 73.531,96.48 114.793,126.37" /><path
             id="path30"
             style="fill:#ffffff;fill-opacity:1;fill-rule:nonzero;stroke:none"
             d="m 623.43,1242.28 c 66.492,39.28 146.582,54.77 219.89,57.23 1.746,0.08 5.227,0.19 5.227,0.19 l 571.723,-0.05 c 0,0 1.04,0 6.21,0.05 34.65,0.03 47.31,-34.35 47.15,-62.15 -0.07,-9.16 -1.62,-18.5 -4.16,-24.77 -3.29,-8.19 -6.93,-14.88 -12.89,-21.34 -2.13,-2.34 -9.78,-7.72 -13.17,-8.55 -7.92,-1.94 -17.67,-1.72 -17.61,-1.72 0.08,0 -425.26,-0.08 -425.26,0 0,0 -22.95,0.92 -38.868,2.45 -11.477,1.13 -20.18,2.33 -32.094,4.6 -29.297,5.82 -53.57,15.35 -78.926,23.17 -16.922,5.24 -34.722,9.13 -53.281,11.94 -34.141,5.22 -71.414,7.6 -105.887,4.99 -43.847,-3.26 -82.839,-11.85 -124.558,-25.08 7.058,10.99 36.375,27.12 56.504,39.04" /><path
             id="path32"
             style="fill:#ffffff;fill-opacity:1;fill-rule:nonzero;stroke:none"
             d="m 931.395,1063 c -19.547,6.89 -38.614,15.78 -55.719,27.07 -22.285,14.75 -33.215,26.48 -62.016,39.79 -24.644,11.39 -44.324,22.63 -78.687,35.08 -16.582,6.01 -43.442,14.28 -66.489,18.22 -32.898,5.59 -64.629,8.04 -64.629,8.04 0,0 6.719,4.19 10.774,5.43 33.586,10.22 63.254,15.21 97.742,17.76 30.234,2.27 58.027,-0.68 88.352,-5.42 12.441,-1.96 28.613,-5.79 42.668,-9.8 45.64,-12.99 97.515,-33.59 143.55,-33.67 2.563,0 2.27,0.04 2.27,0.04 h 425.019 c 0,0 -3.21,0 1.3,0 12.87,0.04 36.93,-4.13 46.6,-21.21 11.2,-19.68 14.68,-43.12 5.27,-66.6 -2.85,-7.05 -7.58,-17.16 -14.37,-23.28 -5.97,-5.4 -15.67,-8.87 -21.27,-8.87 -1.62,-0.08 -4.4,0 -4.4,0 h -371.69 c 0,0 1.41,0 -2.03,0 -38.01,0 -85.847,4.6 -122.245,17.42" /><path
             id="path34"
             style="fill:#ffffff;fill-opacity:1;fill-rule:nonzero;stroke:none"
             d="m 1100.71,931.16 c -10.51,10.789 -25.02,27.328 -38.15,43.039 -25.23,30.071 -36.52,57.161 -36.52,57.161 h 247.91 c 0,0 0.66,-28.6 -5.07,-61.719 -5.36,-30.75 -16.72,-63.172 -28.8,-86.661 -0.44,-24.082 9.72,-46.468 11.39,-70.261 -20.36,-12.5 -42.26,-24.867 -60.51,-42.418 -1.17,-1.082 -3.05,-1.082 -3.82,1.828 -9.77,36.66 -14.92,69.34 -22.95,105.59 -22.6,17.472 -43.79,33.043 -63.48,53.441" /><path
             id="path36"
             style="fill:#ffffff;fill-opacity:1;fill-rule:nonzero;stroke:none"
             d="m 1356.2,951.488 c -7.01,12.953 -12.24,30.051 -20.29,40.223 -1.73,-9.07 0.4,-14.652 -0.83,-23.332 -1.13,-7.27 -7.09,-4.25 -8.3,-0.828 -3.48,9.84 -7.17,21.988 -10.35,32.078 -5.29,16.801 -6.98,31.681 -6.98,31.681 l 41.24,0.05 c 0,0 1.59,-0.39 2.32,-4.4 1.97,-10.39 1.48,-20.54 4.33,-32.581 3.66,-15.508 8.37,-29.668 14.07,-44.129 4.96,-12.73 11.35,-25.57 16.55,-38.211 0.7,-1.66 1.04,-4.859 -0.21,-6.519 -1.53,-1.918 -4.16,-1.68 -5.67,0 -11.81,13.429 -16.57,28.64 -25.88,45.968" /><path
             id="path38"
             style="fill:#ffffff;fill-opacity:1;fill-rule:nonzero;stroke:none"
             d="m 1420.04,922.012 c -7.01,14.949 -16.88,31.758 -16.02,48.718 4.56,-5.992 6.44,-10.281 12.72,-13.621 2.87,-0.91 8.89,-0.058 7.38,4.961 -2.77,9.34 -7.08,17.25 -11.06,30.071 -5.92,18.949 -11.67,39.199 -11.67,39.199 l -42.1,0.02 c 0,0 2.33,-17.08 11.9,-43.29 8.41,-23.211 21.4,-49.769 35.62,-74.672 11.59,-20.476 22.11,-38.347 35.25,-53.308 4.5,-5.149 15.54,-0.629 10.76,6.07 -12.47,17.641 -24.11,37.168 -32.78,55.852" /><path
             id="path40"
             style="fill:#ffffff;fill-opacity:1;fill-rule:nonzero;stroke:none"
             d="m 1693.4,2344.89 c -9.14,-3.98 -17.21,-9.13 -21.77,-17.91 -3.32,-6.3 -5.56,-15.92 0.79,-21.34 11.12,-9.48 24.38,0.23 29.75,9.92 6.79,12.35 5.02,35.96 5.02,35.96 0,0 -7.89,-4.11 -13.79,-6.63" /><path
             id="path42"
             style="fill:#ffffff;fill-opacity:1;fill-rule:nonzero;stroke:none"
             d="m 1703.06,2285.95 c 3.99,7.54 12.74,15.68 22.33,21.51 10.84,6.63 22.07,13.06 29.88,17.72 7.81,4.7 9.3,7.99 9.3,7.99 0,0 -6.44,-2.22 -9.96,-4.29 -19.28,-11.5 -40.31,-24.56 -48.87,-28.33 -10.8,-4.71 -25.47,-5.62 -38.7,-7.31 -2.11,16.69 -6.44,23.62 -6.39,38.44 0.11,7.12 1.83,16.34 3.04,22.77 4.14,21.43 4.95,32.25 4.95,32.25 0,0 -3.27,-3.05 -4.46,-12.49 -1.35,-8.51 -2.3,-11.66 -4.26,-21.73 -2.22,-11.62 -4.55,-21.47 -11.5,-28.73 -10.02,-10.36 -19.3,-28.82 -11.56,-42.96 4.51,-8.26 12.04,-7.06 14.4,-9.19 2.35,-2.12 3.79,-7.21 10.92,-9.57 15.39,-5.14 32.83,8.67 40.88,23.92" /><path
             id="path44"
             style="fill:#ffffff;fill-opacity:1;fill-rule:nonzero;stroke:none"
             d="m 1683.11,2241.88 c 5.22,8.48 10.58,14.43 18.81,19.48 13.67,8.33 23.8,13.97 32.13,18.24 3.62,1.81 6.63,3.97 7.55,7.83 -3.73,-1.4 -17.83,-8.03 -31.83,-16.36 -10.03,-5.98 -27.27,-13.46 -38.85,-13.99 -4.59,-0.2 -7.99,0.93 -11.74,1.04 -7.77,0.33 -17.67,-1.55 -17.67,-1.55 0,0 -2.51,10.98 -5.83,18.89 -1.66,4.06 -4.35,8.22 -5.8,15.83 -0.97,5.08 -1.26,12.71 -0.86,17.25 1.14,13.73 4.84,27.07 4.2,40.97 -8.63,-17.93 -5.1,-40.01 -15.23,-53.88 -4.28,-5.83 -7.66,-10.43 -11.02,-17.78 -5.56,-12.06 -4.9,-24.55 2.62,-36.18 4.34,-6.62 13.91,-6.38 15.56,-7.67 2.51,-1.85 4.65,-8.78 14.01,-10.86 16.02,-3.6 34.9,3.82 43.95,18.74" /><path
             id="path46"
             style="fill:#ffffff;fill-opacity:1;fill-rule:nonzero;stroke:none"
             d="m 1687.58,1891.3 c 3.73,7.52 6.13,17.42 10.89,24.4 -10.76,-1.61 -12.49,-2.84 -28.04,-4.54 -3.39,-0.33 -10.4,-3.85 -12.72,-6.16 -6.15,-6.2 -11.52,-11.96 -9.13,-22.38 0.92,-4.05 4.5,-7.03 6.49,-7.65 12.93,-4.2 26.05,3.49 32.51,16.33" /><path
             id="path48"
             style="fill:#ffffff;fill-opacity:1;fill-rule:nonzero;stroke:none"
             d="m 1700.7,1870.77 c 14.69,3.43 31.66,10.64 38.48,8.37 -13.79,-7.34 -31.17,-9.99 -46.45,-14.35 -11.65,-3.36 -19.97,-12.16 -30.37,-20.15 -9.55,-7.27 -22.24,-10.22 -33.59,-4.88 -3.83,1.82 -7.54,7.99 -8.2,11.28 -0.6,2.64 -6.08,5.26 -8.89,7.58 -2.83,2.36 -4.2,8.25 -4.26,10.53 -0.49,20.33 14.98,28.54 29.89,40.49 11.23,8.99 25.81,47.16 34.7,55.07 -1.58,-12.3 -17.58,-35.51 -24.55,-53.57 -5.53,-14.4 -3.71,-25.9 -7.28,-41.05 10.66,-0.69 22.54,-2.91 33.28,-3.09 8.42,-0.11 18.59,1.72 27.24,3.77" /><path
             id="path50"
             style="fill:#ffffff;fill-opacity:1;fill-rule:nonzero;stroke:none"
             d="m 1685.22,1839.42 c -8.25,-1.53 -18.34,-4.13 -25.23,-5.59 -23.95,-5.07 -35.4,6.66 -54.52,6.44 1.68,21.91 -5.93,31.71 0.33,45.87 5.59,12.6 10.76,25.94 15.56,36.62 3.89,8.56 5.07,15.79 5.07,15.79 0,0 -5.8,-8.69 -22.32,-40.86 -5.74,-11.22 -16.02,-13.63 -25.15,-24.23 -10.51,-12.12 -16.54,-37.75 2.9,-48.51 3.86,-2.11 3.3,-8.78 6.11,-11.47 12.98,-12.2 39.19,-10.98 55.58,3.9 13.05,11.89 28.91,13.82 42.43,17.32 7.9,2.04 14.83,5.41 14.83,5.41 0,0 -3.75,1.52 -15.59,-0.69" /><path
             id="path52"
             style="fill:#ffffff;fill-opacity:1;fill-rule:nonzero;stroke:none"
             d="m 1205.22,1585.17 c -0.94,0 -1.96,0 0,0 z m -111.88,315.55 c -7.99,-10.56 -11.69,-22.7 -20.5,-31.92 -4.61,-4.83 -11.63,-2.57 -15.27,2.99 -4.04,6.28 -10.59,15.19 -5.72,21.4 8,10.26 24.74,16.81 39,14.96 0.84,-0.1 5.43,-3.49 2.49,-7.43 z m -38.35,-60.39 c -4.46,-11.96 -17.79,-13.25 -29.13,-15.62 -2.12,-0.47 -8.64,0 -11.57,2.87 -4.91,4.79 -9.14,11.34 -8.29,19.54 0.46,5.06 4.67,10.02 9.9,12.03 9.46,3.67 20.69,9.57 30.03,4.33 8.03,-4.49 12.23,-14.72 9.06,-23.15 z m -24.54,-63.21 c -3.27,-4.72 -11.65,10.93 -12.74,18.11 -3.13,20.77 15.07,26.07 30.25,25.42 0.47,-12.38 -9.14,-31.56 -17.51,-43.53 z m -16.39,-56.04 c -2.98,-8.36 -4.4,-16.03 -7.72,-23.69 -3.22,-7.4 -16.977,-10.04 -24.61,-7.67 -10.89,3.37 -20.238,27.83 -7.851,37.2 9.473,7.08 19.297,8.22 31.361,9.7 2.17,0.26 10.28,-0.23 10.59,-0.99 2.02,-5.08 0.74,-7.62 -1.77,-14.55 z m -18.33,-64.59 c -2.207,-6.42 -3.179,-13.03 -6.023,-19.2 -1.414,-3.12 -3.289,1 -3.359,1.19 -4.286,10.65 -6.985,19.66 -3.328,29.03 2.058,5.19 9.16,9.96 15.898,10.38 -0.41,-6.67 -0.891,-14.9 -3.188,-21.4 z M 974.07,1625 c -4.922,2.22 -4.84,8.55 -6.902,12.49 -1.941,3.83 -6.133,9.12 -4.402,14.16 9.492,-5.33 13.894,-14.83 11.304,-26.65 z m -16.382,39.31 c -11.333,9.32 -12.305,24.21 -19.868,35.62 8.34,5.33 22.395,4.26 26.723,-6.29 3.453,-8.48 5.953,-20.94 -2.641,-27.41 -0.933,-0.69 -3.14,-2.81 -4.214,-1.92 z m -42.25,76.85 c -1.7,2.42 -5.055,9.43 -2.5,10.32 20.292,6.98 35.507,7.21 39.843,-14.48 3.071,-15.49 -7.515,-28.78 -22.343,-23.36 -4.239,1.56 -8.458,18.06 -15,27.52 z m -29.493,48.99 c -1.425,1.79 -2.578,7.18 -0.8,8.57 10.546,8.47 26.027,9.12 38.007,7.95 15.825,-1.45 19.067,-16.14 16.426,-28.32 -3.473,-16.04 -27.801,-18.03 -34.683,-15.37 -6.782,2.6 -11.497,17.94 -18.95,27.17 z m 3.442,57.03 c 13.672,8.86 39.785,15.43 44.136,-8.56 1.332,-7.23 -0.476,-16.83 -10.242,-19.97 -10.027,-3.21 -21.843,-6.69 -31.008,-2.97 -11.277,4.62 -13.496,24.65 -2.886,31.5 z m -14.16,40.37 c 1.035,4.59 6.128,6.77 10.418,7.86 11.066,2.74 23.425,6.86 33.585,0.4 3.954,-2.51 4.254,-6.06 4.774,-11.03 0.898,-8.07 -0.242,-14.66 -5.559,-17.74 -10.777,-6.32 -21.734,-6.9 -34.257,-4.43 -10.157,2.01 -10.997,15.46 -8.961,24.94 z m -11.332,-62.21 c -9.469,6.99 -13.661,16.89 -20.641,26.71 -1.684,2.4 0,3.39 1.289,3.76 16.812,4.75 29.273,-3.63 26.656,-21.96 -0.469,-3.55 -2.769,-11.85 -7.304,-8.51 z m -46.383,56.6 c -6.313,5.45 -1.926,14.92 3.562,17.68 9.61,4.77 24.707,5.49 34.696,2.12 6.437,-2.16 9.691,-11.39 8.539,-21.46 -0.493,-4.13 -1.743,-8.67 -3.774,-10.02 -7.605,-5.19 -19.383,-5.39 -28.64,-3.47 -6.551,1.39 -8.887,10.35 -14.383,15.15 z m -7.27,57.25 c 6.098,13.26 28.305,13.36 40.41,7.46 9.844,-4.85 11.094,-23.19 0.332,-30.42 -8.589,-5.71 -22.117,-3.62 -31.226,-1.94 -12.934,2.37 -13.965,15.09 -9.516,24.9 z m 0.488,49.61 c 9.243,8.77 21.196,4.74 32.305,3.21 2.16,-0.31 4.731,-1.82 6.184,-3.27 7.59,-7.67 8.191,-20.24 -0.266,-26.53 -9.742,-7.24 -21.922,-2.53 -33.641,-1.95 -3.164,0.14 -6.652,3.85 -7.374,6.23 -2.11,7.42 -3.376,16.49 2.792,22.31 z m 5.958,41.5 c 9.796,4.08 26.632,5.96 33.578,-5.04 4.254,-6.74 3.015,-19.22 -3.821,-21.03 -6.687,-1.72 -29.465,-5.51 -34.914,7.07 -2.691,6.2 -1.551,16.17 5.157,19 z m 30.16,35.24 c 2.832,-1.25 4.605,-3.52 5.269,-7 1.399,-7.56 -0.586,-15.75 -7.832,-17.08 -10.894,-1.98 -27.066,-2.6 -27.012,12.78 0.039,17.17 16.965,16.98 29.575,11.3 z m -21.914,31.93 c 5.789,2.21 15.332,1.72 20.527,-0.99 2.625,-1.37 6.148,-5.67 4.668,-10.22 -1.848,-5.93 -7.363,-8.07 -13.637,-8.15 -6.012,-0.06 -12.918,0.43 -15.347,5.34 -2.305,4.66 -1.333,12.04 3.789,14.02 z m 6.754,25.74 c 5.304,1.93 13.136,1.8 16.996,-2.38 5.293,-5.79 1.113,-15 -8.887,-14.54 -3.527,0.14 -7.695,1.35 -9.824,2.57 -5.176,2.93 -3.457,12.5 1.715,14.35 z m 23.82,16.59 c 0.676,2.24 4.16,4.84 5.984,5.49 3.969,1.41 8.625,1.71 12.426,0.19 7.598,-3.13 6.562,-12.53 -1.563,-15.82 -3.632,-1.49 -9.21,-2.44 -11.957,-1.49 -5.105,1.74 -6.519,6.17 -4.89,11.63 z m 23.68,-36.76 c -8.29,-2.43 -19.84,-2.9 -22.325,5.6 -4.195,14.42 14.004,16.58 23.449,13.56 6.512,-2.08 8.821,-16.31 -1.124,-19.16 z m 5.492,47.62 c 2.632,8.94 12.754,13.79 21.929,11.07 7.895,-2.32 9.707,-13.07 4.375,-18.3 -2.398,-2.35 -6.406,-4.73 -10.703,-5.68 -9.375,-2.1 -18.593,3.08 -15.601,12.91 z m 41.25,-32.78 c -1.489,-5.84 -5.762,-9.84 -12.618,-11.37 -6.796,-1.49 -16.21,-1.91 -19.984,2.29 -3.594,3.98 -5.254,9.59 -2.242,13.88 6.016,8.56 17.039,11.55 26.863,9.38 5.606,-1.31 9.727,-7.05 7.981,-14.18 z m -3.657,34.3 c 3.657,8.1 12.954,12.19 21.875,9.47 1.79,-0.57 5.469,-3.45 5.981,-6.29 1.055,-5.65 -0.899,-10.79 -5.609,-13.74 -6.036,-3.84 -11.012,-6.01 -17.95,-3.17 -5.203,2.18 -6.472,8.94 -4.297,13.73 z m 38.442,-22.78 c 4.07,-6.9 -2.129,-13.83 -5.285,-15.73 -6.985,-4.09 -16.844,-6.6 -21.043,0.32 -4.145,6.8 -0.727,14.87 6.504,17.85 6.89,2.86 14.031,7.2 19.824,-2.44 z m 11.582,-26.36 c 4.566,-3.77 8.57,-11.7 3.101,-17.97 -5.132,-5.91 -11.519,-7.68 -19.586,-8.98 -5.468,-0.93 -12.445,3.11 -13.324,7.93 -0.816,4.15 -1.582,11.73 2.539,15.21 8.032,6.83 18.782,10.79 27.27,3.81 z m 9.668,44.98 c 4.312,-1.28 7.066,-5.84 4.91,-10.23 -1.316,-2.7 -5.187,-5.65 -7.645,-7.16 -6.769,-4.16 -12.582,-2.46 -14.687,2.52 -3.906,9.14 9.195,17.29 17.422,14.87 z m 16.504,-22.8 c 4.751,-0.42 6.931,-3.73 7.871,-7.36 1.23,-4.87 -0.37,-9.38 -4.49,-12.14 -4.885,-3.25 -10.983,-5.17 -15.866,-5.24 -6.589,-0.12 -12.691,9.56 -9.121,15.84 3.782,6.74 13.305,9.63 21.606,8.9 z m 27.281,-34.89 c 2.81,-8.27 -3.26,-12.14 -9.66,-15.54 -6.5,-3.47 -15.22,-6.71 -19.735,-2.39 -5.769,5.44 -8.335,14.58 -1.914,20.59 8.929,8.37 25.409,14.65 31.309,-2.66 z m 11.78,-20.77 c 10.46,-1.33 12.54,-16.2 10.43,-21.58 -2.4,-4.62 -7.67,-8.24 -10.43,-9.65 -7.68,-3.97 -16.64,-5.46 -23.69,-1.81 -6.43,3.33 -9.22,13.09 -5.72,20.73 4.72,10.34 19.62,13.6 29.41,12.31 z m 21.52,-46.04 c 3.58,-5 2.8,-13.88 0.67,-16.66 -6.6,-9.01 -24.96,-14.16 -32.54,-10.47 -5.75,2.81 -11.43,15.5 -4.69,23.11 7,7.9 19.22,12.62 30.3,10.3 2.47,-0.55 4.09,-3.27 6.26,-6.28 z m 4.63,-28.37 c 5.04,-0.54 9.51,-6.08 11.95,-12.11 3.16,-7.8 -0.03,-16.89 -2.53,-18.59 -6.02,-4.09 -25.08,-15.57 -37.09,-8.69 -6.6,3.79 -8.42,12.44 -8.83,17.55 -1.32,16.5 23.73,23.27 36.5,21.84 z m -70.387,-118.09 c -2.563,6.55 -4.941,16.24 0.203,20.21 10.394,8.21 33.894,15.38 42.834,2.98 5.81,-8.05 4.11,-21.7 -6.07,-26.92 -10.5,-5.37 -31.041,-11.54 -36.967,3.73 z m -50.41,-0.72 c 10.429,5.3 25.457,11.7 36.687,4.47 5.137,-3.3 10.442,-16.97 6.817,-23.03 -7.703,-12.87 -27.957,-16.15 -40.852,-12.83 -10.957,2.84 -14.265,25.53 -2.652,31.39 z m -9.375,44.49 c 12.578,8.85 37.437,14.57 43.418,-4.77 1.558,-5.02 2.437,-10.57 -0.117,-14.62 -6.973,-11.21 -24.668,-14.17 -36.504,-12.49 -12.793,1.86 -18.852,23.43 -6.797,31.88 z m -10.598,45.08 c 12.09,6.85 37.86,15.95 43.926,-3.68 2.434,-8.03 2.18,-17.94 -4.695,-21.48 -9.844,-5.18 -25.453,-10.59 -36.809,-3.51 -9.48,6 -10.762,23.9 -2.422,28.67 z m 67.676,81.03 c -5.066,-4.53 -10.203,-5.5 -16.941,-7.79 -9.434,-3.2 -19.321,4.08 -20.403,13.1 -1.816,15.45 14.754,17.76 25.711,19.69 7.988,1.45 12.934,-5.73 14.406,-10.56 1.504,-4.64 1.309,-10.86 -2.773,-14.44 z m 20.304,-36.38 c -7.19,-10.71 -36.156,-17.45 -42.55,-6.43 -4.668,8.07 -7.57,19.39 1.203,24.8 9.219,5.67 20.137,9.05 30.857,7.12 10.08,-1.78 15.22,-18.37 10.49,-25.49 z m 15.45,-66.33 c 4.12,-6.56 7.01,-15.37 0.88,-23.52 -5.55,-7.45 -25.37,-10.94 -35.509,-8.48 -5.566,1.41 -8.203,8.17 -9.055,12.73 -1.179,6.17 -1.726,12.38 3.731,17.41 7.851,7.2 18.333,7.04 28.403,7.04 4.15,0 10,-2.68 11.55,-5.18 z m -5.76,22.26 c -6.18,-11.34 -27.084,-12.79 -36.486,-11.54 -6.621,0.88 -11.289,11.56 -11.098,20.5 0.07,4.6 1.508,7.64 4.649,9.32 10.441,5.61 21.132,9.36 32.365,7.54 10.96,-1.74 15.22,-17.22 10.57,-25.82 z m -110.072,24.42 c -7.102,21.89 20.222,28.79 36.18,25.41 11.093,-2.31 14.804,-23.65 4.472,-30.39 -12.781,-8.31 -35.469,-10.99 -40.652,4.98 z m -41.211,-53.73 c 8.191,8.45 22.976,8.98 34.512,7.43 7.082,-0.99 10.144,-8.15 11.125,-15.92 2.761,-21.38 -25.942,-24.97 -39.59,-19.97 -9.004,3.28 -13.696,20.57 -6.047,28.46 z m -5.774,41.42 c 8.555,10.08 22.872,12.46 34.731,9.21 7.242,-1.97 10.586,-10.43 10.43,-19.91 -0.137,-5.38 -3.829,-9.28 -7.153,-10.65 -8.418,-3.41 -18.164,-5.96 -27.359,-4.84 -11.352,1.39 -18.227,17.27 -10.649,26.19 z m 1.348,45.11 c 10.527,4.29 30.156,8.13 33.457,-6.9 4.453,-20.02 -19.168,-23.29 -31.797,-19.8 -9.668,2.65 -11.504,22.72 -1.66,26.7 z m 75.734,33.09 c 7.872,-4.47 9.524,-17.09 4.739,-24.39 -6.367,-9.67 -28.149,-15.27 -39.848,-6.82 -6.68,4.86 -10.281,24.73 3.399,29.5 10.941,3.82 21.425,7.53 31.71,1.71 z m -11.164,14.38 c -8.921,-5.52 -21.648,-7.72 -30.093,-3.02 -7.344,4.02 -7.051,14.75 -3.418,20.52 5.984,9.62 20.855,10.66 31.132,7.64 8.868,-2.56 12.184,-19.04 2.379,-25.14 z m -72.273,15.68 c 0.906,2.86 2.18,3.68 3.953,4.55 7.5,3.58 15.742,4.54 22.934,-0.07 5.175,-3.36 4.722,-11.1 0.886,-15.12 -5.617,-5.9 -17.043,-6.15 -24.367,-2.31 -4.722,2.47 -4.937,8.29 -3.406,12.95 z m 2.394,-31.34 c 3.321,9.48 15.157,8.95 24.11,7.79 11.023,-1.44 13.23,-15.56 9.308,-21.51 -5.414,-8.19 -17.753,-6.62 -27.582,-5.37 -7.988,1.02 -8.464,11.61 -5.836,19.09 z m 155.508,-285.2 c 2.71,-10.72 0,-20.9 -9.53,-24.32 -12.247,-4.31 -28.81,-10.64 -38.599,-4.04 -11.211,7.51 -16.597,28.81 -3.726,37.16 15.191,9.94 45.445,16.45 51.855,-8.8 z m -16.508,33.3 c -8.23,-9.36 -21.66,-9.05 -34.851,-12.91 -5.09,-1.49 -11.133,3.01 -13.777,7.67 -4.883,8.7 -9.766,20.36 -0.422,28.77 7.734,7.05 18.281,6.45 27.754,9.28 4.25,1.28 9.464,2.77 14.621,-0.72 10.683,-7.29 14.843,-22.91 6.675,-32.09 z m 87.308,140.14 c 2.32,-6.8 5.45,-11.8 2.79,-18.58 -3.14,-8.33 -11.21,-9.47 -18.79,-12.2 -7.07,-2.57 -18.86,-5.8 -24.78,0.39 -6.8,7.04 -9.55,21.39 -1.41,27.54 10.57,7.87 36.6,18.71 42.19,2.85 z m 143.29,61.19 c 6.23,25.39 13.97,51.13 15.9,77.96 2.84,40.07 -5.8,81.73 -31.51,112.08 2.53,-13.09 5.88,-24.14 7.64,-37.88 2.09,-16.59 -0.25,-35.07 -4.53,-51.77 -3.24,-12.64 -8.94,-24.93 -14.59,-36.67 -6.67,-13.92 -16.63,-29.03 -26.55,-41.45 -27.81,-34.58 -71.14,-102.08 -71.14,-102.08 0,0 -3.63,0.27 -5.78,0.27 -0.51,8.41 19.44,37.22 29.5,53.35 22.1,35.35 38.82,54.37 58.04,85.03 12.04,19.32 21.23,42.84 24.19,64.16 5.99,43.43 -17.43,95.48 -51.1,112.79 7.69,-32.44 6.89,-78.17 -10.37,-97.39 -32.7,-36.43 -52.13,-63.69 -75.46,-110.4 -0.67,-1.25 -6.12,6.29 -10.64,9.23 -5.06,3.36 -2.22,13.37 -4.04,20.11 -1.64,5.73 -4.34,10.15 -5.14,11.16 -6.91,8.45 -13.59,8.98 -15.04,11.52 -1.67,2.86 -0.87,10 -6.89,18.13 -3.01,4.1 -10.68,7.12 -13.8,10.97 -3.37,4.2 -4.9,17.05 -14.21,22.32 -4.421,2.49 -6.484,10.19 -10.718,13.97 -13.086,11.59 -26.152,9.35 -28.652,10.08 -3.364,0.9 -9.946,9.27 -21.641,11.29 -11.43,1.94 -17.727,-5.69 -23.664,-2.93 -14.895,6.89 -29.153,7.46 -44.981,-10.18 -4.754,-5.25 -12.961,-0.34 -23.214,-8.18 -9,-6.86 -9.161,-13.2 -13.75,-14.06 -8.614,-1.62 -15.028,-8.5 -18.348,-16.02 -1.731,-3.89 -3.02,-11.7 -4.024,-16.88 -1.418,-7.12 -5.007,-13.69 -5.086,-18.92 -0.082,-7.28 2.223,-11.21 1.583,-14.47 -1.067,-4.71 -4.883,-9.03 -5.352,-13.44 -0.344,-2.5 -0.551,-9.16 1.269,-12.91 2.286,-4.62 -1.613,-8.63 -3.632,-13.56 -1.938,-4.59 -3.977,-12.42 -3.364,-17.95 0.825,-7.59 5.176,-10.37 1.797,-16.35 -5.547,-9.72 -12.539,-24.88 -0.269,-44.25 2.254,-3.54 -5.141,-10.43 -5.547,-20.54 -0.473,-11 6.172,-19.13 7.984,-24 0.332,-1.75 -2.926,-1.65 -3.047,-3.53 -29.214,30.9 -55.054,59.39 -88.941,86.21 -20.703,16.37 -41.176,30.13 -64.121,42.41 -61.289,32.87 -132.484,54.86 -196.992,46.83 24.297,-19.57 54.937,-33.52 79.898,-55.72 23.637,-21.06 45.078,-39.05 66.621,-61.41 33.789,-35.11 61.25,-70.7 89.863,-112.01 8.5,-12.23 14.094,-20.41 22.012,-33.16 7.981,-12.77 16.836,-26.32 24.106,-38.97 36.621,-63.57 66.621,-122.44 96.98,-187.59 8.43,-18.01 15.496,-36.87 23.762,-54.78 2.207,-4.86 5.371,-1.25 7.613,0 10.981,6.35 22.641,11.66 34.043,17.04 9.106,4.18 17.387,7.06 25.512,10.18 20.547,7.83 40.039,12.08 61.551,16.55 35.909,7.52 100.439,5.97 100.439,5.97 l 122.33,0.04 c 0.8,0 1.63,0 3.34,0 -1.28,35.07 -9.61,69.15 -11.64,104.33 -1.54,28.49 -0.59,56.03 0.41,84.59 2.74,77.34 14.11,160.39 31.39,230.88" /><path
             id="path54"
             style="fill:#ffffff;fill-opacity:1;fill-rule:nonzero;stroke:none"
             d="m 395.137,2295.16 c -23.875,-23.8 -30.989,-32.57 -44.91,-58.88 -8.207,-15.47 -18.618,-35.33 -21.582,-60.93 49.058,18.68 89.082,56.78 125.234,98.87 26.758,31.2 47.508,72.6 73.887,103.42 -46.465,-15.58 -95.5,-45.52 -132.629,-82.48" /><path
             id="path56"
             style="fill:#ffffff;fill-opacity:1;fill-rule:nonzero;stroke:none"
             d="m 254.719,2228.25 c 18.484,31.24 44.976,65.01 72.437,88.05 -12.722,-28.57 -28.386,-56.87 -33.765,-90.66 -10.688,-67.27 -20.754,-114.39 -31.914,-175.79 30.503,21.76 62.683,55.95 95.039,79.81 24.988,18.38 50.039,30.64 75.75,48.3 15.285,10.55 25.234,24.09 37.937,36.77 -15.137,-63.84 -71.148,-128.27 -111.265,-158.31 -50.391,-37.78 -68.45,-43.81 -149.418,-126.14 -10.29,101.66 -8.458,207.33 45.199,297.97" /><path
             id="path58"
             style="fill:#ffffff;fill-opacity:1;fill-rule:nonzero;stroke:none"
             d="m 89.5234,1890.59 c 3.7657,52.8 10.0938,95.02 22.9256,146.53 8.989,35.96 28.34,89.5 56.25,111.46 -3.418,-13.04 -5.215,-32.6 -6.543,-45.8 -5.468,-54.39 4.953,-117.56 6.196,-171.89 0.625,-26.73 0.386,-47.32 -3.618,-72.43 -4.136,-26.32 -0.679,-58.61 -0.679,-58.61 0,0 14.414,16.47 27.3,36.99 28.149,44.71 37.153,57.97 59.829,82.19 28.14,30.05 59.605,57.87 95.132,82.52 -4.296,-16.7 -22.429,-49.16 -29.921,-62.21 -10.008,-17.46 -14.547,-33.32 -38.219,-72.85 -33.313,-55.55 -48.149,-63.05 -85.141,-122.45 -8.008,-12.92 -40.847,-62.06 -48.805,-77.08 -17.328,35.86 -23.871,67.19 -45.1206,125.57 -13.3555,36.67 -11.3555,73.36 -9.586,98.06" /><path
             id="path60"
             style="fill:#ffffff;fill-opacity:1;fill-rule:nonzero;stroke:none"
             d="M 38.0938,1615.92 C 17.9961,1668 8.80078,1716.31 1.99219,1771.15 c -4.16016,33.54 -2.226565,78.27 9.74611,110.51 3.1328,-7.86 9.5429,-27.86 10.4179,-30.85 8.9102,-29.96 12.629,-44.35 25.0782,-73.25 9.5234,-22.16 21.1718,-39.83 33.6328,-61.73 11.332,-19.99 20.8788,-46.31 29.0818,-66.45 26.367,-64.57 28.321,-125.02 38.418,-131.62 7.246,15.54 9.531,30.42 10.332,37.75 7.856,71.45 17.258,136.39 107.231,220.6 8.258,-25.07 4.082,-71.28 -0.879,-96.03 -10.766,-54.12 -19.453,-80.11 -43.281,-132.56 -12.598,-27.62 -29.426,-68.27 -34.036,-81.73 -12.082,-35.06 -16.218,-53.46 -23.82,-74.19 -42.476,70.78 -94.7617,143.87 -125.8202,224.32" /><path
             id="path62"
             style="fill:#ffffff;fill-opacity:1;fill-rule:nonzero;stroke:none"
             d="m 108.113,1290.31 c -30.2302,42.1 -41.2575,63.25 -60.9372,108.07 -16.5313,37.59 -21.2852,51.53 -30.9649,93.63 -5.2851,22.95 -8.2734,43.77 -4.1718,57.34 23.6757,-42.87 39.8476,-90.85 70.8125,-126.41 24.5894,-28.21 48.2694,-52.23 67.8244,-76.04 29.988,-36.58 53.601,-71.21 82.383,-109.3 2.421,19.09 3.355,38.43 -0.918,69.71 -5.864,42.86 -2.246,78 5.23,119.49 9.492,52.66 16.445,78.72 34.707,131.99 22.356,-43.83 22.27,-94.54 27.871,-141.03 10.84,-90.2 -17.383,-197.76 -22.929,-242.6 -1.485,-11.81 0.558,-40.96 1.156,-52.32 -42.199,33.23 -79.746,66.79 -116.137,103.29 -16.59,16.54 -39.351,43.95 -53.926,64.18" /><path
             id="path64"
             style="fill:#ffffff;fill-opacity:1;fill-rule:nonzero;stroke:none"
             d="m 268.098,959.531 c -19.211,13.84 -70.84,53.299 -95.286,84.349 -35.593,45.21 -43.437,64.58 -66.921,116.59 -2.871,6.34 -16.1722,35.78 -17.2465,55.78 76.9295,-92.91 145.8205,-106.74 219.2145,-183.84 26.938,-28.24 54.524,-54.832 69.082,-68.16 11.172,-10.281 25.039,-13.391 25.039,-13.391 0,0 -1.445,19.801 -8.687,33.582 -48.969,93.589 -58.203,191.439 -50.781,296.449 22.351,-27.67 29.402,-46.15 43.593,-72.91 15.426,-29.15 23.29,-47.17 30.504,-65.11 41.899,-104.29 52.793,-224.749 78.696,-285.37 -79.922,26.922 -142.856,41.309 -227.207,102.031" /><path
             id="path66"
             style="fill:#ffffff;fill-opacity:1;fill-rule:nonzero;stroke:none"
             d="m 595.828,713.43 c -21.617,-1.45 -64.004,-1.321 -86.59,2.359 -114.394,18.313 -220.73,101.211 -274.211,192.27 48.496,-29.59 83.559,-49.34 126.211,-64.11 37.981,-13.121 74.004,-17.008 137.414,-35.019 38.262,-10.809 76.145,-26.121 89.453,-31.102 42.415,-15.797 60.286,-11.918 60.286,-11.918 0,0 0,6.449 -15.852,23.731 -31.57,34.461 -43.137,42.699 -69.121,69.187 -8.523,8.75 -28.074,38.481 -37.996,58.25 -28.067,55.883 -31.192,100.672 -56.828,162.062 93.554,-54.94 139.133,-130.749 188.586,-226.32 15.215,-29.269 35.781,-63.082 54.566,-81.66 12.641,-12.469 30.449,-31.422 30.449,-31.422 0,0 -13.047,-3.066 -53.672,-9.066 C 670.305,728 631.477,715.91 595.828,713.43" /><path
             id="path68"
             style="fill:#ffffff;fill-opacity:1;fill-rule:nonzero;stroke:none"
             d="m 1049.31,706.18 c 49.39,-8.078 93.28,-20.078 138.19,-35.489 12.07,-4.152 30.44,-13.281 43.16,-19.73 31.84,-16.199 50.16,-26.723 77.52,-45.531 44.07,-30.352 91.41,-63.051 134.12,-112.668 0.91,-0.981 7.82,-8.364 3.22,-11.961 -8.37,-6.563 -29,-15.903 -35.85,-9.852 -39.08,34.762 -37.11,45.891 -84.47,88.781 -12.15,10.942 -30.49,26.29 -52.41,41.282 -21.37,14.629 -47.21,30.609 -71.22,42.449 -21.82,10.738 -55.42,13.949 -74.28,13.949 l 0.26,-0.14 c -8.58,0.332 -57.84,0.609 -69.25,-0.129 C 961.492,650.5 966.238,641.84 910.422,626.719 864.504,614.23 815.254,605.34 766.355,598.781 c -50.078,-6.812 -94.902,-7.633 -141.851,-2.84 -63.652,6.559 -133.274,24.297 -185.234,57.789 47.507,-0.8 96.296,-9.929 143.562,-6.308 19.895,1.527 52.156,4.527 74.016,11.269 43.418,13.329 68.32,18.528 114.304,31.348 39.512,10.992 79.344,14.801 120.606,19.152 57.097,6.11 109.992,4.731 157.552,-3.011" /><path
             id="path70"
             style="fill:#ffffff;fill-opacity:1;fill-rule:nonzero;stroke:none"
             d="m 1934.51,2295.16 c 23.88,-23.8 31.03,-32.57 44.94,-58.88 8.21,-15.47 18.62,-35.33 21.59,-60.93 -49.1,18.68 -89.08,56.78 -125.27,98.87 -26.77,31.2 -47.49,72.6 -73.87,103.42 46.48,-15.58 95.5,-45.52 132.61,-82.48" /><path
             id="path72"
             style="fill:#ffffff;fill-opacity:1;fill-rule:nonzero;stroke:none"
             d="m 2074.97,2228.25 c -18.51,31.24 -44.99,65.01 -72.44,88.05 12.84,-30.74 31.56,-69.04 33.76,-90.66 6.83,-67.74 20.74,-114.39 31.91,-175.79 -30.49,21.76 -62.71,55.95 -95.06,79.81 -24.94,18.38 -50.01,30.64 -75.7,48.3 -15.31,10.55 -25.26,24.09 -37.98,36.77 15.15,-63.84 71.17,-128.27 111.28,-158.31 50.37,-37.78 68.44,-43.81 149.38,-126.14 10.27,101.66 8.45,207.33 -45.15,297.97" /><path
             id="path74"
             style="fill:#ffffff;fill-opacity:1;fill-rule:nonzero;stroke:none"
             d="m 2240.16,1890.59 c -3.81,52.8 -10.08,95.02 -22.93,146.53 -8.99,35.96 -28.34,89.5 -56.29,111.46 3.45,-13.04 5.22,-32.6 6.56,-45.8 5.52,-54.39 -4.88,-117.56 -6.17,-171.89 -0.62,-26.73 -0.39,-47.32 3.58,-72.43 4.15,-26.32 0.72,-58.61 0.72,-58.61 0,0 -14.42,16.47 -27.33,36.99 -28.09,44.71 -37.11,57.97 -59.84,82.19 -28.11,30.05 -59.6,57.87 -95.14,82.52 4.34,-16.7 22.46,-49.16 29.96,-62.21 10.05,-17.46 14.53,-33.32 38.22,-72.85 33.3,-55.55 48.15,-63.05 85.1,-122.45 8.01,-12.92 40.9,-62.06 48.85,-77.08 17.34,35.86 23.86,67.19 45.12,125.57 13.39,36.67 11.38,73.36 9.59,98.06" /><path
             id="path76"
             style="fill:#ffffff;fill-opacity:1;fill-rule:nonzero;stroke:none"
             d="m 2291.58,1615.92 c 20.08,52.08 29.27,100.39 36.12,155.23 4.16,33.54 2.19,78.27 -9.75,110.51 -3.15,-7.86 -9.53,-27.86 -10.42,-30.85 -8.94,-29.96 -12.64,-44.35 -25.06,-73.25 -9.53,-22.16 -21.24,-39.83 -33.66,-61.73 -11.33,-19.99 -20.88,-46.31 -29.12,-66.45 -26.34,-64.57 -28.29,-125.02 -38.38,-131.62 -7.29,15.54 -9.54,30.42 -10.33,37.75 -7.85,71.45 -17.27,136.39 -107.23,220.6 -8.28,-25.07 -4.08,-71.28 0.84,-96.03 10.8,-54.12 19.53,-80.11 43.32,-132.56 12.6,-27.62 29.42,-68.27 34.06,-81.73 12.01,-35.06 16.17,-53.46 23.83,-74.19 42.44,70.78 94.73,143.87 125.78,224.32" /><path
             id="path78"
             style="fill:#ffffff;fill-opacity:1;fill-rule:nonzero;stroke:none"
             d="m 2221.56,1290.31 c 30.28,42.1 41.26,63.25 60.94,108.07 16.52,37.59 21.26,51.53 30.98,93.63 5.29,22.95 8.26,43.77 4.14,57.34 -23.62,-42.87 -39.87,-90.85 -70.83,-126.41 -24.54,-28.21 -48.24,-52.23 -67.79,-76.04 -29.96,-36.58 -53.64,-71.21 -82.38,-109.3 -2.4,19.09 -3.38,38.43 0.88,69.71 5.9,42.86 2.29,78 -5.2,119.49 -9.49,52.66 -16.44,78.72 -34.7,131.99 -22.33,-43.83 -22.27,-94.54 -27.88,-141.03 -10.86,-90.2 17.43,-197.76 22.98,-242.6 1.44,-11.81 -0.6,-40.96 -1.2,-52.32 42.2,33.23 79.75,66.79 116.14,103.29 16.59,16.54 39.29,43.95 53.92,64.18" /><path
             id="path80"
             style="fill:#ffffff;fill-opacity:1;fill-rule:nonzero;stroke:none"
             d="m 2061.59,959.531 c 19.19,13.84 70.83,53.299 95.27,84.349 35.6,45.21 43.45,64.58 66.93,116.59 2.83,6.34 16.17,35.78 17.25,55.78 -76.94,-92.91 -145.83,-106.74 -219.23,-183.84 -26.93,-28.24 -54.49,-54.832 -69.06,-68.16 -11.17,-10.281 -25.04,-13.391 -25.04,-13.391 0,0 1.43,19.801 8.66,33.582 48.98,93.589 58.23,191.439 50.76,296.449 -22.28,-27.67 -29.38,-46.15 -43.55,-72.91 -15.4,-29.15 -23.29,-47.17 -30.47,-65.11 -41.94,-104.29 -52.89,-224.749 -78.76,-285.37 79.97,26.922 142.88,41.309 227.24,102.031" /><path
             id="path82"
             style="fill:#ffffff;fill-opacity:1;fill-rule:nonzero;stroke:none"
             d="m 1733.85,713.43 c 21.66,-1.45 64,-1.321 86.62,2.359 114.39,18.313 220.69,101.211 274.19,192.27 -48.55,-29.59 -83.61,-49.34 -126.22,-64.11 -38.01,-13.121 -74.01,-17.008 -137.39,-35.019 -38.3,-10.809 -76.17,-26.121 -89.49,-31.102 -42.41,-15.797 -60.27,-11.918 -60.27,-11.918 0,0 0,6.449 15.84,23.731 31.58,34.461 43.16,42.699 69.1,69.187 8.56,8.75 28.11,38.481 38.02,58.25 28.07,55.883 31.2,100.672 56.86,162.062 -93.55,-54.94 -139.22,-130.749 -188.65,-226.32 -15.17,-29.269 -35.74,-63.082 -54.51,-81.66 -12.62,-12.469 -30.47,-31.422 -30.47,-31.422 0,0 13.05,-3.066 53.7,-9.066 18.2,-2.672 57,-14.762 92.67,-17.242" /><path
             id="path84"
             style="fill:#ffffff;fill-opacity:1;fill-rule:nonzero;stroke:none"
             d="m 1280.37,706.18 c -49.38,-8.078 -93.23,-20.078 -138.18,-35.489 -12.12,-4.152 -30.46,-13.281 -43.18,-19.73 -31.83,-16.199 -50.11,-26.723 -77.51,-45.531 -44.105,-30.352 -91.371,-63.051 -134.129,-112.668 -0.918,-0.981 -7.851,-8.364 -3.223,-11.961 8.403,-6.563 29.028,-15.903 35.825,-9.852 39.097,34.762 37.105,45.891 84.517,88.781 12.1,10.942 30.44,26.29 52.39,41.282 21.42,14.629 47.19,30.609 71.22,42.449 21.79,10.738 55.45,13.949 74.28,13.949 l -0.27,-0.14 c 8.59,0.332 57.83,0.609 69.27,-0.129 96.82,-6.641 92.06,-15.301 147.85,-30.422 45.94,-12.489 95.18,-21.379 144.08,-27.938 50.06,-6.812 94.91,-7.633 141.86,-2.84 63.66,6.559 133.26,24.297 185.2,57.789 -47.48,-0.8 -96.24,-9.929 -143.55,-6.308 -19.91,1.527 -52.13,4.527 -73.99,11.269 -43.42,13.329 -68.35,18.528 -114.29,31.348 -39.53,10.992 -79.36,14.801 -120.6,19.152 -57.13,6.11 -110.01,4.731 -157.57,-3.011" /><path
             id="path86"
             style="fill:#ffffff;fill-opacity:1;fill-rule:nonzero;stroke:none"
             d="m 1103.64,2834.64 -86.95,-322.87 h -92.315 l -57.742,210.33 -56.445,-210.33 h -92.09 l -86.953,322.87 h 86.914 l 49.531,-222.26 59.578,222.26 h 83.059 l 56.519,-222.26 52.014,222.26 h 84.88" /><path
             id="path88"
             style="fill:#ffffff;fill-opacity:1;fill-rule:nonzero;stroke:none"
             d="m 1390.51,2772.2 h -148.54 v -60.08 h 137.7 v -62.44 h -137.7 v -137.91 h -82.82 v 322.87 h 231.36 v -62.44" /><path
             id="path90"
             style="fill:#ffffff;fill-opacity:1;fill-rule:nonzero;stroke:none"
             d="m 1628.38,2730.88 c 0,9.08 -2.46,16.9 -7.36,23.46 -4.93,6.57 -10.63,11.14 -17.13,13.74 -8.68,3.46 -17.13,5.37 -25.37,5.74 -8.25,0.35 -19.24,0.54 -32.97,0.54 h -14.31 v -96.5 h 23.85 c 14.17,0 25.84,0.87 35.03,2.6 9.18,1.73 16.87,5.2 23.08,10.39 5.35,4.6 9.22,10.13 11.6,16.55 2.39,6.41 3.58,14.24 3.58,23.48 z m 86.09,1.85 c 0,-14.46 -2.54,-28.59 -7.59,-42.4 -5.06,-13.81 -12.29,-25.41 -21.68,-34.79 -12.88,-12.74 -27.22,-22.34 -43.05,-28.85 -15.82,-6.51 -35.53,-9.76 -59.08,-9.76 h -51.83 v -105.16 h -83.27 v 322.87 h 137.05 c 20.53,0 37.83,-1.77 51.92,-5.31 14.1,-3.55 26.58,-8.85 37.42,-15.94 13,-8.53 22.94,-19.44 29.81,-32.75 6.87,-13.3 10.3,-29.26 10.3,-47.91" /><path
             id="path92"
             style="fill:#ffffff;fill-opacity:1;fill-rule:nonzero;stroke:none"
             d="M 499.309,257.871 441.262,70.5508 H 377.52 L 339.348,196.82 301.648,70.5508 H 237.266 L 179.719,257.871 h 62.984 l 32.16,-129.09 39.973,129.09 h 53.199 l 38,-129.09 31.633,129.09 h 61.641" /><path
             id="path94"
             style="fill:#ffffff;fill-opacity:1;fill-rule:nonzero;stroke:none"
             d="m 649.773,286.059 h -4.492 c -2.664,0.781 -6.133,1.671 -10.398,2.671 -4.27,0.989 -8.836,1.5 -13.723,1.5 -11.758,0 -19.707,-2.109 -23.863,-6.339 -4.16,-4.231 -6.235,-12.403 -6.235,-24.52 v -1.5 h 46.196 V 217.168 H 593.059 V 70.5508 H 532.844 V 217.168 h -25.688 v 40.703 h 25.688 v 5.168 c 0,22.902 6.094,40.082 18.261,51.551 12.188,11.449 30.606,17.172 55.29,17.172 8.91,0 16.964,-0.301 24.191,-0.91 7.226,-0.614 13.625,-1.422 19.187,-2.422 v -42.371" /><path
             id="path96"
             style="fill:#ffffff;fill-opacity:1;fill-rule:nonzero;stroke:none"
             d="m 789.148,165.539 c 0,18.211 -3.101,31.43 -9.312,39.641 -6.215,8.211 -16.035,12.332 -29.465,12.332 -5.652,0 -11.484,-0.871 -17.473,-2.59 -5.996,-1.711 -11.699,-4.184 -17.144,-7.402 v -94.102 c 3.992,-1.559 8.269,-2.547 12.82,-2.996 4.539,-0.442 9.031,-0.672 13.477,-0.672 15.871,0 27.683,4.641 35.449,13.91 7.766,9.27 11.648,23.231 11.648,41.879 z m 61.875,1.262 c 0,-15.461 -2.363,-29.52 -7.07,-42.199 -4.723,-12.68 -10.918,-23.133 -18.57,-31.352 -8,-8.6719 -17.055,-15.25 -27.16,-19.6914 -10.11,-4.4492 -20.938,-6.668 -32.493,-6.668 -10.664,0 -19.714,1.1406 -27.144,3.418 -7.441,2.2695 -15.063,5.4805 -22.832,9.582 V 1.82812 H 655.535 V 257.871 h 60.219 v -19.512 c 9.219,7.332 18.633,13.282 28.238,17.852 9.613,4.559 20.688,6.828 33.242,6.828 23.325,0 41.45,-8.559 54.387,-25.68 12.941,-17.129 19.402,-40.64 19.402,-70.558" /><path
             id="path98"
             style="fill:#ffffff;fill-opacity:1;fill-rule:nonzero;stroke:none"
             d="m 879.48,70.5508 h 62.3945 v 65.5586 H 879.48 Z" /><path
             id="path100"
             style="fill:#ffffff;fill-opacity:1;fill-rule:nonzero;stroke:none"
             d="m 1101.28,118.602 c 3.89,4.777 6.8,10.539 8.75,17.257 1.93,6.719 2.91,16.039 2.91,27.942 0,11 -1,20.23 -2.99,27.679 -2.01,7.45 -4.78,13.399 -8.34,17.848 -3.57,4.563 -7.85,7.793 -12.85,9.684 -5,1.879 -10.4,2.828 -16.18,2.828 -5.78,0 -10.93,-0.781 -15.43,-2.328 -4.5,-1.551 -8.82,-4.68 -12.92,-9.352 -3.67,-4.32 -6.59,-10.269 -8.77,-17.84 -2.17,-7.558 -3.24,-17.07 -3.24,-28.519 0,-10.242 0.93,-19.11 2.83,-26.61 1.89,-7.511 4.67,-13.531 8.34,-18.101 3.55,-4.328 7.81,-7.488 12.76,-9.5 4.94,-2.012 10.59,-3 16.93,-3 5.45,0 10.65,0.91 15.6,2.75 4.94,1.832 9.14,4.91 12.6,9.262 z m 73.88,45.539 c 0,-30.813 -8.99,-55.082 -26.94,-72.8207 -17.97,-17.7305 -43.17,-26.6015 -75.64,-26.6015 -32.47,0 -57.69,8.871 -75.646,26.6015 -17.957,17.7387 -26.946,42.0077 -26.946,72.8207 0,31.007 9.043,55.371 27.114,73.039 18.068,17.691 43.218,26.539 75.478,26.539 32.7,0 57.96,-8.899 75.8,-26.699 17.85,-17.79 26.78,-42.079 26.78,-72.879" /><path
             id="path102"
             style="fill:#ffffff;fill-opacity:1;fill-rule:nonzero;stroke:none"
             d="m 1336.89,200.66 h -5.33 c -2.56,0.891 -6.66,1.559 -12.32,2 -5.66,0.442 -10.37,0.668 -14.14,0.668 -8.55,0 -16.09,-0.558 -22.64,-1.668 -6.54,-1.121 -13.59,-3 -21.13,-5.672 V 70.5508 h -60.22 V 257.871 h 60.22 v -27.519 c 13.2,11.347 24.69,18.867 34.44,22.609 9.77,3.719 18.76,5.578 26.96,5.578 2.11,0 4.5,-0.059 7.17,-0.16 2.66,-0.117 4.99,-0.289 6.99,-0.508 V 200.66" /><path
             id="path104"
             style="fill:#ffffff;fill-opacity:1;fill-rule:nonzero;stroke:none"
             d="m 1475.76,129.609 v 84.903 c -3.44,1.429 -7.65,2.578 -12.65,3.41 -4.99,0.84 -9.49,1.258 -13.48,1.258 -15.76,0 -27.58,-4.539 -35.45,-13.61 -7.87,-9.05 -11.82,-21.699 -11.82,-37.941 0,-18 3.36,-30.57 10.08,-37.688 6.7,-7.121 16.66,-10.691 29.86,-10.691 6,0 11.88,0.949 17.64,2.852 5.77,1.878 11.06,4.378 15.82,7.507 z m 60.22,-37.5387 c 0,-17.5586 -2.5,-32.3594 -7.51,-44.3594 -5.01,-12.0195 -12.01,-21.4101 -21.03,-28.1914 -9,-6.9101 -19.86,-11.87888 -32.6,-14.92966 C 1462.11,1.53125 1447.73,0 1431.72,0 1418.71,0 1405.9,0.78125 1393.28,2.33984 1380.65,3.89062 1369.73,5.78906 1360.5,8 v 46.8789 h 7.33 c 7.33,-2.8906 16.26,-5.5273 26.82,-7.918 10.55,-2.3906 19.98,-3.5898 28.31,-3.5898 11.1,0 20.13,1.0273 27.07,3.0781 6.94,2.0625 12.24,4.9805 15.9,8.7617 3.45,3.5703 5.95,8.1172 7.49,13.668 1.56,5.5703 2.34,12.2422 2.34,20.0195 v 3.5118 c -7.22,-5.8985 -15.21,-10.5704 -23.99,-14.0118 -8.77,-3.4492 -18.55,-5.1679 -29.32,-5.1679 -26.22,0 -46.43,7.8906 -60.64,23.6914 -14.22,15.7771 -21.32,39.7971 -21.32,72.0471 0,15.453 2.17,28.801 6.49,40.031 4.33,11.23 10.44,21.02 18.32,29.359 7.34,7.782 16.36,13.84 27.07,18.172 10.72,4.348 21.69,6.508 32.91,6.508 10.11,0 19.3,-1.187 27.57,-3.578 8.27,-2.402 15.8,-5.691 22.58,-9.93 l 2.17,8.34 h 58.38 V 92.0703" /><path
             id="path106"
             style="fill:#ffffff;fill-opacity:1;fill-rule:nonzero;stroke:none"
             d="M 1751.25,330.102 1618.96,16.5117 h -51.19 l 131.74,313.5903 h 51.74" /><path
             id="path108"
             style="fill:#ffffff;fill-opacity:1;fill-rule:nonzero;stroke:none"
             d="m 1871.26,65.5703 c -16.28,0 -31.15,1.9414 -44.61,5.8086 -13.46,3.8828 -25.17,9.8594 -35.14,17.9414 -9.86,8.0899 -17.5,18.2817 -22.93,30.5777 -5.43,12.293 -8.14,26.692 -8.14,43.192 0,17.39 2.91,32.398 8.73,45.031 5.82,12.629 13.93,23.09 24.34,31.399 10.07,7.859 21.7,13.621 34.89,17.269 13.17,3.672 26.85,5.492 41.03,5.492 12.74,0 24.49,-1.39 35.23,-4.152 10.74,-2.77 20.76,-6.379 30.07,-10.797 V 196.32 h -8.46 c -2.32,2 -5.12,4.321 -8.39,6.981 -3.26,2.66 -7.26,5.258 -12.02,7.808 -4.53,2.43 -9.51,4.45 -14.93,6.059 -5.41,1.613 -11.72,2.422 -18.91,2.422 -15.94,0 -28.18,-5.07 -36.75,-15.211 -8.57,-10.141 -12.86,-23.899 -12.86,-41.289 0,-17.942 4.4,-31.559 13.2,-40.871 8.78,-9.297 21.26,-13.949 37.41,-13.949 7.52,0 14.29,0.859 20.31,2.582 6.04,1.707 11.04,3.726 15.02,6.058 3.76,2.211 7.07,4.539 9.96,6.969 2.87,2.43 5.53,4.832 7.96,7.152 h 8.46 V 80.0312 c -9.42,-4.4414 -19.25,-7.9531 -29.49,-10.5624 -10.25,-2.5977 -21.58,-3.8985 -33.98,-3.8985" /><path
             id="path110"
             style="fill:#ffffff;fill-opacity:1;fill-rule:nonzero;stroke:none"
             d="m 2144.66,70.5508 h -59.97 V 163.09 c 0,7.531 -0.39,15.039 -1.16,22.512 -0.79,7.476 -2.11,12.988 -3.99,16.539 -2.23,4.097 -5.46,7.078 -9.73,8.968 -4.25,1.879 -10.21,2.821 -17.85,2.821 -5.43,0 -10.93,-0.891 -16.53,-2.649 -5.6,-1.781 -11.66,-4.601 -18.19,-8.48 V 70.5508 h -59.98 V 257.129 h 59.98 v -20.598 c 10.61,8.309 20.82,14.68 30.6,19.098 9.8,4.43 20.67,6.652 32.61,6.652 20.13,0 35.87,-5.871 47.21,-17.613 11.33,-11.738 17,-29.297 17,-52.668 V 70.5508" /><path
             id="path112"
             style="fill:#ffffff;fill-opacity:1;fill-rule:nonzero;stroke:none"
             d="m 2934.76,1526.38 h -100.05 v -144.24 h 100.05 z m 50.94,47.27 c 54.83,0.81 98.21,2.66 130.12,5.52 v -58.31 c -31.91,2.86 -75.29,4.7 -130.12,5.52 v -193.35 c -25.78,2.46 -61.69,3.69 -107.72,3.69 -46.04,0 -77.44,-1.23 -94.22,-3.69 v 193.35 h -87.77 v -262.7 h 251.04 c 51.55,0 90.43,1.42 116.62,4.29 v -55.24 c -31.91,2.46 -70.39,3.68 -115.39,3.68 h -308.75 c 3.69,26.19 5.53,56.88 5.53,92.07 v 217.29 c -29.87,-0.82 -58.93,-2.45 -87.16,-4.91 v 58.31 c 28.23,-2.45 57.29,-4.1 87.16,-4.91 0,60.55 -1.64,104.35 -4.91,131.35 14.32,-1.64 29.66,-2.45 46.03,-2.45 l 19.65,0.62 c 4.49,0 6.75,-1.45 6.75,-4.3 0,-2.87 -2.77,-6.14 -8.29,-9.83 -5.52,-3.68 -8.28,-11.66 -8.28,-23.93 v -92.07 h 87.77 c 0,92.07 -2.26,146.08 -6.75,162.04 14.32,-1.64 29.66,-2.45 46.03,-2.45 l 20.88,0.6 c 6.53,0 9.81,-1.64 9.81,-4.9 0,-3.28 -3.17,-6.25 -9.51,-8.9 -6.35,-2.67 -9.51,-8.5 -9.51,-17.49 v -128.9 h 100.05 c 0,90.43 -1.45,143.02 -4.3,157.74 13.91,-1.64 25.87,-2.45 35.91,-2.45 10.02,0 16.97,0.2 20.87,0.61 3.87,0.41 6.02,0.61 6.44,0.61 4.08,0 6.13,-1.43 6.13,-4.29 0,-2.87 -1.74,-5.83 -5.21,-8.9 -3.49,-3.07 -5.83,-6.05 -7.06,-8.9 -1.23,-2.87 -1.84,-7.37 -1.84,-13.5 v -120.92" /><path
             id="path114"
             style="fill:#ffffff;fill-opacity:1;fill-rule:nonzero;stroke:none"
             d="m 3603.8,1507.97 v 66.29 h -124.61 v -66.29 z m 0,106.8 v 64.45 h -124.61 v -64.45 z m -173.71,-106.8 v 66.29 h -122.15 v -66.29 z m 0,106.8 v 64.45 h -122.15 v -64.45 z m -20.87,-147.31 c -18.41,-21.28 -38.88,-40.92 -61.38,-58.93 11.45,-1.64 27.62,-2.45 48.49,-2.45 5.72,0 8.59,-0.72 8.59,-2.15 0,-1.43 -1.23,-3.17 -3.68,-5.21 -5.32,-4.1 -9.21,-24.15 -11.66,-60.16 -2.46,-36.01 -14.23,-66.4 -35.29,-91.15 -21.09,-24.75 -53.71,-46.34 -97.9,-64.76 -10.24,21.7 -23.54,37.66 -39.91,47.88 57.29,16.37 92.99,35.6 107.11,57.7 14.12,22.1 21.38,61.58 21.79,118.47 -27.83,-22.51 -70.38,-47.27 -127.67,-74.28 -9.82,17.19 -21.89,31.09 -36.21,41.74 64.24,20.05 123.16,51.15 176.77,93.3 -37.64,0.82 -71.81,0 -102.5,-2.45 2.04,29.04 3.07,69.66 3.07,121.83 0,52.18 -1.03,97.7 -3.07,136.57 37.64,-2.05 108.33,-3.06 212.07,-3.06 103.73,0 166.44,1.01 188.13,3.06 -2.05,-38.46 -3.07,-84.19 -3.07,-137.18 0,-53 1.02,-93.4 3.07,-121.22 -30.7,1.63 -68.96,2.45 -114.78,2.45 37.23,-38.47 98.82,-61.59 184.75,-69.36 -11.46,-16.79 -20.05,-37.44 -25.78,-61.99 -39.28,9.81 -78.77,27.62 -118.46,53.4 -3.28,-4.1 -4.91,-15.35 -4.91,-33.76 v -83.48 c 0,-27.41 2.04,-56.87 6.14,-88.39 h -62.61 c 3.68,30.7 5.52,60.16 5.52,88.39 v 59.54 c 0,29.87 -1.84,54.83 -5.52,74.89 14.73,-2.47 28.43,-3.9 41.13,-4.3 -29.47,22.09 -51.98,43.78 -67.52,65.06 h -84.71" /><path
             id="path116"
             style="fill:#ffffff;fill-opacity:1;fill-rule:nonzero;stroke:none"
             d="m 4205.93,1700.7 -55.24,-25.17 c -6.14,22.5 -15.55,43.79 -28.24,63.84 l 53.41,19.64 c 11.44,-18.82 21.47,-38.26 30.07,-58.31 z m 46.03,-222.19 v 59.53 h -165.72 v -59.53 z m 0,97.59 v 55.24 h -165.72 v -55.24 z m -32.53,-225.88 c 35.61,37.24 53.4,58.93 53.4,65.07 15.14,-13.92 31.31,-24.97 48.5,-33.15 3.27,-1.64 4.91,-3.48 4.91,-5.52 0,-2.05 -2.36,-3.07 -7.06,-3.07 -4.71,0 -10.96,-2.66 -18.72,-7.98 -7.78,-5.33 -26.19,-20.26 -55.25,-44.81 30.7,-29.05 62,-48.09 93.91,-57.08 -14.33,-13.91 -25.16,-32.12 -32.53,-54.63 -42.56,22.92 -78.16,54.63 -106.8,95.14 -28.65,40.51 -45.01,85.51 -49.1,135.03 h -64.45 V 1273.5 c 20.87,14.73 41.12,31.51 60.76,50.33 l 15.97,-45.43 -62.61,-49.71 c -18.02,-14.32 -31.31,-27.62 -39.9,-39.89 -8.19,13.91 -21.28,27.21 -39.28,39.89 6.95,5.74 11.86,12.27 14.73,19.65 2.86,7.36 4.3,22.29 4.3,44.8 v 326.54 c 0,20.04 -0.62,39.28 -1.85,57.7 28.64,-3.68 71.71,-5.53 129.21,-5.53 57.49,0 100.97,1.85 130.43,5.53 -0.82,-11.47 -1.22,-30.69 -1.22,-57.7 v -111.1 c 0,-32.74 0.4,-56.46 1.22,-71.2 -14.73,1.23 -50.95,1.84 -108.64,1.84 4.09,-32.33 14.12,-61.99 30.07,-89 z m -251.66,342.5 c 9.42,-2.45 18.82,-3.79 28.25,-3.98 9.4,-0.22 16.57,-0.32 21.47,-0.32 4.91,0 7.37,-0.91 7.37,-2.76 0,-1.84 -1.84,-3.98 -5.52,-6.44 -3.69,-2.46 -6.86,-9.31 -9.52,-20.56 -2.66,-11.26 -6.66,-36.12 -11.97,-74.58 -11.87,4.09 -26.6,6.14 -44.19,6.14 11.45,35.19 16.16,69.36 14.11,102.5 z m 62,-303.21 -44.19,-23.94 c -12.28,30.69 -26.2,56.67 -41.74,77.95 l 34.99,21.49 c 15.96,-22.1 32.93,-47.27 50.94,-75.5 z m -169.41,198.25 -41.74,-3.07 c 0,33.15 -2.25,64.24 -6.74,93.3 l 42.95,3.69 c 3.69,-33.98 5.53,-65.28 5.53,-93.92 z m 20.87,-79.18 c -33.96,0 -61.8,-0.82 -83.48,-2.45 v 45.42 c 29.06,-2.05 59.33,-3.07 90.84,-3.07 v 113.56 c 0,41.74 -1.22,69.14 -3.68,82.24 13.51,-2.05 26.59,-3.06 39.29,-3.06 l 15.96,0.6 c 6.13,0 9.21,-1.33 9.21,-3.98 0,-2.67 -2.06,-5.64 -6.15,-8.9 -6.55,-5.32 -9.81,-13.31 -9.81,-23.94 v -156.52 c 31.5,0 59.73,1.02 84.7,3.07 v -45.42 c -17.6,1.63 -45.83,2.45 -84.7,2.45 v -213.6 c 0,-37.65 1.63,-70.37 4.9,-98.21 h -54.01 c 2.86,24.15 4.29,56.88 4.29,98.21 v 141.18 c -19.63,-52.79 -43.57,-102.31 -71.81,-148.55 -6.14,16.78 -16.78,33.76 -31.92,50.95 41.33,43.78 73.45,100.45 96.37,170.02" /><path
             id="path118"
             style="fill:#ffffff;fill-opacity:1;fill-rule:nonzero;stroke:none"
             d="m 4704.95,1596.35 -65.67,-13.49 c -2.06,16.36 -6.97,32.12 -14.74,47.25 l 65.67,14.74 c 6.15,-22.1 11.06,-38.27 14.74,-48.5 z m 60.15,-301.98 c 40.92,26.59 73.44,49.72 97.6,69.36 8.99,-11.88 20.04,-21.69 33.14,-29.47 2.86,-1.64 4.3,-3.17 4.3,-4.6 0,-1.44 -1.84,-2.56 -5.53,-3.37 -9.82,-2.06 -37.85,-19.04 -84.08,-50.95 42.55,-18.83 73.65,-33.15 93.29,-42.97 l -31.92,-41.74 c -62.2,36.43 -149.36,76.32 -261.48,119.7 l 33.14,31.91 c 61.79,-24.15 102.3,-40.1 121.54,-47.87 z m 27.01,104.95 v 50.95 h -246.75 v -50.95 z m 0,86.56 v 47.25 h -246.75 v -47.25 z m -118.47,220.35 c -39.69,-49.51 -83.88,-93.51 -132.58,-131.97 33.55,-1.64 76.42,-2.46 128.6,-2.46 52.17,0 99.73,1.02 142.7,3.07 -65.48,42.15 -111.71,85.94 -138.72,131.36 z m -174.93,-163.89 c -23.32,-15.56 -46.44,-29.05 -69.35,-40.51 -9.43,13.09 -22.72,25.57 -39.91,37.44 53.2,20.46 105.06,54.42 155.61,101.9 50.53,47.46 81.93,88.58 94.22,123.37 19.64,-8.6 42.75,-15.96 69.35,-22.1 5.73,-1.22 8.6,-3.37 8.6,-6.45 0,-3.06 -3.9,-5.42 -11.66,-7.05 18.4,-32.74 54.41,-65.07 108.02,-96.98 53.61,-31.92 102.91,-49.93 147.92,-54.01 -17.17,-14.34 -28.23,-33.98 -33.14,-58.93 -25.77,8.59 -53.81,21.06 -84.09,37.44 -0.82,-6.96 -1.22,-19.64 -1.22,-38.06 v -101.27 c 0,-18.83 1.42,-38.06 4.29,-57.7 -7.37,1.23 -69.36,1.85 -185.98,1.85 H 4545.36 V 1251.4 c 56.88,9.83 95.75,17.81 116.62,23.94 -4.09,-11.88 -6.13,-21.28 -6.13,-28.23 0,-6.96 0.61,-12.28 1.84,-15.96 l -76.73,-15.96 c -38.88,-7.77 -66.29,-18.01 -82.25,-30.69 -6.13,20.87 -12.68,36.82 -19.64,47.87 13.09,7.78 19.64,30.9 19.64,69.36 v 240.61" /><path
             id="path120"
             style="fill:#ffffff;fill-opacity:1;fill-rule:nonzero;stroke:none"
             d="m 5474.72,1560.88 c 58.1,0.4 105.78,2.24 143.01,5.52 v -61.38 c -47.87,3.27 -95.54,4.91 -143.01,4.91 v -217.9 c 0,-34.37 1.84,-71.2 5.52,-110.48 h -68.13 c 3.68,37.65 5.53,74.47 5.53,110.48 v 218.51 c -68.34,-0.41 -123.18,-2.25 -164.51,-5.52 v 61.38 c 42.15,-3.28 96.99,-5.12 164.51,-5.52 v 93.91 c 0,43.78 -2.26,75.08 -6.75,93.91 10.22,-2.05 20.04,-3.48 29.46,-4.3 9.41,-0.82 17.38,-1.23 23.94,-1.23 l 17.18,0.62 c 6.96,0 10.43,-1.33 10.43,-3.99 0,-2.66 -2.25,-5.32 -6.74,-7.98 -4.52,-2.66 -7.37,-6.96 -8.6,-12.89 -1.23,-5.94 -1.84,-17.09 -1.84,-33.46 z m -244.29,80.41 -55.24,-31.93 c -14.33,33.97 -34.58,68.54 -60.77,103.74 l 51.56,28.85 c 20.87,-37.25 42.35,-70.8 64.45,-100.66 z m 56.46,-310.59 -71.2,-70.59 c -17.59,-16.77 -36,-39.48 -55.23,-68.13 -14.34,20.47 -28.65,37.24 -42.97,50.33 7.36,8.59 12.68,17.59 15.96,27.01 3.27,9.41 4.91,21.89 4.91,37.44 v 199.49 c -33.98,0 -61.99,-1.44 -84.09,-4.3 v 59.54 c 19.23,-2.87 42.14,-4.3 68.75,-4.3 26.59,0 51.76,1.43 75.49,4.3 -5.33,-23.33 -7.98,-49.93 -7.98,-79.79 v -179.23 c 30.69,31.5 54.63,60.55 71.81,87.16 5.73,-22.92 13.91,-42.56 24.55,-58.93" /><path
             id="path122"
             style="fill:#ffffff;fill-opacity:1;fill-rule:nonzero;stroke:none"
             d="m 6130.25,1731.51 c 6.96,-1.64 14.43,-2.86 22.42,-3.68 7.97,-0.82 14.82,-1.23 20.55,-1.23 l 15.96,0.61 c 5.31,0 7.98,-0.91 7.98,-2.76 0,-1.84 -1.95,-4.9 -5.83,-9.2 -3.89,-4.3 -5.83,-10.13 -5.83,-17.5 v -440.7 c 0,-16.78 -1.95,-29.16 -5.83,-37.14 -3.9,-7.98 -12.58,-14.43 -26.09,-19.34 -13.5,-4.91 -35.6,-9.4 -66.29,-13.49 -2.87,27 -13.3,48.7 -31.3,65.06 19.22,-2.06 34.67,-3.07 46.34,-3.07 11.66,0 20.26,1.42 25.78,4.3 5.52,2.85 8.29,9.4 8.29,19.63 v 359.69 c 0,52.37 -2.05,85.31 -6.15,98.82 z m -101.27,-68.12 c 13.5,-4.11 31.92,-6.15 55.24,-6.15 5.31,0 7.98,-1.43 7.98,-4.29 0,-2.88 -1.84,-5.43 -5.52,-7.68 -3.68,-2.25 -5.53,-7.67 -5.53,-16.26 v -242.45 c 0,-28.65 1.23,-54.01 3.68,-76.11 h -54.62 c 2.46,23.73 3.68,49.1 3.68,76.11 v 208.69 c 0,29.05 -1.63,51.76 -4.91,68.14 z m -68.13,-20.27 -50.33,-27.62 c -13.11,27.42 -29.68,52.38 -49.72,74.89 l 47.87,23.93 c 17.19,-28.23 34.58,-51.97 52.18,-71.2 z M 5850.98,1397.6 c 38.87,41.33 65.47,80.62 79.79,117.86 19.64,-14.74 35.19,-23.54 46.65,-26.4 4.91,-1.22 7.37,-2.86 7.37,-4.91 0,-2.05 -1.44,-4.09 -4.3,-6.14 -8.19,-5.32 -19.03,-18.52 -32.53,-39.59 -13.51,-21.08 -38.67,-50.44 -75.5,-88.08 20.46,-31.92 36.92,-55.55 49.42,-70.89 12.47,-15.34 21.78,-23.02 27.92,-23.02 6.14,0 10.64,5.11 13.5,15.34 2.86,10.23 4.71,26.4 5.53,48.5 11.04,-21.29 27.41,-35.21 49.1,-41.74 -6.13,-27.01 -12.69,-47.26 -19.64,-60.77 -6.96,-13.51 -15.76,-20.25 -26.4,-20.25 -23.73,0 -45.83,10.23 -66.28,30.69 -20.47,20.45 -42.36,50.33 -65.68,89.61 -39.29,-38.88 -78.16,-69.57 -116.62,-92.07 -11.46,18.01 -28.04,31.5 -49.72,40.52 44.59,13.49 92.47,45.61 143.63,96.36 -19.64,46.23 -32.94,97.8 -39.9,154.67 -29.87,-5.73 -57.5,-12.68 -82.86,-20.87 l -12.27,54.03 c 24.95,1.63 55.23,5.31 90.84,11.04 -4.09,50.33 -7.58,111.5 -10.44,183.53 12.68,-2.88 28.24,-4.3 46.65,-4.3 l 20.87,0.61 c 4.09,0 6.14,-0.91 6.14,-2.76 0,-1.85 -2.46,-5.62 -7.37,-11.36 -7.37,-9.41 -11.05,-28.64 -11.05,-57.69 0,-29.06 1.02,-62.4 3.07,-100.05 l 97.6,16.57 c 29.46,4.5 55.86,10.84 79.18,19.02 l 11.04,-52.16 c -36.42,-3.28 -64.24,-6.56 -83.48,-9.83 l -100.65,-17.18 c 5.31,-49.52 14.11,-92.28 26.39,-128.29" /><path
             id="path124"
             style="fill:#ffffff;fill-opacity:1;fill-rule:nonzero;stroke:none"
             d="m 6735.46,1624.1 v 58.92 h -87.16 v -58.92 z m -127.67,0 v 58.92 h -82.86 v -58.92 z m 96.37,-338.21 h -243.07 v -40.5 h 243.07 z m -243.07,33.15 h 243.07 v 33.14 h -243.07 z m 23.33,305.06 v 58.92 h -85.93 v -58.92 z m 302.6,-39.29 c -65.06,3.68 -138.01,5.53 -218.82,5.53 -80.82,0 -153.76,-1.85 -218.82,-5.53 3.69,20.46 5.52,43.89 5.52,70.28 0,26.4 -1.83,49.2 -5.52,68.44 56.06,-3.68 129.41,-5.53 220.05,-5.53 90.63,0 163.17,1.85 217.59,5.53 -4.09,-17.19 -6.13,-40.41 -6.13,-69.67 0,-29.25 2.04,-52.27 6.13,-69.05 z m -231.4,-155.29 c -123.59,-0.82 -208.29,-2.67 -254.12,-5.52 v 46.65 c 58.93,-4.1 133.2,-6.14 222.82,-6.14 v 44.2 c -69.16,0 -119.5,-1.45 -151,-4.3 v 42.34 c 37.65,-3.27 87.77,-4.9 150.38,-4.9 0,13.91 -1.02,25.77 -3.07,35.6 15.55,-2.05 33.15,-3.07 52.79,-3.07 5.73,0 8.59,-0.83 8.59,-2.46 0,-1.64 -2.05,-3.48 -6.13,-5.52 -4.1,-2.87 -6.55,-11.05 -7.37,-24.55 42.55,0.4 74.67,2.04 96.36,4.9 v -42.95 c -28.64,2.85 -60.76,4.49 -96.36,4.91 v -44.2 h 54.62 c 52.38,31.5 94.94,66.49 127.68,104.96 11.87,-13.11 25.36,-23.32 40.51,-30.69 4.08,-2.06 6.14,-3.89 6.14,-5.52 0,-1.64 -2.87,-2.87 -8.59,-3.68 -7.79,-1.64 -41.74,-23.33 -101.9,-65.07 56.06,0.82 106.19,2.86 150.38,6.14 V 1424 c -48.29,3.27 -116,5.11 -203.16,5.52 -22.51,-12.28 -53,-26.39 -91.46,-42.35 h 109.25 c 50.33,0 85.94,1.43 106.81,4.3 -2.87,-9.82 -4.3,-25.78 -4.3,-47.88 v -87.77 c 0,-27.01 1.43,-50.54 4.3,-70.59 h -54.63 v 27.62 h -243.07 v -27.62 h -51.56 c 3.69,22.1 5.53,45.64 5.53,70.59 v 84.7 c -32.33,-10.64 -65.06,-20.25 -98.2,-28.84 -5.33,15.54 -13.51,30.68 -24.57,45.42 39.69,4.49 79.59,11.86 119.7,22.1 l -1.84,12.27 c 14.73,-1.64 26.39,-2.66 34.99,-3.08 36.41,10.64 73.24,24.35 110.48,41.13" /></g></g></g></g></svg>