<svg width="284" height="58" xmlns="http://www.w3.org/2000/svg"><path d="M35.934 4.664h.548c.511 0 .895-.101 1.149-.304.254-.202.381-.497.381-.883 0-.39-.107-.678-.319-.865-.214-.186-.547-.28-1.002-.28h-.757v2.332zm3.76-1.246c0 .845-.265 1.491-.793 1.938-.528.449-1.279.672-2.253.672h-.714v2.793h-1.665V.969h2.508c.952 0 1.676.204 2.173.615.496.41.744 1.021.744 1.834zm-9.537 5.403h-1.638V.969h4.501v1.363h-2.863v2.026h2.664v1.359h-2.664v3.104zm-4.525 0h-1.896l-1.063-4.125c-.04-.147-.107-.45-.202-.91-.095-.461-.149-.77-.164-.927-.021.194-.075.505-.16.932-.087.428-.153.734-.199.916l-1.059 4.114h-1.89L16.995.969h1.639l1.004 4.285c.176.792.303 1.478.381 2.058.022-.204.071-.52.148-.948.077-.429.15-.761.218-.996L21.529.969h1.573l1.144 4.399a23.19 23.19 0 0 1 .36 1.944c.036-.28.094-.628.172-1.045.079-.417.15-.754.215-1.013l.999-4.285h1.638l-1.998 7.852zM21.56 36.134c-3.052 0-5.01.724-5.545.949-.031.014-.057-.031-.032-.056 3.352-3.485 7.277-3.293 8.222-3.293h11.161c.563 0 1.019.537 1.019 1.201 0 .662-.456 1.199-1.019 1.199H21.56zm2.514 3.085c-3.288 0-4.246-1.868-9.222-.635-.034.009-.057-.038-.028-.058 2.774-1.903 5.791-1.73 7.011-1.73h13.531c.563 0 1.019.537 1.019 1.199s-.456 1.199-1.019 1.199c0 0-8.689.025-11.292.025zm.233 3.037c-3.374 0-3.644-2.49-8.646-3.051-.035-.004-.039-.056-.005-.064 4.109-1.028 5.638.715 8.037.715h11.673c.563 0 1.019.537 1.019 1.2 0 .663-.456 1.2-1.019 1.2H24.307zm-.732-9.183c-2.716 0-4.968 1.185-5.495 1.484-.029.016-.059-.019-.04-.046.441-.649 2.82-3.837 6.91-3.837h10.416c.563 0 1.019.537 1.019 1.2 0 .662-.456 1.199-1.019 1.199H23.575zm14.941-6.625a.753.753 0 0 0-.443-.205.743.743 0 0 0-.363.043 1.02 1.02 0 0 0 .102-.33.85.85 0 0 0-.083-.512c-.336-.736.624-2.209.504-2.275-.116-.064-.662 1.56-1.192 2.216a.925.925 0 0 0-.199.489.915.915 0 0 0 .086.513c.074.132.186.226.318.234a.295.295 0 0 0 .107-.006.266.266 0 0 0-.018.059.453.453 0 0 0 .142.388.72.72 0 0 0 .441.207.77.77 0 0 0 .493-.093c.719-.393 2.21-.781 2.178-.919-.029-.138-1.483.715-2.073.191zm1.1-1.074a.636.636 0 0 0-.407-.199.657.657 0 0 0-.268.043c.013-.046.031-.085.037-.131a.726.726 0 0 0-.103-.462c-.364-.677.588-1.956.465-2.019-.123-.064-.646 1.368-1.176 1.934a.69.69 0 0 0-.197.425.765.765 0 0 0 .1.465c.084.123.199.21.338.229a.53.53 0 0 0 .179-.021c-.003.007-.01.018-.008.026a.521.521 0 0 0 .14.398.626.626 0 0 0 .403.195.624.624 0 0 0 .434-.117c.619-.447 2.036-.712 1.999-.856-.034-.138-1.391.611-1.936.09zm.963-.993a.552.552 0 0 0-.389-.104.541.541 0 0 0-.197.051c.011-.03.029-.054.04-.083a.7.7 0 0 0-.024-.43c-.231-.665.792-1.648.693-1.728-.1-.074-.764 1.117-1.31 1.536a.648.648 0 0 0-.231.354.648.648 0 0 0 .021.428.438.438 0 0 0 .265.255c.092.029.184.01.271-.027a.408.408 0 0 0-.024.17c.013.136.079.25.187.33a.567.567 0 0 0 .752-.067c.492-.497 1.714-.962 1.665-1.081-.053-.12-1.152.765-1.719.396zm1.894-2.134c-.102-.151-.958.787-1.59.877a.66.66 0 0 0-.359.178.684.684 0 0 0-.221.361.38.38 0 0 0 .055.324.325.325 0 0 0 .299.109.64.64 0 0 0 .365-.181.732.732 0 0 0 .216-.356c.191-.643 1.312-1.214 1.235-1.312zm-17.694 1.27c-.025.093-.209.816-.209.816-.053.029-.273-.019-.331-.024-.422-.04-.8-.407-.638-.845.133-.358.404-.396.748-.412.143-.006.4.028.529.117 0 0-.051.165-.099.348zm-.485 2.182l-.039.247c-.263-.165-.417-.542-.291-.84.097-.226.337-.285.514-.295a49.8 49.8 0 0 0-.184.888zm-.378 2.696c-.033.185-.283.21-.454.261-.496.149-.966.085-1.118-.508-.165-.634.315-.901.83-1.025.28-.066.54-.011.732.226.048.059.105.112.118.168 0 0-.077.704-.108.878zm-1.561-3.122c.383-.092.779-.236 1.073.141.31.396.207 1.031-.291 1.199-.328.111-.725.207-1.005-.061-.368-.351-.341-1.148.223-1.279zm-.375-2.056c.403-.098.821-.247 1.131.149.322.414.215 1.084-.308 1.259-.346.114-.763.215-1.057-.067-.386-.366-.357-1.203.234-1.341zm-.376 4.445c-.105.37-.409.425-.729.502-.21-.257-.774-.909-.784-.986a.205.205 0 0 1 .012-.09c.026-.077.116-.151.181-.194.192-.125.601-.217.822-.172.396.085.603.568.498.94zm-2.005-1.899c-.289-1.024 1.428-1.47 1.693-.466.273 1.032-1.459 1.47-1.693.466zm-.252-2.044c-.294-1.017 1.431-1.464 1.696-.465.273 1.033-1.462 1.472-1.696.465zm-.241-2.009c-.281-.948 1.338-1.368 1.585-.433.255.962-1.365 1.377-1.585.433zm-.166 3.867c-.079.047-.109.072-.136.072l-.77-.838c.009-.024.247-.196.327-.242.64-.356 1.167.662.579 1.008zm-1.461-1.887c-.381-.84 1.005-1.751 1.425-.845.385.834-1 1.761-1.425.845zm1.165-2.66c.438.779-.882 1.648-1.26.81-.336-.722.837-1.565 1.26-.81zm-1.108-1.815c.195-.172.42-.265.651-.154.37.178.381.733.058.954-.147.101-.396.226-.577.181-.397-.101-.472-.68-.132-.981zm.05-1.669c.16-.108.373-.205.557-.13.334.137.323.622.052.816-.124.088-.346.197-.496.157-.338-.085-.421-.634-.113-.843zm.887-2.378c.199-.107.486-.152.664.048a.468.468 0 0 1-.134.734c-.212.106-.498.146-.666-.051a.48.48 0 0 1 .136-.731zm-.157 1.807c-.161-.595.842-.876 1.005-.271.181.587-.845.88-1.005.271zm1.616 1.039c.234.643-.855 1.007-1.067.372-.218-.643.876-1.01 1.067-.372zm.137-3.133c.208-.083.474-.173.706 0 .289.216.226.702-.105.853-.218.099-.496.165-.69-.008-.247-.22-.261-.705.089-.845zm-.192 5.381c-.294.069-.601.186-.844-.066-.313-.322-.224-.885.199-1.039.273-.104.619-.162.842.066.286.293.255.93-.197 1.039zm.006-3.284c-.189-.638.85-.965 1.049-.346.205.635-.871.973-1.049.346zm1.74 1.169c.243.728-.987 1.116-1.213.399-.228-.734 1.011-1.122 1.213-.399zm.065-1.95c.217-.058.446-.037.612.14.251.271.165.734-.208.803-.175.032-.446.019-.583-.101-.246-.218-.234-.731.179-.842zm1.05 1.528c.396 0 .596.582.365.871-.139.175-.439.186-.643.154-.378-.058-.619-.545-.365-.874.155-.199.42-.151.643-.151zm-1.903 2.396c-.244-.837 1.178-1.211 1.396-.38.221.845-1.209 1.217-1.396.38zm.872 1.071c.388-.04.792-.13 1.031.277.249.43.063 1.028-.441 1.129-.33.069-.732.101-.968-.192-.31-.387-.187-1.161.378-1.214zm1.974-1.864c.48.198.642.764.304 1.08-.182.165-.512.133-.735.088-.447-.088-.738-.758-.347-1.076.201-.163.56-.183.778-.092zm.755 2.018c.302.37.189 1.023-.339 1.055-.275.016-.635-.016-.821-.242-.299-.361-.186-1.039.341-1.057.276-.011.633.018.819.244zm2.039-6.664a.12.12 0 0 0-.134-.05c-.063.021-.105.09-.081.151 1.205 3.237-.334 4.831-.977 7.097-.771-1.841 1.785-3.573.468-6.929-.019-.043-.053-.078-.1-.085-.066-.009-.129.018-.139.106-.034.236-.189 2.096-1.698 3.186a3.015 3.015 0 0 0-.703-1.021c-.14-.627-.549-1.488-1.41-1.742-.128-.325-.388-.79-.887-1.04-.47-.234-1.013-.213-1.617.061-.729.085-1.23.37-1.495.845-.25.449-.205.938-.121 1.271-.614.656-.643 1.628-.627 2.009-.365.876-.16 1.899-.045 2.324-.436 1.191-.01 2.346.16 2.729 0 .104.005.202.011.3-1.428-1.562-4.677-3.497-5.918-4.235a.148.148 0 0 0-.181.021.154.154 0 0 0-.008.218c2.769 2.7 5.238 6.032 7.61 12.946 1.184-1.231 3.323-2.849 6.367-2.849h3.561c-2.262-8.428 1.032-11.444-2.036-15.313zm16.836 4.358c-.651-.17-4.808-.906-9.467 7.663.68-3.191 2.746-7.052 3.313-8.173v-.008a.155.155 0 0 0-.043-.192.136.136 0 0 0-.189.035c-3.078 5.133-4.159 8.091-4.797 11.63h1.929c.328-3.412 4.637-11.449 9.23-10.852h.005c.027.006.05-.016.053-.039.01-.03-.008-.059-.034-.064zm-9.262 28.232l-1.042-4.355h-1.774c.281 1.105.682 2.229 1.202 3.215.035.058.098.093.16.083a.165.165 0 0 0 .134-.19c-.121-.922-.265-1.811-.402-2.699.376 1.395.882 2.758 1.565 4.013.018.039.058.057.094.045.05-.011.076-.064.063-.112zm1.793-1.977c-.182-.728-.371-1.621-.533-2.378h-.675c.263.808.617 1.709.932 2.479.031.075.102.112.171.093.081-.024.125-.111.105-.194zm.225 2.561l-.005-.01c-.218-.609-.52-1.154-.759-1.738a23.611 23.611 0 0 1-.706-1.758c-.17-.45-.351-.965-.49-1.433h-.651c.184.545.423 1.132.646 1.658.49 1.188 1.057 2.352 1.779 3.393a.103.103 0 0 0 .123.035c.058-.022.084-.088.063-.147zm.974-20.9c-.05-.075-.171-.091-.228-.03a13.313 13.313 0 0 0-2.147 3.069h.703c.352-.826 1.144-2.285 1.654-2.811l.005-.005c.052-.059.063-.157.013-.223zm-5.354-6.045c.651-1.069 1.617-1.887 2.436-2.875a.099.099 0 0 0-.008-.128.082.082 0 0 0-.118-.003c-.187.199-.381.386-.58.571-.087-.042-.307.043-.531.218-.175.139-.301.293-.346.404-.113-.026-.325.106-.517.351-.157.205-.249.42-.247.553-.121.01-.296.164-.446.409-.097.162-.16.319-.181.449a1.227 1.227 0 0 0-.309.353c-.134.224-.203.449-.182.579-.031.057-.063.11-.089.165l.016-.132c.192-1.513.469-3.011.892-4.456.425-1.441.934-2.894 1.808-4.061l.006-.005a.168.168 0 0 0-.016-.21.138.138 0 0 0-.205-.003 6.631 6.631 0 0 0-.785 1.05c-.099-.053-.309.144-.469.452-.147.278-.2.536-.144.635 0 0-.003.008-.009.005-.105-.045-.299.189-.417.502-.115.295-.136.566-.057.657-.006.005-.006.008-.009.013-.117-.043-.309.226-.427.606-.098.321-.108.6-.037.712.005.005 0 .019-.005.016-.121-.043-.304.234-.412.611-.108.364-.1.686.002.749-.118-.013-.283.263-.37.638-.078.324-.07.603.006.715-.116.034-.244.305-.31.656-.063.343-.032.627.052.718-.107.055-.217.334-.257.68-.039.343.011.624.1.715-.089.1-.176.339-.213.627-.036.273-.013.51.04.643-.097.082-.171.359-.174.691-.007.265.032.491.1.621a1.554 1.554 0 0 0-.089.542c-.005.279.039.518.11.643-.021.981-.008 2.025.045 3.008h2.118c.015-.765.066-1.6.141-2.357.15-1.35.373-2.721 1.048-3.874l.005-.008a.114.114 0 0 0-.013-.127c-.04-.035-.095-.035-.132.008-.916 1.063-1.317 2.506-1.553 3.89-.042.271-.076.544-.108.816.058-1.111.161-2.217.415-3.269.291-1.281.874-2.5 1.984-3.183a.097.097 0 0 0 .039-.112.091.091 0 0 0-.11-.066c-.071.021-.136.058-.205.088-.073-.091-.343-.024-.622.153-.265.173-.44.386-.422.503 0 .005-.013.013-.013.002-.003-.013-.005-.026-.013-.034-.1-.082-.367.104-.594.42-.228.316-.317.646-.22.731.006.002.003.01-.002.01-.118-.048-.315.221-.439.596-.089.262-.11.504-.078.643 0 .004-.006.01-.006.01-.092.303-.168.609-.239.919.027-.438.066-.879.129-1.315.186-1.254.564-2.482 1.236-3.528zm6.663-3.498a.749.749 0 0 0-.485-.037.811.811 0 0 0-.326.17.885.885 0 0 0-.018-.345.838.838 0 0 0-.252-.449c-.572-.571-.178-2.291-.312-2.312-.131-.018-.084 1.696-.354 2.498a.92.92 0 0 0-.019.529.889.889 0 0 0 .26.451c.113.099.249.144.378.104a.217.217 0 0 0 .097-.043c0 .022 0 .043.002.064.03.141.129.25.266.314.139.066.31.082.488.037a.792.792 0 0 0 .428-.26c.538-.625 1.803-1.515 1.727-1.634-.076-.117-1.145 1.195-1.88.913zm2.447-2.165c-.082-.117-1.095 1.065-1.785.77a.637.637 0 0 0-.452-.042.69.69 0 0 0-.236.133c-.003-.048 0-.091-.01-.133a.707.707 0 0 0-.255-.398c-.577-.505-.123-2.041-.259-2.057-.14-.016-.137 1.512-.436 2.229a.678.678 0 0 0-.037.468c.042.17.137.311.255.401a.483.483 0 0 0 .393.093.51.51 0 0 0 .161-.082c0 .008-.003.018 0 .026a.526.526 0 0 0 .269.327.643.643 0 0 0 .447.037.626.626 0 0 0 .365-.26c.427-.64 1.661-1.39 1.58-1.512zm.249-1.48c-.09-.093-.816 1.124-1.475.978a.55.55 0 0 0-.399.04.517.517 0 0 0-.168.117c0-.03.008-.059.008-.091a.676.676 0 0 0-.171-.393c-.443-.542.173-1.825.055-1.865-.12-.035-.33 1.315-.697 1.902a.627.627 0 0 0-.095.412c.01.157.076.298.168.396.094.098.21.152.336.144a.377.377 0 0 0 .244-.12c0 .053.01.111.036.167a.444.444 0 0 0 .287.242c.123.04.27.029.401-.035a.595.595 0 0 0 .284-.292c.288-.64 1.273-1.509 1.186-1.602zm-.436-1.69c-.149-.106-.624 1.076-1.189 1.384a.683.683 0 0 0-.275.295.718.718 0 0 0-.079.415c.013.125.071.231.163.284a.319.319 0 0 0 .315-.002.668.668 0 0 0 .28-.298.737.737 0 0 0 .079-.412c-.042-.669.811-1.6.706-1.666zM30.252 42.917h-5.945c-.404 0-.769-.032-1.105-.093.003 0 .003.002.003.002.976 1.451 2.506 2.552 4.057 3.29.239 1.323.538 2.548.646 2.644.11.095 1.632-.343 1.68-.484.044-.14-.622-2.407-.622-2.407.8-1.374 1.047-2.185 1.286-2.952zm14.953 10.169c-1.501.593-3.459.642-5.057.218-3.661-1.14-7.726-3.3-11.629-1.507-3.902-1.793-7.967.367-11.628 1.507-1.598.424-3.556.375-5.057-.218a.038.038 0 0 0-.037.066c2.16 1.671 5.186 2.44 7.91 1.456 2.616-.815 4.829-3.587 7.928-2.404-2.454.959-4.748 2.729-6.519 4.4l1.289 1.057c1.608-1.873 3.42-3.746 5.469-4.886.28-.165.449-.231.645-.242.198.011.365.077.643.242 2.053 1.14 3.864 3.013 5.472 4.886l1.289-1.057c-1.771-1.671-4.065-3.441-6.519-4.4 3.099-1.183 5.312 1.589 7.928 2.404 2.724.984 5.75.215 7.91-1.456.034-.029.005-.082-.037-.066zm-24.128-2.525c-3.827-.927-4.874-4.514-8.073-6.071-.034-.018-.071.022-.05.053 1.008 1.658 1.554 4.198 4.459 5.764.024.012.011.05-.016.042-4.167-.802-5.918.313-10.285-1.661-.037-.016-.076.024-.052.059 1.435 2.083 4.842 3.507 9.508 3.114 1.68-.143 2.897-.85 4.509-1.227.039-.011.039-.065 0-.073zm-8.015-2.2c-1.454-1.905-1.039-5.972-4.322-9.695-.027-.029-.074-.006-.066.031.627 2.742.441 5.857 2.157 8.139.016.024-.008.048-.031.032-3.386-2.665-6.866-3.468-8.415-5.625-.023-.029-.07-.014-.065.024.383 2.792 5.748 7.145 10.713 7.153.029 0 .047-.034.029-.059zm-5.084-5.064c-1.559-2.891.305-7.302-1.464-11.588-.019-.045-.087-.034-.087.014-.052 2.34-1.506 5.835-.627 8.473.01.024-.021.037-.034.016-2.239-3.271-4.015-3.954-5.496-6.948-.021-.045-.089-.033-.092.015C.084 35.314.984 36.973 2 38.514a17.387 17.387 0 0 0 5.928 4.836c.035.016.066-.019.05-.053zM6.921 25.691c-.003-.048-.066-.064-.09-.022-1.188 2.224-3.306 3.994-3.375 6.931-.002.029-.034.031-.039.004-.385-2.266-2.309-4.806-2.393-8.088 0-.05-.071-.063-.09-.016-1.582 4.268.693 8.314 3.116 11.657.026.034.078.014.078-.032-.099-3.542 2.971-6.186 2.793-10.434zm1.511-5.522c-1.123 1.56-3.65 2.663-4.574 4.913-.013.032-.053.024-.047-.013.367-2.522-.607-5.45.307-8.8.013-.048-.047-.08-.076-.043-1.381 1.698-1.848 3.688-1.924 5.838-.094 2.641.834 4.567 1.294 6.358.01.043.065.04.076-.003.661-2.348 3.981-3.762 5.02-8.213.014-.047-.047-.077-.076-.037zm3.047-5.245c-1.847 1.448-4.669 2.843-5.275 3.85-.01.021-.042.005-.037-.016l.685-3.287c.307-1.395.573-2.731 1.344-3.98.024-.037-.021-.08-.055-.053-3.517 2.785-3.003 6.812-3.157 10.11-.003.035.039.051.063.027 2.07-2.246 5.445-3.553 6.49-6.606.013-.037-.027-.069-.058-.045zm2.617-5.049c-3.107.099-5.391 2.716-6.37 6.048-.005.019.021.035.037.024 4.281-3.138 4.041-4.483 6.359-5.976.042-.027.024-.096-.026-.096zm35.828 38.813c-4.364 1.974-6.117.859-10.285 1.661-.026.008-.039-.03-.016-.042 2.906-1.566 3.452-4.106 4.459-5.764.021-.031-.015-.071-.05-.053-3.196 1.557-4.243 5.144-8.072 6.071-.04.008-.04.062 0 .073 1.611.377 2.829 1.084 4.508 1.227 4.666.393 8.076-1.031 9.509-3.114.023-.035-.016-.075-.053-.059zm4.727-7.445c-1.549 2.157-5.029 2.96-8.414 5.625-.021.016-.047-.008-.029-.032 1.714-2.282 1.528-5.397 2.155-8.139.007-.037-.039-.06-.066-.031-3.281 3.723-2.869 7.79-4.32 9.695-.018.025-.003.059.029.059 4.965-.008 10.327-4.361 10.711-7.153.004-.038-.043-.053-.066-.024zm2.207-7.964c-.003-.048-.071-.06-.092-.015-1.48 2.994-3.257 3.677-5.493 6.948-.016.021-.045.008-.036-.016.878-2.638-.573-6.133-.628-8.473 0-.048-.068-.059-.086-.014-1.769 4.286.094 8.697-1.462 11.588-.019.034.013.069.047.053a17.377 17.377 0 0 0 5.928-4.836c1.016-1.541 1.916-3.2 1.822-5.235zm-.756-8.779c-.018-.047-.089-.034-.089.016-.084 3.282-2.008 5.822-2.394 8.088-.005.027-.036.025-.036-.004-.069-2.937-2.189-4.707-3.378-6.931-.024-.042-.087-.026-.087.022-.178 4.248 2.89 6.892 2.79 10.434 0 .046.055.066.082.032 2.419-3.343 4.694-7.389 3.112-11.657zm-1.184-2.436c-.076-2.15-.543-4.14-1.923-5.838-.029-.037-.087-.005-.076.043.913 3.35-.061 6.278.309 8.8.006.037-.036.045-.05.013-.923-2.25-3.451-3.353-4.574-4.913-.026-.04-.087-.01-.076.037 1.039 4.451 4.359 5.865 5.021 8.213.01.043.065.046.076.003.459-1.791 1.388-3.717 1.293-6.358zm-6.023-10.626c-.034-.027-.078.016-.055.053.772 1.249 1.037 2.585 1.344 3.98l.685 3.287c.005.021-.027.037-.037.016-.606-1.007-3.425-2.402-5.275-3.85-.029-.024-.071.008-.058.045 1.045 3.053 4.42 4.36 6.49 6.606.024.024.066.008.063-.027-.154-3.298.36-7.325-3.157-10.11zm-5.954-1.563c-.05 0-.066.069-.027.096 2.318 1.493 2.079 2.838 6.359 5.976.019.011.042-.005.037-.024-.979-3.332-3.262-5.949-6.369-6.048zm21.447 19.641h.721c.674 0 1.178-.134 1.513-.399.334-.267.502-.655.502-1.163 0-.514-.14-.894-.421-1.138-.28-.245-.72-.368-1.318-.368h-.997v3.068zm4.948-1.641c0 1.113-.348 1.963-1.042 2.552-.696.59-1.684.883-2.966.883h-.94v3.676h-2.191V24.653h3.301c1.253 0 2.206.269 2.859.808.653.54.979 1.345.979 2.414zm5.628-.939c.292 0 .535.021.728.063l-.162 2.022a2.483 2.483 0 0 0-.637-.071c-.688 0-1.224.176-1.608.53-.384.353-.576.849-.576 1.484v4.022h-2.156v-7.902h1.633l.318 1.328h.106c.245-.442.576-.799.993-1.07a2.45 2.45 0 0 1 1.361-.406m3.41 4.084c0 .783.128 1.374.385 1.775.257.4.675.6 1.255.6.575 0 .988-.198 1.24-.596.252-.399.379-.991.379-1.779 0-.781-.128-1.367-.382-1.759-.255-.391-.672-.587-1.251-.587-.575 0-.99.195-1.244.583-.255.389-.382.977-.382 1.763zm5.464 0c0 1.288-.339 2.293-1.018 3.019s-1.624 1.089-2.834 1.089c-.759 0-1.429-.166-2.008-.499a3.312 3.312 0 0 1-1.336-1.431c-.311-.622-.467-1.348-.467-2.178 0-1.29.337-2.294 1.011-3.01.674-.717 1.621-1.074 2.842-1.074.758 0 1.428.165 2.007.494.58.33 1.025.804 1.336 1.421.311.617.467 1.341.467 2.169zm2.917-1.349c0 .429.097.767.293 1.017.195.25.493.375.894.375.405 0 .702-.125.891-.375.188-.25.282-.588.282-1.017 0-.952-.391-1.427-1.173-1.427-.792 0-1.187.475-1.187 1.427zm-.785 6.432c0 .297.142.531.428.7.284.17.684.255 1.197.255.773 0 1.379-.107 1.817-.319.438-.212.658-.502.658-.869 0-.297-.13-.502-.389-.615-.259-.113-.66-.17-1.202-.17h-1.116c-.396 0-.728.094-.994.279-.266.187-.399.433-.399.739zm6.1-9.019v1.096l-1.237.317c.226.354.339.75.339 1.188 0 .848-.295 1.509-.887 1.983-.591.474-1.412.71-2.463.71l-.389-.022-.318-.035c-.222.17-.333.359-.333.566 0 .311.396.466 1.188.466h1.343c.867 0 1.528.187 1.983.559.455.372.682.919.682 1.64 0 .923-.385 1.639-1.155 2.149-.771.509-1.877.763-3.319.763-1.103 0-1.945-.192-2.527-.576-.582-.384-.873-.922-.873-1.616 0-.475.148-.874.445-1.194.297-.32.733-.549 1.308-.686a1.423 1.423 0 0 1-.58-.462 1.104 1.104 0 0 1-.247-.683c0-.301.087-.552.261-.752.175-.201.426-.397.757-.591a2.121 2.121 0 0 1-.987-.862c-.242-.396-.364-.862-.364-1.399 0-.862.281-1.529.842-2.001.56-.471 1.362-.706 2.403-.706.221 0 .484.02.788.06.304.04.498.069.583.088h2.757zm5.285-.148c.292 0 .534.021.728.063l-.163 2.022a2.475 2.475 0 0 0-.636-.071c-.688 0-1.224.176-1.608.53-.384.353-.576.849-.576 1.484v4.022h-2.156v-7.902h1.632l.319 1.328h.106c.245-.442.576-.799.993-1.07a2.45 2.45 0 0 1 1.361-.406m5.93 4.389l-.834.029c-.627.018-1.094.131-1.4.338-.306.207-.459.524-.459.948 0 .607.348.912 1.046.912.499 0 .898-.145 1.198-.432.299-.287.449-.669.449-1.145v-.65zm.636 3.661l-.417-1.074h-.056c-.364.457-.737.773-1.121.95-.384.177-.885.266-1.502.266-.759 0-1.356-.217-1.792-.651-.436-.433-.654-1.05-.654-1.852 0-.838.294-1.457.88-1.855.587-.398 1.472-.618 2.654-.66l1.372-.043v-.347c0-.801-.41-1.201-1.23-1.201-.632 0-1.374.19-2.227.572l-.713-1.456c.909-.475 1.917-.714 3.025-.714 1.06 0 1.873.232 2.438.693.566.462.849 1.164.849 2.106v5.266h-1.506zm10.284 0h-2.156V30.37c0-.569-.095-.996-.286-1.282-.191-.285-.491-.427-.901-.427-.552 0-.953.202-1.202.607-.25.405-.375 1.072-.375 2v3.718h-2.156v-7.902h1.647l.29 1.011h.12c.212-.363.518-.647.919-.852.401-.205.86-.307 1.379-.307 1.182 0 1.984.386 2.403 1.159h.191c.212-.368.524-.653.936-.855a3.122 3.122 0 0 1 1.396-.304c.896 0 1.573.229 2.033.688.459.46.689 1.197.689 2.209v5.153h-2.163V30.37c0-.569-.096-.996-.287-1.282-.191-.285-.491-.427-.901-.427-.527 0-.922.188-1.184.565-.261.377-.392.976-.392 1.794v3.966m13.705 0h-2.155V30.37c0-.569-.096-.996-.286-1.282-.191-.285-.492-.427-.902-.427-.551 0-.952.202-1.202.607-.25.405-.374 1.072-.374 2v3.718h-2.156v-7.902h1.647l.29 1.011h.12c.212-.363.518-.647.919-.852.4-.205.86-.307 1.378-.307 1.183 0 1.984.386 2.404 1.159h.19c.212-.368.524-.653.937-.855a3.115 3.115 0 0 1 1.396-.304c.895 0 1.573.229 2.032.688.46.46.69 1.197.69 2.209v5.153h-2.163V30.37c0-.569-.096-.996-.287-1.282-.191-.285-.491-.427-.901-.427-.528 0-.923.188-1.184.565-.262.377-.393.976-.393 1.794v3.966m9.951-6.517c-.457 0-.816.146-1.075.435-.259.29-.407.701-.445 1.234h3.025c-.009-.533-.148-.944-.417-1.234-.269-.289-.631-.435-1.088-.435zm.303 6.659c-1.272 0-2.266-.352-2.983-1.054-.716-.702-1.074-1.696-1.074-2.982 0-1.324.331-2.348.993-3.071.662-.724 1.577-1.085 2.746-1.085 1.117 0 1.987.317 2.609.954.622.636.933 1.515.933 2.636v1.046h-5.097c.024.612.205 1.091.545 1.435.339.344.815.516 1.427.516.477 0 .927-.049 1.351-.148.424-.1.867-.257 1.329-.474v1.668a5.076 5.076 0 0 1-1.209.421c-.429.092-.952.138-1.57.138zm13.15-4.44a741.9 741.9 0 0 1-1.169-3.78c-.088-.293-.15-.524-.188-.694-.155.604-.601 2.095-1.336 4.474h2.693zm1.273 4.298l-.749-2.46h-3.768l-.749 2.46h-2.361l3.647-10.376h2.679l3.662 10.376h-2.361zm3.247.001h2.156V23.988h-2.156zm3.904-.001h2.156v-7.902h-2.156v7.902zm-.092-9.945c0-.702.391-1.053 1.174-1.053.782 0 1.173.351 1.173 1.053 0 .334-.098.595-.293.782-.196.185-.489.278-.88.278-.783 0-1.174-.353-1.174-1.06zm11.072 9.945h-2.156V30.37c0-.569-.095-.996-.286-1.282-.191-.285-.492-.427-.902-.427-.551 0-.952.202-1.201.607-.25.405-.375 1.072-.375 2v3.718h-2.156v-7.902h1.647l.29 1.011h.12c.212-.363.518-.647.919-.852.4-.205.86-.307 1.378-.307 1.183 0 1.984.386 2.404 1.159h.191c.211-.368.524-.653.936-.855a3.119 3.119 0 0 1 1.396-.304c.896 0 1.573.229 2.032.688.46.46.69 1.197.69 2.209v5.153h-2.163V30.37c0-.569-.096-.996-.287-1.282-.191-.285-.491-.427-.901-.427-.528 0-.923.188-1.184.565-.262.377-.392.976-.392 1.794v3.966m9.95-6.517c-.457 0-.815.146-1.074.435-.259.29-.408.701-.446 1.234h3.026c-.01-.533-.149-.944-.417-1.234-.269-.289-.632-.435-1.089-.435zm.304 6.659c-1.272 0-2.267-.352-2.983-1.054-.716-.702-1.074-1.696-1.074-2.982 0-1.324.331-2.348.993-3.071.662-.724 1.577-1.085 2.746-1.085 1.117 0 1.986.317 2.608.954.623.636.934 1.515.934 2.636v1.046h-5.097c.023.612.205 1.091.544 1.435.34.344.815.516 1.428.516.476 0 .926-.049 1.35-.148.424-.1.867-.257 1.329-.474v1.668c-.377.189-.78.329-1.209.421-.428.092-.951.138-1.569.138zm11.877-.142h-2.155V30.37c0-.569-.102-.996-.305-1.282-.202-.285-.525-.427-.968-.427-.603 0-1.039.201-1.307.604-.269.402-.403 1.07-.403 2.003v3.718h-2.157v-7.902h1.647l.29 1.011h.121a2.27 2.27 0 0 1 .993-.866 3.39 3.39 0 0 1 1.438-.293c.919 0 1.616.248 2.092.745.477.497.714 1.215.714 2.152v5.153m5.021-1.576c.377 0 .829-.083 1.357-.247v1.604c-.537.241-1.196.361-1.979.361-.862 0-1.49-.218-1.883-.654-.394-.436-.591-1.09-.591-1.961v-3.81h-1.032v-.913l1.187-.72.623-1.668h1.378v1.682h2.213v1.619h-2.213v3.81c0 .305.086.532.258.677.172.147.4.22.682.22m7.022-2.085l-.834.029c-.627.018-1.094.131-1.4.338-.306.207-.46.524-.46.948 0 .607.349.912 1.047.912.499 0 .898-.145 1.198-.432.299-.287.449-.669.449-1.145v-.65zm.636 3.661l-.417-1.074h-.057c-.363.457-.736.773-1.12.95-.384.177-.885.266-1.502.266-.759 0-1.356-.217-1.792-.651-.436-.433-.654-1.05-.654-1.852 0-.838.294-1.457.88-1.855.587-.398 1.472-.618 2.654-.66l1.372-.043v-.347c0-.801-.41-1.201-1.23-1.201-.632 0-1.374.19-2.227.572l-.714-1.456c.91-.475 1.918-.714 3.026-.714 1.06 0 1.873.232 2.438.693.566.462.848 1.164.848 2.106v5.266h-1.505zm3.196 0h2.157v-7.902h-2.157v7.902zm-.091-9.945c0-.702.391-1.053 1.173-1.053s1.173.351 1.173 1.053c0 .334-.097.595-.293.782-.196.185-.489.278-.88.278-.782 0-1.173-.353-1.173-1.06zm8.407 1.895c.292 0 .534.021.728.063l-.163 2.022a2.47 2.47 0 0 0-.636-.071c-.688 0-1.224.176-1.608.53-.384.353-.576.849-.576 1.484v4.022h-2.156v-7.902h1.632l.319 1.328h.106c.245-.442.576-.799.993-1.07a2.45 2.45 0 0 1 1.361-.406m4.957 1.533c-.457 0-.815.146-1.074.435-.259.29-.408.701-.446 1.234h3.026c-.01-.533-.149-.944-.417-1.234-.269-.289-.632-.435-1.089-.435zm.304 6.659c-1.272 0-2.267-.352-2.983-1.054-.716-.702-1.074-1.696-1.074-2.982 0-1.324.331-2.348.993-3.071.662-.724 1.577-1.085 2.746-1.085 1.117 0 1.986.317 2.609.954.622.636.933 1.515.933 2.636v1.046h-5.097c.023.612.205 1.091.544 1.435.34.344.815.516 1.428.516.476 0 .926-.049 1.35-.148.425-.1.867-.257 1.329-.474v1.668c-.377.189-.78.329-1.209.421-.428.092-.951.138-1.569.138zm12.472-.142l-2.489-8.107h-.063c.089 1.65.134 2.749.134 3.301v4.806h-1.958V24.653h2.983l2.446 7.902h.042l2.594-7.902h2.984v10.333h-2.043v-4.891c0-.23.003-.497.01-.799.007-.301.039-1.102.096-2.403h-.064l-2.665 8.093h-2.007m10.393-3.966c0 .783.129 1.374.386 1.775.256.4.675.6 1.254.6.575 0 .989-.198 1.241-.596.252-.399.378-.991.378-1.779 0-.781-.127-1.367-.382-1.759-.254-.391-.671-.587-1.251-.587-.575 0-.99.195-1.244.583-.254.389-.382.977-.382 1.763zm5.464 0c0 1.288-.339 2.293-1.017 3.019-.679.726-1.624 1.089-2.835 1.089-.759 0-1.428-.166-2.008-.499a3.318 3.318 0 0 1-1.336-1.431c-.311-.622-.466-1.348-.466-2.178 0-1.29.337-2.294 1.011-3.01.674-.717 1.621-1.074 2.842-1.074.758 0 1.427.165 2.007.494a3.31 3.31 0 0 1 1.336 1.421c.311.617.466 1.341.466 2.169zm8.609 3.966h-2.156V30.37c0-.569-.101-.996-.304-1.282-.203-.285-.525-.427-.968-.427-.604 0-1.039.201-1.308.604-.268.402-.403 1.07-.403 2.003v3.718h-2.156v-7.902h1.647l.29 1.011h.12c.24-.382.572-.671.993-.866a3.394 3.394 0 0 1 1.439-.293c.919 0 1.616.248 2.092.745s.714 1.215.714 2.152v5.153m5.04-1.576c.551 0 .955-.16 1.212-.48.257-.321.397-.866.42-1.633v-.234c0-.848-.13-1.455-.392-1.823-.261-.368-.687-.551-1.276-.551-.481 0-.854.203-1.12.611-.266.407-.4 1-.4 1.777 0 .777.135 1.361.403 1.75.269.389.653.583 1.153.583zm-.757 1.718c-.928 0-1.657-.361-2.188-1.082-.53-.721-.795-1.72-.795-2.997 0-1.296.27-2.305.809-3.028.54-.724 1.284-1.085 2.231-1.085.994 0 1.753.386 2.276 1.159h.071a8.756 8.756 0 0 1-.163-1.576v-2.531h2.163v10.998h-1.654l-.417-1.025h-.092c-.49.778-1.237 1.167-2.241 1.167zm6.143-.142h2.157v-7.902h-2.157v7.902zm-.092-9.945c0-.702.392-1.053 1.174-1.053.782 0 1.173.351 1.173 1.053 0 .334-.097.595-.293.782-.196.185-.489.278-.88.278-.782 0-1.174-.353-1.174-1.06zm8.363 6.284l-.834.029c-.627.018-1.093.131-1.4.338-.306.207-.459.524-.459.948 0 .607.349.912 1.046.912.5 0 .899-.145 1.198-.432.299-.287.449-.669.449-1.145v-.65zm.637 3.661l-.417-1.074h-.057c-.363.457-.736.773-1.121.95-.384.177-.884.266-1.502.266-.758 0-1.356-.217-1.792-.651-.436-.433-.653-1.05-.653-1.852 0-.838.293-1.457.879-1.855.587-.398 1.472-.618 2.655-.66l1.371-.043v-.347c0-.801-.41-1.201-1.23-1.201-.632 0-1.374.19-2.226.572l-.714-1.456c.909-.475 1.917-.714 3.025-.714 1.06 0 1.873.232 2.439.693.565.462.848 1.164.848 2.106v5.266h-1.505zm3.21.001h2.157V23.988h-2.157z" fill="#0A6EB4" fill-rule="evenodd"/></svg>