<svg xmlns="http://www.w3.org/2000/svg" width="72" height="36" viewBox="0 0 72 36">
  <g fill="none" fill-rule="evenodd" transform="translate(1 3)">
    <polygon fill="#FFF" points="43.508 27.789 21.602 5.907 25.878 1.575 47.783 23.457"/>
    <polygon stroke="#000" stroke-width="2" points="43.508 27.789 21.602 5.907 25.878 1.575 47.783 23.457"/>
    <path stroke="#000" stroke-width="2" d="M25.9079 7.4665L24.4639 8.9185M40.5758 22.3659L39.0738 23.8759"/>
    <polygon fill="#FFF" points="19.999 24.016 24.563 28.606 27.247 26.007 22.675 21.432"/>
    <polygon stroke="#000" stroke-width="2" points="19.999 24.016 24.563 28.606 27.247 26.007 22.675 21.432"/>
    <polygon fill="#FBC208" points="22.675 21.432 27.246 26.007 46.953 6.917 42.421 2.361"/>
    <polygon stroke="#000" stroke-width="2" points="22.675 21.432 27.246 26.007 46.953 6.917 42.421 2.361"/>
    <polygon fill="#FFF" points="47.783 1.558 43.253 1.558 42.421 2.361 46.953 6.917 47.783 6.113"/>
    <polygon stroke="#000" stroke-width="2" points="47.783 1.558 43.253 1.558 42.421 2.361 46.953 6.917 47.783 6.113"/>
    <polygon fill="#056DB4" points="15.102 .021 .414 14.709 15.32 29.616 15.253 23.074 6.985 14.818 15.102 5.357"/>
    <polygon stroke="#000" stroke-width="2" points="15.102 .021 .414 14.709 15.32 29.616 15.253 23.074 6.985 14.818 15.102 5.357"/>
    <polygon fill="#056DB4" points="54.584 .504 69.272 15.193 54.366 30.099 54.433 23.558 62.831 15.303 54.584 6.84"/>
    <polygon stroke="#000" stroke-width="2" points="54.584 .504 69.272 15.193 54.366 30.099 54.433 23.558 62.831 15.303 54.584 6.84"/>
  </g>
</svg>
