<svg width="45" height="35" viewBox="0 0 45 35" fill="none" xmlns="http://www.w3.org/2000/svg">
<mask id="mask0" mask-type="alpha" maskUnits="userSpaceOnUse" x="0" y="0" width="45" height="35">
<path fill-rule="evenodd" clip-rule="evenodd" d="M0.0600586 0.690002H44.5091V34.94H0.0600586V0.690002Z" fill="white"/>
</mask>
<g mask="url(#mask0)">
<path fill-rule="evenodd" clip-rule="evenodd" d="M43.118 20.163C42.351 20.163 41.728 19.541 41.728 18.773C41.728 16.461 40.47 14.572 38.529 13.55L40.67 24.685C40.739 25.238 40.308 25.727 39.75 25.727H38.945V33.609C38.945 34.378 38.323 35 37.555 35C36.786 35 36.164 34.378 36.164 33.609V25.727H34.31V33.609C34.31 34.378 33.687 35 32.918 35C32.151 35 31.528 34.378 31.528 33.609V25.727H30.723C30.165 25.727 29.734 25.238 29.803 24.685L31.942 13.554C30.006 14.577 28.752 16.464 28.752 18.773C28.752 19.541 28.129 20.163 27.361 20.163C26.594 20.163 25.971 19.541 25.971 18.773C25.971 13.738 29.956 9.979 35.24 9.979C40.525 9.979 44.509 13.738 44.509 18.773C44.509 19.541 43.886 20.163 43.118 20.163ZM17.148 20.163C16.38 20.163 15.757 19.541 15.757 18.773C15.757 16.632 14.681 14.857 12.982 13.789V33.609C12.982 34.378 12.359 35 11.591 35C10.822 35 10.199 34.378 10.199 33.609V23.873H8.345V33.609C8.345 34.378 7.722 35 6.954 35C6.186 35 5.563 34.378 5.563 33.609V13.785C3.86 14.852 2.781 16.63 2.781 18.773C2.781 19.541 2.158 20.163 1.391 20.163C0.623 20.163 0 19.541 0 18.773C0 13.738 3.986 9.979 9.27 9.979C14.553 9.979 18.538 13.738 18.538 18.773C18.538 19.541 17.915 20.163 17.148 20.163ZM9.273 0.690002C11.32 0.690002 12.982 2.351 12.982 4.399C12.982 6.448 11.32 8.108 9.273 8.108C7.224 8.108 5.563 6.448 5.563 4.399C5.563 2.351 7.224 0.690002 9.273 0.690002ZM35.236 0.690002C37.285 0.690002 38.945 2.351 38.945 4.399C38.945 6.448 37.285 8.108 35.236 8.108C33.188 8.108 31.528 6.448 31.528 4.399C31.528 2.351 33.188 0.690002 35.236 0.690002Z" fill="#0B1923"/>
</g>
</svg>
