<svg width="56" height="56" viewBox="0 0 56 56" fill="none" xmlns="http://www.w3.org/2000/svg">
<mask id="mask0" mask-type="alpha" maskUnits="userSpaceOnUse" x="0" y="0" width="56" height="56">
<path fill-rule="evenodd" clip-rule="evenodd" d="M0 0H56V56H0V0Z" fill="white"/>
</mask>
<g mask="url(#mask0)">
<path fill-rule="evenodd" clip-rule="evenodd" d="M46.962 28.7576C46.962 30.0773 45.8343 31.1487 44.4413 31.1487H36.8427C35.4496 31.1487 34.321 30.0773 34.321 28.7576C34.321 27.4369 35.4496 26.3676 36.8427 26.3676H44.4413C45.8343 26.3676 46.962 27.4369 46.962 28.7576ZM39.9425 40.8386C39.0546 41.7374 37.6132 41.7374 36.7243 40.8386L32.6497 36.7189C31.7618 35.8211 31.7618 34.3637 32.6497 33.4649C33.5386 32.5662 34.98 32.5662 35.8679 33.4649L39.9425 37.5847C40.8304 38.4835 40.8304 39.9399 39.9425 40.8386ZM32.6172 20.8413L35.1773 18.2537C36.0653 17.3549 37.5066 17.3549 38.3946 18.2537C39.2835 19.1525 39.2835 20.6088 38.3946 21.5076L35.7663 24.0952C34.8774 24.994 33.5051 24.994 32.6172 24.0952C31.7283 23.1964 31.7283 21.74 32.6172 20.8413ZM28 32.7577C25.8187 32.7577 24.0488 30.9691 24.0488 28.7636C24.0488 26.5571 25.8187 24.7695 28 24.7695C30.1813 24.7695 31.9502 26.5571 31.9502 28.7636C31.9502 30.9691 30.1813 32.7577 28 32.7577ZM30.3609 45.54C30.3609 46.8637 29.3003 47.937 27.9911 47.937C26.6819 47.937 25.6204 46.8637 25.6204 45.54V37.5508C25.6204 36.2281 26.6819 35.1547 27.9911 35.1547C29.3003 35.1547 30.3609 36.2281 30.3609 37.5508V45.54ZM23.3838 36.6859L16.0822 44.0676C15.1942 44.9654 13.7538 44.9654 12.8649 44.0676C11.976 43.1688 11.976 41.7115 12.8649 40.8137L20.1646 33.432C21.0535 32.5332 22.4939 32.5332 23.3838 33.432C24.2717 34.3298 24.2717 35.7872 23.3838 36.6859ZM21.679 28.7536V28.7736C21.679 30.0913 20.6224 31.1607 19.3191 31.1607H14.5579C13.2546 31.1607 12.198 30.0913 12.198 28.7736V28.7536C12.198 27.4359 13.2546 26.3676 14.5579 26.3676H19.3191C20.6224 26.3676 21.679 27.4359 21.679 28.7536ZM9.74145 10.3014C10.6797 9.35378 12.2 9.35378 13.1382 10.3014L23.3463 20.6238C24.2846 21.5715 24.2846 23.1096 23.3463 24.0583C22.4081 25.0059 20.8868 25.0059 19.9486 24.0583L9.74145 13.7369C8.80321 12.7883 8.80321 11.2501 9.74145 10.3014ZM25.6302 11.9872C25.6302 10.6635 26.6918 9.59119 28 9.59119C29.3092 9.59119 30.3707 10.6635 30.3707 11.9872V19.9764C30.3707 21.2991 29.3092 22.3725 28 22.3725C26.6918 22.3725 25.6302 21.2991 25.6302 19.9764V11.9872ZM53.6667 0H2.33325C1.04972 0 0 1.06137 0 2.35914V53.6409C0 54.9386 1.04972 56 2.33325 56H53.6667C54.9503 56 56 54.9386 56 53.6409V2.35914C56 1.06137 54.9503 0 53.6667 0Z" fill="#0B1923"/>
</g>
</svg>
