<svg width="56" height="56" viewBox="0 0 56 56" fill="none" xmlns="http://www.w3.org/2000/svg">
<mask id="mask0" mask-type="alpha" maskUnits="userSpaceOnUse" x="0" y="0" width="56" height="56">
<path fill-rule="evenodd" clip-rule="evenodd" d="M0 0H56V56H0V0Z" fill="white"/>
</mask>
<g mask="url(#mask0)">
<path fill-rule="evenodd" clip-rule="evenodd" d="M46.962 38.3847C46.962 39.2645 46.2507 39.9828 45.3825 39.9828H10.6175C9.74835 39.9828 9.03802 39.2645 9.03802 38.3847V17.6143C9.03802 16.7355 9.74835 16.0162 10.6175 16.0162H45.3825C46.2507 16.0162 46.962 16.7355 46.962 17.6143V38.3847ZM53.6667 0H2.33325C1.04972 0 0 1.06137 0 2.35914V53.6409C0 54.9386 1.04972 56 2.33325 56H53.6667C54.9503 56 56 54.9386 56 53.6409V2.35914C56 1.06137 54.9503 0 53.6667 0Z" fill="#0B1923"/>
</g>
<path fill-rule="evenodd" clip-rule="evenodd" d="M38.3482 30.3746C37.687 29.8067 36.6957 29.8863 36.1289 30.5475C35.563 31.2087 35.6416 32.199 36.3028 32.7659L41.8094 37.4866C42.1091 37.7381 42.4706 37.8648 42.8322 37.8648C43.2733 37.8648 43.7144 37.6752 44.0288 37.3137C44.5947 36.6525 44.5161 35.6612 43.8549 35.0953L38.3482 30.3746Z" fill="#0B1923"/>
<path fill-rule="evenodd" clip-rule="evenodd" d="M41.8958 19.2876L27.8831 29.6181L13.8703 19.2876C13.1698 18.7767 12.1864 18.9182 11.6667 19.6187C11.1479 20.3192 11.2982 21.3095 11.9968 21.8213L26.9468 32.8366C27.2297 33.041 27.553 33.1432 27.8831 33.1432C28.2132 33.1432 28.5354 33.041 28.8194 32.8366L43.7684 21.8213C44.4689 21.3095 44.6192 20.3192 44.0985 19.6187C43.5798 18.9182 42.5963 18.7767 41.8958 19.2876Z" fill="#0B1923"/>
<path fill-rule="evenodd" clip-rule="evenodd" d="M17.4189 30.3746L11.9113 35.0953C11.2501 35.6612 11.1715 36.6525 11.7384 37.3137C12.0528 37.6752 12.4929 37.8648 12.934 37.8648C13.2966 37.8648 13.6581 37.7381 13.9568 37.4866L19.4644 32.7659C20.1256 32.199 20.2042 31.2087 19.6373 30.5475C19.0714 29.8863 18.0801 29.8067 17.4189 30.3746Z" fill="#0B1923"/>
</svg>
