<svg width="31" height="38" viewBox="0 0 31 38" fill="none" xmlns="http://www.w3.org/2000/svg">
<path fill-rule="evenodd" clip-rule="evenodd" d="M28.1507 14.3227C27.5447 15.1627 26.5247 15.3537 26.0477 14.8457C25.5687 14.3367 25.6497 13.4727 26.0987 12.8447C28.3677 9.70073 28.3677 5.42573 26.0987 2.28173C25.6507 1.65273 25.5687 0.788731 26.0477 0.279731C26.5247 -0.229269 27.5447 -0.0372692 28.1507 0.803731C31.0557 4.82673 31.0557 10.2987 28.1507 14.3227ZM25.2798 37.9107H5.04875C4.11675 37.9107 3.36275 37.1557 3.36275 36.2247C3.36275 35.2937 4.11675 34.5387 5.04875 34.5387H13.4788V10.5117C13.4788 10.4977 13.4827 10.4837 13.4838 10.4697C12.4778 9.88673 11.7928 8.80973 11.7928 7.56273C11.7928 5.70073 13.3027 4.19073 15.1648 4.19073C17.0278 4.19073 18.5368 5.70073 18.5368 7.56273C18.5368 8.80873 17.8528 9.88573 16.8468 10.4697C16.8468 10.4837 16.8507 10.4977 16.8507 10.5117V34.5387H25.2798C26.2118 34.5387 26.9668 35.2937 26.9668 36.2247C26.9668 37.1557 26.2118 37.9107 25.2798 37.9107ZM2.17875 0.803731C2.78375 -0.0372692 3.80475 -0.229269 4.28175 0.279731C4.76175 0.788731 4.67975 1.65273 4.23175 2.28173C1.96075 5.42573 1.96075 9.70073 4.23175 12.8437C4.67975 13.4727 4.76175 14.3367 4.28175 14.8457C3.80475 15.3537 2.78375 15.1627 2.17875 14.3227C-0.72625 10.2987 -0.72625 4.82673 2.17875 0.803731ZM7.27975 2.58373C7.87875 1.64673 8.95375 1.41173 9.42275 1.92673C9.89875 2.44073 9.81375 3.30473 9.40875 3.94673C8.00075 6.14373 8.00075 8.98173 9.40875 11.1787C9.81375 11.8217 9.89875 12.6847 9.42275 13.1987C8.95375 13.7127 7.87775 13.4787 7.27975 12.5417C5.33875 9.51673 5.33875 5.60873 7.27975 2.58373ZM20.8358 3.94673C20.4317 3.30473 20.3458 2.44073 20.8218 1.92673C21.2917 1.41273 22.3668 1.64673 22.9657 2.58373C24.9058 5.60873 24.9058 9.51673 22.9657 12.5417C22.3678 13.4787 21.2917 13.7127 20.8218 13.1987C20.3468 12.6847 20.4317 11.8217 20.8358 11.1787C22.2437 8.98173 22.2437 6.14373 20.8358 3.94673Z" fill="#0B1923"/>
</svg>
