<svg width="29" height="44" viewBox="0 0 29 44" fill="none" xmlns="http://www.w3.org/2000/svg">
<path fill-rule="evenodd" clip-rule="evenodd" d="M14.331 0.138C6.416 0.138 0 6.554 0 14.469H28.662C28.662 6.554 22.246 0.138 14.331 0.138Z"  fill="#000000"/>
<path fill-rule="evenodd" clip-rule="evenodd" d="M20.6769 35.595H20.2679V36.939H20.5559C20.7939 36.939 20.9819 36.872 21.1219 36.74C21.2619 36.606 21.3319 36.422 21.3319 36.187C21.3319 35.793 21.1149 35.595 20.6769 35.595Z" fill="#000000"/>
<path fill-rule="evenodd" clip-rule="evenodd" d="M22.353 37.693C21.969 38.048 21.421 38.226 20.712 38.226H20.268V40.166H18.69V34.32H20.712C21.451 34.32 22.005 34.481 22.376 34.804C22.747 35.126 22.931 35.585 22.931 36.179C22.931 36.832 22.74 37.337 22.353 37.693ZM18.138 35.588H16.241V36.703H17.991V37.971H16.241V40.166H14.685V34.32H18.138V35.588ZM12.554 40.166H10.686L10.125 37.619C10.099 37.512 10.057 37.3 9.99998 36.983C9.94398 36.665 9.90198 36.401 9.87298 36.187C9.85298 36.361 9.81898 36.575 9.77198 36.833C9.72198 37.091 9.67498 37.326 9.62898 37.543C9.58098 37.759 9.38898 38.634 9.04498 40.166H7.17998L5.73098 34.32H7.25498L7.88998 37.251C8.03498 37.899 8.13298 38.415 8.18798 38.798C8.22198 38.527 8.28498 38.158 8.37298 37.691C8.46198 37.224 8.54598 36.838 8.62298 36.531L9.13898 34.32H10.603L11.103 36.531C11.188 36.886 11.274 37.295 11.363 37.759C11.45 38.223 11.508 38.569 11.538 38.798C11.573 38.503 11.667 37.99 11.823 37.259L12.471 34.32H13.993L12.554 40.166ZM24.719 30.486H3.94298C3.47698 30.486 3.09998 30.863 3.09998 31.328V43.157C3.09998 43.622 3.47698 44 3.94298 44H24.719C25.185 44 25.562 43.622 25.562 43.157V31.328C25.562 30.863 25.185 30.486 24.719 30.486Z"  fill="#000000"/>
<path fill-rule="evenodd" clip-rule="evenodd" d="M23.9931 16.507L14.3311 25.782L4.66906 16.507C4.16606 16.024 3.36706 16.039 2.88106 16.543C2.39806 17.047 2.41306 17.848 2.91706 18.331L13.4551 28.448C13.4631 28.455 13.4741 28.457 13.4831 28.465C13.5971 28.569 13.7231 28.652 13.8601 28.707C13.8701 28.711 13.8781 28.712 13.8881 28.716C14.0311 28.769 14.1811 28.8 14.3311 28.8C14.4821 28.8 14.6311 28.769 14.7741 28.716C14.7841 28.712 14.7931 28.711 14.8021 28.707C14.9391 28.652 15.0651 28.569 15.1791 28.465C15.1881 28.457 15.1991 28.455 15.2071 28.448L25.7441 18.331C26.2481 17.848 26.2651 17.047 25.7811 16.543C25.2961 16.038 24.4961 16.023 23.9931 16.507Z"  fill="#000000"/>
</svg>
