<svg width="41" height="37" viewBox="0 0 41 37" fill="none" xmlns="http://www.w3.org/2000/svg">
<mask id="mask0" mask-type="alpha" maskUnits="userSpaceOnUse" x="0" y="0" width="41" height="37">
<path fill-rule="evenodd" clip-rule="evenodd" d="M0 0.761047H40.464V36.94H0V0.761047Z" fill="white"/>
</mask>
<g mask="url(#mask0)">
<path fill-rule="evenodd" clip-rule="evenodd" d="M40.081 19.801L34.224 25.658C33.968 25.913 33.633 26.041 33.298 26.041C32.964 26.041 32.629 25.913 32.373 25.658C31.861 25.146 31.861 24.318 32.373 23.807L36.04 20.14L37.276 18.875L36.04 17.611L32.373 13.944C31.861 13.433 31.861 12.604 32.373 12.094C32.884 11.582 33.712 11.582 34.224 12.094L40.081 17.951C40.326 18.196 40.464 18.529 40.464 18.876C40.464 19.223 40.326 19.555 40.081 19.801ZM27.024 26.041C26.689 26.041 26.354 25.913 26.099 25.658C25.588 25.146 25.588 24.318 26.099 23.807L29.766 20.14L31.002 18.875L29.766 17.611L26.099 13.944C25.588 13.433 25.588 12.604 26.099 12.094C26.61 11.582 27.438 11.582 27.949 12.094L33.807 17.951C34.052 18.196 34.189 18.529 34.189 18.876C34.189 19.223 34.052 19.555 33.807 19.801L27.949 25.658C27.693 25.913 27.358 26.041 27.024 26.041ZM22.972 7.33699C21.202 7.91899 19.297 6.95699 18.714 5.18799C18.132 3.41899 19.094 1.51399 20.862 0.930985C22.632 0.348985 24.538 1.30999 25.12 3.07899C25.702 4.84899 24.74 6.75399 22.972 7.33699ZM21.345 36.051C21.121 36.482 20.744 36.782 20.315 36.918C19.886 37.054 19.404 37.026 18.974 36.802C18.11 36.353 17.774 35.292 18.223 34.43C20.367 30.3 18.792 25.213 14.723 22.998L10.949 21.095L3.327 36.04C3.016 36.649 2.398 37 1.758 37C1.489 37 1.217 36.938 0.959997 36.808C0.0949973 36.366 -0.249003 35.307 0.191997 34.441L12.74 9.83799C9.307 9.40699 5.81 11.114 4.145 14.368C3.706 15.225 2.656 15.565 1.799 15.126C0.940997 14.688 0.601997 13.637 1.041 12.78C3.933 7.12899 10.731 4.77499 16.47 7.29399C16.592 7.32299 16.713 7.36399 16.829 7.42199L18.984 8.50999C21.001 9.52799 21.812 11.988 20.793 14.005L17.479 20.572C22.415 23.968 24.176 30.6 21.345 36.051Z" fill="#0B1923"/>
</g>
</svg>
