<svg width="41" height="41" viewBox="0 0 41 41" fill="none" xmlns="http://www.w3.org/2000/svg">
<mask id="mask0" mask-type="alpha" maskUnits="userSpaceOnUse" x="0" y="0" width="41" height="41">
<path fill-rule="evenodd" clip-rule="evenodd" d="M0 0H40.464V40.404H0V0Z" fill="white"/>
</mask>
<g mask="url(#mask0)">
<path fill-rule="evenodd" clip-rule="evenodd" d="M40.464 25.459C39.992 25.358 39.444 25.29 38.778 25.29C36.806 25.29 35.735 25.872 34.884 26.335C34.176 26.723 33.712 26.976 32.591 26.976C31.477 26.976 31.015 26.723 30.306 26.335C29.454 25.872 28.384 25.29 26.411 25.29C24.431 25.29 23.368 25.872 22.508 26.335C21.809 26.723 21.345 26.976 20.232 26.976C19.111 26.976 18.647 26.723 17.947 26.335C17.265 25.973 16.455 25.526 15.174 25.366V10.436C15.174 10.319 15.233 10.2 15.326 10.116L27.684 0.051C27.76 -0.017 27.878 -0.017 27.954 0.051L40.312 10.116C40.405 10.2 40.464 10.319 40.464 10.436V25.459ZM38.778 32.034C37.662 32.034 37.196 32.288 36.493 32.671C35.636 33.138 34.569 33.72 32.593 33.72C30.617 33.72 29.551 33.138 28.694 32.671C27.99 32.288 27.525 32.034 26.408 32.034C25.294 32.034 24.829 32.288 24.126 32.671C23.268 33.138 22.203 33.72 20.227 33.72C18.252 33.72 17.186 33.138 16.329 32.671C15.626 32.288 15.161 32.034 14.046 32.034C12.93 32.034 12.466 32.288 11.763 32.671C10.905 33.138 9.84 33.72 7.864 33.72C5.891 33.72 4.824 33.138 3.968 32.671C3.265 32.288 2.801 32.034 1.686 32.034C0.755 32.034 0 31.279 0 30.348C0 29.417 0.755 28.662 1.686 28.662C3.661 28.662 4.727 29.244 5.583 29.711C6.286 30.095 6.751 30.348 7.864 30.348C8.98 30.348 9.444 30.095 10.147 29.711C11.005 29.244 12.07 28.662 14.046 28.662C16.021 28.662 17.087 29.244 17.944 29.711C18.647 30.095 19.112 30.348 20.227 30.348C21.344 30.348 21.808 30.095 22.511 29.711C23.367 29.244 24.433 28.662 26.408 28.662C28.385 28.662 29.451 29.244 30.308 29.711C31.012 30.095 31.476 30.348 32.593 30.348C33.71 30.348 34.176 30.095 34.879 29.711C35.736 29.244 36.803 28.662 38.778 28.662C39.709 28.662 40.464 29.417 40.464 30.348C40.464 31.279 39.709 32.034 38.778 32.034ZM38.778 38.778C37.665 38.778 37.193 39.031 36.494 39.419C35.634 39.883 34.571 40.464 32.591 40.464C30.618 40.464 29.547 39.883 28.696 39.419C27.987 39.031 27.524 38.778 26.411 38.778C25.29 38.778 24.826 39.031 24.127 39.419C23.267 39.883 22.205 40.464 20.232 40.464C18.251 40.464 17.188 39.883 16.329 39.419C15.629 39.031 15.157 38.778 14.045 38.778C12.931 38.778 12.468 39.031 11.76 39.419C10.908 39.883 9.838 40.464 7.865 40.464C5.892 40.464 4.822 39.883 3.971 39.419C3.263 39.031 2.799 38.778 1.686 38.778C0.759 38.778 0 38.019 0 37.092C0 36.165 0.759 35.406 1.686 35.406C3.659 35.406 4.729 35.988 5.581 36.451C6.289 36.839 6.753 37.092 7.865 37.092C8.978 37.092 9.441 36.839 10.15 36.451C11.001 35.988 12.072 35.406 14.045 35.406C16.017 35.406 17.088 35.988 17.947 36.451C18.647 36.839 19.111 37.092 20.232 37.092C21.345 37.092 21.809 36.839 22.508 36.451C23.368 35.988 24.431 35.406 26.411 35.406C28.384 35.406 29.454 35.988 30.306 36.451C31.015 36.839 31.477 37.092 32.591 37.092C33.712 37.092 34.176 36.839 34.884 36.451C35.735 35.988 36.806 35.406 38.778 35.406C39.705 35.406 40.464 36.165 40.464 37.092C40.464 38.019 39.705 38.778 38.778 38.778Z" fill="#0B1923"/>
</g>
</svg>
