<svg width="56" height="56" viewBox="0 0 56 56" fill="none" xmlns="http://www.w3.org/2000/svg">
<mask id="mask0" mask-type="alpha" maskUnits="userSpaceOnUse" x="0" y="0" width="56" height="56">
<path fill-rule="evenodd" clip-rule="evenodd" d="M0 0H56V56H0V0Z" fill="white"/>
</mask>
<g mask="url(#mask0)">
<path fill-rule="evenodd" clip-rule="evenodd" d="M50.5265 14.8551V20.7984C50.5265 21.4946 49.9691 22.0602 49.2794 22.0602C48.5908 22.0602 48.0324 21.4946 48.0324 20.7984V17.8956L43.1992 22.6727C42.7108 23.1655 41.9216 23.1655 41.4352 22.6727C40.9468 22.1799 40.9468 21.3819 41.4352 20.8892L46.2674 16.113H43.3985C42.7098 16.113 42.1505 15.5484 42.1505 14.8521C42.1505 14.1549 42.7089 13.5903 43.3985 13.5903H49.2765C49.2775 13.5903 49.2785 13.5893 49.2794 13.5893C49.2824 13.5893 49.2844 13.5903 49.2873 13.5903C49.4472 13.5913 49.607 13.6242 49.757 13.687C49.7668 13.691 49.7747 13.697 49.7846 13.702C49.9168 13.7608 50.0431 13.8436 50.1536 13.9534C50.1555 13.9554 50.1595 13.9564 50.1614 13.9594C50.1644 13.9623 50.1664 13.9663 50.1693 13.9693C50.2759 14.0801 50.3578 14.2057 50.415 14.3384C50.4209 14.3504 50.4278 14.3594 50.4318 14.3703C50.4929 14.52 50.5245 14.6786 50.5255 14.8382C50.5255 14.8432 50.5275 14.8471 50.5275 14.8521C50.5275 14.8531 50.5265 14.8541 50.5265 14.8551ZM44.7915 46.8816C42.8381 48.8577 40.1339 50.0857 37.1485 50.0857H18.8515C12.8797 50.0857 8.0396 45.1918 8.0396 39.1538H47.9604C47.9604 42.1723 46.7459 44.9055 44.7915 46.8816ZM7.00271 22.0602C6.31408 22.0602 5.75568 21.4946 5.75568 20.7984V14.8551C5.75568 14.8541 5.75469 14.8531 5.75469 14.8521C5.75469 14.8471 5.75667 14.8432 5.75667 14.8382C5.75864 14.6786 5.79021 14.52 5.85039 14.3703C5.85533 14.3594 5.86223 14.3504 5.86716 14.3384C5.92537 14.2057 6.00627 14.0801 6.11381 13.9693C6.11677 13.9663 6.11775 13.9623 6.12071 13.9594C6.12367 13.9564 6.12663 13.9554 6.12861 13.9534C6.2391 13.8436 6.36539 13.7608 6.49759 13.702C6.50745 13.697 6.51633 13.691 6.5262 13.687C6.67616 13.6242 6.83598 13.5913 6.99482 13.5903C6.99778 13.5903 6.99975 13.5893 7.00271 13.5893C7.0037 13.5893 7.00469 13.5903 7.00666 13.5903H12.8847C13.5733 13.5903 14.1317 14.1549 14.1317 14.8521C14.1317 15.5484 13.5733 16.113 12.8847 16.113H10.0157L14.848 20.8892C15.3353 21.3819 15.3363 22.1799 14.848 22.6727C14.3606 23.1655 13.5703 23.1655 13.084 22.6727L8.25073 17.8956V20.7984C8.25073 21.4946 7.69134 22.0602 7.00271 22.0602ZM20.0995 25.6992C20.9667 25.6992 21.7836 25.9107 22.5107 26.2778C23.3049 23.9835 25.4596 22.3356 28 22.3356C30.5414 22.3356 32.6951 23.9835 33.4903 26.2778C34.2164 25.9107 35.0333 25.6992 35.9015 25.6992C38.7468 25.6992 41.0731 27.9237 41.2862 30.7447C41.2872 30.7447 41.2892 30.7447 41.2902 30.7447C44.5182 30.7447 47.1287 33.3762 47.1287 36.6311H8.87129C8.87129 33.3762 11.4828 30.7447 14.7098 30.7447C14.7118 30.7447 14.7128 30.7447 14.7148 30.7447C14.9269 27.9237 17.2542 25.6992 20.0995 25.6992ZM23.1273 10.49L27.2837 6.28739C27.2847 6.2864 27.2847 6.2844 27.2857 6.2834C27.2877 6.28241 27.2907 6.28141 27.2926 6.27941C27.4061 6.16669 27.5412 6.07492 27.6912 6.01208C27.7011 6.00709 27.7109 6.00609 27.7208 6.0021C27.8569 5.94923 28.003 5.91731 28.1579 5.91632C28.1618 5.91632 28.1648 5.91432 28.1677 5.91432C28.1727 5.91432 28.1766 5.91632 28.1805 5.91632C28.3325 5.91831 28.4785 5.94923 28.6137 6.0021C28.6245 6.00609 28.6354 6.00709 28.6472 6.01208C28.7942 6.07392 28.9274 6.1647 29.0399 6.27642C29.0428 6.27941 29.0477 6.28041 29.0517 6.2834C29.0517 6.2844 29.0527 6.2864 29.0537 6.28739L33.2101 10.49C33.6965 10.9817 33.6965 11.7808 33.2101 12.2735C32.7218 12.7663 31.9325 12.7663 31.4451 12.2735L29.4157 10.2206L29.3388 17.0547C29.3388 17.7509 28.7794 18.3155 28.0908 18.3155C27.4021 18.3155 26.8427 17.7509 26.8427 17.0547L26.9207 10.2216L24.8913 12.2735C24.4039 12.7663 23.6147 12.7663 23.1273 12.2735C22.6399 11.7808 22.6399 10.9817 23.1273 10.49ZM53.6667 0H2.33325C1.04972 0 0 1.06137 0 2.35914V53.6409C0 54.9386 1.04972 56 2.33325 56H53.6667C54.9503 56 56 54.9386 56 53.6409V2.35914C56 1.06137 54.9503 0 53.6667 0Z" fill="#0B1923"/>
</g>
</svg>
