<svg width="56" height="56" viewBox="0 0 56 56" fill="none" xmlns="http://www.w3.org/2000/svg">
<mask id="mask0" mask-type="alpha" maskUnits="userSpaceOnUse" x="0" y="0" width="56" height="56">
<path fill-rule="evenodd" clip-rule="evenodd" d="M0 0H56V56H0V0Z" fill="white"/>
</mask>
<g mask="url(#mask0)">
<path fill-rule="evenodd" clip-rule="evenodd" d="M44.7915 38.0316C42.8381 40.0077 40.1339 41.2356 37.1485 41.2356H18.8515C12.8797 41.2356 8.0396 36.3418 8.0396 30.3038H47.9604C47.9604 33.3233 46.7459 36.0555 44.7915 38.0316ZM14.7098 21.8947C14.7118 21.8947 14.7128 21.8947 14.7148 21.8947C14.9269 19.0727 17.2542 16.8492 20.0995 16.8492C20.9667 16.8492 21.7836 17.0607 22.5107 17.4287C23.3049 15.1334 25.4596 13.4855 28 13.4855C30.5414 13.4855 32.6951 15.1334 33.4903 17.4287C34.2164 17.0607 35.0333 16.8492 35.9015 16.8492C38.7468 16.8492 41.0731 19.0727 41.2862 21.8947C41.2872 21.8947 41.2892 21.8947 41.2902 21.8947C44.5182 21.8947 47.1287 24.5271 47.1287 27.781H8.87129C8.87129 24.5271 11.4828 21.8947 14.7098 21.8947ZM53.6667 0H2.33325C1.04972 0 0 1.06137 0 2.35914V53.6409C0 54.9386 1.04972 56 2.33325 56H53.6667C54.9503 56 56 54.9386 56 53.6409V2.35914C56 1.06137 54.9503 0 53.6667 0Z" fill="#0B1923"/>
</g>
</svg>
