<svg width="56" height="56" viewBox="0 0 56 56" fill="none" xmlns="http://www.w3.org/2000/svg">
<mask id="mask0" mask-type="alpha" maskUnits="userSpaceOnUse" x="0" y="0" width="56" height="56">
<path fill-rule="evenodd" clip-rule="evenodd" d="M0 0H56V56H0V0Z" fill="white"/>
</mask>
<g mask="url(#mask0)">
<path fill-rule="evenodd" clip-rule="evenodd" d="M32.9938 22H23.4062C22.4685 22 21.7 21.3253 21.7 20.5C21.7 19.6747 22.4685 19 23.4062 19H32.9938C33.9326 19 34.7 19.6747 34.7 20.5C34.7 21.3253 33.9326 22 32.9938 22ZM32.9938 29H23.4062C22.4685 29 21.7 28.3244 21.7 27.5C21.7 26.6747 22.4685 26 23.4062 26H32.9938C33.9326 26 34.7 26.6747 34.7 27.5C34.7 28.3244 33.9326 29 32.9938 29ZM28.2006 13C21.852 13 16.7 18.1518 16.7 24.5C16.7 27.5127 17.8589 30.2575 19.7667 32.304C21.017 33.6608 22.588 34.7196 24.3667 35.3404C24.8649 35.5169 25.3717 35.6621 25.9 35.7697C26.6446 35.9225 27.4118 36 28.2006 36C28.9904 36 29.7565 35.9225 30.5011 35.7697C31.0294 35.6621 31.5351 35.5169 32.0333 35.3404C33.8131 34.7196 35.3852 33.6608 36.6344 32.304C38.5433 30.2575 39.7 27.5127 39.7 24.5C39.7 18.1518 34.548 13 28.2006 13Z" fill="#0B1923"/>
<path fill-rule="evenodd" clip-rule="evenodd" d="M47.6329 13.686C47.6329 14.0791 47.476 14.4342 47.2215 14.6915C46.9669 14.9479 46.6157 15.1075 46.227 15.1075C45.4506 15.1075 44.8211 14.4711 44.8211 13.686V11.0865L39.686 16.3584C41.2655 18.6567 42.2027 21.4378 42.2027 24.4493C42.2027 31.816 36.6463 37.7992 29.5489 38.5214V42.1205H32.3646C33.1914 42.1205 33.8672 42.8038 33.8672 43.6397C33.8672 44.4746 33.1914 45.1589 32.3646 45.1589H29.5489V48.345C29.5489 48.737 29.3921 49.0931 29.1375 49.3495C28.883 49.6069 28.5318 49.7665 28.1431 49.7665C27.3666 49.7665 26.7372 49.1291 26.7372 48.345V45.1589H23.9215C23.0957 45.1589 22.4189 44.4746 22.4189 43.6397C22.4189 42.8038 23.0957 42.1205 23.9215 42.1205H26.7372V38.5214C19.6407 37.7992 14.0844 31.816 14.0844 24.4493C14.0844 16.5958 20.3757 10.2346 28.1431 10.2346C31.9147 10.2346 35.3214 11.7548 37.846 14.1968L42.8332 9.07647H40.2621C39.4857 9.07647 38.8553 8.44005 38.8563 7.655C38.8563 6.86995 39.4857 6.23353 40.2621 6.23353H46.227C47.0034 6.23353 47.6329 6.86995 47.6329 7.655V13.686ZM53.6667 0H2.33325C1.04972 0 0 1.06137 0 2.35914V53.6409C0 54.9386 1.04972 56 2.33325 56H53.6667C54.9503 56 56 54.9386 56 53.6409V2.35914C56 1.06137 54.9503 0 53.6667 0Z" fill="#0B1923"/>
</g>
</svg>
