<svg width="56" height="56" viewBox="0 0 56 56" fill="none" xmlns="http://www.w3.org/2000/svg">
<mask id="mask0" mask-type="alpha" maskUnits="userSpaceOnUse" x="0" y="0" width="56" height="56">
<path fill-rule="evenodd" clip-rule="evenodd" d="M0 0H56V56H0V0Z" fill="white"/>
</mask>
<g mask="url(#mask0)">
<path fill-rule="evenodd" clip-rule="evenodd" d="M40.7485 35.9767C40.7179 35.9767 40.6903 35.9707 40.6597 35.9677C40.6144 35.9727 40.5709 35.9827 40.5236 35.9827H37.5303L40.9843 39.474C41.4707 39.9658 41.4707 40.7648 40.9843 41.2576C40.496 41.7504 39.7067 41.7504 39.2203 41.2576L33.6363 35.6126C33.4025 35.3762 33.2703 35.055 33.2703 34.7208C33.2703 34.3857 33.4025 34.0654 33.6363 33.829L39.2203 28.184C39.463 27.9377 39.7827 27.815 40.1013 27.815C40.42 27.815 40.7406 27.9377 40.9843 28.184C41.4707 28.6768 41.4707 29.4758 40.9843 29.9676L37.5303 33.459H40.5236C40.5532 33.459 40.5818 33.4659 40.6124 33.4689C40.6568 33.4629 40.7012 33.455 40.7485 33.455C43.4971 33.455 45.7347 31.1926 45.7347 28.4135C45.7347 25.6334 43.4971 23.372 40.7485 23.372L32.8461 23.373C32.1574 23.373 31.599 22.8084 31.599 22.1111C31.599 21.4148 32.1574 20.8502 32.8461 20.8502L40.7485 20.8492C44.8734 20.8492 48.2297 24.2418 48.2297 28.4135C48.2297 32.5841 44.8734 35.9767 40.7485 35.9767ZM26.7747 14.3394C26.2005 12.5758 27.1496 10.6745 28.8948 10.0929C30.6401 9.51239 32.5205 10.472 33.0957 12.2356C33.6689 14.0012 32.7208 15.9025 30.9755 16.4831C29.2303 17.0636 27.3489 16.104 26.7747 14.3394ZM29.3704 45.126C29.1494 45.5569 28.7784 45.8562 28.3542 45.9908C27.9309 46.1265 27.4564 46.0986 27.0302 45.8751C26.1798 45.4282 25.8483 44.3689 26.2903 43.509C28.4055 39.3902 26.8516 34.3148 22.8372 32.1063L19.1149 30.207L11.5952 45.115C11.2874 45.7235 10.6787 46.0726 10.0463 46.0726C9.7819 46.0726 9.51157 46.0118 9.25901 45.8811C8.40562 45.4412 8.06624 44.3838 8.50231 43.52L20.8819 18.9779C17.494 18.548 14.0439 20.2507 12.4013 23.4977C11.9681 24.3526 10.9322 24.6907 10.0867 24.2528C9.24125 23.8159 8.90582 22.7675 9.33892 21.9126C12.1921 16.2766 18.8998 13.9274 24.5608 16.4402C24.6812 16.4701 24.7995 16.51 24.915 16.5689L27.042 17.6532C29.031 18.6687 29.8311 21.1236 28.8258 23.1356L25.5572 29.6853C30.425 33.0739 32.1633 39.6895 29.3704 45.126ZM53.6667 0H2.33325C1.04972 0 0 1.06137 0 2.35914V53.6409C0 54.9386 1.04972 56 2.33325 56H53.6667C54.9503 56 56 54.9386 56 53.6409V2.35914C56 1.06137 54.9503 0 53.6667 0Z" fill="#0B1923"/>
</g>
</svg>
