<svg width="24" height="41" viewBox="0 0 24 41" fill="none" xmlns="http://www.w3.org/2000/svg">
<mask id="mask0" mask-type="alpha" maskUnits="userSpaceOnUse" x="0" y="0" width="24" height="41">
<path fill-rule="evenodd" clip-rule="evenodd" d="M0 0.536011H23.604V40.94H0V0.536011Z" fill="white"/>
</mask>
<g mask="url(#mask0)">
<path fill-rule="evenodd" clip-rule="evenodd" d="M14.332 7.28001C16.194 7.28001 17.704 5.77001 17.704 3.90801C17.704 2.04601 16.194 0.536011 14.332 0.536011C12.47 0.536011 10.96 2.04601 10.96 3.90801C10.96 5.77001 12.47 7.28001 14.332 7.28001Z" fill="#0B1923"/>
<path fill-rule="evenodd" clip-rule="evenodd" d="M20.536 22.319L20.317 22.547L19.179 23.727L18.142 24.798C18.016 24.924 17.847 24.983 17.687 24.983C17.535 24.974 17.384 24.916 17.266 24.798L16.035 23.525L15.091 22.547L14.871 22.319C14.138 21.56 14.155 20.321 14.913 19.579C15.646 18.863 16.818 18.939 17.535 19.68L17.704 19.849L17.872 19.68C18.099 19.444 18.37 19.276 18.656 19.183C19.289 18.972 19.988 19.09 20.494 19.579C21.253 20.321 21.27 21.56 20.536 22.319ZM18.547 15.727V15.71L17.603 10.104C17.527 9.455 17.063 8.966 16.507 8.966H10.964C10.963 8.966 10.961 8.966 10.96 8.966C10.957 8.966 10.954 8.966 10.952 8.966H10.825C10.808 8.966 10.783 8.966 10.766 8.974C10.765 8.974 10.763 8.976 10.762 8.976C4.81 9.083 0 13.948 0 19.924C0 20.856 0.755 21.611 1.685 21.611C2.617 21.611 3.372 20.856 3.372 19.924C3.372 16.355 5.948 13.142 9.273 12.338L5.084 29.358C4.933 30.142 5.421 30.884 6.096 30.884H9.273V39.314C9.273 40.245 10.028 41 10.96 41C11.891 41 12.645 40.245 12.645 39.314V30.884H14.332V39.314C14.332 40.241 15.091 41 16.017 41C16.945 41 17.704 40.241 17.704 39.314V29.873C18.421 29.249 18.96 28.338 19.213 27.302C21.742 26.627 23.604 24.317 23.604 21.577C23.604 18.601 21.413 16.14 18.547 15.727Z" fill="#0B1923"/>
</g>
</svg>
