<svg width="56" height="56" viewBox="0 0 56 56" fill="none" xmlns="http://www.w3.org/2000/svg">
<mask id="mask0" mask-type="alpha" maskUnits="userSpaceOnUse" x="0" y="0" width="56" height="56">
<path fill-rule="evenodd" clip-rule="evenodd" d="M0 0H56V56H0V0Z" fill="white"/>
</mask>
<g mask="url(#mask0)">
<path fill-rule="evenodd" clip-rule="evenodd" d="M38.2456 43.7933C36.2705 45.8552 33.513 47.1729 30.3293 47.1729H24.0083C20.8237 47.1729 18.0662 45.8552 16.091 43.7933C13.152 40.7259 11.9829 36.0046 13.8555 31.5866L20.0581 19.2123H34.2796L40.4822 31.5866C42.3537 36.0046 41.1846 40.7259 38.2456 43.7933ZM19.2649 10.4251H23.5298C24.2707 10.4251 24.912 10.9448 25.0738 11.676L26.3751 17.6153H20.0551L18.4934 11.3967C18.3829 10.8979 18.7587 10.4251 19.2649 10.4251ZM27.1733 8.82709H29.544C30.4082 8.82709 31.1038 9.55429 31.1166 10.4251C31.1284 9.55429 31.8338 8.82709 32.6991 8.82709H35.0619C35.5601 8.82709 35.9311 9.28296 35.8443 9.76975L34.2766 17.6153H27.9566L26.3909 9.76975C26.3041 9.28296 26.676 8.82709 27.1733 8.82709ZM53.6667 0H2.33325C1.04972 0 0 1.06137 0 2.35914V53.6409C0 54.9386 1.04972 56 2.33325 56H53.6667C54.9503 56 56 54.9386 56 53.6409V2.35914C56 1.06137 54.9503 0 53.6667 0Z" fill="#0B1923"/>
</g>
<path fill-rule="evenodd" clip-rule="evenodd" d="M24.0898 34.0323C23.8796 35.0196 23.7509 35.7142 23.7057 36.1131C23.6654 35.8036 23.5848 35.335 23.4669 34.7072C23.3471 34.0814 23.2312 33.5273 23.1162 33.0478L22.4403 30.0573H20.4606L19.7641 33.0478C19.658 33.4624 19.546 33.9851 19.4261 34.6158C19.3053 35.2466 19.2208 35.7457 19.1746 36.1131C19.1009 35.5944 18.9673 34.8968 18.7728 34.0215L17.9151 30.0573H15.8529L17.8119 37.9621H20.3349C20.7986 35.8901 21.0599 34.7072 21.1228 34.4154C21.1857 34.1236 21.2486 33.8043 21.3163 33.4556C21.3792 33.1078 21.4254 32.817 21.4549 32.5831C21.4922 32.871 21.5492 33.2296 21.6258 33.658C21.7024 34.0873 21.7584 34.3742 21.7948 34.5186L22.5533 37.9621H25.0782L27.0244 30.0573H24.9662L24.0898 34.0323Z" fill="#0B1923"/>
<path fill-rule="evenodd" clip-rule="evenodd" d="M27.9597 37.9621H30.0622V34.9941H32.4289V33.2807H30.0622V31.7716H32.6283V30.0573H27.9597V37.9621Z" fill="#0B1923"/>
<path fill-rule="evenodd" clip-rule="evenodd" d="M36.6623 33.3288C36.4737 33.5086 36.2192 33.599 35.897 33.599H35.5069V31.7824H36.061C36.6525 31.7824 36.9472 32.0497 36.9472 32.5831C36.9472 32.9005 36.8519 33.149 36.6623 33.3288ZM36.1092 30.0573H33.374V37.9621H35.5069V35.3399H36.1092C37.0671 35.3399 37.8078 35.0992 38.3266 34.6188C38.8493 34.1374 39.1086 33.4546 39.1086 32.5723C39.1086 31.7687 38.8601 31.1488 38.359 30.7116C37.856 30.2763 37.1083 30.0573 36.1092 30.0573Z" fill="#0B1923"/>
</svg>
