<svg width="56" height="56" viewBox="0 0 56 56" fill="none" xmlns="http://www.w3.org/2000/svg">
<mask id="mask0" mask-type="alpha" maskUnits="userSpaceOnUse" x="0" y="0" width="56" height="56">
<path fill-rule="evenodd" clip-rule="evenodd" d="M0 0H56V56H0V0Z" fill="white"/>
</mask>
<g mask="url(#mask0)">
<path fill-rule="evenodd" clip-rule="evenodd" d="M29.5805 39.4521V43.9768H32.7583C33.3216 43.9768 33.877 44.2641 34.1266 44.7749C34.7196 45.9789 33.8682 47.1729 32.7405 47.1729H23.2427C22.6784 47.1729 22.124 46.8856 21.8724 46.3749C21.2814 45.1709 22.1318 43.9768 23.2595 43.9768H26.4195V39.4601C21.0703 38.693 16.9395 34.0325 16.9395 28.3995C16.9395 27.7382 17.4703 27.2015 18.1244 27.2015C18.7785 27.2015 19.3093 27.7382 19.3093 28.3995C19.3093 33.2445 23.1924 37.1867 27.9674 37.1867C32.777 37.1867 36.6907 33.2445 36.6907 28.3995C36.6907 27.7382 37.2215 27.2015 37.8766 27.2015C38.5307 27.2015 39.0615 27.7382 39.0615 28.3995C39.0615 34.0126 34.9337 38.66 29.5805 39.4521ZM21.679 15.2013C21.679 11.695 24.5154 8.82709 27.9832 8.82709H28.0168C31.4846 8.82709 34.321 11.695 34.321 15.2013V28.8165C34.321 32.3218 31.4846 35.1897 28.0168 35.1897H27.9832C24.5154 35.1897 21.679 32.3218 21.679 28.8165V15.2013ZM53.6667 0H2.33325C1.04972 0 0 1.06137 0 2.35914V53.6409C0 54.9386 1.04972 56 2.33325 56H53.6667C54.9503 56 56 54.9386 56 53.6409V2.35914C56 1.06137 54.9503 0 53.6667 0Z" fill="#0B1923"/>
</g>
</svg>
