<svg width="29" height="41" viewBox="0 0 29 41" fill="none" xmlns="http://www.w3.org/2000/svg">
<mask id="mask0" mask-type="alpha" maskUnits="userSpaceOnUse" x="0" y="0" width="29" height="41">
<path fill-rule="evenodd" clip-rule="evenodd" d="M0 0.536011H28.662V40.94H0V0.536011Z" fill="white"/>
</mask>
<g mask="url(#mask0)">
<path fill-rule="evenodd" clip-rule="evenodd" d="M0 14.867C0 6.95201 6.416 0.536011 14.331 0.536011C22.246 0.536011 28.662 6.95201 28.662 14.867H0ZM25.744 18.73L15.207 28.846C15.199 28.854 15.188 28.856 15.179 28.864C15.065 28.968 14.939 29.051 14.802 29.106C14.793 29.109 14.784 29.111 14.774 29.114C14.631 29.168 14.482 29.198 14.331 29.198C14.18 29.198 14.031 29.168 13.888 29.114C13.878 29.111 13.87 29.109 13.86 29.106C13.723 29.051 13.597 28.968 13.483 28.864C13.474 28.856 13.463 28.854 13.455 28.846L2.917 18.73C2.413 18.246 2.398 17.446 2.881 16.942C3.368 16.438 4.166 16.422 4.669 16.906L14.331 26.18L23.993 16.906C24.496 16.422 25.296 16.437 25.781 16.942C26.265 17.446 26.248 18.246 25.744 18.73ZM19.389 40.157C19.389 40.623 19.012 41 18.546 41H10.117C9.651 41 9.273 40.623 9.273 40.157V31.727C9.273 31.261 9.651 30.884 10.117 30.884H18.546C19.012 30.884 19.389 31.261 19.389 31.727V40.157Z" fill="#0B1923"/>
</g>
</svg>
