<svg width="29" height="39" viewBox="0 0 29 39" fill="none" xmlns="http://www.w3.org/2000/svg">
<path fill-rule="evenodd" clip-rule="evenodd" d="M13.6079 9.36901L12.2889 3.41601C12.1259 2.68201 11.4759 2.16101 10.7239 2.16101H6.40094C5.88894 2.16101 5.50794 2.63501 5.61894 3.13501L7.20194 9.36901H13.6079Z" fill="#0B1923"/>
<mask id="mask0" mask-type="alpha" maskUnits="userSpaceOnUse" x="0" y="0" width="29" height="39">
<path fill-rule="evenodd" clip-rule="evenodd" d="M0 0.559021H28.8246V39H0V0.559021Z" fill="white"/>
</mask>
<g mask="url(#mask0)">
<path fill-rule="evenodd" clip-rule="evenodd" d="M18.417 9.36902H21.617L23.206 1.50402C23.294 1.01602 22.918 0.559021 22.413 0.559021H20.018C19.142 0.559021 18.427 1.28802 18.414 2.16102C18.4 1.28802 17.696 0.559021 16.819 0.559021H14.417C13.913 0.559021 13.536 1.01602 13.625 1.50402L15.211 9.36902H18.417Z" fill="#0B1923"/>
<path fill-rule="evenodd" clip-rule="evenodd" d="M15.213 30.992V32.193C15.213 32.857 14.677 33.394 14.012 33.394C13.348 33.394 12.811 32.857 12.811 32.193V30.992H12.41C11.745 30.992 11.209 30.455 11.209 29.79C11.209 29.125 11.745 28.589 12.41 28.589H14.772C15.47 28.589 16.015 28.068 16.015 27.412C16.015 26.707 15.47 26.186 14.772 26.186H14.06C12.05 26.186 10.408 24.577 10.408 22.591C10.408 21.029 11.417 19.7 12.811 19.195V17.777C12.811 17.113 13.348 16.576 14.012 16.576C14.677 16.576 15.213 17.113 15.213 17.777V18.979H16.414C17.079 18.979 17.616 19.515 17.616 20.18C17.616 20.845 17.079 21.381 16.414 21.381H14.06C13.371 21.381 12.811 21.926 12.811 22.591C12.811 23.248 13.371 23.784 14.06 23.784H14.772C16.783 23.784 18.417 25.394 18.417 27.364C18.417 29.23 17.015 30.775 15.213 30.992ZM27.906 23.375L21.62 10.97H7.20501L0.918008 23.375C-0.979992 27.804 0.205008 32.537 3.18401 35.613C5.18601 37.679 7.98101 39 11.209 39H17.616C20.844 39 23.639 37.679 25.64 35.613C28.619 32.537 29.805 27.804 27.906 23.375Z" fill="#0B1923"/>
</g>
</svg>
