<svg width="56" height="56" viewBox="0 0 56 56" fill="none" xmlns="http://www.w3.org/2000/svg">
<mask id="mask0" mask-type="alpha" maskUnits="userSpaceOnUse" x="0" y="0" width="56" height="56">
<path fill-rule="evenodd" clip-rule="evenodd" d="M0 0H56V56H0V0Z" fill="white"/>
</mask>
<g mask="url(#mask0)">
<path fill-rule="evenodd" clip-rule="evenodd" d="M48.1182 42.2322C46.7933 43.5718 44.9602 44.4048 42.9358 44.4048H30.5276C26.9749 44.4048 24.0162 41.8511 23.3414 38.4605H30.2454C31.0012 39.4431 32.1416 40.3489 34.1178 40.3489C36.4915 40.3489 38.2811 39.0441 38.9796 36.9912H50.268C50.268 39.0381 49.4442 40.8915 48.1182 42.2322ZM19.1741 36.0465C19.1741 35.4989 19.5233 35.1019 20.1084 35.1019H37.6665C37.7661 35.1019 37.8598 35.1847 37.8539 35.2794C37.7543 37.3752 36.3839 38.8805 34.1178 38.8805C32.555 38.8805 31.7332 38.1683 31.0041 36.9912H20.1084C19.5233 36.9912 19.1741 36.5952 19.1741 36.0465ZM21.8813 19.2043C21.7017 19.6861 21.167 19.9285 20.6924 19.746C19.5016 19.2891 18.1638 19.0567 16.7146 19.0567C15.2988 19.0567 13.9906 19.3599 12.8265 19.9555C12.6933 20.0243 12.5502 20.0562 12.4111 20.0562C12.0737 20.0562 11.7491 19.8687 11.5873 19.5445C11.3555 19.0846 11.539 18.524 11.9928 18.2906C13.4184 17.5614 15.0078 17.1913 16.7146 17.1913C18.3878 17.1913 19.9466 17.4646 21.3465 18.0013C21.8231 18.1839 22.0628 18.7225 21.8813 19.2043ZM21.8813 27.9097C21.7017 28.3925 21.167 28.6339 20.6924 28.4504C19.5016 27.9945 18.1638 27.7621 16.7146 27.7621C15.2988 27.7621 13.9906 28.0643 12.8265 28.6599C12.6933 28.7287 12.5502 28.7606 12.4111 28.7606C12.0737 28.7606 11.7491 28.5741 11.5873 28.2499C11.3555 27.79 11.539 27.2294 11.9928 26.996C13.4184 26.2668 15.0078 25.8967 16.7146 25.8967C18.3878 25.8967 19.9466 26.169 21.3465 26.7067C21.8231 26.8893 22.0628 27.4289 21.8813 27.9097ZM21.8813 23.5575C21.7017 24.0393 21.167 24.2807 20.6924 24.0982C19.5016 23.6413 18.1638 23.4099 16.7146 23.4099C15.2988 23.4099 13.9906 23.7121 12.8265 24.3077C12.6933 24.3765 12.5502 24.4084 12.4111 24.4084C12.0737 24.4084 11.7491 24.2219 11.5873 23.8967C11.3555 23.4378 11.539 22.8762 11.9928 22.6438C13.4184 21.9146 15.0078 21.5445 16.7146 21.5445C18.3878 21.5445 19.9466 21.8168 21.3465 22.3545C21.8231 22.5371 22.0628 23.0757 21.8813 23.5575ZM18.3247 38.3329H7.49008C6.81033 38.3329 6.25982 37.7762 6.25982 37.0889V17.1913C6.25982 16.505 6.81033 15.9484 7.49008 15.9484H8.10472V14.3933C8.10472 14.094 8.24679 13.8127 8.48652 13.6381C8.59998 13.5544 11.3407 11.5952 16.7146 11.5952C20.7299 11.5952 23.2881 13.0287 24.402 13.8267C25.5158 13.0287 28.074 11.5952 32.0894 11.5952C37.4632 11.5952 40.2039 13.5544 40.3174 13.6381C40.5571 13.8127 40.6982 14.094 40.6982 14.3933V15.9484H41.3148C41.9936 15.9484 42.5441 16.505 42.5441 17.1913V26.5371C42.0952 26.4912 41.6414 26.4833 41.1856 26.5661C40.6045 25.7172 39.7837 25.0857 38.8533 24.6807V14.921C38.0049 14.4601 35.7407 13.4606 32.0894 13.4606C28.3029 13.4606 26.0683 14.8821 25.3244 15.4526V30.4943C24.6131 30.8544 23.9797 31.3651 23.4785 32.0145V15.4566C22.7277 14.889 20.4645 13.4606 16.7146 13.4606C13.0652 13.4606 10.803 14.4591 9.9506 14.921V33.9956C11.2874 33.419 13.5427 32.7367 16.7146 32.7367C17.6469 32.7367 18.4756 32.8295 19.2491 32.9572C18.3089 33.6914 17.7031 34.8335 17.7031 36.1543C17.7031 36.9642 17.934 37.7064 18.3247 38.3329ZM27.3676 18.2906C28.7932 17.5614 30.3816 17.1913 32.0894 17.1913C33.7626 17.1913 35.3214 17.4646 36.7213 18.0013C37.1978 18.1839 37.4376 18.7225 37.2561 19.2043C37.0765 19.6861 36.5418 19.9285 36.0662 19.746C34.8764 19.2891 33.5386 19.0567 32.0894 19.0567C30.6736 19.0567 29.3654 19.3599 28.2003 19.9555C28.0671 20.0243 27.925 20.0562 27.7849 20.0562C27.4475 20.0562 27.1239 19.8687 26.9621 19.5445C26.7303 19.0846 26.9138 18.524 27.3676 18.2906ZM27.3676 22.6438C28.7932 21.9146 30.3816 21.5445 32.0894 21.5445C33.7626 21.5445 35.3214 21.8168 36.7213 22.3545C37.1978 22.5371 37.4376 23.0757 37.2561 23.5575C37.0765 24.0393 36.5418 24.2807 36.0662 24.0982C34.8764 23.6413 33.5386 23.4099 32.0894 23.4099C30.6736 23.4099 29.3654 23.7121 28.2003 24.3077C28.0671 24.3765 27.925 24.4084 27.7849 24.4084C27.4475 24.4084 27.1239 24.2219 26.9621 23.8967C26.7303 23.4378 26.9138 22.8762 27.3676 22.6438ZM45.7416 31.2883C45.7426 31.2883 45.7436 31.2883 45.7445 31.2883C47.9328 31.2883 49.7037 33.0739 49.7037 35.2804H39.2943C39.3012 34.8844 39.1582 34.4714 38.8711 34.1622C38.5603 33.826 38.1213 33.6335 37.6665 33.6335H24.1198C24.7423 32.2519 26.1147 31.2883 27.7178 31.2883C27.7198 31.2883 27.7208 31.2883 27.7218 31.2883C27.8658 29.3751 29.4434 27.8668 31.3731 27.8668C31.9621 27.8668 32.5156 28.0105 33.0088 28.2599C33.5475 26.7037 35.0086 25.5855 36.7312 25.5855C38.4538 25.5855 39.9149 26.7037 40.4545 28.2599C40.9468 28.0105 41.5013 27.8668 42.0903 27.8668C44.019 27.8668 45.5966 29.3751 45.7416 31.2883ZM53.6667 0H2.33325C1.04972 0 0 1.06137 0 2.35914V53.6409C0 54.9386 1.04972 56 2.33325 56H53.6667C54.9503 56 56 54.9386 56 53.6409V2.35914C56 1.06137 54.9503 0 53.6667 0Z" fill="#0B1923"/>
</g>
</svg>
