<svg width="56" height="56" viewBox="0 0 56 56" fill="none" xmlns="http://www.w3.org/2000/svg">
<mask id="mask0" mask-type="alpha" maskUnits="userSpaceOnUse" x="0" y="0" width="56" height="56">
<path fill-rule="evenodd" clip-rule="evenodd" d="M0 0H56V56H0V0Z" fill="white"/>
</mask>
<g mask="url(#mask0)">
<path fill-rule="evenodd" clip-rule="evenodd" d="M30.743 22.8991C29.8922 22.8991 29.0424 23.2214 28.3901 23.859L27.7131 24.4809L27.0362 23.859C26.3839 23.2214 25.5341 22.8991 24.6842 22.8991C23.8658 22.8991 23.0396 23.1978 22.4098 23.7882C21.0334 25.0713 21.1277 27.3211 22.458 28.6425L23.0091 29.1858L27.4302 33.8044C27.5884 33.9616 27.8399 33.9616 27.9971 33.8044L32.4191 29.1858L32.9693 28.6425C34.2995 27.3211 34.3929 25.0713 33.0164 23.7882C32.3867 23.1978 31.5614 22.8991 30.743 22.8991Z" fill="#0B1923"/>
<path fill-rule="evenodd" clip-rule="evenodd" d="M40.4713 30.5083C40.4713 38.3847 34.7028 44.7679 27.8293 44.7679C20.9559 44.7679 15.1873 38.3847 15.1873 30.5083V14.3863C15.1873 14.0032 15.4567 13.6761 15.8286 13.6042L27.6794 11.2471C27.7741 11.2231 27.8846 11.2231 27.9793 11.2471L39.831 13.6042C40.203 13.6761 40.4713 14.0032 40.4713 14.3863V30.5083ZM53.6667 0H2.33325C1.04972 0 0 1.06137 0 2.35914V53.6409C0 54.9386 1.04972 56 2.33325 56H53.6667C54.9503 56 56 54.9386 56 53.6409V2.35914C56 1.06137 54.9503 0 53.6667 0Z" fill="#0B1923"/>
</g>
</svg>
