<svg width="56" height="56" viewBox="0 0 56 56" fill="none" xmlns="http://www.w3.org/2000/svg">
<mask id="mask0" mask-type="alpha" maskUnits="userSpaceOnUse" x="0" y="0" width="56" height="56">
<path fill-rule="evenodd" clip-rule="evenodd" d="M0 0H56V56H0V0Z" fill="white"/>
</mask>
<g mask="url(#mask0)">
<path fill-rule="evenodd" clip-rule="evenodd" d="M25.3985 25.481C25.2 24.6793 25.0683 24.1055 25.0055 23.7587C24.9485 24.08 24.8365 24.6095 24.6695 25.3474C24.5024 26.0862 24.1321 27.5402 23.5573 29.7095H26.5008L25.9044 27.439C25.7649 26.935 25.5969 26.2817 25.3985 25.481Z" fill="#0B1923"/>
<path fill-rule="evenodd" clip-rule="evenodd" d="M50.6607 35.052H47.2116V28.8933C47.2116 28.5731 47.2165 28.219 47.2264 27.8279C47.2343 27.4369 47.2777 26.4793 47.3546 24.9551H47.2688L44.4659 35.052H40.8936L38.0522 24.9361H37.9664C38.0996 26.6588 38.1657 27.9975 38.1657 28.9511V35.052H34.8399V21.0069H39.8379L42.7365 30.9781H42.8124L45.6538 21.0069H50.6607V35.052ZM28.075 35.052L27.3903 32.4195H22.8767L22.1733 35.052H18.0504L22.5827 20.948H27.5896L32.1801 35.052H28.075ZM9.7888 35.052L5.25746 21.0069H9.47507L11.3663 28.1252C11.76 29.7073 11.9741 30.8085 12.0125 31.43C12.0569 30.9821 12.1457 30.4215 12.2789 29.7492C12.4121 29.0758 12.5295 28.5481 12.6301 28.1631L14.5579 21.0069H18.7578L14.2077 35.052H9.7888ZM53.6667 0H2.33325C1.04972 0 0 1.06137 0 2.35914V53.6409C0 54.9386 1.04972 56 2.33325 56H53.6667C54.9503 56 56 54.9386 56 53.6409V2.35914C56 1.06137 54.9503 0 53.6667 0Z" fill="#0B1923"/>
</g>
</svg>
