<svg width="56" height="56" viewBox="0 0 56 56" fill="none" xmlns="http://www.w3.org/2000/svg">
<mask id="mask0" mask-type="alpha" maskUnits="userSpaceOnUse" x="0" y="0" width="56" height="56">
<path fill-rule="evenodd" clip-rule="evenodd" d="M0 0H56V56H0V0Z" fill="white"/>
</mask>
<g mask="url(#mask0)">
<path fill-rule="evenodd" clip-rule="evenodd" d="M38.864 21.8665V38.0279C38.864 38.5309 38.4514 38.9426 37.9483 38.9426H17.8188C17.3158 38.9426 16.9041 38.5309 16.9041 38.0279V21.8665C16.9041 21.3635 17.3158 20.9518 17.8188 20.9518H37.9483C38.4514 20.9518 38.864 21.3635 38.864 21.8665ZM14.3566 20.4302V41.5068H41.4105V20.4321L27.8821 13.4439L14.3566 20.4302Z" fill="#0B1923"/>
<path fill-rule="evenodd" clip-rule="evenodd" d="M44.3564 44.0876H11.6446V19.5116C11.6446 18.8791 11.9099 18.2746 12.3707 17.8527L12.6647 17.6442L26.6938 10.3174C27.4761 9.7478 28.5318 9.7478 29.3043 10.3174L43.6283 17.8527C44.091 18.2776 44.3564 18.8821 44.3564 19.5116V44.0876ZM53.6667 0H2.33325C1.04972 0 0 1.06137 0 2.35914V53.6409C0 54.9386 1.04972 56 2.33325 56H53.6667C54.9503 56 56 54.9386 56 53.6409V2.35914C56 1.06137 54.9503 0 53.6667 0Z" fill="#0B1923"/>
</g>
</svg>
