<svg width="27" height="38" viewBox="0 0 27 38" fill="none" xmlns="http://www.w3.org/2000/svg">
<mask id="mask0" mask-type="alpha" maskUnits="userSpaceOnUse" x="0" y="0" width="27" height="38">
<path fill-rule="evenodd" clip-rule="evenodd" d="M0 0H26.8568V38H0V0Z" fill="white"/>
</mask>
<g mask="url(#mask0)">
<path fill-rule="evenodd" clip-rule="evenodd" d="M17.0205 32.4585C16.364 32.4585 15.8342 31.9277 15.8342 31.2712C15.8342 30.6137 16.364 30.0829 17.0205 30.0829C18.9839 30.0829 20.5834 28.1275 20.5834 25.7288C20.5834 25.0723 21.1132 24.5425 21.7707 24.5425C22.4282 24.5425 22.959 25.0723 22.959 25.7288C22.959 29.4425 20.2979 32.4585 17.0205 32.4585ZM13.7983 0.165882C13.6244 -0.0552939 13.2917 -0.0552939 13.1177 0.165882C11.0276 2.85819 0 17.3532 0 24.2328C0 31.8332 6.02503 38 13.4585 38C20.8921 38 26.9171 31.8332 26.9171 24.2328C26.9171 17.3532 15.8885 2.85819 13.7983 0.165882Z" fill="#0B1923"/>
</g>
</svg>
