<svg width="56" height="56" viewBox="0 0 56 56" fill="none" xmlns="http://www.w3.org/2000/svg">
<mask id="mask0" mask-type="alpha" maskUnits="userSpaceOnUse" x="0" y="0" width="56" height="56">
<path fill-rule="evenodd" clip-rule="evenodd" d="M0 0H56V56H0V0Z" fill="white"/>
</mask>
<g mask="url(#mask0)">
<path fill-rule="evenodd" clip-rule="evenodd" d="M27.9467 46.9116C20.651 46.9116 14.7385 40.7917 14.7385 33.2505C14.7385 26.4254 25.5612 12.0421 27.6123 9.37174C27.783 9.15129 28.1095 9.15129 28.2802 9.37174C30.3313 12.0421 41.153 26.4254 41.153 33.2505C41.153 40.7917 35.2405 46.9116 27.9467 46.9116ZM53.6667 0H2.33325C1.04972 0 0 1.06137 0 2.35914V53.6409C0 54.9386 1.04972 56 2.33325 56H53.6667C54.9503 56 56 54.9386 56 53.6409V2.35914C56 1.06137 54.9503 0 53.6667 0Z" fill="#0B1923"/>
</g>
<path fill-rule="evenodd" clip-rule="evenodd" d="M31.3109 41.6326C34.5127 41.6326 37.1132 38.6852 37.1132 35.057C37.1132 34.4145 36.5955 33.8967 35.952 33.8967C35.3104 33.8967 34.7927 34.4145 34.7927 35.057C34.7927 37.4011 33.2296 39.312 31.3109 39.312C30.6683 39.312 30.1506 39.8308 30.1506 40.4723C30.1506 41.1148 30.6683 41.6326 31.3109 41.6326Z" fill="#0B1923"/>
</svg>
