<svg xmlns="http://www.w3.org/2000/svg" viewBox="0 0 16 16"><g fill="none" fill-rule="evenodd"><path d="M7.5 6.31088724e-30L8.5 6.31088724e-30 8.5 3 7.5 3zM7.5 13L8.5 13 8.5 16 7.5 16z"/><path d="M14 6.5L15 6.5 15 9.5 14 9.5z" transform="rotate(90 14.5 8)"/><path d="M1 6.5L2 6.5 2 9.5 1 9.5z" transform="rotate(90 1.5 8)"/><path d="M2.90380592 1.90380592L3.90380592 1.90380592 3.90380592 4.90380592 2.90380592 4.90380592z" transform="rotate(-45 3.404 3.404)"/><path d="M12.0961941 11.0961941L13.0961941 11.0961941 13.0961941 14.0961941 12.0961941 14.0961941z" transform="rotate(-45 12.596 12.596)"/><path d="M12.0961941 1.90380592L13.0961941 1.90380592 13.0961941 4.90380592 12.0961941 4.90380592z" transform="rotate(45 12.596 3.404)"/><path d="M2.90380592 11.0961941L3.90380592 11.0961941 3.90380592 14.0961941 2.90380592 14.0961941z" transform="rotate(45 3.404 12.596)"/><path d="M8,10.5 C9.38071187,10.5 10.5,9.38071187 10.5,8 C10.5,6.61928813 9.38071187,5.5 8,5.5 C6.61928813,5.5 5.5,6.61928813 5.5,8 C5.5,9.38071187 6.61928813,10.5 8,10.5 Z M8,11.5 C6.06700338,11.5 4.5,9.93299662 4.5,8 C4.5,6.06700338 6.06700338,4.5 8,4.5 C9.93299662,4.5 11.5,6.06700338 11.5,8 C11.5,9.93299662 9.93299662,11.5 8,11.5 Z"/></g></svg>