<svg xmlns="http://www.w3.org/2000/svg" viewBox="0 0 20 20"><g fill="none" fill-rule="evenodd"><path d="M5,2 L12,2 L16,6 L16,17 C16,17.5522847 15.5522847,18 15,18 L5,18 C4.44771525,18 4,17.5522847 4,17 L4,3 C4,2.44771525 4.44771525,2 5,2 Z M11.5857864,3 L5,3 L5,17 L15,17 L15,6.41421356 L11.5857864,3 Z M14.9968895,5.99688951 L16,7 L12.037055,6.98773046 C11.4899019,6.98603644 11.0457035,6.5449187 11.0402016,5.99779069 L11,2 L12.0102092,3.01020917 L12.040151,5.98773525 L14.9968895,5.99688951 Z M16,7 L12.037055,6.98773046 C11.4899019,6.98603644 11.0457035,6.5449187 11.0402016,5.99779069 L11,2 L12.0102092,3.01020917 L12.040151,5.98773525 L14.9968895,5.99688951 L16,7 Z"/><path d="M7 11H13V12H7zM7 14H13V15H7z"/></g></svg>