<svg xmlns="http://www.w3.org/2000/svg" viewBox="0 0 20 20"><path d="M8.5,14 C11.5375661,14 14,11.5375661 14,8.5 C14,5.46243388 11.5375661,3 8.5,3 C5.46243388,3 3,5.46243388 3,8.5 C3,11.5375661 5.46243388,14 8.5,14 Z M13.4362127,12.7291059 L17.8535534,17.1464466 L17.1464466,17.8535534 L12.7291059,13.4362127 C11.5923385,14.4110487 10.1149477,15 8.5,15 C4.91014913,15 2,12.0898509 2,8.5 C2,4.91014913 4.91014913,2 8.5,2 C12.0898509,2 15,4.91014913 15,8.5 C15,10.1149477 14.4110487,11.5923385 13.4362127,12.7291059 Z"/></svg>