<svg xmlns="http://www.w3.org/2000/svg" viewBox="0 0 16 16"><path fill-rule="evenodd" d="M11.4354286,10.0628571 L10.7074286,10.0628571 L10.456,9.81142857 C11.3849098,8.73821547 11.8950484,7.36567063 11.8925714,5.94628571 C11.8925714,2.6622428 9.23032863,-6.87088787e-16 5.94628571,-8.8817842e-16 C2.6622428,-1.08926805e-15 -3.15053441e-15,2.6622428 -3.55271368e-15,5.94628571 C-3.95489294e-15,9.23032863 2.6622428,11.8925714 5.94628571,11.8925714 C7.36477292,11.8945757 8.73665946,11.3863043 9.81142857,10.4605714 L10.0628571,10.712 L10.0628571,11.4354286 L14.6365714,16 L16,14.6365714 L11.4354286,10.0628571 Z M5.94628571,10.0628571 C3.6724505,10.0628571 1.82914286,8.2195495 1.82914286,5.94571429 C1.82914286,3.67187907 3.6724505,1.82857143 5.94628571,1.82857143 C8.22012093,1.82857143 10.0634286,3.67187907 10.0634286,5.94571429 C10.0634286,8.2195495 8.22012093,10.0628571 5.94628571,10.0628571 Z"/></svg>