<svg xmlns="http://www.w3.org/2000/svg" viewBox="0 0 57 57"><path d="M54.4,0 L2.4,0 C1.1,0 0,1.1 0,2.4 L0,4.1 L0,52 L0,53.7 C0,55 1.1,56.1 2.4,56.1 L54.4,56.1 C55.7,56.1 56.8,55 56.8,53.7 L56.8,52 L56.8,4.1 L56.8,2.4 C56.8,1.1 55.7,0 54.4,0 Z M28.4,7.3 C30.9,7.3 33,9.4 33,11.9 C33,14.4 30.9,16.5 28.4,16.5 C25.9,16.5 23.8,14.4 23.8,11.9 C23.8,9.3 25.8,7.3 28.4,7.3 Z M25.8,48.2 C25.1,49 23.9,49 23.1,48.4 C20.7,46.7 19.2,43.9 19.2,40.9 C19.2,37.8 20.7,35.1 23,33.5 C23.1,33.4 23.2,33.4 23.3,33.5 L25.9,36.1 C26,36.2 26,36.4 25.8,36.5 C24.3,37.4 23.2,39 23.2,40.9 C23.2,42.6 24,44.1 25.4,45.1 C26.5,45.8 26.6,47.3 25.8,48.2 Z M33.6,48.5 C33.2,48.7 32.8,48.9 32.4,48.9 C31.8,48.9 31.1,48.6 30.7,48 C30.1,47.1 30.3,45.8 31.2,45.2 C32.6,44.3 33.4,42.7 33.4,41 C33.4,39.1 32.4,37.5 30.8,36.6 C30.7,36.5 30.6,36.3 30.7,36.2 L33.3,33.6 C33.4,33.5 33.5,33.5 33.6,33.6 C35.9,35.3 37.4,38 37.4,41 C37.6,44 36.1,46.8 33.6,48.5 Z M38.6,31.8 C37.5,31.8 36.6,30.9 36.6,29.8 C36.6,27.4 35.3,25.5 33.5,24.2 L33.5,30.8 L23.3,30.8 L23.3,24.2 C21.5,25.4 20.2,27.3 20.2,29.8 C20.2,30.9 19.3,31.8 18.2,31.8 C17.1,31.8 16.2,30.9 16.2,29.8 C16.2,23.6 21.7,18.6 28.4,18.6 C35.1,18.6 40.6,23.6 40.6,29.8 C40.6,30.9 39.7,31.8 38.6,31.8 Z"/></svg>