<svg xmlns="http://www.w3.org/2000/svg" viewBox="0 0 57 57"><path d="M54.4,0 L2.4,0 C1.1,0 0,1.1 0,2.4 L0,4.1 L0,52 L0,53.7 C0,55 1.1,56.1 2.4,56.1 L54.4,56.1 C55.7,56.1 56.8,55 56.8,53.7 L56.8,52 L56.8,4.1 L56.8,2.4 C56.8,1.1 55.7,0 54.4,0 Z M45.2,46.5 C45.2,47 44.8,47.3 44.4,47.3 L28.2,47.3 L34.6,40.9 C34.9,40.6 35.1,40.1 35.1,39.7 C35.1,39.2 34.9,38.8 34.5,38.5 L27.5,32.2 L31.9,28.4 C32.3,28.1 32.5,27.6 32.5,27.2 C32.5,26.7 32.3,26.3 32,25.9 L29,22.9 L31.2,20.7 C31.9,20 31.9,19 31.2,18.3 C30.5,17.6 29.5,17.6 28.8,18.3 L25.4,21.7 C24.7,22.4 24.7,23.4 25.4,24.1 L28.3,27 L23.8,30.9 C23.4,31.2 23.2,31.7 23.2,32.2 C23.2,32.7 23.4,33.1 23.8,33.5 L30.9,39.9 L23.4,47.4 L12.4,47.4 C11.9,47.4 11.6,47 11.6,46.6 L11.6,22.9 C11.6,22.6 11.7,22.3 12,22.1 L27.9,7.1 C28.2,6.8 28.7,6.8 29.1,7.1 L45,22.1 C45.2,22.3 45.4,22.6 45.4,22.9 L45.4,46.5 L45.2,46.5 Z"/></svg>