<svg xmlns="http://www.w3.org/2000/svg" viewBox="0 0 41 42"><g fill-rule="evenodd"><path d="M37.7 35.4L4.5 35.4 5.7 34.2C6.2 33.7 6.2 32.9 5.7 32.4 5.2 31.9 4.4 31.9 3.9 32.4L.6 35.7C.5 35.8.4 36 .3 36.1.3 36.1.3 36.1.3 36.1.2 36.2.2 36.4.2 36.6.2 36.8.2 36.9.3 37.1.3 37.1.3 37.1.3 37.1.4 37.3.5 37.4.6 37.5L3.9 40.8C4.1 41 4.5 41.2 4.8 41.2 5.1 41.2 5.4 41.1 5.7 40.8 6.2 40.3 6.2 39.5 5.7 39L4.5 38 37.7 38C38.4 38 39 37.4 39 36.7 38.9 36 38.4 35.4 37.7 35.4zM40.5 5C40.5 5 40.5 5 40.5 5 40.4 4.8 40.3 4.7 40.2 4.6L36.9 1.3C36.7 1 36.3.8 36 .8 35.7.8 35.4.9 35.1 1.2 34.6 1.7 34.6 2.5 35.1 3L36.3 4.2 3.1 4.2C2.4 4.2 1.8 4.8 1.8 5.5 1.8 6.2 2.4 6.8 3.1 6.8L36.3 6.8 35.1 8C34.6 8.5 34.6 9.3 35.1 9.8 35.6 10.3 36.4 10.3 36.9 9.8L40.2 6.5C40.3 6.4 40.4 6.2 40.5 6.1 40.5 6.1 40.5 6.1 40.5 6.1 40.6 6 40.6 5.8 40.6 5.6 40.6 5.3 40.6 5.1 40.5 5z"/><path fill-rule="nonzero" d="M39,12.6 L1.8,12.6 C1.4,12.6 1,13 1,13.5 L1,28.7 C1,29.2 1.4,29.5 1.8,29.5 L39,29.5 C39.5,29.5 39.8,29.1 39.8,28.7 L39.8,13.5 C39.8,13 39.4,12.6 39,12.6 Z M6.9,23.6 C5.5,23.6 4.4,22.5 4.4,21.1 C4.4,19.7 5.5,18.6 6.9,18.6 C8.3,18.6 9.4,19.7 9.4,21.1 C9.4,22.5 8.3,23.6 6.9,23.6 Z M20.4,27 C17.1,27 14.5,24.4 14.5,21.1 C14.5,17.8 17.1,15.2 20.4,15.2 C23.7,15.2 26.3,17.8 26.3,21.1 C26.3,24.4 23.6,27 20.4,27 Z M33.9,23.6 C32.5,23.6 31.4,22.5 31.4,21.1 C31.4,19.7 32.5,18.6 33.9,18.6 C35.3,18.6 36.4,19.7 36.4,21.1 C36.4,22.5 35.3,23.6 33.9,23.6 Z"/></g></svg>