<svg xmlns="http://www.w3.org/2000/svg" viewBox="0 0 57 57"><path d="M54.4,0 L2.4,0 C1.1,0 0,1.1 0,2.4 L0,4.1 L0,52 L0,53.7 C0,55 1.1,56.1 2.4,56.1 L54.4,56.1 C55.7,56.1 56.8,55 56.8,53.7 L56.8,52 L56.8,4.1 L56.8,2.4 C56.8,1.1 55.7,0 54.4,0 Z M46.1,33.1 C45.8,33.1 45.5,33 45.2,32.9 L31.7,28.8 L31.7,41.4 L36.8,45 C37,45.1 37.1,45.2 37.2,45.4 C37.4,45.7 37.5,46 37.5,46.4 C37.5,47.3 36.7,48.1 35.8,48.1 C35.6,48.1 35.4,48.1 35.2,48 L28.2,45.7 L21,48.3 C20.9,48.3 20.8,48.3 20.7,48.3 C19.8,48.3 19,47.5 19,46.6 C19,46.2 19.2,45.8 19.4,45.5 C19.5,45.4 19.6,45.3 19.8,45.2 L24.9,41.6 L24.9,28.9 L11.5,33 C11.3,33.1 11,33.1 10.7,33.1 C9.3,33.1 8.2,32 8.2,30.6 C8.2,29.7 8.6,29 9.3,28.6 L25,19.6 L25,11.2 C25,9.3 26.5,7.8 28.4,7.8 C30.3,7.8 31.8,9.3 31.8,11.2 L31.8,19.6 C31.8,19.6 47.3,28.3 47.3,28.3 C48.1,28.7 48.6,29.6 48.6,30.5 C48.6,32 47.5,33.1 46.1,33.1 Z"/></svg>