<svg xmlns="http://www.w3.org/2000/svg" viewBox="0 0 57 57"><g fill-rule="evenodd"><path d="M35.3 36.9C34.5 36.9 33.9 37.5 33.9 38.3 33.9 39.1 34.5 39.7 35.3 39.7 36.1 39.7 36.7 39.1 36.7 38.3 36.7 37.5 36.1 36.9 35.3 36.9zM46.9 31.3C46.9 31.1 46.9 31 46.8 30.9 46.6 30.1 45.9 29.5 45 29.5L36.7 29.5C36.4 29.5 36.2 29.6 36 29.7 35.4 30 34.9 30.6 34.9 31.4L34.9 34.2 47 34.2 47 31.3 46.9 31.3zM46.5 36.9C45.7 36.9 45.1 37.5 45.1 38.3 45.1 39.1 45.7 39.7 46.5 39.7 47.3 39.7 47.9 39.1 47.9 38.3 47.9 37.5 47.2 36.9 46.5 36.9z"/><path fill-rule="nonzero" d="M54.4,0 L2.4,0 C1.1,0 0,1.1 0,2.4 L0,4.1 L0,52 L0,53.7 C0,55 1.1,56.1 2.4,56.1 L54.4,56.1 C55.7,56.1 56.8,55 56.8,53.7 L56.8,52 L56.8,4.1 L56.8,2.4 C56.8,1.1 55.7,0 54.4,0 Z M32.1,24.9 L32.1,23 L32.1,21.1 C32.1,20.1 32.9,19.2 34,19.2 L47.9,19.2 C48.9,19.2 49.8,20 49.8,21.1 L49.8,26.8 C48.6,25.6 47,24.8 45.2,24.8 L36.9,24.8 C36.7,24.8 36.5,24.8 36.2,24.8 C36.2,24.8 36.2,24.8 36.2,24.8 C35.5,24.9 34.9,25 34.3,25.3 C34.2,25.3 34.2,25.4 34.1,25.4 C33.4,25.7 32.8,26.2 32.2,26.7 L32.2,24.9 L32.1,24.9 Z M30.2,45.2 C30.2,45.3 30.2,45.4 30.2,45.4 C30.2,45.4 30.2,45.4 30.2,45.4 C30.2,45.5 30.1,45.6 30,45.7 C30,45.7 30,45.7 30,45.7 C30,45.7 30,45.7 30,45.7 C29.9,45.8 29.8,45.8 29.8,45.9 C29.8,45.9 29.7,45.9 29.7,45.9 C29.6,45.9 29.5,46 29.4,46 C29.3,46 29.2,46 29.1,46 C29.1,46 29.1,46 29.1,46 L23.8,44.3 L18.5,46 C18.5,46 18.5,46 18.5,46 C18.4,46 18.3,46 18.2,46 C18.2,46 18.1,46 18.1,46 C18,46 17.9,46 17.9,45.9 C17.9,45.9 17.8,45.9 17.8,45.9 C17.8,45.9 17.7,45.8 17.7,45.8 C17.6,45.8 17.6,45.7 17.5,45.7 C17.5,45.7 17.5,45.7 17.5,45.7 C17.5,45.7 17.4,45.6 17.4,45.6 C17.4,45.5 17.3,45.5 17.3,45.4 C17.3,45.4 17.3,45.4 17.3,45.4 C17.3,45.3 17.3,45.2 17.3,45.2 C17.3,45.2 17.3,45.1 17.3,45.1 C17.3,45 17.3,45 17.4,44.9 C17.4,44.8 17.4,44.8 17.4,44.7 C17.4,44.7 17.5,44.6 17.5,44.6 C17.5,44.5 17.6,44.5 17.6,44.4 C17.6,44.4 17.6,44.4 17.6,44.4 L21,41.6 L21,27.4 L8.4,30.4 C8.3,30.4 8.1,30.4 8,30.4 C7.8,30.4 7.6,30.4 7.5,30.3 C7.4,30.3 7.4,30.3 7.3,30.2 C7.3,30.2 7.2,30.2 7.2,30.2 C7.2,30.2 7.1,30.2 7.1,30.1 C6.8,29.9 6.5,29.6 6.4,29.3 C6.4,29.2 6.3,29.2 6.3,29.1 C6.3,29 6.3,29 6.2,28.9 C6.2,28.9 6.2,28.9 6.2,28.9 C6.1,28.6 6.1,28.3 6.2,28 C6.2,27.9 6.2,27.9 6.3,27.8 C6.3,27.8 6.3,27.7 6.3,27.7 C6.3,27.7 6.3,27.6 6.4,27.6 C6.6,27.3 6.9,27 7.3,26.8 L21,20.4 L21,12.8 C21,11.3 22.2,10 23.8,10 C25.3,10 26.6,11.2 26.6,12.8 L26.6,20.4 L29.4,21.7 L29.4,24.2 L29.4,25.8 L29.4,28 L26.6,27.3 L26.6,41.6 L30,44.4 C30,44.4 30,44.4 30,44.4 C30.1,44.5 30.1,44.5 30.2,44.6 C30.2,44.6 30.3,44.7 30.3,44.7 C30.3,44.8 30.3,44.8 30.3,44.9 C30.3,45 30.3,45 30.4,45.1 C30.2,45.2 30.2,45.2 30.2,45.2 Z M50.6,42.4 C50.6,42.9 50.2,43.3 49.7,43.3 L48.8,43.3 L48.8,44.7 C48.8,45.5 48.2,46.1 47.4,46.1 C46.6,46.1 46,45.5 46,44.7 L46,43.3 L35.8,43.3 L35.8,44.7 C35.8,45.5 35.2,46.1 34.4,46.1 C33.6,46.1 33,45.5 33,44.7 L33,43.3 L32.1,43.3 C31.6,43.3 31.2,42.9 31.2,42.4 L31.2,35 C31.2,34.5 31.6,34.1 32.1,34.1 L32.1,31.3 C32.1,30.4 32.4,29.6 32.8,28.8 C33,28.4 33.3,28.1 33.7,27.8 C33.8,27.7 33.9,27.6 34,27.6 C34.8,27 35.7,26.7 36.8,26.7 L45.1,26.7 C47.7,26.7 49.7,28.8 49.7,31.3 L49.7,34.1 C50.2,34.1 50.6,34.5 50.6,35 L50.6,42.4 Z"/></g></svg>