<svg xmlns="http://www.w3.org/2000/svg" viewBox="0 0 57 57"><g fill-rule="evenodd"><path d="M43.1 23.8C42.7 23.6 42.3 23.6 42 23.5 41.6 23.5 41.1 23.5 40.5 23.5L39.9 23.5 39.9 27.9 41 27.9C41.6 27.9 42.2 27.9 42.6 27.8 43 27.7 43.4 27.6 43.6 27.3 43.8 27.1 44 26.8 44.1 26.6 44.2 26.3 44.3 26 44.3 25.5 44.3 25.1 44.2 24.7 44 24.4 43.6 24.1 43.3 23.9 43.1 23.8zM28.6 29.3L28.6 24 24.4 29.3z"/><path fill-rule="nonzero" d="M54.4,0 L2.4,0 C1.1,0 0,1.1 0,2.4 L0,4.1 L0,52 L0,53.7 C0,55 1.1,56.1 2.4,56.1 L54.4,56.1 C55.7,56.1 56.8,55 56.8,53.7 L56.8,52 L56.8,4.1 L56.8,2.4 C56.8,1.1 55.7,0 54.4,0 Z M20.4,27.3 C20.2,27.9 19.8,28.4 19.4,28.9 C18.8,29.5 18.2,29.9 17.5,30.2 C16.8,30.5 15.9,30.6 14.8,30.6 L12.5,30.6 L12.5,35.3 L8.7,35.3 L8.7,20.8 L14.9,20.8 C15.8,20.8 16.6,20.9 17.2,21 C17.8,21.2 18.4,21.4 18.9,21.7 C19.5,22.1 19.9,22.6 20.2,23.2 C20.5,23.8 20.7,24.5 20.7,25.4 C20.7,26 20.6,26.7 20.4,27.3 Z M34.2,32 L32.2,32 L32.2,35.4 L28.6,35.4 L28.6,32 L21.5,32 L21.5,29.2 L28.3,20.8 L32.1,20.8 L32.1,29.3 L34.1,29.3 L34.1,32 L34.2,32 Z M47.7,27.3 C47.5,27.9 47.1,28.4 46.7,28.9 C46.1,29.5 45.5,29.9 44.8,30.2 C44.1,30.5 43.2,30.6 42.1,30.6 L39.8,30.6 L39.8,35.3 L36,35.3 L36,20.8 L42.2,20.8 C43.1,20.8 43.9,20.9 44.5,21 C45.1,21.2 45.7,21.4 46.2,21.7 C46.8,22.1 47.2,22.6 47.5,23.2 C47.8,23.8 48,24.5 48,25.4 C48,26 47.9,26.7 47.7,27.3 Z"/><path d="M15.7,23.8 C15.3,23.6 14.9,23.6 14.6,23.5 C14.2,23.5 13.7,23.5 13.1,23.5 L12.5,23.5 L12.5,27.9 L13.6,27.9 C14.2,27.9 14.8,27.9 15.2,27.8 C15.6,27.7 16,27.6 16.2,27.3 C16.4,27.1 16.6,26.8 16.7,26.6 C16.8,26.3 16.9,26 16.9,25.5 C16.9,25.1 16.8,24.7 16.6,24.4 C16.3,24.1 16,23.9 15.7,23.8 Z"/></g></svg>