<svg xmlns="http://www.w3.org/2000/svg" viewBox="0 0 41 38"><path d="M21.8,36.2 C21.6,36.6 21.2,36.9 20.8,37.1 C20.4,37.2 19.9,37.2 19.5,37 C18.6,36.6 18.3,35.5 18.7,34.6 C20.8,30.5 19.3,25.4 15.2,23.2 L11.4,21.3 L3.8,36.2 C3.5,36.8 2.9,37.2 2.2,37.2 C1.9,37.2 1.7,37.1 1.4,37 C0.5,36.6 0.2,35.5 0.6,34.6 L13.2,10 C9.8,9.6 6.3,11.3 4.6,14.5 C4.2,15.4 3.1,15.7 2.3,15.3 C1.4,14.9 1,13.8 1.5,13 C4.4,7.3 11.2,5 16.9,7.5 C17,7.5 17.1,7.6 17.3,7.6 L19.5,8.7 C21.5,9.7 22.3,12.2 21.3,14.2 L18,20.8 C22.8,24.2 24.6,30.8 21.8,36.2 Z M19.1,5.4 C18.5,3.6 19.5,1.7 21.2,1.1 C23,0.5 24.9,1.5 25.5,3.2 C26.1,5 25.1,6.9 23.4,7.5 C21.6,8.1 19.7,7.1 19.1,5.4 Z M33.3,27.1 C33.3,27.1 33.2,27.1 33.3,27.1 C33.2,27.1 33.1,27.1 33.1,27.1 L30.1,27.1 L33.6,30.6 C34.1,31.1 34.1,31.9 33.6,32.4 C33.1,32.9 32.3,32.9 31.8,32.4 L26.1,26.7 C25.9,26.5 25.7,26.1 25.7,25.8 C25.7,25.5 25.8,25.1 26.1,24.9 L31.8,19.2 C32,19 32.4,18.8 32.7,18.8 C33,18.8 33.3,18.9 33.6,19.2 C34.1,19.7 34.1,20.5 33.6,21 L30,24.5 L33,24.5 C33,24.5 33.1,24.5 33.1,24.5 C33.1,24.5 33.2,24.5 33.2,24.5 C36,24.5 38.3,22.2 38.3,19.4 C38.3,16.6 36,14.3 33.2,14.3 L25.2,14.3 C24.5,14.3 23.9,13.7 23.9,13 C23.9,12.3 24.5,11.7 25.2,11.7 L33.2,11.7 C37.4,11.7 40.8,15.1 40.8,19.3 C40.8,23.5 37.5,27.1 33.3,27.1 Z"/></svg>