<?xml version="1.0" encoding="utf-8"?>
<!-- Generated by IcoMoon.io -->
<!DOCTYPE svg PUBLIC "-//W3C//DTD SVG 1.1//EN" "http://www.w3.org/Graphics/SVG/1.1/DTD/svg11.dtd">
<svg version="1.1" xmlns="http://www.w3.org/2000/svg" xmlns:xlink="http://www.w3.org/1999/xlink" width="24" height="24" viewBox="0 0 24 24">
<path fill="#444444" d="M11.995 2c-5.525 0-9.995 4.475-9.995 10s4.47 10 9.995 10c5.525 0 10.005-4.475 10.005-10s-4.48-10-10.005-10zM12 20c-4.42 0-8-3.58-8-8s3.58-8 8-8 8 3.58 8 8-3.58 8-8 8zM15.5 11c0.83 0 1.5-0.67 1.5-1.5s-0.67-1.5-1.5-1.5-1.5 0.67-1.5 1.5 0.67 1.5 1.5 1.5zM8.5 11c0.83 0 1.5-0.67 1.5-1.5s-0.67-1.5-1.5-1.5-1.5 0.67-1.5 1.5 0.67 1.5 1.5 1.5zM12 17.5c2.33 0 4.305-1.455 5.105-3.5h-10.21c0.8 2.045 2.775 3.5 5.105 3.5z"></path>
</svg>
