<?xml version="1.0" encoding="utf-8"?>
<!-- Generated by IcoMoon.io -->
<!DOCTYPE svg PUBLIC "-//W3C//DTD SVG 1.1//EN" "http://www.w3.org/Graphics/SVG/1.1/DTD/svg11.dtd">
<svg version="1.1" xmlns="http://www.w3.org/2000/svg" xmlns:xlink="http://www.w3.org/1999/xlink" width="24" height="24" viewBox="0 0 24 24">
<path fill="#444444" d="M19 2h-14c-1.105 0-2 0.895-2 2v14c0 1.105 0.895 2 2 2h4l3 3 3-3h4c1.105 0 2-0.895 2-2v-14c0-1.105-0.895-2-2-2zM13 18h-2v-2h2v2zM15.065 10.255l-0.895 0.92c-0.72 0.72-1.17 1.325-1.17 2.825h-2v-0.5c0-1.105 0.45-2.105 1.17-2.83l1.245-1.26c0.36-0.36 0.585-0.86 0.585-1.41 0-1.105-0.895-2-2-2s-2 0.895-2 2h-2c0-2.21 1.79-4 4-4s4 1.79 4 4c0 0.88-0.355 1.675-0.935 2.255z"></path>
</svg>
