<?xml version="1.0" encoding="utf-8"?>
<!-- Generated by IcoMoon.io -->
<!DOCTYPE svg PUBLIC "-//W3C//DTD SVG 1.1//EN" "http://www.w3.org/Graphics/SVG/1.1/DTD/svg11.dtd">
<svg version="1.1" xmlns="http://www.w3.org/2000/svg" xmlns:xlink="http://www.w3.org/1999/xlink" width="24" height="24" viewBox="0 0 24 24">
<path fill="#444444" d="M12.87 15.075l-2.54-2.51 0.030-0.030c1.74-1.94 2.98-4.17 3.71-6.53h2.93v-2.005h-7v-2h-2v2h-7v1.99h11.17c-0.675 1.93-1.73 3.76-3.17 5.36-0.93-1.035-1.7-2.16-2.31-3.35h-2c0.73 1.63 1.73 3.17 2.98 4.56l-5.085 5.025 1.415 1.415 5-5 3.11 3.11 0.76-2.035zM18.5 10h-2l-4.5 12h2l1.125-3h4.75l1.125 3h2l-4.5-12zM15.875 17l1.625-4.335 1.625 4.335h-3.25z"></path>
</svg>
