<?xml version="1.0" encoding="UTF-8"?>
<svg width="134px" height="58px" viewBox="0 0 134 58" version="1.1" xmlns="http://www.w3.org/2000/svg" xmlns:xlink="http://www.w3.org/1999/xlink">
    <!-- Generator: Sketch 48.2 (47327) - http://www.bohemiancoding.com/sketch -->
    <title>standard/fr/wfp-logo-standard-white-fr</title>
    <desc>Created with Sketch.</desc>
    <defs></defs>
    <g id="White" stroke="none" stroke-width="1" fill="none" fill-rule="evenodd" transform="translate(-688.000000, -614.000000)">
        <g id="standard/fr/wfp-logo-standard-white-fr" transform="translate(688.000000, 614.000000)" fill="#FFFFFF">
            <path d="M35.934,4.664 L36.482,4.664 C36.993,4.664 37.377,4.563 37.631,4.36 C37.885,4.158 38.012,3.863 38.012,3.477 C38.012,3.087 37.905,2.799 37.693,2.612 C37.479,2.426 37.146,2.332 36.691,2.332 L35.934,2.332 L35.934,4.664 Z M39.694,3.418 C39.694,4.263 39.429,4.909 38.901,5.356 C38.373,5.805 37.622,6.028 36.648,6.028 L35.934,6.028 L35.934,8.821 L34.269,8.821 L34.269,0.969 L36.777,0.969 C37.729,0.969 38.453,1.173 38.949,1.584 C39.445,1.994 39.694,2.605 39.694,3.418 Z M30.157,8.821 L28.519,8.821 L28.519,0.969 L33.02,0.969 L33.02,2.332 L30.157,2.332 L30.157,4.358 L32.821,4.358 L32.821,5.717 L30.157,5.717 L30.157,8.821 Z M25.632,8.821 L23.736,8.821 L22.673,4.696 C22.633,4.549 22.566,4.246 22.471,3.786 C22.376,3.325 22.321,3.016 22.307,2.859 C22.286,3.053 22.232,3.364 22.147,3.791 C22.06,4.219 21.994,4.525 21.947,4.707 L20.889,8.821 L18.999,8.821 L16.995,0.969 L18.634,0.969 L19.638,5.254 C19.814,6.046 19.94,6.732 20.019,7.312 C20.041,7.108 20.09,6.792 20.167,6.364 C20.244,5.935 20.317,5.603 20.385,5.368 L21.528,0.969 L23.102,0.969 L24.246,5.368 C24.297,5.564 24.359,5.866 24.435,6.27 C24.509,6.675 24.567,7.022 24.606,7.312 C24.642,7.032 24.699,6.684 24.778,6.267 C24.857,5.85 24.928,5.513 24.993,5.254 L25.992,0.969 L27.63,0.969 L25.632,8.821 Z M21.559,36.134 C18.508,36.134 16.55,36.858 16.015,37.083 C15.984,37.097 15.958,37.052 15.982,37.027 C19.335,33.542 23.26,33.734 24.205,33.734 C25.16,33.734 35.366,33.734 35.366,33.734 C35.929,33.734 36.385,34.271 36.385,34.935 C36.385,35.597 35.929,36.134 35.366,36.134 C35.366,36.134 24.166,36.134 21.559,36.134 Z M24.074,39.219 C20.786,39.219 19.828,37.351 14.852,38.584 C14.818,38.593 14.795,38.546 14.824,38.526 C17.598,36.623 20.615,36.796 21.835,36.796 C22.79,36.796 35.366,36.796 35.366,36.796 C35.929,36.796 36.385,37.333 36.385,37.995 C36.385,38.657 35.929,39.194 35.366,39.194 C35.366,39.194 26.677,39.219 24.074,39.219 Z M24.307,42.256 C20.933,42.256 20.663,39.766 15.661,39.205 C15.626,39.201 15.622,39.149 15.656,39.141 C19.765,38.113 21.294,39.856 23.693,39.856 C24.649,39.856 35.366,39.856 35.366,39.856 C35.929,39.856 36.385,40.393 36.385,41.056 C36.385,41.719 35.929,42.256 35.366,42.256 C35.366,42.256 26.913,42.256 24.307,42.256 Z M23.575,33.073 C20.859,33.073 18.607,34.258 18.08,34.557 C18.05,34.573 18.021,34.538 18.04,34.511 C18.481,33.862 20.86,30.674 24.95,30.674 C25.905,30.674 35.366,30.674 35.366,30.674 C35.929,30.674 36.385,31.211 36.385,31.874 C36.385,32.536 35.929,33.073 35.366,33.073 C35.366,33.073 26.181,33.073 23.575,33.073 Z M38.516,26.448 C38.411,26.342 38.253,26.265 38.072,26.243 C37.938,26.225 37.818,26.246 37.71,26.286 C37.757,26.187 37.797,26.081 37.812,25.956 C37.839,25.763 37.802,25.581 37.729,25.444 C37.393,24.708 38.353,23.235 38.232,23.169 C38.117,23.105 37.571,24.729 37.041,25.385 C36.939,25.505 36.865,25.677 36.841,25.874 C36.823,26.068 36.855,26.251 36.928,26.387 C37.002,26.519 37.114,26.613 37.246,26.621 C37.282,26.626 37.319,26.623 37.353,26.615 C37.345,26.634 37.338,26.655 37.335,26.674 C37.314,26.817 37.369,26.953 37.477,27.062 C37.582,27.173 37.736,27.247 37.918,27.269 C38.104,27.293 38.277,27.256 38.411,27.176 C39.13,26.783 40.621,26.395 40.589,26.257 C40.56,26.119 39.106,26.972 38.516,26.448 Z M39.615,25.374 C39.516,25.266 39.374,25.191 39.209,25.175 C39.114,25.17 39.028,25.186 38.941,25.218 C38.954,25.172 38.972,25.133 38.978,25.087 C38.996,24.912 38.954,24.75 38.875,24.625 C38.51,23.948 39.463,22.669 39.34,22.606 C39.216,22.542 38.694,23.974 38.164,24.54 C38.059,24.641 37.986,24.79 37.967,24.965 C37.951,25.141 37.991,25.306 38.067,25.43 C38.151,25.553 38.266,25.64 38.405,25.659 C38.466,25.664 38.529,25.653 38.584,25.638 C38.581,25.645 38.573,25.656 38.576,25.664 C38.563,25.813 38.618,25.956 38.715,26.062 C38.815,26.169 38.959,26.243 39.119,26.257 C39.285,26.272 39.437,26.227 39.552,26.14 C40.172,25.693 41.589,25.428 41.552,25.284 C41.518,25.146 40.161,25.895 39.615,25.374 Z M40.578,24.381 C40.476,24.304 40.337,24.261 40.19,24.277 C40.119,24.28 40.054,24.301 39.993,24.328 C40.004,24.298 40.022,24.274 40.032,24.245 C40.072,24.094 40.059,23.939 40.009,23.815 C39.778,23.15 40.801,22.167 40.702,22.087 C40.602,22.013 39.938,23.204 39.392,23.623 C39.287,23.701 39.203,23.823 39.161,23.977 C39.117,24.125 39.13,24.282 39.182,24.405 C39.237,24.53 39.327,24.622 39.447,24.66 C39.539,24.689 39.631,24.67 39.718,24.633 C39.699,24.683 39.689,24.742 39.694,24.803 C39.707,24.939 39.773,25.053 39.881,25.133 C39.982,25.212 40.122,25.252 40.266,25.242 C40.416,25.226 40.545,25.162 40.633,25.066 C41.124,24.569 42.347,24.104 42.298,23.985 C42.245,23.865 41.146,24.75 40.578,24.381 Z M42.473,22.247 C42.371,22.096 41.515,23.034 40.883,23.124 C40.765,23.14 40.633,23.198 40.524,23.302 C40.405,23.408 40.329,23.538 40.303,23.663 C40.274,23.786 40.293,23.905 40.358,23.987 C40.429,24.073 40.537,24.11 40.657,24.096 C40.778,24.083 40.904,24.025 41.022,23.915 C41.132,23.812 41.209,23.682 41.237,23.559 C41.429,22.916 42.549,22.345 42.473,22.247 Z M24.779,23.517 C24.754,23.61 24.569,24.333 24.569,24.333 C24.517,24.362 24.297,24.314 24.239,24.309 C23.817,24.269 23.439,23.902 23.601,23.464 C23.734,23.106 24.005,23.068 24.349,23.052 C24.492,23.046 24.749,23.08 24.878,23.169 C24.878,23.169 24.827,23.334 24.779,23.517 Z M24.294,25.699 C24.281,25.781 24.268,25.863 24.255,25.946 C23.992,25.781 23.838,25.404 23.964,25.106 C24.061,24.88 24.301,24.821 24.478,24.811 C24.415,25.106 24.352,25.401 24.294,25.699 Z M23.916,28.395 C23.883,28.58 23.633,28.605 23.462,28.656 C22.966,28.805 22.496,28.741 22.344,28.148 C22.179,27.514 22.659,27.247 23.174,27.123 C23.454,27.057 23.714,27.112 23.906,27.349 C23.954,27.408 24.011,27.461 24.024,27.517 C24.024,27.517 23.947,28.221 23.916,28.395 Z M22.355,25.273 C22.738,25.181 23.134,25.037 23.428,25.414 C23.738,25.81 23.635,26.445 23.137,26.613 C22.809,26.724 22.412,26.82 22.132,26.552 C21.764,26.201 21.791,25.404 22.355,25.273 Z M21.979,23.217 C22.383,23.119 22.801,22.97 23.111,23.366 C23.433,23.78 23.326,24.45 22.803,24.625 C22.457,24.739 22.04,24.84 21.746,24.558 C21.36,24.192 21.389,23.355 21.979,23.217 Z M21.604,27.662 C21.499,28.032 21.194,28.087 20.875,28.164 C20.665,27.907 20.101,27.255 20.091,27.178 C20.088,27.153 20.091,27.124 20.103,27.088 C20.129,27.011 20.218,26.937 20.284,26.894 C20.476,26.769 20.885,26.677 21.106,26.722 C21.502,26.807 21.709,27.29 21.604,27.662 Z M19.599,25.763 C19.31,24.739 21.027,24.293 21.292,25.297 C21.565,26.329 19.833,26.767 19.599,25.763 Z M19.347,23.719 C19.053,22.702 20.778,22.255 21.043,23.254 C21.316,24.287 19.581,24.726 19.347,23.719 Z M19.106,21.71 C18.825,20.762 20.444,20.342 20.691,21.277 C20.945,22.239 19.326,22.654 19.106,21.71 Z M18.94,25.577 C18.861,25.624 18.831,25.649 18.804,25.649 L18.034,24.811 C18.043,24.787 18.281,24.615 18.361,24.569 C19.001,24.213 19.528,25.231 18.94,25.577 Z M17.479,23.69 C17.098,22.85 18.484,21.939 18.903,22.845 C19.289,23.679 17.903,24.606 17.479,23.69 Z M18.644,21.03 C19.082,21.809 17.762,22.678 17.384,21.84 C17.048,21.118 18.221,20.275 18.644,21.03 Z M17.536,19.215 C17.731,19.043 17.956,18.95 18.187,19.061 C18.557,19.239 18.568,19.794 18.245,20.015 C18.098,20.116 17.849,20.241 17.668,20.196 C17.271,20.095 17.195,19.516 17.536,19.215 Z M17.586,17.546 C17.746,17.438 17.959,17.341 18.142,17.416 C18.477,17.553 18.465,18.038 18.195,18.232 C18.071,18.32 17.849,18.429 17.699,18.389 C17.361,18.304 17.278,17.755 17.586,17.546 Z M18.473,15.168 C18.672,15.061 18.959,15.016 19.137,15.216 C19.347,15.451 19.279,15.809 19.003,15.95 C18.791,16.056 18.505,16.096 18.336,15.899 C18.153,15.687 18.191,15.321 18.473,15.168 Z M18.316,16.975 C18.155,16.38 19.158,16.099 19.321,16.704 C19.502,17.291 18.476,17.584 18.316,16.975 Z M19.932,18.014 C20.166,18.657 19.077,19.021 18.864,18.386 C18.647,17.743 19.741,17.376 19.932,18.014 Z M20.069,14.881 C20.277,14.798 20.543,14.708 20.775,14.881 C21.064,15.097 21.001,15.583 20.67,15.734 C20.452,15.833 20.174,15.899 19.98,15.726 C19.733,15.506 19.719,15.021 20.069,14.881 Z M19.877,20.262 C19.583,20.331 19.276,20.448 19.032,20.196 C18.72,19.874 18.809,19.311 19.232,19.157 C19.505,19.053 19.851,18.995 20.074,19.223 C20.36,19.516 20.329,20.153 19.877,20.262 Z M19.882,16.978 C19.694,16.34 20.732,16.013 20.932,16.632 C21.137,17.267 20.061,17.605 19.882,16.978 Z M21.622,18.147 C21.866,18.875 20.636,19.263 20.41,18.546 C20.182,17.812 21.421,17.424 21.622,18.147 Z M21.688,16.197 C21.905,16.139 22.134,16.16 22.299,16.337 C22.551,16.608 22.465,17.071 22.092,17.14 C21.916,17.172 21.646,17.159 21.509,17.039 C21.263,16.821 21.275,16.308 21.688,16.197 Z M22.738,17.725 C23.134,17.725 23.334,18.307 23.103,18.596 C22.964,18.771 22.664,18.782 22.46,18.75 C22.082,18.692 21.84,18.205 22.095,17.876 C22.25,17.677 22.515,17.725 22.738,17.725 Z M20.835,20.121 C20.591,19.284 22.013,18.91 22.231,19.741 C22.452,20.586 21.022,20.958 20.835,20.121 Z M21.706,21.192 C22.095,21.152 22.499,21.062 22.738,21.469 C22.987,21.899 22.801,22.497 22.297,22.598 C21.966,22.667 21.565,22.699 21.329,22.406 C21.019,22.019 21.142,21.245 21.706,21.192 Z M23.681,19.328 C24.161,19.526 24.323,20.092 23.985,20.408 C23.803,20.573 23.473,20.541 23.25,20.496 C22.803,20.408 22.512,19.738 22.903,19.42 C23.104,19.257 23.463,19.237 23.681,19.328 Z M24.436,21.346 C24.737,21.716 24.625,22.369 24.097,22.401 C23.822,22.417 23.462,22.385 23.276,22.159 C22.977,21.798 23.09,21.12 23.617,21.102 C23.893,21.091 24.25,21.12 24.436,21.346 Z M26.475,14.682 C26.446,14.64 26.394,14.616 26.341,14.632 C26.278,14.653 26.236,14.722 26.26,14.783 C27.465,18.02 25.926,19.614 25.283,21.88 C24.512,20.039 27.068,18.307 25.751,14.951 C25.732,14.908 25.698,14.873 25.651,14.866 C25.585,14.857 25.522,14.884 25.512,14.972 C25.478,15.208 25.323,17.068 23.814,18.158 C23.659,17.802 23.431,17.43 23.111,17.137 C22.971,16.51 22.562,15.649 21.701,15.395 C21.572,15.07 21.313,14.605 20.814,14.355 C20.344,14.121 19.801,14.142 19.197,14.416 C18.468,14.501 17.966,14.786 17.702,15.261 C17.452,15.71 17.497,16.199 17.581,16.532 C16.967,17.188 16.938,18.16 16.954,18.541 C16.589,19.417 16.794,20.44 16.909,20.865 C16.473,22.056 16.899,23.211 17.069,23.594 C17.069,23.698 17.074,23.796 17.08,23.894 C15.652,22.332 12.403,20.397 11.162,19.659 C11.104,19.624 11.03,19.632 10.981,19.68 C10.918,19.739 10.915,19.834 10.973,19.898 C13.741,22.598 16.211,25.93 18.583,32.844 C19.767,31.613 21.906,29.995 24.95,29.995 L28.511,29.995 C26.249,21.567 29.543,18.551 26.475,14.682 Z M43.311,19.04 C42.66,18.87 38.503,18.134 33.844,26.703 C34.524,23.512 36.59,19.651 37.156,18.53 L37.156,18.522 C37.191,18.458 37.172,18.375 37.114,18.33 C37.057,18.288 36.97,18.301 36.925,18.365 C33.847,23.498 32.766,26.456 32.128,29.995 L34.057,29.995 C34.385,26.583 38.694,18.546 43.287,19.143 L43.292,19.143 C43.319,19.149 43.342,19.127 43.345,19.104 C43.355,19.074 43.336,19.045 43.311,19.04 Z M34.049,47.272 L33.007,42.917 L31.233,42.917 C31.514,44.022 31.915,45.146 32.435,46.132 C32.469,46.19 32.532,46.225 32.595,46.215 C32.679,46.204 32.745,46.116 32.729,46.025 C32.608,45.103 32.464,44.214 32.327,43.326 C32.703,44.721 33.209,46.084 33.892,47.339 C33.91,47.378 33.949,47.396 33.986,47.384 C34.036,47.373 34.062,47.32 34.049,47.272 Z M35.841,45.295 C35.66,44.567 35.471,43.674 35.309,42.917 L34.634,42.917 C34.897,43.725 35.251,44.626 35.566,45.396 C35.597,45.471 35.668,45.508 35.736,45.489 C35.818,45.465 35.862,45.378 35.841,45.295 Z M36.067,47.856 L36.062,47.846 C35.844,47.237 35.542,46.692 35.303,46.108 C35.049,45.523 34.802,44.949 34.597,44.35 C34.427,43.9 34.246,43.385 34.107,42.917 L33.456,42.917 C33.64,43.462 33.879,44.049 34.102,44.575 C34.592,45.763 35.159,46.927 35.881,47.968 C35.907,48.006 35.957,48.021 36.004,48.003 C36.062,47.981 36.088,47.915 36.067,47.856 Z M37.041,26.956 C36.991,26.881 36.87,26.865 36.813,26.926 C35.629,28.175 34.912,29.504 34.666,29.995 L35.369,29.995 C35.721,29.169 36.513,27.71 37.023,27.184 L37.028,27.179 C37.08,27.12 37.09,27.022 37.041,26.956 Z M31.687,20.911 C32.338,19.842 33.304,19.024 34.123,18.036 C34.152,17.998 34.149,17.94 34.114,17.908 C34.083,17.873 34.03,17.873 33.996,17.905 C33.81,18.104 33.616,18.291 33.417,18.476 C33.33,18.434 33.11,18.519 32.886,18.694 C32.711,18.833 32.585,18.987 32.54,19.098 C32.427,19.072 32.215,19.204 32.023,19.449 C31.865,19.654 31.774,19.869 31.776,20.002 C31.655,20.012 31.48,20.166 31.33,20.411 C31.233,20.573 31.17,20.73 31.149,20.86 C31.052,20.926 30.942,21.051 30.84,21.213 C30.706,21.437 30.637,21.662 30.658,21.792 C30.627,21.849 30.595,21.902 30.569,21.957 C30.574,21.912 30.58,21.87 30.585,21.825 C30.777,20.312 31.054,18.814 31.477,17.369 C31.902,15.928 32.411,14.475 33.285,13.308 L33.291,13.303 C33.335,13.239 33.33,13.152 33.275,13.093 C33.22,13.032 33.128,13.029 33.07,13.09 C32.768,13.412 32.514,13.771 32.285,14.14 C32.186,14.087 31.976,14.284 31.816,14.592 C31.669,14.87 31.616,15.128 31.672,15.227 C31.672,15.227 31.669,15.235 31.663,15.232 C31.558,15.187 31.364,15.421 31.246,15.734 C31.131,16.029 31.11,16.3 31.189,16.391 C31.183,16.396 31.183,16.399 31.18,16.404 C31.063,16.361 30.871,16.63 30.753,17.01 C30.655,17.331 30.645,17.61 30.716,17.722 C30.721,17.727 30.716,17.741 30.711,17.738 C30.59,17.695 30.406,17.972 30.299,18.349 C30.191,18.713 30.199,19.035 30.301,19.098 C30.183,19.085 30.018,19.361 29.931,19.736 C29.853,20.06 29.861,20.339 29.937,20.451 C29.821,20.485 29.693,20.756 29.627,21.107 C29.564,21.45 29.595,21.734 29.679,21.825 C29.572,21.88 29.461,22.159 29.422,22.505 C29.383,22.848 29.433,23.129 29.522,23.22 C29.433,23.32 29.346,23.559 29.309,23.847 C29.273,24.12 29.296,24.357 29.349,24.49 C29.252,24.572 29.178,24.849 29.175,25.181 C29.168,25.446 29.207,25.672 29.275,25.802 C29.223,25.935 29.186,26.129 29.186,26.344 C29.181,26.623 29.225,26.862 29.296,26.987 C29.275,27.968 29.288,29.012 29.341,29.995 L31.459,29.995 C31.474,29.23 31.524,28.395 31.6,27.638 C31.75,26.288 31.973,24.917 32.648,23.764 L32.653,23.756 C32.674,23.714 32.671,23.666 32.64,23.629 C32.6,23.594 32.545,23.594 32.508,23.637 C31.592,24.7 31.191,26.143 30.955,27.527 C30.913,27.798 30.879,28.071 30.847,28.343 C30.905,27.232 31.007,26.126 31.262,25.074 C31.553,23.793 32.136,22.574 33.246,21.891 C33.28,21.87 33.299,21.825 33.285,21.779 C33.272,21.729 33.22,21.7 33.175,21.713 C33.104,21.734 33.039,21.771 32.97,21.801 C32.897,21.71 32.627,21.777 32.348,21.954 C32.083,22.127 31.907,22.34 31.926,22.457 C31.926,22.462 31.913,22.47 31.913,22.459 C31.91,22.446 31.907,22.433 31.9,22.425 C31.8,22.343 31.532,22.529 31.306,22.845 C31.078,23.161 30.989,23.491 31.086,23.576 C31.091,23.578 31.089,23.586 31.084,23.586 C30.965,23.538 30.769,23.807 30.645,24.182 C30.556,24.444 30.535,24.686 30.567,24.825 C30.567,24.829 30.561,24.835 30.561,24.835 C30.469,25.138 30.393,25.444 30.322,25.754 C30.349,25.316 30.388,24.875 30.451,24.439 C30.637,23.185 31.015,21.957 31.687,20.911 Z M38.35,17.413 C38.216,17.35 38.041,17.334 37.865,17.376 C37.734,17.408 37.629,17.472 37.539,17.546 C37.552,17.435 37.552,17.323 37.521,17.201 C37.479,17.01 37.384,16.853 37.269,16.752 C36.697,16.181 37.09,14.461 36.957,14.44 C36.826,14.422 36.873,16.136 36.603,16.938 C36.548,17.087 36.537,17.275 36.584,17.467 C36.632,17.656 36.726,17.815 36.844,17.918 C36.957,18.017 37.093,18.062 37.222,18.022 C37.256,18.017 37.29,18.001 37.319,17.979 C37.319,18.001 37.319,18.022 37.321,18.043 C37.351,18.184 37.45,18.293 37.587,18.357 C37.726,18.423 37.896,18.439 38.075,18.394 C38.256,18.351 38.405,18.253 38.503,18.134 C39.041,17.509 40.305,16.619 40.23,16.5 C40.153,16.383 39.085,17.695 38.35,17.413 Z M40.797,15.248 C40.715,15.131 39.702,16.313 39.012,16.018 C38.881,15.952 38.72,15.933 38.56,15.976 C38.471,16.003 38.395,16.051 38.324,16.109 C38.321,16.061 38.324,16.018 38.314,15.976 C38.272,15.804 38.177,15.668 38.059,15.578 C37.482,15.073 37.936,13.537 37.799,13.521 C37.66,13.505 37.663,15.033 37.363,15.75 C37.3,15.883 37.282,16.048 37.327,16.218 C37.369,16.388 37.464,16.529 37.582,16.619 C37.699,16.704 37.839,16.744 37.975,16.712 C38.035,16.696 38.088,16.664 38.135,16.63 C38.135,16.638 38.132,16.648 38.135,16.656 C38.177,16.803 38.277,16.917 38.405,16.983 C38.537,17.044 38.697,17.065 38.852,17.02 C39.012,16.978 39.138,16.88 39.216,16.76 C39.644,16.12 40.878,15.37 40.797,15.248 Z M41.046,13.768 C40.956,13.675 40.23,14.892 39.571,14.746 C39.447,14.711 39.303,14.719 39.172,14.786 C39.106,14.812 39.051,14.857 39.004,14.903 C39.004,14.873 39.012,14.844 39.012,14.812 C38.996,14.658 38.933,14.515 38.841,14.419 C38.398,13.877 39.014,12.594 38.896,12.554 C38.776,12.519 38.566,13.869 38.198,14.456 C38.125,14.568 38.088,14.711 38.104,14.868 C38.114,15.025 38.18,15.166 38.272,15.264 C38.366,15.362 38.482,15.416 38.608,15.408 C38.702,15.405 38.783,15.354 38.852,15.288 C38.852,15.341 38.862,15.399 38.888,15.455 C38.946,15.578 39.049,15.662 39.174,15.697 C39.298,15.737 39.445,15.726 39.576,15.662 C39.71,15.596 39.807,15.49 39.86,15.37 C40.148,14.73 41.132,13.861 41.046,13.768 Z M40.61,12.078 C40.461,11.972 39.986,13.154 39.421,13.462 C39.316,13.518 39.216,13.619 39.146,13.757 C39.075,13.898 39.049,14.047 39.067,14.172 C39.08,14.297 39.138,14.403 39.23,14.456 C39.324,14.512 39.437,14.509 39.545,14.454 C39.655,14.398 39.752,14.297 39.825,14.156 C39.894,14.018 39.92,13.869 39.904,13.744 C39.862,13.075 40.715,12.144 40.61,12.078 Z M30.252,42.917 L24.307,42.917 C23.903,42.917 23.538,42.885 23.202,42.824 C23.205,42.824 23.205,42.826 23.205,42.826 C24.181,44.277 25.711,45.378 27.262,46.116 C27.501,47.439 27.8,48.664 27.908,48.76 C28.018,48.855 29.54,48.417 29.588,48.276 C29.632,48.136 28.965,45.869 28.965,45.869 C29.766,44.495 30.013,43.684 30.252,42.917 Z M45.205,53.086 C43.704,53.679 41.746,53.728 40.148,53.304 C36.487,52.164 32.422,50.004 28.519,51.797 C24.617,50.004 20.551,52.164 16.891,53.304 C15.293,53.728 13.335,53.679 11.834,53.086 C11.792,53.07 11.76,53.123 11.797,53.152 C13.957,54.823 16.983,55.592 19.707,54.608 C22.323,53.793 24.536,51.021 27.635,52.204 C25.181,53.163 22.887,54.933 21.116,56.604 L22.404,57.661 C24.013,55.788 25.824,53.915 27.874,52.775 C28.154,52.61 28.322,52.544 28.519,52.533 C28.716,52.544 28.884,52.61 29.162,52.775 C31.215,53.915 33.026,55.788 34.634,57.661 L35.923,56.604 C34.152,54.933 31.857,53.163 29.404,52.204 C32.503,51.021 34.716,53.793 37.332,54.608 C40.056,55.592 43.082,54.823 45.242,53.152 C45.276,53.123 45.247,53.07 45.205,53.086 Z M21.076,50.561 C17.25,49.634 16.203,46.047 13.004,44.49 C12.97,44.472 12.933,44.512 12.954,44.543 C13.962,46.201 14.507,48.741 17.413,50.307 C17.437,50.319 17.424,50.357 17.397,50.349 C13.23,49.547 11.479,50.662 7.112,48.688 C7.075,48.672 7.036,48.712 7.06,48.747 C8.495,50.83 11.901,52.254 16.568,51.861 C18.248,51.718 19.465,51.011 21.076,50.634 C21.116,50.623 21.116,50.569 21.076,50.561 Z M13.062,48.361 C11.607,46.456 12.022,42.389 8.739,38.666 C8.713,38.637 8.666,38.66 8.674,38.697 C9.301,41.439 9.114,44.554 10.831,46.836 C10.847,46.86 10.823,46.884 10.799,46.868 C7.414,44.203 3.934,43.4 2.385,41.243 C2.362,41.214 2.315,41.229 2.32,41.267 C2.703,44.059 8.067,48.412 13.033,48.42 C13.062,48.42 13.08,48.386 13.062,48.361 Z M7.978,43.297 C6.419,40.406 8.282,35.995 6.514,31.709 C6.495,31.664 6.427,31.675 6.427,31.723 C6.375,34.063 4.921,37.558 5.8,40.196 C5.81,40.22 5.779,40.233 5.766,40.212 C3.527,36.941 1.751,36.258 0.27,33.264 C0.249,33.219 0.181,33.231 0.178,33.279 C0.084,35.314 0.984,36.973 2,38.514 C3.624,40.6 5.716,42.25 7.928,43.35 C7.963,43.366 7.994,43.331 7.978,43.297 Z M6.921,25.691 C6.918,25.643 6.855,25.627 6.831,25.669 C5.642,27.893 3.524,29.663 3.456,32.6 C3.454,32.629 3.422,32.631 3.417,32.604 C3.031,30.338 1.107,27.798 1.024,24.516 C1.024,24.466 0.953,24.453 0.934,24.5 C-0.648,28.768 1.627,32.814 4.049,36.157 C4.076,36.191 4.128,36.171 4.128,36.125 C4.028,32.583 7.099,29.939 6.921,25.691 Z M8.432,20.169 C7.309,21.729 4.782,22.832 3.858,25.082 C3.845,25.114 3.805,25.106 3.811,25.069 C4.178,22.547 3.204,19.619 4.118,16.269 C4.131,16.221 4.07,16.189 4.042,16.226 C2.661,17.924 2.194,19.914 2.118,22.064 C2.024,24.705 2.952,26.631 3.412,28.422 C3.422,28.465 3.477,28.462 3.488,28.419 C4.149,26.071 7.469,24.657 8.508,20.206 C8.522,20.159 8.461,20.129 8.432,20.169 Z M11.479,14.924 C9.632,16.372 6.81,17.767 6.204,18.774 C6.194,18.795 6.162,18.779 6.167,18.758 L6.852,15.471 C7.159,14.076 7.424,12.74 8.196,11.491 C8.22,11.454 8.175,11.411 8.141,11.438 C4.624,14.223 5.138,18.25 4.983,21.548 C4.981,21.583 5.023,21.599 5.047,21.575 C7.117,19.329 10.492,18.022 11.537,14.969 C11.55,14.932 11.51,14.9 11.479,14.924 Z M14.096,9.875 C10.988,9.974 8.705,12.591 7.726,15.923 C7.721,15.942 7.747,15.958 7.763,15.947 C12.043,12.809 11.804,11.464 14.122,9.971 C14.164,9.944 14.146,9.875 14.096,9.875 Z M49.924,48.688 C45.56,50.662 43.806,49.547 39.639,50.349 C39.613,50.357 39.6,50.319 39.623,50.307 C42.528,48.741 43.074,46.201 44.082,44.543 C44.103,44.512 44.067,44.472 44.032,44.49 C40.836,46.047 39.789,49.634 35.96,50.561 C35.92,50.569 35.92,50.623 35.96,50.634 C37.571,51.011 38.789,51.718 40.468,51.861 C45.134,52.254 48.544,50.83 49.977,48.747 C50,48.712 49.961,48.672 49.924,48.688 Z M54.65,41.243 C53.102,43.4 49.622,44.203 46.237,46.868 C46.215,46.884 46.19,46.86 46.208,46.836 C47.922,44.554 47.735,41.439 48.362,38.697 C48.37,38.66 48.323,38.637 48.297,38.666 C45.016,42.389 45.428,46.456 43.977,48.361 C43.959,48.386 43.974,48.42 44.006,48.42 C48.971,48.412 54.333,44.059 54.716,41.267 C54.721,41.229 54.674,41.214 54.65,41.243 Z M56.857,33.279 C56.855,33.231 56.787,33.219 56.766,33.264 C55.286,36.258 53.509,36.941 51.273,40.212 C51.257,40.233 51.228,40.22 51.237,40.196 C52.115,37.558 50.664,34.063 50.609,31.723 C50.609,31.675 50.541,31.664 50.523,31.709 C48.754,35.995 50.617,40.406 49.061,43.297 C49.042,43.331 49.074,43.366 49.108,43.35 C51.32,42.25 53.412,40.6 55.036,38.514 C56.052,36.973 56.952,35.314 56.857,33.279 Z M56.102,24.5 C56.084,24.453 56.013,24.466 56.013,24.516 C55.929,27.798 54.005,30.338 53.619,32.604 C53.614,32.631 53.583,32.629 53.583,32.6 C53.514,29.663 51.394,27.893 50.205,25.669 C50.181,25.627 50.118,25.643 50.118,25.691 C49.94,29.939 53.007,32.583 52.908,36.125 C52.908,36.171 52.963,36.191 52.989,36.157 C55.409,32.814 57.684,28.768 56.102,24.5 Z M54.918,22.064 C54.842,19.914 54.375,17.924 52.995,16.226 C52.966,16.189 52.908,16.221 52.919,16.269 C53.832,19.619 52.858,22.547 53.228,25.069 C53.233,25.106 53.191,25.114 53.178,25.082 C52.255,22.832 49.727,21.729 48.604,20.169 C48.578,20.129 48.517,20.159 48.528,20.206 C49.567,24.657 52.887,26.071 53.549,28.419 C53.559,28.462 53.614,28.465 53.624,28.422 C54.084,26.631 55.013,24.705 54.918,22.064 Z M48.895,11.438 C48.861,11.411 48.817,11.454 48.84,11.491 C49.612,12.74 49.877,14.076 50.184,15.471 L50.869,18.758 C50.874,18.779 50.842,18.795 50.832,18.774 C50.226,17.767 47.407,16.372 45.557,14.924 C45.528,14.9 45.486,14.932 45.499,14.969 C46.544,18.022 49.919,19.329 51.989,21.575 C52.013,21.599 52.055,21.583 52.052,21.548 C51.898,18.25 52.412,14.223 48.895,11.438 Z M42.941,9.875 C42.891,9.875 42.875,9.944 42.914,9.971 C45.232,11.464 44.993,12.809 49.273,15.947 C49.292,15.958 49.315,15.942 49.31,15.923 C48.331,12.591 46.048,9.974 42.941,9.875 Z" id="Fill-1"></path>
            <path d="M64.157,16.994 L64.802,16.994 C65.405,16.994 65.856,16.875 66.156,16.637 C66.455,16.398 66.605,16.052 66.605,15.597 C66.605,15.137 66.479,14.798 66.228,14.578 C65.977,14.359 65.585,14.25 65.049,14.25 L64.157,14.25 L64.157,16.994 Z M68.585,15.527 C68.585,16.522 68.273,17.283 67.652,17.81 C67.03,18.338 66.145,18.6 64.999,18.6 L64.157,18.6 L64.157,21.89 L62.197,21.89 L62.197,12.643 L65.15,12.643 C66.272,12.643 67.125,12.885 67.709,13.367 C68.293,13.851 68.585,14.57 68.585,15.527 Z" id="Fill-2"></path>
            <path d="M73.653,14.685 C73.915,14.685 74.132,14.705 74.305,14.743 L74.16,16.552 C74.004,16.51 73.814,16.488 73.59,16.488 C72.974,16.488 72.495,16.646 72.151,16.963 C71.807,17.279 71.636,17.722 71.636,18.291 L71.636,21.89 L69.707,21.89 L69.707,14.818 L71.168,14.818 L71.453,16.008 L71.548,16.008 C71.766,15.611 72.063,15.292 72.436,15.05 C72.809,14.808 73.215,14.685 73.653,14.685" id="Fill-3"></path>
            <path d="M76.738,18.342 C76.738,19.042 76.853,19.57 77.083,19.929 C77.312,20.287 77.686,20.467 78.205,20.467 C78.719,20.467 79.09,20.288 79.315,19.933 C79.541,19.576 79.654,19.046 79.654,18.342 C79.654,17.641 79.54,17.117 79.312,16.767 C79.085,16.417 78.712,16.242 78.193,16.242 C77.678,16.242 77.307,16.416 77.08,16.764 C76.852,17.111 76.738,17.638 76.738,18.342 Z M81.627,18.342 C81.627,19.492 81.323,20.392 80.716,21.042 C80.109,21.691 79.263,22.017 78.18,22.017 C77.501,22.017 76.902,21.867 76.383,21.57 C75.865,21.273 75.466,20.846 75.188,20.289 C74.91,19.733 74.771,19.084 74.771,18.342 C74.771,17.187 75.072,16.288 75.675,15.647 C76.278,15.007 77.126,14.685 78.217,14.685 C78.897,14.685 79.496,14.834 80.014,15.129 C80.533,15.424 80.931,15.848 81.21,16.4 C81.488,16.952 81.627,17.6 81.627,18.342 Z" id="Fill-4"></path>
            <path d="M84.267,17.134 C84.267,17.517 84.355,17.821 84.53,18.044 C84.705,18.267 84.971,18.38 85.331,18.38 C85.693,18.38 85.959,18.267 86.128,18.044 C86.296,17.821 86.38,17.517 86.38,17.134 C86.38,16.282 86.03,15.856 85.331,15.856 C84.622,15.856 84.267,16.282 84.267,17.134 Z M83.566,22.889 C83.566,23.154 83.693,23.363 83.948,23.515 C84.204,23.667 84.561,23.743 85.02,23.743 C85.712,23.743 86.254,23.647 86.646,23.458 C87.038,23.268 87.234,23.009 87.234,22.681 C87.234,22.415 87.118,22.231 86.886,22.13 C86.654,22.028 86.296,21.979 85.811,21.979 L84.811,21.979 C84.458,21.979 84.161,22.061 83.924,22.227 C83.685,22.394 83.566,22.615 83.566,22.889 Z M89.024,14.818 L89.024,15.799 L87.917,16.084 C88.12,16.4 88.22,16.754 88.22,17.146 C88.22,17.905 87.956,18.496 87.426,18.92 C86.898,19.344 86.163,19.556 85.222,19.556 L84.875,19.537 L84.59,19.505 C84.392,19.657 84.293,19.826 84.293,20.012 C84.293,20.289 84.647,20.429 85.355,20.429 L86.557,20.429 C87.333,20.429 87.924,20.596 88.332,20.929 C88.738,21.262 88.942,21.751 88.942,22.395 C88.942,23.222 88.597,23.863 87.908,24.318 C87.218,24.773 86.228,25.001 84.938,25.001 C83.952,25.001 83.198,24.829 82.677,24.486 C82.156,24.142 81.896,23.66 81.896,23.041 C81.896,22.615 82.029,22.259 82.295,21.972 C82.56,21.685 82.95,21.48 83.465,21.358 C83.266,21.274 83.093,21.136 82.946,20.944 C82.799,20.752 82.724,20.549 82.724,20.334 C82.724,20.064 82.802,19.84 82.959,19.66 C83.115,19.481 83.34,19.305 83.635,19.132 C83.264,18.972 82.97,18.715 82.753,18.36 C82.536,18.007 82.427,17.589 82.427,17.108 C82.427,16.337 82.678,15.74 83.18,15.318 C83.681,14.896 84.398,14.685 85.331,14.685 C85.528,14.685 85.763,14.704 86.036,14.739 C86.307,14.775 86.481,14.802 86.557,14.818 L89.024,14.818 Z" id="Fill-5"></path>
            <path d="M93.783,14.685 C94.045,14.685 94.261,14.705 94.435,14.743 L94.29,16.552 C94.133,16.51 93.944,16.488 93.72,16.488 C93.104,16.488 92.625,16.646 92.281,16.963 C91.937,17.279 91.766,17.722 91.766,18.291 L91.766,21.89 L89.837,21.89 L89.837,14.818 L91.297,14.818 L91.583,16.008 L91.677,16.008 C91.896,15.611 92.193,15.292 92.566,15.05 C92.939,14.808 93.344,14.685 93.783,14.685" id="Fill-6"></path>
            <path d="M99.123,18.613 L98.376,18.639 C97.815,18.655 97.398,18.757 97.124,18.942 C96.849,19.128 96.713,19.41 96.713,19.79 C96.713,20.334 97.025,20.605 97.649,20.605 C98.095,20.605 98.453,20.478 98.72,20.22 C98.988,19.963 99.123,19.621 99.123,19.195 L99.123,18.613 Z M99.691,21.89 L99.318,20.929 L99.268,20.929 C98.943,21.337 98.609,21.621 98.265,21.779 C97.922,21.937 97.473,22.017 96.922,22.017 C96.243,22.017 95.708,21.822 95.318,21.435 C94.928,21.047 94.733,20.494 94.733,19.777 C94.733,19.026 94.996,18.474 95.52,18.117 C96.046,17.761 96.837,17.563 97.895,17.525 L99.123,17.487 L99.123,17.178 C99.123,16.461 98.755,16.103 98.022,16.103 C97.457,16.103 96.793,16.273 96.03,16.615 L95.391,15.312 C96.205,14.887 97.107,14.673 98.097,14.673 C99.047,14.673 99.774,14.88 100.28,15.293 C100.786,15.706 101.039,16.335 101.039,17.178 L101.039,21.89 L99.691,21.89 Z" id="Fill-7"></path>
            <path d="M108.925,21.89 L106.997,21.89 L106.997,17.76 C106.997,17.25 106.911,16.867 106.74,16.611 C106.57,16.356 106.3,16.229 105.934,16.229 C105.441,16.229 105.083,16.41 104.859,16.773 C104.635,17.136 104.524,17.732 104.524,18.562 L104.524,21.89 L102.594,21.89 L102.594,14.818 L104.068,14.818 L104.328,15.724 L104.435,15.724 C104.625,15.398 104.899,15.145 105.257,14.961 C105.616,14.777 106.027,14.685 106.491,14.685 C107.548,14.685 108.265,15.031 108.641,15.724 L108.811,15.724 C109.002,15.395 109.281,15.14 109.65,14.958 C110.018,14.776 110.435,14.685 110.899,14.685 C111.7,14.685 112.306,14.892 112.717,15.303 C113.129,15.714 113.334,16.372 113.334,17.279 L113.334,21.89 L111.398,21.89 L111.398,17.76 C111.398,17.25 111.313,16.867 111.142,16.611 C110.971,16.356 110.703,16.229 110.336,16.229 C109.864,16.229 109.51,16.397 109.277,16.735 C109.043,17.072 108.925,17.607 108.925,18.342 L108.925,21.89" id="Fill-8"></path>
            <path d="M121.221,21.89 L119.293,21.89 L119.293,17.76 C119.293,17.25 119.207,16.867 119.036,16.611 C118.866,16.356 118.596,16.229 118.23,16.229 C117.737,16.229 117.379,16.41 117.155,16.773 C116.931,17.136 116.82,17.732 116.82,18.562 L116.82,21.89 L114.89,21.89 L114.89,14.818 L116.364,14.818 L116.624,15.724 L116.731,15.724 C116.921,15.398 117.195,15.145 117.553,14.961 C117.912,14.777 118.323,14.685 118.787,14.685 C119.844,14.685 120.561,15.031 120.937,15.724 L121.107,15.724 C121.297,15.395 121.577,15.14 121.946,14.958 C122.314,14.776 122.731,14.685 123.195,14.685 C123.996,14.685 124.602,14.892 125.013,15.303 C125.424,15.714 125.63,16.372 125.63,17.279 L125.63,21.89 L123.694,21.89 L123.694,17.76 C123.694,17.25 123.609,16.867 123.438,16.611 C123.267,16.356 122.999,16.229 122.631,16.229 C122.16,16.229 121.806,16.397 121.573,16.735 C121.339,17.072 121.221,17.607 121.221,18.342 L121.221,21.89" id="Fill-9"></path>
            <path d="M130.158,16.058 C129.749,16.058 129.428,16.188 129.196,16.447 C128.964,16.707 128.832,17.074 128.797,17.551 L131.505,17.551 C131.497,17.074 131.372,16.707 131.131,16.447 C130.891,16.188 130.567,16.058 130.158,16.058 Z M130.429,22.017 C129.292,22.017 128.401,21.702 127.76,21.074 C127.12,20.445 126.799,19.556 126.799,18.405 C126.799,17.22 127.095,16.304 127.688,15.657 C128.28,15.01 129.099,14.685 130.145,14.685 C131.144,14.685 131.922,14.971 132.479,15.54 C133.036,16.109 133.313,16.895 133.313,17.898 L133.313,18.835 L128.754,18.835 C128.775,19.383 128.937,19.812 129.241,20.119 C129.545,20.427 129.97,20.58 130.518,20.58 C130.944,20.58 131.346,20.536 131.726,20.447 C132.106,20.359 132.502,20.218 132.915,20.023 L132.915,21.516 C132.578,21.685 132.217,21.811 131.834,21.892 C131.45,21.975 130.982,22.017 130.429,22.017 Z" id="Fill-10"></path>
            <path d="M66.744,32.217 C66.125,30.223 65.775,29.095 65.697,28.834 C65.619,28.572 65.563,28.365 65.53,28.214 C65.39,28.754 64.992,30.088 64.335,32.217 L66.744,32.217 Z M67.882,36.062 L67.213,33.861 L63.841,33.861 L63.171,36.062 L61.058,36.062 L64.322,26.778 L66.718,26.778 L69.995,36.062 L67.882,36.062 Z" id="Fill-11"></path>
            <polygon id="Fill-12" points="70.82 36.063 72.75 36.063 72.75 26.222 70.82 26.222"></polygon>
            <path d="M74.345,36.062 L76.275,36.062 L76.275,28.991 L74.345,28.991 L74.345,36.062 Z M74.263,27.164 C74.263,26.535 74.613,26.222 75.313,26.222 C76.013,26.222 76.363,26.535 76.363,27.164 C76.363,27.463 76.276,27.696 76.1,27.862 C75.925,28.029 75.663,28.112 75.313,28.112 C74.613,28.112 74.263,27.796 74.263,27.164 Z" id="Fill-13"></path>
            <path d="M84.202,36.062 L82.273,36.062 L82.273,31.933 C82.273,31.423 82.187,31.04 82.016,30.784 C81.846,30.529 81.577,30.402 81.211,30.402 C80.717,30.402 80.359,30.583 80.135,30.946 C79.912,31.308 79.8,31.905 79.8,32.735 L79.8,36.062 L77.871,36.062 L77.871,28.991 L79.344,28.991 L79.604,29.896 L79.712,29.896 C79.901,29.571 80.175,29.317 80.534,29.134 C80.892,28.95 81.303,28.858 81.767,28.858 C82.825,28.858 83.542,29.204 83.918,29.896 L84.088,29.896 C84.278,29.567 84.557,29.312 84.926,29.131 C85.295,28.949 85.712,28.858 86.175,28.858 C86.976,28.858 87.583,29.064 87.994,29.475 C88.405,29.887 88.61,30.545 88.61,31.452 L88.61,36.062 L86.674,36.062 L86.674,31.933 C86.674,31.423 86.589,31.04 86.419,30.784 C86.248,30.529 85.979,30.402 85.612,30.402 C85.14,30.402 84.787,30.57 84.553,30.908 C84.319,31.245 84.202,31.78 84.202,32.515 L84.202,36.062" id="Fill-14"></path>
            <path d="M93.138,30.231 C92.729,30.231 92.409,30.361 92.176,30.62 C91.945,30.88 91.812,31.247 91.778,31.724 L94.485,31.724 C94.477,31.247 94.352,30.88 94.112,30.62 C93.872,30.361 93.547,30.231 93.138,30.231 Z M93.41,36.189 C92.272,36.189 91.381,35.875 90.741,35.247 C90.1,34.618 89.78,33.728 89.78,32.578 C89.78,31.393 90.076,30.476 90.669,29.83 C91.26,29.183 92.08,28.858 93.126,28.858 C94.125,28.858 94.903,29.143 95.46,29.713 C96.016,30.282 96.294,31.068 96.294,32.071 L96.294,33.008 L91.734,33.008 C91.755,33.556 91.918,33.984 92.221,34.292 C92.525,34.6 92.951,34.753 93.499,34.753 C93.924,34.753 94.327,34.709 94.707,34.62 C95.087,34.532 95.482,34.391 95.895,34.196 L95.895,35.689 C95.558,35.858 95.198,35.983 94.814,36.065 C94.43,36.147 93.963,36.189 93.41,36.189 Z" id="Fill-15"></path>
            <path d="M104.069,36.062 L102.14,36.062 L102.14,31.933 C102.14,31.423 102.049,31.04 101.868,30.784 C101.686,30.529 101.398,30.402 101.002,30.402 C100.462,30.402 100.072,30.582 99.832,30.942 C99.591,31.304 99.471,31.901 99.471,32.735 L99.471,36.062 L97.542,36.062 L97.542,28.991 L99.015,28.991 L99.275,29.896 L99.382,29.896 C99.597,29.555 99.893,29.296 100.271,29.121 C100.648,28.946 101.078,28.858 101.558,28.858 C102.38,28.858 103.005,29.081 103.43,29.526 C103.856,29.971 104.069,30.613 104.069,31.452 L104.069,36.062" id="Fill-16"></path>
            <path d="M108.593,34.652 C108.93,34.652 109.335,34.578 109.807,34.431 L109.807,35.866 C109.327,36.081 108.736,36.189 108.037,36.189 C107.265,36.189 106.703,35.994 106.351,35.603 C105.999,35.214 105.823,34.629 105.823,33.849 L105.823,30.44 L104.899,30.44 L104.899,29.624 L105.962,28.978 L106.518,27.486 L107.752,27.486 L107.752,28.991 L109.731,28.991 L109.731,30.44 L107.752,30.44 L107.752,33.849 C107.752,34.123 107.829,34.325 107.983,34.456 C108.136,34.587 108.34,34.652 108.593,34.652" id="Fill-17"></path>
            <path d="M114.907,32.786 L114.16,32.812 C113.599,32.828 113.182,32.93 112.908,33.115 C112.633,33.301 112.497,33.583 112.497,33.963 C112.497,34.507 112.809,34.778 113.433,34.778 C113.88,34.778 114.237,34.65 114.505,34.392 C114.772,34.136 114.907,33.794 114.907,33.368 L114.907,32.786 Z M115.475,36.062 L115.102,35.102 L115.052,35.102 C114.727,35.51 114.393,35.794 114.049,35.952 C113.706,36.11 113.257,36.189 112.706,36.189 C112.027,36.189 111.492,35.995 111.102,35.607 C110.713,35.22 110.517,34.667 110.517,33.95 C110.517,33.199 110.78,32.646 111.304,32.29 C111.83,31.934 112.621,31.736 113.679,31.698 L114.907,31.66 L114.907,31.35 C114.907,30.634 114.54,30.275 113.806,30.275 C113.241,30.275 112.577,30.446 111.814,30.788 L111.175,29.485 C111.989,29.059 112.891,28.846 113.881,28.846 C114.831,28.846 115.558,29.053 116.064,29.466 C116.57,29.879 116.823,30.508 116.823,31.35 L116.823,36.062 L115.475,36.062 Z" id="Fill-18"></path>
            <path d="M118.37,36.062 L120.299,36.062 L120.299,28.991 L118.37,28.991 L118.37,36.062 Z M118.288,27.164 C118.288,26.535 118.637,26.222 119.338,26.222 C120.038,26.222 120.387,26.535 120.387,27.164 C120.387,27.463 120.3,27.696 120.125,27.862 C119.95,28.029 119.687,28.112 119.338,28.112 C118.637,28.112 118.288,27.796 118.288,27.164 Z" id="Fill-19"></path>
            <path d="M125.841,28.858 C126.103,28.858 126.32,28.878 126.494,28.916 L126.348,30.725 C126.192,30.683 126.003,30.661 125.779,30.661 C125.163,30.661 124.683,30.819 124.339,31.136 C123.996,31.452 123.825,31.895 123.825,32.464 L123.825,36.062 L121.895,36.062 L121.895,28.991 L123.356,28.991 L123.641,30.181 L123.736,30.181 C123.955,29.784 124.252,29.465 124.625,29.223 C124.998,28.98 125.403,28.858 125.841,28.858" id="Fill-20"></path>
            <path d="M130.312,30.231 C129.903,30.231 129.583,30.361 129.35,30.62 C129.119,30.88 128.986,31.247 128.952,31.724 L131.659,31.724 C131.651,31.247 131.526,30.88 131.286,30.62 C131.046,30.361 130.721,30.231 130.312,30.231 Z M130.584,36.189 C129.446,36.189 128.555,35.875 127.915,35.247 C127.274,34.618 126.954,33.728 126.954,32.578 C126.954,31.393 127.25,30.476 127.842,29.83 C128.434,29.183 129.254,28.858 130.299,28.858 C131.298,28.858 132.077,29.143 132.633,29.713 C133.19,30.282 133.467,31.068 133.467,32.071 L133.467,33.008 L128.908,33.008 C128.929,33.556 129.091,33.984 129.395,34.292 C129.699,34.6 130.125,34.753 130.672,34.753 C131.098,34.753 131.501,34.709 131.88,34.62 C132.26,34.532 132.656,34.391 133.069,34.196 L133.069,35.689 C132.732,35.858 132.372,35.983 131.988,36.065 C131.604,36.147 131.136,36.189 130.584,36.189 Z" id="Fill-21"></path>
            <path d="M66.112,50.236 L63.885,42.982 L63.829,42.982 C63.909,44.458 63.949,45.442 63.949,45.935 L63.949,50.236 L62.197,50.236 L62.197,40.99 L64.866,40.99 L67.054,48.06 L67.091,48.06 L69.413,40.99 L72.082,40.99 L72.082,50.236 L70.255,50.236 L70.255,45.859 C70.255,45.653 70.257,45.415 70.263,45.145 C70.27,44.875 70.299,44.158 70.349,42.995 L70.292,42.995 L67.908,50.236 L66.112,50.236" id="Fill-22"></path>
            <path d="M75.443,46.688 C75.443,47.389 75.558,47.917 75.788,48.275 C76.017,48.634 76.391,48.813 76.91,48.813 C77.424,48.813 77.795,48.635 78.02,48.279 C78.246,47.923 78.359,47.392 78.359,46.688 C78.359,45.988 78.245,45.464 78.017,45.113 C77.79,44.764 77.417,44.589 76.898,44.589 C76.383,44.589 76.012,44.763 75.785,45.11 C75.557,45.458 75.443,45.984 75.443,46.688 Z M80.332,46.688 C80.332,47.839 80.028,48.739 79.422,49.389 C78.814,50.038 77.968,50.363 76.885,50.363 C76.206,50.363 75.607,50.214 75.089,49.917 C74.57,49.62 74.172,49.192 73.893,48.636 C73.615,48.08 73.476,47.431 73.476,46.688 C73.476,45.533 73.777,44.635 74.381,43.994 C74.983,43.353 75.831,43.032 76.923,43.032 C77.602,43.032 78.201,43.181 78.719,43.475 C79.238,43.77 79.636,44.194 79.915,44.747 C80.193,45.299 80.332,45.946 80.332,46.688 Z" id="Fill-23"></path>
            <path d="M88.069,50.236 L86.14,50.236 L86.14,46.106 C86.14,45.597 86.049,45.214 85.868,44.958 C85.686,44.703 85.398,44.576 85.002,44.576 C84.462,44.576 84.072,44.756 83.832,45.116 C83.591,45.477 83.471,46.075 83.471,46.909 L83.471,50.236 L81.542,50.236 L81.542,43.165 L83.015,43.165 L83.275,44.07 L83.382,44.07 C83.597,43.728 83.893,43.47 84.271,43.295 C84.648,43.12 85.078,43.032 85.558,43.032 C86.38,43.032 87.005,43.255 87.43,43.7 C87.856,44.144 88.069,44.787 88.069,45.626 L88.069,50.236" id="Fill-24"></path>
            <path d="M92.61,48.826 C93.103,48.826 93.464,48.683 93.695,48.395 C93.924,48.109 94.049,47.622 94.071,46.934 L94.071,46.726 C94.071,45.967 93.954,45.423 93.719,45.095 C93.486,44.766 93.105,44.601 92.578,44.601 C92.148,44.601 91.814,44.783 91.576,45.148 C91.338,45.513 91.218,46.043 91.218,46.739 C91.218,47.434 91.339,47.956 91.579,48.304 C91.819,48.652 92.163,48.826 92.61,48.826 Z M91.933,50.363 C91.102,50.363 90.45,50.04 89.975,49.395 C89.502,48.75 89.264,47.856 89.264,46.714 C89.264,45.554 89.505,44.65 89.988,44.004 C90.471,43.356 91.136,43.032 91.984,43.032 C92.874,43.032 93.552,43.378 94.02,44.07 L94.084,44.07 C93.986,43.543 93.938,43.072 93.938,42.659 L93.938,40.395 L95.874,40.395 L95.874,50.236 L94.393,50.236 L94.02,49.319 L93.938,49.319 C93.5,50.015 92.831,50.363 91.933,50.363 Z" id="Fill-25"></path>
            <path d="M97.464,50.236 L99.393,50.236 L99.393,43.165 L97.464,43.165 L97.464,50.236 Z M97.381,41.338 C97.381,40.709 97.731,40.395 98.431,40.395 C99.131,40.395 99.481,40.709 99.481,41.338 C99.481,41.637 99.394,41.87 99.218,42.036 C99.044,42.203 98.781,42.286 98.431,42.286 C97.731,42.286 97.381,41.97 97.381,41.338 Z" id="Fill-26"></path>
            <path d="M104.897,46.96 L104.15,46.985 C103.589,47.002 103.172,47.103 102.898,47.289 C102.624,47.475 102.487,47.757 102.487,48.137 C102.487,48.681 102.799,48.952 103.423,48.952 C103.87,48.952 104.227,48.824 104.495,48.566 C104.762,48.309 104.897,47.968 104.897,47.542 L104.897,46.96 Z M105.465,50.236 L105.092,49.275 L105.043,49.275 C104.717,49.684 104.383,49.968 104.04,50.126 C103.696,50.284 103.248,50.363 102.696,50.363 C102.017,50.363 101.482,50.169 101.092,49.781 C100.703,49.393 100.507,48.841 100.507,48.124 C100.507,47.373 100.77,46.82 101.295,46.464 C101.82,46.107 102.611,45.91 103.67,45.872 L104.897,45.834 L104.897,45.524 C104.897,44.808 104.53,44.449 103.797,44.449 C103.231,44.449 102.567,44.62 101.804,44.962 L101.166,43.659 C101.979,43.233 102.881,43.019 103.872,43.019 C104.821,43.019 105.548,43.226 106.054,43.64 C106.56,44.053 106.813,44.682 106.813,45.524 L106.813,50.236 L105.465,50.236 Z" id="Fill-27"></path>
            <polygon id="Fill-28" points="108.372 50.236 110.301 50.236 110.301 40.395 108.372 40.395"></polygon>
        </g>
    </g>
</svg>