<svg width="152" height="58" xmlns="http://www.w3.org/2000/svg"><g fill="#FFF" fill-rule="evenodd"><path d="M5.746 22.486l-.363-1.887c-.175.272-.477.622-.907 1.051-.214.1-.47.286-.765.557l2.035.279zm3.687 3.261H7.358c-.43 0-.76-.272-.988-.815-.134-.458-.269-.915-.402-1.373-.095.071-.296.407-.605 1.008-.282.515-.51.751-.685.709l-3.646-.687c.294-1.259.564-2.124.805-2.595.242-.473.618-.88 1.129-1.224.724-.443 1.457-.887 2.195-1.331a3.519 3.519 0 0 1-.201-.642l1.209-2.21.1.064c.121.501.31 1.577.565 3.225.228 1.418.436 2.428.624 3.03.108.33.423.494.947.494h1.028v2.347zm-3.626-9.651c-.095.171-.289.442-.585.814-.336.414-.544.621-.625.621-.174 0-.725-.3-1.651-.902-.135.101-.444.387-.928.858-.402-.128-.959-.434-1.671-.92.12-.171.516-.649 1.188-1.435.779.598 1.283.897 1.511.897-.013 0 .343-.299 1.068-.897l1.693.964z"/><path d="M8.972 28.676c.323-.49.686-.973 1.089-1.448.793.6 1.27.9 1.432.9.094 0 .265-.148.514-.441.248-.296.413-.465.494-.507l1.589 1.057c-.417.684-.806 1.176-1.168 1.476l-1.511-.941c-.202.189-.504.503-.907.941-.698-.389-1.209-.735-1.532-1.037m6.044-6.28c0 .588-.148 1.705-.443 3.351H8.73V23.4h4.836c-.255-.775-.671-1.579-1.249-2.413l1.148-2.112c1.033 1.318 1.551 2.492 1.551 3.521m4.703-5.705c-.147.201-.376.437-.684.707-.364.315-.625.472-.787.472-.281 0-.752-.379-1.41-1.135.081-.157.306-.435.675-.835.369-.4.614-.6.735-.6.108 0 .599.464 1.471 1.391m4.393 9.056h-2.237c-.134-.058-.256-.25-.363-.58a56.175 56.175 0 0 0-.242-.75c-.053.057-.201.308-.443.75-.187.388-.336.58-.443.58h-4.271c-.295 0-.443-.215-.443-.644 0-.515.087-1.193.261-2.037.229-1.059.491-1.61.787-1.652-.028.286-.04.614-.04.986 0 .631.093.945.281.945h3.969l.041-.193-.806-3.476c.094-.372.262-.794.503-1.266.215-.415.43-.822.645-1.223.524 2.344.96 4.12 1.309 5.327.175.554.33.831.464.831h1.028v2.402"/><path d="M29.368 16.892c-.013.243-.516.663-1.511 1.261-.121-.029-.396-.22-.825-.576-.43-.356-.645-.585-.645-.685 0-.127.483-.612 1.45-1.452.148.029.658.513 1.531 1.452m3.567 6.508l-1.31 2.347h-8.3V23.4h1.49c-.013-.3.027-.716.121-1.246.336-.675.893-1.341 1.673-2 .859-.704 1.611-1.055 2.256-1.055.671 0 1.326.351 1.964 1.051.638.7.943 1.407.917 2.121-.765-.717-1.767-1.077-3.002-1.077-1.156 0-1.901.155-2.237.464.605.72 1.257 1.301 1.955 1.742h4.473m3.597-9.131c-.067.172-.208.395-.423.67-.551-.014-1.283.274-2.195.864.013-.13.12-.288.321-.475l.484-.388a80.36 80.36 0 0 1-.524-.173c-.241-.1-.362-.193-.362-.279 0-.389.151-.755.452-1.101.303-.344.635-.517.998-.517.121 0 .252.04.393.118.141.08.212.184.212.314 0-.015-.128.172-.383.56-.404-.233-.591-.35-.565-.35-.067 0-.248.094-.544.281.135.317.847.476 2.136.476m3.5 9.411a7.604 7.604 0 0 0-.515-.894 9.725 9.725 0 0 1-.928.853c.357.027.756.041 1.196.041h.247zm3.061-6.692c.012.057.023.154.03.29.006.136.01.241.01.313 0 .228-.094.494-.281.796-.16.229-.321.466-.482.71a7.724 7.724 0 0 1-.562-.172c-.227 1.059-.656 1.953-1.285 2.682.484 1.015.725 1.83.725 2.445 0 .358-.053.923-.161 1.695h-5.279c.162-.515.431-1.279.806-2.295a9.808 9.808 0 0 0 1.27-.557c.631-.316.96-.602.987-.859-.107-.186-.349-.487-.726-.901-.415-.472-.685-.708-.805-.708-.041 0-.125.096-.252.289-.128.193-.219.298-.272.312a83.384 83.384 0 0 1-2.579-1.52c-.457-.315-.685-.728-.685-1.243 0-.556.282-1.377.846-2.462h.06c.645-.014 1.659.642 3.043 1.969 1.181 1.157 2.021 2.141 2.518 2.955.336-.516.504-1.132.504-1.85 0-.272-.082-.572-.245-.902-.164-.33-.246-.473-.246-.43 0-.201.486-.967 1.458-2.301-.014.072-.02.136-.02.194 0 .344.207.66.621.947l1.002.603zm3.227 5.278c0 1.46-.389 2.676-1.168 3.648l-.907-6.91c.255-.785.752-1.723 1.492-2.81.389 2.789.583 4.814.583 6.072m9.198 4.017c-.564.986-.94 1.481-1.127 1.481-.067 0-.306-.187-.715-.559-.409-.372-.615-.586-.615-.643 0-.129.147-.391.442-.783.297-.393.511-.591.645-.591.122 0 .377.154.766.461.39.307.591.519.604.634m3.789 3.046c-.687 1.28-2.098 1.921-4.236 1.921-1.222 0-2.224-.285-3.004-.857-.901-.642-1.351-1.584-1.351-2.827 0-.984.239-1.993.717-3.029.478-1.035 1.087-1.859 1.83-2.474-.163-.113-.578-.171-1.25-.171-.335 0-.628.089-.877.266-.247.178-.5.358-.755.543.268-1.069.45-1.717.544-1.946.322-.768.779-1.153 1.371-1.153.389 0 .967.093 1.731.279.766.187 1.297.28 1.593.28h2.88a50.472 50.472 0 0 1-.866 2.122c-.269.015-.678.051-1.228.11a.367.367 0 0 0-.121.285c0 .482.435.722 1.306.722h1.589v2.347h-2.179c-.551 0-.992-.174-1.321-.525-.329-.352-.494-.819-.494-1.406 0-.171.051-.4.156-.686.103-.286.162-.487.176-.6a7.621 7.621 0 0 0-.708.171c-.716.286-1.37.757-1.964 1.415-.674.744-1.012 1.481-1.012 2.21 0 2.017 2.059 3.025 6.18 3.025.296 0 .728-.007 1.293-.022"/><path d="M64.1 22.615c-.055-.258-.188-.6-.403-1.03l-.121-.021c-.256 0-.565.128-.927.386l1.451.665zm2.034.599c0 .286-.167.716-.503 1.288-.256.415-.504.829-.746 1.245-.027-.143-1.128-.644-3.304-1.502-.121.072-.29.34-.505.805-.214.465-.396.697-.542.697h-1.699V23.4h1.899c.095-.085.317-.567.665-1.443.215-.546.696-1.103 1.441-1.671.745-.567 1.387-.852 1.924-.852.283 0 .463.115.545.344.039.242.087.487.141.73.147.458.288.909.422 1.353.175.543.262.995.262 1.353zm5.203 2.533h-3.073l-.698-8.411c0-.1.2-.429.604-.987.377-.515.632-.836.766-.965l.243 3.911c.121 1.749.269 3.002.443 3.762.04.229.255.343.646.343h1.069v2.347"/><path d="M74.349 16.773c-.067.159-.518.718-1.351 1.68-.429-.272-1.094-.609-1.993-1.012l1.552-1.722c.376.272.973.625 1.792 1.054m1.132 5.82c0 .558-.149 1.609-.443 3.154h-4.556v-2.346h3.585a10.183 10.183 0 0 0-1.25-2.432l1.151-2.087c.511.73.867 1.301 1.069 1.717.295.658.444 1.322.444 1.994m8.236 3.154h-1.472c-.188 0-.45-.085-.786-.258l-.101.129c-.416.773-.833 1.552-1.249 2.338-.619.93-1.297 1.394-2.037 1.394-.497 0-1.22-.25-2.167-.75-.947-.501-1.602-.966-1.965-1.395v-.278c0-.03.034-.044.101-.044-.04 0 .182.142.663.425.484.281.913.422 1.289.422.576 0 1.421-.397 2.535-1.191 1.112-.792 1.669-1.44 1.669-1.94 0-.244-.193-.633-.58-1.168-.386-.536-.58-.819-.58-.848 0-.086.165-.415.495-.987.329-.572.548-.929.654-1.073l1.211 1.947c.458.621 1.103.93 1.937.93h.383v2.347"/><path d="M87.08 28.477c0 .23-.523.66-1.569 1.292-.121-.014-.407-.215-.856-.602-.45-.388-.675-.625-.675-.711 0-.087.232-.366.695-.84.463-.474.735-.711.815-.711.081 0 .366.237.856.711s.734.76.734.861m1.649-5.97c0 2.159-.201 3.24-.604 3.24h-5.039v-2.346h4.143c.012 0 .019-.021.019-.065 0-.301-.149-.724-.447-1.27-.298-.546-.569-.925-.813-1.141l1.188-2.217c.471.415.847.98 1.13 1.695.281.716.423 1.417.423 2.104M9.571 45.967c0 .071-.214.293-.641.664-.361.301-.632.515-.812.644l-1.871-.86c-.23.171-.567.43-1.01.772-.23-.014-.87-.293-1.921-.836.082-.158.295-.393.64-.708.247-.214.501-.429.764-.644.935.572 1.493.858 1.674.858.049 0 .247-.15.591-.45.345-.301.55-.451.616-.451l1.97 1.011zm18.923-4.25H12.673c-.296.441-.599.884-.911 1.326-.378.513-.78.883-1.206 1.111-.181.1-.526.236-1.035.407-.509.171-.854.256-1.034.256.049 0-.255-.139-.911-.419l-.591.597c-.181.142-.476.214-.886.214-.182 0-.419-.108-.714-.319a10.21 10.21 0 0 0-.616-.492c-.607.43-.895.645-.862.645-.099 0-.353-.072-.763-.215-1.298-.401-1.945-1.188-1.945-2.362 0-.859.385-1.826 1.157-2.9.722-1.016 1.526-1.789 2.413-2.319h.271c.032.029.049.079.049.151 0 .085-.188.314-.564.685-.475.472-.818.87-1.031 1.199-.376.542-.563 1.086-.563 1.627 0 .73.434 1.285 1.303 1.671.689.3 1.492.45 2.41.45 1.132 0 2.477-.208 4.035-.622-.427-.486-1.059-.778-1.896-.879-.739-.056-1.478-.114-2.217-.172.066-.214.55-.884 1.453-2.014h20.475v2.374z"/><path d="M33.973 39.343v-.467c0-.34-.238-.511-.713-.511-.362 0-.649.073-.863.222.263.148.517.297.763.445.361.192.633.295.813.311m3.793 2.375h-1.823c-.098.084-.217.264-.356.54-.14.276-.309.45-.506.52l-4.776-2.305c-.083.057-.214.307-.394.751-.148.329-.378.494-.69.494h-1.699v-2.375h2.536c.115-.071.308-.33.579-.779.271-.448.488-.744.652-.885.428-.371.965-.698 1.613-.982.649-.284 1.243-.427 1.785-.427.264 0 .439.033.53.096.09.065.143.189.159.374-.016.483.124 1.01.42 1.578.344.684.771 1.025 1.28 1.025h.69v2.375"/><path d="M46.994 33.789l-1.921 2.165.292 2.892c.033.186-.041.643-.221 1.371-.181.728-.328 1.158-.443 1.285-.033.044-.164.115-.394.215h-7.124v-2.374h6.432a.382.382 0 0 0 .074-.214c0-.4-.107-1.194-.319-2.384-.213-1.188-.393-1.941-.54-2.256a3.957 3.957 0 0 1-.761-.661c.64-1.17 1.223-2.003 1.749-2.502l.148.107c.016.286.065.521.147.708.082.185.517.486 1.305.899a14.19 14.19 0 0 0 1.576.749m14.085 7.928H49.291l-.866-8.41c0-.101.246-.43.738-.988.461-.514.773-.837.938-.965l.295 3.898c.148 1.742.328 2.991.543 3.749.049.227.311.342.788.342h9.352v2.374"/><path d="M79.154 41.717H66.689a22.315 22.315 0 0 0-.713-1.062c-.164.241-.428.594-.788 1.062H60.78v-2.374h4.136c-.507-.615-1.148-.922-1.921-.922-.049 0-.345.033-.887.099.559-1.086.986-1.772 1.282-2.058.542-.5 1.386-.751 2.536-.751.689 0 1.37.198 2.043.595.723.439 1.085.949 1.085 1.529 0 .198-.108.453-.321.764-.164.241-.336.489-.518.744h10.939v2.374"/><path d="M84.569 33.789l-1.921 2.165.292 2.892c.033.186-.041.643-.221 1.371-.181.728-.328 1.158-.444 1.285-.032.044-.163.115-.394.215H78.61v-2.374h2.58a.382.382 0 0 0 .074-.214c0-.4-.107-1.194-.319-2.384-.213-1.188-.393-1.941-.54-2.256a3.957 3.957 0 0 1-.761-.661c.64-1.17 1.223-2.003 1.748-2.502l.148.107c.017.286.066.521.147.708.082.185.517.486 1.307.899.607.328 1.131.578 1.575.749m4.577 4.448c0 1.459-.476 2.675-1.428 3.648l-1.108-6.911c.311-.785.919-1.722 1.822-2.81.477 2.79.714 4.814.714 6.073m41-33.573h.548c.512 0 .895-.101 1.15-.304.254-.202.381-.497.381-.883 0-.39-.107-.678-.32-.865-.213-.186-.547-.28-1.001-.28h-.758v2.332zm3.76-1.246c0 .845-.264 1.491-.792 1.938-.529.449-1.279.672-2.253.672h-.715v2.793h-1.665V.969h2.508c.953 0 1.677.204 2.173.615.496.41.744 1.021.744 1.834zm-9.536 5.403h-1.638V.969h4.501v1.363h-2.863v2.026h2.664v1.359h-2.664v3.104zm-4.525 0h-1.896l-1.064-4.125c-.039-.147-.106-.45-.201-.91a10.34 10.34 0 0 1-.164-.927c-.022.194-.075.505-.161.932-.086.428-.153.734-.199.916l-1.058 4.114h-1.89L111.208.969h1.639l1.003 4.285c.176.792.303 1.478.382 2.058.021-.204.071-.52.148-.948.076-.429.149-.761.218-.996l1.143-4.399h1.574l1.144 4.399c.05.196.113.498.188.902.075.405.133.752.172 1.042.035-.28.093-.628.172-1.045.079-.417.15-.754.214-1.013l.999-4.285h1.639l-1.998 7.852zm-4.073 27.313c-3.051 0-5.009.724-5.544.949-.032.014-.057-.031-.033-.056 3.353-3.485 7.278-3.293 8.222-3.293h11.162c.562 0 1.019.537 1.019 1.201 0 .662-.457 1.199-1.019 1.199h-13.807zm2.514 3.085c-3.287 0-4.245-1.868-9.221-.635-.034.009-.058-.038-.029-.058 2.774-1.903 5.792-1.73 7.012-1.73h13.531c.562 0 1.019.537 1.019 1.199s-.457 1.199-1.019 1.199c0 0-8.689.025-11.293.025zm.234 3.037c-3.375 0-3.645-2.49-8.647-3.051-.035-.004-.039-.056-.004-.064 4.109-1.028 5.638.715 8.037.715h11.673c.562 0 1.019.537 1.019 1.2 0 .663-.457 1.2-1.019 1.2H118.52zm-.733-9.183c-2.716 0-4.968 1.185-5.495 1.484-.029.016-.059-.019-.04-.046.441-.649 2.821-3.837 6.911-3.837h10.416c.562 0 1.019.537 1.019 1.2 0 .662-.457 1.199-1.019 1.199h-11.792zm14.941-6.625a.753.753 0 0 0-.443-.205.739.739 0 0 0-.362.043c.047-.099.086-.205.102-.33a.85.85 0 0 0-.084-.512c-.336-.736.625-2.209.504-2.275-.116-.064-.661 1.56-1.192 2.216a.933.933 0 0 0-.199.489.915.915 0 0 0 .087.513c.073.132.186.226.317.234a.3.3 0 0 0 .108-.006.27.27 0 0 0-.019.059.453.453 0 0 0 .142.388.72.72 0 0 0 .441.207.768.768 0 0 0 .493-.093c.72-.393 2.21-.781 2.179-.919-.029-.138-1.483.715-2.074.191zm1.1-1.074a.636.636 0 0 0-.407-.199.652.652 0 0 0-.267.043c.012-.046.031-.085.036-.131a.726.726 0 0 0-.102-.462c-.365-.677.588-1.956.465-2.019-.124-.064-.646 1.368-1.176 1.934a.684.684 0 0 0-.197.425.758.758 0 0 0 .1.465c.084.123.199.21.338.229a.53.53 0 0 0 .179-.021c-.003.007-.011.018-.008.026a.52.52 0 0 0 .139.398c.1.107.244.181.404.195a.623.623 0 0 0 .433-.117c.619-.447 2.037-.712 2-.856-.034-.138-1.391.611-1.937.09zm.963-.993a.548.548 0 0 0-.388-.104.536.536 0 0 0-.197.051c.01-.03.029-.054.039-.083a.7.7 0 0 0-.023-.43c-.231-.665.792-1.648.692-1.728-.099-.074-.763 1.117-1.309 1.536a.648.648 0 0 0-.231.354.642.642 0 0 0 .021.428.436.436 0 0 0 .265.255c.092.029.184.01.271-.027a.378.378 0 0 0-.024.17c.013.136.078.25.186.33a.569.569 0 0 0 .753-.067c.491-.497 1.714-.962 1.664-1.081-.053-.12-1.152.765-1.719.396zm1.895-2.134c-.103-.151-.958.787-1.59.877a.662.662 0 0 0-.36.178.688.688 0 0 0-.22.361.376.376 0 0 0 .055.324c.07.086.178.123.299.109a.64.64 0 0 0 .365-.181.737.737 0 0 0 .215-.356c.191-.643 1.312-1.214 1.236-1.312zm-17.694 1.27c-.026.093-.21.816-.21.816-.052.029-.273-.019-.33-.024-.423-.04-.8-.407-.638-.845.132-.358.404-.396.748-.412.142-.006.4.028.528.117 0 0-.051.165-.098.348zm-.485 2.182l-.04.247c-.262-.165-.417-.542-.291-.84.097-.226.338-.285.514-.295-.063.295-.126.59-.183.888zm-.378 2.696c-.033.185-.283.21-.454.261-.496.149-.966.085-1.118-.508-.166-.634.315-.901.829-1.025.281-.066.541-.011.733.226.047.059.105.112.117.168 0 0-.076.704-.107.878zm-1.562-3.122c.384-.092.78-.236 1.074.141.31.396.207 1.031-.292 1.199-.328.111-.724.207-1.005-.061-.367-.351-.341-1.148.223-1.279zm-.375-2.056c.404-.098.822-.247 1.131.149.323.414.215 1.084-.307 1.259-.346.114-.764.215-1.058-.067-.385-.366-.357-1.203.234-1.341zm-.375 4.445c-.105.37-.41.425-.73.502-.21-.257-.774-.909-.783-.986a.203.203 0 0 1 .011-.09c.027-.077.116-.151.181-.194.192-.125.602-.217.822-.172.396.085.604.568.499.94zm-2.006-1.899c-.288-1.024 1.428-1.47 1.693-.466.273 1.032-1.459 1.47-1.693.466zm-.251-2.044c-.294-1.017 1.43-1.464 1.695-.465.273 1.033-1.462 1.472-1.695.465zm-.242-2.009c-.281-.948 1.339-1.368 1.585-.433.255.962-1.365 1.377-1.585.433zm-.165 3.867c-.08.047-.11.072-.136.072l-.771-.838c.01-.024.248-.196.327-.242.64-.356 1.168.662.58 1.008zm-1.462-1.887c-.381-.84 1.005-1.751 1.425-.845.386.834-1 1.761-1.425.845zm1.165-2.66c.439.779-.882 1.648-1.259.81-.336-.722.837-1.565 1.259-.81zm-1.107-1.815c.194-.172.42-.265.651-.154.37.178.38.733.057.954-.147.101-.396.226-.577.181-.396-.101-.472-.68-.131-.981zm.05-1.669c.16-.108.373-.205.556-.13.334.137.323.622.053.816-.124.088-.347.197-.497.157-.338-.085-.421-.634-.112-.843zm.887-2.378c.199-.107.485-.152.664.048a.468.468 0 0 1-.134.734c-.213.106-.499.146-.667-.051a.48.48 0 0 1 .137-.731zm-.158 1.807c-.16-.595.843-.876 1.006-.271.181.587-.846.88-1.006.271zm1.617 1.039c.234.643-.856 1.007-1.068.372-.218-.643.876-1.01 1.068-.372zm.137-3.133c.207-.083.474-.173.705 0 .289.216.226.702-.105.853-.218.099-.495.165-.69-.008-.246-.22-.26-.705.09-.845zm-.192 5.381c-.294.069-.601.186-.845-.066-.313-.322-.223-.885.199-1.039.273-.104.619-.162.842.066.287.293.255.93-.196 1.039zm.005-3.284c-.189-.638.85-.965 1.05-.346.204.635-.872.973-1.05.346zm1.74 1.169c.244.728-.987 1.116-1.213.399-.228-.734 1.011-1.122 1.213-.399zm.066-1.95c.217-.058.446-.037.611.14.252.271.166.734-.207.803-.176.032-.446.019-.583-.101-.247-.218-.235-.731.179-.842zm1.05 1.528c.396 0 .595.582.364.871-.139.175-.438.186-.643.154-.378-.058-.619-.545-.365-.874.155-.199.42-.151.644-.151zm-1.903 2.396c-.244-.837 1.178-1.211 1.396-.38.22.845-1.21 1.217-1.396.38zm.871 1.071c.388-.04.793-.13 1.032.277.249.43.063 1.028-.441 1.129-.331.069-.733.101-.969-.192-.31-.387-.186-1.161.378-1.214zm1.975-1.864c.479.198.642.764.303 1.08-.181.165-.512.133-.735.088-.446-.088-.738-.758-.346-1.076.2-.163.56-.183.778-.092zm.754 2.018c.302.37.189 1.023-.338 1.055-.275.016-.635-.016-.821-.242-.3-.361-.187-1.039.34-1.057.276-.011.633.018.819.244zm2.039-6.664a.119.119 0 0 0-.133-.05c-.063.021-.105.09-.081.151 1.204 3.237-.334 4.831-.977 7.097-.772-1.841 1.785-3.573.467-6.929-.018-.043-.052-.078-.099-.085-.066-.009-.129.018-.14.106-.034.236-.188 2.096-1.698 3.186a3.015 3.015 0 0 0-.703-1.021c-.139-.627-.548-1.488-1.409-1.742-.129-.325-.389-.79-.887-1.04-.47-.234-1.013-.213-1.617.061-.729.085-1.231.37-1.496.845-.249.449-.205.938-.121 1.271-.613.656-.643 1.628-.627 2.009-.364.876-.16 1.899-.045 2.324-.435 1.191-.01 2.346.161 2.729 0 .104.005.202.01.3-1.427-1.562-4.676-3.497-5.918-4.235a.148.148 0 0 0-.181.021.154.154 0 0 0-.008.218c2.769 2.7 5.239 6.032 7.611 12.946 1.184-1.231 3.323-2.849 6.367-2.849h3.561c-2.262-8.428 1.032-11.444-2.037-15.313zm16.836 4.358c-.651-.17-4.808-.906-9.466 7.663.68-3.191 2.745-7.052 3.312-8.173v-.008a.155.155 0 0 0-.042-.192.135.135 0 0 0-.189.035c-3.079 5.133-4.16 8.091-4.797 11.63h1.928c.329-3.412 4.638-11.449 9.23-10.852h.006c.026.006.05-.016.052-.039a.048.048 0 0 0-.034-.064zm-9.261 28.232l-1.042-4.355h-1.774c.28 1.105.682 2.229 1.202 3.215.034.058.097.093.159.083.084-.011.15-.099.135-.19-.121-.922-.265-1.811-.402-2.699.375 1.395.882 2.758 1.564 4.013.018.039.058.057.095.045.049-.011.076-.064.063-.112zm1.792-1.977c-.181-.728-.37-1.621-.533-2.378h-.674c.262.808.617 1.709.932 2.479.031.075.102.112.17.093a.159.159 0 0 0 .105-.194zm.226 2.561l-.006-.01c-.217-.609-.519-1.154-.758-1.738a23.462 23.462 0 0 1-.706-1.759c-.17-.449-.352-.964-.491-1.432h-.651c.184.545.423 1.132.646 1.658.491 1.188 1.058 2.352 1.78 3.393a.103.103 0 0 0 .123.035.115.115 0 0 0 .063-.147zm.973-20.9c-.05-.075-.17-.091-.228-.03a13.38 13.38 0 0 0-2.147 3.069h.704c.351-.826 1.144-2.285 1.653-2.811l.005-.005a.18.18 0 0 0 .013-.223zm-5.353-6.045c.651-1.069 1.616-1.887 2.435-2.875a.099.099 0 0 0-.008-.128.082.082 0 0 0-.118-.003c-.186.199-.381.386-.58.571-.087-.042-.307.043-.53.218-.176.139-.302.293-.346.404-.113-.026-.326.106-.517.351-.158.205-.25.42-.247.553-.121.01-.297.164-.446.409-.097.162-.16.319-.181.449a1.228 1.228 0 0 0-.31.353c-.134.224-.202.449-.181.579-.032.057-.063.11-.089.165l.015-.132c.192-1.513.47-3.011.893-4.456.425-1.441.934-2.894 1.808-4.061l.005-.005a.166.166 0 0 0-.016-.21.137.137 0 0 0-.204-.003 6.57 6.57 0 0 0-.785 1.05c-.1-.053-.31.144-.47.452-.147.278-.199.536-.144.635 0 0-.003.008-.008.005-.105-.045-.299.189-.417.502-.116.295-.137.566-.058.657-.005.005-.005.008-.008.013-.118-.043-.31.226-.428.606-.097.321-.107.6-.036.712.005.005 0 .019-.006.016-.12-.043-.304.234-.412.611-.107.364-.1.686.003.749-.118-.013-.284.263-.37.638-.079.324-.071.603.005.715-.115.034-.244.305-.31.656-.063.343-.031.627.053.718-.107.055-.218.334-.257.68-.039.343.01.624.1.715-.09.1-.177.339-.213.627-.037.273-.013.51.039.643-.097.082-.17.359-.173.691-.008.265.031.491.1.621a1.53 1.53 0 0 0-.089.542c-.006.279.039.518.11.643-.021.981-.008 2.025.045 3.008h2.117c.016-.765.066-1.6.142-2.357.15-1.35.373-2.721 1.047-3.874l.006-.008a.112.112 0 0 0-.014-.127c-.039-.035-.094-.035-.131.008-.916 1.063-1.317 2.506-1.554 3.89-.042.271-.076.544-.107.816.058-1.111.16-2.217.414-3.269.292-1.281.875-2.5 1.984-3.183a.098.098 0 0 0 .04-.112c-.013-.05-.066-.079-.11-.066-.071.021-.137.058-.205.088-.074-.091-.344-.024-.622.153-.265.173-.441.386-.422.503 0 .005-.014.013-.014.002-.002-.013-.005-.026-.013-.034-.099-.082-.367.104-.593.42-.228.316-.317.646-.22.731.005.002.002.01-.003.01-.118-.048-.315.221-.438.596-.09.262-.111.504-.079.643 0 .004-.005.01-.005.01-.092.303-.168.609-.239.919.026-.438.065-.879.128-1.315.187-1.254.565-2.482 1.237-3.528zm6.663-3.498a.75.75 0 0 0-.485-.037.798.798 0 0 0-.326.17.925.925 0 0 0-.018-.345.838.838 0 0 0-.252-.449c-.572-.571-.179-2.291-.313-2.312-.131-.018-.084 1.696-.354 2.498a.911.911 0 0 0-.018.529.875.875 0 0 0 .26.451c.112.099.249.144.377.104a.216.216 0 0 0 .098-.043c0 .022 0 .043.002.064.029.141.129.25.265.314.139.066.31.082.488.037a.785.785 0 0 0 .428-.26c.538-.625 1.803-1.515 1.727-1.634-.076-.117-1.144 1.195-1.879.913zm2.446-2.165c-.081-.117-1.095 1.065-1.785.77a.635.635 0 0 0-.451-.042.69.69 0 0 0-.236.133c-.003-.048 0-.091-.011-.133a.706.706 0 0 0-.254-.398c-.578-.505-.124-2.041-.26-2.057-.139-.016-.137 1.512-.436 2.229a.69.69 0 0 0-.037.468c.042.17.137.311.255.401a.484.484 0 0 0 .394.093.495.495 0 0 0 .16-.082c0 .008-.003.018 0 .026a.53.53 0 0 0 .27.327.64.64 0 0 0 .446.037.626.626 0 0 0 .365-.26c.428-.64 1.661-1.39 1.58-1.512zm.249-1.48c-.089-.093-.816 1.124-1.474.978a.55.55 0 0 0-.399.04.517.517 0 0 0-.168.117c0-.03.007-.059.007-.091a.675.675 0 0 0-.17-.393c-.444-.542.173-1.825.055-1.865-.121-.035-.331 1.315-.698 1.902a.632.632 0 0 0-.095.412.65.65 0 0 0 .168.396c.095.098.21.152.336.144a.373.373 0 0 0 .244-.12c0 .053.011.111.037.167.058.123.16.207.286.242.124.04.271.029.401-.035a.595.595 0 0 0 .284-.292c.289-.64 1.273-1.509 1.186-1.602zm-.435-1.69c-.15-.106-.625 1.076-1.189 1.384a.685.685 0 0 0-.276.295.709.709 0 0 0-.078.415c.012.125.07.231.162.284a.319.319 0 0 0 .315-.002.675.675 0 0 0 .281-.298.755.755 0 0 0 .079-.412c-.042-.669.811-1.6.706-1.666zm-10.359 30.839h-5.944a6.166 6.166 0 0 1-1.103-.091c.977 1.451 2.507 2.552 4.058 3.29.239 1.323.538 2.548.645 2.644.111.095 1.633-.343 1.68-.484.045-.14-.622-2.407-.622-2.407.8-1.374 1.047-2.185 1.286-2.952zm14.954 10.169c-1.501.593-3.459.642-5.057.218-3.661-1.14-7.726-3.3-11.629-1.507-3.903-1.793-7.968.367-11.629 1.507-1.598.424-3.556.375-5.057-.218a.038.038 0 0 0-.037.066c2.16 1.671 5.186 2.44 7.91 1.456 2.617-.815 4.829-3.587 7.929-2.404-2.454.959-4.748 2.729-6.52 4.399l1.289 1.058c1.609-1.873 3.419-3.746 5.469-4.886.281-.165.449-.231.646-.242.197.011.365.077.643.242 2.052 1.14 3.863 3.013 5.472 4.886l1.289-1.058c-1.772-1.67-4.066-3.44-6.519-4.399 3.099-1.183 5.311 1.589 7.928 2.404 2.724.984 5.75.215 7.909-1.456.035-.029.006-.082-.036-.066zm-24.129-2.525c-3.826-.927-4.873-4.514-8.072-6.071-.034-.018-.071.022-.051.053 1.008 1.658 1.554 4.198 4.459 5.764.024.012.011.05-.015.042-4.168-.802-5.918.313-10.285-1.661-.037-.016-.077.024-.053.059 1.436 2.083 4.842 3.507 9.509 3.114 1.679-.143 2.897-.85 4.508-1.227.039-.011.039-.065 0-.073zm-8.015-2.2c-1.454-1.905-1.039-5.972-4.322-9.695-.026-.029-.074-.006-.066.031.628 2.742.441 5.857 2.157 8.139.016.024-.007.048-.031.032-3.386-2.665-6.866-3.468-8.414-5.625-.023-.029-.071-.014-.065.024.383 2.792 5.747 7.145 10.712 7.153.029 0 .048-.034.029-.059zm-5.083-5.064c-1.559-2.891.304-7.302-1.465-11.588-.018-.045-.086-.034-.086.014-.053 2.34-1.507 5.835-.627 8.473.01.024-.021.037-.035.016-2.238-3.271-4.015-3.954-5.495-6.948-.021-.045-.09-.033-.092.015-.094 2.035.806 3.694 1.821 5.235a17.41 17.41 0 0 0 5.929 4.836c.034.016.065-.019.05-.053zm-1.058-17.606c-.003-.048-.065-.064-.089-.022-1.189 2.224-3.307 3.994-3.375 6.931-.003.029-.034.031-.039.004-.386-2.266-2.31-4.806-2.394-8.088 0-.05-.071-.063-.089-.016-1.583 4.268.693 8.314 3.115 11.657.026.034.079.014.079-.032-.1-3.542 2.97-6.186 2.792-10.434zm1.512-5.522c-1.124 1.56-3.651 2.663-4.574 4.913-.013.032-.053.024-.048-.013.368-2.522-.606-5.45.307-8.8.014-.048-.047-.08-.076-.043-1.38 1.698-1.847 3.688-1.924 5.838-.094 2.641.835 4.567 1.294 6.358.011.043.066.04.077-.003.661-2.348 3.981-3.762 5.02-8.213.013-.047-.047-.077-.076-.037zm3.047-5.245c-1.848 1.448-4.669 2.843-5.275 3.85-.011.021-.042.005-.037-.016l.685-3.287c.307-1.395.572-2.731 1.344-3.98.023-.037-.021-.08-.056-.053-3.516 2.785-3.002 6.812-3.157 10.11-.002.035.04.051.063.027 2.071-2.246 5.446-3.553 6.49-6.606.014-.037-.026-.069-.057-.045zm2.616-5.049c-3.107.099-5.39 2.716-6.369 6.048-.006.019.021.035.036.024 4.281-3.138 4.042-4.483 6.359-5.976.042-.027.024-.096-.026-.096zm35.829 38.813c-4.365 1.974-6.118.859-10.286 1.661-.025.008-.039-.03-.015-.042 2.905-1.566 3.451-4.106 4.459-5.764.021-.031-.016-.071-.05-.053-3.197 1.557-4.244 5.144-8.073 6.071-.039.008-.039.062 0 .073 1.612.377 2.829 1.084 4.509 1.227 4.666.393 8.075-1.031 9.508-3.114.024-.035-.016-.075-.052-.059zm4.726-7.445c-1.548 2.157-5.028 2.96-8.414 5.625-.021.016-.047-.008-.029-.032 1.714-2.282 1.528-5.397 2.155-8.139.008-.037-.039-.06-.065-.031-3.281 3.723-2.869 7.79-4.32 9.695a.036.036 0 0 0 .029.059c4.965-.008 10.327-4.361 10.71-7.153.005-.038-.042-.053-.066-.024zm2.207-7.964c-.002-.048-.071-.06-.092-.015-1.48 2.994-3.256 3.677-5.492 6.948-.016.021-.045.008-.037-.016.879-2.638-.572-6.133-.627-8.473 0-.048-.069-.059-.087-.014-1.769 4.286.094 8.697-1.462 11.588-.018.034.013.069.047.053a17.401 17.401 0 0 0 5.929-4.836c1.016-1.541 1.916-3.2 1.821-5.235zm-.756-8.779c-.018-.047-.089-.034-.089.016-.084 3.282-2.007 5.822-2.393 8.088-.005.027-.037.025-.037-.004-.068-2.937-2.189-4.707-3.378-6.931a.046.046 0 0 0-.086.022c-.179 4.248 2.889 6.892 2.789 10.434 0 .046.056.066.082.032 2.419-3.343 4.695-7.389 3.112-11.657zm-1.183-2.436c-.076-2.15-.543-4.14-1.924-5.838-.028-.037-.087-.005-.076.043.913 3.35-.06 6.278.31 8.8.005.037-.037.045-.05.013-.924-2.25-3.451-3.353-4.574-4.913-.027-.04-.087-.01-.076.037 1.039 4.451 4.358 5.865 5.02 8.213.01.043.066.046.076.003.459-1.791 1.388-3.717 1.294-6.358zm-6.023-10.626c-.034-.027-.079.016-.055.053.771 1.249 1.036 2.585 1.343 3.98l.685 3.287c.006.021-.026.037-.036.016-.607-1.007-3.425-2.402-5.275-3.85-.029-.024-.071.008-.058.045 1.044 3.053 4.419 4.36 6.49 6.606.023.024.065.008.063-.027-.155-3.298.359-7.325-3.157-10.11zm-5.955-1.563c-.05 0-.066.069-.026.096 2.317 1.493 2.078 2.838 6.359 5.976.018.011.042-.005.036-.024-.978-3.332-3.261-5.949-6.369-6.048z"/></g></svg>