<?xml version="1.0" encoding="UTF-8"?>
<svg width="281px" height="58px" viewBox="0 0 281 58" version="1.1" xmlns="http://www.w3.org/2000/svg" xmlns:xlink="http://www.w3.org/1999/xlink">
    <!-- Generator: Sketch 48.2 (47327) - http://www.bohemiancoding.com/sketch -->
    <title>extended/es/wfp-logo-extended-white-es</title>
    <desc>Created with Sketch.</desc>
    <defs></defs>
    <g id="White" stroke="none" stroke-width="1" fill="none" fill-rule="evenodd" transform="translate(-348.000000, -423.000000)">
        <g id="extended/es/wfp-logo-extended-white-es" transform="translate(348.000000, 423.000000)" fill="#FFFFFF">
            <path d="M64.388,29.516 L65.109,29.516 C65.783,29.516 66.287,29.382 66.622,29.117 C66.956,28.85 67.124,28.462 67.124,27.954 C67.124,27.44 66.983,27.06 66.703,26.816 C66.423,26.571 65.983,26.448 65.385,26.448 L64.388,26.448 L64.388,29.516 Z M69.336,27.875 C69.336,28.988 68.988,29.838 68.294,30.427 C67.599,31.017 66.61,31.31 65.328,31.31 L64.388,31.31 L64.388,34.986 L62.197,34.986 L62.197,24.653 L65.498,24.653 C66.751,24.653 67.704,24.922 68.357,25.461 C69.01,26.001 69.336,26.806 69.336,27.875 Z" id="Fill-1"></path>
            <path d="M74.964,26.936 C75.256,26.936 75.499,26.957 75.692,26.999 L75.529,29.021 C75.355,28.974 75.143,28.95 74.894,28.95 C74.205,28.95 73.669,29.126 73.285,29.48 C72.901,29.833 72.709,30.329 72.709,30.964 L72.709,34.986 L70.553,34.986 L70.553,27.084 L72.185,27.084 L72.504,28.412 L72.61,28.412 C72.855,27.97 73.187,27.613 73.603,27.342 C74.021,27.071 74.474,26.936 74.964,26.936" id="Fill-2"></path>
            <path d="M78.374,31.02 C78.374,31.803 78.502,32.394 78.759,32.795 C79.016,33.195 79.435,33.395 80.014,33.395 C80.589,33.395 81.002,33.197 81.254,32.799 C81.506,32.4 81.633,31.808 81.633,31.02 C81.633,30.239 81.505,29.653 81.251,29.261 C80.996,28.87 80.579,28.674 80,28.674 C79.425,28.674 79.01,28.869 78.756,29.257 C78.501,29.646 78.374,30.234 78.374,31.02 Z M83.838,31.02 C83.838,32.308 83.499,33.313 82.82,34.039 C82.142,34.765 81.196,35.128 79.985,35.128 C79.227,35.128 78.558,34.962 77.977,34.629 C77.398,34.297 76.953,33.82 76.642,33.198 C76.331,32.576 76.176,31.85 76.176,31.02 C76.176,29.73 76.513,28.726 77.186,28.01 C77.86,27.293 78.808,26.936 80.028,26.936 C80.786,26.936 81.456,27.101 82.035,27.43 C82.615,27.76 83.06,28.234 83.371,28.851 C83.683,29.468 83.838,30.192 83.838,31.02 Z" id="Fill-3"></path>
            <path d="M86.755,29.671 C86.755,30.1 86.853,30.438 87.048,30.688 C87.243,30.938 87.541,31.063 87.942,31.063 C88.348,31.063 88.645,30.938 88.833,30.688 C89.021,30.438 89.115,30.1 89.115,29.671 C89.115,28.719 88.725,28.244 87.942,28.244 C87.15,28.244 86.755,28.719 86.755,29.671 Z M85.97,36.103 C85.97,36.4 86.112,36.634 86.397,36.803 C86.683,36.973 87.082,37.058 87.596,37.058 C88.368,37.058 88.974,36.951 89.412,36.739 C89.851,36.527 90.069,36.237 90.069,35.87 C90.069,35.573 89.94,35.368 89.681,35.255 C89.422,35.142 89.021,35.085 88.479,35.085 L87.362,35.085 C86.967,35.085 86.636,35.179 86.369,35.364 C86.103,35.551 85.97,35.797 85.97,36.103 Z M92.07,27.084 L92.07,28.18 L90.833,28.497 C91.06,28.851 91.172,29.247 91.172,29.685 C91.172,30.533 90.877,31.194 90.285,31.668 C89.693,32.142 88.873,32.378 87.822,32.378 L87.433,32.356 L87.115,32.321 C86.894,32.491 86.782,32.68 86.782,32.887 C86.782,33.198 87.179,33.353 87.971,33.353 L89.313,33.353 C90.181,33.353 90.841,33.54 91.296,33.912 C91.751,34.284 91.979,34.831 91.979,35.552 C91.979,36.475 91.593,37.191 90.822,37.701 C90.052,38.21 88.945,38.464 87.504,38.464 C86.401,38.464 85.559,38.272 84.977,37.888 C84.395,37.504 84.103,36.966 84.103,36.272 C84.103,35.797 84.252,35.398 84.549,35.078 C84.846,34.758 85.281,34.529 85.856,34.392 C85.635,34.299 85.442,34.145 85.277,33.93 C85.112,33.715 85.029,33.487 85.029,33.247 C85.029,32.946 85.117,32.695 85.291,32.495 C85.466,32.294 85.718,32.098 86.048,31.904 C85.633,31.726 85.304,31.437 85.061,31.042 C84.818,30.646 84.697,30.18 84.697,29.643 C84.697,28.781 84.978,28.114 85.539,27.642 C86.1,27.171 86.9,26.936 87.942,26.936 C88.163,26.936 88.426,26.956 88.73,26.996 C89.034,27.036 89.229,27.065 89.313,27.084 L92.07,27.084 Z" id="Fill-4"></path>
            <path d="M97.354,26.936 C97.646,26.936 97.89,26.957 98.083,26.999 L97.92,29.021 C97.746,28.974 97.533,28.95 97.284,28.95 C96.596,28.95 96.06,29.126 95.676,29.48 C95.292,29.833 95.1,30.329 95.1,30.964 L95.1,34.986 L92.943,34.986 L92.943,27.084 L94.576,27.084 L94.895,28.412 L95.001,28.412 C95.246,27.97 95.577,27.613 95.994,27.342 C96.411,27.071 96.864,26.936 97.354,26.936" id="Fill-5"></path>
            <path d="M103.285,31.325 L102.451,31.354 C101.824,31.372 101.357,31.485 101.051,31.692 C100.745,31.899 100.592,32.216 100.592,32.64 C100.592,33.247 100.94,33.552 101.638,33.552 C102.138,33.552 102.536,33.407 102.836,33.12 C103.135,32.833 103.285,32.451 103.285,31.975 L103.285,31.325 Z M103.921,34.986 L103.504,33.912 L103.447,33.912 C103.084,34.369 102.711,34.685 102.327,34.862 C101.942,35.039 101.442,35.128 100.825,35.128 C100.066,35.128 99.469,34.911 99.033,34.477 C98.597,34.044 98.379,33.427 98.379,32.625 C98.379,31.787 98.673,31.168 99.259,30.77 C99.846,30.372 100.73,30.152 101.913,30.11 L103.285,30.067 L103.285,29.72 C103.285,28.919 102.875,28.519 102.055,28.519 C101.423,28.519 100.681,28.709 99.828,29.091 L99.114,27.635 C100.023,27.16 101.032,26.921 102.14,26.921 C103.2,26.921 104.013,27.153 104.578,27.614 C105.144,28.076 105.427,28.778 105.427,29.72 L105.427,34.986 L103.921,34.986 Z" id="Fill-6"></path>
            <path d="M114.205,34.986 L112.049,34.986 L112.049,30.37 C112.049,29.801 111.954,29.374 111.763,29.088 C111.572,28.803 111.271,28.661 110.861,28.661 C110.311,28.661 109.909,28.863 109.66,29.268 C109.41,29.673 109.285,30.34 109.285,31.268 L109.285,34.986 L107.129,34.986 L107.129,27.084 L108.776,27.084 L109.066,28.095 L109.187,28.095 C109.398,27.732 109.704,27.448 110.105,27.243 C110.506,27.038 110.965,26.936 111.483,26.936 C112.666,26.936 113.468,27.322 113.887,28.095 L114.078,28.095 C114.29,27.727 114.602,27.442 115.015,27.24 C115.427,27.037 115.892,26.936 116.41,26.936 C117.306,26.936 117.983,27.165 118.442,27.624 C118.902,28.084 119.132,28.821 119.132,29.833 L119.132,34.986 L116.969,34.986 L116.969,30.37 C116.969,29.801 116.873,29.374 116.683,29.088 C116.491,28.803 116.191,28.661 115.781,28.661 C115.254,28.661 114.858,28.849 114.598,29.226 C114.336,29.603 114.205,30.202 114.205,31.02 L114.205,34.986" id="Fill-7"></path>
            <path d="M125.21,31.325 L124.376,31.354 C123.749,31.372 123.282,31.485 122.977,31.692 C122.67,31.899 122.517,32.216 122.517,32.64 C122.517,33.247 122.865,33.552 123.563,33.552 C124.063,33.552 124.462,33.407 124.761,33.12 C125.061,32.833 125.21,32.451 125.21,31.975 L125.21,31.325 Z M125.847,34.986 L125.43,33.912 L125.373,33.912 C125.01,34.369 124.637,34.685 124.252,34.862 C123.868,35.039 123.367,35.128 122.75,35.128 C121.991,35.128 121.395,34.911 120.958,34.477 C120.522,34.044 120.305,33.427 120.305,32.625 C120.305,31.787 120.598,31.168 121.185,30.77 C121.771,30.372 122.656,30.152 123.839,30.11 L125.21,30.067 L125.21,29.72 C125.21,28.919 124.8,28.519 123.98,28.519 C123.349,28.519 122.606,28.709 121.754,29.091 L121.04,27.635 C121.949,27.16 122.957,26.921 124.065,26.921 C125.125,26.921 125.938,27.153 126.504,27.614 C127.069,28.076 127.352,28.778 127.352,29.72 L127.352,34.986 L125.847,34.986 Z" id="Fill-8"></path>
            <path d="M137.066,34.986 L134.578,26.879 L134.515,26.879 C134.604,28.529 134.649,29.628 134.649,30.18 L134.649,34.986 L132.691,34.986 L132.691,24.653 L135.674,24.653 L138.12,32.555 L138.162,32.555 L140.756,24.653 L143.739,24.653 L143.739,34.986 L141.696,34.986 L141.696,30.095 C141.696,29.865 141.7,29.598 141.707,29.296 C141.714,28.995 141.746,28.194 141.803,26.893 L141.739,26.893 L139.074,34.986 L137.066,34.986" id="Fill-9"></path>
            <path d="M151.29,34.986 L151,33.976 L150.888,33.976 C150.656,34.343 150.329,34.627 149.904,34.827 C149.48,35.027 148.997,35.128 148.456,35.128 C147.527,35.128 146.827,34.879 146.356,34.382 C145.885,33.885 145.649,33.17 145.649,32.236 L145.649,27.084 L147.806,27.084 L147.806,31.699 C147.806,32.27 147.906,32.697 148.109,32.982 C148.312,33.268 148.635,33.41 149.078,33.41 C149.681,33.41 150.117,33.209 150.386,32.806 C150.654,32.402 150.788,31.734 150.788,30.802 L150.788,27.084 L152.944,27.084 L152.944,34.986 L151.29,34.986" id="Fill-10"></path>
            <path d="M161.979,34.986 L159.824,34.986 L159.824,30.37 C159.824,29.801 159.723,29.374 159.52,29.088 C159.317,28.803 158.994,28.661 158.552,28.661 C157.948,28.661 157.513,28.862 157.244,29.265 C156.976,29.667 156.841,30.335 156.841,31.268 L156.841,34.986 L154.685,34.986 L154.685,27.084 L156.332,27.084 L156.622,28.095 L156.742,28.095 C156.982,27.713 157.313,27.424 157.735,27.229 C158.157,27.034 158.637,26.936 159.174,26.936 C160.093,26.936 160.79,27.184 161.266,27.681 C161.742,28.178 161.979,28.896 161.979,29.833 L161.979,34.986" id="Fill-11"></path>
            <path d="M167.02,33.41 C167.57,33.41 167.975,33.25 168.231,32.93 C168.488,32.609 168.629,32.064 168.652,31.297 L168.652,31.063 C168.652,30.215 168.521,29.608 168.26,29.24 C167.998,28.872 167.573,28.689 166.984,28.689 C166.503,28.689 166.13,28.892 165.863,29.3 C165.598,29.707 165.464,30.3 165.464,31.077 C165.464,31.854 165.599,32.438 165.867,32.827 C166.136,33.216 166.52,33.41 167.02,33.41 Z M166.263,35.128 C165.335,35.128 164.605,34.767 164.075,34.046 C163.545,33.325 163.28,32.326 163.28,31.049 C163.28,29.753 163.55,28.744 164.089,28.021 C164.629,27.297 165.372,26.936 166.319,26.936 C167.313,26.936 168.072,27.322 168.596,28.095 L168.666,28.095 C168.558,27.506 168.504,26.981 168.504,26.519 L168.504,23.988 L170.667,23.988 L170.667,34.986 L169.013,34.986 L168.596,33.961 L168.504,33.961 C168.014,34.739 167.267,35.128 166.263,35.128 Z" id="Fill-12"></path>
            <path d="M172.406,34.986 L174.563,34.986 L174.563,27.084 L172.406,27.084 L172.406,34.986 Z M172.314,25.041 C172.314,24.339 172.705,23.988 173.487,23.988 C174.27,23.988 174.661,24.339 174.661,25.041 C174.661,25.375 174.563,25.636 174.368,25.823 C174.172,26.008 173.879,26.101 173.487,26.101 C172.705,26.101 172.314,25.748 172.314,25.041 Z" id="Fill-13"></path>
            <path d="M180.677,31.325 L179.843,31.354 C179.216,31.372 178.749,31.485 178.443,31.692 C178.137,31.899 177.983,32.216 177.983,32.64 C177.983,33.247 178.332,33.552 179.03,33.552 C179.529,33.552 179.929,33.407 180.228,33.12 C180.527,32.833 180.677,32.451 180.677,31.975 L180.677,31.325 Z M181.313,34.986 L180.896,33.912 L180.84,33.912 C180.477,34.369 180.104,34.685 179.719,34.862 C179.335,35.039 178.834,35.128 178.217,35.128 C177.458,35.128 176.861,34.911 176.425,34.477 C175.989,34.044 175.771,33.427 175.771,32.625 C175.771,31.787 176.064,31.168 176.651,30.77 C177.238,30.372 178.123,30.152 179.306,30.11 L180.677,30.067 L180.677,29.72 C180.677,28.919 180.267,28.519 179.447,28.519 C178.815,28.519 178.073,28.709 177.221,29.091 L176.507,27.635 C177.416,27.16 178.424,26.921 179.532,26.921 C180.592,26.921 181.405,27.153 181.971,27.614 C182.536,28.076 182.818,28.778 182.818,29.72 L182.818,34.986 L181.313,34.986 Z" id="Fill-14"></path>
            <polygon id="Fill-15" points="184.524 34.987 186.681 34.987 186.681 23.988 184.524 23.988"></polygon>
            <path d="M195.15,33.41 C195.702,33.41 196.106,33.25 196.363,32.93 C196.62,32.609 196.76,32.064 196.783,31.297 L196.783,31.063 C196.783,30.215 196.652,29.608 196.392,29.24 C196.13,28.872 195.704,28.689 195.115,28.689 C194.635,28.689 194.261,28.892 193.995,29.3 C193.729,29.707 193.596,30.3 193.596,31.077 C193.596,31.854 193.729,32.438 193.998,32.827 C194.267,33.216 194.651,33.41 195.15,33.41 Z M194.395,35.128 C193.466,35.128 192.736,34.767 192.206,34.046 C191.677,33.325 191.411,32.326 191.411,31.049 C191.411,29.753 191.681,28.744 192.221,28.021 C192.76,27.297 193.504,26.936 194.451,26.936 C195.445,26.936 196.204,27.322 196.727,28.095 L196.798,28.095 C196.689,27.506 196.635,26.981 196.635,26.519 L196.635,23.988 L198.798,23.988 L198.798,34.986 L197.144,34.986 L196.727,33.961 L196.635,33.961 C196.145,34.739 195.398,35.128 194.395,35.128 Z" id="Fill-16"></path>
            <path d="M203.868,28.469 C203.411,28.469 203.053,28.615 202.794,28.904 C202.535,29.194 202.387,29.605 202.349,30.138 L205.374,30.138 C205.364,29.605 205.226,29.194 204.957,28.904 C204.688,28.615 204.325,28.469 203.868,28.469 Z M204.172,35.128 C202.9,35.128 201.905,34.776 201.189,34.074 C200.473,33.372 200.115,32.378 200.115,31.092 C200.115,29.768 200.446,28.744 201.108,28.021 C201.771,27.297 202.686,26.936 203.854,26.936 C204.971,26.936 205.841,27.253 206.463,27.89 C207.085,28.526 207.396,29.405 207.396,30.526 L207.396,31.572 L202.299,31.572 C202.322,32.184 202.504,32.663 202.844,33.007 C203.183,33.351 203.658,33.523 204.271,33.523 C204.747,33.523 205.197,33.474 205.621,33.375 C206.046,33.275 206.488,33.118 206.95,32.901 L206.95,34.569 C206.573,34.758 206.17,34.898 205.741,34.99 C205.313,35.082 204.79,35.128 204.172,35.128 Z" id="Fill-17"></path>
            <path d="M217.322,30.688 C216.63,28.46 216.239,27.2 216.152,26.908 C216.065,26.615 216.003,26.384 215.965,26.214 C215.81,26.818 215.364,28.309 214.629,30.688 L217.322,30.688 Z M218.595,34.986 L217.846,32.526 L214.078,32.526 L213.328,34.986 L210.968,34.986 L214.615,24.61 L217.294,24.61 L220.955,34.986 L218.595,34.986 Z" id="Fill-18"></path>
            <polygon id="Fill-19" points="221.842 34.987 223.998 34.987 223.998 23.988 221.842 23.988"></polygon>
            <path d="M225.745,34.986 L227.901,34.986 L227.901,27.084 L225.745,27.084 L225.745,34.986 Z M225.653,25.041 C225.653,24.339 226.045,23.988 226.827,23.988 C227.609,23.988 228,24.339 228,25.041 C228,25.375 227.902,25.636 227.707,25.823 C227.512,26.008 227.218,26.101 226.827,26.101 C226.045,26.101 225.653,25.748 225.653,25.041 Z" id="Fill-20"></path>
            <path d="M236.726,34.986 L234.569,34.986 L234.569,30.37 C234.569,29.801 234.475,29.374 234.283,29.088 C234.093,28.803 233.792,28.661 233.382,28.661 C232.831,28.661 232.43,28.863 232.181,29.268 C231.931,29.673 231.806,30.34 231.806,31.268 L231.806,34.986 L229.649,34.986 L229.649,27.084 L231.297,27.084 L231.587,28.095 L231.707,28.095 C231.919,27.732 232.225,27.448 232.626,27.243 C233.026,27.038 233.485,26.936 234.004,26.936 C235.187,26.936 235.988,27.322 236.407,28.095 L236.599,28.095 C236.811,27.727 237.122,27.442 237.535,27.24 C237.947,27.037 238.412,26.936 238.931,26.936 C239.826,26.936 240.504,27.165 240.963,27.624 C241.423,28.084 241.652,28.821 241.652,29.833 L241.652,34.986 L239.489,34.986 L239.489,30.37 C239.489,29.801 239.394,29.374 239.203,29.088 C239.012,28.803 238.712,28.661 238.302,28.661 C237.774,28.661 237.379,28.849 237.118,29.226 C236.856,29.603 236.726,30.202 236.726,31.02 L236.726,34.986" id="Fill-21"></path>
            <path d="M246.676,28.469 C246.219,28.469 245.86,28.615 245.601,28.904 C245.342,29.194 245.193,29.605 245.155,30.138 L248.181,30.138 C248.172,29.605 248.032,29.194 247.764,28.904 C247.495,28.615 247.133,28.469 246.676,28.469 Z M246.979,35.128 C245.707,35.128 244.713,34.776 243.996,34.074 C243.28,33.372 242.922,32.378 242.922,31.092 C242.922,29.768 243.253,28.744 243.915,28.021 C244.577,27.297 245.492,26.936 246.661,26.936 C247.778,26.936 248.647,27.253 249.27,27.89 C249.892,28.526 250.203,29.405 250.203,30.526 L250.203,31.572 L245.106,31.572 C245.13,32.184 245.312,32.663 245.65,33.007 C245.99,33.351 246.466,33.523 247.078,33.523 C247.555,33.523 248.005,33.474 248.429,33.375 C248.853,33.275 249.296,33.118 249.758,32.901 L249.758,34.569 C249.38,34.758 248.978,34.898 248.549,34.99 C248.12,35.082 247.597,35.128 246.979,35.128 Z" id="Fill-22"></path>
            <path d="M258.857,34.986 L256.701,34.986 L256.701,30.37 C256.701,29.801 256.6,29.374 256.397,29.088 C256.194,28.803 255.872,28.661 255.429,28.661 C254.825,28.661 254.39,28.862 254.121,29.265 C253.853,29.667 253.719,30.335 253.719,31.268 L253.719,34.986 L251.563,34.986 L251.563,27.084 L253.209,27.084 L253.499,28.095 L253.619,28.095 C253.859,27.713 254.19,27.424 254.612,27.229 C255.034,27.034 255.514,26.936 256.051,26.936 C256.97,26.936 257.667,27.184 258.144,27.681 C258.619,28.178 258.857,28.896 258.857,29.833 L258.857,34.986" id="Fill-23"></path>
            <path d="M263.878,33.41 C264.255,33.41 264.707,33.327 265.234,33.163 L265.234,34.767 C264.697,35.008 264.038,35.128 263.256,35.128 C262.394,35.128 261.765,34.91 261.372,34.474 C260.979,34.038 260.781,33.384 260.781,32.513 L260.781,28.703 L259.749,28.703 L259.749,27.79 L260.937,27.07 L261.559,25.402 L262.938,25.402 L262.938,27.084 L265.15,27.084 L265.15,28.703 L262.938,28.703 L262.938,32.513 C262.938,32.818 263.023,33.045 263.195,33.19 C263.367,33.337 263.595,33.41 263.878,33.41" id="Fill-24"></path>
            <path d="M268.036,31.02 C268.036,31.803 268.164,32.394 268.421,32.795 C268.678,33.195 269.097,33.395 269.676,33.395 C270.251,33.395 270.664,33.197 270.916,32.799 C271.168,32.4 271.295,31.808 271.295,31.02 C271.295,30.239 271.167,29.653 270.913,29.261 C270.658,28.87 270.241,28.674 269.662,28.674 C269.087,28.674 268.672,28.869 268.418,29.257 C268.163,29.646 268.036,30.234 268.036,31.02 Z M273.5,31.02 C273.5,32.308 273.161,33.313 272.482,34.039 C271.804,34.765 270.858,35.128 269.647,35.128 C268.889,35.128 268.22,34.962 267.64,34.629 C267.061,34.297 266.615,33.82 266.304,33.198 C265.993,32.576 265.838,31.85 265.838,31.02 C265.838,29.73 266.175,28.726 266.849,28.01 C267.522,27.293 268.47,26.936 269.69,26.936 C270.448,26.936 271.118,27.101 271.697,27.43 C272.277,27.76 272.723,28.234 273.033,28.851 C273.345,29.468 273.5,30.192 273.5,31.02 Z" id="Fill-25"></path>
            <path d="M280.377,32.64 C280.377,33.45 280.095,34.067 279.532,34.491 C278.969,34.916 278.126,35.128 277.005,35.128 C276.43,35.128 275.939,35.089 275.535,35.011 C275.129,34.934 274.75,34.819 274.396,34.668 L274.396,32.887 C274.797,33.075 275.248,33.233 275.75,33.36 C276.252,33.487 276.694,33.552 277.075,33.552 C277.857,33.552 278.249,33.325 278.249,32.873 C278.249,32.703 278.197,32.565 278.094,32.459 C277.99,32.353 277.811,32.233 277.557,32.099 C277.302,31.965 276.963,31.808 276.538,31.629 C275.931,31.374 275.484,31.139 275.199,30.922 C274.914,30.705 274.706,30.456 274.577,30.176 C274.447,29.896 274.383,29.551 274.383,29.141 C274.383,28.439 274.654,27.896 275.199,27.512 C275.743,27.127 276.515,26.936 277.514,26.936 C278.466,26.936 279.392,27.143 280.292,27.558 L279.642,29.113 C279.246,28.943 278.876,28.804 278.532,28.696 C278.188,28.587 277.837,28.533 277.479,28.533 C276.843,28.533 276.524,28.705 276.524,29.049 C276.524,29.243 276.627,29.41 276.832,29.551 C277.037,29.693 277.485,29.902 278.179,30.18 C278.796,30.43 279.248,30.663 279.535,30.88 C279.823,31.097 280.035,31.346 280.172,31.629 C280.309,31.911 280.377,32.248 280.377,32.64" id="Fill-26"></path>
            <path d="M35.934,4.664 L36.481,4.664 C36.993,4.664 37.377,4.563 37.631,4.36 C37.885,4.158 38.013,3.863 38.013,3.477 C38.013,3.087 37.905,2.799 37.692,2.612 C37.479,2.426 37.146,2.332 36.691,2.332 L35.934,2.332 L35.934,4.664 Z M39.693,3.418 C39.693,4.263 39.43,4.909 38.901,5.356 C38.373,5.805 37.622,6.028 36.648,6.028 L35.934,6.028 L35.934,8.821 L34.269,8.821 L34.269,0.969 L36.776,0.969 C37.729,0.969 38.453,1.173 38.949,1.584 C39.445,1.994 39.693,2.605 39.693,3.418 Z M30.157,8.821 L28.52,8.821 L28.52,0.969 L33.021,0.969 L33.021,2.332 L30.157,2.332 L30.157,4.358 L32.821,4.358 L32.821,5.717 L30.157,5.717 L30.157,8.821 Z M25.632,8.821 L23.736,8.821 L22.673,4.696 C22.633,4.549 22.566,4.246 22.472,3.786 C22.376,3.325 22.321,3.016 22.308,2.859 C22.286,3.053 22.232,3.364 22.146,3.791 C22.06,4.219 21.994,4.525 21.947,4.707 L20.89,8.821 L18.999,8.821 L16.995,0.969 L18.634,0.969 L19.639,5.254 C19.814,6.046 19.94,6.732 20.02,7.312 C20.041,7.108 20.09,6.792 20.167,6.364 C20.244,5.935 20.316,5.603 20.385,5.368 L21.528,0.969 L23.103,0.969 L24.246,5.368 C24.297,5.564 24.359,5.866 24.435,6.27 C24.51,6.675 24.567,7.022 24.606,7.312 C24.642,7.032 24.699,6.684 24.778,6.267 C24.857,5.85 24.929,5.513 24.993,5.254 L25.992,0.969 L27.63,0.969 L25.632,8.821 Z M21.56,36.134 C18.509,36.134 16.55,36.858 16.016,37.083 C15.983,37.097 15.958,37.052 15.982,37.027 C19.335,33.542 23.261,33.734 24.205,33.734 C25.16,33.734 35.366,33.734 35.366,33.734 C35.929,33.734 36.385,34.271 36.385,34.935 C36.385,35.597 35.929,36.134 35.366,36.134 C35.366,36.134 24.166,36.134 21.56,36.134 Z M24.074,39.219 C20.786,39.219 19.828,37.351 14.852,38.584 C14.818,38.593 14.795,38.546 14.824,38.526 C17.598,36.623 20.615,36.796 21.835,36.796 C22.79,36.796 35.366,36.796 35.366,36.796 C35.929,36.796 36.385,37.333 36.385,37.995 C36.385,38.657 35.929,39.194 35.366,39.194 C35.366,39.194 26.677,39.219 24.074,39.219 Z M24.308,42.256 C20.933,42.256 20.663,39.766 15.661,39.205 C15.626,39.201 15.622,39.149 15.656,39.141 C19.766,38.113 21.294,39.856 23.693,39.856 C24.648,39.856 35.366,39.856 35.366,39.856 C35.929,39.856 36.385,40.393 36.385,41.056 C36.385,41.719 35.929,42.256 35.366,42.256 C35.366,42.256 26.913,42.256 24.308,42.256 Z M23.575,33.073 C20.858,33.073 18.606,34.258 18.08,34.557 C18.051,34.573 18.021,34.538 18.04,34.511 C18.48,33.862 20.86,30.674 24.95,30.674 C25.905,30.674 35.366,30.674 35.366,30.674 C35.929,30.674 36.385,31.211 36.385,31.874 C36.385,32.536 35.929,33.073 35.366,33.073 C35.366,33.073 26.181,33.073 23.575,33.073 Z M38.516,26.448 C38.411,26.342 38.253,26.265 38.072,26.243 C37.938,26.225 37.817,26.246 37.71,26.286 C37.758,26.187 37.797,26.081 37.813,25.956 C37.839,25.763 37.802,25.581 37.728,25.444 C37.393,24.708 38.354,23.235 38.232,23.169 C38.117,23.105 37.571,24.729 37.041,25.385 C36.938,25.505 36.865,25.677 36.842,25.874 C36.823,26.068 36.854,26.251 36.928,26.387 C37.002,26.519 37.114,26.613 37.245,26.621 C37.282,26.626 37.319,26.623 37.353,26.615 C37.346,26.634 37.338,26.655 37.335,26.674 C37.313,26.817 37.369,26.953 37.477,27.062 C37.581,27.173 37.736,27.247 37.917,27.269 C38.103,27.293 38.277,27.256 38.411,27.176 C39.13,26.783 40.621,26.395 40.589,26.257 C40.561,26.119 39.106,26.972 38.516,26.448 Z M39.615,25.374 C39.516,25.266 39.374,25.191 39.209,25.175 C39.114,25.17 39.027,25.186 38.941,25.218 C38.954,25.172 38.973,25.133 38.977,25.087 C38.996,24.912 38.954,24.75 38.875,24.625 C38.511,23.948 39.463,22.669 39.34,22.606 C39.217,22.542 38.694,23.974 38.164,24.54 C38.06,24.641 37.985,24.79 37.968,24.965 C37.951,25.141 37.991,25.306 38.067,25.43 C38.151,25.553 38.267,25.64 38.405,25.659 C38.466,25.664 38.529,25.653 38.584,25.638 C38.581,25.645 38.573,25.656 38.576,25.664 C38.563,25.813 38.618,25.956 38.715,26.062 C38.815,26.169 38.959,26.243 39.119,26.257 C39.285,26.272 39.437,26.227 39.553,26.14 C40.172,25.693 41.589,25.428 41.552,25.284 C41.519,25.146 40.161,25.895 39.615,25.374 Z M40.578,24.381 C40.477,24.304 40.337,24.261 40.19,24.277 C40.119,24.28 40.054,24.301 39.993,24.328 C40.004,24.298 40.022,24.274 40.032,24.245 C40.072,24.094 40.059,23.939 40.009,23.815 C39.778,23.15 40.802,22.167 40.702,22.087 C40.603,22.013 39.938,23.204 39.393,23.623 C39.287,23.701 39.203,23.823 39.161,23.977 C39.117,24.125 39.13,24.282 39.183,24.405 C39.237,24.53 39.327,24.622 39.447,24.66 C39.539,24.689 39.631,24.67 39.718,24.633 C39.699,24.683 39.688,24.742 39.694,24.803 C39.707,24.939 39.772,25.053 39.881,25.133 C39.982,25.212 40.122,25.252 40.267,25.242 C40.416,25.226 40.545,25.162 40.634,25.066 C41.124,24.569 42.348,24.104 42.298,23.985 C42.245,23.865 41.145,24.75 40.578,24.381 Z M42.474,22.247 C42.371,22.096 41.516,23.034 40.883,23.124 C40.765,23.14 40.634,23.198 40.523,23.302 C40.405,23.408 40.329,23.538 40.303,23.663 C40.274,23.786 40.293,23.905 40.358,23.987 C40.429,24.073 40.536,24.11 40.657,24.096 C40.778,24.083 40.904,24.025 41.022,23.915 C41.133,23.812 41.208,23.682 41.237,23.559 C41.429,22.916 42.55,22.345 42.474,22.247 Z M24.779,23.517 C24.754,23.61 24.569,24.333 24.569,24.333 C24.518,24.362 24.297,24.314 24.239,24.309 C23.816,24.269 23.439,23.902 23.602,23.464 C23.733,23.106 24.005,23.068 24.35,23.052 C24.492,23.046 24.749,23.08 24.878,23.169 C24.878,23.169 24.827,23.334 24.779,23.517 Z M24.294,25.699 C24.281,25.781 24.268,25.863 24.255,25.946 C23.992,25.781 23.838,25.404 23.964,25.106 C24.061,24.88 24.301,24.821 24.478,24.811 C24.415,25.106 24.352,25.401 24.294,25.699 Z M23.916,28.395 C23.883,28.58 23.633,28.605 23.462,28.656 C22.966,28.805 22.496,28.741 22.344,28.148 C22.179,27.514 22.659,27.247 23.174,27.123 C23.454,27.057 23.714,27.112 23.906,27.349 C23.954,27.408 24.011,27.461 24.023,27.517 C24.023,27.517 23.947,28.221 23.916,28.395 Z M22.354,25.273 C22.738,25.181 23.134,25.037 23.428,25.414 C23.738,25.81 23.636,26.445 23.137,26.613 C22.809,26.724 22.412,26.82 22.132,26.552 C21.765,26.201 21.79,25.404 22.354,25.273 Z M21.979,23.217 C22.384,23.119 22.801,22.97 23.11,23.366 C23.434,23.78 23.326,24.45 22.804,24.625 C22.457,24.739 22.04,24.84 21.746,24.558 C21.36,24.192 21.389,23.355 21.979,23.217 Z M21.604,27.662 C21.499,28.032 21.194,28.087 20.875,28.164 C20.665,27.907 20.101,27.255 20.091,27.178 C20.088,27.153 20.091,27.124 20.102,27.088 C20.129,27.011 20.219,26.937 20.284,26.894 C20.476,26.769 20.885,26.677 21.105,26.722 C21.502,26.807 21.709,27.29 21.604,27.662 Z M19.599,25.763 C19.311,24.739 21.026,24.293 21.292,25.297 C21.564,26.329 19.833,26.767 19.599,25.763 Z M19.348,23.719 C19.053,22.702 20.777,22.255 21.043,23.254 C21.315,24.287 19.581,24.726 19.348,23.719 Z M19.105,21.71 C18.825,20.762 20.444,20.342 20.69,21.277 C20.945,22.239 19.326,22.654 19.105,21.71 Z M18.94,25.577 C18.86,25.624 18.831,25.649 18.805,25.649 L18.034,24.811 C18.043,24.787 18.281,24.615 18.36,24.569 C19.001,24.213 19.528,25.231 18.94,25.577 Z M17.479,23.69 C17.098,22.85 18.483,21.939 18.903,22.845 C19.289,23.679 17.903,24.606 17.479,23.69 Z M18.644,21.03 C19.082,21.809 17.762,22.678 17.384,21.84 C17.048,21.118 18.222,20.275 18.644,21.03 Z M17.536,19.215 C17.73,19.043 17.956,18.95 18.187,19.061 C18.558,19.239 18.567,19.794 18.245,20.015 C18.098,20.116 17.849,20.241 17.668,20.196 C17.271,20.095 17.195,19.516 17.536,19.215 Z M17.586,17.546 C17.746,17.438 17.959,17.341 18.143,17.416 C18.477,17.553 18.466,18.038 18.195,18.232 C18.071,18.32 17.849,18.429 17.699,18.389 C17.36,18.304 17.277,17.755 17.586,17.546 Z M18.474,15.168 C18.672,15.061 18.959,15.016 19.138,15.216 C19.347,15.451 19.279,15.809 19.003,15.95 C18.791,16.056 18.505,16.096 18.337,15.899 C18.153,15.687 18.19,15.321 18.474,15.168 Z M18.315,16.975 C18.155,16.38 19.158,16.099 19.321,16.704 C19.502,17.291 18.476,17.584 18.315,16.975 Z M19.933,18.014 C20.166,18.657 19.077,19.021 18.864,18.386 C18.646,17.743 19.741,17.376 19.933,18.014 Z M20.069,14.881 C20.276,14.798 20.543,14.708 20.774,14.881 C21.063,15.097 21.001,15.583 20.67,15.734 C20.452,15.833 20.174,15.899 19.979,15.726 C19.733,15.506 19.72,15.021 20.069,14.881 Z M19.877,20.262 C19.583,20.331 19.276,20.448 19.032,20.196 C18.72,19.874 18.81,19.311 19.231,19.157 C19.505,19.053 19.851,18.995 20.074,19.223 C20.36,19.516 20.329,20.153 19.877,20.262 Z M19.883,16.978 C19.693,16.34 20.732,16.013 20.933,16.632 C21.137,17.267 20.061,17.605 19.883,16.978 Z M21.622,18.147 C21.866,18.875 20.636,19.263 20.41,18.546 C20.182,17.812 21.421,17.424 21.622,18.147 Z M21.688,16.197 C21.905,16.139 22.135,16.16 22.3,16.337 C22.552,16.608 22.465,17.071 22.093,17.14 C21.916,17.172 21.646,17.159 21.51,17.039 C21.263,16.821 21.274,16.308 21.688,16.197 Z M22.738,17.725 C23.134,17.725 23.334,18.307 23.103,18.596 C22.964,18.771 22.664,18.782 22.46,18.75 C22.082,18.692 21.841,18.205 22.095,17.876 C22.25,17.677 22.515,17.725 22.738,17.725 Z M20.835,20.121 C20.591,19.284 22.014,18.91 22.231,19.741 C22.452,20.586 21.021,20.958 20.835,20.121 Z M21.706,21.192 C22.095,21.152 22.499,21.062 22.738,21.469 C22.987,21.899 22.801,22.497 22.297,22.598 C21.967,22.667 21.564,22.699 21.329,22.406 C21.019,22.019 21.143,21.245 21.706,21.192 Z M23.682,19.328 C24.161,19.526 24.323,20.092 23.984,20.408 C23.804,20.573 23.473,20.541 23.25,20.496 C22.804,20.408 22.512,19.738 22.903,19.42 C23.103,19.257 23.463,19.237 23.682,19.328 Z M24.436,21.346 C24.737,21.716 24.625,22.369 24.098,22.401 C23.822,22.417 23.462,22.385 23.276,22.159 C22.977,21.798 23.09,21.12 23.617,21.102 C23.893,21.091 24.25,21.12 24.436,21.346 Z M26.475,14.682 C26.446,14.64 26.394,14.616 26.341,14.632 C26.278,14.653 26.236,14.722 26.26,14.783 C27.465,18.02 25.927,19.614 25.283,21.88 C24.512,20.039 27.068,18.307 25.751,14.951 C25.732,14.908 25.698,14.873 25.651,14.866 C25.585,14.857 25.522,14.884 25.512,14.972 C25.477,15.208 25.323,17.068 23.814,18.158 C23.659,17.802 23.431,17.43 23.11,17.137 C22.972,16.51 22.562,15.649 21.701,15.395 C21.572,15.07 21.312,14.605 20.814,14.355 C20.345,14.121 19.801,14.142 19.197,14.416 C18.468,14.501 17.967,14.786 17.702,15.261 C17.452,15.71 17.497,16.199 17.581,16.532 C16.967,17.188 16.937,18.16 16.954,18.541 C16.589,19.417 16.794,20.44 16.909,20.865 C16.474,22.056 16.898,23.211 17.069,23.594 C17.069,23.698 17.074,23.796 17.08,23.894 C15.652,22.332 12.403,20.397 11.162,19.659 C11.104,19.624 11.03,19.632 10.98,19.68 C10.918,19.739 10.915,19.834 10.973,19.898 C13.741,22.598 16.211,25.93 18.583,32.844 C19.768,31.613 21.906,29.995 24.95,29.995 L28.512,29.995 C26.249,21.567 29.543,18.551 26.475,14.682 Z M43.311,19.04 C42.66,18.87 38.503,18.134 33.845,26.703 C34.524,23.512 36.59,19.651 37.156,18.53 L37.156,18.522 C37.19,18.458 37.172,18.375 37.114,18.33 C37.057,18.288 36.97,18.301 36.926,18.365 C33.847,23.498 32.766,26.456 32.128,29.995 L34.057,29.995 C34.385,26.583 38.694,18.546 43.287,19.143 L43.292,19.143 C43.318,19.149 43.342,19.127 43.345,19.104 C43.355,19.074 43.337,19.045 43.311,19.04 Z M34.049,47.272 L33.007,42.917 L31.233,42.917 C31.514,44.022 31.915,45.146 32.436,46.132 C32.469,46.19 32.532,46.225 32.595,46.215 C32.679,46.204 32.745,46.116 32.729,46.025 C32.608,45.103 32.464,44.214 32.327,43.326 C32.703,44.721 33.209,46.084 33.892,47.339 C33.91,47.378 33.949,47.396 33.986,47.384 C34.036,47.373 34.063,47.32 34.049,47.272 Z M35.842,45.295 C35.66,44.567 35.472,43.674 35.309,42.917 L34.635,42.917 C34.896,43.725 35.251,44.626 35.566,45.396 C35.598,45.471 35.668,45.508 35.736,45.489 C35.818,45.465 35.862,45.378 35.842,45.295 Z M36.067,47.856 L36.062,47.846 C35.844,47.237 35.542,46.692 35.304,46.108 C35.049,45.523 34.803,44.949 34.598,44.35 C34.427,43.9 34.246,43.385 34.106,42.917 L33.456,42.917 C33.64,43.462 33.879,44.049 34.102,44.575 C34.593,45.763 35.159,46.927 35.881,47.968 C35.907,48.006 35.957,48.021 36.004,48.003 C36.062,47.981 36.088,47.915 36.067,47.856 Z M37.041,26.956 C36.991,26.881 36.87,26.865 36.812,26.926 C35.629,28.175 34.912,29.504 34.666,29.995 L35.369,29.995 C35.721,29.169 36.514,27.71 37.022,27.184 L37.027,27.179 C37.08,27.12 37.091,27.022 37.041,26.956 Z M31.687,20.911 C32.338,19.842 33.304,19.024 34.123,18.036 C34.151,17.998 34.148,17.94 34.114,17.908 C34.083,17.873 34.03,17.873 33.996,17.905 C33.811,18.104 33.616,18.291 33.417,18.476 C33.33,18.434 33.109,18.519 32.887,18.694 C32.711,18.833 32.585,18.987 32.54,19.098 C32.427,19.072 32.215,19.204 32.023,19.449 C31.865,19.654 31.773,19.869 31.776,20.002 C31.655,20.012 31.479,20.166 31.33,20.411 C31.233,20.573 31.17,20.73 31.149,20.86 C31.052,20.926 30.941,21.051 30.84,21.213 C30.706,21.437 30.638,21.662 30.658,21.792 C30.627,21.849 30.596,21.902 30.569,21.957 C30.574,21.912 30.58,21.87 30.585,21.825 C30.776,20.312 31.055,18.814 31.477,17.369 C31.902,15.928 32.411,14.475 33.285,13.308 L33.291,13.303 C33.335,13.239 33.33,13.152 33.274,13.093 C33.22,13.032 33.128,13.029 33.07,13.09 C32.769,13.412 32.514,13.771 32.285,14.14 C32.186,14.087 31.976,14.284 31.815,14.592 C31.669,14.87 31.616,15.128 31.671,15.227 C31.671,15.227 31.669,15.235 31.663,15.232 C31.559,15.187 31.364,15.421 31.246,15.734 C31.131,16.029 31.109,16.3 31.188,16.391 C31.184,16.396 31.184,16.399 31.181,16.404 C31.062,16.361 30.871,16.63 30.753,17.01 C30.655,17.331 30.645,17.61 30.716,17.722 C30.722,17.727 30.716,17.741 30.711,17.738 C30.59,17.695 30.406,17.972 30.299,18.349 C30.191,18.713 30.199,19.035 30.302,19.098 C30.184,19.085 30.018,19.361 29.932,19.736 C29.853,20.06 29.86,20.339 29.936,20.451 C29.821,20.485 29.692,20.756 29.627,21.107 C29.564,21.45 29.596,21.734 29.68,21.825 C29.572,21.88 29.462,22.159 29.422,22.505 C29.383,22.848 29.433,23.129 29.522,23.22 C29.433,23.32 29.346,23.559 29.31,23.847 C29.272,24.12 29.296,24.357 29.349,24.49 C29.252,24.572 29.178,24.849 29.176,25.181 C29.168,25.446 29.207,25.672 29.275,25.802 C29.223,25.935 29.186,26.129 29.186,26.344 C29.181,26.623 29.226,26.862 29.296,26.987 C29.275,27.968 29.288,29.012 29.341,29.995 L31.459,29.995 C31.475,29.23 31.524,28.395 31.601,27.638 C31.75,26.288 31.974,24.917 32.647,23.764 L32.653,23.756 C32.674,23.714 32.671,23.666 32.64,23.629 C32.601,23.594 32.545,23.594 32.509,23.637 C31.593,24.7 31.191,26.143 30.955,27.527 C30.913,27.798 30.879,28.071 30.848,28.343 C30.905,27.232 31.008,26.126 31.262,25.074 C31.554,23.793 32.136,22.574 33.246,21.891 C33.28,21.87 33.299,21.825 33.285,21.779 C33.272,21.729 33.22,21.7 33.175,21.713 C33.104,21.734 33.039,21.771 32.971,21.801 C32.896,21.71 32.627,21.777 32.349,21.954 C32.083,22.127 31.907,22.34 31.926,22.457 C31.926,22.462 31.913,22.47 31.913,22.459 C31.91,22.446 31.907,22.433 31.899,22.425 C31.8,22.343 31.532,22.529 31.307,22.845 C31.078,23.161 30.989,23.491 31.086,23.576 C31.092,23.578 31.089,23.586 31.084,23.586 C30.966,23.538 30.769,23.807 30.645,24.182 C30.556,24.444 30.535,24.686 30.566,24.825 C30.566,24.829 30.562,24.835 30.562,24.835 C30.47,25.138 30.394,25.444 30.322,25.754 C30.349,25.316 30.388,24.875 30.451,24.439 C30.638,23.185 31.016,21.957 31.687,20.911 Z M38.351,17.413 C38.217,17.35 38.041,17.334 37.865,17.376 C37.733,17.408 37.629,17.472 37.539,17.546 C37.553,17.435 37.553,17.323 37.521,17.201 C37.479,17.01 37.385,16.853 37.27,16.752 C36.697,16.181 37.091,14.461 36.957,14.44 C36.826,14.422 36.873,16.136 36.603,16.938 C36.548,17.087 36.537,17.275 36.584,17.467 C36.632,17.656 36.726,17.815 36.844,17.918 C36.957,18.017 37.094,18.062 37.222,18.022 C37.256,18.017 37.29,18.001 37.319,17.979 C37.319,18.001 37.319,18.022 37.321,18.043 C37.351,18.184 37.45,18.293 37.587,18.357 C37.726,18.423 37.896,18.439 38.075,18.394 C38.256,18.351 38.405,18.253 38.503,18.134 C39.041,17.509 40.306,16.619 40.229,16.5 C40.153,16.383 39.085,17.695 38.351,17.413 Z M40.797,15.248 C40.715,15.131 39.702,16.313 39.012,16.018 C38.881,15.952 38.721,15.933 38.561,15.976 C38.472,16.003 38.396,16.051 38.324,16.109 C38.321,16.061 38.324,16.018 38.313,15.976 C38.271,15.804 38.178,15.668 38.06,15.578 C37.481,15.073 37.936,13.537 37.8,13.521 C37.66,13.505 37.663,15.033 37.363,15.75 C37.301,15.883 37.282,16.048 37.327,16.218 C37.369,16.388 37.464,16.529 37.581,16.619 C37.699,16.704 37.839,16.744 37.976,16.712 C38.035,16.696 38.088,16.664 38.135,16.63 C38.135,16.638 38.133,16.648 38.135,16.656 C38.178,16.803 38.277,16.917 38.405,16.983 C38.537,17.044 38.697,17.065 38.852,17.02 C39.012,16.978 39.138,16.88 39.217,16.76 C39.645,16.12 40.878,15.37 40.797,15.248 Z M41.046,13.768 C40.956,13.675 40.229,14.892 39.571,14.746 C39.447,14.711 39.303,14.719 39.172,14.786 C39.106,14.812 39.051,14.857 39.004,14.903 C39.004,14.873 39.012,14.844 39.012,14.812 C38.996,14.658 38.933,14.515 38.841,14.419 C38.397,13.877 39.015,12.594 38.896,12.554 C38.775,12.519 38.565,13.869 38.198,14.456 C38.125,14.568 38.088,14.711 38.103,14.868 C38.114,15.025 38.18,15.166 38.271,15.264 C38.366,15.362 38.481,15.416 38.607,15.408 C38.702,15.405 38.783,15.354 38.852,15.288 C38.852,15.341 38.862,15.399 38.889,15.455 C38.946,15.578 39.049,15.662 39.175,15.697 C39.298,15.737 39.445,15.726 39.576,15.662 C39.71,15.596 39.807,15.49 39.859,15.37 C40.148,14.73 41.133,13.861 41.046,13.768 Z M40.61,12.078 C40.461,11.972 39.985,13.154 39.421,13.462 C39.316,13.518 39.217,13.619 39.146,13.757 C39.075,13.898 39.049,14.047 39.067,14.172 C39.08,14.297 39.138,14.403 39.229,14.456 C39.324,14.512 39.437,14.509 39.545,14.454 C39.655,14.398 39.752,14.297 39.825,14.156 C39.894,14.018 39.92,13.869 39.904,13.744 C39.862,13.075 40.715,12.144 40.61,12.078 Z M30.252,42.917 L24.308,42.917 C23.903,42.917 23.538,42.885 23.202,42.824 C23.205,42.824 23.205,42.826 23.205,42.826 C24.182,44.277 25.711,45.378 27.263,46.116 C27.501,47.439 27.801,48.664 27.908,48.76 C28.019,48.855 29.54,48.417 29.588,48.276 C29.632,48.136 28.966,45.869 28.966,45.869 C29.766,44.495 30.013,43.684 30.252,42.917 Z M45.205,53.086 C43.704,53.679 41.746,53.728 40.148,53.304 C36.487,52.164 32.422,50.004 28.52,51.797 C24.617,50.004 20.552,52.164 16.891,53.304 C15.293,53.728 13.335,53.679 11.834,53.086 C11.792,53.07 11.76,53.123 11.797,53.152 C13.957,54.823 16.982,55.592 19.707,54.608 C22.323,53.793 24.535,51.021 27.635,52.204 C25.182,53.163 22.888,54.933 21.116,56.604 L22.404,57.661 C24.014,55.788 25.824,53.915 27.874,52.775 C28.154,52.61 28.322,52.544 28.52,52.533 C28.716,52.544 28.884,52.61 29.162,52.775 C31.215,53.915 33.025,55.788 34.635,57.661 L35.923,56.604 C34.151,54.933 31.857,53.163 29.404,52.204 C32.503,51.021 34.716,53.793 37.332,54.608 C40.057,55.592 43.082,54.823 45.242,53.152 C45.276,53.123 45.247,53.07 45.205,53.086 Z M21.076,50.561 C17.25,49.634 16.203,46.047 13.004,44.49 C12.97,44.472 12.934,44.512 12.954,44.543 C13.962,46.201 14.508,48.741 17.413,50.307 C17.436,50.319 17.424,50.357 17.397,50.349 C13.229,49.547 11.479,50.662 7.112,48.688 C7.075,48.672 7.036,48.712 7.06,48.747 C8.495,50.83 11.901,52.254 16.568,51.861 C18.248,51.718 19.465,51.011 21.076,50.634 C21.116,50.623 21.116,50.569 21.076,50.561 Z M13.061,48.361 C11.607,46.456 12.022,42.389 8.739,38.666 C8.713,38.637 8.666,38.66 8.674,38.697 C9.301,41.439 9.114,44.554 10.831,46.836 C10.847,46.86 10.823,46.884 10.8,46.868 C7.414,44.203 3.934,43.4 2.386,41.243 C2.362,41.214 2.314,41.229 2.32,41.267 C2.703,44.059 8.067,48.412 13.033,48.42 C13.061,48.42 13.08,48.386 13.061,48.361 Z M7.979,43.297 C6.419,40.406 8.282,35.995 6.514,31.709 C6.495,31.664 6.427,31.675 6.427,31.723 C6.375,34.063 4.921,37.558 5.8,40.196 C5.811,40.22 5.779,40.233 5.766,40.212 C3.527,36.941 1.751,36.258 0.27,33.264 C0.249,33.219 0.181,33.231 0.179,33.279 C0.084,35.314 0.984,36.973 2,38.514 C3.624,40.6 5.716,42.25 7.929,43.35 C7.963,43.366 7.994,43.331 7.979,43.297 Z M6.921,25.691 C6.918,25.643 6.855,25.627 6.831,25.669 C5.643,27.893 3.524,29.663 3.456,32.6 C3.454,32.629 3.422,32.631 3.417,32.604 C3.031,30.338 1.107,27.798 1.023,24.516 C1.023,24.466 0.953,24.453 0.935,24.5 C-0.648,28.768 1.627,32.814 4.05,36.157 C4.076,36.191 4.128,36.171 4.128,36.125 C4.028,32.583 7.099,29.939 6.921,25.691 Z M8.433,20.169 C7.309,21.729 4.781,22.832 3.858,25.082 C3.845,25.114 3.806,25.106 3.81,25.069 C4.178,22.547 3.204,19.619 4.118,16.269 C4.131,16.221 4.07,16.189 4.042,16.226 C2.661,17.924 2.194,19.914 2.118,22.064 C2.023,24.705 2.952,26.631 3.412,28.422 C3.422,28.465 3.478,28.462 3.488,28.419 C4.149,26.071 7.469,24.657 8.509,20.206 C8.521,20.159 8.461,20.129 8.433,20.169 Z M11.479,14.924 C9.632,16.372 6.81,17.767 6.204,18.774 C6.193,18.795 6.162,18.779 6.167,18.758 L6.853,15.471 C7.159,14.076 7.425,12.74 8.196,11.491 C8.22,11.454 8.175,11.411 8.141,11.438 C4.624,14.223 5.139,18.25 4.983,21.548 C4.981,21.583 5.023,21.599 5.047,21.575 C7.117,19.329 10.492,18.022 11.537,14.969 C11.55,14.932 11.511,14.9 11.479,14.924 Z M14.096,9.875 C10.988,9.974 8.705,12.591 7.727,15.923 C7.721,15.942 7.747,15.958 7.763,15.947 C12.043,12.809 11.805,11.464 14.122,9.971 C14.164,9.944 14.145,9.875 14.096,9.875 Z M49.924,48.688 C45.56,50.662 43.807,49.547 39.639,50.349 C39.613,50.357 39.6,50.319 39.623,50.307 C42.528,48.741 43.074,46.201 44.082,44.543 C44.103,44.512 44.066,44.472 44.032,44.49 C40.836,46.047 39.789,49.634 35.96,50.561 C35.92,50.569 35.92,50.623 35.96,50.634 C37.571,51.011 38.789,51.718 40.469,51.861 C45.135,52.254 48.544,50.83 49.977,48.747 C50,48.712 49.961,48.672 49.924,48.688 Z M54.65,41.243 C53.103,43.4 49.622,44.203 46.237,46.868 C46.216,46.884 46.189,46.86 46.208,46.836 C47.922,44.554 47.735,41.439 48.362,38.697 C48.37,38.66 48.323,38.637 48.297,38.666 C45.017,42.389 45.429,46.456 43.978,48.361 C43.959,48.386 43.975,48.42 44.006,48.42 C48.972,48.412 54.333,44.059 54.716,41.267 C54.722,41.229 54.674,41.214 54.65,41.243 Z M56.857,33.279 C56.855,33.231 56.787,33.219 56.766,33.264 C55.286,36.258 53.509,36.941 51.273,40.212 C51.257,40.233 51.228,40.22 51.236,40.196 C52.115,37.558 50.664,34.063 50.609,31.723 C50.609,31.675 50.541,31.664 50.522,31.709 C48.754,35.995 50.617,40.406 49.061,43.297 C49.042,43.331 49.074,43.366 49.107,43.35 C51.32,42.25 53.412,40.6 55.036,38.514 C56.052,36.973 56.952,35.314 56.857,33.279 Z M56.102,24.5 C56.084,24.453 56.013,24.466 56.013,24.516 C55.929,27.798 54.005,30.338 53.619,32.604 C53.614,32.631 53.583,32.629 53.583,32.6 C53.515,29.663 51.394,27.893 50.205,25.669 C50.182,25.627 50.118,25.643 50.118,25.691 C49.939,29.939 53.008,32.583 52.908,36.125 C52.908,36.171 52.963,36.191 52.989,36.157 C55.409,32.814 57.685,28.768 56.102,24.5 Z M54.918,22.064 C54.842,19.914 54.375,17.924 52.995,16.226 C52.966,16.189 52.908,16.221 52.919,16.269 C53.832,19.619 52.858,22.547 53.229,25.069 C53.233,25.106 53.191,25.114 53.179,25.082 C52.255,22.832 49.728,21.729 48.604,20.169 C48.578,20.129 48.518,20.159 48.528,20.206 C49.567,24.657 52.887,26.071 53.549,28.419 C53.559,28.462 53.614,28.465 53.624,28.422 C54.084,26.631 55.013,24.705 54.918,22.064 Z M48.896,11.438 C48.861,11.411 48.816,11.454 48.84,11.491 C49.611,12.74 49.877,14.076 50.184,15.471 L50.869,18.758 C50.874,18.779 50.843,18.795 50.832,18.774 C50.226,17.767 47.407,16.372 45.558,14.924 C45.528,14.9 45.486,14.932 45.499,14.969 C46.544,18.022 49.919,19.329 51.989,21.575 C52.013,21.599 52.055,21.583 52.053,21.548 C51.897,18.25 52.412,14.223 48.896,11.438 Z M42.94,9.875 C42.891,9.875 42.875,9.944 42.914,9.971 C45.231,11.464 44.993,12.809 49.273,15.947 C49.292,15.958 49.315,15.942 49.31,15.923 C48.331,12.591 46.048,9.974 42.94,9.875 Z" id="Fill-27"></path>
        </g>
    </g>
</svg>