<?xml version="1.0" encoding="UTF-8"?>
<svg width="57px" height="95px" viewBox="0 0 57 95" version="1.1" xmlns="http://www.w3.org/2000/svg" xmlns:xlink="http://www.w3.org/1999/xlink">
    <!-- Generator: Sketch 48.2 (47327) - http://www.bohemiancoding.com/sketch -->
    <title>vertical/es/wfp-logo-vertical-blue-es</title>
    <desc>Created with Sketch.</desc>
    <defs>
        <polygon id="path-1" points="0 93.7102 56.693 93.7102 56.693 0.0002 0 0.0002"></polygon>
    </defs>
    <g id="Blue" stroke="none" stroke-width="1" fill="none" fill-rule="evenodd" transform="translate(-348.000000, -218.000000)">
        <g id="vertical/es/wfp-logo-vertical-blue-es" transform="translate(348.000000, 218.500000)">
            <path d="M7.2184,67.0393 L7.7314,67.0393 C8.2114,67.0393 8.5694,66.9443 8.8074,66.7553 C9.0454,66.5653 9.1644,66.2903 9.1644,65.9283 C9.1644,65.5623 9.0654,65.2923 8.8654,65.1183 C8.6664,64.9433 8.3534,64.8563 7.9274,64.8563 L7.2184,64.8563 L7.2184,67.0393 Z M10.7394,65.8723 C10.7394,66.6633 10.4914,67.2683 9.9974,67.6873 C9.5024,68.1063 8.7994,68.3163 7.8874,68.3163 L7.2184,68.3163 L7.2184,70.9323 L5.6594,70.9323 L5.6594,63.5793 L8.0084,63.5793 C8.9004,63.5793 9.5784,63.7703 10.0424,64.1543 C10.5074,64.5393 10.7394,65.1113 10.7394,65.8723 Z" id="Fill-1" fill="#0A6EB4"></path>
            <path d="M14.6305,65.2033 C14.8385,65.2033 15.0105,65.2193 15.1485,65.2483 L15.0325,66.6863 C14.9085,66.6533 14.7575,66.6373 14.5805,66.6373 C14.0905,66.6373 13.7095,66.7633 13.4365,67.0143 C13.1625,67.2663 13.0265,67.6173 13.0265,68.0703 L13.0265,70.9323 L11.4925,70.9323 L11.4925,65.3083 L12.6535,65.3083 L12.8805,66.2543 L12.9555,66.2543 C13.1305,65.9393 13.3655,65.6853 13.6625,65.4923 C13.9595,65.3003 14.2815,65.2033 14.6305,65.2033" id="Fill-3" fill="#0A6EB4"></path>
            <path d="M16.9366,68.1106 C16.9366,68.6676 17.0276,69.0886 17.2106,69.3736 C17.3936,69.6576 17.6906,69.7996 18.1036,69.7996 C18.5126,69.7996 18.8066,69.6586 18.9856,69.3756 C19.1656,69.0916 19.2546,68.6706 19.2546,68.1106 C19.2546,67.5536 19.1646,67.1366 18.9836,66.8576 C18.8026,66.5806 18.5056,66.4406 18.0936,66.4406 C17.6846,66.4406 17.3896,66.5796 17.2076,66.8556 C17.0266,67.1316 16.9366,67.5506 16.9366,68.1106 M20.8236,68.1106 C20.8236,69.0256 20.5826,69.7416 20.1006,70.2576 C19.6176,70.7746 18.9446,71.0326 18.0826,71.0326 C17.5436,71.0326 17.0676,70.9146 16.6546,70.6776 C16.2426,70.4416 15.9256,70.1016 15.7046,69.6596 C15.4826,69.2166 15.3726,68.7006 15.3726,68.1106 C15.3726,67.1916 15.6116,66.4776 16.0916,65.9676 C16.5706,65.4586 17.2456,65.2036 18.1136,65.2036 C18.6536,65.2036 19.1296,65.3206 19.5416,65.5556 C19.9546,65.7906 20.2706,66.1276 20.4916,66.5666 C20.7136,67.0066 20.8236,67.5206 20.8236,68.1106" id="Fill-5" fill="#0A6EB4"></path>
            <path d="M22.7774,67.1496 C22.7774,67.4556 22.8464,67.6966 22.9864,67.8746 C23.1254,68.0516 23.3374,68.1406 23.6224,68.1406 C23.9114,68.1406 24.1224,68.0516 24.2564,67.8746 C24.3904,67.6966 24.4574,67.4556 24.4574,67.1496 C24.4574,66.4726 24.1784,66.1336 23.6224,66.1336 C23.0594,66.1336 22.7774,66.4726 22.7774,67.1496 Z M22.2184,71.7266 C22.2184,71.9376 22.3204,72.1036 22.5234,72.2246 C22.7264,72.3446 23.0104,72.4056 23.3764,72.4056 C23.9254,72.4056 24.3564,72.3306 24.6694,72.1786 C24.9804,72.0286 25.1364,71.8226 25.1364,71.5606 C25.1364,71.3486 25.0444,71.2036 24.8594,71.1236 C24.6744,71.0426 24.3904,71.0026 24.0054,71.0026 L23.2104,71.0026 C22.9284,71.0026 22.6924,71.0686 22.5034,71.2016 C22.3134,71.3336 22.2184,71.5076 22.2184,71.7266 Z M26.5594,65.3086 L26.5594,66.0886 L25.6794,66.3146 C25.8404,66.5666 25.9214,66.8476 25.9214,67.1606 C25.9214,67.7636 25.7104,68.2336 25.2904,68.5706 C24.8694,68.9076 24.2844,69.0766 23.5374,69.0766 L23.2604,69.0606 L23.0344,69.0356 C22.8764,69.1566 22.7984,69.2906 22.7984,69.4376 C22.7984,69.6596 23.0794,69.7696 23.6424,69.7696 L24.5974,69.7696 C25.2154,69.7696 25.6854,69.9026 26.0084,70.1676 C26.3324,70.4316 26.4944,70.8216 26.4944,71.3346 C26.4944,71.9916 26.2194,72.5016 25.6724,72.8636 C25.1244,73.2246 24.3374,73.4066 23.3104,73.4066 C22.5264,73.4066 21.9264,73.2696 21.5124,72.9966 C21.0984,72.7226 20.8914,72.3396 20.8914,71.8466 C20.8914,71.5076 20.9974,71.2246 21.2084,70.9976 C21.4204,70.7696 21.7294,70.6066 22.1384,70.5086 C21.9814,70.4426 21.8434,70.3326 21.7264,70.1796 C21.6094,70.0276 21.5504,69.8656 21.5504,69.6946 C21.5504,69.4796 21.6124,69.3016 21.7364,69.1596 C21.8604,69.0166 22.0404,68.8766 22.2744,68.7396 C21.9794,68.6116 21.7464,68.4076 21.5734,68.1256 C21.4004,67.8436 21.3144,67.5116 21.3144,67.1296 C21.3144,66.5156 21.5134,66.0426 21.9124,65.7066 C22.3114,65.3716 22.8814,65.2036 23.6224,65.2036 C23.7804,65.2036 23.9664,65.2176 24.1834,65.2466 C24.3994,65.2746 24.5384,65.2956 24.5974,65.3086 L26.5594,65.3086 Z" id="Fill-7" fill="#0A6EB4"></path>
            <path d="M30.1983,65.2033 C30.4053,65.2033 30.5783,65.2193 30.7163,65.2483 L30.6003,66.6863 C30.4763,66.6533 30.3253,66.6373 30.1473,66.6373 C29.6583,66.6373 29.2763,66.7633 29.0033,67.0143 C28.7303,67.2663 28.5943,67.6173 28.5943,68.0703 L28.5943,70.9323 L27.0593,70.9323 L27.0593,65.3083 L28.2213,65.3083 L28.4473,66.2543 L28.5233,66.2543 C28.6973,65.9393 28.9323,65.6853 29.2293,65.4923 C29.5263,65.3003 29.8483,65.2033 30.1983,65.2033" id="Fill-9" fill="#0A6EB4"></path>
            <path d="M34.3009,68.3264 L33.7069,68.3474 C33.2619,68.3604 32.9299,68.4404 32.7119,68.5884 C32.4929,68.7354 32.3849,68.9604 32.3849,69.2624 C32.3849,69.6944 32.6329,69.9114 33.1289,69.9114 C33.4849,69.9114 33.7689,69.8084 33.9819,69.6034 C34.1949,69.3994 34.3009,69.1284 34.3009,68.7894 L34.3009,68.3264 Z M34.7529,70.9314 L34.4569,70.1674 L34.4159,70.1674 C34.1579,70.4924 33.8929,70.7184 33.6189,70.8444 C33.3459,70.9704 32.9899,71.0324 32.5509,71.0324 C32.0109,71.0324 31.5859,70.8784 31.2759,70.5694 C30.9659,70.2614 30.8109,69.8224 30.8109,69.2524 C30.8109,68.6554 31.0199,68.2154 31.4369,67.9314 C31.8549,67.6484 32.4839,67.4914 33.3249,67.4614 L34.3009,67.4314 L34.3009,67.1844 C34.3009,66.6154 34.0089,66.3304 33.4259,66.3304 C32.9769,66.3304 32.4479,66.4664 31.8419,66.7374 L31.3329,65.7014 C31.9809,65.3624 32.6979,65.1934 33.4869,65.1934 C34.2399,65.1934 34.8189,65.3574 35.2209,65.6864 C35.6229,66.0144 35.8239,66.5144 35.8239,67.1844 L35.8239,70.9314 L34.7529,70.9314 Z" id="Fill-11" fill="#0A6EB4"></path>
            <path d="M41.9513,70.9318 L40.4173,70.9318 L40.4173,67.6478 C40.4173,67.2428 40.3493,66.9378 40.2143,66.7348 C40.0783,66.5328 39.8643,66.4308 39.5723,66.4308 C39.1803,66.4308 38.8953,66.5748 38.7183,66.8638 C38.5403,67.1518 38.4513,67.6258 38.4513,68.2858 L38.4513,70.9318 L36.9173,70.9318 L36.9173,65.3088 L38.0893,65.3088 L38.2953,66.0288 L38.3813,66.0288 C38.5313,65.7698 38.7493,65.5688 39.0343,65.4218 C39.3193,65.2768 39.6463,65.2028 40.0143,65.2028 C40.8563,65.2028 41.4273,65.4788 41.7243,66.0288 L41.8603,66.0288 C42.0123,65.7668 42.2333,65.5638 42.5273,65.4198 C42.8203,65.2758 43.1513,65.2028 43.5203,65.2028 C44.1573,65.2028 44.6393,65.3678 44.9673,65.6938 C45.2933,66.0208 45.4573,66.5448 45.4573,67.2658 L45.4573,70.9318 L43.9183,70.9318 L43.9183,67.6478 C43.9183,67.2428 43.8493,66.9378 43.7143,66.7348 C43.5783,66.5328 43.3643,66.4308 43.0733,66.4308 C42.6973,66.4308 42.4173,66.5648 42.2303,66.8328 C42.0443,67.1008 41.9513,67.5268 41.9513,68.1108 L41.9513,70.9318 Z" id="Fill-13" fill="#0A6EB4"></path>
            <path d="M49.6612,68.3264 L49.0672,68.3474 C48.6222,68.3604 48.2902,68.4404 48.0722,68.5884 C47.8532,68.7354 47.7452,68.9604 47.7452,69.2624 C47.7452,69.6944 47.9932,69.9114 48.4892,69.9114 C48.8452,69.9114 49.1292,69.8084 49.3422,69.6034 C49.5552,69.3994 49.6612,69.1284 49.6612,68.7894 L49.6612,68.3264 Z M50.1132,70.9314 L49.8172,70.1674 L49.7762,70.1674 C49.5182,70.4924 49.2532,70.7184 48.9792,70.8444 C48.7062,70.9704 48.3502,71.0324 47.9112,71.0324 C47.3712,71.0324 46.9462,70.8784 46.6362,70.5694 C46.3262,70.2614 46.1712,69.8224 46.1712,69.2524 C46.1712,68.6554 46.3802,68.2154 46.7972,67.9314 C47.2152,67.6484 47.8442,67.4914 48.6852,67.4614 L49.6612,67.4314 L49.6612,67.1844 C49.6612,66.6154 49.3692,66.3304 48.7862,66.3304 C48.3372,66.3304 47.8082,66.4664 47.2022,66.7374 L46.6932,65.7014 C47.3412,65.3624 48.0582,65.1934 48.8472,65.1934 C49.6002,65.1934 50.1792,65.3574 50.5812,65.6864 C50.9832,66.0144 51.1842,66.5144 51.1842,67.1844 L51.1842,70.9314 L50.1132,70.9314 Z" id="Fill-15" fill="#0A6EB4"></path>
            <path d="M5.7486,82.2707 L3.9776,76.5017 L3.9336,76.5017 C3.9966,77.6757 4.0286,78.4577 4.0286,78.8507 L4.0286,82.2707 L2.6356,82.2707 L2.6356,74.9177 L4.7576,74.9177 L6.4986,80.5407 L6.5276,80.5407 L8.3736,74.9177 L10.4966,74.9177 L10.4966,82.2707 L9.0426,82.2707 L9.0426,78.7907 C9.0426,78.6257 9.0456,78.4367 9.0506,78.2217 C9.0556,78.0077 9.0786,77.4377 9.1186,76.5117 L9.0726,76.5117 L7.1766,82.2707 L5.7486,82.2707 Z" id="Fill-17" fill="#0A6EB4"></path>
            <path d="M15.7535,82.2707 L15.5465,81.5517 L15.4665,81.5517 C15.3025,81.8127 15.0695,82.0147 14.7675,82.1577 C14.4655,82.2997 14.1225,82.3717 13.7365,82.3717 C13.0755,82.3717 12.5785,82.1947 12.2425,81.8407 C11.9075,81.4867 11.7395,80.9777 11.7395,80.3147 L11.7395,76.6477 L13.2745,76.6477 L13.2745,79.9317 C13.2745,80.3377 13.3455,80.6417 13.4905,80.8447 C13.6345,81.0477 13.8635,81.1497 14.1795,81.1497 C14.6085,81.1497 14.9185,81.0057 15.1095,80.7187 C15.3005,80.4327 15.3965,79.9577 15.3965,79.2927 L15.3965,76.6477 L16.9305,76.6477 L16.9305,82.2707 L15.7535,82.2707 Z" id="Fill-19" fill="#0A6EB4"></path>
            <path d="M23.2354,82.2707 L21.7014,82.2707 L21.7014,78.9867 C21.7014,78.5817 21.6294,78.2767 21.4854,78.0737 C21.3404,77.8717 21.1114,77.7697 20.7964,77.7697 C20.3674,77.7697 20.0564,77.9137 19.8664,78.1997 C19.6744,78.4867 19.5794,78.9607 19.5794,79.6247 L19.5794,82.2707 L18.0454,82.2707 L18.0454,76.6477 L19.2164,76.6477 L19.4224,77.3677 L19.5084,77.3677 C19.6794,77.0957 19.9154,76.8897 20.2144,76.7507 C20.5144,76.6117 20.8564,76.5417 21.2384,76.5417 C21.8924,76.5417 22.3884,76.7187 22.7274,77.0727 C23.0654,77.4267 23.2354,77.9367 23.2354,78.6047 L23.2354,82.2707 Z" id="Fill-21" fill="#0A6EB4"></path>
            <path d="M26.7003,81.1496 C27.0933,81.1496 27.3803,81.0356 27.5623,80.8066 C27.7453,80.5796 27.8463,80.1916 27.8623,79.6456 L27.8623,79.4796 C27.8623,78.8766 27.7693,78.4436 27.5833,78.1816 C27.3963,77.9206 27.0953,77.7896 26.6753,77.7896 C26.3333,77.7896 26.0673,77.9346 25.8783,78.2246 C25.6883,78.5146 25.5943,78.9366 25.5943,79.4896 C25.5943,80.0436 25.6893,80.4576 25.8813,80.7346 C26.0713,81.0106 26.3453,81.1496 26.7003,81.1496 M26.1623,82.3716 C25.5023,82.3716 24.9823,82.1146 24.6053,81.6016 C24.2283,81.0886 24.0403,80.3786 24.0403,79.4686 C24.0403,78.5466 24.2313,77.8296 24.6153,77.3146 C25.0003,76.7996 25.5283,76.5426 26.2023,76.5426 C26.9103,76.5426 27.4503,76.8176 27.8223,77.3676 L27.8723,77.3676 C27.7953,76.9486 27.7573,76.5746 27.7573,76.2456 L27.7573,74.4456 L29.2963,74.4456 L29.2963,82.2706 L28.1183,82.2706 L27.8223,81.5416 L27.7573,81.5416 C27.4083,82.0946 26.8763,82.3716 26.1623,82.3716" id="Fill-23" fill="#0A6EB4"></path>
            <mask id="mask-2" fill="white">
                <use xlink:href="#path-1"></use>
            </mask>
            <g id="Clip-26"></g>
            <path d="M30.415,82.2712 L31.949,82.2712 L31.949,76.6482 L30.415,76.6482 L30.415,82.2712 Z M30.35,75.1942 C30.35,74.6942 30.628,74.4452 31.185,74.4452 C31.741,74.4452 32.02,74.6942 32.02,75.1942 C32.02,75.4332 31.95,75.6172 31.811,75.7502 C31.672,75.8832 31.463,75.9482 31.185,75.9482 C30.628,75.9482 30.35,75.6972 30.35,75.1942 Z" id="Fill-25" fill="#0A6EB4" mask="url(#mask-2)"></path>
            <path d="M36.1817,79.6652 L35.5877,79.6862 C35.1427,79.6992 34.8107,79.7792 34.5927,79.9272 C34.3737,80.0742 34.2657,80.2992 34.2657,80.6012 C34.2657,81.0332 34.5137,81.2502 35.0097,81.2502 C35.3657,81.2502 35.6497,81.1472 35.8627,80.9422 C36.0757,80.7382 36.1817,80.4672 36.1817,80.1282 L36.1817,79.6652 Z M36.6337,82.2702 L36.3377,81.5062 L36.2967,81.5062 C36.0387,81.8312 35.7737,82.0572 35.4997,82.1832 C35.2267,82.3092 34.8707,82.3712 34.4317,82.3712 C33.8917,82.3712 33.4667,82.2172 33.1567,81.9082 C32.8467,81.6002 32.6917,81.1612 32.6917,80.5912 C32.6917,79.9942 32.9007,79.5542 33.3177,79.2702 C33.7357,78.9872 34.3647,78.8302 35.2057,78.8002 L36.1817,78.7702 L36.1817,78.5232 C36.1817,77.9542 35.8897,77.6692 35.3067,77.6692 C34.8577,77.6692 34.3287,77.8052 33.7227,78.0762 L33.2137,77.0402 C33.8617,76.7012 34.5787,76.5322 35.3677,76.5322 C36.1207,76.5322 36.6997,76.6962 37.1017,77.0252 C37.5037,77.3532 37.7047,77.8532 37.7047,78.5232 L37.7047,82.2702 L36.6337,82.2702 Z" id="Fill-27" fill="#0A6EB4" mask="url(#mask-2)"></path>
            <polygon id="Fill-28" fill="#0A6EB4" mask="url(#mask-2)" points="38.801 82.2712 40.335 82.2712 40.335 74.4462 38.801 74.4462"></polygon>
            <path d="M45.9493,81.1496 C46.3423,81.1496 46.6293,81.0356 46.8113,80.8066 C46.9943,80.5796 47.0953,80.1916 47.1113,79.6456 L47.1113,79.4796 C47.1113,78.8766 47.0183,78.4436 46.8323,78.1816 C46.6453,77.9206 46.3443,77.7896 45.9243,77.7896 C45.5823,77.7896 45.3163,77.9346 45.1273,78.2246 C44.9373,78.5146 44.8433,78.9366 44.8433,79.4896 C44.8433,80.0436 44.9383,80.4576 45.1303,80.7346 C45.3203,81.0106 45.5943,81.1496 45.9493,81.1496 M45.4113,82.3716 C44.7513,82.3716 44.2313,82.1146 43.8543,81.6016 C43.4773,81.0886 43.2893,80.3786 43.2893,79.4686 C43.2893,78.5466 43.4803,77.8296 43.8643,77.3146 C44.2493,76.7996 44.7773,76.5426 45.4513,76.5426 C46.1593,76.5426 46.6993,76.8176 47.0713,77.3676 L47.1213,77.3676 C47.0443,76.9486 47.0063,76.5746 47.0063,76.2456 L47.0063,74.4456 L48.5453,74.4456 L48.5453,82.2706 L47.3673,82.2706 L47.0713,81.5416 L47.0063,81.5416 C46.6573,82.0946 46.1253,82.3716 45.4113,82.3716" id="Fill-29" fill="#0A6EB4" mask="url(#mask-2)"></path>
            <path d="M52.0313,77.634 C51.7063,77.634 51.4513,77.737 51.2673,77.943 C51.0833,78.15 50.9773,78.442 50.9503,78.821 L53.1023,78.821 C53.0953,78.442 52.9973,78.15 52.8063,77.943 C52.6153,77.737 52.3563,77.634 52.0313,77.634 M52.2483,82.371 C51.3433,82.371 50.6353,82.121 50.1263,81.622 C49.6163,81.122 49.3613,80.415 49.3613,79.499 C49.3613,78.558 49.5963,77.829 50.0673,77.315 C50.5393,76.8 51.1903,76.542 52.0213,76.542 C52.8163,76.542 53.4343,76.769 53.8773,77.221 C54.3203,77.674 54.5413,78.299 54.5413,79.097 L54.5413,79.842 L50.9153,79.842 C50.9313,80.278 51.0603,80.617 51.3023,80.863 C51.5443,81.108 51.8833,81.23 52.3183,81.23 C52.6573,81.23 52.9773,81.195 53.2793,81.124 C53.5813,81.054 53.8953,80.942 54.2243,80.787 L54.2243,81.974 C53.9563,82.109 53.6703,82.208 53.3643,82.274 C53.0593,82.339 52.6873,82.371 52.2483,82.371" id="Fill-30" fill="#0A6EB4" mask="url(#mask-2)"></path>
            <path d="M8.4591,90.552 C7.9661,88.966 7.6881,88.069 7.6261,87.862 C7.5641,87.654 7.5201,87.489 7.4931,87.368 C7.3831,87.797 7.0661,88.859 6.5421,90.552 L8.4591,90.552 Z M9.3641,93.61 L8.8311,91.86 L6.1501,91.86 L5.6171,93.61 L3.9381,93.61 L6.5331,86.227 L8.4381,86.227 L11.0441,93.61 L9.3641,93.61 Z" id="Fill-31" fill="#0A6EB4" mask="url(#mask-2)"></path>
            <polygon id="Fill-32" fill="#0A6EB4" mask="url(#mask-2)" points="11.555 93.6092 13.089 93.6092 13.089 85.7842 11.555 85.7842"></polygon>
            <path d="M14.214,93.6092 L15.748,93.6092 L15.748,87.9862 L14.214,87.9862 L14.214,93.6092 Z M14.148,86.5332 C14.148,86.0332 14.426,85.7842 14.983,85.7842 C15.54,85.7842 15.818,86.0332 15.818,86.5332 C15.818,86.7712 15.748,86.9562 15.609,87.0892 C15.47,87.2222 15.261,87.2872 14.983,87.2872 C14.426,87.2872 14.148,87.0362 14.148,86.5332 Z" id="Fill-33" fill="#0A6EB4" mask="url(#mask-2)"></path>
            <path d="M21.9054,93.6096 L20.3724,93.6096 L20.3724,90.3256 C20.3724,89.9206 20.3034,89.6156 20.1694,89.4126 C20.0324,89.2106 19.8194,89.1086 19.5264,89.1086 C19.1344,89.1086 18.8494,89.2526 18.6724,89.5416 C18.4944,89.8296 18.4054,90.3036 18.4054,90.9636 L18.4054,93.6096 L16.8714,93.6096 L16.8714,87.9866 L18.0434,87.9866 L18.2494,88.7066 L18.3354,88.7066 C18.4864,88.4476 18.7044,88.2466 18.9884,88.0996 C19.2744,87.9546 19.6004,87.8806 19.9694,87.8806 C20.8114,87.8806 21.3824,88.1566 21.6784,88.7066 L21.8154,88.7066 C21.9664,88.4446 22.1884,88.2416 22.4814,88.0976 C22.7744,87.9536 23.1064,87.8806 23.4754,87.8806 C24.1124,87.8806 24.5944,88.0456 24.9214,88.3716 C25.2474,88.6986 25.4114,89.2226 25.4114,89.9436 L25.4114,93.6096 L23.8724,93.6096 L23.8724,90.3256 C23.8724,89.9206 23.8034,89.6156 23.6694,89.4126 C23.5324,89.2106 23.3194,89.1086 23.0284,89.1086 C22.6514,89.1086 22.3724,89.2426 22.1844,89.5106 C21.9994,89.7786 21.9054,90.2046 21.9054,90.7886 L21.9054,93.6096 Z" id="Fill-34" fill="#0A6EB4" mask="url(#mask-2)"></path>
            <path d="M28.8653,88.9729 C28.5403,88.9729 28.2853,89.0759 28.1013,89.2819 C27.9173,89.4889 27.8113,89.7809 27.7843,90.1599 L29.9363,90.1599 C29.9293,89.7809 29.8313,89.4889 29.6403,89.2819 C29.4493,89.0759 29.1903,88.9729 28.8653,88.9729 M29.0823,93.7099 C28.1773,93.7099 27.4693,93.4599 26.9603,92.9609 C26.4503,92.4609 26.1953,91.7539 26.1953,90.8379 C26.1953,89.8969 26.4303,89.1679 26.9013,88.6539 C27.3733,88.1389 28.0243,87.8809 28.8553,87.8809 C29.6503,87.8809 30.2683,88.1079 30.7113,88.5599 C31.1543,89.0129 31.3753,89.6379 31.3753,90.4359 L31.3753,91.1809 L27.7493,91.1809 C27.7653,91.6169 27.8943,91.9559 28.1363,92.2019 C28.3783,92.4469 28.7173,92.5689 29.1523,92.5689 C29.4913,92.5689 29.8113,92.5339 30.1133,92.4629 C30.4153,92.3929 30.7293,92.2809 31.0583,92.1259 L31.0583,93.3129 C30.7903,93.4479 30.5043,93.5469 30.1983,93.6129 C29.8933,93.6779 29.5213,93.7099 29.0823,93.7099" id="Fill-35" fill="#0A6EB4" mask="url(#mask-2)"></path>
            <path d="M37.4102,93.6096 L35.8762,93.6096 L35.8762,90.3256 C35.8762,89.9206 35.8042,89.6156 35.6602,89.4126 C35.5152,89.2106 35.2862,89.1086 34.9712,89.1086 C34.5422,89.1086 34.2312,89.2526 34.0402,89.5386 C33.8492,89.8256 33.7542,90.2996 33.7542,90.9636 L33.7542,93.6096 L32.2202,93.6096 L32.2202,87.9866 L33.3912,87.9866 L33.5972,88.7066 L33.6832,88.7066 C33.8542,88.4346 34.0902,88.2286 34.3892,88.0896 C34.6892,87.9506 35.0312,87.8806 35.4132,87.8806 C36.0672,87.8806 36.5632,88.0576 36.9022,88.4116 C37.2402,88.7656 37.4102,89.2756 37.4102,89.9436 L37.4102,93.6096 Z" id="Fill-36" fill="#0A6EB4" mask="url(#mask-2)"></path>
            <path d="M40.8643,92.4885 C41.1323,92.4885 41.4543,92.4295 41.8293,92.3115 L41.8293,93.4535 C41.4473,93.6245 40.9773,93.7105 40.4213,93.7105 C39.8073,93.7105 39.3613,93.5545 39.0813,93.2455 C38.8013,92.9345 38.6613,92.4695 38.6613,91.8495 L38.6613,89.1385 L37.9263,89.1385 L37.9263,88.4895 L38.7713,87.9765 L39.2143,86.7905 L40.1953,86.7905 L40.1953,87.9865 L41.7693,87.9865 L41.7693,89.1385 L40.1953,89.1385 L40.1953,91.8495 C40.1953,92.0675 40.2563,92.2285 40.3793,92.3325 C40.5013,92.4355 40.6633,92.4885 40.8643,92.4885" id="Fill-37" fill="#0A6EB4" mask="url(#mask-2)"></path>
            <path d="M43.7052,90.7883 C43.7052,91.3453 43.7972,91.7663 43.9792,92.0513 C44.1622,92.3353 44.4602,92.4773 44.8722,92.4773 C45.2812,92.4773 45.5752,92.3363 45.7552,92.0533 C45.9342,91.7693 46.0242,91.3483 46.0242,90.7883 C46.0242,90.2313 45.9342,89.8143 45.7532,89.5353 C45.5712,89.2583 45.2742,89.1183 44.8622,89.1183 C44.4532,89.1183 44.1582,89.2573 43.9772,89.5333 C43.7962,89.8093 43.7052,90.2283 43.7052,90.7883 M47.5932,90.7883 C47.5932,91.7033 47.3512,92.4193 46.8692,92.9353 C46.3862,93.4523 45.7142,93.7103 44.8522,93.7103 C44.3122,93.7103 43.8362,93.5923 43.4242,93.3553 C43.0122,93.1193 42.6942,92.7793 42.4742,92.3373 C42.2522,91.8943 42.1422,91.3783 42.1422,90.7883 C42.1422,89.8693 42.3812,89.1553 42.8602,88.6453 C43.3402,88.1363 44.0142,87.8813 44.8832,87.8813 C45.4222,87.8813 45.8982,87.9983 46.3102,88.2333 C46.7232,88.4683 47.0402,88.8053 47.2612,89.2443 C47.4822,89.6843 47.5932,90.1983 47.5932,90.7883" id="Fill-38" fill="#0A6EB4" mask="url(#mask-2)"></path>
            <path d="M52.3634,91.9397 C52.3634,92.5167 52.1634,92.9557 51.7624,93.2577 C51.3614,93.5587 50.7624,93.7107 49.9644,93.7107 C49.5554,93.7107 49.2064,93.6827 48.9184,93.6267 C48.6304,93.5717 48.3604,93.4907 48.1084,93.3827 L48.1084,92.1157 C48.3934,92.2507 48.7154,92.3627 49.0714,92.4537 C49.4284,92.5437 49.7434,92.5887 50.0144,92.5887 C50.5714,92.5887 50.8494,92.4277 50.8494,92.1057 C50.8494,91.9857 50.8124,91.8867 50.7394,91.8117 C50.6654,91.7367 50.5384,91.6507 50.3564,91.5547 C50.1754,91.4597 49.9344,91.3477 49.6334,91.2207 C49.2004,91.0397 48.8824,90.8727 48.6794,90.7177 C48.4764,90.5637 48.3294,90.3867 48.2364,90.1867 C48.1444,89.9877 48.0984,89.7427 48.0984,89.4507 C48.0984,88.9507 48.2924,88.5647 48.6794,88.2917 C49.0664,88.0177 49.6154,87.8807 50.3264,87.8807 C51.0044,87.8807 51.6624,88.0287 52.3024,88.3237 L51.8404,89.4297 C51.5584,89.3097 51.2954,89.2107 51.0514,89.1327 C50.8054,89.0567 50.5554,89.0177 50.3014,89.0177 C49.8484,89.0177 49.6224,89.1397 49.6224,89.3847 C49.6224,89.5227 49.6954,89.6417 49.8414,89.7427 C49.9874,89.8427 50.3064,89.9917 50.7994,90.1897 C51.2384,90.3677 51.5604,90.5337 51.7644,90.6877 C51.9694,90.8417 52.1204,91.0197 52.2174,91.2207 C52.3144,91.4217 52.3634,91.6617 52.3634,91.9397" id="Fill-39" fill="#0A6EB4" mask="url(#mask-2)"></path>
            <path d="M35.7623,3.6955 L36.3103,3.6955 C36.8223,3.6955 37.2043,3.5945 37.4593,3.3915 C37.7133,3.1895 37.8403,2.8945 37.8403,2.5085 C37.8403,2.1185 37.7343,1.8305 37.5213,1.6435 C37.3073,1.4575 36.9743,1.3635 36.5193,1.3635 L35.7623,1.3635 L35.7623,3.6955 Z M39.5223,2.4495 C39.5223,3.2945 39.2573,3.9405 38.7293,4.3875 C38.2013,4.8365 37.4503,5.0595 36.4763,5.0595 L35.7623,5.0595 L35.7623,7.8525 L34.0973,7.8525 L34.0973,0.0005 L36.6053,0.0005 C37.5573,0.0005 38.2823,0.2045 38.7773,0.6155 C39.2743,1.0255 39.5223,1.6365 39.5223,2.4495 Z M29.9853,7.8525 L28.3473,7.8525 L28.3473,0.0005 L32.8483,0.0005 L32.8483,1.3635 L29.9853,1.3635 L29.9853,3.3895 L32.6493,3.3895 L32.6493,4.7485 L29.9853,4.7485 L29.9853,7.8525 Z M25.4603,7.8525 L23.5643,7.8525 L22.5013,3.7275 C22.4613,3.5805 22.3943,3.2775 22.2993,2.8175 C22.2043,2.3565 22.1503,2.0485 22.1363,1.8905 C22.1143,2.0845 22.0603,2.3955 21.9743,2.8225 C21.8883,3.2505 21.8223,3.5565 21.7763,3.7385 L20.7183,7.8525 L18.8273,7.8525 L16.8243,0.0005 L18.4623,0.0005 L19.4663,4.2855 C19.6413,5.0775 19.7683,5.7635 19.8473,6.3435 C19.8693,6.1395 19.9183,5.8235 19.9953,5.3955 C20.0723,4.9665 20.1443,4.6345 20.2133,4.3995 L21.3573,0.0005 L22.9303,0.0005 L24.0743,4.3995 C24.1253,4.5955 24.1873,4.8975 24.2623,5.3005 C24.3383,5.7065 24.3953,6.0535 24.4343,6.3435 C24.4703,6.0635 24.5273,5.7155 24.6063,5.2985 C24.6853,4.8825 24.7573,4.5445 24.8213,4.2855 L25.8203,0.0005 L27.4583,0.0005 L25.4603,7.8525 Z M21.3873,35.1655 C18.3373,35.1655 16.3783,35.8895 15.8443,36.1145 C15.8123,36.1285 15.7863,36.0835 15.8103,36.0585 C19.1633,32.5735 23.0893,32.7655 24.0333,32.7655 L35.1953,32.7655 C35.7573,32.7655 36.2133,33.3025 36.2133,33.9665 C36.2133,34.6285 35.7573,35.1655 35.1953,35.1655 L21.3873,35.1655 Z M23.9023,38.2505 C20.6153,38.2505 19.6563,36.3825 14.6803,37.6155 C14.6463,37.6245 14.6233,37.5775 14.6523,37.5575 C17.4263,35.6545 20.4433,35.8275 21.6633,35.8275 L35.1953,35.8275 C35.7573,35.8275 36.2133,36.3645 36.2133,37.0265 C36.2133,37.6885 35.7573,38.2255 35.1953,38.2255 C35.1953,38.2255 26.5053,38.2505 23.9023,38.2505 Z M24.1353,41.2875 C20.7613,41.2875 20.4913,38.7975 15.4893,38.2365 C15.4543,38.2325 15.4503,38.1805 15.4843,38.1725 C19.5933,37.1445 21.1223,38.8875 23.5213,38.8875 L35.1953,38.8875 C35.7573,38.8875 36.2133,39.4245 36.2133,40.0875 C36.2133,40.7505 35.7573,41.2875 35.1953,41.2875 L24.1353,41.2875 Z M23.4033,32.1045 C20.6863,32.1045 18.4353,33.2895 17.9083,33.5885 C17.8793,33.6045 17.8493,33.5695 17.8683,33.5425 C18.3083,32.8935 20.6883,29.7055 24.7783,29.7055 L35.1953,29.7055 C35.7573,29.7055 36.2133,30.2425 36.2133,30.9055 C36.2133,31.5675 35.7573,32.1045 35.1953,32.1045 L23.4033,32.1045 Z M38.3443,25.4795 C38.2393,25.3735 38.0813,25.2965 37.9003,25.2745 C37.7663,25.2565 37.6463,25.2775 37.5383,25.3175 C37.5853,25.2185 37.6253,25.1125 37.6403,24.9875 C37.6673,24.7945 37.6303,24.6125 37.5563,24.4755 C37.2203,23.7385 38.1813,22.2665 38.0603,22.2005 C37.9453,22.1365 37.3993,23.7605 36.8693,24.4165 C36.7663,24.5365 36.6933,24.7085 36.6693,24.9055 C36.6513,25.0995 36.6823,25.2825 36.7563,25.4185 C36.8293,25.5505 36.9423,25.6445 37.0743,25.6525 C37.1103,25.6575 37.1473,25.6545 37.1813,25.6465 C37.1733,25.6655 37.1653,25.6865 37.1633,25.7055 C37.1423,25.8485 37.1973,25.9845 37.3043,26.0935 C37.4093,26.2045 37.5643,26.2785 37.7453,26.3005 C37.9323,26.3245 38.1053,26.2875 38.2393,26.2075 C38.9583,25.8145 40.4493,25.4265 40.4173,25.2885 C40.3883,25.1505 38.9343,26.0035 38.3443,25.4795 Z M39.4443,24.4055 C39.3443,24.2975 39.2023,24.2225 39.0373,24.2065 C38.9423,24.2015 38.8563,24.2175 38.7693,24.2495 C38.7823,24.2035 38.8013,24.1645 38.8063,24.1185 C38.8243,23.9435 38.7823,23.7815 38.7033,23.6565 C38.3393,22.9795 39.2913,21.7005 39.1683,21.6375 C39.0453,21.5735 38.5223,23.0055 37.9923,23.5715 C37.8873,23.6725 37.8143,23.8215 37.7953,23.9965 C37.7803,24.1725 37.8193,24.3375 37.8953,24.4615 C37.9793,24.5845 38.0953,24.6715 38.2343,24.6905 C38.2943,24.6955 38.3573,24.6845 38.4123,24.6695 C38.4093,24.6765 38.4023,24.6875 38.4043,24.6955 C38.3913,24.8445 38.4463,24.9875 38.5433,25.0935 C38.6433,25.2005 38.7873,25.2745 38.9483,25.2885 C39.1133,25.3035 39.2653,25.2585 39.3813,25.1715 C40.0003,24.7245 41.4173,24.4595 41.3803,24.3155 C41.3463,24.1775 39.9903,24.9265 39.4443,24.4055 Z M40.4073,23.4125 C40.3043,23.3355 40.1653,23.2925 40.0183,23.3085 C39.9483,23.3115 39.8823,23.3325 39.8223,23.3595 C39.8323,23.3295 39.8503,23.3055 39.8613,23.2765 C39.9003,23.1255 39.8873,22.9705 39.8373,22.8465 C39.6063,22.1815 40.6303,21.1985 40.5303,21.1185 C40.4303,21.0445 39.7663,22.2355 39.2203,22.6545 C39.1163,22.7325 39.0323,22.8545 38.9903,23.0085 C38.9453,23.1565 38.9583,23.3135 39.0113,23.4365 C39.0663,23.5615 39.1553,23.6535 39.2763,23.6915 C39.3673,23.7205 39.4593,23.7015 39.5463,23.6645 C39.5283,23.7155 39.5173,23.7735 39.5223,23.8345 C39.5353,23.9705 39.6013,24.0845 39.7083,24.1645 C39.8113,24.2435 39.9503,24.2835 40.0953,24.2735 C40.2443,24.2575 40.3723,24.1935 40.4623,24.0975 C40.9523,23.6005 42.1763,23.1355 42.1263,23.0165 C42.0733,22.8965 40.9733,23.7815 40.4073,23.4125 Z M42.3023,21.2785 C42.1993,21.1275 41.3443,22.0655 40.7113,22.1555 C40.5933,22.1715 40.4623,22.2295 40.3513,22.3335 C40.2333,22.4395 40.1583,22.5705 40.1313,22.6945 C40.1023,22.8175 40.1203,22.9365 40.1863,23.0185 C40.2573,23.1045 40.3653,23.1415 40.4853,23.1275 C40.6063,23.1145 40.7323,23.0565 40.8503,22.9465 C40.9603,22.8435 41.0363,22.7135 41.0653,22.5915 C41.2573,21.9475 42.3783,21.3765 42.3023,21.2785 Z M24.6083,22.5485 C24.5813,22.6415 24.3983,23.3645 24.3983,23.3645 C24.3453,23.3935 24.1253,23.3455 24.0673,23.3405 C23.6443,23.3005 23.2673,22.9335 23.4293,22.4955 C23.5623,22.1375 23.8333,22.0995 24.1783,22.0835 C24.3203,22.0775 24.5773,22.1115 24.7063,22.2005 C24.7063,22.2005 24.6553,22.3655 24.6083,22.5485 Z M24.1223,24.7305 C24.1093,24.8125 24.0963,24.8945 24.0833,24.9775 C23.8213,24.8125 23.6653,24.4355 23.7913,24.1375 C23.8883,23.9115 24.1293,23.8525 24.3063,23.8425 C24.2433,24.1375 24.1803,24.4325 24.1223,24.7305 Z M23.7443,27.4265 C23.7113,27.6125 23.4613,27.6365 23.2903,27.6875 C22.7943,27.8365 22.3243,27.7725 22.1723,27.1795 C22.0073,26.5455 22.4873,26.2785 23.0023,26.1545 C23.2833,26.0885 23.5423,26.1435 23.7343,26.3805 C23.7823,26.4395 23.8393,26.4925 23.8523,26.5485 C23.8523,26.5485 23.7753,27.2525 23.7443,27.4265 Z M22.1833,24.3045 C22.5663,24.2125 22.9623,24.0685 23.2563,24.4455 C23.5663,24.8415 23.4643,25.4765 22.9653,25.6445 C22.6373,25.7555 22.2413,25.8515 21.9603,25.5835 C21.5923,25.2325 21.6183,24.4355 22.1833,24.3045 Z M21.8073,22.2485 C22.2123,22.1505 22.6293,22.0015 22.9393,22.3975 C23.2623,22.8115 23.1543,23.4815 22.6323,23.6565 C22.2853,23.7705 21.8683,23.8715 21.5743,23.5905 C21.1883,23.2235 21.2173,22.3865 21.8073,22.2485 Z M21.4323,26.6935 C21.3273,27.0635 21.0233,27.1185 20.7023,27.1955 C20.4923,26.9385 19.9293,26.2865 19.9193,26.2095 C19.9163,26.1845 19.9193,26.1545 19.9313,26.1195 C19.9573,26.0425 20.0473,25.9685 20.1123,25.9255 C20.3043,25.8005 20.7133,25.7085 20.9333,25.7535 C21.3303,25.8385 21.5373,26.3215 21.4323,26.6935 Z M19.4273,24.7945 C19.1383,23.7705 20.8553,23.3245 21.1203,24.3285 C21.3933,25.3605 19.6613,25.7985 19.4273,24.7945 Z M19.1753,22.7505 C18.8813,21.7335 20.6053,21.2865 20.8703,22.2855 C21.1433,23.3195 19.4083,23.7575 19.1753,22.7505 Z M18.9343,20.7415 C18.6533,19.7935 20.2723,19.3735 20.5193,20.3085 C20.7733,21.2705 19.1543,21.6855 18.9343,20.7415 Z M18.7683,24.6085 C18.6883,24.6555 18.6593,24.6805 18.6323,24.6805 L17.8623,23.8425 C17.8713,23.8195 18.1103,23.6465 18.1883,23.6005 C18.8293,23.2445 19.3563,24.2625 18.7683,24.6085 Z M17.3063,22.7215 C16.9263,21.8815 18.3123,20.9705 18.7323,21.8765 C19.1173,22.7105 17.7323,23.6375 17.3063,22.7215 Z M18.4723,20.0615 C18.9103,20.8405 17.5903,21.7095 17.2123,20.8715 C16.8763,20.1495 18.0493,19.3065 18.4723,20.0615 Z M17.3653,18.2465 C17.5593,18.0745 17.7843,17.9815 18.0153,18.0925 C18.3853,18.2705 18.3963,18.8255 18.0733,19.0465 C17.9263,19.1475 17.6773,19.2725 17.4953,19.2275 C17.0993,19.1265 17.0233,18.5485 17.3653,18.2465 Z M17.4143,16.5775 C17.5753,16.4695 17.7873,16.3725 17.9703,16.4475 C18.3053,16.5845 18.2933,17.0695 18.0233,17.2635 C17.9003,17.3515 17.6773,17.4605 17.5273,17.4205 C17.1883,17.3355 17.1053,16.7865 17.4143,16.5775 Z M18.3013,14.1995 C18.5003,14.0925 18.7873,14.0485 18.9653,14.2475 C19.1753,14.4825 19.1073,14.8405 18.8313,14.9815 C18.6193,15.0875 18.3333,15.1275 18.1653,14.9305 C17.9813,14.7175 18.0183,14.3525 18.3013,14.1995 Z M18.1443,16.0065 C17.9843,15.4115 18.9863,15.1305 19.1493,15.7355 C19.3303,16.3225 18.3043,16.6155 18.1443,16.0065 Z M19.7613,17.0455 C19.9943,17.6885 18.9053,18.0525 18.6923,17.4175 C18.4743,16.7745 19.5693,16.4075 19.7613,17.0455 Z M19.8973,13.9125 C20.1053,13.8295 20.3713,13.7395 20.6033,13.9125 C20.8913,14.1285 20.8283,14.6145 20.4983,14.7655 C20.2803,14.8635 20.0023,14.9305 19.8073,14.7585 C19.5613,14.5375 19.5483,14.0525 19.8973,13.9125 Z M19.7053,19.2935 C19.4113,19.3625 19.1043,19.4795 18.8603,19.2275 C18.5483,18.9055 18.6373,18.3425 19.0603,18.1885 C19.3333,18.0845 19.6793,18.0265 19.9023,18.2545 C20.1883,18.5475 20.1573,19.1845 19.7053,19.2935 Z M19.7113,16.0095 C19.5223,15.3715 20.5613,15.0445 20.7613,15.6635 C20.9653,16.2995 19.8893,16.6365 19.7113,16.0095 Z M21.4503,17.1785 C21.6953,17.9065 20.4643,18.2945 20.2383,17.5775 C20.0103,16.8435 21.2483,16.4555 21.4503,17.1785 Z M21.5163,15.2285 C21.7333,15.1705 21.9623,15.1915 22.1283,15.3685 C22.3803,15.6395 22.2933,16.1025 21.9203,16.1715 C21.7443,16.2035 21.4743,16.1905 21.3383,16.0705 C21.0913,15.8525 21.1033,15.3395 21.5163,15.2285 Z M22.5663,16.7565 C22.9623,16.7565 23.1613,17.3385 22.9313,17.6275 C22.7923,17.8025 22.4923,17.8135 22.2883,17.7815 C21.9103,17.7235 21.6683,17.2375 21.9233,16.9075 C22.0783,16.7085 22.3433,16.7565 22.5663,16.7565 Z M20.6633,19.1535 C20.4193,18.3155 21.8423,17.9415 22.0593,18.7725 C22.2803,19.6175 20.8493,19.9895 20.6633,19.1535 Z M21.5343,20.2235 C21.9233,20.1835 22.3273,20.0935 22.5663,20.5005 C22.8153,20.9305 22.6293,21.5285 22.1253,21.6295 C21.7943,21.6985 21.3933,21.7305 21.1573,21.4375 C20.8473,21.0495 20.9703,20.2765 21.5343,20.2235 Z M23.5093,18.3595 C23.9893,18.5575 24.1513,19.1235 23.8123,19.4395 C23.6323,19.6045 23.3013,19.5725 23.0783,19.5275 C22.6323,19.4395 22.3403,18.7695 22.7313,18.4515 C22.9323,18.2885 23.2913,18.2685 23.5093,18.3595 Z M24.2643,20.3775 C24.5663,20.7475 24.4533,21.4005 23.9263,21.4325 C23.6503,21.4485 23.2903,21.4165 23.1043,21.1905 C22.8053,20.8295 22.9183,20.1525 23.4453,20.1335 C23.7203,20.1225 24.0773,20.1525 24.2643,20.3775 Z M26.3033,13.7135 C26.2743,13.6715 26.2223,13.6475 26.1693,13.6635 C26.1063,13.6845 26.0643,13.7535 26.0883,13.8145 C27.2923,17.0505 25.7553,18.6455 25.1123,20.9115 C24.3403,19.0705 26.8963,17.3385 25.5793,13.9825 C25.5603,13.9395 25.5263,13.9045 25.4793,13.8975 C25.4133,13.8885 25.3503,13.9155 25.3403,14.0035 C25.3063,14.2395 25.1513,16.0995 23.6423,17.1895 C23.4873,16.8335 23.2593,16.4615 22.9393,16.1685 C22.8003,15.5415 22.3903,14.6805 21.5293,14.4255 C21.4013,14.1015 21.1413,13.6365 20.6423,13.3865 C20.1733,13.1535 19.6293,13.1745 19.0263,13.4475 C18.2963,13.5325 17.7953,13.8175 17.5303,14.2925 C17.2813,14.7415 17.3253,15.2305 17.4093,15.5635 C16.7953,16.2195 16.7663,17.1915 16.7823,17.5715 C16.4173,18.4485 16.6223,19.4715 16.7373,19.8965 C16.3023,21.0875 16.7263,22.2425 16.8973,22.6255 C16.8973,22.7295 16.9033,22.8275 16.9083,22.9255 C15.4803,21.3635 12.2313,19.4285 10.9903,18.6905 C10.9323,18.6555 10.8593,18.6635 10.8083,18.7115 C10.7453,18.7705 10.7433,18.8655 10.8013,18.9295 C13.5703,21.6295 16.0393,24.9615 18.4113,31.8755 C19.5953,30.6445 21.7343,29.0265 24.7783,29.0265 L28.3403,29.0265 C26.0773,20.5985 29.3713,17.5825 26.3033,13.7135 Z M43.1383,18.0715 C42.4883,17.9015 38.3313,17.1655 33.6723,25.7345 C34.3523,22.5435 36.4173,18.6825 36.9843,17.5615 L36.9843,17.5535 C37.0183,17.4895 37.0003,17.4065 36.9423,17.3625 C36.8853,17.3195 36.7983,17.3325 36.7533,17.3965 C33.6753,22.5295 32.5943,25.4875 31.9563,29.0265 L33.8853,29.0265 C34.2133,25.6145 38.5223,17.5775 43.1153,18.1745 L43.1203,18.1745 C43.1463,18.1805 43.1703,18.1585 43.1733,18.1345 C43.1833,18.1055 43.1653,18.0765 43.1383,18.0715 Z M33.8773,46.3035 L32.8353,41.9485 L31.0613,41.9485 C31.3423,43.0535 31.7433,44.1775 32.2633,45.1635 C32.2973,45.2215 32.3603,45.2575 32.4233,45.2465 C32.5073,45.2355 32.5733,45.1475 32.5573,45.0565 C32.4363,44.1345 32.2923,43.2455 32.1563,42.3575 C32.5313,43.7525 33.0373,45.1155 33.7203,46.3705 C33.7383,46.4095 33.7773,46.4275 33.8143,46.4155 C33.8643,46.4045 33.8903,46.3515 33.8773,46.3035 Z M35.6703,44.3265 C35.4893,43.5985 35.3003,42.7055 35.1373,41.9485 L34.4623,41.9485 C34.7253,42.7565 35.0793,43.6575 35.3943,44.4275 C35.4263,44.5025 35.4963,44.5395 35.5653,44.5205 C35.6463,44.4965 35.6913,44.4095 35.6703,44.3265 Z M35.8953,46.8875 L35.8903,46.8775 C35.6723,46.2685 35.3703,45.7235 35.1323,45.1395 C34.8773,44.5545 34.6303,43.9805 34.4263,43.3815 C34.2553,42.9315 34.0743,42.4165 33.9353,41.9485 L33.2843,41.9485 C33.4683,42.4935 33.7063,43.0805 33.9293,43.6065 C34.4203,44.7945 34.9873,45.9585 35.7093,46.9995 C35.7353,47.0375 35.7853,47.0525 35.8323,47.0345 C35.8903,47.0125 35.9163,46.9465 35.8953,46.8875 Z M36.8693,25.9875 C36.8193,25.9125 36.6993,25.8965 36.6403,25.9575 C35.4573,27.2065 34.7413,28.5355 34.4943,29.0265 L35.1973,29.0265 C35.5493,28.2005 36.3423,26.7415 36.8503,26.2155 L36.8563,26.2105 C36.9083,26.1515 36.9193,26.0535 36.8693,25.9875 Z M31.5153,19.9425 C32.1663,18.8735 33.1323,18.0555 33.9503,17.0675 C33.9793,17.0295 33.9773,16.9715 33.9433,16.9395 C33.9113,16.9045 33.8593,16.9045 33.8253,16.9365 C33.6383,17.1355 33.4443,17.3215 33.2443,17.5085 C33.1583,17.4655 32.9383,17.5505 32.7153,17.7255 C32.5393,17.8635 32.4133,18.0185 32.3683,18.1295 C32.2553,18.1035 32.0433,18.2365 31.8513,18.4805 C31.6943,18.6855 31.6023,18.9005 31.6043,19.0335 C31.4843,19.0435 31.3083,19.1975 31.1583,19.4425 C31.0613,19.6045 30.9983,19.7615 30.9773,19.8915 C30.8803,19.9575 30.7703,20.0825 30.6673,20.2445 C30.5333,20.4675 30.4663,20.6945 30.4873,20.8235 C30.4553,20.8805 30.4233,20.9335 30.3973,20.9885 C30.4033,20.9435 30.4083,20.9015 30.4133,20.8565 C30.6043,19.3435 30.8833,17.8455 31.3053,16.4005 C31.7303,14.9595 32.2403,13.5065 33.1143,12.3405 L33.1183,12.3345 C33.1633,12.2705 33.1583,12.1835 33.1033,12.1245 C33.0483,12.0635 32.9563,12.0605 32.8983,12.1215 C32.5963,12.4435 32.3423,12.8025 32.1143,13.1715 C32.0143,13.1185 31.8043,13.3155 31.6443,13.6235 C31.4973,13.9025 31.4443,14.1595 31.4993,14.2585 C31.4993,14.2585 31.4973,14.2665 31.4913,14.2635 C31.3873,14.2185 31.1923,14.4525 31.0743,14.7655 C30.9593,15.0605 30.9383,15.3315 31.0163,15.4225 C31.0123,15.4275 31.0123,15.4305 31.0093,15.4355 C30.8903,15.3925 30.6993,15.6615 30.5813,16.0415 C30.4843,16.3625 30.4733,16.6415 30.5443,16.7535 C30.5493,16.7585 30.5443,16.7725 30.5393,16.7695 C30.4183,16.7265 30.2343,17.0035 30.1273,17.3805 C30.0193,17.7445 30.0273,18.0665 30.1303,18.1295 C30.0123,18.1165 29.8463,18.3925 29.7603,18.7675 C29.6803,19.0915 29.6893,19.3705 29.7643,19.4825 C29.6493,19.5165 29.5213,19.7875 29.4553,20.1385 C29.3923,20.4815 29.4243,20.7655 29.5083,20.8565 C29.4003,20.9115 29.2903,21.1905 29.2503,21.5365 C29.2113,21.8795 29.2613,22.1605 29.3503,22.2515 C29.2613,22.3515 29.1743,22.5915 29.1373,22.8785 C29.1013,23.1515 29.1243,23.3885 29.1773,23.5215 C29.0803,23.6035 29.0063,23.8805 29.0043,24.2125 C28.9963,24.4775 29.0353,24.7035 29.1033,24.8335 C29.0513,24.9665 29.0143,25.1605 29.0143,25.3755 C29.0093,25.6545 29.0543,25.8935 29.1243,26.0185 C29.1033,26.9995 29.1163,28.0435 29.1693,29.0265 L31.2873,29.0265 C31.3033,28.2615 31.3523,27.4265 31.4293,26.6695 C31.5783,25.3205 31.8013,23.9485 32.4763,22.7955 L32.4813,22.7875 C32.5023,22.7455 32.4993,22.6975 32.4683,22.6605 C32.4293,22.6255 32.3733,22.6255 32.3373,22.6685 C31.4213,23.7315 31.0193,25.1745 30.7833,26.5585 C30.7413,26.8295 30.7073,27.1025 30.6753,27.3745 C30.7333,26.2635 30.8353,25.1575 31.0903,24.1055 C31.3813,22.8245 31.9643,21.6055 33.0743,20.9225 C33.1083,20.9015 33.1263,20.8565 33.1143,20.8105 C33.1003,20.7605 33.0483,20.7315 33.0033,20.7445 C32.9323,20.7655 32.8663,20.8025 32.7993,20.8325 C32.7253,20.7415 32.4553,20.8085 32.1773,20.9865 C31.9113,21.1585 31.7363,21.3715 31.7543,21.4885 C31.7543,21.4935 31.7413,21.5015 31.7413,21.4905 C31.7383,21.4775 31.7363,21.4645 31.7283,21.4565 C31.6283,21.3745 31.3603,21.5605 31.1353,21.8765 C30.9063,22.1925 30.8173,22.5225 30.9143,22.6075 C30.9193,22.6095 30.9173,22.6175 30.9113,22.6175 C30.7933,22.5705 30.5963,22.8385 30.4733,23.2135 C30.3843,23.4755 30.3633,23.7175 30.3943,23.8565 C30.3943,23.8615 30.3893,23.8665 30.3893,23.8665 C30.2973,24.1695 30.2213,24.4755 30.1503,24.7855 C30.1773,24.3475 30.2163,23.9065 30.2793,23.4705 C30.4663,22.2165 30.8433,20.9885 31.5153,19.9425 Z M38.1793,16.4455 C38.0453,16.3815 37.8693,16.3655 37.6933,16.4075 C37.5623,16.4395 37.4573,16.5035 37.3673,16.5775 C37.3813,16.4665 37.3813,16.3545 37.3493,16.2325 C37.3073,16.0415 37.2133,15.8845 37.0973,15.7835 C36.5253,15.2125 36.9193,13.4925 36.7853,13.4715 C36.6543,13.4535 36.7013,15.1675 36.4303,15.9695 C36.3763,16.1185 36.3653,16.3065 36.4123,16.4985 C36.4593,16.6875 36.5543,16.8465 36.6723,16.9495 C36.7853,17.0485 36.9223,17.0935 37.0503,17.0535 C37.0843,17.0485 37.1183,17.0325 37.1473,17.0105 C37.1473,17.0325 37.1473,17.0535 37.1503,17.0745 C37.1793,17.2155 37.2783,17.3245 37.4153,17.3885 C37.5543,17.4545 37.7243,17.4705 37.9033,17.4255 C38.0843,17.3835 38.2343,17.2845 38.3313,17.1655 C38.8693,16.5405 40.1343,15.6505 40.0573,15.5305 C39.9813,15.4145 38.9133,16.7265 38.1793,16.4455 Z M40.6243,14.2795 C40.5433,14.1625 39.5303,15.3445 38.8403,15.0495 C38.7093,14.9835 38.5493,14.9655 38.3883,15.0075 C38.2993,15.0345 38.2233,15.0825 38.1523,15.1405 C38.1503,15.0925 38.1523,15.0495 38.1423,15.0075 C38.1003,14.8355 38.0053,14.6995 37.8873,14.6095 C37.3103,14.1045 37.7643,12.5685 37.6273,12.5525 C37.4883,12.5365 37.4913,14.0645 37.1923,14.7815 C37.1293,14.9145 37.1103,15.0795 37.1553,15.2495 C37.1973,15.4195 37.2913,15.5605 37.4093,15.6505 C37.5283,15.7355 37.6673,15.7755 37.8033,15.7435 C37.8643,15.7275 37.9163,15.6955 37.9633,15.6615 C37.9633,15.6695 37.9613,15.6795 37.9633,15.6875 C38.0053,15.8345 38.1053,15.9485 38.2343,16.0145 C38.3653,16.0755 38.5253,16.0965 38.6793,16.0515 C38.8403,16.0095 38.9663,15.9115 39.0453,15.7915 C39.4723,15.1515 40.7063,14.4025 40.6243,14.2795 Z M40.8743,12.7995 C40.7843,12.7065 40.0573,13.9235 39.3993,13.7775 C39.2763,13.7425 39.1313,13.7505 39.0003,13.8175 C38.9343,13.8435 38.8793,13.8885 38.8323,13.9345 C38.8323,13.9045 38.8403,13.8755 38.8403,13.8435 C38.8243,13.6895 38.7613,13.5465 38.6693,13.4505 C38.2263,12.9085 38.8433,11.6255 38.7243,11.5855 C38.6043,11.5505 38.3943,12.9005 38.0263,13.4875 C37.9533,13.5995 37.9163,13.7425 37.9323,13.8995 C37.9423,14.0565 38.0083,14.1975 38.1003,14.2955 C38.1943,14.3935 38.3103,14.4465 38.4363,14.4395 C38.5303,14.4365 38.6123,14.3855 38.6793,14.3195 C38.6793,14.3725 38.6903,14.4305 38.7173,14.4875 C38.7743,14.6095 38.8773,14.6945 39.0033,14.7285 C39.1263,14.7685 39.2733,14.7585 39.4043,14.6945 C39.5383,14.6275 39.6353,14.5215 39.6873,14.4025 C39.9763,13.7615 40.9603,12.8925 40.8743,12.7995 Z M40.4383,11.1095 C40.2883,11.0035 39.8133,12.1855 39.2493,12.4935 C39.1443,12.5495 39.0453,12.6505 38.9743,12.7885 C38.9033,12.9295 38.8773,13.0785 38.8953,13.2035 C38.9083,13.3285 38.9663,13.4345 39.0583,13.4875 C39.1523,13.5435 39.2653,13.5405 39.3723,13.4855 C39.4833,13.4295 39.5803,13.3285 39.6543,13.1875 C39.7213,13.0495 39.7483,12.9005 39.7323,12.7755 C39.6903,12.1065 40.5433,11.1755 40.4383,11.1095 Z M30.0793,41.9485 L24.1353,41.9485 C23.7313,41.9485 23.3663,41.9165 23.0313,41.8555 C23.0333,41.8555 23.0333,41.8575 23.0333,41.8575 C24.0103,43.3085 25.5393,44.4095 27.0903,45.1475 C27.3293,46.4705 27.6283,47.6955 27.7363,47.7915 C27.8463,47.8865 29.3683,47.4485 29.4163,47.3075 C29.4603,47.1675 28.7943,44.9005 28.7943,44.9005 C29.5943,43.5265 29.8413,42.7165 30.0793,41.9485 Z M45.0333,52.1175 C43.5333,52.7105 41.5743,52.7595 39.9763,52.3355 C36.3153,51.1955 32.2503,49.0355 28.3473,50.8285 C24.4453,49.0355 20.3803,51.1955 16.7193,52.3355 C15.1203,52.7595 13.1623,52.7105 11.6613,52.1175 C11.6193,52.1015 11.5883,52.1545 11.6253,52.1835 C13.7843,53.8545 16.8113,54.6235 19.5353,53.6395 C22.1513,52.8245 24.3643,50.0525 27.4633,51.2355 C25.0093,52.1945 22.7163,53.9645 20.9443,55.6345 L22.2333,56.6925 C23.8423,54.8195 25.6523,52.9465 27.7023,51.8065 C27.9833,51.6415 28.1513,51.5755 28.3473,51.5645 C28.5443,51.5755 28.7123,51.6415 28.9913,51.8065 C31.0433,52.9465 32.8543,54.8195 34.4623,56.6925 L35.7513,55.6345 C33.9793,53.9645 31.6863,52.1945 29.2323,51.2355 C32.3313,50.0525 34.5443,52.8245 37.1603,53.6395 C39.8853,54.6235 42.9103,53.8545 45.0703,52.1835 C45.1043,52.1545 45.0753,52.1015 45.0333,52.1175 Z M20.9053,49.5925 C17.0783,48.6655 16.0313,45.0785 12.8323,43.5215 C12.7983,43.5035 12.7613,43.5435 12.7823,43.5745 C13.7903,45.2325 14.3363,47.7725 17.2413,49.3385 C17.2643,49.3505 17.2513,49.3885 17.2253,49.3805 C13.0583,48.5785 11.3073,49.6935 6.9403,47.7195 C6.9043,47.7035 6.8643,47.7435 6.8873,47.7785 C8.3233,49.8615 11.7303,51.2855 16.3963,50.8925 C18.0753,50.7495 19.2933,50.0425 20.9053,49.6655 C20.9443,49.6545 20.9443,49.6005 20.9053,49.5925 Z M12.8903,47.3925 C11.4363,45.4875 11.8503,41.4205 8.5673,37.6975 C8.5413,37.6685 8.4943,37.6915 8.5023,37.7285 C9.1293,40.4705 8.9433,43.5855 10.6593,45.8675 C10.6753,45.8915 10.6513,45.9155 10.6283,45.8995 C7.2423,43.2345 3.7623,42.4315 2.2143,40.2745 C2.1903,40.2455 2.1433,40.2605 2.1483,40.2985 C2.5313,43.0915 7.8953,47.4435 12.8613,47.4515 C12.8903,47.4515 12.9083,47.4175 12.8903,47.3925 Z M7.8063,42.3285 C6.2473,39.4375 8.1113,35.0265 6.3423,30.7405 C6.3243,30.6955 6.2553,30.7065 6.2553,30.7545 C6.2033,33.0945 4.7493,36.5895 5.6283,39.2275 C5.6383,39.2515 5.6073,39.2645 5.5943,39.2435 C3.3553,35.9725 1.5783,35.2895 0.0983,32.2955 C0.0773,32.2505 0.0093,32.2625 0.0073,32.3105 C-0.0877,34.3455 0.8123,36.0045 1.8283,37.5455 C3.4523,39.6315 5.5443,41.2815 7.7573,42.3815 C7.7903,42.3975 7.8223,42.3625 7.8063,42.3285 Z M6.7493,24.7225 C6.7463,24.6745 6.6833,24.6585 6.6593,24.7005 C5.4703,26.9245 3.3533,28.6945 3.2843,31.6315 C3.2823,31.6605 3.2503,31.6625 3.2453,31.6355 C2.8593,29.3695 0.9353,26.8295 0.8513,23.5475 C0.8513,23.4975 0.7813,23.4845 0.7623,23.5315 C-0.8197,27.7995 1.4553,31.8455 3.8783,35.1885 C3.9043,35.2225 3.9563,35.2025 3.9563,35.1565 C3.8573,31.6145 6.9273,28.9705 6.7493,24.7225 Z M8.2603,19.2005 C7.1373,20.7605 4.6103,21.8625 3.6863,24.1135 C3.6733,24.1455 3.6343,24.1375 3.6393,24.1005 C4.0063,21.5785 3.0333,18.6505 3.9463,15.2995 C3.9593,15.2525 3.8993,15.2205 3.8693,15.2575 C2.4893,16.9555 2.0223,18.9455 1.9463,21.0955 C1.8513,23.7365 2.7813,25.6625 3.2403,27.4535 C3.2503,27.4965 3.3053,27.4935 3.3163,27.4505 C3.9773,25.1025 7.2973,23.6885 8.3363,19.2375 C8.3493,19.1905 8.2893,19.1605 8.2603,19.2005 Z M11.3073,13.9555 C9.4603,15.4035 6.6383,16.7985 6.0323,17.8055 C6.0223,17.8265 5.9903,17.8105 5.9953,17.7895 L6.6803,14.5025 C6.9883,13.1075 7.2523,11.7715 8.0243,10.5225 C8.0483,10.4855 8.0033,10.4425 7.9693,10.4695 C4.4523,13.2545 4.9673,17.2815 4.8123,20.5795 C4.8093,20.6145 4.8513,20.6305 4.8753,20.6065 C6.9463,18.3615 10.3213,17.0535 11.3653,14.0005 C11.3783,13.9635 11.3393,13.9315 11.3073,13.9555 Z M13.9243,8.9065 C10.8163,9.0055 8.5333,11.6225 7.5543,14.9545 C7.5493,14.9735 7.5753,14.9885 7.5913,14.9785 C11.8713,11.8405 11.6333,10.4955 13.9503,9.0025 C13.9923,8.9755 13.9733,8.9065 13.9243,8.9065 Z M49.7523,47.7195 C45.3873,49.6935 43.6353,48.5785 39.4673,49.3805 C39.4413,49.3885 39.4283,49.3505 39.4513,49.3385 C42.3573,47.7725 42.9033,45.2325 43.9103,43.5745 C43.9313,43.5435 43.8943,43.5035 43.8603,43.5215 C40.6643,45.0785 39.6163,48.6655 35.7883,49.5925 C35.7483,49.6005 35.7483,49.6545 35.7883,49.6655 C37.3993,50.0425 38.6173,50.7495 40.2963,50.8925 C44.9633,51.2855 48.3723,49.8615 49.8043,47.7785 C49.8283,47.7435 49.7893,47.7035 49.7523,47.7195 Z M54.4793,40.2745 C52.9303,42.4315 49.4503,43.2345 46.0653,45.8995 C46.0443,45.9155 46.0173,45.8915 46.0363,45.8675 C47.7503,43.5855 47.5633,40.4705 48.1913,37.7285 C48.1993,37.6915 48.1513,37.6685 48.1253,37.6975 C44.8453,41.4205 45.2573,45.4875 43.8053,47.3925 C43.7873,47.4175 43.8033,47.4515 43.8343,47.4515 C48.8003,47.4435 54.1613,43.0915 54.5443,40.2985 C54.5503,40.2605 54.5023,40.2455 54.4793,40.2745 Z M56.6863,32.3105 C56.6833,32.2625 56.6153,32.2505 56.5943,32.2955 C55.1143,35.2895 53.3373,35.9725 51.1013,39.2435 C51.0853,39.2645 51.0563,39.2515 51.0643,39.2275 C51.9443,36.5895 50.4923,33.0945 50.4373,30.7545 C50.4373,30.7065 50.3693,30.6955 50.3503,30.7405 C48.5823,35.0265 50.4453,39.4375 48.8883,42.3285 C48.8703,42.3625 48.9023,42.3975 48.9363,42.3815 C51.1483,41.2815 53.2403,39.6315 54.8653,37.5455 C55.8803,36.0045 56.7803,34.3455 56.6863,32.3105 Z M55.9303,23.5315 C55.9113,23.4845 55.8413,23.4975 55.8413,23.5475 C55.7573,26.8295 53.8333,29.3695 53.4473,31.6355 C53.4423,31.6625 53.4103,31.6605 53.4103,31.6315 C53.3423,28.6945 51.2223,26.9245 50.0333,24.7005 C50.0093,24.6585 49.9473,24.6745 49.9473,24.7225 C49.7683,28.9705 52.8363,31.6145 52.7363,35.1565 C52.7363,35.2025 52.7913,35.2225 52.8173,35.1885 C55.2373,31.8455 57.5123,27.7995 55.9303,23.5315 Z M54.7463,21.0955 C54.6703,18.9455 54.2033,16.9555 52.8233,15.2575 C52.7943,15.2205 52.7363,15.2525 52.7463,15.2995 C53.6603,18.6505 52.6863,21.5785 53.0563,24.1005 C53.0613,24.1375 53.0193,24.1455 53.0063,24.1135 C52.0833,21.8625 49.5553,20.7605 48.4323,19.2005 C48.4063,19.1605 48.3453,19.1905 48.3563,19.2375 C49.3953,23.6885 52.7153,25.1025 53.3763,27.4505 C53.3873,27.4935 53.4423,27.4965 53.4523,27.4535 C53.9123,25.6625 54.8413,23.7365 54.7463,21.0955 Z M48.7233,10.4695 C48.6893,10.4425 48.6453,10.4855 48.6683,10.5225 C49.4403,11.7715 49.7053,13.1075 50.0123,14.5025 L50.6973,17.7895 C50.7023,17.8105 50.6713,17.8265 50.6603,17.8055 C50.0543,16.7985 47.2353,15.4035 45.3853,13.9555 C45.3563,13.9315 45.3143,13.9635 45.3273,14.0005 C46.3723,17.0535 49.7473,18.3615 51.8183,20.6065 C51.8413,20.6305 51.8833,20.6145 51.8813,20.5795 C51.7263,17.2815 52.2403,13.2545 48.7233,10.4695 Z M42.7683,8.9065 C42.7193,8.9065 42.7033,8.9755 42.7423,9.0025 C45.0603,10.4955 44.8213,11.8405 49.1013,14.9785 C49.1203,14.9885 49.1433,14.9735 49.1383,14.9545 C48.1593,11.6225 45.8763,9.0055 42.7683,8.9065 Z" id="Fill-40" fill="#0A6EB4" mask="url(#mask-2)"></path>
        </g>
    </g>
</svg>