<svg width="57" height="20" viewBox="0 0 57 20" fill="none" xmlns="http://www.w3.org/2000/svg">
<path fill-rule="evenodd" clip-rule="evenodd" d="M47.303 9.61799H48.671C49.949 9.61799 50.906 9.36499 51.542 8.85799C52.176 8.35299 52.494 7.61699 52.494 6.65199C52.494 5.67699 52.227 4.95799 51.696 4.49299C51.163 4.02799 50.33 3.79299 49.194 3.79299H47.303V9.61799ZM56.693 6.50399C56.693 8.61499 56.033 10.23 54.714 11.346C53.395 12.466 51.519 13.024 49.087 13.024H47.303V20H43.144V0.385986H49.408C51.787 0.385986 53.595 0.897986 54.834 1.92399C56.074 2.94799 56.693 4.47399 56.693 6.50399ZM33.185 20H29.095V0.385986H40.336V3.79299H33.185V8.85299H39.84V12.247H33.185V20ZM21.572 20H16.836L14.18 9.69699C14.081 9.32999 13.914 8.57299 13.677 7.42299C13.44 6.27299 13.303 5.50199 13.268 5.10999C13.214 5.59299 13.08 6.36899 12.866 7.43699C12.7172 8.20322 12.5515 8.96608 12.369 9.72499L9.726 20H5.005L0 0.385986H4.092L6.601 11.092C7.039 13.069 7.356 14.782 7.553 16.231C7.607 15.721 7.729 14.931 7.922 13.864C8.114 12.794 8.295 11.963 8.466 11.375L11.322 0.385986H15.253L18.111 11.375C18.236 11.866 18.393 12.618 18.581 13.628C18.768 14.639 18.911 15.506 19.01 16.231C19.098 15.532 19.242 14.663 19.438 13.621C19.5945 12.7733 19.7739 11.93 19.976 11.092L22.47 0.385986H26.562L21.572 20Z" fill="#0A6EB4"/>
</svg>
