<svg width="57" height="95" viewBox="0 0 57 95" fill="none" xmlns="http://www.w3.org/2000/svg">
<path fill-rule="evenodd" clip-rule="evenodd" d="M12.912 94.333L11.142 88.564H11.097C11.16 89.738 11.192 90.521 11.192 90.913V94.333H9.79898V86.98H11.922L13.662 92.603H13.692L15.538 86.98H17.66V94.333H16.206V90.853C16.206 90.689 16.209 90.499 16.214 90.284C16.219 90.07 16.242 89.5 16.282 88.574H16.237L14.341 94.333H12.912ZM20.191 91.512C20.191 92.068 20.283 92.489 20.467 92.774C20.648 93.059 20.947 93.201 21.359 93.201C21.767 93.201 22.062 93.06 22.242 92.776C22.422 92.493 22.511 92.071 22.511 91.512C22.511 90.955 22.42 90.538 22.24 90.259C22.058 89.982 21.761 89.842 21.349 89.842C20.939 89.842 20.644 89.98 20.465 90.257C20.283 90.533 20.191 90.952 20.191 91.512ZM24.08 91.512C24.08 92.427 23.838 93.143 23.355 93.659C22.873 94.176 22.201 94.434 21.34 94.434C20.799 94.434 20.322 94.315 19.91 94.079C19.4981 93.843 19.167 93.4882 18.96 93.061C18.739 92.618 18.628 92.102 18.628 91.512C18.628 90.593 18.868 89.879 19.347 89.369C19.826 88.859 20.5 88.604 21.369 88.604C21.908 88.604 22.385 88.722 22.797 88.957C23.209 89.191 23.527 89.528 23.748 89.968C23.969 90.407 24.08 90.922 24.08 91.512ZM30.085 94.333H28.551V91.049C28.551 90.644 28.478 90.339 28.335 90.136C28.19 89.934 27.961 89.832 27.645 89.832C27.217 89.832 26.906 89.976 26.715 90.262C26.524 90.549 26.429 91.023 26.429 91.688V94.333H24.894V88.71H26.066L26.272 89.43H26.358C26.529 89.158 26.764 88.952 27.064 88.813C27.364 88.674 27.706 88.604 28.088 88.604C28.742 88.604 29.238 88.781 29.577 89.135C29.915 89.489 30.085 89.999 30.085 90.667V94.333ZM33.55 93.212C33.942 93.212 34.229 93.098 34.412 92.869C34.594 92.642 34.695 92.254 34.712 91.708V91.542C34.712 90.938 34.619 90.506 34.432 90.244C34.246 89.982 33.944 89.852 33.524 89.852C33.3645 89.8473 33.2066 89.8852 33.0666 89.9616C32.9266 90.038 32.8093 90.1503 32.727 90.287C32.538 90.577 32.443 90.999 32.443 91.552C32.443 92.105 32.539 92.52 32.73 92.797C32.921 93.073 33.194 93.212 33.55 93.212ZM33.012 94.434C32.351 94.434 31.832 94.177 31.455 93.664C31.078 93.151 30.889 92.44 30.889 91.531C30.889 90.609 31.081 89.892 31.465 89.377C31.849 88.862 32.378 88.604 33.051 88.604C33.76 88.604 34.3 88.88 34.672 89.43H34.722C34.6493 89.0603 34.6104 88.6847 34.606 88.308V86.508H36.145V94.333H34.968L34.672 93.604H34.606C34.258 94.157 33.725 94.434 33.012 94.434ZM37.264 94.333H38.798V88.71H37.264V94.333ZM37.199 87.257C37.199 86.757 37.477 86.508 38.034 86.508C38.591 86.508 38.869 86.757 38.869 87.257C38.869 87.495 38.8 87.68 38.66 87.812C38.521 87.945 38.312 88.011 38.034 88.011C37.477 88.011 37.199 87.76 37.199 87.257ZM43.031 91.728L42.437 91.748C41.992 91.762 41.66 91.842 41.442 91.989C41.223 92.137 41.115 92.361 41.115 92.663C41.115 93.096 41.363 93.313 41.859 93.313C42.215 93.313 42.499 93.21 42.712 93.005C42.925 92.801 43.031 92.529 43.031 92.191V91.728ZM43.483 94.333L43.187 93.568H43.146C42.889 93.894 42.623 94.119 42.349 94.245C42.076 94.371 41.72 94.434 41.281 94.434C40.741 94.434 40.316 94.279 40.006 93.971C39.696 93.662 39.541 93.224 39.541 92.653C39.541 92.057 39.75 91.616 40.167 91.333C40.585 91.05 41.214 90.893 42.055 90.862L43.031 90.833V90.586C43.031 90.017 42.739 89.731 42.156 89.731C41.707 89.731 41.178 89.867 40.572 90.139L40.063 89.103C40.7286 88.7599 41.4682 88.5855 42.217 88.595C42.971 88.595 43.549 88.759 43.951 89.088C44.353 89.416 44.554 89.916 44.554 90.586V94.333H43.483ZM45.65 94.333H47.184V86.508H45.65V94.333ZM4.67198 79.937C4.3921 79.0407 4.11443 78.1437 3.83898 77.246C3.78931 77.0831 3.74495 76.9187 3.70598 76.753C3.59498 77.182 3.27898 78.243 2.75498 79.937H4.67198ZM5.57698 82.994L5.04398 81.244H2.36298L1.82998 82.994H0.149978L2.74498 75.611H4.65098L7.25698 82.994H5.57698ZM7.76798 82.994H9.30198V75.169H7.76798V82.994ZM10.426 82.994H11.96V77.371H10.426V82.994ZM10.361 75.918C10.361 75.418 10.639 75.169 11.196 75.169C11.752 75.169 12.03 75.418 12.03 75.918C12.03 76.156 11.961 76.341 11.822 76.474C11.682 76.606 11.474 76.672 11.196 76.672C10.639 76.672 10.361 76.421 10.361 75.918ZM18.118 82.994H16.585V79.71C16.585 79.305 16.517 79 16.381 78.797C16.245 78.595 16.031 78.493 15.739 78.493C15.347 78.493 15.062 78.637 14.885 78.926C14.707 79.214 14.618 79.688 14.618 80.349V82.994H13.084V77.371H14.256L14.462 78.091H14.548C14.698 77.832 14.917 77.631 15.201 77.484C15.487 77.339 15.813 77.266 16.182 77.266C17.024 77.266 17.594 77.541 17.892 78.091H18.028C18.179 77.829 18.401 77.626 18.695 77.482C19.0045 77.3343 19.3441 77.2604 19.687 77.266C20.324 77.266 20.806 77.43 21.135 77.756C21.461 78.083 21.625 78.607 21.625 79.328V82.994H20.086V79.71C20.086 79.305 20.017 79 19.881 78.797C19.746 78.595 19.532 78.493 19.24 78.493C18.864 78.493 18.584 78.627 18.398 78.895C18.212 79.163 18.118 79.589 18.118 80.173V82.994ZM25.078 78.357C24.753 78.357 24.498 78.46 24.314 78.666C24.13 78.873 24.024 79.165 23.997 79.544H26.149C26.142 79.165 26.044 78.873 25.853 78.666C25.662 78.46 25.403 78.357 25.078 78.357ZM25.295 83.095C24.389 83.095 23.681 82.845 23.173 82.346C22.663 81.846 22.408 81.139 22.408 80.223C22.408 79.281 22.643 78.553 23.114 78.038C23.586 77.523 24.237 77.266 25.068 77.266C25.863 77.266 26.481 77.492 26.924 77.944C27.367 78.398 27.588 79.022 27.588 79.82V80.566H23.962C23.978 81.001 24.107 81.341 24.349 81.586C24.591 81.831 24.93 81.953 25.365 81.953C25.704 81.953 26.024 81.918 26.326 81.848C26.6518 81.7686 26.9684 81.6556 27.271 81.511V82.697C26.9985 82.8337 26.7094 82.9345 26.411 82.997C26.0434 83.0684 25.6694 83.1013 25.295 83.095ZM33.623 82.994H32.089V79.71C32.089 79.305 32.016 79 31.873 78.797C31.728 78.595 31.499 78.493 31.183 78.493C30.755 78.493 30.444 78.637 30.253 78.923C30.062 79.21 29.967 79.685 29.967 80.349V82.994H28.432V77.371H29.604L29.81 78.091H29.896C30.065 77.8202 30.3108 77.6058 30.602 77.475C30.902 77.335 31.244 77.266 31.626 77.266C32.28 77.266 32.776 77.442 33.115 77.796C33.453 78.15 33.623 78.66 33.623 79.328V82.994ZM37.077 81.873C37.345 81.873 37.667 81.814 38.042 81.696V82.838C37.66 83.009 37.19 83.095 36.634 83.095C36.02 83.095 35.574 82.939 35.294 82.63C35.014 82.319 34.874 81.854 34.874 81.234V78.524H34.139V77.874L34.984 77.361L35.426 76.175H36.408V77.371H37.982V78.524H36.408V81.234C36.408 81.452 36.468 81.613 36.592 81.717C36.7296 81.8257 36.9018 81.8811 37.077 81.873ZM41.948 80.389L41.354 80.409C40.909 80.423 40.577 80.503 40.359 80.65C40.14 80.798 40.032 81.023 40.032 81.324C40.032 81.757 40.28 81.974 40.776 81.974C41.132 81.974 41.416 81.871 41.629 81.666C41.842 81.462 41.948 81.19 41.948 80.852V80.389ZM42.4 82.994L42.104 82.229H42.063C41.806 82.555 41.54 82.78 41.266 82.906C40.993 83.032 40.638 83.095 40.198 83.095C39.658 83.095 39.233 82.94 38.923 82.632C38.613 82.323 38.458 81.885 38.458 81.314C38.458 80.718 38.667 80.277 39.084 79.994C39.502 79.711 40.131 79.554 40.972 79.523L41.948 79.494V79.247C41.948 78.678 41.656 78.393 41.073 78.393C40.624 78.393 40.096 78.528 39.489 78.8L38.98 77.764C39.6456 77.4209 40.3852 77.2465 41.134 77.256C41.887 77.256 42.466 77.42 42.868 77.749C43.27 78.077 43.472 78.577 43.472 79.247V82.994H42.4ZM44.556 82.994H46.09V77.371H44.556V82.994ZM44.491 75.918C44.491 75.418 44.769 75.169 45.326 75.169C45.883 75.169 46.161 75.418 46.161 75.918C46.161 76.156 46.092 76.341 45.952 76.474C45.813 76.606 45.604 76.672 45.326 76.672C44.769 76.672 44.491 76.421 44.491 75.918ZM50.353 77.266C50.56 77.266 50.733 77.281 50.871 77.311L50.756 78.749C50.6077 78.7131 50.4555 78.6963 50.303 78.699C49.813 78.699 49.431 78.825 49.158 79.076C48.885 79.328 48.749 79.68 48.749 80.133V82.994H47.215V77.371H48.377L48.602 78.316H48.678C48.852 78.002 49.088 77.748 49.385 77.555C49.681 77.362 50.004 77.266 50.353 77.266ZM53.76 78.357C53.435 78.357 53.181 78.46 52.997 78.666C52.812 78.873 52.707 79.165 52.68 79.544H54.832C54.825 79.165 54.726 78.873 54.536 78.666C54.345 78.46 54.086 78.357 53.76 78.357ZM53.977 83.095C53.072 83.095 52.364 82.845 51.855 82.346C51.346 81.846 51.091 81.139 51.091 80.223C51.091 79.281 51.326 78.553 51.797 78.038C52.268 77.523 52.92 77.266 53.751 77.266C54.546 77.266 55.164 77.492 55.606 77.944C56.05 78.398 56.27 79.022 56.27 79.82V80.566H52.644C52.661 81.001 52.79 81.341 53.032 81.586C53.273 81.831 53.612 81.953 54.048 81.953C54.387 81.953 54.707 81.918 55.009 81.848C55.31 81.777 55.625 81.665 55.954 81.511V82.697C55.681 82.8335 55.3917 82.9344 55.093 82.997C54.7254 83.0685 54.3514 83.1014 53.977 83.095ZM2.53498 67.764H3.04798C3.52798 67.764 3.88598 67.669 4.12398 67.479C4.36198 67.29 4.48098 67.015 4.48098 66.652C4.48098 66.287 4.38198 66.017 4.18198 65.843C3.98298 65.668 3.66998 65.581 3.24398 65.581H2.53498V67.764ZM6.05598 66.597C6.05598 67.388 5.80798 67.993 5.31398 68.412C4.81898 68.831 4.11598 69.041 3.20398 69.041H2.53498V71.656H0.975978V64.304H3.32498C4.21698 64.304 4.89498 64.495 5.35898 64.879C5.82298 65.264 6.05598 65.836 6.05598 66.597ZM9.94698 65.928C10.155 65.928 10.327 65.943 10.465 65.973L10.349 67.411C10.2011 67.3751 10.0492 67.3583 9.89698 67.361C9.40698 67.361 9.02598 67.487 8.75298 67.738C8.47898 67.99 8.34298 68.342 8.34298 68.795V71.656H6.80898V66.033H7.96998L8.19698 66.979H8.27198C8.44698 66.664 8.68198 66.41 8.97898 66.217C9.27598 66.025 9.59798 65.928 9.94698 65.928ZM12.253 68.835C12.253 69.392 12.344 69.813 12.527 70.098C12.71 70.382 13.008 70.525 13.42 70.525C13.829 70.525 14.123 70.383 14.302 70.1C14.482 69.816 14.572 69.395 14.572 68.835C14.572 68.278 14.481 67.861 14.3 67.582C14.119 67.305 13.822 67.165 13.41 67.165C13.001 67.165 12.706 67.304 12.525 67.58C12.344 67.856 12.253 68.275 12.253 68.835ZM16.141 68.835C16.141 69.75 15.899 70.466 15.417 70.983C14.934 71.499 14.261 71.757 13.4 71.757C12.86 71.757 12.384 71.639 11.971 71.402C11.5591 71.166 11.228 70.8112 11.021 70.384C10.8 69.941 10.689 69.425 10.689 68.835C10.689 67.916 10.928 67.202 11.408 66.692C11.887 66.183 12.562 65.928 13.43 65.928C13.97 65.928 14.446 66.045 14.858 66.28C15.271 66.515 15.588 66.852 15.809 67.291C16.03 67.731 16.141 68.245 16.141 68.835ZM18.094 67.874C18.094 68.18 18.164 68.421 18.303 68.599C18.442 68.776 18.654 68.865 18.939 68.865C19.227 68.865 19.439 68.776 19.573 68.599C19.707 68.421 19.773 68.18 19.773 67.874C19.773 67.197 19.495 66.858 18.939 66.858C18.376 66.858 18.094 67.197 18.094 67.874ZM17.536 72.451C17.536 72.662 17.638 72.828 17.84 72.949C18.043 73.069 18.327 73.13 18.693 73.13C19.243 73.13 19.674 73.055 19.985 72.903C20.297 72.753 20.453 72.547 20.453 72.285C20.453 72.073 20.361 71.928 20.176 71.848C19.992 71.767 19.707 71.727 19.322 71.727H18.527C18.245 71.727 18.01 71.793 17.82 71.926C17.7316 71.9818 17.6591 72.0594 17.6094 72.1514C17.5596 72.2433 17.5344 72.3465 17.536 72.451ZM21.877 66.033V66.814L20.996 67.039C21.156 67.291 21.238 67.572 21.238 67.885C21.238 68.488 21.027 68.958 20.607 69.295C20.185 69.632 19.601 69.801 18.854 69.801L18.577 69.785L18.351 69.76C18.193 69.881 18.114 70.015 18.114 70.162C18.114 70.384 18.396 70.494 18.959 70.494H19.915C20.531 70.494 21.002 70.627 21.326 70.892C21.648 71.156 21.81 71.546 21.81 72.059C21.81 72.716 21.537 73.226 20.988 73.588C20.441 73.949 19.653 74.131 18.627 74.131C17.843 74.131 17.243 73.994 16.829 73.721C16.415 73.447 16.208 73.064 16.208 72.571C16.1986 72.2574 16.3124 71.9527 16.525 71.722C16.736 71.494 17.046 71.331 17.455 71.233C17.291 71.1616 17.1489 71.0481 17.043 70.904C16.9312 70.7668 16.8692 70.5959 16.867 70.419C16.867 70.204 16.929 70.026 17.053 69.884C17.2087 69.7161 17.3903 69.5743 17.591 69.464C17.2982 69.3383 17.0525 69.1234 16.889 68.85C16.7118 68.5485 16.6224 68.2035 16.631 67.854C16.631 67.24 16.83 66.767 17.229 66.431C17.628 66.096 18.198 65.928 18.939 65.928C19.1267 65.9301 19.3141 65.9444 19.5 65.971C19.717 65.999 19.854 66.021 19.915 66.033H21.877ZM25.514 65.928C25.722 65.928 25.894 65.943 26.032 65.973L25.917 67.411C25.7687 67.3751 25.6165 67.3583 25.464 67.361C24.974 67.361 24.593 67.487 24.319 67.738C24.047 67.99 23.91 68.342 23.91 68.795V71.656H22.376V66.033H23.538L23.763 66.979H23.84C24.0081 66.6701 24.2508 66.4082 24.546 66.217C24.843 66.025 25.165 65.928 25.514 65.928ZM29.617 69.051L29.023 69.071C28.578 69.085 28.246 69.165 28.028 69.312C27.809 69.46 27.701 69.685 27.701 69.986C27.701 70.419 27.949 70.636 28.445 70.636C28.801 70.636 29.085 70.533 29.298 70.328C29.511 70.124 29.617 69.853 29.617 69.514V69.051ZM30.069 71.656L29.773 70.892H29.732C29.474 71.217 29.209 71.442 28.935 71.568C28.662 71.694 28.306 71.757 27.867 71.757C27.327 71.757 26.902 71.603 26.592 71.294C26.282 70.985 26.127 70.547 26.127 69.977C26.127 69.38 26.336 68.939 26.753 68.656C27.171 68.373 27.8 68.216 28.641 68.186L29.617 68.156V67.909C29.617 67.34 29.325 67.055 28.742 67.055C28.293 67.055 27.764 67.19 27.158 67.462L26.649 66.426C27.3142 66.0829 28.0535 65.9085 28.802 65.918C29.556 65.918 30.135 66.082 30.537 66.411C30.939 66.739 31.14 67.239 31.14 67.909V71.656H30.069ZM37.267 71.656H35.733V68.372C35.733 67.967 35.666 67.662 35.53 67.459C35.394 67.257 35.181 67.155 34.889 67.155C34.497 67.155 34.212 67.299 34.034 67.588C33.856 67.876 33.767 68.351 33.767 69.011V71.656H32.233V66.033H33.405L33.611 66.753H33.697C33.847 66.494 34.065 66.293 34.35 66.146C34.635 66.001 34.963 65.928 35.331 65.928C36.173 65.928 36.743 66.203 37.041 66.753H37.176C37.328 66.491 37.55 66.288 37.843 66.145C38.136 66 38.468 65.928 38.837 65.928C39.473 65.928 39.956 66.092 40.283 66.418C40.609 66.745 40.773 67.27 40.773 67.99V71.656H39.234V68.372C39.234 67.967 39.166 67.662 39.03 67.459C38.894 67.257 38.68 67.155 38.389 67.155C38.014 67.155 37.733 67.289 37.547 67.558C37.36 67.825 37.267 68.251 37.267 68.835V71.656ZM46.899 71.656H45.365V68.372C45.365 67.967 45.298 67.662 45.162 67.459C45.026 67.257 44.812 67.155 44.52 67.155C44.129 67.155 43.843 67.299 43.666 67.588C43.488 67.876 43.399 68.351 43.399 69.011V71.656H41.865V66.033H43.037L43.243 66.753H43.329C43.479 66.494 43.697 66.293 43.982 66.146C44.267 66.001 44.595 65.928 44.963 65.928C45.804 65.928 46.375 66.203 46.673 66.753H46.808C46.96 66.491 47.181 66.288 47.475 66.145C47.768 66 48.099 65.928 48.468 65.928C49.105 65.928 49.588 66.092 49.915 66.418C50.241 66.745 50.405 67.27 50.405 67.99V71.656H48.866V68.372C48.866 67.967 48.798 67.662 48.662 67.459C48.526 67.257 48.312 67.155 48.021 67.155C47.645 67.155 47.365 67.289 47.178 67.558C46.992 67.825 46.899 68.251 46.899 68.835V71.656ZM53.859 67.02C53.534 67.02 53.279 67.122 53.095 67.328C52.911 67.535 52.806 67.827 52.778 68.206H54.93C54.924 67.827 54.825 67.535 54.635 67.328C54.443 67.122 54.184 67.02 53.859 67.02ZM54.076 71.757C53.171 71.757 52.463 71.507 51.954 71.008C51.444 70.508 51.189 69.801 51.189 68.885C51.189 67.943 51.425 67.215 51.895 66.7C52.367 66.186 53.018 65.928 53.849 65.928C54.644 65.928 55.262 66.154 55.705 66.606C56.148 67.06 56.369 67.685 56.369 68.482V69.228H52.743C52.76 69.663 52.889 70.003 53.131 70.248C53.372 70.493 53.711 70.615 54.146 70.615C54.485 70.615 54.806 70.58 55.107 70.51C55.409 70.439 55.723 70.327 56.053 70.173V71.359C55.78 71.4955 55.4907 71.5964 55.192 71.659C54.8244 71.7304 54.4504 71.7633 54.076 71.757ZM35.847 4.48199H36.395C36.907 4.48199 37.29 4.38099 37.544 4.17899C37.798 3.97699 37.926 3.68199 37.926 3.29499C37.926 2.90499 37.819 2.61699 37.606 2.43099C37.393 2.24499 37.059 2.15099 36.604 2.15099H35.847V4.48199ZM39.607 3.23599C39.607 4.08099 39.343 4.72799 38.814 5.17499C38.286 5.62299 37.535 5.84699 36.561 5.84699H35.847V8.63999H34.182V0.786987H36.69C37.642 0.786987 38.367 0.991987 38.863 1.40199C39.359 1.81299 39.607 2.42299 39.607 3.23599ZM30.071 8.63999H28.433V0.786987H32.933V2.15099H30.071V4.17699H32.735V5.53499H30.071V8.63999ZM25.546 8.63999H23.65L22.586 4.51399C22.546 4.36799 22.479 4.06399 22.385 3.60399C22.3157 3.29809 22.261 2.98907 22.221 2.67799C22.199 2.87199 22.145 3.18199 22.06 3.60999C21.974 4.03699 21.907 4.34299 21.861 4.52499L20.803 8.63999H18.912L16.909 0.786987H18.547L19.551 5.07299C19.727 5.86399 19.854 6.54999 19.933 7.12999C19.954 6.92599 20.003 6.60999 20.08 6.18299C20.1364 5.84732 20.2092 5.51459 20.298 5.18599L21.442 0.786987H23.015L24.16 5.18599C24.21 5.38299 24.273 5.68399 24.348 6.08799C24.423 6.49299 24.48 6.83999 24.52 7.12999C24.555 6.85099 24.613 6.50199 24.691 6.08499C24.77 5.66899 24.842 5.33099 24.906 5.07299L25.905 0.786987H27.543L25.546 8.63999ZM21.473 35.952C18.422 35.952 16.463 36.677 15.929 36.901C15.897 36.915 15.872 36.87 15.896 36.846C19.249 33.36 23.174 33.553 24.118 33.553H35.28C35.842 33.553 36.298 34.09 36.298 34.753C36.298 35.415 35.842 35.952 35.28 35.952H21.473ZM23.987 39.037C20.7 39.037 19.741 37.169 14.765 38.402C14.731 38.411 14.708 38.364 14.738 38.345C17.511 36.441 20.529 36.614 21.748 36.614H35.28C35.842 36.614 36.298 37.151 36.298 37.813C36.298 38.476 35.842 39.013 35.28 39.013C35.28 39.013 26.591 39.037 23.987 39.037ZM24.221 42.074C20.846 42.074 20.576 39.584 15.574 39.023C15.539 39.02 15.535 38.968 15.57 38.959C19.678 37.932 21.207 39.675 23.607 39.675H35.28C35.842 39.675 36.298 40.212 36.298 40.874C36.298 41.537 35.842 42.074 35.28 42.074H24.221ZM23.489 32.892C20.772 32.892 18.52 34.076 17.993 34.375C17.964 34.392 17.934 34.356 17.953 34.329C18.394 33.681 20.773 30.492 24.864 30.492H35.28C35.842 30.492 36.298 31.029 36.298 31.692C36.298 32.354 35.842 32.892 35.28 32.892H23.489ZM38.429 26.267C38.3087 26.1506 38.1526 26.0783 37.986 26.062C37.8634 26.0451 37.7385 26.0596 37.623 26.104C37.671 26.006 37.71 25.9 37.726 25.775C37.7515 25.5994 37.7222 25.4202 37.642 25.262C37.306 24.526 38.266 23.054 38.146 22.987C38.03 22.924 37.484 24.547 36.954 25.204C36.842 25.3441 36.7729 25.5135 36.755 25.692C36.7336 25.8678 36.7638 26.046 36.842 26.205C36.915 26.338 37.028 26.431 37.159 26.439C37.1946 26.4439 37.2309 26.4422 37.266 26.434C37.2582 26.4527 37.2521 26.4721 37.248 26.492C37.2393 26.5633 37.2477 26.6356 37.2724 26.703C37.2971 26.7705 37.3374 26.8311 37.39 26.88C37.508 26.9988 37.6642 27.0722 37.831 27.087C38.001 27.1117 38.1744 27.0794 38.324 26.995C39.043 26.601 40.534 26.213 40.502 26.075C40.473 25.937 39.02 26.79 38.429 26.267ZM39.529 25.193C39.4227 25.0785 39.2776 25.0076 39.122 24.994C39.0307 24.9887 38.9393 25.0031 38.854 25.036C38.868 24.991 38.886 24.951 38.891 24.906C38.9101 24.7446 38.8742 24.5814 38.789 24.443C38.424 23.766 39.377 22.488 39.253 22.424C39.13 22.36 38.608 23.792 38.077 24.358C37.9634 24.4724 37.894 24.6233 37.881 24.784C37.864 24.9456 37.8986 25.1084 37.98 25.249C38.0172 25.3087 38.0667 25.3599 38.1251 25.3992C38.1835 25.4385 38.2496 25.465 38.319 25.477C38.3791 25.4807 38.4394 25.4736 38.497 25.456C38.495 25.464 38.487 25.475 38.489 25.482C38.4835 25.5546 38.4931 25.6275 38.5172 25.6961C38.5413 25.7648 38.5794 25.8278 38.629 25.881C38.7352 25.9931 38.879 26.0622 39.033 26.075C39.1869 26.0921 39.3416 26.0503 39.466 25.958C40.085 25.512 41.502 25.246 41.466 25.103C41.431 24.964 40.075 25.714 39.529 25.193ZM40.492 24.199C40.3799 24.1169 40.241 24.0802 40.103 24.096C40.0351 24.1 39.9685 24.117 39.907 24.146C39.917 24.117 39.935 24.093 39.946 24.063C39.9837 23.9208 39.9756 23.7703 39.923 23.633C39.692 22.969 40.715 21.986 40.616 21.906C40.515 21.832 39.851 23.022 39.306 23.442C39.1911 23.5304 39.1097 23.6552 39.075 23.796C39.0322 23.9364 39.0396 24.0874 39.096 24.223C39.1187 24.2823 39.1543 24.3359 39.2001 24.38C39.2459 24.4241 39.3008 24.4575 39.361 24.478C39.4511 24.5025 39.5472 24.4933 39.631 24.452C39.6109 24.5063 39.603 24.5643 39.608 24.622C39.621 24.757 39.686 24.872 39.794 24.951C39.896 25.031 40.035 25.071 40.179 25.06C40.3187 25.0476 40.4492 24.9855 40.547 24.885C41.038 24.388 42.261 23.923 42.211 23.803C42.159 23.684 41.059 24.568 40.492 24.199ZM42.387 22.065C42.285 21.914 41.429 22.852 40.796 22.942C40.661 22.9633 40.5357 23.0254 40.437 23.12C40.328 23.2146 40.2511 23.3408 40.217 23.481C40.2009 23.5357 40.1974 23.5934 40.2067 23.6497C40.2161 23.706 40.238 23.7594 40.271 23.806C40.3078 23.8479 40.3546 23.8799 40.407 23.8989C40.4594 23.918 40.5158 23.9235 40.571 23.915C40.7085 23.8949 40.836 23.8315 40.935 23.734C41.0397 23.6386 41.1147 23.515 41.151 23.378C41.342 22.735 42.463 22.164 42.387 22.065ZM24.693 23.335C24.667 23.429 24.483 24.151 24.483 24.151C24.431 24.181 24.21 24.133 24.152 24.127C23.73 24.087 23.352 23.721 23.514 23.282C23.647 22.924 23.918 22.886 24.263 22.871C24.405 22.864 24.662 22.898 24.791 22.987C24.791 22.987 24.74 23.152 24.693 23.335ZM24.207 25.517C24.195 25.6 24.181 25.682 24.168 25.764C23.906 25.6 23.751 25.222 23.877 24.924C23.974 24.699 24.215 24.639 24.391 24.629C24.327 24.9244 24.2656 25.2204 24.207 25.517ZM23.829 28.214C23.797 28.399 23.546 28.424 23.376 28.475C22.88 28.623 22.41 28.56 22.258 27.967C22.092 27.332 22.573 27.066 23.087 26.941C23.368 26.875 23.628 26.931 23.819 27.167C23.867 27.226 23.924 27.279 23.937 27.335C23.937 27.335 23.861 28.04 23.829 28.214ZM22.268 25.092C22.651 24.999 23.048 24.855 23.342 25.233C23.651 25.628 23.549 26.264 23.05 26.431C22.722 26.542 22.326 26.638 22.045 26.37C21.677 26.019 21.704 25.222 22.268 25.092ZM21.893 23.035C22.297 22.937 22.714 22.788 23.024 23.184C23.347 23.599 23.239 24.268 22.717 24.443C22.37 24.558 21.953 24.659 21.659 24.377C21.273 24.01 21.302 23.173 21.893 23.035ZM21.517 27.48C21.412 27.85 21.108 27.906 20.788 27.983C20.578 27.725 20.014 27.074 20.005 26.997C20.0017 26.9665 20.0055 26.9357 20.016 26.907C20.043 26.83 20.132 26.755 20.197 26.713C20.389 26.588 20.798 26.495 21.019 26.54C21.415 26.625 21.622 27.109 21.517 27.48ZM19.513 25.581C19.224 24.558 20.94 24.111 21.205 25.116C21.478 26.147 19.746 26.585 19.513 25.581ZM19.26 23.538C18.967 22.52 20.691 22.073 20.956 23.072C21.229 24.106 19.494 24.544 19.26 23.538ZM19.019 21.529C18.738 20.58 20.358 20.16 20.604 21.096C20.859 22.058 19.239 22.472 19.019 21.529ZM18.854 25.395C18.774 25.442 18.744 25.467 18.718 25.467L17.947 24.629C17.956 24.606 18.195 24.433 18.274 24.388C18.914 24.032 19.442 25.049 18.854 25.395ZM17.392 23.508C17.011 22.668 18.397 21.757 18.817 22.663C19.203 23.498 17.817 24.425 17.392 23.508ZM18.557 20.849C18.995 21.627 17.676 22.496 17.298 21.659C16.962 20.936 18.135 20.094 18.557 20.849ZM17.449 19.034C17.644 18.862 17.869 18.768 18.1 18.879C18.471 19.058 18.481 19.613 18.158 19.833C18.011 19.935 17.762 20.059 17.581 20.014C17.184 19.913 17.109 19.335 17.449 19.034ZM17.499 17.365C17.659 17.257 17.872 17.16 18.056 17.235C18.39 17.371 18.379 17.856 18.108 18.05C17.985 18.138 17.762 18.247 17.613 18.207C17.274 18.122 17.191 17.574 17.499 17.365ZM18.386 14.987C18.585 14.879 18.872 14.835 19.051 15.035C19.0996 15.0883 19.1353 15.1521 19.1552 15.2214C19.1751 15.2907 19.1787 15.3638 19.1657 15.4347C19.1528 15.5057 19.1236 15.5727 19.0804 15.6305C19.0373 15.6883 18.9813 15.7354 18.917 15.768C18.704 15.875 18.418 15.914 18.25 15.717C18.2042 15.6627 18.1711 15.5989 18.1529 15.5302C18.1348 15.4615 18.1322 15.3896 18.1452 15.3198C18.1582 15.25 18.1865 15.1839 18.2282 15.1263C18.2698 15.0688 18.3237 15.0212 18.386 14.987ZM18.229 16.793C18.069 16.198 19.072 15.917 19.234 16.522C19.415 17.11 18.389 17.402 18.229 16.793ZM19.846 17.833C20.079 18.476 18.99 18.84 18.778 18.205C18.56 17.562 19.654 17.195 19.846 17.833ZM19.982 14.7C20.19 14.616 20.456 14.527 20.688 14.7C20.977 14.916 20.914 15.401 20.583 15.553C20.365 15.651 20.087 15.717 19.893 15.545C19.646 15.324 19.633 14.84 19.982 14.7ZM19.791 20.081C19.497 20.149 19.19 20.267 18.946 20.014C18.633 19.692 18.722 19.129 19.145 18.975C19.418 18.872 19.764 18.813 19.988 19.041C20.274 19.334 20.242 19.972 19.791 20.081ZM19.796 16.796C19.607 16.159 20.646 15.832 20.846 16.451C21.05 17.086 19.974 17.423 19.796 16.796ZM21.536 17.965C21.78 18.693 20.549 19.082 20.323 18.364C20.095 17.631 21.334 17.243 21.536 17.965ZM21.601 16.015C21.818 15.957 22.048 15.978 22.213 16.156C22.465 16.427 22.378 16.889 22.006 16.958C21.83 16.99 21.559 16.977 21.423 16.857C21.176 16.64 21.188 16.126 21.601 16.015ZM22.651 17.543C23.048 17.543 23.247 18.125 23.016 18.415C22.877 18.59 22.578 18.601 22.373 18.569C21.995 18.51 21.754 18.024 22.008 17.694C22.163 17.495 22.428 17.543 22.651 17.543ZM20.748 19.94C20.505 19.103 21.927 18.728 22.145 19.56C22.365 20.405 20.935 20.777 20.748 19.94ZM21.62 21.011C22.008 20.971 22.412 20.88 22.651 21.287C22.901 21.717 22.714 22.315 22.21 22.416C21.88 22.485 21.478 22.517 21.242 22.225C20.932 21.837 21.055 21.063 21.62 21.011ZM23.594 19.146C24.074 19.344 24.237 19.911 23.898 20.227C23.717 20.392 23.386 20.359 23.163 20.314C22.717 20.227 22.426 19.556 22.817 19.238C23.017 19.075 23.376 19.056 23.594 19.146ZM24.349 21.165C24.651 21.534 24.538 22.187 24.011 22.22C23.735 22.235 23.376 22.204 23.189 21.978C22.89 21.616 23.003 20.939 23.53 20.92C23.806 20.91 24.163 20.939 24.349 21.165ZM26.389 14.5C26.3749 14.4785 26.3542 14.4621 26.3302 14.4531C26.3061 14.4441 26.2797 14.443 26.255 14.45C26.192 14.471 26.15 14.541 26.173 14.602C27.378 17.838 25.84 19.432 25.197 21.699C24.425 19.857 26.982 18.125 25.664 14.769C25.6559 14.7475 25.6425 14.7284 25.625 14.7135C25.6075 14.6986 25.5865 14.6885 25.564 14.684C25.499 14.676 25.436 14.703 25.425 14.79C25.391 15.027 25.236 16.887 23.727 17.976C23.5665 17.5906 23.327 17.2431 23.024 16.956C22.885 16.329 22.475 15.468 21.615 15.213C21.486 14.889 21.226 14.423 20.727 14.174C20.258 13.94 19.715 13.961 19.111 14.235C18.381 14.32 17.88 14.604 17.615 15.08C17.365 15.529 17.41 16.018 17.494 16.35C16.88 17.006 16.851 17.979 16.867 18.359C16.502 19.235 16.707 20.259 16.822 20.684C16.387 21.874 16.812 23.03 16.983 23.413C16.983 23.516 16.988 23.615 16.993 23.713C15.565 22.15 12.316 20.216 11.075 19.478C11.0468 19.4608 11.0137 19.4535 10.9809 19.4573C10.9481 19.4611 10.9175 19.4758 10.894 19.499C10.879 19.5126 10.8669 19.5291 10.8584 19.5474C10.8499 19.5657 10.8451 19.5856 10.8444 19.6058C10.8436 19.626 10.8469 19.6462 10.8541 19.6651C10.8612 19.684 10.8721 19.7013 10.886 19.716C13.655 22.416 16.124 25.748 18.497 32.662C19.681 31.432 21.819 29.813 24.864 29.813H28.425C26.163 21.385 29.456 18.369 26.389 14.5ZM43.224 18.858C42.573 18.688 38.416 17.952 33.758 26.521C34.437 23.33 36.503 19.469 37.07 18.348V18.34C37.086 18.3082 37.0905 18.2718 37.0829 18.237C37.0753 18.2022 37.0559 18.1712 37.028 18.149C37.0134 18.1387 36.9969 18.1314 36.9794 18.1276C36.962 18.1237 36.944 18.1234 36.9264 18.1265C36.9088 18.1297 36.892 18.1363 36.877 18.146C36.862 18.1557 36.8491 18.1683 36.839 18.183C33.761 23.317 32.679 26.274 32.041 29.813H33.971C34.298 26.402 38.608 18.364 43.201 18.962H43.205C43.2111 18.963 43.2174 18.9627 43.2234 18.9612C43.2294 18.9597 43.2351 18.957 43.24 18.9533C43.245 18.9496 43.2491 18.9449 43.2522 18.9395C43.2553 18.9341 43.2572 18.9281 43.258 18.922C43.2601 18.9156 43.2609 18.9088 43.2604 18.902C43.2598 18.8952 43.2579 18.8887 43.2547 18.8827C43.2515 18.8767 43.2472 18.8714 43.2419 18.8672C43.2366 18.8629 43.2305 18.8598 43.224 18.858ZM33.962 47.091L32.921 42.735H31.146C31.427 43.841 31.829 44.965 32.348 45.95C32.383 46.009 32.446 46.044 32.509 46.033C32.5301 46.0294 32.5504 46.0216 32.5685 46.0101C32.5867 45.9986 32.6024 45.9837 32.6148 45.9661C32.6271 45.9486 32.6359 45.9287 32.6406 45.9078C32.6452 45.8868 32.6457 45.8651 32.642 45.844C32.522 44.922 32.377 44.032 32.241 43.145C32.616 44.539 33.122 45.902 33.805 47.157C33.824 47.196 33.863 47.215 33.899 47.202C33.95 47.191 33.975 47.139 33.962 47.091ZM35.755 45.113C35.574 44.386 35.385 43.492 35.222 42.735H34.548C34.81 43.543 35.164 44.444 35.479 45.215C35.511 45.289 35.582 45.326 35.65 45.308C35.6891 45.2951 35.7218 45.2677 35.7413 45.2314C35.7609 45.1951 35.7658 45.1528 35.755 45.113ZM35.981 47.675L35.975 47.664C35.758 47.056 35.456 46.511 35.217 45.927C34.9576 45.3506 34.7221 44.7638 34.511 44.168C34.3306 43.6962 34.1668 43.2183 34.02 42.735H33.369C33.553 43.28 33.792 43.867 34.015 44.394C34.506 45.581 35.072 46.745 35.794 47.786C35.8076 47.805 35.8273 47.8189 35.8498 47.8253C35.8724 47.8316 35.8964 47.8301 35.918 47.821C35.975 47.8 36.002 47.733 35.981 47.675ZM36.954 26.774C36.905 26.7 36.784 26.684 36.726 26.745C35.8697 27.6617 35.1469 28.6945 34.579 29.813H35.283C35.634 28.987 36.426 27.528 36.936 27.003L36.941 26.997C36.993 26.938 37.004 26.84 36.954 26.774ZM31.6 20.729C32.251 19.661 33.217 18.842 34.036 17.854C34.05 17.8352 34.057 17.812 34.0555 17.7885C34.054 17.7651 34.0443 17.7429 34.028 17.726C34.0204 17.7181 34.0113 17.7117 34.0013 17.7073C33.9912 17.7029 33.9804 17.7005 33.9694 17.7004C33.9584 17.7002 33.9475 17.7022 33.9373 17.7062C33.9271 17.7103 33.9178 17.7163 33.91 17.724C33.723 17.923 33.53 18.109 33.33 18.295C33.243 18.252 33.023 18.337 32.8 18.513C32.624 18.651 32.498 18.805 32.453 18.916C32.341 18.89 32.128 19.023 31.936 19.268C31.779 19.472 31.687 19.688 31.69 19.82C31.569 19.831 31.393 19.985 31.243 20.229C31.146 20.392 31.083 20.548 31.062 20.678C30.9377 20.7756 30.8329 20.8957 30.753 21.032C30.619 21.255 30.551 21.481 30.572 21.611C30.54 21.667 30.509 21.72 30.483 21.776L30.498 21.643C30.69 20.131 30.968 18.632 31.39 17.187C31.816 15.747 32.325 14.294 33.198 13.127L33.204 13.122C33.226 13.0905 33.2365 13.0524 33.2335 13.0141C33.2306 12.9758 33.2145 12.9397 33.188 12.912C33.1753 12.8975 33.1598 12.8858 33.1423 12.8777C33.1249 12.8696 33.1059 12.8652 33.0866 12.8649C33.0674 12.8647 33.0483 12.8684 33.0306 12.876C33.0129 12.8836 32.997 12.8948 32.984 12.909C32.682 13.23 32.427 13.589 32.199 13.958C32.099 13.905 31.889 14.102 31.729 14.41C31.582 14.689 31.53 14.947 31.585 15.046C31.585 15.046 31.582 15.053 31.577 15.051C31.472 15.005 31.278 15.239 31.16 15.553C31.044 15.848 31.023 16.119 31.102 16.209C31.097 16.214 31.097 16.217 31.094 16.222C30.976 16.18 30.785 16.448 30.666 16.828C30.569 17.15 30.558 17.429 30.629 17.541C30.635 17.545 30.629 17.559 30.624 17.556C30.503 17.514 30.32 17.79 30.212 18.167C30.104 18.531 30.113 18.853 30.215 18.916C30.096 18.903 29.931 19.18 29.845 19.554C29.766 19.878 29.774 20.158 29.85 20.269C29.735 20.304 29.606 20.575 29.54 20.925C29.477 21.268 29.509 21.553 29.593 21.643C29.485 21.699 29.375 21.978 29.336 22.323C29.296 22.666 29.346 22.948 29.435 23.038C29.346 23.139 29.26 23.378 29.223 23.665C29.186 23.938 29.21 24.175 29.262 24.308C29.165 24.391 29.092 24.667 29.089 24.999C29.081 25.265 29.12 25.49 29.189 25.621C29.136 25.753 29.099 25.948 29.099 26.163C29.094 26.442 29.139 26.681 29.21 26.806C29.189 27.786 29.202 28.831 29.254 29.813H31.372C31.3892 29.0261 31.4365 28.2402 31.514 27.457C31.663 26.107 31.887 24.736 32.561 23.583L32.566 23.575C32.5771 23.5549 32.5818 23.5318 32.5795 23.509C32.5771 23.4861 32.5679 23.4645 32.553 23.447C32.544 23.4385 32.5334 23.432 32.5219 23.4278C32.5103 23.4237 32.498 23.4219 32.4857 23.4226C32.4735 23.4234 32.4615 23.4266 32.4505 23.4322C32.4395 23.4378 32.4298 23.4455 32.422 23.455C31.506 24.518 31.104 25.961 30.868 27.345C30.826 27.616 30.792 27.89 30.761 28.161C30.818 27.05 30.921 25.945 31.175 24.893C31.467 23.612 32.049 22.392 33.159 21.709C33.177 21.6976 33.1907 21.6804 33.1977 21.6602C33.2048 21.6401 33.2049 21.6182 33.198 21.598C33.1953 21.5864 33.1903 21.5755 33.1833 21.5658C33.1764 21.5562 33.1676 21.548 33.1575 21.5417C33.1473 21.5355 33.136 21.5314 33.1243 21.5295C33.1125 21.5277 33.1005 21.5282 33.089 21.531C33.018 21.553 32.952 21.59 32.884 21.619C32.81 21.529 32.54 21.595 32.262 21.773C31.997 21.946 31.821 22.158 31.839 22.275C31.839 22.281 31.826 22.289 31.826 22.278C31.824 22.265 31.821 22.251 31.813 22.244C31.713 22.161 31.446 22.347 31.22 22.663C30.992 22.979 30.902 23.309 30.999 23.394C31.005 23.396 31.002 23.405 30.997 23.405C30.879 23.357 30.682 23.625 30.558 24C30.469 24.263 30.449 24.505 30.48 24.643C30.48 24.648 30.474 24.653 30.474 24.653C30.383 24.957 30.306 25.262 30.236 25.573C30.262 25.134 30.301 24.693 30.364 24.258C30.551 23.003 30.929 21.776 31.6 20.729ZM38.264 17.232C38.1108 17.1651 37.9395 17.1521 37.778 17.195C37.6579 17.2257 37.5467 17.2839 37.453 17.365C37.4689 17.2498 37.4624 17.1327 37.434 17.02C37.3999 16.847 37.3116 16.6894 37.182 16.57C36.611 15.999 37.004 14.28 36.87 14.259C36.739 14.24 36.786 15.954 36.516 16.756C36.4584 16.9267 36.4518 17.1105 36.497 17.285C36.5368 17.4584 36.6278 17.6158 36.758 17.737C36.87 17.835 37.007 17.88 37.135 17.84C37.1702 17.8338 37.2034 17.8194 37.232 17.798C37.232 17.819 37.232 17.84 37.235 17.862C37.264 18.002 37.364 18.112 37.5 18.175C37.6531 18.2448 37.8261 18.2579 37.988 18.212C38.1554 18.1749 38.3059 18.0835 38.416 17.952C38.954 17.328 40.219 16.437 40.143 16.318C40.067 16.201 38.999 17.514 38.264 17.232ZM40.71 15.066C40.628 14.95 39.616 16.132 38.925 15.837C38.785 15.7677 38.6245 15.7524 38.474 15.794C38.3872 15.822 38.3069 15.8673 38.238 15.927C38.235 15.879 38.238 15.837 38.227 15.794C38.1905 15.6358 38.1004 15.4952 37.972 15.396C37.395 14.891 37.849 13.355 37.713 13.339C37.574 13.323 37.576 14.851 37.277 15.569C37.2101 15.7155 37.1974 15.881 37.241 16.036C37.2777 16.1946 37.3672 16.336 37.495 16.437C37.5501 16.48 37.6138 16.5106 37.6818 16.5268C37.7497 16.543 37.8204 16.5444 37.889 16.531C37.947 16.5135 38.0013 16.4853 38.049 16.448C38.049 16.456 38.046 16.467 38.049 16.475C38.091 16.621 38.19 16.735 38.319 16.802C38.4583 16.8676 38.6167 16.8807 38.765 16.839C38.9142 16.7996 39.044 16.7072 39.13 16.579C39.557 15.938 40.791 15.189 40.71 15.066ZM40.959 13.587C40.87 13.494 40.143 14.71 39.484 14.564C39.3506 14.5277 39.2085 14.542 39.085 14.604C39.0224 14.6326 38.9655 14.6723 38.917 14.721C38.917 14.692 38.925 14.663 38.925 14.631C38.9129 14.4846 38.8532 14.3462 38.755 14.237C38.311 13.695 38.928 12.412 38.81 12.372C38.689 12.337 38.479 13.688 38.112 14.275C38.0334 14.3971 37.9998 14.5428 38.017 14.687C38.0267 14.8342 38.0859 14.9737 38.185 15.083C38.28 15.181 38.395 15.234 38.521 15.226C38.6146 15.2184 38.7018 15.1755 38.765 15.106C38.765 15.164 38.7776 15.2213 38.802 15.274C38.86 15.396 38.962 15.481 39.088 15.516C39.211 15.556 39.358 15.545 39.489 15.481C39.615 15.4201 39.7156 15.3167 39.773 15.189C40.061 14.548 41.046 13.68 40.959 13.587ZM40.523 11.896C40.374 11.79 39.899 12.973 39.335 13.281C39.2154 13.3493 39.1192 13.4521 39.059 13.576C38.9916 13.7029 38.9641 13.8472 38.98 13.99C38.993 14.115 39.051 14.222 39.143 14.275C39.1912 14.3021 39.2456 14.3161 39.3009 14.3155C39.3562 14.315 39.4103 14.3 39.458 14.272C39.58 14.2043 39.6782 14.1006 39.739 13.975C39.8038 13.8475 39.8312 13.7044 39.818 13.562C39.776 12.893 40.628 11.963 40.523 11.896ZM30.165 42.735H24.221C23.8514 42.7376 23.4823 42.7075 23.118 42.645C24.094 44.096 25.625 45.196 27.176 45.935C27.414 47.258 27.714 48.482 27.822 48.578C27.931 48.674 29.454 48.235 29.501 48.095C29.546 47.954 28.879 45.687 28.879 45.687C29.68 44.313 29.926 43.503 30.165 42.735ZM45.119 52.904C43.618 53.497 41.66 53.547 40.061 53.122C36.401 51.982 32.335 49.822 28.433 51.615C24.53 49.822 20.465 51.982 16.804 53.122C15.206 53.547 13.248 53.497 11.747 52.904C11.7384 52.9012 11.7291 52.9015 11.7207 52.9049C11.7123 52.9082 11.7053 52.9144 11.7009 52.9223C11.6965 52.9302 11.6951 52.9394 11.6967 52.9483C11.6984 52.9571 11.7031 52.9652 11.71 52.971C13.87 54.642 16.896 55.41 19.62 54.427C22.237 53.611 24.449 50.84 27.549 52.022C25.095 52.981 22.801 54.751 21.03 56.422L22.318 57.479C23.926 55.606 25.738 53.733 27.787 52.594C28.068 52.429 28.236 52.362 28.433 52.352C28.63 52.362 28.798 52.429 29.076 52.594C31.128 53.733 32.939 55.606 34.548 57.479L35.836 56.422C34.065 54.751 31.771 52.981 29.317 52.022C32.417 50.84 34.629 53.611 37.245 54.427C39.97 55.41 42.995 54.642 45.155 52.971C45.19 52.941 45.161 52.889 45.119 52.904ZM20.99 50.38C17.163 49.452 16.117 45.865 12.917 44.309C12.883 44.29 12.846 44.33 12.868 44.361C13.875 46.02 14.421 48.56 17.326 50.125C17.35 50.138 17.337 50.176 17.31 50.167C13.143 49.365 11.392 50.48 7.02598 48.507C6.98898 48.49 6.94898 48.53 6.97298 48.565C8.40798 50.648 11.815 52.072 16.481 51.68C18.161 51.536 19.379 50.829 20.99 50.452C21.03 50.441 21.03 50.388 20.99 50.38ZM12.975 48.18C11.521 46.274 11.936 42.207 8.65298 38.484C8.62598 38.455 8.57898 38.479 8.58698 38.516C9.21398 41.258 9.02798 44.372 10.744 46.654C10.76 46.679 10.737 46.702 10.713 46.687C7.32698 44.021 3.84698 43.219 2.29898 41.062C2.27498 41.032 2.22798 41.048 2.23298 41.085C2.61598 43.878 7.98098 48.23 12.946 48.238C12.9527 48.2381 12.9594 48.2363 12.9652 48.2327C12.971 48.2292 12.9757 48.2241 12.9787 48.2181C12.9817 48.212 12.983 48.2052 12.9823 48.1985C12.9817 48.1918 12.9791 48.1853 12.975 48.18ZM7.89098 43.115C6.33298 40.225 8.19598 35.813 6.42698 31.527C6.40898 31.482 6.34098 31.493 6.34098 31.541C6.28798 33.882 4.83398 37.376 5.71298 40.015C5.72398 40.038 5.69198 40.052 5.67898 40.03C3.44098 36.76 1.66398 36.076 0.183978 33.082C0.162978 33.037 0.0949778 33.05 0.0919778 33.098C-0.00302222 35.133 0.897978 36.791 1.91298 38.332C3.50579 40.3642 5.53114 42.0161 7.84198 43.168C7.87598 43.185 7.90698 43.149 7.89098 43.115ZM6.83398 25.509C6.83098 25.461 6.76798 25.445 6.74498 25.488C5.55598 27.712 3.43798 29.481 3.36998 32.418C3.36698 32.447 3.33598 32.449 3.32998 32.423C2.94498 30.156 1.02098 27.616 0.936978 24.334C0.936978 24.284 0.865978 24.271 0.846978 24.319C-0.735022 28.586 1.53998 32.633 3.96298 35.976C3.98898 36.01 4.04198 35.989 4.04198 35.943C3.94198 32.401 7.01198 29.758 6.83398 25.509ZM8.34498 19.987C7.22198 21.547 4.69498 22.65 3.77098 24.9C3.75798 24.933 3.71898 24.924 3.72398 24.887C4.09198 22.366 3.11798 19.437 4.03098 16.087C4.04398 16.039 3.98398 16.007 3.95498 16.044C2.57398 17.742 2.10698 19.732 2.03198 21.882C1.93698 24.523 2.86598 26.45 3.32498 28.241C3.33598 28.283 3.39098 28.28 3.40098 28.238C4.06298 25.889 7.38298 24.476 8.42198 20.025C8.43498 19.977 8.37398 19.948 8.34498 19.987ZM11.392 14.742C9.54498 16.19 6.72398 17.585 6.11798 18.593C6.10698 18.614 6.07498 18.598 6.08098 18.577L6.76598 15.29C7.07198 13.895 7.33798 12.558 8.10998 11.309C8.13298 11.272 8.08798 11.229 8.05398 11.256C4.53698 14.041 5.05198 18.069 4.89698 21.367C4.89398 21.401 4.93598 21.417 4.95998 21.393C7.03098 19.148 10.406 17.84 11.45 14.788C11.463 14.751 11.424 14.718 11.392 14.742ZM14.009 9.69399C10.902 9.79199 8.61798 12.409 7.63898 15.741C7.63498 15.76 7.65998 15.776 7.67698 15.765C11.957 12.627 11.718 11.283 14.035 9.78999C14.077 9.76299 14.059 9.69399 14.009 9.69399ZM49.838 48.507C45.473 50.48 43.72 49.365 39.553 50.167C39.526 50.176 39.513 50.138 39.537 50.125C42.442 48.56 42.988 46.02 43.995 44.361C44.016 44.33 43.98 44.29 43.946 44.309C40.749 45.865 39.702 49.452 35.873 50.38C35.834 50.388 35.834 50.441 35.873 50.452C37.484 50.829 38.702 51.536 40.382 51.68C45.048 52.072 48.457 50.648 49.89 48.565C49.913 48.53 49.874 48.49 49.838 48.507ZM54.564 41.062C53.015 43.219 49.535 44.021 46.15 46.687C46.129 46.702 46.103 46.679 46.121 46.654C47.835 44.372 47.649 41.258 48.276 38.516C48.284 38.479 48.237 38.455 48.21 38.484C44.93 42.207 45.342 46.274 43.89 48.18C43.8858 48.1853 43.8833 48.1918 43.8826 48.1985C43.882 48.2052 43.8832 48.212 43.8863 48.2181C43.8893 48.2241 43.894 48.2292 43.8998 48.2327C43.9055 48.2363 43.9122 48.2381 43.919 48.238C48.885 48.23 54.246 43.878 54.63 41.085C54.635 41.048 54.588 41.032 54.564 41.062ZM56.771 33.098C56.768 33.05 56.7 33.037 56.679 33.082C55.199 36.076 53.422 36.76 51.186 40.03C51.171 40.052 51.142 40.038 51.15 40.015C52.029 37.376 50.577 33.882 50.522 31.541C50.522 31.493 50.454 31.482 50.436 31.527C48.667 35.813 50.53 40.225 48.974 43.115C48.956 43.149 48.987 43.185 49.021 43.168C51.332 42.0164 53.3574 40.3644 54.95 38.332C55.966 36.791 56.865 35.133 56.771 33.098ZM56.015 24.319C55.997 24.271 55.926 24.284 55.926 24.334C55.842 27.616 53.918 30.156 53.533 32.423C53.527 32.449 53.496 32.447 53.496 32.418C53.428 29.481 51.307 27.712 50.118 25.488C50.1137 25.4784 50.1061 25.4706 50.0967 25.4659C50.0872 25.4613 50.0765 25.4602 50.0662 25.4626C50.056 25.4651 50.047 25.4711 50.0407 25.4796C50.0345 25.4881 50.0314 25.4985 50.032 25.509C49.853 29.758 52.921 32.401 52.822 35.943C52.822 35.989 52.876 36.01 52.903 35.976C55.322 32.633 57.598 28.586 56.015 24.319ZM54.832 21.882C54.756 19.732 54.288 17.742 52.908 16.044C52.879 16.007 52.822 16.039 52.832 16.087C53.745 19.437 52.771 22.366 53.141 24.887C53.147 24.924 53.105 24.933 53.092 24.9C52.168 22.65 49.64 21.547 48.517 19.987C48.491 19.948 48.431 19.977 48.441 20.025C49.48 24.476 52.801 25.889 53.462 28.238C53.472 28.28 53.527 28.283 53.538 28.241C53.997 26.45 54.926 24.523 54.832 21.882ZM48.809 11.256C48.775 11.229 48.73 11.272 48.754 11.309C49.525 12.558 49.79 13.895 50.097 15.29L50.782 18.577C50.787 18.598 50.756 18.614 50.745 18.593C50.139 17.585 47.321 16.19 45.47 14.742C45.442 14.718 45.4 14.751 45.413 14.788C46.457 17.84 49.832 19.148 51.903 21.393C51.926 21.417 51.968 21.401 51.966 21.367C51.811 18.069 52.326 14.041 48.809 11.256ZM42.854 9.69399C42.804 9.69399 42.788 9.76299 42.827 9.78999C45.145 11.283 44.906 12.627 49.187 15.765C49.205 15.776 49.229 15.76 49.223 15.741C48.244 12.409 45.961 9.79199 42.854 9.69399Z" fill="white"/>
</svg>
