<svg width="130" height="57" viewBox="0 0 130 57" fill="none" xmlns="http://www.w3.org/2000/svg">
<path fill-rule="evenodd" clip-rule="evenodd" d="M35.7619 3.695H36.3099C36.8209 3.695 37.2049 3.594 37.4589 3.391C37.7129 3.189 37.8409 2.894 37.8409 2.508C37.8409 2.118 37.7329 1.83 37.5209 1.643C37.3069 1.457 36.9739 1.363 36.5189 1.363H35.7619V3.695ZM39.5219 2.449C39.5219 3.294 39.2569 3.94 38.7289 4.387C38.2009 4.836 37.4499 5.059 36.4759 5.059H35.7619V7.852H34.0969V0H36.6049C37.5569 0 38.2809 0.204 38.7779 0.615C39.2739 1.025 39.5219 1.636 39.5219 2.449ZM29.9859 7.852H28.3469V0H32.8479V1.363H29.9859V3.389H32.6489V4.748H29.9859V7.852ZM25.4599 7.852H23.5639L22.5009 3.727C22.4609 3.58 22.3939 3.277 22.2989 2.817C22.2302 2.51065 22.1755 2.20133 22.1349 1.89C22.1139 2.084 22.0599 2.395 21.9749 2.822C21.9151 3.12878 21.8484 3.43419 21.7749 3.738L20.7169 7.852H18.8269L16.8229 0H18.4619L19.4659 4.285C19.6419 5.077 19.7679 5.763 19.8469 6.343C19.8689 6.139 19.9179 5.823 19.9949 5.395C20.0719 4.966 20.1449 4.634 20.2129 4.399L21.3569 0H22.9299L24.0739 4.399C24.2215 5.04159 24.3416 5.69018 24.4339 6.343C24.4699 6.063 24.5279 5.715 24.6059 5.298C24.6849 4.881 24.7569 4.544 24.8209 4.285L25.8199 0H27.4579L25.4599 7.852ZM21.3869 35.165C18.3359 35.165 16.3779 35.889 15.8429 36.114C15.8119 36.128 15.7859 36.083 15.8109 36.058C19.1629 32.573 23.0889 32.765 24.0329 32.765H35.1949C35.7569 32.765 36.2129 33.302 36.2129 33.966C36.2129 34.628 35.7569 35.165 35.1949 35.165H21.3869ZM23.9019 38.25C20.6139 38.25 19.6559 36.382 14.6799 37.615C14.6459 37.624 14.6229 37.577 14.6519 37.557C17.4259 35.654 20.4429 35.827 21.6629 35.827H35.1949C35.7569 35.827 36.2129 36.364 36.2129 37.026C36.2129 37.688 35.7569 38.225 35.1949 38.225C35.1949 38.225 26.5049 38.25 23.9019 38.25ZM24.1349 41.287C20.7609 41.287 20.4909 38.797 15.4889 38.236C15.4539 38.232 15.4499 38.18 15.4839 38.172C19.5929 37.144 21.1219 38.887 23.5209 38.887H35.1949C35.7569 38.887 36.2129 39.424 36.2129 40.087C36.2129 40.75 35.7569 41.287 35.1949 41.287H24.1349ZM23.4029 32.104C20.6869 32.104 18.4349 33.289 17.9079 33.588C17.8789 33.604 17.8489 33.569 17.8679 33.542C18.3089 32.893 20.6879 29.705 24.7779 29.705H35.1949C35.7569 29.705 36.2129 30.242 36.2129 30.905C36.2129 31.567 35.7569 32.104 35.1949 32.104H23.4029ZM38.3439 25.479C38.2227 25.3634 38.0665 25.2913 37.8999 25.274C37.7775 25.2579 37.6531 25.2727 37.5379 25.317C37.5904 25.2136 37.6249 25.102 37.6399 24.987C37.6663 24.8119 37.6372 24.6329 37.5569 24.475C37.2209 23.739 38.1809 22.266 38.0599 22.2C37.9449 22.136 37.3989 23.76 36.8689 24.416C36.7565 24.5562 36.6873 24.7261 36.6699 24.905C36.6483 25.0807 36.6782 25.2589 36.7559 25.418C36.8299 25.55 36.9419 25.644 37.0739 25.652C37.1096 25.6566 37.1459 25.6545 37.1809 25.646C37.1739 25.665 37.1659 25.686 37.1629 25.705C37.1541 25.7763 37.1624 25.8487 37.1871 25.9161C37.2118 25.9836 37.2522 26.0442 37.3049 26.093C37.4089 26.204 37.5649 26.278 37.7449 26.3C37.9153 26.3251 38.0892 26.2923 38.2389 26.207C38.9579 25.814 40.4489 25.426 40.4169 25.288C40.3879 25.15 38.9339 26.003 38.3439 25.479ZM39.4439 24.405C39.3373 24.291 39.1924 24.2201 39.0369 24.206C38.9455 24.2015 38.8543 24.2162 38.7689 24.249C38.7819 24.203 38.7999 24.164 38.8059 24.118C38.8241 23.9568 38.7879 23.7942 38.7029 23.656C38.3389 22.979 39.2909 21.7 39.1679 21.637C39.0449 21.573 38.5219 23.005 37.9919 23.571C37.8787 23.6854 37.809 23.8357 37.7949 23.996C37.778 24.1577 37.813 24.3206 37.8949 24.461C37.9789 24.584 38.0939 24.671 38.2329 24.69C38.2933 24.6933 38.3539 24.6862 38.4119 24.669C38.4089 24.676 38.4019 24.687 38.4039 24.695C38.3982 24.7673 38.4077 24.8401 38.4316 24.9086C38.4555 24.9771 38.4934 25.0399 38.5429 25.093C38.6429 25.2 38.7869 25.274 38.9469 25.288C39.1011 25.3043 39.2558 25.2626 39.3809 25.171C39.9999 24.724 41.4169 24.459 41.3799 24.315C41.3459 24.177 39.9889 24.926 39.4439 24.405ZM40.4059 23.412C40.2944 23.3295 40.1557 23.2923 40.0179 23.308C39.9496 23.3124 39.8827 23.3297 39.8209 23.359C39.8319 23.329 39.8499 23.305 39.8609 23.276C39.8983 23.1337 39.8899 22.9832 39.8369 22.846C39.6059 22.181 40.6289 21.198 40.5299 21.118C40.4299 21.044 39.7659 22.235 39.2199 22.654C39.1055 22.7429 39.0242 22.8675 38.9889 23.008C38.9472 23.1489 38.9546 23.2998 39.0099 23.436C39.033 23.4953 39.0688 23.5489 39.1147 23.5929C39.1607 23.637 39.2157 23.6704 39.2759 23.691C39.3669 23.72 39.4589 23.701 39.5459 23.664C39.5259 23.7183 39.5178 23.7763 39.5219 23.834C39.5349 23.97 39.6009 24.084 39.7089 24.164C39.8206 24.2471 39.959 24.2862 40.0977 24.2739C40.2364 24.2615 40.3656 24.1986 40.4609 24.097C40.9519 23.6 42.1749 23.135 42.1259 23.016C42.0729 22.896 40.9729 23.781 40.4059 23.412ZM42.3009 21.278C42.1989 21.127 41.3429 22.065 40.7109 22.155C40.5757 22.1757 40.4502 22.2379 40.3519 22.333C40.2422 22.4272 40.1649 22.5535 40.1309 22.694C40.1152 22.7487 40.112 22.8062 40.1216 22.8623C40.1311 22.9183 40.1531 22.9716 40.1859 23.018C40.2224 23.0604 40.2691 23.0926 40.3216 23.1117C40.3742 23.1308 40.4307 23.1361 40.4859 23.127C40.6237 23.1078 40.7515 23.0443 40.8499 22.946C40.9546 22.8507 41.0293 22.727 41.0649 22.59C41.2569 21.947 42.3779 21.376 42.3009 21.278ZM24.6069 22.548C24.5819 22.641 24.3979 23.364 24.3979 23.364C24.3449 23.393 24.1249 23.345 24.0669 23.34C23.6449 23.3 23.2669 22.933 23.4289 22.495C23.5619 22.137 23.8329 22.099 24.1769 22.083C24.3199 22.077 24.5769 22.111 24.7059 22.2C24.7059 22.2 24.6549 22.365 24.6069 22.548ZM24.1219 24.73L24.0829 24.977C23.8199 24.812 23.6659 24.435 23.7919 24.137C23.8889 23.911 24.1289 23.852 24.3059 23.842C24.2419 24.1374 24.1805 24.4334 24.1219 24.73ZM23.7439 27.426C23.7109 27.611 23.4609 27.636 23.2899 27.687C22.7939 27.836 22.3239 27.772 22.1719 27.179C22.0069 26.545 22.4869 26.278 23.0019 26.154C23.2819 26.088 23.5419 26.143 23.7339 26.38C23.7819 26.439 23.8389 26.492 23.8519 26.548C23.8519 26.548 23.7749 27.252 23.7439 27.426ZM22.1829 24.304C22.5659 24.212 22.9619 24.068 23.2559 24.445C23.5659 24.841 23.4639 25.476 22.9649 25.644C22.6369 25.755 22.2399 25.851 21.9599 25.583C21.5919 25.232 21.6179 24.435 22.1829 24.304ZM21.8069 22.248C22.2109 22.15 22.6289 22.001 22.9389 22.397C23.2609 22.811 23.1539 23.481 22.6319 23.656C22.2849 23.77 21.8679 23.871 21.5739 23.589C21.1879 23.223 21.2169 22.386 21.8069 22.248ZM21.4319 26.693C21.3269 27.063 21.0229 27.118 20.7029 27.195C20.4929 26.938 19.9289 26.286 19.9189 26.209C19.9161 26.1785 19.9202 26.1477 19.9309 26.119C19.9569 26.042 20.0459 25.968 20.1119 25.925C20.3039 25.8 20.7129 25.708 20.9339 25.753C21.3299 25.838 21.5369 26.321 21.4319 26.693ZM19.4269 24.794C19.1379 23.77 20.8549 23.324 21.1199 24.328C21.3929 25.36 19.6609 25.798 19.4269 24.794ZM19.1749 22.75C18.8809 21.733 20.6059 21.286 20.8709 22.285C21.1439 23.318 19.4089 23.757 19.1749 22.75ZM18.9339 20.741C18.6529 19.793 20.2719 19.373 20.5189 20.308C20.7739 21.27 19.1539 21.685 18.9339 20.741ZM18.7679 24.608C18.6889 24.655 18.6589 24.68 18.6319 24.68L17.8619 23.842C17.8709 23.818 18.1099 23.646 18.1889 23.6C18.8289 23.244 19.3559 24.262 18.7679 24.608ZM17.3069 22.721C16.9259 21.881 18.3119 20.97 18.7319 21.876C19.1169 22.71 17.7319 23.637 17.3069 22.721ZM18.4719 20.061C18.9099 20.84 17.5899 21.709 17.2119 20.871C16.8759 20.149 18.0489 19.306 18.4719 20.061ZM17.3639 18.246C17.5589 18.074 17.7839 17.981 18.0149 18.092C18.3849 18.27 18.3959 18.825 18.0729 19.046C17.9259 19.147 17.6769 19.272 17.4959 19.227C17.0989 19.126 17.0239 18.547 17.3639 18.246ZM17.4139 16.577C17.5739 16.469 17.7869 16.372 17.9699 16.447C18.3049 16.584 18.2939 17.069 18.0229 17.263C17.8989 17.351 17.6769 17.46 17.5269 17.42C17.1889 17.335 17.1049 16.786 17.4139 16.577ZM18.3009 14.199C18.4999 14.092 18.7869 14.047 18.9659 14.247C19.0147 14.3003 19.0505 14.3643 19.0704 14.4338C19.0904 14.5033 19.094 14.5765 19.0809 14.6476C19.0678 14.7187 19.0384 14.7858 18.9951 14.8436C18.9517 14.9015 18.8955 14.9485 18.8309 14.981C18.6189 15.087 18.3329 15.127 18.1649 14.93C18.1189 14.8757 18.0856 14.8118 18.0674 14.743C18.0492 14.6742 18.0465 14.6022 18.0595 14.5322C18.0725 14.4623 18.1009 14.3961 18.1427 14.3384C18.1844 14.2808 18.2385 14.2332 18.3009 14.199ZM18.1439 16.006C17.9829 15.411 18.9859 15.13 19.1489 15.735C19.3299 16.322 18.3039 16.615 18.1439 16.006ZM19.7599 17.045C19.9939 17.688 18.9049 18.052 18.6929 17.417C18.4749 16.774 19.5689 16.407 19.7599 17.045ZM19.8969 13.912C20.1049 13.829 20.3709 13.739 20.6029 13.912C20.8919 14.128 20.8289 14.614 20.4979 14.765C20.2799 14.864 20.0019 14.93 19.8079 14.757C19.5609 14.537 19.5479 14.052 19.8969 13.912ZM19.7049 19.293C19.4109 19.362 19.1039 19.479 18.8609 19.227C18.5479 18.905 18.6369 18.342 19.0599 18.188C19.3329 18.084 19.6789 18.026 19.9019 18.254C20.1879 18.547 20.1569 19.184 19.7049 19.293ZM19.7109 16.009C19.5219 15.371 20.5609 15.044 20.7599 15.663C20.9649 16.298 19.8889 16.636 19.7109 16.009ZM21.4499 17.178C21.6949 17.906 20.4639 18.294 20.2379 17.577C20.0099 16.843 21.2489 16.455 21.4499 17.178ZM21.5159 15.228C21.7329 15.17 21.9619 15.191 22.1279 15.368C22.3789 15.639 22.2929 16.102 21.9199 16.171C21.7439 16.203 21.4739 16.19 21.3369 16.07C21.0909 15.852 21.1029 15.339 21.5159 15.228ZM22.5659 16.756C22.9619 16.756 23.1619 17.338 22.9309 17.627C22.7919 17.802 22.4919 17.813 22.2879 17.781C21.9099 17.723 21.6689 17.236 21.9229 16.907C22.0779 16.708 22.3429 16.756 22.5659 16.756ZM20.6629 19.152C20.4189 18.315 21.8409 17.941 22.0589 18.772C22.2799 19.617 20.8499 19.989 20.6629 19.152ZM21.5339 20.223C21.9229 20.183 22.3269 20.093 22.5659 20.5C22.8149 20.93 22.6289 21.528 22.1249 21.629C21.7949 21.698 21.3929 21.73 21.1569 21.437C20.8469 21.05 20.9699 20.276 21.5339 20.223ZM23.5089 18.359C23.9889 18.557 24.1509 19.123 23.8129 19.439C23.6319 19.604 23.3009 19.572 23.0779 19.527C22.6319 19.439 22.3399 18.769 22.7309 18.451C22.9319 18.288 23.2909 18.268 23.5089 18.359ZM24.2639 20.377C24.5649 20.747 24.4529 21.4 23.9249 21.432C23.6499 21.448 23.2899 21.416 23.1039 21.19C22.8049 20.829 22.9179 20.151 23.4449 20.133C23.7209 20.122 24.0779 20.151 24.2639 20.377ZM26.3029 13.713C26.2889 13.6914 26.2683 13.6749 26.2442 13.6659C26.22 13.6569 26.1936 13.6559 26.1689 13.663C26.1059 13.684 26.0639 13.753 26.0879 13.814C27.2929 17.051 25.7539 18.645 25.1109 20.911C24.3399 19.07 26.8959 17.338 25.5789 13.982C25.5599 13.939 25.5259 13.904 25.4789 13.897C25.4129 13.888 25.3499 13.915 25.3399 14.003C25.3059 14.239 25.1509 16.099 23.6419 17.189C23.4808 16.8036 23.2414 16.456 22.9389 16.168C22.7989 15.541 22.3899 14.68 21.5289 14.426C21.3999 14.101 21.1409 13.636 20.6419 13.386C20.1729 13.152 19.6289 13.173 19.0249 13.447C18.2959 13.532 17.7949 13.817 17.5299 14.292C17.2799 14.741 17.3249 15.23 17.4089 15.563C16.7949 16.219 16.7659 17.191 16.7819 17.572C16.4169 18.448 16.6219 19.471 16.7369 19.896C16.3009 21.087 16.7269 22.242 16.8969 22.625C16.8969 22.729 16.9029 22.827 16.9079 22.925C15.4799 21.363 12.2309 19.428 10.9899 18.69C10.9617 18.6728 10.9286 18.6655 10.8958 18.6693C10.863 18.6731 10.8324 18.6878 10.8089 18.711C10.794 18.7248 10.782 18.7413 10.7736 18.7598C10.7651 18.7782 10.7604 18.7981 10.7596 18.8183C10.7589 18.8386 10.7622 18.8588 10.7692 18.8778C10.7763 18.8968 10.7871 18.9142 10.8009 18.929C13.5699 21.629 16.0389 24.961 18.4109 31.875C19.5949 30.644 21.7339 29.026 24.7779 29.026H28.3399C26.0769 20.598 29.3709 17.582 26.3029 13.713ZM43.1389 18.071C42.4879 17.901 38.3309 17.165 33.6729 25.734C34.3519 22.543 36.4179 18.682 36.9849 17.561V17.553C37.0011 17.521 37.0056 17.4843 36.9978 17.4493C36.9899 17.4143 36.9702 17.3831 36.9419 17.361C36.9122 17.3406 36.8756 17.3328 36.8402 17.3394C36.8047 17.346 36.7733 17.3663 36.7529 17.396C33.6749 22.529 32.5939 25.487 31.9559 29.026H33.8849C34.2129 25.614 38.5219 17.577 43.1149 18.174H43.1199C43.1469 18.18 43.1699 18.158 43.1729 18.135C43.1829 18.105 43.1649 18.076 43.1389 18.071ZM33.8769 46.303L32.8349 41.948H31.0609C31.3419 43.053 31.7429 44.177 32.2629 45.163C32.2781 45.1913 32.3016 45.2144 32.3301 45.2292C32.3586 45.244 32.391 45.2498 32.4229 45.246C32.4658 45.2384 32.5039 45.2142 32.529 45.1786C32.5541 45.143 32.5642 45.0989 32.5569 45.056C32.4359 44.134 32.2919 43.245 32.1549 42.357C32.5309 43.752 33.0369 45.115 33.7199 46.37C33.7379 46.409 33.7779 46.427 33.8139 46.415C33.8639 46.404 33.8899 46.351 33.8769 46.303ZM35.6699 44.326C35.4879 43.598 35.2989 42.705 35.1369 41.948H34.4619C34.7249 42.756 35.0789 43.657 35.3939 44.427C35.4249 44.502 35.4959 44.539 35.5649 44.52C35.6459 44.496 35.6899 44.409 35.6699 44.326ZM35.8949 46.887L35.8899 46.877C35.6719 46.268 35.3699 45.723 35.1319 45.139C34.8728 44.5627 34.637 43.9762 34.4249 43.381C34.2549 42.931 34.0739 42.416 33.9349 41.948H33.2839C33.4679 42.493 33.7069 43.08 33.9299 43.606C34.4199 44.794 34.9869 45.958 35.7089 46.999C35.7225 47.0178 35.742 47.0315 35.7643 47.0379C35.7866 47.0443 35.8105 47.0429 35.8319 47.034C35.8899 47.012 35.9159 46.946 35.8949 46.887ZM36.8689 25.987C36.8189 25.912 36.6979 25.896 36.6409 25.957C35.7842 26.8737 35.0614 27.9069 34.4939 29.026H35.1969C35.5489 28.2 36.3409 26.741 36.8509 26.215L36.8559 26.21C36.9079 26.151 36.9189 26.053 36.8689 25.987ZM31.5149 19.942C32.1659 18.873 33.1319 18.055 33.9509 17.067C33.9652 17.0482 33.9722 17.0249 33.9706 17.0013C33.9689 16.9777 33.9587 16.9556 33.9419 16.939C33.9109 16.904 33.8589 16.904 33.8239 16.936C33.6379 17.135 33.4439 17.322 33.2449 17.507C33.1579 17.465 32.9379 17.55 32.7149 17.725C32.5389 17.864 32.4129 18.018 32.3679 18.129C32.2549 18.103 32.0429 18.235 31.8509 18.48C31.6939 18.685 31.6019 18.9 31.6039 19.033C31.4829 19.043 31.3079 19.197 31.1579 19.442C31.0609 19.604 30.9979 19.761 30.9769 19.891C30.8522 19.9877 30.7472 20.1076 30.6679 20.244C30.5339 20.468 30.4659 20.693 30.4859 20.823C30.4549 20.88 30.4239 20.933 30.3969 20.988L30.4129 20.856C30.6049 19.343 30.8819 17.845 31.3049 16.4C31.7299 14.959 32.2389 13.506 33.1129 12.339L33.1189 12.334C33.1406 12.3024 33.1508 12.2644 33.1479 12.2262C33.145 12.188 33.1291 12.1519 33.1029 12.124C33.0902 12.1095 33.0745 12.0977 33.057 12.0896C33.0394 12.0815 33.0204 12.0772 33.0011 12.0769C32.9817 12.0766 32.9626 12.0804 32.9448 12.088C32.927 12.0956 32.911 12.1068 32.8979 12.121C32.6022 12.4442 32.3392 12.7959 32.1129 13.171C32.0139 13.118 31.8039 13.315 31.6439 13.623C31.4969 13.901 31.4449 14.159 31.4989 14.258C31.4989 14.258 31.4969 14.266 31.4909 14.263C31.3859 14.218 31.1919 14.452 31.0739 14.765C30.9589 15.06 30.9379 15.331 31.0169 15.422C31.0109 15.427 31.0109 15.43 31.0079 15.435C30.8899 15.392 30.6989 15.661 30.5809 16.041C30.4839 16.362 30.4729 16.641 30.5439 16.753C30.5489 16.758 30.5439 16.772 30.5389 16.769C30.4179 16.726 30.2349 17.003 30.1269 17.38C30.0189 17.744 30.0269 18.066 30.1289 18.129C30.0109 18.116 29.8459 18.392 29.7589 18.767C29.6809 19.091 29.6889 19.37 29.7649 19.482C29.6489 19.516 29.5209 19.787 29.4549 20.138C29.3919 20.481 29.4239 20.765 29.5069 20.856C29.3999 20.911 29.2899 21.19 29.2499 21.536C29.2109 21.879 29.2609 22.16 29.3499 22.251C29.2609 22.351 29.1739 22.59 29.1369 22.878C29.1009 23.151 29.1239 23.388 29.1769 23.521C29.0799 23.603 29.0059 23.88 29.0029 24.212C28.9959 24.477 29.0349 24.703 29.1029 24.833C29.0413 25.0069 29.0112 25.1905 29.0139 25.375C29.0089 25.654 29.0529 25.893 29.1239 26.018C29.1029 26.999 29.1159 28.043 29.1689 29.026H31.2869C31.3019 28.261 31.3519 27.426 31.4279 26.669C31.5779 25.319 31.8009 23.948 32.4759 22.795L32.4809 22.787C32.4917 22.767 32.4962 22.7441 32.4938 22.7215C32.4915 22.6989 32.4825 22.6775 32.4679 22.66C32.4279 22.625 32.3729 22.625 32.3359 22.668C31.4199 23.731 31.0189 25.174 30.7829 26.558C30.7409 26.829 30.7069 27.102 30.6749 27.374C30.7329 26.263 30.8359 25.157 31.0899 24.105C31.3819 22.824 31.9639 21.605 33.0739 20.922C33.0919 20.9103 33.1055 20.8929 33.1125 20.8727C33.1196 20.8524 33.1197 20.8304 33.1129 20.81C33.107 20.7867 33.0921 20.7667 33.0715 20.7543C33.0509 20.742 33.0262 20.7382 33.0029 20.744C32.9319 20.765 32.8669 20.802 32.7989 20.832C32.7249 20.741 32.4549 20.808 32.1759 20.985C31.9109 21.158 31.7359 21.371 31.7539 21.488C31.7539 21.493 31.7409 21.501 31.7409 21.49C31.7379 21.477 31.7359 21.464 31.7279 21.456C31.6279 21.374 31.3609 21.56 31.1339 21.876C30.9059 22.192 30.8169 22.522 30.9139 22.607C30.9199 22.609 30.9169 22.617 30.9119 22.617C30.7939 22.569 30.5969 22.838 30.4729 23.213C30.3839 23.475 30.3629 23.717 30.3949 23.856C30.3949 23.86 30.3889 23.866 30.3889 23.866C30.2979 24.169 30.2209 24.475 30.1499 24.785C30.1769 24.347 30.2159 23.906 30.2789 23.47C30.4659 22.216 30.8429 20.988 31.5149 19.942ZM38.1779 16.444C38.0248 16.3781 37.8542 16.365 37.6929 16.407C37.5727 16.438 37.4611 16.4961 37.3669 16.577C37.3836 16.4619 37.3775 16.3447 37.3489 16.232C37.3141 16.0596 37.2259 15.9025 37.0969 15.783C36.5249 15.212 36.9189 13.492 36.7849 13.471C36.6539 13.453 36.7009 15.167 36.4309 15.969C36.3729 16.1397 36.3663 16.3236 36.4119 16.498C36.4516 16.6709 36.5422 16.828 36.6719 16.949C36.7849 17.048 36.9209 17.093 37.0499 17.053C37.0853 17.0469 37.1186 17.0321 37.1469 17.01C37.1469 17.032 37.1469 17.053 37.1489 17.074C37.1789 17.215 37.2779 17.324 37.4149 17.388C37.5683 17.4568 37.7409 17.4699 37.9029 17.425C38.0699 17.3869 38.2201 17.2957 38.3309 17.165C38.8689 16.54 40.1329 15.65 40.0579 15.531C39.9819 15.414 38.9129 16.726 38.1779 16.444ZM40.6249 14.279C40.5429 14.162 39.5299 15.344 38.8399 15.049C38.6995 14.98 38.5386 14.965 38.3879 15.007C38.3014 15.0351 38.2215 15.0803 38.1529 15.14C38.1489 15.092 38.1529 15.049 38.1419 15.007C38.1055 14.8488 38.0154 14.7082 37.8869 14.609C37.3099 14.104 37.7639 12.568 37.6279 12.552C37.4879 12.536 37.4909 14.064 37.1909 14.781C37.1246 14.928 37.1118 15.0936 37.1549 15.249C37.1969 15.419 37.2919 15.56 37.4089 15.65C37.464 15.6929 37.5278 15.7234 37.5958 15.7395C37.6637 15.7555 37.7344 15.7567 37.8029 15.743C37.861 15.7255 37.9155 15.6977 37.9639 15.661C37.9639 15.669 37.9609 15.679 37.9639 15.687C37.9838 15.7571 38.018 15.8223 38.0643 15.8786C38.1105 15.9349 38.168 15.981 38.2329 16.014C38.3726 16.0796 38.5313 16.0927 38.6799 16.051C38.8295 16.0123 38.9595 15.9197 39.0449 15.791C39.4719 15.151 40.7059 14.401 40.6249 14.279ZM40.8739 12.799C40.7839 12.706 40.0579 13.923 39.3989 13.777C39.2656 13.7396 39.1231 13.7539 38.9999 13.817C38.9367 13.8444 38.8795 13.8842 38.8319 13.934C38.8319 13.904 38.8399 13.875 38.8399 13.843C38.827 13.6969 38.767 13.559 38.6689 13.45C38.2259 12.908 38.8419 11.625 38.7239 11.585C38.6039 11.55 38.3939 12.9 38.0269 13.487C37.9485 13.6092 37.9149 13.7548 37.9319 13.899C37.9419 14.056 38.0079 14.197 38.0999 14.295C38.1949 14.393 38.3099 14.447 38.4359 14.439C38.5293 14.4307 38.6163 14.388 38.6799 14.319C38.6799 14.372 38.6899 14.43 38.7159 14.486C38.7432 14.5449 38.783 14.597 38.8326 14.6388C38.8821 14.6806 38.9403 14.7111 39.0029 14.728C39.1259 14.768 39.2729 14.757 39.4039 14.693C39.53 14.6321 39.6305 14.5287 39.6879 14.401C39.9759 13.761 40.9609 12.892 40.8739 12.799ZM40.4379 11.109C40.2889 11.003 39.8139 12.185 39.2489 12.493C39.1296 12.5614 39.0338 12.6642 38.9739 12.788C38.9065 12.9153 38.879 13.0599 38.8949 13.203C38.9079 13.328 38.9659 13.434 39.0579 13.487C39.1061 13.514 39.1604 13.5279 39.2157 13.5276C39.2709 13.5272 39.3251 13.5126 39.3729 13.485C39.4951 13.4174 39.593 13.3132 39.6529 13.187C39.7186 13.0602 39.746 12.9171 39.7319 12.775C39.6899 12.106 40.5429 11.175 40.4379 11.109ZM30.0799 41.948H24.1349C23.7309 41.948 23.3659 41.916 23.0299 41.855C23.0329 41.855 23.0329 41.857 23.0329 41.857C24.0089 43.308 25.5389 44.409 27.0909 45.147C27.3289 46.47 27.6279 47.695 27.7359 47.791C27.8459 47.886 29.3679 47.448 29.4159 47.307C29.4599 47.167 28.7939 44.9 28.7939 44.9C29.5939 43.526 29.8409 42.715 30.0799 41.948ZM45.0329 52.117C43.5319 52.71 41.5739 52.759 39.9759 52.335C36.3149 51.195 32.2499 49.035 28.3469 50.828C24.4449 49.035 20.3789 51.195 16.7189 52.335C15.1209 52.759 13.1629 52.71 11.6619 52.117C11.6533 52.1132 11.6435 52.1127 11.6345 52.1157C11.6255 52.1187 11.618 52.1249 11.6134 52.1332C11.6087 52.1414 11.6074 52.1511 11.6095 52.1603C11.6116 52.1695 11.6171 52.1776 11.6249 52.183C13.7849 53.854 16.8109 54.623 19.5349 53.639C22.1509 52.824 24.3629 50.052 27.4629 51.235C25.0089 52.194 22.7159 53.964 20.9439 55.635L22.2319 56.692C23.8409 54.819 25.6519 52.946 27.7019 51.806C27.9819 51.641 28.1499 51.575 28.3469 51.564C28.5439 51.575 28.7119 51.641 28.9899 51.806C31.0429 52.946 32.8539 54.819 34.4619 56.692L35.7509 55.635C33.9799 53.964 31.6859 52.194 29.2319 51.235C32.3309 50.052 34.5439 52.824 37.1599 53.639C39.8839 54.623 42.9099 53.854 45.0699 52.183C45.1039 52.154 45.0749 52.101 45.0329 52.117ZM20.9039 49.592C17.0779 48.665 16.0309 45.078 12.8319 43.521C12.7979 43.503 12.7609 43.543 12.7819 43.574C13.7899 45.232 14.3359 47.772 17.2409 49.338C17.2649 49.35 17.2519 49.388 17.2249 49.38C13.0579 48.578 11.3069 49.693 6.9399 47.719C6.9029 47.703 6.8639 47.743 6.8879 47.778C8.3229 49.861 11.7299 51.285 16.3959 50.892C18.0759 50.749 19.2929 50.042 20.9039 49.665C20.9439 49.654 20.9439 49.6 20.9039 49.592ZM12.8899 47.392C11.4359 45.487 11.8499 41.42 8.5679 37.697C8.5409 37.668 8.4939 37.691 8.5019 37.728C9.1289 40.47 8.9429 43.585 10.6589 45.867C10.6749 45.891 10.6509 45.915 10.6279 45.899C7.2419 43.234 3.7619 42.431 2.2129 40.274C2.1899 40.245 2.1429 40.26 2.1479 40.298C2.5309 43.09 7.8959 47.443 12.8609 47.451C12.8899 47.451 12.9079 47.417 12.8899 47.392ZM7.8059 42.328C6.2469 39.437 8.1109 35.026 6.3419 30.74C6.3229 30.695 6.2549 30.706 6.2549 30.754C6.2029 33.094 4.7489 36.589 5.6279 39.227C5.6379 39.251 5.6069 39.264 5.5939 39.243C3.3549 35.972 1.5789 35.289 0.0979016 32.295C0.0769016 32.25 0.00890155 32.262 0.00690155 32.31C-0.0880984 34.345 0.811902 36.004 1.8279 37.545C3.42035 39.5771 5.44537 41.2291 7.7559 42.381C7.7909 42.397 7.8219 42.362 7.8059 42.328ZM6.7489 24.722C6.7459 24.674 6.6829 24.658 6.6589 24.7C5.4699 26.924 3.3529 28.694 3.2839 31.631C3.2819 31.66 3.2499 31.662 3.2449 31.635C2.8589 29.369 0.935902 26.829 0.851902 23.547C0.851902 23.497 0.780902 23.484 0.761902 23.531C-0.820098 27.799 1.4549 31.845 3.8779 35.188C3.9039 35.222 3.9559 35.202 3.9559 35.156C3.8569 31.614 6.9269 28.97 6.7489 24.722ZM8.2599 19.2C7.1369 20.76 4.6099 21.863 3.6859 24.113C3.6729 24.145 3.6329 24.137 3.6389 24.1C4.0059 21.578 3.0319 18.65 3.9459 15.3C3.9589 15.252 3.8989 15.22 3.8699 15.257C2.4889 16.955 2.0219 18.945 1.9459 21.095C1.8519 23.736 2.7799 25.662 3.2399 27.453C3.2499 27.496 3.3049 27.493 3.3159 27.45C3.9769 25.102 7.2969 23.688 8.3359 19.237C8.3499 19.19 8.2889 19.16 8.2599 19.2ZM11.3069 13.955C9.4599 15.403 6.6379 16.798 6.0319 17.805C6.0219 17.826 5.9899 17.81 5.9949 17.789L6.6799 14.502C6.9869 13.107 7.2529 11.771 8.0239 10.522C8.0479 10.485 8.0029 10.442 7.9689 10.469C4.4519 13.254 4.9659 17.281 4.8119 20.579C4.8089 20.614 4.8509 20.63 4.8749 20.606C6.9449 18.36 10.3199 17.053 11.3649 14C11.3779 13.963 11.3389 13.931 11.3069 13.955ZM13.9239 8.906C10.8169 9.005 8.5329 11.622 7.5539 14.954C7.5489 14.973 7.5749 14.989 7.5909 14.978C11.8709 11.84 11.6319 10.495 13.9499 9.002C13.9919 8.975 13.9739 8.906 13.9239 8.906ZM49.7519 47.719C45.3879 49.693 43.6339 48.578 39.4669 49.38C39.4409 49.388 39.4279 49.35 39.4509 49.338C42.3569 47.772 42.9029 45.232 43.9099 43.574C43.9309 43.543 43.8949 43.503 43.8609 43.521C40.6639 45.078 39.6169 48.665 35.7879 49.592C35.7479 49.6 35.7479 49.654 35.7879 49.665C37.3989 50.042 38.6169 50.749 40.2959 50.892C44.9619 51.285 48.3719 49.861 49.8049 47.778C49.8279 47.743 49.7889 47.703 49.7519 47.719ZM54.4789 40.274C52.9299 42.431 49.4499 43.234 46.0649 45.899C46.0439 45.915 46.0179 45.891 46.0359 45.867C47.7499 43.585 47.5629 40.47 48.1909 37.728C48.1979 37.691 48.1509 37.668 48.1249 37.697C44.8439 41.42 45.2569 45.487 43.8049 47.392C43.7869 47.417 43.8019 47.451 43.8339 47.451C48.7989 47.443 54.1609 43.09 54.5439 40.298C54.5489 40.26 54.5019 40.245 54.4789 40.274ZM56.6859 32.31C56.6829 32.262 56.6149 32.25 56.5939 32.295C55.1139 35.289 53.3369 35.972 51.1009 39.243C51.0849 39.264 51.0559 39.251 51.0639 39.227C51.9439 36.589 50.4919 33.094 50.4369 30.754C50.4369 30.706 50.3689 30.695 50.3509 30.74C48.5819 35.026 50.4449 39.437 48.8889 42.328C48.8699 42.362 48.9019 42.397 48.9359 42.381C51.2466 41.2294 53.2717 39.5774 54.8639 37.545C55.8799 36.004 56.7799 34.345 56.6859 32.31ZM55.9299 23.531C55.9119 23.484 55.8409 23.497 55.8409 23.547C55.7569 26.829 53.8329 29.369 53.4469 31.635C53.4419 31.662 53.4109 31.66 53.4109 31.631C53.3419 28.694 51.2219 26.924 50.0329 24.7C50.0089 24.658 49.9459 24.674 49.9459 24.722C49.7679 28.97 52.8359 31.614 52.7359 35.156C52.7359 35.202 52.7909 35.222 52.8179 35.188C55.2369 31.845 57.5119 27.799 55.9299 23.531ZM54.7459 21.095C54.6699 18.945 54.2029 16.955 52.8229 15.257C52.7939 15.22 52.7359 15.252 52.7469 15.3C53.6599 18.65 52.6859 21.578 53.0559 24.1C53.0619 24.137 53.0199 24.145 53.0059 24.113C52.0829 21.863 49.5549 20.76 48.4319 19.2C48.4059 19.16 48.3449 19.19 48.3559 19.237C49.3949 23.688 52.7149 25.102 53.3769 27.45C53.3869 27.493 53.4419 27.496 53.4519 27.453C53.9119 25.662 54.8409 23.736 54.7459 21.095ZM48.7229 10.469C48.6889 10.442 48.6449 10.485 48.6679 10.522C49.4399 11.771 49.7049 13.107 50.0119 14.502L50.6969 17.789C50.7019 17.81 50.6699 17.826 50.6599 17.805C50.0539 16.798 47.2359 15.403 45.3849 13.955C45.3559 13.931 45.3139 13.963 45.3269 14C46.3719 17.053 49.7469 18.36 51.8179 20.606C51.8409 20.63 51.8829 20.614 51.8799 20.579C51.7259 17.281 52.2399 13.254 48.7229 10.469ZM42.7689 8.906C42.7189 8.906 42.7029 8.975 42.7419 9.002C45.0599 10.495 44.8209 11.84 49.1009 14.978C49.1199 14.989 49.1429 14.973 49.1379 14.954C48.1589 11.622 45.8759 9.005 42.7689 8.906ZM63.9849 16.025H64.6299C65.2329 16.025 65.6839 15.906 65.9839 15.668C66.2829 15.429 66.4329 15.083 66.4329 14.628C66.4329 14.168 66.3069 13.829 66.0559 13.609C65.8049 13.39 65.4129 13.281 64.8769 13.281H63.9849V16.025ZM68.4129 14.558C68.4129 15.553 68.1009 16.314 67.4799 16.841C66.8579 17.369 65.9729 17.631 64.8269 17.631H63.9849V20.921H62.0249V11.674H64.9779C66.0999 11.674 66.9529 11.916 67.5369 12.398C68.1209 12.882 68.4129 13.601 68.4129 14.558ZM73.4809 13.716C73.7429 13.716 73.9599 13.736 74.1329 13.774L73.9879 15.583C73.8018 15.5371 73.6105 15.5156 73.4189 15.519C72.8019 15.519 72.3229 15.677 71.9789 15.994C71.6349 16.31 71.4639 16.753 71.4639 17.322V20.921H69.5349V13.849H70.9959L71.2809 15.039H71.3759C71.5939 14.642 71.8909 14.323 72.2639 14.081C72.6247 13.842 73.0481 13.715 73.4809 13.716ZM76.5659 17.373C76.5659 18.073 76.6809 18.601 76.9109 18.96C77.1399 19.318 77.5139 19.498 78.0329 19.498C78.5469 19.498 78.9179 19.319 79.1429 18.964C79.3689 18.607 79.4819 18.077 79.4819 17.373C79.4819 16.672 79.3679 16.148 79.1399 15.798C78.9129 15.448 78.5399 15.273 78.0209 15.273C77.5059 15.273 77.1349 15.447 76.9079 15.795C76.6799 16.142 76.5659 16.669 76.5659 17.373ZM81.4549 17.373C81.4549 18.523 81.1509 19.423 80.5449 20.073C79.9369 20.722 79.0909 21.048 78.0079 21.048C77.3289 21.048 76.7299 20.898 76.2109 20.601C75.6928 20.3039 75.2764 19.8574 75.0159 19.32C74.7379 18.764 74.5989 18.115 74.5989 17.373C74.5989 16.218 74.8999 15.319 75.5029 14.678C76.1059 14.038 76.9539 13.716 78.0449 13.716C78.7249 13.716 79.3239 13.865 79.8419 14.16C80.3609 14.455 80.7589 14.879 81.0379 15.431C81.3159 15.983 81.4549 16.631 81.4549 17.373ZM84.0949 16.165C84.0949 16.548 84.1829 16.852 84.3579 17.075C84.5329 17.298 84.7989 17.411 85.1589 17.411C85.5209 17.411 85.7869 17.298 85.9559 17.075C86.1239 16.852 86.2089 16.548 86.2089 16.165C86.2089 15.313 85.8579 14.887 85.1589 14.887C84.4499 14.887 84.0949 15.313 84.0949 16.165ZM83.3939 21.92C83.3939 22.185 83.5209 22.394 83.7759 22.546C84.0319 22.698 84.3889 22.774 84.8479 22.774C85.5399 22.774 86.0819 22.678 86.4739 22.489C86.8659 22.299 87.0619 22.04 87.0619 21.712C87.0619 21.446 86.9459 21.262 86.7139 21.161C86.4819 21.059 86.1239 21.01 85.6389 21.01H84.6389C84.2859 21.01 83.9889 21.092 83.7519 21.258C83.6407 21.3286 83.5494 21.4265 83.4868 21.5424C83.4241 21.6583 83.3921 21.7883 83.3939 21.92ZM88.8519 13.849V14.83L87.7449 15.115C87.9479 15.431 88.0479 15.785 88.0479 16.177C88.0479 16.936 87.7839 17.527 87.2549 17.951C86.7259 18.375 85.9909 18.587 85.0499 18.587L84.7029 18.568L84.4189 18.536C84.2199 18.688 84.1209 18.857 84.1209 19.043C84.1209 19.32 84.4749 19.46 85.1829 19.46H86.3849C87.1609 19.46 87.7529 19.627 88.1599 19.96C88.5659 20.293 88.7699 20.782 88.7699 21.426C88.7699 22.253 88.4249 22.894 87.7359 23.349C87.0469 23.804 86.0559 24.032 84.7659 24.032C83.7799 24.032 83.0259 23.86 82.5059 23.517C81.9839 23.173 81.7239 22.691 81.7239 22.072C81.7239 21.646 81.8569 21.29 82.1229 21.003C82.3879 20.716 82.7779 20.511 83.2929 20.389C83.0864 20.2991 82.9074 20.1563 82.7739 19.975C82.6333 19.8025 82.5551 19.5875 82.5519 19.365C82.5519 19.095 82.6299 18.871 82.7869 18.691C82.9429 18.512 83.1689 18.336 83.4629 18.163C83.0946 18.0055 82.7858 17.7352 82.5809 17.391C82.3639 17.038 82.2549 16.62 82.2549 16.139C82.2549 15.368 82.5059 14.771 83.0079 14.349C83.5089 13.927 84.2259 13.716 85.1589 13.716C85.3559 13.716 85.5909 13.735 85.8639 13.77C86.1349 13.806 86.3089 13.833 86.3849 13.849H88.8519ZM93.6109 13.716C93.8729 13.716 94.0889 13.736 94.2629 13.774L94.1179 15.583C93.9315 15.5371 93.7399 15.5156 93.5479 15.519C92.9319 15.519 92.4529 15.677 92.1089 15.994C91.7649 16.31 91.5939 16.753 91.5939 17.322V20.921H89.6649V13.849H91.1259L91.4109 15.039H91.5049C91.7239 14.642 92.0209 14.323 92.3939 14.081C92.7547 13.8419 93.1781 13.7149 93.6109 13.716ZM98.9509 17.644L98.2039 17.67C97.6429 17.686 97.2259 17.788 96.9519 17.973C96.6769 18.159 96.5409 18.441 96.5409 18.821C96.5409 19.365 96.8529 19.636 97.4769 19.636C97.9229 19.636 98.2809 19.509 98.5479 19.251C98.8159 18.994 98.9509 18.652 98.9509 18.226V17.644ZM99.5189 20.921L99.1459 19.96H99.0959C98.7709 20.368 98.4369 20.652 98.0929 20.81C97.7499 20.968 97.3009 21.048 96.7499 21.048C96.0709 21.048 95.5359 20.853 95.1459 20.466C94.7559 20.078 94.5609 19.525 94.5609 18.808C94.5609 18.057 94.8239 17.505 95.3479 17.148C95.8739 16.792 96.6649 16.594 97.7229 16.556L98.9509 16.518V16.209C98.9509 15.492 98.5839 15.134 97.8499 15.134C97.2849 15.134 96.6209 15.304 95.8579 15.646L95.2189 14.343C96.0329 13.918 96.9349 13.704 97.9249 13.704C98.8749 13.704 99.6019 13.911 100.108 14.324C100.614 14.737 100.867 15.366 100.867 16.209V20.921H99.5189ZM108.754 20.921H106.825V16.791C106.825 16.281 106.739 15.898 106.568 15.642C106.398 15.387 106.129 15.26 105.762 15.26C105.269 15.26 104.911 15.441 104.687 15.804C104.463 16.167 104.352 16.763 104.352 17.593V20.921H102.422V13.849H103.896L104.156 14.755H104.263C104.453 14.429 104.727 14.176 105.086 13.992C105.469 13.8023 105.892 13.7076 106.319 13.716C107.377 13.716 108.093 14.062 108.469 14.755H108.639C108.83 14.426 109.109 14.171 109.478 13.989C109.867 13.8023 110.295 13.7088 110.727 13.716C111.528 13.716 112.134 13.923 112.546 14.334C112.957 14.745 113.162 15.403 113.162 16.31V20.921H111.226V16.791C111.226 16.281 111.141 15.898 110.97 15.642C110.799 15.387 110.531 15.26 110.164 15.26C109.692 15.26 109.338 15.428 109.105 15.766C108.871 16.103 108.754 16.638 108.754 17.373V20.921ZM118.633 17.644L117.886 17.67C117.326 17.686 116.909 17.788 116.634 17.973C116.36 18.159 116.223 18.441 116.223 18.821C116.223 19.365 116.536 19.636 117.16 19.636C117.606 19.636 117.963 19.509 118.231 19.251C118.499 18.994 118.633 18.652 118.633 18.226V17.644ZM119.202 20.921L118.829 19.96H118.779C118.454 20.368 118.12 20.652 117.776 20.81C117.432 20.968 116.984 21.048 116.432 21.048C115.754 21.048 115.218 20.853 114.829 20.466C114.439 20.078 114.244 19.525 114.244 18.808C114.244 18.057 114.506 17.505 115.031 17.148C115.556 16.792 116.347 16.594 117.406 16.556L118.633 16.518V16.209C118.633 15.492 118.266 15.134 117.533 15.134C116.967 15.134 116.303 15.304 115.541 15.646L114.902 14.343C115.715 13.918 116.618 13.704 117.608 13.704C118.557 13.704 119.285 13.911 119.791 14.324C120.297 14.737 120.549 15.366 120.549 16.209V20.921H119.202ZM65.9399 35.094L63.7129 27.84H63.6569C63.7369 29.316 63.7769 30.3 63.7769 30.794V35.094H62.0249V25.848H64.6939L66.8819 32.919H66.9199L69.2409 25.848H71.9099V35.094H70.0829V30.718C70.0829 30.511 70.0859 30.273 70.0909 30.004C70.0979 29.733 70.1269 29.016 70.1769 27.853H70.1199L67.7359 35.094H65.9399ZM78.6989 35.094L78.4389 34.19H78.3369C78.1251 34.5244 77.8198 34.7894 77.4589 34.952C77.052 35.137 76.6089 35.2289 76.1619 35.221C75.3319 35.221 74.7059 34.999 74.2839 34.553C73.8619 34.109 73.6509 33.469 73.6509 32.635V28.023H75.5809V32.153C75.5809 32.664 75.6699 33.047 75.8519 33.301C76.0339 33.556 76.3229 33.684 76.7179 33.684C77.2579 33.684 77.6479 33.504 77.8889 33.143C78.1289 32.783 78.2499 32.185 78.2499 31.35V28.023H80.1779V35.094H78.6989ZM88.2959 35.094H86.3669V30.965C86.3669 30.455 86.2759 30.072 86.0939 29.816C85.9129 29.561 85.6249 29.434 85.2279 29.434C84.6879 29.434 84.2979 29.614 84.0579 29.974C83.8179 30.336 83.6979 30.933 83.6979 31.767V35.094H81.7679V28.023H83.2419L83.5019 28.928H83.6089C83.8239 28.587 84.1199 28.328 84.4979 28.153C84.9024 27.9721 85.3418 27.8823 85.7849 27.89C86.6069 27.89 87.2309 28.113 87.6569 28.558C88.0829 29.003 88.2959 29.645 88.2959 30.484V35.094ZM92.8369 33.684C93.3299 33.684 93.6909 33.541 93.9219 33.254C94.1509 32.968 94.2759 32.48 94.2969 31.793V31.585C94.2969 30.825 94.1799 30.281 93.9459 29.953C93.7129 29.624 93.3319 29.46 92.8039 29.46C92.3749 29.46 92.0409 29.641 91.8019 30.006C91.5639 30.371 91.4449 30.901 91.4449 31.597C91.4449 32.293 91.5649 32.814 91.8049 33.162C92.0459 33.51 92.3889 33.684 92.8369 33.684ZM92.1599 35.221C91.3289 35.221 90.6759 34.898 90.2019 34.254C89.7279 33.608 89.4909 32.714 89.4909 31.572C89.4909 30.412 89.7319 29.508 90.2139 28.862C90.6979 28.214 91.3629 27.89 92.2109 27.89C93.0999 27.89 93.7789 28.236 94.2469 28.928H94.3099C94.2193 28.463 94.1708 27.9907 94.1649 27.517V25.254H96.0999V35.094H94.6199L94.2469 34.177H94.1649C93.7259 34.873 93.0569 35.221 92.1599 35.221ZM97.6899 35.094H99.6199V28.023H97.6899V35.094ZM97.6079 26.196C97.6079 25.567 97.9579 25.254 98.6579 25.254C99.3579 25.254 99.7079 25.567 99.7079 26.196C99.7079 26.495 99.6209 26.728 99.4449 26.894C99.2699 27.061 99.0069 27.144 98.6579 27.144C97.9579 27.144 97.6079 26.828 97.6079 26.196ZM105.125 31.818L104.378 31.843C103.817 31.86 103.4 31.962 103.126 32.147C102.851 32.333 102.714 32.615 102.714 32.995C102.714 33.539 103.027 33.81 103.651 33.81C104.097 33.81 104.455 33.682 104.722 33.424C104.99 33.168 105.125 32.826 105.125 32.4V31.818ZM105.693 35.094L105.32 34.134H105.27C104.945 34.542 104.611 34.826 104.267 34.984C103.923 35.142 103.475 35.221 102.923 35.221C102.245 35.221 101.71 35.027 101.32 34.639C100.93 34.252 100.735 33.699 100.735 32.982C100.735 32.231 100.998 31.678 101.522 31.322C102.047 30.966 102.838 30.768 103.897 30.73L105.125 30.692V30.383C105.125 29.666 104.757 29.307 104.024 29.307C103.459 29.307 102.795 29.478 102.032 29.82L101.393 28.517C102.207 28.091 103.109 27.878 104.099 27.878C105.048 27.878 105.776 28.085 106.282 28.498C106.788 28.911 107.041 29.54 107.041 30.383V35.094H105.693ZM108.598 35.095H110.528V25.254H108.598V35.095ZM118.159 33.684C118.652 33.684 119.013 33.541 119.244 33.254C119.473 32.968 119.598 32.48 119.62 31.793V31.585C119.62 30.825 119.503 30.281 119.268 29.953C119.035 29.624 118.654 29.46 118.127 29.46C117.697 29.46 117.363 29.641 117.125 30.006C116.886 30.371 116.767 30.901 116.767 31.597C116.767 32.293 116.887 32.814 117.128 33.162C117.368 33.51 117.712 33.684 118.159 33.684ZM117.482 35.221C116.651 35.221 115.999 34.898 115.524 34.254C115.05 33.608 114.813 32.714 114.813 31.572C114.813 30.412 115.054 29.508 115.537 28.862C116.02 28.214 116.685 27.89 117.533 27.89C118.422 27.89 119.101 28.236 119.569 28.928H119.632C119.541 28.463 119.493 27.9907 119.487 27.517V25.254H121.422V35.094H119.942L119.569 34.177H119.487C119.048 34.873 118.38 35.221 117.482 35.221ZM125.991 29.263C125.582 29.263 125.261 29.393 125.029 29.652C124.797 29.912 124.665 30.279 124.63 30.756H127.338C127.33 30.279 127.205 29.912 126.964 29.652C126.724 29.393 126.4 29.263 125.991 29.263ZM126.262 35.221C125.125 35.221 124.234 34.907 123.593 34.279C122.953 33.65 122.632 32.76 122.632 31.61C122.632 30.424 122.928 29.508 123.521 28.862C124.113 28.214 124.932 27.89 125.978 27.89C126.977 27.89 127.755 28.175 128.312 28.745C128.869 29.314 129.146 30.1 129.146 31.103V32.04H124.587C124.608 32.588 124.77 33.016 125.074 33.324C125.378 33.631 125.803 33.785 126.351 33.785C126.757 33.7873 127.163 33.7427 127.559 33.652C127.969 33.5534 128.368 33.4112 128.748 33.228V34.721C128.405 34.8918 128.042 35.0181 127.667 35.097C127.204 35.1867 126.733 35.2282 126.262 35.221ZM66.5819 45.422C65.9629 43.427 65.6129 42.299 65.5349 42.039C65.4725 41.8342 65.4169 41.6274 65.3679 41.419C65.2289 41.959 64.8299 43.293 64.1729 45.422H66.5819ZM67.7209 49.267L67.0509 47.066H63.6799L63.0089 49.267H60.8969L64.1599 39.983H66.5569L69.8329 49.267H67.7209ZM70.6579 49.267H72.5879V39.426H70.6579V49.267ZM74.1839 49.267H76.1139V42.196H74.1839V49.267ZM74.1019 40.369C74.1019 39.74 74.4509 39.426 75.1519 39.426C75.8519 39.426 76.2009 39.74 76.2009 40.369C76.2009 40.668 76.1139 40.901 75.9389 41.067C75.7639 41.234 75.5009 41.317 75.1519 41.317C74.4509 41.317 74.1019 41.001 74.1019 40.369ZM84.0399 49.267H82.1109V45.137C82.1109 44.628 82.0259 44.245 81.8549 43.989C81.6849 43.734 81.4149 43.607 81.0489 43.607C80.5559 43.607 80.1969 43.788 79.9739 44.151C79.7499 44.513 79.6389 45.11 79.6389 45.94V49.267H77.7089V42.196H79.1829L79.4429 43.101H79.5499C79.7389 42.776 80.0139 42.522 80.3719 42.339C80.7309 42.155 81.1419 42.063 81.6059 42.063C82.6629 42.063 83.3799 42.409 83.7559 43.101H83.9259C84.1159 42.772 84.3959 42.517 84.7649 42.336C85.1544 42.1493 85.582 42.0558 86.0139 42.063C86.8149 42.063 87.4209 42.269 87.8319 42.68C88.2429 43.091 88.4479 43.75 88.4479 44.657V49.267H86.5129V45.137C86.5129 44.628 86.4279 44.245 86.2569 43.989C86.0859 43.734 85.8179 43.607 85.4499 43.607C84.9789 43.607 84.6249 43.775 84.3919 44.113C84.1569 44.45 84.0399 44.985 84.0399 45.719V49.267ZM92.9769 43.436C92.5679 43.436 92.2469 43.566 92.0149 43.825C91.7829 44.085 91.6509 44.452 91.6159 44.928H94.3229C94.3159 44.452 94.1909 44.085 93.9499 43.825C93.7099 43.566 93.3859 43.436 92.9769 43.436ZM93.2479 49.394C92.1099 49.394 91.2199 49.08 90.5789 48.452C89.9389 47.823 89.6179 46.933 89.6179 45.783C89.6179 44.597 89.9139 43.681 90.5069 43.035C91.0989 42.387 91.9179 42.063 92.9639 42.063C93.9629 42.063 94.7409 42.348 95.2979 42.918C95.8549 43.487 96.1319 44.273 96.1319 45.276V46.213H91.5719C91.5939 46.76 91.7559 47.189 92.0599 47.497C92.3629 47.804 92.7889 47.958 93.3369 47.958C93.7433 47.9603 94.1487 47.9157 94.5449 47.825C94.9249 47.737 95.3199 47.595 95.7339 47.401V48.894C95.3907 49.0649 95.0271 49.1913 94.6519 49.27C94.1894 49.3597 93.7189 49.4013 93.2479 49.394ZM103.907 49.267H101.979V45.137C101.979 44.628 101.888 44.245 101.706 43.989C101.525 43.734 101.236 43.607 100.84 43.607C100.3 43.607 99.9099 43.787 99.6699 44.147C99.4299 44.508 99.3099 45.106 99.3099 45.94V49.267H97.3799V42.196H98.8539L99.1129 43.101H99.2209C99.4359 42.759 99.7319 42.501 100.109 42.326C100.514 42.1451 100.953 42.0553 101.397 42.063C102.219 42.063 102.843 42.286 103.269 42.731C103.694 43.175 103.907 43.818 103.907 44.657V49.267ZM108.432 47.857C108.769 47.857 109.173 47.783 109.646 47.635V49.071C109.165 49.286 108.574 49.394 107.875 49.394C107.104 49.394 106.541 49.199 106.19 48.808C105.837 48.419 105.661 47.834 105.661 47.053V43.645H104.737V42.829L105.8 42.183L106.357 40.691H107.59V42.196H109.569V43.645H107.59V47.053C107.59 47.328 107.667 47.53 107.821 47.661C107.975 47.792 108.179 47.857 108.432 47.857ZM112.186 45.719C112.186 46.42 112.301 46.948 112.53 47.306C112.76 47.665 113.134 47.844 113.652 47.844C114.167 47.844 114.537 47.666 114.763 47.31C114.988 46.954 115.102 46.423 115.102 45.719C115.102 45.019 114.987 44.495 114.76 44.144C114.532 43.795 114.159 43.62 113.641 43.62C113.126 43.62 112.755 43.794 112.527 44.141C112.3 44.489 112.186 45.015 112.186 45.719ZM117.074 45.719C117.074 46.87 116.771 47.77 116.164 48.42C115.557 49.069 114.711 49.394 113.628 49.394C112.948 49.394 112.35 49.245 111.831 48.948C111.313 48.6509 110.896 48.2044 110.636 47.667C110.358 47.111 110.219 46.462 110.219 45.719C110.219 44.564 110.52 43.666 111.123 43.025C111.726 42.384 112.573 42.063 113.665 42.063C114.345 42.063 114.943 42.212 115.462 42.506C115.981 42.801 116.379 43.225 116.657 43.778C116.936 44.33 117.074 44.977 117.074 45.719ZM123.26 47.168C123.26 47.893 123.008 48.445 122.504 48.825C122 49.204 121.246 49.394 120.243 49.394C119.729 49.394 119.29 49.359 118.927 49.29C118.578 49.2235 118.237 49.1206 117.909 48.983V47.389C118.268 47.557 118.671 47.699 119.12 47.812C119.569 47.926 119.965 47.983 120.306 47.983C121.006 47.983 121.356 47.781 121.356 47.377C121.359 47.3091 121.348 47.2413 121.324 47.1777C121.3 47.1141 121.264 47.0561 121.217 47.007C121.124 46.912 120.964 46.803 120.736 46.683C120.509 46.563 120.205 46.423 119.825 46.263C119.281 46.036 118.882 45.825 118.627 45.631C118.389 45.4578 118.198 45.2287 118.07 44.964C117.954 44.713 117.897 44.404 117.897 44.037C117.897 43.409 118.14 42.923 118.627 42.579C119.114 42.235 119.804 42.063 120.698 42.063C121.55 42.063 122.378 42.249 123.184 42.62L122.602 44.011C122.277 43.8706 121.946 43.7461 121.609 43.638C121.304 43.5421 120.986 43.4932 120.666 43.493C120.098 43.493 119.813 43.647 119.813 43.955C119.813 44.128 119.904 44.277 120.088 44.404C120.272 44.53 120.673 44.717 121.293 44.966C121.845 45.19 122.25 45.399 122.507 45.592C122.764 45.787 122.954 46.01 123.076 46.263C123.198 46.516 123.26 46.818 123.26 47.168Z" fill="black"/>
</svg>
