<?xml version="1.0" encoding="UTF-8"?>
<svg width="132px" height="58px" viewBox="0 0 132 58" version="1.1" xmlns="http://www.w3.org/2000/svg" xmlns:xlink="http://www.w3.org/1999/xlink">
    <!-- Generator: Sketch 48.2 (47327) - http://www.bohemiancoding.com/sketch -->
    <title>standard/en/wfp-logo-standard-white-en</title>
    <desc>Created with Sketch.</desc>
    <defs></defs>
    <g id="White" stroke="none" stroke-width="1" fill="none" fill-rule="evenodd" transform="translate(-60.000000, -614.000000)">
        <g id="standard/en/wfp-logo-standard-white-en" transform="translate(60.000000, 614.000000)" fill="#FFFFFF">
            <path d="M35.934,4.664 L36.482,4.664 C36.993,4.664 37.377,4.563 37.631,4.36 C37.885,4.158 38.012,3.863 38.012,3.477 C38.012,3.087 37.905,2.799 37.693,2.612 C37.479,2.426 37.146,2.332 36.691,2.332 L35.934,2.332 L35.934,4.664 Z M39.694,3.418 C39.694,4.263 39.429,4.909 38.901,5.356 C38.373,5.805 37.622,6.028 36.648,6.028 L35.934,6.028 L35.934,8.821 L34.269,8.821 L34.269,0.969 L36.777,0.969 C37.729,0.969 38.453,1.173 38.949,1.584 C39.445,1.994 39.694,2.605 39.694,3.418 Z M30.157,8.821 L28.519,8.821 L28.519,0.969 L33.02,0.969 L33.02,2.332 L30.157,2.332 L30.157,4.358 L32.821,4.358 L32.821,5.717 L30.157,5.717 L30.157,8.821 Z M25.632,8.821 L23.736,8.821 L22.673,4.696 C22.633,4.549 22.566,4.246 22.471,3.786 C22.376,3.325 22.321,3.016 22.307,2.859 C22.286,3.053 22.232,3.364 22.147,3.791 C22.06,4.219 21.994,4.525 21.948,4.707 L20.889,8.821 L18.999,8.821 L16.995,0.969 L18.634,0.969 L19.638,5.254 C19.814,6.046 19.94,6.732 20.019,7.312 C20.041,7.108 20.09,6.792 20.167,6.364 C20.244,5.935 20.317,5.603 20.385,5.368 L21.529,0.969 L23.102,0.969 L24.246,5.368 C24.297,5.564 24.359,5.866 24.435,6.27 C24.509,6.675 24.567,7.022 24.606,7.312 C24.642,7.032 24.699,6.684 24.778,6.267 C24.857,5.85 24.928,5.513 24.993,5.254 L25.992,0.969 L27.63,0.969 L25.632,8.821 Z M21.559,36.134 C18.508,36.134 16.55,36.858 16.015,37.083 C15.984,37.097 15.958,37.052 15.983,37.027 C19.335,33.542 23.26,33.734 24.205,33.734 C25.16,33.734 35.366,33.734 35.366,33.734 C35.929,33.734 36.385,34.271 36.385,34.935 C36.385,35.597 35.929,36.134 35.366,36.134 C35.366,36.134 24.166,36.134 21.559,36.134 Z M24.074,39.219 C20.786,39.219 19.828,37.351 14.852,38.584 C14.818,38.593 14.795,38.546 14.824,38.526 C17.598,36.623 20.615,36.796 21.835,36.796 C22.79,36.796 35.366,36.796 35.366,36.796 C35.929,36.796 36.385,37.333 36.385,37.995 C36.385,38.657 35.929,39.194 35.366,39.194 C35.366,39.194 26.677,39.219 24.074,39.219 Z M24.307,42.256 C20.933,42.256 20.663,39.766 15.661,39.205 C15.626,39.201 15.622,39.149 15.656,39.141 C19.765,38.113 21.294,39.856 23.693,39.856 C24.649,39.856 35.366,39.856 35.366,39.856 C35.929,39.856 36.385,40.393 36.385,41.056 C36.385,41.719 35.929,42.256 35.366,42.256 C35.366,42.256 26.913,42.256 24.307,42.256 Z M23.575,33.073 C20.859,33.073 18.607,34.258 18.08,34.557 C18.05,34.573 18.021,34.538 18.04,34.511 C18.481,33.862 20.86,30.674 24.95,30.674 C25.905,30.674 35.366,30.674 35.366,30.674 C35.929,30.674 36.385,31.211 36.385,31.874 C36.385,32.536 35.929,33.073 35.366,33.073 C35.366,33.073 26.181,33.073 23.575,33.073 Z M38.516,26.448 C38.411,26.342 38.254,26.265 38.072,26.243 C37.938,26.225 37.818,26.246 37.71,26.286 C37.757,26.187 37.797,26.081 37.812,25.956 C37.839,25.763 37.802,25.581 37.729,25.444 C37.393,24.708 38.353,23.235 38.232,23.169 C38.117,23.105 37.571,24.729 37.041,25.385 C36.939,25.505 36.865,25.677 36.841,25.874 C36.823,26.068 36.855,26.251 36.928,26.387 C37.002,26.519 37.114,26.613 37.246,26.621 C37.282,26.626 37.319,26.623 37.353,26.615 C37.345,26.634 37.338,26.655 37.335,26.674 C37.314,26.817 37.369,26.953 37.477,27.062 C37.582,27.173 37.736,27.247 37.918,27.269 C38.104,27.293 38.277,27.256 38.411,27.176 C39.13,26.783 40.621,26.395 40.589,26.257 C40.56,26.119 39.106,26.972 38.516,26.448 Z M39.615,25.374 C39.516,25.266 39.374,25.191 39.209,25.175 C39.114,25.17 39.028,25.186 38.941,25.218 C38.954,25.172 38.972,25.133 38.978,25.087 C38.996,24.912 38.954,24.75 38.875,24.625 C38.51,23.948 39.463,22.669 39.34,22.606 C39.217,22.542 38.694,23.974 38.164,24.54 C38.059,24.641 37.986,24.79 37.967,24.965 C37.951,25.141 37.991,25.306 38.067,25.43 C38.151,25.553 38.266,25.64 38.405,25.659 C38.466,25.664 38.529,25.653 38.584,25.638 C38.581,25.645 38.573,25.656 38.576,25.664 C38.563,25.813 38.618,25.956 38.715,26.062 C38.815,26.169 38.959,26.243 39.119,26.257 C39.285,26.272 39.437,26.227 39.552,26.14 C40.172,25.693 41.589,25.428 41.552,25.284 C41.518,25.146 40.161,25.895 39.615,25.374 Z M40.579,24.381 C40.476,24.304 40.337,24.261 40.19,24.277 C40.119,24.28 40.054,24.301 39.993,24.328 C40.004,24.298 40.022,24.274 40.033,24.245 C40.072,24.094 40.059,23.939 40.009,23.815 C39.778,23.15 40.801,22.167 40.702,22.087 C40.602,22.013 39.938,23.204 39.392,23.623 C39.287,23.701 39.203,23.823 39.161,23.977 C39.117,24.125 39.13,24.282 39.182,24.405 C39.237,24.53 39.327,24.622 39.447,24.66 C39.539,24.689 39.631,24.67 39.718,24.633 C39.699,24.683 39.689,24.742 39.694,24.803 C39.707,24.939 39.773,25.053 39.881,25.133 C39.983,25.212 40.122,25.252 40.266,25.242 C40.416,25.226 40.545,25.162 40.633,25.066 C41.124,24.569 42.347,24.104 42.298,23.985 C42.245,23.865 41.146,24.75 40.579,24.381 Z M42.473,22.247 C42.371,22.096 41.515,23.034 40.883,23.124 C40.765,23.14 40.633,23.198 40.524,23.302 C40.405,23.408 40.329,23.538 40.303,23.663 C40.274,23.786 40.293,23.905 40.358,23.987 C40.429,24.073 40.537,24.11 40.657,24.096 C40.778,24.083 40.904,24.025 41.022,23.915 C41.132,23.812 41.209,23.682 41.237,23.559 C41.429,22.916 42.549,22.345 42.473,22.247 Z M24.779,23.517 C24.754,23.61 24.569,24.333 24.569,24.333 C24.517,24.362 24.297,24.314 24.239,24.309 C23.817,24.269 23.439,23.902 23.601,23.464 C23.734,23.106 24.005,23.068 24.349,23.052 C24.492,23.046 24.749,23.08 24.878,23.169 C24.878,23.169 24.827,23.334 24.779,23.517 Z M24.294,25.699 C24.281,25.781 24.268,25.863 24.255,25.946 C23.992,25.781 23.838,25.404 23.964,25.106 C24.061,24.88 24.301,24.821 24.478,24.811 C24.415,25.106 24.352,25.401 24.294,25.699 Z M23.916,28.395 C23.883,28.58 23.633,28.605 23.462,28.656 C22.966,28.805 22.496,28.741 22.344,28.148 C22.179,27.514 22.659,27.247 23.174,27.123 C23.454,27.057 23.714,27.112 23.906,27.349 C23.954,27.408 24.011,27.461 24.024,27.517 C24.024,27.517 23.947,28.221 23.916,28.395 Z M22.355,25.273 C22.738,25.181 23.134,25.037 23.428,25.414 C23.738,25.81 23.635,26.445 23.137,26.613 C22.809,26.724 22.412,26.82 22.132,26.552 C21.764,26.201 21.791,25.404 22.355,25.273 Z M21.98,23.217 C22.383,23.119 22.801,22.97 23.111,23.366 C23.433,23.78 23.326,24.45 22.803,24.625 C22.457,24.739 22.04,24.84 21.746,24.558 C21.36,24.192 21.389,23.355 21.98,23.217 Z M21.604,27.662 C21.499,28.032 21.194,28.087 20.875,28.164 C20.665,27.907 20.101,27.255 20.091,27.178 C20.088,27.153 20.091,27.124 20.103,27.088 C20.129,27.011 20.218,26.937 20.284,26.894 C20.476,26.769 20.885,26.677 21.106,26.722 C21.502,26.807 21.709,27.29 21.604,27.662 Z M19.599,25.763 C19.31,24.739 21.027,24.293 21.292,25.297 C21.565,26.329 19.833,26.767 19.599,25.763 Z M19.347,23.719 C19.053,22.702 20.778,22.255 21.043,23.254 C21.316,24.287 19.581,24.726 19.347,23.719 Z M19.106,21.71 C18.825,20.762 20.444,20.342 20.691,21.277 C20.945,22.239 19.326,22.654 19.106,21.71 Z M18.94,25.577 C18.861,25.624 18.831,25.649 18.804,25.649 L18.034,24.811 C18.043,24.787 18.281,24.615 18.361,24.569 C19.001,24.213 19.528,25.231 18.94,25.577 Z M17.479,23.69 C17.098,22.85 18.484,21.939 18.904,22.845 C19.289,23.679 17.903,24.606 17.479,23.69 Z M18.644,21.03 C19.082,21.809 17.762,22.678 17.384,21.84 C17.048,21.118 18.221,20.275 18.644,21.03 Z M17.536,19.215 C17.731,19.043 17.956,18.95 18.187,19.061 C18.557,19.239 18.568,19.794 18.245,20.015 C18.098,20.116 17.849,20.241 17.668,20.196 C17.271,20.095 17.195,19.516 17.536,19.215 Z M17.586,17.546 C17.746,17.438 17.959,17.341 18.143,17.416 C18.477,17.553 18.465,18.038 18.195,18.232 C18.071,18.32 17.849,18.429 17.699,18.389 C17.361,18.304 17.278,17.755 17.586,17.546 Z M18.473,15.168 C18.672,15.061 18.959,15.016 19.137,15.216 C19.347,15.451 19.279,15.809 19.003,15.95 C18.791,16.056 18.505,16.096 18.337,15.899 C18.153,15.687 18.191,15.321 18.473,15.168 Z M18.316,16.975 C18.155,16.38 19.158,16.099 19.321,16.704 C19.502,17.291 18.476,17.584 18.316,16.975 Z M19.932,18.014 C20.166,18.657 19.077,19.021 18.864,18.386 C18.647,17.743 19.741,17.376 19.932,18.014 Z M20.069,14.881 C20.277,14.798 20.543,14.708 20.775,14.881 C21.064,15.097 21.001,15.583 20.67,15.734 C20.452,15.833 20.174,15.899 19.98,15.726 C19.733,15.506 19.719,15.021 20.069,14.881 Z M19.877,20.262 C19.583,20.331 19.276,20.448 19.032,20.196 C18.72,19.874 18.809,19.311 19.232,19.157 C19.505,19.053 19.851,18.995 20.074,19.223 C20.36,19.516 20.329,20.153 19.877,20.262 Z M19.882,16.978 C19.694,16.34 20.733,16.013 20.932,16.632 C21.137,17.267 20.061,17.605 19.882,16.978 Z M21.622,18.147 C21.866,18.875 20.636,19.263 20.41,18.546 C20.182,17.812 21.421,17.424 21.622,18.147 Z M21.688,16.197 C21.905,16.139 22.134,16.16 22.299,16.337 C22.551,16.608 22.465,17.071 22.092,17.14 C21.917,17.172 21.646,17.159 21.509,17.039 C21.263,16.821 21.275,16.308 21.688,16.197 Z M22.738,17.725 C23.134,17.725 23.334,18.307 23.103,18.596 C22.964,18.771 22.664,18.782 22.46,18.75 C22.082,18.692 21.84,18.205 22.095,17.876 C22.25,17.677 22.515,17.725 22.738,17.725 Z M20.835,20.121 C20.591,19.284 22.013,18.91 22.231,19.741 C22.452,20.586 21.022,20.958 20.835,20.121 Z M21.707,21.192 C22.095,21.152 22.499,21.062 22.738,21.469 C22.987,21.899 22.801,22.497 22.297,22.598 C21.966,22.667 21.565,22.699 21.329,22.406 C21.019,22.019 21.142,21.245 21.707,21.192 Z M23.681,19.328 C24.161,19.526 24.323,20.092 23.985,20.408 C23.803,20.573 23.473,20.541 23.25,20.496 C22.803,20.408 22.512,19.738 22.903,19.42 C23.104,19.257 23.463,19.237 23.681,19.328 Z M24.436,21.346 C24.737,21.716 24.625,22.369 24.097,22.401 C23.822,22.417 23.462,22.385 23.276,22.159 C22.977,21.798 23.09,21.12 23.617,21.102 C23.893,21.091 24.25,21.12 24.436,21.346 Z M26.475,14.682 C26.446,14.64 26.394,14.616 26.341,14.632 C26.278,14.653 26.236,14.722 26.26,14.783 C27.465,18.02 25.926,19.614 25.283,21.88 C24.512,20.039 27.068,18.307 25.751,14.951 C25.732,14.908 25.698,14.873 25.651,14.866 C25.585,14.857 25.522,14.884 25.512,14.972 C25.478,15.208 25.323,17.068 23.814,18.158 C23.659,17.802 23.431,17.43 23.111,17.137 C22.971,16.51 22.562,15.649 21.701,15.395 C21.572,15.07 21.313,14.605 20.814,14.355 C20.344,14.121 19.801,14.142 19.197,14.416 C18.468,14.501 17.966,14.786 17.702,15.261 C17.452,15.71 17.497,16.199 17.581,16.532 C16.967,17.188 16.938,18.16 16.954,18.541 C16.589,19.417 16.794,20.44 16.909,20.865 C16.473,22.056 16.899,23.211 17.069,23.594 C17.069,23.698 17.074,23.796 17.08,23.894 C15.652,22.332 12.403,20.397 11.162,19.659 C11.104,19.624 11.03,19.632 10.981,19.68 C10.918,19.739 10.915,19.834 10.973,19.898 C13.741,22.598 16.211,25.93 18.583,32.844 C19.767,31.613 21.906,29.995 24.95,29.995 L28.511,29.995 C26.249,21.567 29.543,18.551 26.475,14.682 Z M43.311,19.04 C42.66,18.87 38.503,18.134 33.844,26.703 C34.524,23.512 36.59,19.651 37.156,18.53 L37.156,18.522 C37.191,18.458 37.172,18.375 37.114,18.33 C37.057,18.288 36.97,18.301 36.925,18.365 C33.847,23.498 32.766,26.456 32.128,29.995 L34.057,29.995 C34.385,26.583 38.694,18.546 43.287,19.143 L43.292,19.143 C43.319,19.149 43.342,19.127 43.345,19.104 C43.355,19.074 43.337,19.045 43.311,19.04 Z M34.049,47.272 L33.007,42.917 L31.233,42.917 C31.514,44.022 31.915,45.146 32.435,46.132 C32.469,46.19 32.532,46.225 32.595,46.215 C32.679,46.204 32.745,46.116 32.729,46.025 C32.608,45.103 32.464,44.214 32.327,43.326 C32.703,44.721 33.209,46.084 33.892,47.339 C33.91,47.378 33.949,47.396 33.986,47.384 C34.036,47.373 34.062,47.32 34.049,47.272 Z M35.842,45.295 C35.66,44.567 35.471,43.674 35.309,42.917 L34.634,42.917 C34.897,43.725 35.251,44.626 35.566,45.396 C35.597,45.471 35.668,45.508 35.736,45.489 C35.818,45.465 35.862,45.378 35.842,45.295 Z M36.067,47.856 L36.062,47.846 C35.844,47.237 35.542,46.692 35.303,46.108 C35.049,45.523 34.802,44.949 34.597,44.349 C34.427,43.9 34.246,43.385 34.107,42.917 L33.456,42.917 C33.64,43.462 33.879,44.049 34.102,44.575 C34.592,45.763 35.159,46.927 35.881,47.968 C35.907,48.006 35.957,48.021 36.004,48.003 C36.062,47.981 36.088,47.915 36.067,47.856 Z M37.041,26.956 C36.991,26.881 36.87,26.865 36.813,26.926 C35.629,28.175 34.912,29.504 34.666,29.995 L35.369,29.995 C35.721,29.169 36.513,27.71 37.023,27.184 L37.028,27.179 C37.08,27.12 37.09,27.022 37.041,26.956 Z M31.687,20.911 C32.338,19.842 33.304,19.024 34.123,18.036 C34.152,17.998 34.149,17.94 34.114,17.908 C34.083,17.873 34.03,17.873 33.997,17.905 C33.81,18.104 33.616,18.291 33.417,18.476 C33.33,18.434 33.11,18.519 32.886,18.694 C32.711,18.833 32.585,18.987 32.54,19.098 C32.427,19.072 32.215,19.204 32.023,19.449 C31.865,19.654 31.774,19.869 31.776,20.002 C31.655,20.012 31.48,20.166 31.33,20.411 C31.233,20.573 31.17,20.73 31.149,20.86 C31.052,20.926 30.942,21.051 30.84,21.213 C30.706,21.437 30.637,21.662 30.658,21.792 C30.627,21.849 30.595,21.902 30.569,21.957 C30.574,21.912 30.58,21.87 30.585,21.825 C30.777,20.312 31.054,18.814 31.477,17.369 C31.902,15.928 32.411,14.475 33.285,13.308 L33.291,13.303 C33.335,13.239 33.33,13.152 33.275,13.093 C33.22,13.032 33.128,13.029 33.07,13.09 C32.768,13.412 32.514,13.771 32.285,14.14 C32.186,14.087 31.976,14.284 31.816,14.592 C31.669,14.87 31.616,15.128 31.672,15.227 C31.672,15.227 31.669,15.235 31.663,15.232 C31.558,15.187 31.364,15.421 31.246,15.734 C31.131,16.029 31.11,16.3 31.189,16.391 C31.183,16.396 31.183,16.399 31.18,16.404 C31.063,16.361 30.871,16.63 30.753,17.01 C30.655,17.331 30.645,17.61 30.716,17.722 C30.721,17.727 30.716,17.741 30.711,17.738 C30.59,17.695 30.406,17.972 30.299,18.349 C30.191,18.713 30.199,19.035 30.301,19.098 C30.183,19.085 30.018,19.361 29.931,19.736 C29.853,20.06 29.861,20.339 29.937,20.451 C29.821,20.485 29.693,20.756 29.627,21.107 C29.564,21.45 29.595,21.734 29.679,21.825 C29.572,21.88 29.462,22.159 29.422,22.505 C29.383,22.848 29.433,23.129 29.522,23.22 C29.433,23.32 29.346,23.559 29.309,23.847 C29.273,24.12 29.296,24.357 29.349,24.49 C29.252,24.572 29.178,24.849 29.175,25.181 C29.168,25.446 29.207,25.672 29.275,25.802 C29.223,25.935 29.186,26.129 29.186,26.344 C29.181,26.623 29.225,26.862 29.296,26.987 C29.275,27.968 29.288,29.012 29.341,29.995 L31.459,29.995 C31.474,29.23 31.525,28.395 31.6,27.638 C31.75,26.288 31.973,24.917 32.648,23.764 L32.653,23.756 C32.674,23.714 32.671,23.666 32.64,23.629 C32.6,23.594 32.545,23.594 32.508,23.637 C31.592,24.7 31.191,26.143 30.955,27.527 C30.913,27.798 30.879,28.071 30.847,28.343 C30.905,27.232 31.007,26.126 31.262,25.074 C31.553,23.793 32.136,22.574 33.246,21.891 C33.28,21.87 33.299,21.825 33.285,21.779 C33.272,21.729 33.22,21.7 33.175,21.713 C33.104,21.734 33.039,21.771 32.97,21.801 C32.897,21.71 32.627,21.777 32.348,21.954 C32.083,22.127 31.907,22.34 31.926,22.457 C31.926,22.462 31.913,22.47 31.913,22.459 C31.91,22.446 31.907,22.433 31.9,22.425 C31.8,22.343 31.532,22.529 31.306,22.845 C31.078,23.161 30.989,23.491 31.086,23.576 C31.091,23.578 31.089,23.586 31.084,23.586 C30.965,23.538 30.769,23.807 30.645,24.182 C30.556,24.444 30.535,24.686 30.567,24.825 C30.567,24.829 30.561,24.835 30.561,24.835 C30.469,25.138 30.393,25.444 30.322,25.754 C30.349,25.316 30.388,24.875 30.451,24.439 C30.637,23.185 31.015,21.957 31.687,20.911 Z M38.35,17.413 C38.216,17.35 38.041,17.334 37.865,17.376 C37.734,17.408 37.629,17.472 37.539,17.546 C37.552,17.435 37.552,17.323 37.521,17.201 C37.479,17.01 37.384,16.853 37.269,16.752 C36.697,16.181 37.09,14.461 36.957,14.44 C36.826,14.422 36.873,16.136 36.603,16.938 C36.548,17.087 36.537,17.275 36.584,17.467 C36.632,17.656 36.726,17.815 36.844,17.918 C36.957,18.017 37.093,18.062 37.222,18.022 C37.256,18.017 37.29,18.001 37.319,17.979 C37.319,18.001 37.319,18.022 37.321,18.043 C37.351,18.184 37.45,18.293 37.587,18.357 C37.726,18.423 37.896,18.439 38.075,18.394 C38.256,18.351 38.405,18.253 38.503,18.134 C39.041,17.509 40.306,16.619 40.23,16.5 C40.153,16.383 39.085,17.695 38.35,17.413 Z M40.797,15.248 C40.715,15.131 39.702,16.313 39.012,16.018 C38.881,15.952 38.72,15.933 38.56,15.976 C38.471,16.003 38.395,16.051 38.324,16.109 C38.321,16.061 38.324,16.018 38.314,15.976 C38.272,15.804 38.177,15.668 38.059,15.578 C37.482,15.073 37.936,13.537 37.799,13.521 C37.66,13.505 37.663,15.033 37.363,15.75 C37.3,15.883 37.282,16.048 37.327,16.218 C37.369,16.388 37.464,16.529 37.582,16.619 C37.699,16.704 37.839,16.744 37.975,16.712 C38.035,16.696 38.088,16.664 38.135,16.63 C38.135,16.638 38.132,16.648 38.135,16.656 C38.177,16.803 38.277,16.917 38.405,16.983 C38.537,17.044 38.697,17.065 38.852,17.02 C39.012,16.978 39.138,16.88 39.217,16.76 C39.644,16.12 40.878,15.37 40.797,15.248 Z M41.046,13.768 C40.956,13.675 40.23,14.892 39.571,14.746 C39.447,14.711 39.303,14.719 39.172,14.786 C39.106,14.812 39.051,14.857 39.004,14.903 C39.004,14.873 39.012,14.844 39.012,14.812 C38.996,14.658 38.933,14.515 38.841,14.419 C38.398,13.877 39.014,12.594 38.896,12.554 C38.776,12.519 38.566,13.869 38.198,14.456 C38.125,14.568 38.088,14.711 38.104,14.868 C38.114,15.025 38.18,15.166 38.272,15.264 C38.366,15.362 38.482,15.416 38.608,15.408 C38.702,15.405 38.783,15.354 38.852,15.288 C38.852,15.341 38.862,15.399 38.888,15.455 C38.946,15.578 39.049,15.662 39.174,15.697 C39.298,15.737 39.445,15.726 39.576,15.662 C39.71,15.596 39.807,15.49 39.86,15.37 C40.148,14.73 41.132,13.861 41.046,13.768 Z M40.61,12.078 C40.461,11.972 39.986,13.154 39.421,13.462 C39.316,13.518 39.217,13.619 39.146,13.757 C39.075,13.898 39.049,14.047 39.067,14.172 C39.08,14.297 39.138,14.403 39.23,14.456 C39.324,14.512 39.437,14.509 39.545,14.454 C39.655,14.398 39.752,14.297 39.825,14.156 C39.894,14.018 39.92,13.869 39.904,13.744 C39.862,13.075 40.715,12.144 40.61,12.078 Z M30.252,42.917 L24.307,42.917 C23.903,42.917 23.538,42.885 23.202,42.824 C23.205,42.824 23.205,42.826 23.205,42.826 C24.181,44.277 25.711,45.378 27.262,46.116 C27.501,47.439 27.8,48.664 27.908,48.76 C28.018,48.855 29.54,48.417 29.588,48.276 C29.632,48.136 28.965,45.869 28.965,45.869 C29.766,44.495 30.013,43.684 30.252,42.917 Z M45.205,53.086 C43.704,53.679 41.746,53.728 40.148,53.304 C36.487,52.164 32.422,50.004 28.519,51.797 C24.617,50.004 20.552,52.164 16.891,53.304 C15.293,53.728 13.335,53.679 11.834,53.086 C11.792,53.07 11.76,53.123 11.797,53.152 C13.957,54.823 16.983,55.592 19.707,54.608 C22.323,53.793 24.536,51.021 27.635,52.204 C25.181,53.163 22.887,54.933 21.116,56.603 L22.404,57.661 C24.013,55.788 25.824,53.915 27.874,52.775 C28.154,52.61 28.322,52.544 28.519,52.533 C28.717,52.544 28.884,52.61 29.162,52.775 C31.215,53.915 33.026,55.788 34.634,57.661 L35.923,56.603 C34.152,54.933 31.858,53.163 29.404,52.204 C32.503,51.021 34.716,53.793 37.332,54.608 C40.056,55.592 43.082,54.823 45.242,53.152 C45.276,53.123 45.247,53.07 45.205,53.086 Z M21.076,50.561 C17.25,49.634 16.203,46.047 13.004,44.49 C12.97,44.472 12.933,44.512 12.954,44.543 C13.962,46.201 14.508,48.741 17.413,50.307 C17.437,50.319 17.424,50.357 17.397,50.349 C13.23,49.547 11.479,50.662 7.112,48.688 C7.075,48.672 7.036,48.712 7.06,48.747 C8.495,50.83 11.901,52.254 16.568,51.861 C18.248,51.718 19.465,51.011 21.076,50.634 C21.116,50.623 21.116,50.569 21.076,50.561 Z M13.062,48.361 C11.608,46.456 12.022,42.389 8.739,38.666 C8.713,38.637 8.666,38.66 8.674,38.697 C9.301,41.439 9.114,44.554 10.831,46.836 C10.847,46.86 10.823,46.884 10.799,46.868 C7.414,44.203 3.934,43.4 2.385,41.243 C2.362,41.214 2.315,41.229 2.32,41.267 C2.703,44.059 8.067,48.412 13.033,48.42 C13.062,48.42 13.08,48.386 13.062,48.361 Z M7.978,43.297 C6.419,40.406 8.282,35.995 6.514,31.709 C6.495,31.664 6.427,31.675 6.427,31.723 C6.375,34.063 4.921,37.558 5.8,40.196 C5.81,40.22 5.779,40.233 5.766,40.212 C3.527,36.941 1.751,36.258 0.27,33.264 C0.249,33.219 0.181,33.231 0.178,33.279 C0.084,35.314 0.984,36.973 2,38.514 C3.624,40.599 5.716,42.25 7.928,43.35 C7.963,43.366 7.994,43.331 7.978,43.297 Z M6.921,25.691 C6.918,25.643 6.855,25.627 6.831,25.669 C5.642,27.893 3.525,29.663 3.456,32.6 C3.454,32.629 3.422,32.631 3.417,32.604 C3.031,30.338 1.108,27.798 1.024,24.516 C1.024,24.466 0.953,24.453 0.934,24.5 C-0.648,28.768 1.627,32.814 4.049,36.157 C4.076,36.191 4.128,36.171 4.128,36.125 C4.029,32.583 7.099,29.939 6.921,25.691 Z M8.432,20.169 C7.309,21.729 4.782,22.832 3.858,25.082 C3.845,25.114 3.805,25.106 3.811,25.069 C4.178,22.547 3.204,19.619 4.118,16.269 C4.131,16.221 4.071,16.189 4.042,16.226 C2.661,17.924 2.194,19.914 2.118,22.064 C2.024,24.705 2.952,26.631 3.412,28.422 C3.422,28.465 3.477,28.462 3.488,28.419 C4.149,26.071 7.469,24.657 8.508,20.206 C8.522,20.159 8.461,20.129 8.432,20.169 Z M11.479,14.924 C9.632,16.372 6.81,17.767 6.204,18.774 C6.194,18.795 6.162,18.779 6.167,18.758 L6.852,15.471 C7.159,14.076 7.424,12.74 8.196,11.491 C8.22,11.454 8.175,11.411 8.141,11.438 C4.624,14.223 5.138,18.25 4.983,21.548 C4.981,21.583 5.023,21.599 5.047,21.575 C7.117,19.329 10.492,18.022 11.537,14.969 C11.55,14.932 11.51,14.9 11.479,14.924 Z M14.096,9.875 C10.988,9.974 8.705,12.591 7.726,15.923 C7.721,15.942 7.747,15.958 7.763,15.947 C12.044,12.809 11.804,11.464 14.122,9.971 C14.164,9.944 14.146,9.875 14.096,9.875 Z M49.924,48.688 C45.56,50.662 43.807,49.547 39.639,50.349 C39.613,50.357 39.6,50.319 39.623,50.307 C42.528,48.741 43.074,46.201 44.082,44.543 C44.103,44.512 44.067,44.472 44.032,44.49 C40.836,46.047 39.789,49.634 35.96,50.561 C35.92,50.569 35.92,50.623 35.96,50.634 C37.571,51.011 38.789,51.718 40.468,51.861 C45.134,52.254 48.544,50.83 49.977,48.747 C50,48.712 49.961,48.672 49.924,48.688 Z M54.65,41.243 C53.102,43.4 49.622,44.203 46.237,46.868 C46.216,46.884 46.19,46.86 46.208,46.836 C47.922,44.554 47.735,41.439 48.362,38.697 C48.37,38.66 48.323,38.637 48.297,38.666 C45.016,42.389 45.428,46.456 43.977,48.361 C43.959,48.386 43.974,48.42 44.006,48.42 C48.971,48.412 54.333,44.059 54.716,41.267 C54.721,41.229 54.674,41.214 54.65,41.243 Z M56.858,33.279 C56.855,33.231 56.787,33.219 56.766,33.264 C55.286,36.258 53.509,36.941 51.273,40.212 C51.257,40.233 51.228,40.22 51.237,40.196 C52.115,37.558 50.664,34.063 50.609,31.723 C50.609,31.675 50.541,31.664 50.523,31.709 C48.754,35.995 50.617,40.406 49.061,43.297 C49.042,43.331 49.074,43.366 49.108,43.35 C51.321,42.25 53.412,40.599 55.036,38.514 C56.052,36.973 56.952,35.314 56.858,33.279 Z M56.102,24.5 C56.084,24.453 56.013,24.466 56.013,24.516 C55.929,27.798 54.005,30.338 53.619,32.604 C53.614,32.631 53.583,32.629 53.583,32.6 C53.514,29.663 51.394,27.893 50.205,25.669 C50.181,25.627 50.118,25.643 50.118,25.691 C49.94,29.939 53.008,32.583 52.908,36.125 C52.908,36.171 52.963,36.191 52.989,36.157 C55.409,32.814 57.684,28.768 56.102,24.5 Z M54.918,22.064 C54.842,19.914 54.375,17.924 52.995,16.226 C52.966,16.189 52.908,16.221 52.919,16.269 C53.832,19.619 52.858,22.547 53.228,25.069 C53.233,25.106 53.192,25.114 53.178,25.082 C52.255,22.832 49.727,21.729 48.604,20.169 C48.578,20.129 48.517,20.159 48.528,20.206 C49.567,24.657 52.887,26.071 53.549,28.419 C53.559,28.462 53.614,28.465 53.625,28.422 C54.084,26.631 55.013,24.705 54.918,22.064 Z M48.895,11.438 C48.861,11.411 48.817,11.454 48.84,11.491 C49.612,12.74 49.877,14.076 50.184,15.471 L50.869,18.758 C50.874,18.779 50.842,18.795 50.832,18.774 C50.226,17.767 47.407,16.372 45.557,14.924 C45.528,14.9 45.486,14.932 45.499,14.969 C46.544,18.022 49.919,19.329 51.989,21.575 C52.013,21.599 52.055,21.583 52.052,21.548 C51.898,18.25 52.412,14.223 48.895,11.438 Z M42.941,9.875 C42.891,9.875 42.875,9.944 42.914,9.971 C45.232,11.464 44.993,12.809 49.273,15.947 C49.292,15.958 49.315,15.942 49.31,15.923 C48.331,12.591 46.048,9.974 42.941,9.875 Z" id="Fill-1"></path>
            <path d="M71.166,29.447 L68.934,29.447 L67.681,24.59 C67.635,24.417 67.556,24.06 67.444,23.518 C67.332,22.976 67.268,22.612 67.251,22.427 C67.226,22.654 67.163,23.02 67.062,23.524 C66.96,24.028 66.882,24.388 66.827,24.603 L65.582,29.447 L63.355,29.447 L60.996,20.201 L62.925,20.201 L64.108,25.248 C64.315,26.18 64.464,26.987 64.557,27.67 C64.582,27.43 64.64,27.058 64.731,26.554 C64.821,26.05 64.907,25.659 64.987,25.381 L66.334,20.201 L68.187,20.201 L69.534,25.381 C69.593,25.612 69.667,25.967 69.756,26.443 C69.844,26.92 69.912,27.328 69.958,27.67 C70,27.341 70.067,26.932 70.161,26.439 C70.253,25.949 70.338,25.552 70.414,25.248 L71.59,20.201 L73.519,20.201 L71.166,29.447" id="Fill-2"></path>
            <path d="M75.744,25.899 C75.744,26.6 75.858,27.128 76.089,27.486 C76.318,27.845 76.692,28.024 77.211,28.024 C77.725,28.024 78.095,27.846 78.321,27.49 C78.547,27.134 78.659,26.603 78.659,25.899 C78.659,25.199 78.546,24.675 78.318,24.324 C78.09,23.975 77.717,23.8 77.198,23.8 C76.684,23.8 76.313,23.974 76.085,24.321 C75.858,24.669 75.744,25.195 75.744,25.899 Z M80.632,25.899 C80.632,27.05 80.329,27.95 79.722,28.6 C79.115,29.249 78.269,29.574 77.186,29.574 C76.507,29.574 75.908,29.425 75.39,29.128 C74.871,28.831 74.472,28.403 74.195,27.847 C73.916,27.291 73.777,26.641 73.777,25.899 C73.777,24.744 74.078,23.846 74.681,23.205 C75.284,22.564 76.132,22.243 77.224,22.243 C77.902,22.243 78.501,22.392 79.02,22.686 C79.539,22.981 79.937,23.405 80.215,23.958 C80.493,24.51 80.632,25.157 80.632,25.899 Z" id="Fill-3"></path>
            <path d="M86.008,22.243 C86.27,22.243 86.487,22.263 86.66,22.301 L86.514,24.109 C86.359,24.067 86.169,24.046 85.945,24.046 C85.33,24.046 84.85,24.204 84.507,24.52 C84.163,24.837 83.991,25.279 83.991,25.849 L83.991,29.447 L82.062,29.447 L82.062,22.376 L83.523,22.376 L83.807,23.565 L83.902,23.565 C84.122,23.169 84.418,22.85 84.791,22.607 C85.164,22.365 85.57,22.243 86.008,22.243" id="Fill-4"></path>
            <polygon id="Fill-5" points="87.757 29.447 89.686 29.447 89.686 19.606 87.757 19.606"></polygon>
            <path d="M94.517,28.037 C95.01,28.037 95.372,27.893 95.602,27.606 C95.832,27.32 95.957,26.833 95.978,26.145 L95.978,25.937 C95.978,25.178 95.861,24.634 95.627,24.306 C95.393,23.976 95.012,23.812 94.485,23.812 C94.055,23.812 93.721,23.994 93.483,24.359 C93.245,24.724 93.126,25.254 93.126,25.95 C93.126,26.645 93.246,27.167 93.486,27.515 C93.727,27.863 94.07,28.037 94.517,28.037 Z M93.84,29.574 C93.009,29.574 92.357,29.251 91.883,28.606 C91.408,27.961 91.172,27.067 91.172,25.925 C91.172,24.765 91.413,23.861 91.896,23.215 C92.378,22.567 93.044,22.243 93.891,22.243 C94.78,22.243 95.46,22.589 95.927,23.281 L95.991,23.281 C95.894,22.754 95.845,22.283 95.845,21.87 L95.845,19.606 L97.78,19.606 L97.78,29.447 L96.3,29.447 L95.927,28.53 L95.845,28.53 C95.407,29.225 94.738,29.574 93.84,29.574 Z" id="Fill-6"></path>
            <polyline id="Fill-7" points="105.01 29.447 103.081 29.447 103.081 20.201 108.381 20.201 108.381 21.808 105.01 21.808 105.01 24.191 108.147 24.191 108.147 25.792 105.01 25.792 105.01 29.447"></polyline>
            <path d="M111.389,25.899 C111.389,26.6 111.504,27.128 111.734,27.486 C111.963,27.845 112.338,28.024 112.856,28.024 C113.37,28.024 113.74,27.846 113.966,27.49 C114.192,27.134 114.304,26.603 114.304,25.899 C114.304,25.199 114.191,24.675 113.963,24.324 C113.735,23.975 113.362,23.8 112.843,23.8 C112.329,23.8 111.958,23.974 111.73,24.321 C111.503,24.669 111.389,25.195 111.389,25.899 Z M116.277,25.899 C116.277,27.05 115.974,27.95 115.367,28.6 C114.76,29.249 113.914,29.574 112.831,29.574 C112.152,29.574 111.553,29.425 111.035,29.128 C110.516,28.831 110.117,28.403 109.84,27.847 C109.561,27.291 109.422,26.641 109.422,25.899 C109.422,24.744 109.723,23.846 110.326,23.205 C110.929,22.564 111.777,22.243 112.869,22.243 C113.548,22.243 114.146,22.392 114.665,22.686 C115.184,22.981 115.582,23.405 115.86,23.958 C116.138,24.51 116.277,25.157 116.277,25.899 Z" id="Fill-8"></path>
            <path d="M119.287,25.899 C119.287,26.6 119.402,27.128 119.631,27.486 C119.861,27.845 120.235,28.024 120.754,28.024 C121.268,28.024 121.638,27.846 121.864,27.49 C122.089,27.134 122.202,26.603 122.202,25.899 C122.202,25.199 122.089,24.675 121.861,24.324 C121.633,23.975 121.26,23.8 120.741,23.8 C120.227,23.8 119.856,23.974 119.628,24.321 C119.401,24.669 119.287,25.195 119.287,25.899 Z M124.175,25.899 C124.175,27.05 123.872,27.95 123.265,28.6 C122.658,29.249 121.812,29.574 120.729,29.574 C120.05,29.574 119.451,29.425 118.933,29.128 C118.414,28.831 118.015,28.403 117.737,27.847 C117.459,27.291 117.32,26.641 117.32,25.899 C117.32,24.744 117.621,23.846 118.224,23.205 C118.827,22.564 119.674,22.243 120.767,22.243 C121.445,22.243 122.044,22.392 122.563,22.686 C123.082,22.981 123.48,23.405 123.758,23.958 C124.036,24.51 124.175,25.157 124.175,25.899 Z" id="Fill-9"></path>
            <path d="M128.593,28.037 C129.086,28.037 129.447,27.893 129.677,27.606 C129.907,27.32 130.032,26.833 130.054,26.145 L130.054,25.937 C130.054,25.178 129.937,24.634 129.703,24.306 C129.469,23.976 129.088,23.812 128.561,23.812 C128.131,23.812 127.797,23.994 127.559,24.359 C127.32,24.724 127.201,25.254 127.201,25.95 C127.201,26.645 127.321,27.167 127.562,27.515 C127.802,27.863 128.146,28.037 128.593,28.037 Z M127.916,29.574 C127.085,29.574 126.433,29.251 125.959,28.606 C125.484,27.961 125.247,27.067 125.247,25.925 C125.247,24.765 125.488,23.861 125.971,23.215 C126.454,22.567 127.119,22.243 127.966,22.243 C128.856,22.243 129.535,22.589 130.003,23.281 L130.067,23.281 C129.969,22.754 129.921,22.283 129.921,21.87 L129.921,19.606 L131.856,19.606 L131.856,29.447 L130.376,29.447 L130.003,28.53 L129.921,28.53 C129.483,29.225 128.814,29.574 127.916,29.574 Z" id="Fill-10"></path>
            <path d="M64.157,37.78 L64.802,37.78 C65.405,37.78 65.856,37.661 66.156,37.423 C66.455,37.185 66.605,36.838 66.605,36.383 C66.605,35.923 66.479,35.584 66.228,35.364 C65.977,35.145 65.585,35.036 65.049,35.036 L64.157,35.036 L64.157,37.78 Z M68.585,36.313 C68.585,37.308 68.273,38.069 67.652,38.597 C67.03,39.124 66.145,39.387 64.999,39.387 L64.157,39.387 L64.157,42.676 L62.197,42.676 L62.197,33.43 L65.15,33.43 C66.272,33.43 67.125,33.671 67.709,34.153 C68.293,34.637 68.585,35.356 68.585,36.313 Z" id="Fill-11"></path>
            <path d="M73.471,35.472 C73.733,35.472 73.95,35.491 74.124,35.529 L73.978,37.338 C73.822,37.296 73.632,37.274 73.409,37.274 C72.793,37.274 72.313,37.433 71.969,37.749 C71.626,38.065 71.455,38.508 71.455,39.077 L71.455,42.676 L69.525,42.676 L69.525,35.604 L70.986,35.604 L71.271,36.794 L71.366,36.794 C71.585,36.397 71.882,36.078 72.255,35.836 C72.628,35.594 73.033,35.472 73.471,35.472" id="Fill-12"></path>
            <path d="M76.376,39.128 C76.376,39.828 76.491,40.356 76.72,40.715 C76.95,41.073 77.324,41.253 77.842,41.253 C78.357,41.253 78.727,41.074 78.953,40.719 C79.178,40.362 79.292,39.832 79.292,39.128 C79.292,38.428 79.177,37.903 78.95,37.553 C78.722,37.203 78.349,37.028 77.831,37.028 C77.316,37.028 76.945,37.202 76.717,37.55 C76.49,37.897 76.376,38.424 76.376,39.128 Z M81.264,39.128 C81.264,40.278 80.961,41.179 80.354,41.828 C79.747,42.477 78.901,42.803 77.818,42.803 C77.138,42.803 76.54,42.653 76.021,42.356 C75.503,42.059 75.104,41.632 74.826,41.075 C74.548,40.52 74.409,39.87 74.409,39.128 C74.409,37.973 74.71,37.074 75.313,36.434 C75.916,35.793 76.763,35.472 77.855,35.472 C78.535,35.472 79.133,35.62 79.652,35.915 C80.171,36.21 80.569,36.634 80.847,37.186 C81.126,37.738 81.264,38.386 81.264,39.128 Z" id="Fill-13"></path>
            <path d="M83.723,37.92 C83.723,38.304 83.811,38.607 83.986,38.83 C84.161,39.054 84.427,39.166 84.787,39.166 C85.149,39.166 85.415,39.054 85.584,38.83 C85.752,38.607 85.837,38.304 85.837,37.92 C85.837,37.068 85.486,36.642 84.787,36.642 C84.078,36.642 83.723,37.068 83.723,37.92 Z M83.022,43.675 C83.022,43.94 83.149,44.149 83.404,44.301 C83.66,44.453 84.017,44.529 84.476,44.529 C85.168,44.529 85.71,44.433 86.102,44.244 C86.494,44.055 86.69,43.795 86.69,43.467 C86.69,43.201 86.574,43.017 86.342,42.916 C86.11,42.814 85.752,42.765 85.267,42.765 L84.267,42.765 C83.914,42.765 83.617,42.848 83.38,43.014 C83.141,43.181 83.022,43.401 83.022,43.675 Z M88.48,35.604 L88.48,36.585 L87.373,36.87 C87.576,37.186 87.676,37.54 87.676,37.933 C87.676,38.691 87.412,39.282 86.882,39.706 C86.354,40.13 85.619,40.342 84.678,40.342 L84.331,40.323 L84.047,40.291 C83.848,40.443 83.749,40.612 83.749,40.798 C83.749,41.075 84.103,41.215 84.811,41.215 L86.013,41.215 C86.789,41.215 87.381,41.382 87.788,41.715 C88.194,42.048 88.398,42.537 88.398,43.182 C88.398,44.008 88.053,44.649 87.364,45.104 C86.674,45.559 85.684,45.787 84.394,45.787 C83.408,45.787 82.654,45.615 82.133,45.272 C81.612,44.929 81.352,44.446 81.352,43.827 C81.352,43.401 81.485,43.045 81.751,42.758 C82.016,42.472 82.406,42.266 82.921,42.144 C82.722,42.06 82.549,41.922 82.402,41.73 C82.255,41.538 82.18,41.335 82.18,41.12 C82.18,40.85 82.258,40.626 82.415,40.446 C82.571,40.267 82.797,40.091 83.092,39.918 C82.72,39.758 82.426,39.501 82.209,39.146 C81.992,38.793 81.883,38.375 81.883,37.894 C81.883,37.123 82.134,36.526 82.636,36.104 C83.137,35.683 83.854,35.472 84.787,35.472 C84.984,35.472 85.219,35.49 85.492,35.525 C85.763,35.561 85.937,35.588 86.013,35.604 L88.48,35.604 Z" id="Fill-14"></path>
            <path d="M93.057,35.472 C93.319,35.472 93.536,35.491 93.71,35.529 L93.564,37.338 C93.408,37.296 93.218,37.274 92.995,37.274 C92.379,37.274 91.899,37.433 91.555,37.749 C91.212,38.065 91.041,38.508 91.041,39.077 L91.041,42.676 L89.111,42.676 L89.111,35.604 L90.572,35.604 L90.857,36.794 L90.952,36.794 C91.171,36.397 91.467,36.078 91.84,35.836 C92.214,35.594 92.619,35.472 93.057,35.472" id="Fill-15"></path>
            <path d="M98.216,39.399 L97.469,39.425 C96.909,39.441 96.492,39.543 96.217,39.728 C95.943,39.914 95.806,40.196 95.806,40.576 C95.806,41.12 96.119,41.391 96.743,41.391 C97.189,41.391 97.547,41.264 97.814,41.006 C98.082,40.749 98.216,40.407 98.216,39.981 L98.216,39.399 Z M98.785,42.676 L98.412,41.715 L98.362,41.715 C98.037,42.123 97.703,42.407 97.359,42.565 C97.015,42.724 96.567,42.803 96.015,42.803 C95.337,42.803 94.801,42.608 94.412,42.221 C94.022,41.833 93.827,41.28 93.827,40.563 C93.827,39.812 94.09,39.26 94.614,38.903 C95.139,38.547 95.93,38.349 96.989,38.311 L98.216,38.273 L98.216,37.964 C98.216,37.247 97.849,36.889 97.116,36.889 C96.55,36.889 95.886,37.059 95.124,37.401 L94.485,36.099 C95.298,35.673 96.201,35.459 97.191,35.459 C98.14,35.459 98.868,35.666 99.374,36.079 C99.88,36.492 100.132,37.121 100.132,37.964 L100.132,42.676 L98.785,42.676 Z" id="Fill-16"></path>
            <path d="M107.838,42.676 L105.909,42.676 L105.909,38.546 C105.909,38.036 105.823,37.653 105.652,37.397 C105.482,37.142 105.213,37.016 104.846,37.016 C104.353,37.016 103.995,37.196 103.771,37.56 C103.548,37.922 103.436,38.518 103.436,39.349 L103.436,42.676 L101.506,42.676 L101.506,35.604 L102.98,35.604 L103.24,36.51 L103.347,36.51 C103.537,36.184 103.811,35.931 104.17,35.747 C104.528,35.563 104.939,35.472 105.403,35.472 C106.461,35.472 107.177,35.817 107.553,36.51 L107.723,36.51 C107.914,36.181 108.193,35.926 108.562,35.744 C108.93,35.562 109.347,35.472 109.811,35.472 C110.612,35.472 111.218,35.678 111.63,36.089 C112.041,36.5 112.246,37.158 112.246,38.065 L112.246,42.676 L110.31,42.676 L110.31,38.546 C110.31,38.036 110.225,37.653 110.054,37.397 C109.883,37.142 109.615,37.016 109.248,37.016 C108.776,37.016 108.423,37.184 108.189,37.521 C107.955,37.858 107.838,38.393 107.838,39.128 L107.838,42.676" id="Fill-17"></path>
            <path d="M119.952,42.676 L118.023,42.676 L118.023,38.546 C118.023,38.036 117.937,37.653 117.766,37.397 C117.596,37.142 117.327,37.016 116.961,37.016 C116.467,37.016 116.109,37.196 115.885,37.56 C115.662,37.922 115.55,38.518 115.55,39.349 L115.55,42.676 L113.621,42.676 L113.621,35.604 L115.094,35.604 L115.354,36.51 L115.462,36.51 C115.651,36.184 115.925,35.931 116.284,35.747 C116.642,35.563 117.053,35.472 117.517,35.472 C118.575,35.472 119.292,35.817 119.668,36.51 L119.838,36.51 C120.028,36.181 120.307,35.926 120.676,35.744 C121.045,35.562 121.462,35.472 121.925,35.472 C122.726,35.472 123.333,35.678 123.744,36.089 C124.155,36.5 124.36,37.158 124.36,38.065 L124.36,42.676 L122.424,42.676 L122.424,38.546 C122.424,38.036 122.339,37.653 122.169,37.397 C121.998,37.142 121.729,37.016 121.362,37.016 C120.89,37.016 120.537,37.184 120.303,37.521 C120.069,37.858 119.952,38.393 119.952,39.128 L119.952,42.676" id="Fill-18"></path>
            <path d="M128.707,36.845 C128.298,36.845 127.977,36.975 127.745,37.233 C127.513,37.493 127.381,37.86 127.346,38.337 L130.053,38.337 C130.046,37.86 129.921,37.493 129.68,37.233 C129.44,36.975 129.116,36.845 128.707,36.845 Z M128.978,42.803 C127.84,42.803 126.95,42.488 126.309,41.86 C125.669,41.231 125.348,40.342 125.348,39.191 C125.348,38.006 125.644,37.09 126.237,36.443 C126.829,35.796 127.648,35.472 128.694,35.472 C129.693,35.472 130.471,35.757 131.028,36.326 C131.585,36.895 131.862,37.682 131.862,38.685 L131.862,39.621 L127.302,39.621 C127.324,40.169 127.486,40.598 127.79,40.905 C128.093,41.213 128.519,41.366 129.067,41.366 C129.493,41.366 129.895,41.322 130.275,41.233 C130.655,41.145 131.05,41.004 131.464,40.809 L131.464,42.303 C131.127,42.472 130.766,42.597 130.382,42.679 C129.999,42.761 129.531,42.803 128.978,42.803 Z" id="Fill-19"></path>
        </g>
    </g>
</svg>