<svg width="297" height="73" viewBox="0 0 297 73" fill="none" xmlns="http://www.w3.org/2000/svg">
<path opacity="0.4" d="M198.23 53.3906C196.928 53.3906 195.783 53.2604 194.793 53C193.816 52.7396 192.964 52.4141 192.234 52.0234V49.0156C192.924 49.4323 193.797 49.8229 194.852 50.1875C195.919 50.5521 197.013 50.7344 198.133 50.7344C199.24 50.7344 200.158 50.5846 200.887 50.2852C201.629 49.9857 202.182 49.5755 202.547 49.0547C202.924 48.5208 203.113 47.9023 203.113 47.1992C203.113 46.6393 202.99 46.1576 202.742 45.7539C202.508 45.3372 202.117 44.9336 201.57 44.543C201.036 44.1523 200.32 43.7031 199.422 43.1953C198.419 42.6354 197.573 42.069 196.883 41.4961C196.193 40.9232 195.665 40.2982 195.301 39.6211C194.949 38.931 194.773 38.1302 194.773 37.2188C194.773 35.9948 195.073 34.9336 195.672 34.0352C196.271 33.1367 197.111 32.4401 198.191 31.9453C199.285 31.4505 200.561 31.2031 202.02 31.2031C203.309 31.2031 204.5 31.3529 205.594 31.6523C206.688 31.9388 207.632 32.2708 208.426 32.6484L207.371 35.2461C206.694 34.9206 205.919 34.6211 205.047 34.3477C204.174 34.0742 203.165 33.9375 202.02 33.9375C200.796 33.9375 199.819 34.2174 199.09 34.7773C198.374 35.3372 198.016 36.0924 198.016 37.043C198.016 37.5378 198.12 37.9805 198.328 38.3711C198.549 38.7617 198.927 39.1523 199.461 39.543C199.995 39.9206 200.724 40.3633 201.648 40.8711C202.547 41.3919 203.354 41.9258 204.07 42.4727C204.799 43.0065 205.372 43.625 205.789 44.3281C206.219 45.0182 206.434 45.8711 206.434 46.8867C206.434 48.2799 206.102 49.4648 205.438 50.4414C204.773 51.4049 203.823 52.1406 202.586 52.6484C201.362 53.1432 199.91 53.3906 198.23 53.3906ZM210.398 53L214.949 31.5938H217.605L217.098 35.7344H217.293C217.762 35.0573 218.328 34.3737 218.992 33.6836C219.656 32.9805 220.424 32.3945 221.297 31.9258C222.182 31.444 223.185 31.2031 224.305 31.2031C225.815 31.2031 226.961 31.6393 227.742 32.5117C228.523 33.3841 228.979 34.5755 229.109 36.0859H229.246C229.767 35.2917 230.392 34.5234 231.121 33.7812C231.85 33.026 232.677 32.4076 233.602 31.9258C234.539 31.444 235.568 31.2031 236.688 31.2031C238.341 31.2031 239.617 31.6523 240.516 32.5508C241.414 33.4492 241.863 34.7513 241.863 36.457C241.863 37.069 241.824 37.6484 241.746 38.1953C241.681 38.7422 241.577 39.3021 241.434 39.875L238.66 53H235.379L238.27 39.5234C238.387 38.9375 238.471 38.4297 238.523 38C238.589 37.5703 238.621 37.1602 238.621 36.7695C238.621 35.8971 238.387 35.207 237.918 34.6992C237.449 34.1914 236.727 33.9375 235.75 33.9375C235.06 33.9375 234.344 34.1263 233.602 34.5039C232.859 34.8815 232.137 35.4544 231.434 36.2227C230.743 36.9779 230.118 37.9349 229.559 39.0938C228.999 40.2526 228.549 41.6133 228.211 43.1758L226.121 53H222.879L225.73 39.582C225.848 38.9831 225.932 38.4688 225.984 38.0391C226.049 37.5964 226.082 37.2188 226.082 36.9062C226.082 35.9818 225.867 35.2591 225.438 34.7383C225.008 34.2044 224.305 33.9375 223.328 33.9375C222.638 33.9375 221.915 34.1198 221.16 34.4844C220.418 34.849 219.695 35.4219 218.992 36.2031C218.289 36.9844 217.645 37.9805 217.059 39.1914C216.473 40.4023 216.004 41.8607 215.652 43.5664L213.66 53H210.398ZM251.883 53.3906C250.724 53.3906 249.708 53.1107 248.836 52.5508C247.964 51.9909 247.286 51.1641 246.805 50.0703C246.323 48.9766 246.082 47.6419 246.082 46.0664C246.082 44.4909 246.245 42.974 246.57 41.5156C246.909 40.0573 247.384 38.7031 247.996 37.4531C248.608 36.2031 249.344 35.1094 250.203 34.1719C251.076 33.2344 252.052 32.5052 253.133 31.9844C254.214 31.4635 255.379 31.2031 256.629 31.2031C257.592 31.2031 258.426 31.3854 259.129 31.75C259.845 32.1146 260.438 32.5964 260.906 33.1953C261.388 33.7812 261.766 34.4062 262.039 35.0703H262.234L263.484 31.5938H265.965L261.434 53H258.836L259.422 48.8594H259.266C258.68 49.6406 258.009 50.3763 257.254 51.0664C256.499 51.7565 255.672 52.3164 254.773 52.7461C253.875 53.1758 252.911 53.3906 251.883 53.3906ZM252.938 50.6953C253.94 50.6953 254.93 50.3307 255.906 49.6016C256.896 48.8594 257.781 47.8633 258.562 46.6133C259.357 45.3503 259.962 43.931 260.379 42.3555C260.587 41.5872 260.724 40.8841 260.789 40.2461C260.867 39.5951 260.906 38.9896 260.906 38.4297C260.906 37.0885 260.548 36.0078 259.832 35.1875C259.129 34.3542 258.165 33.9375 256.941 33.9375C256.069 33.9375 255.249 34.1589 254.48 34.6016C253.712 35.0312 253.016 35.6367 252.391 36.418C251.779 37.1862 251.251 38.0846 250.809 39.1133C250.366 40.1289 250.021 41.2357 249.773 42.4336C249.539 43.6315 249.422 44.862 249.422 46.125C249.422 47.6224 249.728 48.7617 250.34 49.543C250.952 50.3112 251.818 50.6953 252.938 50.6953ZM267.898 53L272.449 31.5938H275.105L274.598 35.7344H274.793C275.34 34.9922 275.926 34.276 276.551 33.5859C277.176 32.8828 277.885 32.3099 278.68 31.8672C279.487 31.4245 280.411 31.2031 281.453 31.2031C281.844 31.2031 282.241 31.2292 282.645 31.2812C283.048 31.3203 283.426 31.3919 283.777 31.4961L283.074 34.4062C282.723 34.3281 282.378 34.2695 282.039 34.2305C281.714 34.1914 281.375 34.1719 281.023 34.1719C280.034 34.1719 279.116 34.4323 278.27 34.9531C277.423 35.4609 276.661 36.1445 275.984 37.0039C275.32 37.8633 274.754 38.8203 274.285 39.875C273.829 40.9297 273.484 42.0039 273.25 43.0977L271.16 53H267.898ZM289.812 53.3906C288.393 53.3906 287.208 53.0521 286.258 52.375C285.32 51.6849 284.852 50.5065 284.852 48.8398C284.852 48.4362 284.878 48 284.93 47.5312C284.982 47.0495 285.066 46.5547 285.184 46.0469L287.703 34.0742H284.402L284.715 32.5703L288.27 31.2031L290.613 26.6719H292.547L291.473 31.5938H296.98L296.473 34.0742H290.984L288.445 46.0859C288.354 46.4505 288.27 46.8411 288.191 47.2578C288.126 47.6745 288.094 48.0716 288.094 48.4492C288.094 49.1003 288.263 49.6471 288.602 50.0898C288.94 50.5195 289.507 50.7344 290.301 50.7344C290.796 50.7344 291.264 50.6888 291.707 50.5977C292.163 50.5065 292.645 50.3763 293.152 50.207V52.707C292.827 52.8633 292.332 53.013 291.668 53.1562C291.017 53.3125 290.398 53.3906 289.812 53.3906Z" fill="black"/>
<path d="M15.4297 36.2764V45.0654H12.5732V53H2.66113V31.8086C2.66113 27.707 3.77604 24.5251 6.00586 22.2627C8.25195 19.984 11.4014 18.8447 15.4541 18.8447C19.3604 18.8447 22.2493 19.8783 24.1211 21.9453C25.9928 23.9961 26.9287 27.1699 26.9287 31.4668V53H17.0166V32.126C17.0166 30.8239 16.862 29.9206 16.5527 29.416C16.2435 28.9115 15.6901 28.6592 14.8926 28.6592C13.3464 28.6592 12.5732 29.8148 12.5732 32.126V36.2764H15.4297ZM31.251 53V31.3691C31.251 27.5768 32.3822 24.5413 34.6445 22.2627C36.9232 19.984 39.9505 18.8447 43.7266 18.8447C47.4863 18.8447 50.359 19.9515 52.3447 22.165C54.3467 24.3786 55.3477 27.5605 55.3477 31.7109V53H45.4355V31.7109C45.4355 29.6764 44.7113 28.6592 43.2627 28.6592C41.863 28.6592 41.1631 29.6764 41.1631 31.7109V53H31.251ZM72.4629 36.2764V45.0654H69.6064V53H59.6943V31.8086C59.6943 27.707 60.8092 24.5251 63.0391 22.2627C65.2852 19.984 68.4346 18.8447 72.4873 18.8447C76.3936 18.8447 79.2826 19.8783 81.1543 21.9453C83.026 23.9961 83.9619 27.1699 83.9619 31.4668V53H74.0498V32.126C74.0498 30.8239 73.8952 29.9206 73.5859 29.416C73.2767 28.9115 72.7233 28.6592 71.9258 28.6592C70.3796 28.6592 69.6064 29.8148 69.6064 32.126V36.2764H72.4629ZM88.9678 19.6748H101.077C108.255 19.6748 111.844 22.4987 111.844 28.1465C111.844 30.946 110.615 33.2734 108.157 35.1289C111.722 36.6751 113.504 39.4339 113.504 43.4053C113.504 46.4489 112.454 48.874 110.354 50.6807C109.329 51.5433 108.23 52.1455 107.059 52.4873C105.887 52.8291 104.308 53 102.322 53H100.442V44.4307H102.127C103.12 44.4307 103.82 44.3086 104.227 44.0645C104.633 43.804 104.837 43.3564 104.837 42.7217C104.837 41.6475 104.007 41.1104 102.347 41.1104H100.442V32.2236C102.265 32.2236 103.177 31.597 103.177 30.3438C103.177 29.1882 102.355 28.6104 100.711 28.6104H98.8799V53H88.9678V19.6748ZM132.328 18.8447C137.048 18.8447 141.093 20.5618 144.462 23.9961C147.847 27.4303 149.54 31.54 149.54 36.3252C149.54 41.1917 147.839 45.3258 144.438 48.7275C141.036 52.1292 136.902 53.8301 132.035 53.8301C127.201 53.8301 123.075 52.1211 119.657 48.7031C116.239 45.2852 114.53 41.1592 114.53 36.3252C114.53 31.4424 116.247 27.3083 119.682 23.9229C123.132 20.5374 127.348 18.8447 132.328 18.8447ZM132.035 28.6592C130.001 28.6592 128.267 29.4079 126.835 30.9053C125.403 32.4027 124.687 34.2093 124.687 36.3252C124.687 38.4411 125.403 40.2477 126.835 41.7451C128.284 43.2425 130.017 43.9912 132.035 43.9912C134.086 43.9912 135.819 43.2507 137.235 41.7695C138.668 40.2721 139.384 38.4574 139.384 36.3252C139.384 34.193 138.668 32.3864 137.235 30.9053C135.819 29.4079 134.086 28.6592 132.035 28.6592ZM176.177 19.6748L167.51 35.8857L176.47 53H166.045L161.943 44.9189L158.477 53H148.223L157.378 36.1543L148.711 19.6748H159.038L162.92 27.2432L166.045 19.6748H176.177Z" fill="#006BE7"/>
<path d="M181.931 29.5127V21.5586H184.33C185.309 21.5586 186.026 21.7666 186.483 22.1826C186.94 22.5986 187.169 23.1963 187.169 23.9756C187.169 24.5439 187.025 24.9922 186.738 25.3203C186.451 25.6426 186.126 25.877 185.763 26.0234L187.854 29.5127H186.22L184.506 26.4893H183.39V29.5127H181.931ZM183.39 25.2852H184.286C184.755 25.2852 185.106 25.168 185.341 24.9336C185.575 24.6934 185.692 24.3857 185.692 24.0107C185.692 23.583 185.584 23.2754 185.367 23.0879C185.156 22.8945 184.79 22.7979 184.269 22.7979H183.39V25.2852ZM184.488 32.1758C183.533 32.1758 182.651 32.0146 181.843 31.6924C181.04 31.3643 180.34 30.9043 179.742 30.3125C179.15 29.7207 178.69 29.0234 178.362 28.2207C178.04 27.4121 177.879 26.5303 177.879 25.5752C177.879 24.6611 178.043 23.8057 178.371 23.0088C178.705 22.2061 179.171 21.5029 179.769 20.8994C180.372 20.2959 181.075 19.8242 181.878 19.4844C182.681 19.1387 183.551 18.9658 184.488 18.9658C185.402 18.9658 186.258 19.1299 187.055 19.458C187.857 19.7803 188.561 20.2402 189.164 20.8379C189.768 21.4297 190.239 22.127 190.579 22.9297C190.925 23.7324 191.098 24.6143 191.098 25.5752C191.098 26.5303 190.934 27.4121 190.605 28.2207C190.283 29.0234 189.823 29.7207 189.226 30.3125C188.634 30.9043 187.937 31.3643 187.134 31.6924C186.331 32.0146 185.449 32.1758 184.488 32.1758ZM184.488 31.0244C185.227 31.0244 185.918 30.8926 186.562 30.6289C187.207 30.3594 187.775 29.9814 188.268 29.4951C188.76 29.0088 189.144 28.4346 189.419 27.7725C189.694 27.1045 189.832 26.3721 189.832 25.5752C189.832 24.8252 189.697 24.1191 189.428 23.457C189.158 22.7949 188.78 22.2119 188.294 21.708C187.813 21.2041 187.248 20.8115 186.598 20.5303C185.953 20.2432 185.25 20.0996 184.488 20.0996C183.721 20.0996 183.009 20.2344 182.353 20.5039C181.702 20.7734 181.134 21.1543 180.647 21.6465C180.161 22.1328 179.783 22.71 179.514 23.3779C179.244 24.0459 179.109 24.7783 179.109 25.5752C179.109 26.3721 179.241 27.1045 179.505 27.7725C179.769 28.4346 180.141 29.0088 180.621 29.4951C181.102 29.9814 181.67 30.3594 182.326 30.6289C182.982 30.8926 183.703 31.0244 184.488 31.0244Z" fill="#006BE7"/>
</svg>
