<?xml version="1.0" encoding="UTF-8"?>
<svg width="211px" height="58px" viewBox="0 0 211 58" version="1.1" xmlns="http://www.w3.org/2000/svg" xmlns:xlink="http://www.w3.org/1999/xlink">
    <!-- Generator: Sketch 48.2 (47327) - http://www.bohemiancoding.com/sketch -->
    <title>extended/ar/wfp-logo-extended-white-ar</title>
    <desc>Created with Sketch.</desc>
    <defs></defs>
    <g id="White" stroke="none" stroke-width="1" fill="none" fill-rule="evenodd" transform="translate(-1019.000000, -426.000000)">
        <g id="extended/ar/wfp-logo-extended-white-ar" transform="translate(1019.000000, 426.000000)" fill="#FFFFFF">
            <path d="M189.878,4.664 L190.426,4.664 C190.938,4.664 191.322,4.563 191.575,4.36 C191.829,4.158 191.957,3.863 191.957,3.477 C191.957,3.087 191.851,2.799 191.638,2.612 C191.424,2.426 191.091,2.332 190.636,2.332 L189.878,2.332 L189.878,4.664 Z M193.638,3.418 C193.638,4.263 193.374,4.909 192.846,5.356 C192.318,5.805 191.567,6.028 190.593,6.028 L189.878,6.028 L189.878,8.821 L188.214,8.821 L188.214,0.969 L190.722,0.969 C191.674,0.969 192.398,1.173 192.894,1.584 C193.391,1.994 193.638,2.605 193.638,3.418 Z M184.102,8.821 L182.464,8.821 L182.464,0.969 L186.965,0.969 L186.965,2.332 L184.102,2.332 L184.102,4.358 L186.766,4.358 L186.766,5.717 L184.102,5.717 L184.102,8.821 Z M179.577,8.821 L177.681,8.821 L176.617,4.696 C176.577,4.549 176.511,4.246 176.416,3.786 C176.321,3.325 176.266,3.016 176.252,2.859 C176.231,3.053 176.177,3.364 176.091,3.791 C176.005,4.219 175.939,4.525 175.893,4.707 L174.834,8.821 L172.944,8.821 L170.941,0.969 L172.578,0.969 L173.583,5.254 C173.758,6.046 173.885,6.732 173.964,7.312 C173.986,7.108 174.034,6.792 174.112,6.364 C174.189,5.935 174.261,5.603 174.329,5.368 L175.473,0.969 L177.047,0.969 L178.192,5.368 C178.241,5.564 178.304,5.866 178.379,6.27 C178.454,6.675 178.512,7.022 178.551,7.312 C178.586,7.032 178.644,6.684 178.723,6.267 C178.802,5.85 178.873,5.513 178.938,5.254 L179.937,0.969 L181.574,0.969 L179.577,8.821 Z M175.504,36.134 C172.453,36.134 170.494,36.858 169.96,37.083 C169.928,37.097 169.904,37.052 169.927,37.027 C173.281,33.542 177.205,33.734 178.15,33.734 C179.105,33.734 189.312,33.734 189.312,33.734 C189.873,33.734 190.329,34.271 190.329,34.935 C190.329,35.597 189.873,36.134 189.312,36.134 C189.312,36.134 178.111,36.134 175.504,36.134 Z M178.019,39.219 C174.732,39.219 173.773,37.351 168.797,38.584 C168.763,38.593 168.74,38.546 168.769,38.526 C171.543,36.623 174.56,36.796 175.78,36.796 C176.736,36.796 189.312,36.796 189.312,36.796 C189.873,36.796 190.329,37.333 190.329,37.995 C190.329,38.657 189.873,39.194 189.312,39.194 C189.312,39.194 180.622,39.219 178.019,39.219 Z M178.252,42.256 C174.877,42.256 174.608,39.766 169.606,39.205 C169.571,39.201 169.567,39.149 169.601,39.141 C173.71,38.113 175.239,39.856 177.638,39.856 C178.593,39.856 189.312,39.856 189.312,39.856 C189.873,39.856 190.329,40.393 190.329,41.056 C190.329,41.719 189.873,42.256 189.312,42.256 C189.312,42.256 180.858,42.256 178.252,42.256 Z M177.52,33.073 C174.803,33.073 172.551,34.258 172.025,34.557 C171.995,34.573 171.966,34.538 171.985,34.511 C172.425,33.862 174.805,30.674 178.895,30.674 C179.851,30.674 189.312,30.674 189.312,30.674 C189.873,30.674 190.329,31.211 190.329,31.874 C190.329,32.536 189.873,33.073 189.312,33.073 C189.312,33.073 180.126,33.073 177.52,33.073 Z M192.46,26.448 C192.356,26.342 192.198,26.265 192.017,26.243 C191.883,26.225 191.763,26.246 191.655,26.286 C191.702,26.187 191.741,26.081 191.757,25.956 C191.783,25.763 191.746,25.581 191.673,25.444 C191.337,24.708 192.298,23.235 192.177,23.169 C192.062,23.105 191.516,24.729 190.986,25.385 C190.883,25.505 190.81,25.677 190.786,25.874 C190.768,26.068 190.799,26.251 190.873,26.387 C190.947,26.519 191.059,26.613 191.191,26.621 C191.227,26.626 191.264,26.623 191.298,26.615 C191.29,26.634 191.282,26.655 191.28,26.674 C191.259,26.817 191.314,26.953 191.421,27.062 C191.527,27.173 191.681,27.247 191.863,27.269 C192.048,27.293 192.222,27.256 192.356,27.176 C193.074,26.783 194.566,26.395 194.533,26.257 C194.505,26.119 193.051,26.972 192.46,26.448 Z M193.56,25.374 C193.46,25.266 193.319,25.191 193.154,25.175 C193.059,25.17 192.972,25.186 192.886,25.218 C192.899,25.172 192.917,25.133 192.922,25.087 C192.941,24.912 192.899,24.75 192.821,24.625 C192.455,23.948 193.408,22.669 193.284,22.606 C193.161,22.542 192.639,23.974 192.109,24.54 C192.004,24.641 191.931,24.79 191.912,24.965 C191.897,25.141 191.936,25.306 192.012,25.43 C192.096,25.553 192.211,25.64 192.351,25.659 C192.41,25.664 192.474,25.653 192.529,25.638 C192.527,25.645 192.519,25.656 192.521,25.664 C192.508,25.813 192.563,25.956 192.66,26.062 C192.76,26.169 192.905,26.243 193.064,26.257 C193.23,26.272 193.382,26.227 193.497,26.14 C194.116,25.693 195.533,25.428 195.497,25.284 C195.463,25.146 194.106,25.895 193.56,25.374 Z M194.524,24.381 C194.421,24.304 194.281,24.261 194.135,24.277 C194.064,24.28 193.998,24.301 193.938,24.328 C193.948,24.298 193.967,24.274 193.978,24.245 C194.017,24.094 194.004,23.939 193.954,23.815 C193.723,23.15 194.746,22.167 194.647,22.087 C194.547,22.013 193.883,23.204 193.337,23.623 C193.233,23.701 193.148,23.823 193.107,23.977 C193.062,24.125 193.074,24.282 193.127,24.405 C193.182,24.53 193.272,24.622 193.392,24.66 C193.484,24.689 193.576,24.67 193.662,24.633 C193.644,24.683 193.634,24.742 193.639,24.803 C193.653,24.939 193.718,25.053 193.825,25.133 C193.928,25.212 194.067,25.252 194.211,25.242 C194.361,25.226 194.49,25.162 194.578,25.066 C195.07,24.569 196.292,24.104 196.242,23.985 C196.19,23.865 195.09,24.75 194.524,24.381 Z M196.418,22.247 C196.316,22.096 195.46,23.034 194.827,23.124 C194.709,23.14 194.578,23.198 194.468,23.302 C194.35,23.408 194.274,23.538 194.248,23.663 C194.219,23.786 194.238,23.905 194.303,23.987 C194.374,24.073 194.482,24.11 194.602,24.096 C194.723,24.083 194.849,24.025 194.967,23.915 C195.077,23.812 195.154,23.682 195.182,23.559 C195.373,22.916 196.494,22.345 196.418,22.247 Z M178.725,23.517 C178.698,23.61 178.515,24.333 178.515,24.333 C178.462,24.362 178.241,24.314 178.184,24.309 C177.761,24.269 177.384,23.902 177.546,23.464 C177.679,23.106 177.949,23.068 178.294,23.052 C178.437,23.046 178.694,23.08 178.823,23.169 C178.823,23.169 178.772,23.334 178.725,23.517 Z M178.239,25.699 C178.226,25.781 178.213,25.863 178.199,25.946 C177.937,25.781 177.782,25.404 177.908,25.106 C178.005,24.88 178.246,24.821 178.423,24.811 C178.36,25.106 178.297,25.401 178.239,25.699 Z M177.861,28.395 C177.828,28.58 177.577,28.605 177.407,28.656 C176.911,28.805 176.442,28.741 176.289,28.148 C176.123,27.514 176.604,27.247 177.118,27.123 C177.399,27.057 177.659,27.112 177.851,27.349 C177.899,27.408 177.955,27.461 177.968,27.517 C177.968,27.517 177.892,28.221 177.861,28.395 Z M176.299,25.273 C176.683,25.181 177.079,25.037 177.373,25.414 C177.683,25.81 177.58,26.445 177.081,26.613 C176.753,26.724 176.358,26.82 176.076,26.552 C175.709,26.201 175.736,25.404 176.299,25.273 Z M175.924,23.217 C176.328,23.119 176.745,22.97 177.055,23.366 C177.378,23.78 177.271,24.45 176.748,24.625 C176.402,24.739 175.985,24.84 175.691,24.558 C175.305,24.192 175.334,23.355 175.924,23.217 Z M175.549,27.662 C175.444,28.032 175.14,28.087 174.82,28.164 C174.61,27.907 174.046,27.255 174.036,27.178 C174.032,27.153 174.036,27.124 174.048,27.088 C174.074,27.011 174.163,26.937 174.229,26.894 C174.42,26.769 174.829,26.677 175.05,26.722 C175.447,26.807 175.654,27.29 175.549,27.662 Z M173.544,25.763 C173.255,24.739 174.972,24.293 175.237,25.297 C175.51,26.329 173.778,26.767 173.544,25.763 Z M173.292,23.719 C172.998,22.702 174.722,22.255 174.988,23.254 C175.26,24.287 173.526,24.726 173.292,23.719 Z M173.05,21.71 C172.77,20.762 174.389,20.342 174.636,21.277 C174.89,22.239 173.271,22.654 173.05,21.71 Z M172.885,25.577 C172.805,25.624 172.776,25.649 172.749,25.649 L171.979,24.811 C171.988,24.787 172.227,24.615 172.305,24.569 C172.946,24.213 173.473,25.231 172.885,25.577 Z M171.423,23.69 C171.043,22.85 172.429,21.939 172.849,22.845 C173.235,23.679 171.849,24.606 171.423,23.69 Z M172.588,21.03 C173.027,21.809 171.707,22.678 171.329,21.84 C170.993,21.118 172.166,20.275 172.588,21.03 Z M171.481,19.215 C171.676,19.043 171.901,18.95 172.132,19.061 C172.502,19.239 172.513,19.794 172.19,20.015 C172.043,20.116 171.793,20.241 171.613,20.196 C171.216,20.095 171.14,19.516 171.481,19.215 Z M171.531,17.546 C171.691,17.438 171.904,17.341 172.087,17.416 C172.421,17.553 172.41,18.038 172.14,18.232 C172.017,18.32 171.793,18.429 171.644,18.389 C171.305,18.304 171.222,17.755 171.531,17.546 Z M172.418,15.168 C172.616,15.061 172.904,15.016 173.082,15.216 C173.291,15.451 173.224,15.809 172.948,15.95 C172.736,16.056 172.449,16.096 172.281,15.899 C172.098,15.687 172.135,15.321 172.418,15.168 Z M172.261,16.975 C172.101,16.38 173.103,16.099 173.266,16.704 C173.447,17.291 172.42,17.584 172.261,16.975 Z M173.877,18.014 C174.111,18.657 173.022,19.021 172.809,18.386 C172.591,17.743 173.686,17.376 173.877,18.014 Z M174.014,14.881 C174.222,14.798 174.488,14.708 174.72,14.881 C175.008,15.097 174.946,15.583 174.615,15.734 C174.397,15.833 174.118,15.899 173.924,15.726 C173.678,15.506 173.664,15.021 174.014,14.881 Z M173.823,20.262 C173.529,20.331 173.221,20.448 172.977,20.196 C172.664,19.874 172.754,19.311 173.176,19.157 C173.449,19.053 173.796,18.995 174.019,19.223 C174.305,19.516 174.274,20.153 173.823,20.262 Z M173.827,16.978 C173.638,16.34 174.678,16.013 174.877,16.632 C175.081,17.267 174.006,17.605 173.827,16.978 Z M175.568,18.147 C175.812,18.875 174.58,19.263 174.355,18.546 C174.126,17.812 175.365,17.424 175.568,18.147 Z M175.633,16.197 C175.85,16.139 176.079,16.16 176.244,16.337 C176.496,16.608 176.409,17.071 176.037,17.14 C175.862,17.172 175.591,17.159 175.454,17.039 C175.208,16.821 175.22,16.308 175.633,16.197 Z M176.683,17.725 C177.079,17.725 177.279,18.307 177.047,18.596 C176.908,18.771 176.61,18.782 176.405,18.75 C176.027,18.692 175.785,18.205 176.039,17.876 C176.195,17.677 176.459,17.725 176.683,17.725 Z M174.78,20.121 C174.536,19.284 175.958,18.91 176.176,19.741 C176.397,20.586 174.966,20.958 174.78,20.121 Z M175.652,21.192 C176.039,21.152 176.444,21.062 176.683,21.469 C176.932,21.899 176.745,22.497 176.241,22.598 C175.911,22.667 175.51,22.699 175.274,22.406 C174.964,22.019 175.087,21.245 175.652,21.192 Z M177.626,19.328 C178.106,19.526 178.268,20.092 177.929,20.408 C177.748,20.573 177.417,20.541 177.195,20.496 C176.748,20.408 176.457,19.738 176.848,19.42 C177.048,19.257 177.407,19.237 177.626,19.328 Z M178.381,21.346 C178.683,21.716 178.57,22.369 178.042,22.401 C177.767,22.417 177.407,22.385 177.221,22.159 C176.921,21.798 177.034,21.12 177.562,21.102 C177.837,21.091 178.195,21.12 178.381,21.346 Z M180.42,14.682 C180.391,14.64 180.338,14.616 180.286,14.632 C180.223,14.653 180.181,14.722 180.204,14.783 C181.409,18.02 179.871,19.614 179.229,21.88 C178.456,20.039 181.013,18.307 179.696,14.951 C179.677,14.908 179.643,14.873 179.596,14.866 C179.531,14.857 179.467,14.884 179.456,14.972 C179.422,15.208 179.268,17.068 177.759,18.158 C177.604,17.802 177.375,17.43 177.055,17.137 C176.916,16.51 176.507,15.649 175.646,15.395 C175.518,15.07 175.258,14.605 174.759,14.355 C174.289,14.121 173.746,14.142 173.143,14.416 C172.412,14.501 171.911,14.786 171.647,15.261 C171.397,15.71 171.442,16.199 171.526,16.532 C170.911,17.188 170.883,18.16 170.899,18.541 C170.533,19.417 170.739,20.44 170.854,20.865 C170.418,22.056 170.843,23.211 171.014,23.594 C171.014,23.698 171.019,23.796 171.025,23.894 C169.597,22.332 166.348,20.397 165.107,19.659 C165.049,19.624 164.975,19.632 164.925,19.68 C164.863,19.739 164.86,19.834 164.917,19.898 C167.686,22.598 170.156,25.93 172.529,32.844 C173.712,31.613 175.851,29.995 178.895,29.995 L182.456,29.995 C180.195,21.567 183.488,18.551 180.42,14.682 Z M197.255,19.04 C196.605,18.87 192.448,18.134 187.789,26.703 C188.469,23.512 190.534,19.651 191.101,18.53 L191.101,18.522 C191.135,18.458 191.116,18.375 191.059,18.33 C191.001,18.288 190.915,18.301 190.87,18.365 C187.792,23.498 186.71,26.456 186.073,29.995 L188.002,29.995 C188.329,26.583 192.639,18.546 197.232,19.143 L197.237,19.143 C197.263,19.149 197.287,19.127 197.289,19.104 C197.3,19.074 197.281,19.045 197.255,19.04 Z M187.993,47.272 L186.952,42.917 L185.178,42.917 C185.458,44.022 185.861,45.146 186.38,46.132 C186.414,46.19 186.477,46.225 186.54,46.215 C186.624,46.204 186.69,46.116 186.674,46.025 C186.553,45.103 186.408,44.214 186.273,43.326 C186.648,44.721 187.154,46.084 187.836,47.339 C187.855,47.378 187.894,47.396 187.931,47.384 C187.981,47.373 188.007,47.32 187.993,47.272 Z M189.786,45.295 C189.606,44.567 189.416,43.674 189.253,42.917 L188.579,42.917 C188.842,43.725 189.196,44.626 189.511,45.396 C189.542,45.471 189.614,45.508 189.681,45.489 C189.763,45.465 189.807,45.378 189.786,45.295 Z M190.012,47.856 L190.007,47.846 C189.789,47.237 189.488,46.692 189.248,46.108 C188.993,45.523 188.747,44.949 188.542,44.349 C188.371,43.9 188.191,43.385 188.052,42.917 L187.401,42.917 C187.584,43.462 187.823,44.049 188.046,44.575 C188.537,45.763 189.104,46.927 189.825,47.968 C189.852,48.006 189.902,48.021 189.949,48.003 C190.007,47.981 190.033,47.915 190.012,47.856 Z M190.986,26.956 C190.936,26.881 190.815,26.865 190.757,26.926 C189.573,28.175 188.858,29.504 188.611,29.995 L189.314,29.995 C189.665,29.169 190.458,27.71 190.967,27.184 L190.973,27.179 C191.025,27.12 191.035,27.022 190.986,26.956 Z M185.632,20.911 C186.282,19.842 187.248,19.024 188.068,18.036 C188.096,17.998 188.094,17.94 188.06,17.908 C188.028,17.873 187.976,17.873 187.942,17.905 C187.755,18.104 187.561,18.291 187.362,18.476 C187.275,18.434 187.054,18.519 186.831,18.694 C186.656,18.833 186.53,18.987 186.485,19.098 C186.372,19.072 186.159,19.204 185.968,19.449 C185.811,19.654 185.719,19.869 185.721,20.002 C185.601,20.012 185.425,20.166 185.275,20.411 C185.178,20.573 185.115,20.73 185.094,20.86 C184.997,20.926 184.887,21.051 184.784,21.213 C184.651,21.437 184.582,21.662 184.603,21.792 C184.572,21.849 184.54,21.902 184.514,21.957 C184.519,21.912 184.525,21.87 184.53,21.825 C184.721,20.312 184.999,18.814 185.422,17.369 C185.847,15.928 186.357,14.475 187.23,13.308 L187.236,13.303 C187.281,13.239 187.275,13.152 187.22,13.093 C187.164,13.032 187.073,13.029 187.015,13.09 C186.713,13.412 186.458,13.771 186.231,14.14 C186.13,14.087 185.92,14.284 185.761,14.592 C185.614,14.87 185.561,15.128 185.616,15.227 C185.616,15.227 185.614,15.235 185.609,15.232 C185.503,15.187 185.309,15.421 185.191,15.734 C185.075,16.029 185.055,16.3 185.133,16.391 C185.128,16.396 185.128,16.399 185.125,16.404 C185.007,16.361 184.816,16.63 184.698,17.01 C184.601,17.331 184.59,17.61 184.66,17.722 C184.666,17.727 184.66,17.741 184.656,17.738 C184.534,17.695 184.351,17.972 184.243,18.349 C184.136,18.713 184.144,19.035 184.246,19.098 C184.128,19.085 183.963,19.361 183.876,19.736 C183.797,20.06 183.805,20.339 183.881,20.451 C183.766,20.485 183.637,20.756 183.572,21.107 C183.509,21.45 183.54,21.734 183.624,21.825 C183.517,21.88 183.406,22.159 183.367,22.505 C183.327,22.848 183.377,23.129 183.467,23.22 C183.377,23.32 183.291,23.559 183.254,23.847 C183.217,24.12 183.241,24.357 183.293,24.49 C183.197,24.572 183.123,24.849 183.12,25.181 C183.113,25.446 183.152,25.672 183.22,25.802 C183.167,25.935 183.131,26.129 183.131,26.344 C183.125,26.623 183.17,26.862 183.241,26.987 C183.22,27.968 183.234,29.012 183.285,29.995 L185.404,29.995 C185.419,29.23 185.469,28.395 185.545,27.638 C185.695,26.288 185.918,24.917 186.592,23.764 L186.598,23.756 C186.618,23.714 186.616,23.666 186.584,23.629 C186.545,23.594 186.49,23.594 186.453,23.637 C185.537,24.7 185.136,26.143 184.9,27.527 C184.858,27.798 184.823,28.071 184.792,28.343 C184.85,27.232 184.952,26.126 185.206,25.074 C185.498,23.793 186.08,22.574 187.191,21.891 C187.225,21.87 187.243,21.825 187.23,21.779 C187.217,21.729 187.164,21.7 187.12,21.713 C187.049,21.734 186.984,21.771 186.915,21.801 C186.842,21.71 186.572,21.777 186.293,21.954 C186.029,22.127 185.853,22.34 185.87,22.457 C185.87,22.462 185.858,22.47 185.858,22.459 C185.855,22.446 185.853,22.433 185.845,22.425 C185.744,22.343 185.477,22.529 185.251,22.845 C185.023,23.161 184.934,23.491 185.031,23.576 C185.036,23.578 185.033,23.586 185.029,23.586 C184.91,23.538 184.713,23.807 184.59,24.182 C184.501,24.444 184.48,24.686 184.511,24.825 C184.511,24.829 184.506,24.835 184.506,24.835 C184.414,25.138 184.338,25.444 184.267,25.754 C184.293,25.316 184.333,24.875 184.396,24.439 C184.582,23.185 184.96,21.957 185.632,20.911 Z M192.295,17.413 C192.161,17.35 191.986,17.334 191.81,17.376 C191.679,17.408 191.573,17.472 191.485,17.546 C191.497,17.435 191.497,17.323 191.466,17.201 C191.424,17.01 191.329,16.853 191.214,16.752 C190.642,16.181 191.035,14.461 190.902,14.44 C190.771,14.422 190.818,16.136 190.547,16.938 C190.492,17.087 190.482,17.275 190.529,17.467 C190.576,17.656 190.671,17.815 190.789,17.918 C190.902,18.017 191.038,18.062 191.166,18.022 C191.2,18.017 191.235,18.001 191.264,17.979 C191.264,18.001 191.264,18.022 191.267,18.043 C191.295,18.184 191.395,18.293 191.531,18.357 C191.671,18.423 191.841,18.439 192.02,18.394 C192.2,18.351 192.351,18.253 192.448,18.134 C192.986,17.509 194.25,16.619 194.174,16.5 C194.098,16.383 193.031,17.695 192.295,17.413 Z M194.741,15.248 C194.659,15.131 193.647,16.313 192.956,16.018 C192.825,15.952 192.665,15.933 192.505,15.976 C192.416,16.003 192.34,16.051 192.269,16.109 C192.267,16.061 192.269,16.018 192.258,15.976 C192.216,15.804 192.122,15.668 192.004,15.578 C191.427,15.073 191.881,13.537 191.744,13.521 C191.605,13.505 191.608,15.033 191.309,15.75 C191.245,15.883 191.227,16.048 191.272,16.218 C191.314,16.388 191.408,16.529 191.527,16.619 C191.645,16.704 191.783,16.744 191.92,16.712 C191.981,16.696 192.032,16.664 192.08,16.63 C192.08,16.638 192.077,16.648 192.08,16.656 C192.122,16.803 192.222,16.917 192.351,16.983 C192.482,17.044 192.642,17.065 192.796,17.02 C192.956,16.978 193.082,16.88 193.161,16.76 C193.589,16.12 194.823,15.37 194.741,15.248 Z M194.99,13.768 C194.902,13.675 194.174,14.892 193.516,14.746 C193.392,14.711 193.248,14.719 193.116,14.786 C193.051,14.812 192.996,14.857 192.948,14.903 C192.948,14.873 192.956,14.844 192.956,14.812 C192.941,14.658 192.878,14.515 192.786,14.419 C192.342,13.877 192.959,12.594 192.841,12.554 C192.72,12.519 192.51,13.869 192.143,14.456 C192.07,14.568 192.032,14.711 192.048,14.868 C192.059,15.025 192.124,15.166 192.216,15.264 C192.311,15.362 192.426,15.416 192.552,15.408 C192.647,15.405 192.729,15.354 192.796,15.288 C192.796,15.341 192.807,15.399 192.833,15.455 C192.891,15.578 192.993,15.662 193.119,15.697 C193.242,15.737 193.39,15.726 193.521,15.662 C193.655,15.596 193.752,15.49 193.804,15.37 C194.093,14.73 195.077,13.861 194.99,13.768 Z M194.555,12.078 C194.406,11.972 193.93,13.154 193.366,13.462 C193.261,13.518 193.161,13.619 193.09,13.757 C193.02,13.898 192.993,14.047 193.012,14.172 C193.025,14.297 193.082,14.403 193.174,14.456 C193.269,14.512 193.382,14.509 193.49,14.454 C193.6,14.398 193.697,14.297 193.77,14.156 C193.838,14.018 193.865,13.869 193.849,13.744 C193.807,13.075 194.659,12.144 194.555,12.078 Z M184.197,42.917 L178.252,42.917 C177.848,42.917 177.483,42.885 177.147,42.824 C177.15,42.824 177.15,42.826 177.15,42.826 C178.126,44.277 179.656,45.378 181.207,46.116 C181.446,47.439 181.745,48.664 181.853,48.76 C181.963,48.855 183.485,48.417 183.532,48.276 C183.577,48.136 182.91,45.869 182.91,45.869 C183.711,44.495 183.957,43.684 184.197,42.917 Z M199.151,53.086 C197.649,53.679 195.692,53.728 194.093,53.304 C190.432,52.164 186.366,50.004 182.464,51.797 C178.562,50.004 174.496,52.164 170.835,53.304 C169.238,53.728 167.28,53.679 165.779,53.086 C165.737,53.07 165.704,53.123 165.741,53.152 C167.902,54.823 170.927,55.592 173.652,54.608 C176.268,53.793 178.481,51.021 181.58,52.204 C179.126,53.163 176.832,54.933 175.061,56.603 L176.349,57.661 C177.958,55.788 179.769,53.915 181.819,52.775 C182.1,52.61 182.268,52.544 182.464,52.533 C182.661,52.544 182.829,52.61 183.108,52.775 C185.159,53.915 186.97,55.788 188.579,57.661 L189.867,56.603 C188.096,54.933 185.802,53.163 183.349,52.204 C186.448,51.021 188.66,53.793 191.277,54.608 C194.001,55.592 197.027,54.823 199.187,53.152 C199.221,53.123 199.193,53.07 199.151,53.086 Z M175.022,50.561 C171.195,49.634 170.148,46.047 166.948,44.49 C166.914,44.472 166.878,44.512 166.899,44.543 C167.906,46.201 168.452,48.741 171.358,50.307 C171.381,50.319 171.368,50.357 171.342,50.349 C167.174,49.547 165.424,50.662 161.057,48.688 C161.02,48.672 160.981,48.712 161.004,48.747 C162.44,50.83 165.847,52.254 170.513,51.861 C172.193,51.718 173.41,51.011 175.022,50.634 C175.061,50.623 175.061,50.569 175.022,50.561 Z M167.006,48.361 C165.553,46.456 165.967,42.389 162.684,38.666 C162.657,38.637 162.611,38.66 162.618,38.697 C163.245,41.439 163.06,44.554 164.776,46.836 C164.791,46.86 164.768,46.884 164.744,46.868 C161.359,44.203 157.879,43.4 156.33,41.243 C156.307,41.214 156.26,41.229 156.265,41.267 C156.648,44.059 162.012,48.412 166.978,48.42 C167.006,48.42 167.025,48.386 167.006,48.361 Z M161.923,43.297 C160.365,40.406 162.228,35.995 160.458,31.709 C160.441,31.664 160.372,31.675 160.372,31.723 C160.32,34.063 158.865,37.558 159.744,40.196 C159.755,40.22 159.724,40.233 159.71,40.212 C157.472,36.941 155.696,36.258 154.215,33.264 C154.195,33.219 154.126,33.231 154.123,33.279 C154.029,35.314 154.929,36.973 155.945,38.514 C157.57,40.599 159.66,42.25 161.873,43.35 C161.907,43.366 161.939,43.331 161.923,43.297 Z M160.865,25.691 C160.863,25.643 160.8,25.627 160.777,25.669 C159.587,27.893 157.469,29.663 157.402,32.6 C157.399,32.629 157.367,32.631 157.362,32.604 C156.976,30.338 155.052,27.798 154.968,24.516 C154.968,24.466 154.898,24.453 154.879,24.5 C153.297,28.768 155.572,32.814 157.994,36.157 C158.021,36.191 158.073,36.171 158.073,36.125 C157.973,32.583 161.044,29.939 160.865,25.691 Z M162.377,20.169 C161.254,21.729 158.727,22.832 157.803,25.082 C157.789,25.114 157.75,25.106 157.755,25.069 C158.123,22.547 157.15,19.619 158.063,16.269 C158.075,16.221 158.015,16.189 157.987,16.226 C156.606,17.924 156.139,19.914 156.063,22.064 C155.968,24.705 156.898,26.631 157.357,28.422 C157.367,28.465 157.422,28.462 157.433,28.419 C158.094,26.071 161.414,24.657 162.453,20.206 C162.466,20.159 162.406,20.129 162.377,20.169 Z M165.424,14.924 C163.576,16.372 160.755,17.767 160.149,18.774 C160.138,18.795 160.107,18.779 160.113,18.758 L160.797,15.471 C161.104,14.076 161.369,12.74 162.141,11.491 C162.164,11.454 162.119,11.411 162.086,11.438 C158.569,14.223 159.083,18.25 158.929,21.548 C158.926,21.583 158.968,21.599 158.991,21.575 C161.062,19.329 164.437,18.022 165.482,14.969 C165.494,14.932 165.455,14.9 165.424,14.924 Z M168.04,9.875 C164.933,9.974 162.65,12.591 161.671,15.923 C161.666,15.942 161.692,15.958 161.708,15.947 C165.989,12.809 165.749,11.464 168.067,9.971 C168.109,9.944 168.09,9.875 168.04,9.875 Z M203.869,48.688 C199.504,50.662 197.751,49.547 193.584,50.349 C193.558,50.357 193.544,50.319 193.568,50.307 C196.473,48.741 197.019,46.201 198.027,44.543 C198.048,44.512 198.011,44.472 197.977,44.49 C194.781,46.047 193.734,49.634 189.905,50.561 C189.865,50.569 189.865,50.623 189.905,50.634 C191.516,51.011 192.734,51.718 194.413,51.861 C199.079,52.254 202.489,50.83 203.921,48.747 C203.945,48.712 203.906,48.672 203.869,48.688 Z M208.595,41.243 C207.047,43.4 203.567,44.203 200.182,46.868 C200.16,46.884 200.134,46.86 200.153,46.836 C201.866,44.554 201.68,41.439 202.308,38.697 C202.316,38.66 202.268,38.637 202.241,38.666 C198.961,42.389 199.373,46.456 197.922,48.361 C197.904,48.386 197.919,48.42 197.95,48.42 C202.916,48.412 208.278,44.059 208.661,41.267 C208.666,41.229 208.619,41.214 208.595,41.243 Z M210.803,33.279 C210.8,33.231 210.732,33.219 210.711,33.264 C209.231,36.258 207.453,36.941 205.218,40.212 C205.202,40.233 205.173,40.22 205.181,40.196 C206.06,37.558 204.609,34.063 204.554,31.723 C204.554,31.675 204.486,31.664 204.467,31.709 C202.698,35.995 204.562,40.406 203.005,43.297 C202.988,43.331 203.019,43.366 203.053,43.35 C205.265,42.25 207.357,40.599 208.982,38.514 C209.997,36.973 210.897,35.314 210.803,33.279 Z M210.047,24.5 C210.029,24.453 209.957,24.466 209.957,24.516 C209.873,27.798 207.949,30.338 207.564,32.604 C207.559,32.631 207.528,32.629 207.528,32.6 C207.459,29.663 205.338,27.893 204.15,25.669 C204.126,25.627 204.063,25.643 204.063,25.691 C203.885,29.939 206.952,32.583 206.853,36.125 C206.853,36.171 206.907,36.191 206.934,36.157 C209.354,32.814 211.629,28.768 210.047,24.5 Z M208.864,22.064 C208.787,19.914 208.32,17.924 206.94,16.226 C206.91,16.189 206.853,16.221 206.864,16.269 C207.777,19.619 206.803,22.547 207.173,25.069 C207.178,25.106 207.136,25.114 207.123,25.082 C206.199,22.832 203.672,21.729 202.549,20.169 C202.523,20.129 202.462,20.159 202.473,20.206 C203.512,24.657 206.832,26.071 207.493,28.419 C207.503,28.462 207.559,28.465 207.57,28.422 C208.029,26.631 208.957,24.705 208.864,22.064 Z M202.84,11.438 C202.806,11.411 202.761,11.454 202.785,11.491 C203.557,12.74 203.822,14.076 204.129,15.471 L204.814,18.758 C204.819,18.779 204.787,18.795 204.777,18.774 C204.171,17.767 201.352,16.372 199.502,14.924 C199.473,14.9 199.431,14.932 199.445,14.969 C200.489,18.022 203.864,19.329 205.934,21.575 C205.958,21.599 206,21.583 205.997,21.548 C205.842,18.25 206.357,14.223 202.84,11.438 Z M196.885,9.875 C196.835,9.875 196.82,9.944 196.859,9.971 C199.176,11.464 198.938,12.809 203.218,15.947 C203.237,15.958 203.26,15.942 203.255,15.923 C202.276,12.591 199.992,9.974 196.885,9.875 Z" id="Fill-1"></path>
            <path d="M6.447,37.752 C6.113,38.056 5.921,38.207 5.874,38.207 C5.699,38.207 5.158,37.918 4.251,37.34 C3.996,37.557 3.75,37.774 3.512,37.99 C3.177,38.31 2.971,38.547 2.891,38.706 C3.909,39.256 4.53,39.538 4.752,39.553 C5.182,39.206 5.508,38.945 5.731,38.771 L7.544,39.639 C7.719,39.509 7.982,39.292 8.331,38.988 C8.745,38.612 8.951,38.389 8.951,38.315 L7.043,37.297 C6.98,37.297 6.781,37.448 6.447,37.752" id="Fill-2"></path>
            <path d="M20.786,31.635 C20.612,31.62 20.349,31.515 19.999,31.317 C19.76,31.167 19.514,31.015 19.26,30.863 C19.466,30.713 19.744,30.637 20.095,30.637 C20.556,30.637 20.786,30.811 20.786,31.158 L20.786,31.635 Z M30.737,25.236 C29.973,24.816 29.551,24.513 29.472,24.325 C29.392,24.137 29.344,23.898 29.328,23.608 L29.186,23.5 C28.676,24.007 28.112,24.853 27.491,26.038 C27.745,26.328 27.992,26.552 28.231,26.711 C28.374,27.029 28.549,27.792 28.756,28.999 C28.963,30.206 29.066,31.013 29.066,31.418 C29.066,31.49 29.042,31.562 28.994,31.635 L23.793,31.635 C23.3,31.635 22.886,31.288 22.552,30.594 C22.266,30.016 22.13,29.48 22.147,28.988 C22.13,28.801 22.078,28.674 21.991,28.608 C21.905,28.544 21.733,28.511 21.479,28.511 C20.953,28.511 20.376,28.656 19.748,28.945 C19.12,29.234 18.599,29.567 18.186,29.943 C18.027,30.088 17.816,30.388 17.554,30.843 C17.291,31.299 17.104,31.562 16.992,31.635 L7.449,31.635 C6.574,32.777 6.105,33.456 6.04,33.674 C6.757,33.731 7.473,33.79 8.189,33.847 C9,33.948 9.612,34.245 10.026,34.736 C8.514,35.156 7.21,35.366 6.113,35.366 C5.222,35.366 4.443,35.215 3.774,34.91 C2.931,34.52 2.509,33.955 2.509,33.219 C2.509,32.669 2.693,32.119 3.059,31.569 C3.265,31.237 3.599,30.832 4.061,30.355 C4.426,29.979 4.609,29.748 4.609,29.661 C4.609,29.588 4.593,29.538 4.562,29.509 L4.299,29.509 C3.44,30.044 2.66,30.825 1.96,31.851 C1.213,32.936 0.839,33.912 0.839,34.779 C0.839,35.966 1.467,36.762 2.725,37.167 C3.122,37.31 3.368,37.383 3.464,37.383 C3.432,37.383 3.71,37.167 4.299,36.732 C4.505,36.891 4.705,37.058 4.896,37.231 C5.182,37.448 5.412,37.557 5.588,37.557 C5.986,37.557 6.271,37.484 6.447,37.34 C6.637,37.137 6.828,36.934 7.02,36.732 C7.656,37.022 7.949,37.167 7.903,37.167 C8.076,37.167 8.411,37.079 8.905,36.906 C9.397,36.732 9.732,36.595 9.907,36.494 C10.32,36.262 10.709,35.887 11.075,35.366 C11.377,34.918 11.672,34.47 11.958,34.02 L16.182,34.02 C16.484,34.02 16.706,33.855 16.85,33.521 C17.025,33.074 17.152,32.82 17.232,32.763 L21.861,35.105 C22.051,35.033 22.214,34.856 22.35,34.574 C22.485,34.292 22.6,34.107 22.696,34.02 L29.662,34.02 C29.885,33.921 30.012,33.847 30.044,33.804 C30.156,33.674 30.298,33.24 30.474,32.503 C30.649,31.766 30.72,31.303 30.689,31.114 L30.403,28.186 L32.263,25.995 C31.833,25.822 31.324,25.568 30.737,25.236 Z" id="Fill-3"></path>
            <path d="M48.804,25.236 C48.04,24.816 47.619,24.513 47.539,24.325 C47.459,24.137 47.412,23.898 47.397,23.608 L47.253,23.5 C46.744,24.007 46.18,24.853 45.559,26.038 C45.814,26.328 46.06,26.552 46.299,26.711 C46.443,27.029 46.616,27.792 46.824,28.999 C47.031,30.206 47.134,31.013 47.134,31.418 C47.134,31.49 47.11,31.563 47.062,31.635 L43.818,31.635 C43.992,31.377 44.159,31.125 44.319,30.88 C44.525,30.563 44.629,30.305 44.629,30.104 C44.629,29.514 44.279,28.996 43.578,28.551 C42.926,28.149 42.267,27.948 41.599,27.948 C40.485,27.948 39.665,28.201 39.141,28.706 C38.855,28.995 38.441,29.689 37.9,30.788 C38.425,30.717 38.711,30.681 38.759,30.681 C39.506,30.681 40.126,30.999 40.62,31.635 L36.445,31.635 C35.984,31.635 35.729,31.52 35.681,31.288 C35.474,30.521 35.299,29.256 35.157,27.492 C35.061,26.176 34.965,24.86 34.869,23.544 C34.711,23.674 34.408,23.999 33.963,24.519 C33.486,25.084 33.247,25.417 33.247,25.518 L34.082,34.02 L40.883,34.02 C41.232,33.544 41.487,33.183 41.646,32.936 C41.964,33.414 42.195,33.775 42.338,34.02 L47.73,34.02 C47.953,33.921 48.08,33.847 48.112,33.804 C48.223,33.674 48.366,33.24 48.541,32.503 C48.717,31.766 48.788,31.303 48.756,31.114 L48.47,28.186 L50.331,25.995 C49.902,25.822 49.393,25.568 48.804,25.236" id="Fill-4"></path>
            <path d="M51.535,27.21 L52.61,34.195 C53.532,33.212 53.993,31.981 53.993,30.507 C53.993,29.234 53.763,27.188 53.302,24.368 C52.426,25.467 51.838,26.415 51.535,27.21" id="Fill-5"></path>
            <path d="M61.338,24.802 C62.276,25.408 62.833,25.712 63.01,25.712 C63.092,25.712 63.302,25.503 63.642,25.084 C63.941,24.708 64.139,24.433 64.233,24.26 L62.52,23.284 C61.786,23.89 61.426,24.194 61.44,24.194 C61.208,24.194 60.699,23.89 59.91,23.284 C59.231,24.079 58.83,24.564 58.707,24.736 C59.428,25.229 59.992,25.539 60.4,25.669 C60.889,25.192 61.201,24.903 61.338,24.802" id="Fill-6"></path>
            <path d="M70.481,35.986 C70.23,36.28 70.056,36.429 69.961,36.429 C69.798,36.429 69.316,36.125 68.515,35.518 C68.107,35.999 67.74,36.487 67.414,36.983 C67.741,37.29 68.257,37.64 68.963,38.034 C69.371,37.591 69.677,37.271 69.881,37.079 L71.41,38.034 C71.778,37.729 72.172,37.23 72.595,36.534 L70.981,35.478 C70.9,35.519 70.733,35.689 70.481,35.986" id="Fill-7"></path>
            <path d="M62.113,30.441 C62.411,30.167 62.67,29.979 62.888,29.878 C63.323,29.444 63.628,29.09 63.805,28.815 L64.172,30.724 L62.113,30.441 Z M70.799,29.205 C71.383,30.045 71.804,30.853 72.063,31.635 L66.864,31.635 C66.333,31.635 66.014,31.469 65.906,31.136 C65.715,30.528 65.504,29.509 65.274,28.077 C65.015,26.415 64.824,25.329 64.702,24.824 L64.601,24.759 L63.377,26.992 C63.417,27.195 63.486,27.412 63.581,27.644 C62.833,28.092 62.092,28.54 61.359,28.988 C60.842,29.336 60.461,29.748 60.216,30.225 C59.972,30.702 59.699,31.577 59.401,32.85 L63.091,33.544 C63.268,33.587 63.499,33.349 63.785,32.827 C64.097,32.221 64.301,31.881 64.397,31.808 C64.533,32.271 64.668,32.734 64.804,33.197 C65.035,33.747 65.368,34.021 65.804,34.021 L73.082,34.021 C73.381,32.358 73.531,31.229 73.531,30.637 C73.531,29.595 73.007,28.41 71.961,27.079 L70.799,29.205 Z" id="Fill-8"></path>
            <path d="M77.242,26.06 C77.406,26.06 77.67,25.901 78.037,25.583 C78.35,25.309 78.581,25.07 78.731,24.867 C77.847,23.927 77.351,23.456 77.242,23.456 C77.119,23.456 76.871,23.661 76.498,24.064 C76.123,24.47 75.897,24.751 75.815,24.91 C76.481,25.677 76.956,26.06 77.242,26.06" id="Fill-9"></path>
            <path d="M85.602,25.757 C86.036,26.119 86.316,26.313 86.438,26.342 C87.444,25.735 87.953,25.308 87.967,25.062 C87.083,24.108 86.568,23.616 86.417,23.587 C85.439,24.441 84.949,24.933 84.949,25.062 C84.949,25.163 85.166,25.395 85.602,25.757" id="Fill-10"></path>
            <path d="M85.072,29.887 C85.411,29.577 86.165,29.422 87.335,29.422 C88.585,29.422 89.599,29.784 90.373,30.508 C90.401,29.784 90.091,29.069 89.446,28.36 C88.8,27.65 88.137,27.296 87.457,27.296 C86.805,27.296 86.043,27.65 85.174,28.36 C84.385,29.024 83.821,29.697 83.482,30.377 C83.386,30.912 83.345,31.332 83.359,31.636 L83.176,31.636 L83.176,31.592 L82.136,31.592 C82,31.592 81.843,31.311 81.666,30.751 C81.314,29.531 80.871,27.735 80.341,25.366 C80.123,25.771 79.907,26.183 79.689,26.602 C79.445,27.079 79.275,27.506 79.179,27.882 L79.995,31.396 L79.953,31.592 L75.937,31.592 C75.746,31.592 75.652,31.273 75.652,30.638 C75.652,30.261 75.665,29.929 75.693,29.639 C75.393,29.683 75.128,30.239 74.898,31.309 C74.721,32.163 74.632,32.85 74.632,33.37 C74.632,33.804 74.782,34.02 75.081,34.02 L79.404,34.02 C79.512,34.02 79.661,33.826 79.852,33.435 C80.097,32.987 80.246,32.734 80.301,32.675 C80.382,32.922 80.463,33.175 80.545,33.435 C80.654,33.769 80.776,33.964 80.912,34.02 L90.251,34.02 L91.575,31.636 L87.049,31.636 C86.343,31.193 85.684,30.609 85.072,29.887" id="Fill-11"></path>
            <path d="M92.575,22.914 C92.752,22.973 92.928,23.031 93.106,23.088 C92.942,23.218 92.78,23.349 92.616,23.479 C92.412,23.666 92.303,23.826 92.289,23.956 C93.213,23.363 93.954,23.073 94.512,23.088 C94.73,22.814 94.872,22.589 94.941,22.416 C93.635,22.416 92.914,22.257 92.78,21.938 C93.077,21.751 93.262,21.657 93.329,21.657 C93.302,21.657 93.492,21.773 93.901,22.003 C94.158,21.613 94.288,21.426 94.288,21.439 C94.288,21.309 94.217,21.205 94.074,21.125 C93.931,21.045 93.798,21.006 93.676,21.006 C93.309,21.006 92.973,21.179 92.667,21.526 C92.361,21.873 92.208,22.242 92.208,22.632 C92.208,22.72 92.33,22.814 92.575,22.914" id="Fill-12"></path>
            <path d="M98.216,31.939 C97.769,31.939 97.364,31.925 97,31.895 C97.433,31.533 97.747,31.244 97.944,31.027 C98.195,31.418 98.369,31.722 98.468,31.939 L98.216,31.939 Z M101.567,25.171 C101.228,24.968 100.887,24.766 100.548,24.563 C100.126,24.274 99.916,23.956 99.916,23.608 C99.916,23.551 99.922,23.487 99.937,23.414 C98.957,24.759 98.468,25.532 98.468,25.735 C98.468,25.691 98.549,25.836 98.713,26.168 C98.875,26.501 98.957,26.806 98.957,27.079 C98.957,27.803 98.787,28.424 98.448,28.945 C97.945,28.12 97.095,27.123 95.899,25.951 C94.498,24.607 93.473,23.942 92.82,23.956 L92.758,23.956 C92.188,25.055 91.903,25.887 91.903,26.451 C91.903,26.971 92.133,27.391 92.595,27.708 C93.738,28.403 94.607,28.916 95.205,29.248 C95.259,29.234 95.351,29.129 95.481,28.935 C95.61,28.739 95.695,28.641 95.736,28.641 C95.858,28.641 96.129,28.879 96.551,29.357 C96.931,29.777 97.177,30.081 97.285,30.268 C97.257,30.528 96.925,30.817 96.286,31.136 C95.974,31.309 95.545,31.498 95.001,31.699 C94.62,32.726 94.349,33.5 94.186,34.02 L99.528,34.02 C99.637,33.24 99.691,32.669 99.691,32.307 C99.691,31.685 99.447,30.861 98.957,29.834 C99.596,29.097 100.032,28.194 100.262,27.123 C100.426,27.18 100.616,27.239 100.833,27.296 C100.996,27.05 101.159,26.812 101.323,26.581 C101.513,26.277 101.608,26.009 101.608,25.778 C101.608,25.705 101.605,25.601 101.597,25.464 C101.59,25.326 101.58,25.229 101.567,25.171 Z" id="Fill-13"></path>
            <path d="M102.811,27.21 L103.728,34.195 C104.516,33.212 104.91,31.981 104.91,30.507 C104.91,29.234 104.714,27.188 104.32,24.368 C103.572,25.467 103.069,26.415 102.811,27.21" id="Fill-14"></path>
            <path d="M113.741,33.456 C113.605,33.456 113.387,33.656 113.088,34.054 C112.789,34.45 112.639,34.715 112.639,34.846 C112.639,34.902 112.846,35.12 113.261,35.496 C113.676,35.872 113.917,36.06 113.986,36.06 C114.176,36.06 114.556,35.561 115.127,34.563 C115.114,34.447 114.909,34.234 114.516,33.924 C114.121,33.612 113.863,33.456 113.741,33.456" id="Fill-15"></path>
            <path d="M122.509,30.182 C122.877,29.921 123.189,29.791 123.448,29.791 L123.57,29.812 C123.787,30.247 123.923,30.594 123.978,30.854 L122.509,30.182 Z M125.344,28.728 C125.289,28.482 125.242,28.237 125.2,27.991 C125.119,27.76 124.936,27.644 124.651,27.644 C124.107,27.644 123.457,27.929 122.703,28.5 C121.949,29.072 121.462,29.633 121.245,30.182 C120.892,31.063 120.667,31.548 120.573,31.635 L117.227,31.635 C116.343,31.635 115.903,31.396 115.903,30.919 C115.903,30.804 115.943,30.709 116.024,30.637 C116.582,30.579 116.996,30.544 117.268,30.528 C117.676,29.574 117.968,28.858 118.145,28.38 L115.23,28.38 C114.93,28.38 114.393,28.284 113.618,28.088 C112.843,27.893 112.259,27.796 111.865,27.796 C111.266,27.796 110.804,28.186 110.478,28.967 C110.383,29.198 110.199,29.856 109.927,30.94 C110.186,30.752 110.441,30.569 110.693,30.388 C110.944,30.206 111.239,30.116 111.579,30.116 C112.259,30.116 112.681,30.174 112.843,30.29 C112.096,30.912 111.481,31.747 110.998,32.795 C110.515,33.845 110.274,34.866 110.274,35.864 C110.274,37.123 110.73,38.078 111.64,38.727 C112.428,39.307 113.442,39.596 114.679,39.596 C116.84,39.596 118.267,38.945 118.96,37.642 C118.389,37.657 117.954,37.666 117.656,37.666 C113.496,37.666 111.416,36.645 111.416,34.606 C111.416,33.869 111.756,33.124 112.436,32.372 C113.033,31.708 113.693,31.229 114.413,30.94 C114.726,30.854 114.963,30.797 115.127,30.767 C115.114,30.884 115.056,31.085 114.954,31.375 C114.852,31.664 114.801,31.895 114.801,32.068 C114.801,32.662 114.967,33.136 115.301,33.489 C115.633,33.845 116.078,34.02 116.636,34.02 L120.368,34.02 C120.518,34.02 120.701,33.786 120.919,33.315 C121.136,32.846 121.307,32.575 121.429,32.503 C123.631,33.37 124.746,33.876 124.773,34.02 C125.017,33.602 125.269,33.183 125.528,32.763 C125.866,32.183 126.037,31.751 126.037,31.462 C126.037,31.1 125.949,30.644 125.772,30.095 C125.636,29.646 125.493,29.191 125.344,28.728 Z" id="Fill-16"></path>
            <path d="M134.336,24.954 C133.506,24.519 132.902,24.166 132.521,23.891 L130.95,25.626 C131.862,26.031 132.534,26.371 132.97,26.645 C133.812,25.677 134.267,25.112 134.336,24.954" id="Fill-17"></path>
            <path d="M135.478,30.832 C135.478,30.152 135.328,29.48 135.029,28.815 C134.824,28.396 134.464,27.817 133.949,27.079 L132.786,29.184 C133.343,29.993 133.765,30.811 134.05,31.635 L130.442,31.635 C130.047,31.635 129.829,31.52 129.788,31.287 C129.613,30.521 129.462,29.257 129.34,27.492 C129.258,26.176 129.177,24.86 129.096,23.544 C128.959,23.673 128.701,23.999 128.321,24.519 C127.913,25.084 127.709,25.417 127.709,25.518 L128.422,34.02 L135.029,34.02 C135.328,32.459 135.478,31.396 135.478,30.832" id="Fill-18"></path>
            <path d="M148.365,28.62 C148.078,27.897 147.698,27.325 147.222,26.906 L146.019,29.14 C146.264,29.356 146.535,29.74 146.834,30.29 C147.133,30.84 147.283,31.266 147.283,31.569 C147.283,31.613 147.276,31.635 147.263,31.635 L143.328,31.635 C142.485,31.635 141.832,31.325 141.37,30.702 C140.962,30.051 140.555,29.4 140.148,28.75 C140.037,28.895 139.818,29.257 139.485,29.834 C139.151,30.412 138.985,30.745 138.985,30.832 C138.985,30.861 139.182,31.147 139.576,31.689 C139.971,32.23 140.166,32.625 140.166,32.871 C140.166,33.377 139.604,34.031 138.476,34.835 C137.346,35.637 136.49,36.038 135.906,36.038 C135.525,36.038 135.089,35.894 134.601,35.604 C134.112,35.315 133.888,35.171 133.928,35.171 C133.86,35.171 133.826,35.185 133.826,35.215 L133.826,35.496 C134.193,35.931 134.856,36.399 135.813,36.906 C136.772,37.412 137.502,37.665 138.006,37.665 C138.753,37.665 139.44,37.195 140.065,36.255 C140.486,35.46 140.907,34.672 141.329,33.891 L141.431,33.761 C141.772,33.934 142.036,34.02 142.227,34.02 L148.181,34.02 C148.589,34.02 148.792,32.929 148.792,30.745 C148.792,30.051 148.649,29.343 148.365,28.62" id="Fill-19"></path>
            <path d="M146.376,35.908 C145.879,35.432 145.591,35.192 145.51,35.192 C145.427,35.192 145.153,35.432 144.684,35.908 C144.214,36.385 143.98,36.667 143.98,36.755 C143.98,36.841 144.207,37.08 144.663,37.471 C145.118,37.86 145.407,38.062 145.53,38.078 C146.591,37.44 147.12,37.007 147.12,36.775 C147.12,36.675 146.872,36.385 146.376,35.908" id="Fill-20"></path>
        </g>
    </g>
</svg>