<svg width="267" height="733" viewBox="0 0 267 733" fill="none" xmlns="http://www.w3.org/2000/svg">
<path d="M10.6509 273.866L66.9559 675.8C70.69 702.456 93.4928 722.287 120.409 722.287H120.41C147.326 722.287 170.129 702.456 173.863 675.8L230.168 273.866C237.042 224.797 198.938 180.983 149.389 180.983H91.4293C41.881 180.983 3.77711 224.797 10.6509 273.866Z" fill="#FBC98F"/>
<path d="M94.858 689.751L38.5533 287.818C31.6795 238.748 69.7833 194.934 119.332 194.934H177.292C184.868 194.934 192.173 195.97 199.094 197.881C185.407 187.331 168.23 180.983 149.389 180.983H91.4295C41.881 180.983 3.77711 224.797 10.6509 273.866L66.9555 675.8C70.26 699.389 88.5053 717.603 111.311 721.49C102.647 713.321 96.6179 702.313 94.858 689.751Z" fill="#FDE3CA"/>
<path d="M149.389 180.983H110.326C159.875 180.983 197.978 224.797 191.105 273.866L134.8 675.8C132.018 695.66 118.644 711.717 100.878 718.621C106.958 720.984 113.546 722.287 120.41 722.287C147.326 722.287 170.129 702.456 173.863 675.8L230.168 273.866C237.042 224.797 198.938 180.983 149.389 180.983Z" fill="#F5A77F"/>
<path d="M120.409 732.149C88.7594 732.149 61.5816 708.511 57.1904 677.167L0.885694 275.233C-2.78679 249.019 5.06975 222.527 22.4412 202.553C39.8127 182.579 64.9576 171.122 91.4291 171.122H149.389C175.86 171.122 201.006 182.579 218.378 202.553C235.749 222.527 243.606 249.019 239.933 275.233L183.629 677.167C179.237 708.514 152.059 732.149 120.409 732.149ZM91.4293 190.843C70.6681 190.843 50.947 199.827 37.3225 215.495C23.698 231.16 17.5363 251.937 20.4167 272.499L76.7214 674.432C79.7547 696.094 98.5369 712.428 120.409 712.428C142.281 712.428 161.063 696.094 164.098 674.432L220.402 272.499C223.283 251.937 217.121 231.162 203.497 215.495C189.872 199.827 170.151 190.843 149.389 190.843H91.4293Z" fill="#07074E"/>
<path d="M109.248 180.984C109.248 180.984 94.1169 90.7474 70.1852 88.9065C33.9122 86.1163 22.7514 58.2139 45.0731 33.102C67.395 7.98987 114.553 -0.933321 128.78 27.5215C132.766 35.4936 131.769 45.2451 128.841 54.4883C120.555 80.6415 116.327 107.856 117.329 135.272C118.031 154.471 116.595 173.638 109.248 180.984Z" fill="#B5D9B7"/>
<path d="M109.248 190.843C108.243 190.843 107.231 190.689 106.245 190.374C102.729 189.249 100.135 186.255 99.5238 182.615C99.4877 182.396 95.7828 160.535 89.3227 138.726C78.2862 101.46 69.5089 98.7472 69.4259 98.7377C48.0739 97.0958 32.3428 87.5264 26.2714 72.4875C20.4347 58.0337 24.6019 41.2904 37.7028 26.5503C54.02 8.19395 81.3677 -2.50898 104.218 0.505055C119.465 2.5225 131.32 10.5509 137.6 23.11C142.281 32.4746 142.497 44.0325 138.24 57.4655C129.978 83.5445 126.258 109.602 127.184 134.911C128.194 162.612 124.711 179.466 116.22 187.957C114.342 189.832 111.823 190.843 109.248 190.843ZM96.4136 19.7253C81.1135 19.7253 63.0439 27.725 52.4431 39.6511C44.506 48.5801 41.6329 57.858 44.5577 65.1042C47.7198 72.9352 57.336 78.0269 70.9412 79.0743C85.3867 80.1865 96.9829 96.4434 107.342 130.175C107.019 104.328 111.082 77.8923 119.441 51.51C121.265 45.7515 122.836 37.6818 119.96 31.9282C116.604 25.2165 110.438 21.2206 101.633 20.0576C99.9416 19.8337 98.1951 19.7253 96.4136 19.7253Z" fill="#07074E"/>
<path d="M131.416 180.984C131.416 180.984 142.731 102.857 173.424 74.9549C198.626 52.0442 245.97 66.5842 254.341 88.9059C262.711 111.228 254.34 130.759 201.326 125.179C179.127 122.842 131.416 180.984 131.416 180.984Z" fill="#B5D9B7"/>
<path d="M131.412 190.842C130.072 190.842 128.719 190.57 127.435 190.002C123.384 188.216 121.022 183.95 121.657 179.569C122.14 176.234 133.859 97.5953 166.792 67.6573C180.802 54.92 202.093 50.4373 223.731 55.6662C243.181 60.3654 258.449 71.7763 263.572 85.4428C270.301 103.382 265.87 114.702 260.968 121.038C251.179 133.689 231.338 138.258 200.294 134.982C192.359 134.218 165.171 155.391 139.038 187.236C137.12 189.573 134.298 190.842 131.412 190.842ZM206.029 73.2327C195.773 73.2327 186.552 76.3454 180.057 82.2507C165.639 95.3565 155.198 123.25 148.673 147.351C165.645 130.591 186.874 113.785 202.358 115.369C234.122 118.715 243.019 112.011 245.369 108.97C248.69 104.68 247.059 97.5738 245.108 92.3666C242.377 85.0844 231.682 77.8767 219.099 74.8362C214.645 73.7598 210.249 73.2327 206.029 73.2327Z" fill="#07074E"/>
<path d="M120.409 302.453C113.734 302.453 106.664 302.152 99.3966 301.555C93.9692 301.112 89.9296 296.35 90.3737 290.924C90.8179 285.498 95.5593 281.432 101.007 281.901C107.742 282.453 114.269 282.732 120.409 282.732C125.855 282.732 130.27 287.147 130.27 292.592C130.27 298.038 125.855 302.453 120.409 302.453Z" fill="#07074E"/>
<path d="M66.0102 296.91C65.4108 296.91 64.8017 296.854 64.1902 296.738C32.862 290.893 9.31922 282.711 8.33342 282.367C3.19367 280.568 0.48662 274.945 2.28374 269.805C4.08196 264.665 9.70199 261.95 14.8453 263.753C15.0741 263.832 38.0391 271.798 67.8086 277.354C73.1613 278.351 76.6918 283.503 75.6927 288.854C74.8077 293.597 70.666 296.91 66.0102 296.91Z" fill="#07074E"/>
<path d="M172.471 446.934C149.032 446.934 130.178 441.943 128.996 441.623C123.738 440.2 120.63 434.786 122.052 429.528C123.473 424.275 128.877 421.165 134.136 422.583C134.522 422.689 173.124 432.824 205.019 422.706C210.215 421.057 215.755 423.934 217.399 429.121C219.047 434.314 216.174 439.856 210.982 441.503C198.136 445.578 184.681 446.934 172.471 446.934Z" fill="#07074E"/>
<path d="M122.692 595.686C77.8436 595.686 47.8573 576.921 46.52 576.069C41.9279 573.142 40.5787 567.046 43.5061 562.453C46.4286 557.869 52.5097 556.511 57.1016 559.427C57.5711 559.72 87.7353 578.262 130.992 575.722C136.411 575.404 141.094 579.55 141.415 584.986C141.735 590.424 137.587 595.089 132.15 595.409C128.93 595.6 125.775 595.686 122.692 595.686Z" fill="#07074E"/>
</svg>
