<svg width="513" height="941" viewBox="0 0 513 941" fill="none" xmlns="http://www.w3.org/2000/svg">
<path d="M9 180.091H366.574V932L9 909.336V180.091Z" fill="white" stroke="#07074E" stroke-width="18" stroke-linecap="round" stroke-linejoin="round"/>
<path d="M9 304.52H366.574V816.458L9 793.794V304.52Z" fill="#0A6EB4" stroke="#07074E" stroke-width="18" stroke-linecap="round" stroke-linejoin="round"/>
<path d="M9 180.091H366.574L420.388 79.6582H92.6119L9 180.091Z" stroke="#07074E" stroke-width="18" stroke-linecap="round" stroke-linejoin="round"/>
<path d="M501.776 133.43L366.574 180.091L420.388 79.6582L501.776 133.43Z" stroke="#07074E" stroke-width="18" stroke-linecap="round" stroke-linejoin="round"/>
<path d="M90.8328 9H418.609V75.6587L90.8328 82.7689V9Z" fill="white"/>
<path d="M90.8328 9H418.609V75.6587L90.8328 82.7689V9Z" fill="white"/>
<path d="M90.8328 9H418.609V75.6587L90.8328 82.7689V9Z" stroke="#07074E" stroke-width="18" stroke-linecap="round" stroke-linejoin="round"/>
<path d="M90.8328 9H418.609V75.6587L90.8328 82.7689V9Z" stroke="#07074E" stroke-width="18" stroke-linecap="round" stroke-linejoin="round"/>
<path d="M504 134.763L366.574 180.091V932L504 831.568V134.763Z" fill="#DEDEDE" stroke="#07074E" stroke-width="18" stroke-linecap="round" stroke-linejoin="round"/>
<path d="M504 259.192L366.574 304.52V816.459L504 716.026V259.192Z" fill="#034F85" stroke="#07074E" stroke-width="18" stroke-linecap="round" stroke-linejoin="round"/>
<g clip-path="url(#clip0)">
<path d="M281.806 629.992C281.272 634.17 281.005 639.413 281.005 645.635L281.539 665.188C278.337 665.099 263.216 664.122 236.175 662.255C208.957 660.211 189.477 659.411 177.736 659.855C179.693 661.277 184.051 663.411 190.811 666.344C208.067 674.254 216.695 678.786 216.695 680.031C216.695 681.275 214.916 682.608 211.358 684.119C207.623 685.541 204.42 686.697 201.752 687.585C199.084 688.208 196.504 689.007 194.013 689.807C191.345 690.43 188.943 691.052 186.809 691.585C184.496 692.118 182.094 692.651 179.604 693.363C190.811 695.229 204.598 696.918 220.965 698.34C237.331 699.762 257.256 700.828 280.738 701.45C281.628 706.517 282.073 712.56 282.073 719.67L281.539 738.779C281.539 739.135 280.916 739.401 279.671 739.668C278.426 739.935 261.348 738.602 228.437 735.757C195.348 732.824 152.03 728.914 98.4824 723.848C97.415 723.048 96.8814 718.871 96.8814 711.405L97.1482 691.94C97.1482 689.63 97.1482 688.119 97.1482 687.408V687.141C99.8167 684.919 106.577 682.342 117.429 679.586C128.28 676.653 134.951 674.431 137.442 673.098C137.976 672.654 138.331 672.21 138.509 671.854C138.509 671.321 137.353 670.61 135.04 669.721C132.728 668.654 129.792 667.41 126.234 665.988C122.677 664.655 118.941 663.144 115.027 661.544C105.243 657.456 99.1051 654.345 96.6145 652.212C96.7924 650.79 96.8814 649.279 96.8814 647.679L95.5471 612.661C100.35 613.283 106.31 613.905 113.426 614.528L169.997 618.971C181.205 619.949 190.1 620.927 196.682 621.816L281.806 629.992Z" fill="white"/>
<path d="M146.515 595.774L146.782 588.308C147.137 581.731 147.315 576.576 147.315 572.665C147.315 568.755 147.315 565.91 147.315 564.133V559.6L148.116 559.689L236.175 568.755C245.248 569.554 259.836 570.443 279.938 571.51C281.183 571.776 281.806 575.954 281.806 583.953L281.539 606.617C281.539 608.039 281.539 608.927 281.539 609.283C272.822 607.772 261.17 606.439 246.582 605.195L184.674 600.573C167.951 599.151 155.321 597.551 146.782 595.951L146.515 595.774ZM124.1 557.823C125.701 559.067 126.501 562.8 126.501 569.199L125.968 590.174C125.968 591.596 125.968 592.841 125.968 593.907L94.4798 592.218C92.7008 592.041 90.9218 591.952 89.1428 591.774L89.9434 555.601L124.1 557.823Z" fill="white"/>
<path d="M88.3423 499.252L226.836 512.673C243.024 514.095 260.725 515.25 279.938 516.228C281.183 516.494 281.806 520.672 281.806 528.671L281.539 551.335C281.539 552.757 281.539 553.645 281.539 554.001C270.687 552.134 256.544 550.446 239.11 548.935L139.31 542.091C117.606 540.225 100.35 538.003 87.5417 535.425L88.3423 499.252Z" fill="white"/>
<path d="M87.8086 480.765L87.2749 454.902C87.2749 450.636 87.4528 447.169 87.8086 444.592L146.248 449.658L171.598 452.413C175.334 452.769 178.447 452.858 180.938 452.68C177.024 447.88 170.531 442.459 161.458 436.326C152.385 430.016 146.159 425.305 142.779 422.195C143.846 421.573 144.38 417.84 144.38 410.907L143.579 382.199C143.579 381.133 143.579 380.422 143.579 380.066C152.296 386.555 172.221 402.908 203.353 429.305C207.267 427.172 213.493 423.794 222.032 419.173L242.313 408.419C255.121 401.575 268.197 395.265 281.539 389.754L282.606 419.973C282.606 425.305 282.251 429.572 281.539 432.682C277.27 434.993 269.086 438.637 256.989 443.614C244.892 448.414 235.908 452.858 230.038 456.946L257.523 458.812C267.663 459.701 275.668 460.946 281.539 462.545C281.539 463.256 281.539 464.412 281.539 466.012L282.073 488.498C282.073 492.586 281.895 495.697 281.539 497.741C274.957 497.919 258.323 496.763 231.639 494.453L87.8086 480.765Z" fill="white"/>
</g>
<defs>
<clipPath id="clip0">
<rect width="195.332" height="359.601" fill="white" transform="translate(87.2749 380.066)"/>
</clipPath>
</defs>
</svg>
