<svg width="1304" height="445" viewBox="0 0 1304 445" fill="none" xmlns="http://www.w3.org/2000/svg">
<g clip-path="url(#clip0)">
<path d="M1225.88 122.844V122.545C1225.89 119.334 1225.25 116.154 1224.03 113.187C1222.8 110.22 1220.99 107.524 1218.72 105.254C1216.45 102.983 1213.75 101.183 1210.78 99.955C1207.81 98.7274 1204.62 98.0969 1201.41 98.0996H1031.59C1028.38 98.1022 1025.19 97.4717 1022.22 96.2441C1019.25 95.0166 1016.55 93.2161 1014.28 90.9456C1012.01 88.6752 1010.2 85.9793 1008.98 83.0123C1007.75 80.0453 1007.12 76.8654 1007.12 73.6545C1007.12 70.4436 1007.75 67.2637 1008.98 64.2967C1010.2 61.3297 1012.01 58.6338 1014.28 56.3634C1016.55 54.0929 1019.25 52.2924 1022.22 51.0649C1025.19 49.8373 1028.38 49.2068 1031.59 49.2094H1107.11C1110.33 49.2121 1113.51 48.5816 1116.48 47.354C1119.45 46.1265 1122.15 44.3259 1124.42 42.0555C1126.7 39.785 1128.5 37.0892 1129.73 34.1222C1130.96 31.1552 1131.59 27.9753 1131.58 24.7644V24.465C1131.59 21.2541 1130.96 18.0742 1129.73 15.1072C1128.5 12.1402 1126.7 9.44436 1124.42 7.1739C1122.15 4.90345 1119.45 3.10294 1116.48 1.87539C1113.51 0.64784 1110.33 0.0173423 1107.11 0.0199667H272.807C269.593 0.0173423 266.409 0.64784 263.439 1.87539C260.468 3.10294 257.769 4.90345 255.496 7.1739C253.223 9.44436 251.42 12.1402 250.191 15.1072C248.962 18.0742 248.331 21.2541 248.334 24.465V24.7644C248.331 27.9753 248.962 31.1552 250.191 34.1222C251.42 37.0892 253.223 39.785 255.496 42.0555C257.769 44.3259 260.468 46.1265 263.439 47.354C266.409 48.5816 269.593 49.2121 272.807 49.2094H380.392C383.607 49.2068 386.79 49.8373 389.761 51.0649C392.731 52.2924 395.43 54.0929 397.703 56.3634C399.976 58.6338 401.779 61.3297 403.008 64.2967C404.237 67.2637 404.868 70.4436 404.866 73.6545C404.868 76.8654 404.237 80.0453 403.008 83.0123C401.779 85.9793 399.976 88.6752 397.703 90.9456C395.43 93.2161 392.731 95.0166 389.761 96.2441C386.79 97.4717 383.607 98.1022 380.392 98.0996H126.864C123.65 98.0969 120.466 98.7274 117.496 99.955C114.525 101.183 111.826 102.983 109.553 105.254C107.28 107.524 105.477 110.22 104.248 113.187C103.019 116.154 102.388 119.334 102.391 122.545V122.844C102.388 126.055 103.019 129.235 104.248 132.202C105.477 135.169 107.28 137.865 109.553 140.135C111.826 142.406 114.525 144.206 117.496 145.434C120.466 146.661 123.65 147.292 126.864 147.289H295.683C298.898 147.286 302.081 147.917 305.052 149.144C308.022 150.372 310.721 152.173 312.994 154.443C315.267 156.713 317.07 159.409 318.299 162.376C319.528 165.343 320.159 168.523 320.157 171.734C320.159 174.945 319.528 178.125 318.299 181.092C317.07 184.059 315.267 186.755 312.994 189.025C310.721 191.296 308.022 193.096 305.052 194.324C302.081 195.551 298.898 196.182 295.683 196.179H194.162C190.947 196.177 187.764 196.807 184.793 198.035C181.823 199.262 179.124 201.063 176.851 203.333C174.577 205.604 172.775 208.299 171.546 211.266C170.317 214.233 169.686 217.413 169.688 220.624V220.924C169.686 224.134 170.317 227.314 171.546 230.281C172.775 233.248 174.577 235.944 176.851 238.215C179.124 240.485 181.823 242.286 184.793 243.513C187.764 244.741 190.947 245.371 194.162 245.369H354.19C357.405 245.366 360.588 245.997 363.559 247.224C366.529 248.452 369.228 250.252 371.501 252.523C373.774 254.793 375.577 257.489 376.806 260.456C378.035 263.423 378.666 266.603 378.664 269.814C378.666 273.025 378.035 276.205 376.806 279.172C375.577 282.139 373.774 284.834 371.501 287.105C369.228 289.375 366.529 291.176 363.559 292.403C360.588 293.631 357.405 294.261 354.19 294.259H248.034C244.819 294.256 241.636 294.887 238.665 296.114C235.695 297.342 232.996 299.142 230.723 301.413C228.45 303.683 226.647 306.379 225.418 309.346C224.189 312.313 223.558 315.493 223.56 318.704V319.003C223.558 322.214 224.189 325.394 225.418 328.361C226.647 331.328 228.45 334.024 230.723 336.294C232.996 338.565 235.695 340.365 238.665 341.593C241.636 342.82 244.819 343.451 248.034 343.448H382.889C386.104 343.446 389.287 344.076 392.258 345.304C395.228 346.531 397.927 348.332 400.201 350.602C402.474 352.873 404.276 355.568 405.505 358.535C406.734 361.502 407.365 364.682 407.363 367.893C407.365 371.104 406.734 374.284 405.505 377.251C404.276 380.218 402.474 382.914 400.201 385.184C397.927 387.455 395.228 389.255 392.258 390.483C389.287 391.711 386.104 392.341 382.889 392.338H150.039C146.825 392.336 143.641 392.966 140.671 394.194C137.7 395.421 135.001 397.222 132.728 399.492C130.455 401.763 128.652 404.459 127.423 407.426C126.194 410.393 125.563 413.573 125.566 416.783V417.083C125.563 420.294 126.194 423.474 127.423 426.441C128.652 429.408 130.455 432.103 132.728 434.374C135.001 436.644 137.7 438.445 140.671 439.672C143.641 440.9 146.825 441.53 150.039 441.528H1200.08C1203.3 441.53 1206.48 440.9 1209.45 439.672C1212.42 438.445 1215.12 436.644 1217.39 434.374C1219.67 432.103 1221.47 429.408 1222.7 426.441C1223.93 423.474 1224.56 420.294 1224.55 417.083V416.783C1224.56 413.573 1223.93 410.393 1222.7 407.426C1221.47 404.459 1219.67 401.763 1217.39 399.492C1215.12 397.222 1212.42 395.421 1209.45 394.194C1206.48 392.966 1203.3 392.336 1200.08 392.338H1008.39C1005.17 392.341 1001.99 391.711 999.018 390.483C996.048 389.255 993.349 387.455 991.075 385.184C988.802 382.914 987 380.218 985.771 377.251C984.542 374.284 983.91 371.104 983.913 367.893C983.91 364.682 984.542 361.502 985.771 358.535C987 355.568 988.802 352.873 991.075 350.602C993.349 348.332 996.048 346.531 999.018 345.304C1001.99 344.076 1005.17 343.446 1008.39 343.448H1131.85C1135.07 343.451 1138.25 342.82 1141.22 341.593C1144.19 340.365 1146.89 338.565 1149.17 336.294C1151.44 334.024 1153.24 331.328 1154.47 328.361C1155.7 325.394 1156.33 322.214 1156.33 319.003V318.405C1156.33 315.194 1155.7 312.014 1154.47 309.047C1153.24 306.08 1151.44 303.384 1149.17 301.113C1146.89 298.843 1144.19 297.042 1141.22 295.815C1138.25 294.587 1135.07 293.957 1131.85 293.959H1055.64C1052.42 293.962 1049.24 293.332 1046.27 292.104C1043.3 290.876 1040.6 289.076 1038.32 286.806C1036.05 284.535 1034.25 281.839 1033.02 278.872C1031.79 275.905 1031.16 272.725 1031.16 269.514C1031.16 266.303 1031.79 263.124 1033.02 260.157C1034.25 257.19 1036.05 254.494 1038.32 252.223C1040.6 249.953 1043.3 248.152 1046.27 246.925C1049.24 245.697 1052.42 245.067 1055.64 245.069H1102.09C1105.3 245.072 1108.48 244.441 1111.45 243.214C1114.43 241.986 1117.12 240.186 1119.4 237.915C1121.67 235.645 1123.47 232.949 1124.7 229.982C1125.93 227.015 1126.56 223.835 1126.56 220.624V220.325C1126.56 217.114 1125.93 213.934 1124.7 210.967C1123.47 208 1121.67 205.304 1119.4 203.034C1117.12 200.763 1114.43 198.963 1111.45 197.735C1108.48 196.508 1105.3 195.877 1102.09 195.88H984.712C981.498 195.882 978.314 195.252 975.343 194.024C972.373 192.797 969.674 190.996 967.401 188.726C965.128 186.455 963.325 183.76 962.096 180.793C960.867 177.826 960.236 174.646 960.239 171.435C960.236 168.224 960.867 165.044 962.096 162.077C963.325 159.11 965.128 156.414 967.401 154.144C969.674 151.873 972.373 150.073 975.343 148.845C978.314 147.618 981.498 146.987 984.712 146.99H1201.38C1204.59 147.061 1207.78 146.487 1210.76 145.303C1213.75 144.119 1216.46 142.348 1218.75 140.096C1221.03 137.844 1222.84 135.157 1224.07 132.193C1225.29 129.23 1225.91 126.05 1225.88 122.844Z" fill="#D3DDE5"/>
<path d="M185.901 0.199532H168.619C165.392 0.196908 162.195 0.829984 159.212 2.06255C156.23 3.29511 153.52 5.10297 151.237 7.38269C148.955 9.66242 147.145 12.3693 145.911 15.3484C144.677 18.3275 144.043 21.5204 144.046 24.7444C144.043 27.9684 144.677 31.1613 145.911 34.1404C147.145 37.1195 148.955 39.8263 151.237 42.1061C153.52 44.3858 156.23 46.1936 159.212 47.4262C162.195 48.6588 165.392 49.2918 168.619 49.2892H185.901C189.129 49.2918 192.325 48.6588 195.308 47.4262C198.291 46.1936 201.001 44.3858 203.283 42.1061C205.565 39.8263 207.375 37.1195 208.609 34.1404C209.843 31.1613 210.477 27.9684 210.474 24.7444C210.461 18.2387 207.868 12.0033 203.262 7.40311C198.657 2.80291 192.414 0.212715 185.901 0.199532Z" fill="#D3DDE5"/>
<path d="M195.99 276.179H161.727V440.909H195.99V276.179Z" fill="#F1D1A9"/>
<path d="M195.99 445H161.727C160.667 445 159.651 444.58 158.902 443.831C158.152 443.083 157.731 442.068 157.731 441.009V276.179C157.731 275.121 158.152 274.106 158.902 273.357C159.651 272.609 160.667 272.188 161.727 272.188H195.99C197.05 272.188 198.066 272.609 198.816 273.357C199.565 274.106 199.986 275.121 199.986 276.179V440.909C199.999 441.442 199.906 441.971 199.711 442.467C199.516 442.963 199.224 443.415 198.852 443.796C198.479 444.177 198.034 444.48 197.543 444.687C197.051 444.894 196.524 445 195.99 445ZM165.723 437.018H191.995V280.17H165.723V437.018Z" fill="#525388"/>
<path d="M283.097 276.179H195.99V440.909H283.097V276.179Z" fill="#ECC086"/>
<path d="M250.732 276.179H230.354V302.221H250.732V276.179Z" fill="#F8F8F9"/>
<path d="M250.731 304.815H230.353C230.025 304.818 229.699 304.755 229.395 304.631C229.09 304.506 228.814 304.323 228.582 304.09C228.349 303.858 228.165 303.582 228.041 303.278C227.916 302.974 227.853 302.649 227.856 302.321V276.279C227.853 275.951 227.916 275.625 228.041 275.321C228.165 275.018 228.349 274.742 228.582 274.509C228.814 274.277 229.09 274.094 229.395 273.969C229.699 273.845 230.025 273.782 230.353 273.785H250.731C251.06 273.782 251.386 273.845 251.69 273.969C251.994 274.094 252.271 274.277 252.503 274.509C252.736 274.742 252.92 275.018 253.044 275.321C253.169 275.625 253.231 275.951 253.229 276.279V302.321C253.231 302.649 253.169 302.974 253.044 303.278C252.92 303.582 252.736 303.858 252.503 304.09C252.271 304.323 251.994 304.506 251.69 304.631C251.386 304.755 251.06 304.818 250.731 304.815ZM232.851 299.826H248.234V278.774H232.851V299.826Z" fill="#525388"/>
<path d="M283.066 445H195.96C194.9 445 193.884 444.58 193.135 443.831C192.385 443.083 191.964 442.068 191.964 441.009V276.179C191.964 275.121 192.385 274.106 193.135 273.357C193.884 272.609 194.9 272.188 195.96 272.188H283.066C284.126 272.188 285.143 272.609 285.892 273.357C286.641 274.106 287.062 275.121 287.062 276.179V440.909C287.075 441.442 286.982 441.971 286.787 442.467C286.592 442.963 286.3 443.415 285.928 443.796C285.555 444.177 285.11 444.48 284.619 444.687C284.128 444.894 283.6 445 283.066 445ZM199.956 437.018H279.071V280.17H199.956V437.018Z" fill="#525388"/>
<path d="M269.911 336.045H230.354V440.909H269.911V336.045Z" fill="#F1D1A9"/>
<path d="M269.911 445H230.353C229.293 445 228.277 444.58 227.528 443.831C226.778 443.083 226.357 442.067 226.357 441.009V336.045C226.357 334.986 226.778 333.971 227.528 333.223C228.277 332.474 229.293 332.054 230.353 332.054H269.911C270.97 332.054 271.987 332.474 272.736 333.223C273.485 333.971 273.906 334.986 273.906 336.045V440.909C273.92 441.442 273.826 441.971 273.631 442.467C273.437 442.963 273.144 443.415 272.772 443.796C272.4 444.177 271.955 444.48 271.463 444.687C270.972 444.894 270.444 445 269.911 445ZM234.349 437.018H265.915V340.136H234.349V437.018Z" fill="#07074E"/>
<path d="M370.303 336.045H269.911V440.909H370.303V336.045Z" fill="#ECC086"/>
<path d="M333.043 336.045H309.568V366.177H333.043V336.045Z" fill="#F8F8F9"/>
<path d="M333.013 368.672H309.538C309.209 368.674 308.883 368.611 308.579 368.487C308.275 368.363 307.999 368.179 307.766 367.947C307.534 367.715 307.35 367.439 307.225 367.135C307.101 366.831 307.038 366.505 307.041 366.177V336.045C307.038 335.717 307.101 335.391 307.225 335.087C307.35 334.783 307.534 334.507 307.766 334.275C307.999 334.043 308.275 333.859 308.579 333.735C308.883 333.611 309.209 333.548 309.538 333.55H333.013C333.341 333.548 333.667 333.611 333.971 333.735C334.276 333.859 334.552 334.043 334.784 334.275C335.017 334.507 335.201 334.783 335.325 335.087C335.45 335.391 335.513 335.717 335.51 336.045V366.177C335.513 366.505 335.45 366.831 335.325 367.135C335.201 367.439 335.017 367.715 334.784 367.947C334.552 368.179 334.276 368.363 333.971 368.487C333.667 368.611 333.341 368.674 333.013 368.672ZM312.035 363.683H330.515V338.539H312.035V363.683Z" fill="#07074E"/>
<path d="M370.303 445H269.911C268.851 445 267.835 444.58 267.085 443.831C266.336 443.083 265.915 442.067 265.915 441.009V336.045C265.915 334.986 266.336 333.971 267.085 333.223C267.835 332.474 268.851 332.054 269.911 332.054H370.303C371.363 332.054 372.379 332.474 373.128 333.223C373.878 333.971 374.299 334.986 374.299 336.045V440.909C374.312 441.442 374.218 441.971 374.024 442.467C373.829 442.963 373.537 443.415 373.164 443.796C372.792 444.177 372.347 444.48 371.855 444.687C371.364 444.894 370.836 445 370.303 445ZM273.906 437.018H366.307V340.136H273.906V437.018Z" fill="#07074E"/>
<path d="M80.9139 396.908H41.3564V440.909H80.9139V396.908Z" fill="#F1D1A9"/>
<path d="M80.9137 445H41.3263C40.2665 445 39.2502 444.58 38.5009 443.831C37.7515 443.083 37.3306 442.067 37.3306 441.009V397.008C37.3306 395.949 37.7515 394.934 38.5009 394.186C39.2502 393.437 40.2665 393.017 41.3263 393.017H80.8837C81.9435 393.017 82.9598 393.437 83.7091 394.186C84.4585 394.934 84.8794 395.949 84.8794 397.008V441.009C84.8795 442.062 84.4626 443.073 83.7198 443.821C82.9769 444.568 81.9682 444.992 80.9137 445ZM45.3519 437.018H76.918V400.999H45.322L45.3519 437.018Z" fill="#07074E"/>
<path d="M181.306 396.908H80.9141V440.909H181.306V396.908Z" fill="#ECC086"/>
<path d="M144.046 396.908H120.571V427.04H144.046V396.908Z" fill="#F8F8F9"/>
<path d="M144.146 429.535H120.671C120.343 429.537 120.017 429.475 119.712 429.35C119.408 429.226 119.132 429.042 118.899 428.81C118.667 428.578 118.483 428.302 118.359 427.998C118.234 427.694 118.171 427.369 118.174 427.04V396.908C118.171 396.58 118.234 396.254 118.359 395.95C118.483 395.647 118.667 395.371 118.899 395.138C119.132 394.906 119.408 394.723 119.712 394.598C120.017 394.474 120.343 394.411 120.671 394.414H144.146C144.475 394.411 144.801 394.474 145.105 394.598C145.409 394.723 145.685 394.906 145.918 395.138C146.15 395.371 146.334 395.647 146.459 395.95C146.583 396.254 146.646 396.58 146.643 396.908V427.04C146.646 427.369 146.583 427.694 146.459 427.998C146.334 428.302 146.15 428.578 145.918 428.81C145.685 429.042 145.409 429.226 145.105 429.35C144.801 429.475 144.475 429.537 144.146 429.535ZM123.069 424.546H141.549V399.402H123.069V424.546Z" fill="#07074E"/>
<path d="M181.306 445H80.9137C79.8539 445 78.8376 444.58 78.0883 443.831C77.3389 443.083 76.918 442.067 76.918 441.009V397.008C76.918 395.949 77.3389 394.934 78.0883 394.186C78.8376 393.437 79.8539 393.017 80.9137 393.017H181.306C182.366 393.017 183.382 393.437 184.131 394.186C184.88 394.934 185.301 395.949 185.301 397.008V441.009C185.301 442.067 184.88 443.083 184.131 443.831C183.382 444.58 182.366 445 181.306 445ZM84.9094 437.018H177.31V400.999H84.9094V437.018Z" fill="#07074E"/>
<path d="M1133.48 389.425C1133.5 379.45 1130.6 369.686 1125.16 361.324C1119.71 352.962 1111.95 346.363 1102.82 342.331V337.841H1081.84C1068.14 337.841 1055 343.276 1045.32 352.949C1035.63 362.623 1030.19 375.744 1030.19 389.425C1030.19 403.106 1035.63 416.226 1045.32 425.9C1055 435.574 1068.14 441.009 1081.84 441.009H1102.82V436.519C1111.95 432.487 1119.71 425.888 1125.16 417.526C1130.6 409.164 1133.5 399.4 1133.48 389.425Z" fill="#53616E"/>
<path d="M1102.92 445H1081.94C1067.18 445 1053.03 439.145 1042.59 428.722C1032.16 418.3 1026.3 404.164 1026.3 389.425C1026.3 374.685 1032.16 360.55 1042.59 350.127C1053.03 339.705 1067.18 333.85 1081.94 333.85H1102.92C1103.98 333.85 1104.99 334.27 1105.74 335.019C1106.49 335.767 1106.91 336.782 1106.91 337.841V339.737C1116.13 344.345 1123.88 351.424 1129.29 360.182C1134.71 368.94 1137.58 379.031 1137.58 389.325C1137.58 399.619 1134.71 409.71 1129.29 418.468C1123.88 427.226 1116.13 434.305 1106.91 438.914V440.809C1106.93 441.348 1106.84 441.885 1106.65 442.389C1106.46 442.892 1106.17 443.353 1105.79 443.743C1105.42 444.133 1104.98 444.446 1104.48 444.661C1103.99 444.877 1103.45 444.992 1102.92 445ZM1081.94 341.832C1069.3 341.832 1057.18 346.846 1048.25 355.772C1039.31 364.697 1034.29 376.802 1034.29 389.425C1034.29 402.047 1039.31 414.153 1048.25 423.078C1057.18 432.004 1069.3 437.018 1081.94 437.018H1098.92V436.519C1098.91 435.737 1099.14 434.97 1099.56 434.313C1099.99 433.657 1100.6 433.14 1101.32 432.827C1109.73 429.079 1116.88 422.975 1121.9 415.255C1126.91 407.535 1129.58 398.528 1129.58 389.325C1129.58 380.122 1126.91 371.116 1121.9 363.395C1116.88 355.675 1109.73 349.572 1101.32 345.823C1100.61 345.501 1100 344.982 1099.58 344.327C1099.15 343.673 1098.92 342.911 1098.92 342.131V341.632H1081.94V341.832Z" fill="#07074E"/>
<path d="M1153.93 397.712C1158.5 369.591 1139.38 343.094 1111.23 338.529C1083.08 333.965 1056.55 353.061 1051.98 381.182C1047.41 409.303 1066.53 435.8 1094.68 440.365C1122.83 444.929 1149.36 425.833 1153.93 397.712Z" fill="#75808E"/>
<path d="M1102.92 445C1091.91 445 1081.15 441.741 1072 435.634C1062.85 429.527 1055.72 420.848 1051.51 410.693C1047.3 400.538 1046.2 389.363 1048.34 378.583C1050.49 367.802 1055.79 357.9 1063.57 350.127C1071.35 342.355 1081.27 337.062 1092.06 334.918C1102.85 332.773 1114.04 333.874 1124.21 338.08C1134.37 342.287 1143.06 349.41 1149.18 358.549C1155.29 367.688 1158.56 378.433 1158.56 389.425C1158.53 404.158 1152.67 418.281 1142.24 428.699C1131.81 439.117 1117.67 444.979 1102.92 445ZM1102.92 341.832C1093.49 341.832 1084.28 344.623 1076.44 349.853C1068.61 355.082 1062.5 362.515 1058.89 371.212C1055.29 379.908 1054.34 389.478 1056.18 398.71C1058.02 407.942 1062.56 416.422 1069.22 423.078C1075.89 429.734 1084.38 434.267 1093.62 436.103C1102.86 437.94 1112.44 436.997 1121.15 433.395C1129.86 429.793 1137.3 423.693 1142.53 415.866C1147.77 408.04 1150.56 398.838 1150.56 389.425C1150.55 376.807 1145.52 364.711 1136.59 355.789C1127.66 346.867 1115.55 341.848 1102.92 341.832Z" fill="#07074E"/>
<path d="M1127.31 393.396C1129.49 379.961 1120.36 367.302 1106.91 365.121C1093.46 362.94 1080.78 372.063 1078.6 385.498C1076.42 398.933 1085.55 411.593 1099 413.773C1112.45 415.954 1125.13 406.831 1127.31 393.396Z" fill="#E4E5E6"/>
<path d="M1102.92 397.108C1098.24 397.101 1093.62 396.05 1089.4 394.03C1085.19 392.01 1081.47 389.073 1078.54 385.434C1078.34 386.755 1078.24 388.089 1078.24 389.425C1078.24 395.961 1080.84 402.23 1085.47 406.851C1090.1 411.473 1096.37 414.07 1102.92 414.07C1109.46 414.07 1115.73 411.473 1120.36 406.851C1124.99 402.23 1127.59 395.961 1127.59 389.425C1127.59 388.089 1127.49 386.755 1127.29 385.434C1124.35 389.064 1120.63 391.995 1116.42 394.014C1112.2 396.033 1107.59 397.09 1102.92 397.108Z" fill="#C2C4C6"/>
<path d="M1102.92 418.061C1097.25 418.061 1091.7 416.381 1086.99 413.235C1082.27 410.088 1078.6 405.616 1076.43 400.383C1074.26 395.151 1073.69 389.393 1074.8 383.838C1075.9 378.284 1078.63 373.181 1082.64 369.176C1086.65 365.172 1091.76 362.444 1097.32 361.339C1102.88 360.235 1108.65 360.802 1113.89 362.969C1119.13 365.136 1123.6 368.807 1126.75 373.516C1129.9 378.225 1131.58 383.761 1131.58 389.425C1131.57 397.015 1128.54 404.289 1123.17 409.656C1117.8 415.023 1110.51 418.045 1102.92 418.061ZM1102.92 368.771C1098.83 368.771 1094.83 369.983 1091.43 372.252C1088.03 374.521 1085.38 377.747 1083.81 381.521C1082.25 385.295 1081.84 389.448 1082.63 393.454C1083.43 397.461 1085.4 401.141 1088.29 404.029C1091.19 406.918 1094.87 408.885 1098.88 409.682C1102.89 410.479 1107.05 410.07 1110.83 408.506C1114.61 406.943 1117.84 404.296 1120.11 400.899C1122.38 397.503 1123.59 393.51 1123.59 389.425C1123.58 383.95 1121.4 378.703 1117.53 374.832C1113.65 370.961 1108.4 368.782 1102.92 368.771Z" fill="#07074E"/>
<path d="M1229.88 322.475H1102.92V361.887H1229.88V322.475Z" fill="#44515C"/>
<path d="M1229.88 365.878H1102.92C1101.86 365.878 1100.84 365.457 1100.09 364.709C1099.34 363.96 1098.92 362.945 1098.92 361.887V322.475C1098.92 321.417 1099.34 320.402 1100.09 319.653C1100.84 318.905 1101.86 318.484 1102.92 318.484H1229.88C1230.94 318.484 1231.95 318.905 1232.7 319.653C1233.45 320.402 1233.87 321.417 1233.87 322.475V361.887C1233.87 362.945 1233.45 363.96 1232.7 364.709C1231.95 365.457 1230.94 365.878 1229.88 365.878ZM1106.91 357.896H1225.88V326.466H1106.91V357.896Z" fill="#07074E"/>
<path d="M1174.64 389.425C1174.65 379.45 1171.76 369.686 1166.31 361.324C1160.87 352.962 1153.11 346.363 1143.97 342.331V337.841H1122.99C1116.21 337.841 1109.5 339.175 1103.23 341.767C1096.96 344.36 1091.27 348.159 1086.48 352.949C1081.68 357.739 1077.88 363.426 1075.28 369.685C1072.68 375.943 1071.35 382.651 1071.35 389.425C1071.35 396.199 1072.68 402.907 1075.28 409.165C1077.88 415.424 1081.68 421.11 1086.48 425.9C1091.27 430.69 1096.96 434.49 1103.23 437.082C1109.5 439.675 1116.21 441.009 1122.99 441.009H1143.97V436.519C1153.11 432.487 1160.87 425.888 1166.31 417.526C1171.76 409.164 1174.65 399.4 1174.64 389.425Z" fill="#53616E"/>
<path d="M1143.97 445H1122.99C1115.69 445 1108.45 443.562 1101.7 440.77C1094.95 437.977 1088.82 433.883 1083.65 428.722C1078.48 423.562 1074.39 417.435 1071.59 410.693C1068.79 403.95 1067.35 396.723 1067.35 389.425C1067.35 382.127 1068.79 374.9 1071.59 368.157C1074.39 361.415 1078.48 355.288 1083.65 350.127C1088.82 344.967 1094.95 340.873 1101.7 338.08C1108.45 335.287 1115.69 333.85 1122.99 333.85H1143.97C1145.03 333.85 1146.05 334.27 1146.8 335.019C1147.55 335.767 1147.97 336.782 1147.97 337.841V339.737C1157.18 344.345 1164.93 351.424 1170.35 360.182C1175.76 368.94 1178.63 379.031 1178.63 389.325C1178.63 399.619 1175.76 409.71 1170.35 418.468C1164.93 427.226 1157.18 434.305 1147.97 438.914V440.809C1147.99 441.35 1147.91 441.891 1147.72 442.398C1147.53 442.906 1147.24 443.369 1146.87 443.761C1146.5 444.153 1146.05 444.465 1145.55 444.678C1145.05 444.891 1144.51 445.001 1143.97 445ZM1122.99 341.832C1110.36 341.832 1098.24 346.846 1089.3 355.772C1080.37 364.697 1075.34 376.802 1075.34 389.425C1075.34 402.047 1080.37 414.153 1089.3 423.078C1098.24 432.004 1110.36 437.018 1122.99 437.018H1139.98V436.519C1139.97 435.737 1140.19 434.97 1140.62 434.313C1141.05 433.657 1141.66 433.14 1142.37 432.827C1150.79 429.079 1157.94 422.975 1162.95 415.255C1167.97 407.535 1170.64 398.528 1170.64 389.325C1170.64 380.122 1167.97 371.116 1162.95 363.395C1157.94 355.675 1150.79 349.572 1142.37 345.823C1141.66 345.501 1141.06 344.982 1140.63 344.327C1140.21 343.673 1139.98 342.911 1139.98 342.131V341.632H1122.99V341.832Z" fill="#07074E"/>
<path d="M1143.97 441.009C1172.49 441.009 1195.62 417.914 1195.62 389.425C1195.62 360.936 1172.49 337.841 1143.97 337.841C1115.45 337.841 1092.33 360.936 1092.33 389.425C1092.33 417.914 1115.45 441.009 1143.97 441.009Z" fill="#7F8A9A"/>
<path d="M1143.97 445C1132.97 445 1122.21 441.741 1113.06 435.634C1103.91 429.527 1096.78 420.848 1092.57 410.693C1088.36 400.538 1087.25 389.363 1089.4 378.583C1091.55 367.802 1096.85 357.9 1104.63 350.127C1112.41 342.355 1122.32 337.062 1133.12 334.918C1143.91 332.773 1155.1 333.874 1165.26 338.08C1175.43 342.287 1184.12 349.41 1190.23 358.549C1196.35 367.688 1199.61 378.433 1199.61 389.425C1199.59 404.158 1193.72 418.281 1183.29 428.699C1172.86 439.117 1158.72 444.979 1143.97 445ZM1143.97 341.832C1134.55 341.832 1125.33 344.623 1117.5 349.853C1109.66 355.082 1103.56 362.515 1099.95 371.212C1096.34 379.908 1095.4 389.478 1097.24 398.71C1099.08 407.942 1103.61 416.422 1110.28 423.078C1116.94 429.734 1125.43 434.267 1134.68 436.103C1143.92 437.94 1153.5 436.997 1162.21 433.395C1170.91 429.793 1178.35 423.693 1183.59 415.866C1188.83 408.04 1191.62 398.838 1191.62 389.425C1191.6 376.807 1186.58 364.711 1177.65 355.789C1168.71 346.867 1156.6 341.848 1143.97 341.832Z" fill="#07074E"/>
<path d="M1143.97 414.07C1157.6 414.07 1168.64 403.036 1168.64 389.425C1168.64 375.814 1157.6 364.78 1143.97 364.78C1130.34 364.78 1119.3 375.814 1119.3 389.425C1119.3 403.036 1130.34 414.07 1143.97 414.07Z" fill="#E4E5E6"/>
<path d="M1143.97 397.108C1139.29 397.101 1134.68 396.05 1130.46 394.03C1126.24 392.01 1122.53 389.073 1119.6 385.434C1119.4 386.755 1119.3 388.089 1119.3 389.425C1119.3 395.961 1121.9 402.23 1126.52 406.851C1131.15 411.473 1137.43 414.07 1143.97 414.07C1150.52 414.07 1156.79 411.473 1161.42 406.851C1166.05 402.23 1168.64 395.961 1168.64 389.425C1168.65 388.089 1168.55 386.755 1168.35 385.434C1165.42 389.081 1161.71 392.024 1157.49 394.044C1153.27 396.065 1148.65 397.112 1143.97 397.108Z" fill="#C2C4C6"/>
<path d="M1143.97 418.061C1138.3 418.061 1132.76 416.381 1128.04 413.235C1123.33 410.088 1119.65 405.616 1117.48 400.383C1115.31 395.151 1114.75 389.393 1115.85 383.838C1116.96 378.284 1119.69 373.181 1123.7 369.176C1127.71 365.172 1132.82 362.444 1138.38 361.339C1143.94 360.235 1149.7 360.802 1154.94 362.969C1160.18 365.136 1164.66 368.807 1167.81 373.516C1170.96 378.225 1172.64 383.761 1172.64 389.425C1172.62 397.015 1169.6 404.289 1164.23 409.656C1158.85 415.023 1151.57 418.045 1143.97 418.061ZM1143.97 368.771C1139.88 368.771 1135.88 369.983 1132.48 372.252C1129.08 374.521 1126.43 377.747 1124.87 381.521C1123.3 385.295 1122.89 389.448 1123.69 393.454C1124.49 397.461 1126.46 401.141 1129.35 404.029C1132.24 406.918 1135.93 408.885 1139.94 409.682C1143.95 410.479 1148.11 410.07 1151.88 408.506C1155.66 406.943 1158.89 404.296 1161.16 400.899C1163.44 397.503 1164.65 393.51 1164.65 389.425C1164.64 383.95 1162.46 378.703 1158.58 374.832C1154.71 370.961 1149.45 368.782 1143.97 368.771Z" fill="#07074E"/>
<path d="M590.866 389.425C590.879 379.45 587.986 369.686 582.541 361.324C577.096 352.962 569.333 346.363 560.199 342.331V337.841H539.221C532.439 337.841 525.723 339.175 519.458 341.767C513.192 344.36 507.499 348.159 502.703 352.949C497.907 357.739 494.103 363.426 491.508 369.685C488.912 375.943 487.577 382.651 487.577 389.425C487.577 396.199 488.912 402.907 491.508 409.165C494.103 415.424 497.907 421.11 502.703 425.9C507.499 430.69 513.192 434.49 519.458 437.082C525.723 439.675 532.439 441.009 539.221 441.009H560.199V436.519C569.333 432.487 577.096 425.888 582.541 417.526C587.986 409.164 590.879 399.4 590.866 389.425Z" fill="#53616E"/>
<path d="M560.299 445H539.321C524.565 445 510.412 439.145 499.978 428.722C489.543 418.3 483.681 404.164 483.681 389.425C483.681 374.685 489.543 360.55 499.978 350.127C510.412 339.705 524.565 333.85 539.321 333.85H560.299C561.359 333.85 562.375 334.27 563.124 335.019C563.873 335.767 564.295 336.782 564.295 337.841V339.737C573.51 344.345 581.26 351.424 586.676 360.182C592.092 368.94 594.961 379.031 594.961 389.325C594.961 399.619 592.092 409.71 586.676 418.468C581.26 427.226 573.51 434.305 564.295 438.914V440.809C564.313 441.348 564.224 441.885 564.032 442.389C563.841 442.892 563.55 443.353 563.178 443.743C562.806 444.133 562.36 444.446 561.865 444.661C561.371 444.877 560.838 444.992 560.299 445ZM539.321 341.832C526.684 341.832 514.564 346.846 505.629 355.772C496.693 364.697 491.673 376.802 491.673 389.425C491.673 402.047 496.693 414.153 505.629 423.078C514.564 432.004 526.684 437.018 539.321 437.018H556.303V436.519C556.296 435.737 556.52 434.97 556.946 434.313C557.373 433.657 557.983 433.14 558.701 432.827C567.116 429.079 574.263 422.975 579.279 415.255C584.295 407.535 586.964 398.528 586.964 389.325C586.964 380.122 584.295 371.116 579.279 363.395C574.263 355.675 567.116 349.572 558.701 345.823C557.99 345.501 557.386 344.982 556.961 344.327C556.536 343.673 556.308 342.911 556.303 342.131V341.632H539.321V341.832Z" fill="#07074E"/>
<path d="M560.299 441.009C588.821 441.009 611.943 417.914 611.943 389.425C611.943 360.936 588.821 337.841 560.299 337.841C531.776 337.841 508.654 360.936 508.654 389.425C508.654 417.914 531.776 441.009 560.299 441.009Z" fill="#75808E"/>
<path d="M560.298 445C549.294 445 538.536 441.741 529.386 435.634C520.236 429.527 513.105 420.848 508.894 410.693C504.682 400.538 503.58 389.363 505.727 378.583C507.874 367.802 513.173 357.9 520.955 350.127C528.736 342.355 538.65 337.062 549.444 334.918C560.237 332.773 571.424 333.874 581.591 338.08C591.758 342.287 600.448 349.41 606.562 358.549C612.675 367.688 615.939 378.433 615.939 389.425C615.917 404.158 610.049 418.281 599.619 428.699C589.189 439.117 575.049 444.979 560.298 445ZM560.298 341.832C550.874 341.832 541.662 344.623 533.826 349.853C525.99 355.082 519.883 362.515 516.277 371.212C512.67 379.908 511.727 389.478 513.565 398.71C515.404 407.942 519.942 416.422 526.606 423.078C533.269 429.734 541.76 434.267 551.003 436.103C560.246 437.94 569.826 436.997 578.533 433.395C587.24 429.793 594.681 423.693 599.917 415.866C605.153 408.04 607.947 398.838 607.947 389.425C607.931 376.807 602.906 364.711 593.974 355.789C585.041 346.867 572.931 341.848 560.298 341.832Z" fill="#07074E"/>
<path d="M560.298 414.07C573.925 414.07 584.972 403.036 584.972 389.425C584.972 375.814 573.925 364.78 560.298 364.78C546.672 364.78 535.625 375.814 535.625 389.425C535.625 403.036 546.672 414.07 560.298 414.07Z" fill="#E4E5E6"/>
<path d="M560.298 397.108C555.621 397.101 551.005 396.05 546.787 394.03C542.57 392.01 538.858 389.073 535.925 385.434C535.726 386.755 535.625 388.089 535.625 389.425C535.625 395.961 538.224 402.23 542.852 406.851C547.479 411.473 553.755 414.07 560.298 414.07C566.842 414.07 573.118 411.473 577.745 406.851C582.372 402.23 584.972 395.961 584.972 389.425C584.975 388.089 584.875 386.755 584.672 385.434C581.731 389.064 578.018 391.995 573.802 394.014C569.587 396.033 564.974 397.09 560.298 397.108Z" fill="#C2C4C6"/>
<path d="M560.299 418.061C554.628 418.061 549.085 416.381 544.371 413.235C539.656 410.088 535.982 405.616 533.812 400.383C531.642 395.151 531.074 389.393 532.18 383.838C533.286 378.284 536.017 373.181 540.026 369.176C544.036 365.172 549.144 362.444 554.706 361.339C560.267 360.235 566.031 360.802 571.27 362.969C576.508 365.136 580.986 368.807 584.136 373.516C587.286 378.225 588.968 383.761 588.968 389.425C588.952 397.015 585.926 404.289 580.553 409.656C575.18 415.023 567.897 418.045 560.299 418.061ZM560.299 368.771C556.209 368.771 552.211 369.983 548.811 372.252C545.41 374.521 542.76 377.747 541.195 381.521C539.63 385.295 539.22 389.448 540.018 393.454C540.816 397.461 542.785 401.141 545.677 404.029C548.569 406.918 552.253 408.885 556.265 409.682C560.276 410.479 564.433 410.07 568.212 408.506C571.99 406.943 575.219 404.296 577.492 400.899C579.764 397.503 580.976 393.51 580.976 389.425C580.966 383.95 578.784 378.703 574.908 374.832C571.033 370.961 565.779 368.782 560.299 368.771Z" fill="#07074E"/>
<path d="M416.253 316.988C410.295 316.996 404.582 319.363 400.369 323.572C396.156 327.78 393.785 333.486 393.777 339.437C393.785 345.389 396.156 351.094 400.369 355.303C404.582 359.511 410.295 361.879 416.253 361.887H971.856V316.988H416.253Z" fill="#F8F8F9"/>
<path d="M971.856 365.878H416.253C409.233 365.878 402.499 363.092 397.535 358.134C392.571 353.175 389.782 346.45 389.782 339.437C389.782 332.425 392.571 325.7 397.535 320.741C402.499 315.782 409.233 312.997 416.253 312.997H971.856C972.916 312.997 973.932 313.417 974.681 314.166C975.431 314.914 975.852 315.929 975.852 316.988V361.887C975.852 362.945 975.431 363.96 974.681 364.709C973.932 365.457 972.916 365.878 971.856 365.878ZM416.253 320.979C411.352 320.979 406.652 322.923 403.186 326.385C399.72 329.847 397.773 334.542 397.773 339.437C397.773 344.333 399.72 349.028 403.186 352.489C406.652 355.951 411.352 357.896 416.253 357.896H967.86V320.979H416.253Z" fill="#07074E"/>
<path d="M518.044 31.9282H416.054V316.988H518.044V31.9282Z" fill="#7F8A9A"/>
<path d="M416.054 105.563L517.944 299.826V105.563H416.054Z" fill="#657585"/>
<path d="M517.944 320.979H416.054C414.994 320.979 413.978 320.558 413.228 319.81C412.479 319.061 412.058 318.046 412.058 316.988V31.9282C412.058 30.8697 412.479 29.8546 413.228 29.1061C413.978 28.3577 414.994 27.9372 416.054 27.9372H518.044C519.104 27.9372 520.12 28.3577 520.87 29.1061C521.619 29.8546 522.04 30.8697 522.04 31.9282V316.988C521.997 318.049 521.548 319.055 520.787 319.797C520.025 320.539 519.008 320.962 517.944 320.979ZM420.05 312.997H514.048V35.9193H420.05V312.997Z" fill="#07074E"/>
<path d="M518.044 31.9282H416.054V105.663H518.044V31.9282Z" fill="#BDDCEF"/>
<path d="M517.944 109.554H416.054C414.994 109.554 413.978 109.133 413.228 108.385C412.479 107.636 412.058 106.621 412.058 105.563V31.8284C412.058 30.7699 412.479 29.7548 413.228 29.0064C413.978 28.2579 414.994 27.8374 416.054 27.8374H518.044C519.104 27.8374 520.12 28.2579 520.87 29.0064C521.619 29.7548 522.04 30.7699 522.04 31.8284V105.563C521.997 106.625 521.548 107.63 520.787 108.372C520.025 109.114 519.008 109.537 517.944 109.554ZM420.05 101.572H514.048V35.8195H420.05V101.572Z" fill="#07074E"/>
<path d="M517.944 48.5908H416.053C415.391 48.5908 414.756 48.328 414.288 47.8602C413.819 47.3924 413.556 46.758 413.556 46.0964C413.556 45.4348 413.819 44.8004 414.288 44.3326C414.756 43.8648 415.391 43.602 416.053 43.602H518.044C518.372 43.5994 518.698 43.6621 519.003 43.7865C519.307 43.9109 519.583 44.0945 519.816 44.3267C520.048 44.5588 520.232 44.8349 520.356 45.1387C520.481 45.4425 520.544 45.7681 520.541 46.0964C520.525 46.7704 520.244 47.4108 519.757 47.8781C519.271 48.3453 518.619 48.6015 517.944 48.5908Z" fill="#07074E"/>
<path d="M517.944 61.0628H416.053C415.391 61.0628 414.756 60.8 414.288 60.3322C413.819 59.8644 413.556 59.2299 413.556 58.5684C413.556 57.9068 413.819 57.2724 414.288 56.8046C414.756 56.3368 415.391 56.074 416.053 56.074H518.044C518.372 56.0713 518.698 56.134 519.003 56.2585C519.307 56.3829 519.583 56.5665 519.816 56.7987C520.048 57.0308 520.232 57.3069 520.356 57.6107C520.481 57.9145 520.544 58.2401 520.541 58.5684C520.525 59.2424 520.244 59.8828 519.757 60.35C519.271 60.8173 518.619 61.0735 517.944 61.0628Z" fill="#07074E"/>
<path d="M517.944 73.5348H416.053C415.391 73.5348 414.756 73.272 414.288 72.8042C413.819 72.3364 413.556 71.7019 413.556 71.0404C413.556 70.3788 413.819 69.7444 414.288 69.2766C414.756 68.8088 415.391 68.546 416.053 68.546H518.044C518.372 68.5433 518.698 68.606 519.003 68.7304C519.307 68.8549 519.583 69.0385 519.816 69.2706C520.048 69.5028 520.232 69.7788 520.356 70.0827C520.481 70.3865 520.544 70.7121 520.541 71.0404C520.525 71.7143 520.244 72.3548 519.757 72.822C519.271 73.2893 518.619 73.5455 517.944 73.5348Z" fill="#07074E"/>
<path d="M517.944 86.0067H416.053C415.391 86.0067 414.756 85.7439 414.288 85.2762C413.819 84.8084 413.556 84.1739 413.556 83.5124C413.556 82.8508 413.819 82.2164 414.288 81.7486C414.756 81.2808 415.391 81.018 416.053 81.018H518.044C518.372 81.0153 518.698 81.078 519.003 81.2024C519.307 81.3268 519.583 81.5105 519.816 81.7426C520.048 81.9748 520.232 82.2508 520.356 82.5547C520.481 82.8585 520.544 83.184 520.541 83.5124C520.525 84.1863 520.244 84.8268 519.757 85.294C519.271 85.7613 518.619 86.0175 517.944 86.0067Z" fill="#07074E"/>
<path d="M471.794 96.2836H462.104C461.442 96.2836 460.807 96.0208 460.338 95.553C459.87 95.0853 459.607 94.4508 459.607 93.7893C459.607 93.1277 459.87 92.4932 460.338 92.0254C460.807 91.5577 461.442 91.2949 462.104 91.2949H471.794C472.456 91.2949 473.091 91.5577 473.56 92.0254C474.028 92.4932 474.291 93.1277 474.291 93.7893C474.291 94.4508 474.028 95.0853 473.56 95.553C473.091 96.0208 472.456 96.2836 471.794 96.2836Z" fill="#07074E"/>
<path d="M946.184 316.988H582.075V361.887H946.184V316.988Z" fill="#757679"/>
<path d="M635.218 389.425C635.231 379.45 632.339 369.686 626.894 361.324C621.449 352.962 613.686 346.363 604.551 342.331V337.841H583.574C569.877 337.841 556.741 343.276 547.056 352.949C537.37 362.623 531.929 375.744 531.929 389.425C531.929 403.106 537.37 416.226 547.056 425.9C556.741 435.574 569.877 441.009 583.574 441.009H604.551V436.519C613.686 432.487 621.449 425.888 626.894 417.526C632.339 409.164 635.231 399.4 635.218 389.425Z" fill="#53616E"/>
<path d="M604.551 445H583.574C568.817 445 554.665 439.145 544.23 428.722C533.796 418.3 527.934 404.164 527.934 389.425C527.934 374.685 533.796 360.55 544.23 350.127C554.665 339.705 568.817 333.85 583.574 333.85H604.551C605.611 333.85 606.627 334.27 607.377 335.019C608.126 335.767 608.547 336.782 608.547 337.841V339.737C617.763 344.345 625.512 351.424 630.929 360.182C636.345 368.94 639.213 379.031 639.213 389.325C639.213 399.619 636.345 409.71 630.929 418.468C625.512 427.226 617.763 434.305 608.547 438.914V440.809C608.566 441.348 608.476 441.885 608.285 442.389C608.093 442.892 607.803 443.353 607.431 443.743C607.058 444.133 606.612 444.446 606.118 444.661C605.623 444.877 605.091 444.992 604.551 445ZM583.574 341.832C570.937 341.832 558.817 346.846 549.881 355.772C540.945 364.697 535.925 376.802 535.925 389.425C535.925 402.047 540.945 414.153 549.881 423.078C558.817 432.004 570.937 437.018 583.574 437.018H600.556V436.519C600.549 435.737 600.773 434.97 601.199 434.313C601.625 433.657 602.235 433.14 602.953 432.827C611.368 429.079 618.516 422.975 623.531 415.255C628.547 407.535 631.217 398.528 631.217 389.325C631.217 380.122 628.547 371.116 623.531 363.395C618.516 355.675 611.368 349.572 602.953 345.823C602.242 345.501 601.638 344.982 601.213 344.327C600.789 343.673 600.56 342.911 600.556 342.131V341.632H583.574V341.832Z" fill="#07074E"/>
<path d="M604.551 441.009C633.074 441.009 656.196 417.914 656.196 389.425C656.196 360.936 633.074 337.841 604.551 337.841C576.029 337.841 552.907 360.936 552.907 389.425C552.907 417.914 576.029 441.009 604.551 441.009Z" fill="#7F8A9A"/>
<path d="M604.551 445C593.546 445 582.789 441.741 573.639 435.634C564.489 429.527 557.357 420.848 553.146 410.693C548.935 400.538 547.833 389.363 549.98 378.583C552.127 367.802 557.426 357.9 565.207 350.127C572.989 342.355 582.903 337.062 593.696 334.918C604.489 332.773 615.676 333.874 625.843 338.08C636.01 342.287 644.7 349.41 650.814 358.549C656.928 367.688 660.191 378.433 660.191 389.425C660.17 404.158 654.301 418.281 643.871 428.699C633.441 439.117 619.301 444.979 604.551 445ZM604.551 341.832C595.127 341.832 585.914 344.623 578.079 349.853C570.243 355.082 564.136 362.515 560.529 371.212C556.923 379.908 555.979 389.478 557.818 398.71C559.656 407.942 564.194 416.422 570.858 423.078C577.522 429.734 586.012 434.267 595.255 436.103C604.498 437.94 614.079 436.997 622.785 433.395C631.492 429.793 638.934 423.693 644.169 415.866C649.405 408.04 652.2 398.838 652.2 389.425C652.184 376.807 647.159 364.711 638.226 355.789C629.294 346.867 617.183 341.848 604.551 341.832Z" fill="#07074E"/>
<path d="M604.551 414.07C618.178 414.07 629.224 403.036 629.224 389.425C629.224 375.814 618.178 364.78 604.551 364.78C590.924 364.78 579.877 375.814 579.877 389.425C579.877 403.036 590.924 414.07 604.551 414.07Z" fill="#E4E5E6"/>
<path d="M604.551 397.108C599.874 397.101 595.257 396.05 591.039 394.03C586.822 392.01 583.11 389.073 580.177 385.434C579.978 386.755 579.878 388.089 579.877 389.425C579.877 395.961 582.477 402.23 587.104 406.851C591.731 411.473 598.007 414.07 604.551 414.07C611.095 414.07 617.371 411.473 621.998 406.851C626.625 402.23 629.224 395.961 629.224 389.425C629.228 388.089 629.127 386.755 628.925 385.434C625.999 389.081 622.289 392.024 618.069 394.044C613.85 396.065 609.23 397.112 604.551 397.108Z" fill="#C2C4C6"/>
<path d="M604.551 418.061C598.881 418.061 593.338 416.381 588.623 413.235C583.909 410.088 580.234 405.616 578.064 400.383C575.894 395.151 575.327 389.393 576.433 383.838C577.539 378.284 580.269 373.181 584.279 369.176C588.288 365.172 593.397 362.444 598.958 361.339C604.519 360.235 610.284 360.802 615.522 362.969C620.761 365.136 625.238 368.807 628.389 373.516C631.539 378.225 633.22 383.761 633.22 389.425C633.204 397.015 630.179 404.289 624.806 409.656C619.433 415.023 612.15 418.045 604.551 418.061ZM604.551 368.771C600.461 368.771 596.464 369.983 593.063 372.252C589.663 374.521 587.012 377.747 585.447 381.521C583.882 385.295 583.473 389.448 584.271 393.454C585.068 397.461 587.038 401.141 589.93 404.029C592.821 406.918 596.506 408.885 600.517 409.682C604.528 410.479 608.686 410.07 612.464 408.506C616.242 406.943 619.472 404.296 621.744 400.899C624.016 397.503 625.229 393.51 625.229 389.425C625.218 383.95 623.036 378.703 619.161 374.832C615.285 370.961 610.032 368.782 604.551 368.771Z" fill="#07074E"/>
<path d="M508.155 316.988C502.196 316.996 496.484 319.363 492.271 323.572C488.057 327.78 485.687 333.486 485.679 339.437C485.687 345.389 488.057 351.094 492.271 355.303C496.484 359.511 502.196 361.879 508.155 361.887H547.612C552.797 351.208 560.888 342.203 570.957 335.903C581.027 329.603 592.669 326.261 604.551 326.261C616.433 326.261 628.075 329.603 638.145 335.903C648.214 342.203 656.305 351.208 661.49 361.887H1063.76V316.988H508.155Z" fill="#D1D3D4"/>
<path d="M1063.76 365.878H661.49C660.737 365.865 660.002 365.643 659.367 365.238C658.732 364.833 658.222 364.26 657.894 363.583C653.025 353.592 645.441 345.169 636.009 339.277C626.577 333.385 615.676 330.26 604.551 330.26C593.426 330.26 582.525 333.385 573.093 339.277C563.661 345.169 556.077 353.592 551.208 363.583C550.88 364.26 550.37 364.833 549.735 365.238C549.1 365.643 548.365 365.865 547.612 365.878H508.155C501.134 365.878 494.401 363.092 489.436 358.134C484.472 353.175 481.683 346.45 481.683 339.437C481.683 332.425 484.472 325.7 489.436 320.741C494.401 315.782 501.134 312.997 508.155 312.997H1063.76C1064.82 312.997 1065.83 313.417 1066.58 314.166C1067.33 314.914 1067.75 315.929 1067.75 316.988V361.887C1067.75 362.411 1067.65 362.93 1067.45 363.414C1067.25 363.898 1066.95 364.338 1066.58 364.709C1066.21 365.079 1065.77 365.373 1065.29 365.574C1064.8 365.775 1064.28 365.878 1063.76 365.878ZM663.987 357.896H1059.76V320.979H508.155C503.253 320.979 498.553 322.923 495.087 326.385C491.622 329.847 489.675 334.542 489.675 339.437C489.675 344.333 491.622 349.028 495.087 352.489C498.553 355.951 503.253 357.896 508.155 357.896H545.215C550.949 347.138 559.505 338.139 569.965 331.865C580.426 325.59 592.399 322.276 604.601 322.276C616.803 322.276 628.776 325.59 639.236 331.865C649.697 338.139 658.253 347.138 663.987 357.896Z" fill="#07074E"/>
<path d="M1262.14 214.219L1198.11 194.064L1181.63 103.966C1180.38 97.0201 1176.72 90.7349 1171.3 86.2112C1165.87 81.6874 1159.03 79.2133 1151.96 79.2219H1063.76V361.887H1086.53C1091.75 351.068 1099.91 341.94 1110.09 335.551C1120.27 329.163 1132.05 325.774 1144.07 325.774C1156.09 325.774 1167.87 329.163 1178.05 335.551C1188.23 341.94 1196.39 351.068 1201.61 361.887H1261.34C1264.09 361.888 1266.8 361.35 1269.34 360.302C1271.87 359.255 1274.17 357.719 1276.11 355.782C1278.05 353.845 1279.59 351.546 1280.64 349.015C1281.68 346.485 1282.22 343.772 1282.22 341.034V241.577C1282.2 235.483 1280.24 229.553 1276.64 224.638C1273.03 219.723 1267.96 216.076 1262.14 214.219Z" fill="white"/>
<path d="M1261.25 365.878H1201.51C1200.76 365.865 1200.02 365.643 1199.39 365.238C1198.75 364.833 1198.24 364.26 1197.91 363.583C1193.04 353.423 1185.39 344.847 1175.84 338.844C1166.3 332.841 1155.25 329.656 1143.97 329.656C1132.69 329.656 1121.64 332.841 1112.1 338.844C1102.55 344.847 1094.9 353.423 1090.03 363.583C1089.7 364.26 1089.19 364.833 1088.56 365.238C1087.92 365.643 1087.19 365.865 1086.43 365.878H1063.66C1062.6 365.878 1061.58 365.457 1060.83 364.709C1060.08 363.96 1059.66 362.945 1059.66 361.887V79.222C1059.66 78.1635 1060.08 77.1484 1060.83 76.3999C1061.58 75.6514 1062.6 75.231 1063.66 75.231H1151.86C1159.87 75.2372 1167.62 78.0452 1173.77 83.1672C1179.92 88.2892 1184.08 95.4014 1185.53 103.268L1201.51 191.071L1263.24 210.527C1269.85 212.604 1275.63 216.737 1279.72 222.323C1283.81 227.909 1286.01 234.655 1285.99 241.577V341.054C1286.01 344.309 1285.38 347.536 1284.14 350.548C1282.91 353.561 1281.09 356.299 1278.79 358.606C1276.49 360.913 1273.75 362.744 1270.74 363.991C1267.73 365.239 1264.5 365.88 1261.25 365.878ZM1204.01 357.896H1261.25C1265.72 357.885 1270.01 356.105 1273.17 352.945C1276.33 349.785 1278.12 345.503 1278.13 341.034V241.577C1278.14 236.35 1276.48 231.256 1273.39 227.038C1270.3 222.82 1265.94 219.699 1260.95 218.13L1196.91 197.975C1196.21 197.776 1195.59 197.377 1195.11 196.828C1194.63 196.279 1194.32 195.603 1194.22 194.882L1177.74 104.785C1176.64 98.7573 1173.46 93.3062 1168.75 89.3848C1164.04 85.4633 1158.1 83.321 1151.96 83.3327H1067.75V358.016H1084.04C1089.81 347.135 1098.44 338.031 1109.01 331.678C1119.57 325.325 1131.66 321.963 1143.99 321.953C1156.32 321.942 1168.42 325.284 1178.99 331.62C1189.57 337.955 1198.21 347.045 1204.01 357.916V357.896Z" fill="#07074E"/>
<path d="M1023 335.646H944.885C942.773 335.644 940.681 336.059 938.729 336.866C936.777 337.673 935.004 338.856 933.51 340.348C932.016 341.84 930.832 343.611 930.024 345.561C929.216 347.51 928.801 349.6 928.802 351.71V372.064C928.801 374.174 929.216 376.263 930.024 378.213C930.832 380.162 932.016 381.934 933.51 383.426C935.004 384.918 936.777 386.101 938.729 386.908C940.681 387.715 942.773 388.129 944.885 388.128H1023C1025.11 388.129 1027.21 387.715 1029.16 386.908C1031.11 386.101 1032.88 384.918 1034.38 383.426C1035.87 381.934 1037.05 380.162 1037.86 378.213C1038.67 376.263 1039.08 374.174 1039.08 372.064V351.71C1039.08 349.6 1038.67 347.51 1037.86 345.561C1037.05 343.611 1035.87 341.84 1034.38 340.348C1032.88 338.856 1031.11 337.673 1029.16 336.866C1027.21 336.059 1025.11 335.644 1023 335.646Z" fill="#C2C4C6"/>
<path d="M1023 392.119H944.885C939.56 392.119 934.453 390.006 930.687 386.245C926.922 382.484 924.807 377.383 924.807 372.064V351.71C924.807 346.391 926.922 341.29 930.687 337.529C934.453 333.768 939.56 331.655 944.885 331.655H1023C1028.33 331.655 1033.43 333.768 1037.2 337.529C1040.96 341.29 1043.08 346.391 1043.08 351.71V372.064C1043.06 377.377 1040.94 382.468 1037.18 386.225C1033.42 389.982 1028.32 392.1 1023 392.119ZM944.885 339.637C943.297 339.634 941.724 339.945 940.256 340.55C938.789 341.156 937.455 342.045 936.332 343.167C935.209 344.289 934.319 345.621 933.713 347.086C933.106 348.552 932.795 350.123 932.798 351.71V372.064C932.795 373.65 933.106 375.221 933.713 376.687C934.319 378.153 935.209 379.485 936.332 380.607C937.455 381.728 938.789 382.617 940.256 383.223C941.724 383.829 943.297 384.139 944.885 384.137H1023C1024.59 384.139 1026.16 383.829 1027.63 383.223C1029.1 382.617 1030.43 381.728 1031.55 380.607C1032.68 379.485 1033.57 378.153 1034.17 376.687C1034.78 375.221 1035.09 373.65 1035.09 372.064V351.71C1035.09 350.123 1034.78 348.552 1034.17 347.086C1033.57 345.621 1032.68 344.289 1031.55 343.167C1030.43 342.045 1029.1 341.156 1027.63 340.55C1026.16 339.945 1024.59 339.634 1023 339.637H944.885Z" fill="#07074E"/>
<path d="M970.458 371.964V351.61C970.459 349.5 970.044 347.41 969.236 345.461C968.428 343.511 967.244 341.74 965.75 340.248C964.256 338.756 962.483 337.573 960.531 336.766C958.579 335.959 956.487 335.545 954.375 335.546H944.885C942.773 335.545 940.681 335.959 938.729 336.766C936.777 337.573 935.004 338.756 933.51 340.248C932.016 341.74 930.832 343.511 930.024 345.461C929.216 347.41 928.801 349.5 928.802 351.61V371.964C928.801 374.074 929.216 376.164 930.024 378.113C930.832 380.063 932.016 381.834 933.51 383.326C935.004 384.818 936.777 386.001 938.729 386.808C940.681 387.615 942.773 388.029 944.885 388.028H954.345C956.463 388.045 958.564 387.642 960.524 386.841C962.485 386.04 964.267 384.858 965.766 383.363C967.265 381.869 968.452 380.091 969.258 378.134C970.063 376.177 970.471 374.08 970.458 371.964Z" fill="#E4E5E6"/>
<path d="M954.345 392.119H944.855C939.53 392.119 934.423 390.006 930.658 386.245C926.892 382.484 924.777 377.383 924.777 372.064V351.71C924.777 346.391 926.892 341.29 930.658 337.529C934.423 333.768 939.53 331.655 944.855 331.655H954.345C956.982 331.655 959.593 332.173 962.029 333.181C964.465 334.189 966.678 335.666 968.543 337.529C970.407 339.391 971.886 341.602 972.895 344.035C973.904 346.468 974.423 349.076 974.423 351.71V372.064C974.405 377.377 972.284 382.468 968.522 386.225C964.761 389.982 959.665 392.1 954.345 392.119ZM944.855 339.637C943.267 339.634 941.694 339.945 940.227 340.55C938.759 341.156 937.425 342.045 936.303 343.167C935.18 344.289 934.289 345.621 933.683 347.086C933.076 348.552 932.766 350.123 932.768 351.71V372.064C932.766 373.65 933.076 375.221 933.683 376.687C934.289 378.153 935.18 379.485 936.303 380.607C937.425 381.728 938.759 382.617 940.227 383.223C941.694 383.829 943.267 384.139 944.855 384.137H954.345C955.933 384.139 957.506 383.829 958.974 383.223C960.441 382.617 961.775 381.728 962.898 380.607C964.021 379.485 964.911 378.153 965.517 376.687C966.124 375.221 966.435 373.65 966.432 372.064V351.71C966.435 350.123 966.124 348.552 965.517 347.086C964.911 345.621 964.021 344.289 962.898 343.167C961.775 342.045 960.441 341.156 958.974 340.55C957.506 339.945 955.933 339.634 954.345 339.637H944.855Z" fill="#07074E"/>
<path d="M989.307 392.119C988.248 392.119 987.231 391.698 986.482 390.95C985.732 390.201 985.312 389.186 985.312 388.128C985.312 387.069 985.732 386.054 986.482 385.306C987.231 384.557 988.248 384.137 989.307 384.137C990.895 384.139 992.468 383.829 993.936 383.223C995.404 382.617 996.737 381.728 997.86 380.607C998.983 379.485 999.873 378.153 1000.48 376.687C1001.09 375.221 1001.4 373.65 1001.39 372.064V351.71C1001.4 350.123 1001.09 348.552 1000.48 347.086C999.873 345.621 998.983 344.289 997.86 343.167C996.737 342.045 995.404 341.156 993.936 340.55C992.468 339.945 990.895 339.634 989.307 339.637C988.248 339.637 987.231 339.216 986.482 338.468C985.732 337.719 985.312 336.704 985.312 335.646C985.312 334.587 985.732 333.572 986.482 332.824C987.231 332.075 988.248 331.655 989.307 331.655C994.632 331.655 999.739 333.768 1003.5 337.529C1007.27 341.29 1009.39 346.391 1009.39 351.71V372.064C1009.37 377.377 1007.25 382.468 1003.48 386.225C999.723 389.982 994.627 392.1 989.307 392.119Z" fill="#07074E"/>
<path d="M1200.91 319.482H1108.51C1108.18 319.485 1107.85 319.422 1107.55 319.298C1107.25 319.173 1106.97 318.99 1106.74 318.757C1106.51 318.525 1106.32 318.249 1106.2 317.945C1106.07 317.642 1106.01 317.316 1106.01 316.988V241.258L1080.64 229.484C1080.21 229.281 1079.84 228.955 1079.59 228.547C1079.35 228.139 1079.22 227.667 1079.24 227.189V192.068C1079.24 191.407 1079.5 190.772 1079.97 190.305C1080.44 189.837 1081.08 189.574 1081.74 189.574C1082.4 189.574 1083.04 189.837 1083.5 190.305C1083.97 190.772 1084.24 191.407 1084.24 192.068V225.613L1109.61 237.387C1110.04 237.59 1110.4 237.916 1110.65 238.324C1110.9 238.732 1111.02 239.204 1111.01 239.681V314.513H1198.41V217.631L1177.54 193.685C1177.31 193.444 1177.13 193.161 1177.01 192.85C1176.9 192.54 1176.85 192.21 1176.86 191.879C1176.87 191.548 1176.95 191.224 1177.1 190.924C1177.24 190.625 1177.44 190.357 1177.69 190.137C1177.93 189.917 1178.22 189.748 1178.54 189.641C1178.85 189.535 1179.18 189.492 1179.51 189.516C1179.84 189.539 1180.17 189.629 1180.46 189.78C1180.76 189.93 1181.02 190.139 1181.23 190.392L1202.71 215.037C1203.09 215.48 1203.31 216.046 1203.31 216.633V316.908C1203.34 317.238 1203.3 317.571 1203.19 317.884C1203.08 318.198 1202.91 318.486 1202.68 318.728C1202.46 318.971 1202.18 319.164 1201.88 319.293C1201.57 319.423 1201.24 319.488 1200.91 319.482Z" fill="#D1D3D4"/>
<path d="M1063.76 361.887H1086.53C1091.75 351.068 1099.91 341.94 1110.09 335.551C1120.27 329.163 1132.05 325.774 1144.07 325.774C1156.09 325.774 1167.87 329.163 1178.05 335.551C1188.23 341.94 1196.39 351.068 1201.61 361.887H1261.34C1264.09 361.888 1266.8 361.35 1269.34 360.302C1271.87 359.255 1274.17 357.719 1276.11 355.782C1278.05 353.845 1279.59 351.546 1280.64 349.015C1281.68 346.485 1282.22 343.772 1282.22 341.034V316.988H1063.76V361.887Z" fill="#657585"/>
<path d="M1261.25 365.878H1201.51C1200.76 365.865 1200.02 365.643 1199.39 365.238C1198.75 364.833 1198.24 364.26 1197.91 363.583C1193.04 353.423 1185.39 344.847 1175.84 338.844C1166.3 332.841 1155.25 329.656 1143.97 329.656C1132.69 329.656 1121.64 332.841 1112.1 338.844C1102.55 344.847 1094.9 353.423 1090.03 363.583C1089.7 364.26 1089.19 364.833 1088.56 365.238C1087.92 365.643 1087.19 365.865 1086.43 365.878H1063.66C1062.6 365.878 1061.58 365.457 1060.83 364.709C1060.08 363.96 1059.66 362.945 1059.66 361.887V316.988C1059.66 315.929 1060.08 314.914 1060.83 314.166C1061.58 313.417 1062.6 312.997 1063.66 312.997H1282.12C1283.18 312.997 1284.2 313.417 1284.95 314.166C1285.7 314.914 1286.12 315.929 1286.12 316.988V341.034C1286.12 344.296 1285.48 347.527 1284.23 350.541C1282.98 353.555 1281.14 356.294 1278.83 358.601C1276.52 360.908 1273.78 362.738 1270.76 363.987C1267.75 365.235 1264.51 365.878 1261.25 365.878ZM1204.01 357.896H1261.25C1265.72 357.885 1270.01 356.105 1273.17 352.945C1276.33 349.785 1278.12 345.503 1278.13 341.034V320.979H1067.65V357.896H1083.94C1089.71 346.996 1098.35 337.874 1108.93 331.512C1119.51 325.15 1131.62 321.789 1143.97 321.789C1156.32 321.789 1168.43 325.15 1179.01 331.512C1189.59 337.874 1198.23 346.996 1204.01 357.896Z" fill="#07074E"/>
<path d="M1179.43 192.068L1163.95 107.259C1163.43 104.459 1161.95 101.928 1159.76 100.105C1157.57 98.2824 1154.81 97.2833 1151.96 97.2814H1081.74V192.168H1179.43V192.068Z" fill="#40C4E0"/>
<path d="M1179.43 196.059H1081.64C1080.58 196.059 1079.56 195.639 1078.81 194.89C1078.06 194.142 1077.64 193.127 1077.64 192.068V97.1816C1077.64 96.1231 1078.06 95.108 1078.81 94.3595C1079.56 93.611 1080.58 93.1906 1081.64 93.1906H1151.86C1155.66 93.1936 1159.33 94.5217 1162.25 96.945C1165.17 99.3682 1167.15 102.734 1167.85 106.461L1183.33 191.27C1183.44 191.851 1183.41 192.449 1183.26 193.019C1183.1 193.589 1182.82 194.117 1182.43 194.563C1182.09 195.039 1181.64 195.425 1181.12 195.686C1180.6 195.947 1180.02 196.075 1179.43 196.059ZM1085.73 188.077H1174.74L1160.05 107.957C1159.71 106.06 1158.72 104.342 1157.24 103.102C1155.76 101.862 1153.89 101.18 1151.96 101.173H1085.73V188.077Z" fill="#07074E"/>
<path d="M1094.32 168.022C1093.53 168.007 1092.76 167.761 1092.11 167.312C1091.46 166.864 1090.95 166.235 1090.65 165.502C1090.35 164.769 1090.28 163.964 1090.43 163.189C1090.59 162.413 1090.97 161.7 1091.53 161.138L1138.28 114.443C1138.65 114.069 1139.09 113.773 1139.58 113.571C1140.07 113.369 1140.6 113.265 1141.12 113.265C1141.65 113.265 1142.18 113.369 1142.66 113.571C1143.15 113.773 1143.6 114.069 1143.97 114.443C1144.34 114.816 1144.64 115.26 1144.84 115.747C1145.05 116.235 1145.15 116.758 1145.15 117.286C1145.15 117.815 1145.05 118.337 1144.84 118.825C1144.64 119.313 1144.34 119.757 1143.97 120.13L1097.22 166.825C1096.44 167.57 1095.41 167.996 1094.32 168.022Z" fill="#FFFEF9"/>
<path d="M1108.51 186.281C1107.72 186.266 1106.95 186.02 1106.29 185.571C1105.64 185.123 1105.13 184.494 1104.84 183.761C1104.54 183.028 1104.46 182.223 1104.62 181.448C1104.77 180.672 1105.15 179.959 1105.71 179.397L1124.29 160.839C1125.05 160.084 1126.07 159.661 1127.14 159.661C1127.67 159.661 1128.19 159.765 1128.68 159.967C1129.17 160.169 1129.61 160.465 1129.99 160.839C1130.36 161.212 1130.66 161.655 1130.86 162.143C1131.06 162.631 1131.17 163.154 1131.17 163.682C1131.17 164.21 1131.06 164.733 1130.86 165.221C1130.66 165.709 1130.36 166.152 1129.99 166.526L1111.41 185.084C1110.62 185.829 1109.59 186.255 1108.51 186.281Z" fill="#FFFEF9"/>
<path d="M1134.28 160.539C1133.49 160.524 1132.72 160.277 1132.07 159.829C1131.41 159.381 1130.91 158.752 1130.61 158.019C1130.31 157.285 1130.24 156.481 1130.39 155.705C1130.55 154.93 1130.93 154.217 1131.48 153.655L1135.48 149.664C1136.24 148.91 1137.26 148.486 1138.33 148.486C1138.86 148.486 1139.38 148.59 1139.87 148.792C1140.36 148.994 1140.8 149.29 1141.17 149.664C1141.55 150.037 1141.84 150.48 1142.05 150.968C1142.25 151.456 1142.35 151.979 1142.35 152.507C1142.35 153.035 1142.25 153.558 1142.05 154.046C1141.84 154.534 1141.55 154.977 1141.17 155.351L1137.18 159.342C1136.4 160.086 1135.36 160.513 1134.28 160.539Z" fill="#FFFEF9"/>
<path d="M1255.55 258.619C1255.55 261.463 1256.11 264.279 1257.2 266.908C1258.28 269.536 1259.88 271.923 1261.89 273.935C1263.91 275.946 1266.3 277.54 1268.93 278.627C1271.56 279.715 1274.38 280.273 1277.23 280.27C1278.91 280.274 1280.59 280.073 1282.22 279.672V241.577C1282.23 240.241 1282.13 238.907 1281.92 237.586C1280.38 237.267 1278.81 237.1 1277.23 237.087C1274.39 237.065 1271.57 237.606 1268.93 238.678C1266.3 239.751 1263.91 241.334 1261.89 243.336C1259.88 245.339 1258.28 247.72 1257.19 250.343C1256.1 252.967 1255.54 255.779 1255.55 258.619Z" fill="#FFFDEB"/>
<path d="M1277.13 284.161C1270.32 284.161 1263.79 281.46 1258.97 276.651C1254.16 271.842 1251.46 265.32 1251.46 258.519C1251.46 251.718 1254.16 245.196 1258.97 240.387C1263.79 235.578 1270.32 232.877 1277.13 232.877C1279.01 232.878 1280.88 233.079 1282.72 233.475C1283.51 233.654 1284.22 234.062 1284.77 234.649C1285.33 235.236 1285.69 235.974 1285.82 236.768C1286.01 238.29 1286.11 239.823 1286.12 241.358V279.492C1286.12 280.395 1285.81 281.271 1285.25 281.978C1284.69 282.685 1283.9 283.18 1283.02 283.383C1281.11 283.942 1279.12 284.204 1277.13 284.161ZM1277.13 240.959C1272.44 240.959 1267.94 242.819 1264.63 246.131C1261.31 249.443 1259.45 253.935 1259.45 258.619C1259.45 263.303 1261.31 267.795 1264.63 271.107C1267.94 274.419 1272.44 276.279 1277.13 276.279H1278.13V241.058C1277.8 240.971 1277.46 240.937 1277.13 240.959Z" fill="#07074E"/>
<path d="M495.468 247.045H455.911V313.196H495.468V247.045Z" fill="#F1D1A9"/>
<path d="M495.468 317.287H455.881C454.821 317.287 453.805 316.867 453.056 316.118C452.306 315.37 451.885 314.354 451.885 313.296V247.145C451.885 246.086 452.306 245.071 453.056 244.323C453.805 243.574 454.821 243.154 455.881 243.154H495.438C496.498 243.154 497.514 243.574 498.264 244.323C499.013 245.071 499.434 246.086 499.434 247.145V313.296C499.434 314.349 499.017 315.36 498.274 316.108C497.532 316.855 496.523 317.279 495.468 317.287ZM459.907 309.305H491.473V251.136H459.877L459.907 309.305Z" fill="#07074E"/>
<path d="M595.86 247.045H495.468V313.196H595.86V247.045Z" fill="#ECC086"/>
<path d="M558.6 247.045H535.125V266.002H558.6V247.045Z" fill="#F8F8F9"/>
<path d="M558.7 268.596H535.225C534.897 268.599 534.571 268.536 534.267 268.412C533.962 268.288 533.686 268.104 533.454 267.872C533.221 267.64 533.037 267.364 532.913 267.06C532.788 266.756 532.725 266.43 532.728 266.102V247.145C532.725 246.816 532.788 246.491 532.913 246.187C533.037 245.883 533.221 245.607 533.454 245.375C533.686 245.143 533.962 244.959 534.267 244.835C534.571 244.71 534.897 244.648 535.225 244.65H558.7C559.029 244.648 559.355 244.71 559.659 244.835C559.963 244.959 560.24 245.143 560.472 245.375C560.705 245.607 560.888 245.883 561.013 246.187C561.137 246.491 561.2 246.816 561.198 247.145V266.102C561.171 266.755 560.899 267.374 560.436 267.836C559.974 268.298 559.354 268.569 558.7 268.596ZM537.623 263.608H556.103V249.639H537.623V263.608Z" fill="#07074E"/>
<path d="M595.86 317.287H495.468C494.409 317.287 493.392 316.867 492.643 316.118C491.894 315.37 491.473 314.354 491.473 313.296V247.145C491.473 246.086 491.894 245.071 492.643 244.323C493.392 243.574 494.409 243.154 495.468 243.154H595.86C596.92 243.154 597.937 243.574 598.686 244.323C599.435 245.071 599.856 246.086 599.856 247.145V313.296C599.856 314.354 599.435 315.37 598.686 316.118C597.937 316.867 596.92 317.287 595.86 317.287ZM499.464 309.305H591.865V251.136H499.464V309.305Z" fill="#07074E"/>
<path d="M1063.66 31.9282H517.944V316.988H1063.66V31.9282Z" fill="#0A6EB4"/>
<path d="M1063.76 320.979H517.944C516.884 320.979 515.868 320.558 515.119 319.81C514.369 319.061 513.948 318.046 513.948 316.988V31.9282C513.948 30.8697 514.369 29.8546 515.119 29.1061C515.868 28.3577 516.884 27.9372 517.944 27.9372H1063.66C1064.72 27.9372 1065.73 28.3577 1066.48 29.1061C1067.23 29.8546 1067.65 30.8697 1067.65 31.9282V316.988C1067.67 317.508 1067.58 318.027 1067.39 318.512C1067.21 318.998 1066.92 319.44 1066.56 319.813C1066.19 320.186 1065.76 320.481 1065.28 320.682C1064.8 320.882 1064.28 320.983 1063.76 320.979ZM521.94 312.997H1059.66V35.9193H521.94V312.997Z" fill="#07074E"/>
<path d="M423.745 316.988L294.185 441.009H353.621L483.181 316.988H423.745Z" fill="#E8DBBE"/>
<path d="M353.621 445H294.185C293.39 444.998 292.614 444.76 291.956 444.316C291.297 443.872 290.786 443.241 290.488 442.506C290.205 441.764 290.138 440.957 290.298 440.18C290.457 439.402 290.835 438.686 291.388 438.115L421.048 314.094C421.419 313.737 421.857 313.456 422.337 313.268C422.817 313.079 423.33 312.987 423.845 312.997H483.281C484.076 312.998 484.852 313.236 485.51 313.681C486.169 314.125 486.679 314.755 486.977 315.491C487.261 316.232 487.327 317.039 487.168 317.817C487.009 318.595 486.631 319.311 486.078 319.881L356.318 443.902C355.597 444.606 354.629 445 353.621 445ZM304.074 437.018H351.922L473.192 320.979H425.344L304.074 437.018Z" fill="#07074E"/>
<path d="M1299.97 445H3.99668C2.93695 445 1.92063 444.58 1.17129 443.831C0.421952 443.083 0.000976562 442.067 0.000976562 441.009C0.000976562 439.95 0.421952 438.935 1.17129 438.187C1.92063 437.438 2.93695 437.018 3.99668 437.018H1299.97C1301.03 437.018 1302.05 437.438 1302.8 438.187C1303.55 438.935 1303.97 439.95 1303.97 441.009C1303.97 442.067 1303.55 443.083 1302.8 443.831C1302.05 444.58 1301.03 445 1299.97 445Z" fill="#07074E"/>
<path fill-rule="evenodd" clip-rule="evenodd" d="M920.681 168.95H930.231C939.161 168.95 945.847 167.184 950.289 163.652C954.731 160.12 956.949 154.988 956.942 148.257C956.942 141.452 955.084 136.43 951.368 133.191C947.642 129.938 941.828 128.302 933.887 128.302H920.681V168.95ZM986.311 147.219C986.311 161.953 981.702 173.217 972.485 181.013C963.269 188.809 950.153 192.7 933.138 192.687H920.681V241.368H891.622V104.525H935.365C952.014 104.525 964.667 108.104 973.325 115.261C981.982 122.418 986.311 133.071 986.311 147.219ZM822.037 241.398H793.518V104.525H872.053V128.302H822.107V163.612H868.537V187.299H822.037V241.398ZM740.904 241.398H707.82L689.26 169.499C688.594 166.945 687.425 161.657 685.754 153.635C684.082 145.613 683.13 140.232 682.897 137.491C682.517 140.863 681.578 146.278 680.08 153.735C679.041 159.056 677.885 164.377 676.613 169.699L658.143 241.398H625.179L590.216 104.525H618.806L636.337 179.237C639.393 193.033 641.611 204.986 642.99 215.097C643.359 211.545 644.218 206.027 645.567 198.584C646.915 191.141 648.174 185.314 649.363 181.213L669.341 104.525H696.802L716.78 181.213C717.646 184.638 718.738 189.88 720.057 196.937C721.375 203.995 722.374 210.048 723.054 215.097C723.663 210.218 724.672 204.121 726.05 196.888C727.143 190.968 728.394 185.084 729.806 179.237L747.228 104.525H775.817L740.904 241.398Z" fill="white"/>
</g>
<defs>
<clipPath id="clip0">
<rect width="1304" height="445" fill="white"/>
</clipPath>
</defs>
</svg>
