<svg xmlns="http://www.w3.org/2000/svg" width="1124.7" height="777.01" viewBox="0 0 1124.7 777.01"><title>Element 1</title><path d="M1124.7,335.9v-.3a24.48,24.48,0,0,0-24.5-24.5h-170a24.48,24.48,0,0,1-24.5-24.5h0a24.48,24.48,0,0,1,24.5-24.5h75.6a24.48,24.48,0,0,0,24.5-24.5v-.3a24.48,24.48,0,0,0-24.5-24.5H170.6a24.48,24.48,0,0,0-24.5,24.5v.3a24.48,24.48,0,0,0,24.5,24.5H278.3a24.48,24.48,0,0,1,24.5,24.5h0a24.48,24.48,0,0,1-24.5,24.5H24.5A24.48,24.48,0,0,0,0,335.6v.3a24.48,24.48,0,0,0,24.5,24.5h169A24.48,24.48,0,0,1,218,384.9h0a24.48,24.48,0,0,1-24.5,24.5H91.9a24.48,24.48,0,0,0-24.5,24.5v.3a24.48,24.48,0,0,0,24.5,24.5H252.1a24.48,24.48,0,0,1,24.5,24.5h0a24.48,24.48,0,0,1-24.5,24.5H145.8a24.48,24.48,0,0,0-24.5,24.5v.3A24.48,24.48,0,0,0,145.8,557h135a24.48,24.48,0,0,1,24.5,24.5h0A24.48,24.48,0,0,1,280.8,606H47.7a24.48,24.48,0,0,0-24.5,24.5v.3a24.48,24.48,0,0,0,24.5,24.5H1098.9a24.48,24.48,0,0,0,24.5-24.5v-.3a24.48,24.48,0,0,0-24.5-24.5H907a24.48,24.48,0,0,1-24.5-24.5h0A24.48,24.48,0,0,1,907,557h123.6a24.48,24.48,0,0,0,24.5-24.5v-.6a24.48,24.48,0,0,0-24.5-24.5H954.3a24.48,24.48,0,0,1-24.5-24.5h0a24.48,24.48,0,0,1,24.5-24.5h46.5a24.48,24.48,0,0,0,24.5-24.5v-.3a24.48,24.48,0,0,0-24.5-24.5H883.3a24.48,24.48,0,0,1-24.5-24.5h0a24.48,24.48,0,0,1,24.5-24.5h216.9A24,24,0,0,0,1124.7,335.9Z" style="fill:#d3dde5"/><path d="M83.6,213H66.3a24.58,24.58,0,0,0-24.6,24.6h0a24.58,24.58,0,0,0,24.6,24.6H83.6a24.58,24.58,0,0,0,24.6-24.6h0A24.65,24.65,0,0,0,83.6,213Z" style="fill:#d3dde5"/><path d="M803.82,770.65H282.74a3.91,3.91,0,0,1-3.9-3.9V40.49a3.91,3.91,0,0,1,3.9-3.91H803.82a3.91,3.91,0,0,1,3.9,3.91V766.75A3.91,3.91,0,0,1,803.82,770.65Z" style="fill:#f2f6f7"/><path d="M803.82,777H282.74a10.27,10.27,0,0,1-10.26-10.26V40.49a10.28,10.28,0,0,1,10.26-10.27H803.82a10.28,10.28,0,0,1,10.26,10.27V766.75A10.27,10.27,0,0,1,803.82,777ZM285.21,764.29H801.36V43H285.21Z" style="fill:#07074e"/><path d="M357.18,96.23h0A20.68,20.68,0,0,1,336.5,75.55V27A20.68,20.68,0,0,1,357.18,6.36h0A20.68,20.68,0,0,1,377.86,27V75.55A20.68,20.68,0,0,1,357.18,96.23Z" style="fill:#c2c4c6"/><path d="M481.25,96.23h0a20.68,20.68,0,0,1-20.68-20.68V27A20.68,20.68,0,0,1,481.25,6.36h0A20.68,20.68,0,0,1,501.93,27V75.55A20.68,20.68,0,0,1,481.25,96.23Z" style="fill:#c2c4c6"/><path d="M605.32,96.23h0a20.68,20.68,0,0,1-20.68-20.68V27A20.68,20.68,0,0,1,605.31,6.36h0A20.68,20.68,0,0,1,626,27V75.55A20.67,20.67,0,0,1,605.32,96.23Z" style="fill:#c2c4c6"/><path d="M729.38,96.23h0A20.68,20.68,0,0,1,708.7,75.55V27A20.68,20.68,0,0,1,729.38,6.36h0A20.68,20.68,0,0,1,750.06,27V75.55A20.68,20.68,0,0,1,729.38,96.23Z" style="fill:#c2c4c6"/><path d="M357.18,102.59a27.07,27.07,0,0,1-27-27V27a27,27,0,0,1,54.08,0V75.55A27.07,27.07,0,0,1,357.18,102.59Zm0-89.87A14.34,14.34,0,0,0,342.87,27V75.55a14.32,14.32,0,1,0,28.63,0V27A14.34,14.34,0,0,0,357.18,12.72Z" style="fill:#07074e"/><path d="M481.25,102.59a27.07,27.07,0,0,1-27-27V27a27,27,0,1,1,54.08,0V75.55A27.07,27.07,0,0,1,481.25,102.59Zm0-89.87A14.34,14.34,0,0,0,466.93,27V75.55a14.32,14.32,0,1,0,28.63,0V27A14.34,14.34,0,0,0,481.25,12.72Z" style="fill:#07074e"/><path d="M605.32,102.59a27.07,27.07,0,0,1-27-27V27a27,27,0,1,1,54.08,0V75.55A27.07,27.07,0,0,1,605.32,102.59Zm0-89.87A14.34,14.34,0,0,0,591,27V75.55a14.32,14.32,0,1,0,28.63,0V27A14.34,14.34,0,0,0,605.32,12.72Z" style="fill:#07074e"/><path d="M729.38,102.59a27.07,27.07,0,0,1-27-27V27a27,27,0,1,1,54.08,0V75.55A27.07,27.07,0,0,1,729.38,102.59Zm0-89.87A14.34,14.34,0,0,0,715.07,27V75.55a14.32,14.32,0,1,0,28.63,0V27A14.34,14.34,0,0,0,729.38,12.72Z" style="fill:#07074e"/><rect x="473.29" y="177.35" width="267.22" height="12.72" style="fill:#07074e"/><rect x="346.05" y="177.35" width="57.29" height="12.72" style="fill:#07074e"/><rect x="346.05" y="295.06" width="394.47" height="12.72" style="fill:#07074e"/><rect x="606.91" y="412.76" width="133.61" height="12.72" style="fill:#07074e"/><rect x="346.05" y="412.76" width="215.79" height="12.72" style="fill:#07074e"/><rect x="346.05" y="530.47" width="394.47" height="12.72" style="fill:#07074e"/><rect x="481.25" y="648.17" width="259.27" height="12.72" style="fill:#07074e"/><rect x="346.05" y="648.17" width="84.3" height="12.72" style="fill:#07074e"/><rect x="627.43" y="415.53" width="391.3" height="62.04" transform="translate(-20.63 852.78) rotate(-54.19)" style="fill:#ffda61"/><path d="M733.71,629.79a6.33,6.33,0,0,1-3.72-1.21l-50.31-36.29a6.37,6.37,0,0,1-1.43-8.89l229-317.31a6.36,6.36,0,0,1,8.88-1.44l50.3,36.3a6.36,6.36,0,0,1,1.44,8.88l-229,317.32a6.4,6.4,0,0,1-4.14,2.55A5.86,5.86,0,0,1,733.71,629.79Zm-41.42-44.1,40,28.85,221.5-307-40-28.85Z" style="fill:#07074e"/><path d="M968.22,245.39h0a31,31,0,0,0-43.3,7l-12.57,17.41,50.31,36.3,12.56-17.42A31,31,0,0,0,968.22,245.39Z" style="fill:#f087a9"/><path d="M962.66,312.47a6.39,6.39,0,0,1-3.72-1.2L908.63,275a6.35,6.35,0,0,1-1.43-8.88l12.56-17.42a37.37,37.37,0,0,1,52.18-8.44h0a37.41,37.41,0,0,1,8.44,52.18l-12.56,17.42a6.37,6.37,0,0,1-4.14,2.56A7,7,0,0,1,962.66,312.47Zm-41.42-44.1,40,28.85L970.07,285a24.69,24.69,0,0,0-5.57-34.42h0a24.68,24.68,0,0,0-34.42,5.57Z" style="fill:#07074e"/><polygon points="733.71 623.42 683.41 587.13 674.41 651.25 733.71 623.42" style="fill:#f2f5f8"/><path d="M674.41,657.61a6.37,6.37,0,0,1-6.3-7.25l9-64.12a6.35,6.35,0,0,1,10-4.27l50.31,36.29a6.36,6.36,0,0,1-1,10.92L677.11,657A6.26,6.26,0,0,1,674.41,657.61Zm13.83-59.15-5.9,42,38.88-18.24Z" style="fill:#07074e"/><rect x="660.97" y="437.45" width="329.32" height="12.72" transform="translate(-17.06 854.32) rotate(-54.23)" style="fill:#07074e"/></svg>