<svg width="604" height="844" viewBox="0 0 604 844" fill="none" xmlns="http://www.w3.org/2000/svg">
<rect x="134" y="582" width="336" height="242" fill="#007DBC"/>
<path fill-rule="evenodd" clip-rule="evenodd" d="M590.63 262.389C582.967 126.82 457.121 19 303 19C150.208 19 25.2061 124.971 15.5942 258.889C32.2922 241.643 55.2109 231 80.5 231C110.168 231 136.573 245.646 153.5 268.42C170.427 245.646 196.832 231 226.5 231C257.671 231 285.242 247.17 302 271.945C318.758 247.17 346.329 231 377.5 231C406.877 231 433.056 245.361 450 267.754C466.944 245.361 493.123 231 522.5 231C549.458 231 573.724 243.094 590.63 262.389Z" fill="white"/>
<rect x="251" y="582" width="102" height="69" fill="white"/>
<path d="M364.135 581.809C362.977 581.809 361.819 581.643 360.715 581.257C354.592 579.382 351.172 572.872 353.103 566.749L412.569 375.387C422.498 343.337 430.938 310.846 437.889 283.265C447.267 245.864 480.806 219.771 519.42 219.771C539.5 219.771 559.028 226.943 574.529 239.906C589.919 252.814 600.235 270.632 603.544 290.05C603.655 290.712 603.71 291.318 603.71 291.98C603.71 298.379 598.525 303.565 592.126 303.565C586.334 303.565 581.479 299.262 580.652 293.69C575.632 264.73 549.319 242.94 519.42 242.94C491.452 242.94 467.181 261.861 460.395 288.946C453.39 316.804 444.839 349.681 434.744 382.283L375.278 573.645C373.679 578.609 369.1 581.809 364.135 581.809Z" fill="#07074E"/>
<path d="M301.966 315.425C295.567 315.425 290.382 310.239 290.382 303.84C290.382 270.246 263.076 242.94 229.481 242.94C198.479 242.94 172.442 266.164 168.967 296.945C168.25 303.289 162.513 307.867 156.169 307.15C149.825 306.433 145.247 300.696 145.964 294.352C150.763 251.821 186.674 219.771 229.481 219.771C260.318 219.771 287.348 236.431 301.966 261.254C316.584 236.431 343.614 219.771 374.451 219.771C395.358 219.771 415.437 227.494 430.938 241.561C446.329 255.517 455.927 274.494 458.078 295.07C458.134 295.456 458.133 295.842 458.133 296.283C458.133 302.682 452.948 307.867 446.549 307.867C440.481 307.867 435.516 303.234 435.02 297.331C431.71 266.329 405.728 242.94 374.506 242.94C340.911 242.94 313.605 270.246 313.605 303.84C313.55 310.239 308.365 315.425 301.966 315.425Z" fill="#07074E"/>
<path d="M239.797 581.809C234.832 581.809 230.254 578.609 228.764 573.645L184.192 430.22C169.574 383.276 156.335 335.173 143.537 288.615L143.261 287.622C136.034 261.31 111.873 242.94 84.567 242.94C54.6685 242.94 28.3555 264.785 23.3356 293.746C22.5082 299.317 17.709 303.565 11.8617 303.565C5.4627 303.565 0.277344 298.379 0.277344 291.98C0.277344 291.318 0.3325 290.656 0.442827 290.05C3.75263 270.632 14.0682 252.87 29.4588 239.906C44.9045 226.943 64.4875 219.771 84.5118 219.771C122.244 219.771 155.562 245.147 165.547 281.499L165.823 282.492C178.565 328.829 191.75 376.767 206.257 423.38L250.829 566.804C252.705 572.928 249.34 579.382 243.217 581.312C242.059 581.643 240.9 581.809 239.797 581.809Z" fill="#07074E"/>
<path d="M426.801 581.808C424.705 581.808 422.608 581.257 420.678 580.043C415.272 576.678 413.617 569.507 416.982 564.101L572.156 315.424C578.5 305.274 581.479 293.249 580.541 281.554C569.288 136.64 446.935 23.1686 301.966 23.1686C156.997 23.1686 34.6442 136.64 23.3357 281.554C22.3979 293.249 25.4319 305.274 31.7205 315.424L186.895 564.101C190.26 569.507 188.605 576.678 183.199 580.043C177.793 583.408 170.622 581.753 167.257 576.347L12.0823 327.671C3.14587 313.383 -1.04655 296.338 0.222209 279.734C6.12469 203.663 40.0502 133.164 95.7652 81.2005C151.811 28.8505 225.068 0 301.966 0C378.864 0 452.121 28.8505 508.167 81.2005C563.827 133.164 597.752 203.718 603.71 279.734C604.979 296.338 600.786 313.328 591.85 327.671L436.675 576.347C434.468 579.878 430.662 581.808 426.801 581.808Z" fill="#07074E"/>
<path d="M301.966 581.809C295.567 581.809 290.382 576.623 290.382 570.224V303.84C290.382 297.441 295.567 292.256 301.966 292.256C308.365 292.256 313.55 297.441 313.55 303.84V570.224C313.55 576.623 308.365 581.809 301.966 581.809Z" fill="#07074E"/>
<path d="M470.987 843.999H132.945C126.546 843.999 121.361 838.814 121.361 832.415V570.223C121.361 563.824 126.546 558.639 132.945 558.639H470.987C477.386 558.639 482.571 563.824 482.571 570.223V832.415C482.571 838.814 477.386 843.999 470.987 843.999ZM144.53 820.83H459.402V581.807H144.53V820.83Z" fill="#07074E"/>
<path d="M349.461 653.434H254.47C248.071 653.434 242.886 648.248 242.886 641.849V570.223C242.886 563.824 248.071 558.639 254.47 558.639H349.461C355.86 558.639 361.046 563.824 361.046 570.223V641.849C361.046 648.248 355.86 653.434 349.461 653.434ZM266.054 630.265H337.877V581.807H266.054V630.265Z" fill="#07074E"/>
<path fill-rule="evenodd" clip-rule="evenodd" d="M380.228 739.126H385.87C391.146 739.126 395.096 738.081 397.72 735.991C400.344 733.901 401.654 730.864 401.65 726.88C401.65 722.853 400.552 719.881 398.357 717.964C396.156 716.039 392.721 715.071 388.03 715.071H380.228V739.126ZM419 726.266C419 734.985 416.277 741.652 410.833 746.265C405.388 750.879 397.639 753.181 387.587 753.173H380.228V781.982H363.061V701H388.903C398.739 701 406.214 703.118 411.328 707.353C416.443 711.589 419 717.893 419 726.266ZM321.952 782H305.104V701H351.5V715.071H321.994V735.967H349.423V749.985H321.952V782ZM274.022 782H254.477L243.512 739.451C243.118 737.939 242.428 734.81 241.44 730.063C240.453 725.315 239.89 722.131 239.753 720.509C239.528 722.505 238.974 725.709 238.088 730.122C237.475 733.271 236.792 736.42 236.041 739.569L225.129 782H205.655L185 701H201.89L212.247 745.214C214.052 753.378 215.362 760.452 216.177 766.435C216.395 764.333 216.903 761.068 217.699 756.663C218.496 752.258 219.24 748.81 219.942 746.383L231.745 701H247.967L259.77 746.383C260.281 748.41 260.927 751.512 261.706 755.689C262.485 759.865 263.075 763.448 263.476 766.435C263.836 763.548 264.432 759.94 265.246 755.659C265.892 752.156 266.631 748.674 267.465 745.214L277.757 701H294.647L274.022 782Z" fill="white"/>
</svg>
