<svg width="553" height="608" viewBox="0 0 553 608" fill="none" xmlns="http://www.w3.org/2000/svg">
<path d="M538.189 353.337C514.643 210.098 402.84 185.389 330.692 191.527C294.645 194.593 258.355 194.593 222.308 191.527C150.16 185.388 38.3568 210.098 14.8109 353.337C-6.39078 482.314 73.8609 543.655 150.942 572.764C231.715 603.267 321.285 603.267 402.058 572.764C479.139 543.655 559.391 482.314 538.189 353.337Z" fill="#FAC695"/>
<path d="M188.094 191.526C211.801 193.543 235.613 194.206 259.393 193.57C247.016 193.239 234.647 192.576 222.308 191.526C210.795 190.547 198.271 190.359 185.258 191.306C186.208 191.375 187.156 191.447 188.094 191.526Z" fill="#FCD6B1"/>
<path d="M538.189 353.337C514.949 211.959 405.734 186.054 333.528 191.306C402.062 196.298 484.186 232.955 503.975 353.337C525.177 482.313 444.925 543.655 367.844 572.764C332.867 585.972 296.24 593.45 259.393 595.219C307.638 597.536 356.262 590.058 402.058 572.764C479.139 543.655 559.391 482.313 538.189 353.337Z" fill="#FCD6B1"/>
<path d="M364.907 191.526C365.845 191.447 366.792 191.375 367.743 191.306C354.73 190.359 342.205 190.547 330.693 191.526C318.353 192.576 305.985 193.239 293.608 193.57C317.387 194.206 341.2 193.543 364.907 191.526Z" fill="#FCD6B1"/>
<path d="M185.157 572.764C108.076 543.655 27.8239 482.313 49.0259 353.337C68.8147 232.955 150.939 196.298 219.473 191.306C147.267 186.054 38.0515 211.959 14.8113 353.337C-6.39017 482.313 73.8614 543.655 150.942 572.764C196.739 590.058 245.363 597.536 293.608 595.219C256.76 593.45 220.134 585.972 185.157 572.764Z" fill="#FCD6B1"/>
<path d="M275.672 211.798C275.672 211.798 307.359 187.225 289.805 220.351C198.09 393.429 253.05 550.264 259.393 587.179C265.273 621.396 238.619 551.059 249.891 595.641C249.891 595.641 124.974 383.165 275.672 211.798Z" fill="#F6AA8A"/>
<path d="M198.089 203.03C198.089 203.03 240.713 184.771 213.778 210.848C64.5756 355.298 147.483 534.109 153.826 571.024C159.706 605.241 -5.03577 379.769 198.089 203.03Z" fill="#F6AA8A"/>
<path d="M242.297 604.695C238.24 604.695 234.311 602.526 232.251 598.707C170.134 483.651 183.069 380.174 204.858 313.632C228.42 241.678 266.271 197.346 267.869 195.491C271.987 190.73 279.187 190.204 283.956 194.316C288.72 198.434 289.246 205.634 285.131 210.401C284.446 211.202 248.193 254.02 226.257 321.581C196.926 411.913 205.696 501.508 252.32 587.871C255.313 593.414 253.244 600.332 247.703 603.323C245.98 604.253 244.126 604.695 242.297 604.695Z" fill="#07074E"/>
<path d="M310.704 604.696C308.875 604.696 307.02 604.253 305.297 603.323C299.756 600.333 297.688 593.414 300.681 587.871C347.438 501.258 358.998 409.862 335.04 316.219C317.063 245.964 284.7 200.715 284.374 200.267C280.685 195.166 281.821 188.039 286.916 184.344C292.002 180.647 299.13 181.777 302.83 186.867C304.247 188.816 337.732 235.445 356.896 309.64C374.601 378.176 382.697 483.96 320.749 598.707C318.689 602.527 314.76 604.696 310.704 604.696Z" fill="#07074E"/>
<path d="M138.168 573.577C134.079 573.577 130.128 571.372 128.079 567.508C119.141 550.636 111.365 533.794 104.964 517.457C102.667 511.593 105.56 504.975 111.423 502.678C117.292 500.381 123.902 503.271 126.202 509.138C132.288 524.673 139.7 540.721 148.236 556.833C151.181 562.399 149.06 569.301 143.494 572.249C141.793 573.149 139.967 573.577 138.168 573.577Z" fill="#07074E"/>
<path d="M99.3208 472.43C94.1114 472.43 89.4063 468.836 88.209 463.54C87.5522 460.636 86.9451 458.105 86.3854 455.772C84.6091 448.372 83.2059 442.525 82.2621 433.474C81.6077 427.209 86.1571 421.602 92.4215 420.948C98.6776 420.302 104.293 424.843 104.947 431.107C105.735 438.666 106.86 443.355 108.564 450.452C109.143 452.871 109.772 455.497 110.454 458.506C111.844 464.651 107.991 470.757 101.849 472.146C101.002 472.338 100.156 472.43 99.3208 472.43Z" fill="#07074E"/>
<path d="M92.2016 408.044C92.1543 408.044 92.1071 408.044 92.0569 408.044C85.7591 407.966 80.7169 402.796 80.7948 396.498C81.3321 353.324 93.7273 289.75 149.745 232.079C183.097 197.742 216.031 181.886 217.417 181.226C223.103 178.531 229.91 180.942 232.61 186.636C235.311 192.318 232.894 199.117 227.215 201.823C226.811 202.015 196.004 216.98 165.531 248.564C125.138 290.427 104.302 340.294 103.603 396.782C103.525 403.03 98.4327 408.044 92.2016 408.044Z" fill="#07074E"/>
<path d="M414.834 573.578C413.041 573.578 411.223 573.155 409.528 572.261C403.954 569.324 401.819 562.427 404.753 556.856C453.337 464.644 457.009 378.761 415.667 301.592C412.693 296.04 414.784 289.13 420.336 286.154C425.888 283.183 432.801 285.271 435.774 290.823C466.807 348.748 490.116 443.768 424.933 567.486C422.889 571.365 418.93 573.578 414.834 573.578Z" fill="#07074E"/>
<path d="M396.921 264.186C393.577 264.186 390.267 262.725 388.015 259.915C357.358 221.678 325.023 201.431 324.697 201.231C319.348 197.917 317.686 190.893 320.994 185.539C324.302 180.185 331.315 178.512 336.672 181.819C338.122 182.71 372.543 204.16 405.811 245.649C409.751 250.563 408.96 257.741 404.046 261.681C401.941 263.368 399.421 264.186 396.921 264.186Z" fill="#07074E"/>
<path d="M276.5 607.101C232.599 607.101 188.695 599.211 146.914 583.433C5.68335 530.099 -8.99749 427.862 3.5563 351.489C14.6263 284.143 45.2523 235.383 94.5821 206.567C143.144 178.199 196.06 177.843 223.275 180.165C258.595 183.166 294.405 183.166 329.725 180.165C356.946 177.843 409.856 178.196 458.418 206.567C507.748 235.383 538.374 284.143 549.444 351.489C561.997 427.862 547.316 530.099 406.086 583.433C364.305 599.211 320.401 607.101 276.5 607.101ZM203.015 202.132C151.413 202.132 48.3427 219.644 26.0636 355.186C9.81228 454.044 53.1843 523.657 154.971 562.095C233.34 591.691 319.66 591.691 398.029 562.095C499.816 523.657 543.188 454.041 526.937 355.186C501.531 200.623 371.073 199.546 331.657 202.889C295.057 206.002 257.943 206.002 221.343 202.889C216.493 202.477 210.259 202.132 203.015 202.132Z" fill="#07074E"/>
<path d="M222.308 191.527C222.308 191.527 243.275 152.609 266.809 144.303C290.344 135.996 287.575 37.7057 276.5 22.4774L310.715 11.4023C310.715 11.4023 326.933 119.384 310.715 137.381C294.497 155.378 364.907 191.527 364.907 191.527C364.907 191.527 235.326 217.226 222.308 191.527Z" fill="#B5D9B7"/>
<path d="M265.408 214.332C226.869 214.332 216.482 205.259 212.136 196.681C210.448 193.351 210.499 189.406 212.269 186.12C214.628 181.738 236.102 143.046 263.014 133.547C263.011 133.549 263.011 133.549 263.011 133.549C262.964 133.549 266.491 131.069 269.534 118.008C276.695 87.246 272.449 37.0361 267.251 29.1486C265.102 26.1946 264.512 22.4081 265.642 18.9335C266.772 15.4588 269.512 12.7525 272.989 11.6278L307.204 0.55238C310.384 -0.47492 313.867 -0.0573118 316.718 1.70497C319.566 3.47006 321.495 6.39633 321.994 9.70954C327.039 43.3061 336.803 122.925 319.911 144.16C322.626 151.633 345.79 168.892 370.115 181.382C374.431 183.598 376.872 188.306 376.198 193.112C375.525 197.917 371.883 201.77 367.125 202.714C365.778 202.981 333.768 209.288 299.562 212.517C286.228 213.776 274.952 214.332 265.408 214.332ZM237.338 188.615C244.518 190.873 261.44 193.376 299.801 189.581C311.291 188.442 322.562 186.945 332.32 185.488C332.094 185.338 331.866 185.185 331.641 185.035C310.256 170.699 299.327 158.752 297.25 147.437C296.056 140.928 297.83 134.644 302.242 129.747C308.32 122.366 307.722 75.8451 301.304 26.4345L291.331 29.6641C297.888 55.6349 297.949 104.152 289.875 130.123C285.618 143.826 279.312 151.984 270.603 155.058C258.303 159.398 244.964 176.81 237.338 188.615Z" fill="#07074E"/>
</svg>
