<svg width="835" height="755" viewBox="0 0 835 755" fill="none" xmlns="http://www.w3.org/2000/svg">
<path d="M834.7 257.1V256.8C834.703 253.582 834.071 250.395 832.84 247.421C831.61 244.447 829.806 241.746 827.53 239.47C825.254 237.194 822.553 235.39 819.579 234.16C816.605 232.929 813.418 232.297 810.2 232.3H640.2C636.982 232.303 633.795 231.671 630.821 230.44C627.847 229.21 625.146 227.406 622.87 225.13C620.594 222.854 618.79 220.153 617.56 217.179C616.329 214.205 615.697 211.018 615.7 207.8C615.697 204.582 616.329 201.395 617.56 198.421C618.79 195.447 620.594 192.746 622.87 190.47C625.146 188.194 627.847 186.39 630.821 185.16C633.795 183.929 636.982 183.297 640.2 183.3H715.8C719.018 183.303 722.205 182.671 725.179 181.44C728.153 180.21 730.854 178.406 733.13 176.13C735.406 173.854 737.21 171.153 738.44 168.179C739.671 165.205 740.303 162.018 740.3 158.8V158.5C740.303 155.282 739.671 152.095 738.44 149.121C737.21 146.147 735.406 143.446 733.13 141.17C730.854 138.894 728.153 137.09 725.179 135.86C722.205 134.629 719.018 133.997 715.8 134H170.6C167.382 133.997 164.195 134.629 161.221 135.86C158.247 137.09 155.546 138.894 153.27 141.17C150.994 143.446 149.19 146.147 147.96 149.121C146.729 152.095 146.097 155.282 146.1 158.5V158.8C146.097 162.018 146.729 165.205 147.96 168.179C149.19 171.153 150.994 173.854 153.27 176.13C155.546 178.406 158.247 180.21 161.221 181.44C164.195 182.671 167.382 183.303 170.6 183.3H278.3C281.518 183.297 284.705 183.929 287.679 185.16C290.653 186.39 293.354 188.194 295.63 190.47C297.906 192.746 299.71 195.447 300.94 198.421C302.171 201.395 302.803 204.582 302.8 207.8C302.803 211.018 302.171 214.205 300.94 217.179C299.71 220.153 297.906 222.854 295.63 225.13C293.354 227.406 290.653 229.21 287.679 230.44C284.705 231.671 281.518 232.303 278.3 232.3H24.5C21.2819 232.297 18.0948 232.929 15.1212 234.16C12.1475 235.39 9.44559 237.194 7.17003 239.47C4.89447 241.746 3.08991 244.447 1.8596 247.421C0.629294 250.395 -0.00262209 253.582 8.17737e-06 256.8V257.1C-0.00262209 260.318 0.629294 263.505 1.8596 266.479C3.08991 269.453 4.89447 272.154 7.17003 274.43C9.44559 276.706 12.1475 278.51 15.1212 279.74C18.0948 280.971 21.2819 281.603 24.5 281.6H193.5C196.718 281.597 199.905 282.229 202.879 283.46C205.853 284.69 208.554 286.494 210.83 288.77C213.106 291.046 214.91 293.747 216.14 296.721C217.371 299.695 218.003 302.882 218 306.1C218.003 309.318 217.371 312.505 216.14 315.479C214.91 318.453 213.106 321.154 210.83 323.43C208.554 325.706 205.853 327.51 202.879 328.74C199.905 329.971 196.718 330.603 193.5 330.6H91.9C88.6819 330.597 85.4948 331.229 82.5211 332.46C79.5475 333.69 76.8456 335.494 74.57 337.77C72.2945 340.046 70.4899 342.747 69.2596 345.721C68.0293 348.695 67.3974 351.882 67.4 355.1V355.4C67.3974 358.618 68.0293 361.805 69.2596 364.779C70.4899 367.753 72.2945 370.454 74.57 372.73C76.8456 375.006 79.5475 376.81 82.5211 378.04C85.4948 379.271 88.6819 379.903 91.9 379.9H252.1C255.318 379.897 258.505 380.529 261.479 381.76C264.453 382.99 267.154 384.794 269.43 387.07C271.706 389.346 273.51 392.047 274.74 395.021C275.971 397.995 276.603 401.182 276.6 404.4C276.603 407.618 275.971 410.805 274.74 413.779C273.51 416.753 271.706 419.454 269.43 421.73C267.154 424.006 264.453 425.81 261.479 427.04C258.505 428.271 255.318 428.903 252.1 428.9H145.8C142.582 428.897 139.395 429.529 136.421 430.76C133.447 431.99 130.746 433.794 128.47 436.07C126.194 438.346 124.39 441.047 123.16 444.021C121.929 446.995 121.297 450.182 121.3 453.4V453.7C121.291 456.922 121.918 460.115 123.145 463.094C124.373 466.074 126.176 468.781 128.452 471.062C130.729 473.343 133.433 475.152 136.41 476.386C139.387 477.619 142.578 478.253 145.8 478.25H280.8C284.018 478.247 287.205 478.879 290.179 480.11C293.153 481.34 295.854 483.144 298.13 485.42C300.406 487.696 302.21 490.397 303.44 493.371C304.671 496.345 305.303 499.532 305.3 502.75C305.303 505.968 304.671 509.155 303.44 512.129C302.21 515.103 300.406 517.804 298.13 520.08C295.854 522.356 293.153 524.16 290.179 525.39C287.205 526.621 284.018 527.253 280.8 527.25H47.7C44.4819 527.247 41.2948 527.879 38.3212 529.11C35.3475 530.34 32.6456 532.144 30.37 534.42C28.0945 536.696 26.2899 539.397 25.0596 542.371C23.8293 545.345 23.1974 548.532 23.2 551.75V552.05C23.1974 555.268 23.8293 558.455 25.0596 561.429C26.2899 564.402 28.0945 567.104 30.37 569.38C32.6456 571.656 35.3475 573.46 38.3212 574.69C41.2948 575.921 44.4819 576.553 47.7 576.55H718.9C722.118 576.553 725.305 575.921 728.279 574.69C731.253 573.46 733.954 571.656 736.23 569.38C738.506 567.104 740.31 564.402 741.54 561.429C742.771 558.455 743.403 555.268 743.4 552.05V551.75C743.403 548.532 742.771 545.345 741.54 542.371C740.31 539.397 738.506 536.696 736.23 534.42C733.954 532.144 731.253 530.34 728.279 529.11C725.305 527.879 722.118 527.247 718.9 527.25H617C613.782 527.253 610.595 526.621 607.621 525.39C604.647 524.16 601.946 522.356 599.67 520.08C597.394 517.804 595.59 515.103 594.36 512.129C593.129 509.155 592.497 505.968 592.5 502.75C592.497 499.532 593.129 496.345 594.36 493.371C595.59 490.397 597.394 487.696 599.67 485.42C601.946 483.144 604.647 481.34 607.621 480.11C610.595 478.879 613.782 478.247 617 478.25H740.6C743.818 478.253 747.005 477.621 749.979 476.39C752.953 475.16 755.654 473.356 757.93 471.08C760.206 468.804 762.01 466.103 763.24 463.129C764.471 460.155 765.103 456.968 765.1 453.75V453.15C765.103 449.932 764.471 446.745 763.24 443.771C762.01 440.797 760.206 438.096 757.93 435.82C755.654 433.544 752.953 431.74 749.979 430.51C747.005 429.279 743.818 428.647 740.6 428.65H664.3C661.082 428.653 657.895 428.021 654.921 426.79C651.947 425.56 649.246 423.756 646.97 421.48C644.694 419.204 642.89 416.503 641.66 413.529C640.429 410.555 639.797 407.368 639.8 404.15C639.797 400.932 640.429 397.745 641.66 394.771C642.89 391.797 644.694 389.096 646.97 386.82C649.246 384.544 651.947 382.74 654.921 381.51C657.895 380.279 661.082 379.647 664.3 379.65H710.8C714.018 379.653 717.205 379.021 720.179 377.79C723.153 376.56 725.854 374.756 728.13 372.48C730.406 370.204 732.21 367.503 733.44 364.529C734.671 361.555 735.303 358.368 735.3 355.15V354.85C735.303 351.632 734.671 348.445 733.44 345.471C732.21 342.497 730.406 339.796 728.13 337.52C725.854 335.244 723.153 333.44 720.179 332.21C717.205 330.979 714.018 330.347 710.8 330.35H593.3C590.082 330.353 586.895 329.721 583.921 328.49C580.947 327.26 578.246 325.456 575.97 323.18C573.694 320.904 571.89 318.203 570.66 315.229C569.429 312.255 568.797 309.068 568.8 305.85C568.797 302.632 569.429 299.445 570.66 296.471C571.89 293.497 573.694 290.796 575.97 288.52C578.246 286.244 580.947 284.44 583.921 283.21C586.895 281.979 590.082 281.347 593.3 281.35H810.2C813.415 281.417 816.61 280.838 819.597 279.646C822.583 278.454 825.299 276.675 827.585 274.413C829.87 272.151 831.677 269.453 832.9 266.479C834.122 263.505 834.734 260.315 834.7 257.1Z" fill="#C2DBEC"/>
<path d="M83.6002 134.25H66.3002C63.0689 134.247 59.8689 134.882 56.8831 136.117C53.8973 137.353 51.1844 139.164 48.8995 141.449C46.6147 143.734 44.8027 146.447 43.5674 149.433C42.3321 152.419 41.6976 155.619 41.7002 158.85C41.6976 162.081 42.3321 165.281 43.5674 168.267C44.8027 171.253 46.6147 173.966 48.8995 176.251C51.1844 178.536 53.8973 180.347 56.8831 181.583C59.8689 182.818 63.0689 183.453 66.3002 183.45H83.6002C86.8315 183.453 90.0315 182.818 93.0173 181.583C96.0031 180.347 98.7161 178.536 101.001 176.251C103.286 173.966 105.098 171.253 106.333 168.267C107.568 165.281 108.203 162.081 108.2 158.85C108.187 152.33 105.591 146.08 100.98 141.47C96.3699 136.859 90.1205 134.263 83.6002 134.25Z" fill="#C2DBEC"/>
<path d="M576.039 88.0867C564.945 106.25 544.274 113.841 529.869 105.043C515.464 96.2446 512.779 74.3878 523.873 56.2246C534.967 38.0614 572.262 3.2528 586.667 12.0512C601.072 20.8498 587.133 69.9236 576.039 88.0867Z" fill="#FFF1B2"/>
<path d="M543.277 119.311C536.498 119.311 529.973 117.562 524.328 114.113C514.676 108.218 508.273 97.7674 506.758 85.4405C505.335 73.8481 508.19 61.5045 514.803 50.6816C521.32 40.0093 534.437 25.9435 547.443 15.68C566.426 0.6993 581.487 -3.57521 592.208 2.978C602.93 9.52756 606.005 24.8779 601.347 48.6039C598.154 64.8628 591.629 82.9552 585.11 93.6276C578.502 104.449 568.824 112.627 557.861 116.653C553.023 118.429 548.087 119.311 543.277 119.311ZM580.752 21.2279C572.185 21.2279 543.879 43.8624 532.947 61.7643C528.885 68.4124 527.033 76.0973 527.861 82.848C528.59 88.781 531.271 93.4398 535.411 95.969C539.548 98.4983 544.918 98.7552 550.531 96.6958C556.916 94.3509 562.906 89.1926 566.965 82.5444C566.965 82.5444 566.968 82.5444 566.968 82.5431C576.475 66.9786 586.042 29.1364 581.061 21.2386C580.962 21.2319 580.859 21.2279 580.752 21.2279Z" fill="#07074E"/>
<path d="M502.265 143.561C500.393 164.761 485.244 180.744 468.43 179.259C451.616 177.775 439.503 159.384 441.375 138.184C443.247 116.983 461.201 69.2317 478.015 70.7165C494.829 72.2013 504.137 122.36 502.265 143.561Z" fill="#FFF1B2"/>
<path d="M470.528 189.982C469.518 189.982 468.507 189.938 467.496 189.848C444.869 187.851 428.401 164.255 430.785 137.25C432.445 118.442 450.631 57.5751 478.95 60.1277C507.191 62.6207 514.515 125.69 512.854 144.495C511.74 157.128 506.7 168.753 498.667 177.229C490.89 185.435 480.778 189.982 470.528 189.982ZM477.074 81.4384C469.495 84.5581 453.832 117.965 451.963 139.12C450.633 154.186 458.602 167.72 469.364 168.67C474.203 169.081 479.124 166.941 483.235 162.603C487.914 157.668 490.99 150.385 491.676 142.626C493.28 124.456 485.042 86.301 477.074 81.4384Z" fill="#07074E"/>
<path d="M440.176 220.324C440.413 241.606 426.922 259.011 410.043 259.198C393.165 259.386 379.29 242.286 379.053 221.004C378.817 199.722 391.953 150.427 408.832 150.24C425.711 150.052 439.94 199.043 440.176 220.324Z" fill="#FFF1B2"/>
<path d="M409.778 269.829C398.605 269.829 387.79 264.386 380.053 254.85C372.694 245.782 368.564 233.803 368.423 221.122C368.286 208.617 371.939 189.733 377.515 174.133C385.654 151.364 396.151 139.749 408.714 139.609C408.791 139.609 408.867 139.609 408.944 139.609C421.409 139.609 432.083 150.985 440.674 173.431C446.597 188.904 450.669 207.701 450.806 220.206C450.948 232.887 447.084 244.954 439.93 254.185C432.322 264 421.472 269.702 410.162 269.828C410.034 269.829 409.906 269.829 409.778 269.829ZM408.958 161.002C401.726 164.856 389.448 199.651 389.683 220.885C389.77 228.675 392.277 236.172 396.562 241.454C400.289 246.046 404.975 248.568 409.773 248.568C409.823 248.568 409.874 248.568 409.926 248.568C414.777 248.513 419.464 245.883 423.126 241.158C427.293 235.783 429.633 228.232 429.546 220.441C429.345 202.202 417.37 165.052 408.958 161.002Z" fill="#07074E"/>
<path d="M397.841 316.149C403.172 336.754 394.248 356.885 377.906 361.114C361.565 365.342 343.995 352.067 338.663 331.463C333.331 310.859 334.266 259.852 350.608 255.623C366.949 251.395 392.508 295.545 397.841 316.149Z" fill="#FFF1B2"/>
<path d="M371.819 372.512C363.498 372.512 355.063 369.611 347.748 364.083C338.429 357.043 331.549 346.403 328.372 334.126C325.239 322.02 324.258 302.812 325.932 286.329C328.374 262.273 335.78 248.48 347.945 245.332C360.102 242.184 373.275 250.651 387.081 270.505C396.54 284.107 405 301.381 408.132 313.487C411.309 325.763 410.453 338.404 405.72 349.08C400.686 360.435 391.519 368.572 380.569 371.406C377.704 372.147 374.768 372.512 371.819 372.512ZM353.311 266.042C347.213 271.517 343.635 308.241 348.956 328.8C350.907 336.342 355.138 343.019 360.565 347.12C365.331 350.724 370.542 352.041 375.243 350.822C379.939 349.607 383.86 345.929 386.283 340.464C389.039 334.247 389.5 326.356 387.548 318.813C382.979 301.154 362.447 267.956 353.311 266.042Z" fill="#07074E"/>
<path d="M366.628 402.904C378.493 420.573 376.75 442.525 362.736 451.935C348.723 461.344 327.744 454.648 315.88 436.979C304.016 419.309 287.98 370.88 301.994 361.471C316.008 352.061 354.764 385.234 366.628 402.904Z" fill="#FFF1B2"/>
<path d="M348.246 466.805C343.977 466.805 339.601 466.122 335.269 464.74C324.144 461.188 314.123 453.434 307.055 442.905C300.084 432.523 292.787 414.728 288.899 398.622C283.224 375.118 285.636 359.648 296.067 352.645C306.497 345.641 321.728 349.262 341.339 363.412C354.774 373.107 368.484 386.597 375.454 396.979V396.978C382.524 407.508 385.908 419.716 384.984 431.359C384.002 443.739 378.052 454.457 368.663 460.761C362.71 464.758 355.639 466.803 348.246 466.805ZM307.998 370.402C304.062 377.59 312.867 413.422 324.706 431.053C329.048 437.521 335.255 442.417 341.734 444.485C347.431 446.302 352.783 445.814 356.809 443.11C360.838 440.405 363.316 435.635 363.789 429.676C364.327 422.897 362.146 415.299 357.802 408.831C357.802 408.831 357.802 408.831 357.802 408.83C347.635 393.687 317.275 369.154 307.998 370.402Z" fill="#07074E"/>
<path d="M358.655 498.579C370.519 516.249 368.777 538.201 354.763 547.61C340.75 557.02 319.771 550.324 307.907 532.655C296.043 514.985 280.007 466.556 294.021 457.146C308.034 447.737 346.791 480.91 358.655 498.579Z" fill="#FFF1B2"/>
<path d="M340.273 562.481C336.004 562.481 331.628 561.798 327.296 560.416C316.171 556.864 306.15 549.11 299.082 538.581C292.11 528.199 284.813 510.404 280.926 494.298C275.251 470.794 277.663 455.325 288.094 448.321C298.522 441.316 313.754 444.939 333.365 459.088C346.8 468.783 360.511 482.273 367.481 492.655V492.654C374.55 503.184 377.935 515.393 377.011 527.035C376.028 539.416 370.079 550.133 360.69 556.437C354.737 560.434 347.666 562.479 340.273 562.481ZM300.025 466.078C296.089 473.266 304.894 509.098 316.733 526.729C321.075 533.197 327.282 538.093 333.761 540.161C339.459 541.981 344.81 541.492 348.837 538.786C352.865 536.081 355.343 531.311 355.816 525.352C356.354 518.573 354.173 510.975 349.83 504.507C349.83 504.507 349.83 504.507 349.83 504.506C339.662 489.363 309.329 464.825 300.025 466.078Z" fill="#07074E"/>
<path d="M337.67 754.859C332.086 754.859 327.401 750.503 327.068 744.855C326.987 743.484 319.283 605.886 346.82 451.279C363.05 360.158 388.171 280.908 421.486 215.733C463.529 133.48 518.826 73.4532 585.839 37.3188C591.007 34.5314 597.457 36.4637 600.241 41.6311C603.029 46.7986 601.098 53.2469 595.93 56.0343C532.834 90.0548 480.544 146.978 440.513 225.222C408.16 288.46 383.703 365.636 367.825 454.602C340.661 606.796 348.214 742.252 348.293 743.603C348.637 749.464 344.166 754.496 338.306 754.841C338.093 754.854 337.88 754.859 337.67 754.859Z" fill="#07074E"/>
<path d="M578.977 127.066C558.708 133.555 538.104 125.784 532.957 109.708C527.81 93.6322 540.07 75.3394 560.339 68.85C580.609 62.3607 631.587 60.4081 636.733 76.4841C641.88 92.5601 599.247 120.577 578.977 127.066Z" fill="#FFF1B2"/>
<path d="M564.557 139.992C558.302 139.992 552.19 138.925 546.545 136.796C534.926 132.412 526.283 123.72 522.834 112.949C515.909 91.3165 531.279 66.9912 557.098 58.7249C575.079 52.9696 638.212 46.2423 646.857 73.2422C650.688 85.2097 642.977 98.8342 623.94 113.741C610.895 123.954 594.129 133.378 582.219 137.19C576.382 139.059 570.407 139.992 564.557 139.992ZM596.945 74.7383C585.367 74.7383 572.761 76.036 563.581 78.974C549.174 83.5861 539.789 96.1763 543.083 106.466C544.562 111.087 548.455 114.793 554.048 116.902C560.415 119.304 568.32 119.314 575.735 116.941C593.109 111.38 625.089 89.0026 626.483 79.7708C623.309 76.6161 610.875 74.7383 596.945 74.7383Z" fill="#07074E"/>
<path d="M509.776 205.401C488.724 208.527 469.648 197.525 467.168 180.829C464.689 164.132 479.746 148.063 500.798 144.937C521.85 141.811 572.473 148.128 574.952 164.825C577.431 181.522 530.828 202.275 509.776 205.401Z" fill="#FFF1B2"/>
<path d="M502.735 216.555C479.458 216.555 459.629 202.427 456.653 182.39C453.318 159.921 472.42 138.403 499.236 134.422C511.611 132.585 530.814 133.639 547.025 137.043C570.688 142.013 583.623 150.835 585.468 163.264C587.314 175.692 577.503 187.891 556.304 199.522C541.777 207.492 523.708 214.079 511.336 215.916H511.338C508.436 216.347 505.558 216.555 502.735 216.555ZM513.55 154.719C509.555 154.719 505.761 154.947 502.361 155.452C487.397 157.674 476.098 168.58 477.684 179.267C479.272 189.954 493.269 197.106 508.214 194.885H508.216C526.257 192.207 561.437 175.295 564.308 166.412C560.282 160.845 534.243 154.719 513.55 154.719Z" fill="#07074E"/>
<path d="M467.253 287.788C446.201 290.913 427.125 279.912 424.646 263.215C422.166 246.519 437.223 230.449 458.275 227.324C479.328 224.198 529.95 230.515 532.429 247.212C534.908 263.908 488.305 284.662 467.253 287.788Z" fill="#FFF1B2"/>
<path d="M460.21 298.944C436.935 298.944 417.106 284.815 414.13 264.778C410.795 242.309 429.897 220.791 456.714 216.81C469.085 214.975 488.291 216.027 504.502 219.431C528.164 224.401 541.1 233.223 542.945 245.652C544.79 258.08 534.979 270.279 513.78 281.91C499.254 289.88 481.183 296.467 468.814 298.304C465.912 298.735 463.035 298.944 460.21 298.944ZM471.026 237.107C467.031 237.107 463.236 237.335 459.836 237.84C444.874 240.062 433.575 250.968 435.161 261.655C436.748 272.342 450.72 279.486 465.692 277.273C483.733 274.595 518.914 257.683 521.785 248.8C517.759 243.233 491.718 237.107 471.026 237.107Z" fill="#07074E"/>
<path d="M432.703 375.492C411.651 378.618 392.575 367.616 390.096 350.92C387.617 334.223 402.673 318.154 423.725 315.028C444.778 311.902 495.4 318.219 497.879 334.916C500.358 351.612 453.755 372.366 432.703 375.492Z" fill="#FFF1B2"/>
<path d="M425.66 386.647C402.385 386.647 382.556 372.519 379.58 352.481C376.245 330.012 395.347 308.494 422.164 304.513C434.534 302.678 453.74 303.73 469.952 307.134C493.614 312.104 506.549 320.926 508.395 333.355C510.24 345.783 500.43 357.982 479.229 369.613C464.704 377.584 446.633 384.171 434.263 386.007C431.362 386.438 428.485 386.647 425.66 386.647ZM436.476 324.81C432.481 324.81 428.686 325.038 425.286 325.543C410.324 327.765 399.025 338.671 400.611 349.359C402.198 360.045 416.173 367.189 431.142 364.976C449.184 362.298 484.364 345.386 487.233 336.504C483.21 330.937 457.168 324.81 436.476 324.81Z" fill="#07074E"/>
<path d="M408.784 460.537C387.732 463.663 368.656 452.662 366.177 435.965C363.698 419.269 378.754 403.199 399.806 400.074C420.859 396.948 471.481 403.265 473.96 419.962C476.44 436.658 429.837 457.412 408.784 460.537Z" fill="#FFF1B2"/>
<path d="M401.741 471.693C378.466 471.693 358.637 457.565 355.661 437.528C352.326 415.059 371.428 393.541 398.245 389.559C416.917 386.781 480.31 390.353 484.476 418.402C486.321 430.83 476.508 443.03 455.31 454.66C440.785 462.63 422.715 469.217 410.345 471.054C407.444 471.484 404.566 471.693 401.741 471.693ZM412.558 409.857C408.562 409.857 404.768 410.085 401.368 410.59C386.405 412.811 375.106 423.717 376.692 434.405C378.28 445.09 392.247 452.242 407.223 450.023C425.266 447.344 460.445 430.433 463.316 421.55C459.292 415.983 433.251 409.857 412.558 409.857Z" fill="#07074E"/>
<path d="M395.496 550.901C374.444 554.027 355.368 543.025 352.889 526.329C350.41 509.632 365.466 493.563 386.518 490.437C407.571 487.311 458.193 493.628 460.672 510.325C463.151 527.021 416.548 547.775 395.496 550.901Z" fill="#FFF1B2"/>
<path d="M388.453 562.055C365.177 562.055 345.349 547.927 342.373 527.889C339.038 505.421 358.14 483.902 384.957 479.921C403.632 477.141 467.022 480.715 471.188 508.764C473.033 521.192 463.22 533.391 442.022 545.021C427.497 552.992 409.426 559.579 397.057 561.415C394.155 561.846 391.278 562.055 388.453 562.055ZM399.269 500.218C395.274 500.218 391.48 500.447 388.08 500.951C373.117 503.173 361.818 514.079 363.404 524.767C364.991 535.453 378.963 542.598 393.935 540.384C411.978 537.706 447.157 520.794 450.028 511.912C446.003 506.345 419.963 500.218 399.269 500.218Z" fill="#07074E"/>
<path d="M334.882 719.404C334.882 719.404 339.352 702.099 348.979 674.999C340.383 691.548 335.283 706.6 334.882 719.404Z" fill="#B5D9B7"/>
<path d="M348.979 674.999C412.278 553.145 667.369 349.211 667.369 349.211C478.513 367.636 382.464 580.736 348.979 674.999Z" fill="#B5D9B7"/>
<path d="M334.892 730.036C334.392 730.036 333.886 730.001 333.379 729.928C328.016 729.161 324.088 724.485 324.257 719.071C324.694 705.08 329.695 689.059 339.547 670.098C342.121 665.14 348.098 663.024 353.219 665.251C358.342 667.479 360.868 673.292 358.997 678.557C349.635 704.908 345.219 721.894 345.176 722.062C343.95 726.81 339.669 730.036 334.892 730.036Z" fill="#07074E"/>
<path d="M348.974 685.632C347.556 685.632 346.118 685.346 344.74 684.747C339.617 682.518 337.091 676.705 338.963 671.44C372.251 577.729 470.788 357.709 666.336 338.631C671.041 338.182 675.448 340.851 677.218 345.21C678.988 349.571 677.683 354.576 674.008 357.514C671.475 359.54 419.947 561.441 358.414 679.899C356.531 683.524 352.83 685.632 348.974 685.632ZM629.307 366.765C516.301 396.369 441.712 500.726 397.6 588.178C429.666 550.459 472.123 507.163 524.697 458.601C565.343 421.056 603.74 388.163 629.307 366.765Z" fill="#07074E"/>
<path d="M226.434 271.516C134.44 495.958 336.498 718.884 336.498 718.884C276.319 624.385 226.434 271.516 226.434 271.516Z" fill="#B5D9B7"/>
<path d="M336.503 729.513C333.595 729.513 330.71 728.326 328.621 726.022C326.515 723.698 276.574 668.13 237.33 583.852C184.998 471.467 177.828 362.069 216.597 267.483C218.418 263.042 222.997 260.389 227.751 260.966C232.515 261.562 236.287 265.274 236.959 270.027C237.455 273.533 287.207 621.69 345.465 713.173C348.432 717.83 347.336 723.985 342.946 727.335C341.027 728.798 338.759 729.513 336.503 729.513ZM222.631 317.074C198.126 414.897 226.083 509.152 256.359 574.345C267.71 598.79 280.127 620.884 291.96 639.851C277.602 594.319 263.068 534.856 248.475 461.846C237.211 405.495 228.273 352.495 222.631 317.074Z" fill="#07074E"/>
</svg>
