<svg width="835" height="880" viewBox="0 0 835 880" fill="none" xmlns="http://www.w3.org/2000/svg">
<path d="M834.7 342.1V341.8C834.703 338.582 834.071 335.395 832.84 332.421C831.61 329.447 829.806 326.746 827.53 324.47C825.254 322.194 822.553 320.39 819.579 319.16C816.605 317.929 813.418 317.297 810.2 317.3H640.2C636.982 317.303 633.795 316.671 630.821 315.44C627.847 314.21 625.146 312.406 622.87 310.13C620.594 307.854 618.79 305.153 617.56 302.179C616.329 299.205 615.697 296.018 615.7 292.8C615.697 289.582 616.329 286.395 617.56 283.421C618.79 280.447 620.594 277.746 622.87 275.47C625.146 273.194 627.847 271.39 630.821 270.16C633.795 268.929 636.982 268.297 640.2 268.3H715.8C719.018 268.303 722.205 267.671 725.179 266.44C728.153 265.21 730.854 263.406 733.13 261.13C735.406 258.854 737.21 256.153 738.44 253.179C739.671 250.205 740.303 247.018 740.3 243.8V243.5C740.303 240.282 739.671 237.095 738.44 234.121C737.21 231.147 735.406 228.446 733.13 226.17C730.854 223.894 728.153 222.09 725.179 220.86C722.205 219.629 719.018 218.997 715.8 219H170.6C167.382 218.997 164.195 219.629 161.221 220.86C158.247 222.09 155.546 223.894 153.27 226.17C150.994 228.446 149.19 231.147 147.96 234.121C146.729 237.095 146.097 240.282 146.1 243.5V243.8C146.097 247.018 146.729 250.205 147.96 253.179C149.19 256.153 150.994 258.854 153.27 261.13C155.546 263.406 158.247 265.21 161.221 266.44C164.195 267.671 167.382 268.303 170.6 268.3H278.3C281.518 268.297 284.705 268.929 287.679 270.16C290.653 271.39 293.354 273.194 295.63 275.47C297.906 277.746 299.71 280.447 300.94 283.421C302.171 286.395 302.803 289.582 302.8 292.8C302.803 296.018 302.171 299.205 300.94 302.179C299.71 305.153 297.906 307.854 295.63 310.13C293.354 312.406 290.653 314.21 287.679 315.44C284.705 316.671 281.518 317.303 278.3 317.3H24.5C21.2819 317.297 18.0948 317.929 15.1212 319.16C12.1475 320.39 9.44559 322.194 7.17003 324.47C4.89447 326.746 3.08991 329.447 1.8596 332.421C0.629294 335.395 -0.00262209 338.582 8.17737e-06 341.8V342.1C-0.00262209 345.318 0.629294 348.505 1.8596 351.479C3.08991 354.453 4.89447 357.154 7.17003 359.43C9.44559 361.706 12.1475 363.51 15.1212 364.74C18.0948 365.971 21.2819 366.603 24.5 366.6H193.5C196.718 366.597 199.905 367.229 202.879 368.46C205.853 369.69 208.554 371.494 210.83 373.77C213.106 376.046 214.91 378.747 216.14 381.721C217.371 384.695 218.003 387.882 218 391.1C218.003 394.318 217.371 397.505 216.14 400.479C214.91 403.453 213.106 406.154 210.83 408.43C208.554 410.706 205.853 412.51 202.879 413.74C199.905 414.971 196.718 415.603 193.5 415.6H91.9C88.6819 415.597 85.4948 416.229 82.5211 417.46C79.5475 418.69 76.8456 420.494 74.57 422.77C72.2945 425.046 70.4899 427.747 69.2596 430.721C68.0293 433.695 67.3974 436.882 67.4 440.1V440.4C67.3974 443.618 68.0293 446.805 69.2596 449.779C70.4899 452.753 72.2945 455.454 74.57 457.73C76.8456 460.006 79.5475 461.81 82.5211 463.04C85.4948 464.271 88.6819 464.903 91.9 464.9H252.1C255.318 464.897 258.505 465.529 261.479 466.76C264.453 467.99 267.154 469.794 269.43 472.07C271.706 474.346 273.51 477.047 274.74 480.021C275.971 482.995 276.603 486.182 276.6 489.4C276.603 492.618 275.971 495.805 274.74 498.779C273.51 501.753 271.706 504.454 269.43 506.73C267.154 509.006 264.453 510.81 261.479 512.04C258.505 513.271 255.318 513.903 252.1 513.9H145.8C142.582 513.897 139.395 514.529 136.421 515.76C133.447 516.99 130.746 518.794 128.47 521.07C126.194 523.346 124.39 526.047 123.16 529.021C121.929 531.995 121.297 535.182 121.3 538.4V538.7C121.291 541.922 121.918 545.115 123.145 548.094C124.373 551.074 126.176 553.781 128.452 556.062C130.729 558.343 133.433 560.152 136.41 561.386C139.387 562.619 142.578 563.253 145.8 563.25H280.8C284.018 563.247 287.205 563.879 290.179 565.11C293.153 566.34 295.854 568.144 298.13 570.42C300.406 572.696 302.21 575.397 303.44 578.371C304.671 581.345 305.303 584.532 305.3 587.75C305.303 590.968 304.671 594.155 303.44 597.129C302.21 600.103 300.406 602.804 298.13 605.08C295.854 607.356 293.153 609.16 290.179 610.39C287.205 611.621 284.018 612.253 280.8 612.25H47.7C44.4819 612.247 41.2948 612.879 38.3212 614.11C35.3475 615.34 32.6456 617.144 30.37 619.42C28.0945 621.696 26.2899 624.397 25.0596 627.371C23.8293 630.345 23.1974 633.532 23.2 636.75V637.05C23.1974 640.268 23.8293 643.455 25.0596 646.429C26.2899 649.402 28.0945 652.104 30.37 654.38C32.6456 656.656 35.3475 658.46 38.3212 659.69C41.2948 660.921 44.4819 661.553 47.7 661.55H718.9C722.118 661.553 725.305 660.921 728.279 659.69C731.253 658.46 733.954 656.656 736.23 654.38C738.506 652.104 740.31 649.402 741.54 646.429C742.771 643.455 743.403 640.268 743.4 637.05V636.75C743.403 633.532 742.771 630.345 741.54 627.371C740.31 624.397 738.506 621.696 736.23 619.42C733.954 617.144 731.253 615.34 728.279 614.11C725.305 612.879 722.118 612.247 718.9 612.25H617C613.782 612.253 610.595 611.621 607.621 610.39C604.647 609.16 601.946 607.356 599.67 605.08C597.394 602.804 595.59 600.103 594.36 597.129C593.129 594.155 592.497 590.968 592.5 587.75C592.497 584.532 593.129 581.345 594.36 578.371C595.59 575.397 597.394 572.696 599.67 570.42C601.946 568.144 604.647 566.34 607.621 565.11C610.595 563.879 613.782 563.247 617 563.25H740.6C743.818 563.253 747.005 562.621 749.979 561.39C752.953 560.16 755.654 558.356 757.93 556.08C760.206 553.804 762.01 551.103 763.24 548.129C764.471 545.155 765.103 541.968 765.1 538.75V538.15C765.103 534.932 764.471 531.745 763.24 528.771C762.01 525.797 760.206 523.096 757.93 520.82C755.654 518.544 752.953 516.74 749.979 515.51C747.005 514.279 743.818 513.647 740.6 513.65H664.3C661.082 513.653 657.895 513.021 654.921 511.79C651.947 510.56 649.246 508.756 646.97 506.48C644.694 504.204 642.89 501.503 641.66 498.529C640.429 495.555 639.797 492.368 639.8 489.15C639.797 485.932 640.429 482.745 641.66 479.771C642.89 476.797 644.694 474.096 646.97 471.82C649.246 469.544 651.947 467.74 654.921 466.51C657.895 465.279 661.082 464.647 664.3 464.65H710.8C714.018 464.653 717.205 464.021 720.179 462.79C723.153 461.56 725.854 459.756 728.13 457.48C730.406 455.204 732.21 452.503 733.44 449.529C734.671 446.555 735.303 443.368 735.3 440.15V439.85C735.303 436.632 734.671 433.445 733.44 430.471C732.21 427.497 730.406 424.796 728.13 422.52C725.854 420.244 723.153 418.44 720.179 417.21C717.205 415.979 714.018 415.347 710.8 415.35H593.3C590.082 415.353 586.895 414.721 583.921 413.49C580.947 412.26 578.246 410.456 575.97 408.18C573.694 405.904 571.89 403.203 570.66 400.229C569.429 397.255 568.797 394.068 568.8 390.85C568.797 387.632 569.429 384.445 570.66 381.471C571.89 378.497 573.694 375.796 575.97 373.52C578.246 371.244 580.947 369.44 583.921 368.21C586.895 366.979 590.082 366.347 593.3 366.35H810.2C813.415 366.417 816.61 365.838 819.597 364.646C822.583 363.454 825.299 361.675 827.585 359.413C829.87 357.151 831.677 354.453 832.9 351.479C834.122 348.505 834.734 345.315 834.7 342.1Z" fill="#C2DBEC"/>
<path d="M83.6002 219.25H66.3002C63.0689 219.247 59.8689 219.882 56.8831 221.117C53.8973 222.353 51.1844 224.164 48.8995 226.449C46.6147 228.734 44.8027 231.447 43.5674 234.433C42.3321 237.419 41.6976 240.619 41.7002 243.85C41.6976 247.081 42.3321 250.281 43.5674 253.267C44.8027 256.253 46.6147 258.966 48.8995 261.251C51.1844 263.536 53.8973 265.347 56.8831 266.583C59.8689 267.818 63.0689 268.453 66.3002 268.45H83.6002C86.8315 268.453 90.0315 267.818 93.0173 266.583C96.0031 265.347 98.7161 263.536 101.001 261.251C103.286 258.966 105.098 256.253 106.333 253.267C107.568 250.281 108.203 247.081 108.2 243.85C108.187 237.33 105.591 231.08 100.98 226.47C96.3699 221.859 90.1205 219.263 83.6002 219.25Z" fill="#C2DBEC"/>
<path d="M423.959 580.156C423.959 580.156 283.669 531.724 288.23 479.236C288.23 479.236 304.199 488.365 338.416 499.775C372.633 511.185 423.959 580.156 423.959 580.156Z" fill="#B5D9B7"/>
<path d="M423.958 589.286C422.964 589.286 421.96 589.123 420.983 588.785C405.934 583.59 274.106 536.358 279.141 478.446C279.41 475.344 281.24 472.594 283.997 471.15C286.756 469.707 290.059 469.768 292.757 471.311C292.9 471.392 308.583 480.205 341.302 491.115C377.819 503.293 429.113 571.795 431.278 574.705C433.668 577.917 433.687 582.313 431.324 585.546C429.571 587.943 426.81 589.286 423.958 589.286ZM301.476 495.626C314.677 518.385 356.522 542.397 395.04 559.076C376.763 538.167 352.683 514.155 335.53 508.436C321.074 503.614 309.779 499.183 301.476 495.626Z" fill="#07074E"/>
<path d="M477.565 559.109C454.754 568.238 426.24 609.315 426.24 609.315L428.521 619.585C470.722 623.008 530.032 547.699 530.032 547.699C530.032 547.699 500.377 549.981 477.565 559.109Z" fill="#B5D9B7"/>
<path d="M431.332 628.825C430.133 628.825 428.952 628.777 427.784 628.683C423.795 628.359 420.482 625.473 419.614 621.565L417.332 611.295C416.78 608.807 417.292 606.202 418.745 604.108C421.823 599.673 449.533 560.496 474.177 550.634C498.011 541.097 528.065 538.695 529.333 538.597C532.949 538.313 536.376 540.204 538.083 543.402C539.787 546.599 539.441 550.503 537.2 553.348C536.575 554.141 521.677 572.975 501.261 591.66C474.298 616.338 450.794 628.825 431.332 628.825ZM507.127 560.214C498.73 561.872 489.292 564.249 480.954 567.585C466.249 573.469 446.482 597.214 436.924 610.094C459.482 606.294 488.041 580.64 507.127 560.214Z" fill="#07074E"/>
<path d="M349.822 627.572C331.573 634.418 352.103 707.444 423.959 701.739V681.2C423.959 681.2 368.071 620.725 349.822 627.572Z" fill="#B5D9B7"/>
<path d="M416.107 711.184C390.257 711.184 372.623 701.505 362.054 692.902C348.729 682.053 339.106 666.935 335.655 651.428C332.073 635.322 336.274 622.905 346.618 619.025C354.312 616.138 367.301 616.479 399.75 644.957C416.174 659.368 430.074 674.372 430.658 675.004C432.217 676.691 433.083 678.903 433.083 681.201V701.739C433.083 706.501 429.425 710.462 424.68 710.839C421.729 711.074 418.869 711.184 416.107 711.184ZM353.36 636.122C352.128 638.58 351.845 647.902 358.127 659.881C362.301 667.839 378.156 692.348 414.834 692.916V684.798C389.703 658.106 362.022 636.119 353.516 636.119C353.464 636.119 353.411 636.12 353.36 636.122Z" fill="#07074E"/>
<path d="M426.243 780.205C421.204 780.205 417.119 776.118 417.119 771.077V490.344L377.965 431.589C377.707 431.202 377.478 430.795 377.282 430.373L331.282 331.325C330.909 330.522 330.655 329.669 330.527 328.793L318.298 244.714C317.573 239.724 321.027 235.092 326.013 234.366C331.002 233.636 335.63 237.097 336.357 242.084L348.394 324.843L393.538 422.045L433.835 482.517C434.835 484.017 435.368 485.779 435.368 487.581V771.076C435.368 776.118 431.283 780.205 426.243 780.205Z" fill="#07074E"/>
<path d="M426.242 496.707C424.877 496.707 423.506 496.402 422.235 495.779C419.104 494.247 417.119 491.066 417.119 487.579V164.865C417.119 159.824 421.204 155.736 426.243 155.736C431.282 155.736 435.368 159.824 435.368 164.865V468.915L523.395 400.42L546.728 345.581C548.703 340.944 554.055 338.782 558.699 340.758C563.335 342.733 565.494 348.094 563.521 352.732L539.26 409.749C538.652 411.176 537.691 412.425 536.466 413.378L431.845 494.784C430.213 496.056 428.235 496.707 426.242 496.707Z" fill="#07074E"/>
<path d="M473.593 456.063C473.499 456.063 473.407 456.062 473.312 456.059C468.276 455.907 464.315 451.699 464.467 446.659L466.993 362.756C467.145 357.718 471.344 353.752 476.389 353.908C481.426 354.059 485.386 358.267 485.234 363.307L482.707 447.21C482.559 452.155 478.504 456.063 473.593 456.063Z" fill="#07074E"/>
<path d="M426.243 211.092C423.728 211.092 421.224 210.057 419.42 208.028L364.673 146.412C361.324 142.645 361.664 136.875 365.431 133.525C369.195 130.176 374.963 130.517 378.313 134.284L433.06 195.9C436.408 199.667 436.069 205.437 432.302 208.787C430.564 210.332 428.4 211.092 426.243 211.092Z" fill="#07074E"/>
<path d="M426.24 880C421.201 880 417.115 875.913 417.115 870.872V816.102C417.115 811.061 421.201 806.974 426.24 806.974C431.279 806.974 435.365 811.061 435.365 816.102V870.872C435.365 875.913 431.279 880 426.24 880Z" fill="#07074E"/>
<path d="M426.249 272.963C423.625 272.963 421.021 271.836 419.216 269.657C416.002 265.775 416.542 260.021 420.424 256.805L509.365 183.113C513.247 179.895 518.999 180.441 522.212 184.321C525.427 188.203 524.886 193.957 521.005 197.173L432.063 270.865C430.361 272.276 428.299 272.963 426.249 272.963Z" fill="#07074E"/>
<path d="M414.174 326.631C427.817 326.631 438.876 315.567 438.876 301.918C438.876 288.27 427.817 277.206 414.174 277.206C400.531 277.206 389.472 288.27 389.472 301.918C389.472 315.567 400.531 326.631 414.174 326.631Z" fill="#F7B38E"/>
<path d="M313.107 263.498C326.749 263.498 337.809 252.434 337.809 238.786C337.809 225.137 326.749 214.073 313.107 214.073C299.464 214.073 288.404 225.137 288.404 238.786C288.404 252.434 299.464 263.498 313.107 263.498Z" fill="#FFE4A1"/>
<path d="M455.508 200.381C469.151 200.381 480.21 189.317 480.21 175.668C480.21 162.02 469.151 150.956 455.508 150.956C441.865 150.956 430.806 162.02 430.806 175.668C430.806 189.317 441.865 200.381 455.508 200.381Z" fill="#FFE4A1"/>
<path d="M360.993 434.218C374.636 434.218 385.695 423.154 385.695 409.505C385.695 395.857 374.636 384.793 360.993 384.793C347.35 384.793 336.291 395.857 336.291 409.505C336.291 423.154 347.35 434.218 360.993 434.218Z" fill="#F7B38E"/>
<path d="M339.481 350.091C353.123 350.091 364.183 339.027 364.183 325.378C364.183 311.73 353.123 300.666 339.481 300.666C325.838 300.666 314.778 311.73 314.778 325.378C314.778 339.027 325.838 350.091 339.481 350.091Z" fill="#FFE4A1"/>
<path d="M543.41 274.099C557.053 274.099 568.113 263.034 568.113 249.386C568.113 235.738 557.053 224.674 543.41 224.674C529.768 224.674 518.708 235.738 518.708 249.386C518.708 263.034 529.768 274.099 543.41 274.099Z" fill="#F7B38E"/>
<path d="M471.288 269.53C484.931 269.53 495.991 258.466 495.991 244.818C495.991 231.17 484.931 220.105 471.288 220.105C457.646 220.105 446.586 231.17 446.586 244.818C446.586 258.466 457.646 269.53 471.288 269.53Z" fill="#FFE4A1"/>
<path d="M424.79 392.482C438.433 392.482 449.493 381.418 449.493 367.77C449.493 354.122 438.433 343.058 424.79 343.058C411.148 343.058 400.088 354.122 400.088 367.77C400.088 381.418 411.148 392.482 424.79 392.482Z" fill="#FFE4A1"/>
<path d="M502.306 124.235C515.949 124.235 527.009 113.171 527.009 99.5229C527.009 85.8746 515.949 74.8105 502.306 74.8105C488.664 74.8105 477.604 85.8746 477.604 99.5229C477.604 113.171 488.664 124.235 502.306 124.235Z" fill="#F7B38E"/>
<path d="M529.68 190.416C543.323 190.416 554.383 179.352 554.383 165.704C554.383 152.055 543.323 140.991 529.68 140.991C516.038 140.991 504.978 152.055 504.978 165.704C504.978 179.352 516.038 190.416 529.68 190.416Z" fill="#FFE4A1"/>
<path d="M429.843 456.728C443.486 456.728 454.545 445.664 454.545 432.016C454.545 418.368 443.486 407.304 429.843 407.304C416.2 407.304 405.141 418.368 405.141 432.016C405.141 445.664 416.2 456.728 429.843 456.728Z" fill="#FFE4A1"/>
<path d="M490.482 327.818C504.125 327.818 515.185 316.754 515.185 303.106C515.185 289.458 504.125 278.394 490.482 278.394C476.839 278.394 465.78 289.458 465.78 303.106C465.78 316.754 476.839 327.818 490.482 327.818Z" fill="#FFE4A1"/>
<path d="M530.279 448.646C543.922 448.646 554.981 437.582 554.981 423.934C554.981 410.286 543.922 399.222 530.279 399.222C516.636 399.222 505.577 410.286 505.577 423.934C505.577 437.582 516.636 448.646 530.279 448.646Z" fill="#FFE4A1"/>
<path d="M465.379 58.5536C479.021 58.5536 490.081 47.4895 490.081 33.8413C490.081 20.193 479.021 9.12891 465.379 9.12891C451.736 9.12891 440.676 20.193 440.676 33.8413C440.676 47.4895 451.736 58.5536 465.379 58.5536Z" fill="#FFE4A1"/>
<path d="M403.359 117.161C417.001 117.161 428.061 106.097 428.061 92.4487C428.061 78.8004 417.001 67.7363 403.359 67.7363C389.716 67.7363 378.656 78.8004 378.656 92.4487C378.656 106.097 389.716 117.161 403.359 117.161Z" fill="#FFE4A1"/>
<path d="M387.662 259.27C401.305 259.27 412.364 248.206 412.364 234.558C412.364 220.91 401.305 209.846 387.662 209.846C374.019 209.846 362.959 220.91 362.959 234.558C362.959 248.206 374.019 259.27 387.662 259.27Z" fill="#FFE4A1"/>
<path d="M362.052 178.732C375.695 178.732 386.754 167.668 386.754 154.02C386.754 140.372 375.695 129.308 362.052 129.308C348.409 129.308 337.35 140.372 337.35 154.02C337.35 167.668 348.409 178.732 362.052 178.732Z" fill="#F7B38E"/>
<path d="M490.482 388.482C504.125 388.482 515.185 377.418 515.185 363.77C515.185 350.122 504.125 339.058 490.482 339.058C476.839 339.058 465.78 350.122 465.78 363.77C465.78 377.418 476.839 388.482 490.482 388.482Z" fill="#F7B38E"/>
<path d="M556.174 348.04C569.816 348.04 580.876 336.976 580.876 323.328C580.876 309.679 569.816 298.615 556.174 298.615C542.531 298.615 531.471 309.679 531.471 323.328C531.471 336.976 542.531 348.04 556.174 348.04Z" fill="#FFE4A1"/>
<path d="M414.174 335.758C395.521 335.758 380.347 320.577 380.347 301.917C380.347 283.257 395.521 268.077 414.174 268.077C432.826 268.077 448.001 283.257 448.001 301.917C448.001 320.577 432.826 335.758 414.174 335.758ZM414.174 286.334C405.585 286.334 398.597 293.325 398.597 301.917C398.597 310.511 405.585 317.502 414.174 317.502C422.763 317.502 429.752 310.511 429.752 301.917C429.752 293.325 422.763 286.334 414.174 286.334Z" fill="#07074E"/>
<path d="M313.107 272.625C294.455 272.625 279.28 257.443 279.28 238.783C279.28 220.123 294.455 204.943 313.107 204.943C331.76 204.943 346.934 220.123 346.934 238.783C346.934 257.443 331.76 272.625 313.107 272.625ZM313.107 223.2C304.517 223.2 297.529 230.191 297.529 238.783C297.529 247.377 304.517 254.368 313.107 254.368C321.696 254.368 328.684 247.377 328.684 238.783C328.684 230.191 321.696 223.2 313.107 223.2Z" fill="#07074E"/>
<path d="M455.508 209.508C436.856 209.508 421.681 194.327 421.681 175.667C421.681 157.007 436.856 141.827 455.508 141.827C474.161 141.827 489.335 157.007 489.335 175.667C489.335 194.327 474.161 209.508 455.508 209.508ZM455.508 160.084C446.918 160.084 439.93 167.075 439.93 175.667C439.93 184.261 446.918 191.252 455.508 191.252C464.097 191.252 471.086 184.261 471.086 175.667C471.086 167.075 464.097 160.084 455.508 160.084Z" fill="#07074E"/>
<path d="M360.993 443.345C342.341 443.345 327.166 428.164 327.166 409.504C327.166 390.844 342.341 375.664 360.993 375.664C379.646 375.664 394.819 390.844 394.819 409.504C394.819 428.164 379.646 443.345 360.993 443.345ZM360.993 393.921C352.403 393.921 345.415 400.912 345.415 409.504C345.415 418.097 352.403 425.089 360.993 425.089C369.582 425.089 376.57 418.098 376.57 409.504C376.57 400.912 369.582 393.921 360.993 393.921Z" fill="#07074E"/>
<path d="M339.48 359.219C320.828 359.219 305.654 344.038 305.654 325.378C305.654 306.718 320.828 291.537 339.48 291.537C358.133 291.537 373.308 306.718 373.308 325.378C373.308 344.038 358.133 359.219 339.48 359.219ZM339.48 309.794C330.892 309.794 323.903 316.785 323.903 325.378C323.903 333.972 330.892 340.963 339.48 340.963C348.071 340.963 355.059 333.972 355.059 325.378C355.059 316.785 348.071 309.794 339.48 309.794Z" fill="#07074E"/>
<path d="M543.411 283.225C524.758 283.225 509.584 268.044 509.584 249.384C509.584 230.724 524.758 215.543 543.411 215.543C562.063 215.543 577.238 230.724 577.238 249.384C577.238 268.044 562.063 283.225 543.411 283.225ZM543.411 233.8C534.822 233.8 527.834 240.791 527.834 249.384C527.834 257.978 534.822 264.969 543.411 264.969C552.001 264.969 558.989 257.978 558.989 249.384C558.989 240.791 552.001 233.8 543.411 233.8Z" fill="#07074E"/>
<path d="M471.288 278.658C452.636 278.658 437.462 263.477 437.462 244.817C437.462 226.157 452.635 210.977 471.288 210.977C489.94 210.977 505.115 226.157 505.115 244.817C505.115 263.477 489.94 278.658 471.288 278.658ZM471.288 229.233C462.699 229.233 455.711 236.224 455.711 244.817C455.711 253.41 462.699 260.401 471.288 260.401C479.878 260.401 486.866 253.41 486.866 244.817C486.866 236.224 479.878 229.233 471.288 229.233Z" fill="#07074E"/>
<path d="M424.79 401.61C406.137 401.61 390.963 386.43 390.963 367.77C390.963 349.11 406.137 333.929 424.79 333.929C443.442 333.929 458.617 349.11 458.617 367.77C458.617 386.43 443.442 401.61 424.79 401.61ZM424.79 352.185C416.201 352.185 409.212 359.176 409.212 367.77C409.212 376.362 416.201 383.353 424.79 383.353C433.38 383.353 440.368 376.362 440.368 367.77C440.368 359.176 433.38 352.185 424.79 352.185Z" fill="#07074E"/>
<path d="M502.306 133.363C483.654 133.363 468.48 118.182 468.48 99.5216C468.48 80.8616 483.654 65.6816 502.306 65.6816C520.959 65.6816 536.134 80.8616 536.134 99.5216C536.134 118.182 520.959 133.363 502.306 133.363ZM502.306 83.9382C493.718 83.9382 486.73 90.9292 486.73 99.5216C486.73 108.115 493.718 115.106 502.306 115.106C510.897 115.106 517.885 108.115 517.885 99.5216C517.885 90.9294 510.897 83.9382 502.306 83.9382Z" fill="#07074E"/>
<path d="M529.68 199.543C511.028 199.543 495.854 184.362 495.854 165.702C495.854 147.042 511.027 131.862 529.68 131.862C548.333 131.862 563.507 147.042 563.507 165.702C563.507 184.362 548.332 199.543 529.68 199.543ZM529.68 150.119C521.091 150.119 514.103 157.11 514.103 165.702C514.103 174.296 521.091 181.287 529.68 181.287C538.27 181.287 545.258 174.296 545.258 165.702C545.258 157.11 538.27 150.119 529.68 150.119Z" fill="#07074E"/>
<path d="M429.843 465.856C411.191 465.856 396.017 450.675 396.017 432.015C396.017 413.355 411.191 398.175 429.843 398.175C448.496 398.175 463.671 413.355 463.671 432.015C463.671 450.675 448.496 465.856 429.843 465.856ZM429.843 416.431C421.255 416.431 414.266 423.422 414.266 432.015C414.266 440.608 421.255 447.599 429.843 447.599C438.433 447.599 445.421 440.608 445.421 432.015C445.421 423.422 438.433 416.431 429.843 416.431Z" fill="#07074E"/>
<path d="M490.482 336.946C471.829 336.946 456.656 321.765 456.656 303.105C456.656 284.445 471.829 269.265 490.482 269.265C509.134 269.265 524.309 284.445 524.309 303.105C524.309 321.765 509.134 336.946 490.482 336.946ZM490.482 287.521C481.893 287.521 474.905 294.512 474.905 303.105C474.905 311.698 481.893 318.689 490.482 318.689C499.072 318.689 506.06 311.698 506.06 303.105C506.06 294.512 499.072 287.521 490.482 287.521Z" fill="#07074E"/>
<path d="M530.279 457.774C511.627 457.774 496.452 442.593 496.452 423.933C496.452 405.273 511.627 390.093 530.279 390.093C548.932 390.093 564.106 405.273 564.106 423.933C564.106 442.593 548.932 457.774 530.279 457.774ZM530.279 408.349C521.689 408.349 514.701 415.34 514.701 423.933C514.701 432.526 521.689 439.517 530.279 439.517C538.868 439.517 545.857 432.526 545.857 423.933C545.856 415.34 538.868 408.349 530.279 408.349Z" fill="#07074E"/>
<path d="M465.379 67.6812C446.727 67.6812 431.552 52.5012 431.552 33.8412C431.552 15.1812 446.727 0 465.379 0C484.032 0 499.205 15.1812 499.205 33.8412C499.205 52.5012 484.032 67.6812 465.379 67.6812ZM465.379 18.2566C456.789 18.2566 449.801 25.2476 449.801 33.8412C449.801 42.4336 456.789 49.4246 465.379 49.4246C473.968 49.4246 480.956 42.4336 480.956 33.8412C480.956 25.2477 473.968 18.2566 465.379 18.2566Z" fill="#07074E"/>
<path d="M403.36 126.289C384.707 126.289 369.532 111.107 369.532 92.4474C369.532 73.7874 384.707 58.6074 403.36 58.6074C422.012 58.6074 437.186 73.7874 437.186 92.4474C437.186 111.107 422.012 126.289 403.36 126.289ZM403.36 76.864C394.769 76.864 387.781 83.855 387.781 92.4474C387.781 101.041 394.769 108.032 403.36 108.032C411.948 108.032 418.937 101.041 418.937 92.4474C418.937 83.855 411.948 76.864 403.36 76.864Z" fill="#07074E"/>
<path d="M387.662 268.398C369.01 268.398 353.834 253.218 353.834 234.558C353.834 215.898 369.009 200.717 387.662 200.717C406.314 200.717 421.488 215.898 421.488 234.558C421.488 253.218 406.314 268.398 387.662 268.398ZM387.662 218.973C379.072 218.973 372.084 225.965 372.084 234.558C372.084 243.15 379.072 250.141 387.662 250.141C396.251 250.141 403.239 243.15 403.239 234.558C403.239 225.964 396.251 218.973 387.662 218.973Z" fill="#07074E"/>
<path d="M362.051 187.86C343.399 187.86 328.225 172.68 328.225 154.02C328.225 135.36 343.399 120.179 362.051 120.179C380.704 120.179 395.879 135.36 395.879 154.02C395.879 172.68 380.704 187.86 362.051 187.86ZM362.051 138.435C353.463 138.435 346.474 145.426 346.474 154.02C346.474 162.612 353.463 169.603 362.051 169.603C370.641 169.603 377.629 162.612 377.629 154.02C377.63 145.426 370.641 138.435 362.051 138.435Z" fill="#07074E"/>
<path d="M490.482 397.61C471.829 397.61 456.656 382.429 456.656 363.769C456.656 345.109 471.829 329.929 490.482 329.929C509.134 329.929 524.309 345.109 524.309 363.769C524.309 382.429 509.134 397.61 490.482 397.61ZM490.482 348.185C481.893 348.185 474.905 355.176 474.905 363.769C474.905 372.362 481.893 379.353 490.482 379.353C499.072 379.353 506.06 372.362 506.06 363.769C506.06 355.176 499.072 348.185 490.482 348.185Z" fill="#07074E"/>
<path d="M556.174 357.168C537.522 357.168 522.347 341.986 522.347 323.326C522.347 304.666 537.522 289.486 556.174 289.486C574.827 289.486 590 304.666 590 323.326C590 341.986 574.827 357.168 556.174 357.168ZM556.174 307.743C547.584 307.743 540.596 314.734 540.596 323.326C540.596 331.92 547.584 338.911 556.174 338.911C564.763 338.911 571.751 331.92 571.751 323.326C571.751 314.734 564.763 307.743 556.174 307.743Z" fill="#07074E"/>
<path d="M426.242 173.997C425.208 173.997 424.155 173.82 423.125 173.445C418.389 171.723 415.946 166.484 417.668 161.746L456.444 55.0737C458.166 50.3368 463.396 47.8887 468.139 49.6148C472.875 51.3376 475.317 56.5758 473.595 61.3138L434.819 167.986C433.471 171.694 429.97 173.997 426.242 173.997Z" fill="#07074E"/>
<path d="M446.589 120.658C444.129 120.658 441.717 119.663 439.958 117.802L421.893 98.6971C418.43 95.0344 418.59 89.2567 422.251 85.7925C425.911 82.3281 431.687 82.4864 435.15 86.1513L448.912 100.705L472.959 90.8258C477.621 88.9137 482.951 91.1378 484.866 95.8023C486.781 100.466 484.553 105.799 479.892 107.714L450.053 119.973C448.932 120.435 447.754 120.658 446.589 120.658Z" fill="#07074E"/>
</svg>
