<svg width="417" height="1180" viewBox="0 0 417 1180" fill="none" xmlns="http://www.w3.org/2000/svg">
<path d="M194.366 777.576C194.366 777.576 6.25964 712.663 12.3765 642.314C12.3765 642.314 33.7873 654.549 79.6667 669.842C125.547 685.135 194.366 777.576 194.366 777.576Z" fill="#B5D9B7"/>
<path d="M194.365 789.813C193.032 789.813 191.685 789.595 190.376 789.142C170.197 782.179 -6.56176 718.874 0.188394 641.255C0.550092 637.099 3.00394 633.413 6.70014 631.477C10.3996 629.543 14.8279 629.625 18.4462 631.692C18.6376 631.801 39.6655 643.613 83.5366 658.236C132.5 674.558 201.277 766.369 204.18 770.27C207.385 774.576 207.41 780.468 204.241 784.8C201.891 788.013 198.189 789.813 194.365 789.813ZM30.1373 664.281C47.8368 694.786 103.944 726.968 155.591 749.323C131.084 721.299 98.797 689.116 75.7972 681.45C56.4139 674.988 41.2696 669.049 30.1373 664.281Z" fill="#07074E"/>
<path d="M266.244 749.367C235.657 761.602 197.425 816.658 197.425 816.658L200.483 830.421C257.068 835.009 336.593 734.074 336.593 734.074C336.593 734.074 296.83 737.133 266.244 749.367Z" fill="#B5D9B7"/>
<path d="M204.252 842.807C202.644 842.807 201.061 842.743 199.494 842.616C194.146 842.183 189.704 838.315 188.54 833.076L185.481 819.312C184.74 815.977 185.427 812.485 187.375 809.679C191.503 803.734 228.657 751.225 261.701 738.008C293.658 725.225 333.956 722.007 335.655 721.876C340.505 721.495 345.099 724.029 347.388 728.315C349.673 732.6 349.209 737.832 346.203 741.646C345.366 742.708 325.39 767.951 298.016 792.995C261.862 826.071 230.348 842.807 204.252 842.807ZM305.881 750.848C294.621 753.07 281.967 756.256 270.787 760.727C251.07 768.614 224.565 800.439 211.75 817.702C241.997 812.609 280.29 778.225 305.881 750.848Z" fill="#07074E"/>
<path d="M94.9601 841.128C70.491 850.303 98.0188 948.18 194.366 940.533V913.006C194.366 913.006 119.429 831.951 94.9601 841.128Z" fill="#B5D9B7"/>
<path d="M183.838 953.192C149.177 953.192 125.533 940.22 111.363 928.689C93.495 914.148 80.5928 893.886 75.9656 873.102C71.1626 851.515 76.7947 834.873 90.6647 829.673C100.982 825.803 118.397 826.26 161.907 864.429C183.928 883.744 202.566 903.854 203.349 904.701C205.44 906.962 206.601 909.926 206.601 913.006V940.534C206.601 946.915 201.696 952.225 195.334 952.729C191.376 953.044 187.542 953.192 183.838 953.192ZM99.7047 852.587C98.0529 855.882 97.6738 868.376 106.097 884.431C111.693 895.098 132.953 927.947 182.131 928.708V917.828C148.435 882.052 111.32 852.584 99.9137 852.584C99.8437 852.584 99.7734 852.586 99.7047 852.587Z" fill="#07074E"/>
<path d="M197.429 1045.7C190.673 1045.7 185.195 1040.22 185.195 1033.47V657.202L132.696 578.454C132.349 577.934 132.043 577.389 131.78 576.823L70.101 444.071C69.6009 442.994 69.2602 441.852 69.0886 440.678L52.6917 327.987C51.7196 321.3 56.3504 315.091 63.0371 314.118C69.7261 313.139 75.9316 317.778 76.9066 324.463L93.0452 435.384L153.576 565.663L207.608 646.712C208.948 648.722 209.664 651.084 209.664 653.499V1033.47C209.664 1040.22 204.186 1045.7 197.429 1045.7Z" fill="#07074E"/>
<path d="M197.427 665.732C195.598 665.732 193.76 665.323 192.054 664.488C187.856 662.435 185.195 658.171 185.195 653.498V220.967C185.195 214.211 190.673 208.732 197.429 208.732C204.186 208.732 209.664 214.211 209.664 220.967V628.482L327.693 536.679L358.98 463.179C361.628 456.965 368.804 454.066 375.031 456.715C381.247 459.362 384.142 466.547 381.496 472.764L348.967 549.183C348.151 551.096 346.862 552.77 345.22 554.047L204.94 663.154C202.752 664.859 200.099 665.732 197.427 665.732Z" fill="#07074E"/>
<path d="M260.917 611.257C260.791 611.257 260.667 611.255 260.54 611.251C253.787 611.048 248.476 605.408 248.681 598.653L252.068 486.199C252.271 479.445 257.902 474.13 264.666 474.339C271.419 474.542 276.73 480.181 276.525 486.936L273.138 599.391C272.939 606.019 267.501 611.257 260.917 611.257Z" fill="#07074E"/>
<path d="M197.429 282.925C194.056 282.925 190.698 281.538 188.28 278.818L114.873 196.235C110.383 191.186 110.839 183.452 115.89 178.963C120.936 174.474 128.671 174.931 133.162 179.98L206.569 262.563C211.059 267.613 210.603 275.346 205.552 279.835C203.222 281.907 200.321 282.925 197.429 282.925Z" fill="#07074E"/>
<path d="M197.425 1179.45C190.668 1179.45 185.19 1173.98 185.19 1167.22V1093.81C185.19 1087.06 190.668 1081.58 197.425 1081.58C204.181 1081.58 209.659 1087.06 209.659 1093.81V1167.22C209.659 1173.98 204.181 1179.45 197.425 1179.45Z" fill="#07074E"/>
<path d="M197.436 365.849C193.918 365.849 190.426 364.339 188.007 361.418C183.696 356.214 184.421 348.502 189.625 344.192L308.881 245.424C314.086 241.111 321.798 241.842 326.107 247.043C330.417 252.246 329.693 259.958 324.488 264.269L205.232 363.037C202.95 364.927 200.185 365.849 197.436 365.849Z" fill="#07074E"/>
<path d="M181.246 437.781C199.539 437.781 214.368 422.951 214.368 404.659C214.368 386.366 199.539 371.537 181.246 371.537C162.954 371.537 148.125 386.366 148.125 404.659C148.125 422.951 162.954 437.781 181.246 437.781Z" fill="#F7B38E"/>
<path d="M45.7317 353.162C64.0243 353.162 78.8535 338.333 78.8535 320.041C78.8535 301.748 64.0243 286.919 45.7317 286.919C27.4391 286.919 12.6099 301.748 12.6099 320.041C12.6099 338.333 27.4391 353.162 45.7317 353.162Z" fill="#FFE4A1"/>
<path d="M236.668 268.568C254.961 268.568 269.79 253.739 269.79 235.446C269.79 217.153 254.961 202.324 236.668 202.324C218.376 202.324 203.546 217.153 203.546 235.446C203.546 253.739 218.376 268.568 236.668 268.568Z" fill="#FFE4A1"/>
<path d="M109.939 581.977C128.232 581.977 143.061 567.148 143.061 548.855C143.061 530.563 128.232 515.733 109.939 515.733C91.6463 515.733 76.8171 530.563 76.8171 548.855C76.8171 567.148 91.6463 581.977 109.939 581.977Z" fill="#F7B38E"/>
<path d="M81.095 469.223C99.3876 469.223 114.217 454.394 114.217 436.101C114.217 417.809 99.3876 402.979 81.095 402.979C62.8024 402.979 47.9731 417.809 47.9731 436.101C47.9731 454.394 62.8024 469.223 81.095 469.223Z" fill="#FFE4A1"/>
<path d="M354.531 367.371C372.824 367.371 387.653 352.542 387.653 334.25C387.653 315.957 372.824 301.128 354.531 301.128C336.239 301.128 321.41 315.957 321.41 334.25C321.41 352.542 336.239 367.371 354.531 367.371Z" fill="#F7B38E"/>
<path d="M257.827 361.249C276.12 361.249 290.949 346.42 290.949 328.128C290.949 309.835 276.12 295.006 257.827 295.006C239.535 295.006 224.706 309.835 224.706 328.128C224.706 346.42 239.535 361.249 257.827 361.249Z" fill="#FFE4A1"/>
<path d="M195.481 526.04C213.774 526.04 228.603 511.211 228.603 492.919C228.603 474.626 213.774 459.797 195.481 459.797C177.188 459.797 162.359 474.626 162.359 492.919C162.359 511.211 177.188 526.04 195.481 526.04Z" fill="#FFE4A1"/>
<path d="M299.418 166.511C317.71 166.511 332.54 151.682 332.54 133.389C332.54 115.097 317.71 100.268 299.418 100.268C281.125 100.268 266.296 115.097 266.296 133.389C266.296 151.682 281.125 166.511 299.418 166.511Z" fill="#F7B38E"/>
<path d="M336.121 255.212C354.414 255.212 369.243 240.383 369.243 222.09C369.243 203.798 354.414 188.969 336.121 188.969C317.829 188.969 303 203.798 303 222.09C303 240.383 317.829 255.212 336.121 255.212Z" fill="#FFE4A1"/>
<path d="M202.256 612.148C220.549 612.148 235.378 597.319 235.378 579.026C235.378 560.733 220.549 545.904 202.256 545.904C183.963 545.904 169.134 560.733 169.134 579.026C169.134 597.319 183.963 612.148 202.256 612.148Z" fill="#FFE4A1"/>
<path d="M283.563 439.371C301.856 439.371 316.685 424.542 316.685 406.25C316.685 387.957 301.856 373.128 283.563 373.128C265.27 373.128 250.441 387.957 250.441 406.25C250.441 424.542 265.27 439.371 283.563 439.371Z" fill="#FFE4A1"/>
<path d="M336.924 601.316C355.216 601.316 370.046 586.487 370.046 568.194C370.046 549.901 355.216 535.072 336.924 535.072C318.631 535.072 303.802 549.901 303.802 568.194C303.802 586.487 318.631 601.316 336.924 601.316Z" fill="#FFE4A1"/>
<path d="M249.904 78.4788C268.196 78.4788 283.025 63.6497 283.025 45.3571C283.025 27.0644 268.196 12.2354 249.904 12.2354C231.611 12.2354 216.782 27.0644 216.782 45.3571C216.782 63.6497 231.611 78.4788 249.904 78.4788Z" fill="#FFE4A1"/>
<path d="M166.745 157.03C185.038 157.03 199.867 142.2 199.867 123.908C199.867 105.615 185.038 90.7861 166.745 90.7861C148.453 90.7861 133.623 105.615 133.623 123.908C133.623 142.2 148.453 157.03 166.745 157.03Z" fill="#FFE4A1"/>
<path d="M145.698 347.497C163.99 347.497 178.82 332.668 178.82 314.376C178.82 296.083 163.99 281.254 145.698 281.254C127.405 281.254 112.576 296.083 112.576 314.376C112.576 332.668 127.405 347.497 145.698 347.497Z" fill="#FFE4A1"/>
<path d="M111.359 239.554C129.652 239.554 144.481 224.725 144.481 206.432C144.481 188.14 129.652 173.311 111.359 173.311C93.0665 173.311 78.2373 188.14 78.2373 206.432C78.2373 224.725 93.0665 239.554 111.359 239.554Z" fill="#F7B38E"/>
<path d="M283.563 520.678C301.856 520.678 316.685 505.849 316.685 487.556C316.685 469.264 301.856 454.435 283.563 454.435C265.27 454.435 250.441 469.264 250.441 487.556C250.441 505.849 265.27 520.678 283.563 520.678Z" fill="#F7B38E"/>
<path d="M371.644 466.474C389.937 466.474 404.766 451.645 404.766 433.352C404.766 415.06 389.937 400.23 371.644 400.23C353.352 400.23 338.522 415.06 338.522 433.352C338.522 451.645 353.352 466.474 371.644 466.474Z" fill="#FFE4A1"/>
<path d="M181.246 450.014C156.236 450.014 135.89 429.667 135.89 404.657C135.89 379.647 156.236 359.302 181.246 359.302C206.256 359.302 226.603 379.647 226.603 404.657C226.603 429.667 206.256 450.014 181.246 450.014ZM181.246 383.771C169.73 383.771 160.36 393.141 160.36 404.657C160.36 416.175 169.73 425.545 181.246 425.545C192.763 425.545 202.133 416.175 202.133 404.657C202.133 393.141 192.763 383.771 181.246 383.771Z" fill="#07074E"/>
<path d="M45.7321 365.396C20.7223 365.396 0.375 345.049 0.375 320.039C0.375 295.029 20.7221 274.684 45.7321 274.684C70.7421 274.684 91.0877 295.029 91.0877 320.039C91.0877 345.049 70.7419 365.396 45.7321 365.396ZM45.7321 299.153C34.2144 299.153 24.8445 308.523 24.8445 320.039C24.8445 331.557 34.2146 340.927 45.7321 340.927C57.2482 340.927 66.6182 331.557 66.6182 320.039C66.6182 308.523 57.2482 299.153 45.7321 299.153Z" fill="#07074E"/>
<path d="M236.669 280.801C211.659 280.801 191.312 260.454 191.312 235.444C191.312 210.434 211.659 190.089 236.669 190.089C261.678 190.089 282.024 210.434 282.024 235.444C282.024 260.454 261.678 280.801 236.669 280.801ZM236.669 214.558C225.151 214.558 215.781 223.928 215.781 235.444C215.781 246.962 225.151 256.332 236.669 256.332C248.185 256.332 257.555 246.962 257.555 235.444C257.555 223.928 248.185 214.558 236.669 214.558Z" fill="#07074E"/>
<path d="M109.94 594.21C84.93 594.21 64.5828 573.863 64.5828 548.853C64.5828 523.844 84.9298 503.498 109.94 503.498C134.949 503.498 155.295 523.844 155.295 548.853C155.295 573.863 134.949 594.21 109.94 594.21ZM109.94 527.967C98.4218 527.967 89.0518 537.337 89.0518 548.853C89.0518 560.371 98.4218 569.741 109.94 569.741C121.456 569.741 130.826 560.371 130.826 548.853C130.826 537.337 121.456 527.967 109.94 527.967Z" fill="#07074E"/>
<path d="M81.0944 481.458C56.085 481.458 35.7393 461.111 35.7393 436.101C35.7393 411.091 56.085 390.744 81.0944 390.744C106.104 390.744 126.451 411.091 126.451 436.101C126.451 461.111 106.104 481.458 81.0944 481.458ZM81.0944 415.213C69.5783 415.213 60.2083 424.583 60.2083 436.101C60.2083 447.619 69.5783 456.989 81.0944 456.989C92.6125 456.989 101.982 447.619 101.982 436.101C101.982 424.583 92.6125 415.213 81.0944 415.213Z" fill="#07074E"/>
<path d="M354.531 379.605C329.521 379.605 309.176 359.257 309.176 334.248C309.176 309.238 329.521 288.891 354.531 288.891C379.541 288.891 399.888 309.238 399.888 334.248C399.888 359.257 379.541 379.605 354.531 379.605ZM354.531 313.36C343.015 313.36 333.645 322.73 333.645 334.248C333.645 345.765 343.015 355.136 354.531 355.136C366.049 355.136 375.419 345.765 375.419 334.248C375.419 322.73 366.049 313.36 354.531 313.36Z" fill="#07074E"/>
<path d="M257.827 373.483C232.817 373.483 212.472 353.136 212.472 328.126C212.472 303.116 232.817 282.771 257.827 282.771C282.837 282.771 303.184 303.116 303.184 328.126C303.184 353.136 282.837 373.483 257.827 373.483ZM257.827 307.24C246.311 307.24 236.941 316.61 236.941 328.126C236.941 339.644 246.311 349.014 257.827 349.014C269.345 349.014 278.715 339.644 278.715 328.126C278.715 316.61 269.344 307.24 257.827 307.24Z" fill="#07074E"/>
<path d="M195.48 538.274C170.471 538.274 150.125 517.928 150.125 492.918C150.125 467.909 170.471 447.562 195.48 447.562C220.49 447.562 240.837 467.909 240.837 492.918C240.837 517.928 220.49 538.274 195.48 538.274ZM195.48 472.031C183.964 472.031 174.594 481.401 174.594 492.919C174.594 504.435 183.964 513.805 195.48 513.805C206.998 513.805 216.368 504.435 216.368 492.919C216.368 481.401 206.998 472.031 195.48 472.031Z" fill="#07074E"/>
<path d="M299.417 178.745C274.408 178.745 254.062 158.397 254.062 133.388C254.062 108.378 274.408 88.0322 299.417 88.0322C324.427 88.0322 344.774 108.378 344.774 133.388C344.774 158.397 324.427 178.745 299.417 178.745ZM299.417 112.501C287.901 112.501 278.531 121.871 278.531 133.388C278.531 144.905 287.901 154.275 299.417 154.275C310.935 154.275 320.305 144.905 320.305 133.388C320.305 121.872 310.935 112.501 299.417 112.501Z" fill="#07074E"/>
<path d="M336.121 267.446C311.111 267.446 290.766 247.099 290.766 222.089C290.766 197.079 311.111 176.733 336.121 176.733C361.131 176.733 381.478 197.079 381.478 222.089C381.478 247.099 361.131 267.446 336.121 267.446ZM336.121 201.202C324.605 201.202 315.235 210.573 315.235 222.089C315.235 233.606 324.605 242.977 336.121 242.977C347.638 242.977 357.009 233.607 357.009 222.089C357.009 210.573 347.638 201.202 336.121 201.202Z" fill="#07074E"/>
<path d="M202.256 624.381C177.246 624.381 156.9 604.034 156.9 579.024C156.9 554.015 177.246 533.669 202.256 533.669C227.266 533.669 247.613 554.015 247.613 579.024C247.613 604.034 227.266 624.381 202.256 624.381ZM202.256 558.138C190.74 558.138 181.369 567.508 181.369 579.024C181.369 590.542 190.74 599.912 202.256 599.912C213.774 599.912 223.144 590.542 223.144 579.024C223.144 567.508 213.773 558.138 202.256 558.138Z" fill="#07074E"/>
<path d="M283.562 451.605C258.553 451.605 238.207 431.258 238.207 406.248C238.207 381.238 258.552 360.893 283.562 360.893C308.572 360.893 328.92 381.238 328.92 406.248C328.92 431.258 308.572 451.605 283.562 451.605ZM283.562 385.362C272.046 385.362 262.676 394.732 262.676 406.248C262.676 417.766 272.046 427.136 283.562 427.136C295.08 427.136 304.45 417.766 304.45 406.248C304.45 394.732 295.08 385.362 283.562 385.362Z" fill="#07074E"/>
<path d="M336.924 613.55C311.915 613.55 291.568 593.203 291.568 568.193C291.568 543.183 311.915 522.838 336.924 522.838C361.934 522.838 382.28 543.184 382.28 568.193C382.28 593.203 361.934 613.55 336.924 613.55ZM336.924 547.307C325.407 547.307 316.037 556.677 316.037 568.193C316.037 579.711 325.407 589.081 336.924 589.081C348.44 589.081 357.811 579.711 357.811 568.193C357.811 556.677 348.44 547.307 336.924 547.307Z" fill="#07074E"/>
<path d="M249.904 90.7123C224.894 90.7123 204.547 70.3668 204.547 45.3569C204.547 20.3471 224.894 0 249.904 0C274.914 0 295.259 20.3471 295.259 45.3569C295.259 70.3668 274.914 90.7123 249.904 90.7123ZM249.904 24.4691C238.386 24.4691 229.016 33.8391 229.016 45.3569C229.016 56.8732 238.386 66.2432 249.904 66.2432C261.42 66.2432 270.79 56.8732 270.79 45.3569C270.79 33.8393 261.42 24.4691 249.904 24.4691Z" fill="#07074E"/>
<path d="M166.746 169.263C141.736 169.263 121.389 148.916 121.389 123.906C121.389 98.8964 141.736 78.5508 166.746 78.5508C191.755 78.5508 212.101 98.8964 212.101 123.906C212.101 148.916 191.755 169.263 166.746 169.263ZM166.746 103.02C155.228 103.02 145.858 112.39 145.858 123.906C145.858 135.424 155.228 144.794 166.746 144.794C178.262 144.794 187.632 135.424 187.632 123.906C187.632 112.39 178.262 103.02 166.746 103.02Z" fill="#07074E"/>
<path d="M145.698 359.731C120.688 359.731 100.341 339.385 100.341 314.375C100.341 289.366 120.688 269.019 145.698 269.019C170.708 269.019 191.053 289.366 191.053 314.375C191.053 339.385 170.708 359.731 145.698 359.731ZM145.698 293.488C134.18 293.488 124.81 302.858 124.81 314.375C124.81 325.892 134.18 335.262 145.698 335.262C157.214 335.262 166.584 325.892 166.584 314.375C166.584 302.858 157.214 293.488 145.698 293.488Z" fill="#07074E"/>
<path d="M111.359 251.788C86.3488 251.788 66.0029 231.442 66.0029 206.432C66.0029 181.422 86.3488 161.075 111.359 161.075C136.368 161.075 156.716 181.422 156.716 206.432C156.716 231.442 136.369 251.788 111.359 251.788ZM111.359 185.544C99.8425 185.544 90.472 194.914 90.472 206.432C90.472 217.948 99.8423 227.318 111.359 227.318C122.876 227.318 132.246 217.948 132.246 206.432C132.246 194.914 122.876 185.544 111.359 185.544Z" fill="#07074E"/>
<path d="M283.562 532.912C258.553 532.912 238.207 512.564 238.207 487.555C238.207 462.545 258.552 442.199 283.562 442.199C308.572 442.199 328.92 462.545 328.92 487.555C328.919 512.564 308.572 532.912 283.562 532.912ZM283.562 466.668C272.046 466.668 262.676 476.038 262.676 487.555C262.676 499.072 272.046 508.442 283.562 508.442C295.08 508.442 304.45 499.072 304.45 487.555C304.45 476.038 295.08 466.668 283.562 466.668Z" fill="#07074E"/>
<path d="M371.645 478.707C346.635 478.707 326.288 458.36 326.288 433.351C326.288 408.341 346.635 387.995 371.645 387.995C396.655 387.995 417 408.341 417 433.351C417 458.36 396.655 478.707 371.645 478.707ZM371.645 412.464C360.127 412.464 350.757 421.834 350.757 433.351C350.757 444.868 360.127 454.238 371.645 454.238C383.161 454.238 392.531 444.868 392.531 433.351C392.531 421.834 383.161 412.464 371.645 412.464Z" fill="#07074E"/>
<path d="M197.428 233.206C196.04 233.206 194.629 232.969 193.247 232.467C186.897 230.158 183.622 223.137 185.931 216.787L237.923 73.8149C240.232 67.466 247.244 64.1849 253.604 66.4984C259.954 68.8074 263.229 75.8282 260.92 82.1784L208.928 225.151C207.12 230.119 202.426 233.206 197.428 233.206Z" fill="#07074E"/>
<path d="M224.709 161.716C221.411 161.716 218.177 160.382 215.819 157.888L191.596 132.282C186.952 127.373 187.167 119.629 192.075 114.986C196.984 110.343 204.728 110.555 209.371 115.467L227.824 134.973L260.067 121.732C266.318 119.169 273.465 122.15 276.033 128.402C278.6 134.652 275.613 141.8 269.363 144.367L229.354 160.799C227.85 161.417 226.271 161.716 224.709 161.716Z" fill="#07074E"/>
</svg>
