<svg xmlns="http://www.w3.org/2000/svg" viewBox="0 0 1242.1333 377.94666" height="377.947" width="1242.133"><defs><clipPath id="a"><path d="M0 2834.65V0h9316v2834.65z"></path></clipPath></defs><g clip-path="url(#a)" fill="#fff" transform="matrix(.13333 0 0 -.13333 0 377.947)"><path d="M8326.8 2131.16c12.52 27.07 24.1 48.62 40.81 74.31 7.35 11.32 15.68 19.21 23.1 30.67-3.56 1.02-8.73-1.91-10.96-3.5-7.44-5.38-10.78-14.13-16.72-18.8-14.03-11.08-13.63-21.11-20.99-26.28-6.57-4.64-8.46-7.69-13.06-14.9-3.07-4.83-5.35-8.73-8.6-18.23-1.14-3.43-3.45-.4-8.92-7.94-7.19-9.8-10.41-20.38-13.38-32.26-.97-3.9-7.59-5.96-11.86-14.07-5.72-10.92-9.44-21.03-11.91-36.95-.61-3.69-6.85-6.25-11.16-16.53-3.05-7.23-5.23-8.82-7.9-22.45-1.64-8.31-5.43-9.51-9.69-21.57-3.3-9.19-3.43-18.06-4.58-30.08-.27-2.33-4.21-6.94-7.85-13.68-6.09-11.27-5.88-18.79-8.31-30.41-.92-4.21-5.63-9.77-10.17-27.79-4-15.98-.33-26.59-1.68-34.46-3.53-20.45-7.05-38.2-5.14-58.35.93-9.85 2.43-20.01 1.77-29.48-1.87-29.71-3.48-54.16-3.32-87.83.12-18.32 1.55-43.4 4.31-64.29 3.05-23.06 7.46-41.06 7.46-41.06h75.13s-2.94 43.44.96 89.19c2.3 27.41 8.83 56.47 14.76 76.88 7.5 26.04 12.16 39.51 26.36 73.85.3.76-.09 3.98-3.84.84-7.85-6.59-14.38-12.38-20.58-21.7-9.45-14.26-15.21-26-22.86-40.63-8.96-17.02-13.9-31.84-23.12-52.52-.55 14.93 1.89 29.13 4.89 42.88 3.12 14.04 5.59 25.15 9.99 37.24 7.83 21.36 15.43 39.18 27.98 59.04 7.29 11.47 16.6 21.76 26.02 30.32 11.29 10.33 21.73 19.39 33.55 29.5-12.41 6.4-28.95-6.96-32.26-7.65-17.47-3.41-24.59-19.61-29.94-21.83-7.65-3.19-12.06-7.87-17.38-14.32-4.09-4.86-5.3-12.32-9.58-14.98-7.14-4.45-12.37-11.15-17.28-20.51-2-3.86-7.48-22.13-13.58-19.78 10.41 61.93 32.28 120.02 67.37 171.7 22.25 32.77 46.45 60.88 82.12 86.1 4.69 3.33 5.62 4.89-.94 4.66-33.36-4.06-35.39-19.28-40.88-20.71-5.2-1.35-11.64-7.52-15.77-11.53-7.41-7.33-7.28-13.5-10.13-15.43-6.07-4.25-10.65-8.66-14.8-16.02-2.18-3.85-5.86-12.3-9.12-14.24-8.55-4.96-16.86-12.19-20.98-19.98-3.06-5.71-4.27-11.9-8.26-17.5-4.27-6.02-10.24-10.53-15.35-14.89 3.89 26.47 16.35 57.83 24.94 84.88 11.55 36.12 25.55 68.95 41.33 103.07M8403.52 1916.65c28.44 63.87 58.36 111.92 97.25 168.12 5.09 7.37 9.64 14.58 14.08 21.49 2.01 3.11 11.57 16.85 13.56 19.77 13.04 19.68 18.51 25.7 31.87 44.52 3.62 5.12 6.54 9.13 8.07 15.04 2.85 11.01-6.61 18.39-8.78 28.96-2.21 10.79-1.01 22.57 3.96 31.68 3.1 5.7 6.18 7.93 9.3 15.58 6.07 14.73 3.97 46.59 10.88 47.42-1.75-15.12-2.16-32.12.23-46.62 2.76-16.93 13.03-27.19 17.27-45.12 11.42 2.06 23.83 1.57 33.45.74 9.54-.82 21.6 1.83 31.39 5.18 13.27 4.53 24.28 12.78 37.8 15.98-11.51-11.05-27.73-15.2-41.33-23.59-4.99-3.14-9.71-7.28-13.05-12.45-5.48-8.51-9.78-16.64-18.34-20.37-15.2-6.63-28.24-3.49-45.58-6.71-25.76-26.54-50-62.63-72.38-100.59-56.73-95.96-104.02-195.36-131.54-297.29 9.52 17.73 18.6 34.89 28.91 51.76 11.37 18.75 24.17 37.09 38.13 55.47 32.66 43.05 64.97 80.64 101.16 120.19 29.22 31.96 61.25 58.76 96.97 81.18 47.18 29.57 105.42 50.28 156.56 39.6 5.82-1.36 14.14-2.91 17.78-6.73-64.12 8.97-121.55-13.43-164.4-47.75-33.87-27.08-62.39-54.56-91.4-90.27-14.98-17.21-28.45-36.13-41.83-54.45-14.02-19.27-26.44-39.55-38.77-59.83-41.55-68.6-72.99-141.25-96.11-216.51-.66-2.39-.81-4.79-1.48-7.15 1.11 1.68 2.74 3.51 3.82 5.24 31.13 50.61 68.56 99.45 115.96 132.22 4.13 2.83 8.46 8.26 9.56 12.54 5.14 20.09-10.17 29.74 11.01 57.52 4.86 6.38 11.5 8.71 16.09 14.63 8.68 13.4 15.75 37.41 23.01 43.86-3.65-15.64-12.63-32.14-14.53-48.26-2.03-17.67 2.49-32.15 3.27-50.88 12.53-1.71 22.21-7.01 32.03-10.04 15.29-4.76 24.47-3.55 39.56-2.25 6.47.54 18.17 4.31 25.12 2.9-14.61-7.99-34.34-6.52-49.29-14.14-10.46-5.37-13.48-13.28-27.92-16.06-12.83-2.5-23.63-1.16-31.98 3.13-6.48 3.26-11.55 4.63-17.39 1.84-15.55-7.47-26.17-18.01-38.69-30.65-29.08-29.26-52.82-61.92-74.97-104.75a556.415 556.415 0 0 1-16.13-34.24c-2.47-5.66-8.59-21.34-8.59-21.34h-75.98s-.2 21.9.52 29.91c1.46 15.94 3.61 27.75 6.71 43.93 4.41 23.27 8.73 44.37 14.76 66.94 5.88 21.96 12.21 42.56 19.73 63.65 15.72 43.97 32.41 86.06 50.69 127.05M7668.85 1324.82c27.73 22.67 48.27 35.82 75.95 52.32 11.24 6.72 28.26 14.33 41.34 20.25 47.98 21.69 111.47 37.68 171.26 38.77 1.1 0 1.03-.04 1.03-.04h445.92s-1.69.04 1.54.04c14.19 0 28.23-4.93 36.92-13.12 8.69-8.26 12.86-20.99 15.13-33.63 1.93-10.79.99-20.38-1.52-31.91-1.96-9.1-3.44-14.53-8.51-22.27-3.08-4.7-5.98-7.93-11.67-12.48-5.86-4.68-14.17-6.3-23.68-6.4-1-.04-3.13-.1-3.06-.08.1.08-521.55.08-521.55.08s-3.26.01-4.87.01c-34.16.12-70.11-1.62-103.85-6.04-25.83-3.52-51.73-7.55-76.71-14.06-31.51-8.22-61.85-19.61-92.13-30.9 16.79 22.31 36.16 41.24 58.46 59.46"></path><path d="M7823.69 1502.23c27.39 19.78 60.66 36.02 90.11 47.31 14.96 5.67 34.82 11.93 50.59 15.86 19.08 4.81 40.98 8.41 58.84 8.94 5.39.14.79.04.79.04l382.45.04s8.2-.44 11.05-.99c7.18-1.55 12.98-4.49 15.39-6.02 5.94-3.8 13.39-11.81 17.29-18.14 9.94-16.36 11.68-34 8.48-52.36-3.68-20.98-19.62-44.88-41.24-45.45-3.76-.1-11.28 0-11.28 0h-414.24s-24.1-.48-35.12-.88c-20.37-.8-42.95-3.13-60.76-5.74-15.21-2.19-30.06-5.07-45.31-9.15-51.05-13.79-95.44-39.7-141.85-59.84 31.26 54.64 73.53 96.49 114.81 126.38M7609.74 1242.29c66.47 39.27 146.58 54.77 219.87 57.23 1.76.08 5.23.19 5.23.19l571.75-.04s1.03 0 6.2.04c34.64.04 47.31-34.35 47.15-62.16-.07-9.14-1.62-18.49-4.16-24.77-3.3-8.19-6.94-14.87-12.9-21.32-2.11-2.35-9.78-7.74-13.17-8.57-7.93-1.93-17.67-1.72-17.6-1.72.07 0-425.28-.07-425.28 0 0 0-22.93.93-38.87 2.46-11.47 1.14-20.18 2.34-32.08 4.6-29.3 5.81-53.57 15.36-78.93 23.18-16.92 5.22-34.71 9.12-53.28 11.92-34.13 5.24-71.41 7.62-105.89 5-43.85-3.25-82.85-11.85-124.56-25.08 7.06 11 36.39 27.12 56.52 39.04"></path><path d="M7917.7 1063.01c-19.56 6.89-38.62 15.78-55.74 27.08-22.27 14.75-33.2 26.47-61.99 39.78-24.66 11.39-44.33 22.62-78.7 35.08-16.57 6.02-43.44 14.27-66.48 18.23-32.91 5.58-64.63 8.03-64.63 8.03s6.72 4.18 10.77 5.43c33.58 10.23 63.24 15.22 97.74 17.77 30.24 2.26 58.03-.69 88.34-5.42 12.45-1.97 28.62-5.8 42.67-9.82 45.65-12.98 97.54-33.58 143.56-33.66 2.57 0 2.28.05 2.28.05h426.31c12.89.03 36.94-4.13 46.61-21.21 11.19-19.69 14.68-43.13 5.26-66.6-2.84-7.06-7.57-17.16-14.36-23.29-5.98-5.4-15.67-8.86-21.28-8.86-1.61-.08-4.38 0-4.38 0h-371.71-2.03c-38.01 0-85.86 4.6-122.24 17.41M8087 931.16c-10.51 10.8-25.01 27.352-38.13 43.04-25.24 30.09-36.54 57.18-36.54 57.18h247.92s.67-28.61-5.06-61.72c-5.37-30.762-16.72-63.18-28.8-86.672-.45-24.078 9.72-46.468 11.39-70.25-20.37-12.5-42.27-24.886-60.51-42.437-1.18-1.062-3.06-1.062-3.82 1.83-9.79 36.67-14.95 69.358-22.96 105.6-22.6 17.48-43.79 33.032-63.49 53.43M8342.51 951.512c-7.02 12.937-12.26 30.04-20.29 40.207-1.72-9.06.4-14.66-.82-23.33-1.15-7.28-7.11-4.25-8.31-.83-3.48 9.838-7.18 21.98-10.35 32.07-5.3 16.81-6.99 31.69-6.99 31.69l41.24.06s1.59-.39 2.33-4.42c1.96-10.39 1.49-20.52 4.33-32.562 3.65-15.52 8.37-29.68 14.06-44.136 4.96-12.73 11.35-25.57 16.56-38.223.69-1.66 1.04-4.84-.22-6.5-1.53-1.93-4.16-1.68-5.66 0-11.82 13.42-16.58 28.62-25.88 45.972M8406.34 922.02c-7 14.95-16.88 31.76-16.03 48.71 4.58-5.968 6.45-10.27 12.74-13.62 2.87-.91 8.89-.06 7.38 4.96-2.77 9.352-7.09 17.258-11.06 30.078-5.93 18.962-11.67 39.212-11.67 39.212l-42.11.02s2.34-17.08 11.91-43.29c8.4-23.23 21.4-49.79 35.62-74.668 11.59-20.5 22.11-38.363 35.24-53.32 4.51-5.153 15.54-.633 10.77 6.066-12.48 17.633-24.11 37.172-32.79 55.852M8679.7 2344.9c-9.13-3.97-17.21-9.13-21.77-17.91-3.32-6.31-5.55-15.92.79-21.33 11.11-9.49 24.37.22 29.76 9.92 6.77 12.34 5.03 35.95 5.03 35.95s-7.9-4.11-13.81-6.63"></path><path d="M8689.37 2285.97c3.99 7.53 12.73 15.67 22.33 21.5 10.84 6.63 22.07 13.07 29.88 17.72 7.8 4.7 9.29 7.99 9.29 7.99s-6.43-2.21-9.95-4.3c-19.27-11.49-40.32-24.55-48.87-28.32-10.8-4.71-25.48-5.62-38.7-7.31-2.11 16.69-6.45 23.62-6.4 38.44.12 7.11 1.85 16.34 3.04 22.77 4.15 21.43 4.95 32.25 4.95 32.25s-3.27-3.05-4.46-12.48c-1.35-8.52-2.3-11.66-4.25-21.73-2.24-11.63-4.55-21.48-11.5-28.74-10.01-10.36-19.31-28.82-11.57-42.96 4.52-8.26 12.04-7.06 14.4-9.19 2.36-2.12 3.79-7.2 10.93-9.57 15.39-5.14 32.83 8.66 40.88 23.93"></path><path d="M8669.41 2241.89c5.22 8.49 10.58 14.43 18.82 19.49 13.65 8.32 23.79 13.97 32.13 18.23 3.61 1.81 6.63 3.97 7.55 7.83-3.73-1.4-17.83-8.02-31.85-16.35-10.02-5.99-27.25-13.46-38.84-14-4.58-.2-8 .93-11.74 1.05-7.77.32-17.67-1.55-17.67-1.55s-2.51 10.98-5.81 18.89c-1.67 4.05-4.35 8.21-5.81 15.82-.97 5.08-1.26 12.7-.87 17.25 1.14 13.73 4.84 27.07 4.21 40.97-8.63-17.93-5.12-40-15.23-53.88-4.27-5.83-7.66-10.43-11.03-17.78-5.56-12.06-4.89-24.55 2.63-36.18 4.33-6.63 13.9-6.38 15.56-7.66 2.5-1.86 4.65-8.79 14-10.88 16.02-3.59 34.89 3.83 43.95 18.75M8673.89 1891.3c3.73 7.54 6.13 17.42 10.89 24.41-10.76-1.62-12.5-2.85-28.04-4.55-3.39-.32-10.41-3.84-12.73-6.15-6.14-6.21-11.51-11.97-9.13-22.38.92-4.04 4.5-7.02 6.49-7.64 12.93-4.21 26.05 3.48 32.52 16.31"></path><path d="M8687.01 1870.78c14.69 3.43 31.66 10.64 38.48 8.37-13.79-7.33-31.17-10-46.44-14.35-11.66-3.35-19.98-12.15-30.39-20.15-9.54-7.27-22.23-10.22-33.58-4.87-3.83 1.81-7.56 7.99-8.2 11.27-.6 2.63-6.08 5.27-8.89 7.57-2.84 2.37-4.2 8.27-4.27 10.53-.48 20.33 14.99 28.56 29.89 40.5 11.23 8.99 25.81 47.16 34.7 55.07-1.57-12.31-17.57-35.51-24.54-53.58-5.53-14.39-3.71-25.89-7.29-41.04 10.67-.67 22.54-2.92 33.27-3.09 8.43-.1 18.61 1.72 27.26 3.77"></path><path d="M8671.53 1839.43c-8.26-1.53-18.35-4.13-25.24-5.59-23.96-5.08-35.39 6.66-54.52 6.45 1.69 21.89-5.93 31.7.34 45.86 5.59 12.59 10.74 25.93 15.55 36.62 3.89 8.56 5.07 15.8 5.07 15.8s-5.82-8.69-22.31-40.86c-5.74-11.23-16.03-13.64-25.16-24.24-10.5-12.12-16.53-37.76 2.89-48.51 3.87-2.12 3.31-8.78 6.13-11.47 12.98-12.21 39.2-10.98 55.57 3.9 13.06 11.9 28.91 13.82 42.43 17.33 7.91 2.04 14.83 5.39 14.83 5.39s-3.75 1.54-15.58-.68M8191.53 1585.19c-.96 0-1.97 0 0 0zm-111.9 315.54c-7.99-10.56-11.68-22.7-20.49-31.92-4.6-4.83-11.62-2.57-15.27 3-4.05 6.28-10.59 15.17-5.74 21.39 8.02 10.26 24.76 16.81 39.01 14.96.85-.1 5.44-3.49 2.49-7.43zm-38.33-60.39c-4.46-11.97-17.79-13.26-29.14-15.62-2.12-.45-8.65 0-11.57 2.87-4.91 4.8-9.14 11.35-8.3 19.54.46 5.06 4.68 10.02 9.92 12.02 9.45 3.68 20.69 9.58 30.03 4.34 8-4.49 12.22-14.73 9.06-23.15zm-24.55-63.22c-3.27-4.71-11.65 10.95-12.73 18.13-3.14 20.76 15.06 26.06 30.24 25.42.47-12.39-9.14-31.57-17.51-43.55zm-16.39-56.03c-2.97-8.35-4.39-16.04-7.71-23.69-3.24-7.41-16.99-10.04-24.61-7.66-10.9 3.36-20.24 27.82-7.86 37.19 9.48 7.09 19.29 8.22 31.36 9.7 2.17.26 10.28-.23 10.6-.99 2.02-5.07.74-7.61-1.78-14.55zm-18.33-64.58c-2.21-6.42-3.19-13.02-6.01-19.19-1.43-3.13-3.31.97-3.37 1.18-4.29 10.64-6.99 19.66-3.33 29.03 2.06 5.18 9.16 9.95 15.89 10.37-.41-6.67-.88-14.9-3.18-21.39zm-21.66-31.5c-4.92 2.23-4.85 8.56-6.9 12.48-1.95 3.85-6.14 9.13-4.41 14.16 9.49-5.31 13.9-14.82 11.31-26.64zm-16.39 39.32c-11.32 9.31-12.3 24.21-19.86 35.6 8.34 5.34 22.4 4.26 26.71-6.29 3.46-8.47 5.97-20.93-2.63-27.4-.92-.68-3.14-2.81-4.22-1.91zm-42.23 76.84c-1.71 2.43-5.07 9.43-2.5 10.33 20.27 6.97 35.49 7.2 39.82-14.5 3.08-15.48-7.5-28.77-22.33-23.36-4.24 1.58-8.46 18.07-14.99 27.53zm-29.5 49c-1.43 1.77-2.57 7.17-.8 8.55 10.53 8.48 26.02 9.13 38 7.95 15.82-1.43 19.08-16.12 16.43-28.32-3.49-16.03-27.8-18.03-34.69-15.35-6.77 2.6-11.49 17.93-18.94 27.17zm3.44 57.03c13.67 8.85 39.8 15.43 44.14-8.57 1.32-7.23-.48-16.82-10.25-19.97-10.03-3.22-21.85-6.69-31.02-2.97-11.27 4.61-13.48 24.65-2.87 31.51zm-14.16 40.35c1.03 4.61 6.13 6.78 10.41 7.88 11.07 2.73 23.43 6.85 33.58.38 3.97-2.5 4.27-6.04 4.78-11.01.89-8.07-.25-14.66-5.55-17.75-10.79-6.32-21.74-6.88-34.26-4.42-10.16 1.99-10.99 15.46-8.96 24.92zm-11.33-62.21c-9.48 7.01-13.68 16.92-20.65 26.72-1.69 2.4 0 3.38 1.3 3.76 16.81 4.76 29.27-3.63 26.66-21.96-.47-3.56-2.78-11.85-7.31-8.52zm-46.39 56.61c-6.31 5.44-1.93 14.92 3.56 17.68 9.61 4.78 24.71 5.5 34.7 2.12 6.45-2.16 9.7-11.39 8.53-21.46-.47-4.13-1.73-8.68-3.76-10.02-7.61-5.19-19.38-5.39-28.65-3.46-6.55 1.39-8.88 10.33-14.38 15.14zm-7.27 57.25c6.1 13.25 28.31 13.37 40.41 7.46 9.86-4.85 11.09-23.19.33-30.42-8.59-5.72-22.12-3.61-31.22-1.95-12.93 2.38-13.97 15.1-9.52 24.91zm.5 49.6c9.23 8.79 21.18 4.75 32.31 3.22 2.15-.3 4.71-1.81 6.17-3.27 7.59-7.66 8.19-20.24-.28-26.53-9.73-7.25-21.91-2.54-33.64-1.95-3.16.13-6.64 3.84-7.35 6.23-2.12 7.43-3.39 16.5 2.79 22.3zm5.95 41.5c9.79 4.09 26.62 5.97 33.57-5.03 4.25-6.74 3.02-19.22-3.82-21.04-6.7-1.72-29.45-5.5-34.91 7.09-2.69 6.19-1.54 16.16 5.16 18.98zm30.14 35.26c2.86-1.26 4.62-3.53 5.28-7.01 1.4-7.55-.58-15.75-7.83-17.07-10.88-1.99-27.05-2.62-27 12.77.04 17.18 16.96 16.99 29.55 11.31zm-21.9 31.92c5.79 2.22 15.33 1.72 20.53-.99 2.62-1.37 6.16-5.68 4.67-10.22-1.86-5.93-7.37-8.07-13.64-8.14-6.01-.06-12.92.42-15.35 5.34-2.31 4.65-1.33 12.04 3.79 14.01zm6.76 25.74c5.29 1.93 13.12 1.8 16.99-2.38 5.29-5.79 1.12-15-8.89-14.54-3.52.15-7.69 1.36-9.83 2.58-5.17 2.91-3.46 12.49 1.73 14.34zm23.81 16.59c.68 2.23 4.18 4.85 5.99 5.49 3.98 1.41 8.63 1.7 12.42.19 7.6-3.13 6.57-12.53-1.56-15.83-3.63-1.48-9.21-2.42-11.94-1.48-5.11 1.74-6.53 6.18-4.91 11.63zm23.69-36.77c-8.29-2.42-19.85-2.89-22.32 5.61-4.21 14.42 14.01 16.58 23.44 13.55 6.52-2.06 8.81-16.3-1.12-19.16zm5.49 47.64c2.62 8.93 12.76 13.78 21.93 11.05 7.89-2.31 9.72-13.06 4.38-18.28-2.41-2.36-6.4-4.74-10.71-5.69-9.37-2.09-18.59 3.07-15.6 12.92zm41.25-32.8c-1.49-5.83-5.77-9.84-12.61-11.36-6.81-1.49-16.22-1.9-19.99 2.3-3.6 3.98-5.25 9.57-2.26 13.87 6.03 8.56 17.06 11.56 26.88 9.38 5.6-1.31 9.73-7.05 7.98-14.19zm-3.66 34.31c3.66 8.11 12.95 12.19 21.88 9.47 1.79-.57 5.47-3.45 5.98-6.29 1.06-5.64-.9-10.79-5.61-13.74-6.03-3.84-11.02-6-17.94-3.17-5.2 2.18-6.48 8.94-4.31 13.73zm38.44-22.77c4.06-6.91-2.13-13.84-5.28-15.74-6.99-4.09-16.85-6.6-21.05.32-4.14 6.8-.71 14.86 6.51 17.85 6.9 2.86 14.04 7.2 19.82-2.43zm11.58-26.38c4.56-3.77 8.58-11.7 3.11-17.97-5.15-5.9-11.52-7.66-19.6-8.97-5.45-.93-12.43 3.11-13.31 7.94-.82 4.14-1.57 11.71 2.54 15.2 8.03 6.83 18.79 10.79 27.26 3.8zm9.68 44.98c4.31-1.27 7.07-5.82 4.9-10.22-1.31-2.7-5.18-5.64-7.64-7.16-6.78-4.16-12.56-2.46-14.7 2.52-3.9 9.14 9.21 17.29 17.44 14.86zm16.5-22.79c4.75-.42 6.93-3.73 7.88-7.36 1.22-4.87-.38-9.37-4.5-12.14-4.89-3.25-10.99-5.17-15.86-5.25-6.61-.1-12.71 9.57-9.14 15.86 3.79 6.73 13.31 9.61 21.62 8.89zm27.29-34.89c2.8-8.28-3.28-12.14-9.67-15.54-6.49-3.47-15.22-6.71-19.73-2.39-5.78 5.43-8.34 14.58-1.91 20.6 8.91 8.37 25.4 14.65 31.31-2.67zm11.77-20.77c10.46-1.33 12.54-16.2 10.43-21.58-2.39-4.62-7.66-8.24-10.43-9.66-7.68-3.95-16.64-5.45-23.69-1.8-6.43 3.33-9.21 13.09-5.73 20.73 4.73 10.34 19.63 13.6 29.42 12.31zm21.51-46.04c3.59-5 2.8-13.88.68-16.66-6.61-9.01-24.97-14.16-32.54-10.47-5.76 2.82-11.43 15.5-4.7 23.11 7.01 7.9 19.23 12.61 30.32 10.3 2.46-.54 4.08-3.27 6.24-6.28zm4.64-28.37c5.03-.54 9.52-6.07 11.94-12.11 3.17-7.8-.03-16.89-2.53-18.59-6.01-4.1-25.07-15.56-37.08-8.69-6.6 3.79-8.41 12.44-8.83 17.55-1.32 16.5 23.73 23.27 36.5 21.84zm-70.39-118.1c-2.57 6.56-4.94 16.25.2 20.23 10.4 8.19 33.9 15.38 42.84 2.98 5.81-8.06 4.11-21.7-6.08-26.94-10.5-5.35-31.03-11.52-36.96 3.73zm-50.42-.71c10.44 5.3 25.48 11.7 36.7 4.46 5.14-3.29 10.44-16.95 6.83-23.01-7.71-12.88-27.97-16.15-40.85-12.85-10.98 2.85-14.28 25.53-2.68 31.4zm-9.37 44.48c12.58 8.87 37.45 14.58 43.42-4.76 1.57-5.02 2.44-10.57-.11-14.61-6.98-11.21-24.67-14.17-36.5-12.5-12.81 1.85-18.85 23.43-6.81 31.87zm-10.59 45.08c12.09 6.86 37.85 15.97 43.93-3.67 2.43-8.03 2.18-17.95-4.7-21.49-9.85-5.16-25.46-10.58-36.81-3.49-9.48 5.99-10.76 23.88-2.42 28.65zm67.67 81.04c-5.06-4.53-10.2-5.5-16.94-7.79-9.43-3.2-19.31 4.08-20.4 13.1-1.82 15.45 14.75 17.76 25.71 19.69 7.99 1.44 12.94-5.73 14.41-10.56 1.5-4.64 1.32-10.87-2.78-14.44zm20.32-36.37c-7.19-10.72-36.16-17.46-42.55-6.44-4.67 8.06-7.59 19.39 1.19 24.8 9.22 5.66 20.14 9.05 30.86 7.12 10.09-1.77 15.21-18.36 10.5-25.48zm15.44-66.34c4.13-6.55 7-15.38.88-23.52-5.55-7.45-25.37-10.94-35.51-8.48-5.57 1.4-8.21 8.16-9.05 12.73-1.19 6.17-1.74 12.39 3.74 17.41 7.85 7.2 18.33 7.05 28.39 7.05 4.14 0 10-2.7 11.55-5.19zm-5.76 22.26c-6.17-11.33-27.09-12.8-36.49-11.55-6.63.89-11.29 11.57-11.09 20.51.06 4.6 1.5 7.65 4.64 9.33 10.44 5.6 21.14 9.35 32.37 7.53 10.97-1.74 15.23-17.22 10.57-25.82zm-110.07 24.43c-7.11 21.88 20.22 28.77 36.18 25.41 11.09-2.32 14.81-23.65 4.46-30.39-12.76-8.32-35.46-11-40.64 4.98zm-41.2-53.73c8.18 8.44 22.95 8.96 34.5 7.42 7.08-.99 10.13-8.14 11.12-15.92 2.76-21.38-25.95-24.98-39.59-19.98-9 3.3-13.69 20.59-6.03 28.48zm-5.8 41.41c8.58 10.07 22.89 12.48 34.74 9.21 7.25-1.97 10.6-10.43 10.42-19.92-.14-5.37-3.82-9.28-7.14-10.64-8.42-3.42-18.15-5.96-27.35-4.85-11.35 1.41-18.23 17.27-10.67 26.2zm1.37 45.11c10.53 4.3 30.15 8.14 33.44-6.89 4.47-20.04-19.16-23.29-31.79-19.81-9.66 2.66-11.5 22.72-1.65 26.7zm75.72 33.09c7.89-4.47 9.53-17.08 4.74-24.39-6.37-9.67-28.14-15.28-39.84-6.81-6.68 4.85-10.29 24.73 3.4 29.5 10.93 3.82 21.42 7.53 31.7 1.7zm-11.15 14.39c-8.93-5.53-21.66-7.73-30.1-3.03-7.35 4.01-7.07 14.75-3.41 20.52 5.97 9.62 20.86 10.66 31.13 7.65 8.86-2.57 12.18-19.04 2.38-25.14zm-72.29 15.67c.92 2.86 2.18 3.68 3.95 4.55 7.52 3.58 15.75 4.54 22.94-.08 5.19-3.35 4.74-11.09.9-15.11-5.63-5.91-17.06-6.15-24.37-2.31-4.72 2.46-4.95 8.29-3.42 12.95zm2.4-31.35c3.33 9.49 15.16 8.96 24.11 7.8 11.02-1.44 13.23-15.56 9.31-21.5-5.4-8.2-17.75-6.63-27.58-5.38-7.99 1.02-8.46 11.6-5.84 19.08zm155.52-285.2c2.71-10.71 0-20.89-9.54-24.3-12.25-4.32-28.81-10.64-38.61-4.06-11.2 7.52-16.58 28.81-3.72 37.17 15.2 9.94 45.44 16.45 51.87-8.81zm-16.52 33.3c-8.23-9.35-21.67-9.04-34.85-12.91-5.09-1.47-11.13 3.01-13.79 7.68-4.87 8.7-9.76 20.36-.4 28.77 7.72 7.05 18.26 6.45 27.74 9.28 4.26 1.29 9.47 2.77 14.63-.73 10.67-7.28 14.84-22.91 6.67-32.09zm87.31 140.14c2.32-6.8 5.45-11.8 2.79-18.57-3.13-8.32-11.22-9.47-18.78-12.21-7.07-2.56-18.88-5.8-24.79.4-6.81 7.04-9.54 21.4-1.4 27.55 10.55 7.85 36.6 18.7 42.18 2.83zm143.29 61.19c6.23 25.39 13.96 51.14 15.91 77.97 2.83 40.08-5.81 81.73-31.51 112.08 2.52-13.08 5.88-24.14 7.63-37.88 2.09-16.59-.24-35.07-4.53-51.77-3.24-12.64-8.94-24.93-14.59-36.67-6.66-13.91-16.63-29.04-26.55-41.45-27.81-34.58-71.14-102.07-71.14-102.07s-3.64.26-5.79.26c-.5 8.4 19.46 37.23 29.5 53.34 22.1 35.36 38.83 54.38 58.06 85.04 12.04 19.33 21.23 42.84 24.18 64.16 6 43.43-17.43 95.47-51.1 112.79 7.69-32.44 6.9-78.16-10.37-97.4-32.7-36.42-52.13-63.69-75.45-110.39-.68-1.25-6.14 6.3-10.65 9.24-5.07 3.34-2.22 13.36-4.04 20.1-1.64 5.74-4.35 10.15-5.14 11.15-6.91 8.46-13.58 8.99-15.03 11.53-1.69 2.86-.88 10-6.9 18.14-3.01 4.08-10.67 7.11-13.79 10.96-3.38 4.2-4.92 17.05-14.22 22.32-4.42 2.48-6.47 10.19-10.72 13.97-13.09 11.59-26.14 9.35-28.65 10.08-3.37.91-9.94 9.27-21.64 11.28-11.43 1.95-17.74-5.68-23.66-2.91-14.9 6.88-29.16 7.45-44.99-10.19-4.74-5.24-12.96-.34-23.21-8.18-9-6.86-9.16-13.2-13.75-14.07-8.61-1.61-15.03-8.5-18.35-16.02-1.73-3.88-3.02-11.7-4.01-16.86-1.42-7.12-5.03-13.7-5.1-18.93-.08-7.27 2.23-11.21 1.57-14.47-1.05-4.71-4.87-9.03-5.34-13.44-.33-2.5-.55-9.16 1.27-12.91 2.28-4.62-1.6-8.64-3.63-13.56-1.94-4.58-3.97-12.42-3.36-17.95.83-7.59 5.17-10.37 1.79-16.35-5.54-9.72-12.53-24.88-.27-44.25 2.26-3.54-5.14-10.44-5.56-20.53-.45-11.01 6.18-19.13 8-24.01.34-1.76-2.93-1.66-3.04-3.53-29.22 30.89-55.06 59.39-88.95 86.22-20.71 16.36-41.18 30.12-64.12 42.41-61.29 32.87-132.48 54.85-196.98 46.82 24.28-19.56 54.94-33.51 79.89-55.72 23.64-21.06 45.09-39.04 66.62-61.41 33.8-35.1 61.25-70.71 89.86-112.01 8.51-12.23 14.1-20.42 22.02-33.17 7.97-12.75 16.83-26.31 24.1-38.96 36.61-63.58 66.62-122.44 96.98-187.58 8.42-18.03 15.51-36.88 23.77-54.79 2.2-4.85 5.36-1.25 7.61 0 10.97 6.36 22.64 11.66 34.04 17.03 9.09 4.18 17.37 7.06 25.51 10.19 20.54 7.82 40.03 12.08 61.55 16.55 35.91 7.52 100.44 5.98 100.44 5.98l122.34.04h3.33c-1.28 35.06-9.6 69.14-11.62 104.31-1.56 28.5-.6 56.04.4 84.59 2.72 77.37 14.1 160.39 31.38 230.88M7381.45 2295.17c-23.89-23.8-31-32.56-44.93-58.88-8.2-15.47-18.6-35.33-21.58-60.93 49.06 18.68 89.08 56.78 125.24 98.87 26.75 31.2 47.52 72.6 73.88 103.42-46.45-15.58-95.5-45.51-132.61-82.48"></path><path d="M7241.02 2228.26c18.49 31.24 44.98 65.01 72.43 88.06-12.71-28.57-28.38-56.88-33.76-90.68-10.69-67.26-20.75-114.38-31.92-175.78 30.51 21.76 62.69 55.95 95.04 79.82 24.98 18.36 50.04 30.63 75.75 48.3 15.29 10.54 25.24 24.08 37.95 36.76-15.14-63.83-71.16-128.26-111.27-158.31-50.39-37.79-68.45-43.81-149.43-126.14-10.27 101.66-8.45 207.32 45.21 297.97"></path><path d="M7075.82 1890.61c3.77 52.8 10.11 95.02 22.93 146.51 8.98 35.97 28.34 89.51 56.24 111.47-3.41-13.04-5.2-32.6-6.53-45.79-5.46-54.39 4.95-117.57 6.19-171.91.62-26.72.39-47.3-3.61-72.41-4.16-26.32-.7-58.62-.7-58.62s14.44 16.48 27.32 36.99c28.14 44.7 37.15 57.97 59.83 82.19 28.13 30.05 59.59 57.87 95.12 82.52-4.29-16.7-22.42-49.17-29.92-62.21-10.01-17.46-14.55-33.31-38.22-72.85-33.31-55.55-48.14-63.04-85.13-122.45-8.01-12.92-40.84-62.07-48.81-77.08-17.33 35.86-23.86 67.19-45.12 125.56-13.35 36.68-11.35 73.36-9.59 98.08"></path><path d="M7024.39 1615.93c-20.08 52.09-29.28 100.41-36.1 155.23-4.16 33.55-2.24 78.27 9.76 110.53 3.13-7.88 9.53-27.87 10.41-30.87 8.9-29.97 12.63-44.34 25.08-73.25 9.53-22.17 21.17-39.82 33.63-61.74 11.33-19.98 20.89-46.3 29.09-66.44 26.37-64.56 28.32-125.01 38.4-131.62 7.26 15.54 9.54 30.42 10.34 37.75 7.85 71.44 17.27 136.39 107.24 220.6 8.26-25.07 4.06-71.28-.9-96.03-10.75-54.12-19.44-80.12-43.27-132.56-12.6-27.62-29.43-68.26-34.04-81.73-12.09-35.07-16.22-53.44-23.82-74.2-42.48 70.79-94.76 143.89-125.82 224.33"></path><path d="M7094.41 1290.31c-30.23 42.11-41.26 63.27-60.94 108.07-16.53 37.61-21.28 51.53-30.96 93.64-5.28 22.94-8.28 43.77-4.17 57.35 23.67-42.88 39.83-90.86 70.8-126.41 24.6-28.21 48.28-52.24 67.83-76.05 29.99-36.59 53.62-71.22 82.39-109.3 2.42 19.09 3.36 38.44-.92 69.71-5.86 42.87-2.25 78 5.23 119.5 9.49 52.64 16.45 78.72 34.72 131.98 22.35-43.84 22.26-94.53 27.87-141.02 10.82-90.21-17.39-197.78-22.94-242.6-1.48-11.82.57-40.98 1.15-52.34-42.19 33.25-79.74 66.8-116.13 103.3-16.59 16.55-39.35 43.96-53.93 64.17"></path><path d="M7254.4 959.53c-19.22 13.84-70.84 53.31-95.28 84.36-35.6 45.21-43.46 64.58-66.92 116.59-2.88 6.35-16.17 35.78-17.27 55.77 76.95-92.9 145.84-106.74 219.23-183.83 26.93-28.24 54.51-54.83 69.08-68.158 11.17-10.274 25.05-13.403 25.05-13.403s-1.46 19.812-8.7 33.58c-48.96 93.61-58.2 191.45-50.78 296.46 22.36-27.67 29.4-46.15 43.59-72.9 15.43-29.16 23.29-47.18 30.5-65.13 41.9-104.27 52.8-224.74 78.7-285.358-79.91 26.918-142.84 41.308-227.2 102.02"></path><path d="M7582.13 713.45c-21.62-1.47-64-1.33-86.58 2.35-114.4 18.302-220.74 101.212-274.22 192.278 48.49-29.598 83.56-49.348 126.2-64.11 37.99-13.14 74.02-17.02 137.42-35.027 38.27-10.8 76.15-26.13 89.46-31.112 42.42-15.797 60.28-11.898 60.28-11.898s0 6.44-15.85 23.718c-31.58 34.46-43.14 42.71-69.11 69.204-8.54 8.75-28.08 38.476-38 58.226-28.08 55.89-31.2 100.692-56.83 162.072 93.55-54.94 139.12-130.74 188.58-226.322 15.21-29.258 35.79-63.066 54.57-81.656 12.63-12.473 30.45-31.422 30.45-31.422s-13.05-3.078-53.68-9.06c-18.21-2.678-57.05-14.76-92.69-17.24M8035.6 706.18c49.4-8.06 93.29-20.07 138.21-35.48 12.07-4.15 30.43-13.29 43.15-19.72 31.85-16.21 50.17-26.718 77.52-45.54 44.07-30.35 91.42-63.05 134.12-112.67.92-.97 7.83-8.348 3.22-11.96-8.35-6.548-28.98-15.912-35.84-9.84-39.1 34.75-37.11 45.89-84.49 88.768-12.13 10.953-30.47 26.3-52.39 41.293-21.38 14.618-47.22 30.6-71.22 42.45-21.82 10.73-55.43 13.93-74.29 13.93l.25-.13c-8.57.34-57.84.6-69.24-.132-96.8-6.628-92.06-15.296-147.88-30.41-45.92-12.488-95.16-21.398-144.06-27.957-50.08-6.8-94.91-7.62-141.86-2.82-63.65 6.552-133.28 24.29-185.23 57.77 47.51-.79 96.31-9.93 143.57-6.3 19.88 1.54 52.16 4.53 73.99 11.26 43.43 13.33 68.34 18.548 114.33 31.36 39.5 11 79.34 14.802 120.6 19.14 57.11 6.11 110 4.74 157.54-3.01M8920.81 2295.17c23.88-23.8 31.04-32.56 44.95-58.88 8.2-15.47 18.62-35.33 21.57-60.93-49.08 18.68-89.07 56.78-125.25 98.87-26.77 31.2-47.49 72.6-73.87 103.42 46.46-15.58 95.5-45.51 132.6-82.48"></path><path d="M9061.28 2228.26c-18.52 31.24-44.99 65.01-72.44 88.06 12.83-30.75 31.55-69.05 33.75-90.68 6.82-67.73 20.75-114.38 31.91-175.78-30.5 21.76-62.71 55.95-95.05 79.82-24.95 18.36-50.02 30.63-75.69 48.3-15.33 10.54-25.27 24.08-38 36.76 15.15-63.83 71.16-128.26 111.3-158.31 50.36-37.79 68.43-43.81 149.36-126.14 10.28 101.66 8.46 207.32-45.14 297.97"></path><path d="M9226.46 1890.61c-3.8 52.8-10.07 95.02-22.93 146.51-8.98 35.97-28.34 89.51-56.28 111.47 3.45-13.04 5.22-32.6 6.57-45.79 5.5-54.39-4.89-117.57-6.19-171.91-.62-26.72-.38-47.3 3.58-72.41 4.16-26.32.72-58.62.72-58.62s-14.41 16.48-27.33 36.99c-28.08 44.7-37.1 57.97-59.83 82.19-28.11 30.05-59.6 57.87-95.14 82.52 4.33-16.7 22.46-49.17 29.96-62.21 10.05-17.46 14.52-33.31 38.22-72.85 33.3-55.55 48.15-63.04 85.1-122.45 8.01-12.92 40.9-62.07 48.84-77.08 17.35 35.86 23.86 67.19 45.13 125.56 13.37 36.68 11.38 73.36 9.58 98.08"></path><path d="M9277.88 1615.93c20.09 52.09 29.27 100.41 36.11 155.23 4.18 33.55 2.2 78.27-9.73 110.53-3.15-7.88-9.54-27.87-10.42-30.87-8.94-29.97-12.63-44.34-25.07-73.25-9.52-22.17-21.23-39.82-33.65-61.74-11.33-19.98-20.88-46.3-29.13-66.44-26.34-64.56-28.29-125.01-38.37-131.62-7.3 15.54-9.55 30.42-10.34 37.75-7.85 71.44-17.26 136.39-107.22 220.6-8.29-25.07-4.08-71.28.83-96.03 10.81-54.12 19.53-80.12 43.32-132.56 12.61-27.62 29.42-68.26 34.07-81.73 12-35.07 16.16-53.44 23.82-74.2 42.45 70.79 94.73 143.89 125.78 224.33"></path><path d="M9207.86 1290.31c30.27 42.11 41.27 63.27 60.95 108.07 16.52 37.61 21.26 51.53 30.97 93.64 5.28 22.94 8.27 43.77 4.14 57.35-23.61-42.88-39.86-90.86-70.83-126.41-24.55-28.21-48.24-52.24-67.78-76.05-29.96-36.59-53.64-71.22-82.38-109.3-2.41 19.09-3.39 38.44.89 69.71 5.88 42.87 2.26 78-5.21 119.5-9.49 52.64-16.45 78.72-34.7 131.98-22.33-43.84-22.26-94.53-27.89-141.02-10.85-90.21 17.44-197.78 22.97-242.6 1.46-11.82-.59-40.98-1.18-52.34 42.19 33.25 79.74 66.8 116.15 103.3 16.58 16.55 39.29 43.96 53.9 64.17"></path><path d="M9047.89 959.53c19.21 13.84 70.85 53.31 95.26 84.36 35.61 45.21 43.45 64.58 66.96 116.59 2.82 6.35 16.16 35.78 17.23 55.77-76.93-92.9-145.84-106.74-219.22-183.83-26.93-28.24-54.5-54.83-69.07-68.158-11.17-10.274-25.04-13.403-25.04-13.403s1.44 19.812 8.67 33.58c48.98 93.61 58.22 191.45 50.76 296.46-22.29-27.67-29.38-46.15-43.55-72.9-15.41-29.16-23.3-47.18-30.48-65.13-41.93-104.27-52.89-224.74-78.77-285.358 79.99 26.918 142.9 41.308 227.25 102.02"></path><path d="M8720.15 713.45c21.65-1.47 64-1.33 86.63 2.35 114.39 18.302 220.68 101.212 274.19 192.278-48.55-29.598-83.62-49.348-126.22-64.11-38.02-13.14-74.03-17.02-137.38-35.027-38.31-10.8-76.18-26.13-89.51-31.112-42.41-15.797-60.26-11.898-60.26-11.898s0 6.44 15.83 23.718c31.59 34.46 43.18 42.71 69.1 69.204 8.55 8.75 28.1 38.476 38.02 58.226 28.07 55.89 31.2 100.692 56.87 162.072-93.55-54.94-139.23-130.74-188.66-226.322-15.17-29.258-35.73-63.066-54.51-81.656-12.62-12.473-30.46-31.422-30.46-31.422s13.05-3.078 53.7-9.06c18.18-2.678 56.99-14.76 92.66-17.24M8266.68 706.18c-49.39-8.06-93.23-20.07-138.18-35.48-12.12-4.15-30.46-13.29-43.19-19.72-31.83-16.21-50.11-26.718-77.51-45.54-44.11-30.35-91.37-63.05-134.13-112.67-.92-.97-7.85-8.348-3.21-11.96 8.39-6.548 29.02-15.912 35.81-9.84 39.11 34.75 37.11 45.89 84.52 88.768 12.1 10.953 30.43 26.3 52.39 41.293 21.42 14.618 47.18 30.6 71.21 42.45 21.8 10.73 55.46 13.93 74.29 13.93l-.26-.13c8.58.34 57.83.6 69.26-.132 96.83-6.628 92.06-15.296 147.86-30.41 45.93-12.488 95.17-21.398 144.08-27.957 50.05-6.8 94.91-7.62 141.85-2.82 63.67 6.552 133.26 24.29 185.22 57.77-47.49-.79-96.25-9.93-143.57-6.3-19.9 1.54-52.14 4.53-73.98 11.26-43.43 13.33-68.36 18.548-114.3 31.36-39.53 11-79.36 14.802-120.59 19.14-57.14 6.11-110.01 4.74-157.57-3.01M8089.93 2834.65l-86.94-322.88h-92.31l-57.75 210.34-56.45-210.34h-92.08l-86.96 322.88h86.92l49.53-222.26 59.58 222.26h83.05l56.54-222.26 52 222.26h84.87M8376.82 2772.2h-148.54v-60.07h137.69v-62.45h-137.69v-137.91h-82.83v322.88h231.37v-62.45M8614.69 2730.89c0 9.08-2.46 16.9-7.37 23.47-4.92 6.56-10.64 11.14-17.13 13.74-8.68 3.45-17.14 5.36-25.38 5.72-8.23.36-19.23.55-32.95.55h-14.31v-96.5h23.85c14.17 0 25.84.87 35.02 2.6 9.18 1.73 16.87 5.2 23.09 10.39 5.34 4.61 9.21 10.13 11.6 16.55 2.39 6.41 3.58 14.24 3.58 23.48zm86.09 1.84c0-14.45-2.54-28.58-7.59-42.39-5.07-13.8-12.3-25.41-21.69-34.8-12.88-12.73-27.21-22.34-43.03-28.84-15.84-6.51-35.53-9.75-59.09-9.75h-51.83v-105.18h-83.26v322.88h137.03c20.53 0 37.84-1.77 51.94-5.31 14.09-3.55 26.55-8.86 37.39-15.94 13.01-8.53 22.95-19.44 29.83-32.74 6.86-13.3 10.3-29.27 10.3-47.93M7500.75 257.88l-58.04-187.31h-63.75l-38.17 126.27-37.7-126.27h-64.39l-57.54 187.31h62.99l32.15-129.1 39.97 129.1h53.21l38-129.1 31.62 129.1h61.65M7651.21 286.07h-4.49c-2.67.79-6.12 1.668-10.4 2.668-4.27 1-8.84 1.512-13.72 1.512-11.76 0-19.71-2.11-23.87-6.352-4.16-4.226-6.23-12.386-6.23-24.507v-1.51h46.19v-40.69h-44.19V70.57h-60.22v146.62h-25.7v40.69h25.7v5.17c0 22.91 6.08 40.09 18.27 51.54 12.17 11.46 30.6 17.18 55.29 17.18 8.9 0 16.95-.3 24.18-.918 7.23-.602 13.62-1.41 19.19-2.41V286.07M7790.59 165.56c0 18.202-3.11 31.42-9.32 39.64-6.21 8.21-16.05 12.312-29.46 12.312-5.66 0-11.49-.864-17.46-2.582a73.34 73.34 0 0 1-17.15-7.4v-94.1c3.99-1.55 8.26-2.56 12.81-3.008 4.54-.434 9.04-.652 13.48-.652 15.86 0 27.68 4.628 35.45 13.89 7.76 9.28 11.65 23.238 11.65 41.9zm61.87 1.26c0-15.468-2.35-29.53-7.07-42.21-4.73-12.68-10.92-23.122-18.58-31.36-7.99-8.668-17.04-15.23-27.16-19.668-10.1-4.46-20.93-6.684-32.47-6.684-10.67 0-19.73 1.14-27.16 3.422-7.45 2.282-15.06 5.47-22.82 9.578V1.852h-60.22V257.88h60.22v-19.52c9.21 7.34 18.62 13.288 28.23 17.86 9.61 4.55 20.69 6.83 33.24 6.83 23.32 0 41.45-8.562 54.39-25.69 12.94-17.11 19.4-40.64 19.4-70.54M7880.92 70.57h62.387v65.55h-62.387zM8102.71 118.61c3.89 4.78 6.8 10.53 8.75 17.26 1.95 6.732 2.92 16.052 2.92 27.94 0 11.01-.99 20.23-3 27.69-2 7.45-4.78 13.39-8.33 17.852-3.58 4.546-7.85 7.77-12.84 9.668-5.01 1.878-10.42 2.84-16.19 2.84-5.79 0-10.92-.778-15.44-2.34-4.5-1.56-8.8-4.668-12.93-9.34-3.66-4.34-6.57-10.29-8.75-17.84-2.16-7.57-3.25-17.07-3.25-28.53 0-10.228.94-19.1 2.83-26.61 1.9-7.5 4.67-13.54 8.34-18.098 3.57-4.332 7.82-7.5 12.78-9.512 4.93-1.988 10.57-2.988 16.91-2.988 5.46 0 10.66.91 15.61 2.75 4.93 1.828 9.14 4.918 12.59 9.257zm73.89 45.53c0-30.8-8.99-55.08-26.94-72.8-17.96-17.738-43.18-26.61-75.64-26.61-32.48 0-57.69 8.872-75.65 26.61-17.96 17.72-26.93 42-26.93 72.8 0 31.02 9.03 55.38 27.1 73.06s43.23 26.52 75.48 26.52c32.69 0 57.95-8.888 75.8-26.69 17.86-17.792 26.78-42.08 26.78-72.89M8338.34 200.68h-5.33c-2.56.87-6.65 1.55-12.33 1.992-5.66.45-10.38.668-14.15.668-8.53 0-16.07-.56-22.61-1.668-6.56-1.113-13.61-3-21.15-5.66V70.57h-60.21v187.31h60.21v-27.52c13.2 11.35 24.69 18.878 34.46 22.6 9.75 3.73 18.75 5.6 26.95 5.6 2.11 0 4.49-.06 7.16-.18 2.66-.11 5-.27 7-.5v-57.2M8477.21 129.61v84.91c-3.45 1.44-7.67 2.582-12.65 3.41-4.99.84-9.49 1.26-13.49 1.26-15.76 0-27.55-4.542-35.44-13.6-7.88-9.06-11.81-21.7-11.81-37.942 0-18.02 3.35-30.59 10.07-37.7 6.71-7.128 16.67-10.678 29.86-10.678 6 0 11.88.95 17.65 2.84 5.77 1.89 11.04 4.39 15.81 7.5zm60.21-37.528c0-17.57-2.5-32.35-7.51-44.363-5-12.02-12-21.41-21.01-28.19-9.02-6.9-19.88-11.87-32.6-14.94-12.75-3.05-27.11-4.59-43.13-4.59-13 0-25.82.79-38.44 2.36-12.63 1.538-23.56 3.43-32.78 5.66v46.87h7.33c7.32-2.902 16.26-5.53 26.8-7.93 10.55-2.378 20-3.58 28.32-3.58 11.12 0 20.14 1.03 27.07 3.09 6.94 2.06 12.24 4.98 15.9 8.76 3.45 3.55 5.95 8.11 7.5 13.668 1.57 5.563 2.34 12.223 2.34 20.024v3.488c-7.22-5.89-15.22-10.55-24-14-8.76-3.46-18.54-5.18-29.32-5.18-26.21 0-46.42 7.89-60.64 23.7-14.21 15.79-21.32 39.8-21.32 72.05 0 15.46 2.17 28.79 6.51 40.032 4.33 11.238 10.44 21.02 18.31 29.347 7.34 7.788 16.37 13.85 27.07 18.18 10.73 4.35 21.69 6.51 32.91 6.51 10.12 0 19.3-1.18 27.58-3.58 8.27-2.4 15.79-5.7 22.57-9.93l2.16 8.34h58.38V92.08M8752.69 330.11L8620.41 16.52h-51.2l131.75 313.59h51.73M8908.92 119.56v38.91c-8.13-.67-16.91-1.58-26.35-2.75-9.46-1.16-16.63-2.52-21.53-4.072-6-1.878-10.59-4.628-13.75-8.226-3.17-3.602-4.76-8.344-4.76-14.21 0-3.884.33-7.052 1.01-9.482.65-2.43 2.33-4.77 5-6.98 2.55-2.22 5.61-3.86 9.16-4.91 3.57-1.05 9.13-1.578 16.68-1.578 6.01 0 12.1 1.207 18.27 3.66 6.17 2.437 11.6 5.656 16.27 9.637zm0-29.138a629.33 629.33 0 0 0-12.02-8.852c-4.77-3.44-9.28-6.172-13.5-8.16a84.737 84.737 0 0 0-18.36-5.93c-6.33-1.28-13.29-1.92-20.85-1.92-17.78 0-32.68 5.522-44.7 16.522-12.01 11.008-18.01 25.066-18.01 42.188 0 13.68 3.05 24.86 9.18 33.53 6.11 8.68 14.78 15.51 26.01 20.52 11.12 5 24.91 8.56 41.37 10.68 16.46 2.11 33.52 3.672 51.21 4.672v1c0 10.328-4.23 17.476-12.68 21.437-8.44 3.94-20.91 5.91-37.37 5.91-9.89 0-20.45-1.75-31.69-5.258-11.22-3.5-19.29-6.192-24.18-8.09h-5.51v45.22c6.35 1.66 16.65 3.628 30.95 5.91 14.29 2.268 28.6 3.417 42.96 3.417 34.13 0 58.79-5.25 73.97-15.77 15.17-10.5 22.76-26.98 22.76-49.45V70.57h-59.54v19.852M9142.37 200.68h-5.32c-2.56.87-6.66 1.55-12.32 1.992-5.67.45-10.37.668-14.15.668-8.54 0-16.08-.56-22.63-1.668-6.55-1.113-13.6-3-21.14-5.66V70.57h-60.22v187.31h60.22v-27.52c13.2 11.35 24.68 18.878 34.44 22.6 9.77 3.73 18.77 5.6 26.97 5.6 2.11 0 4.5-.06 7.16-.18 2.66-.11 4.99-.27 6.99-.5v-57.2M364.238 1156.85c0-3.25-9.277-13.32-27.843-30.21-15.707-13.62-27.5-23.38-35.344-29.2l-81.44 38.95c-10.005-7.79-24.633-19.5-43.91-35.07-10.01.67-37.864 13.31-83.583 38 3.57 7.15 12.86 17.83 27.863 32.15a1502.39 1502.39 0 0 0 33.21 29.21c40.72-25.95 64.994-38.96 72.86-38.96 2.14 0 10.696 6.82 25.704 20.44 14.992 13.62 23.934 20.45 26.785 20.45zm167.14 192.83h-32.144a2894.704 2894.704 0 0 0-39.644-60.4c-16.43-23.37-33.926-40.22-52.488-50.65-7.868-4.51-22.868-10.68-45-18.5-22.13-7.76-37.14-11.68-44.985-11.68 2.145 0-11.094 6.48-39.644 19.5-8.563-9.09-17.14-18.15-25.72-27.27-7.866-6.51-20.714-9.75-38.562-9.75-7.87 0-18.213 4.85-31.073 14.62a434.04 434.04 0 0 1-26.79 22.4c-26.432-19.5-38.936-29.23-37.483-29.23-4.29 0-15.364 3.26-33.215 9.73C28.2 1226.63 0 1262.37 0 1315.62c0 38.93 16.762 82.76 50.352 131.48 31.406 46.09 66.418 81.11 104.976 105.18h11.797c1.422-1.31 2.133-3.58 2.133-6.82 0-3.93-8.203-14.32-24.63-31.19-20.726-21.41-35.722-39.59-45.003-54.53-16.44-24.68-24.644-49.35-24.644-74.04 0-33.08 18.926-58.41 56.79-75.95 30.003-13.64 64.972-20.47 104.976-20.47 49.305 0 107.856 9.44 175.727 28.26-18.59 22.07-46.078 35.39-82.512 39.95-32.14 2.57-64.28 5.2-96.42 7.77 2.855 9.76 23.937 40.27 63.214 91.54H531.38v-107.12"></path><path d="M482.078 1349.68h177.84v107.12h-177.84z"></path><path d="M895.625 1456.8v21.4c0 15.62-10.37 23.42-31.074 23.42-15.718 0-28.218-3.41-37.488-10.17 11.41-6.79 22.49-13.61 33.208-20.38 15.69-8.83 27.484-13.6 35.355-14.27zm164.975-107.12h-79.284c-4.273-3.88-9.468-12.16-15.535-24.84-6.06-12.65-13.393-20.62-21.952-23.86l-207.836 105.18c-3.594-2.58-9.297-13.95-17.14-34.08-6.442-14.94-16.45-22.4-30.004-22.4h-73.93v107.12H725.27c5 3.25 13.398 15.11 25.183 35.56 11.79 20.44 21.246 33.92 28.39 40.41 18.552 16.88 41.954 31.83 70.173 44.82 28.19 12.97 54.097 19.46 77.668 19.46 11.42 0 19.113-1.46 23.027-4.35 3.923-2.94 6.247-8.65 6.978-17.04-.73-22.11 5.355-46.14 18.21-72.09 15-31.16 33.572-46.77 55.702-46.77h30v-107.12"></path><path d="M1015.6 1349.68h177.84v107.12H1015.6z"></path><path d="M1410.91 1710.03l-83.56-98.36 12.86-131.48c1.43-8.44-1.79-29.22-9.65-62.35-7.87-33.08-14.29-52.58-19.28-58.4-1.43-1.95-7.16-5.24-17.14-9.76h-142.49v107.12h112.49c2.13 3.25 3.21 6.5 3.21 9.75 0 18.19-4.64 54.38-13.91 108.6-9.3 54.2-17.16 88.48-23.58 102.75-10.72 7.13-21.8 17.2-33.21 30.2 27.86 53.22 53.2 91.19 76.06 113.93l6.43-4.83c.71-13.01 2.86-23.74 6.44-32.19 3.54-8.4 22.49-22.03 56.77-40.89 26.41-14.94 49.28-26.32 68.56-34.09M1707.68 1349.68h-162.84l-37.51 381.8c0 4.51 10.72 19.45 32.14 44.82 19.99 23.34 33.57 37.97 40.72 43.79 4.28-59.08 8.58-118.18 12.86-177.27 6.42-79.21 14.26-136.01 23.56-170.41 2.14-10.42 13.58-15.61 34.28-15.61h56.79v-107.12"></path><path d="M2050.5 1349.68h-134.98c-6.44 11.02-16.8 27.26-31.08 48.7-7.15-11.05-18.58-27.27-34.28-48.7H1658.4v107.12h179.98c-22.16 28.57-50 42.88-83.57 42.88-2.13 0-14.99-1.62-38.57-4.87 24.27 49.33 42.86 80.49 55.72 93.48 23.56 22.71 60.33 34.08 110.35 34.08 29.99 0 59.62-9.03 88.91-27.1 31.42-20 47.14-43.23 47.14-69.71 0-9.04-4.66-20.65-13.94-34.84-7.13-11.01-14.64-22.3-22.48-33.92h68.56v-107.12"></path><path d="M2274.4 1710.03l-83.57-98.36 12.85-131.48c1.43-8.44-1.78-29.22-9.62-62.35-7.87-33.08-14.31-52.58-19.3-58.4-1.43-1.95-7.13-5.24-17.15-9.76h-142.48v107.12h112.49c2.16 3.25 3.23 6.5 3.23 9.75 0 18.19-4.66 54.38-13.93 108.6-9.29 54.2-17.14 88.48-23.59 102.75-10.69 7.13-21.79 17.2-33.2 30.2 27.86 53.22 53.2 91.19 76.07 113.93l6.42-4.83c.71-13.01 2.85-23.74 6.44-32.19 3.56-8.4 22.48-22.03 56.77-40.89 26.41-14.94 49.28-26.32 68.57-34.09M2473.67 1507.45c0-66.22-20.73-121.43-62.15-165.58l-48.2 313.63c13.57 35.67 39.98 78.24 79.28 127.62 20.7-126.66 31.07-218.52 31.07-275.67M2982.93 1497.75l-16.48 85.67c-7.95-12.32-21.68-28.21-41.2-47.72-9.76-4.56-21.38-12.99-34.8-25.32zm167.54-148.07h-94.3c-19.53 0-34.5 12.32-44.86 37.01-6.1 20.76-12.23 41.54-18.31 62.34-4.28-3.25-13.43-18.51-27.47-45.76-12.82-23.4-23.2-34.09-31.13-32.16l-165.71 31.16c13.41 57.15 25.65 96.42 36.62 117.86 11 21.4 28.08 39.9 51.29 55.53 32.94 20.08 66.22 40.21 99.78 60.35-4.28 10.39-7.33 20.13-9.15 29.25l54.93 100.3 4.57-2.93c5.49-22.72 14.03-71.46 25.64-146.08 10.36-64.27 19.81-110.04 28.38-137.32 4.87-14.94 19.22-22.43 43.03-22.43h46.69zm-164.81 438.28c-4.25-7.77-13.11-20.14-26.55-37.03-15.26-18.82-24.71-28.2-28.37-28.2-7.92 0-32.95 13.63-75.06 40.88-6.12-4.56-20.15-17.5-42.12-38.95-18.32 5.83-43.64 19.78-75.99 41.89 5.51 7.76 23.49 29.53 54.01 65.23 35.39-27.26 58.27-40.89 68.68-40.89-.61 0 15.55 13.63 48.5 40.89l76.9-43.82"></path><path d="M3128.5 1216.65c14.62 22.31 31.08 44.22 49.4 65.81 35.98-27.26 57.64-40.89 64.96-40.89 4.26 0 12.05 6.65 23.33 19.89 11.3 13.32 18.79 20.93 22.43 22.82l72.48-47.46c-18.96-31.23-36.68-53.66-53.18-67.34l-68.66 42.89c-9.16-8.65-22.89-22.95-41.19-42.89-31.75 17.72-54.93 33.41-69.57 47.17zm274.63 284.97c0-26.63-6.72-77.28-20.13-151.94h-265.5v107.12h219.73c-11.61 35.08-30.54 71.41-56.77 109.11l52.19 95.43c46.98-59.73 70.48-112.95 70.48-159.72M3636.59 1760.69c-6.72-9.12-17.1-19.82-31.13-32.14-16.49-14.31-28.37-21.45-35.7-21.45-12.83 0-34.19 17.21-64.09 51.64 3.67 7.13 13.87 19.79 30.68 38.01 16.78 18.14 27.92 27.27 33.41 27.27 4.87 0 27.14-21.13 66.83-63.33zm199.58-411.01h-101.61c-6.13 2.57-11.62 11.34-16.49 26.32a2641.47 2641.47 0 0 1-10.98 34.09c-2.46-2.64-9.15-14-20.15-34.09-8.56-17.57-15.26-26.32-20.13-26.32h-194.09c-13.43 0-20.15 9.76-20.15 29.21 0 23.38 3.96 54.22 11.91 92.54 10.36 48.03 22.27 73.03 35.71 74.98-1.23-13-1.85-27.9-1.85-44.79 0-28.56 4.28-42.84 12.82-42.84h180.35l1.85 8.76-36.64 157.77c4.29 16.88 11.91 36.03 22.9 57.46a4271.19 4271.19 0 0 0 29.3 55.52c23.79-106.4 43.63-187.01 59.5-241.81 7.93-25.14 14.96-37.7 21.07-37.7h46.68v-109.1"></path><path d="M4051.3 1751.93c-.61-11.06-23.5-30.2-68.66-57.47-5.49 1.31-18.01 10.02-37.53 26.27-19.54 16.25-29.31 26.63-29.31 31.2 0 5.82 21.98 27.9 65.93 66.22 6.72-1.3 29.9-23.38 69.57-66.22zm162.04-295.13l-59.5-107.12h-377.17v107.12h67.74c-.64 13.64 1.22 32.46 5.49 56.51 15.24 30.52 40.58 60.71 75.99 90.56 39.04 31.82 73.24 47.75 102.52 47.75 30.52 0 60.28-15.93 89.27-47.75 28.99-31.83 42.88-63.97 41.66-96.42-34.79 32.45-80.26 48.7-136.42 48.7-52.49 0-86.37-6.93-101.61-20.85 27.46-32.44 57.05-58.65 88.79-78.5h203.24M4364.39 1870.74c-3.04-7.78-9.47-17.88-19.21-30.16-25.03.63-58.3-12.37-99.79-39 .59 5.87 5.49 13 14.65 21.44 7.32 5.82 14.64 11.7 21.96 17.56-7.94 2.54-15.87 5.15-23.8 7.77-10.99 4.51-16.48 8.75-16.48 12.66 0 17.54 6.85 34.08 20.61 49.67 13.72 15.58 28.82 23.37 45.32 23.37 5.48 0 11.43-1.78 17.85-5.35 6.4-3.59 9.62-8.28 9.62-14.14 0 .65-5.81-7.78-17.41-25.32-18.31 10.38-26.87 15.6-25.64 15.6-3.05 0-11.29-4.24-24.71-12.66 6.09-14.29 38.44-21.44 97.03-21.44M4522.77 1443.17c-4.39 9.75-12.24 23.38-23.53 40.9-8.79-9.72-22.93-22.71-42.36-38.96 16.3-1.3 34.51-1.94 54.6-1.94zm139.16 303.88c.61-2.61 1.06-6.97 1.37-13.15.32-6.18.47-10.86.47-14.12 0-10.37-4.27-22.42-12.81-36.02-7.33-10.42-14.67-21.11-21.98-32.14-9.76 2.57-18.3 5.2-25.63 7.77-10.38-48.07-29.91-88.61-58.6-121.74 21.98-46.1 32.95-83.11 32.95-111.01 0-16.25-2.43-41.88-7.31-76.96h-239.86c7.31 23.39 19.52 58.1 36.62 104.23 24.39 9.07 43.63 17.52 57.67 25.32 28.68 14.27 43.62 27.28 44.86 38.96-4.88 8.39-15.88 22.04-32.96 40.9-18.93 21.44-31.13 32.13-36.62 32.13-1.82 0-5.65-4.39-11.43-13.15-5.83-8.76-9.95-13.47-12.36-14.1-26.88 14.89-65.93 37.96-117.19 69.15-20.76 14.25-31.13 33.08-31.13 56.47 0 25.32 12.82 62.65 38.44 111.99h2.76c29.31.64 75.37-29.21 138.24-89.56 53.7-52.63 91.85-97.4 114.45-134.43 15.25 23.38 22.87 51.29 22.87 83.75 0 12.31-3.67 25.96-10.98 40.94-7.32 14.9-11 21.39-11 19.45 0 9.07 21.98 43.83 65.94 104.19-.62-3.25-.92-6.14-.92-8.72 0-15.62 9.46-29.88 28.37-42.89 15.25-9.1 30.52-18.15 45.77-27.26M4829.47 1507.45c0-66.22-17.71-121.43-53.1-165.58l-41.19 313.63c11.59 35.67 34.18 78.24 67.75 127.62 17.7-126.66 26.54-218.52 26.54-275.67M5235.94 1325.35c-25.65-44.82-42.72-67.21-51.26-67.21-3.08 0-13.89 8.44-32.52 25.31-18.62 16.89-27.92 26.64-27.92 29.22 0 5.86 6.72 17.71 20.15 35.55 13.42 17.87 23.19 26.8 29.29 26.8 5.49 0 17.08-6.99 34.8-20.96 17.69-13.96 26.85-23.51 27.46-28.71zm172.11-138.31c-31.13-58.44-95.21-87.65-192.25-87.65-55.55 0-101.03 12.98-136.42 38.94-40.89 29.2-61.33 72.09-61.33 128.57 0 44.81 10.82 90.7 32.51 137.82 21.65 47.05 49.26 84.54 82.84 112.48-7.31 5.19-26.23 7.8-56.76 7.8-15.27 0-28.55-4.07-39.82-12.2-11.3-8.12-22.75-16.36-34.34-24.8 12.21 48.69 20.45 78.22 24.73 88.61 14.65 35.06 35.39 52.58 62.26 52.58 17.7 0 43.93-4.35 78.72-13.11 34.8-8.8 58.9-13.16 72.34-13.16h130.91c-7.94-21.44-21.07-53.58-39.38-96.41-12.2-.69-30.81-2.3-55.84-4.89-3.66-3.25-5.48-7.49-5.48-12.68 0-21.4 19.81-32.14 59.5-32.14h72.32v-107.12h-98.87c-25.03 0-45.02 7.92-59.96 23.87-14.96 15.88-22.43 37.16-22.43 63.8 0 7.76 2.27 18.15 6.85 31.14 4.58 13.01 7.18 22.07 7.79 27.26-7.34-1.31-18.01-3.87-32.03-7.75-32.37-13.01-61.98-34.44-88.82-64.29-30.52-33.76-45.77-67.2-45.77-100.34 0-91.55 93.39-137.32 280.14-137.32 13.41 0 32.95.36 58.59.99"></path><path d="M5581.08 1491.88c-2.45 11.69-8.56 27.25-18.31 46.76l-5.48.94c-11.63 0-25.65-5.82-42.13-17.51zm92.47-27.28c0-12.99-7.64-32.45-22.88-58.44-11.61-18.83-22.92-37.65-33.88-56.48-1.22 6.5-51.26 29.21-150.15 68.16-5.49-3.24-13.12-15.41-22.87-36.49-9.78-21.12-18.03-31.67-24.74-31.67h-59.5v107.12h68.65c4.26 3.92 14.35 25.64 30.23 65.27 9.74 24.65 31.58 49.82 65.45 75.5 33.87 25.64 63 38.44 87.44 38.44 12.81 0 21.04-5.2 24.71-15.57a630.76 630.76 0 0 1 6.41-33.09c6.7-20.82 13.13-41.26 19.22-61.39 7.93-24.7 11.91-45.15 11.91-61.36M5919.81 1349.68h-139.16l-32.04 381.8c0 4.51 9.16 19.45 27.46 44.82 17.09 23.34 28.68 37.97 34.8 43.79 3.64-59.08 7.31-118.18 10.99-177.27 5.48-79.21 12.2-136.01 20.14-170.41 1.83-10.42 11.57-15.61 29.29-15.61h48.52v-107.12"></path><path d="M6046.16 1756.81c-3.09-7.15-23.52-32.5-61.35-75.98-19.55 12.33-49.75 27.58-90.64 45.78l70.5 77.91c17.09-12.37 44.24-28.22 81.49-47.71zm51.28-263.95c0-25.32-6.74-73.07-20.17-143.18h-206.9v107.12h162.95c-12.8 37.02-31.73 73.72-56.75 110.05l52.18 94.49c23.18-33.1 39.36-59.09 48.52-77.92 13.43-29.87 20.17-60.04 20.17-90.56"></path><path d="M6467.26 1349.68h-66.81c-8.57 0-20.45 3.89-35.71 11.68l-4.56-5.85c-18.94-35.04-37.89-70.42-56.79-106.12-28.09-42.22-58.88-63.34-92.45-63.34-22.6 0-55.41 11.37-98.46 34.08-42.99 22.75-72.74 43.83-89.23 63.32v12.66c0 1.3 1.54 1.93 4.59 1.93-1.81 0 8.25-6.47 30.21-19.44 21.95-13.02 41.48-19.5 58.56-19.5 26.24 0 64.72 18.02 115.41 54.05 50.65 36.06 75.93 65.43 75.93 88.17 0 11.03-8.79 28.74-26.51 53.07-17.72 24.32-26.56 37.16-26.56 38.47 0 3.89 7.46 18.83 22.44 44.79 14.94 25.96 24.85 42.21 29.77 48.7 18.29-29.21 36.6-58.45 54.91-87.66 20.72-27.94 50.01-41.89 87.91-41.89h17.35v-107.12"></path><path d="M6620.16 1226c0-10.38-23.77-29.88-71.42-58.47-5.46.68-18.46 9.77-38.91 27.28-20.45 17.56-30.68 28.26-30.68 32.13 0 3.93 10.56 16.59 31.63 38.01 21.05 21.44 33.36 32.15 37.06 32.15 3.68 0 16.61-10.71 38.91-32.15 22.27-21.42 33.41-34.4 33.41-38.95zm75.05 270.75c0-98.04-9.11-147.07-27.42-147.07h-228.9v107.12h187.69c.6 0 .9.98.9 2.94 0 13.63-6.72 32.77-20.17 57.46-13.38 24.69-25.58 41.89-36.6 51.64l54.04 100.3c21.33-18.83 38.43-44.5 51.28-76.96 12.77-32.46 19.18-64.28 19.18-95.43"></path></g></svg>