<svg xmlns="http://www.w3.org/2000/svg" viewBox="0 0 867.81335 377.94666" height="377.947" width="867.813"><defs><clipPath id="a"><path d="M0 2834.65V0h6508.57v2834.65z"></path></clipPath></defs><g clip-path="url(#a)" fill="#fff" transform="matrix(.13333 0 0 -.13333 0 377.947)"><path d="M5519.38 2131.16c12.51 27.07 24.1 48.62 40.81 74.31 7.36 11.32 15.68 19.21 23.1 30.67-3.55 1.02-8.73-1.91-10.97-3.5-7.43-5.38-10.77-14.13-16.71-18.8-14.03-11.08-13.63-21.11-20.99-26.28-6.57-4.64-8.46-7.69-13.06-14.9-3.07-4.83-5.34-8.73-8.6-18.23-1.14-3.43-3.44-.4-8.93-7.94-7.18-9.8-10.39-20.38-13.38-32.26-.96-3.9-7.58-5.96-11.84-14.07-5.72-10.92-9.45-21.03-11.93-36.95-.6-3.69-6.84-6.25-11.15-16.53-3.04-7.23-5.22-8.82-7.9-22.45-1.64-8.31-5.43-9.51-9.7-21.57-3.3-9.2-3.42-18.06-4.58-30.08-.26-2.33-4.19-6.95-7.84-13.69-6.09-11.26-5.89-18.78-8.31-30.41-.93-4.2-5.63-9.76-10.16-27.78-4-15.99-.35-26.59-1.69-34.46-3.53-20.45-7.04-38.21-5.14-58.35.93-9.85 2.43-20.01 1.78-29.48-1.88-29.7-3.49-54.17-3.33-87.83.11-18.32 1.55-43.41 4.31-64.29 3.05-23.06 7.46-41.06 7.46-41.06h75.13s-2.94 43.44.96 89.19c2.29 27.41 8.83 56.47 14.75 76.88 7.51 26.04 12.18 39.51 26.37 73.85.29.76-.1 3.98-3.85.83-7.84-6.58-14.37-12.37-20.56-21.69-9.47-14.25-15.22-25.99-22.87-40.63-8.96-17.02-13.9-31.84-23.12-52.52-.56 14.92 1.89 29.13 4.89 42.87 3.12 14.04 5.59 25.16 9.98 37.26 7.84 21.35 15.43 39.17 27.99 59.03 7.29 11.47 16.59 21.77 26.02 30.32 11.29 10.33 21.74 19.4 33.55 29.5-12.41 6.4-28.95-6.96-32.26-7.65-17.47-3.41-24.59-19.61-29.94-21.83-7.64-3.19-12.06-7.87-17.39-14.32-4.08-4.86-5.29-12.33-9.58-14.98-7.14-4.45-12.36-11.15-17.27-20.51-2-3.86-7.48-22.13-13.59-19.78 10.41 61.93 32.29 120.01 67.38 171.7 22.25 32.77 46.45 60.88 82.12 86.1 4.69 3.33 5.62 4.89-.94 4.66-33.35-4.06-35.38-19.28-40.87-20.71-5.22-1.35-11.65-7.52-15.78-11.53-7.4-7.33-7.28-13.5-10.12-15.43-6.08-4.25-10.66-8.66-14.81-16.02-2.18-3.85-5.86-12.3-9.11-14.24-8.56-4.96-16.86-12.19-20.99-19.99-3.06-5.7-4.27-11.89-8.26-17.49-4.27-6.02-10.24-10.53-15.35-14.88 3.89 26.46 16.36 57.82 24.95 84.87 11.54 36.12 25.53 68.95 41.32 103.07M5596.09 1916.66c28.45 63.86 58.38 111.91 97.26 168.11 5.09 7.37 9.64 14.58 14.08 21.49 2 3.11 11.56 16.85 13.56 19.77 13.04 19.68 18.51 25.7 31.87 44.52 3.61 5.12 6.53 9.13 8.07 15.04 2.85 11.01-6.61 18.39-8.77 28.96-2.22 10.79-1.02 22.57 3.94 31.68 3.11 5.7 6.19 7.93 9.32 15.58 6.05 14.73 3.96 46.59 10.87 47.42-1.75-15.12-2.15-32.12.22-46.62 2.77-16.93 13.05-27.19 17.28-45.12 11.42 2.06 23.83 1.57 33.45.74 9.54-.82 21.6 1.83 31.39 5.18 13.27 4.53 24.28 12.78 37.81 15.98-11.51-11.05-27.74-15.2-41.34-23.59-4.99-3.14-9.71-7.28-13.05-12.45-5.48-8.51-9.78-16.64-18.34-20.37-15.2-6.63-28.24-3.49-45.58-6.71-25.77-26.54-50-62.63-72.38-100.59-56.74-95.96-104.02-195.36-131.54-297.28 9.52 17.73 18.61 34.88 28.91 51.75 11.38 18.74 24.17 37.09 38.13 55.47 32.66 43.05 64.97 80.64 101.16 120.19 29.22 31.96 61.25 58.76 96.97 81.18 47.18 29.57 105.41 50.28 156.57 39.6 5.81-1.36 14.14-2.91 17.77-6.73-64.12 8.97-121.55-13.43-164.39-47.75-33.87-27.08-62.4-54.56-91.41-90.27-14.98-17.21-28.45-36.13-41.84-54.45-14.01-19.27-26.43-39.55-38.77-59.83-41.54-68.61-72.98-141.25-96.1-216.51-.65-2.39-.8-4.78-1.47-7.15 1.1 1.68 2.73 3.52 3.8 5.24 31.14 50.61 68.57 99.45 115.97 132.22 4.13 2.83 8.47 8.26 9.56 12.54 5.14 20.09-10.17 29.74 11.01 57.51 4.86 6.39 11.5 8.71 16.09 14.64 8.68 13.4 15.74 37.41 23.01 43.86-3.65-15.64-12.63-32.14-14.53-48.26-2.03-17.68 2.49-32.14 3.27-50.88 12.53-1.71 22.21-7.01 32.03-10.04 15.28-4.77 24.46-3.56 39.57-2.25 6.46.54 18.16 4.31 25.11 2.89-14.61-7.98-34.34-6.51-49.29-14.14-10.46-5.36-13.48-13.27-27.92-16.05-12.83-2.5-23.63-1.16-31.98 3.12-6.48 3.27-11.55 4.64-17.39 1.85-15.55-7.47-26.17-18.02-38.69-30.65-29.09-29.26-52.83-61.92-74.98-104.75a562.185 562.185 0 0 1-16.12-34.24c-2.47-5.66-8.59-21.34-8.59-21.34h-75.98s-.19 21.9.52 29.91c1.46 15.94 3.61 27.75 6.71 43.93 4.41 23.27 8.73 44.37 14.75 66.94 5.9 21.96 12.23 42.56 19.75 63.65 15.72 43.96 32.4 86.06 50.67 127.06M4861.44 1324.82c27.72 22.67 48.26 35.82 75.94 52.32 11.24 6.72 28.25 14.33 41.34 20.25 47.99 21.69 111.47 37.68 171.27 38.77 1.08 0 1.02-.04 1.02-.04h445.91s-1.68.04 1.56.04c14.18 0 28.23-4.93 36.91-13.12 8.7-8.26 12.86-20.99 15.13-33.63 1.93-10.79.98-20.38-1.53-31.91-1.95-9.1-3.43-14.53-8.5-22.27-3.08-4.7-5.97-7.93-11.67-12.48-5.86-4.68-14.16-6.3-23.68-6.4-1-.04-3.12-.1-3.05-.08.09.08-521.56.08-521.56.08s-3.25.01-4.88.01c-34.16.12-70.09-1.62-103.84-6.04-25.83-3.52-51.73-7.55-76.71-14.06-31.52-8.22-61.85-19.61-92.13-30.9 16.79 22.31 36.16 41.24 58.47 59.46"></path><path d="M5016.27 1502.23c27.39 19.78 60.65 36.02 90.11 47.31 14.96 5.66 34.82 11.93 50.6 15.86 19.06 4.81 40.97 8.41 58.83 8.94 5.39.15.79.04.79.04l382.45.04s8.2-.44 11.05-.99c7.18-1.55 12.99-4.49 15.4-6.02 5.94-3.8 13.38-11.81 17.27-18.14 9.94-16.36 11.7-34 8.49-52.36-3.68-20.98-19.62-44.88-41.24-45.46-3.76-.1-11.28 0-11.28 0H5184.5s-24.1-.47-35.12-.87c-20.38-.8-42.95-3.12-60.76-5.74-15.21-2.19-30.07-5.07-45.31-9.15-51.05-13.79-95.44-39.7-141.85-59.84 31.25 54.64 73.54 96.49 114.81 126.38M4802.31 1242.29c66.49 39.27 146.59 54.77 219.89 57.23 1.75.08 5.22.19 5.22.19l571.75-.04s1.04 0 6.2.04c34.65.04 47.31-34.35 47.15-62.16-.07-9.14-1.62-18.49-4.15-24.77-3.3-8.19-6.95-14.87-12.91-21.32-2.11-2.35-9.79-7.74-13.17-8.57-7.92-1.93-17.67-1.72-17.6-1.72.07 0-425.28-.07-425.28 0 0 0-22.94.93-38.87 2.46-11.47 1.14-20.18 2.34-32.08 4.6-29.29 5.81-53.57 15.36-78.93 23.18-16.92 5.22-34.72 9.12-53.28 11.92-34.13 5.24-71.42 7.62-105.89 5-43.85-3.25-82.84-11.85-124.56-25.08 7.06 11 36.39 27.12 56.51 39.04"></path><path d="M5110.27 1063.01c-19.55 6.89-38.61 15.78-55.72 27.08-22.27 14.75-33.21 26.47-62 39.78-24.66 11.39-44.33 22.62-78.7 35.08-16.57 6.02-43.44 14.27-66.48 18.23-32.91 5.58-64.64 8.03-64.64 8.03s6.72 4.18 10.78 5.43c33.59 10.23 63.25 15.22 97.74 17.77 30.24 2.26 58.03-.69 88.35-5.42 12.44-1.97 28.61-5.8 42.67-9.82 45.64-12.98 97.53-33.58 143.55-33.66 2.57 0 2.28.05 2.28.05h426.31c12.88.03 36.95-4.13 46.61-21.21 11.2-19.69 14.67-43.13 5.26-66.6-2.84-7.06-7.57-17.16-14.37-23.29-5.96-5.4-15.66-8.86-21.28-8.86-1.61-.08-4.37 0-4.37 0h-371.71-2.03c-38.01 0-85.85 4.6-122.25 17.41M5279.59 931.16c-10.52 10.8-25.02 27.352-38.14 43.04-25.23 30.09-36.53 57.18-36.53 57.18h247.92s.66-28.61-5.08-61.72c-5.36-30.762-16.72-63.18-28.79-86.672-.44-24.078 9.72-46.468 11.39-70.25-20.37-12.5-42.27-24.886-60.52-42.437-1.17-1.062-3.05-1.062-3.81 1.83-9.79 36.67-14.95 69.358-22.96 105.6-22.6 17.48-43.79 33.032-63.48 53.43M5535.09 951.512c-7.02 12.937-12.25 30.04-20.3 40.207-1.71-9.06.41-14.66-.82-23.33-1.14-7.28-7.1-4.25-8.3-.83-3.48 9.838-7.18 21.98-10.35 32.07-5.29 16.81-6.99 31.69-6.99 31.69l41.24.06s1.59-.39 2.32-4.42c1.97-10.39 1.5-20.52 4.35-32.562 3.64-15.52 8.36-29.68 14.06-44.136 4.94-12.73 11.34-25.57 16.55-38.223.7-1.66 1.04-4.84-.21-6.5-1.54-1.93-4.17-1.68-5.67 0-11.82 13.42-16.59 28.62-25.88 45.972M5598.93 922.02c-7.01 14.95-16.89 31.76-16.03 48.71 4.57-5.968 6.44-10.27 12.73-13.62 2.87-.91 8.89-.06 7.38 4.96-2.78 9.352-7.08 17.258-11.07 30.078-5.92 18.962-11.67 39.212-11.67 39.212l-42.11.02s2.36-17.08 11.93-43.29c8.39-23.23 21.38-49.79 35.6-74.668 11.6-20.5 22.12-38.363 35.25-53.32 4.51-5.153 15.54-.633 10.77 6.066-12.48 17.633-24.11 37.172-32.78 55.852M5872.29 2344.9c-9.15-3.97-17.22-9.13-21.78-17.91-3.32-6.31-5.54-15.92.79-21.33 11.12-9.49 24.37.22 29.75 9.92 6.78 12.34 5.03 35.95 5.03 35.95s-7.9-4.11-13.79-6.63"></path><path d="M5881.94 2285.97c4 7.53 12.74 15.67 22.34 21.5 10.84 6.63 22.07 13.07 29.88 17.72 7.81 4.7 9.29 7.99 9.29 7.99s-6.43-2.21-9.95-4.3c-19.27-11.49-40.33-24.55-48.87-28.32-10.8-4.71-25.48-5.62-38.69-7.31-2.11 16.69-6.46 23.62-6.4 38.44.11 7.11 1.84 16.34 3.03 22.77 4.15 21.43 4.96 32.25 4.96 32.25s-3.28-3.05-4.47-12.48c-1.35-8.52-2.3-11.66-4.25-21.73-2.24-11.63-4.54-21.48-11.51-28.74-10.01-10.36-19.29-28.82-11.55-42.96 4.5-8.26 12.02-7.06 14.4-9.19 2.35-2.12 3.78-7.2 10.91-9.57 15.4-5.14 32.84 8.66 40.88 23.93"></path><path d="M5861.99 2241.89c5.22 8.49 10.58 14.43 18.82 19.49 13.65 8.32 23.79 13.97 32.13 18.23 3.61 1.81 6.63 3.97 7.55 7.83-3.72-1.4-17.83-8.02-31.85-16.35-10.02-5.99-27.25-13.46-38.85-14-4.58-.2-7.98.93-11.73 1.05-7.77.32-17.67-1.55-17.67-1.55s-2.51 10.98-5.81 18.89c-1.67 4.05-4.36 8.21-5.81 15.82-.97 5.08-1.26 12.7-.87 17.25 1.13 13.73 4.84 27.07 4.21 40.97-8.62-17.93-5.12-40-15.23-53.88-4.27-5.83-7.66-10.43-11.03-17.78-5.55-12.06-4.89-24.55 2.63-36.18 4.33-6.63 13.9-6.38 15.55-7.66 2.51-1.86 4.66-8.79 14.01-10.88 16.02-3.59 34.9 3.83 43.95 18.75M5866.46 1891.3c3.74 7.54 6.14 17.42 10.89 24.41-10.75-1.61-12.5-2.84-28.02-4.55-3.39-.32-10.42-3.84-12.74-6.15-6.14-6.21-11.5-11.97-9.13-22.38.92-4.05 4.5-7.02 6.49-7.64 12.93-4.21 26.06 3.48 32.51 16.31"></path><path d="M5879.59 1870.78c14.69 3.43 31.67 10.64 38.48 8.37-13.79-7.33-31.18-9.99-46.44-14.35-11.66-3.35-19.97-12.16-30.39-20.15-9.53-7.27-22.24-10.22-33.58-4.88-3.83 1.82-7.55 7.99-8.21 11.28-.59 2.63-6.07 5.27-8.88 7.58-2.85 2.36-4.2 8.25-4.27 10.53-.48 20.33 14.99 28.54 29.89 40.49 11.24 8.99 25.81 47.16 34.7 55.07-1.56-12.3-17.57-35.51-24.54-53.58-5.53-14.39-3.71-25.89-7.28-41.04 10.66-.68 22.53-2.92 33.26-3.09 8.44-.11 18.61 1.72 27.26 3.77"></path><path d="M5864.11 1839.43c-8.26-1.53-18.35-4.13-25.23-5.59-23.97-5.07-35.39 6.66-54.53 6.44 1.69 21.9-5.92 31.71.34 45.87 5.58 12.6 10.75 25.94 15.54 36.62 3.9 8.56 5.08 15.79 5.08 15.79s-5.81-8.69-22.31-40.86c-5.74-11.22-16.02-13.63-25.16-24.23-10.5-12.12-16.52-37.75 2.9-48.51 3.86-2.12 3.29-8.78 6.12-11.47 12.97-12.21 39.19-10.98 55.57 3.9 13.06 11.89 28.91 13.82 42.42 17.32 7.91 2.05 14.84 5.4 14.84 5.4s-3.75 1.54-15.58-.68M5384.11 1585.19c-.96 0-1.97 0 0 0zm-111.89 315.54c-7.99-10.56-11.68-22.7-20.5-31.92-4.6-4.83-11.62-2.57-15.26 2.99-4.06 6.29-10.6 15.18-5.75 21.4 8.02 10.26 24.76 16.81 39.02 14.96.84-.1 5.43-3.49 2.49-7.43zm-38.34-60.39c-4.47-11.96-17.8-13.25-29.14-15.62-2.12-.46-8.66 0-11.58 2.87-4.9 4.8-9.14 11.35-8.29 19.54.46 5.06 4.68 10.02 9.92 12.03 9.46 3.67 20.69 9.57 30.02 4.33 8.01-4.49 12.23-14.72 9.07-23.15zm-24.55-63.22c-3.27-4.71-11.65 10.95-12.73 18.13-3.14 20.76 15.06 26.06 30.24 25.42.46-12.39-9.14-31.57-17.51-43.55zm-16.39-56.03c-2.97-8.35-4.4-16.04-7.72-23.69-3.23-7.4-16.98-10.04-24.6-7.67-10.9 3.37-20.24 27.83-7.86 37.2 9.48 7.08 19.29 8.22 31.36 9.7 2.17.26 10.27-.23 10.6-.99 2.02-5.07.74-7.61-1.78-14.55zm-18.33-64.58c-2.2-6.43-3.19-13.03-6.02-19.2-1.42-3.12-3.3.98-3.37 1.19-4.28 10.64-6.98 19.66-3.33 29.03 2.07 5.18 9.17 9.95 15.9 10.37-.41-6.67-.89-14.9-3.18-21.39zm-21.66-31.5c-4.91 2.23-4.84 8.55-6.91 12.49-1.93 3.84-6.13 9.12-4.4 14.16 9.49-5.32 13.9-14.83 11.31-26.65zm-16.39 39.32c-11.33 9.31-12.3 24.21-19.85 35.61 8.33 5.33 22.39 4.26 26.7-6.29 3.46-8.48 5.97-20.94-2.63-27.41-.93-.69-3.13-2.81-4.22-1.91zm-42.23 76.84c-1.7 2.43-5.07 9.43-2.5 10.32 20.27 6.98 35.48 7.21 39.82-14.49 3.08-15.48-7.5-28.77-22.33-23.36-4.24 1.58-8.46 18.07-14.99 27.53zm-29.51 49c-1.42 1.78-2.56 7.17-.79 8.55 10.54 8.48 26.02 9.13 38.01 7.96 15.81-1.44 19.06-16.13 16.42-28.32-3.49-16.04-27.81-18.03-34.69-15.36-6.77 2.6-11.49 17.93-18.95 27.17zm3.45 57.03c13.67 8.85 39.8 15.42 44.14-8.57 1.32-7.23-.49-16.83-10.25-19.97-10.03-3.22-21.85-6.69-31.02-2.97-11.27 4.61-13.48 24.65-2.87 31.51zm-14.16 40.35c1.04 4.61 6.12 6.78 10.41 7.88 11.07 2.73 23.44 6.85 33.58.38 3.97-2.5 4.26-6.04 4.78-11.02.9-8.06-.25-14.65-5.56-17.74-10.78-6.32-21.73-6.89-34.25-4.43-10.16 2-10.99 15.47-8.96 24.93zm-11.34-62.21c-9.47 7.01-13.66 16.91-20.64 26.72-1.69 2.4 0 3.39 1.3 3.76 16.81 4.76 29.27-3.63 26.66-21.96-.47-3.56-2.79-11.85-7.32-8.52zm-46.38 56.61c-6.31 5.45-1.93 14.92 3.56 17.68 9.61 4.77 24.72 5.49 34.7 2.12 6.44-2.16 9.7-11.39 8.53-21.46-.47-4.13-1.72-8.68-3.76-10.02-7.6-5.19-19.38-5.39-28.65-3.47-6.55 1.39-8.89 10.34-14.38 15.15zm-7.27 57.25c6.09 13.25 28.32 13.37 40.41 7.46 9.85-4.85 11.1-23.19.33-30.42-8.58-5.72-22.12-3.62-31.22-1.95-12.94 2.38-13.97 15.1-9.52 24.91zm.5 49.6c9.24 8.79 21.18 4.75 32.3 3.22 2.16-.3 4.72-1.82 6.18-3.27 7.58-7.67 8.19-20.24-.27-26.53-9.74-7.25-21.92-2.54-33.64-1.95-3.16.13-6.65 3.85-7.36 6.23-2.11 7.43-3.39 16.5 2.79 22.3zm5.95 41.5c9.79 4.09 26.63 5.97 33.57-5.03 4.26-6.74 3.02-19.22-3.82-21.04-6.7-1.72-29.45-5.5-34.9 7.09-2.7 6.19-1.55 16.16 5.15 18.98zm30.15 35.26c2.84-1.26 4.61-3.53 5.28-7.01 1.39-7.55-.59-15.75-7.84-17.07-10.88-1.99-27.06-2.62-27 12.77.04 17.18 16.96 16.99 29.56 11.31zm-21.9 31.92c5.78 2.22 15.32 1.72 20.52-.99 2.62-1.37 6.16-5.68 4.66-10.22-1.84-5.93-7.36-8.07-13.63-8.14-6.01-.06-12.92.42-15.35 5.34-2.31 4.65-1.32 12.04 3.8 14.01zm6.75 25.74c5.3 1.93 13.13 1.8 16.99-2.38 5.29-5.79 1.12-15-8.89-14.54-3.52.15-7.69 1.36-9.83 2.58-5.16 2.91-3.46 12.49 1.73 14.34zm23.81 16.59c.69 2.23 4.17 4.85 5.99 5.49 3.98 1.41 8.62 1.7 12.42.19 7.6-3.13 6.58-12.53-1.55-15.83-3.64-1.48-9.22-2.42-11.95-1.48-5.11 1.74-6.54 6.18-4.91 11.63zm23.69-36.77c-8.29-2.42-19.85-2.89-22.32 5.61-4.21 14.42 14.01 16.58 23.44 13.55 6.52-2.06 8.81-16.3-1.12-19.16zm5.48 47.64c2.63 8.93 12.77 13.78 21.94 11.05 7.9-2.31 9.72-13.06 4.38-18.28-2.41-2.36-6.4-4.74-10.7-5.69-9.38-2.09-18.59 3.07-15.62 12.92zm41.25-32.8c-1.47-5.83-5.76-9.84-12.6-11.36-6.8-1.49-16.22-1.9-19.99 2.3-3.61 3.98-5.25 9.57-2.26 13.87 6.03 8.56 17.06 11.56 26.88 9.38 5.6-1.31 9.73-7.05 7.97-14.19zm-3.65 34.31c3.65 8.11 12.95 12.19 21.89 9.47 1.77-.57 5.46-3.45 5.96-6.29 1.07-5.64-.89-10.79-5.59-13.74-6.05-3.84-11.03-6-17.95-3.17-5.21 2.18-6.49 8.94-4.31 13.73zm38.45-22.77c4.06-6.91-2.14-13.84-5.29-15.74-7-4.09-16.84-6.6-21.05.32-4.14 6.8-.71 14.86 6.51 17.85 6.9 2.86 14.04 7.2 19.83-2.43zm11.58-26.38c4.55-3.77 8.57-11.7 3.1-17.97-5.15-5.9-11.52-7.66-19.6-8.97-5.45-.93-12.43 3.11-13.3 7.94-.82 4.14-1.58 11.71 2.53 15.2 8.02 6.83 18.79 10.79 27.27 3.8zm9.67 44.98c4.31-1.27 7.07-5.82 4.9-10.22-1.31-2.7-5.18-5.64-7.63-7.16-6.78-4.16-12.57-2.46-14.71 2.52-3.89 9.14 9.22 17.29 17.44 14.86zm16.49-22.79c4.76-.42 6.94-3.73 7.88-7.36 1.23-4.87-.38-9.37-4.49-12.14-4.89-3.25-10.99-5.17-15.87-5.25-6.59-.1-12.69 9.57-9.13 15.86 3.79 6.73 13.31 9.61 21.61 8.89zm27.3-34.89c2.8-8.28-3.28-12.14-9.67-15.54-6.49-3.47-15.22-6.71-19.74-2.39-5.76 5.43-8.34 14.58-1.9 20.6 8.91 8.37 25.4 14.65 31.31-2.67zm11.77-20.77c10.46-1.33 12.54-16.2 10.43-21.58-2.4-4.62-7.66-8.24-10.43-9.66-7.68-3.95-16.64-5.45-23.69-1.8-6.43 3.33-9.21 13.09-5.73 20.73 4.73 10.34 19.63 13.6 29.42 12.31zm21.51-46.04c3.59-5 2.8-13.88.67-16.66-6.6-9.01-24.96-14.16-32.53-10.47-5.76 2.82-11.43 15.5-4.7 23.11 7.01 7.9 19.23 12.61 30.32 10.3 2.46-.54 4.08-3.27 6.24-6.28zm4.65-28.37c5.03-.54 9.51-6.07 11.93-12.11 3.17-7.8-.03-16.89-2.53-18.59-6.01-4.09-25.07-15.56-37.08-8.69-6.6 3.79-8.42 12.44-8.83 17.55-1.32 16.5 23.73 23.27 36.51 21.84zm-70.39-118.09c-2.58 6.55-4.95 16.24.19 20.22 10.39 8.19 33.91 15.37 42.84 2.97 5.82-8.05 4.11-21.69-6.07-26.92-10.51-5.36-31.04-11.54-36.96 3.73zm-50.42-.72c10.43 5.3 25.47 11.7 36.69 4.46 5.13-3.29 10.44-16.95 6.82-23.01-7.7-12.88-27.97-16.15-40.85-12.85-10.97 2.85-14.27 25.53-2.66 31.4zm-9.38 44.49c12.58 8.86 37.45 14.57 43.42-4.77 1.56-5.02 2.44-10.57-.12-14.62-6.97-11.21-24.65-14.16-36.48-12.49-12.82 1.85-18.86 23.43-6.82 31.88zm-10.59 45.07c12.09 6.86 37.85 15.97 43.93-3.67 2.42-8.03 2.18-17.95-4.69-21.49-9.86-5.16-25.47-10.58-36.82-3.5-9.47 6-10.75 23.89-2.42 28.66zm67.68 81.04c-5.08-4.53-10.21-5.5-16.95-7.79-9.43-3.2-19.31 4.08-20.4 13.1-1.82 15.45 14.75 17.76 25.71 19.69 7.99 1.44 12.94-5.73 14.41-10.56 1.5-4.64 1.31-10.87-2.77-14.44zm20.31-36.37c-7.19-10.72-36.17-17.46-42.55-6.44-4.67 8.06-7.59 19.39 1.19 24.8 9.22 5.66 20.13 9.05 30.86 7.12 10.09-1.77 15.21-18.36 10.5-25.48zm15.44-66.34c4.13-6.55 7.01-15.38.87-23.52-5.53-7.45-25.36-10.94-35.5-8.48-5.56 1.4-8.21 8.16-9.06 12.73-1.17 6.17-1.74 12.38 3.74 17.41 7.86 7.2 18.33 7.05 28.4 7.05 4.14 0 10-2.7 11.55-5.19zm-5.76 22.26c-6.17-11.34-27.09-12.8-36.49-11.54-6.63.88-11.29 11.56-11.09 20.5.06 4.6 1.5 7.65 4.63 9.33 10.45 5.6 21.15 9.35 32.39 7.53 10.95-1.74 15.22-17.22 10.56-25.82zm-110.07 24.43c-7.11 21.88 20.22 28.77 36.18 25.41 11.1-2.32 14.81-23.66 4.47-30.39-12.77-8.32-35.47-11-40.65 4.98zm-41.21-53.73c8.19 8.44 22.96 8.97 34.52 7.42 7.08-.99 10.12-8.15 11.11-15.92 2.76-21.38-25.94-24.98-39.59-19.98-9 3.3-13.69 20.58-6.04 28.48zm-5.79 41.41c8.58 10.08 22.88 12.47 34.75 9.21 7.24-1.97 10.58-10.43 10.41-19.91-.14-5.38-3.82-9.29-7.14-10.65-8.42-3.42-18.15-5.96-27.35-4.84-11.35 1.4-18.23 17.26-10.67 26.19zm1.37 45.11c10.53 4.3 30.15 8.14 33.45-6.89 4.46-20.04-19.17-23.29-31.8-19.81-9.66 2.66-11.5 22.72-1.65 26.7zm75.72 33.09c7.88-4.47 9.52-17.08 4.74-24.39-6.37-9.67-28.15-15.28-39.84-6.81-6.68 4.85-10.29 24.73 3.39 29.5 10.94 3.82 21.43 7.53 31.71 1.7zm-11.15 14.39c-8.93-5.53-21.66-7.73-30.1-3.03-7.34 4.01-7.07 14.75-3.42 20.52 5.98 9.62 20.86 10.66 31.15 7.65 8.84-2.57 12.17-19.04 2.37-25.14zm-72.29 15.67c.91 2.86 2.18 3.68 3.95 4.55 7.52 3.58 15.76 4.54 22.94-.08 5.19-3.35 4.74-11.09.9-15.11-5.64-5.91-17.06-6.15-24.38-2.31-4.71 2.46-4.93 8.29-3.41 12.95zm2.41-31.35c3.32 9.49 15.14 8.96 24.1 7.8 11.01-1.44 13.23-15.56 9.32-21.5-5.41-8.2-17.76-6.63-27.59-5.38-7.99 1.02-8.46 11.6-5.83 19.08zm155.51-285.2c2.71-10.71 0-20.89-9.55-24.3-12.23-4.32-28.8-10.64-38.6-4.05-11.2 7.51-16.58 28.81-3.72 37.16 15.2 9.94 45.45 16.45 51.87-8.81zm-16.51 33.3c-8.24-9.35-21.67-9.04-34.86-12.91-5.09-1.47-11.13 3.02-13.79 7.68-4.86 8.7-9.75 20.36-.4 28.77 7.73 7.05 18.27 6.45 27.75 9.28 4.25 1.28 9.46 2.77 14.62-.72 10.68-7.29 14.84-22.91 6.68-32.1zm87.31 140.15c2.31-6.8 5.44-11.8 2.79-18.58-3.15-8.33-11.22-9.47-18.79-12.21-7.07-2.56-18.88-5.8-24.79.4-6.81 7.04-9.55 21.39-1.4 27.55 10.55 7.86 36.6 18.7 42.19 2.84zm143.28 61.18c6.23 25.39 13.96 51.14 15.91 77.97 2.83 40.08-5.81 81.73-31.51 112.08 2.53-13.08 5.88-24.14 7.64-37.88 2.08-16.59-.26-35.07-4.54-51.77-3.25-12.64-8.93-24.93-14.59-36.67-6.66-13.91-16.62-29.04-26.55-41.45-27.81-34.58-71.13-102.07-71.13-102.07s-3.65.26-5.79.26c-.51 8.4 19.44 37.22 29.5 53.35 22.09 35.35 38.83 54.37 58.05 85.03 12.04 19.33 21.23 42.84 24.18 64.16 6 43.43-17.42 95.47-51.1 112.79 7.7-32.44 6.9-78.16-10.38-97.4-32.69-36.42-52.12-63.69-75.44-110.39-.68-1.25-6.13 6.3-10.64 9.24-5.08 3.34-2.24 13.36-4.05 20.1-1.64 5.74-4.35 10.15-5.13 11.15-6.91 8.46-13.59 8.99-15.04 11.53-1.69 2.86-.88 10-6.9 18.14-3.01 4.08-10.68 7.11-13.79 10.96-3.38 4.2-4.91 17.05-14.22 22.32-4.42 2.48-6.48 10.19-10.71 13.97-13.09 11.59-26.16 9.35-28.67 10.08-3.36.91-9.93 9.27-21.64 11.28-11.41 1.95-17.72-5.68-23.65-2.91-14.9 6.88-29.15 7.45-44.99-10.19-4.74-5.24-12.96-.34-23.21-8.18-9.01-6.86-9.16-13.2-13.75-14.07-8.61-1.61-15.03-8.5-18.35-16.02-1.73-3.88-3.02-11.7-4.01-16.86-1.42-7.12-5.03-13.7-5.1-18.93-.08-7.27 2.22-11.21 1.57-14.47-1.05-4.71-4.87-9.03-5.34-13.44-.33-2.5-.55-9.16 1.27-12.91 2.28-4.62-1.6-8.64-3.64-13.56-1.93-4.58-3.96-12.42-3.35-17.95.83-7.59 5.17-10.37 1.79-16.35-5.54-9.72-12.54-24.88-.27-44.25 2.25-3.54-5.14-10.43-5.55-20.54-.46-11 6.17-19.12 7.99-24 .34-1.75-2.93-1.65-3.05-3.53-29.22 30.9-55.06 59.39-88.93 86.22-20.72 16.36-41.19 30.12-64.12 42.41-61.3 32.87-132.49 54.85-197 46.82 24.29-19.56 54.95-33.51 79.9-55.72 23.64-21.06 45.08-39.04 66.62-61.41 33.8-35.1 61.25-70.7 89.86-112.01 8.51-12.23 14.09-20.41 22.02-33.17 7.97-12.76 16.83-26.31 24.1-38.96 36.61-63.58 66.62-122.44 96.98-187.58 8.42-18.02 15.5-36.88 23.77-54.79 2.19-4.85 5.36-1.25 7.6 0 10.98 6.36 22.65 11.66 34.06 17.04 9.08 4.18 17.36 7.05 25.49 10.18 20.55 7.82 40.03 12.08 61.56 16.55 35.91 7.52 100.44 5.98 100.44 5.98l122.34.04h3.34c-1.28 35.06-9.61 69.14-11.63 104.31-1.56 28.5-.61 56.04.41 84.59 2.71 77.36 14.09 160.4 31.37 230.88M4574.02 2295.17c-23.87-23.8-30.99-32.56-44.92-58.88-8.2-15.47-18.6-35.33-21.58-60.93 49.06 18.68 89.08 56.78 125.23 98.87 26.76 31.2 47.52 72.6 73.89 103.42-46.45-15.58-95.5-45.51-132.62-82.48"></path><path d="M4433.59 2228.26c18.5 31.24 44.98 65.01 72.45 88.06-12.72-28.57-28.38-56.88-33.77-90.68-10.69-67.26-20.76-114.38-31.92-175.78 30.51 21.76 62.69 55.95 95.04 79.82 24.99 18.36 50.05 30.63 75.75 48.3 15.29 10.54 25.25 24.08 37.95 36.76-15.14-63.83-71.16-128.26-111.27-158.31-50.38-37.79-68.45-43.81-149.42-126.14-10.28 101.66-8.46 207.32 45.19 297.97"></path><path d="M4268.4 1890.61c3.77 52.8 10.12 95.02 22.93 146.51 8.98 35.97 28.35 89.51 56.24 111.47-3.41-13.04-5.21-32.6-6.53-45.79-5.46-54.39 4.95-117.57 6.2-171.91.61-26.71.38-47.31-3.62-72.41-4.15-26.33-.7-58.62-.7-58.62s14.43 16.47 27.31 36.99c28.15 44.7 37.16 57.97 59.84 82.19 28.12 30.05 59.59 57.87 95.12 82.52-4.29-16.7-22.43-49.16-29.92-62.21-10.01-17.46-14.55-33.31-38.22-72.85-33.31-55.55-48.14-63.04-85.13-122.45-8.01-12.92-40.85-62.06-48.81-77.08-17.33 35.86-23.86 67.19-45.11 125.56-13.36 36.68-11.36 73.36-9.6 98.08"></path><path d="M4216.97 1615.93c-20.09 52.09-29.28 100.4-36.1 155.23-4.16 33.55-2.23 78.27 9.76 110.53 3.14-7.88 9.54-27.87 10.41-30.87 8.91-29.96 12.63-44.35 25.08-73.25 9.52-22.16 21.17-39.82 33.63-61.73 11.32-19.99 20.88-46.31 29.09-66.45 26.37-64.56 28.32-125.01 38.4-131.62 7.27 15.54 9.54 30.42 10.35 37.75 7.84 71.45 17.25 136.39 107.22 220.6 8.27-25.07 4.07-71.28-.89-96.03-10.75-54.12-19.44-80.11-43.28-132.56-12.59-27.62-29.42-68.27-34.03-81.73-12.08-35.07-16.21-53.44-23.82-74.2-42.48 70.79-94.75 143.89-125.82 224.33"></path><path d="M4286.99 1290.31c-30.22 42.11-41.26 63.27-60.94 108.07-16.53 37.61-21.28 51.54-30.96 93.64-5.29 22.94-8.28 43.77-4.17 57.35 23.67-42.88 39.83-90.86 70.81-126.41 24.59-28.21 48.27-52.24 67.82-76.05 29.99-36.59 53.61-71.22 82.38-109.3 2.44 19.09 3.37 38.44-.91 69.71-5.86 42.87-2.25 78 5.23 119.5 9.49 52.65 16.45 78.72 34.72 131.98 22.35-43.84 22.26-94.54 27.87-141.02 10.82-90.21-17.39-197.78-22.93-242.6-1.5-11.82.55-40.98 1.14-52.34-42.2 33.25-79.75 66.8-116.13 103.3-16.59 16.55-39.35 43.96-53.93 64.17"></path><path d="M4446.98 959.53c-19.22 13.84-70.84 53.31-95.28 84.36-35.61 45.21-43.45 64.58-66.92 116.59-2.88 6.35-16.18 35.78-17.27 55.77 76.95-92.9 145.84-106.74 219.23-183.83 26.93-28.24 54.52-54.83 69.08-68.158 11.18-10.274 25.05-13.403 25.05-13.403s-1.46 19.812-8.7 33.58c-48.96 93.61-58.21 191.45-50.77 296.46 22.35-27.67 29.39-46.15 43.58-72.9 15.43-29.16 23.29-47.18 30.5-65.13 41.9-104.27 52.81-224.74 78.7-285.358-79.91 26.918-142.84 41.308-227.2 102.02"></path><path d="M4774.72 713.45c-21.63-1.47-64.02-1.33-86.59 2.35-114.4 18.302-220.74 101.212-274.21 192.278 48.48-29.598 83.55-49.348 126.19-64.11 37.99-13.14 74.02-17.02 137.42-35.027 38.27-10.8 76.15-26.13 89.46-31.112 42.42-15.797 60.28-11.898 60.28-11.898s0 6.44-15.85 23.718c-31.58 34.46-43.14 42.71-69.12 69.204-8.52 8.75-28.07 38.476-37.99 58.226-28.08 55.89-31.19 100.692-56.83 162.072 93.55-54.94 139.13-130.74 188.58-226.322 15.21-29.258 35.79-63.066 54.57-81.656 12.64-12.473 30.44-31.422 30.44-31.422s-13.04-3.078-53.67-9.06c-18.21-2.678-57.05-14.76-92.68-17.24M5228.18 706.18c49.4-8.06 93.28-20.07 138.21-35.48 12.07-4.15 30.43-13.29 43.15-19.72 31.86-16.21 50.17-26.718 77.52-45.54 44.07-30.35 91.42-63.05 134.12-112.67.93-.97 7.82-8.348 3.21-11.96-8.35-6.548-28.97-15.912-35.84-9.84-39.09 34.75-37.1 45.89-84.48 88.768-12.14 10.953-30.48 26.3-52.39 41.293-21.38 14.618-47.22 30.6-71.22 42.45-21.82 10.73-55.43 13.93-74.29 13.93l.25-.13c-8.57.34-57.84.6-69.24-.132-96.8-6.628-92.06-15.296-147.88-30.41-45.92-12.488-95.16-21.398-144.07-27.957-50.07-6.8-94.9-7.62-141.85-2.82-63.64 6.552-133.27 24.29-185.24 57.77 47.52-.79 96.31-9.93 143.58-6.3 19.88 1.54 52.16 4.53 73.99 11.26 43.43 13.33 68.34 18.548 114.33 31.36 39.5 11 79.34 14.802 120.59 19.14 57.11 6.11 110 4.74 157.55-3.01M6113.39 2295.17c23.89-23.8 31.04-32.56 44.96-58.88 8.18-15.47 18.6-35.33 21.56-60.93-49.08 18.68-89.06 56.78-125.25 98.87-26.77 31.2-47.49 72.6-73.87 103.42 46.47-15.58 95.5-45.51 132.6-82.48"></path><path d="M6253.87 2228.26c-18.52 31.24-45 65.01-72.45 88.06 12.84-30.75 31.55-69.05 33.76-90.68 6.81-67.73 20.74-114.38 31.91-175.78-30.51 21.76-62.72 55.95-95.05 79.82-24.96 18.36-50.03 30.63-75.7 48.3-15.33 10.54-25.28 24.08-38 36.76 15.15-63.83 71.17-128.26 111.3-158.31 50.36-37.79 68.43-43.81 149.35-126.14 10.29 101.66 8.47 207.32-45.12 297.97"></path><path d="M6419.03 1890.61c-3.8 52.8-10.06 95.02-22.92 146.51-8.98 35.97-28.35 89.51-56.29 111.47 3.46-13.04 5.23-32.6 6.58-45.79 5.49-54.39-4.9-117.57-6.19-171.91-.61-26.71-.39-47.31 3.59-72.41 4.15-26.33.71-58.62.71-58.62s-14.4 16.47-27.33 36.99c-28.08 44.7-37.1 57.97-59.84 82.19-28.09 30.05-59.6 57.87-95.13 82.52 4.32-16.7 22.46-49.16 29.96-62.21 10.05-17.46 14.52-33.31 38.22-72.85 33.3-55.55 48.15-63.04 85.11-122.45 8-12.92 40.89-62.06 48.83-77.08 17.35 35.86 23.85 67.19 45.13 125.56 13.38 36.68 11.38 73.36 9.57 98.08"></path><path d="M6470.47 1615.93c20.08 52.09 29.26 100.4 36.1 155.23 4.18 33.55 2.21 78.27-9.73 110.53-3.15-7.88-9.55-27.87-10.41-30.87-8.95-29.96-12.64-44.35-25.07-73.25-9.53-22.16-21.24-39.82-33.66-61.73-11.33-19.99-20.88-46.31-29.14-66.45-26.33-64.56-28.29-125.01-38.35-131.62-7.3 15.54-9.56 30.42-10.36 37.75-7.84 71.45-17.25 136.39-107.2 220.6-8.3-25.07-4.1-71.28.83-96.03 10.8-54.12 19.52-80.11 43.31-132.56 12.61-27.62 29.42-68.27 34.07-81.73 12-35.07 16.17-53.44 23.82-74.2 42.45 70.79 94.72 143.89 125.79 224.33"></path><path d="M6400.44 1290.31c30.27 42.11 41.28 63.27 60.95 108.07 16.53 37.61 21.26 51.54 30.96 93.64 5.3 22.94 8.28 43.77 4.14 57.35-23.6-42.88-39.85-90.86-70.83-126.41-24.54-28.21-48.23-52.24-67.77-76.05-29.96-36.59-53.64-71.22-82.38-109.3-2.41 19.09-3.39 38.44.89 69.71 5.88 42.87 2.26 78-5.21 119.5-9.49 52.65-16.45 78.72-34.71 131.98-22.32-43.84-22.25-94.54-27.89-141.02-10.85-90.21 17.45-197.78 22.98-242.6 1.46-11.82-.58-40.98-1.18-52.34 42.19 33.25 79.74 66.8 116.14 103.3 16.59 16.55 39.3 43.96 53.91 64.17"></path><path d="M6240.48 959.53c19.2 13.84 70.84 53.31 95.25 84.36 35.62 45.21 43.46 64.58 66.96 116.59 2.83 6.35 16.16 35.78 17.23 55.77-76.93-92.9-145.84-106.74-219.23-183.83-26.91-28.24-54.49-54.83-69.05-68.158-11.18-10.274-25.05-13.403-25.05-13.403s1.44 19.812 8.66 33.58c48.99 93.61 58.24 191.45 50.78 296.46-22.3-27.67-29.39-46.15-43.56-72.9-15.41-29.16-23.3-47.18-30.48-65.13-41.93-104.27-52.89-224.74-78.77-285.358 79.99 26.918 142.89 41.308 227.26 102.02"></path><path d="M5912.72 713.45c21.66-1.47 64.01-1.33 86.64 2.35 114.39 18.302 220.68 101.212 274.18 192.278-48.54-29.598-83.61-49.348-126.22-64.11-38.01-13.14-74.01-17.02-137.37-35.027-38.31-10.8-76.17-26.13-89.5-31.112-42.42-15.797-60.27-11.898-60.27-11.898s0 6.44 15.83 23.718c31.59 34.46 43.18 42.71 69.1 69.204 8.55 8.75 28.1 38.476 38.02 58.226 28.07 55.89 31.2 100.692 56.87 162.072-93.55-54.94-139.23-130.74-188.66-226.322-15.17-29.258-35.72-63.066-54.51-81.656-12.62-12.473-30.46-31.422-30.46-31.422s13.04-3.078 53.7-9.06c18.19-2.678 56.99-14.76 92.65-17.24M5459.26 706.18c-49.39-8.06-93.23-20.07-138.19-35.48-12.11-4.15-30.45-13.29-43.18-19.72-31.84-16.21-50.12-26.718-77.51-45.54-44.11-30.35-91.38-63.05-134.13-112.67-.92-.97-7.85-8.348-3.21-11.96 8.39-6.548 29.02-15.912 35.81-9.84 39.11 34.75 37.11 45.89 84.52 88.768 12.1 10.953 30.44 26.3 52.39 41.293 21.42 14.618 47.18 30.6 71.22 42.45 21.79 10.73 55.45 13.93 74.29 13.93l-.27-.13c8.58.34 57.84.6 69.25-.132 96.84-6.628 92.06-15.296 147.87-30.41 45.93-12.488 95.17-21.398 144.08-27.957 50.05-6.8 94.91-7.62 141.85-2.82 63.66 6.552 133.26 24.29 185.22 57.77-47.49-.79-96.25-9.93-143.58-6.3-19.89 1.54-52.13 4.53-73.96 11.26-43.44 13.33-68.37 18.548-114.31 31.36-39.52 11-79.36 14.802-120.58 19.14-57.15 6.11-110.02 4.74-157.58-3.01M5282.52 2834.65l-86.95-322.88h-92.31l-57.74 210.34-56.45-210.34h-92.09l-86.95 322.88h86.91l49.53-222.26 59.57 222.26h83.06l56.53-222.26 52.01 222.26h84.88M5569.39 2772.2h-148.53v-60.07h137.68v-62.45h-137.68v-137.91h-82.83v322.88h231.36v-62.45M5807.27 2730.89c0 9.08-2.47 16.9-7.37 23.47-4.91 6.56-10.63 11.14-17.14 13.74-8.67 3.45-17.13 5.36-25.37 5.72-8.23.36-19.23.55-32.96.55h-14.3v-96.5h23.84c14.17 0 25.84.87 35.02 2.6 9.18 1.73 16.89 5.2 23.1 10.39 5.34 4.61 9.22 10.13 11.6 16.55 2.38 6.41 3.58 14.24 3.58 23.48zm86.09 1.84c0-14.45-2.54-28.58-7.59-42.39-5.08-13.8-12.3-25.41-21.69-34.8-12.87-12.73-27.21-22.34-43.04-28.84-15.83-6.51-35.52-9.75-59.09-9.75h-51.82v-105.18h-83.26v322.88h137.04c20.51 0 37.83-1.77 51.93-5.31 14.09-3.55 26.56-8.86 37.4-15.94 13-8.53 22.95-19.44 29.82-32.74 6.86-13.3 10.3-29.27 10.3-47.93M4693.33 257.88l-58.05-187.31h-63.75l-38.16 126.27-37.71-126.27h-64.38l-57.54 187.31h62.99l32.15-129.1 39.97 129.1h53.21l38-129.1 31.62 129.1h61.65M4843.79 286.07h-4.48c-2.68.79-6.14 1.668-10.41 2.668-4.27 1-8.84 1.512-13.72 1.512-11.76 0-19.71-2.11-23.87-6.352-4.16-4.226-6.23-12.386-6.23-24.507v-1.51h46.19v-40.69h-44.19V70.57h-60.21v146.62h-25.71v40.69h25.71v5.17c0 22.91 6.08 40.09 18.26 51.54 12.16 11.46 30.6 17.18 55.29 17.18 8.9 0 16.95-.3 24.18-.918 7.23-.602 13.62-1.41 19.19-2.41V286.07M4983.16 165.56c0 18.202-3.1 31.42-9.31 39.64-6.21 8.21-16.05 12.312-29.47 12.312-5.65 0-11.48-.864-17.46-2.582a73.45 73.45 0 0 1-17.14-7.4v-94.1c3.99-1.55 8.26-2.56 12.81-3.008 4.55-.434 9.04-.652 13.47-.652 15.86 0 27.69 4.628 35.45 13.89 7.78 9.28 11.65 23.238 11.65 41.9zm61.88 1.26c0-15.468-2.35-29.53-7.07-42.21-4.72-12.68-10.92-23.122-18.59-31.36-7.98-8.668-17.04-15.23-27.14-19.668-10.1-4.46-20.93-6.684-32.48-6.684-10.67 0-19.73 1.14-27.16 3.422-7.45 2.282-15.06 5.47-22.82 9.578V1.852h-60.22V257.88h60.22v-19.52c9.21 7.34 18.63 13.288 28.23 17.86 9.61 4.55 20.69 6.83 33.24 6.83 23.32 0 41.46-8.562 54.39-25.69 12.93-17.11 19.4-40.64 19.4-70.54M5073.5 70.57h62.39v65.55h-62.39zM5295.28 118.61c3.9 4.78 6.82 10.53 8.76 17.26 1.95 6.732 2.91 16.052 2.91 27.94 0 11.01-.98 20.23-2.99 27.69-2.01 7.45-4.78 13.39-8.33 17.852-3.58 4.546-7.85 7.77-12.85 9.668-5 1.878-10.41 2.84-16.18 2.84-5.79 0-10.93-.778-15.44-2.34-4.5-1.56-8.81-4.668-12.93-9.34-3.65-4.34-6.57-10.29-8.75-17.84-2.17-7.57-3.25-17.07-3.25-28.53 0-10.228.94-19.1 2.83-26.61 1.91-7.5 4.67-13.54 8.34-18.098 3.58-4.332 7.81-7.5 12.78-9.512 4.93-1.988 10.57-2.988 16.92-2.988 5.45 0 10.64.91 15.6 2.75 4.94 1.828 9.15 4.918 12.58 9.257zm73.9 45.53c0-30.8-8.98-55.08-26.94-72.8-17.95-17.738-43.17-26.61-75.64-26.61s-57.68 8.872-75.65 26.61c-17.96 17.72-26.94 42-26.94 72.8 0 31.02 9.04 55.38 27.11 73.06s43.24 26.52 75.48 26.52c32.69 0 57.95-8.888 75.8-26.69 17.86-17.792 26.78-42.08 26.78-72.89M5530.92 200.68h-5.33c-2.56.87-6.65 1.55-12.32 1.992-5.67.45-10.38.668-14.16.668-8.53 0-16.07-.56-22.62-1.668-6.55-1.113-13.6-3-21.14-5.66V70.57h-60.21v187.31h60.21v-27.52c13.19 11.35 24.69 18.878 34.45 22.6 9.76 3.73 18.75 5.6 26.96 5.6 2.11 0 4.5-.06 7.16-.18 2.67-.11 5-.27 7-.5v-57.2M5669.79 129.61v84.91c-3.45 1.44-7.67 2.582-12.65 3.41-4.99.84-9.49 1.26-13.49 1.26-15.75 0-27.56-4.542-35.44-13.6-7.88-9.06-11.81-21.7-11.81-37.942 0-18.02 3.36-30.59 10.06-37.7 6.71-7.128 16.67-10.678 29.88-10.678 5.98 0 11.86.95 17.63 2.84 5.78 1.89 11.05 4.39 15.82 7.5zM5730 92.08c0-17.57-2.5-32.352-7.51-44.363-5-12.02-12-21.41-21.02-28.19-9-6.9-19.87-11.87-32.59-14.94-12.75-3.05-27.11-4.59-43.13-4.59-13.01 0-25.82.79-38.45 2.36-12.62 1.538-23.55 3.43-32.77 5.66v46.87h7.33c7.32-2.902 16.26-5.53 26.8-7.93 10.55-2.378 20-3.58 28.33-3.58 11.11 0 20.13 1.03 27.06 3.09 6.94 2.06 12.24 4.98 15.91 8.76 3.44 3.55 5.95 8.11 7.49 13.668 1.56 5.563 2.34 12.223 2.34 20.024v3.488c-7.22-5.89-15.22-10.55-24-14-8.76-3.46-18.54-5.18-29.32-5.18-26.21 0-46.42 7.89-60.64 23.7-14.21 15.79-21.32 39.8-21.32 72.05 0 15.46 2.18 28.79 6.51 40.032 4.33 11.238 10.44 21.02 18.32 29.347 7.33 7.788 16.35 13.85 27.06 18.18 10.73 4.35 21.69 6.51 32.91 6.51 10.11 0 19.29-1.18 27.57-3.58 8.28-2.4 15.81-5.7 22.58-9.93l2.17 8.34H5730V92.08M5945.26 330.11L5812.99 16.52h-51.19l131.74 313.59h51.72M6101.49 119.56v38.91c-8.12-.67-16.89-1.58-26.34-2.75-9.47-1.16-16.63-2.52-21.53-4.072-6-1.878-10.59-4.628-13.76-8.226-3.16-3.602-4.75-8.344-4.75-14.21 0-3.884.34-7.052 1.01-9.482.65-2.43 2.33-4.77 4.99-6.98 2.56-2.22 5.63-3.86 9.17-4.91 3.57-1.05 9.12-1.578 16.68-1.578 6.01 0 12.1 1.207 18.26 3.66 6.18 2.437 11.61 5.656 16.27 9.637zm0-29.138a620.212 620.212 0 0 0-12-8.852c-4.78-3.44-9.29-6.172-13.51-8.16a84.737 84.737 0 0 0-18.36-5.93c-6.33-1.28-13.28-1.92-20.85-1.92-17.79 0-32.68 5.522-44.7 16.522-12 11.008-18.01 25.066-18.01 42.188 0 13.68 3.06 24.86 9.18 33.53 6.11 8.68 14.78 15.51 26.02 20.52 11.11 5 24.91 8.56 41.36 10.68 16.46 2.11 33.53 3.672 51.22 4.672v1c0 10.328-4.24 17.476-12.69 21.437-8.45 3.94-20.91 5.91-37.36 5.91-9.91 0-20.46-1.75-31.69-5.258-11.22-3.5-19.3-6.192-24.19-8.09h-5.51v45.22c6.35 1.66 16.65 3.628 30.95 5.91 14.28 2.268 28.6 3.417 42.96 3.417 34.14 0 58.79-5.25 73.97-15.77 15.17-10.5 22.76-26.98 22.76-49.45V70.57h-59.55v19.852M6334.95 200.68h-5.32c-2.56.87-6.66 1.55-12.32 1.992-5.67.45-10.38.668-14.15.668-8.54 0-16.08-.56-22.63-1.668-6.56-1.113-13.61-3-21.15-5.66V70.57h-60.21v187.31h60.21v-27.52c13.21 11.35 24.69 18.878 34.46 22.6 9.75 3.73 18.76 5.6 26.96 5.6 2.11 0 4.5-.06 7.16-.18 2.66-.11 5-.27 6.99-.5v-57.2M241.773 1501.02l-16.246 84.51c-7.812-12.21-21.355-27.87-40.586-47.07-9.63-4.49-21.073-12.82-34.276-24.97zm165.082-146.03H313.94c-19.25 0-33.983 12.16-44.21 36.51-6.007 20.48-12.035 40.96-18.03 61.48-4.22-3.2-13.23-18.25-27.07-45.15-12.622-23.04-22.85-33.62-30.665-31.74l-163.28 30.77c13.217 56.33 25.253 95.1 36.073 116.2 10.832 21.14 27.656 39.41 50.523 54.8 32.454 19.85 65.232 39.72 98.318 59.57-4.22 10.24-7.207 19.82-9 28.76l54.11 98.97 4.52-2.89c5.413-22.43 13.834-70.58 25.264-144.38 10.2-63.52 19.52-108.74 27.965-135.7 4.805-14.78 18.938-22.13 42.387-22.13h46.01zm-162.367 432.14c-4.218-7.67-12.94-19.81-26.168-36.43-15.05-18.53-24.375-27.83-27.965-27.83-7.82 0-32.484 13.45-73.972 40.38-6.024-4.49-19.856-17.32-41.512-38.42-18.042 5.74-42.995 19.46-74.87 41.19 5.395 7.67 23.14 29.09 53.238 64.26 34.87-26.77 57.422-40.14 67.657-40.14-.602 0 15.32 13.37 47.8 40.14l75.793-43.15"></path><path d="M386.25 1223.85c14.44 21.94 30.69 43.58 48.734 64.85 35.52-26.88 56.875-40.34 64.11-40.34 4.226 0 11.886 6.61 23.023 19.78 11.14 13.21 18.504 20.8 22.125 22.67l71.14-47.29c-18.644-30.66-36.085-52.68-52.308-66.14l-67.66 42.17c-9.023-8.48-22.547-22.54-40.578-42.17-31.297 17.45-54.156 32.91-68.586 46.47zm270.602 281.16c0-26.31-6.625-76.3-19.836-150.02H375.422v105.07h216.52c-11.422 34.71-30.07 70.74-55.93 108.07l51.398 94.55c46.28-58.99 69.442-111.56 69.442-157.67M867.46 1760.47c-6.62-8.98-16.847-19.54-30.66-31.65-16.257-14.08-27.988-21.11-35.195-21.11-12.625 0-33.675 16.96-63.144 50.82 3.595 7.03 13.685 19.49 30.216 37.39 16.527 17.9 27.515 26.85 32.93 26.85 4.804 0 26.773-20.78 65.855-62.3zm196.67-405.48H963.988c-6.015 2.58-11.433 11.17-16.238 25.96a2844.462 2844.462 0 0 1-10.824 33.6c-2.406-2.57-9.016-13.79-19.832-33.6-8.426-17.34-15.063-25.96-19.864-25.96H706c-13.25 0-19.855 9.61-19.855 28.84 0 23.03 3.906 53.44 11.722 91.23 10.223 47.38 21.945 72.08 35.18 73.95-1.21-12.81-1.797-27.51-1.797-44.16 0-28.23 4.2-42.29 12.617-42.29h177.727l1.804 8.63-36.074 155.64c4.203 16.66 11.723 35.53 22.543 56.69a4271.942 4271.942 0 0 0 28.87 54.75c23.454-104.95 42.993-184.45 58.626-238.5 7.817-24.82 14.737-37.21 20.757-37.21h46.01v-107.57"></path><path d="M1299.52 1751.49c-.6-10.87-23.15-29.68-67.65-56.44-5.44 1.25-17.76 9.85-37 25.78-19.24 15.95-28.87 26.2-28.87 30.66 0 5.7 21.67 27.39 64.96 65.03 6.61-1.29 29.46-22.98 68.56-65.03zm159.68-291.43l-58.63-105.07H1028.9v105.07h66.75c-.61 13.48 1.19 32.08 5.41 55.84 15.04 30.18 39.98 60 74.88 89.55 38.48 31.52 72.16 47.23 101.03 47.23 30.07 0 59.38-15.71 87.95-47.07 28.57-31.35 42.25-63.01 41.06-94.97-34.28 32.12-79.1 48.22-134.42 48.22-51.74 0-85.11-6.92-100.14-20.76 27.05-32.27 56.23-58.26 87.51-78.04h200.27M1620.29 1868.95c-3.01-7.71-9.33-17.72-18.94-29.99-24.66.62-57.44-12.27-98.32-38.7.59 5.79 5.39 12.91 14.42 21.26 7.22 5.8 14.42 11.57 21.66 17.36-7.82 2.58-15.64 5.16-23.45 7.74-10.82 4.49-16.24 8.68-16.24 12.54 0 17.38 6.76 33.8 20.28 49.26 13.53 15.44 28.42 23.17 44.66 23.17 5.41 0 11.27-1.77 17.58-5.31 6.31-3.55 9.49-8.23 9.49-14.02 0 .65-5.74-7.71-17.15-25.1-18.04 10.43-26.47 15.67-25.26 15.67-3.01 0-11.12-4.2-24.35-12.59 6.01-14.19 37.88-21.29 95.62-21.29M1777.02 1447.55c-4.32 9.53-12.01 22.82-23.08 40.02-8.63-9.54-22.48-22.27-41.56-38.15 15.99-1.24 33.87-1.87 53.57-1.87zm137.05 299.67c.57-2.58 1.02-6.92 1.34-13.01.3-6.1.46-10.79.46-14 0-10.24-4.21-22.16-12.59-35.64-7.19-10.29-14.39-20.88-21.57-31.81-9.61 2.57-18 5.15-25.18 7.69-10.19-47.41-29.38-87.44-57.55-120.07 21.67-45.46 32.49-81.97 32.49-109.49 0-16.03-2.4-41.35-7.21-75.9h-236.38c7.22 23.07 19.26 57.3 36.1 102.79 24.05 8.95 43 17.28 56.83 24.94 28.26 14.11 43 26.93 44.21 38.47-4.81 8.31-15.63 21.77-32.49 40.33-18.62 21.11-30.67 31.7-36.07 31.7-1.81 0-5.59-4.33-11.29-12.97-5.72-8.63-9.78-13.34-12.17-13.96-26.47 14.7-64.97 37.4-115.47 68.09-20.45 14.08-30.68 32.6-30.68 55.62 0 24.89 12.63 61.68 37.9 110.26h2.69c28.86.63 74.27-28.76 136.24-88.17 52.91-51.79 90.5-95.88 112.76-132.32 15.03 23.11 22.54 50.71 22.54 82.84 0 12.19-3.66 25.63-10.97 40.41-7.33 14.77-10.99 21.17-10.99 19.23 0 8.99 21.76 43.34 65.27 103.02-.61-3.2-.91-6.09-.91-8.67 0-15.4 9.26-29.55 27.8-42.41 14.96-8.99 29.92-17.98 44.89-26.97M2093.43 1510.83c0-65.35-17.44-119.79-52.32-163.34l-40.59 309.4c11.41 35.18 33.67 77.16 66.77 125.87 17.42-124.93 26.14-215.56 26.14-271.93M2435.6 1330.99c-25.25-44.16-42.09-66.29-50.51-66.29-3 0-13.67 8.36-32 24.98-18.33 16.69-27.53 26.29-27.53 28.82 0 5.76 6.61 17.49 19.82 35.08 13.26 17.6 22.87 26.42 28.88 26.42 5.43 0 16.87-6.86 34.28-20.63 17.43-13.75 26.46-23.23 27.06-28.38zm169.62-136.41c-30.72-57.3-93.91-85.98-189.64-85.98-54.75 0-99.59 12.78-134.54 38.34-40.33 28.76-60.46 70.93-60.46 126.61 0 44.08 10.67 89.24 32.08 135.62 21.43 46.34 48.71 83.25 81.93 110.77-7.27 5.07-25.87 7.66-55.96 7.66-15.02 0-28.11-3.99-39.25-11.89-11.1-7.98-22.4-16.05-33.81-24.31 12 47.85 20.13 76.85 24.36 87.09 14.42 34.44 34.86 51.67 61.36 51.67 17.43 0 43.3-4.19 77.54-12.51 34.31-8.36 58.05-12.51 71.29-12.51h129c-7.83-21.1-20.72-52.81-38.78-95.06-12.04-.66-30.37-2.26-55.03-4.92-3.6-3.29-5.4-7.5-5.4-12.74 0-21.58 19.47-32.36 58.51-32.36h71.14v-105.07h-97.55c-24.7 0-44.45 7.8-59.18 23.53-14.75 15.71-22.12 36.66-22.12 62.92 0 7.66 2.3 17.92 6.99 30.72 4.61 12.84 7.27 21.82 7.9 26.89-7.28-1.24-17.83-3.81-31.74-7.65-32.02-12.81-61.34-33.93-87.92-63.39-30.2-33.31-45.33-66.29-45.33-98.97 0-90.3 92.24-135.44 276.73-135.44 13.25 0 32.57.36 57.88.98"></path><path d="M2784.99 1495.24c-2.43 11.53-8.4 26.89-18.03 46.11l-5.43.95c-11.44 0-25.28-5.76-41.47-17.29zm91.1-26.82c0-12.82-7.5-32.05-22.54-57.69-11.46-18.56-22.55-37.13-33.37-55.74-1.22 6.42-50.56 28.84-147.96 67.23-5.43-3.2-12.97-15.21-22.59-36.04-9.61-20.79-17.75-31.19-24.31-31.19h-58.63v105.07h67.61c4.23 3.82 14.16 25.39 29.79 64.64 9.62 24.48 31.12 49.41 64.49 74.81 33.38 25.4 62.12 38.16 86.14 38.16 12.67 0 20.76-5.16 24.41-15.4 1.78-10.87 3.89-21.82 6.33-32.68 6.55-20.52 12.89-40.73 18.91-60.59 7.82-24.35 11.72-44.56 11.72-60.58M3109.06 1354.99h-137.6l-31.27 376.6c0 4.49 8.99 19.23 27.06 44.21 16.89 23.06 28.3 37.44 34.31 43.23 3.61-58.4 7.23-116.8 10.87-175.16 5.39-78.28 12.05-134.41 19.86-168.4 1.79-10.28 11.41-15.41 28.88-15.41h47.89v-105.07"></path><path d="M3243.94 1756.8c-3.01-7.12-23.18-32.13-60.47-75.21-19.23 12.21-49.02 27.29-89.27 45.31l69.46 77.12c16.84-12.19 43.58-27.99 80.28-47.22zm50.7-260.6c0-24.97-6.65-72.03-19.86-141.21h-204.02v105.07h160.54c-12.65 36.57-31.26 72.9-55.96 108.89l51.52 93.41c22.91-32.67 38.85-58.23 47.89-76.83 13.24-29.48 19.89-59.22 19.89-89.33M3663.39 1354.99h-65.91c-8.41 0-20.14 3.83-35.19 11.53l-4.53-5.74c-18.6-34.6-37.28-69.51-55.93-104.71-27.71-41.63-58.08-62.43-91.2-62.43-22.27 0-54.59 11.22-97.01 33.63-42.4 22.43-71.74 43.22-88.01 62.41v12.48c0 1.32 1.52 1.94 4.54 1.94-1.81 0 8.12-6.34 29.7-19 21.65-12.58 40.84-18.91 57.7-18.91 25.79 0 63.63 17.78 113.49 53.31 49.8 35.49 74.75 64.5 74.75 86.93 0 10.87-8.65 28.3-25.97 52.29-17.3 24-25.95 36.66-25.95 37.95 0 3.85 7.36 18.58 22.13 44.22 14.73 25.56 24.55 41.58 29.3 48 18.07-29.09 36.17-58.14 54.22-87.16 20.49-27.8 49.38-41.67 86.73-41.67h17.14v-105.07"></path><path d="M3814.01 1232.74c0-10.29-23.45-29.55-70.28-57.86-5.43.63-18.21 9.66-38.34 26.97-20.13 17.39-30.21 27.99-30.21 31.85 0 3.88 10.4 16.39 31.12 37.61 20.71 21.22 32.91 31.82 36.5 31.82 3.6 0 16.43-10.6 38.3-31.82 21.98-21.22 32.91-34.05 32.91-38.57zm73.81 267.33c0-96.69-8.99-145.08-27.06-145.08h-225.61v105.07h185.51c.56 0 .86.93.86 2.88 0 13.49-6.65 32.44-20.01 56.88-13.38 24.43-25.48 41.44-36.42 51.08l53.22 99.28c21.07-18.6 37.92-43.89 50.58-75.9 12.58-32.06 18.93-63.44 18.93-94.21M413.027 449.62c0-3.19-9.55-13.108-28.672-29.76-16.175-13.462-28.296-23.07-36.382-28.86l-83.793 38.53c-10.293-7.65-25.356-19.22-45.2-34.59-10.296.68-38.964 13.138-86.01 37.49 3.675 7.03 13.23 17.59 28.675 31.66a1428.338 1428.338 0 0 0 34.18 28.85c41.902-25.6 66.874-38.44 74.964-38.44 2.183 0 11.026 6.738 26.46 20.18 15.445 13.46 24.63 20.172 27.586 20.172zm171.996 190.27h-33.085c-13.227-19.76-26.836-39.538-40.786-59.36-16.922-22.94-34.922-39.55-54.01-49.768-8.1-4.442-23.533-10.543-46.326-18.21-22.785-7.66-38.226-11.482-46.3-11.482 2.187 0-11.414 6.25-40.793 18.77-8.844-8.918-17.66-17.84-26.473-26.738-8.086-6.332-21.316-9.543-39.688-9.543-8.097 0-18.76 4.768-31.972 14.3-8.832 7.66-18.024 14.968-27.56 21.98-27.206-19.23-40.077-28.86-38.596-28.86-4.41 0-15.813 3.22-34.18 9.63-58.086 17.98-87.098 53.218-87.098 105.77 0 38.452 17.274 81.76 51.824 129.83 32.32 45.5 68.336 80.09 108.05 103.82h12.122c1.453-1.28 2.203-3.51 2.203-6.74 0-3.82-8.425-14.06-25.265-30.68-21.246-21.09-36.62-38.95-46.12-53.66-16.86-24.31-25.27-48.63-25.27-72.89 0-32.638 19.445-57.54 58.366-74.822 30.844-13.41 66.832-20.117 107.942-20.117 50.66 0 110.867 9.302 180.648 27.83-19.125 21.76-47.422 34.87-84.898 39.35-33.09 2.552-66.18 5.13-99.246 7.72 2.93 9.57 24.63 39.62 65.05 90.19h241.46V639.89"></path><path d="M534.137 639.89h182.605v105.08H534.137z"></path><path d="M666.44 639.89H849.06v105.08H666.44z"></path><path d="M798.75 639.89h182.605v105.08H798.75z"></path><path d="M931.062 639.89h182.61v105.08H931.06z"></path><path d="M1063.37 639.89h182.61v105.08h-182.61z"></path><path d="M1488.29 746.21v20.892c0 15.238-10.67 22.898-31.96 22.898-16.19 0-29.06-3.32-38.61-9.93 11.77-6.66 23.15-13.29 34.18-19.94 16.17-8.6 28.31-13.24 36.39-13.92zm169.82-106.32h-81.6c-4.42-3.78-9.73-11.86-15.98-24.21-6.26-12.352-13.81-20.14-22.62-23.31l-213.9 103.27c-3.68-2.57-9.55-13.788-17.63-33.62-6.61-14.77-16.92-22.13-30.88-22.13h-76.08v106.32h113.56c5.15 3.18 13.78 14.778 25.93 34.872 12.12 20.06 21.85 33.31 29.21 39.637 19.12 16.57 43.17 31.23 72.21 43.97 29.05 12.728 55.68 19.11 79.95 19.11 11.76 0 19.64-1.44 23.69-4.3 4.05-2.89 6.43-8.43 7.17-16.73-.74-21.65 5.52-45.22 18.76-70.66 15.42-30.61 34.54-45.9 57.32-45.9h30.89V639.89"></path><path d="M1612.43 639.89h182.61v105.08h-182.61z"></path><path d="M2019.06 994.89l-86-96.94 13.06-129.48c1.46-8.34-1.85-28.81-9.91-61.42-8.1-32.6-14.7-51.82-19.84-57.53-1.48-1.96-7.35-5.15-17.63-9.63h-146.49v106.32h115.51c2.2 3.23 3.3 6.38 3.3 9.58 0 17.87-4.76 53.43-14.29 106.75-9.53 53.23-17.58 86.92-24.16 101.01-10.98 6.99-22.35 16.88-34.07 29.622 28.65 52.368 54.76 89.668 78.3 112.018l6.61-4.77c.74-12.82 2.94-23.37 6.62-31.7 3.67-8.32 23.14-21.78 58.43-40.3 27.2-14.68 50.71-25.88 70.56-33.53M2324.36 639.89h-167.61l-38.77 376.61c0 4.5 11.01 19.22 33.07 44.21 20.64 23.06 34.58 37.45 41.97 43.23 4.38-58.2 8.84-116.39 13.22-174.56 6.63-78.02 14.69-133.9 24.31-167.84 2.18-10.23 13.94-15.33 35.3-15.33h58.51V639.89"></path><path d="M2271.79 639.89h182.602v105.08H2271.79z"></path><path d="M2404.1 639.89h182.61v105.08H2404.1z"></path><path d="M2536.35 639.89h182.617v105.08H2536.35z"></path><path d="M3074.74 639.89h-138.92c-6.64 10.8-17.28 26.63-31.97 47.532-7.35-10.78-19.16-26.594-35.31-47.53h-197.33v106.32h185.18c-22.74 27.518-51.43 41.288-85.97 41.288-2.21 0-15.45-1.488-39.73-4.47 25.02 48.618 44.1 79.36 57.38 92.17 24.25 22.41 62.07 33.628 113.55 33.628 30.84 0 61.37-8.88 91.51-26.617 32.36-19.67 48.53-42.5 48.53-68.46 0-8.898-4.8-20.32-14.34-34.23-7.34-10.79-15.05-21.88-23.17-33.31h70.59V639.89"></path><path d="M3030.34 639.89h182.61v105.08h-182.61z"></path><path d="M3162.64 639.89h182.62v105.08h-182.62z"></path><path d="M3294.95 639.89h182.602v105.08H3294.95z"></path><path d="M3701.56 994.89l-86.01-96.94 13.03-129.48c1.5-8.34-1.79-28.81-9.88-61.42-8.08-32.6-14.69-51.82-19.83-57.53-1.47-1.96-7.33-5.15-17.66-9.63h-146.49v106.32h115.54c2.19 3.23 3.28 6.38 3.28 9.58 0 17.87-4.76 53.43-14.25 106.75-9.54 53.23-17.6 86.92-24.2 101.01-10.95 6.99-22.32 16.88-34.05 29.622 28.64 52.368 54.75 89.668 78.29 112.018l6.61-4.77c.74-12.82 2.93-23.37 6.59-31.7 3.68-8.32 23.14-21.78 58.5-40.3 27.18-14.68 50.68-25.88 70.53-33.53M3906.49 795.73c0-65.34-21.29-119.79-63.94-163.332l-49.61 309.41c13.95 35.16 41.16 77.162 81.57 125.862 21.36-124.92 31.98-215.568 31.98-271.94"></path></g></svg>