<svg xmlns="http://www.w3.org/2000/svg" viewBox="0 0 1408.7067 377.94666" height="377.947" width="1408.707"><defs><clipPath id="a"><path d="M0 0h10565v2834.64H0z"></path></clipPath></defs><g clip-path="url(#a)" fill="#fff" transform="matrix(.13333 0 0 -.13333 0 377.947)"><path d="M3197.52 1623.82l-120.39-447.06h-127.81l-79.96 291.23-78.16-291.23h-127.5l-120.4 447.06h120.34l68.58-307.75 82.5 307.75h114.99l78.27-307.75 72.01 307.75h117.53M3450.05 1263.24c7.01 8.59 12.26 18.95 15.77 31.07 3.49 12.11 5.25 28.87 5.25 50.29 0 19.81-1.8 36.42-5.41 49.85-3.6 13.41-8.6 24.11-15.01 32.12-6.41 8.19-14.11 14-23.12 17.42-8.99 3.39-18.72 5.09-29.12 5.09-10.41 0-19.66-1.4-27.77-4.19-8.1-2.81-15.87-8.42-23.26-16.83-6.61-7.79-11.87-18.51-15.77-32.13-3.9-13.61-5.86-30.72-5.86-51.33 0-18.41 1.71-34.37 5.11-47.88 3.4-13.52 8.4-24.38 15.01-32.58 6.4-7.82 14.06-13.51 22.97-17.11 8.9-3.61 19.07-5.41 30.47-5.41 9.81 0 19.17 1.65 28.08 4.96 8.89 3.3 16.46 8.85 22.66 16.66zm133.02 81.96c0-55.44-16.18-99.13-48.49-131.05-32.33-31.93-77.72-47.88-136.17-47.88-58.44 0-103.83 15.95-136.16 47.88-32.32 31.92-48.49 75.61-48.49 131.05 0 55.85 16.26 99.69 48.79 131.51 32.53 31.82 77.81 47.73 135.86 47.73 58.85 0 104.34-16.02 136.46-48.03 32.13-32.03 48.2-75.76 48.2-131.21M3904.91 1410.95h-9.58c-4.59 1.6-11.99 2.81-22.18 3.61-10.18.79-18.67 1.2-25.45 1.2-15.38 0-28.96-1.01-40.74-3.01-11.79-2-24.47-5.4-38.05-10.2v-225.79h-108.39v337.18h108.39v-49.55c23.77 20.42 44.43 33.98 62.01 40.68 17.57 6.71 33.75 10.07 48.53 10.07 3.79 0 8.09-.1 12.88-.3 4.8-.2 8.99-.51 12.58-.9v-102.99M3966.16 1176.76h108.39v467.18h-108.39zM4395.81 1269.57v165.69c-7.6 3.2-15.58 5.52-23.97 6.91-8.38 1.41-16.07 2.11-23.07 2.11-28.36 0-49.63-8.86-63.81-26.62-14.17-17.73-21.27-42.34-21.27-73.82 0-33.07 5.69-57.08 17.08-72.02 11.38-14.93 29.65-22.39 54.82-22.39 9.79 0 20.17 1.85 31.15 5.57 10.99 3.7 20.67 8.55 29.07 14.57zm108.37-92.81h-108.37v35.13c-18.61-15.2-35.99-26.42-52.19-33.62-16.2-7.2-34.88-10.8-56.07-10.8-40.99 0-73.77 15.8-98.36 47.43-24.6 31.62-36.89 74.26-36.89 127.9 0 28.62 4.16 53.99 12.45 76.11 8.3 22.11 19.64 41.08 34.04 56.9 13.59 15.01 30.08 26.67 49.47 34.98 19.4 8.3 38.79 12.45 58.18 12.45 20.19 0 36.73-2.15 49.63-6.45 12.89-4.31 26.14-9.76 39.74-16.36v143.51h108.37v-467.18M5142.8 1537.35h-205.66v-83.16h190.65v-86.48h-190.65v-190.95h-114.69v447.06h320.35v-86.47M5428.04 1263.24c7 8.59 12.25 18.95 15.75 31.07 3.5 12.11 5.25 28.87 5.25 50.29 0 19.81-1.79 36.42-5.41 49.85-3.58 13.41-8.59 24.11-15.01 32.12-6.39 8.19-14.09 14-23.11 17.42-9.01 3.39-18.72 5.09-29.11 5.09-10.42 0-19.66-1.4-27.79-4.19-8.1-2.81-15.87-8.42-23.25-16.83-6.62-7.79-11.87-18.51-15.78-32.13-3.91-13.61-5.86-30.72-5.86-51.33 0-18.41 1.71-34.37 5.12-47.88 3.39-13.52 8.4-24.38 15.02-32.58 6.39-7.82 14.05-13.51 22.96-17.11 8.9-3.61 19.07-5.41 30.47-5.41 9.81 0 19.17 1.65 28.08 4.96 8.89 3.3 16.45 8.85 22.67 16.66zm133 81.96c0-55.44-16.16-99.13-48.48-131.05-32.35-31.93-77.73-47.88-136.16-47.88-58.45 0-103.85 15.95-136.18 47.88-32.31 31.92-48.48 75.61-48.48 131.05 0 55.85 16.26 99.69 48.79 131.51 32.54 31.82 77.81 47.73 135.87 47.73 58.84 0 104.33-16.02 136.45-48.03 32.12-32.03 48.19-75.76 48.19-131.21M5850.18 1263.24c7 8.59 12.25 18.95 15.75 31.07 3.5 12.11 5.25 28.87 5.25 50.29 0 19.81-1.8 36.42-5.41 49.85-3.59 13.41-8.59 24.11-15.01 32.12-6.39 8.19-14.1 14-23.12 17.42-9 3.39-18.71 5.09-29.1 5.09-10.42 0-19.67-1.4-27.8-4.19-8.09-2.81-15.86-8.42-23.24-16.83-6.62-7.79-11.87-18.51-15.78-32.13-3.91-13.61-5.86-30.72-5.86-51.33 0-18.41 1.71-34.37 5.12-47.88 3.39-13.52 8.4-24.38 15.02-32.58 6.39-7.82 14.04-13.51 22.96-17.11 8.9-3.61 19.07-5.41 30.47-5.41 9.81 0 19.16 1.65 28.08 4.96 8.89 3.3 16.45 8.85 22.67 16.66zm132.99 81.96c0-55.44-16.16-99.13-48.47-131.05-32.35-31.93-77.73-47.88-136.16-47.88-58.45 0-103.85 15.95-136.18 47.88-32.31 31.92-48.49 75.61-48.49 131.05 0 55.85 16.27 99.69 48.79 131.51 32.55 31.82 77.81 47.73 135.88 47.73 58.84 0 104.33-16.02 136.45-48.03 32.12-32.03 48.18-75.76 48.18-131.21M6280.12 1269.57v165.69c-7.61 3.2-15.57 5.52-23.97 6.91-8.4 1.41-16.07 2.11-23.06 2.11-28.38 0-49.63-8.86-63.81-26.62-14.19-17.73-21.28-42.34-21.28-73.82 0-33.07 5.7-57.08 17.08-72.02 11.38-14.93 29.65-22.39 54.82-22.39 9.79 0 20.16 1.85 31.15 5.57 10.98 3.7 20.68 8.55 29.07 14.57zm108.38-92.81h-108.38v35.13c-18.61-15.2-36-26.42-52.18-33.62-16.2-7.2-34.89-10.8-56.08-10.8-40.98 0-73.77 15.8-98.35 47.43-24.6 31.62-36.9 74.26-36.9 127.9 0 28.62 4.15 53.99 12.45 76.11 8.29 22.11 19.65 41.08 34.04 56.9 13.59 15.01 30.08 26.67 49.48 34.98 19.39 8.3 38.78 12.45 58.17 12.45 20.18 0 36.74-2.15 49.62-6.45 12.89-4.31 26.15-9.76 39.75-16.36v143.51h108.38v-467.18M6956.54 1480.14c0 12.59-3.41 23.42-10.21 32.51-6.8 9.08-14.7 15.43-23.7 19.02-12.02 4.79-23.72 7.44-35.15 7.94-11.4.49-26.61.75-45.62.75h-19.82v-133.61h33.04c19.61 0 35.77 1.2 48.47 3.6 12.71 2.4 23.36 7.18 31.99 14.37 7.4 6.39 12.74 14.04 16.06 22.92 3.3 8.88 4.94 19.72 4.94 32.5zm119.2 2.57c0-20.02-3.5-39.59-10.51-58.7-7-19.12-17.01-35.18-30.02-48.18-17.83-17.62-37.69-30.93-59.59-39.94-21.93-9-49.19-13.51-81.83-13.51h-71.75v-145.62h-115.29v447.06h189.75c28.42 0 52.39-2.45 71.92-7.36 19.5-4.9 36.76-12.25 51.78-22.06 18.01-11.82 31.77-26.92 41.28-45.34 9.5-18.41 14.26-40.53 14.26-66.35M7384.11 1410.95h-9.58c-4.58 1.6-11.99 2.81-22.18 3.61-10.18.79-18.67 1.2-25.45 1.2-15.38 0-28.95-1.01-40.73-3.01-11.8-2-24.49-5.4-38.06-10.2v-225.79h-108.38v337.18h108.38v-49.55c23.77 20.42 44.43 33.98 62.01 40.68 17.57 6.71 33.75 10.07 48.54 10.07 3.79 0 8.08-.1 12.88-.3 4.78-.2 8.98-.51 12.57-.9v-102.99M7645.35 1263.24c7 8.59 12.26 18.95 15.78 31.07 3.48 12.11 5.25 28.87 5.25 50.29 0 19.81-1.82 36.42-5.4 49.85-3.62 13.41-8.63 24.11-15.02 32.12-6.42 8.19-14.12 14-23.12 17.42-9 3.39-18.72 5.09-29.13 5.09-10.42 0-19.66-1.4-27.76-4.19-8.11-2.81-15.87-8.42-23.27-16.83-6.61-7.79-11.86-18.51-15.77-32.13-3.9-13.61-5.86-30.72-5.86-51.33 0-18.41 1.71-34.37 5.1-47.88 3.42-13.52 8.42-24.38 15.02-32.58 6.4-7.82 14.07-13.51 22.98-17.11 8.89-3.61 19.05-5.41 30.46-5.41 9.8 0 19.16 1.65 28.08 4.96 8.9 3.3 16.47 8.85 22.66 16.66zm133.02 81.96c0-55.44-16.18-99.13-48.5-131.05-32.31-31.93-77.72-47.88-136.16-47.88-58.45 0-103.83 15.95-136.16 47.88-32.33 31.92-48.49 75.61-48.49 131.05 0 55.85 16.25 99.69 48.8 131.51 32.52 31.82 77.81 47.73 135.85 47.73 58.85 0 104.34-16.02 136.46-48.03 32.13-32.03 48.2-75.76 48.2-131.21M8063.63 1283.04v152.84c-6.2 2.58-13.81 4.65-22.78 6.16-8.97 1.49-17.08 2.24-24.27 2.24-28.36 0-49.62-8.16-63.8-24.46-14.19-16.32-21.28-39.09-21.28-68.31 0-32.43 6.04-55.05 18.14-67.86 12.07-12.81 30.01-19.21 53.77-19.21 10.77 0 21.37 1.7 31.74 5.1 10.39 3.4 19.88 7.91 28.48 13.5zm108.38-67.55c0-31.62-4.51-58.24-13.51-79.85-9.01-21.62-21.62-38.53-37.85-50.74-16.2-12.41-35.77-21.37-58.69-26.88-22.91-5.5-48.79-8.26-77.6-8.26-23.43 0-46.51 1.4-69.21 4.21-22.72 2.8-42.38 6.2-58.99 10.21v84.36h13.18c13.19-5.2 29.28-9.95 48.27-14.26 18.99-4.29 35.97-6.45 50.97-6.45 19.97 0 36.22 1.85 48.72 5.56 12.49 3.7 22.02 8.95 28.62 15.76 6.19 6.4 10.7 14.61 13.48 24.61 2.82 10.01 4.23 22.02 4.23 36.03v6.31c-13-10.62-27.41-19.02-43.2-25.21-15.78-6.23-33.38-9.32-52.77-9.32-47.17 0-83.56 14.21-109.16 42.63-25.59 28.42-38.38 71.67-38.38 129.71 0 27.82 3.9 51.84 11.69 72.05 7.81 20.23 18.79 37.84 32.99 52.85 13.2 14 29.45 24.92 48.73 32.72 19.3 7.81 39.03 11.71 59.22 11.71 18.21 0 34.75-2.15 49.62-6.45 14.91-4.31 28.44-10.26 40.65-17.87l3.9 15.02h105.09v-298.45M8506.8 1410.95h-9.59c-4.6 1.6-11.99 2.81-22.17 3.61-10.2.79-18.67 1.2-25.48 1.2-15.37 0-28.94-1.01-40.73-3.01-11.78-2-24.46-5.4-38.04-10.2v-225.79h-108.41v337.18h108.41v-49.55c23.76 20.42 44.43 33.98 62 40.68 17.58 6.71 33.76 10.07 48.53 10.07 3.8 0 8.1-.1 12.88-.3 4.8-.2 9-.51 12.6-.9v-102.99M8760.52 1264.96V1335c-14.61-1.2-30.41-2.86-47.42-4.94-17.05-2.1-29.95-4.54-38.74-7.35-10.82-3.39-19.08-8.32-24.78-14.8-5.7-6.5-8.55-15.02-8.55-25.59 0-6.98.6-12.68 1.79-17.06 1.21-4.39 4.22-8.58 9.03-12.57 4.6-3.99 10.09-6.93 16.49-8.83 6.42-1.89 16.43-2.84 30.03-2.84 10.82 0 21.77 2.19 32.88 6.57 11.11 4.4 20.87 10.19 29.27 17.37zm0-52.46c-5.79-4.42-13.02-9.71-21.61-15.91-8.6-6.21-16.72-11.12-24.34-14.72a153.12 153.12 0 0 0-33.01-10.66c-11.4-2.3-23.92-3.45-37.53-3.45-32.02 0-58.84 9.9-80.46 29.72-21.63 19.82-32.43 45.13-32.43 75.96 0 24.62 5.5 44.74 16.53 60.36 10.99 15.6 26.61 27.92 46.81 36.92 20.02 9.01 44.85 15.41 74.47 19.22 29.62 3.8 60.35 6.6 92.17 8.4v1.8c0 18.63-7.6 31.48-22.82 38.59-15.22 7.1-37.62 10.66-67.25 10.66-17.81 0-36.82-3.15-57.05-9.46-20.21-6.31-34.71-11.15-43.53-14.57h-9.9v81.36c11.4 3.01 29.96 6.56 55.68 10.67 25.72 4.1 51.5 6.15 77.31 6.15 61.46 0 105.85-9.45 133.16-28.37 27.31-18.91 40.99-48.59 40.99-89.02v-229.39h-107.19v35.74M9284.77 1415.76v-239h-108.38v168.44c0 16.41-.4 30.37-1.21 41.89-.79 11.5-2.98 20.86-6.6 28.07-3.59 7.2-9.07 12.45-16.36 15.76-7.32 3.3-17.57 4.96-30.77 4.96-10.62 0-20.92-2.16-30.92-6.46-10.02-4.31-19.02-8.87-27.03-13.66v-239h-108.38v337.18h108.38v-37.23c18.58 14.6 36.38 26.01 53.38 34.22 16.98 8.21 35.77 12.31 56.37 12.31 22.2 0 41.79-4.95 58.78-14.85 16.98-9.92 30.27-24.48 39.88-43.7 21.57 18.22 42.55 32.53 62.95 42.94 20.38 10.4 40.37 15.61 59.97 15.61 36.36 0 64.01-10.91 82.88-32.72 18.9-21.82 28.35-53.24 28.35-94.28v-219.48h-108.4v168.44c0 16.61-.34 30.63-1.06 42.04-.69 11.4-2.85 20.71-6.43 27.92-3.41 7.2-8.82 12.45-16.23 15.76-7.41 3.3-17.8 4.96-31.23 4.96-8.99 0-17.81-1.57-26.4-4.66-8.62-3.1-19.13-8.26-31.54-15.46M9923.71 1415.76v-239h-108.4v168.44c0 16.41-.41 30.37-1.19 41.89-.81 11.5-3.01 20.86-6.6 28.07-3.61 7.2-9.06 12.45-16.36 15.76-7.31 3.3-17.58 4.96-30.79 4.96-10.62 0-20.92-2.16-30.93-6.46-10.01-4.31-19.01-8.87-27.02-13.66v-239h-108.38v337.18h108.38v-37.23c18.61 14.6 36.4 26.01 53.39 34.22 16.99 8.21 35.77 12.31 56.38 12.31 22.18 0 41.77-4.95 58.76-14.85 16.99-9.92 30.29-24.48 39.88-43.7 21.59 18.22 42.57 32.53 62.95 42.94 20.4 10.4 40.42 15.61 60.02 15.61 36.3 0 64-10.91 82.9-32.72 18.8-21.82 28.3-53.24 28.3-94.28v-219.48h-108.4v168.44c0 16.61-.4 30.63-1.1 42.04-.6 11.4-2.8 20.71-6.4 27.92-3.4 7.2-8.8 12.45-16.2 15.76-7.4 3.3-17.84 4.96-31.24 4.96-9.02 0-17.82-1.57-26.44-4.66-8.6-3.1-19.1-8.26-31.51-15.46M10457.9 1388.74c-.6 22.61-6.3 39.63-16.8 51.03-10.7 11.42-27.2 17.12-49.6 17.12-20.8 0-37.9-5.41-51.3-16.21-13.5-10.81-21-28.13-22.5-51.94zm107.4-63.35h-247.4c1.6-26.43 11.7-46.64 30.2-60.66 18.5-14 45.8-21.01 81.8-21.01 22.9 0 45 4.1 66.4 12.3 21.4 8.21 38.3 17.01 50.7 26.44h12v-86.77c-24.4-9.82-47.4-16.92-69-21.33-21.6-4.39-45.6-6.6-71.8-6.6-67.6 0-119.5 15.21-155.5 45.63s-54 73.76-54 130c0 55.64 17 99.73 51.1 132.27 34.2 32.52 81 48.78 140.4 48.78 54.9 0 96.1-13.86 123.7-41.58 27.6-27.73 41.4-67.6 41.4-119.64v-37.83M1340.5 2131.15c12.51 27.07 24.09 48.62 40.79 74.3 7.37 11.32 15.69 19.22 23.11 30.67-3.54 1.02-8.73-1.91-10.96-3.5-7.42-5.38-10.77-14.12-16.71-18.8-14.03-11.07-13.64-21.11-21-26.27-6.57-4.64-8.45-7.69-13.05-14.91-3.08-4.82-5.35-8.73-8.6-18.23-1.15-3.42-3.45-.39-8.92-7.93-7.19-9.8-10.41-20.39-13.39-32.26-.96-3.9-7.59-5.97-11.86-14.07-5.71-10.92-9.43-21.03-11.9-36.95-.62-3.69-6.86-6.25-11.16-16.53-3.05-7.23-5.24-8.83-7.9-22.46-1.65-8.3-5.43-9.5-9.7-21.56-3.3-9.2-3.43-18.06-4.58-30.08-.27-2.33-4.2-6.95-7.83-13.69-6.1-11.26-5.9-18.78-8.32-30.41-.93-4.2-5.65-9.77-10.18-27.79-3.98-15.98-.33-26.58-1.68-34.45-3.53-20.45-7.03-38.21-5.14-58.35.94-9.85 2.44-20.01 1.78-29.48-1.87-29.7-3.48-54.17-3.32-87.83.11-18.32 1.54-43.41 4.32-64.29 3.04-23.06 7.44-41.07 7.44-41.07h75.14s-2.94 43.45.95 89.19c2.31 27.42 8.83 56.49 14.76 76.9 7.51 26.02 12.18 39.5 26.37 73.84.3.76-.1 3.98-3.85.83-7.84-6.58-14.39-12.37-20.58-21.69-9.45-14.25-15.21-25.99-22.87-40.63-8.95-17.02-13.89-31.85-23.11-52.52-.54 14.92 1.88 29.12 4.91 42.87 3.1 14.04 5.56 25.16 9.98 37.26 7.83 21.35 15.43 39.16 27.99 59.03 7.27 11.47 16.57 21.77 26.01 30.32 11.29 10.32 21.73 19.4 33.55 29.5-12.42 6.4-28.96-6.97-32.27-7.65-17.47-3.41-24.58-19.61-29.93-21.82-7.65-3.2-12.07-7.89-17.38-14.34-4.09-4.84-5.32-12.32-9.59-14.98-7.13-4.44-12.37-11.14-17.27-20.5-2.01-3.86-7.5-22.13-13.59-19.78 10.42 61.92 32.28 120.01 67.38 171.69 22.25 32.78 46.45 60.89 82.12 86.11 4.7 3.34 5.61 4.89-.95 4.66-33.34-4.05-35.38-19.27-40.87-20.71-5.2-1.35-11.65-7.52-15.77-11.53-7.41-7.33-7.28-13.51-10.13-15.43-6.08-4.25-10.66-8.65-14.81-16.03-2.19-3.84-5.86-12.3-9.11-14.23-8.57-4.96-16.86-12.19-20.99-19.99-3.05-5.7-4.27-11.89-8.25-17.49-4.27-6.02-10.23-10.53-15.36-14.88 3.9 26.47 16.37 57.82 24.95 84.87 11.53 36.12 25.54 68.95 41.33 103.07M1417.21 1916.65c28.44 63.85 58.37 111.9 97.26 168.11 5.08 7.36 9.64 14.58 14.08 21.49 2 3.11 11.56 16.85 13.55 19.76 13.04 19.69 18.52 25.72 31.86 44.53 3.62 5.11 6.55 9.13 8.09 15.04 2.84 11.01-6.61 18.4-8.79 28.96-2.2 10.79-.99 22.57 3.96 31.68 3.1 5.69 6.19 7.93 9.31 15.57 6.07 14.73 3.97 46.6 10.87 47.44-1.75-15.13-2.15-32.13.23-46.64 2.76-16.93 13.03-27.18 17.27-45.11 11.43 2.06 23.83 1.57 33.45.74 9.54-.82 21.61 1.83 31.4 5.18 13.26 4.53 24.27 12.78 37.79 15.98-11.5-11.05-27.73-15.2-41.33-23.59-5-3.14-9.71-7.29-13.05-12.45-5.46-8.5-9.78-16.64-18.34-20.38-15.19-6.62-28.24-3.48-45.57-6.7-25.76-26.54-50.01-62.63-72.38-100.58-56.73-95.98-104.04-195.37-131.54-297.29 9.51 17.73 18.6 34.88 28.9 51.75 11.38 18.74 24.18 37.09 38.13 55.47 32.66 43.05 64.97 80.64 101.18 120.19 29.21 31.95 61.24 58.76 96.95 81.18 47.19 29.57 105.41 50.28 156.56 39.6 5.82-1.36 14.14-2.91 17.77-6.74-64.11 8.98-121.54-13.42-164.39-47.74-33.86-27.08-62.39-54.56-91.39-90.27-14.98-17.21-28.45-36.13-41.83-54.45-14.02-19.27-26.45-39.55-38.77-59.83-41.55-68.61-72.99-141.25-96.12-216.51-.66-2.38-.81-4.78-1.46-7.16 1.09 1.69 2.71 3.53 3.81 5.25 31.12 50.6 68.55 99.45 115.96 132.22 4.14 2.82 8.45 8.26 9.57 12.53 5.12 20.09-10.19 29.75 10.99 57.52 4.86 6.38 11.51 8.71 16.1 14.64 8.67 13.4 15.74 37.41 23 43.86-3.65-15.63-12.61-32.15-14.53-48.26-2.03-17.68 2.49-32.14 3.28-50.88 12.52-1.71 22.21-7.01 32.03-10.04 15.28-4.77 24.46-3.56 39.57-2.25 6.45.54 18.15 4.31 25.1 2.89-14.61-7.98-34.33-6.51-49.28-14.14-10.46-5.36-13.49-13.27-27.92-16.05-12.84-2.5-23.64-1.16-31.98 3.12-6.49 3.27-11.56 4.64-17.39 1.85-15.56-7.47-26.18-18.02-38.7-30.65-29.08-29.26-52.81-61.93-74.96-104.74a553.834 553.834 0 0 1-16.13-34.26c-2.47-5.65-8.6-21.34-8.6-21.34h-75.98s-.19 21.91.52 29.91c1.46 15.94 3.63 27.76 6.72 43.93 4.41 23.27 8.72 44.38 14.76 66.95 5.88 21.96 12.21 42.56 19.74 63.65 15.71 43.96 32.41 86.06 50.67 127.06M682.55 1324.8c27.73 22.68 48.27 35.82 75.958 52.33 11.25 6.72 28.262 14.33 41.336 20.26 47.988 21.68 111.465 37.67 171.27 38.77 1.08 0 1.015-.05 1.015-.05h445.9s-1.66.05 1.56.05c14.19 0 28.22-4.94 36.91-13.15 8.71-8.26 12.87-20.97 15.14-33.62 1.92-10.78.98-20.36-1.53-31.89-1.97-9.11-3.43-14.54-8.51-22.28-3.06-4.71-5.97-7.94-11.68-12.48-5.86-4.68-14.16-6.31-23.67-6.4-1-.04-3.12-.1-3.05-.07.1.07-521.56.07-521.56.07s-3.242.01-4.87.01c-34.14.11-70.09-1.63-103.832-6.03-25.848-3.53-51.747-7.56-76.727-14.06-31.503-8.23-61.835-19.62-92.116-30.91 16.785 22.31 36.16 41.24 58.457 59.45"></path><path d="M837.383 1502.21c27.402 19.79 60.664 36.04 90.13 47.32 14.948 5.66 34.81 11.93 50.592 15.86 19.063 4.81 40.965 8.42 58.825 8.94 5.39.15.79.04.79.04l382.46.04s8.19-.44 11.03-1c7.19-1.55 12.99-4.48 15.39-6.01 5.94-3.81 13.4-11.81 17.3-18.14 9.93-16.35 11.68-34 8.46-52.37-3.67-20.97-19.61-44.86-41.23-45.45-3.77-.1-11.28 0-11.28 0h-414.22s-24.114-.47-35.122-.87c-20.38-.8-42.97-3.12-60.75-5.74-15.215-2.19-30.078-5.07-45.317-9.15-51.073-13.8-95.448-39.7-141.85-59.84 31.25 54.63 73.53 96.48 114.793 126.37M623.438 1242.28c66.484 39.28 146.582 54.77 219.882 57.23 1.746.08 5.227.19 5.227.19l571.723-.05s1.04 0 6.21.05c34.65.03 47.31-34.35 47.15-62.15-.07-9.16-1.62-18.5-4.16-24.77-3.29-8.19-6.93-14.88-12.89-21.34-2.13-2.34-9.78-7.72-13.17-8.55-7.92-1.94-17.67-1.72-17.61-1.72.08 0-425.26-.08-425.26 0 0 0-22.95.92-38.868 2.45-11.477 1.13-20.18 2.33-32.094 4.6-29.285 5.82-53.562 15.35-78.926 23.17-16.922 5.24-34.714 9.13-53.28 11.94-34.13 5.22-71.415 7.6-105.888 4.99-43.847-3.26-82.84-11.85-124.55-25.08 7.05 10.99 36.367 27.12 56.504 39.04"></path><path d="M931.395 1063c-19.547 6.89-38.614 15.78-55.72 27.07-22.284 14.75-33.214 26.48-62.015 39.79-24.644 11.39-44.324 22.63-78.687 35.08-16.582 6.01-43.442 14.28-66.477 18.22-32.91 5.59-64.64 8.04-64.64 8.04s6.718 4.19 10.773 5.43c33.585 10.22 63.253 15.21 97.74 17.76 30.247 2.27 58.028-.68 88.353-5.42 12.44-1.96 28.613-5.79 42.668-9.8 45.64-12.99 97.528-33.59 143.55-33.67 2.572 0 2.28.04 2.28.04h426.31c12.87.04 36.93-4.13 46.6-21.21 11.2-19.68 14.68-43.12 5.27-66.6-2.85-7.05-7.58-17.16-14.37-23.28-5.97-5.4-15.67-8.87-21.27-8.87-1.62-.08-4.4 0-4.4 0h-371.69-2.03c-38 0-85.847 4.6-122.245 17.42M1100.71 931.16c-10.51 10.79-25.01 27.328-38.15 43.04-25.23 30.07-36.52 57.16-36.52 57.16h247.91s.66-28.6-5.07-61.72c-5.36-30.75-16.72-63.17-28.8-86.66-.44-24.082 9.72-46.468 11.39-70.26-20.36-12.5-42.26-24.868-60.51-42.42-1.17-1.08-3.05-1.08-3.82 1.83-9.77 36.66-14.92 69.34-22.94 105.59-22.61 17.47-43.8 33.042-63.49 53.44M1356.2 951.488c-7.01 12.953-12.24 30.05-20.29 40.223-1.73-9.07.4-14.65-.83-23.33-1.13-7.27-7.09-4.25-8.3-.83-3.48 9.84-7.17 21.99-10.35 32.08-5.29 16.8-6.98 31.68-6.98 31.68l41.24.05s1.59-.39 2.32-4.4c1.97-10.39 1.48-20.54 4.33-32.58 3.66-15.51 8.37-29.67 14.07-44.13 4.96-12.73 11.35-25.57 16.55-38.21.7-1.66 1.04-4.86-.21-6.52-1.53-1.918-4.16-1.68-5.67 0-11.81 13.43-16.57 28.64-25.88 45.968M1420.04 922.012c-7.01 14.95-16.88 31.758-16.02 48.718 4.56-5.992 6.44-10.28 12.72-13.62 2.87-.91 8.89-.06 7.38 4.96-2.77 9.34-7.08 17.25-11.06 30.07-5.92 18.95-11.67 39.2-11.67 39.2l-42.1.02s2.33-17.08 11.9-43.29c8.41-23.21 21.4-49.77 35.62-74.672 11.59-20.476 22.11-38.347 35.25-53.308 4.5-5.15 15.54-.63 10.76 6.07-12.47 17.64-24.11 37.168-32.78 55.852M1693.4 2344.89c-9.14-3.98-17.21-9.13-21.77-17.91-3.32-6.3-5.56-15.92.79-21.34 11.12-9.48 24.38.23 29.75 9.92 6.79 12.35 5.02 35.96 5.02 35.96s-7.89-4.11-13.79-6.63"></path><path d="M1703.06 2285.95c3.99 7.54 12.74 15.68 22.33 21.51 10.84 6.63 22.07 13.06 29.88 17.72 7.81 4.7 9.3 7.99 9.3 7.99s-6.44-2.22-9.96-4.29c-19.28-11.5-40.31-24.56-48.87-28.33-10.8-4.71-25.47-5.62-38.7-7.31-2.11 16.69-6.44 23.62-6.39 38.44.11 7.12 1.83 16.34 3.04 22.77 4.14 21.43 4.95 32.25 4.95 32.25s-3.27-3.05-4.46-12.49c-1.35-8.51-2.3-11.66-4.26-21.73-2.22-11.62-4.55-21.47-11.5-28.73-10.02-10.36-19.3-28.82-11.56-42.96 4.51-8.26 12.04-7.06 14.4-9.19 2.35-2.12 3.79-7.21 10.92-9.57 15.39-5.14 32.83 8.67 40.88 23.92"></path><path d="M1683.11 2241.88c5.22 8.48 10.58 14.43 18.81 19.48 13.67 8.33 23.8 13.97 32.13 18.24 3.62 1.81 6.63 3.97 7.55 7.83-3.73-1.4-17.83-8.03-31.83-16.36-10.03-5.98-27.27-13.46-38.85-13.99-4.59-.2-7.99.93-11.74 1.04-7.77.33-17.67-1.55-17.67-1.55s-2.51 10.98-5.83 18.89c-1.66 4.06-4.35 8.22-5.8 15.83-.97 5.08-1.26 12.71-.86 17.25 1.14 13.73 4.84 27.07 4.2 40.97-8.63-17.93-5.1-40.01-15.23-53.88-4.28-5.83-7.66-10.43-11.02-17.78-5.56-12.06-4.9-24.55 2.62-36.18 4.34-6.62 13.91-6.38 15.56-7.67 2.51-1.85 4.65-8.78 14.01-10.86 16.02-3.6 34.9 3.82 43.95 18.74M1687.58 1891.29c3.73 7.53 6.13 17.42 10.89 24.41-10.76-1.61-12.49-2.84-28.04-4.55-3.39-.32-10.4-3.84-12.72-6.15-6.15-6.21-11.52-11.96-9.13-22.38.92-4.05 4.5-7.02 6.49-7.65 12.93-4.2 26.05 3.49 32.51 16.32"></path><path d="M1700.7 1870.77c14.69 3.43 31.66 10.64 38.48 8.37-13.79-7.33-31.17-10-46.45-14.35-11.65-3.36-19.97-12.16-30.37-20.15-9.55-7.26-22.24-10.22-33.59-4.88-3.83 1.82-7.54 7.99-8.2 11.28-.6 2.63-6.08 5.26-8.89 7.58-2.83 2.36-4.2 8.25-4.26 10.52-.49 20.34 14.98 28.55 29.89 40.5 11.23 8.99 25.81 47.16 34.7 55.07-1.58-12.3-17.58-35.51-24.55-53.58-5.53-14.39-3.71-25.9-7.28-41.04 10.66-.68 22.54-2.91 33.28-3.09 8.42-.11 18.59 1.72 27.24 3.77"></path><path d="M1685.22 1839.42c-8.25-1.53-18.34-4.13-25.23-5.59-23.95-5.07-35.4 6.66-54.52 6.44 1.68 21.91-5.93 31.71.33 45.87 5.59 12.6 10.76 25.94 15.56 36.61 3.89 8.57 5.07 15.8 5.07 15.8s-5.8-8.69-22.32-40.86c-5.74-11.23-16.02-13.63-25.15-24.23-10.51-12.12-16.54-37.75 2.9-48.51 3.86-2.12 3.3-8.78 6.11-11.47 12.98-12.21 39.19-10.98 55.58 3.9 13.05 11.89 28.91 13.82 42.43 17.32 7.9 2.04 14.83 5.41 14.83 5.41s-3.75 1.52-15.59-.69M1205.22 1585.17c-.94 0-1.96 0 0 0zm-111.88 315.55c-7.99-10.56-11.69-22.7-20.5-31.92-4.6-4.83-11.63-2.57-15.27 2.99-4.04 6.29-10.59 15.18-5.72 21.39 8 10.27 24.75 16.82 39 14.96.84-.09 5.43-3.48 2.49-7.42zm-38.34-60.39c-4.47-11.96-17.8-13.26-29.14-15.62-2.12-.46-8.64 0-11.57 2.87-4.91 4.79-9.14 11.34-8.29 19.54.46 5.06 4.67 10.02 9.9 12.03 9.47 3.67 20.69 9.57 30.03 4.33 8.03-4.48 12.23-14.72 9.07-23.15zm-24.55-63.22c-3.26-4.71-11.64 10.95-12.74 18.12-3.12 20.77 15.08 26.07 30.25 25.43.47-12.39-9.13-31.57-17.51-43.55zm-16.39-56.03c-2.97-8.36-4.4-16.03-7.72-23.69-3.22-7.4-16.977-10.04-24.602-7.67-10.898 3.37-20.246 27.83-7.86 37.2 9.48 7.08 19.298 8.22 31.362 9.7 2.17.26 10.28-.23 10.59-.99 2.02-5.08.74-7.62-1.77-14.55zm-18.33-64.59c-2.207-6.42-3.18-13.03-6.023-19.2-1.414-3.12-3.28 1-3.36 1.19-4.277 10.65-6.984 19.66-3.327 29.03 2.058 5.19 9.16 9.96 15.898 10.38-.41-6.67-.89-14.9-3.188-21.4zM974.082 1625c-4.922 2.22-4.852 8.55-6.914 12.49-1.94 3.83-6.133 9.12-4.402 14.16 9.492-5.33 13.894-14.83 11.316-26.65zm-16.387 39.31c-11.34 9.32-12.312 24.21-19.863 35.62 8.328 5.33 22.383 4.26 26.71-6.29 3.454-8.48 5.966-20.94-2.64-27.41-.925-.69-3.132-2.81-4.207-1.92zm-42.246 76.85c-1.7 2.42-5.067 9.43-2.5 10.32 20.28 6.98 35.495 7.21 39.83-14.48 3.072-15.49-7.507-28.78-22.33-23.36-4.25 1.56-8.47 18.06-15 27.52zm-29.505 48.99c-1.414 1.79-2.578 7.18-.8 8.56 10.546 8.48 26.027 9.13 38.02 7.96 15.812-1.44 19.054-16.14 16.413-28.32-3.473-16.04-27.8-18.04-34.683-15.37-6.77 2.6-11.497 17.94-18.95 27.17zm3.45 57.03c13.664 8.86 39.785 15.43 44.14-8.56 1.32-7.23-.488-16.83-10.254-19.97-10.026-3.22-21.842-6.69-31.007-2.97-11.277 4.61-13.496 24.65-2.878 31.5zm-14.168 40.36c1.035 4.6 6.128 6.78 10.418 7.88 11.066 2.72 23.425 6.85 33.585.38 3.954-2.5 4.254-6.04 4.774-11.02.898-8.07-.242-14.66-5.56-17.74-10.776-6.32-21.733-6.89-34.256-4.43-10.157 2.01-10.985 15.47-8.96 24.93zm-11.332-62.21c-9.47 7.01-13.66 16.91-20.64 26.72-1.685 2.4 0 3.39 1.296 3.76 16.805 4.75 29.278-3.63 26.66-21.96-.468-3.56-2.78-11.85-7.315-8.52zm-46.383 56.61c-6.3 5.45-1.926 14.92 3.562 17.68 9.61 4.77 24.707 5.49 34.707 2.12 6.427-2.16 9.68-11.39 8.53-21.47-.482-4.12-1.744-8.67-3.763-10.01-7.617-5.19-19.395-5.4-28.652-3.47-6.55 1.39-8.887 10.35-14.383 15.15zm-7.27 57.25c6.098 13.25 28.313 13.36 40.41 7.46 9.856-4.85 11.094-23.19.332-30.42-8.59-5.72-22.117-3.62-31.218-1.95-12.942 2.38-13.965 15.1-9.524 24.91zm.5 49.61c9.23 8.77 21.184 4.75 32.305 3.21 2.148-.31 4.72-1.82 6.172-3.27 7.59-7.67 8.19-20.24-.267-26.53-9.742-7.25-21.922-2.53-33.64-1.94-3.165.12-6.64 3.84-7.364 6.22-2.11 7.42-3.388 16.49 2.792 22.31zm5.946 41.49c9.796 4.09 26.632 5.97 33.578-5.03 4.254-6.74 3.015-19.22-3.82-21.03-6.688-1.73-29.454-5.51-34.903 7.07-2.703 6.2-1.563 16.17 5.145 18.99zm30.16 35.25c2.84-1.25 4.605-3.52 5.27-7 1.398-7.55-.587-15.75-7.833-17.08-10.894-1.98-27.058-2.61-27 12.78.04 17.17 16.953 16.98 29.563 11.3zm-21.914 31.93c5.79 2.21 15.332 1.72 20.527-.99 2.626-1.37 6.15-5.68 4.67-10.22-1.85-5.93-7.364-8.07-13.626-8.15-6.024-.05-12.93.43-15.36 5.34-2.304 4.66-1.332 12.04 3.79 14.02zm6.765 25.74c5.292 1.93 13.124 1.8 16.984-2.38 5.3-5.79 1.113-15-8.887-14.54-3.527.15-7.695 1.36-9.824 2.57-5.176 2.92-3.457 12.5 1.726 14.35zm23.808 16.59c.683 2.23 4.16 4.84 5.984 5.49 3.97 1.41 8.625 1.7 12.426.19 7.605-3.13 6.562-12.53-1.555-15.83-3.633-1.47-9.218-2.43-11.953-1.47-5.117 1.73-6.53 6.17-4.902 11.62zm23.68-36.76c-8.29-2.43-19.84-2.9-22.325 5.6-4.195 14.42 14.004 16.58 23.45 13.56 6.51-2.07 8.82-16.31-1.125-19.16zm5.492 47.62c2.632 8.94 12.76 13.79 21.93 11.06 7.894-2.31 9.706-13.06 4.386-18.29-2.41-2.34-6.406-4.73-10.703-5.68-9.387-2.1-18.605 3.07-15.613 12.91zm41.258-32.79c-1.485-5.83-5.77-9.83-12.618-11.35-6.804-1.5-16.218-1.92-19.992 2.28-3.594 3.99-5.254 9.59-2.242 13.88 6.016 8.56 17.04 11.55 26.863 9.38 5.605-1.31 9.726-7.05 7.988-14.19zm-3.665 34.31c3.665 8.11 12.954 12.19 21.875 9.47 1.79-.58 5.47-3.45 5.98-6.29 1.063-5.64-.898-10.79-5.608-13.74-6.036-3.85-11.012-6.01-17.95-3.17-5.203 2.18-6.472 8.94-4.297 13.73zm38.442-22.78c4.07-6.9-2.13-13.83-5.285-15.73-6.985-4.09-16.836-6.6-21.043.33-4.145 6.79-.715 14.86 6.504 17.84 6.89 2.86 14.032 7.2 19.825-2.44zm11.582-26.36c4.566-3.78 8.57-11.7 3.1-17.97-5.13-5.91-11.518-7.68-19.585-8.98-5.46-.93-12.445 3.11-13.324 7.93-.808 4.15-1.57 11.72 2.54 15.21 8.03 6.83 18.78 10.79 27.27 3.81zm9.676 44.98c4.304-1.28 7.058-5.84 4.902-10.23-1.31-2.7-5.187-5.65-7.645-7.15-6.77-4.18-12.57-2.46-14.687 2.51-3.898 9.15 9.207 17.29 17.43 14.87zm16.504-22.8c4.743-.42 6.923-3.73 7.863-7.36 1.23-4.87-.37-9.38-4.48-12.14-4.895-3.25-10.993-5.17-15.876-5.24-6.59-.12-12.69 9.56-9.12 15.84 3.78 6.74 13.304 9.62 21.613 8.9zm27.273-34.89c2.81-8.28-3.26-12.14-9.66-15.54-6.5-3.47-15.22-6.71-19.735-2.39-5.77 5.43-8.335 14.58-1.902 20.6 8.917 8.36 25.397 14.65 31.297-2.67zm11.78-20.77c10.46-1.33 12.54-16.2 10.43-21.58-2.39-4.62-7.67-8.24-10.43-9.66-7.68-3.95-16.64-5.45-23.69-1.8-6.43 3.34-9.21 13.09-5.72 20.73 4.72 10.34 19.62 13.6 29.41 12.31zm21.52-46.04c3.58-5 2.8-13.88.67-16.66-6.59-9.01-24.96-14.16-32.53-10.47-5.76 2.82-11.44 15.5-4.7 23.11 7 7.9 19.22 12.61 30.3 10.3 2.47-.55 4.09-3.27 6.26-6.28zm4.64-28.37c5.03-.54 9.51-6.08 11.94-12.11 3.16-7.8-.03-16.89-2.53-18.59-6.02-4.09-25.08-15.57-37.08-8.69-6.61 3.79-8.42 12.44-8.83 17.55-1.33 16.51 23.72 23.27 36.5 21.84zm-70.397-118.09c-2.563 6.55-4.94 16.24.203 20.22 10.394 8.2 33.894 15.37 42.834 2.97 5.81-8.05 4.11-21.7-6.07-26.92-10.5-5.37-31.04-11.54-36.967 3.73zm-50.41-.72c10.43 5.3 25.457 11.7 36.687 4.46 5.137-3.29 10.442-16.96 6.817-23.02-7.696-12.87-27.957-16.15-40.84-12.84-10.97 2.85-14.277 25.53-2.664 31.4zm-9.375 44.49c12.586 8.85 37.437 14.57 43.418-4.78 1.558-5.01 2.437-10.56-.117-14.61-6.974-11.21-24.662-14.16-36.498-12.49-12.8 1.85-18.847 23.43-6.804 31.88zm-10.598 45.08c12.09 6.85 37.86 15.96 43.926-3.68 2.434-8.03 2.187-17.94-4.695-21.49-9.843-5.16-25.452-10.58-36.808-3.5-9.48 6-10.762 23.89-2.422 28.67zm67.676 81.02c-5.06-4.52-10.203-5.49-16.94-7.78-9.435-3.2-19.31 4.07-20.404 13.1-1.816 15.46 14.754 17.76 25.71 19.69 7.99 1.45 12.935-5.73 14.407-10.56 1.503-4.64 1.308-10.86-2.774-14.45zm20.314-36.37c-7.19-10.71-36.166-17.45-42.56-6.43-4.668 8.07-7.57 19.39 1.203 24.8 9.22 5.66 20.137 9.05 30.857 7.12 10.09-1.78 15.22-18.36 10.5-25.49zm15.44-66.33c4.13-6.56 7.01-15.37.89-23.52-5.56-7.45-25.37-10.94-35.52-8.48-5.565 1.4-8.202 8.16-9.054 12.73-1.172 6.17-1.726 12.38 3.73 17.41 7.852 7.2 18.344 7.04 28.404 7.04 4.15 0 10-2.68 11.55-5.18zm-5.75 22.26c-6.18-11.34-27.094-12.8-36.496-11.55-6.62.89-11.29 11.57-11.098 20.51.07 4.6 1.508 7.64 4.65 9.33 10.44 5.6 21.13 9.35 32.374 7.53 10.96-1.74 15.21-17.22 10.57-25.82zm-110.082 24.42c-7.102 21.89 20.222 28.79 36.18 25.41 11.105-2.31 14.804-23.65 4.472-30.39-12.78-8.31-35.47-10.99-40.652 4.98zm-41.21-53.73c8.19 8.45 22.975 8.98 34.51 7.43 7.09-.99 10.145-8.15 11.126-15.92 2.76-21.38-25.942-24.98-39.59-19.98-9.004 3.29-13.684 20.58-6.047 28.47zm-5.775 41.43c8.555 10.07 22.872 12.46 34.73 9.2 7.243-1.97 10.595-10.43 10.43-19.91-.136-5.38-3.828-9.29-7.14-10.65-8.43-3.42-18.176-5.96-27.37-4.84-11.34 1.39-18.216 17.27-10.65 26.2zm1.36 45.1c10.527 4.29 30.144 8.14 33.445-6.9 4.465-20.02-19.168-23.28-31.797-19.8-9.667 2.65-11.503 22.72-1.647 26.7zm75.722 33.09c7.872-4.47 9.524-17.08 4.74-24.39-6.368-9.67-28.138-15.27-39.85-6.81-6.68 4.85-10.28 24.72 3.41 29.49 10.93 3.83 21.415 7.54 31.7 1.71zm-11.152 14.38c-8.933-5.52-21.66-7.72-30.098-3.02-7.343 4.02-7.058 14.75-3.417 20.52 5.976 9.62 20.847 10.66 31.132 7.64 8.86-2.56 12.176-19.04 2.383-25.14zm-72.285 15.68c.906 2.86 2.18 3.68 3.953 4.55 7.5 3.58 15.743 4.54 22.935-.07 5.183-3.36 4.722-11.11.886-15.12-5.616-5.91-17.042-6.15-24.354-2.31-4.727 2.47-4.95 8.29-3.418 12.95zm2.402-31.34c3.32 9.48 15.15 8.95 24.102 7.79 11.023-1.44 13.23-15.56 9.316-21.5-5.41-8.2-17.76-6.63-27.59-5.38-7.988 1.02-8.464 11.61-5.828 19.09zm155.51-285.21c2.7-10.71 0-20.89-9.53-24.31-12.257-4.31-28.82-10.64-38.61-4.04-11.198 7.51-16.588 28.81-3.725 37.16 15.203 9.94 45.445 16.45 51.865-8.81zm-16.518 33.3c-8.23-9.35-21.66-9.04-34.85-12.91-5.09-1.47-11.134 3.02-13.778 7.68-4.875 8.7-9.758 20.36-.422 28.77 7.734 7.05 18.28 6.45 27.754 9.28 4.25 1.28 9.464 2.77 14.62-.72 10.684-7.29 14.844-22.91 6.676-32.1zm87.308 140.15c2.32-6.81 5.45-11.8 2.8-18.58-3.14-8.33-11.22-9.47-18.8-12.21-7.07-2.56-18.85-5.79-24.77.4-6.81 7.04-9.55 21.39-1.41 27.54 10.56 7.86 36.6 18.71 42.18 2.85zm143.29 61.18c6.23 25.39 13.97 51.14 15.9 77.97 2.84 40.07-5.8 81.73-31.51 112.08 2.53-13.09 5.88-24.14 7.64-37.88 2.09-16.59-.25-35.07-4.53-51.77-3.24-12.64-8.94-24.93-14.59-36.67-6.67-13.91-16.63-29.04-26.54-41.45-27.82-34.58-71.15-102.07-71.15-102.07s-3.63.26-5.78.26c-.51 8.41 19.44 37.22 29.51 53.35 22.09 35.35 38.82 54.37 58.03 85.03 12.04 19.32 21.23 42.84 24.19 64.16 5.99 43.43-17.43 95.48-51.09 112.79 7.69-32.44 6.89-78.17-10.38-97.4-32.7-36.43-52.13-63.69-75.46-110.39-.67-1.25-6.12 6.3-10.64 9.23-5.06 3.36-2.22 13.37-4.04 20.11-1.64 5.73-4.34 10.15-5.14 11.15-6.9 8.46-13.58 8.99-15.04 11.53-1.67 2.86-.86 10-6.89 18.13-3.01 4.1-10.67 7.13-13.8 10.97-3.37 4.2-4.9 17.05-14.21 22.32-4.42 2.48-6.472 10.19-10.718 13.97-13.086 11.59-26.145 9.35-28.652 10.08-3.364.9-9.934 9.27-21.633 11.28-11.438 1.95-17.735-5.68-23.672-2.92-14.895 6.89-29.153 7.46-44.98-10.18-4.747-5.25-12.962-.34-23.215-8.18-8.993-6.86-9.16-13.2-13.75-14.06-8.602-1.62-15.028-8.51-18.348-16.03-1.72-3.87-3.02-11.7-4.024-16.86-1.406-7.13-5.007-13.69-5.078-18.93-.09-7.28 2.215-11.21 1.575-14.47-1.067-4.71-4.883-9.04-5.344-13.44-.35-2.5-.558-9.16 1.262-12.91 2.286-4.62-1.613-8.63-3.632-13.56-1.938-4.58-3.977-12.42-3.352-17.95.82-7.59 5.164-10.37 1.785-16.35-5.535-9.72-12.54-24.88-.27-44.25 2.255-3.54-5.14-10.43-5.546-20.54-.473-11 6.172-19.13 7.984-24 .345-1.75-2.925-1.65-3.046-3.53-29.214 30.9-55.054 59.39-88.94 86.22-20.704 16.36-41.177 30.12-64.114 42.4-61.29 32.87-132.492 54.86-196.992 46.82 24.29-19.55 54.94-33.5 79.89-55.71 23.637-21.06 45.09-39.04 66.62-61.41 33.79-35.11 61.25-70.7 89.864-112.01 8.5-12.23 14.094-20.41 22.012-33.17 7.98-12.76 16.848-26.31 24.106-38.96 36.62-63.57 66.62-122.44 96.98-187.59 8.43-18.01 15.508-36.87 23.762-54.78 2.215-4.86 5.38-1.25 7.613 0 10.98 6.35 22.65 11.66 34.043 17.04 9.106 4.18 17.387 7.06 25.512 10.18 20.547 7.83 40.04 12.08 61.55 16.55 35.92 7.52 100.44 5.97 100.44 5.97l122.33.04h3.34c-1.28 35.07-9.61 69.15-11.64 104.33-1.54 28.49-.59 56.03.41 84.58 2.74 77.36 14.11 160.4 31.39 230.88M395.137 2295.16c-23.867-23.8-30.99-32.57-44.91-58.88-8.196-15.47-18.606-35.33-21.575-60.93 49.05 18.67 89.075 56.78 125.235 98.87 26.75 31.2 47.5 72.6 73.886 103.42-46.472-15.58-95.507-45.52-132.636-82.48"></path><path d="M254.72 2228.25c18.483 31.24 44.975 65.01 72.436 88.05-12.722-28.57-28.386-56.87-33.765-90.66-10.675-67.27-20.753-114.39-31.913-175.79 30.503 21.76 62.683 55.95 95.04 79.81 24.987 18.37 50.045 30.64 75.75 48.3 15.284 10.55 25.233 24.09 37.948 36.77-15.15-63.84-71.16-128.27-111.277-158.31-50.383-37.79-68.45-43.81-149.418-126.15-10.282 101.67-8.458 207.33 45.2 297.98"></path><path d="M89.523 1890.59c3.766 52.8 10.106 95.02 22.926 146.52 8.988 35.97 28.34 89.51 56.25 111.47-3.42-13.04-5.216-32.6-6.532-45.79-5.47-54.4 4.94-117.58 6.184-171.91.625-26.72.386-47.31-3.618-72.41-4.136-26.33-.68-58.62-.68-58.62s14.423 16.47 27.3 36.99c28.15 44.7 37.162 57.97 59.837 82.19 28.134 30.05 59.6 57.88 95.126 82.52-4.285-16.69-22.43-49.16-29.92-62.21-10.01-17.45-14.548-33.32-38.22-72.85-33.313-55.55-48.15-63.04-85.14-122.45-8.01-12.92-40.848-62.06-48.806-77.08-17.328 35.86-23.86 67.19-45.12 125.56-13.348 36.68-11.356 73.37-9.587 98.07"></path><path d="M38.094 1615.92C18.008 1668 8.8 1716.31 1.992 1771.15c-4.16 33.55-2.226 78.26 9.746 110.52 3.145-7.87 9.55-27.87 10.418-30.86 8.91-29.96 12.63-44.35 25.078-73.25 9.524-22.16 21.172-39.83 33.633-61.73 11.332-19.99 20.89-46.31 29.082-66.45 26.378-64.57 28.32-125.02 38.417-131.62 7.258 15.54 9.53 30.42 10.344 37.75 7.845 71.45 17.247 136.39 107.228 220.6 8.25-25.07 4.074-71.28-.887-96.03-10.765-54.12-19.452-80.11-43.28-132.56-12.598-27.62-29.426-68.27-34.036-81.73-12.082-35.06-16.218-53.46-23.82-74.19-42.476 70.78-94.754 143.87-125.82 224.32"></path><path d="M108.125 1290.31c-30.242 42.1-41.27 63.25-60.95 108.07-16.53 37.59-21.284 51.53-30.964 93.63-5.284 22.95-8.272 43.77-4.17 57.34 23.683-42.87 39.847-90.85 70.812-126.41 24.59-28.21 48.28-52.23 67.824-76.04 29.988-36.58 53.6-71.21 82.383-109.3 2.428 19.09 3.366 38.43-.92 69.71-5.863 42.86-2.245 78 5.23 119.49 9.493 52.66 16.446 78.72 34.72 131.99 22.344-43.83 22.258-94.54 27.87-141.03 10.83-90.2-17.394-197.76-22.94-242.6-1.485-11.81.558-40.96 1.156-52.32-42.2 33.23-79.738 66.79-116.137 103.29-16.59 16.54-39.345 43.95-53.915 64.18"></path><path d="M268.105 959.53c-19.218 13.84-70.847 53.3-95.293 84.35-35.593 45.21-43.437 64.58-66.92 116.59-2.872 6.34-16.165 35.78-17.247 55.78 76.94-92.91 145.828-106.74 219.226-183.84 26.935-28.24 54.513-54.832 69.07-68.16 11.173-10.28 25.04-13.39 25.04-13.39s-1.445 19.8-8.687 33.58c-48.97 93.59-58.203 191.44-50.78 296.45 22.35-27.67 29.4-46.15 43.592-72.91 15.426-29.15 23.29-47.17 30.504-65.11 41.898-104.29 52.804-224.75 78.695-285.37-79.914 26.922-142.844 41.31-227.2 102.03"></path><path d="M595.828 713.43c-21.617-1.45-63.992-1.32-86.59 2.36C394.844 734.1 288.516 817 235.028 908.06c48.495-29.59 83.558-49.34 126.21-64.11 37.98-13.122 74.004-17.01 137.414-35.02 38.262-10.81 76.145-26.12 89.453-31.102 42.422-15.797 60.286-11.918 60.286-11.918s0 6.45-15.85 23.73c-31.57 34.462-43.138 42.7-69.122 69.188-8.523 8.75-28.074 38.48-37.996 58.25-28.067 55.883-31.192 100.672-56.828 162.062 93.554-54.94 139.133-130.75 188.594-226.32 15.207-29.27 35.773-63.082 54.57-81.66 12.637-12.47 30.437-31.422 30.437-31.422s-13.047-3.066-53.66-9.066c-18.223-2.672-57.05-14.762-92.707-17.242M1049.31 706.18c49.39-8.078 93.28-20.078 138.19-35.49 12.07-4.15 30.44-13.28 43.16-19.73 31.84-16.198 50.16-26.722 77.52-45.53 44.07-30.352 91.41-63.05 134.12-112.668.91-.98 7.82-8.364 3.22-11.96-8.37-6.564-29-15.904-35.85-9.853-39.08 34.76-37.11 45.89-84.47 88.78-12.15 10.942-30.49 26.29-52.41 41.282-21.37 14.63-47.21 30.61-71.22 42.45-21.82 10.737-55.42 13.948-74.28 13.948l.26-.14c-8.58.332-57.84.61-69.25-.13-96.808-6.64-92.062-15.3-147.878-30.42-45.91-12.49-95.168-21.38-144.055-27.94-50.09-6.81-94.914-7.632-141.863-2.84-63.645 6.56-133.274 24.298-185.234 57.79 47.507-.8 96.296-9.93 143.562-6.308 19.895 1.527 52.156 4.527 74.016 11.27 43.418 13.328 68.328 18.527 114.304 31.347 39.512 10.99 79.344 14.8 120.606 19.15 57.11 6.11 110.002 4.732 157.552-3.01M1934.51 2295.16c23.88-23.8 31.03-32.57 44.94-58.88 8.21-15.47 18.62-35.33 21.59-60.93-49.1 18.67-89.08 56.78-125.27 98.87-26.77 31.2-47.49 72.6-73.87 103.42 46.48-15.58 95.5-45.52 132.61-82.48"></path><path d="M2074.97 2228.25c-18.51 31.24-44.99 65.01-72.44 88.05 12.84-30.74 31.56-69.04 33.76-90.66 6.83-67.74 20.74-114.39 31.91-175.79-30.49 21.76-62.71 55.95-95.06 79.81-24.94 18.37-50.01 30.64-75.7 48.3-15.31 10.55-25.26 24.09-37.98 36.77 15.15-63.84 71.17-128.27 111.28-158.31 50.37-37.79 68.44-43.81 149.38-126.15 10.27 101.67 8.45 207.33-45.15 297.98"></path><path d="M2240.16 1890.59c-3.81 52.8-10.08 95.02-22.93 146.52-8.99 35.97-28.34 89.51-56.29 111.47 3.45-13.04 5.22-32.6 6.56-45.79 5.52-54.4-4.88-117.58-6.17-171.91-.62-26.72-.39-47.31 3.58-72.41 4.15-26.33.72-58.62.72-58.62s-14.42 16.47-27.33 36.99c-28.09 44.7-37.11 57.97-59.84 82.19-28.11 30.05-59.6 57.88-95.14 82.52 4.34-16.69 22.46-49.16 29.96-62.21 10.05-17.45 14.53-33.32 38.22-72.85 33.3-55.55 48.15-63.04 85.1-122.45 8.01-12.92 40.9-62.06 48.85-77.08 17.34 35.86 23.86 67.19 45.12 125.56 13.39 36.68 11.38 73.37 9.59 98.07"></path><path d="M2291.58 1615.92c20.08 52.08 29.27 100.39 36.12 155.23 4.16 33.55 2.19 78.26-9.75 110.52-3.15-7.87-9.53-27.87-10.42-30.86-8.94-29.96-12.64-44.35-25.06-73.25-9.53-22.16-21.24-39.83-33.66-61.73-11.33-19.99-20.88-46.31-29.12-66.45-26.34-64.57-28.29-125.02-38.38-131.62-7.29 15.54-9.54 30.42-10.33 37.75-7.85 71.45-17.27 136.39-107.23 220.6-8.28-25.07-4.08-71.28.84-96.03 10.8-54.12 19.53-80.11 43.32-132.56 12.6-27.62 29.42-68.27 34.06-81.73 12.01-35.06 16.17-53.46 23.83-74.19 42.44 70.78 94.73 143.87 125.78 224.32"></path><path d="M2221.56 1290.31c30.28 42.1 41.26 63.25 60.94 108.07 16.52 37.59 21.26 51.53 30.98 93.63 5.29 22.95 8.26 43.77 4.14 57.34-23.62-42.87-39.87-90.85-70.83-126.41-24.54-28.21-48.24-52.23-67.79-76.04-29.96-36.58-53.64-71.21-82.38-109.3-2.4 19.09-3.38 38.43.88 69.71 5.9 42.86 2.29 78-5.2 119.49-9.49 52.66-16.44 78.72-34.7 131.99-22.33-43.83-22.27-94.54-27.88-141.03-10.86-90.2 17.43-197.76 22.98-242.6 1.44-11.81-.6-40.96-1.2-52.32 42.2 33.23 79.75 66.79 116.14 103.29 16.59 16.54 39.29 43.95 53.92 64.18"></path><path d="M2061.59 959.53c19.19 13.84 70.83 53.3 95.27 84.35 35.6 45.21 43.45 64.58 66.93 116.59 2.83 6.34 16.17 35.78 17.25 55.78-76.94-92.91-145.83-106.74-219.23-183.84-26.93-28.24-54.49-54.832-69.06-68.16-11.17-10.28-25.04-13.39-25.04-13.39s1.43 19.8 8.66 33.58c48.98 93.59 58.23 191.44 50.76 296.45-22.28-27.67-29.38-46.15-43.55-72.91-15.4-29.15-23.29-47.17-30.47-65.11-41.94-104.29-52.89-224.75-78.76-285.37 79.97 26.922 142.88 41.31 227.24 102.03"></path><path d="M1733.85 713.43c21.66-1.45 64-1.32 86.62 2.36C1934.86 734.1 2041.16 817 2094.66 908.06c-48.55-29.59-83.61-49.34-126.22-64.11-38.01-13.122-74.01-17.01-137.39-35.02-38.3-10.81-76.17-26.12-89.49-31.102-42.41-15.797-60.27-11.918-60.27-11.918s0 6.45 15.84 23.73c31.58 34.462 43.16 42.7 69.1 69.188 8.56 8.75 28.11 38.48 38.02 58.25 28.07 55.883 31.2 100.672 56.86 162.062-93.55-54.94-139.22-130.75-188.65-226.32-15.17-29.27-35.74-63.082-54.51-81.66-12.62-12.47-30.47-31.422-30.47-31.422s13.05-3.066 53.7-9.066c18.2-2.672 57-14.762 92.67-17.242M1280.37 706.18c-49.38-8.078-93.23-20.078-138.18-35.49-12.12-4.15-30.45-13.28-43.18-19.73-31.83-16.198-50.11-26.722-77.51-45.53-44.098-30.352-91.37-63.05-134.117-112.668-.93-.98-7.863-8.364-3.223-11.96 8.39-6.564 29.024-15.904 35.813-9.853 39.097 34.76 37.117 45.89 84.517 88.78 12.1 10.942 30.44 26.29 52.39 41.282 21.42 14.63 47.19 30.61 71.23 42.45 21.78 10.737 55.44 13.948 74.27 13.948l-.27-.14c8.59.332 57.83.61 69.27-.13 96.82-6.64 92.06-15.3 147.85-30.42 45.94-12.49 95.18-21.38 144.08-27.94 50.06-6.81 94.91-7.632 141.86-2.84 63.66 6.56 133.26 24.298 185.2 57.79-47.48-.8-96.24-9.93-143.55-6.308-19.91 1.527-52.13 4.527-73.99 11.27-43.42 13.328-68.35 18.527-114.29 31.347-39.53 10.99-79.36 14.8-120.6 19.15-57.13 6.11-110.01 4.732-157.57-3.01M1103.64 2834.64l-86.95-322.87h-92.315L866.64 2722.1l-56.452-210.33h-92.09l-86.946 322.87h86.907l49.53-222.26 59.578 222.26h83.06l56.518-222.26 52.014 222.26h84.88M1390.51 2772.2h-148.54v-60.08h137.7v-62.44h-137.7v-137.91h-82.81v322.87h231.35v-62.44M1628.38 2730.88c0 9.08-2.46 16.9-7.36 23.46-4.93 6.57-10.63 11.14-17.13 13.74-8.68 3.46-17.13 5.37-25.37 5.74-8.25.35-19.24.54-32.97.54h-14.31v-96.5h23.85c14.17 0 25.84.87 35.03 2.6 9.18 1.73 16.87 5.2 23.08 10.39 5.35 4.6 9.22 10.13 11.6 16.55 2.39 6.41 3.58 14.24 3.58 23.48zm86.09 1.85c0-14.46-2.54-28.59-7.59-42.4-5.06-13.81-12.29-25.41-21.68-34.79-12.88-12.74-27.22-22.34-43.05-28.85-15.82-6.51-35.53-9.76-59.08-9.76h-51.83v-105.16h-83.27v322.87h137.05c20.53 0 37.83-1.77 51.92-5.31 14.1-3.55 26.58-8.85 37.42-15.94 13-8.53 22.94-19.44 29.81-32.75 6.87-13.3 10.3-29.26 10.3-47.91M499.316 257.87L441.27 70.55h-63.75l-38.165 126.27-37.707-126.27h-64.382l-57.54 187.32h62.99l32.147-129.09 39.973 129.09h53.2l38-129.09 31.632 129.09h61.648M649.773 286.06h-4.492c-2.663.78-6.12 1.67-10.397 2.67-4.27.99-8.836 1.5-13.723 1.5-11.758 0-19.707-2.11-23.863-6.34-4.16-4.23-6.235-12.402-6.235-24.52v-1.5h46.196V217.17h-44.2V70.55h-60.214V217.17h-25.688v40.703h25.688v5.17c0 22.9 6.094 40.08 18.27 51.55 12.18 11.45 30.605 17.172 55.292 17.172 8.9 0 16.953-.3 24.18-.91 7.226-.614 13.625-1.422 19.187-2.422v-42.37M789.148 165.54c0 18.21-3.1 31.43-9.312 39.64-6.215 8.21-16.035 12.332-29.465 12.332-5.65 0-11.483-.87-17.472-2.59-5.984-1.71-11.7-4.184-17.136-7.402v-94.102c3.984-1.56 8.26-2.547 12.812-2.996a139.4 139.4 0 0 1 13.477-.672c15.872 0 27.684 4.64 35.45 13.91 7.766 9.27 11.648 23.23 11.648 41.88zm61.887 1.26c0-15.46-2.363-29.52-7.082-42.198-4.723-12.68-10.918-23.133-18.57-31.352-8-8.672-17.055-15.25-27.16-19.69-10.11-4.45-20.938-6.67-32.493-6.67-10.652 0-19.714 1.14-27.144 3.42-7.44 2.268-15.05 5.48-22.824 9.58V1.83h-60.215V257.87h60.215v-19.51c9.21 7.33 18.625 13.28 28.23 17.85 9.613 4.56 20.688 6.83 33.242 6.83 23.325 0 41.45-8.56 54.387-25.68 12.942-17.13 19.415-40.64 19.415-70.56M879.492 70.55h62.383v65.56h-62.383zM1101.28 118.602c3.89 4.777 6.81 10.54 8.75 17.257 1.94 6.718 2.92 16.038 2.92 27.94 0 11-1 20.23-3 27.68-2 7.45-4.78 13.4-8.34 17.848-3.56 4.563-7.84 7.793-12.85 9.684-5 1.88-10.4 2.828-16.18 2.828-5.78 0-10.92-.78-15.43-2.328-4.5-1.55-8.81-4.68-12.92-9.352-3.67-4.32-6.59-10.27-8.76-17.84-2.17-7.558-3.25-17.07-3.25-28.52 0-10.24.94-19.11 2.83-26.61 1.89-7.51 4.67-13.53 8.34-18.1 3.56-4.328 7.81-7.488 12.76-9.5 4.94-2.012 10.59-3 16.94-3 5.44 0 10.64.91 15.59 2.75 4.94 1.832 9.15 4.91 12.6 9.262zm73.88 45.54c0-30.814-8.99-55.083-26.94-72.822-17.97-17.73-43.16-26.6-75.64-26.6-32.47 0-57.69 8.87-75.646 26.6C978.977 109.06 970 133.328 970 164.14c0 31.008 9.03 55.372 27.11 73.04 18.07 17.69 43.22 26.54 75.47 26.54 32.7 0 57.96-8.9 75.8-26.7 17.85-17.79 26.78-42.08 26.78-72.88M1336.89 200.66h-5.33c-2.56.89-6.66 1.56-12.32 2-5.66.442-10.37.668-14.14.668-8.55 0-16.09-.558-22.64-1.668-6.54-1.12-13.59-3-21.13-5.672V70.55h-60.22v187.32h60.22v-27.518c13.2 11.347 24.69 18.867 34.44 22.61 9.77 3.718 18.76 5.577 26.96 5.577 2.11 0 4.5-.06 7.17-.16 2.66-.118 4.99-.29 6.99-.51v-57.21M1475.76 129.61v84.902c-3.44 1.43-7.65 2.578-12.65 3.41-4.99.84-9.49 1.258-13.48 1.258-15.76 0-27.58-4.54-35.45-13.61-7.87-9.05-11.82-21.7-11.82-37.94 0-18 3.36-30.57 10.08-37.69 6.7-7.12 16.66-10.69 29.86-10.69 6 0 11.88.95 17.64 2.852 5.77 1.878 11.06 4.378 15.82 7.507zm60.22-37.54c0-17.558-2.5-32.36-7.51-44.36-5.01-12.02-12.01-21.41-21.03-28.19-9-6.91-19.86-11.88-32.6-14.93-12.73-3.06-27.11-4.59-43.12-4.59-13.01 0-25.82.78-38.44 2.34-12.63 1.55-23.55 3.45-32.78 5.66v46.88h7.33c7.33-2.892 16.26-5.528 26.82-7.92 10.55-2.39 19.98-3.59 28.31-3.59 11.1 0 20.13 1.028 27.07 3.08 6.94 2.062 12.24 4.98 15.9 8.76 3.45 3.57 5.95 8.118 7.49 13.67 1.56 5.57 2.34 12.24 2.34 20.018v3.512c-7.22-5.898-15.21-10.57-23.99-14.012-8.77-3.45-18.55-5.167-29.32-5.167-26.22 0-46.43 7.89-60.64 23.692-14.22 15.777-21.32 39.797-21.32 72.047 0 15.452 2.17 28.8 6.49 40.03 4.33 11.23 10.44 21.02 18.32 29.36 7.34 7.78 16.36 13.84 27.07 18.17 10.72 4.35 21.69 6.51 32.91 6.51 10.11 0 19.3-1.188 27.57-3.58 8.27-2.4 15.8-5.69 22.58-9.93l2.17 8.34h58.38V92.07M1751.25 330.102l-132.29-313.59h-51.19l131.74 313.59h51.74M1905.52 121.91v91.68c-4.2 1.78-8.62 3.058-13.26 3.832-4.64.777-8.89 1.16-12.77 1.16-15.69 0-27.46-4.902-35.3-14.73-7.85-9.813-11.78-23.422-11.78-40.852 0-18.3 3.16-31.578 9.46-39.852 6.28-8.257 16.4-12.386 30.33-12.386 5.41 0 11.16 1.02 17.24 3.066 6.08 2.063 11.44 4.754 16.08 8.082zm59.98-51.36h-59.98V90c-10.3-8.43-19.91-14.63-28.87-18.62-8.96-3.982-19.32-5.97-31.03-5.97-22.68 0-40.83 8.738-54.44 26.25-13.6 17.5-20.41 41.078-20.41 70.77 0 15.84 2.31 29.88 6.9 42.12 4.59 12.23 10.86 22.73 18.82 31.48 7.52 8.298 16.65 14.76 27.39 19.36 10.73 4.59 21.46 6.89 32.18 6.89 11.18 0 20.34-1.19 27.47-3.57 7.13-2.39 14.47-5.4 21.99-9.062v79.422h59.98V70.55M2111.14 119.36v38.75c-8.08-.66-16.83-1.58-26.25-2.73-9.41-1.16-16.56-2.51-21.42-4.07-5.99-1.87-10.56-4.6-13.71-8.19-3.17-3.58-4.74-8.31-4.74-14.16 0-3.87.33-7.01 1-9.44.66-2.43 2.32-4.75 4.99-6.96 2.53-2.2 5.58-3.83 9.13-4.88 3.54-1.05 9.08-1.57 16.61-1.57 5.98 0 12.05 1.21 18.19 3.64 6.14 2.43 11.55 5.63 16.2 9.61zm0-29.032c-3.21-2.437-7.2-5.38-11.96-8.81-4.77-3.44-9.25-6.147-13.46-8.14a85.156 85.156 0 0 0-18.27-5.898c-6.32-1.27-13.24-1.91-20.77-1.91-17.72 0-32.57 5.48-44.52 16.45-11.97 10.96-17.95 24.968-17.95 42.03 0 13.622 3.05 24.76 9.14 33.4 6.09 8.632 14.73 15.448 25.92 20.43 11.07 4.99 24.8 8.53 41.2 10.632 16.4 2.097 33.39 3.648 51 4.66v1c0 10.29-4.2 17.406-12.62 21.34-8.42 3.93-20.83 5.898-37.22 5.898-9.86 0-20.38-1.75-31.56-5.23-11.19-3.49-19.22-6.18-24.09-8.06h-5.48v45.02c6.31 1.66 16.58 3.63 30.82 5.9a270.94 270.94 0 0 0 42.77 3.41c34.01 0 58.57-5.24 73.69-15.712 15.12-10.457 22.68-26.88 22.68-49.25V70.55h-59.32V90.33"></path></g></svg>