<svg xmlns="http://www.w3.org/2000/svg" viewBox="0 0 858.53333 377.94666" height="377.947" width="858.533"><defs><clipPath id="a"><path d="M0 2834.64V0h6438.95v2834.64z"></path></clipPath></defs><g clip-path="url(#a)" fill="#fff" transform="matrix(.13333 0 0 -.13333 0 377.947)"><path d="M3197.34 1623.82l-120.4-447.05h-127.81L2869.17 1468l-78.15-291.23h-127.5l-120.4 447.05h120.33l68.59-307.74 82.49 307.74h115l78.27-307.74 72 307.74h117.54M3461.43 1263.25c7 8.59 12.26 18.95 15.75 31.07 3.51 12.11 5.26 28.86 5.26 50.29 0 19.81-1.8 36.42-5.41 49.84-3.6 13.4-8.6 24.11-15.01 32.12-6.4 8.2-14.1 14.01-23.13 17.42-8.99 3.39-18.71 5.09-29.1 5.09-10.42 0-19.67-1.4-27.79-4.19-8.1-2.81-15.86-8.42-23.25-16.82-6.62-7.81-11.87-18.52-15.78-32.13-3.9-13.61-5.86-30.72-5.86-51.33 0-18.42 1.71-34.38 5.12-47.89 3.39-13.51 8.4-24.37 15.02-32.57 6.4-7.82 14.04-13.52 22.96-17.12 8.91-3.6 19.07-5.4 30.48-5.4 9.8 0 19.16 1.64 28.07 4.95 8.89 3.3 16.45 8.86 22.67 16.67zm133 81.96c0-55.45-16.16-99.13-48.48-131.05-32.34-31.94-77.72-47.89-136.16-47.89-58.45 0-103.85 15.95-136.17 47.89-32.32 31.92-48.49 75.6-48.49 131.05 0 55.85 16.26 99.68 48.78 131.5 32.55 31.82 77.81 47.73 135.88 47.73 58.85 0 104.34-16.01 136.46-48.03 32.1-32.03 48.18-75.75 48.18-131.2M3916.28 1410.95h-9.58c-4.6 1.6-11.98 2.81-22.16 3.61-10.2.79-18.69 1.19-25.48 1.19-15.37 0-28.96-.99-40.73-3-11.79-2-24.47-5.4-38.05-10.2v-225.78h-108.4v337.17h108.4v-49.54c23.77 20.42 44.44 33.97 62.01 40.68 17.58 6.7 33.76 10.06 48.53 10.06 3.78 0 8.1-.1 12.88-.3 4.8-.2 9-.5 12.58-.9v-102.99M3977.53 1176.77h108.38v467.172h-108.38zM4407.19 1269.58v165.68c-7.61 3.21-15.57 5.52-23.96 6.91-8.4 1.42-16.08 2.11-23.08 2.11-28.37 0-49.62-8.86-63.81-26.62-14.18-17.72-21.27-42.33-21.27-73.81 0-33.08 5.7-57.09 17.08-72.02 11.38-14.94 29.64-22.4 54.83-22.4 9.78 0 20.15 1.86 31.15 5.57 10.98 3.7 20.67 8.56 29.06 14.58zm108.38-92.81h-108.38v35.13c-18.6-15.21-35.99-26.42-52.18-33.62-16.21-7.21-34.9-10.81-56.08-10.81-40.99 0-73.78 15.8-98.35 47.44-24.6 31.62-36.89 74.25-36.89 127.9 0 28.61 4.15 53.98 12.45 76.1 8.28 22.12 19.64 41.08 34.02 56.9 13.6 15.01 30.1 26.67 49.49 34.98 19.39 8.3 38.78 12.45 58.18 12.45 20.17 0 36.74-2.14 49.62-6.45 12.88-4.31 26.14-9.76 39.74-16.36v143.51h108.38v-467.17M5169.55 1537.35H4963.9v-83.16h190.66v-86.47H4963.9v-190.95h-114.69v447.05h320.34v-86.47M5454.78 1263.25c7 8.59 12.26 18.95 15.78 31.07 3.48 12.11 5.26 28.86 5.26 50.29 0 19.81-1.82 36.42-5.41 49.84-3.62 13.4-8.63 24.11-15.02 32.12-6.42 8.2-14.12 14.01-23.12 17.42-8.99 3.39-18.71 5.09-29.13 5.09-10.41 0-19.66-1.4-27.76-4.19-8.1-2.81-15.87-8.42-23.28-16.82-6.6-7.81-11.84-18.52-15.75-32.13-3.9-13.61-5.86-30.72-5.86-51.33 0-18.42 1.71-34.38 5.1-47.89 3.41-13.51 8.41-24.37 15.01-32.57 6.4-7.82 14.07-13.52 22.99-17.12 8.89-3.6 19.05-5.4 30.45-5.4 9.8 0 19.17 1.64 28.07 4.95 8.92 3.3 16.48 8.86 22.67 16.67zm133.03 81.96c0-55.45-16.18-99.13-48.51-131.05-32.31-31.94-77.71-47.89-136.16-47.89-58.44 0-103.82 15.95-136.16 47.89-32.32 31.92-48.48 75.6-48.48 131.05 0 55.85 16.25 99.68 48.79 131.5 32.52 31.82 77.81 47.73 135.85 47.73 58.85 0 104.34-16.01 136.45-48.03 32.14-32.03 48.22-75.75 48.22-131.2M5876.92 1263.25c7 8.59 12.25 18.95 15.78 31.07 3.48 12.11 5.25 28.86 5.25 50.29 0 19.81-1.82 36.42-5.41 49.84-3.61 13.4-8.62 24.11-15.02 32.12-6.41 8.2-14.11 14.01-23.11 17.42-8.99 3.39-18.71 5.09-29.13 5.09-10.41 0-19.66-1.4-27.77-4.19-8.09-2.81-15.86-8.42-23.27-16.82-6.6-7.81-11.84-18.52-15.75-32.13-3.91-13.61-5.86-30.72-5.86-51.33 0-18.42 1.7-34.38 5.1-47.89 3.41-13.51 8.41-24.37 15.01-32.57 6.4-7.82 14.07-13.52 22.98-17.12 8.88-3.6 19.06-5.4 30.46-5.4 9.8 0 19.17 1.64 28.07 4.95 8.91 3.3 16.48 8.86 22.67 16.67zm133.03 81.96c0-55.45-16.19-99.13-48.51-131.05-32.31-31.94-77.71-47.89-136.16-47.89-58.44 0-103.82 15.95-136.16 47.89-32.33 31.92-48.48 75.6-48.48 131.05 0 55.85 16.25 99.68 48.79 131.5 32.52 31.82 77.81 47.73 135.85 47.73 58.85 0 104.34-16.01 136.45-48.03 32.14-32.03 48.22-75.75 48.22-131.2M6306.87 1269.58v165.68c-7.59 3.21-15.58 5.52-23.96 6.91-8.38 1.42-16.08 2.11-23.06 2.11-28.37 0-49.64-8.86-63.83-26.62-14.16-17.72-21.25-42.33-21.25-73.81 0-33.08 5.67-57.09 17.08-72.02 11.38-14.94 29.65-22.4 54.81-22.4 9.78 0 20.17 1.86 31.15 5.57 10.99 3.7 20.66 8.56 29.06 14.58zm108.38-92.81h-108.38v35.13c-18.6-15.21-35.98-26.42-52.18-33.62-16.21-7.21-34.88-10.81-56.06-10.81-41.01 0-73.77 15.8-98.37 47.44-24.6 31.62-36.88 74.25-36.88 127.9 0 28.61 4.15 53.98 12.44 76.1 8.3 22.12 19.63 41.08 34.04 56.9 13.58 15.01 30.08 26.67 49.47 34.98 19.39 8.3 38.78 12.45 58.17 12.45 20.2 0 36.74-2.14 49.64-6.45 12.88-4.31 26.13-9.76 39.73-16.36v143.51h108.38v-467.17M2830.15 899.422c0 12.578-3.41 23.418-10.21 32.488-6.81 9.09-14.71 15.43-23.72 19.03-12.01 4.798-23.72 7.45-35.13 7.94-11.41.49-26.62.76-45.64.76h-19.81V826.03h33.02c19.62 0 35.78 1.18 48.49 3.59 12.71 2.392 23.37 7.19 31.98 14.368 7.4 6.403 12.76 14.043 16.06 22.922 3.31 8.89 4.96 19.73 4.96 32.512zm119.2 2.566c0-20.02-3.52-39.59-10.52-58.7-7-19.116-17.01-35.186-30.02-48.186-17.82-17.614-37.68-30.922-59.6-39.942-21.92-9-49.2-13.512-81.81-13.512h-71.76v-145.61h-115.29V1043.1h189.75c28.42 0 52.39-2.46 71.91-7.36 19.51-4.9 36.78-12.27 51.78-22.06 18.02-11.82 31.78-26.93 41.29-45.34 9.5-18.418 14.27-40.53 14.27-66.352M3257.71 830.22h-9.58c-4.58 1.608-11.99 2.81-22.17 3.6-10.19.81-18.67 1.21-25.46 1.21-15.38 0-28.96-1-40.74-3-11.79-2-24.47-5.41-38.05-10.21V596.04h-108.38v337.17h108.38v-49.538c23.77 20.418 44.44 33.97 62.01 40.68 17.57 6.7 33.76 10.058 48.54 10.058 3.79 0 8.08-.11 12.88-.29 4.79-.21 8.98-.51 12.57-.91V830.22M3518.95 682.52c7 8.59 12.26 18.94 15.78 31.07 3.48 12.1 5.26 28.86 5.26 50.28 0 19.82-1.83 36.43-5.41 49.85-3.62 13.4-8.63 24.108-15.02 32.12-6.42 8.21-14.12 14.012-23.12 17.41-9 3.398-18.72 5.11-29.13 5.11s-19.66-1.41-27.76-4.2c-8.11-2.808-15.87-8.422-23.28-16.82-6.6-7.8-11.85-18.52-15.75-32.13-3.9-13.608-5.86-30.722-5.86-51.34 0-18.41 1.7-34.37 5.09-47.89 3.42-13.5 8.42-24.36 15.02-32.57 6.4-7.808 14.07-13.512 22.98-17.11 8.89-3.61 19.05-5.41 30.46-5.41 9.8 0 19.17 1.65 28.07 4.962 8.91 3.296 16.48 8.847 22.67 16.668zm133.03 81.96c0-55.45-16.18-99.128-48.51-131.07-32.31-31.922-77.72-47.88-136.16-47.88-58.45 0-103.83 15.958-136.16 47.88-32.33 31.942-48.48 75.62-48.48 131.07 0 55.84 16.25 99.68 48.79 131.5 32.52 31.83 77.81 47.74 135.85 47.74 58.85 0 104.34-16.03 136.45-48.04 32.14-32.032 48.22-75.77 48.22-131.2M3937.23 702.32v152.82c-6.2 2.598-13.81 4.66-22.78 6.16-8.98 1.5-17.08 2.25-24.26 2.25-28.37 0-49.63-8.152-63.81-24.472-14.19-16.316-21.28-39.066-21.28-68.29 0-32.43 6.04-55.058 18.14-67.858 12.08-12.82 30.01-19.21 53.78-19.21 10.77 0 21.36 1.69 31.73 5.09 10.39 3.39 19.89 7.91 28.48 13.51zm108.38-67.558c0-31.62-4.51-58.242-13.52-79.852-8.99-21.62-21.61-38.54-37.84-50.738-16.2-12.422-35.77-21.37-58.68-26.883-22.92-5.5-48.8-8.26-77.62-8.26-23.42 0-46.49 1.41-69.2 4.208-22.72 2.8-42.38 6.21-58.99 10.21v84.372h13.17c13.21-5.218 29.29-9.96 48.29-14.27 18.98-4.3 35.97-6.448 50.96-6.448 19.97 0 36.22 1.847 48.72 5.546 12.48 3.704 22.02 8.96 28.62 15.774 6.2 6.406 10.71 14.61 13.49 24.61 2.81 10.007 4.22 22.02 4.22 36.027v6.31c-13-10.62-27.4-19.018-43.2-25.222-15.78-6.207-33.38-9.296-52.77-9.296-47.17 0-83.56 14.2-109.17 42.617-25.58 28.428-38.37 71.66-38.37 129.71 0 27.82 3.9 51.84 11.7 72.058 7.8 20.21 18.77 37.82 32.98 52.84 13.2 14.012 29.45 24.922 48.72 32.73 19.31 7.8 39.04 11.712 59.23 11.712 18.21 0 34.75-2.15 49.63-6.47 14.9-4.3 28.43-10.25 40.65-17.86l3.9 15.02h105.08V634.763M4380.4 830.22h-9.58c-4.58 1.608-12 2.81-22.18 3.6-10.19.81-18.67 1.21-25.45 1.21-15.37 0-28.96-1-40.73-3-11.81-2-24.5-5.41-38.07-10.21V596.04h-108.38v337.17h108.38v-49.538c23.77 20.418 44.43 33.97 62.01 40.68 17.57 6.7 33.75 10.058 48.55 10.058 3.79 0 8.07-.11 12.88-.29 4.78-.21 8.97-.51 12.57-.91V830.22M4634.12 684.22v70.042c-14.61-1.203-30.41-2.852-47.43-4.942-17.03-2.09-29.94-4.53-38.74-7.332-10.81-3.386-19.07-8.328-24.77-14.816-5.7-6.48-8.55-15.012-8.55-25.582 0-6.98.61-12.668 1.79-17.05 1.22-4.41 4.23-8.6 9.02-12.58 4.6-3.99 10.11-6.93 16.51-8.83 6.41-1.892 16.42-2.84 30.03-2.84 10.81 0 21.77 2.198 32.87 6.58 11.11 4.392 20.88 10.18 29.27 17.35zm0-52.458c-5.79-4.403-13.02-9.703-21.62-15.903-8.59-6.212-16.71-11.122-24.32-14.712a152.84 152.84 0 0 0-33.02-10.668c-11.4-2.3-23.92-3.45-37.52-3.45-32.03 0-58.85 9.91-80.46 29.72-21.64 19.82-32.43 45.14-32.43 75.96 0 24.618 5.5 44.75 16.51 60.35 11 15.612 26.63 27.92 46.82 36.94 20.02 9 44.84 15.398 74.47 19.21 29.62 3.802 60.35 6.61 92.17 8.4v1.812c0 18.61-7.61 31.47-22.82 38.566-15.22 7.114-37.62 10.672-67.24 10.672-17.82 0-36.83-3.16-57.05-9.46-20.22-6.31-34.72-11.16-43.54-14.56h-9.9V926c11.4 3.012 29.97 6.56 55.68 10.672 25.72 4.09 51.51 6.137 77.32 6.137 61.45 0 105.84-9.44 133.16-28.37 27.31-18.92 40.97-48.58 40.97-89.018V596.04h-107.18v35.722M5158.37 835.03V596.04h-108.39v168.44c0 16.41-.41 30.36-1.2 41.872-.81 11.52-3 20.867-6.6 28.078-3.61 7.21-9.06 12.46-16.35 15.76-7.32 3.31-17.58 4.95-30.8 4.95-10.61 0-20.91-2.152-30.92-6.44-10.01-4.32-19.02-8.872-27.03-13.67V596.04h-108.37v337.17h108.37v-37.23c18.61 14.598 36.4 26.02 53.39 34.23 17 8.2 35.78 12.31 56.38 12.31 22.18 0 41.77-4.96 58.76-14.872 16.99-9.91 30.3-24.457 39.88-43.687 21.59 18.212 42.57 32.54 62.95 42.938 20.4 10.41 40.38 15.622 59.97 15.622 36.39 0 64.02-10.918 82.91-32.74 18.87-21.81 28.32-53.24 28.32-94.268V596.04h-108.38v168.44c0 16.598-.36 30.622-1.05 42.032-.69 11.41-2.85 20.707-6.46 27.918-3.39 7.21-8.8 12.46-16.21 15.76-7.41 3.31-17.82 4.95-31.22 4.95-9.02 0-17.82-1.538-26.43-4.652-8.61-3.11-19.1-8.258-31.52-15.457M5797.32 835.03V596.04h-108.41v168.44c0 16.41-.4 30.36-1.19 41.872-.8 11.52-3 20.867-6.59 28.078-3.62 7.21-9.07 12.46-16.37 15.76-7.31 3.31-17.57 4.95-30.79 4.95-10.62 0-20.92-2.152-30.93-6.44-10.01-4.32-19-8.872-27.02-13.67V596.04h-108.38v337.17h108.38v-37.23c18.6 14.598 36.41 26.02 53.4 34.23 16.98 8.2 35.77 12.31 56.38 12.31 22.16 0 41.76-4.96 58.75-14.872 16.99-9.91 30.3-24.457 39.88-43.687 21.59 18.212 42.58 32.54 62.96 42.938 20.4 10.41 40.37 15.622 59.97 15.622 36.38 0 64-10.918 82.9-32.74 18.88-21.81 28.33-53.24 28.33-94.268V596.04h-108.38v168.44c0 16.598-.36 30.622-1.05 42.032-.71 11.41-2.86 20.707-6.47 27.918-3.39 7.21-8.8 12.46-16.21 15.76-7.4 3.31-17.81 4.95-31.21 4.95-9.02 0-17.82-1.538-26.45-4.652-8.59-3.11-19.1-8.258-31.5-15.457M6331.47 808c-.61 22.63-6.22 39.64-16.81 51.05-10.62 11.41-27.14 17.122-49.56 17.122-20.8 0-37.93-5.41-51.33-16.223-13.41-10.802-20.91-28.122-22.51-51.95zm107.48-63.352h-247.39c1.59-26.418 11.65-46.628 30.16-60.648 18.52-14 45.8-21.02 81.83-21.02 22.82 0 44.93 4.122 66.34 12.32 21.43 8.212 38.34 17.01 50.75 26.42h12v-86.76c-24.41-9.82-47.42-16.93-69.05-21.32-21.62-4.41-45.55-6.61-71.76-6.61-67.65 0-119.49 15.208-155.53 45.63-36.02 30.43-54.04 73.762-54.04 130.012 0 55.648 17.07 99.726 51.19 132.258 34.13 32.52 80.93 48.79 140.36 48.79 54.86 0 96.08-13.868 123.7-41.58 27.64-27.742 41.44-67.6 41.44-119.652v-37.84M1340.5 2131.15c12.51 27.07 24.09 48.62 40.79 74.3 7.37 11.32 15.69 19.22 23.11 30.67-3.54 1.02-8.73-1.91-10.96-3.5-7.42-5.38-10.77-14.12-16.71-18.8-14.03-11.07-13.64-21.11-21-26.27-6.57-4.64-8.45-7.69-13.05-14.91-3.08-4.82-5.35-8.73-8.6-18.23-1.15-3.42-3.45-.39-8.92-7.93-7.19-9.8-10.41-20.39-13.39-32.26-.96-3.9-7.59-5.97-11.86-14.07-5.71-10.92-9.43-21.03-11.9-36.95-.62-3.69-6.86-6.25-11.16-16.53-3.05-7.23-5.24-8.83-7.9-22.46-1.65-8.3-5.43-9.5-9.7-21.56-3.3-9.2-3.43-18.06-4.58-30.08-.27-2.33-4.2-6.95-7.83-13.69-6.1-11.26-5.9-18.78-8.32-30.41-.93-4.2-5.65-9.77-10.18-27.79-3.98-15.98-.33-26.58-1.68-34.45-3.53-20.45-7.03-38.21-5.14-58.35.94-9.85 2.44-20.01 1.78-29.48-1.87-29.7-3.48-54.17-3.32-87.83.11-18.32 1.54-43.41 4.32-64.29 3.04-23.06 7.44-41.07 7.44-41.07h75.14s-2.94 43.45.95 89.19c2.31 27.42 8.83 56.48 14.76 76.89 7.51 26.03 12.18 39.51 26.37 73.85.3.76-.1 3.98-3.85.83-7.84-6.58-14.39-12.37-20.58-21.69-9.45-14.25-15.21-25.99-22.87-40.63-8.95-17.02-13.89-31.84-23.11-52.52-.54 14.92 1.88 29.12 4.91 42.87 3.1 14.04 5.56 25.16 9.98 37.26 7.83 21.35 15.43 39.16 27.99 59.03 7.27 11.47 16.57 21.77 26.01 30.32 11.29 10.32 21.73 19.4 33.55 29.5-12.42 6.4-28.96-6.97-32.27-7.65-17.47-3.41-24.58-19.61-29.93-21.82-7.65-3.2-12.07-7.89-17.38-14.34-4.09-4.84-5.32-12.32-9.59-14.98-7.13-4.44-12.37-11.14-17.27-20.5-2.01-3.86-7.5-22.13-13.59-19.78 10.42 61.92 32.28 120.01 67.38 171.69 22.25 32.78 46.45 60.89 82.12 86.11 4.7 3.34 5.61 4.89-.95 4.66-33.34-4.05-35.38-19.27-40.87-20.71-5.2-1.35-11.65-7.52-15.77-11.53-7.41-7.33-7.28-13.51-10.13-15.43-6.08-4.25-10.66-8.65-14.81-16.03-2.19-3.84-5.86-12.3-9.11-14.23-8.57-4.96-16.86-12.19-20.99-19.99-3.05-5.7-4.27-11.89-8.25-17.49-4.27-6.02-10.23-10.53-15.36-14.88 3.9 26.47 16.37 57.82 24.95 84.87 11.53 36.12 25.54 68.95 41.33 103.07M1417.21 1916.65c28.44 63.85 58.37 111.9 97.26 168.11 5.08 7.36 9.64 14.58 14.08 21.49 2 3.11 11.56 16.85 13.55 19.76 13.04 19.69 18.52 25.72 31.86 44.53 3.62 5.11 6.55 9.13 8.09 15.04 2.84 11.01-6.61 18.4-8.79 28.96-2.2 10.79-.99 22.57 3.96 31.68 3.1 5.69 6.19 7.93 9.31 15.57 6.07 14.73 3.97 46.6 10.87 47.44-1.75-15.13-2.15-32.13.23-46.64 2.76-16.93 13.03-27.18 17.27-45.11 11.43 2.06 23.83 1.57 33.45.74 9.54-.82 21.61 1.83 31.4 5.18 13.26 4.53 24.27 12.78 37.79 15.98-11.5-11.05-27.73-15.2-41.33-23.59-5-3.14-9.71-7.29-13.05-12.45-5.46-8.5-9.78-16.64-18.34-20.38-15.19-6.62-28.24-3.48-45.57-6.7-25.76-26.54-50.01-62.63-72.38-100.58-56.73-95.98-104.04-195.37-131.54-297.29 9.51 17.73 18.6 34.88 28.9 51.75 11.38 18.74 24.18 37.09 38.13 55.47 32.66 43.05 64.97 80.64 101.18 120.19 29.21 31.95 61.24 58.76 96.95 81.18 47.19 29.57 105.41 50.28 156.56 39.6 5.82-1.36 14.14-2.91 17.77-6.74-64.11 8.98-121.54-13.42-164.39-47.74-33.86-27.08-62.39-54.56-91.39-90.27-14.98-17.21-28.45-36.13-41.83-54.45-14.02-19.27-26.45-39.55-38.77-59.83-41.55-68.61-72.99-141.25-96.12-216.51-.66-2.39-.81-4.79-1.46-7.16 1.09 1.69 2.71 3.53 3.81 5.25 31.12 50.61 68.55 99.45 115.96 132.22 4.14 2.82 8.45 8.26 9.57 12.53 5.12 20.09-10.19 29.75 10.99 57.52 4.86 6.38 11.51 8.71 16.1 14.64 8.67 13.4 15.74 37.41 23 43.86-3.65-15.63-12.61-32.15-14.53-48.26-2.03-17.68 2.49-32.14 3.28-50.88 12.52-1.71 22.21-7.01 32.03-10.04 15.28-4.77 24.46-3.56 39.57-2.25 6.45.54 18.15 4.31 25.1 2.89-14.61-7.98-34.33-6.51-49.28-14.14-10.46-5.36-13.49-13.27-27.92-16.05-12.84-2.5-23.64-1.16-31.98 3.12-6.49 3.27-11.56 4.64-17.39 1.85-15.56-7.47-26.18-18.02-38.7-30.65-29.08-29.26-52.81-61.92-74.96-104.75-5.86-11.39-11.13-22.64-16.13-34.25-2.47-5.65-8.6-21.34-8.6-21.34h-75.98s-.19 21.91.52 29.91c1.46 15.95 3.63 27.76 6.72 43.94 4.41 23.26 8.72 44.37 14.76 66.94 5.88 21.96 12.21 42.56 19.74 63.65 15.71 43.96 32.41 86.06 50.67 127.06M682.55 1324.8c27.73 22.68 48.266 35.82 75.958 52.33 11.25 6.72 28.262 14.33 41.336 20.26 47.976 21.68 111.465 37.67 171.27 38.77 1.08 0 1.015-.05 1.015-.05h445.9s-1.66.05 1.56.05c14.19 0 28.22-4.95 36.91-13.14 8.71-8.26 12.87-20.98 15.14-33.63 1.92-10.78.98-20.36-1.53-31.89-1.97-9.11-3.43-14.54-8.51-22.28-3.06-4.71-5.97-7.94-11.68-12.48-5.86-4.68-14.16-6.31-23.67-6.4-1-.04-3.12-.1-3.05-.07.1.07-521.56.07-521.56.07s-3.242.01-4.87.01c-34.14.11-70.098-1.63-103.832-6.03-25.848-3.53-51.747-7.56-76.727-14.06-31.503-8.23-61.835-19.62-92.116-30.91 16.785 22.31 36.16 41.24 58.457 59.45"></path><path d="M837.383 1502.21c27.39 19.79 60.652 36.04 90.13 47.32 14.936 5.66 34.8 11.93 50.585 15.86 19.058 4.81 40.972 8.42 58.832 8.94 5.38.15.79.04.79.04l382.46.04s8.19-.44 11.03-1c7.19-1.55 12.99-4.48 15.39-6.01 5.94-3.81 13.4-11.81 17.3-18.14 9.93-16.35 11.68-34 8.46-52.37-3.67-20.97-19.61-44.86-41.23-45.45-3.77-.1-11.28 0-11.28 0h-414.23s-24.104-.47-35.124-.87c-20.367-.8-42.957-3.12-60.738-5.74-15.215-2.19-30.078-5.07-45.317-9.15-51.073-13.8-95.448-39.7-141.858-59.84 31.258 54.63 73.54 96.48 114.8 126.37M623.434 1242.28c66.488 39.28 146.578 54.77 219.886 57.23 1.746.08 5.227.19 5.227.19l571.723-.05s1.04 0 6.21.05c34.65.03 47.31-34.35 47.15-62.15-.07-9.16-1.62-18.5-4.16-24.77-3.29-8.19-6.93-14.88-12.89-21.34-2.13-2.34-9.78-7.72-13.17-8.55-7.92-1.94-17.67-1.72-17.61-1.72.08 0-425.26-.08-425.26 0 0 0-22.95.92-38.868 2.45-11.477 1.13-20.18 2.33-32.094 4.6-29.297 5.82-53.57 15.35-78.926 23.17-16.922 5.24-34.722 9.13-53.28 11.94-34.142 5.22-71.415 7.6-105.888 4.99-43.847-3.26-82.847-11.85-124.554-25.08 7.054 10.99 36.37 27.12 56.504 39.04"></path><path d="M931.395 1063c-19.547 6.9-38.614 15.79-55.72 27.07-22.284 14.75-33.214 26.49-62.015 39.79-24.644 11.39-44.324 22.64-78.687 35.08-16.582 6.01-43.446 14.28-66.48 18.22-32.907 5.59-64.638 8.04-64.638 8.04s6.72 4.19 10.774 5.43c33.585 10.22 63.245 15.21 97.737 17.76 30.238 2.27 58.03-.68 88.356-5.42 12.44-1.96 28.613-5.79 42.668-9.8 45.64-12.99 97.516-33.59 143.55-33.67 2.564 0 2.27.04 2.27.04h426.32c12.87.04 36.93-4.13 46.6-21.21 11.2-19.67 14.68-43.12 5.27-66.6-2.85-7.05-7.58-17.15-14.37-23.28-5.97-5.39-15.67-8.87-21.27-8.87-1.62-.08-4.4 0-4.4 0h-371.69-2.03c-38.01 0-85.847 4.61-122.245 17.42M1100.71 931.172c-10.51 10.777-25.02 27.316-38.15 43.027-25.23 30.07-36.52 57.16-36.52 57.16h247.91s.66-28.59-5.07-61.72c-5.36-30.742-16.72-63.16-28.8-86.66-.44-24.082 9.72-46.46 11.39-70.25-20.36-12.5-42.26-24.878-60.51-42.42-1.17-1.08-3.05-1.08-3.82 1.82-9.77 36.66-14.92 69.35-22.95 105.6-22.6 17.46-43.79 33.032-63.48 53.442M1356.2 951.5c-7.01 12.95-12.24 30.04-20.29 40.22-1.73-9.072.4-14.65-.83-23.34-1.13-7.27-7.09-4.24-8.3-.82-3.48 9.838-7.17 21.99-10.35 32.07-5.29 16.81-6.98 31.69-6.98 31.69l41.24.04s1.59-.39 2.32-4.39c1.97-10.39 1.48-20.55 4.33-32.58 3.66-15.51 8.37-29.67 14.07-44.14 4.96-12.73 11.35-25.57 16.55-38.2.7-1.66 1.04-4.87-.21-6.53-1.53-1.91-4.16-1.68-5.67 0-11.81 13.44-16.57 28.64-25.88 45.98M1420.04 922.012c-7.01 14.957-16.88 31.758-16.02 48.726 4.56-6 6.44-10.29 12.72-13.63 2.87-.897 8.89-.057 7.38 4.962-2.77 9.348-7.08 17.258-11.06 30.07-5.92 18.95-11.67 39.2-11.67 39.2l-42.1.02s2.33-17.07 11.9-43.282c8.41-23.22 21.4-49.777 35.62-74.668 11.59-20.48 22.11-38.35 35.25-53.32 4.5-5.15 15.54-.62 10.76 6.082-12.47 17.637-24.11 37.168-32.78 55.84M1693.4 2344.89c-9.14-3.98-17.21-9.13-21.77-17.91-3.32-6.3-5.56-15.92.79-21.34 11.12-9.48 24.38.23 29.75 9.92 6.79 12.35 5.02 35.96 5.02 35.96s-7.89-4.11-13.79-6.63"></path><path d="M1703.06 2285.95c3.99 7.54 12.74 15.68 22.33 21.51 10.84 6.63 22.07 13.06 29.88 17.72 7.81 4.7 9.3 7.99 9.3 7.99s-6.44-2.22-9.96-4.29c-19.28-11.5-40.31-24.56-48.87-28.33-10.8-4.71-25.47-5.62-38.7-7.31-2.11 16.69-6.44 23.62-6.39 38.44.11 7.12 1.83 16.34 3.04 22.77 4.14 21.43 4.95 32.25 4.95 32.25s-3.27-3.05-4.46-12.49c-1.35-8.51-2.3-11.66-4.26-21.73-2.22-11.62-4.55-21.47-11.5-28.73-10.02-10.36-19.3-28.82-11.56-42.96 4.51-8.26 12.04-7.06 14.4-9.19 2.35-2.12 3.79-7.21 10.92-9.57 15.39-5.14 32.83 8.67 40.88 23.92"></path><path d="M1683.11 2241.88c5.22 8.48 10.58 14.43 18.81 19.48 13.67 8.33 23.8 13.97 32.13 18.24 3.62 1.81 6.63 3.97 7.55 7.83-3.73-1.4-17.83-8.03-31.83-16.36-10.03-5.98-27.27-13.46-38.85-13.99-4.59-.2-7.99.93-11.74 1.04-7.77.33-17.67-1.55-17.67-1.55s-2.51 10.98-5.83 18.89c-1.66 4.06-4.35 8.22-5.8 15.83-.97 5.08-1.26 12.71-.86 17.25 1.14 13.73 4.84 27.07 4.2 40.97-8.63-17.93-5.1-40.01-15.23-53.88-4.28-5.83-7.66-10.43-11.02-17.78-5.56-12.06-4.9-24.55 2.62-36.18 4.34-6.62 13.91-6.38 15.56-7.67 2.51-1.85 4.65-8.78 14.01-10.86 16.02-3.6 34.9 3.82 43.95 18.74M1687.58 1891.29c3.73 7.53 6.13 17.42 10.89 24.41-10.76-1.61-12.49-2.84-28.04-4.55-3.39-.32-10.4-3.84-12.72-6.15-6.15-6.21-11.52-11.96-9.13-22.38.92-4.05 4.5-7.02 6.49-7.65 12.93-4.2 26.05 3.49 32.51 16.32"></path><path d="M1700.7 1870.77c14.69 3.43 31.66 10.64 38.48 8.37-13.79-7.33-31.17-10-46.45-14.35-11.65-3.36-19.97-12.16-30.37-20.15-9.55-7.26-22.24-10.22-33.59-4.88-3.83 1.82-7.54 7.99-8.2 11.28-.6 2.63-6.08 5.26-8.89 7.58-2.83 2.36-4.2 8.25-4.26 10.52-.49 20.34 14.98 28.55 29.89 40.5 11.23 8.99 25.81 47.16 34.7 55.07-1.58-12.3-17.58-35.51-24.55-53.58-5.53-14.39-3.71-25.9-7.28-41.04 10.66-.68 22.54-2.91 33.28-3.09 8.42-.11 18.59 1.72 27.24 3.77"></path><path d="M1685.22 1839.42c-8.25-1.53-18.34-4.13-25.23-5.59-23.95-5.07-35.4 6.66-54.52 6.44 1.68 21.91-5.93 31.71.33 45.87 5.59 12.6 10.76 25.94 15.56 36.61 3.89 8.57 5.07 15.8 5.07 15.8s-5.8-8.69-22.32-40.86c-5.74-11.23-16.02-13.63-25.15-24.23-10.51-12.12-16.54-37.75 2.9-48.51 3.86-2.12 3.3-8.78 6.11-11.47 12.98-12.21 39.19-10.98 55.58 3.9 13.05 11.89 28.91 13.82 42.43 17.32 7.9 2.04 14.83 5.41 14.83 5.41s-3.75 1.52-15.59-.69M1205.22 1585.17c-.94 0-1.96 0 0 0zm-111.88 315.55c-7.99-10.56-11.69-22.7-20.5-31.92-4.61-4.83-11.63-2.57-15.27 2.99-4.04 6.29-10.59 15.18-5.72 21.39 8 10.27 24.74 16.82 39 14.96.84-.09 5.43-3.48 2.49-7.42zm-38.35-60.39c-4.46-11.96-17.79-13.26-29.13-15.62-2.12-.46-8.64 0-11.57 2.87-4.91 4.79-9.14 11.34-8.29 19.54.46 5.06 4.67 10.02 9.9 12.03 9.46 3.67 20.69 9.57 30.03 4.33 8.03-4.48 12.23-14.72 9.06-23.15zm-24.54-63.22c-3.27-4.71-11.65 10.95-12.74 18.12-3.13 20.77 15.07 26.07 30.25 25.43.47-12.39-9.14-31.57-17.51-43.55zm-16.39-56.03c-2.98-8.35-4.4-16.04-7.72-23.69-3.22-7.4-16.977-10.04-24.61-7.67-10.89 3.37-20.238 27.83-7.85 37.2 9.472 7.08 19.296 8.22 31.36 9.7 2.17.26 10.28-.23 10.59-.99 2.02-5.07.74-7.61-1.77-14.55zm-18.33-64.59c-2.207-6.42-3.18-13.02-6.023-19.19-1.414-3.13-3.29.98-3.36 1.19-4.285 10.64-6.984 19.65-3.327 29.02 2.058 5.19 9.16 9.96 15.898 10.38-.41-6.67-.89-14.9-3.188-21.4zM974.07 1625c-4.922 2.22-4.84 8.55-6.902 12.48-1.94 3.84-6.133 9.13-4.402 14.17 9.492-5.33 13.894-14.83 11.304-26.65zm-16.382 39.31c-11.333 9.32-12.305 24.22-19.868 35.62 8.34 5.33 22.395 4.26 26.723-6.29 3.453-8.48 5.953-20.94-2.64-27.41-.934-.69-3.14-2.81-4.215-1.92zm-42.25 76.85c-1.7 2.43-5.055 9.43-2.5 10.32 20.292 6.98 35.507 7.21 39.843-14.49 3.072-15.48-7.514-28.77-22.342-23.36-4.24 1.58-8.458 18.07-15 27.53zm-29.493 48.99c-1.425 1.79-2.578 7.18-.8 8.56 10.546 8.48 26.027 9.13 38.007 7.96 15.825-1.44 19.067-16.14 16.426-28.32-3.473-16.04-27.8-18.04-34.683-15.37-6.782 2.6-11.497 17.94-18.95 27.17zm3.442 57.03c13.672 8.86 39.785 15.43 44.136-8.56 1.332-7.23-.476-16.83-10.242-19.97-10.026-3.22-21.842-6.69-31.007-2.97-11.277 4.61-13.496 24.65-2.886 31.5zm-14.16 40.36c1.035 4.6 6.128 6.78 10.418 7.88 11.066 2.72 23.425 6.85 33.585.38 3.954-2.5 4.254-6.04 4.774-11.02.898-8.07-.242-14.66-5.56-17.74-10.776-6.32-21.733-6.89-34.256-4.43-10.157 2.01-10.997 15.47-8.96 24.93zm-11.332-62.21c-9.47 7.01-13.66 16.91-20.64 26.72-1.685 2.4 0 3.39 1.288 3.76 16.812 4.75 29.273-3.63 26.656-21.96-.47-3.56-2.77-11.85-7.305-8.52zm-46.383 56.61c-6.313 5.45-1.926 14.92 3.562 17.68 9.61 4.77 24.707 5.49 34.696 2.12 6.437-2.16 9.69-11.39 8.54-21.47-.494-4.12-1.744-8.67-3.775-10.01-7.605-5.19-19.383-5.4-28.64-3.47-6.55 1.39-8.887 10.35-14.383 15.15zm-7.27 57.25c6.098 13.25 28.305 13.36 40.41 7.46 9.844-4.85 11.094-23.19.332-30.42-8.59-5.72-22.117-3.62-31.226-1.95-12.934 2.38-13.965 15.1-9.516 24.91zm.488 49.61c9.243 8.77 21.196 4.75 32.305 3.21 2.16-.31 4.73-1.82 6.184-3.27 7.59-7.67 8.19-20.24-.267-26.53-9.742-7.25-21.922-2.53-33.64-1.94-3.165.12-6.653 3.84-7.375 6.22-2.11 7.42-3.376 16.49 2.792 22.31zm5.958 41.49c9.796 4.09 26.632 5.97 33.578-5.03 4.254-6.74 3.015-19.22-3.82-21.03-6.688-1.73-29.466-5.51-34.915 7.07-2.69 6.2-1.55 16.17 5.158 18.99zm30.16 35.25c2.832-1.25 4.605-3.52 5.27-7 1.398-7.55-.587-15.75-7.833-17.08-10.894-1.98-27.066-2.61-27.012 12.78.04 17.17 16.965 16.98 29.575 11.3zm-21.914 31.93c5.79 2.21 15.332 1.72 20.527-.99 2.626-1.37 6.15-5.68 4.67-10.22-1.85-5.93-7.364-8.07-13.638-8.15-6.012-.05-12.918.43-15.347 5.34-2.305 4.66-1.333 12.04 3.79 14.02zm6.754 25.74c5.304 1.93 13.136 1.8 16.996-2.38 5.293-5.79 1.113-15-8.887-14.54-3.527.15-7.695 1.36-9.824 2.57-5.176 2.92-3.457 12.5 1.715 14.35zm23.82 16.59c.676 2.23 4.16 4.84 5.984 5.49 3.97 1.41 8.625 1.7 12.426.19 7.598-3.13 6.562-12.53-1.563-15.83-3.632-1.47-9.21-2.43-11.957-1.47-5.105 1.73-6.52 6.17-4.89 11.62zm23.68-36.76c-8.29-2.43-19.84-2.9-22.325 5.6-4.195 14.42 14.004 16.58 23.45 13.56 6.51-2.07 8.82-16.31-1.125-19.16zm5.492 47.62c2.632 8.94 12.754 13.79 21.93 11.06 7.894-2.31 9.706-13.06 4.374-18.29-2.398-2.34-6.406-4.73-10.703-5.68-9.374-2.1-18.592 3.07-15.6 12.91zm41.25-32.79c-1.49-5.83-5.762-9.83-12.618-11.35-6.796-1.5-16.21-1.92-19.984 2.28-3.594 3.99-5.254 9.59-2.242 13.88 6.016 8.56 17.04 11.55 26.863 9.38 5.605-1.31 9.726-7.05 7.98-14.19zm-3.657 34.31c3.657 8.11 12.954 12.19 21.875 9.47 1.79-.58 5.47-3.45 5.98-6.29 1.056-5.64-.898-10.79-5.608-13.74-6.036-3.85-11.012-6.01-17.95-3.17-5.203 2.18-6.472 8.94-4.297 13.73zm38.442-22.78c4.07-6.9-2.13-13.83-5.285-15.73-6.985-4.09-16.844-6.6-21.043.33-4.145 6.79-.727 14.86 6.504 17.84 6.89 2.86 14.032 7.2 19.825-2.44zm11.582-26.36c4.566-3.78 8.57-11.7 3.1-17.97-5.13-5.91-11.518-7.68-19.585-8.98-5.468-.93-12.445 3.11-13.324 7.93-.816 4.15-1.582 11.72 2.54 15.21 8.03 6.83 18.78 10.79 27.27 3.81zm9.668 44.98c4.312-1.28 7.066-5.84 4.91-10.23-1.316-2.7-5.187-5.65-7.645-7.15-6.77-4.18-12.582-2.46-14.687 2.51-3.906 9.15 9.195 17.29 17.422 14.87zm16.504-22.8c4.75-.42 6.93-3.73 7.87-7.36 1.23-4.87-.37-9.38-4.49-12.14-4.885-3.25-10.983-5.17-15.866-5.24-6.59-.12-12.69 9.56-9.12 15.84 3.78 6.74 13.304 9.62 21.605 8.9zm27.28-34.89c2.81-8.28-3.26-12.14-9.66-15.54-6.5-3.47-15.22-6.71-19.735-2.39-5.77 5.43-8.335 14.58-1.914 20.6 8.93 8.36 25.41 14.65 31.31-2.67zm11.78-20.77c10.46-1.33 12.54-16.2 10.43-21.58-2.4-4.62-7.67-8.24-10.43-9.66-7.68-3.95-16.64-5.45-23.69-1.8-6.43 3.34-9.22 13.09-5.72 20.73 4.72 10.34 19.62 13.6 29.41 12.31zm21.52-46.04c3.58-5 2.8-13.88.67-16.66-6.6-9.01-24.96-14.16-32.54-10.47-5.75 2.82-11.43 15.5-4.69 23.11 7 7.9 19.22 12.61 30.3 10.3 2.47-.55 4.09-3.27 6.26-6.28zm4.63-28.37c5.04-.54 9.51-6.08 11.95-12.11 3.16-7.8-.03-16.89-2.53-18.59-6.02-4.09-25.08-15.57-37.09-8.69-6.6 3.79-8.42 12.44-8.83 17.55-1.32 16.51 23.73 23.27 36.5 21.84zm-70.387-118.09c-2.563 6.55-4.94 16.24.203 20.22 10.394 8.2 33.894 15.37 42.834 2.97 5.81-8.05 4.11-21.7-6.07-26.92-10.5-5.37-31.04-11.54-36.967 3.73zm-50.41-.72c10.43 5.3 25.457 11.7 36.687 4.46 5.137-3.29 10.442-16.96 6.817-23.02-7.703-12.87-27.957-16.15-40.852-12.84-10.957 2.85-14.265 25.53-2.652 31.4zm-9.375 44.49c12.578 8.85 37.437 14.57 43.418-4.78 1.558-5.01 2.437-10.56-.117-14.61-6.974-11.21-24.67-14.16-36.505-12.49-12.793 1.85-18.852 23.43-6.797 31.88zm-10.598 45.08c12.09 6.85 37.86 15.96 43.926-3.68 2.434-8.03 2.18-17.94-4.695-21.49-9.843-5.16-25.452-10.58-36.808-3.5-9.48 6-10.762 23.89-2.422 28.67zm67.676 81.02c-5.066-4.52-10.203-5.49-16.94-7.78-9.435-3.2-19.322 4.07-20.404 13.1-1.816 15.46 14.754 17.76 25.71 19.69 7.99 1.45 12.935-5.73 14.407-10.56 1.503-4.64 1.308-10.86-2.774-14.45zm20.304-36.37c-7.19-10.71-36.156-17.45-42.55-6.43-4.668 8.07-7.57 19.39 1.203 24.8 9.22 5.66 20.137 9.05 30.857 7.12 10.08-1.78 15.22-18.36 10.49-25.49zm15.45-66.33c4.12-6.56 7.01-15.37.88-23.52-5.55-7.45-25.37-10.94-35.51-8.48-5.565 1.4-8.202 8.16-9.054 12.73-1.18 6.17-1.726 12.38 3.73 17.41 7.852 7.2 18.334 7.04 28.404 7.04 4.15 0 10-2.68 11.55-5.18zm-5.76 22.26c-6.18-11.34-27.084-12.8-36.486-11.55-6.62.89-11.29 11.57-11.098 20.51.07 4.6 1.508 7.64 4.65 9.33 10.44 5.6 21.13 9.35 32.364 7.53 10.96-1.74 15.22-17.22 10.57-25.82zm-110.072 24.42c-7.102 21.89 20.222 28.79 36.18 25.41 11.093-2.31 14.804-23.65 4.472-30.39-12.78-8.31-35.47-10.99-40.652 4.98zm-41.21-53.73c8.19 8.45 22.975 8.98 34.51 7.43 7.083-.99 10.145-8.15 11.126-15.92 2.76-21.38-25.942-24.98-39.59-19.98-9.004 3.29-13.696 20.58-6.047 28.47zm-5.775 41.43c8.555 10.07 22.872 12.46 34.73 9.2 7.243-1.97 10.587-10.43 10.43-19.91-.136-5.38-3.828-9.29-7.152-10.65-8.417-3.42-18.163-5.96-27.358-4.84-11.352 1.39-18.227 17.27-10.65 26.2zm1.348 45.1c10.528 4.29 30.157 8.14 33.458-6.9 4.453-20.02-19.168-23.28-31.797-19.8-9.667 2.65-11.503 22.72-1.66 26.7zm75.735 33.09c7.872-4.47 9.524-17.08 4.74-24.39-6.368-9.67-28.15-15.27-39.85-6.81-6.68 4.85-10.28 24.72 3.4 29.49 10.94 3.83 21.425 7.54 31.71 1.71zm-11.164 14.38c-8.92-5.52-21.647-7.72-30.092-3.02-7.344 4.02-7.05 14.75-3.418 20.52 5.984 9.62 20.855 10.66 31.132 7.64 8.868-2.56 12.184-19.04 2.38-25.14zm-72.272 15.68c.906 2.86 2.18 3.68 3.953 4.55 7.5 3.58 15.743 4.54 22.935-.07 5.175-3.36 4.722-11.11.886-15.12-5.616-5.91-17.042-6.15-24.366-2.31-4.722 2.47-4.937 8.29-3.406 12.95zm2.394-31.34c3.32 9.48 15.157 8.95 24.11 7.79 11.023-1.44 13.23-15.56 9.308-21.5-5.414-8.2-17.753-6.63-27.582-5.38-7.988 1.02-8.464 11.61-5.836 19.09zm155.508-285.21c2.71-10.71 0-20.89-9.53-24.3-12.247-4.32-28.81-10.65-38.6-4.05-11.21 7.51-16.596 28.81-3.725 37.16 15.19 9.94 45.445 16.45 51.855-8.81zm-16.508 33.3c-8.23-9.35-21.66-9.04-34.85-12.91-5.09-1.47-11.134 3.02-13.778 7.68-4.883 8.7-9.766 20.36-.422 28.77 7.734 7.05 18.28 6.45 27.754 9.28 4.25 1.28 9.464 2.77 14.62-.72 10.684-7.29 14.844-22.91 6.676-32.1zm87.308 140.15c2.32-6.81 5.45-11.8 2.79-18.58-3.14-8.33-11.21-9.47-18.79-12.21-7.07-2.56-18.86-5.79-24.78.4-6.8 7.04-9.55 21.39-1.41 27.54 10.57 7.86 36.6 18.71 42.19 2.85zm143.29 61.18c6.23 25.39 13.97 51.14 15.9 77.97 2.84 40.07-5.8 81.73-31.51 112.08 2.53-13.09 5.88-24.14 7.64-37.88 2.09-16.59-.25-35.07-4.53-51.77-3.24-12.64-8.94-24.93-14.59-36.67-6.67-13.91-16.63-29.04-26.55-41.45-27.81-34.58-71.14-102.07-71.14-102.07s-3.63.26-5.78.26c-.51 8.41 19.44 37.22 29.5 53.35 22.1 35.35 38.82 54.37 58.04 85.03 12.04 19.32 21.23 42.84 24.19 64.16 5.99 43.43-17.43 95.48-51.1 112.79 7.69-32.44 6.89-78.17-10.37-97.4-32.7-36.43-52.13-63.69-75.46-110.39-.67-1.25-6.12 6.3-10.64 9.23-5.06 3.36-2.22 13.37-4.04 20.11-1.64 5.73-4.34 10.15-5.14 11.15-6.91 8.46-13.59 8.99-15.04 11.53-1.67 2.86-.87 10-6.89 18.13-3.01 4.1-10.68 7.13-13.8 10.97-3.37 4.2-4.9 17.05-14.21 22.32-4.42 2.48-6.484 10.19-10.718 13.97-13.086 11.59-26.152 9.35-28.652 10.08-3.364.9-9.946 9.27-21.64 11.28-11.43 1.95-17.728-5.68-23.665-2.92-14.895 6.89-29.153 7.46-44.98-10.18-4.755-5.25-12.962-.34-23.215-8.18-9-6.86-9.16-13.2-13.75-14.06-8.614-1.62-15.028-8.51-18.348-16.03-1.73-3.87-3.02-11.7-4.024-16.86-1.418-7.13-5.007-13.69-5.086-18.93-.082-7.28 2.223-11.21 1.583-14.47-1.067-4.71-4.883-9.04-5.352-13.44-.344-2.5-.55-9.16 1.27-12.91 2.285-4.62-1.614-8.63-3.633-13.56-1.938-4.58-3.977-12.42-3.364-17.95.825-7.59 5.176-10.37 1.797-16.35-5.547-9.72-12.54-24.88-.27-44.25 2.255-3.54-5.14-10.43-5.546-20.54-.473-11 6.172-19.13 7.984-24 .333-1.75-2.925-1.65-3.046-3.53-29.214 30.9-55.054 59.39-88.95 86.22-20.702 16.36-41.17 30.12-64.108 42.4-61.29 32.87-132.492 54.86-196.992 46.82 24.285-19.55 54.94-33.5 79.89-55.71 23.64-21.06 45.09-39.04 66.62-61.41 33.794-35.11 61.255-70.7 89.868-112.01 8.5-12.23 14.094-20.41 22.012-33.17 7.98-12.76 16.844-26.31 24.106-38.96 36.62-63.58 66.62-122.44 96.98-187.59 8.43-18.01 15.496-36.87 23.762-54.78 2.207-4.86 5.37-1.25 7.613 0 10.98 6.35 22.64 11.66 34.043 17.04 9.106 4.18 17.387 7.06 25.512 10.18 20.547 7.83 40.04 12.08 61.55 16.55 35.91 7.52 100.44 5.97 100.44 5.97l122.33.04h3.34c-1.28 35.07-9.61 69.15-11.64 104.32-1.54 28.5-.59 56.04.41 84.59 2.74 77.36 14.11 160.4 31.39 230.88M395.137 2295.16c-23.87-23.8-30.992-32.57-44.91-58.88-8.2-15.47-18.61-35.33-21.58-60.93 49.052 18.67 89.072 56.78 125.236 98.87 26.754 31.2 47.504 72.6 73.887 103.42-46.47-15.58-95.504-45.52-132.633-82.48"></path><path d="M254.71 2228.25c18.493 31.24 44.98 65.01 72.442 88.05-12.718-28.57-28.382-56.87-33.77-90.66-10.67-67.27-20.745-114.39-31.905-175.79 30.503 21.76 62.683 55.95 95.03 79.81 24.997 18.37 50.052 30.64 75.76 48.3 15.276 10.55 25.233 24.09 37.944 36.77-15.144-63.84-71.163-128.27-111.272-158.31-50.387-37.79-68.45-43.81-149.422-126.15-10.282 101.67-8.454 207.33 45.195 297.98"></path><path d="M89.523 1890.59c3.766 52.8 10.102 95.02 22.926 146.52 8.988 35.97 28.34 89.51 56.245 111.47-3.418-13.04-5.215-32.6-6.53-45.79-5.47-54.4 4.944-117.58 6.187-171.91.617-26.72.382-47.31-3.618-72.41-4.136-26.33-.687-58.62-.687-58.62s14.426 16.47 27.305 36.99c28.144 44.7 37.16 57.97 59.836 82.19 28.132 30.05 59.597 57.88 95.124 82.52-4.285-16.69-22.425-49.16-29.92-62.21-10.005-17.45-14.544-33.32-38.216-72.85-33.313-55.55-48.153-63.04-85.14-122.45-8.01-12.92-40.848-62.06-48.806-77.08-17.328 35.86-23.863 67.19-45.12 125.56-13.352 36.68-11.356 73.37-9.587 98.07"></path><path d="M38.09 1615.92C18.004 1668 8.8 1716.32 1.992 1771.15c-4.16 33.55-2.226 78.26 9.746 110.52 3.14-7.87 9.547-27.87 10.414-30.86 8.907-29.96 12.633-44.35 25.082-73.25 9.524-22.16 21.168-39.83 33.63-61.73 11.327-19.99 20.89-46.31 29.085-66.45 26.374-64.57 28.32-125.02 38.413-131.62 7.258 15.54 9.532 30.42 10.344 37.75 7.84 71.45 17.25 136.39 107.227 220.6 8.254-25.07 4.07-71.28-.89-96.03-10.76-54.12-19.446-80.11-43.282-132.56-12.598-27.62-29.418-68.27-34.028-81.73-12.082-35.07-16.218-53.45-23.82-74.19-42.476 70.78-94.758 143.87-125.824 224.32"></path><path d="M108.12 1290.31c-30.245 42.1-41.265 63.25-60.948 108.07-16.528 37.59-21.28 51.53-30.96 93.63-5.29 22.95-8.278 43.77-4.173 57.34 23.68-42.87 39.84-90.85 70.812-126.41 24.59-28.21 48.277-52.23 67.824-76.04 29.988-36.58 53.6-71.21 82.383-109.3 2.424 19.09 3.362 38.43-.927 69.71-5.856 42.86-2.246 78 5.238 119.5 9.49 52.65 16.446 78.71 34.716 131.98 22.348-43.83 22.262-94.54 27.87-141.03 10.83-90.2-17.39-197.76-22.94-242.6-1.485-11.81.562-40.96 1.16-52.31-42.2 33.22-79.742 66.78-116.14 103.28-16.587 16.54-39.345 43.95-53.915 64.18"></path><path d="M268.102 959.53c-19.215 13.85-70.844 53.3-95.29 84.35-35.6 45.22-43.437 64.59-66.92 116.59-2.88 6.34-16.17 35.78-17.255 55.78 76.945-92.91 145.832-106.74 219.23-183.83 26.934-28.24 54.516-54.83 69.07-68.17 11.172-10.27 25.043-13.39 25.043-13.39s-1.445 19.8-8.687 33.59c-48.97 93.59-58.21 191.43-50.78 296.44 22.35-27.67 29.4-46.15 43.585-72.91 15.43-29.15 23.297-47.17 30.507-65.11 41.903-104.28 52.805-224.75 78.692-285.37-79.91 26.93-142.84 41.31-227.195 102.03"></path><path d="M595.824 713.43c-21.613-1.442-63.992-1.32-86.586 2.37-114.394 18.302-220.726 101.212-274.215 192.26 48.497-29.59 83.563-49.33 126.21-64.1 37.986-13.12 74.01-17.01 137.42-35.02 38.26-10.82 76.144-26.13 89.452-31.112 42.418-15.797 60.278-11.918 60.278-11.918s0 6.45-15.844 23.73c-31.58 34.462-43.142 42.7-69.122 69.2-8.53 8.75-28.074 38.48-37.996 58.25-28.074 55.88-31.192 100.66-56.828 162.05 93.554-54.94 139.125-130.75 188.59-226.312 15.21-29.277 35.777-63.09 54.57-81.656 12.637-12.48 30.44-31.434 30.44-31.434s-13.046-3.058-53.663-9.058c-18.22-2.68-57.05-14.77-92.706-17.25M1049.31 706.19c49.39-8.088 93.28-20.08 138.19-35.49 12.07-4.16 30.44-13.278 43.16-19.73 31.84-16.208 50.16-26.72 77.52-45.54 44.07-30.34 91.41-63.05 134.12-112.66.91-.98 7.82-8.36 3.22-11.97-8.37-6.55-29-15.902-35.85-9.85-39.08 34.77-37.11 45.902-84.47 88.788-12.15 10.942-30.49 26.293-52.41 41.274-21.37 14.63-47.21 30.61-71.22 42.457-21.82 10.73-55.42 13.952-74.28 13.952l.26-.14c-8.58.327-57.84.61-69.25-.14-96.808-6.642-92.062-15.29-147.878-30.412-45.918-12.5-95.168-21.378-144.067-27.94-50.082-6.82-94.902-7.642-141.85-2.84-63.65 6.55-133.275 24.3-185.243 57.78 47.515-.8 96.304-9.92 143.57-6.308 19.887 1.54 52.156 4.527 74.008 11.27 43.418 13.34 68.332 18.527 114.312 31.347 39.512 10.99 79.344 14.8 120.606 19.16 57.097 6.11 109.992 4.722 157.552-3.01M1934.51 2295.16c23.88-23.8 31.03-32.57 44.94-58.88 8.21-15.47 18.62-35.33 21.59-60.93-49.1 18.67-89.08 56.78-125.27 98.87-26.77 31.2-47.49 72.6-73.87 103.42 46.48-15.58 95.5-45.52 132.61-82.48"></path><path d="M2074.97 2228.25c-18.51 31.24-44.99 65.01-72.44 88.05 12.84-30.74 31.56-69.04 33.76-90.66 6.83-67.74 20.74-114.39 31.91-175.79-30.49 21.76-62.71 55.95-95.06 79.81-24.94 18.37-50.01 30.64-75.7 48.3-15.31 10.55-25.26 24.09-37.98 36.77 15.15-63.84 71.17-128.27 111.28-158.31 50.37-37.79 68.44-43.81 149.38-126.15 10.27 101.67 8.45 207.33-45.15 297.98"></path><path d="M2240.16 1890.59c-3.81 52.8-10.08 95.02-22.93 146.52-8.99 35.97-28.34 89.51-56.29 111.47 3.45-13.04 5.22-32.6 6.56-45.79 5.52-54.4-4.88-117.58-6.17-171.91-.62-26.72-.39-47.31 3.58-72.41 4.15-26.33.72-58.62.72-58.62s-14.42 16.47-27.33 36.99c-28.09 44.7-37.11 57.97-59.84 82.19-28.11 30.05-59.6 57.88-95.14 82.52 4.34-16.69 22.46-49.16 29.96-62.21 10.05-17.45 14.53-33.32 38.22-72.85 33.3-55.55 48.15-63.04 85.1-122.45 8.01-12.92 40.9-62.06 48.85-77.08 17.34 35.86 23.86 67.19 45.12 125.56 13.39 36.68 11.38 73.37 9.59 98.07"></path><path d="M2291.58 1615.92c20.08 52.08 29.27 100.4 36.12 155.23 4.16 33.55 2.19 78.26-9.75 110.52-3.15-7.87-9.53-27.87-10.42-30.86-8.94-29.96-12.64-44.35-25.06-73.25-9.53-22.16-21.24-39.83-33.66-61.73-11.33-19.99-20.88-46.31-29.12-66.45-26.34-64.57-28.29-125.02-38.38-131.62-7.29 15.54-9.54 30.42-10.33 37.75-7.85 71.45-17.27 136.39-107.23 220.6-8.28-25.07-4.08-71.28.84-96.03 10.8-54.12 19.53-80.11 43.32-132.56 12.6-27.62 29.42-68.27 34.06-81.73 12.01-35.07 16.17-53.45 23.83-74.19 42.44 70.78 94.73 143.87 125.78 224.32"></path><path d="M2221.56 1290.31c30.28 42.1 41.26 63.25 60.94 108.07 16.52 37.59 21.26 51.53 30.98 93.63 5.29 22.95 8.26 43.77 4.14 57.34-23.62-42.87-39.87-90.85-70.83-126.41-24.54-28.21-48.24-52.23-67.79-76.04-29.96-36.58-53.64-71.21-82.38-109.3-2.4 19.09-3.38 38.43.88 69.71 5.9 42.86 2.29 78-5.2 119.5-9.49 52.65-16.44 78.71-34.7 131.98-22.33-43.83-22.27-94.54-27.88-141.03-10.86-90.2 17.43-197.76 22.98-242.6 1.44-11.81-.6-40.96-1.2-52.31 42.2 33.22 79.75 66.78 116.14 103.28 16.59 16.54 39.29 43.95 53.92 64.18"></path><path d="M2061.59 959.53c19.19 13.85 70.83 53.3 95.27 84.35 35.6 45.22 43.45 64.59 66.93 116.59 2.83 6.34 16.17 35.78 17.25 55.78-76.94-92.91-145.83-106.74-219.23-183.83-26.93-28.24-54.49-54.83-69.06-68.17-11.17-10.27-25.04-13.39-25.04-13.39s1.43 19.8 8.66 33.59c48.98 93.59 58.23 191.43 50.76 296.44-22.28-27.67-29.38-46.15-43.55-72.91-15.4-29.15-23.29-47.17-30.47-65.11-41.94-104.28-52.89-224.75-78.76-285.37 79.97 26.93 142.88 41.31 227.24 102.03"></path><path d="M1733.85 713.43c21.66-1.442 64-1.32 86.62 2.37 114.39 18.302 220.69 101.212 274.19 192.26-48.55-29.59-83.61-49.33-126.22-64.1-38.01-13.12-74.01-17.01-137.39-35.02-38.3-10.82-76.17-26.13-89.49-31.112-42.41-15.797-60.27-11.918-60.27-11.918s0 6.45 15.84 23.73c31.58 34.462 43.16 42.7 69.1 69.2 8.56 8.75 28.11 38.48 38.02 58.25 28.07 55.88 31.2 100.66 56.86 162.05-93.55-54.94-139.22-130.75-188.65-226.312-15.17-29.277-35.74-63.09-54.51-81.656-12.62-12.48-30.47-31.434-30.47-31.434s13.05-3.058 53.7-9.058c18.2-2.68 57-14.77 92.67-17.25M1280.37 706.19c-49.38-8.088-93.23-20.08-138.18-35.49-12.12-4.16-30.46-13.278-43.18-19.73-31.83-16.208-50.11-26.72-77.51-45.54-44.105-30.34-91.37-63.05-134.13-112.66-.917-.98-7.85-8.36-3.222-11.97 8.403-6.55 29.028-15.902 35.825-9.85 39.097 34.77 37.105 45.902 84.517 88.788 12.1 10.942 30.44 26.293 52.39 41.274 21.42 14.63 47.19 30.61 71.22 42.457 21.79 10.73 55.45 13.952 74.28 13.952l-.27-.14c8.59.327 57.83.61 69.27-.14 96.82-6.642 92.06-15.29 147.85-30.412 45.94-12.5 95.18-21.378 144.08-27.94 50.06-6.82 94.91-7.642 141.86-2.84 63.66 6.55 133.26 24.3 185.2 57.78-47.48-.8-96.24-9.92-143.55-6.308-19.91 1.54-52.13 4.527-73.99 11.27-43.42 13.34-68.35 18.527-114.29 31.347-39.53 10.99-79.36 14.8-120.6 19.16-57.13 6.11-110.01 4.722-157.57-3.01M1103.64 2834.64l-86.95-322.87h-92.315l-57.742 210.33-56.445-210.33h-92.09l-86.95 322.87h86.903l49.54-222.26 59.578 222.26h83.06l56.518-222.26 52.014 222.26h84.88M1390.51 2772.2h-148.54v-60.08h137.7v-62.44h-137.7v-137.91h-82.82v322.87h231.36v-62.44M1628.38 2730.88c0 9.08-2.46 16.9-7.36 23.46-4.93 6.57-10.63 11.14-17.13 13.74-8.68 3.46-17.13 5.37-25.37 5.74-8.25.35-19.24.54-32.97.54h-14.31v-96.5h23.85c14.17 0 25.84.87 35.03 2.6 9.18 1.73 16.87 5.2 23.08 10.39 5.35 4.6 9.22 10.13 11.6 16.55 2.39 6.41 3.58 14.24 3.58 23.48zm86.09 1.85c0-14.46-2.54-28.59-7.59-42.4-5.06-13.81-12.29-25.41-21.68-34.79-12.88-12.74-27.22-22.34-43.05-28.85-15.82-6.51-35.53-9.76-59.08-9.76h-51.83v-105.16h-83.27v322.87h137.05c20.53 0 37.83-1.77 51.92-5.31 14.1-3.55 26.58-8.85 37.42-15.94 13-8.53 22.94-19.44 29.81-32.75 6.87-13.3 10.3-29.26 10.3-47.91M499.312 257.87L441.266 70.56H377.52l-38.168 126.268-37.707-126.27h-64.38l-57.542 187.313h62.988l32.153-129.08 39.965 129.08h53.207l38-129.08 31.633 129.08h61.644M649.77 286.07h-4.493c-2.66.782-6.12 1.66-10.394 2.66-4.27.99-8.844 1.5-13.727 1.5-11.754 0-19.707-2.11-23.867-6.332-4.153-4.238-6.23-12.398-6.23-24.527v-1.5h46.198v-40.69h-44.2V70.56h-60.222v146.62h-25.684v40.69h25.684v5.17c0 22.91 6.094 40.08 18.273 51.55 12.175 11.46 30.605 17.18 55.292 17.18 8.895 0 16.957-.31 24.184-.91 7.226-.61 13.625-1.43 19.184-2.43v-42.36M789.148 165.54c0 18.21-3.1 31.43-9.312 39.65-6.215 8.2-16.035 12.33-29.465 12.33-5.65 0-11.483-.88-17.472-2.598-5.988-1.703-11.703-4.184-17.14-7.402v-94.09c3.988-1.56 8.265-2.55 12.816-3 4.547-.45 9.04-.668 13.477-.668 15.872 0 27.684 4.63 35.45 13.91 7.766 9.258 11.648 23.22 11.648 41.867zm61.875 1.27c0-15.47-2.363-29.53-7.07-42.2-4.723-12.68-10.918-23.13-18.57-31.348-8-8.672-17.055-15.262-27.16-19.692-10.11-4.45-20.938-6.68-32.493-6.68-10.664 0-19.714 1.15-27.152 3.42-7.44 2.28-15.047 5.49-22.82 9.588V1.828h-60.215V257.87h60.215v-19.51c9.215 7.34 18.63 13.28 28.234 17.85 9.613 4.57 20.688 6.83 33.242 6.83 23.325 0 41.45-8.552 54.387-25.68 12.942-17.13 19.403-40.64 19.403-70.55M879.48 70.56h62.395v65.55H879.48zM1101.28 118.61c3.89 4.77 6.8 10.53 8.75 17.25 1.93 6.73 2.91 16.05 2.91 27.95 0 10.99-1 20.23-2.99 27.67-2.01 7.46-4.78 13.4-8.34 17.848-3.57 4.57-7.85 7.8-12.85 9.692-5 1.87-10.4 2.832-16.18 2.832-5.78 0-10.93-.782-15.43-2.34-4.5-1.543-8.82-4.672-12.92-9.34-3.67-4.332-6.59-10.274-8.77-17.852-2.17-7.558-3.24-17.07-3.24-28.51 0-10.24.93-19.11 2.83-26.61 1.89-7.52 4.67-13.528 8.34-18.098 3.55-4.34 7.81-7.5 12.76-9.512 4.94-2 10.59-2.988 16.93-2.988 5.45 0 10.65.898 15.6 2.75 4.94 1.82 9.14 4.898 12.6 9.257zm73.88 45.53c0-30.8-8.99-55.08-26.94-72.82-17.97-17.73-43.17-26.6-75.64-26.6s-57.69 8.87-75.646 26.6c-17.957 17.74-26.946 42.02-26.946 72.82 0 31.008 9.043 55.372 27.114 73.04 18.068 17.7 43.218 26.55 75.478 26.55 32.7 0 57.96-8.91 75.8-26.7 17.85-17.8 26.78-42.09 26.78-72.89M1336.89 200.66h-5.33c-2.56.9-6.66 1.56-12.32 2.012-5.66.43-10.37.668-14.14.668-8.55 0-16.09-.57-22.64-1.68-6.54-1.12-13.59-2.988-21.13-5.672V70.558h-60.22v187.313h60.22v-27.518c13.2 11.347 24.69 18.878 34.44 22.617 9.77 3.71 18.76 5.58 26.96 5.58 2.11 0 4.5-.062 7.17-.17 2.66-.118 4.99-.278 6.99-.51v-57.21M1475.76 129.61v84.902c-3.44 1.437-7.65 2.578-12.65 3.418-4.99.84-9.49 1.25-13.48 1.25-15.76 0-27.58-4.54-35.45-13.602-7.87-9.058-11.82-21.7-11.82-37.95 0-18 3.36-30.558 10.08-37.687 6.7-7.112 16.66-10.69 29.86-10.69 6 0 11.88.96 17.64 2.86 5.77 1.87 11.06 4.37 15.82 7.5zm60.22-37.54c0-17.558-2.5-32.35-7.51-44.36-5.01-12.01-12.01-21.4-21.03-28.18-9-6.92-19.86-11.882-32.6-14.94-12.73-3.05-27.11-4.59-43.12-4.59-13.01 0-25.82.78-38.44 2.34-12.63 1.558-23.55 3.46-32.78 5.66v46.88h7.33c7.33-2.892 16.26-5.528 26.82-7.91 10.55-2.4 19.98-3.59 28.31-3.59 11.1 0 20.13 1.03 27.07 3.08 6.94 2.052 12.24 4.98 15.9 8.75 3.45 3.58 5.95 8.13 7.49 13.67 1.56 5.57 2.34 12.25 2.34 20.018v3.524c-7.22-5.902-15.21-10.57-23.99-14.012-8.77-3.45-18.55-5.172-29.32-5.172-26.22 0-46.43 7.89-60.64 23.692-14.22 15.78-21.32 39.79-21.32 72.05 0 15.45 2.17 28.79 6.49 40.02 4.33 11.23 10.44 21.02 18.32 29.36 7.34 7.788 16.36 13.84 27.07 18.18 10.72 4.34 21.69 6.5 32.91 6.5 10.11 0 19.3-1.188 27.57-3.57 8.27-2.4 15.8-5.7 22.58-9.94l2.17 8.34h58.38V92.07M1751.25 330.11L1618.96 16.52h-51.19l131.74 313.59h51.74M1905.52 121.91v91.68c-4.2 1.78-8.62 3.07-13.26 3.832-4.64.777-8.89 1.168-12.77 1.168-15.69 0-27.46-4.9-35.3-14.73-7.85-9.82-11.78-23.43-11.78-40.86 0-18.3 3.16-31.578 9.46-39.84 6.28-8.262 16.4-12.398 30.33-12.398 5.41 0 11.16 1.027 17.24 3.078 6.08 2.05 11.44 4.75 16.08 8.07zm59.98-51.35h-59.98V90c-10.3-8.422-19.91-14.63-28.87-18.62-8.96-3.982-19.32-5.97-31.03-5.97-22.68 0-40.83 8.75-54.44 26.25-13.6 17.5-20.41 41.09-20.41 70.78 0 15.84 2.31 29.88 6.9 42.11 4.59 12.24 10.86 22.73 18.82 31.48 7.52 8.298 16.65 14.77 27.39 19.36 10.73 4.59 21.46 6.89 32.18 6.89 11.18 0 20.34-1.19 27.47-3.57 7.13-2.39 14.47-5.39 21.99-9.05v79.418h59.98V70.558M2111.14 119.37v38.75c-8.08-.66-16.83-1.58-26.25-2.73-9.41-1.17-16.56-2.52-21.42-4.07-5.99-1.87-10.56-4.6-13.71-8.2-3.17-3.57-4.74-8.3-4.74-14.16 0-3.87.33-7.01 1-9.43.66-2.44 2.32-4.75 4.99-6.96 2.53-2.2 5.58-3.84 9.13-4.88 3.54-1.05 9.08-1.58 16.61-1.58 5.98 0 12.05 1.21 18.19 3.652 6.14 2.418 11.55 5.63 16.2 9.61zm0-29.042c-3.21-2.437-7.2-5.367-11.96-8.81-4.77-3.44-9.25-6.147-13.46-8.14-5.87-2.66-11.96-4.61-18.27-5.898-6.32-1.27-13.24-1.902-20.77-1.902-17.72 0-32.57 5.473-44.52 16.453-11.97 10.95-17.95 24.958-17.95 42.03 0 13.612 3.05 24.75 9.14 33.4 6.09 8.63 14.73 15.45 25.92 20.43 11.07 4.98 24.8 8.532 41.2 10.622 16.4 2.11 33.39 3.648 51 4.668v1c0 10.29-4.2 17.398-12.62 21.34-8.42 3.93-20.83 5.902-37.22 5.902-9.86 0-20.38-1.762-31.56-5.23-11.19-3.5-19.22-6.192-24.09-8.07h-5.48v45.02c6.31 1.66 16.58 3.628 30.82 5.897 14.22 2.27 28.48 3.42 42.77 3.42 34.01 0 58.57-5.24 73.69-15.71 15.12-10.46 22.68-26.89 22.68-49.25V70.56h-59.32v19.768"></path></g></svg>