<svg xmlns="http://www.w3.org/2000/svg" viewBox="0 0 1408.1866 377.94666" height="377.947" width="1408.187"><defs><clipPath id="a"><path d="M0 0h10561v2834.65H0z"></path></clipPath></defs><g clip-path="url(#a)" fill="#fff" transform="matrix(.13333 0 0 -.13333 0 377.947)"><path d="M3193.57 1623.83l-120.39-447.06h-127.81L2865.41 1468l-78.16-291.23h-127.5l-120.4 447.06h120.34l68.58-307.75 82.5 307.75h114.99l78.27-307.75 72.01 307.75h117.53M3446.1 1263.24c7.01 8.6 12.26 18.96 15.77 31.08 3.49 12.11 5.25 28.87 5.25 50.28 0 19.82-1.8 36.43-5.41 49.85-3.6 13.41-8.6 24.12-15.01 32.12-6.41 8.2-14.11 14.01-23.12 17.43-9 3.38-18.72 5.08-29.12 5.08-10.41 0-19.66-1.39-27.77-4.19-8.1-2.81-15.87-8.41-23.26-16.82-6.61-7.8-11.87-18.52-15.77-32.13-3.91-13.61-5.86-30.72-5.86-51.34 0-18.41 1.71-34.36 5.11-47.88 3.4-13.52 8.4-24.37 15.01-32.58 6.4-7.81 14.06-13.5 22.97-17.11 8.9-3.6 19.07-5.41 30.47-5.41 9.81 0 19.17 1.65 28.08 4.96 8.89 3.3 16.46 8.85 22.66 16.66zm133.02 81.97c0-55.44-16.18-99.13-48.49-131.06-32.33-31.92-77.72-47.88-136.17-47.88-58.44 0-103.83 15.96-136.16 47.88-32.32 31.93-48.49 75.62-48.49 131.06 0 55.85 16.26 99.68 48.79 131.5 32.53 31.83 77.81 47.73 135.86 47.73 58.85 0 104.34-16.01 136.46-48.02 32.13-32.03 48.2-75.76 48.2-131.21M3900.96 1410.96h-9.58c-4.59 1.59-11.99 2.8-22.18 3.6-10.18.79-18.67 1.2-25.45 1.2-15.38 0-28.96-1-40.74-3-11.79-2.01-24.47-5.4-38.05-10.21v-225.78h-108.39v337.18h108.39v-49.55c23.77 20.42 44.43 33.97 62.01 40.68 17.57 6.71 33.75 10.07 48.53 10.07 3.79 0 8.09-.11 12.88-.3 4.8-.21 8.99-.51 12.58-.9v-102.99M3962.21 1176.77h108.39v467.18h-108.39zM4391.86 1269.57v165.7c-7.6 3.2-15.58 5.51-23.97 6.91-8.38 1.41-16.07 2.11-23.07 2.11-28.36 0-49.63-8.87-63.81-26.62-14.17-17.74-21.27-42.35-21.27-73.82 0-33.08 5.69-57.08 17.08-72.02 11.38-14.93 29.65-22.39 54.82-22.39 9.79 0 20.17 1.84 31.15 5.56 10.99 3.7 20.67 8.56 29.07 14.57zm108.37-92.8h-108.37v35.13c-18.61-15.21-35.99-26.42-52.19-33.63-16.2-7.19-34.88-10.8-56.07-10.8-40.99 0-73.77 15.8-98.36 47.43-24.6 31.62-36.89 74.26-36.89 127.9 0 28.63 4.16 54 12.45 76.12 8.3 22.11 19.64 41.07 34.04 56.89 13.59 15.01 30.08 26.67 49.47 34.98 19.4 8.3 38.79 12.45 58.18 12.45 20.19 0 36.73-2.14 49.63-6.44 12.88-4.32 26.14-9.77 39.74-16.37v143.52h108.37v-467.18M5138.85 1537.36h-205.66v-83.17h190.65v-86.47h-190.65v-190.95H4818.5v447.06h320.35v-86.47M5424.09 1263.24c7 8.6 12.25 18.96 15.75 31.08 3.5 12.11 5.25 28.87 5.25 50.28 0 19.82-1.79 36.43-5.41 49.85-3.58 13.41-8.59 24.12-15.01 32.12-6.39 8.2-14.09 14.01-23.11 17.43-9.01 3.38-18.72 5.08-29.11 5.08-10.42 0-19.66-1.39-27.79-4.19-8.1-2.81-15.87-8.41-23.25-16.82-6.62-7.8-11.87-18.52-15.78-32.13-3.91-13.61-5.86-30.72-5.86-51.34 0-18.41 1.71-34.36 5.12-47.88 3.39-13.52 8.4-24.37 15.02-32.58 6.39-7.81 14.05-13.5 22.96-17.11 8.9-3.6 19.07-5.41 30.47-5.41 9.81 0 19.17 1.65 28.08 4.96 8.89 3.3 16.45 8.85 22.67 16.66zm132.99 81.97c0-55.44-16.15-99.13-48.47-131.06-32.35-31.92-77.73-47.88-136.16-47.88-58.45 0-103.85 15.96-136.18 47.88-32.31 31.93-48.48 75.62-48.48 131.06 0 55.85 16.26 99.68 48.79 131.5 32.54 31.83 77.81 47.73 135.87 47.73 58.84 0 104.33-16.01 136.45-48.02 32.12-32.03 48.18-75.76 48.18-131.21M5846.23 1263.24c7 8.6 12.25 18.96 15.75 31.08 3.5 12.11 5.25 28.87 5.25 50.28 0 19.82-1.8 36.43-5.41 49.85-3.59 13.41-8.59 24.12-15.01 32.12-6.39 8.2-14.1 14.01-23.12 17.43-9 3.38-18.71 5.08-29.11 5.08-10.41 0-19.66-1.39-27.79-4.19-8.09-2.81-15.86-8.41-23.24-16.82-6.62-7.8-11.88-18.52-15.78-32.13-3.91-13.61-5.86-30.72-5.86-51.34 0-18.41 1.71-34.36 5.12-47.88 3.39-13.52 8.39-24.37 15.02-32.58 6.39-7.81 14.04-13.5 22.95-17.11 8.91-3.6 19.08-5.41 30.48-5.41 9.81 0 19.16 1.65 28.08 4.96 8.89 3.3 16.44 8.85 22.67 16.66zm132.99 81.97c0-55.44-16.16-99.13-48.47-131.06-32.35-31.92-77.73-47.88-136.17-47.88-58.44 0-103.84 15.96-136.17 47.88-32.31 31.93-48.49 75.62-48.49 131.06 0 55.85 16.27 99.68 48.79 131.5 32.54 31.83 77.81 47.73 135.87 47.73 58.85 0 104.34-16.01 136.46-48.02 32.12-32.03 48.18-75.76 48.18-131.21M6276.17 1269.57v165.7c-7.61 3.2-15.57 5.51-23.97 6.91-8.4 1.41-16.07 2.11-23.06 2.11-28.38 0-49.63-8.87-63.81-26.62-14.19-17.74-21.28-42.35-21.28-73.82 0-33.08 5.7-57.08 17.08-72.02 11.37-14.93 29.65-22.39 54.82-22.39 9.79 0 20.16 1.84 31.15 5.56 10.98 3.7 20.68 8.56 29.07 14.57zm108.38-92.8h-108.38v35.13c-18.61-15.21-36-26.42-52.18-33.63-16.2-7.19-34.89-10.8-56.08-10.8-40.98 0-73.77 15.8-98.35 47.43-24.6 31.62-36.9 74.26-36.9 127.9 0 28.63 4.15 54 12.45 76.12 8.29 22.11 19.65 41.07 34.04 56.89 13.59 15.01 30.08 26.67 49.48 34.98 19.39 8.3 38.78 12.45 58.17 12.45 20.18 0 36.74-2.14 49.62-6.44 12.89-4.32 26.15-9.77 39.75-16.37v143.52h108.38v-467.18M6952.59 1480.15c0 12.59-3.41 23.42-10.21 32.51-6.8 9.08-14.7 15.43-23.7 19.01-12.02 4.8-23.72 7.44-35.15 7.94-11.4.5-26.61.75-45.62.75h-19.82v-133.6h33.04c19.61 0 35.77 1.19 48.47 3.59 12.71 2.41 23.36 7.18 31.99 14.38 7.4 6.38 12.74 14.03 16.06 22.92 3.3 8.87 4.94 19.71 4.94 32.5zm119.2 2.57c0-20.02-3.5-39.59-10.51-58.7-7-19.13-17.01-35.18-30.03-48.19-17.82-17.62-37.68-30.93-59.58-39.93-21.93-9-49.19-13.52-81.83-13.52h-71.75v-145.61H6702.8v447.06h189.75c28.42 0 52.39-2.45 71.92-7.36 19.5-4.91 36.76-12.26 51.78-22.06 18.01-11.82 31.77-26.93 41.28-45.35 9.5-18.4 14.26-40.52 14.26-66.34M7380.16 1410.96h-9.58c-4.58 1.59-11.99 2.8-22.18 3.6-10.18.79-18.67 1.2-25.45 1.2-15.38 0-28.95-1-40.73-3-11.8-2.01-24.49-5.4-38.06-10.21v-225.78h-108.38v337.18h108.38v-49.55c23.76 20.42 44.43 33.97 62.01 40.68 17.57 6.71 33.75 10.07 48.54 10.07 3.79 0 8.08-.11 12.88-.3 4.78-.21 8.98-.51 12.57-.9v-102.99M7641.4 1263.24c7 8.6 12.26 18.96 15.78 31.08 3.48 12.11 5.25 28.87 5.25 50.28 0 19.82-1.82 36.43-5.4 49.85-3.62 13.41-8.63 24.12-15.02 32.12-6.42 8.2-14.12 14.01-23.12 17.43-9 3.38-18.72 5.08-29.13 5.08-10.42 0-19.66-1.39-27.76-4.19-8.11-2.81-15.87-8.41-23.27-16.82-6.61-7.8-11.86-18.52-15.77-32.13-3.9-13.61-5.86-30.72-5.86-51.34 0-18.41 1.71-34.36 5.1-47.88 3.42-13.52 8.42-24.37 15.02-32.58 6.4-7.81 14.07-13.5 22.98-17.11 8.89-3.6 19.05-5.41 30.46-5.41 9.8 0 19.16 1.65 28.08 4.96 8.9 3.3 16.47 8.85 22.66 16.66zm133.02 81.97c0-55.44-16.18-99.13-48.5-131.06-32.31-31.92-77.72-47.88-136.16-47.88-58.45 0-103.83 15.96-136.16 47.88-32.33 31.93-48.49 75.62-48.49 131.06 0 55.85 16.25 99.68 48.8 131.5 32.52 31.83 77.81 47.73 135.85 47.73 58.85 0 104.34-16.01 136.46-48.02 32.13-32.03 48.2-75.76 48.2-131.21M8059.68 1283.05v152.83c-6.2 2.59-13.81 4.66-22.78 6.16-8.98 1.5-17.08 2.25-24.27 2.25-28.36 0-49.62-8.17-63.8-24.46-14.19-16.32-21.28-39.1-21.28-68.31 0-32.44 6.04-55.05 18.14-67.87 12.07-12.81 30.01-19.21 53.77-19.21 10.77 0 21.37 1.7 31.74 5.1 10.39 3.4 19.88 7.91 28.48 13.51zm108.38-67.55c0-31.62-4.51-58.24-13.51-79.85-9.01-21.63-21.62-38.54-37.85-50.75-16.2-12.41-35.77-21.36-58.69-26.87-22.91-5.51-48.79-8.26-77.6-8.26-23.43 0-46.51 1.39-69.21 4.21-22.72 2.8-42.38 6.2-58.99 10.2v84.37h13.18c13.19-5.21 29.28-9.95 48.27-14.26 18.99-4.3 35.97-6.46 50.97-6.46 19.97 0 36.22 1.86 48.72 5.56 12.48 3.7 22.02 8.96 28.62 15.76 6.19 6.41 10.7 14.61 13.48 24.61 2.82 10.01 4.23 22.02 4.23 36.04v6.31c-13-10.62-27.41-19.03-43.2-25.22-15.78-6.22-33.38-9.32-52.77-9.32-47.17 0-83.56 14.21-109.16 42.63-25.59 28.43-38.38 71.67-38.38 129.72 0 27.82 3.9 51.83 11.69 72.05 7.81 20.22 18.79 37.83 32.99 52.84 13.2 14 29.45 24.92 48.73 32.72 19.3 7.82 39.03 11.71 59.22 11.71 18.21 0 34.75-2.14 49.62-6.44 14.91-4.32 28.44-10.27 40.65-17.87l3.9 15.02h105.09V1215.5M8502.85 1410.96h-9.59c-4.6 1.59-11.99 2.8-22.17 3.6-10.2.79-18.67 1.2-25.48 1.2-15.37 0-28.94-1-40.73-3-11.78-2.01-24.46-5.4-38.04-10.21v-225.78h-108.41v337.18h108.41v-49.55c23.76 20.42 44.43 33.97 62 40.68 17.58 6.71 33.76 10.07 48.53 10.07 3.8 0 8.1-.11 12.88-.3 4.8-.21 9-.51 12.6-.9v-102.99M8756.57 1264.96V1335c-14.61-1.2-30.41-2.85-47.42-4.94-17.05-2.1-29.95-4.53-38.74-7.34-10.83-3.39-19.08-8.32-24.78-14.81-5.7-6.49-8.55-15.02-8.55-25.58 0-6.99.6-12.68 1.79-17.06 1.21-4.4 4.22-8.59 9.03-12.57 4.6-4 10.09-6.94 16.49-8.83 6.42-1.9 16.43-2.84 30.03-2.84 10.82 0 21.77 2.18 32.88 6.57 11.11 4.39 20.87 10.18 29.27 17.36zm0-52.46c-5.79-4.41-13.02-9.71-21.61-15.91-8.6-6.21-16.72-11.11-24.34-14.71a153.148 153.148 0 0 0-33.01-10.67c-11.4-2.29-23.92-3.44-37.53-3.44-32.02 0-58.84 9.9-80.46 29.71-21.63 19.83-32.43 45.14-32.43 75.97 0 24.62 5.5 44.74 16.53 60.35 10.99 15.61 26.61 27.92 46.81 36.92 20.02 9.02 44.85 15.41 74.47 19.22 29.62 3.8 60.35 6.6 92.17 8.4v1.81c0 18.62-7.6 31.47-22.82 38.58-15.22 7.1-37.62 10.67-67.25 10.67-17.81 0-36.82-3.16-57.05-9.47-20.21-6.31-34.71-11.15-43.53-14.57h-9.9v81.37c11.4 3.01 29.96 6.55 55.68 10.66s51.5 6.16 77.31 6.16c61.46 0 105.85-9.46 133.16-28.37 27.31-18.92 40.98-48.6 40.98-89.03v-229.38h-107.18v35.73M9280.82 1415.76v-238.99h-108.38v168.44c0 16.4-.4 30.37-1.21 41.88-.79 11.51-2.98 20.86-6.6 28.08-3.59 7.19-9.07 12.45-16.36 15.76-7.32 3.3-17.57 4.95-30.77 4.95-10.62 0-20.92-2.16-30.92-6.45-10.02-4.31-19.02-8.87-27.03-13.67v-238.99h-108.38v337.18h108.38v-37.24c18.58 14.61 36.38 26.02 53.37 34.23 16.99 8.2 35.78 12.3 56.38 12.3 22.2 0 41.79-4.95 58.78-14.85 16.98-9.91 30.27-24.47 39.88-43.69 21.57 18.21 42.55 32.53 62.95 42.94 20.38 10.4 40.37 15.6 59.97 15.6 36.36 0 64.01-10.9 82.88-32.71 18.9-21.83 28.35-53.24 28.35-94.29v-219.47h-108.4v168.44c0 16.61-.34 30.62-1.06 42.04-.69 11.39-2.85 20.7-6.43 27.92-3.41 7.19-8.82 12.45-16.23 15.76-7.41 3.3-17.8 4.95-31.23 4.95-8.99 0-17.81-1.56-26.4-4.66-8.62-3.09-19.13-8.26-31.54-15.46M9919.76 1415.76v-238.99h-108.4v168.44c0 16.4-.41 30.37-1.19 41.88-.81 11.51-3.01 20.86-6.6 28.08-3.61 7.19-9.06 12.45-16.36 15.76-7.31 3.3-17.58 4.95-30.79 4.95-10.62 0-20.92-2.16-30.93-6.45-10.01-4.31-19.01-8.87-27.02-13.67v-238.99h-108.38v337.18h108.38v-37.24c18.61 14.61 36.4 26.02 53.39 34.23 16.99 8.2 35.77 12.3 56.38 12.3 22.18 0 41.76-4.95 58.76-14.85 16.99-9.91 30.29-24.47 39.88-43.69 21.59 18.21 42.57 32.53 62.95 42.94 20.4 10.4 40.37 15.6 59.97 15.6 36.4 0 64-10.9 82.9-32.71 18.9-21.83 28.3-53.24 28.3-94.29v-219.47h-108.3v168.44c0 16.61-.4 30.62-1.1 42.04-.7 11.39-2.9 20.7-6.5 27.92-3.4 7.19-8.8 12.45-16.2 15.76-7.4 3.3-17.79 4.95-31.19 4.95-9.02 0-17.82-1.56-26.44-4.66-8.6-3.09-19.1-8.26-31.51-15.46M10453.9 1388.74c-.6 22.62-6.2 39.63-16.8 51.04-10.6 11.41-27.1 17.12-49.6 17.12-20.8 0-37.9-5.41-51.3-16.21-13.4-10.82-20.9-28.14-22.5-51.95zm107.5-63.35H10314c1.6-26.42 11.6-46.64 30.2-60.65 18.5-14.01 45.8-21.02 81.8-21.02 22.8 0 44.9 4.1 66.3 12.31 21.5 8.21 38.4 17.01 50.8 26.43h12v-86.77c-24.4-9.82-47.4-16.92-69.1-21.32-21.6-4.4-45.5-6.6-71.7-6.6-67.7 0-119.5 15.21-155.6 45.63-36 30.42-54 73.76-54 130 0 55.63 17.1 99.73 51.2 132.27 34.1 32.52 80.9 48.77 140.4 48.77 54.8 0 96-13.85 123.7-41.58 27.6-27.72 41.4-67.59 41.4-119.64v-37.83M1340.5 2131.16c12.51 27.07 24.09 48.62 40.79 74.3 7.37 11.33 15.69 19.22 23.11 30.67-3.54 1.03-8.73-1.9-10.96-3.5-7.42-5.38-10.77-14.12-16.71-18.79-14.03-11.09-13.64-21.11-21-26.29-6.57-4.63-8.45-7.68-13.05-14.9-3.08-4.82-5.35-8.73-8.6-18.22-1.15-3.43-3.45-.4-8.92-7.94-7.19-9.8-10.41-20.39-13.39-32.26-.96-3.9-7.59-5.97-11.86-14.07-5.71-10.92-9.43-21.03-11.9-36.95-.62-3.69-6.86-6.25-11.16-16.53-3.05-7.23-5.24-8.83-7.9-22.45-1.65-8.32-5.43-9.51-9.7-21.57-3.3-9.2-3.43-18.06-4.58-30.08-.27-2.33-4.2-6.95-7.83-13.69-6.1-11.26-5.9-18.78-8.32-30.41-.93-4.2-5.65-9.77-10.18-27.79-3.98-15.98-.33-26.58-1.68-34.45-3.53-20.45-7.03-38.21-5.14-58.35.94-9.85 2.44-20.01 1.78-29.48-1.87-29.7-3.48-54.17-3.32-87.83.11-18.32 1.54-43.41 4.32-64.29 3.04-23.06 7.44-41.07 7.44-41.07h75.14s-2.94 43.45.95 89.19c2.31 27.42 8.83 56.48 14.76 76.89 7.51 26.03 12.18 39.51 26.37 73.85.3.76-.1 3.98-3.85.83-7.84-6.58-14.39-12.37-20.58-21.69-9.45-14.25-15.21-25.99-22.87-40.63-8.95-17.02-13.89-31.84-23.11-52.52-.54 14.92 1.88 29.12 4.91 42.87 3.1 14.04 5.56 25.16 9.98 37.26 7.83 21.35 15.43 39.16 27.99 59.03 7.27 11.47 16.57 21.77 26.01 30.32 11.29 10.32 21.73 19.4 33.55 29.5-12.42 6.4-28.96-6.96-32.27-7.65-17.47-3.41-24.58-19.61-29.93-21.83-7.65-3.19-12.07-7.87-17.38-14.32-4.09-4.86-5.32-12.34-9.59-14.98-7.13-4.45-12.37-11.15-17.27-20.51-2.01-3.86-7.5-22.13-13.59-19.78 10.42 61.93 32.28 120 67.38 171.7 22.25 32.77 46.45 60.88 82.12 86.1 4.7 3.33 5.61 4.89-.95 4.66-33.34-4.06-35.38-19.28-40.87-20.71-5.2-1.35-11.65-7.52-15.77-11.53-7.41-7.33-7.28-13.5-10.13-15.43-6.08-4.25-10.66-8.66-14.81-16.02-2.19-3.85-5.86-12.31-9.11-14.24-8.57-4.96-16.86-12.19-20.99-19.99-3.05-5.7-4.27-11.89-8.25-17.49-4.27-6.02-10.23-10.53-15.36-14.88 3.9 26.46 16.37 57.82 24.95 84.87 11.53 36.12 25.54 68.95 41.33 103.07M1417.21 1916.66c28.44 63.86 58.37 111.9 97.26 168.11 5.08 7.37 9.64 14.58 14.08 21.49 2 3.11 11.56 16.85 13.55 19.76 13.04 19.69 18.52 25.71 31.86 44.53 3.62 5.11 6.55 9.13 8.09 15.04 2.84 11.01-6.61 18.39-8.79 28.96-2.2 10.79-.99 22.57 3.96 31.68 3.1 5.7 6.19 7.93 9.31 15.57 6.07 14.74 3.97 46.6 10.87 47.43-1.75-15.12-2.15-32.12.23-46.62 2.76-16.93 13.03-27.19 17.27-45.12 11.43 2.06 23.83 1.57 33.45.74 9.54-.82 21.61 1.83 31.4 5.18 13.26 4.53 24.27 12.78 37.79 15.98-11.5-11.05-27.73-15.2-41.33-23.59-5-3.14-9.71-7.29-13.05-12.45-5.46-8.51-9.78-16.64-18.34-20.37-15.19-6.63-28.24-3.49-45.57-6.71-25.76-26.54-50.01-62.63-72.38-100.59-56.73-95.97-104.04-195.36-131.54-297.28 9.51 17.73 18.6 34.88 28.9 51.75 11.38 18.74 24.18 37.09 38.13 55.47 32.66 43.05 64.97 80.64 101.18 120.19 29.21 31.96 61.24 58.76 96.95 81.18 47.19 29.57 105.41 50.28 156.56 39.6 5.82-1.36 14.14-2.91 17.77-6.74-64.11 8.98-121.54-13.42-164.39-47.74-33.86-27.08-62.39-54.56-91.39-90.27-14.98-17.22-28.45-36.13-41.83-54.45-14.02-19.27-26.45-39.55-38.77-59.83-41.55-68.61-72.99-141.25-96.12-216.51-.66-2.39-.81-4.79-1.46-7.16 1.09 1.69 2.71 3.53 3.81 5.25 31.12 50.61 68.55 99.45 115.96 132.22 4.14 2.82 8.45 8.26 9.57 12.53 5.12 20.09-10.19 29.75 10.99 57.52 4.86 6.38 11.51 8.71 16.1 14.64 8.67 13.4 15.74 37.41 23 43.86-3.65-15.64-12.61-32.14-14.53-48.26-2.03-17.68 2.49-32.14 3.28-50.88 12.52-1.71 22.21-7.01 32.03-10.04 15.28-4.77 24.46-3.56 39.57-2.25 6.45.54 18.15 4.31 25.1 2.89-14.61-7.98-34.33-6.51-49.28-14.14-10.46-5.36-13.49-13.27-27.92-16.05-12.84-2.5-23.64-1.16-31.98 3.12-6.49 3.27-11.56 4.64-17.39 1.85-15.56-7.47-26.18-18.02-38.7-30.65-29.08-29.26-52.81-61.92-74.96-104.75-5.86-11.39-11.13-22.64-16.13-34.25-2.47-5.65-8.6-21.34-8.6-21.34h-75.98s-.19 21.91.52 29.91c1.46 15.95 3.63 27.76 6.72 43.94 4.41 23.26 8.72 44.37 14.76 66.94 5.88 21.96 12.21 42.56 19.74 63.65 15.71 43.96 32.41 86.06 50.67 127.06M682.55 1324.81c27.73 22.67 48.266 35.82 75.958 52.32 11.242 6.74 28.254 14.34 41.336 20.27 47.984 21.68 111.465 37.67 171.27 38.77 1.08 0 1.015-.05 1.015-.05h445.9s-1.66.05 1.56.05c14.19 0 28.22-4.95 36.91-13.14 8.71-8.26 12.87-20.98 15.14-33.63 1.92-10.79.98-20.36-1.53-31.9-1.97-9.1-3.43-14.53-8.51-22.26-3.06-4.71-5.97-7.95-11.68-12.48-5.86-4.69-14.16-6.31-23.67-6.41-1-.04-3.12-.1-3.05-.08.1.08-521.56.08-521.56.08s-3.242.02-4.87.02c-34.15.1-70.094-1.64-103.836-6.04-25.844-3.53-51.743-7.56-76.723-14.06-31.503-8.22-61.835-19.63-92.116-30.92 16.785 22.33 36.16 41.25 58.457 59.46"></path><path d="M837.383 1502.22c27.398 19.79 60.66 36.04 90.12 47.32 14.954 5.66 34.817 11.93 50.6 15.86 19.06 4.81 40.967 8.42 58.827 8.94 5.39.15.79.04.79.04l382.46.04s8.19-.44 11.03-1c7.19-1.55 12.99-4.48 15.39-6.01 5.94-3.81 13.4-11.81 17.3-18.14 9.93-16.35 11.68-34 8.46-52.37-3.67-20.97-19.61-44.86-41.23-45.45-3.77-.1-11.28 0-11.28 0h-414.23s-24.104-.47-35.116-.87c-20.375-.8-42.965-3.12-60.754-5.74-15.215-2.19-30.078-5.07-45.312-9.15-51.07-13.8-95.446-39.69-141.856-59.85 31.258 54.64 73.54 96.49 114.8 126.38M623.434 1242.29c66.488 39.27 146.582 54.76 219.886 57.22 1.742.08 5.22.2 5.22.2l571.73-.04s1.04 0 6.21.04c34.65.04 47.31-34.36 47.15-62.15-.07-9.16-1.62-18.5-4.16-24.77-3.29-8.2-6.93-14.88-12.89-21.34-2.13-2.35-9.78-7.72-13.17-8.56-7.92-1.93-17.67-1.72-17.61-1.72.08 0-425.26-.07-425.26 0 0 0-22.95.92-38.876 2.46-11.47 1.14-20.176 2.33-32.09 4.59-29.285 5.82-53.562 15.36-78.926 23.19-16.918 5.23-34.714 9.12-53.277 11.93-34.132 5.22-71.413 7.6-105.886 4.98-43.847-3.24-82.847-11.83-124.554-25.08 7.054 11 36.37 27.13 56.504 39.05"></path><path d="M931.39 1063.01c-19.542 6.89-38.613 15.78-55.722 27.07-22.285 14.75-33.207 26.48-62.008 39.78-24.644 11.39-44.324 22.64-78.687 35.08-16.582 6.02-43.446 14.28-66.48 18.23-32.907 5.58-64.638 8.04-64.638 8.04s6.72 4.18 10.774 5.43c33.585 10.22 63.245 15.22 97.737 17.76 30.246 2.26 58.03-.69 88.356-5.41 12.44-1.98 28.613-5.8 42.668-9.81 45.637-12.99 97.524-33.59 143.548-33.67 2.57 0 2.277.04 2.277.04h426.315c12.87.04 36.93-4.12 46.6-21.21 11.2-19.67 14.68-43.13 5.27-66.6-2.85-7.05-7.58-17.15-14.37-23.29-5.97-5.39-15.67-8.86-21.27-8.86-1.62-.08-4.4 0-4.4 0h-371.69-2.03c-38 0-85.847 4.61-122.25 17.42M1100.71 931.168c-10.51 10.78-25.01 27.332-38.15 43.03-25.23 30.082-36.52 57.172-36.52 57.172h247.91s.66-28.6-5.07-61.722c-5.36-30.738-16.72-63.16-28.8-86.66-.44-24.078 9.72-46.468 11.39-70.25-20.36-12.5-42.26-24.886-60.51-42.43-1.17-1.07-3.05-1.07-3.82 1.82-9.77 36.66-14.93 69.36-22.95 105.61-22.6 17.46-43.79 33.024-63.48 53.43M1356.2 951.512c-7.01 12.937-12.24 30.027-20.29 40.207-1.73-9.06.4-14.65-.83-23.34-1.13-7.27-7.09-4.24-8.3-.82-3.48 9.838-7.17 21.99-10.35 32.07-5.29 16.82-6.98 31.7-6.98 31.7l41.24.04s1.59-.39 2.32-4.4c1.97-10.39 1.48-20.54 4.33-32.572 3.66-15.507 8.37-29.668 14.07-44.136 4.96-12.742 11.35-25.57 16.55-38.21.7-1.66 1.04-4.86-.21-6.52-1.53-1.923-4.16-1.68-5.67 0-11.81 13.437-16.57 28.628-25.88 45.98M1420.04 922.012c-7.01 14.957-16.88 31.758-16.02 48.726 4.56-5.988 6.44-10.29 12.72-13.63 2.87-.897 8.89-.057 7.38 4.962-2.77 9.36-7.08 17.27-11.06 30.078-5.92 18.952-11.67 39.202-11.67 39.202l-42.1.02s2.33-17.07 11.9-43.28c8.41-23.23 21.4-49.79 35.62-74.668 11.59-20.492 22.11-38.363 35.25-53.32 4.5-5.16 15.54-.633 10.76 6.066-12.47 17.64-24.11 37.172-32.78 55.844M1693.4 2344.9c-9.14-3.97-17.21-9.13-21.77-17.91-3.32-6.31-5.56-15.92.79-21.33 11.12-9.49 24.38.22 29.75 9.91 6.79 12.35 5.02 35.96 5.02 35.96s-7.89-4.11-13.79-6.63"></path><path d="M1703.06 2285.96c3.99 7.54 12.74 15.68 22.33 21.51 10.84 6.63 22.07 13.07 29.88 17.72 7.81 4.7 9.3 7.99 9.3 7.99s-6.44-2.22-9.96-4.3c-19.28-11.49-40.31-24.55-48.87-28.32-10.8-4.71-25.47-5.62-38.7-7.31-2.11 16.69-6.44 23.62-6.39 38.44.11 7.11 1.83 16.34 3.04 22.77 4.14 21.43 4.95 32.25 4.95 32.25s-3.27-3.05-4.46-12.48c-1.35-8.52-2.3-11.66-4.26-21.74-2.22-11.62-4.55-21.47-11.5-28.73-10.02-10.37-19.3-28.82-11.56-42.96 4.51-8.26 12.04-7.06 14.4-9.19 2.35-2.12 3.79-7.2 10.92-9.57 15.39-5.14 32.83 8.66 40.88 23.92"></path><path d="M1683.11 2241.89c5.22 8.49 10.58 14.43 18.81 19.49 13.67 8.32 23.8 13.96 32.13 18.23 3.62 1.81 6.63 3.97 7.55 7.83-3.73-1.4-17.83-8.03-31.83-16.35-10.03-5.99-27.27-13.47-38.85-14-4.59-.2-7.99.93-11.74 1.05-7.77.31-17.67-1.55-17.67-1.55s-2.51 10.98-5.83 18.89c-1.66 4.05-4.35 8.21-5.8 15.82-.97 5.08-1.26 12.7-.86 17.25 1.14 13.73 4.84 27.07 4.2 40.97-8.63-17.93-5.1-40.01-15.23-53.88-4.28-5.83-7.66-10.43-11.02-17.78-5.56-12.06-4.9-24.55 2.62-36.18 4.34-6.63 13.91-6.38 15.56-7.66 2.51-1.86 4.65-8.79 14.01-10.88 16.02-3.59 34.9 3.83 43.95 18.75M1687.58 1891.3c3.73 7.54 6.13 17.42 10.89 24.41-10.76-1.61-12.49-2.84-28.04-4.55-3.39-.32-10.4-3.84-12.72-6.15-6.15-6.21-11.52-11.97-9.13-22.38.92-4.05 4.5-7.02 6.49-7.65 12.93-4.2 26.05 3.49 32.51 16.32"></path><path d="M1700.7 1870.78c14.69 3.43 31.66 10.64 38.48 8.37-13.79-7.33-31.17-10-46.45-14.35-11.65-3.36-19.97-12.16-30.37-20.15-9.55-7.27-22.24-10.22-33.59-4.88-3.83 1.82-7.54 7.99-8.2 11.28-.6 2.63-6.08 5.27-8.89 7.58-2.83 2.36-4.2 8.25-4.26 10.52-.49 20.34 14.98 28.55 29.89 40.49 11.23 9 25.81 47.17 34.7 55.08-1.58-12.3-17.58-35.51-24.55-53.58-5.53-14.39-3.71-25.89-7.28-41.05 10.66-.68 22.54-2.91 33.28-3.08 8.42-.11 18.59 1.72 27.24 3.77"></path><path d="M1685.22 1839.43c-8.25-1.53-18.34-4.13-25.23-5.59-23.95-5.07-35.4 6.66-54.52 6.44 1.68 21.9-5.93 31.71.33 45.87 5.59 12.6 10.76 25.94 15.56 36.62 3.89 8.56 5.07 15.79 5.07 15.79s-5.8-8.69-22.32-40.86c-5.74-11.22-16.02-13.63-25.15-24.23-10.51-12.12-16.54-37.75 2.9-48.51 3.86-2.12 3.3-8.78 6.11-11.47 12.98-12.21 39.19-10.98 55.58 3.9 13.05 11.89 28.91 13.82 42.43 17.32 7.9 2.04 14.83 5.4 14.83 5.4s-3.75 1.53-15.59-.68M1205.22 1585.18c-.94 0-1.96 0 0 0zm-111.88 315.55c-7.99-10.56-11.69-22.7-20.5-31.92-4.6-4.83-11.63-2.57-15.27 2.99-4.05 6.29-10.59 15.18-5.73 21.4 8.01 10.26 24.76 16.81 39 14.96.84-.1 5.43-3.49 2.5-7.43zm-38.34-60.39c-4.47-11.96-17.8-13.26-29.14-15.62-2.12-.46-8.65 0-11.58 2.87-4.9 4.79-9.14 11.34-8.28 19.54.45 5.05 4.67 10.01 9.9 12.03 9.47 3.67 20.69 9.57 30.03 4.33 8.02-4.49 12.23-14.72 9.07-23.15zm-24.55-63.22c-3.27-4.71-11.65 10.95-12.74 18.12-3.13 20.77 15.08 26.07 30.24 25.43.47-12.39-9.13-31.57-17.5-43.55zm-16.39-56.03c-2.97-8.35-4.4-16.04-7.72-23.69-3.22-7.4-16.977-10.04-24.606-7.67-10.894 3.37-20.242 27.83-7.855 37.2 9.475 7.08 19.288 8.22 31.36 9.7 2.17.26 10.27-.23 10.59-.99 2.02-5.07.74-7.61-1.77-14.55zm-18.333-64.59c-2.207-6.42-3.184-13.02-6.02-19.19-1.422-3.13-3.285.98-3.36 1.19-4.28 10.64-6.984 19.65-3.335 29.02 2.066 5.19 9.168 9.96 15.906 10.38-.418-6.67-.89-14.9-3.19-21.4zm-21.65-31.49c-4.92 2.22-4.847 8.55-6.91 12.48-1.94 3.84-6.132 9.13-4.41 14.17 9.5-5.33 13.903-14.83 11.32-26.65zm-16.386 39.31c-11.335 9.32-12.315 24.22-19.862 35.62 8.332 5.33 22.387 4.26 26.707-6.29 3.457-8.48 5.97-20.94-2.633-27.41-.93-.69-3.136-2.81-4.21-1.92zm-42.245 76.85c-1.7 2.43-5.062 9.43-2.5 10.32 20.282 6.98 35.496 7.21 39.832-14.49 3.067-15.48-7.507-28.77-22.332-23.36-4.25 1.58-8.465 18.07-15 27.53zm-29.5 48.99c-1.418 1.79-2.578 7.18-.804 8.56 10.548 8.48 26.032 9.13 38.02 7.96 15.81-1.44 19.06-16.14 16.418-28.32-3.48-16.04-27.8-18.04-34.69-15.37-6.767 2.6-11.49 17.94-18.943 27.17zm3.446 57.04c13.66 8.85 39.786 15.42 44.14-8.57 1.318-7.23-.483-16.83-10.25-19.97-10.034-3.22-21.85-6.69-31.01-2.97-11.274 4.61-13.493 24.65-2.88 31.51zm-14.163 40.35c1.027 4.61 6.128 6.78 10.418 7.88 11.058 2.73 23.425 6.85 33.578.38 3.96-2.5 4.26-6.04 4.78-11.02.9-8.06-.25-14.66-5.562-17.74-10.772-6.32-21.737-6.89-34.256-4.43-10.157 2-10.985 15.47-8.957 24.93zm-11.336-62.21c-9.472 7.01-13.656 16.91-20.636 26.72-1.688 2.4 0 3.39 1.293 3.76 16.805 4.75 29.277-3.64 26.66-21.96-.47-3.56-2.785-11.85-7.316-8.52zm-46.386 56.61c-6.297 5.45-1.918 14.92 3.57 17.68 9.61 4.77 24.707 5.49 34.703 2.12 6.43-2.16 9.684-11.39 8.532-21.46-.486-4.13-1.748-8.68-3.767-10.02-7.613-5.19-19.39-5.39-28.648-3.47-6.55 1.39-8.887 10.34-14.39 15.15zm-7.262 57.25c6.09 13.25 28.31 13.37 40.406 7.46 9.856-4.85 11.094-23.19.332-30.42-8.585-5.72-22.113-3.62-31.218-1.95-12.938 2.38-13.965 15.1-9.52 24.91zm.496 49.6c9.227 8.79 21.188 4.75 32.305 3.22 2.152-.31 4.715-1.82 6.176-3.27 7.59-7.67 8.186-20.24-.267-26.53-9.75-7.25-21.922-2.54-33.64-1.95-3.165.13-6.645 3.85-7.368 6.23-2.11 7.42-3.39 16.5 2.793 22.3zm5.946 41.5c9.8 4.09 26.636 5.97 33.574-5.03 4.262-6.74 3.023-19.22-3.813-21.04-6.695-1.72-29.457-5.5-34.906 7.09-2.7 6.19-1.56 16.16 5.144 18.98zm30.164 35.25c2.836-1.25 4.6-3.52 5.27-7 1.398-7.55-.59-15.75-7.837-17.08-10.89-1.98-27.057-2.61-27 12.78.04 17.17 16.958 16.98 29.568 11.3zm-21.922 31.93c5.797 2.22 15.332 1.72 20.535-.99 2.626-1.37 6.15-5.68 4.67-10.22-1.85-5.93-7.364-8.07-13.63-8.15-6.02-.05-12.926.43-15.355 5.34-2.313 4.66-1.333 12.04 3.78 14.02zm6.77 25.74c5.296 1.93 13.128 1.8 16.98-2.38 5.304-5.79 1.12-15-8.887-14.54-3.52.15-7.696 1.36-9.825 2.58-5.168 2.91-3.457 12.49 1.73 14.34zm23.812 16.59c.68 2.23 4.16 4.85 5.98 5.49 3.973 1.41 8.63 1.7 12.43.18 7.602-3.12 6.555-12.52-1.56-15.82-3.63-1.48-9.213-2.43-11.952-1.48-5.113 1.74-6.535 6.18-4.898 11.63zm23.68-36.77c-8.29-2.42-19.848-2.89-22.325 5.61-4.203 14.42 14.004 16.58 23.45 13.55 6.51-2.06 8.812-16.31-1.125-19.16zm5.492 47.63c2.63 8.94 12.758 13.79 21.93 11.06 7.886-2.31 9.706-13.06 4.382-18.28-2.414-2.36-6.406-4.74-10.703-5.69-9.388-2.1-18.606 3.07-15.61 12.91zm41.254-32.79c-1.485-5.83-5.766-9.84-12.618-11.36-6.808-1.49-16.214-1.91-19.988 2.3-3.598 3.98-5.254 9.57-2.25 13.87 6.024 8.56 17.047 11.56 26.87 9.38 5.607-1.31 9.728-7.05 7.986-14.19zm-3.664 34.31c3.664 8.11 12.957 12.19 21.878 9.47 1.79-.57 5.47-3.45 5.98-6.29 1.06-5.64-.898-10.79-5.608-13.74-6.036-3.84-11.02-6.01-17.95-3.17-5.203 2.18-6.472 8.94-4.3 13.73zm38.437-22.78c4.078-6.9-2.13-13.83-5.277-15.73-6.99-4.09-16.84-6.6-21.05.32-4.142 6.8-.712 14.86 6.51 17.85 6.89 2.86 14.032 7.2 19.817-2.44zm11.59-26.37c4.562-3.77 8.566-11.7 3.098-17.97-5.137-5.9-11.516-7.67-19.59-8.97-5.457-.93-12.438 3.11-13.32 7.93-.81 4.15-1.57 11.72 2.542 15.2 8.024 6.84 18.782 10.8 27.27 3.81zm9.672 44.98c4.307-1.27 7.06-5.82 4.905-10.22-1.313-2.71-5.187-5.64-7.652-7.16-6.762-4.16-12.567-2.46-14.688 2.52-3.894 9.14 9.21 17.29 17.434 14.86zm16.503-22.79c4.747-.42 6.927-3.73 7.867-7.36 1.23-4.87-.38-9.38-4.49-12.14-4.893-3.25-10.987-5.17-15.866-5.25-6.59-.1-12.7 9.57-9.125 15.86 3.785 6.73 13.308 9.61 21.613 8.89zm27.277-34.89c2.81-8.28-3.26-12.14-9.66-15.54-6.5-3.47-15.22-6.71-19.738-2.39-5.766 5.43-8.332 14.58-1.903 20.6 8.91 8.37 25.4 14.65 31.3-2.67zm11.78-20.77c10.46-1.33 12.53-16.2 10.42-21.58-2.39-4.62-7.66-8.24-10.42-9.66-7.68-3.95-16.64-5.45-23.7-1.8-6.42 3.33-9.21 13.09-5.72 20.73 4.73 10.34 19.63 13.6 29.42 12.31zm21.52-46.04c3.58-5 2.79-13.88.67-16.66-6.6-9.01-24.96-14.16-32.54-10.47-5.75 2.82-11.43 15.5-4.69 23.11 7 7.9 19.21 12.61 30.3 10.3 2.47-.54 4.09-3.27 6.26-6.28zm4.64-28.37c5.03-.54 9.51-6.08 11.94-12.11 3.16-7.8-.04-16.89-2.53-18.59-6.02-4.09-25.09-15.57-37.09-8.69-6.6 3.79-8.42 12.44-8.83 17.55-1.32 16.5 23.72 23.27 36.51 21.84zm-70.397-118.09c-2.566 6.55-4.94 16.24.203 20.22 10.394 8.19 33.894 15.37 42.834 2.97 5.81-8.05 4.1-21.7-6.07-26.92-10.51-5.36-31.04-11.54-36.967 3.73zm-50.41-.73c10.43 5.31 25.457 11.7 36.687 4.47 5.137-3.29 10.442-16.95 6.817-23.02-7.7-12.87-27.965-16.15-40.844-12.84-10.97 2.85-14.273 25.53-2.66 31.39zm-9.383 44.5c12.59 8.86 37.44 14.57 43.426-4.77 1.554-5.02 2.437-10.57-.125-14.62-6.972-11.21-24.655-14.16-36.49-12.49-12.806 1.85-18.85 23.43-6.81 31.88zm-10.59 45.07c12.09 6.86 37.856 15.97 43.926-3.67 2.426-8.03 2.184-17.95-4.695-21.49-9.85-5.16-25.456-10.58-36.808-3.5-9.48 6-10.762 23.89-2.422 28.66zm67.676 81.04c-5.063-4.53-10.203-5.5-16.94-7.79-9.443-3.2-19.314 4.07-20.404 13.1-1.816 15.45 14.75 17.76 25.707 19.69 7.988 1.44 12.937-5.73 14.41-10.56 1.503-4.64 1.308-10.87-2.774-14.44zm20.304-36.38c-7.18-10.71-36.16-17.45-42.55-6.43-4.668 8.06-7.574 19.39 1.203 24.8 9.21 5.66 20.137 9.05 30.857 7.12 10.08-1.78 15.21-18.36 10.49-25.49zm15.45-66.33c4.12-6.56 7-15.38.88-23.52-5.55-7.45-25.37-10.94-35.517-8.48-5.566 1.4-8.195 8.16-9.047 12.73-1.176 6.17-1.734 12.38 3.73 17.41 7.852 7.2 18.334 7.04 28.404 7.04 4.14 0 10-2.69 11.55-5.18zm-5.76 22.26c-6.17-11.34-27.084-12.8-36.486-11.55-6.63.89-11.29 11.57-11.098 20.51.07 4.59 1.5 7.64 4.645 9.33 10.446 5.6 21.133 9.35 32.37 7.53 10.96-1.74 15.22-17.22 10.57-25.82zm-110.072 24.43c-7.106 21.88 20.222 28.77 36.176 25.4 11.105-2.31 14.808-23.65 4.476-30.38-12.78-8.32-35.472-11-40.652 4.98zm-41.21-53.73c8.186 8.44 22.972 8.97 34.51 7.42 7.087-.99 10.14-8.15 11.126-15.92 2.76-21.38-25.942-24.98-39.598-19.98-8.996 3.29-13.68 20.58-6.04 28.48zm-5.778 41.41c8.558 10.08 22.875 12.46 34.734 9.21 7.238-1.97 10.59-10.43 10.422-19.91-.137-5.38-3.828-9.29-7.137-10.65-8.43-3.42-18.173-5.96-27.368-4.84-11.344 1.4-18.22 17.26-10.652 26.19zm1.36 45.11c10.526 4.3 30.143 8.14 33.448-6.9 4.46-20.03-19.168-23.28-31.797-19.8-9.667 2.66-11.503 22.72-1.65 26.7zm75.725 33.09c7.872-4.47 9.524-17.08 4.73-24.39-6.366-9.67-28.132-15.28-39.843-6.81-6.68 4.85-10.277 24.73 3.41 29.5 10.934 3.82 21.414 7.53 31.703 1.7zm-11.156 14.38c-8.93-5.52-21.657-7.72-30.098-3.02-7.344 4.01-7.063 14.75-3.418 20.52 5.98 9.62 20.85 10.66 31.132 7.65 8.864-2.57 12.18-19.05 2.383-25.15zm-72.282 15.68c.902 2.86 2.172 3.68 3.95 4.55 7.503 3.58 15.745 4.54 22.937-.08 5.18-3.35 4.722-11.09.886-15.11-5.62-5.91-17.045-6.15-24.358-2.31-4.727 2.46-4.945 8.29-3.414 12.95zm2.398-31.35c3.32 9.49 15.145 8.96 24.106 7.8 11.02-1.44 13.226-15.56 9.312-21.5-5.41-8.2-17.757-6.63-27.586-5.38-7.992 1.02-8.464 11.6-5.832 19.08zm155.504-285.2c2.71-10.71 0-20.89-9.53-24.3-12.247-4.32-28.81-10.65-38.602-4.05-11.2 7.51-16.59 28.81-3.723 37.16 15.2 9.94 45.445 16.45 51.855-8.81zm-16.508 33.3c-8.23-9.35-21.664-9.04-34.85-12.91-5.095-1.47-11.134 3.02-13.786 7.68-4.87 8.7-9.754 20.36-.414 28.77 7.734 7.05 18.28 6.45 27.754 9.28 4.25 1.28 9.457 2.77 14.62-.72 10.674-7.29 14.834-22.91 6.676-32.1zm87.308 140.15c2.32-6.81 5.44-11.8 2.8-18.58-3.15-8.33-11.22-9.47-18.8-12.21-7.07-2.56-18.86-5.8-24.78.4-6.8 7.04-9.55 21.39-1.4 27.55 10.55 7.85 36.6 18.7 42.18 2.84zm143.29 61.18c6.23 25.39 13.97 51.14 15.9 77.97 2.84 40.08-5.8 81.73-31.51 112.08 2.53-13.09 5.88-24.14 7.64-37.88 2.09-16.59-.25-35.07-4.53-51.77-3.24-12.64-8.94-24.93-14.59-36.67-6.67-13.91-16.63-29.04-26.55-41.45-27.81-34.58-71.14-102.07-71.14-102.07s-3.63.26-5.78.26c-.51 8.4 19.44 37.22 29.5 53.35 22.1 35.35 38.83 54.37 58.04 85.03 12.04 19.32 21.23 42.84 24.19 64.16 5.99 43.43-17.43 95.47-51.1 112.79 7.7-32.44 6.9-78.16-10.38-97.4-32.69-36.42-52.12-63.69-75.45-110.39-.67-1.25-6.13 6.3-10.64 9.24-5.06 3.34-2.23 13.36-4.04 20.1-1.64 5.74-4.34 10.15-5.14 11.15-6.91 8.46-13.58 8.99-15.04 11.53-1.67 2.86-.87 10-6.89 18.13-3.01 4.09-10.68 7.12-13.8 10.97-3.37 4.2-4.9 17.05-14.21 22.32-4.42 2.48-6.476 10.19-10.718 13.97-13.086 11.59-26.15 9.35-28.652 10.08-3.368.91-9.938 9.27-21.637 11.28-11.438 1.95-17.73-5.68-23.668-2.92-14.895 6.89-29.156 7.46-44.98-10.18-4.75-5.25-12.965-.34-23.215-8.18-8.997-6.86-9.165-13.2-13.75-14.07-8.606-1.61-15.028-8.5-18.348-16.02-1.723-3.88-3.02-11.7-4.024-16.86-1.41-7.12-5.015-13.7-5.082-18.93-.086-7.28 2.215-11.21 1.57-14.47-1.058-4.71-4.874-9.03-5.34-13.44-.347-2.5-.558-9.16 1.26-12.91 2.292-4.62-1.607-8.64-3.634-13.56-1.934-4.58-3.97-12.42-3.348-17.95.82-7.59 5.164-10.37 1.785-16.35-5.536-9.72-12.536-24.88-.266-44.25 2.254-3.54-5.14-10.43-5.555-20.54-.47-11 6.17-19.13 7.987-24 .344-1.75-2.922-1.65-3.043-3.53-29.222 30.9-55.062 59.39-88.95 86.22-20.702 16.36-41.17 30.12-64.108 42.41-61.29 32.86-132.492 54.85-196.992 46.82 24.285-19.57 54.94-33.51 79.89-55.72 23.64-21.06 45.09-39.04 66.62-61.41 33.794-35.1 61.255-70.7 89.868-112.01 8.5-12.23 14.094-20.41 22.012-33.17 7.98-12.76 16.844-26.31 24.106-38.96 36.613-63.58 66.613-122.44 96.98-187.59 8.422-18.01 15.504-36.87 23.762-54.78 2.21-4.86 5.375-1.25 7.61 0 10.976 6.35 22.648 11.66 34.046 17.04 9.098 4.18 17.38 7.06 25.512 10.18 20.54 7.83 40.03 12.08 61.55 16.55 35.91 7.52 100.44 5.97 100.44 5.97l122.33.04h3.34c-1.28 35.07-9.61 69.15-11.64 104.32-1.54 28.5-.59 56.04.41 84.59 2.74 77.36 14.11 160.4 31.39 230.88M395.137 2295.17c-23.87-23.8-30.992-32.56-44.91-58.88-8.2-15.47-18.61-35.34-21.58-60.93 49.052 18.68 89.072 56.78 125.236 98.87 26.754 31.2 47.504 72.6 73.887 103.42-46.47-15.58-95.504-45.51-132.633-82.48"></path><path d="M254.71 2228.26c18.493 31.24 44.98 65.01 72.442 88.06-12.718-28.57-28.382-56.88-33.77-90.68-10.67-67.26-20.745-114.38-31.905-175.78 30.503 21.76 62.683 55.95 95.03 79.82 24.997 18.36 50.052 30.63 75.76 48.3 15.276 10.54 25.233 24.08 37.944 36.76-15.144-63.84-71.163-128.27-111.272-158.31-50.387-37.79-68.45-43.81-149.422-126.14-10.282 101.66-8.454 207.32 45.195 297.97"></path><path d="M89.523 1890.6c3.766 52.8 10.102 95.02 22.926 146.52 8.988 35.97 28.34 89.51 56.245 111.47-3.418-13.05-5.215-32.6-6.53-45.79-5.47-54.39 4.944-117.57 6.187-171.91.617-26.71.382-47.31-3.618-72.41-4.136-26.33-.687-58.62-.687-58.62s14.426 16.47 27.305 36.99c28.144 44.7 37.16 57.97 59.836 82.19 28.132 30.05 59.597 57.87 95.124 82.52-4.285-16.7-22.425-49.16-29.92-62.21-10.005-17.46-14.544-33.32-38.216-72.85-33.313-55.55-48.153-63.04-85.14-122.45-8.01-12.92-40.848-62.06-48.806-77.08-17.328 35.86-23.863 67.19-45.12 125.56-13.352 36.68-11.356 73.36-9.587 98.07"></path><path d="M38.09 1615.93c-20.086 52.08-29.29 100.4-36.098 155.23-4.16 33.55-2.226 78.27 9.746 110.52 3.14-7.87 9.547-27.86 10.414-30.86 8.907-29.96 12.633-44.35 25.082-73.25 9.524-22.16 21.168-39.83 33.63-61.73 11.327-19.99 20.89-46.31 29.085-66.45 26.374-64.57 28.32-125.02 38.413-131.62 7.258 15.54 9.532 30.42 10.344 37.75 7.84 71.45 17.25 136.39 107.227 220.6 8.254-25.07 4.07-71.28-.89-96.03-10.76-54.12-19.446-80.11-43.282-132.56-12.598-27.62-29.418-68.27-34.028-81.73-12.082-35.07-16.218-53.45-23.82-74.2-42.476 70.79-94.758 143.88-125.824 224.33"></path><path d="M108.12 1290.31c-30.245 42.11-41.265 63.27-60.948 108.07-16.528 37.6-21.28 51.54-30.96 93.64-5.29 22.95-8.278 43.77-4.173 57.34 23.68-42.87 39.84-90.85 70.812-126.41 24.59-28.2 48.277-52.23 67.824-76.03 29.988-36.59 53.6-71.22 82.383-109.3 2.424 19.08 3.362 38.42-.927 69.71-5.856 42.85-2.246 77.98 5.238 119.49 9.49 52.65 16.446 78.71 34.716 131.98 22.348-43.83 22.262-94.54 27.87-141.03 10.83-90.19-17.39-197.77-22.94-242.59-1.485-11.82.562-40.98 1.16-52.33-42.2 33.23-79.742 66.78-116.14 103.28-16.587 16.55-39.345 43.97-53.915 64.18"></path><path d="M268.102 959.53c-19.215 13.85-70.844 53.3-95.29 84.36-35.6 45.21-43.437 64.59-66.92 116.6-2.88 6.33-16.17 35.76-17.255 55.76 76.945-92.91 145.832-106.74 219.23-183.83 26.934-28.24 54.516-54.818 69.07-68.158 11.172-10.274 25.043-13.403 25.043-13.403s-1.445 19.812-8.687 33.59c-48.97 93.6-58.21 191.43-50.78 296.45 22.35-27.68 29.4-46.15 43.585-72.91 15.43-29.14 23.297-47.17 30.507-65.12 41.903-104.27 52.805-224.74 78.692-285.37-79.91 26.94-142.84 41.31-227.195 102.03"></path><path d="M595.824 713.44c-21.613-1.452-63.992-1.33-86.586 2.36-114.394 18.302-220.726 101.212-274.215 192.27 48.497-29.59 83.563-49.34 126.21-64.1 37.986-13.13 74.01-17.02 137.42-35.02 38.26-10.82 76.144-26.14 89.452-31.122 42.418-15.797 60.278-11.906 60.278-11.906s0 6.437-15.844 23.726c-31.58 34.454-43.142 42.704-69.122 69.204-8.53 8.75-28.074 38.476-37.996 58.238-28.074 55.88-31.192 100.67-56.828 162.05 93.554-54.94 139.125-130.742 188.59-226.312 15.21-29.27 35.777-63.078 54.57-81.656 12.637-12.48 30.44-31.422 30.44-31.422s-13.046-3.07-53.663-9.06c-18.22-2.678-57.05-14.768-92.706-17.25M1049.31 706.19c49.39-8.08 93.27-20.08 138.19-35.49 12.07-4.16 30.44-13.278 43.16-19.72 31.84-16.21 50.16-26.718 77.52-45.55 44.07-30.328 91.41-63.05 134.12-112.66.91-.97 7.82-8.348 3.22-11.97-8.37-6.538-29-15.902-35.85-9.84-39.08 34.76-37.11 45.9-84.47 88.79-12.15 10.94-30.49 26.29-52.41 41.27-21.37 14.628-47.21 30.6-71.22 42.46-21.82 10.72-55.42 13.942-74.28 13.942l.25-.133c-8.57.33-57.83.6-69.24-.142-96.808-6.636-92.066-15.29-147.886-30.41-45.906-12.5-95.16-21.386-144.05-27.95-50.09-6.82-94.91-7.64-141.86-2.827-63.65 6.54-133.274 24.302-185.242 57.77 47.515-.8 96.304-9.92 143.57-6.308 19.887 1.547 52.156 4.527 74.008 11.27 43.418 13.34 68.332 18.538 114.312 31.347 39.512 11 79.344 14.812 120.606 19.16 57.105 6.11 109.992 4.73 157.552-3.01M1934.51 2295.17c23.88-23.8 31.03-32.56 44.94-58.88 8.21-15.47 18.62-35.34 21.59-60.93-49.1 18.68-89.08 56.78-125.27 98.87-26.77 31.2-47.49 72.6-73.87 103.42 46.48-15.58 95.5-45.51 132.61-82.48"></path><path d="M2074.97 2228.26c-18.51 31.24-44.99 65.01-72.44 88.06 12.84-30.75 31.56-69.05 33.76-90.68 6.83-67.73 20.74-114.38 31.91-175.78-30.49 21.76-62.71 55.95-95.06 79.82-24.94 18.36-50.01 30.63-75.7 48.3-15.31 10.54-25.26 24.08-37.98 36.76 15.15-63.84 71.17-128.27 111.28-158.31 50.37-37.79 68.44-43.81 149.38-126.14 10.27 101.66 8.45 207.32-45.15 297.97"></path><path d="M2240.16 1890.6c-3.81 52.8-10.08 95.02-22.93 146.52-8.99 35.97-28.34 89.51-56.29 111.47 3.45-13.05 5.22-32.6 6.56-45.79 5.52-54.39-4.88-117.57-6.17-171.91-.62-26.71-.39-47.31 3.58-72.41 4.15-26.33.72-58.62.72-58.62s-14.42 16.47-27.33 36.99c-28.09 44.7-37.11 57.97-59.84 82.19-28.11 30.05-59.6 57.87-95.14 82.52 4.34-16.7 22.46-49.16 29.96-62.21 10.05-17.46 14.53-33.32 38.22-72.85 33.3-55.55 48.15-63.04 85.1-122.45 8.01-12.92 40.9-62.06 48.85-77.08 17.34 35.86 23.86 67.19 45.12 125.56 13.39 36.68 11.38 73.36 9.59 98.07"></path><path d="M2291.58 1615.93c20.08 52.08 29.27 100.4 36.12 155.23 4.16 33.55 2.19 78.27-9.75 110.52-3.15-7.87-9.53-27.86-10.42-30.86-8.94-29.96-12.64-44.35-25.06-73.25-9.53-22.16-21.24-39.83-33.66-61.73-11.33-19.99-20.88-46.31-29.12-66.45-26.34-64.57-28.29-125.02-38.38-131.62-7.29 15.54-9.54 30.42-10.33 37.75-7.85 71.45-17.27 136.39-107.23 220.6-8.28-25.07-4.08-71.28.84-96.03 10.8-54.12 19.53-80.11 43.32-132.56 12.6-27.62 29.42-68.27 34.06-81.73 12.01-35.07 16.17-53.45 23.83-74.2 42.44 70.79 94.73 143.88 125.78 224.33"></path><path d="M2221.56 1290.31c30.28 42.11 41.26 63.27 60.94 108.07 16.52 37.6 21.26 51.54 30.98 93.64 5.29 22.95 8.26 43.77 4.14 57.34-23.62-42.87-39.87-90.85-70.83-126.41-24.54-28.2-48.24-52.23-67.79-76.03-29.96-36.59-53.64-71.22-82.38-109.3-2.4 19.08-3.38 38.42.88 69.71 5.9 42.85 2.29 77.98-5.2 119.49-9.49 52.65-16.44 78.71-34.7 131.98-22.33-43.83-22.27-94.54-27.88-141.03-10.86-90.19 17.43-197.77 22.98-242.59 1.44-11.82-.6-40.98-1.2-52.33 42.2 33.23 79.75 66.78 116.14 103.28 16.59 16.55 39.29 43.97 53.92 64.18"></path><path d="M2061.59 959.53c19.19 13.85 70.83 53.3 95.27 84.36 35.6 45.21 43.45 64.59 66.93 116.6 2.83 6.33 16.17 35.76 17.25 55.76-76.94-92.91-145.83-106.74-219.23-183.83-26.93-28.24-54.49-54.818-69.06-68.158-11.17-10.274-25.04-13.403-25.04-13.403s1.43 19.812 8.66 33.59c48.98 93.6 58.23 191.43 50.76 296.45-22.28-27.68-29.38-46.15-43.55-72.91-15.4-29.14-23.29-47.17-30.47-65.12-41.94-104.27-52.89-224.74-78.76-285.37 79.97 26.94 142.88 41.31 227.24 102.03"></path><path d="M1733.85 713.44c21.66-1.452 64-1.33 86.62 2.36 114.39 18.302 220.69 101.212 274.19 192.27-48.55-29.59-83.61-49.34-126.22-64.1-38.01-13.13-74.01-17.02-137.39-35.02-38.3-10.82-76.17-26.14-89.49-31.122-42.41-15.797-60.27-11.906-60.27-11.906s0 6.437 15.84 23.726c31.58 34.454 43.16 42.704 69.1 69.204 8.56 8.75 28.11 38.476 38.02 58.238 28.07 55.88 31.2 100.67 56.86 162.05-93.55-54.94-139.22-130.742-188.65-226.312-15.17-29.27-35.74-63.078-54.51-81.656-12.62-12.48-30.47-31.422-30.47-31.422s13.05-3.07 53.7-9.06c18.2-2.678 57-14.768 92.67-17.25M1280.37 706.19c-49.38-8.08-93.23-20.08-138.18-35.49-12.12-4.16-30.46-13.278-43.18-19.72-31.83-16.21-50.12-26.718-77.51-45.55-44.102-30.328-91.37-63.05-134.12-112.66-.927-.97-7.86-8.348-3.224-11.97 8.387-6.538 29.024-15.902 35.817-9.84 39.097 34.76 37.113 45.9 84.517 88.79 12.1 10.94 30.44 26.29 52.39 41.27 21.42 14.628 47.19 30.6 71.22 42.46 21.79 10.72 55.45 13.942 74.28 13.942l-.27-.133c8.59.33 57.83.6 69.27-.142 96.82-6.636 92.06-15.29 147.85-30.41 45.94-12.5 95.18-21.386 144.08-27.95 50.06-6.82 94.91-7.64 141.86-2.827 63.66 6.54 133.26 24.302 185.2 57.77-47.48-.8-96.24-9.92-143.55-6.308-19.91 1.547-52.13 4.527-73.99 11.27-43.42 13.34-68.35 18.538-114.29 31.347-39.53 11-79.36 14.812-120.6 19.16-57.13 6.11-110.01 4.73-157.57-3.01M1103.64 2834.65l-86.96-322.88h-92.305l-57.738 210.34-56.457-210.34h-92.082l-86.95 322.88h86.903l49.532-222.26 59.586 222.26h83.05l56.528-222.26 52.004 222.26h84.89M1390.51 2772.2h-148.54v-60.07h137.7v-62.45h-137.7v-137.91h-82.81v322.88h231.35v-62.45M1628.38 2730.89c0 9.08-2.46 16.9-7.36 23.46-4.93 6.57-10.63 11.15-17.13 13.74-8.68 3.46-17.13 5.37-25.37 5.73-8.25.36-19.24.55-32.97.55h-14.31v-96.5h23.85c14.17 0 25.84.87 35.03 2.6 9.18 1.73 16.87 5.2 23.08 10.39 5.35 4.6 9.22 10.13 11.6 16.55 2.39 6.41 3.58 14.24 3.58 23.48zm86.09 1.84c0-14.45-2.54-28.58-7.59-42.39-5.06-13.8-12.29-25.41-21.68-34.8-12.88-12.73-27.22-22.34-43.05-28.84-15.82-6.51-35.53-9.75-59.08-9.75h-51.83v-105.18h-83.27v322.88h137.05c20.53 0 37.83-1.77 51.92-5.31 14.1-3.55 26.58-8.86 37.42-15.95 13-8.52 22.94-19.43 29.81-32.73 6.87-13.3 10.3-29.28 10.3-47.93M499.312 257.87l-58.046-187.3H377.52l-38.168 126.27-37.707-126.27h-64.38l-57.542 187.3h62.988l32.153-129.08 39.965 129.08h53.207l38-129.08 31.633 129.08h61.644M649.77 286.082h-4.493c-2.66.777-6.12 1.656-10.394 2.648-4.27 1-8.844 1.508-13.727 1.508-11.754 0-19.707-2.11-23.867-6.328-4.153-4.238-6.23-12.398-6.23-24.53v-1.51h46.198v-40.68h-44.2V70.57h-60.222v146.62h-25.684v40.68h25.684v5.18c0 22.91 6.094 40.08 18.273 51.54 12.175 11.47 30.605 17.19 55.292 17.19 8.895 0 16.957-.31 24.184-.92 7.226-.598 13.625-1.42 19.184-2.42v-42.358M789.145 165.55c0 18.2-3.106 31.42-9.317 39.65-6.21 8.198-16.035 12.32-29.457 12.32-5.66 0-11.483-.88-17.472-2.598-5.988-1.703-11.703-4.184-17.14-7.402v-94.08c3.988-1.56 8.265-2.56 12.816-3.01 4.547-.45 9.04-.66 13.477-.66 15.864 0 27.684 4.628 35.45 13.902 7.766 9.258 11.645 23.226 11.645 41.88zm61.886 1.27c0-15.468-2.362-29.53-7.08-42.21-4.72-12.67-10.915-23.122-18.575-31.348-7.992-8.672-17.05-15.25-27.152-19.68-10.11-4.46-20.938-6.684-32.493-6.684-10.656 0-19.714 1.153-27.152 3.41-7.44 2.294-15.047 5.493-22.82 9.59V1.84h-60.215v256.03h60.215v-19.51c9.215 7.34 18.63 13.28 28.234 17.85 9.606 4.57 20.688 6.84 33.238 6.84 23.32 0 41.454-8.562 54.39-25.69 12.942-17.122 19.41-40.64 19.41-70.54M879.488 70.57h62.387v65.54h-62.387zM1101.27 118.61c3.89 4.77 6.81 10.53 8.75 17.25 1.95 6.742 2.92 16.062 2.92 27.95 0 11-.99 20.23-2.99 27.678-2.01 7.46-4.79 13.39-8.34 17.852-3.57 4.57-7.85 7.79-12.85 9.68-5.01 1.878-10.4 2.84-16.18 2.84-5.78 0-10.92-.778-15.43-2.348-4.51-1.543-8.82-4.66-12.93-9.332-3.67-4.34-6.58-10.282-8.76-17.848-2.16-7.562-3.24-17.07-3.24-28.523 0-10.228.94-19.1 2.83-26.6 1.89-7.52 4.67-13.538 8.33-18.108 3.57-4.332 7.82-7.5 12.77-9.512 4.94-1.988 10.59-2.988 16.93-2.988 5.45 0 10.65.898 15.6 2.757 4.94 1.812 9.15 4.902 12.59 9.25zm73.89 45.53c0-30.8-8.99-55.08-26.94-72.812-17.97-17.726-43.17-26.598-75.64-26.598s-57.69 8.872-75.646 26.598c-17.957 17.73-26.938 42.012-26.938 72.813 0 31.02 9.03 55.372 27.11 73.05 18.064 17.69 43.224 26.54 75.474 26.54 32.7 0 57.96-8.898 75.8-26.7 17.85-17.792 26.78-42.09 26.78-72.89M1336.89 200.672h-5.33c-2.56.887-6.66 1.558-12.32 2.008-5.66.43-10.37.66-14.14.66-8.55 0-16.09-.57-22.64-1.68-6.54-1.11-13.59-2.988-21.13-5.66V70.57h-60.22v187.3h60.22v-27.518c13.2 11.347 24.69 18.886 34.44 22.617 9.77 3.71 18.76 5.59 26.96 5.59 2.11 0 4.5-.06 7.17-.18 2.66-.118 4.99-.27 6.99-.51v-57.198M1475.76 129.61v84.902c-3.44 1.45-7.65 2.578-12.65 3.418-4.99.84-9.49 1.25-13.48 1.25-15.76 0-27.58-4.532-35.45-13.59-7.87-9.07-11.82-21.7-11.82-37.95 0-18.01 3.36-30.57 10.08-37.7 6.7-7.112 16.66-10.678 29.86-10.678 6 0 11.88.957 17.64 2.847 5.77 1.878 11.06 4.378 15.82 7.5zm60.22-37.54c0-17.558-2.5-32.34-7.51-44.35-5.01-12.02-12.01-21.41-21.03-28.19-9-6.91-19.86-11.87-32.6-14.94-12.73-3.05-27.11-4.59-43.12-4.59-13.01 0-25.82.78-38.44 2.352-12.63 1.558-23.55 3.45-32.78 5.66V54.88h7.33c7.33-2.892 16.26-5.52 26.82-7.91 10.55-2.4 19.98-3.59 28.31-3.59 11.1 0 20.13 1.042 27.07 3.09 6.94 2.05 12.24 4.98 15.9 8.75 3.45 3.57 5.95 8.12 7.49 13.67 1.56 5.56 2.34 12.24 2.34 20.02v3.512c-7.22-5.902-15.21-10.563-23.99-14-8.77-3.46-18.55-5.184-29.32-5.184-26.22 0-46.43 7.89-60.64 23.703-14.22 15.78-21.32 39.78-21.32 72.048 0 15.453 2.17 28.782 6.49 40.024 4.33 11.226 10.44 21.008 18.32 29.347 7.34 7.788 16.36 13.85 27.07 18.18 10.72 4.34 21.69 6.51 32.91 6.51 10.11 0 19.3-1.19 27.57-3.58 8.27-2.4 15.8-5.7 22.58-9.94l2.17 8.34h58.38V92.07M1751.25 330.12l-132.29-313.6h-51.19l131.74 313.6h51.74M1905.52 121.922v91.68a58.463 58.463 0 0 1-13.26 3.82c-4.64.777-8.89 1.18-12.77 1.18-15.69 0-27.46-4.91-35.3-14.73-7.85-9.833-11.78-23.442-11.78-40.86 0-18.3 3.16-31.582 9.46-39.84 6.28-8.274 16.4-12.41 30.33-12.41 5.41 0 11.16 1.04 17.24 3.09 6.08 2.046 11.44 4.75 16.08 8.07zm59.98-51.352h-59.98V90c-10.3-8.422-19.91-14.63-28.87-18.61-8.96-3.992-19.32-5.98-31.03-5.98-22.68 0-40.83 8.75-54.44 26.25-13.6 17.5-20.41 41.102-20.41 70.78 0 15.84 2.31 29.892 6.9 42.11 4.59 12.25 10.86 22.74 18.82 31.49 7.52 8.3 16.65 14.76 27.39 19.35 10.73 4.59 21.46 6.9 32.18 6.9 11.18 0 20.34-1.188 27.47-3.58 7.13-2.382 14.47-5.39 21.99-9.038v79.406h59.98V70.57M2122.44 187.852c-.33 12.52-3.44 21.937-9.31 28.25-5.86 6.32-15 9.468-27.41 9.468-11.52 0-20.98-2.992-28.41-8.968-7.42-5.973-11.58-15.563-12.46-28.75zm59.48-35.063h-136.9c.89-14.6 6.45-25.802 16.69-33.552 10.25-7.75 25.34-11.617 45.27-11.617 12.64 0 24.87 2.26 36.72 6.802 11.86 4.547 21.21 9.406 28.09 14.617h6.64v-48c-13.52-5.43-26.25-9.38-38.22-11.802-11.96-2.437-25.19-3.648-39.7-3.648-37.43 0-66.13 8.398-86.07 25.25-19.93 16.82-29.9 40.8-29.9 71.93 0 30.79 9.44 55.18 28.33 73.19 18.88 17.99 44.78 26.99 77.67 26.99 30.35 0 53.16-7.68 68.45-23.01 15.29-15.33 22.93-37.4 22.93-66.21v-20.94"></path></g></svg>