<svg xmlns="http://www.w3.org/2000/svg" viewBox="0 0 310.62668 377.94666" height="377.947" width="310.627"><defs><clipPath id="a"><path d="M0 2834.64V0h2329.67v2834.64z"></path></clipPath></defs><g clip-path="url(#a)" fill="#fff" transform="matrix(.13333 0 0 -.13333 0 377.947)"><path d="M1340.5 2134.1c12.42 27.11 24.02 48.65 40.72 74.35 7.41 11.32 15.79 19.2 23.14 30.63-3.6 1.01-8.74-1.92-10.94-3.49-7.48-5.38-10.77-14.13-16.71-18.77-14.1-11.1-13.63-21.16-21.04-26.29-6.5-4.67-8.38-7.7-13.02-14.93-3.06-4.83-5.4-8.74-8.62-18.21-1.12-3.43-3.38-.41-8.92-7.92-7.14-9.8-10.43-20.4-13.41-32.26-.96-3.9-7.5-6.01-11.83-14.07-5.73-10.96-9.48-21.03-11.9-36.98-.64-3.65-6.83-6.26-11.11-16.54-3.14-7.2-5.29-8.82-8-22.45-1.55-8.31-5.36-9.48-9.69-21.55-3.27-9.21-3.38-18.07-4.51-30.05-.23-2.35-4.28-7-7.84-13.71-6.06-11.3-5.89-18.79-8.37-30.43-.93-4.17-5.66-9.77-10.12-27.8-3.98-15.93-.41-26.54-1.71-34.41-3.57-20.45-7.03-38.25-5.11-58.38.94-9.84 2.37-20.01 1.8-29.46-1.89-29.71-3.54-54.17-3.4-87.83.1-18.32 1.6-43.42 4.38-64.32 3.04-23.04 7.38-41.04 7.38-41.04h75.14s-2.94 43.44.96 89.19c2.37 27.41 8.83 56.5 14.74 76.86 7.54 26.08 12.24 39.52 26.37 73.9.38.73-.09 3.97-3.86.79-7.83-6.56-14.28-12.36-20.55-21.66-9.39-14.25-15.15-25.98-22.82-40.62-8.94-17.03-13.87-31.89-23.16-52.55-.49 14.95 1.9 29.14 4.89 42.88 3.1 14.06 5.62 25.13 9.96 37.24 7.84 21.37 15.45 39.16 28.03 59.04 7.35 11.5 16.58 21.79 26.06 30.31 11.22 10.31 21.7 19.41 33.5 29.53-12.44 6.4-28.99-7.01-32.25-7.66-17.48-3.41-24.57-19.6-29.98-21.85-7.54-3.16-12.03-7.86-17.29-14.3-4.18-4.86-5.37-12.32-9.61-15-7.1-4.44-12.4-11.17-17.3-20.5-2-3.87-7.53-22.11-13.61-19.76 10.46 61.94 32.29 120.02 67.39 171.65 22.27 32.77 46.5 60.91 82.11 86.15 4.7 3.31 5.64 4.88-.95 4.63-33.34-4.04-35.36-19.25-40.78-20.69-5.28-1.36-11.65-7.56-15.87-11.56-7.34-7.32-7.22-13.46-10.08-15.39-6.05-4.26-10.67-8.67-14.79-16.03-2.15-3.85-5.86-12.29-9.19-14.22-8.46-4.96-16.83-12.2-20.93-20-3.04-5.72-4.22-11.93-8.21-17.5-4.33-6.01-10.29-10.55-15.38-14.92 3.9 26.52 16.39 57.86 24.89 84.89 11.56 36.12 25.51 68.94 41.4 103.06M1417.14 1919.62c28.44 63.87 58.41 111.9 97.32 168.09 5.06 7.36 9.65 14.59 14.03 21.49 1.99 3.14 11.57 16.89 13.57 19.8 12.99 19.67 18.52 25.67 31.91 44.51 3.53 5.09 6.45 9.15 8.04 15.05 2.86 10.98-6.64 18.36-8.78 28.95-2.18 10.78-1.01 22.55 3.94 31.68 3.09 5.72 6.15 7.92 9.38 15.58 6.03 14.72 3.94 46.57 10.85 47.42-1.77-15.13-2.13-32.14.2-46.65 2.78-16.9 13-27.15 17.31-45.1 11.34 2.05 23.79 1.56 33.42.77 9.57-.83 21.59 1.79 31.38 5.15 13.31 4.57 24.29 12.77 37.82 16-11.52-11.08-27.79-15.2-41.4-23.57-4.98-3.18-9.72-7.3-13.01-12.49-5.4-8.48-9.79-16.64-18.36-20.39-15.14-6.59-28.25-3.48-45.51-6.66-25.83-26.58-50.09-62.67-72.36-100.59-56.85-95.99-104.08-195.35-131.57-297.29 9.54 17.71 18.59 34.86 28.83 51.76 11.42 18.72 24.2 37.09 38.13 55.43 32.72 43.1 65.02 80.68 101.21 120.23 29.23 31.93 61.28 58.75 96.93 81.17 47.27 29.54 105.42 50.29 156.65 39.6 5.82-1.38 14.08-2.92 17.75-6.76-64.17 9.02-121.62-13.39-164.38-47.75-33.88-27.05-62.39-54.52-91.43-90.23-14.94-17.25-28.43-36.12-41.86-54.47-13.97-19.25-26.42-39.54-38.8-59.85-41.48-68.58-72.9-141.24-96.05-216.49-.7-2.39-.83-4.79-1.54-7.17 1.21 1.72 2.76 3.57 3.82 5.26 31.15 50.63 68.66 99.47 116 132.23 4.1 2.84 8.5 8.26 9.58 12.56 5.11 20.07-10.23 29.72 10.98 57.47 4.86 6.37 11.53 8.71 16.15 14.63 8.69 13.44 15.73 37.43 22.94 43.87-3.66-15.63-12.63-32.15-14.54-48.26-2.02-17.67 2.54-32.1 3.35-50.87 12.55-1.68 22.12-6.99 32.04-10.01 15.21-4.78 24.47-3.6 39.52-2.27 6.5.53 18.2 4.32 25.15 2.9-14.62-7.97-34.33-6.5-49.36-14.15-10.37-5.36-13.5-13.26-27.84-16.06-12.82-2.49-23.73-1.14-32.01 3.11-6.54 3.28-11.58 4.66-17.42 1.86-15.56-7.46-26.2-18.03-38.72-30.66-29.01-29.22-52.83-61.89-74.9-104.73-5.85-11.37-11.19-22.62-16.18-34.24-2.41-5.68-8.62-21.34-8.62-21.34h-75.88s-.29 21.9.46 29.88c1.51 15.97 3.64 27.77 6.72 43.93 4.47 23.29 8.74 44.38 14.74 66.94 5.89 21.96 12.28 42.61 19.72 63.68 15.71 43.97 32.5 86.05 50.68 127.05M682.527 1327.79c27.75 22.66 48.285 35.86 75.93 52.37 11.246 6.62 28.266 14.26 41.355 20.18 47.97 21.66 111.45 37.71 171.282 38.8 1.07 0 1.01-.04 1.01-.04h445.886s-1.71.04 1.6.04c14.13 0 28.25-4.93 36.83-13.08 8.7-8.32 12.96-21.04 15.19-33.69 1.93-10.78.98-20.39-1.59-31.94-1.95-9.07-3.36-14.44-8.41-22.19-3.06-4.72-5.96-7.95-11.68-12.5-5.86-4.71-14.22-6.37-23.77-6.45-1-.04-3.1-.09-3.04-.07.09.07-521.48.07-521.48.07s-3.26.01-4.87.01c-34.153.1-70.125-1.55-103.856-6.01-25.848-3.46-51.742-7.59-76.715-14.02-31.532-8.3-61.86-19.61-92.138-30.94 16.79 22.32 36.157 41.21 58.465 59.46"></path><path d="M837.363 1505.22c27.387 19.78 60.645 36.03 90.15 47.29 14.91 5.67 34.788 11.94 50.55 15.88 19.062 4.76 40.977 8.39 58.857 8.91 5.38.16.78.06.78.06l382.4.03s8.27-.45 11.13-.99c7.14-1.55 12.94-4.48 15.31-6.01 5.93-3.8 13.42-11.81 17.31-18.13 9.92-16.37 11.7-34.02 8.53-52.4-3.71-20.94-19.61-44.88-41.34-45.4-3.65-.09-11.21 0-11.21 0h-414.21s-24.14-.53-35.124-.89c-20.39-.81-42.957-3.1-60.777-5.74-15.208-2.17-30.048-5.05-45.325-9.22-51.036-13.79-95.418-39.63-141.833-59.81 31.262 54.64 73.508 96.51 114.8 126.42M623.418 1245.21c66.48 39.37 146.57 54.87 219.875 57.28 1.766.07 5.23.16 5.23.16l571.677-.04s1.04 0 6.29.04c34.58.03 47.25-34.32 47.11-62.08-.06-9.22-1.66-18.5-4.12-24.84-3.38-8.15-6.94-14.85-12.88-21.35-2.21-2.3-9.79-7.74-13.24-8.48-7.91-1.93-17.65-1.73-17.59-1.73.06 0-425.27-.08-425.27 0 0 0-22.945.91-38.895 2.39-11.437 1.23-20.152 2.4-32.04 4.64-29.292 5.81-53.585 15.38-78.952 23.2-16.937 5.19-34.707 9.08-53.265 11.91-34.14 5.18-71.403 7.62-105.9 4.98-43.854-3.23-82.862-11.84-124.546-25.12 7.082 11.08 36.4 27.15 56.516 39.04"></path><path d="M931.34 1066c-19.547 6.88-38.61 15.75-55.72 27.11-22.24 14.73-33.202 26.46-62.007 39.69-24.62 11.43-44.277 22.61-78.68 35.09-16.58 5.99-43.445 14.32-66.472 18.27-32.878 5.61-64.612 8.01-64.612 8.01s6.68 4.15 10.77 5.47c33.6 10.17 63.214 15.15 97.73 17.75 30.246 2.23 58.043-.72 88.355-5.48 12.41-1.96 28.582-5.79 42.65-9.79 45.667-12.95 97.538-33.55 143.542-33.62 2.554 0 2.293.04 2.293.04h426.362c12.86.03 36.85-4.1 46.52-21.24 11.26-19.67 14.67-43.1 5.34-66.58-2.85-7.03-7.6-17.21-14.41-23.3-5.95-5.33-15.65-8.86-21.3-8.86-1.66-.07-4.31 0-4.31 0h-371.75-2.02c-38.01 0-85.862 4.64-122.28 17.44M1100.67 934.172c-10.51 10.79-24.97 27.328-38.14 43.008-25.24 30.11-36.53 57.11-36.53 57.11h247.97s.59-28.57-5.17-61.7c-5.3-30.68-16.7-63.078-28.73-86.56-.51-24.12 9.72-46.518 11.43-70.26-20.38-12.532-42.35-24.942-60.53-42.5-1.26-1.06-3.15-1.06-3.82 1.84-9.78 36.718-15.02 69.35-23.01 105.58-22.59 17.49-43.8 33.06-63.47 53.482M1356.2 954.52c-7.01 12.92-12.31 29.95-20.33 40.18-1.73-9.028.37-14.64-.84-23.34-1.12-7.2-7.07-4.2-8.24-.848-3.52 9.84-7.25 22.047-10.39 32.088-5.24 16.79-6.97 31.64-6.97 31.64l41.21.05s1.64-.34 2.28-4.34c2.07-10.44 1.55-20.54 4.41-32.54 3.67-15.52 8.3-29.742 14.01-44.22 4.94-12.72 11.39-25.55 16.56-38.19.73-1.59 1.03-4.86-.19-6.44-1.59-1.93-4.13-1.708-5.69 0-11.8 13.338-16.59 28.588-25.82 45.96M1419.99 924.95c-6.99 15.03-16.85 31.8-15.98 48.71 4.5-5.97 6.38-10.21 12.72-13.62 2.88-.81 8.89-.04 7.32 5.05-2.79 9.29-7.05 17.19-11.03 29.988-5.92 19.032-11.67 39.192-11.67 39.192l-42.09.02s2.3-17.02 11.89-43.25c8.44-23.23 21.4-49.77 35.67-74.61 11.5-20.49 22.04-38.442 35.24-53.36 4.44-5.11 15.55-.672 10.77 6.05-12.5 17.618-24.15 37.16-32.84 55.83M1693.35 2347.86c-9.09-3.97-17.25-9.15-21.72-17.93-3.4-6.32-5.59-15.89.8-21.3 11.07-9.52 24.37.2 29.7 9.9 6.79 12.33 5.01 35.98 5.01 35.98s-7.89-4.14-13.79-6.65"></path><path d="M1703.03 2288.9c3.99 7.57 12.74 15.67 22.35 21.51 10.83 6.65 22 13.07 29.81 17.75 7.81 4.67 9.35 7.97 9.35 7.97s-6.48-2.21-9.94-4.3c-19.29-11.46-40.4-24.54-48.85-28.33-10.79-4.67-25.47-5.59-38.74-7.31-2.09 16.68-6.5 23.65-6.33 38.45.1 7.15 1.73 16.32 3.02 22.8 4.12 21.4 4.95 32.24 4.95 32.24s-3.36-3.09-4.52-12.5c-1.3-8.5-2.26-11.67-4.21-21.7-2.2-11.64-4.59-21.48-11.54-28.75-9.98-10.35-19.32-28.82-11.57-42.96 4.55-8.27 11.99-7.09 14.43-9.19 2.31-2.1 3.79-7.23 10.89-9.6 15.42-5.11 32.88 8.68 40.9 23.92"></path><path d="M1683.13 2244.85c5.18 8.46 10.49 14.45 18.79 19.48 13.65 8.32 23.75 14 32.14 18.22 3.52 1.83 6.53 4 7.46 7.83-3.62-1.42-17.79-8-31.77-16.33-9.99-5.97-27.27-13.49-38.88-14.01-4.62-.18-7.96.93-11.73 1.03-7.78.34-17.66-1.54-17.66-1.54s-2.56 11.01-5.81 18.92c-1.71 4.03-4.42 8.22-5.82 15.79-.97 5.12-1.22 12.71-.88 17.29 1.11 13.72 4.84 27.04 4.17 40.95-8.53-17.92-5.09-39.98-15.17-53.89-4.33-5.84-7.67-10.41-10.98-17.75-5.6-12.08-4.9-24.55 2.55-36.18 4.39-6.65 13.86-6.37 15.55-7.68 2.57-1.87 4.69-8.78 13.98-10.86 16.08-3.63 34.92 3.84 44.06 18.73M1687.53 1894.27c3.75 7.55 6.11 17.43 10.87 24.39-10.74-1.59-12.52-2.84-27.96-4.52-3.43-.34-10.44-3.85-12.7-6.18-6.23-6.22-11.54-11.93-9.22-22.38.93-4.04 4.55-7.01 6.53-7.61 12.9-4.22 25.98 3.48 32.48 16.3"></path><path d="M1700.73 1873.75c14.68 3.42 31.61 10.64 38.43 8.35-13.78-7.32-31.19-9.96-46.49-14.32-11.67-3.37-19.92-12.17-30.38-20.14-9.55-7.27-22.15-10.22-33.54-4.87-3.83 1.77-7.58 7.96-8.27 11.27-.52 2.61-6.05 5.22-8.87 7.54-2.86 2.38-4.17 8.26-4.23 10.56-.42 20.29 14.95 28.51 29.94 40.49 11.17 8.97 25.76 47.12 34.64 55.03-1.52-12.29-17.58-35.48-24.53-53.54-5.57-14.42-3.73-25.89-7.23-41.04 10.56-.71 22.53-2.91 33.25-3.12 8.37-.1 18.61 1.75 27.28 3.79"></path><path d="M1685.23 1842.4c-8.32-1.52-18.37-4.16-25.25-5.61-24.02-5.06-35.37 6.68-54.56 6.48 1.72 21.85-5.9 31.72.31 45.88 5.61 12.54 10.75 25.92 15.55 36.59 3.9 8.55 5.05 15.79 5.05 15.79s-5.7-8.7-22.2-40.88c-5.77-11.22-16.1-13.63-25.19-24.19-10.54-12.13-16.54-37.79 2.9-48.54 3.87-2.1 3.25-8.79 6.08-11.45 12.95-12.21 39.18-11.01 55.6 3.9 13.01 11.88 28.95 13.81 42.36 17.3 8.02 2.03 14.94 5.39 14.94 5.39s-3.77 1.53-15.59-.66M1205.18 1588.15c-.97 0-1.97 0 0 0zm-111.84 315.52c-8.04-10.53-11.7-22.67-20.51-31.89-4.61-4.84-11.64-2.56-15.28 2.98-4.03 6.29-10.61 15.18-5.74 21.4 8.02 10.26 24.74 16.79 39.01 14.98.85-.14 5.46-3.53 2.52-7.47zm-38.37-60.35c-4.48-11.99-17.8-13.25-29.14-15.62-2.1-.46-8.66 0-11.59 2.88-4.9 4.75-9.1 11.33-8.29 19.54.46 5.03 4.7 9.99 9.94 11.99 9.45 3.7 20.67 9.6 30.01 4.34 8-4.48 12.25-14.72 9.07-23.13zm-24.57-63.25c-3.22-4.67-11.65 10.98-12.73 18.12-3.1 20.79 15.09 26.1 30.25 25.41.48-12.35-9.09-31.52-17.52-43.53zm-16.35-56.04c-2.97-8.35-4.41-15.99-7.74-23.66-3.24-7.4-16.99-10.07-24.58-7.69-10.937 3.38-20.27 27.83-7.906 37.19 9.504 7.11 19.317 8.23 31.396 9.71 2.15.28 10.27-.2 10.56-.99 2.07-5.05.77-7.58-1.73-14.56zm-18.366-64.57c-2.172-6.41-3.15-12.98-6-19.18-1.426-3.12-3.305.98-3.372 1.17-4.292 10.65-6.96 19.69-3.34 29.05 2.05 5.16 9.176 9.94 15.923 10.36-.422-6.68-.89-14.87-3.21-21.4zm-21.63-31.47c-4.917 2.2-4.855 8.52-6.902 12.46-1.94 3.84-6.156 9.14-4.41 14.16 9.477-5.33 13.88-14.81 11.313-26.62zm-16.413 39.29c-11.324 9.31-12.304 24.23-19.82 35.61 8.328 5.34 22.36 4.28 26.668-6.29 3.45-8.46 6.008-20.94-2.613-27.4-.934-.66-3.113-2.83-4.234-1.92zm-42.21 76.88c-1.73 2.43-5.102 9.41-2.492 10.31 20.246 6.97 35.457 7.22 39.792-14.51 3.11-15.5-7.488-28.77-22.28-23.36-4.266 1.56-8.5 18.06-15.02 27.56zm-29.532 48.98c-1.367 1.8-2.558 7.19-.765 8.52 10.508 8.52 26.012 9.15 38.02 8 15.792-1.45 19.054-16.13 16.39-28.33-3.48-16.04-27.81-18.03-34.688-15.39-6.78 2.65-11.46 17.95-18.957 27.2zm3.442 57.03c13.664 8.85 39.816 15.4 44.176-8.59 1.328-7.24-.49-16.79-10.254-19.98-10.06-3.18-21.86-6.64-31.04-2.96-11.265 4.65-13.452 24.68-2.882 31.53zm-14.168 40.32c1.082 4.63 6.156 6.79 10.457 7.94 11.018 2.68 23.432 6.84 33.593.33 3.957-2.49 4.222-6.02 4.738-10.99.903-8.09-.222-14.65-5.538-17.78-10.777-6.32-21.774-6.88-34.25-4.42-10.168 2-11.02 15.48-9 24.92zm-11.32-62.18c-9.45 6.98-13.66 16.93-20.625 26.73-1.657 2.41 0 3.39 1.316 3.73 16.785 4.76 29.273-3.62 26.625-21.97-.477-3.54-2.738-11.83-7.316-8.49zm-46.387 56.61c-6.31 5.44-1.922 14.93 3.61 17.67 9.57 4.78 24.67 5.47 34.695 2.1 6.42-2.14 9.64-11.37 8.503-21.41-.484-4.16-1.707-8.69-3.78-10.04-7.57-5.22-19.345-5.4-28.602-3.46-6.585 1.39-8.882 10.33-14.425 15.14zm-7.27 57.23c6.12 13.25 28.313 13.4 40.418 7.45 9.848-4.8 11.11-23.17.356-30.41-8.61-5.74-22.103-3.59-31.228-1.95-12.96 2.39-13.984 15.11-9.547 24.91zm.493 49.63c9.238 8.78 21.226 4.77 32.355 3.18 2.13-.26 4.676-1.78 6.137-3.23 7.617-7.69 8.207-20.27-.23-26.57-9.755-7.25-21.93-2.52-33.645-1.95-3.2.18-6.672 3.86-7.367 6.25-2.145 7.41-3.39 16.5 2.75 22.32zm5.996 41.5c9.796 4.06 26.61 5.95 33.53-5.08 4.278-6.69 3.067-19.19-3.77-21.02-6.71-1.7-29.49-5.5-34.928 7.11-2.727 6.2-1.55 16.16 5.168 18.99zm30.117 35.24c2.848-1.28 4.64-3.51 5.286-6.98 1.406-7.59-.578-15.8-7.84-17.08-10.867-1.98-27.027-2.66-26.98 12.77.04 17.16 16.914 16.99 29.535 11.29zm-21.92 31.9c5.8 2.24 15.358 1.75 20.58-.99 2.606-1.32 6.122-5.64 4.638-10.23-1.86-5.91-7.36-8.03-13.633-8.09-6-.06-12.895.43-15.332 5.34-2.32 4.62-1.336 12 3.746 13.97zm6.768 25.76c5.31 1.94 13.14 1.81 17-2.39 5.313-5.81 1.098-15.01-8.878-14.56-3.508.2-7.708 1.38-9.813 2.62-5.2 2.92-3.453 12.46 1.69 14.33zm23.832 16.59c.653 2.26 4.188 4.85 5.965 5.47 3.965 1.43 8.65 1.74 12.46.23 7.572-3.16 6.533-12.56-1.546-15.86-3.67-1.48-9.223-2.43-11.985-1.48-5.086 1.77-6.508 6.19-4.895 11.64zm23.708-36.75c-8.29-2.43-19.872-2.9-22.336 5.58-4.23 14.45 14.023 16.58 23.44 13.57 6.493-2.05 8.813-16.29-1.104-19.15zm5.476 47.6c2.606 8.98 12.754 13.83 21.938 11.08 7.878-2.33 9.71-13.08 4.382-18.32-2.414-2.3-6.398-4.69-10.71-5.65-9.368-2.08-18.594 3.06-15.61 12.89zm41.23-32.78c-1.484-5.83-5.777-9.84-12.632-11.34-6.746-1.5-16.2-1.92-19.934 2.3-3.633 3.97-5.262 9.54-2.27 13.86 6.004 8.57 17.05 11.57 26.872 9.36 5.578-1.32 9.726-7.03 7.965-14.18zm-3.636 34.29c3.637 8.13 12.918 12.19 21.887 9.51 1.75-.57 5.457-3.45 5.96-6.3 1.05-5.67-.906-10.79-5.632-13.73-6.016-3.86-10.99-6.05-17.903-3.2-5.226 2.21-6.515 8.98-4.312 13.72zm38.45-22.74c4.054-6.9-2.17-13.87-5.294-15.72-7.02-4.12-16.867-6.63-21.04.28-4.17 6.81-.74 14.9 6.485 17.88 6.89 2.87 14.046 7.2 19.847-2.44zm11.542-26.37c4.602-3.79 8.594-11.7 3.137-17.98-5.16-5.9-11.543-7.69-19.64-8.96-5.45-.92-12.41 3.1-13.302 7.93-.773 4.11-1.554 11.72 2.532 15.19 8.054 6.84 18.808 10.78 27.273 3.82zm9.684 44.97c4.32-1.29 7.097-5.83 4.902-10.22-1.328-2.73-5.2-5.67-7.664-7.18-6.723-4.14-12.527-2.46-14.684 2.51-3.902 9.16 9.21 17.32 17.446 14.89zm16.51-22.81c4.776-.43 6.926-3.69 7.866-7.36 1.25-4.87-.39-9.36-4.48-12.14-4.892-3.22-11.014-5.13-15.89-5.27-6.565-.09-12.702 9.59-9.088 15.89 3.746 6.75 13.293 9.63 21.593 8.88zm27.296-34.86c2.78-8.28-3.28-12.15-9.67-15.55-6.49-3.47-15.22-6.72-19.758-2.4-5.738 5.43-8.347 14.59-1.874 20.59 8.902 8.36 25.402 14.65 31.302-2.64zm11.76-20.8c10.45-1.34 12.52-16.2 10.42-21.57-2.39-4.59-7.66-8.24-10.42-9.67-7.68-3.95-16.63-5.44-23.72-1.76-6.41 3.28-9.21 13.04-5.67 20.71 4.68 10.32 19.61 13.6 29.39 12.29zm21.5-46.02c3.59-4.99 2.82-13.91.68-16.66-6.58-9.04-24.95-14.16-32.5-10.5-5.77 2.84-11.48 15.52-4.72 23.16 6.98 7.88 19.21 12.55 30.3 10.29 2.48-.54 4.08-3.29 6.24-6.29zm4.64-28.36c5.05-.54 9.53-6.11 11.95-12.13 3.18-7.8-.04-16.91-2.5-18.58-6.04-4.07-25.12-15.57-37.09-8.71-6.62 3.81-8.46 12.47-8.82 17.56-1.35 16.51 23.69 23.29 36.46 21.86zm-70.394-118.1c-2.547 6.52-4.934 16.23.234 20.19 10.38 8.21 33.88 15.4 42.8 2.97 5.82-8.03 4.13-21.67-6.05-26.91-10.52-5.36-31.066-11.5-36.984 3.75zm-50.398-.75c10.41 5.31 25.453 11.7 36.683 4.51 5.165-3.31 10.482-16.97 6.818-23.07-7.71-12.85-27.95-16.14-40.86-12.82-10.937 2.86-14.258 25.51-2.64 31.38zm-9.364 44.53c12.602 8.85 37.4 14.53 43.426-4.78 1.543-5.01 2.442-10.59-.168-14.62-6.957-11.21-24.63-14.15-36.45-12.52-12.78 1.88-18.862 23.44-6.808 31.92zm-10.6 45.06c12.096 6.85 37.874 15.98 43.917-3.7 2.43-8 2.22-17.9-4.714-21.49-9.844-5.13-25.445-10.54-36.78-3.49-9.462 5.99-10.76 23.9-2.423 28.68zm67.69 81.04c-5.1-4.51-10.215-5.48-16.96-7.79-9.42-3.22-19.34 4.05-20.415 13.11-1.837 15.42 14.738 17.74 25.726 19.67 7.97 1.45 12.906-5.75 14.38-10.58 1.5-4.61 1.327-10.85-2.732-14.41zm20.266-36.4c-7.14-10.73-36.152-17.41-42.54-6.43-4.632 8.09-7.542 19.41 1.235 24.81 9.16 5.69 20.12 9.03 30.845 7.14 10.04-1.79 15.21-18.38 10.46-25.52zm15.48-66.34c4.1-6.54 6.98-15.35.89-23.52-5.58-7.44-25.38-10.91-35.534-8.46-5.543 1.41-8.207 8.19-9.078 12.73-1.15 6.19-1.703 12.36 3.75 17.43 7.85 7.15 18.362 7.02 28.402 7.02 4.17 0 10.03-2.66 11.57-5.2zm-5.76 22.28c-6.15-11.33-27.08-12.79-36.52-11.57-6.6.9-11.286 11.58-11.052 20.5.06 4.64 1.492 7.67 4.614 9.38 10.48 5.59 21.113 9.35 32.358 7.52 10.99-1.77 15.26-17.21 10.6-25.83zm-110.056 24.42c-7.137 21.89 20.187 28.78 36.16 25.41 11.117-2.33 14.797-23.63 4.47-30.38-12.775-8.31-35.49-11.02-40.63 4.97zm-41.25-53.73c8.203 8.43 22.97 8.95 34.53 7.41 7.114-.98 10.157-8.1 11.138-15.88 2.723-21.39-25.934-24.98-39.594-19.98-9.027 3.25-13.68 20.57-6.074 28.45zm-5.785 41.43c8.585 10.1 22.882 12.44 34.776 9.21 7.2-1.97 10.555-10.46 10.406-19.92-.117-5.38-3.84-9.28-7.16-10.66-8.41-3.42-18.152-5.95-27.367-4.84-11.32 1.4-18.195 17.3-10.656 26.21zm1.37 45.08c10.55 4.31 30.16 8.16 33.476-6.88 4.454-20.03-19.183-23.31-31.79-19.77-9.674 2.62-11.526 22.68-1.686 26.65zm75.72 33.11c7.862-4.46 9.545-17.08 4.745-24.39-6.36-9.68-28.153-15.26-39.86-6.82-6.644 4.85-10.277 24.75 3.403 29.53 10.972 3.78 21.425 7.51 31.71 1.68zm-11.107 14.36c-8.97-5.51-21.695-7.68-30.12-3.02-7.34 4.03-7.09 14.74-3.415 20.52 5.97 9.64 20.867 10.67 31.148 7.67 8.852-2.56 12.18-19.05 2.387-25.17zm-72.34 15.73c.914 2.81 2.203 3.64 4.004 4.52 7.488 3.56 15.738 4.53 22.942-.06 5.14-3.37 4.678-11.12.838-15.12-5.597-5.9-17.05-6.17-24.37-2.32-4.684 2.46-4.938 8.29-3.415 12.98zm2.403-31.4c3.336 9.52 15.148 9 24.144 7.8 10.988-1.44 13.227-15.57 9.31-21.5-5.408-8.15-17.798-6.6-27.615-5.38-7.968 1.02-8.445 11.62-5.84 19.08zm155.534-285.19c2.68-10.71 0-20.86-9.56-24.26-12.244-4.33-28.81-10.65-38.6-4.09-11.202 7.55-16.593 28.81-3.687 37.16 15.192 9.97 45.437 16.46 51.847-8.81zm-16.515 33.34c-8.246-9.39-21.648-9.07-34.836-12.93-5.126-1.48-11.14 3-13.833 7.68-4.867 8.72-9.75 20.37-.36 28.78 7.684 7.02 18.25 6.44 27.704 9.28 4.27 1.25 9.493 2.73 14.622-.75 10.688-7.29 14.878-22.91 6.703-32.06zm87.315 140.14c2.31-6.8 5.41-11.84 2.81-18.63-3.14-8.32-11.24-9.44-18.8-12.21-7.08-2.54-18.9-5.74-24.81.41-6.81 7.08-9.53 21.41-1.4 27.58 10.58 7.85 36.59 18.69 42.2 2.85zm143.32 61.18c6.18 25.38 13.92 51.15 15.85 77.92 2.86 40.13-5.8 81.77-31.46 112.1 2.46-13.09 5.88-24.11 7.54-37.9 2.19-16.59-.23-35.01-4.46-51.76-3.21-12.59-8.92-24.93-14.59-36.67-6.69-13.89-16.63-29.01-26.53-41.45-27.86-34.54-71.14-102.08-71.14-102.08s-3.68.3-5.81.3c-.54 8.38 19.45 37.2 29.49 53.32 22.13 35.39 38.84 54.42 58.1 85.02 12 19.36 21.14 42.87 24.09 64.2 6.09 43.44-17.33 95.45-51.06 112.8 7.71-32.48 6.89-78.17-10.42-97.43-32.63-36.4-52.07-63.67-75.41-110.39-.67-1.22-6.1 6.3-10.62 9.24-5.07 3.36-2.23 13.34-4.06 20.1-1.64 5.75-4.33 10.15-5.11 11.15-6.9 8.44-13.6 9.03-15.05 11.55-1.65 2.87-.87 9.98-6.89 18.14-3 4.06-10.68 7.08-13.78 10.93-3.38 4.23-4.96 17.06-14.27 22.34-4.416 2.47-6.455 10.2-10.666 13.99-13.094 11.55-26.172 9.35-28.668 10.04-3.37.92-9.973 9.28-21.672 11.28-11.414 1.95-17.71-5.65-23.633-2.92-14.862 6.94-29.174 7.5-44.975-10.13-4.77-5.26-12.988-.36-23.242-8.2-8.977-6.85-9.118-13.19-13.743-14.08-8.566-1.59-15.04-8.47-18.312-16.03-1.75-3.88-3.066-11.7-4.066-16.83-1.372-7.15-5-13.69-5.06-18.94-.073-7.29 2.243-11.22 1.556-14.49-1.047-4.68-4.875-9.01-5.34-13.41-.31-2.5-.555-9.18 1.285-12.95 2.31-4.59-1.594-8.59-3.668-13.55-1.934-4.58-3.96-12.42-3.3-17.93.78-7.61 5.128-10.39 1.75-16.37-5.516-9.73-12.493-24.89-.24-44.22 2.224-3.58-5.163-10.47-5.59-20.54-.468-11.02 6.193-19.17 8.028-24.05.3-1.71-2.925-1.62-3.085-3.51-29.168 30.89-55.02 59.41-88.942 86.24-20.68 16.33-41.152 30.13-64.098 42.42-61.312 32.85-132.46 54.83-196.957 46.79 24.248-19.58 54.912-33.49 79.857-55.73 23.676-21.05 45.062-39.04 66.648-61.37 33.785-35.11 61.23-70.71 89.867-112.04 8.473-12.23 14.04-20.42 22.008-33.17 7.96-12.75 16.813-26.32 24.078-38.92 36.618-63.62 66.59-122.45 97.008-187.62 8.406-18.03 15.457-36.85 23.72-54.75 2.24-4.86 5.378-1.27 7.632 0 10.953 6.33 22.633 11.66 34.066 17.02 9.063 4.19 17.344 7.03 25.492 10.17 20.536 7.83 40.032 12.11 61.543 16.57 35.89 7.5 100.43 5.97 100.43 5.97l122.39.04h3.28c-1.24 35.06-9.62 69.15-11.63 104.32-1.5 28.47-.55 56.06.47 84.58 2.62 77.33 14.04 160.37 31.37 230.89M395.102 2298.11c-23.875-23.81-30.965-32.57-44.91-58.84-8.215-15.48-18.606-35.37-21.57-60.94 49.077 18.66 89.05 56.76 125.27 98.85 26.706 31.2 47.48 72.61 73.862 103.42-46.46-15.58-95.527-45.5-132.652-82.49"></path><path d="M254.71 2231.21c18.497 31.24 44.978 65 72.42 88.06-12.716-28.57-28.368-56.87-33.755-90.66-10.684-67.27-20.777-114.37-31.895-175.78 30.485 21.73 62.665 55.92 95 79.79 24.985 18.39 50.08 30.65 75.747 48.31 15.324 10.57 25.257 24.06 37.964 36.75-15.14-63.8-71.174-128.23-111.28-158.3-50.375-37.77-68.437-43.77-149.422-126.13-10.273 101.66-8.43 207.32 45.223 297.96"></path><path d="M89.488 1893.59c3.785 52.79 10.12 94.98 22.934 146.51 9.02 35.93 28.336 89.49 56.23 111.45-3.418-13.06-5.172-32.61-6.507-45.81-5.46-54.36 4.933-117.58 6.2-171.9.608-26.73.4-47.31-3.65-72.39-4.11-26.33-.656-58.61-.656-58.61s14.444 16.49 27.3 37c28.156 44.67 37.152 57.93 59.805 82.17 28.152 30.01 59.593 57.85 95.132 82.52-4.3-16.68-22.43-49.18-29.906-62.24-10.03-17.41-14.554-33.31-38.194-72.84-33.364-55.5-48.18-63.04-85.18-122.46-7.976-12.89-40.805-62.06-48.808-77.03-17.293 35.83-23.868 67.16-45.09 125.55-13.336 36.67-11.344 73.35-9.61 98.08"></path><path d="M38.078 1618.89C17.996 1671 8.785 1719.31 1.973 1774.13c-4.125 33.56-2.192 78.25 9.746 110.49 3.12-7.85 9.57-27.85 10.393-30.84 8.957-29.95 12.645-44.36 25.12-73.25 9.494-22.14 21.15-39.8 33.642-61.71 11.313-20 20.84-46.31 29.05-66.45 26.368-64.6 28.32-125.03 38.43-131.6 7.27 15.49 9.5 30.39 10.336 37.7 7.837 71.48 17.228 136.42 107.244 220.61 8.265-25.06 4.05-71.29-.9-95.99-10.753-54.13-19.452-80.17-43.3-132.59-12.61-27.62-29.398-68.28-34.046-81.75-12.036-35.09-16.204-53.38-23.774-74.21-42.473 70.84-94.754 143.92-125.836 224.35"></path><path d="M108.082 1293.34c-30.246 42.09-41.238 63.16-60.906 107.98-16.532 37.66-21.3 51.57-30.996 93.66-5.29 22.97-8.274 43.79-4.133 57.37 23.648-42.89 39.805-90.86 70.805-126.47 24.574-28.11 48.285-52.18 67.832-75.95 29.964-36.64 53.554-71.22 82.34-109.31 2.42 19.02 3.363 38.39-.934 69.67-5.856 42.87-2.21 78.01 5.254 119.45 9.52 52.68 16.465 78.77 34.707 132.03 22.364-43.82 22.286-94.51 27.868-141.03 10.82-90.17-17.356-197.73-22.94-242.56-1.486-11.81.55-40.98 1.198-52.38-42.238 33.24-79.785 66.86-116.145 103.32-16.585 16.55-39.37 43.95-53.948 64.22"></path><path d="M268.082 962.52c-19.2 13.808-70.848 53.23-95.277 84.3-35.61 45.31-43.446 64.57-66.926 116.67-2.876 6.28-16.157 35.71-17.228 55.76 76.91-92.89 145.782-106.82 219.164-183.8 26.985-28.26 54.54-54.938 69.102-68.188 11.184-10.332 25.03-13.422 25.03-13.422s-1.452 19.762-8.702 33.53c-48.95 93.62-58.195 191.44-50.785 296.5 22.368-27.62 29.454-46.12 43.634-72.95 15.394-29.17 23.258-47.13 30.476-65.03 41.914-104.31 52.8-224.718 78.684-285.45-79.867 26.97-142.81 41.388-227.172 102.08"></path><path d="M595.785 716.43c-21.6-1.508-63.988-1.282-86.562 2.32C394.848 737.078 288.496 820 234.983 911.03c48.537-29.56 83.552-49.28 126.247-64.03 37.99-13.19 73.97-17.078 137.387-35.04 38.297-10.8 76.145-26.15 89.442-31.12 42.42-15.78 60.303-11.89 60.303-11.89s0 6.37-15.88 23.69c-31.538 34.43-43.112 42.73-69.085 69.212-8.554 8.75-28.1 38.43-38 58.168-28.043 55.96-31.2 100.77-56.804 162.06 93.515-54.92 139.125-130.65 188.57-226.22 15.2-29.282 35.762-63.13 54.582-81.712 12.645-12.488 30.426-31.398 30.426-31.398s-13.067-3.06-53.676-9.03c-18.2-2.708-57.058-14.868-92.71-17.29M1049.27 709.11c49.4-8.04 93.28-20.008 138.2-35.438 12.03-4.12 30.41-13.223 43.13-19.71 31.9-16.25 50.23-26.68 77.6-45.57 44.05-30.353 91.34-62.982 134.07-112.63.93-.98 7.82-8.41 3.18-11.942-8.29-6.582-28.89-15.98-35.76-9.832-39.2 34.692-37.11 45.89-84.53 88.793-12.1 10.92-30.46 26.18-52.44 41.25-21.39 14.63-47.18 30.572-71.23 42.4-21.78 10.718-55.34 14.02-74.25 14.02l.31-.24c-8.59.42-57.87.66-69.28-.12-96.81-6.65-92.055-15.21-147.848-30.39-45.97-12.52-95.172-21.4-144.055-27.88-50.113-6.8-94.945-7.64-141.89-2.84-63.625 6.48-133.27 24.192-185.215 57.758 47.5-.816 96.297-9.91 143.566-6.367 19.848 1.59 52.11 4.58 73.973 11.33 43.43 13.25 68.34 18.53 114.31 31.33 39.515 10.97 79.374 14.79 120.605 19.19 57.097 6.09 110.035 4.64 157.555-3.11M1934.47 2298.11c23.83-23.81 31.06-32.57 44.95-58.84 8.14-15.48 18.6-35.37 21.56-60.94-49.05 18.66-89.04 56.76-125.23 98.85-26.82 31.2-47.52 72.61-73.89 103.42 46.5-15.58 95.51-45.5 132.61-82.49"></path><path d="M2074.96 2231.21c-18.52 31.24-44.99 65-72.43 88.06 12.83-30.72 31.53-69.04 33.7-90.66 6.82-67.75 20.71-114.37 31.95-175.78-30.48 21.73-62.7 55.92-95.01 79.79-25.01 18.39-50.12 30.65-75.76 48.31-15.35 10.57-25.28 24.06-38.01 36.75 15.21-63.8 71.18-128.23 111.3-158.3 50.42-37.77 68.43-43.77 149.36-126.13 10.35 101.66 8.51 207.32-45.1 297.96"></path><path d="M2240.11 1893.59c-3.81 52.79-10.03 94.98-22.99 146.51-8.95 35.93-28.34 89.49-56.21 111.45 3.4-13.06 5.19-32.61 6.61-45.81 5.42-54.36-4.9-117.58-6.27-171.9-.53-26.73-.34-47.31 3.63-72.39 4.12-26.33.75-58.61.75-58.61s-14.43 16.49-27.33 37c-28.11 44.67-37.1 57.93-59.93 82.17-28 30.01-59.6 57.85-95.08 82.52 4.27-16.68 22.46-49.18 30-62.24 10.02-17.41 14.41-33.31 38.2-72.84 33.29-55.5 48.11-63.04 85.09-122.46 7.98-12.89 40.91-62.06 48.84-77.03 17.37 35.83 23.8 67.16 45.1 125.55 13.41 36.67 11.42 73.35 9.59 98.08"></path><path d="M2291.59 1618.89c20.02 52.11 29.26 100.42 36.11 155.24 4.14 33.56 2.17 78.25-9.75 110.49-3.23-7.85-9.56-27.85-10.45-30.84-8.92-29.95-12.64-44.36-25.1-73.25-9.46-22.14-21.15-39.8-33.61-61.71-11.37-20-20.95-46.31-29.15-66.45-26.33-64.6-28.29-125.03-38.33-131.6-7.36 15.49-9.58 30.39-10.4 37.7-7.84 71.48-17.29 136.42-107.23 220.61-8.24-25.06-4.07-71.29.85-95.99 10.8-54.13 19.53-80.17 43.28-132.59 12.61-27.62 29.52-68.28 34.07-81.75 12.09-35.09 16.22-53.38 23.9-74.21 42.39 70.84 94.72 143.92 125.81 224.35"></path><path d="M2221.53 1293.34c30.27 42.09 41.24 63.16 60.9 107.98 16.53 37.66 21.29 51.57 31 93.66 5.24 22.97 8.22 43.79 4.11 57.37-23.59-42.89-39.88-90.86-70.77-126.47-24.53-28.11-48.3-52.18-67.85-75.95-29.88-36.64-53.64-71.22-82.33-109.31-2.47 19.02-3.33 38.39.9 69.67 5.87 42.87 2.22 78.01-5.18 119.45-9.52 52.68-16.47 78.77-34.76 132.03-22.33-43.82-22.27-94.51-27.94-141.03-10.84-90.17 17.47-197.73 23.04-242.56 1.4-11.81-.63-40.98-1.16-52.38 42.17 33.24 79.67 66.86 116.15 103.32 16.59 16.55 39.27 43.95 53.89 64.22"></path><path d="M2061.54 962.52c19.24 13.808 70.9 53.23 95.31 84.3 35.56 45.31 43.4 64.57 66.89 116.67 2.84 6.28 16.21 35.71 17.27 55.76-76.96-92.89-145.8-106.82-219.29-183.8-26.85-28.26-54.39-54.938-68.97-68.188-11.24-10.332-25.09-13.422-25.09-13.422s1.39 19.762 8.68 33.53c48.97 93.62 58.16 191.44 50.77 296.5-22.31-27.62-29.37-46.12-43.6-72.95-15.43-29.17-23.31-47.13-30.45-65.03-41.94-104.31-52.86-224.718-78.8-285.45 79.99 26.97 142.96 41.388 227.28 102.08"></path><path d="M1733.75 716.43c21.75-1.508 64.07-1.282 86.67 2.32 114.36 18.328 220.68 101.25 274.2 192.28-48.57-29.56-83.65-49.28-126.19-64.03-38.02-13.19-74.04-17.078-137.4-35.04-38.29-10.8-76.17-26.15-89.55-31.12-42.36-15.78-60.19-11.89-60.19-11.89s0 6.37 15.81 23.69c31.56 34.43 43.16 42.73 69.14 69.212 8.46 8.75 28 38.43 38.02 58.168 27.99 55.96 31.19 100.77 56.84 162.06-93.58-54.92-139.27-130.65-188.63-226.22-15.23-29.282-35.78-63.13-54.54-81.712-12.62-12.488-30.43-31.398-30.43-31.398s13-3.06 53.7-9.03c18.11-2.708 56.95-14.868 92.55-17.29M1280.33 709.11c-49.33-8.04-93.18-20.008-138.14-35.438-12.18-4.12-30.51-13.223-43.23-19.71-31.78-16.25-50.1-26.68-77.49-45.57-44.087-30.353-91.365-62.982-134.134-112.63-.93-.98-7.856-8.41-3.19-11.942 8.377-6.582 29-15.98 35.795-9.832 39.09 34.692 37.11 45.89 84.51 88.793 12.11 10.92 30.47 26.18 52.39 41.25 21.42 14.63 47.23 30.572 71.22 42.4 21.73 10.718 55.46 14.02 74.26 14.02l-.24-.24c8.61.42 57.81.66 69.27-.12 96.81-6.65 92.03-15.21 147.81-30.39 45.93-12.52 95.25-21.4 144.14-27.88 50.02-6.8 94.89-7.64 141.82-2.84 63.64 6.48 133.32 24.192 185.25 57.758-47.52-.816-96.29-9.91-143.56-6.367-19.97 1.59-52.21 4.58-74 11.33-43.38 13.25-68.37 18.53-114.3 31.33-39.59 10.97-79.34 14.79-120.65 19.19-57.08 6.09-109.94 4.64-157.53-3.11M1106.73 2834.64l-86.92-322.85h-92.298l-57.79 210.33-56.41-210.33H721.2l-86.946 322.85h86.906l49.504-222.25 59.578 222.25h83.11l56.476-222.25 52.042 222.25h84.86M1393.6 2772.18h-148.52v-60.06h137.69v-62.46h-137.69v-137.87h-82.85v322.85h231.37v-62.46M1631.52 2730.89c0 9.06-2.52 16.88-7.42 23.48-4.92 6.54-10.64 11.09-17.07 13.73-8.69 3.46-17.18 5.37-25.36 5.69-8.32.37-19.28.6-33 .6h-14.36v-96.52h23.92c14.11 0 25.79.88 35.04 2.58 9.14 1.75 16.85 5.21 23.02 10.43 5.41 4.58 9.28 10.08 11.62 16.5 2.33 6.46 3.61 14.28 3.61 23.51zm86.07 1.82c0-14.42-2.58-28.56-7.61-42.4-5.04-13.79-12.34-25.41-21.67-34.79-12.85-12.72-27.22-22.34-43.03-28.83-15.81-6.49-35.6-9.76-59.14-9.76h-51.83v-105.14h-83.23v322.85h137.01c20.52 0 37.86-1.8 51.91-5.32 14.16-3.53 26.66-8.84 37.48-15.95 12.97-8.51 22.9-19.41 29.76-32.75 6.86-13.28 10.35-29.23 10.35-47.91M734.45 257.852l-58.055-187.21h-63.707l-38.16 126.23-37.75-126.23h-64.33L414.9 257.85h62.99l32.163-129.05 39.915 129.05h53.203l38.008-129.05 31.644 129.05h61.63M901.98 286.06h-4.476c-2.64.8-6.094 1.702-10.38 2.702a60.723 60.723 0 0 1-13.718 1.558c-11.75 0-19.75-2.21-23.875-6.41-4.182-4.19-6.25-12.43-6.25-24.5v-1.558h46.228v-40.614h-44.235V70.64h-60.195V217.24H759.37v40.614h25.708v5.257c0 22.85 6.067 40.08 18.246 51.45 12.18 11.49 30.625 17.22 55.336 17.22 8.883 0 16.914-.26 24.152-.92 7.243-.65 13.633-1.36 19.168-2.36v-42.44M1058.47 165.602c0 18.128-3.13 31.41-9.32 39.57-6.22 8.277-16.03 12.36-29.48 12.36-5.64 0-11.47-.872-17.44-2.61-6.035-1.64-11.703-4.16-17.19-7.352v-94.172c4.038-1.476 8.265-2.48 12.855-2.988 4.525-.38 9.005-.578 13.445-.578 15.9 0 27.7 4.54 35.48 13.867 7.77 9.222 11.65 23.26 11.65 41.902zm61.83 1.226c0-15.488-2.3-29.496-7.04-42.187-4.73-12.67-10.9-23.16-18.57-31.33-7.97-8.69-17.03-15.29-27.18-19.67-10.07-4.5-20.93-6.69-32.45-6.69-10.68 0-19.76 1.12-27.19 3.36-7.43 2.35-15.058 5.53-22.83 9.612V1.852h-60.196v256h60.195V238.34c9.218 7.39 18.68 13.332 28.24 17.94 9.63 4.47 20.72 6.83 33.25 6.83 23.34 0 41.45-8.59 54.38-25.77 12.99-17.06 19.39-40.57 19.39-70.512M1165.88 70.64h62.402v65.55h-62.402zM1404.66 118.66c3.91 4.79 6.83 10.56 8.77 17.192 1.95 6.726 2.92 16.11 2.92 27.976 0 10.98-.99 20.274-2.99 27.64-2 7.5-4.79 13.442-8.29 17.942-3.59 4.47-7.82 7.77-12.82 9.68-4.98 1.89-10.44 2.72-16.23 2.72-5.79 0-10.91-.68-15.45-2.28-4.43-1.49-8.81-4.71-12.9-9.268-3.7-4.403-6.62-10.332-8.77-17.93-2.13-7.48-3.2-17.012-3.2-28.504 0-10.18.95-19.16 2.85-26.578 1.89-7.55 4.58-13.55 8.26-18.148 3.61-4.282 7.82-7.422 12.77-9.434 4.93-2.11 10.61-3.098 17-3.098 5.38 0 10.66.918 15.59 2.77 4.94 1.85 9.12 4.91 12.49 9.32zm73.95 45.47c0-30.74-8.97-55.028-26.88-72.75-18.03-17.72-43.26-26.57-75.71-26.57-32.44 0-57.67 8.85-75.59 26.57-18.03 17.722-26.99 42.01-26.99 72.75 0 31.042 9.02 55.4 27.14 73.06 18.01 17.67 43.19 26.51 75.44 26.51 32.76 0 57.92-8.89 75.86-26.65 17.81-17.77 26.73-42.062 26.73-72.92M1657.4 200.72h-5.27c-2.59.9-6.69 1.49-12.36 1.99-5.69.4-10.31.708-14.09.708-8.58 0-16.14-.61-22.63-1.7-6.58-1.097-13.6-2.988-21.17-5.687V70.64h-60.25v187.212h60.25V230.36c13.14 11.378 24.66 18.95 34.41 22.59 9.77 3.74 18.74 5.61 27.02 5.61 2.09 0 4.43-.048 7.11-.15 2.7-.09 4.99-.238 6.98-.558V200.72M1813.39 129.64v84.91c-3.49 1.38-7.68 2.61-12.66 3.348-4.96.852-9.51 1.332-13.5 1.332-15.74 0-27.54-4.57-35.41-13.6-7.87-9.02-11.8-21.67-11.8-37.958 0-17.96 3.3-30.53 10.02-37.73 6.73-7.09 16.67-10.704 29.93-10.704 5.97 0 11.85.953 17.62 2.864a67.31 67.31 0 0 1 15.8 7.54zm60.25-37.492c0-17.558-2.56-32.45-7.54-44.418-5-11.98-11.97-21.42-21.07-28.21-8.98-6.89-19.84-11.848-32.56-14.89-12.74-3.052-27.14-4.63-43.1-4.63-12.99 0-25.9.81-38.51 2.41-12.53 1.48-23.55 3.39-32.73 5.692V54.98h7.28c7.38-2.902 16.3-5.582 26.87-8.03 10.58-2.34 19.93-3.52 28.31-3.52 11.08 0 20.18 1.03 27.1 3.07 6.93 2.05 12.19 4.97 15.88 8.77 3.38 3.6 5.94 8.082 7.54 13.67 1.47 5.6 2.28 12.17 2.28 19.958v3.55c-7.17-5.89-15.26-10.577-24.04-13.967-8.78-3.5-18.54-5.25-29.32-5.25-26.12 0-46.35 7.88-60.63 23.782-14.15 15.758-21.34 39.707-21.34 71.957 0 15.47 2.26 28.85 6.54 40.03 4.39 11.28 10.47 21.06 18.34 29.34 7.28 7.79 16.39 13.94 27.11 18.22 10.73 4.292 21.67 6.55 32.84 6.55 10.17 0 19.31-1.29 27.64-3.622 8.23-2.347 15.78-5.718 22.57-9.91l2.15 8.274h58.39V92.148"></path></g></svg>