<svg xmlns="http://www.w3.org/2000/svg" viewBox="0 0 310.62668 377.94666" height="377.947" width="310.627"><defs><clipPath id="a"><path d="M0 2834.64V0h2329.71v2834.64z"></path></clipPath></defs><g clip-path="url(#a)" fill="#fff" transform="matrix(.13333 0 0 -.13333 0 377.947)"><path d="M1340.53 2131.13c12.47 27.05 24.06 48.64 40.76 74.3 7.37 11.3 15.69 19.19 23.15 30.68-3.6 1.01-8.73-1.92-11-3.49-7.4-5.38-10.76-14.14-16.7-18.83-14.04-11.04-13.63-21.1-20.99-26.29-6.56-4.61-8.44-7.64-13.07-14.87-3.07-4.84-5.35-8.74-8.56-18.22-1.19-3.42-3.45-.4-8.98-7.97-7.13-9.8-10.38-20.35-13.35-32.26-.96-3.9-7.62-5.95-11.84-14.07-5.74-10.91-9.48-21.04-11.94-36.92-.6-3.72-6.85-6.26-11.17-16.54-3.03-7.24-5.19-8.82-7.89-22.45-1.62-8.31-5.43-9.54-9.71-21.56-3.26-9.21-3.41-18.06-4.56-30.1-.28-2.35-4.23-6.94-7.83-13.68-6.12-11.27-5.89-18.77-8.32-30.4-.93-4.23-5.65-9.77-10.18-27.8-3.97-15.99-.35-26.55-1.66-34.48-3.56-20.4-7.07-38.19-5.16-58.32.94-9.84 2.44-20.02 1.8-29.46-1.88-29.71-3.46-54.17-3.33-87.83.09-18.36 1.53-43.42 4.32-64.32 3.03-23.05 7.42-41.06 7.42-41.06h75.16s-2.94 43.45.96 89.16c2.31 27.46 8.82 56.49 14.74 76.91 7.48 26.02 12.17 39.52 26.37 73.85.31.78-.09 3.96-3.86.84-7.84-6.62-14.35-12.35-20.56-21.72-9.44-14.25-15.21-25.99-22.88-40.63-8.94-17.02-13.86-31.83-23.09-52.48-.55 14.89 1.88 29.08 4.89 42.88 3.09 14 5.56 25.13 9.95 37.24 7.84 21.37 15.46 39.15 28.03 59.03 7.29 11.45 16.58 21.74 26.01 30.33 11.28 10.31 21.7 19.38 33.56 29.47-12.44 6.39-29-6.95-32.27-7.61-17.48-3.41-24.6-19.66-29.97-21.84-7.6-3.23-12.03-7.87-17.35-14.32-4.11-4.84-5.31-12.36-9.61-14.99-7.15-4.44-12.34-11.16-17.24-20.51-2-3.87-7.52-22.11-13.6-19.81 10.4 61.94 32.28 120.03 67.38 171.72 22.21 32.77 46.45 60.91 82.11 86.09 4.71 3.34 5.65 4.88-.95 4.68-33.32-4.03-35.35-19.3-40.88-20.75-5.18-1.29-11.61-7.49-15.76-11.49-7.41-7.32-7.29-13.52-10.14-15.45-6.07-4.2-10.67-8.67-14.81-16.03-2.14-3.8-5.85-12.29-9.12-14.22-8.53-4.96-16.82-12.2-20.98-20-3.04-5.66-4.23-11.87-8.24-17.45-4.25-6.06-10.26-10.55-15.36-14.91 3.9 26.46 16.39 57.8 24.94 84.88 11.57 36.13 25.52 68.94 41.36 103.07M1417.23 1916.64c28.44 63.81 58.34 111.9 97.25 168.1 5.07 7.36 9.67 14.59 14.09 21.49 1.99 3.08 11.58 16.82 13.56 19.74 13.01 19.73 18.53 25.73 31.86 44.57 3.59 5.08 6.52 9.09 8.05 15 2.86 11.03-6.58 18.41-8.78 28.99-2.18 10.79-1.01 22.56 4 31.69 3.09 5.66 6.15 7.92 9.31 15.58 6.03 14.72 3.96 46.57 10.86 47.43-1.77-15.14-2.13-32.15.19-46.67 2.8-16.94 13.07-27.2 17.32-45.09 11.39 2.05 23.84 1.55 33.41.71 9.57-.78 21.6 1.85 31.44 5.21 13.26 4.51 24.24 12.77 37.77 15.99-11.52-11.07-27.73-15.25-41.34-23.63-4.98-3.11-9.71-7.29-13.01-12.42-5.53-8.54-9.79-16.64-18.36-20.39-15.2-6.65-28.26-3.48-45.57-6.72-25.77-26.52-50.04-62.61-72.42-100.59-56.72-95.93-104.03-195.36-131.52-297.3 9.54 17.77 18.59 34.92 28.88 51.76 11.43 18.78 24.22 37.09 38.14 55.49 32.66 43.04 64.97 80.63 101.15 120.18 29.24 31.99 61.29 58.8 96.99 81.17 47.22 29.59 105.42 50.28 156.59 39.65 5.83-1.37 14.15-2.91 17.75-6.75-64.09 8.96-121.55-13.45-164.42-47.76-33.83-27.04-62.35-54.57-91.38-90.27-14.94-17.2-28.44-36.13-41.8-54.42-14.03-19.31-26.48-39.55-38.8-59.86-41.54-68.58-72.97-141.24-96.13-216.49-.63-2.39-.76-4.8-1.47-7.17 1.16 1.65 2.76 3.51 3.83 5.26 31.14 50.56 68.6 99.41 116 132.23 4.1 2.78 8.44 8.2 9.52 12.49 5.17 20.08-10.19 29.76 11.04 57.54 4.86 6.37 11.47 8.71 16.09 14.63 8.68 13.38 15.73 37.44 23 43.88-3.68-15.64-12.63-32.16-14.55-48.27-2.02-17.67 2.49-32.16 3.3-50.88 12.48-1.73 22.18-7.04 31.99-10.06 15.33-4.79 24.49-3.54 39.57-2.22 6.5.54 18.2 4.27 25.15 2.87-14.62-7.99-34.33-6.52-49.3-14.11-10.44-5.36-13.51-13.32-27.9-16.06-12.88-2.49-23.67-1.2-32.02 3.1-6.48 3.29-11.52 4.66-17.36 1.86-15.56-7.45-26.2-18.02-38.75-30.66-29.04-29.27-52.79-61.94-74.92-104.72a551.776 551.776 0 0 1-16.13-34.3c-2.46-5.62-8.61-21.3-8.61-21.3h-75.95s-.23 21.92.52 29.9c1.45 15.96 3.59 27.76 6.68 43.93 4.39 23.29 8.72 44.38 14.78 66.94 5.89 21.96 12.23 42.55 19.73 63.63 15.7 43.96 32.38 86.11 50.68 127.1M682.54 1324.75c27.74 22.65 48.276 35.85 75.98 52.38 11.25 6.73 28.273 14.35 41.308 20.28 48.024 21.66 111.504 37.6 171.28 38.69 1.072 0 1.01-.04 1.01-.04h445.952s-1.7.04 1.54.04c14.19 0 28.25-4.94 36.9-13.08 8.7-8.33 12.89-21.04 15.13-33.7 1.92-10.78.97-20.26-1.53-31.82-1.96-9.18-3.43-14.54-8.47-22.3-3.06-4.73-5.97-7.92-11.69-12.5-5.86-4.71-14.16-6.26-23.7-6.34-1-.04-3.1-.19-3.04-.06.08.06-521.562.06-521.562.06s-3.257.01-4.867.01c-34.15.1-70.124-1.66-103.854-6.13-25.852-3.45-51.75-7.46-76.72-14.01-31.476-8.18-61.808-19.61-92.08-30.95 16.765 22.33 36.155 41.33 58.413 59.47"></path><path d="M837.37 1502.2c27.403 19.75 60.704 36.04 90.15 47.31 14.976 5.63 34.792 11.91 50.61 15.84 19.065 4.81 40.92 8.4 58.81 8.98 5.38.13.81.03.81.03l382.44.04s8.21-.45 11.06-.99c7.14-1.6 12.95-4.53 15.37-6.06 5.92-3.76 13.37-11.8 17.26-18.13 9.97-16.33 11.69-33.96 8.51-52.35-3.7-20.98-19.6-44.88-41.26-45.45-3.72-.09-11.28 0-11.28 0h-414.22s-24.075-.48-35.118-.89c-20.39-.81-42.96-3.1-60.727-5.75-15.265-2.16-30.1-5.05-45.32-9.1-51.098-13.78-95.485-39.74-141.89-59.8 31.257 54.51 73.562 96.44 114.796 126.32M623.43 1242.28c66.472 39.25 146.566 54.77 219.925 57.16 1.71.07 5.18.29 5.18.29l571.745-.05s1.03 0 6.23.05c34.65.03 47.3-34.45 47.11-62.2-.06-9.11-1.6-18.5-4.12-24.72-3.31-8.26-6.94-14.97-12.87-21.36-2.16-2.41-9.85-7.73-13.24-8.58-7.91-1.94-17.66-1.75-17.6-1.75.11 0-425.23-.07-425.23 0 0 0-22.986.93-38.88 2.52-11.5 1.11-20.157 2.28-32.106 4.51-29.285 5.82-53.582 15.39-78.914 23.2-16.91 5.21-34.742 9.09-53.3 11.91-34.083 5.3-71.407 7.63-105.844 4.98-43.86-3.21-82.868-11.84-124.598-25 7.074 10.97 36.387 27.15 56.512 39.04"></path><path d="M931.41 1062.96c-19.547 6.88-38.605 15.76-55.722 27.1-22.297 14.74-33.204 26.47-62 39.82-24.684 11.31-44.348 22.6-78.692 35.09-16.582 5.99-43.437 14.2-66.516 18.14-32.894 5.63-64.628 8.01-64.628 8.01s6.738 4.27 10.773 5.49c33.598 10.16 63.27 15.26 97.73 17.73 30.247 2.36 58.04-.59 88.364-5.35 12.468-1.96 28.635-5.8 42.698-9.8 45.61-13.07 97.484-33.66 143.555-33.72 2.547 0 2.23.03 2.23.03h426.307c12.91.03 36.97-4.11 46.64-21.25 11.2-19.65 14.67-43.1 5.28-66.57-2.85-7.03-7.6-17.09-14.4-23.3-5.95-5.34-15.66-8.86-21.24-8.86-1.65-.06-4.38 0-4.38 0h-371.76-2.01c-38.01 0-85.867 4.63-122.23 17.44M1100.74 931.11c-10.54 10.788-25.06 27.34-38.17 43.03-25.22 30.11-36.51 57.23-36.51 57.23h247.87s.7-28.58-5.04-61.698c-5.37-30.82-16.71-63.21-28.81-86.703-.45-24.118 9.74-46.51 11.39-70.26-20.33-12.52-42.24-24.94-60.53-42.49-1.13-1.048-3.02-1.048-3.77 1.85-9.78 36.71-14.96 69.34-22.95 105.57-22.64 17.49-43.81 33.06-63.48 53.47M1356.22 951.47c-7 12.92-12.24 30.08-20.32 40.202-1.7-9.043.41-14.66-.78-23.344-1.17-7.226-7.13-4.22-8.31-.848-3.47 9.942-7.19 22.04-10.39 32.09-5.24 16.89-6.96 31.75-6.96 31.75l41.27.05s1.56-.47 2.27-4.47c1.97-10.31 1.49-20.53 4.35-32.53 3.68-15.53 8.36-29.632 14.08-44.108 4.93-12.723 11.33-25.55 16.54-38.203.69-1.69 1.05-4.85-.2-6.548-1.55-1.934-4.17-1.71-5.68 0-11.79 13.45-16.57 28.59-25.87 45.957M1420.08 922.012c-7.05 14.91-16.91 31.7-16.03 48.726 4.54-5.968 6.42-10.328 12.71-13.63 2.88-.917 8.89-.05 7.38 4.95-2.8 9.282-7.11 17.294-11.09 30.09-5.92 18.912-11.68 39.202-11.68 39.202l-42.09.02s2.37-17.14 11.96-43.382c8.38-23.117 21.34-49.77 35.6-74.597 11.54-20.5 22.1-38.33 35.25-53.37 4.5-5.122 15.55-.55 10.76 6.17-12.5 17.62-24.15 37.162-32.77 55.822M1693.38 2344.89c-9.08-3.98-17.18-9.15-21.72-17.93-3.33-6.32-5.54-15.95.81-21.36 11.07-9.45 24.31.26 29.7 9.96 6.78 12.33 5.06 35.92 5.06 35.92s-7.89-4.08-13.85-6.59"></path><path d="M1703.06 2285.93c4 7.52 12.75 15.67 22.36 21.51 10.82 6.65 22.05 13.08 29.86 17.7 7.81 4.72 9.3 8.02 9.3 8.02s-6.43-2.23-9.95-4.3c-19.29-11.52-40.33-24.54-48.85-28.32-10.79-4.74-25.46-5.66-38.74-7.31-2.09 16.67-6.45 23.59-6.39 38.45.16 7.08 1.85 16.31 3.08 22.73 4.11 21.44 4.95 32.24 4.95 32.24s-3.3-3.03-4.47-12.45c-1.35-8.54-2.31-11.66-4.26-21.75-2.27-11.64-4.53-21.48-11.53-28.75-9.99-10.34-19.27-28.82-11.52-42.96 4.49-8.26 11.99-7.03 14.37-9.14 2.37-2.15 3.79-7.22 10.95-9.6 15.36-5.16 32.82 8.69 40.84 23.93"></path><path d="M1683.1 2241.88c5.24 8.45 10.6 14.39 18.85 19.48 13.66 8.33 23.81 13.94 32.14 18.21 3.59 1.84 6.6 3.97 7.52 7.84-3.69-1.41-17.8-8.01-31.82-16.39-10.02-5.97-27.29-13.43-38.89-13.95-4.55-.24-7.97.93-11.73 1.03-7.78.35-17.65-1.54-17.65-1.54s-2.51 10.95-5.83 18.9c-1.64 4.05-4.36 8.18-5.8 15.82-.98 5.05-1.23 12.7-.83 17.22 1.11 13.73 4.85 27.11 4.17 40.98-8.6-17.94-5.08-40.01-15.23-53.86-4.28-5.83-7.67-10.47-11-17.81-5.57-12.02-4.93-24.54 2.61-36.18 4.34-6.59 13.89-6.38 15.57-7.63 2.5-1.86 4.63-8.78 13.97-10.9 16.03-3.58 34.94 3.83 43.95 18.78M1687.62 1891.29c3.7 7.51 6.11 17.38 10.88 24.4-10.76-1.65-12.52-2.85-28.08-4.58-3.38-.28-10.38-3.8-12.7-6.12-6.13-6.22-11.48-12-9.1-22.39.93-4.03 4.48-7 6.46-7.67 12.91-4.17 26.04 3.48 32.54 16.36"></path><path d="M1700.69 1870.76c14.74 3.44 31.68 10.6 38.49 8.37-13.76-7.33-31.17-10.03-46.43-14.39-11.66-3.31-19.97-12.11-30.36-20.13-9.57-7.27-22.29-10.23-33.61-4.88-3.83 1.82-7.52 8.02-8.22 11.27-.57 2.67-6.04 5.28-8.86 7.61-2.86 2.37-4.2 8.26-4.29 10.49-.48 20.35 15.02 28.58 29.95 40.5 11.22 9.02 25.75 47.19 34.7 55.08-1.64-12.29-17.58-35.52-24.59-53.59-5.53-14.36-3.7-25.89-7.25-41.05 10.62-.65 22.54-2.91 33.27-3.07 8.41-.09 18.59 1.7 27.2 3.79"></path><path d="M1685.26 1839.37c-8.26-1.53-18.37-4.1-25.26-5.56-23.95-5.06-35.37 6.68-54.55 6.42 1.72 21.92-5.91 31.72.36 45.88 5.62 12.61 10.76 25.93 15.57 36.62 3.9 8.59 5.05 15.8 5.05 15.8s-5.82-8.67-22.28-40.85c-5.76-11.23-16.04-13.64-25.18-24.26-10.48-12.13-16.54-37.72 2.9-48.49 3.87-2.16 3.32-8.78 6.14-11.5 12.95-12.21 39.18-10.95 55.54 3.9 13.06 11.94 28.95 13.87 42.43 17.36 7.93 2.03 14.86 5.39 14.86 5.39s-3.76 1.53-15.58-.71M1205.26 1585.16c-.96 0-1.97 0 0 0zm-111.89 315.54c-8.02-10.59-11.69-22.68-20.5-31.9-4.63-4.84-11.63-2.62-15.31 2.98-4.03 6.29-10.55 15.18-5.68 21.41 7.98 10.26 24.71 16.78 38.95 14.92.85-.09 5.48-3.47 2.54-7.41zm-38.37-60.41c-4.45-11.94-17.77-13.26-29.16-15.63-2.09-.46-8.6 0-11.53 2.88-4.9 4.81-9.15 11.33-8.28 19.54.45 5.1 4.64 10.05 9.88 12.05 9.44 3.64 20.67 9.54 30 4.34 8.06-4.47 12.29-14.72 9.09-23.18zm-24.53-63.2c-3.28-4.74-11.65 10.92-12.73 18.12-3.16 20.73 15.08 26.04 30.24 25.42.48-12.37-9.14-31.59-17.51-43.54zm-16.41-56.05c-2.97-8.34-4.4-16.04-7.74-23.66-3.18-7.45-16.922-10.06-24.578-7.68-10.88 3.38-20.215 27.83-7.847 37.19 9.45 7.11 19.257 8.23 31.345 9.7 2.21.23 10.27-.26 10.61-.98 2.01-5.05.71-7.64-1.79-14.57zm-18.302-64.56c-2.235-6.42-3.207-13.05-6.063-19.24-1.425-3.1-3.242 1-3.367 1.22-4.234 10.66-6.957 19.64-3.28 29 2.05 5.21 9.116 10 15.87 10.42-.426-6.69-.898-14.92-3.16-21.4zm-21.692-31.53c-4.918 2.25-4.85 8.58-6.898 12.51-1.94 3.85-6.098 9.15-4.41 14.16 9.53-5.32 13.937-14.8 11.308-26.67zm-16.35 39.34c-11.32 9.31-12.306 24.18-19.88 35.62 8.324 5.34 22.394 4.27 26.726-6.3 3.45-8.49 5.95-20.94-2.667-27.4-.934-.72-3.122-2.82-4.18-1.92zm-42.278 76.83c-1.668 2.43-5.04 9.43-2.49 10.31 20.31 7.02 35.52 7.22 39.857-14.45 3.05-15.5-7.547-28.78-22.344-23.37-4.27 1.56-8.444 18.07-15.022 27.51zm-29.47 49.03c-1.425 1.75-2.566 7.14-.827 8.53 10.567 8.46 26.016 9.14 38.024 7.94 15.79-1.45 19.06-16.13 16.445-28.33-3.473-16.02-27.81-18.03-34.688-15.33-6.777 2.58-11.52 17.95-18.953 27.19zm3.442 56.99c13.66 8.85 39.754 15.45 44.113-8.53 1.34-7.25-.48-16.87-10.246-19.99-10.007-3.24-21.812-6.7-30.988-2.96-11.267 4.59-13.505 24.63-2.88 31.48zm-14.172 40.38c1.032 4.58 6.106 6.78 10.403 7.87 11.08 2.75 23.43 6.85 33.594.39 3.954-2.49 4.282-6.02 4.793-11.04.91-8.04-.277-14.66-5.593-17.73-10.778-6.33-21.715-6.88-34.254-4.42-10.164 1.99-10.957 15.48-8.942 24.93zm-11.316-62.19c-9.508 6.99-13.656 16.87-20.68 26.67-1.66 2.41 0 3.39 1.31 3.78 16.792 4.77 29.28-3.6 26.682-21.96-.468-3.54-2.796-11.84-7.312-8.49zm-46.387 56.61c-6.305 5.44-1.926 14.89 3.55 17.67 9.634 4.78 24.735 5.48 34.7 2.1 6.418-2.13 9.695-11.37 8.508-21.46-.43-4.11-1.715-8.7-3.73-10-7.633-5.21-19.407-5.39-28.665-3.48-6.527 1.37-8.875 10.35-14.363 15.17zm-7.265 57.24c6.058 13.24 28.304 13.34 40.39 7.44 9.867-4.85 11.078-23.16.317-30.4-8.55-5.74-22.094-3.65-31.22-1.95-12.905 2.39-13.933 15.11-9.487 24.91zm.492 49.57c9.234 8.78 21.164 4.77 32.29 3.24 2.128-.33 4.74-1.84 6.202-3.29 7.558-7.63 8.144-20.21-.293-26.51-9.757-7.26-21.93-2.53-33.648-1.94-3.14.11-6.605 3.84-7.363 6.23-2.09 7.42-3.395 16.46 2.812 22.27zm5.937 41.5c9.788 4.13 26.655 6.01 33.59-5.02 4.218-6.75 3.007-19.19-3.83-21.03-6.71-1.75-29.44-5.49-34.937 7.06-2.67 6.2-1.546 16.21 5.176 18.99zm30.17 35.3c2.85-1.28 4.58-3.57 5.282-7.05 1.348-7.52-.632-15.73-7.84-17.07-10.92-1.98-27.082-2.59-27.03 12.77.03 17.22 16.972 16.99 29.59 11.35zm-21.925 31.9c5.81 2.21 15.31 1.69 20.528-.99 2.6-1.37 6.125-5.7 4.632-10.23-1.793-5.92-7.35-8.09-13.578-8.16-6.054-.05-12.95.43-15.382 5.35-2.32 4.68-1.34 12.06 3.8 14.03zm6.778 25.76c5.304 1.93 13.136 1.76 16.933-2.39 5.313-5.8 1.164-15.02-8.87-14.56-3.513.13-7.68 1.38-9.82 2.56-5.138 2.92-3.45 12.52 1.757 14.39zm23.77 16.59c.706 2.2 4.187 4.85 6.023 5.47 3.964 1.43 8.586 1.68 12.402.17 7.625-3.1 6.59-12.49-1.55-15.8-3.602-1.48-9.223-2.43-11.942-1.48-5.12 1.7-6.547 6.13-4.934 11.64zm23.706-36.81c-8.294-2.43-19.868-2.9-22.34 5.63-4.17 14.4 14.023 16.59 23.45 13.58 6.55-2.11 8.807-16.35-1.11-19.21zm5.472 47.65c2.672 8.93 12.754 13.77 21.937 11.06 7.882-2.31 9.718-13.05 4.386-18.29-2.418-2.36-6.402-4.76-10.707-5.71-9.372-2.08-18.602 3.11-15.618 12.94zm41.29-32.78c-1.485-5.83-5.782-9.82-12.626-11.36-6.813-1.53-16.207-1.89-19.992 2.27-3.578 3.97-5.27 9.6-2.274 13.91 6.06 8.53 17.05 11.52 26.868 9.37 5.636-1.33 9.73-7.08 8.023-14.19zm-3.696 34.3c3.695 8.13 12.984 12.19 21.894 9.44 1.81-.56 5.453-3.44 5.96-6.24 1.052-5.66-.905-10.84-5.573-13.79-6.074-3.79-11.047-5.98-17.965-3.14-5.227 2.16-6.46 8.93-4.316 13.73zm38.457-22.8c4.05-6.9-2.11-13.82-5.29-15.72-6.964-4.07-16.816-6.57-21.042.34-4.12 6.8-.69 14.84 6.49 17.82 6.886 2.87 14.046 7.22 19.843-2.44zm11.6-26.37c4.548-3.73 8.54-11.7 3.083-17.92-5.117-5.96-11.543-7.69-19.586-9.02-5.445-.93-12.465 3.15-13.3 7.93-.836 4.17-1.618 11.72 2.53 15.25 7.997 6.84 18.75 10.79 27.274 3.76zm9.642 44.97c4.305-1.23 7.082-5.78 4.945-10.17-1.328-2.72-5.207-5.67-7.668-7.17-6.77-4.19-12.582-2.46-14.68 2.5-3.902 9.17 9.21 17.27 17.403 14.84zm16.504-22.75c4.76-.43 6.93-3.75 7.85-7.36 1.26-4.87-.32-9.36-4.47-12.15-4.893-3.27-10.96-5.18-15.834-5.25-6.62-.11-12.704 9.58-9.145 15.87 3.798 6.7 13.29 9.59 21.6 8.89zm27.28-34.92c2.83-8.28-3.27-12.15-9.67-15.56-6.48-3.46-15.22-6.66-19.717-2.33-5.773 5.42-8.328 14.53-1.906 20.59 8.893 8.35 25.403 14.65 31.293-2.7zm11.77-20.74c10.5-1.35 12.56-16.19 10.46-21.57-2.39-4.65-7.67-8.25-10.46-9.67-7.63-3.95-16.64-5.44-23.66-1.82-6.41 3.34-9.22 13.1-5.74 20.76 4.75 10.33 19.62 13.55 29.4 12.3zm21.52-46.03c3.62-5.04 2.81-13.91.71-16.71-6.63-8.98-24.96-14.16-32.56-10.44-5.77 2.83-11.41 15.52-4.71 23.09 7.04 7.89 19.24 12.62 30.33 10.29 2.48-.54 4.09-3.23 6.23-6.23zm4.67-28.41c5.01-.54 9.48-6.06 11.92-12.07 3.18-7.81-.04-16.92-2.53-18.61-6-4.1-25.06-15.55-37.08-8.68-6.57 3.75-8.41 12.41-8.83 17.56-1.35 16.46 23.74 23.23 36.52 21.8zm-70.39-118.05c-2.605 6.53-4.94 16.23.18 20.2 10.37 8.2 33.87 15.34 42.85 2.97 5.82-8.03 4.08-21.68-6.11-26.93-10.47-5.36-31.002-11.55-36.92 3.76zm-50.453-.75c10.46 5.31 25.508 11.7 36.738 4.46 5.106-3.31 10.418-16.98 6.758-23.02-7.652-12.85-27.945-16.14-40.8-12.82-11 2.86-14.262 25.51-2.696 31.38zm-9.367 44.48c12.598 8.85 37.46 14.59 43.43-4.78 1.543-5 2.44-10.53-.114-14.61-6.957-11.19-24.687-14.17-36.507-12.47-12.79 1.87-18.81 23.43-6.81 31.86zm-10.574 45.12c12.07 6.85 37.844 15.92 43.894-3.7 2.422-8.01 2.21-17.96-4.664-21.49-9.844-5.19-25.445-10.6-36.79-3.49-9.507 5.98-10.81 23.89-2.44 28.68zm67.664 80.98c-5.043-4.51-10.215-5.48-16.96-7.73-9.42-3.23-19.278 4.05-20.36 13.05-1.83 15.47 14.742 17.8 25.675 19.73 8.028 1.45 12.965-5.75 14.434-10.58 1.5-4.62 1.276-10.86-2.79-14.47zm20.33-36.35c-7.2-10.72-36.158-17.47-42.545-6.42-4.69 8.03-7.605 19.4 1.176 24.81 9.22 5.63 20.122 9.02 30.85 7.09 10.1-1.75 15.2-18.34 10.52-25.48zm15.41-66.34c4.16-6.53 7.04-15.34.89-23.5-5.53-7.45-25.37-10.92-35.532-8.47-5.54 1.35-8.15 8.12-9.016 12.72-1.203 6.14-1.758 12.37 3.69 17.38 7.91 7.21 18.368 7.08 28.458 7.08 4.11 0 9.97-2.72 11.51-5.21zm-5.71 22.28c-6.19-11.35-27.12-12.84-36.51-11.56-6.65.9-11.282 11.58-11.106 20.5.058 4.58 1.492 7.67 4.672 9.32 10.422 5.64 21.113 9.35 32.354 7.58 10.93-1.77 15.21-17.27 10.59-25.84zm-110.108 24.43c-7.074 21.89 20.25 28.78 36.168 25.41 11.117-2.34 14.847-23.69 4.468-30.39-12.77-8.31-35.433-11.02-40.636 4.98zm-41.188-53.73c8.192 8.43 22.965 8.95 34.477 7.41 7.106-.98 10.15-8.16 11.134-15.94 2.78-21.34-25.934-24.97-39.59-19.98-8.977 3.3-13.684 20.6-6.02 28.51zm-5.79 41.43c8.532 10.03 22.888 12.43 34.724 9.16 7.254-1.97 10.613-10.41 10.402-19.87-.113-5.38-3.773-9.29-7.098-10.66-8.42-3.42-18.16-5.95-27.367-4.85-11.375 1.41-18.257 17.25-10.66 26.22zm1.372 45.08c10.492 4.31 30.106 8.16 33.422-6.89 4.453-20.03-19.152-23.3-31.79-19.83-9.68 2.69-11.483 22.75-1.632 26.72zm75.723 33.1c7.866-4.51 9.49-17.08 4.686-24.38-6.363-9.69-28.093-15.32-39.804-6.82-6.7 4.85-10.278 24.68 3.41 29.47 10.914 3.84 21.426 7.57 31.707 1.73zm-11.165 14.36c-8.914-5.51-21.633-7.72-30.117-3.01-7.344 4-7.036 14.74-3.418 20.52 6.02 9.63 20.87 10.67 31.144 7.66 8.856-2.61 12.184-19.04 2.39-25.17zm-72.28 15.67c.913 2.88 2.147 3.71 3.944 4.57 7.483 3.58 15.733 4.55 22.936-.1 5.196-3.31 4.746-11.06.9-15.12-5.65-5.9-17.052-6.12-24.368-2.26-4.743 2.45-4.938 8.29-3.414 12.91zm2.4-31.33c3.337 9.46 15.145 8.94 24.087 7.8 11.047-1.45 13.223-15.58 9.308-21.5-5.406-8.22-17.742-6.66-27.554-5.38-8.028 1.02-8.508 11.62-5.84 19.08zm155.485-285.2c2.73-10.72 0-20.91-9.5-24.32-12.25-4.33-28.816-10.66-38.6-4.04-11.208 7.5-16.595 28.82-3.75 37.16 15.194 9.92 45.44 16.47 51.85-8.8zm-16.508 33.29c-8.203-9.35-21.66-9.02-34.847-12.89-5.067-1.47-11.14 3.01-13.77 7.63-4.87 8.72-9.757 20.39-.425 28.79 7.746 7.07 18.253 6.49 27.765 9.27 4.27 1.31 9.434 2.79 14.625-.68 10.68-7.3 14.81-22.93 6.652-32.12zm87.298 140.15c2.34-6.81 5.44-11.8 2.82-18.58-3.12-8.32-11.22-9.44-18.78-12.21-7.09-2.54-18.87-5.8-24.78.41-6.81 7.02-9.58 21.41-1.41 27.52 10.56 7.86 36.6 18.75 42.15 2.86zm143.32 61.16c6.2 25.39 13.93 51.16 15.87 77.99 2.87 40.07-5.81 81.71-31.47 112.1 2.52-13.09 5.88-24.17 7.61-37.9 2.12-16.59-.23-35.08-4.52-51.77-3.25-12.65-8.92-24.92-14.59-36.66-6.65-13.94-16.64-29.07-26.55-41.45-27.8-34.6-71.15-102.08-71.15-102.08s-3.61.29-5.79.29c-.51 8.39 19.45 37.21 29.54 53.34 22.08 35.32 38.79 54.35 58.05 85.01 12.01 19.35 21.21 42.86 24.16 64.14 5.97 43.44-17.44 95.51-51.13 112.8 7.71-32.42 6.95-78.16-10.36-97.38-32.69-36.45-52.14-63.72-75.43-110.38-.7-1.28-6.15 6.3-10.64 9.24-5.05 3.36-2.26 13.34-4.03 20.09-1.68 5.75-4.35 10.16-5.17 11.16-6.9 8.44-13.59 8.97-15.04 11.5-1.66 2.86-.84 10.03-6.89 18.12-3 4.13-10.69 7.15-13.79 11-3.37 4.22-4.9 17.06-14.2 22.33-4.422 2.48-6.465 10.2-10.722 13.94-13.102 11.61-26.18 9.34-28.676 10.1-3.367.92-9.91 9.28-21.617 11.28-11.418 1.94-17.707-5.71-23.696-2.92-14.864 6.88-29.11 7.44-44.973-10.19-4.715-5.27-12.93-.33-23.18-8.2-9.035-6.85-9.18-13.19-13.746-14.02-8.628-1.65-15.038-8.54-18.374-16.03-1.688-3.88-3.008-11.7-4.004-16.89-1.418-7.09-5.027-13.69-5.12-18.94-.075-7.23 2.245-11.16 1.616-14.44-1.11-4.73-4.875-9.06-5.344-13.47-.363-2.49-.547-9.11 1.227-12.88 2.31-4.65-1.59-8.65-3.61-13.57-1.932-4.56-3.96-12.4-3.358-17.97.84-7.56 5.195-10.35 1.813-16.32-5.58-9.72-12.555-24.88-.297-44.27 2.28-3.53-5.11-10.41-5.536-20.54-.464-10.96 6.14-19.11 7.97-23.99.363-1.77-2.923-1.63-3.024-3.51-29.235 30.88-55.086 59.35-88.946 86.18-20.738 16.39-41.21 30.15-64.156 42.41-61.258 32.91-132.468 54.9-196.965 46.84 24.302-19.56 54.915-33.53 79.92-55.72 23.613-21.05 45.07-39.04 66.597-61.42 33.777-35.11 61.227-70.71 89.863-111.98 8.473-12.23 14.098-20.43 22.004-33.18 7.96-12.76 16.87-26.33 24.09-38.98 36.61-63.56 66.645-122.45 97-187.57 8.41-18.03 15.52-36.91 23.78-54.78 2.185-4.85 5.376-1.28 7.58 0 11.007 6.36 22.683 11.67 34.066 17.05 9.117 4.14 17.398 7.03 25.492 10.19 20.54 7.82 40.035 12.04 61.55 16.49 35.938 7.56 100.448 6.03 100.448 6.03l122.38.03h3.28c-1.24 35.08-9.56 69.11-11.58 104.29-1.6 28.53-.65 56.05.35 84.63 2.75 77.33 14.12 160.37 31.42 230.83M395.168 2295.14c-23.883-23.81-31.027-32.58-44.918-58.9-8.215-15.43-18.602-35.31-21.613-60.94 49.074 18.72 89.097 56.82 125.254 98.9 26.762 31.21 47.49 72.62 73.864 103.43-46.453-15.58-95.465-45.51-132.586-82.49"></path><path d="M254.71 2228.24c18.505 31.24 44.978 65 72.423 88.04-12.72-28.55-28.37-56.85-33.758-90.69-10.684-67.22-20.72-114.38-31.89-175.79 30.48 21.78 62.663 55.97 95 79.85 25.038 18.33 50.074 30.65 75.804 48.3 15.26 10.51 25.194 24.07 37.905 36.75-15.144-63.85-71.125-128.28-111.254-158.29-50.4-37.77-68.46-43.83-149.413-126.16-10.312 101.68-8.468 207.32 45.184 297.99"></path><path d="M89.54 1890.55c3.745 52.8 10.065 95.05 22.937 146.52 8.96 35.99 28.335 89.55 56.23 111.51-3.418-13.06-5.23-32.61-6.56-45.81-5.467-54.42 4.986-117.58 6.193-171.9.613-26.73.398-47.32-3.59-72.46-4.168-26.26-.72-58.61-.72-58.61s14.45 16.49 27.31 37.01c28.168 44.73 37.156 57.99 59.86 82.22 28.097 30.02 59.597 57.85 95.14 82.47-4.305-16.68-22.434-49.12-29.97-62.19-9.975-17.47-14.495-33.3-38.194-72.85-33.305-55.56-48.14-63.03-85.117-122.45-8.044-12.9-40.872-62.06-48.818-77.09-17.347 35.89-23.867 67.21-45.148 125.55-13.332 36.72-11.34 73.41-9.555 98.08"></path><path d="M38.07 1615.91c-20.078 52.05-29.29 100.36-36.097 155.23-4.13 33.51-2.196 78.25 9.746 110.51 3.175-7.87 9.57-27.87 10.448-30.85 8.898-30.01 12.648-44.37 25.066-73.25 9.55-22.21 21.145-39.86 33.633-61.77 11.317-20 20.903-46.32 29.113-66.44 26.368-64.55 28.32-125.02 38.375-131.59 7.266 15.55 9.56 30.4 10.333 37.73 7.87 71.43 17.29 136.37 107.246 220.62 8.265-25.11 4.054-71.29-.895-96.05-10.76-54.14-19.458-80.12-43.247-132.54-12.61-27.65-29.465-68.28-34.05-81.76-12.095-35.03-16.204-53.42-23.83-74.14-42.475 70.73-94.757 143.84-125.843 224.3"></path><path d="M108.137 1290.29c-30.246 42.09-41.297 63.28-60.965 108.1-16.53 37.55-21.305 51.5-30.934 93.59-5.297 22.95-8.28 43.8-4.2 57.32 23.716-42.83 39.868-90.85 70.814-126.35 24.57-28.23 48.28-52.3 67.828-76.06 29.965-36.65 53.617-71.22 82.402-109.31 2.426 19.14 3.363 38.39-.934 69.66-5.855 42.88-2.27 78.02 5.235 119.57 9.48 52.61 16.426 78.71 34.73 131.97 22.3-43.85 22.223-94.56 27.864-141.09 10.82-90.16-17.41-197.71-22.938-242.56-1.48-11.8.554-40.97 1.136-52.37-42.176 33.23-79.723 66.87-116.15 103.32-16.588 16.55-39.31 43.96-53.89 64.21"></path><path d="M268.09 959.48c-19.207 13.82-70.856 53.35-95.293 84.42-35.606 45.18-43.438 64.57-66.918 116.55-2.884 6.28-16.16 35.82-17.232 55.76 76.965-92.89 145.848-106.7 219.227-183.8 26.926-28.26 54.53-54.82 69.043-68.19 11.187-10.22 25.09-13.43 25.09-13.43s-1.45 19.89-8.703 33.66c-48.95 93.61-58.192 191.44-50.785 296.39 22.367-27.64 29.394-46.13 43.574-72.84 15.453-29.17 23.316-47.25 30.54-65.15 41.85-104.31 52.796-224.74 78.682-285.338-79.93 26.847-142.87 41.27-227.226 101.968"></path><path d="M595.852 713.39c-21.664-1.402-63.993-1.28-86.63 2.42-114.374 18.22-220.726 101.13-274.17 192.28 48.47-29.668 83.546-49.39 126.178-64.15 37.993-13.19 74.036-17.08 137.446-35.042 38.242-10.79 76.148-26.148 89.445-31.117 42.427-15.768 60.247-11.89 60.247-11.89s0 6.5-15.812 23.7c-31.598 34.55-43.13 42.73-69.15 69.21-8.5 8.76-28.046 38.54-38.007 58.278-28.04 55.863-31.14 100.672-56.804 162.072 93.578-55.03 139.133-130.76 188.574-226.35 15.2-29.27 35.82-63.128 54.586-81.698 12.64-12.383 30.43-31.41 30.43-31.41s-13.008-3.05-53.637-9.032c-18.242-2.69-57.043-14.75-92.695-17.27M1049.29 706.18c49.44-8.04 93.28-20.13 138.2-35.57 12.09-4.122 30.48-13.212 43.2-19.7 31.83-16.148 50.17-26.68 77.53-45.46 44.05-30.348 91.39-63.11 134.09-112.75.92-.98 7.81-8.302 3.23-11.93-8.35-6.59-28.99-15.872-35.88-9.84-39.09 34.808-37.12 45.89-84.48 88.78-12.1 10.92-30.46 26.31-52.37 41.26-21.4 14.632-47.24 30.57-71.24 42.518-21.78 10.73-55.39 13.91-74.28 13.91l.28-.117c-8.59.29-57.86.54-69.25-.12-96.793-6.66-92.09-15.332-147.89-30.52-45.91-12.39-95.164-21.27-144.06-27.87-50.108-6.81-94.886-7.65-141.882-2.84-63.63 6.59-133.28 24.3-185.218 57.76 47.5-.81 96.29-9.92 143.562-6.25 19.906 1.47 52.172 4.458 74.03 11.2 43.42 13.38 68.34 18.54 114.314 31.348 39.523 11.082 79.316 14.774 120.605 19.192 57.11 6.082 109.98 4.742 157.51-3M1934.51 2295.14c23.89-23.81 31.06-32.58 44.95-58.9 8.2-15.43 18.59-35.31 21.61-60.94-49.11 18.72-89.09 56.82-125.28 98.9-26.77 31.21-47.46 72.62-73.85 103.43 46.46-15.58 95.47-45.51 132.57-82.49"></path><path d="M2075 2228.24c-18.53 31.24-44.99 65-72.43 88.04 12.83-30.76 31.53-69.03 33.75-90.69 6.83-67.7 20.72-114.38 31.9-175.79-30.47 21.78-62.7 55.97-95.07 79.85-24.94 18.33-50 30.65-75.7 48.3-15.3 10.51-25.23 24.07-37.95 36.75 15.15-63.85 71.13-128.28 111.25-158.29 50.41-37.77 68.47-43.83 149.36-126.16 10.32 101.68 8.51 207.32-45.11 297.99"></path><path d="M2240.16 1890.55c-3.83 52.8-10.04 95.05-22.93 146.52-8.96 35.99-28.34 89.55-56.27 111.51 3.45-13.06 5.24-32.61 6.58-45.81 5.51-54.42-4.94-117.58-6.19-171.9-.6-26.73-.39-47.32 3.58-72.46 4.18-26.26.74-58.61.74-58.61s-14.44 16.49-27.34 37.01c-28.1 44.73-37.1 57.99-59.87 82.22-28.06 30.02-59.59 57.85-95.13 82.47 4.33-16.68 22.46-49.12 30-62.19 10.01-17.47 14.48-33.3 38.2-72.85 33.29-55.56 48.12-63.03 85.08-122.45 8.04-12.9 40.91-62.06 48.84-77.09 17.37 35.89 23.87 67.21 45.16 125.55 13.36 36.72 11.37 73.41 9.55 98.08"></path><path d="M2291.63 1615.91c20.07 52.05 29.26 100.36 36.11 155.23 4.14 33.51 2.17 78.25-9.75 110.51-3.17-7.87-9.56-27.87-10.45-30.85-8.92-30.01-12.64-44.37-25.04-73.25-9.57-22.21-21.27-39.86-33.67-61.77-11.32-20-20.9-46.32-29.15-66.44-26.34-64.55-28.29-125.02-38.34-131.59-7.29 15.55-9.57 30.4-10.32 37.73-7.91 71.43-17.3 136.37-107.25 220.62-8.29-25.11-4.06-71.29.86-96.05 10.79-54.14 19.53-80.12 43.28-132.54 12.6-27.65 29.46-68.28 34.08-81.76 12.02-35.03 16.16-53.42 23.83-74.14 42.45 70.73 94.73 143.84 125.81 224.3"></path><path d="M2221.57 1290.29c30.27 42.09 41.29 63.28 60.95 108.1 16.55 37.55 21.24 51.5 30.95 93.59 5.3 22.95 8.27 43.8 4.18 57.32-23.6-42.83-39.89-90.85-70.83-126.35-24.53-28.23-48.24-52.3-67.8-76.06-29.93-36.65-53.64-71.22-82.39-109.31-2.42 19.14-3.4 38.39.89 69.66 5.88 42.88 2.3 78.02-5.17 119.57-9.51 52.61-16.47 78.71-34.76 131.97-22.27-43.85-22.21-94.56-27.87-141.09-10.85-90.16 17.45-197.71 22.97-242.56 1.46-11.8-.58-40.97-1.16-52.37 42.17 33.23 79.72 66.87 116.15 103.32 16.58 16.55 39.27 43.96 53.89 64.21"></path><path d="M2061.64 959.48c19.18 13.82 70.83 53.35 95.26 84.42 35.6 45.18 43.45 64.57 66.93 116.55 2.84 6.28 16.16 35.82 17.23 55.76-76.97-92.89-145.86-106.7-219.24-183.8-26.91-28.26-54.47-54.82-69.02-68.19-11.19-10.22-25.09-13.43-25.09-13.43s1.44 19.89 8.66 33.66c48.98 93.61 58.22 191.44 50.78 296.39-22.3-27.64-29.37-46.13-43.53-72.84-15.43-29.17-23.32-47.25-30.51-65.15-41.89-104.31-52.87-224.74-78.75-285.338 79.98 26.847 142.9 41.27 227.28 101.968"></path><path d="M1733.85 713.39c21.69-1.402 64-1.28 86.66 2.42 114.37 18.22 220.69 101.13 274.14 192.28-48.51-29.668-83.59-49.39-126.19-64.15-38.01-13.19-74.02-17.08-137.4-35.042-38.28-10.79-76.17-26.148-89.48-31.117-42.43-15.768-60.25-11.89-60.25-11.89s0 6.5 15.8 23.7c31.61 34.55 43.21 42.73 69.13 69.21 8.53 8.76 28.08 38.54 38.04 58.278 28.04 55.863 31.13 100.672 56.84 162.072-93.58-55.03-139.22-130.76-188.64-226.35-15.19-29.27-35.78-63.128-54.53-81.698-12.63-12.383-30.45-31.41-30.45-31.41s13-3.05 53.72-9.032c18.16-2.69 56.94-14.75 92.61-17.27M1280.41 706.18c-49.41-8.04-93.24-20.13-138.19-35.57-12.13-4.122-30.49-13.212-43.21-19.7-31.82-16.148-50.11-26.68-77.52-45.46-44.088-30.348-91.373-63.11-134.088-112.75-.925-.98-7.85-8.302-3.246-11.93 8.38-6.59 29.06-15.872 35.8-9.84 39.15 34.808 37.11 45.89 84.574 88.78 12.05 10.92 30.41 26.31 52.37 41.26 21.43 14.632 47.21 30.57 71.23 42.518 21.74 10.73 55.42 13.91 74.28 13.91l-.31-.117c8.62.29 57.87.54 69.28-.12 96.81-6.66 92.08-15.332 147.86-30.52 45.94-12.39 95.2-21.27 144.09-27.87 50.08-6.81 94.9-7.65 141.88-2.84 63.64 6.59 133.27 24.3 185.19 57.76-47.47-.81-96.23-9.92-143.56-6.25-19.91 1.47-52.15 4.458-74 11.2-43.44 13.38-68.36 18.54-114.31 31.348-39.52 11.082-79.33 14.774-120.6 19.192-57.12 6.082-110 4.742-157.52-3M1103.67 2834.64l-86.95-322.91h-92.31l-57.785 210.34-56.41-210.34h-92.113l-86.95 322.91h86.907l49.514-222.26 59.578 222.26h83.078l56.508-222.26 52.032 222.26h84.9M1390.51 2772.18H1242v-60.06h137.68v-62.46H1242v-137.93h-82.86v322.91h231.37v-62.46M1628.38 2730.85c0 9.1-2.46 16.92-7.36 23.46-4.92 6.6-10.64 11.15-17.13 13.74-8.69 3.5-17.13 5.36-25.38 5.74-8.24.37-19.2.54-32.93.54h-14.34v-96.47h23.85c14.17 0 25.84.82 35.04 2.58 9.19 1.7 16.91 5.22 23.08 10.37 5.35 4.65 9.22 10.15 11.62 16.57 2.38 6.4 3.55 14.22 3.55 23.47zm86.14 1.86c0-14.49-2.58-28.61-7.62-42.41-5.04-13.78-12.29-25.41-21.67-34.78-12.9-12.73-27.23-22.36-43.04-28.84-15.86-6.48-35.53-9.75-59.11-9.75h-51.84v-105.2h-83.25v322.91h137.04c20.56 0 37.85-1.8 51.95-5.32 14.1-3.59 26.54-8.84 37.42-15.96 12.98-8.5 22.89-19.45 29.81-32.74 6.87-13.28 10.31-29.27 10.31-47.91M498.707 257.87L440.652 70.53h-63.765l-38.16 126.232-37.692-126.23h-64.39l-57.55 187.34h62.983l32.164-129.07 39.977 129.07h53.206l38.008-129.07 31.6 129.07h61.673M649.16 286.07h-4.476c-2.696.692-6.153 1.59-10.442 2.59-4.222.988-8.832 1.55-13.715 1.55-11.754 0-19.69-2.09-23.88-6.4-4.124-4.18-6.182-12.31-6.182-24.5v-1.44h46.16v-40.73h-44.168V70.53h-60.262v146.61h-25.648v40.73h25.648V263c0 22.86 6.125 40.078 18.31 51.578 12.175 11.48 30.57 17.113 55.276 17.113 8.884 0 16.974-.268 24.216-.928 7.176-.543 13.566-1.364 19.164-2.364V286.07M788.516 165.488c0 18.25-3.086 31.403-9.313 39.684-6.18 8.18-16.043 12.258-29.44 12.258-5.685 0-11.517-.88-17.482-2.508-5.98-1.75-11.71-4.274-17.14-7.453v-94.06c3.98-1.61 8.266-2.6 12.798-2.988 4.585-.512 9.07-.71 13.503-.71 15.84 0 27.705 4.667 35.42 13.878 7.773 9.332 11.656 23.25 11.656 41.898zm61.898 1.23c0-15.366-2.37-29.5-7.05-42.18-4.743-12.686-10.954-23.05-18.583-31.34-8.018-8.686-17.042-15.18-27.167-19.667-10.125-4.5-20.937-6.702-32.51-6.702-10.615 0-19.697 1.133-27.13 3.492-7.48 2.24-15.06 5.4-22.832 9.48V1.853h-60.2v256.02h60.2v-19.513c9.22 7.27 18.626 13.21 28.243 17.812 9.57 4.598 20.664 6.828 33.242 6.828 23.332 0 41.457-8.578 54.367-25.64 12.97-17.188 19.422-40.688 19.422-70.64M878.855 70.53h62.398v65.54h-62.398zM1100.66 118.55c3.87 4.802 6.78 10.56 8.73 17.302 1.94 6.738 2.91 15.988 2.91 27.867 0 11.09-.99 20.26-2.99 27.76-2 7.372-4.78 13.31-8.33 17.82-3.55 4.59-7.84 7.778-12.83 9.68-4.99 1.9-10.38 2.848-16.17 2.848-5.79 0-10.96-.808-15.45-2.398-4.49-1.49-8.82-4.59-12.9-9.29-3.7-4.39-6.62-10.33-8.77-17.8-2.19-7.602-3.26-17.14-3.26-28.62 0-10.18.94-19.04 2.84-26.58 1.9-7.538 4.64-13.55 8.33-18.038 3.55-4.403 7.82-7.532 12.76-9.532 4.93-2 10.61-2.992 16.95-2.992 5.44 0 10.66.922 15.6 2.774 4.93 1.73 9.12 4.91 12.58 9.2zm73.9 45.58c0-30.85-9.02-55.15-26.93-72.85-17.97-17.73-43.21-26.59-75.65-26.59-32.5 0-57.68 8.86-75.652 26.59-17.973 17.7-26.926 42-26.926 72.85 0 30.93 9.004 55.3 27.078 73.07 18.07 17.68 43.25 26.52 75.5 26.52 32.7 0 57.92-8.888 75.79-26.78 17.88-17.76 26.79-42.07 26.79-72.81M1336.27 200.61h-5.33c-2.54.902-6.62 1.6-12.3 1.992-5.69.507-10.36.718-14.14.718-8.58 0-16.1-.62-22.62-1.71-6.58-1.098-13.6-2.99-21.18-5.7V70.53h-60.2v187.34h60.2v-27.49c13.2 11.268 24.72 18.83 34.47 22.58 9.77 3.75 18.74 5.5 26.95 5.5 2.09 0 4.49-.05 7.18-.14 2.64-.11 4.98-.26 6.97-.45v-57.26M1475.18 129.53v84.91c-3.5 1.49-7.68 2.62-12.66 3.47-5.03.86-9.51 1.22-13.49 1.22-15.74 0-27.55-4.57-35.48-13.61-7.86-9.02-11.81-21.68-11.81-37.96 0-17.95 3.37-30.54 10.1-37.62 6.72-7.21 16.66-10.69 29.86-10.69 5.98 0 11.86.95 17.63 2.852 5.78 1.886 11.07 4.328 15.85 7.43zm60.2-37.49c0-17.56-2.5-32.34-7.54-44.32-5-12.09-11.98-21.41-21.02-28.19-8.98-6.9-19.84-11.97-32.56-15.018C1461.53 1.47 1447.12 0 1431.1 0c-12.97 0-25.84.69-38.4 2.3-12.64 1.59-23.59 3.5-32.83 5.68v46.88h7.32c7.33-2.9 16.31-5.57 26.82-7.91 10.57-2.45 20-3.622 28.32-3.622 11.12 0 20.17 1.024 27.1 3.063 6.92 2.05 12.24 4.97 15.87 8.77 3.44 3.602 5.99 8.192 7.54 13.66 1.54 5.61 2.34 12.3 2.34 20.078v3.442c-7.24-5.89-15.27-10.59-24.04-13.96-8.77-3.52-18.55-5.142-29.32-5.142-26.17 0-46.42 7.883-60.62 23.653-14.22 15.77-21.34 39.83-21.34 72.08 0 15.47 2.2 28.74 6.53 40.03 4.34 11.172 10.41 20.96 18.28 29.36 7.35 7.78 16.39 13.808 27.11 18.1 10.72 4.41 21.66 6.54 32.89 6.54 10.12 0 19.32-1.16 27.6-3.61 8.27-2.35 15.78-5.62 22.56-9.91l2.15 8.39h58.4V92.04M1750.67 330.102l-132.29-313.57h-51.21l131.75 313.57h51.75M1918.22 188.352c-.35 12.457-3.45 21.95-9.33 28.347-5.9 6.27-15.08 9.41-27.56 9.41-11.53 0-21.07-2.99-28.5-8.97-7.43-6-11.63-15.628-12.53-28.788zm59.7-35.32H1840.5c.89-14.66 6.46-25.84 16.75-33.634 10.27-7.79 25.43-11.68 45.45-11.68 12.68 0 24.95 2.243 36.88 6.84 11.88 4.59 21.26 9.48 28.16 14.672h6.68V81.06c-13.58-5.49-26.35-9.43-38.39-11.822-11.97-2.508-25.24-3.7-39.82-3.7-37.59 0-66.39 8.372-86.41 25.353-20.01 16.88-30.05 40.99-30.05 72.24 0 30.83 9.51 55.32 28.48 73.448 18.91 18.012 44.95 27.14 77.95 27.14 30.49 0 53.4-7.73 68.73-23.148 15.33-15.44 23.01-37.51 23.01-66.46v-21.08M2165.99 129.94c0-19.38-8.63-34.97-26-46.81-17.33-11.82-41.08-17.732-71.24-17.732-16.67 0-31.79 1.48-45.37 4.57-13.57 3.223-24.46 6.602-32.69 10.403v49.42h5.55c2.98-2.22 6.44-4.47 10.39-7.028 3.94-2.434 9.55-5.16 16.75-8.063 6.23-2.48 13.32-4.77 21.21-6.61 7.9-1.738 16.33-2.65 25.37-2.65 11.77 0 20.51 1.26 26.14 3.912 5.7 2.527 8.55 6.398 8.55 11.5 0 4.59-1.71 7.957-5.06 10.007-3.28 2.05-9.62 4.01-19 5.91-4.45 1-10.47 2.07-18.1 3.218a210.85 210.85 0 0 0-20.74 4.223c-17.02 4.49-29.66 11.4-37.89 20.85-8.19 9.32-12.33 21.022-12.33 35.1 0 17.97 8.51 32.91 25.62 44.95 17.03 11.93 40.37 17.89 69.97 17.89 14.02 0 27.44-1.352 40.26-4.2 12.88-2.86 22.88-5.87 30.12-9.17v-47.31h-5.19c-8.89 6.07-19.04 11.05-30.42 14.88-11.38 3.85-22.94 5.77-34.62 5.77-9.69 0-17.79-1.28-24.43-3.99-6.59-2.69-9.91-6.492-9.91-11.39 0-4.38 1.5-7.828 4.5-10.11 2.99-2.42 10.07-4.71 21.15-7 6.15-1.308 12.71-2.48 19.8-3.62 7.04-1.14 14.15-2.67 21.23-4.348 15.83-4.21 27.51-10.62 35.04-19.46 7.6-8.833 11.34-19.95 11.34-33.11"></path></g></svg>