<svg xmlns="http://www.w3.org/2000/svg" viewBox="0 0 1763.6133 377.94666" height="377.947" width="1763.613"><defs><clipPath id="a"><path d="M0 0h13227v2834.6H0z"></path></clipPath></defs><g clip-path="url(#a)" fill="#fff" transform="matrix(.13333 0 0 -.13333 0 377.947)"><path d="M1340.52 2131.09c12.48 27.05 24.07 48.64 40.77 74.3 7.36 11.31 15.68 19.2 23.14 30.68-3.59 1.02-8.74-1.91-10.99-3.49-7.41-5.38-10.77-14.13-16.7-18.83-14.05-11.04-13.64-21.09-21-26.29-6.6-4.61-8.44-7.64-13.07-14.87-3.06-4.83-5.34-8.74-8.56-18.21-1.19-3.43-3.45-.4-8.96-7.97-7.15-9.81-10.39-20.36-13.37-32.27-.96-3.89-7.61-5.94-11.84-14.07-5.73-10.91-9.48-21.03-11.94-36.92-.6-3.71-6.85-6.26-11.16-16.53-3.04-7.24-5.2-8.83-7.9-22.46-1.62-8.3-5.42-9.54-9.71-21.56-3.26-9.21-3.41-18.06-4.55-30.1-.29-2.34-4.23-6.94-7.84-13.68-6.11-11.27-5.88-18.77-8.32-30.4-.92-4.22-5.65-9.77-10.18-27.8-3.97-15.99-.35-26.55-1.65-34.47-3.57-20.4-7.07-38.2-5.17-58.33.94-9.84 2.44-20.01 1.81-29.46-1.89-29.71-3.48-54.17-3.34-87.83.1-18.35 1.53-43.42 4.32-64.31 3.03-23.05 7.43-41.06 7.43-41.06h75.14s-2.93 43.45.97 89.16c2.31 27.45 8.82 56.49 14.74 76.91 7.49 26.02 12.18 39.51 26.37 73.84.32.78-.09 3.97-3.86.84-7.83-6.61-14.35-12.35-20.56-21.71-9.44-14.25-15.2-25.99-22.88-40.63-8.94-17.02-13.86-31.83-23.09-52.49-.55 14.9 1.88 29.09 4.89 42.88 3.09 14.01 5.56 25.13 9.96 37.24 7.84 21.37 15.45 39.16 28.03 59.04 7.29 11.45 16.58 21.74 26 30.32 11.28 10.31 21.73 19.38 33.56 29.48-12.44 6.39-28.99-6.96-32.26-7.62-17.48-3.4-24.61-19.65-29.97-21.84-7.61-3.22-12.04-7.87-17.35-14.31-4.12-4.86-5.31-12.37-9.61-15-7.14-4.44-12.35-11.16-17.25-20.5-2.01-3.87-7.52-22.11-13.6-19.81 10.4 61.93 32.28 120.02 67.38 171.72 22.22 32.77 46.45 60.9 82.11 86.08 4.72 3.35 5.65 4.89-.95 4.68-33.33-4.03-35.35-19.3-40.88-20.74-5.17-1.3-11.62-7.5-15.76-11.5-7.4-7.32-7.28-13.51-10.14-15.45-6.06-4.2-10.63-8.66-14.8-16.02-2.16-3.81-5.86-12.3-9.12-14.23-8.53-4.95-16.83-12.2-20.99-20-3.04-5.66-4.23-11.87-8.26-17.45-4.23-6.05-10.19-10.55-15.34-14.91 3.91 26.46 16.38 57.8 24.95 84.88 11.56 36.12 25.53 68.95 41.35 103.07M1417.22 1916.6c28.44 63.82 58.35 111.9 97.26 168.11 5.1 7.36 9.65 14.58 14.08 21.48 2 3.09 11.58 16.83 13.57 19.74 13 19.73 18.52 25.73 31.86 44.57 3.59 5.09 6.52 9.09 8.04 15 2.86 11.04-6.58 18.41-8.74 29-2.21 10.79-1.04 22.55 3.96 31.68 3.09 5.66 6.15 7.92 9.31 15.58 6.04 14.72 3.96 46.58 10.86 47.43-1.77-15.13-2.19-32.14.2-46.67 2.78-16.94 13.06-27.2 17.3-45.09 11.41 2.05 23.84 1.56 33.42.71 9.57-.78 21.63 1.85 31.44 5.21 13.25 4.51 24.24 12.77 37.77 15.99-11.52-11.07-27.73-15.24-41.34-23.62-4.98-3.12-9.72-7.3-13.01-12.43-5.52-8.53-9.79-16.63-18.37-20.39-15.19-6.65-28.24-3.47-45.56-6.72-25.77-26.52-50.03-62.61-72.42-100.58-56.72-95.95-104.02-195.36-131.52-297.3 9.53 17.77 18.6 34.91 28.89 51.76 11.42 18.77 24.21 37.09 38.14 55.48 32.66 43.05 64.96 80.63 101.18 120.18 29.2 31.99 61.25 58.8 96.95 81.18 47.22 29.59 105.43 50.28 156.59 39.64 5.83-1.37 14.14-2.91 17.75-6.75-64.1 8.96-121.55-13.44-164.41-47.75-33.84-27.06-62.35-54.58-91.39-90.28-14.94-17.2-28.43-36.12-41.8-54.42-14.03-19.3-26.48-39.55-38.79-59.86-41.54-68.58-72.97-141.23-96.13-216.49-.64-2.38-.77-4.79-1.47-7.17 1.15 1.66 2.75 3.52 3.82 5.26 31.15 50.57 68.58 99.42 115.99 132.23 4.12 2.79 8.45 8.21 9.54 12.5 5.15 20.08-10.19 29.75 11.03 57.53 4.86 6.38 11.47 8.71 16.09 14.63 8.67 13.39 15.74 37.44 23 43.88-3.68-15.64-12.62-32.15-14.55-48.27-2.01-17.67 2.49-32.15 3.3-50.87 12.49-1.74 22.18-7.04 32-10.06 15.31-4.79 24.45-3.55 39.57-2.22 6.49.54 18.19 4.27 25.14 2.87-14.62-7.99-34.35-6.52-49.3-14.12-10.49-5.36-13.51-13.31-27.9-16.06-12.88-2.49-23.67-1.19-32.01 3.1-6.48 3.3-11.53 4.67-17.36 1.87-15.57-7.46-26.2-18.03-38.74-30.66-29.05-29.28-52.81-61.94-74.94-104.73a557.082 557.082 0 0 1-16.13-34.28c-2.46-5.63-8.6-21.3-8.6-21.3h-75.96s-.23 21.91.52 29.89c1.46 15.96 3.59 27.76 6.68 43.93 4.41 23.28 8.73 44.38 14.79 66.93 5.88 21.96 12.22 42.55 19.72 63.64 15.71 43.95 32.39 86.1 50.68 127.09M682.535 1324.76c27.742 22.64 48.277 35.85 75.985 52.37 11.242 6.74 28.257 14.35 41.308 20.28 48.016 21.67 111.496 37.6 171.27 38.68 1.074 0 1.01-.03 1.01-.03h445.952s-1.7.03 1.55.03c14.18 0 28.23-4.92 36.89-13.07 8.71-8.33 12.89-21.04 15.13-33.69 1.93-10.78.98-20.27-1.52-31.83-1.96-9.18-3.44-14.54-8.48-22.29-3.11-4.73-5.99-7.92-11.69-12.5-5.86-4.71-14.16-6.26-23.7-6.34-1-.04-3.11-.2-3.04-.08.09.08-521.555.08-521.555.08s-3.266.01-4.872.01c-34.152.09-70.125-1.66-103.86-6.14-25.843-3.44-51.74-7.46-76.714-14.01-31.477-8.17-61.805-19.61-92.102-30.95 16.785 22.34 36.175 41.33 58.437 59.48"></path><path d="M837.363 1502.19c27.4 19.74 60.688 36.03 90.15 47.3 14.97 5.63 34.796 11.91 50.596 15.83 19.074 4.83 40.94 8.42 58.82 8.98 5.39.14.81.04.81.04l382.44.03s8.21-.44 11.05-.99c7.16-1.59 12.96-4.52 15.38-6.05 5.93-3.77 13.41-11.8 17.3-18.12 9.93-16.33 11.66-33.97 8.48-52.35-3.71-20.98-19.61-44.88-41.27-45.44-3.72-.08-11.27 0-11.27 0h-414.22s-24.09-.47-35.126-.88c-20.39-.82-42.965-3.11-60.734-5.76-15.258-2.16-30.09-5.05-45.317-9.11-51.094-13.77-95.473-39.72-141.887-59.79 31.258 54.52 73.567 96.43 114.797 126.31M623.422 1242.29c66.48 39.24 146.574 54.76 219.906 57.15 1.734.07 5.203.3 5.203.3l571.75-.06s1.03 0 6.22.06c34.65.03 47.31-34.46 47.12-62.21-.06-9.11-1.6-18.5-4.13-24.73-3.31-8.25-6.93-14.96-12.93-21.34-2.1-2.42-9.78-7.74-13.13-8.59-7.95-1.93-17.7-1.75-17.64-1.75.11 0-425.28-.06-425.28 0 0 0-22.92.93-38.838 2.52-11.496 1.12-20.164 2.29-32.106 4.51-29.29 5.82-53.554 15.4-78.89 23.21-16.938 5.2-34.77 9.08-53.328 11.9-34.106 5.3-71.395 7.64-105.844 4.98-43.86-3.21-82.867-11.83-124.594-25 7.074 10.97 36.39 27.14 56.512 39.05"></path><path d="M931.402 1062.96c-19.547 6.88-38.61 15.76-55.718 27.11-22.305 14.74-33.207 26.46-62.008 39.81-24.676 11.31-44.34 22.6-78.688 35.08-16.582 6.01-43.44 14.21-66.515 18.16-32.89 5.62-64.62 8-64.62 8s6.73 4.27 10.764 5.49c33.602 10.17 63.274 15.27 97.73 17.74 30.25 2.34 58.044-.61 88.36-5.36 12.473-1.96 28.64-5.8 42.695-9.81 45.618-13.06 97.493-33.64 143.563-33.71 2.547 0 2.23.04 2.23.04h426.315c12.91.03 36.96-4.11 46.63-21.25 11.2-19.66 14.68-43.11 5.29-66.57-2.86-7.04-7.6-17.1-14.41-23.3-5.95-5.35-15.65-8.86-21.24-8.86-1.65-.07-4.38 0-4.38 0h-371.76-2.01c-38.01 0-85.853 4.63-122.228 17.43M1100.73 931.11c-10.54 10.788-25.06 27.35-38.16 43.03-25.23 30.12-36.52 57.24-36.52 57.24h247.89s.69-28.6-5.06-61.708c-5.36-30.813-16.7-63.203-28.8-86.692-.45-24.12 9.73-46.51 11.38-70.26-20.32-12.52-42.24-24.95-60.52-42.5-1.15-1.048-3.04-1.048-3.78 1.85-9.78 36.7-14.96 69.352-22.95 105.578-22.64 17.493-43.81 33.05-63.48 53.46M1356.22 951.47c-7 12.92-12.25 30.08-20.32 40.202-1.7-9.03.41-14.66-.79-23.344-1.17-7.226-7.13-4.22-8.3-.848-3.48 9.93-7.2 22.04-10.36 32.09-5.28 16.89-7.01 31.76-7.01 31.76l41.28.05s1.57-.47 2.28-4.48c1.97-10.32 1.48-20.52 4.34-32.52 3.68-15.528 8.36-29.642 14.08-44.13 4.94-12.72 11.34-25.54 16.55-38.2.68-1.68 1.04-4.84-.18-6.53-1.58-1.942-4.2-1.72-5.7 0-11.8 13.44-16.58 28.582-25.87 45.95M1420.07 922.012c-7.05 14.906-16.91 31.7-16.04 48.718 4.55-5.96 6.43-10.32 12.72-13.628 2.88-.91 8.89-.05 7.38 4.957-2.79 9.292-7.07 17.292-11.08 30.088-5.92 18.912-11.68 39.212-11.68 39.212l-42.08.02s2.34-17.14 11.94-43.38c8.38-23.14 21.34-49.78 35.61-74.61 11.55-20.5 22.1-38.34 35.24-53.37 4.49-5.122 15.54-.56 10.76 6.16-12.49 17.62-24.14 37.16-32.77 55.832M1693.42 2344.86c-9.14-3.98-17.23-9.15-21.77-17.93-3.33-6.32-5.54-15.95.79-21.36 11.09-9.46 24.34.25 29.75 9.96 6.76 12.33 5.03 35.92 5.03 35.92s-7.9-4.09-13.8-6.59"></path><path d="M1703.05 2285.9c3.99 7.51 12.74 15.67 22.35 21.5 10.83 6.65 22.06 13.08 29.87 17.7 7.81 4.72 9.3 8.03 9.3 8.03s-6.43-2.24-9.94-4.31c-19.3-11.52-40.34-24.53-48.86-28.32-10.8-4.73-25.47-5.65-38.71-7.3-2.13 16.66-6.47 23.58-6.42 38.44.15 7.09 1.85 16.31 3.08 22.74 4.11 21.44 4.95 32.24 4.95 32.24s-3.3-3.03-4.47-12.45c-1.35-8.55-2.31-11.67-4.26-21.76-2.26-11.63-4.54-21.47-11.53-28.74-9.99-10.35-19.27-28.82-11.53-42.96 4.5-8.26 12.01-7.04 14.38-9.14 2.37-2.16 3.8-7.22 10.95-9.6 15.37-5.16 32.82 8.69 40.84 23.93"></path><path d="M1683.1 2241.84c5.23 8.46 10.6 14.39 18.84 19.48 13.66 8.33 23.81 13.95 32.14 18.22 3.59 1.83 6.6 3.97 7.52 7.83-3.69-1.41-17.8-8.01-31.82-16.38-10.05-5.97-27.28-13.43-38.88-13.96-4.56-.24-7.97.93-11.73 1.04-7.74.34-17.66-1.55-17.66-1.55s-2.51 10.96-5.83 18.91c-1.64 4.04-4.36 8.18-5.81 15.81-.97 5.05-1.22 12.7-.82 17.23 1.12 13.72 4.84 27.1 4.17 40.98-8.59-17.95-5.09-40.02-15.23-53.87-4.28-5.83-7.67-10.46-11.04-17.81-5.53-12.02-4.89-24.54 2.66-36.17 4.33-6.6 13.88-6.38 15.56-7.64 2.5-1.85 4.63-8.78 13.98-10.9 16.02-3.58 34.92 3.83 43.95 18.78M1687.61 1891.25c3.7 7.51 6.11 17.38 10.88 24.4-10.76-1.65-12.52-2.85-28.07-4.58-3.36-.28-10.39-3.8-12.71-6.12-6.13-6.22-11.49-11.99-9.1-22.39.92-4.03 4.49-7 6.47-7.66 12.93-4.17 26.04 3.48 32.53 16.35"></path><path d="M1700.69 1870.73c14.72 3.43 31.67 10.59 38.49 8.36-13.78-7.33-31.18-10.02-46.44-14.38-11.66-3.32-19.98-12.12-30.37-20.14-9.57-7.27-22.27-10.22-33.6-4.88-3.83 1.83-7.52 8.02-8.21 11.28-.58 2.66-6.05 5.27-8.87 7.6-2.86 2.37-4.18 8.26-4.29 10.5-.48 20.34 15.01 28.57 29.94 40.49 11.23 9.02 25.79 47.18 34.7 55.09-1.62-12.29-17.58-35.53-24.59-53.6-5.52-14.36-3.69-25.89-7.26-41.04 10.64-.66 22.56-2.91 33.29-3.07 8.41-.1 18.59 1.7 27.21 3.79"></path><path d="M1685.25 1839.33c-8.26-1.52-18.37-4.1-25.25-5.56-23.96-5.05-35.37 6.68-54.55 6.43 1.71 21.91-5.91 31.71.35 45.87 5.62 12.61 10.76 25.93 15.57 36.62 3.89 8.58 5.05 15.81 5.05 15.81s-5.81-8.68-22.28-40.86c-5.76-11.23-16.03-13.64-25.18-24.25-10.48-12.13-16.54-37.73 2.9-48.49 3.87-2.16 3.32-8.79 6.14-11.5 12.95-12.21 39.18-10.96 55.54 3.9 13.07 11.93 28.95 13.86 42.43 17.35 7.9 2.03 14.86 5.39 14.86 5.39s-3.76 1.53-15.58-.71M1205.25 1585.13c-.96 0-1.97 0 0 0zm-111.89 315.53c-8.02-10.58-11.69-22.68-20.5-31.9-4.63-4.84-11.63-2.61-15.31 2.98-4.03 6.29-10.55 15.18-5.68 21.41 7.98 10.26 24.71 16.79 38.95 14.92.85-.09 5.47-3.47 2.54-7.41zm-38.36-60.41c-4.46-11.94-17.78-13.25-29.16-15.62-2.1-.46-8.61 0-11.53 2.88-4.9 4.8-9.16 11.33-8.29 19.54.45 5.09 4.64 10.04 9.88 12.04 9.45 3.65 20.67 9.55 30.04 4.34 8.02-4.48 12.24-14.72 9.06-23.18zm-24.54-63.19c-3.28-4.74-11.65 10.92-12.73 18.11-3.16 20.74 15.08 26.05 30.25 25.42.47-12.36-9.15-31.58-17.52-43.53zm-16.41-56.05c-2.97-8.35-4.4-16.04-7.73-23.66-3.19-7.45-16.93-10.06-24.582-7.69-10.88 3.38-20.23 27.84-7.85 37.19 9.452 7.12 19.257 8.23 31.342 9.71 2.2.23 10.27-.26 10.61-.99 2.02-5.05.71-7.63-1.79-14.56zm-18.304-64.57c-2.23-6.41-3.207-13.05-6.055-19.24-1.424-3.1-3.25 1.02-3.358 1.23-4.246 10.65-6.973 19.64-3.297 29 2.055 5.21 9.117 9.99 15.87 10.42-.425-6.69-.897-14.93-3.16-21.41zm-21.687-31.52c-4.92 2.25-4.85 8.57-6.904 12.51-1.937 3.84-6.097 9.15-4.402 14.16 9.516-5.32 13.93-14.81 11.305-26.67zm-16.35 39.34c-11.33 9.31-12.312 24.18-19.882 35.62 8.328 5.34 22.4 4.27 26.723-6.3 3.454-8.49 5.954-20.94-2.663-27.4-.91-.72-3.117-2.82-4.176-1.92zm-42.28 76.83c-1.664 2.42-5.04 9.43-2.492 10.31 20.316 7.02 35.52 7.22 39.86-14.45 3.054-15.5-7.544-28.78-22.35-23.37-4.26 1.56-8.44 18.06-15.018 27.51zm-29.473 49.03c-1.426 1.75-2.578 7.14-.82 8.52 10.566 8.47 26.047 9.15 38.023 7.95 15.785-1.45 19.06-16.13 16.442-28.33-3.497-16.02-27.805-18.03-34.696-15.33-6.765 2.58-11.51 17.94-18.95 27.19zm3.44 56.99c13.665 8.85 39.763 15.44 44.12-8.54 1.338-7.25-.486-16.86-10.25-19.98-10-3.24-21.814-6.7-30.982-2.96-11.273 4.59-13.512 24.62-2.887 31.48zm-14.163 40.37c1.028 4.58 6.098 6.78 10.403 7.87 11.078 2.75 23.425 6.85 33.593.39 3.954-2.49 4.278-6.02 4.79-11.04.906-8.04-.274-14.65-5.598-17.73-10.77-6.32-21.707-6.88-34.246-4.42-10.172 2-10.957 15.48-8.942 24.93zm-11.328-62.19c-9.504 6.99-13.656 16.88-20.676 26.68-1.652 2.41 0 3.39 1.317 3.78 16.785 4.76 29.277-3.61 26.68-21.97-.47-3.54-2.797-11.83-7.32-8.49zm-46.386 56.61c-6.305 5.44-1.918 14.9 3.558 17.67 9.625 4.78 24.723 5.48 34.7 2.11 6.417-2.14 9.69-11.38 8.53-21.47-.48-4.11-1.734-8.69-3.757-9.99-7.628-5.22-19.398-5.4-28.66-3.48-6.535 1.36-8.878 10.35-14.37 15.16zm-7.262 57.24c6.058 13.24 28.312 13.34 40.418 7.45 9.836-4.85 11.054-23.17.293-30.41-8.56-5.73-22.1-3.65-31.224-1.95-12.906 2.39-13.934 15.11-9.488 24.91zm.496 49.57c9.226 8.79 21.16 4.77 32.29 3.24 2.132-.33 4.733-1.83 6.194-3.29 7.563-7.63 8.15-20.21-.29-26.51-9.75-7.25-21.92-2.53-33.643-1.94-3.14.11-6.614 3.84-7.367 6.24-2.094 7.41-3.387 16.45 2.816 22.26zm5.934 41.5c9.792 4.13 26.64 6 33.59-5.01 4.218-6.76 3.007-19.2-3.83-21.04-6.706-1.74-29.452-5.49-34.92 7.06-2.684 6.21-1.563 16.21 5.16 18.99zm30.17 35.3c2.85-1.28 4.583-3.56 5.27-7.04 1.364-7.53-.62-15.74-7.874-17.08-10.875-1.98-27.03-2.59-26.984 12.77.035 17.22 16.972 16.99 29.59 11.35zm-21.92 31.9c5.8 2.22 15.304 1.69 20.527-.98 2.605-1.38 6.16-5.71 4.637-10.23-1.805-5.92-7.36-8.09-13.598-8.16-6.04-.05-12.93.43-15.367 5.34-2.325 4.68-1.34 12.07 3.8 14.03zm6.777 25.76c5.297 1.93 13.13 1.76 16.97-2.39 5.276-5.8 1.124-15.01-8.912-14.55-3.507.13-7.668 1.37-9.816 2.56-5.148 2.91-3.45 12.51 1.758 14.38zm23.777 16.59c.703 2.2 4.18 4.85 6.012 5.47 3.965 1.43 8.594 1.68 12.402.17 7.625-3.1 6.586-12.49-1.547-15.8-3.63-1.48-9.22-2.43-11.946-1.48-5.12 1.71-6.547 6.14-4.922 11.64zm23.703-36.81c-8.297-2.42-19.875-2.9-22.343 5.64-4.172 14.39 14.023 16.58 23.445 13.56 6.555-2.1 8.812-16.33-1.102-19.2zm5.473 47.66c2.66 8.92 12.75 13.77 21.937 11.06 7.875-2.31 9.71-13.06 4.38-18.3-2.415-2.36-6.4-4.75-10.708-5.7-9.37-2.08-18.593 3.11-15.61 12.94zm41.285-32.79c-1.484-5.82-5.777-9.83-12.63-11.36-6.807-1.52-16.198-1.89-19.987 2.27-3.578 3.97-5.27 9.61-2.277 13.91 6.065 8.53 17.05 11.52 26.87 9.37 5.632-1.33 9.73-7.08 8.023-14.19zm-3.69 34.3c3.69 8.13 12.98 12.19 21.893 9.45 1.8-.56 5.45-3.45 5.957-6.25 1.063-5.66-.902-10.83-5.578-13.78-6.074-3.8-11.043-5.99-17.965-3.14-5.222 2.15-6.457 8.92-4.308 13.72zm38.456-22.8c4.05-6.89-2.13-13.81-5.294-15.71-6.97-4.07-16.817-6.58-21.047.34-4.138 6.79-.69 14.83 6.487 17.81 6.89 2.87 14.05 7.22 19.852-2.44zm11.6-26.37c4.54-3.73 8.535-11.7 3.075-17.93-5.157-5.95-11.543-7.68-19.58-9-5.448-.93-12.47 3.14-13.31 7.92-.83 4.18-1.61 11.72 2.534 15.25 7.995 6.84 18.753 10.79 27.28 3.76zm9.63 44.98c4.316-1.23 7.09-5.79 4.937-10.18-1.317-2.72-5.192-5.66-7.65-7.16-6.776-4.2-12.59-2.47-14.686 2.5-3.902 9.16 9.22 17.26 17.4 14.84zm16.507-22.76c4.763-.42 6.923-3.74 7.863-7.36 1.25-4.86-.33-9.36-4.48-12.14-4.89-3.27-10.957-5.19-15.832-5.26-6.62-.1-12.703 9.58-9.15 15.88 3.802 6.69 13.294 9.58 21.6 8.88zm27.283-34.92c2.83-8.28-3.27-12.14-9.67-15.55-6.48-3.47-15.21-6.67-19.715-2.34-5.773 5.43-8.328 14.54-1.906 20.59 8.9 8.36 25.4 14.65 31.29-2.7zm11.77-20.74c10.5-1.34 12.56-16.19 10.47-21.57-2.4-4.65-7.68-8.25-10.47-9.67-7.64-3.95-16.63-5.44-23.66-1.82-6.42 3.35-9.22 13.1-5.74 20.76 4.75 10.33 19.62 13.55 29.4 12.3zm21.52-46.03c3.62-5.04 2.81-13.91.71-16.7-6.63-8.99-24.96-14.17-32.56-10.45-5.77 2.83-11.41 15.52-4.71 23.1 7.04 7.89 19.24 12.62 30.36 10.29 2.44-.54 4.06-3.24 6.2-6.24zm4.67-28.41c5.01-.54 9.48-6.05 11.92-12.07 3.18-7.8-.04-16.91-2.53-18.61-6-4.1-25.06-15.55-37.08-8.68-6.57 3.75-8.41 12.41-8.83 17.56-1.34 16.47 23.75 23.23 36.52 21.8zm-70.384-118.05c-2.61 6.53-4.94 16.23.176 20.2 10.378 8.21 33.898 15.34 42.848 2.97 5.82-8.03 4.08-21.68-6.11-26.92-10.47-5.36-31-11.55-36.914 3.75zm-50.46-.75c10.468 5.31 25.5 11.7 36.738 4.46 5.11-3.31 10.422-16.97 6.797-23.01-7.69-12.86-27.984-16.15-40.84-12.83-11 2.86-14.257 25.52-2.695 31.38zm-9.364 44.49c12.598 8.85 37.46 14.58 43.426-4.79 1.543-5 2.44-10.53-.106-14.61-6.957-11.18-24.695-14.16-36.507-12.47-12.793 1.87-18.84 23.43-6.813 31.87zm-10.578 45.1c12.07 6.86 37.852 15.94 43.934-3.69 2.394-8.01 2.175-17.96-4.7-21.48-9.84-5.2-25.445-10.61-36.84-3.5-9.456 5.99-10.76 23.89-2.394 28.67zm67.668 80.99c-5.047-4.51-10.21-5.48-16.965-7.73-9.414-3.22-19.277 4.05-20.35 13.05-1.837 15.48 14.737 17.79 25.67 19.73 8.028 1.44 12.96-5.75 14.438-10.58 1.496-4.62 1.27-10.86-2.793-14.47zm20.328-36.34c-7.2-10.72-36.152-17.47-42.555-6.43-4.683 8.03-7.59 19.4 1.188 24.81 9.223 5.63 20.12 9.02 30.847 7.09 10.1-1.75 15.2-18.34 10.52-25.47zm15.41-66.35c4.16-6.54 7.04-15.35.89-23.5-5.53-7.45-25.37-10.92-35.53-8.47-5.543 1.36-8.15 8.13-9.02 12.72-1.176 6.14-1.758 12.37 3.73 17.39 7.872 7.2 18.33 7.07 28.42 7.07 4.11 0 9.97-2.72 11.51-5.21zm-5.71 22.29c-6.19-11.35-27.118-12.84-36.508-11.57-6.653.9-11.282 11.58-11.11 20.51.06 4.57 1.496 7.66 4.676 9.32 10.418 5.63 21.117 9.34 32.352 7.57 10.93-1.77 15.21-17.27 10.59-25.83zm-110.106 24.42c-7.086 21.89 20.25 28.78 36.172 25.4 11.117-2.32 14.832-23.68 4.46-30.38-12.77-8.31-35.43-11.01-40.632 4.98zm-41.188-53.73c8.14 8.43 22.97 8.95 34.473 7.41 7.108-.98 10.15-8.16 11.132-15.94 2.79-21.34-25.934-24.96-39.59-19.98-8.98 3.31-13.676 20.61-6.016 28.51zm-5.793 41.43c8.532 10.04 22.887 12.44 34.73 9.16 7.25-1.97 10.61-10.41 10.403-19.87-.12-5.38-3.8-9.29-7.1-10.66-8.474-3.42-18.177-5.95-27.372-4.84-11.375 1.4-18.254 17.24-10.66 26.21zm1.375 45.08c10.493 4.31 30.102 8.16 33.422-6.89 4.453-20.03-19.148-23.3-31.793-19.82-9.675 2.68-11.523 22.74-1.63 26.71zm75.723 33.1c7.864-4.5 9.493-17.08 4.696-24.38-6.37-9.69-28.097-15.32-39.812-6.82-6.7 4.85-10.274 24.69 3.406 29.47 10.914 3.84 21.426 7.57 31.71 1.73zm-11.167 14.37c-8.91-5.51-21.644-7.73-30.117-3.01-7.344 4-7.03 14.73-3.418 20.51 6.008 9.63 20.875 10.67 31.148 7.67 8.852-2.61 12.188-19.05 2.387-25.17zm-72.273 15.67c.91 2.87 2.14 3.7 3.94 4.57 7.49 3.58 15.735 4.54 22.94-.11 5.178-3.3 4.745-11.06.897-15.11-5.648-5.91-17.05-6.12-24.367-2.27-4.746 2.45-4.938 8.29-3.41 12.92zm2.394-31.34c3.32 9.46 15.153 8.94 24.094 7.8 11.043-1.44 13.22-15.57 9.3-21.5-5.406-8.21-17.734-6.65-27.554-5.38-8.027 1.02-8.504 11.62-5.84 19.08zm155.486-285.2c2.74-10.71 0-20.91-9.5-24.31-12.244-4.33-28.814-10.66-38.603-4.04-11.2 7.49-16.59 28.81-3.742 37.16 15.187 9.92 45.435 16.47 51.845-8.81zm-16.52 33.3c-8.185-9.35-21.645-9.02-34.83-12.89-5.073-1.48-11.148 3-13.772 7.63-4.876 8.72-9.758 20.39-.426 28.79 7.75 7.07 18.265 6.49 27.77 9.27 4.257 1.3 9.433 2.78 14.616-.69 10.682-7.3 14.812-22.92 6.64-32.11zm87.32 140.14c2.33-6.8 5.43-11.79 2.81-18.58-3.12-8.32-11.22-9.44-18.78-12.2-7.08-2.55-18.87-5.81-24.78.4-6.81 7.02-9.58 21.41-1.41 27.53 10.51 7.85 36.6 18.73 42.16 2.85zm143.32 61.17c6.22 25.39 13.93 51.15 15.87 77.98 2.85 40.07-5.81 81.71-31.47 112.11 2.51-13.1 5.87-24.18 7.6-37.91 2.12-16.59-.23-35.07-4.52-51.76-3.26-12.65-8.92-24.93-14.59-36.67-6.65-13.94-16.64-29.07-26.54-41.45-27.81-34.6-71.15-102.08-71.15-102.08s-3.62.29-5.8.29c-.51 8.4 19.45 37.21 29.54 53.34 22.08 35.33 38.8 54.35 58.05 85.02 12 19.34 21.2 42.85 24.15 64.13 5.98 43.44-17.44 95.51-51.07 112.8 7.67-32.42 6.9-78.16-10.41-97.37-32.69-36.45-52.11-63.72-75.42-110.4-.71-1.27-6.16 6.31-10.65 9.24-5.05 3.36-2.26 13.35-4.03 20.11-1.68 5.74-4.35 10.15-5.17 11.15-6.9 8.45-13.59 8.98-15.04 11.5-1.65 2.86-.84 10.03-6.89 18.13-3 4.12-10.69 7.14-13.78 11-3.38 4.21-4.91 17.05-14.21 22.32-4.42 2.48-6.466 10.2-10.72 13.95-13.102 11.6-26.176 9.34-28.672 10.09-3.375.92-9.918 9.28-21.62 11.28-11.462 1.95-17.712-5.7-23.69-2.92-14.87 6.88-29.12 7.44-44.983-10.19-4.72-5.26-12.93-.33-23.18-8.2-9.03-6.85-9.176-13.19-13.742-14.02-8.63-1.65-15.04-8.53-18.37-16.03-1.72-3.87-3.01-11.69-4.01-16.89-1.42-7.09-5.018-13.69-5.116-18.94-.078-7.23 2.238-11.17 1.61-14.43-1.102-4.74-4.88-9.06-5.345-13.47-.363-2.49-.57-9.12 1.235-12.89 2.305-4.64-1.598-8.65-3.613-13.57-1.934-4.56-3.965-12.4-3.356-17.96.828-7.56 5.164-10.36 1.8-16.33-5.57-9.71-12.546-24.88-.284-44.27 2.27-3.52-5.14-10.41-5.54-20.53-.464-10.98 6.137-19.12 7.973-24 .352-1.77-2.922-1.63-3.027-3.51-29.23 30.88-55.078 59.36-88.945 86.19-20.73 16.38-41.203 30.14-64.15 42.41-61.264 32.91-132.475 54.89-196.97 46.83 24.303-19.55 54.917-33.53 79.893-55.71 23.637-21.06 45.09-39.05 66.617-61.43 33.785-35.1 61.23-70.71 89.867-111.98 8.473-12.23 14.098-20.43 22.008-33.18 7.96-12.75 16.856-26.32 24.102-38.97 36.6-63.57 66.633-122.45 96.984-187.57 8.406-18.02 15.516-36.9 23.782-54.76 2.18-4.86 5.378-1.28 7.574 0 11.01 6.35 22.687 11.66 34.066 17.03 9.117 4.15 17.402 7.03 25.496 10.2 20.535 7.82 40.03 12.03 61.547 16.49 35.94 7.55 100.45 6.02 100.45 6.02l122.38.04h3.28c-1.24 35.07-9.56 69.09-11.58 104.27-1.6 28.53-.65 56.05.36 84.63 2.75 77.33 14.11 160.37 31.42 230.84M395.156 2295.11c-23.883-23.82-31.023-32.59-44.918-58.9-8.207-15.44-18.617-35.32-21.61-60.94 49.07 18.71 89.1 56.82 125.255 98.89 26.765 31.21 47.488 72.63 73.87 103.44-46.464-15.59-95.472-45.51-132.597-82.49"></path><path d="M254.703 2228.2c18.5 31.25 44.977 65.01 72.426 88.04-12.72-28.54-28.38-56.85-33.763-90.69-10.687-67.23-20.722-114.37-31.887-175.78 30.477 21.78 62.66 55.97 95.04 79.84 25 18.34 50.035 30.65 75.76 48.3 15.26 10.52 25.2 24.07 37.91 36.76-15.14-63.86-71.124-128.29-111.245-158.3-50.414-37.77-68.476-43.83-149.457-126.16-10.273 101.68-8.437 207.33 45.215 297.99"></path><path d="M89.53 1890.52c3.732 52.79 10.075 95.04 22.935 146.51 8.96 35.99 28.34 89.55 56.234 111.51-3.42-13.06-5.23-32.61-6.528-45.81-5.496-54.42 4.953-117.58 6.164-171.9.605-26.73.398-47.32-3.59-72.45-4.176-26.27-.723-58.61-.723-58.61s14.45 16.49 27.31 37c28.163 44.73 37.15 57.99 59.858 82.22 28.107 30.03 59.595 57.86 95.138 82.47-4.297-16.68-22.433-49.13-29.957-62.18-9.98-17.47-14.507-33.31-38.206-72.85-33.297-55.56-48.168-63.04-85.117-122.46-8.043-12.89-40.863-62.06-48.81-77.08-17.35 35.88-23.87 67.21-45.155 125.55-13.328 36.72-11.34 73.4-9.55 98.08"></path><path d="M38.066 1615.88c-20.078 52.05-29.296 100.36-36.07 155.23-4.164 33.51-2.23 78.25 9.72 110.5 3.167-7.86 9.565-27.86 10.448-30.85 8.895-30 12.64-44.36 25.063-73.24 9.55-22.21 21.175-39.86 33.632-61.77 11.316-20 20.902-46.32 29.105-66.45 26.367-64.54 28.32-124.99 38.38-131.57 7.264 15.56 9.56 30.41 10.34 37.73 7.83 71.43 17.284 136.36 107.245 220.6 8.258-25.1 4.05-71.28-.903-96.05-10.75-54.13-19.457-80.1-43.242-132.52-12.61-27.64-29.46-68.27-34.047-81.74-12.097-35.02-16.21-53.42-23.832-74.14-42.48 70.72-94.754 143.82-125.84 224.27"></path><path d="M108.125 1290.29c-30.242 42.09-41.293 63.28-60.957 108.11-16.53 37.54-21.31 51.49-30.94 93.57-5.294 22.95-8.28 43.79-4.193 57.32 23.684-42.82 39.86-90.84 70.81-126.34 24.573-28.22 48.276-52.3 67.83-76.06 29.962-36.65 53.618-71.22 82.395-109.3 2.426 19.12 3.368 38.39-.93 69.66-5.85 42.88-2.27 78.01 5.24 119.56 9.48 52.6 16.425 78.7 34.725 131.95 22.31-43.84 22.22-94.55 27.868-141.07 10.812-90.16-17.414-197.71-22.942-242.55-1.483-11.81.552-40.98 1.134-52.38-42.172 33.24-79.723 66.87-116.148 103.32-16.586 16.56-39.305 43.96-53.89 64.21"></path><path d="M268.082 959.48c-19.203 13.82-70.852 53.35-95.29 84.42-35.604 45.18-43.44 64.58-66.925 116.55-2.88 6.29-16.156 35.82-17.223 55.76 76.93-92.89 145.836-106.7 219.227-183.8 26.92-28.26 54.532-54.82 69.044-68.19 11.188-10.232 25.09-13.43 25.09-13.43s-1.453 19.878-8.707 33.66c-48.957 93.61-58.195 191.44-50.78 296.39 22.362-27.64 29.385-46.12 43.573-72.83 15.453-29.17 23.308-47.26 30.535-65.16 41.855-104.3 52.793-224.73 78.684-285.35-79.935 26.87-142.87 41.28-227.228 101.98"></path><path d="M595.844 713.39c-21.66-1.41-64.004-1.288-86.62 2.41C394.84 734.03 288.49 816.94 235.038 908.09c48.476-29.66 83.55-49.39 126.183-64.14 37.992-13.2 74.03-17.08 137.45-35.04 38.237-10.79 76.136-26.16 89.436-31.13 42.425-15.768 60.257-11.882 60.257-11.882s0 6.48-15.824 23.692c-31.59 34.54-43.164 42.73-69.14 69.21-8.505 8.76-28.05 38.528-37.99 58.27-28.065 55.87-31.167 100.68-56.823 162.08 93.574-55.03 139.13-130.752 188.574-226.35 15.203-29.26 35.81-63.12 54.582-81.698 12.645-12.39 30.426-31.403 30.426-31.403s-13.008-3.06-53.633-9.052c-18.243-2.68-57.048-14.738-92.696-17.257M1049.28 706.172c49.45-8.03 93.28-20.113 138.21-35.55 12.09-4.134 30.47-13.23 43.19-19.7 31.83-16.152 50.15-26.692 77.52-45.48 44.07-30.333 91.4-63.09 134.1-112.723.92-.982 7.82-8.322 3.23-11.95-8.35-6.58-29.02-15.872-35.87-9.83-39.09 34.798-37.12 45.888-84.48 88.78-12.12 10.92-30.46 26.31-52.38 41.268-21.4 14.62-47.23 30.55-71.23 42.5-21.79 10.73-55.4 13.903-74.29 13.903l.29-.11c-8.6.298-57.87.54-69.25-.12-96.812-6.66-92.093-15.332-147.898-30.512-45.91-12.398-95.168-21.29-144.055-27.886-50.113-6.8-94.902-7.633-141.887-2.832-63.625 6.582-133.265 24.3-185.222 57.76 47.504-.81 96.293-9.92 143.57-6.26 19.906 1.492 52.168 4.468 74.03 11.21 43.412 13.372 68.318 18.55 114.31 31.348 39.516 11.07 79.316 14.782 120.61 19.184 57.105 6.09 109.982 4.75 157.502-3M1934.5 2295.11c23.89-23.82 31.06-32.59 44.95-58.9 8.21-15.44 18.61-35.32 21.62-60.94-49.11 18.71-89.1 56.82-125.29 98.89-26.77 31.21-47.46 72.63-73.85 103.44 46.46-15.59 95.47-45.51 132.57-82.49"></path><path d="M2074.99 2228.2c-18.53 31.25-44.99 65.01-72.42 88.04 12.82-30.75 31.52-69.02 33.74-90.69 6.83-67.7 20.72-114.37 31.9-175.78-30.47 21.78-62.69 55.97-95.08 79.84-24.94 18.34-50 30.65-75.69 48.3-15.3 10.52-25.23 24.07-37.94 36.76 15.14-63.86 71.12-128.29 111.27-158.3 50.38-37.77 68.44-43.83 149.33-126.16 10.29 101.68 8.5 207.33-45.11 297.99"></path><path d="M2240.15 1890.52c-3.8 52.79-10.04 95.04-22.93 146.51-8.96 35.99-28.34 89.55-56.27 111.51 3.45-13.06 5.24-32.61 6.55-45.81 5.54-54.42-4.9-117.58-6.15-171.9-.6-26.73-.4-47.32 3.57-72.45 4.17-26.27.74-58.61.74-58.61s-14.44 16.49-27.33 37c-28.11 44.73-37.11 57.99-59.87 82.22-28.08 30.03-59.59 57.86-95.14 82.47 4.34-16.68 22.46-49.13 30-62.18 10.01-17.47 14.48-33.31 38.2-72.85 33.29-55.56 48.18-63.04 85.08-122.46 8.04-12.89 40.92-62.06 48.84-77.08 17.38 35.88 23.88 67.21 45.17 125.55 13.35 36.72 11.36 73.4 9.54 98.08"></path><path d="M2291.61 1615.88c20.08 52.05 29.26 100.36 36.11 155.23 4.15 33.51 2.18 78.25-9.73 110.5-3.18-7.86-9.57-27.86-10.46-30.85-8.92-30-12.64-44.36-25.04-73.24-9.56-22.21-21.27-39.86-33.66-61.77-11.33-20-20.9-46.32-29.15-66.45-26.34-64.54-28.29-124.99-38.34-131.57-7.3 15.56-9.57 30.41-10.33 37.73-7.86 71.43-17.29 136.36-107.25 220.6-8.29-25.1-4.06-71.28.86-96.05 10.8-54.13 19.53-80.1 43.28-132.52 12.61-27.64 29.46-68.27 34.08-81.74 12.02-35.02 16.15-53.42 23.83-74.14 42.45 70.72 94.73 143.82 125.8 224.27"></path><path d="M2221.56 1290.29c30.28 42.09 41.29 63.28 60.95 108.11 16.54 37.54 21.29 51.49 30.96 93.57 5.29 22.95 8.26 43.79 4.17 57.32-23.6-42.82-39.88-90.84-70.83-126.34-24.54-28.22-48.25-52.3-67.8-76.06-29.93-36.65-53.64-71.22-82.39-109.3-2.41 19.12-3.39 38.39.89 69.66 5.88 42.88 2.3 78.01-5.21 119.56-9.48 52.6-16.42 78.7-34.71 131.95-22.28-43.84-22.23-94.55-27.88-141.07-10.84-90.16 17.46-197.71 22.98-242.55 1.45-11.81-.59-40.98-1.17-52.38 42.18 33.24 79.73 66.87 116.15 103.32 16.59 16.56 39.27 43.96 53.89 64.21"></path><path d="M2061.63 959.48c19.18 13.82 70.83 53.35 95.26 84.42 35.6 45.18 43.45 64.58 66.93 116.55 2.84 6.29 16.16 35.82 17.23 55.76-76.92-92.89-145.85-106.7-219.24-183.8-26.91-28.26-54.51-54.82-69.02-68.19-11.18-10.232-25.09-13.43-25.09-13.43s1.44 19.878 8.67 33.66c48.97 93.61 58.22 191.44 50.77 296.39-22.3-27.64-29.37-46.12-43.54-72.83-15.43-29.17-23.31-47.26-30.5-65.16-41.89-104.3-52.88-224.73-78.75-285.35 79.99 26.87 142.9 41.28 227.28 101.98"></path><path d="M1733.84 713.39c21.69-1.41 64-1.288 86.66 2.41 114.37 18.23 220.69 101.14 274.15 192.29-48.52-29.66-83.59-49.39-126.19-64.14-38.02-13.2-74.03-17.08-137.42-35.04-38.27-10.79-76.17-26.16-89.47-31.13-42.42-15.768-60.26-11.882-60.26-11.882s0 6.48 15.82 23.692c31.61 34.54 43.2 42.73 69.12 69.21 8.54 8.76 28.08 38.528 38.01 58.27 28.07 55.87 31.17 100.68 56.87 162.08-93.58-55.03-139.22-130.752-188.64-226.35-15.2-29.26-35.78-63.12-54.53-81.698-12.63-12.39-30.45-31.403-30.45-31.403s13.01-3.06 53.7-9.052c18.18-2.68 56.96-14.738 92.63-17.257M1280.4 706.172c-49.43-8.03-93.24-20.113-138.19-35.55-12.13-4.134-30.49-13.23-43.21-19.7-31.82-16.152-50.08-26.692-77.52-45.48-44.085-30.333-91.375-63.09-134.085-112.723-.93-.982-7.86-8.322-3.247-11.95 8.375-6.58 29.06-15.872 35.825-9.83 39.125 34.798 37.12 45.888 84.547 88.78 12.05 10.92 30.41 26.31 52.37 41.268 21.43 14.62 47.19 30.55 71.23 42.5 21.74 10.73 55.42 13.903 74.28 13.903l-.3-.11c8.61.298 57.86.54 69.27-.12 96.85-6.66 92.09-15.332 147.86-30.512 45.94-12.398 95.2-21.29 144.09-27.886 50.08-6.8 94.93-7.633 141.88-2.832 63.64 6.582 133.24 24.3 185.2 57.76-47.48-.81-96.24-9.92-143.57-6.26-19.91 1.492-52.14 4.468-74.01 11.21-43.43 13.372-68.35 18.55-114.29 31.348-39.53 11.07-79.34 14.782-120.6 19.184-57.12 6.09-110 4.75-157.53-3M1103.66 2834.6l-86.96-322.9h-92.313l-57.766 210.33-56.42-210.33h-92.102l-86.95 322.9h86.91l49.504-222.26 59.59 222.26h83.09l56.492-222.26 52.026 222.26h84.9M1390.51 2772.14h-148.53v-60.06h137.69v-62.46h-137.69V2511.7h-82.85v322.9h231.38v-62.46M1628.37 2730.8c0 9.11-2.46 16.93-7.36 23.47-4.91 6.6-10.61 11.16-17.13 13.74-8.68 3.51-17.12 5.37-25.37 5.74-8.25.37-19.21.54-32.93.54h-14.35v-96.47h23.86c14.16 0 25.84.83 35.04 2.59 9.18 1.7 16.88 5.21 23.07 10.37 5.35 4.64 9.22 10.14 11.61 16.56 2.39 6.41 3.56 14.23 3.56 23.46zm86.13 1.86c0-14.46-2.58-28.59-7.62-42.39-5.04-13.79-12.27-25.41-21.66-34.79-12.9-12.72-27.23-22.35-43.04-28.84-15.85-6.48-35.53-9.75-59.08-9.75h-51.87V2511.7h-83.24v322.9h137.06c20.52 0 37.81-1.79 51.91-5.32 14.1-3.58 26.55-8.85 37.38-15.96 13.03-8.5 22.98-19.45 29.86-32.74 6.86-13.28 10.3-29.27 10.3-47.92M498.7 257.87L440.647 70.54h-63.77l-38.163 126.23-37.692-126.23h-64.386l-57.555 187.33h62.988l32.164-129.07 39.977 129.07h53.208l38.008-129.07 31.6 129.07H498.7M649.148 286.07h-4.476c-2.692.71-6.15 1.61-10.43 2.602-4.23 1-8.836 1.547-13.72 1.547-11.75 0-19.694-2.09-23.877-6.392-4.13-4.2-6.192-12.328-6.192-24.5v-1.457h46.168v-40.73h-44.175V70.54h-60.25v146.6H506.54v40.73h25.655v5.142c0 22.86 6.12 40.078 18.297 51.566 12.18 11.48 30.586 17.12 55.29 17.12 8.874 0 16.96-.268 24.198-.928 7.188-.55 13.598-1.372 19.168-2.36v-42.34M788.512 165.5c0 18.238-3.09 31.398-9.317 39.68-6.222 8.172-16.047 12.26-29.437 12.26-5.688 0-11.516-.88-17.488-2.518-5.977-1.754-11.704-4.262-17.133-7.453v-94.052c3.98-1.61 8.265-2.61 12.8-2.996 4.583-.5 9.067-.703 13.504-.703 15.83 0 27.68 4.67 35.412 13.87 7.773 9.332 11.66 23.262 11.66 41.91zm61.894 1.23c0-15.37-2.375-29.5-7.078-42.18-4.71-12.69-10.926-23.062-18.598-31.35-7.976-8.688-17.003-15.17-27.125-19.66-10.12-4.5-20.94-6.7-32.51-6.7-10.63 0-19.7 1.13-27.126 3.48-7.45 2.24-15.056 5.4-22.833 9.49V1.86h-60.2v256.01h60.2v-19.51c9.215 7.28 18.617 13.218 28.238 17.812 9.605 4.598 20.672 6.84 33.242 6.84 23.324 0 41.457-8.582 54.363-25.653 12.97-17.18 19.426-40.688 19.426-70.63M878.848 70.54h62.402v65.53h-62.402zM1100.65 118.56c3.9 4.792 6.82 10.55 8.77 17.292 1.9 6.75 2.87 16 2.87 27.878 0 11.08-.99 20.25-2.99 27.75-2 7.39-4.75 13.33-8.33 17.83-3.54 4.588-7.84 7.768-12.83 9.67-4.99 1.9-10.38 2.86-16.17 2.86-5.79 0-10.96-.81-15.45-2.4-4.49-1.5-8.81-4.6-12.9-9.292-3.7-4.386-6.62-10.328-8.76-17.808-2.2-7.59-3.27-17.13-3.27-28.61 0-10.18.94-19.04 2.84-26.59 1.9-7.53 4.67-13.55 8.33-18.038 3.55-4.39 7.82-7.532 12.76-9.532 4.94-1.992 10.61-2.992 16.95-2.992 5.44 0 10.66.922 15.6 2.78 4.94 1.732 9.1 4.912 12.58 9.2zm73.9 45.57c0-30.85-9.02-55.142-26.93-72.85-17.97-17.72-43.21-26.58-75.65-26.58-32.5 0-57.67 8.86-75.646 26.58-17.972 17.708-26.93 42-26.93 72.85 0 30.948 9.004 55.31 27.075 73.08 18.07 17.67 43.25 26.51 75.5 26.51 32.7 0 57.96-8.892 75.79-26.77 17.87-17.77 26.79-42.07 26.79-72.82M1336.27 200.62h-5.33c-2.55.892-6.63 1.6-12.31 1.99-5.68.51-10.36.71-14.15.71-8.54 0-16.09-.6-22.61-1.71-6.58-1.09-13.6-2.99-21.17-5.68V70.54h-60.21v187.33h60.21v-27.49c13.2 11.268 24.7 18.83 34.47 22.58 9.76 3.75 18.73 5.52 26.94 5.52 2.1 0 4.49-.05 7.19-.152 2.63-.117 4.98-.258 6.97-.457v-57.25M1475.12 129.54v84.91c-3.44 1.49-7.62 2.61-12.6 3.46-5.03.86-9.52 1.22-13.51 1.22-15.74 0-27.56-4.56-35.47-13.6-7.86-9.03-11.79-21.678-11.79-37.952 0-17.97 3.35-30.558 10.08-37.637 6.71-7.202 16.66-10.678 29.86-10.678 5.98 0 11.86.95 17.64 2.84 5.77 1.886 11.06 4.34 15.79 7.437zm60.25-37.5c0-17.56-2.5-32.33-7.54-44.32-4.99-12.08-11.98-21.4-21.02-28.19-8.98-6.89-19.83-11.952-32.56-15.018C1461.5 1.47 1447.11 0 1431.09 0c-12.97 0-25.83.7-38.41 2.31-12.63 1.588-23.58 3.49-32.82 5.678v46.87h7.33c7.33-2.897 16.3-5.557 26.82-7.91 10.57-2.448 19.99-3.62 28.32-3.62 11.11 0 20.17 1.03 27.09 3.07 6.93 2.063 12.24 4.973 15.87 8.774 3.45 3.59 5.97 8.18 7.53 13.656 1.55 5.602 2.3 12.293 2.3 20.082v3.43a87.448 87.448 0 0 0-23.99-13.96c-8.77-3.51-18.54-5.142-29.31-5.142-26.18 0-46.42 7.883-60.63 23.653-14.22 15.782-21.34 39.84-21.34 72.08 0 15.47 2.19 28.75 6.53 40.03 4.34 11.18 10.42 20.96 18.3 29.36 7.33 7.78 16.37 13.82 27.1 18.11 10.72 4.4 21.66 6.542 32.88 6.542 10.12 0 19.32-1.16 27.6-3.614 8.26-2.36 15.78-5.628 22.56-9.91l2.15 8.383h58.4V92.04M1750.65 330.11L1618.36 16.53h-51.2l131.75 313.58h51.74M1918.21 188.352c-.35 12.468-3.44 21.95-9.33 28.347-5.89 6.28-15.08 9.42-27.56 9.42-11.53 0-21.07-2.99-28.5-8.98-7.43-6-11.63-15.628-12.54-28.788zm59.7-35.3h-137.42c.88-14.673 6.46-25.853 16.75-33.654 10.28-7.79 25.43-11.68 45.45-11.68 12.67 0 24.95 2.25 36.89 6.84 11.88 4.59 21.25 9.48 28.14 14.68h6.69v-48.18c-13.58-5.48-26.35-9.43-38.38-11.808-11.98-2.512-25.26-3.7-39.83-3.7-37.59 0-66.39 8.38-86.41 25.348-20.01 16.872-30.05 40.993-30.05 72.243 0 30.83 9.51 55.33 28.48 73.438 18.91 18.024 44.95 27.14 77.94 27.14 30.51 0 53.42-7.718 68.74-23.14 15.32-15.43 23.01-37.508 23.01-66.47v-21.057M2165.99 129.94c0-19.37-8.64-34.97-26.01-46.8-17.34-11.82-41.08-17.742-71.23-17.742-16.68 0-31.8 1.493-45.38 4.583-13.54 3.21-24.46 6.59-32.7 10.39v49.43h5.55c2.99-2.21 6.46-4.48 10.41-7.03 3.94-2.442 9.51-5.16 16.74-8.06 6.24-2.48 13.3-4.77 21.22-6.6 7.88-1.75 16.32-2.67 25.36-2.67 11.78 0 20.51 1.26 26.14 3.92 5.7 2.53 8.55 6.39 8.55 11.5 0 4.58-1.71 7.96-5.05 10-3.3 2.05-9.63 4.01-19.01 5.92-4.45.99-10.46 2.072-18.1 3.208-7.59 1.16-14.5 2.633-20.74 4.23-17.02 4.48-29.65 11.403-37.89 20.84-8.23 9.333-12.32 21.032-12.32 35.114 0 17.97 8.56 32.918 25.58 44.95 17.06 11.917 40.4 17.89 70.01 17.89 13.97 0 27.42-1.364 40.25-4.21 12.89-2.853 22.89-5.872 30.13-9.16V202.32h-5.19c-8.89 6.078-19.04 11.06-30.43 14.89-11.38 3.85-22.93 5.77-34.61 5.77-9.69 0-17.8-1.29-24.44-4-6.59-2.69-9.91-6.48-9.91-11.37 0-4.4 1.5-7.83 4.49-10.13 3-2.402 10.09-4.71 21.16-6.992 6.15-1.308 12.71-2.476 19.8-3.617 7.04-1.15 14.15-2.67 21.23-4.358 15.83-4.203 27.51-10.62 35.05-19.453 7.6-8.84 11.34-19.95 11.34-33.12M2832.73 1474.29c0 12.49-3.39 23.25-10.17 32.31-6.77 9.01-14.63 15.33-23.57 18.93-11.97 4.73-23.63 7.4-34.96 7.89-11.33.5-26.47.72-45.4.72h-19.68v-132.8h32.83c19.51 0 35.59 1.16 48.23 3.5 12.66 2.44 23.22 7.23 31.81 14.34 7.35 6.28 12.69 13.92 15.99 22.74 3.26 8.89 4.92 19.66 4.92 32.37zm118.56 2.55c0-19.92-3.53-39.34-10.48-58.41-6.96-18.95-16.89-35-29.86-47.91-17.7-17.52-37.49-30.7-59.25-39.75-21.82-8.93-48.95-13.36-81.39-13.36h-71.36v-144.9h-114.69v444.63h188.7c28.28 0 52.13-2.44 71.56-7.32 19.42-4.88 36.58-12.2 51.48-21.94 17.94-11.76 31.62-26.74 41.09-45.07 9.45-18.29 14.2-40.31 14.2-65.97M3260.44 1405.48h-9.55c-4.56 1.62-11.91 2.81-22.05 3.63-10.14.7-18.57 1.16-25.33 1.16-15.28 0-28.81-.99-40.53-2.98-11.72-1.98-24.34-5.42-37.81-10.21v-224.57h-107.81v335.39h107.81v-49.26c23.61 20.27 44.17 33.77 61.66 40.45 17.49 6.63 33.58 9.99 48.28 9.99 3.79 0 8.02-.1 12.8-.33 4.78-.18 8.95-.49 12.53-.85v-102.42M3522.71 1258.5c6.96 8.59 12.18 18.94 15.68 30.94 3.49 12.01 5.22 28.69 5.22 50 0 19.7-1.79 36.21-5.35 49.6-3.63 13.37-8.59 24.04-14.94 31.98-6.4 8.13-14.07 13.9-23.01 17.35-8.94 3.32-18.62 5.05-28.95 5.05-10.35 0-19.56-1.46-27.65-4.26-8.03-2.69-15.77-8.29-23.12-16.7-6.6-7.78-11.8-18.44-15.67-31.87-3.88-13.55-5.83-30.64-5.83-51.15 0-18.23 1.66-34.19 5.06-47.55 3.39-13.45 8.35-24.25 14.96-32.49 6.35-7.76 13.95-13.34 22.78-16.97 8.9-3.61 18.98-5.43 30.32-5.43 9.75 0 19.11 1.68 27.97 4.92 8.84 3.36 16.36 8.91 22.53 16.58zm132.27 81.59c0-55.21-16.05-98.61-48.21-130.41-32.16-31.7-77.28-47.54-135.41-47.54-58.13 0-103.3 15.84-135.46 47.54-32.12 31.8-48.19 75.2-48.19 130.41 0 55.55 16.17 99.07 48.51 130.79 32.33 31.62 77.36 47.46 135.14 47.46 58.5 0 103.76-15.96 135.68-47.79 31.97-31.84 47.94-75.37 47.94-130.46M3941.12 1278.3v151.92c-6.12 2.63-13.71 4.66-22.63 6.21-8.92 1.43-16.95 2.2-24.06 2.2-28.22 0-49.41-8.09-63.46-24.34-14.16-16.26-21.19-38.89-21.19-67.98 0-32.25 6-54.75 17.98-67.47 12.09-12.75 29.88-19.05 53.5-19.05 10.73 0 21.26 1.6 31.55 5.05 10.38 3.32 19.83 7.86 28.31 13.46zm107.87-67.21c0-31.42-4.53-57.92-13.47-79.51-8.95-21.5-21.49-38.3-37.57-50.39-16.18-12.38-35.65-21.28-58.41-26.8-22.86-5.4-48.55-8.17-77.19-8.17-23.3 0-46.3 1.36-68.88 4.16s-42.14 6.24-58.68 10.23v83.92h13.19c13.07-5.27 29.04-10 47.99-14.25 18.85-4.23 35.71-6.36 50.7-6.36 19.84 0 36.05 1.75 48.39 5.46 12.45 3.71 21.98 8.89 28.46 15.67 6.24 6.43 10.65 14.55 13.46 24.48 2.79 10.04 4.14 21.95 4.14 35.86v6.23c-12.9-10.46-27.15-18.88-42.96-25-15.69-6.26-33.2-9.32-52.41-9.32-46.92 0-83.1 14.18-108.55 42.48-25.53 28.26-38.25 71.26-38.25 128.99 0 27.62 3.88 51.57 11.64 71.61 7.75 20.15 18.67 37.62 32.83 52.57 13.08 13.92 29.29 24.8 48.51 32.56 19.12 7.77 38.75 11.59 58.87 11.59 18.04 0 34.51-2.12 49.3-6.4 14.9-4.24 28.28-10.21 40.47-17.75l3.9 14.95h104.52v-296.81M4384.37 1405.48h-9.45c-4.6 1.62-12 2.81-22.09 3.63-10.1.7-18.57 1.16-25.33 1.16-15.34 0-28.76-.99-40.48-2.98-11.72-1.98-24.35-5.42-37.85-10.21v-224.57h-107.89v335.39h107.89v-49.26c23.6 20.27 44.16 33.77 61.65 40.45 17.49 6.63 33.52 9.99 48.21 9.99 3.79 0 8.12-.1 12.8-.33 4.79-.18 9.03-.49 12.54-.85v-102.42M4639.17 1260.24v69.74c-14.54-1.28-30.25-2.84-47.13-4.93-16.89-2.16-29.83-4.54-38.59-7.33-10.72-3.33-18.91-8.25-24.61-14.73-5.7-6.5-8.49-14.89-8.49-25.45 0-6.93.58-12.61 1.75-16.94 1.28-4.41 4.26-8.54 9.06-12.5 4.5-3.97 10.02-6.89 16.34-8.78 6.41-1.9 16.34-2.85 29.9-2.85 10.75 0 21.63 2.16 32.64 6.57 11.14 4.32 20.84 10.1 29.13 17.2zm0-52.12c-5.78-4.45-12.91-9.68-21.49-15.82-8.59-6.24-16.62-11.12-24.21-14.63-10.47-4.78-21.5-8.36-32.77-10.61-11.4-2.36-23.87-3.49-37.32-3.49-31.88 0-58.52 9.84-80.03 29.53-21.49 19.81-32.25 44.9-32.25 75.63 0 24.47 5.41 44.42 16.34 59.97 11.04 15.53 26.56 27.82 46.62 36.77 19.95 8.93 44.63 15.37 74.07 19.04 29.44 3.8 59.97 6.6 91.7 8.42v1.81c0 18.52-7.61 31.29-22.68 38.33-15.18 7.04-37.5 10.61-66.95 10.61-17.7 0-36.56-3.1-56.72-9.44-20.16-6.22-34.5-11.05-43.26-14.38h-9.86v80.86c11.3 2.99 29.76 6.51 55.33 10.62 25.64 4.06 51.28 6.09 76.92 6.09 61.16 0 105.3-9.38 132.48-28.23 27.19-18.77 40.69-48.32 40.69-88.51v-228.18h-106.61v35.61M5163.11 1410.27v-237.76h-107.86v167.58c0 16.35-.36 30.21-1.17 41.69-.82 11.36-2.99 20.73-6.59 27.84-3.53 7.25-9 12.45-16.21 15.68-7.34 3.36-17.49 4.92-30.69 4.92-10.46 0-20.77-2.11-30.7-6.35-9.93-4.35-18.99-8.81-26.93-13.6v-237.76H4835.2v335.39h107.76v-37.02c18.5 14.48 36.19 25.88 53.17 33.98 16.85 8.19 35.53 12.24 56.02 12.24 22.11 0 41.6-4.91 58.47-14.76 16.87-9.84 30.14-24.35 39.71-43.44 21.46 18.1 42.29 32.39 62.59 42.73 20.2 10.34 40.15 15.47 59.64 15.47 36.18 0 63.64-10.83 82.41-32.5 18.76-21.72 28.19-52.93 28.19-93.74v-218.35h-107.75v167.58c0 16.52-.42 30.43-1.05 41.82-.72 11.28-2.84 20.6-6.46 27.71-3.33 7.25-8.77 12.45-16.07 15.68-7.42 3.36-17.81 4.92-31.08 4.92-8.99 0-17.71-1.47-26.28-4.54-8.6-3.18-19.07-8.28-31.36-15.41M5676.45 1260.24v69.74c-14.43-1.28-30.25-2.84-47.14-4.93-16.89-2.16-29.72-4.54-38.48-7.33-10.75-3.33-19.02-8.25-24.71-14.73-5.6-6.5-8.45-14.89-8.45-25.45 0-6.93.54-12.61 1.82-16.94 1.16-4.41 4.14-8.54 8.93-12.5 4.51-3.97 10.02-6.89 16.46-8.78 6.31-1.9 16.24-2.85 29.79-2.85 10.75 0 21.63 2.16 32.76 6.57 11.01 4.32 20.72 10.1 29.02 17.2zm0-52.12c-5.78-4.45-12.91-9.68-21.49-15.82-8.49-6.24-16.63-11.12-24.11-14.63-10.58-4.78-21.5-8.36-32.88-10.61-11.39-2.36-23.76-3.49-37.32-3.49-31.88 0-58.53 9.84-80.03 29.53-21.49 19.81-32.25 44.9-32.25 75.63 0 24.47 5.41 44.42 16.45 59.97 10.93 15.53 26.45 27.82 46.51 36.77 19.96 8.93 44.62 15.37 74.08 19.04 29.44 3.8 60.07 6.6 91.69 8.42v1.81c0 18.52-7.6 31.29-22.68 38.33-15.18 7.04-37.46 10.61-66.94 10.61-17.7 0-36.58-3.1-56.72-9.44-20.06-6.22-34.51-11.05-43.27-14.38h-9.86v80.86c11.3 2.99 29.77 6.51 55.43 10.62 25.56 4.06 51.17 6.09 76.83 6.09 61.15 0 105.29-9.38 132.47-28.23 27.2-18.77 40.8-48.32 40.8-88.51v-228.18h-106.71v35.61M6544.8 1172.51h-114.07v297.72l-82.49-193.21h-79.13l-82.38 193.21v-297.72H6078.6v444.63h133.25l99.99-223.05 99.73 223.05h133.23v-444.63M6977.19 1172.51h-107.77v37.04c-19.84-15.09-38.07-26.6-54.59-34.46-16.51-7.85-36.18-11.79-58.99-11.79-37 0-65.46 10.67-85.51 31.97-19.92 21.23-30 52.77-30 94.32v218.31h107.86v-166.39c0-16.88.5-30.91 1.67-42.22 1.1-11.18 3.57-20.55 7.54-27.85 3.79-7.42 9.53-12.74 17.22-16.19 7.68-3.33 18.39-5.04 32.12-5.04 9.11 0 19.32 1.71 30.43 5.04 11.11 3.45 21.85 8.42 32.25 14.91v237.74h107.77v-335.39M7406.44 1172.51h-107.77v166.41c0 13.55-.72 26.95-2.18 40.41-1.34 13.47-3.74 23.35-7.12 29.78-3.98 7.29-9.81 12.72-17.49 16.06-7.67 3.45-18.38 5.05-32.11 5.05-9.75 0-19.65-1.52-29.67-4.79-10.05-3.15-21.01-8.21-32.75-15.16v-237.76h-107.77v335.39h107.77v-37.02c19.12 14.89 37.49 26.37 55.09 34.32 17.6 7.94 37.13 11.9 58.6 11.9 36.19 0 64.47-10.51 84.86-31.59 20.3-21.15 30.54-52.66 30.54-94.65v-218.35M7714.38 1264.87v164.81c-7.49 3.16-15.51 5.42-23.79 6.87-8.4 1.35-16.05 2.08-23 2.08-28.22 0-49.32-8.81-63.47-26.45-14.06-17.64-21.08-42.1-21.08-73.39 0-32.94 5.64-56.89 16.94-71.72 11.37-14.83 29.48-22.29 54.55-22.29 9.73 0 19.99 1.85 31.01 5.56 10.91 3.72 20.54 8.57 28.84 14.53zm107.86-92.36h-107.86v34.96c-18.51-15.08-35.73-26.29-51.88-33.42-16.06-7.14-34.65-10.75-55.76-10.75-40.8 0-73.36 15.71-97.82 47.15-24.46 31.44-36.72 73.9-36.72 127.19 0 28.56 4.21 53.69 12.4 75.74 8.2 22.05 19.54 40.88 33.9 56.59 13.41 14.9 29.85 26.5 49.17 34.78 19.3 8.26 38.51 12.35 57.83 12.35 20.13 0 36.59-2.12 49.4-6.4 12.81-4.24 25.94-9.7 39.48-16.26v142.7h107.86v-464.63M8022.4 1172.51h-107.87v335.39h107.87zm2.99 383.12h-113.84v81.51h113.84v-81.51M8317.51 1260.24v69.74c-14.55-1.28-30.25-2.84-47.25-4.93-16.89-2.16-29.71-4.54-38.48-7.33-10.75-3.33-18.92-8.25-24.6-14.73-5.71-6.5-8.56-14.89-8.56-25.45 0-6.93.65-12.61 1.82-16.94 1.16-4.41 4.14-8.54 8.94-12.5 4.6-3.97 10.02-6.89 16.44-8.78 6.39-1.9 16.36-2.85 29.9-2.85 10.69 0 21.64 2.16 32.66 6.57 11.01 4.32 20.71 10.1 29.13 17.2zm0-52.12c-5.78-4.45-12.91-9.68-21.5-15.82-8.59-6.24-16.62-11.12-24.21-14.63-10.58-4.78-21.5-8.36-32.88-10.61-11.28-2.36-23.75-3.49-37.32-3.49-31.8 0-58.52 9.84-80.03 29.53-21.49 19.81-32.24 44.9-32.24 75.63 0 24.47 5.5 44.42 16.43 59.97 10.93 15.53 26.47 27.82 46.63 36.77 19.86 8.93 44.51 15.37 74.06 19.04 29.45 3.8 59.99 6.6 91.66 8.42v1.81c0 18.52-7.55 31.29-22.74 38.33-15.07 7.04-37.39 10.61-66.83 10.61-17.72 0-36.69-3.1-56.74-9.44-20.15-6.22-34.6-11.05-43.36-14.38h-9.86v80.86c11.41 2.99 29.88 6.51 55.43 10.62 25.56 4.06 51.18 6.09 76.93 6.09 61.04 0 105.18-9.38 132.37-28.23 27.2-18.77 40.79-48.32 40.79-88.51v-228.18h-106.59v35.61M8513.79 1172.51h107.762v464.63H8513.79zM9131.83 1264.87v164.81c-7.58 3.16-15.51 5.42-23.9 6.87-8.29 1.35-15.96 2.08-22.9 2.08-28.22 0-49.4-8.81-63.46-26.45-14.16-17.64-21.18-42.1-21.18-73.39 0-32.94 5.67-56.89 17.04-71.72 11.26-14.83 29.47-22.29 54.44-22.29 9.73 0 20.09 1.85 31 5.56 10.92 3.72 20.57 8.57 28.96 14.53zm107.76-92.36h-107.76v34.96c-18.52-15.08-35.84-26.29-51.9-33.42-16.16-7.14-34.74-10.75-55.85-10.75-40.69 0-73.36 15.71-97.81 47.15-24.45 31.44-36.63 73.9-36.63 127.19 0 28.56 4.1 53.69 12.31 75.74 8.3 22.05 19.53 40.88 33.88 56.59 13.54 14.9 29.96 26.5 49.17 34.78 19.32 8.26 38.62 12.35 57.94 12.35 20.03 0 36.49-2.12 49.31-6.4 12.81-4.24 26.04-9.7 39.58-16.26v142.7h107.76v-464.63M9555.29 1383.34c-.53 22.5-6.14 39.49-16.72 50.76-10.56 11.4-26.9 17.03-49.22 17.03-20.69 0-37.77-5.38-51.15-16.12-13.26-10.75-20.77-27.91-22.29-51.67zm106.96-62.94h-246.08c1.63-26.29 11.62-46.44 30.04-60.35 18.39-13.91 45.49-20.87 81.35-20.87 22.67 0 44.72 4.07 66.02 12.19 21.22 8.12 38.02 16.88 50.42 26.3h11.94v-86.26c-24.34-9.76-47.17-16.92-68.67-21.24-21.51-4.44-45.26-6.6-71.36-6.6-67.3 0-118.89 15.19-154.65 45.45-35.88 30.26-53.84 73.34-53.84 129.25 0 55.38 17.03 99.23 50.99 131.56 33.92 32.34 80.45 48.51 139.62 48.51 54.54 0 95.55-13.78 123.03-41.38 27.46-27.54 41.19-67.25 41.19-118.99v-37.57M10168.6 1343.97l-54.7 159.26-54.7-159.26zm177.1-171.46h-118.5l-30.9 89.87h-164.6l-31-89.87h-115.54l164.24 444.63h132l164.3-444.63M10394.5 1172.51h107.7v464.63h-107.7zM10702.1 1172.51h-107.9v335.39h107.9zm3 383.12h-113.8v81.51h113.8v-81.51M11121.7 1410.27v-237.76h-107.8v167.58c0 16.35-.3 30.21-1.2 41.69-.8 11.36-2.9 20.73-6.5 27.84-3.7 7.25-9 12.45-16.4 15.68-7.2 3.36-17.4 4.92-30.5 4.92-10.6 0-20.8-2.11-30.9-6.35-9.9-4.35-18.8-8.81-26.8-13.6v-237.76h-107.8v335.39h107.8v-37.02c18.5 14.48 36.2 25.88 53.1 33.98 17 8.19 35.6 12.24 56.1 12.24 22 0 41.5-4.91 58.5-14.76 16.9-9.84 30.1-24.35 39.6-43.44 21.5 18.1 42.3 32.39 62.6 42.73 20.3 10.34 40.1 15.47 59.6 15.47 36.3 0 63.8-10.83 82.5-32.5 18.8-21.72 28.2-52.93 28.2-93.74v-218.35H11234v167.58c0 16.52-.3 30.43-1.1 41.82-.6 11.28-2.8 20.6-6.3 27.71-3.5 7.25-8.8 12.45-16.2 15.68-7.3 3.36-17.7 4.92-31.1 4.92-8.9 0-17.7-1.47-26.3-4.54-8.5-3.18-18.9-8.28-31.3-15.41M11655.5 1383.34c-.7 22.5-6.3 39.49-16.7 50.76-10.6 11.4-27.1 17.03-49.4 17.03-20.7 0-37.6-5.38-51-16.12-13.4-10.75-20.8-27.91-22.4-51.67zm106.8-62.94h-246.1c1.7-26.29 11.7-46.44 30.1-60.35 18.4-13.91 45.6-20.87 81.3-20.87 22.8 0 44.7 4.07 66.1 12.19 21.3 8.12 38.1 16.88 50.5 26.3h11.9v-86.26c-24.3-9.76-47.2-16.92-68.7-21.24-21.5-4.44-45.3-6.6-71.4-6.6-67.2 0-118.8 15.19-154.7 45.45-35.8 30.26-53.7 73.34-53.7 129.25 0 55.38 16.9 99.23 50.9 131.56 34 32.34 80.5 48.51 139.6 48.51 54.5 0 95.6-13.78 123-41.38 27.5-27.54 41.2-67.25 41.2-118.99v-37.57M12165.9 1172.51h-107.8v166.41c0 13.55-.8 26.95-2.1 40.41-1.4 13.47-3.8 23.35-7.1 29.78-4 7.29-9.8 12.72-17.5 16.06-7.7 3.45-18.4 5.05-32.2 5.05-9.7 0-19.6-1.52-29.7-4.79-10.1-3.15-20.9-8.21-32.7-15.16v-237.76h-107.7v335.39h107.7v-37.02c19.1 14.89 37.4 26.37 55 34.32 17.6 7.94 37.1 11.9 58.6 11.9 36.2 0 64.5-10.51 84.9-31.59 20.4-21.15 30.6-52.66 30.6-94.65v-218.35M12470 1175.46c-11.6-2.97-23.8-5.26-36.8-6.97-12.9-1.62-28.7-2.46-47.4-2.46-41.9 0-73 8.36-93.4 25.38-20.4 16.87-30.6 45.88-30.6 86.89v156.71h-44.2v72.89h44.2v95.83h107.8v-95.83h100.4v-72.89h-100.4v-119.03c0-11.77.1-21.98.3-30.75.2-8.77 1.8-16.65 4.7-23.62 2.8-7.06 7.7-12.52 14.8-16.59 7.1-4.17 17.3-6.2 30.8-6.2 5.6 0 12.9 1.16 21.9 3.61 9.1 2.35 15.3 4.62 18.9 6.6h9v-73.57M12735.5 1258.5c7 8.59 12.2 18.94 15.7 30.94 3.4 12.01 5.2 28.69 5.2 50 0 19.7-1.8 36.21-5.3 49.6-3.7 13.37-8.6 24.04-15 31.98-6.4 8.13-14 13.9-23 17.35-8.9 3.32-18.6 5.05-29 5.05-10.3 0-19.5-1.46-27.6-4.26-8-2.69-15.7-8.29-23.1-16.7-6.5-7.78-11.8-18.44-15.7-31.87-3.9-13.55-5.8-30.64-5.8-51.15 0-18.23 1.7-34.19 5.1-47.55 3.4-13.45 8.3-24.25 14.9-32.49 6.3-7.76 14-13.34 22.8-16.97 8.9-3.61 19-5.43 30.3-5.43 9.8 0 19.1 1.68 28 4.92 8.8 3.36 16.3 8.91 22.5 16.58zm132.3 81.59c0-55.21-16.1-98.61-48.2-130.41-32.2-31.7-77.3-47.54-135.5-47.54-58.1 0-103.3 15.84-135.3 47.54-32.2 31.8-48.3 75.2-48.3 130.41 0 55.55 16.2 99.07 48.5 130.79 32.4 31.62 77.4 47.46 135.1 47.46 58.6 0 103.8-15.96 135.7-47.79 32-31.84 48-75.37 48-130.46M13227.1 1278.84c0-34.59-15.5-62.56-46.6-83.8-31-21.11-73.5-31.74-127.5-31.74-29.8 0-56.9 2.81-81.2 8.3-24.3 5.61-43.8 11.74-58.5 18.52v88.44h9.8c5.4-3.78 11.6-7.89 18.7-12.42 7-4.41 17.1-9.25 30-14.5 11.1-4.5 23.8-8.43 38-11.79 14.1-3.24 29.2-4.92 45.3-4.92 21.2 0 36.8 2.4 46.9 6.99 10.2 4.71 15.3 11.62 15.3 20.85 0 8.12-3 14.03-9 17.74-6 3.71-17.3 7.18-34 10.62-8 1.81-18.9 3.75-32.5 5.83-13.6 2.07-26 4.53-37.2 7.63-30.4 7.94-53 20.26-67.7 37.18-14.8 16.79-22.2 37.69-22.2 62.81 0 32.25 15.3 59.06 45.9 80.48 30.6 21.4 72.3 32.04 125.3 32.04 25 0 49.1-2.52 72.2-7.57 22.9-5.12 40.9-10.53 53.8-16.26v-84.81h-9.3c-15.9 10.92-34.1 19.82-54.5 26.69-20.4 6.86-41 10.35-61.9 10.35-17.4 0-31.9-2.45-43.8-7.13-11.8-4.8-17.7-11.57-17.7-20.33 0-7.94 2.7-14.1 8-18.24 5.4-4.16 18.1-8.32 38-12.57 10.9-2.16 22.7-4.27 35.3-6.35 12.7-2.07 25.3-4.75 38.1-7.9 28.3-7.42 49.2-19.03 62.8-34.84 13.4-15.8 20.2-35.64 20.2-59.3"></path></g></svg>