<svg xmlns="http://www.w3.org/2000/svg" viewBox="0 0 817.97333 377.94666" height="377.947" width="817.973"><defs><clipPath id="a"><path d="M0 2834.65V0h6134.76v2834.65z"></path></clipPath></defs><g clip-path="url(#a)" fill="#fff" transform="matrix(.13333 0 0 -.13333 0 377.947)"><path d="M1340.51 2131.15c12.51 27.08 24.09 48.63 40.8 74.32 7.36 11.32 15.69 19.21 23.1 30.66-3.54 1.03-8.72-1.91-10.96-3.5-7.42-5.38-10.77-14.12-16.71-18.8-14.03-11.08-13.64-21.11-21-26.28-6.57-4.63-8.45-7.68-13.05-14.9-3.08-4.83-5.34-8.72-8.6-18.22-1.15-3.44-3.45-.41-8.93-7.93-7.18-9.82-10.4-20.41-13.38-32.27-.96-3.9-7.59-5.97-11.85-14.07-5.72-10.93-9.44-21.03-11.91-36.95-.62-3.69-6.85-6.25-11.16-16.53-3.05-7.23-5.23-8.83-7.9-22.45-1.65-8.32-5.43-9.51-9.7-21.57-3.3-9.2-3.43-18.06-4.58-30.09-.26-2.32-4.2-6.94-7.84-13.68-6.08-11.27-5.88-18.78-8.32-30.41-.92-4.2-5.63-9.77-10.17-27.79-3.98-15.98-.33-26.58-1.68-34.46-3.53-20.44-7.03-38.2-5.14-58.35.94-9.84 2.44-20.01 1.79-29.48-1.88-29.7-3.48-54.16-3.32-87.82.1-18.33 1.53-43.42 4.3-64.29 3.05-23.07 7.44-41.07 7.44-41.07h75.14s-2.93 43.45.96 89.19c2.3 27.42 8.83 56.48 14.76 76.89 7.51 26.03 12.18 39.51 26.37 73.85.3.76-.1 3.97-3.85.83-7.83-6.58-14.38-12.37-20.57-21.69-9.46-14.26-15.21-26-22.87-40.63-8.96-17.02-13.89-31.85-23.11-52.53-.55 14.93 1.88 29.13 4.89 42.88 3.11 14.04 5.58 25.16 9.99 37.25 7.84 21.35 15.43 39.17 27.99 59.03 7.28 11.48 16.57 21.77 26.01 30.33 11.29 10.32 21.73 19.39 33.55 29.49-12.42 6.41-28.96-6.95-32.26-7.64-17.48-3.41-24.59-19.61-29.94-21.83-7.65-3.2-12.08-7.87-17.38-14.33-4.09-4.85-5.31-12.33-9.59-14.98-7.13-4.44-12.36-11.15-17.27-20.5-2.01-3.87-7.49-22.13-13.59-19.79 10.42 61.93 32.29 120.01 67.37 171.71 22.26 32.77 46.46 60.88 82.13 86.09 4.69 3.34 5.62 4.89-.95 4.66-33.34-4.05-35.38-19.27-40.87-20.7-5.21-1.35-11.65-7.52-15.77-11.53-7.41-7.33-7.28-13.51-10.13-15.43-6.08-4.25-10.66-8.66-14.82-16.02-2.17-3.85-5.85-12.31-9.1-14.24-8.56-4.96-16.85-12.19-20.98-19.99-3.06-5.71-4.28-11.89-8.26-17.49-4.27-6.03-10.23-10.53-15.36-14.89 3.9 26.47 16.37 57.83 24.95 84.87 11.54 36.13 25.54 68.96 41.33 103.07M1417.22 1916.65c28.45 63.86 58.37 111.91 97.26 168.12 5.09 7.36 9.64 14.58 14.08 21.48 2 3.11 11.56 16.86 13.55 19.77 13.05 19.69 18.52 25.71 31.87 44.53 3.62 5.11 6.55 9.13 8.08 15.04 2.85 11.01-6.61 18.39-8.78 28.96-2.2 10.79-1.01 22.57 3.95 31.68 3.11 5.7 6.19 7.93 9.31 15.58 6.07 14.73 3.97 46.58 10.88 47.42-1.75-15.12-2.15-32.12.22-46.62 2.77-16.93 13.04-27.19 17.28-45.12 11.42 2.06 23.83 1.56 33.44.73 9.54-.81 21.61 1.84 31.4 5.19 13.26 4.53 24.27 12.78 37.79 15.98-11.5-11.06-27.72-15.2-41.32-23.59-5-3.14-9.71-7.29-13.05-12.45-5.47-8.51-9.79-16.65-18.35-20.37-15.19-6.64-28.23-3.49-45.57-6.71-25.76-26.54-50-62.63-72.38-100.59-56.73-95.97-104.03-195.36-131.54-297.29 9.51 17.73 18.6 34.89 28.9 51.76 11.39 18.74 24.18 37.09 38.13 55.47 32.66 43.05 64.97 80.64 101.17 120.18 29.22 31.97 61.25 58.76 96.96 81.18 47.2 29.57 105.42 50.29 156.57 39.61 5.82-1.36 14.14-2.91 17.77-6.74-64.11 8.97-121.54-13.42-164.4-47.75-33.85-27.07-62.39-54.56-91.39-90.26-14.98-17.21-28.45-36.13-41.83-54.46-14.02-19.27-26.44-39.55-38.77-59.83-41.54-68.6-73-141.24-96.12-216.5-.66-2.39-.8-4.79-1.46-7.16 1.1 1.69 2.72 3.52 3.81 5.25 31.13 50.6 68.56 99.44 115.96 132.22 4.14 2.82 8.46 8.25 9.56 12.53 5.14 20.09-10.18 29.75 11.01 57.52 4.86 6.38 11.5 8.71 16.09 14.63 8.68 13.41 15.75 37.42 23.01 43.86-3.65-15.63-12.62-32.13-14.54-48.25-2.03-17.68 2.5-32.15 3.28-50.89 12.53-1.71 22.21-7 32.04-10.03 15.27-4.77 24.44-3.56 39.56-2.25 6.46.54 18.15 4.31 25.11 2.89-14.62-7.99-34.34-6.51-49.29-14.15-10.46-5.35-13.49-13.26-27.91-16.05-12.84-2.5-23.64-1.15-31.99 3.13-6.49 3.27-11.56 4.64-17.39 1.85-15.56-7.48-26.18-18.02-38.7-30.65-29.08-29.27-52.81-61.92-74.97-104.75a571.284 571.284 0 0 1-16.13-34.24c-2.46-5.67-8.58-21.34-8.58-21.34h-75.99s-.19 21.9.52 29.9c1.46 15.94 3.62 27.76 6.73 43.93 4.4 23.27 8.72 44.38 14.74 66.95 5.89 21.95 12.23 42.55 19.75 63.64 15.72 43.97 32.41 86.07 50.67 127.06M682.555 1324.81c27.734 22.68 48.265 35.82 75.96 52.33 11.243 6.73 28.255 14.34 41.333 20.26 47.984 21.68 111.464 37.66 171.27 38.76 1.085 0 1.015-.05 1.015-.05h445.917s-1.67.05 1.55.05c14.19 0 28.23-4.94 36.92-13.13 8.69-8.26 12.86-20.98 15.13-33.62 1.93-10.79.98-20.38-1.53-31.9-1.96-9.11-3.44-14.54-8.5-22.28-3.07-4.71-5.98-7.94-11.68-12.48-5.86-4.68-14.16-6.3-23.68-6.39-1-.05-3.12-.1-3.05-.08.1.08-521.565.08-521.565.08s-3.243.01-4.868.01c-34.144.11-70.1-1.63-103.84-6.04-25.843-3.52-51.738-7.56-76.722-14.07-31.504-8.22-61.836-19.61-92.113-30.9 16.79 22.31 36.164 41.24 58.453 59.45"></path><path d="M837.395 1502.22c27.39 19.79 60.656 36.03 90.117 47.31 14.953 5.67 34.816 11.94 50.593 15.87 19.067 4.8 40.975 8.41 58.835 8.93 5.39.15.79.04.79.04l382.46.04s8.19-.43 11.04-.99c7.18-1.55 12.98-4.49 15.39-6.02 5.94-3.8 13.39-11.81 17.29-18.13 9.93-16.36 11.68-34.01 8.47-52.37-3.68-20.98-19.61-44.87-41.23-45.46-3.77-.09-11.28 0-11.28 0h-414.24s-24.107-.47-35.122-.87c-20.375-.79-42.965-3.12-60.75-5.73-15.215-2.19-30.074-5.08-45.317-9.15-51.065-13.8-95.44-39.69-141.85-59.84 31.254 54.63 73.54 96.48 114.805 126.37M623.438 1242.29c66.484 39.27 146.582 54.77 219.89 57.23 1.738.08 5.22.19 5.22.19l571.742-.04s1.03 0 6.21.04c34.65.04 47.3-34.35 47.14-62.15-.06-9.15-1.62-18.5-4.15-24.78-3.3-8.19-6.95-14.87-12.89-21.32-2.13-2.35-9.79-7.74-13.18-8.57-7.92-1.93-17.67-1.72-17.61-1.72.07 0-425.27-.07-425.27 0 0 0-22.946.93-38.864 2.46-11.477 1.14-20.184 2.34-32.098 4.6-29.285 5.82-53.562 15.36-78.926 23.18-16.918 5.22-34.71 9.12-53.273 11.93-34.134 5.23-71.42 7.61-105.892 4.99-43.847-3.25-82.85-11.85-124.554-25.09 7.054 11.01 36.37 27.13 56.504 39.05"></path><path d="M931.402 1063.01c-19.55 6.89-38.613 15.78-55.726 27.08-22.28 14.75-33.203 26.47-62.008 39.77-24.648 11.4-44.328 22.64-78.69 35.08-16.583 6.02-43.447 14.28-66.482 18.24-32.906 5.58-64.633 8.03-64.633 8.03s6.72 4.19 10.77 5.43c33.586 10.22 63.25 15.22 97.738 17.77 30.247 2.26 58.036-.69 88.36-5.43 12.438-1.97 28.61-5.79 42.668-9.81 45.633-12.98 97.524-33.58 143.543-33.66 2.572 0 2.28.04 2.28.04h426.32c12.87.04 36.94-4.13 46.6-21.2 11.2-19.69 14.68-43.13 5.27-66.6-2.84-7.06-7.57-17.16-14.37-23.3-5.97-5.39-15.66-8.86-21.27-8.86-1.61-.08-4.39 0-4.39 0h-371.71-2.02c-38 0-85.853 4.61-122.248 17.42M1100.71 931.16c-10.5 10.8-25 27.352-38.14 43.04-25.23 30.08-36.53 57.18-36.53 57.18h247.92s.67-28.61-5.07-61.72c-5.36-30.762-16.72-63.172-28.8-86.672-.44-24.078 9.72-46.468 11.4-70.25-20.36-12.508-42.27-24.886-60.53-42.437-1.16-1.07-3.04-1.07-3.81 1.83-9.78 36.66-14.94 69.35-22.95 105.608-22.6 17.46-43.79 33.032-63.49 53.422M1356.22 951.512c-7.02 12.93-12.26 30.04-20.3 40.207-1.72-9.06.4-14.66-.82-23.33-1.14-7.28-7.1-4.26-8.31-.83-3.47 9.838-7.17 21.98-10.34 32.06-5.3 16.82-6.99 31.7-6.99 31.7l41.24.06s1.59-.39 2.32-4.42c1.97-10.39 1.49-20.53 4.34-32.562 3.66-15.52 8.36-29.68 14.07-44.136 4.95-12.73 11.34-25.57 16.54-38.21.7-1.66 1.05-4.853-.21-6.513-1.53-1.93-4.16-1.68-5.67 0-11.81 13.42-16.57 28.62-25.87 45.972M1420.06 922.012c-7.02 14.95-16.89 31.77-16.03 48.718 4.57-5.98 6.44-10.28 12.72-13.61 2.88-.92 8.9-.06 7.38 4.94-2.76 9.362-7.07 17.268-11.06 30.088-5.92 18.952-11.67 39.212-11.67 39.212l-42.1.02s2.35-17.08 11.91-43.29c8.4-23.23 21.39-49.79 35.61-74.668 11.59-20.5 22.11-38.363 35.26-53.32 4.5-5.153 15.53-.633 10.75 6.066-12.47 17.633-24.11 37.172-32.77 55.844M1693.41 2344.9c-9.14-3.97-17.21-9.13-21.76-17.91-3.32-6.31-5.56-15.92.78-21.34 11.11-9.48 24.38.23 29.75 9.92 6.79 12.35 5.03 35.95 5.03 35.95s-7.9-4.1-13.8-6.62"></path><path d="M1703.07 2285.96c4 7.54 12.75 15.68 22.33 21.51 10.85 6.63 22.07 13.07 29.88 17.72 7.81 4.69 9.3 7.99 9.3 7.99s-6.43-2.22-9.96-4.3c-19.27-11.49-40.31-24.55-48.86-28.32-10.8-4.71-25.48-5.62-38.7-7.31-2.11 16.68-6.45 23.62-6.39 38.44.11 7.11 1.83 16.33 3.03 22.77 4.14 21.43 4.95 32.24 4.95 32.24s-3.27-3.05-4.47-12.47c-1.34-8.53-2.3-11.66-4.24-21.74-2.23-11.62-4.55-21.47-11.51-28.73-10.01-10.37-19.3-28.82-11.56-42.96 4.51-8.26 12.04-7.07 14.4-9.19 2.36-2.12 3.79-7.21 10.92-9.57 15.39-5.14 32.84 8.66 40.88 23.92"></path><path d="M1683.12 2241.89c5.22 8.48 10.58 14.43 18.82 19.49 13.66 8.32 23.79 13.96 32.13 18.22 3.61 1.82 6.63 3.98 7.55 7.84-3.73-1.4-17.84-8.03-31.84-16.35-10.03-6-27.27-13.47-38.85-14-4.59-.2-8 .93-11.74 1.05-7.77.31-17.67-1.55-17.67-1.55s-2.51 10.97-5.82 18.88c-1.66 4.06-4.35 8.22-5.8 15.83-.97 5.08-1.26 12.7-.87 17.25 1.14 13.73 4.84 27.07 4.2 40.97-8.62-17.93-5.1-40.01-15.23-53.88-4.27-5.84-7.66-10.43-11.02-17.78-5.56-12.06-4.9-24.56 2.62-36.18 4.34-6.63 13.91-6.38 15.56-7.66 2.51-1.86 4.65-8.79 14.01-10.88 16.02-3.59 34.9 3.83 43.95 18.75M1687.6 1891.3c3.73 7.54 6.13 17.42 10.89 24.4-10.77-1.61-12.5-2.84-28.05-4.54-3.38-.32-10.4-3.84-12.71-6.15-6.15-6.21-11.52-11.97-9.14-22.38.93-4.06 4.5-7.03 6.49-7.65 12.93-4.2 26.06 3.49 32.52 16.32"></path><path d="M1700.72 1870.78c14.68 3.43 31.66 10.64 38.48 8.36-13.8-7.33-31.17-9.99-46.45-14.34-11.65-3.36-19.97-12.16-30.38-20.15-9.54-7.27-22.24-10.22-33.59-4.88-3.82 1.82-7.54 7.98-8.2 11.28-.59 2.63-6.07 5.27-8.88 7.57-2.85 2.37-4.21 8.26-4.27 10.53-.48 20.33 14.99 28.55 29.9 40.49 11.22 9 25.8 47.16 34.7 55.08-1.59-12.31-17.58-35.52-24.55-53.58-5.54-14.39-3.72-25.89-7.28-41.05 10.66-.68 22.53-2.91 33.26-3.09 8.43-.11 18.61 1.73 27.26 3.78"></path><path d="M1685.24 1839.43c-8.25-1.54-18.35-4.13-25.24-5.59-23.96-5.08-35.39 6.66-54.53 6.44 1.69 21.9-5.91 31.71.34 45.87 5.59 12.59 10.76 25.93 15.56 36.62 3.89 8.55 5.08 15.78 5.08 15.78s-5.82-8.69-22.33-40.85c-5.73-11.24-16.02-13.63-25.15-24.24-10.51-12.11-16.53-37.75 2.9-48.5 3.86-2.12 3.3-8.79 6.11-11.48 12.98-12.2 39.19-10.97 55.59 3.9 13.05 11.9 28.91 13.83 42.42 17.33 7.9 2.04 14.83 5.4 14.83 5.4s-3.74 1.53-15.58-.68M1205.23 1585.18c-.95 0-1.96 0 0 0zm-111.89 315.55c-7.98-10.57-11.68-22.7-20.5-31.93-4.6-4.82-11.62-2.57-15.26 3-4.05 6.28-10.6 15.18-5.73 21.4 8.01 10.26 24.76 16.8 39 14.95.84-.1 5.43-3.48 2.49-7.42zm-38.34-60.4c-4.47-11.96-17.79-13.25-29.14-15.62-2.12-.45-8.64 0-11.57 2.88-4.9 4.79-9.14 11.34-8.29 19.53.46 5.06 4.68 10.02 9.9 12.03 9.47 3.68 20.7 9.58 30.03 4.34 8.03-4.49 12.24-14.73 9.07-23.16zm-24.55-63.21c-3.26-4.72-11.64 10.94-12.73 18.12-3.13 20.76 15.07 26.07 30.24 25.43.47-12.39-9.13-31.57-17.51-43.55zm-16.38-56.04c-2.98-8.35-4.41-16.03-7.73-23.68-3.21-7.41-16.97-10.04-24.598-7.68-10.898 3.38-20.238 27.84-7.855 37.21 9.472 7.08 19.29 8.22 31.353 9.69 2.17.27 10.28-.22 10.6-.98 2.02-5.08.74-7.62-1.77-14.56zm-18.34-64.58c-2.2-6.42-3.175-13.02-6.02-19.19-1.417-3.13-3.284.98-3.358 1.18-4.278 10.65-6.977 19.66-3.33 29.03 2.06 5.19 9.162 9.96 15.9 10.37-.414-6.66-.887-14.89-3.192-21.39zm-21.648-31.5c-4.922 2.23-4.848 8.56-6.91 12.49-1.942 3.84-6.125 9.13-4.402 14.16 9.496-5.32 13.902-14.82 11.312-26.65zm-16.383 39.32c-11.337 9.31-12.317 24.21-19.864 35.61 8.332 5.34 22.39 4.27 26.707-6.29 3.453-8.47 5.965-20.93-2.63-27.4-.933-.69-3.143-2.81-4.214-1.92zm-42.25 76.85c-1.696 2.43-5.063 9.42-2.5 10.32 20.28 6.98 35.503 7.21 39.83-14.49 3.075-15.48-7.507-28.78-22.33-23.36-4.25 1.57-8.458 18.06-15 27.53zm-29.497 48.99c-1.422 1.78-2.574 7.18-.808 8.56 10.546 8.48 26.03 9.12 38.015 7.95 15.817-1.43 19.067-16.13 16.43-28.32-3.48-16.03-27.81-18.03-34.695-15.36-6.766 2.6-11.493 17.94-18.942 27.17zm3.442 57.03c13.667 8.86 39.79 15.43 44.14-8.56 1.324-7.24-.476-16.83-10.254-19.98-10.026-3.21-21.84-6.68-31.007-2.96-11.265 4.61-13.484 24.64-2.878 31.5zm-14.165 40.36c1.036 4.6 6.133 6.78 10.415 7.88 11.066 2.73 23.433 6.85 33.59.38 3.956-2.51 4.26-6.05 4.773-11.02.898-8.07-.246-14.66-5.555-17.75-10.78-6.32-21.742-6.88-34.265-4.42-10.157 2-10.985 15.46-8.958 24.93zm-11.34-62.21c-9.464 7-13.652 16.91-20.628 26.71-1.684 2.4 0 3.39 1.285 3.77 16.816 4.75 29.28-3.64 26.664-21.96-.468-3.56-2.78-11.85-7.32-8.52zm-46.378 56.61c-6.3 5.44-1.922 14.92 3.566 17.68 9.61 4.77 24.707 5.49 34.703 2.12 6.44-2.16 9.685-11.4 8.53-21.46-.486-4.14-1.736-8.68-3.763-10.02-7.61-5.19-19.387-5.39-28.65-3.47-6.55 1.38-8.877 10.34-14.385 15.15zm-7.262 57.25c6.09 13.25 28.31 13.36 40.402 7.46 9.856-4.85 11.094-23.19.332-30.43-8.582-5.71-22.113-3.61-31.218-1.94-12.934 2.38-13.965 15.1-9.516 24.91zm.492 49.6c9.235 8.79 21.188 4.75 32.305 3.22 2.152-.31 4.72-1.82 6.176-3.28 7.593-7.67 8.195-20.23-.262-26.52-9.75-7.25-21.925-2.54-33.644-1.95-3.164.13-6.644 3.85-7.367 6.23-2.11 7.42-3.395 16.49 2.792 22.3zm5.953 41.5c9.79 4.09 26.633 5.97 33.57-5.03 4.262-6.75 3.02-19.22-3.816-21.04-6.688-1.72-29.454-5.51-34.903 7.08-2.703 6.19-1.563 16.17 5.148 18.99zm30.153 35.25c2.84-1.25 4.605-3.52 5.277-7 1.395-7.56-.594-15.75-7.844-17.08-10.885-1.99-27.05-2.61-26.995 12.78.04 17.17 16.957 16.98 29.563 11.3zm-21.914 31.92c5.793 2.22 15.332 1.73 20.53-.99 2.622-1.36 6.153-5.67 4.67-10.22-1.85-5.92-7.36-8.06-13.63-8.14-6.02-.05-12.918.42-15.356 5.34-2.304 4.66-1.324 12.04 3.786 14.01zm6.765 25.75c5.296 1.93 13.128 1.8 16.984-2.38 5.304-5.8 1.117-15-8.883-14.54-3.527.14-7.698 1.36-9.827 2.57-5.176 2.92-3.457 12.5 1.726 14.35zm23.812 16.58c.68 2.24 4.168 4.85 5.98 5.5 3.973 1.41 8.63 1.7 12.43.18 7.605-3.12 6.562-12.53-1.56-15.82-3.632-1.48-9.21-2.43-11.948-1.48-5.117 1.74-6.53 6.17-4.902 11.62zm23.687-36.76c-8.298-2.42-19.852-2.89-22.33 5.6-4.202 14.43 14.005 16.59 23.45 13.56 6.512-2.06 8.813-16.31-1.12-19.16zm5.484 47.63c2.628 8.94 12.76 13.78 21.933 11.06 7.89-2.31 9.707-13.07 4.38-18.28-2.41-2.36-6.407-4.74-10.704-5.69-9.38-2.1-18.598 3.07-15.61 12.91zm41.254-32.79c-1.485-5.83-5.762-9.84-12.618-11.36-6.804-1.49-16.21-1.91-19.984 2.29-3.602 3.98-5.254 9.58-2.25 13.88 6.023 8.55 17.043 11.55 26.875 9.37 5.602-1.31 9.716-7.04 7.978-14.18zm-3.657 34.3c3.658 8.12 12.954 12.2 21.876 9.48 1.785-.57 5.47-3.46 5.977-6.29 1.062-5.64-.9-10.8-5.606-13.74-6.035-3.84-11.015-6.01-17.95-3.17-5.198 2.18-6.472 8.93-4.296 13.72zm38.44-22.77c4.07-6.9-2.134-13.84-5.282-15.73-6.985-4.09-16.844-6.61-21.05.32-4.146 6.8-.716 14.86 6.507 17.85 6.894 2.86 14.03 7.2 19.824-2.44zm11.585-26.37c4.558-3.77 8.57-11.7 3.093-17.97-5.132-5.9-11.52-7.67-19.582-8.98-5.464-.92-12.44 3.12-13.32 7.95-.816 4.14-1.574 11.71 2.54 15.19 8.023 6.84 18.776 10.79 27.27 3.81zm9.672 44.98c4.308-1.27 7.062-5.82 4.902-10.22-1.314-2.71-5.18-5.64-7.646-7.16-6.77-4.16-12.574-2.46-14.69 2.52-3.9 9.14 9.206 17.29 17.433 14.86zm16.503-22.79c4.75-.43 6.93-3.73 7.86-7.37 1.23-4.86-.37-9.37-4.48-12.14-4.895-3.25-10.993-5.16-15.868-5.24-6.59-.1-12.7 9.56-9.13 15.85 3.79 6.74 13.31 9.62 21.618 8.9zm27.28-34.89c2.81-8.28-3.26-12.14-9.66-15.54-6.5-3.48-15.23-6.71-19.745-2.4-5.757 5.44-8.332 14.58-1.902 20.61 8.917 8.37 25.407 14.65 31.307-2.67zm11.77-20.78c10.46-1.32 12.54-16.2 10.43-21.58-2.39-4.61-7.66-8.23-10.43-9.65-7.67-3.96-16.64-5.46-23.69-1.8-6.43 3.33-9.21 13.08-5.72 20.73 4.73 10.33 19.63 13.6 29.41 12.3zm21.52-46.03c3.59-5.01 2.8-13.89.68-16.66-6.6-9.02-24.96-14.17-32.54-10.48-5.75 2.82-11.44 15.5-4.69 23.12 7 7.89 19.21 12.61 30.3 10.29 2.46-.54 4.09-3.26 6.25-6.27zm4.64-28.37c5.04-.54 9.51-6.08 11.95-12.11 3.16-7.8-.04-16.9-2.54-18.59-6.02-4.09-25.08-15.57-37.08-8.7-6.6 3.79-8.42 12.44-8.83 17.56-1.33 16.5 23.72 23.26 36.5 21.84zm-70.39-118.1c-2.57 6.56-4.945 16.24.2 20.23 10.39 8.19 33.89 15.37 42.83 2.97 5.82-8.06 4.11-21.7-6.07-26.93-10.5-5.36-31.037-11.53-36.96 3.73zm-50.413-.72c10.43 5.31 25.457 11.7 36.687 4.47 5.137-3.29 10.442-16.96 6.817-23.02-7.695-12.87-27.96-16.15-40.843-12.84-10.97 2.85-14.274 25.53-2.66 31.39zm-9.375 44.49c12.582 8.86 37.44 14.58 43.422-4.76 1.55-5.02 2.44-10.57-.122-14.62-6.976-11.22-24.664-14.17-36.496-12.5-12.804 1.86-18.847 23.44-6.804 31.88zm-10.59 45.08c12.09 6.86 37.855 15.97 43.918-3.67 2.43-8.03 2.183-17.95-4.692-21.49-9.85-5.17-25.46-10.58-36.812-3.5-9.477 6-10.758 23.89-2.414 28.66zm67.676 81.03c-5.07-4.52-10.207-5.49-16.95-7.78-9.437-3.2-19.312 4.07-20.402 13.1-1.816 15.45 14.75 17.76 25.715 19.69 7.98 1.44 12.93-5.74 14.403-10.56 1.504-4.64 1.31-10.87-2.765-14.45zm20.302-36.37c-7.19-10.71-36.166-17.45-42.556-6.43-4.668 8.06-7.567 19.39 1.203 24.8 9.22 5.66 20.137 9.05 30.863 7.11 10.08-1.77 15.21-18.36 10.49-25.48zm15.44-66.33c4.13-6.56 7.01-15.38.89-23.52-5.55-7.46-25.37-10.94-35.52-8.48-5.565 1.4-8.194 8.16-9.05 12.72-1.172 6.17-1.73 12.38 3.73 17.42 7.856 7.19 18.34 7.03 28.41 7.03 4.14 0 9.99-2.68 11.54-5.17zm-5.75 22.26c-6.17-11.34-27.09-12.8-36.492-11.55-6.625.89-11.29 11.57-11.094 20.51.066 4.59 1.5 7.64 4.648 9.33 10.438 5.6 21.133 9.35 32.368 7.53 10.96-1.74 15.22-17.23 10.57-25.82zm-110.07 24.42c-7.118 21.88 20.218 28.78 36.168 25.41 11.105-2.31 14.816-23.65 4.48-30.38-12.777-8.32-35.477-11.01-40.648 4.97zm-41.22-53.72c8.188 8.44 22.973 8.96 34.512 7.42 7.086-.99 10.14-8.15 11.126-15.93 2.765-21.37-25.938-24.97-39.594-19.97-9.004 3.29-13.68 20.58-6.043 28.48zm-5.78 41.41c8.566 10.07 22.875 12.46 34.738 9.2 7.238-1.97 10.59-10.43 10.426-19.91-.137-5.38-3.83-9.28-7.137-10.64-8.434-3.42-18.168-5.97-27.37-4.85-11.34 1.4-18.22 17.27-10.657 26.2zm1.363 45.11c10.527 4.29 30.144 8.13 33.453-6.9 4.46-20.03-19.164-23.29-31.797-19.8-9.67 2.65-11.505 22.72-1.657 26.7zm75.73 33.09c7.867-4.47 9.52-17.08 4.73-24.39-6.366-9.67-28.132-15.28-39.847-6.82-6.68 4.85-10.277 24.73 3.41 29.5 10.938 3.83 21.414 7.54 31.707 1.71zm-11.16 14.38c-8.926-5.52-21.656-7.72-30.098-3.02-7.343 4.01-7.054 14.75-3.417 20.51 5.988 9.62 20.86 10.67 31.132 7.66 8.864-2.57 12.188-19.05 2.383-25.15zm-72.28 15.68c.9 2.86 2.175 3.67 3.956 4.54 7.5 3.58 15.745 4.55 22.93-.07 5.178-3.36 4.725-11.09.885-15.11-5.62-5.91-17.047-6.16-24.36-2.31-4.726 2.46-4.94 8.29-3.413 12.95zm2.397-31.35c3.325 9.48 15.153 8.95 24.114 7.8 11.01-1.44 13.218-15.57 9.304-21.5-5.41-8.21-17.758-6.63-27.59-5.39-7.98 1.03-8.46 11.61-5.828 19.09zm155.51-285.2c2.71-10.71 0-20.9-9.53-24.3-12.25-4.32-28.812-10.65-38.61-4.06-11.194 7.51-16.588 28.81-3.717 37.17 15.195 9.93 45.437 16.45 51.857-8.81zm-16.506 33.3c-8.238-9.35-21.672-9.05-34.86-12.91-5.093-1.48-11.124 3.01-13.78 7.67-4.875 8.71-9.758 20.37-.418 28.77 7.742 7.05 18.28 6.46 27.757 9.28 4.25 1.29 9.457 2.77 14.618-.72 10.68-7.29 14.84-22.91 6.684-32.09zm87.296 140.15c2.33-6.81 5.45-11.81 2.8-18.59-3.14-8.32-11.21-9.46-18.79-12.2-7.07-2.56-18.86-5.8-24.78.4-6.8 7.04-9.55 21.39-1.41 27.54 10.56 7.86 36.61 18.7 42.18 2.85zm143.3 61.18c6.23 25.39 13.96 51.14 15.9 77.97 2.85 40.08-5.8 81.72-31.5 112.08 2.52-13.08 5.88-24.15 7.64-37.89 2.08-16.58-.25-35.06-4.54-51.76-3.25-12.65-8.94-24.93-14.59-36.67-6.66-13.92-16.63-29.04-26.56-41.45-27.8-34.59-71.13-102.08-71.13-102.08s-3.63.27-5.79.27c-.5 8.4 19.45 37.22 29.51 53.35 22.09 35.34 38.83 54.37 58.04 85.03 12.05 19.32 21.23 42.83 24.19 64.15 5.99 43.43-17.43 95.48-51.1 112.8 7.7-32.45 6.89-78.16-10.38-97.4-32.69-36.43-52.12-63.69-75.46-110.39-.66-1.26-6.12 6.29-10.63 9.23-5.07 3.35-2.23 13.36-4.05 20.11-1.64 5.73-4.34 10.14-5.13 11.15-6.91 8.46-13.59 8.99-15.04 11.53-1.67 2.86-.87 10-6.89 18.14-3.01 4.08-10.68 7.11-13.8 10.95-3.37 4.21-4.91 17.06-14.22 22.33-4.417 2.48-6.468 10.19-10.71 13.97-13.09 11.59-26.157 9.35-28.657 10.08-3.367.91-9.937 9.27-21.632 11.28-11.44 1.94-17.734-5.68-23.663-2.92-14.9 6.89-29.165 7.46-44.99-10.18-4.753-5.25-12.956-.35-23.21-8.18-8.996-6.86-9.16-13.2-13.75-14.07-8.61-1.61-15.023-8.5-18.35-16.02-1.72-3.88-3.017-11.7-4.025-16.86-1.41-7.12-5.01-13.7-5.082-18.93-.082-7.28 2.215-11.22 1.575-14.47-1.063-4.72-4.88-9.03-5.344-13.44-.35-2.5-.558-9.17 1.262-12.91 2.29-4.62-1.613-8.64-3.632-13.56-1.93-4.59-3.965-12.42-3.352-17.95.82-7.6 5.164-10.37 1.793-16.35-5.542-9.72-12.538-24.89-.268-44.26 2.25-3.54-5.14-10.42-5.555-20.54-.473-10.99 6.172-19.12 7.98-24 .348-1.74-2.914-1.64-3.03-3.52-29.224 30.89-55.075 59.39-88.954 86.21-20.703 16.37-41.176 30.13-64.117 42.41-61.285 32.86-132.488 54.85-196.988 46.83 24.29-19.57 54.937-33.52 79.89-55.72 23.64-21.06 45.09-39.04 66.62-61.42 33.798-35.1 61.26-70.7 89.872-112 8.496-12.23 14.09-20.42 22.012-33.17 7.98-12.76 16.836-26.32 24.102-38.96 36.617-63.58 66.62-122.44 96.98-187.59 8.426-18.02 15.504-36.88 23.766-54.79 2.207-4.85 5.375-1.25 7.605 0 10.985 6.36 22.65 11.66 34.055 17.04 9.094 4.18 17.375 7.06 25.508 10.19 20.543 7.82 40.035 12.07 61.55 16.54 35.912 7.52 100.432 5.98 100.432 5.98l122.35.05h3.33c-1.28 35.06-9.6 69.13-11.63 104.31-1.55 28.49-.6 56.04.41 84.59 2.73 77.36 14.1 160.39 31.38 230.88M395.14 2295.17c-23.874-23.81-30.992-32.56-44.913-58.88-8.196-15.47-18.606-35.33-21.575-60.93 49.05 18.67 89.075 56.78 125.235 98.87 26.754 31.2 47.504 72.6 73.883 103.42-46.465-15.58-95.5-45.51-132.63-82.48"></path><path d="M254.71 2228.25c18.497 31.25 44.985 65.02 72.442 88.07-12.718-28.58-28.38-56.88-33.76-90.68-10.677-67.26-20.75-114.39-31.912-175.78 30.508 21.75 62.684 55.94 95.036 79.82 24.992 18.36 50.043 30.63 75.754 48.3 15.273 10.54 25.242 24.08 37.945 36.76-15.14-63.84-71.16-128.26-111.274-158.31-50.385-37.79-68.448-43.81-149.424-126.15-10.278 101.67-8.446 207.33 45.195 297.97"></path><path d="M89.523 1890.6c3.774 52.8 10.106 95.02 22.934 146.52 8.984 35.97 28.34 89.5 56.238 111.47-3.414-13.05-5.21-32.6-6.527-45.79-5.47-54.4 4.94-117.57 6.184-171.91.617-26.71.382-47.31-3.61-72.42-4.14-26.32-.683-58.61-.683-58.61s14.413 16.47 27.292 36.99c28.152 44.7 37.164 57.97 59.836 82.19 28.132 30.04 59.597 57.87 95.124 82.52-4.28-16.7-22.42-49.17-29.92-62.21-10.005-17.46-14.54-33.31-38.212-72.85-33.313-55.55-48.157-63.05-85.145-122.45-8-12.92-40.844-62.07-48.8-77.09-17.325 35.87-23.868 67.2-45.118 125.57-13.355 36.67-11.363 73.36-9.594 98.07"></path><path d="M38.094 1615.93c-20.086 52.08-29.293 100.4-36.098 155.22-4.16 33.56-2.226 78.27 9.742 110.53 3.145-7.88 9.547-27.87 10.418-30.86 8.91-29.96 12.633-44.35 25.078-73.25 9.528-22.17 21.168-39.83 33.633-61.73 11.324-20 20.89-46.31 29.082-66.46 26.374-64.56 28.327-125.01 38.413-131.61 7.262 15.54 9.535 30.42 10.348 37.74 7.837 71.45 17.25 136.39 107.224 220.61 8.26-25.07 4.07-71.28-.88-96.03-10.76-54.12-19.452-80.12-43.284-132.57-12.598-27.62-29.422-68.26-34.036-81.72-12.082-35.07-16.218-53.45-23.812-74.19-42.48 70.78-94.766 143.87-125.828 224.32"></path><path d="M108.12 1290.31c-30.237 42.11-41.265 63.27-60.948 108.07-16.524 37.6-21.278 51.53-30.96 93.63-5.286 22.95-8.278 43.78-4.173 57.35 23.683-42.87 39.84-90.86 70.816-126.4 24.585-28.21 48.273-52.24 67.82-76.04 29.992-36.59 53.61-71.22 82.386-109.3 2.422 19.08 3.36 38.43-.93 69.71-5.855 42.86-2.245 77.99 5.247 119.49 9.48 52.64 16.444 78.71 34.71 131.97 22.348-43.83 22.262-94.53 27.87-141.01 10.825-90.21-17.386-197.78-22.94-242.61-1.485-11.82.562-40.97 1.16-52.33-42.203 33.25-79.742 66.8-116.14 103.3-16.587 16.54-39.345 43.96-53.92 64.17"></path><path d="M268.105 959.53c-19.218 13.84-70.843 53.3-95.29 84.36-35.596 45.21-43.44 64.58-66.924 116.59-2.867 6.34-16.163 35.78-17.245 55.77 76.937-92.91 145.824-106.74 219.222-183.83 26.938-28.25 54.52-54.83 69.07-68.158 11.176-10.274 25.05-13.403 25.05-13.403s-1.444 19.812-8.69 33.58c-48.965 93.62-58.207 191.45-50.78 296.46 22.35-27.68 29.4-46.14 43.58-72.91 15.434-29.15 23.3-47.18 30.512-65.12 41.902-104.28 52.8-224.73 78.695-285.358-79.914 26.918-142.844 41.297-227.2 102.02"></path><path d="M595.828 713.45c-21.613-1.47-63.996-1.33-86.586 2.35C394.848 734.103 288.512 817 235.027 908.08c48.496-29.59 83.563-49.348 126.22-64.117 37.976-13.12 74.003-17.01 137.41-35.02 38.26-10.8 76.144-26.13 89.452-31.112 42.417-15.797 60.28-11.906 60.28-11.906s0 6.437-15.847 23.726c-31.574 34.46-43.14 42.71-69.12 69.192-8.528 8.762-28.075 38.488-37.997 58.25-28.07 55.88-31.192 100.68-56.828 162.05 93.558-54.93 139.13-130.73 188.59-226.32 15.21-29.25 35.777-63.058 54.57-81.66 12.633-12.46 30.445-31.41 30.445-31.41s-13.047-3.078-53.672-9.07c-18.218-2.668-57.05-14.75-92.702-17.23M1049.31 706.18c49.4-8.06 93.28-20.07 138.19-35.48 12.09-4.15 30.45-13.29 43.17-19.73 31.85-16.19 50.16-26.72 77.52-45.54 44.07-30.34 91.41-63.04 134.12-112.66.92-.98 7.82-8.36 3.22-11.97-8.36-6.538-28.99-15.902-35.84-9.83-39.09 34.75-37.12 45.89-84.49 88.78-12.14 10.93-30.48 26.29-52.39 41.27-21.38 14.628-47.22 30.61-71.22 42.45-21.82 10.73-55.43 13.94-74.3 13.94l.26-.13c-8.57.34-57.84.6-69.24-.14-96.806-6.628-92.072-15.288-147.888-30.41-45.91-12.492-95.164-21.39-144.055-27.95-50.09-6.8-94.906-7.62-141.86-2.82-63.648 6.54-133.277 24.29-185.237 57.77 47.51-.8 96.3-9.93 143.566-6.308 19.894 1.54 52.16 4.527 74.012 11.27 43.422 13.328 68.328 18.546 114.308 31.347 39.512 11.01 79.348 14.812 120.606 19.15 57.105 6.12 109.998 4.74 157.548-3.01M1934.52 2295.17c23.89-23.81 31.03-32.56 44.96-58.88 8.19-15.47 18.6-35.33 21.56-60.93-49.08 18.67-89.06 56.78-125.25 98.87-26.77 31.2-47.49 72.6-73.88 103.42 46.48-15.58 95.51-45.51 132.61-82.48"></path><path d="M2074.99 2228.25c-18.52 31.25-44.99 65.02-72.45 88.07 12.85-30.75 31.57-69.05 33.76-90.68 6.83-67.74 20.75-114.39 31.92-175.78-30.5 21.75-62.72 55.94-95.06 79.82-24.94 18.36-50.03 30.63-75.7 48.3-15.32 10.54-25.26 24.08-37.98 36.76 15.14-63.84 71.16-128.26 111.28-158.31 50.37-37.79 68.44-43.81 149.37-126.15 10.28 101.67 8.46 207.33-45.14 297.97"></path><path d="M2240.16 1890.6c-3.8 52.8-10.07 95.02-22.92 146.52-8.98 35.97-28.34 89.5-56.29 111.47 3.46-13.05 5.23-32.6 6.57-45.79 5.51-54.4-4.89-117.57-6.18-171.91-.61-26.71-.39-47.31 3.59-72.42 4.15-26.32.72-58.61.72-58.61s-14.42 16.47-27.33 36.99c-28.09 44.7-37.12 57.97-59.85 82.19-28.1 30.04-59.59 57.87-95.13 82.52 4.33-16.7 22.46-49.17 29.96-62.21 10.04-17.46 14.52-33.31 38.22-72.85 33.3-55.55 48.15-63.05 85.1-122.45 8-12.92 40.9-62.07 48.84-77.09 17.34 35.87 23.86 67.2 45.13 125.57 13.38 36.67 11.38 73.36 9.57 98.07"></path><path d="M2291.6 1615.93c20.08 52.08 29.26 100.4 36.11 155.22 4.17 33.56 2.2 78.27-9.74 110.53-3.15-7.88-9.54-27.87-10.43-30.86-8.93-29.96-12.63-44.35-25.05-73.25-9.53-22.17-21.24-39.83-33.66-61.73-11.33-20-20.88-46.31-29.13-66.46-26.33-64.56-28.28-125.01-38.38-131.61-7.28 15.54-9.54 30.42-10.33 37.74-7.85 71.45-17.26 136.39-107.23 220.61-8.28-25.07-4.08-71.28.84-96.03 10.81-54.12 19.53-80.12 43.32-132.57 12.6-27.62 29.43-68.26 34.07-81.72 12-35.07 16.17-53.45 23.82-74.19 42.45 70.78 94.73 143.87 125.79 224.32"></path><path d="M2221.57 1290.31c30.28 42.11 41.27 63.27 60.94 108.07 16.54 37.6 21.26 51.53 30.98 93.63 5.29 22.95 8.26 43.78 4.15 57.35-23.62-42.87-39.86-90.86-70.84-126.4-24.54-28.21-48.23-52.24-67.79-76.04-29.95-36.59-53.63-71.22-82.37-109.3-2.41 19.08-3.39 38.43.88 69.71 5.88 42.86 2.27 77.99-5.2 119.49-9.5 52.64-16.45 78.71-34.71 131.97-22.32-43.83-22.25-94.53-27.88-141.01-10.85-90.21 17.44-197.78 22.98-242.61 1.45-11.82-.6-40.97-1.19-52.33 42.2 33.25 79.74 66.8 116.14 103.3 16.58 16.54 39.29 43.96 53.91 64.17"></path><path d="M2061.6 959.53c19.2 13.84 70.85 53.3 95.28 84.36 35.6 45.21 43.44 64.58 66.93 116.59 2.83 6.34 16.16 35.78 17.24 55.77-76.93-92.91-145.83-106.74-219.23-183.83-26.91-28.25-54.49-54.83-69.05-68.158-11.18-10.274-25.05-13.403-25.05-13.403s1.44 19.812 8.66 33.58c48.99 93.62 58.23 191.45 50.76 296.46-22.27-27.68-29.37-46.14-43.54-72.91-15.4-29.15-23.3-47.18-30.48-65.12-41.93-104.28-52.89-224.73-78.76-285.358 79.98 26.918 142.88 41.297 227.24 102.02"></path><path d="M1733.86 713.45c21.66-1.47 64.01-1.33 86.63 2.35 114.38 18.302 220.69 101.2 274.18 192.278-48.55-29.59-83.61-49.348-126.22-64.117-38.01-13.12-74.01-17.01-137.38-35.02-38.3-10.8-76.17-26.13-89.49-31.112-42.41-15.797-60.28-11.906-60.28-11.906s0 6.437 15.84 23.726c31.59 34.46 43.17 42.71 69.1 69.192 8.55 8.762 28.11 38.488 38.02 58.25 28.07 55.88 31.2 100.68 56.87 162.05-93.56-54.93-139.23-130.73-188.65-226.32-15.19-29.25-35.74-63.058-54.52-81.66-12.62-12.46-30.46-31.41-30.46-31.41s13.04-3.078 53.69-9.07c18.2-2.668 57-14.75 92.67-17.23M1280.38 706.18c-49.38-8.06-93.23-20.07-138.18-35.48-12.13-4.15-30.46-13.29-43.18-19.73-31.84-16.19-50.12-26.72-77.51-45.54-44.108-30.34-91.377-63.04-134.127-112.66-.922-.98-7.852-8.36-3.223-11.97 8.39-6.538 29.028-15.902 35.817-9.83 39.105 34.75 37.117 45.89 84.523 88.78 12.1 10.93 30.43 26.29 52.39 41.27 21.42 14.628 47.18 30.61 71.22 42.45 21.78 10.73 55.45 13.94 74.29 13.94l-.28-.13c8.59.34 57.84.6 69.27-.14 96.82-6.628 92.05-15.288 147.85-30.41 45.94-12.492 95.19-21.39 144.08-27.95 50.06-6.8 94.92-7.62 141.86-2.82 63.66 6.54 133.26 24.29 185.21 57.77-47.48-.8-96.24-9.93-143.56-6.308-19.9 1.54-52.13 4.527-73.98 11.27-43.43 13.328-68.36 18.546-114.31 31.347-39.51 11.01-79.35 14.812-120.59 19.15-57.12 6.12-110.02 4.74-157.57-3.01M1103.64 2834.65l-86.95-322.88h-92.31l-57.743 210.34-56.45-210.34h-92.082l-86.953 322.88h86.91l49.528-222.26 59.582 222.26h83.055l56.527-222.26 52.006 222.26h84.88M1390.52 2772.2h-148.53v-60.07h137.69v-62.45h-137.69v-137.91h-82.83v322.88h231.36v-62.45M1628.4 2730.88c0 9.09-2.47 16.91-7.38 23.47-4.91 6.57-10.62 11.15-17.13 13.74-8.67 3.46-17.13 5.37-25.36 5.73-8.25.36-19.23.55-32.97.55h-14.31v-96.5h23.85c14.17 0 25.84.87 35.03 2.6 9.18 1.73 16.87 5.2 23.09 10.39 5.34 4.61 9.21 10.13 11.59 16.54 2.39 6.42 3.59 14.25 3.59 23.48zm86.09 1.85c0-14.45-2.54-28.58-7.6-42.39-5.06-13.8-12.29-25.4-21.68-34.8-12.87-12.73-27.21-22.34-43.05-28.84-15.82-6.5-35.52-9.75-59.08-9.75h-51.83v-105.18h-83.27v322.88h137.05c20.52 0 37.83-1.77 51.93-5.31 14.09-3.55 26.57-8.86 37.41-15.95 13.01-8.53 22.95-19.43 29.81-32.73 6.86-13.31 10.31-29.28 10.31-47.93M498.69 257.87L440.65 70.57h-63.75L338.73 196.84 301.023 70.57h-64.378l-57.543 187.3h62.988l32.152-129.09 39.97 129.09h53.206l37.996-129.09 31.637 129.09h61.64M649.148 286.06h-4.492c-2.66.792-6.12 1.678-10.386 2.67-4.274 1-8.848 1.508-13.727 1.508-11.758 0-19.715-2.11-23.867-6.34-4.16-4.226-6.238-12.386-6.238-24.52v-1.507h46.203v-40.68H592.44V70.57h-60.215v146.62H506.53v40.68h25.693v5.18c0 22.9 6.093 40.09 18.265 51.54 12.18 11.46 30.61 17.18 55.293 17.18 8.9 0 16.962-.3 24.185-.918 7.23-.602 13.63-1.41 19.183-2.422v-42.37M788.53 165.55c0 18.212-3.108 31.43-9.315 39.64-6.22 8.208-16.035 12.322-29.465 12.322-5.656 0-11.48-.87-17.47-2.59-5.99-1.71-11.698-4.184-17.14-7.402v-94.09c3.993-1.55 8.266-2.56 12.813-3.008 4.547-.442 9.043-.66 13.485-.66 15.86 0 27.68 4.636 35.45 13.886 7.757 9.282 11.643 23.25 11.643 41.903zm61.88 1.26c0-15.458-2.363-29.52-7.074-42.208-4.723-12.672-10.918-23.122-18.578-31.352-7.996-8.68-17.055-15.23-27.156-19.668-10.106-4.473-20.93-6.684-32.49-6.684-10.655 0-19.717 1.14-27.15 3.41-7.442 2.294-15.048 5.48-22.82 9.59V1.84h-60.216v256.03h60.215v-19.51c9.212 7.33 18.63 13.28 28.24 17.85 9.6 4.56 20.68 6.84 33.237 6.84 23.317 0 41.45-8.57 54.39-25.69 12.934-17.122 19.403-40.64 19.403-70.55M878.87 70.57h62.392v65.54h-62.39zM1100.65 118.61c3.89 4.77 6.81 10.52 8.76 17.25 1.94 6.742 2.92 16.062 2.92 27.94 0 11.01-1 20.23-3 27.688-2.01 7.46-4.79 13.39-8.34 17.852-3.56 4.558-7.85 7.78-12.85 9.68-5.01 1.878-10.4 2.84-16.18 2.84-5.78 0-10.92-.79-15.43-2.34-4.5-1.56-8.82-4.68-12.93-9.348-3.66-4.34-6.58-10.28-8.75-17.832-2.17-7.57-3.25-17.078-3.25-28.54 0-10.218.94-19.09 2.83-26.6 1.89-7.51 4.67-13.552 8.34-18.098 3.56-4.332 7.82-7.5 12.77-9.512 4.94-1.988 10.58-3 16.92-3 5.45 0 10.66.91 15.6 2.762 4.94 1.82 9.15 4.91 12.59 9.257zm73.9 45.52c0-30.798-8.99-55.07-26.94-72.802-17.96-17.726-43.18-26.598-75.65-26.598-32.46 0-57.68 8.872-75.644 26.598-17.957 17.73-26.937 42.004-26.937 72.8 0 31.032 9.034 55.392 27.104 73.07 18.066 17.673 43.226 26.52 75.476 26.52 32.69 0 57.96-8.886 75.81-26.687 17.85-17.792 26.78-42.09 26.78-72.9M1336.28 200.68h-5.33c-2.56.86-6.66 1.54-12.32 1.98-5.66.45-10.37.672-14.14.672-8.55 0-16.09-.562-22.63-1.672-6.55-1.1-13.6-2.988-21.14-5.648V70.57h-60.22v187.3h60.22v-27.51c13.2 11.34 24.68 18.87 34.45 22.6 9.75 3.72 18.75 5.59 26.95 5.59 2.12 0 4.5-.062 7.17-.17 2.66-.118 4.99-.278 6.99-.51v-57.19M1475.15 129.61v84.902c-3.44 1.437-7.66 2.578-12.65 3.41-4.99.848-9.49 1.258-13.48 1.258-15.76 0-27.57-4.532-35.45-13.602-7.88-9.047-11.82-21.7-11.82-37.937 0-18.01 3.36-30.58 10.08-37.7 6.71-7.13 16.66-10.67 29.86-10.67 6 0 11.88.95 17.65 2.832 5.76 1.886 11.04 4.386 15.81 7.507zm60.22-37.54c0-17.558-2.51-32.35-7.51-44.36-5.01-12.01-12.01-21.41-21.02-28.19-9-6.9-19.88-11.872-32.61-14.938C1461.49 1.54 1447.12 0 1431.11 0c-13 0-25.83.79-38.44 2.34-12.63 1.55-23.55 3.44-32.78 5.672V54.88h7.33c7.33-2.9 16.26-5.528 26.81-7.93 10.55-2.38 19.99-3.58 28.32-3.58 11.1 0 20.13 1.028 27.06 3.09 6.95 2.06 12.24 4.98 15.91 8.76 3.44 3.56 5.94 8.112 7.49 13.67 1.56 5.57 2.34 12.23 2.34 20.02v3.488a89.754 89.754 0 0 0-23.99-13.988c-8.78-3.46-18.55-5.18-29.32-5.18-26.21 0-46.43 7.89-60.64 23.7-14.22 15.79-21.32 39.79-21.32 72.05 0 15.45 2.16 28.79 6.49 40.032 4.33 11.226 10.44 21.008 18.32 29.347 7.34 7.78 16.36 13.85 27.07 18.17 10.72 4.35 21.69 6.52 32.91 6.52 10.11 0 19.29-1.19 27.58-3.59 8.27-2.4 15.79-5.698 22.57-9.93l2.17 8.34h58.38V92.07M1750.64 330.11L1618.36 16.52h-51.2l131.74 313.59h51.74M1918.21 188.32c-.33 12.578-3.45 22.008-9.34 28.36-5.9 6.34-15.07 9.5-27.53 9.5-11.56 0-21.07-2.99-28.52-8.99-7.45-6.03-11.62-15.65-12.51-28.87zm59.71-35.18h-137.44c.89-14.69 6.47-25.92 16.76-33.7 10.28-7.792 25.44-11.67 45.46-11.67 12.67 0 24.96 2.27 36.86 6.832 11.9 4.558 21.29 9.437 28.19 14.668h6.67V81.082c-13.57-5.453-26.35-9.41-38.37-11.851-12.01-2.45-25.3-3.67-39.86-3.67-37.59 0-66.39 8.46-86.4 25.338-20.02 16.922-30.02 40.993-30.02 72.243 0 30.91 9.47 55.41 28.43 73.47 18.96 18.07 44.95 27.11 77.98 27.11 30.47 0 53.38-7.708 68.73-23.09 15.34-15.42 23.01-37.58 23.01-66.482V153.14M2166.01 129.94c0-19.338-8.68-34.94-26.03-46.792-17.35-11.828-41.08-17.757-71.22-17.757-16.68 0-31.8 1.56-45.37 4.67-13.57 3.13-24.46 6.56-32.69 10.35v49.37h5.5c3-2.12 6.47-4.428 10.43-6.928 3.94-2.493 9.53-5.18 16.76-8.082 6.23-2.56 13.29-4.758 21.18-6.59 7.9-1.84 16.35-2.75 25.36-2.75 11.78 0 20.51 1.3 26.18 3.922 5.67 2.61 8.51 6.468 8.51 11.59 0 4.546-1.67 7.86-5.01 9.91-3.33 2.07-9.67 4.027-19.01 5.93-4.44.988-10.48 2.09-18.1 3.25-7.61 1.167-14.54 2.59-20.77 4.257-17 4.44-29.63 11.37-37.86 20.77-8.23 9.39-12.34 21.088-12.34 35.112 0 18.02 8.53 33 25.61 44.937 17.06 11.95 40.39 17.94 69.96 17.94 14.01 0 27.45-1.42 40.29-4.26 12.84-2.83 22.88-5.868 30.11-9.09v-47.36h-5.17c-8.9 6.1-19.04 11.082-30.45 14.93-11.39 3.84-22.92 5.75-34.6 5.75-9.68 0-17.82-1.34-24.44-4-6.62-2.68-9.92-6.46-9.92-11.348 0-4.453 1.49-7.82 4.5-10.16 3-2.352 10.06-4.692 21.18-7.024 6.12-1.218 12.7-2.41 19.77-3.578a272.428 272.428 0 0 0 21.26-4.422c15.79-4.117 27.47-10.59 35.03-19.437 7.56-8.84 11.35-19.87 11.35-33.11M2832.72 2052.73c0 12.52-3.39 23.29-10.15 32.33-6.77 9.03-14.64 15.35-23.6 18.92-11.94 4.76-23.58 7.4-34.94 7.9-11.34.49-26.47.74-45.39.74h-19.7v-132.89h32.85c19.5 0 35.58 1.19 48.21 3.58 12.65 2.37 23.25 7.15 31.82 14.3 7.35 6.35 12.69 13.95 15.97 22.79 3.29 8.84 4.93 19.62 4.93 32.33zm118.55 2.56c0-19.91-3.49-39.38-10.45-58.39-6.97-19.01-16.92-34.99-29.86-47.94-17.72-17.51-37.48-30.75-59.28-39.71-21.8-8.95-48.93-13.44-81.37-13.44h-71.37v-144.83h-114.68v444.66H2773c28.26 0 52.1-2.44 71.52-7.32 19.41-4.88 36.57-12.2 51.51-21.94 17.92-11.76 31.6-26.78 41.05-45.1 9.46-18.32 14.19-40.32 14.19-65.99M3260.43 1983.92h-9.53c-4.57 1.58-11.93 2.78-22.05 3.57-10.14.8-18.58 1.19-25.33 1.19-15.29 0-28.8-.98-40.53-2.98-11.72-1.98-24.33-5.38-37.83-10.15v-224.57h-107.81v335.36h107.81v-49.27c23.63 20.31 44.19 33.79 61.67 40.46 17.48 6.67 33.57 10.01 48.28 10.01 3.76 0 8.04-.11 12.81-.31 4.77-.2 8.94-.48 12.51-.89v-102.42M3522.71 1836.99c6.96 8.56 12.19 18.86 15.67 30.9 3.49 12.05 5.24 28.72 5.24 50.03 0 19.71-1.8 36.22-5.38 49.56-3.59 13.34-8.57 24-14.93 31.95-6.38 8.18-14.05 13.94-22.99 17.33-8.97 3.38-18.63 5.08-28.98 5.08-10.35 0-19.55-1.4-27.62-4.18-8.06-2.8-15.78-8.36-23.14-16.72-6.58-7.76-11.8-18.42-15.68-31.96-3.88-13.53-5.82-30.55-5.82-51.06 0-18.32 1.68-34.19 5.07-47.63 3.39-13.44 8.36-24.24 14.93-32.4 6.37-7.77 13.99-13.45 22.84-17.02 8.87-3.58 18.97-5.38 30.31-5.38 9.77 0 19.07 1.64 27.94 4.93 8.84 3.28 16.36 8.8 22.54 16.57zm132.29 81.53c0-55.14-16.08-98.6-48.23-130.36-32.15-31.75-77.29-47.62-135.43-47.62-58.13 0-103.27 15.87-135.43 47.62-32.15 31.76-48.22 75.22-48.22 130.36 0 55.54 16.17 99.14 48.53 130.79 32.34 31.65 77.39 47.48 135.12 47.48 58.53 0 103.77-15.93 135.73-47.78 31.95-31.85 47.93-75.35 47.93-130.49M3941.16 1856.7v151.99c-6.16 2.6-13.71 4.64-22.65 6.13-8.94 1.49-16.99 2.24-24.14 2.24-28.21 0-49.37-8.12-63.47-24.33-14.09-16.23-21.14-38.87-21.14-67.94 0-32.25 6.01-54.75 18.02-67.49 12.02-12.74 29.84-19.12 53.48-19.12 10.73 0 21.25 1.7 31.58 5.08 10.34 3.38 19.76 7.85 28.32 13.44zm107.79-67.19c0-31.45-4.48-57.94-13.44-79.44-8.96-21.5-21.49-38.32-37.62-50.46-16.12-12.35-35.59-21.25-58.38-26.73-22.8-5.47-48.53-8.22-77.19-8.22-23.3 0-46.24 1.41-68.85 4.19-22.59 2.79-42.15 6.17-58.67 10.16v83.91h13.12c13.12-5.18 29.13-9.91 48.01-14.19 18.88-4.28 35.77-6.42 50.7-6.42 19.86 0 36.02 1.85 48.45 5.53 12.42 3.68 21.91 8.91 28.48 15.68 6.16 6.37 10.63 14.53 13.43 24.48 2.76 9.96 4.17 21.89 4.17 35.83v6.27c-12.93-10.54-27.26-18.92-42.96-25.07-15.7-6.18-33.2-9.26-52.5-9.26-46.92 0-83.11 14.12-108.56 42.41-25.46 28.25-38.17 71.25-38.17 129 0 27.66 3.89 51.55 11.63 71.66 7.75 20.11 18.69 37.62 32.81 52.56 13.11 13.92 29.27 24.79 48.46 32.55 19.19 7.76 38.83 11.64 58.91 11.64 18.09 0 34.55-2.14 49.36-6.42 14.81-4.28 28.28-10.19 40.41-17.76l3.9 14.93h104.5v-296.83M4384.38 1983.92h-9.51c-4.58 1.58-11.93 2.78-22.06 3.57-10.13.8-18.57 1.19-25.32 1.19-15.31 0-28.8-.98-40.52-2.98-11.74-1.98-24.34-5.38-37.84-10.15v-224.57h-107.81v335.36h107.81v-49.27c23.62 20.31 44.19 33.79 61.67 40.46 17.47 6.67 33.56 10.01 48.26 10.01 3.77 0 8.04-.11 12.82-.31 4.77-.2 8.95-.48 12.5-.89v-102.42M4639.18 1838.71v69.65c-14.53-1.19-30.24-2.82-47.17-4.91-16.92-2.08-29.76-4.52-38.52-7.3-10.76-3.36-18.96-8.28-24.63-14.73-5.68-6.45-8.52-14.93-8.52-25.46 0-6.94.59-12.59 1.79-16.96 1.2-4.37 4.18-8.53 8.96-12.5 4.58-3.97 10.06-6.89 16.42-8.78 6.37-1.88 16.32-2.83 29.88-2.83 10.74 0 21.64 2.18 32.69 6.55 11.06 4.36 20.75 10.12 29.1 17.27zm0-52.19c-5.76-4.38-12.93-9.66-21.49-15.83-8.56-6.17-16.62-11.04-24.19-14.63-10.56-4.77-21.49-8.31-32.84-10.59-11.35-2.29-23.79-3.44-37.33-3.44-31.85 0-58.53 9.85-80.02 29.56-21.5 19.72-32.26 44.9-32.26 75.55 0 24.49 5.47 44.5 16.42 60.03 10.95 15.52 26.47 27.76 46.59 36.73 19.9 8.95 44.59 15.33 74.05 19.11 29.46 3.78 60.03 6.56 91.68 8.36v1.79c0 18.52-7.57 31.3-22.7 38.37-15.12 7.08-37.42 10.61-66.89 10.61-17.71 0-36.63-3.14-56.73-9.41-20.12-6.27-34.54-11.09-43.3-14.49h-9.86v80.94c11.36 2.98 29.81 6.52 55.4 10.59 25.57 4.09 51.21 6.12 76.89 6.12 61.11 0 105.27-9.39 132.43-28.22 27.19-18.81 40.78-48.33 40.78-88.53v-228.16h-106.63v35.54M5163.06 1988.68v-237.7h-107.79v167.54c0 16.31-.4 30.2-1.2 41.65-.79 11.44-2.98 20.76-6.57 27.92-3.59 7.17-9.01 12.4-16.27 15.68-7.27 3.28-17.47 4.92-30.61 4.92-10.57 0-20.8-2.13-30.76-6.41-9.95-4.28-18.93-8.82-26.88-13.6v-237.7h-107.81v335.36h107.81v-37.03c18.5 14.53 36.19 25.88 53.09 34.04 16.9 8.16 35.59 12.24 56.08 12.24 22.06 0 41.56-4.92 58.45-14.77 16.9-9.86 30.13-24.34 39.66-43.46 21.47 18.12 42.33 32.35 62.63 42.71 20.26 10.35 40.15 15.52 59.62 15.52 36.19 0 63.68-10.84 82.46-32.54 18.78-21.7 28.18-52.96 28.18-93.77v-218.3h-107.8v167.54c0 16.51-.35 30.44-1.05 41.8-.69 11.35-2.84 20.61-6.41 27.77-3.4 7.17-8.76 12.4-16.13 15.68-7.37 3.28-17.72 4.92-31.06 4.92-8.96 0-17.72-1.53-26.27-4.62-8.57-3.08-19.01-8.21-31.37-15.39M5676.48 1838.71v69.65c-14.53-1.19-30.25-2.82-47.18-4.91-16.91-2.08-29.75-4.52-38.52-7.3-10.76-3.36-18.96-8.28-24.63-14.73-5.68-6.45-8.52-14.93-8.52-25.46 0-6.94.6-12.59 1.8-16.96 1.19-4.37 4.17-8.53 8.95-12.5 4.58-3.97 10.05-6.89 16.43-8.78 6.36-1.88 16.32-2.83 29.86-2.83 10.75 0 21.64 2.18 32.71 6.55 11.03 4.36 20.74 10.12 29.1 17.27zm0-52.19c-5.77-4.38-12.94-9.66-21.49-15.83-8.57-6.17-16.64-11.04-24.19-14.63-10.57-4.77-21.5-8.31-32.85-10.59-11.35-2.29-23.78-3.44-37.33-3.44-31.85 0-58.54 9.85-80.03 29.56-21.5 19.72-32.25 44.9-32.25 75.55 0 24.49 5.47 44.5 16.42 60.03 10.95 15.52 26.48 27.76 46.59 36.73 19.9 8.95 44.58 15.33 74.06 19.11 29.46 3.78 60.02 6.56 91.67 8.36v1.79c0 18.52-7.57 31.3-22.69 38.37-15.14 7.08-37.43 10.61-66.9 10.61-17.71 0-36.63-3.14-56.73-9.41-20.12-6.27-34.54-11.09-43.29-14.49h-9.88v80.94c11.37 2.98 29.82 6.52 55.41 10.59 25.57 4.09 51.21 6.12 76.9 6.12 61.1 0 105.26-9.39 132.42-28.22 27.19-18.81 40.77-48.33 40.77-88.53v-228.16h-106.61v35.54M3050.42 1172.58h-114.08v297.71l-82.42-193.19h-79.13l-82.42 193.19v-297.71h-108.11v444.64h133.19l100.04-223.06 99.74 223.06h133.19v-444.64M3482.92 1172.58H3375.1v37.03c-19.88-15.14-38.07-26.63-54.58-34.49-16.5-7.86-36.18-11.8-59.05-11.8-36.97 0-65.46 10.65-85.44 31.95-19.99 21.31-29.97 52.75-29.97 94.37v218.28h107.81V1341.6c0-16.92.54-31 1.64-42.26 1.09-11.24 3.63-20.56 7.61-27.91 3.78-7.37 9.51-12.75 17.17-16.14 7.66-3.38 18.36-5.07 32.11-5.07 9.15 0 19.3 1.69 30.45 5.07 11.15 3.39 21.9 8.36 32.25 14.95v237.68h107.82v-335.34M3912.1 1172.58h-107.79v166.33c0 13.54-.7 27.03-2.09 40.47-1.39 13.44-3.79 23.33-7.17 29.7-3.98 7.36-9.79 12.74-17.46 16.13-7.66 3.39-18.38 5.07-32.12 5.07-9.74 0-19.64-1.6-29.7-4.77-10.06-3.18-20.95-8.27-32.69-15.24v-237.69h-107.81v335.34h107.81v-37.02c19.08 14.93 37.42 26.38 55.02 34.35 17.59 7.94 37.13 11.93 58.59 11.93 36.2 0 64.48-10.54 84.86-31.64 20.38-21.11 30.55-52.67 30.55-94.66v-218.3M4220.08 1264.89v164.78c-7.55 3.19-15.5 5.49-23.83 6.88-8.35 1.4-15.99 2.1-22.95 2.1-28.22 0-49.37-8.83-63.46-26.47-14.1-17.64-21.15-42.12-21.15-73.42 0-32.9 5.65-56.79 16.97-71.64 11.33-14.85 29.51-22.27 54.53-22.27 9.73 0 20.06 1.83 30.98 5.53 10.93 3.69 20.56 8.53 28.91 14.51zm107.8-92.31h-107.8v34.94c-18.5-15.13-35.8-26.28-51.9-33.45-16.11-7.17-34.7-10.75-55.77-10.75-40.77 0-73.37 15.72-97.83 47.19-24.47 31.44-36.68 73.85-36.68 127.21 0 28.46 4.13 53.7 12.37 75.69 8.25 22 19.54 40.86 33.86 56.59 13.5 14.93 29.92 26.53 49.2 34.8 19.3 8.25 38.57 12.38 57.87 12.38 20.07 0 36.53-2.14 49.36-6.42 12.81-4.28 26-9.7 39.52-16.27v142.74h107.8v-464.65M4528.05 1172.58h-107.8v335.34h107.8zm2.99 383.12h-113.78v81.53h113.78v-81.53M4823.15 1260.3v69.65c-14.52-1.19-30.24-2.83-47.17-4.92-16.92-2.07-29.76-4.51-38.51-7.28-10.77-3.36-18.98-8.29-24.64-14.74-5.69-6.45-8.53-14.93-8.53-25.45 0-6.94.6-12.6 1.8-16.96 1.19-4.38 4.18-8.54 8.95-12.51 4.58-3.98 10.06-6.9 16.44-8.78 6.37-1.88 16.31-2.81 29.86-2.81 10.75 0 21.64 2.16 32.7 6.53 11.05 4.36 20.75 10.12 29.1 17.27zm0-52.18c-5.75-4.39-12.93-9.67-21.49-15.83-8.57-6.18-16.63-11.05-24.18-14.64-10.56-4.77-21.51-8.3-32.86-10.6-11.33-2.28-23.79-3.43-37.33-3.43-31.85 0-58.52 9.86-80.02 29.57-21.49 19.71-32.26 44.89-32.26 75.55 0 24.48 5.47 44.49 16.43 60.02 10.95 15.53 26.47 27.77 46.59 36.73 19.89 8.95 44.58 15.33 74.05 19.11 29.46 3.79 60.02 6.57 91.67 8.37v1.8c0 18.5-7.55 31.28-22.69 38.35-15.13 7.07-37.42 10.61-66.89 10.61-17.72 0-36.63-3.14-56.73-9.41-20.11-6.28-34.54-11.1-43.3-14.48h-9.87v80.92c11.36 2.99 29.83 6.52 55.4 10.59 25.58 4.09 51.22 6.14 76.9 6.14 61.12 0 105.26-9.41 132.44-28.23 27.18-18.81 40.77-48.33 40.77-88.54v-228.14h-106.63v35.54M5019.46 1172.58h107.8v464.652h-107.8zM5604.33 1264.88v164.79c-7.56 3.19-15.51 5.49-23.84 6.88-8.35 1.39-15.98 2.1-22.94 2.1-28.22 0-49.37-8.83-63.47-26.46-14.1-17.67-21.16-42.13-21.16-73.44 0-32.9 5.67-56.78 17-71.64 11.31-14.84 29.49-22.26 54.52-22.26 9.73 0 20.07 1.83 30.98 5.53 10.92 3.69 20.56 8.52 28.91 14.5zm107.79-92.3h-107.79v34.94c-18.5-15.15-35.8-26.29-51.91-33.45-16.1-7.17-34.69-10.75-55.76-10.75-40.77 0-73.37 15.71-97.84 47.19-24.45 31.44-36.68 73.85-36.68 127.2 0 28.47 4.12 53.7 12.37 75.71 8.26 21.99 19.54 40.86 33.86 56.58 13.52 14.93 29.93 26.53 49.21 34.79 19.29 8.26 38.57 12.39 57.86 12.39 20.08 0 36.54-2.14 49.37-6.42 12.82-4.28 25.99-9.7 39.52-16.27v142.74h107.79v-464.65M6027.85 1383.39c-.59 22.51-6.17 39.42-16.72 50.77-10.55 11.36-26.98 17.03-49.27 17.03-20.71 0-37.73-5.38-51.06-16.13-13.34-10.75-20.81-27.97-22.41-51.67zm106.91-62.99h-246.07c1.6-26.28 11.6-46.39 30.02-60.33 18.41-13.94 45.53-20.91 81.37-20.91 22.7 0 44.68 4.09 66 12.25 21.3 8.16 38.11 16.91 50.46 26.28h11.95v-86.3c-24.3-9.77-47.19-16.83-68.68-21.2-21.5-4.38-45.29-6.57-71.38-6.57-67.28 0-118.85 15.12-154.68 45.4-35.83 30.25-53.75 73.34-53.75 129.28 0 55.35 16.97 99.19 50.91 131.55 33.94 32.35 80.47 48.53 139.6 48.53 54.55 0 95.57-13.79 123.04-41.36 27.48-27.57 41.21-67.23 41.21-118.99v-37.63M2825.04 765.57l-54.69 159.29-54.72-159.29zM3002 594.16h-118.42l-30.96 89.87h-164.55l-30.99-89.87h-115.56l164.25 444.65h131.99L3002 594.16M3050.76 594.16h107.81v464.648h-107.81zM3358.43 594.16h-107.8V929.5h107.8zm2.99 383.13h-113.78v81.52h113.78v-81.52M3778.08 831.86v-237.7h-107.79v167.52c0 16.32-.41 30.218-1.19 41.648-.8 11.46-2.99 20.774-6.59 27.934-3.59 7.18-9 12.386-16.25 15.68-7.28 3.288-17.48 4.917-30.62 4.917-10.55 0-20.8-2.13-30.76-6.42-9.96-4.28-18.91-8.8-26.88-13.58v-237.7h-107.79V929.5H3558v-37.02c18.5 14.532 36.19 25.89 53.11 34.04 16.89 8.16 35.56 12.242 56.05 12.242 22.07 0 41.57-4.922 58.46-14.782 16.89-9.85 30.12-24.332 39.67-43.45 21.46 18.11 42.34 32.36 62.62 42.708 20.27 10.352 40.15 15.524 59.64 15.524 36.18 0 63.66-10.852 82.45-32.543 18.76-21.708 28.18-52.97 28.18-93.77V594.16h-107.81v167.52c0 16.52-.34 30.46-1.04 41.8-.7 11.372-2.83 20.622-6.42 27.782-3.38 7.18-8.77 12.386-16.14 15.68-7.36 3.288-17.71 4.917-31.05 4.917-8.95 0-17.72-1.54-26.27-4.622-8.56-3.09-19.03-8.207-31.37-15.38M4311.81 804.97c-.58 22.51-6.17 39.428-16.72 50.768-10.54 11.364-26.97 17.032-49.27 17.032-20.71 0-37.72-5.38-51.08-16.13-13.32-10.75-20.8-27.972-22.38-51.67zm106.92-62.99h-246.08c1.58-26.28 11.6-46.39 30.02-60.332 18.4-13.93 45.55-20.91 81.37-20.91 22.69 0 44.71 4.102 65.99 12.25 21.29 8.16 38.13 16.91 50.47 26.282h11.96v-86.3c-24.3-9.77-47.19-16.83-68.7-21.2-21.5-4.38-45.29-6.56-71.36-6.56-67.29 0-118.85 15.11-154.69 45.392-35.84 30.25-53.75 73.347-53.75 129.277 0 55.358 16.97 99.19 50.92 131.55 33.94 32.35 80.47 48.53 139.59 48.53 54.55 0 95.56-13.792 123.04-41.35 27.49-27.57 41.22-67.24 41.22-119v-37.63M4822.22 594.16h-107.79v166.32c0 13.54-.7 27.04-2.09 40.47-1.39 13.448-3.79 23.34-7.17 29.722-3.98 7.36-9.8 12.726-17.46 16.117-7.66 3.39-18.38 5.07-32.11 5.07-9.75 0-19.65-1.59-29.71-4.77-10.06-3.192-20.95-8.262-32.69-15.23v-237.7h-107.81V929.5h107.81v-37.02c19.08 14.93 37.42 26.38 55.02 34.34 17.6 7.96 37.13 11.942 58.59 11.942 36.19 0 64.47-10.55 84.86-31.64 20.38-21.11 30.55-52.673 30.55-94.673V594.16M5126.34 597.11c-11.56-2.97-23.81-5.31-36.74-6.99-12.94-1.68-28.77-2.53-47.48-2.53-41.81 0-72.91 8.46-93.34 25.38-20.39 16.92-30.58 45.882-30.58 86.89v156.78h-44.22v72.86h44.22v95.87h107.79V929.5h100.35v-72.86h-100.35V737.62c0-11.78.1-22.042.29-30.8.2-8.78 1.8-16.66 4.77-23.64 2.77-6.98 7.7-12.508 14.75-16.602 7.03-4.078 17.3-6.13 30.82-6.13 5.54 0 12.83 1.193 21.87 3.583 9.02 2.4 15.33 4.58 18.91 6.572h8.94V597.11M5391.89 680.16c6.95 8.56 12.19 18.86 15.66 30.91 3.48 12.032 5.24 28.71 5.24 50.02 0 19.7-1.8 36.23-5.39 49.57-3.58 13.328-8.56 23.988-14.92 31.942-6.37 8.168-14.05 13.937-22.99 17.328-8.97 3.38-18.62 5.07-28.97 5.07-10.37 0-19.55-1.39-27.63-4.172-8.05-2.79-15.79-8.367-23.15-16.726-6.56-7.75-11.78-18.41-15.66-31.954-3.89-13.527-5.82-30.558-5.82-51.058 0-18.32 1.68-34.192 5.06-47.63 3.39-13.44 8.37-24.25 14.94-32.4 6.36-7.77 13.98-13.44 22.83-17.03 8.87-3.58 18.98-5.382 30.31-5.382 9.77 0 19.08 1.64 27.93 4.942 8.85 3.29 16.39 8.8 22.56 16.57zm132.28 81.52c0-55.14-16.07-98.578-48.22-130.34s-77.3-47.63-135.43-47.63c-58.14 0-103.28 15.868-135.43 47.63-32.17 31.762-48.22 75.2-48.22 130.34 0 55.55 16.15 99.148 48.52 130.8 32.36 31.64 77.4 47.48 135.13 47.48 58.52 0 103.77-15.94 135.73-47.78 31.95-31.86 47.92-75.352 47.92-130.5M5883.49 700.47c0-34.642-15.51-62.56-46.58-83.77-31.08-21.188-73.56-31.802-127.5-31.802-29.86 0-56.95 2.8-81.23 8.364-24.3 5.578-43.81 11.738-58.54 18.508v88.402h9.85c5.39-3.78 11.6-7.91 18.67-12.402 7.07-4.49 17.07-9.3 30.02-14.48 11.15-4.58 23.79-8.5 37.91-11.79 14.14-3.29 29.28-4.93 45.39-4.93 21.11 0 36.74 2.34 46.89 7.02 10.16 4.672 15.22 11.59 15.22 20.75 0 8.16-2.99 14.082-8.95 17.77-5.95 3.68-17.32 7.218-34.04 10.61-7.95 1.78-18.77 3.73-32.4 5.83-13.63 2.07-26.04 4.61-37.17 7.59-30.47 7.962-53.07 20.372-67.79 37.18-14.75 16.828-22.11 37.79-22.11 62.87 0 32.25 15.27 59.072 45.84 80.482 30.56 21.387 72.32 32.09 125.27 32.09 25.1 0 49.14-2.532 72.13-7.614 22.99-5.078 40.96-10.5 53.89-16.277v-84.8H5859c-15.92 10.942-34.08 19.848-54.47 26.73-20.43 6.868-41.08 10.302-61.98 10.302-17.32 0-31.91-2.383-43.77-7.172-11.83-4.782-17.75-11.55-17.75-20.32 0-7.938 2.7-14.008 8.07-18.2 5.37-4.18 18-8.36 37.93-12.55 10.93-2.188 22.73-4.33 35.39-6.43a471.25 471.25 0 0 0 38.06-7.9c28.27-7.358 49.16-18.96 62.72-34.792 13.53-15.808 20.29-35.59 20.29-59.27"></path></g></svg>