<svg xmlns="http://www.w3.org/2000/svg" width="644" height="284" viewBox="0 0 644 284"><title>WFPlogo-finnish-standard-white</title><g fill="#FFF" fill-rule="evenodd"><path d="M319.535 121.356l-12.04 44.705h-12.78l-7.997-29.122-7.816 29.123h-12.75l-12.04-44.704h12.034l6.858 30.774 8.25-30.774h11.5l7.827 30.774 7.2-30.774h11.755M345.944 157.413c.7-.86 1.225-1.895 1.575-3.107.35-1.21.524-2.886.524-5.03 0-1.98-.18-3.64-.54-4.983-.36-1.34-.86-2.41-1.502-3.212-.64-.82-1.41-1.4-2.312-1.74a8.19 8.19 0 0 0-2.91-.51c-1.042 0-1.967.14-2.78.42-.81.28-1.585.84-2.324 1.68-.662.782-1.187 1.853-1.578 3.214-.39 1.36-.586 3.072-.586 5.133 0 1.842.17 3.438.512 4.79.34 1.35.84 2.436 1.502 3.256a5.683 5.683 0 0 0 2.296 1.712c.89.36 1.907.54 3.048.54.98 0 1.916-.164 2.807-.495.89-.33 1.645-.886 2.267-1.667zm13.3-8.196c0 5.545-1.617 9.913-4.848 13.105-3.234 3.194-7.772 4.79-13.616 4.79-5.845 0-10.385-1.596-13.617-4.79-3.232-3.192-4.85-7.56-4.85-13.105 0-5.585 1.627-9.968 4.88-13.15 3.254-3.182 7.78-4.773 13.587-4.773 5.885 0 10.433 1.6 13.645 4.803 3.21 3.203 4.82 7.575 4.82 13.12zM391.43 142.643h-.96c-.46-.16-1.197-.28-2.216-.36-1.02-.08-1.868-.12-2.547-.12-1.538 0-2.896.1-4.074.3-1.178.2-2.446.54-3.804 1.02v22.578h-10.84v-33.716h10.84v4.954c2.376-2.042 4.443-3.397 6.2-4.068 1.758-.67 3.376-1.006 4.852-1.006.38 0 .81.01 1.288.03.48.02.9.05 1.26.09v10.3M397.554 119.344h10.838v46.717h-10.838v-46.716zM440.52 156.78v-16.568a10.6 10.6 0 0 0-2.396-.69c-.84-.143-1.608-.212-2.308-.212-2.837 0-4.962.886-6.38 2.662-1.42 1.772-2.128 4.233-2.128 7.38 0 3.31.57 5.71 1.708 7.203 1.138 1.494 2.964 2.24 5.483 2.24.977 0 2.014-.186 3.114-.557 1.097-.37 2.067-.856 2.906-1.458zm10.838 9.28H440.52v-3.512c-1.86 1.52-3.6 2.642-5.218 3.362-1.62.72-3.49 1.08-5.608 1.08-4.1 0-7.378-1.58-9.835-4.743-2.46-3.162-3.69-7.425-3.69-12.79 0-2.86.414-5.398 1.245-7.61.828-2.212 1.963-4.108 3.402-5.69 1.36-1.5 3.01-2.667 4.95-3.498 1.938-.83 3.877-1.246 5.816-1.246 2.018 0 3.674.214 4.962.645 1.288.43 2.615.975 3.975 1.635v-14.35h10.838v46.716zM516.755 130.003H496.19v8.316h19.066v8.646H496.19v19.095h-11.468v-44.704h32.033v8.647M545.28 157.413c.7-.86 1.224-1.895 1.577-3.107.348-1.21.525-2.886.525-5.03 0-1.98-.18-3.64-.54-4.983-.362-1.34-.863-2.41-1.503-3.212-.642-.82-1.412-1.4-2.312-1.74-.9-.34-1.87-.51-2.913-.51-1.04 0-1.966.14-2.777.42-.81.28-1.587.84-2.327 1.68-.66.782-1.183 1.853-1.574 3.214-.39 1.36-.586 3.072-.586 5.133 0 1.842.17 3.438.51 4.79.34 1.35.84 2.436 1.5 3.256a5.685 5.685 0 0 0 2.3 1.712c.888.36 1.905.54 3.045.54a7.99 7.99 0 0 0 2.807-.495c.892-.33 1.648-.886 2.267-1.667zm13.302-8.196c0 5.545-1.62 9.913-4.85 13.105-3.232 3.194-7.773 4.79-13.617 4.79-5.844 0-10.382-1.596-13.616-4.79-3.233-3.192-4.85-7.56-4.85-13.105 0-5.585 1.626-9.968 4.88-13.15 3.252-3.182 7.78-4.773 13.585-4.773 5.885 0 10.433 1.6 13.645 4.803 3.214 3.203 4.822 7.575 4.822 13.12zM587.493 157.413c.7-.86 1.225-1.895 1.578-3.107.348-1.21.526-2.886.526-5.03 0-1.98-.182-3.64-.54-4.983-.362-1.34-.863-2.41-1.503-3.212-.64-.82-1.41-1.4-2.31-1.74-.9-.34-1.872-.51-2.914-.51s-1.967.14-2.778.42c-.81.28-1.587.84-2.327 1.68-.66.782-1.184 1.853-1.575 3.214-.39 1.36-.586 3.072-.586 5.133 0 1.842.17 3.438.51 4.79.34 1.35.84 2.436 1.5 3.256a5.69 5.69 0 0 0 2.3 1.712c.887.36 1.905.54 3.044.54.98 0 1.917-.164 2.808-.495a5.13 5.13 0 0 0 2.267-1.667zm13.302-8.196c0 5.545-1.618 9.913-4.85 13.105-3.232 3.194-7.772 4.79-13.616 4.79-5.845 0-10.383-1.596-13.618-4.79-3.232-3.192-4.847-7.56-4.847-13.105 0-5.585 1.625-9.968 4.88-13.15 3.25-3.182 7.78-4.773 13.584-4.773 5.883 0 10.433 1.6 13.644 4.803 3.214 3.203 4.82 7.575 4.82 13.12zM630.488 156.78v-16.568c-.76-.32-1.558-.552-2.397-.69a13.872 13.872 0 0 0-2.304-.212c-2.837 0-4.964.886-6.383 2.662-1.416 1.772-2.125 4.233-2.125 7.38 0 3.31.567 5.71 1.708 7.203 1.138 1.494 2.965 2.24 5.48 2.24.98 0 2.018-.186 3.116-.557 1.1-.37 2.066-.856 2.906-1.458zm10.838 9.28h-10.838v-3.512c-1.86 1.52-3.598 2.642-5.218 3.362-1.62.72-3.488 1.08-5.606 1.08-4.1 0-7.377-1.58-9.837-4.743-2.46-3.162-3.688-7.425-3.688-12.79 0-2.86.414-5.398 1.242-7.61.83-2.212 1.964-4.108 3.405-5.69 1.358-1.5 3.007-2.667 4.947-3.498 1.938-.83 3.878-1.246 5.816-1.246 2.02 0 3.675.214 4.965.645 1.288.43 2.612.975 3.973 1.635v-14.35h10.838v46.716zM282.815 193.796c0-1.258-.34-2.342-1.02-3.25-.68-.908-1.47-1.542-2.373-1.902-1.2-.48-2.37-.745-3.512-.794-1.14-.05-2.662-.076-4.564-.076h-1.98v13.36h3.3c1.962 0 3.58-.117 4.85-.358 1.27-.24 2.337-.72 3.197-1.437a5.543 5.543 0 0 0 1.607-2.293c.33-.89.495-1.973.495-3.25zm11.92-.257c0 2-.35 3.958-1.05 5.87-.702 1.91-1.703 3.518-3.003 4.818-1.782 1.76-3.768 3.092-5.96 3.994-2.192.9-4.92 1.35-8.18 1.35h-7.177v14.562h-11.53v-44.706h18.976c2.843 0 5.24.246 7.19.736 1.953.49 3.68 1.227 5.18 2.206 1.802 1.182 3.178 2.693 4.13 4.534.95 1.842 1.425 4.053 1.425 6.635zM325.572 200.716h-.958c-.458-.16-1.2-.28-2.218-.36-1.02-.08-1.867-.12-2.545-.12-1.537 0-2.895.1-4.073.3-1.18.2-2.447.54-3.805 1.02v22.578h-10.84v-33.717h10.84v4.954c2.377-2.04 4.444-3.396 6.2-4.067 1.758-.67 3.376-1.006 4.855-1.006.38 0 .807.01 1.288.03.478.02.897.05 1.257.09v10.3M351.696 215.486c.7-.86 1.225-1.894 1.578-3.107.348-1.21.525-2.887.525-5.03 0-1.98-.183-3.642-.542-4.984-.36-1.34-.862-2.41-1.502-3.212-.64-.82-1.41-1.4-2.31-1.74-.902-.34-1.873-.512-2.914-.512-1.04 0-1.966.14-2.777.42-.81.28-1.587.842-2.327 1.682-.66.78-1.185 1.852-1.575 3.213-.39 1.36-.586 3.072-.586 5.134 0 1.842.17 3.438.51 4.79.34 1.35.84 2.436 1.5 3.257.64.78 1.408 1.35 2.3 1.71.887.362 1.904.542 3.045.542.98 0 1.917-.166 2.807-.497a5.122 5.122 0 0 0 2.266-1.667zM365 207.29c0 5.545-1.62 9.913-4.852 13.107-3.23 3.192-7.773 4.788-13.616 4.788-5.845 0-10.383-1.596-13.616-4.788-3.233-3.194-4.848-7.562-4.848-13.107 0-5.584 1.625-9.968 4.88-13.15 3.25-3.183 7.78-4.774 13.584-4.774 5.885 0 10.433 1.603 13.645 4.804 3.214 3.203 4.822 7.577 4.822 13.12zM393.524 213.506v-15.282c-.62-.26-1.38-.466-2.278-.616a14.88 14.88 0 0 0-2.426-.225c-2.837 0-4.963.815-6.38 2.447-1.42 1.632-2.13 3.907-2.13 6.83 0 3.242.605 5.505 1.815 6.785 1.208 1.282 3 1.92 5.377 1.92 1.078 0 2.137-.168 3.173-.508 1.04-.34 1.99-.79 2.85-1.35zm10.838 6.756c0 3.162-.45 5.824-1.352 7.985-.9 2.162-2.16 3.854-3.784 5.074-1.62 1.243-3.577 2.138-5.868 2.69-2.292.55-4.88.825-7.762.825-2.343 0-4.65-.14-6.92-.42-2.272-.28-4.238-.622-5.9-1.022v-8.437h1.318c1.32.522 2.93.996 4.828 1.427 1.9.43 3.598.645 5.097.645 1.996 0 3.62-.185 4.87-.555 1.25-.37 2.203-.896 2.862-1.577.62-.64 1.072-1.46 1.35-2.46.28-1.002.422-2.203.422-3.604v-.63a16.05 16.05 0 0 1-4.32 2.52c-1.58.622-3.338.93-5.277.93-4.718 0-8.356-1.42-10.917-4.26-2.558-2.844-3.838-7.167-3.838-12.972 0-2.782.39-5.184 1.17-7.206.78-2.02 1.878-3.782 3.3-5.284 1.318-1.4 2.943-2.492 4.87-3.273a15.68 15.68 0 0 1 5.924-1.17c1.82 0 3.475.214 4.963.646 1.49.43 2.842 1.025 4.063 1.786l.39-1.503h10.51v29.845zM437.84 200.716h-.958c-.458-.16-1.2-.28-2.217-.36-1.02-.08-1.868-.12-2.545-.12-1.537 0-2.896.1-4.074.3-1.18.2-2.45.54-3.806 1.02v22.578h-10.838v-33.717h10.838v4.954c2.377-2.04 4.443-3.396 6.2-4.067 1.758-.67 3.376-1.006 4.855-1.006.38 0 .808.01 1.288.03.48.02.898.05 1.257.09v10.3M463.212 215.316v-7.004c-1.46.12-3.04.285-4.742.494-1.703.21-2.994.453-3.874.733-1.08.338-1.907.832-2.477 1.48-.572.65-.856 1.502-.856 2.56 0 .697.06 1.266.18 1.704.12.44.422.86.9 1.258.46.4 1.012.693 1.652.883.64.19 1.642.284 3.003.284 1.08 0 2.175-.22 3.286-.66a10.26 10.26 0 0 0 2.926-1.734zm0 5.246c-.58.44-1.3.97-2.16 1.59-.86.62-1.673 1.112-2.433 1.47-1.06.482-2.162.838-3.303 1.068-1.14.23-2.393.345-3.752.345-3.203 0-5.885-.99-8.046-2.972-2.165-1.982-3.244-4.514-3.244-7.596 0-2.462.55-4.475 1.65-6.035 1.1-1.56 2.663-2.792 4.683-3.694 2-.9 4.483-1.54 7.446-1.92 2.962-.38 6.034-.662 9.217-.84v-.182c0-1.86-.76-3.147-2.282-3.857-1.52-.712-3.76-1.068-6.723-1.068-1.782 0-3.684.316-5.705.946-2.022.63-3.473 1.116-4.354 1.456h-.99v-8.136c1.14-.3 2.996-.656 5.568-1.067 2.572-.408 5.15-.613 7.732-.613 6.145 0 10.584.944 13.315 2.837 2.732 1.892 4.098 4.858 4.098 8.902v22.938h-10.718v-3.572zM515.638 200.235v23.9h-10.84V207.29c0-1.64-.04-3.036-.12-4.187-.08-1.152-.3-2.087-.66-2.808a3.3 3.3 0 0 0-1.635-1.576c-.73-.332-1.758-.496-3.08-.496-1.06 0-2.09.215-3.092.644-1 .432-1.9.887-2.7 1.367v23.9h-10.84v-33.718h10.84v3.723c1.86-1.46 3.64-2.602 5.338-3.423 1.7-.82 3.577-1.23 5.638-1.23 2.218 0 4.177.495 5.876 1.486 1.7.99 3.03 2.446 3.988 4.37 2.16-1.822 4.257-3.255 6.295-4.295 2.04-1.04 4.038-1.562 5.997-1.562 3.64 0 6.4 1.092 8.29 3.274 1.888 2.18 2.833 5.324 2.833 9.427v21.947h-10.838V207.29c0-1.66-.036-3.062-.105-4.203-.07-1.14-.285-2.07-.647-2.792a3.146 3.146 0 0 0-1.62-1.576c-.74-.332-1.782-.496-3.122-.496-.902 0-1.782.154-2.643.465-.86.31-1.91.825-3.152 1.545M579.533 200.235v23.9h-10.84V207.29a62.5 62.5 0 0 0-.12-4.187c-.08-1.152-.3-2.087-.66-2.808a3.31 3.31 0 0 0-1.636-1.576c-.732-.332-1.757-.496-3.08-.496a7.775 7.775 0 0 0-3.092.644c-1 .432-1.9.887-2.702 1.367v23.9h-10.838v-33.718h10.838v3.723c1.86-1.46 3.64-2.602 5.34-3.423 1.698-.82 3.577-1.23 5.637-1.23 2.217 0 4.177.495 5.875 1.486 1.7.99 3.03 2.446 3.99 4.37 2.158-1.822 4.256-3.255 6.295-4.295 2.04-1.04 4.037-1.562 5.997-1.562 3.637 0 6.4 1.092 8.29 3.274 1.887 2.18 2.833 5.324 2.833 9.427v21.947h-10.838V207.29c0-1.66-.036-3.062-.106-4.203-.07-1.14-.285-2.07-.646-2.792a3.144 3.144 0 0 0-1.62-1.576c-.742-.332-1.783-.496-3.122-.496a7.73 7.73 0 0 0-2.645.465c-.86.31-1.91.825-3.15 1.545M632.948 202.938c-.06-2.263-.622-3.964-1.68-5.105-1.063-1.14-2.715-1.712-4.957-1.712-2.08 0-3.792.542-5.132 1.623-1.342 1.08-2.092 2.812-2.25 5.195h14.02zm10.748 6.335h-24.74c.16 2.642 1.166 4.663 3.017 6.065 1.852 1.4 4.58 2.102 8.183 2.102 2.282 0 4.493-.412 6.634-1.232 2.143-.82 3.834-1.7 5.075-2.642h1.2v8.676c-2.44.982-4.742 1.693-6.905 2.132-2.162.44-4.555.66-7.176.66-6.765 0-11.95-1.52-15.553-4.562-3.6-3.043-5.403-7.376-5.403-13 0-5.566 1.707-9.974 5.12-13.227 3.412-3.252 8.092-4.88 14.035-4.88 5.485 0 9.608 1.388 12.37 4.16 2.764 2.773 4.144 6.76 4.144 11.964v3.783zM134.05 70.885c1.25-2.707 2.41-4.862 4.08-7.43.737-1.132 1.57-1.922 2.31-3.067-.354-.102-.872.19-1.096.35-.742.538-1.077 1.412-1.67 1.88-1.404 1.108-1.365 2.11-2.1 2.628-.657.463-.846.768-1.306 1.49-.308.482-.534.873-.86 1.823-.115.34-.344.038-.892.792-.72.98-1.04 2.04-1.34 3.226-.094.39-.758.597-1.184 1.407-.572 1.092-.944 2.103-1.19 3.695-.062.37-.686.625-1.117 1.653-.305.723-.523.883-.79 2.246-.164.83-.543.95-.97 2.155-.33.92-.342 1.806-.458 3.008-.026.233-.42.695-.783 1.37-.61 1.125-.59 1.877-.832 3.04-.093.42-.564.977-1.018 2.78-.398 1.597-.033 2.657-.167 3.444-.353 2.045-.704 3.82-.514 5.835.094.985.244 2 .178 2.948-.187 2.97-.347 5.417-.33 8.783.01 1.832.153 4.34.43 6.43.305 2.305.744 4.106.744 4.106h7.514s-.294-4.346.096-8.92c.23-2.742.883-5.648 1.475-7.69.75-2.602 1.217-3.95 2.637-7.384.03-.076-.01-.398-.386-.083-.783.658-1.437 1.237-2.056 2.17-.946 1.424-1.522 2.598-2.287 4.062-.895 1.702-1.39 3.184-2.31 5.252-.056-1.492.186-2.912.49-4.287.31-1.404.556-2.516.997-3.726.783-2.135 1.543-3.916 2.8-5.902.727-1.148 1.656-2.178 2.6-3.033a129.09 129.09 0 0 1 3.355-2.95c-1.242-.64-2.896.695-3.227.764-1.748.34-2.458 1.96-2.994 2.182-.765.32-1.208.79-1.74 1.434-.407.484-.53 1.232-.958 1.498-.713.444-1.236 1.114-1.726 2.05-.202.386-.75 2.213-1.36 1.978 1.042-6.192 3.23-12 6.738-17.17 2.225-3.277 4.645-6.088 8.212-8.61.47-.333.562-.49-.094-.466-3.334.406-3.538 1.928-4.087 2.072-.52.134-1.165.75-1.577 1.152-.742.733-.73 1.35-1.013 1.543-.608.425-1.067.866-1.482 1.602-.218.384-.585 1.23-.91 1.423-.857.496-1.686 1.22-2.1 2-.305.57-.426 1.188-.825 1.748-.426.603-1.023 1.054-1.536 1.49.39-2.647 1.637-5.783 2.495-8.488 1.154-3.612 2.554-6.895 4.133-10.307M141.72 92.335c2.846-6.385 5.838-11.19 9.728-16.81.508-.737.964-1.46 1.408-2.15.2-.31 1.155-1.685 1.354-1.976 1.304-1.97 1.852-2.572 3.187-4.454.36-.51.654-.913.81-1.504.283-1.1-.663-1.84-.88-2.896-.22-1.08-.1-2.257.395-3.168.31-.57.62-.793.932-1.557.606-1.472.396-4.66 1.087-4.742-.174 1.512-.214 3.212.023 4.663.277 1.694 1.304 2.72 1.728 4.512 1.143-.206 2.384-.157 3.345-.074.955.082 2.162-.183 3.14-.518 1.326-.453 2.428-1.278 3.78-1.598-1.15 1.105-2.773 1.52-4.133 2.36-.5.313-.97.728-1.305 1.244-.547.85-.98 1.664-1.834 2.038-1.52.662-2.824.348-4.558.67-2.576 2.654-5 6.263-7.238 10.06-5.673 9.596-10.403 19.535-13.153 29.727.95-1.772 1.86-3.487 2.89-5.174 1.137-1.874 2.417-3.71 3.813-5.547 3.265-4.306 6.497-8.065 10.117-12.02 2.922-3.195 6.124-5.876 9.695-8.118 4.718-2.957 10.54-5.028 15.656-3.96.582.136 1.414.29 1.777.674-6.41-.898-12.154 1.342-16.44 4.774-3.385 2.708-6.24 5.456-9.138 9.027-1.498 1.72-2.846 3.613-4.184 5.445-1.4 1.927-2.643 3.955-3.876 5.983-4.154 6.86-7.3 14.125-9.61 21.65-.067.24-.082.48-.148.717.11-.17.272-.353.38-.525 3.114-5.06 6.857-9.945 11.597-13.222.414-.282.846-.826.957-1.253.513-2.01-1.02-2.975 1.1-5.752.486-.638 1.15-.87 1.61-1.464.866-1.34 1.573-3.74 2.3-4.386-.365 1.564-1.262 3.215-1.453 4.826-.203 1.768.25 3.214.328 5.088 1.252.17 2.22.7 3.203 1.004 1.527.477 2.445.356 3.957.225.644-.054 1.814-.43 2.51-.29-1.46.8-3.434.652-4.93 1.415-1.045.536-1.348 1.327-2.79 1.605-1.284.25-2.364.116-3.198-.312-.65-.326-1.157-.463-1.74-.184-1.555.747-2.618 1.802-3.87 3.065-2.908 2.927-5.28 6.193-7.496 10.476a54.818 54.818 0 0 0-1.612 3.425c-.246.566-.86 2.135-.86 2.135h-7.597s-.02-2.19.053-2.99c.145-1.596.362-2.777.672-4.395.44-2.326.872-4.437 1.475-6.694a80.77 80.77 0 0 1 1.975-6.365c1.57-4.395 3.24-8.605 5.066-12.705M68.255 151.52c2.774-2.268 4.827-3.582 7.596-5.233 1.126-.672 2.827-1.433 4.135-2.026 4.798-2.167 11.146-3.766 17.127-3.876.108 0 .1.005.1.005h44.59s-.165-.006.157-.006c1.418 0 2.822.495 3.69 1.314.87.826 1.287 2.098 1.515 3.363.192 1.08.097 2.037-.154 3.19-.195.91-.342 1.454-.85 2.228-.306.47-.597.794-1.167 1.248-.586.468-1.416.63-2.368.64-.1.004-.312.01-.304.007.01-.007-52.155-.007-52.155-.007h-.488c-3.414-.012-7.01.162-10.383.602-2.584.353-5.174.756-7.672 1.406-3.15.823-6.184 1.962-9.212 3.09 1.678-2.23 3.616-4.123 5.845-5.944"></path><path d="M83.74 133.78c2.74-1.98 6.065-3.605 9.01-4.733a49.313 49.313 0 0 1 5.06-1.586c1.907-.48 4.097-.84 5.884-.893.538-.015.08-.004.08-.004l38.244-.004s.82.043 1.104.1a5.12 5.12 0 0 1 1.54.6c.592.38 1.338 1.18 1.728 1.814.993 1.635 1.168 3.4.847 5.237-.367 2.098-1.96 4.487-4.123 4.546-.377.01-1.128 0-1.128 0h-41.423s-2.41.047-3.512.087a60.34 60.34 0 0 0-6.074.574c-1.522.22-3.008.507-4.532.915-5.107 1.38-9.544 3.97-14.185 5.984 3.124-5.463 7.353-9.648 11.48-12.637M62.344 159.772c6.65-3.928 14.658-5.477 21.988-5.723.175-.01.522-.02.522-.02l57.174.005.62-.005c3.466-.003 4.73 3.435 4.716 6.215-.007.916-.162 1.85-.416 2.477-.33.82-.694 1.488-1.29 2.134-.212.234-.978.772-1.317.855-.79.195-1.765.173-1.76.173.008 0-42.526.008-42.526 0 0 0-2.295-.092-3.887-.245a32.875 32.875 0 0 1-3.21-.46c-2.928-.582-5.355-1.535-7.892-2.317a36.434 36.434 0 0 0-5.327-1.193c-3.414-.522-7.142-.76-10.59-.5-4.384.327-8.284 1.186-12.455 2.51.706-1.1 3.638-2.713 5.65-3.905"></path><path d="M93.14 177.7c-1.955-.69-3.862-1.578-5.573-2.707-2.228-1.475-3.32-2.648-6.2-3.98-2.465-1.138-4.433-2.262-7.87-3.507-1.658-.6-4.344-1.428-6.647-1.822-3.29-.56-6.464-.804-6.464-.804s.672-.42 1.077-.543c3.36-1.022 6.325-1.52 9.774-1.776 3.025-.226 5.803.07 8.836.543 1.244.196 2.86.58 4.266.98 4.563 1.3 9.752 3.36 14.354 3.367.257 0 .228-.004.228-.004h42.63c1.288-.004 3.695.413 4.66 2.12 1.12 1.97 1.47 4.313.53 6.66-.286.706-.76 1.717-1.44 2.33-.595.54-1.565.886-2.126.886-.162.008-.44 0-.44 0h-37.17-.2c-3.802 0-8.586-.46-12.226-1.742M110.07 190.884c-1.05-1.08-2.5-2.733-3.814-4.304-2.522-3.007-3.652-5.716-3.652-5.716h24.79s.067 2.86-.506 6.172c-.536 3.075-1.672 6.317-2.88 8.666-.044 2.408.973 4.647 1.14 7.026-2.036 1.25-4.227 2.487-6.052 4.242-.116.108-.304.108-.382-.183-.977-3.666-1.492-6.934-2.294-10.56-2.26-1.746-4.38-3.303-6.35-5.343M135.62 188.85c-.7-1.294-1.224-3.004-2.03-4.02-.172.906.04 1.464-.082 2.332-.113.727-.71.425-.83.083-.347-.984-.717-2.2-1.035-3.208a18.985 18.985 0 0 1-.697-3.168l4.124-.006s.158.04.23.44c.2 1.04.15 2.054.435 3.258.365 1.55.837 2.967 1.406 4.413.497 1.273 1.137 2.557 1.656 3.82.07.167.105.487-.02.653-.153.192-.416.168-.568 0-1.18-1.343-1.657-2.864-2.587-4.597M142.004 191.8c-.7-1.496-1.687-3.177-1.6-4.873.455.6.642 1.028 1.27 1.362.287.09.89.005.74-.497-.28-.934-.71-1.725-1.108-3.007-.592-1.895-1.167-3.92-1.167-3.92l-4.21-.002s.233 1.708 1.19 4.33c.84 2.32 2.14 4.976 3.56 7.466 1.16 2.048 2.212 3.835 3.527 5.33.45.516 1.553.064 1.076-.606-1.247-1.764-2.41-3.717-3.28-5.585M169.34 49.51c-.914.4-1.72.914-2.176 1.792-.332.63-.556 1.592.08 2.133 1.11.95 2.436-.022 2.973-.99.68-1.236.502-3.597.502-3.597s-.79.41-1.38.663"></path><path d="M170.306 55.405c.4-.754 1.275-1.568 2.234-2.15 1.084-.664 2.207-1.307 2.988-1.773.78-.47.93-.8.93-.8s-.644.223-.997.43c-1.926 1.15-4.03 2.456-4.885 2.833-1.08.47-2.547.562-3.87.73-.21-1.668-.645-2.36-.64-3.843.012-.71.184-1.634.305-2.277.414-2.143.495-3.225.495-3.225s-.327.305-.447 1.25c-.134.85-.23 1.165-.425 2.172-.223 1.162-.455 2.147-1.15 2.873-1.003 1.037-1.93 2.882-1.157 4.296.45.827 1.204.707 1.44.92.236.212.38.72 1.092.957 1.54.514 3.283-.866 4.088-2.392"></path><path d="M168.31 59.812c.523-.848 1.06-1.443 1.883-1.948a49.69 49.69 0 0 1 3.213-1.824c.36-.18.663-.397.755-.783-.372.14-1.783.803-3.183 1.635-1.003.6-2.727 1.347-3.885 1.4-.46.02-.8-.093-1.174-.105-.777-.03-1.766.156-1.766.156s-.25-1.098-.583-1.89c-.167-.405-.437-.82-.58-1.582a7.376 7.376 0 0 1-.087-1.724c.113-1.373.483-2.707.42-4.097-.864 1.792-.51 4-1.524 5.387-.428.583-.766 1.043-1.102 1.778-.557 1.206-.49 2.455.26 3.618.435.663 1.392.638 1.557.767.25.185.466.878 1.402 1.086 1.6.36 3.49-.382 4.394-1.874M168.758 94.87c.373-.752.614-1.74 1.09-2.44-1.076.16-1.25.284-2.805.455-.338.032-1.04.384-1.27.615-.616.62-1.153 1.197-.914 2.238.09.405.448.702.647.765 1.293.42 2.606-.35 3.25-1.632"></path><path d="M170.07 96.923c1.47-.343 3.167-1.064 3.848-.837-1.378.733-3.117 1-4.644 1.435-1.165.337-1.997 1.217-3.037 2.016-.955.727-2.225 1.022-3.36.488-.382-.182-.753-.8-.82-1.128-.06-.263-.607-.526-.89-.758-.282-.236-.418-.825-.424-1.052-.05-2.034 1.498-2.855 2.99-4.05 1.122-.9 2.58-4.716 3.47-5.507-.16 1.23-1.76 3.55-2.456 5.357-.553 1.44-.372 2.59-.73 4.105 1.067.067 2.256.29 3.33.308.84.01 1.86-.172 2.724-.377"></path><path d="M168.523 100.058c-.825.153-1.835.413-2.523.56-2.396.506-3.54-.667-5.453-.645.168-2.19-.592-3.17.034-4.587.56-1.26 1.077-2.594 1.556-3.66.39-.858.507-1.58.507-1.58s-.58.868-2.23 4.085c-.576 1.123-1.604 1.364-2.516 2.424-1.052 1.212-1.654 3.775.29 4.85.386.213.33.88.61 1.148 1.298 1.22 3.92 1.098 5.56-.39 1.304-1.19 2.89-1.382 4.24-1.732.79-.204 1.485-.54 1.485-.54s-.375-.153-1.56.068M120.523 125.483c-.095 0-.196 0 0 0zm-11.19-31.555c-.797 1.056-1.167 2.27-2.05 3.192-.46.483-1.16.257-1.526-.3-.404-.628-1.06-1.517-.572-2.138.8-1.027 2.475-1.682 3.9-1.497.084.01.543.35.25.743zm-3.833 6.04c-.447 1.195-1.78 1.325-2.914 1.56-.212.047-.864 0-1.157-.286-.49-.48-.915-1.134-.83-1.954.046-.505.468-1 .99-1.203.947-.367 2.07-.957 3.003-.433.803.45 1.224 1.472.907 2.315zm-2.455 6.32c-.326.472-1.164-1.094-1.273-1.81-.313-2.078 1.507-2.608 3.024-2.544.047 1.24-.913 3.157-1.75 4.355zm-1.638 5.604c-.298.835-.44 1.604-.773 2.37-.322.74-1.697 1.003-2.46.766-1.09-.337-2.024-2.783-.786-3.72.948-.708 1.93-.822 3.136-.97.217-.026 1.028.023 1.06.1.202.506.074.76-.177 1.454zm-1.834 6.46c-.22.64-.318 1.3-.602 1.918-.14.313-.327-.098-.335-.12-.428-1.063-.698-1.964-.333-2.9.206-.52.916-.997 1.59-1.04-.04.668-.09 1.49-.32 2.14zm-2.165 3.148c-.492-.222-.485-.855-.69-1.248-.195-.384-.614-.913-.442-1.417.95.533 1.39 1.483 1.132 2.665zm-1.638-3.93c-1.134-.933-1.232-2.423-1.987-3.563.834-.533 2.24-.426 2.67.63.347.847.598 2.093-.262 2.74-.092.07-.313.28-.42.192zm-4.225-7.686c-.17-.243-.506-.943-.25-1.032 2.028-.698 3.55-.72 3.983 1.45.307 1.547-.75 2.876-2.233 2.335-.425-.158-.846-1.807-1.5-2.753zm-2.95-4.9c-.142-.178-.258-.717-.08-.855 1.054-.85 2.603-.914 3.8-.797 1.582.144 1.907 1.614 1.644 2.832-.35 1.604-2.782 1.804-3.47 1.537-.678-.26-1.15-1.794-1.895-2.717zm.344-5.702c1.366-.886 3.978-1.543 4.414.856.13.723-.05 1.683-1.025 1.997-1.005.322-2.186.67-3.102.297-1.128-.46-1.35-2.465-.29-3.15zm-1.417-4.036c.103-.46.613-.678 1.042-.788 1.106-.273 2.343-.685 3.358-.038.396.25.426.604.478 1.102.09.807-.024 1.466-.555 1.774-1.078.632-2.174.69-3.426.443-1.017-.202-1.1-1.548-.897-2.494zm-1.133 6.22c-.948-.7-1.366-1.69-2.064-2.67-.17-.24 0-.34.13-.377 1.68-.476 2.927.363 2.665 2.195-.046.356-.277 1.185-.73.852zm-4.64-5.66c-.63-.545-.19-1.492.358-1.768.96-.477 2.47-.55 3.47-.212.643.216.968 1.14.853 2.147-.047.412-.173.867-.375 1-.76.52-1.94.54-2.865.348-.655-.138-.89-1.033-1.44-1.514zm-.725-5.725c.61-1.324 2.83-1.335 4.04-.745.986.485 1.11 2.32.034 3.042-.86.572-2.213.362-3.123.195-1.294-.238-1.397-1.51-.952-2.49zm.05-4.96c.922-.877 2.118-.475 3.23-.32.215.03.47.18.617.326.76.767.82 2.024-.026 2.653-.975.724-2.192.253-3.364.194-.317-.013-.665-.385-.737-.623-.21-.74-.34-1.648.28-2.23zm.594-4.15c.98-.408 2.662-.596 3.356.504.427.674.303 1.922-.38 2.104-.67.172-2.947.55-3.492-.708-.27-.62-.156-1.617.515-1.9zm3.015-3.524c.284.125.46.352.527.7.14.755-.06 1.575-.783 1.708-1.09.198-2.707.26-2.7-1.278.002-1.717 1.694-1.698 2.955-1.13zm-2.192-3.193c.58-.22 1.533-.172 2.053.1.263.136.616.567.467 1.02-.184.594-.736.808-1.363.816-.602.004-1.292-.044-1.535-.535-.23-.466-.133-1.204.378-1.402zm.677-2.574c.53-.194 1.313-.18 1.698.237.53.58.112 1.5-.888 1.454-.353-.014-.77-.135-.983-.256-.517-.292-.346-1.25.173-1.435zm2.38-1.66c.07-.223.417-.484.6-.55.396-.14.862-.17 1.242-.017.76.312.656 1.252-.156 1.582-.363.148-.92.243-1.195.148-.51-.174-.652-.618-.49-1.163zm2.37 3.677c-.83.242-1.985.29-2.233-.56-.42-1.443 1.4-1.66 2.345-1.356.65.207.88 1.632-.113 1.917zm.548-4.763c.263-.894 1.276-1.38 2.194-1.106.788.23.97 1.306.438 1.83-.242.234-.64.472-1.07.567-.94.21-1.86-.307-1.562-1.29zm4.126 3.28c-.15.582-.577.983-1.262 1.135-.68.148-1.622.19-1.998-.23-.36-.398-.526-.958-.226-1.388.602-.856 1.705-1.155 2.687-.938.56.13.973.705.8 1.42zm-.366-3.432c.366-.81 1.295-1.22 2.187-.947.18.057.547.345.598.63.106.563-.09 1.078-.56 1.373-.604.385-1.102.6-1.795.317-.52-.218-.648-.894-.43-1.373zm3.843 2.278c.41.69-.212 1.383-.526 1.573-.7.41-1.685.66-2.106-.032-.414-.68-.07-1.485.65-1.784.69-.286 1.405-.72 1.983.244zm1.16 2.637c.457.377.857 1.17.31 1.797-.514.59-1.152.767-1.96.897-.545.094-1.243-.31-1.33-.792-.082-.415-.158-1.172.253-1.52.803-.684 1.878-1.08 2.727-.38zm.967-4.498c.43.126.707.582.49 1.02-.13.272-.518.566-.764.716-.676.417-1.257.247-1.47-.25-.39-.916.922-1.73 1.744-1.487zm1.65 2.278c.476.042.694.373.787.736.123.487-.037.938-.448 1.214-.49.325-1.1.517-1.587.525-.66.01-1.27-.957-.913-1.585.378-.674 1.33-.962 2.16-.89zm2.73 3.49c.28.827-.328 1.213-.967 1.553-.65.348-1.523.672-1.974.24-.577-.543-.834-1.458-.19-2.06.89-.836 2.54-1.465 3.13.267zm1.176 2.076c1.046.133 1.254 1.62 1.043 2.158-.24.462-.766.824-1.043.966-.767.395-1.664.545-2.37.18-.642-.333-.92-1.31-.57-2.073.472-1.034 1.962-1.36 2.94-1.23zm2.152 4.604c.358.5.28 1.388.067 1.666-.66.9-2.496 1.416-3.253 1.047-.577-.28-1.145-1.55-.47-2.31.7-.79 1.92-1.26 3.03-1.03.246.055.41.327.625.628zm.464 2.837c.503.054.95.608 1.193 1.21.316.78-.003 1.69-.253 1.86-.602.41-2.508 1.557-3.708.87-.66-.38-.842-1.245-.883-1.756-.134-1.652 2.37-2.328 3.65-2.185zm-7.04 11.81c-.257-.656-.495-1.625.02-2.023 1.04-.82 3.39-1.537 4.283-.297.58.805.41 2.17-.607 2.692-1.05.537-3.104 1.154-3.696-.373zm-5.04.072c1.04-.53 2.545-1.17 3.667-.447.514.33 1.045 1.696.682 2.302-.77 1.287-2.797 1.615-4.085 1.284-1.097-.285-1.428-2.553-.266-3.14zm-.94-4.45c1.26-.885 3.745-1.457 4.343.477.156.502.244 1.057-.012 1.462-.697 1.12-2.465 1.416-3.65 1.25-1.28-.186-1.884-2.344-.68-3.19zm-1.06-4.507c1.21-.686 3.787-1.597 4.394.367.243.803.218 1.795-.47 2.15-.984.515-2.545 1.057-3.68.35-.95-.6-1.077-2.39-.243-2.867zm6.77-8.103c-.507.452-1.02.55-1.695.778-.944.32-1.93-.407-2.04-1.31-.182-1.546 1.475-1.776 2.57-1.97.8-.143 1.294.574 1.44 1.057.152.464.132 1.087-.276 1.445zm2.03 3.637c-.72 1.07-3.616 1.745-4.255.643-.467-.806-.758-1.94.12-2.48.92-.566 2.013-.905 3.086-.712 1.01.178 1.522 1.836 1.05 2.55zm1.544 6.633c.413.656.7 1.538.09 2.352-.557.744-2.538 1.093-3.553.847-.556-.14-.82-.816-.904-1.273-.118-.617-.173-1.238.373-1.74.784-.72 1.833-.705 2.84-.705.414 0 1 .268 1.154.517zm-.575-2.226c-.62 1.135-2.71 1.28-3.65 1.156-.663-.09-1.13-1.157-1.11-2.05.007-.46.15-.765.465-.934 1.044-.56 2.113-.935 3.237-.753 1.096.173 1.522 1.72 1.057 2.58zm-11.01-2.44c-.71-2.19 2.024-2.88 3.62-2.542 1.11.23 1.48 2.365.447 3.04-1.28.83-3.548 1.098-4.066-.5zm-4.12 5.372c.82-.845 2.298-.898 3.45-.743.71.098 1.016.814 1.114 1.59.276 2.14-2.594 2.5-3.96 2-.9-.33-1.368-2.06-.604-2.848zm-.577-4.142c.856-1.008 2.287-1.247 3.473-.92.724.196 1.06 1.042 1.042 1.99-.014.538-.383.93-.714 1.065-.843.342-1.817.596-2.736.484-1.135-.14-1.822-1.727-1.065-2.62zm.135-4.51c1.053-.43 3.015-.815 3.346.69.445 2.002-1.918 2.327-3.18 1.98-.967-.266-1.15-2.273-.166-2.67zm7.573-3.31c.788.447.953 1.708.474 2.44-.637.966-2.813 1.527-3.984.68-.668-.485-1.028-2.472.34-2.95 1.094-.382 2.142-.753 3.17-.17zm-1.115-1.438c-.893.552-2.165.772-3.01.302-.734-.4-.705-1.475-.34-2.052.597-.962 2.084-1.066 3.112-.764.886.256 1.218 1.904.238 2.514zm-7.228-1.568c.09-.286.218-.368.395-.455.75-.36 1.575-.455 2.294.007.518.335.472 1.11.09 1.51-.563.592-1.706.616-2.437.232-.474-.247-.496-.83-.343-1.296zm.24 3.135c.332-.95 1.515-.897 2.41-.78 1.103.143 1.323 1.555.932 2.15-.542.82-1.777.662-2.76.537-.8-.102-.846-1.16-.583-1.908zm15.55 28.52c.272 1.07 0 2.088-.952 2.43-1.225.43-2.882 1.064-3.86.404-1.12-.75-1.66-2.88-.373-3.716 1.52-.994 4.544-1.645 5.186.88zm-1.65-3.33c-.823.934-2.167.903-3.485 1.29-.51.147-1.114-.302-1.38-.768-.486-.87-.974-2.036-.04-2.877.773-.705 1.828-.645 2.775-.928.425-.128.946-.277 1.462.072 1.067.728 1.483 2.29.667 3.21zm8.73-14.016c.233.68.545 1.18.28 1.858-.314.833-1.12.947-1.88 1.22-.706.257-1.885.58-2.477-.04-.68-.703-.955-2.138-.14-2.753 1.055-.787 3.66-1.872 4.217-.286zm14.33-6.118c.623-2.54 1.396-5.114 1.59-7.797.284-4.008-.58-8.174-3.15-11.21.252 1.31.587 2.415.763 3.79.21 1.658-.026 3.506-.453 5.176-.325 1.264-.894 2.493-1.46 3.667-.666 1.39-1.663 2.904-2.654 4.145-2.78 3.458-7.114 10.207-7.114 10.207s-.365-.026-.58-.026c-.05-.84 1.944-3.723 2.95-5.336 2.21-3.535 3.883-5.437 5.805-8.503 1.204-1.93 2.123-4.283 2.42-6.415.597-4.343-1.744-9.547-5.11-11.28.768 3.245.688 7.818-1.04 9.74-3.268 3.644-5.212 6.37-7.545 11.04-.066.125-.612-.63-1.063-.923-.507-.335-.223-1.337-.405-2.01-.164-.574-.434-1.016-.514-1.116-.69-.846-1.358-.9-1.503-1.153-.168-.286-.087-1-.69-1.813-.3-.41-1.067-.713-1.38-1.097-.337-.42-.49-1.705-1.42-2.232-.443-.247-.648-1.018-1.072-1.396-1.31-1.16-2.615-.935-2.866-1.008-.336-.09-.993-.927-2.163-1.128-1.144-.195-1.773.568-2.367.292-1.49-.69-2.916-.746-4.498 1.018-.476.525-1.297.034-2.322.818-.9.686-.917 1.32-1.375 1.407-.86.16-1.503.85-1.835 1.602-.173.387-.302 1.17-.403 1.686-.14.714-.5 1.37-.508 1.894-.008.728.222 1.12.157 1.447-.106.472-.487.904-.534 1.345-.035.25-.056.916.126 1.29.23.463-.16.865-.363 1.357-.194.458-.397 1.242-.335 1.795.082.76.516 1.037.18 1.636-.555.97-1.255 2.487-.028 4.424.225.354-.514 1.043-.556 2.054-.046 1.1.618 1.914.8 2.4.033.176-.293.166-.305.354-2.923-3.09-5.507-5.94-8.896-8.622-2.07-1.636-4.117-3.012-6.41-4.24-6.13-3.287-13.25-5.486-19.7-4.682 2.428 1.956 5.494 3.35 7.99 5.57 2.363 2.107 4.508 3.905 6.66 6.142 3.38 3.51 6.127 7.07 8.988 11.2.85 1.224 1.41 2.042 2.2 3.318.8 1.276 1.685 2.63 2.41 3.896 3.663 6.358 6.663 12.244 9.7 18.76.842 1.8 1.55 3.686 2.376 5.477.22.486.537.125.76 0 1.098-.635 2.265-1.166 3.406-1.704.91-.42 1.737-.707 2.55-1.02 2.054-.782 4.004-1.207 6.156-1.654 3.59-.752 10.043-.597 10.043-.597l12.234-.005h.334c-.127-3.507-.96-6.915-1.163-10.432-.154-2.85-.06-5.604.04-8.46.274-7.735 1.41-16.04 3.14-23.087zM39.514 54.484c-2.387 2.38-3.1 3.257-4.49 5.888-.82 1.547-1.862 3.534-2.16 6.093 4.907-1.867 8.908-5.678 12.525-9.887 2.674-3.12 4.75-7.26 7.387-10.342-4.647 1.558-9.55 4.552-13.263 8.248"></path><path d="M25.472 61.175c1.85-3.124 4.498-6.5 7.244-8.805-1.272 2.856-2.84 5.687-3.377 9.066-1.07 6.727-2.076 11.44-3.192 17.58 3.05-2.177 6.268-5.596 9.503-7.982 2.5-1.837 5.006-3.064 7.577-4.83 1.528-1.055 2.523-2.41 3.794-3.677-1.513 6.384-7.115 12.827-11.126 15.83-5.04 3.78-6.845 4.382-14.942 12.616-1.028-10.167-.845-20.733 4.52-29.798"></path><path d="M8.953 94.94c.377-5.28 1.01-9.5 2.293-14.65.898-3.598 2.834-8.952 5.624-11.148-.342 1.305-.52 3.26-.653 4.58-.547 5.44.494 11.756.618 17.19.062 2.67.04 4.73-.36 7.24-.415 2.634-.07 5.863-.07 5.863s1.443-1.647 2.73-3.7c2.815-4.47 3.717-5.796 5.984-8.218 2.813-3.005 5.96-5.788 9.512-8.252-.43 1.67-2.243 4.916-2.992 6.22-1 1.746-1.455 3.333-3.822 7.286-3.33 5.556-4.815 6.305-8.514 12.246-.8 1.292-4.085 6.206-4.88 7.708-1.733-3.586-2.387-6.72-4.512-12.556-1.336-3.668-1.136-7.336-.96-9.807"></path><path d="M3.81 122.408C1.8 117.2.88 112.368.2 106.885c-.416-3.355-.223-7.826.974-11.052.314.787.955 2.787 1.042 3.086.89 2.995 1.263 4.434 2.508 7.324.952 2.216 2.117 3.983 3.363 6.173 1.133 2 2.09 4.63 2.91 6.645 2.636 6.457 2.83 12.502 3.84 13.162.726-1.554.953-3.042 1.034-3.775.785-7.146 1.726-13.64 10.724-22.06.825 2.506.407 7.127-.09 9.602-1.075 5.412-1.944 8.01-4.327 13.256-1.26 2.762-2.942 6.827-3.403 8.173-1.208 3.508-1.622 5.346-2.382 7.42-4.248-7.078-9.476-14.387-12.582-22.432"></path><path d="M10.813 154.97c-3.025-4.21-4.127-6.326-6.095-10.808-1.653-3.76-2.13-5.153-3.096-9.363-.53-2.296-.828-4.378-.417-5.735 2.367 4.287 3.983 9.085 7.08 12.64 2.46 2.822 4.828 5.224 6.783 7.605 3 3.658 5.36 7.12 8.238 10.93.243-1.91.337-3.843-.092-6.97-.586-4.287-.225-7.8.524-11.95.95-5.266 1.644-7.872 3.47-13.2 2.236 4.384 2.227 9.455 2.788 14.104 1.083 9.02-1.74 19.776-2.294 24.26-.148 1.18.056 4.096.116 5.232a127.963 127.963 0 0 1-11.614-10.33c-1.66-1.653-3.934-4.394-5.39-6.417"></path><path d="M26.81 188.047c-1.92-1.384-7.084-5.33-9.528-8.435-3.56-4.52-4.344-6.458-6.693-11.66-.288-.633-1.617-3.577-1.726-5.577 7.695 9.29 14.583 10.674 21.923 18.384 2.693 2.823 5.452 5.482 6.907 6.815 1.118 1.028 2.505 1.34 2.505 1.34s-.146-1.98-.87-3.36c-4.897-9.358-5.82-19.143-5.08-29.644 2.237 2.768 2.942 4.616 4.36 7.292 1.543 2.915 2.33 4.717 3.05 6.51 4.19 10.43 5.28 22.476 7.87 28.538-7.99-2.692-14.284-4.13-22.72-10.203"></path><path d="M59.583 212.657c-2.162.145-6.4.132-8.66-.236-11.438-1.83-22.07-10.12-27.42-19.226 4.85 2.96 8.356 4.934 12.62 6.41 3.8 1.313 7.402 1.702 13.743 3.503 3.826 1.08 7.614 2.612 8.945 3.11 4.243 1.58 6.03 1.192 6.03 1.192s0-.646-1.586-2.374c-3.157-3.446-4.314-4.27-6.912-6.92-.853-.874-2.807-3.847-3.8-5.824-2.807-5.588-3.12-10.067-5.682-16.206 9.355 5.494 13.912 13.075 18.86 22.632 1.52 2.927 3.576 6.308 5.456 8.166a146.84 146.84 0 0 1 3.044 3.142s-1.305.307-5.366.907c-1.823.267-5.706 1.476-9.27 1.724M104.93 213.382c4.94.808 9.33 2.008 13.82 3.55 1.208.414 3.044 1.327 4.317 1.972 3.183 1.62 5.016 2.672 7.752 4.553 4.405 3.035 9.14 6.305 13.41 11.267.092.098.782.836.322 1.196-.837.656-2.9 1.59-3.585.985-3.908-3.476-3.71-4.59-8.447-8.878a51.268 51.268 0 0 0-5.24-4.128c-2.138-1.464-4.722-3.062-7.122-4.246-2.183-1.074-5.542-1.395-7.43-1.395l.027.013c-.857-.033-5.784-.06-6.924.013-9.68.664-9.206 1.53-14.788 3.042-4.59 1.25-9.516 2.138-14.405 2.794-5.01.68-9.49.763-14.186.284-6.364-.656-13.327-2.43-18.523-5.78 4.75.08 9.63.994 14.357.632 1.988-.153 5.216-.453 7.4-1.127 4.342-1.332 6.834-1.852 11.432-3.134 3.95-1.1 7.934-1.48 12.06-1.915 5.71-.61 11-.472 15.755.302M193.452 54.484c2.387 2.38 3.102 3.257 4.494 5.888.82 1.547 1.86 3.534 2.158 6.093-4.91-1.867-8.907-5.678-12.526-9.887-2.677-3.12-4.75-7.26-7.387-10.342 4.648 1.558 9.55 4.552 13.262 8.248"></path><path d="M207.498 61.175c-1.852-3.124-4.5-6.5-7.245-8.805 1.285 3.074 3.157 6.904 3.376 9.066.682 6.774 2.074 11.44 3.19 17.58-3.05-2.177-6.27-5.596-9.505-7.982-2.494-1.837-5.002-3.064-7.57-4.83-1.532-1.055-2.527-2.41-3.798-3.677 1.514 6.384 7.116 12.827 11.128 15.83 5.037 3.78 6.843 4.382 14.937 12.616 1.028-10.167.846-20.733-4.514-29.798"></path><path d="M224.016 94.94c-.38-5.28-1.008-9.5-2.293-14.65-.898-3.598-2.834-8.952-5.63-11.148.347 1.305.524 3.26.657 4.58.552 5.44-.488 11.756-.617 17.19-.06 2.67-.04 4.73.36 7.24.414 2.634.07 5.863.07 5.863s-1.44-1.647-2.732-3.7c-2.808-4.47-3.71-5.796-5.984-8.218a59.19 59.19 0 0 0-9.513-8.252c.433 1.67 2.246 4.916 2.996 6.22 1.003 1.746 1.452 3.333 3.82 7.286 3.33 5.556 4.815 6.305 8.51 12.246.8 1.292 4.09 6.206 4.885 7.708 1.735-3.586 2.386-6.72 4.512-12.556 1.34-3.668 1.14-7.336.96-9.807"></path><path d="M229.16 122.408c2.007-5.208 2.925-10.04 3.61-15.523.416-3.355.22-7.826-.975-11.052-.314.787-.953 2.787-1.042 3.086-.893 2.995-1.263 4.434-2.505 7.324-.954 2.216-2.124 3.983-3.367 6.173-1.13 2-2.087 4.63-2.91 6.645-2.635 6.457-2.83 12.502-3.84 13.162-.727-1.554-.953-3.042-1.032-3.775-.785-7.146-1.726-13.64-10.723-22.06-.828 2.506-.408 7.127.084 9.602 1.08 5.412 1.953 8.01 4.332 13.256 1.26 2.762 2.942 6.827 3.406 8.173 1.2 3.508 1.617 5.346 2.383 7.42 4.245-7.078 9.473-14.387 12.58-22.432"></path><path d="M222.157 154.97c3.027-4.21 4.126-6.326 6.093-10.808 1.653-3.76 2.126-5.153 3.098-9.363.53-2.296.826-4.378.414-5.735-2.36 4.287-3.986 9.085-7.083 12.64-2.455 2.822-4.824 5.224-6.78 7.605-2.995 3.658-5.363 7.12-8.237 10.93-.24-1.91-.338-3.843.087-6.97.59-4.287.23-7.8-.52-11.95-.948-5.266-1.644-7.872-3.47-13.2-2.232 4.384-2.226 9.455-2.788 14.104-1.086 9.02 1.743 19.776 2.298 24.26.145 1.18-.06 4.096-.12 5.232 4.22-3.323 7.975-6.68 11.614-10.33 1.66-1.653 3.93-4.394 5.393-6.417"></path><path d="M206.16 188.047c1.92-1.384 7.083-5.33 9.526-8.435 3.56-4.52 4.346-6.458 6.693-11.66.283-.633 1.617-3.577 1.725-5.577-7.694 9.29-14.584 10.674-21.924 18.384-2.69 2.823-5.447 5.482-6.904 6.815-1.117 1.028-2.504 1.34-2.504 1.34s.143-1.98.865-3.36c4.9-9.358 5.823-19.143 5.076-29.644-2.227 2.768-2.937 4.616-4.354 7.292-1.54 2.915-2.33 4.717-3.05 6.51-4.192 10.43-5.287 22.476-7.875 28.538 7.997-2.692 14.288-4.13 22.725-10.203"></path><path d="M173.385 212.657c2.166.145 6.4.132 8.662-.236 11.44-1.83 22.07-10.12 27.42-19.226-4.855 2.96-8.36 4.934-12.623 6.41-3.8 1.313-7.4 1.702-13.738 3.503-3.83 1.08-7.617 2.612-8.95 3.11-4.24 1.58-6.027 1.192-6.027 1.192s0-.646 1.583-2.374c3.16-3.446 4.317-4.27 6.91-6.92.856-.874 2.81-3.847 3.802-5.824 2.808-5.588 3.12-10.067 5.687-16.206-9.356 5.494-13.922 13.075-18.865 22.632-1.518 2.927-3.575 6.308-5.452 8.166a154.896 154.896 0 0 0-3.046 3.142s1.303.307 5.37.907c1.818.267 5.7 1.476 9.265 1.724M128.038 213.382c-4.94.808-9.324 2.008-13.82 3.55-1.21.414-3.044 1.327-4.316 1.972-3.184 1.62-5.012 2.672-7.75 4.553-4.412 3.035-9.14 6.305-13.414 11.267-.092.098-.785.836-.322 1.196.84.656 2.902 1.59 3.582.985 3.91-3.476 3.71-4.59 8.452-8.878a50.04 50.04 0 0 1 5.24-4.128c2.14-1.464 4.717-3.062 7.12-4.246 2.18-1.074 5.546-1.395 7.43-1.395l-.03.013c.86-.033 5.785-.06 6.928.013 9.683.664 9.206 1.53 14.785 3.042 4.594 1.25 9.52 2.138 14.41 2.794 5.004.68 9.49.763 14.184.284 6.366-.656 13.326-2.43 18.52-5.78-4.747.08-9.623.994-14.355.632-1.99-.153-5.213-.453-7.398-1.127-4.342-1.332-6.835-1.852-11.43-3.134-3.952-1.1-7.936-1.48-12.06-1.915-5.712-.61-11-.472-15.756.302M110.365.536l-8.696 32.288h-9.232L86.664 11.79 81.02 32.824h-9.21L63.115.536h8.69l4.954 22.226L82.716.536h8.305l5.653 22.226 5.2-22.226h8.49M139.05 6.78H124.2v6.008h13.77v6.245h-13.77v13.79h-8.282V.537h23.135V6.78M162.838 10.913c0-.91-.246-1.69-.736-2.347-.492-.657-1.062-1.114-1.713-1.374-.87-.346-1.714-.537-2.538-.573a79.03 79.03 0 0 0-3.297-.056h-1.43v9.65h2.384c1.416 0 2.583-.087 3.502-.26.918-.173 1.688-.52 2.31-1.04a3.98 3.98 0 0 0 1.16-1.654c.237-.64.356-1.424.356-2.347zm8.61-.186c0 1.446-.254 2.86-.76 4.24-.506 1.38-1.23 2.54-2.168 3.48-1.287 1.273-2.722 2.234-4.305 2.884-1.582.652-3.552.977-5.908.977h-5.182v10.517h-8.328V.536h13.705c2.053 0 3.784.177 5.193.53 1.41.356 2.657.887 3.74 1.595 1.302.854 2.296 1.945 2.982 3.275.687 1.33 1.03 2.928 1.03 4.792zM49.932 258.213l-5.805 18.732h-6.375l-3.816-12.627-3.77 12.627h-6.44l-5.753-18.732h6.298l3.217 12.91 3.996-12.91h5.32l3.8 12.91 3.164-12.91h6.165M64.977 255.394h-.45a20.187 20.187 0 0 0-1.038-.267 6.07 6.07 0 0 0-1.374-.15c-1.175 0-1.97.21-2.387.634-.416.424-.624 1.24-.624 2.453v.15h4.62v4.07h-4.42v14.662h-6.022v-14.662h-2.568v-4.07h2.568v-.517c0-2.29.61-4.008 1.827-5.155 1.22-1.144 3.062-1.716 5.53-1.716.89 0 1.696.03 2.42.09.722.062 1.36.143 1.917.243v4.237M78.915 267.446c0-1.82-.31-3.143-.932-3.964-.62-.82-1.603-1.233-2.945-1.233-.566 0-1.15.086-1.748.258-.6.17-1.17.418-1.714.74v9.41c.4.156.827.255 1.282.3.454.044.904.067 1.348.067 1.586 0 2.768-.464 3.545-1.39.777-.928 1.165-2.324 1.165-4.19zm6.19-.126c0 1.546-.238 2.952-.71 4.22-.472 1.268-1.09 2.313-1.857 3.135-.8.867-1.705 1.525-2.715 1.97a7.974 7.974 0 0 1-3.25.666c-1.065 0-1.97-.113-2.715-.34a13.14 13.14 0 0 1-2.282-.96v7.807h-6.02v-25.604h6.02v1.95a14.677 14.677 0 0 1 2.824-1.784c.96-.457 2.068-.684 3.324-.684 2.332 0 4.145.856 5.44 2.568 1.292 1.713 1.94 4.064 1.94 7.056zM87.95 270.39h6.238v6.555h-6.24v-6.556zM110.128 272.14c.39-.478.68-1.054.875-1.726.194-.672.292-1.604.292-2.794 0-1.1-.1-2.023-.3-2.768-.2-.745-.478-1.34-.834-1.785a2.926 2.926 0 0 0-1.284-.968 4.563 4.563 0 0 0-1.618-.284c-.578 0-1.092.078-1.543.233-.45.154-.88.467-1.292.934-.367.432-.66 1.027-.876 1.784-.217.756-.325 1.707-.325 2.852 0 1.024.094 1.91.283 2.66.19.752.467 1.354.834 1.81.355.434.78.75 1.276.95.494.202 1.058.3 1.693.3.543 0 1.064-.09 1.558-.274.494-.183.915-.49 1.26-.926zm7.388-4.554c0 3.08-.898 5.508-2.693 7.282-1.797 1.773-4.317 2.66-7.565 2.66-3.247 0-5.768-.887-7.564-2.66-1.796-1.774-2.694-4.2-2.694-7.282 0-3.1.903-5.537 2.71-7.304 1.808-1.77 4.323-2.654 7.548-2.654 3.27 0 5.796.89 7.58 2.67 1.786 1.78 2.678 4.208 2.678 7.288zM133.69 263.934h-.533c-.256-.09-.666-.156-1.233-.2a18.87 18.87 0 0 0-1.414-.067c-.854 0-1.608.056-2.263.167-.655.112-1.36.3-2.114.567v12.545h-6.02v-18.732h6.02v2.752c1.32-1.135 2.47-1.887 3.445-2.26.976-.373 1.876-.56 2.696-.56.21 0 .45.007.717.017.266.012.5.03.7.05v5.722M147.577 271.04v-8.49a5.8 5.8 0 0 0-1.266-.342 8.195 8.195 0 0 0-1.347-.126c-1.576 0-2.757.454-3.545 1.36-.787.906-1.18 2.17-1.18 3.795 0 1.8.335 3.057 1.007 3.77.67.71 1.666 1.068 2.986 1.068a5.6 5.6 0 0 0 1.765-.285 6.59 6.59 0 0 0 1.582-.75zm6.02 3.753c0 1.756-.25 3.236-.75 4.436-.5 1.2-1.2 2.14-2.102 2.818-.9.69-1.987 1.188-3.26 1.493-1.274.307-2.71.46-4.313.46-1.3 0-2.582-.078-3.843-.234a29.9 29.9 0 0 1-3.28-.566v-4.688h.734c.732.29 1.626.553 2.68.792 1.056.24 2 .36 2.832.36 1.11 0 2.013-.104 2.707-.31.695-.205 1.224-.497 1.59-.875.345-.358.595-.813.75-1.368.156-.557.234-1.224.234-2.002v-.35a8.913 8.913 0 0 1-2.4 1.4c-.877.345-1.854.517-2.93.517-2.623 0-4.645-.79-6.066-2.37-1.42-1.577-2.13-3.98-2.13-7.204 0-1.545.216-2.88.65-4.003a8.858 8.858 0 0 1 1.83-2.936c.734-.778 1.637-1.384 2.708-1.817a8.673 8.673 0 0 1 3.29-.65c1.012 0 1.93.118 2.758.357.827.24 1.58.57 2.257.993l.217-.834h5.838v16.58zM175.125 250.99l-13.228 31.36h-5.12l13.175-31.36h5.173M190.502 255.48h-.447c-.265-.078-.61-.167-1.035-.267-.425-.1-.88-.15-1.367-.15-1.17 0-1.964.212-2.378.633-.414.42-.62 1.234-.62 2.44v.15h4.6v4.055h-4.4v14.605h-6V262.34h-2.558v-4.053h2.56v-.515c0-2.28.605-3.993 1.818-5.134 1.213-1.14 3.05-1.71 5.508-1.71.886 0 1.69.03 2.41.09.72.06 1.356.142 1.91.24v4.22"></path><path d="M190.396 258.287h6v18.658h-6v-18.658zm-.166-7.194h6.33v4.535h-6.33v-4.535z"></path></g></svg>