<svg xmlns="http://www.w3.org/2000/svg" viewBox="0 0 850.74664 377.94666" height="377.947" width="850.747"><defs><clipPath id="a"><path d="M0 2834.65V0h6380.56v2834.65z"></path></clipPath></defs><g clip-path="url(#a)" fill="#fff" transform="matrix(.13333 0 0 -.13333 0 377.947)"><path d="M1340.55 2131.13c12.48 27.05 24.07 48.64 40.77 74.3 7.36 11.3 15.68 19.19 23.14 30.68-3.59 1.02-8.73-1.91-10.99-3.49-7.42-5.38-10.77-14.13-16.7-18.83-14.05-11.04-13.64-21.1-21-26.28-6.57-4.62-8.44-7.65-13.06-14.88-3.07-4.83-5.35-8.74-8.57-18.21-1.19-3.42-3.44-.41-8.97-7.97-7.14-9.81-10.38-20.36-13.35-32.26-.97-3.91-7.62-5.96-11.85-14.08-5.73-10.91-9.48-21.04-11.94-36.92-.6-3.72-6.85-6.26-11.17-16.53-3.03-7.25-5.19-8.83-7.89-22.46-1.62-8.31-5.43-9.54-9.71-21.56-3.25-9.21-3.42-18.06-4.55-30.1-.29-2.35-4.23-6.94-7.83-13.68-6.12-11.27-5.89-18.77-8.33-30.4-.92-4.23-5.66-9.77-10.18-27.8-3.97-15.99-.34-26.55-1.65-34.48-3.57-20.4-7.07-38.19-5.17-58.32.94-9.84 2.44-20.02 1.8-29.46-1.89-29.72-3.47-54.17-3.33-87.83.1-18.36 1.53-43.42 4.33-64.32 3.02-23.05 7.42-41.06 7.42-41.06h75.14s-2.93 43.45.97 89.15c2.31 27.46 8.83 56.5 14.74 76.92 7.49 26.02 12.18 39.52 26.37 73.85.32.78-.09 3.96-3.85.83-7.84-6.61-14.35-12.35-20.57-21.71-9.44-14.25-15.2-25.99-22.88-40.62-8.94-17.04-13.86-31.84-23.09-52.5-.54 14.9 1.88 29.09 4.9 42.89 3.08 14 5.54 25.13 9.95 37.23 7.83 21.37 15.45 39.16 28.03 59.04 7.28 11.45 16.58 21.74 26 30.32 11.28 10.32 21.7 19.38 33.56 29.48-12.45 6.39-28.99-6.95-32.25-7.61-17.49-3.41-24.62-19.66-29.98-21.84-7.61-3.23-12.03-7.88-17.35-14.32-4.12-4.84-5.31-12.36-9.61-14.99-7.14-4.45-12.35-11.17-17.25-20.51-2-3.86-7.52-22.11-13.6-19.81 10.41 61.94 32.28 120.03 67.38 171.72 22.22 32.77 46.45 60.91 82.12 86.09 4.71 3.34 5.62 4.88-.96 4.68-33.33-4.03-35.36-19.3-40.88-20.74-5.17-1.3-11.61-7.5-15.75-11.49-7.41-7.33-7.29-13.54-10.15-15.46-6.07-4.2-10.65-8.66-14.8-16.02-2.15-3.81-5.86-12.3-9.12-14.24-8.53-4.95-16.83-12.19-20.99-19.99-3.04-5.66-4.23-11.87-8.25-17.45-4.24-6.06-10.22-10.55-15.34-14.91 3.89 26.46 16.39 57.8 24.94 84.88 11.57 36.13 25.52 68.94 41.35 103.07M1417.26 1916.64c28.43 63.82 58.34 111.9 97.25 168.1 5.06 7.37 9.66 14.59 14.08 21.49 2 3.08 11.58 16.82 13.57 19.74 13 19.73 18.51 25.73 31.86 44.57 3.59 5.09 6.52 9.09 8.04 15 2.86 11.03-6.57 18.41-8.78 28.99-2.17 10.79-1 22.56 4 31.69 3.09 5.66 6.15 7.92 9.31 15.58 6.04 14.72 3.97 46.58 10.86 47.43-1.77-15.13-2.15-32.14.2-46.67 2.78-16.94 13.05-27.2 17.31-45.09 11.4 2.05 23.84 1.55 33.41.71 9.57-.77 21.61 1.85 31.42 5.21 13.28 4.51 24.26 12.77 37.79 16-11.52-11.08-27.73-15.26-41.34-23.63-4.98-3.12-9.72-7.3-13-12.43-5.53-8.53-9.81-16.64-18.38-20.39-15.18-6.65-28.24-3.48-45.55-6.72-25.77-26.52-50.04-62.61-72.43-100.59-56.72-95.93-104.02-195.36-131.52-297.31 9.54 17.79 18.6 34.92 28.89 51.77 11.42 18.78 24.22 37.09 38.13 55.49 32.67 43.04 64.97 80.63 101.2 120.18 29.19 31.99 61.24 58.8 96.94 81.17 47.22 29.59 105.43 50.29 156.59 39.66 5.82-1.38 14.14-2.92 17.76-6.76-64.11 8.96-121.56-13.45-164.41-47.76-33.85-27.04-62.36-54.57-91.4-90.27-14.93-17.2-28.43-36.13-41.79-54.42-14.03-19.31-26.49-39.55-38.8-59.86-41.54-68.59-72.97-141.24-96.13-216.49-.64-2.39-.77-4.8-1.47-7.18 1.15 1.66 2.75 3.52 3.82 5.26 31.15 50.57 68.6 99.41 116 132.24 4.1 2.78 8.44 8.2 9.52 12.49 5.17 20.08-10.18 29.76 11.04 57.54 4.87 6.37 11.47 8.71 16.09 14.63 8.7 13.38 15.74 37.44 23 43.88-3.68-15.64-12.63-32.16-14.55-48.27-2.02-17.67 2.49-32.16 3.3-50.88 12.5-1.74 22.18-7.04 32-10.06 15.32-4.79 24.49-3.54 39.56-2.22 6.51.54 18.2 4.27 25.15 2.87-14.62-8-34.34-6.52-49.3-14.12-10.46-5.36-13.51-13.31-27.9-16.05-12.87-2.5-23.67-1.2-32.02 3.09-6.47 3.3-11.51 4.67-17.35 1.87-15.56-7.46-26.2-18.02-38.74-30.66-29.05-29.28-52.81-61.94-74.94-104.73a560.106 560.106 0 0 1-16.13-34.29c-2.45-5.63-8.61-21.3-8.61-21.3h-75.95s-.23 21.91.52 29.9c1.46 15.96 3.59 27.76 6.68 43.93 4.41 23.29 8.73 44.38 14.79 66.94 5.88 21.95 12.22 42.55 19.72 63.63 15.71 43.95 32.39 86.11 50.69 127.1M682.555 1324.77c27.742 22.64 48.273 35.85 75.984 52.37 11.24 6.74 28.26 14.36 41.315 20.28 48.004 21.66 111.49 37.6 171.266 38.68 1.1 0 1.013-.04 1.013-.04H1418.1s-1.7.04 1.54.04c14.19 0 28.24-4.93 36.88-13.07 8.71-8.33 12.91-21.05 15.14-33.69 1.93-10.78.97-20.27-1.52-31.83-1.96-9.19-3.44-14.54-8.48-22.29-3.08-4.73-5.97-7.93-11.68-12.51-5.86-4.7-14.17-6.25-23.71-6.33-1-.04-3.11-.2-3.04-.07.09.07-521.558.07-521.558.07s-3.27.01-4.875.01c-34.152.1-70.12-1.66-103.86-6.13-25.843-3.45-51.746-7.47-76.714-14.02-31.477-8.17-61.797-19.61-92.078-30.95 16.76 22.33 36.152 41.33 58.41 59.48"></path><path d="M837.383 1502.19c27.414 19.76 60.703 36.04 90.144 47.32 14.977 5.62 34.81 11.9 50.618 15.83 19.062 4.82 40.925 8.41 58.815 8.98 5.38.14.81.04.81.04l382.44.03s8.21-.44 11.06-.98c7.15-1.61 12.96-4.54 15.37-6.06 5.93-3.76 13.37-11.81 17.28-18.13 9.95-16.34 11.68-33.97 8.5-52.36-3.71-20.97-19.61-44.87-41.27-45.44-3.72-.08-11.27 0-11.27 0h-414.23s-24.084-.47-35.123-.88c-20.39-.82-42.965-3.1-60.726-5.76-15.265-2.16-30.097-5.05-45.327-9.1-51.094-13.77-95.473-39.73-141.88-59.79 31.25 54.51 73.56 96.43 114.79 126.3M623.44 1242.3c66.482 39.23 146.576 54.76 219.923 57.15 1.72.07 5.188.3 5.188.3l571.76-.05s1.03 0 6.23.05c34.64.03 47.3-34.46 47.1-62.21-.05-9.11-1.59-18.51-4.12-24.72-3.31-8.26-6.93-14.97-12.89-21.35-2.14-2.42-9.82-7.75-13.19-8.59-7.93-1.93-17.69-1.75-17.62-1.75.12 0-425.24-.06-425.24 0 0 0-22.982.93-38.885 2.52-11.496 1.12-20.156 2.29-32.105 4.51-29.293 5.83-53.59 15.4-78.914 23.21-16.91 5.19-34.742 9.08-53.305 11.9-34.085 5.31-71.393 7.63-105.84 4.98-43.858-3.21-82.87-11.84-124.596-25 7.074 10.97 36.39 27.15 56.507 39.05"></path><path d="M931.426 1062.97c-19.55 6.88-38.61 15.75-55.723 27.11-22.305 14.74-33.207 26.46-62.008 39.81-24.675 11.31-44.34 22.59-78.675 35.09-16.586 5.99-43.45 14.2-66.512 18.15-32.906 5.62-64.637 8-64.637 8s6.735 4.27 10.763 5.49c33.605 10.17 63.28 15.27 97.738 17.74 30.247 2.34 58.04-.6 88.357-5.35 12.472-1.97 28.644-5.82 42.703-9.81 45.61-13.08 97.488-33.65 143.558-33.73 2.547 0 2.23.05 2.23.05h426.322c12.92.03 36.96-4.11 46.64-21.25 11.2-19.67 14.67-43.11 5.28-66.57-2.86-7.03-7.6-17.1-14.41-23.31-5.96-5.35-15.65-8.85-21.23-8.85-1.66-.07-4.39 0-4.39 0h-371.76-2.02c-38.01 0-85.857 4.62-122.224 17.43M1100.75 931.11c-10.54 10.8-25.05 27.35-38.16 43.03-25.23 30.12-36.51 57.24-36.51 57.24h247.88s.71-28.58-5.05-61.69c-5.37-30.82-16.7-63.22-28.79-86.702-.45-24.117 9.72-46.52 11.37-70.27-20.32-12.507-42.24-24.948-60.52-42.48-1.15-1.058-3.05-1.058-3.77 1.832-9.79 36.72-14.97 69.352-22.95 105.59-22.65 17.488-43.83 33.05-63.5 53.45M1356.25 951.488c-7 12.922-12.25 30.07-20.32 40.192-1.69-9.04.41-14.668-.79-23.34-1.18-7.23-7.13-4.22-8.3-.852-3.47 9.942-7.2 22.043-10.39 32.09-5.25 16.902-6.98 31.762-6.98 31.762l41.28.04s1.57-.46 2.28-4.46c1.96-10.33 1.48-20.54 4.34-32.53 3.68-15.53 8.36-29.64 14.08-44.12 4.94-12.72 11.33-25.55 16.55-38.2.68-1.7 1.04-4.85-.2-6.54-1.56-1.928-4.18-1.72-5.68 0-11.8 13.45-16.58 28.572-25.87 45.958M1420.1 922.012c-7.05 14.93-16.9 31.7-16.03 48.738 4.54-5.96 6.43-10.34 12.71-13.63 2.88-.93 8.89-.05 7.38 4.94-2.79 9.292-7.08 17.31-11.08 30.1-5.92 18.92-11.68 39.21-11.68 39.21l-42.09.01s2.36-17.13 11.94-43.368c8.4-23.133 21.36-49.793 35.62-74.614 11.55-20.5 22.1-38.34 35.24-53.378 4.49-5.11 15.55-.54 10.76 6.17-12.5 17.63-24.15 37.17-32.77 55.822M1693.42 2344.89c-9.1-3.98-17.2-9.14-21.74-17.93-3.34-6.31-5.56-15.95.8-21.36 11.07-9.45 24.33.27 29.71 9.96 6.78 12.34 5.06 35.92 5.06 35.92s-7.89-4.08-13.83-6.59"></path><path d="M1703.08 2285.93c3.99 7.52 12.74 15.68 22.35 21.51 10.83 6.65 22.06 13.08 29.87 17.7 7.81 4.72 9.3 8.03 9.3 8.03s-6.43-2.24-9.94-4.31c-19.3-11.52-40.34-24.54-48.86-28.32-10.8-4.74-25.47-5.65-38.72-7.31-2.12 16.67-6.46 23.59-6.41 38.45.15 7.09 1.84 16.32 3.08 22.74 4.11 21.43 4.95 32.24 4.95 32.24s-3.3-3.04-4.46-12.45c-1.36-8.55-2.32-11.66-4.27-21.76-2.26-11.63-4.54-21.47-11.53-28.74-9.99-10.35-19.27-28.82-11.53-42.97 4.5-8.26 12.01-7.03 14.38-9.13 2.37-2.16 3.8-7.22 10.96-9.61 15.36-5.15 32.82 8.7 40.83 23.93"></path><path d="M1683.13 2241.88c5.23 8.46 10.6 14.4 18.84 19.48 13.66 8.34 23.81 13.94 32.14 18.21 3.59 1.84 6.6 3.98 7.52 7.84-3.69-1.41-17.79-8-31.83-16.39-10.03-5.97-27.27-13.42-38.87-13.95-4.56-.24-7.97.93-11.73 1.03-7.77.35-17.66-1.54-17.66-1.54s-2.51 10.96-5.83 18.91c-1.64 4.04-4.36 8.17-5.81 15.81-.98 5.05-1.22 12.7-.82 17.22 1.12 13.73 4.84 27.11 4.17 40.98-8.59-17.94-5.08-40.01-15.23-53.86-4.28-5.83-7.67-10.46-11.03-17.81-5.54-12.02-4.88-24.54 2.65-36.18 4.34-6.59 13.88-6.38 15.56-7.62 2.51-1.87 4.63-8.79 13.98-10.91 16.02-3.58 34.92 3.83 43.95 18.78M1687.65 1891.29c3.69 7.51 6.1 17.38 10.87 24.4-10.76-1.65-12.52-2.85-28.06-4.58-3.38-.28-10.4-3.8-12.73-6.12-6.11-6.22-11.48-12-9.08-22.39.92-4.04 4.48-7.01 6.46-7.67 12.9-4.17 26.04 3.48 32.54 16.36"></path><path d="M1700.73 1870.76c14.72 3.44 31.66 10.6 38.48 8.36-13.78-7.32-31.18-10.02-46.43-14.38-11.67-3.31-19.98-12.11-30.38-20.13-9.57-7.27-22.27-10.23-33.6-4.89-3.83 1.83-7.52 8.03-8.21 11.27-.59 2.68-6.05 5.29-8.87 7.62-2.86 2.37-4.19 8.26-4.29 10.49-.48 20.35 15.01 28.58 29.95 40.49 11.23 9.03 25.76 47.2 34.69 55.09-1.61-12.29-17.57-35.52-24.59-53.59-5.52-14.36-3.68-25.89-7.25-41.05 10.63-.65 22.55-2.91 33.28-3.07 8.41-.09 18.59 1.7 27.22 3.79"></path><path d="M1685.28 1839.37c-8.26-1.53-18.37-4.11-25.25-5.56-23.96-5.06-35.37 6.68-54.55 6.42 1.72 21.91-5.91 31.72.35 45.88 5.61 12.61 10.76 25.92 15.57 36.62 3.89 8.59 5.05 15.8 5.05 15.8s-5.82-8.67-22.28-40.85c-5.75-11.23-16.03-13.64-25.18-24.27-10.47-12.12-16.54-37.71 2.9-48.48 3.87-2.16 3.32-8.79 6.15-11.5 12.94-12.21 39.17-10.96 55.53 3.9 13.07 11.94 28.95 13.87 42.43 17.36 7.91 2.02 14.87 5.39 14.87 5.39s-3.77 1.53-15.59-.71M1205.28 1585.15c-.95 0-1.97 0 0 0zm-111.89 315.55c-8.03-10.59-11.69-22.68-20.5-31.9-4.64-4.85-11.64-2.62-15.31 2.98-4.04 6.29-10.55 15.18-5.69 21.41 7.99 10.26 24.72 16.78 38.95 14.92.86-.09 5.48-3.48 2.55-7.41zm-38.38-60.41c-4.45-11.94-17.76-13.26-29.15-15.63-2.1-.46-8.6 0-11.53 2.88-4.9 4.81-9.16 11.32-8.29 19.54.46 5.1 4.64 10.05 9.89 12.05 9.44 3.64 20.67 9.54 29.99 4.33 8.06-4.47 12.29-14.71 9.09-23.17zm-24.53-63.2c-3.28-4.74-11.64 10.92-12.73 18.12-3.16 20.73 15.09 26.04 30.25 25.42.48-12.37-9.14-31.59-17.52-43.54zm-16.41-56.05c-2.97-8.35-4.4-16.05-7.73-23.66-3.19-7.45-16.926-10.06-24.578-7.68-10.883 3.38-20.22 27.83-7.852 37.19 9.453 7.11 19.258 8.22 31.34 9.7 2.21.23 10.28-.26 10.62-.99 2.01-5.04.71-7.62-1.8-14.56zm-18.3-64.57c-2.23-6.4-3.208-13.04-6.05-19.24-1.427-3.1-3.255 1.01-3.372 1.23-4.243 10.65-6.96 19.64-3.286 29 2.05 5.21 9.11 10 15.868 10.42-.422-6.69-.9-14.92-3.16-21.41zm-21.688-31.52c-4.918 2.25-4.852 8.58-6.898 12.51-1.946 3.85-6.106 9.14-4.407 14.16 9.528-5.33 13.926-14.81 11.305-26.67zm-16.352 39.34c-11.32 9.31-12.332 24.18-19.878 35.62 8.332 5.34 22.39 4.27 26.718-6.3 3.453-8.49 5.957-20.94-2.668-27.4-.918-.72-3.113-2.82-4.172-1.92zm-42.277 76.83c-1.668 2.42-5.043 9.43-2.492 10.3 20.317 7.03 35.52 7.23 39.856-14.44 3.06-15.5-7.54-28.78-22.347-23.37-4.26 1.56-8.44 18.06-15.017 27.51zm-29.473 49.03c-1.425 1.75-2.562 7.13-.824 8.52 10.567 8.47 26.028 9.15 38.024 7.95 15.79-1.45 19.062-16.14 16.445-28.33-3.473-16.02-27.805-18.03-34.687-15.33-6.778 2.58-11.52 17.94-18.958 27.19zm3.446 56.99c13.656 8.85 39.754 15.45 44.113-8.54 1.34-7.25-.49-16.86-10.255-19.98-9.992-3.24-21.832-6.7-30.98-2.96-11.27 4.59-13.504 24.63-2.88 31.48zm-14.172 40.38c1.03 4.58 6.1 6.78 10.398 7.87 11.082 2.75 23.434 6.85 33.602.39 3.953-2.49 4.277-6.02 4.785-11.04.905-8.04-.27-14.67-5.6-17.73-10.768-6.33-21.706-6.89-34.245-4.42-10.168 1.99-10.953 15.48-8.94 24.93zm-11.316-62.19c-9.508 6.99-13.665 16.87-20.684 26.67-1.656 2.41 0 3.39 1.312 3.78 16.786 4.77 29.282-3.6 26.688-21.96-.477-3.54-2.81-11.84-7.316-8.49zm-46.387 56.61c-6.312 5.44-1.92 14.89 3.555 17.67 9.625 4.78 24.73 5.48 34.692 2.1 6.422-2.13 9.69-11.37 8.52-21.46-.446-4.11-1.723-8.7-3.747-10-7.632-5.21-19.394-5.39-28.66-3.48-6.527 1.37-8.88 10.35-14.36 15.17zm-7.273 57.24c6.067 13.24 28.313 13.34 40.4 7.44 9.866-4.85 11.077-23.16.307-30.4-8.543-5.74-22.093-3.66-31.218-1.95-12.907 2.38-13.93 15.11-9.49 24.91zm.5 49.57c9.227 8.78 21.157 4.77 32.285 3.24 2.133-.32 4.743-1.84 6.2-3.3 7.562-7.62 8.144-20.21-.285-26.5-9.754-7.26-21.926-2.53-33.65-1.94-3.14.11-6.612 3.84-7.362 6.23-2.098 7.42-3.395 16.46 2.812 22.27zm5.938 41.5c9.785 4.13 26.648 6.01 33.59-5.02 4.21-6.75 3-19.19-3.836-21.03-6.708-1.75-29.44-5.49-34.93 7.06-2.673 6.2-1.552 16.21 5.175 18.99zm30.172 35.3c2.843-1.28 4.578-3.57 5.28-7.05 1.345-7.52-.636-15.73-7.843-17.07-10.926-1.98-27.078-2.59-27.035 12.77.034 17.22 16.972 16.99 29.597 11.35zm-21.93 31.9c5.81 2.21 15.313 1.69 20.53-.99 2.603-1.37 6.134-5.7 4.658-10.23-1.825-5.92-7.38-8.09-13.602-8.16-6.06-.05-12.945.43-15.387 5.36-2.324 4.67-1.344 12.05 3.8 14.02zm6.78 25.76c5.298 1.93 13.13 1.76 16.954-2.39 5.294-5.8 1.138-15.02-8.893-14.56-3.508.13-7.68 1.38-9.817 2.56-5.14 2.93-3.453 12.52 1.758 14.39zm23.783 16.59c.695 2.2 4.17 4.85 6.007 5.47 3.96 1.43 8.594 1.68 12.403.17 7.625-3.1 6.59-12.49-1.547-15.8-3.606-1.48-9.223-2.43-11.973-1.48-5.098 1.7-6.523 6.13-4.89 11.64zm23.7-36.8c-8.298-2.44-19.872-2.91-22.345 5.63-4.172 14.39 14.02 16.58 23.44 13.57 6.56-2.11 8.822-16.35-1.096-19.2zm5.47 47.64c2.665 8.93 12.75 13.78 21.943 11.07 7.87-2.32 9.707-13.06 4.375-18.3-2.414-2.36-6.4-4.76-10.71-5.71-9.364-2.08-18.595 3.12-15.607 12.94zm41.287-32.77c-1.49-5.84-5.778-9.83-12.625-11.37-6.82-1.53-16.207-1.89-19.997 2.28-3.574 3.96-5.27 9.59-2.27 13.9 6.06 8.53 17.052 11.52 26.864 9.37 5.636-1.33 9.73-7.08 8.027-14.18zm-3.696 34.29c3.697 8.13 12.986 12.19 21.896 9.44 1.8-.56 5.45-3.44 5.96-6.24 1.055-5.66-.898-10.84-5.574-13.79-6.078-3.79-11.05-5.98-17.968-3.14-5.227 2.16-6.46 8.93-4.313 13.73zm38.458-22.8c4.05-6.9-2.117-13.82-5.293-15.72-6.965-4.07-16.812-6.57-21.047.34-4.105 6.8-.683 14.84 6.497 17.82 6.91 2.87 14.046 7.22 19.843-2.44zM972.34 2103c4.547-3.74 8.535-11.71 3.082-17.93-5.117-5.96-11.543-7.69-19.582-9.01-5.45-.94-12.473 3.14-13.305 7.92-.84 4.18-1.617 11.72 2.527 15.25 8 6.84 18.75 10.79 27.278 3.77zm9.64 44.96c4.31-1.23 7.08-5.78 4.938-10.17-1.32-2.72-5.2-5.67-7.66-7.17-6.774-4.19-12.586-2.46-14.688 2.51-3.894 9.16 9.223 17.26 17.41 14.83zm16.5-22.75c4.77-.43 6.94-3.75 7.86-7.36 1.26-4.87-.33-9.36-4.48-12.15-4.887-3.27-10.954-5.18-15.83-5.25-6.628-.11-12.706 9.58-9.143 15.88 3.793 6.69 13.29 9.58 21.593 8.88zm27.29-34.92c2.82-8.28-3.28-12.15-9.67-15.56-6.49-3.46-15.22-6.66-19.717-2.33-5.78 5.43-8.336 14.53-1.914 20.59 8.9 8.35 25.41 14.65 31.3-2.7zm11.77-20.74c10.49-1.35 12.55-16.19 10.46-21.57-2.39-4.65-7.68-8.25-10.46-9.67-7.64-3.95-16.64-5.44-23.66-1.82-6.42 3.34-9.22 13.1-5.75 20.76 4.76 10.33 19.62 13.55 29.41 12.3zm21.51-46.03c3.62-5.04 2.82-13.91.71-16.71-6.63-8.98-24.96-14.16-32.56-10.44-5.76 2.83-11.41 15.52-4.71 23.09 7.04 7.89 19.25 12.62 30.33 10.29 2.48-.54 4.1-3.23 6.23-6.23zm4.67-28.41c5.02-.54 9.48-6.06 11.91-12.07 3.2-7.81-.02-16.92-2.51-18.61-6.01-4.1-25.06-15.55-37.09-8.68-6.57 3.75-8.41 12.41-8.83 17.56-1.34 16.46 23.75 23.23 36.52 21.8zm-70.38-118.05c-2.61 6.53-4.938 16.23.176 20.2 10.374 8.2 33.894 15.33 42.854 2.97 5.81-8.03 4.08-21.68-6.11-26.93-10.48-5.36-31.006-11.55-36.92 3.76zm-50.457-.76c10.47 5.32 25.508 11.71 36.73 4.47 5.114-3.31 10.422-16.98 6.805-23.02-7.69-12.85-27.984-16.14-40.844-12.82-11 2.86-14.258 25.51-2.69 31.37zm-9.37 44.49c12.6 8.85 37.464 14.59 43.428-4.78 1.544-5 2.447-10.53-.104-14.61-6.957-11.19-24.695-14.17-36.508-12.47-12.8 1.87-18.812 23.43-6.816 31.86zm-10.575 45.12c12.066 6.85 37.855 15.92 43.91-3.7 2.414-8 2.195-17.96-4.68-21.49-9.84-5.19-25.438-10.6-36.785-3.49-9.508 5.98-10.813 23.89-2.445 28.68zm67.664 80.98c-5.04-4.51-10.207-5.48-16.957-7.73-9.422-3.23-19.282 4.05-20.352 13.05-1.84 15.48 14.73 17.8 25.66 19.73 8.035 1.45 12.973-5.75 14.445-10.58 1.5-4.61 1.282-10.86-2.796-14.47zm20.338-36.35c-7.21-10.72-36.16-17.47-42.55-6.42-4.695 8.03-7.597 19.4 1.172 24.81 9.227 5.62 20.126 9.02 30.858 7.09 10.1-1.75 15.19-18.34 10.52-25.48zm15.41-66.34c4.15-6.53 7.04-15.34.89-23.5-5.53-7.45-25.38-10.92-35.537-8.47-5.543 1.35-8.148 8.12-9.015 12.72-1.196 6.14-1.758 12.37 3.73 17.38 7.863 7.21 18.322 7.07 28.422 7.07 4.11 0 9.96-2.71 11.51-5.2zm-5.72 22.28c-6.19-11.35-27.114-12.84-36.505-11.56-6.648.9-11.277 11.58-11.113 20.5.062 4.58 1.5 7.67 4.68 9.32 10.417 5.64 21.117 9.35 32.348 7.58 10.94-1.77 15.21-17.27 10.59-25.84zm-110.107 24.43c-7.07 21.89 20.262 28.78 36.172 25.41 11.117-2.34 14.848-23.69 4.46-30.39-12.764-8.31-35.425-11.02-40.632 4.98zm-41.183-53.73c8.187 8.43 22.965 8.95 34.472 7.41 7.11-.98 10.153-8.16 11.133-15.94 2.785-21.34-25.93-24.97-39.59-19.98-8.976 3.3-13.675 20.6-6.015 28.51zm-5.79 41.43c8.528 10.03 22.888 12.43 34.72 9.16 7.253-1.97 10.617-10.41 10.406-19.87-.117-5.39-3.774-9.29-7.106-10.66-8.418-3.42-18.152-5.95-27.355-4.85-11.37 1.41-18.27 17.25-10.664 26.22zm1.368 45.08c10.496 4.31 30.105 8.16 33.426-6.89 4.453-20.03-19.156-23.3-31.79-19.83-9.68 2.69-11.488 22.75-1.636 26.72zm75.723 33.1c7.872-4.5 9.497-17.08 4.696-24.38-6.367-9.68-28.102-15.32-39.813-6.82-6.695 4.85-10.27 24.68 3.415 29.47 10.91 3.84 21.417 7.57 31.703 1.73zm-11.163 14.36c-8.91-5.51-21.633-7.72-30.122-3.01-7.34 4-7.027 14.74-3.414 20.52 6.017 9.64 20.876 10.67 31.146 7.66 8.855-2.6 12.19-19.04 2.39-25.17zm-72.274 15.67c.91 2.88 2.145 3.71 3.945 4.57 7.485 3.58 15.73 4.55 22.93-.1 5.207-3.31 4.75-11.06.9-15.11-5.646-5.91-17.052-6.13-24.37-2.27-4.745 2.46-4.932 8.29-3.405 12.91zm2.39-31.33c3.337 9.46 15.157 8.94 24.098 7.8 11.044-1.45 13.22-15.58 9.302-21.5-5.402-8.22-17.738-6.66-27.554-5.38-8.032 1.02-8.508 11.62-5.844 19.08zm155.487-285.21c2.74-10.71 0-20.9-9.5-24.31-12.24-4.33-28.807-10.66-38.603-4.03-11.2 7.49-16.586 28.81-3.74 37.15 15.185 9.93 45.433 16.47 51.843-8.81zm-16.494 33.3c-8.21-9.35-21.668-9.02-34.852-12.89-5.074-1.47-11.152 3.01-13.777 7.63-4.867 8.72-9.754 20.39-.422 28.79 7.746 7.07 18.258 6.49 27.766 9.27 4.266 1.31 9.434 2.79 14.626-.68 10.684-7.3 14.814-22.93 6.66-32.12zm87.294 140.15c2.34-6.81 5.43-11.8 2.81-18.58-3.11-8.32-11.21-9.44-18.76-12.21-7.1-2.54-18.89-5.8-24.8.41-6.81 7.02-9.57 21.4-1.41 27.52 10.55 7.86 36.6 18.75 42.16 2.86zm143.33 61.16c6.2 25.39 13.93 51.16 15.87 77.99 2.85 40.07-5.81 81.71-31.47 112.1 2.51-13.09 5.87-24.17 7.6-37.9 2.12-16.59-.23-35.08-4.52-51.77-3.26-12.64-8.92-24.92-14.6-36.66-6.63-13.94-16.62-29.07-26.54-41.46-27.8-34.6-71.15-102.07-71.15-102.07s-3.61.29-5.8.29c-.5 8.39 19.46 37.21 29.54 53.34 22.08 35.32 38.81 54.35 58.06 85.01 12 19.35 21.2 42.86 24.15 64.14 5.98 43.44-17.43 95.51-51.11 112.8 7.71-32.42 6.94-78.16-10.38-97.38-32.69-36.45-52.12-63.72-75.42-110.38-.7-1.28-6.15 6.3-10.65 9.24-5.05 3.36-2.26 13.34-4.03 20.1-1.68 5.75-4.35 10.15-5.16 11.16-6.9 8.43-13.6 8.97-15.05 11.49-1.65 2.86-.84 10.03-6.89 18.12-3 4.13-10.68 7.15-13.78 11-3.38 4.22-4.9 17.06-14.21 22.34-4.416 2.47-6.463 10.19-10.717 13.93-13.098 11.61-26.176 9.35-28.672 10.1-3.374.92-9.917 9.28-21.62 11.28-11.422 1.95-17.715-5.71-23.695-2.92-14.867 6.88-29.11 7.44-44.977-10.19-4.71-5.26-12.933-.33-23.183-8.2-9.032-6.85-9.172-13.19-13.735-14.02-8.632-1.65-15.05-8.53-18.38-16.03-1.694-3.88-3.006-11.7-4.002-16.89-1.422-7.09-5.032-13.69-5.122-18.94-.078-7.23 2.243-11.16 1.618-14.44-1.11-4.73-4.875-9.06-5.348-13.46-.367-2.5-.543-9.12 1.234-12.89 2.3-4.65-1.6-8.65-3.613-13.57-1.937-4.56-3.965-12.4-3.36-17.97.84-7.56 5.196-10.35 1.805-16.32-5.574-9.72-12.55-24.88-.285-44.28 2.27-3.52-5.113-10.41-5.54-20.53-.464-10.96 6.142-19.11 7.978-23.99.347-1.77-2.926-1.63-3.035-3.52-29.227 30.89-55.075 59.36-88.942 86.19-20.734 16.39-41.21 30.15-64.152 42.41-61.262 32.92-132.473 54.9-196.973 46.84 24.313-19.55 54.922-33.53 79.922-55.72 23.613-21.04 45.066-39.04 66.598-61.42 33.777-35.11 61.226-70.71 89.863-111.98 8.476-12.24 14.102-20.43 22.004-33.19 7.96-12.75 16.87-26.32 24.082-38.97 36.62-63.57 66.656-122.45 97.008-187.57 8.41-18.03 15.515-36.91 23.78-54.79 2.177-4.85 5.376-1.28 7.575 0 11.012 6.36 22.688 11.67 34.07 17.05 9.11 4.15 17.403 7.04 25.49 10.2 20.534 7.82 40.034 12.03 61.55 16.49 35.945 7.55 100.445 6.02 100.445 6.02l122.39.04h3.28c-1.24 35.07-9.56 69.1-11.58 104.29-1.6 28.52-.65 56.05.36 84.63 2.75 77.33 14.1 160.37 31.42 230.83M395.176 2295.15c-23.875-23.81-31.03-32.59-44.91-58.91-8.215-15.43-18.61-35.31-21.618-60.94 49.08 18.72 89.094 56.83 125.258 98.91 26.77 31.2 47.48 72.62 73.867 103.43-46.46-15.59-95.468-45.52-132.597-82.49"></path><path d="M254.723 2228.24c18.496 31.24 44.968 65 72.422 88.04-12.72-28.55-28.375-56.85-33.762-90.69-10.684-67.22-20.72-114.37-31.89-175.79 30.484 21.79 62.667 55.98 95.027 79.85 25.02 18.34 50.058 30.65 75.785 48.3 15.257 10.51 25.195 24.07 37.906 36.75-15.144-63.85-71.116-128.28-111.24-158.29-50.423-37.77-68.486-43.83-149.423-126.16-10.324 101.68-8.485 207.32 45.176 297.99"></path><path d="M89.547 1890.55c3.75 52.8 10.066 95.05 22.933 146.52 8.96 35.99 28.34 89.55 56.235 111.51-3.418-13.06-5.235-32.61-6.563-45.81-5.464-54.42 4.99-117.58 6.2-171.9.613-26.73.398-47.32-3.59-72.46-4.172-26.26-.72-58.61-.72-58.61s14.442 16.49 27.31 37.01c28.16 44.72 37.148 57.98 59.855 82.22 28.094 30.02 59.594 57.85 95.137 82.47-4.293-16.68-22.434-49.13-29.957-62.19-9.98-17.47-14.512-33.3-38.207-72.85-33.297-55.56-48.125-63.03-85.118-122.45-8.042-12.9-40.867-62.07-48.808-77.09-17.356 35.89-23.87 67.21-45.156 125.55-13.336 36.72-11.344 73.41-9.55 98.08"></path><path d="M38.082 1615.9c-20.078 52.05-29.297 100.37-36.105 155.24-4.13 33.51-2.196 78.25 9.746 110.51 3.175-7.87 9.57-27.87 10.45-30.85 8.9-30.01 12.647-44.37 25.07-73.25 9.55-22.21 21.14-39.86 33.632-61.78 11.313-19.99 20.902-46.31 29.11-66.44 26.378-64.54 28.33-125.01 38.374-131.58 7.265 15.55 9.566 30.4 10.335 37.73 7.883 71.43 17.285 136.36 107.25 220.61 8.266-25.1 4.055-71.28-.894-96.04-10.757-54.14-19.46-80.12-43.253-132.54-12.602-27.65-29.457-68.28-34.043-81.76-12.102-35.02-16.21-53.42-23.832-74.13-42.48 70.72-94.762 143.82-125.84 224.28"></path><path d="M108.14 1290.3c-30.245 42.09-41.296 63.28-60.956 108.11-16.536 37.53-21.31 51.49-30.946 93.57-5.297 22.95-8.273 43.79-4.187 57.32 23.708-42.82 39.86-90.85 70.805-126.34 24.57-28.22 48.29-52.29 67.833-76.06 29.96-36.64 53.624-71.22 82.398-109.31 2.426 19.14 3.375 38.39-.934 69.67-5.847 42.88-2.257 78.01 5.258 119.56 9.465 52.6 16.406 78.69 34.707 131.95 22.31-43.84 22.23-94.55 27.867-141.07 10.817-90.16-17.41-197.71-22.937-242.55-1.48-11.81.55-40.98 1.133-52.38-42.168 33.24-79.723 66.87-116.15 103.33-16.585 16.55-39.3 43.94-53.89 64.2"></path><path d="M268.102 959.48c-19.207 13.82-70.852 53.35-95.293 84.44-35.607 45.16-43.447 64.57-66.927 116.53-2.88 6.3-16.156 35.82-17.223 55.77 76.95-92.89 145.848-106.71 219.227-183.8 26.922-28.26 54.53-54.818 69.047-68.2 11.18-10.208 25.093-13.43 25.093-13.43s-1.457 19.9-8.707 33.67c-48.957 93.62-58.19 191.44-50.78 296.39 22.358-27.64 29.378-46.12 43.57-72.83 15.452-29.18 23.316-47.27 30.538-65.16 41.848-104.3 52.793-224.74 78.684-285.34-79.934 26.85-142.875 41.26-227.23 101.96"></path><path d="M595.867 713.39c-21.664-1.402-63.992-1.28-86.63 2.42-114.374 18.22-220.73 101.14-274.182 192.292C283.53 878.43 318.61 858.7 361.238 843.95c38-13.2 74.04-17.07 137.457-35.028 38.24-10.8 76.15-26.16 89.442-31.14 42.43-15.77 60.254-11.884 60.254-11.884s0 6.5-15.824 23.692c-31.593 34.55-43.132 42.738-69.144 69.22-8.5 8.75-28.047 38.55-38.008 58.28-28.047 55.85-31.137 100.68-56.8 162.06 93.574-55.02 139.124-130.74 188.57-226.35 15.226-29.26 35.824-63.11 54.59-81.69 12.636-12.38 30.42-31.41 30.42-31.41s-13.006-3.052-53.66-9.028c-18.218-2.703-57.014-14.742-92.667-17.28M1049.31 706.18c49.41-8.032 93.28-20.12 138.19-35.55 12.1-4.118 30.49-13.22 43.21-19.708 31.83-16.152 50.17-26.684 77.54-45.473 44.04-30.34 91.39-63.098 134.08-112.74.92-.98 7.82-8.3 3.24-11.94-8.36-6.58-29.01-15.872-35.89-9.83-39.08 34.798-37.11 45.888-84.47 88.78-12.1 10.928-30.46 26.32-52.38 41.268-21.4 14.62-47.24 30.55-71.23 42.524-21.79 10.718-55.4 13.898-74.3 13.898l.29-.12c-8.59.288-57.87.53-69.25-.11-96.797-6.668-92.09-15.328-147.902-30.54-45.903-12.378-95.165-21.27-144.05-27.87-50.11-6.8-94.888-7.65-141.884-2.82-63.63 6.57-133.277 24.288-185.223 57.74 47.497-.8 96.286-9.92 143.572-6.25 19.906 1.49 52.168 4.482 74.035 11.2 43.394 13.38 68.34 18.55 114.308 31.36 39.52 11.082 79.31 14.77 120.606 19.18 57.102 6.09 109.98 4.75 157.51-3M1934.53 2295.15c23.89-23.81 31.07-32.59 44.96-58.91 8.2-15.43 18.6-35.31 21.6-60.94-49.1 18.72-89.09 56.83-125.27 98.91-26.78 31.2-47.48 72.62-73.85 103.43 46.46-15.59 95.46-45.52 132.56-82.49"></path><path d="M2075.02 2228.24c-18.52 31.24-44.98 65-72.42 88.04 12.82-30.75 31.53-69.02 33.75-90.69 6.83-67.7 20.72-114.37 31.9-175.79-30.47 21.79-62.7 55.98-95.08 79.85-24.94 18.34-50 30.65-75.7 48.3-15.3 10.51-25.22 24.07-37.94 36.75 15.14-63.85 71.12-128.28 111.27-158.29 50.39-37.77 68.45-43.83 149.35-126.16 10.29 101.68 8.49 207.32-45.13 297.99"></path><path d="M2240.19 1890.55c-3.81 52.8-10.04 95.05-22.93 146.52-8.96 35.99-28.34 89.55-56.27 111.51 3.45-13.06 5.24-32.61 6.56-45.81 5.54-54.42-4.91-117.58-6.16-171.9-.6-26.73-.4-47.32 3.57-72.46 4.17-26.26.74-58.61.74-58.61s-14.45 16.49-27.33 37.01c-28.11 44.72-37.11 57.98-59.87 82.22-28.07 30.02-59.59 57.85-95.15 82.47 4.34-16.68 22.47-49.13 30-62.19 10.01-17.47 14.48-33.3 38.21-72.85 33.29-55.56 48.15-63.03 85.08-122.45 8.04-12.9 40.92-62.07 48.84-77.09 17.38 35.89 23.88 67.21 45.16 125.55 13.36 36.72 11.37 73.41 9.55 98.08"></path><path d="M2291.66 1615.9c20.07 52.05 29.27 100.37 36.11 155.24 4.13 33.51 2.18 78.25-9.74 110.51-3.18-7.87-9.57-27.87-10.46-30.85-8.92-30.01-12.64-44.37-25.04-73.25-9.56-22.21-21.27-39.86-33.66-61.78-11.33-19.99-20.9-46.31-29.16-66.44-26.33-64.54-28.28-125.01-38.33-131.58-7.3 15.55-9.57 30.4-10.33 37.73-7.9 71.43-17.3 136.36-107.25 220.61-8.29-25.1-4.06-71.28.86-96.04 10.79-54.14 19.53-80.12 43.28-132.54 12.61-27.65 29.47-68.28 34.08-81.76 12.02-35.02 16.15-53.42 23.83-74.13 42.45 70.72 94.73 143.82 125.81 224.28"></path><path d="M2221.6 1290.3c30.28 42.09 41.3 63.28 60.95 108.11 16.55 37.53 21.26 51.49 30.96 93.57 5.29 22.95 8.26 43.79 4.17 57.32-23.61-42.82-39.89-90.85-70.83-126.34-24.54-28.22-48.25-52.29-67.8-76.06-29.93-36.64-53.64-71.22-82.39-109.31-2.41 19.14-3.39 38.39.88 69.67 5.89 42.88 2.31 78.01-5.19 119.56-9.49 52.6-16.43 78.69-34.72 131.95-22.29-43.84-22.23-94.55-27.88-141.07-10.84-90.16 17.46-197.71 22.97-242.55 1.45-11.81-.58-40.98-1.16-52.38 42.18 33.24 79.73 66.87 116.15 103.33 16.59 16.55 39.27 43.94 53.89 64.2"></path><path d="M2061.67 959.48c19.17 13.82 70.83 53.35 95.26 84.44 35.61 45.16 43.45 64.57 66.94 116.53 2.82 6.3 16.15 35.82 17.22 55.77-76.96-92.89-145.86-106.71-219.24-183.8-26.92-28.26-54.5-54.818-69.03-68.2-11.18-10.208-25.09-13.43-25.09-13.43s1.44 19.9 8.67 33.67c48.98 93.62 58.22 191.44 50.77 296.39-22.29-27.64-29.36-46.12-43.53-72.83-15.43-29.18-23.32-47.27-30.51-65.16-41.89-104.3-52.87-224.74-78.75-285.34 79.99 26.85 142.91 41.26 227.29 101.96"></path><path d="M1733.87 713.39c21.69-1.402 64.01-1.28 86.66 2.42 114.37 18.22 220.7 101.14 274.17 192.292-48.53-29.672-83.6-49.403-126.21-64.153-38.02-13.2-74.03-17.07-137.41-35.028-38.27-10.8-76.17-26.16-89.48-31.14-42.43-15.77-60.25-11.884-60.25-11.884s0 6.5 15.81 23.692c31.6 34.55 43.21 42.738 69.13 69.22 8.52 8.75 28.07 38.55 38.03 58.28 28.04 55.85 31.15 100.68 56.84 162.06-93.58-55.02-139.22-130.74-188.64-226.35-15.19-29.26-35.79-63.11-54.53-81.69-12.63-12.38-30.44-31.41-30.44-31.41s13-3.052 53.7-9.028c18.18-2.703 56.95-14.742 92.62-17.28M1280.42 706.18c-49.41-8.032-93.22-20.12-138.18-35.55-12.13-4.118-30.5-13.22-43.21-19.708-31.83-16.152-50.11-26.684-77.53-45.473-44.09-30.34-91.37-63.098-134.09-112.74-.926-.98-7.844-8.3-3.234-11.94 8.375-6.58 29.05-15.872 35.804-9.83 39.137 34.798 37.11 45.888 84.56 88.78 12.05 10.928 30.42 26.32 52.38 41.268 21.42 14.62 47.2 30.55 71.22 42.524 21.75 10.718 55.43 13.898 74.29 13.898l-.3-.12c8.61.288 57.86.53 69.28-.11 96.81-6.668 92.08-15.328 147.85-30.54 45.94-12.378 95.2-21.27 144.08-27.87 50.09-6.8 94.9-7.65 141.89-2.82 63.65 6.57 133.27 24.288 185.2 57.74-47.48-.8-96.24-9.92-143.56-6.25-19.92 1.49-52.15 4.482-74.02 11.2-43.43 13.38-68.35 18.55-114.3 31.36-39.52 11.082-79.32 14.77-120.59 19.18-57.13 6.09-110 4.75-157.54-3M2832.78 2052.68c0 12.54-3.4 23.31-10.17 32.37-6.78 9.01-14.64 15.33-23.58 18.89-11.96 4.77-23.63 7.39-34.96 7.88-11.33.49-26.47.77-45.39.77h-19.69v-132.88h32.83c19.51 0 35.59 1.17 48.24 3.56 12.65 2.39 23.25 7.17 31.8 14.28 7.36 6.36 12.7 13.99 16 22.81 3.23 8.84 4.92 19.61 4.92 32.32zm118.55 2.58c0-19.9-3.49-39.37-10.48-58.39-6.95-19.01-16.89-35.01-29.85-47.92-17.7-17.52-37.49-30.76-59.25-39.74-21.82-8.94-48.98-13.42-81.39-13.42h-71.37v-144.87H2584.3v444.69h188.77c28.21 0 52.07-2.43 71.49-7.32 19.43-4.88 36.58-12.2 51.49-21.95 17.93-11.75 31.62-26.79 41.1-45.07 9.44-18.35 14.18-40.34 14.18-66.01M3251.88 1983.86h-9.5c-4.61 1.63-11.96 2.8-22.05 3.62-10.13.76-18.56 1.16-25.32 1.16-15.32 0-28.8-.98-40.51-2.98-11.72-1.98-24.34-5.36-37.87-10.15v-224.59h-107.82v335.38h107.82v-49.27c23.67 20.33 44.22 33.77 61.71 40.46 17.43 6.69 33.52 10.04 48.2 10.04 3.79 0 8.09-.15 12.85-.33 4.73-.17 8.93-.49 12.49-.9v-102.44M3505.62 1836.93c6.96 8.59 12.12 18.88 15.68 30.94 3.49 12.01 5.18 28.73 5.18 50.01 0 19.74-1.8 36.21-5.32 49.59-3.62 13.32-8.58 23.99-14.91 31.92-6.43 8.19-14.09 13.97-23.03 17.36-8.93 3.38-18.62 5.05-29 5.05-10.29 0-19.57-1.4-27.61-4.17-8.03-2.78-15.76-8.38-23.17-16.74-6.5-7.77-11.79-18.38-15.68-31.93-3.88-13.55-5.83-30.58-5.83-51.08 0-18.3 1.72-34.19 5.18-47.61 3.34-13.46 8.29-24.27 14.9-32.44 6.31-7.76 13.94-13.4 22.78-17.03 8.86-3.56 19.04-5.38 30.31-5.38 9.76 0 19.13 1.69 27.98 4.98 8.85 3.25 16.4 8.82 22.54 16.53zm132.23 81.52c0-55.09-16.02-98.59-48.17-130.34-32.16-31.77-77.29-47.6-135.46-47.6-58.09 0-103.23 15.83-135.42 47.6-32.17 31.75-48.24 75.25-48.24 130.34 0 55.57 16.22 99.18 48.56 130.82 32.34 31.66 77.36 47.52 135.1 47.52 58.52 0 103.84-15.95 135.7-47.79 31.99-31.9 47.93-75.39 47.93-130.55M3915.55 1856.67v151.98c-6.24 2.58-13.7 4.67-22.74 6.16-8.93 1.49-16.94 2.21-24.05 2.21-28.24 0-49.43-8.09-63.48-24.35-14.16-16.21-21.19-38.83-21.19-67.93 0-32.25 6-54.75 18.1-67.48 11.97-12.74 29.76-19.11 53.39-19.11 10.71 0 21.28 1.67 31.66 5.06 10.26 3.38 19.73 7.84 28.31 13.46zm107.76-67.21c0-31.43-4.53-57.9-13.47-79.4-8.94-21.49-21.49-38.35-37.56-50.5-16.19-12.33-35.68-21.22-58.41-26.75-22.76-5.45-48.57-8.16-77.19-8.16-23.31 0-46.2 1.4-68.9 4.15-22.58 2.81-42.14 6.19-58.67 10.17v83.92h13.18c13.07-5.2 29.15-9.89 47.99-14.18 18.84-4.29 35.82-6.42 50.71-6.42 19.83 0 36.05 1.8 48.39 5.51 12.45 3.65 21.98 8.9 28.58 15.67 6.11 6.38 10.63 14.55 13.32 24.49 2.79 9.98 4.27 21.9 4.27 35.86v6.22c-13.02-10.51-27.26-18.87-42.96-25.06-15.7-6.19-33.21-9.26-52.52-9.26-46.93 0-83.1 14.14-108.55 42.42-25.45 28.27-38.16 71.26-38.16 128.99 0 27.69 3.89 51.58 11.64 71.69 7.68 20.09 18.68 37.62 32.74 52.58 13.18 13.89 29.27 24.74 48.5 32.5 19.12 7.77 38.87 11.66 58.87 11.66 18.16 0 34.61-2.12 49.42-6.41 14.8-4.29 28.29-10.21 40.36-17.74l3.9 14.89h104.52v-296.84M4350.21 1983.86h-9.56c-4.61 1.63-11.89 2.8-22.1 3.62-10.08.76-18.57 1.16-25.23 1.16-15.32 0-28.85-.98-40.57-2.98-11.72-1.98-24.34-5.36-37.87-10.15v-224.59h-107.76v335.38h107.76v-49.27c23.62 20.33 44.16 33.77 61.66 40.46 17.48 6.69 33.65 10.04 48.33 10.04 3.8 0 8.02-.15 12.82-.33 4.77-.17 8.91-.49 12.52-.9v-102.44M4596.44 1838.67v69.68c-14.53-1.23-30.25-2.84-47.13-4.91-17.02-2.12-29.83-4.56-38.6-7.3-10.74-3.37-18.9-8.28-24.6-14.78-5.69-6.44-8.54-14.9-8.54-25.45 0-6.93.62-12.58 1.8-16.93 1.17-4.36 4.16-8.55 8.94-12.51 4.61-3.98 10.14-6.89 16.45-8.79 6.4-1.89 16.34-2.83 29.92-2.83 10.74 0 21.62 2.2 32.64 6.57 11.01 4.37 20.72 10.08 29.12 17.25zm0-52.18c-5.76-4.39-12.91-9.68-21.49-15.81-8.59-6.2-16.62-11.07-24.22-14.64-10.58-4.78-21.49-8.3-32.79-10.61-11.37-2.31-23.85-3.44-37.4-3.44-31.78 0-58.54 9.84-80.03 29.59-21.51 19.69-32.25 44.85-32.25 75.52 0 24.47 5.51 44.48 16.45 60.02 10.92 15.54 26.45 27.78 46.61 36.72 19.87 9 44.53 15.37 74.08 19.16 29.43 3.75 59.97 6.54 91.67 8.36v1.75c0 18.52-7.58 31.3-22.75 38.39-15.09 7.05-37.4 10.63-66.85 10.63-17.69 0-36.67-3.17-56.72-9.45-20.14-6.22-34.63-11.06-43.38-14.45h-9.85v80.89c11.4 3.04 29.87 6.56 55.44 10.61 25.55 4.11 51.15 6.15 76.91 6.15 61.06 0 105.31-9.44 132.37-28.23 27.2-18.83 40.8-48.33 40.8-88.52v-228.21h-106.6v35.57M5111.8 1988.64v-237.72h-107.87v167.53c0 16.36-.36 30.23-1.18 41.7-.83 11.42-2.99 20.73-6.61 27.91-3.5 7.19-8.97 12.38-16.18 15.67-7.34 3.31-17.48 4.92-30.69 4.92-10.59 0-20.77-2.1-30.7-6.41-9.95-4.28-19-8.8-26.93-13.6v-237.72h-107.75v335.38h107.75v-37.03c18.49 14.53 36.17 25.87 53.16 34.05 16.86 8.18 35.53 12.24 56.02 12.24 22.11 0 41.6-4.92 58.48-14.76 16.87-9.84 30.13-24.35 39.59-43.46 21.46 18.11 42.42 32.34 62.71 42.69 20.2 10.33 40.15 15.53 59.63 15.53 36.19 0 63.65-10.84 82.4-32.56 18.75-21.68 28.21-52.95 28.21-93.77v-218.31h-107.78v167.53c0 16.53-.41 30.5-1.03 41.84-.73 11.33-2.83 20.59-6.45 27.77-3.45 7.19-8.77 12.38-16.19 15.67-7.3 3.31-17.69 4.92-30.96 4.92-9.07 0-17.83-1.53-26.29-4.6-8.59-3.12-19.08-8.21-31.34-15.41M5741.14 1988.64v-237.72h-107.78v167.53c0 16.36-.46 30.23-1.29 41.7-.69 11.42-2.97 20.73-6.47 27.91-3.62 7.19-9.09 12.38-16.31 15.67-7.21 3.31-17.49 4.92-30.57 4.92-10.59 0-20.88-2.1-30.83-6.41-9.92-4.28-18.87-8.8-26.82-13.6v-237.72H5413.2v335.38h107.87v-37.03c18.51 14.53 36.2 25.87 53.05 34.05 16.88 8.18 35.64 12.24 56.04 12.24 22.12 0 41.6-4.92 58.46-14.76 17-9.84 30.14-24.35 39.73-43.46 21.45 18.11 42.28 32.34 62.6 42.69 20.3 10.33 40.12 15.53 59.63 15.53 36.16 0 63.63-10.84 82.52-32.56 18.75-21.68 28.08-52.95 28.08-93.77v-218.31h-107.75v167.53c0 16.53-.32 30.5-1.04 41.84-.74 11.33-2.85 20.59-6.49 27.77-3.32 7.19-8.75 12.38-16.05 15.67-7.43 3.31-17.71 4.92-31.09 4.92-8.94 0-17.71-1.53-26.28-4.6-8.58-3.12-18.95-8.21-31.34-15.41M6266.32 1961.77c-.65 22.5-6.17 39.44-16.72 50.77-10.57 11.34-27.01 17.03-49.34 17.03-20.69 0-37.66-5.37-51.04-16.12-13.35-10.75-20.75-27.96-22.38-51.68zm106.85-63H6127.1c1.64-26.29 11.61-46.39 30.04-60.33 18.42-13.93 45.58-20.88 81.32-20.88 22.8 0 44.73 4.06 66.06 12.24 21.33 8.18 38.11 16.88 50.51 26.29h11.91v-86.31c-24.31-9.76-47.16-16.87-68.68-21.25-21.48-4.36-45.32-6.54-71.42-6.54-67.22 0-118.79 15.14-154.66 45.4-35.88 30.25-53.74 73.34-53.74 129.32 0 55.32 16.92 99.18 50.89 131.51 33.98 32.34 80.56 48.57 139.62 48.57 54.56 0 95.57-13.83 123.03-41.38 27.46-27.6 41.19-67.26 41.19-119.01v-37.63M2818.25 1343.99l-54.71 159.25-54.71-159.25zm176.94-171.47H2876.8l-30.97 89.86H2681.3l-31.02-89.86h-115.56l164.27 444.64h131.97l164.23-444.64M3042.15 1172.52h107.773v464.652H3042.15zM3347.93 1172.52h-107.79v335.39h107.79zm3.01 383.13h-113.78v81.52h113.78v-81.52M3765.73 1410.28v-237.76h-107.76v167.58c0 16.34-.45 30.21-1.17 41.69-.81 11.37-2.97 20.72-6.59 27.84-3.64 7.25-9 12.44-16.31 15.67-7.23 3.36-17.48 4.92-30.57 4.92-10.59 0-20.78-2.1-30.83-6.35-9.93-4.35-18.88-8.8-26.82-13.59v-237.76h-107.76v335.39h107.76v-37.02c18.51 14.48 36.19 25.87 53.05 33.99 16.99 8.17 35.65 12.23 56.15 12.23 22 0 41.49-4.92 58.46-14.76 16.87-9.84 30.03-24.35 39.59-43.45 21.47 18.1 42.41 32.4 62.61 42.74 20.31 10.34 40.14 15.47 59.64 15.47 36.17 0 63.75-10.83 82.51-32.5 18.76-21.73 28.2-52.93 28.2-93.74v-218.35h-107.88v167.58c0 16.52-.3 30.43-1.03 41.83-.64 11.27-2.85 20.58-6.35 27.7-3.45 7.25-8.77 12.44-16.19 15.67-7.31 3.36-17.69 4.92-31.08 4.92-8.94 0-17.71-1.47-26.28-4.53-8.48-3.19-18.97-8.29-31.35-15.41M4297.67 1383.35c-.65 22.5-6.14 39.48-16.7 50.76-10.59 11.39-27.03 17.03-49.35 17.03-20.68 0-37.66-5.38-51.03-16.12-13.37-10.75-20.78-27.9-22.4-51.67zm106.85-62.94h-246.06c1.63-26.29 11.61-46.45 30.04-60.36 18.41-13.9 45.57-20.85 81.44-20.85 22.68 0 44.61 4.06 65.94 12.18 21.31 8.12 38.1 16.88 50.51 26.3h11.92v-86.26c-24.33-9.76-47.17-16.93-68.66-21.24-21.51-4.44-45.36-6.59-71.36-6.59-67.3 0-118.89 15.18-154.75 45.44-35.89 30.26-53.76 73.33-53.76 129.25 0 55.38 17.03 99.23 50.9 131.56 33.98 32.33 80.56 48.51 139.62 48.51 54.56 0 95.58-13.78 123.04-41.39 27.46-27.53 41.18-67.25 41.18-118.98v-37.57M4806.29 1172.52h-107.87v166.41c0 13.55-.61 26.95-2.08 40.41-1.35 13.47-3.8 23.35-7.13 29.76-3.96 7.31-9.8 12.74-17.47 16.08-7.69 3.44-18.4 5.04-32.12 5.04-9.77 0-19.64-1.52-29.67-4.78-10.14-3.15-21.01-8.22-32.75-15.16v-237.76h-107.75v335.39h107.75v-37.02c19.13 14.88 37.5 26.36 55.1 34.31 17.59 7.94 37.12 11.91 58.6 11.91 36.18 0 64.47-10.51 84.74-31.59 20.39-21.16 30.65-52.67 30.65-94.65v-218.35M5108.5 1175.46c-11.59-2.96-23.75-5.25-36.66-6.97-13.05-1.6-28.85-2.45-47.54-2.45-41.83 0-72.95 8.37-93.36 25.38-20.31 16.87-30.58 45.87-30.58 86.88v156.72h-44.18v72.89h44.18v95.85h107.87v-95.85h100.27v-72.89h-100.27v-119.03c0-11.77.08-21.98.27-30.74.17-8.78 1.81-16.65 4.77-23.62 2.8-7.07 7.71-12.54 14.73-16.6 7.02-4.17 17.34-6.2 30.75-6.2 5.61 0 12.93 1.16 21.95 3.61 9.01 2.35 15.26 4.61 18.87 6.6h8.93v-73.58M5364.8 1260.26v69.73c-14.55-1.28-30.25-2.85-47.24-4.92-16.9-2.17-29.71-4.55-38.48-7.34-10.76-3.32-18.94-8.25-24.61-14.73-5.7-6.49-8.55-14.89-8.55-25.45 0-6.93.64-12.62 1.81-16.93 1.18-4.42 4.15-8.55 8.95-12.51 4.61-3.98 10.02-6.89 16.45-8.79 6.29-1.89 16.34-2.83 29.78-2.83 10.76 0 21.76 2.15 32.77 6.57 11.02 4.3 20.71 10.08 29.12 17.2zm0-52.13c-5.78-4.45-13.01-9.68-21.5-15.81-8.57-6.26-16.6-11.14-24.2-14.63-10.58-4.79-21.5-8.38-32.89-10.63-11.27-2.35-23.75-3.47-37.3-3.47-31.9 0-58.54 9.83-80.04 29.52-21.49 19.81-32.25 44.9-32.25 75.63 0 24.47 5.51 44.43 16.45 59.97 10.91 15.53 26.46 27.82 46.62 36.77 19.86 8.94 44.51 15.37 73.97 19.04 29.54 3.8 60.07 6.6 91.67 8.42v1.82c0 18.51-7.48 31.28-22.65 38.31-15.08 7.04-37.4 10.62-66.84 10.62-17.83 0-36.7-3.11-56.86-9.45-20.03-6.21-34.49-11.05-43.24-14.38h-9.86v80.88c11.41 2.98 29.88 6.49 55.43 10.6 25.57 4.07 51.17 6.09 76.82 6.09 61.15 0 105.29-9.38 132.48-28.22 27.2-18.78 40.8-48.32 40.8-88.51v-228.18H5364.8v35.61M5667.01 1172.52h-107.77v335.39h107.77zm2.98 383.13h-113.72v81.52h113.72v-81.52M6000.38 1405.49h-9.53c-4.64 1.63-11.92 2.79-22.11 3.61-10.09.71-18.58 1.18-25.34 1.18-15.23 0-28.74-1-40.46-2.98-11.72-1.98-24.34-5.42-37.87-10.21v-224.57H5757.3v335.39h107.77v-49.26c23.61 20.27 44.15 33.77 61.65 40.45 17.49 6.64 33.52 9.99 48.33 9.99 3.69 0 8.03-.09 12.8-.33 4.8-.18 8.94-.49 12.53-.85v-102.42M6273.58 1383.35c-.52 22.5-6.13 39.48-16.7 50.76-10.58 11.39-26.91 17.03-49.23 17.03-20.69 0-37.77-5.38-51.16-16.12-13.24-10.75-20.76-27.9-22.29-51.67zm106.98-62.94h-246.08c1.52-26.29 11.62-46.45 30.04-60.36 18.32-13.9 45.47-20.85 81.35-20.85 22.65 0 44.71 4.06 65.91 12.18 21.35 8.12 38.21 16.88 50.51 26.3h11.93v-86.26c-24.23-9.76-47.16-16.93-68.65-21.24-21.49-4.44-45.24-6.59-71.36-6.59-67.31 0-118.89 15.18-154.63 45.44-35.88 30.26-53.78 73.33-53.78 129.25 0 55.38 16.94 99.23 50.93 131.56 33.85 32.33 80.43 48.51 139.61 48.51 54.42 0 95.44-13.78 123.03-41.39 27.46-27.53 41.19-67.25 41.19-118.98v-37.57M3050.48 594.12h-114.1v297.75l-82.43-193.23h-79.14l-82.42 193.23V594.12H2584.3v444.62h133.21l100.04-223.04 99.74 223.04h133.19V594.12M3359.3 680.12c6.95 8.58 12.24 18.84 15.67 30.95 3.54 12 5.21 28.668 5.21 50.012 0 19.668-1.72 36.207-5.36 49.59-3.61 13.238-8.57 23.906-14.9 31.848-6.41 8.25-14.05 14.03-23.04 17.35-8.93 3.45-18.6 5.048-28.95 5.048-10.33 0-19.55-1.328-27.64-4.137-8.03-2.8-15.75-8.28-23.11-16.69-6.55-7.78-11.81-18.45-15.69-32-3.88-13.54-5.83-30.52-5.83-51.008 0-18.37 1.67-34.21 5.05-47.684 3.4-13.457 8.39-24.257 14.97-32.367 6.38-7.768 14.01-13.48 22.86-16.98 8.84-3.62 18.98-5.44 30.31-5.44 9.74 0 19.05 1.68 27.91 4.93 8.85 3.358 16.38 8.82 22.54 16.58zm132.35 81.58c0-55.2-16.15-98.58-48.3-130.41-32.17-31.7-77.29-47.66-135.42-47.66-58.13 0-103.23 15.96-135.38 47.66-32.15 31.83-48.22 75.21-48.22 130.41 0 55.58 16.15 99.08 48.48 130.82 32.36 31.582 77.4 47.398 135.12 47.398 58.49 0 103.8-15.898 135.7-47.777 31.97-31.8 48.02-75.34 48.02-130.44M3896.31 594.12h-107.76v166.29c0 13.578-.73 27.07-2.2 40.54-1.34 13.48-3.67 23.36-7.12 29.66-3.98 7.41-9.8 12.73-17.47 16.19-7.7 3.33-18.4 5.04-32.13 5.04-9.76 0-19.65-1.63-29.67-4.79-10.01-3.152-21.01-8.21-32.75-15.27V594.12h-107.75v335.32h107.75v-36.92c19.14 14.89 37.51 26.37 55.1 34.308 17.6 7.942 37.13 11.922 58.61 11.922 36.17 0 64.46-10.578 84.85-31.61 20.4-21.14 30.54-52.67 30.54-94.67V594.12M4204.26 686.488v164.71c-7.47 3.263-15.51 5.52-23.79 6.872-8.4 1.45-15.94 2.2-23.02 2.2-28.09 0-49.29-8.942-63.45-26.59-14.05-17.62-21.08-42.102-21.08-73.4 0-32.82 5.68-56.75 16.92-71.6 11.39-14.82 29.5-22.29 54.56-22.29 9.74 0 20.11 1.848 31.01 5.58 10.92 3.71 20.56 8.428 28.85 14.518zm107.86-92.367h-107.86v34.97c-18.52-15.2-35.72-26.3-51.89-33.418-16.05-7.262-34.64-10.75-55.76-10.75-40.8 0-73.36 15.707-97.81 47.156-24.46 31.422-36.74 73.883-36.74 127.184 0 28.437 4.21 53.68 12.4 75.738 8.2 21.94 19.55 40.88 33.91 56.602 13.53 14.91 29.84 26.507 49.16 34.726 19.32 8.313 38.63 12.422 57.84 12.422 20.14 0 36.6-2.12 49.42-6.46 12.8-4.26 26.02-9.72 39.47-16.212V1058.8h107.86V594.12M4512.29 594.12h-107.88v335.32h107.88zm2.98 383.1h-113.83v81.58h113.83v-81.58M4807.4 681.86v69.62c-14.55-1.16-30.25-2.85-47.15-4.91-16.99-2.07-29.82-4.43-38.6-7.242-10.74-3.418-18.91-8.34-24.58-14.726-5.7-6.48-8.56-15.012-8.56-25.43 0-7.05.65-12.62 1.81-17.043 1.15-4.33 4.14-8.56 8.94-12.54 4.63-3.96 10.13-6.88 16.45-8.77 6.41-1.89 16.36-2.718 29.91-2.718 10.74 0 21.62 2.16 32.64 6.45 11.01 4.436 20.72 10.21 29.14 17.307zm0-52.24c-5.78-4.35-12.91-9.55-21.51-15.81-8.59-6.138-16.62-11.02-24.21-14.65-10.58-4.77-21.48-8.23-32.75-10.61-11.42-2.25-23.88-3.37-37.46-3.37-31.74 0-58.51 9.84-80.01 29.53-21.51 19.688-32.25 44.9-32.25 75.63 0 24.48 5.51 44.44 16.44 59.98 10.92 15.52 26.45 27.72 46.64 36.77 19.84 8.93 44.5 15.25 74.05 19.05 29.46 3.778 59.99 6.59 91.7 8.41v1.82c0 18.5-7.6 31.278-22.79 38.32-15.06 7.048-37.39 10.63-66.84 10.63-17.7 0-36.67-3.11-56.72-9.45-20.15-6.222-34.61-11.05-43.38-14.5h-9.84v80.94c11.4 2.98 29.86 6.55 55.43 10.6 25.54 4.06 51.18 6.11 76.94 6.11 61.04 0 105.28-9.34 132.36-28.24 27.19-18.78 40.8-48.28 40.8-88.46v-228.2h-106.6v35.5M5003.66 594.12h107.79v464.68h-107.79zM1103.69 2834.65l-86.96-322.92h-92.312l-57.777 210.34-56.413-210.34H718.12l-86.96 322.92h86.922l49.508-222.27 59.574 222.27h83.078l56.516-222.27 52.032 222.27h84.9M1390.54 2772.2h-148.53v-60.07h137.69v-62.46h-137.69v-137.94h-82.85v322.92h231.38v-62.45M1628.4 2730.85c0 9.11-2.46 16.94-7.36 23.47-4.91 6.6-10.63 11.16-17.13 13.74-8.69 3.5-17.12 5.37-25.37 5.74-8.25.37-19.21.54-32.93.54h-14.36v-96.47h23.86c14.17 0 25.85.82 35.05 2.58 9.19 1.69 16.9 5.22 23.07 10.37 5.35 4.64 9.22 10.14 11.61 16.56 2.4 6.41 3.56 14.23 3.56 23.47zm86.13 1.86c0-14.48-2.58-28.6-7.62-42.4-5.03-13.79-12.27-25.41-21.66-34.78-12.9-12.73-27.23-22.35-43.03-28.84-15.86-6.49-35.54-9.76-59.1-9.76h-51.87v-105.2h-83.23v322.92h137.05c20.54 0 37.82-1.8 51.92-5.32 14.1-3.59 26.55-8.85 37.41-15.96 13-8.51 22.92-19.46 29.84-32.75 6.85-13.28 10.29-29.26 10.29-47.91M556.426 257.87l-58.05-187.33h-63.77L396.44 196.76 358.75 70.54h-64.398l-57.55 187.33h62.987l32.167-129.07 39.977 129.07h53.207L463.15 128.8 494.8 257.87h61.626M706.88 286.07h-4.482c-2.695.7-6.152 1.602-10.382 2.59-4.282 1-8.887 1.55-13.77 1.55-11.754 0-19.69-2.08-23.816-6.39-4.192-4.19-6.246-12.32-6.246-24.5v-1.45h46.164v-40.73h-44.172V70.54h-60.2v146.6H564.27v40.73h25.707v5.142c0 22.847 6.062 40.078 18.238 51.566 12.183 11.492 30.633 17.113 55.293 17.113 8.88 0 16.965-.26 24.203-.928 7.235-.532 13.63-1.352 19.17-2.352v-42.34M846.277 165.5c0 18.238-3.132 31.398-9.36 39.672-6.17 8.18-15.987 12.258-29.437 12.258-5.67 0-11.46-.88-17.484-2.508-5.976-1.742-11.703-4.274-17.14-7.453V113.42c3.98-1.62 8.273-2.62 12.804-3 4.582-.524 9.067-.703 13.5-.703 15.9 0 27.703 4.67 35.48 13.87 7.762 9.332 11.637 23.262 11.637 41.91zm61.86 1.21c0-15.35-2.375-29.48-7.06-42.17-4.733-12.68-10.948-23.04-18.573-31.34-8.027-8.688-17.055-15.17-27.172-19.66-10.13-4.51-20.945-6.7-32.46-6.7-10.665 0-19.747 1.12-27.18 3.47-7.426 2.25-15.055 5.41-22.837 9.49V1.86H712.66v256.01h60.195v-19.51c9.23 7.28 18.625 13.21 28.25 17.812 9.622 4.598 20.665 6.84 33.235 6.84 23.332 0 41.46-8.582 54.383-25.653 12.957-17.18 19.414-40.688 19.414-70.65M936.582 70.54h62.387v65.542H936.58zM1158.4 118.55c3.9 4.802 6.82 10.56 8.76 17.302 1.95 6.738 2.92 15.988 2.92 27.867 0 11.1-.99 20.26-3.03 27.768-2.02 7.364-4.75 13.3-8.35 17.813-3.54 4.598-7.85 7.782-12.82 9.688-5 1.883-10.39 2.852-16.18 2.852-5.79 0-10.9-.82-15.46-2.4-4.49-1.51-8.81-4.588-12.9-9.292-3.69-4.398-6.61-10.328-8.76-17.796-2.15-7.614-3.27-17.153-3.27-28.633 0-10.17.95-19.03 2.85-26.58 1.9-7.55 4.69-13.55 8.33-18.038 3.56-4.39 7.82-7.543 12.76-9.532 4.93-1.992 10.6-2.992 16.95-2.992 5.43 0 10.65.922 15.6 2.78 4.94 1.732 9.16 4.904 12.6 9.193zm73.88 45.58c0-30.86-8.96-55.142-26.93-72.86-17.97-17.72-43.21-26.58-75.65-26.58-32.48 0-57.68 8.86-75.65 26.58-17.98 17.718-26.93 42-26.93 72.86 0 30.94 9 55.31 27.07 73.08 18.07 17.67 43.26 26.51 75.51 26.51 32.7 0 57.99-8.888 75.79-26.78 17.88-17.76 26.79-42.08 26.79-72.81M1394 200.62h-5.33c-2.55.9-6.62 1.6-12.31 1.99-5.63.51-10.36.71-14.15.71-8.51 0-16.09-.61-22.61-1.71-6.58-1.098-13.6-2.99-21.13-5.688V70.54h-60.24v187.33h60.24v-27.49c13.21 11.268 24.66 18.83 34.43 22.58 9.76 3.74 18.77 5.51 26.95 5.51 2.15 0 4.54-.048 7.18-.15 2.63-.12 4.98-.25 6.97-.45v-57.25M1532.91 129.52v84.92c-3.44 1.5-7.68 2.62-12.66 3.47-4.98.852-9.52 1.22-13.5 1.22-15.74 0-27.55-4.58-35.42-13.6-7.9-9.018-11.85-21.69-11.85-37.96 0-17.96 3.36-30.55 10.09-37.63 6.72-7.202 16.66-10.678 29.86-10.678 5.99 0 11.88.937 17.63 2.828 5.78 1.91 11.07 4.34 15.85 7.43zm60.2-37.49c0-17.55-2.5-32.32-7.49-44.31-5.05-12.09-12.03-21.41-21.02-28.19-9.04-6.9-19.89-11.96-32.61-15.03-12.74-3.02-27.14-4.5-43.13-4.5-13.01 0-25.81.69-38.44 2.31-12.64 1.588-23.54 3.48-32.77 5.67v46.88h7.33c7.32-2.9 16.25-5.57 26.81-7.91 10.51-2.462 19.94-3.618 28.33-3.618 11.06 0 20.11 1.027 27.03 3.066 6.94 2.05 12.24 4.973 15.94 8.762 3.44 3.59 5.93 8.18 7.47 13.66 1.54 5.62 2.35 12.3 2.35 20.09v3.43c-7.24-5.88-15.22-10.59-23.99-13.97-8.77-3.51-18.54-5.132-29.34-5.132-26.2 0-46.46 7.883-60.66 23.66-14.21 15.774-21.28 39.82-21.28 72.082 0 15.46 2.13 28.74 6.48 40.02 4.34 11.18 10.41 20.95 18.3 29.36 7.32 7.78 16.36 13.82 27.09 18.11 10.72 4.4 21.66 6.542 32.88 6.542 10.13 0 19.33-1.16 27.61-3.614 8.27-2.36 15.77-5.636 22.56-9.918l2.16 8.39h58.39V92.03M1808.39 330.11L1676.1 16.52h-51.21l131.75 313.59h51.75M1972.6 286.07h-4.47c-2.65.7-6.15 1.602-10.39 2.59-4.28 1-8.83 1.55-13.71 1.55-11.75 0-19.76-2.08-23.88-6.39-4.18-4.19-6.25-12.32-6.25-24.5v-1.45h46.23v-40.73h-44.24V70.54h-60.2v146.6h-25.7v40.73h25.7v5.142c0 22.847 6.07 40.078 18.25 51.566 12.18 11.492 30.63 17.113 55.28 17.113 8.94 0 16.98-.26 24.21-.928 7.24-.532 13.63-1.352 19.17-2.352v-42.34M2114.16 200.62h-5.33c-2.54.9-6.62 1.6-12.31 1.99-5.68.51-10.36.71-14.15.71-8.51 0-16.08-.61-22.61-1.71-6.58-1.098-13.6-2.99-21.17-5.688V70.54h-60.21v187.33h60.21v-27.49c13.2 11.268 24.7 18.83 34.46 22.58 9.77 3.74 18.74 5.51 26.96 5.51 2.11 0 4.48-.048 7.18-.15 2.63-.12 4.98-.25 6.97-.45v-57.25"></path></g></svg>