<svg xmlns="http://www.w3.org/2000/svg" viewBox="0 0 1408.4268 377.94666" height="377.947" width="1408.427"><defs><clipPath id="a"><path d="M0 0h10563v2834.64H0z"></path></clipPath></defs><g clip-path="url(#a)" fill="#fff" transform="matrix(.13333 0 0 -.13333 0 377.947)"><path d="M3195.35 1623.82l-120.4-447.06h-127.81l-79.96 291.23-78.16-291.23h-127.5l-120.4 447.06h120.34l68.58-307.75 82.5 307.75h114.99l78.28-307.75 72 307.75h117.54M3447.88 1263.23c7 8.6 12.25 18.96 15.76 31.08 3.49 12.11 5.26 28.87 5.26 50.28 0 19.82-1.81 36.43-5.41 49.85-3.61 13.41-8.61 24.12-15.02 32.12-6.4 8.2-14.1 14.01-23.11 17.43-9 3.38-18.72 5.08-29.12 5.08-10.42 0-19.67-1.39-27.78-4.19-8.1-2.81-15.87-8.41-23.26-16.82-6.61-7.8-11.87-18.52-15.77-32.13-3.9-13.61-5.86-30.72-5.86-51.34 0-18.41 1.71-34.36 5.11-47.88 3.4-13.52 8.4-24.37 15.02-32.58 6.39-7.81 14.05-13.5 22.97-17.11 8.9-3.6 19.06-5.41 30.46-5.41 9.81 0 19.17 1.65 28.08 4.96 8.9 3.3 16.46 8.85 22.67 16.66zm133.01 81.97c0-55.44-16.17-99.13-48.49-131.06-32.33-31.92-77.72-47.88-136.16-47.88-58.45 0-103.84 15.96-136.17 47.88-32.32 31.93-48.49 75.62-48.49 131.06 0 55.85 16.26 99.68 48.8 131.5 32.53 31.83 77.8 47.73 135.86 47.73 58.84 0 104.34-16.01 136.45-48.02 32.13-32.03 48.2-75.76 48.2-131.21M3902.73 1410.95h-9.58c-4.59 1.59-11.98 2.8-22.17 3.6-10.19.79-18.68 1.2-25.46 1.2-15.38 0-28.96-1-40.73-3-11.8-2.01-24.48-5.4-38.06-10.21v-225.78h-108.39v337.18h108.39v-49.55c23.77 20.42 44.44 33.97 62.01 40.68 17.57 6.71 33.76 10.07 48.54 10.07 3.78 0 8.09-.11 12.88-.3 4.79-.21 8.99-.51 12.57-.9v-102.99M3963.98 1176.76h108.39v467.18h-108.39zM4393.63 1269.56v165.7c-7.6 3.2-15.58 5.51-23.97 6.91-8.38 1.41-16.07 2.11-23.06 2.11-28.37 0-49.64-8.87-63.82-26.62-14.17-17.74-21.27-42.35-21.27-73.82 0-33.08 5.7-57.08 17.08-72.02 11.39-14.93 29.65-22.39 54.82-22.39 9.79 0 20.17 1.84 31.16 5.56 10.98 3.7 20.66 8.56 29.06 14.57zm108.38-92.8h-108.38v35.13c-18.61-15.21-35.99-26.42-52.18-33.63-16.21-7.19-34.89-10.8-56.08-10.8-40.99 0-73.77 15.8-98.35 47.43-24.6 31.62-36.89 74.26-36.89 127.9 0 28.63 4.15 54 12.44 76.12 8.3 22.11 19.64 41.07 34.04 56.89 13.59 15.01 30.08 26.67 49.47 34.98 19.4 8.3 38.79 12.45 58.18 12.45 20.19 0 36.74-2.14 49.63-6.44 12.89-4.32 26.14-9.77 39.74-16.37v143.52h108.38v-467.18M5140.63 1537.35h-205.67v-83.17h190.66v-86.47h-190.66v-190.95h-114.69v447.06h320.36v-86.47M5425.86 1263.23c7 8.6 12.26 18.96 15.75 31.08 3.51 12.11 5.26 28.87 5.26 50.28 0 19.82-1.8 36.43-5.41 49.85-3.59 13.41-8.6 24.12-15.01 32.12-6.4 8.2-14.1 14.01-23.12 17.43-9 3.38-18.72 5.08-29.11 5.08-10.42 0-19.66-1.39-27.78-4.19-8.11-2.81-15.87-8.41-23.26-16.82-6.62-7.8-11.87-18.52-15.78-32.13-3.9-13.61-5.86-30.72-5.86-51.34 0-18.41 1.71-34.36 5.12-47.88 3.39-13.52 8.4-24.37 15.02-32.58 6.4-7.81 14.05-13.5 22.96-17.11 8.9-3.6 19.07-5.41 30.48-5.41 9.8 0 19.17 1.65 28.07 4.96 8.89 3.3 16.45 8.85 22.67 16.66zm133 81.97c0-55.44-16.15-99.13-48.48-131.06-32.34-31.92-77.72-47.88-136.16-47.88-58.45 0-103.85 15.96-136.17 47.88-32.32 31.93-48.49 75.62-48.49 131.06 0 55.85 16.26 99.68 48.79 131.5 32.54 31.83 77.81 47.73 135.87 47.73 58.85 0 104.33-16.01 136.45-48.02 32.12-32.03 48.19-75.76 48.19-131.21M5848 1263.23c7 8.6 12.25 18.96 15.75 31.08 3.51 12.11 5.25 28.87 5.25 50.28 0 19.82-1.79 36.43-5.41 49.85-3.59 13.41-8.59 24.12-15.01 32.12-6.39 8.2-14.1 14.01-23.12 17.43-9 3.38-18.71 5.08-29.1 5.08-10.42 0-19.67-1.39-27.8-4.19-8.09-2.81-15.85-8.41-23.24-16.82-6.62-7.8-11.87-18.52-15.78-32.13-3.91-13.61-5.86-30.72-5.86-51.34 0-18.41 1.71-34.36 5.12-47.88 3.39-13.52 8.4-24.37 15.02-32.58 6.39-7.81 14.04-13.5 22.96-17.11 8.9-3.6 19.07-5.41 30.48-5.41 9.8 0 19.16 1.65 28.07 4.96 8.89 3.3 16.45 8.85 22.67 16.66zm133 81.97c0-55.44-16.17-99.13-48.48-131.06-32.34-31.92-77.73-47.88-136.16-47.88-58.45 0-103.85 15.96-136.17 47.88-32.32 31.93-48.5 75.62-48.5 131.06 0 55.85 16.27 99.68 48.79 131.5 32.55 31.83 77.81 47.73 135.88 47.73 58.85 0 104.33-16.01 136.45-48.02 32.12-32.03 48.19-75.76 48.19-131.21M6277.94 1269.56v165.7c-7.61 3.2-15.57 5.51-23.97 6.91-8.39 1.41-16.07 2.11-23.06 2.11-28.38 0-49.63-8.87-63.81-26.62-14.19-17.74-21.28-42.35-21.28-73.82 0-33.08 5.7-57.08 17.08-72.02 11.38-14.93 29.65-22.39 54.82-22.39 9.79 0 20.16 1.84 31.16 5.56 10.97 3.7 20.67 8.56 29.06 14.57zm108.38-92.8h-108.38v35.13c-18.6-15.21-36-26.42-52.18-33.63-16.2-7.19-34.89-10.8-56.08-10.8-40.98 0-73.77 15.8-98.35 47.43-24.6 31.62-36.9 74.26-36.9 127.9 0 28.63 4.15 54 12.45 76.12 8.3 22.11 19.65 41.07 34.04 56.89 13.59 15.01 30.09 26.67 49.48 34.98 19.39 8.3 38.78 12.45 58.17 12.45 20.18 0 36.74-2.14 49.62-6.44 12.89-4.32 26.16-9.77 39.75-16.37v143.52h108.38v-467.18M6954.37 1480.14c0 12.59-3.41 23.42-10.22 32.51-6.8 9.08-14.7 15.43-23.7 19.01-12.02 4.8-23.72 7.44-35.15 7.94-11.39.5-26.61.75-45.62.75h-19.82v-133.6h33.04c19.61 0 35.77 1.19 48.48 3.59 12.7 2.41 23.36 7.18 31.98 14.38 7.4 6.38 12.74 14.03 16.06 22.92 3.3 8.87 4.95 19.71 4.95 32.5zm119.19 2.57c0-20.02-3.5-39.59-10.5-58.7-7.01-19.13-17.02-35.18-30.03-48.19-17.82-17.62-37.69-30.93-59.59-39.93-21.93-9-49.19-13.52-81.83-13.52h-71.75v-145.61h-115.29v447.06h189.76c28.41 0 52.38-2.45 71.91-7.36 19.5-4.91 36.76-12.26 51.78-22.06 18.02-11.82 31.77-26.93 41.29-45.35 9.49-18.4 14.25-40.52 14.25-66.34M7381.93 1410.95h-9.58c-4.58 1.59-11.99 2.8-22.17 3.6-10.19.79-18.68 1.2-25.45 1.2-15.38 0-28.96-1-40.74-3-11.8-2.01-24.49-5.4-38.06-10.21v-225.78h-108.38v337.18h108.38v-49.55c23.77 20.42 44.43 33.97 62.01 40.68 17.57 6.71 33.75 10.07 48.54 10.07 3.79 0 8.08-.11 12.89-.3 4.77-.21 8.97-.51 12.56-.9v-102.99M7643.17 1263.23c7.01 8.6 12.26 18.96 15.79 31.08 3.47 12.11 5.24 28.87 5.24 50.28 0 19.82-1.82 36.43-5.4 49.85-3.61 13.41-8.62 24.12-15.02 32.12-6.42 8.2-14.12 14.01-23.12 17.43-9 3.38-18.72 5.08-29.13 5.08-10.42 0-19.65-1.39-27.76-4.19-8.11-2.81-15.87-8.41-23.27-16.82-6.6-7.8-11.86-18.52-15.76-32.13-3.91-13.61-5.86-30.72-5.86-51.34 0-18.41 1.71-34.36 5.09-47.88 3.42-13.52 8.42-24.37 15.02-32.58 6.4-7.81 14.08-13.5 22.98-17.11 8.89-3.6 19.06-5.41 30.46-5.41 9.81 0 19.16 1.65 28.08 4.96 8.9 3.3 16.47 8.85 22.66 16.66zm133.02 81.97c0-55.44-16.18-99.13-48.49-131.06-32.32-31.92-77.73-47.88-136.17-47.88-58.44 0-103.82 15.96-136.16 47.88-32.32 31.93-48.49 75.62-48.49 131.06 0 55.85 16.25 99.68 48.8 131.5 32.52 31.83 77.82 47.73 135.85 47.73 58.85 0 104.34-16.01 136.46-48.02 32.14-32.03 48.2-75.76 48.2-131.21M8061.46 1283.04v152.83c-6.21 2.59-13.81 4.66-22.79 6.16-8.97 1.5-17.08 2.25-24.27 2.25-28.36 0-49.61-8.17-63.79-24.46-14.19-16.32-21.28-39.1-21.28-68.31 0-32.44 6.03-55.05 18.13-67.87 12.07-12.81 30.01-19.21 53.77-19.21 10.77 0 21.37 1.7 31.74 5.1 10.39 3.4 19.88 7.91 28.49 13.51zm108.37-67.55c0-31.62-4.51-58.24-13.51-79.85-9.01-21.63-21.61-38.54-37.84-50.75-16.2-12.41-35.77-21.36-58.69-26.87-22.91-5.51-48.79-8.26-77.61-8.26-23.43 0-46.51 1.39-69.21 4.21-22.72 2.8-42.37 6.2-58.99 10.2v84.37h13.18c13.19-5.21 29.29-9.95 48.27-14.26 18.99-4.3 35.98-6.46 50.98-6.46 19.97 0 36.22 1.86 48.72 5.56 12.48 3.7 22.01 8.96 28.61 15.76 6.19 6.41 10.7 14.61 13.49 24.61 2.81 10.01 4.23 22.02 4.23 36.04v6.31c-13-10.62-27.42-19.03-43.21-25.22-15.78-6.22-33.38-9.32-52.77-9.32-47.17 0-83.56 14.21-109.16 42.63-25.59 28.43-38.38 71.67-38.38 129.72 0 27.82 3.91 51.83 11.69 72.05 7.81 20.22 18.79 37.83 33 52.84 13.19 14 29.44 24.92 48.72 32.72 19.3 7.82 39.03 11.71 59.23 11.71 18.2 0 34.74-2.14 49.62-6.44 14.9-4.32 28.43-10.27 40.64-17.87l3.91 15.02h105.08v-298.45M8504.62 1410.95h-9.59c-4.6 1.59-11.98 2.8-22.17 3.6-10.19.79-18.67 1.2-25.48 1.2-15.37 0-28.94-1-40.73-3-11.78-2.01-24.46-5.4-38.04-10.21v-225.78h-108.4v337.18h108.4v-49.55c23.76 20.42 44.44 33.97 62.01 40.68 17.57 6.71 33.76 10.07 48.52 10.07 3.8 0 8.11-.11 12.88-.3 4.81-.21 9.01-.51 12.6-.9v-102.99M8758.34 1264.95v70.04c-14.61-1.2-30.41-2.85-47.42-4.94-17.04-2.1-29.94-4.53-38.74-7.34-10.82-3.39-19.07-8.32-24.78-14.81-5.7-6.49-8.55-15.02-8.55-25.58 0-6.99.6-12.68 1.79-17.06 1.22-4.4 4.22-8.59 9.03-12.57 4.6-4 10.1-6.94 16.49-8.83 6.42-1.9 16.43-2.84 30.03-2.84 10.82 0 21.77 2.18 32.88 6.57 11.12 4.39 20.87 10.18 29.27 17.36zm0-52.46c-5.79-4.41-13.02-9.71-21.61-15.91-8.6-6.21-16.72-11.11-24.34-14.71-10.58-4.81-21.61-8.36-33.01-10.67-11.4-2.29-23.92-3.44-37.52-3.44-32.03 0-58.85 9.9-80.46 29.71-21.63 19.83-32.44 45.14-32.44 75.97 0 24.62 5.5 44.74 16.53 60.35 10.99 15.61 26.61 27.92 46.81 36.92 20.02 9.02 44.85 15.41 74.47 19.22 29.63 3.8 60.35 6.6 92.18 8.4v1.81c0 18.62-7.61 31.47-22.83 38.58-15.22 7.1-37.61 10.67-67.24 10.67-17.82 0-36.83-3.16-57.05-9.47-20.22-6.31-34.72-11.15-43.54-14.57h-9.9v81.37c11.4 3.01 29.96 6.55 55.68 10.66s51.51 6.16 77.32 6.16c61.45 0 105.85-9.46 133.15-28.37 27.32-18.92 40.99-48.6 40.99-89.03v-229.38h-107.19v35.73M9282.59 1415.75v-238.99h-108.38v168.44c0 16.4-.4 30.37-1.21 41.88-.78 11.51-2.98 20.86-6.59 28.08-3.6 7.19-9.08 12.45-16.37 15.76-7.32 3.3-17.57 4.95-30.77 4.95-10.62 0-20.92-2.16-30.92-6.45-10.02-4.31-19.01-8.87-27.03-13.67v-238.99h-108.38v337.18h108.38v-37.24c18.58 14.61 36.39 26.02 53.38 34.23 16.98 8.2 35.77 12.3 56.37 12.3 22.2 0 41.79-4.95 58.78-14.85 16.99-9.91 30.28-24.47 39.89-43.69 21.56 18.21 42.55 32.53 62.95 42.94 20.38 10.4 40.37 15.6 59.97 15.6 36.35 0 64-10.9 82.88-32.71 18.89-21.83 28.35-53.24 28.35-94.29v-219.47h-108.41v168.44c0 16.61-.33 30.62-1.06 42.04-.69 11.39-2.85 20.7-6.43 27.92-3.41 7.19-8.82 12.45-16.23 15.76-7.4 3.3-17.8 4.95-31.22 4.95-9 0-17.82-1.56-26.41-4.66-8.62-3.09-19.13-8.26-31.54-15.46M9921.53 1415.75v-238.99h-108.4v168.44c0 16.4-.41 30.37-1.19 41.88-.81 11.51-3 20.86-6.6 28.08-3.61 7.19-9.06 12.45-16.36 15.76-7.31 3.3-17.57 4.95-30.79 4.95-10.62 0-20.91-2.16-30.92-6.45-10.01-4.31-19.02-8.87-27.03-13.67v-238.99h-108.37v337.18h108.37v-37.24c18.61 14.61 36.4 26.02 53.39 34.23 17 8.2 35.77 12.3 56.38 12.3 22.18 0 41.77-4.95 58.76-14.85 16.99-9.91 30.29-24.47 39.88-43.69 21.59 18.21 42.57 32.53 62.95 42.94 20.4 10.4 40.4 15.6 60 15.6 36.3 0 64-10.9 82.9-32.71 18.8-21.83 28.3-53.24 28.3-94.29v-219.47h-108.4v168.44c0 16.61-.3 30.62-1 42.04-.7 11.39-2.9 20.7-6.5 27.92-3.4 7.19-8.8 12.45-16.2 15.76-7.4 3.3-17.82 4.95-31.22 4.95-9.02 0-17.82-1.56-26.43-4.66-8.61-3.09-19.1-8.26-31.52-15.46M10455.7 1388.73c-.6 22.62-6.2 39.63-16.8 51.04-10.6 11.41-27.2 17.12-49.6 17.12-20.8 0-37.9-5.41-51.3-16.21-13.4-10.82-20.9-28.14-22.5-51.95zm107.5-63.35h-247.4c1.6-26.42 11.6-46.64 30.1-60.65 18.6-14.01 45.8-21.02 81.9-21.02 22.8 0 44.9 4.1 66.3 12.31s38.3 17.01 50.8 26.43h12v-86.77c-24.5-9.82-47.5-16.92-69.1-21.32-21.6-4.4-45.5-6.6-71.8-6.6-67.6 0-119.4 15.21-155.5 45.63-36 30.42-54 73.76-54 130 0 55.63 17.1 99.73 51.2 132.27 34.1 32.52 80.9 48.77 140.3 48.77 54.9 0 96.1-13.85 123.7-41.58 27.7-27.72 41.5-67.59 41.5-119.64v-37.83M1340.5 2131.15c12.51 27.07 24.09 48.62 40.79 74.3 7.38 11.32 15.7 19.22 23.12 30.67-3.55 1.02-8.73-1.91-10.97-3.5-7.42-5.38-10.77-14.12-16.71-18.8-14.03-11.07-13.64-21.11-20.99-26.27-6.57-4.64-8.46-7.69-13.06-14.91-3.08-4.82-5.34-8.73-8.59-18.23-1.16-3.42-3.45-.39-8.93-7.93-7.19-9.8-10.41-20.39-13.39-32.26-.95-3.9-7.59-5.97-11.85-14.07-5.72-10.92-9.44-21.03-11.91-36.95-.61-3.69-6.85-6.25-11.16-16.53-3.05-7.23-5.23-8.83-7.9-22.46-1.64-8.3-5.43-9.5-9.7-21.56-3.3-9.2-3.42-18.06-4.58-30.08-.26-2.33-4.2-6.95-7.83-13.69-6.09-11.26-5.9-18.78-8.32-30.41-.93-4.2-5.64-9.77-10.18-27.79-3.98-15.98-.33-26.58-1.67-34.45-3.53-20.45-7.04-38.21-5.14-58.35.94-9.85 2.44-20.01 1.78-29.48-1.88-29.7-3.48-54.17-3.32-87.83.1-18.32 1.54-43.41 4.31-64.29 3.05-23.06 7.44-41.07 7.44-41.07h75.14s-2.94 43.45.96 89.19c2.3 27.42 8.83 56.48 14.75 76.89 7.51 26.03 12.18 39.51 26.38 73.85.29.76-.11 3.98-3.86.83-7.84-6.58-14.38-12.37-20.57-21.69-9.46-14.25-15.22-25.99-22.87-40.63-8.95-17.02-13.89-31.84-23.11-52.52-.55 14.92 1.87 29.12 4.9 42.87 3.11 14.04 5.57 25.16 9.98 37.26 7.83 21.35 15.43 39.16 27.99 59.03 7.28 11.47 16.57 21.77 26.02 30.32 11.29 10.32 21.72 19.4 33.54 29.5-12.41 6.4-28.95-6.97-32.26-7.65-17.48-3.41-24.58-19.61-29.94-21.82-7.64-3.2-12.07-7.89-17.38-14.34-4.08-4.84-5.31-12.32-9.59-14.98-7.13-4.44-12.36-11.14-17.26-20.5-2.02-3.86-7.5-22.13-13.6-19.78 10.42 61.92 32.29 120.01 67.38 171.69 22.25 32.78 46.45 60.89 82.12 86.11 4.7 3.34 5.62 4.89-.94 4.66-33.34-4.05-35.38-19.27-40.87-20.71-5.21-1.35-11.65-7.52-15.77-11.53-7.42-7.33-7.29-13.51-10.13-15.43-6.08-4.25-10.67-8.65-14.82-16.03-2.18-3.84-5.85-12.3-9.11-14.23-8.56-4.96-16.85-12.19-20.98-19.99-3.06-5.7-4.27-11.89-8.26-17.49-4.26-6.02-10.23-10.53-15.36-14.88 3.9 26.47 16.37 57.82 24.95 84.87 11.54 36.12 25.54 68.95 41.33 103.07M1417.21 1916.65c28.45 63.85 58.37 111.9 97.27 168.11 5.08 7.36 9.64 14.58 14.08 21.49 1.99 3.11 11.55 16.85 13.54 19.76 13.04 19.69 18.52 25.72 31.87 44.53 3.61 5.11 6.54 9.13 8.09 15.04 2.84 11.01-6.62 18.4-8.79 28.96-2.2 10.79-1 22.57 3.95 31.68 3.11 5.69 6.19 7.93 9.32 15.57 6.06 14.73 3.96 46.6 10.87 47.44-1.75-15.13-2.15-32.13.22-46.64 2.77-16.93 13.04-27.18 17.28-45.11 11.42 2.06 23.83 1.57 33.44.74 9.55-.82 21.62 1.83 31.4 5.18 13.26 4.53 24.28 12.78 37.79 15.98-11.49-11.05-27.72-15.2-41.32-23.59-5-3.14-9.71-7.29-13.05-12.45-5.47-8.5-9.79-16.64-18.34-20.38-15.2-6.62-28.24-3.48-45.58-6.7-25.76-26.54-50.01-62.63-72.38-100.58-56.73-95.98-104.03-195.37-131.53-297.29 9.51 17.73 18.59 34.88 28.89 51.75 11.38 18.74 24.18 37.09 38.14 55.47 32.65 43.05 64.97 80.64 101.17 120.19 29.22 31.95 61.24 58.76 96.95 81.18 47.19 29.57 105.41 50.28 156.57 39.6 5.82-1.36 14.14-2.91 17.77-6.74-64.11 8.98-121.54-13.42-164.4-47.74-33.85-27.08-62.39-54.56-91.38-90.27-14.98-17.21-28.46-36.13-41.84-54.45-14.01-19.27-26.44-39.55-38.77-59.83-41.54-68.61-72.99-141.25-96.11-216.51-.66-2.39-.81-4.79-1.47-7.16 1.1 1.69 2.72 3.53 3.81 5.25 31.13 50.61 68.56 99.45 115.96 132.22 4.14 2.82 8.46 8.26 9.57 12.53 5.13 20.09-10.19 29.75 11 57.52 4.86 6.38 11.5 8.71 16.09 14.64 8.67 13.4 15.74 37.41 23.01 43.86-3.65-15.63-12.62-32.15-14.53-48.26-2.03-17.68 2.49-32.14 3.28-50.88 12.52-1.71 22.2-7.01 32.03-10.04 15.27-4.77 24.45-3.56 39.57-2.25 6.44.54 18.14 4.31 25.1 2.89-14.61-7.98-34.34-6.51-49.29-14.14-10.46-5.36-13.49-13.27-27.91-16.05-12.84-2.5-23.64-1.16-31.98 3.12-6.5 3.27-11.57 4.64-17.4 1.85-15.55-7.47-26.18-18.02-38.7-30.65-29.08-29.26-52.81-61.92-74.96-104.75-5.86-11.39-11.13-22.64-16.13-34.25-2.46-5.65-8.59-21.34-8.59-21.34h-75.98s-.2 21.91.52 29.91c1.45 15.95 3.62 27.76 6.72 43.94 4.4 23.26 8.72 44.37 14.75 66.94 5.88 21.96 12.22 42.56 19.75 63.65 15.7 43.96 32.4 86.06 50.66 127.06M682.555 1324.81c27.734 22.67 48.27 35.82 75.957 52.32 11.238 6.72 28.25 14.34 41.336 20.25 47.988 21.69 111.464 37.68 171.27 38.78 1.085 0 1.015-.05 1.015-.05h445.897s-1.66.05 1.56.05c14.19 0 28.23-4.95 36.92-13.15 8.7-8.26 12.86-20.98 15.14-33.61 1.92-10.79.97-20.38-1.54-31.9-1.96-9.1-3.43-14.55-8.5-22.28-3.07-4.71-5.98-7.93-11.68-12.48-5.86-4.67-14.16-6.31-23.68-6.39-.99-.06-3.12-.12-3.04-.08.1.08-521.565.08-521.565.08h-4.872c-34.152.12-70.09-1.62-103.84-6.04-25.84-3.51-51.738-7.55-76.718-14.06-31.504-8.22-61.836-19.61-92.117-30.9 16.785 22.31 36.16 41.23 58.457 59.46"></path><path d="M837.387 1502.21c27.402 19.79 60.664 36.04 90.117 47.32 14.96 5.66 34.824 11.93 50.605 15.86 19.062 4.81 40.96 8.42 58.83 8.94 5.39.15.79.04.79.04l382.45.04s8.19-.44 11.04-1c7.18-1.55 12.98-4.48 15.39-6.01 5.93-3.81 13.39-11.81 17.29-18.14 9.93-16.35 11.68-34 8.47-52.37-3.67-20.97-19.61-44.86-41.23-45.45-3.77-.1-11.28 0-11.28 0h-414.23s-24.11-.47-35.118-.87c-20.38-.8-42.97-3.12-60.762-5.74-15.215-2.19-30.078-5.07-45.312-9.15-51.063-13.8-95.438-39.7-141.856-59.84 31.262 54.63 73.547 96.48 114.805 126.37M623.44 1242.29c66.486 39.27 146.583 54.76 219.884 57.22 1.738.08 5.215.2 5.215.2l571.74-.06s1.03 0 6.21.06c34.65.02 47.3-34.36 47.15-62.17-.07-9.14-1.62-18.5-4.16-24.77-3.29-8.18-6.94-14.88-12.89-21.32-2.13-2.35-9.79-7.74-13.18-8.56-7.92-1.93-17.66-1.72-17.6-1.72.07 0-425.27-.07-425.27 0 0 0-22.946.92-38.876 2.44-11.465 1.14-20.176 2.35-32.09 4.61-29.277 5.82-53.554 15.36-78.926 23.17-16.914 5.23-34.707 9.14-53.27 11.93-34.132 5.24-71.417 7.62-105.89 5-43.847-3.26-82.85-11.85-124.55-25.08 7.05 11 36.367 27.11 56.503 39.05"></path><path d="M931.39 1063.01c-19.538 6.87-38.613 15.76-55.722 27.07-22.285 14.75-33.203 26.46-62 39.78-24.648 11.39-44.328 22.62-78.69 35.08-16.583 6.02-43.45 14.28-66.478 18.23-32.91 5.58-64.637 8.02-64.637 8.02s6.72 4.2 10.77 5.43c33.586 10.24 63.242 15.22 97.734 17.78 30.254 2.26 58.04-.69 88.36-5.43 12.44-1.96 28.613-5.79 42.668-9.81 45.632-12.99 97.527-33.57 143.543-33.65 2.578 0 2.285.04 2.285.04h426.307c12.87.04 36.94-4.14 46.6-21.21 11.2-19.69 14.68-43.13 5.28-66.6-2.85-7.06-7.58-17.17-14.38-23.29-5.96-5.41-15.66-8.86-21.27-8.86-1.62-.08-4.39 0-4.39 0h-371.7-2.02c-38 0-85.853 4.59-122.26 17.42M1100.71 931.148c-10.51 10.8-25 27.352-38.15 43.05-25.22 30.082-36.52 57.172-36.52 57.172h247.91s.66-28.61-5.07-61.722c-5.36-30.757-16.72-63.18-28.8-86.66-.44-24.078 9.73-46.476 11.4-70.27-20.36-12.5-42.27-24.866-60.52-42.43-1.16-1.07-3.04-1.07-3.82 1.84-9.76 36.66-14.92 69.34-22.94 105.59-22.6 17.48-43.8 33.044-63.49 53.43M1356.21 951.488c-7.02 12.942-12.25 30.05-20.3 40.21-1.73-9.057.4-14.647-.83-23.32-1.13-7.27-7.09-4.257-8.3-.84-3.47 9.84-7.17 21.993-10.35 32.09-5.28 16.802-6.97 31.682-6.97 31.682l41.24.06s1.58-.39 2.31-4.42c1.98-10.39 1.49-20.52 4.34-32.57 3.65-15.51 8.37-29.67 14.06-44.118 4.96-12.742 11.36-25.57 16.55-38.23.71-1.66 1.05-4.84-.2-6.5-1.53-1.93-4.16-1.68-5.68 0-11.8 13.417-16.57 28.628-25.87 45.956M1420.04 922.012c-7.01 14.937-16.87 31.758-16.01 48.707 4.56-5.97 6.43-10.27 12.71-13.61 2.87-.92 8.9-.06 7.39 4.96-2.78 9.34-7.08 17.25-11.07 30.06-5.92 18.97-11.67 39.22-11.67 39.22l-42.1.02s2.34-17.09 11.91-43.3c8.4-23.21 21.39-49.77 35.61-74.672 11.59-20.488 22.11-38.36 35.26-53.296 4.5-5.16 15.53-.653 10.76 6.046-12.47 17.64-24.11 37.172-32.79 55.864M1693.4 2344.89c-9.14-3.98-17.2-9.13-21.76-17.91-3.32-6.3-5.56-15.92.79-21.34 11.11-9.48 24.37.23 29.74 9.92 6.79 12.35 5.02 35.96 5.02 35.96s-7.89-4.11-13.79-6.63"></path><path d="M1703.06 2285.95c4 7.54 12.75 15.68 22.34 21.51 10.84 6.63 22.07 13.06 29.88 17.72 7.8 4.7 9.3 7.99 9.3 7.99s-6.44-2.22-9.97-4.29c-19.27-11.5-40.31-24.56-48.86-28.33-10.8-4.71-25.47-5.62-38.7-7.31-2.11 16.69-6.45 23.62-6.39 38.44.11 7.12 1.83 16.34 3.04 22.77 4.14 21.43 4.95 32.25 4.95 32.25s-3.27-3.05-4.47-12.49c-1.34-8.51-2.3-11.66-4.25-21.73-2.23-11.62-4.55-21.47-11.51-28.73-10.02-10.36-19.29-28.82-11.56-42.96 4.51-8.26 12.04-7.06 14.4-9.19 2.36-2.12 3.79-7.21 10.92-9.57 15.39-5.14 32.83 8.67 40.88 23.92"></path><path d="M1683.11 2241.88c5.22 8.48 10.59 14.43 18.82 19.48 13.66 8.33 23.8 13.97 32.13 18.24 3.61 1.81 6.63 3.97 7.55 7.83-3.73-1.4-17.84-8.03-31.84-16.36-10.03-5.98-27.27-13.46-38.85-13.99-4.59-.2-7.99.93-11.74 1.04-7.77.33-17.66-1.55-17.66-1.55s-2.51 10.98-5.83 18.89c-1.66 4.06-4.36 8.22-5.8 15.83-.98 5.08-1.26 12.71-.86 17.25 1.13 13.73 4.83 27.07 4.2 40.97-8.64-17.93-5.11-40.01-15.24-53.88-4.27-5.83-7.65-10.43-11.01-17.78-5.57-12.06-4.9-24.55 2.61-36.18 4.34-6.62 13.91-6.38 15.56-7.67 2.51-1.85 4.66-8.78 14.02-10.86 16.01-3.6 34.9 3.82 43.94 18.74M1687.58 1891.29c3.73 7.53 6.14 17.42 10.89 24.41-10.75-1.61-12.49-2.84-28.04-4.55-3.38-.32-10.4-3.84-12.71-6.15-6.15-6.21-11.52-11.96-9.13-22.38.92-4.05 4.49-7.02 6.48-7.65 12.93-4.2 26.06 3.49 32.51 16.32"></path><path d="M1700.71 1870.77c14.69 3.43 31.66 10.64 38.47 8.37-13.78-7.33-31.17-10-46.44-14.35-11.65-3.36-19.97-12.16-30.37-20.15-9.55-7.26-22.25-10.22-33.6-4.88-3.82 1.82-7.53 7.99-8.2 11.28-.59 2.63-6.07 5.26-8.89 7.58-2.83 2.36-4.19 8.25-4.25 10.52-.49 20.34 14.98 28.55 29.89 40.5 11.23 8.99 25.8 47.16 34.7 55.07-1.59-12.3-17.58-35.51-24.55-53.58-5.53-14.39-3.72-25.9-7.29-41.04 10.66-.68 22.55-2.91 33.28-3.09 8.42-.11 18.6 1.72 27.25 3.77"></path><path d="M1685.23 1839.42c-8.25-1.53-18.35-4.13-25.23-5.59-23.96-5.07-35.41 6.66-54.53 6.44 1.68 21.91-5.92 31.71.34 45.87 5.58 12.6 10.76 25.94 15.55 36.61 3.9 8.57 5.07 15.8 5.07 15.8s-5.8-8.69-22.31-40.86c-5.75-11.23-16.03-13.63-25.15-24.23-10.52-12.12-16.54-37.75 2.89-48.51 3.87-2.12 3.3-8.78 6.11-11.47 12.98-12.21 39.19-10.98 55.59 3.9 13.05 11.89 28.91 13.82 42.42 17.32 7.9 2.04 14.84 5.41 14.84 5.41s-3.75 1.52-15.59-.69M1205.23 1585.17c-.95 0-1.96 0 0 0zm-111.89 315.55c-7.98-10.56-11.68-22.7-20.5-31.92-4.59-4.83-11.62-2.57-15.27 2.99-4.05 6.29-10.59 15.18-5.73 21.39 8.01 10.27 24.77 16.82 39 14.96.84-.09 5.43-3.48 2.5-7.42zm-38.34-60.39c-4.47-11.96-17.8-13.26-29.14-15.62-2.12-.46-8.65 0-11.58 2.87-4.89 4.79-9.14 11.34-8.28 19.54.45 5.06 4.68 10.02 9.9 12.03 9.48 3.67 20.7 9.57 30.03 4.33 8.02-4.48 12.24-14.72 9.07-23.15zm-24.55-63.22c-3.26-4.71-11.64 10.95-12.73 18.12-3.13 20.77 15.08 26.07 30.23 25.43.47-12.39-9.12-31.57-17.5-43.55zm-16.38-56.03c-2.97-8.35-4.41-16.04-7.73-23.69-3.22-7.4-16.97-10.04-24.598-7.67-10.898 3.37-20.242 27.83-7.86 37.2 9.48 7.08 19.286 8.22 31.358 9.7 2.17.26 10.27-.23 10.59-.99 2.03-5.07.75-7.61-1.76-14.55zm-18.343-64.59c-2.207-6.42-3.184-13.02-6.016-19.19-1.425-3.13-3.28.98-3.358 1.19-4.278 10.64-6.98 19.65-3.34 29.02 2.07 5.19 9.172 9.96 15.91 10.38-.422-6.67-.89-14.9-3.195-21.4zm-21.64-31.49c-4.923 2.22-4.853 8.55-6.915 12.48-1.942 3.84-6.133 9.13-4.414 14.17 9.504-5.33 13.906-14.83 11.328-26.65zm-16.388 39.31c-11.337 9.32-12.325 24.22-19.864 35.62 8.332 5.33 22.383 4.26 26.7-6.29 3.456-8.48 5.976-20.94-2.626-27.41-.93-.69-3.137-2.81-4.21-1.92zm-42.247 76.85c-1.7 2.43-5.066 9.43-2.5 10.32 20.274 6.98 35.488 7.21 39.824-14.49 3.067-15.48-7.5-28.77-22.324-23.36-4.258 1.58-8.465 18.07-15 27.53zm-29.5 48.99c-1.418 1.79-2.578 7.18-.812 8.56 10.548 8.48 26.036 9.13 38.028 7.96 15.8-1.44 19.055-16.14 16.418-28.32-3.488-16.04-27.805-18.04-34.7-15.37-6.757 2.6-11.484 17.94-18.933 27.17zm3.445 57.03c13.653 8.86 39.786 15.43 44.14-8.56 1.31-7.23-.487-16.83-10.253-19.97-10.04-3.22-21.855-6.69-31.015-2.97-11.27 4.61-13.485 24.65-2.872 31.5zm-14.168 40.36c1.024 4.6 6.133 6.78 10.418 7.88 11.055 2.72 23.43 6.85 33.575.38 3.965-2.5 4.27-6.04 4.785-11.02.898-8.07-.254-14.66-5.567-17.74-10.768-6.32-21.737-6.89-34.256-4.43-10.157 2.01-10.977 15.47-8.954 24.93zm-11.34-62.21c-9.472 7.01-13.652 16.91-20.632 26.72-1.692 2.4 0 3.39 1.297 3.76 16.797 4.75 29.277-3.63 26.66-21.96-.47-3.56-2.793-11.85-7.324-8.52zm-46.386 56.61c-6.29 5.45-1.914 14.92 3.574 17.68 9.61 4.77 24.707 5.49 34.707 2.12 6.426-2.16 9.68-11.39 8.527-21.47-.48-4.12-1.75-8.67-3.76-10.01-7.618-5.19-19.396-5.4-28.654-3.47-6.55 1.39-8.886 10.35-14.394 15.15zm-7.254 57.25c6.082 13.25 28.31 13.36 40.398 7.46 9.864-4.85 11.094-23.19.332-30.42-8.582-5.72-22.11-3.62-31.21-1.95-12.938 2.38-13.965 15.1-9.52 24.91zm.496 49.61c9.22 8.77 21.184 4.75 32.305 3.21 2.15-.31 4.708-1.82 6.173-3.27 7.59-7.67 8.183-20.24-.262-26.53-9.757-7.25-21.925-2.53-33.644-1.94-3.164.12-6.64 3.84-7.363 6.22-2.11 7.42-3.398 16.49 2.793 22.31zm5.938 41.49c9.804 4.09 26.64 5.97 33.574-5.03 4.27-6.74 3.027-19.22-3.81-21.03-6.698-1.73-29.452-5.51-34.9 7.07-2.704 6.2-1.564 16.17 5.136 18.99zm30.168 35.25c2.84-1.25 4.597-3.52 5.273-7 1.395-7.55-.598-15.75-7.844-17.08-10.885-1.98-27.05-2.61-26.99 12.78.038 17.17 16.952 16.98 29.562 11.3zm-21.926 31.93c5.8 2.21 15.332 1.72 20.54-.99 2.624-1.37 6.15-5.68 4.667-10.22-1.848-5.93-7.363-8.07-13.625-8.15-6.024-.05-12.93.43-15.36 5.34-2.316 4.66-1.328 12.04 3.778 14.02zm6.777 25.74c5.293 1.93 13.125 1.8 16.973-2.38 5.312-5.79 1.125-15-8.887-14.54-3.517.15-7.696 1.36-9.825 2.57-5.164 2.92-3.457 12.5 1.738 14.35zm23.81 16.59c.682 2.23 4.16 4.84 5.975 5.49 3.977 1.41 8.633 1.7 12.434.19 7.605-3.13 6.55-12.53-1.555-15.83-3.633-1.47-9.22-2.43-11.953-1.47-5.117 1.73-6.543 6.17-4.902 11.62zm23.682-36.76c-8.293-2.43-19.855-2.9-22.324 5.6-4.21 14.42 14.005 16.58 23.446 13.56 6.516-2.07 8.81-16.31-1.12-19.16zm5.49 47.62c2.624 8.94 12.76 13.79 21.932 11.06 7.88-2.31 9.707-13.06 4.383-18.29-2.422-2.34-6.406-4.73-10.703-5.68-9.395-2.1-18.613 3.07-15.613 12.91zm41.256-32.79c-1.483-5.83-5.768-9.83-12.616-11.35-6.816-1.5-16.22-1.92-19.988 2.28-3.606 3.99-5.254 9.59-2.258 13.88 6.027 8.56 17.05 11.55 26.875 9.38 5.606-1.31 9.727-7.05 7.988-14.19zm-3.67 34.31c3.67 8.11 12.96 12.19 21.886 9.47 1.785-.58 5.47-3.45 5.977-6.29 1.062-5.64-.9-10.79-5.606-13.74-6.035-3.85-11.027-6.01-17.95-3.17-5.206 2.18-6.475 8.94-4.307 13.73zm38.437-22.78c4.082-6.9-2.13-13.83-5.273-15.73-6.993-4.09-16.836-6.6-21.055.33-4.142 6.79-.704 14.86 6.515 17.84 6.894 2.86 14.03 7.2 19.812-2.44zm11.594-26.36c4.56-3.78 8.563-11.7 3.095-17.97-5.137-5.91-11.512-7.68-19.59-8.98-5.45-.93-12.43 3.11-13.32 7.93-.8 4.15-1.563 11.72 2.55 15.21 8.016 6.83 18.777 10.79 27.266 3.81zm9.677 44.98c4.308-1.28 7.062-5.84 4.902-10.23-1.31-2.7-5.185-5.65-7.657-7.15-6.758-4.18-12.56-2.46-14.688 2.51-3.887 9.15 9.22 17.29 17.442 14.87zm16.503-22.8c4.75-.42 6.93-3.73 7.86-7.36 1.23-4.87-.38-9.38-4.48-12.14-4.903-3.25-10.997-5.17-15.868-5.24-6.594-.12-12.707 9.56-9.133 15.84 3.788 6.74 13.312 9.62 21.62 8.9zm27.28-34.89c2.8-8.28-3.27-12.14-9.66-15.54-6.51-3.47-15.23-6.71-19.748-2.39-5.762 5.43-8.33 14.58-1.895 20.6 8.903 8.36 25.403 14.65 31.303-2.67zm11.77-20.77c10.46-1.33 12.53-16.2 10.42-21.58-2.38-4.62-7.65-8.24-10.42-9.66-7.67-3.95-16.64-5.45-23.7-1.8-6.42 3.34-9.2 13.09-5.72 20.73 4.74 10.34 19.64 13.6 29.42 12.31zm21.52-46.04c3.58-5 2.79-13.88.67-16.66-6.59-9.01-24.96-14.16-32.53-10.47-5.76 2.82-11.44 15.5-4.7 23.11 7.01 7.9 19.21 12.61 30.31 10.3 2.46-.55 4.09-3.27 6.25-6.28zm4.65-28.37c5.03-.54 9.51-6.08 11.93-12.11 3.16-7.8-.04-16.89-2.53-18.59-6.02-4.09-25.09-15.57-37.08-8.69-6.6 3.79-8.42 12.44-8.83 17.55-1.33 16.51 23.71 23.27 36.51 21.84zm-70.403-118.09c-2.57 6.55-4.942 16.24.203 20.22 10.39 8.2 33.89 15.37 42.83 2.97 5.81-8.05 4.1-21.7-6.07-26.92-10.51-5.37-31.037-11.54-36.963 3.73zm-50.41-.72c10.43 5.3 25.457 11.7 36.687 4.46 5.137-3.29 10.442-16.96 6.817-23.02-7.695-12.87-27.968-16.15-40.84-12.84-10.976 2.85-14.277 25.53-2.663 31.4zm-9.387 44.49c12.598 8.85 37.44 14.57 43.43-4.78 1.55-5.01 2.44-10.56-.13-14.61-6.972-11.21-24.648-14.16-36.484-12.49-12.812 1.85-18.847 23.43-6.816 31.88zm-10.586 45.08c12.09 6.85 37.852 15.96 43.926-3.68 2.422-8.03 2.187-17.94-4.695-21.49-9.856-5.16-25.46-10.58-36.81-3.5-9.48 6-10.76 23.89-2.42 28.67zm67.676 81.02c-5.06-4.52-10.203-5.49-16.942-7.78-9.445-3.2-19.308 4.07-20.402 13.1-1.816 15.46 14.746 17.76 25.703 19.69 7.988 1.45 12.94-5.73 14.413-10.56 1.504-4.64 1.31-10.86-2.773-14.45zm20.31-36.37c-7.18-10.71-36.17-17.45-42.556-6.43-4.668 8.07-7.578 19.39 1.203 24.8 9.207 5.66 20.137 9.05 30.863 7.12 10.08-1.78 15.2-18.36 10.49-25.49zm15.44-66.33c4.13-6.56 7-15.37.89-23.52-5.56-7.45-25.37-10.94-35.527-8.48-5.566 1.4-8.19 8.16-9.043 12.73-1.172 6.17-1.738 12.38 3.73 17.41 7.852 7.2 18.34 7.04 28.41 7.04 4.13 0 9.99-2.68 11.54-5.18zm-5.75 22.26c-6.17-11.34-27.09-12.8-36.492-11.55-6.633.89-11.29 11.57-11.094 20.51.066 4.6 1.492 7.64 4.637 9.33 10.45 5.6 21.133 9.35 32.38 7.53 10.96-1.74 15.22-17.22 10.57-25.82zm-110.078 24.42c-7.11 21.89 20.226 28.79 36.172 25.41 11.113-2.31 14.816-23.65 4.484-30.39-12.785-8.31-35.48-10.99-40.656 4.98zm-41.21-53.73c8.182 8.45 22.968 8.98 34.51 7.43 7.09-.99 10.137-8.15 11.126-15.92 2.76-21.38-25.938-24.98-39.602-19.98-8.992 3.29-13.672 20.58-6.035 28.47zm-5.782 41.43c8.566 10.07 22.882 12.46 34.738 9.2 7.234-1.97 10.594-10.43 10.418-19.91-.137-5.38-3.828-9.29-7.13-10.65-8.437-3.42-18.17-5.96-27.37-4.84-11.34 1.39-18.215 17.27-10.656 26.2zm1.367 45.1c10.527 4.29 30.136 8.14 33.45-6.9 4.46-20.02-19.173-23.28-31.798-19.8-9.67 2.65-11.505 22.72-1.653 26.7zm75.722 33.09c7.87-4.47 9.523-17.08 4.726-24.39-6.367-9.67-28.125-15.27-39.844-6.81-6.68 4.85-10.273 24.72 3.418 29.49 10.93 3.83 21.406 7.54 31.7 1.71zm-11.153 14.38c-8.934-5.52-21.66-7.72-30.098-3.02-7.344 4.02-7.07 14.75-3.42 20.52 5.978 9.62 20.853 10.66 31.134 7.64 8.86-2.56 12.18-19.04 2.383-25.14zm-72.285 15.68c.898 2.86 2.168 3.68 3.945 4.55 7.512 3.58 15.754 4.54 22.942-.07 5.182-3.36 4.725-11.11.885-15.12-5.625-5.91-17.05-6.15-24.355-2.31-4.727 2.47-4.95 8.29-3.418 12.95zm2.402-31.34c3.32 9.48 15.137 8.95 24.102 7.79 11.015-1.44 13.222-15.56 9.316-21.5-5.41-8.2-17.762-6.63-27.586-5.38-8 1.02-8.468 11.61-5.832 19.09zm155.506-285.21c2.71-10.71 0-20.89-9.53-24.3-12.253-4.32-28.816-10.65-38.612-4.05-11.192 7.51-16.583 28.81-3.72 37.16 15.204 9.94 45.442 16.45 51.862-8.81zm-16.51 33.3c-8.234-9.35-21.672-9.04-34.855-12.91-5.098-1.47-11.133 3.02-13.79 7.68-4.863 8.7-9.745 20.36-.41 28.77 7.735 7.05 18.282 6.45 27.755 9.28 4.25 1.28 9.453 2.77 14.62-.72 10.67-7.29 14.83-22.91 6.68-32.1zm87.3 140.15c2.33-6.81 5.44-11.8 2.81-18.58-3.15-8.33-11.22-9.47-18.8-12.21-7.07-2.56-18.86-5.79-24.78.4-6.81 7.04-9.55 21.39-1.4 27.54 10.54 7.86 36.6 18.71 42.17 2.85zm143.3 61.18c6.23 25.39 13.96 51.14 15.89 77.97 2.85 40.07-5.8 81.73-31.5 112.08 2.53-13.09 5.88-24.14 7.64-37.88 2.09-16.59-.26-35.07-4.53-51.77-3.25-12.64-8.94-24.93-14.59-36.67-6.67-13.91-16.64-29.04-26.56-41.45-27.8-34.58-71.13-102.07-71.13-102.07s-3.64.26-5.79.26c-.51 8.41 19.44 37.22 29.51 53.35 22.09 35.35 38.83 54.37 58.04 85.03 12.04 19.32 21.23 42.84 24.19 64.16 5.98 43.43-17.43 95.48-51.1 112.79 7.7-32.44 6.9-78.17-10.39-97.4-32.68-36.43-52.12-63.69-75.45-110.39-.66-1.25-6.13 6.3-10.63 9.23-5.07 3.36-2.24 13.37-4.05 20.11-1.64 5.73-4.34 10.15-5.14 11.15-6.9 8.46-13.58 8.99-15.03 11.53-1.68 2.86-.87 10-6.9 18.13-3 4.1-10.67 7.13-13.79 10.97-3.38 4.2-4.91 17.05-14.22 22.32-4.417 2.48-6.468 10.19-10.714 13.97-13.086 11.59-26.145 9.35-28.653 10.08-3.37.9-9.933 9.27-21.632 11.28-11.445 1.95-17.734-5.68-23.67-2.92-14.892 6.89-29.16 7.46-44.982-10.18-4.746-5.25-12.968-.34-23.21-8.18-8.997-6.86-9.173-13.2-13.75-14.06-8.606-1.62-15.032-8.51-18.352-16.03-1.72-3.87-3.016-11.7-4.024-16.86-1.406-7.13-5.02-13.69-5.078-18.93-.086-7.28 2.207-11.21 1.563-14.47-1.055-4.71-4.87-9.04-5.332-13.44-.352-2.5-.567-9.16 1.25-12.91 2.297-4.62-1.602-8.63-3.633-13.56-1.934-4.58-3.965-12.42-3.34-17.95.82-7.59 5.156-10.37 1.777-16.35-5.528-9.72-12.528-24.88-.262-44.25 2.254-3.54-5.137-10.43-5.56-20.54-.468-11 6.173-19.13 7.99-24 .35-1.75-2.92-1.65-3.036-3.53-29.23 30.9-55.07 59.39-88.957 86.22-20.703 16.36-41.172 30.12-64.1 42.4-61.29 32.87-132.5 54.86-196.994 46.82 24.28-19.55 54.943-33.5 79.884-55.71 23.645-21.06 45.098-39.04 66.62-61.41 33.802-35.11 61.263-70.7 89.876-112.01 8.496-12.23 14.09-20.41 22.012-33.17 7.977-12.76 16.844-26.31 24.102-38.96 36.61-63.58 66.61-122.44 96.98-187.59 8.418-18.01 15.508-36.87 23.762-54.78 2.215-4.86 5.38-1.25 7.605 0 10.978 6.35 22.658 11.66 34.056 17.04 9.09 4.18 17.37 7.06 25.508 10.18 20.535 7.83 40.027 12.08 61.55 16.55 35.916 7.52 100.436 5.97 100.436 5.97l122.34.04h3.34c-1.28 35.07-9.61 69.15-11.64 104.32-1.54 28.5-.6 56.04.41 84.59 2.73 77.36 14.1 160.4 31.39 230.88M395.14 2295.16c-23.867-23.8-30.995-32.57-44.91-58.88-8.195-15.47-18.605-35.33-21.574-60.93 49.043 18.67 89.063 56.78 125.235 98.87 26.75 31.2 47.5 72.6 73.887 103.42-46.472-15.58-95.507-45.52-132.636-82.48"></path><path d="M254.71 2228.25c18.497 31.24 44.98 65.01 72.442 88.05-12.714-28.57-28.38-56.87-33.77-90.66-10.663-67.27-20.74-114.39-31.902-175.79 30.508 21.76 62.684 55.95 95.028 79.81 25 18.37 50.058 30.64 75.762 48.3 15.273 10.55 25.234 24.09 37.95 36.77-15.146-63.84-71.173-128.27-111.28-158.31-50.38-37.79-68.448-43.81-149.424-126.15-10.274 101.67-8.446 207.33 45.195 297.98"></path><path d="M89.527 1890.59c3.77 52.8 10.106 95.02 22.93 146.52 8.984 35.97 28.34 89.51 56.238 111.47-3.418-13.04-5.215-32.6-6.523-45.79-5.47-54.4 4.94-117.58 6.183-171.91.614-26.72.38-47.31-3.613-72.41-4.14-26.33-.695-58.62-.695-58.62s14.433 16.47 27.305 36.99c28.144 44.7 37.168 57.97 59.843 82.19 28.125 30.05 59.59 57.88 95.117 82.52-4.277-16.69-22.42-49.16-29.92-62.21-10-17.45-14.54-33.32-38.212-72.85-33.313-55.55-48.157-63.04-85.137-122.45-8.008-12.92-40.852-62.06-48.81-77.08-17.323 35.86-23.858 67.19-45.116 125.56-13.35 36.68-11.36 73.37-9.59 98.07"></path><path d="M38.09 1615.92C18.012 1668 8.805 1716.32 1.996 1771.15c-4.16 33.55-2.226 78.26 9.746 110.52 3.145-7.87 9.55-27.87 10.41-30.86 8.907-29.96 12.637-44.35 25.09-73.25 9.52-22.16 21.16-39.83 33.62-61.73 11.33-19.99 20.9-46.31 29.095-66.45 26.375-64.57 28.32-125.02 38.406-131.62 7.266 15.54 9.532 30.42 10.352 37.75 7.832 71.45 17.246 136.39 107.226 220.6 8.255-25.07 4.064-71.28-.897-96.03-10.75-54.12-19.44-80.11-43.28-132.56-12.6-27.62-29.415-68.27-34.025-81.73-12.078-35.07-16.218-53.46-23.816-74.19-42.48 70.78-94.758 143.87-125.832 224.32"></path><path d="M108.13 1290.31c-30.255 42.09-41.27 63.25-60.958 108.07-16.524 37.59-21.277 51.53-30.957 93.63-5.293 22.95-8.28 43.77-4.168 57.34 23.68-42.87 39.832-90.85 70.81-126.41 24.588-28.21 48.28-52.24 67.823-76.04 29.988-36.59 53.6-71.22 82.382-109.3 2.43 19.08 3.368 38.44-.93 69.71-5.847 42.87-2.245 78 5.247 119.5 9.48 52.65 16.444 78.71 34.714 131.98 22.344-43.83 22.258-94.54 27.87-141.03 10.82-90.2-17.39-197.76-22.948-242.6-1.485-11.82.566-40.96 1.164-52.33-42.2 33.25-79.74 66.8-116.145 103.3-16.582 16.55-39.336 43.95-53.906 64.18"></path><path d="M268.11 959.53c-19.22 13.83-70.848 53.3-95.294 84.36-35.605 45.19-43.437 64.57-66.92 116.58-2.884 6.35-16.166 35.78-17.26 55.78 76.954-92.91 145.84-106.74 219.24-183.85 26.933-28.24 54.51-54.822 69.062-68.138 11.17-10.293 25.05-13.403 25.05-13.403s-1.445 19.812-8.69 33.57c-48.966 93.6-58.216 191.45-50.782 296.47 22.35-27.68 29.402-46.15 43.582-72.91 15.43-29.16 23.3-47.19 30.507-65.12 41.907-104.29 52.813-224.74 78.692-285.37-79.902 26.922-142.832 41.31-227.188 102.03"></path><path d="M595.824 713.44c-21.61-1.47-63.984-1.33-86.582 2.34-114.394 18.322-220.722 101.208-274.22 192.29 48.498-29.59 83.568-49.36 126.212-64.12 37.99-13.13 74.016-17.02 137.422-35.02 38.262-10.8 76.145-26.12 89.453-31.102 42.42-15.797 60.273-11.906 60.273-11.906s0 6.437-15.84 23.726c-31.582 34.454-43.145 42.704-69.12 69.18-8.536 8.75-28.075 38.48-37.997 58.242-28.078 55.88-31.192 100.69-56.828 162.07 93.554-54.94 139.12-130.742 188.593-226.33 15.208-29.25 35.775-63.06 54.572-81.662 12.636-12.457 30.44-31.398 30.44-31.398s-13.046-3.09-53.663-9.078c-18.224-2.66-57.052-14.75-92.716-17.23M1049.31 706.172c49.39-8.063 93.27-20.07 138.19-35.492 12.08-4.14 30.44-13.282 43.17-19.72 31.83-16.19 50.16-26.722 77.52-45.53 44.06-30.352 91.4-63.05 134.12-112.668.91-.98 7.81-8.364 3.21-11.96-8.37-6.564-28.99-15.904-35.85-9.84-39.08 34.737-37.11 45.878-84.47 88.768-12.15 10.942-30.49 26.29-52.4 41.29-21.38 14.628-47.22 30.6-71.22 42.44-21.83 10.74-55.42 13.938-74.29 13.938l.25-.128c-8.56.332-57.83.6-69.23-.14-96.81-6.618-92.076-15.29-147.896-30.41-45.898-12.482-95.156-21.392-144.043-27.95-50.097-6.8-94.91-7.622-141.862-2.83-63.645 6.56-133.274 24.298-185.246 57.79 47.52-.8 96.308-9.94 143.574-6.308 19.883 1.527 52.16 4.527 74.004 11.27 43.418 13.32 68.34 18.538 114.316 31.347 39.512 11 79.348 14.812 120.606 19.14 57.11 6.11 109.998 4.75 157.548-3.008M1934.52 2295.16c23.87-23.8 31.02-32.57 44.94-58.88 8.2-15.47 18.61-35.33 21.58-60.93-49.09 18.67-89.07 56.78-125.26 98.87-26.77 31.2-47.49 72.6-73.87 103.42 46.47-15.58 95.5-45.52 132.61-82.48"></path><path d="M2074.98 2228.25c-18.52 31.24-44.99 65.01-72.45 88.05 12.85-30.74 31.57-69.04 33.76-90.66 6.83-67.74 20.75-114.39 31.92-175.79-30.5 21.76-62.72 55.95-95.06 79.81-24.94 18.37-50.02 30.64-75.7 48.3-15.32 10.55-25.27 24.09-37.98 36.77 15.14-63.84 71.16-128.27 111.28-158.31 50.37-37.79 68.43-43.81 149.37-126.15 10.28 101.67 8.46 207.33-45.14 297.98"></path><path d="M2240.16 1890.59c-3.81 52.8-10.08 95.02-22.93 146.52-8.98 35.97-28.34 89.51-56.29 111.47 3.46-13.04 5.23-32.6 6.56-45.79 5.52-54.4-4.88-117.58-6.17-171.91-.61-26.72-.39-47.31 3.59-72.41 4.15-26.33.72-58.62.72-58.62s-14.42 16.47-27.33 36.99c-28.09 44.7-37.11 57.97-59.85 82.19-28.1 30.05-59.6 57.88-95.13 82.52 4.33-16.69 22.46-49.16 29.96-62.21 10.04-17.45 14.53-33.32 38.22-72.85 33.3-55.55 48.14-63.04 85.1-122.45 8-12.92 40.89-62.06 48.84-77.08 17.35 35.86 23.86 67.19 45.12 125.56 13.39 36.68 11.39 73.37 9.59 98.07"></path><path d="M2291.59 1615.92c20.08 52.08 29.26 100.4 36.11 155.23 4.16 33.55 2.2 78.26-9.75 110.52-3.14-7.87-9.53-27.87-10.42-30.86-8.93-29.96-12.63-44.35-25.05-73.25-9.54-22.16-21.24-39.83-33.67-61.73-11.32-19.99-20.88-46.31-29.12-66.45-26.34-64.57-28.29-125.02-38.38-131.62-7.28 15.54-9.54 30.42-10.33 37.75-7.85 71.45-17.26 136.39-107.23 220.6-8.28-25.07-4.08-71.28.84-96.03 10.81-54.12 19.54-80.11 43.33-132.56 12.59-27.62 29.42-68.27 34.06-81.73 12.01-35.07 16.17-53.46 23.83-74.19 42.44 70.78 94.72 143.87 125.78 224.32"></path><path d="M2221.57 1290.31c30.27 42.09 41.26 63.25 60.93 108.07 16.53 37.59 21.26 51.53 30.98 93.63 5.29 22.95 8.26 43.77 4.14 57.34-23.61-42.87-39.86-90.85-70.83-126.41-24.54-28.21-48.23-52.24-67.78-76.04-29.96-36.59-53.64-71.22-82.38-109.3-2.41 19.08-3.38 38.44.87 69.71 5.9 42.87 2.29 78-5.19 119.5-9.49 52.65-16.45 78.71-34.71 131.98-22.32-43.83-22.26-94.54-27.88-141.03-10.86-90.2 17.43-197.76 22.98-242.6 1.45-11.82-.6-40.96-1.19-52.33 42.2 33.25 79.74 66.8 116.13 103.3 16.59 16.55 39.3 43.95 53.93 64.18"></path><path d="M2061.6 959.53c19.19 13.83 70.83 53.3 95.26 84.36 35.61 45.19 43.46 64.57 66.93 116.58 2.84 6.35 16.18 35.78 17.26 55.78-76.94-92.91-145.84-106.74-219.24-183.85-26.92-28.24-54.48-54.822-69.05-68.138-11.17-10.293-25.04-13.403-25.04-13.403s1.43 19.812 8.65 33.57c48.99 93.6 58.23 191.45 50.76 296.47-22.27-27.68-29.37-46.15-43.54-72.91-15.4-29.16-23.29-47.19-30.48-65.12-41.93-104.29-52.88-224.74-78.76-285.37 79.97 26.922 142.88 41.31 227.25 102.03"></path><path d="M1733.85 713.44c21.66-1.47 64.01-1.33 86.62 2.34 114.4 18.322 220.7 101.208 274.19 192.29-48.54-29.59-83.6-49.36-126.22-64.12-38.01-13.13-74-17.02-137.38-35.02-38.3-10.8-76.17-26.12-89.49-31.102-42.41-15.797-60.28-11.906-60.28-11.906s0 6.437 15.84 23.726c31.59 34.454 43.17 42.704 69.11 69.18 8.55 8.75 28.1 38.48 38.01 58.242 28.08 55.88 31.2 100.69 56.87 162.07-93.56-54.94-139.22-130.742-188.65-226.33-15.18-29.25-35.75-63.06-54.52-81.662-12.61-12.457-30.46-31.398-30.46-31.398s13.04-3.09 53.7-9.078c18.19-2.66 57-14.75 92.66-17.23M1280.38 706.172c-49.39-8.063-93.24-20.07-138.19-35.492-12.12-4.14-30.45-13.282-43.17-19.72-31.84-16.19-50.13-26.722-77.51-45.53-44.104-30.352-91.377-63.05-134.123-112.668-.926-.98-7.86-8.364-3.223-11.96 8.38-6.564 29.024-15.904 35.813-9.84 39.1 34.737 37.117 45.878 84.523 88.768 12.09 10.942 30.43 26.29 52.39 41.29 21.42 14.628 47.18 30.6 71.22 42.44 21.78 10.74 55.45 13.938 74.28 13.938l-.28-.128c8.6.332 57.84.6 69.27-.14 96.83-6.618 92.06-15.29 147.85-30.41 45.94-12.482 95.19-21.392 144.09-27.95 50.05-6.8 94.91-7.622 141.85-2.83 63.66 6.56 133.26 24.298 185.21 57.79-47.48-.8-96.24-9.94-143.56-6.308-19.9 1.527-52.13 4.527-73.98 11.27-43.42 13.32-68.35 18.538-114.3 31.347-39.52 11-79.36 14.812-120.6 19.14-57.12 6.11-110.01 4.75-157.56-3.008M1103.65 2834.64l-86.97-322.87h-92.3l-57.735 210.33-56.465-210.33h-92.078l-86.946 322.87h86.895l49.532-222.26 59.59 222.26h83.047l56.534-222.26 51.996 222.26h84.9M1390.51 2772.2h-148.53v-60.08h137.69v-62.44h-137.69v-137.91h-82.81v322.87h231.34v-62.44M1628.38 2730.88c0 9.08-2.46 16.9-7.36 23.46-4.92 6.57-10.62 11.14-17.13 13.74-8.68 3.46-17.13 5.37-25.37 5.74-8.24.35-19.24.54-32.97.54h-14.3v-96.5h23.84c14.17 0 25.84.87 35.03 2.6 9.18 1.73 16.88 5.2 23.09 10.39 5.35 4.6 9.22 10.13 11.6 16.55 2.38 6.41 3.57 14.24 3.57 23.48zm86.1 1.85c0-14.46-2.54-28.59-7.6-42.4-5.06-13.81-12.29-25.41-21.68-34.79-12.87-12.74-27.22-22.34-43.05-28.85-15.82-6.51-35.52-9.76-59.08-9.76h-51.82v-105.16h-83.28v322.87h137.05c20.53 0 37.84-1.77 51.93-5.31 14.09-3.55 26.57-8.85 37.41-15.94 13.01-8.53 22.95-19.44 29.81-32.75 6.87-13.3 10.31-29.26 10.31-47.91M529.32 257.87L471.273 70.55h-63.75L369.36 196.82 331.644 70.55H267.27l-57.54 187.32h62.99l32.147-129.1 39.96 129.1h53.216l37.996-129.1 31.632 129.1h61.648M679.77 286.06h-4.493c-2.656.78-6.113 1.678-10.39 2.67-4.266 1-8.848 1.508-13.73 1.508-11.747 0-19.708-2.11-23.868-6.347-4.15-4.218-6.23-12.402-6.23-24.51v-1.51h46.202V217.17h-44.2V70.55h-60.226V217.17h-25.684v40.703h25.684v5.18c0 22.89 6.094 40.08 18.28 51.54 12.17 11.45 30.607 17.172 55.294 17.172 8.887 0 16.953-.293 24.18-.922 7.226-.602 13.625-1.41 19.18-2.4v-42.38M819.145 165.55c0 18.2-3.106 31.42-9.317 39.63-6.21 8.218-16.035 12.32-29.453 12.32-5.664 0-11.484-.86-17.47-2.578a73.185 73.185 0 0 1-17.14-7.402v-94.102c3.985-1.56 8.262-2.56 12.813-3.008 4.55-.43 9.043-.66 13.477-.66 15.86 0 27.687 4.648 35.45 13.898 7.765 9.282 11.64 23.25 11.64 41.903zm61.894 1.25c0-15.448-2.364-29.51-7.09-42.21-4.716-12.668-10.907-23.12-18.575-31.352-7.988-8.668-17.05-15.226-27.148-19.68-10.106-4.456-20.938-6.66-32.49-6.66-10.655 0-19.717 1.133-27.16 3.41-7.44 2.27-15.038 5.473-22.81 9.57V1.84H685.55v256.03h60.216v-19.51c9.21 7.32 18.625 13.28 28.234 17.85 9.598 4.552 20.684 6.84 33.23 6.84 23.32 0 41.458-8.58 54.395-25.69 12.94-17.122 19.414-40.64 19.414-70.56M909.496 70.55h62.383v65.56h-62.384zM1131.27 118.602c3.89 4.777 6.82 10.54 8.75 17.257 1.96 6.718 2.93 16.038 2.93 27.93 0 11.02-.99 20.23-3 27.698-2 7.442-4.79 13.39-8.34 17.852-3.56 4.55-7.84 7.77-12.85 9.672-5.01 1.886-10.4 2.828-16.18 2.828-5.78 0-10.91-.78-15.43-2.328-4.51-1.563-8.81-4.68-12.93-9.352-3.67-4.32-6.58-10.28-8.75-17.828-2.16-7.562-3.25-17.07-3.25-28.543 0-10.23.95-19.1 2.83-26.6 1.89-7.5 4.67-13.542 8.33-18.112 3.58-4.308 7.83-7.476 12.78-9.488 4.94-2.012 10.58-3.012 16.93-3.012 5.44 0 10.65.922 15.59 2.762 4.94 1.832 9.16 4.922 12.59 9.262zm73.89 45.54c0-30.822-8.98-55.083-26.93-72.814-17.97-17.726-43.17-26.597-75.65-26.597-32.47 0-57.68 8.872-75.64 26.598-17.96 17.73-26.94 41.992-26.94 72.813 0 31.02 9.03 55.372 27.11 73.05 18.07 17.67 43.23 26.52 75.47 26.52 32.7 0 57.96-8.878 75.8-26.698 17.86-17.774 26.78-42.07 26.78-72.87M1366.9 200.672h-5.33c-2.56.867-6.66 1.558-12.33 1.988-5.65.45-10.37.66-14.14.66-8.54 0-16.08-.55-22.63-1.66-6.55-1.11-13.6-3.012-21.14-5.66V70.55h-60.21v187.32h60.21v-27.518c13.21 11.347 24.69 18.867 34.45 22.597 9.76 3.73 18.76 5.59 26.96 5.59 2.11 0 4.49-.06 7.17-.16 2.65-.118 4.99-.29 6.99-.51v-57.198M1505.77 129.61v84.902c-3.44 1.43-7.66 2.578-12.66 3.398-4.99.84-9.48 1.27-13.48 1.27-15.76 0-27.57-4.532-35.45-13.61-7.87-9.05-11.81-21.7-11.81-37.93 0-18.01 3.36-30.59 10.08-37.7 6.7-7.13 16.66-10.678 29.86-10.678 6 0 11.87.937 17.64 2.828 5.77 1.898 11.05 4.398 15.82 7.52zm60.21-37.54c0-17.558-2.5-32.36-7.51-44.35-5.01-12.04-12-21.43-21.02-28.208-9.01-6.89-19.87-11.87-32.6-14.922-12.74-3.07-27.11-4.59-43.13-4.59-13 0-25.82.78-38.43 2.352-12.63 1.54-23.56 3.43-32.79 5.66V54.88h7.34c7.32-2.892 16.26-5.52 26.81-7.93 10.55-2.38 19.98-3.59 28.31-3.59 11.11 0 20.13 1.038 27.07 3.09 6.95 2.07 12.24 4.98 15.9 8.77 3.45 3.55 5.95 8.1 7.49 13.67 1.57 5.56 2.35 12.22 2.35 20.02v3.488a89.486 89.486 0 0 0-24-14c-8.77-3.457-18.54-5.18-29.31-5.18-26.22 0-46.44 7.89-60.65 23.704-14.22 15.777-21.32 39.797-21.32 72.047 0 15.452 2.17 28.8 6.5 40.042 4.32 11.226 10.44 21.008 18.32 29.347 7.33 7.77 16.36 13.85 27.07 18.16 10.71 4.36 21.69 6.53 32.91 6.53 10.11 0 19.29-1.19 27.57-3.6 8.27-2.4 15.8-5.68 22.57-9.92l2.17 8.34h58.38V92.07M1781.25 330.102l-132.28-313.59h-51.19l131.74 313.59h51.73M1894.82 283.71h-63.8v45.35h63.8zm0-216.48c0-21.04-6.49-37.46-19.43-49.26-12.97-11.798-29.63-17.7-50.02-17.7-10.85 0-20.75.468-29.65 1.41-8.93.96-15.43 1.922-19.52 2.91v42.87h4.63c3.32-1.108 7.46-2.05 12.43-2.83 4.97-.76 8.88-1.15 11.76-1.15 11.49 0 19.33 3.442 23.53 10.29 4.19 6.878 6.29 18.16 6.29 33.89v128.918h-35.39v40.55h95.37V67.232M2060.41 165.18c0 18.12-3.11 31.29-9.29 39.468-6.19 8.18-15.97 12.274-29.35 12.274-5.63 0-11.43-.863-17.4-2.563a72.716 72.716 0 0 1-17.07-7.39v-93.732c3.97-1.54 8.23-2.54 12.76-2.976 4.53-.43 9.01-.672 13.43-.672 15.8 0 27.57 4.63 35.31 13.85 7.74 9.24 11.61 23.138 11.61 41.74zm61.64 1.23c0-15.39-2.37-29.398-7.06-42.03-4.7-12.618-10.87-23.028-18.51-31.232-7.96-8.636-16.97-15.18-27.04-19.61-10.07-4.417-20.85-6.64-32.36-6.64-10.62 0-19.64 1.133-27.05 3.39-7.42 2.29-15 5.474-22.73 9.57V2.11h-59.98v255.02h59.98V237.7c9.18 7.302 18.55 13.22 28.12 17.77 9.58 4.532 20.61 6.82 33.11 6.82 23.22 0 41.29-8.538 54.18-25.59 12.89-17.07 19.34-40.487 19.34-70.288"></path></g></svg>