<svg xmlns="http://www.w3.org/2000/svg" viewBox="0 0 1408.6934 377.54666" height="377.547" width="1408.693"><defs><clipPath id="a"><path d="M0 0h10565v2831.56H0z"></path></clipPath></defs><g clip-path="url(#a)" fill="#fff" transform="matrix(.13333 0 0 -.13333 0 377.547)"><path d="M1340.51 2131.03c12.51 27.07 24.09 48.62 40.79 74.31 7.37 11.32 15.69 19.21 23.11 30.67-3.55 1.02-8.73-1.92-10.96-3.5-7.42-5.39-10.77-14.13-16.71-18.81-14.03-11.07-13.64-21.1-21-26.27-6.57-4.64-8.45-7.68-13.05-14.9-3.08-4.83-5.35-8.73-8.6-18.23-1.15-3.43-3.45-.4-8.93-7.94-7.18-9.81-10.4-20.39-13.38-32.25-.96-3.91-7.59-5.97-11.86-14.07-5.71-10.93-9.43-21.04-11.9-36.96-.62-3.69-6.86-6.25-11.16-16.53-3.05-7.23-5.24-8.82-7.91-22.45-1.64-8.31-5.42-9.51-9.69-21.56-3.3-9.21-3.43-18.06-4.58-30.09-.27-2.33-4.21-6.95-7.84-13.68-6.09-11.27-5.89-18.79-8.32-30.41-.92-4.21-5.63-9.77-10.17-27.8-3.98-15.97-.33-26.57-1.68-34.45-3.53-20.45-7.04-38.21-5.14-58.35.94-9.85 2.44-20.01 1.79-29.48-1.88-29.7-3.49-54.17-3.33-87.82.11-18.33 1.54-43.42 4.31-64.3 3.05-23.06 7.44-41.06 7.44-41.06h75.14s-2.93 43.45.96 89.18c2.3 27.42 8.83 56.48 14.76 76.89 7.5 26.03 12.18 39.51 26.37 73.86.3.75-.1 3.97-3.85.83-7.84-6.59-14.38-12.38-20.57-21.69-9.46-14.26-15.22-26-22.88-40.64-8.95-17.01-13.88-31.84-23.1-52.52-.56 14.92 1.87 29.12 4.89 42.87 3.11 14.04 5.58 25.16 9.98 37.26 7.84 21.35 15.43 39.17 27.99 59.03 7.28 11.47 16.58 21.77 26.02 30.33 11.29 10.31 21.73 19.39 33.55 29.49-12.42 6.4-28.96-6.96-32.27-7.64-17.47-3.41-24.58-19.62-29.94-21.83-7.64-3.2-12.07-7.88-17.38-14.33-4.08-4.85-5.3-12.33-9.59-14.98-7.12-4.45-12.36-11.16-17.26-20.5-2.01-3.87-7.49-22.13-13.6-19.79 10.43 61.93 32.29 120.01 67.38 171.7 22.26 32.77 46.46 60.89 82.13 86.1 4.69 3.33 5.61 4.89-.95 4.66-33.34-4.05-35.38-19.27-40.87-20.71-5.21-1.35-11.65-7.52-15.77-11.53-7.41-7.33-7.28-13.5-10.13-15.43-6.08-4.24-10.66-8.65-14.82-16.02-2.17-3.84-5.85-12.3-9.1-14.23-8.56-4.96-16.86-12.19-20.99-20-3.05-5.7-4.27-11.88-8.25-17.49-4.27-6.02-10.23-10.52-15.36-14.88 3.9 26.47 16.36 57.82 24.95 84.87 11.54 36.13 25.54 68.95 41.33 103.07M1417.22 1916.53c28.44 63.85 58.37 111.9 97.26 168.11 5.09 7.36 9.64 14.58 14.08 21.49 2 3.1 11.56 16.85 13.55 19.76 13.04 19.69 18.52 25.72 31.87 44.53 3.61 5.12 6.54 9.13 8.08 15.04 2.84 11.02-6.61 18.4-8.78 28.97-2.21 10.78-1.01 22.56 3.95 31.67 3.1 5.7 6.19 7.93 9.31 15.58 6.06 14.73 3.97 46.59 10.88 47.43-1.76-15.13-2.16-32.13.22-46.64 2.76-16.92 13.04-27.18 17.27-45.11 11.42 2.06 23.84 1.57 33.45.74 9.54-.81 21.61 1.83 31.4 5.19 13.26 4.52 24.27 12.78 37.79 15.98-11.5-11.06-27.73-15.2-41.32-23.59-5-3.15-9.71-7.29-13.05-12.46-5.48-8.5-9.79-16.64-18.35-20.38-15.2-6.62-28.24-3.48-45.57-6.7-25.76-26.54-50.01-62.63-72.38-100.59-56.73-95.96-104.03-195.36-131.54-297.29 9.51 17.74 18.6 34.89 28.9 51.77 11.38 18.74 24.18 37.08 38.13 55.47 32.66 43.05 64.97 80.62 101.17 120.18 29.22 31.96 61.25 58.76 96.96 81.18 47.19 29.57 105.41 50.28 156.57 39.6 5.81-1.35 14.13-2.91 17.77-6.74-64.12 8.98-121.55-13.42-164.4-47.74-33.86-27.07-62.39-54.57-91.39-90.27-14.98-17.21-28.45-36.12-41.84-54.45-14.01-19.27-26.44-39.55-38.76-59.83-41.55-68.6-73-141.25-96.12-216.51-.66-2.38-.81-4.78-1.47-7.15 1.11 1.68 2.73 3.52 3.82 5.25 31.12 50.6 68.55 99.44 115.96 132.21 4.13 2.83 8.46 8.25 9.56 12.54 5.13 20.08-10.18 29.74 11.01 57.52 4.86 6.37 11.5 8.7 16.09 14.63 8.67 13.4 15.74 37.41 23 43.86-3.65-15.63-12.61-32.14-14.53-48.25-2.03-17.69 2.49-32.15 3.28-50.89 12.52-1.71 22.2-7.01 32.03-10.04 15.28-4.77 24.45-3.56 39.57-2.25 6.45.55 18.15 4.32 25.11 2.9-14.62-7.99-34.35-6.52-49.3-14.15-10.45-5.35-13.48-13.27-27.91-16.05-12.84-2.5-23.63-1.16-31.98 3.13-6.49 3.27-11.56 4.63-17.39 1.85-15.56-7.48-26.18-18.02-38.7-30.66-29.08-29.26-52.82-61.92-74.97-104.74-5.85-11.4-11.12-22.65-16.13-34.25-2.46-5.66-8.58-21.34-8.58-21.34h-75.99s-.19 21.91.52 29.91c1.46 15.94 3.62 27.76 6.72 43.93 4.41 23.27 8.72 44.37 14.75 66.94 5.89 21.96 12.22 42.56 19.75 63.65 15.71 43.96 32.4 86.07 50.67 127.06M682.555 1324.69c27.734 22.68 48.265 35.81 75.957 52.32 11.246 6.72 28.258 14.33 41.336 20.26 47.984 21.69 111.464 37.66 171.27 38.77 1.085 0 1.015-.05 1.015-.05h445.907s-1.67.05 1.56.05c14.19 0 28.23-4.94 36.92-13.13 8.69-8.26 12.86-20.98 15.13-33.63 1.92-10.78.98-20.37-1.53-31.9-1.96-9.11-3.44-14.54-8.5-22.28-3.08-4.71-5.99-7.93-11.68-12.48-5.86-4.68-14.17-6.31-23.68-6.4-1-.04-3.12-.09-3.05-.08.1.08-521.565.08-521.565.08s-3.243.01-4.872.01c-34.144.12-70.093-1.62-103.835-6.03-25.844-3.53-51.743-7.55-76.723-14.06-31.504-8.23-61.836-19.61-92.117-30.9 16.785 22.3 36.16 41.24 58.457 59.45"></path><path d="M837.387 1502.1c27.398 19.79 60.66 36.03 90.125 47.31 14.95 5.66 34.812 11.93 50.593 15.87 19.063 4.8 40.965 8.4 58.835 8.93 5.38.15.79.04.79.04l382.45.04s8.2-.44 11.04-.99c7.18-1.55 12.99-4.49 15.39-6.02 5.94-3.8 13.39-11.81 17.3-18.14 9.93-16.35 11.68-34 8.47-52.36-3.68-20.98-19.62-44.87-41.24-45.46-3.76-.1-11.28 0-11.28 0h-414.23s-24.11-.47-35.122-.87c-20.375-.8-42.965-3.12-60.75-5.74-15.215-2.19-30.078-5.07-45.317-9.14-51.065-13.81-95.44-39.71-141.85-59.84 31.254 54.63 73.54 96.48 114.797 126.37M623.438 1242.16c66.488 39.28 146.582 54.78 219.886 57.23 1.742.09 5.223.19 5.223.19l571.743-.05s1.03 0 6.21.05c34.65.03 47.3-34.34 47.14-62.16-.07-9.14-1.62-18.49-4.16-24.76-3.29-8.19-6.94-14.88-12.89-21.33-2.12-2.34-9.78-7.73-13.17-8.56-7.93-1.94-17.67-1.72-17.61-1.72.07 0-425.27-.08-425.27 0 0 0-22.946.92-38.868 2.46-11.473 1.13-20.18 2.33-32.094 4.6-29.285 5.81-53.562 15.35-78.926 23.17-16.918 5.23-34.714 9.12-53.273 11.93-34.138 5.23-71.42 7.6-105.892 5-43.847-3.27-82.843-11.86-124.554-25.09 7.054 10.99 36.37 27.13 56.504 39.04"></path><path d="M931.395 1062.88c-19.543 6.9-38.614 15.78-55.72 27.08-22.284 14.75-33.21 26.48-62.007 39.78-24.648 11.4-44.328 22.63-78.69 35.08-16.583 6.01-43.447 14.27-66.482 18.23-32.906 5.59-64.633 8.03-64.633 8.03s6.72 4.19 10.77 5.44c33.586 10.21 63.25 15.21 97.738 17.76 30.247 2.27 58.036-.69 88.357-5.42 12.44-1.97 28.613-5.79 42.668-9.81 45.636-12.98 97.523-33.59 143.546-33.67 2.572 0 2.28.05 2.28.05h426.32c12.87.03 36.93-4.13 46.6-21.21 11.2-19.69 14.68-43.12 5.27-66.6-2.85-7.06-7.57-17.16-14.38-23.29-5.96-5.39-15.66-8.86-21.26-8.86-1.62-.08-4.39 0-4.39 0h-371.71-2.02c-38.01 0-85.853 4.6-122.255 17.41M1100.71 931.04c-10.51 10.8-25.01 27.34-38.15 43.03-25.22 30.09-36.52 57.18-36.52 57.18h247.92s.66-28.6-5.07-61.72c-5.36-30.76-16.72-63.178-28.8-86.67-.44-24.08 9.72-46.462 11.39-70.25-20.36-12.5-42.26-24.88-60.52-42.43-1.16-1.07-3.04-1.07-3.81 1.82-9.78 36.66-14.94 69.36-22.95 105.602-22.6 17.468-43.8 33.04-63.49 53.437M1356.21 951.37c-7.01 12.958-12.25 30.06-20.29 40.22-1.73-9.07.4-14.65-.83-23.328-1.13-7.274-7.1-4.25-8.3-.832-3.47 9.85-7.17 21.992-10.35 32.07-5.29 16.81-6.98 31.69-6.98 31.69l41.24.06s1.59-.39 2.32-4.41c1.97-10.39 1.49-20.54 4.34-32.578 3.65-15.512 8.36-29.672 14.06-44.133 4.95-12.732 11.35-25.57 16.55-38.208.7-1.66 1.05-4.852-.21-6.512-1.53-1.93-4.16-1.69-5.67 0-11.81 13.422-16.58 28.63-25.88 45.96M1420.05 921.898c-7.01 14.942-16.88 31.75-16.02 48.71 4.56-5.98 6.44-10.288 12.72-13.628 2.87-.898 8.89-.05 7.38 4.97-2.77 9.34-7.08 17.25-11.06 30.062-5.92 18.958-11.68 39.208-11.68 39.208l-42.09.03s2.34-17.08 11.91-43.29c8.4-23.222 21.39-49.78 35.61-74.68 11.58-20.48 22.11-38.35 35.25-53.31 4.5-5.138 15.54-.618 10.76 6.08-12.47 17.622-24.11 37.17-32.78 55.848M1693.41 2344.78c-9.14-3.98-17.21-9.13-21.77-17.91-3.32-6.31-5.55-15.93.79-21.34 11.11-9.48 24.37.22 29.75 9.92 6.78 12.34 5.02 35.95 5.02 35.95s-7.9-4.11-13.79-6.62"></path><path d="M1703.07 2285.84c4 7.53 12.74 15.68 22.33 21.51 10.84 6.62 22.07 13.06 29.88 17.72 7.81 4.69 9.3 7.98 9.3 7.98s-6.44-2.21-9.96-4.29c-19.27-11.5-40.31-24.56-48.86-28.33-10.8-4.71-25.48-5.62-38.71-7.3-2.11 16.68-6.44 23.6-6.39 38.43.11 7.12 1.84 16.34 3.04 22.78 4.14 21.43 4.95 32.23 4.95 32.23s-3.27-3.04-4.47-12.47c-1.34-8.52-2.3-11.66-4.25-21.73-2.23-11.63-4.55-21.48-11.5-28.75-10.02-10.35-19.3-28.81-11.56-42.95 4.51-8.26 12.04-7.06 14.4-9.18 2.35-2.12 3.79-7.22 10.92-9.58 15.39-5.14 32.83 8.67 40.88 23.93"></path><path d="M1683.12 2241.77c5.22 8.47 10.58 14.43 18.81 19.48 13.66 8.32 23.8 13.97 32.13 18.23 3.62 1.81 6.64 3.98 7.56 7.84-3.73-1.41-17.84-8.03-31.84-16.36-10.03-5.99-27.27-13.46-38.86-14-4.58-.2-7.99.93-11.74 1.05-7.76.32-17.66-1.55-17.66-1.55s-2.51 10.97-5.82 18.88c-1.67 4.06-4.36 8.23-5.8 15.84-.98 5.07-1.27 12.7-.87 17.24 1.13 13.73 4.84 27.08 4.2 40.97-8.63-17.92-5.1-40-15.23-53.88-4.27-5.83-7.66-10.43-11.02-17.77-5.56-12.06-4.9-24.56 2.62-36.19 4.33-6.62 13.91-6.38 15.56-7.66 2.51-1.85 4.65-8.79 14.01-10.87 16.01-3.6 34.9 3.83 43.95 18.75M1687.59 1891.18c3.73 7.53 6.14 17.42 10.89 24.4-10.76-1.61-12.5-2.84-28.04-4.54-3.39-.33-10.4-3.85-12.72-6.16-6.15-6.2-11.51-11.96-9.13-22.38.92-4.04 4.5-7.02 6.49-7.64 12.93-4.21 26.06 3.48 32.51 16.32"></path><path d="M1700.71 1870.65c14.69 3.44 31.67 10.64 38.48 8.37-13.79-7.33-31.17-9.99-46.44-14.35-11.66-3.35-19.98-12.16-30.38-20.15-9.55-7.26-22.25-10.22-33.59-4.88-3.82 1.82-7.54 7.99-8.21 11.29-.59 2.63-6.06 5.26-8.88 7.57-2.84 2.36-4.2 8.25-4.26 10.53-.49 20.33 14.99 28.54 29.89 40.49 11.23 8.99 25.81 47.16 34.7 55.08-1.58-12.31-17.57-35.52-24.54-53.58-5.54-14.39-3.73-25.9-7.29-41.05 10.66-.68 22.54-2.91 33.27-3.09 8.42-.11 18.6 1.73 27.25 3.77"></path><path d="M1685.24 1839.3c-8.26-1.53-18.35-4.13-25.24-5.58-23.96-5.08-35.4 6.66-54.53 6.43 1.69 21.91-5.92 31.72.34 45.88 5.59 12.59 10.76 25.93 15.56 36.61 3.89 8.56 5.07 15.79 5.07 15.79s-5.81-8.69-22.32-40.86c-5.74-11.23-16.02-13.63-25.15-24.23-10.51-12.12-16.53-37.75 2.9-48.5 3.86-2.12 3.3-8.79 6.11-11.48 12.98-12.21 39.19-10.98 55.58 3.9 13.05 11.9 28.91 13.83 42.42 17.33 7.91 2.04 14.84 5.39 14.84 5.39s-3.75 1.54-15.58-.68M1205.23 1585.06c-.95 0-1.96 0 0 0zm-111.89 315.54c-7.98-10.56-11.68-22.7-20.5-31.92-4.6-4.82-11.62-2.57-15.27 2.99-4.04 6.29-10.59 15.19-5.72 21.4 8 10.26 24.75 16.81 39 14.96.84-.1 5.43-3.49 2.49-7.43zm-38.34-60.39c-4.47-11.97-17.8-13.25-29.14-15.62-2.12-.46-8.64 0-11.57 2.88-4.9 4.79-9.14 11.33-8.29 19.53.46 5.06 4.68 10.02 9.9 12.03 9.47 3.67 20.7 9.58 30.03 4.34 8.03-4.49 12.24-14.73 9.07-23.16zm-24.55-63.22c-3.26-4.71-11.64 10.95-12.73 18.12-3.13 20.77 15.07 26.07 30.24 25.43.47-12.38-9.13-31.56-17.51-43.55zm-16.38-56.04c-2.98-8.34-4.41-16.03-7.73-23.68-3.22-7.4-16.97-10.04-24.602-7.67-10.894 3.38-20.238 27.83-7.855 37.2 9.476 7.08 19.293 8.22 31.357 9.7 2.17.26 10.28-.23 10.59-.99 2.03-5.07.75-7.61-1.76-14.56zm-18.34-64.58c-2.207-6.41-3.18-13.02-6.02-19.19-1.417-3.12-3.284.98-3.358 1.19-4.282 10.65-6.98 19.65-3.332 29.02 2.062 5.2 9.164 9.97 15.902 10.38-.414-6.66-.89-14.9-3.192-21.4zm-21.648-31.49c-4.922 2.23-4.848 8.55-6.91 12.49-1.942 3.84-6.133 9.13-4.406 14.16 9.496-5.32 13.898-14.82 11.316-26.65zm-16.387 39.32c-11.332 9.31-12.312 24.21-19.863 35.61 8.336 5.33 22.387 4.26 26.71-6.29 3.454-8.48 5.966-20.93-2.632-27.41-.933-.68-3.14-2.81-4.215-1.91zm-42.246 76.84c-1.7 2.43-5.063 9.43-2.5 10.32 20.28 6.99 35.503 7.21 39.83-14.49 3.072-15.48-7.507-28.77-22.33-23.35-4.25 1.57-8.462 18.06-15 27.52zm-29.497 49c-1.422 1.78-2.578 7.17-.808 8.56 10.546 8.48 26.03 9.12 38.02 7.95 15.812-1.44 19.058-16.13 16.42-28.32-3.48-16.04-27.804-18.03-34.69-15.36-6.77 2.6-11.493 17.93-18.942 27.17zm3.442 57.03c13.664 8.86 39.785 15.43 44.14-8.57 1.32-7.23-.484-16.82-10.25-19.97-10.03-3.22-21.847-6.68-31.012-2.97-11.273 4.62-13.488 24.65-2.878 31.51zm-14.165 40.36c1.032 4.59 6.133 6.77 10.418 7.87 11.063 2.73 23.43 6.85 33.582.39 3.958-2.51 4.262-6.05 4.778-11.03.898-8.07-.246-14.65-5.563-17.74-10.773-6.32-21.734-6.89-34.257-4.42-10.157 2-10.985 15.46-8.958 24.93zm-11.335-62.21c-9.47 7-13.657 16.9-20.637 26.71-1.688 2.4 0 3.39 1.293 3.77 16.805 4.75 29.278-3.64 26.66-21.97-.468-3.55-2.78-11.85-7.315-8.51zm-46.383 56.6c-6.3 5.45-1.922 14.93 3.566 17.68 9.61 4.77 24.707 5.5 34.703 2.12 6.43-2.16 9.685-11.39 8.532-21.46-.484-4.13-1.746-8.67-3.765-10.02-7.613-5.19-19.39-5.4-28.65-3.46-6.55 1.38-8.885 10.34-14.385 15.14zm-7.262 57.25c6.09 13.26 28.305 13.37 40.402 7.47 9.856-4.85 11.094-23.2.332-30.43-8.586-5.72-22.113-3.62-31.218-1.95-12.934 2.39-13.965 15.11-9.516 24.91zm.492 49.61c9.23 8.78 21.188 4.75 32.305 3.21 2.152-.3 4.72-1.82 6.176-3.27 7.59-7.67 8.187-20.24-.262-26.53-9.75-7.24-21.925-2.53-33.644-1.94-3.164.13-6.644 3.84-7.367 6.23-2.11 7.42-3.388 16.48 2.792 22.3zm5.946 41.5c9.8 4.09 26.636 5.96 33.578-5.04 4.26-6.74 3.02-19.21-3.817-21.03-6.692-1.72-29.458-5.51-34.907 7.08-2.7 6.19-1.56 16.17 5.145 18.99zm30.164 35.25c2.836-1.25 4.6-3.52 5.273-7.01 1.395-7.55-.594-15.75-7.84-17.08-10.89-1.98-27.055-2.61-27 12.79.04 17.17 16.957 16.98 29.567 11.3zm-21.918 31.92c5.793 2.21 15.332 1.72 20.53-.99 2.626-1.36 6.153-5.68 4.67-10.22-1.85-5.93-7.364-8.07-13.63-8.14-6.02-.06-12.926.41-15.356 5.34-2.308 4.66-1.328 12.04 3.786 14.01zm6.765 25.75c5.296 1.93 13.128 1.79 16.984-2.39 5.3-5.8 1.117-15-8.887-14.54-3.524.15-7.695 1.36-9.824 2.57-5.172 2.92-3.457 12.5 1.726 14.36zm23.812 16.58c.68 2.24 4.16 4.85 5.98 5.49 3.973 1.42 8.63 1.71 12.43.19 7.6-3.13 6.558-12.54-1.56-15.82-3.632-1.48-9.214-2.43-11.952-1.48-5.113 1.74-6.53 6.17-4.898 11.62zm23.683-36.77c-8.293-2.42-19.847-2.89-22.324 5.61-4.202 14.43 14.005 16.59 23.446 13.55 6.516-2.06 8.817-16.3-1.12-19.16zm5.49 47.63c2.627 8.94 12.756 13.79 21.932 11.07 7.887-2.32 9.707-13.07 4.38-18.29-2.41-2.35-6.407-4.74-10.704-5.69-9.387-2.09-18.598 3.08-15.61 12.91zm41.253-32.78c-1.485-5.83-5.766-9.85-12.618-11.36-6.804-1.5-16.215-1.92-19.984 2.29-3.602 3.98-5.254 9.58-2.25 13.87 6.02 8.56 17.043 11.55 26.867 9.38 5.606-1.31 9.727-7.05 7.985-14.18zm-3.665 34.3c3.665 8.11 12.957 12.19 21.883 9.47 1.785-.57 5.47-3.45 5.977-6.29 1.058-5.64-.9-10.79-5.606-13.74-6.035-3.84-11.02-6-17.95-3.16-5.206 2.17-6.475 8.93-4.304 13.72zm38.442-22.77c4.074-6.91-2.13-13.84-5.28-15.74-6.982-4.09-16.84-6.6-21.048.33-4.145 6.79-.715 14.85 6.508 17.85 6.894 2.86 14.03 7.19 19.82-2.44zm11.586-26.38c4.563-3.77 8.567-11.7 3.098-17.96-5.132-5.91-11.515-7.67-19.586-8.98-5.46-.92-12.437 3.11-13.324 7.93-.808 4.15-1.57 11.73 2.547 15.21 8.024 6.84 18.777 10.79 27.266 3.8zm9.673 44.99c4.312-1.27 7.066-5.83 4.906-10.23-1.314-2.7-5.185-5.64-7.65-7.15-6.765-4.17-12.57-2.46-14.687 2.52-3.898 9.14 9.207 17.28 17.43 14.86zm16.504-22.79c4.753-.43 6.933-3.73 7.863-7.37 1.23-4.86-.37-9.37-4.48-12.14-4.895-3.25-10.993-5.17-15.868-5.24-6.594-.12-12.7 9.55-9.13 15.85 3.786 6.74 13.31 9.61 21.615 8.9zm27.283-34.9c2.8-8.27-3.27-12.14-9.66-15.54-6.51-3.47-15.23-6.71-19.745-2.39-5.765 5.44-8.332 14.58-1.902 20.6 8.917 8.37 25.407 14.65 31.307-2.67zm11.77-20.77c10.46-1.32 12.54-16.21 10.43-21.58-2.39-4.63-7.66-8.24-10.43-9.65-7.67-3.96-16.64-5.46-23.69-1.81-6.43 3.34-9.21 13.09-5.72 20.74 4.73 10.33 19.63 13.59 29.41 12.3zm21.52-46.05c3.58-4.99 2.8-13.87.67-16.65-6.59-9.01-24.96-14.17-32.53-10.47-5.76 2.82-11.44 15.5-4.7 23.12 7.01 7.89 19.22 12.61 30.31 10.29 2.46-.54 4.09-3.27 6.25-6.29zm4.64-28.35c5.04-.55 9.51-6.08 11.94-12.12 3.16-7.8-.03-16.89-2.53-18.59-6.02-4.09-25.08-15.56-37.08-8.69-6.6 3.79-8.42 12.44-8.83 17.55-1.33 16.51 23.72 23.27 36.5 21.85zm-70.393-118.1c-2.567 6.55-4.942 16.24.203 20.22 10.39 8.2 33.89 15.37 42.83 2.97 5.81-8.05 4.11-21.7-6.07-26.92-10.5-5.36-31.037-11.53-36.963 3.73zm-50.41-.72c10.43 5.3 25.457 11.7 36.687 4.47 5.137-3.3 10.442-16.97 6.817-23.03-7.7-12.87-27.96-16.14-40.843-12.83-10.97 2.84-14.274 25.52-2.66 31.39zm-9.38 44.49c12.587 8.86 37.438 14.58 43.423-4.77 1.554-5.02 2.44-10.56-.12-14.62-6.974-11.21-24.662-14.16-36.498-12.5-12.8 1.87-18.847 23.44-6.804 31.89zm-10.593 45.08c12.09 6.85 37.856 15.96 43.926-3.67 2.43-8.03 2.183-17.95-4.695-21.49-9.848-5.17-25.457-10.58-36.81-3.51-9.48 6-10.76 23.9-2.42 28.67zm67.676 81.03c-5.063-4.52-10.203-5.5-16.942-7.78-9.437-3.2-19.312 4.07-20.402 13.1-1.816 15.45 14.75 17.75 25.707 19.68 7.988 1.45 12.938-5.73 14.41-10.55 1.504-4.65 1.31-10.87-2.773-14.45zm20.31-36.37c-7.19-10.72-36.166-17.46-42.556-6.44-4.668 8.06-7.574 19.38 1.203 24.8 9.215 5.67 20.137 9.05 30.863 7.12 10.08-1.78 15.21-18.36 10.49-25.48zm15.45-66.34c4.12-6.56 7-15.37.88-23.51-5.56-7.46-25.37-10.94-35.52-8.49-5.565 1.4-8.198 8.17-9.05 12.73-1.176 6.17-1.73 12.38 3.73 17.41 7.852 7.2 18.34 7.04 28.41 7.04 4.14 0 9.99-2.68 11.55-5.18zm-5.76 22.27c-6.18-11.34-27.09-12.8-36.492-11.55-6.625.88-11.29 11.56-11.094 20.5.066 4.6 1.5 7.65 4.64 9.33 10.446 5.61 21.133 9.36 32.376 7.54 10.96-1.74 15.22-17.23 10.57-25.82zm-110.078 24.42c-7.106 21.88 20.226 28.78 36.176 25.4 11.105-2.31 14.812-23.65 4.48-30.38-12.785-8.31-35.477-11-40.656 4.98zm-41.21-53.73c8.186 8.45 22.97 8.97 34.51 7.41 7.086-.98 10.14-8.14 11.126-15.91 2.76-21.38-25.938-24.97-39.594-19.97-9 3.29-13.684 20.57-6.043 28.47zm-5.78 41.42c8.564 10.07 22.88 12.46 34.736 9.2 7.238-1.97 10.59-10.43 10.426-19.91-.137-5.39-3.83-9.28-7.14-10.65-8.43-3.42-18.17-5.96-27.368-4.84-11.344 1.4-18.22 17.27-10.653 26.2zm1.36 45.1c10.528 4.3 30.145 8.14 33.454-6.89 4.457-20.03-19.172-23.29-31.797-19.81-9.67 2.65-11.505 22.72-1.657 26.7zm75.727 33.09c7.87-4.47 9.523-17.08 4.734-24.38-6.367-9.68-28.137-15.28-39.848-6.82-6.68 4.84-10.277 24.73 3.41 29.49 10.934 3.83 21.414 7.54 31.703 1.71zm-11.157 14.39c-8.93-5.53-21.656-7.72-30.098-3.03-7.343 4.01-7.058 14.75-3.417 20.52 5.98 9.62 20.855 10.66 31.132 7.65 8.864-2.57 12.184-19.05 2.383-25.14zm-72.28 15.68c.9 2.86 2.175 3.67 3.948 4.54 7.51 3.58 15.75 4.54 22.94-.08 5.178-3.35 4.725-11.09.885-15.1-5.62-5.91-17.047-6.16-24.36-2.32-4.726 2.47-4.944 8.3-3.413 12.96zm2.397-31.35c3.32 9.48 15.15 8.95 24.106 7.8 11.02-1.45 13.226-15.57 9.312-21.51-5.41-8.2-17.758-6.63-27.582-5.39-7.996 1.04-8.468 11.62-5.836 19.1zm155.51-285.2c2.71-10.72 0-20.9-9.53-24.31-12.253-4.32-28.816-10.64-38.61-4.05-11.198 7.51-16.588 28.81-3.72 37.16 15.198 9.94 45.44 16.45 51.86-8.8zm-16.51 33.3c-8.234-9.36-21.668-9.05-34.855-12.91-5.094-1.48-11.133 3.01-13.78 7.67-4.876 8.71-9.76 20.37-.42 28.77 7.735 7.04 18.282 6.46 27.755 9.28 4.25 1.28 9.46 2.76 14.62-.72 10.68-7.29 14.84-22.91 6.68-32.09zm87.3 140.14c2.33-6.8 5.45-11.8 2.8-18.58-3.14-8.33-11.21-9.46-18.79-12.2-7.07-2.56-18.86-5.8-24.78.39-6.81 7.05-9.55 21.39-1.41 27.54 10.56 7.87 36.6 18.71 42.18 2.85zm143.3 61.19c6.23 25.39 13.96 51.13 15.9 77.96 2.84 40.08-5.8 81.73-31.5 112.08 2.52-13.08 5.87-24.14 7.64-37.89 2.08-16.58-.26-35.05-4.54-51.75-3.25-12.65-8.94-24.94-14.59-36.68-6.67-13.91-16.63-29.03-26.56-41.44-27.8-34.59-71.13-102.08-71.13-102.08s-3.64.26-5.79.26c-.51 8.41 19.44 37.22 29.51 53.35 22.09 35.35 38.82 54.38 58.04 85.02 12.04 19.34 21.23 42.85 24.19 64.16 5.99 43.44-17.43 95.49-51.1 112.81 7.69-32.45 6.89-78.17-10.38-97.4-32.69-36.43-52.13-63.69-75.46-110.4-.66-1.25-6.12 6.3-10.63 9.23-5.07 3.35-2.23 13.37-4.05 20.12-1.64 5.73-4.34 10.14-5.14 11.14-6.9 8.47-13.58 9-15.03 11.53-1.68 2.86-.87 10-6.9 18.13-3 4.1-10.67 7.13-13.79 10.97-3.38 4.2-4.91 17.06-14.22 22.32-4.417 2.48-6.472 10.19-10.714 13.97-13.086 11.59-26.153 9.36-28.653 10.08-3.367.91-9.937 9.27-21.636 11.29-11.438 1.94-17.73-5.69-23.668-2.93-14.892 6.89-29.158 7.46-44.982-10.18-4.75-5.25-12.965-.34-23.21-8.18-9-6.86-9.16-13.2-13.75-14.07-8.61-1.61-15.032-8.5-18.352-16.01-1.723-3.88-3.016-11.7-4.024-16.87-1.41-7.12-5.01-13.69-5.082-18.93-.082-7.28 2.215-11.21 1.575-14.47-1.063-4.71-4.88-9.03-5.344-13.44-.347-2.5-.558-9.16 1.262-12.91 2.29-4.62-1.61-8.64-3.632-13.56-1.938-4.58-3.973-12.42-3.352-17.95.82-7.59 5.164-10.37 1.785-16.35-5.535-9.71-12.53-24.88-.265-44.25 2.254-3.54-5.137-10.43-5.55-20.54-.474-11 6.17-19.12 7.983-24.01.345-1.74-2.92-1.64-3.038-3.51-29.22 30.89-55.062 59.39-88.95 86.21-20.702 16.36-41.175 30.12-64.112 42.41-61.29 32.86-132.492 54.85-196.992 46.82 24.29-19.56 54.94-33.51 79.89-55.72 23.64-21.05 45.09-39.04 66.62-61.42 33.798-35.1 61.26-70.69 89.872-112 8.496-12.23 14.09-20.41 22.012-33.17 7.977-12.76 16.84-26.31 24.102-38.96 36.617-63.57 66.617-122.43 96.98-187.58 8.426-18.03 15.504-36.88 23.762-54.79 2.21-4.85 5.375-1.25 7.61 0 10.98 6.36 22.648 11.66 34.05 17.04 9.098 4.18 17.38 7.06 25.508 10.18 20.543 7.83 40.035 12.08 61.55 16.55 35.916 7.52 100.436 5.98 100.436 5.98l122.35.04h3.33c-1.28 35.06-9.6 69.14-11.63 104.32-1.55 28.49-.6 56.04.4 84.59 2.73 77.35 14.11 160.39 31.39 230.88M395.14 2295.04c-23.87-23.8-30.992-32.57-44.91-58.88-8.2-15.47-18.61-35.33-21.578-60.93 49.05 18.67 89.075 56.79 125.235 98.87 26.754 31.2 47.504 72.61 73.886 103.43-46.468-15.58-95.503-45.52-132.632-82.49"></path><path d="M254.72 2228.13c18.487 31.24 44.975 65.02 72.436 88.06-12.718-28.57-28.383-56.88-33.765-90.67-10.675-67.27-20.75-114.39-31.91-175.79 30.508 21.76 62.684 55.95 95.036 79.82 24.992 18.36 50.046 30.63 75.754 48.3 15.28 10.54 25.234 24.08 37.945 36.77-15.14-63.85-71.16-128.28-111.274-158.32-50.385-37.78-68.448-43.8-149.42-126.14-10.282 101.66-8.45 207.32 45.2 297.97"></path><path d="M89.527 1890.48c3.77 52.79 10.102 95.02 22.93 146.52 8.984 35.96 28.34 89.5 56.242 111.46-3.42-13.04-5.216-32.6-6.532-45.79-5.47-54.4 4.945-117.57 6.187-171.9.622-26.72.383-47.32-3.613-72.42-4.14-26.32-.687-58.62-.687-58.62s14.422 16.47 27.3 37c28.15 44.7 37.16 57.97 59.836 82.18 28.134 30.05 59.6 57.88 95.126 82.53-4.285-16.7-22.425-49.17-29.92-62.22-10.005-17.45-14.544-33.31-38.216-72.84-33.313-55.55-48.153-63.05-85.137-122.46-8.008-12.92-40.852-62.06-48.81-77.07-17.323 35.85-23.862 67.19-45.116 125.55-13.355 36.68-11.36 73.37-9.59 98.08"></path><path d="M38.094 1615.8c-20.086 52.09-29.29 100.4-36.098 155.23-4.16 33.55-2.226 78.27 9.746 110.52 3.14-7.87 9.547-27.87 10.414-30.85 8.91-29.97 12.633-44.36 25.086-73.25 9.52-22.17 21.164-39.84 33.625-61.74 11.332-19.99 20.89-46.3 29.09-66.45 26.37-64.56 28.32-125.01 38.41-131.62 7.258 15.55 9.53 30.43 10.344 37.75 7.845 71.45 17.25 136.39 107.228 220.6 8.257-25.06 4.074-71.28-.887-96.03-10.757-54.12-19.448-80.11-43.28-132.56-12.598-27.62-29.422-68.27-34.032-81.72-12.078-35.07-16.218-53.45-23.816-74.2-42.48 70.79-94.762 143.88-125.828 224.32"></path><path d="M108.125 1290.19c-30.238 42.11-41.266 63.26-60.95 108.06-16.527 37.61-21.28 51.54-30.96 93.65-5.29 22.94-8.277 43.77-4.168 57.34 23.676-42.88 39.84-90.86 70.81-126.41 24.588-28.21 48.272-52.23 67.823-76.05 29.988-36.58 53.6-71.21 82.382-109.3 2.426 19.09 3.364 38.44-.92 69.71-5.857 42.87-2.247 78.01 5.237 119.5 9.483 52.65 16.444 78.72 34.71 131.97 22.348-43.82 22.262-94.53 27.87-141 10.83-90.22-17.386-197.78-22.94-242.62-1.485-11.81.562-40.97 1.16-52.32-42.2 33.24-79.742 66.79-116.14 103.3-16.587 16.53-39.345 43.95-53.915 64.17"></path><path d="M268.105 959.41c-19.214 13.828-70.843 53.3-95.29 84.35-35.596 45.22-43.436 64.58-66.92 116.59-2.875 6.34-16.168 35.78-17.25 55.78 76.94-92.9 145.828-106.74 219.226-183.83 26.935-28.25 54.517-54.84 69.07-68.17 11.18-10.278 25.048-13.4 25.048-13.4s-1.445 19.81-8.69 33.59c-48.966 93.6-58.208 191.44-50.782 296.45 22.35-27.67 29.402-46.15 43.59-72.91 15.425-29.15 23.292-47.16 30.503-65.11 41.902-104.28 52.804-224.75 78.695-285.36-79.914 26.91-142.844 41.29-227.2 102.02"></path><path d="M595.828 713.31c-21.613-1.45-63.992-1.322-86.586 2.37-114.394 18.3-220.726 101.2-274.215 192.26 48.496-29.588 83.563-49.33 126.21-64.1 37.986-13.13 74.013-17.012 137.42-35.03 38.26-10.798 76.144-26.12 89.452-31.1 42.417-15.8 60.28-11.91 60.28-11.91s0 6.438-15.847 23.72c-31.574 34.468-43.14 42.7-69.12 69.19-8.528 8.76-28.075 38.49-37.997 58.25-28.07 55.88-31.192 100.68-56.828 162.06 93.554-54.95 139.13-130.75 188.59-226.32 15.21-29.26 35.777-63.08 54.57-81.66 12.637-12.458 30.445-31.42 30.445-31.42s-13.047-3.07-53.668-9.07c-18.223-2.67-57.05-14.76-92.707-17.24M1049.31 706.06c49.39-8.068 93.28-20.08 138.19-35.478 12.08-4.16 30.45-13.293 43.17-19.742 31.84-16.2 50.16-26.72 77.52-45.53 44.07-30.35 91.4-63.04 134.12-112.67.91-.98 7.82-8.36 3.22-11.96-8.37-6.56-28.99-15.9-35.85-9.84-39.09 34.75-37.11 45.88-84.48 88.77-12.15 10.95-30.48 26.3-52.39 41.288-21.38 14.622-47.22 30.602-71.23 42.454-21.82 10.718-55.42 13.937-74.29 13.937l.26-.142c-8.57.34-57.84.614-69.24-.136-96.81-6.633-92.072-15.293-147.888-30.41-45.91-12.493-95.164-21.383-144.055-27.954-50.09-6.79-94.906-7.61-141.86-2.828-63.648 6.56-133.273 24.3-185.237 57.79 47.51-.8 96.3-9.938 143.566-6.31 19.89 1.54 52.16 4.54 74.012 11.27 43.418 13.328 68.328 18.532 114.308 31.352 39.512 11 79.348 14.797 120.606 19.137 57.105 6.12 109.998 4.74 157.548-3M1934.52 2295.04c23.88-23.8 31.03-32.57 44.95-58.88 8.19-15.47 18.61-35.33 21.57-60.93-49.09 18.67-89.07 56.79-125.26 98.87-26.76 31.2-47.48 72.61-73.87 103.43 46.47-15.58 95.51-45.52 132.61-82.49"></path><path d="M2074.98 2228.13c-18.52 31.24-44.98 65.02-72.44 88.06 12.85-30.75 31.56-69.05 33.75-90.67 6.84-67.74 20.76-114.39 31.93-175.79-30.51 21.76-62.73 55.95-95.06 79.82-24.95 18.36-50.03 30.63-75.7 48.3-15.32 10.54-25.27 24.08-37.99 36.77 15.14-63.85 71.17-128.28 111.29-158.32 50.37-37.78 68.43-43.8 149.37-126.14 10.28 101.66 8.46 207.32-45.15 297.97"></path><path d="M2240.16 1890.48c-3.8 52.79-10.07 95.02-22.92 146.52-8.98 35.96-28.35 89.5-56.29 111.46 3.45-13.04 5.22-32.6 6.56-45.79 5.52-54.4-4.89-117.57-6.18-171.9-.61-26.72-.38-47.32 3.59-72.42 4.15-26.32.72-58.62.72-58.62s-14.42 16.47-27.33 37c-28.08 44.7-37.11 57.97-59.85 82.18-28.1 30.05-59.59 57.88-95.13 82.53 4.33-16.7 22.47-49.17 29.96-62.22 10.05-17.45 14.53-33.31 38.23-72.84 33.29-55.55 48.14-63.05 85.09-122.46 8.01-12.92 40.9-62.06 48.84-77.07 17.35 35.85 23.87 67.19 45.13 125.55 13.38 36.68 11.39 73.37 9.58 98.08"></path><path d="M2291.59 1615.8c20.08 52.09 29.27 100.4 36.11 155.23 4.17 33.55 2.2 78.27-9.74 110.52-3.14-7.87-9.54-27.87-10.42-30.85-8.94-29.97-12.63-44.36-25.06-73.25-9.53-22.17-21.24-39.84-33.66-61.74-11.33-19.99-20.88-46.3-29.13-66.45-26.33-64.56-28.28-125.01-38.37-131.62-7.29 15.55-9.54 30.43-10.33 37.75-7.86 71.45-17.26 136.39-107.23 220.6-8.29-25.06-4.08-71.28.84-96.03 10.81-54.12 19.53-80.11 43.32-132.56 12.6-27.62 29.42-68.27 34.07-81.72 12-35.07 16.16-53.45 23.82-74.2 42.45 70.79 94.72 143.88 125.78 224.32"></path><path d="M2221.57 1290.19c30.27 42.11 41.26 63.26 60.94 108.06 16.53 37.61 21.26 51.54 30.97 93.65 5.29 22.94 8.27 43.77 4.15 57.34-23.62-42.88-39.86-90.86-70.83-126.41-24.55-28.21-48.24-52.23-67.79-76.05-29.95-36.58-53.64-71.21-82.37-109.3-2.41 19.09-3.39 38.44.87 69.71 5.89 42.87 2.28 78.01-5.19 119.5-9.5 52.65-16.46 78.72-34.71 131.97-22.32-43.82-22.26-94.53-27.88-141-10.86-90.22 17.43-197.78 22.97-242.62 1.45-11.81-.59-40.97-1.18-52.32 42.19 33.24 79.74 66.79 116.13 103.3 16.59 16.53 39.3 43.95 53.92 64.17"></path><path d="M2061.6 959.41c19.2 13.828 70.84 53.3 95.27 84.35 35.6 45.22 43.45 64.58 66.93 116.59 2.83 6.34 16.17 35.78 17.25 55.78-76.94-92.9-145.84-106.74-219.23-183.83-26.92-28.25-54.49-54.84-69.05-68.17-11.18-10.278-25.05-13.4-25.05-13.4s1.43 19.81 8.65 33.59c48.99 93.6 58.24 191.44 50.77 296.45-22.28-27.67-29.37-46.15-43.55-72.91-15.4-29.15-23.29-47.16-30.47-65.11-41.93-104.28-52.89-224.75-78.76-285.36 79.97 26.91 142.88 41.29 227.24 102.02"></path><path d="M1733.86 713.31c21.65-1.45 64-1.322 86.62 2.37 114.39 18.3 220.69 101.2 274.19 192.26-48.55-29.588-83.61-49.33-126.23-64.1-38.01-13.13-74-17.012-137.37-35.03-38.3-10.798-76.17-26.12-89.49-31.1-42.42-15.8-60.28-11.91-60.28-11.91s0 6.438 15.83 23.72c31.59 34.468 43.18 42.7 69.11 69.19 8.55 8.76 28.1 38.49 38.02 58.25 28.07 55.88 31.19 100.68 56.86 162.06-93.55-54.95-139.22-130.75-188.65-226.32-15.18-29.26-35.74-63.08-54.51-81.66-12.62-12.458-30.47-31.42-30.47-31.42s13.04-3.07 53.7-9.07c18.19-2.67 57-14.76 92.67-17.24M1280.38 706.06c-49.38-8.068-93.23-20.08-138.19-35.478-12.12-4.16-30.45-13.293-43.17-19.742-31.84-16.2-50.12-26.72-77.51-45.53-44.108-30.35-91.377-63.04-134.127-112.67-.922-.98-7.856-8.36-3.223-11.96 8.39-6.56 29.024-15.9 35.817-9.84 39.1 34.75 37.113 45.88 84.523 88.77 12.09 10.95 30.43 26.3 52.39 41.288 21.42 14.622 47.18 30.602 71.22 42.454 21.78 10.718 55.45 13.937 74.29 13.937l-.28-.142c8.59.34 57.83.614 69.27-.136 96.82-6.633 92.05-15.293 147.85-30.41 45.94-12.493 95.18-21.383 144.08-27.954 50.06-6.79 94.92-7.61 141.86-2.828 63.66 6.56 133.26 24.3 185.21 57.79-47.49-.8-96.24-9.938-143.57-6.31-19.9 1.54-52.13 4.54-73.98 11.27-43.42 13.328-68.35 18.532-114.3 31.352-39.52 11-79.36 14.797-120.59 19.137-57.13 6.12-110.02 4.74-157.57-3M1106.78 2831.56l-86.96-322.88h-92.308l-57.742 210.34-56.45-210.34h-92.086l-86.953 322.88h86.908l49.535-222.26 59.582 222.26h83.05l56.528-222.26 52.007 222.26h84.89M1393.65 2769.11h-148.53v-60.07h137.69v-62.45h-137.69v-137.91h-82.83v322.88h231.36v-62.45M1631.53 2727.8c0 9.08-2.46 16.9-7.37 23.46-4.92 6.57-10.63 11.15-17.13 13.74-8.68 3.46-17.13 5.38-25.37 5.73-8.24.36-19.23.55-32.96.55h-14.32v-96.5h23.86c14.16 0 25.83.87 35.02 2.6 9.18 1.73 16.88 5.2 23.09 10.39 5.34 4.61 9.22 10.13 11.6 16.55 2.39 6.41 3.58 14.24 3.58 23.48zm86.09 1.84c0-14.45-2.54-28.58-7.6-42.39-5.05-13.8-12.28-25.41-21.68-34.8-12.87-12.73-27.21-22.34-43.04-28.84-15.83-6.51-35.53-9.75-59.09-9.75h-51.83v-105.18h-83.26v322.88h137.04c20.53 0 37.84-1.77 51.93-5.31 14.09-3.55 26.57-8.86 37.41-15.95 13.01-8.52 22.95-19.43 29.81-32.73 6.87-13.3 10.31-29.28 10.31-47.93M3197.34 1620.74l-120.4-447.06h-127.81l-79.96 291.23-78.15-291.23h-127.5l-120.4 447.06h120.33l68.59-307.75 82.49 307.75h115l78.27-307.75 72 307.75h117.54M3449.87 1260.16c7 8.59 12.25 18.95 15.76 31.07 3.5 12.11 5.26 28.87 5.26 50.29 0 19.81-1.81 36.42-5.41 49.85-3.6 13.41-8.61 24.11-15.02 32.12-6.4 8.19-14.1 14-23.11 17.42-9 3.39-18.72 5.09-29.12 5.09-10.42 0-19.67-1.4-27.78-4.19-8.1-2.81-15.87-8.42-23.26-16.83-6.61-7.79-11.86-18.51-15.76-32.13-3.91-13.61-5.86-30.72-5.86-51.33 0-18.41 1.7-34.37 5.1-47.88 3.4-13.52 8.41-24.38 15.02-32.58 6.39-7.82 14.06-13.51 22.97-17.11 8.9-3.61 19.06-5.41 30.47-5.41 9.8 0 19.16 1.65 28.07 4.96 8.9 3.3 16.46 8.85 22.67 16.66zm133.01 81.96c0-55.44-16.17-99.13-48.49-131.05-32.33-31.93-77.72-47.88-136.16-47.88s-103.84 15.95-136.17 47.88c-32.31 31.92-48.49 75.61-48.49 131.05 0 55.85 16.26 99.69 48.8 131.51 32.53 31.82 77.81 47.73 135.86 47.73 58.85 0 104.34-16.02 136.45-48.03 32.13-32.03 48.2-75.76 48.2-131.21M3904.73 1407.87h-9.58c-4.59 1.6-11.99 2.81-22.18 3.61-10.19.79-18.67 1.2-25.46 1.2-15.38 0-28.96-1.01-40.73-3.01-11.8-2-24.48-5.4-38.06-10.2v-225.79h-108.39v337.18h108.39v-49.55c23.77 20.42 44.44 33.98 62.01 40.68 17.58 6.71 33.76 10.07 48.54 10.07 3.79 0 8.09-.1 12.88-.3 4.79-.2 8.99-.51 12.58-.9v-102.99M3965.98 1173.68h108.39v467.18h-108.39zM4395.62 1266.49v165.69c-7.6 3.2-15.58 5.52-23.97 6.91-8.38 1.41-16.07 2.11-23.06 2.11-28.37 0-49.63-8.86-63.81-26.62-14.18-17.73-21.27-42.34-21.27-73.82 0-33.07 5.69-57.08 17.08-72.02 11.38-14.93 29.64-22.39 54.82-22.39 9.78 0 20.16 1.85 31.15 5.57 10.98 3.7 20.67 8.55 29.06 14.57zm108.38-92.81h-108.38v35.13c-18.6-15.2-35.99-26.42-52.18-33.62-16.2-7.2-34.89-10.8-56.08-10.8-40.99 0-73.77 15.8-98.35 47.43-24.6 31.62-36.89 74.26-36.89 127.9 0 28.62 4.15 53.99 12.45 76.11 8.29 22.11 19.63 41.08 34.03 56.9 13.59 15.01 30.09 26.67 49.48 34.98 19.39 8.3 38.78 12.45 58.17 12.45 20.19 0 36.74-2.15 49.63-6.45 12.89-4.31 26.14-9.76 39.74-16.36v143.51H4504v-467.18M5142.62 1534.27h-205.67v-83.16h190.66v-86.48h-190.66v-190.95h-114.68v447.06h320.35v-86.47M5427.85 1260.16c7 8.59 12.26 18.95 15.75 31.07 3.51 12.11 5.26 28.87 5.26 50.29 0 19.81-1.8 36.42-5.41 49.85-3.59 13.41-8.6 24.11-15.01 32.12-6.4 8.19-14.09 14-23.12 17.42-9 3.39-18.72 5.09-29.11 5.09-10.42 0-19.66-1.4-27.78-4.19-8.11-2.81-15.87-8.42-23.25-16.83-6.63-7.79-11.88-18.51-15.79-32.13-3.9-13.61-5.85-30.72-5.85-51.33 0-18.41 1.7-34.37 5.11-47.88 3.39-13.52 8.4-24.38 15.02-32.58 6.4-7.82 14.05-13.51 22.96-17.11 8.91-3.61 19.07-5.41 30.48-5.41 9.8 0 19.17 1.65 28.08 4.96 8.88 3.3 16.44 8.85 22.66 16.66zm133 81.96c0-55.44-16.15-99.13-48.48-131.05-32.34-31.93-77.72-47.88-136.16-47.88-58.45 0-103.85 15.95-136.17 47.88-32.32 31.92-48.49 75.61-48.49 131.05 0 55.85 16.26 99.69 48.79 131.51 32.54 31.82 77.81 47.73 135.87 47.73 58.85 0 104.34-16.02 136.46-48.03 32.12-32.03 48.18-75.76 48.18-131.21M5849.99 1260.16c7 8.59 12.26 18.95 15.75 31.07 3.51 12.11 5.26 28.87 5.26 50.29 0 19.81-1.8 36.42-5.41 49.85-3.6 13.41-8.6 24.11-15.01 32.12-6.4 8.19-14.11 14-23.13 17.42-8.99 3.39-18.71 5.09-29.1 5.09-10.42 0-19.67-1.4-27.79-4.19-8.1-2.81-15.86-8.42-23.25-16.83-6.62-7.79-11.87-18.51-15.78-32.13-3.9-13.61-5.86-30.72-5.86-51.33 0-18.41 1.71-34.37 5.12-47.88 3.39-13.52 8.4-24.38 15.02-32.58 6.4-7.82 14.04-13.51 22.96-17.11 8.91-3.61 19.07-5.41 30.48-5.41 9.8 0 19.16 1.65 28.07 4.96 8.89 3.3 16.45 8.85 22.67 16.66zm133 81.96c0-55.44-16.16-99.13-48.48-131.05-32.34-31.93-77.72-47.88-136.16-47.88-58.45 0-103.85 15.95-136.17 47.88-32.32 31.92-48.5 75.61-48.5 131.05 0 55.85 16.27 99.69 48.79 131.51 32.55 31.82 77.81 47.73 135.88 47.73 58.85 0 104.34-16.02 136.45-48.03 32.12-32.03 48.19-75.76 48.19-131.21M6279.93 1266.49v165.69a106.22 106.22 0 0 1-23.96 6.91c-8.4 1.41-16.08 2.11-23.07 2.11-28.38 0-49.63-8.86-63.81-26.62-14.19-17.73-21.28-42.34-21.28-73.82 0-33.07 5.71-57.08 17.08-72.02 11.38-14.93 29.65-22.39 54.83-22.39 9.78 0 20.15 1.85 31.15 5.57 10.98 3.7 20.67 8.55 29.06 14.57zm108.38-92.81h-108.38v35.13c-18.6-15.2-35.99-26.42-52.18-33.62-16.2-7.2-34.89-10.8-56.08-10.8-40.98 0-73.77 15.8-98.35 47.43-24.6 31.62-36.89 74.26-36.89 127.9 0 28.62 4.15 53.99 12.45 76.11 8.29 22.11 19.65 41.08 34.03 56.9 13.59 15.01 30.09 26.67 49.48 34.98 19.4 8.3 38.78 12.45 58.18 12.45 20.17 0 36.73-2.15 49.62-6.45 12.89-4.31 26.15-9.76 39.74-16.36v143.51h108.38v-467.18M6956.36 1477.06c0 12.59-3.41 23.42-10.22 32.51-6.79 9.08-14.69 15.43-23.7 19.02-12.02 4.79-23.72 7.44-35.15 7.94-11.39.49-26.61.75-45.62.75h-19.81v-133.61h33.03c19.61 0 35.77 1.2 48.48 3.6 12.7 2.4 23.36 7.18 31.98 14.37 7.4 6.39 12.75 14.04 16.07 22.92 3.3 8.88 4.94 19.72 4.94 32.5zm119.2 2.57c0-20.02-3.51-39.59-10.51-58.7-7-19.12-17.01-35.18-30.03-48.18-17.82-17.62-37.69-30.93-59.59-39.94-21.92-9-49.19-13.51-81.83-13.51h-71.74v-145.62h-115.3v447.06h189.76c28.42 0 52.38-2.45 71.91-7.36 19.5-4.9 36.76-12.25 51.78-22.06 18.02-11.82 31.78-26.92 41.29-45.34 9.49-18.41 14.26-40.53 14.26-66.35M7383.93 1407.87h-9.58c-4.58 1.6-12 2.81-22.18 3.61-10.19.79-18.67 1.2-25.45 1.2-15.38 0-28.96-1.01-40.73-3.01-11.81-2-24.5-5.4-38.07-10.2v-225.79h-108.38v337.18h108.38v-49.55c23.77 20.42 44.43 33.98 62.01 40.68 17.57 6.71 33.75 10.07 48.55 10.07 3.79 0 8.07-.1 12.88-.3 4.77-.2 8.97-.51 12.57-.9v-102.99M7645.17 1260.16c7 8.59 12.25 18.95 15.78 31.07 3.47 12.11 5.24 28.87 5.24 50.29 0 19.81-1.81 36.42-5.4 49.85-3.61 13.41-8.62 24.11-15.02 32.12-6.41 8.19-14.12 14-23.11 17.42-9.01 3.39-18.72 5.09-29.13 5.09-10.42 0-19.66-1.4-27.77-4.19-8.1-2.81-15.87-8.42-23.27-16.83-6.6-7.79-11.86-18.51-15.76-32.13-3.91-13.61-5.86-30.72-5.86-51.33 0-18.41 1.71-34.37 5.1-47.88 3.41-13.52 8.41-24.38 15.02-32.58 6.39-7.82 14.07-13.51 22.97-17.11 8.89-3.61 19.06-5.41 30.46-5.41 9.81 0 19.16 1.65 28.08 4.96 8.91 3.3 16.47 8.85 22.67 16.66zm133.01 81.96c0-55.44-16.18-99.13-48.49-131.05-32.32-31.93-77.73-47.88-136.16-47.88-58.45 0-103.83 15.95-136.17 47.88-32.32 31.92-48.48 75.61-48.48 131.05 0 55.85 16.25 99.69 48.8 131.51 32.52 31.82 77.81 47.73 135.85 47.73 58.84 0 104.33-16.02 136.45-48.03 32.14-32.03 48.2-75.76 48.2-131.21M8063.45 1279.96v152.84c-6.2 2.58-13.81 4.65-22.79 6.16-8.97 1.49-17.08 2.24-24.26 2.24-28.36 0-49.62-8.16-63.8-24.46-14.19-16.32-21.28-39.09-21.28-68.31 0-32.43 6.03-55.05 18.13-67.86 12.07-12.81 30.01-19.21 53.77-19.21 10.77 0 21.37 1.7 31.74 5.1 10.39 3.4 19.88 7.91 28.49 13.5zm108.38-67.55c0-31.62-4.52-58.24-13.52-79.85-9-21.62-21.61-38.53-37.84-50.74-16.2-12.41-35.77-21.37-58.69-26.88-22.91-5.5-48.79-8.26-77.61-8.26-23.43 0-46.5 1.4-69.21 4.21-22.71 2.8-42.37 6.2-58.98 10.21v84.36h13.17c13.19-5.2 29.29-9.95 48.27-14.26 19-4.29 35.98-6.45 50.98-6.45 19.97 0 36.22 1.85 48.72 5.56 12.48 3.7 22.01 8.95 28.61 15.76 6.19 6.4 10.71 14.61 13.49 24.61 2.81 10.01 4.23 22.02 4.23 36.03v6.31c-13-10.62-27.41-19.02-43.21-25.21-15.78-6.23-33.37-9.32-52.77-9.32-47.17 0-83.55 14.21-109.16 42.63-25.59 28.42-38.38 71.67-38.38 129.71 0 27.82 3.91 51.84 11.69 72.05 7.81 20.23 18.79 37.84 33 52.85 13.19 14 29.44 24.92 48.72 32.72 19.31 7.81 39.03 11.71 59.23 11.71 18.2 0 34.74-2.15 49.62-6.45 14.9-4.31 28.44-10.26 40.64-17.87l3.91 15.02h105.09v-298.45M8506.61 1407.87h-9.59c-4.6 1.6-11.98 2.81-22.17 3.61-10.19.79-18.67 1.2-25.47 1.2-15.38 0-28.95-1.01-40.74-3.01-11.77-2-24.46-5.4-38.03-10.2v-225.79H8262.2v337.18h108.41v-49.55c23.76 20.42 44.43 33.98 62 40.68 17.58 6.71 33.76 10.07 48.52 10.07 3.8 0 8.11-.1 12.88-.3 4.81-.2 9.01-.51 12.6-.9v-102.99M8760.33 1261.88v70.04c-14.61-1.2-30.41-2.86-47.42-4.94-17.04-2.1-29.94-4.54-38.74-7.35-10.82-3.39-19.07-8.32-24.78-14.8-5.7-6.5-8.55-15.02-8.55-25.59 0-6.98.61-12.68 1.8-17.06 1.21-4.39 4.22-8.58 9.02-12.57 4.6-3.99 10.1-6.93 16.49-8.83 6.42-1.89 16.43-2.84 30.03-2.84 10.82 0 21.77 2.19 32.88 6.57 11.12 4.4 20.87 10.19 29.27 17.37zm0-52.46c-5.79-4.42-13.02-9.71-21.61-15.91-8.59-6.21-16.72-11.12-24.34-14.72-10.58-4.8-21.61-8.36-33-10.66-11.41-2.3-23.93-3.45-37.53-3.45-32.02 0-58.85 9.9-80.46 29.72-21.63 19.82-32.43 45.13-32.43 75.96 0 24.62 5.5 44.74 16.52 60.36 11 15.6 26.61 27.92 46.82 36.92 20.02 9.01 44.84 15.41 74.46 19.22 29.63 3.8 60.35 6.6 92.18 8.4v1.8c0 18.63-7.61 31.48-22.82 38.59-15.23 7.1-37.62 10.66-67.25 10.66-17.81 0-36.83-3.15-57.05-9.46-20.22-6.31-34.72-11.15-43.54-14.57h-9.9v81.36c11.41 3.01 29.96 6.56 55.68 10.67 25.73 4.1 51.51 6.15 77.32 6.15 61.45 0 105.85-9.45 133.15-28.37 27.32-18.91 40.99-48.59 40.99-89.02v-229.39h-107.19v35.74M9284.58 1412.68v-239H9176.2v168.44c0 16.41-.4 30.37-1.21 41.89-.78 11.5-2.98 20.86-6.59 28.07-3.6 7.2-9.07 12.45-16.37 15.76-7.31 3.3-17.57 4.96-30.77 4.96-10.62 0-20.92-2.16-30.92-6.46-10.02-4.31-19.01-8.87-27.03-13.66v-239h-108.38v337.18h108.38v-37.23c18.58 14.6 36.39 26.01 53.38 34.22 16.98 8.21 35.77 12.31 56.38 12.31 22.19 0 41.78-4.95 58.78-14.85 16.98-9.92 30.27-24.48 39.88-43.7 21.56 18.22 42.55 32.53 62.95 42.94 20.38 10.4 40.37 15.61 59.97 15.61 36.36 0 64-10.91 82.88-32.72 18.9-21.82 28.35-53.24 28.35-94.28v-219.48h-108.41v168.44c0 16.61-.33 30.63-1.05 42.04-.7 11.4-2.86 20.71-6.44 27.92-3.41 7.2-8.82 12.45-16.23 15.76-7.4 3.3-17.79 4.96-31.22 4.96-8.99 0-17.81-1.57-26.41-4.66-8.62-3.1-19.13-8.26-31.54-15.46M9923.53 1412.68v-239h-108.4v168.44c0 16.41-.41 30.37-1.19 41.89-.81 11.5-3.01 20.86-6.61 28.07-3.61 7.2-9.06 12.45-16.35 15.76-7.32 3.3-17.58 4.96-30.79 4.96-10.63 0-20.92-2.16-30.93-6.46-10.01-4.31-19.02-8.87-27.02-13.66v-239h-108.38v337.18h108.38v-37.23c18.6 14.6 36.39 26.01 53.39 34.22 16.99 8.21 35.77 12.31 56.37 12.31 22.18 0 41.77-4.95 58.76-14.85 16.99-9.92 30.29-24.48 39.88-43.7 21.6 18.22 42.57 32.53 62.95 42.94 20.4 10.4 40.41 15.61 60.01 15.61 36.3 0 64-10.91 82.9-32.72 18.8-21.82 28.3-53.24 28.3-94.28v-219.48h-108.4v168.44c0 16.61-.3 30.63-1 42.04-.7 11.4-2.9 20.71-6.5 27.92-3.4 7.2-8.8 12.45-16.2 15.76-7.4 3.3-17.83 4.96-31.23 4.96-9.02 0-17.82-1.57-26.43-4.66-8.6-3.1-19.1-8.26-31.51-15.46M10457.7 1385.66c-.6 22.61-6.2 39.63-16.8 51.03-10.6 11.42-27.2 17.12-49.6 17.12-20.8 0-37.9-5.41-51.3-16.21-13.4-10.81-20.9-28.13-22.5-51.94zm107.5-63.35h-247.4c1.6-26.43 11.6-46.64 30.1-60.66 18.5-14 45.8-21.01 81.9-21.01 22.8 0 44.9 4.1 66.3 12.3 21.4 8.21 38.3 17.01 50.7 26.44h12v-86.77c-24.4-9.82-47.4-16.92-69-21.33-21.6-4.39-45.5-6.6-71.8-6.6-67.6 0-119.4 15.21-155.5 45.63-36 30.42-54 73.76-54 130 0 55.64 17 99.73 51.2 132.27 34.1 32.52 80.9 48.78 140.3 48.78 54.9 0 96.1-13.86 123.7-41.58 27.7-27.73 41.5-67.6 41.5-119.64v-37.83M412.18 255.602L354.645 69.93h-63.18l-37.832 125.16-37.37-125.16h-63.814L95.413 255.602h62.434l31.87-127.973L229.325 255.6h52.742L319.73 127.63 351.078 255.6h61.102M568.082 283.54h-4.45c-2.64.77-6.073 1.65-10.308 2.64-4.226.992-8.762 1.492-13.597 1.492-11.653 0-19.536-2.09-23.657-6.28-4.12-4.193-6.183-12.302-6.183-24.31v-1.48h45.797v-40.34H511.87V69.93H452.19v145.332H426.73v40.34h25.458v5.128c0 22.692 6.035 39.72 18.105 51.08 12.066 11.35 30.336 17.022 54.805 17.022 8.82 0 16.804-.3 23.968-.91 7.168-.602 13.5-1.402 19.016-2.39v-41.993M723.16 164.082c0 18.047-3.082 31.148-9.238 39.29-6.156 8.148-15.895 12.218-29.195 12.218-5.61 0-11.387-.86-17.32-2.56a73.188 73.188 0 0 1-16.993-7.34v-93.28c3.96-1.54 8.195-2.52 12.7-2.96a138.68 138.68 0 0 1 13.366-.67c15.723 0 27.438 4.6 35.13 13.79 7.702 9.192 11.55 23.032 11.55 41.512zm61.336 1.238c0-15.32-2.344-29.25-7.012-41.82-4.687-12.57-10.82-22.93-18.418-31.09-7.92-8.59-16.898-15.09-26.914-19.5-10.02-4.41-20.75-6.61-32.203-6.61-10.563 0-19.54 1.122-26.915 3.39-7.375 2.26-14.914 5.42-22.62 9.5V1.82H590.73v253.782h59.684V236.25c9.137 7.28 18.47 13.18 27.988 17.69 9.524 4.52 20.504 6.79 32.946 6.79 23.117 0 41.086-8.5 53.91-25.468 12.812-16.98 19.238-40.293 19.238-69.942M829.625 69.93h61.836v64.968h-61.835zM1066.37 117.55c3.86 4.74 6.75 10.442 8.68 17.11 1.93 6.672 2.89 15.9 2.89 27.7 0 10.902-.98 20.05-2.96 27.44-2 7.38-4.75 13.282-8.28 17.68-3.52 4.52-7.77 7.72-12.72 9.59-4.96 1.88-10.31 2.82-16.05 2.82-5.73 0-10.82-.78-15.29-2.32-4.46-1.54-8.73-4.63-12.81-9.26-3.63-4.29-6.52-10.19-8.67-17.69-2.152-7.49-3.234-16.92-3.234-28.26 0-10.15.937-18.938 2.814-26.38 1.87-7.44 4.63-13.42 8.27-17.94 3.52-4.302 7.74-7.43 12.65-9.42 4.9-1.99 10.49-2.972 16.77-2.972 5.4 0 10.56.91 15.46 2.723 4.9 1.82 9.06 4.88 12.48 9.18zm73.24 45.13c0-30.532-8.9-54.578-26.69-72.16-17.81-17.59-42.8-26.38-74.99-26.38-32.17 0-57.172 8.79-74.965 26.38-17.805 17.582-26.7 41.628-26.7 72.16 0 30.75 8.954 54.89 26.864 72.41 17.91 17.53 42.84 26.29 74.8 26.29 32.42 0 57.46-8.82 75.15-26.45 17.69-17.63 26.53-41.71 26.53-72.25M1316.85 198.89h-5.29c-2.53.88-6.6 1.54-12.2 1.98-5.62.44-10.29.67-14.03.67-8.46 0-15.95-.56-22.43-1.65-6.49-1.11-13.48-2.98-20.95-5.628V69.93h-59.68v185.672h59.68V228.31c13.09 11.25 24.47 18.71 34.14 22.41 9.68 3.69 18.59 5.53 26.73 5.53 2.08 0 4.46-.05 7.09-.148 2.64-.122 4.95-.293 6.94-.5v-56.71M1471.42 128.46v84.15c-3.41 1.44-7.59 2.562-12.53 3.39-4.95.832-9.41 1.238-13.36 1.238-15.63 0-27.34-4.488-35.14-13.476-7.81-8.98-11.72-21.512-11.72-37.614 0-17.847 3.33-30.308 9.98-37.36 6.65-7.058 16.53-10.577 29.61-10.577 5.94 0 11.77.93 17.49 2.81 5.71 1.87 10.94 4.35 15.67 7.44zm59.68-37.198c0-17.422-2.48-32.07-7.44-43.973-4.96-11.91-11.9-21.22-20.83-27.938-8.92-6.84-19.7-11.77-32.32-14.813-12.62-3.02-26.87-4.54-42.74-4.54-12.89 0-25.59.77-38.1 2.32-12.51 1.54-23.34 3.41-32.49 5.61v46.468h7.26c7.27-2.867 16.13-5.488 26.59-7.86 10.44-2.366 19.8-3.546 28.05-3.546 11.01 0 19.95 1.02 26.84 3.06 6.87 2.038 12.13 4.93 15.76 8.667 3.41 3.53 5.89 8.05 7.43 13.56 1.53 5.51 2.31 12.118 2.31 19.84v3.47c-7.15-5.852-15.08-10.47-23.78-13.88-8.69-3.42-18.38-5.128-29.06-5.128-25.98 0-46.01 7.816-60.1 23.477-14.1 15.64-21.14 39.452-21.14 71.41 0 15.33 2.14 28.55 6.44 39.678 4.3 11.133 10.35 20.844 18.16 29.102 7.27 7.72 16.21 13.72 26.84 18.02 10.61 4.3 21.49 6.46 32.61 6.46 10.02 0 19.13-1.2 27.33-3.558 8.19-2.37 15.66-5.652 22.37-9.84l2.15 8.27h57.86V91.262M1761.41 327.18L1630.29 16.37h-50.75l130.58 310.81h51.29M2017.82 69.93h-69.28l-52.04 80.742-16.06-19.793V69.93h-59.69v257.25h59.69V173.738l63.93 81.864h68.66l-66.71-80.02 71.5-105.652M2164.46 117.55c3.86 4.74 6.75 10.442 8.68 17.11 1.93 6.672 2.9 15.9 2.9 27.7 0 10.902-.99 20.05-2.97 27.44-2 7.38-4.75 13.282-8.28 17.68-3.52 4.52-7.77 7.72-12.72 9.59-4.96 1.88-10.31 2.82-16.04 2.82-5.74 0-10.82-.78-15.3-2.32-4.46-1.54-8.73-4.63-12.81-9.26-3.63-4.29-6.52-10.19-8.67-17.69-2.15-7.49-3.23-16.92-3.23-28.26 0-10.15.93-18.938 2.81-26.38 1.87-7.44 4.63-13.42 8.27-17.94 3.53-4.302 7.74-7.43 12.65-9.42 4.9-1.99 10.49-2.972 16.77-2.972 5.4 0 10.56.91 15.46 2.723 4.9 1.82 9.06 4.88 12.48 9.18zm73.25 45.13c0-30.532-8.91-54.578-26.7-72.16-17.81-17.59-42.8-26.38-74.98-26.38-32.18 0-57.18 8.79-74.98 26.38-17.8 17.582-26.69 41.628-26.69 72.16 0 30.75 8.95 54.89 26.86 72.41 17.91 17.53 42.84 26.29 74.81 26.29 32.41 0 57.45-8.82 75.14-26.45 17.69-17.63 26.54-41.71 26.54-72.25"></path></g></svg>