<svg xmlns="http://www.w3.org/2000/svg" viewBox="0 0 310.62668 378.81332" height="378.813" width="310.627"><defs><clipPath id="a"><path d="M0 0h2329.69v2841H0z"></path></clipPath></defs><g clip-path="url(#a)" fill="#fff" transform="matrix(.13333 0 0 -.13333 0 378.813)"><path d="M539.828 260.238L481.25 71.198h-64.32l-38.528 127.423L340.355 71.2H275.39l-58.078 189.038h63.57l32.454-130.29 40.324 130.29h53.695l38.348-130.29 31.918 130.29h62.208"></path><path d="M681.324 288.68h-4.53c-2.692.78-6.19 1.68-10.493 2.69-4.308 1.01-8.92 1.52-13.85 1.52-11.86 0-19.89-2.14-24.087-6.39-4.19-4.27-6.293-12.52-6.293-24.75v-1.512h46.625V219.16h-44.6V71.2h-60.77v147.96H537.4v41.078h25.922v5.21c0 23.122 6.145 40.45 18.434 52.013 12.29 11.57 30.887 17.34 55.8 17.34 8.973 0 17.11-.308 24.407-.92 7.293-.63 13.742-1.44 19.36-2.44v-42.76M821.973 167.06c0 18.37-3.133 31.71-9.407 40-6.265 8.292-16.175 12.432-29.718 12.432-5.715 0-11.594-.87-17.637-2.594-6.046-1.738-11.812-4.238-17.3-7.476V114.45c4.028-1.57 8.34-2.57 12.934-3.02 4.59-.45 9.12-.668 13.605-.668 16.003 0 27.933 4.668 35.77 14.027 7.84 9.35 11.753 23.44 11.753 42.27zm62.453 1.272c0-15.602-2.383-29.793-7.153-42.59-4.757-12.793-11.007-23.35-18.738-31.652-8.07-8.75-17.207-15.37-27.406-19.86-10.196-4.48-21.126-6.73-32.786-6.73-10.754 0-19.89 1.148-27.403 3.45-7.506 2.3-15.186 5.53-23.03 9.68V1.86h-60.765v258.378h60.765v-19.7c9.3 7.403 18.8 13.41 28.496 18.013 9.692 4.598 20.875 6.9 33.54 6.9 23.534 0 41.83-8.64 54.894-25.92 13.055-17.28 19.586-41.01 19.586-71.198M913.145 71.2h62.953v66.16h-62.953zM1136.95 119.68c3.92 4.82 6.87 10.63 8.84 17.422 1.96 6.79 2.94 16.187 2.94 28.187 0 11.12-1.01 20.43-3.03 27.952-2.02 7.508-4.83 13.52-8.41 18.008-3.6 4.602-7.91 7.852-12.96 9.77-5.06 1.902-10.5 2.86-16.33 2.86-5.84 0-11.03-.79-15.57-2.36-4.55-1.58-8.9-4.71-13.05-9.43-3.7-4.37-6.65-10.38-8.84-18.008-2.19-7.633-3.28-17.223-3.28-28.793 0-10.32.95-19.26 2.86-26.84 1.91-7.58 4.71-13.66 8.42-18.26 3.59-4.38 7.88-7.58 12.88-9.6 4.99-2.008 10.68-3.03 17.08-3.03 5.5 0 10.74.932 15.74 2.78 4.99 1.85 9.23 4.96 12.71 9.34zm74.57 45.96c0-31.09-9.06-55.58-27.19-73.48-18.12-17.898-43.57-26.85-76.33-26.85-32.77 0-58.22 8.952-76.34 26.85-18.12 17.9-27.18 42.39-27.18 73.48 0 31.31 9.11 55.88 27.35 73.72 18.23 17.84 43.62 26.76 76.17 26.76 32.99 0 58.49-8.98 76.51-26.93 18-17.96 27.01-42.47 27.01-73.55M1374.73 202.5h-5.37c-2.58.89-6.73 1.56-12.43 2.012-5.71.45-10.47.68-14.28.68-8.62 0-16.24-.563-22.84-1.68-6.61-1.133-13.72-3.032-21.33-5.723V71.2h-60.77v189.038h60.77V232.46c13.32 11.45 24.91 19.052 34.77 22.81 9.84 3.76 18.91 5.64 27.2 5.64 2.13 0 4.54-.058 7.22-.18 2.7-.1 5.04-.27 7.06-.492V202.5M1514.87 130.79v85.68c-3.47 1.452-7.73 2.6-12.77 3.452-5.03.84-9.57 1.258-13.6 1.258-15.9 0-27.82-4.578-35.77-13.72-7.95-9.15-11.92-21.91-11.92-38.288 0-18.18 3.38-30.87 10.15-38.05 6.78-7.173 16.83-10.77 30.15-10.77 6.04 0 11.98.957 17.8 2.86 5.82 1.91 11.14 4.44 15.96 7.577zm60.77-37.868c0-17.73-2.53-32.653-7.58-44.774-5.05-12.117-12.12-21.61-21.21-28.45-9.09-6.96-20.06-11.98-32.91-15.07C1501.09 1.54 1486.59 0 1470.43 0c-13.13 0-26.06.78-38.79 2.36-12.75 1.57-23.77 3.48-33.08 5.722V55.38h7.39c7.39-2.92 16.42-5.58 27.06-8 10.65-2.41 20.17-3.618 28.58-3.618 11.2 0 20.31 1.047 27.31 3.117 7 2.08 12.35 5.03 16.06 8.83 3.46 3.6 5.99 8.2 7.55 13.81 1.58 5.61 2.36 12.35 2.36 20.2v3.53a90.377 90.377 0 0 0-24.21-14.14c-8.85-3.47-18.71-5.208-29.59-5.208-26.45 0-46.85 7.97-61.19 23.887-14.35 15.94-21.53 40.18-21.53 72.73 0 15.6 2.19 29.062 6.57 40.39 4.36 11.34 10.52 21.21 18.48 29.63 7.41 7.85 16.51 13.972 27.33 18.35 10.81 4.372 21.88 6.56 33.2 6.56 10.2 0 19.47-1.208 27.82-3.618 8.35-2.41 15.94-5.75 22.79-10.012l2.18 8.418h58.92V92.922M1792.88 333.12L1659.39 16.66h-51.67l132.94 316.46h52.22M2025.94 71.2h-60.76v93.76c0 7.63-.4 15.24-1.18 22.81-.79 7.57-2.13 13.152-4.04 16.742-2.25 4.148-5.53 7.187-9.85 9.097-4.31 1.902-10.35 2.86-18.09 2.86-5.5 0-11.09-.9-16.75-2.7-5.67-1.8-11.81-4.66-18.43-8.58V71.2h-60.77v189.038h60.77v-20.88c10.75 8.423 21.09 14.872 31.01 19.36 9.92 4.48 20.93 6.73 33.03 6.73 20.4 0 36.34-5.948 47.83-17.84 11.49-11.897 17.23-29.686 17.23-53.358V71.2M2064.42 71.2h60.77v261.92h-60.77zM1340.5 2137.63c12.51 27.07 24.09 48.62 40.79 74.3 7.38 11.32 15.7 19.22 23.12 30.68-3.55 1.01-8.73-1.91-10.97-3.51-7.42-5.38-10.77-14.12-16.71-18.8-14.03-11.07-13.64-21.1-20.99-26.28-6.57-4.63-8.46-7.68-13.06-14.9-3.08-4.82-5.34-8.73-8.59-18.23-1.16-3.42-3.45-.39-8.93-7.93-7.19-9.8-10.41-20.39-13.39-32.26-.95-3.9-7.59-5.97-11.85-14.07-5.72-10.92-9.44-21.03-11.91-36.95-.61-3.69-6.85-6.25-11.16-16.53-3.05-7.23-5.23-8.83-7.9-22.45-1.64-8.31-5.43-9.51-9.7-21.57-3.3-9.2-3.42-18.06-4.58-30.08-.26-2.33-4.2-6.95-7.83-13.69-6.09-11.26-5.9-18.78-8.32-30.41-.93-4.2-5.64-9.77-10.18-27.79-3.98-15.98-.33-26.58-1.67-34.45-3.53-20.45-7.04-38.21-5.14-58.35.94-9.85 2.44-20.01 1.78-29.48-1.88-29.7-3.48-54.17-3.32-87.83.1-18.32 1.54-43.41 4.31-64.29 3.05-23.06 7.44-41.07 7.44-41.07h75.14s-2.94 43.45.96 89.19c2.3 27.42 8.83 56.48 14.75 76.89 7.51 26.03 12.18 39.51 26.38 73.85.29.76-.11 3.98-3.86.83-7.84-6.58-14.38-12.37-20.57-21.69-9.46-14.25-15.22-25.99-22.87-40.63-8.95-17.02-13.89-31.84-23.11-52.52-.55 14.92 1.87 29.12 4.9 42.87 3.11 14.04 5.57 25.16 9.98 37.26 7.83 21.35 15.43 39.16 27.99 59.03 7.28 11.47 16.57 21.77 26.02 30.32 11.29 10.32 21.72 19.39 33.54 29.5-12.41 6.4-28.95-6.97-32.26-7.65-17.48-3.4-24.58-19.61-29.94-21.82-7.64-3.2-12.07-7.89-17.38-14.33-4.08-4.85-5.31-12.33-9.59-14.99-7.13-4.44-12.36-11.14-17.26-20.5-2.02-3.86-7.5-22.13-13.6-19.78 10.42 61.93 32.29 120.01 67.38 171.69 22.25 32.78 46.45 60.9 82.12 86.11 4.7 3.34 5.62 4.89-.94 4.66-33.34-4.05-35.38-19.27-40.87-20.71-5.21-1.35-11.65-7.52-15.77-11.54-7.42-7.32-7.29-13.5-10.13-15.42-6.08-4.25-10.67-8.66-14.82-16.02-2.18-3.85-5.85-12.31-9.11-14.24-8.56-4.96-16.85-12.19-20.98-19.99-3.06-5.7-4.27-11.89-8.26-17.49-4.26-6.02-10.23-10.53-15.36-14.88 3.9 26.46 16.37 57.82 24.95 84.87 11.54 36.12 25.54 68.95 41.33 103.07M1417.21 1923.13c28.45 63.85 58.37 111.9 97.27 168.11 5.08 7.37 9.64 14.58 14.08 21.49 1.99 3.11 11.55 16.85 13.54 19.76 13.04 19.69 18.52 25.72 31.87 44.53 3.61 5.11 6.54 9.13 8.09 15.04 2.84 11.01-6.62 18.4-8.79 28.96-2.2 10.79-1 22.57 3.95 31.68 3.11 5.69 6.19 7.93 9.32 15.57 6.06 14.73 3.96 46.6 10.87 47.44-1.75-15.13-2.15-32.13.22-46.64 2.77-16.93 13.04-27.18 17.28-45.11 11.42 2.06 23.83 1.57 33.44.74 9.55-.82 21.62 1.83 31.4 5.18 13.26 4.53 24.28 12.78 37.79 15.98-11.49-11.05-27.72-15.2-41.32-23.59-5-3.14-9.71-7.29-13.05-12.45-5.47-8.5-9.79-16.64-18.34-20.37-15.2-6.63-28.24-3.49-45.58-6.72-25.76-26.53-50.01-62.62-72.38-100.57-56.73-95.98-104.03-195.37-131.53-297.29 9.51 17.73 18.59 34.88 28.89 51.75 11.38 18.74 24.18 37.09 38.14 55.47 32.65 43.05 64.97 80.64 101.17 120.19 29.22 31.95 61.24 58.76 96.95 81.18 47.19 29.57 105.41 50.28 156.57 39.6 5.82-1.36 14.14-2.91 17.77-6.74-64.11 8.98-121.54-13.42-164.4-47.74-33.85-27.08-62.39-54.56-91.38-90.27-14.98-17.21-28.46-36.13-41.84-54.45-14.01-19.27-26.44-39.55-38.77-59.83-41.54-68.61-72.99-141.25-96.11-216.51-.66-2.39-.81-4.79-1.47-7.16 1.1 1.69 2.72 3.53 3.81 5.25 31.13 50.61 68.56 99.45 115.96 132.22 4.14 2.82 8.46 8.26 9.57 12.53 5.13 20.09-10.19 29.75 11 57.52 4.86 6.38 11.5 8.71 16.09 14.64 8.67 13.4 15.74 37.41 23.01 43.86-3.65-15.63-12.62-32.15-14.53-48.26-2.03-17.68 2.49-32.14 3.28-50.88 12.52-1.71 22.2-7.01 32.03-10.04 15.27-4.77 24.45-3.56 39.57-2.25 6.44.54 18.14 4.31 25.1 2.89-14.61-7.98-34.34-6.51-49.29-14.14-10.46-5.36-13.49-13.27-27.91-16.05-12.84-2.5-23.64-1.16-31.98 3.12-6.5 3.27-11.57 4.64-17.4 1.85-15.55-7.47-26.18-18.02-38.7-30.65-29.08-29.26-52.81-61.92-74.96-104.75-5.86-11.39-11.13-22.64-16.13-34.25-2.46-5.65-8.59-21.34-8.59-21.34h-75.98s-.2 21.91.52 29.91c1.45 15.95 3.62 27.76 6.72 43.94 4.4 23.26 8.72 44.37 14.75 66.94 5.88 21.96 12.22 42.56 19.75 63.65 15.7 43.96 32.4 86.06 50.66 127.06M682.555 1331.28c27.734 22.68 48.265 35.82 75.957 52.33 11.246 6.72 28.258 14.33 41.336 20.26 47.984 21.68 111.464 37.67 171.27 38.77 1.085 0 1.015-.05 1.015-.05h445.897s-1.66.05 1.56.05c14.19 0 28.23-4.95 36.92-13.14 8.7-8.26 12.86-20.98 15.14-33.63 1.92-10.78.97-20.36-1.54-31.89-1.96-9.11-3.43-14.54-8.5-22.28-3.07-4.71-5.98-7.94-11.68-12.48-5.86-4.68-14.16-6.31-23.68-6.4-.99-.04-3.12-.1-3.04-.07.1.07-521.565.07-521.565.07s-3.243.01-4.872.01c-34.144.11-70.093-1.63-103.835-6.03-25.844-3.53-51.743-7.56-76.723-14.06-31.504-8.23-61.836-19.62-92.117-30.91 16.785 22.31 36.16 41.24 58.457 59.45"></path><path d="M837.387 1508.69c27.398 19.79 60.66 36.04 90.125 47.32 14.95 5.66 34.812 11.93 50.593 15.86 19.063 4.81 40.965 8.42 58.835 8.94 5.38.15.79.04.79.04l382.45.04s8.19-.44 11.04-1c7.18-1.55 12.98-4.48 15.39-6.01 5.93-3.81 13.39-11.81 17.29-18.14 9.93-16.35 11.68-34 8.47-52.37-3.67-20.97-19.61-44.86-41.23-45.45-3.77-.1-11.28 0-11.28 0h-414.23s-24.11-.47-35.122-.87c-20.375-.8-42.965-3.12-60.75-5.74-15.215-2.19-30.078-5.07-45.317-9.15-51.065-13.8-95.44-39.7-141.85-59.84 31.254 54.63 73.54 96.48 114.797 126.37M623.438 1248.76c66.488 39.28 146.582 54.77 219.886 57.23 1.742.08 5.223.19 5.223.19l571.733-.05s1.03 0 6.21.05c34.65.03 47.3-34.35 47.15-62.15-.07-9.16-1.62-18.5-4.16-24.77-3.29-8.19-6.94-14.88-12.89-21.34-2.13-2.34-9.79-7.72-13.18-8.55-7.92-1.94-17.66-1.72-17.6-1.72.07 0-425.27-.08-425.27 0 0 0-22.946.92-38.868 2.45-11.473 1.13-20.18 2.33-32.094 4.6-29.285 5.82-53.562 15.35-78.926 23.17-16.918 5.24-34.714 9.13-53.273 11.94-34.138 5.22-71.42 7.6-105.892 4.99-43.847-3.26-82.843-11.85-124.554-25.08 7.054 10.99 36.37 27.12 56.504 39.04"></path><path d="M931.395 1069.48c-19.543 6.89-38.614 15.78-55.72 27.07-22.284 14.75-33.21 26.48-62.007 39.79-24.648 11.39-44.328 22.63-78.69 35.08-16.583 6.01-43.447 14.28-66.482 18.22-32.906 5.59-64.633 8.04-64.633 8.04s6.72 4.19 10.77 5.43c33.586 10.22 63.25 15.21 97.738 17.76 30.247 2.27 58.036-.68 88.357-5.42 12.44-1.96 28.613-5.79 42.668-9.8 45.636-12.99 97.523-33.59 143.546-33.67 2.572 0 2.28.04 2.28.04h426.31c12.87.04 36.94-4.13 46.6-21.21 11.2-19.68 14.68-43.12 5.28-66.6-2.85-7.05-7.58-17.16-14.38-23.28-5.96-5.4-15.66-8.87-21.27-8.87-1.62-.08-4.39 0-4.39 0h-371.7-2.02c-38.01 0-85.853 4.6-122.255 17.42M1100.71 937.64c-10.51 10.79-25.01 27.33-38.15 43.04-25.22 30.07-36.52 57.16-36.52 57.16h247.91s.66-28.6-5.07-61.72c-5.36-30.75-16.72-63.17-28.8-86.66-.44-24.08 9.73-46.472 11.4-70.26-20.36-12.5-42.27-24.868-60.52-42.42-1.16-1.08-3.04-1.08-3.82 1.83-9.77 36.66-14.92 69.34-22.94 105.59-22.6 17.472-43.8 33.038-63.49 53.44M1356.21 957.97c-7.02 12.952-12.25 30.05-20.3 40.22-1.73-9.07.4-14.65-.83-23.33-1.13-7.27-7.09-4.25-8.3-.83-3.47 9.84-7.17 21.99-10.35 32.08-5.28 16.8-6.97 31.68-6.97 31.68l41.24.05s1.58-.39 2.31-4.4c1.98-10.39 1.49-20.54 4.34-32.58 3.65-15.508 8.37-29.67 14.06-44.13 4.96-12.73 11.36-25.57 16.55-38.21.71-1.66 1.05-4.86-.2-6.52-1.53-1.918-4.16-1.68-5.68 0-11.8 13.43-16.57 28.64-25.87 45.97M1420.04 928.488c-7.01 14.953-16.87 31.762-16.01 48.723 4.56-5.99 6.43-10.28 12.71-13.62 2.87-.91 8.9-.06 7.39 4.96-2.78 9.34-7.08 17.25-11.07 30.07-5.92 18.95-11.67 39.2-11.67 39.2l-42.1.02s2.34-17.08 11.91-43.29c8.4-23.21 21.39-49.77 35.61-74.67 11.59-20.482 22.11-38.35 35.26-53.31 4.5-5.148 15.53-.63 10.76 6.07-12.47 17.64-24.11 37.17-32.79 55.848M1693.4 2351.38c-9.14-3.99-17.2-9.14-21.76-17.92-3.32-6.3-5.56-15.92.79-21.34 11.11-9.48 24.37.23 29.74 9.92 6.79 12.35 5.02 35.96 5.02 35.96s-7.89-4.11-13.79-6.62"></path><path d="M1703.06 2292.43c4 7.54 12.75 15.68 22.34 21.51 10.84 6.63 22.07 13.06 29.88 17.72 7.8 4.7 9.3 7.99 9.3 7.99s-6.44-2.22-9.97-4.3c-19.27-11.49-40.31-24.55-48.86-28.32-10.8-4.71-25.47-5.62-38.7-7.31-2.11 16.69-6.45 23.62-6.39 38.44.11 7.11 1.83 16.34 3.04 22.77 4.14 21.43 4.95 32.25 4.95 32.25s-3.27-3.05-4.47-12.48c-1.34-8.52-2.3-11.66-4.25-21.74-2.23-11.62-4.55-21.47-11.51-28.73-10.02-10.36-19.29-28.82-11.56-42.96 4.51-8.26 12.04-7.06 14.4-9.19 2.36-2.12 3.79-7.2 10.92-9.57 15.39-5.14 32.83 8.67 40.88 23.92"></path><path d="M1683.11 2248.36c5.22 8.48 10.59 14.43 18.82 19.48 13.66 8.33 23.8 13.97 32.13 18.24 3.61 1.81 6.63 3.97 7.55 7.83-3.73-1.4-17.84-8.03-31.84-16.36-10.03-5.98-27.27-13.46-38.85-13.99-4.59-.2-7.99.93-11.74 1.05-7.77.32-17.66-1.56-17.66-1.56s-2.51 10.99-5.83 18.9c-1.66 4.05-4.36 8.21-5.8 15.82-.98 5.08-1.26 12.71-.86 17.25 1.13 13.73 4.83 27.07 4.2 40.97-8.64-17.93-5.11-40.01-15.24-53.88-4.27-5.83-7.65-10.43-11.01-17.78-5.57-12.06-4.9-24.55 2.61-36.18 4.34-6.63 13.91-6.38 15.56-7.67 2.51-1.85 4.66-8.78 14.02-10.86 16.01-3.6 34.9 3.83 43.94 18.74M1687.58 1897.77c3.73 7.53 6.14 17.42 10.89 24.41-10.75-1.61-12.49-2.84-28.04-4.55-3.38-.32-10.4-3.84-12.71-6.15-6.15-6.21-11.52-11.96-9.13-22.38.92-4.05 4.49-7.02 6.48-7.65 12.93-4.2 26.06 3.49 32.51 16.32"></path><path d="M1700.71 1877.25c14.69 3.43 31.66 10.64 38.47 8.37-13.78-7.33-31.17-10-46.44-14.35-11.65-3.36-19.97-12.16-30.37-20.15-9.55-7.26-22.25-10.22-33.6-4.88-3.82 1.82-7.53 7.99-8.2 11.28-.59 2.63-6.07 5.27-8.89 7.58-2.83 2.36-4.19 8.25-4.25 10.52-.49 20.34 14.98 28.55 29.89 40.49 11.23 9 25.8 47.17 34.7 55.08-1.59-12.3-17.58-35.51-24.55-53.58-5.53-14.39-3.72-25.9-7.29-41.05 10.66-.67 22.55-2.91 33.28-3.08 8.42-.11 18.6 1.72 27.25 3.77"></path><path d="M1685.23 1845.9c-8.25-1.53-18.35-4.13-25.23-5.59-23.96-5.07-35.41 6.66-54.53 6.44 1.68 21.9-5.92 31.71.34 45.87 5.58 12.6 10.76 25.94 15.55 36.61 3.9 8.57 5.07 15.8 5.07 15.8s-5.8-8.69-22.31-40.86c-5.75-11.22-16.03-13.63-25.15-24.23-10.52-12.12-16.54-37.75 2.89-48.51 3.87-2.12 3.3-8.78 6.11-11.47 12.98-12.21 39.19-10.98 55.59 3.9 13.05 11.89 28.91 13.82 42.42 17.32 7.9 2.04 14.84 5.41 14.84 5.41s-3.75 1.52-15.59-.69M1205.23 1591.65c-.95 0-1.96 0 0 0zm-111.89 315.55c-7.98-10.56-11.68-22.7-20.5-31.92-4.6-4.83-11.62-2.57-15.27 2.99-4.04 6.29-10.59 15.18-5.72 21.39 8 10.27 24.75 16.82 39 14.96.84-.09 5.43-3.48 2.49-7.42zm-38.34-60.39c-4.47-11.96-17.8-13.26-29.14-15.62-2.12-.46-8.64 0-11.57 2.87-4.9 4.79-9.14 11.34-8.29 19.54.46 5.05 4.68 10.01 9.9 12.03 9.47 3.67 20.7 9.57 30.03 4.33 8.03-4.48 12.24-14.73 9.07-23.15zm-24.55-63.22c-3.26-4.71-11.64 10.95-12.73 18.12-3.13 20.77 15.07 26.07 30.24 25.43.47-12.39-9.13-31.57-17.51-43.55zm-16.38-56.03c-2.98-8.35-4.41-16.04-7.73-23.69-3.22-7.4-16.97-10.04-24.602-7.67-10.894 3.37-20.238 27.83-7.855 37.2 9.476 7.08 19.293 8.22 31.357 9.7 2.17.26 10.28-.23 10.59-.99 2.03-5.07.75-7.61-1.76-14.55zm-18.34-64.59c-2.207-6.42-3.18-13.02-6.02-19.19-1.417-3.13-3.284.98-3.358 1.19-4.282 10.64-6.98 19.65-3.332 29.02 2.062 5.19 9.164 9.96 15.902 10.38-.414-6.67-.89-14.9-3.192-21.4zm-21.648-31.49c-4.922 2.22-4.848 8.55-6.91 12.48-1.942 3.84-6.133 9.13-4.406 14.17 9.496-5.33 13.898-14.83 11.316-26.65zm-16.387 39.31c-11.332 9.32-12.312 24.22-19.863 35.62 8.336 5.33 22.387 4.26 26.71-6.29 3.454-8.48 5.966-20.94-2.632-27.41-.933-.69-3.14-2.81-4.215-1.92zm-42.246 76.85c-1.7 2.43-5.063 9.43-2.5 10.32 20.28 6.98 35.495 7.21 39.83-14.49 3.072-15.48-7.507-28.77-22.33-23.36-4.25 1.58-8.462 18.07-15 27.53zm-29.497 48.99c-1.422 1.79-2.578 7.18-.808 8.56 10.546 8.48 26.03 9.13 38.02 7.96 15.812-1.44 19.058-16.14 16.42-28.32-3.48-16.04-27.804-18.04-34.69-15.37-6.77 2.6-11.493 17.94-18.942 27.17zm3.442 57.03c13.664 8.86 39.785 15.43 44.14-8.56 1.32-7.23-.484-16.83-10.25-19.97-10.03-3.22-21.847-6.69-31.012-2.97-11.273 4.61-13.488 24.65-2.878 31.5zm-14.165 40.36c1.032 4.6 6.133 6.78 10.418 7.88 11.063 2.72 23.43 6.85 33.582.38 3.958-2.5 4.262-6.04 4.778-11.02.898-8.06-.246-14.66-5.563-17.74-10.773-6.32-21.734-6.89-34.257-4.43-10.157 2.01-10.985 15.47-8.958 24.93zm-11.335-62.21c-9.47 7.01-13.657 16.91-20.637 26.72-1.688 2.4 0 3.39 1.293 3.76 16.805 4.75 29.278-3.64 26.66-21.96-.468-3.56-2.78-11.85-7.315-8.52zm-46.383 56.61c-6.3 5.45-1.922 14.92 3.566 17.68 9.61 4.77 24.707 5.49 34.703 2.12 6.43-2.16 9.685-11.39 8.532-21.47-.484-4.12-1.746-8.67-3.765-10.01-7.613-5.19-19.39-5.4-28.65-3.47-6.55 1.39-8.885 10.34-14.385 15.15zm-7.262 57.25c6.09 13.25 28.305 13.37 40.402 7.46 9.856-4.84 11.094-23.19.332-30.42-8.586-5.72-22.113-3.62-31.218-1.95-12.934 2.38-13.965 15.1-9.516 24.91zm.492 49.6c9.23 8.78 21.188 4.76 32.305 3.22 2.152-.31 4.72-1.82 6.176-3.27 7.59-7.67 8.187-20.24-.262-26.53-9.75-7.25-21.925-2.54-33.644-1.94-3.164.12-6.644 3.84-7.367 6.22-2.11 7.42-3.388 16.49 2.792 22.3zm5.946 41.5c9.8 4.09 26.636 5.96 33.578-5.03 4.26-6.74 3.02-19.22-3.817-21.03-6.692-1.73-29.458-5.51-34.907 7.08-2.7 6.19-1.56 16.16 5.145 18.98zm30.164 35.25c2.836-1.25 4.6-3.52 5.273-7 1.395-7.55-.594-15.75-7.84-17.08-10.89-1.98-27.058-2.61-27 12.78.04 17.17 16.957 16.98 29.567 11.3zm-21.918 31.93c5.793 2.21 15.332 1.72 20.53-.99 2.626-1.37 6.153-5.68 4.67-10.23-1.85-5.92-7.364-8.06-13.63-8.14-6.02-.05-12.926.43-15.356 5.34-2.308 4.66-1.328 12.04 3.786 14.02zm6.765 25.75c5.296 1.92 13.128 1.79 16.984-2.39 5.3-5.79 1.117-15-8.887-14.54-3.524.15-7.695 1.36-9.824 2.57-5.172 2.92-3.457 12.5 1.726 14.36zm23.812 16.58c.68 2.23 4.16 4.84 5.98 5.49 3.973 1.41 8.63 1.7 12.43.19 7.6-3.13 6.558-12.53-1.56-15.83-3.632-1.47-9.214-2.43-11.952-1.47-5.113 1.73-6.53 6.17-4.898 11.62zm23.683-36.76c-8.293-2.43-19.847-2.9-22.324 5.6-4.202 14.42 14.005 16.58 23.446 13.56 6.516-2.07 8.817-16.31-1.12-19.16zm5.49 47.62c2.627 8.94 12.756 13.79 21.932 11.06 7.887-2.31 9.707-13.06 4.38-18.29-2.41-2.34-6.407-4.73-10.704-5.68-9.387-2.1-18.605 3.07-15.61 12.91zm41.253-32.79c-1.485-5.83-5.766-9.83-12.618-11.35-6.804-1.5-16.215-1.92-19.984 2.29-3.602 3.98-5.254 9.58-2.25 13.87 6.02 8.56 17.043 11.55 26.867 9.38 5.606-1.31 9.727-7.05 7.985-14.19zm-3.665 34.31c3.665 8.11 12.957 12.19 21.883 9.47 1.785-.58 5.47-3.45 5.977-6.29 1.058-5.64-.9-10.79-5.606-13.74-6.035-3.85-11.02-6.01-17.95-3.17-5.206 2.18-6.475 8.94-4.304 13.73zm38.442-22.78c4.074-6.9-2.13-13.83-5.28-15.73-6.99-4.09-16.84-6.6-21.048.33-4.145 6.79-.715 14.86 6.508 17.84 6.894 2.86 14.03 7.2 19.82-2.44zm11.586-26.36c4.563-3.78 8.567-11.71 3.098-17.97-5.132-5.91-11.515-7.67-19.586-8.98-5.46-.93-12.437 3.11-13.324 7.93-.808 4.15-1.57 11.72 2.547 15.21 8.024 6.83 18.777 10.79 27.266 3.81zm9.673 44.98c4.312-1.28 7.066-5.84 4.906-10.23-1.314-2.71-5.185-5.65-7.65-7.15-6.765-4.17-12.57-2.46-14.687 2.51-3.898 9.15 9.207 17.29 17.43 14.87zm16.504-22.8c4.753-.42 6.933-3.73 7.863-7.36 1.23-4.87-.37-9.38-4.48-12.14-4.895-3.25-10.993-5.16-15.868-5.24-6.594-.12-12.7 9.56-9.13 15.84 3.786 6.74 13.31 9.62 21.615 8.9zm27.283-34.89c2.8-8.28-3.27-12.14-9.66-15.54-6.51-3.47-15.23-6.71-19.745-2.39-5.765 5.43-8.332 14.58-1.902 20.6 8.917 8.36 25.407 14.65 31.307-2.67zm11.77-20.77c10.46-1.33 12.54-16.2 10.43-21.58-2.39-4.62-7.66-8.24-10.43-9.66-7.67-3.95-16.64-5.45-23.69-1.8-6.43 3.34-9.21 13.09-5.72 20.73 4.73 10.34 19.63 13.6 29.41 12.31zm21.52-46.04c3.58-5 2.8-13.88.67-16.66-6.59-9.01-24.96-14.16-32.53-10.47-5.76 2.82-11.44 15.5-4.7 23.11 7.01 7.9 19.22 12.61 30.31 10.3 2.46-.55 4.09-3.27 6.25-6.28zm4.64-28.37c5.04-.54 9.51-6.08 11.94-12.11 3.16-7.8-.03-16.89-2.53-18.59-6.02-4.09-25.08-15.57-37.08-8.69-6.6 3.79-8.42 12.44-8.83 17.55-1.33 16.51 23.72 23.27 36.5 21.84zm-70.393-118.09c-2.567 6.55-4.942 16.24.203 20.22 10.39 8.2 33.89 15.37 42.83 2.97 5.81-8.05 4.11-21.7-6.07-26.92-10.5-5.36-31.037-11.54-36.963 3.73zm-50.41-.73c10.43 5.31 25.457 11.71 36.687 4.47 5.137-3.29 10.442-16.96 6.817-23.02-7.7-12.87-27.96-16.15-40.843-12.84-10.97 2.85-14.274 25.53-2.66 31.39zm-9.38 44.5c12.587 8.85 37.438 14.57 43.423-4.77 1.554-5.02 2.44-10.57-.12-14.62-6.974-11.21-24.662-14.16-36.498-12.49-12.8 1.85-18.847 23.43-6.804 31.88zm-10.593 45.08c12.09 6.85 37.856 15.96 43.926-3.68 2.43-8.03 2.183-17.94-4.695-21.49-9.848-5.16-25.457-10.58-36.81-3.5-9.48 6-10.76 23.89-2.42 28.67zm67.676 81.02c-5.063-4.52-10.203-5.49-16.942-7.78-9.437-3.2-19.312 4.07-20.402 13.1-1.816 15.46 14.75 17.76 25.707 19.69 7.988 1.45 12.938-5.73 14.41-10.56 1.504-4.64 1.31-10.86-2.773-14.45zm20.31-36.37c-7.19-10.71-36.166-17.45-42.556-6.43-4.668 8.07-7.574 19.39 1.203 24.8 9.215 5.66 20.137 9.05 30.863 7.12 10.08-1.78 15.21-18.36 10.49-25.49zm15.44-66.33c4.13-6.56 7.01-15.37.89-23.51-5.56-7.46-25.37-10.95-35.52-8.49-5.565 1.4-8.198 8.16-9.05 12.73-1.176 6.17-1.73 12.38 3.73 17.41 7.852 7.2 18.34 7.04 28.41 7.04 4.14 0 9.99-2.68 11.54-5.18zm-5.75 22.26c-6.18-11.34-27.09-12.8-36.492-11.55-6.625.89-11.29 11.57-11.094 20.51.066 4.59 1.5 7.64 4.64 9.33 10.446 5.6 21.133 9.35 32.376 7.53 10.96-1.74 15.22-17.22 10.57-25.82zm-110.078 24.42c-7.106 21.89 20.226 28.79 36.176 25.41 11.105-2.31 14.812-23.65 4.48-30.39-12.785-8.31-35.477-10.99-40.656 4.98zm-41.21-53.73c8.186 8.45 22.97 8.98 34.51 7.43 7.086-.99 10.14-8.15 11.126-15.92 2.76-21.38-25.938-24.98-39.594-19.98-9 3.29-13.684 20.58-6.043 28.47zm-5.78 41.43c8.564 10.07 22.88 12.46 34.736 9.2 7.238-1.97 10.59-10.43 10.426-19.91-.137-5.38-3.83-9.29-7.14-10.65-8.43-3.42-18.17-5.96-27.368-4.84-11.344 1.4-18.22 17.26-10.653 26.2zm1.36 45.1c10.528 4.29 30.145 8.14 33.454-6.9 4.457-20.02-19.172-23.28-31.797-19.8-9.67 2.65-11.505 22.72-1.657 26.7zm75.727 33.09c7.87-4.47 9.523-17.08 4.734-24.39-6.367-9.67-28.137-15.28-39.848-6.81-6.68 4.85-10.277 24.72 3.41 29.49 10.934 3.83 21.414 7.54 31.703 1.71zm-11.157 14.38c-8.93-5.52-21.656-7.72-30.098-3.02-7.343 4.02-7.058 14.75-3.417 20.52 5.98 9.62 20.855 10.66 31.132 7.64 8.864-2.57 12.184-19.04 2.383-25.14zm-72.28 15.68c.9 2.86 2.175 3.68 3.948 4.55 7.51 3.58 15.75 4.54 22.94-.08 5.178-3.35 4.725-11.1.885-15.11-5.62-5.91-17.047-6.15-24.36-2.31-4.726 2.46-4.944 8.29-3.413 12.95zm2.397-31.34c3.32 9.48 15.15 8.95 24.106 7.79 11.02-1.44 13.226-15.56 9.312-21.5-5.41-8.2-17.758-6.63-27.582-5.38-7.996 1.02-8.468 11.61-5.836 19.09zm155.51-285.21c2.71-10.71 0-20.89-9.53-24.3-12.253-4.32-28.816-10.65-38.61-4.05-11.198 7.51-16.588 28.81-3.72 37.16 15.198 9.94 45.44 16.45 51.86-8.81zm-16.51 33.3c-8.234-9.35-21.668-9.04-34.855-12.91-5.094-1.47-11.133 3.02-13.78 7.68-4.876 8.7-9.76 20.36-.42 28.77 7.735 7.05 18.282 6.45 27.755 9.28 4.25 1.28 9.46 2.77 14.62-.72 10.68-7.29 14.84-22.91 6.68-32.1zm87.3 140.14c2.33-6.8 5.45-11.79 2.8-18.57-3.14-8.33-11.21-9.46-18.79-12.21-7.07-2.56-18.86-5.8-24.78.4-6.81 7.04-9.55 21.39-1.41 27.54 10.56 7.86 36.6 18.71 42.18 2.84zm143.3 61.19c6.23 25.39 13.96 51.14 15.89 77.97 2.85 40.07-5.8 81.73-31.5 112.08 2.53-13.09 5.88-24.14 7.64-37.88 2.09-16.59-.26-35.07-4.53-51.77-3.25-12.64-8.94-24.93-14.59-36.67-6.67-13.91-16.64-29.04-26.55-41.45-27.81-34.58-71.14-102.07-71.14-102.07s-3.64.26-5.79.26c-.51 8.41 19.44 37.22 29.51 53.34 22.09 35.36 38.82 54.38 58.04 85.04 12.04 19.32 21.23 42.84 24.19 64.16 5.98 43.43-17.43 95.47-51.1 112.79 7.69-32.44 6.89-78.17-10.38-97.4-32.69-36.43-52.13-63.69-75.46-110.39-.66-1.25-6.12 6.3-10.63 9.23-5.07 3.36-2.23 13.37-4.05 20.11-1.64 5.73-4.34 10.15-5.14 11.15-6.9 8.46-13.58 8.99-15.03 11.53-1.68 2.86-.87 10-6.9 18.13-3 4.1-10.67 7.13-13.79 10.97-3.38 4.2-4.91 17.06-14.22 22.32-4.417 2.48-6.472 10.19-10.714 13.97-13.086 11.59-26.15 9.35-28.653 10.08-3.367.9-9.937 9.27-21.636 11.28-11.438 1.95-17.73-5.68-23.668-2.92-14.892 6.89-29.158 7.45-44.982-10.18-4.75-5.25-12.965-.34-23.21-8.18-9-6.86-9.17-13.2-13.75-14.07-8.61-1.61-15.032-8.5-18.352-16.02-1.723-3.87-3.016-11.7-4.024-16.86-1.41-7.13-5.01-13.69-5.082-18.93-.082-7.28 2.215-11.21 1.575-14.47-1.063-4.71-4.88-9.03-5.344-13.44-.347-2.5-.558-9.16 1.262-12.91 2.29-4.62-1.61-8.63-3.632-13.56-1.938-4.58-3.973-12.42-3.352-17.95.82-7.59 5.164-10.37 1.785-16.35-5.535-9.72-12.53-24.88-.265-44.25 2.254-3.54-5.137-10.43-5.55-20.54-.474-11 6.17-19.12 7.983-24 .345-1.75-2.92-1.65-3.038-3.53-29.222 30.9-55.062 59.39-88.95 86.22-20.702 16.36-41.175 30.12-64.112 42.4-61.29 32.87-132.492 54.86-196.992 46.82 24.29-19.55 54.94-33.5 79.89-55.71 23.64-21.06 45.09-39.04 66.62-61.41 33.798-35.11 61.26-70.7 89.872-112.01 8.496-12.23 14.09-20.41 22.012-33.17 7.977-12.76 16.84-26.31 24.102-38.96 36.617-63.58 66.617-122.44 96.98-187.59 8.426-18.01 15.504-36.87 23.762-54.78 2.21-4.86 5.375-1.25 7.61 0 10.98 6.35 22.648 11.66 34.05 17.04 9.098 4.18 17.38 7.06 25.508 10.18 20.543 7.83 40.035 12.08 61.55 16.55 35.916 7.52 100.436 5.97 100.436 5.97l122.34.04h3.34c-1.28 35.07-9.61 69.15-11.64 104.32-1.54 28.5-.6 56.04.41 84.59 2.73 77.36 14.1 160.4 31.39 230.88M395.14 2301.64c-23.87-23.8-30.992-32.57-44.91-58.88-8.2-15.47-18.61-35.33-21.578-60.93 49.05 18.67 89.075 56.78 125.235 98.87 26.754 31.2 47.504 72.6 73.886 103.42-46.468-15.58-95.503-45.51-132.632-82.48"></path><path d="M254.72 2234.73c18.487 31.24 44.975 65.01 72.436 88.06-12.718-28.58-28.383-56.88-33.765-90.67-10.675-67.27-20.75-114.39-31.91-175.79 30.508 21.76 62.684 55.95 95.036 79.81 24.992 18.37 50.046 30.64 75.754 48.31 15.28 10.54 25.234 24.08 37.945 36.76-15.14-63.84-71.16-128.27-111.274-158.31-50.385-37.79-68.448-43.81-149.42-126.15-10.282 101.67-8.45 207.33 45.2 297.98"></path><path d="M89.527 1897.07c3.77 52.8 10.102 95.02 22.93 146.52 8.984 35.97 28.34 89.51 56.242 111.47-3.42-13.04-5.216-32.6-6.532-45.79-5.47-54.39 4.945-117.57 6.187-171.91.622-26.72.383-47.31-3.613-72.41-4.14-26.33-.687-58.62-.687-58.62s14.422 16.47 27.3 36.99c28.15 44.7 37.16 57.97 59.836 82.19 28.134 30.05 59.6 57.88 95.126 82.53-4.285-16.7-22.425-49.17-29.92-62.22-10.005-17.45-14.544-33.32-38.216-72.85-33.313-55.55-48.153-63.04-85.137-122.45-8.008-12.92-40.852-62.06-48.81-77.08-17.323 35.86-23.862 67.19-45.116 125.56-13.355 36.68-11.36 73.36-9.59 98.07"></path><path d="M38.094 1622.4c-20.086 52.08-29.29 100.4-36.098 155.23-4.16 33.55-2.226 78.26 9.746 110.52 3.14-7.87 9.547-27.86 10.414-30.86 8.91-29.96 12.633-44.35 25.086-73.25 9.52-22.16 21.164-39.83 33.625-61.73 11.332-19.99 20.89-46.31 29.09-66.45 26.37-64.57 28.32-125.02 38.41-131.62 7.258 15.54 9.53 30.42 10.344 37.75 7.845 71.45 17.25 136.39 107.228 220.6 8.257-25.07 4.074-71.28-.887-96.03-10.757-54.12-19.448-80.11-43.28-132.56-12.598-27.62-29.422-68.27-34.032-81.73-12.078-35.07-16.218-53.45-23.816-74.19-42.48 70.78-94.762 143.87-125.828 224.32"></path><path d="M108.125 1296.79c-30.242 42.1-41.266 63.25-60.95 108.07-16.527 37.59-21.28 51.53-30.96 93.63-5.29 22.95-8.277 43.77-4.168 57.34 23.676-42.87 39.84-90.85 70.81-126.41 24.588-28.21 48.276-52.23 67.823-76.04 29.988-36.58 53.6-71.21 82.382-109.3 2.426 19.09 3.364 38.43-.92 69.71-5.857 42.86-2.247 78 5.237 119.5 9.483 52.65 16.444 78.71 34.71 131.98 22.348-43.83 22.262-94.54 27.87-141.03 10.83-90.2-17.386-197.76-22.94-242.6-1.485-11.81.562-40.96 1.16-52.32-42.2 33.23-79.742 66.79-116.14 103.29-16.587 16.54-39.345 43.95-53.915 64.18"></path><path d="M268.105 966.012c-19.214 13.84-70.843 53.298-95.29 84.348-35.596 45.21-43.436 64.58-66.92 116.59-2.875 6.34-16.168 35.78-17.25 55.78 76.94-92.91 145.828-106.74 219.226-183.84 26.935-28.24 54.517-54.83 69.07-68.16 11.173-10.28 25.048-13.39 25.048-13.39s-1.445 19.8-8.69 33.582c-48.966 93.588-58.208 191.438-50.782 296.448 22.35-27.67 29.402-46.15 43.59-72.91 15.425-29.15 23.292-47.17 30.503-65.11 41.902-104.29 52.804-224.748 78.695-285.37-79.914 26.918-142.844 41.31-227.2 102.032"></path><path d="M595.828 719.91c-21.613-1.45-63.992-1.32-86.586 2.36-114.394 18.312-220.726 101.21-274.215 192.27 48.496-29.59 83.563-49.34 126.21-64.11 37.986-13.12 74.013-17.008 137.42-35.02 38.26-10.808 76.144-26.12 89.452-31.1 42.417-15.798 60.28-11.92 60.28-11.92s0 6.45-15.847 23.73c-31.574 34.462-43.14 42.7-69.12 69.19-8.528 8.75-28.075 38.48-37.997 58.25-28.07 55.88-31.192 100.67-56.828 162.06 93.554-54.94 139.13-130.75 188.59-226.32 15.21-29.27 35.777-63.08 54.57-81.66 12.637-12.468 30.445-31.42 30.445-31.42s-13.047-3.072-53.668-9.072c-18.223-2.668-57.05-14.757-92.707-17.238M1049.31 712.66c49.39-8.078 93.28-20.078 138.19-35.488 12.08-4.152 30.44-13.28 43.17-19.73 31.83-16.204 50.16-26.723 77.52-45.532 44.06-30.35 91.4-63.05 134.12-112.672.91-.976 7.81-8.36 3.21-11.957-8.37-6.56-28.99-15.9-35.85-9.85-39.08 34.76-37.11 45.89-84.47 88.78-12.15 10.938-30.49 26.29-52.4 41.278-21.38 14.633-47.22 30.614-71.22 42.453-21.83 10.74-55.42 13.95-74.29 13.95l.26-.14c-8.57.332-57.84.61-69.24-.13-96.81-6.64-92.072-15.3-147.888-30.42-45.91-12.49-95.164-21.38-144.055-27.938-50.09-6.813-94.906-7.633-141.86-2.84-63.648 6.558-133.273 24.297-185.237 57.79 47.51-.802 96.3-9.93 143.566-6.314 19.89 1.532 52.16 4.532 74.012 11.274 43.418 13.328 68.328 18.527 114.308 31.348 39.512 10.992 79.348 14.8 120.606 19.152 57.105 6.11 109.998 4.726 157.548-3.012M1934.52 2301.64c23.87-23.8 31.02-32.57 44.94-58.88 8.2-15.47 18.61-35.33 21.58-60.93-49.09 18.67-89.07 56.78-125.26 98.87-26.77 31.2-47.49 72.6-73.87 103.42 46.47-15.58 95.5-45.51 132.61-82.48"></path><path d="M2074.98 2234.73c-18.52 31.24-44.99 65.01-72.45 88.06 12.85-30.75 31.57-69.05 33.76-90.67 6.83-67.74 20.75-114.39 31.92-175.79-30.5 21.76-62.72 55.95-95.06 79.81-24.94 18.37-50.02 30.64-75.7 48.31-15.32 10.54-25.27 24.08-37.98 36.76 15.14-63.84 71.16-128.27 111.28-158.31 50.37-37.79 68.43-43.81 149.37-126.15 10.28 101.67 8.46 207.33-45.14 297.98"></path><path d="M2240.16 1897.07c-3.81 52.8-10.08 95.02-22.93 146.52-8.98 35.97-28.34 89.51-56.29 111.47 3.46-13.04 5.23-32.6 6.56-45.79 5.52-54.39-4.88-117.57-6.17-171.91-.61-26.72-.39-47.31 3.59-72.41 4.15-26.33.72-58.62.72-58.62s-14.42 16.47-27.33 36.99c-28.09 44.7-37.11 57.97-59.85 82.19-28.1 30.05-59.6 57.88-95.13 82.53 4.33-16.7 22.46-49.17 29.96-62.22 10.04-17.45 14.53-33.32 38.22-72.85 33.3-55.55 48.14-63.04 85.1-122.45 8-12.92 40.89-62.06 48.84-77.08 17.35 35.86 23.86 67.19 45.12 125.56 13.39 36.68 11.39 73.36 9.59 98.07"></path><path d="M2291.59 1622.4c20.08 52.08 29.26 100.4 36.11 155.23 4.16 33.55 2.2 78.26-9.75 110.52-3.14-7.87-9.53-27.86-10.42-30.86-8.93-29.96-12.63-44.35-25.05-73.25-9.54-22.16-21.24-39.83-33.67-61.73-11.32-19.99-20.88-46.31-29.12-66.45-26.34-64.57-28.29-125.02-38.38-131.62-7.28 15.54-9.54 30.42-10.33 37.75-7.85 71.45-17.26 136.39-107.23 220.6-8.28-25.07-4.08-71.28.84-96.03 10.81-54.12 19.54-80.11 43.33-132.56 12.59-27.62 29.42-68.27 34.06-81.73 12.01-35.07 16.17-53.45 23.83-74.19 42.44 70.78 94.72 143.87 125.78 224.32"></path><path d="M2221.57 1296.79c30.27 42.1 41.26 63.25 60.93 108.07 16.53 37.59 21.26 51.53 30.98 93.63 5.29 22.95 8.26 43.77 4.14 57.34-23.61-42.87-39.86-90.85-70.83-126.41-24.54-28.21-48.23-52.23-67.78-76.04-29.96-36.58-53.64-71.21-82.38-109.3-2.41 19.09-3.38 38.43.87 69.71 5.9 42.86 2.29 78-5.19 119.5-9.49 52.65-16.45 78.71-34.71 131.98-22.32-43.83-22.26-94.54-27.88-141.03-10.86-90.2 17.43-197.76 22.98-242.6 1.45-11.81-.6-40.96-1.19-52.32 42.2 33.23 79.74 66.79 116.13 103.29 16.59 16.54 39.3 43.95 53.93 64.18"></path><path d="M2061.6 966.012c19.19 13.84 70.83 53.298 95.26 84.348 35.61 45.21 43.46 64.58 66.93 116.59 2.84 6.34 16.18 35.78 17.26 55.78-76.94-92.91-145.84-106.74-219.24-183.84-26.92-28.24-54.48-54.83-69.05-68.16-11.17-10.28-25.04-13.39-25.04-13.39s1.43 19.8 8.65 33.582c48.99 93.588 58.23 191.438 50.76 296.448-22.27-27.67-29.37-46.15-43.54-72.91-15.4-29.15-23.29-47.17-30.48-65.11-41.93-104.29-52.88-224.748-78.76-285.37 79.97 26.918 142.88 41.31 227.25 102.032"></path><path d="M1733.85 719.91c21.66-1.45 64.01-1.32 86.62 2.36 114.4 18.312 220.7 101.21 274.19 192.27-48.54-29.59-83.6-49.34-126.22-64.11-38.01-13.12-74-17.008-137.38-35.02-38.3-10.808-76.17-26.12-89.49-31.1-42.41-15.798-60.28-11.92-60.28-11.92s0 6.45 15.84 23.73c31.59 34.462 43.17 42.7 69.11 69.19 8.55 8.75 28.1 38.48 38.01 58.25 28.08 55.88 31.2 100.67 56.87 162.06-93.56-54.94-139.22-130.75-188.65-226.32-15.18-29.27-35.75-63.08-54.52-81.66-12.61-12.468-30.46-31.42-30.46-31.42s13.04-3.072 53.7-9.072c18.19-2.668 57-14.757 92.66-17.238M1280.38 712.66c-49.39-8.078-93.24-20.078-138.19-35.488-12.12-4.152-30.45-13.28-43.17-19.73-31.84-16.204-50.12-26.723-77.51-45.532-44.108-30.35-91.377-63.05-134.127-112.672-.922-.976-7.856-8.36-3.223-11.957 8.39-6.56 29.024-15.9 35.817-9.85 39.1 34.76 37.113 45.89 84.523 88.78 12.09 10.938 30.43 26.29 52.39 41.278 21.42 14.633 47.18 30.614 71.22 42.453 21.78 10.74 55.45 13.95 74.28 13.95l-.28-.14c8.6.332 57.84.61 69.27-.13 96.83-6.64 92.06-15.3 147.85-30.42 45.94-12.49 95.19-21.38 144.09-27.938 50.05-6.813 94.91-7.633 141.85-2.84 63.66 6.558 133.26 24.297 185.21 57.79-47.48-.802-96.24-9.93-143.56-6.314-19.9 1.532-52.13 4.532-73.98 11.274-43.42 13.328-68.35 18.527-114.3 31.348-39.52 10.992-79.36 14.8-120.6 19.152-57.12 6.11-110.01 4.726-157.56-3.012M1103.65 2841.12l-86.96-322.87h-92.31l-57.74 210.33-56.452-210.33h-92.086l-86.95 322.87h86.907l49.53-222.26 59.582 222.26h83.055l56.527-222.26 52.006 222.26h84.89M1390.51 2778.68h-148.53v-60.08h137.69v-62.45h-137.69v-137.9h-82.82v322.87h231.35v-62.44M1628.38 2737.36c0 9.08-2.46 16.9-7.36 23.46-4.92 6.57-10.62 11.14-17.13 13.74-8.68 3.46-17.13 5.37-25.37 5.74-8.24.35-19.24.54-32.97.54h-14.3v-96.5h23.84c14.17 0 25.84.87 35.03 2.6 9.18 1.73 16.88 5.2 23.09 10.39 5.35 4.6 9.22 10.13 11.6 16.55 2.38 6.41 3.57 14.24 3.57 23.48zm86.1 1.85c0-14.46-2.54-28.59-7.6-42.4-5.06-13.81-12.29-25.41-21.68-34.79-12.87-12.73-27.22-22.34-43.05-28.85-15.82-6.51-35.52-9.76-59.08-9.76h-51.82v-105.16h-83.28v322.87h137.05c20.53 0 37.84-1.77 51.93-5.31 14.09-3.55 26.57-8.85 37.41-15.94 13.01-8.53 22.95-19.44 29.81-32.75 6.87-13.3 10.31-29.26 10.31-47.91"></path></g></svg>