<svg xmlns="http://www.w3.org/2000/svg" viewBox="0 0 1408.6934 378.85333" height="378.853" width="1408.693"><g fill="#fff"><path d="M72.308 344.156l-7.81 25.205H55.92l-5.136-16.988-5.073 16.99h-8.66l-7.744-25.206h8.476l4.327 17.372 5.376-17.372h7.16l5.112 17.372 4.256-17.372h8.294"></path><path d="M91.174 340.364h-.604c-.36-.104-.825-.224-1.4-.36a8.078 8.078 0 0 0-1.845-.203c-1.582 0-2.653.288-3.212.856-.56.567-.84 1.67-.84 3.3v.2h6.217v5.476h-5.947v19.73H75.44v-19.73h-3.456v-5.476h3.457v-.696c0-3.08.82-5.393 2.458-6.935 1.64-1.54 4.12-2.31 7.44-2.31 1.197 0 2.282.04 3.254.122.973.084 1.833.19 2.582.327v5.7M109.927 356.58c0-2.45-.418-4.23-1.254-5.333-.836-1.107-2.157-1.66-3.963-1.66-.762 0-1.545.118-2.35.348a9.947 9.947 0 0 0-2.308.997v12.66c.537.212 1.112.345 1.725.405.612.06 1.216.088 1.814.088 2.135 0 3.725-.622 4.77-1.87 1.045-1.247 1.567-3.124 1.567-5.635zm8.327-.17c0 2.082-.318 3.973-.953 5.678-.634 1.705-1.467 3.115-2.498 4.22-1.076 1.168-2.294 2.05-3.654 2.65-1.36.596-2.817.895-4.37.895-1.436 0-2.653-.153-3.655-.46-1-.305-2.026-.734-3.07-1.29v10.503H91.95v-34.45h8.102v2.627c1.24-.987 2.506-1.788 3.8-2.4 1.292-.615 2.783-.923 4.47-.923 3.14 0 5.58 1.153 7.32 3.456 1.74 2.305 2.612 5.47 2.612 9.495M122.083 369.36h8.394v-8.82h-8.394zM151.924 362.897c.523-.642.916-1.418 1.18-2.322.26-.907.39-2.16.39-3.76 0-1.48-.134-2.724-.403-3.727-.27-1-.643-1.803-1.12-2.4-.48-.613-1.055-1.048-1.73-1.303a6.148 6.148 0 0 0-2.176-.38c-.78 0-1.47.104-2.076.315-.607.208-1.187.627-1.74 1.255-.493.584-.887 1.385-1.18 2.4-.29 1.02-.436 2.298-.436 3.84 0 1.377.127 2.57.38 3.58.256 1.01.63 1.82 1.124 2.435a4.27 4.27 0 0 0 1.717 1.28c.666.267 1.424.402 2.278.402a5.99 5.99 0 0 0 2.1-.37 3.85 3.85 0 0 0 1.694-1.245zm9.943-6.126c0 4.143-1.208 7.41-3.626 9.797-2.415 2.385-5.808 3.58-10.176 3.58-4.37 0-7.763-1.195-10.18-3.58-2.415-2.388-3.623-5.654-3.623-9.796 0-4.174 1.216-7.45 3.648-9.83 2.43-2.38 5.816-3.568 10.156-3.568 4.4 0 7.8 1.197 10.2 3.59 2.403 2.394 3.603 5.662 3.603 9.81M183.628 351.853h-.716c-.344-.117-.897-.208-1.657-.268-.762-.06-1.396-.088-1.904-.088-1.15 0-2.165.072-3.045.224-.88.15-1.83.404-2.844.764v16.877h-8.1v-25.204h8.1v3.703c1.777-1.526 3.323-2.54 4.637-3.04 1.312-.503 2.522-.753 3.627-.753.284 0 .605.008.963.024.36.014.672.037.94.066v7.697M202.313 361.416v-11.424c-.462-.193-1.03-.347-1.702-.462a11.108 11.108 0 0 0-1.813-.166c-2.12 0-3.71.61-4.77 1.828-1.06 1.22-1.588 2.92-1.588 5.107 0 2.423.45 4.113 1.352 5.072.904.956 2.244 1.434 4.02 1.434.805 0 1.597-.127 2.373-.38a9.11 9.11 0 0 0 2.128-1.01zm8.103 5.05c0 2.364-.337 4.354-1.01 5.97-.674 1.616-1.617 2.88-2.83 3.792-1.21.928-2.673 1.597-4.387 2.008-1.714.412-3.647.617-5.8.617-1.753 0-3.477-.104-5.174-.312-1.7-.21-3.17-.465-4.41-.763v-6.306h.985c.987.39 2.19.746 3.61 1.066 1.42.323 2.688.484 3.81.484 1.493 0 2.707-.14 3.64-.416.934-.276 1.65-.67 2.142-1.177.46-.48.8-1.093 1.008-1.842.21-.748.313-1.645.313-2.693v-.47a12.062 12.062 0 0 1-3.228 1.884c-1.18.465-2.494.695-3.945.695-3.527 0-6.247-1.06-8.16-3.185-1.912-2.126-2.87-5.358-2.87-9.697 0-2.08.293-3.874.877-5.384a11.895 11.895 0 0 1 2.464-3.95c.99-1.048 2.202-1.866 3.645-2.45a11.712 11.712 0 0 1 4.426-.874c1.36 0 2.597.162 3.71.484 1.114.32 2.126.767 3.04 1.333l.29-1.12h7.856v22.308M239.38 334.44l-17.797 42.192h-6.89l17.726-42.192h6.96M270.456 369.36h-8.1v-12.5c0-1.018-.055-2.032-.16-3.04-.104-1.01-.283-1.756-.537-2.235-.3-.55-.74-.958-1.315-1.21-.574-.257-1.38-.383-2.412-.383-.733 0-1.478.12-2.233.36-.756.24-1.575.62-2.457 1.145v17.864h-8.103v-25.204h8.103v2.784c1.433-1.123 2.813-1.983 4.134-2.58 1.323-.6 2.79-.9 4.404-.9 2.72 0 4.847.795 6.38 2.38 1.53 1.587 2.296 3.96 2.296 7.115v16.406M275.587 369.36h8.103v-34.92h-8.103zM178.735 93.404c1.668-3.61 3.212-6.483 5.438-9.908.983-1.51 2.092-2.56 3.082-4.09-.474-.135-1.164.257-1.462.467-.99.72-1.436 1.884-2.228 2.508-1.87 1.477-1.818 2.815-2.8 3.504-.876.62-1.126 1.024-1.74 1.987-.41.645-.713 1.165-1.146 2.43-.155.46-.46.055-1.192 1.06-.957 1.308-1.387 2.72-1.784 4.3-.128.52-1.012.796-1.58 1.876-.763 1.457-1.26 2.805-1.588 4.928-.083.492-.915.833-1.488 2.204-.407.964-.7 1.176-1.055 2.993-.218 1.11-.722 1.27-1.292 2.876-.44 1.228-.456 2.408-.61 4.012-.035.31-.56.927-1.045 1.824-.812 1.503-.785 2.505-1.11 4.055-.122.56-.75 1.302-1.355 3.706-.53 2.13-.044 3.543-.224 4.594-.47 2.726-.94 5.094-.685 7.78.126 1.313.326 2.668.24 3.93-.25 3.96-.466 7.223-.445 11.71.015 2.444.206 5.79.575 8.573.407 3.075.992 5.475.992 5.475h10.02s-.392-5.794.127-11.89c.305-3.657 1.176-7.532 1.967-10.253 1-3.47 1.624-5.268 3.516-9.848.04-.1-.014-.53-.514-.11-1.046.878-1.918 1.65-2.743 2.89-1.262 1.903-2.03 3.468-3.05 5.42-1.194 2.268-1.852 4.245-3.08 7.003-.076-1.99.248-3.883.65-5.716.416-1.87.745-3.354 1.332-4.967 1.044-2.847 2.056-5.223 3.73-7.87.97-1.53 2.21-2.904 3.47-4.045a174.7 174.7 0 0 1 4.473-3.932c-1.656-.853-3.86.928-4.302 1.02-2.33.453-3.277 2.615-3.99 2.91-1.02.426-1.61 1.05-2.32 1.91-.543.647-.705 1.644-1.277 1.997-.95.594-1.648 1.488-2.302 2.734-.267.516-.997 2.95-1.812 2.638 1.39-8.257 4.305-16 8.984-22.893 2.968-4.37 6.195-8.12 10.95-11.48.626-.444.75-.652-.126-.62-4.445.54-4.717 2.568-5.45 2.76-.694.18-1.553 1.003-2.102 1.537-.988.977-.97 1.8-1.35 2.057-.81.565-1.422 1.153-1.977 2.136-.29.512-.78 1.64-1.213 1.897-1.14.66-2.248 1.625-2.8 2.667-.405.76-.568 1.584-1.1 2.332-.568.8-1.363 1.4-2.047 1.983.52-3.53 2.182-7.71 3.327-11.316 1.54-4.818 3.405-9.194 5.51-13.743M188.963 122.004c3.792-8.513 7.782-14.92 12.968-22.415.68-.982 1.286-1.945 1.878-2.866.267-.415 1.54-2.248 1.807-2.635 1.738-2.626 2.47-3.43 4.25-5.938.48-.683.87-1.217 1.076-2.005.38-1.47-.88-2.454-1.17-3.863-.294-1.437-.134-3.008.527-4.223.414-.76.826-1.056 1.242-2.076.807-1.964.528-6.212 1.45-6.324-.235 2.017-.29 4.284.03 6.22.367 2.255 1.737 3.623 2.3 6.013 1.524-.274 3.18-.21 4.46-.098 1.273.108 2.883-.244 4.188-.69 1.768-.605 3.236-1.706 5.04-2.133-1.535 1.475-3.7 2.027-5.51 3.145-.667.42-1.295.972-1.74 1.662-.73 1.132-1.306 2.217-2.447 2.716-2.026.883-3.765.464-6.075.893-3.435 3.538-6.668 8.35-9.65 13.41-7.565 12.796-13.872 26.05-17.54 39.64 1.268-2.365 2.48-4.652 3.854-6.903 1.516-2.498 3.223-4.944 5.083-7.396 4.354-5.74 8.662-10.748 13.49-16.023 3.895-4.26 8.166-7.834 12.927-10.824 6.292-3.942 14.055-6.704 20.876-5.28.775.18 1.884.388 2.37.9-8.55-1.198-16.207 1.788-21.92 6.364-4.515 3.61-8.32 7.276-12.186 12.036-1.997 2.295-3.793 4.816-5.58 7.26-1.867 2.57-3.524 5.274-5.167 7.978-5.54 9.147-9.733 18.834-12.816 28.87-.088.316-.108.636-.196.952.15-.224.365-.47.51-.7 4.15-6.747 9.14-13.26 15.462-17.628.55-.377 1.128-1.1 1.275-1.672.684-2.677-1.358-3.965 1.468-7.67.648-.85 1.533-1.16 2.145-1.95 1.156-1.787 2.1-4.988 3.067-5.848-.487 2.084-1.682 4.285-1.938 6.433-.27 2.36.33 4.287.437 6.786 1.67.228 2.96.934 4.27 1.338 2.038.637 3.26.476 5.276.3.86-.072 2.42-.575 3.348-.385-1.948 1.065-4.58.87-6.572 1.886-1.393.715-1.797 1.77-3.72 2.14-1.713.335-3.152.156-4.265-.416-.866-.436-1.542-.617-2.32-.247-2.074.998-3.49 2.403-5.16 4.088-3.876 3.902-7.042 8.256-9.995 13.966a75.39 75.39 0 0 0-2.15 4.567c-.33.755-1.145 2.846-1.145 2.846H176.64s-.024-2.922.07-3.988c.195-2.126.483-3.702.897-5.858.588-3.102 1.162-5.916 1.966-8.925.786-2.928 1.63-5.675 2.634-8.487 2.094-5.86 4.32-11.476 6.756-16.94M91.007 200.916c3.698-3.024 6.436-4.775 10.128-6.976 1.5-.896 3.768-1.91 5.51-2.7 6.4-2.893 14.863-5.023 22.837-5.17.145 0 .136.006.136.006h59.454s-.223-.007.208-.007c1.892 0 3.764.658 4.923 1.75 1.158 1.1 1.714 2.797 2.017 4.484.256 1.437.13 2.716-.204 4.253-.26 1.215-.46 1.94-1.133 2.97-.41.63-.8 1.058-1.558 1.665-.78.624-1.89.84-3.157.853-.133.006-.416.012-.407.01.015-.01-69.54-.01-69.54-.01h-.65c-4.553-.017-9.346.215-13.845.803-3.446.47-6.9 1.007-10.23 1.875-4.2 1.097-8.244 2.614-12.282 4.12 2.238-2.974 4.82-5.5 7.794-7.927"></path><path d="M111.652 177.26c3.653-2.637 8.088-4.803 12.016-6.307a66.154 66.154 0 0 1 6.746-2.116c2.542-.64 5.462-1.12 7.845-1.19.716-.02.104-.006.104-.006l50.993-.004s1.094.06 1.472.132c.957.207 1.73.6 2.05.803.793.507 1.787 1.575 2.308 2.42 1.324 2.18 1.557 4.533 1.13 6.98-.49 2.798-2.617 5.983-5.5 6.062-.5.013-1.503 0-1.503 0h-55.23s-3.216.063-4.684.116a80.49 80.49 0 0 0-8.1.765c-2.028.292-4.01.676-6.04 1.22-6.81 1.84-12.727 5.294-18.915 7.978 4.168-7.283 9.806-12.863 15.307-16.85M83.125 211.92c8.865-5.237 19.544-7.304 29.318-7.63.232-.013.697-.026.697-.026l76.232.007.828-.006c4.62-.004 6.307 4.58 6.285 8.288-.01 1.22-.216 2.465-.554 3.3-.438 1.093-.925 1.985-1.718 2.845-.283.312-1.304 1.03-1.756 1.142-1.057.257-2.356.228-2.348.228.01 0-56.703.01-56.703 0 0 0-3.06-.123-5.182-.328a43.85 43.85 0 0 1-4.28-.613c-3.904-.775-7.14-2.047-10.523-3.09-2.255-.697-4.628-1.216-7.103-1.59-4.55-.698-9.522-1.014-14.12-.667-5.845.436-11.044 1.58-16.606 3.345.942-1.465 4.85-3.617 7.535-5.205"></path><path d="M124.186 235.824c-2.606-.92-5.15-2.104-7.43-3.61-2.97-1.967-4.427-3.53-8.267-5.305-3.287-1.52-5.91-3.018-10.493-4.678-2.21-.8-5.793-1.903-8.864-2.43a107.903 107.903 0 0 0-8.618-1.07s.896-.56 1.436-.727c4.48-1.36 8.434-2.028 13.033-2.368 4.033-.302 7.738.092 11.78.723 1.66.263 3.816.772 5.69 1.308 6.084 1.73 13.003 4.48 19.14 4.49.342 0 .303-.007.303-.007h56.843c1.715-.003 4.923.55 6.212 2.83 1.493 2.624 1.957 5.748.703 8.88-.38.94-1.01 2.287-1.918 3.104-.794.72-2.088 1.18-2.834 1.18-.216.012-.586 0-.586 0h-49.56-.27c-5.068 0-11.447-.612-16.3-2.32M146.76 253.403c-1.4-1.44-3.333-3.646-5.085-5.738-3.363-4.012-4.87-7.624-4.87-7.624h33.056s.09 3.815-.675 8.23c-.714 4.102-2.23 8.425-3.84 11.557-.058 3.21 1.296 6.195 1.52 9.366-2.716 1.667-5.636 3.318-8.07 5.658-.155.143-.406.143-.508-.242-1.304-4.888-1.992-9.248-3.06-14.08-3.014-2.33-5.84-4.405-8.466-7.125M180.828 250.692c-.935-1.728-1.633-4.008-2.705-5.363-.23 1.21.053 1.953-.11 3.11-.152.97-.948.566-1.108.11-.462-1.313-.956-2.932-1.38-4.275a25.272 25.272 0 0 1-.93-4.226l5.498-.01s.212.053.31.59c.262 1.385.198 2.738.578 4.343.488 2.068 1.116 3.956 1.876 5.884.66 1.698 1.513 3.41 2.207 5.095.093.22.14.647-.028.868-.204.257-.555.225-.756 0-1.576-1.79-2.212-3.817-3.452-6.128M189.34 254.622c-.935-1.993-2.25-4.234-2.136-6.495.608.797.86 1.372 1.696 1.817.383.12 1.185.007.984-.663-.37-1.244-.944-2.3-1.475-4.007a247.437 247.437 0 0 1-1.558-5.228l-5.612-.004s.312 2.28 1.588 5.773c1.12 3.096 2.852 6.638 4.748 9.958 1.544 2.73 2.948 5.114 4.7 7.11.6.684 2.072.08 1.435-.812-1.662-2.35-3.214-4.956-4.37-7.446M225.788 64.904c-1.22.53-2.295 1.217-2.903 2.388-.442.84-.74 2.124.106 2.845 1.482 1.264 3.25-.03 3.967-1.322.904-1.646.67-4.794.67-4.794s-1.054.55-1.84.884"></path><path d="M227.076 72.763c.533-1.004 1.7-2.09 2.977-2.868 1.446-.883 2.943-1.742 3.984-2.363 1.042-.625 1.24-1.064 1.24-1.064s-.858.295-1.328.572c-2.57 1.533-5.375 3.275-6.515 3.777-1.44.628-3.398.75-5.162.974-.28-2.223-.858-3.147-.852-5.123.016-.95.247-2.18.407-3.038.552-2.858.66-4.298.66-4.298s-.436.405-.596 1.663c-.178 1.136-.306 1.554-.566 2.897-.297 1.55-.607 2.864-1.533 3.833-1.335 1.38-2.573 3.842-1.54 5.727.6 1.1 1.605.94 1.92 1.224.313.283.505.96 1.455 1.277 2.052.684 4.378-1.156 5.45-3.19"></path><path d="M224.416 78.64c.696-1.13 1.41-1.925 2.508-2.6 1.82-1.108 3.173-1.86 4.284-2.43.483-.24.885-.53 1.008-1.045-.497.188-2.38 1.072-4.245 2.182-1.337.798-3.635 1.794-5.18 1.866-.61.027-1.066-.124-1.566-.14-1.035-.042-2.355.207-2.355.207s-.335-1.463-.777-2.517c-.222-.542-.58-1.098-.773-2.112a9.826 9.826 0 0 1-.116-2.298c.15-1.83.645-3.61.56-5.463-1.15 2.39-.68 5.333-2.03 7.183-.57.778-1.022 1.39-1.47 2.37-.74 1.608-.653 3.274.35 4.825.577.883 1.854.85 2.074 1.02.335.248.62 1.173 1.868 1.45 2.135.48 4.653-.51 5.86-2.5M225.012 125.384c.497-1.004.82-2.323 1.452-3.253-1.435.215-1.667.38-3.74.606-.45.044-1.385.513-1.695.82-.82.828-1.535 1.596-1.218 2.985.123.54.6.937.865 1.02 1.724.56 3.475-.464 4.335-2.176"></path><path d="M226.76 128.12c1.96-.457 4.224-1.417 5.132-1.115-1.84.978-4.156 1.332-6.192 1.914-1.555.445-2.664 1.62-4.05 2.685-1.274.968-2.967 1.363-4.48.65-.51-.242-1.005-1.064-1.094-1.504-.08-.35-.808-.7-1.184-1.01-.38-.313-.56-1.1-.568-1.403-.065-2.71 2-3.806 3.985-5.398 1.497-1.2 3.44-6.29 4.626-7.345-.21 1.64-2.343 4.736-3.272 7.144-.74 1.917-.497 3.452-.972 5.472 1.42.09 3.005.388 4.436.412 1.123.015 2.48-.23 3.633-.503"></path><path d="M224.7 132.3c-1.103.205-2.448.552-3.367.745-3.194.678-4.72-.888-7.27-.858.225-2.92-.79-4.228.045-6.116.745-1.678 1.435-3.457 2.075-4.88.518-1.142.676-2.106.676-2.106s-.776 1.16-2.977 5.447c-.766 1.5-2.136 1.82-3.354 3.233-1.402 1.616-2.205 5.033.386 6.466.515.282.44 1.17.815 1.53 1.73 1.628 5.226 1.464 7.41-.52 1.74-1.587 3.856-1.844 5.657-2.31 1.055-.273 1.98-.72 1.98-.72s-.5-.205-2.078.09M160.697 166.2c-.126 0-.26 0 0 0zm-14.918-42.072c-1.065 1.408-1.56 3.027-2.735 4.256-.613.643-1.55.343-2.036-.4-.54-.837-1.413-2.024-.763-2.852 1.066-1.368 3.3-2.24 5.2-1.995.112.014.724.466.332.99zm-5.113 8.052c-.596 1.596-2.374 1.767-3.886 2.083-.28.06-1.15 0-1.54-.384-.655-.64-1.22-1.512-1.107-2.605.062-.675.624-1.336 1.32-1.604 1.263-.49 2.76-1.277 4.004-.578 1.07.6 1.632 1.964 1.21 3.088zm-3.274 8.43c-.434.627-1.552-1.46-1.697-2.417-.417-2.77 2.01-3.476 4.032-3.39.063 1.65-1.217 4.208-2.335 5.806zm-2.184 7.47c-.398 1.113-.59 2.14-1.03 3.16-.43.985-2.264 1.337-3.282 1.02-1.452-.45-2.698-3.71-1.047-4.96 1.265-.943 2.573-1.095 4.182-1.292.29-.035 1.37.03 1.412.132.27.676.1 1.015-.235 1.94zm-2.446 8.612c-.294.855-.424 1.736-.803 2.56-.188.415-.437-.132-.446-.16-.57-1.42-.93-2.62-.445-3.87.274-.693 1.22-1.33 2.12-1.383-.056.887-.12 1.985-.426 2.852zm-2.886 4.2c-.657-.3-.647-1.14-.922-1.667-.26-.512-.817-1.217-.587-1.888 1.265.71 1.852 1.976 1.508 3.554zm-2.185-5.244c-1.51-1.24-1.642-3.228-2.65-4.748 1.113-.71 2.986-.568 3.563.84.46 1.13.795 2.79-.35 3.653-.126.09-.42.375-.563.255zm-5.633-10.245c-.227-.324-.675-1.258-.333-1.376 2.704-.932 4.733-.962 5.31 1.932.41 2.063-1 3.835-2.977 3.112-.567-.21-1.128-2.408-2-3.67zm-3.933-6.534c-.19-.238-.344-.957-.108-1.142 1.405-1.13 3.47-1.216 5.07-1.06 2.107.192 2.54 2.15 2.188 3.776-.464 2.14-3.707 2.404-4.625 2.048-.903-.347-1.533-2.39-2.526-3.623zm.46-7.605c1.82-1.18 5.304-2.057 5.884 1.143.177.964-.063 2.243-1.365 2.663-1.338.43-2.913.89-4.135.397-1.503-.616-1.8-3.287-.384-4.202zm-1.89-5.38c.138-.613.818-.904 1.39-1.05 1.474-.364 3.123-.914 4.477-.052.528.334.568.806.637 1.47.12 1.076-.032 1.954-.74 2.366-1.437.84-2.9.917-4.568.588-1.355-.267-1.465-2.06-1.195-3.324zm-1.51 8.294c-1.264-.935-1.822-2.255-2.753-3.563-.225-.32 0-.452.173-.502 2.24-.634 3.903.485 3.554 2.93-.06.472-.37 1.58-.974 1.134zM109 126.63c-.84-.727-.257-1.99.475-2.357 1.28-.636 3.294-.734 4.627-.283.857.288 1.29 1.52 1.138 2.86-.065.552-.233 1.157-.502 1.337-1.015.69-2.586.718-3.82.46-.874-.183-1.185-1.378-1.918-2.018zm-.97-7.633c.813-1.77 3.775-1.784 5.388-.997 1.314.646 1.48 3.093.045 4.057-1.145.763-2.95.483-4.163.26-1.724-.32-1.862-2.015-1.27-3.32zm.067-6.616c1.23-1.17 2.824-.633 4.306-.428.287.04.63.24.824.436 1.012 1.023 1.09 2.7-.035 3.537-1.3.965-2.924.337-4.486.258-.423-.017-.887-.512-.983-.83-.282-.99-.452-2.198.372-2.974zm.792-5.533c1.306-.545 3.55-.794 4.477.673.567.898.4 2.56-.51 2.804-.892.23-3.928.734-4.654-.944-.36-.824-.208-2.156.686-2.532zm4.022-4.7c.378.167.613.47.703.935.186 1.007-.08 2.1-1.046 2.278-1.45.264-3.606.348-3.6-1.706.007-2.29 2.262-2.264 3.944-1.506zm-2.923-4.255c.774-.295 2.045-.23 2.74.132.35.18.82.757.62 1.362-.245.79-.98 1.075-1.816 1.085-.803.008-1.724-.055-2.048-.712-.307-.622-.177-1.606.505-1.868zm.903-3.434c.706-.256 1.75-.237 2.265.32.707.773.15 2-1.185 1.94-.47-.02-1.026-.183-1.31-.344-.69-.39-.46-1.667.23-1.915zm3.175-2.21c.09-.298.555-.646.798-.73.53-.19 1.15-.23 1.657-.027 1.013.418.874 1.672-.208 2.11-.484.197-1.23.324-1.594.197-.68-.232-.87-.823-.652-1.55zm3.158 4.903c-1.106.323-2.646.386-2.977-.748-.56-1.924 1.867-2.212 3.125-1.806.87.273 1.176 2.172-.15 2.553zm.732-6.35c.35-1.192 1.7-1.84 2.924-1.476 1.052.31 1.295 1.742.584 2.438a3.12 3.12 0 0 1-1.427.76c-1.253.278-2.48-.412-2.082-1.722zm5.5 4.37c-.198.778-.768 1.314-1.682 1.515-.907.2-2.162.256-2.665-.305-.48-.53-.7-1.278-.3-1.85.804-1.14 2.274-1.54 3.584-1.25.747.174 1.297.94 1.064 1.89zm-.488-4.573c.488-1.08 1.727-1.625 2.917-1.263.238.076.73.46.797.84.14.75-.12 1.438-.747 1.83-.805.513-1.47.8-2.393.422-.695-.29-.864-1.19-.574-1.83zm5.125 3.037c.544.92-.284 1.844-.704 2.098-.93.545-2.244.88-2.805-.044-.553-.905-.095-1.98.868-2.38.92-.38 1.87-.958 2.642.327zm1.545 3.516c.608.503 1.142 1.56.413 2.395-.684.788-1.535 1.023-2.61 1.197-.73.123-1.66-.414-1.778-1.058-.108-.552-.21-1.563.34-2.027 1.07-.912 2.503-1.44 3.635-.507zm1.29-5.998c.575.17.942.777.654 1.364-.175.36-.69.75-1.02.952-.902.556-1.676.328-1.958-.336-.52-1.22 1.227-2.304 2.324-1.98zm2.2 3.038c.634.058.925.5 1.05.983.163.65-.05 1.25-.6 1.62-.65.432-1.464.688-2.114.697-.88.016-1.694-1.273-1.218-2.113.505-.9 1.775-1.28 2.882-1.187zm3.638 4.654c.373 1.102-.436 1.618-1.288 2.072-.868.46-2.03.893-2.633.317-.768-.725-1.11-1.944-.253-2.746 1.19-1.115 3.387-1.953 4.174.357zm1.57 2.77c1.394.175 1.67 2.16 1.39 2.876-.32.618-1.02 1.1-1.39 1.287-1.023.528-2.22.728-3.16.24-.857-.444-1.227-1.744-.762-2.764.63-1.377 2.617-1.812 3.92-1.64zm2.87 6.14c.476.664.372 1.848.088 2.22-.88 1.2-3.328 1.887-4.337 1.395-.77-.376-1.527-2.067-.628-3.083.935-1.053 2.563-1.682 4.04-1.373.33.072.547.436.835.84zm.617 3.78c.672.072 1.268.81 1.592 1.615.422 1.04-.004 2.25-.337 2.48-.803.544-3.344 2.073-4.944 1.157-.88-.506-1.123-1.66-1.177-2.34-.18-2.202 3.16-3.103 4.865-2.914zm-9.385 15.746c-.343-.874-.66-2.166.027-2.696 1.385-1.094 4.518-2.05 5.71-.396.775 1.074.548 2.894-.81 3.59-1.4.715-4.137 1.537-4.927-.497zm-6.722.096c1.39-.708 3.395-1.56 4.892-.597.685.44 1.392 2.262.91 3.07-1.028 1.716-3.73 2.152-5.447 1.71-1.463-.378-1.903-3.402-.355-4.184zm-1.25-5.933c1.678-1.182 4.99-1.943 5.79.636.207.67.325 1.41-.017 1.95-.93 1.494-3.287 1.887-4.865 1.664-1.707-.248-2.513-3.124-.907-4.25zm-1.413-6.01c1.612-.914 5.048-2.13 5.857.488.324 1.07.29 2.394-.626 2.866-1.313.69-3.394 1.41-4.908.47-1.264-.8-1.435-3.188-.323-3.823zm9.024-10.805c-.676.603-1.362.732-2.26 1.037-1.26.426-2.575-.543-2.72-1.747-.243-2.06 1.966-2.367 3.427-2.624 1.065-.195 1.725.763 1.92 1.405.202.62.176 1.45-.368 1.927zm2.707 4.85c-.96 1.43-4.822 2.327-5.674.858-.623-1.075-1.01-2.584.16-3.307 1.23-.756 2.685-1.206 4.115-.95 1.344.238 2.028 2.45 1.4 3.398zm2.06 8.845c.55.874.933 2.05.117 3.134-.74.996-3.383 1.46-4.736 1.133-.742-.186-1.093-1.09-1.207-1.697-.155-.823-.23-1.65.5-2.32 1.046-.96 2.444-.94 3.787-.94.552 0 1.332.357 1.54.69zm-.768-2.968c-.825 1.51-3.613 1.704-4.867 1.537-.883-.117-1.505-1.54-1.48-2.733.01-.613.2-1.02.62-1.244 1.392-.748 2.817-1.248 4.316-1.005 1.46.232 2.03 2.297 1.41 3.444zM121.4 112.1c-.948-2.916 2.696-3.836 4.823-3.385 1.48.308 1.975 3.153.597 4.05-1.704 1.108-4.73 1.467-5.42-.664zm-5.495 7.165c1.09-1.126 3.063-1.196 4.6-.988.946.13 1.353 1.086 1.485 2.122.368 2.85-3.46 3.328-5.28 2.66-1.2-.437-1.824-2.74-.805-3.795zm-.77-5.522c1.14-1.343 3.05-1.662 4.63-1.227.966.263 1.413 1.39 1.39 2.655a1.61 1.61 0 0 1-.95 1.42c-1.125.457-2.424.795-3.65.646-1.513-.187-2.43-2.303-1.42-3.493zm.18-6.014c1.404-.574 4.02-1.086 4.46.918.595 2.67-2.555 3.105-4.238 2.64-1.29-.352-1.535-3.028-.222-3.56zm10.098-4.413c1.05.596 1.27 2.278.63 3.25-.848 1.292-3.75 2.038-5.312.91-.89-.645-1.37-3.297.454-3.932 1.458-.51 2.856-1.005 4.228-.228zm-1.488-1.918c-1.19.736-2.887 1.028-4.013.403-.98-.535-.94-1.966-.456-2.736.798-1.283 2.78-1.422 4.15-1.02 1.183.342 1.626 2.54.32 3.352zm-9.637-2.092c.12-.38.29-.49.526-.605 1-.478 2.1-.606 3.06.01.69.447.63 1.48.117 2.014-.75.788-2.273.82-3.248.31-.63-.33-.66-1.108-.455-1.73zm.32 4.18c.442-1.264 2.02-1.193 3.213-1.04 1.47.193 1.764 2.076 1.242 2.868-.72 1.093-2.368.884-3.678.72-1.066-.14-1.13-1.55-.778-2.548zm20.734 38.027c.36 1.43 0 2.786-1.27 3.24-1.634.577-3.843 1.42-5.15.54-1.492-1-2.21-3.84-.495-4.954 2.026-1.324 6.058-2.192 6.914 1.175zm-2.2-4.44c-1.1 1.248-2.89 1.206-4.65 1.72-.678.198-1.483-.4-1.836-1.022-.65-1.16-1.3-2.716-.056-3.836 1.03-.938 2.438-.86 3.7-1.237.567-.17 1.262-.368 1.95.096 1.424.972 1.98 3.055.89 4.28zm11.64-18.686c.31.906.725 1.573.372 2.477-.42 1.11-1.495 1.26-2.505 1.626-.942.342-2.514.774-3.303-.052-.908-.94-1.274-2.85-.188-3.67 1.407-1.05 4.88-2.495 5.623-.38zm19.105-8.16c.83-3.385 1.86-6.817 2.12-10.393.378-5.345-.774-10.898-4.2-14.945.335 1.745.782 3.22 1.018 5.052.277 2.21-.035 4.673-.605 6.9-.434 1.687-1.192 3.325-1.946 4.89-.89 1.855-2.217 3.87-3.54 5.526-3.708 4.612-9.485 13.61-9.485 13.61s-.485-.034-.772-.034c-.068-1.12 2.592-4.963 3.935-7.113 2.945-4.714 5.176-7.25 7.738-11.336 1.606-2.58 2.83-5.714 3.226-8.555.797-5.792-2.325-12.732-6.815-15.04 1.026 4.325.92 10.42-1.384 12.985-4.357 4.858-6.95 8.492-10.06 14.72-.088.167-.816-.84-1.417-1.23-.676-.447-.298-1.783-.54-2.683-.22-.764-.58-1.352-.686-1.485-.92-1.13-1.81-1.2-2.004-1.54-.224-.38-.116-1.332-.92-2.417-.4-.546-1.422-.95-1.838-1.462-.45-.56-.655-2.273-1.896-2.975-.59-.33-.864-1.358-1.43-1.862-1.745-1.546-3.487-1.248-3.82-1.344-.45-.123-1.325-1.237-2.885-1.507-1.525-.258-2.364.76-3.156.39-1.986-.918-3.888-.994-5.998 1.358-.634.7-1.73.047-3.095 1.092-1.2.915-1.22 1.76-1.833 1.876-1.148.215-2.005 1.133-2.447 2.135-.23.517-.402 1.56-.537 2.25-.188.948-.668 1.824-.677 2.523-.01.97.295 1.495.21 1.93-.142.627-.65 1.203-.713 1.79-.046.335-.074 1.223.168 1.723.306.615-.214 1.15-.484 1.807-.258.61-.53 1.656-.447 2.393.11 1.012.69 1.383.238 2.18-.738 1.295-1.67 3.317-.035 5.9.3.472-.685 1.39-.74 2.74-.063 1.465.823 2.548 1.064 3.2.046.232-.39.22-.405.468-3.897-4.12-7.343-7.92-11.86-11.495-2.76-2.18-5.49-4.016-8.55-5.654-8.17-4.383-17.665-7.315-26.265-6.244 3.24 2.608 7.326 4.468 10.652 7.43 3.152 2.806 6.012 5.205 8.883 8.19 4.506 4.68 8.168 9.424 11.983 14.932 1.132 1.63 1.878 2.72 2.935 4.423 1.063 1.702 2.245 3.51 3.213 5.195 4.883 8.476 8.883 16.324 12.932 25.01 1.123 2.405 2.067 4.918 3.168 7.306.295.648.717.168 1.015 0 1.464-.847 3.02-1.553 4.54-2.27 1.213-.558 2.317-.942 3.4-1.358 2.74-1.044 5.34-1.61 8.208-2.207 4.788-1.002 13.39-.797 13.39-.797l16.314-.005h.444c-.17-4.675-1.28-9.22-1.55-13.91-.206-3.798-.08-7.472.054-11.278.364-10.314 1.88-21.386 4.185-30.784M52.685 71.536c-3.182 3.173-4.132 4.343-5.988 7.85-1.093 2.063-2.48 4.71-2.877 8.125 6.54-2.49 11.877-7.57 16.698-13.182 3.567-4.16 6.334-9.68 9.852-13.79-6.196 2.077-12.734 6.07-17.685 10.998"></path><path d="M33.963 80.457c2.465-4.165 5.996-8.67 9.658-11.74-1.695 3.808-3.784 7.583-4.5 12.088-1.425 8.97-2.768 15.252-4.256 23.44 4.068-2.902 8.358-7.46 12.67-10.644 3.334-2.447 6.674-4.083 10.102-6.44 2.037-1.404 3.365-3.21 5.06-4.9-2.02 8.512-9.49 17.103-14.837 21.108-6.72 5.037-9.128 5.84-19.924 16.82-1.37-13.556-1.127-27.644 6.027-39.73"></path><path d="M11.937 125.477c.503-7.038 1.347-12.67 3.057-19.536 1.198-4.793 3.78-11.932 7.5-14.86-.457 1.74-.696 4.347-.872 6.105-.73 7.254.66 15.676.825 22.92.083 3.563.05 6.31-.48 9.656-.553 3.51-.093 7.817-.093 7.817s1.923-2.196 3.64-4.933c3.753-5.96 4.955-7.73 7.978-10.957 3.75-4.007 7.947-7.718 12.683-11.004-.57 2.226-2.99 6.556-3.99 8.296-1.333 2.325-1.938 4.44-5.094 9.712-4.44 7.405-6.42 8.405-11.35 16.327-1.07 1.72-5.448 8.273-6.51 10.275-2.31-4.78-3.18-8.96-6.014-16.74-1.78-4.89-1.515-9.783-1.28-13.078"></path><path d="M5.08 162.1c-2.68-6.944-3.906-13.385-4.814-20.696-.555-4.473-.297-10.436 1.3-14.736.418 1.05 1.273 3.716 1.388 4.113 1.188 3.997 1.685 5.916 3.345 9.768 1.268 2.956 2.82 5.312 4.482 8.232 1.51 2.665 2.786 6.173 3.88 8.86 3.515 8.608 3.775 16.668 5.12 17.55.968-2.074 1.27-4.058 1.38-5.034 1.045-9.527 2.3-18.185 14.296-29.413 1.1 3.34.544 9.504-.118 12.804-1.434 7.216-2.593 10.68-5.77 17.674-1.68 3.684-3.924 9.104-4.538 10.897-1.61 4.676-2.163 7.127-3.176 9.894-5.664-9.438-12.635-19.183-16.777-29.91"></path><path d="M14.417 205.516c-4.032-5.615-5.502-8.435-8.127-14.408-2.204-5.015-2.837-6.872-4.128-12.487-.705-3.057-1.104-5.835-.556-7.644 3.157 5.717 5.312 12.115 9.44 16.855 3.28 3.762 6.438 6.965 9.045 10.14 4 4.878 7.147 9.495 10.985 14.574.323-2.545.448-5.125-.123-9.295-.78-5.717-.3-10.402.7-15.934 1.263-7.02 2.19-10.496 4.627-17.596 2.978 5.843 2.967 12.604 3.715 18.8 1.444 12.03-2.318 26.37-3.06 32.35-.197 1.574.076 5.462.156 6.975a170.613 170.613 0 0 1-15.485-13.773c-2.21-2.204-5.246-5.86-7.188-8.556"></path><path d="M35.747 249.62c-2.562-1.844-9.445-7.107-12.705-11.247-4.746-6.03-5.79-8.61-8.923-15.545-.384-.845-2.156-4.77-2.3-7.437 10.258 12.387 19.443 14.233 29.23 24.51 3.59 3.768 7.268 7.313 9.21 9.09 1.49 1.37 3.338 1.787 3.338 1.787s-.192-2.64-1.158-4.478c-6.53-12.48-7.76-25.527-6.77-39.528 2.98 3.69 3.92 6.153 5.81 9.72 2.057 3.888 3.106 6.29 4.068 8.683 5.587 13.904 7.04 29.966 10.493 38.048-10.655-3.588-19.045-5.506-30.293-13.603"></path><path d="M79.444 282.434c-2.882.193-8.533.175-11.545-.317-15.254-2.44-29.43-13.493-36.563-25.634 6.466 3.945 11.142 6.577 16.828 8.546 5.065 1.75 9.868 2.267 18.322 4.67 5.102 1.44 10.153 3.483 11.928 4.147 5.655 2.106 8.037 1.588 8.037 1.588s0-.86-2.113-3.163c-4.21-4.596-5.753-5.693-9.217-9.225-1.137-1.168-3.743-5.132-5.066-7.767-3.743-7.45-4.16-13.424-7.577-21.608 12.474 7.327 18.55 17.433 25.145 30.176 2.028 3.9 4.77 8.41 7.276 10.888 1.686 1.66 4.06 4.19 4.06 4.19s-1.74.41-7.155 1.21c-2.43.355-7.607 1.967-12.36 2.298M139.908 283.4c6.585 1.076 12.437 2.677 18.425 4.73 1.61.555 4.06 1.773 5.756 2.633 4.245 2.16 6.687 3.562 10.335 6.07 5.876 4.047 12.187 8.406 17.883 15.023.12.13 1.043 1.115.43 1.595-1.117.875-3.866 2.12-4.78 1.313-5.213-4.634-4.95-6.118-11.265-11.836a68.168 68.168 0 0 0-6.985-5.506c-2.85-1.948-6.296-4.08-9.497-5.66-2.91-1.428-7.39-1.857-9.905-1.857l.035.018c-1.143-.044-7.712-.08-9.232.02-12.908.884-12.276 2.04-19.718 4.055-6.122 1.665-12.69 2.85-19.208 3.726-6.678.907-12.654 1.016-18.914.38-8.487-.876-17.77-3.24-24.7-7.707 6.336.107 12.84 1.325 19.143.842 2.654-.206 6.956-.606 9.87-1.503 5.79-1.777 9.11-2.47 15.24-4.18 5.27-1.467 10.58-1.973 16.082-2.552 7.614-.816 14.666-.632 21.006.4M257.936 71.536c3.184 3.173 4.137 4.343 5.993 7.85 1.09 2.063 2.48 4.71 2.875 8.125-6.545-2.49-11.876-7.57-16.7-13.182-3.57-4.16-6.332-9.68-9.85-13.79 6.196 2.077 12.734 6.07 17.68 10.998"></path><path d="M276.664 80.457c-2.47-4.165-5.997-8.67-9.66-11.74 1.715 4.1 4.21 9.206 4.5 12.088.913 9.032 2.77 15.252 4.26 23.44-4.07-2.902-8.365-7.46-12.676-10.644-3.327-2.447-6.67-4.083-10.093-6.44-2.043-1.404-3.37-3.21-5.066-4.9 2.018 8.512 9.49 17.103 14.838 21.108 6.716 5.037 9.124 5.84 19.916 16.82 1.37-13.556 1.128-27.644-6.02-39.73"></path><path d="M298.688 125.477c-.507-7.038-1.343-12.67-3.056-19.536-1.197-4.793-3.78-11.932-7.505-14.86.46 1.74.696 4.347.874 6.105.737 7.254-.65 15.676-.823 22.92-.08 3.563-.05 6.31.48 9.656.552 3.51.095 7.817.095 7.817s-1.923-2.196-3.644-4.933c-3.744-5.96-4.948-7.73-7.98-10.957-3.747-4.007-7.945-7.718-12.684-11.004.577 2.226 2.996 6.556 3.995 8.296 1.34 2.325 1.936 4.44 5.096 9.712 4.44 7.405 6.42 8.405 11.345 16.327 1.07 1.72 5.455 8.273 6.513 10.275 2.314-4.78 3.183-8.96 6.018-16.74 1.785-4.89 1.52-9.783 1.278-13.078"></path><path d="M305.545 162.1c2.678-6.944 3.903-13.385 4.815-20.696.556-4.473.293-10.436-1.3-14.736-.417 1.05-1.27 3.716-1.388 4.113-1.192 3.997-1.684 5.916-3.34 9.768-1.272 2.956-2.833 5.312-4.49 8.232-1.51 2.665-2.783 6.173-3.883 8.86-3.512 8.608-3.772 16.668-5.117 17.55-.972-2.074-1.272-4.058-1.378-5.034-1.048-9.527-2.3-18.185-14.297-29.413-1.105 3.34-.544 9.504.112 12.804 1.44 7.216 2.604 10.68 5.776 17.674 1.68 3.684 3.923 9.104 4.543 10.897 1.6 4.676 2.153 7.127 3.175 9.894 5.66-9.438 12.63-19.183 16.77-29.91"></path><path d="M296.21 205.516c4.035-5.615 5.5-8.435 8.125-14.408 2.204-5.015 2.834-6.872 4.13-12.487.704-3.057 1.102-5.835.552-7.644-3.15 5.717-5.314 12.115-9.444 16.855-3.273 3.762-6.432 6.965-9.038 10.14-3.994 4.878-7.152 9.495-10.983 14.574-.32-2.545-.452-5.125.116-9.295.785-5.717.304-10.402-.692-15.934-1.267-7.02-2.195-10.496-4.628-17.596-2.976 5.843-2.968 12.604-3.717 18.8-1.447 12.03 2.325 26.37 3.063 32.35.194 1.574-.078 5.462-.157 6.975a170.61 170.61 0 0 0 15.484-13.773c2.212-2.204 5.24-5.86 7.19-8.556"></path><path d="M274.88 249.62c2.56-1.844 9.445-7.107 12.703-11.247 4.746-6.03 5.793-8.61 8.924-15.545.377-.845 2.156-4.77 2.3-7.437-10.26 12.387-19.446 14.233-29.23 24.51-3.59 3.768-7.266 7.313-9.208 9.09-1.49 1.37-3.34 1.787-3.34 1.787s.19-2.64 1.153-4.478c6.532-12.48 7.765-25.527 6.77-39.528-2.972 3.69-3.917 6.153-5.808 9.72-2.053 3.888-3.105 6.29-4.062 8.683-5.59 13.904-7.052 29.966-10.502 38.048 10.664-3.588 19.052-5.506 30.3-13.603"></path><path d="M231.18 282.434c2.888.193 8.535.175 11.55-.317 15.253-2.44 29.426-13.493 36.56-25.634-6.474 3.945-11.15 6.577-16.83 8.546-5.07 1.75-9.868 2.267-18.317 4.67-5.107 1.44-10.156 3.483-11.932 4.147-5.655 2.106-8.037 1.588-8.037 1.588s0-.86 2.11-3.163c4.213-4.596 5.758-5.693 9.216-9.225 1.14-1.168 3.745-5.132 5.068-7.767 3.743-7.45 4.16-13.424 7.58-21.608-12.472 7.327-18.56 17.433-25.152 30.176-2.024 3.9-4.765 8.41-7.268 10.888-1.683 1.66-4.063 4.19-4.063 4.19s1.74.41 7.16 1.21c2.426.355 7.6 1.967 12.356 2.298M170.717 283.4c-6.584 1.076-12.43 2.677-18.425 4.73-1.616.555-4.06 1.773-5.756 2.633-4.245 2.16-6.683 3.562-10.335 6.07-5.88 4.047-12.182 8.406-17.882 15.023-.123.13-1.048 1.115-.43 1.595 1.12.875 3.87 2.12 4.776 1.313 5.213-4.634 4.948-6.118 11.27-11.836a66.575 66.575 0 0 1 6.985-5.506c2.855-1.948 6.29-4.08 9.495-5.66 2.904-1.428 7.393-1.857 9.905-1.857l-.037.018c1.145-.044 7.71-.08 9.236.02 12.908.884 12.272 2.04 19.712 4.055 6.125 1.665 12.69 2.85 19.21 3.726 6.675.907 12.657 1.016 18.915.38 8.488-.876 17.768-3.24 24.695-7.707-6.332.107-12.832 1.325-19.143.842-2.654-.206-6.95-.606-9.865-1.503-5.79-1.777-9.113-2.47-15.24-4.18-5.27-1.467-10.58-1.973-16.078-2.552-7.618-.816-14.67-.632-21.01.4M147.57 0l-11.594 43.05h-12.308l-7.7-28.045-7.525 28.046H96.165L84.57 0H96.16l6.605 29.635L110.707 0h11.074l7.538 29.635L136.252 0h11.32M185.82 8.327h-19.804v8.01h18.36v8.326h-18.36V43.05h-11.044V0h30.848v8.327M217.537 13.835c0-1.21-.328-2.254-.982-3.128-.656-.876-1.418-1.487-2.284-1.832-1.157-.462-2.283-.716-3.382-.764-1.1-.047-2.564-.073-4.395-.073h-1.91v12.867h3.182c1.888 0 3.444-.116 4.67-.347 1.224-.23 2.25-.693 3.078-1.385a5.32 5.32 0 0 0 1.547-2.207c.32-.854.477-1.898.477-3.13zm11.48-.246c0 1.926-.34 3.81-1.014 5.65-.674 1.84-1.638 3.39-2.89 4.64-1.717 1.7-3.63 2.98-5.74 3.847-2.11.868-4.737 1.3-7.878 1.3h-6.91V43.05h-11.102V0h18.272c2.737 0 5.045.236 6.924.708 1.877.473 3.54 1.18 4.987 2.127 1.734 1.136 3.06 2.59 3.974 4.364.917 1.772 1.376 3.903 1.376 6.39M426.312 161.443L410.26 221.05h-17.043l-10.66-38.83-10.42 38.83h-17l-16.054-59.607h16.044l9.145 41.033 11-41.033h15.332l10.436 41.033 9.6-41.033h15.672M459.983 209.52c.933-1.145 1.633-2.527 2.1-4.143.468-1.614.702-3.85.702-6.705 0-2.64-.24-4.856-.72-6.647-.48-1.788-1.15-3.214-2.004-4.282-.852-1.092-1.88-1.867-3.08-2.323-1.2-.452-2.496-.68-3.883-.68-1.39 0-2.622.188-3.704.56-1.08.375-2.116 1.123-3.1 2.244-.882 1.04-1.582 2.468-2.102 4.284-.52 1.815-.78 4.096-.78 6.844 0 2.455.226 4.583.68 6.384.453 1.803 1.12 3.25 2.002 4.344.852 1.043 1.875 1.8 3.063 2.28 1.186.483 2.54.723 4.062.723 1.307 0 2.555-.22 3.743-.662 1.187-.44 2.195-1.18 3.023-2.22zm17.734-10.928c0 7.392-2.156 13.217-6.465 17.473-4.31 4.258-10.363 6.384-18.155 6.384-7.792 0-13.845-2.127-18.156-6.385-4.307-4.256-6.464-10.08-6.464-17.473 0-7.447 2.168-13.292 6.507-17.535 4.337-4.242 10.374-6.364 18.114-6.364 7.847 0 13.912 2.136 18.194 6.404 4.285 4.27 6.427 10.102 6.427 17.495M520.63 189.825h-1.277c-.612-.213-1.598-.374-2.957-.48-1.36-.106-2.49-.16-3.395-.16-2.05 0-3.86.134-5.43.4-1.573.267-3.263.72-5.074 1.36v30.106h-14.452v-44.957h14.452v6.607c3.17-2.723 5.925-4.53 8.268-5.424 2.344-.895 4.5-1.343 6.472-1.343.505 0 1.08.014 1.717.04.64.027 1.2.068 1.678.12v13.732M528.797 221.05h14.452v-62.29h-14.453zM586.083 208.676v-22.092a14.174 14.174 0 0 0-3.196-.92 18.643 18.643 0 0 0-3.075-.283c-3.783 0-6.617 1.183-8.508 3.55-1.89 2.365-2.836 5.646-2.836 9.843 0 4.41.76 7.61 2.277 9.603 1.518 1.99 3.952 2.985 7.31 2.985 1.304 0 2.688-.245 4.153-.74 1.464-.495 2.756-1.14 3.875-1.944zm14.45 12.375h-14.45v-4.683c-2.48 2.026-4.8 3.522-6.958 4.482-2.16.96-4.652 1.44-7.477 1.44-5.465 0-9.836-2.107-13.113-6.325-3.28-4.216-4.92-9.9-4.92-17.053 0-3.816.554-7.2 1.66-10.148 1.106-2.948 2.618-5.477 4.538-7.587 1.812-2 4.012-3.556 6.598-4.664 2.586-1.106 5.17-1.66 7.757-1.66 2.692 0 4.898.287 6.617.86a44.45 44.45 0 0 1 5.3 2.182V158.76h14.45v62.29M685.683 172.972H658.26v11.088h25.42v11.53h-25.42v25.46h-15.29v-59.607h42.713v11.53M723.713 209.52c.934-1.145 1.635-2.527 2.1-4.143.468-1.614.702-3.85.702-6.705 0-2.64-.24-4.856-.722-6.647-.478-1.788-1.146-3.214-2-4.282-.854-1.092-1.88-1.867-3.084-2.323-1.2-.452-2.497-.68-3.882-.68-1.39 0-2.62.188-3.704.56-1.08.375-2.116 1.123-3.1 2.244-.884 1.04-1.584 2.468-2.105 4.284-.52 1.815-.78 4.096-.78 6.844 0 2.455.225 4.583.68 6.384.452 1.803 1.12 3.25 2.003 4.344.853 1.043 1.873 1.8 3.06 2.28 1.19.483 2.544.723 4.065.723 1.307 0 2.556-.22 3.744-.662 1.184-.44 2.192-1.18 3.02-2.22zm17.734-10.928c0 7.392-2.154 13.217-6.464 17.473-4.312 4.258-10.363 6.384-18.155 6.384-7.793 0-13.847-2.127-18.156-6.385-4.31-4.256-6.465-10.08-6.465-17.473 0-7.447 2.168-13.292 6.505-17.535 4.34-4.242 10.375-6.364 18.116-6.364 7.847 0 13.912 2.136 18.195 6.404 4.282 4.27 6.424 10.102 6.424 17.495M780 209.52c.932-1.145 1.633-2.527 2.1-4.143.467-1.614.7-3.85.7-6.705 0-2.64-.24-4.856-.72-6.647-.48-1.788-1.148-3.214-2.003-4.282-.853-1.092-1.88-1.867-3.084-2.323-1.198-.452-2.494-.68-3.88-.68-1.39 0-2.622.188-3.705.56-1.08.375-2.115 1.123-3.1 2.244-.883 1.04-1.583 2.468-2.104 4.284-.52 1.815-.78 4.096-.78 6.844 0 2.455.227 4.583.68 6.384.453 1.803 1.12 3.25 2.004 4.344.853 1.043 1.872 1.8 3.06 2.28 1.19.483 2.544.723 4.065.723 1.307 0 2.555-.22 3.743-.662 1.185-.44 2.193-1.18 3.023-2.22zm17.732-10.928c0 7.392-2.155 13.217-6.464 17.473-4.312 4.258-10.363 6.384-18.155 6.384-7.793 0-13.846-2.127-18.156-6.385-4.31-4.256-6.466-10.08-6.466-17.473 0-7.447 2.17-13.292 6.506-17.535 4.34-4.242 10.375-6.364 18.117-6.364 7.847 0 13.912 2.136 18.194 6.404 4.282 4.27 6.425 10.102 6.425 17.495M837.324 208.676v-22.092a14.163 14.163 0 0 0-3.195-.92 18.683 18.683 0 0 0-3.077-.283c-3.784 0-6.617 1.183-8.508 3.55-1.892 2.365-2.837 5.646-2.837 9.843 0 4.41.76 7.61 2.277 9.603 1.518 1.99 3.954 2.985 7.31 2.985 1.305 0 2.688-.245 4.154-.74 1.463-.495 2.755-1.14 3.874-1.944zm14.45 12.375h-14.45v-4.683c-2.48 2.026-4.8 3.522-6.957 4.482-2.16.96-4.652 1.44-7.478 1.44-5.465 0-9.837-2.107-13.114-6.325-3.28-4.216-4.92-9.9-4.92-17.053 0-3.816.555-7.2 1.66-10.148 1.107-2.948 2.62-5.477 4.54-7.587 1.81-2 4.01-3.556 6.596-4.664 2.587-1.106 5.17-1.66 7.757-1.66 2.69 0 4.897.287 6.615.86a44.36 44.36 0 0 1 5.3 2.182V158.76h14.45v62.29M927.515 180.6c0-1.68-.455-3.123-1.363-4.335-.905-1.21-1.96-2.057-3.16-2.536-1.603-.64-3.163-.993-4.687-1.06-1.518-.065-3.548-.1-6.082-.1h-2.642v17.815h4.405c2.615 0 4.77-.16 6.464-.48 1.693-.32 3.114-.957 4.263-1.916a7.42 7.42 0 0 0 2.143-3.057c.44-1.184.66-2.63.66-4.333zm15.893-.343c0 2.67-.468 5.28-1.4 7.827-.935 2.55-2.27 4.69-4.005 6.424-2.376 2.35-5.026 4.124-7.946 5.325-2.922 1.2-6.558 1.802-10.91 1.802h-9.566v19.416H894.21v-59.607h25.3c3.79 0 6.985.326 9.59.98 2.6.654 4.9 1.634 6.903 2.942 2.404 1.576 4.24 3.59 5.507 6.046 1.265 2.455 1.9 5.405 1.9 8.847M984.524 189.825h-1.277c-.61-.213-1.6-.374-2.958-.48-1.36-.106-2.49-.16-3.394-.16-2.05 0-3.86.134-5.43.4-1.575.267-3.267.72-5.077 1.36v30.106h-14.45v-44.957h14.45v6.607c3.17-2.723 5.923-4.53 8.267-5.424 2.343-.895 4.5-1.343 6.474-1.343.506 0 1.077.014 1.718.04.636.027 1.196.068 1.676.12v13.732M1019.356 209.52c.933-1.145 1.633-2.527 2.104-4.143.463-1.614.7-3.85.7-6.705 0-2.64-.243-4.856-.72-6.647-.483-1.788-1.15-3.214-2.004-4.282-.855-1.092-1.883-1.867-3.08-2.323-1.203-.452-2.497-.68-3.885-.68-1.39 0-2.62.188-3.702.56-1.08.375-2.116 1.123-3.103 2.244-.88 1.04-1.58 2.468-2.1 4.284-.522 1.815-.782 4.096-.782 6.844 0 2.455.228 4.583.68 6.384.454 1.803 1.12 3.25 2.002 4.344.852 1.043 1.876 1.8 3.063 2.28 1.185.483 2.54.723 4.06.723 1.31 0 2.556-.22 3.745-.662 1.188-.44 2.196-1.18 3.023-2.22zm17.735-10.928c0 7.392-2.157 13.217-6.465 17.473-4.31 4.258-10.364 6.384-18.154 6.384-7.793 0-13.843-2.127-18.155-6.385-4.31-4.256-6.464-10.08-6.464-17.473 0-7.447 2.167-13.292 6.507-17.535 4.336-4.242 10.375-6.364 18.114-6.364 7.846 0 13.91 2.136 18.194 6.404 4.285 4.27 6.427 10.102 6.427 17.495M1075.127 206.88V186.5c-.827-.343-1.842-.62-3.04-.82-1.195-.2-2.276-.3-3.234-.3-3.78 0-6.616 1.09-8.506 3.263-1.892 2.176-2.838 5.212-2.838 9.108 0 4.325.803 7.34 2.417 9.05 1.61 1.707 4 2.56 7.17 2.56 1.435 0 2.848-.227 4.23-.68a16.18 16.18 0 0 0 3.8-1.8zm14.45 9.007c0 4.216-.602 7.765-1.802 10.646-1.2 2.883-2.882 5.138-5.046 6.766-2.16 1.653-4.77 2.848-7.826 3.583-3.055.733-6.505 1.1-10.348 1.1-3.124 0-6.2-.186-9.228-.56-3.028-.374-5.65-.827-7.864-1.362v-11.247h1.756c1.76.694 3.905 1.327 6.436 1.902 2.533.572 4.797.86 6.797.86 2.663 0 4.83-.247 6.496-.742 1.663-.493 2.934-1.193 3.814-2.1.825-.854 1.428-1.95 1.8-3.282.373-1.334.563-2.935.563-4.803v-.842a21.368 21.368 0 0 1-5.762 3.362c-2.104.83-4.45 1.242-7.036 1.242-6.29 0-11.14-1.895-14.555-5.685-3.412-3.79-5.118-9.556-5.118-17.294 0-3.71.522-6.91 1.56-9.606 1.04-2.697 2.504-5.045 4.4-7.047 1.758-1.866 3.924-3.322 6.495-4.362 2.575-1.042 5.204-1.562 7.897-1.562 2.426 0 4.63.287 6.615.86 1.987.575 3.792 1.368 5.42 2.383l.52-2.003h14.012v39.794M1134.215 189.825h-1.28c-.612-.213-1.596-.374-2.955-.48-1.36-.106-2.49-.16-3.396-.16-2.05 0-3.86.134-5.432.4-1.57.267-3.26.72-5.07 1.36v30.106h-14.455v-44.957h14.454v6.607c3.17-2.723 5.925-4.53 8.268-5.424 2.344-.895 4.5-1.343 6.47-1.343.506 0 1.08.014 1.717.04.64.027 1.2.068 1.68.12v13.732M1168.044 209.29v-9.338a161 161 0 0 0-6.323.66c-2.27.28-3.99.604-5.164.98-1.443.45-2.543 1.108-3.304 1.972-.76.867-1.14 2.003-1.14 3.412 0 .93.08 1.69.24 2.275.16.586.563 1.145 1.203 1.677.613.532 1.346.924 2.198 1.177.856.252 2.19.38 4.004.38 1.443 0 2.903-.293 4.384-.877 1.484-.587 2.784-1.36 3.904-2.316zm0 6.995c-.772.59-1.736 1.295-2.88 2.122-1.147.828-2.23 1.482-3.247 1.962-1.41.64-2.88 1.114-4.4 1.42-1.52.307-3.19.46-5.004.46-4.27 0-7.846-1.32-10.728-3.962-2.884-2.643-4.324-6.017-4.324-10.128 0-3.283.735-5.965 2.204-8.048 1.467-2.08 3.548-3.723 6.243-4.923 2.67-1.202 5.978-2.055 9.928-2.563 3.95-.507 8.046-.88 12.29-1.12v-.24c0-2.484-1.014-4.198-3.042-5.146-2.03-.945-5.016-1.42-8.967-1.42-2.375 0-4.91.42-7.607 1.26-2.697.843-4.63 1.488-5.806 1.944h-1.32v-10.848c1.52-.4 3.995-.875 7.424-1.423 3.43-.546 6.868-.82 10.31-.82 8.193 0 14.113 1.26 17.753 3.783 3.643 2.52 5.466 6.48 5.466 11.87v30.585h-14.292v-4.765M1237.944 189.184v31.867h-14.45v-22.458c0-2.188-.054-4.05-.162-5.585-.104-1.534-.397-2.782-.88-3.743a4.41 4.41 0 0 0-2.18-2.1c-.976-.44-2.344-.663-4.104-.663-1.416 0-2.79.29-4.123.863a30.627 30.627 0 0 0-3.604 1.82v31.868h-14.45v-44.957h14.45v4.964c2.48-1.946 4.853-3.468 7.12-4.562 2.263-1.095 4.768-1.642 7.516-1.642 2.96 0 5.57.66 7.837 1.98 2.264 1.323 4.036 3.264 5.318 5.827 2.875-2.43 5.674-4.337 8.394-5.725 2.717-1.387 5.383-2.082 7.996-2.082 4.848 0 8.533 1.455 11.05 4.363 2.52 2.91 3.78 7.1 3.78 12.57v29.265h-14.454v-22.458c0-2.215-.044-4.084-.14-5.605-.093-1.52-.38-2.762-.86-3.723-.453-.96-1.175-1.66-2.163-2.1-.986-.44-2.372-.663-4.162-.663-1.198 0-2.374.21-3.52.623-1.15.413-2.55 1.1-4.206 2.06M1323.137 189.184v31.867h-14.453v-22.458c0-2.188-.055-4.05-.16-5.585-.107-1.534-.4-2.782-.88-3.743a4.414 4.414 0 0 0-2.18-2.1c-.976-.44-2.344-.663-4.105-.663-1.42 0-2.79.29-4.125.863a30.5 30.5 0 0 0-3.603 1.82v31.868h-14.45v-44.957h14.45v4.964c2.48-1.946 4.852-3.468 7.12-4.562 2.264-1.095 4.768-1.642 7.515-1.642 2.957 0 5.57.66 7.834 1.98 2.267 1.323 4.04 3.264 5.32 5.827 2.88-2.43 5.675-4.337 8.392-5.725 2.72-1.387 5.388-2.082 8-2.082 4.84 0 8.535 1.455 11.055 4.363 2.506 2.91 3.773 7.1 3.773 12.57v29.265h-14.453v-22.458c0-2.215-.04-4.084-.134-5.605-.093-1.52-.386-2.762-.866-3.723-.454-.96-1.174-1.66-2.16-2.1-.987-.44-2.378-.663-4.164-.663-1.203 0-2.376.21-3.524.623-1.148.413-2.548 1.1-4.203 2.06M1394.36 192.787c-.08-3.015-.827-5.284-2.24-6.804-1.413-1.523-3.627-2.283-6.613-2.283-2.774 0-5.054.72-6.84 2.16-1.787 1.443-2.787 3.752-3 6.927zm14.333 8.446h-32.986c.213 3.524 1.546 6.22 4.013 8.088 2.467 1.868 6.107 2.803 10.92 2.803 3.04 0 5.987-.547 8.84-1.64 2.853-1.095 5.107-2.268 6.76-3.526h1.6v11.57c-3.253 1.31-6.32 2.256-9.2 2.844-2.88.586-6.067.88-9.573.88-9.014 0-15.92-2.027-20.734-6.083-4.8-4.056-7.2-9.835-7.2-17.334 0-7.418 2.267-13.297 6.827-17.636 4.547-4.336 10.787-6.504 18.707-6.504 7.32 0 12.813 1.848 16.493 5.544 3.693 3.698 5.533 9.014 5.533 15.952v5.043"></path></g></svg>