<svg xmlns="http://www.w3.org/2000/svg" viewBox="0 0 1821.5601 377.94666" height="377.947" width="1821.56"><defs><clipPath id="a"><path d="M0 2834.65V0h13661.7v2834.65z"></path></clipPath></defs><g clip-path="url(#a)" fill="#fff" transform="matrix(.13333 0 0 -.13333 0 377.947)"><path d="M1340.5 2131.15c12.51 27.06 24.11 48.64 40.8 74.32 7.35 11.34 15.68 19.23 23.1 30.66-3.54 1.01-8.73-1.9-10.96-3.5-7.42-5.39-10.77-14.12-16.72-18.8-14.01-11.08-13.65-21.1-20.98-26.26-6.58-4.65-8.45-7.69-13.07-14.91-3.08-4.82-5.36-8.73-8.56-18.23-1.17-3.44-3.48-.39-8.96-7.93-7.16-9.83-10.4-20.39-13.38-32.27-.94-3.91-7.59-5.99-11.84-14.08-5.72-10.9-9.43-21.04-11.91-36.92-.64-3.71-6.86-6.28-11.16-16.56-3.05-7.22-5.22-8.83-7.9-22.44-1.64-8.32-5.42-9.49-9.7-21.56-3.31-9.2-3.44-18.07-4.58-30.11-.27-2.31-4.22-6.92-7.82-13.67-6.13-11.24-5.93-18.76-8.33-30.4-.94-4.22-5.66-9.77-10.17-27.79-4.01-15.99-.34-26.56-1.68-34.46-3.54-20.47-7.05-38.19-5.15-58.36.94-9.82 2.44-20 1.78-29.46-1.87-29.7-3.48-54.18-3.31-87.82.1-18.33 1.53-43.41 4.31-64.32 3.04-23.04 7.43-41.06 7.43-41.06h75.14s-2.93 43.44.94 89.19c2.35 27.43 8.83 56.49 14.79 76.89 7.49 26.06 12.17 39.49 26.35 73.85.3.76-.1 3.97-3.85.83-7.85-6.59-14.38-12.37-20.57-21.67-9.46-14.28-15.21-26.02-22.87-40.67-8.96-16.99-13.89-31.84-23.12-52.51-.53 14.92 1.88 29.14 4.93 42.88 3.07 14.05 5.54 25.14 9.96 37.25 7.83 21.34 15.46 39.16 28 59.04 7.25 11.47 16.55 21.76 26.01 30.33 11.27 10.3 21.71 19.39 33.55 29.5-12.42 6.39-28.97-6.97-32.28-7.67-17.46-3.41-24.58-19.6-29.93-21.83-7.63-3.18-12.07-7.86-17.39-14.32-4.09-4.85-5.29-12.33-9.56-14.98-7.16-4.44-12.38-11.14-17.29-20.5-2.01-3.85-7.5-22.11-13.58-19.76 10.4 61.9 32.27 119.98 67.39 171.7 22.24 32.77 46.42 60.86 82.1 86.08 4.72 3.35 5.62 4.88-.94 4.68-33.34-4.08-35.38-19.3-40.87-20.73-5.21-1.34-11.67-7.53-15.78-11.54-7.39-7.32-7.29-13.47-10.14-15.42-6.08-4.25-10.63-8.66-14.77-16.02-2.21-3.84-5.89-12.31-9.13-14.24-8.57-4.95-16.87-12.18-20.98-19.97-3.07-5.73-4.28-11.91-8.26-17.53-4.28-6.02-10.22-10.5-15.35-14.85 3.89 26.46 16.36 57.8 24.95 84.85 11.5 36.15 25.52 68.96 41.31 103.07M1417.22 1916.64c28.45 63.88 58.36 111.95 97.25 168.13 5.08 7.35 9.67 14.58 14.08 21.47 2.01 3.15 11.58 16.86 13.55 19.8 13.04 19.66 18.53 25.68 31.86 44.51 3.62 5.12 6.57 9.13 8.1 15.02 2.84 11.03-6.62 18.43-8.8 28.99-2.21 10.78-.99 22.54 3.96 31.67 3.1 5.7 6.18 7.93 9.32 15.59 6.06 14.72 3.95 46.59 10.87 47.43-1.78-15.12-2.14-32.15.24-46.62 2.74-16.96 13.04-27.23 17.25-45.16 11.44 2.07 23.82 1.62 33.45.74 9.56-.81 21.6 1.84 31.41 5.22 13.27 4.51 24.27 12.77 37.78 15.95-11.5-11.04-27.73-15.19-41.34-23.58-4.98-3.14-9.7-7.29-13.04-12.44-5.45-8.5-9.79-16.65-18.33-20.4-15.21-6.62-28.26-3.48-45.58-6.69-25.75-26.55-50-62.64-72.37-100.59-56.72-95.96-104.05-195.36-131.54-297.29 9.5 17.75 18.6 34.88 28.9 51.77 11.38 18.73 24.18 37.09 38.12 55.48 32.68 43.01 64.98 80.6 101.18 120.17 29.22 31.98 61.23 58.76 96.95 81.16 47.19 29.57 105.42 50.31 156.55 39.6 5.82-1.34 14.14-2.88 17.79-6.71-64.11 8.99-121.54-13.42-164.41-47.73-33.85-27.09-62.37-54.58-91.37-90.3-14.98-17.19-28.45-36.13-41.83-54.45-14.02-19.26-26.46-39.53-38.77-59.83-41.54-68.59-73.01-141.23-96.12-216.48-.66-2.41-.8-4.82-1.47-7.16 1.1 1.67 2.71 3.51 3.82 5.22 31.1 50.63 68.55 99.46 115.95 132.23 4.15 2.81 8.46 8.26 9.56 12.51 5.11 20.11-10.17 29.76 11 57.53 4.88 6.39 11.51 8.73 16.09 14.65 8.7 13.4 15.76 37.39 23.01 43.87-3.65-15.65-12.6-32.17-14.52-48.26-2.04-17.68 2.48-32.14 3.28-50.9 12.51-1.71 22.21-6.99 32.04-10.03 15.25-4.78 24.45-3.55 39.56-2.24 6.43.53 18.13 4.31 25.09 2.87-14.58-7.95-34.31-6.49-49.29-14.14-10.44-5.35-13.49-13.24-27.91-16.02-12.84-2.51-23.64-1.17-31.97 3.11-6.48 3.28-11.56 4.65-17.38 1.83-15.59-7.45-26.19-18.02-38.73-30.63-29.06-29.26-52.81-61.93-74.95-104.75-5.85-11.39-11.13-22.67-16.12-34.24-2.48-5.69-8.6-21.33-8.6-21.33h-75.98s-.2 21.86.53 29.89c1.45 15.92 3.62 27.76 6.69 43.92 4.42 23.27 8.73 44.37 14.79 66.95 5.85 21.97 12.2 42.58 19.73 63.64 15.72 43.98 32.41 86.09 50.67 127.05M682.555 1324.86c27.722 22.67 48.257 35.78 75.953 52.3 11.25 6.69 28.254 14.3 41.332 20.25 47.992 21.65 111.47 37.64 171.27 38.74 1.1 0 1.035-.03 1.035-.03h445.915s-1.68.03 1.53.03c14.18 0 28.23-4.95 36.92-13.14 8.7-8.26 12.85-20.99 15.12-33.62 1.93-10.76 1.01-20.33-1.5-31.9-1.98-9.09-3.45-14.51-8.54-22.26-3.04-4.69-5.95-7.9-11.67-12.45-5.85-4.68-14.14-6.35-23.67-6.42-.98-.07-3.12-.14-3.05-.07.1.07-521.555.07-521.555.07h-4.883c-34.145.14-70.082-1.6-103.813-6.02-25.848-3.54-51.755-7.56-76.74-14.05-31.503-8.22-61.835-19.66-92.116-30.9 16.785 22.28 36.172 41.2 58.46 59.47"></path><path d="M837.398 1502.24c27.39 19.76 60.65 36.02 90.114 47.29 14.95 5.69 34.816 11.94 50.586 15.85 19.058 4.82 40.972 8.43 58.842 8.97 5.4.13.78.03.78.03l382.48.04s8.19-.44 11.03-1.01c7.16-1.54 12.98-4.48 15.38-6.02 5.92-3.78 13.38-11.77 17.3-18.13 9.93-16.35 11.67-33.98 8.45-52.37-3.68-20.94-19.6-44.85-41.23-45.45-3.78-.1-11.28 0-11.28 0h-414.23s-24.112-.47-35.112-.87c-20.37-.77-42.957-3.11-60.75-5.71-15.223-2.21-30.086-5.09-45.305-9.17-51.07-13.78-95.45-39.68-141.87-59.8 31.257 54.58 73.546 96.46 114.815 126.35M623.438 1242.32c66.488 39.25 146.574 54.77 219.882 57.18 1.74.14 5.215.21 5.215.21h577.945c34.64.06 47.32-34.32 47.15-62.14-.07-9.17-1.6-18.54-4.14-24.76-3.31-8.22-6.96-14.91-12.91-21.33-2.14-2.34-9.76-7.76-13.17-8.56-7.9-1.94-17.67-1.74-17.6-1.74.07 0-425.27-.07-425.27 0 0 0-22.942.93-38.864 2.47-11.473 1.14-20.184 2.35-32.106 4.62-29.28 5.81-53.547 15.32-78.925 23.14-16.91 5.22-34.715 9.17-53.282 11.91-34.11 5.29-71.402 7.62-105.88 5.01-43.846-3.27-82.838-11.83-124.55-25.08 7.06 11.04 36.372 27.16 56.505 39.07"></path><path d="M931.39 1063.06c-19.542 6.81-38.61 15.71-55.714 27.02-22.293 14.78-33.21 26.48-62.004 39.79-24.65 11.37-44.332 22.61-78.695 35.12-16.575 5.96-43.446 14.25-66.47 18.2-32.91 5.55-64.652 8.02-64.652 8.02s6.727 4.21 10.774 5.42c33.573 10.24 63.24 15.25 97.753 17.8 30.234 2.26 58.027-.68 88.344-5.42 12.44-2.02 28.61-5.82 42.656-9.84 45.648-12.98 97.523-33.57 143.558-33.64 2.564 0 2.28.07 2.28.07h426.33c12.87 0 36.92-4.15 46.58-21.27 11.2-19.67 14.69-43.08 5.28-66.56-2.87-7.09-7.59-17.19-14.37-23.28-5.96-5.42-15.66-8.89-21.27-8.89-1.61-.07-4.42 0-4.42 0h-371.7-2c-38 0-85.857 4.62-122.26 17.46M1100.7 931.148c-10.5 10.832-24.98 27.364-38.16 43.082-25.2 30.1-36.5 57.19-36.5 57.19h247.9s.67-28.64-5.05-61.74c-5.35-30.77-16.72-63.21-28.83-86.692-.4-24.078 9.77-46.476 11.4-70.226-20.36-12.5-42.23-24.883-60.49-42.41-1.18-1.14-3.05-1.14-3.82 1.808-9.76 36.65-14.91 69.36-22.94 105.61-22.61 17.468-43.81 32.98-63.51 53.378M1356.21 951.488c-7.02 12.973-12.27 30.09-20.29 40.262-1.75-9.09.4-14.648-.84-23.34-1.14-7.3-7.09-4.29-8.29-.87-3.48 9.89-7.16 22-10.34 32.1-5.29 16.8-6.99 31.71-6.99 31.71l41.23.07s1.61-.4 2.32-4.42c1.97-10.44 1.5-20.53 4.34-32.57 3.65-15.52 8.36-29.7 14.09-44.15 4.94-12.78 11.32-25.55 16.51-38.19.7-1.68 1.07-4.88-.2-6.56-1.54-1.928-4.15-1.67-5.68 0-11.78 13.45-16.56 28.63-25.86 45.958M1420.06 922.05c-7.02 14.92-16.89 31.712-16.02 48.7 4.54-5.95 6.42-10.3 12.71-13.648 2.87-.872 8.89-.07 7.39 5.02-2.77 9.3-7.09 17.187-11.07 30.026-5.92 18.942-11.67 39.202-11.67 39.202l-42.11.07s2.34-17.13 11.91-43.342c8.39-23.22 21.4-49.77 35.62-74.648 11.57-20.47 22.11-38.328 35.24-53.31 4.52-5.16 15.53-.68 10.77 6.08-12.47 17.59-24.11 37.12-32.77 55.85M1693.4 2344.89c-9.13-3.97-17.2-9.13-21.78-17.89-3.31-6.32-5.55-15.91.81-21.33 11.1-9.51 24.38.23 29.77 9.9 6.75 12.33 5.01 35.95 5.01 35.95s-7.89-4.09-13.81-6.63"></path><path d="M1703.06 2285.97c4.02 7.52 12.74 15.68 22.34 21.5 10.84 6.62 22.07 13.08 29.86 17.73 7.84 4.68 9.3 8 9.3 8s-6.42-2.21-9.93-4.32c-19.3-11.48-40.33-24.55-48.9-28.33-10.8-4.68-25.45-5.62-38.69-7.3-2.11 16.69-6.45 23.62-6.39 38.43.1 7.13 1.84 16.36 3.05 22.78 4.14 21.44 4.95 32.24 4.95 32.24s-3.28-3.05-4.45-12.47c-1.37-8.53-2.31-11.68-4.28-21.74-2.21-11.61-4.55-21.47-11.5-28.73-10-10.37-19.3-28.83-11.57-42.95 4.55-8.29 12.04-7.09 14.41-9.19 2.37-2.11 3.78-7.23 10.94-9.6 15.38-5.11 32.84 8.69 40.86 23.95"></path><path d="M1683.13 2241.89c5.22 8.49 10.57 14.45 18.79 19.5 13.69 8.33 23.81 13.95 32.14 18.22 3.62 1.81 6.62 3.98 7.53 7.83-3.71-1.4-17.83-8.02-31.83-16.35-10-5.99-27.27-13.48-38.83-14.02-4.59-.2-8 .94-11.75 1.07-7.75.3-17.66-1.54-17.66-1.54s-2.51 10.97-5.82 18.86c-1.67 4.08-4.37 8.23-5.82 15.86-.96 5.05-1.27 12.7-.87 17.23 1.15 13.74 4.86 27.09 4.22 40.96-8.63-17.92-5.11-40-15.25-53.87-4.28-5.82-7.63-10.44-11-17.76-5.58-12.08-4.92-24.56 2.61-36.19 4.35-6.62 13.91-6.39 15.55-7.69 2.54-1.84 4.67-8.77 14.05-10.84 15.98-3.62 34.87 3.81 43.94 18.73M1687.58 1891.29c3.74 7.53 6.12 17.43 10.9 24.42-10.77-1.61-12.51-2.85-28.06-4.55-3.38-.34-10.37-3.84-12.71-6.15-6.15-6.19-11.5-11.97-9.13-22.38.94-4.04 4.52-7.02 6.49-7.66 12.95-4.18 26.05 3.52 32.51 16.32"></path><path d="M1700.72 1870.79c14.68 3.41 31.63 10.64 38.46 8.36-13.78-7.35-31.17-10-46.46-14.35-11.64-3.37-19.96-12.17-30.36-20.16-9.53-7.26-22.24-10.2-33.58-4.88-3.85 1.83-7.56 7.99-8.19 11.31-.6 2.6-6.09 5.24-8.9 7.55-2.84 2.38-4.21 8.26-4.28 10.53-.47 20.33 14.98 28.54 29.9 40.51 11.23 8.99 25.82 47.15 34.71 55.05-1.6-12.28-17.59-35.52-24.54-53.55-5.56-14.41-3.71-25.91-7.29-41.07 10.67-.66 22.53-2.91 33.28-3.08 8.42-.1 18.59 1.71 27.25 3.78"></path><path d="M1685.23 1839.43c-8.26-1.55-18.35-4.13-25.24-5.59-23.95-5.09-35.39 6.65-54.52 6.46 1.68 21.86-5.92 31.69.34 45.84 5.59 12.61 10.76 25.96 15.55 36.63 3.91 8.56 5.09 15.78 5.09 15.78s-5.82-8.69-22.32-40.86c-5.75-11.21-16.05-13.62-25.15-24.22-10.53-12.11-16.55-37.76 2.89-48.5 3.87-2.14 3.31-8.79 6.11-11.46 12.98-12.21 39.17-11.01 55.58 3.87 13.05 11.91 28.9 13.81 42.41 17.33 7.93 2.04 14.85 5.42 14.85 5.42s-3.74 1.5-15.59-.7M1205.21 1585.19c-.93 0-1.93 0 0 0zm-111.87 315.53c-7.99-10.53-11.67-22.7-20.5-31.93-4.61-4.81-11.63-2.55-15.25 3.01-4.07 6.29-10.6 15.18-5.75 21.4 8.03 10.24 24.75 16.79 38.99 14.96.87-.11 5.46-3.49 2.51-7.44zm-38.35-60.4c-4.45-11.93-17.8-13.24-29.14-15.61-2.1-.47-8.62 0-11.57 2.88-4.88 4.81-9.13 11.33-8.29 19.53.47 5.08 4.68 10.03 9.91 12.03 9.47 3.68 20.69 9.57 30.02 4.36 8.03-4.49 12.24-14.76 9.07-23.19zm-24.54-63.2c-3.26-4.72-11.65 10.94-12.72 18.13-3.15 20.76 15.06 26.05 30.23 25.41.47-12.38-9.13-31.57-17.51-43.54zm-16.38-56.02c-2.97-8.36-4.4-16.05-7.73-23.72-3.22-7.39-16.977-10.02-24.598-7.65-10.902 3.38-20.234 27.82-7.86 37.19 9.47 7.09 19.298 8.23 31.368 9.69 2.16.28 10.27-.19 10.59-.96 2.02-5.09.73-7.63-1.77-14.55zm-18.347-64.61c-2.207-6.39-3.18-13.01-6.02-19.2-1.406-3.11-3.277 1-3.348 1.2-4.28 10.64-6.992 19.67-3.343 29.03 2.078 5.19 9.168 9.97 15.918 10.37-.434-6.66-.903-14.88-3.207-21.4zm-21.64-31.48c-4.91 2.21-4.85 8.54-6.927 12.48-1.937 3.85-6.117 9.13-4.39 14.18 9.496-5.35 13.894-14.85 11.316-26.66zm-16.388 39.3c-11.34 9.33-12.304 24.22-19.863 35.62 8.324 5.35 22.387 4.24 26.72-6.29 3.444-8.46 5.956-20.93-2.642-27.39-.937-.7-3.144-2.81-4.215-1.94zm-42.234 76.85c-1.71 2.42-5.07 9.44-2.51 10.34 20.28 6.99 35.495 7.19 39.827-14.48 3.082-15.52-7.504-28.8-22.34-23.38-4.246 1.58-8.46 18.06-14.976 27.52zm-29.503 49c-1.437 1.78-2.574 7.2-.8 8.56 10.534 8.46 26.02 9.13 38.007 7.96 15.8-1.43 19.047-16.15 16.422-28.33-3.492-16.05-27.81-18.03-34.7-15.35-6.75 2.58-11.488 17.93-18.93 27.16zm3.445 57.02c13.645 8.87 39.77 15.45 44.133-8.56 1.32-7.22-.488-16.82-10.254-19.97-10.034-3.21-21.835-6.69-31-2.97-11.272 4.61-13.495 24.64-2.878 31.5zm-14.175 40.37c1.035 4.61 6.128 6.79 10.433 7.86 11.05 2.75 23.406 6.89 33.578.4 3.946-2.51 4.242-6.05 4.782-11.03.882-8.07-.27-14.65-5.575-17.74-10.777-6.32-21.734-6.88-34.26-4.41-10.154 2.01-10.986 15.46-8.958 24.92zm-11.34-62.21c-9.46 7-13.65 16.9-20.633 26.72-1.676 2.41 0 3.38 1.3 3.75 16.8 4.75 29.262-3.61 26.657-21.94-.468-3.55-2.776-11.87-7.323-8.53zm-46.387 56.62c-6.29 5.42-1.91 14.92 3.574 17.66 9.602 4.79 24.72 5.49 34.72 2.14 6.417-2.17 9.667-11.4 8.526-21.46-.504-4.16-1.758-8.67-3.777-10.05-7.613-5.18-19.383-5.37-28.648-3.43-6.54 1.36-8.875 10.33-14.395 15.14zm-7.258 57.23c6.086 13.27 28.313 13.37 40.403 7.45 9.863-4.81 11.1-23.17.332-30.4-8.58-5.71-22.11-3.61-31.204-1.93-12.94 2.37-13.98 15.08-9.53 24.88zm.5 49.63c9.23 8.76 21.188 4.72 32.305 3.2 2.144-.29 4.72-1.83 6.172-3.27 7.592-7.66 8.19-20.23-.25-26.52-9.767-7.26-21.94-2.54-33.65-1.94-3.172.13-6.648 3.81-7.37 6.23-2.126 7.42-3.395 16.48 2.792 22.3zm5.953 41.5c9.797 4.09 26.625 5.95 33.578-5.05 4.247-6.72 3.008-19.22-3.812-21.04-6.702-1.74-29.464-5.51-34.917 7.09-2.703 6.19-1.566 16.16 5.152 19zm30.153 35.25c2.84-1.27 4.597-3.55 5.265-7.02 1.403-7.56-.57-15.75-7.828-17.05-10.902-2.02-27.055-2.62-27.004 12.77.056 17.16 16.974 16.95 29.568 11.3zm-21.926 31.9c5.805 2.21 15.35 1.75 20.54-.99 2.64-1.34 6.147-5.66 4.68-10.21-1.86-5.92-7.376-8.06-13.65-8.15-6.02-.04-12.906.43-15.347 5.35-2.305 4.65-1.34 12.03 3.777 14zm6.773 25.76c5.3 1.94 13.13 1.8 16.973-2.41 5.316-5.79 1.137-14.98-8.863-14.51-3.528.13-7.703 1.34-9.832 2.57-5.184 2.91-3.457 12.48 1.722 14.35zm23.832 16.59c.664 2.2 4.145 4.85 5.965 5.48 3.97 1.41 8.63 1.7 12.426.2 7.59-3.14 6.555-12.54-1.555-15.85-3.63-1.47-9.215-2.41-11.953-1.47-5.117 1.73-6.523 6.19-4.883 11.64zm23.676-36.79c-8.297-2.41-19.867-2.88-22.34 5.61-4.195 14.42 14.012 16.59 23.446 13.55 6.514-2.04 8.827-16.28-1.107-19.16zm5.485 47.63c2.624 8.96 12.746 13.8 21.937 11.06 7.88-2.3 9.703-13.04 4.383-18.29-2.422-2.34-6.418-4.72-10.72-5.68-9.382-2.07-18.608 3.07-15.6 12.91zm41.253-32.78c-1.487-5.82-5.768-9.83-12.624-11.38-6.808-1.47-16.222-1.9-19.988 2.32-3.594 3.98-5.246 9.59-2.254 13.88 6.02 8.55 17.063 11.57 26.89 9.36 5.587-1.31 9.716-7.03 7.977-14.18zm-3.66 34.31c3.66 8.1 12.94 12.18 21.868 9.46 1.79-.56 5.493-3.44 5.99-6.27 1.053-5.66-.904-10.82-5.618-13.76-6.024-3.85-11.004-6.01-17.942-3.14-5.2 2.18-6.473 8.93-4.297 13.71zm38.423-22.77c4.082-6.93-2.117-13.85-5.28-15.76-6.978-4.08-16.825-6.59-21.036.34-4.15 6.79-.703 14.85 6.504 17.86 6.907 2.88 14.032 7.19 19.813-2.44zm11.606-26.39c4.55-3.75 8.565-11.67 3.08-17.96-5.117-5.92-11.507-7.66-19.585-8.96-5.45-.94-12.426 3.11-13.325 7.93-.804 4.14-1.574 11.73 2.56 15.18 8.007 6.85 18.776 10.8 27.27 3.81zm9.667 45.02c4.312-1.28 7.054-5.86 4.898-10.24-1.316-2.71-5.187-5.65-7.64-7.15-6.774-4.18-12.575-2.48-14.684 2.51-3.91 9.13 9.2 17.28 17.427 14.88zm16.492-22.82c4.76-.43 6.94-3.75 7.87-7.35 1.22-4.88-.38-9.36-4.48-12.15-4.903-3.24-10.985-5.17-15.868-5.24-6.594-.14-12.71 9.56-9.133 15.85 3.78 6.72 13.312 9.6 21.61 8.89zm27.28-34.91c2.81-8.26-3.25-12.11-9.66-15.52-6.49-3.48-15.22-6.68-19.735-2.41-5.77 5.45-8.328 14.58-1.902 20.61 8.927 8.36 25.417 14.65 31.297-2.68zm11.78-20.74c10.46-1.34 12.54-16.22 10.43-21.6-2.41-4.62-7.66-8.22-10.43-9.63-7.66-3.98-16.63-5.49-23.68-1.8-6.44 3.31-9.23 13.07-5.73 20.73 4.73 10.3 19.64 13.57 29.41 12.3zm21.53-46.05c3.58-4.98 2.78-13.88.68-16.65-6.63-9.04-24.99-14.15-32.55-10.47-5.75 2.81-11.44 15.48-4.69 23.11 7 7.89 19.21 12.61 30.28 10.3 2.47-.57 4.11-3.27 6.28-6.29zm4.62-28.36c5.05-.57 9.53-6.09 11.97-12.14 3.15-7.8-.06-16.86-2.54-18.56-6.02-4.12-25.08-15.58-37.09-8.7-6.61 3.78-8.43 12.44-8.83 17.56-1.34 16.49 23.71 23.24 36.49 21.84zm-70.383-118.09c-2.56 6.55-4.934 16.22.2 20.2 10.383 8.2 33.893 15.39 42.823 2.97 5.82-8.05 4.11-21.7-6.05-26.92-10.5-5.35-31.036-11.53-36.973 3.75zm-50.414-.73c10.433 5.28 25.47 11.7 36.687 4.48 5.15-3.32 10.43-16.99 6.82-23.04-7.69-12.89-27.956-16.16-40.83-12.82-10.974 2.82-14.287 25.52-2.677 31.38zm-9.367 44.47c12.578 8.87 37.422 14.59 43.41-4.75 1.57-5.02 2.437-10.56-.117-14.61-6.974-11.21-24.665-14.18-36.505-12.5-12.793 1.87-18.828 23.43-6.79 31.86zm-10.602 45.09c12.09 6.86 37.856 15.95 43.934-3.68 2.422-8.03 2.183-17.92-4.703-21.48-9.848-5.17-25.45-10.56-36.8-3.5-9.486 5.98-10.76 23.91-2.43 28.66zm67.672 81.04c-5.063-4.52-10.195-5.49-16.938-7.8-9.43-3.18-19.312 4.08-20.402 13.11-1.805 15.45 14.75 17.76 25.72 19.7 7.975 1.44 12.93-5.76 14.397-10.57 1.504-4.65 1.325-10.87-2.777-14.44zm20.324-36.36c-7.19-10.73-36.176-17.45-42.558-6.46-4.668 8.07-7.582 19.4 1.183 24.82 9.23 5.65 20.153 9.03 30.875 7.12 10.08-1.8 15.21-18.39 10.5-25.48zm15.43-66.35c4.13-6.55 7-15.39.89-23.52-5.56-7.45-25.37-10.93-35.52-8.49-5.565 1.43-8.194 8.19-9.05 12.74-1.183 6.15-1.722 12.37 3.73 17.39 7.856 7.23 18.33 7.07 28.41 7.07 4.13 0 9.99-2.68 11.54-5.19zm-5.75 22.28c-6.18-11.35-27.094-12.82-36.488-11.58-6.64.9-11.29 11.58-11.09 20.53.07 4.58 1.492 7.63 4.633 9.3 10.453 5.62 21.132 9.36 32.375 7.55 10.95-1.73 15.21-17.21 10.57-25.8zm-110.082 24.41c-7.09 21.87 20.234 28.76 36.187 25.41 11.102-2.34 14.813-23.67 4.477-30.4-12.793-8.33-35.484-11.01-40.664 4.99zm-41.207-53.71c8.2 8.42 22.98 8.95 34.516 7.38 7.09-.97 10.133-8.12 11.122-15.88 2.757-21.4-25.934-24.99-39.594-20-9 3.27-13.684 20.6-6.043 28.5zm-5.784 41.39c8.562 10.07 22.875 12.44 34.75 9.2 7.222-1.97 10.586-10.43 10.418-19.9-.15-5.38-3.83-9.3-7.14-10.63-8.43-3.44-18.16-5.99-27.36-4.85-11.352 1.37-18.227 17.26-10.668 26.18zm1.37 45.09c10.52 4.32 30.134 8.16 33.442-6.89 4.453-20-19.156-23.27-31.8-19.8-9.665 2.68-11.505 22.75-1.64 26.69zm75.72 33.11c7.874-4.49 9.53-17.09 4.73-24.38-6.37-9.66-28.14-15.29-39.848-6.82-6.672 4.85-10.26 24.71 3.414 29.5 10.938 3.81 21.418 7.52 31.703 1.7zm-11.153 14.38c-8.93-5.51-21.656-7.72-30.098-3.01-7.343 4.02-7.058 14.75-3.425 20.5 5.984 9.63 20.867 10.67 31.132 7.66 8.86-2.58 12.192-19.06 2.39-25.15zm-72.29 15.69c.903 2.84 2.173 3.68 3.966 4.55 7.503 3.57 15.73 4.54 22.925-.07 5.183-3.38 4.73-11.11.902-15.12-5.62-5.92-17.06-6.15-24.383-2.3-4.715 2.44-4.93 8.29-3.41 12.94zm2.407-31.34c3.313 9.46 15.153 8.92 24.114 7.75 11.004-1.4 13.21-15.5 9.3-21.46-5.406-8.2-17.757-6.62-27.574-5.39-8 1.04-8.48 11.61-5.84 19.1zm155.52-285.22c2.7-10.7 0-20.89-9.53-24.3-12.263-4.32-28.83-10.64-38.62-4.06-11.198 7.49-16.585 28.83-3.725 37.16 15.2 9.93 45.445 16.46 51.875-8.8zm-16.528 33.31c-8.226-9.36-21.667-9.06-34.847-12.9-5.082-1.51-11.137 3.01-13.777 7.66-4.883 8.69-9.766 20.36-.418 28.79 7.742 7.03 18.273 6.43 27.742 9.27 4.246 1.26 9.46 2.77 14.633-.74 10.685-7.26 14.825-22.91 6.667-32.08zm87.328 140.14c2.3-6.79 5.41-11.81 2.77-18.59-3.14-8.3-11.2-9.47-18.79-12.18-7.06-2.58-18.86-5.82-24.78.37-6.79 7.05-9.54 21.41-1.41 27.56 10.57 7.85 36.62 18.69 42.21 2.84zm143.27 61.2c6.22 25.38 13.98 51.1 15.92 77.96 2.81 40.07-5.82 81.7-31.51 112.07 2.51-13.07 5.86-24.15 7.63-37.89 2.08-16.59-.27-35.05-4.55-51.73-3.21-12.65-8.93-24.96-14.58-36.7-6.65-13.91-16.62-29.03-26.55-41.43-27.8-34.58-71.14-102.07-71.14-102.07s-3.64.26-5.79.26c-.49 8.4 19.47 37.19 29.51 53.31 22.1 35.38 38.82 54.38 58.05 85.05 12.04 19.33 21.24 42.84 24.18 64.14 5.99 43.45-17.42 95.49-51.1 112.81 7.69-32.44 6.89-78.16-10.37-97.39-32.67-36.45-52.14-63.67-75.45-110.4-.67-1.23-6.12 6.29-10.63 9.24-5.08 3.34-2.24 13.37-4.05 20.1-1.64 5.75-4.35 10.16-5.15 11.17-6.89 8.42-13.58 8.95-15.04 11.5-1.68 2.87-.86 10-6.9 18.13-2.99 4.11-10.67 7.15-13.78 10.96-3.38 4.22-4.92 17.06-14.21 22.35-4.416 2.47-6.494 10.16-10.74 13.97-13.074 11.57-26.133 9.34-28.625 10.07-3.38.91-9.95 9.27-21.64 11.27-11.434 1.94-17.743-5.68-23.68-2.91-14.88 6.89-29.16 7.46-44.98-10.2-4.747-5.22-12.962-.34-23.208-8.16-9-6.86-9.168-13.21-13.746-14.08-8.612-1.6-15.034-8.49-18.358-16.02-1.707-3.87-3.012-11.71-4.016-16.85-1.402-7.12-5.015-13.71-5.086-18.93-.082-7.29 2.207-11.21 1.575-14.48-1.07-4.71-4.883-9-5.352-13.42-.332-2.5-.55-9.16 1.273-12.91 2.27-4.65-1.605-8.65-3.648-13.57-1.926-4.58-3.965-12.4-3.344-17.93.82-7.62 5.168-10.4 1.79-16.39-5.536-9.7-12.528-24.88-.266-44.24 2.254-3.51-5.133-10.41-5.55-20.54-.474-11 6.17-19.13 7.975-23.98.348-1.77-2.91-1.67-3.027-3.54-29.234 30.9-55.066 59.39-88.945 86.22-20.702 16.35-41.17 30.13-64.112 42.41-61.3 32.84-132.508 54.84-197 46.82 24.296-19.57 54.93-33.52 79.878-55.72 23.65-21.07 45.102-39.06 66.633-61.41 33.8-35.11 61.257-70.7 89.87-112 8.492-12.24 14.098-20.44 22.02-33.18 7.96-12.73 16.82-26.32 24.078-38.95 36.62-63.59 66.62-122.45 96.992-187.59 8.43-18.03 15.52-36.9 23.762-54.79 2.223-4.84 5.363-1.23 7.605 0 10.99 6.36 22.66 11.67 34.047 17.02 9.098 4.18 17.39 7.09 25.52 10.21 20.53 7.82 40.035 12.07 61.55 16.55 35.906 7.49 100.446 5.96 100.446 5.96l122.34.07h3.35c-1.31 35.04-9.64 69.12-11.64 104.3-1.57 28.46-.6 56.02.4 84.58 2.74 77.36 14.08 160.4 31.37 230.9M395.137 2295.17c-23.883-23.78-30.99-32.54-44.918-58.9-8.193-15.45-18.595-35.32-21.572-60.91 49.063 18.68 89.08 56.76 125.247 98.87 26.742 31.2 47.492 72.61 73.878 103.44-46.468-15.59-95.515-45.55-132.636-82.5"></path><path d="M254.703 2228.24c18.496 31.24 44.985 65.01 72.453 88.1-12.722-28.61-28.37-56.89-33.758-90.7-10.683-67.26-20.77-114.38-31.92-175.78 30.514 21.76 62.686 55.94 95.026 79.82 25 18.37 50.066 30.63 75.754 48.3 15.28 10.53 25.254 24.07 37.957 36.75-15.15-63.81-71.168-128.25-111.27-158.29-50.394-37.8-68.457-43.81-149.425-126.14-10.282 101.66-8.46 207.31 45.183 297.94"></path><path d="M89.523 1890.6c3.778 52.8 10.102 95.04 22.942 146.54 8.965 35.96 28.324 89.5 56.234 111.43-3.427-13.03-5.216-32.56-6.536-45.77-5.47-54.39 4.95-117.57 6.188-171.91.617-26.72.382-47.32-3.618-72.4-4.144-26.32-.68-58.63-.68-58.63s14.43 16.49 27.3 36.99c28.15 44.71 37.162 57.95 59.837 82.17 28.126 30.06 59.6 57.89 95.12 82.53-4.283-16.67-22.415-49.16-29.92-62.19-10-17.47-14.53-33.31-38.206-72.84-33.313-55.56-48.164-63.08-85.153-122.48-7.99-12.91-40.835-62.08-48.792-77.06-17.324 35.86-23.88 67.16-45.117 125.55-13.358 36.66-11.37 73.38-9.597 98.07"></path><path d="M38.086 1615.95C18.004 1668.02 8.79 1716.32 2 1771.16c-4.164 33.55-2.238 78.27 9.734 110.53 3.145-7.89 9.563-27.89 10.434-30.86 8.898-29.97 12.61-44.35 25.082-73.24 9.496-22.18 21.152-39.83 33.61-61.74 11.34-20 20.902-46.33 29.097-66.45 26.37-64.58 28.328-125.01 38.41-131.64 7.258 15.55 9.53 30.43 10.356 37.76 7.82 71.46 17.234 136.39 107.215 220.59 8.26-25.04 4.066-71.26-.9-96.01-10.737-54.11-19.433-80.14-43.276-132.58-12.59-27.63-29.414-68.25-34.012-81.74-12.09-35.05-16.223-53.43-23.828-74.19-42.492 70.78-94.766 143.89-125.836 224.36"></path><path d="M108.12 1290.34c-30.233 42.07-41.276 63.27-60.936 108.01-16.54 37.64-21.305 51.58-30.97 93.65-5.288 22.95-8.277 43.78-4.183 57.37 23.685-42.88 39.857-90.87 70.822-126.43 24.597-28.2 48.277-52.21 67.824-76.01 29.984-36.59 53.594-71.24 82.39-109.3 2.422 19.06 3.36 38.4-.937 69.7-5.857 42.88-2.243 77.99 5.25 119.5 9.48 52.63 16.452 78.69 34.714 131.96 22.34-43.84 22.258-94.54 27.855-141.02 10.84-90.17-17.388-197.73-22.938-242.61-1.477-11.77.566-40.94 1.172-52.31-42.207 33.25-79.75 66.82-116.153 103.27-16.592 16.6-39.33 43.95-53.91 64.22"></path><path d="M268.113 959.578c-19.226 13.78-70.867 53.242-95.297 84.352-35.597 45.21-43.425 64.54-66.92 116.58-2.876 6.36-16.17 35.79-17.26 55.78 76.938-92.9 145.833-106.75 219.247-183.87 26.918-28.23 54.512-54.78 69.058-68.158 11.17-10.3 25.052-13.383 25.052-13.383s-1.44 19.81-8.695 33.58c-48.96 93.58-58.207 191.43-50.785 296.45 22.355-27.7 29.414-46.15 43.593-72.91 15.418-29.16 23.293-47.16 30.5-65.08 41.907-104.34 52.81-224.74 78.692-285.408-79.9 26.95-142.836 41.328-227.184 102.066"></path><path d="M595.828 713.43c-21.617-1.41-63.992-1.34-86.582 2.41-114.398 18.262-220.73 101.2-274.207 192.238 48.49-29.566 83.546-49.367 126.198-64.078 37.977-13.18 74.012-17.06 137.407-35.05 38.273-10.84 76.152-26.09 89.46-31.11 42.422-15.78 60.286-11.9 60.286-11.9s0 6.42-15.835 23.74c-31.586 34.45-43.145 42.68-69.133 69.172-8.524 8.757-28.074 38.457-37.992 58.25-28.075 55.86-31.2 100.668-56.836 162.068 93.558-54.98 139.125-130.76 188.594-226.35 15.195-29.218 35.765-63.07 54.558-81.672 12.645-12.437 30.45-31.36 30.45-31.36s-13.04-3.077-53.657-9.097c-18.228-2.678-57.056-14.78-92.712-17.26M1049.3 706.2c49.4-8.08 93.31-20.06 138.19-35.51 12.07-4.15 30.43-13.25 43.17-19.73 31.84-16.19 50.17-26.69 77.53-45.49 44.05-30.36 91.4-63.08 134.1-112.7.91-.942 7.84-8.36 3.26-11.98-8.4-6.552-29.04-15.85-35.86-9.83-39.09 34.778-37.12 45.892-84.48 88.76-12.17 10.97-30.5 26.292-52.41 41.34-21.36 14.58-47.22 30.56-71.23 42.41-21.84 10.76-55.42 13.97-74.28 13.97l.27-.12c-8.57.328-57.86.59-69.26-.14-96.792-6.62-92.062-15.32-147.878-30.442-45.902-12.5-95.164-21.398-144.06-27.957-50.085-6.82-94.913-7.62-141.87-2.8-63.64 6.55-133.258 24.282-185.23 57.79 47.51-.81 96.304-9.97 143.582-6.36 19.875 1.54 52.152 4.55 73.992 11.3 43.43 13.31 68.34 18.54 114.31 31.38 39.53 10.97 79.362 14.77 120.616 19.13 57.105 6.08 109.998 4.75 157.538-3.02M1934.53 2295.17c23.88-23.78 31-32.54 44.91-58.9 8.23-15.45 18.64-35.32 21.6-60.91-49.09 18.68-89.09 56.76-125.27 98.87-26.76 31.2-47.5 72.61-73.85 103.44 46.46-15.59 95.48-45.55 132.61-82.5"></path><path d="M2074.96 2228.24c-18.5 31.24-44.98 65.01-72.44 88.1 12.84-30.77 31.57-69.06 33.78-90.7 6.82-67.73 20.73-114.38 31.9-175.78-30.49 21.76-62.7 55.94-95.05 79.82-24.95 18.37-50.02 30.63-75.71 48.3-15.32 10.53-25.25 24.07-37.96 36.75 15.15-63.81 71.14-128.25 111.27-158.29 50.36-37.8 68.42-43.81 149.36-126.14 10.3 101.66 8.45 207.31-45.15 297.94"></path><path d="M2240.18 1890.6c-3.82 52.8-10.11 95.04-22.95 146.54-8.96 35.96-28.32 89.5-56.28 111.43 3.43-13.03 5.21-32.56 6.55-45.77 5.52-54.39-4.88-117.57-6.15-171.91-.64-26.72-.4-47.32 3.57-72.4 4.15-26.32.73-58.63.73-58.63s-14.44 16.49-27.35 36.99c-28.09 44.71-37.12 57.95-59.83 82.17-28.13 30.06-59.59 57.89-95.15 82.53 4.35-16.67 22.48-49.16 29.97-62.19 10.03-17.47 14.51-33.31 38.22-72.84 33.28-55.56 48.13-63.08 85.08-122.48 8.03-12.91 40.91-62.08 48.87-77.06 17.32 35.86 23.85 67.16 45.12 125.55 13.38 36.66 11.4 73.38 9.6 98.07"></path><path d="M2291.61 1615.95c20.07 52.07 29.23 100.37 36.09 155.21 4.18 33.55 2.2 78.27-9.74 110.53-3.15-7.89-9.53-27.89-10.43-30.86-8.93-29.97-12.65-44.35-25.05-73.24-9.53-22.18-21.24-39.83-33.68-61.74-11.3-20-20.87-46.33-29.09-66.45-26.36-64.58-28.29-125.01-38.4-131.64-7.29 15.55-9.53 30.43-10.33 37.76-7.86 71.46-17.26 136.39-107.22 220.59-8.26-25.04-4.08-71.26.83-96.01 10.8-54.11 19.53-80.14 43.35-132.58 12.57-27.63 29.39-68.25 34.04-81.74 12-35.05 16.18-53.43 23.81-74.19 42.48 70.78 94.75 143.89 125.82 224.36"></path><path d="M2221.57 1290.34c30.28 42.07 41.28 63.27 60.94 108.01 16.52 37.64 21.27 51.58 30.98 93.65 5.28 22.95 8.25 43.78 4.14 57.37-23.62-42.88-39.87-90.87-70.83-126.43-24.55-28.2-48.24-52.21-67.8-76.01-29.97-36.59-53.64-71.24-82.37-109.3-2.41 19.06-3.38 38.4.87 69.7 5.89 42.88 2.28 77.99-5.19 119.5-9.49 52.63-16.45 78.69-34.71 131.96-22.31-43.84-22.27-94.54-27.85-141.02-10.87-90.17 17.42-197.73 22.94-242.61 1.47-11.77-.57-40.94-1.18-52.31 42.18 33.25 79.73 66.82 116.13 103.27 16.62 16.6 39.28 43.95 53.93 64.22"></path><path d="M2061.58 959.578c19.2 13.78 70.83 53.242 95.29 84.352 35.61 45.21 43.43 64.54 66.92 116.58 2.84 6.36 16.18 35.79 17.25 55.78-76.92-92.9-145.82-106.75-219.22-183.87-26.93-28.23-54.49-54.78-69.07-68.158-11.17-10.3-25.01-13.383-25.01-13.383s1.4 19.81 8.63 33.58c48.99 93.58 58.26 191.43 50.77 296.45-22.28-27.7-29.37-46.15-43.55-72.91-15.39-29.16-23.28-47.16-30.46-65.08-41.95-104.34-52.89-224.74-78.76-285.408 79.96 26.95 142.87 41.328 227.21 102.066"></path><path d="M1733.87 713.43c21.63-1.41 63.97-1.34 86.61 2.41 114.38 18.262 220.7 101.2 274.18 192.238-48.53-29.566-83.58-49.367-126.22-64.078-37.99-13.18-74.02-17.06-137.39-35.05-38.29-10.84-76.15-26.09-89.5-31.11-42.4-15.78-60.26-11.9-60.26-11.9s0 6.42 15.85 23.74c31.57 34.45 43.18 42.68 69.1 69.172 8.55 8.757 28.09 38.457 38.03 58.25 28.05 55.86 31.2 100.668 56.85 162.068-93.54-54.98-139.23-130.76-188.66-226.35-15.15-29.218-35.75-63.07-54.51-81.672-12.61-12.437-30.47-31.36-30.47-31.36s13.04-3.077 53.71-9.097c18.19-2.678 56.98-14.78 92.68-17.26M1280.4 706.2c-49.4-8.08-93.25-20.06-138.19-35.51-12.14-4.15-30.47-13.25-43.18-19.73-31.84-16.19-50.13-26.69-77.52-45.49-44.115-30.36-91.373-63.08-134.127-112.7-.922-.942-7.848-8.36-3.235-11.98 8.403-6.552 29.036-15.85 35.825-9.83 39.093 34.778 37.12 45.892 84.527 88.76 12.09 10.97 30.44 26.292 52.39 41.34 21.41 14.58 47.19 30.56 71.21 42.41 21.8 10.76 55.44 13.97 74.31 13.97l-.31-.12c8.6.328 57.83.59 69.27-.14 96.85-6.62 92.07-15.32 147.85-30.442 45.96-12.5 95.22-21.398 144.11-27.957 50.04-6.82 94.92-7.62 141.84-2.8 63.68 6.55 133.28 24.282 185.21 57.79-47.49-.81-96.25-9.97-143.57-6.36-19.91 1.54-52.11 4.55-73.98 11.3-43.41 13.31-68.36 18.54-114.28 31.38-39.53 10.97-79.36 14.77-120.6 19.13-57.16 6.08-109.99 4.75-157.55-3.02M1103.64 2834.65l-86.95-322.87h-92.303l-57.754 210.33-56.457-210.33h-92.07l-86.958 322.87h86.903l49.532-222.27 59.582 222.27h83.063l56.53-222.27 52.003 222.27h84.88M1390.5 2772.21h-148.53v-60.07h137.69v-62.44h-137.69v-137.92h-82.81v322.87h231.34v-62.44M1628.38 2730.91c0 9.06-2.44 16.88-7.35 23.44-4.93 6.59-10.64 11.14-17.13 13.75-8.69 3.47-17.15 5.35-25.38 5.72-8.23.36-19.23.57-32.98.57h-14.31v-96.53h23.88c14.14 0 25.82.87 35.02 2.61 9.19 1.74 16.88 5.19 23.06 10.37 5.35 4.62 9.24 10.17 11.61 16.59 2.41 6.39 3.58 14.21 3.58 23.48zm86.08 1.84c0-14.49-2.5-28.6-7.58-42.41-5.05-13.82-12.28-25.39-21.67-34.78-12.89-12.75-27.23-22.35-43.05-28.86-15.82-6.49-35.55-9.77-59.09-9.77h-51.84v-105.15h-83.24v322.87h137.02c20.53 0 37.85-1.77 51.93-5.32 14.09-3.54 26.6-8.86 37.43-15.95 13-8.5 22.94-19.43 29.8-32.71 6.86-13.31 10.29-29.29 10.29-47.92M500.73 257.852L442.69 70.57h-63.745L340.77 196.86 303.062 70.57h-64.378l-57.54 187.282h62.993l32.136-129.09 39.965 129.09h53.21l38.013-129.09 31.622 129.09h61.648M651.184 286.09H646.7c-2.677.8-6.118 1.672-10.4 2.672-4.265 1-8.827 1.468-13.71 1.468-11.774 0-19.72-2.07-23.88-6.28-4.148-4.29-6.222-12.438-6.222-24.552v-1.546h46.184v-40.66h-44.195V70.57h-60.215v146.62h-25.688v40.662h25.688v5.226c0 22.87 6.086 40.063 18.258 51.5 12.175 11.512 30.605 17.192 55.3 17.192 8.9 0 16.953-.27 24.184-.872 7.238-.668 13.625-1.468 19.18-2.476V286.09M790.574 165.55c0 18.188-3.11 31.43-9.328 39.67-6.207 8.22-16.02 12.3-29.465 12.3-5.65 0-11.468-.872-17.456-2.61-5.984-1.672-11.707-4.148-17.156-7.35v-94.11c3.992-1.54 8.277-2.552 12.82-3.01 4.555-.47 9.05-.67 13.485-.67 15.867 0 27.672 4.62 35.45 13.91 7.757 9.3 11.65 23.21 11.65 41.87zm61.87 1.27c0-15.45-2.354-29.488-7.07-42.2-4.73-12.71-10.92-23.14-18.577-31.382C818.805 84.62 809.742 78 799.64 73.59c-10.097-4.488-20.94-6.692-32.492-6.692-10.656 0-19.714 1.133-27.136 3.403-7.46 2.278-15.05 5.49-22.844 9.63V1.88h-60.2V257.85h60.2v-19.46c9.227 7.3 18.63 13.237 28.242 17.858 9.613 4.55 20.684 6.828 33.242 6.828 23.328 0 41.453-8.566 54.4-25.687 12.94-17.12 19.393-40.67 19.393-70.57M880.906 70.57H943.3v65.55h-62.394zM1102.68 118.602c3.91 4.808 6.82 10.558 8.76 17.25 1.94 6.757 2.94 16.058 2.94 27.957 0 11.042-1 20.268-3.01 27.702-2 7.418-4.78 13.367-8.36 17.86-3.55 4.538-7.82 7.75-12.84 9.687-4.98 1.88-10.37 2.81-16.19 2.81-5.75 0-10.9-.8-15.42-2.34-4.51-1.542-8.79-4.678-12.91-9.358-3.68-4.293-6.59-10.242-8.76-17.863-2.17-7.56-3.24-17.06-3.24-28.5 0-10.228.93-19.13 2.82-26.62 1.89-7.49 4.67-13.51 8.34-18.06 3.55-4.34 7.8-7.49 12.78-9.5 4.92-2 10.57-3.01 16.93-3.01 5.41 0 10.63.868 15.58 2.75 4.95 1.802 9.16 4.88 12.58 9.232zm73.91 45.546c0-30.77-9-55.058-26.96-72.777-17.96-17.78-43.14-26.62-75.65-26.62-32.44 0-57.66 8.84-75.617 26.62-17.957 17.72-26.957 42.01-26.957 72.778 0 31.043 9.032 55.383 27.125 73.043 18.06 17.72 43.21 26.548 75.45 26.548 32.71 0 57.99-8.886 75.82-26.687 17.86-17.788 26.79-42.07 26.79-72.902M1338.32 200.672h-5.35c-2.54.86-6.65 1.61-12.31 2.008-5.65.468-10.37.66-14.15.66-8.52 0-16.08-.54-22.63-1.668-6.56-1.133-13.58-3.012-21.14-5.684V70.57h-60.2v187.282h60.2V230.36c13.21 11.378 24.68 18.87 34.45 22.61 9.76 3.75 18.76 5.632 26.95 5.632 2.14 0 4.51-.07 7.19-.21 2.64-.142 4.99-.263 6.99-.54v-57.18M1477.18 129.63v84.882c-3.44 1.476-7.66 2.61-12.64 3.41-5.02.867-9.5 1.27-13.48 1.27-15.75 0-27.59-4.544-35.44-13.57-7.91-9.102-11.81-21.743-11.81-37.993 0-18 3.34-30.57 10.07-37.66 6.68-7.16 16.65-10.7 29.86-10.7 5.99 0 11.88.94 17.62 2.87 5.79 1.88 11.07 4.348 15.82 7.49zm60.2-37.52c0-17.598-2.48-32.372-7.49-44.34-5.02-12.05-12.01-21.48-21.03-28.24-9.01-6.882-19.84-11.9-32.62-14.91-12.7-3.08-27.09-4.62-43.11-4.62-13 0-25.82.8-38.42 2.352-12.64 1.527-23.55 3.468-32.78 5.68V54.91h7.33c7.32-2.94 16.25-5.54 26.82-7.96 10.53-2.33 19.96-3.54 28.3-3.54 11.1 0 20.12 1.012 27.08 3.09 6.93 2.07 12.21 4.94 15.89 8.762 3.44 3.54 5.95 8.09 7.49 13.636 1.58 5.55 2.34 12.23 2.34 20v3.543c-7.22-5.89-15.22-10.56-24.01-14.042-8.77-3.417-18.53-5.16-29.29-5.16-26.23 0-46.43 7.89-60.65 23.692-14.21 15.78-21.33 39.79-21.33 72.04 0 15.452 2.17 28.82 6.52 40.05 4.31 11.25 10.44 21.01 18.3 29.37 7.32 7.758 16.35 13.848 27.09 18.13 10.7 4.35 21.67 6.558 32.9 6.558 10.11 0 19.31-1.207 27.56-3.617 8.26-2.41 15.82-5.68 22.58-9.9l2.17 8.292h58.36V92.11M1752.7 330.102L1620.39 16.52h-51.2L1700.92 330.1h51.78M1920.71 200.13h-5.28c-2.54.94-6.62 1.608-12.28 2.01-5.64.47-10.33.66-14.08.66-8.52 0-16.04-.52-22.54-1.67-6.52-1.06-13.57-2.94-21.06-5.61V70.57h-59.97v186.55h59.97v-27.35c13.14 11.23 24.61 18.79 34.31 22.468 9.73 3.75 18.7 5.55 26.85 5.55 2.11 0 4.48 0 7.13-.128 2.68-.14 4.98-.28 6.95-.54v-56.99M2123.52 70.57h-59.99v20.602c-11.04-8.422-21.18-14.78-30.35-19.203-9.19-4.34-20.12-6.548-32.87-6.548-20.56 0-36.41 5.95-47.53 17.79-11.13 11.84-16.68 29.366-16.68 52.5v121.41h60v-92.513c0-9.42.3-17.25.9-23.54.61-6.21 2.04-11.44 4.25-15.52 2.11-4.07 5.28-7.09 9.56-8.96 4.25-1.87 10.21-2.81 17.86-2.81 5.09 0 10.73.94 16.93 2.81 6.22 1.87 12.16 4.68 17.93 8.29v132.24h59.99V70.57M2784.96 1282.56c0 37.4-18.28 56.12-54.81 56.12h-86.46v-125.22h84.65c37.74 0 56.62 23.02 56.62 69.1zm-9.64 181.41c0 38.46-15.53 57.71-46.58 57.71h-85.05V1409.3h81.15c33.65 0 50.48 18.22 50.48 54.67zm88.83-175.13c0-48.17-13.54-86.62-40.63-115.32-19.47-20.46-49.26-30.69-89.38-30.69h-166.43v449.48h164.88c34.54 0 63.34-11 86.35-32.98 23-21.97 34.51-50.22 34.51-84.74 0-38.32-11.77-69.14-35.32-92.43 11.83-7.02 22.16-18.45 30.99-34.3 10.02-18.28 15.03-37.95 15.03-59.02M3156.18 1259.48c-12.23-87.05-54.34-130.57-126.31-130.57-42.91 0-74.9 19.23-95.93 57.71-16.66 30.45-24.98 69.03-24.98 115.71 0 51.11 9.42 92.18 28.29 123.24 23.03 37.67 58.42 56.51 106.15 56.51 38.69 0 68.37-15.82 89.02-47.45 15.84-24.46 23.76-51.88 23.76-82.31h-68.48c-8 40.83-25.56 61.27-52.68 61.27-20.77 0-35.64-14.05-44.6-42.14-5.78-18.26-8.67-40.52-8.67-66.8 0-73.65 18.34-110.45 55.06-110.45 25.53 0 42.49 21.75 50.89 65.28h68.48M3372.03 1339.74c0 18.5-3.26 34.37-9.74 47.65-9.33 18.89-23.75 28.34-43.25 28.34s-34.41-8.64-44.74-25.94c-8.33-14.08-12.49-30.75-12.49-50.05zm73.78-34.5c0-1.8 0-4.63.04-8.44.01-3.82.03-6.62.03-8.42h-184.07v-20.71c0-18.82 4.93-35.61 14.82-50.42 11.31-16.8 25.75-25.19 43.31-25.19 11.52 0 22.46 4.61 32.86 13.87 10.4 9.27 16.81 19.63 19.23 31.11h70.17c-6.22-32.84-20.27-58.88-42.14-78.1-22.47-20.01-50.17-30.03-83.08-30.03-42.33 0-74.74 17.93-97.21 53.79-19.07 30.47-28.6 68.15-28.6 113.03 0 51.29 8.22 92.75 24.68 124.43 21.47 41.27 55.38 61.92 101.74 61.92 46.76 0 81.46-21.99 104.14-65.97 16.05-31.13 24.08-68.09 24.08-110.87M3804.5 1142.83h-72.77v181.8l-60.61-181.8h-42.44l-60.7 185.41v-185.41h-73.84v334.97h78.91l77.07-242.29 76.26 242.29h78.12v-334.97M4110.08 1142.83h-70.64v209.62l-102.54-209.62h-70.84v333.9h70.64l-.2-210.49 102.94 210.49h70.64v-333.9M4361.57 1303.07c0 74.38-19.93 111.58-59.77 111.58-22.46 0-38.95-14.04-49.47-42.09-7.09-19.47-10.62-42.63-10.62-69.49 0-27.07 3.53-49.93 10.62-68.57 10.1-26.88 26.59-40.3 49.47-40.3 22.23 0 38.52 13.62 48.85 40.89 7.28 19.06 10.92 41.71 10.92 67.98zm70.66-2.54c0-46.49-7.77-84.57-23.22-114.21-19.86-38.28-50.93-57.41-93.27-57.41-29.9 0-54.57 16.17-74.03 48.53v-170.53h-70.64v469.82h70.64v-50.37c16.05 37.14 42.13 55.72 78.24 55.72 40.74 0 70.8-21.45 90.27-64.33 14.65-32.06 22.01-71.13 22.01-117.22M4726.53 1142.83h-70.63v149.82h-102.75v-149.82h-70.62v333.9h70.62v-127.36h102.75v127.36h70.63v-333.9M4940.58 1274.76v31.51c-13.12-7.61-34.93-15.62-65.45-24.02-8.67-2.4-16.16-7.81-22.44-16.2-6.36-8.41-9.51-17.11-9.51-26.1 0-31.22 11.64-46.83 34.98-46.83 41.62 0 62.42 27.21 62.42 81.64zm83.6-131.93h-76.02c-5.07 8.43-7.58 18.46-7.58 30.1v3.31c-26.16-31.56-55.05-47.33-86.56-47.33-27.36 0-48.16 9.5-62.34 28.48-12.77 16.79-19.13 39.36-19.13 67.74 0 31.58 7.2 55.45 21.61 71.63 10.83 12.2 29.16 22.48 55.05 30.87l73.6 23.99c11.81 5 17.77 16.08 17.77 33.27 0 26.97-14.35 40.47-43.01 40.47-31.24 0-47.89-19.98-49.9-59.93h-66.42c0 77.76 37.85 116.65 113.51 116.65 75.48 0 113.24-35.3 113.24-105.86v-182.26c0-14.85 5.35-27.98 16.18-39.41v-11.72M5243.11 1325.83v88.82h-44.92c-40 0-59.96-13.71-59.96-41.11 0-20 5.81-33.42 17.45-40.2 8.43-5.01 23.01-7.51 43.71-7.51zm70.63-183h-70.63v124.14h-46.75l-64.58-124.14h-80.24l79.73 139.87c-43.88 15.64-65.81 46.22-65.81 91.76 0 56.76 31.97 89.93 95.91 99.56 12.08 1.81 32.78 2.71 62.14 2.71h90.23v-333.9M5831.53 1142.77h-75.97v378.86h-145.55v-378.86h-75.98v449.5h297.5v-449.5M6083.97 1303.02c0 74.38-19.92 111.59-59.78 111.59-22.46 0-38.95-14.05-49.45-42.11-7.09-19.44-10.63-42.63-10.63-69.48 0-27.09 3.54-49.93 10.63-68.56 10.09-26.89 26.58-40.33 49.45-40.33 22.25 0 38.53 13.64 48.87 40.94 7.26 19.02 10.91 41.67 10.91 67.95zm70.65-2.54c0-46.48-7.74-84.54-23.18-114.21-19.87-38.29-50.96-57.42-93.31-57.42-29.88 0-54.55 16.18-74.02 48.55v-170.55h-70.62v469.83h70.62v-50.36c16.06 37.14 42.13 55.71 78.24 55.71 40.75 0 70.82-21.45 90.3-64.32 14.64-32.06 21.97-71.15 21.97-117.23M6390.05 1305.6c0 27.29-3.95 50.47-11.8 69.57-11.11 26.28-28.49 39.44-52.11 39.44-24.22 0-41.79-13.06-52.71-39.15-7.87-18.66-11.8-41.97-11.8-69.86 0-72.87 21.5-109.33 64.51-109.33 42.62 0 63.91 36.46 63.91 109.33zm70.64 0c0-49.7-9.84-90.06-29.47-121.14-23.46-37.09-58.53-55.61-105.23-55.61-47.09 0-82.39 18.46-105.82 55.31-19.46 30.84-29.16 71.34-29.16 121.44 0 49.69 9.8 90.07 29.45 121.13 23.44 36.86 58.63 55.3 105.53 55.3 46.7 0 81.77-18.54 105.23-55.59 19.63-31.08 29.47-71.34 29.47-120.84M6693.99 1209.11v201.21h-70.62c0-91.18-10.78-158.2-32.33-201.21zm97.39-148.76h-70.63v82.42h-158.4v-82.42h-70.62v148.76h24.67c27.07 47.36 40.6 136.53 40.6 267.57h207.62v-267.57h26.76v-148.76M7016.44 1305.6c0 27.29-3.95 50.47-11.82 69.57-11.11 26.28-28.5 39.44-52.11 39.44-24.22 0-41.8-13.06-52.7-39.15-7.89-18.66-11.81-41.97-11.81-69.86 0-72.87 21.5-109.33 64.51-109.33 42.62 0 63.93 36.46 63.93 109.33zm70.62 0c0-49.7-9.82-90.06-29.45-121.14-23.48-37.09-58.56-55.61-105.24-55.61-47.11 0-82.4 18.46-105.84 55.31-19.45 30.84-29.16 71.34-29.16 121.44 0 49.69 9.81 90.07 29.46 121.13 23.45 36.86 58.63 55.3 105.54 55.3 46.68 0 81.76-18.54 105.24-55.59 19.63-31.08 29.45-71.34 29.45-120.84M7316.08 1246.87c0 26.92-15.68 40.37-47.05 40.37H7208v-87.76h59.8c32.19 0 48.28 15.79 48.28 47.39zm-12.83 134.8c0 25.52-13.9 38.29-41.7 38.29H7208v-76h51.74c28.98 0 43.51 12.57 43.51 37.71zm86.66-139.65c0-26.66-7.62-49.1-22.87-67.35-17.73-21.27-42.42-31.9-74.16-31.9h-155.53v333.91h148.36c26.53 0 48.4-7.93 65.61-23.76 17.19-15.85 25.76-36.9 25.76-63.17 0-10.84-3.85-23.19-11.54-37.02-8.54-15.06-18.36-25.26-29.51-30.64 16.75-2.62 30.17-12.65 40.27-30.11 9.06-15.24 13.61-31.9 13.61-49.96M7628.64 1305.6c0 27.29-3.94 50.47-11.77 69.57-11.14 26.28-28.5 39.44-52.11 39.44-24.24 0-41.8-13.06-52.7-39.15-7.91-18.66-11.85-41.97-11.85-69.86 0-72.87 21.54-109.33 64.55-109.33 42.61 0 63.88 36.46 63.88 109.33zm70.63 0c0-49.7-9.83-90.06-29.44-121.14-23.47-37.09-58.55-55.61-105.23-55.61-47.13 0-82.38 18.46-105.86 55.31-19.43 30.84-29.16 71.34-29.16 121.44 0 49.69 9.82 90.07 29.49 121.13 23.42 36.86 58.6 55.3 105.53 55.3 46.68 0 81.76-18.54 105.23-55.59 19.61-31.08 29.44-71.34 29.44-120.84M8002.14 1142.77h-70.63v267.55h-80.27v-163.45c0-27.92-7.03-52.2-21.13-72.87-15.9-23.68-37.23-35.52-64.03-35.52-14.47 0-26.03 1.2-34.7 3.61v62.4c4.68-1.93 10.84-2.87 18.55-2.87 20.45 0 30.69 16.72 30.69 50.24v224.82h221.52v-333.91M8226.36 1246.3c0 31.57-17.44 47.36-52.21 47.36h-34.49v-94.18h37.46c32.81 0 49.24 15.59 49.24 46.82zm70.62 3.28c0-35.98-12.54-63.34-37.56-82.07-22.24-16.49-51.87-24.74-88.88-24.74h-101.51v333.91h70.63v-126.3h51.03c32.41 0 58.03-8.56 76.86-25.62 19.61-17.73 29.43-42.78 29.43-75.18M8580.24 1259.42c-12.22-87.03-54.37-130.57-126.34-130.57-42.87 0-74.89 19.26-95.92 57.72-16.64 30.43-24.94 69.03-24.94 115.72 0 51.1 9.39 92.17 28.26 123.24 23.05 37.66 58.42 56.5 106.15 56.5 38.69 0 68.38-15.82 89.02-47.46 15.82-24.44 23.77-51.86 23.77-82.31h-68.47c-8.03 40.85-25.57 61.28-52.72 61.28-20.74 0-35.62-14.05-44.59-42.14-5.78-18.27-8.65-40.52-8.65-66.81 0-73.64 18.32-110.46 55.04-110.46 25.57 0 42.48 21.77 50.92 65.29h68.47M8860.99 1410.32h-87.37v-267.55H8703v267.55h-88.83v66.36h246.82v-66.36M9086.87 1246.87c0 26.92-15.73 40.37-47.09 40.37h-61v-87.76h59.78c32.19 0 48.31 15.79 48.31 47.39zm-12.86 134.8c0 25.52-13.9 38.29-41.7 38.29h-53.53v-76h51.7c29.02 0 43.53 12.57 43.53 37.71zm86.7-139.65c0-26.66-7.65-49.1-22.95-67.35-17.65-21.27-42.4-31.9-74.12-31.9h-155.51v333.91h148.36c26.49 0 48.36-7.93 65.55-23.76 17.19-15.85 25.82-36.9 25.82-63.17 0-10.84-3.87-23.19-11.56-37.02-8.54-15.06-18.36-25.26-29.51-30.64 16.74-2.62 30.17-12.65 40.27-30.11 9.1-15.24 13.65-31.9 13.65-49.96M9381.24 1339.68c0 18.52-3.28 34.37-9.77 47.66-9.33 18.89-23.75 28.34-43.24 28.34-19.51 0-34.41-8.65-44.74-25.93-8.34-14.08-12.48-30.74-12.48-50.07zm73.77-34.48v-8.46c.04-3.82.08-6.62.08-8.43h-184.08v-20.67c0-18.83 4.92-35.66 14.82-50.43 11.29-16.79 25.74-25.22 43.3-25.22 11.5 0 22.48 4.61 32.83 13.91 10.45 9.23 16.84 19.6 19.28 31.1h70.16c-6.21-32.84-20.26-58.89-42.13-78.12-22.48-20-50.18-30.03-83.09-30.03-42.34 0-74.76 17.92-97.24 53.81-19.07 30.47-28.56 68.12-28.56 113.01 0 51.29 8.22 92.77 24.67 124.44 21.48 41.27 55.39 61.92 101.74 61.92 46.75 0 81.46-21.99 104.14-65.96 16.05-31.14 24.08-68.1 24.08-110.87M9750.52 1142.77h-70.63v149.82h-102.73v-149.82h-70.65v333.91h70.65v-127.37h102.73v127.37h70.63v-333.91M10058.7 1142.77h-70.58v149.82h-102.76v-149.82h-70.62v333.91h70.62v-127.37h102.76v127.37h70.58v-333.91M10272.8 1274.73v31.5c-13.1-7.62-34.9-15.65-65.4-24.01-8.7-2.4-16.2-7.82-22.5-16.22-6.3-8.39-9.5-17.09-9.5-26.12 0-31.2 11.7-46.82 35-46.82 41.6 0 62.4 27.22 62.4 81.67zm83.6-131.96h-76c-5.1 8.41-7.6 18.45-7.6 30.09v3.34c-26.2-31.57-55-47.35-86.6-47.35-27.3 0-48.1 9.49-62.2 28.5-12.8 16.78-19.2 39.36-19.2 67.75 0 31.57 7.2 55.45 21.6 71.64 10.8 12.17 29.2 22.47 55 30.83l73.7 24.01c11.8 4.98 17.7 16.06 17.7 33.27 0 26.97-14.3 40.46-42.9 40.46-31.4 0-48-19.98-49.9-59.95h-66.5c0 77.78 37.8 116.67 113.5 116.67 75.5 0 113.2-35.3 113.2-105.87v-182.23c0-14.85 5.4-27.99 16.2-39.43v-11.73M10575.3 1325.76v88.85h-44.9c-40 0-60-13.71-60-41.12 0-20 5.9-33.41 17.5-40.2 8.5-5.02 23-7.53 43.8-7.53zm70.6-182.99h-70.6v124.14h-46.7l-64.6-124.14h-80.2l79.7 139.89c-43.9 15.61-65.8 46.22-65.8 91.75 0 56.75 31.9 89.93 95.9 99.57 12.1 1.8 32.8 2.7 62.2 2.7h90.1v-333.91M11162.8 1143.08h-76v378.86h-145.5v-378.86h-76v449.49h297.5v-449.49M11415.2 1303.34c0 74.39-19.9 111.57-59.8 111.57-22.4 0-38.9-14.05-49.4-42.07-7.1-19.47-10.6-42.64-10.6-69.5 0-27.09 3.5-49.93 10.6-68.56 10.1-26.89 26.6-40.34 49.4-40.34 22.3 0 38.6 13.66 48.9 40.94 7.3 19.04 10.9 41.67 10.9 67.96zm70.7-2.54c0-46.49-7.8-84.55-23.2-114.21-19.9-38.3-51-57.43-93.3-57.43-29.9 0-54.6 16.19-74 48.57v-170.57h-70.7v469.82h70.7v-50.37c16 37.16 42.1 55.73 78.2 55.73 40.7 0 70.8-21.44 90.3-64.32 14.6-32.07 22-71.13 22-117.22M11721.3 1305.92c0 27.28-4 50.47-11.8 69.56-11.1 26.29-28.5 39.43-52.1 39.43-24.2 0-41.8-13.04-52.7-39.13-7.9-18.66-11.8-41.97-11.8-69.86 0-72.88 21.5-109.33 64.5-109.33 42.6 0 63.9 36.45 63.9 109.33zm70.6 0c0-49.7-9.8-90.07-29.4-121.13-23.5-37.09-58.6-55.63-105.3-55.63-47.1 0-82.4 18.47-105.8 55.32-19.4 30.83-29.2 71.34-29.2 121.44 0 49.7 9.9 90.06 29.5 121.13 23.4 36.86 58.6 55.29 105.5 55.29 46.7 0 81.8-18.53 105.3-55.59 19.6-31.06 29.4-71.34 29.4-120.83M12057.2 1410.63H11915v-267.55h-70.6v333.9h212.8v-66.35M12288.7 1303.34c0 74.39-19.9 111.57-59.8 111.57-22.4 0-38.9-14.05-49.4-42.07-7.1-19.47-10.7-42.64-10.7-69.5 0-27.09 3.6-49.93 10.7-68.56 10.1-26.89 26.6-40.34 49.4-40.34 22.3 0 38.6 13.66 48.9 40.94 7.3 19.04 10.9 41.67 10.9 67.96zm70.6-2.54c0-46.49-7.7-84.55-23.1-114.21-19.9-38.3-51-57.43-93.3-57.43-29.9 0-54.6 16.19-74.1 48.57v-170.57h-70.6v469.82h70.6v-50.37c16.1 37.16 42.2 55.73 78.3 55.73 40.7 0 70.8-21.44 90.3-64.32 14.6-32.07 21.9-71.13 21.9-117.22M12559.5 1275.05v31.5c-13.1-7.62-34.9-15.65-65.5-24.01-8.6-2.41-16.1-7.82-22.4-16.22-6.4-8.4-9.5-17.09-9.5-26.12 0-31.2 11.6-46.82 35-46.82 41.6 0 62.4 27.22 62.4 81.67zm83.6-131.97h-76c-5.1 8.43-7.6 18.45-7.6 30.1v3.34c-26.2-31.57-55-47.36-86.6-47.36-27.3 0-48.1 9.5-62.3 28.5-12.8 16.78-19.2 39.36-19.2 67.76 0 31.56 7.3 55.45 21.7 71.63 10.8 12.18 29.1 22.48 55 30.84l73.6 24.02c11.9 4.98 17.8 16.05 17.8 33.24 0 26.99-14.4 40.47-43 40.47-31.3 0-47.9-19.97-49.9-59.93h-66.4c0 77.78 37.8 116.65 113.5 116.65 75.5 0 113.2-35.29 113.2-105.85v-182.24c0-14.85 5.4-28 16.2-39.43v-11.74M12997.9 1143.08h-72.7v181.8l-60.6-181.8h-42.5l-60.7 185.41v-185.41h-73.8v334.98h78.9l77.1-242.28 76.2 242.28h78.1v-334.98M13366.6 1143.08h-72.8v181.8l-60.6-181.8h-42.4l-60.7 185.41v-185.41h-73.8v334.98h78.9l77-242.28 76.3 242.28h78.1v-334.98M13578 1275.05v31.5c-13.1-7.62-34.9-15.65-65.4-24.01-8.7-2.41-16.2-7.82-22.4-16.22-6.4-8.4-9.5-17.09-9.5-26.12 0-31.2 11.6-46.82 34.9-46.82 41.6 0 62.4 27.22 62.4 81.67zm83.7-131.97h-76.1c-5 8.43-7.6 18.45-7.6 30.1v3.34c-26.1-31.57-55-47.36-86.5-47.36-27.4 0-48.2 9.5-62.3 28.5-12.8 16.78-19.2 39.36-19.2 67.76 0 31.56 7.2 55.45 21.6 71.63 10.9 12.18 29.2 22.48 55.1 30.84l73.6 24.02c11.8 4.98 17.7 16.05 17.7 33.24 0 26.99-14.3 40.47-43 40.47-31.2 0-47.9-19.97-49.8-59.93h-66.5c0 77.78 37.9 116.65 113.5 116.65 75.5 0 113.3-35.29 113.3-105.85v-182.24c0-14.85 5.3-28 16.2-39.43v-11.74"></path></g></svg>