<svg xmlns="http://www.w3.org/2000/svg" viewBox="0 0 858.53333 377.94666" height="377.947" width="858.533"><defs><clipPath id="a"><path d="M0 2834.64V0h6438.96v2834.64z"></path></clipPath></defs><g clip-path="url(#a)" fill="#fff" transform="matrix(.13333 0 0 -.13333 0 377.947)"><path d="M3197.35 1623.82l-120.4-447.05h-127.81l-79.96 291.22-78.16-291.22h-127.5l-120.39 447.05h120.33l68.58-307.74 82.5 307.74h114.99l78.27-307.74 72.01 307.74h117.54M3461.44 1263.24c7 8.6 12.25 18.96 15.75 31.08 3.5 12.11 5.25 28.86 5.25 50.28 0 19.82-1.8 36.43-5.41 49.84-3.59 13.41-8.59 24.12-15.01 32.13-6.39 8.19-14.1 14-23.12 17.42-9 3.38-18.71 5.09-29.11 5.09-10.41 0-19.66-1.4-27.79-4.2-8.09-2.8-15.86-8.41-23.24-16.82-6.62-7.8-11.88-18.52-15.78-32.12-3.91-13.61-5.86-30.72-5.86-51.34 0-18.42 1.71-34.37 5.12-47.88 3.39-13.52 8.39-24.37 15.02-32.58 6.39-7.81 14.04-13.51 22.95-17.12 8.91-3.59 19.08-5.4 30.48-5.4 9.81 0 19.16 1.64 28.08 4.95 8.89 3.3 16.44 8.86 22.67 16.67zm132.99 81.97c0-55.45-16.16-99.13-48.47-131.06-32.35-31.93-77.73-47.89-136.17-47.89-58.44 0-103.84 15.96-136.17 47.89-32.31 31.93-48.49 75.61-48.49 131.06 0 55.85 16.27 99.67 48.79 131.49 32.54 31.83 77.81 47.74 135.87 47.74 58.85 0 104.34-16.02 136.46-48.04 32.11-32.02 48.18-75.74 48.18-131.19M3916.29 1410.95h-9.58c-4.6 1.59-11.98 2.8-22.17 3.6-10.19.8-18.68 1.2-25.48 1.2-15.37 0-28.95-1-40.73-3.01-11.79-2-24.46-5.39-38.05-10.2v-225.77h-108.4v337.17h108.4v-49.55c23.77 20.42 44.45 33.98 62.01 40.68 17.58 6.71 33.76 10.06 48.53 10.06 3.79 0 8.11-.1 12.88-.3 4.81-.2 9.01-.5 12.59-.89v-102.99M3977.54 1176.77h108.383v467.172H3977.54zM4407.2 1269.57v165.69c-7.61 3.2-15.58 5.51-23.97 6.9-8.4 1.42-16.07 2.11-23.07 2.11-28.37 0-49.62-8.86-63.81-26.61-14.18-17.73-21.27-42.34-21.27-73.81 0-33.09 5.69-57.09 17.08-72.02 11.38-14.94 29.64-22.4 54.82-22.4 9.79 0 20.16 1.85 31.15 5.56 10.98 3.7 20.68 8.57 29.07 14.58zm108.38-92.8H4407.2v35.13c-18.61-15.22-36-26.42-52.18-33.63-16.21-7.2-34.9-10.81-56.08-10.81-40.99 0-73.78 15.8-98.35 47.44-24.6 31.62-36.9 74.25-36.9 127.9 0 28.62 4.15 53.99 12.45 76.1 8.28 22.12 19.64 41.09 34.03 56.9 13.6 15.01 30.09 26.67 49.49 34.98 19.38 8.3 38.78 12.46 58.17 12.46 20.18 0 36.74-2.15 49.62-6.46 12.88-4.3 26.14-9.75 39.75-16.36v143.52h108.38v-467.17M5169.55 1537.35h-205.64v-83.16h190.65v-86.47h-190.65v-190.95h-114.69v447.05h320.33v-86.47M5454.79 1263.24c7 8.6 12.25 18.96 15.78 31.08 3.47 12.11 5.25 28.86 5.25 50.28 0 19.82-1.82 36.43-5.41 49.84-3.61 13.41-8.62 24.12-15.02 32.13-6.42 8.19-14.11 14-23.11 17.42-9 3.38-18.72 5.09-29.14 5.09-10.41 0-19.65-1.4-27.76-4.2-8.09-2.8-15.87-8.41-23.27-16.82-6.6-7.8-11.85-18.52-15.75-32.12-3.91-13.61-5.86-30.72-5.86-51.34 0-18.42 1.71-34.37 5.1-47.88 3.4-13.52 8.4-24.37 15.01-32.58 6.39-7.81 14.07-13.51 22.98-17.12 8.89-3.59 19.06-5.4 30.45-5.4 9.81 0 19.17 1.64 28.08 4.95 8.92 3.3 16.47 8.86 22.67 16.67zm133.02 81.97c0-55.45-16.18-99.13-48.5-131.06-32.32-31.93-77.72-47.89-136.17-47.89-58.43 0-103.81 15.96-136.16 47.89-32.31 31.93-48.47 75.61-48.47 131.06 0 55.85 16.25 99.67 48.78 131.49 32.52 31.83 77.82 47.74 135.85 47.74 58.85 0 104.34-16.02 136.46-48.04 32.14-32.02 48.21-75.74 48.21-131.19M5876.92 1263.24c7.01 8.6 12.26 18.96 15.79 31.08 3.47 12.11 5.25 28.86 5.25 50.28 0 19.82-1.83 36.43-5.41 49.84-3.61 13.41-8.62 24.12-15.02 32.13-6.42 8.19-14.11 14-23.12 17.42-8.99 3.38-18.71 5.09-29.13 5.09-10.41 0-19.65-1.4-27.76-4.2-8.1-2.8-15.87-8.41-23.27-16.82-6.6-7.8-11.85-18.52-15.75-32.12-3.91-13.61-5.86-30.72-5.86-51.34 0-18.42 1.7-34.37 5.09-47.88 3.41-13.52 8.41-24.37 15.01-32.58 6.4-7.81 14.08-13.51 22.98-17.12 8.89-3.59 19.07-5.4 30.46-5.4 9.81 0 19.17 1.64 28.08 4.95 8.9 3.3 16.47 8.86 22.66 16.67zm133.03 81.97c0-55.45-16.18-99.13-48.5-131.06-32.32-31.93-77.72-47.89-136.17-47.89-58.43 0-103.82 15.96-136.16 47.89-32.32 31.93-48.48 75.61-48.48 131.06 0 55.85 16.25 99.67 48.79 131.49 32.52 31.83 77.82 47.74 135.85 47.74 58.85 0 104.35-16.02 136.46-48.04 32.14-32.02 48.21-75.74 48.21-131.19M6306.88 1269.57v165.69c-7.59 3.2-15.58 5.51-23.97 6.9-8.38 1.42-16.07 2.11-23.06 2.11-28.37 0-49.64-8.86-63.82-26.61-14.16-17.73-21.25-42.34-21.25-73.81 0-33.09 5.67-57.09 17.08-72.02 11.37-14.94 29.64-22.4 54.8-22.4 9.79 0 20.18 1.85 31.15 5.56 11 3.7 20.67 8.57 29.07 14.58zm108.37-92.8h-108.37v35.13c-18.61-15.22-35.98-26.42-52.18-33.63-16.21-7.2-34.89-10.81-56.07-10.81-41 0-73.77 15.8-98.37 47.44-24.6 31.62-36.87 74.25-36.87 127.9 0 28.62 4.15 53.99 12.43 76.1 8.3 22.12 19.64 41.09 34.04 56.9 13.59 15.01 30.08 26.67 49.48 34.98 19.38 8.3 38.78 12.46 58.16 12.46 20.21 0 36.75-2.15 49.65-6.46 12.88-4.3 26.12-9.75 39.73-16.36v143.52h108.37v-467.17M2830.15 899.422c0 12.566-3.4 23.406-10.2 32.488-6.82 9.09-14.72 15.43-23.73 19.03-12.01 4.79-23.72 7.44-35.13 7.94-11.4.49-26.61.75-45.63.75h-19.82v-133.6h33.03c19.61 0 35.77 1.18 48.49 3.58 12.7 2.39 23.37 7.2 31.97 14.378 7.41 6.39 12.76 14.043 16.07 22.922 3.3 8.88 4.95 19.72 4.95 32.512zm119.2 2.558c0-20.02-3.51-39.59-10.51-58.7-7.01-19.12-17.02-35.178-30.03-48.178-17.81-17.622-37.68-30.93-59.59-39.942-21.92-9.012-49.2-13.52-81.82-13.52h-71.76v-145.6h-115.29v447.06h189.75c28.43 0 52.39-2.46 71.91-7.37 19.52-4.9 36.78-12.26 51.79-22.06 18.02-11.81 31.78-26.92 41.29-45.342 9.5-18.418 14.26-40.527 14.26-66.348M3257.71 830.22h-9.58c-4.58 1.608-11.99 2.81-22.17 3.6-10.19.8-18.67 1.2-25.46 1.2-15.37 0-28.95-1-40.73-3-11.8-2-24.48-5.41-38.06-10.2V596.04h-108.38V933.2h108.38v-49.54c23.77 20.418 44.44 33.98 62.02 40.692 17.57 6.7 33.75 10.058 48.54 10.058 3.78 0 8.07-.11 12.88-.3 4.78-.2 8.97-.508 12.56-.91V830.22M3518.96 682.512c7 8.59 12.25 18.95 15.78 31.078 3.47 12.09 5.25 28.85 5.25 50.28 0 19.81-1.83 36.42-5.41 49.84-3.61 13.4-8.62 24.11-15.02 32.118-6.42 8.21-14.11 14.024-23.11 17.41-9.01 3.403-18.73 5.114-29.14 5.114s-19.65-1.41-27.76-4.204c-8.1-2.796-15.87-8.418-23.27-16.808-6.6-7.81-11.86-18.52-15.75-32.13-3.91-13.62-5.86-30.73-5.86-51.34 0-18.42 1.7-34.382 5.09-47.89 3.41-13.51 8.41-24.37 15.02-32.57 6.39-7.808 14.07-13.52 22.97-17.12 8.89-3.6 19.06-5.41 30.46-5.41 9.81 0 19.17 1.65 28.08 4.96 8.91 3.3 16.47 8.86 22.67 16.672zm133.02 81.957c0-55.45-16.18-99.13-48.5-131.06-32.32-31.922-77.73-47.88-136.17-47.88-58.44 0-103.82 15.958-136.16 47.88-32.32 31.93-48.47 75.61-48.47 131.06 0 55.84 16.25 99.678 48.78 131.51 32.52 31.82 77.82 47.73 135.85 47.73 58.85 0 104.34-16.02 136.46-48.03 32.14-32.04 48.21-75.782 48.21-131.21M3937.24 702.32v152.82c-6.2 2.598-13.81 4.66-22.79 6.15-8.97 1.5-17.08 2.26-24.25 2.26-28.37 0-49.63-8.16-63.81-24.48-14.19-16.308-21.28-39.07-21.28-68.29 0-32.428 6.03-55.06 18.13-67.858 12.08-12.813 30.01-19.21 53.78-19.21 10.77 0 21.37 1.686 31.73 5.09 10.39 3.397 19.89 7.91 28.49 13.518zm108.38-67.558c0-31.62-4.52-58.25-13.52-79.864-8.99-21.617-21.61-38.527-37.84-50.738-16.2-12.41-35.77-21.37-58.68-26.87-22.92-5.5-48.8-8.27-77.62-8.27-23.43 0-46.5 1.41-69.21 4.21-22.71 2.81-42.37 6.21-58.98 10.22v84.36h13.17c13.2-5.208 29.29-9.958 48.28-14.26 18.99-4.3 35.98-6.46 50.97-6.46 19.97 0 36.22 1.86 48.72 5.558 12.48 3.704 22.02 8.954 28.61 15.774 6.2 6.406 10.71 14.61 13.5 24.61 2.8 10.007 4.22 22.007 4.22 36.02v6.307c-13-10.61-27.41-19.008-43.21-25.212-15.78-6.207-33.38-9.308-52.76-9.308-47.18 0-83.56 14.2-109.17 42.63-25.59 28.428-38.38 71.66-38.38 129.71 0 27.82 3.91 51.832 11.7 72.058 7.8 20.203 18.78 37.82 32.99 52.84 13.19 14 29.44 24.922 48.72 32.723 19.31 7.802 39.03 11.712 59.23 11.712 18.2 0 34.74-2.153 49.63-6.46 14.9-4.302 28.42-10.263 40.64-17.872l3.91 15.02h105.08V634.76M4380.4 830.22h-9.58c-4.58 1.608-11.99 2.81-22.18 3.6-10.18.8-18.67 1.2-25.45 1.2-15.37 0-28.95-1-40.73-3-11.81-2-24.49-5.41-38.07-10.2V596.04h-108.37V933.2h108.37v-49.54c23.77 20.418 44.44 33.98 62.02 40.692 17.56 6.7 33.75 10.058 48.54 10.058 3.79 0 8.08-.11 12.88-.3 4.79-.2 8.98-.508 12.57-.91V830.22M4634.12 684.22v70.042c-14.61-1.203-30.41-2.852-47.42-4.942-17.03-2.09-29.94-4.53-38.74-7.34-10.81-3.378-19.07-8.332-24.78-14.808-5.7-6.492-8.54-15.012-8.54-25.594 0-6.976.6-12.656 1.79-17.047 1.22-4.4 4.22-8.59 9.02-12.58 4.6-3.99 10.11-6.93 16.5-8.82 6.42-1.9 16.43-2.85 30.03-2.85 10.81 0 21.77 2.2 32.87 6.59 11.12 4.38 20.88 10.17 29.27 17.35zm0-52.458c-5.79-4.41-13.02-9.71-21.61-15.91-8.59-6.204-16.72-11.114-24.33-14.71a152.52 152.52 0 0 0-33.01-10.662c-11.4-2.3-23.93-3.46-37.52-3.46-32.03 0-58.85 9.91-80.46 29.73-21.64 19.81-32.43 45.14-32.43 75.96 0 24.618 5.49 44.74 16.51 60.35 11 15.6 26.62 27.92 46.82 36.928 20.02 9.012 44.84 15.403 74.47 19.21 29.62 3.814 60.34 6.61 92.17 8.41v1.814c0 18.61-7.61 31.47-22.83 38.566-15.21 7.114-37.61 10.66-67.23 10.66-17.82 0-36.84-3.148-57.05-9.457-20.23-6.31-34.73-11.15-43.55-14.56h-9.89V926c11.4 3.012 29.96 6.55 55.67 10.66 25.73 4.09 51.52 6.14 77.33 6.14 61.44 0 105.84-9.44 133.15-28.37 27.32-18.91 40.98-48.578 40.98-89.02V596.04h-107.19v35.722M5158.38 835.02V596.04h-108.4v168.43c0 16.41-.41 30.37-1.19 41.882-.81 11.507-3.01 20.867-6.6 28.078-3.62 7.2-9.06 12.46-16.36 15.76-7.31 3.31-17.58 4.95-30.79 4.95-10.62 0-20.92-2.152-30.93-6.45-10.01-4.31-19.01-8.862-27.02-13.67V596.04h-108.38V933.2h108.38v-37.22c18.6 14.598 36.4 26.008 53.39 34.23 16.99 8.2 35.77 12.302 56.38 12.302 22.17 0 41.76-4.96 58.76-14.864 16.99-9.91 30.3-24.468 39.88-43.687 21.59 18.212 42.57 32.54 62.95 42.938 20.4 10.41 40.38 15.614 59.97 15.614 36.38 0 64.01-10.922 82.91-32.73 18.87-21.813 28.32-53.25 28.32-94.27V596.04h-108.38v168.43c0 16.608-.36 30.632-1.06 42.042-.69 11.398-2.85 20.707-6.46 27.918-3.39 7.2-8.8 12.46-16.2 15.76-7.41 3.31-17.82 4.95-31.22 4.95-9.03 0-17.82-1.538-26.44-4.652-8.6-3.117-19.1-8.258-31.51-15.468M5797.32 835.02V596.04h-108.4v168.43c0 16.41-.4 30.37-1.2 41.882-.8 11.507-2.99 20.867-6.59 28.078-3.61 7.2-9.07 12.46-16.36 15.76-7.32 3.31-17.57 4.95-30.8 4.95-10.61 0-20.91-2.152-30.92-6.45-10.01-4.31-19.01-8.862-27.02-13.67V596.04h-108.38V933.2h108.38v-37.22c18.6 14.598 36.4 26.008 53.39 34.23 16.99 8.2 35.78 12.302 56.38 12.302 22.17 0 41.77-4.96 58.75-14.864 16.99-9.91 30.3-24.468 39.88-43.687 21.6 18.212 42.58 32.54 62.96 42.938 20.4 10.41 40.37 15.614 59.97 15.614 36.38 0 64.01-10.922 82.9-32.73 18.88-21.813 28.33-53.25 28.33-94.27V596.04h-108.38v168.43c0 16.608-.36 30.632-1.05 42.042-.7 11.398-2.85 20.707-6.46 27.918-3.39 7.2-8.8 12.46-16.22 15.76-7.4 3.31-17.81 4.95-31.21 4.95-9.02 0-17.82-1.538-26.44-4.652-8.6-3.117-19.1-8.258-31.51-15.468M6331.47 808c-.6 22.63-6.22 39.64-16.8 51.04-10.63 11.41-27.14 17.12-49.56 17.12-20.8 0-37.93-5.41-51.33-16.22-13.42-10.8-20.92-28.112-22.51-51.94zm107.49-63.352h-247.4c1.59-26.43 11.65-46.628 30.17-60.648 18.51-14.012 45.8-21.02 81.82-21.02 22.83 0 44.94 4.11 66.34 12.31 21.44 8.222 38.34 17.02 50.75 26.43h12.01v-86.77c-24.42-9.81-47.43-16.92-69.06-21.32-21.62-4.4-45.54-6.61-71.75-6.61-67.65 0-119.5 15.218-155.53 45.64-36.03 30.43-54.04 73.762-54.04 130.012 0 55.637 17.07 99.72 51.19 132.25 34.13 32.52 80.92 48.79 140.36 48.79 54.85 0 96.07-13.86 123.7-41.583 27.64-27.732 41.44-67.6 41.44-119.65v-37.832M1340.5 2131.15c12.51 27.07 24.09 48.63 40.79 74.31 7.37 11.32 15.69 19.22 23.11 30.66-3.54 1.03-8.73-1.9-10.96-3.49-7.42-5.38-10.77-14.12-16.71-18.8-14.03-11.08-13.64-21.1-21-26.28-6.57-4.64-8.45-7.69-13.05-14.9-3.08-4.83-5.35-8.73-8.6-18.22-1.15-3.44-3.45-.41-8.92-7.95-7.19-9.8-10.41-20.39-13.39-32.25-.96-3.91-7.59-5.98-11.86-14.07-5.71-10.93-9.43-21.04-11.9-36.96-.62-3.69-6.86-6.25-11.16-16.53-3.05-7.22-5.24-8.83-7.9-22.45-1.65-8.31-5.43-9.5-9.7-21.56-3.3-9.2-3.43-18.06-4.58-30.09-.27-2.32-4.2-6.95-7.83-13.68-6.1-11.26-5.9-18.78-8.32-30.41-.93-4.21-5.65-9.78-10.18-27.8-3.98-15.97-.33-26.57-1.68-34.45-3.53-20.44-7.03-38.2-5.14-58.35.94-9.84 2.44-20.01 1.78-29.47-1.87-29.71-3.48-54.17-3.32-87.83.11-18.32 1.54-43.41 4.32-64.3 3.04-23.06 7.44-41.06 7.44-41.06h75.14s-2.94 43.44.95 89.19c2.31 27.42 8.83 56.48 14.76 76.89 7.51 26.03 12.18 39.5 26.37 73.85.3.76-.1 3.97-3.85.83-7.84-6.59-14.39-12.38-20.58-21.69-9.45-14.26-15.21-26-22.87-40.64-8.95-17.02-13.89-31.84-23.11-52.52-.54 14.93 1.88 29.13 4.91 42.88 3.1 14.04 5.56 25.15 9.98 37.25 7.83 21.35 15.43 39.16 27.99 59.03 7.27 11.48 16.57 21.77 26.01 30.33 11.29 10.31 21.73 19.39 33.55 29.49-12.42 6.41-28.96-6.95-32.27-7.64-17.47-3.42-24.58-19.61-29.93-21.83-7.65-3.2-12.07-7.87-17.38-14.33-4.09-4.85-5.32-12.33-9.59-14.98-7.13-4.44-12.37-11.14-17.27-20.5-2.01-3.87-7.5-22.13-13.59-19.78 10.42 61.92 32.28 120 67.38 171.7 22.25 32.77 46.45 60.87 82.12 86.09 4.7 3.34 5.61 4.89-.95 4.67-33.34-4.06-35.38-19.28-40.87-20.72-5.2-1.34-11.65-7.52-15.77-11.53-7.41-7.32-7.28-13.49-10.13-15.43-6.08-4.24-10.66-8.65-14.81-16.01-2.19-3.85-5.86-12.31-9.11-14.24-8.57-4.96-16.86-12.19-20.99-19.99-3.05-5.71-4.27-11.89-8.25-17.49-4.27-6.03-10.23-10.53-15.36-14.89 3.9 26.47 16.37 57.82 24.95 84.87 11.53 36.13 25.54 68.95 41.33 103.07M1417.21 1916.65c28.44 63.86 58.37 111.9 97.26 168.12 5.08 7.36 9.64 14.58 14.08 21.48 2 3.12 11.56 16.86 13.55 19.77 13.04 19.68 18.52 25.71 31.86 44.53 3.62 5.11 6.55 9.13 8.09 15.03 2.84 11.01-6.61 18.4-8.79 28.96-2.2 10.79-.99 22.57 3.96 31.68 3.1 5.71 6.19 7.93 9.31 15.58 6.07 14.74 3.97 46.59 10.87 47.43-1.75-15.13-2.15-32.13.23-46.63 2.76-16.92 13.03-27.19 17.27-45.12 11.43 2.06 23.83 1.57 33.45.74 9.54-.81 21.61 1.83 31.4 5.19 13.26 4.53 24.27 12.77 37.79 15.98-11.5-11.06-27.73-15.2-41.33-23.6-5-3.13-9.71-7.28-13.05-12.45-5.46-8.5-9.78-16.64-18.34-20.37-15.19-6.63-28.24-3.49-45.57-6.71-25.76-26.54-50.01-62.63-72.38-100.58-56.73-95.97-104.04-195.37-131.54-297.29 9.51 17.73 18.6 34.88 28.9 51.76 11.38 18.74 24.18 37.09 38.13 55.47 32.66 43.04 64.97 80.63 101.18 120.18 29.21 31.97 61.24 58.76 96.95 81.18 47.19 29.57 105.41 50.29 156.56 39.6 5.82-1.35 14.14-2.91 17.77-6.74-64.11 8.98-121.54-13.41-164.39-47.74-33.86-27.07-62.39-54.56-91.39-90.27-14.98-17.21-28.45-36.12-41.83-54.45-14.02-19.26-26.45-39.55-38.77-59.83-41.55-68.6-72.99-141.25-96.12-216.5-.66-2.39-.81-4.79-1.46-7.16 1.09 1.69 2.71 3.52 3.81 5.24 31.12 50.61 68.55 99.46 115.96 132.23 4.14 2.81 8.45 8.25 9.57 12.53 5.12 20.09-10.19 29.74 10.99 57.52 4.86 6.38 11.51 8.7 16.1 14.64 8.67 13.4 15.74 37.4 23 43.85-3.65-15.63-12.61-32.13-14.53-48.25-2.03-17.69 2.49-32.15 3.28-50.89 12.52-1.71 22.21-7 32.03-10.04 15.28-4.77 24.46-3.55 39.57-2.25 6.45.54 18.15 4.31 25.1 2.9-14.61-7.99-34.33-6.52-49.28-14.15-10.46-5.35-13.49-13.26-27.92-16.05-12.84-2.5-23.64-1.16-31.98 3.13-6.49 3.27-11.56 4.64-17.39 1.84-15.56-7.47-26.18-18.01-38.7-30.64-29.08-29.27-52.81-61.93-74.96-104.75-5.86-11.4-11.13-22.64-16.13-34.25-2.47-5.66-8.6-21.34-8.6-21.34h-75.98s-.19 21.9.52 29.91c1.46 15.94 3.63 27.75 6.72 43.93 4.41 23.27 8.72 44.37 14.76 66.95 5.88 21.95 12.21 42.56 19.74 63.64 15.71 43.97 32.41 86.07 50.67 127.06M682.55 1324.81c27.73 22.67 48.262 35.82 75.958 52.32 11.25 6.73 28.262 14.34 41.336 20.26 47.976 21.68 111.465 37.67 171.27 38.77 1.08 0 1.015-.05 1.015-.05h445.9s-1.66.05 1.56.05c14.19 0 28.22-4.94 36.91-13.14 8.71-8.26 12.87-20.98 15.14-33.62 1.92-10.79.98-20.37-1.53-31.9-1.97-9.1-3.43-14.54-8.51-22.27-3.06-4.71-5.97-7.94-11.68-12.48-5.86-4.68-14.16-6.31-23.67-6.4-1-.05-3.12-.11-3.05-.08.1.08-521.56.08-521.56.08s-3.242.01-4.87.01c-34.14.11-70.098-1.63-103.832-6.04-25.848-3.52-51.747-7.56-76.727-14.06-31.503-8.22-61.835-19.62-92.116-30.91 16.785 22.32 36.16 41.24 58.457 59.46"></path><path d="M837.383 1502.22c27.39 19.78 60.652 36.03 90.13 47.31 14.936 5.67 34.8 11.94 50.585 15.86 19.058 4.82 40.972 8.42 58.832 8.95 5.38.14.79.04.79.04l382.46.04s8.19-.44 11.03-1c7.19-1.55 12.99-4.48 15.39-6.02 5.94-3.8 13.4-11.8 17.3-18.13 9.93-16.36 11.68-34.01 8.46-52.37-3.67-20.97-19.61-44.87-41.23-45.45-3.77-.1-11.28 0-11.28 0h-414.23s-24.104-.47-35.124-.87c-20.367-.8-42.957-3.13-60.738-5.74-15.215-2.19-30.078-5.07-45.317-9.16-51.073-13.79-95.448-39.69-141.85-59.84 31.25 54.64 73.53 96.49 114.793 126.38M623.43 1242.29c66.492 39.27 146.582 54.76 219.89 57.22 1.746.08 5.227.2 5.227.2l571.723-.05s1.04 0 6.21.05c34.65.03 47.31-34.36 47.15-62.16-.07-9.15-1.62-18.5-4.16-24.77-3.29-8.19-6.93-14.88-12.89-21.33-2.13-2.35-9.78-7.73-13.17-8.56-7.92-1.93-17.67-1.72-17.61-1.72.08 0-425.26-.07-425.26 0 0 0-22.95.92-38.868 2.45-11.477 1.14-20.18 2.34-32.094 4.6-29.297 5.82-53.57 15.36-78.926 23.18-16.922 5.23-34.722 9.13-53.28 11.93-34.142 5.23-71.415 7.61-105.888 4.99-43.847-3.25-82.84-11.84-124.558-25.08 7.058 11 36.375 27.12 56.504 39.05"></path><path d="M931.395 1063.01c-19.547 6.88-38.614 15.77-55.72 27.07-22.284 14.75-33.214 26.47-62.015 39.78-24.644 11.39-44.324 22.63-78.687 35.08-16.582 6.02-43.442 14.28-66.49 18.23-32.897 5.58-64.628 8.03-64.628 8.03s6.72 4.19 10.774 5.43c33.585 10.23 63.253 15.22 97.74 17.77 30.235 2.26 58.028-.69 88.353-5.42 12.44-1.97 28.613-5.8 42.668-9.81 45.64-12.99 97.516-33.58 143.55-33.66 2.564 0 2.27.04 2.27.04h426.32c12.87.04 36.93-4.13 46.6-21.21 11.2-19.68 14.68-43.13 5.27-66.6-2.85-7.06-7.58-17.16-14.37-23.29-5.97-5.4-15.67-8.86-21.27-8.86-1.62-.08-4.4 0-4.4 0h-371.69-2.03c-38.01 0-85.847 4.6-122.245 17.42M1100.71 931.16c-10.51 10.79-25.02 27.34-38.15 43.04-25.23 30.08-36.52 57.17-36.52 57.17h247.91s.66-28.61-5.07-61.722c-5.36-30.75-16.72-63.168-28.8-86.66-.44-24.078 9.72-46.476 11.39-70.258-20.36-12.5-42.26-24.878-60.51-42.43-1.17-1.07-3.05-1.07-3.82 1.83-9.77 36.66-14.92 69.35-22.95 105.6-22.6 17.47-43.79 33.032-63.48 53.43M1356.2 951.5c-7.01 12.94-12.24 30.04-20.29 40.21-1.73-9.062.4-14.65-.83-23.33-1.13-7.27-7.09-4.25-8.3-.83-3.48 9.84-7.17 21.99-10.35 32.08-5.29 16.81-6.98 31.69-6.98 31.69l41.24.05s1.59-.39 2.32-4.41c1.97-10.39 1.48-20.53 4.33-32.57 3.66-15.51 8.37-29.67 14.07-44.128 4.96-12.742 11.35-25.57 16.55-38.223.7-1.66 1.04-4.85-.21-6.51-1.53-1.928-4.16-1.678-5.67 0-11.81 13.43-16.57 28.63-25.88 45.97M1420.04 922.012c-7.01 14.95-16.88 31.758-16.02 48.718 4.56-5.98 6.44-10.28 12.72-13.62 2.87-.91 8.89-.06 7.38 4.96-2.77 9.348-7.08 17.258-11.06 30.07-5.92 18.96-11.67 39.21-11.67 39.21l-42.1.02s2.33-17.08 11.9-43.292c8.41-23.22 21.4-49.777 35.62-74.668 11.59-20.488 22.11-38.36 35.25-53.308 4.5-5.16 15.54-.64 10.76 6.058-12.47 17.64-24.11 37.168-32.78 55.852M1693.4 2344.89c-9.14-3.97-17.21-9.12-21.77-17.91-3.32-6.3-5.56-15.91.79-21.32 11.12-9.5 24.38.21 29.75 9.91 6.79 12.34 5.02 35.95 5.02 35.95s-7.89-4.11-13.79-6.63"></path><path d="M1703.06 2285.96c3.99 7.54 12.74 15.67 22.33 21.51 10.84 6.62 22.07 13.06 29.88 17.72 7.81 4.69 9.3 7.99 9.3 7.99s-6.44-2.22-9.96-4.3c-19.28-11.49-40.31-24.55-48.87-28.32-10.8-4.72-25.47-5.63-38.7-7.31-2.11 16.68-6.44 23.62-6.39 38.44.11 7.11 1.83 16.33 3.04 22.77 4.14 21.43 4.95 32.24 4.95 32.24s-3.27-3.05-4.46-12.48c-1.35-8.52-2.3-11.66-4.26-21.73-2.22-11.63-4.55-21.47-11.5-28.74-10.02-10.36-19.3-28.82-11.56-42.96 4.51-8.26 12.04-7.06 14.4-9.18 2.35-2.13 3.79-7.2 10.92-9.58 15.39-5.14 32.83 8.67 40.88 23.93"></path><path d="M1683.11 2241.89c5.22 8.47 10.58 14.43 18.81 19.48 13.67 8.33 23.8 13.97 32.13 18.23 3.62 1.82 6.63 3.97 7.55 7.83-3.73-1.39-17.83-8.02-31.83-16.34-10.03-6-27.27-13.47-38.85-14.01-4.59-.19-7.99.94-11.74 1.06-7.77.31-17.67-1.57-17.67-1.57s-2.51 10.99-5.83 18.9c-1.66 4.05-4.35 8.21-5.8 15.83-.97 5.08-1.26 12.7-.86 17.25 1.14 13.73 4.84 27.07 4.2 40.96-8.63-17.92-5.1-40.01-15.23-53.87-4.28-5.84-7.66-10.43-11.02-17.78-5.56-12.07-4.9-24.56 2.62-36.19 4.34-6.62 13.91-6.38 15.56-7.65 2.51-1.86 4.65-8.79 14.01-10.88 16.02-3.6 34.9 3.82 43.95 18.75M1687.58 1891.3c3.73 7.53 6.13 17.42 10.89 24.4-10.76-1.61-12.49-2.84-28.04-4.54-3.39-.33-10.4-3.84-12.72-6.16-6.15-6.2-11.52-11.96-9.13-22.37.92-4.06 4.5-7.03 6.49-7.66 12.93-4.2 26.05 3.5 32.51 16.33"></path><path d="M1700.7 1870.77c14.69 3.44 31.66 10.65 38.48 8.37-13.79-7.33-31.17-9.99-46.45-14.34-11.65-3.36-19.97-12.16-30.37-20.16-9.55-7.26-22.24-10.21-33.59-4.87-3.83 1.81-7.54 7.98-8.2 11.28-.6 2.63-6.08 5.26-8.89 7.57-2.83 2.37-4.2 8.26-4.26 10.53-.49 20.33 14.98 28.55 29.89 40.49 11.23 8.99 25.81 47.17 34.7 55.08-1.58-12.31-17.58-35.52-24.55-53.58-5.53-14.39-3.71-25.89-7.28-41.05 10.66-.68 22.54-2.91 33.28-3.09 8.42-.11 18.59 1.72 27.24 3.77"></path><path d="M1685.22 1839.43c-8.25-1.54-18.34-4.14-25.23-5.59-23.95-5.08-35.4 6.66-54.52 6.43 1.68 21.91-5.93 31.71.33 45.87 5.59 12.6 10.76 25.94 15.56 36.63 3.89 8.55 5.07 15.78 5.07 15.78s-5.8-8.69-22.32-40.85c-5.74-11.22-16.02-13.64-25.15-24.23-10.51-12.13-16.54-37.76 2.9-48.52 3.86-2.11 3.3-8.78 6.11-11.46 12.98-12.21 39.19-10.99 55.58 3.89 13.05 11.9 28.91 13.82 42.43 17.33 7.9 2.04 14.83 5.4 14.83 5.4s-3.75 1.52-15.59-.68M1205.22 1585.18c-.94 0-1.96 0 0 0zm-111.88 315.54c-7.99-10.55-11.69-22.7-20.5-31.92-4.61-4.82-11.63-2.57-15.27 3-4.04 6.28-10.59 15.18-5.72 21.4 8 10.25 24.74 16.8 39 14.96.84-.1 5.43-3.5 2.49-7.44zm-38.35-60.39c-4.46-11.96-17.79-13.25-29.13-15.61-2.12-.47-8.64 0-11.57 2.87-4.91 4.78-9.14 11.34-8.29 19.53.46 5.06 4.67 10.02 9.9 12.03 9.46 3.67 20.69 9.57 30.03 4.34 8.03-4.49 12.23-14.73 9.06-23.16zm-24.54-63.21c-3.27-4.72-11.65 10.94-12.74 18.12-3.13 20.77 15.07 26.06 30.25 25.42.47-12.39-9.14-31.57-17.51-43.54zm-16.39-56.03c-2.98-8.36-4.4-16.04-7.72-23.7-3.22-7.4-16.977-10.04-24.61-7.66-10.89 3.37-20.238 27.82-7.85 37.2 9.472 7.08 19.296 8.22 31.36 9.69 2.17.27 10.28-.22 10.59-.98 2.02-5.08.74-7.62-1.77-14.55zm-18.33-64.59c-2.207-6.42-3.18-13.03-6.023-19.2-1.414-3.13-3.29.99-3.36 1.19-4.285 10.64-6.984 19.66-3.327 29.02 2.058 5.2 9.16 9.96 15.898 10.38-.41-6.67-.89-14.89-3.188-21.39zm-21.66-31.5c-4.922 2.23-4.84 8.56-6.902 12.49-1.94 3.84-6.133 9.12-4.402 14.16 9.492-5.32 13.894-14.82 11.304-26.65zm-16.382 39.32c-11.333 9.31-12.305 24.21-19.868 35.61 8.34 5.33 22.395 4.26 26.723-6.29 3.453-8.47 5.953-20.93-2.64-27.41-.934-.68-3.14-2.8-4.215-1.91zm-42.25 76.84c-1.7 2.43-5.055 9.44-2.5 10.33 20.292 6.98 35.507 7.2 39.843-14.49 3.072-15.49-7.514-28.78-22.342-23.36-4.24 1.57-8.458 18.06-15 27.52zm-29.493 49c-1.425 1.78-2.578 7.18-.8 8.56 10.546 8.48 26.027 9.12 38.007 7.95 15.825-1.44 19.067-16.13 16.426-28.32-3.473-16.03-27.8-18.03-34.683-15.36-6.782 2.6-11.497 17.94-18.95 27.17zm3.442 57.03c13.672 8.86 39.785 15.43 44.136-8.57 1.332-7.22-.476-16.82-10.242-19.97-10.026-3.21-21.842-6.69-31.007-2.97-11.277 4.62-13.496 24.65-2.886 31.51zm-14.16 40.36c1.035 4.6 6.128 6.78 10.418 7.87 11.066 2.74 23.425 6.86 33.585.39 3.954-2.51 4.254-6.05 4.774-11.02.898-8.07-.242-14.66-5.56-17.75-10.776-6.32-21.733-6.89-34.256-4.42-10.157 2-10.997 15.46-8.96 24.93zm-11.332-62.21c-9.47 7-13.66 16.9-20.64 26.71-1.685 2.4 0 3.39 1.288 3.76 16.812 4.76 29.273-3.63 26.656-21.95-.47-3.56-2.77-11.86-7.305-8.52zm-46.383 56.61c-6.313 5.44-1.926 14.92 3.562 17.67 9.61 4.77 24.707 5.5 34.696 2.13 6.437-2.17 9.69-11.4 8.54-21.46-.494-4.14-1.744-8.68-3.775-10.02-7.605-5.2-19.383-5.39-28.64-3.47-6.55 1.38-8.887 10.34-14.383 15.15zm-7.27 57.24c6.098 13.26 28.305 13.37 40.41 7.46 9.844-4.84 11.094-23.18.332-30.42-8.59-5.71-22.117-3.61-31.226-1.94-12.934 2.38-13.965 15.1-9.516 24.9zm.488 49.61c9.243 8.78 21.196 4.75 32.305 3.21 2.16-.3 4.73-1.81 6.184-3.27 7.59-7.67 8.19-20.23-.267-26.52-9.742-7.25-21.922-2.54-33.64-1.95-3.165.13-6.653 3.84-7.375 6.23-2.11 7.42-3.376 16.49 2.792 22.3zm5.958 41.5c9.796 4.09 26.632 5.96 33.578-5.03 4.254-6.74 3.015-19.22-3.82-21.04-6.688-1.72-29.466-5.51-34.915 7.08-2.69 6.19-1.55 16.16 5.158 18.99zm30.16 35.25c2.832-1.25 4.605-3.53 5.27-7 1.398-7.56-.587-15.76-7.833-17.09-10.894-1.98-27.066-2.6-27.012 12.79.04 17.17 16.965 16.97 29.575 11.3zm-21.914 31.92c5.79 2.22 15.332 1.72 20.527-.99 2.626-1.36 6.15-5.67 4.67-10.22-1.85-5.93-7.364-8.06-13.638-8.14-6.012-.06-12.918.43-15.347 5.34-2.305 4.66-1.333 12.04 3.79 14.01zm6.754 25.74c5.304 1.94 13.136 1.8 16.996-2.38 5.293-5.79 1.113-15-8.887-14.54-3.527.15-7.695 1.36-9.824 2.58-5.176 2.92-3.457 12.49 1.715 14.34zm23.82 16.59c.676 2.24 4.16 4.85 5.984 5.49 3.97 1.42 8.625 1.71 12.426.19 7.598-3.12 6.562-12.53-1.563-15.82-3.632-1.48-9.21-2.43-11.957-1.48-5.105 1.73-6.52 6.17-4.89 11.62zm23.68-36.76c-8.29-2.42-19.84-2.89-22.325 5.6-4.195 14.43 14.004 16.59 23.45 13.56 6.51-2.07 8.82-16.31-1.125-19.16zm5.492 47.62c2.632 8.94 12.754 13.79 21.93 11.07 7.894-2.32 9.706-13.07 4.374-18.29-2.398-2.35-6.406-4.74-10.703-5.69-9.374-2.09-18.592 3.08-15.6 12.91zm41.25-32.78c-1.49-5.84-5.762-9.84-12.618-11.36-6.796-1.5-16.21-1.92-19.984 2.29-3.594 3.98-5.254 9.58-2.242 13.88 6.016 8.55 17.04 11.55 26.863 9.37 5.605-1.31 9.726-7.05 7.98-14.18zm-3.657 34.3c3.657 8.11 12.954 12.2 21.875 9.47 1.79-.56 5.47-3.45 5.98-6.29 1.056-5.64-.898-10.79-5.608-13.74-6.036-3.83-11.012-6-17.95-3.16-5.203 2.18-6.472 8.93-4.297 13.72zm38.442-22.77c4.07-6.91-2.13-13.83-5.285-15.74-6.985-4.09-16.844-6.6-21.043.33-4.145 6.79-.727 14.86 6.504 17.85 6.89 2.86 14.032 7.19 19.825-2.44zm11.582-26.37c4.566-3.77 8.57-11.7 3.1-17.97-5.13-5.91-11.518-7.68-19.585-8.98-5.468-.92-12.445 3.11-13.324 7.93-.816 4.16-1.582 11.73 2.54 15.21 8.03 6.84 18.78 10.79 27.27 3.81zm9.668 44.98c4.312-1.27 7.066-5.83 4.91-10.23-1.316-2.7-5.187-5.64-7.645-7.15-6.77-4.16-12.582-2.46-14.687 2.52-3.906 9.14 9.195 17.28 17.422 14.86zm16.504-22.79c4.75-.43 6.93-3.73 7.87-7.37 1.23-4.86-.37-9.37-4.49-12.14-4.885-3.25-10.983-5.16-15.866-5.24-6.59-.12-12.69 9.56-9.12 15.85 3.78 6.74 13.304 9.62 21.605 8.9zm27.28-34.9c2.81-8.27-3.26-12.13-9.66-15.53-6.5-3.48-15.22-6.71-19.735-2.4-5.77 5.44-8.335 14.58-1.914 20.6 8.93 8.37 25.41 14.65 31.31-2.67zm11.78-20.77c10.46-1.33 12.54-16.2 10.43-21.58-2.4-4.62-7.67-8.23-10.43-9.65-7.68-3.96-16.64-5.46-23.69-1.81-6.43 3.34-9.22 13.09-5.72 20.74 4.72 10.33 19.62 13.59 29.41 12.3zm21.52-46.03c3.58-5 2.8-13.89.67-16.66-6.6-9.02-24.96-14.16-32.54-10.47-5.75 2.81-11.43 15.49-4.69 23.1 7 7.9 19.22 12.62 30.3 10.3 2.47-.54 4.09-3.26 6.26-6.27zm4.63-28.37c5.04-.55 9.51-6.09 11.95-12.12 3.16-7.79-.03-16.89-2.53-18.59-6.02-4.09-25.08-15.56-37.09-8.69-6.6 3.79-8.42 12.44-8.83 17.55-1.32 16.51 23.73 23.27 36.5 21.85zm-70.387-118.1c-2.563 6.55-4.94 16.24.203 20.22 10.394 8.2 33.894 15.38 42.834 2.97 5.81-8.05 4.11-21.7-6.07-26.92-10.5-5.36-31.04-11.53-36.967 3.73zm-50.41-.72c10.43 5.3 25.457 11.7 36.687 4.47 5.137-3.3 10.442-16.96 6.817-23.02-7.703-12.88-27.957-16.16-40.852-12.84-10.957 2.84-14.265 25.53-2.652 31.39zm-9.375 44.49c12.578 8.86 37.437 14.57 43.418-4.76 1.558-5.02 2.437-10.57-.117-14.62-6.974-11.22-24.67-14.17-36.505-12.49-12.793 1.85-18.852 23.42-6.797 31.87zm-10.598 45.08c12.09 6.86 37.86 15.96 43.926-3.67 2.434-8.03 2.18-17.95-4.695-21.49-9.843-5.17-25.452-10.58-36.808-3.5-9.48 5.99-10.762 23.89-2.422 28.66zm67.676 81.04c-5.066-4.54-10.203-5.5-16.94-7.8-9.435-3.19-19.322 4.08-20.404 13.11-1.816 15.45 14.754 17.75 25.71 19.69 7.99 1.44 12.935-5.74 14.407-10.56 1.503-4.64 1.308-10.87-2.774-14.44zm20.304-36.38c-7.19-10.71-36.156-17.45-42.55-6.44-4.668 8.07-7.57 19.4 1.203 24.81 9.22 5.66 20.137 9.04 30.857 7.11 10.08-1.78 15.22-18.36 10.49-25.48zm15.45-66.34c4.12-6.55 7.01-15.37.88-23.52-5.55-7.45-25.37-10.93-35.51-8.47-5.565 1.4-8.202 8.16-9.054 12.72-1.18 6.17-1.726 12.38 3.73 17.42 7.852 7.19 18.334 7.03 28.404 7.03 4.15 0 10-2.68 11.55-5.18zm-5.76 22.27c-6.18-11.34-27.084-12.8-36.486-11.55-6.62.88-11.29 11.57-11.098 20.5.07 4.6 1.508 7.65 4.65 9.33 10.44 5.6 21.13 9.35 32.364 7.54 10.96-1.74 15.22-17.23 10.57-25.82zm-110.072 24.42c-7.102 21.88 20.222 28.78 36.18 25.4 11.093-2.3 14.804-23.64 4.472-30.38-12.78-8.31-35.47-11-40.652 4.98zm-41.21-53.73c8.19 8.45 22.975 8.97 34.51 7.42 7.083-.99 10.145-8.15 11.126-15.92 2.76-21.37-25.942-24.97-39.59-19.97-9.004 3.28-13.696 20.58-6.047 28.47zm-5.775 41.42c8.555 10.07 22.872 12.46 34.73 9.2 7.243-1.97 10.587-10.43 10.43-19.91-.136-5.38-3.828-9.28-7.152-10.64-8.417-3.42-18.163-5.97-27.358-4.85-11.352 1.4-18.227 17.27-10.65 26.2zm1.348 45.1c10.528 4.3 30.157 8.14 33.458-6.89 4.453-20.03-19.168-23.29-31.797-19.81-9.667 2.66-11.503 22.73-1.66 26.7zm75.735 33.1c7.872-4.47 9.524-17.09 4.74-24.4-6.368-9.66-28.15-15.27-39.85-6.81-6.68 4.85-10.28 24.72 3.4 29.5 10.94 3.82 21.425 7.53 31.71 1.71zm-11.164 14.37c-8.92-5.52-21.647-7.71-30.092-3.02-7.344 4.02-7.05 14.75-3.418 20.52 5.984 9.62 20.855 10.67 31.132 7.65 8.868-2.57 12.184-19.04 2.38-25.15zm-72.272 15.69c.906 2.86 2.18 3.67 3.953 4.55 7.5 3.57 15.743 4.54 22.935-.08 5.175-3.36 4.722-11.09.886-15.12-5.616-5.9-17.042-6.15-24.366-2.3-4.722 2.46-4.937 8.29-3.406 12.95zm2.394-31.35c3.32 9.48 15.157 8.95 24.11 7.79 11.023-1.43 13.23-15.56 9.308-21.5-5.414-8.2-17.753-6.62-27.582-5.37-7.988 1.01-8.464 11.6-5.836 19.08zm155.508-285.2c2.71-10.72 0-20.89-9.53-24.31-12.247-4.32-28.81-10.65-38.6-4.05-11.21 7.51-16.596 28.81-3.725 37.16 15.19 9.94 45.445 16.46 51.855-8.8zm-16.508 33.3c-8.23-9.35-21.66-9.05-34.85-12.91-5.09-1.48-11.134 3.01-13.778 7.67-4.883 8.7-9.766 20.36-.422 28.78 7.734 7.04 18.28 6.44 27.754 9.28 4.25 1.27 9.464 2.76 14.62-.73 10.684-7.28 14.844-22.91 6.676-32.09zm87.308 140.14c2.32-6.8 5.45-11.8 2.79-18.57-3.14-8.33-11.21-9.48-18.79-12.21-7.07-2.56-18.86-5.8-24.78.39-6.8 7.05-9.55 21.4-1.41 27.55 10.57 7.86 36.6 18.7 42.19 2.84zm143.29 61.19c6.23 25.39 13.97 51.14 15.9 77.96 2.84 40.08-5.8 81.73-31.51 112.08 2.53-13.08 5.88-24.14 7.64-37.88 2.09-16.59-.25-35.07-4.53-51.77-3.24-12.63-8.94-24.93-14.59-36.67-6.67-13.91-16.63-29.03-26.55-41.44-27.81-34.58-71.14-102.08-71.14-102.08s-3.63.27-5.78.27c-.51 8.4 19.44 37.22 29.5 53.34 22.1 35.35 38.82 54.38 58.04 85.03 12.04 19.33 21.23 42.84 24.19 64.16 5.99 43.43-17.43 95.48-51.1 112.8 7.69-32.45 6.89-78.17-10.37-97.4-32.7-36.42-52.13-63.69-75.46-110.4-.67-1.25-6.12 6.3-10.64 9.24-5.06 3.35-2.22 13.37-4.04 20.11-1.64 5.73-4.34 10.14-5.14 11.15-6.91 8.46-13.59 8.98-15.04 11.52-1.67 2.86-.87 10-6.89 18.14-3.01 4.09-10.68 7.12-13.8 10.96-3.37 4.2-4.9 17.05-14.21 22.33-4.42 2.48-6.484 10.18-10.718 13.96-13.086 11.59-26.152 9.36-28.652 10.08-3.364.91-9.946 9.28-21.64 11.29-11.43 1.94-17.728-5.68-23.665-2.93-14.895 6.9-29.153 7.46-44.98-10.18-4.755-5.25-12.962-.34-23.215-8.18-9-6.85-9.16-13.19-13.75-14.06-8.614-1.61-15.028-8.5-18.348-16.02-1.73-3.88-3.02-11.7-4.024-16.87-1.418-7.12-5.007-13.69-5.086-18.93-.082-7.27 2.223-11.21 1.583-14.47-1.067-4.71-4.883-9.02-5.352-13.44-.344-2.5-.55-9.16 1.27-12.91 2.285-4.62-1.614-8.63-3.633-13.55-1.938-4.59-3.977-12.42-3.364-17.95.825-7.6 5.176-10.37 1.797-16.36-5.547-9.72-12.54-24.87-.27-44.25 2.255-3.53-5.14-10.43-5.546-20.54-.473-11 6.172-19.13 7.984-24 .333-1.75-2.925-1.65-3.046-3.52-29.214 30.89-55.054 59.39-88.94 86.21-20.704 16.36-41.177 30.12-64.122 42.41-61.29 32.86-132.484 54.85-196.992 46.83 24.297-19.57 54.937-33.52 79.898-55.73 23.637-21.05 45.078-39.04 66.62-61.4 33.79-35.11 61.25-70.71 89.864-112.01 8.5-12.23 14.094-20.42 22.012-33.17 7.98-12.76 16.836-26.32 24.106-38.96 36.62-63.58 66.62-122.45 96.98-187.59 8.43-18.02 15.496-36.88 23.762-54.79 2.207-4.85 5.37-1.25 7.613 0 10.98 6.36 22.64 11.66 34.043 17.04 9.106 4.18 17.387 7.06 25.512 10.19 20.547 7.82 40.04 12.08 61.55 16.54 35.91 7.52 100.44 5.98 100.44 5.98l122.33.04h3.34c-1.28 35.07-9.61 69.15-11.64 104.32-1.54 28.49-.59 56.04.41 84.59 2.74 77.35 14.11 160.39 31.39 230.88M395.137 2295.17c-23.875-23.81-30.99-32.57-44.91-58.89-8.207-15.47-18.618-35.33-21.582-60.93 49.058 18.69 89.082 56.79 125.234 98.88 26.757 31.19 47.507 72.6 73.886 103.42-46.465-15.59-95.5-45.52-132.63-82.48"></path><path d="M254.72 2228.25c18.483 31.24 44.975 65.02 72.436 88.06-12.722-28.56-28.386-56.88-33.765-90.67-10.687-67.27-20.753-114.39-31.913-175.78 30.503 21.75 62.683 55.94 95.04 79.81 24.987 18.37 50.038 30.63 75.75 48.3 15.284 10.55 25.233 24.08 37.936 36.77-15.137-63.85-71.148-128.28-111.265-158.31-50.39-37.79-68.45-43.81-149.418-126.14-10.29 101.66-8.458 207.32 45.2 297.96"></path><path d="M89.523 1890.6c3.766 52.79 10.094 95.02 22.926 146.52 8.988 35.97 28.34 89.5 56.25 111.47-3.42-13.05-5.216-32.6-6.544-45.8-5.468-54.39 4.953-117.56 6.196-171.9.625-26.72.386-47.32-3.618-72.42-4.136-26.32-.68-58.62-.68-58.62s14.415 16.48 27.3 37c28.15 44.7 37.154 57.97 59.83 82.19 28.14 30.04 59.605 57.87 95.132 82.51-4.296-16.69-22.43-49.16-29.92-62.2-10.01-17.46-14.548-33.32-38.22-72.85-33.313-55.55-48.15-63.05-85.14-122.46-8.01-12.92-40.848-62.06-48.806-77.08-17.328 35.86-23.87 67.19-45.12 125.57-13.356 36.67-11.356 73.36-9.587 98.07"></path><path d="M38.094 1615.93C17.996 1668.01 8.8 1716.32 1.992 1771.15c-4.16 33.55-2.226 78.28 9.746 110.52 3.133-7.87 9.543-27.86 10.418-30.86 8.91-29.96 12.63-44.34 25.078-73.24 9.524-22.17 21.172-39.83 33.633-61.74 11.332-19.99 20.88-46.31 29.082-66.44 26.366-64.57 28.32-125.02 38.417-131.63 7.246 15.54 9.53 30.42 10.332 37.76 7.855 71.44 17.257 136.39 107.23 220.59 8.258-25.06 4.082-71.27-.88-96.02-10.765-54.12-19.452-80.12-43.28-132.57-12.598-27.62-29.426-68.26-34.036-81.73-12.082-35.06-16.218-53.45-23.82-74.19-42.476 70.78-94.762 143.88-125.82 224.33"></path><path d="M108.113 1290.31c-30.23 42.1-41.258 63.26-60.937 108.07-16.532 37.6-21.285 51.53-30.965 93.63-5.284 22.95-8.272 43.77-4.17 57.35 23.675-42.87 39.847-90.85 70.812-126.42 24.59-28.2 48.27-52.23 67.824-76.03 29.988-36.59 53.6-71.22 82.383-109.3 2.42 19.08 3.354 38.43-.92 69.71-5.863 42.86-2.245 77.99 5.23 119.49 9.493 52.65 16.446 78.72 34.708 131.98 22.356-43.83 22.27-94.53 27.87-141.03 10.84-90.19-17.382-197.76-22.928-242.59-1.485-11.82.558-40.97 1.156-52.33-42.2 33.24-79.746 66.79-116.137 103.29-16.59 16.55-39.352 43.96-53.927 64.18"></path><path d="M268.098 959.53c-19.21 13.84-70.84 53.3-95.286 84.36-35.593 45.2-43.437 64.58-66.92 116.59-2.872 6.34-16.173 35.77-17.247 55.77 76.93-92.91 145.82-106.74 219.214-183.84 26.937-28.24 54.523-54.82 69.08-68.148 11.173-10.282 25.04-13.403 25.04-13.403s-1.445 19.812-8.687 33.58c-48.97 93.6-58.203 191.44-50.78 296.46 22.35-27.68 29.4-46.15 43.592-72.91 15.426-29.15 23.29-47.18 30.504-65.12 41.898-104.28 52.792-224.74 78.695-285.37-79.922 26.93-142.856 41.31-227.207 102.03"></path><path d="M595.828 713.44c-21.617-1.46-64.004-1.33-86.59 2.35C394.844 734.1 288.508 817 235.028 908.07c48.495-29.59 83.558-49.35 126.21-64.11 37.98-13.132 74.004-17.02 137.414-35.02 38.262-10.81 76.145-26.13 89.453-31.112 42.415-15.797 60.286-11.906 60.286-11.906s0 6.437-15.85 23.726c-31.57 34.454-43.138 42.704-69.122 69.192-8.523 8.75-28.074 38.48-37.996 58.238-28.067 55.883-31.192 100.682-56.828 162.062 93.554-54.94 139.133-130.742 188.586-226.32 15.215-29.26 35.78-63.07 54.566-81.66 12.64-12.47 30.45-31.41 30.45-31.41s-13.048-3.078-53.673-9.07c-18.218-2.668-57.046-14.758-92.695-17.24M1049.31 706.18c49.39-8.07 93.28-20.078 138.19-35.49 12.07-4.15 30.44-13.28 43.16-19.72 31.84-16.2 50.16-26.72 77.52-45.54 44.07-30.34 91.41-63.05 134.12-112.668.91-.973 7.82-8.352 3.22-11.96-8.37-6.552-29-15.904-35.85-9.84-39.08 34.75-37.11 45.89-84.47 88.776-12.15 10.942-30.49 26.293-52.41 41.282-21.37 14.628-47.21 30.6-71.22 42.45-21.82 10.73-55.42 13.94-74.28 13.94l.26-.13c-8.58.33-57.84.6-69.25-.14-96.808-6.628-92.062-15.288-147.878-30.41-45.918-12.492-95.168-21.39-144.067-27.95-50.078-6.81-94.902-7.632-141.85-2.83-63.653 6.55-133.275 24.3-185.235 57.78 47.507-.8 96.296-9.93 143.562-6.308 19.895 1.54 52.156 4.527 74.016 11.27 43.418 13.328 68.32 18.538 114.304 31.347 39.512 11 79.344 14.812 120.606 19.15 57.097 6.11 109.992 4.74 157.552-3.01M1934.51 2295.17c23.88-23.81 31.03-32.57 44.94-58.89 8.21-15.47 18.62-35.33 21.59-60.93-49.1 18.69-89.08 56.79-125.27 98.88-26.77 31.19-47.49 72.6-73.87 103.42 46.48-15.59 95.5-45.52 132.61-82.48"></path><path d="M2074.97 2228.25c-18.51 31.24-44.99 65.02-72.44 88.06 12.84-30.75 31.56-69.05 33.76-90.67 6.83-67.74 20.74-114.39 31.91-175.78-30.49 21.75-62.71 55.94-95.06 79.81-24.94 18.37-50.01 30.63-75.7 48.3-15.31 10.55-25.26 24.08-37.98 36.77 15.15-63.85 71.17-128.28 111.28-158.31 50.37-37.79 68.44-43.81 149.38-126.14 10.27 101.66 8.45 207.32-45.15 297.96"></path><path d="M2240.15 1890.6c-3.81 52.79-10.08 95.02-22.92 146.52-8.99 35.97-28.34 89.5-56.29 111.47 3.45-13.05 5.22-32.6 6.56-45.8 5.52-54.39-4.88-117.56-6.17-171.9-.62-26.72-.39-47.32 3.58-72.42 4.15-26.32.72-58.62.72-58.62s-14.42 16.48-27.33 37c-28.09 44.7-37.11 57.97-59.84 82.19-28.11 30.04-59.6 57.87-95.14 82.51 4.34-16.69 22.46-49.16 29.96-62.2 10.05-17.46 14.53-33.32 38.22-72.85 33.3-55.55 48.15-63.05 85.1-122.46 8.01-12.92 40.9-62.06 48.85-77.08 17.34 35.86 23.86 67.19 45.11 125.57 13.4 36.67 11.39 73.36 9.59 98.07"></path><path d="M2291.58 1615.93c20.08 52.08 29.27 100.39 36.11 155.22 4.16 33.55 2.21 78.28-9.75 110.52-3.14-7.87-9.53-27.86-10.41-30.86-8.94-29.96-12.63-44.34-25.05-73.24-9.54-22.17-21.25-39.83-33.68-61.74-11.32-19.99-20.88-46.31-29.12-66.44-26.33-64.57-28.28-125.02-38.37-131.63-7.29 15.54-9.54 30.42-10.33 37.76-7.85 71.44-17.27 136.39-107.23 220.59-8.28-25.06-4.08-71.27.84-96.02 10.8-54.12 19.53-80.12 43.32-132.57 12.6-27.62 29.42-68.26 34.06-81.73 12.01-35.06 16.17-53.45 23.83-74.19 42.44 70.78 94.72 143.88 125.78 224.33"></path><path d="M2221.56 1290.31c30.27 42.1 41.27 63.26 60.94 108.07 16.52 37.6 21.26 51.53 30.97 93.63 5.29 22.95 8.26 43.77 4.14 57.35-23.61-42.87-39.86-90.85-70.82-126.42-24.55-28.2-48.24-52.23-67.79-76.03-29.96-36.59-53.64-71.22-82.38-109.3-2.4 19.08-3.38 38.43.88 69.71 5.9 42.86 2.29 77.99-5.2 119.49-9.49 52.65-16.44 78.72-34.7 131.98-22.33-43.83-22.27-94.53-27.88-141.03-10.86-90.19 17.43-197.76 22.98-242.59 1.44-11.82-.6-40.97-1.2-52.33 42.2 33.24 79.75 66.79 116.14 103.29 16.59 16.55 39.29 43.96 53.92 64.18"></path><path d="M2061.59 959.53c19.19 13.84 70.83 53.3 95.27 84.36 35.6 45.2 43.45 64.58 66.92 116.59 2.84 6.34 16.18 35.77 17.27 55.77-76.95-92.91-145.84-106.74-219.24-183.84-26.93-28.24-54.49-54.82-69.06-68.148-11.17-10.282-25.04-13.403-25.04-13.403s1.43 19.812 8.66 33.58c48.98 93.6 58.23 191.44 50.76 296.46-22.28-27.68-29.38-46.15-43.55-72.91-15.4-29.15-23.29-47.18-30.47-65.12-41.94-104.28-52.89-224.74-78.76-285.37 79.97 26.93 142.88 41.31 227.24 102.03"></path><path d="M1733.85 713.44c21.66-1.46 64-1.33 86.62 2.35C1934.86 734.1 2041.16 817 2094.66 908.07c-48.55-29.59-83.61-49.35-126.22-64.11-38.01-13.132-74.01-17.02-137.39-35.02-38.3-10.81-76.17-26.13-89.49-31.112-42.41-15.797-60.27-11.906-60.27-11.906s0 6.437 15.84 23.726c31.58 34.454 43.16 42.704 69.1 69.192 8.56 8.75 28.11 38.48 38.02 58.238 28.07 55.883 31.2 100.682 56.86 162.062-93.55-54.94-139.22-130.742-188.65-226.32-15.17-29.26-35.74-63.07-54.51-81.66-12.62-12.47-30.47-31.41-30.47-31.41s13.05-3.078 53.7-9.07c18.2-2.668 57-14.758 92.67-17.24M1280.37 706.18c-49.38-8.07-93.23-20.078-138.18-35.49-12.12-4.15-30.46-13.28-43.18-19.72-31.83-16.2-50.11-26.72-77.51-45.54-44.105-30.34-91.37-63.05-134.13-112.668-.917-.973-7.85-8.352-3.222-11.96 8.403-6.552 29.028-15.904 35.825-9.84 39.097 34.75 37.105 45.89 84.517 88.776 12.1 10.942 30.44 26.293 52.39 41.282 21.42 14.628 47.19 30.6 71.22 42.45 21.79 10.73 55.45 13.94 74.28 13.94l-.27-.13c8.59.33 57.83.6 69.27-.14 96.82-6.628 92.06-15.288 147.85-30.41 45.94-12.492 95.18-21.39 144.08-27.95 50.06-6.81 94.91-7.632 141.86-2.83 63.66 6.55 133.26 24.3 185.2 57.78-47.48-.8-96.24-9.93-143.55-6.308-19.91 1.54-52.13 4.527-73.99 11.27-43.42 13.328-68.35 18.538-114.29 31.347-39.53 11-79.36 14.812-120.6 19.15-57.13 6.11-110.01 4.74-157.57-3.01M1103.64 2834.64l-86.95-322.87h-92.315l-57.742 210.33-56.445-210.33h-92.09l-86.953 322.87h86.914l49.53-222.26 59.578 222.26h83.06l56.518-222.26 52.014 222.26h84.88M1390.51 2772.2h-148.54v-60.08h137.7v-62.44h-137.7v-137.91h-82.82v322.87h231.36v-62.44M1628.38 2730.88c0 9.08-2.46 16.91-7.36 23.47-4.93 6.56-10.63 11.14-17.13 13.74-8.68 3.46-17.13 5.37-25.37 5.73-8.25.35-19.24.55-32.97.55h-14.31v-96.51h23.85c14.17 0 25.84.87 35.03 2.6 9.18 1.74 16.87 5.2 23.08 10.39 5.35 4.61 9.22 10.14 11.6 16.55 2.39 6.42 3.58 14.24 3.58 23.48zm86.09 1.85c0-14.46-2.54-28.59-7.59-42.39-5.06-13.8-12.29-25.41-21.68-34.8-12.88-12.74-27.22-22.34-43.05-28.85-15.82-6.5-35.53-9.74-59.08-9.74h-51.83v-105.18h-83.27v322.87h137.05c20.53 0 37.83-1.77 51.92-5.31 14.1-3.54 26.58-8.85 37.42-15.94 13-8.53 22.94-19.43 29.81-32.73 6.87-13.3 10.3-29.28 10.3-47.93M499.31 257.87L441.26 70.56H377.52l-38.172 126.268-37.7-126.27h-64.382L179.72 257.872h62.983l32.16-129.09 39.973 129.09h53.2l38-129.09 31.632 129.09h61.64M649.773 286.07h-4.492c-2.663.782-6.132 1.668-10.397 2.66-4.27 1-8.836 1.508-13.723 1.508-11.758 0-19.707-2.11-23.863-6.34-4.16-4.226-6.235-12.398-6.235-24.52v-1.507h46.196v-40.69h-44.2V70.56h-60.214v146.62h-25.688v40.69h25.688v5.18c0 22.9 6.094 40.08 18.26 51.54 12.19 11.46 30.607 17.18 55.29 17.18 8.91 0 16.965-.3 24.192-.918 7.226-.602 13.625-1.422 19.187-2.41V286.07M789.148 165.55c0 18.2-3.1 31.42-9.312 39.64-6.215 8.208-16.035 12.322-29.465 12.322-5.65 0-11.483-.87-17.472-2.59-5.996-1.71-11.7-4.184-17.144-7.402v-94.09c3.992-1.56 8.27-2.56 12.82-3.008 4.54-.442 9.03-.66 13.477-.66 15.872 0 27.684 4.636 35.45 13.898 7.766 9.27 11.648 23.238 11.648 41.89zm61.875 1.26c0-15.458-2.363-29.52-7.07-42.208-4.723-12.672-10.918-23.122-18.57-31.352-8-8.672-17.055-15.238-27.16-19.68-10.11-4.46-20.938-6.672-32.493-6.672-10.664 0-19.714 1.14-27.144 3.41-7.44 2.282-15.063 5.48-22.832 9.583V1.84h-60.22v256.03h60.22v-19.51c9.22 7.33 18.633 13.28 28.238 17.85 9.613 4.56 20.688 6.84 33.242 6.84 23.325 0 41.45-8.57 54.387-25.69 12.942-17.122 19.403-40.64 19.403-70.55M879.48 70.56h62.395v65.55H879.48zM1101.28 118.602c3.89 4.777 6.8 10.54 8.75 17.257 1.93 6.73 2.91 16.05 2.91 27.94 0 11.01-1 20.23-2.99 27.688-2.01 7.453-4.78 13.39-8.34 17.852-3.57 4.558-7.85 7.78-12.85 9.672-5 1.886-10.4 2.84-16.18 2.84-5.78 0-10.93-.782-15.43-2.34-4.5-1.55-8.82-4.672-12.92-9.34-3.67-4.332-6.59-10.28-8.77-17.84-2.17-7.562-3.24-17.07-3.24-28.53 0-10.232.93-19.103 2.83-26.603 1.89-7.51 4.67-13.54 8.34-18.11 3.55-4.32 7.81-7.488 12.76-9.5 4.94-2 10.59-3 16.93-3 5.45 0 10.65.91 15.6 2.762 4.94 1.82 9.14 4.91 12.6 9.25zm73.88 45.54c0-30.814-8.99-55.083-26.94-72.814-17.97-17.726-43.17-26.597-75.64-26.597s-57.69 8.872-75.646 26.598c-17.957 17.73-26.946 42-26.946 72.813 0 31.02 9.043 55.372 27.114 73.05 18.068 17.68 43.218 26.53 75.478 26.53 32.7 0 57.96-8.888 75.8-26.7 17.85-17.782 26.78-42.08 26.78-72.88M1336.89 200.672h-5.33c-2.56.88-6.66 1.558-12.32 2-5.66.437-10.37.656-14.14.656-8.55 0-16.09-.558-22.64-1.668-6.54-1.11-13.59-3-21.13-5.66V70.56h-60.22v187.31h60.22v-27.518c13.2 11.347 24.69 18.878 34.44 22.61 9.77 3.718 18.76 5.59 26.96 5.59 2.11 0 4.5-.064 7.17-.173 2.66-.118 4.99-.278 6.99-.51v-57.198M1475.76 129.61v84.902c-3.44 1.437-7.65 2.578-12.65 3.41-4.99.84-9.49 1.258-13.48 1.258-15.76 0-27.58-4.532-35.45-13.602-7.87-9.058-11.82-21.7-11.82-37.937 0-18.01 3.36-30.58 10.08-37.7 6.7-7.12 16.66-10.678 29.86-10.678 6 0 11.88.95 17.64 2.84 5.77 1.886 11.06 4.386 15.82 7.507zm60.22-37.54c0-17.558-2.5-32.35-7.51-44.35-5.01-12.03-12.01-21.42-21.03-28.2-9-6.9-19.86-11.872-32.6-14.93-12.73-3.06-27.11-4.59-43.12-4.59-13.01 0-25.82.78-38.44 2.352-12.63 1.546-23.55 3.437-32.78 5.66V54.88h7.33c7.33-2.892 16.26-5.52 26.82-7.92 10.55-2.39 19.98-3.59 28.31-3.59 11.1 0 20.13 1.04 27.07 3.09 6.94 2.06 12.24 4.98 15.9 8.76 3.45 3.56 5.95 8.108 7.49 13.67 1.56 5.56 2.34 12.23 2.34 20.02v3.5c-7.22-5.898-15.21-10.558-23.99-14-8.77-3.46-18.55-5.18-29.32-5.18-26.22 0-46.43 7.89-60.64 23.7-14.22 15.78-21.32 39.79-21.32 72.05 0 15.45 2.17 28.79 6.49 40.032 4.33 11.226 10.44 21.008 18.32 29.347 7.34 7.78 16.36 13.85 27.07 18.17 10.72 4.35 21.69 6.52 32.91 6.52 10.11 0 19.3-1.19 27.57-3.59s15.8-5.69 22.58-9.93l2.17 8.34h58.38V92.07M1751.25 330.11L1618.96 16.51h-51.19l131.74 313.597h51.74M1946.22 129.71c0-19.28-8.63-34.82-25.92-46.608-17.27-11.793-40.92-17.692-70.93-17.692-16.63 0-31.68 1.55-45.2 4.65-13.52 3.1-24.37 6.53-32.56 10.3v49.18h5.48c3-2.11 6.45-4.4 10.38-6.892 3.94-2.5 9.5-5.187 16.7-8.07 6.21-2.547 13.24-4.726 21.1-6.558 7.86-1.83 16.28-2.74 25.26-2.74 11.74 0 20.44 1.298 26.08 3.9 5.65 2.61 8.48 6.46 8.48 11.55 0 4.54-1.66 7.84-4.99 9.89-3.32 2.052-9.64 4.01-18.94 5.892-4.43 1-10.45 2.09-18.03 3.25-7.58 1.156-14.49 2.578-20.68 4.238-16.95 4.418-29.52 11.31-37.71 20.68-8.21 9.35-12.3 21.01-12.3 34.968 0 17.942 8.5 32.872 25.5 44.782 17 11.898 40.23 17.86 69.7 17.86 13.95 0 27.33-1.42 40.12-4.24 12.8-2.82 22.79-5.84 29.98-9.05v-47.19h-5.14c-8.86 6.088-18.97 11.05-30.32 14.87-11.35 3.82-22.85 5.73-34.48 5.73-9.63 0-17.75-1.32-24.33-3.992-6.59-2.656-9.89-6.418-9.89-11.29 0-4.43 1.49-7.808 4.49-10.14 2.98-2.32 10.02-4.648 21.1-6.976 6.08-1.223 12.65-2.403 19.69-3.57 7.03-1.172 14.08-2.633 21.17-4.403 15.73-4.1 27.36-10.552 34.9-19.35 7.52-8.81 11.29-19.81 11.29-32.98M2150.02 257.13l-71.94-186.57h-67.79l-71.43 186.57H2002l43.3-128.42 42.76 128.42h61.96"></path></g></svg>