<?xml version="1.0" encoding="UTF-8"?>
<svg width="57px" height="86px" viewBox="0 0 57 86" version="1.1" xmlns="http://www.w3.org/2000/svg" xmlns:xlink="http://www.w3.org/1999/xlink">
    <!-- Generator: Sketch 48.2 (47327) - http://www.bohemiancoding.com/sketch -->
    <title>vertical/en/wfp-logo-vertical-blue-en</title>
    <desc>Created with Sketch.</desc>
    <defs></defs>
    <g id="Blue" stroke="none" stroke-width="1" fill="none" fill-rule="evenodd" transform="translate(-60.000000, -218.000000)">
        <g id="vertical/en/wfp-logo-vertical-blue-en" transform="translate(60.000000, 218.000000)" fill="#0A6EB4">
            <path d="M2.535,79.1 L3.048,79.1 C3.527,79.1 3.886,79.005 4.124,78.815 C4.362,78.626 4.481,78.351 4.481,77.988 C4.481,77.623 4.381,77.353 4.181,77.179 C3.982,77.004 3.669,76.917 3.244,76.917 L2.535,76.917 L2.535,79.1 Z M6.055,77.933 C6.055,78.724 5.808,79.329 5.313,79.748 C4.819,80.167 4.116,80.377 3.203,80.377 L2.535,80.377 L2.535,82.992 L0.975,82.992 L0.975,75.64 L3.324,75.64 C4.216,75.64 4.894,75.831 5.359,76.215 C5.823,76.6 6.055,77.172 6.055,77.933 Z" id="Fill-1"></path>
            <path d="M9.947,77.264 C10.155,77.264 10.327,77.279 10.465,77.309 L10.349,78.747 C10.225,78.714 10.074,78.697 9.896,78.697 C9.407,78.697 9.026,78.823 8.752,79.074 C8.479,79.326 8.343,79.678 8.343,80.131 L8.343,82.992 L6.809,82.992 L6.809,77.369 L7.97,77.369 L8.197,78.314 L8.272,78.314 C8.446,78 8.682,77.746 8.978,77.553 C9.275,77.36 9.598,77.264 9.947,77.264" id="Fill-2"></path>
            <path d="M12.253,80.171 C12.253,80.728 12.344,81.149 12.527,81.434 C12.709,81.718 13.007,81.86 13.419,81.86 C13.828,81.86 14.123,81.719 14.302,81.436 C14.481,81.152 14.571,80.73 14.571,80.171 C14.571,79.614 14.481,79.197 14.3,78.918 C14.119,78.641 13.822,78.501 13.41,78.501 C13,78.501 12.705,78.64 12.524,78.916 C12.343,79.192 12.253,79.611 12.253,80.171 Z M16.14,80.171 C16.14,81.086 15.899,81.802 15.416,82.318 C14.933,82.835 14.261,83.093 13.399,83.093 C12.86,83.093 12.384,82.975 11.971,82.738 C11.559,82.502 11.242,82.162 11.02,81.72 C10.799,81.277 10.689,80.761 10.689,80.171 C10.689,79.252 10.928,78.538 11.408,78.028 C11.887,77.519 12.561,77.264 13.43,77.264 C13.97,77.264 14.446,77.381 14.858,77.616 C15.27,77.851 15.587,78.188 15.808,78.627 C16.03,79.066 16.14,79.581 16.14,80.171 Z" id="Fill-3"></path>
            <path d="M18.094,79.21 C18.094,79.516 18.163,79.757 18.303,79.935 C18.442,80.112 18.654,80.201 18.939,80.201 C19.227,80.201 19.438,80.112 19.572,79.935 C19.706,79.757 19.773,79.516 19.773,79.21 C19.773,78.533 19.495,78.194 18.939,78.194 C18.375,78.194 18.094,78.533 18.094,79.21 Z M17.536,83.787 C17.536,83.998 17.637,84.164 17.84,84.285 C18.043,84.405 18.327,84.466 18.692,84.466 C19.242,84.466 19.673,84.391 19.985,84.239 C20.297,84.089 20.452,83.883 20.452,83.621 C20.452,83.409 20.36,83.264 20.176,83.184 C19.992,83.103 19.706,83.063 19.321,83.063 L18.526,83.063 C18.244,83.063 18.009,83.129 17.82,83.262 C17.63,83.394 17.536,83.568 17.536,83.787 Z M21.876,77.369 L21.876,78.149 L20.995,78.375 C21.157,78.627 21.237,78.908 21.237,79.221 C21.237,79.824 21.027,80.294 20.606,80.631 C20.185,80.968 19.601,81.137 18.853,81.137 L18.577,81.121 L18.351,81.096 C18.193,81.217 18.114,81.351 18.114,81.498 C18.114,81.72 18.395,81.83 18.959,81.83 L19.914,81.83 C20.531,81.83 21.001,81.963 21.325,82.228 C21.649,82.492 21.81,82.882 21.81,83.395 C21.81,84.052 21.537,84.562 20.988,84.924 C20.44,85.285 19.653,85.467 18.627,85.467 C17.842,85.467 17.243,85.33 16.829,85.057 C16.415,84.783 16.208,84.4 16.208,83.907 C16.208,83.568 16.313,83.285 16.525,83.058 C16.736,82.83 17.046,82.667 17.455,82.569 C17.297,82.503 17.16,82.393 17.043,82.24 C16.925,82.088 16.867,81.926 16.867,81.755 C16.867,81.54 16.929,81.362 17.053,81.22 C17.177,81.077 17.356,80.937 17.591,80.8 C17.296,80.672 17.062,80.468 16.889,80.186 C16.717,79.904 16.63,79.572 16.63,79.19 C16.63,78.576 16.829,78.103 17.229,77.767 C17.628,77.432 18.198,77.264 18.939,77.264 C19.096,77.264 19.283,77.278 19.499,77.307 C19.716,77.335 19.854,77.356 19.914,77.369 L21.876,77.369 Z" id="Fill-4"></path>
            <path d="M25.514,77.264 C25.722,77.264 25.894,77.279 26.032,77.309 L25.916,78.747 C25.792,78.714 25.641,78.697 25.464,78.697 C24.975,78.697 24.593,78.823 24.32,79.074 C24.046,79.326 23.91,79.678 23.91,80.131 L23.91,82.992 L22.376,82.992 L22.376,77.369 L23.537,77.369 L23.764,78.314 L23.839,78.314 C24.014,78 24.249,77.746 24.546,77.553 C24.843,77.36 25.165,77.264 25.514,77.264" id="Fill-5"></path>
            <path d="M29.617,80.387 L29.024,80.407 C28.577,80.421 28.245,80.501 28.028,80.648 C27.81,80.796 27.701,81.021 27.701,81.322 C27.701,81.755 27.949,81.972 28.445,81.972 C28.801,81.972 29.085,81.869 29.298,81.664 C29.511,81.46 29.617,81.188 29.617,80.85 L29.617,80.387 Z M30.07,82.992 L29.773,82.228 L29.733,82.228 C29.474,82.553 29.209,82.778 28.936,82.904 C28.662,83.03 28.306,83.093 27.867,83.093 C27.327,83.093 26.902,82.938 26.592,82.63 C26.282,82.321 26.127,81.883 26.127,81.312 C26.127,80.716 26.335,80.275 26.753,79.992 C27.17,79.709 27.8,79.552 28.641,79.521 L29.617,79.492 L29.617,79.245 C29.617,78.676 29.326,78.391 28.742,78.391 C28.293,78.391 27.765,78.526 27.158,78.798 L26.65,77.762 C27.297,77.423 28.015,77.254 28.802,77.254 C29.556,77.254 30.135,77.418 30.537,77.747 C30.94,78.075 31.141,78.575 31.141,79.245 L31.141,82.992 L30.07,82.992 Z" id="Fill-6"></path>
            <path d="M37.267,82.992 L35.733,82.992 L35.733,79.708 C35.733,79.303 35.665,78.998 35.53,78.795 C35.394,78.593 35.18,78.491 34.888,78.491 C34.496,78.491 34.211,78.635 34.033,78.924 C33.855,79.212 33.767,79.687 33.767,80.347 L33.767,82.992 L32.233,82.992 L32.233,77.369 L33.405,77.369 L33.611,78.089 L33.696,78.089 C33.847,77.83 34.065,77.629 34.35,77.482 C34.635,77.337 34.962,77.264 35.331,77.264 C36.172,77.264 36.743,77.539 37.041,78.089 L37.177,78.089 C37.327,77.827 37.55,77.624 37.843,77.481 C38.136,77.336 38.467,77.264 38.836,77.264 C39.473,77.264 39.956,77.428 40.282,77.754 C40.609,78.081 40.772,78.606 40.772,79.326 L40.772,82.992 L39.234,82.992 L39.234,79.708 C39.234,79.303 39.166,78.998 39.03,78.795 C38.894,78.593 38.681,78.491 38.389,78.491 C38.013,78.491 37.732,78.625 37.546,78.894 C37.36,79.161 37.267,79.587 37.267,80.171 L37.267,82.992" id="Fill-7"></path>
            <path d="M46.899,82.992 L45.365,82.992 L45.365,79.708 C45.365,79.303 45.297,78.998 45.161,78.795 C45.026,78.593 44.812,78.491 44.52,78.491 C44.128,78.491 43.843,78.635 43.665,78.924 C43.487,79.212 43.399,79.687 43.399,80.347 L43.399,82.992 L41.865,82.992 L41.865,77.369 L43.036,77.369 L43.243,78.089 L43.328,78.089 C43.479,77.83 43.697,77.629 43.982,77.482 C44.267,77.337 44.594,77.264 44.963,77.264 C45.804,77.264 46.374,77.539 46.673,78.089 L46.808,78.089 C46.959,77.827 47.181,77.624 47.475,77.481 C47.768,77.336 48.099,77.264 48.468,77.264 C49.105,77.264 49.587,77.428 49.914,77.754 C50.241,78.081 50.404,78.606 50.404,79.326 L50.404,82.992 L48.866,82.992 L48.866,79.708 C48.866,79.303 48.798,78.998 48.661,78.795 C48.526,78.593 48.312,78.491 48.02,78.491 C47.645,78.491 47.364,78.625 47.178,78.894 C46.992,79.161 46.899,79.587 46.899,80.171 L46.899,82.992" id="Fill-8"></path>
            <path d="M53.859,78.355 C53.534,78.355 53.279,78.458 53.095,78.664 C52.911,78.871 52.805,79.163 52.778,79.542 L54.931,79.542 C54.924,79.163 54.825,78.871 54.634,78.664 C54.443,78.458 54.185,78.355 53.859,78.355 Z M54.076,83.093 C53.17,83.093 52.463,82.843 51.953,82.344 C51.443,81.844 51.189,81.137 51.189,80.221 C51.189,79.279 51.424,78.551 51.895,78.036 C52.366,77.521 53.018,77.264 53.849,77.264 C54.644,77.264 55.263,77.49 55.705,77.942 C56.147,78.396 56.369,79.021 56.369,79.818 L56.369,80.563 L52.743,80.563 C52.76,80.999 52.889,81.339 53.13,81.584 C53.371,81.829 53.71,81.951 54.146,81.951 C54.484,81.951 54.805,81.916 55.106,81.846 C55.408,81.775 55.723,81.663 56.052,81.509 L56.052,82.695 C55.784,82.83 55.497,82.93 55.192,82.995 C54.887,83.061 54.515,83.093 54.076,83.093 Z" id="Fill-9"></path>
            <path d="M8.306,71.654 L6.531,71.654 L5.535,67.792 C5.498,67.654 5.435,67.37 5.347,66.939 C5.258,66.509 5.207,66.22 5.193,66.072 C5.174,66.253 5.123,66.544 5.043,66.944 C4.962,67.345 4.9,67.631 4.856,67.802 L3.866,71.654 L2.096,71.654 L0.22,64.302 L1.754,64.302 L2.694,68.314 C2.858,69.056 2.977,69.698 3.051,70.241 C3.071,70.05 3.117,69.754 3.189,69.354 C3.262,68.953 3.329,68.642 3.392,68.421 L4.464,64.302 L5.937,64.302 L7.009,68.421 C7.056,68.605 7.114,68.887 7.185,69.266 C7.256,69.645 7.308,69.97 7.346,70.241 C7.38,69.979 7.434,69.653 7.507,69.263 C7.581,68.872 7.647,68.557 7.708,68.314 L8.643,64.302 L10.178,64.302 L8.306,71.654" id="Fill-10"></path>
            <path d="M11.892,68.833 C11.892,69.39 11.983,69.811 12.166,70.096 C12.348,70.38 12.646,70.523 13.058,70.523 C13.468,70.523 13.763,70.381 13.941,70.098 C14.121,69.814 14.211,69.393 14.211,68.833 C14.211,68.276 14.12,67.859 13.939,67.58 C13.758,67.303 13.461,67.163 13.049,67.163 C12.64,67.163 12.345,67.302 12.164,67.578 C11.982,67.854 11.892,68.273 11.892,68.833 Z M15.78,68.833 C15.78,69.748 15.538,70.464 15.056,70.98 C14.573,71.497 13.9,71.755 13.039,71.755 C12.499,71.755 12.023,71.637 11.61,71.4 C11.198,71.164 10.882,70.824 10.66,70.382 C10.438,69.94 10.328,69.423 10.328,68.833 C10.328,67.914 10.567,67.2 11.047,66.69 C11.526,66.181 12.201,65.926 13.069,65.926 C13.609,65.926 14.085,66.043 14.497,66.278 C14.91,66.513 15.226,66.85 15.448,67.289 C15.669,67.729 15.78,68.243 15.78,68.833 Z" id="Fill-11"></path>
            <path d="M19.991,65.926 C20.199,65.926 20.371,65.941 20.509,65.971 L20.393,67.409 C20.269,67.376 20.118,67.359 19.94,67.359 C19.451,67.359 19.07,67.485 18.797,67.736 C18.523,67.988 18.387,68.34 18.387,68.793 L18.387,71.654 L16.852,71.654 L16.852,66.031 L18.015,66.031 L18.241,66.977 L18.316,66.977 C18.49,66.662 18.726,66.408 19.022,66.215 C19.319,66.022 19.642,65.926 19.991,65.926" id="Fill-12"></path>
            <polygon id="Fill-13" points="21.317 71.654 22.851 71.654 22.851 63.829 21.317 63.829"></polygon>
            <path d="M26.628,70.533 C27.02,70.533 27.307,70.419 27.49,70.19 C27.673,69.963 27.772,69.575 27.79,69.029 L27.79,68.863 C27.79,68.26 27.696,67.827 27.511,67.565 C27.324,67.304 27.021,67.173 26.602,67.173 C26.261,67.173 25.995,67.318 25.806,67.608 C25.616,67.898 25.521,68.32 25.521,68.873 C25.521,69.427 25.617,69.841 25.807,70.118 C25.999,70.395 26.272,70.533 26.628,70.533 Z M26.09,71.755 C25.429,71.755 24.91,71.498 24.533,70.985 C24.156,70.473 23.968,69.762 23.968,68.853 C23.968,67.931 24.159,67.213 24.543,66.698 C24.927,66.184 25.456,65.926 26.13,65.926 C26.837,65.926 27.377,66.201 27.749,66.751 L27.8,66.751 C27.723,66.332 27.683,65.958 27.683,65.629 L27.683,63.829 L29.223,63.829 L29.223,71.654 L28.046,71.654 L27.749,70.925 L27.683,70.925 C27.335,71.479 26.804,71.755 26.09,71.755 Z" id="Fill-14"></path>
            <polyline id="Fill-15" points="34.683 71.654 33.149 71.654 33.149 64.302 37.364 64.302 37.364 65.579 34.683 65.579 34.683 67.475 37.179 67.475 37.179 68.747 34.683 68.747 34.683 71.654"></polyline>
            <path d="M39.698,68.833 C39.698,69.39 39.79,69.811 39.973,70.096 C40.155,70.38 40.453,70.523 40.865,70.523 C41.274,70.523 41.568,70.381 41.748,70.098 C41.927,69.814 42.016,69.393 42.016,68.833 C42.016,68.276 41.927,67.859 41.745,67.58 C41.564,67.303 41.268,67.163 40.855,67.163 C40.446,67.163 40.151,67.302 39.97,67.578 C39.789,67.854 39.698,68.273 39.698,68.833 Z M43.586,68.833 C43.586,69.748 43.345,70.464 42.862,70.98 C42.379,71.497 41.707,71.755 40.845,71.755 C40.306,71.755 39.829,71.637 39.417,71.4 C39.005,71.164 38.687,70.824 38.466,70.382 C38.245,69.94 38.135,69.423 38.135,68.833 C38.135,67.914 38.374,67.2 38.853,66.69 C39.333,66.181 40.007,65.926 40.875,65.926 C41.415,65.926 41.891,66.043 42.304,66.278 C42.716,66.513 43.033,66.85 43.254,67.289 C43.475,67.729 43.586,68.243 43.586,68.833 Z" id="Fill-16"></path>
            <path d="M45.914,68.833 C45.914,69.39 46.005,69.811 46.187,70.096 C46.37,70.38 46.668,70.523 47.08,70.523 C47.489,70.523 47.784,70.381 47.963,70.098 C48.143,69.814 48.232,69.393 48.232,68.833 C48.232,68.276 48.141,67.859 47.961,67.58 C47.779,67.303 47.482,67.163 47.07,67.163 C46.661,67.163 46.366,67.302 46.186,67.578 C46.004,67.854 45.914,68.273 45.914,68.833 Z M49.802,68.833 C49.802,69.748 49.56,70.464 49.077,70.98 C48.595,71.497 47.922,71.755 47.061,71.755 C46.52,71.755 46.045,71.637 45.632,71.4 C45.22,71.164 44.903,70.824 44.681,70.382 C44.46,69.94 44.349,69.423 44.349,68.833 C44.349,67.914 44.589,67.2 45.068,66.69 C45.548,66.181 46.223,65.926 47.091,65.926 C47.631,65.926 48.106,66.043 48.519,66.278 C48.931,66.513 49.248,66.85 49.47,67.289 C49.69,67.729 49.802,68.243 49.802,68.833 Z" id="Fill-17"></path>
            <path d="M53.248,70.533 C53.64,70.533 53.928,70.419 54.111,70.19 C54.294,69.963 54.394,69.575 54.41,69.029 L54.41,68.863 C54.41,68.26 54.317,67.827 54.131,67.565 C53.945,67.304 53.643,67.173 53.223,67.173 C52.881,67.173 52.615,67.318 52.426,67.608 C52.236,67.898 52.141,68.32 52.141,68.873 C52.141,69.427 52.237,69.841 52.429,70.118 C52.62,70.395 52.893,70.533 53.248,70.533 Z M52.71,71.755 C52.05,71.755 51.531,71.498 51.153,70.985 C50.776,70.473 50.588,69.762 50.588,68.853 C50.588,67.931 50.78,67.213 51.164,66.698 C51.548,66.184 52.076,65.926 52.751,65.926 C53.458,65.926 53.998,66.201 54.37,66.751 L54.42,66.751 C54.343,66.332 54.305,65.958 54.305,65.629 L54.305,63.829 L55.844,63.829 L55.844,71.654 L54.667,71.654 L54.37,70.925 L54.305,70.925 C53.956,71.479 53.425,71.755 52.71,71.755 Z" id="Fill-18"></path>
            <path d="M35.847,4.482 L36.395,4.482 C36.907,4.482 37.29,4.381 37.544,4.179 C37.798,3.977 37.926,3.682 37.926,3.295 C37.926,2.905 37.819,2.617 37.606,2.431 C37.393,2.245 37.059,2.151 36.604,2.151 L35.847,2.151 L35.847,4.482 Z M39.607,3.236 C39.607,4.081 39.343,4.728 38.814,5.175 C38.286,5.623 37.536,5.847 36.561,5.847 L35.847,5.847 L35.847,8.64 L34.182,8.64 L34.182,0.787 L36.69,0.787 C37.643,0.787 38.367,0.992 38.863,1.402 C39.359,1.813 39.607,2.423 39.607,3.236 Z M30.071,8.64 L28.433,8.64 L28.433,0.787 L32.933,0.787 L32.933,2.151 L30.071,2.151 L30.071,4.177 L32.735,4.177 L32.735,5.535 L30.071,5.535 L30.071,8.64 Z M25.545,8.64 L23.649,8.64 L22.586,4.514 C22.546,4.368 22.479,4.064 22.385,3.604 C22.289,3.144 22.235,2.835 22.221,2.678 C22.199,2.872 22.145,3.182 22.06,3.61 C21.974,4.037 21.907,4.343 21.861,4.525 L20.803,8.64 L18.913,8.64 L16.909,0.787 L18.547,0.787 L19.552,5.073 C19.727,5.864 19.854,6.55 19.932,7.13 C19.954,6.926 20.003,6.61 20.08,6.183 C20.157,5.754 20.23,5.422 20.298,5.186 L21.442,0.787 L23.015,0.787 L24.16,5.186 C24.21,5.383 24.272,5.684 24.348,6.088 C24.423,6.493 24.48,6.84 24.519,7.13 C24.555,6.851 24.613,6.502 24.691,6.085 C24.77,5.669 24.842,5.331 24.907,5.073 L25.905,0.787 L27.543,0.787 L25.545,8.64 Z M21.473,35.952 C18.422,35.952 16.463,36.677 15.929,36.901 C15.897,36.915 15.871,36.87 15.896,36.846 C19.248,33.36 23.174,33.553 24.118,33.553 C25.074,33.553 35.28,33.553 35.28,33.553 C35.842,33.553 36.298,34.09 36.298,34.753 C36.298,35.415 35.842,35.952 35.28,35.952 C35.28,35.952 24.079,35.952 21.473,35.952 Z M23.987,39.037 C20.7,39.037 19.742,37.169 14.765,38.402 C14.731,38.411 14.708,38.364 14.737,38.345 C17.512,36.441 20.529,36.614 21.748,36.614 C22.703,36.614 35.28,36.614 35.28,36.614 C35.842,36.614 36.298,37.151 36.298,37.813 C36.298,38.476 35.842,39.013 35.28,39.013 C35.28,39.013 26.59,39.037 23.987,39.037 Z M24.221,42.074 C20.846,42.074 20.576,39.584 15.574,39.023 C15.539,39.02 15.535,38.968 15.569,38.959 C19.679,37.932 21.207,39.675 23.606,39.675 C24.562,39.675 35.28,39.675 35.28,39.675 C35.842,39.675 36.298,40.212 36.298,40.874 C36.298,41.537 35.842,42.074 35.28,42.074 C35.28,42.074 26.827,42.074 24.221,42.074 Z M23.488,32.892 C20.772,32.892 18.52,34.076 17.993,34.375 C17.964,34.392 17.934,34.356 17.953,34.329 C18.394,33.681 20.773,30.492 24.864,30.492 C25.819,30.492 35.28,30.492 35.28,30.492 C35.842,30.492 36.298,31.029 36.298,31.692 C36.298,32.354 35.842,32.892 35.28,32.892 C35.28,32.892 26.095,32.892 23.488,32.892 Z M38.429,26.267 C38.324,26.16 38.167,26.083 37.986,26.062 C37.852,26.043 37.731,26.064 37.623,26.104 C37.671,26.006 37.71,25.9 37.726,25.775 C37.752,25.581 37.715,25.4 37.642,25.262 C37.306,24.526 38.266,23.054 38.146,22.987 C38.03,22.924 37.484,24.547 36.954,25.204 C36.852,25.323 36.778,25.496 36.755,25.692 C36.736,25.886 36.768,26.07 36.841,26.205 C36.915,26.338 37.028,26.431 37.159,26.439 C37.196,26.444 37.232,26.442 37.266,26.434 C37.259,26.452 37.251,26.474 37.248,26.492 C37.227,26.636 37.282,26.771 37.39,26.88 C37.495,26.992 37.65,27.066 37.831,27.087 C38.017,27.111 38.19,27.074 38.324,26.995 C39.043,26.601 40.534,26.213 40.502,26.075 C40.473,25.937 39.019,26.79 38.429,26.267 Z M39.529,25.193 C39.429,25.084 39.287,25.01 39.122,24.994 C39.027,24.988 38.941,25.004 38.854,25.036 C38.868,24.991 38.886,24.951 38.891,24.906 C38.91,24.73 38.868,24.568 38.789,24.443 C38.424,23.766 39.376,22.488 39.253,22.424 C39.13,22.36 38.608,23.792 38.077,24.358 C37.973,24.459 37.899,24.608 37.881,24.784 C37.865,24.959 37.904,25.124 37.98,25.249 C38.064,25.371 38.18,25.458 38.319,25.477 C38.379,25.482 38.442,25.472 38.498,25.456 C38.494,25.464 38.487,25.475 38.49,25.482 C38.477,25.631 38.532,25.775 38.629,25.881 C38.728,25.987 38.873,26.062 39.033,26.075 C39.198,26.091 39.35,26.046 39.466,25.958 C40.085,25.512 41.502,25.246 41.466,25.103 C41.431,24.964 40.075,25.714 39.529,25.193 Z M40.492,24.199 C40.39,24.122 40.25,24.08 40.103,24.096 C40.033,24.098 39.967,24.12 39.907,24.146 C39.917,24.117 39.936,24.093 39.946,24.063 C39.985,23.912 39.972,23.758 39.922,23.633 C39.691,22.969 40.715,21.986 40.615,21.906 C40.515,21.832 39.852,23.022 39.306,23.442 C39.201,23.519 39.117,23.641 39.075,23.796 C39.03,23.944 39.043,24.101 39.096,24.223 C39.151,24.348 39.24,24.441 39.361,24.478 C39.452,24.507 39.544,24.489 39.631,24.452 C39.613,24.502 39.602,24.561 39.607,24.622 C39.62,24.757 39.686,24.872 39.794,24.951 C39.896,25.031 40.035,25.071 40.18,25.06 C40.329,25.044 40.458,24.98 40.547,24.885 C41.038,24.388 42.261,23.923 42.211,23.803 C42.159,23.684 41.059,24.568 40.492,24.199 Z M42.387,22.065 C42.285,21.914 41.429,22.852 40.796,22.942 C40.678,22.958 40.547,23.017 40.437,23.12 C40.319,23.227 40.243,23.357 40.216,23.481 C40.187,23.604 40.206,23.724 40.271,23.806 C40.342,23.891 40.45,23.928 40.571,23.915 C40.691,23.901 40.817,23.843 40.936,23.734 C41.046,23.63 41.122,23.501 41.151,23.378 C41.342,22.735 42.463,22.164 42.387,22.065 Z M24.693,23.335 C24.667,23.429 24.483,24.151 24.483,24.151 C24.431,24.181 24.21,24.133 24.152,24.127 C23.73,24.087 23.352,23.721 23.515,23.282 C23.647,22.924 23.918,22.886 24.263,22.871 C24.405,22.864 24.662,22.898 24.791,22.987 C24.791,22.987 24.74,23.152 24.693,23.335 Z M24.207,25.517 C24.194,25.6 24.181,25.682 24.168,25.764 C23.906,25.6 23.751,25.222 23.877,24.924 C23.974,24.699 24.214,24.639 24.391,24.629 C24.328,24.924 24.265,25.219 24.207,25.517 Z M23.83,28.214 C23.797,28.399 23.546,28.424 23.375,28.475 C22.88,28.623 22.41,28.56 22.258,27.967 C22.092,27.332 22.573,27.066 23.087,26.941 C23.368,26.875 23.627,26.931 23.819,27.167 C23.868,27.226 23.924,27.279 23.937,27.335 C23.937,27.335 23.861,28.04 23.83,28.214 Z M22.268,25.092 C22.651,24.999 23.047,24.855 23.341,25.233 C23.651,25.628 23.549,26.264 23.05,26.431 C22.722,26.542 22.326,26.638 22.045,26.37 C21.678,26.019 21.704,25.222 22.268,25.092 Z M21.893,23.035 C22.297,22.937 22.714,22.788 23.024,23.184 C23.347,23.599 23.239,24.268 22.717,24.443 C22.371,24.558 21.953,24.659 21.659,24.377 C21.273,24.01 21.302,23.173 21.893,23.035 Z M21.517,27.48 C21.412,27.85 21.108,27.906 20.788,27.983 C20.578,27.725 20.015,27.074 20.004,26.997 C20.001,26.971 20.004,26.942 20.016,26.907 C20.042,26.83 20.132,26.755 20.197,26.713 C20.389,26.588 20.798,26.495 21.019,26.54 C21.415,26.625 21.622,27.109 21.517,27.48 Z M19.513,25.581 C19.223,24.558 20.94,24.111 21.205,25.116 C21.478,26.147 19.746,26.585 19.513,25.581 Z M19.261,23.538 C18.967,22.52 20.691,22.073 20.956,23.072 C21.229,24.106 19.494,24.544 19.261,23.538 Z M19.019,21.529 C18.738,20.58 20.357,20.16 20.604,21.096 C20.859,22.058 19.24,22.472 19.019,21.529 Z M18.854,25.395 C18.774,25.442 18.744,25.467 18.718,25.467 L17.947,24.629 C17.956,24.606 18.195,24.433 18.274,24.388 C18.914,24.032 19.442,25.049 18.854,25.395 Z M17.392,23.508 C17.011,22.668 18.397,21.757 18.817,22.663 C19.202,23.498 17.817,24.425 17.392,23.508 Z M18.557,20.849 C18.995,21.627 17.675,22.496 17.297,21.659 C16.961,20.936 18.135,20.094 18.557,20.849 Z M17.45,19.034 C17.644,18.862 17.869,18.768 18.1,18.879 C18.471,19.058 18.481,19.613 18.158,19.833 C18.011,19.935 17.762,20.059 17.581,20.014 C17.184,19.913 17.109,19.335 17.45,19.034 Z M17.499,17.365 C17.66,17.257 17.872,17.16 18.056,17.235 C18.39,17.371 18.379,17.856 18.108,18.05 C17.985,18.138 17.762,18.247 17.612,18.207 C17.274,18.122 17.191,17.574 17.499,17.365 Z M18.387,14.987 C18.585,14.879 18.872,14.835 19.051,15.035 C19.26,15.27 19.192,15.627 18.917,15.768 C18.704,15.875 18.418,15.914 18.25,15.717 C18.066,15.505 18.104,15.14 18.387,14.987 Z M18.229,16.793 C18.069,16.198 19.072,15.917 19.234,16.522 C19.415,17.11 18.389,17.402 18.229,16.793 Z M19.846,17.833 C20.079,18.476 18.99,18.84 18.778,18.205 C18.56,17.562 19.654,17.195 19.846,17.833 Z M19.982,14.7 C20.19,14.616 20.456,14.527 20.688,14.7 C20.977,14.916 20.914,15.401 20.583,15.553 C20.365,15.651 20.087,15.717 19.893,15.545 C19.646,15.324 19.633,14.84 19.982,14.7 Z M19.79,20.081 C19.496,20.149 19.19,20.267 18.946,20.014 C18.633,19.692 18.723,19.129 19.145,18.975 C19.418,18.872 19.765,18.813 19.988,19.041 C20.273,19.334 20.242,19.972 19.79,20.081 Z M19.796,16.796 C19.607,16.159 20.646,15.832 20.846,16.451 C21.05,17.086 19.974,17.423 19.796,16.796 Z M21.536,17.965 C21.78,18.693 20.549,19.082 20.323,18.364 C20.095,17.631 21.334,17.243 21.536,17.965 Z M21.601,16.015 C21.818,15.957 22.048,15.978 22.213,16.156 C22.465,16.427 22.378,16.889 22.006,16.958 C21.83,16.99 21.559,16.977 21.423,16.857 C21.176,16.64 21.188,16.126 21.601,16.015 Z M22.651,17.543 C23.047,17.543 23.247,18.125 23.016,18.415 C22.877,18.59 22.577,18.601 22.373,18.569 C21.995,18.51 21.754,18.024 22.008,17.694 C22.163,17.495 22.428,17.543 22.651,17.543 Z M20.748,19.94 C20.504,19.103 21.927,18.728 22.145,19.56 C22.365,20.405 20.935,20.777 20.748,19.94 Z M21.62,21.011 C22.008,20.971 22.412,20.88 22.651,21.287 C22.901,21.717 22.714,22.315 22.21,22.416 C21.88,22.485 21.478,22.517 21.242,22.225 C20.932,21.837 21.056,21.063 21.62,21.011 Z M23.595,19.146 C24.074,19.344 24.236,19.911 23.898,20.227 C23.717,20.392 23.386,20.359 23.163,20.314 C22.717,20.227 22.425,19.556 22.817,19.238 C23.017,19.075 23.376,19.056 23.595,19.146 Z M24.349,21.165 C24.651,21.534 24.538,22.187 24.011,22.22 C23.735,22.235 23.375,22.204 23.189,21.978 C22.89,21.616 23.003,20.939 23.53,20.92 C23.806,20.91 24.163,20.939 24.349,21.165 Z M26.389,14.5 C26.359,14.458 26.307,14.434 26.254,14.45 C26.191,14.471 26.149,14.541 26.173,14.602 C27.378,17.838 25.84,19.432 25.197,21.699 C24.425,19.857 26.981,18.125 25.664,14.769 C25.646,14.727 25.612,14.692 25.564,14.684 C25.499,14.676 25.436,14.703 25.425,14.79 C25.391,15.027 25.236,16.887 23.727,17.976 C23.572,17.62 23.344,17.248 23.024,16.956 C22.885,16.329 22.476,15.468 21.615,15.213 C21.486,14.889 21.226,14.423 20.727,14.174 C20.258,13.94 19.715,13.961 19.111,14.235 C18.381,14.32 17.88,14.604 17.615,15.08 C17.366,15.529 17.41,16.018 17.494,16.35 C16.88,17.006 16.851,17.979 16.867,18.359 C16.502,19.235 16.707,20.259 16.822,20.684 C16.387,21.874 16.812,23.03 16.982,23.413 C16.982,23.516 16.988,23.615 16.993,23.713 C15.565,22.15 12.316,20.216 11.075,19.478 C11.017,19.443 10.944,19.451 10.894,19.499 C10.831,19.557 10.828,19.653 10.886,19.716 C13.655,22.416 16.124,25.748 18.497,32.662 C19.681,31.432 21.819,29.813 24.864,29.813 L28.425,29.813 C26.162,21.385 29.457,18.369 26.389,14.5 Z M43.224,18.858 C42.573,18.688 38.416,17.952 33.758,26.521 C34.437,23.33 36.503,19.469 37.07,18.348 L37.07,18.34 C37.104,18.276 37.085,18.194 37.028,18.149 C36.97,18.106 36.883,18.12 36.839,18.183 C33.76,23.317 32.679,26.274 32.041,29.813 L33.97,29.813 C34.298,26.402 38.608,18.364 43.2,18.962 L43.205,18.962 C43.232,18.967 43.255,18.946 43.258,18.922 C43.269,18.893 43.25,18.864 43.224,18.858 Z M33.962,47.091 L32.92,42.735 L31.146,42.735 C31.427,43.841 31.828,44.965 32.348,45.95 C32.383,46.009 32.446,46.044 32.509,46.033 C32.593,46.022 32.658,45.935 32.642,45.844 C32.521,44.922 32.377,44.032 32.241,43.145 C32.616,44.539 33.122,45.902 33.805,47.157 C33.823,47.196 33.863,47.215 33.899,47.202 C33.949,47.191 33.975,47.139 33.962,47.091 Z M35.755,45.113 C35.574,44.386 35.385,43.492 35.222,42.735 L34.548,42.735 C34.81,43.543 35.164,44.444 35.479,45.215 C35.511,45.289 35.582,45.326 35.65,45.308 C35.731,45.283 35.776,45.196 35.755,45.113 Z M35.98,47.675 L35.975,47.664 C35.757,47.056 35.456,46.511 35.217,45.927 C34.962,45.342 34.716,44.768 34.511,44.168 C34.34,43.719 34.159,43.203 34.02,42.735 L33.369,42.735 C33.553,43.28 33.792,43.867 34.015,44.394 C34.506,45.581 35.073,46.745 35.794,47.786 C35.821,47.824 35.87,47.84 35.917,47.821 C35.975,47.8 36.001,47.733 35.98,47.675 Z M36.954,26.774 C36.904,26.7 36.784,26.684 36.726,26.745 C35.542,27.994 34.826,29.322 34.579,29.813 L35.283,29.813 C35.634,28.987 36.427,27.528 36.936,27.003 L36.941,26.997 C36.994,26.938 37.004,26.84 36.954,26.774 Z M31.6,20.729 C32.251,19.661 33.217,18.842 34.036,17.854 C34.065,17.816 34.062,17.758 34.028,17.726 C33.996,17.692 33.944,17.692 33.91,17.724 C33.723,17.923 33.529,18.109 33.33,18.295 C33.244,18.252 33.023,18.337 32.8,18.513 C32.624,18.651 32.498,18.805 32.453,18.916 C32.341,18.89 32.128,19.023 31.936,19.268 C31.779,19.472 31.687,19.688 31.69,19.82 C31.569,19.831 31.393,19.985 31.244,20.229 C31.146,20.392 31.083,20.548 31.062,20.678 C30.965,20.745 30.855,20.87 30.753,21.032 C30.619,21.255 30.551,21.481 30.572,21.611 C30.54,21.667 30.509,21.72 30.482,21.776 C30.488,21.73 30.493,21.688 30.498,21.643 C30.69,20.131 30.968,18.632 31.39,17.187 C31.816,15.747 32.325,14.294 33.199,13.127 L33.204,13.122 C33.248,13.058 33.244,12.97 33.188,12.912 C33.133,12.851 33.041,12.848 32.983,12.909 C32.681,13.23 32.427,13.589 32.199,13.958 C32.099,13.905 31.889,14.102 31.729,14.41 C31.582,14.689 31.53,14.947 31.585,15.046 C31.585,15.046 31.582,15.053 31.577,15.051 C31.472,15.005 31.278,15.239 31.16,15.553 C31.044,15.848 31.023,16.119 31.102,16.209 C31.097,16.214 31.097,16.217 31.094,16.222 C30.976,16.18 30.784,16.448 30.666,16.828 C30.569,17.15 30.558,17.429 30.629,17.541 C30.635,17.545 30.629,17.559 30.624,17.556 C30.503,17.514 30.32,17.79 30.212,18.167 C30.104,18.531 30.112,18.853 30.215,18.916 C30.097,18.903 29.931,19.18 29.845,19.554 C29.766,19.878 29.774,20.158 29.85,20.269 C29.734,20.304 29.606,20.575 29.54,20.925 C29.477,21.268 29.509,21.553 29.593,21.643 C29.485,21.699 29.375,21.978 29.335,22.323 C29.296,22.666 29.346,22.948 29.435,23.038 C29.346,23.139 29.26,23.378 29.223,23.665 C29.186,23.938 29.209,24.175 29.262,24.308 C29.165,24.391 29.092,24.667 29.089,24.999 C29.081,25.265 29.12,25.49 29.189,25.621 C29.136,25.753 29.099,25.948 29.099,26.163 C29.094,26.442 29.139,26.681 29.209,26.806 C29.189,27.786 29.202,28.831 29.254,29.813 L31.372,29.813 C31.388,29.048 31.438,28.214 31.514,27.457 C31.664,26.107 31.887,24.736 32.561,23.583 L32.566,23.575 C32.587,23.532 32.584,23.484 32.553,23.447 C32.514,23.413 32.458,23.413 32.422,23.455 C31.506,24.518 31.104,25.961 30.868,27.345 C30.826,27.616 30.792,27.89 30.761,28.161 C30.818,27.05 30.921,25.945 31.175,24.893 C31.467,23.612 32.049,22.392 33.159,21.709 C33.193,21.688 33.212,21.643 33.199,21.598 C33.185,21.547 33.133,21.518 33.088,21.531 C33.017,21.553 32.952,21.59 32.884,21.619 C32.81,21.529 32.54,21.595 32.262,21.773 C31.997,21.946 31.821,22.158 31.839,22.275 C31.839,22.281 31.826,22.289 31.826,22.278 C31.824,22.265 31.821,22.251 31.813,22.244 C31.713,22.161 31.446,22.347 31.22,22.663 C30.992,22.979 30.902,23.309 30.999,23.394 C31.005,23.396 31.002,23.405 30.997,23.405 C30.879,23.357 30.682,23.625 30.558,24 C30.469,24.263 30.448,24.505 30.48,24.643 C30.48,24.648 30.474,24.653 30.474,24.653 C30.383,24.957 30.306,25.262 30.236,25.573 C30.262,25.134 30.301,24.693 30.364,24.258 C30.551,23.003 30.929,21.776 31.6,20.729 Z M38.264,17.232 C38.13,17.168 37.954,17.152 37.778,17.195 C37.647,17.227 37.542,17.291 37.453,17.365 C37.466,17.253 37.466,17.142 37.435,17.02 C37.393,16.828 37.298,16.671 37.182,16.57 C36.61,15.999 37.004,14.28 36.87,14.259 C36.739,14.24 36.786,15.954 36.516,16.756 C36.461,16.905 36.45,17.094 36.497,17.285 C36.545,17.474 36.639,17.633 36.757,17.737 C36.87,17.835 37.007,17.88 37.135,17.84 C37.169,17.835 37.203,17.819 37.232,17.798 C37.232,17.819 37.232,17.84 37.235,17.862 C37.264,18.002 37.364,18.112 37.5,18.175 C37.639,18.242 37.81,18.258 37.988,18.212 C38.169,18.17 38.319,18.072 38.416,17.952 C38.954,17.328 40.219,16.437 40.143,16.318 C40.067,16.201 38.998,17.514 38.264,17.232 Z M40.71,15.066 C40.628,14.95 39.616,16.132 38.925,15.837 C38.794,15.77 38.634,15.752 38.473,15.794 C38.385,15.821 38.308,15.869 38.238,15.927 C38.235,15.879 38.238,15.837 38.227,15.794 C38.185,15.622 38.091,15.486 37.973,15.396 C37.395,14.891 37.849,13.355 37.713,13.339 C37.574,13.323 37.576,14.851 37.277,15.569 C37.214,15.702 37.196,15.866 37.24,16.036 C37.282,16.207 37.377,16.347 37.495,16.437 C37.613,16.522 37.752,16.562 37.889,16.531 C37.949,16.515 38.001,16.483 38.049,16.448 C38.049,16.456 38.046,16.467 38.049,16.475 C38.091,16.621 38.19,16.735 38.319,16.802 C38.45,16.863 38.61,16.884 38.765,16.839 C38.925,16.796 39.051,16.698 39.13,16.579 C39.557,15.938 40.791,15.189 40.71,15.066 Z M40.959,13.587 C40.87,13.494 40.143,14.71 39.484,14.564 C39.361,14.53 39.217,14.538 39.085,14.604 C39.019,14.631 38.965,14.676 38.917,14.721 C38.917,14.692 38.925,14.663 38.925,14.631 C38.91,14.477 38.847,14.333 38.755,14.237 C38.311,13.695 38.928,12.412 38.809,12.372 C38.689,12.337 38.479,13.688 38.112,14.275 C38.038,14.386 38.001,14.53 38.017,14.687 C38.028,14.843 38.093,14.984 38.185,15.083 C38.28,15.181 38.395,15.234 38.521,15.226 C38.616,15.223 38.697,15.173 38.765,15.106 C38.765,15.16 38.775,15.218 38.802,15.274 C38.86,15.396 38.962,15.481 39.088,15.516 C39.211,15.556 39.358,15.545 39.49,15.481 C39.623,15.415 39.72,15.308 39.773,15.189 C40.061,14.548 41.046,13.68 40.959,13.587 Z M40.523,11.896 C40.374,11.79 39.899,12.973 39.334,13.281 C39.229,13.337 39.13,13.438 39.059,13.576 C38.988,13.717 38.962,13.865 38.98,13.99 C38.994,14.115 39.051,14.222 39.143,14.275 C39.238,14.331 39.35,14.328 39.458,14.272 C39.568,14.216 39.665,14.115 39.739,13.975 C39.807,13.837 39.833,13.688 39.817,13.562 C39.775,12.893 40.628,11.963 40.523,11.896 Z M30.165,42.735 L24.221,42.735 C23.816,42.735 23.452,42.703 23.116,42.643 C23.119,42.643 23.119,42.645 23.119,42.645 C24.095,44.096 25.625,45.196 27.176,45.935 C27.415,47.258 27.714,48.482 27.821,48.578 C27.931,48.674 29.453,48.235 29.501,48.095 C29.545,47.954 28.879,45.687 28.879,45.687 C29.68,44.313 29.926,43.503 30.165,42.735 Z M45.119,52.904 C43.618,53.497 41.66,53.547 40.061,53.122 C36.4,51.982 32.335,49.822 28.433,51.615 C24.53,49.822 20.465,51.982 16.804,53.122 C15.206,53.547 13.248,53.497 11.747,52.904 C11.705,52.889 11.673,52.941 11.71,52.971 C13.87,54.642 16.896,55.41 19.62,54.427 C22.237,53.611 24.449,50.84 27.548,52.022 C25.095,52.981 22.801,54.751 21.029,56.422 L22.318,57.479 C23.927,55.606 25.738,53.733 27.787,52.594 C28.068,52.429 28.236,52.362 28.433,52.352 C28.63,52.362 28.798,52.429 29.076,52.594 C31.128,53.733 32.939,55.606 34.548,57.479 L35.836,56.422 C34.065,54.751 31.771,52.981 29.317,52.022 C32.416,50.84 34.629,53.611 37.245,54.427 C39.97,55.41 42.995,54.642 45.156,52.971 C45.19,52.941 45.161,52.889 45.119,52.904 Z M20.99,50.38 C17.163,49.452 16.117,45.865 12.917,44.309 C12.883,44.29 12.847,44.33 12.868,44.361 C13.875,46.02 14.421,48.56 17.326,50.125 C17.35,50.138 17.337,50.176 17.31,50.167 C13.143,49.365 11.392,50.48 7.025,48.507 C6.989,48.49 6.95,48.53 6.973,48.565 C8.409,50.648 11.815,52.072 16.481,51.68 C18.161,51.536 19.379,50.829 20.99,50.452 C21.029,50.441 21.029,50.388 20.99,50.38 Z M12.975,48.18 C11.521,46.274 11.936,42.207 8.653,38.484 C8.626,38.455 8.579,38.479 8.587,38.516 C9.214,41.258 9.028,44.372 10.744,46.654 C10.76,46.679 10.736,46.702 10.713,46.687 C7.327,44.021 3.848,43.219 2.299,41.062 C2.275,41.032 2.228,41.048 2.233,41.085 C2.617,43.878 7.981,48.23 12.946,48.238 C12.975,48.238 12.994,48.204 12.975,48.18 Z M7.891,43.115 C6.333,40.225 8.196,35.813 6.427,31.527 C6.409,31.482 6.341,31.493 6.341,31.541 C6.288,33.882 4.834,37.376 5.713,40.015 C5.724,40.038 5.692,40.052 5.679,40.03 C3.44,36.76 1.664,36.076 0.183,33.082 C0.163,33.037 0.095,33.05 0.092,33.098 C-0.003,35.133 0.897,36.791 1.913,38.332 C3.538,40.418 5.629,42.068 7.842,43.168 C7.876,43.185 7.907,43.149 7.891,43.115 Z M6.834,25.509 C6.831,25.461 6.768,25.445 6.745,25.488 C5.556,27.712 3.438,29.481 3.37,32.418 C3.367,32.447 3.335,32.449 3.33,32.423 C2.945,30.156 1.021,27.616 0.937,24.334 C0.937,24.284 0.866,24.271 0.848,24.319 C-0.735,28.586 1.54,32.633 3.963,35.976 C3.989,36.01 4.041,35.989 4.041,35.943 C3.942,32.401 7.013,29.758 6.834,25.509 Z M8.346,19.987 C7.223,21.547 4.695,22.65 3.771,24.9 C3.758,24.933 3.719,24.924 3.724,24.887 C4.091,22.366 3.118,19.437 4.031,16.087 C4.044,16.039 3.984,16.007 3.955,16.044 C2.575,17.742 2.107,19.732 2.031,21.882 C1.937,24.523 2.866,26.45 3.325,28.241 C3.335,28.283 3.39,28.28 3.401,28.238 C4.062,25.889 7.382,24.476 8.422,20.025 C8.435,19.977 8.374,19.948 8.346,19.987 Z M11.392,14.742 C9.545,16.19 6.723,17.585 6.118,18.593 C6.107,18.614 6.076,18.598 6.081,18.577 L6.765,15.29 C7.073,13.895 7.338,12.558 8.109,11.309 C8.133,11.272 8.088,11.229 8.054,11.256 C4.538,14.041 5.052,18.069 4.897,21.367 C4.894,21.401 4.936,21.417 4.96,21.393 C7.031,19.148 10.406,17.84 11.45,14.788 C11.463,14.751 11.424,14.718 11.392,14.742 Z M14.009,9.694 C10.902,9.792 8.619,12.409 7.64,15.741 C7.634,15.76 7.661,15.776 7.676,15.765 C11.957,12.627 11.718,11.283 14.035,9.79 C14.077,9.763 14.059,9.694 14.009,9.694 Z M49.837,48.507 C45.473,50.48 43.72,49.365 39.552,50.167 C39.526,50.176 39.513,50.138 39.536,50.125 C42.442,48.56 42.988,46.02 43.995,44.361 C44.016,44.33 43.98,44.29 43.946,44.309 C40.749,45.865 39.702,49.452 35.873,50.38 C35.833,50.388 35.833,50.441 35.873,50.452 C37.484,50.829 38.702,51.536 40.382,51.68 C45.048,52.072 48.457,50.648 49.89,48.565 C49.914,48.53 49.874,48.49 49.837,48.507 Z M54.564,41.062 C53.015,43.219 49.536,44.021 46.15,46.687 C46.129,46.702 46.103,46.679 46.121,46.654 C47.835,44.372 47.649,41.258 48.276,38.516 C48.284,38.479 48.237,38.455 48.21,38.484 C44.93,42.207 45.342,46.274 43.89,48.18 C43.872,48.204 43.888,48.238 43.919,48.238 C48.885,48.23 54.246,43.878 54.63,41.085 C54.635,41.048 54.588,41.032 54.564,41.062 Z M56.771,33.098 C56.769,33.05 56.7,33.037 56.679,33.082 C55.199,36.076 53.422,36.76 51.186,40.03 C51.171,40.052 51.142,40.038 51.15,40.015 C52.029,37.376 50.577,33.882 50.522,31.541 C50.522,31.493 50.454,31.482 50.436,31.527 C48.667,35.813 50.53,40.225 48.974,43.115 C48.956,43.149 48.987,43.185 49.021,43.168 C51.234,42.068 53.325,40.418 54.95,38.332 C55.965,36.791 56.866,35.133 56.771,33.098 Z M56.015,24.319 C55.997,24.271 55.926,24.284 55.926,24.334 C55.842,27.616 53.918,30.156 53.533,32.423 C53.527,32.449 53.496,32.447 53.496,32.418 C53.428,29.481 51.307,27.712 50.118,25.488 C50.095,25.445 50.032,25.461 50.032,25.509 C49.853,29.758 52.921,32.401 52.821,35.943 C52.821,35.989 52.876,36.01 52.903,35.976 C55.322,32.633 57.598,28.586 56.015,24.319 Z M54.832,21.882 C54.756,19.732 54.288,17.742 52.908,16.044 C52.879,16.007 52.821,16.039 52.832,16.087 C53.745,19.437 52.771,22.366 53.141,24.887 C53.147,24.924 53.105,24.933 53.092,24.9 C52.168,22.65 49.64,21.547 48.518,19.987 C48.491,19.948 48.431,19.977 48.441,20.025 C49.48,24.476 52.8,25.889 53.462,28.238 C53.472,28.28 53.527,28.283 53.538,28.241 C53.997,26.45 54.926,24.523 54.832,21.882 Z M48.808,11.256 C48.774,11.229 48.73,11.272 48.753,11.309 C49.525,12.558 49.79,13.895 50.097,15.29 L50.782,18.577 C50.787,18.598 50.756,18.614 50.745,18.593 C50.139,17.585 47.321,16.19 45.471,14.742 C45.441,14.718 45.4,14.751 45.412,14.788 C46.457,17.84 49.832,19.148 51.903,21.393 C51.927,21.417 51.969,21.401 51.966,21.367 C51.811,18.069 52.326,14.041 48.808,11.256 Z M42.854,9.694 C42.804,9.694 42.789,9.763 42.827,9.79 C45.145,11.283 44.906,12.627 49.186,15.765 C49.205,15.776 49.228,15.76 49.223,15.741 C48.244,12.409 45.961,9.792 42.854,9.694 Z" id="Fill-19"></path>
        </g>
    </g>
</svg>