<svg width="57" height="95" xmlns="http://www.w3.org/2000/svg"><path d="M12.912 94.333l-1.77-5.769h-.045c.063 1.174.095 1.957.095 2.349v3.42H9.799V86.98h2.123l1.74 5.623h.03l1.846-5.623h2.122v7.353h-1.454v-3.48c0-.164.003-.354.008-.569.005-.214.028-.784.068-1.71h-.045l-1.896 5.759h-1.429m7.279-2.821c0 .556.092.977.276 1.262.181.285.48.427.892.427.408 0 .703-.141.883-.425.18-.283.269-.705.269-1.264 0-.557-.091-.974-.271-1.253-.182-.277-.479-.417-.891-.417-.41 0-.705.138-.884.415-.182.276-.274.695-.274 1.255zm3.889 0c0 .915-.242 1.631-.725 2.147-.482.517-1.154.775-2.015.775-.541 0-1.018-.119-1.43-.355a2.359 2.359 0 0 1-.95-1.018c-.221-.443-.332-.959-.332-1.549 0-.919.24-1.633.719-2.143.479-.51 1.153-.765 2.022-.765.539 0 1.016.118 1.428.353.412.234.73.571.951 1.011.221.439.332.954.332 1.544zm6.005 2.821h-1.534v-3.284c0-.405-.073-.71-.216-.913-.145-.202-.374-.304-.69-.304-.428 0-.739.144-.93.43-.191.287-.286.761-.286 1.426v2.645h-1.535V88.71h1.172l.206.72h.086c.171-.272.406-.478.706-.617.3-.139.642-.209 1.024-.209.654 0 1.15.177 1.489.531.338.354.508.864.508 1.532v3.666m3.465-1.121c.392 0 .679-.114.862-.343.182-.227.283-.615.3-1.161v-.166c0-.604-.093-1.036-.28-1.298-.186-.262-.488-.392-.908-.392a.9.9 0 0 0-.797.435c-.189.29-.284.712-.284 1.265 0 .553.096.968.287 1.245.191.276.464.415.82.415zm-.538 1.222c-.661 0-1.18-.257-1.557-.77s-.566-1.224-.566-2.133c0-.922.192-1.639.576-2.154.384-.515.913-.773 1.586-.773.709 0 1.249.276 1.621.826h.05a6.194 6.194 0 0 1-.116-1.122v-1.8h1.539v7.825h-1.177l-.296-.729h-.066c-.348.553-.881.83-1.594.83zm4.252-.101h1.534V88.71h-1.534v5.623zm-.065-7.076c0-.5.278-.749.835-.749.557 0 .835.249.835.749 0 .238-.069.423-.209.555-.139.133-.348.199-.626.199-.557 0-.835-.251-.835-.754zm5.832 4.471l-.594.02c-.445.014-.777.094-.995.241-.219.148-.327.372-.327.674 0 .433.248.65.744.65.356 0 .64-.103.853-.308.213-.204.319-.476.319-.814v-.463zm.452 2.605l-.296-.765h-.041c-.257.326-.523.551-.797.677-.273.126-.629.189-1.068.189-.54 0-.965-.155-1.275-.463-.31-.309-.465-.747-.465-1.318 0-.596.209-1.037.626-1.32.418-.283 1.047-.44 1.888-.471l.976-.029v-.247c0-.569-.292-.855-.875-.855-.449 0-.978.136-1.584.408l-.509-1.036a4.575 4.575 0 0 1 2.154-.508c.754 0 1.332.164 1.734.493.402.328.603.828.603 1.498v3.747h-1.071zm2.167 0h1.534v-7.825H45.65zM4.672 79.937a571.238 571.238 0 0 1-.833-2.691 7.844 7.844 0 0 1-.133-.493c-.111.429-.427 1.49-.951 3.184h1.917zm.905 3.057l-.533-1.75H2.363l-.533 1.75H.15l2.595-7.383h1.906l2.606 7.383h-1.68zm2.191 0h1.534v-7.825H7.768zm2.658 0h1.534v-5.623h-1.534v5.623zm-.065-7.076c0-.5.278-.749.835-.749.556 0 .834.249.834.749 0 .238-.069.423-.208.556-.14.132-.348.198-.626.198-.557 0-.835-.251-.835-.754zm7.757 7.076h-1.533V79.71c0-.405-.068-.71-.204-.913-.136-.202-.35-.304-.642-.304-.392 0-.677.144-.854.433-.178.288-.267.762-.267 1.423v2.645h-1.534v-5.623h1.172l.206.72h.086c.15-.259.369-.46.653-.607.286-.145.612-.218.981-.218.842 0 1.412.275 1.71.825h.136c.151-.262.373-.465.667-.609a2.22 2.22 0 0 1 .992-.216c.637 0 1.119.164 1.448.49.326.327.49.851.49 1.572v3.666h-1.539V79.71c0-.405-.069-.71-.205-.913-.135-.202-.349-.304-.641-.304-.376 0-.656.134-.842.402-.186.268-.28.694-.28 1.278v2.821m6.96-4.637c-.325 0-.58.103-.764.309-.184.207-.29.499-.317.878h2.152c-.007-.379-.105-.671-.296-.878-.191-.206-.45-.309-.775-.309zm.217 4.738c-.906 0-1.614-.25-2.122-.749-.51-.5-.765-1.207-.765-2.123 0-.942.235-1.67.706-2.185.472-.515 1.123-.772 1.954-.772.795 0 1.413.226 1.856.678.443.454.664 1.078.664 1.876v.746h-3.626c.016.435.145.775.387 1.02.242.245.581.367 1.016.367.339 0 .659-.035.961-.105a4.86 4.86 0 0 0 .945-.337v1.186a3.532 3.532 0 0 1-.86.3 5.376 5.376 0 0 1-1.116.098zm8.328-.101h-1.534V79.71c0-.405-.073-.71-.216-.913-.145-.202-.374-.304-.69-.304-.428 0-.739.144-.93.43-.191.287-.286.762-.286 1.426v2.645h-1.535v-5.623h1.172l.206.72h.086a1.61 1.61 0 0 1 .706-.616c.3-.14.642-.209 1.024-.209.654 0 1.15.176 1.489.53.338.354.508.864.508 1.532v3.666m3.454-1.121c.268 0 .59-.059.965-.177v1.142c-.382.171-.852.257-1.408.257-.614 0-1.06-.156-1.34-.465-.28-.311-.42-.776-.42-1.396v-2.71h-.735v-.65l.845-.513.442-1.186h.982v1.196h1.574v1.153h-1.574v2.71c0 .218.06.379.184.483a.728.728 0 0 0 .485.156m4.871-1.484l-.594.02c-.445.014-.777.094-.995.241-.219.148-.327.373-.327.674 0 .433.248.65.744.65.356 0 .64-.103.853-.308.213-.204.319-.476.319-.814v-.463zm.452 2.605l-.296-.765h-.041c-.257.326-.523.551-.797.677-.273.126-.628.189-1.068.189-.54 0-.965-.155-1.275-.463-.31-.309-.465-.747-.465-1.318 0-.596.209-1.037.626-1.32.418-.283 1.047-.44 1.888-.471l.976-.029v-.247c0-.569-.292-.854-.875-.854-.449 0-.977.135-1.584.407l-.509-1.036a4.575 4.575 0 0 1 2.154-.508c.753 0 1.332.164 1.734.493.402.328.604.828.604 1.498v3.747H42.4zm2.156 0h1.534v-5.623h-1.534v5.623zm-.065-7.076c0-.5.278-.749.835-.749.557 0 .835.249.835.749 0 .238-.069.423-.209.556-.139.132-.348.198-.626.198-.557 0-.835-.251-.835-.754zm5.862 1.348c.207 0 .38.015.518.045l-.115 1.438a1.789 1.789 0 0 0-.453-.05c-.49 0-.872.126-1.145.377-.273.252-.409.604-.409 1.057v2.861h-1.534v-5.623h1.162l.225.945h.076c.174-.314.41-.568.707-.761.296-.193.619-.289.968-.289m3.407 1.091c-.325 0-.579.103-.763.309-.185.207-.29.499-.317.878h2.152c-.007-.379-.106-.671-.296-.878-.191-.206-.45-.309-.776-.309zm.217 4.738c-.905 0-1.613-.25-2.122-.749-.509-.5-.764-1.207-.764-2.123 0-.942.235-1.67.706-2.185.471-.515 1.123-.772 1.954-.772.795 0 1.413.226 1.855.678.444.454.664 1.078.664 1.876v.746h-3.626c.017.435.146.775.388 1.02.241.245.58.367 1.016.367.339 0 .659-.035.961-.105.301-.071.616-.183.945-.337v1.186a3.554 3.554 0 0 1-.861.3 5.362 5.362 0 0 1-1.116.098zM2.535 67.764h.513c.48 0 .838-.095 1.076-.285.238-.189.357-.464.357-.827 0-.365-.099-.635-.299-.809-.199-.175-.512-.262-.938-.262h-.709v2.183zm3.521-1.167c0 .791-.248 1.396-.742 1.815-.495.419-1.198.629-2.11.629h-.669v2.615H.976v-7.352h2.349c.892 0 1.57.191 2.034.575.464.385.697.957.697 1.718zm3.891-.669c.208 0 .38.015.518.045l-.116 1.438a1.78 1.78 0 0 0-.452-.05c-.49 0-.871.126-1.144.377-.274.252-.41.604-.41 1.057v2.861H6.809v-5.623H7.97l.227.946h.075c.175-.315.41-.569.707-.762.297-.192.619-.289.968-.289m2.306 2.907c0 .557.091.978.274 1.263.183.284.481.427.893.427.409 0 .703-.142.882-.425.18-.284.27-.705.27-1.265 0-.557-.091-.974-.272-1.253-.181-.277-.478-.417-.89-.417-.409 0-.704.139-.885.415-.181.276-.272.695-.272 1.255zm3.888 0c0 .915-.242 1.631-.724 2.148-.483.516-1.156.774-2.017.774-.54 0-1.016-.118-1.429-.355a2.359 2.359 0 0 1-.95-1.018c-.221-.443-.332-.959-.332-1.549 0-.919.239-1.633.719-2.143.479-.509 1.154-.764 2.022-.764.54 0 1.016.117 1.428.352.413.235.73.572.951 1.011.221.44.332.954.332 1.544zm1.953-.961c0 .306.07.547.209.725.139.177.351.266.636.266.288 0 .5-.089.634-.266.134-.178.2-.419.2-.725 0-.677-.278-1.016-.834-1.016-.563 0-.845.339-.845 1.016zm-.558 4.577c0 .211.102.377.304.498.203.12.487.181.853.181.55 0 .981-.075 1.292-.227.312-.15.468-.356.468-.618 0-.212-.092-.357-.277-.437-.184-.081-.469-.121-.854-.121h-.795c-.282 0-.517.066-.707.199a.61.61 0 0 0-.284.525zm4.341-6.418v.781l-.881.225c.16.252.242.533.242.846 0 .603-.211 1.073-.631 1.41-.422.337-1.006.506-1.753.506l-.277-.016-.226-.025c-.158.121-.237.255-.237.402 0 .222.282.332.845.332h.956c.616 0 1.087.133 1.411.398.322.264.484.654.484 1.167 0 .657-.273 1.167-.822 1.529-.547.361-1.335.543-2.361.543-.784 0-1.384-.137-1.798-.41-.414-.274-.621-.657-.621-1.15a1.2 1.2 0 0 1 .317-.849c.211-.228.521-.391.93-.489a1.013 1.013 0 0 1-.412-.329.783.783 0 0 1-.176-.485c0-.215.062-.393.186-.535a2.14 2.14 0 0 1 .538-.42 1.514 1.514 0 0 1-.702-.614 1.875 1.875 0 0 1-.258-.996c0-.614.199-1.087.598-1.423.399-.335.969-.503 1.71-.503a4.3 4.3 0 0 1 .561.043c.217.028.354.05.415.062h1.962zm3.637-.105c.208 0 .38.015.518.045l-.115 1.438a1.789 1.789 0 0 0-.453-.05c-.49 0-.871.126-1.145.377-.272.252-.409.604-.409 1.057v2.861h-1.534v-5.623h1.162l.225.946h.077a2.11 2.11 0 0 1 .706-.762c.297-.192.619-.289.968-.289m4.103 3.123l-.594.02c-.445.014-.777.094-.995.241-.219.148-.327.373-.327.674 0 .433.248.65.744.65.356 0 .64-.103.853-.308.213-.204.319-.475.319-.814v-.463zm.452 2.605l-.296-.764h-.041c-.258.325-.523.55-.797.676-.273.126-.629.189-1.068.189-.54 0-.965-.154-1.275-.463-.31-.309-.465-.747-.465-1.317 0-.597.209-1.038.626-1.321.418-.283 1.047-.44 1.888-.47l.976-.03v-.247c0-.569-.292-.854-.875-.854-.449 0-.978.135-1.584.407l-.509-1.036a4.571 4.571 0 0 1 2.153-.508c.754 0 1.333.164 1.735.493.402.328.603.828.603 1.498v3.747h-1.071zm7.198 0h-1.534v-3.284c0-.405-.067-.71-.203-.913-.136-.202-.349-.304-.641-.304-.392 0-.677.144-.855.433-.178.288-.267.763-.267 1.423v2.645h-1.534v-5.623h1.172l.206.72h.086c.15-.259.368-.46.653-.607.285-.145.613-.218.981-.218.842 0 1.412.275 1.71.825h.135c.152-.262.374-.465.667-.608.293-.145.625-.217.994-.217.636 0 1.119.164 1.446.49.326.327.49.852.49 1.572v3.666h-1.539v-3.284c0-.405-.068-.71-.204-.913-.136-.202-.35-.304-.641-.304-.375 0-.656.134-.842.403-.187.267-.28.693-.28 1.277v2.821m9.632 0h-1.534v-3.284c0-.405-.067-.71-.203-.913-.136-.202-.35-.304-.642-.304-.391 0-.677.144-.854.433-.178.288-.267.763-.267 1.423v2.645h-1.534v-5.623h1.172l.206.72h.086c.15-.259.368-.46.653-.607.285-.145.613-.218.981-.218.841 0 1.412.275 1.71.825h.135c.152-.262.373-.465.667-.608.293-.145.624-.217.993-.217.637 0 1.12.164 1.447.49.326.327.49.852.49 1.572v3.666h-1.539v-3.284c0-.405-.068-.71-.204-.913-.136-.202-.35-.304-.641-.304-.376 0-.656.134-.843.403-.186.267-.279.693-.279 1.277v2.821m6.96-4.636c-.325 0-.58.102-.764.308-.184.207-.289.499-.317.878h2.152c-.006-.379-.105-.671-.295-.878-.192-.206-.451-.308-.776-.308zm.217 4.737c-.905 0-1.613-.25-2.122-.749-.51-.5-.765-1.207-.765-2.123 0-.942.236-1.67.706-2.185.472-.514 1.123-.772 1.954-.772.795 0 1.413.226 1.856.678.443.454.664 1.079.664 1.876v.746h-3.626c.017.435.146.775.388 1.02.241.245.58.367 1.015.367.339 0 .66-.035.961-.105.302-.071.616-.183.946-.337v1.186a3.554 3.554 0 0 1-.861.3 5.376 5.376 0 0 1-1.116.098zM35.847 4.482h.548c.512 0 .895-.101 1.149-.303.254-.202.382-.497.382-.884 0-.39-.107-.678-.32-.864-.213-.186-.547-.28-1.002-.28h-.757v2.331zm3.76-1.246c0 .845-.264 1.492-.793 1.939-.528.448-1.279.672-2.253.672h-.714V8.64h-1.665V.787h2.508c.952 0 1.677.205 2.173.615.496.411.744 1.021.744 1.834zM30.071 8.64h-1.638V.787h4.5v1.364h-2.862v2.026h2.664v1.358h-2.664V8.64zm-4.525 0H23.65l-1.064-4.126c-.04-.146-.107-.45-.201-.91a9.914 9.914 0 0 1-.164-.926c-.022.194-.076.504-.161.932-.086.427-.153.733-.199.915L20.803 8.64h-1.891L16.909.787h1.638l1.004 4.286c.176.791.303 1.477.382 2.057.021-.204.07-.52.147-.947a10.5 10.5 0 0 1 .218-.997L21.442.787h1.573l1.145 4.399c.05.197.113.498.188.902.075.405.132.752.172 1.042.035-.279.093-.628.171-1.045.079-.416.151-.754.215-1.012l.999-4.286h1.638L25.546 8.64zm-4.073 27.312c-3.051 0-5.01.725-5.544.949-.032.014-.057-.031-.033-.055 3.353-3.486 7.278-3.293 8.222-3.293H35.28c.562 0 1.018.537 1.018 1.2 0 .662-.456 1.199-1.018 1.199H21.473zm2.514 3.085c-3.287 0-4.246-1.868-9.222-.635-.034.009-.057-.038-.027-.057 2.773-1.904 5.791-1.731 7.01-1.731H35.28c.562 0 1.018.537 1.018 1.199 0 .663-.456 1.2-1.018 1.2 0 0-8.689.024-11.293.024zm.234 3.037c-3.375 0-3.645-2.49-8.647-3.051-.035-.003-.039-.055-.004-.064 4.108-1.027 5.637.716 8.037.716H35.28c.562 0 1.018.537 1.018 1.199 0 .663-.456 1.2-1.018 1.2H24.221zm-.732-9.182c-2.717 0-4.969 1.184-5.496 1.483-.029.017-.059-.019-.04-.046.441-.648 2.82-3.837 6.911-3.837H35.28c.562 0 1.018.537 1.018 1.2 0 .662-.456 1.2-1.018 1.2H23.489zm14.94-6.625a.741.741 0 0 0-.443-.205.733.733 0 0 0-.363.042c.048-.098.087-.204.103-.329a.861.861 0 0 0-.084-.513c-.336-.736.624-2.208.504-2.275-.116-.063-.662 1.56-1.192 2.217a.93.93 0 0 0-.199.488.913.913 0 0 0 .087.513c.073.133.186.226.317.234a.294.294 0 0 0 .107-.005.322.322 0 0 0-.018.058.455.455 0 0 0 .142.388.71.71 0 0 0 .441.207.776.776 0 0 0 .493-.092c.719-.394 2.21-.782 2.178-.92-.029-.138-1.482.715-2.073.192zm1.1-1.074a.63.63 0 0 0-.407-.199.642.642 0 0 0-.268.042c.014-.045.032-.085.037-.13a.721.721 0 0 0-.102-.463c-.365-.677.588-1.955.464-2.019-.123-.064-.645 1.368-1.176 1.934a.683.683 0 0 0-.196.426.768.768 0 0 0 .099.465.5.5 0 0 0 .339.228.503.503 0 0 0 .178-.021c-.002.008-.01.019-.008.026a.527.527 0 0 0 .14.399.628.628 0 0 0 .404.194.613.613 0 0 0 .433-.117c.619-.446 2.036-.712 2-.855-.035-.139-1.391.611-1.937.09zm.963-.994a.552.552 0 0 0-.389-.103.535.535 0 0 0-.196.05c.01-.029.028-.053.039-.083a.7.7 0 0 0-.023-.43c-.231-.664.792-1.647.693-1.727-.101-.074-.765 1.116-1.31 1.536a.64.64 0 0 0-.231.354.632.632 0 0 0 .021.427.433.433 0 0 0 .265.255.383.383 0 0 0 .27-.026.393.393 0 0 0-.023.17c.013.135.078.25.186.329.102.08.241.12.385.109a.585.585 0 0 0 .368-.175c.491-.497 1.714-.962 1.664-1.082-.052-.119-1.152.765-1.719.396zm1.895-2.134c-.102-.151-.958.787-1.591.877a.67.67 0 0 0-.359.178.696.696 0 0 0-.22.361.378.378 0 0 0 .054.325.332.332 0 0 0 .3.109.654.654 0 0 0 .364-.181.736.736 0 0 0 .216-.356c.191-.643 1.312-1.214 1.236-1.313zm-17.694 1.27c-.026.094-.21.816-.21.816-.052.03-.273-.018-.331-.024-.422-.04-.8-.406-.638-.845.133-.358.404-.396.749-.411.142-.007.399.027.528.116 0 0-.051.165-.098.348zm-.486 2.182c-.012.083-.026.165-.039.247-.262-.164-.417-.542-.291-.84.097-.225.338-.285.514-.295a49.8 49.8 0 0 0-.184.888zm-.378 2.697c-.032.185-.283.21-.453.261-.496.148-.966.085-1.118-.508-.166-.635.315-.901.829-1.026.281-.066.541-.01.732.226.048.059.105.112.118.168 0 0-.076.705-.108.879zm-1.561-3.122c.383-.093.78-.237 1.074.141.309.395.207 1.031-.292 1.198-.328.111-.724.207-1.005-.061-.368-.351-.341-1.148.223-1.278zm-.375-2.057c.404-.098.821-.247 1.131.149.323.415.215 1.084-.307 1.259-.347.115-.764.216-1.058-.066-.386-.367-.357-1.204.234-1.342zm-.376 4.445c-.105.37-.409.426-.729.503-.21-.258-.774-.909-.783-.986a.2.2 0 0 1 .011-.09c.027-.077.116-.152.181-.194.192-.125.601-.218.822-.173.396.085.603.569.498.94zm-2.004-1.899c-.289-1.023 1.427-1.47 1.692-.465.273 1.031-1.459 1.469-1.692.465zm-.253-2.043c-.293-1.018 1.431-1.465 1.696-.466.273 1.034-1.462 1.472-1.696.466zm-.241-2.009c-.281-.949 1.339-1.369 1.585-.433.255.962-1.365 1.376-1.585.433zm-.165 3.866c-.08.047-.11.072-.136.072l-.771-.838c.009-.023.248-.196.327-.241.64-.356 1.168.661.58 1.007zm-1.462-1.887c-.381-.84 1.005-1.751 1.425-.845.386.835-1 1.762-1.425.845zm1.165-2.659c.438.778-.881 1.647-1.259.81-.336-.723.837-1.565 1.259-.81zm-1.108-1.815c.195-.172.42-.266.651-.155.371.179.381.734.058.954-.147.102-.396.226-.577.181-.397-.101-.472-.679-.132-.98zm.05-1.669c.16-.108.373-.205.557-.13.334.136.323.621.052.815-.123.088-.346.197-.495.157-.339-.085-.422-.633-.114-.842zm.887-2.378c.199-.108.486-.152.665.048a.468.468 0 0 1-.134.733c-.213.107-.499.146-.667-.051a.48.48 0 0 1 .136-.73zm-.157 1.806c-.16-.595.843-.876 1.005-.271.181.588-.845.88-1.005.271zm1.617 1.04c.233.643-.856 1.007-1.068.372-.218-.643.876-1.01 1.068-.372zm.136-3.133c.208-.084.474-.173.706 0 .289.216.226.701-.105.853-.218.098-.496.164-.69-.008-.247-.221-.26-.705.089-.845zm-.191 5.381c-.294.068-.601.186-.845-.067-.313-.322-.224-.885.199-1.039.273-.103.619-.162.843.066.286.293.254.931-.197 1.04zm.005-3.285c-.189-.637.85-.964 1.05-.345.204.635-.872.972-1.05.345zm1.74 1.169c.244.728-.987 1.117-1.213.399-.228-.733 1.011-1.121 1.213-.399zm.065-1.95c.217-.058.447-.037.612.141.252.271.165.733-.207.802-.176.032-.447.019-.583-.101-.247-.217-.235-.731.178-.842zm1.05 1.528c.397 0 .596.582.365.872-.139.175-.438.186-.643.154-.378-.059-.619-.545-.365-.875.155-.199.42-.151.643-.151zm-1.903 2.397c-.243-.837 1.179-1.212 1.397-.38.22.845-1.21 1.217-1.397.38zm.872 1.071c.388-.04.792-.131 1.031.276.25.43.063 1.028-.441 1.129-.33.069-.732.101-.968-.191-.31-.388-.187-1.162.378-1.214zm1.974-1.865c.48.198.643.765.304 1.081-.181.165-.512.132-.735.087-.446-.087-.737-.758-.346-1.076.2-.163.559-.182.777-.092zm.755 2.019c.302.369.189 1.022-.338 1.055-.276.015-.635-.016-.822-.242-.299-.362-.186-1.039.341-1.058.276-.01.633.019.819.245zm2.04-6.665a.121.121 0 0 0-.134-.05c-.063.021-.105.091-.082.152 1.205 3.236-.333 4.83-.976 7.097-.772-1.842 1.785-3.574.467-6.93a.135.135 0 0 0-.1-.085c-.065-.008-.128.019-.139.106-.034.237-.189 2.097-1.698 3.186a2.987 2.987 0 0 0-.703-1.02c-.139-.627-.549-1.488-1.409-1.743-.129-.324-.389-.79-.888-1.039-.469-.234-1.012-.213-1.616.061-.73.085-1.231.369-1.496.845-.25.449-.205.938-.121 1.27-.614.656-.643 1.629-.627 2.009-.365.876-.16 1.9-.045 2.325-.435 1.19-.01 2.346.161 2.729 0 .103.005.202.01.3-1.428-1.563-4.677-3.497-5.918-4.235a.148.148 0 0 0-.181.021.152.152 0 0 0-.008.217c2.769 2.7 5.238 6.032 7.611 12.946 1.184-1.23 3.322-2.849 6.367-2.849h3.561c-2.262-8.428 1.031-11.444-2.036-15.313zm16.835 4.358c-.651-.17-4.808-.906-9.466 7.663.679-3.191 2.745-7.052 3.312-8.173v-.008a.155.155 0 0 0-.042-.191.135.135 0 0 0-.189.034c-3.078 5.134-4.16 8.091-4.798 11.63h1.93c.327-3.411 4.637-11.449 9.23-10.851h.004a.046.046 0 0 0 .053-.04.05.05 0 0 0-.034-.064zm-9.262 28.233l-1.041-4.356h-1.775c.281 1.106.683 2.23 1.202 3.215.035.059.098.094.161.083a.163.163 0 0 0 .133-.189c-.12-.922-.265-1.812-.401-2.699.375 1.394.881 2.757 1.564 4.012.019.039.058.058.094.045.051-.011.076-.063.063-.111zm1.793-1.978c-.181-.727-.37-1.621-.533-2.378h-.674c.262.808.616 1.709.931 2.48.032.074.103.111.171.093a.161.161 0 0 0 .105-.195zm.226 2.562l-.006-.011c-.217-.608-.519-1.153-.758-1.737a23.043 23.043 0 0 1-.706-1.759 21.56 21.56 0 0 1-.491-1.433h-.651c.184.545.423 1.132.646 1.659.491 1.187 1.057 2.351 1.779 3.392a.103.103 0 0 0 .124.035c.057-.021.084-.088.063-.146zm.973-20.901c-.049-.074-.17-.09-.228-.029a13.347 13.347 0 0 0-2.147 3.068h.704c.351-.826 1.143-2.285 1.653-2.81l.005-.006c.052-.059.063-.157.013-.223zM31.6 20.729c.651-1.068 1.617-1.887 2.436-2.875a.099.099 0 0 0-.008-.128.083.083 0 0 0-.118-.002c-.187.199-.38.385-.58.571-.087-.043-.307.042-.53.218-.176.138-.302.292-.347.403-.112-.026-.325.107-.517.352-.157.204-.249.42-.246.552-.121.011-.297.165-.447.409-.097.163-.16.319-.181.449a1.263 1.263 0 0 0-.309.354c-.134.223-.202.449-.181.579-.032.056-.063.109-.089.165l.015-.133c.192-1.512.47-3.011.892-4.456.426-1.44.935-2.893 1.808-4.06l.006-.005a.166.166 0 0 0-.016-.21.137.137 0 0 0-.204-.003c-.302.321-.557.68-.785 1.049-.1-.053-.31.144-.47.452-.147.279-.199.537-.144.636 0 0-.003.007-.008.005-.105-.046-.299.188-.417.502-.116.295-.137.566-.058.656-.005.005-.005.008-.008.013-.118-.042-.309.226-.428.606-.097.322-.108.601-.037.713.006.004 0 .018-.005.015-.121-.042-.304.234-.412.611-.108.364-.099.686.003.749-.119-.013-.284.264-.37.638-.079.324-.071.604.005.715-.115.035-.244.306-.31.656-.063.343-.031.628.053.718-.108.056-.218.335-.257.68-.04.343.01.625.099.715-.089.101-.175.34-.212.627-.037.273-.013.51.039.643-.097.083-.17.359-.173.691-.008.266.031.491.1.622-.053.132-.09.327-.09.542-.005.279.04.518.111.643-.021.98-.008 2.025.044 3.007h2.118a30.77 30.77 0 0 1 .142-2.356c.149-1.35.373-2.721 1.047-3.874l.005-.008a.113.113 0 0 0-.013-.128.09.09 0 0 0-.131.008c-.916 1.063-1.318 2.506-1.554 3.89-.042.271-.076.545-.107.816.057-1.111.16-2.216.414-3.268.292-1.281.874-2.501 1.984-3.184a.095.095 0 0 0 .039-.111.09.09 0 0 0-.109-.067c-.071.022-.137.059-.205.088-.074-.09-.344-.024-.622.154-.265.173-.441.385-.423.502 0 .006-.013.014-.013.003-.002-.013-.005-.027-.013-.034-.1-.083-.367.103-.593.419-.228.316-.318.646-.221.731.006.002.003.011-.002.011-.118-.048-.315.22-.439.595-.089.263-.109.505-.078.643 0 .005-.006.01-.006.01-.091.304-.168.609-.238.92.026-.439.065-.88.128-1.315.187-1.255.565-2.482 1.236-3.529zm6.664-3.497a.74.74 0 0 0-.486-.037.8.8 0 0 0-.325.17.904.904 0 0 0-.019-.345.83.83 0 0 0-.252-.45c-.571-.571-.178-2.29-.312-2.311-.131-.019-.084 1.695-.354 2.497a.928.928 0 0 0-.019.529.89.89 0 0 0 .261.452c.112.098.249.143.377.103a.227.227 0 0 0 .097-.042c0 .021 0 .042.003.064.029.14.129.25.265.313a.71.71 0 0 0 .488.037.777.777 0 0 0 .428-.26c.538-.624 1.803-1.515 1.727-1.634-.076-.117-1.144 1.196-1.879.914zm2.446-2.166c-.082-.116-1.094 1.066-1.785.771a.635.635 0 0 0-.451-.043.68.68 0 0 0-.236.133c-.003-.048 0-.09-.011-.133a.702.702 0 0 0-.255-.398c-.577-.505-.123-2.041-.259-2.057-.139-.016-.137 1.512-.436 2.23a.681.681 0 0 0-.036.467.717.717 0 0 0 .254.401.488.488 0 0 0 .394.094.488.488 0 0 0 .16-.083c0 .008-.003.019 0 .027.042.146.141.26.27.327a.64.64 0 0 0 .446.037.634.634 0 0 0 .365-.26c.427-.641 1.661-1.39 1.58-1.513zm.249-1.479c-.089-.093-.816 1.123-1.475.977a.561.561 0 0 0-.399.04.575.575 0 0 0-.168.117c0-.029.008-.058.008-.09a.672.672 0 0 0-.17-.394c-.444-.542.173-1.825.055-1.865-.121-.035-.331 1.316-.698 1.903a.625.625 0 0 0-.095.412.654.654 0 0 0 .168.396c.095.098.21.151.336.143a.37.37 0 0 0 .244-.12.4.4 0 0 0 .037.168c.058.122.16.207.286.242.123.04.27.029.401-.035a.595.595 0 0 0 .284-.292c.288-.641 1.273-1.509 1.186-1.602zm-.436-1.691c-.149-.106-.624 1.077-1.188 1.385a.685.685 0 0 0-.276.295.715.715 0 0 0-.079.414c.013.125.071.232.163.285a.316.316 0 0 0 .315-.003.677.677 0 0 0 .281-.297.757.757 0 0 0 .079-.413c-.042-.669.81-1.599.705-1.666zM30.165 42.735h-5.944a6.268 6.268 0 0 1-1.103-.09c.976 1.451 2.507 2.551 4.058 3.29.238 1.323.538 2.547.646 2.643.109.096 1.632-.343 1.679-.483.045-.141-.622-2.408-.622-2.408.801-1.374 1.047-2.184 1.286-2.952zm14.954 10.169c-1.501.593-3.459.643-5.058.218-3.66-1.14-7.726-3.3-11.628-1.507-3.903-1.793-7.968.367-11.629 1.507-1.598.425-3.556.375-5.057-.218a.039.039 0 0 0-.037.067c2.16 1.671 5.186 2.439 7.91 1.456 2.617-.816 4.829-3.587 7.929-2.405-2.454.959-4.748 2.729-6.519 4.4l1.288 1.057c1.608-1.873 3.42-3.746 5.469-4.885.281-.165.449-.232.646-.242.197.01.365.077.643.242 2.052 1.139 3.863 3.012 5.472 4.885l1.288-1.057c-1.771-1.671-4.065-3.441-6.519-4.4 3.1-1.182 5.312 1.589 7.928 2.405 2.725.983 5.75.215 7.91-1.456.035-.03.006-.082-.036-.067zM20.99 50.38c-3.827-.928-4.873-4.515-8.073-6.071-.034-.019-.071.021-.049.052 1.007 1.659 1.553 4.199 4.458 5.764.024.013.011.051-.016.042-4.167-.802-5.918.313-10.284-1.66-.037-.017-.077.023-.053.058 1.435 2.083 4.842 3.507 9.508 3.115 1.68-.144 2.898-.851 4.509-1.228.04-.011.04-.064 0-.072zm-8.015-2.2c-1.454-1.906-1.039-5.973-4.322-9.696-.027-.029-.074-.005-.066.032.627 2.742.441 5.856 2.157 8.138.016.025-.007.048-.031.033-3.386-2.666-6.866-3.468-8.414-5.625-.024-.03-.071-.014-.066.023.383 2.793 5.748 7.145 10.713 7.153a.036.036 0 0 0 .029-.058zm-5.084-5.065c-1.558-2.89.305-7.302-1.464-11.588-.018-.045-.086-.034-.086.014-.053 2.341-1.507 5.835-.628 8.474.011.023-.021.037-.034.015-2.238-3.27-4.015-3.954-5.495-6.948-.021-.045-.089-.032-.092.016-.095 2.035.806 3.693 1.821 5.234a17.39 17.39 0 0 0 5.929 4.836c.034.017.065-.019.049-.053zM6.834 25.509c-.003-.048-.066-.064-.089-.021-1.189 2.224-3.307 3.993-3.375 6.93-.003.029-.034.031-.04.005-.385-2.267-2.309-4.807-2.393-8.089 0-.05-.071-.063-.09-.015-1.582 4.267.693 8.314 3.116 11.657.026.034.079.013.079-.033-.1-3.542 2.97-6.185 2.792-10.434zm1.511-5.522c-1.123 1.56-3.65 2.663-4.574 4.913-.013.033-.052.024-.047-.013.368-2.521-.606-5.45.307-8.8.013-.048-.047-.08-.076-.043-1.381 1.698-1.848 3.688-1.923 5.838-.095 2.641.834 4.568 1.293 6.359.011.042.066.039.076-.003.662-2.349 3.982-3.762 5.021-8.213.013-.048-.048-.077-.077-.038zm3.047-5.245c-1.847 1.448-4.668 2.843-5.274 3.851-.011.021-.043.005-.037-.016l.685-3.287c.306-1.395.572-2.732 1.344-3.981.023-.037-.022-.08-.056-.053-3.517 2.785-3.002 6.813-3.157 10.111-.003.034.039.05.063.026 2.071-2.245 5.446-3.553 6.49-6.605.013-.037-.026-.07-.058-.046zm2.617-5.048c-3.107.098-5.391 2.715-6.37 6.047-.004.019.021.035.038.024 4.28-3.138 4.041-4.482 6.358-5.975.042-.027.024-.096-.026-.096zm35.829 38.813c-4.365 1.973-6.118.858-10.285 1.66-.027.009-.04-.029-.016-.042 2.905-1.565 3.451-4.105 4.458-5.764.021-.031-.015-.071-.049-.052-3.197 1.556-4.244 5.143-8.073 6.071-.039.008-.039.061 0 .072 1.611.377 2.829 1.084 4.509 1.228 4.666.392 8.075-1.032 9.508-3.115.023-.035-.016-.075-.052-.058zm4.726-7.445c-1.549 2.157-5.029 2.959-8.414 5.625-.021.015-.047-.008-.029-.033 1.714-2.282 1.528-5.396 2.155-8.138.008-.037-.039-.061-.066-.032-3.28 3.723-2.868 7.79-4.32 9.696a.036.036 0 0 0 .029.058c4.966-.008 10.327-4.36 10.711-7.153.005-.037-.042-.053-.066-.023zm2.207-7.964c-.003-.048-.071-.061-.092-.016-1.48 2.994-3.257 3.678-5.493 6.948-.015.022-.044.008-.036-.015.879-2.639-.573-6.133-.628-8.474 0-.048-.068-.059-.086-.014-1.769 4.286.094 8.698-1.462 11.588-.018.034.013.07.047.053a17.38 17.38 0 0 0 5.929-4.836c1.016-1.541 1.915-3.199 1.821-5.234zm-.756-8.779c-.018-.048-.089-.035-.089.015-.084 3.282-2.008 5.822-2.393 8.089-.006.026-.037.024-.037-.005-.068-2.937-2.189-4.706-3.378-6.93a.045.045 0 0 0-.086.021c-.179 4.249 2.889 6.892 2.79 10.434 0 .046.054.067.081.033 2.419-3.343 4.695-7.39 3.112-11.657zm-1.183-2.437c-.076-2.15-.544-4.14-1.924-5.838-.029-.037-.086-.005-.076.043.913 3.35-.061 6.279.309 8.8.006.037-.036.046-.049.013-.924-2.25-3.452-3.353-4.575-4.913-.026-.039-.086-.01-.076.038 1.039 4.451 4.36 5.864 5.021 8.213.01.042.065.045.076.003.459-1.791 1.388-3.718 1.294-6.359zm-6.023-10.626c-.034-.027-.079.016-.055.053.771 1.249 1.036 2.586 1.343 3.981l.685 3.287c.005.021-.026.037-.037.016-.606-1.008-3.424-2.403-5.275-3.851-.028-.024-.07.009-.057.046 1.044 3.052 4.419 4.36 6.49 6.605.023.024.065.008.063-.026-.155-3.298.36-7.326-3.157-10.111zm-5.955-1.562c-.05 0-.066.069-.027.096 2.318 1.493 2.079 2.837 6.36 5.975.018.011.042-.005.036-.024-.979-3.332-3.262-5.949-6.369-6.047z" fill="#FFF" fill-rule="evenodd"/></svg>