<?xml version="1.0" encoding="UTF-8"?>
<svg width="223px" height="58px" viewBox="0 0 223 58" version="1.1" xmlns="http://www.w3.org/2000/svg" xmlns:xlink="http://www.w3.org/1999/xlink">
    <!-- Generator: Sketch 48.2 (47327) - http://www.bohemiancoding.com/sketch -->
    <title>extended/en/wfp-logo-extended-white-en</title>
    <desc>Created with Sketch.</desc>
    <defs></defs>
    <g id="White" stroke="none" stroke-width="1" fill="none" fill-rule="evenodd" transform="translate(-60.000000, -419.000000)">
        <g id="extended/en/wfp-logo-extended-white-en" transform="translate(60.000000, 419.000000)" fill="#FFFFFF">
            <path d="M35.934,4.664 L36.482,4.664 C36.993,4.664 37.376,4.563 37.631,4.36 C37.885,4.158 38.012,3.863 38.012,3.477 C38.012,3.087 37.905,2.799 37.693,2.612 C37.479,2.426 37.146,2.332 36.691,2.332 L35.934,2.332 L35.934,4.664 Z M39.694,3.418 C39.694,4.263 39.429,4.909 38.901,5.356 C38.373,5.805 37.622,6.028 36.648,6.028 L35.934,6.028 L35.934,8.821 L34.269,8.821 L34.269,0.969 L36.777,0.969 C37.729,0.969 38.453,1.173 38.949,1.584 C39.446,1.994 39.694,2.605 39.694,3.418 Z M30.157,8.821 L28.519,8.821 L28.519,0.969 L33.02,0.969 L33.02,2.332 L30.157,2.332 L30.157,4.358 L32.821,4.358 L32.821,5.717 L30.157,5.717 L30.157,8.821 Z M25.632,8.821 L23.736,8.821 L22.673,4.696 C22.633,4.549 22.566,4.246 22.471,3.786 C22.376,3.325 22.322,3.016 22.307,2.859 C22.286,3.053 22.232,3.364 22.146,3.791 C22.06,4.219 21.994,4.525 21.948,4.707 L20.889,8.821 L18.999,8.821 L16.995,0.969 L18.633,0.969 L19.638,5.254 C19.813,6.046 19.94,6.732 20.019,7.312 C20.041,7.108 20.09,6.792 20.167,6.364 C20.244,5.935 20.316,5.603 20.384,5.368 L21.529,0.969 L23.102,0.969 L24.246,5.368 C24.297,5.564 24.359,5.866 24.434,6.27 C24.509,6.675 24.567,7.022 24.606,7.312 C24.642,7.032 24.699,6.684 24.778,6.267 C24.857,5.85 24.928,5.513 24.993,5.254 L25.992,0.969 L27.63,0.969 L25.632,8.821 Z M21.559,36.134 C18.508,36.134 16.55,36.858 16.015,37.083 C15.984,37.097 15.958,37.052 15.982,37.027 C19.335,33.542 23.26,33.734 24.205,33.734 C25.16,33.734 35.366,33.734 35.366,33.734 C35.929,33.734 36.384,34.271 36.384,34.935 C36.384,35.597 35.929,36.134 35.366,36.134 C35.366,36.134 24.165,36.134 21.559,36.134 Z M24.074,39.219 C20.786,39.219 19.828,37.351 14.852,38.584 C14.818,38.593 14.795,38.546 14.824,38.526 C17.598,36.623 20.615,36.796 21.835,36.796 C22.79,36.796 35.366,36.796 35.366,36.796 C35.929,36.796 36.384,37.333 36.384,37.995 C36.384,38.657 35.929,39.194 35.366,39.194 C35.366,39.194 26.677,39.219 24.074,39.219 Z M24.307,42.256 C20.933,42.256 20.662,39.766 15.661,39.205 C15.626,39.201 15.622,39.149 15.656,39.141 C19.765,38.113 21.294,39.856 23.693,39.856 C24.648,39.856 35.366,39.856 35.366,39.856 C35.929,39.856 36.384,40.393 36.384,41.056 C36.384,41.719 35.929,42.256 35.366,42.256 C35.366,42.256 26.913,42.256 24.307,42.256 Z M23.575,33.073 C20.858,33.073 18.607,34.258 18.079,34.557 C18.051,34.573 18.021,34.538 18.04,34.511 C18.48,33.862 20.86,30.674 24.95,30.674 C25.905,30.674 35.366,30.674 35.366,30.674 C35.929,30.674 36.384,31.211 36.384,31.874 C36.384,32.536 35.929,33.073 35.366,33.073 C35.366,33.073 26.181,33.073 23.575,33.073 Z M38.516,26.448 C38.411,26.342 38.253,26.265 38.072,26.243 C37.938,26.225 37.818,26.246 37.71,26.286 C37.757,26.187 37.797,26.081 37.812,25.956 C37.839,25.763 37.802,25.581 37.728,25.444 C37.392,24.708 38.353,23.235 38.232,23.169 C38.117,23.105 37.571,24.729 37.041,25.385 C36.938,25.505 36.865,25.677 36.841,25.874 C36.823,26.068 36.854,26.251 36.928,26.387 C37.001,26.519 37.114,26.613 37.245,26.621 C37.282,26.626 37.319,26.623 37.353,26.615 C37.345,26.634 37.337,26.655 37.335,26.674 C37.314,26.817 37.369,26.953 37.476,27.062 C37.581,27.173 37.736,27.247 37.917,27.269 C38.104,27.293 38.277,27.256 38.411,27.176 C39.13,26.783 40.62,26.395 40.589,26.257 C40.56,26.119 39.106,26.972 38.516,26.448 Z M39.616,25.374 C39.515,25.266 39.374,25.191 39.209,25.175 C39.114,25.17 39.028,25.186 38.941,25.218 C38.954,25.172 38.972,25.133 38.978,25.087 C38.996,24.912 38.954,24.75 38.875,24.625 C38.511,23.948 39.463,22.669 39.34,22.606 C39.217,22.542 38.694,23.974 38.164,24.54 C38.059,24.641 37.986,24.79 37.967,24.965 C37.951,25.141 37.991,25.306 38.067,25.43 C38.151,25.553 38.266,25.64 38.405,25.659 C38.466,25.664 38.529,25.653 38.584,25.638 C38.581,25.645 38.574,25.656 38.576,25.664 C38.563,25.813 38.618,25.956 38.715,26.062 C38.815,26.169 38.959,26.243 39.119,26.257 C39.284,26.272 39.437,26.227 39.553,26.14 C40.172,25.693 41.589,25.428 41.552,25.284 C41.518,25.146 40.161,25.895 39.616,25.374 Z M40.578,24.381 C40.476,24.304 40.337,24.261 40.19,24.277 C40.119,24.28 40.053,24.301 39.993,24.328 C40.004,24.298 40.022,24.274 40.033,24.245 C40.072,24.094 40.059,23.939 40.009,23.815 C39.778,23.15 40.801,22.167 40.702,22.087 C40.602,22.013 39.938,23.204 39.392,23.623 C39.287,23.701 39.203,23.823 39.161,23.977 C39.116,24.125 39.13,24.282 39.182,24.405 C39.237,24.53 39.326,24.622 39.447,24.66 C39.539,24.689 39.631,24.67 39.717,24.633 C39.7,24.683 39.689,24.742 39.694,24.803 C39.707,24.939 39.773,25.053 39.88,25.133 C39.983,25.212 40.122,25.252 40.266,25.242 C40.416,25.226 40.544,25.162 40.633,25.066 C41.124,24.569 42.347,24.104 42.298,23.985 C42.245,23.865 41.145,24.75 40.578,24.381 Z M42.473,22.247 C42.371,22.096 41.515,23.034 40.883,23.124 C40.765,23.14 40.633,23.198 40.523,23.302 C40.405,23.408 40.329,23.538 40.303,23.663 C40.274,23.786 40.292,23.905 40.358,23.987 C40.429,24.073 40.536,24.11 40.657,24.096 C40.778,24.083 40.904,24.025 41.022,23.915 C41.132,23.812 41.208,23.682 41.237,23.559 C41.429,22.916 42.55,22.345 42.473,22.247 Z M24.779,23.517 C24.753,23.61 24.57,24.333 24.57,24.333 C24.517,24.362 24.297,24.314 24.239,24.309 C23.816,24.269 23.439,23.902 23.601,23.464 C23.734,23.106 24.005,23.068 24.349,23.052 C24.492,23.046 24.749,23.08 24.878,23.169 C24.878,23.169 24.827,23.334 24.779,23.517 Z M24.294,25.699 C24.281,25.781 24.268,25.863 24.255,25.946 C23.992,25.781 23.837,25.404 23.963,25.106 C24.06,24.88 24.301,24.821 24.478,24.811 C24.415,25.106 24.352,25.401 24.294,25.699 Z M23.916,28.395 C23.883,28.58 23.633,28.605 23.462,28.656 C22.966,28.805 22.496,28.741 22.344,28.148 C22.179,27.514 22.659,27.247 23.174,27.123 C23.454,27.057 23.714,27.112 23.905,27.349 C23.954,27.408 24.01,27.461 24.024,27.517 C24.024,27.517 23.947,28.221 23.916,28.395 Z M22.355,25.273 C22.737,25.181 23.134,25.037 23.428,25.414 C23.737,25.81 23.635,26.445 23.136,26.613 C22.809,26.724 22.412,26.82 22.132,26.552 C21.764,26.201 21.79,25.404 22.355,25.273 Z M21.979,23.217 C22.383,23.119 22.8,22.97 23.111,23.366 C23.433,23.78 23.325,24.45 22.803,24.625 C22.457,24.739 22.04,24.84 21.746,24.558 C21.36,24.192 21.389,23.355 21.979,23.217 Z M21.604,27.662 C21.499,28.032 21.195,28.087 20.874,28.164 C20.664,27.907 20.101,27.255 20.091,27.178 C20.088,27.153 20.091,27.124 20.103,27.088 C20.129,27.011 20.219,26.937 20.284,26.894 C20.475,26.769 20.885,26.677 21.105,26.722 C21.502,26.807 21.709,27.29 21.604,27.662 Z M19.599,25.763 C19.31,24.739 21.027,24.293 21.292,25.297 C21.565,26.329 19.833,26.767 19.599,25.763 Z M19.347,23.719 C19.053,22.702 20.777,22.255 21.042,23.254 C21.315,24.287 19.58,24.726 19.347,23.719 Z M19.106,21.71 C18.825,20.762 20.444,20.342 20.691,21.277 C20.945,22.239 19.326,22.654 19.106,21.71 Z M18.94,25.577 C18.86,25.624 18.831,25.649 18.804,25.649 L18.034,24.811 C18.043,24.787 18.281,24.615 18.36,24.569 C19.001,24.213 19.528,25.231 18.94,25.577 Z M17.478,23.69 C17.098,22.85 18.484,21.939 18.904,22.845 C19.289,23.679 17.904,24.606 17.478,23.69 Z M18.644,21.03 C19.082,21.809 17.762,22.678 17.384,21.84 C17.048,21.118 18.221,20.275 18.644,21.03 Z M17.536,19.215 C17.731,19.043 17.956,18.95 18.187,19.061 C18.557,19.239 18.568,19.794 18.245,20.015 C18.098,20.116 17.848,20.241 17.667,20.196 C17.271,20.095 17.195,19.516 17.536,19.215 Z M17.586,17.546 C17.746,17.438 17.959,17.341 18.142,17.416 C18.477,17.553 18.465,18.038 18.195,18.232 C18.071,18.32 17.848,18.429 17.699,18.389 C17.36,18.304 17.277,17.755 17.586,17.546 Z M18.473,15.168 C18.672,15.061 18.959,15.016 19.137,15.216 C19.347,15.451 19.279,15.809 19.003,15.95 C18.791,16.056 18.505,16.096 18.337,15.899 C18.153,15.687 18.19,15.321 18.473,15.168 Z M18.316,16.975 C18.155,16.38 19.158,16.099 19.321,16.704 C19.502,17.291 18.476,17.584 18.316,16.975 Z M19.932,18.014 C20.166,18.657 19.077,19.021 18.864,18.386 C18.646,17.743 19.741,17.376 19.932,18.014 Z M20.069,14.881 C20.277,14.798 20.543,14.708 20.775,14.881 C21.063,15.097 21,15.583 20.67,15.734 C20.452,15.833 20.174,15.899 19.979,15.726 C19.733,15.506 19.719,15.021 20.069,14.881 Z M19.877,20.262 C19.583,20.331 19.276,20.448 19.032,20.196 C18.72,19.874 18.809,19.311 19.232,19.157 C19.505,19.053 19.851,18.995 20.074,19.223 C20.36,19.516 20.328,20.153 19.877,20.262 Z M19.883,16.978 C19.694,16.34 20.733,16.013 20.932,16.632 C21.137,17.267 20.061,17.605 19.883,16.978 Z M21.622,18.147 C21.866,18.875 20.635,19.263 20.41,18.546 C20.181,17.812 21.42,17.424 21.622,18.147 Z M21.688,16.197 C21.905,16.139 22.134,16.16 22.3,16.337 C22.551,16.608 22.465,17.071 22.092,17.14 C21.916,17.172 21.646,17.159 21.509,17.039 C21.263,16.821 21.275,16.308 21.688,16.197 Z M22.737,17.725 C23.134,17.725 23.333,18.307 23.103,18.596 C22.964,18.771 22.664,18.782 22.46,18.75 C22.082,18.692 21.84,18.205 22.095,17.876 C22.25,17.677 22.514,17.725 22.737,17.725 Z M20.835,20.121 C20.591,19.284 22.013,18.91 22.231,19.741 C22.452,20.586 21.021,20.958 20.835,20.121 Z M21.706,21.192 C22.095,21.152 22.499,21.062 22.737,21.469 C22.987,21.899 22.8,22.497 22.297,22.598 C21.966,22.667 21.565,22.699 21.328,22.406 C21.019,22.019 21.142,21.245 21.706,21.192 Z M23.681,19.328 C24.161,19.526 24.323,20.092 23.984,20.408 C23.803,20.573 23.472,20.541 23.25,20.496 C22.803,20.408 22.512,19.738 22.903,19.42 C23.104,19.257 23.463,19.237 23.681,19.328 Z M24.436,21.346 C24.738,21.716 24.625,22.369 24.097,22.401 C23.822,22.417 23.462,22.385 23.276,22.159 C22.977,21.798 23.09,21.12 23.617,21.102 C23.892,21.091 24.249,21.12 24.436,21.346 Z M26.475,14.682 C26.446,14.64 26.394,14.616 26.341,14.632 C26.278,14.653 26.236,14.722 26.259,14.783 C27.464,18.02 25.926,19.614 25.283,21.88 C24.512,20.039 27.068,18.307 25.751,14.951 C25.732,14.908 25.698,14.873 25.651,14.866 C25.585,14.857 25.522,14.884 25.512,14.972 C25.478,15.208 25.323,17.068 23.814,18.158 C23.659,17.802 23.43,17.43 23.111,17.137 C22.971,16.51 22.562,15.649 21.701,15.395 C21.573,15.07 21.313,14.605 20.814,14.355 C20.344,14.121 19.801,14.142 19.197,14.416 C18.468,14.501 17.967,14.786 17.701,15.261 C17.452,15.71 17.497,16.199 17.581,16.532 C16.967,17.188 16.938,18.16 16.953,18.541 C16.589,19.417 16.794,20.44 16.909,20.865 C16.473,22.056 16.898,23.211 17.069,23.594 C17.069,23.698 17.074,23.796 17.079,23.894 C15.652,22.332 12.403,20.397 11.161,19.659 C11.104,19.624 11.031,19.632 10.98,19.68 C10.917,19.739 10.915,19.834 10.972,19.898 C13.742,22.598 16.211,25.93 18.583,32.844 C19.767,31.613 21.906,29.995 24.95,29.995 L28.511,29.995 C26.249,21.567 29.543,18.551 26.475,14.682 Z M43.31,19.04 C42.659,18.87 38.503,18.134 33.844,26.703 C34.524,23.512 36.589,19.651 37.156,18.53 L37.156,18.522 C37.19,18.458 37.172,18.375 37.114,18.33 C37.056,18.288 36.97,18.301 36.925,18.365 C33.847,23.498 32.765,26.456 32.128,29.995 L34.057,29.995 C34.385,26.583 38.694,18.546 43.287,19.143 L43.292,19.143 C43.318,19.149 43.342,19.127 43.345,19.104 C43.355,19.074 43.337,19.045 43.31,19.04 Z M34.049,47.272 L33.007,42.917 L31.233,42.917 C31.514,44.022 31.915,45.146 32.435,46.132 C32.469,46.19 32.532,46.225 32.595,46.215 C32.679,46.204 32.744,46.116 32.729,46.025 C32.608,45.103 32.464,44.214 32.327,43.326 C32.702,44.721 33.209,46.084 33.891,47.339 C33.91,47.378 33.949,47.396 33.986,47.384 C34.036,47.373 34.062,47.32 34.049,47.272 Z M35.842,45.295 C35.66,44.567 35.471,43.674 35.309,42.917 L34.634,42.917 C34.897,43.725 35.251,44.626 35.566,45.396 C35.597,45.471 35.668,45.508 35.737,45.489 C35.818,45.465 35.862,45.378 35.842,45.295 Z M36.067,47.856 L36.062,47.846 C35.844,47.237 35.542,46.692 35.303,46.108 C35.049,45.523 34.802,44.949 34.597,44.35 C34.427,43.9 34.246,43.385 34.107,42.917 L33.456,42.917 C33.639,43.462 33.878,44.049 34.101,44.575 C34.592,45.763 35.159,46.927 35.881,47.968 C35.907,48.006 35.957,48.021 36.004,48.003 C36.062,47.981 36.088,47.915 36.067,47.856 Z M37.041,26.956 C36.991,26.881 36.87,26.865 36.812,26.926 C35.629,28.175 34.912,29.504 34.666,29.995 L35.369,29.995 C35.721,29.169 36.513,27.71 37.022,27.184 L37.028,27.179 C37.08,27.12 37.091,27.022 37.041,26.956 Z M31.687,20.911 C32.338,19.842 33.303,19.024 34.122,18.036 C34.151,17.998 34.149,17.94 34.114,17.908 C34.083,17.873 34.03,17.873 33.996,17.905 C33.81,18.104 33.616,18.291 33.416,18.476 C33.33,18.434 33.11,18.519 32.886,18.694 C32.711,18.833 32.585,18.987 32.54,19.098 C32.427,19.072 32.215,19.204 32.023,19.449 C31.866,19.654 31.774,19.869 31.776,20.002 C31.655,20.012 31.48,20.166 31.33,20.411 C31.233,20.573 31.17,20.73 31.149,20.86 C31.052,20.926 30.942,21.051 30.839,21.213 C30.705,21.437 30.637,21.662 30.658,21.792 C30.627,21.849 30.595,21.902 30.569,21.957 C30.575,21.912 30.579,21.87 30.585,21.825 C30.776,20.312 31.054,18.814 31.477,17.369 C31.902,15.928 32.411,14.475 33.285,13.308 L33.29,13.303 C33.335,13.239 33.33,13.152 33.275,13.093 C33.22,13.032 33.128,13.029 33.07,13.09 C32.768,13.412 32.513,13.771 32.285,14.14 C32.186,14.087 31.976,14.284 31.816,14.592 C31.669,14.87 31.616,15.128 31.671,15.227 C31.671,15.227 31.669,15.235 31.663,15.232 C31.558,15.187 31.364,15.421 31.246,15.734 C31.131,16.029 31.11,16.3 31.188,16.391 C31.183,16.396 31.183,16.399 31.18,16.404 C31.062,16.361 30.871,16.63 30.753,17.01 C30.655,17.331 30.645,17.61 30.716,17.722 C30.721,17.727 30.716,17.741 30.711,17.738 C30.59,17.695 30.406,17.972 30.299,18.349 C30.191,18.713 30.199,19.035 30.301,19.098 C30.183,19.085 30.018,19.361 29.931,19.736 C29.852,20.06 29.861,20.339 29.936,20.451 C29.821,20.485 29.693,20.756 29.627,21.107 C29.564,21.45 29.595,21.734 29.679,21.825 C29.571,21.88 29.462,22.159 29.422,22.505 C29.383,22.848 29.432,23.129 29.522,23.22 C29.432,23.32 29.346,23.559 29.309,23.847 C29.273,24.12 29.296,24.357 29.348,24.49 C29.252,24.572 29.178,24.849 29.175,25.181 C29.168,25.446 29.207,25.672 29.275,25.802 C29.222,25.935 29.186,26.129 29.186,26.344 C29.18,26.623 29.225,26.862 29.296,26.987 C29.275,27.968 29.288,29.012 29.341,29.995 L31.459,29.995 C31.474,29.23 31.524,28.395 31.6,27.638 C31.75,26.288 31.973,24.917 32.648,23.764 L32.653,23.756 C32.674,23.714 32.671,23.666 32.639,23.629 C32.6,23.594 32.545,23.594 32.508,23.637 C31.592,24.7 31.191,26.143 30.955,27.527 C30.913,27.798 30.879,28.071 30.847,28.343 C30.905,27.232 31.007,26.126 31.262,25.074 C31.553,23.793 32.136,22.574 33.246,21.891 C33.28,21.87 33.298,21.825 33.285,21.779 C33.272,21.729 33.22,21.7 33.175,21.713 C33.104,21.734 33.038,21.771 32.97,21.801 C32.897,21.71 32.627,21.777 32.348,21.954 C32.083,22.127 31.908,22.34 31.925,22.457 C31.925,22.462 31.913,22.47 31.913,22.459 C31.91,22.446 31.908,22.433 31.9,22.425 C31.8,22.343 31.532,22.529 31.306,22.845 C31.078,23.161 30.989,23.491 31.086,23.576 C31.091,23.578 31.089,23.586 31.083,23.586 C30.965,23.538 30.768,23.807 30.645,24.182 C30.556,24.444 30.535,24.686 30.566,24.825 C30.566,24.829 30.561,24.835 30.561,24.835 C30.469,25.138 30.393,25.444 30.322,25.754 C30.348,25.316 30.388,24.875 30.451,24.439 C30.637,23.185 31.015,21.957 31.687,20.911 Z M38.35,17.413 C38.217,17.35 38.041,17.334 37.865,17.376 C37.734,17.408 37.629,17.472 37.539,17.546 C37.552,17.435 37.552,17.323 37.521,17.201 C37.479,17.01 37.384,16.853 37.269,16.752 C36.697,16.181 37.091,14.461 36.957,14.44 C36.825,14.422 36.873,16.136 36.602,16.938 C36.548,17.087 36.537,17.275 36.584,17.467 C36.631,17.656 36.726,17.815 36.844,17.918 C36.957,18.017 37.093,18.062 37.222,18.022 C37.256,18.017 37.29,18.001 37.319,17.979 C37.319,18.001 37.319,18.022 37.321,18.043 C37.35,18.184 37.45,18.293 37.587,18.357 C37.726,18.423 37.896,18.439 38.075,18.394 C38.256,18.351 38.405,18.253 38.503,18.134 C39.041,17.509 40.305,16.619 40.229,16.5 C40.153,16.383 39.085,17.695 38.35,17.413 Z M40.796,15.248 C40.715,15.131 39.702,16.313 39.011,16.018 C38.881,15.952 38.721,15.933 38.56,15.976 C38.471,16.003 38.395,16.051 38.324,16.109 C38.321,16.061 38.324,16.018 38.314,15.976 C38.272,15.804 38.177,15.668 38.059,15.578 C37.482,15.073 37.936,13.537 37.799,13.521 C37.66,13.505 37.663,15.033 37.364,15.75 C37.3,15.883 37.282,16.048 37.327,16.218 C37.369,16.388 37.463,16.529 37.581,16.619 C37.7,16.704 37.839,16.744 37.975,16.712 C38.035,16.696 38.088,16.664 38.135,16.63 C38.135,16.638 38.133,16.648 38.135,16.656 C38.177,16.803 38.277,16.917 38.405,16.983 C38.537,17.044 38.696,17.065 38.851,17.02 C39.011,16.978 39.137,16.88 39.217,16.76 C39.644,16.12 40.878,15.37 40.796,15.248 Z M41.046,13.768 C40.956,13.675 40.229,14.892 39.571,14.746 C39.447,14.711 39.303,14.719 39.172,14.786 C39.106,14.812 39.051,14.857 39.004,14.903 C39.004,14.873 39.011,14.844 39.011,14.812 C38.996,14.658 38.933,14.515 38.841,14.419 C38.398,13.877 39.014,12.594 38.896,12.554 C38.776,12.519 38.566,13.869 38.198,14.456 C38.125,14.568 38.088,14.711 38.104,14.868 C38.114,15.025 38.18,15.166 38.272,15.264 C38.366,15.362 38.482,15.416 38.608,15.408 C38.702,15.405 38.783,15.354 38.851,15.288 C38.851,15.341 38.862,15.399 38.888,15.455 C38.946,15.578 39.049,15.662 39.175,15.697 C39.298,15.737 39.445,15.726 39.576,15.662 C39.71,15.596 39.807,15.49 39.859,15.37 C40.148,14.73 41.132,13.861 41.046,13.768 Z M40.61,12.078 C40.46,11.972 39.985,13.154 39.421,13.462 C39.316,13.518 39.217,13.619 39.146,13.757 C39.074,13.898 39.049,14.047 39.067,14.172 C39.08,14.297 39.137,14.403 39.23,14.456 C39.324,14.512 39.437,14.509 39.544,14.454 C39.655,14.398 39.752,14.297 39.825,14.156 C39.893,14.018 39.92,13.869 39.904,13.744 C39.862,13.075 40.715,12.144 40.61,12.078 Z M30.251,42.917 L24.307,42.917 C23.903,42.917 23.538,42.885 23.202,42.824 C23.205,42.824 23.205,42.826 23.205,42.826 C24.181,44.277 25.711,45.378 27.262,46.116 C27.501,47.439 27.8,48.664 27.908,48.76 C28.018,48.855 29.54,48.417 29.588,48.276 C29.632,48.136 28.966,45.869 28.966,45.869 C29.766,44.495 30.012,43.684 30.251,42.917 Z M45.205,53.086 C43.704,53.679 41.746,53.728 40.148,53.304 C36.487,52.164 32.422,50.004 28.519,51.797 C24.617,50.004 20.551,52.164 16.89,53.304 C15.292,53.728 13.334,53.679 11.833,53.086 C11.791,53.07 11.76,53.123 11.797,53.152 C13.956,54.823 16.983,55.592 19.707,54.608 C22.323,53.793 24.535,51.021 27.635,52.204 C25.181,53.163 22.887,54.933 21.116,56.604 L22.405,57.661 C24.013,55.788 25.824,53.915 27.874,52.775 C28.154,52.61 28.323,52.544 28.519,52.533 C28.716,52.544 28.884,52.61 29.162,52.775 C31.215,53.915 33.026,55.788 34.634,57.661 L35.923,56.604 C34.151,54.933 31.858,53.163 29.404,52.204 C32.503,51.021 34.716,53.793 37.332,54.608 C40.056,55.592 43.082,54.823 45.242,53.152 C45.276,53.123 45.247,53.07 45.205,53.086 Z M21.076,50.561 C17.25,49.634 16.203,46.047 13.004,44.49 C12.969,44.472 12.933,44.512 12.954,44.543 C13.962,46.201 14.508,48.741 17.413,50.307 C17.436,50.319 17.423,50.357 17.397,50.349 C13.23,49.547 11.479,50.662 7.112,48.688 C7.075,48.672 7.036,48.712 7.059,48.747 C8.495,50.83 11.902,52.254 16.568,51.861 C18.247,51.718 19.465,51.011 21.076,50.634 C21.116,50.623 21.116,50.569 21.076,50.561 Z M13.062,48.361 C11.608,46.456 12.022,42.389 8.739,38.666 C8.713,38.637 8.666,38.66 8.674,38.697 C9.301,41.439 9.115,44.554 10.831,46.836 C10.846,46.86 10.823,46.884 10.8,46.868 C7.414,44.203 3.934,43.4 2.385,41.243 C2.362,41.214 2.315,41.229 2.32,41.267 C2.703,44.059 8.067,48.412 13.032,48.42 C13.062,48.42 13.08,48.386 13.062,48.361 Z M7.978,43.297 C6.419,40.406 8.283,35.995 6.514,31.709 C6.495,31.664 6.427,31.675 6.427,31.723 C6.375,34.063 4.921,37.558 5.8,40.196 C5.81,40.22 5.779,40.233 5.766,40.212 C3.527,36.941 1.75,36.258 0.27,33.264 C0.249,33.219 0.181,33.231 0.178,33.279 C0.084,35.314 0.984,36.973 2,38.514 C3.624,40.6 5.716,42.25 7.928,43.35 C7.962,43.366 7.994,43.331 7.978,43.297 Z M6.921,25.691 C6.918,25.643 6.855,25.627 6.831,25.669 C5.642,27.893 3.525,29.663 3.456,32.6 C3.453,32.629 3.422,32.631 3.417,32.604 C3.031,30.338 1.107,27.798 1.023,24.516 C1.023,24.466 0.952,24.453 0.934,24.5 C-0.648,28.768 1.627,32.814 4.05,36.157 C4.075,36.191 4.128,36.171 4.128,36.125 C4.029,32.583 7.099,29.939 6.921,25.691 Z M8.432,20.169 C7.309,21.729 4.781,22.832 3.858,25.082 C3.844,25.114 3.805,25.106 3.811,25.069 C4.178,22.547 3.204,19.619 4.117,16.269 C4.131,16.221 4.071,16.189 4.041,16.226 C2.661,17.924 2.194,19.914 2.118,22.064 C2.023,24.705 2.952,26.631 3.412,28.422 C3.422,28.465 3.477,28.462 3.487,28.419 C4.149,26.071 7.469,24.657 8.508,20.206 C8.521,20.159 8.461,20.129 8.432,20.169 Z M11.479,14.924 C9.632,16.372 6.81,17.767 6.204,18.774 C6.194,18.795 6.162,18.779 6.167,18.758 L6.852,15.471 C7.159,14.076 7.424,12.74 8.196,11.491 C8.219,11.454 8.175,11.411 8.141,11.438 C4.624,14.223 5.138,18.25 4.984,21.548 C4.981,21.583 5.023,21.599 5.047,21.575 C7.117,19.329 10.492,18.022 11.537,14.969 C11.55,14.932 11.51,14.9 11.479,14.924 Z M14.095,9.875 C10.988,9.974 8.705,12.591 7.726,15.923 C7.721,15.942 7.747,15.958 7.763,15.947 C12.043,12.809 11.804,11.464 14.122,9.971 C14.164,9.944 14.145,9.875 14.095,9.875 Z M49.924,48.688 C45.559,50.662 43.806,49.547 39.639,50.349 C39.612,50.357 39.599,50.319 39.623,50.307 C42.529,48.741 43.075,46.201 44.082,44.543 C44.103,44.512 44.066,44.472 44.032,44.49 C40.836,46.047 39.788,49.634 35.96,50.561 C35.92,50.569 35.92,50.623 35.96,50.634 C37.571,51.011 38.789,51.718 40.468,51.861 C45.134,52.254 48.544,50.83 49.976,48.747 C50,48.712 49.961,48.672 49.924,48.688 Z M54.651,41.243 C53.102,43.4 49.622,44.203 46.237,46.868 C46.216,46.884 46.189,46.86 46.208,46.836 C47.922,44.554 47.735,41.439 48.363,38.697 C48.37,38.66 48.323,38.637 48.297,38.666 C45.016,42.389 45.428,46.456 43.977,48.361 C43.959,48.386 43.974,48.42 44.006,48.42 C48.971,48.412 54.333,44.059 54.716,41.267 C54.721,41.229 54.674,41.214 54.651,41.243 Z M56.858,33.279 C56.855,33.231 56.787,33.219 56.766,33.264 C55.285,36.258 53.509,36.941 51.273,40.212 C51.257,40.233 51.228,40.22 51.236,40.196 C52.115,37.558 50.664,34.063 50.609,31.723 C50.609,31.675 50.541,31.664 50.522,31.709 C48.754,35.995 50.617,40.406 49.06,43.297 C49.042,43.331 49.074,43.366 49.108,43.35 C51.32,42.25 53.412,40.6 55.036,38.514 C56.052,36.973 56.952,35.314 56.858,33.279 Z M56.102,24.5 C56.083,24.453 56.012,24.466 56.012,24.516 C55.928,27.798 54.005,30.338 53.619,32.604 C53.614,32.631 53.582,32.629 53.582,32.6 C53.514,29.663 51.394,27.893 50.205,25.669 C50.181,25.627 50.118,25.643 50.118,25.691 C49.94,29.939 53.008,32.583 52.908,36.125 C52.908,36.171 52.963,36.191 52.989,36.157 C55.409,32.814 57.684,28.768 56.102,24.5 Z M54.918,22.064 C54.842,19.914 54.375,17.924 52.994,16.226 C52.966,16.189 52.908,16.221 52.918,16.269 C53.832,19.619 52.858,22.547 53.228,25.069 C53.233,25.106 53.191,25.114 53.178,25.082 C52.255,22.832 49.727,21.729 48.604,20.169 C48.577,20.129 48.517,20.159 48.528,20.206 C49.567,24.657 52.887,26.071 53.548,28.419 C53.559,28.462 53.614,28.465 53.624,28.422 C54.084,26.631 55.012,24.705 54.918,22.064 Z M48.895,11.438 C48.861,11.411 48.817,11.454 48.84,11.491 C49.612,12.74 49.877,14.076 50.184,15.471 L50.869,18.758 C50.874,18.779 50.842,18.795 50.832,18.774 C50.226,17.767 47.407,16.372 45.557,14.924 C45.528,14.9 45.486,14.932 45.499,14.969 C46.544,18.022 49.919,19.329 51.989,21.575 C52.013,21.599 52.055,21.583 52.052,21.548 C51.898,18.25 52.412,14.223 48.895,11.438 Z M42.94,9.875 C42.89,9.875 42.875,9.944 42.914,9.971 C45.232,11.464 44.993,12.809 49.273,15.947 C49.292,15.958 49.315,15.942 49.31,15.923 C48.331,12.591 46.048,9.974 42.94,9.875 Z" id="Fill-1"></path>
            <path d="M72.363,34.983 L69.867,34.983 L68.468,29.556 C68.416,29.363 68.327,28.962 68.203,28.357 C68.078,27.751 68.006,27.345 67.988,27.138 C67.959,27.392 67.889,27.802 67.776,28.365 C67.662,28.927 67.575,29.329 67.514,29.57 L66.121,34.983 L63.633,34.983 L60.996,24.65 L63.153,24.65 L64.474,30.29 C64.705,31.331 64.872,32.233 64.976,32.997 C65.004,32.729 65.07,32.313 65.17,31.749 C65.272,31.186 65.367,30.749 65.457,30.438 L66.962,24.65 L69.033,24.65 L70.539,30.438 C70.605,30.698 70.688,31.095 70.786,31.626 C70.886,32.159 70.961,32.616 71.013,32.997 C71.06,32.63 71.135,32.171 71.24,31.622 C71.343,31.073 71.437,30.63 71.522,30.29 L72.836,24.65 L74.992,24.65 L72.363,34.983" id="Fill-2"></path>
            <path d="M77.197,31.018 C77.197,31.8 77.325,32.391 77.582,32.792 C77.839,33.192 78.257,33.394 78.837,33.394 C79.411,33.394 79.825,33.194 80.077,32.796 C80.329,32.397 80.455,31.806 80.455,31.018 C80.455,30.236 80.328,29.65 80.073,29.259 C79.82,28.867 79.403,28.671 78.823,28.671 C78.247,28.671 77.833,28.867 77.578,29.255 C77.325,29.644 77.197,30.232 77.197,31.018 Z M82.66,31.018 C82.66,32.306 82.321,33.311 81.643,34.036 C80.964,34.763 80.02,35.126 78.809,35.126 C78.05,35.126 77.38,34.96 76.801,34.626 C76.221,34.294 75.776,33.817 75.465,33.196 C75.154,32.573 74.998,31.849 74.998,31.018 C74.998,29.728 75.335,28.724 76.009,28.007 C76.683,27.29 77.63,26.933 78.851,26.933 C79.61,26.933 80.279,27.099 80.859,27.427 C81.438,27.757 81.883,28.232 82.195,28.849 C82.505,29.466 82.66,30.189 82.66,31.018 Z" id="Fill-3"></path>
            <path d="M88.386,26.933 C88.678,26.933 88.92,26.954 89.114,26.997 L88.951,29.019 C88.777,28.972 88.565,28.947 88.315,28.947 C87.627,28.947 87.091,29.124 86.706,29.478 C86.323,29.831 86.131,30.326 86.131,30.962 L86.131,34.983 L83.975,34.983 L83.975,27.081 L85.608,27.081 L85.926,28.41 L86.031,28.41 C86.277,27.968 86.608,27.611 87.025,27.339 C87.442,27.068 87.896,26.933 88.386,26.933" id="Fill-4"></path>
            <polygon id="Fill-5" points="90.056 34.984 92.212 34.984 92.212 23.986 90.056 23.986"></polygon>
            <path d="M97.327,33.407 C97.879,33.407 98.283,33.247 98.54,32.927 C98.797,32.606 98.937,32.062 98.96,31.294 L98.96,31.061 C98.96,30.212 98.829,29.605 98.569,29.238 C98.307,28.871 97.881,28.687 97.292,28.687 C96.812,28.687 96.438,28.89 96.172,29.298 C95.906,29.704 95.773,30.298 95.773,31.075 C95.773,31.852 95.906,32.437 96.175,32.825 C96.444,33.214 96.828,33.407 97.327,33.407 Z M96.572,35.126 C95.643,35.126 94.913,34.765 94.383,34.044 C93.854,33.323 93.588,32.323 93.588,31.046 C93.588,29.751 93.858,28.742 94.398,28.019 C94.937,27.294 95.681,26.933 96.628,26.933 C97.622,26.933 98.381,27.32 98.904,28.093 L98.975,28.093 C98.866,27.503 98.812,26.978 98.812,26.517 L98.812,23.986 L100.975,23.986 L100.975,34.983 L99.321,34.983 L98.904,33.958 L98.812,33.958 C98.322,34.737 97.575,35.126 96.572,35.126 Z" id="Fill-6"></path>
            <polyline id="Fill-7" points="108.505 34.983 106.35 34.983 106.35 24.65 112.273 24.65 112.273 26.445 108.505 26.445 108.505 29.111 112.011 29.111 112.011 30.897 108.505 30.897 108.505 34.983"></polyline>
            <path d="M115.352,31.018 C115.352,31.8 115.48,32.391 115.737,32.792 C115.993,33.192 116.412,33.394 116.991,33.394 C117.567,33.394 117.98,33.194 118.232,32.796 C118.484,32.397 118.611,31.806 118.611,31.018 C118.611,30.236 118.483,29.65 118.229,29.259 C117.974,28.867 117.557,28.671 116.978,28.671 C116.403,28.671 115.988,28.867 115.734,29.255 C115.479,29.644 115.352,30.232 115.352,31.018 Z M120.816,31.018 C120.816,32.306 120.477,33.311 119.798,34.036 C119.119,34.763 118.174,35.126 116.963,35.126 C116.204,35.126 115.535,34.96 114.955,34.626 C114.376,34.294 113.931,33.817 113.619,33.196 C113.309,32.573 113.154,31.849 113.154,31.018 C113.154,29.728 113.49,28.724 114.164,28.007 C114.838,27.29 115.785,26.933 117.006,26.933 C117.764,26.933 118.434,27.099 119.013,27.427 C119.593,27.757 120.038,28.232 120.349,28.849 C120.66,29.466 120.816,30.189 120.816,31.018 Z" id="Fill-8"></path>
            <path d="M123.897,31.018 C123.897,31.8 124.025,32.391 124.281,32.792 C124.538,33.192 124.957,33.394 125.536,33.394 C126.112,33.394 126.525,33.194 126.777,32.796 C127.029,32.397 127.156,31.806 127.156,31.018 C127.156,30.236 127.028,29.65 126.774,29.259 C126.519,28.867 126.102,28.671 125.523,28.671 C124.948,28.671 124.532,28.867 124.279,29.255 C124.024,29.644 123.897,30.232 123.897,31.018 Z M129.361,31.018 C129.361,32.306 129.022,33.311 128.343,34.036 C127.664,34.763 126.719,35.126 125.508,35.126 C124.749,35.126 124.08,34.96 123.5,34.626 C122.921,34.294 122.476,33.817 122.164,33.196 C121.854,32.573 121.698,31.849 121.698,31.018 C121.698,29.728 122.035,28.724 122.709,28.007 C123.383,27.29 124.33,26.933 125.551,26.933 C126.309,26.933 126.979,27.099 127.558,27.427 C128.138,27.757 128.583,28.232 128.894,28.849 C129.205,29.466 129.361,30.189 129.361,31.018 Z" id="Fill-9"></path>
            <path d="M134.016,33.407 C134.567,33.407 134.971,33.247 135.228,32.927 C135.485,32.606 135.625,32.062 135.649,31.294 L135.649,31.061 C135.649,30.212 135.518,29.605 135.256,29.238 C134.994,28.871 134.57,28.687 133.981,28.687 C133.499,28.687 133.126,28.89 132.86,29.298 C132.594,29.704 132.46,30.298 132.46,31.075 C132.46,31.852 132.595,32.437 132.864,32.825 C133.132,33.214 133.516,33.407 134.016,33.407 Z M133.259,35.126 C132.331,35.126 131.602,34.765 131.072,34.044 C130.541,33.323 130.277,32.323 130.277,31.046 C130.277,29.751 130.546,28.742 131.085,28.019 C131.625,27.294 132.368,26.933 133.316,26.933 C134.31,26.933 135.069,27.32 135.592,28.093 L135.662,28.093 C135.554,27.503 135.5,26.978 135.5,26.517 L135.5,23.986 L137.663,23.986 L137.663,34.983 L136.009,34.983 L135.592,33.958 L135.5,33.958 C135.01,34.737 134.263,35.126 133.259,35.126 Z" id="Fill-10"></path>
            <path d="M145.228,29.513 L145.949,29.513 C146.623,29.513 147.127,29.38 147.462,29.115 C147.796,28.847 147.964,28.46 147.964,27.951 C147.964,27.437 147.823,27.058 147.543,26.814 C147.263,26.568 146.823,26.445 146.225,26.445 L145.228,26.445 L145.228,29.513 Z M150.176,27.872 C150.176,28.986 149.828,29.835 149.134,30.425 C148.439,31.015 147.45,31.308 146.168,31.308 L145.228,31.308 L145.228,34.983 L143.037,34.983 L143.037,24.65 L146.338,24.65 C147.591,24.65 148.544,24.919 149.198,25.458 C149.85,26 150.176,26.804 150.176,27.872 Z" id="Fill-11"></path>
            <path d="M155.804,26.933 C156.096,26.933 156.339,26.954 156.532,26.997 L156.369,29.019 C156.196,28.972 155.983,28.947 155.734,28.947 C155.045,28.947 154.509,29.124 154.125,29.478 C153.741,29.831 153.549,30.326 153.549,30.962 L153.549,34.983 L151.393,34.983 L151.393,27.081 L153.026,27.081 L153.344,28.41 L153.45,28.41 C153.696,27.968 154.027,27.611 154.444,27.339 C154.861,27.068 155.314,26.933 155.804,26.933" id="Fill-12"></path>
            <path d="M159.214,31.018 C159.214,31.8 159.343,32.391 159.6,32.792 C159.857,33.192 160.275,33.394 160.855,33.394 C161.429,33.394 161.843,33.194 162.095,32.796 C162.347,32.397 162.473,31.806 162.473,31.018 C162.473,30.236 162.346,29.65 162.091,29.259 C161.837,28.867 161.42,28.671 160.84,28.671 C160.265,28.671 159.851,28.867 159.596,29.255 C159.342,29.644 159.214,30.232 159.214,31.018 Z M164.678,31.018 C164.678,32.306 164.339,33.311 163.66,34.036 C162.982,34.763 162.037,35.126 160.826,35.126 C160.068,35.126 159.398,34.96 158.819,34.626 C158.239,34.294 157.793,33.817 157.483,33.196 C157.171,32.573 157.016,31.849 157.016,31.018 C157.016,29.728 157.353,28.724 158.027,28.007 C158.7,27.29 159.648,26.933 160.868,26.933 C161.627,26.933 162.296,27.099 162.876,27.427 C163.455,27.757 163.901,28.232 164.212,28.849 C164.523,29.466 164.678,30.189 164.678,31.018 Z" id="Fill-13"></path>
            <path d="M167.595,29.669 C167.595,30.097 167.693,30.436 167.888,30.686 C168.083,30.936 168.381,31.061 168.782,31.061 C169.188,31.061 169.485,30.936 169.673,30.686 C169.862,30.436 169.955,30.097 169.955,29.669 C169.955,28.716 169.565,28.242 168.782,28.242 C167.99,28.242 167.595,28.716 167.595,29.669 Z M166.81,36.1 C166.81,36.397 166.952,36.632 167.238,36.8 C167.523,36.97 167.922,37.056 168.436,37.056 C169.208,37.056 169.814,36.948 170.252,36.737 C170.691,36.524 170.909,36.235 170.909,35.868 C170.909,35.571 170.781,35.366 170.521,35.253 C170.262,35.14 169.862,35.083 169.32,35.083 L168.202,35.083 C167.807,35.083 167.476,35.177 167.209,35.362 C166.943,35.548 166.81,35.794 166.81,36.1 Z M172.91,27.081 L172.91,28.177 L171.673,28.496 C171.9,28.849 172.012,29.246 172.012,29.683 C172.012,30.53 171.717,31.192 171.125,31.665 C170.533,32.14 169.713,32.376 168.662,32.376 L168.273,32.354 L167.955,32.319 C167.734,32.489 167.622,32.677 167.622,32.884 C167.622,33.196 168.019,33.35 168.811,33.35 L170.154,33.35 C171.021,33.35 171.681,33.538 172.136,33.909 C172.591,34.282 172.819,34.829 172.819,35.55 C172.819,36.474 172.433,37.188 171.662,37.698 C170.892,38.208 169.785,38.462 168.344,38.462 C167.241,38.462 166.399,38.27 165.817,37.886 C165.235,37.501 164.944,36.964 164.944,36.27 C164.944,35.794 165.092,35.395 165.389,35.075 C165.686,34.755 166.121,34.526 166.697,34.39 C166.475,34.296 166.282,34.141 166.117,33.927 C165.952,33.712 165.869,33.485 165.869,33.245 C165.869,32.944 165.957,32.692 166.131,32.493 C166.306,32.292 166.558,32.095 166.888,31.901 C166.473,31.724 166.144,31.434 165.902,31.04 C165.658,30.643 165.537,30.177 165.537,29.64 C165.537,28.779 165.818,28.111 166.379,27.64 C166.94,27.169 167.74,26.933 168.782,26.933 C169.003,26.933 169.266,26.953 169.571,26.994 C169.874,27.033 170.069,27.062 170.154,27.081 L172.91,27.081 Z" id="Fill-14"></path>
            <path d="M178.195,26.933 C178.487,26.933 178.73,26.954 178.923,26.997 L178.76,29.019 C178.586,28.972 178.373,28.947 178.124,28.947 C177.436,28.947 176.9,29.124 176.516,29.478 C176.132,29.831 175.94,30.326 175.94,30.962 L175.94,34.983 L173.783,34.983 L173.783,27.081 L175.416,27.081 L175.735,28.41 L175.841,28.41 C176.086,27.968 176.417,27.611 176.834,27.339 C177.251,27.068 177.704,26.933 178.195,26.933" id="Fill-15"></path>
            <path d="M184.125,31.323 L183.291,31.35 C182.664,31.37 182.198,31.483 181.891,31.69 C181.585,31.897 181.432,32.214 181.432,32.638 C181.432,33.245 181.781,33.55 182.478,33.55 C182.978,33.55 183.376,33.405 183.676,33.118 C183.975,32.831 184.125,32.448 184.125,31.972 L184.125,31.323 Z M184.761,34.983 L184.344,33.909 L184.287,33.909 C183.924,34.366 183.551,34.683 183.167,34.86 C182.782,35.036 182.282,35.126 181.665,35.126 C180.906,35.126 180.309,34.909 179.873,34.475 C179.437,34.042 179.219,33.425 179.219,32.622 C179.219,31.784 179.513,31.165 180.099,30.766 C180.686,30.37 181.571,30.15 182.753,30.107 L184.125,30.064 L184.125,29.718 C184.125,28.917 183.715,28.517 182.895,28.517 C182.263,28.517 181.521,28.706 180.668,29.089 L179.954,27.632 C180.864,27.158 181.872,26.919 182.98,26.919 C184.04,26.919 184.853,27.15 185.418,27.611 C185.984,28.074 186.267,28.775 186.267,29.718 L186.267,34.983 L184.761,34.983 Z" id="Fill-16"></path>
            <path d="M195.045,34.983 L192.889,34.983 L192.889,30.369 C192.889,29.798 192.794,29.37 192.603,29.085 C192.412,28.8 192.112,28.658 191.701,28.658 C191.151,28.658 190.749,28.861 190.5,29.265 C190.25,29.671 190.125,30.337 190.125,31.266 L190.125,34.983 L187.969,34.983 L187.969,27.081 L189.616,27.081 L189.906,28.093 L190.027,28.093 C190.239,27.73 190.544,27.445 190.946,27.24 C191.346,27.037 191.805,26.933 192.323,26.933 C193.506,26.933 194.308,27.32 194.727,28.093 L194.918,28.093 C195.13,27.724 195.442,27.439 195.855,27.238 C196.267,27.035 196.732,26.933 197.25,26.933 C198.146,26.933 198.823,27.164 199.282,27.622 C199.742,28.082 199.972,28.818 199.972,29.831 L199.972,34.983 L197.809,34.983 L197.809,30.369 C197.809,29.798 197.713,29.37 197.523,29.085 C197.331,28.8 197.031,28.658 196.621,28.658 C196.094,28.658 195.698,28.847 195.438,29.224 C195.176,29.601 195.045,30.199 195.045,31.018 L195.045,34.983" id="Fill-17"></path>
            <path d="M208.75,34.983 L206.595,34.983 L206.595,30.369 C206.595,29.798 206.499,29.37 206.309,29.085 C206.117,28.8 205.818,28.658 205.407,28.658 C204.856,28.658 204.455,28.861 204.205,29.265 C203.955,29.671 203.831,30.337 203.831,31.266 L203.831,34.983 L201.675,34.983 L201.675,27.081 L203.322,27.081 L203.612,28.093 L203.732,28.093 C203.944,27.73 204.25,27.445 204.651,27.24 C205.051,27.037 205.511,26.933 206.03,26.933 C207.212,26.933 208.013,27.32 208.433,28.093 L208.623,28.093 C208.835,27.724 209.148,27.439 209.56,27.238 C209.972,27.035 210.438,26.933 210.956,26.933 C211.852,26.933 212.529,27.164 212.989,27.622 C213.448,28.082 213.678,28.818 213.678,29.831 L213.678,34.983 L211.515,34.983 L211.515,30.369 C211.515,29.798 211.419,29.37 211.228,29.085 C211.037,28.8 210.737,28.658 210.327,28.658 C209.799,28.658 209.405,28.847 209.143,29.224 C208.881,29.601 208.75,30.199 208.75,31.018 L208.75,34.983" id="Fill-18"></path>
            <path d="M218.701,28.466 C218.244,28.466 217.886,28.613 217.626,28.902 C217.367,29.191 217.219,29.603 217.181,30.136 L220.206,30.136 C220.198,29.603 220.058,29.191 219.789,28.902 C219.521,28.613 219.158,28.466 218.701,28.466 Z M219.005,35.126 C217.733,35.126 216.739,34.774 216.022,34.071 C215.306,33.37 214.948,32.376 214.948,31.089 C214.948,29.765 215.279,28.742 215.941,28.019 C216.603,27.294 217.518,26.933 218.687,26.933 C219.804,26.933 220.673,27.251 221.295,27.888 C221.917,28.523 222.229,29.402 222.229,30.524 L222.229,31.569 L217.132,31.569 C217.156,32.183 217.337,32.661 217.676,33.005 C218.016,33.349 218.491,33.52 219.104,33.52 C219.58,33.52 220.031,33.472 220.454,33.372 C220.878,33.272 221.322,33.116 221.783,32.899 L221.783,34.567 C221.406,34.755 221.003,34.895 220.574,34.987 C220.146,35.079 219.622,35.126 219.005,35.126 Z" id="Fill-19"></path>
        </g>
    </g>
</svg>