<?xml version="1.0" encoding="UTF-8"?>
<svg width="284px" height="58px" viewBox="0 0 284 58" version="1.1" xmlns="http://www.w3.org/2000/svg" xmlns:xlink="http://www.w3.org/1999/xlink">
    <!-- Generator: Sketch 48.2 (47327) - http://www.bohemiancoding.com/sketch -->
    <title>extended/fr/wfp-logo-extended-blue-fr</title>
    <desc>Created with Sketch.</desc>
    <defs></defs>
    <g id="Blue" stroke="none" stroke-width="1" fill="none" fill-rule="evenodd" transform="translate(-688.000000, -425.000000)">
        <g id="extended/fr/wfp-logo-extended-blue-fr" transform="translate(688.000000, 425.000000)" fill="#0A6EB4">
            <path d="M35.934,4.664 L36.482,4.664 C36.993,4.664 37.377,4.563 37.631,4.36 C37.885,4.158 38.012,3.863 38.012,3.477 C38.012,3.087 37.905,2.799 37.693,2.612 C37.479,2.426 37.146,2.332 36.691,2.332 L35.934,2.332 L35.934,4.664 Z M39.694,3.418 C39.694,4.263 39.429,4.909 38.901,5.356 C38.373,5.805 37.622,6.028 36.648,6.028 L35.934,6.028 L35.934,8.821 L34.269,8.821 L34.269,0.969 L36.777,0.969 C37.729,0.969 38.453,1.173 38.95,1.584 C39.446,1.994 39.694,2.605 39.694,3.418 Z M30.157,8.821 L28.519,8.821 L28.519,0.969 L33.02,0.969 L33.02,2.332 L30.157,2.332 L30.157,4.358 L32.821,4.358 L32.821,5.717 L30.157,5.717 L30.157,8.821 Z M25.632,8.821 L23.736,8.821 L22.673,4.696 C22.633,4.549 22.566,4.246 22.471,3.786 C22.376,3.325 22.322,3.016 22.307,2.859 C22.286,3.053 22.232,3.364 22.147,3.791 C22.06,4.219 21.994,4.525 21.948,4.707 L20.889,8.821 L18.999,8.821 L16.995,0.969 L18.634,0.969 L19.638,5.254 C19.814,6.046 19.941,6.732 20.019,7.312 C20.041,7.108 20.09,6.792 20.167,6.364 C20.244,5.935 20.317,5.603 20.385,5.368 L21.529,0.969 L23.102,0.969 L24.246,5.368 C24.297,5.564 24.359,5.866 24.435,6.27 C24.509,6.675 24.567,7.022 24.606,7.312 C24.642,7.032 24.7,6.684 24.778,6.267 C24.857,5.85 24.928,5.513 24.993,5.254 L25.992,0.969 L27.63,0.969 L25.632,8.821 Z M21.56,36.134 C18.508,36.134 16.55,36.858 16.015,37.083 C15.984,37.097 15.958,37.052 15.983,37.027 C19.335,33.542 23.26,33.734 24.205,33.734 C25.16,33.734 35.366,33.734 35.366,33.734 C35.929,33.734 36.385,34.271 36.385,34.935 C36.385,35.597 35.929,36.134 35.366,36.134 C35.366,36.134 24.166,36.134 21.56,36.134 Z M24.074,39.219 C20.786,39.219 19.828,37.351 14.852,38.584 C14.818,38.593 14.795,38.546 14.824,38.526 C17.598,36.623 20.615,36.796 21.835,36.796 C22.79,36.796 35.366,36.796 35.366,36.796 C35.929,36.796 36.385,37.333 36.385,37.995 C36.385,38.657 35.929,39.194 35.366,39.194 C35.366,39.194 26.677,39.219 24.074,39.219 Z M24.307,42.256 C20.933,42.256 20.663,39.766 15.661,39.205 C15.626,39.201 15.622,39.149 15.656,39.141 C19.765,38.113 21.294,39.856 23.693,39.856 C24.649,39.856 35.366,39.856 35.366,39.856 C35.929,39.856 36.385,40.393 36.385,41.056 C36.385,41.719 35.929,42.256 35.366,42.256 C35.366,42.256 26.913,42.256 24.307,42.256 Z M23.575,33.073 C20.859,33.073 18.607,34.258 18.08,34.557 C18.051,34.573 18.021,34.538 18.04,34.511 C18.481,33.862 20.86,30.674 24.95,30.674 C25.905,30.674 35.366,30.674 35.366,30.674 C35.929,30.674 36.385,31.211 36.385,31.874 C36.385,32.536 35.929,33.073 35.366,33.073 C35.366,33.073 26.181,33.073 23.575,33.073 Z M38.516,26.448 C38.411,26.342 38.254,26.265 38.073,26.243 C37.938,26.225 37.818,26.246 37.71,26.286 C37.758,26.187 37.797,26.081 37.812,25.956 C37.839,25.763 37.802,25.581 37.729,25.444 C37.393,24.708 38.353,23.235 38.233,23.169 C38.117,23.105 37.571,24.729 37.041,25.385 C36.939,25.505 36.865,25.677 36.842,25.874 C36.823,26.068 36.855,26.251 36.928,26.387 C37.002,26.519 37.114,26.613 37.246,26.621 C37.282,26.626 37.319,26.623 37.353,26.615 C37.345,26.634 37.338,26.655 37.335,26.674 C37.314,26.817 37.369,26.953 37.477,27.062 C37.582,27.173 37.737,27.247 37.918,27.269 C38.104,27.293 38.277,27.256 38.411,27.176 C39.13,26.783 40.621,26.395 40.589,26.257 C40.56,26.119 39.106,26.972 38.516,26.448 Z M39.616,25.374 C39.516,25.266 39.374,25.191 39.209,25.175 C39.114,25.17 39.028,25.186 38.941,25.218 C38.954,25.172 38.972,25.133 38.978,25.087 C38.996,24.912 38.954,24.75 38.875,24.625 C38.511,23.948 39.463,22.669 39.34,22.606 C39.217,22.542 38.694,23.974 38.164,24.54 C38.059,24.641 37.986,24.79 37.967,24.965 C37.951,25.141 37.991,25.306 38.067,25.43 C38.151,25.553 38.266,25.64 38.405,25.659 C38.466,25.664 38.529,25.653 38.584,25.638 C38.581,25.645 38.574,25.656 38.576,25.664 C38.563,25.813 38.618,25.956 38.716,26.062 C38.815,26.169 38.959,26.243 39.119,26.257 C39.285,26.272 39.437,26.227 39.553,26.14 C40.172,25.693 41.589,25.428 41.552,25.284 C41.518,25.146 40.161,25.895 39.616,25.374 Z M40.579,24.381 C40.476,24.304 40.337,24.261 40.19,24.277 C40.119,24.28 40.054,24.301 39.993,24.328 C40.004,24.298 40.022,24.274 40.033,24.245 C40.072,24.094 40.059,23.939 40.009,23.815 C39.778,23.15 40.801,22.167 40.702,22.087 C40.602,22.013 39.938,23.204 39.392,23.623 C39.287,23.701 39.203,23.823 39.161,23.977 C39.117,24.125 39.13,24.282 39.182,24.405 C39.237,24.53 39.327,24.622 39.447,24.66 C39.539,24.689 39.631,24.67 39.718,24.633 C39.7,24.683 39.689,24.742 39.694,24.803 C39.707,24.939 39.773,25.053 39.881,25.133 C39.983,25.212 40.122,25.252 40.266,25.242 C40.416,25.226 40.545,25.162 40.633,25.066 C41.125,24.569 42.347,24.104 42.298,23.985 C42.245,23.865 41.146,24.75 40.579,24.381 Z M42.473,22.247 C42.371,22.096 41.515,23.034 40.883,23.124 C40.765,23.14 40.633,23.198 40.524,23.302 C40.405,23.408 40.329,23.538 40.303,23.663 C40.274,23.786 40.293,23.905 40.358,23.987 C40.429,24.073 40.537,24.11 40.657,24.096 C40.778,24.083 40.904,24.025 41.022,23.915 C41.133,23.812 41.209,23.682 41.238,23.559 C41.429,22.916 42.55,22.345 42.473,22.247 Z M24.779,23.517 C24.754,23.61 24.57,24.333 24.57,24.333 C24.517,24.362 24.297,24.314 24.239,24.309 C23.817,24.269 23.439,23.902 23.601,23.464 C23.734,23.106 24.005,23.068 24.349,23.052 C24.492,23.046 24.749,23.08 24.878,23.169 C24.878,23.169 24.827,23.334 24.779,23.517 Z M24.294,25.699 C24.281,25.781 24.268,25.863 24.255,25.946 C23.992,25.781 23.838,25.404 23.964,25.106 C24.061,24.88 24.301,24.821 24.478,24.811 C24.415,25.106 24.352,25.401 24.294,25.699 Z M23.916,28.395 C23.883,28.58 23.633,28.605 23.462,28.656 C22.966,28.805 22.496,28.741 22.344,28.148 C22.179,27.514 22.659,27.247 23.174,27.123 C23.454,27.057 23.714,27.112 23.906,27.349 C23.954,27.408 24.011,27.461 24.024,27.517 C24.024,27.517 23.947,28.221 23.916,28.395 Z M22.355,25.273 C22.738,25.181 23.134,25.037 23.428,25.414 C23.738,25.81 23.635,26.445 23.137,26.613 C22.809,26.724 22.412,26.82 22.132,26.552 C21.764,26.201 21.791,25.404 22.355,25.273 Z M21.98,23.217 C22.383,23.119 22.801,22.97 23.111,23.366 C23.433,23.78 23.326,24.45 22.803,24.625 C22.457,24.739 22.04,24.84 21.746,24.558 C21.36,24.192 21.389,23.355 21.98,23.217 Z M21.604,27.662 C21.499,28.032 21.195,28.087 20.875,28.164 C20.665,27.907 20.101,27.255 20.091,27.178 C20.088,27.153 20.091,27.124 20.103,27.088 C20.129,27.011 20.219,26.937 20.284,26.894 C20.476,26.769 20.885,26.677 21.106,26.722 C21.502,26.807 21.709,27.29 21.604,27.662 Z M19.599,25.763 C19.31,24.739 21.027,24.293 21.292,25.297 C21.565,26.329 19.833,26.767 19.599,25.763 Z M19.347,23.719 C19.053,22.702 20.778,22.255 21.043,23.254 C21.316,24.287 19.581,24.726 19.347,23.719 Z M19.106,21.71 C18.825,20.762 20.444,20.342 20.691,21.277 C20.946,22.239 19.326,22.654 19.106,21.71 Z M18.94,25.577 C18.861,25.624 18.831,25.649 18.804,25.649 L18.034,24.811 C18.043,24.787 18.281,24.615 18.361,24.569 C19.001,24.213 19.528,25.231 18.94,25.577 Z M17.479,23.69 C17.098,22.85 18.484,21.939 18.904,22.845 C19.289,23.679 17.904,24.606 17.479,23.69 Z M18.644,21.03 C19.082,21.809 17.762,22.678 17.384,21.84 C17.048,21.118 18.221,20.275 18.644,21.03 Z M17.536,19.215 C17.731,19.043 17.956,18.95 18.187,19.061 C18.557,19.239 18.568,19.794 18.245,20.015 C18.098,20.116 17.849,20.241 17.668,20.196 C17.271,20.095 17.196,19.516 17.536,19.215 Z M17.586,17.546 C17.746,17.438 17.959,17.341 18.143,17.416 C18.477,17.553 18.466,18.038 18.195,18.232 C18.071,18.32 17.849,18.429 17.699,18.389 C17.361,18.304 17.278,17.755 17.586,17.546 Z M18.473,15.168 C18.672,15.061 18.959,15.016 19.137,15.216 C19.347,15.451 19.279,15.809 19.003,15.95 C18.791,16.056 18.505,16.096 18.337,15.899 C18.153,15.687 18.191,15.321 18.473,15.168 Z M18.316,16.975 C18.155,16.38 19.158,16.099 19.321,16.704 C19.502,17.291 18.476,17.584 18.316,16.975 Z M19.932,18.014 C20.166,18.657 19.077,19.021 18.865,18.386 C18.647,17.743 19.741,17.376 19.932,18.014 Z M20.069,14.881 C20.277,14.798 20.543,14.708 20.775,14.881 C21.064,15.097 21.001,15.583 20.67,15.734 C20.452,15.833 20.174,15.899 19.98,15.726 C19.733,15.506 19.719,15.021 20.069,14.881 Z M19.877,20.262 C19.583,20.331 19.276,20.448 19.033,20.196 C18.72,19.874 18.809,19.311 19.232,19.157 C19.505,19.053 19.851,18.995 20.074,19.223 C20.36,19.516 20.329,20.153 19.877,20.262 Z M19.883,16.978 C19.694,16.34 20.733,16.013 20.932,16.632 C21.137,17.267 20.061,17.605 19.883,16.978 Z M21.623,18.147 C21.866,18.875 20.636,19.263 20.41,18.546 C20.182,17.812 21.421,17.424 21.623,18.147 Z M21.688,16.197 C21.905,16.139 22.134,16.16 22.3,16.337 C22.551,16.608 22.465,17.071 22.092,17.14 C21.917,17.172 21.646,17.159 21.509,17.039 C21.263,16.821 21.275,16.308 21.688,16.197 Z M22.738,17.725 C23.134,17.725 23.334,18.307 23.103,18.596 C22.964,18.771 22.664,18.782 22.46,18.75 C22.082,18.692 21.841,18.205 22.095,17.876 C22.25,17.677 22.515,17.725 22.738,17.725 Z M20.835,20.121 C20.591,19.284 22.013,18.91 22.231,19.741 C22.452,20.586 21.022,20.958 20.835,20.121 Z M21.707,21.192 C22.095,21.152 22.499,21.062 22.738,21.469 C22.987,21.899 22.801,22.497 22.297,22.598 C21.967,22.667 21.565,22.699 21.329,22.406 C21.019,22.019 21.142,21.245 21.707,21.192 Z M23.681,19.328 C24.161,19.526 24.323,20.092 23.985,20.408 C23.803,20.573 23.473,20.541 23.25,20.496 C22.803,20.408 22.512,19.738 22.903,19.42 C23.104,19.257 23.463,19.237 23.681,19.328 Z M24.436,21.346 C24.738,21.716 24.625,22.369 24.097,22.401 C23.822,22.417 23.462,22.385 23.276,22.159 C22.977,21.798 23.09,21.12 23.617,21.102 C23.893,21.091 24.25,21.12 24.436,21.346 Z M26.475,14.682 C26.446,14.64 26.394,14.616 26.341,14.632 C26.278,14.653 26.236,14.722 26.26,14.783 C27.465,18.02 25.926,19.614 25.283,21.88 C24.512,20.039 27.068,18.307 25.751,14.951 C25.732,14.908 25.698,14.873 25.651,14.866 C25.585,14.857 25.522,14.884 25.512,14.972 C25.478,15.208 25.323,17.068 23.814,18.158 C23.659,17.802 23.431,17.43 23.111,17.137 C22.971,16.51 22.562,15.649 21.701,15.395 C21.573,15.07 21.313,14.605 20.814,14.355 C20.344,14.121 19.801,14.142 19.197,14.416 C18.468,14.501 17.967,14.786 17.702,15.261 C17.452,15.71 17.497,16.199 17.581,16.532 C16.967,17.188 16.938,18.16 16.954,18.541 C16.589,19.417 16.794,20.44 16.909,20.865 C16.473,22.056 16.899,23.211 17.069,23.594 C17.069,23.698 17.074,23.796 17.08,23.894 C15.652,22.332 12.403,20.397 11.162,19.659 C11.104,19.624 11.031,19.632 10.981,19.68 C10.918,19.739 10.915,19.834 10.973,19.898 C13.742,22.598 16.211,25.93 18.583,32.844 C19.767,31.613 21.906,29.995 24.95,29.995 L28.511,29.995 C26.249,21.567 29.543,18.551 26.475,14.682 Z M43.311,19.04 C42.66,18.87 38.503,18.134 33.844,26.703 C34.524,23.512 36.59,19.651 37.157,18.53 L37.157,18.522 C37.191,18.458 37.172,18.375 37.114,18.33 C37.057,18.288 36.97,18.301 36.925,18.365 C33.847,23.498 32.766,26.456 32.128,29.995 L34.057,29.995 C34.385,26.583 38.694,18.546 43.287,19.143 L43.292,19.143 C43.319,19.149 43.342,19.127 43.345,19.104 C43.355,19.074 43.337,19.045 43.311,19.04 Z M34.049,47.272 L33.007,42.917 L31.233,42.917 C31.514,44.022 31.915,45.146 32.435,46.132 C32.47,46.19 32.533,46.225 32.595,46.215 C32.679,46.204 32.745,46.116 32.729,46.025 C32.608,45.103 32.464,44.214 32.327,43.326 C32.703,44.721 33.209,46.084 33.892,47.339 C33.91,47.378 33.95,47.396 33.986,47.384 C34.036,47.373 34.062,47.32 34.049,47.272 Z M35.842,45.295 C35.66,44.567 35.471,43.674 35.309,42.917 L34.634,42.917 C34.897,43.725 35.251,44.626 35.566,45.396 C35.597,45.471 35.668,45.508 35.737,45.489 C35.818,45.465 35.862,45.378 35.842,45.295 Z M36.067,47.856 L36.062,47.846 C35.844,47.237 35.542,46.692 35.303,46.108 C35.049,45.523 34.802,44.949 34.597,44.35 C34.427,43.9 34.246,43.385 34.107,42.917 L33.456,42.917 C33.64,43.462 33.879,44.049 34.102,44.575 C34.592,45.763 35.159,46.927 35.881,47.968 C35.907,48.006 35.957,48.021 36.004,48.003 C36.062,47.981 36.088,47.915 36.067,47.856 Z M37.041,26.956 C36.991,26.881 36.87,26.865 36.813,26.926 C35.629,28.175 34.912,29.504 34.666,29.995 L35.369,29.995 C35.721,29.169 36.513,27.71 37.023,27.184 L37.028,27.179 C37.08,27.12 37.091,27.022 37.041,26.956 Z M31.687,20.911 C32.338,19.842 33.304,19.024 34.123,18.036 C34.152,17.998 34.149,17.94 34.115,17.908 C34.083,17.873 34.03,17.873 33.997,17.905 C33.81,18.104 33.616,18.291 33.417,18.476 C33.33,18.434 33.11,18.519 32.886,18.694 C32.711,18.833 32.585,18.987 32.54,19.098 C32.427,19.072 32.215,19.204 32.023,19.449 C31.866,19.654 31.774,19.869 31.776,20.002 C31.655,20.012 31.48,20.166 31.33,20.411 C31.233,20.573 31.17,20.73 31.149,20.86 C31.052,20.926 30.942,21.051 30.84,21.213 C30.706,21.437 30.637,21.662 30.658,21.792 C30.627,21.849 30.595,21.902 30.569,21.957 C30.575,21.912 30.58,21.87 30.585,21.825 C30.777,20.312 31.054,18.814 31.477,17.369 C31.902,15.928 32.411,14.475 33.285,13.308 L33.291,13.303 C33.335,13.239 33.33,13.152 33.275,13.093 C33.22,13.032 33.128,13.029 33.07,13.09 C32.768,13.412 32.514,13.771 32.285,14.14 C32.186,14.087 31.976,14.284 31.816,14.592 C31.669,14.87 31.616,15.128 31.672,15.227 C31.672,15.227 31.669,15.235 31.663,15.232 C31.558,15.187 31.364,15.421 31.246,15.734 C31.131,16.029 31.11,16.3 31.189,16.391 C31.183,16.396 31.183,16.399 31.18,16.404 C31.063,16.361 30.871,16.63 30.753,17.01 C30.655,17.331 30.645,17.61 30.716,17.722 C30.721,17.727 30.716,17.741 30.711,17.738 C30.59,17.695 30.407,17.972 30.299,18.349 C30.191,18.713 30.199,19.035 30.301,19.098 C30.183,19.085 30.018,19.361 29.931,19.736 C29.853,20.06 29.861,20.339 29.937,20.451 C29.821,20.485 29.693,20.756 29.627,21.107 C29.564,21.45 29.595,21.734 29.679,21.825 C29.572,21.88 29.462,22.159 29.422,22.505 C29.383,22.848 29.433,23.129 29.522,23.22 C29.433,23.32 29.346,23.559 29.309,23.847 C29.273,24.12 29.296,24.357 29.349,24.49 C29.252,24.572 29.178,24.849 29.175,25.181 C29.168,25.446 29.207,25.672 29.275,25.802 C29.223,25.935 29.186,26.129 29.186,26.344 C29.181,26.623 29.225,26.862 29.296,26.987 C29.275,27.968 29.288,29.012 29.341,29.995 L31.459,29.995 C31.474,29.23 31.525,28.395 31.6,27.638 C31.75,26.288 31.973,24.917 32.648,23.764 L32.653,23.756 C32.674,23.714 32.671,23.666 32.64,23.629 C32.6,23.594 32.545,23.594 32.508,23.637 C31.592,24.7 31.191,26.143 30.955,27.527 C30.913,27.798 30.879,28.071 30.847,28.343 C30.905,27.232 31.008,26.126 31.262,25.074 C31.553,23.793 32.136,22.574 33.246,21.891 C33.28,21.87 33.299,21.825 33.285,21.779 C33.272,21.729 33.22,21.7 33.175,21.713 C33.104,21.734 33.039,21.771 32.97,21.801 C32.897,21.71 32.627,21.777 32.348,21.954 C32.083,22.127 31.908,22.34 31.926,22.457 C31.926,22.462 31.913,22.47 31.913,22.459 C31.91,22.446 31.908,22.433 31.9,22.425 C31.8,22.343 31.533,22.529 31.306,22.845 C31.078,23.161 30.989,23.491 31.086,23.576 C31.092,23.578 31.089,23.586 31.084,23.586 C30.966,23.538 30.769,23.807 30.645,24.182 C30.556,24.444 30.535,24.686 30.567,24.825 C30.567,24.829 30.561,24.835 30.561,24.835 C30.469,25.138 30.393,25.444 30.322,25.754 C30.349,25.316 30.388,24.875 30.451,24.439 C30.637,23.185 31.015,21.957 31.687,20.911 Z M38.35,17.413 C38.217,17.35 38.041,17.334 37.865,17.376 C37.734,17.408 37.629,17.472 37.539,17.546 C37.553,17.435 37.553,17.323 37.521,17.201 C37.479,17.01 37.384,16.853 37.269,16.752 C36.697,16.181 37.091,14.461 36.957,14.44 C36.826,14.422 36.873,16.136 36.603,16.938 C36.548,17.087 36.537,17.275 36.584,17.467 C36.632,17.656 36.726,17.815 36.844,17.918 C36.957,18.017 37.093,18.062 37.222,18.022 C37.256,18.017 37.29,18.001 37.319,17.979 C37.319,18.001 37.319,18.022 37.321,18.043 C37.351,18.184 37.45,18.293 37.587,18.357 C37.726,18.423 37.897,18.439 38.075,18.394 C38.256,18.351 38.405,18.253 38.503,18.134 C39.041,17.509 40.306,16.619 40.23,16.5 C40.154,16.383 39.085,17.695 38.35,17.413 Z M40.797,15.248 C40.715,15.131 39.702,16.313 39.012,16.018 C38.881,15.952 38.721,15.933 38.56,15.976 C38.471,16.003 38.395,16.051 38.324,16.109 C38.321,16.061 38.324,16.018 38.314,15.976 C38.272,15.804 38.177,15.668 38.059,15.578 C37.482,15.073 37.936,13.537 37.8,13.521 C37.66,13.505 37.663,15.033 37.364,15.75 C37.3,15.883 37.282,16.048 37.327,16.218 C37.369,16.388 37.464,16.529 37.582,16.619 C37.7,16.704 37.839,16.744 37.975,16.712 C38.035,16.696 38.088,16.664 38.136,16.63 C38.136,16.638 38.133,16.648 38.136,16.656 C38.177,16.803 38.277,16.917 38.405,16.983 C38.537,17.044 38.697,17.065 38.852,17.02 C39.012,16.978 39.138,16.88 39.217,16.76 C39.644,16.12 40.878,15.37 40.797,15.248 Z M41.046,13.768 C40.956,13.675 40.23,14.892 39.571,14.746 C39.447,14.711 39.303,14.719 39.172,14.786 C39.106,14.812 39.051,14.857 39.004,14.903 C39.004,14.873 39.012,14.844 39.012,14.812 C38.996,14.658 38.933,14.515 38.841,14.419 C38.398,13.877 39.014,12.594 38.896,12.554 C38.776,12.519 38.566,13.869 38.199,14.456 C38.125,14.568 38.088,14.711 38.104,14.868 C38.114,15.025 38.18,15.166 38.272,15.264 C38.366,15.362 38.482,15.416 38.608,15.408 C38.702,15.405 38.783,15.354 38.852,15.288 C38.852,15.341 38.862,15.399 38.888,15.455 C38.946,15.578 39.049,15.662 39.175,15.697 C39.298,15.737 39.445,15.726 39.576,15.662 C39.71,15.596 39.807,15.49 39.86,15.37 C40.148,14.73 41.133,13.861 41.046,13.768 Z M40.61,12.078 C40.461,11.972 39.986,13.154 39.421,13.462 C39.316,13.518 39.217,13.619 39.146,13.757 C39.075,13.898 39.049,14.047 39.067,14.172 C39.08,14.297 39.138,14.403 39.23,14.456 C39.325,14.512 39.437,14.509 39.545,14.454 C39.655,14.398 39.752,14.297 39.825,14.156 C39.894,14.018 39.92,13.869 39.904,13.744 C39.862,13.075 40.715,12.144 40.61,12.078 Z M30.252,42.917 L24.307,42.917 C23.903,42.917 23.538,42.885 23.202,42.824 C23.205,42.824 23.205,42.826 23.205,42.826 C24.181,44.277 25.711,45.378 27.262,46.116 C27.501,47.439 27.8,48.664 27.908,48.76 C28.018,48.855 29.54,48.417 29.588,48.276 C29.632,48.136 28.966,45.869 28.966,45.869 C29.766,44.495 30.013,43.684 30.252,42.917 Z M45.205,53.086 C43.704,53.679 41.746,53.728 40.148,53.304 C36.487,52.164 32.422,50.004 28.519,51.797 C24.617,50.004 20.552,52.164 16.891,53.304 C15.293,53.728 13.335,53.679 11.834,53.086 C11.792,53.07 11.76,53.123 11.797,53.152 C13.957,54.823 16.983,55.592 19.707,54.608 C22.323,53.793 24.536,51.021 27.635,52.204 C25.181,53.163 22.887,54.933 21.116,56.604 L22.405,57.661 C24.013,55.788 25.825,53.915 27.874,52.775 C28.154,52.61 28.323,52.544 28.519,52.533 C28.717,52.544 28.884,52.61 29.162,52.775 C31.215,53.915 33.026,55.788 34.634,57.661 L35.923,56.604 C34.152,54.933 31.858,53.163 29.404,52.204 C32.503,51.021 34.716,53.793 37.332,54.608 C40.056,55.592 43.082,54.823 45.242,53.152 C45.276,53.123 45.247,53.07 45.205,53.086 Z M21.077,50.561 C17.25,49.634 16.203,46.047 13.004,44.49 C12.97,44.472 12.933,44.512 12.954,44.543 C13.962,46.201 14.508,48.741 17.413,50.307 C17.437,50.319 17.424,50.357 17.397,50.349 C13.23,49.547 11.479,50.662 7.112,48.688 C7.075,48.672 7.036,48.712 7.06,48.747 C8.495,50.83 11.902,52.254 16.568,51.861 C18.248,51.718 19.465,51.011 21.077,50.634 C21.116,50.623 21.116,50.569 21.077,50.561 Z M13.062,48.361 C11.608,46.456 12.023,42.389 8.74,38.666 C8.713,38.637 8.666,38.66 8.674,38.697 C9.301,41.439 9.115,44.554 10.831,46.836 C10.847,46.86 10.823,46.884 10.8,46.868 C7.414,44.203 3.934,43.4 2.385,41.243 C2.362,41.214 2.315,41.229 2.32,41.267 C2.703,44.059 8.068,48.412 13.033,48.42 C13.062,48.42 13.08,48.386 13.062,48.361 Z M7.978,43.297 C6.419,40.406 8.283,35.995 6.514,31.709 C6.495,31.664 6.427,31.675 6.427,31.723 C6.375,34.063 4.921,37.558 5.8,40.196 C5.81,40.22 5.779,40.233 5.766,40.212 C3.527,36.941 1.751,36.258 0.27,33.264 C0.249,33.219 0.181,33.231 0.178,33.279 C0.084,35.314 0.984,36.973 2,38.514 C3.624,40.6 5.716,42.25 7.928,43.35 C7.963,43.366 7.994,43.331 7.978,43.297 Z M6.921,25.691 C6.918,25.643 6.855,25.627 6.831,25.669 C5.643,27.893 3.525,29.663 3.456,32.6 C3.454,32.629 3.422,32.631 3.417,32.604 C3.032,30.338 1.108,27.798 1.024,24.516 C1.024,24.466 0.953,24.453 0.934,24.5 C-0.648,28.768 1.627,32.814 4.05,36.157 C4.076,36.191 4.128,36.171 4.128,36.125 C4.029,32.583 7.099,29.939 6.921,25.691 Z M8.432,20.169 C7.309,21.729 4.782,22.832 3.858,25.082 C3.845,25.114 3.805,25.106 3.811,25.069 C4.178,22.547 3.204,19.619 4.118,16.269 C4.131,16.221 4.071,16.189 4.042,16.226 C2.661,17.924 2.194,19.914 2.118,22.064 C2.024,24.705 2.952,26.631 3.412,28.422 C3.422,28.465 3.477,28.462 3.488,28.419 C4.149,26.071 7.469,24.657 8.508,20.206 C8.522,20.159 8.461,20.129 8.432,20.169 Z M11.479,14.924 C9.632,16.372 6.81,17.767 6.204,18.774 C6.194,18.795 6.162,18.779 6.167,18.758 L6.852,15.471 C7.159,14.076 7.425,12.74 8.196,11.491 C8.22,11.454 8.175,11.411 8.141,11.438 C4.624,14.223 5.138,18.25 4.984,21.548 C4.981,21.583 5.023,21.599 5.047,21.575 C7.117,19.329 10.492,18.022 11.537,14.969 C11.55,14.932 11.51,14.9 11.479,14.924 Z M14.096,9.875 C10.989,9.974 8.705,12.591 7.726,15.923 C7.721,15.942 7.747,15.958 7.763,15.947 C12.044,12.809 11.804,11.464 14.122,9.971 C14.164,9.944 14.146,9.875 14.096,9.875 Z M49.924,48.688 C45.56,50.662 43.807,49.547 39.639,50.349 C39.613,50.357 39.6,50.319 39.623,50.307 C42.529,48.741 43.075,46.201 44.082,44.543 C44.103,44.512 44.067,44.472 44.032,44.49 C40.836,46.047 39.789,49.634 35.96,50.561 C35.92,50.569 35.92,50.623 35.96,50.634 C37.571,51.011 38.789,51.718 40.468,51.861 C45.134,52.254 48.544,50.83 49.977,48.747 C50,48.712 49.961,48.672 49.924,48.688 Z M54.651,41.243 C53.102,43.4 49.622,44.203 46.237,46.868 C46.216,46.884 46.19,46.86 46.208,46.836 C47.922,44.554 47.736,41.439 48.363,38.697 C48.37,38.66 48.324,38.637 48.297,38.666 C45.016,42.389 45.428,46.456 43.977,48.361 C43.959,48.386 43.974,48.42 44.006,48.42 C48.971,48.412 54.333,44.059 54.717,41.267 C54.721,41.229 54.674,41.214 54.651,41.243 Z M56.858,33.279 C56.855,33.231 56.787,33.219 56.766,33.264 C55.286,36.258 53.509,36.941 51.273,40.212 C51.257,40.233 51.228,40.22 51.237,40.196 C52.115,37.558 50.664,34.063 50.609,31.723 C50.609,31.675 50.541,31.664 50.523,31.709 C48.754,35.995 50.617,40.406 49.061,43.297 C49.042,43.331 49.074,43.366 49.108,43.35 C51.321,42.25 53.412,40.6 55.036,38.514 C56.052,36.973 56.952,35.314 56.858,33.279 Z M56.102,24.5 C56.084,24.453 56.013,24.466 56.013,24.516 C55.929,27.798 54.005,30.338 53.619,32.604 C53.614,32.631 53.583,32.629 53.583,32.6 C53.514,29.663 51.394,27.893 50.205,25.669 C50.181,25.627 50.118,25.643 50.118,25.691 C49.94,29.939 53.008,32.583 52.908,36.125 C52.908,36.171 52.963,36.191 52.99,36.157 C55.409,32.814 57.684,28.768 56.102,24.5 Z M54.918,22.064 C54.842,19.914 54.375,17.924 52.995,16.226 C52.966,16.189 52.908,16.221 52.919,16.269 C53.832,19.619 52.858,22.547 53.228,25.069 C53.234,25.106 53.192,25.114 53.178,25.082 C52.255,22.832 49.727,21.729 48.604,20.169 C48.578,20.129 48.517,20.159 48.528,20.206 C49.567,24.657 52.887,26.071 53.549,28.419 C53.559,28.462 53.614,28.465 53.625,28.422 C54.084,26.631 55.013,24.705 54.918,22.064 Z M48.895,11.438 C48.861,11.411 48.817,11.454 48.84,11.491 C49.612,12.74 49.877,14.076 50.184,15.471 L50.869,18.758 C50.874,18.779 50.842,18.795 50.832,18.774 C50.226,17.767 47.407,16.372 45.557,14.924 C45.528,14.9 45.486,14.932 45.499,14.969 C46.544,18.022 49.919,19.329 51.989,21.575 C52.013,21.599 52.055,21.583 52.052,21.548 C51.898,18.25 52.412,14.223 48.895,11.438 Z M42.941,9.875 C42.891,9.875 42.875,9.944 42.914,9.971 C45.232,11.464 44.993,12.809 49.273,15.947 C49.292,15.958 49.315,15.942 49.31,15.923 C48.331,12.591 46.048,9.974 42.941,9.875 Z" id="Fill-1"></path>
            <path d="M64.388,29.516 L65.109,29.516 C65.783,29.516 66.287,29.382 66.622,29.117 C66.956,28.85 67.124,28.462 67.124,27.954 C67.124,27.44 66.984,27.06 66.703,26.816 C66.423,26.571 65.983,26.448 65.385,26.448 L64.388,26.448 L64.388,29.516 Z M69.336,27.875 C69.336,28.988 68.988,29.838 68.294,30.427 C67.598,31.017 66.61,31.31 65.328,31.31 L64.388,31.31 L64.388,34.986 L62.197,34.986 L62.197,24.653 L65.498,24.653 C66.751,24.653 67.704,24.922 68.357,25.461 C69.01,26.001 69.336,26.806 69.336,27.875 Z" id="Fill-2"></path>
            <path d="M74.964,26.936 C75.256,26.936 75.499,26.957 75.692,26.999 L75.53,29.021 C75.355,28.974 75.143,28.95 74.893,28.95 C74.205,28.95 73.669,29.126 73.285,29.48 C72.901,29.833 72.709,30.329 72.709,30.964 L72.709,34.986 L70.553,34.986 L70.553,27.084 L72.186,27.084 L72.504,28.412 L72.61,28.412 C72.855,27.97 73.186,27.613 73.603,27.342 C74.02,27.071 74.474,26.936 74.964,26.936" id="Fill-3"></path>
            <path d="M78.374,31.02 C78.374,31.803 78.502,32.394 78.759,32.795 C79.016,33.195 79.434,33.395 80.014,33.395 C80.589,33.395 81.002,33.197 81.254,32.799 C81.506,32.4 81.633,31.808 81.633,31.02 C81.633,30.239 81.505,29.653 81.251,29.261 C80.996,28.87 80.579,28.674 80,28.674 C79.425,28.674 79.01,28.869 78.756,29.257 C78.501,29.646 78.374,30.234 78.374,31.02 Z M83.838,31.02 C83.838,32.308 83.499,33.313 82.82,34.039 C82.141,34.765 81.196,35.128 79.986,35.128 C79.227,35.128 78.557,34.962 77.978,34.629 C77.398,34.297 76.953,33.82 76.642,33.198 C76.331,32.576 76.175,31.85 76.175,31.02 C76.175,29.73 76.512,28.726 77.186,28.01 C77.86,27.293 78.807,26.936 80.028,26.936 C80.786,26.936 81.456,27.101 82.035,27.43 C82.615,27.76 83.06,28.234 83.371,28.851 C83.682,29.468 83.838,30.192 83.838,31.02 Z" id="Fill-4"></path>
            <path d="M86.755,29.671 C86.755,30.1 86.852,30.438 87.048,30.688 C87.243,30.938 87.541,31.063 87.942,31.063 C88.347,31.063 88.644,30.938 88.833,30.688 C89.021,30.438 89.115,30.1 89.115,29.671 C89.115,28.719 88.724,28.244 87.942,28.244 C87.15,28.244 86.755,28.719 86.755,29.671 Z M85.97,36.103 C85.97,36.4 86.112,36.634 86.398,36.803 C86.682,36.973 87.082,37.058 87.595,37.058 C88.368,37.058 88.974,36.951 89.412,36.739 C89.85,36.527 90.07,36.237 90.07,35.87 C90.07,35.573 89.94,35.368 89.681,35.255 C89.422,35.142 89.021,35.085 88.479,35.085 L87.363,35.085 C86.967,35.085 86.635,35.179 86.369,35.364 C86.103,35.551 85.97,35.797 85.97,36.103 Z M92.07,27.084 L92.07,28.18 L90.833,28.497 C91.059,28.851 91.172,29.247 91.172,29.685 C91.172,30.533 90.877,31.194 90.285,31.668 C89.694,32.142 88.873,32.378 87.822,32.378 L87.433,32.356 L87.115,32.321 C86.893,32.491 86.782,32.68 86.782,32.887 C86.782,33.198 87.178,33.353 87.97,33.353 L89.313,33.353 C90.18,33.353 90.841,33.54 91.296,33.912 C91.751,34.284 91.978,34.831 91.978,35.552 C91.978,36.475 91.593,37.191 90.823,37.701 C90.052,38.21 88.946,38.464 87.504,38.464 C86.401,38.464 85.559,38.272 84.977,37.888 C84.395,37.504 84.104,36.966 84.104,36.272 C84.104,35.797 84.252,35.398 84.549,35.078 C84.846,34.758 85.282,34.529 85.857,34.392 C85.635,34.299 85.442,34.145 85.277,33.93 C85.112,33.715 85.03,33.487 85.03,33.247 C85.03,32.946 85.117,32.695 85.291,32.495 C85.466,32.294 85.717,32.098 86.048,31.904 C85.633,31.726 85.304,31.437 85.061,31.042 C84.819,30.646 84.697,30.18 84.697,29.643 C84.697,28.781 84.978,28.114 85.539,27.642 C86.099,27.171 86.901,26.936 87.942,26.936 C88.163,26.936 88.426,26.956 88.73,26.996 C89.034,27.036 89.228,27.065 89.313,27.084 L92.07,27.084 Z" id="Fill-5"></path>
            <path d="M97.355,26.936 C97.647,26.936 97.889,26.957 98.083,26.999 L97.92,29.021 C97.746,28.974 97.533,28.95 97.284,28.95 C96.596,28.95 96.06,29.126 95.676,29.48 C95.292,29.833 95.1,30.329 95.1,30.964 L95.1,34.986 L92.944,34.986 L92.944,27.084 L94.576,27.084 L94.895,28.412 L95.001,28.412 C95.246,27.97 95.577,27.613 95.994,27.342 C96.411,27.071 96.865,26.936 97.355,26.936" id="Fill-6"></path>
            <path d="M103.285,31.325 L102.451,31.354 C101.824,31.372 101.357,31.485 101.051,31.692 C100.745,31.899 100.592,32.216 100.592,32.64 C100.592,33.247 100.94,33.552 101.638,33.552 C102.137,33.552 102.536,33.407 102.836,33.12 C103.135,32.833 103.285,32.451 103.285,31.975 L103.285,31.325 Z M103.921,34.986 L103.504,33.912 L103.448,33.912 C103.084,34.369 102.711,34.685 102.327,34.862 C101.943,35.039 101.442,35.128 100.825,35.128 C100.066,35.128 99.469,34.911 99.033,34.477 C98.597,34.044 98.379,33.427 98.379,32.625 C98.379,31.787 98.673,31.168 99.259,30.77 C99.846,30.372 100.731,30.152 101.913,30.11 L103.285,30.067 L103.285,29.72 C103.285,28.919 102.875,28.519 102.055,28.519 C101.423,28.519 100.681,28.709 99.828,29.091 L99.115,27.635 C100.024,27.16 101.032,26.921 102.14,26.921 C103.2,26.921 104.013,27.153 104.578,27.614 C105.144,28.076 105.427,28.778 105.427,29.72 L105.427,34.986 L103.921,34.986 Z" id="Fill-7"></path>
            <path d="M114.205,34.986 L112.049,34.986 L112.049,30.37 C112.049,29.801 111.954,29.374 111.763,29.088 C111.572,28.803 111.272,28.661 110.862,28.661 C110.31,28.661 109.909,28.863 109.66,29.268 C109.41,29.673 109.285,30.34 109.285,31.268 L109.285,34.986 L107.129,34.986 L107.129,27.084 L108.776,27.084 L109.066,28.095 L109.186,28.095 C109.398,27.732 109.704,27.448 110.105,27.243 C110.506,27.038 110.965,26.936 111.484,26.936 C112.666,26.936 113.468,27.322 113.887,28.095 L114.078,28.095 C114.29,27.727 114.602,27.442 115.014,27.24 C115.427,27.037 115.892,26.936 116.41,26.936 C117.306,26.936 117.983,27.165 118.443,27.624 C118.902,28.084 119.132,28.821 119.132,29.833 L119.132,34.986 L116.969,34.986 L116.969,30.37 C116.969,29.801 116.873,29.374 116.682,29.088 C116.491,28.803 116.191,28.661 115.781,28.661 C115.254,28.661 114.859,28.849 114.597,29.226 C114.336,29.603 114.205,30.202 114.205,31.02 L114.205,34.986" id="Fill-8"></path>
            <path d="M127.91,34.986 L125.755,34.986 L125.755,30.37 C125.755,29.801 125.659,29.374 125.469,29.088 C125.278,28.803 124.977,28.661 124.567,28.661 C124.016,28.661 123.615,28.863 123.365,29.268 C123.115,29.673 122.991,30.34 122.991,31.268 L122.991,34.986 L120.835,34.986 L120.835,27.084 L122.482,27.084 L122.772,28.095 L122.892,28.095 C123.104,27.732 123.41,27.448 123.811,27.243 C124.211,27.038 124.671,26.936 125.189,26.936 C126.372,26.936 127.173,27.322 127.593,28.095 L127.783,28.095 C127.995,27.727 128.307,27.442 128.72,27.24 C129.132,27.037 129.597,26.936 130.116,26.936 C131.011,26.936 131.689,27.165 132.148,27.624 C132.608,28.084 132.838,28.821 132.838,29.833 L132.838,34.986 L130.675,34.986 L130.675,30.37 C130.675,29.801 130.579,29.374 130.388,29.088 C130.197,28.803 129.897,28.661 129.487,28.661 C128.959,28.661 128.564,28.849 128.303,29.226 C128.041,29.603 127.91,30.202 127.91,31.02 L127.91,34.986" id="Fill-9"></path>
            <path d="M137.861,28.469 C137.404,28.469 137.045,28.615 136.786,28.904 C136.527,29.194 136.379,29.605 136.341,30.138 L139.366,30.138 C139.357,29.605 139.218,29.194 138.949,28.904 C138.68,28.615 138.318,28.469 137.861,28.469 Z M138.164,35.128 C136.892,35.128 135.898,34.776 135.181,34.074 C134.465,33.372 134.107,32.378 134.107,31.092 C134.107,29.768 134.438,28.744 135.1,28.021 C135.762,27.297 136.677,26.936 137.846,26.936 C138.963,26.936 139.833,27.253 140.455,27.89 C141.077,28.526 141.388,29.405 141.388,30.526 L141.388,31.572 L136.291,31.572 C136.315,32.184 136.496,32.663 136.836,33.007 C137.175,33.351 137.651,33.523 138.263,33.523 C138.74,33.523 139.19,33.474 139.614,33.375 C140.038,33.275 140.481,33.118 140.943,32.901 L140.943,34.569 C140.565,34.758 140.162,34.898 139.734,34.99 C139.305,35.082 138.782,35.128 138.164,35.128 Z" id="Fill-10"></path>
            <path d="M151.314,30.688 C150.622,28.46 150.232,27.2 150.145,26.908 C150.057,26.615 149.995,26.384 149.957,26.214 C149.802,26.818 149.356,28.309 148.621,30.688 L151.314,30.688 Z M152.587,34.986 L151.838,32.526 L148.07,32.526 L147.321,34.986 L144.96,34.986 L148.607,24.61 L151.286,24.61 L154.948,34.986 L152.587,34.986 Z" id="Fill-11"></path>
            <polygon id="Fill-12" points="155.834 34.987 157.99 34.987 157.99 23.988 155.834 23.988"></polygon>
            <path d="M159.738,34.986 L161.894,34.986 L161.894,27.084 L159.738,27.084 L159.738,34.986 Z M159.646,25.041 C159.646,24.339 160.037,23.988 160.82,23.988 C161.602,23.988 161.993,24.339 161.993,25.041 C161.993,25.375 161.895,25.636 161.7,25.823 C161.504,26.008 161.211,26.101 160.82,26.101 C160.037,26.101 159.646,25.748 159.646,25.041 Z" id="Fill-13"></path>
            <path d="M170.718,34.986 L168.562,34.986 L168.562,30.37 C168.562,29.801 168.467,29.374 168.276,29.088 C168.085,28.803 167.784,28.661 167.374,28.661 C166.823,28.661 166.422,28.863 166.173,29.268 C165.923,29.673 165.798,30.34 165.798,31.268 L165.798,34.986 L163.642,34.986 L163.642,27.084 L165.289,27.084 L165.579,28.095 L165.699,28.095 C165.911,27.732 166.217,27.448 166.618,27.243 C167.018,27.038 167.478,26.936 167.996,26.936 C169.179,26.936 169.98,27.322 170.4,28.095 L170.591,28.095 C170.802,27.727 171.115,27.442 171.527,27.24 C171.939,27.037 172.405,26.936 172.923,26.936 C173.819,26.936 174.496,27.165 174.955,27.624 C175.415,28.084 175.645,28.821 175.645,29.833 L175.645,34.986 L173.482,34.986 L173.482,30.37 C173.482,29.801 173.386,29.374 173.195,29.088 C173.004,28.803 172.704,28.661 172.294,28.661 C171.766,28.661 171.371,28.849 171.11,29.226 C170.848,29.603 170.718,30.202 170.718,31.02 L170.718,34.986" id="Fill-14"></path>
            <path d="M180.668,28.469 C180.211,28.469 179.853,28.615 179.594,28.904 C179.335,29.194 179.186,29.605 179.148,30.138 L182.174,30.138 C182.164,29.605 182.025,29.194 181.757,28.904 C181.488,28.615 181.125,28.469 180.668,28.469 Z M180.972,35.128 C179.7,35.128 178.705,34.776 177.989,34.074 C177.273,33.372 176.915,32.378 176.915,31.092 C176.915,29.768 177.246,28.744 177.908,28.021 C178.57,27.297 179.485,26.936 180.654,26.936 C181.771,26.936 182.64,27.253 183.262,27.89 C183.885,28.526 184.196,29.405 184.196,30.526 L184.196,31.572 L179.099,31.572 C179.122,32.184 179.304,32.663 179.643,33.007 C179.983,33.351 180.458,33.523 181.071,33.523 C181.547,33.523 181.997,33.474 182.421,33.375 C182.845,33.275 183.288,33.118 183.75,32.901 L183.75,34.569 C183.373,34.758 182.97,34.898 182.541,34.99 C182.113,35.082 181.59,35.128 180.972,35.128 Z" id="Fill-15"></path>
            <path d="M192.849,34.986 L190.694,34.986 L190.694,30.37 C190.694,29.801 190.592,29.374 190.389,29.088 C190.187,28.803 189.864,28.661 189.421,28.661 C188.818,28.661 188.382,28.862 188.114,29.265 C187.845,29.667 187.711,30.335 187.711,31.268 L187.711,34.986 L185.554,34.986 L185.554,27.084 L187.201,27.084 L187.491,28.095 L187.612,28.095 C187.852,27.713 188.183,27.424 188.605,27.229 C189.027,27.034 189.506,26.936 190.043,26.936 C190.962,26.936 191.659,27.184 192.135,27.681 C192.612,28.178 192.849,28.896 192.849,29.833 L192.849,34.986" id="Fill-16"></path>
            <path d="M197.87,33.41 C198.247,33.41 198.699,33.327 199.227,33.163 L199.227,34.767 C198.69,35.008 198.031,35.128 197.248,35.128 C196.386,35.128 195.758,34.91 195.365,34.474 C194.971,34.038 194.774,33.384 194.774,32.513 L194.774,28.703 L193.742,28.703 L193.742,27.79 L194.929,27.07 L195.552,25.402 L196.93,25.402 L196.93,27.084 L199.143,27.084 L199.143,28.703 L196.93,28.703 L196.93,32.513 C196.93,32.818 197.016,33.045 197.188,33.19 C197.36,33.337 197.588,33.41 197.87,33.41" id="Fill-17"></path>
            <path d="M204.892,31.325 L204.058,31.354 C203.431,31.372 202.964,31.485 202.658,31.692 C202.352,31.899 202.198,32.216 202.198,32.64 C202.198,33.247 202.547,33.552 203.245,33.552 C203.744,33.552 204.143,33.407 204.443,33.12 C204.742,32.833 204.892,32.451 204.892,31.975 L204.892,31.325 Z M205.528,34.986 L205.111,33.912 L205.054,33.912 C204.691,34.369 204.318,34.685 203.934,34.862 C203.55,35.039 203.049,35.128 202.432,35.128 C201.673,35.128 201.076,34.911 200.64,34.477 C200.204,34.044 199.986,33.427 199.986,32.625 C199.986,31.787 200.28,31.168 200.866,30.77 C201.453,30.372 202.338,30.152 203.52,30.11 L204.892,30.067 L204.892,29.72 C204.892,28.919 204.482,28.519 203.662,28.519 C203.03,28.519 202.288,28.709 201.435,29.091 L200.721,27.635 C201.631,27.16 202.639,26.921 203.747,26.921 C204.807,26.921 205.62,27.153 206.185,27.614 C206.751,28.076 207.033,28.778 207.033,29.72 L207.033,34.986 L205.528,34.986 Z" id="Fill-18"></path>
            <path d="M208.724,34.986 L210.881,34.986 L210.881,27.084 L208.724,27.084 L208.724,34.986 Z M208.633,25.041 C208.633,24.339 209.024,23.988 209.806,23.988 C210.588,23.988 210.979,24.339 210.979,25.041 C210.979,25.375 210.882,25.636 210.686,25.823 C210.49,26.008 210.197,26.101 209.806,26.101 C209.024,26.101 208.633,25.748 208.633,25.041 Z" id="Fill-19"></path>
            <path d="M217.04,26.936 C217.332,26.936 217.574,26.957 217.768,26.999 L217.605,29.021 C217.431,28.974 217.219,28.95 216.969,28.95 C216.281,28.95 215.745,29.126 215.361,29.48 C214.977,29.833 214.785,30.329 214.785,30.964 L214.785,34.986 L212.629,34.986 L212.629,27.084 L214.261,27.084 L214.58,28.412 L214.686,28.412 C214.931,27.97 215.262,27.613 215.679,27.342 C216.096,27.071 216.55,26.936 217.04,26.936" id="Fill-20"></path>
            <path d="M221.997,28.469 C221.54,28.469 221.182,28.615 220.923,28.904 C220.664,29.194 220.515,29.605 220.477,30.138 L223.503,30.138 C223.493,29.605 223.354,29.194 223.086,28.904 C222.817,28.615 222.454,28.469 221.997,28.469 Z M222.301,35.128 C221.029,35.128 220.034,34.776 219.318,34.074 C218.602,33.372 218.244,32.378 218.244,31.092 C218.244,29.768 218.575,28.744 219.237,28.021 C219.899,27.297 220.814,26.936 221.983,26.936 C223.1,26.936 223.969,27.253 224.592,27.89 C225.214,28.526 225.525,29.405 225.525,30.526 L225.525,31.572 L220.428,31.572 C220.451,32.184 220.633,32.663 220.972,33.007 C221.312,33.351 221.787,33.523 222.4,33.523 C222.876,33.523 223.326,33.474 223.75,33.375 C224.175,33.275 224.617,33.118 225.079,32.901 L225.079,34.569 C224.702,34.758 224.299,34.898 223.87,34.99 C223.442,35.082 222.919,35.128 222.301,35.128 Z" id="Fill-21"></path>
            <path d="M234.773,34.986 L232.284,26.879 L232.221,26.879 C232.31,28.529 232.355,29.628 232.355,30.18 L232.355,34.986 L230.397,34.986 L230.397,24.653 L233.38,24.653 L235.826,32.555 L235.868,32.555 L238.462,24.653 L241.446,24.653 L241.446,34.986 L239.403,34.986 L239.403,30.095 C239.403,29.865 239.406,29.598 239.413,29.296 C239.42,28.995 239.452,28.194 239.509,26.893 L239.445,26.893 L236.78,34.986 L234.773,34.986" id="Fill-22"></path>
            <path d="M245.166,31.02 C245.166,31.803 245.295,32.394 245.552,32.795 C245.808,33.195 246.227,33.395 246.806,33.395 C247.381,33.395 247.795,33.197 248.047,32.799 C248.299,32.4 248.425,31.808 248.425,31.02 C248.425,30.239 248.298,29.653 248.043,29.261 C247.789,28.87 247.372,28.674 246.792,28.674 C246.217,28.674 245.802,28.869 245.548,29.257 C245.294,29.646 245.166,30.234 245.166,31.02 Z M250.63,31.02 C250.63,32.308 250.291,33.313 249.613,34.039 C248.934,34.765 247.989,35.128 246.778,35.128 C246.019,35.128 245.35,34.962 244.77,34.629 C244.191,34.297 243.745,33.82 243.434,33.198 C243.123,32.576 242.968,31.85 242.968,31.02 C242.968,29.73 243.305,28.726 243.979,28.01 C244.653,27.293 245.6,26.936 246.821,26.936 C247.579,26.936 248.248,27.101 248.828,27.43 C249.407,27.76 249.853,28.234 250.164,28.851 C250.475,29.468 250.63,30.192 250.63,31.02 Z" id="Fill-23"></path>
            <path d="M259.239,34.986 L257.083,34.986 L257.083,30.37 C257.083,29.801 256.982,29.374 256.779,29.088 C256.576,28.803 256.254,28.661 255.811,28.661 C255.207,28.661 254.772,28.862 254.503,29.265 C254.235,29.667 254.1,30.335 254.1,31.268 L254.1,34.986 L251.944,34.986 L251.944,27.084 L253.591,27.084 L253.881,28.095 L254.001,28.095 C254.241,27.713 254.573,27.424 254.994,27.229 C255.416,27.034 255.896,26.936 256.433,26.936 C257.352,26.936 258.049,27.184 258.525,27.681 C259.001,28.178 259.239,28.896 259.239,29.833 L259.239,34.986" id="Fill-24"></path>
            <path d="M264.279,33.41 C264.83,33.41 265.234,33.25 265.491,32.93 C265.748,32.609 265.888,32.064 265.911,31.297 L265.911,31.063 C265.911,30.215 265.781,29.608 265.519,29.24 C265.258,28.872 264.832,28.689 264.243,28.689 C263.762,28.689 263.389,28.892 263.123,29.3 C262.857,29.707 262.723,30.3 262.723,31.077 C262.723,31.854 262.858,32.438 263.126,32.827 C263.395,33.216 263.779,33.41 264.279,33.41 Z M263.522,35.128 C262.594,35.128 261.865,34.767 261.334,34.046 C260.804,33.325 260.539,32.326 260.539,31.049 C260.539,29.753 260.809,28.744 261.348,28.021 C261.888,27.297 262.632,26.936 263.579,26.936 C264.573,26.936 265.332,27.322 265.855,28.095 L265.926,28.095 C265.817,27.506 265.763,26.981 265.763,26.519 L265.763,23.988 L267.926,23.988 L267.926,34.986 L266.272,34.986 L265.855,33.961 L265.763,33.961 C265.273,34.739 264.526,35.128 263.522,35.128 Z" id="Fill-25"></path>
            <path d="M269.665,34.986 L271.822,34.986 L271.822,27.084 L269.665,27.084 L269.665,34.986 Z M269.573,25.041 C269.573,24.339 269.965,23.988 270.747,23.988 C271.529,23.988 271.92,24.339 271.92,25.041 C271.92,25.375 271.823,25.636 271.627,25.823 C271.431,26.008 271.138,26.101 270.747,26.101 C269.965,26.101 269.573,25.748 269.573,25.041 Z" id="Fill-26"></path>
            <path d="M277.936,31.325 L277.102,31.354 C276.475,31.372 276.009,31.485 275.702,31.692 C275.396,31.899 275.243,32.216 275.243,32.64 C275.243,33.247 275.592,33.552 276.289,33.552 C276.789,33.552 277.188,33.407 277.487,33.12 C277.786,32.833 277.936,32.451 277.936,31.975 L277.936,31.325 Z M278.573,34.986 L278.156,33.912 L278.099,33.912 C277.736,34.369 277.363,34.685 276.978,34.862 C276.594,35.039 276.094,35.128 275.476,35.128 C274.718,35.128 274.12,34.911 273.684,34.477 C273.248,34.044 273.031,33.427 273.031,32.625 C273.031,31.787 273.324,31.168 273.91,30.77 C274.497,30.372 275.382,30.152 276.565,30.11 L277.936,30.067 L277.936,29.72 C277.936,28.919 277.526,28.519 276.706,28.519 C276.074,28.519 275.332,28.709 274.48,29.091 L273.766,27.635 C274.675,27.16 275.683,26.921 276.791,26.921 C277.851,26.921 278.664,27.153 279.23,27.614 C279.795,28.076 280.078,28.778 280.078,29.72 L280.078,34.986 L278.573,34.986 Z" id="Fill-27"></path>
            <polygon id="Fill-28" points="281.783 34.987 283.94 34.987 283.94 23.988 281.783 23.988"></polygon>
        </g>
    </g>
</svg>