<?xml version="1.0" encoding="utf-8"?>
<!-- Generated by IcoMoon.io -->
<!DOCTYPE svg PUBLIC "-//W3C//DTD SVG 1.1//EN" "http://www.w3.org/Graphics/SVG/1.1/DTD/svg11.dtd">
<svg version="1.1" xmlns="http://www.w3.org/2000/svg" xmlns:xlink="http://www.w3.org/1999/xlink" width="24" height="24" viewBox="0 0 24 24">
<path fill="#444444" d="M11.8 10.9c-2.27-0.59-3-1.195-3-2.145 0-1.090 1.005-1.855 2.7-1.855 1.78 0 2.44 0.85 2.5 2.1h2.21c-0.065-1.725-1.12-3.295-3.21-3.81v-2.19h-3v2.16c-1.94 0.425-3.5 1.675-3.5 3.61 0 2.31 1.915 3.46 4.7 4.13 2.505 0.6 3 1.475 3 2.415 0 0.685-0.485 1.785-2.7 1.785-2.060 0-2.875-0.925-2.98-2.1h-2.205c0.125 2.19 1.76 3.415 3.685 3.83v2.17h3v-2.15c1.945-0.375 3.5-1.5 3.5-3.555 0-2.83-2.43-3.8-4.7-4.395z"></path>
</svg>
