<?xml version="1.0" encoding="utf-8"?>
<!-- Generated by IcoMoon.io -->
<!DOCTYPE svg PUBLIC "-//W3C//DTD SVG 1.1//EN" "http://www.w3.org/Graphics/SVG/1.1/DTD/svg11.dtd">
<svg version="1.1" xmlns="http://www.w3.org/2000/svg" xmlns:xlink="http://www.w3.org/1999/xlink" width="24" height="24" viewBox="0 0 24 24">
<path fill="#444444" d="M22 3h-15c-0.69 0-1.235 0.35-1.595 0.88l-5.405 8.115 5.405 8.115c0.36 0.53 0.905 0.89 1.595 0.89h15c1.105 0 2-0.895 2-2v-14c0-1.105-0.895-2-2-2zM19 15.585l-1.415 1.415-3.585-3.585-3.585 3.585-1.415-1.415 3.585-3.585-3.585-3.585 1.415-1.415 3.585 3.585 3.585-3.585 1.415 1.415-3.585 3.585 3.585 3.585z"></path>
</svg>
