<?xml version="1.0" encoding="utf-8"?>
<!-- Generated by IcoMoon.io -->
<!DOCTYPE svg PUBLIC "-//W3C//DTD SVG 1.1//EN" "http://www.w3.org/Graphics/SVG/1.1/DTD/svg11.dtd">
<svg version="1.1" xmlns="http://www.w3.org/2000/svg" xmlns:xlink="http://www.w3.org/1999/xlink" width="24" height="24" viewBox="0 0 24 24">
<path fill="#444444" d="M12 2c-5.525 0-10 4.475-10 10s4.475 10 10 10 10-4.475 10-10-4.475-10-10-10zM4 12c0-4.42 3.58-8 8-8 1.85 0 3.545 0.635 4.9 1.685l-11.215 11.215c-1.050-1.355-1.685-3.050-1.685-4.9zM12 20c-1.85 0-3.545-0.635-4.9-1.685l11.215-11.215c1.050 1.355 1.685 3.050 1.685 4.9 0 4.42-3.58 8-8 8z"></path>
</svg>
