<?xml version="1.0" encoding="utf-8"?>
<!-- Generated by IcoMoon.io -->
<!DOCTYPE svg PUBLIC "-//W3C//DTD SVG 1.1//EN" "http://www.w3.org/Graphics/SVG/1.1/DTD/svg11.dtd">
<svg version="1.1" xmlns="http://www.w3.org/2000/svg" xmlns:xlink="http://www.w3.org/1999/xlink" width="24" height="24" viewBox="0 0 24 24">
<path fill="#444444" d="M18 8h-1v-2c0-2.76-2.24-5-5-5s-5 2.24-5 5v2h-1c-1.105 0-2 0.895-2 2v10c0 1.105 0.895 2 2 2h12c1.105 0 2-0.895 2-2v-10c0-1.105-0.895-2-2-2zM12 17c-1.105 0-2-0.895-2-2s0.895-2 2-2 2 0.895 2 2-0.895 2-2 2zM15.1 8h-6.2v-2c0-1.71 1.39-3.1 3.1-3.1s3.1 1.39 3.1 3.1v2z"></path>
</svg>
