<?xml version="1.0" encoding="utf-8"?>
<!-- Generated by IcoMoon.io -->
<!DOCTYPE svg PUBLIC "-//W3C//DTD SVG 1.1//EN" "http://www.w3.org/Graphics/SVG/1.1/DTD/svg11.dtd">
<svg version="1.1" xmlns="http://www.w3.org/2000/svg" xmlns:xlink="http://www.w3.org/1999/xlink" width="24" height="24" viewBox="0 0 24 24">
<path fill="#444444" d="M11.5 22c1.105 0 2-0.895 2-2h-4c0 1.105 0.895 2 2 2zM18 16v-5.5c0-3.075-2.135-5.64-5-6.32v-0.68c0-0.83-0.67-1.5-1.5-1.5s-1.5 0.67-1.5 1.5v0.68c-2.865 0.68-5 3.245-5 6.32v5.5l-2 2v1h17v-1l-2-2zM16 17h-9v-6.5c0-2.485 2.015-4.5 4.5-4.5s4.5 2.015 4.5 4.5v6.5z"></path>
</svg>
