<?xml version="1.0" encoding="utf-8"?>
<!-- Generated by IcoMoon.io -->
<!DOCTYPE svg PUBLIC "-//W3C//DTD SVG 1.1//EN" "http://www.w3.org/Graphics/SVG/1.1/DTD/svg11.dtd">
<svg version="1.1" xmlns="http://www.w3.org/2000/svg" xmlns:xlink="http://www.w3.org/1999/xlink" width="24" height="24" viewBox="0 0 24 24">
<path fill="#444444" d="M19.43 12.975c0.040-0.32 0.070-0.645 0.070-0.975s-0.030-0.655-0.070-0.975l2.115-1.655c0.19-0.15 0.245-0.42 0.12-0.64l-2-3.465c-0.125-0.215-0.385-0.305-0.61-0.215l-2.49 1.005c-0.515-0.395-1.080-0.73-1.69-0.985l-0.375-2.65c-0.045-0.235-0.25-0.42-0.5-0.42h-4c-0.25 0-0.455 0.185-0.495 0.42l-0.375 2.65c-0.61 0.255-1.175 0.585-1.69 0.985l-2.49-1.005c-0.225-0.085-0.485 0-0.61 0.215l-2 3.465c-0.125 0.215-0.070 0.485 0.12 0.64l2.11 1.655c-0.040 0.32-0.070 0.645-0.070 0.975s0.030 0.655 0.070 0.975l-2.11 1.655c-0.19 0.15-0.245 0.42-0.12 0.64l2 3.465c0.125 0.215 0.385 0.305 0.61 0.215l2.49-1.005c0.515 0.395 1.080 0.73 1.69 0.985l0.375 2.65c0.040 0.235 0.245 0.42 0.495 0.42h4c0.25 0 0.455-0.185 0.495-0.42l0.375-2.65c0.61-0.255 1.175-0.585 1.69-0.985l2.49 1.005c0.225 0.085 0.485 0 0.61-0.215l2-3.465c0.125-0.215 0.070-0.485-0.12-0.64l-2.11-1.655zM12 15.5c-1.935 0-3.5-1.565-3.5-3.5s1.565-3.5 3.5-3.5 3.5 1.565 3.5 3.5-1.565 3.5-3.5 3.5z"></path>
</svg>
