<svg xmlns="http://www.w3.org/2000/svg" width="49" height="60" viewBox="0 0 49 60">
  <g fill="none" fill-rule="evenodd" transform="translate(1 1)">
    <polygon fill="#FBC208" points="47.615 46.94 47.615 4.173 5.253 4.173 5.253 58.303 36.045 58.303 36.268 58.303 36.461 46.94"/>
    <path fill="#FBC208" d="M47.6149 47.1603L36.4729 58.3023M47.6149 47.1601L47.6149 46.9391 47.6149 47.1601z"/>
    <polygon fill="#FBC208" points="47.615 46.94 36.16 46.94 36.16 58.303 36.62 58.303 47.615 47.326"/>
    <polygon fill="#FFF" points="43.237 42.767 43.237 0 .875 0 .875 54.13 31.667 54.13 31.89 54.13 32.083 42.767"/>
    <polygon stroke="#1D1D1B" stroke-width="2" points="43.237 42.767 43.237 0 .875 0 .875 54.13 31.667 54.13 31.89 54.13 32.083 42.767"/>
    <g transform="translate(32 42.626)">
      <path fill="#FFF" d="M11.2374,0.3615 L0.0954,11.5035"/>
      <path stroke="#1D1D1B" stroke-width="2" d="M11.2374,0.3615 L0.0954,11.5035"/>
    </g>
    <path fill="#FFF" d="M43.2373,42.9877 L43.2373,42.7677 L43.2373,42.9877 Z"/>
    <path stroke="#1D1D1B" stroke-width="2" d="M43.2374,42.7667 L43.2374,42.9877"/>
    <polygon fill="#FFF" points="43.237 42.767 31.782 42.767 31.782 54.13 32.242 54.13 43.237 43.153"/>
    <polygon stroke="#1D1D1B" stroke-width="2" points="43.237 42.767 31.782 42.767 31.782 54.13 32.242 54.13 43.237 43.153"/>
    <polygon fill="#FFF" points="5.679 48.621 14.074 48.621 14.074 5.152 5.679 5.152"/>
    <polygon stroke="#000" stroke-width="2" points="5.679 48.621 14.074 48.621 14.074 5.152 5.679 5.152"/>
    <polygon fill="#FFF" points="18.232 16.196 37.73 16.196 37.73 5.258 18.232 5.258"/>
    <polygon stroke="#000" stroke-width="2" points="18.232 16.196 37.73 16.196 37.73 5.258 18.232 5.258"/>
    <polygon fill="#FBC208" points="18.411 31.668 25.688 31.668 25.688 22.312 18.411 22.312"/>
    <polygon stroke="#000" stroke-width="2" points="18.411 31.668 25.688 31.668 25.688 22.312 18.411 22.312"/>
    <polygon fill="#FBC208" points="30.552 31.668 37.908 31.668 37.908 22.21 30.552 22.21"/>
    <polygon stroke="#000" stroke-width="2" points="30.552 31.668 37.908 31.668 37.908 22.21 30.552 22.21"/>
    <polygon fill="#056DB4" points="31.783 42.767 37.908 42.767 37.908 38.075 18.41 38.075 18.41 49.013 31.783 49.013"/>
    <polygon stroke="#000" stroke-width="2" points="31.783 42.767 37.908 42.767 37.908 38.075 18.41 38.075 18.41 49.013 31.783 49.013"/>
    <path stroke="#000" stroke-width="2" d="M8.9621 23.2096L10.6311 23.2096M7.5363 26.296L12.0573 26.296M7.5363 29.1046L12.0573 29.1046M7.5363 31.8849L12.0573 31.8849"/>
    <path fill="#056DB4" d="M25.1256 10.7277C25.1256 11.4277 24.5906 11.9947 23.9316 11.9947 23.2716 11.9947 22.7376 11.4277 22.7376 10.7277 22.7376 10.0277 23.2716 9.4607 23.9316 9.4607 24.5906 9.4607 25.1256 10.0277 25.1256 10.7277M29.2604 10.7277C29.2604 11.4277 28.7264 11.9947 28.0664 11.9947 27.4074 11.9947 26.8724 11.4277 26.8724 10.7277 26.8724 10.0277 27.4074 9.4607 28.0664 9.4607 28.7264 9.4607 29.2604 10.0277 29.2604 10.7277M33.2238 10.7277C33.2238 11.4277 32.6888 11.9947 32.0298 11.9947 31.3708 11.9947 30.8358 11.4277 30.8358 10.7277 30.8358 10.0277 31.3708 9.4607 32.0298 9.4607 32.6888 9.4607 33.2238 10.0277 33.2238 10.7277"/>
    <polygon fill="#056DB4" points="31.19 .153 31.19 12.173 35.048 8.801 39.34 12.551 39.34 .153"/>
    <polygon stroke="#000" stroke-width="2" points="31.19 .153 31.19 12.173 35.048 8.801 39.34 12.551 39.34 .153"/>
  </g>
</svg>
