<svg width="211" height="58" xmlns="http://www.w3.org/2000/svg"><g fill-rule="evenodd"><path d="M189.878 4.664h.548c.512 0 .896-.101 1.149-.304.254-.202.382-.497.382-.883 0-.39-.106-.678-.319-.865-.214-.186-.547-.28-1.002-.28h-.758v2.332zm3.76-1.246c0 .845-.264 1.491-.792 1.938-.528.449-1.279.672-2.253.672h-.715v2.793h-1.664V.969h2.508c.952 0 1.676.204 2.172.615.497.41.744 1.021.744 1.834zm-9.536 5.403h-1.638V.969h4.501v1.363h-2.863v2.026h2.664v1.359h-2.664v3.104zm-4.525 0h-1.896l-1.064-4.125c-.04-.147-.106-.45-.201-.91a10.34 10.34 0 0 1-.164-.927c-.021.194-.075.505-.161.932-.086.428-.152.734-.198.916l-1.059 4.114h-1.89L170.941.969h1.637l1.005 4.285c.175.792.302 1.478.381 2.058.022-.204.07-.52.148-.948.077-.429.149-.761.217-.996l1.144-4.399h1.574l1.145 4.399c.049.196.112.498.187.902.075.405.133.752.172 1.042.035-.28.093-.628.172-1.045.079-.417.15-.754.215-1.013l.999-4.285h1.637l-1.997 7.852zm-4.073 27.313c-3.051 0-5.01.724-5.544.949-.032.014-.056-.031-.033-.056 3.354-3.485 7.278-3.293 8.223-3.293h11.162c.561 0 1.017.537 1.017 1.201 0 .662-.456 1.199-1.017 1.199h-13.808zm2.515 3.085c-3.287 0-4.246-1.868-9.222-.635-.034.009-.057-.038-.028-.058 2.774-1.903 5.791-1.73 7.011-1.73h13.532c.561 0 1.017.537 1.017 1.199s-.456 1.199-1.017 1.199c0 0-8.69.025-11.293.025zm.233 3.037c-3.375 0-3.644-2.49-8.646-3.051-.035-.004-.039-.056-.005-.064 4.109-1.028 5.638.715 8.037.715h11.674c.561 0 1.017.537 1.017 1.2 0 .663-.456 1.2-1.017 1.2h-11.06zm-.732-9.183c-2.717 0-4.969 1.185-5.495 1.484-.03.016-.059-.019-.04-.046.44-.649 2.82-3.837 6.91-3.837h10.417c.561 0 1.017.537 1.017 1.2 0 .662-.456 1.199-1.017 1.199H177.52zm14.94-6.625a.75.75 0 0 0-.443-.205.74.74 0 0 0-.362.043c.047-.099.086-.205.102-.33a.858.858 0 0 0-.084-.512c-.336-.736.625-2.209.504-2.275-.115-.064-.661 1.56-1.191 2.216a.926.926 0 0 0-.2.489.915.915 0 0 0 .087.513c.074.132.186.226.318.234a.295.295 0 0 0 .107-.006.222.222 0 0 0-.018.059.455.455 0 0 0 .141.388c.106.111.26.185.442.207a.77.77 0 0 0 .493-.093c.718-.393 2.21-.781 2.177-.919-.028-.138-1.482.715-2.073.191zm1.1-1.074a.633.633 0 0 0-.406-.199.654.654 0 0 0-.268.043c.013-.046.031-.085.036-.131a.725.725 0 0 0-.101-.462c-.366-.677.587-1.956.463-2.019-.123-.064-.645 1.368-1.175 1.934a.69.69 0 0 0-.197.425.772.772 0 0 0 .1.465c.084.123.199.21.339.229a.53.53 0 0 0 .178-.021c-.002.007-.01.018-.008.026a.524.524 0 0 0 .139.398c.1.107.245.181.404.195a.62.62 0 0 0 .433-.117c.619-.447 2.036-.712 2-.856-.034-.138-1.391.611-1.937.09zm.964-.993a.554.554 0 0 0-.389-.104.536.536 0 0 0-.197.051c.01-.03.029-.054.04-.083a.7.7 0 0 0-.024-.43c-.231-.665.792-1.648.693-1.728-.1-.074-.764 1.117-1.31 1.536a.646.646 0 0 0-.23.354.636.636 0 0 0 .02.428.438.438 0 0 0 .265.255c.092.029.184.01.27-.027a.408.408 0 0 0-.023.17c.014.136.079.25.186.33a.572.572 0 0 0 .753-.067c.492-.497 1.714-.962 1.664-1.081-.052-.12-1.152.765-1.718.396zm1.894-2.134c-.102-.151-.958.787-1.591.877a.663.663 0 0 0-.359.178.688.688 0 0 0-.22.361.38.38 0 0 0 .055.324.325.325 0 0 0 .299.109.64.64 0 0 0 .365-.181.73.73 0 0 0 .215-.356c.191-.643 1.312-1.214 1.236-1.312zm-17.693 1.27c-.027.093-.21.816-.21.816-.053.029-.274-.019-.331-.024-.423-.04-.8-.407-.638-.845.133-.358.403-.396.748-.412.143-.006.4.028.529.117 0 0-.051.165-.098.348zm-.486 2.182l-.04.247c-.262-.165-.417-.542-.291-.84.097-.226.338-.285.515-.295a49.8 49.8 0 0 0-.184.888zm-.378 2.696c-.033.185-.284.21-.454.261-.496.149-.965.085-1.118-.508-.166-.634.315-.901.829-1.025.281-.066.541-.011.733.226.048.059.104.112.117.168 0 0-.076.704-.107.878zm-1.562-3.122c.384-.092.78-.236 1.074.141.31.396.207 1.031-.292 1.199-.328.111-.723.207-1.005-.061-.367-.351-.34-1.148.223-1.279zm-.375-2.056c.404-.098.821-.247 1.131.149.323.414.216 1.084-.307 1.259-.346.114-.763.215-1.057-.067-.386-.366-.357-1.203.233-1.341zm-.375 4.445c-.105.37-.409.425-.729.502-.21-.257-.774-.909-.784-.986a.191.191 0 0 1 .012-.09c.026-.077.115-.151.181-.194.191-.125.6-.217.821-.172.397.085.604.568.499.94zm-2.005-1.899c-.289-1.024 1.428-1.47 1.693-.466.273 1.032-1.459 1.47-1.693.466zm-.252-2.044c-.294-1.017 1.43-1.464 1.696-.465.272 1.033-1.462 1.472-1.696.465zm-.242-2.009c-.28-.948 1.339-1.368 1.586-.433.254.962-1.365 1.377-1.586.433zm-.165 3.867c-.08.047-.109.072-.136.072l-.77-.838c.009-.024.248-.196.326-.242.641-.356 1.168.662.58 1.008zm-1.462-1.887c-.38-.84 1.006-1.751 1.426-.845.386.834-1 1.761-1.426.845zm1.165-2.66c.439.779-.881 1.648-1.259.81-.336-.722.837-1.565 1.259-.81zm-1.107-1.815c.195-.172.42-.265.651-.154.37.178.381.733.058.954-.147.101-.397.226-.577.181-.397-.101-.473-.68-.132-.981zm.05-1.669c.16-.108.373-.205.556-.13.334.137.323.622.053.816-.123.088-.347.197-.496.157-.339-.085-.422-.634-.113-.843zm.887-2.378c.198-.107.486-.152.664.048a.468.468 0 0 1-.134.734c-.212.106-.499.146-.667-.051a.48.48 0 0 1 .137-.731zm-.157 1.807c-.16-.595.842-.876 1.005-.271.181.587-.846.88-1.005.271zm1.616 1.039c.234.643-.855 1.007-1.068.372-.218-.643.877-1.01 1.068-.372zm.137-3.133c.208-.083.474-.173.706 0 .288.216.226.702-.105.853-.218.099-.497.165-.691-.008-.246-.22-.26-.705.09-.845zm-.191 5.381c-.294.069-.602.186-.846-.066-.313-.322-.223-.885.199-1.039.273-.104.62-.162.843.066.286.293.255.93-.196 1.039zm.004-3.284c-.189-.638.851-.965 1.05-.346.204.635-.871.973-1.05.346zm1.741 1.169c.244.728-.988 1.116-1.213.399-.229-.734 1.01-1.122 1.213-.399zm.065-1.95c.217-.058.446-.037.611.14.252.271.165.734-.207.803-.175.032-.446.019-.583-.101-.246-.218-.234-.731.179-.842zm1.05 1.528c.396 0 .596.582.364.871-.139.175-.437.186-.642.154-.378-.058-.62-.545-.366-.874.156-.199.42-.151.644-.151zm-1.903 2.396c-.244-.837 1.178-1.211 1.396-.38.221.845-1.21 1.217-1.396.38zm.872 1.071c.387-.04.792-.13 1.031.277.249.43.062 1.028-.442 1.129-.33.069-.731.101-.967-.192-.31-.387-.187-1.161.378-1.214zm1.974-1.864c.48.198.642.764.303 1.08-.181.165-.512.133-.734.088-.447-.088-.738-.758-.347-1.076.2-.163.559-.183.778-.092zm.755 2.018c.302.37.189 1.023-.339 1.055-.275.016-.635-.016-.821-.242-.3-.361-.187-1.039.341-1.057.275-.011.633.018.819.244zm2.039-6.664a.121.121 0 0 0-.134-.05c-.063.021-.105.09-.082.151 1.205 3.237-.333 4.831-.975 7.097-.773-1.841 1.784-3.573.467-6.929-.019-.043-.053-.078-.1-.085-.065-.009-.129.018-.14.106-.034.236-.188 2.096-1.697 3.186a3.018 3.018 0 0 0-.704-1.021c-.139-.627-.548-1.488-1.409-1.742-.128-.325-.388-.79-.887-1.04-.47-.234-1.013-.213-1.616.061-.731.085-1.232.37-1.496.845-.25.449-.205.938-.121 1.271-.615.656-.643 1.628-.627 2.009-.366.876-.16 1.899-.045 2.324-.436 1.191-.011 2.346.16 2.729 0 .104.005.202.011.3-1.428-1.562-4.677-3.497-5.918-4.235a.15.15 0 0 0-.182.021.156.156 0 0 0-.008.218c2.769 2.7 5.239 6.032 7.612 12.946 1.183-1.231 3.322-2.849 6.366-2.849h3.561c-2.261-8.428 1.032-11.444-2.036-15.313zm16.835 4.358c-.65-.17-4.807-.906-9.466 7.663.68-3.191 2.745-7.052 3.312-8.173v-.008a.156.156 0 0 0-.042-.192.135.135 0 0 0-.189.035c-3.078 5.133-4.16 8.091-4.797 11.63h1.929c.327-3.412 4.637-11.449 9.23-10.852h.005c.026.006.05-.016.052-.039a.048.048 0 0 0-.034-.064zm-9.262 28.232l-1.041-4.355h-1.774c.28 1.105.683 2.229 1.202 3.215a.16.16 0 0 0 .16.083.165.165 0 0 0 .134-.19c-.121-.922-.266-1.811-.401-2.699.375 1.395.881 2.758 1.563 4.013.019.039.058.057.095.045.05-.011.076-.064.062-.112zm1.793-1.977c-.18-.728-.37-1.621-.533-2.378h-.674c.263.808.617 1.709.932 2.479.031.075.103.112.17.093a.159.159 0 0 0 .105-.194zm.226 2.561l-.005-.01c-.218-.609-.519-1.154-.759-1.738a23.043 23.043 0 0 1-.706-1.759 20.968 20.968 0 0 1-.49-1.432h-.651c.183.545.422 1.132.645 1.658.491 1.188 1.058 2.352 1.779 3.393a.104.104 0 0 0 .124.035c.058-.022.084-.088.063-.147zm.974-20.9c-.05-.075-.171-.091-.229-.03a13.332 13.332 0 0 0-2.146 3.069h.703c.351-.826 1.144-2.285 1.653-2.811l.006-.005a.183.183 0 0 0 .013-.223zm-5.354-6.045c.65-1.069 1.616-1.887 2.436-2.875.028-.038.026-.096-.008-.128a.082.082 0 0 0-.118-.003c-.187.199-.381.386-.58.571-.087-.042-.308.043-.531.218-.175.139-.301.293-.346.404-.113-.026-.326.106-.517.351-.157.205-.249.42-.247.553-.12.01-.296.164-.446.409-.097.162-.16.319-.181.449a1.243 1.243 0 0 0-.31.353c-.133.224-.202.449-.181.579-.031.057-.063.11-.089.165l.016-.132c.191-1.513.469-3.011.892-4.456.425-1.441.935-2.894 1.808-4.061l.006-.005a.166.166 0 0 0-.016-.21.138.138 0 0 0-.205-.003 6.505 6.505 0 0 0-.784 1.05c-.101-.053-.311.144-.47.452-.147.278-.2.536-.145.635 0 0-.002.008-.007.005-.106-.045-.3.189-.418.502-.116.295-.136.566-.058.657-.005.005-.005.008-.008.013-.118-.043-.309.226-.427.606-.097.321-.108.6-.038.712.006.005 0 .019-.004.016-.122-.043-.305.234-.413.611-.107.364-.099.686.003.749-.118-.013-.283.263-.37.638-.079.324-.071.603.005.715-.115.034-.244.305-.309.656-.063.343-.032.627.052.718-.107.055-.218.334-.257.68-.04.343.01.624.1.715-.09.1-.176.339-.213.627-.037.273-.013.51.039.643-.096.082-.17.359-.173.691-.007.265.032.491.1.621a1.53 1.53 0 0 0-.089.542c-.006.279.039.518.11.643-.021.981-.007 2.025.044 3.008h2.119c.015-.765.065-1.6.141-2.357.15-1.35.373-2.721 1.047-3.874l.006-.008a.114.114 0 0 0-.014-.127c-.039-.035-.094-.035-.131.008-.916 1.063-1.317 2.506-1.553 3.89-.042.271-.077.544-.108.816.058-1.111.16-2.217.414-3.269.292-1.281.874-2.5 1.985-3.183a.099.099 0 0 0 .039-.112c-.013-.05-.066-.079-.11-.066-.071.021-.136.058-.205.088-.073-.091-.343-.024-.622.153-.264.173-.44.386-.423.503 0 .005-.012.013-.012.002-.003-.013-.005-.026-.013-.034-.101-.082-.368.104-.594.42-.228.316-.317.646-.22.731.005.002.002.01-.002.01-.119-.048-.316.221-.439.596-.089.262-.11.504-.079.643 0 .004-.005.01-.005.01-.092.303-.168.609-.239.919.026-.438.066-.879.129-1.315.186-1.254.564-2.482 1.236-3.528zm6.663-3.498a.75.75 0 0 0-.485-.037.794.794 0 0 0-.325.17.947.947 0 0 0-.019-.345.838.838 0 0 0-.252-.449c-.572-.571-.179-2.291-.312-2.312-.131-.018-.084 1.696-.355 2.498a.92.92 0 0 0-.018.529.882.882 0 0 0 .26.451c.113.099.249.144.377.104a.22.22 0 0 0 .098-.043c0 .022 0 .043.003.064.028.141.128.25.264.314.14.066.31.082.489.037a.792.792 0 0 0 .428-.26c.538-.625 1.802-1.515 1.726-1.634-.076-.117-1.143 1.195-1.879.913zm2.446-2.165c-.082-.117-1.094 1.065-1.785.77a.635.635 0 0 0-.451-.042.69.69 0 0 0-.236.133c-.002-.048 0-.091-.011-.133a.706.706 0 0 0-.254-.398c-.577-.505-.123-2.041-.26-2.057-.139-.016-.136 1.512-.435 2.229a.678.678 0 0 0-.037.468c.042.17.136.311.255.401a.482.482 0 0 0 .393.093.495.495 0 0 0 .16-.082c0 .008-.003.018 0 .026a.529.529 0 0 0 .271.327.638.638 0 0 0 .445.037.626.626 0 0 0 .365-.26c.428-.64 1.662-1.39 1.58-1.512zm.249-1.48c-.088-.093-.816 1.124-1.474.978a.553.553 0 0 0-.4.04.54.54 0 0 0-.168.117c0-.03.008-.059.008-.091a.669.669 0 0 0-.17-.393c-.444-.542.173-1.825.055-1.865-.121-.035-.331 1.315-.698 1.902a.632.632 0 0 0-.095.412.65.65 0 0 0 .168.396c.095.098.21.152.336.144a.37.37 0 0 0 .244-.12c0 .053.011.111.037.167.058.123.16.207.286.242.123.04.271.029.402-.035a.589.589 0 0 0 .283-.292c.289-.64 1.273-1.509 1.186-1.602zm-.435-1.69c-.149-.106-.625 1.076-1.189 1.384a.685.685 0 0 0-.276.295.717.717 0 0 0-.078.415c.013.125.07.231.162.284a.32.32 0 0 0 .316-.002.668.668 0 0 0 .28-.298.746.746 0 0 0 .079-.412c-.042-.669.81-1.6.706-1.666zm-10.358 30.839h-5.945a6.166 6.166 0 0 1-1.102-.091c.976 1.451 2.506 2.552 4.057 3.29.239 1.323.538 2.548.646 2.644.11.095 1.632-.343 1.679-.484.045-.14-.622-2.407-.622-2.407.801-1.374 1.047-2.185 1.287-2.952zm14.954 10.169c-1.502.593-3.459.642-5.058.218-3.661-1.14-7.727-3.3-11.629-1.507-3.902-1.793-7.968.367-11.629 1.507-1.597.424-3.555.375-5.056-.218-.042-.016-.075.037-.038.066 2.161 1.671 5.186 2.44 7.911 1.456 2.616-.815 4.829-3.587 7.928-2.404-2.454.959-4.748 2.729-6.519 4.399l1.288 1.058c1.609-1.873 3.42-3.746 5.47-4.886.281-.165.449-.231.645-.242.197.011.365.077.644.242 2.051 1.14 3.862 3.013 5.471 4.886l1.288-1.058c-1.771-1.67-4.065-3.44-6.518-4.399 3.099-1.183 5.311 1.589 7.928 2.404 2.724.984 5.75.215 7.91-1.456.034-.029.006-.082-.036-.066zm-24.129-2.525c-3.827-.927-4.874-4.514-8.074-6.071-.034-.018-.07.022-.049.053 1.007 1.658 1.553 4.198 4.459 5.764.023.012.01.05-.016.042-4.168-.802-5.918.313-10.285-1.661-.037-.016-.076.024-.053.059 1.436 2.083 4.843 3.507 9.509 3.114 1.68-.143 2.897-.85 4.509-1.227.039-.011.039-.065 0-.073zm-8.016-2.2c-1.453-1.905-1.039-5.972-4.322-9.695-.027-.029-.073-.006-.066.031.627 2.742.442 5.857 2.158 8.139.015.024-.008.048-.032.032-3.385-2.665-6.865-3.468-8.414-5.625-.023-.029-.07-.014-.065.024.383 2.792 5.747 7.145 10.713 7.153a.037.037 0 0 0 .028-.059zm-5.083-5.064c-1.558-2.891.305-7.302-1.465-11.588-.017-.045-.086-.034-.086.014-.052 2.34-1.507 5.835-.628 8.473.011.024-.02.037-.034.016-2.238-3.271-4.014-3.954-5.495-6.948-.02-.045-.089-.033-.092.015-.094 2.035.806 3.694 1.822 5.235a17.398 17.398 0 0 0 5.928 4.836c.034.016.066-.019.05-.053zm-1.058-17.606c-.002-.048-.065-.064-.088-.022-1.19 2.224-3.308 3.994-3.375 6.931-.003.029-.035.031-.04.004-.386-2.266-2.31-4.806-2.394-8.088 0-.05-.07-.063-.089-.016-1.582 4.268.693 8.314 3.115 11.657.027.034.079.014.079-.032-.1-3.542 2.971-6.186 2.792-10.434zm1.512-5.522c-1.123 1.56-3.65 2.663-4.574 4.913-.014.032-.053.024-.048-.013.368-2.522-.605-5.45.308-8.8.012-.048-.048-.08-.076-.043-1.381 1.698-1.848 3.688-1.924 5.838-.095 2.641.835 4.567 1.294 6.358.01.043.065.04.076-.003.661-2.348 3.981-3.762 5.02-8.213.013-.047-.047-.077-.076-.037zm3.047-5.245c-1.848 1.448-4.669 2.843-5.275 3.85-.011.021-.042.005-.036-.016l.684-3.287c.307-1.395.572-2.731 1.344-3.98.023-.037-.022-.08-.055-.053-3.517 2.785-3.003 6.812-3.157 10.11-.003.035.039.051.062.027 2.071-2.246 5.446-3.553 6.491-6.606.012-.037-.027-.069-.058-.045zm2.616-5.049c-3.107.099-5.39 2.716-6.369 6.048-.005.019.021.035.037.024 4.281-3.138 4.041-4.483 6.359-5.976.042-.027.023-.096-.027-.096zm35.829 38.813c-4.365 1.974-6.118.859-10.285 1.661-.026.008-.04-.03-.016-.042 2.905-1.566 3.451-4.106 4.459-5.764.021-.031-.016-.071-.05-.053-3.196 1.557-4.243 5.144-8.072 6.071-.04.008-.04.062 0 .073 1.611.377 2.829 1.084 4.508 1.227 4.666.393 8.076-1.031 9.508-3.114.024-.035-.015-.075-.052-.059zm4.726-7.445c-1.548 2.157-5.028 2.96-8.413 5.625-.022.016-.048-.008-.029-.032 1.713-2.282 1.527-5.397 2.155-8.139.008-.037-.04-.06-.067-.031-3.28 3.723-2.868 7.79-4.319 9.695-.018.025-.003.059.028.059 4.966-.008 10.328-4.361 10.711-7.153.005-.038-.042-.053-.066-.024zm2.208-7.964c-.003-.048-.071-.06-.092-.015-1.48 2.994-3.258 3.677-5.493 6.948-.016.021-.045.008-.037-.016.879-2.638-.572-6.133-.627-8.473 0-.048-.068-.059-.087-.014-1.769 4.286.095 8.697-1.462 11.588-.017.034.014.069.048.053a17.41 17.41 0 0 0 5.929-4.836c1.015-1.541 1.915-3.2 1.821-5.235zm-.756-8.779c-.018-.047-.09-.034-.09.016-.084 3.282-2.008 5.822-2.393 8.088-.005.027-.036.025-.036-.004-.069-2.937-2.19-4.707-3.378-6.931-.024-.042-.087-.026-.087.022-.178 4.248 2.889 6.892 2.79 10.434 0 .046.054.066.081.032 2.42-3.343 4.695-7.389 3.113-11.657zm-1.183-2.436c-.077-2.15-.544-4.14-1.924-5.838-.03-.037-.087-.005-.076.043.913 3.35-.061 6.278.309 8.8.005.037-.037.045-.05.013-.924-2.25-3.451-3.353-4.574-4.913-.026-.04-.087-.01-.076.037 1.039 4.451 4.359 5.865 5.02 8.213.01.043.066.046.077.003.459-1.791 1.387-3.717 1.294-6.358zm-6.024-10.626c-.034-.027-.079.016-.055.053.772 1.249 1.037 2.585 1.344 3.98l.685 3.287c.005.021-.027.037-.037.016-.606-1.007-3.425-2.402-5.275-3.85-.029-.024-.071.008-.057.045 1.044 3.053 4.419 4.36 6.489 6.606.024.024.066.008.063-.027-.155-3.298.36-7.325-3.157-10.11zm-5.955-1.563c-.05 0-.065.069-.026.096 2.317 1.493 2.079 2.838 6.359 5.976.019.011.042-.005.037-.024-.979-3.332-3.263-5.949-6.37-6.048zM6.447 37.752c-.334.304-.526.455-.573.455-.175 0-.716-.289-1.623-.867-.255.217-.501.434-.739.65-.335.32-.541.557-.621.716 1.018.55 1.639.832 1.861.847.43-.347.756-.608.979-.782l1.813.868c.175-.13.438-.347.787-.651.414-.376.62-.599.62-.673l-1.908-1.018c-.063 0-.262.151-.596.455"/><path d="M20.786 31.635c-.174-.015-.437-.12-.787-.318-.239-.15-.485-.302-.739-.454.206-.15.484-.226.835-.226.461 0 .691.174.691.521v.477zm9.951-6.399c-.764-.42-1.186-.723-1.265-.911a2.15 2.15 0 0 1-.144-.717l-.142-.108c-.51.507-1.074 1.353-1.695 2.538.254.29.501.514.74.673.143.318.318 1.081.525 2.288.207 1.207.31 2.014.31 2.419a.393.393 0 0 1-.072.217h-5.201c-.493 0-.907-.347-1.241-1.041-.286-.578-.422-1.114-.405-1.606-.017-.187-.069-.314-.156-.38-.086-.064-.258-.097-.512-.097-.526 0-1.103.145-1.731.434-.628.289-1.149.622-1.562.998-.159.145-.37.445-.632.9-.263.456-.45.719-.562.792H7.449c-.875 1.142-1.344 1.821-1.409 2.039l2.149.173c.811.101 1.423.398 1.837.889-1.512.42-2.816.63-3.913.63-.891 0-1.67-.151-2.339-.456-.843-.39-1.265-.955-1.265-1.691 0-.55.184-1.1.55-1.65.206-.332.54-.737 1.002-1.214.365-.376.548-.607.548-.694 0-.073-.016-.123-.047-.152h-.263c-.859.535-1.639 1.316-2.339 2.342-.747 1.085-1.121 2.061-1.121 2.928 0 1.187.628 1.983 1.886 2.388.397.143.643.216.739.216-.032 0 .246-.216.835-.651.206.159.406.326.597.499.286.217.516.326.692.326.398 0 .683-.073.859-.217.19-.203.381-.406.573-.608.636.29.929.435.883.435.173 0 .508-.088 1.002-.261.492-.174.827-.311 1.002-.412.413-.232.802-.607 1.168-1.128.302-.448.597-.896.883-1.346h4.224c.302 0 .524-.165.668-.499.175-.447.302-.701.382-.758l4.629 2.342c.19-.072.353-.249.489-.531.135-.282.25-.467.346-.554h6.966c.223-.099.35-.173.382-.216.112-.13.254-.564.43-1.301.175-.737.246-1.2.215-1.389l-.286-2.928 1.86-2.191c-.43-.173-.939-.427-1.526-.759zm18.067 0c-.764-.42-1.185-.723-1.265-.911a2.13 2.13 0 0 1-.142-.717l-.144-.108c-.509.507-1.073 1.353-1.694 2.538.255.29.501.514.74.673.144.318.317 1.081.525 2.288.207 1.207.31 2.014.31 2.419a.39.39 0 0 1-.072.217h-3.244c.174-.258.341-.51.501-.755.206-.317.31-.575.31-.776 0-.59-.35-1.108-1.051-1.553-.652-.402-1.311-.603-1.979-.603-1.114 0-1.934.253-2.458.758-.286.289-.7.983-1.241 2.082.525-.071.811-.107.859-.107.747 0 1.367.318 1.861.954h-4.175c-.461 0-.716-.115-.764-.347-.207-.767-.382-2.032-.524-3.796l-.288-3.948c-.158.13-.461.455-.906.975-.477.565-.716.898-.716.999l.835 8.502h6.801c.349-.476.604-.837.763-1.084.318.478.549.839.692 1.084h5.392c.223-.099.35-.173.382-.216.111-.13.254-.564.429-1.301.176-.737.247-1.2.215-1.389l-.286-2.928 1.861-2.191a13.513 13.513 0 0 1-1.527-.759m2.731 1.974l1.075 6.985c.922-.983 1.383-2.214 1.383-3.688 0-1.273-.23-3.319-.691-6.139-.876 1.099-1.464 2.047-1.767 2.842m9.803-2.408c.938.606 1.495.91 1.672.91.082 0 .292-.209.632-.628.299-.376.497-.651.591-.824l-1.713-.976c-.734.606-1.094.91-1.08.91-.232 0-.741-.304-1.53-.91-.679.795-1.08 1.28-1.203 1.452.721.493 1.285.803 1.693.933.489-.477.801-.766.938-.867m9.143 11.184c-.251.294-.425.443-.52.443-.163 0-.645-.304-1.446-.911-.408.481-.775.969-1.101 1.465.327.307.843.657 1.549 1.051.408-.443.714-.763.918-.955l1.529.955c.368-.305.762-.804 1.185-1.5l-1.614-1.056c-.081.041-.248.211-.5.508m-8.368-5.545c.298-.274.557-.462.775-.563.435-.434.74-.788.917-1.063l.367 1.909-2.059-.283zm8.686-1.236c.584.84 1.005 1.648 1.264 2.43h-5.199c-.531 0-.85-.166-.958-.499-.191-.608-.402-1.627-.632-3.059-.259-1.662-.45-2.748-.572-3.253l-.101-.065-1.224 2.233c.04.203.109.42.204.652-.748.448-1.489.896-2.222 1.344-.517.348-.898.76-1.143 1.237-.244.477-.517 1.352-.815 2.625l3.69.694c.177.043.408-.195.694-.717.312-.606.516-.946.612-1.019l.407 1.389c.231.55.564.824 1 .824h7.278c.299-1.663.449-2.792.449-3.384 0-1.042-.524-2.227-1.57-3.558l-1.162 2.126zm6.443-3.145c.164 0 .428-.159.795-.477.313-.274.544-.513.694-.716-.884-.94-1.38-1.411-1.489-1.411-.123 0-.371.205-.744.608-.375.406-.601.687-.683.846.666.767 1.141 1.15 1.427 1.15m8.36-.303c.434.362.714.556.836.585 1.006-.607 1.515-1.034 1.529-1.28-.884-.954-1.399-1.446-1.55-1.475-.978.854-1.468 1.346-1.468 1.475 0 .101.217.333.653.695m-.53 4.13c.339-.31 1.093-.465 2.263-.465 1.25 0 2.264.362 3.038 1.086.028-.724-.282-1.439-.927-2.148-.646-.71-1.309-1.064-1.989-1.064-.652 0-1.414.354-2.283 1.064-.789.664-1.353 1.337-1.692 2.017-.096.535-.137.955-.123 1.259h-.183v-.044h-1.04c-.136 0-.293-.281-.47-.841-.352-1.22-.795-3.016-1.325-5.385a99.65 99.65 0 0 0-.652 1.236 6.3 6.3 0 0 0-.51 1.28l.816 3.514-.042.196h-4.016c-.191 0-.285-.319-.285-.954 0-.377.013-.709.041-.999-.3.044-.565.6-.795 1.67-.177.854-.266 1.541-.266 2.061 0 .434.15.65.449.65h4.323c.108 0 .257-.194.448-.585.245-.448.394-.701.449-.76.081.247.162.5.244.76.109.334.231.529.367.585h9.339l1.324-2.384h-4.526c-.706-.443-1.365-1.027-1.977-1.749m7.503-6.973c.177.059.353.117.531.174l-.49.391c-.204.187-.313.347-.327.477.924-.593 1.665-.883 2.223-.868.218-.274.36-.499.429-.672-1.306 0-2.027-.159-2.161-.478.297-.187.482-.281.549-.281-.027 0 .163.116.572.346.257-.39.387-.577.387-.564 0-.13-.071-.234-.214-.314a.823.823 0 0 0-.398-.119c-.367 0-.703.173-1.009.52-.306.347-.459.716-.459 1.106 0 .088.122.182.367.282m5.641 9.025c-.447 0-.852-.014-1.216-.044.433-.362.747-.651.944-.868.251.391.425.695.524.912h-.252zm3.351-6.768l-1.019-.608c-.422-.289-.632-.607-.632-.955a.96.96 0 0 1 .021-.194c-.98 1.345-1.469 2.118-1.469 2.321 0-.044.081.101.245.433.162.333.244.638.244.911 0 .724-.17 1.345-.509 1.866-.503-.825-1.353-1.822-2.549-2.994-1.401-1.344-2.426-2.009-3.079-1.995h-.062c-.57 1.099-.855 1.931-.855 2.495 0 .52.23.94.692 1.257a83.555 83.555 0 0 0 2.61 1.54c.054-.014.146-.119.276-.313.129-.196.214-.294.255-.294.122 0 .393.238.815.716.38.42.626.724.734.911-.028.26-.36.549-.999.868a9.6 9.6 0 0 1-1.285.563 51.985 51.985 0 0 0-.815 2.321h5.342c.109-.78.163-1.351.163-1.713 0-.622-.244-1.446-.734-2.473.639-.737 1.075-1.64 1.305-2.711.164.057.354.116.571.173.163-.246.326-.484.49-.715.19-.304.285-.572.285-.803 0-.073-.003-.177-.011-.314a1.968 1.968 0 0 0-.03-.293zm1.244 2.039l.917 6.985c.788-.983 1.182-2.214 1.182-3.688 0-1.273-.196-3.319-.59-6.139-.748 1.099-1.251 2.047-1.509 2.842m10.93 6.246c-.136 0-.354.2-.653.598-.299.396-.449.661-.449.792 0 .056.207.274.622.65.415.376.656.564.725.564.19 0 .57-.499 1.141-1.497-.013-.116-.218-.329-.611-.639-.395-.312-.653-.468-.775-.468"/><path d="M122.509 30.182c.368-.261.68-.391.939-.391l.122.021c.217.435.353.782.408 1.042l-1.469-.672zm2.835-1.454a14.735 14.735 0 0 1-.144-.737c-.081-.231-.264-.347-.549-.347-.544 0-1.194.285-1.948.856-.754.572-1.241 1.133-1.458 1.682-.353.881-.578 1.366-.672 1.453h-3.346c-.884 0-1.324-.239-1.324-.716 0-.115.04-.21.121-.282a29.88 29.88 0 0 1 1.244-.109c.408-.954.7-1.67.877-2.148h-2.915c-.3 0-.837-.096-1.612-.292-.775-.195-1.359-.292-1.753-.292-.599 0-1.061.39-1.387 1.171-.095.231-.279.889-.551 1.973.259-.188.514-.371.766-.552.251-.182.546-.272.886-.272.68 0 1.102.058 1.264.174-.747.622-1.362 1.457-1.845 2.505-.483 1.05-.724 2.071-.724 3.069 0 1.259.456 2.214 1.366 2.863.788.58 1.802.869 3.039.869 2.161 0 3.588-.651 4.281-1.954-.571.015-1.006.024-1.304.024-4.16 0-6.24-1.021-6.24-3.06 0-.737.34-1.482 1.02-2.234.597-.664 1.257-1.143 1.977-1.432.313-.086.55-.143.714-.173-.013.117-.071.318-.173.608-.102.289-.153.52-.153.693 0 .594.166 1.068.5 1.421.332.356.777.531 1.335.531h3.732c.15 0 .333-.234.551-.705.217-.469.388-.74.51-.812 2.202.867 3.317 1.373 3.344 1.517.244-.418.496-.837.755-1.257.338-.58.509-1.012.509-1.301 0-.362-.088-.818-.265-1.367a83.17 83.17 0 0 0-.428-1.367zm8.992-3.774c-.83-.435-1.434-.788-1.815-1.063l-1.571 1.735c.912.405 1.584.745 2.02 1.019.842-.968 1.297-1.533 1.366-1.691"/><path d="M135.478 30.832c0-.68-.15-1.352-.449-2.017-.205-.419-.565-.998-1.08-1.736l-1.163 2.105c.557.809.979 1.627 1.264 2.451h-3.608c-.395 0-.613-.115-.654-.348-.175-.766-.326-2.03-.448-3.795l-.244-3.948c-.137.129-.395.455-.775.975-.408.565-.612.898-.612.999l.713 8.502h6.607c.299-1.561.449-2.624.449-3.188"/><path d="M148.365 28.62c-.287-.723-.667-1.295-1.143-1.714l-1.203 2.234c.245.216.516.6.815 1.15.299.55.449.976.449 1.279 0 .044-.007.066-.02.066h-3.935c-.843 0-1.496-.31-1.958-.933l-1.222-1.952c-.111.145-.33.507-.663 1.084-.334.578-.5.911-.5.998 0 .029.197.315.591.857.395.541.59.936.59 1.182 0 .506-.562 1.16-1.69 1.964-1.13.802-1.986 1.203-2.57 1.203-.381 0-.817-.144-1.305-.434-.489-.289-.713-.433-.673-.433-.068 0-.102.014-.102.044v.281c.367.435 1.03.903 1.987 1.41.959.506 1.689.759 2.193.759.747 0 1.434-.47 2.059-1.41.421-.795.842-1.583 1.264-2.364l.102-.13c.341.173.605.259.796.259h5.954c.408 0 .611-1.091.611-3.275 0-.694-.143-1.402-.427-2.125m-1.989 7.288c-.497-.476-.785-.716-.866-.716-.083 0-.357.24-.826.716-.47.477-.704.759-.704.847 0 .086.227.325.683.716.455.389.744.591.867.607 1.061-.638 1.59-1.071 1.59-1.303 0-.1-.248-.39-.744-.867"/></g></svg>