<?xml version="1.0" encoding="utf-8"?>
<!-- Generator: Adobe Illustrator 16.0.0, SVG Export Plug-In . SVG Version: 6.00 Build 0)  -->
<!DOCTYPE svg PUBLIC "-//W3C//DTD SVG 1.1//EN" "http://www.w3.org/Graphics/SVG/1.1/DTD/svg11.dtd">
<svg version="1.1" id="Layer_1" xmlns="http://www.w3.org/2000/svg" xmlns:xlink="http://www.w3.org/1999/xlink" x="0px" y="0px"
	 width="56.693px" height="56.693px" viewBox="0 0 56.693 56.693" enable-background="new 0 0 56.693 56.693" xml:space="preserve">
<path fill="#007ABF" d="M40.895,9.989c1.719,0,3.113,1.393,3.113,3.116c0,1.723-1.395,3.118-3.113,3.118
	c-1.725,0-3.125-1.396-3.125-3.118C37.77,11.382,39.17,9.989,40.895,9.989z M28.293,28.946c1.057,0,1.916,0.853,1.916,1.911
	c0,1.057-0.858,1.909-1.916,1.909c-1.06,0-1.918-0.853-1.918-1.909C26.375,29.799,27.233,28.946,28.293,28.946z M15.698,9.997
	c1.722,0,3.122,1.395,3.122,3.116c0,1.721-1.4,3.116-3.122,3.116c-1.725,0-3.123-1.396-3.123-3.116
	C12.575,11.392,13.973,9.997,15.698,9.997z M18.784,34.47l-0.623,11.507c0,0.398-0.33,0.731-0.733,0.731
	c-0.402,0-0.729-0.333-0.729-0.731L16.024,34.47H15.33l-0.628,11.507c0,0.398-0.326,0.731-0.739,0.731
	c-0.398,0-0.728-0.333-0.728-0.731L12.603,34.47h-2.032l2.106-12.9l-4.235,8.435c-0.161,0.371-0.59,0.549-0.964,0.391
	c-0.368-0.158-0.542-0.584-0.382-0.961c0,0,3.106-8.394,3.87-9.957c0.764-1.565,1.525-2.517,4.432-2.517h0.595
	c2.915,0,3.668,0.951,4.435,2.517c0.77,1.563,3.873,9.957,3.873,9.957c0.158,0.377-0.02,0.803-0.391,0.961
	c-0.374,0.158-0.802-0.02-0.958-0.391l-4.235-8.435l2.101,12.9H18.784z M34.254,31.316c-0.084,0.128-1.777,2.757-2.777,3.355
	c-0.975,0.583-0.994,0.326-1.094,1.184l-0.113,2.525l0.355,7.355c0.02,0.058,0,0.413-0.006,0.43
	c-0.105,0.312-0.394,0.542-0.736,0.542c-0.335,0-0.609-0.21-0.729-0.504c0-0.006-0.861-5.991-0.861-5.991s-0.864,5.985-0.864,5.991
	c-0.111,0.294-0.393,0.504-0.722,0.504c-0.346,0-0.629-0.229-0.731-0.542c-0.014-0.017-0.033-0.372-0.014-0.43l0.351-7.355
	l-0.111-2.525c-0.094-0.857-0.116-0.601-1.093-1.184c-0.994-0.599-2.69-3.228-2.776-3.355c-0.083-0.133-0.238-0.362-0.266-0.51
	c-0.052-0.266,0.122-0.518,0.385-0.57c0.202-0.033,0.365,0.072,0.49,0.211c0.136,0.141,2.087,2.74,3.552,2.99
	c0.333-0.048,0.687-0.223,1.614-0.223h0.368c0.933,0,1.288,0.175,1.617,0.223c1.464-0.25,3.415-2.85,3.546-2.99
	c0.127-0.139,0.297-0.244,0.496-0.211c0.262,0.053,0.434,0.305,0.384,0.57C34.488,30.954,34.336,31.184,34.254,31.316z
	 M49.105,30.387c-0.371,0.16-0.803-0.021-0.961-0.389l-3.809-8.437l-0.208,6.782h-0.005l0.603,17.052
	c0.042,0.676-0.46,1.263-1.138,1.307c-0.031,0.006-0.059,0.006-0.089,0.006c-0.634,0-1.177-0.493-1.216-1.141l-1.397-14.043
	l-1.381,14.043c-0.05,0.647-0.59,1.141-1.229,1.141c-0.025,0-0.055,0-0.088-0.006c-0.67-0.044-1.178-0.631-1.136-1.307l0.601-17.052
	l-0.207-6.782l-3.814,8.437c-0.149,0.368-0.582,0.549-0.955,0.389c-0.373-0.162-0.545-0.588-0.388-0.964
	c0,0,2.683-8.394,3.443-9.954c0.767-1.564,1.952-2.516,4.861-2.516h0.598c2.909,0,4.092,0.951,4.858,2.516
	c0.768,1.561,3.449,9.954,3.449,9.954C49.656,29.799,49.481,30.225,49.105,30.387z"/>
</svg>
