<?xml version="1.0" encoding="utf-8"?>
<!-- Generator: Adobe Illustrator 16.0.0, SVG Export Plug-In . SVG Version: 6.00 Build 0)  -->
<!DOCTYPE svg PUBLIC "-//W3C//DTD SVG 1.1//EN" "http://www.w3.org/Graphics/SVG/1.1/DTD/svg11.dtd">
<svg version="1.1" id="Layer_1" xmlns="http://www.w3.org/2000/svg" xmlns:xlink="http://www.w3.org/1999/xlink" x="0px" y="0px"
	 width="56.693px" height="56.693px" viewBox="0 0 56.693 56.693" enable-background="new 0 0 56.693 56.693" xml:space="preserve">
<path fill="#007ABF" d="M45.355,0H11.339C5.1,0,0.001,5.101,0.001,11.338v34.018c0,6.235,5.099,11.338,11.338,11.338h34.017
	c6.234,0,11.339-5.103,11.339-11.338V11.338C56.694,5.101,51.59,0,45.355,0z"/>
<path fill="#E20613" stroke="#FFFFFF" d="M33.735,31.249l-4.244,4.933c6.391,7.301,13.218,15.115,13.218,15.115l1.598-7.983
	C44.307,43.313,39,37.266,33.735,31.249z M37.921,9.801c0,0,0,4.788-3.19,7.979L12.388,43.313l1.598,7.983l22.343-25.538
	c3.19-3.189,3.19-7.979,3.19-7.979L37.921,9.801z M18.773,9.801l-1.598,7.979c0,0,0,4.79,3.191,7.979c0,0,2.099,2.367,2.645,2.996
	l4.339-4.84c-1.967-2.242-5.387-6.136-5.387-6.136C18.773,14.589,18.773,9.801,18.773,9.801z M28.346,5.013
	c-6.382,0-7.979,3.19-7.979,3.19v2.395c0,1.433,0.345,2.744,0.9,3.94c1.736-0.857,4.048-1.545,7.078-1.545s5.346,0.688,7.081,1.545
	c0.556-1.196,0.901-2.508,0.901-3.94V8.203C36.328,8.203,34.73,5.013,28.346,5.013z"/>
</svg>
