<?xml version="1.0" encoding="utf-8"?>
<!-- Generator: Adobe Illustrator 16.0.0, SVG Export Plug-In . SVG Version: 6.00 Build 0)  -->
<!DOCTYPE svg PUBLIC "-//W3C//DTD SVG 1.1//EN" "http://www.w3.org/Graphics/SVG/1.1/DTD/svg11.dtd">
<svg version="1.1" id="Layer_1" xmlns="http://www.w3.org/2000/svg" xmlns:xlink="http://www.w3.org/1999/xlink" x="0px" y="0px"
	 width="56.693px" height="56.693px" viewBox="0 0 56.693 56.693" enable-background="new 0 0 56.693 56.693" xml:space="preserve">
<path fill="#007BC0" d="M19.137,19.141c0,1.672-1.356,3.027-3.028,3.027c-1.677,0-3.039-1.355-3.039-3.027
	c0-1.673,1.362-3.029,3.039-3.029C17.78,16.111,19.137,17.468,19.137,19.141 M16.424,39.891l0.653,11.181
	c0,0.389,0.321,0.709,0.709,0.709c0.394,0,0.714-0.32,0.714-0.709l0.604-11.181h1.977l-2.043-12.535l4.119,8.198
	c0.148,0.357,0.564,0.531,0.93,0.377c0.359-0.152,0.531-0.566,0.377-0.933c0,0-3.012-8.154-3.76-9.675
	c-0.747-1.521-1.479-2.444-4.307-2.444h-0.582c-2.822,0-3.564,0.923-4.307,2.444s-3.759,9.675-3.759,9.675
	c-0.155,0.366,0.011,0.78,0.371,0.933c0.36,0.154,0.78-0.02,0.936-0.377l4.113-8.198l-2.043,12.535h1.972l0.613,11.181
	c0,0.389,0.322,0.709,0.709,0.709c0.398,0,0.72-0.32,0.72-0.709l0.608-11.181H16.424z M40.589,16.104
	c-1.677,0-3.034,1.354-3.034,3.029c0,1.673,1.357,3.028,3.034,3.028c1.667,0,3.022-1.355,3.022-3.028
	C43.611,17.458,42.256,16.104,40.589,16.104 M43.728,33.939l0.205-6.59l3.698,8.197c0.154,0.359,0.576,0.533,0.936,0.379
	c0.365-0.157,0.531-0.572,0.382-0.938c0,0-2.607-8.156-3.349-9.673c-0.748-1.52-1.899-2.443-4.723-2.443h-0.582
	c-2.828,0-3.98,0.923-4.727,2.443c-0.736,1.517-3.344,9.673-3.344,9.673c-0.15,0.365,0.016,0.78,0.375,0.938
	c0.366,0.154,0.787-0.02,0.931-0.379l3.704-8.197l0.205,6.59l-0.588,16.568c-0.039,0.658,0.455,1.227,1.107,1.27
	c0.027,0.004,0.061,0.004,0.083,0.004c0.62,0,1.146-0.477,1.196-1.107l1.34-13.643l1.361,13.643c0.039,0.631,0.564,1.107,1.18,1.107
	c0.027,0,0.055,0,0.082-0.004c0.665-0.043,1.152-0.611,1.113-1.27l-0.592-16.568H43.728z M28.344,34.524
	c-1.03,0-1.866,0.829-1.866,1.857c0,1.026,0.836,1.856,1.866,1.856c1.029,0,1.859-0.83,1.859-1.856
	C30.203,35.353,29.373,34.524,28.344,34.524 M28.344,45.472c0,0,0.836,5.814,0.836,5.82c0.115,0.285,0.381,0.488,0.708,0.488
	c0.332,0,0.614-0.223,0.714-0.525c0.006-0.017,0.027-0.361,0.006-0.417l-0.344-7.147l0.111-2.453
	c0.094-0.833,0.116-0.582,1.062-1.15c0.969-0.581,2.619-3.136,2.696-3.26c0.083-0.129,0.228-0.354,0.261-0.496
	c0.049-0.258-0.123-0.502-0.377-0.553c-0.188-0.034-0.359,0.07-0.481,0.204c-0.128,0.138-2.021,2.663-3.444,2.906
	c-0.32-0.047-0.664-0.218-1.571-0.218h-0.36c-0.896,0-1.245,0.171-1.566,0.218c-1.423-0.243-3.316-2.769-3.449-2.906
	c-0.121-0.134-0.276-0.238-0.476-0.204c-0.255,0.051-0.427,0.295-0.371,0.553c0.022,0.143,0.177,0.367,0.255,0.496
	c0.083,0.124,1.732,2.679,2.695,3.26c0.953,0.568,0.969,0.317,1.063,1.15l0.11,2.453l-0.343,7.147c-0.022,0.056,0,0.4,0.011,0.417
	c0.1,0.303,0.377,0.525,0.715,0.525c0.314,0,0.592-0.203,0.703-0.488C27.508,51.287,28.344,45.472,28.344,45.472"/>
<path fill="#007BC0" d="M28.305,25.546c0.581-0.004,1.057-0.328,1.057,0.036l-0.332,3.91c0,0.855-1.389,0.501-1.389,0.098
	l-0.404-4.006C27.236,25.217,27.712,25.542,28.305,25.546"/>
<path fill="#007BC0" d="M26.71,15.166c1.356,0.001,2.497-2.246-0.78-3.722c-2.918-1.32-2.674-3.394-2.674-3.394
	C22.891,8.784,23.671,15.165,26.71,15.166"/>
<path fill="#007BC0" d="M26.71,19.548c1.356-0.001,2.497-2.25-0.78-3.731c-2.918-1.313-2.68-3.39-2.68-3.39
	C22.885,13.161,23.66,19.55,26.71,19.548"/>
<path fill="#007BC0" d="M28.377,4.906c-0.41,0.646-3.04,6.873,0.171,6.873C31.775,11.778,28.377,4.906,28.377,4.906"/>
<path fill="#007BC0" d="M30.74,15.816c-3.266,1.481-2.131,3.735-0.764,3.732c3.039-0.001,3.814-6.387,3.454-7.121
	C33.431,12.428,33.663,14.498,30.74,15.816"/>
<path fill="#007BC0" d="M30.746,20.327c-3.277,1.482-2.137,3.734-0.764,3.734c3.033-0.001,3.813-6.394,3.443-7.12
	C33.426,16.941,33.658,19.015,30.746,20.327"/>
<path fill="#007BC0" d="M25.93,20.331c-2.918-1.319-2.674-3.392-2.674-3.392c-0.377,0.739,0.409,7.125,3.449,7.118
	C28.066,24.065,29.207,21.806,25.93,20.331"/>
<path fill="#007BC0" d="M30.752,11.435c-3.283,1.488-2.143,3.734-0.775,3.734c3.039,0.004,3.825-6.385,3.454-7.12
	C33.431,8.049,33.663,10.131,30.752,11.435"/>
</svg>
