<?xml version="1.0" encoding="utf-8"?>
<!-- Generator: Adobe Illustrator 16.0.0, SVG Export Plug-In . SVG Version: 6.00 Build 0)  -->
<!DOCTYPE svg PUBLIC "-//W3C//DTD SVG 1.1//EN" "http://www.w3.org/Graphics/SVG/1.1/DTD/svg11.dtd">
<svg version="1.1" id="Layer_1" xmlns="http://www.w3.org/2000/svg" xmlns:xlink="http://www.w3.org/1999/xlink" x="0px" y="0px"
	 width="56.693px" height="56.693px" viewBox="0 0 56.693 56.693" enable-background="new 0 0 56.693 56.693" xml:space="preserve">
<path fill="#007ABF" d="M45.354,0H11.339C5.103,0,0,5.103,0,11.339v34.016c0,6.237,5.103,11.338,11.339,11.338h34.016
	c6.237,0,11.339-5.102,11.339-11.338V11.339C56.693,5.103,51.592,0,45.354,0z M2.835,38.414h4.866l-1.785,4.069L2.835,44.13V38.414z
	 M8.529,53.344c-3.021-1.065-5.234-3.77-5.6-7.053L6.055,44.8l4.978,6.49L8.529,53.344z M7.483,43.155l2.38-4.742h11.983
	l1.694,1.711l-5.426,6.711l-5.204,3.136L7.483,43.155z M11.688,53.859l7.297-4.966l8.729,4.966H11.688z M41.211,53.859h-8.767
	l-11.882-6.464l5.146-6.416l11.571,3.85l6.096,8.619L41.211,53.859z M47.154,53.658l-1.146-0.269l-5.728-8.296l8.718-1.168
	l4.847,1.563C53.781,49.498,50.938,52.839,47.154,53.658z M53.858,43.521l-3.169-0.914l3.169-0.859V43.521z M53.858,40.272
	l-6.289,1.99l-9.002,1.283l-11.574-3.848l-2.724-1.286h1.562c-0.374-3.442-0.872-6.046-1.116-9.462h-0.017
	c-0.003-0.104-0.124-2.392-0.149-3.365c-0.183-1.028-0.67-1.43-2.272-2.541c-0.886-0.572-1.545-0.772-1.91-0.764
	c-0.593,0-1.113,0.637-1.24,2.563c2.577,0.438,2.752,3.289,2.752,3.289c0.227,2.022-0.768,4.983-3.062,5.752
	c-4.235,1.41-3.796-6.753-1.406-8.708c0.063-2.354,0.708-4.506,2.956-4.598c0.886,0.005,1.788,0.372,2.835,1.034
	c0.498,0.303,0.899,0.609,1.254,0.919c-0.039-0.772-0.089-1.565-0.089-2.382c-0.006-1.708,0.269-3.575,1.783-4.901
	c0.786-0.713,1.674-1.083,2.535-1.075c2.253,0.108,3.668,2.062,4.481,4.053c0.955-0.414,2.146-0.619,3.508-0.146
	c3.477,1.203,5.373,7.279,3.903,9.393c-3.436,4.94-12.081-4.24-9.789-7.449c0,0,0.333-0.433,0.925-0.915
	c-0.673-1.766-2.021-3.345-3.028-3.239c-0.385,0.007-0.836,0.147-1.409,0.649c-0.96,0.846-1.204,2.057-1.21,3.631
	c0,1.111,0.136,2.349,0.136,3.586c0,0.649,0.042,1.217,0.059,1.849c0.157,1.104,0.169,1.958,0.141,3.122
	c0.241,3.398,1.62,6.187,1.996,9.705l25.462,0.001V40.272z M17.601,26.389l1.171-0.479l-1.171,6.548
	C17.014,30.381,17.601,26.389,17.601,26.389z M38.894,26.921l-6.55-7.134l1.224-0.745C33.567,19.043,37.72,21.862,38.894,26.921z"/>
</svg>
