<?xml version="1.0" encoding="utf-8"?>
<!-- Generator: Adobe Illustrator 16.0.0, SVG Export Plug-In . SVG Version: 6.00 Build 0)  -->
<!DOCTYPE svg PUBLIC "-//W3C//DTD SVG 1.1//EN" "http://www.w3.org/Graphics/SVG/1.1/DTD/svg11.dtd">
<svg version="1.1" id="Layer_1" xmlns="http://www.w3.org/2000/svg" xmlns:xlink="http://www.w3.org/1999/xlink" x="0px" y="0px"
	 width="56.693px" height="56.693px" viewBox="0 0 56.693 56.693" enable-background="new 0 0 56.693 56.693" xml:space="preserve">
<path fill="#007ABF" d="M43.375,53.447l-8.664,1.645l-14.148-7.697l5.146-6.415l11.571,3.849L43.375,53.447z M56.693,38.413v0.962
	l-9.124,2.888l-9.003,1.283l-11.573-3.848l-2.725-1.286h1.562c-0.374-3.442-0.872-6.046-1.115-9.462h-0.017
	c-0.003-0.104-0.125-2.392-0.149-3.365c-0.183-1.028-0.67-1.43-2.273-2.542c-0.886-0.571-1.544-0.772-1.91-0.764
	c-0.592,0-1.112,0.637-1.239,2.563c2.577,0.438,2.751,3.289,2.751,3.289c0.228,2.022-0.767,4.982-3.062,5.752
	c-4.235,1.411-3.795-6.753-1.406-8.707c0.063-2.354,0.709-4.507,2.956-4.598c0.887,0.005,1.789,0.372,2.835,1.034
	c0.498,0.303,0.899,0.609,1.254,0.919c-0.038-0.772-0.088-1.565-0.088-2.382c-0.006-1.708,0.269-3.575,1.782-4.901
	c0.786-0.713,1.675-1.084,2.536-1.076c2.253,0.108,3.667,2.062,4.481,4.053c0.955-0.414,2.146-0.619,3.507-0.146
	c3.478,1.203,5.373,7.279,3.903,9.393c-3.436,4.94-12.08-4.239-9.788-7.449c0,0,0.332-0.433,0.925-0.915
	c-0.673-1.766-2.021-3.346-3.028-3.239c-0.385,0.007-0.836,0.147-1.409,0.649c-0.961,0.846-1.204,2.057-1.21,3.63
	c0,1.111,0.136,2.349,0.136,3.586c0,0.649,0.041,1.216,0.058,1.849c0.158,1.104,0.169,1.957,0.142,3.121
	c0.241,3.398,1.619,6.187,1.996,9.706L56.693,38.413z M32.343,19.788l6.55,7.133c-1.174-5.059-5.326-7.878-5.326-7.878
	L32.343,19.788z M18.771,25.909L17.6,26.388c0,0-0.587,3.993,0,6.069L18.771,25.909z M12.911,49.972l5.204-3.136l5.426-6.711
	l-1.694-1.711H9.863l-2.381,4.742L12.911,49.972z M18.984,48.892L9.76,55.169l1.229,1.524h21.215l-0.069-0.318L18.984,48.892z
	 M0,38.413v7.233l5.916-3.164l1.785-4.069H0z M40.28,45.093l5.728,8.296l10.686,2.504v-9.488l-7.696-2.48L40.28,45.093z
	 M56.693,44.337v-3.358l-6.005,1.627L56.693,44.337z M6.053,44.799L0,47.687v9.007h4.445l6.586-5.404L6.053,44.799z M37.775,56.693
	h13.844l-6.622-1.602L37.775,56.693z"/>
</svg>
