<?xml version="1.0" encoding="utf-8"?>
<!-- Generator: Adobe Illustrator 16.0.0, SVG Export Plug-In . SVG Version: 6.00 Build 0)  -->
<!DOCTYPE svg PUBLIC "-//W3C//DTD SVG 1.1//EN" "http://www.w3.org/Graphics/SVG/1.1/DTD/svg11.dtd">
<svg version="1.1" id="Layer_1" xmlns="http://www.w3.org/2000/svg" xmlns:xlink="http://www.w3.org/1999/xlink" x="0px" y="0px"
	 width="56.693px" height="56.693px" viewBox="0 0 56.693 56.693" enable-background="new 0 0 56.693 56.693" xml:space="preserve">
<path fill="#007ABF" d="M44.655,20.561l-0.615-0.614l-0.029,0.029C43.7,11.624,36.841,4.933,28.412,4.933
	c-8.423,0-15.281,6.691-15.592,15.043l-0.029-0.029l-0.614,0.614l12.675,12.674l-7.373,2.948V51.81h21.873V36.183l-7.375-2.949
	L44.655,20.561z M40.132,17.436c1.726,0,3.124,1.398,3.124,3.125h0.171L30.924,33.06h-0.462l6.253-12.499h0.294
	C37.009,18.834,38.407,17.436,40.132,17.436z M32.321,17.436c1.726,0,3.123,1.398,3.123,3.125h0.3L29.489,33.06h-0.643V20.561h0.352
	C29.198,18.834,30.597,17.436,32.321,17.436z M24.51,17.436c1.726,0,3.124,1.398,3.124,3.125h0.346V33.06h-0.644l-6.249-12.499h0.3
	C21.387,18.834,22.785,17.436,24.51,17.436z M13.571,20.561c0-1.726,1.402-3.125,3.128-3.125c1.725,0,3.123,1.398,3.123,3.125h0.295
	l6.248,12.499h-0.462L13.404,20.561H13.571z"/>
<g>
	<path fill="#FFFFFF" d="M27.493,40.712l-1.571,5.835h-1.669l-1.043-3.801l-1.021,3.801h-1.664l-1.571-5.835h1.57l0.896,4.017
		l1.076-4.017h1.501l1.021,4.017l0.94-4.017H27.493z"/>
	<path fill="#FFFFFF" d="M32.356,41.84h-2.685v1.085h2.488v1.129h-2.488v2.492h-1.497v-5.835h4.182V41.84z"/>
	<path fill="#FFFFFF" d="M37.89,42.554c0,0.261-0.046,0.517-0.137,0.766c-0.092,0.25-0.223,0.459-0.393,0.629
		c-0.232,0.23-0.491,0.404-0.777,0.521c-0.286,0.118-0.643,0.177-1.068,0.177h-0.937v1.9h-1.505v-5.835h2.477
		c0.371,0,0.685,0.032,0.939,0.096c0.254,0.064,0.479,0.16,0.676,0.288c0.234,0.154,0.414,0.351,0.538,0.591
		C37.828,41.928,37.89,42.217,37.89,42.554z M36.334,42.587c0-0.165-0.044-0.306-0.133-0.424s-0.192-0.202-0.31-0.249
		c-0.157-0.062-0.31-0.097-0.459-0.104c-0.148-0.006-0.348-0.01-0.596-0.01h-0.259v1.744h0.432c0.256,0,0.467-0.016,0.633-0.047
		s0.305-0.094,0.417-0.188c0.097-0.083,0.167-0.183,0.21-0.299C36.312,42.896,36.334,42.754,36.334,42.587z"/>
</g>
</svg>
