<?xml version="1.0" encoding="utf-8"?>
<!-- Generator: Adobe Illustrator 16.0.0, SVG Export Plug-In . SVG Version: 6.00 Build 0)  -->
<!DOCTYPE svg PUBLIC "-//W3C//DTD SVG 1.1//EN" "http://www.w3.org/Graphics/SVG/1.1/DTD/svg11.dtd">
<svg version="1.1" id="Layer_1" xmlns="http://www.w3.org/2000/svg" xmlns:xlink="http://www.w3.org/1999/xlink" x="0px" y="0px"
	 width="56.693px" height="56.693px" viewBox="0 0 56.693 56.693" enable-background="new 0 0 56.693 56.693" xml:space="preserve">
<path fill="#007ABF" d="M27.914,30.367v7.258c0,0.67-0.547,1.223-1.217,1.223h-6.173c-0.676,0-1.225-0.553-1.225-1.223v-7.258
	c0-0.682,0.549-1.229,1.225-1.229h6.173C27.367,29.138,27.914,29.686,27.914,30.367z M56.693,11.338v34.016
	c0,6.24-5.105,11.34-11.339,11.34H11.339C5.1,56.693,0,51.594,0,45.354V11.338C0,5.104,5.1,0,11.339,0h34.016
	C51.588,0,56.693,5.104,56.693,11.338z M29.797,27.814c0-0.576-0.41-1.058-0.947-1.186v-4.4c0.344-0.238,0.57-0.637,0.57-1.086
	c0-0.73-0.598-1.328-1.328-1.328s-1.322,0.598-1.322,1.328c0,0.449,0.221,0.842,0.564,1.086v4.367h-8.487
	c-0.676,0-1.223,0.549-1.223,1.219v20.568c0,0.682,0.547,1.223,1.223,1.223h9.722c0.676,0,1.229-0.541,1.229-1.223V27.814z
	 M34.609,20.623c-0.006-3.466-2.809-6.262-6.268-6.268c-3.455,0.006-6.262,2.802-6.262,6.268c0,0.41,0.336,0.746,0.746,0.746
	c0.416,0,0.748-0.336,0.748-0.746c0.006-2.637,2.143-4.762,4.768-4.768c2.635,0.006,4.762,2.131,4.771,4.768
	c0,0.41,0.332,0.746,0.748,0.746S34.609,21.033,34.609,20.623z M37.991,20.623c0-5.326-4.313-9.645-9.649-9.656
	c-5.326,0.012-9.646,4.33-9.646,9.656c0,0.41,0.334,0.746,0.748,0.746c0.416,0,0.748-0.336,0.748-0.746
	c0.006-4.507,3.647-8.145,8.149-8.15c4.506,0.006,8.144,3.644,8.153,8.15c0,0.41,0.332,0.746,0.748,0.746
	C37.653,21.369,37.991,21.033,37.991,20.623z M41.878,20.623c0-7.475-6.058-13.537-13.536-13.537
	c-7.468,0-13.526,6.062-13.526,13.537c0,0.41,0.332,0.746,0.748,0.746s0.748-0.336,0.748-0.746
	c0.01-6.649,5.386-12.025,12.03-12.037c6.648,0.012,12.024,5.388,12.034,12.037c0,0.41,0.338,0.746,0.748,0.746
	C41.54,21.369,41.878,21.033,41.878,20.623z"/>
</svg>
