<?xml version="1.0" encoding="utf-8"?>
<!-- Generator: Adobe Illustrator 16.0.0, SVG Export Plug-In . SVG Version: 6.00 Build 0)  -->
<!DOCTYPE svg PUBLIC "-//W3C//DTD SVG 1.1//EN" "http://www.w3.org/Graphics/SVG/1.1/DTD/svg11.dtd">
<svg version="1.1" id="Layer_1" xmlns="http://www.w3.org/2000/svg" xmlns:xlink="http://www.w3.org/1999/xlink" x="0px" y="0px"
	 width="56.693px" height="56.693px" viewBox="0 0 56.693 56.693" enable-background="new 0 0 56.693 56.693" xml:space="preserve">
<g>
	<path fill="#007BC0" d="M45.358-0.001h-34.02c-6.237,0-11.34,5.103-11.34,11.342v34.015c0,6.24,5.103,11.336,11.34,11.336h34.02
		c6.234,0,11.337-5.096,11.337-11.336V11.341C56.695,5.102,51.593-0.001,45.358-0.001z"/>
	<g>
		<g>
			<path fill="#FFFFFF" d="M23.915,31.898v5.891c0,0,0.155,2.48-2.326,2.48c-2.478,0-12.709,0-12.709,0l2.481-3.1h8.681v-6.824
				l4.959-8.833h-4.959l-3.1,4.028c0,0-1.086,0.619-2.329,0c0,0-0.31-0.467,0.934-2.323c1.237-1.862,3.409-5.272,3.409-5.272h8.146
				c0,0,4.411,0,5.182,1.553c0.776,1.548,3.258,4.338,3.258,4.338l7.133,0.777c0,0,1.396,2.014-0.624,2.171l-7.285,0.151
				l-4.183-3.408l-2.794,5.58l8.22,16.277h-3.303l-7.705-13.717L23.915,31.898z"/>
			<path fill="#FFFFFF" d="M34.456,13.839c0,1.8-1.457,3.257-3.255,3.257c-1.797,0-3.254-1.457-3.254-3.257
				c0-1.795,1.457-3.252,3.254-3.252C32.999,10.587,34.456,12.044,34.456,13.839z"/>
		</g>
		<g>
			<g>
				<polygon fill="#FFFFFF" points="40.054,43.139 38.642,40.641 42.543,36.736 38.613,32.816 40.028,30.312 46.455,36.736 				"/>
			</g>
		</g>
	</g>
</g>
</svg>
