<?xml version="1.0" encoding="utf-8"?>
<!-- Generator: Adobe Illustrator 16.0.0, SVG Export Plug-In . SVG Version: 6.00 Build 0)  -->
<!DOCTYPE svg PUBLIC "-//W3C//DTD SVG 1.1//EN" "http://www.w3.org/Graphics/SVG/1.1/DTD/svg11.dtd">
<svg version="1.1" id="Layer_1" xmlns="http://www.w3.org/2000/svg" xmlns:xlink="http://www.w3.org/1999/xlink" x="0px" y="0px"
	 width="56.693px" height="56.693px" viewBox="0 0 56.693 56.693" enable-background="new 0 0 56.693 56.693" xml:space="preserve">
<path fill="#007ABF" d="M45.354,0H11.339C5.103,0,0,5.102,0,11.338v34.016c0,6.237,5.103,11.338,11.339,11.338h34.016
	c6.237,0,11.339-5.102,11.339-11.338V11.338C56.693,5.102,51.592,0,45.354,0z M53.858,45.354c0,0.244-0.053,0.47-0.071,0.708h-1.343
	c-0.902-0.213-2.312-1.218-2.838-2.834c-0.442-1.351-1.024-4.036,1.418-4.252c0,0-3.07-3.604-5.67,1.417
	c-1.96,3.829-4.767,5.487-5.669,5.669h-1.417c-0.9-0.213-2.309-1.218-2.835-2.834c-0.443-1.351-1.027-4.036,1.417-4.252
	c0,0-3.078-3.604-5.669,1.417c-1.971,3.829-3.344,5.487-4.252,5.669h-1.417c-0.9-0.213-2.312-1.218-2.835-2.834
	c-0.445-1.351-1.03-4.036,1.414-4.252c0,0-3.075-3.604-5.666,1.417c-1.971,3.829-3.344,5.487-4.255,5.669h-1.414
	c-0.897-0.213-2.31-1.218-2.835-2.834c-0.44-1.351-1.032-4.036,1.417-4.252c0,0-3.081-3.604-5.669,1.417
	c-0.864,1.678-1.883,2.918-2.835,3.82v-8.507c0.952-0.902,1.971-2.14,2.835-3.817c2.588-5.021,5.669-1.417,5.669-1.417
	c-2.449,0.216-1.857,2.901-1.417,4.252c0.525,1.616,1.938,2.619,2.835,2.834h1.414c0.911-0.183,2.284-1.844,4.255-5.669
	c2.591-5.021,5.666-1.417,5.666-1.417c-2.444,0.216-1.859,2.901-1.414,4.252c0.523,1.616,1.935,2.619,2.835,2.834h1.417V21.968
	l-1.417,1.417l-1.421-1.417L37.562,10.63l13.462,11.338l-1.418,1.417l-1.417-1.417v7.292v8.299h5.669V45.354z"/>
</svg>
