<?xml version="1.0" encoding="utf-8"?>
<!-- Generator: Adobe Illustrator 16.0.0, SVG Export Plug-In . SVG Version: 6.00 Build 0)  -->
<!DOCTYPE svg PUBLIC "-//W3C//DTD SVG 1.1//EN" "http://www.w3.org/Graphics/SVG/1.1/DTD/svg11.dtd">
<svg version="1.1" id="Layer_1" xmlns="http://www.w3.org/2000/svg" xmlns:xlink="http://www.w3.org/1999/xlink" x="0px" y="0px"
	 width="56.693px" height="56.693px" viewBox="0 0 56.693 56.693" enable-background="new 0 0 56.693 56.693" xml:space="preserve">
<path fill="#007ABF" d="M43.99,11.543l-5.585,5.203H18.289l-5.58-5.203c0,0,2.778-3.884,7.356-4.393
	c4.484-0.498,6.039,2.253,8.287,2.358c2.236-0.105,3.803-2.856,8.281-2.358C41.216,7.659,43.99,11.543,43.99,11.543z M47.373,44.947
	c0,0-1.213,4.655-6.787,4.655H16.124c-5.585,0-6.803-4.655-6.803-4.655C5.672,28.833,16.783,20.09,16.783,20.09h23.133
	C39.916,20.09,51.02,28.833,47.373,44.947z M32.493,30.516c2.519,2.52,5.226-5.496,5.226-5.496
	C36.893,25.202,29.985,28.009,32.493,30.516z M28.413,31.723c1.058,1.063,3.698,0.194,2.298-3.51
	c-1.246-3.305,0.559-4.732,0.559-4.732C30.411,23.763,26.043,29.348,28.413,31.723z M24.992,35.139
	c1.062,1.062,3.709,0.193,2.303-3.516c-1.245-3.299,0.56-4.732,0.56-4.732C26.996,27.173,22.617,32.764,24.992,35.139z
	 M21.56,41.062c-0.454-0.46-0.576-1.091-0.858-0.797l-2.812,3.432c-0.315,0.321,0.493,1.678,1.157,1.008l3.311-2.785
	C22.645,41.632,22.019,41.516,21.56,41.062z M23.78,35.144c-1.251-3.305,0.559-4.732,0.559-4.732
	c-0.869,0.287-5.242,5.879-2.867,8.242C22.529,39.722,25.18,38.853,23.78,35.144z M32.271,38.349c0,0-1.439,1.8-4.732,0.548
	c-3.715-1.4-4.584,1.246-3.51,2.314C26.398,43.58,31.989,39.201,32.271,38.349z M35.792,34.828c0,0-1.434,1.799-4.738,0.548
	c-3.703-1.395-4.578,1.251-3.51,2.314C29.913,40.06,35.503,35.687,35.792,34.828z M39.208,31.413c0,0-1.439,1.81-4.733,0.554
	c-3.72-1.401-4.578,1.245-3.515,2.308C33.329,36.644,38.919,32.276,39.208,31.413z"/>
</svg>
