<?xml version="1.0" encoding="utf-8"?>
<!-- Generator: Adobe Illustrator 16.0.0, SVG Export Plug-In . SVG Version: 6.00 Build 0)  -->
<!DOCTYPE svg PUBLIC "-//W3C//DTD SVG 1.1//EN" "http://www.w3.org/Graphics/SVG/1.1/DTD/svg11.dtd">
<svg version="1.1" id="Layer_1" xmlns="http://www.w3.org/2000/svg" xmlns:xlink="http://www.w3.org/1999/xlink" x="0px" y="0px"
	 width="56.693px" height="56.693px" viewBox="0 0 56.693 56.693" enable-background="new 0 0 56.693 56.693" xml:space="preserve">
<path fill="#007ABF" d="M26.47,10.445c0.356,2.185-1.121,4.244-3.303,4.604c-2.188,0.357-4.246-1.121-4.604-3.303
	c-0.357-2.187,1.118-4.249,3.305-4.605C24.05,6.78,26.118,8.262,26.47,10.445z M25.218,26.329l3.547,5.667
	c0.501,0.794,1.547,1.052,2.358,0.575c0.811-0.479,1.094-1.517,0.64-2.342l-0.9-1.627c-0.777-1.393-1.541-2.788-2.316-4.184
	l-1.584-2.87c-0.18-0.329-0.357-0.7-0.548-1.097c-0.975-2.043-2.494-5.198-5.821-4.907c-2.849,0.246-5.736,1.6-8.585,4.017
	c-3.374,2.66-5.729,6.519-5.827,6.685c-0.107,0.175-0.21,0.344-0.296,0.504c-0.005,0.009-0.011,0.014-0.017,0.02v0.003
	c-0.315,0.595-0.471,1.141-0.077,1.83c0.31,0.545,0.889,0.883,1.517,0.883c0.756,0,1.146-0.357,1.52-0.902l0,0
	c0.006-0.003,0.006-0.009,0.012-0.014c0.103-0.155,0.205-0.324,0.318-0.502c0.021-0.033,1.998-3.202,5.055-5.81
	c0.941-0.739,1.841-1.249,2.685-1.528l-0.684,8.246c-0.063,0.816-0.323,2.223-0.545,3.012l-1.531,5.373
	c-0.202,0.679-0.78,1.806-1.229,2.356l-4.142,5.132c-0.523,0.653-1.118,1.393-0.626,2.414c0.285,0.604,0.897,0.988,1.57,0.988
	c0.8,0,1.231-0.463,1.779-1.049l4.194-4.526c0.744-0.806,1.719-2.209,2.2-3.2l2.085-4.235l7.695,12.936
	c0.38,0.637,0.855,1.432,1.899,1.432l0,0c0.595,0,1.146-0.308,1.467-0.806c0.546-0.85,0.183-1.633-0.136-2.325l-6.223-13.521
	c-0.244-0.528-0.379-1.61-0.277-2.187L25.218,26.329z M51.137,29.211c0-5.642-4.589-10.231-10.23-10.231H36.56v5.169h4.347
	c2.793,0,5.062,2.27,5.062,5.062s-2.27,5.068-5.062,5.068h-0.905v-2.771l-9.269,5.351l9.269,5.352v-2.771h1.01v-0.011
	C46.605,39.37,51.137,34.816,51.137,29.211z"/>
</svg>
