<?xml version="1.0" encoding="utf-8"?>
<!-- Generator: Adobe Illustrator 16.0.0, SVG Export Plug-In . SVG Version: 6.00 Build 0)  -->
<!DOCTYPE svg PUBLIC "-//W3C//DTD SVG 1.1//EN" "http://www.w3.org/Graphics/SVG/1.1/DTD/svg11.dtd">
<svg version="1.1" id="Layer_1" xmlns="http://www.w3.org/2000/svg" xmlns:xlink="http://www.w3.org/1999/xlink" x="0px" y="0px"
	 width="56.693px" height="56.693px" viewBox="0 0 56.693 56.693" enable-background="new 0 0 56.693 56.693" xml:space="preserve">
<path fill="#007ABF" d="M14.124,23.884l9.767,10.021v13.631h-0.078v0.044h-8.011v-5.885L7.629,30.898
	c-0.327-0.403-0.542-0.902-0.542-1.444V12.861c0-1.301,1.058-2.358,2.358-2.358c1.295,0,2.353,1.058,2.353,2.358v9.583
	c-0.57,0.122-1.113,0.366-1.544,0.786c-1.251,1.224-1.279,3.233-0.061,4.485l4.457,4.584l0.609-0.593l-4.468-4.573
	c-0.892-0.924-0.87-2.402,0.044-3.3c0.288-0.271,0.625-0.465,0.985-0.564c0.388-0.11,0.792-0.116,1.174-0.039
	C13.432,23.342,13.819,23.563,14.124,23.884z M42.575,23.884l-9.771,10.021v13.631h0.077v0.044h8.017v-5.885l8.172-10.797
	c0.327-0.403,0.537-0.902,0.537-1.444V12.861c0-1.301-1.052-2.358-2.358-2.358c-1.296,0-2.353,1.058-2.353,2.358v9.583
	c0.575,0.122,1.112,0.366,1.55,0.786c1.251,1.224,1.279,3.233,0.061,4.485L42.044,32.3l-0.609-0.593l4.468-4.573
	c0.892-0.924,0.875-2.402-0.044-3.3c-0.282-0.271-0.626-0.465-0.985-0.564c-0.382-0.11-0.786-0.116-1.174-0.039
	C43.268,23.342,42.88,23.563,42.575,23.884z M28.347,27.616c2.558,0,4.723-0.925,6.539-2.725c1.81-1.805,2.712-3.975,2.712-6.538
	c0-2.547-0.902-4.739-2.712-6.544c-1.816-1.811-3.98-2.696-6.539-2.696c-2.552,0-4.745,0.886-6.533,2.696
	c-1.822,1.805-2.713,3.997-2.713,6.544c0,2.563,0.891,4.733,2.713,6.538C23.602,26.691,25.794,27.616,28.347,27.616z"/>
</svg>
