<?xml version="1.0" encoding="utf-8"?>
<!-- Generator: Adobe Illustrator 16.0.0, SVG Export Plug-In . SVG Version: 6.00 Build 0)  -->
<!DOCTYPE svg PUBLIC "-//W3C//DTD SVG 1.1//EN" "http://www.w3.org/Graphics/SVG/1.1/DTD/svg11.dtd">
<svg version="1.1" id="Layer_1" xmlns="http://www.w3.org/2000/svg" xmlns:xlink="http://www.w3.org/1999/xlink" x="0px" y="0px"
	 width="56.693px" height="56.693px" viewBox="0 0 56.693 56.693" enable-background="new 0 0 56.693 56.693" xml:space="preserve">
<path fill="#007BC0" d="M45.353,0H11.341C5.105,0,0,5.105,0,11.341v34.012c0,6.24,5.105,11.341,11.341,11.341h34.012
	c6.235,0,11.341-5.101,11.341-11.341V11.341C56.693,5.105,51.588,0,45.353,0"/>
<path fill="#FFFFFF" d="M34.147,26.104c-0.239-0.152-0.467-0.229-0.685-0.229c-0.212-0.005-0.424,0.065-0.636,0.207
	c-0.211,0.141-0.363,0.31-0.445,0.505c-0.081,0.201-0.103,0.439-0.06,0.711c0.044,0.277,0.157,0.604,0.343,0.973
	c0.185,0.369,0.435,0.793,0.755,1.276c1.211,1.836,2.21,2.493,3.003,1.972c0.788-0.521,0.576-1.694-0.63-3.52
	c-0.32-0.483-0.619-0.886-0.885-1.195C34.642,26.489,34.387,26.255,34.147,26.104"/>
<path fill="#FFFFFF" d="M26.479,31.116c-0.543,0.358-0.32,1.125,0.005,1.613c0.396,0.598,1.011,0.912,1.488,0.598
	c0.479-0.315,0.44-0.956,0-1.619C27.635,31.192,26.989,30.779,26.479,31.116"/>
<path fill="#FFFFFF" d="M45.276,12.134l-1.766-2.667c-1.401-2.118-4.252-2.699-6.371-1.304l-2.704,1.793l1.113,1.688l-2.026,1.342
	l-1.124-1.689L6.6,28.341c-2.118,1.401-2.705,4.253-1.304,6.371l1.765,2.667c2.103-1.146,4.77-0.511,6.116,1.526
	c1.342,2.036,0.88,4.736-0.994,6.225l1.76,2.666c1.401,2.118,4.259,2.7,6.377,1.299l25.805-17.044l-1.119-1.694l2.031-1.342
	l1.119,1.694l2.704-1.787c2.119-1.401,2.7-4.258,1.299-6.376l-1.76-2.667c-2.103,1.146-4.77,0.511-6.116-1.526
	C42.936,16.321,43.397,13.622,45.276,12.134 M27.651,39.432l-1.607,1.064l-3.178-1.656c-0.88-0.462-1.912-1.037-2.759-1.618
	l-0.038,0.021c0.646,0.874,1.298,1.819,2.031,2.928l1.347,2.042l-1.406,0.929l-4.481-6.778l1.787-1.185l3.053,1.549
	c0.874,0.45,1.825,1.037,2.645,1.597l0.017-0.017c-0.679-0.831-1.314-1.728-1.993-2.754l-1.304-1.972l1.407-0.934L27.651,39.432z
	 M28.548,34.25c-1.141,0.755-2.553,0.582-3.356-0.63c-0.82-1.238-0.5-2.623,0.732-3.443c1.25-0.82,2.603-0.505,3.357,0.636
	C30.193,32.191,29.623,33.539,28.548,34.25 M39.128,30.633c-0.021,0.978-0.56,1.819-1.618,2.515
	c-1.076,0.718-2.103,0.858-3.074,0.43c-0.978-0.435-2.026-1.499-3.15-3.199c-0.939-1.429-1.646-2.906-2.124-4.448
	c-0.233-0.771-0.45-1.717-0.646-2.841c-0.2-1.124-0.401-2.46-0.603-4.003l2.01-1.331l0.467,3.574
	c0.093,0.641,0.207,1.314,0.337,2.021c0.131,0.706,0.277,1.456,0.435,2.249c0.255-0.767,0.619-1.31,1.103-1.63
	c0.782-0.516,1.613-0.576,2.487-0.18c0.82,0.375,1.771,1.38,2.857,3.025C38.634,28.362,39.139,29.639,39.128,30.633 M44.738,25.544
	l-2.031,1.342l-2.297-3.477l2.031-1.342L44.738,25.544z M40.144,18.592l-2.031,1.347l-2.292-3.476l2.025-1.342L40.144,18.592z"/>
</svg>
