<?xml version="1.0" encoding="UTF-8"?>
<svg width="15px" height="16px" viewBox="0 0 15 16" version="1.1" xmlns="http://www.w3.org/2000/svg" xmlns:xlink="http://www.w3.org/1999/xlink">
    <!-- Generator: Sketch 50.2 (55047) - http://www.bohemiancoding.com/sketch -->
    <title>asleep</title>
    <desc>Created with Sketch.</desc>
    <defs></defs>
    <g id="Page-1" stroke="none" stroke-width="1" fill="none" fill-rule="evenodd">
        <g id="asleep" fill="#000000" fill-rule="nonzero">
            <path d="M14,12 C10.2,11.8 7.2,8.7 7.2,4.9 C7.2,3.5 7.6,2.1 8.5,0.9 L8.5,0.8 C8.6,0.7 8.6,0.6 8.6,0.5 C8.6,0.2 8.4,0 8.1,0 L8,0 C3.6,0 0,3.6 0,8 C0,12.4 3.6,16 8,16 C10.5,16 12.8,14.8 14.3,12.9 C14.5,12.7 14.5,12.4 14.4,12.2 C14.3,12.1 14.1,12 14,12 Z M8,15 C4.1,15 1,11.9 1,8 C1,4.4 3.6,1.4 7.2,1 C5.1,5 6.6,9.9 10.5,12 C11.3,12.4 12.1,12.7 13,12.9 C11.7,14.3 9.9,15 8,15 Z" id="Shape"></path>
        </g>
    </g>
</svg>
