<svg version="1.1" id="Layer_1" xmlns="http://www.w3.org/2000/svg" xmlns:xlink="http://www.w3.org/1999/xlink" x="0px" y="0px"
	 width="16px" height="16px" viewBox="0 0 16 16" style="enable-background:new 0 0 16 16;" xml:space="preserve">
<title>chat</title>
<desc>Created with Sketch.</desc>
<g id="chat">
	<polygon id="Path-46" points="3,8 3,7 9,7 9,8 	"/>
	<polygon id="Path-46_1_" points="3,5 3,4 13,4 13,5 	"/>
	<path id="Path-43" d="M11.7,12l-3.9,4l-0.7-0.7l4.1-4.3H14c0.6,0,1-0.4,1-1V2c0-0.6-0.4-1-1-1H2C1.4,1,1,1.4,1,2v8c0,0.6,0.4,1,1,1
		h5.5v1H2c-1.1,0-2-0.9-2-2V2c0-1.1,0.9-2,2-2h12c1.1,0,2,0.9,2,2v8c0,1.1-0.9,2-2,2H11.7z"/>
</g>
</svg>
