<?xml version="1.0" encoding="utf-8"?>
<!-- Generator: Adobe Illustrator 22.0.1, SVG Export Plug-In . SVG Version: 6.00 Build 0)  -->
<!DOCTYPE svg PUBLIC "-//W3C//DTD SVG 1.1//EN" "http://www.w3.org/Graphics/SVG/1.1/DTD/svg11.dtd">
<svg version="1.1" id="Layer_1" xmlns="http://www.w3.org/2000/svg" xmlns:xlink="http://www.w3.org/1999/xlink" x="0px" y="0px"
	 width="16px" height="16px" viewBox="0 0 16 16" style="enable-background:new 0 0 16 16;" xml:space="preserve">
<title>copy</title>
<desc>Created with Sketch.</desc>
<g id="copy">
	<path id="line" d="M1,10H0V2c0-1.1,0.9-2,2-2l8,0l0,1L2,1C1.4,1,1,1.5,1,2L1,10z"/>
	<path id="paper" d="M11,4.2V8h3.8L11,4.2z M15,9h-4c-0.6,0-1-0.4-1-1V4H4.5C4.2,4,4,4.2,4,4.5v10C4,14.8,4.2,15,4.5,15h10
		c0.3,0,0.5-0.2,0.5-0.5V9z M11,3c0.1,0,0.3,0.1,0.4,0.1l4.5,4.5C15.9,7.7,16,7.9,16,8v6.5c0,0.8-0.7,1.5-1.5,1.5h-10
		C3.7,16,3,15.3,3,14.5v-10C3,3.7,3.7,3,4.5,3H11z"/>
</g>
</svg>
