<svg xmlns="http://www.w3.org/2000/svg" width="16" height="16" viewBox="0 0 16 16">
  <path d="M9.5,8.5 C9.5,9.328125 8.828125,10 8,10 C7.171875,10 6.5,9.328125 6.5,8.5 C6.5,7.671875 7.171875,7 8,7 C8.828125,7 9.5,7.671875 9.5,8.5 Z M14.5,7 C13.671875,7 13,7.671875 13,8.5 C13,9.328125 13.671875,10 14.5,10 C15.328125,10 16,9.328125 16,8.5 C16,7.671875 15.328125,7 14.5,7 Z M1.5,7 C0.671875,7 0,7.671875 0,8.5 C0,9.328125 0.671875,10 1.5,10 C2.328125,10 3,9.328125 3,8.5 C3,7.671875 2.328125,7 1.5,7 Z"/>
</svg>
