<svg xmlns="http://www.w3.org/2000/svg" width="63" height="58" viewBox="0 0 63 58">
  <path fill="#19486A" d="M63,0 L63,58 L0,58 L0,0 L63,0 Z M26.3564453,17.0146484 L19.1445312,17.0146484 L19.1445312,42 L23.878418,42 L23.878418,30.3789062 C23.878418,29.3914881 23.81903,27.6757968 23.7002527,25.2317998 L23.7002527,25.2317998 L23.5537109,22.3979492 L23.7075195,22.3979492 L29.7231445,42 L34.5766602,42 L41.0195312,22.4321289 L41.1733398,22.4321289 C41.0576542,25.0928994 40.9847953,26.8889729 40.9547617,27.8203845 L40.9547617,27.8203845 L40.9333984,28.669923 C40.9279296,28.947918 40.9238281,29.21224 40.9210937,29.4628905 L40.9210937,29.4628905 L40.9169922,30.1738281 L40.9169922,42 L45.855957,42 L45.855957,17.0146484 L38.644043,17.0146484 L32.3720703,36.1210938 L32.2695312,36.1210938 L26.3564453,17.0146484 Z"/>
</svg>
