<?xml version="1.0" encoding="UTF-8"?>
<svg width="16px" height="12px" viewBox="0 0 16 12" version="1.1" xmlns="http://www.w3.org/2000/svg" xmlns:xlink="http://www.w3.org/1999/xlink">
    <!-- Generator: Sketch 50.2 (55047) - http://www.bohemiancoding.com/sketch -->
    <title>filter</title>
    <desc>Created with Sketch.</desc>
    <defs></defs>
    <g id="filter" stroke="none" stroke-width="1" fill="none" fill-rule="evenodd">
        <path d="M8.05000906,2 C8.28164422,0.858879839 9.29052104,0 10.5,0 C11.709479,0 12.7183558,0.858879839 12.9499909,2 L16,2 L16,3 L12.9499909,3 C12.7183558,4.14112016 11.709479,5 10.5,5 C9.29052104,5 8.28164422,4.14112016 8.05000906,3 L0,3 L0,2 L8.05000906,2 Z M10.5,4 C11.3284271,4 12,3.32842712 12,2.5 C12,1.67157288 11.3284271,1 10.5,1 C9.67157288,1 9,1.67157288 9,2.5 C9,3.32842712 9.67157288,4 10.5,4 Z" id="Combined-Shape" fill="#000000" fill-rule="nonzero"></path>
        <path d="M3.05000906,9 C3.28164422,7.85887984 4.29052104,7 5.5,7 C6.70947896,7 7.71835578,7.85887984 7.94999094,9 L16,9 L16,10 L7.94999094,10 C7.71835578,11.1411202 6.70947896,12 5.5,12 C4.29052104,12 3.28164422,11.1411202 3.05000906,10 L0,10 L0,9 L3.05000906,9 Z M5.5,11 C6.32842712,11 7,10.3284271 7,9.5 C7,8.67157288 6.32842712,8 5.5,8 C4.67157288,8 4,8.67157288 4,9.5 C4,10.3284271 4.67157288,11 5.5,11 Z" id="Combined-Shape" fill="#000000" fill-rule="nonzero"></path>
    </g>
</svg>