<?xml version="1.0" encoding="utf-8"?>
<!-- Generator: Adobe Illustrator 22.0.1, SVG Export Plug-In . SVG Version: 6.00 Build 0)  -->
<!DOCTYPE svg PUBLIC "-//W3C//DTD SVG 1.1//EN" "http://www.w3.org/Graphics/SVG/1.1/DTD/svg11.dtd">
<svg version="1.1" id="Layer_1" xmlns="http://www.w3.org/2000/svg" xmlns:xlink="http://www.w3.org/1999/xlink" x="0px" y="0px"
	 width="16px" height="15px" viewBox="0 0 16 15" style="enable-background:new 0 0 16 15;" xml:space="preserve">
<title>Forum</title>
<desc>Created with Sketch.</desc>
<g id="Forum">
	<path id="Path-43" d="M11.7,12l-3,3L8,14.3l3.3-3.3h3.2c0.3,0,0.5-0.2,0.5-0.5v-6C15,4.2,14.8,4,14.5,4h-10C4.2,4,4,4.2,4,4.5v6
		C4,10.8,4.2,11,4.5,11L8,11l0,1l-3.5,0C3.7,12,3,11.3,3,10.5l0-6C3,3.7,3.7,3,4.5,3h10C15.3,3,16,3.7,16,4.5v6
		c0,0.8-0.7,1.5-1.5,1.5H11.7z"/>
	<path id="Path-10" d="M1,8L0,8l0-6.5C0,0.7,0.7,0,1.5,0H8l0,1L1.5,1C1.2,1,1,1.2,1,1.5L1,8z"/>
</g>
</svg>
