<?xml version="1.0" encoding="utf-8"?>
<!-- Generator: Adobe Illustrator 22.0.1, SVG Export Plug-In . SVG Version: 6.00 Build 0)  -->
<!DOCTYPE svg PUBLIC "-//W3C//DTD SVG 1.1//EN" "http://www.w3.org/Graphics/SVG/1.1/DTD/svg11.dtd">
<svg version="1.1" id="Layer_1" xmlns="http://www.w3.org/2000/svg" xmlns:xlink="http://www.w3.org/1999/xlink" x="0px" y="0px"
	 width="16px" height="16px" viewBox="0 0 16 16" style="enable-background:new 0 0 16 16;" xml:space="preserve">
<title>launch</title>
<desc>Created with Sketch.</desc>
<g id="launch">
	<path id="Combined-Shape" d="M14.3,1h-3.8V0H16v5.5h-1V1.7L9.7,7L9,6.3L14.3,1z"/>
	<path id="Combined-Shape_1_" d="M14.3,1h-3.8V0H16v5.5h-1V1.7L9.7,7L9,6.3L14.3,1z"/>
	<path id="window" d="M13,9h1v6c0,0.6-0.4,1-1,1H1c-0.6,0-1-0.4-1-1V3c0-0.6,0.4-1,1-1h7v1H1v12h12V9z"/>
</g>
</svg>
