<?xml version="1.0" encoding="utf-8"?>
<!-- Generator: Adobe Illustrator 22.0.1, SVG Export Plug-In . SVG Version: 6.00 Build 0)  -->
<!DOCTYPE svg PUBLIC "-//W3C//DTD SVG 1.1//EN" "http://www.w3.org/Graphics/SVG/1.1/DTD/svg11.dtd">
<svg version="1.1" id="Layer_1" xmlns="http://www.w3.org/2000/svg" xmlns:xlink="http://www.w3.org/1999/xlink" x="0px" y="0px"
	 width="16px" height="13px" viewBox="0 0 16 13" style="enable-background:new 0 0 16 13;" xml:space="preserve">
<title>link</title>
<desc>Created with Sketch.</desc>
<g id="link">
	<path id="Path-27" d="M9.3,7.1L8.6,6.4c0.1-0.1,0.2-0.2,0.6-0.5c0.9-0.8,0.9-2.2,0.1-3c0,0,0,0-0.1-0.1C8.4,2,6.9,2,6.1,2.9
		L1.6,7.3c-0.9,0.9-0.9,2.3,0,3.1l0.2,0.2c0.8,0.8,2,0.8,2.8,0.1l0.7,0.7c-1.2,1.1-3,1-4.2-0.1l-0.2-0.2c-1.2-1.2-1.2-3.3,0-4.5
		l4.4-4.4c1.3-1.3,3.3-1.3,4.6,0c0,0,0,0,0.1,0.1c1.2,1.3,1.1,3.2-0.1,4.4C9.6,6.9,9.4,7.1,9.3,7.1z"/>
	<path id="Path-27_1_" d="M6.8,4.7l0.7,0.7L6.8,6.1C5.9,7,5.9,8.4,6.8,9.3c0.9,0.9,2.3,0.9,3.1,0l4.5-4.5c0.9-0.9,0.9-2.3,0-3.1
		l-0.1-0.1c-0.7-0.7-1.9-0.7-2.7,0c0,0,0,0-0.1,0.1L10.7,1c0,0,0.1-0.1,0.1-0.1c1.1-1.1,3-1.1,4.1,0L15.1,1c1.2,1.2,1.2,3.3,0,4.5
		L10.6,10c-1.2,1.2-3.3,1.2-4.5,0c-1.3-1.3-1.3-3.3,0-4.5L6.8,4.7z"/>
</g>
</svg>
