<?xml version="1.0" encoding="utf-8"?>
<!-- Generator: Adobe Illustrator 22.0.1, SVG Export Plug-In . SVG Version: 6.00 Build 0)  -->
<!DOCTYPE svg PUBLIC "-//W3C//DTD SVG 1.1//EN" "http://www.w3.org/Graphics/SVG/1.1/DTD/svg11.dtd">
<svg version="1.1" id="Layer_1" xmlns="http://www.w3.org/2000/svg" xmlns:xlink="http://www.w3.org/1999/xlink" x="0px" y="0px"
	 width="16px" height="16px" viewBox="0 0 16 16" style="enable-background:new 0 0 16 16;" xml:space="preserve">
<title>play--outline</title>
<desc>Created with Sketch.</desc>
<g id="play--outline">
	<path id="Oval-13" d="M8,14.5c3.6,0,6.5-2.9,6.5-6.5S11.6,1.5,8,1.5S1.5,4.4,1.5,8S4.4,14.5,8,14.5z M8,16c-4.4,0-8-3.6-8-8
		s3.6-8,8-8s8,3.6,8,8S12.4,16,8,16z"/>
	<path id="Path-33" d="M5,4.8c0-0.2,0.1-0.4,0.2-0.6c0.3-0.6,1.1-0.8,1.7-0.4l5.5,3.2c0.2,0.1,0.3,0.3,0.4,0.4
		c0.3,0.6,0.2,1.4-0.4,1.7l-5.5,3.2c-0.2,0.1-0.4,0.2-0.6,0.2c-0.7,0-1.2-0.6-1.2-1.2V4.8z M7,9.9L10.3,8L7,6.1V9.9z"/>
</g>
</svg>
