<?xml version="1.0" encoding="UTF-8"?>
<svg width="16px" height="16px" viewBox="0 0 16 16" version="1.1" xmlns="http://www.w3.org/2000/svg" xmlns:xlink="http://www.w3.org/1999/xlink">
    <!-- Generator: Sketch 50.2 (55047) - http://www.bohemiancoding.com/sketch -->
    <title>save</title>
    <desc>Created with Sketch.</desc>
    <defs></defs>
    <g id="save" stroke="none" stroke-width="1" fill="none" fill-rule="evenodd">
        <path d="M12,1.59686457 L12,4.00297619 C12,4.55526094 11.5522847,5.00297619 11,5.00297619 L5,5.00297619 C4.44771525,5.00297619 4,4.55526094 4,4.00297619 L4,1 L1,1 L1,15 L4,15 L4,9 C4,8.44771525 4.44771525,8 5,8 L11,8 C11.5522847,8 12,8.44771525 12,9 L12,15 L15,15 L15,4.70207759 L12,1.59686457 Z M1,0 L11.8477028,0 L16,4.29792241 L16,15 C16,15.5522847 15.5522847,16 15,16 L1,16 C0.44771525,16 6.76353751e-17,15.5522847 0,15 L0,1 C-6.76353751e-17,0.44771525 0.44771525,1.01453063e-16 1,0 Z M11,9 L5,9 L5,14.9916287 L11,14.9988035 L11,9 Z M5,1 L5,4.00297619 L11,4.00297619 L11,1 L5,1 Z" id="Save" fill="#000000" fill-rule="nonzero"></path>
    </g>
</svg>