<?xml version="1.0" encoding="UTF-8" standalone="no"?>
<svg width="16px" height="16px" viewBox="0 0 16 16" version="1.1" xmlns="http://www.w3.org/2000/svg" xmlns:xlink="http://www.w3.org/1999/xlink">
    <!-- Generator: Sketch 50.2 (55047) - http://www.bohemiancoding.com/sketch -->
    <title>stop--solid</title>
    <desc>Created with Sketch.</desc>
    <defs></defs>
    <g id="stop--solid" stroke="none" stroke-width="1" fill="none" fill-rule="evenodd">
        <path d="M8,16 C3.581722,16 0,12.418278 0,8 C0,3.581722 3.581722,0 8,0 C12.418278,0 16,3.581722 16,8 C16,12.418278 12.418278,16 8,16 Z M6,5 C5.44771525,5 5,5.44771525 5,6 L5,10 C5,10.5522847 5.44771525,11 6,11 L10,11 C10.5522847,11 11,10.5522847 11,10 L11,6 C11,5.44771525 10.5522847,5 10,5 L6,5 Z" id="stop" fill="#000000"></path>
    </g>
</svg>