<svg xmlns="http://www.w3.org/2000/svg" width="47" height="12" viewBox="0 0 47 12">
  <g fill="#000000" fill-rule="evenodd">
    <polygon points="43.2 .9 40.8 6.1 38.5 .9 35.4 .9 35.4 11.2 37.9 11.2 37.9 4.3 39.9 8.8 41.7 8.8 43.6 4.3 43.6 11.2 46.3 11.2 46.3 .9"/>
    <polygon points="21.7 .9 19.2 8.2 16.7 .9 13.9 .9 17.7 11.2 20.7 11.2 24.4 .9"/>
    <path d="M10.7,3.2 C10.2,3.2 9.8,3.3 9.3,3.6 C8.8,3.8 8.3,4.2 7.8,4.6 C7.6,4.2 7.3,3.8 6.9,3.6 C6.5,3.4 6.1,3.3 5.5,3.3 C5,3.3 4.6,3.4 4.2,3.6 C3.8,3.7 3.4,4 3,4.3 L3,3.4 L0.5,3.4 L0.5,11.2 L3,11.2 L3,5.7 C3.2,5.6 3.4,5.5 3.6,5.4 C3.8,5.3 4.1,5.3 4.3,5.3 C4.6,5.3 4.8,5.3 5,5.4 C5.2,5.5 5.3,5.6 5.4,5.8 C5.5,6 5.5,6.2 5.6,6.4 C5.6,6.7 5.6,7 5.6,7.4 L5.6,11.3 L8.1,11.3 L8.1,5.8 C8.4,5.6 8.6,5.5 8.8,5.4 C9,5.3 9.2,5.3 9.4,5.3 C9.7,5.3 10,5.3 10.1,5.4 C10.3,5.5 10.4,5.6 10.5,5.8 C10.6,6 10.6,6.2 10.6,6.4 C10.6,6.7 10.6,7 10.6,7.4 L10.6,11.3 L13.1,11.3 L13.1,6.2 C13.1,5.2 12.9,4.5 12.4,4 C12.2,3.5 11.5,3.2 10.7,3.2 Z"/>
    <path fill-rule="nonzero" d="M27.5,0.9 L23.7,11.2 L26.4,11.2 L27.1,9.1 L31,9.1 L31.7,11.2 L34.5,11.2 L30.7,0.9 L27.5,0.9 Z M27.8,7.3 L29.1,3.6 L30.4,7.3 L27.8,7.3 Z"/>
  </g>
</svg>
