<svg xmlns="http://www.w3.org/2000/svg" width="29" height="45" viewBox="0 0 29 45">
  <g fill="#000000" fill-rule="evenodd">
    <path d="M14.4.6C6.5.6 0 7 0 15L28.7 15C28.7 7 22.3.6 14.4.6zM20.7 36.1L20.3 36.1 20.3 37.4 20.6 37.4C20.8 37.4 21 37.3 21.2 37.2 21.3 37.1 21.4 36.9 21.4 36.6 21.4 36.3 21.2 36.1 20.7 36.1z"/>
    <path fill-rule="nonzero" d="M24.8,31 L4,31 C3.5,31 3.2,31.4 3.2,31.8 L3.2,43.6 C3.2,44.1 3.6,44.4 4,44.4 L24.8,44.4 C25.3,44.4 25.6,44 25.6,43.6 L25.6,31.8 C25.6,31.3 25.2,31 24.8,31 Z M12.6,40.7 L10.7,40.7 L10.1,38.2 C10.1,38.1 10,37.9 10,37.6 C10,37.3 9.9,37 9.9,36.8 C9.9,37 9.8,37.2 9.8,37.4 C9.8,37.7 9.7,37.9 9.7,38.1 C9.7,38.3 9.5,39.2 9.1,40.7 L7.2,40.7 L5.8,34.9 L7.3,34.9 L7.9,37.8 C8,38.4 8.1,39 8.2,39.3 C8.2,39 8.3,38.7 8.4,38.2 C8.5,37.7 8.6,37.3 8.7,37 L9.2,34.8 L10.7,34.8 L11.2,37 C11.3,37.4 11.4,37.8 11.5,38.2 C11.6,38.7 11.6,39 11.7,39.2 C11.7,38.9 11.8,38.4 12,37.7 L12.6,34.8 L14,34.8 L12.6,40.7 Z M18.2,36.1 L16.3,36.1 L16.3,37.2 L18,37.2 L18,38.5 L16.2,38.5 L16.2,40.7 L14.6,40.7 L14.6,34.9 L18.1,34.9 L18.1,36.1 L18.2,36.1 Z M22.4,38.2 C22,38.6 21.5,38.7 20.8,38.7 L20.4,38.7 L20.4,40.6 L18.8,40.6 L18.8,34.8 L20.8,34.8 C21.5,34.8 22.1,35 22.5,35.3 C22.9,35.6 23.1,36.1 23.1,36.7 C23,37.3 22.8,37.8 22.4,38.2 Z"/>
    <path d="M24,17 L14.3,26.3 L4.7,17 C4.2,16.5 3.4,16.5 2.9,17 C2.4,17.5 2.4,18.3 2.9,18.8 L13.4,28.9 C13.4,28.9 13.4,28.9 13.4,28.9 C13.5,29 13.6,29.1 13.8,29.1 C13.8,29.1 13.8,29.1 13.8,29.1 C13.9,29.2 14.1,29.2 14.2,29.2 C14.4,29.2 14.5,29.2 14.6,29.1 C14.6,29.1 14.6,29.1 14.6,29.1 C14.7,29 14.9,29 15,28.9 C15,28.9 15,28.9 15,28.9 L25.5,18.8 C26,18.3 26,17.5 25.5,17 C25.3,16.5 24.5,16.5 24,17 Z"/>
  </g>
</svg>
