<svg xmlns="http://www.w3.org/2000/svg" width="57" height="57" viewBox="0 0 57 57">
  <g fill="#000000" fill-rule="evenodd">
    <path d="M25.9,25.1 C25.7,24.3 25.6,23.7 25.5,23.3 C25.4,23.6 25.3,24.2 25.2,24.9 C25,25.7 24.7,27.1 24.1,29.3 L27.1,29.3 L26.5,27 C26.2,26.6 26.1,25.9 25.9,25.1 Z"/>
    <path fill-rule="nonzero" d="M54.4,0 L2.4,0 C1.1,0 0,1.1 0,2.4 L0,4.1 L0,52 L0,53.7 C0,55 1.1,56.1 2.4,56.1 L54.4,56.1 C55.7,56.1 56.8,55 56.8,53.7 L56.8,52 L56.8,4.1 L56.8,2.4 C56.8,1.1 55.7,0 54.4,0 Z M9.9,35.1 L5.3,21.1 L9.6,21.1 L11.5,28.2 C11.9,29.8 12.1,30.9 12.2,31.5 C12.2,31.1 12.3,30.5 12.5,29.8 C12.6,29.1 12.8,28.6 12.9,28.2 L14.9,21 L19,21 L14.4,35.1 L9.9,35.1 Z M28.5,35.1 L27.8,32.5 L23.2,32.5 L22.5,35.1 L18.3,35.1 L22.9,21 L28,21 L32.7,35.1 L28.5,35.1 Z M51.3,35.1 L47.8,35.1 L47.8,29 C47.8,28.7 47.8,28.3 47.8,27.9 C47.8,27.5 47.9,26.5 47.9,25 L47.8,25 L45,35.1 L41.4,35.1 L38.6,25 L38.5,25 C38.6,26.7 38.7,28.1 38.7,29 L38.7,35.1 L35.3,35.1 L35.3,21.1 L40.4,21.1 L43.3,31.1 L43.4,31.1 L46.3,21.1 L51.4,21.1 L51.4,35.1 L51.3,35.1 Z"/>
  </g>
</svg>
