<svg xmlns="http://www.w3.org/2000/svg" width="50" height="48" viewBox="0 0 50 48">
  <path fill="#000000" d="M40.2,11.8 C41.8,11.8 43.2,13.1 43.2,14.8 C43.2,16.4 41.9,17.8 40.2,17.8 C38.6,17.8 37.2,16.5 37.2,14.8 C37.3,13.1 38.6,11.8 40.2,11.8 Z M28.3,4.2 C28.3,3.7 28.7,3.2 29.3,3.2 C29.8,3.2 30.3,3.6 30.3,4.2 L30.3,6.8 C30.3,7.3 29.9,7.8 29.3,7.8 C28.8,7.8 28.3,7.4 28.3,6.8 L28.3,4.2 Z M29.6,9 L30.2,9 L30.2,11 C30.2,12.8 28.8,14.2 27,14.2 L26.4,14.2 L26.4,12.3 C26.3,10.5 27.8,9 29.6,9 Z M27,20 L26.4,20 L26.4,18.1 C26.4,16.3 27.8,14.9 29.6,14.9 L30.2,14.9 L30.2,16.8 C30.2,18.6 28.8,20 27,20 Z M28,25.4 C28,26.9 26.8,28.1 25.3,28.1 C23.8,28.1 22.6,26.9 22.6,25.4 C22.6,23.9 23.8,22.7 25.3,22.7 C26.8,22.8 28,24 28,25.4 Z M24.4,1.6 C24.4,1.1 24.8,0.6 25.4,0.6 C25.9,0.6 26.4,1 26.4,1.6 L26.4,8.7 C26.4,9.2 26,9.7 25.4,9.7 C24.9,9.7 24.4,9.3 24.4,8.7 L24.4,1.6 Z M20.5,4.2 C20.5,3.7 20.9,3.2 21.5,3.2 C22,3.2 22.5,3.6 22.5,4.2 L22.5,6.8 C22.5,7.3 22.1,7.8 21.5,7.8 C21,7.8 20.5,7.4 20.5,6.8 L20.5,4.2 Z M20.5,9 L21.1,9 C22.9,9 24.3,10.4 24.3,12.2 L24.3,14.1 L23.7,14.1 C21.9,14.1 20.5,12.7 20.5,10.9 L20.5,9 Z M20.5,14.8 L21.1,14.8 C22.9,14.8 24.3,16.2 24.3,18 L24.3,20 L23.7,20 C21.9,20 20.5,18.6 20.5,16.8 L20.5,14.8 Z M10.5,11.8 C12.1,11.8 13.5,13.1 13.5,14.8 C13.5,16.4 12.2,17.8 10.5,17.8 C8.9,17.8 7.5,16.5 7.5,14.8 C7.5,13.1 8.9,11.8 10.5,11.8 Z M17.2,28.1 C17.2,25.6 15.7,23.8 13.5,22.9 L16.5,37 C16.6,37.4 16.2,37.8 15.8,37.8 L14.3,37.8 L14.3,46 C14.3,46.8 13.6,47.5 12.8,47.5 C12,47.5 11.3,46.8 11.3,46 L11.3,37.8 L9.8,37.8 L9.8,46 C9.8,46.8 9.1,47.5 8.3,47.5 C7.5,47.5 6.8,46.8 6.8,46 L6.8,37.8 L5.3,37.8 C4.8,37.8 4.5,37.4 4.6,37 L7.6,22.9 C5.4,23.8 3.9,25.6 3.9,28.1 C3.9,28.9 3.2,29.6 2.4,29.6 C1.6,29.6 0.9,29 0.9,28.1 C0.9,22.9 5,19.2 10.6,19.2 C16.2,19.2 20.3,23 20.3,28.1 C20.3,28.9 19.6,29.6 18.8,29.6 C18,29.6 17.2,29 17.2,28.1 Z M31,36.8 C30.4,36.8 30,36.4 30,35.8 C30,34.3 29.2,33 28,32.2 L28,33.6 L28,38.2 L28,46.5 C28,47.1 27.6,47.5 27,47.5 C26.4,47.5 26,47.1 26,46.5 L26,39.5 L24.7,39.5 L24.7,46.5 C24.7,47.1 24.3,47.5 23.7,47.5 C23.1,47.5 22.7,47.1 22.7,46.5 L22.7,38.2 L22.7,33.6 L22.7,32.2 C21.5,33 20.7,34.2 20.7,35.8 C20.7,36.4 20.3,36.8 19.7,36.8 C19.1,36.8 18.7,36.4 18.7,35.8 C18.7,32.2 21.6,29.5 25.4,29.5 C29.2,29.5 32.1,32.2 32.1,35.8 C32,36.3 31.6,36.8 31,36.8 Z M48.4,29.6 C47.6,29.6 46.9,28.9 46.9,28.1 C46.9,25.7 45.7,24 43.9,23.1 L43.9,32 L43.9,33.4 L43.9,46 C43.9,46.8 43.2,47.5 42.4,47.5 C41.6,47.5 40.9,46.8 40.9,46 L40.9,34.8 L39.4,34.8 L39.4,46 C39.4,46.8 38.7,47.5 37.9,47.5 C37.1,47.5 36.4,46.8 36.4,46 L36.4,33.4 L36.4,32 L36.4,23.1 C34.7,24.1 33.4,25.7 33.4,28.1 C33.4,28.9 32.7,29.6 31.9,29.6 C31.1,29.6 30.4,28.9 30.4,28.1 C30.4,23 34.6,19.2 40.1,19.2 C45.6,19.2 49.8,23 49.8,28.1 C49.9,29 49.2,29.6 48.4,29.6 Z"/>
</svg>
