<svg xmlns="http://www.w3.org/2000/svg" width="48" height="48" viewBox="0 0 48 48">
  <g fill="#000000" fill-rule="evenodd">
    <path d="M35 29.6C35 29.3 34.9 28.9 34.6 28.7L28.7 22.8C28.2 22.3 27.4 22.3 26.8 22.8 26.3 23.3 26.3 24.1 26.8 24.7L30.5 28.4 31.7 29.7 30.5 31 26.8 34.7C26.3 35.2 26.3 36 26.8 36.6 27.1 36.9 27.4 37 27.7 37 28 37 28.4 36.9 28.6 36.6L34.5 30.7C34.9 30.3 35 29.9 35 29.6zM21.7 11.7C19.9 12.3 19 14.2 19.6 16 20.2 17.8 22.1 18.7 23.9 18.1 25.7 17.5 26.6 15.6 26 13.8 25.3 12 23.4 11.1 21.7 11.7z"/>
    <path d="M35 22.8C34.5 22.3 33.7 22.3 33.1 22.8 32.6 23.3 32.6 24.1 33.1 24.7L36.8 28.4 38 29.7 36.8 31 33.1 34.7C32.6 35.2 32.6 36 33.1 36.6 33.4 36.9 33.7 37 34 37 34.3 37 34.7 36.9 34.9 36.6L40.8 30.7C41 30.5 41.2 30.1 41.2 29.8 41.2 29.5 41.1 29.1 40.8 28.9L35 22.8zM18.3 31.3L21.6 24.7C22.6 22.7 21.8 20.2 19.8 19.2L17.6 18.1C17.5 18 17.4 18 17.2 18 11.5 15.5 4.7 17.8 1.8 23.5 1.4 24.4 1.7 25.4 2.6 25.8 3.5 26.2 4.5 25.9 4.9 25 6.6 21.7 10.1 20 13.5 20.5L1 45.2C.6 46.1.9 47.1 1.8 47.6 2.1 47.7 2.3 47.8 2.6 47.8 3.2 47.8 3.9 47.4 4.2 46.8L11.8 31.9 15.6 33.8C19.7 36 21.2 41.1 19.1 45.2 18.7 46.1 19 47.1 19.9 47.6 20.3 47.8 20.8 47.9 21.2 47.7 21.6 47.6 22 47.3 22.2 46.8 25 41.3 23.2 34.7 18.3 31.3zM42.4 8L40.7 8 40.7 6.3C40.7 5.6 40.1 5 39.4 5 39.1 5 38.7 5.1 38.5 5.4 38.3 5.6 38.1 5.9 38.1 6.3L38.1 8 36.4 8C35.7 8 35.1 8.6 35.1 9.3 35.1 9.6 35.2 10 35.5 10.2 35.7 10.4 36 10.6 36.4 10.6L38.1 10.6 38.1 12.3C38.1 13 38.7 13.6 39.4 13.6 39.7 13.6 40.1 13.5 40.3 13.2 40.5 13 40.7 12.7 40.7 12.3L40.7 10.6 42.4 10.6C43.1 10.6 43.7 10 43.7 9.3 43.7 9 43.6 8.6 43.3 8.4 43 8.1 42.7 8 42.4 8z"/>
    <path fill-rule="nonzero" d="M39.4,0.8 C34.7,0.8 30.9,4.6 30.9,9.3 C30.9,14 34.7,17.8 39.4,17.8 C44.1,17.8 47.9,14 47.9,9.3 C47.9,4.6 44.1,0.8 39.4,0.8 Z M39.4,15.4 C36,15.4 33.2,12.6 33.2,9.2 C33.2,5.8 36,3 39.4,3 C42.8,3 45.6,5.8 45.6,9.2 C45.6,12.7 42.8,15.4 39.4,15.4 Z"/>
  </g>
</svg>
