<svg xmlns="http://www.w3.org/2000/svg" width="27" height="45" viewBox="0 0 27 45">
  <path fill="#000000" d="M13.4,0.2 C17,0.2 19.9,3.1 19.9,6.7 C19.9,10.3 17,13.2 13.4,13.2 C9.8,13.2 6.9,10.3 6.9,6.7 C6.9,3.1 9.8,0.2 13.4,0.2 Z M26.4,35.5 C26.4,36.8 25.5,37.8 24.3,38.1 C24.3,38.1 24,38.2 23.8,38.2 L23.7,38.2 C23.7,38.2 23.7,38.2 23.7,38.2 L23.6,38.2 L22.8,38.2 L11.6,38.2 C10.1,38.2 8.8,36.9 8.8,35.4 C8.8,34.7 9.1,34 9.6,33.5 C9.6,33.5 9.6,33.5 9.6,33.5 C9.8,33.3 10.1,33.1 10.4,33 C10.4,33 10.5,33 10.6,32.9 C10.9,32.8 11.2,32.7 11.6,32.7 L12.9,32.7 L17.4,32.7 C17.4,32.7 17.4,32.7 17.4,32.7 C19.7,32.7 21.6,30.8 21.6,28.5 C21.6,26.2 19.7,24.3 17.4,24.3 C15.1,24.3 13.2,26.2 13.2,28.5 C13.2,29.4 13.5,30.1 14,30.8 L11.9,30.8 C11.5,29.7 11.3,28.4 11.7,27.1 C12,26.1 11.4,25.1 10.4,24.8 C9.4,24.5 8.4,25.1 8.1,26.1 C7.5,28.2 7.7,30.2 8.4,32.1 C7.5,32.9 7,34.1 7,35.4 C7,36.6 7.5,37.8 8.4,38.7 C9.3,39.6 10.4,40.1 11.7,40.1 L21,40.1 L21,40.3 L21,41 C21,43 19.3,44.7 17.3,44.7 L4.3,44.7 C2.3,44.7 0.6,43 0.6,41 L0.6,22.5 C0.6,19.4 3.1,16.9 6.2,16.9 L18,16.9 L22.6,16.9 C24.6,16.9 26.3,18.6 26.3,20.6 L26.3,35.5 L26.4,35.5 Z"/>
</svg>
