<svg xmlns="http://www.w3.org/2000/svg" width="57" height="57" viewBox="0 0 57 57">
  <path fill="#000000" d="M54.4,0 L2.4,0 C1.1,0 0,1.1 0,2.4 L0,4.1 L0,52 L0,53.7 C0,55 1.1,56.1 2.4,56.1 L54.4,56.1 C55.7,56.1 56.8,55 56.8,53.7 L56.8,52 L56.8,4.1 L56.8,2.4 C56.8,1.1 55.7,0 54.4,0 Z M14.6,34.3 C14.2,34.3 13.8,34.1 13.5,33.8 C12.9,33.2 12.9,32.2 13.5,31.6 L15.2,29.9 L17.3,27.8 C17.6,27.5 18,27.4 18.3,27.4 C18.4,27.4 18.5,27.4 18.7,27.4 C19,27.5 19.2,27.6 19.5,27.8 C19.9,28.2 20,28.7 20,29.2 C20,29.5 19.8,29.8 19.6,30 L18.2,31.4 L15.8,33.8 C15.4,34.1 15,34.3 14.6,34.3 Z M18.4,38.1 C18,38.1 17.6,37.9 17.3,37.6 C16.7,37 16.7,36 17.3,35.4 L21.1,31.6 C21.3,31.4 21.6,31.2 21.9,31.2 C22,31.2 22.1,31.2 22.1,31.2 C22.5,31.2 22.9,31.4 23.2,31.7 C23.6,32.1 23.7,32.6 23.7,33.1 C23.7,33.4 23.5,33.7 23.3,33.9 L19.5,37.7 C19.2,37.9 18.8,38.1 18.4,38.1 Z M22.3,41.9 C21.9,41.9 21.5,41.7 21.2,41.4 C20.6,40.8 20.6,39.8 21.2,39.2 L25,35.4 C25.2,35.2 25.5,35 25.8,35 C25.9,35 26,35 26,35 C26.4,35 26.8,35.2 27.1,35.5 C27.5,35.9 27.6,36.4 27.6,36.9 C27.6,37.2 27.4,37.5 27.2,37.7 L23.4,41.5 C23,41.8 22.7,41.9 22.3,41.9 Z M31,41.5 L27.2,45.3 C26.9,45.6 26.5,45.7 26.2,45.7 C25.8,45.7 25.4,45.5 25.1,45.2 C24.5,44.6 24.5,43.6 25.1,43 L28.9,39.2 C29.1,39 29.4,38.8 29.7,38.8 C29.8,38.8 29.9,38.8 29.9,38.8 C30.3,38.8 30.7,39 31,39.3 C31.4,39.7 31.5,40.2 31.5,40.7 C31.3,41 31.2,41.3 31,41.5 Z M41.4,35 C41,35.4 40.4,35.7 39.8,35.7 C39.4,35.7 39,35.6 38.7,35.4 C39.3,36.3 39.2,37.5 38.4,38.2 C38,38.6 37.4,38.9 36.8,38.9 C36.4,38.9 36,38.8 35.6,38.5 C36.1,39.4 36,40.5 35.2,41.2 C34.8,41.6 34.2,41.9 33.6,41.9 C33.3,41.9 33,41.8 32.7,41.7 C32.9,41.3 33,40.8 33,40.4 C33,39.6 32.7,38.8 32.1,38.2 C31.5,37.6 30.7,37.3 29.9,37.3 C29.6,37.3 29.4,37.3 29.1,37.4 C29.2,37.1 29.2,36.8 29.2,36.5 C29.2,35.7 28.9,34.9 28.3,34.3 C27.7,33.7 26.9,33.4 26.1,33.4 C25.8,33.4 25.6,33.4 25.3,33.5 C25.4,33.2 25.4,32.9 25.4,32.6 C25.4,31.8 25.1,31 24.5,30.4 C23.9,29.8 23.1,29.5 22.3,29.5 C22,29.5 21.8,29.5 21.5,29.6 C21.6,29.3 21.6,29 21.6,28.7 C21.6,28.5 21.6,28.2 21.5,28 C21.4,27.5 21.1,27 20.7,26.6 C20.5,26.4 20.3,26.2 20,26.1 C19.5,25.8 19,25.7 18.5,25.7 C17.7,25.7 16.9,26 16.4,26.6 L14.2,28.8 L14.1,28.7 C9.9,24.5 9.9,17.7 14.1,13.5 C17.7,9.9 23.2,9.4 27.3,12 C27.1,12.1 27,12.3 26.8,12.5 L20,19.1 C18.8,20.3 18.8,22.2 20,23.4 C20.5,23.9 21.1,24.2 21.8,24.3 C21.8,24.3 21.9,24.3 21.9,24.3 C22,24.3 22.1,24.3 22.2,24.3 C23,24.3 23.8,24 24.4,23.4 L25.5,22.3 L25.6,22.2 L28.5,19.3 L28.7,19.1 L41.4,31.8 C42.3,32.6 42.3,34.1 41.4,35 Z M42.8,28.8 C42.5,29.1 42.2,29.4 41.9,29.6 L30.9,18.6 L29,16.7 L23.4,22.3 C23.1,22.6 22.7,22.7 22.3,22.7 C21.9,22.7 21.5,22.6 21.2,22.3 C20.6,21.7 20.6,20.7 21.2,20.1 L27.7,13.6 C27.9,13.4 28.2,13.2 28.4,13 C29.3,12.3 30.2,11.7 31.3,11.3 C32.6,10.8 34,10.5 35.3,10.5 C38,10.5 40.8,11.5 42.9,13.6 C47,17.8 47,24.6 42.8,28.8 Z"/>
</svg>
