<svg xmlns="http://www.w3.org/2000/svg" width="45" height="37" viewBox="0 0 45 37">
  <g fill="#000000" fill-rule="evenodd">
    <path d="M28.1 15.4C28.7 15.1 29.3 15 30 14.9 30 14.9 30 14.9 30 14.9 30.2 14.9 30.4 14.9 30.7 14.9L39 14.9C40.8 14.9 42.5 15.7 43.6 16.9L43.6 11.2C43.6 10.2 42.8 9.3 41.7 9.3L27.9 9.3C26.9 9.3 26 10.1 26 11.2L26 13 26 14.9 26 16.8C26.5 16.3 27.2 15.8 27.9 15.5 28 15.4 28.1 15.4 28.1 15.4zM24.1 34.8C24.1 34.7 24.1 34.7 24.1 34.8 24 34.6 23.9 34.6 23.9 34.5 23.9 34.5 23.9 34.5 23.9 34.5L20.5 31.7 20.5 17.4 23.3 18.1 23.3 15.8 23.3 14.2 23.3 11.7 20.5 10.4 20.5 2.8C20.5 1.3 19.3-3.55271368e-15 17.7-3.55271368e-15 16.2-3.55271368e-15 14.9 1.2 14.9 2.8L14.9 10.4 1.3 16.8C.9 17 .6 17.2.4 17.6.4 17.6.3 17.7.3 17.7.3 17.7.3 17.8.3 17.8.3 17.8.3 17.9.2 18 .1 18.3.1 18.6.2 18.9.2 18.9.2 18.9.2 18.9.2 19 .2 19 .3 19.1.3 19.2.3 19.2.4 19.3.6 19.7.8 19.9 1.1 20.1 1.1 20.1 1.2 20.2 1.2 20.2 1.2 20.2 1.3 20.2 1.3 20.2 1.3 20.2 1.4 20.2 1.5 20.3 1.7 20.4 1.9 20.4 2 20.4 2.1 20.4 2.3 20.4 2.4 20.4L15 17.4 15 31.7 11.6 34.5C11.6 34.5 11.6 34.5 11.6 34.5 11.5 34.6 11.5 34.6 11.5 34.7 11.5 34.7 11.4 34.8 11.4 34.8 11.4 34.8 11.4 34.9 11.4 35 11.4 35.1 11.4 35.1 11.3 35.2 11.3 35.2 11.3 35.3 11.3 35.3 11.3 35.4 11.3 35.5 11.3 35.5 11.3 35.5 11.3 35.5 11.3 35.5 11.3 35.6 11.4 35.6 11.4 35.7 11.4 35.7 11.4 35.8 11.5 35.8 11.5 35.8 11.5 35.8 11.5 35.8 11.5 35.9 11.6 35.9 11.7 35.9 11.7 35.9 11.8 36 11.8 36 11.8 36 11.9 36 11.9 36 12 36 12.1 36.1 12.1 36.1 12.1 36.1 12.2 36.1 12.2 36.1 12.3 36.1 12.4 36.1 12.5 36.1 12.5 36.1 12.5 36.1 12.5 36.1L17.8 34.4 23.1 36.1C23.1 36.1 23.1 36.1 23.1 36.1 23.2 36.1 23.3 36.1 23.4 36.1 23.5 36.1 23.6 36.1 23.7 36 23.7 36 23.8 36 23.8 36 23.9 36 24 35.9 24 35.8 24 35.8 24 35.8 24 35.8 24 35.8 24 35.8 24 35.8 24.1 35.7 24.1 35.6 24.2 35.5 24.2 35.5 24.2 35.5 24.2 35.5 24.2 35.4 24.2 35.3 24.2 35.3 24.2 35.3 24.2 35.2 24.2 35.2 24.2 35.1 24.2 35.1 24.1 35 24.2 34.9 24.2 34.8 24.1 34.8z"/>
    <path fill-rule="nonzero" d="M43.7,24.1 L43.7,21.3 C43.7,18.7 41.6,16.7 39.1,16.7 L30.8,16.7 C29.8,16.7 28.8,17 28,17.6 C27.9,17.7 27.8,17.7 27.7,17.8 C27.4,18.1 27.1,18.4 26.8,18.8 C26.4,19.5 26.1,20.4 26.1,21.3 L26.1,24.1 C25.6,24.1 25.2,24.5 25.2,25 L25.2,32.4 C25.2,32.9 25.6,33.3 26.1,33.3 L27,33.3 L27,34.7 C27,35.5 27.6,36.1 28.4,36.1 C29.2,36.1 29.8,35.5 29.8,34.7 L29.8,33.3 L40,33.3 L40,34.7 C40,35.5 40.6,36.1 41.4,36.1 C42.2,36.1 42.8,35.5 42.8,34.7 L42.8,33.3 L43.7,33.3 C44.2,33.3 44.6,32.9 44.6,32.4 L44.6,25 C44.6,24.5 44.2,24.1 43.7,24.1 Z M28.9,21.3 C28.9,20.5 29.4,19.9 30,19.6 C30.2,19.5 30.5,19.4 30.7,19.4 L39,19.4 C39.9,19.4 40.6,20 40.8,20.8 C40.8,20.9 40.9,21.1 40.9,21.2 L40.9,24 L28.9,24 L28.9,21.3 Z M29.3,29.7 C28.5,29.7 27.9,29.1 27.9,28.3 C27.9,27.5 28.5,26.9 29.3,26.9 C30.1,26.9 30.7,27.5 30.7,28.3 C30.7,29 30.1,29.7 29.3,29.7 Z M40.5,29.7 C39.7,29.7 39.1,29.1 39.1,28.3 C39.1,27.5 39.7,26.9 40.5,26.9 C41.3,26.9 41.9,27.5 41.9,28.3 C41.9,29 41.2,29.7 40.5,29.7 Z"/>
  </g>
</svg>
