<svg xmlns="http://www.w3.org/2000/svg" width="35" height="44" viewBox="0 0 35 44">
  <g fill="#000000" fill-rule="evenodd">
    <path d="M18.8 14.2L10.2 14.2C9.4 14.2 8.7 14.9 8.7 15.7 8.7 16.5 9.4 17.2 10.2 17.2L18.8 17.2C19.6 17.2 20.3 16.5 20.3 15.7 20.3 14.8 19.6 14.2 18.8 14.2zM18.8 19.3L10.2 19.3C9.4 19.3 8.7 20 8.7 20.8 8.7 21.6 9.4 22.3 10.2 22.3L18.8 22.3C19.6 22.3 20.3 21.6 20.3 20.8 20.3 20 19.6 19.3 18.8 19.3z"/>
    <path fill-rule="nonzero" d="M32.9,0.2 L26.9,0.2 C26.1,0.2 25.5,0.8 25.5,1.6 C25.5,2.4 26.1,3 26.9,3 L29.5,3 L24.4,8.1 C21.8,5.7 18.4,4.1 14.6,4.1 C6.7,4.1 0.3,10.5 0.3,18.4 C0.3,25.8 5.9,31.8 13.1,32.5 L13.1,36.1 L10.2,36.1 C9.4,36.1 8.7,36.8 8.7,37.6 C8.7,38.4 9.4,39.1 10.2,39.1 L13.1,39.1 L13.1,41.3 L13.1,42.3 C13.1,43.1 13.7,43.7 14.5,43.7 C14.9,43.7 15.2,43.5 15.5,43.3 C15.8,43 15.9,42.7 15.9,42.3 L15.9,39.1 L18.8,39.1 C19.6,39.1 20.3,38.4 20.3,37.6 C20.3,36.8 19.6,36.1 18.8,36.1 L16,36.1 L16,32.5 C23.2,31.8 28.8,25.8 28.8,18.4 C28.8,15.4 27.8,12.6 26.3,10.3 L31.5,5 L31.5,7.6 C31.5,8.4 32.1,9 32.9,9 C33.3,9 33.6,8.8 33.9,8.6 C34.2,8.3 34.3,8 34.3,7.6 L34.3,1.6 C34.3,0.9 33.6,0.2 32.9,0.2 Z M22.4,25.8 C21.2,27.1 19.8,28 18.1,28.6 C17.6,28.8 17.2,28.9 16.7,29 C16,29.1 15.3,29.2 14.6,29.2 C13.9,29.2 13.2,29.1 12.5,29 C12,28.9 11.5,28.8 11.1,28.6 C9.4,28 8,27 6.8,25.8 C5,23.9 3.9,21.3 3.9,18.5 C3.9,12.6 8.7,7.8 14.6,7.8 C20.5,7.8 25.3,12.6 25.3,18.5 C25.2,21.3 24.1,23.9 22.4,25.8 Z"/>
  </g>
</svg>
