<?xml version="1.0" encoding="UTF-8"?>
<svg width="59px" height="87px" viewBox="0 0 59 87" version="1.1" xmlns="http://www.w3.org/2000/svg" xmlns:xlink="http://www.w3.org/1999/xlink">
    <!-- Generator: Sketch 48.2 (47327) - http://www.bohemiancoding.com/sketch -->
    <title>vertical/ar/wfp-logo-vertical-white-ar</title>
    <desc>Created with Sketch.</desc>
    <defs></defs>
    <g id="White" stroke="none" stroke-width="1" fill="none" fill-rule="evenodd" transform="translate(-1171.000000, -218.000000)">
        <g id="vertical/ar/wfp-logo-vertical-white-ar" transform="translate(1171.000000, 218.000000)" fill="#FFFFFF">
            <path d="M36.847,4.482 L37.395,4.482 C37.907,4.482 38.29,4.381 38.544,4.179 C38.798,3.977 38.926,3.682 38.926,3.295 C38.926,2.905 38.819,2.617 38.606,2.431 C38.393,2.245 38.059,2.151 37.604,2.151 L36.847,2.151 L36.847,4.482 Z M40.607,3.236 C40.607,4.081 40.343,4.728 39.814,5.175 C39.286,5.623 38.536,5.847 37.562,5.847 L36.847,5.847 L36.847,8.64 L35.182,8.64 L35.182,0.787 L37.69,0.787 C38.643,0.787 39.367,0.992 39.863,1.402 C40.359,1.813 40.607,2.423 40.607,3.236 Z M31.07,8.64 L29.433,8.64 L29.433,0.787 L33.934,0.787 L33.934,2.151 L31.07,2.151 L31.07,4.177 L33.735,4.177 L33.735,5.535 L31.07,5.535 L31.07,8.64 Z M26.545,8.64 L24.649,8.64 L23.586,4.514 C23.546,4.368 23.479,4.064 23.384,3.604 C23.29,3.144 23.235,2.835 23.221,2.678 C23.199,2.872 23.146,3.182 23.06,3.61 C22.974,4.037 22.907,4.343 22.861,4.525 L21.803,8.64 L19.913,8.64 L17.909,0.787 L19.547,0.787 L20.551,5.073 C20.727,5.864 20.854,6.55 20.933,7.13 C20.954,6.926 21.003,6.61 21.081,6.183 C21.157,5.754 21.23,5.422 21.298,5.186 L22.442,0.787 L24.016,0.787 L25.16,5.186 C25.21,5.383 25.272,5.684 25.348,6.088 C25.423,6.493 25.48,6.84 25.52,7.13 C25.555,6.851 25.613,6.502 25.691,6.085 C25.77,5.669 25.842,5.331 25.906,5.073 L26.905,0.787 L28.543,0.787 L26.545,8.64 Z M22.473,35.952 C19.422,35.952 17.463,36.677 16.929,36.901 C16.897,36.915 16.872,36.87 16.896,36.846 C20.249,33.36 24.174,33.553 25.118,33.553 C26.074,33.553 36.28,33.553 36.28,33.553 C36.842,33.553 37.298,34.09 37.298,34.753 C37.298,35.415 36.842,35.952 36.28,35.952 C36.28,35.952 25.079,35.952 22.473,35.952 Z M24.987,39.037 C21.7,39.037 20.742,37.169 15.766,38.402 C15.731,38.411 15.708,38.364 15.737,38.345 C18.511,36.441 21.528,36.614 22.749,36.614 C23.704,36.614 36.28,36.614 36.28,36.614 C36.842,36.614 37.298,37.151 37.298,37.813 C37.298,38.476 36.842,39.013 36.28,39.013 C36.28,39.013 27.59,39.037 24.987,39.037 Z M25.221,42.074 C21.846,42.074 21.576,39.584 16.574,39.023 C16.539,39.02 16.535,38.968 16.569,38.959 C20.679,37.932 22.208,39.675 24.606,39.675 C25.561,39.675 36.28,39.675 36.28,39.675 C36.842,39.675 37.298,40.212 37.298,40.874 C37.298,41.537 36.842,42.074 36.28,42.074 C36.28,42.074 27.827,42.074 25.221,42.074 Z M24.488,32.892 C21.772,32.892 19.52,34.076 18.993,34.375 C18.964,34.392 18.934,34.356 18.953,34.329 C19.394,33.681 21.773,30.492 25.864,30.492 C26.819,30.492 36.28,30.492 36.28,30.492 C36.842,30.492 37.298,31.029 37.298,31.692 C37.298,32.354 36.842,32.892 36.28,32.892 C36.28,32.892 27.094,32.892 24.488,32.892 Z M39.429,26.267 C39.324,26.16 39.166,26.083 38.986,26.062 C38.852,26.043 38.731,26.064 38.623,26.104 C38.67,26.006 38.71,25.9 38.726,25.775 C38.752,25.581 38.715,25.4 38.642,25.262 C38.306,24.526 39.267,23.054 39.146,22.987 C39.03,22.924 38.484,24.547 37.954,25.204 C37.852,25.323 37.778,25.496 37.755,25.692 C37.736,25.886 37.768,26.07 37.841,26.205 C37.915,26.338 38.028,26.431 38.159,26.439 C38.196,26.444 38.232,26.442 38.267,26.434 C38.259,26.452 38.251,26.474 38.248,26.492 C38.227,26.636 38.282,26.771 38.39,26.88 C38.495,26.992 38.649,27.066 38.831,27.087 C39.017,27.111 39.19,27.074 39.324,26.995 C40.043,26.601 41.534,26.213 41.502,26.075 C41.474,25.937 40.02,26.79 39.429,26.267 Z M40.529,25.193 C40.429,25.084 40.287,25.01 40.122,24.994 C40.027,24.988 39.941,25.004 39.854,25.036 C39.867,24.991 39.886,24.951 39.891,24.906 C39.91,24.73 39.867,24.568 39.789,24.443 C39.424,23.766 40.376,22.488 40.253,22.424 C40.13,22.36 39.607,23.792 39.078,24.358 C38.973,24.459 38.899,24.608 38.881,24.784 C38.865,24.959 38.904,25.124 38.98,25.249 C39.064,25.371 39.18,25.458 39.319,25.477 C39.379,25.482 39.442,25.472 39.498,25.456 C39.495,25.464 39.487,25.475 39.489,25.482 C39.477,25.631 39.531,25.775 39.628,25.881 C39.729,25.987 39.873,26.062 40.033,26.075 C40.198,26.091 40.35,26.046 40.466,25.958 C41.085,25.512 42.502,25.246 42.465,25.103 C42.432,24.964 41.075,25.714 40.529,25.193 Z M41.492,24.199 C41.39,24.122 41.25,24.08 41.104,24.096 C41.033,24.098 40.967,24.12 40.907,24.146 C40.917,24.117 40.936,24.093 40.946,24.063 C40.985,23.912 40.972,23.758 40.922,23.633 C40.691,22.969 41.715,21.986 41.615,21.906 C41.516,21.832 40.852,23.022 40.306,23.442 C40.201,23.519 40.117,23.641 40.075,23.796 C40.03,23.944 40.043,24.101 40.096,24.223 C40.151,24.348 40.24,24.441 40.361,24.478 C40.453,24.507 40.544,24.489 40.631,24.452 C40.613,24.502 40.602,24.561 40.607,24.622 C40.621,24.757 40.686,24.872 40.794,24.951 C40.896,25.031 41.035,25.071 41.18,25.06 C41.329,25.044 41.458,24.98 41.547,24.885 C42.038,24.388 43.261,23.923 43.211,23.803 C43.158,23.684 42.059,24.568 41.492,24.199 Z M43.387,22.065 C43.284,21.914 42.429,22.852 41.796,22.942 C41.678,22.958 41.547,23.017 41.437,23.12 C41.319,23.227 41.243,23.357 41.216,23.481 C41.187,23.604 41.206,23.724 41.271,23.806 C41.342,23.891 41.45,23.928 41.571,23.915 C41.691,23.901 41.817,23.843 41.936,23.734 C42.046,23.63 42.122,23.501 42.15,23.378 C42.342,22.735 43.463,22.164 43.387,22.065 Z M25.693,23.335 C25.667,23.429 25.483,24.151 25.483,24.151 C25.431,24.181 25.21,24.133 25.152,24.127 C24.73,24.087 24.353,23.721 24.515,23.282 C24.647,22.924 24.919,22.886 25.263,22.871 C25.405,22.864 25.663,22.898 25.791,22.987 C25.791,22.987 25.74,23.152 25.693,23.335 Z M25.208,25.517 C25.194,25.6 25.181,25.682 25.168,25.764 C24.906,25.6 24.751,25.222 24.877,24.924 C24.974,24.699 25.214,24.639 25.391,24.629 C25.328,24.924 25.265,25.219 25.208,25.517 Z M24.83,28.214 C24.796,28.399 24.546,28.424 24.375,28.475 C23.879,28.623 23.41,28.56 23.257,27.967 C23.092,27.332 23.572,27.066 24.087,26.941 C24.368,26.875 24.627,26.931 24.819,27.167 C24.867,27.226 24.924,27.279 24.937,27.335 C24.937,27.335 24.861,28.04 24.83,28.214 Z M23.268,25.092 C23.651,24.999 24.047,24.855 24.341,25.233 C24.651,25.628 24.549,26.264 24.05,26.431 C23.722,26.542 23.326,26.638 23.045,26.37 C22.678,26.019 22.704,25.222 23.268,25.092 Z M22.893,23.035 C23.297,22.937 23.714,22.788 24.024,23.184 C24.347,23.599 24.239,24.268 23.717,24.443 C23.371,24.558 22.953,24.659 22.659,24.377 C22.273,24.01 22.302,23.173 22.893,23.035 Z M22.518,27.48 C22.413,27.85 22.108,27.906 21.788,27.983 C21.578,27.725 21.014,27.074 21.004,26.997 C21.001,26.971 21.004,26.942 21.016,26.907 C21.042,26.83 21.132,26.755 21.197,26.713 C21.389,26.588 21.798,26.495 22.019,26.54 C22.415,26.625 22.623,27.109 22.518,27.48 Z M20.512,25.581 C20.224,24.558 21.94,24.111 22.205,25.116 C22.478,26.147 20.746,26.585 20.512,25.581 Z M20.26,23.538 C19.966,22.52 21.691,22.073 21.956,23.072 C22.229,24.106 20.494,24.544 20.26,23.538 Z M20.019,21.529 C19.738,20.58 21.357,20.16 21.604,21.096 C21.859,22.058 20.239,22.472 20.019,21.529 Z M19.854,25.395 C19.774,25.442 19.744,25.467 19.718,25.467 L18.947,24.629 C18.956,24.606 19.195,24.433 19.274,24.388 C19.914,24.032 20.441,25.049 19.854,25.395 Z M18.392,23.508 C18.011,22.668 19.397,21.757 19.817,22.663 C20.203,23.498 18.817,24.425 18.392,23.508 Z M19.557,20.849 C19.996,21.627 18.675,22.496 18.297,21.659 C17.961,20.936 19.135,20.094 19.557,20.849 Z M18.45,19.034 C18.644,18.862 18.87,18.768 19.101,18.879 C19.471,19.058 19.481,19.613 19.158,19.833 C19.011,19.935 18.762,20.059 18.581,20.014 C18.185,19.913 18.109,19.335 18.45,19.034 Z M18.5,17.365 C18.66,17.257 18.873,17.16 19.056,17.235 C19.39,17.371 19.378,17.856 19.108,18.05 C18.985,18.138 18.762,18.247 18.612,18.207 C18.274,18.122 18.19,17.574 18.5,17.365 Z M19.387,14.987 C19.585,14.879 19.872,14.835 20.05,15.035 C20.26,15.27 20.192,15.627 19.917,15.768 C19.704,15.875 19.418,15.914 19.25,15.717 C19.066,15.505 19.104,15.14 19.387,14.987 Z M19.229,16.793 C19.069,16.198 20.071,15.917 20.234,16.522 C20.415,17.11 19.389,17.402 19.229,16.793 Z M20.846,17.833 C21.079,18.476 19.99,18.84 19.777,18.205 C19.56,17.562 20.654,17.195 20.846,17.833 Z M20.982,14.7 C21.19,14.616 21.456,14.527 21.688,14.7 C21.977,14.916 21.914,15.401 21.583,15.553 C21.365,15.651 21.087,15.717 20.893,15.545 C20.646,15.324 20.633,14.84 20.982,14.7 Z M20.791,20.081 C20.497,20.149 20.189,20.267 19.946,20.014 C19.633,19.692 19.723,19.129 20.145,18.975 C20.418,18.872 20.764,18.813 20.987,19.041 C21.273,19.334 21.242,19.972 20.791,20.081 Z M20.796,16.796 C20.607,16.159 21.646,15.832 21.846,16.451 C22.05,17.086 20.974,17.423 20.796,16.796 Z M22.536,17.965 C22.78,18.693 21.549,19.082 21.323,18.364 C21.095,17.631 22.333,17.243 22.536,17.965 Z M22.602,16.015 C22.818,15.957 23.048,15.978 23.213,16.156 C23.465,16.427 23.378,16.889 23.005,16.958 C22.83,16.99 22.56,16.977 22.423,16.857 C22.176,16.64 22.188,16.126 22.602,16.015 Z M23.651,17.543 C24.047,17.543 24.247,18.125 24.016,18.415 C23.877,18.59 23.578,18.601 23.373,18.569 C22.995,18.51 22.754,18.024 23.008,17.694 C23.163,17.495 23.428,17.543 23.651,17.543 Z M21.749,19.94 C21.504,19.103 22.927,18.728 23.145,19.56 C23.365,20.405 21.935,20.777 21.749,19.94 Z M22.62,21.011 C23.008,20.971 23.413,20.88 23.651,21.287 C23.9,21.717 23.714,22.315 23.21,22.416 C22.879,22.485 22.478,22.517 22.242,22.225 C21.932,21.837 22.056,21.063 22.62,21.011 Z M24.595,19.146 C25.074,19.344 25.236,19.911 24.898,20.227 C24.717,20.392 24.386,20.359 24.163,20.314 C23.717,20.227 23.425,19.556 23.816,19.238 C24.017,19.075 24.376,19.056 24.595,19.146 Z M25.349,21.165 C25.651,21.534 25.538,22.187 25.011,22.22 C24.735,22.235 24.375,22.204 24.189,21.978 C23.89,21.616 24.003,20.939 24.53,20.92 C24.806,20.91 25.163,20.939 25.349,21.165 Z M27.388,14.5 C27.359,14.458 27.307,14.434 27.254,14.45 C27.191,14.471 27.149,14.541 27.173,14.602 C28.378,17.838 26.84,19.432 26.197,21.699 C25.425,19.857 27.981,18.125 26.664,14.769 C26.646,14.727 26.611,14.692 26.564,14.684 C26.499,14.676 26.436,14.703 26.425,14.79 C26.391,15.027 26.236,16.887 24.727,17.976 C24.572,17.62 24.344,17.248 24.024,16.956 C23.885,16.329 23.476,15.468 22.615,15.213 C22.486,14.889 22.226,14.423 21.728,14.174 C21.258,13.94 20.714,13.961 20.111,14.235 C19.381,14.32 18.88,14.604 18.615,15.08 C18.366,15.529 18.41,16.018 18.494,16.35 C17.88,17.006 17.851,17.979 17.867,18.359 C17.502,19.235 17.707,20.259 17.822,20.684 C17.387,21.874 17.812,23.03 17.982,23.413 C17.982,23.516 17.988,23.615 17.993,23.713 C16.565,22.15 13.316,20.216 12.075,19.478 C12.017,19.443 11.944,19.451 11.894,19.499 C11.831,19.557 11.828,19.653 11.886,19.716 C14.655,22.416 17.125,25.748 19.497,32.662 C20.68,31.432 22.819,29.813 25.864,29.813 L29.425,29.813 C27.163,21.385 30.457,18.369 27.388,14.5 Z M44.224,18.858 C43.573,18.688 39.416,17.952 34.758,26.521 C35.437,23.33 37.503,19.469 38.07,18.348 L38.07,18.34 C38.104,18.276 38.085,18.194 38.028,18.149 C37.97,18.106 37.883,18.12 37.839,18.183 C34.76,23.317 33.679,26.274 33.042,29.813 L34.97,29.813 C35.298,26.402 39.607,18.364 44.2,18.962 L44.206,18.962 C44.232,18.967 44.255,18.946 44.258,18.922 C44.269,18.893 44.25,18.864 44.224,18.858 Z M34.962,47.091 L33.92,42.735 L32.146,42.735 C32.427,43.841 32.829,44.965 33.349,45.95 C33.382,46.009 33.445,46.044 33.508,46.033 C33.592,46.022 33.658,45.935 33.642,45.844 C33.521,44.922 33.377,44.032 33.241,43.145 C33.616,44.539 34.123,45.902 34.805,47.157 C34.823,47.196 34.863,47.215 34.899,47.202 C34.949,47.191 34.976,47.139 34.962,47.091 Z M36.755,45.113 C36.574,44.386 36.385,43.492 36.222,42.735 L35.548,42.735 C35.81,43.543 36.165,44.444 36.479,45.215 C36.511,45.289 36.582,45.326 36.65,45.308 C36.731,45.283 36.776,45.196 36.755,45.113 Z M36.98,47.675 L36.975,47.664 C36.757,47.056 36.456,46.511 36.217,45.927 C35.962,45.342 35.715,44.768 35.511,44.168 C35.34,43.719 35.159,43.203 35.02,42.735 L34.369,42.735 C34.553,43.28 34.792,43.867 35.015,44.394 C35.505,45.581 36.073,46.745 36.794,47.786 C36.82,47.824 36.87,47.84 36.917,47.821 C36.975,47.8 37.001,47.733 36.98,47.675 Z M37.954,26.774 C37.904,26.7 37.784,26.684 37.726,26.745 C36.542,27.994 35.826,29.322 35.579,29.813 L36.283,29.813 C36.634,28.987 37.427,27.528 37.936,27.003 L37.941,26.997 C37.994,26.938 38.004,26.84 37.954,26.774 Z M32.601,20.729 C33.251,19.661 34.217,18.842 35.036,17.854 C35.065,17.816 35.062,17.758 35.028,17.726 C34.997,17.692 34.944,17.692 34.91,17.724 C34.724,17.923 34.529,18.109 34.33,18.295 C34.243,18.252 34.023,18.337 33.8,18.513 C33.624,18.651 33.498,18.805 33.453,18.916 C33.34,18.89 33.128,19.023 32.937,19.268 C32.779,19.472 32.687,19.688 32.689,19.82 C32.569,19.831 32.393,19.985 32.244,20.229 C32.146,20.392 32.083,20.548 32.062,20.678 C31.965,20.745 31.855,20.87 31.753,21.032 C31.619,21.255 31.551,21.481 31.572,21.611 C31.54,21.667 31.509,21.72 31.482,21.776 C31.488,21.73 31.493,21.688 31.498,21.643 C31.69,20.131 31.968,18.632 32.391,17.187 C32.815,15.747 33.325,14.294 34.199,13.127 L34.204,13.122 C34.249,13.058 34.243,12.97 34.188,12.912 C34.133,12.851 34.041,12.848 33.983,12.909 C33.682,13.23 33.427,13.589 33.199,13.958 C33.099,13.905 32.889,14.102 32.729,14.41 C32.582,14.689 32.53,14.947 32.584,15.046 C32.584,15.046 32.582,15.053 32.577,15.051 C32.472,15.005 32.278,15.239 32.16,15.553 C32.044,15.848 32.023,16.119 32.102,16.209 C32.097,16.214 32.097,16.217 32.094,16.222 C31.976,16.18 31.784,16.448 31.666,16.828 C31.569,17.15 31.559,17.429 31.629,17.541 C31.635,17.545 31.629,17.559 31.624,17.556 C31.503,17.514 31.32,17.79 31.212,18.167 C31.104,18.531 31.112,18.853 31.215,18.916 C31.097,18.903 30.931,19.18 30.845,19.554 C30.766,19.878 30.774,20.158 30.85,20.269 C30.734,20.304 30.606,20.575 30.54,20.925 C30.477,21.268 30.509,21.553 30.593,21.643 C30.485,21.699 30.375,21.978 30.335,22.323 C30.296,22.666 30.346,22.948 30.435,23.038 C30.346,23.139 30.259,23.378 30.223,23.665 C30.186,23.938 30.209,24.175 30.262,24.308 C30.165,24.391 30.091,24.667 30.089,24.999 C30.081,25.265 30.12,25.49 30.188,25.621 C30.136,25.753 30.1,25.948 30.1,26.163 C30.094,26.442 30.139,26.681 30.209,26.806 C30.188,27.786 30.202,28.831 30.254,29.813 L32.372,29.813 C32.388,29.048 32.437,28.214 32.514,27.457 C32.664,26.107 32.886,24.736 33.561,23.583 L33.566,23.575 C33.587,23.532 33.584,23.484 33.553,23.447 C33.514,23.413 33.458,23.413 33.422,23.455 C32.506,24.518 32.104,25.961 31.868,27.345 C31.826,27.616 31.792,27.89 31.761,28.161 C31.818,27.05 31.921,25.945 32.175,24.893 C32.467,23.612 33.049,22.392 34.159,21.709 C34.193,21.688 34.212,21.643 34.199,21.598 C34.185,21.547 34.133,21.518 34.088,21.531 C34.018,21.553 33.952,21.59 33.884,21.619 C33.81,21.529 33.54,21.595 33.262,21.773 C32.997,21.946 32.821,22.158 32.839,22.275 C32.839,22.281 32.826,22.289 32.826,22.278 C32.824,22.265 32.821,22.251 32.813,22.244 C32.713,22.161 32.446,22.347 32.22,22.663 C31.992,22.979 31.902,23.309 31.999,23.394 C32.005,23.396 32.002,23.405 31.997,23.405 C31.879,23.357 31.682,23.625 31.559,24 C31.469,24.263 31.448,24.505 31.48,24.643 C31.48,24.648 31.475,24.653 31.475,24.653 C31.383,24.957 31.307,25.262 31.236,25.573 C31.262,25.134 31.301,24.693 31.364,24.258 C31.551,23.003 31.929,21.776 32.601,20.729 Z M39.264,17.232 C39.13,17.168 38.954,17.152 38.778,17.195 C38.647,17.227 38.542,17.291 38.453,17.365 C38.466,17.253 38.466,17.142 38.435,17.02 C38.393,16.828 38.298,16.671 38.183,16.57 C37.61,15.999 38.004,14.28 37.87,14.259 C37.739,14.24 37.786,15.954 37.516,16.756 C37.461,16.905 37.45,17.094 37.498,17.285 C37.545,17.474 37.639,17.633 37.757,17.737 C37.87,17.835 38.007,17.88 38.135,17.84 C38.169,17.835 38.204,17.819 38.232,17.798 C38.232,17.819 38.232,17.84 38.235,17.862 C38.264,18.002 38.364,18.112 38.5,18.175 C38.639,18.242 38.81,18.258 38.988,18.212 C39.169,18.17 39.319,18.072 39.416,17.952 C39.954,17.328 41.219,16.437 41.143,16.318 C41.067,16.201 39.999,17.514 39.264,17.232 Z M41.71,15.066 C41.628,14.95 40.615,16.132 39.925,15.837 C39.794,15.77 39.634,15.752 39.474,15.794 C39.385,15.821 39.309,15.869 39.238,15.927 C39.235,15.879 39.238,15.837 39.227,15.794 C39.185,15.622 39.091,15.486 38.973,15.396 C38.395,14.891 38.849,13.355 38.713,13.339 C38.574,13.323 38.576,14.851 38.277,15.569 C38.214,15.702 38.196,15.866 38.24,16.036 C38.282,16.207 38.377,16.347 38.495,16.437 C38.613,16.522 38.752,16.562 38.889,16.531 C38.949,16.515 39.001,16.483 39.048,16.448 C39.048,16.456 39.046,16.467 39.048,16.475 C39.091,16.621 39.19,16.735 39.319,16.802 C39.45,16.863 39.61,16.884 39.765,16.839 C39.925,16.796 40.051,16.698 40.13,16.579 C40.558,15.938 41.791,15.189 41.71,15.066 Z M41.959,13.587 C41.87,13.494 41.143,14.71 40.484,14.564 C40.361,14.53 40.216,14.538 40.085,14.604 C40.02,14.631 39.964,14.676 39.917,14.721 C39.917,14.692 39.925,14.663 39.925,14.631 C39.91,14.477 39.846,14.333 39.754,14.237 C39.311,13.695 39.928,12.412 39.81,12.372 C39.689,12.337 39.479,13.688 39.112,14.275 C39.038,14.386 39.001,14.53 39.017,14.687 C39.028,14.843 39.093,14.984 39.185,15.083 C39.279,15.181 39.395,15.234 39.521,15.226 C39.615,15.223 39.697,15.173 39.765,15.106 C39.765,15.16 39.775,15.218 39.802,15.274 C39.859,15.396 39.962,15.481 40.088,15.516 C40.211,15.556 40.358,15.545 40.489,15.481 C40.623,15.415 40.72,15.308 40.773,15.189 C41.062,14.548 42.046,13.68 41.959,13.587 Z M41.523,11.896 C41.374,11.79 40.899,12.973 40.334,13.281 C40.229,13.337 40.13,13.438 40.059,13.576 C39.988,13.717 39.962,13.865 39.98,13.99 C39.993,14.115 40.051,14.222 40.143,14.275 C40.237,14.331 40.35,14.328 40.458,14.272 C40.568,14.216 40.665,14.115 40.739,13.975 C40.807,13.837 40.833,13.688 40.817,13.562 C40.775,12.893 41.628,11.963 41.523,11.896 Z M31.165,42.735 L25.221,42.735 C24.816,42.735 24.452,42.703 24.116,42.643 C24.118,42.643 24.118,42.645 24.118,42.645 C25.095,44.096 26.625,45.196 28.176,45.935 C28.415,47.258 28.714,48.482 28.821,48.578 C28.932,48.674 30.454,48.235 30.501,48.095 C30.545,47.954 29.879,45.687 29.879,45.687 C30.679,44.313 30.926,43.503 31.165,42.735 Z M46.119,52.904 C44.618,53.497 42.66,53.547 41.062,53.122 C37.4,51.982 33.335,49.822 29.433,51.615 C25.53,49.822 21.465,51.982 17.804,53.122 C16.206,53.547 14.248,53.497 12.747,52.904 C12.705,52.889 12.673,52.941 12.71,52.971 C14.87,54.642 17.896,55.41 20.62,54.427 C23.236,53.611 25.449,50.84 28.548,52.022 C26.095,52.981 23.801,54.751 22.029,56.422 L23.318,57.479 C24.927,55.606 26.737,53.733 28.787,52.594 C29.068,52.429 29.236,52.362 29.433,52.352 C29.629,52.362 29.797,52.429 30.076,52.594 C32.128,53.733 33.939,55.606 35.548,57.479 L36.836,56.422 C35.065,54.751 32.771,52.981 30.317,52.022 C33.417,50.84 35.629,53.611 38.246,54.427 C40.97,55.41 43.996,54.642 46.155,52.971 C46.189,52.941 46.161,52.889 46.119,52.904 Z M21.99,50.38 C18.164,49.452 17.116,45.865 13.917,44.309 C13.883,44.29 13.847,44.33 13.867,44.361 C14.875,46.02 15.421,48.56 18.326,50.125 C18.35,50.138 18.337,50.176 18.31,50.167 C14.143,49.365 12.393,50.48 8.025,48.507 C7.989,48.49 7.949,48.53 7.973,48.565 C9.409,50.648 12.815,52.072 17.481,51.68 C19.161,51.536 20.378,50.829 21.99,50.452 C22.029,50.441 22.029,50.388 21.99,50.38 Z M13.975,48.18 C12.521,46.274 12.935,42.207 9.653,38.484 C9.626,38.455 9.579,38.479 9.587,38.516 C10.214,41.258 10.028,44.372 11.744,46.654 C11.76,46.679 11.736,46.702 11.713,46.687 C8.327,44.021 4.847,43.219 3.299,41.062 C3.275,41.032 3.228,41.048 3.233,41.085 C3.617,43.878 8.981,48.23 13.946,48.238 C13.975,48.238 13.994,48.204 13.975,48.18 Z M8.892,43.115 C7.332,40.225 9.196,35.813 7.427,31.527 C7.409,31.482 7.34,31.493 7.34,31.541 C7.288,33.882 5.834,37.376 6.713,40.015 C6.724,40.038 6.692,40.052 6.679,40.03 C4.44,36.76 2.664,36.076 1.184,33.082 C1.163,33.037 1.094,33.05 1.092,33.098 C0.998,35.133 1.897,36.791 2.913,38.332 C4.538,40.418 6.629,42.068 8.842,43.168 C8.876,43.185 8.907,43.149 8.892,43.115 Z M7.834,25.509 C7.831,25.461 7.768,25.445 7.745,25.488 C6.556,27.712 4.438,29.481 4.37,32.418 C4.367,32.447 4.335,32.449 4.331,32.423 C3.944,30.156 2.021,27.616 1.937,24.334 C1.937,24.284 1.866,24.271 1.848,24.319 C0.265,28.586 2.541,32.633 4.963,35.976 C4.989,36.01 5.041,35.989 5.041,35.943 C4.942,32.401 8.012,29.758 7.834,25.509 Z M9.346,19.987 C8.222,21.547 5.695,22.65 4.771,24.9 C4.758,24.933 4.719,24.924 4.724,24.887 C5.091,22.366 4.118,19.437 5.031,16.087 C5.044,16.039 4.984,16.007 4.955,16.044 C3.575,17.742 3.107,19.732 3.031,21.882 C2.937,24.523 3.866,26.45 4.325,28.241 C4.335,28.283 4.391,28.28 4.401,28.238 C5.063,25.889 8.382,24.476 9.422,20.025 C9.435,19.977 9.374,19.948 9.346,19.987 Z M12.393,14.742 C10.545,16.19 7.724,17.585 7.118,18.593 C7.107,18.614 7.076,18.598 7.081,18.577 L7.766,15.29 C8.073,13.895 8.338,12.558 9.109,11.309 C9.133,11.272 9.088,11.229 9.054,11.256 C5.538,14.041 6.052,18.069 5.897,21.367 C5.894,21.401 5.936,21.417 5.96,21.393 C8.031,19.148 11.406,17.84 12.45,14.788 C12.463,14.751 12.424,14.718 12.393,14.742 Z M15.009,9.694 C11.902,9.792 9.619,12.409 8.64,15.741 C8.634,15.76 8.661,15.776 8.676,15.765 C12.956,12.627 12.718,11.283 15.035,9.79 C15.077,9.763 15.059,9.694 15.009,9.694 Z M50.837,48.507 C46.473,50.48 44.72,49.365 40.552,50.167 C40.526,50.176 40.513,50.138 40.537,50.125 C43.442,48.56 43.988,46.02 44.996,44.361 C45.017,44.33 44.979,44.29 44.946,44.309 C41.749,45.865 40.702,49.452 36.873,50.38 C36.833,50.388 36.833,50.441 36.873,50.452 C38.484,50.829 39.702,51.536 41.382,51.68 C46.048,52.072 49.457,50.648 50.89,48.565 C50.914,48.53 50.874,48.49 50.837,48.507 Z M55.564,41.062 C54.016,43.219 50.536,44.021 47.15,46.687 C47.129,46.702 47.103,46.679 47.121,46.654 C48.835,44.372 48.648,41.258 49.276,38.516 C49.284,38.479 49.236,38.455 49.21,38.484 C45.93,42.207 46.342,46.274 44.891,48.18 C44.872,48.204 44.888,48.238 44.919,48.238 C49.885,48.23 55.247,43.878 55.629,41.085 C55.635,41.048 55.587,41.032 55.564,41.062 Z M57.771,33.098 C57.769,33.05 57.7,33.037 57.679,33.082 C56.199,36.076 54.422,36.76 52.187,40.03 C52.17,40.052 52.142,40.038 52.149,40.015 C53.029,37.376 51.578,33.882 51.522,31.541 C51.522,31.493 51.454,31.482 51.436,31.527 C49.667,35.813 51.53,40.225 49.974,43.115 C49.956,43.149 49.987,43.185 50.021,43.168 C52.233,42.068 54.325,40.418 55.95,38.332 C56.965,36.791 57.866,35.133 57.771,33.098 Z M57.015,24.319 C56.997,24.271 56.926,24.284 56.926,24.334 C56.842,27.616 54.918,30.156 54.533,32.423 C54.527,32.449 54.496,32.447 54.496,32.418 C54.428,29.481 52.307,27.712 51.118,25.488 C51.095,25.445 51.032,25.461 51.032,25.509 C50.853,29.758 53.921,32.401 53.821,35.943 C53.821,35.989 53.876,36.01 53.903,35.976 C56.322,32.633 58.598,28.586 57.015,24.319 Z M55.832,21.882 C55.755,19.732 55.289,17.742 53.908,16.044 C53.879,16.007 53.821,16.039 53.832,16.087 C54.745,19.437 53.771,22.366 54.142,24.887 C54.147,24.924 54.105,24.933 54.092,24.9 C53.168,22.65 50.641,21.547 49.518,19.987 C49.491,19.948 49.431,19.977 49.441,20.025 C50.48,24.476 53.8,25.889 54.462,28.238 C54.472,28.28 54.527,28.283 54.538,28.241 C54.997,26.45 55.926,24.523 55.832,21.882 Z M49.809,11.256 C49.774,11.229 49.73,11.272 49.753,11.309 C50.525,12.558 50.79,13.895 51.097,15.29 L51.782,18.577 C51.788,18.598 51.756,18.614 51.746,18.593 C51.139,17.585 48.321,16.19 46.47,14.742 C46.441,14.718 46.399,14.751 46.413,14.788 C47.457,17.84 50.832,19.148 52.903,21.393 C52.926,21.417 52.968,21.401 52.966,21.367 C52.811,18.069 53.325,14.041 49.809,11.256 Z M43.854,9.694 C43.804,9.694 43.788,9.763 43.828,9.79 C46.145,11.283 45.906,12.627 50.187,15.765 C50.205,15.776 50.229,15.76 50.223,15.741 C49.245,12.409 46.961,9.792 43.854,9.694 Z" id="Fill-1"></path>
            <path d="M4.176,70.364 L3.94,69.142 C3.828,69.318 3.632,69.545 3.354,69.822 C3.214,69.888 3.049,70.008 2.858,70.184 L4.176,70.364 Z M6.563,72.476 L5.219,72.476 C4.941,72.476 4.728,72.3 4.58,71.948 C4.493,71.651 4.406,71.355 4.319,71.059 C4.258,71.106 4.128,71.322 3.928,71.712 C3.745,72.045 3.597,72.198 3.484,72.171 L1.123,71.726 C1.314,70.911 1.488,70.351 1.645,70.045 C1.801,69.739 2.044,69.476 2.375,69.253 C2.844,68.966 3.319,68.679 3.797,68.392 C3.736,68.243 3.693,68.104 3.667,67.976 L4.449,66.544 L4.515,66.586 C4.593,66.91 4.715,67.606 4.88,68.674 C5.028,69.592 5.163,70.246 5.285,70.637 C5.354,70.85 5.559,70.956 5.897,70.956 L6.563,70.956 L6.563,72.476 Z M4.215,66.227 C4.154,66.337 4.028,66.513 3.836,66.753 C3.619,67.021 3.484,67.155 3.432,67.155 C3.319,67.155 2.962,66.961 2.362,66.571 C2.275,66.637 2.075,66.822 1.762,67.127 C1.501,67.044 1.14,66.846 0.679,66.531 C0.757,66.421 1.014,66.11 1.449,65.602 C1.953,65.989 2.279,66.183 2.427,66.183 C2.418,66.183 2.649,65.989 3.119,65.602 L4.215,66.227 Z" id="Fill-2"></path>
            <path d="M6.265,74.373 C6.474,74.055 6.709,73.742 6.97,73.435 C7.483,73.823 7.792,74.019 7.897,74.019 C7.958,74.019 8.069,73.922 8.23,73.732 C8.391,73.541 8.498,73.432 8.55,73.404 L9.579,74.088 C9.309,74.531 9.057,74.85 8.822,75.045 L7.844,74.435 C7.713,74.558 7.518,74.761 7.257,75.045 C6.805,74.792 6.474,74.568 6.265,74.373 M10.179,70.307 C10.179,70.687 10.082,71.41 9.892,72.476 L6.108,72.476 L6.108,70.956 L9.24,70.956 C9.075,70.454 8.805,69.934 8.431,69.394 L9.174,68.026 C9.844,68.879 10.179,69.64 10.179,70.307" id="Fill-3"></path>
            <path d="M13.225,66.611 C13.129,66.742 12.981,66.895 12.781,67.069 C12.546,67.273 12.376,67.375 12.272,67.375 C12.089,67.375 11.785,67.13 11.359,66.64 C11.411,66.538 11.557,66.358 11.796,66.099 C12.035,65.84 12.194,65.711 12.272,65.711 C12.342,65.711 12.659,66.012 13.225,66.611 M16.069,72.476 L14.621,72.476 C14.533,72.438 14.455,72.314 14.385,72.101 C14.333,71.935 14.281,71.772 14.229,71.614 C14.194,71.651 14.099,71.813 13.942,72.101 C13.82,72.352 13.724,72.476 13.655,72.476 L10.889,72.476 C10.698,72.476 10.602,72.337 10.602,72.059 C10.602,71.726 10.659,71.286 10.771,70.739 C10.919,70.055 11.089,69.697 11.281,69.67 C11.263,69.855 11.255,70.067 11.255,70.309 C11.255,70.717 11.315,70.92 11.437,70.92 L14.007,70.92 L14.034,70.796 L13.512,68.545 C13.572,68.304 13.681,68.03 13.838,67.725 C13.977,67.456 14.116,67.192 14.255,66.933 C14.594,68.45 14.877,69.601 15.104,70.382 C15.216,70.741 15.316,70.92 15.403,70.92 L16.069,70.92 L16.069,72.476" id="Fill-4"></path>
            <path d="M19.473,66.741 C19.464,66.898 19.138,67.171 18.495,67.558 C18.416,67.54 18.238,67.415 17.959,67.186 C17.681,66.954 17.542,66.807 17.542,66.741 C17.542,66.659 17.855,66.346 18.481,65.801 C18.577,65.819 18.908,66.134 19.473,66.741 M21.782,70.956 L20.934,72.476 L15.559,72.476 L15.559,70.956 L16.524,70.956 C16.516,70.762 16.542,70.492 16.603,70.148 C16.82,69.713 17.181,69.281 17.686,68.854 C18.242,68.397 18.729,68.171 19.147,68.171 C19.582,68.171 20.005,68.397 20.419,68.852 C20.832,69.305 21.03,69.763 21.013,70.225 C20.517,69.761 19.869,69.527 19.069,69.527 C18.32,69.527 17.838,69.628 17.62,69.828 C18.012,70.295 18.434,70.671 18.886,70.956 L21.782,70.956" id="Fill-5"></path>
            <path d="M24.112,65.043 C24.068,65.154 23.977,65.299 23.838,65.477 C23.481,65.468 23.007,65.654 22.416,66.036 C22.425,65.952 22.494,65.85 22.625,65.729 C22.729,65.646 22.833,65.562 22.938,65.478 C22.825,65.44 22.712,65.403 22.599,65.366 C22.442,65.301 22.364,65.24 22.364,65.185 C22.364,64.933 22.462,64.695 22.657,64.472 C22.853,64.249 23.068,64.137 23.303,64.137 C23.381,64.137 23.466,64.162 23.558,64.214 C23.649,64.266 23.695,64.333 23.695,64.417 C23.695,64.407 23.612,64.528 23.447,64.779 C23.185,64.629 23.064,64.553 23.081,64.553 C23.038,64.553 22.92,64.613 22.729,64.735 C22.816,64.94 23.277,65.043 24.112,65.043" id="Fill-6"></path>
            <path d="M26.379,71.138 C26.316,71 26.205,70.808 26.045,70.559 C25.92,70.696 25.72,70.881 25.444,71.11 C25.675,71.128 25.934,71.138 26.218,71.138 L26.379,71.138 Z M28.361,66.804 C28.369,66.841 28.375,66.903 28.38,66.991 C28.384,67.08 28.387,67.147 28.387,67.194 C28.387,67.342 28.326,67.515 28.205,67.71 C28.101,67.858 27.997,68.012 27.893,68.17 C27.754,68.132 27.632,68.095 27.529,68.059 C27.381,68.744 27.104,69.323 26.696,69.795 C27.01,70.452 27.166,70.98 27.166,71.378 C27.166,71.61 27.131,71.977 27.062,72.476 L23.644,72.476 C23.748,72.143 23.922,71.648 24.166,70.989 C24.513,70.859 24.788,70.739 24.987,70.629 C25.396,70.425 25.609,70.239 25.626,70.072 C25.557,69.952 25.401,69.758 25.157,69.489 C24.888,69.184 24.713,69.03 24.635,69.03 C24.609,69.03 24.554,69.093 24.472,69.218 C24.389,69.343 24.331,69.411 24.296,69.42 C23.913,69.207 23.356,68.879 22.626,68.436 C22.33,68.232 22.182,67.964 22.182,67.631 C22.182,67.271 22.365,66.738 22.73,66.036 L22.769,66.036 C23.186,66.027 23.843,66.452 24.74,67.312 C25.505,68.061 26.048,68.698 26.37,69.225 C26.588,68.891 26.696,68.492 26.696,68.027 C26.696,67.851 26.644,67.656 26.538,67.442 C26.432,67.229 26.379,67.137 26.379,67.164 C26.379,67.034 26.693,66.538 27.323,65.675 C27.314,65.721 27.31,65.763 27.31,65.8 C27.31,66.022 27.443,66.228 27.711,66.413 C27.928,66.544 28.144,66.674 28.361,66.804 Z" id="Fill-7"></path>
            <path d="M30.451,70.222 C30.451,71.167 30.199,71.954 29.694,72.584 L29.107,68.109 C29.272,67.601 29.594,66.994 30.073,66.289 C30.325,68.096 30.451,69.407 30.451,70.222" id="Fill-8"></path>
            <path d="M36.407,72.823 C36.042,73.462 35.798,73.782 35.677,73.782 C35.633,73.782 35.479,73.661 35.214,73.421 C34.949,73.179 34.816,73.04 34.816,73.004 C34.816,72.92 34.911,72.751 35.102,72.496 C35.294,72.242 35.433,72.114 35.52,72.114 C35.599,72.114 35.764,72.214 36.016,72.413 C36.268,72.611 36.398,72.748 36.407,72.823 M38.86,74.796 C38.416,75.625 37.502,76.039 36.118,76.039 C35.326,76.039 34.677,75.854 34.172,75.484 C33.588,75.068 33.297,74.459 33.297,73.653 C33.297,73.017 33.452,72.363 33.762,71.692 C34.071,71.022 34.466,70.488 34.946,70.091 C34.841,70.017 34.572,69.979 34.137,69.979 C33.92,69.979 33.73,70.037 33.569,70.151 C33.409,70.267 33.246,70.384 33.081,70.503 C33.254,69.812 33.372,69.392 33.433,69.243 C33.641,68.746 33.937,68.496 34.32,68.496 C34.572,68.496 34.946,68.557 35.441,68.677 C35.938,68.798 36.281,68.858 36.473,68.858 L38.338,68.858 C38.225,69.163 38.039,69.622 37.777,70.233 C37.603,70.242 37.338,70.266 36.981,70.304 C36.93,70.352 36.903,70.413 36.903,70.488 C36.903,70.801 37.185,70.956 37.75,70.956 L38.779,70.956 L38.779,72.476 L37.368,72.476 C37.011,72.476 36.725,72.363 36.512,72.136 C36.298,71.908 36.192,71.605 36.192,71.226 C36.192,71.115 36.225,70.967 36.293,70.781 C36.36,70.596 36.398,70.466 36.407,70.393 C36.302,70.41 36.149,70.447 35.948,70.503 C35.485,70.688 35.061,70.994 34.677,71.42 C34.24,71.901 34.021,72.379 34.021,72.851 C34.021,74.157 35.355,74.81 38.023,74.81 C38.215,74.81 38.495,74.805 38.86,74.796" id="Fill-9"></path>
            <path d="M41.964,70.447 C41.929,70.281 41.843,70.059 41.704,69.78 L41.625,69.767 C41.459,69.767 41.259,69.851 41.025,70.017 L41.964,70.447 Z M43.282,70.835 C43.282,71.02 43.173,71.299 42.956,71.67 C42.79,71.939 42.629,72.207 42.473,72.476 C42.456,72.383 41.742,72.059 40.333,71.504 C40.255,71.55 40.145,71.724 40.006,72.025 C39.868,72.325 39.75,72.476 39.655,72.476 L38.555,72.476 L38.555,70.956 L39.785,70.956 C39.846,70.901 39.99,70.589 40.216,70.021 C40.355,69.668 40.665,69.307 41.148,68.939 C41.631,68.572 42.047,68.388 42.394,68.388 C42.578,68.388 42.694,68.463 42.747,68.61 C42.773,68.768 42.804,68.926 42.838,69.083 C42.934,69.38 43.025,69.672 43.112,69.959 C43.225,70.312 43.282,70.604 43.282,70.835 Z" id="Fill-10"></path>
            <path d="M46.651,72.476 L44.661,72.476 L44.209,67.029 C44.209,66.964 44.338,66.751 44.6,66.391 C44.844,66.057 45.009,65.849 45.096,65.765 C45.148,66.609 45.201,67.454 45.253,68.298 C45.331,69.431 45.428,70.242 45.54,70.733 C45.566,70.882 45.706,70.956 45.958,70.956 L46.651,70.956 L46.651,72.476" id="Fill-11"></path>
            <path d="M48.602,66.665 C48.558,66.768 48.267,67.13 47.727,67.753 C47.449,67.576 47.018,67.357 46.436,67.098 L47.441,65.982 C47.684,66.158 48.071,66.387 48.602,66.665 M49.334,70.434 C49.334,70.795 49.238,71.476 49.048,72.476 L46.097,72.476 L46.097,70.956 L48.419,70.956 C48.236,70.428 47.966,69.902 47.609,69.382 L48.355,68.03 C48.686,68.503 48.916,68.873 49.047,69.142 C49.238,69.568 49.334,69.998 49.334,70.434" id="Fill-12"></path>
            <path d="M54.668,72.476 L53.715,72.476 C53.593,72.476 53.423,72.421 53.206,72.31 L53.141,72.393 C52.871,72.893 52.601,73.397 52.331,73.906 C51.931,74.509 51.492,74.81 51.012,74.81 C50.69,74.81 50.223,74.648 49.609,74.323 C48.996,73.999 48.572,73.698 48.336,73.421 L48.336,73.24 C48.336,73.221 48.358,73.212 48.402,73.212 C48.376,73.212 48.52,73.304 48.832,73.486 C49.145,73.669 49.422,73.76 49.666,73.76 C50.039,73.76 50.586,73.503 51.308,72.989 C52.028,72.476 52.389,72.057 52.389,71.733 C52.389,71.575 52.264,71.322 52.013,70.976 C51.763,70.629 51.638,70.445 51.638,70.427 C51.638,70.371 51.744,70.158 51.958,69.787 C52.171,69.418 52.312,69.187 52.382,69.093 C52.643,69.514 52.905,69.935 53.165,70.354 C53.462,70.756 53.88,70.956 54.42,70.956 L54.668,70.956 L54.668,72.476" id="Fill-13"></path>
            <path d="M56.846,74.244 C56.846,74.393 56.507,74.671 55.83,75.081 C55.751,75.071 55.566,74.941 55.275,74.69 C54.984,74.44 54.838,74.286 54.838,74.23 C54.838,74.174 54.989,73.993 55.289,73.687 C55.588,73.379 55.764,73.226 55.816,73.226 C55.868,73.226 56.054,73.379 56.37,73.687 C56.688,73.993 56.846,74.179 56.846,74.244 M57.914,70.378 C57.914,71.776 57.784,72.476 57.522,72.476 L54.259,72.476 L54.259,70.956 L56.942,70.956 C56.95,70.956 56.955,70.942 56.955,70.915 C56.955,70.72 56.858,70.445 56.665,70.092 C56.472,69.738 56.297,69.493 56.139,69.354 L56.908,67.918 C57.213,68.187 57.456,68.553 57.64,69.016 C57.822,69.479 57.914,69.933 57.914,70.378" id="Fill-14"></path>
            <path d="M6.652,85.569 C6.652,85.616 6.514,85.76 6.238,86 C6.004,86.194 5.829,86.334 5.711,86.417 L4.499,85.86 C4.351,85.971 4.133,86.138 3.846,86.36 C3.697,86.351 3.282,86.171 2.602,85.818 C2.655,85.717 2.793,85.563 3.017,85.36 C3.176,85.222 3.341,85.082 3.511,84.943 C4.117,85.313 4.478,85.499 4.595,85.499 C4.627,85.499 4.755,85.401 4.978,85.207 C5.201,85.013 5.334,84.916 5.377,84.916 L6.652,85.569 Z M18.907,82.817 L8.662,82.817 C8.47,83.104 8.273,83.39 8.071,83.677 C7.827,84.008 7.566,84.248 7.29,84.396 C7.173,84.461 6.95,84.549 6.62,84.659 C6.291,84.771 6.067,84.825 5.951,84.825 C5.982,84.825 5.786,84.735 5.361,84.555 C5.233,84.683 5.105,84.812 4.978,84.94 C4.861,85.032 4.669,85.079 4.404,85.079 C4.287,85.079 4.133,85.01 3.941,84.872 C3.814,84.762 3.681,84.655 3.543,84.555 C3.149,84.832 2.963,84.972 2.985,84.972 C2.921,84.972 2.756,84.925 2.491,84.832 C1.65,84.572 1.23,84.062 1.23,83.303 C1.23,82.746 1.48,82.12 1.98,81.425 C2.448,80.767 2.968,80.267 3.543,79.923 L3.718,79.923 C3.739,79.942 3.75,79.975 3.75,80.021 C3.75,80.076 3.628,80.225 3.385,80.465 C3.078,80.77 2.855,81.028 2.718,81.241 C2.474,81.592 2.353,81.944 2.353,82.295 C2.353,82.767 2.634,83.127 3.196,83.377 C3.643,83.57 4.163,83.668 4.757,83.668 C5.49,83.668 6.361,83.533 7.37,83.266 C7.093,82.95 6.684,82.761 6.143,82.696 C5.664,82.659 5.185,82.622 4.707,82.585 C4.749,82.446 5.063,82.012 5.648,81.28 L18.907,81.28 L18.907,82.817 Z" id="Fill-15"></path>
            <path d="M22.455,81.28 L22.455,80.979 C22.455,80.758 22.301,80.648 21.993,80.648 C21.759,80.648 21.573,80.695 21.435,80.791 C21.604,80.887 21.769,80.983 21.929,81.079 C22.163,81.203 22.338,81.271 22.455,81.28 M24.911,82.818 L23.731,82.818 C23.667,82.873 23.59,82.989 23.5,83.168 C23.409,83.347 23.3,83.459 23.173,83.505 L20.079,82.012 C20.026,82.049 19.941,82.211 19.824,82.498 C19.729,82.712 19.58,82.818 19.377,82.818 L18.277,82.818 L18.277,81.28 L19.919,81.28 C19.994,81.234 20.119,81.066 20.295,80.776 C20.47,80.485 20.611,80.294 20.717,80.202 C20.994,79.963 21.342,79.751 21.761,79.567 C22.182,79.383 22.566,79.291 22.917,79.291 C23.088,79.291 23.202,79.312 23.26,79.353 C23.319,79.395 23.353,79.475 23.364,79.595 C23.353,79.907 23.444,80.248 23.635,80.616 C23.858,81.06 24.135,81.28 24.464,81.28 L24.911,81.28 L24.911,82.818" id="Fill-16"></path>
            <path d="M30.887,77.684 L29.643,79.086 L29.832,80.958 C29.853,81.079 29.805,81.375 29.689,81.847 C29.572,82.318 29.477,82.596 29.402,82.679 C29.38,82.707 29.296,82.753 29.147,82.817 L24.534,82.817 L24.534,81.28 L28.699,81.28 C28.731,81.233 28.747,81.188 28.747,81.142 C28.747,80.883 28.678,80.369 28.54,79.598 C28.402,78.828 28.286,78.341 28.19,78.138 C28.032,78.036 27.867,77.894 27.698,77.709 C28.112,76.951 28.49,76.412 28.83,76.089 L28.926,76.157 C28.936,76.343 28.968,76.495 29.021,76.616 C29.075,76.736 29.356,76.931 29.867,77.199 C30.26,77.411 30.6,77.573 30.887,77.684" id="Fill-17"></path>
            <path d="M40.008,82.817 L32.374,82.817 L31.813,77.371 C31.813,77.307 31.973,77.094 32.292,76.731 C32.59,76.398 32.792,76.19 32.899,76.107 C32.962,76.948 33.027,77.79 33.09,78.631 C33.186,79.76 33.302,80.567 33.441,81.059 C33.473,81.206 33.644,81.28 33.952,81.28 L40.008,81.28 L40.008,82.817" id="Fill-18"></path>
            <path d="M51.713,82.817 L43.642,82.817 C43.545,82.661 43.392,82.433 43.179,82.131 C43.073,82.286 42.902,82.515 42.669,82.817 L39.814,82.817 L39.814,81.28 L42.493,81.28 C42.164,80.882 41.749,80.684 41.25,80.684 C41.217,80.684 41.026,80.705 40.675,80.748 C41.037,80.045 41.313,79.6 41.504,79.415 C41.855,79.091 42.402,78.929 43.147,78.929 C43.593,78.929 44.035,79.057 44.47,79.313 C44.938,79.598 45.172,79.928 45.172,80.304 C45.172,80.433 45.103,80.598 44.965,80.799 C44.858,80.954 44.748,81.115 44.629,81.28 L51.713,81.28 L51.713,82.817" id="Fill-19"></path>
            <path d="M55.22,77.684 L53.976,79.086 L54.165,80.958 C54.186,81.079 54.138,81.375 54.021,81.847 C53.905,82.318 53.809,82.596 53.734,82.679 C53.713,82.707 53.629,82.753 53.479,82.817 L51.361,82.817 L51.361,81.28 L53.032,81.28 C53.063,81.233 53.079,81.188 53.079,81.142 C53.079,80.883 53.01,80.369 52.873,79.598 C52.735,78.828 52.619,78.341 52.523,78.138 C52.365,78.036 52.2,77.894 52.031,77.709 C52.445,76.951 52.822,76.412 53.163,76.089 L53.259,76.157 C53.269,76.343 53.301,76.495 53.354,76.616 C53.407,76.736 53.688,76.931 54.2,77.199 C54.593,77.411 54.933,77.573 55.22,77.684" id="Fill-20"></path>
            <path d="M58.184,80.564 C58.184,81.509 57.876,82.297 57.259,82.926 L56.541,78.451 C56.743,77.943 57.137,77.336 57.721,76.631 C58.03,78.438 58.184,79.749 58.184,80.564" id="Fill-21"></path>
        </g>
    </g>
</svg>