<svg xmlns="http://www.w3.org/2000/svg" width="41" height="29" viewBox="0 0 41 29">
  <path fill="#000000" d="M6.9,8.9 C6.9,8.9 6.9,8.9 6.9,8.9 C7.1,6.1 9.5,3.8 12.4,3.8 C13.3,3.8 14.1,4 14.8,4.4 C15.6,2.1 17.8,0.4 20.4,0.4 C23,0.4 25.2,2.1 26,4.4 C26.7,4 27.6,3.8 28.4,3.8 C31.3,3.8 33.6,6 33.9,8.9 C33.9,8.9 33.9,8.9 33.9,8.9 C37.2,8.9 39.8,11.5 39.8,14.8 L30.6,14.8 L28,14.8 L12.8,14.8 L10.2,14.8 L1,14.8 C1,11.6 3.6,8.9 6.9,8.9 Z M37.4,25.1 C35.4,27.1 32.7,28.3 29.7,28.3 L11.1,28.3 C5,28.3 0.1,23.4 0.1,17.3 L40.6,17.3 C40.6,20.4 39.4,23.1 37.4,25.1 Z"/>
</svg>
