<svg xmlns="http://www.w3.org/2000/svg" width="57" height="57" viewBox="0 0 57 57">
  <g fill="#000000" fill-rule="evenodd">
    <path fill-rule="nonzero" d="M54.4,0 L2.4,0 C1.1,0 0,1.1 0,2.4 L0,4.1 L0,52 L0,53.7 C0,55 1.1,56.1 2.4,56.1 L54.4,56.1 C55.7,56.1 56.8,55 56.8,53.7 L56.8,52 L56.8,4.1 L56.8,2.4 C56.8,1.1 55.7,0 54.4,0 Z M27.5,8.8 L29.9,8.8 C30.8,8.8 31.5,9.5 31.5,10.4 C31.5,9.5 32.2,8.8 33.1,8.8 L35.5,8.8 C36,8.8 36.4,9.3 36.3,9.7 L34.7,17.6 L31.5,17.6 L28.3,17.6 L26.7,9.7 C26.7,9.3 27,8.8 27.5,8.8 Z M19.5,10.5 L23.8,10.5 C24.6,10.5 25.2,11 25.4,11.8 L26.7,17.8 L20.3,17.8 L18.7,11.6 C18.6,10.9 19,10.5 19.5,10.5 Z M38.8,43.9 C36.8,46 34,47.3 30.8,47.3 L24.4,47.3 C21.2,47.3 18.4,46 16.4,43.9 C13.4,40.8 12.2,36.1 14.1,31.7 L20.4,19.3 L34.8,19.3 L41,31.7 C42.9,36.1 41.7,40.8 38.8,43.9 Z"/>
    <path d="M24.5,33.8 C24.3,34.8 24.2,35.5 24.1,35.9 C24.1,35.6 24,35.1 23.9,34.5 C23.8,33.9 23.7,33.3 23.5,32.8 L22.8,29.8 L20.8,29.8 L20.1,32.8 C20,33.2 19.9,33.8 19.8,34.4 C19.7,35 19.6,35.5 19.5,35.9 C19.4,35.4 19.3,34.7 19.1,33.8 L18.2,29.8 L16.1,29.8 L18.1,37.8 L20.7,37.8 C21.2,35.7 21.4,34.5 21.5,34.2 C21.6,33.9 21.6,33.6 21.7,33.2 C21.8,32.8 21.8,32.5 21.8,32.3 C21.8,32.6 21.9,33 22,33.4 C22.1,33.8 22.1,34.1 22.2,34.3 L23,37.8 L25.6,37.8 L27.6,29.8 L25.5,29.8 L24.5,33.8 Z"/>
    <polygon points="28.5 37.8 30.6 37.8 30.6 34.8 33 34.8 33 33 30.6 33 30.6 31.5 33.2 31.5 33.2 29.7 28.5 29.7"/>
    <path fill-rule="nonzero" d="M36.8,29.7 L34,29.7 L34,37.7 L36.2,37.7 L36.2,35 L36.8,35 C37.8,35 38.5,34.8 39.1,34.3 C39.6,33.8 39.9,33.1 39.9,32.2 C39.9,31.4 39.6,30.8 39.1,30.3 C38.5,30 37.8,29.7 36.8,29.7 Z M37.3,33.1 C37.1,33.3 36.8,33.4 36.5,33.4 L36.1,33.4 L36.1,31.6 L36.7,31.6 C37.3,31.6 37.6,31.9 37.6,32.4 C37.6,32.6 37.5,32.9 37.3,33.1 Z"/>
  </g>
</svg>
