<svg xmlns="http://www.w3.org/2000/svg" width="57" height="57" viewBox="0 0 57 57">
  <path fill="#000000" d="M54.4,0 L2.4,0 C1.1,0 0,1.1 0,2.4 L0,4.1 L0,52 L0,53.7 C0,55 1.1,56.1 2.4,56.1 L54.4,56.1 C55.7,56.1 56.8,55 56.8,53.7 L56.8,52 L56.8,4.1 L56.8,2.4 C56.8,1.1 55.7,0 54.4,0 Z M26,12 C26,10.7 27.1,9.6 28.4,9.6 C29.7,9.6 30.8,10.7 30.8,12 L30.8,20 C30.8,21.3 29.7,22.4 28.4,22.4 C27.1,22.4 26,21.3 26,20 L26,12 Z M9.9,10.3 C10.9,9.3 12.4,9.3 13.3,10.3 L23.6,20.6 C24.6,21.6 24.6,23.1 23.6,24 C22.6,25 21.1,25 20.2,24 L9.9,13.8 C8.9,12.8 8.9,11.3 9.9,10.3 Z M22,28.8 C22,30.1 20.9,31.2 19.6,31.2 L14.8,31.2 C13.5,31.2 12.4,30.1 12.4,28.8 C12.4,27.5 13.5,26.4 14.8,26.4 L19.6,26.4 C20.9,26.4 22,27.5 22,28.8 Z M23.7,36.8 L16.3,44.2 C15.4,45.1 13.9,45.1 13,44.2 C12.1,43.3 12.1,41.8 13,40.9 L20.4,33.5 C21.3,32.6 22.8,32.6 23.7,33.5 C24.6,34.4 24.6,35.9 23.7,36.8 Z M30.8,45.7 C30.8,47 29.7,48.1 28.4,48.1 C27.1,48.1 26,47 26,45.7 L26,37.7 C26,36.4 27.1,35.3 28.4,35.3 C29.7,35.3 30.8,36.4 30.8,37.7 L30.8,45.7 Z M28.4,32.8 C26.2,32.8 24.4,31 24.4,28.8 C24.4,26.6 26.2,24.8 28.4,24.8 C30.6,24.8 32.4,26.6 32.4,28.8 C32.4,31 30.6,32.8 28.4,32.8 Z M33.1,20.9 L35.7,18.3 C36.6,17.4 38.1,17.4 39,18.3 C39.9,19.2 39.9,20.7 39,21.6 L36.3,24.2 C35.4,25.1 34,25.1 33.1,24.2 C32.2,23.3 32.2,21.8 33.1,20.9 Z M40.5,40.9 C39.6,41.8 38.1,41.8 37.2,40.9 L33.1,36.8 C32.2,35.9 32.2,34.4 33.1,33.5 C34,32.6 35.5,32.6 36.4,33.5 L40.5,37.6 C41.4,38.6 41.4,40 40.5,40.9 Z M47.6,28.8 C47.6,30.1 46.5,31.2 45,31.2 L37.3,31.2 C35.9,31.2 34.7,30.1 34.7,28.8 C34.7,27.5 35.8,26.4 37.3,26.4 L45,26.4 C46.5,26.4 47.6,27.5 47.6,28.8 Z"/>
</svg>
