<svg xmlns="http://www.w3.org/2000/svg" width="57" height="57" viewBox="0 0 57 57">
  <path fill="#000000" d="M54.4,0 L2.4,0 C1.1,0 0,1.1 0,2.4 L0,4.1 L0,52 L0,53.7 C0,55 1.1,56.1 2.4,56.1 L54.4,56.1 C55.7,56.1 56.8,55 56.8,53.7 L56.8,52 L56.8,4.1 L56.8,2.4 C56.8,1.1 55.7,0 54.4,0 Z M34,43 L28.9,32.7 C28.8,32.4 28.4,32.5 28.4,32.8 L28.4,43 L9.2,43 L11.6,24.5 C11.7,24.1 11.9,23.7 12.2,23.4 L27.3,11.3 C27.9,10.8 28.8,10.8 29.4,11.3 L44.5,23.4 C44.8,23.7 45.1,24.1 45.1,24.5 L47.6,43 L34,43 Z"/>
</svg>
