<?xml version="1.0" encoding="utf-8"?>
<!-- Generated by IcoMoon.io -->
<!DOCTYPE svg PUBLIC "-//W3C//DTD SVG 1.1//EN" "http://www.w3.org/Graphics/SVG/1.1/DTD/svg11.dtd">
<svg version="1.1" xmlns="http://www.w3.org/2000/svg" xmlns:xlink="http://www.w3.org/1999/xlink" width="24" height="24" viewBox="0 0 24 24">
<path fill="#444444" d="M20.545 5.225l-1.385-1.68c-0.28-0.33-0.695-0.545-1.16-0.545h-12c-0.465 0-0.88 0.215-1.155 0.545l-1.385 1.68c-0.29 0.35-0.46 0.79-0.46 1.275v12.5c0 1.105 0.895 2 2 2h14c1.105 0 2-0.895 2-2v-12.5c0-0.485-0.17-0.925-0.455-1.275zM12 17.5l-5.5-5.5h3.5v-2h4v2h3.5l-5.5 5.5zM5.125 5l0.815-1h12l0.935 1h-13.75z"></path>
</svg>
