<?xml version="1.0" encoding="utf-8"?>
<!-- Generated by IcoMoon.io -->
<!DOCTYPE svg PUBLIC "-//W3C//DTD SVG 1.1//EN" "http://www.w3.org/Graphics/SVG/1.1/DTD/svg11.dtd">
<svg version="1.1" xmlns="http://www.w3.org/2000/svg" xmlns:xlink="http://www.w3.org/1999/xlink" width="24" height="24" viewBox="0 0 24 24">
<path fill="#444444" d="M1 21h4v-12h-4v12zM23 10c0-1.105-0.895-2-2-2h-6.315l0.955-4.57c0.020-0.1 0.035-0.205 0.035-0.315 0-0.415-0.17-0.79-0.44-1.060l-1.065-1.055-6.585 6.585c-0.36 0.365-0.585 0.865-0.585 1.415v10c0 1.105 0.895 2 2 2h9c0.83 0 1.54-0.505 1.84-1.22l3.015-7.050c0.090-0.23 0.145-0.475 0.145-0.73v-1.915l-0.010-0.010 0.010-0.075z"></path>
</svg>
