<?xml version="1.0" encoding="utf-8"?>
<!-- Generator: Adobe Illustrator 16.0.0, SVG Export Plug-In . SVG Version: 6.00 Build 0)  -->
<!DOCTYPE svg PUBLIC "-//W3C//DTD SVG 1.1//EN" "http://www.w3.org/Graphics/SVG/1.1/DTD/svg11.dtd">
<svg version="1.1" id="Layer_1" xmlns="http://www.w3.org/2000/svg" xmlns:xlink="http://www.w3.org/1999/xlink" x="0px" y="0px"
	 width="56.693px" height="56.693px" viewBox="0 0 56.693 56.693" enable-background="new 0 0 56.693 56.693" xml:space="preserve">
<path fill="#007ABF" d="M45.355,0H11.339C5.102,0,0,5.102,0,11.338v34.019c0,6.232,5.102,11.337,11.339,11.337h34.017
	c6.236,0,11.338-5.104,11.338-11.337V11.338C56.693,5.102,51.592,0,45.355,0z M40.945,9.988c1.719,0,3.113,1.393,3.113,3.116
	s-1.395,3.118-3.113,3.118c-1.725,0-3.125-1.395-3.125-3.118S39.221,9.988,40.945,9.988z M28.344,28.945
	c1.058,0,1.916,0.853,1.916,1.911c0,1.057-0.858,1.909-1.916,1.909c-1.06,0-1.918-0.853-1.918-1.909
	C26.426,29.798,27.284,28.945,28.344,28.945z M15.749,9.996c1.722,0,3.122,1.395,3.122,3.117c0,1.72-1.4,3.115-3.122,3.115
	c-1.726,0-3.123-1.396-3.123-3.115C12.626,11.391,14.023,9.996,15.749,9.996z M18.835,34.469l-0.622,11.507
	c0,0.398-0.33,0.731-0.734,0.731c-0.401,0-0.729-0.333-0.729-0.731l-0.675-11.507h-0.694l-0.629,11.507
	c0,0.398-0.326,0.731-0.739,0.731c-0.398,0-0.728-0.333-0.728-0.731l-0.631-11.507h-2.032l2.106-12.9l-4.234,8.435
	c-0.162,0.371-0.59,0.549-0.965,0.391c-0.367-0.158-0.541-0.584-0.381-0.961c0,0,3.105-8.394,3.869-9.956
	c0.764-1.566,1.525-2.518,4.432-2.518h0.596c2.915,0,3.668,0.951,4.435,2.518c0.77,1.562,3.873,9.956,3.873,9.956
	c0.157,0.377-0.02,0.803-0.391,0.961c-0.374,0.158-0.802-0.02-0.958-0.391l-4.234-8.435l2.1,12.9H18.835z M34.305,31.315
	c-0.084,0.128-1.777,2.757-2.777,3.355c-0.975,0.583-0.994,0.326-1.094,1.184L30.32,38.38l0.355,7.355
	c0.02,0.058,0,0.413-0.006,0.43c-0.105,0.312-0.394,0.542-0.736,0.542c-0.335,0-0.609-0.21-0.729-0.504
	c0-0.006-0.861-5.991-0.861-5.991s-0.863,5.985-0.863,5.991c-0.111,0.294-0.393,0.504-0.723,0.504c-0.346,0-0.629-0.229-0.73-0.542
	c-0.014-0.017-0.033-0.372-0.014-0.43l0.352-7.355l-0.111-2.525c-0.094-0.857-0.116-0.601-1.094-1.184
	c-0.994-0.599-2.689-3.228-2.775-3.355c-0.084-0.133-0.238-0.362-0.267-0.51c-0.052-0.266,0.122-0.518,0.386-0.57
	c0.201-0.033,0.365,0.072,0.489,0.211c0.136,0.141,2.087,2.74,3.552,2.99c0.332-0.048,0.687-0.223,1.613-0.223h0.369
	c0.933,0,1.287,0.175,1.616,0.223c1.464-0.25,3.415-2.85,3.546-2.99c0.127-0.139,0.297-0.244,0.496-0.211
	c0.262,0.053,0.434,0.305,0.384,0.57C34.539,30.953,34.387,31.183,34.305,31.315z M49.156,30.386
	c-0.371,0.16-0.803-0.021-0.961-0.389l-3.809-8.437l-0.208,6.782h-0.005l0.603,17.052c0.042,0.676-0.46,1.263-1.138,1.307
	c-0.031,0.006-0.059,0.006-0.089,0.006c-0.634,0-1.177-0.493-1.216-1.141l-1.397-14.043l-1.381,14.043
	c-0.05,0.647-0.59,1.141-1.229,1.141c-0.025,0-0.055,0-0.088-0.006c-0.67-0.044-1.178-0.631-1.136-1.307l0.601-17.052l-0.207-6.782
	l-3.814,8.437c-0.149,0.368-0.582,0.549-0.955,0.389c-0.373-0.162-0.545-0.588-0.388-0.964c0,0,2.683-8.393,3.443-9.954
	c0.767-1.564,1.952-2.515,4.861-2.515h0.598c2.909,0,4.092,0.95,4.858,2.515c0.768,1.562,3.449,9.954,3.449,9.954
	C49.707,29.798,49.532,30.224,49.156,30.386z"/>
</svg>
