<?xml version="1.0" encoding="utf-8"?>
<!-- Generator: Adobe Illustrator 16.0.0, SVG Export Plug-In . SVG Version: 6.00 Build 0)  -->
<!DOCTYPE svg PUBLIC "-//W3C//DTD SVG 1.1//EN" "http://www.w3.org/Graphics/SVG/1.1/DTD/svg11.dtd">
<svg version="1.1" id="Layer_1" xmlns="http://www.w3.org/2000/svg" xmlns:xlink="http://www.w3.org/1999/xlink" x="0px" y="0px"
	 width="56.693px" height="56.693px" viewBox="0 0 56.693 56.693" enable-background="new 0 0 56.693 56.693" xml:space="preserve">
<g>
	<g>
		<path fill="#007BC0" d="M45.356-0.002h-34.02c-6.232,0-11.338,5.104-11.338,11.339v34.015c0,6.24,5.105,11.34,11.338,11.34h34.02
			c6.233,0,11.335-5.1,11.335-11.34V11.337C56.691,5.102,51.59-0.002,45.356-0.002"/>
	</g>
	<path fill="#FFFFFF" d="M19.987,17.533c0,1.672-1.361,3.026-3.036,3.026c-1.672,0-3.034-1.354-3.034-3.026
		c0-1.674,1.362-3.029,3.034-3.029C18.626,14.504,19.987,15.859,19.987,17.533 M17.269,38.283l0.656,11.182
		c0,0.387,0.318,0.709,0.709,0.709c0.393,0,0.715-0.322,0.715-0.709l0.604-11.182h1.976l-2.042-12.535l4.115,8.197
		c0.152,0.359,0.567,0.531,0.934,0.379c0.359-0.152,0.531-0.568,0.376-0.934c0,0-3.015-8.154-3.759-9.676
		c-0.748-1.521-1.479-2.443-4.312-2.443h-0.576c-2.826,0-3.565,0.923-4.307,2.443c-0.742,1.521-3.76,9.676-3.76,9.676
		c-0.157,0.365,0.012,0.781,0.369,0.934c0.361,0.152,0.783-0.02,0.938-0.379l4.113-8.197l-2.045,12.535h1.973l0.615,11.182
		c0,0.387,0.32,0.709,0.709,0.709c0.398,0,0.717-0.322,0.717-0.709l0.611-11.182H17.269z M41.437,14.496
		c-1.678,0-3.039,1.354-3.039,3.029c0,1.674,1.361,3.029,3.039,3.029c1.666,0,3.023-1.355,3.023-3.029
		C44.46,15.85,43.103,14.496,41.437,14.496 M44.575,32.33l0.203-6.589l3.7,8.198c0.155,0.357,0.575,0.533,0.936,0.377
		c0.365-0.156,0.532-0.57,0.38-0.936c0,0-2.605-8.157-3.353-9.674c-0.742-1.52-1.894-2.443-4.72-2.443h-0.581
		c-2.826,0-3.978,0.924-4.726,2.443c-0.736,1.517-3.344,9.674-3.344,9.674c-0.152,0.365,0.018,0.779,0.377,0.936
		c0.365,0.156,0.783-0.02,0.93-0.377l3.704-8.198l0.204,6.589L37.7,48.9c-0.039,0.656,0.453,1.227,1.104,1.27
		c0.031,0.004,0.062,0.004,0.086,0.004c0.621,0,1.146-0.479,1.196-1.107l1.34-13.645l1.358,13.645
		c0.039,0.629,0.562,1.107,1.183,1.107c0.027,0,0.056,0,0.083-0.004c0.658-0.043,1.151-0.613,1.107-1.27L44.57,32.33H44.575z
		 M29.19,32.916c-1.029,0-1.865,0.83-1.865,1.857s0.836,1.855,1.865,1.855c1.03,0,1.861-0.828,1.861-1.855
		S30.221,32.916,29.19,32.916 M29.19,43.865c0,0,0.836,5.814,0.836,5.82c0.117,0.285,0.383,0.488,0.709,0.488
		c0.332,0,0.611-0.223,0.715-0.525c0.005-0.018,0.024-0.361,0.005-0.418l-0.343-7.146l0.11-2.453c0.095-0.834,0.116-0.584,1.06-1.15
		c0.973-0.582,2.619-3.137,2.699-3.262c0.084-0.129,0.227-0.352,0.26-0.494c0.048-0.258-0.121-0.504-0.375-0.553
		c-0.194-0.035-0.357,0.068-0.482,0.203c-0.127,0.139-2.021,2.662-3.443,2.906c-0.321-0.047-0.664-0.217-1.572-0.217h-0.357
		c-0.902,0-1.248,0.17-1.568,0.217c-1.424-0.244-3.319-2.768-3.449-2.906c-0.122-0.135-0.283-0.238-0.477-0.203
		c-0.254,0.049-0.426,0.295-0.373,0.553c0.024,0.143,0.177,0.365,0.257,0.494c0.083,0.125,1.733,2.68,2.696,3.262
		c0.949,0.566,0.971,0.316,1.062,1.15l0.107,2.453l-0.343,7.146c-0.017,0.057,0,0.4,0.015,0.418c0.1,0.303,0.376,0.525,0.711,0.525
		c0.318,0,0.596-0.203,0.703-0.488C28.353,49.68,29.19,43.865,29.19,43.865"/>
	<path fill="#FFFFFF" d="M29.149,23.938c0.584-0.004,1.061-0.328,1.061,0.037l-0.335,3.909c0.003,0.855-1.388,0.501-1.39,0.099
		l-0.401-4.007C28.084,23.609,28.56,23.934,29.149,23.938"/>
	<path fill="#FFFFFF" d="M27.552,13.559c1.362,0.001,2.503-2.246-0.774-3.723c-2.917-1.32-2.674-3.393-2.674-3.393
		C23.735,7.176,24.517,13.557,27.552,13.559"/>
	<path fill="#FFFFFF" d="M27.552,17.939c1.362-0.001,2.503-2.25-0.774-3.73c-2.917-1.314-2.679-3.391-2.679-3.391
		C23.732,11.553,24.508,17.942,27.552,17.939"/>
	<path fill="#FFFFFF" d="M29.224,3.299c-0.412,0.646-3.039,6.873,0.172,6.873C32.624,10.17,29.224,3.299,29.224,3.299"/>
	<path fill="#FFFFFF" d="M31.589,14.209c-3.268,1.48-2.132,3.734-0.768,3.732c3.042-0.002,3.817-6.387,3.455-7.121
		C34.276,10.82,34.511,12.89,31.589,14.209"/>
	<path fill="#FFFFFF" d="M31.594,18.719c-3.277,1.482-2.137,3.734-0.767,3.734c3.036-0.002,3.814-6.395,3.445-7.119
		C34.272,15.334,34.509,17.406,31.594,18.719"/>
	<path fill="#FFFFFF" d="M26.777,18.723c-2.917-1.318-2.674-3.392-2.674-3.392c-0.376,0.739,0.407,7.124,3.446,7.118
		C28.914,22.457,30.055,20.198,26.777,18.723"/>
	<path fill="#FFFFFF" d="M31.597,9.826c-3.28,1.488-2.137,3.734-0.772,3.734c3.039,0.004,3.819-6.385,3.454-7.119
		C34.278,6.441,34.511,8.523,31.597,9.826"/>
</g>
</svg>
