<?xml version="1.0" encoding="utf-8"?>
<!-- Generator: Adobe Illustrator 16.0.0, SVG Export Plug-In . SVG Version: 6.00 Build 0)  -->
<!DOCTYPE svg PUBLIC "-//W3C//DTD SVG 1.1//EN" "http://www.w3.org/Graphics/SVG/1.1/DTD/svg11.dtd">
<svg version="1.1" id="Layer_1" xmlns="http://www.w3.org/2000/svg" xmlns:xlink="http://www.w3.org/1999/xlink" x="0px" y="0px"
	 width="56.692px" height="56.693px" viewBox="0 0 56.692 56.693" enable-background="new 0 0 56.692 56.693" xml:space="preserve">
<g>
	<path fill="#007BBF" d="M56.692,11.337v34.019c0,6.235-5.102,11.336-11.338,11.336H11.338c-6.235,0-11.339-5.101-11.339-11.336
		V11.337c0-6.237,5.104-11.338,11.339-11.338h34.017C51.591-0.001,56.692,5.1,56.692,11.337z"/>
	<rect x="3.673" y="36.482" fill="#FFFFFF" width="11.289" height="11.287"/>
	<rect x="16.343" y="36.482" fill="#4BA1D6" width="11.288" height="11.287"/>
	<rect x="29.01" y="36.482" fill="#FFFFFF" width="11.288" height="11.287"/>
	<rect x="41.679" y="36.482" fill="#88B9E2" width="11.289" height="11.287"/>
	<rect x="16.343" y="23.9" fill="#FFFFFF" width="11.288" height="11.287"/>
	<rect x="29.01" y="23.9" fill="#1F97D1" width="11.288" height="11.287"/>
	<rect x="41.679" y="23.9" fill="#D2E2F4" width="11.289" height="11.287"/>
	<rect x="41.679" y="11.405" fill="#77B1DE" width="11.289" height="11.287"/>
</g>
</svg>
