<?xml version="1.0" encoding="utf-8"?>
<!-- Generator: Adobe Illustrator 16.0.0, SVG Export Plug-In . SVG Version: 6.00 Build 0)  -->
<!DOCTYPE svg PUBLIC "-//W3C//DTD SVG 1.1//EN" "http://www.w3.org/Graphics/SVG/1.1/DTD/svg11.dtd">
<svg version="1.1" id="Layer_1" xmlns="http://www.w3.org/2000/svg" xmlns:xlink="http://www.w3.org/1999/xlink" x="0px" y="0px"
	 width="56.693px" height="56.693px" viewBox="0 0 56.693 56.693" enable-background="new 0 0 56.693 56.693" xml:space="preserve">
<path fill="#007BC0" d="M39.101,13.898l-27.067,6.534l-7.399,1.784l1.812,7.518l1.78,7.363l1.817,7.519l7.396-1.783l27.066-6.536
	l7.553-1.822l-1.791-7.433l-1.82-7.536l-1.795-7.429L39.101,13.898z M47.693,26.955c-0.074,0.017-0.15,0.017-0.221,0.034
	c-3.072,0.742-4.971,3.843-4.228,6.914c0.011,0.05,0.033,0.092,0.048,0.137l-25.8,6.232c-0.011-0.051-0.008-0.102-0.02-0.148
	c-0.742-3.07-3.846-4.969-6.919-4.226c-0.022,0.005-0.039,0.017-0.061,0.022l-1.491-6.168c0.022-0.009,0.045-0.006,0.064-0.009
	c3.073-0.742,4.971-3.846,4.228-6.921c-0.011-0.047-0.036-0.086-0.047-0.134l25.805-6.227c0.009,0.048,0.006,0.092,0.018,0.143
	c0.742,3.076,3.846,4.968,6.916,4.226c0.074-0.02,0.139-0.053,0.211-0.07L47.693,26.955z"/>
<path fill="#007BC0" d="M26.502,20.7c-4.226,1.019-6.818,5.267-5.802,9.493c1.024,4.223,5.269,6.818,9.495,5.799
	c4.223-1.021,6.821-5.27,5.8-9.492C34.976,22.277,30.725,19.679,26.502,20.7 M30.033,32.486l0.348,1.451l-1.395,0.336l-0.321-1.34
	c-0.952,0.188-1.934,0.143-2.542-0.022l0.025-1.753c0.673,0.179,1.574,0.276,2.487,0.053c0.821-0.197,1.292-0.652,1.159-1.203
	c-0.132-0.532-0.659-0.767-1.801-0.859c-1.635-0.145-2.83-0.6-3.159-1.968c-0.304-1.253,0.335-2.434,1.775-3.081l-0.327-1.34
	l1.382-0.332l0.299,1.239c0.94-0.195,1.621-0.137,2.171-0.031l-0.039,1.691c-0.391-0.081-1.133-0.246-2.146-0.003
	c-0.918,0.223-1.116,0.703-1.019,1.094c0.109,0.452,0.678,0.645,1.996,0.79c1.816,0.187,2.665,0.801,2.978,2.085
	C32.204,30.546,31.587,31.828,30.033,32.486"/>
</svg>
