<?xml version="1.0" encoding="utf-8"?>
<!-- Generator: Adobe Illustrator 16.0.0, SVG Export Plug-In . SVG Version: 6.00 Build 0)  -->
<!DOCTYPE svg PUBLIC "-//W3C//DTD SVG 1.1//EN" "http://www.w3.org/Graphics/SVG/1.1/DTD/svg11.dtd">
<svg version="1.1" id="Layer_1" xmlns="http://www.w3.org/2000/svg" xmlns:xlink="http://www.w3.org/1999/xlink" x="0px" y="0px"
	 width="56.692px" height="56.693px" viewBox="0 0 56.692 56.693" enable-background="new 0 0 56.692 56.693" xml:space="preserve">
<g>
	<path fill="#007BC0" d="M45.353,0H11.34C5.104,0,0,5.104,0,11.34v34.014c0,6.24,5.104,11.34,11.34,11.34h34.013
		c6.236,0,11.34-5.1,11.34-11.34V11.34C56.692,5.104,51.589,0,45.353,0"/>
	<path fill="#FFFFFF" d="M39.099,13.898l-27.066,6.533l-7.399,1.784l1.812,7.519l1.781,7.363l1.816,7.518l7.396-1.783l27.066-6.535
		l7.553-1.822l-1.793-7.434l-1.819-7.535l-1.794-7.43L39.099,13.898z M47.692,26.955c-0.076,0.016-0.15,0.016-0.221,0.033
		c-3.073,0.742-4.971,3.844-4.229,6.914c0.012,0.049,0.033,0.092,0.047,0.137l-25.799,6.232c-0.012-0.051-0.009-0.102-0.02-0.148
		c-0.742-3.07-3.846-4.969-6.919-4.227c-0.022,0.006-0.039,0.018-0.062,0.023l-1.49-6.168c0.021-0.01,0.045-0.006,0.064-0.01
		c3.072-0.742,4.971-3.846,4.229-6.921c-0.012-0.048-0.037-0.087-0.048-0.134l25.806-6.227c0.008,0.047,0.005,0.092,0.016,0.143
		c0.743,3.075,3.847,4.967,6.916,4.225c0.076-0.02,0.141-0.053,0.213-0.069L47.692,26.955z"/>
	<path fill="#FFFFFF" d="M26.5,20.7c-4.226,1.019-6.818,5.267-5.802,9.493c1.023,4.223,5.27,6.818,9.494,5.799
		c4.223-1.021,6.821-5.27,5.8-9.492C34.974,22.277,30.723,19.679,26.5,20.7 M30.031,32.486l0.349,1.451l-1.396,0.336l-0.321-1.34
		c-0.951,0.188-1.934,0.143-2.543-0.023l0.025-1.752c0.673,0.178,1.574,0.275,2.486,0.053c0.821-0.197,1.293-0.652,1.159-1.203
		c-0.131-0.533-0.659-0.768-1.8-0.859c-1.637-0.145-2.83-0.6-3.16-1.968c-0.305-1.253,0.335-2.434,1.775-3.081l-0.326-1.34
		l1.381-0.332l0.299,1.239c0.94-0.195,1.622-0.137,2.171-0.03l-0.039,1.691c-0.391-0.082-1.133-0.246-2.146-0.004
		c-0.918,0.224-1.117,0.703-1.02,1.095c0.109,0.452,0.679,0.645,1.996,0.79c1.817,0.187,2.665,0.801,2.978,2.084
		C32.202,30.547,31.586,31.828,30.031,32.486"/>
</g>
</svg>
