<?xml version="1.0" encoding="utf-8"?>
<!-- Generator: Adobe Illustrator 16.0.0, SVG Export Plug-In . SVG Version: 6.00 Build 0)  -->
<!DOCTYPE svg PUBLIC "-//W3C//DTD SVG 1.1//EN" "http://www.w3.org/Graphics/SVG/1.1/DTD/svg11.dtd">
<svg version="1.1" id="Layer_1" xmlns="http://www.w3.org/2000/svg" xmlns:xlink="http://www.w3.org/1999/xlink" x="0px" y="0px"
	 width="56.693px" height="56.693px" viewBox="0 0 56.693 56.693" enable-background="new 0 0 56.693 56.693" xml:space="preserve">
<path fill="#007ABF" d="M45.297,20.917c0,2.542-2.06,4.589-4.589,4.589c-2.542,0-4.602-2.048-4.602-4.589
	c0-2.536,2.06-4.59,4.602-4.59C43.237,16.327,45.297,18.381,45.297,20.917z M41.145,26.592h-0.437h-0.443
	c-4.285,0-6.035,1.39-7.158,3.693c-0.338,0.697-0.903,6.195-1.303,10.459h3.146l0.687-7.094l0.217,7.094h9.705l0.216-7.094
	l0.687,7.094h3.145c-0.393-4.264-0.958-9.762-1.301-10.459C47.18,27.982,45.436,26.592,41.145,26.592z M17.122,20.474
	c0.039-0.205,0.039-0.432,0.105-0.631h8.72c0.145,0.443,0.238,0.914,0.238,1.401c0,2.542-2.054,4.601-4.597,4.601
	c-2.042,0-3.758-1.345-4.361-3.189C17.731,21.991,17.665,21.089,17.122,20.474z M14.11,40.744h2.231l-0.077-2.48L14.11,40.744z
	 M29.197,30.629c0.332,0.676,0.875,5.9,1.273,10.115h-3.15l-0.653-6.76l-0.21,6.76h-9.733l-0.21-6.76c0,0-0.045-0.898-0.205-1.701
	l-7.883-0.094c-0.516-0.006-0.986-0.311-1.202-0.775c-0.232-0.471-0.161-1.029,0.167-1.428l0.47-0.588
	c0.038-0.094,0.1-0.182,0.166-0.265l6.782-8.366c0.459-0.581,1.317-0.67,1.897-0.199c0.577,0.471,0.671,1.318,0.195,1.899v0.011
	l-4.579,5.686l4.933-0.687c0.012,0,0.028,0.011,0.039,0.005c0.997-0.366,2.248-0.564,3.859-0.564h0.436h0.449
	C26.324,26.919,28.073,28.319,29.197,30.629z M26.49,28.192c-0.515-0.283-1.124-0.503-1.85-0.647l-7.347,13.137h2.209L26.49,28.192z
	 M25.172,15.253h-7.169l-0.775,3.875h8.72L25.172,15.253z M30.498,25.812l-0.149-0.149l2.188-2.198l0.16,0.149l0.98-0.991
	l-0.526-0.526l-0.991,0.991l0.066,0.066l-2.187,2.199l-0.465-0.459l-0.72-0.726L28.5,24.516l0.736,0.73l-2.082,2.082l-0.349-0.133
	l-0.199,0.194c0.598,0.299,1.118,0.676,1.578,1.141L30.498,25.812z"/>
</svg>
