<?xml version="1.0" encoding="utf-8"?>
<!-- Generator: Adobe Illustrator 16.0.0, SVG Export Plug-In . SVG Version: 6.00 Build 0)  -->
<!DOCTYPE svg PUBLIC "-//W3C//DTD SVG 1.1//EN" "http://www.w3.org/Graphics/SVG/1.1/DTD/svg11.dtd">
<svg version="1.1" id="Layer_1" xmlns="http://www.w3.org/2000/svg" xmlns:xlink="http://www.w3.org/1999/xlink" x="0px" y="0px"
	 width="56.693px" height="56.693px" viewBox="0 0 56.693 56.693" enable-background="new 0 0 56.693 56.693" xml:space="preserve">
<path fill="#007ABF" d="M45.354,0H11.339C5.1,0,0,5.102,0,11.338v34.016c0,6.237,5.1,11.338,11.339,11.338h34.016
	c6.234,0,11.339-5.102,11.339-11.338V11.338C56.693,5.102,51.589,0,45.354,0z M53.858,34.266h-6.289l-4.762,8.975
	c-0.398,0.749-1.201,1.169-2.048,1.123c-0.842-0.066-1.567-0.63-1.844-1.431l-3.555-10.408l-3.194,7.583
	c-0.365,0.866-1.246,1.38-2.192,1.289c-0.931-0.103-1.688-0.809-1.854-1.733l-2.979-18.36l-3.549,27.884
	c-0.139,1.031-1.008,1.808-2.049,1.835c-0.017,0.001-0.039,0.001-0.056,0.001c-1.019,0-1.894-0.721-2.087-1.725L13.255,27.7
	l-2.569,5.359c-0.354,0.737-1.102,1.207-1.921,1.207h-5.93v-4.252h4.596l4.777-9.967c0.398-0.829,1.296-1.308,2.192-1.189
	c0.908,0.118,1.645,0.806,1.816,1.707l2.923,15.231l3.604-28.377c0.139-1.036,1.013-1.722,2.06-1.746
	c0.985-0.062,1.948,0.718,2.137,1.746l4.08,24.452l2.586-6.143c0.344-0.812,1.13-1.326,2.037-1.299
	c0.881,0.03,1.65,0.602,1.938,1.437l3.77,11.044l3.062-5.765c0.366-0.695,1.091-1.129,1.877-1.129h7.568V34.266z"/>
</svg>
