<?xml version="1.0" encoding="utf-8"?>
<!-- Generator: Adobe Illustrator 16.0.0, SVG Export Plug-In . SVG Version: 6.00 Build 0)  -->
<!DOCTYPE svg PUBLIC "-//W3C//DTD SVG 1.1//EN" "http://www.w3.org/Graphics/SVG/1.1/DTD/svg11.dtd">
<svg version="1.1" id="Layer_1" xmlns="http://www.w3.org/2000/svg" xmlns:xlink="http://www.w3.org/1999/xlink" x="0px" y="0px"
	 width="56.693px" height="56.693px" viewBox="0 0 56.693 56.693" enable-background="new 0 0 56.693 56.693" xml:space="preserve">
<g>
	<path fill="#007BC0" d="M45.354,0H11.34C5.1,0,0,5.102,0,11.339v34.016c0,6.236,5.1,11.338,11.34,11.338h34.015
		c6.233,0,11.338-5.102,11.338-11.338V11.339C56.692,5.102,51.588,0,45.354,0z"/>
	<path fill="#FFFFFF" d="M44.586,20.561l-0.615-0.614l-0.029,0.029c-0.311-8.352-7.17-15.043-15.599-15.043
		c-8.423,0-15.281,6.691-15.592,15.043l-0.029-0.029l-0.614,0.614l12.675,12.674l-7.373,2.948V51.81h21.873V36.183l-7.375-2.949
		L44.586,20.561z M40.062,17.436c1.726,0,3.124,1.398,3.124,3.125h0.171L30.854,33.06h-0.462l6.253-12.499h0.294
		C36.939,18.834,38.338,17.436,40.062,17.436z M32.252,17.436c1.726,0,3.123,1.398,3.123,3.125h0.3L29.42,33.06h-0.643V20.561h0.352
		C29.129,18.834,30.527,17.436,32.252,17.436z M24.44,17.436c1.726,0,3.124,1.398,3.124,3.125h0.346V33.06h-0.644l-6.249-12.499h0.3
		C21.317,18.834,22.716,17.436,24.44,17.436z M13.502,20.561c0-1.726,1.402-3.125,3.128-3.125c1.725,0,3.123,1.398,3.123,3.125
		h0.295l6.248,12.499h-0.462L13.335,20.561H13.502z"/>
	<g>
		<path fill="#007BC0" d="M27.424,40.712l-1.571,5.835h-1.669l-1.043-3.801l-1.021,3.801h-1.664l-1.571-5.835h1.57l0.896,4.017
			l1.076-4.017h1.501l1.021,4.017l0.94-4.017H27.424z"/>
		<path fill="#007BC0" d="M32.287,41.84h-2.685v1.085h2.488v1.129h-2.488v2.492h-1.497v-5.835h4.182V41.84z"/>
		<path fill="#007BC0" d="M37.82,42.554c0,0.261-0.046,0.517-0.137,0.766c-0.092,0.25-0.223,0.459-0.393,0.629
			c-0.232,0.23-0.491,0.404-0.777,0.521c-0.286,0.118-0.643,0.177-1.068,0.177h-0.937v1.9h-1.505v-5.835h2.477
			c0.371,0,0.685,0.032,0.939,0.096c0.254,0.064,0.479,0.16,0.676,0.288c0.234,0.154,0.414,0.351,0.538,0.591
			C37.759,41.928,37.82,42.217,37.82,42.554z M36.265,42.587c0-0.165-0.044-0.306-0.133-0.424s-0.192-0.202-0.31-0.249
			c-0.157-0.062-0.31-0.097-0.459-0.104c-0.148-0.006-0.348-0.01-0.596-0.01h-0.259v1.744h0.432c0.256,0,0.467-0.016,0.633-0.047
			s0.305-0.094,0.417-0.188c0.097-0.083,0.167-0.183,0.21-0.299C36.243,42.896,36.265,42.754,36.265,42.587z"/>
	</g>
</g>
</svg>
