<?xml version="1.0" encoding="utf-8"?>
<!-- Generator: Adobe Illustrator 16.0.0, SVG Export Plug-In . SVG Version: 6.00 Build 0)  -->
<!DOCTYPE svg PUBLIC "-//W3C//DTD SVG 1.1//EN" "http://www.w3.org/Graphics/SVG/1.1/DTD/svg11.dtd">
<svg version="1.1" id="Layer_1" xmlns="http://www.w3.org/2000/svg" xmlns:xlink="http://www.w3.org/1999/xlink" x="0px" y="0px"
	 width="56.693px" height="56.693px" viewBox="0 0 56.693 56.693" enable-background="new 0 0 56.693 56.693" xml:space="preserve">
<g>
	<g>
		<g>
			<path fill="#007BC0" d="M24.597,32.258v5.891c0,0,0.155,2.482-2.326,2.482c-2.478,0-12.712,0-12.712,0l2.481-3.1h8.681v-6.826
				l4.962-8.832h-4.962l-3.101,4.028c0,0-1.086,0.618-2.326,0c0,0-0.31-0.467,0.932-2.323c1.24-1.863,3.412-5.271,3.412-5.271h8.144
				c0,0,4.41,0,5.184,1.553c0.776,1.547,3.258,4.338,3.258,4.338l7.132,0.775c0,0,1.395,2.015-0.622,2.172l-7.286,0.152l-4.183-3.41
				l-2.793,5.582l8.216,16.275h-3.302l-7.702-13.717L24.597,32.258z"/>
			<path fill="#007BC0" d="M35.137,14.199c0,1.801-1.46,3.258-3.254,3.258c-1.801,0-3.258-1.457-3.258-3.258
				c0-1.795,1.457-3.252,3.258-3.252C33.677,10.947,35.137,12.404,35.137,14.199z"/>
		</g>
		<g>
			<g>
				<polygon fill="#007BC0" points="40.735,43.5 39.323,41.002 43.225,37.098 39.292,33.176 40.71,30.672 47.135,37.098 				"/>
			</g>
		</g>
	</g>
</g>
</svg>
