<?xml version="1.0" encoding="utf-8"?>
<!-- Generator: Adobe Illustrator 16.0.0, SVG Export Plug-In . SVG Version: 6.00 Build 0)  -->
<!DOCTYPE svg PUBLIC "-//W3C//DTD SVG 1.1//EN" "http://www.w3.org/Graphics/SVG/1.1/DTD/svg11.dtd">
<svg version="1.1" id="Layer_1" xmlns="http://www.w3.org/2000/svg" xmlns:xlink="http://www.w3.org/1999/xlink" x="0px" y="0px"
	 width="56.693px" height="56.693px" viewBox="0 0 56.693 56.693" enable-background="new 0 0 56.693 56.693" xml:space="preserve">
<g>
	<path fill="#007BC0" d="M36.777,30.269H19.804c0,0-8.147,6.414-5.469,18.232c0,0,0.89,3.416,4.986,3.416h17.944
		c4.088,0,4.981-3.416,4.981-3.416C44.92,36.683,36.777,30.269,36.777,30.269"/>
	<polygon fill="#007BC0" points="22.223,9.722 24.282,9.722 24.282,14.995 28.649,12.853 33.1,14.995 33.1,10.05 35.327,10.05 
		28.772,4.776 	"/>
	<polygon fill="#007BC0" points="48.788,23.388 47.638,21.681 43.263,24.628 42.599,19.808 38.338,17.315 42.437,14.552 
		41.192,12.71 49.229,15.192 	"/>
	<polygon fill="#007BC0" points="7.902,23.388 9.055,21.681 13.428,24.628 14.092,19.808 18.358,17.315 14.257,14.552 15.501,12.71 
		7.465,15.192 	"/>
	<path fill="#007BC0" d="M16.815,23.999l4.096,3.818h14.756l4.097-3.818c0,0-2.034-2.85-5.399-3.223
		c-3.282-0.363-4.429,1.654-6.072,1.732c-1.648-0.078-2.79-2.096-6.077-1.732C18.855,21.149,16.815,23.999,16.815,23.999"/>
	<path fill="#FFFFFF" d="M23.312,45.653c0.335,0.332,0.792,0.418,0.586,0.625l-2.431,2.047c-0.485,0.492-1.08-0.508-0.851-0.738
		l2.064-2.52C22.89,44.853,22.977,45.312,23.312,45.653"/>
	<path fill="#FFFFFF" d="M28.337,38.802c0.775,0.779,2.715,0.143,1.686-2.574c-0.915-2.426,0.41-3.473,0.41-3.473
		C29.802,32.966,26.599,37.062,28.337,38.802"/>
	<path fill="#FFFFFF" d="M25.828,41.308c0.778,0.779,2.721,0.143,1.688-2.58c-0.912-2.42,0.41-3.473,0.41-3.473
		C27.299,35.466,24.084,39.567,25.828,41.308"/>
	<path fill="#FFFFFF" d="M35.165,33.886c-0.608,0.135-5.676,2.193-3.837,4.031C33.175,39.763,35.165,33.886,35.165,33.886"/>
	<path fill="#FFFFFF" d="M30.271,41.481c-2.715-1.021-3.354,0.918-2.569,1.697c1.737,1.74,5.834-1.469,6.046-2.096
		C33.747,41.083,32.701,42.399,30.271,41.481"/>
	<path fill="#FFFFFF" d="M27.692,44.065c-2.718-1.027-3.359,0.914-2.573,1.699c1.739,1.736,5.841-1.479,6.044-2.102
		C31.163,43.663,30.111,44.983,27.692,44.065"/>
	<path fill="#FFFFFF" d="M24.938,41.312c-0.918-2.426,0.41-3.473,0.41-3.473c-0.64,0.213-3.846,4.312-2.102,6.047
		C24.021,44.671,25.968,44.032,24.938,41.312"/>
	<path fill="#FFFFFF" d="M32.784,38.978c-2.729-1.025-3.359,0.916-2.581,1.695c1.739,1.74,5.841-1.465,6.053-2.096
		C36.256,38.577,35.198,39.901,32.784,38.978"/>
</g>
</svg>
