<?xml version="1.0" encoding="utf-8"?>
<!-- Generator: Adobe Illustrator 16.0.0, SVG Export Plug-In . SVG Version: 6.00 Build 0)  -->
<!DOCTYPE svg PUBLIC "-//W3C//DTD SVG 1.1//EN" "http://www.w3.org/Graphics/SVG/1.1/DTD/svg11.dtd">
<svg version="1.1" id="Layer_1" xmlns="http://www.w3.org/2000/svg" xmlns:xlink="http://www.w3.org/1999/xlink" x="0px" y="0px"
	 width="56.693px" height="56.693px" viewBox="0 0 56.693 56.693" enable-background="new 0 0 56.693 56.693" xml:space="preserve">
<g>
	<path fill="#007BC0" d="M56.687,11.338v34.015c0,6.239-5.101,11.341-11.334,11.341H11.34C5.101,56.693,0,51.592,0,45.353V11.338
		C0,5.101,5.101,0,11.34,0h34.013C51.586,0,56.687,5.101,56.687,11.338"/>
	<path fill="#FFFFFF" d="M36.774,29.5H19.801c0,0-8.148,6.413-5.47,18.232c0,0,0.893,3.416,4.989,3.416h17.945
		c4.085,0,4.979-3.416,4.979-3.416C44.917,35.913,36.774,29.5,36.774,29.5"/>
	<polygon fill="#FFFFFF" points="22.223,8.952 24.282,8.952 24.282,14.226 28.646,12.083 33.097,14.226 33.097,9.281 35.323,9.281 
		28.769,4.007 	"/>
	<polygon fill="#FFFFFF" points="48.784,22.619 47.635,20.911 43.26,23.858 42.596,19.039 38.337,16.547 42.434,13.782 
		41.188,11.94 49.226,14.424 	"/>
	<polygon fill="#FFFFFF" points="7.902,22.619 9.052,20.911 13.427,23.858 14.091,19.039 18.354,16.547 14.253,13.782 15.498,11.94 
		7.461,14.424 	"/>
	<path fill="#FFFFFF" d="M16.814,23.23l4.097,3.817h14.753l4.097-3.817c0,0-2.032-2.85-5.397-3.224
		c-3.281-0.362-4.431,1.655-6.074,1.733c-1.646-0.078-2.791-2.096-6.078-1.733C18.852,20.381,16.814,23.23,16.814,23.23"/>
	<path fill="#407CCA" d="M23.311,44.884c0.335,0.332,0.793,0.419,0.586,0.625l-2.433,2.048c-0.486,0.491-1.077-0.508-0.849-0.739
		l2.064-2.52C22.887,44.083,22.976,44.543,23.311,44.884"/>
	<path fill="#407CCA" d="M28.334,38.033c0.778,0.778,2.715,0.143,1.688-2.575c-0.915-2.425,0.407-3.472,0.407-3.472
		C29.799,32.196,26.598,36.292,28.334,38.033"/>
	<path fill="#407CCA" d="M25.828,40.539c0.775,0.778,2.718,0.143,1.685-2.581c-0.909-2.419,0.413-3.472,0.413-3.472
		C27.296,34.696,24.081,38.798,25.828,40.539"/>
	<path fill="#407CCA" d="M35.162,33.116c-0.608,0.135-5.676,2.193-3.835,4.032C33.175,38.993,35.162,33.116,35.162,33.116"/>
	<path fill="#407CCA" d="M30.268,40.712c-2.716-1.021-3.352,0.918-2.57,1.697c1.738,1.741,5.835-1.468,6.047-2.096
		C33.744,40.313,32.7,41.63,30.268,40.712"/>
	<path fill="#407CCA" d="M27.691,43.296c-2.718-1.026-3.359,0.915-2.572,1.699c1.735,1.736,5.84-1.479,6.041-2.101
		C31.16,42.895,30.111,44.214,27.691,43.296"/>
	<path fill="#407CCA" d="M24.935,40.542c-0.915-2.425,0.413-3.472,0.413-3.472c-0.642,0.213-3.845,4.312-2.104,6.047
		C24.02,43.901,25.967,43.263,24.935,40.542"/>
	<path fill="#407CCA" d="M32.784,38.209c-2.729-1.026-3.359,0.915-2.584,1.694c1.741,1.741,5.843-1.465,6.056-2.096
		C36.256,37.808,35.195,39.133,32.784,38.209"/>
</g>
</svg>
