<?xml version="1.0" encoding="utf-8"?>
<!-- Generator: Adobe Illustrator 16.0.0, SVG Export Plug-In . SVG Version: 6.00 Build 0)  -->
<!DOCTYPE svg PUBLIC "-//W3C//DTD SVG 1.1//EN" "http://www.w3.org/Graphics/SVG/1.1/DTD/svg11.dtd">
<svg version="1.1" id="Layer_1" xmlns="http://www.w3.org/2000/svg" xmlns:xlink="http://www.w3.org/1999/xlink" x="0px" y="0px"
	 width="56.693px" height="56.693px" viewBox="0 0 56.693 56.693" enable-background="new 0 0 56.693 56.693" xml:space="preserve">
<path fill="#007ABF" d="M45.202,29.5v3.05h4.57V29.5H45.202z M23.872,27.979v13.708l-3.047,3.05v1.523h-7.621v3.049h30.473v-3.049
	H36.06v-1.523l-3.045-3.05V27.979H23.872z M23.872,18.835v4.573h-3.047v3.046h22.852c0.846,0,1.525,0.682,1.525,1.525h4.57v-1.525
	c0-2.521-2.049-4.57-4.57-4.57H33.015v-3.048H23.872z M20.825,11.22L7.112,17.312v4.572l13.713-6.093V11.22z M26.919,9.693v3.047
	h3.045V9.693H26.919z M28.442,8.169c1.684,0,3.047,1.367,3.047,3.051c0,1.68-1.363,3.044-3.047,3.044
	c-1.682,0-3.045-1.364-3.045-3.044C25.397,9.537,26.761,8.169,28.442,8.169z M25.397,6.647l-3.051,6.093v4.571h12.188V12.74
	l-3.045-6.093H25.397z"/>
<path fill="#FFFFFF" d="M50.235,35.683l-1.516,3.031c-0.6,0.458-0.994,1.171-0.994,1.981c0,1.391,1.125,2.511,2.51,2.511
	s2.508-1.12,2.508-2.511c0-0.811-0.393-1.523-0.992-1.981L50.235,35.683z"/>
</svg>
