<?xml version="1.0" encoding="utf-8"?>
<!-- Generator: Adobe Illustrator 16.0.0, SVG Export Plug-In . SVG Version: 6.00 Build 0)  -->
<!DOCTYPE svg PUBLIC "-//W3C//DTD SVG 1.1//EN" "http://www.w3.org/Graphics/SVG/1.1/DTD/svg11.dtd">
<svg version="1.1" id="Layer_1" xmlns="http://www.w3.org/2000/svg" xmlns:xlink="http://www.w3.org/1999/xlink" x="0px" y="0px"
	 width="56.693px" height="56.693px" viewBox="0 0 56.693 56.693" enable-background="new 0 0 56.693 56.693" xml:space="preserve">
<g>
	<path fill="#007ABF" d="M45.354,0H11.337C5.103,0-0.001,5.102-0.001,11.338v34.016c0,6.236,5.104,11.34,11.338,11.34h34.018
		c6.236,0,11.336-5.104,11.336-11.34V11.338C56.69,5.102,51.591,0,45.354,0z M36.562,32.445c0.453-2.324,0.48-4.53,0.531-6.233
		c0.033-2.457,0.066-3.981,0.072-3.979l0.078,3.99c0,1.684,0.031,3.87-0.389,6.196c0.012,0.534,0.1,1.305-0.1,2.347
		c-0.615,0.088-1.236,0.16-1.877,0.22c0.012-0.05,0.016-0.089,0.027-0.138C35.333,33.431,36.075,32.816,36.562,32.445z
		 M35.681,28.848c0.283-2.188,0.205-4.238,0.148-5.828l-0.125-3.7c0,0,0.121,1.418,0.27,3.704c0.102,1.566,0.227,3.593-0.023,5.782
		c0.057,0.612,0.25,1.513-0.055,2.897c-0.352,1.557-1.195,2.321-1.406,2.637c-0.098-0.415-0.562-1.504-0.203-3.147
		C34.579,29.842,35.247,29.223,35.681,28.848z M34.583,19.896c0.168,1.443,0.4,3.312,0.295,5.357
		c0.084,0.565,0.314,1.391,0.123,2.691c-0.225,1.461-0.953,2.234-1.131,2.541c-0.117-0.384-0.631-1.361-0.393-2.912
		c0.188-1.273,0.775-1.888,1.152-2.259c0.139-2.05-0.047-3.944-0.178-5.419l-0.305-3.425C34.142,16.472,34.329,17.787,34.583,19.896
		z M33.073,16.834c0.238,1.328,0.553,3.038,0.576,4.931c0.117,0.52,0.381,1.267,0.283,2.48c-0.117,1.363-0.738,2.127-0.887,2.427
		c-0.133-0.344-0.666-1.219-0.549-2.669c0.094-1.192,0.598-1.799,0.924-2.164c0.014-1.905-0.266-3.644-0.465-4.996l-0.465-3.146
		L33.073,16.834z M31.401,13.853c0.299,1.204,0.686,2.759,0.826,4.497c0.137,0.471,0.426,1.135,0.408,2.26
		c-0.016,1.263-0.537,2.007-0.646,2.294c-0.146-0.307-0.697-1.081-0.682-2.42c0.01-1.105,0.438-1.695,0.713-2.054
		c-0.109-1.746-0.465-3.329-0.729-4.559l-0.6-2.869L31.401,13.853z M26.944,18.96c0.709,1.074,1.551,2.495,2.613,3.993
		c0.482,0.118,1.24,0.33,1.959,1.288c0.875,1.168,0.818,2.203,0.869,2.56c-0.275-0.195-1.178-0.585-1.969-1.648
		c-0.709-0.946-0.893-1.664-1.08-2.133c-1.041-1.497-1.834-2.92-2.492-3.993c-0.969-1.564-1.639-2.469-1.639-2.474
		C25.206,16.558,25.925,17.426,26.944,18.96z M24.558,13.667c0,0.005,0.676,0.803,1.635,2.214c0.674,0.986,1.471,2.295,2.48,3.665
		c0.443,0.101,1.156,0.287,1.832,1.16c0.83,1.071,0.803,2.023,0.846,2.35c-0.254-0.179-1.096-0.52-1.85-1.489
		c-0.67-0.868-0.852-1.527-1.039-1.956c-0.98-1.37-1.727-2.682-2.359-3.668C25.19,14.502,24.558,13.672,24.558,13.667z
		 M29.558,10.959c0.338,1.087,0.803,2.476,1.041,4.053c0.154,0.421,0.471,1.01,0.525,2.038c0.078,1.157-0.35,1.876-0.432,2.144
		c-0.154-0.27-0.703-0.935-0.787-2.166c-0.059-1.011,0.281-1.578,0.512-1.927c-0.217-1.589-0.648-3.006-0.959-4.114
		c-0.465-1.585-0.73-2.581-0.725-2.575L29.558,10.959z M24.886,7.211c0.336,0.548,1.82,2.885,3.227,6.09
		c0.289,0.161,0.863,0.475,1.201,1.256c0.389,0.937,0.012,1.568-0.049,1.864c-0.271-0.252-0.824-0.552-1.17-1.37
		c-0.281-0.642-0.197-1.221-0.137-1.565c-1.576-3.727-3.172-6.391-3.15-6.398L24.886,7.211z M25.372,12.78
		c0.639,0.896,1.373,2.104,2.314,3.353c0.408,0.093,1.057,0.263,1.699,1.055c0.77,0.975,0.758,1.842,0.814,2.141
		c-0.238-0.162-1.018-0.46-1.721-1.35c-0.639-0.784-0.809-1.395-0.982-1.787c-0.918-1.249-1.615-2.455-2.215-3.355
		c-0.84-1.325-1.443-2.076-1.438-2.08C23.839,10.76,24.479,11.482,25.372,12.78z M25.183,22.417
		c0.828,1.271,1.846,2.854,2.742,4.692c0.199,0.322,0.416,0.668,0.641,1.067c0.715,1.19,1.506,2.741,2.48,4.413
		c0.09-0.287,0.195-0.533,0.283-0.733c-0.326-0.966-0.697-1.886-1.086-2.751c-0.885-1.483-1.594-2.854-2.209-3.929
		c-1.045-1.828-1.787-2.88-1.781-2.887c-0.006,0.007,0.793,1.021,1.898,2.812c0.215,0.352,0.443,0.734,0.68,1.141
		c-0.182-0.339-0.352-0.669-0.52-0.977l-2.17-4.068c-0.006,0,0.918,1.521,2.338,4.002c0.646,1.132,1.41,2.491,2.129,4.023
		c0.117,0.189,0.234,0.377,0.355,0.566c0.42,0.126,1.051,0.326,1.672,0.952c-0.127-0.307-0.262-0.601-0.387-0.886
		c-0.332-0.272-0.699-0.627-1.041-1.107c-0.736-1.035-0.92-1.811-1.113-2.32c-1.074-1.625-1.9-3.166-2.598-4.331
		c-1.006-1.691-1.715-2.668-1.709-2.677c-0.006,0.004,0.752,0.946,1.82,2.606c0.748,1.161,1.625,2.706,2.734,4.334
		c0.1,0.029,0.211,0.062,0.332,0.101c-0.812-1.729-1.283-2.751-1.283-2.751l1.451,2.812c0.469,0.181,1.039,0.513,1.576,1.261
		c0.912,1.28,0.82,2.396,0.859,2.786c-0.117-0.089-0.344-0.216-0.619-0.409c0.225,0.49,0.453,1.001,0.686,1.536
		c0.238,0.425,0.389,0.827,0.48,1.187c0.262,0.681,0.498,1.394,0.709,2.13c-0.111,0.008-0.23,0.016-0.348,0.024
		c-0.074-0.255-0.145-0.516-0.221-0.764c0,0.037,0,0.076,0,0.105c-0.217-0.176-0.805-0.493-1.424-1.132
		c0.1,0.223,0.203,0.467,0.299,0.731c0.287,0.244,0.576,0.559,0.854,0.995c0.021,0.035,0.033,0.063,0.055,0.096
		c-0.891,0.061-1.799,0.093-2.725,0.1c-0.217-0.912-0.188-1.63-0.066-2.202c-0.293-0.504-0.564-0.997-0.818-1.479
		c0.414,1.588,0.064,2.71,0.033,3.125c-0.344-0.37-1.457-1.198-2.045-3.053c-0.48-1.52-0.152-2.506,0.072-3.119
		c-0.963-2.354-2.207-4.375-3.16-5.954l-2.225-3.667C22.815,18.82,23.739,20.194,25.183,22.417z M20.64,31.67
		c-2.188-1.499-3.6-2.297-3.6-2.303c0,0.006,1.457,0.731,3.699,2.163c1.416,0.915,3.154,2.155,5.16,3.415
		c-0.221-0.024-0.443-0.041-0.666-0.063C23.456,33.695,21.907,32.544,20.64,31.67z M22.421,34.438
		c-0.133-0.025-0.258-0.055-0.393-0.081c-1.838-1.304-3.018-1.968-3.01-1.971C19.011,32.389,20.36,33.066,22.421,34.438z
		 M23.667,32.015c-2.115-1.269-3.887-2.563-5.314-3.509c-2.07-1.371-3.416-2.1-3.41-2.106c-0.006,0.004,1.371,0.668,3.492,1.978
		c1.484,0.912,3.328,2.189,5.471,3.438c0.652-0.11,1.723-0.261,3.145,0.525c1.732,0.958,2.242,2.258,2.49,2.668
		c-0.447-0.101-1.77-0.101-3.342-0.978C24.796,33.254,24.165,32.484,23.667,32.015z M12.722,23.494
		c-0.006,0.005,1.283,0.608,3.283,1.796c1.395,0.835,3.129,1.996,5.154,3.12c0.604-0.113,1.59-0.269,2.924,0.431
		c1.637,0.858,2.135,2.042,2.385,2.416c-0.416-0.08-1.648-0.052-3.133-0.831c-1.322-0.698-1.926-1.404-2.396-1.826
		c-1.994-1.142-3.672-2.323-5.018-3.186C13.972,24.164,12.716,23.499,12.722,23.494z M21.8,19.771
		c0.998,1.364,2.289,3.113,3.352,5.215c0.41,0.518,1.123,1.221,1.672,2.627c0.615,1.583,0.332,2.75,0.326,3.16
		c-0.338-0.319-1.43-1.019-2.082-2.703c-0.549-1.378-0.305-2.312-0.131-2.89c-1.035-2.125-2.299-3.926-3.27-5.335l-2.246-3.278
		L21.8,19.771z M18.269,17.3c0.996,1.194,2.287,2.734,3.398,4.601c0.41,0.452,1.104,1.053,1.701,2.313
		c0.67,1.423,0.494,2.518,0.521,2.896c-0.332-0.271-1.381-0.848-2.098-2.359c-0.594-1.234-0.428-2.109-0.311-2.653
		c-1.088-1.897-2.348-3.48-3.322-4.722l-2.254-2.888L18.269,17.3z M14.599,15.018c0.973,1.038,2.258,2.352,3.398,3.992
		c0.398,0.387,1.086,0.887,1.707,2.004c0.723,1.251,0.631,2.273,0.682,2.618c-0.324-0.229-1.307-0.687-2.078-2.019
		c-0.619-1.1-0.537-1.906-0.471-2.41c-1.113-1.666-2.381-3.028-3.338-4.108c-1.4-1.526-2.236-2.497-2.236-2.497L14.599,15.018z
		 M7.241,13.229c0.686,0.438,3.648,2.282,6.992,5.146c0.42,0.03,1.238,0.087,2.053,0.785c0.955,0.846,0.869,1.744,0.963,2.109
		c-0.447-0.149-1.238-0.191-2.076-0.937c-0.668-0.571-0.891-1.255-1.012-1.674c-3.832-3.356-7.096-5.509-7.07-5.534L7.241,13.229z
		 M10.839,19.197c1.213,0.675,2.713,1.645,4.463,2.553c0.508-0.105,1.344-0.244,2.502,0.308c1.406,0.7,1.879,1.669,2.1,1.972
		c-0.361-0.055-1.412,0.013-2.691-0.626c-1.152-0.547-1.684-1.139-2.098-1.487c-1.721-0.928-3.174-1.913-4.34-2.612
		c-1.686-1.045-2.773-1.58-2.773-1.584C8.001,17.724,9.118,18.207,10.839,19.197z M10.407,20.598
		c-0.004,0.006,1.201,0.555,3.062,1.635c1.299,0.758,2.922,1.814,4.814,2.825c0.561-0.109,1.469-0.269,2.719,0.356
		c1.523,0.77,2.012,1.85,2.242,2.188c-0.379-0.067-1.527-0.02-2.91-0.719c-1.236-0.616-1.805-1.264-2.252-1.648
		c-1.863-1.029-3.43-2.106-4.688-2.888C11.577,21.213,10.403,20.609,10.407,20.598z M49.604,31.992
		c-0.123,3.138-1.191,6.544-2.828,9.68c0,0-3.92,7.933-16.223,7.933c-12.295,0-16.289-7.863-16.289-7.863
		c-1.643-3.156-2.641-6.533-2.762-9.749h0.014c-0.014-0.084-0.014-0.16-0.014-0.25c0-1.505,0.932-2.917,2.541-4.14l1.713,1.101
		c-1.057,0.709-1.674,1.504-1.674,2.348c0,2.974,7.377,5.38,16.471,5.38c9.098,0,16.477-2.406,16.477-5.38
		c0-2.055-3.537-3.842-8.73-4.747l0.023-2.159c6.646,1.301,11.287,4.21,11.287,7.598c0,0.09-0.006,0.166-0.012,0.25H49.604z"/>
</g>
</svg>
