<?xml version="1.0" encoding="utf-8"?>
<!-- Generator: Adobe Illustrator 16.0.0, SVG Export Plug-In . SVG Version: 6.00 Build 0)  -->
<!DOCTYPE svg PUBLIC "-//W3C//DTD SVG 1.1//EN" "http://www.w3.org/Graphics/SVG/1.1/DTD/svg11.dtd">
<svg version="1.1" id="Layer_1" xmlns="http://www.w3.org/2000/svg" xmlns:xlink="http://www.w3.org/1999/xlink" x="0px" y="0px"
	 width="56.693px" height="56.693px" viewBox="0 0 56.693 56.693" enable-background="new 0 0 56.693 56.693" xml:space="preserve">
<g>
	<path fill="#007ABF" d="M36.448,53.653c-1.08,0-1.987-0.842-2.067-1.917L32.899,36.77L31.42,51.747
		c-0.081,1.064-0.989,1.906-2.067,1.906c-0.047,0-0.1-0.001-0.173-0.011c-1.1-0.07-1.958-1.054-1.885-2.191l0.812-23.093
		l-0.08-2.596l-0.505,5.223c-0.097,0.995-1.009,1.717-2.002,1.626c-0.487-0.05-0.923-0.285-1.229-0.663
		c-0.308-0.378-0.448-0.854-0.396-1.342c0.111-1.354,1.112-13.354,1.648-14.45c1.264-2.581,3.277-3.634,6.951-3.634h0.811
		c3.675,0,5.688,1.053,6.952,3.634c0.536,1.097,1.537,13.096,1.649,14.46c0.052,0.476-0.088,0.952-0.395,1.33
		c-0.308,0.38-0.744,0.615-1.23,0.665c-1.071,0.09-1.907-0.632-2.003-1.626l-0.506-5.225l-0.081,2.624l0.813,23.078
		c0.035,0.536-0.144,1.066-0.504,1.481c-0.362,0.417-0.864,0.666-1.413,0.701C36.552,53.652,36.497,53.653,36.448,53.653z
		 M33.301,32.636l1.884,19.031c0.049,0.666,0.604,1.18,1.264,1.18l0.055-0.002c0.365-0.025,0.67-0.176,0.89-0.43
		c0.22-0.253,0.329-0.577,0.308-0.911l-0.813-23.117l0.274-8.973l0.804-0.026l1.116,11.52c0.05,0.516,0.483,0.904,1.008,0.904
		c0.034,0.001,0.074,0.001,0.113-0.003c0.269-0.027,0.512-0.158,0.683-0.369s0.249-0.476,0.22-0.747
		c-0.421-5.105-1.219-13.46-1.572-14.183c-0.935-1.909-2.351-3.181-6.228-3.181h-0.811c-3.876,0-5.292,1.271-6.227,3.181
		c-0.354,0.724-1.151,9.077-1.571,14.173c-0.03,0.281,0.049,0.548,0.22,0.759c0.17,0.21,0.412,0.34,0.683,0.367
		c0.035,0.004,0.071,0.003,0.111,0.003c0.517,0,0.96-0.396,1.009-0.904l1.113-11.52l0.804,0.026l0.275,8.945L28.1,51.491
		c-0.045,0.706,0.476,1.306,1.161,1.35c0.004,0,0.008,0,0.013,0c0.745,0,1.294-0.512,1.344-1.164l1.881-19.041H33.301z"/>
	<path fill="#007ABF" d="M32.906,12.345c-2.558,0-4.639-2.077-4.639-4.629c0-2.555,2.081-4.634,4.639-4.634
		c2.55,0,4.625,2.079,4.625,4.634C37.531,10.268,35.456,12.345,32.906,12.345z M32.906,3.889c-2.113,0-3.832,1.717-3.832,3.827
		c0,2.107,1.719,3.822,3.832,3.822c2.105,0,3.818-1.715,3.818-3.822C36.725,5.605,35.012,3.889,32.906,3.889z"/>
	<path fill="#007ABF" d="M36.448,53.653c-1.08,0-1.987-0.842-2.067-1.917L32.899,36.77L31.42,51.747
		c-0.081,1.064-0.989,1.906-2.067,1.906c-0.047,0-0.1-0.001-0.173-0.011c-1.1-0.07-1.958-1.054-1.885-2.191l0.812-23.093
		l-0.08-2.596l-0.505,5.223c-0.097,0.995-1.009,1.717-2.002,1.626c-0.487-0.05-0.923-0.285-1.229-0.663
		c-0.308-0.378-0.448-0.854-0.396-1.342c0.111-1.354,1.112-13.354,1.648-14.45c1.264-2.581,3.277-3.634,6.951-3.634h0.811
		c3.675,0,5.688,1.053,6.952,3.634c0.536,1.097,1.537,13.096,1.649,14.46c0.052,0.476-0.088,0.952-0.395,1.33
		c-0.308,0.38-0.744,0.615-1.23,0.665c-1.071,0.09-1.907-0.632-2.003-1.626l-0.506-5.225l-0.081,2.624l0.813,23.078
		c0.035,0.536-0.144,1.066-0.504,1.481c-0.362,0.417-0.864,0.666-1.413,0.701C36.552,53.652,36.497,53.653,36.448,53.653z
		 M33.301,32.636l1.884,19.031c0.049,0.666,0.604,1.18,1.264,1.18l0.055-0.002c0.365-0.025,0.67-0.176,0.89-0.43
		c0.22-0.253,0.329-0.577,0.308-0.911l-0.813-23.117l0.274-8.973l0.804-0.026l1.116,11.52c0.05,0.516,0.483,0.904,1.008,0.904
		c0.034,0.001,0.074,0.001,0.113-0.003c0.269-0.027,0.512-0.158,0.683-0.369s0.249-0.476,0.22-0.747
		c-0.421-5.105-1.219-13.46-1.572-14.183c-0.935-1.909-2.351-3.181-6.228-3.181h-0.811c-3.876,0-5.292,1.271-6.227,3.181
		c-0.354,0.723-1.151,9.077-1.571,14.173c-0.03,0.281,0.049,0.548,0.22,0.759c0.17,0.21,0.412,0.34,0.683,0.367
		c0.035,0.004,0.071,0.003,0.111,0.003c0.517,0,0.96-0.396,1.009-0.904l1.113-11.52l0.804,0.026l0.275,8.945L28.1,51.491
		c-0.045,0.706,0.476,1.306,1.161,1.35c0.004,0,0.008,0,0.013,0c0.745,0,1.294-0.512,1.344-1.164l1.881-19.041H33.301z
		 M32.906,12.345c-2.558,0-4.639-2.077-4.639-4.629c0-2.555,2.081-4.634,4.639-4.634c2.55,0,4.625,2.079,4.625,4.634
		C37.531,10.268,35.456,12.345,32.906,12.345z M32.906,3.889c-2.113,0-3.832,1.717-3.832,3.827c0,2.107,1.719,3.822,3.832,3.822
		c2.105,0,3.818-1.715,3.818-3.822C36.725,5.605,35.012,3.889,32.906,3.889z"/>
</g>
<g>
	<path fill="#FFFFFF" d="M24.327,3.485c2.294,0,4.153,1.86,4.153,4.156c0,2.299-1.859,4.149-4.153,4.149s-4.156-1.851-4.156-4.149
		C20.171,5.346,22.033,3.485,24.327,3.485z M32.967,30.591c-0.101,0.025-0.2,0.037-0.298,0.037c-0.604,0-1.154-0.42-1.295-1.029
		l-2.947-10.481l2.86,17.52h-2.758l-0.858,15.618c0,0.549-0.447,0.995-0.985,0.995c-0.564,0-1.008-0.446-1.008-0.995l-0.849-15.618
		h-0.502h-0.501l-0.852,15.618c0,0.549-0.442,0.995-1.008,0.995c-0.536,0-0.984-0.446-0.984-0.995l-0.857-15.618h-2.762l2.864-17.52
		l-2.948,10.481c-0.144,0.609-0.689,1.029-1.294,1.029c-0.1,0-0.199-0.012-0.299-0.037c-0.717-0.162-1.162-0.876-0.999-1.588
		c0,0,2.181-10.596,3.217-12.721v-0.006c0,0,0.005,0,0.005-0.007c1.036-2.122,2.073-3.402,6.009-3.402h0.409h0.408
		c3.938,0,4.973,1.28,6.009,3.402c0,0.007,0.005,0.007,0.005,0.007v0.006c1.036,2.125,3.217,12.721,3.217,12.721
		C34.127,29.715,33.683,30.429,32.967,30.591z"/>
	<path fill="#007ABF" d="M26.686,53.653c-0.778,0-1.411-0.628-1.411-1.398L24.447,37.04h-0.239l-0.831,15.236
		c0.001,0.749-0.632,1.377-1.41,1.377c-0.765,0-1.388-0.628-1.388-1.398L19.743,37.04h-2.854l1.783-10.902l-1.005,3.57
		c-0.209,0.889-1.191,1.503-2.08,1.273c-0.44-0.1-0.824-0.371-1.07-0.763s-0.325-0.855-0.222-1.306
		c0.086-0.421,2.146-10.4,3.206-12.721l0.152-0.315c1.008-2.01,2.142-3.413,6.265-3.413h0.817c4.121,0,5.256,1.401,6.263,3.409
		l0.154,0.319c1.059,2.32,3.12,12.3,3.208,12.729c0.209,0.923-0.375,1.852-1.305,2.062c-0.12,0.031-0.253,0.048-0.387,0.048
		c-0.799,0-1.508-0.564-1.688-1.342l-1.002-3.562l1.781,10.913h-2.85l-0.838,15.237C28.074,53.025,27.451,53.653,26.686,53.653z
		 M23.444,36.233h1.767l0.869,16c0.001,0.354,0.267,0.613,0.605,0.613c0.315,0,0.582-0.271,0.582-0.592l0.88-16.021h2.666
		l-2.784-17.052l0.785-0.174l2.947,10.481c0.116,0.502,0.624,0.836,1.106,0.711c0.506-0.114,0.817-0.61,0.705-1.108
		c-0.023-0.109-2.049-9.924-3.088-12.412l-0.143-0.314c-0.95-1.928-1.84-3.095-5.607-3.095h-0.817c-3.766,0-4.657,1.166-5.605,3.093
		l-0.143,0.312c-1.038,2.481-3.066,12.308-3.088,12.409c-0.057,0.249-0.015,0.497,0.117,0.706c0.131,0.208,0.336,0.354,0.576,0.408
		c0.535,0.13,0.997-0.208,1.111-0.692l2.953-10.498l0.785,0.175l-2.787,17.051h2.669l0.878,15.999
		c0.001,0.344,0.267,0.614,0.582,0.614c0.339,0,0.604-0.26,0.604-0.592L23.444,36.233z M24.327,12.194
		c-2.514,0-4.56-2.043-4.56-4.553c0-2.514,2.046-4.56,4.56-4.56c2.513,0,4.557,2.046,4.557,4.56
		C28.884,10.151,26.84,12.194,24.327,12.194z M24.327,3.889c-2.069,0-3.753,1.684-3.753,3.753c0,2.065,1.684,3.746,3.753,3.746
		c2.068,0,3.75-1.681,3.75-3.746C28.077,5.572,26.396,3.889,24.327,3.889z"/>
</g>
</svg>
