<?xml version="1.0" encoding="utf-8"?>
<!-- Generator: Adobe Illustrator 16.0.0, SVG Export Plug-In . SVG Version: 6.00 Build 0)  -->
<!DOCTYPE svg PUBLIC "-//W3C//DTD SVG 1.1//EN" "http://www.w3.org/Graphics/SVG/1.1/DTD/svg11.dtd">
<svg version="1.1" id="Layer_1" xmlns="http://www.w3.org/2000/svg" xmlns:xlink="http://www.w3.org/1999/xlink" x="0px" y="0px"
	 width="56.693px" height="56.693px" viewBox="0 0 56.693 56.693" enable-background="new 0 0 56.693 56.693" xml:space="preserve">
<path fill="#007ABF" d="M32.184,32.897H19.782c-0.565,0-1.03-0.46-1.03-1.03v-2.313c0-0.576,0.41-1.08,1.03-1.362
	c0,0,2.502-0.858,6.195-0.858c3.687,0,6.206,0.858,6.206,0.858c0.809,0.404,1.019,1.097,1.019,1.666v2.01
	C33.202,32.438,32.748,32.897,32.184,32.897z M18.785,36.917c-0.902,0-1.633,0.73-1.633,1.633c0,0.897,0.73,1.628,1.633,1.628
	s1.634-0.73,1.634-1.628C20.419,37.647,19.688,36.917,18.785,36.917z M30.268,39.852h-8.587c-0.16,0-0.293,0.127-0.293,0.287
	c0,0.161,0.133,0.294,0.293,0.294h8.587c0.161,0,0.288-0.133,0.288-0.294C30.556,39.979,30.429,39.852,30.268,39.852z
	 M56.693,11.339v34.016c0,6.233-5.104,11.339-11.339,11.339H11.339C5.1,56.693,0,51.588,0,45.354V11.339C0,5.104,5.1,0,11.339,0
	h34.016C51.589,0,56.693,5.104,56.693,11.339z M38.788,43.766c0-1.091-0.204-1.634-0.604-1.634h-0.382v-0.985
	c0-1.782-0.105-3.427-0.326-4.916c-0.006-0.022-0.006-0.045-0.017-0.072v-9.916h-0.587v-2.309h-0.792v2.309h-0.593v6.771
	c-0.138-0.094-0.282-0.177-0.437-0.26v-6.932c0-0.565-2.696-2.32-9.163-2.32c-6.473,0-9.097,1.755-9.097,2.32v6.981
	c-1.251,0.691-2.026,1.832-2.319,3.427c-0.222,1.489-0.327,3.134-0.327,4.916v0.985h-0.382c-0.404,0-0.604,0.543-0.604,1.634
	c0,1.058,0.199,1.583,0.604,1.583h2.508v0.493c0,0.73,0.028,1.328,0.083,1.799c0.056,0.471,0.122,0.858,0.194,1.146
	c0.326,0.548,0.93,0.819,1.799,0.819c0.836,0,1.423-0.271,1.75-0.819c0.216-0.438,0.326-1.312,0.326-2.613v-0.825h11.101v0.825
	c0,1.301,0.111,2.176,0.327,2.613c0.326,0.548,0.913,0.819,1.749,0.819c0.869,0,1.473-0.271,1.8-0.819
	c0.071-0.288,0.138-0.676,0.193-1.146c0.05-0.471,0.077-1.068,0.077-1.799v-0.493h2.514C38.584,45.349,38.788,44.823,38.788,43.766z
	 M43.533,12.025c0-0.232-0.205-0.41-0.62-0.521l-0.881-0.315c-1.002-0.383-1.616-0.57-1.849-0.57c-0.033,0-0.21,0.044-0.537,0.138
	c-0.326,0.083-0.819,0.238-1.5,0.482c-0.056,0.021-0.438,0.104-1.146,0.237c-0.703,0.134-1.766,0.344-3.178,0.643l-13.99-4.988
	c-0.028-0.027-0.128-0.044-0.311-0.044c-0.498,0-0.925,0.232-1.284,0.703l8.919,5.47l-3.001,0.581l-2.602-2.07l-0.709,0.133v1.628
	l-3.001-1.146l-0.575,0.354l2.651,2.336v0.134c0,0.409,0.277,0.614,0.836,0.614l1.329,1.633l0.659-0.216l0.221-1.19h6.971
	l1.462,1.102v3.532h1.323l2.696-5.829c0.902-0.145,1.865-0.332,2.862-0.549c1.008-0.227,2.076-0.453,3.222-0.687
	c0.205-0.088,0.427-0.199,0.665-0.332c0.237-0.133,0.459-0.271,0.664-0.415c0.205-0.149,0.371-0.293,0.504-0.442
	C43.467,12.279,43.533,12.146,43.533,12.025z M30.268,36.568h-8.587c-0.16,0-0.293,0.133-0.293,0.287
	c0,0.161,0.133,0.294,0.293,0.294h8.587c0.161,0,0.288-0.133,0.288-0.294C30.556,36.701,30.429,36.568,30.268,36.568z
	 M30.268,38.207h-8.587c-0.16,0-0.293,0.133-0.293,0.293c0,0.161,0.133,0.288,0.293,0.288h8.587c0.161,0,0.288-0.127,0.288-0.288
	C30.556,38.34,30.429,38.207,30.268,38.207z M33.146,36.917c-0.896,0-1.628,0.73-1.628,1.633c0,0.897,0.731,1.628,1.628,1.628
	c0.902,0,1.634-0.73,1.634-1.628C34.78,37.647,34.049,36.917,33.146,36.917z"/>
</svg>
