<?xml version="1.0" encoding="utf-8"?>
<!-- Generator: Adobe Illustrator 16.0.0, SVG Export Plug-In . SVG Version: 6.00 Build 0)  -->
<!DOCTYPE svg PUBLIC "-//W3C//DTD SVG 1.1//EN" "http://www.w3.org/Graphics/SVG/1.1/DTD/svg11.dtd">
<svg version="1.1" id="Layer_1" xmlns="http://www.w3.org/2000/svg" xmlns:xlink="http://www.w3.org/1999/xlink" x="0px" y="0px"
	 width="56.693px" height="56.693px" viewBox="0 0 56.693 56.693" enable-background="new 0 0 56.693 56.693" xml:space="preserve">
<path fill="#007ABF" d="M43.533,12.025c0-0.232-0.205-0.41-0.62-0.521l-0.881-0.315c-1.002-0.383-1.616-0.57-1.849-0.57
	c-0.033,0-0.211,0.044-0.537,0.138c-0.327,0.083-0.819,0.238-1.501,0.482c-0.055,0.021-0.437,0.104-1.146,0.237
	c-0.703,0.134-1.767,0.344-3.178,0.643L19.831,7.131c-0.027-0.027-0.127-0.044-0.31-0.044c-0.498,0-0.925,0.232-1.284,0.703
	l8.919,5.47l-3.001,0.581l-2.602-2.07l-0.709,0.133v1.628l-3.001-1.146l-0.575,0.354l2.651,2.336v0.134
	c0,0.409,0.277,0.614,0.836,0.614l1.329,1.633l0.658-0.216l0.222-1.19h6.971l1.462,1.102v3.532h1.322l2.696-5.829
	c0.903-0.145,1.866-0.332,2.862-0.549c1.008-0.227,2.076-0.453,3.223-0.687c0.205-0.088,0.427-0.199,0.664-0.332
	c0.238-0.133,0.46-0.271,0.665-0.415c0.204-0.149,0.37-0.293,0.504-0.442C43.467,12.279,43.533,12.146,43.533,12.025z
	 M38.185,42.132h-0.382v-0.985c0-1.782-0.105-3.427-0.327-4.916c-0.005-0.022-0.005-0.045-0.017-0.072v-9.916h-0.587v-2.309h-0.791
	v2.309h-0.593v6.771c-0.139-0.094-0.282-0.177-0.438-0.26v-6.932c0-0.565-2.696-2.32-9.162-2.32c-6.473,0-9.097,1.755-9.097,2.32
	v6.981c-1.251,0.691-2.026,1.832-2.319,3.427c-0.222,1.489-0.327,3.134-0.327,4.916v0.985h-0.382c-0.404,0-0.604,0.543-0.604,1.634
	c0,1.058,0.199,1.583,0.604,1.583h2.508v0.493c0,0.73,0.027,1.328,0.083,1.799s0.122,0.858,0.193,1.146
	c0.327,0.548,0.931,0.819,1.8,0.819c0.836,0,1.423-0.271,1.75-0.819c0.216-0.438,0.326-1.312,0.326-2.613v-0.825h11.101v0.825
	c0,1.301,0.11,2.176,0.326,2.613c0.327,0.548,0.914,0.819,1.75,0.819c0.869,0,1.473-0.271,1.799-0.819
	c0.072-0.288,0.139-0.676,0.194-1.146c0.05-0.471,0.077-1.068,0.077-1.799v-0.493h2.514c0.398,0,0.604-0.525,0.604-1.583
	C38.788,42.675,38.583,42.132,38.185,42.132z M18.785,40.178c-0.902,0-1.634-0.73-1.634-1.628c0-0.902,0.731-1.633,1.634-1.633
	s1.633,0.73,1.633,1.633C20.418,39.447,19.688,40.178,18.785,40.178z M19.781,32.897c-0.564,0-1.029-0.46-1.029-1.03v-2.313
	c0-0.576,0.409-1.08,1.029-1.362c0,0,2.503-0.858,6.195-0.858c3.688,0,6.207,0.858,6.207,0.858c0.808,0.404,1.019,1.097,1.019,1.666
	v2.01c0,0.57-0.454,1.03-1.019,1.03H19.781z M30.268,40.433h-8.587c-0.16,0-0.294-0.133-0.294-0.294c0-0.16,0.134-0.287,0.294-0.287
	h8.587c0.16,0,0.288,0.127,0.288,0.287C30.556,40.3,30.428,40.433,30.268,40.433z M30.268,38.788h-8.587
	c-0.16,0-0.294-0.127-0.294-0.288c0-0.16,0.134-0.293,0.294-0.293h8.587c0.16,0,0.288,0.133,0.288,0.293
	C30.556,38.661,30.428,38.788,30.268,38.788z M30.268,37.149h-8.587c-0.16,0-0.294-0.133-0.294-0.294
	c0-0.154,0.134-0.287,0.294-0.287h8.587c0.16,0,0.288,0.133,0.288,0.287C30.556,37.017,30.428,37.149,30.268,37.149z M33.146,40.178
	c-0.896,0-1.628-0.73-1.628-1.628c0-0.902,0.731-1.633,1.628-1.633c0.902,0,1.634,0.73,1.634,1.633
	C34.78,39.447,34.049,40.178,33.146,40.178z"/>
</svg>
