<?xml version="1.0" encoding="utf-8"?>
<!-- Generator: Adobe Illustrator 16.0.0, SVG Export Plug-In . SVG Version: 6.00 Build 0)  -->
<!DOCTYPE svg PUBLIC "-//W3C//DTD SVG 1.1//EN" "http://www.w3.org/Graphics/SVG/1.1/DTD/svg11.dtd">
<svg version="1.1" id="Layer_1" xmlns="http://www.w3.org/2000/svg" xmlns:xlink="http://www.w3.org/1999/xlink" x="0px" y="0px"
	 width="56.693px" height="56.693px" viewBox="0 0 56.693 56.693" enable-background="new 0 0 56.693 56.693" xml:space="preserve">
<g>
	<path fill="#007BC0" d="M45.354-0.001H11.338C5.103-0.001,0,5.104,0,11.34v34.013c0,6.24,5.103,11.341,11.338,11.341h34.016
		c6.237,0,11.338-5.101,11.338-11.341V11.34C56.691,5.104,51.591-0.001,45.354-0.001z"/>
	<g>
		<g>
			<path fill="#FFFFFF" d="M19.559,35.166v5.89c0,0,0.158,2.479-2.324,2.479c-2.479,0-12.71,0-12.71,0l2.482-3.099h8.68v-6.821
				l4.959-8.835h-4.959l-3.102,4.027c0,0-1.087,0.619-2.325,0c0,0-0.31-0.464,0.929-2.324c1.241-1.857,3.414-5.269,3.414-5.269
				h8.142c0,0,4.411,0,5.185,1.548c0.776,1.554,3.256,4.34,3.256,4.34l7.132,0.776c0,0,1.396,2.016-0.622,2.173l-7.283,0.152
				l-4.186-3.408l-2.791,5.581l8.218,16.272h-3.306l-7.701-13.715L19.559,35.166z"/>
			<path fill="#FFFFFF" d="M30.102,17.105c0,1.801-1.461,3.257-3.257,3.257c-1.797,0-3.253-1.456-3.253-3.257
				c0-1.795,1.456-3.253,3.253-3.253C28.641,13.853,30.102,15.311,30.102,17.105z"/>
		</g>
		<g>
			<g>
				<polygon fill="#FFFFFF" points="35.698,46.406 34.286,43.902 38.187,40.005 34.257,36.081 35.672,33.577 42.097,40.005 				"/>
			</g>
		</g>
	</g>
	<g>
		<path fill="#FFFFFF" d="M43.556,21.166c-4.715,0-8.55-3.835-8.55-8.55c0-4.714,3.835-8.549,8.55-8.549
			c4.714,0,8.549,3.835,8.549,8.549C52.104,17.331,48.27,21.166,43.556,21.166z M43.556,5.92c-3.691,0-6.697,3.003-6.697,6.696
			s3.006,6.697,6.697,6.697c3.693,0,6.696-3.004,6.696-6.697S47.249,5.92,43.556,5.92z"/>
	</g>
	<polygon fill="#FFFFFF" points="47.768,11.335 44.843,11.335 44.843,8.439 42.284,8.439 42.284,11.34 39.343,11.34 39.343,13.898 
		42.271,13.898 42.268,16.793 44.826,16.793 44.826,13.893 47.768,13.893 	"/>
</g>
</svg>
