<?xml version="1.0" encoding="utf-8"?>
<!-- Generator: Adobe Illustrator 16.0.0, SVG Export Plug-In . SVG Version: 6.00 Build 0)  -->
<!DOCTYPE svg PUBLIC "-//W3C//DTD SVG 1.1//EN" "http://www.w3.org/Graphics/SVG/1.1/DTD/svg11.dtd">
<svg version="1.1" id="Layer_1" xmlns="http://www.w3.org/2000/svg" xmlns:xlink="http://www.w3.org/1999/xlink" x="0px" y="0px"
	 width="56.693px" height="56.693px" viewBox="0 0 56.693 56.693" enable-background="new 0 0 56.693 56.693" xml:space="preserve">
<path fill="#007BBF" d="M26.536,38.53l7.843-6.512l2.338,2.385L26.47,44.65l-6.062-6.065l3.213-3.223L26.536,38.53z M34.406,20.479
	l-2.455-2.455l-4.405,4.406l-4.407-4.406l-2.46,2.455l4.405,4.406l-4.405,4.408l2.46,2.455l4.407-4.406l4.405,4.406l2.455-2.455
	L30,24.886L34.406,20.479z M43.324,11.151v38.477H13.369V11.151h6.101v-0.98h4.922c0.442-1.779,2.033-3.105,3.951-3.105
	c1.917,0,3.514,1.326,3.957,3.105h4.921v0.98H43.324z M26.503,10.171h3.686c-0.36-0.664-1.036-1.131-1.839-1.131
	C27.533,9.04,26.857,9.507,26.503,10.171z M40.025,14.312h-2.804v1.947H19.47v-1.947h-2.804v32.157h23.359V14.312z"/>
</svg>
