<?xml version="1.0" encoding="utf-8"?>
<!-- Generator: Adobe Illustrator 16.0.0, SVG Export Plug-In . SVG Version: 6.00 Build 0)  -->
<!DOCTYPE svg PUBLIC "-//W3C//DTD SVG 1.1//EN" "http://www.w3.org/Graphics/SVG/1.1/DTD/svg11.dtd">
<svg version="1.1" id="Layer_1" xmlns="http://www.w3.org/2000/svg" xmlns:xlink="http://www.w3.org/1999/xlink" x="0px" y="0px"
	 width="56.693px" height="56.693px" viewBox="0 0 56.693 56.693" enable-background="new 0 0 56.693 56.693" xml:space="preserve">
<path fill="#007BBF" d="M30.133,10.161H26.45c0.355-0.663,1.03-1.129,1.845-1.129C29.097,9.032,29.772,9.498,30.133,10.161z
	 M56.636,11.311v34.017c0,6.235-5.1,11.338-11.339,11.338H11.28c-6.233,0-11.338-5.103-11.338-11.338V11.311
	c0-6.237,5.104-11.339,11.338-11.339h34.017C51.536-0.028,56.636,5.073,56.636,11.311z M43.254,11.141h-6.096v-0.979h-4.919
	c-0.44-1.777-2.034-3.102-3.95-3.102s-3.508,1.324-3.947,3.102h-4.919v0.979h-6.096v38.438h29.927V11.141z M37.158,14.298h2.798
	v32.125H16.623V14.298h2.8v1.945h17.735V14.298z M25.033,24.861l-4.401,4.404l2.455,2.452l4.401-4.401l4.402,4.401l2.455-2.452
	l-4.401-4.404l4.401-4.401l-2.455-2.453l-4.402,4.402l-4.397-4.402l-2.459,2.453L25.033,24.861z M36.655,34.369l-2.34-2.382
	l-7.832,6.505l-2.915-3.165l-3.209,3.22l6.058,6.06L36.655,34.369z"/>
</svg>
