<?xml version="1.0" encoding="utf-8"?>
<!-- Generator: Adobe Illustrator 16.0.0, SVG Export Plug-In . SVG Version: 6.00 Build 0)  -->
<!DOCTYPE svg PUBLIC "-//W3C//DTD SVG 1.1//EN" "http://www.w3.org/Graphics/SVG/1.1/DTD/svg11.dtd">
<svg version="1.1" id="Layer_1" xmlns="http://www.w3.org/2000/svg" xmlns:xlink="http://www.w3.org/1999/xlink" x="0px" y="0px"
	 width="56.693px" height="56.693px" viewBox="0 0 56.693 56.693" enable-background="new 0 0 56.693 56.693" xml:space="preserve">
<path fill="#007ABF" d="M45.353,0H11.337C5.103,0-0.002,5.104-0.002,11.339v34.016c0,6.239,5.104,11.339,11.339,11.339h34.016
	c6.239,0,11.339-5.1,11.339-11.339V11.339C56.691,5.104,51.592,0,45.353,0z M35.631,49.606c-4.391,0-6.993-1.999-7.956-3.704
	c-0.969-1.705-0.017-0.006-0.017-0.006c-1.323-1.589-2.524-2.707-3.864-3.57c-0.742,1.428-3.007,2.048-5.371,1.384
	c-2.579-0.73-4.279-2.724-3.792-4.44c0.022-0.077,0.066-0.138,0.1-0.21c-1.522-0.388-3.238-0.813-5.221-1.334
	c-0.282-0.072-0.454-0.366-0.377-0.643c0.072-0.282,0.36-0.454,0.643-0.371c4.191,1.091,2.973,0.803,5.442,1.595
	c0.991-1.019,2.945-1.406,4.972-0.83c2.475,0.703,4.119,2.558,3.82,4.229c1.898,1.019,3.443,2.148,4.362,3.377
	c-0.017-0.011,0.006,0.011,0.006,0.011c0-0.005,0-0.005,0-0.005c0.332,0.21,3.161,2.004,7.297,2.004c4.396,0,7.89-1.201,7.923-1.19
	C43.598,47.945,40.032,49.606,35.631,49.606z M40.275,45.244c-0.16-0.526-1.373-0.637-1.013,0.077
	c-0.066-0.006-0.128-0.006-0.194-0.006c0.155-0.232,0.033-0.525-0.205-0.725c-0.32-0.271-0.741-0.039-1.223,0.16
	c-0.033-0.089-0.039-0.149-0.039-0.232c0.471,0.16,0.742-0.471,0.066-0.56c-0.36-0.05-1.417-0.104-1.174,0.549
	c-0.122,0.044-0.293,0.05-0.459,0c0.254-0.698-1.373-0.759-1.711-0.338c-0.116,0.149-0.062,0.293-0.155,0.365
	c-0.155,0.116-0.443,0.193-0.626,0.282c-0.249,0.116-0.138,0.343-0.631,0.249c0.315-0.094,0.896-0.354,0.896-0.697
	c0-0.282-0.42-0.365-0.67-0.266c-0.227,0.094-1.693,0.72-0.791,1.057c-0.139,0.255-0.537,0.67-0.072,0.814
	c-0.144,0.066-0.31,0.177-0.465,0.305c-0.045-0.012-0.1-0.022-0.145-0.033c0.166-0.128,0.222-0.332,0.078-0.554
	c1.068,0.199-0.643-1.661-0.77-0.311c-0.194-0.027-0.748,0.066-1.157,0.205c-0.864-0.376-1.417-0.72-1.551-0.803
	c1.401-0.836,3.937-1.649,7.303-1.649c4.396,0,6.894,1.494,7.917,2.463c-0.017-0.005-0.88,0.283-2.28,0.576
	c-0.028-0.033-0.062-0.072-0.066-0.083c-0.033,0.039-0.128-0.094-0.122-0.061C41.001,46.08,41.09,44.662,40.275,45.244z
	 M40.441,45.98c-0.094,0.021-0.188,0.05-0.288,0.066c-0.11-0.217-0.144-0.316-0.088-0.521c-0.006,0.138,0.171,0.287,0.144,0.332
	C40.287,45.896,40.364,45.941,40.441,45.98z M37.928,45.653c0.283-0.05,0.975-0.376,1.008-0.326c-0.006-0.05-0.725,0.492-0.216,0.72
	c0.321,0.138,0.349,0.293,0.338,0.492c-0.011,0.006-0.017,0.006-0.027,0.006c-0.006-0.288-0.155-0.515-0.526-0.421
	C38.626,45.753,38.255,45.604,37.928,45.653z M36.162,45.809c0.05-0.089,0.1-0.172,0.149-0.261c0.089,0.211,0.276,0.338,0.504,0.366
	l0.005,0.005c-0.061,0.122-0.104,0.311-0.204,0.404c0.071,0.144,0.138,0.282,0.21,0.421c-0.006,0-0.011,0-0.017,0
	c-0.094-0.122-0.139-0.188-0.332-0.311C36.782,46.146,36.533,45.819,36.162,45.809z M34.861,45.454
	c0.05-0.216,0.121-0.471,0.116-0.664c0.094-0.006,0.183-0.022,0.276-0.028c-0.321,0.398-0.227,0.975,0.244,1.169
	c-0.271,0.121-0.72,0.608-0.659,0.819c-0.056-0.006-0.105-0.006-0.161-0.006c-0.133-0.149-0.271-0.282-0.376-0.349
	c0.343,0.005,0.72-0.211,0.813-0.554C35.182,45.581,34.828,45.593,34.861,45.454z M32.852,45.936
	c0.237,0.116,0.515,0.062,0.77,0.149c0.16,0.05,0.188,0.277,0.481,0.255c-0.311-0.022-0.604,0.066-0.902,0.122
	c-0.028,0.038-0.062,0.066-0.089,0.1c-0.044-0.006-0.089-0.011-0.133-0.022C33.084,46.312,33.244,46.097,32.852,45.936z
	 M31.977,38.307c-8.62,0-15.607-6.992-15.607-15.613c0-8.614,6.987-15.606,15.607-15.606s15.607,6.992,15.607,15.606
	C47.584,31.314,40.597,38.307,31.977,38.307z M26.999,33.308h9.567c0,1.395-2.143,2.519-4.784,2.519
	C29.142,35.826,26.999,34.702,26.999,33.308z M38.394,24.703c0,1.047-0.848,1.889-1.889,1.889c-1.046,0-1.894-0.842-1.894-1.889
	c0-1.04,0.848-1.888,1.894-1.888C37.546,22.815,38.394,23.663,38.394,24.703z M27.459,26.592c-1.047,0-1.889-0.842-1.889-1.889
	c0-1.04,0.842-1.888,1.889-1.888c1.041,0,1.888,0.848,1.888,1.888C29.347,25.75,28.5,26.592,27.459,26.592z"/>
</svg>
