<?xml version="1.0" encoding="utf-8"?>
<!-- Generator: Adobe Illustrator 16.0.0, SVG Export Plug-In . SVG Version: 6.00 Build 0)  -->
<!DOCTYPE svg PUBLIC "-//W3C//DTD SVG 1.1//EN" "http://www.w3.org/Graphics/SVG/1.1/DTD/svg11.dtd">
<svg version="1.1" id="Layer_1" xmlns="http://www.w3.org/2000/svg" xmlns:xlink="http://www.w3.org/1999/xlink" x="0px" y="0px"
	 width="56.693px" height="56.693px" viewBox="0 0 56.693 56.693" enable-background="new 0 0 56.693 56.693" xml:space="preserve">
<path fill="#007ABF" d="M31.974,7.087c-8.62,0-15.607,6.992-15.607,15.606c0,8.621,6.987,15.613,15.607,15.613
	s15.607-6.992,15.607-15.613C47.582,14.079,40.594,7.087,31.974,7.087z M25.568,24.703c0-1.04,0.842-1.888,1.889-1.888
	c1.04,0,1.888,0.848,1.888,1.888c0,1.047-0.848,1.889-1.888,1.889C26.41,26.592,25.568,25.75,25.568,24.703z M31.78,35.826
	c-2.641,0-4.783-1.124-4.783-2.519h9.567C36.564,34.702,34.421,35.826,31.78,35.826z M36.502,26.592
	c-1.046,0-1.894-0.842-1.894-1.889c0-1.04,0.848-1.888,1.894-1.888c1.041,0,1.889,0.848,1.889,1.888
	C38.391,25.75,37.543,26.592,36.502,26.592z M43.595,45.902c0,2.043-3.565,3.704-7.967,3.704c-4.391,0-6.993-1.999-7.956-3.704
	c-0.969-1.705-0.017-0.006-0.017-0.006c-1.323-1.589-2.524-2.707-3.864-3.57c-0.742,1.428-3.007,2.048-5.371,1.384
	c-2.58-0.73-4.279-2.724-3.792-4.44c0.022-0.077,0.066-0.138,0.1-0.21c-1.522-0.388-3.239-0.813-5.221-1.334
	c-0.282-0.072-0.454-0.366-0.377-0.643c0.072-0.282,0.36-0.454,0.643-0.371c4.191,1.091,2.973,0.803,5.442,1.595
	c0.991-1.019,2.945-1.406,4.972-0.83c2.475,0.703,4.119,2.558,3.82,4.229c1.898,1.019,3.443,2.148,4.362,3.377
	c-0.017-0.011,0.006,0.011,0.006,0.011c0-0.005,0-0.005,0-0.005c0.332,0.21,3.161,2.004,7.297,2.004
	C40.068,47.093,43.562,45.892,43.595,45.902z M33.198,46.462c-0.028,0.038-0.062,0.066-0.089,0.1
	c-0.044-0.006-0.089-0.011-0.133-0.022c0.105-0.227,0.266-0.442-0.127-0.604c0.237,0.116,0.515,0.062,0.77,0.149
	c0.16,0.05,0.188,0.277,0.481,0.255C33.79,46.317,33.497,46.406,33.198,46.462z M35.495,45.931c-0.47-0.194-0.564-0.771-0.243-1.169
	c-0.094,0.006-0.183,0.022-0.276,0.028c0.005,0.193-0.066,0.448-0.116,0.664c-0.034,0.139,0.32,0.127,0.254,0.388
	c-0.094,0.343-0.471,0.559-0.813,0.554c0.105,0.066,0.243,0.199,0.376,0.349c0.056,0,0.105,0,0.161,0.006
	C34.776,46.539,35.224,46.052,35.495,45.931z M36.614,46.323c0.1-0.094,0.144-0.282,0.204-0.404l-0.005-0.005
	c-0.228-0.028-0.415-0.155-0.504-0.366c-0.05,0.089-0.1,0.172-0.149,0.261c0.371,0.011,0.62,0.338,0.315,0.625
	c0.193,0.122,0.238,0.188,0.332,0.311c0.006,0,0.011,0,0.017,0C36.751,46.605,36.685,46.467,36.614,46.323z M32.345,45.16
	c-0.902-0.337,0.564-0.963,0.791-1.057c0.249-0.1,0.67-0.017,0.67,0.266c0,0.343-0.581,0.604-0.896,0.697
	c0.493,0.094,0.382-0.133,0.631-0.249c0.183-0.089,0.471-0.166,0.626-0.282c0.094-0.072,0.039-0.216,0.155-0.365
	c0.337-0.421,1.965-0.36,1.71,0.338c0.166,0.05,0.338,0.044,0.46,0c-0.243-0.653,0.813-0.599,1.174-0.549
	c0.675,0.089,0.404,0.72-0.066,0.56c0,0.083,0.005,0.144,0.038,0.232c0.482-0.199,0.903-0.432,1.224-0.16
	c0.238,0.199,0.36,0.492,0.205,0.725c0.066,0,0.128,0,0.194,0.006c-0.36-0.714,0.853-0.604,1.013-0.077
	c0.813-0.582,0.726,0.836,0.742,0.786c-0.006-0.033,0.089,0.1,0.122,0.061c0.005,0.011,0.038,0.05,0.066,0.083
	c1.4-0.293,2.264-0.581,2.28-0.576c-1.024-0.969-3.521-2.463-7.917-2.463c-3.366,0-5.901,0.813-7.303,1.649
	c0.133,0.083,0.687,0.427,1.551,0.803c0.409-0.139,0.963-0.232,1.157-0.205c0.127-1.351,1.838,0.51,0.77,0.311
	c0.144,0.222,0.088,0.426-0.078,0.554c0.045,0.011,0.1,0.021,0.145,0.033c0.155-0.128,0.321-0.238,0.465-0.305
	C31.808,45.83,32.207,45.415,32.345,45.16z M40.063,45.526c-0.056,0.204-0.022,0.304,0.088,0.521c0.1-0.017,0.194-0.045,0.288-0.066
	c-0.077-0.039-0.155-0.084-0.232-0.122C40.234,45.813,40.057,45.664,40.063,45.526z M38.717,46.047
	c-0.51-0.228,0.21-0.77,0.216-0.72c-0.033-0.05-0.726,0.276-1.008,0.326c0.327-0.05,0.698,0.1,0.576,0.471
	c0.371-0.094,0.521,0.133,0.526,0.421c0.011,0,0.016,0,0.027-0.006C39.066,46.34,39.039,46.185,38.717,46.047z"/>
</svg>
