<?xml version="1.0" encoding="utf-8"?>
<!-- Generator: Adobe Illustrator 16.0.0, SVG Export Plug-In . SVG Version: 6.00 Build 0)  -->
<!DOCTYPE svg PUBLIC "-//W3C//DTD SVG 1.1//EN" "http://www.w3.org/Graphics/SVG/1.1/DTD/svg11.dtd">
<svg version="1.1" id="Layer_1" xmlns="http://www.w3.org/2000/svg" xmlns:xlink="http://www.w3.org/1999/xlink" x="0px" y="0px"
	 width="56.693px" height="56.693px" viewBox="0 0 56.693 56.693" enable-background="new 0 0 56.693 56.693" xml:space="preserve">
<g>
	<path fill="#007BC0" d="M45.354,0H11.341C5.101,0,0,5.101,0,11.338v34.018c0,6.235,5.101,11.338,11.341,11.338h34.014
		c6.234,0,11.339-5.103,11.339-11.338V11.338C56.693,5.101,51.589,0,45.354,0z"/>
	<g>
		<path fill="#FFFFFF" d="M20.626,26.081c0,0.659-0.115,1.302-0.346,1.931c-0.231,0.627-0.56,1.156-0.987,1.583
			c-0.586,0.58-1.238,1.017-1.959,1.314c-0.722,0.296-1.619,0.443-2.69,0.443h-2.358v4.788H8.494V21.442h6.239
			c0.934,0,1.722,0.081,2.362,0.241c0.644,0.162,1.21,0.403,1.703,0.725c0.593,0.39,1.046,0.888,1.357,1.492
			C20.47,24.506,20.626,25.232,20.626,26.081z M16.707,26.166c0-0.414-0.113-0.771-0.336-1.068c-0.225-0.299-0.483-0.507-0.78-0.626
			c-0.395-0.157-0.779-0.244-1.155-0.26c-0.373-0.018-0.874-0.026-1.5-0.026h-0.65v4.394h1.084c0.645,0,1.178-0.039,1.595-0.118
			c0.418-0.079,0.769-0.236,1.052-0.473c0.244-0.211,0.42-0.463,0.527-0.755C16.651,26.943,16.707,26.587,16.707,26.166z"/>
		<path fill="#FFFFFF" d="M34.198,32.755h-2.003v3.425h-3.622v-3.425h-7.118v-2.784l6.881-8.528h3.859v8.627h2.003V32.755z
			 M28.573,30.069v-5.321l-4.28,5.321H28.573z"/>
		<path fill="#FFFFFF" d="M48.197,26.081c0,0.659-0.114,1.302-0.346,1.931c-0.23,0.627-0.56,1.156-0.987,1.583
			c-0.586,0.58-1.239,1.017-1.959,1.314c-0.721,0.296-1.617,0.443-2.689,0.443h-2.359v4.788h-3.792V21.442h6.239
			c0.936,0,1.724,0.081,2.364,0.241c0.642,0.162,1.21,0.403,1.703,0.725c0.591,0.39,1.045,0.888,1.357,1.492
			C48.041,24.506,48.197,25.232,48.197,26.081z M44.277,26.166c0-0.414-0.11-0.771-0.334-1.068c-0.224-0.299-0.485-0.507-0.78-0.626
			c-0.395-0.157-0.78-0.244-1.155-0.26c-0.375-0.018-0.876-0.026-1.501-0.026h-0.65v4.394h1.086c0.645,0,1.176-0.039,1.594-0.118
			s0.769-0.236,1.052-0.473c0.243-0.211,0.419-0.463,0.528-0.755C44.225,26.943,44.277,26.587,44.277,26.166z"/>
	</g>
</g>
</svg>
