<?xml version="1.0" encoding="utf-8"?>
<!-- Generator: Adobe Illustrator 16.0.0, SVG Export Plug-In . SVG Version: 6.00 Build 0)  -->
<!DOCTYPE svg PUBLIC "-//W3C//DTD SVG 1.1//EN" "http://www.w3.org/Graphics/SVG/1.1/DTD/svg11.dtd">
<svg version="1.1" id="Layer_1" xmlns="http://www.w3.org/2000/svg" xmlns:xlink="http://www.w3.org/1999/xlink" x="0px" y="0px"
	 width="56.693px" height="56.693px" viewBox="0 0 56.693 56.693" enable-background="new 0 0 56.693 56.693" xml:space="preserve">
<path fill="#007ABF" d="M17.694,19.427c0,2.691-2.181,4.867-4.86,4.867c-2.696,0-4.872-2.176-4.872-4.867
	c0-2.684,2.176-4.865,4.872-4.865C15.514,14.562,17.694,16.743,17.694,19.427z M38.999,19.427c0,2.691,2.182,4.867,4.86,4.867
	c2.696,0,4.878-2.176,4.878-4.867c0-2.684-2.182-4.865-4.878-4.865C41.181,14.562,38.999,16.743,38.999,19.427z M25.656,36.153
	c-0.111-1.035,0.288-1.994,0.963-2.691c-4.119-0.785-5.808-2.795-7.274-4.611c-0.715-0.891-1.396-1.738-2.298-2.336
	c-0.027-0.018-0.061-0.018-0.083-0.039c-0.77-0.637-1.744-1.041-2.818-1.041h-2.63c-2.436,0-4.429,1.988-4.429,4.424v12.273h11.488
	v-7.934c1.678,1.469,4.047,2.863,7.689,3.473C25.961,37.228,25.723,36.729,25.656,36.153z M45.183,25.435h-2.635
	c-1.068,0-2.049,0.404-2.812,1.041c-0.028,0.021-0.062,0.021-0.083,0.039c-0.902,0.598-1.584,1.439-2.304,2.336
	c-1.61,1.994-3.438,4.27-8.548,4.834c-1.157,0.133-1.987,1.174-1.86,2.33c0.116,1.08,1.03,1.877,2.093,1.877
	c0.077,0,0.155-0.006,0.238-0.012c4.329-0.48,7.009-2.02,8.853-3.654v7.906h11.482V29.858
	C49.606,27.423,47.613,25.435,45.183,25.435z"/>
</svg>
