<?xml version="1.0" encoding="utf-8"?>
<!-- Generator: Adobe Illustrator 16.0.0, SVG Export Plug-In . SVG Version: 6.00 Build 0)  -->
<!DOCTYPE svg PUBLIC "-//W3C//DTD SVG 1.1//EN" "http://www.w3.org/Graphics/SVG/1.1/DTD/svg11.dtd">
<svg version="1.1" id="Layer_1" xmlns="http://www.w3.org/2000/svg" xmlns:xlink="http://www.w3.org/1999/xlink" x="0px" y="0px"
	 width="56.693px" height="56.693px" viewBox="0 0 56.693 56.693" enable-background="new 0 0 56.693 56.693" xml:space="preserve">
<path fill="#007ABF" d="M45.354,0H11.339C5.103,0,0,5.102,0,11.339v34.016c0,6.236,5.103,11.339,11.339,11.339h34.016
	c6.237,0,11.339-5.103,11.339-11.339V11.339C56.693,5.102,51.592,0,45.354,0z M21.869,7.14c2.182-0.36,4.249,1.121,4.601,3.305
	c0.357,2.185-1.121,4.244-3.302,4.604c-2.188,0.357-4.247-1.121-4.604-3.303C18.207,9.559,19.683,7.496,21.869,7.14z M31.032,48.801
	c-0.321,0.498-0.872,0.806-1.468,0.806c-1.043,0-1.52-0.795-1.898-1.432l-7.695-12.936l-2.085,4.235
	c-0.481,0.991-1.456,2.395-2.2,3.2l-4.194,4.526c-0.548,0.586-0.979,1.049-1.78,1.049c-0.672,0-1.284-0.385-1.569-0.988
	c-0.492-1.021,0.103-1.761,0.626-2.414l4.141-5.132c0.449-0.551,1.027-1.678,1.229-2.356l1.531-5.373
	c0.221-0.789,0.481-2.195,0.545-3.012l0.684-8.246c-0.844,0.279-1.744,0.789-2.685,1.528c-3.057,2.607-5.033,5.776-5.056,5.81
	c-0.113,0.178-0.216,0.347-0.318,0.502c-0.005,0.005-0.005,0.011-0.011,0.014c-0.374,0.545-0.764,0.902-1.52,0.902
	c-0.629,0-1.207-0.338-1.517-0.883c-0.394-0.689-0.238-1.235,0.077-1.83v-0.003c0.006-0.006,0.011-0.011,0.017-0.02
	c0.086-0.16,0.188-0.329,0.296-0.504c0.097-0.166,2.453-4.024,5.827-6.685c2.849-2.417,5.736-3.771,8.584-4.017
	c3.328-0.291,4.848,2.864,5.822,4.907c0.19,0.396,0.368,0.768,0.548,1.097l1.583,2.87c0.775,1.396,1.539,2.791,2.317,4.184
	l0.899,1.627c0.454,0.825,0.172,1.863-0.64,2.342c-0.811,0.477-1.857,0.219-2.358-0.575l-3.546-5.667l-0.822,4.44
	c-0.103,0.576,0.033,1.658,0.277,2.187l6.223,13.521C31.215,47.168,31.577,47.951,31.032,48.801z M41.012,39.428v0.011h-1.011v2.771
	l-9.268-5.352l9.268-5.351v2.771h0.905c2.793,0,5.063-2.275,5.063-5.068s-2.271-5.062-5.063-5.062h-4.346v-5.169h4.346
	c5.642,0,10.231,4.59,10.231,10.231C51.138,34.815,46.606,39.369,41.012,39.428z"/>
</svg>
