<?xml version="1.0" encoding="utf-8"?>
<!-- Generator: Adobe Illustrator 16.0.0, SVG Export Plug-In . SVG Version: 6.00 Build 0)  -->
<!DOCTYPE svg PUBLIC "-//W3C//DTD SVG 1.1//EN" "http://www.w3.org/Graphics/SVG/1.1/DTD/svg11.dtd">
<svg version="1.1" id="Layer_1" xmlns="http://www.w3.org/2000/svg" xmlns:xlink="http://www.w3.org/1999/xlink" x="0px" y="0px"
	 width="56.693px" height="56.693px" viewBox="0 0 56.693 56.693" enable-background="new 0 0 56.693 56.693" xml:space="preserve">
<g>
	<path fill="#007ABF" d="M56.755,11.337v34.015c0,6.238-5.103,11.341-11.339,11.341H11.402c-6.236,0-11.339-5.103-11.339-11.341
		V11.337c0-6.235,5.103-11.336,11.339-11.336h34.014C51.652,0.001,56.755,5.102,56.755,11.337z"/>
	<g>
		<g>
			<path fill="#FFFFFF" d="M40.629,40.788c-0.165-0.62-0.339-1.284-2.575-12.001h-0.007c-0.102-0.672-0.198-1.341-0.282-2.01
				c-0.036-0.292-0.071-0.582-0.106-0.874c-0.05-0.45-0.097-0.897-0.137-1.345c-0.102-1.107-0.172-2.2-0.2-3.268h0.325v-1.094
				v-1.682H20.143v2.775h0.322c-0.068,2.462-0.349,5.067-0.744,7.633h0.005l-2.05,9.883c-0.912,3.614-1.758,6.318-2.019,7.143
				h-0.085v0.25c0,0.007-0.003,0.01-0.003,0.01h0.003v2.514h1.189h12.345h0.952h12.158v-2.01v-0.207v-0.297v-0.007v-0.253h-0.082
				C41.92,45.285,41.329,43.394,40.629,40.788z"/>
		</g>
		<g>
			<path fill="#FFFFFF" d="M41.68,16.433c6.111,0.7,6.47-6.792,6.47-6.792c-2.467,5.629-7.57,2.677-10.168,2.033
				c-4.438-1.096-8.423,0.337-9.32,5.567C32.357,12.651,37.983,16.011,41.68,16.433z"/>
		</g>
		<g>
			<path fill="#FFFFFF" d="M42.674,11.684c4.886,0.559,5.174-5.436,5.174-5.436c-2.987,4.13-4.887,2.562-6.924,1.906
				c-3.699-1.185-5.857-1.013-7.676,2.792C36.252,8.425,39.713,11.347,42.674,11.684z"/>
		</g>
	</g>
	<path fill-rule="evenodd" clip-rule="evenodd" fill="#007ABF" d="M31.9,22.527c-0.04-0.009-0.08-0.023-0.12-0.033
		c-3.221,4.45-6.438,8.905-9.725,13.448c2.007,0,3.875,0,5.826,0c-0.806,3.283-1.603,6.516-2.408,9.79
		c0.405-0.112,9.364-12.349,9.647-13.117c-1.895,0-3.77,0-5.708,0C30.251,29.209,31.076,25.868,31.9,22.527z"/>
</g>
</svg>
