<?xml version="1.0" encoding="utf-8"?>
<!-- Generator: Adobe Illustrator 16.0.0, SVG Export Plug-In . SVG Version: 6.00 Build 0)  -->
<!DOCTYPE svg PUBLIC "-//W3C//DTD SVG 1.1//EN" "http://www.w3.org/Graphics/SVG/1.1/DTD/svg11.dtd">
<svg version="1.1" id="Layer_1" xmlns="http://www.w3.org/2000/svg" xmlns:xlink="http://www.w3.org/1999/xlink" x="0px" y="0px"
	 width="56.693px" height="56.693px" viewBox="0 0 56.693 56.693" enable-background="new 0 0 56.693 56.693" xml:space="preserve">
<g>
	<g>
		<g>
			<g>
				<path fill="#007ABF" d="M37.114,41.649c-0.164-0.62-0.339-1.284-2.572-12.001h-0.01c-0.099-0.672-0.197-1.341-0.282-2.01
					c-0.033-0.292-0.07-0.582-0.104-0.874c-0.052-0.45-0.1-0.897-0.137-1.345c-0.104-1.107-0.175-2.2-0.203-3.268h0.325v-1.094
					v-1.682H16.627v2.775h0.325c-0.07,2.462-0.349,5.067-0.744,7.633h0.004l-2.049,9.883c-0.914,3.614-1.758,6.318-2.021,7.143
					h-0.085v0.25c0,0.007,0,0.01,0,0.01l0,0v2.514h1.192h12.345h0.951h12.159v-2.01v-0.207V47.07v-0.007v-0.253h-0.083
					C38.405,46.146,37.816,44.255,37.114,41.649z"/>
			</g>
			<g>
				<path fill="#007ABF" d="M38.165,17.294c6.114,0.7,6.472-6.792,6.472-6.792c-2.469,5.629-7.569,2.677-10.17,2.033
					c-4.438-1.096-8.42,0.337-9.32,5.567C28.845,13.513,34.471,16.872,38.165,17.294z"/>
			</g>
			<g>
				<path fill="#007ABF" d="M39.162,12.545c4.886,0.559,5.173-5.436,5.173-5.436c-2.986,4.13-4.886,2.562-6.924,1.906
					c-3.698-1.185-5.856-1.013-7.675,2.792C32.737,9.286,36.2,12.208,39.162,12.545z"/>
			</g>
		</g>
		<path fill-rule="evenodd" clip-rule="evenodd" fill="#FFFFFF" d="M28.388,23.389c-0.043-0.009-0.08-0.023-0.123-0.033
			c-3.218,4.45-6.436,8.905-9.725,13.448c2.007,0,3.878,0,5.828,0c-0.806,3.283-1.602,6.516-2.407,9.79
			c0.405-0.112,9.362-12.349,9.645-13.117c-1.894,0-3.77,0-5.706,0C26.739,30.07,27.564,26.729,28.388,23.389z"/>
	</g>
</g>
</svg>
