<?xml version="1.0" encoding="utf-8"?>
<!-- Generator: Adobe Illustrator 16.0.0, SVG Export Plug-In . SVG Version: 6.00 Build 0)  -->
<!DOCTYPE svg PUBLIC "-//W3C//DTD SVG 1.1//EN" "http://www.w3.org/Graphics/SVG/1.1/DTD/svg11.dtd">
<svg version="1.1" id="Layer_1" xmlns="http://www.w3.org/2000/svg" xmlns:xlink="http://www.w3.org/1999/xlink" x="0px" y="0px"
	 width="56.693px" height="56.693px" viewBox="0 0 56.693 56.693" enable-background="new 0 0 56.693 56.693" xml:space="preserve">
<path fill="#007ABF" d="M45.354,0H11.339C5.1,0,0,5.104,0,11.339v34.016c0,6.239,5.1,11.339,11.339,11.339h34.016
	c6.234,0,11.339-5.1,11.339-11.339V11.339C56.693,5.104,51.589,0,45.354,0z M23.89,47.536h-0.077v0.044h-8.011v-5.885L7.63,30.898
	c-0.327-0.403-0.543-0.902-0.543-1.444V12.861c0-1.301,1.058-2.358,2.358-2.358c1.296,0,2.354,1.058,2.354,2.358v9.583
	c-0.57,0.122-1.113,0.366-1.545,0.786c-1.251,1.224-1.279,3.233-0.061,4.485l4.456,4.584l0.609-0.593l-4.468-4.573
	c-0.892-0.924-0.869-2.402,0.044-3.3c0.288-0.271,0.626-0.465,0.985-0.564c0.388-0.11,0.792-0.116,1.174-0.039
	c0.438,0.111,0.825,0.333,1.13,0.653l9.766,10.021V47.536z M21.813,24.892c-1.821-1.805-2.713-3.975-2.713-6.538
	c0-2.547,0.892-4.739,2.713-6.544c1.789-1.811,3.981-2.696,6.533-2.696c2.558,0,4.723,0.886,6.539,2.696
	c1.81,1.805,2.713,3.997,2.713,6.544c0,2.563-0.903,4.733-2.713,6.538c-1.816,1.8-3.981,2.725-6.539,2.725
	C25.795,27.616,23.603,26.691,21.813,24.892z M49.606,29.454c0,0.542-0.21,1.041-0.537,1.444l-8.172,10.797v5.885h-8.017v-0.044
	h-0.077V33.905l9.771-10.021c0.305-0.32,0.692-0.542,1.124-0.653c0.388-0.077,0.792-0.071,1.174,0.039
	c0.359,0.1,0.703,0.294,0.985,0.564c0.919,0.897,0.936,2.376,0.044,3.3l-4.468,4.573l0.609,0.593l4.462-4.584
	c1.219-1.252,1.19-3.262-0.061-4.485c-0.438-0.42-0.975-0.664-1.55-0.786v-9.583c0-1.301,1.057-2.358,2.353-2.358
	c1.307,0,2.358,1.058,2.358,2.358V29.454z"/>
</svg>
