<?xml version="1.0" encoding="utf-8"?>
<!-- Generator: Adobe Illustrator 16.0.0, SVG Export Plug-In . SVG Version: 6.00 Build 0)  -->
<!DOCTYPE svg PUBLIC "-//W3C//DTD SVG 1.1//EN" "http://www.w3.org/Graphics/SVG/1.1/DTD/svg11.dtd">
<svg version="1.1" id="Layer_1" xmlns="http://www.w3.org/2000/svg" xmlns:xlink="http://www.w3.org/1999/xlink" x="0px" y="0px"
	 width="56.693px" height="56.693px" viewBox="0 0 56.693 56.693" enable-background="new 0 0 56.693 56.693" xml:space="preserve">
<path fill="#007ABF" d="M36.431,34.245v2.334c0,3.983-2.912,7.283-6.716,7.939v2.345h2.06v2.743h-6.859v-2.743h2.06v-2.345
	c-3.804-0.656-6.71-3.956-6.71-7.939v-2.334c0-0.758,0.614-1.373,1.373-1.373c0.758,0,1.373,0.615,1.373,1.373v2.334
	c0,2.942,2.392,5.334,5.334,5.334c2.945,0,5.34-2.392,5.34-5.334v-2.334c0-0.758,0.614-1.373,1.373-1.373
	S36.431,33.487,36.431,34.245z M28.345,22.351c-2.27,0-4.113,1.838-4.113,4.119v9.439c0,2.27,1.844,4.116,4.113,4.116
	c2.275,0,4.119-1.847,4.119-4.116V26.47C32.464,24.188,30.62,22.351,28.345,22.351z M33.419,19.843c0-0.133-0.025-0.258-0.072-0.38
	c-0.841-2.023-2.796-3.338-4.977-3.352h-0.083c-2.188-0.017-4.15,1.265-5.021,3.277c-0.211,0.495,0.017,1.065,0.503,1.278
	c0.499,0.208,1.074-0.017,1.285-0.506c0.554-1.29,1.827-2.112,3.222-2.104h0.086c1.393,0.012,2.649,0.861,3.191,2.148
	c0.194,0.495,0.77,0.733,1.266,0.523C33.192,20.576,33.413,20.219,33.419,19.843z M35.628,16.958
	c0.288-0.186,0.454-0.498,0.457-0.822c0-0.174-0.05-0.359-0.152-0.518c-1.628-2.619-4.44-4.205-7.529-4.222h-0.078
	c-3.089-0.027-5.924,1.515-7.59,4.108c-0.291,0.451-0.166,1.055,0.285,1.343c0.451,0.293,1.055,0.166,1.348-0.288
	c1.312-2.032,3.526-3.23,5.94-3.217h0.08c2.417,0.02,4.62,1.254,5.894,3.3C34.565,17.104,35.168,17.24,35.628,16.958z
	 M39.403,13.379c-2.325-3.906-6.425-6.262-10.965-6.292h-0.085c-4.537-0.033-8.673,2.262-11.062,6.137
	c-0.282,0.457-0.141,1.055,0.321,1.343c0.46,0.279,1.061,0.133,1.34-0.321c2.021-3.291,5.536-5.243,9.396-5.215h0.077
	c3.848,0.035,7.336,2.034,9.307,5.351c0.277,0.46,0.875,0.617,1.34,0.338c0.305-0.186,0.477-0.504,0.477-0.833
	C39.548,13.714,39.504,13.545,39.403,13.379z"/>
</svg>
