<?xml version="1.0" encoding="utf-8"?>
<!-- Generator: Adobe Illustrator 16.0.0, SVG Export Plug-In . SVG Version: 6.00 Build 0)  -->
<!DOCTYPE svg PUBLIC "-//W3C//DTD SVG 1.1//EN" "http://www.w3.org/Graphics/SVG/1.1/DTD/svg11.dtd">
<svg version="1.1" id="Layer_1" xmlns="http://www.w3.org/2000/svg" xmlns:xlink="http://www.w3.org/1999/xlink" x="0px" y="0px"
	 width="56.693px" height="56.693px" viewBox="0 0 56.693 56.693" enable-background="new 0 0 56.693 56.693" xml:space="preserve">
<path fill="#007ABF" d="M43.988,11.549l-5.581,5.199H18.282l-5.58-5.199c0,0,2.779-3.892,7.357-4.401
	c4.484-0.498,6.04,2.254,8.288,2.364c2.242-0.11,3.804-2.862,8.282-2.364C41.214,7.657,43.988,11.549,43.988,11.549z M29.117,36.496
	v3.926c0.593-0.1,1.08-0.327,1.451-0.703c0.376-0.371,0.564-0.809,0.564-1.307c0-0.449-0.161-0.836-0.477-1.163
	C30.346,36.923,29.832,36.673,29.117,36.496z M25.85,31.475c0,0.354,0.128,0.687,0.382,0.985c0.255,0.311,0.637,0.554,1.152,0.742
	v-3.477c-0.465,0.133-0.842,0.359-1.118,0.681C25.989,30.732,25.85,31.081,25.85,31.475z M47.376,44.956c0,0-1.213,4.65-6.794,4.65
	H16.118c-5.587,0-6.799-4.65-6.799-4.65c-3.654-16.117,7.457-24.864,7.457-24.864h23.137C39.913,20.092,51.025,28.839,47.376,44.956
	z M34.05,38.052c0-1.091-0.344-1.981-1.041-2.674c-0.687-0.692-1.988-1.257-3.893-1.694v-3.931c0.77,0.282,1.246,0.819,1.429,1.605
	l3.018-0.327c-0.211-1.002-0.687-1.81-1.435-2.408c-0.741-0.598-1.749-0.957-3.012-1.091v-0.996h-1.732v0.996
	c-1.362,0.117-2.458,0.549-3.283,1.29c-0.819,0.748-1.229,1.673-1.229,2.769c0,1.091,0.36,2.01,1.091,2.773
	c0.726,0.759,1.866,1.329,3.422,1.7v4.213c-0.427-0.172-0.814-0.454-1.168-0.842c-0.35-0.393-0.582-0.853-0.709-1.384l-3.111,0.277
	c0.237,1.317,0.786,2.342,1.644,3.062c0.858,0.73,1.972,1.162,3.345,1.295v1.833h1.732v-1.877c1.551-0.188,2.758-0.697,3.627-1.528
	C33.613,40.283,34.05,39.259,34.05,38.052z"/>
</svg>
