<?xml version="1.0" encoding="utf-8"?>
<!-- Generator: Adobe Illustrator 16.0.0, SVG Export Plug-In . SVG Version: 6.00 Build 0)  -->
<!DOCTYPE svg PUBLIC "-//W3C//DTD SVG 1.1//EN" "http://www.w3.org/Graphics/SVG/1.1/DTD/svg11.dtd">
<svg version="1.1" id="Layer_1" xmlns="http://www.w3.org/2000/svg" xmlns:xlink="http://www.w3.org/1999/xlink" x="0px" y="0px"
	 width="56.693px" height="56.693px" viewBox="0 0 56.693 56.693" enable-background="new 0 0 56.693 56.693" xml:space="preserve">
<path fill="#007BC0" d="M25.64,13.087l-9.854,7.162v-7.982h2.375V8.741h4.025V5.685c0-0.785,2.757-1.428,6.161-1.428
	c3.399,0,6.156,0.643,6.156,1.428v3.057h4.029v3.525h2.37v7.979l-9.854-7.158C29.559,12.007,27.129,12.007,25.64,13.087z
	 M11.806,29.296c-0.565-1.75,0.188-4.064,1.677-5.143l2.303-1.678l9.854-7.164c0.564-0.404,1.268-0.609,1.998-0.709v23.898
	c0,0.395,0.315,0.709,0.709,0.709c0.388,0,0.709-0.314,0.709-0.709V14.603c0.725,0.1,1.434,0.305,1.992,0.709l9.854,7.158
	l2.309,1.684c1.488,1.078,2.236,3.393,1.671,5.143l-5.674,14.426c-0.442,0.188-0.919,0.311-1.462,0.316
	c-1.909-0.033-3.172-1.135-4.179-3.594c-0.012-0.039-0.028-0.061-0.045-0.1c-0.005-0.021-0.017-0.027-0.027-0.055l0,0
	c-0.1-0.15-0.249-0.25-0.421-0.25s-0.315,0.1-0.415,0.25c-0.033,0.061-0.061,0.115-0.077,0.188c-1.02,2.469-2.298,3.57-4.252,3.57
	h-0.011c-1.971,0-3.256-1.107-4.274-3.604c-0.011-0.039-0.033-0.061-0.05-0.1c-0.005-0.021-0.011-0.027-0.021-0.055l0,0
	c-0.105-0.15-0.255-0.25-0.421-0.25c-0.172,0-0.315,0.1-0.415,0.25c-0.033,0.061-0.062,0.115-0.078,0.188
	c-0.996,2.414-2.258,3.51-4.141,3.555c-0.531-0.012-0.997-0.127-1.439-0.311L11.806,29.296z M31.242,23.622
	c0,0.613,0.498,1.111,1.118,1.111c0.614,0,1.112-0.498,1.112-1.111c0-0.615-0.498-1.113-1.112-1.113
	C31.74,22.509,31.242,23.007,31.242,23.622z M23.298,23.622c0,0.613,0.498,1.111,1.118,1.111c0.614,0,1.113-0.498,1.113-1.111
	c0-0.615-0.499-1.113-1.113-1.113C23.796,22.509,23.298,23.007,23.298,23.622z M56.69,46.821h-0.072v9.871H0.042v-9.871H0.003
	c1.949,0,3.238-1.102,4.257-3.57c0.017-0.072,0.039-0.127,0.077-0.188l0,0c0.1-0.15,0.249-0.25,0.416-0.25
	c0.177,0,0.321,0.1,0.41,0.25h0.017c0.005,0.027,0.011,0.033,0.022,0.055c0.017,0.039,0.033,0.061,0.044,0.1
	c1.019,2.496,2.303,3.604,4.268,3.604h0.011c1.949,0,3.244-1.102,4.263-3.57c0.011-0.072,0.033-0.127,0.072-0.188h0.005
	c0.094-0.15,0.238-0.25,0.415-0.25c0.172,0,0.321,0.1,0.416,0.25h0.005c0.005,0.027,0.017,0.033,0.022,0.055
	c0.017,0.039,0.033,0.061,0.044,0.1c1.002,2.441,2.259,3.543,4.152,3.588c1.882-0.045,3.145-1.141,4.141-3.555
	c0.017-0.072,0.045-0.127,0.078-0.188l0,0c0.1-0.15,0.243-0.25,0.415-0.25c0.166,0,0.315,0.1,0.421,0.25l0,0
	c0.011,0.027,0.017,0.033,0.021,0.055c0.017,0.039,0.039,0.061,0.05,0.1c1.019,2.496,2.304,3.604,4.274,3.604h0.011
	c1.954,0,3.232-1.102,4.252-3.57c0.017-0.072,0.044-0.127,0.077-0.188l0,0c0.1-0.15,0.243-0.25,0.415-0.25s0.321,0.1,0.421,0.25l0,0
	c0.011,0.027,0.022,0.033,0.027,0.055c0.017,0.039,0.033,0.061,0.045,0.1c1.007,2.459,2.27,3.561,4.179,3.594
	c1.899-0.033,3.161-1.135,4.169-3.561c0.017-0.072,0.039-0.127,0.077-0.188l0,0c0.1-0.15,0.238-0.25,0.41-0.25
	c0.177,0,0.326,0.1,0.415,0.25h0.011c0.006,0.027,0.017,0.033,0.033,0.055c0.012,0.039,0.022,0.061,0.039,0.1
	c1.013,2.496,2.303,3.604,4.269,3.604h0.011c1.954,0,3.238-1.102,4.257-3.57c0.017-0.072,0.039-0.127,0.078-0.188l0,0
	c0.1-0.15,0.243-0.25,0.415-0.25c0.177,0,0.321,0.1,0.415,0.25h0.006c0.011,0.027,0.021,0.033,0.033,0.055
	c0.011,0.039,0.027,0.061,0.033,0.1C53.44,45.714,54.725,46.821,56.69,46.821z"/>
</svg>
