<?xml version="1.0" encoding="utf-8"?>
<!-- Generator: Adobe Illustrator 16.0.0, SVG Export Plug-In . SVG Version: 6.00 Build 0)  -->
<!DOCTYPE svg PUBLIC "-//W3C//DTD SVG 1.1//EN" "http://www.w3.org/Graphics/SVG/1.1/DTD/svg11.dtd">
<svg version="1.1" id="Layer_1" xmlns="http://www.w3.org/2000/svg" xmlns:xlink="http://www.w3.org/1999/xlink" x="0px" y="0px"
	 width="56.693px" height="56.693px" viewBox="0 0 56.693 56.693" enable-background="new 0 0 56.693 56.693" xml:space="preserve">
<g>
	<path fill="#007BC0" d="M7.087,34.231h8.349c-0.559,0.742-0.891,1.65-0.891,2.652h-4.114l-3.344-0.848V34.231z M49.606,29.504v7.38
		h-3.543c0-0.105-0.017-0.211-0.022-0.315c-0.039-0.604-0.205-1.18-0.471-1.694c-0.73-1.434-2.22-2.414-3.937-2.414
		c-2.446,0-4.435,1.982-4.435,4.424H23.397c0-1.002-0.332-1.91-0.892-2.652h13.199V18.874h7.401v1.771l2.359,7.086L49.606,29.504z
		 M43.693,27.731l-1.766-5.314h-4.136v5.314H43.693z M22.218,36.884c0,1.794-1.456,3.25-3.244,3.25c-1.794,0-3.25-1.456-3.25-3.25
		c0-1.788,1.456-3.244,3.25-3.244C20.762,33.64,22.218,35.096,22.218,36.884z M20.745,36.884c0-0.975-0.797-1.771-1.771-1.771
		c-0.979,0-1.777,0.797-1.777,1.771c0,0.979,0.798,1.771,1.777,1.771C19.948,38.655,20.745,37.863,20.745,36.884z M44.879,36.884
		c0,1.794-1.456,3.25-3.245,3.25c-1.799,0-3.249-1.456-3.249-3.25c0-1.788,1.45-3.244,3.249-3.244
		C43.423,33.64,44.879,35.096,44.879,36.884z M43.406,36.884c0-0.975-0.798-1.771-1.772-1.771c-0.979,0-1.771,0.797-1.771,1.771
		c0,0.979,0.792,1.771,1.771,1.771C42.608,38.655,43.406,37.863,43.406,36.884z M34.182,16.56H7.087v16.653h27.095V16.56z"/>
</g>
</svg>
