<?xml version="1.0" encoding="utf-8"?>
<!-- Generator: Adobe Illustrator 16.0.0, SVG Export Plug-In . SVG Version: 6.00 Build 0)  -->
<!DOCTYPE svg PUBLIC "-//W3C//DTD SVG 1.1//EN" "http://www.w3.org/Graphics/SVG/1.1/DTD/svg11.dtd">
<svg version="1.1" id="Layer_1" xmlns="http://www.w3.org/2000/svg" xmlns:xlink="http://www.w3.org/1999/xlink" x="0px" y="0px"
	 width="56.693px" height="56.693px" viewBox="0 0 56.693 56.693" enable-background="new 0 0 56.693 56.693" xml:space="preserve">
<path fill="#007BC0" d="M20.742,36.884c0,0.979-0.797,1.771-1.766,1.771c-0.985,0-1.783-0.792-1.783-1.771
	c0-0.975,0.798-1.771,1.783-1.771C19.945,35.112,20.742,35.909,20.742,36.884z M56.69,11.339v34.016
	c0,6.239-5.099,11.339-11.339,11.339H11.336c-6.233,0-11.338-5.1-11.338-11.339V11.339C-0.002,5.104,5.103,0,11.336,0h34.016
	C51.592,0,56.69,5.104,56.69,11.339z M7.084,33.213H34.18V16.56H7.084V33.213z M15.434,34.231h-8.35v1.805l3.345,0.848h4.113
	C14.542,35.882,14.88,34.974,15.434,34.231z M22.215,36.884c0-1.788-1.45-3.244-3.238-3.244c-1.8,0-3.25,1.456-3.25,3.244
	c0,1.794,1.45,3.25,3.25,3.25C20.765,40.134,22.215,38.678,22.215,36.884z M44.882,36.884c0-1.788-1.462-3.244-3.25-3.244
	c-1.794,0-3.25,1.456-3.25,3.244c0,1.794,1.456,3.25,3.25,3.25C43.42,40.134,44.882,38.678,44.882,36.884z M49.604,29.504
	l-4.136-1.772l-2.363-7.086v-1.771h-7.402v15.357H22.503c0.56,0.742,0.897,1.65,0.897,2.652h13.802c0-2.441,1.982-4.424,4.43-4.424
	c1.722,0,3.205,0.98,3.941,2.414c0.261,0.515,0.427,1.091,0.465,1.694c0.012,0.104,0.022,0.21,0.022,0.315h3.543V29.504z
	 M37.795,22.417v5.314h5.901l-1.766-5.314H37.795z M41.632,35.112c-0.98,0-1.772,0.797-1.772,1.771c0,0.979,0.792,1.771,1.772,1.771
	c0.979,0,1.771-0.792,1.771-1.771C43.403,35.909,42.611,35.112,41.632,35.112z"/>
</svg>
