<?xml version="1.0" encoding="utf-8"?>
<!-- Generator: Adobe Illustrator 16.0.0, SVG Export Plug-In . SVG Version: 6.00 Build 0)  -->
<!DOCTYPE svg PUBLIC "-//W3C//DTD SVG 1.1//EN" "http://www.w3.org/Graphics/SVG/1.1/DTD/svg11.dtd">
<svg version="1.1" id="Layer_1" xmlns="http://www.w3.org/2000/svg" xmlns:xlink="http://www.w3.org/1999/xlink" x="0px" y="0px"
	 width="56.693px" height="56.693px" viewBox="0 0 56.693 56.693" enable-background="new 0 0 56.693 56.693" xml:space="preserve">
<path fill="#007BBF" d="M56.722,11.322v34.051c0,6.242-5.109,11.35-11.35,11.35H11.321c-6.246,0-11.35-5.107-11.35-11.35V11.322
	c0-6.242,5.104-11.352,11.35-11.352h34.051C51.612-0.029,56.722,5.08,56.722,11.322z"/>
<g>
	<path fill="#FFFFFF" d="M20.027,21.085L14.73,35.608h-4.194L5.238,21.085h3.936l3.512,10.195l3.511-10.195H20.027z"/>
	<path fill="#FFFFFF" d="M34.84,35.608h-3.87l-1.011-2.936h-5.376l-1.013,2.936h-3.774l5.366-14.523h4.312L34.84,35.608z
		 M29.059,30.011l-1.787-5.205l-1.788,5.205H29.059z"/>
	<path fill="#FFFFFF" d="M51.455,35.608h-3.727v-9.725l-2.693,6.311h-2.584l-2.693-6.311v9.725h-3.531V21.085h4.352l3.268,7.287
		l3.258-7.287h4.352V35.608z"/>
</g>
</svg>
