<?xml version="1.0" encoding="utf-8"?>
<!-- Generator: Adobe Illustrator 16.0.0, SVG Export Plug-In . SVG Version: 6.00 Build 0)  -->
<!DOCTYPE svg PUBLIC "-//W3C//DTD SVG 1.1//EN" "http://www.w3.org/Graphics/SVG/1.1/DTD/svg11.dtd">
<svg version="1.1" id="Layer_1" xmlns="http://www.w3.org/2000/svg" xmlns:xlink="http://www.w3.org/1999/xlink" x="0px" y="0px"
	 width="56.693px" height="56.693px" viewBox="0 0 56.693 56.693" enable-background="new 0 0 56.693 56.693" xml:space="preserve">
<path fill="#007BC0" d="M33.312,39.711c-0.193,0.57-3.926,3.494-5.509,1.91c-0.709-0.708-0.127-2.475,2.348-1.544
	C32.349,40.913,33.312,39.711,33.312,39.711z M25.296,39.922c-0.831-2.203,0.376-3.156,0.376-3.156
	c-0.581,0.188-3.493,3.92-1.91,5.498C24.465,42.978,26.231,42.396,25.296,39.922z M27.804,42.424
	c-2.475-0.93-3.051,0.837-2.342,1.545c1.583,1.578,5.31-1.34,5.497-1.91C30.959,42.059,30.002,43.261,27.804,42.424z M56.692,11.315
	v34.016c0,6.233-5.104,11.339-11.338,11.339H11.339C5.099,56.67,0,51.564,0,45.331V11.315C0,5.075,5.099-0.023,11.339-0.023h34.016
	C51.588-0.023,56.692,5.075,56.692,11.315z M36.059,29.885H20.634c0,0-7.413,5.829-4.977,16.575c0,0,0.808,3.106,4.534,3.106h16.31
	c3.721,0,4.535-3.106,4.535-3.106C43.466,35.714,36.059,29.885,36.059,29.885z M21.636,27.653h13.421l3.721-3.466
	c0,0-1.85-2.597-4.911-2.929c-2.984-0.332-4.025,1.494-5.52,1.572c-1.495-0.078-2.536-1.904-5.525-1.572
	c-3.051,0.332-4.905,2.929-4.905,2.929L21.636,27.653z M49.606,17.66L28.374,7.102L28.363,7.08l-0.017,0.011L28.324,7.08
	l-0.006,0.021L7.087,17.66l1.766,3.56l19.494-9.688l19.487,9.688L49.606,17.66z M32.427,37.802c-2.475-0.931-3.045,0.83-2.342,1.539
	c1.577,1.583,5.31-1.335,5.497-1.905C35.582,37.436,34.625,38.643,32.427,37.802z M23.241,43.338l-1.871,2.286
	c-0.21,0.216,0.332,1.124,0.775,0.676l2.203-1.86c0.188-0.188-0.227-0.266-0.531-0.57S23.43,43.144,23.241,43.338z M34.592,33.167
	c-0.549,0.128-5.155,1.993-3.488,3.671C32.786,38.516,34.592,33.167,34.592,33.167z M28.385,37.641
	c0.709,0.709,2.47,0.128,1.534-2.342c-0.831-2.203,0.376-3.161,0.376-3.161C29.714,32.331,26.808,36.058,28.385,37.641z
	 M26.109,39.916c0.703,0.709,2.47,0.133,1.528-2.342c-0.83-2.198,0.376-3.161,0.376-3.161
	C27.443,34.606,24.521,38.339,26.109,39.916z"/>
</svg>
