<svg width="132" height="57" viewBox="0 0 132 57" fill="none" xmlns="http://www.w3.org/2000/svg">
<path fill-rule="evenodd" clip-rule="evenodd" d="M35.7628 3.695H36.3108C36.8218 3.695 37.2058 3.594 37.4598 3.391C37.7138 3.189 37.8408 2.894 37.8408 2.508C37.8408 2.118 37.7338 1.83 37.5218 1.643C37.3078 1.457 36.9748 1.363 36.5198 1.363H35.7628V3.695ZM39.5228 2.449C39.5228 3.294 39.2578 3.94 38.7298 4.387C38.2018 4.836 37.4508 5.059 36.4768 5.059H35.7628V7.852H34.0978V0H36.6058C37.5578 0 38.2818 0.204 38.7778 0.615C39.2738 1.025 39.5228 1.636 39.5228 2.449ZM29.9858 7.852H28.3478V0H32.8488V1.363H29.9858V3.389H32.6498V4.748H29.9858V7.852ZM25.4608 7.852H23.5648L22.5018 3.727C22.4618 3.58 22.3948 3.277 22.2998 2.817C22.2311 2.51065 22.1763 2.20133 22.1358 1.89C22.1148 2.084 22.0608 2.395 21.9758 2.822C21.8888 3.25 21.8228 3.556 21.7768 3.738L20.7178 7.852H18.8278L16.8238 0H18.4628L19.4668 4.285C19.6428 5.077 19.7688 5.763 19.8478 6.343C19.8698 6.139 19.9188 5.823 19.9958 5.395C20.0728 4.966 20.1458 4.634 20.2138 4.399L21.3578 0H22.9308L24.0748 4.399C24.2223 5.04159 24.3425 5.69018 24.4348 6.343C24.4708 6.063 24.5278 5.715 24.6068 5.298C24.6858 4.881 24.7568 4.544 24.8218 4.285L25.8208 0H27.4588L25.4608 7.852ZM21.3878 35.165C18.3368 35.165 16.3788 35.889 15.8438 36.114C15.8128 36.128 15.7868 36.083 15.8118 36.058C19.1638 32.573 23.0888 32.765 24.0338 32.765H35.1948C35.7578 32.765 36.2138 33.302 36.2138 33.966C36.2138 34.628 35.7578 35.165 35.1948 35.165H21.3878ZM23.9028 38.25C20.6148 38.25 19.6568 36.382 14.6808 37.615C14.6468 37.624 14.6238 37.577 14.6528 37.557C17.4268 35.654 20.4438 35.827 21.6638 35.827H35.1948C35.7578 35.827 36.2138 36.364 36.2138 37.026C36.2138 37.688 35.7578 38.225 35.1948 38.225C35.1948 38.225 26.5058 38.25 23.9028 38.25ZM24.1358 41.287C20.7618 41.287 20.4918 38.797 15.4898 38.236C15.4548 38.232 15.4508 38.18 15.4848 38.172C19.5938 37.144 21.1228 38.887 23.5218 38.887H35.1948C35.7578 38.887 36.2138 39.424 36.2138 40.087C36.2138 40.75 35.7578 41.287 35.1948 41.287H24.1358ZM23.4038 32.104C20.6878 32.104 18.4358 33.289 17.9088 33.588C17.8788 33.604 17.8498 33.569 17.8688 33.542C18.3098 32.893 20.6888 29.705 24.7788 29.705H35.1948C35.7578 29.705 36.2138 30.242 36.2138 30.905C36.2138 31.567 35.7578 32.104 35.1948 32.104H23.4038ZM38.3448 25.479C38.2237 25.3632 38.0674 25.291 37.9008 25.274C37.7784 25.2579 37.654 25.2727 37.5388 25.317C37.5858 25.218 37.6258 25.112 37.6408 24.987C37.6671 24.8119 37.6381 24.6329 37.5578 24.475C37.2218 23.739 38.1818 22.266 38.0608 22.2C37.9458 22.136 37.3998 23.76 36.8698 24.416C36.7574 24.5564 36.688 24.7262 36.6698 24.905C36.649 25.0808 36.6792 25.2589 36.7568 25.418C36.8308 25.55 36.9428 25.644 37.0748 25.652C37.1105 25.6565 37.1468 25.6545 37.1818 25.646C37.1735 25.6649 37.1675 25.6847 37.1638 25.705C37.155 25.7763 37.1633 25.8487 37.188 25.9161C37.2126 25.9836 37.253 26.0442 37.3058 26.093C37.4241 26.2113 37.5801 26.2845 37.7468 26.3C37.9169 26.3249 38.0904 26.2922 38.2398 26.207C38.9588 25.814 40.4498 25.426 40.4178 25.288C40.3888 25.15 38.9348 26.003 38.3448 25.479ZM39.4438 24.405C39.3377 24.2907 39.1931 24.2198 39.0378 24.206C38.9464 24.2015 38.8551 24.2162 38.7698 24.249C38.7828 24.203 38.8008 24.164 38.8068 24.118C38.825 23.9568 38.7887 23.7942 38.7038 23.656C38.3388 22.979 39.2918 21.7 39.1688 21.637C39.0458 21.573 38.5228 23.005 37.9928 23.571C37.8795 23.6854 37.8099 23.8357 37.7958 23.996C37.7788 24.1577 37.8139 24.3206 37.8958 24.461C37.9798 24.584 38.0948 24.671 38.2338 24.69C38.2942 24.6933 38.3547 24.6862 38.4128 24.669C38.4098 24.676 38.4018 24.687 38.4048 24.695C38.3991 24.7673 38.4085 24.8401 38.4325 24.9086C38.4564 24.9771 38.4943 25.0399 38.5438 25.093C38.6438 25.2 38.7878 25.274 38.9478 25.288C39.1016 25.3044 39.2561 25.2627 39.3808 25.171C40.0008 24.724 41.4178 24.459 41.3808 24.315C41.3468 24.177 39.9898 24.926 39.4438 24.405ZM40.4078 23.412C40.2958 23.3296 40.1569 23.2924 40.0188 23.308C39.9505 23.3124 39.8836 23.3297 39.8218 23.359C39.8328 23.329 39.8508 23.305 39.8618 23.276C39.8992 23.1337 39.8908 22.9832 39.8378 22.846C39.6068 22.181 40.6298 21.198 40.5308 21.118C40.4308 21.044 39.7668 22.235 39.2208 22.654C39.1064 22.7429 39.025 22.8675 38.9898 23.008C38.948 23.1489 38.9554 23.2998 39.0108 23.436C39.0338 23.4952 39.0694 23.5486 39.1152 23.5927C39.161 23.6367 39.2157 23.6702 39.2758 23.691C39.3678 23.72 39.4598 23.701 39.5468 23.664C39.5263 23.7182 39.5181 23.7763 39.5228 23.834C39.5358 23.97 39.6018 24.084 39.7098 24.164C39.8215 24.2471 39.9599 24.2862 40.0985 24.2739C40.2372 24.2615 40.3665 24.1986 40.4618 24.097C40.9528 23.6 42.1758 23.135 42.1268 23.016C42.0738 22.896 40.9748 23.781 40.4078 23.412ZM42.3018 21.278C42.1998 21.127 41.3438 22.065 40.7118 22.155C40.5765 22.1757 40.4511 22.2379 40.3528 22.333C40.2428 22.4269 40.1654 22.5533 40.1318 22.694C40.1161 22.7487 40.1129 22.8062 40.1224 22.8623C40.1319 22.9183 40.1539 22.9716 40.1868 23.018C40.2231 23.0603 40.2696 23.0925 40.322 23.1116C40.3744 23.1307 40.4308 23.136 40.4858 23.127C40.6239 23.108 40.7521 23.0445 40.8508 22.946C40.9554 22.8507 41.0301 22.727 41.0658 22.59C41.2578 21.947 42.3778 21.376 42.3018 21.278ZM24.6078 22.548C24.5828 22.641 24.3978 23.364 24.3978 23.364C24.3458 23.393 24.1258 23.345 24.0678 23.34C23.6458 23.3 23.2678 22.933 23.4298 22.495C23.5628 22.137 23.8338 22.099 24.1778 22.083C24.3208 22.077 24.5778 22.111 24.7068 22.2C24.7068 22.2 24.6558 22.365 24.6078 22.548ZM24.1228 24.73L24.0838 24.977C23.8208 24.812 23.6668 24.435 23.7928 24.137C23.8898 23.911 24.1298 23.852 24.3068 23.842C24.2427 24.1374 24.1814 24.4334 24.1228 24.73ZM23.7448 27.426C23.7118 27.611 23.4618 27.636 23.2908 27.687C22.7948 27.836 22.3248 27.772 22.1728 27.179C22.0078 26.545 22.4878 26.278 23.0028 26.154C23.2828 26.088 23.5428 26.143 23.7348 26.38C23.7828 26.439 23.8398 26.492 23.8528 26.548C23.8528 26.548 23.7758 27.252 23.7448 27.426ZM22.1838 24.304C22.5668 24.212 22.9628 24.068 23.2568 24.445C23.5668 24.841 23.4638 25.476 22.9658 25.644C22.6378 25.755 22.2408 25.851 21.9608 25.583C21.5928 25.232 21.6198 24.435 22.1838 24.304ZM21.8088 22.248C22.2118 22.15 22.6298 22.001 22.9398 22.397C23.2618 22.811 23.1548 23.481 22.6318 23.656C22.2858 23.77 21.8688 23.871 21.5748 23.589C21.1888 23.223 21.2178 22.386 21.8088 22.248ZM21.4328 26.693C21.3278 27.063 21.0228 27.118 20.7038 27.195C20.4938 26.938 19.9298 26.286 19.9198 26.209C19.917 26.1785 19.9211 26.1477 19.9318 26.119C19.9578 26.042 20.0468 25.968 20.1128 25.925C20.3048 25.8 20.7138 25.708 20.9348 25.753C21.3308 25.838 21.5378 26.321 21.4328 26.693ZM19.4278 24.794C19.1388 23.77 20.8558 23.324 21.1208 24.328C21.3938 25.36 19.6618 25.798 19.4278 24.794ZM19.1758 22.75C18.8818 21.733 20.6068 21.286 20.8718 22.285C21.1448 23.318 19.4098 23.757 19.1758 22.75ZM18.9348 20.741C18.6538 19.793 20.2728 19.373 20.5198 20.308C20.7738 21.27 19.1548 21.685 18.9348 20.741ZM18.7688 24.608C18.6898 24.655 18.6598 24.68 18.6328 24.68L17.8628 23.842C17.8718 23.818 18.1098 23.646 18.1898 23.6C18.8298 23.244 19.3568 24.262 18.7688 24.608ZM17.3078 22.721C16.9268 21.881 18.3128 20.97 18.7328 21.876C19.1178 22.71 17.7318 23.637 17.3078 22.721ZM18.4728 20.061C18.9108 20.84 17.5908 21.709 17.2128 20.871C16.8768 20.149 18.0498 19.306 18.4728 20.061ZM17.3648 18.246C17.5598 18.074 17.7848 17.981 18.0158 18.092C18.3858 18.27 18.3968 18.825 18.0738 19.046C17.9268 19.147 17.6778 19.272 17.4968 19.227C17.0998 19.126 17.0238 18.547 17.3648 18.246ZM17.4148 16.577C17.5748 16.469 17.7878 16.372 17.9718 16.447C18.3058 16.584 18.2938 17.069 18.0238 17.263C17.8998 17.351 17.6778 17.46 17.5278 17.42C17.1898 17.335 17.1068 16.786 17.4148 16.577ZM18.3018 14.199C18.5008 14.092 18.7878 14.047 18.9658 14.247C19.0146 14.3003 19.0504 14.3641 19.0705 14.4336C19.0905 14.5031 19.0942 14.5762 19.0812 14.6473C19.0682 14.7184 19.0389 14.7855 18.9956 14.8434C18.9524 14.9013 18.8963 14.9484 18.8318 14.981C18.6198 15.087 18.3338 15.127 18.1658 14.93C18.1198 14.8757 18.0865 14.8118 18.0683 14.743C18.05 14.6742 18.0473 14.6022 18.0604 14.5322C18.0734 14.4623 18.1018 14.3961 18.1435 14.3384C18.1853 14.2808 18.2393 14.2332 18.3018 14.199ZM18.1448 16.006C17.9838 15.411 18.9868 15.13 19.1498 15.735C19.3308 16.322 18.3048 16.615 18.1448 16.006ZM19.7608 17.045C19.9948 17.688 18.9058 18.052 18.6928 17.417C18.4758 16.774 19.5698 16.407 19.7608 17.045ZM19.8978 13.912C20.1058 13.829 20.3718 13.739 20.6038 13.912C20.8928 14.128 20.8298 14.614 20.4988 14.765C20.2808 14.864 20.0028 14.93 19.8088 14.757C19.5618 14.537 19.5478 14.052 19.8978 13.912ZM19.7058 19.293C19.4118 19.362 19.1048 19.479 18.8608 19.227C18.5488 18.905 18.6378 18.342 19.0608 18.188C19.3338 18.084 19.6798 18.026 19.9028 18.254C20.1888 18.547 20.1578 19.184 19.7058 19.293ZM19.7108 16.009C19.5228 15.371 20.5618 15.044 20.7608 15.663C20.9658 16.298 19.8898 16.636 19.7108 16.009ZM21.4508 17.178C21.6948 17.906 20.4648 18.294 20.2388 17.577C20.0108 16.843 21.2498 16.455 21.4508 17.178ZM21.5168 15.228C21.7338 15.17 21.9628 15.191 22.1278 15.368C22.3798 15.639 22.2938 16.102 21.9208 16.171C21.7458 16.203 21.4748 16.19 21.3378 16.07C21.0918 15.852 21.1038 15.339 21.5168 15.228ZM22.5668 16.756C22.9628 16.756 23.1628 17.338 22.9318 17.627C22.7928 17.802 22.4928 17.813 22.2888 17.781C21.9108 17.723 21.6688 17.236 21.9238 16.907C22.0788 16.708 22.3438 16.756 22.5668 16.756ZM20.6638 19.152C20.4198 18.315 21.8418 17.941 22.0598 18.772C22.2808 19.617 20.8508 19.989 20.6638 19.152ZM21.5358 20.223C21.9238 20.183 22.3278 20.093 22.5668 20.5C22.8158 20.93 22.6298 21.528 22.1258 21.629C21.7948 21.698 21.3938 21.73 21.1578 21.437C20.8478 21.05 20.9708 20.276 21.5358 20.223ZM23.5098 18.359C23.9898 18.557 24.1518 19.123 23.8138 19.439C23.6318 19.604 23.3018 19.572 23.0788 19.527C22.6318 19.439 22.3408 18.769 22.7318 18.451C22.9328 18.288 23.2918 18.268 23.5098 18.359ZM24.2648 20.377C24.5658 20.747 24.4538 21.4 23.9258 21.432C23.6508 21.448 23.2908 21.416 23.1048 21.19C22.8058 20.829 22.9188 20.151 23.4458 20.133C23.7218 20.122 24.0788 20.151 24.2648 20.377ZM26.3038 13.713C26.2898 13.6914 26.2692 13.6749 26.245 13.6659C26.2209 13.6569 26.1945 13.6559 26.1698 13.663C26.1068 13.684 26.0648 13.753 26.0888 13.814C27.2938 17.051 25.7548 18.645 25.1118 20.911C24.3408 19.07 26.8968 17.338 25.5798 13.982C25.5608 13.939 25.5268 13.904 25.4798 13.897C25.4138 13.888 25.3508 13.915 25.3408 14.003C25.3068 14.239 25.1518 16.099 23.6428 17.189C23.4817 16.8036 23.2423 16.456 22.9398 16.168C22.7998 15.541 22.3908 14.68 21.5298 14.426C21.4008 14.101 21.1418 13.636 20.6428 13.386C20.1728 13.152 19.6298 13.173 19.0258 13.447C18.2968 13.532 17.7948 13.817 17.5308 14.292C17.2808 14.741 17.3258 15.23 17.4098 15.563C16.7958 16.219 16.7668 17.191 16.7828 17.572C16.4178 18.448 16.6228 19.471 16.7378 19.896C16.3018 21.087 16.7278 22.242 16.8978 22.625C16.8978 22.729 16.9028 22.827 16.9088 22.925C15.4808 21.363 12.2318 19.428 10.9908 18.69C10.9626 18.6728 10.9294 18.6655 10.8966 18.6693C10.8639 18.6731 10.8333 18.6878 10.8098 18.711C10.7949 18.7248 10.7829 18.7413 10.7744 18.7598C10.766 18.7782 10.7613 18.7981 10.7605 18.8183C10.7598 18.8386 10.763 18.8588 10.7701 18.8778C10.7772 18.8968 10.7879 18.9142 10.8018 18.929C13.5698 21.629 16.0398 24.961 18.4118 31.875C19.5958 30.644 21.7348 29.026 24.7788 29.026H28.3398C26.0778 20.598 29.3718 17.582 26.3038 13.713ZM43.1398 18.071C42.4888 17.901 38.3318 17.165 33.6728 25.734C34.3528 22.543 36.4188 18.682 36.9848 17.561V17.553C37.0014 17.5212 37.0063 17.4845 36.9987 17.4494C36.991 17.4143 36.9712 17.383 36.9428 17.361C36.913 17.3406 36.8765 17.3328 36.841 17.3394C36.8056 17.346 36.7742 17.3663 36.7538 17.396C33.6758 22.529 32.5948 25.487 31.9568 29.026H33.8858C34.2138 25.614 38.5228 17.577 43.1158 18.174H43.1208C43.1478 18.18 43.1708 18.158 43.1738 18.135C43.1838 18.105 43.1658 18.076 43.1398 18.071ZM33.8778 46.303L32.8358 41.948H31.0618C31.3428 43.053 31.7438 44.177 32.2638 45.163C32.279 45.1913 32.3024 45.2144 32.331 45.2292C32.3595 45.244 32.3918 45.2498 32.4238 45.246C32.4667 45.2384 32.5048 45.2142 32.5299 45.1786C32.555 45.143 32.565 45.0989 32.5578 45.056C32.4368 44.134 32.2928 43.245 32.1558 42.357C32.5318 43.752 33.0378 45.115 33.7208 46.37C33.7388 46.409 33.7778 46.427 33.8148 46.415C33.8648 46.404 33.8908 46.351 33.8778 46.303ZM35.6708 44.326C35.4888 43.598 35.2998 42.705 35.1378 41.948H34.4628C34.7258 42.756 35.0798 43.657 35.3948 44.427C35.4258 44.502 35.4968 44.539 35.5648 44.52C35.604 44.5075 35.6369 44.4804 35.6567 44.4442C35.6764 44.4081 35.6814 44.3658 35.6708 44.326ZM35.8958 46.887L35.8908 46.877C35.6728 46.268 35.3708 45.723 35.1318 45.139C34.8728 44.5624 34.6373 43.9756 34.4258 43.38C34.2558 42.931 34.0748 42.416 33.9358 41.948H33.2848C33.4688 42.493 33.7078 43.08 33.9308 43.606C34.4208 44.794 34.9878 45.958 35.7098 46.999C35.7233 47.0178 35.7428 47.0315 35.7652 47.0379C35.7875 47.0443 35.8113 47.0429 35.8328 47.034C35.8908 47.012 35.9168 46.946 35.8958 46.887ZM36.8698 25.987C36.8198 25.912 36.6988 25.896 36.6418 25.957C35.785 26.8737 35.0622 27.9069 34.4948 29.026H35.1978C35.5498 28.2 36.3418 26.741 36.8518 26.215L36.8568 26.21C36.8832 26.1795 36.8989 26.1411 36.9012 26.1007C36.9036 26.0604 36.8925 26.0204 36.8698 25.987ZM31.5158 19.942C32.1668 18.873 33.1328 18.055 33.9518 17.067C33.9661 17.0482 33.9731 17.0249 33.9715 17.0013C33.9698 16.9777 33.9596 16.9556 33.9428 16.939C33.9355 16.9308 33.9266 16.9241 33.9166 16.9195C33.9067 16.9149 33.8959 16.9123 33.8849 16.9121C33.8739 16.9118 33.863 16.9138 33.8528 16.9179C33.8427 16.922 33.8335 16.9282 33.8258 16.936C33.6388 17.135 33.4448 17.322 33.2458 17.507C33.1588 17.465 32.9388 17.55 32.7148 17.725C32.5398 17.864 32.4138 18.018 32.3688 18.129C32.2558 18.103 32.0438 18.235 31.8518 18.48C31.6938 18.685 31.6028 18.9 31.6048 19.033C31.4838 19.043 31.3088 19.197 31.1588 19.442C31.0618 19.604 30.9988 19.761 30.9778 19.891C30.853 19.9877 30.7481 20.1076 30.6688 20.244C30.5348 20.468 30.4658 20.693 30.4868 20.823C30.4558 20.88 30.4238 20.933 30.3978 20.988L30.4138 20.856C30.6058 19.343 30.8828 17.845 31.3058 16.4C31.7308 14.959 32.2398 13.506 33.1138 12.339L33.1198 12.334C33.1414 12.3024 33.1517 12.2644 33.1488 12.2262C33.1458 12.188 33.13 12.1519 33.1038 12.124C33.091 12.1095 33.0754 12.0977 33.0578 12.0896C33.0403 12.0815 33.0213 12.0772 33.0019 12.0769C32.9826 12.0766 32.9634 12.0804 32.9457 12.088C32.9279 12.0956 32.9119 12.1068 32.8988 12.121C32.6031 12.4442 32.3401 12.7959 32.1138 13.171C32.0148 13.118 31.8048 13.315 31.6448 13.623C31.4978 13.901 31.4448 14.159 31.5008 14.258C31.5008 14.258 31.4978 14.266 31.4918 14.263C31.3868 14.218 31.1928 14.452 31.0748 14.765C30.9598 15.06 30.9388 15.331 31.0178 15.422C31.0118 15.427 31.0118 15.43 31.0088 15.435C30.8918 15.392 30.6998 15.661 30.5818 16.041C30.4838 16.362 30.4738 16.641 30.5448 16.753C30.5498 16.758 30.5448 16.772 30.5398 16.769C30.4188 16.726 30.2348 17.003 30.1278 17.38C30.0198 17.744 30.0278 18.066 30.1298 18.129C30.0118 18.116 29.8468 18.392 29.7598 18.767C29.6818 19.091 29.6898 19.37 29.7658 19.482C29.6498 19.516 29.5218 19.787 29.4558 20.138C29.3928 20.481 29.4238 20.765 29.5078 20.856C29.4008 20.911 29.2908 21.19 29.2508 21.536C29.2118 21.879 29.2618 22.16 29.3508 22.251C29.2618 22.351 29.1748 22.59 29.1378 22.878C29.1018 23.151 29.1248 23.388 29.1778 23.521C29.0808 23.603 29.0068 23.88 29.0038 24.212C28.9968 24.477 29.0358 24.703 29.1038 24.833C29.0421 25.0069 29.012 25.1905 29.0148 25.375C29.0098 25.654 29.0538 25.893 29.1248 26.018C29.1038 26.999 29.1168 28.043 29.1698 29.026H31.2878C31.3028 28.261 31.3538 27.426 31.4288 26.669C31.5788 25.319 31.8018 23.948 32.4768 22.795L32.4818 22.787C32.4925 22.767 32.497 22.7441 32.4947 22.7215C32.4924 22.6989 32.4834 22.6775 32.4688 22.66C32.4288 22.625 32.3738 22.625 32.3368 22.668C31.4208 23.731 31.0198 25.174 30.7838 26.558C30.7418 26.829 30.7078 27.102 30.6758 27.374C30.7338 26.263 30.8358 25.157 31.0908 24.105C31.3818 22.824 31.9648 21.605 33.0748 20.922C33.0927 20.9103 33.1063 20.8929 33.1134 20.8727C33.1204 20.8524 33.1206 20.8304 33.1138 20.81C33.1079 20.7867 33.093 20.7667 33.0724 20.7543C33.0518 20.742 33.0271 20.7382 33.0038 20.744C32.9328 20.765 32.8678 20.802 32.7988 20.832C32.7258 20.741 32.4558 20.808 32.1768 20.985C31.9118 21.158 31.7358 21.371 31.7548 21.488C31.7548 21.493 31.7418 21.501 31.7418 21.49C31.7401 21.4778 31.7357 21.4662 31.7288 21.456C31.6288 21.374 31.3608 21.56 31.1348 21.876C30.9068 22.192 30.8178 22.522 30.9148 22.607C30.9198 22.609 30.9178 22.617 30.9128 22.617C30.7938 22.569 30.5978 22.838 30.4738 23.213C30.3848 23.475 30.3638 23.717 30.3958 23.856C30.3958 23.86 30.3898 23.866 30.3898 23.866C30.2978 24.169 30.2218 24.475 30.1508 24.785C30.1778 24.347 30.2168 23.906 30.2798 23.47C30.4658 22.216 30.8438 20.988 31.5158 19.942ZM38.1788 16.444C38.0257 16.3781 37.8551 16.3651 37.6938 16.407C37.5735 16.438 37.462 16.4961 37.3678 16.577C37.3835 16.4619 37.3774 16.3448 37.3498 16.232C37.315 16.0596 37.2268 15.9025 37.0978 15.783C36.5258 15.212 36.9188 13.492 36.7858 13.471C36.6548 13.453 36.7018 15.167 36.4318 15.969C36.3737 16.1397 36.3671 16.3236 36.4128 16.498C36.4525 16.6709 36.543 16.828 36.6728 16.949C36.7858 17.048 36.9218 17.093 37.0508 17.053C37.0862 17.0469 37.1195 17.0321 37.1478 17.01C37.1478 17.032 37.1478 17.053 37.1498 17.074C37.1798 17.215 37.2788 17.324 37.4158 17.388C37.5692 17.4568 37.7417 17.4699 37.9038 17.425C38.0708 17.3869 38.221 17.2957 38.3318 17.165C38.8698 16.54 40.1348 15.65 40.0588 15.531C39.9818 15.414 38.9138 16.726 38.1788 16.444ZM40.6258 14.279C40.5438 14.162 39.5308 15.344 38.8408 15.049C38.7003 14.9801 38.5395 14.9651 38.3888 15.007C38.3021 15.0353 38.2219 15.0805 38.1528 15.14C38.1498 15.092 38.1528 15.049 38.1428 15.007C38.1059 14.849 38.0159 14.7085 37.8878 14.609C37.3108 14.104 37.7648 12.568 37.6278 12.552C37.4888 12.536 37.4918 14.064 37.1918 14.781C37.1249 14.9279 37.1122 15.0936 37.1558 15.249C37.1978 15.419 37.2928 15.56 37.4108 15.65C37.4656 15.693 37.5292 15.7236 37.5971 15.7396C37.6649 15.7557 37.7354 15.7568 37.8038 15.743C37.8617 15.7257 37.9159 15.6979 37.9638 15.661C37.9638 15.669 37.9608 15.679 37.9638 15.687C37.9838 15.7572 38.0182 15.8224 38.0646 15.8787C38.1111 15.9349 38.1687 15.981 38.2338 16.014C38.3735 16.0796 38.5322 16.0927 38.6808 16.051C38.8303 16.0123 38.9603 15.9197 39.0458 15.791C39.4728 15.151 40.7068 14.401 40.6258 14.279ZM40.8748 12.799C40.7848 12.706 40.0588 13.923 39.3998 13.777C39.2665 13.7396 39.124 13.7539 39.0008 13.817C38.9375 13.8444 38.8804 13.8842 38.8328 13.934C38.8328 13.904 38.8408 13.875 38.8408 13.843C38.8279 13.6969 38.7679 13.559 38.6698 13.45C38.2268 12.908 38.8428 11.625 38.7248 11.585C38.6048 11.55 38.3948 12.9 38.0268 13.487C37.9491 13.6095 37.9159 13.7549 37.9328 13.899C37.9428 14.056 38.0088 14.197 38.1008 14.295C38.1948 14.393 38.3108 14.447 38.4368 14.439C38.5302 14.4307 38.6172 14.388 38.6808 14.319C38.6808 14.372 38.6908 14.43 38.7168 14.486C38.7439 14.5447 38.7836 14.5968 38.833 14.6386C38.8824 14.6804 38.9403 14.7109 39.0028 14.728C39.1268 14.768 39.2738 14.757 39.4048 14.693C39.5308 14.6321 39.6314 14.5287 39.6888 14.401C39.9768 13.761 40.9608 12.892 40.8748 12.799ZM40.4388 11.109C40.2898 11.003 39.8148 12.185 39.2498 12.493C39.1305 12.5614 39.0346 12.6642 38.9748 12.788C38.9074 12.9153 38.8799 13.0599 38.8958 13.203C38.9088 13.328 38.9668 13.434 39.0588 13.487C39.1069 13.514 39.1613 13.5279 39.2165 13.5276C39.2717 13.5272 39.3259 13.5126 39.3738 13.485C39.4959 13.4174 39.5939 13.3132 39.6538 13.187C39.7195 13.0602 39.7469 12.9171 39.7328 12.775C39.6908 12.106 40.5438 11.175 40.4388 11.109ZM30.0808 41.948H24.1358C23.7318 41.948 23.3668 41.916 23.0308 41.855C23.0338 41.855 23.0338 41.857 23.0338 41.857C24.0098 43.308 25.5398 44.409 27.0908 45.147C27.3298 46.47 27.6288 47.695 27.7368 47.791C27.8468 47.886 29.3688 47.448 29.4168 47.307C29.4608 47.167 28.7938 44.9 28.7938 44.9C29.5948 43.526 29.8418 42.715 30.0808 41.948ZM45.0338 52.117C43.5328 52.71 41.5748 52.759 39.9768 52.335C36.3158 51.195 32.2508 49.035 28.3478 50.828C24.4458 49.035 20.3808 51.195 16.7198 52.335C15.1218 52.759 13.1638 52.71 11.6628 52.117C11.6541 52.1132 11.6443 52.1127 11.6354 52.1157C11.6264 52.1187 11.6189 52.1249 11.6142 52.1332C11.6096 52.1414 11.6082 52.1511 11.6104 52.1603C11.6125 52.1695 11.618 52.1776 11.6258 52.183C13.7858 53.854 16.8118 54.623 19.5358 53.639C22.1518 52.824 24.3648 50.052 27.4638 51.235C25.0098 52.194 22.7158 53.964 20.9448 55.634L22.2328 56.692C23.8418 54.819 25.6528 52.946 27.7028 51.806C27.9828 51.641 28.1508 51.575 28.3478 51.564C28.5458 51.575 28.7128 51.641 28.9908 51.806C31.0438 52.946 32.8548 54.819 34.4628 56.692L35.7518 55.634C33.9808 53.964 31.6868 52.194 29.2328 51.235C32.3318 50.052 34.5448 52.824 37.1608 53.639C39.8848 54.623 42.9108 53.854 45.0708 52.183C45.1048 52.154 45.0758 52.101 45.0338 52.117ZM20.9048 49.592C17.0788 48.665 16.0318 45.078 12.8328 43.521C12.7988 43.503 12.7618 43.543 12.7828 43.574C13.7908 45.232 14.3368 47.772 17.2418 49.338C17.2658 49.35 17.2528 49.388 17.2258 49.38C13.0588 48.578 11.3078 49.693 6.94076 47.719C6.90376 47.703 6.86476 47.743 6.88876 47.778C8.32376 49.861 11.7298 51.285 16.3968 50.892C18.0768 50.749 19.2938 50.042 20.9048 49.665C20.9448 49.654 20.9448 49.6 20.9048 49.592ZM12.8908 47.392C11.4368 45.487 11.8508 41.42 8.56776 37.697C8.54176 37.668 8.49476 37.691 8.50276 37.728C9.12976 40.47 8.94276 43.585 10.6598 45.867C10.6758 45.891 10.6518 45.915 10.6278 45.899C7.24276 43.234 3.76276 42.431 2.21376 40.274C2.19076 40.245 2.14376 40.26 2.14876 40.298C2.53176 43.09 7.89576 47.443 12.8618 47.451C12.8908 47.451 12.9088 47.417 12.8908 47.392ZM7.80676 42.328C6.24776 39.437 8.11076 35.026 6.34276 30.74C6.32376 30.695 6.25576 30.706 6.25576 30.754C6.20376 33.094 4.74976 36.589 5.62876 39.227C5.63876 39.251 5.60776 39.264 5.59476 39.243C3.35576 35.972 1.57976 35.289 0.0987629 32.295C0.0777629 32.25 0.00976285 32.262 0.00676285 32.31C-0.0872371 34.345 0.812763 36.004 1.82876 37.545C3.42148 39.5769 5.44643 41.2288 7.75676 42.381C7.79176 42.397 7.82276 42.362 7.80676 42.328ZM6.74976 24.722C6.74676 24.674 6.68376 24.658 6.65976 24.7C5.47076 26.924 3.35376 28.694 3.28476 31.631C3.28276 31.66 3.25076 31.662 3.24576 31.635C2.85976 29.369 0.936763 26.829 0.852763 23.547C0.852763 23.497 0.781763 23.484 0.762763 23.531C-0.819237 27.799 1.45576 31.845 3.87776 35.188C3.90476 35.222 3.95676 35.202 3.95676 35.156C3.85776 31.614 6.92776 28.97 6.74976 24.722ZM8.26076 19.2C7.13776 20.76 4.61076 21.863 3.68676 24.113C3.67376 24.145 3.63376 24.137 3.63976 24.1C4.00676 21.578 3.03276 18.65 3.94676 15.3C3.95976 15.252 3.89976 15.22 3.87076 15.257C2.48976 16.955 2.02276 18.945 1.94676 21.095C1.85276 23.736 2.78076 25.662 3.24076 27.453C3.25076 27.496 3.30576 27.493 3.31676 27.45C3.97776 25.102 7.29776 23.688 8.33676 19.237C8.35076 19.19 8.28976 19.16 8.26076 19.2ZM11.3078 13.955C9.46076 15.403 6.63876 16.798 6.03276 17.805C6.02276 17.826 5.99076 17.81 5.99576 17.789L6.68076 14.502C6.98776 13.107 7.25276 11.771 8.02476 10.522C8.04876 10.485 8.00376 10.442 7.96976 10.469C4.45276 13.254 4.96676 17.281 4.81176 20.579C4.80976 20.614 4.85176 20.63 4.87576 20.606C6.94576 18.36 10.3208 17.053 11.3658 14C11.3788 13.963 11.3388 13.931 11.3078 13.955ZM13.9248 8.906C10.8168 9.005 8.53376 11.622 7.55476 14.954C7.54976 14.973 7.57576 14.989 7.59176 14.978C11.8728 11.84 11.6328 10.495 13.9508 9.002C13.9928 8.975 13.9748 8.906 13.9248 8.906ZM49.7528 47.719C45.3888 49.693 43.6358 48.578 39.4678 49.38C39.4418 49.388 39.4288 49.35 39.4518 49.338C42.3568 47.772 42.9028 45.232 43.9108 43.574C43.9318 43.543 43.8958 43.503 43.8608 43.521C40.6648 45.078 39.6178 48.665 35.7888 49.592C35.7488 49.6 35.7488 49.654 35.7888 49.665C37.3998 50.042 38.6178 50.749 40.2968 50.892C44.9628 51.285 48.3728 49.861 49.8058 47.778C49.8288 47.743 49.7898 47.703 49.7528 47.719ZM54.4788 40.274C52.9308 42.431 49.4508 43.234 46.0658 45.899C46.0448 45.915 46.0188 45.891 46.0368 45.867C47.7508 43.585 47.5638 40.47 48.1908 37.728C48.1988 37.691 48.1518 37.668 48.1258 37.697C44.8448 41.42 45.2568 45.487 43.8058 47.392C43.7878 47.417 43.8028 47.451 43.8348 47.451C48.7998 47.443 54.1618 43.09 54.5448 40.298C54.5498 40.26 54.5028 40.245 54.4788 40.274ZM56.6868 32.31C56.6838 32.262 56.6158 32.25 56.5948 32.295C55.1148 35.289 53.3378 35.972 51.1018 39.243C51.0858 39.264 51.0568 39.251 51.0658 39.227C51.9438 36.589 50.4928 33.094 50.4378 30.754C50.4378 30.706 50.3698 30.695 50.3518 30.74C48.5828 35.026 50.4458 39.437 48.8898 42.328C48.8708 42.362 48.9028 42.397 48.9368 42.381C51.2473 41.229 53.2723 39.5771 54.8648 37.545C55.8808 36.004 56.7808 34.345 56.6868 32.31ZM55.9308 23.531C55.9128 23.484 55.8418 23.497 55.8418 23.547C55.7578 26.829 53.8338 29.369 53.4478 31.635C53.4428 31.662 53.4118 31.66 53.4118 31.631C53.3428 28.694 51.2228 26.924 50.0338 24.7C50.0098 24.658 49.9468 24.674 49.9468 24.722C49.7688 28.97 52.8368 31.614 52.7368 35.156C52.7368 35.202 52.7918 35.222 52.8178 35.188C55.2378 31.845 57.5128 27.799 55.9308 23.531ZM54.7468 21.095C54.6708 18.945 54.2038 16.955 52.8238 15.257C52.7948 15.22 52.7368 15.252 52.7478 15.3C53.6608 18.65 52.6868 21.578 53.0568 24.1C53.0618 24.137 53.0208 24.145 53.0068 24.113C52.0838 21.863 49.5558 20.76 48.4328 19.2C48.4068 19.16 48.3458 19.19 48.3568 19.237C49.3958 23.688 52.7158 25.102 53.3778 27.45C53.3878 27.493 53.4428 27.496 53.4538 27.453C53.9128 25.662 54.8418 23.736 54.7468 21.095ZM48.7238 10.469C48.6898 10.442 48.6458 10.485 48.6688 10.522C49.4408 11.771 49.7058 13.107 50.0128 14.502L50.6978 17.789C50.7028 17.81 50.6708 17.826 50.6608 17.805C50.0548 16.798 47.2358 15.403 45.3858 13.955C45.3568 13.931 45.3148 13.963 45.3278 14C46.3728 17.053 49.7478 18.36 51.8178 20.606C51.8418 20.63 51.8838 20.614 51.8808 20.579C51.7268 17.281 52.2408 13.254 48.7238 10.469ZM42.7698 8.906C42.7198 8.906 42.7038 8.975 42.7428 9.002C45.0608 10.495 44.8218 11.84 49.1018 14.978C49.1208 14.989 49.1438 14.973 49.1388 14.954C48.1598 11.622 45.8768 9.005 42.7698 8.906ZM70.9948 28.478H68.7628L67.5098 23.621C67.4638 23.448 67.3848 23.091 67.2728 22.549C67.192 22.1884 67.1276 21.8244 67.0798 21.458C67.0548 21.685 66.9918 22.051 66.8908 22.555C66.7888 23.059 66.7108 23.419 66.6558 23.634L65.4108 28.478H63.1838L60.8248 19.232H62.7538L63.9368 24.279C64.1438 25.211 64.2928 26.018 64.3858 26.701C64.4108 26.461 64.4688 26.089 64.5598 25.585C64.6498 25.081 64.7358 24.69 64.8158 24.412L66.1628 19.232H68.0158L69.3628 24.412C69.4218 24.643 69.4958 24.998 69.5848 25.474C69.6728 25.951 69.7408 26.359 69.7868 26.701C69.8288 26.372 69.8958 25.963 69.9898 25.47C70.0818 24.98 70.1668 24.583 70.2428 24.279L71.4188 19.232H73.3478L70.9948 28.478ZM75.5728 24.93C75.5728 25.631 75.6868 26.159 75.9178 26.517C76.1468 26.876 76.5208 27.055 77.0398 27.055C77.5538 27.055 77.9238 26.877 78.1498 26.521C78.3758 26.165 78.4878 25.634 78.4878 24.93C78.4878 24.23 78.3748 23.706 78.1468 23.355C77.9188 23.006 77.5458 22.831 77.0268 22.831C76.5128 22.831 76.1418 23.005 75.9138 23.352C75.6868 23.7 75.5728 24.226 75.5728 24.93ZM80.4608 24.93C80.4608 26.081 80.1578 26.981 79.5508 27.631C78.9438 28.28 78.0978 28.605 77.0148 28.605C76.3358 28.605 75.7368 28.456 75.2188 28.159C74.7003 27.8624 74.2837 27.4158 74.0238 26.878C73.7448 26.322 73.6058 25.672 73.6058 24.93C73.6058 23.775 73.9068 22.877 74.5098 22.236C75.1128 21.595 75.9608 21.274 77.0528 21.274C77.7308 21.274 78.3298 21.423 78.8488 21.717C79.3678 22.012 79.7658 22.436 80.0438 22.989C80.3218 23.541 80.4608 24.188 80.4608 24.93ZM85.8368 21.274C86.0988 21.274 86.3158 21.294 86.4888 21.332L86.3428 23.14C86.1566 23.0944 85.9654 23.0732 85.7738 23.077C85.1588 23.077 84.6788 23.235 84.3358 23.551C83.9918 23.868 83.8198 24.31 83.8198 24.88V28.478H81.8908V21.407H83.3518L83.6358 22.596H83.7308C83.9508 22.2 84.2468 21.881 84.6198 21.638C84.9807 21.3993 85.4041 21.2727 85.8368 21.274ZM87.5858 28.478H89.5148V18.637H87.5858V28.478ZM94.3458 27.068C94.8388 27.068 95.2008 26.924 95.4308 26.637C95.6608 26.351 95.7858 25.864 95.8068 25.176V24.968C95.8068 24.209 95.6898 23.665 95.4558 23.337C95.2218 23.007 94.8408 22.843 94.3138 22.843C93.8838 22.843 93.5498 23.025 93.3118 23.39C93.0738 23.755 92.9548 24.285 92.9548 24.981C92.9548 25.676 93.0748 26.198 93.3148 26.546C93.5558 26.894 93.8988 27.068 94.3458 27.068ZM93.6688 28.605C92.8378 28.605 92.1858 28.282 91.7118 27.637C91.2368 26.992 91.0008 26.098 91.0008 24.956C91.0008 23.796 91.2418 22.892 91.7248 22.246C92.2068 21.598 92.8728 21.274 93.7198 21.274C94.6088 21.274 95.2888 21.62 95.7558 22.312H95.8198C95.7289 21.847 95.68 21.3748 95.6738 20.901V18.637H97.6088V28.478H96.1288L95.7558 27.561H95.6738C95.2358 28.256 94.5668 28.605 93.6688 28.605ZM104.839 28.478H102.91V19.232H108.21V20.839H104.839V23.222H107.976V24.823H104.839V28.478ZM111.218 24.93C111.218 25.631 111.333 26.159 111.563 26.517C111.792 26.876 112.167 27.055 112.685 27.055C113.199 27.055 113.569 26.877 113.795 26.521C114.021 26.165 114.133 25.634 114.133 24.93C114.133 24.23 114.02 23.706 113.792 23.355C113.564 23.006 113.191 22.831 112.672 22.831C112.158 22.831 111.787 23.005 111.559 23.352C111.332 23.7 111.218 24.226 111.218 24.93ZM116.106 24.93C116.106 26.081 115.803 26.981 115.196 27.631C114.589 28.28 113.743 28.605 112.66 28.605C111.981 28.605 111.382 28.456 110.864 28.159C110.345 27.8624 109.929 27.4158 109.669 26.878C109.39 26.322 109.251 25.672 109.251 24.93C109.251 23.775 109.552 22.877 110.155 22.236C110.758 21.595 111.606 21.274 112.698 21.274C113.377 21.274 113.975 21.423 114.494 21.717C115.013 22.012 115.411 22.436 115.689 22.989C115.967 23.541 116.106 24.188 116.106 24.93ZM119.116 24.93C119.116 25.631 119.231 26.159 119.46 26.517C119.69 26.876 120.064 27.055 120.583 27.055C121.097 27.055 121.467 26.877 121.693 26.521C121.918 26.165 122.031 25.634 122.031 24.93C122.031 24.23 121.918 23.706 121.69 23.355C121.462 23.006 121.089 22.831 120.57 22.831C120.056 22.831 119.685 23.005 119.457 23.352C119.23 23.7 119.116 24.226 119.116 24.93ZM124.004 24.93C124.004 26.081 123.701 26.981 123.094 27.631C122.487 28.28 121.641 28.605 120.558 28.605C119.879 28.605 119.28 28.456 118.762 28.159C118.243 27.8622 117.826 27.4157 117.566 26.878C117.288 26.322 117.149 25.672 117.149 24.93C117.149 23.775 117.45 22.877 118.053 22.236C118.656 21.595 119.503 21.274 120.596 21.274C121.274 21.274 121.873 21.423 122.392 21.717C122.911 22.012 123.309 22.436 123.587 22.989C123.865 23.541 124.004 24.188 124.004 24.93ZM128.422 27.068C128.915 27.068 129.276 26.924 129.506 26.637C129.736 26.351 129.861 25.864 129.883 25.176V24.968C129.883 24.209 129.766 23.665 129.532 23.337C129.298 23.007 128.917 22.843 128.39 22.843C127.96 22.843 127.626 23.025 127.388 23.39C127.149 23.755 127.03 24.285 127.03 24.981C127.03 25.676 127.15 26.198 127.391 26.546C127.631 26.894 127.975 27.068 128.422 27.068ZM127.745 28.605C126.914 28.605 126.262 28.282 125.788 27.637C125.313 26.992 125.076 26.098 125.076 24.956C125.076 23.796 125.317 22.892 125.8 22.246C126.283 21.598 126.948 21.274 127.795 21.274C128.685 21.274 129.364 21.62 129.832 22.312H129.896C129.804 21.8471 129.756 21.3748 129.75 20.901V18.637H131.685V28.478H130.205L129.832 27.561H129.75C129.312 28.256 128.643 28.605 127.745 28.605ZM63.9858 36.811H64.6308C65.2338 36.811 65.6848 36.692 65.9848 36.454C66.2838 36.216 66.4338 35.869 66.4338 35.414C66.4338 34.954 66.3078 34.615 66.0568 34.395C65.8058 34.176 65.4138 34.067 64.8778 34.067H63.9858V36.811ZM68.4138 35.344C68.4138 36.339 68.1018 37.1 67.4808 37.628C66.8588 38.155 65.9738 38.418 64.8278 38.418H63.9858V41.707H62.0258V32.461H64.9788C66.1008 32.461 66.9538 32.702 67.5378 33.184C68.1218 33.668 68.4138 34.387 68.4138 35.344ZM73.2998 34.503C73.5618 34.503 73.7788 34.522 73.9528 34.56L73.8068 36.369C73.6207 36.3231 73.4294 36.3016 73.2378 36.305C72.6218 36.305 72.1418 36.464 71.7978 36.78C71.4548 37.096 71.2838 37.539 71.2838 38.108V41.707H69.3538V34.635H70.8148L71.0998 35.825H71.1948C71.4138 35.428 71.7108 35.109 72.0838 34.867C72.4443 34.6283 72.8674 34.5017 73.2998 34.503ZM76.2048 38.159C76.2048 38.859 76.3198 39.387 76.5488 39.746C76.7788 40.104 77.1528 40.284 77.6708 40.284C78.1858 40.284 78.5558 40.105 78.7818 39.75C79.0068 39.393 79.1208 38.863 79.1208 38.159C79.1208 37.459 79.0058 36.934 78.7788 36.584C78.5508 36.234 78.1778 36.059 77.6598 36.059C77.1448 36.059 76.7738 36.233 76.5458 36.581C76.3188 36.928 76.2048 37.455 76.2048 38.159ZM81.0928 38.159C81.0928 39.309 80.7898 40.21 80.1828 40.859C79.5758 41.508 78.7298 41.834 77.6468 41.834C76.9668 41.834 76.3688 41.684 75.8498 41.387C75.3315 41.0901 74.915 40.6436 74.6548 40.106C74.3768 39.551 74.2378 38.901 74.2378 38.159C74.2378 37.004 74.5388 36.105 75.1418 35.465C75.7448 34.824 76.5918 34.503 77.6838 34.503C78.3638 34.503 78.9618 34.651 79.4808 34.946C79.9981 35.2395 80.4147 35.6825 80.6758 36.217C80.9548 36.769 81.0928 37.417 81.0928 38.159ZM83.5518 36.951C83.5518 37.335 83.6398 37.638 83.8148 37.861C83.9898 38.085 84.2558 38.197 84.6158 38.197C84.9778 38.197 85.2438 38.085 85.4128 37.861C85.5808 37.638 85.6658 37.335 85.6658 36.951C85.6658 36.099 85.3148 35.673 84.6158 35.673C83.9068 35.673 83.5518 36.099 83.5518 36.951ZM82.8508 42.706C82.8508 42.971 82.9778 43.18 83.2328 43.332C83.4888 43.484 83.8458 43.56 84.3048 43.56C84.9968 43.56 85.5388 43.464 85.9308 43.275C86.3228 43.086 86.5188 42.826 86.5188 42.498C86.5188 42.232 86.4028 42.048 86.1708 41.947C85.9388 41.845 85.5808 41.796 85.0958 41.796H84.0958C83.7428 41.796 83.4458 41.879 83.2088 42.045C82.9698 42.212 82.8508 42.432 82.8508 42.706ZM88.3088 34.635V35.616L87.2018 35.901C87.4048 36.217 87.5048 36.571 87.5048 36.964C87.5048 37.722 87.2408 38.313 86.7108 38.737C86.1828 39.161 85.4478 39.373 84.5068 39.373L84.1598 39.354L83.8758 39.322C83.6768 39.474 83.5778 39.643 83.5778 39.829C83.5778 40.106 83.9318 40.246 84.6398 40.246H85.8418C86.6178 40.246 87.2098 40.413 87.6168 40.746C88.0228 41.079 88.2268 41.568 88.2268 42.213C88.2268 43.039 87.8818 43.68 87.1928 44.135C86.5028 44.59 85.5128 44.818 84.2228 44.818C83.2368 44.818 82.4828 44.646 81.9618 44.303C81.4408 43.96 81.1808 43.477 81.1808 42.858C81.1808 42.432 81.3138 42.076 81.5798 41.789C81.8448 41.503 82.2348 41.297 82.7498 41.175C82.5433 41.0851 82.3643 40.9423 82.2308 40.761C82.0902 40.5885 82.0119 40.3735 82.0088 40.151C82.0088 39.881 82.0868 39.657 82.2438 39.477C82.3998 39.298 82.6258 39.122 82.9208 38.949C82.552 38.7918 82.2428 38.5215 82.0378 38.177C81.8208 37.824 81.7118 37.406 81.7118 36.925C81.7118 36.154 81.9628 35.557 82.4648 35.135C82.9658 34.714 83.6828 34.503 84.6158 34.503C84.8128 34.503 85.0478 34.521 85.3208 34.556C85.5918 34.592 85.7658 34.619 85.8418 34.635H88.3088ZM92.8858 34.503C93.1478 34.503 93.3648 34.522 93.5388 34.56L93.3928 36.369C93.2067 36.3231 93.0154 36.3016 92.8238 36.305C92.2078 36.305 91.7278 36.464 91.3838 36.78C91.0408 37.096 90.8698 37.539 90.8698 38.108V41.707H88.9398V34.635H90.4008L90.6858 35.825H90.7808C90.9998 35.428 91.2958 35.109 91.6688 34.867C92.0297 34.6285 92.4531 34.5019 92.8858 34.503ZM98.0448 38.43L97.2978 38.456C96.7378 38.472 96.3208 38.574 96.0458 38.759C95.7718 38.945 95.6348 39.227 95.6348 39.607C95.6348 40.151 95.9478 40.422 96.5718 40.422C97.0178 40.422 97.3758 40.295 97.6428 40.037C97.9108 39.78 98.0448 39.438 98.0448 39.012V38.43ZM98.6138 41.707L98.2408 40.746H98.1908C97.8658 41.154 97.5318 41.438 97.1878 41.596C96.8438 41.755 96.3958 41.834 95.8438 41.834C95.1658 41.834 94.6298 41.639 94.2408 41.252C93.8508 40.864 93.6558 40.311 93.6558 39.594C93.6558 38.843 93.9188 38.291 94.4428 37.934C94.9678 37.578 95.7588 37.38 96.8178 37.342L98.0448 37.304V36.995C98.0448 36.278 97.6778 35.92 96.9448 35.92C96.3788 35.92 95.7148 36.09 94.9528 36.432L94.3138 35.13C95.1268 34.704 96.0298 34.49 97.0198 34.49C97.9688 34.49 98.6968 34.697 99.2028 35.11C99.7088 35.523 99.9608 36.152 99.9608 36.995V41.707H98.6138ZM107.667 41.707H105.738V37.577C105.738 37.067 105.652 36.684 105.481 36.428C105.311 36.173 105.042 36.047 104.675 36.047C104.182 36.047 103.824 36.227 103.6 36.591C103.377 36.953 103.265 37.549 103.265 38.38V41.707H101.335V34.635H102.809L103.069 35.541H103.176C103.366 35.215 103.64 34.962 103.999 34.778C104.382 34.5886 104.805 34.4943 105.232 34.503C106.29 34.503 107.006 34.848 107.382 35.541H107.552C107.743 35.212 108.022 34.957 108.391 34.775C108.78 34.5886 109.208 34.4955 109.64 34.503C110.441 34.503 111.047 34.709 111.459 35.12C111.87 35.531 112.075 36.189 112.075 37.096V41.707H110.139V37.577C110.139 37.067 110.054 36.684 109.883 36.428C109.712 36.173 109.444 36.047 109.077 36.047C108.605 36.047 108.252 36.215 108.018 36.552C107.784 36.889 107.667 37.424 107.667 38.159V41.707ZM119.781 41.707H117.852V37.577C117.852 37.067 117.766 36.684 117.595 36.428C117.425 36.173 117.156 36.047 116.79 36.047C116.296 36.047 115.938 36.227 115.714 36.591C115.491 36.953 115.379 37.549 115.379 38.38V41.707H113.45V34.635H114.923L115.183 35.541H115.291C115.48 35.215 115.754 34.962 116.113 34.778C116.496 34.5886 116.919 34.4943 117.346 34.503C118.404 34.503 119.121 34.848 119.497 35.541H119.667C119.857 35.212 120.136 34.957 120.505 34.775C120.894 34.5888 121.322 34.4957 121.754 34.503C122.555 34.503 123.162 34.709 123.573 35.12C123.984 35.531 124.189 36.189 124.189 37.096V41.707H122.253V37.577C122.253 37.067 122.168 36.684 121.998 36.428C121.827 36.173 121.558 36.047 121.191 36.047C120.719 36.047 120.366 36.215 120.132 36.552C119.898 36.889 119.781 37.424 119.781 38.159V41.707ZM128.536 35.876C128.127 35.876 127.806 36.006 127.574 36.264C127.342 36.524 127.21 36.891 127.175 37.368H129.882C129.875 36.891 129.75 36.524 129.509 36.264C129.269 36.006 128.945 35.876 128.536 35.876ZM128.807 41.834C127.669 41.834 126.779 41.519 126.138 40.891C125.498 40.262 125.177 39.373 125.177 38.222C125.177 37.037 125.473 36.121 126.066 35.474C126.658 34.827 127.477 34.503 128.523 34.503C129.522 34.503 130.3 34.788 130.857 35.357C131.414 35.926 131.691 36.713 131.691 37.716V38.652H127.131C127.153 39.2 127.315 39.629 127.619 39.936C127.922 40.244 128.348 40.397 128.896 40.397C129.302 40.3993 129.708 40.3547 130.104 40.264C130.484 40.176 130.879 40.035 131.293 39.84V41.334C130.95 41.5049 130.586 41.6313 130.211 41.71C129.748 41.7997 129.278 41.8413 128.807 41.834Z" fill="black"/>
</svg>
