<svg width="134" height="58" viewBox="0 0 134 58" fill="none" xmlns="http://www.w3.org/2000/svg">
<path fill-rule="evenodd" clip-rule="evenodd" d="M35.7628 4.66399H36.3108C36.8218 4.66399 37.2058 4.56299 37.4598 4.35999C37.7138 4.15799 37.8408 3.86299 37.8408 3.47699C37.8408 3.08699 37.7338 2.79899 37.5218 2.61199C37.3078 2.42599 36.9748 2.33199 36.5198 2.33199H35.7628V4.66399ZM39.5228 3.41799C39.5228 4.26299 39.2578 4.90899 38.7298 5.35599C38.2018 5.80499 37.4508 6.02799 36.4768 6.02799H35.7628V8.82099H34.0978V0.968994H36.6058C37.5578 0.968994 38.2818 1.17299 38.7778 1.58399C39.2738 1.99399 39.5228 2.60499 39.5228 3.41799ZM29.9858 8.82099H28.3478V0.968994H32.8488V2.33199H29.9858V4.35799H32.6498V5.71699H29.9858V8.82099ZM25.4608 8.82099H23.5648L22.5018 4.69599C22.4618 4.54899 22.3948 4.24599 22.2998 3.78599C22.2311 3.47964 22.1763 3.17032 22.1358 2.85899C22.1148 3.05299 22.0608 3.36399 21.9758 3.79099C21.9159 4.09778 21.8492 4.40319 21.7758 4.70699L20.7178 8.82099H18.8278L16.8238 0.968994H18.4628L19.4668 5.25399C19.6428 6.04599 19.7688 6.73199 19.8478 7.31199C19.8698 7.10799 19.9188 6.79199 19.9958 6.36399C20.0728 5.93499 20.1458 5.60299 20.2138 5.36799L21.3568 0.968994H22.9308L24.0748 5.36799C24.2223 6.01058 24.3425 6.65917 24.4348 7.31199C24.4708 7.03199 24.5278 6.68399 24.6068 6.26699C24.6858 5.84999 24.7568 5.51299 24.8218 5.25399L25.8208 0.968994H27.4588L25.4608 8.82099ZM21.3878 36.134C18.3368 36.134 16.3788 36.858 15.8438 37.083C15.8128 37.097 15.7868 37.052 15.8108 37.027C19.1638 33.542 23.0888 33.734 24.0338 33.734H35.1948C35.7578 33.734 36.2138 34.271 36.2138 34.935C36.2138 35.597 35.7578 36.134 35.1948 36.134H21.3878ZM23.9028 39.219C20.6148 39.219 19.6568 37.351 14.6808 38.584C14.6468 38.593 14.6238 38.546 14.6528 38.526C17.4268 36.623 20.4438 36.796 21.6638 36.796H35.1948C35.7578 36.796 36.2138 37.333 36.2138 37.995C36.2138 38.657 35.7578 39.194 35.1948 39.194C35.1948 39.194 26.5058 39.219 23.9028 39.219ZM24.1358 42.256C20.7618 42.256 20.4918 39.766 15.4898 39.205C15.4548 39.201 15.4508 39.149 15.4848 39.141C19.5938 38.113 21.1228 39.856 23.5218 39.856H35.1948C35.7578 39.856 36.2138 40.393 36.2138 41.056C36.2138 41.719 35.7578 42.256 35.1948 42.256H24.1358ZM23.4038 33.073C20.6878 33.073 18.4358 34.258 17.9088 34.557C17.8788 34.573 17.8498 34.538 17.8688 34.511C18.3098 33.862 20.6888 30.674 24.7788 30.674H35.1948C35.7578 30.674 36.2138 31.211 36.2138 31.874C36.2138 32.536 35.7578 33.073 35.1948 33.073H23.4038ZM38.3448 26.448C38.2236 26.3324 38.0674 26.2603 37.9008 26.243C37.7784 26.2269 37.654 26.2417 37.5388 26.286C37.5858 26.187 37.6258 26.081 37.6408 25.956C37.6671 25.7808 37.6381 25.6018 37.5578 25.444C37.2218 24.708 38.1818 23.235 38.0608 23.169C37.9458 23.105 37.3998 24.729 36.8698 25.385C36.7574 25.5253 36.688 25.6951 36.6698 25.874C36.649 26.0498 36.6792 26.2279 36.7568 26.387C36.8308 26.519 36.9428 26.613 37.0748 26.621C37.1105 26.6255 37.1468 26.6235 37.1818 26.615C37.1735 26.6339 37.1675 26.6537 37.1638 26.674C37.155 26.7453 37.1633 26.8177 37.188 26.8851C37.2126 26.9526 37.253 27.0132 37.3058 27.062C37.4241 27.1803 37.5801 27.2535 37.7468 27.269C37.9169 27.2939 38.0904 27.2612 38.2398 27.176C38.9588 26.783 40.4498 26.395 40.4178 26.257C40.3888 26.119 38.9348 26.972 38.3448 26.448ZM39.4438 25.374C39.3377 25.2597 39.1931 25.1888 39.0378 25.175C38.9464 25.1705 38.8551 25.1852 38.7698 25.218C38.7828 25.172 38.8008 25.133 38.8068 25.087C38.825 24.9258 38.7887 24.7632 38.7038 24.625C38.3388 23.948 39.2918 22.669 39.1688 22.606C39.0448 22.542 38.5228 23.974 37.9928 24.54C37.8795 24.6544 37.8099 24.8047 37.7958 24.965C37.7788 25.1267 37.8139 25.2896 37.8958 25.43C37.9798 25.553 38.0948 25.64 38.2338 25.659C38.2942 25.6623 38.3547 25.6552 38.4128 25.638C38.4098 25.645 38.4018 25.656 38.4048 25.664C38.3991 25.7363 38.4085 25.8091 38.4325 25.8776C38.4564 25.9461 38.4943 26.0089 38.5438 26.062C38.6438 26.169 38.7878 26.243 38.9478 26.257C39.1016 26.2734 39.2561 26.2317 39.3808 26.14C40.0008 25.693 41.4178 25.428 41.3808 25.284C41.3468 25.146 39.9898 25.895 39.4438 25.374ZM40.4068 24.381C40.2953 24.2985 40.1566 24.2613 40.0188 24.277C39.9505 24.2814 39.8836 24.2987 39.8218 24.328C39.8328 24.298 39.8508 24.274 39.8608 24.245C39.899 24.1029 39.8909 23.9522 39.8378 23.815C39.6068 23.15 40.6298 22.167 40.5308 22.087C40.4308 22.013 39.7668 23.204 39.2208 23.623C39.1064 23.7119 39.025 23.8365 38.9898 23.977C38.948 24.1179 38.9554 24.2688 39.0108 24.405C39.0338 24.4642 39.0694 24.5176 39.1152 24.5617C39.161 24.6057 39.2157 24.6392 39.2758 24.66C39.3678 24.689 39.4598 24.67 39.5468 24.633C39.5263 24.6872 39.5181 24.7453 39.5228 24.803C39.5358 24.939 39.6018 25.053 39.7098 25.133C39.8214 25.2163 39.9598 25.2556 40.0986 25.2432C40.2373 25.2308 40.3666 25.1677 40.4618 25.066C40.9528 24.569 42.1758 24.104 42.1268 23.985C42.0738 23.865 40.9748 24.75 40.4068 24.381ZM42.3018 22.247C42.1998 22.096 41.3438 23.034 40.7118 23.124C40.5765 23.1447 40.4511 23.2069 40.3528 23.302C40.2428 23.3959 40.1654 23.5223 40.1318 23.663C40.1161 23.7177 40.1129 23.7752 40.1224 23.8312C40.1319 23.8873 40.1539 23.9405 40.1868 23.987C40.2231 24.0293 40.2696 24.0615 40.322 24.0806C40.3744 24.0997 40.4308 24.105 40.4858 24.096C40.6239 24.077 40.7521 24.0135 40.8508 23.915C40.9554 23.8197 41.0301 23.696 41.0658 23.559C41.2578 22.916 42.3778 22.345 42.3018 22.247ZM24.6078 23.517C24.5828 23.61 24.3978 24.333 24.3978 24.333C24.3458 24.362 24.1258 24.314 24.0678 24.309C23.6458 24.269 23.2678 23.902 23.4298 23.464C23.5628 23.106 23.8338 23.068 24.1778 23.052C24.3208 23.046 24.5778 23.08 24.7068 23.169C24.7068 23.169 24.6558 23.334 24.6078 23.517ZM24.1228 25.699L24.0838 25.946C23.8208 25.781 23.6668 25.404 23.7928 25.106C23.8898 24.88 24.1298 24.821 24.3068 24.811C24.2427 25.1064 24.1814 25.4024 24.1228 25.699ZM23.7448 28.395C23.7118 28.58 23.4618 28.605 23.2908 28.656C22.7948 28.805 22.3248 28.741 22.1728 28.148C22.0078 27.514 22.4878 27.247 23.0028 27.123C23.2828 27.057 23.5428 27.112 23.7348 27.349C23.7828 27.408 23.8398 27.461 23.8528 27.517C23.8528 27.517 23.7758 28.221 23.7448 28.395ZM22.1838 25.273C22.5668 25.181 22.9628 25.037 23.2568 25.414C23.5668 25.81 23.4638 26.445 22.9658 26.613C22.6378 26.724 22.2408 26.82 21.9608 26.552C21.5928 26.201 21.6198 25.404 22.1838 25.273ZM21.8078 23.217C22.2118 23.119 22.6298 22.97 22.9398 23.366C23.2618 23.78 23.1548 24.45 22.6318 24.625C22.2858 24.739 21.8688 24.84 21.5748 24.558C21.1888 24.192 21.2178 23.355 21.8078 23.217ZM21.4328 27.662C21.3278 28.032 21.0228 28.087 20.7038 28.164C20.4938 27.907 19.9298 27.255 19.9198 27.178C19.917 27.1475 19.9211 27.1167 19.9318 27.088C19.9578 27.011 20.0468 26.937 20.1128 26.894C20.3048 26.769 20.7138 26.677 20.9348 26.722C21.3308 26.807 21.5378 27.29 21.4328 27.662ZM19.4278 25.763C19.1388 24.739 20.8558 24.293 21.1208 25.297C21.3938 26.329 19.6618 26.767 19.4278 25.763ZM19.1758 23.719C18.8818 22.702 20.6068 22.255 20.8718 23.254C21.1448 24.287 19.4098 24.726 19.1758 23.719ZM18.9348 21.71C18.6538 20.762 20.2728 20.342 20.5198 21.277C20.7738 22.239 19.1548 22.654 18.9348 21.71ZM18.7688 25.577C18.6898 25.624 18.6598 25.649 18.6328 25.649L17.8628 24.811C17.8718 24.787 18.1098 24.615 18.1898 24.569C18.8298 24.213 19.3568 25.231 18.7688 25.577ZM17.3078 23.69C16.9268 22.85 18.3128 21.939 18.7318 22.845C19.1178 23.679 17.7318 24.606 17.3078 23.69ZM18.4728 21.03C18.9108 21.809 17.5908 22.678 17.2128 21.84C16.8768 21.118 18.0498 20.275 18.4728 21.03ZM17.3648 19.215C17.5598 19.043 17.7848 18.95 18.0158 19.061C18.3858 19.239 18.3968 19.794 18.0738 20.015C17.9268 20.116 17.6778 20.241 17.4968 20.196C17.0998 20.095 17.0238 19.516 17.3648 19.215ZM17.4148 17.546C17.5748 17.438 17.7878 17.341 17.9708 17.416C18.3058 17.553 18.2938 18.038 18.0238 18.232C17.8998 18.32 17.6778 18.429 17.5278 18.389C17.1898 18.304 17.1068 17.755 17.4148 17.546ZM18.3018 15.168C18.5008 15.061 18.7878 15.016 18.9658 15.216C19.0146 15.2693 19.0504 15.3331 19.0705 15.4026C19.0905 15.472 19.0942 15.5452 19.0812 15.6163C19.0682 15.6874 19.0389 15.7545 18.9956 15.8124C18.9524 15.8703 18.8963 15.9174 18.8318 15.95C18.6198 16.056 18.3338 16.096 18.1648 15.899C18.1192 15.8444 18.0863 15.7805 18.0683 15.7117C18.0504 15.6429 18.0478 15.5711 18.0609 15.5012C18.074 15.4313 18.1024 15.3652 18.144 15.3076C18.1857 15.25 18.2395 15.2023 18.3018 15.168ZM18.1448 16.975C17.9838 16.38 18.9868 16.099 19.1498 16.704C19.3308 17.291 18.3048 17.584 18.1448 16.975ZM19.7608 18.014C19.9948 18.657 18.9058 19.021 18.6928 18.386C18.4758 17.743 19.5698 17.376 19.7608 18.014ZM19.8978 14.881C20.1058 14.798 20.3718 14.708 20.6038 14.881C20.8928 15.097 20.8298 15.583 20.4988 15.734C20.2808 15.833 20.0028 15.899 19.8088 15.726C19.5618 15.506 19.5478 15.021 19.8978 14.881ZM19.7058 20.262C19.4118 20.331 19.1048 20.448 18.8608 20.196C18.5488 19.874 18.6378 19.311 19.0608 19.157C19.3338 19.053 19.6798 18.995 19.9028 19.223C20.1888 19.516 20.1578 20.153 19.7058 20.262ZM19.7108 16.978C19.5228 16.34 20.5608 16.013 20.7608 16.632C20.9658 17.267 19.8898 17.605 19.7108 16.978ZM21.4508 18.147C21.6948 18.875 20.4648 19.263 20.2388 18.546C20.0108 17.812 21.2498 17.424 21.4508 18.147ZM21.5168 16.197C21.7338 16.139 21.9628 16.16 22.1278 16.337C22.3798 16.608 22.2938 17.071 21.9208 17.14C21.7448 17.172 21.4748 17.159 21.3378 17.039C21.0918 16.821 21.1038 16.308 21.5168 16.197ZM22.5668 17.725C22.9628 17.725 23.1628 18.307 22.9318 18.596C22.7928 18.771 22.4928 18.782 22.2888 18.75C21.9108 18.692 21.6688 18.205 21.9238 17.876C22.0788 17.677 22.3438 17.725 22.5668 17.725ZM20.6638 20.121C20.4198 19.284 21.8418 18.91 22.0598 19.741C22.2808 20.586 20.8508 20.958 20.6638 20.121ZM21.5348 21.192C21.9238 21.152 22.3278 21.062 22.5668 21.469C22.8158 21.899 22.6298 22.497 22.1258 22.598C21.7948 22.667 21.3938 22.699 21.1578 22.406C20.8478 22.019 20.9708 21.245 21.5348 21.192ZM23.5098 19.328C23.9898 19.526 24.1518 20.092 23.8138 20.408C23.6318 20.573 23.3018 20.541 23.0788 20.496C22.6318 20.408 22.3408 19.738 22.7318 19.42C22.9328 19.257 23.2918 19.237 23.5098 19.328ZM24.2648 21.346C24.5658 21.716 24.4538 22.369 23.9258 22.401C23.6508 22.417 23.2908 22.385 23.1048 22.159C22.8058 21.798 22.9188 21.12 23.4458 21.102C23.7218 21.091 24.0788 21.12 24.2648 21.346ZM26.3038 14.682C26.2898 14.6604 26.2692 14.6439 26.245 14.6348C26.2209 14.6258 26.1945 14.6248 26.1698 14.632C26.1068 14.653 26.0648 14.722 26.0888 14.783C27.2938 18.02 25.7548 19.614 25.1118 21.88C24.3408 20.039 26.8968 18.307 25.5798 14.951C25.5608 14.908 25.5268 14.873 25.4798 14.866C25.4138 14.857 25.3508 14.884 25.3408 14.972C25.3068 15.208 25.1518 17.068 23.6428 18.158C23.4817 17.7726 23.2423 17.425 22.9398 17.137C22.7998 16.51 22.3908 15.649 21.5298 15.395C21.4008 15.07 21.1418 14.605 20.6428 14.355C20.1728 14.121 19.6298 14.142 19.0258 14.416C18.2968 14.501 17.7948 14.786 17.5308 15.261C17.2808 15.71 17.3258 16.199 17.4098 16.532C16.7958 17.188 16.7668 18.16 16.7828 18.541C16.4178 19.417 16.6228 20.44 16.7378 20.865C16.3018 22.056 16.7278 23.211 16.8978 23.594C16.8978 23.698 16.9028 23.796 16.9088 23.894C15.4808 22.332 12.2318 20.397 10.9908 19.659C10.9626 19.6418 10.9294 19.6345 10.8966 19.6383C10.8639 19.6421 10.8333 19.6568 10.8098 19.68C10.7949 19.6938 10.7829 19.7103 10.7744 19.7288C10.766 19.7472 10.7613 19.7671 10.7605 19.7873C10.7598 19.8076 10.763 19.8278 10.7701 19.8468C10.7772 19.8658 10.7879 19.8832 10.8018 19.898C13.5698 22.598 16.0398 25.93 18.4118 32.844C19.5958 31.613 21.7348 29.995 24.7788 29.995H28.3398C26.0778 21.567 29.3718 18.551 26.3038 14.682ZM43.1398 19.04C42.4888 18.87 38.3318 18.134 33.6728 26.703C34.3528 23.512 36.4188 19.651 36.9848 18.53V18.522C37.0014 18.4902 37.0063 18.4535 36.9987 18.4184C36.991 18.3833 36.9712 18.352 36.9428 18.33C36.913 18.3096 36.8765 18.3018 36.841 18.3084C36.8056 18.3149 36.7742 18.3353 36.7538 18.365C33.6758 23.498 32.5948 26.456 31.9568 29.995H33.8858C34.2138 26.583 38.5228 18.546 43.1158 19.143H43.1208C43.1478 19.149 43.1708 19.127 43.1738 19.104C43.1838 19.074 43.1648 19.045 43.1398 19.04ZM33.8778 47.272L32.8358 42.917H31.0618C31.3428 44.022 31.7438 45.146 32.2638 46.132C32.279 46.1603 32.3024 46.1834 32.331 46.1982C32.3595 46.213 32.3918 46.2188 32.4238 46.215C32.4667 46.2074 32.5048 46.1832 32.5299 46.1476C32.555 46.112 32.565 46.0679 32.5578 46.025C32.4368 45.103 32.2928 44.214 32.1558 43.326C32.5318 44.721 33.0378 46.084 33.7208 47.339C33.7388 47.378 33.7778 47.396 33.8148 47.384C33.8648 47.373 33.8908 47.32 33.8778 47.272ZM35.6698 45.295C35.4888 44.567 35.2998 43.674 35.1378 42.917H34.4628C34.7258 43.725 35.0798 44.626 35.3948 45.396C35.4258 45.471 35.4968 45.508 35.5648 45.489C35.604 45.4765 35.6368 45.4493 35.6564 45.4132C35.676 45.377 35.6808 45.3346 35.6698 45.295ZM35.8958 47.856L35.8908 47.846C35.6728 47.237 35.3708 46.692 35.1318 46.108C34.873 45.5317 34.6375 44.9452 34.4258 44.35C34.2558 43.9 34.0748 43.385 33.9358 42.917H33.2848C33.4688 43.462 33.7078 44.049 33.9308 44.575C34.4208 45.763 34.9878 46.927 35.7098 47.968C35.7233 47.9868 35.7428 48.0005 35.7652 48.0069C35.7875 48.0132 35.8113 48.0119 35.8328 48.003C35.8908 47.981 35.9168 47.915 35.8958 47.856ZM36.8698 26.956C36.8198 26.881 36.6988 26.865 36.6418 26.926C35.785 27.8427 35.0622 28.8759 34.4948 29.995H35.1978C35.5498 29.169 36.3418 27.71 36.8518 27.184L36.8568 27.179C36.8832 27.1485 36.8989 27.11 36.9012 27.0697C36.9036 27.0294 36.8925 26.9894 36.8698 26.956ZM31.5158 20.911C32.1668 19.842 33.1328 19.024 33.9518 18.036C33.9661 18.0172 33.9731 17.9939 33.9715 17.9703C33.9698 17.9467 33.9596 17.9246 33.9428 17.908C33.9353 17.8999 33.9263 17.8933 33.9163 17.8888C33.9063 17.8842 33.8954 17.8817 33.8844 17.8814C33.8734 17.8811 33.8624 17.8831 33.8522 17.8871C33.8419 17.8912 33.8326 17.8973 33.8248 17.905C33.6388 18.104 33.4448 18.291 33.2458 18.476C33.1588 18.434 32.9388 18.519 32.7148 18.694C32.5398 18.833 32.4138 18.987 32.3688 19.098C32.2558 19.072 32.0438 19.204 31.8518 19.449C31.6938 19.654 31.6028 19.869 31.6048 20.002C31.4838 20.012 31.3088 20.166 31.1588 20.411C31.0618 20.573 30.9988 20.73 30.9778 20.86C30.853 20.9567 30.7481 21.0765 30.6688 21.213C30.5348 21.437 30.4658 21.662 30.4868 21.792C30.4558 21.849 30.4238 21.902 30.3978 21.957L30.4138 21.825C30.6058 20.312 30.8828 18.814 31.3058 17.369C31.7308 15.928 32.2398 14.475 33.1138 13.308L33.1198 13.303C33.1414 13.2714 33.1517 13.2334 33.1488 13.1952C33.1458 13.157 33.13 13.1209 33.1038 13.093C33.091 13.0784 33.0754 13.0667 33.0578 13.0586C33.0403 13.0505 33.0213 13.0462 33.0019 13.0459C32.9826 13.0456 32.9634 13.0494 32.9457 13.057C32.9279 13.0646 32.9119 13.0758 32.8988 13.09C32.6031 13.4132 32.3401 13.7649 32.1138 14.14C32.0148 14.087 31.8048 14.284 31.6448 14.592C31.4978 14.87 31.4448 15.128 31.5008 15.227C31.5008 15.227 31.4978 15.235 31.4918 15.232C31.3868 15.187 31.1928 15.421 31.0748 15.734C30.9598 16.029 30.9388 16.3 31.0178 16.391C31.0118 16.396 31.0118 16.399 31.0088 16.404C30.8918 16.361 30.6998 16.63 30.5818 17.01C30.4838 17.331 30.4738 17.61 30.5448 17.722C30.5498 17.727 30.5448 17.741 30.5398 17.738C30.4188 17.695 30.2348 17.972 30.1278 18.349C30.0198 18.713 30.0278 19.035 30.1298 19.098C30.0118 19.085 29.8468 19.361 29.7598 19.736C29.6818 20.06 29.6898 20.339 29.7658 20.451C29.6498 20.485 29.5218 20.756 29.4558 21.107C29.3928 21.45 29.4238 21.734 29.5078 21.825C29.4008 21.88 29.2898 22.159 29.2508 22.505C29.2118 22.848 29.2618 23.129 29.3508 23.22C29.2618 23.32 29.1748 23.559 29.1378 23.847C29.1018 24.12 29.1248 24.357 29.1778 24.49C29.0808 24.572 29.0068 24.849 29.0038 25.181C28.9968 25.446 29.0358 25.672 29.1038 25.802C29.0421 25.9759 29.012 26.1595 29.0148 26.344C29.0098 26.623 29.0538 26.862 29.1248 26.987C29.1038 27.968 29.1168 29.012 29.1698 29.995H31.2878C31.3028 29.23 31.3528 28.395 31.4288 27.638C31.5788 26.288 31.8018 24.917 32.4768 23.764L32.4818 23.756C32.4925 23.7359 32.497 23.7131 32.4947 23.6905C32.4924 23.6679 32.4834 23.6464 32.4688 23.629C32.4288 23.594 32.3738 23.594 32.3368 23.637C31.4208 24.7 31.0198 26.143 30.7838 27.527C30.7418 27.798 30.7078 28.071 30.6758 28.343C30.7338 27.232 30.8358 26.126 31.0908 25.074C31.3818 23.793 31.9648 22.574 33.0748 21.891C33.0927 21.8793 33.1063 21.8619 33.1134 21.8416C33.1204 21.8214 33.1206 21.7993 33.1138 21.779C33.1079 21.7557 33.093 21.7357 33.0724 21.7233C33.0518 21.711 33.0271 21.7072 33.0038 21.713C32.9328 21.734 32.8678 21.771 32.7988 21.801C32.7258 21.71 32.4558 21.777 32.1768 21.954C31.9118 22.127 31.7358 22.34 31.7548 22.457C31.7548 22.462 31.7418 22.47 31.7418 22.459C31.7401 22.4468 31.7357 22.4352 31.7288 22.425C31.6288 22.343 31.3608 22.529 31.1348 22.845C30.9068 23.161 30.8178 23.491 30.9148 23.576C30.9198 23.578 30.9178 23.586 30.9128 23.586C30.7938 23.538 30.5978 23.807 30.4738 24.182C30.3848 24.444 30.3638 24.686 30.3958 24.825C30.3958 24.829 30.3898 24.835 30.3898 24.835C30.2978 25.138 30.2218 25.444 30.1508 25.754C30.1778 25.316 30.2168 24.875 30.2798 24.439C30.4658 23.185 30.8438 21.957 31.5158 20.911ZM38.1788 17.413C38.0257 17.3471 37.8551 17.3341 37.6938 17.376C37.5735 17.407 37.462 17.4651 37.3678 17.546C37.3835 17.4309 37.3774 17.3138 37.3498 17.201C37.315 17.0286 37.2268 16.8715 37.0978 16.752C36.5258 16.181 36.9188 14.461 36.7858 14.44C36.6548 14.422 36.7018 16.136 36.4318 16.938C36.3737 17.1087 36.3671 17.2926 36.4128 17.467C36.4525 17.6399 36.543 17.797 36.6728 17.918C36.7858 18.017 36.9218 18.062 37.0508 18.022C37.0862 18.0159 37.1195 18.0011 37.1478 17.979C37.1478 18.001 37.1478 18.022 37.1498 18.043C37.1798 18.184 37.2788 18.293 37.4158 18.357C37.5692 18.4258 37.7417 18.4388 37.9038 18.394C38.0708 18.3559 38.221 18.2647 38.3318 18.134C38.8698 17.509 40.1338 16.619 40.0588 16.5C39.9818 16.383 38.9138 17.695 38.1788 17.413ZM40.6258 15.248C40.5438 15.131 39.5308 16.313 38.8408 16.018C38.7003 15.9491 38.5395 15.9341 38.3888 15.976C38.3021 16.0043 38.2219 16.0495 38.1528 16.109C38.1498 16.061 38.1528 16.018 38.1428 15.976C38.1059 15.818 38.0159 15.6775 37.8878 15.578C37.3108 15.073 37.7648 13.537 37.6278 13.521C37.4888 13.505 37.4918 15.033 37.1918 15.75C37.1249 15.8969 37.1122 16.0626 37.1558 16.218C37.1978 16.388 37.2928 16.529 37.4108 16.619C37.4656 16.662 37.5292 16.6926 37.5971 16.7086C37.6649 16.7247 37.7354 16.7258 37.8038 16.712C37.8617 16.6947 37.9159 16.6669 37.9638 16.63C37.9638 16.638 37.9608 16.648 37.9638 16.656C37.9838 16.7262 38.0182 16.7914 38.0646 16.8477C38.1111 16.9039 38.1687 16.95 38.2338 16.983C38.3735 17.0486 38.5322 17.0617 38.6808 17.02C38.8302 16.9816 38.96 16.8889 39.0448 16.76C39.4728 16.12 40.7068 15.37 40.6258 15.248ZM40.8748 13.768C40.7848 13.675 40.0588 14.892 39.3998 14.746C39.2665 14.7086 39.124 14.7229 39.0008 14.786C38.9375 14.8134 38.8804 14.8532 38.8328 14.903C38.8328 14.873 38.8408 14.844 38.8408 14.812C38.8279 14.6659 38.7679 14.528 38.6698 14.419C38.2268 13.877 38.8428 12.594 38.7248 12.554C38.6048 12.519 38.3948 13.869 38.0268 14.456C37.9491 14.5785 37.9159 14.7239 37.9328 14.868C37.9428 15.025 38.0088 15.166 38.1008 15.264C38.1948 15.362 38.3108 15.416 38.4368 15.408C38.5302 15.3997 38.6172 15.357 38.6808 15.288C38.6808 15.341 38.6908 15.399 38.7168 15.455C38.7439 15.5137 38.7836 15.5658 38.833 15.6076C38.8824 15.6494 38.9403 15.6799 39.0028 15.697C39.1268 15.737 39.2738 15.726 39.4048 15.662C39.5308 15.6011 39.6314 15.4977 39.6888 15.37C39.9768 14.73 40.9608 13.861 40.8748 13.768ZM40.4388 12.078C40.2898 11.972 39.8148 13.154 39.2498 13.462C39.1303 13.5302 39.0344 13.633 38.9748 13.757C38.9074 13.8843 38.8799 14.0289 38.8958 14.172C38.9088 14.297 38.9668 14.403 39.0588 14.456C39.1069 14.483 39.1613 14.4969 39.2165 14.4966C39.2717 14.4962 39.3259 14.4816 39.3738 14.454C39.4959 14.3864 39.5939 14.2822 39.6538 14.156C39.7195 14.0292 39.7469 13.8861 39.7328 13.744C39.6908 13.075 40.5438 12.144 40.4388 12.078ZM30.0808 42.917H24.1358C23.7318 42.917 23.3668 42.885 23.0308 42.824C23.0338 42.824 23.0338 42.826 23.0338 42.826C24.0098 44.277 25.5398 45.378 27.0908 46.116C27.3298 47.439 27.6288 48.664 27.7368 48.76C27.8468 48.855 29.3688 48.417 29.4168 48.276C29.4608 48.136 28.7938 45.869 28.7938 45.869C29.5948 44.495 29.8418 43.684 30.0808 42.917ZM45.0338 53.086C43.5328 53.679 41.5748 53.728 39.9768 53.304C36.3158 52.164 32.2508 50.004 28.3478 51.797C24.4458 50.004 20.3798 52.164 16.7198 53.304C15.1218 53.728 13.1638 53.679 11.6628 53.086C11.6541 53.0822 11.6443 53.0817 11.6354 53.0847C11.6264 53.0877 11.6189 53.0939 11.6142 53.1022C11.6096 53.1104 11.6082 53.1201 11.6104 53.1293C11.6125 53.1385 11.618 53.1466 11.6258 53.152C13.7858 54.823 16.8118 55.592 19.5358 54.608C22.1518 53.793 24.3648 51.021 27.4638 52.204C25.0098 53.163 22.7158 54.933 20.9448 56.604L22.2328 57.661C23.8418 55.788 25.6528 53.915 27.7028 52.775C27.9828 52.61 28.1508 52.544 28.3478 52.533C28.5448 52.544 28.7128 52.61 28.9908 52.775C31.0438 53.915 32.8548 55.788 34.4628 57.661L35.7518 56.604C33.9808 54.933 31.6858 53.163 29.2328 52.204C32.3318 51.021 34.5448 53.793 37.1608 54.608C39.8848 55.592 42.9108 54.823 45.0708 53.152C45.1048 53.123 45.0758 53.07 45.0338 53.086ZM20.9048 50.561C17.0788 49.634 16.0318 46.047 12.8328 44.49C12.7988 44.472 12.7618 44.512 12.7828 44.543C13.7908 46.201 14.3358 48.741 17.2418 50.307C17.2658 50.319 17.2528 50.357 17.2258 50.349C13.0588 49.547 11.3078 50.662 6.94076 48.688C6.90376 48.672 6.86476 48.712 6.88876 48.747C8.32376 50.83 11.7298 52.254 16.3968 51.861C18.0768 51.718 19.2938 51.011 20.9048 50.634C20.9448 50.623 20.9448 50.569 20.9048 50.561ZM12.8908 48.361C11.4358 46.456 11.8508 42.389 8.56776 38.666C8.54176 38.637 8.49476 38.66 8.50276 38.697C9.12976 41.439 8.94276 44.554 10.6598 46.836C10.6758 46.86 10.6518 46.884 10.6278 46.868C7.24276 44.203 3.76276 43.4 2.21376 41.243C2.19076 41.214 2.14376 41.229 2.14876 41.267C2.53176 44.059 7.89576 48.412 12.8618 48.42C12.8908 48.42 12.9088 48.386 12.8908 48.361ZM7.80676 43.297C6.24776 40.406 8.11076 35.995 6.34276 31.709C6.32376 31.664 6.25576 31.675 6.25576 31.723C6.20376 34.063 4.74976 37.558 5.62876 40.196C5.63876 40.22 5.60776 40.233 5.59476 40.212C3.35576 36.941 1.57976 36.258 0.0987629 33.264C0.0777629 33.219 0.00976285 33.231 0.00676285 33.279C-0.0872371 35.314 0.812763 36.973 1.82876 38.514C3.42121 40.5461 5.44623 42.1981 7.75676 43.35C7.79176 43.366 7.82276 43.331 7.80676 43.297ZM6.74976 25.691C6.74676 25.643 6.68376 25.627 6.65976 25.669C5.47076 27.893 3.35276 29.663 3.28476 32.6C3.28276 32.629 3.25076 32.631 3.24576 32.604C2.85976 30.338 0.935763 27.798 0.852763 24.516C0.852763 24.466 0.781763 24.453 0.762763 24.5C-0.819237 28.768 1.45576 32.814 3.87776 36.157C3.90476 36.191 3.95676 36.171 3.95676 36.125C3.85676 32.583 6.92776 29.939 6.74976 25.691ZM8.26076 20.169C7.13776 21.729 4.61076 22.832 3.68676 25.082C3.67376 25.114 3.63376 25.106 3.63976 25.069C4.00676 22.547 3.03276 19.619 3.94676 16.269C3.95976 16.221 3.89876 16.189 3.87076 16.226C2.48976 17.924 2.02276 19.914 1.94676 22.064C1.85276 24.705 2.78076 26.631 3.24076 28.422C3.25076 28.465 3.30576 28.462 3.31676 28.419C3.97776 26.071 7.29776 24.657 8.33676 20.206C8.35076 20.159 8.28976 20.129 8.26076 20.169ZM11.3078 14.924C9.46076 16.372 6.63876 17.767 6.03276 18.774C6.02276 18.795 5.99076 18.779 5.99576 18.758L6.68076 15.471C6.98776 14.076 7.25276 12.74 8.02476 11.491C8.04876 11.454 8.00376 11.411 7.96976 11.438C4.45276 14.223 4.96676 18.25 4.81176 21.548C4.80976 21.583 4.85176 21.599 4.87576 21.575C6.94576 19.329 10.3208 18.022 11.3658 14.969C11.3788 14.932 11.3388 14.9 11.3078 14.924ZM13.9248 9.87499C10.8168 9.97399 8.53376 12.591 7.55476 15.923C7.54976 15.942 7.57576 15.958 7.59176 15.947C11.8718 12.809 11.6328 11.464 13.9508 9.97099C13.9928 9.94399 13.9748 9.87499 13.9248 9.87499ZM49.7528 48.688C45.3888 50.662 43.6348 49.547 39.4678 50.349C39.4418 50.357 39.4288 50.319 39.4518 50.307C42.3568 48.741 42.9028 46.201 43.9108 44.543C43.9318 44.512 43.8958 44.472 43.8608 44.49C40.6648 46.047 39.6178 49.634 35.7888 50.561C35.7488 50.569 35.7488 50.623 35.7888 50.634C37.3998 51.011 38.6178 51.718 40.2968 51.861C44.9628 52.254 48.3728 50.83 49.8058 48.747C49.8288 48.712 49.7898 48.672 49.7528 48.688ZM54.4788 41.243C52.9308 43.4 49.4508 44.203 46.0658 46.868C46.0438 46.884 46.0188 46.86 46.0368 46.836C47.7508 44.554 47.5638 41.439 48.1908 38.697C48.1988 38.66 48.1518 38.637 48.1258 38.666C44.8448 42.389 45.2568 46.456 43.8058 48.361C43.7878 48.386 43.8028 48.42 43.8348 48.42C48.7998 48.412 54.1618 44.059 54.5448 41.267C54.5498 41.229 54.5028 41.214 54.4788 41.243ZM56.6858 33.279C56.6838 33.231 56.6158 33.219 56.5948 33.264C55.1148 36.258 53.3378 36.941 51.1018 40.212C51.0858 40.233 51.0568 40.22 51.0658 40.196C51.9438 37.558 50.4928 34.063 50.4378 31.723C50.4378 31.675 50.3698 31.664 50.3518 31.709C48.5828 35.995 50.4458 40.406 48.8898 43.297C48.8708 43.331 48.9028 43.366 48.9368 43.35C51.2473 42.1981 53.2723 40.5461 54.8648 38.514C55.8808 36.973 56.7808 35.314 56.6858 33.279ZM55.9308 24.5C55.9128 24.453 55.8418 24.466 55.8418 24.516C55.7578 27.798 53.8338 30.338 53.4478 32.604C53.4428 32.631 53.4118 32.629 53.4118 32.6C53.3428 29.663 51.2228 27.893 50.0338 25.669C50.0098 25.627 49.9468 25.643 49.9468 25.691C49.7688 29.939 52.8358 32.583 52.7368 36.125C52.7368 36.171 52.7918 36.191 52.8178 36.157C55.2378 32.814 57.5128 28.768 55.9308 24.5ZM54.7468 22.064C54.6708 19.914 54.2038 17.924 52.8238 16.226C52.7948 16.189 52.7368 16.221 52.7478 16.269C53.6608 19.619 52.6868 22.547 53.0568 25.069C53.0618 25.106 53.0198 25.114 53.0068 25.082C52.0838 22.832 49.5558 21.729 48.4328 20.169C48.4068 20.129 48.3458 20.159 48.3568 20.206C49.3958 24.657 52.7158 26.071 53.3778 28.419C53.3878 28.462 53.4428 28.465 53.4528 28.422C53.9128 26.631 54.8418 24.705 54.7468 22.064ZM48.7238 11.438C48.6898 11.411 48.6458 11.454 48.6688 11.491C49.4408 12.74 49.7058 14.076 50.0128 15.471L50.6978 18.758C50.7028 18.779 50.6708 18.795 50.6608 18.774C50.0548 17.767 47.2358 16.372 45.3858 14.924C45.3568 14.9 45.3148 14.932 45.3278 14.969C46.3728 18.022 49.7478 19.329 51.8178 21.575C51.8418 21.599 51.8838 21.583 51.8808 21.548C51.7268 18.25 52.2408 14.223 48.7238 11.438ZM42.7698 9.87499C42.7198 9.87499 42.7038 9.94399 42.7428 9.97099C45.0608 11.464 44.8218 12.809 49.1018 15.947C49.1208 15.958 49.1438 15.942 49.1388 15.923C48.1598 12.591 45.8768 9.97399 42.7698 9.87499ZM63.9858 16.994H64.6308C65.2338 16.994 65.6848 16.875 65.9848 16.637C66.2838 16.398 66.4338 16.052 66.4338 15.597C66.4338 15.137 66.3078 14.798 66.0568 14.578C65.8058 14.359 65.4138 14.25 64.8778 14.25H63.9858V16.994ZM68.4138 15.527C68.4138 16.522 68.1018 17.283 67.4808 17.81C66.8588 18.338 65.9738 18.6 64.8278 18.6H63.9858V21.89H62.0258V12.643H64.9788C66.1008 12.643 66.9538 12.885 67.5378 13.367C68.1218 13.851 68.4138 14.57 68.4138 15.527ZM73.4818 14.685C73.7438 14.685 73.9608 14.705 74.1338 14.743L73.9888 16.552C73.8023 16.5061 73.6107 16.4846 73.4188 16.488C72.8028 16.488 72.3238 16.646 71.9798 16.963C71.6358 17.279 71.4648 17.722 71.4648 18.291V21.89H69.5358V14.818H70.9968L71.2818 16.008H71.3768C71.5948 15.611 71.8918 15.292 72.2648 15.05C72.6256 14.811 73.049 14.684 73.4818 14.685ZM76.5668 18.342C76.5668 19.042 76.6818 19.57 76.9118 19.929C77.1408 20.287 77.5148 20.467 78.0338 20.467C78.5478 20.467 78.9188 20.288 79.1438 19.933C79.3698 19.576 79.4828 19.046 79.4828 18.342C79.4828 17.641 79.3688 17.117 79.1408 16.767C78.9138 16.417 78.5408 16.242 78.0218 16.242C77.5068 16.242 77.1358 16.416 76.9088 16.764C76.6808 17.111 76.5668 17.638 76.5668 18.342ZM81.4558 18.342C81.4558 19.492 81.1518 20.392 80.5448 21.042C79.9378 21.691 79.0918 22.017 78.0088 22.017C77.3298 22.017 76.7308 21.867 76.2118 21.57C75.6935 21.2731 75.277 20.8266 75.0168 20.289C74.7388 19.733 74.5998 19.084 74.5998 18.342C74.5998 17.187 74.9008 16.288 75.5038 15.647C76.1068 15.007 76.9548 14.685 78.0458 14.685C78.7258 14.685 79.3248 14.834 79.8428 15.129C80.3618 15.424 80.7598 15.848 81.0388 16.4C81.3168 16.952 81.4558 17.6 81.4558 18.342ZM84.0958 17.134C84.0958 17.517 84.1838 17.821 84.3588 18.044C84.5338 18.267 84.7998 18.38 85.1598 18.38C85.5218 18.38 85.7878 18.267 85.9568 18.044C86.1248 17.821 86.2088 17.517 86.2088 17.134C86.2088 16.282 85.8588 15.856 85.1598 15.856C84.4508 15.856 84.0958 16.282 84.0958 17.134ZM83.3948 22.889C83.3948 23.154 83.5218 23.363 83.7768 23.515C84.0328 23.667 84.3898 23.743 84.8488 23.743C85.5408 23.743 86.0828 23.647 86.4748 23.458C86.8668 23.268 87.0628 23.009 87.0628 22.681C87.0628 22.415 86.9468 22.231 86.7148 22.13C86.4828 22.028 86.1248 21.979 85.6398 21.979H84.6398C84.2868 21.979 83.9898 22.061 83.7528 22.227C83.6416 22.2976 83.5503 22.3955 83.4876 22.5114C83.425 22.6273 83.393 22.7573 83.3948 22.889ZM88.8528 14.818V15.799L87.7458 16.084C87.9488 16.4 88.0488 16.754 88.0488 17.146C88.0488 17.905 87.7848 18.496 87.2548 18.92C86.7268 19.344 85.9918 19.556 85.0508 19.556L84.7038 19.537L84.4188 19.505C84.2208 19.657 84.1218 19.826 84.1218 20.012C84.1218 20.289 84.4758 20.429 85.1838 20.429H86.3858C87.1618 20.429 87.7528 20.596 88.1608 20.929C88.5668 21.262 88.7708 21.751 88.7708 22.395C88.7708 23.222 88.4258 23.863 87.7368 24.318C87.0468 24.773 86.0568 25.001 84.7668 25.001C83.7808 25.001 83.0268 24.829 82.5058 24.486C81.9848 24.142 81.7248 23.66 81.7248 23.041C81.7248 22.615 81.8578 22.259 82.1238 21.972C82.3888 21.685 82.7788 21.48 83.2938 21.358C83.0873 21.2681 82.9083 21.1253 82.7748 20.944C82.6342 20.7715 82.5559 20.5565 82.5528 20.334C82.5528 20.064 82.6308 19.84 82.7878 19.66C82.9836 19.4492 83.2118 19.271 83.4638 19.132C83.0955 18.9745 82.7866 18.7042 82.5818 18.36C82.3648 18.007 82.2558 17.589 82.2558 17.108C82.2558 16.337 82.5068 15.74 83.0088 15.318C83.5098 14.896 84.2268 14.685 85.1598 14.685C85.3568 14.685 85.5918 14.704 85.8648 14.739C86.1358 14.775 86.3098 14.802 86.3858 14.818H88.8528ZM93.6118 14.685C93.8738 14.685 94.0898 14.705 94.2638 14.743L94.1188 16.552C93.9323 16.5061 93.7407 16.4846 93.5488 16.488C92.9328 16.488 92.4538 16.646 92.1098 16.963C91.7658 17.279 91.5948 17.722 91.5948 18.291V21.89H89.6658V14.818H91.1258L91.4118 16.008H91.5058C91.7248 15.611 92.0218 15.292 92.3948 15.05C92.7555 14.8109 93.179 14.6839 93.6118 14.685ZM98.9518 18.613L98.2048 18.639C97.6438 18.655 97.2268 18.757 96.9528 18.942C96.6778 19.128 96.5418 19.41 96.5418 19.79C96.5418 20.334 96.8538 20.605 97.4778 20.605C97.9238 20.605 98.2818 20.478 98.5488 20.22C98.8168 19.963 98.9518 19.621 98.9518 19.195V18.613ZM99.5198 21.89L99.1468 20.929H99.0968C98.7718 21.337 98.4378 21.621 98.0938 21.779C97.7508 21.937 97.3018 22.017 96.7508 22.017C96.0718 22.017 95.5368 21.822 95.1468 21.435C94.7568 21.047 94.5618 20.494 94.5618 19.777C94.5618 19.026 94.8248 18.474 95.3488 18.117C95.8748 17.761 96.6658 17.563 97.7238 17.525L98.9518 17.487V17.178C98.9518 16.461 98.5838 16.103 97.8508 16.103C97.2858 16.103 96.6218 16.273 95.8588 16.615L95.2198 15.312C96.0338 14.887 96.9358 14.673 97.9258 14.673C98.8758 14.673 99.6028 14.88 100.109 15.293C100.615 15.706 100.868 16.335 100.868 17.178V21.89H99.5198ZM108.754 21.89H106.826V17.76C106.826 17.25 106.74 16.867 106.569 16.611C106.399 16.356 106.129 16.229 105.763 16.229C105.27 16.229 104.912 16.41 104.688 16.773C104.464 17.136 104.353 17.732 104.353 18.562V21.89H102.423V14.818H103.897L104.157 15.724H104.264C104.458 15.395 104.743 15.1298 105.086 14.961C105.445 14.777 105.856 14.685 106.32 14.685C107.377 14.685 108.094 15.031 108.47 15.724H108.64C108.831 15.395 109.11 15.14 109.479 14.958C109.868 14.7713 110.296 14.6778 110.728 14.685C111.529 14.685 112.135 14.892 112.546 15.303C112.958 15.714 113.163 16.372 113.163 17.279V21.89H111.227V17.76C111.227 17.25 111.142 16.867 110.971 16.611C110.8 16.356 110.532 16.229 110.165 16.229C109.693 16.229 109.339 16.397 109.106 16.735C108.872 17.072 108.754 17.607 108.754 18.342V21.89ZM121.05 21.89H119.122V17.76C119.122 17.25 119.036 16.867 118.865 16.611C118.695 16.356 118.425 16.229 118.059 16.229C117.566 16.229 117.208 16.41 116.984 16.773C116.76 17.136 116.649 17.732 116.649 18.562V21.89H114.719V14.818H116.193L116.453 15.724H116.56C116.754 15.395 117.039 15.1298 117.382 14.961C117.741 14.777 118.152 14.685 118.616 14.685C119.673 14.685 120.39 15.031 120.766 15.724H120.936C121.126 15.395 121.406 15.14 121.775 14.958C122.164 14.7713 122.592 14.6778 123.024 14.685C123.825 14.685 124.431 14.892 124.842 15.303C125.253 15.714 125.459 16.372 125.459 17.279V21.89H123.523V17.76C123.523 17.25 123.438 16.867 123.267 16.611C123.096 16.356 122.828 16.229 122.46 16.229C121.989 16.229 121.635 16.397 121.402 16.735C121.168 17.072 121.05 17.607 121.05 18.342V21.89ZM129.987 16.058C129.578 16.058 129.257 16.188 129.025 16.447C128.793 16.707 128.661 17.074 128.626 17.551H131.334C131.326 17.074 131.201 16.707 130.96 16.447C130.72 16.188 130.396 16.058 129.987 16.058ZM130.258 22.017C129.121 22.017 128.23 21.702 127.589 21.074C126.949 20.445 126.628 19.556 126.628 18.405C126.628 17.22 126.924 16.304 127.517 15.657C128.109 15.01 128.928 14.685 129.974 14.685C130.973 14.685 131.751 14.971 132.308 15.54C132.865 16.109 133.142 16.895 133.142 17.898V18.835H128.583C128.604 19.383 128.766 19.812 129.07 20.119C129.374 20.427 129.799 20.58 130.347 20.58C130.753 20.5823 131.159 20.5377 131.555 20.447C131.965 20.3484 132.364 20.2062 132.744 20.023V21.516C132.401 21.6872 132.038 21.8136 131.663 21.892C131.2 21.9825 130.729 22.0244 130.258 22.017ZM66.5728 32.217C66.2213 31.0901 65.8723 29.9624 65.5258 28.834C65.4629 28.6293 65.4072 28.4225 65.3588 28.214C65.2188 28.754 64.8208 30.088 64.1638 32.217H66.5728ZM67.7108 36.062L67.0418 33.861H63.6698L62.9998 36.062H60.8868L64.1508 26.778H66.5468L69.8238 36.062H67.7108ZM70.6488 36.063H72.5788V26.222H70.6488V36.063ZM74.1738 36.062H76.1038V28.991H74.1738V36.062ZM74.0918 27.164C74.0918 26.535 74.4418 26.222 75.1418 26.222C75.8418 26.222 76.1918 26.535 76.1918 27.164C76.1918 27.463 76.1048 27.696 75.9288 27.862C75.7538 28.029 75.4918 28.112 75.1418 28.112C74.4418 28.112 74.0918 27.796 74.0918 27.164ZM84.0308 36.062H82.1018V31.933C82.1018 31.423 82.0158 31.04 81.8448 30.784C81.6748 30.529 81.4058 30.402 81.0398 30.402C80.5458 30.402 80.1878 30.583 79.9638 30.946C79.7408 31.308 79.6288 31.905 79.6288 32.735V36.062H77.6998V28.991H79.1728L79.4328 29.896H79.5408C79.7298 29.571 80.0038 29.317 80.3628 29.134C80.7456 28.9443 81.1686 28.8496 81.5958 28.858C82.6538 28.858 83.3708 29.204 83.7468 29.896H83.9168C84.1068 29.567 84.3858 29.312 84.7548 29.131C85.1443 28.9445 85.5719 28.851 86.0038 28.858C86.8048 28.858 87.4118 29.064 87.8228 29.475C88.2338 29.887 88.4388 30.545 88.4388 31.452V36.062H86.5028V31.933C86.5028 31.423 86.4178 31.04 86.2478 30.784C86.0768 30.529 85.8078 30.402 85.4408 30.402C84.9688 30.402 84.6158 30.57 84.3818 30.908C84.1478 31.245 84.0308 31.78 84.0308 32.515V36.062ZM92.9668 30.231C92.5578 30.231 92.2378 30.361 92.0048 30.62C91.7738 30.88 91.6408 31.247 91.6068 31.724H94.3138C94.3058 31.247 94.1808 30.88 93.9408 30.62C93.7008 30.361 93.3758 30.231 92.9668 30.231ZM93.2388 36.189C92.1008 36.189 91.2098 35.875 90.5698 35.247C89.9288 34.618 89.6088 33.728 89.6088 32.578C89.6088 31.393 89.9048 30.476 90.4978 29.83C91.0888 29.183 91.9088 28.858 92.9548 28.858C93.9538 28.858 94.7318 29.143 95.2888 29.713C95.8448 30.282 96.1228 31.068 96.1228 32.071V33.008H91.5628C91.5838 33.556 91.7468 33.984 92.0498 34.292C92.3538 34.6 92.7798 34.753 93.3278 34.753C93.7528 34.753 94.1558 34.709 94.5358 34.62C94.9158 34.532 95.3108 34.391 95.7238 34.196V35.689C95.3809 35.8599 95.0177 35.9863 94.6428 36.065C94.1803 36.1547 93.7098 36.1962 93.2388 36.189ZM103.898 36.062H101.969V31.933C101.969 31.423 101.878 31.04 101.697 30.784C101.515 30.529 101.227 30.402 100.831 30.402C100.291 30.402 99.9008 30.582 99.6608 30.942C99.4198 31.304 99.2998 31.901 99.2998 32.735V36.062H97.3708V28.991H98.8438L99.1038 29.896H99.2108C99.4258 29.555 99.7218 29.296 100.1 29.121C100.504 28.9401 100.944 28.8504 101.387 28.858C102.209 28.858 102.834 29.081 103.259 29.526C103.685 29.971 103.898 30.613 103.898 31.452V36.062ZM108.422 34.652C108.759 34.652 109.164 34.578 109.636 34.431V35.866C109.156 36.081 108.565 36.189 107.866 36.189C107.094 36.189 106.532 35.994 106.18 35.603C105.828 35.214 105.652 34.629 105.652 33.849V30.44H104.728V29.624L105.791 28.978L106.347 27.486H107.581V28.991H109.56V30.44H107.581V33.849C107.581 34.123 107.658 34.325 107.812 34.456C107.965 34.587 108.169 34.652 108.422 34.652ZM114.736 32.786L113.989 32.812C113.428 32.828 113.011 32.93 112.737 33.115C112.462 33.301 112.326 33.583 112.326 33.963C112.326 34.507 112.638 34.778 113.262 34.778C113.709 34.778 114.066 34.65 114.334 34.392C114.601 34.136 114.736 33.794 114.736 33.368V32.786ZM115.304 36.062L114.931 35.102H114.881C114.556 35.51 114.222 35.794 113.878 35.952C113.535 36.11 113.086 36.189 112.535 36.189C111.856 36.189 111.321 35.995 110.931 35.607C110.542 35.22 110.346 34.667 110.346 33.95C110.346 33.199 110.609 32.646 111.133 32.29C111.659 31.934 112.45 31.736 113.508 31.698L114.736 31.66V31.35C114.736 30.634 114.369 30.275 113.635 30.275C113.07 30.275 112.406 30.446 111.643 30.788L111.004 29.485C111.818 29.059 112.72 28.846 113.71 28.846C114.66 28.846 115.387 29.053 115.893 29.466C116.399 29.879 116.652 30.508 116.652 31.35V36.062H115.304ZM118.199 36.062H120.128V28.991H118.199V36.062ZM118.117 27.164C118.117 26.535 118.466 26.222 119.167 26.222C119.867 26.222 120.216 26.535 120.216 27.164C120.216 27.463 120.129 27.696 119.954 27.862C119.779 28.029 119.516 28.112 119.167 28.112C118.466 28.112 118.117 27.796 118.117 27.164ZM125.67 28.858C125.932 28.858 126.149 28.878 126.323 28.916L126.177 30.725C125.991 30.6791 125.799 30.6576 125.608 30.661C124.992 30.661 124.512 30.819 124.168 31.136C123.825 31.452 123.654 31.895 123.654 32.464V36.062H121.724V28.991H123.185L123.47 30.181H123.565C123.784 29.784 124.081 29.465 124.454 29.223C124.814 28.9836 125.237 28.8566 125.67 28.858ZM130.141 30.231C129.732 30.231 129.412 30.361 129.179 30.62C128.948 30.88 128.815 31.247 128.781 31.724H131.488C131.48 31.247 131.355 30.88 131.115 30.62C130.875 30.361 130.55 30.231 130.141 30.231ZM130.413 36.189C129.275 36.189 128.384 35.875 127.744 35.247C127.103 34.618 126.783 33.728 126.783 32.578C126.783 31.393 127.079 30.476 127.671 29.83C128.263 29.183 129.083 28.858 130.128 28.858C131.127 28.858 131.906 29.143 132.462 29.713C133.019 30.282 133.296 31.068 133.296 32.071V33.008H128.737C128.758 33.556 128.92 33.984 129.224 34.292C129.528 34.6 129.954 34.753 130.501 34.753C130.927 34.753 131.33 34.709 131.709 34.62C132.119 34.5214 132.518 34.3792 132.898 34.196V35.689C132.555 35.8599 132.192 35.9863 131.817 36.065C131.354 36.1546 130.884 36.1962 130.413 36.189ZM65.9408 50.236L63.7138 42.982H63.6578C63.7378 44.458 63.7778 45.442 63.7778 45.935V50.236H62.0258V40.99H64.6948L66.8828 48.06H66.9198L69.2418 40.99H71.9108V50.236H70.0838V45.859C70.0838 45.653 70.0858 45.415 70.0918 45.145C70.0988 44.875 70.1278 44.158 70.1778 42.995H70.1208L67.7368 50.236H65.9408ZM75.2718 46.688C75.2718 47.389 75.3868 47.917 75.6168 48.275C75.8458 48.634 76.2198 48.813 76.7388 48.813C77.2528 48.813 77.6238 48.635 77.8488 48.279C78.0748 47.923 78.1878 47.392 78.1878 46.688C78.1878 45.988 78.0738 45.464 77.8458 45.113C77.6188 44.764 77.2458 44.589 76.7268 44.589C76.2118 44.589 75.8408 44.763 75.6138 45.11C75.3858 45.458 75.2718 45.984 75.2718 46.688ZM80.1608 46.688C80.1608 47.839 79.8568 48.739 79.2508 49.389C78.6428 50.038 77.7968 50.363 76.7138 50.363C76.0348 50.363 75.4358 50.214 74.9178 49.917C74.3994 49.6199 73.9827 49.1735 73.7218 48.636C73.4438 48.08 73.3048 47.431 73.3048 46.688C73.3048 45.533 73.6058 44.635 74.2098 43.994C74.8118 43.353 75.6598 43.032 76.7518 43.032C77.4308 43.032 78.0298 43.181 78.5478 43.475C79.0668 43.77 79.4648 44.194 79.7438 44.747C80.0218 45.299 80.1608 45.946 80.1608 46.688ZM87.8978 50.236H85.9688V46.106C85.9688 45.597 85.8778 45.214 85.6968 44.958C85.5148 44.703 85.2268 44.576 84.8308 44.576C84.2908 44.576 83.9008 44.756 83.6608 45.116C83.4198 45.477 83.2998 46.075 83.2998 46.909V50.236H81.3708V43.165H82.8438L83.1038 44.07H83.2108C83.4258 43.728 83.7218 43.47 84.0998 43.295C84.5043 43.1141 84.9437 43.0244 85.3868 43.032C86.2088 43.032 86.8338 43.255 87.2588 43.7C87.6848 44.144 87.8978 44.787 87.8978 45.626V50.236ZM92.4388 48.826C92.9318 48.826 93.2928 48.683 93.5238 48.395C93.7528 48.109 93.8778 47.622 93.8998 46.934V46.726C93.8998 45.967 93.7828 45.423 93.5478 45.095C93.3148 44.766 92.9338 44.601 92.4068 44.601C91.9768 44.601 91.6428 44.783 91.4048 45.148C91.1668 45.513 91.0468 46.043 91.0468 46.739C91.0468 47.434 91.1678 47.956 91.4078 48.304C91.6478 48.652 91.9918 48.826 92.4388 48.826ZM91.7618 50.363C90.9308 50.363 90.2788 50.04 89.8038 49.395C89.3308 48.75 89.0928 47.856 89.0928 46.714C89.0928 45.554 89.3338 44.65 89.8168 44.004C90.2998 43.356 90.9648 43.032 91.8128 43.032C92.7028 43.032 93.3808 43.378 93.8488 44.07H93.9128C93.8214 43.6051 93.7725 43.1328 93.7668 42.659V40.395H95.7028V50.236H94.2218L93.8488 49.319H93.7668C93.3288 50.015 92.6598 50.363 91.7618 50.363ZM97.2928 50.236H99.2218V43.165H97.2928V50.236ZM97.2098 41.338C97.2098 40.709 97.5598 40.395 98.2598 40.395C98.9598 40.395 99.3098 40.709 99.3098 41.338C99.3098 41.637 99.2228 41.87 99.0468 42.036C98.8728 42.203 98.6098 42.286 98.2598 42.286C97.5598 42.286 97.2098 41.97 97.2098 41.338ZM104.726 46.96L103.979 46.985C103.418 47.002 103.001 47.103 102.727 47.289C102.453 47.475 102.316 47.757 102.316 48.137C102.316 48.681 102.628 48.952 103.252 48.952C103.699 48.952 104.056 48.824 104.324 48.566C104.591 48.309 104.726 47.968 104.726 47.542V46.96ZM105.294 50.236L104.921 49.275H104.872C104.546 49.684 104.212 49.968 103.869 50.126C103.525 50.284 103.077 50.363 102.525 50.363C101.846 50.363 101.311 50.169 100.921 49.781C100.532 49.393 100.336 48.841 100.336 48.124C100.336 47.373 100.599 46.82 101.124 46.464C101.649 46.107 102.44 45.91 103.499 45.872L104.726 45.834V45.524C104.726 44.808 104.359 44.449 103.626 44.449C103.06 44.449 102.396 44.62 101.633 44.962L100.995 43.659C101.808 43.233 102.71 43.019 103.701 43.019C104.65 43.019 105.377 43.226 105.883 43.64C106.389 44.053 106.642 44.682 106.642 45.524V50.236H105.294ZM108.201 50.236H110.13V40.395H108.201V50.236Z" fill="black"/>
</svg>
