<svg width="59" height="87" viewBox="0 0 59 87" fill="none" xmlns="http://www.w3.org/2000/svg">
<path d="M33.9 25.8C34.6 22.6 36.6 18.7 37.2 17.6C37.2 17.5 37.2 17.5 37.2 17.4C37.1 17.4 37.1 17.4 37 17.4C33.9 22.6 32.8 25.6 32.1 29.1H34.1C34.4 25.7 38.7 17.7 43.3 18.2C43.3 18.2 43.3 18.2 43.4 18.2V18.1C42.7 18 38.5 17.3 33.9 25.8Z" fill="black"/>
<path d="M37 13.6C36.9 13.6 36.9 15.3 36.6 16.1C36.5 16.2 36.5 16.4 36.6 16.6C36.6 16.8 36.7 16.9 36.9 17.1C37 17.2 37.1 17.2 37.3 17.2H37.4C37.4 17.2 37.4 17.2 37.4 17.3C37.4 17.4 37.5 17.5 37.7 17.6C37.8 17.7 38 17.7 38.2 17.6C38.4 17.6 38.5 17.5 38.6 17.3C39.1 16.7 40.4 15.8 40.3 15.7C40.2 15.6 39.2 16.9 38.4 16.6C38.3 16.5 38.1 16.5 37.9 16.6C37.8 16.6 37.7 16.7 37.6 16.8C37.6 16.7 37.6 16.6 37.6 16.5C37.6 16.3 37.5 16.2 37.3 16.1C36.7 15.3 37.1 13.6 37 13.6Z" fill="black"/>
<path d="M53.2 24.2C53.2 24.2 53.2 24.3 53.2 24.2C52.2 22 49.7 20.9 48.6 19.3H48.5C49.5 23.8 52.9 25.2 53.5 27.5H53.6C54.1 25.7 55 23.8 54.9 21.1C54.8 19 54.4 17 53 15.3H52.9C53.8 18.8 52.9 21.7 53.2 24.2Z" fill="black"/>
<path d="M53.6 31.7C53.5 28.8 51.4 27 50.2 24.8H50.1C49.9 29 53 31.7 52.9 35.2C52.9 35.2 53 35.3 53 35.2C55.4 31.9 57.7 27.8 56.1 23.5H56C55.9 26.9 54 29.5 53.6 31.7C53.6 31.8 53.6 31.8 53.6 31.7Z" fill="black"/>
<path d="M50.9 17.9C50.3 16.9 47.4 15.5 45.6 14.1H45.5C46.5 17.2 49.9 18.5 52 20.7H52.1C51.9 17.4 52.5 13.4 48.9 10.6C48.9 10.6 48.8 10.6 48.8 10.7C49.6 11.9 49.8 13.3 50.1 14.7L50.9 17.9Z" fill="black"/>
<path d="M49.3 15.1C48.4 11.7 46.1 9.1 43 9C43 9 42.9 9.1 43 9.1C45.2 10.6 45 11.9 49.3 15.1Z" fill="black"/>
<path d="M24.3 42.1C23.9 42.1 23.5 42.1 23.2 42C24.2 43.5 25.7 44.6 27.3 45.3C27.5 46.6 27.8 47.8 27.9 47.9C28 48 29.5 47.6 29.6 47.4C29.6 47.3 29 45 29 45C29.8 43.6 30 42.8 30.3 42H24.3V42.1Z" fill="black"/>
<path d="M39.4 22.8C39.3 22.9 39.2 23 39.2 23.2C39.2 23.3 39.2 23.5 39.2 23.6C39.3 23.7 39.3 23.8 39.5 23.9C39.6 23.9 39.7 23.9 39.8 23.9C39.8 24 39.8 24 39.8 24.1C39.8 24.2 39.9 24.3 40 24.4C40.1 24.5 40.2 24.5 40.4 24.5C40.5 24.5 40.7 24.4 40.8 24.3C41.3 23.8 42.5 23.3 42.5 23.2C42.4 23.1 41.3 24 40.8 23.6C40.7 23.5 40.6 23.5 40.4 23.5C40.3 23.5 40.3 23.5 40.2 23.6V23.5C40.2 23.3 40.2 23.2 40.2 23.1C40 22.4 41 21.5 40.9 21.4C40.6 21.2 40 22.3 39.4 22.8Z" fill="black"/>
<path d="M54.7 40.4C53.1 42.5 49.6 43.3 46.2 46C47.9 43.7 47.7 40.6 48.4 37.9C48.4 37.9 48.4 37.8 48.3 37.9C45 41.6 45.4 45.7 44 47.6V47.7C49 47.5 54.3 43.2 54.7 40.4Z" fill="black"/>
<path d="M38.2 23.7C38.1 23.8 38 23.9 38 24.1C38 24.3 38 24.4 38.1 24.6C38.2 24.7 38.3 24.8 38.4 24.8C38.5 24.8 38.5 24.8 38.6 24.8C38.6 24.9 38.6 25.1 38.7 25.2C38.8 25.3 38.9 25.4 39.1 25.4C39.3 25.4 39.4 25.4 39.5 25.3C40.1 24.9 41.5 24.6 41.5 24.4C41.5 24.3 40.1 25 39.6 24.5C39.5 24.4 39.4 24.3 39.2 24.3C39.1 24.3 39 24.3 38.9 24.3V24.2C38.9 24 38.9 23.9 38.8 23.7C38.4 23 39.4 21.7 39.3 21.7C39.2 21.7 38.7 23.1 38.2 23.7Z" fill="black"/>
<path d="M37.1 24.5C37 24.6 36.9 24.8 36.9 25C36.9 25.2 36.9 25.4 37 25.5C37.1 25.6 37.2 25.7 37.3 25.7H37.4C37.4 25.7 37.4 25.7 37.4 25.8C37.4 25.9 37.4 26.1 37.5 26.2C37.6 26.3 37.8 26.4 37.9 26.4C38.1 26.4 38.3 26.4 38.4 26.3C39.1 25.9 40.6 25.5 40.6 25.4C40.6 25.3 39.1 26.1 38.5 25.6C38.4 25.5 38.2 25.4 38.1 25.4C38 25.4 37.8 25.4 37.7 25.4C37.7 25.3 37.8 25.2 37.8 25.1C37.8 24.9 37.8 24.7 37.7 24.6C37.4 23.9 38.3 22.4 38.2 22.3C38.1 22.2 37.6 23.9 37.1 24.5Z" fill="black"/>
<path d="M16.6 51C18.3 50.9 19.5 50.1 21.1 49.8V49.7C17.3 48.8 16.2 45.2 13 43.6C13 43.6 12.9 43.6 13 43.7C14 45.4 14.6 47.9 17.5 49.5C17.5 49.5 17.5 49.6 17.5 49.5C13.3 48.7 11.6 49.8 7.2 47.8C7.2 47.8 7.1 47.8 7.1 47.9C8.5 50 11.9 51.4 16.6 51Z" fill="black"/>
<path d="M51.2 39.3C52.1 36.7 50.6 33.2 50.6 30.8C50.6 30.8 50.5 30.7 50.5 30.8C48.7 35.1 50.6 39.5 49 42.4V42.5C51.2 41.4 53.3 39.7 54.9 37.7C55.9 36.2 56.8 34.5 56.7 32.5C56.7 32.5 56.6 32.4 56.6 32.5C55.3 35.4 53.5 36.1 51.2 39.3C51.3 39.4 51.2 39.4 51.2 39.3Z" fill="black"/>
<path d="M37.3 53.7C40 54.7 43.1 53.9 45.2 52.2V52.1C43.7 52.7 41.7 52.7 40.1 52.3C36.4 51.2 32.4 49 28.5 50.8C24.6 49 20.5 51.2 16.9 52.3C15.3 52.7 13.3 52.7 11.8 52.1C11.8 52.1 11.7 52.1 11.8 52.2C14 53.9 17 54.6 19.7 53.7C22.3 52.9 24.5 50.1 27.6 51.3C25.1 52.3 22.9 54 21.1 55.7L22.4 56.8C24 54.9 25.8 53.1 27.9 51.9C28.2 51.7 28.3 51.7 28.5 51.7C28.7 51.7 28.9 51.8 29.1 51.9C31.2 53 33 54.9 34.6 56.8L35.9 55.7C34.1 54 31.8 52.3 29.4 51.3C32.5 50.2 34.7 52.9 37.3 53.7Z" fill="black"/>
<path d="M13 47.6C13.1 47.6 13.1 47.5 13 47.6C11.6 45.6 12 41.6 8.7 37.8H8.6C9.2 40.5 9 43.7 10.8 45.9C7.4 43.2 3.9 42.4 2.4 40.3H2.3C2.7 43.2 8.1 47.5 13 47.6Z" fill="black"/>
<path d="M34.7 29.1H35.4C35.8 28.3 36.5 26.8 37.1 26.3C37.2 26.2 37.2 26.1 37.1 26.1C37.1 26 36.9 26 36.9 26.1C35.6 27.3 34.9 28.6 34.7 29.1Z" fill="black"/>
<path d="M40.4 23.1C40.5 23.2 40.6 23.2 40.7 23.2C40.8 23.2 40.9 23.1 41.1 23C41.2 22.9 41.3 22.8 41.3 22.6C41.5 22 42.6 21.4 42.5 21.3C42.4 21.1 41.5 22.1 40.9 22.2C40.8 22.2 40.7 22.3 40.5 22.4C40.4 22.5 40.3 22.6 40.3 22.8C40.3 22.9 40.3 23 40.4 23.1Z" fill="black"/>
<path d="M37.8 12.7C37.7 12.7 37.7 14.2 37.4 14.9C37.3 15 37.3 15.2 37.4 15.4C37.4 15.6 37.5 15.7 37.7 15.8C37.8 15.9 38 15.9 38.1 15.9C38.2 15.9 38.2 15.9 38.3 15.8C38.3 15.9 38.4 16.1 38.6 16.1C38.7 16.2 38.9 16.2 39 16.1C39.2 16.1 39.3 16 39.4 15.8C39.8 15.2 41.1 14.4 41 14.3C40.9 14.2 39.9 15.4 39.2 15.1C39.1 15 38.9 15 38.7 15.1C38.6 15.1 38.5 15.2 38.5 15.2V15.1C38.5 14.9 38.4 14.8 38.2 14.7C37.5 14.2 37.9 12.7 37.8 12.7Z" fill="black"/>
<path d="M35.9 47.1C35.9 47.1 36 47.2 36 47.1C36.1 47.1 36.1 47 36.1 47C35.9 46.4 35.6 45.8 35.3 45.3C35 44.7 34.8 44.1 34.6 43.5C34.4 43.1 34.2 42.5 34.1 42.1H33.4C33.6 42.6 33.8 43.2 34 43.8C34.6 44.9 35.2 46.1 35.9 47.1Z" fill="black"/>
<path d="M36.4 40.2C36.4 39.5 35.9 39 35.4 39C35.4 39 24.7 39 23.7 39C21.3 39 19.8 37.3 15.7 38.3V38.4C20.7 39 21 41.5 24.3 41.5C26.9 41.5 35.4 41.5 35.4 41.5C35.9 41.4 36.4 40.9 36.4 40.2Z" fill="black"/>
<path d="M49.9 47.8C45.5 49.8 43.8 48.7 39.6 49.5C42.5 47.9 43.1 45.4 44.1 43.7V43.6C40.9 45.2 39.9 48.7 36 49.7V49.8C37.6 50.2 38.8 50.9 40.5 51C45.1 51.4 48.6 50 49.9 47.8C50 47.8 50 47.8 49.9 47.8Z" fill="black"/>
<path d="M18.1 33.6C18 33.7 18.1 33.7 18.1 33.6C18.7 33.3 20.9 32.2 23.6 32.2C26.2 32.2 35.4 32.2 35.4 32.2C36 32.2 36.4 31.7 36.4 31C36.4 30.3 35.9 29.8 35.4 29.8C35.4 29.8 25.9 29.8 25 29.8C20.9 29.8 18.5 33 18.1 33.6Z" fill="black"/>
<path d="M16 36.2C16.5 36 18.5 35.3 21.5 35.3C24.1 35.3 35.3 35.3 35.3 35.3C35.9 35.3 36.3 34.8 36.3 34.1C36.3 33.4 35.8 32.9 35.3 32.9C35.3 32.9 25.1 32.9 24.1 32.9C23.3 32.9 19.3 32.7 16 36.2Z" fill="black"/>
<path d="M14.9 37.7C19.9 36.5 20.8 38.3 24.1 38.3C26.7 38.3 35.4 38.3 35.4 38.3C36 38.3 36.4 37.8 36.4 37.1C36.4 36.4 35.9 35.9 35.4 35.9C35.4 35.9 22.8 35.9 21.9 35.9C20.6 35.9 17.6 35.8 14.9 37.7C14.8 37.7 14.8 37.7 14.9 37.7Z" fill="black"/>
<path d="M34 46.5L34.1 46.4L33.1 42H31.3C31.6 43.1 32 44.2 32.5 45.2C32.5 45.3 32.6 45.3 32.7 45.3C32.8 45.3 32.8 45.2 32.8 45.1C32.7 44.2 32.5 43.3 32.4 42.4C32.7 43.9 33.2 45.2 34 46.5C33.9 46.5 34 46.5 34 46.5Z" fill="black"/>
<path d="M35.7 44.6C35.8 44.6 35.8 44.5 35.8 44.4C35.6 43.7 35.4 42.8 35.3 42H34.6C34.9 42.8 35.2 43.7 35.5 44.5C35.6 44.6 35.7 44.6 35.7 44.6Z" fill="black"/>
<path d="M3.5 27.6C4.2 25.3 7.5 23.8 8.5 19.4C8.5 19.4 8.5 19.3 8.4 19.4C7.3 21 4.7 22.1 3.8 24.3C3.8 24.3 3.7 24.3 3.8 24.3C4.2 21.8 3.2 18.9 4.1 15.5C4.1 15.5 4.1 15.4 4 15.5C2.6 17.2 2.2 19.2 2.1 21.3C2 23.8 3 25.8 3.5 27.6C3.4 27.6 3.5 27.6 3.5 27.6Z" fill="black"/>
<path d="M5.1 20.7C7.2 18.5 10.5 17.1 11.6 14.1C11.6 14.1 11.6 14 11.5 14.1C9.7 15.5 6.8 16.9 6.2 18L6.9 14.7C7.2 13.3 7.5 12 8.2 10.7C8.2 10.7 8.2 10.6 8.1 10.6C4.6 13.4 5.2 17.4 5.1 20.7C5 20.7 5 20.7 5.1 20.7Z" fill="black"/>
<path d="M17.1 22.7C17.1 22.8 17.1 22.9 17.1 23C15.7 21.4 12.4 19.5 11.2 18.8C11.1 18.8 11.1 18.8 11 18.8C10.9 18.9 10.9 19 11 19C13.8 21.7 16.2 25 18.6 31.9C19.8 30.7 21.9 29.1 25 29.1H28.6C26.3 20.7 29.6 17.7 26.6 13.8L26.5 13.7C26.4 13.7 26.4 13.8 26.4 13.9C27.6 17.1 26.1 18.7 25.4 21C24.6 19.2 27.2 17.4 25.9 14.1L25.8 14C25.7 14 25.7 14 25.7 14.1C25.7 14.3 25.5 16.2 24 17.3C23.8 16.9 23.6 16.6 23.3 16.3C23.2 15.7 22.8 14.8 21.9 14.6C21.8 14.3 21.5 13.8 21 13.6C20.5 13.4 20 13.4 19.4 13.7C18.7 13.8 18.2 14.1 17.9 14.5C17.7 14.9 17.7 15.4 17.8 15.8C17.2 16.5 17.2 17.4 17.2 17.8C16.8 18.7 17 19.7 17.2 20.1C16.5 21.2 16.9 22.3 17.1 22.7ZM17.5 22.8C17.1 22 18.5 21 18.9 22C19.3 22.8 17.9 23.7 17.5 22.8ZM20.1 18.4C20.4 18.7 20.4 19.3 19.9 19.4C19.6 19.5 19.3 19.6 19.1 19.3C18.8 19 18.9 18.4 19.3 18.3C19.5 18.2 19.9 18.1 20.1 18.4ZM19.9 16.1C19.7 15.5 20.8 15.1 20.9 15.8C21.2 16.4 20.1 16.7 19.9 16.1ZM19 24.7C18.9 24.7 18.9 24.8 18.9 24.8L18.1 24C18.1 24 18.3 23.8 18.4 23.8C19 23.4 19.5 24.4 19 24.7ZM19.1 20.8C18.8 19.9 20.4 19.4 20.7 20.4C21 21.4 19.3 21.8 19.1 20.8ZM19.4 22.9C19.1 21.9 20.8 21.4 21.1 22.4C21.3 23.4 19.6 23.9 19.4 22.9ZM20.8 19.3C20.6 18.5 22 18.1 22.2 18.9C22.5 19.7 21 20.1 20.8 19.3ZM22.8 20.6C23 21 22.9 21.6 22.4 21.7C22.1 21.8 21.7 21.8 21.4 21.5C21.1 21.1 21.2 20.3 21.8 20.3C22.1 20.3 22.5 20.2 22.8 20.6ZM19.6 24.9C19.3 23.9 21 23.4 21.3 24.4C21.6 25.5 19.8 25.9 19.6 24.9ZM21.6 26.8C21.5 27.2 21.2 27.2 20.9 27.3C20.7 27 20.1 26.4 20.1 26.3V26.2C20.1 26.1 20.2 26 20.3 26C20.5 25.9 20.9 25.8 21.1 25.8C21.5 25.9 21.7 26.4 21.6 26.8ZM22 22.4C22.4 22.3 22.8 22.2 23.1 22.5C23.4 22.9 23.3 23.6 22.8 23.8C22.5 23.9 22 24 21.7 23.7C21.4 23.3 21.4 22.5 22 22.4ZM22.4 24.4C22.8 24.3 23.2 24.2 23.5 24.5C23.8 24.9 23.7 25.5 23.2 25.7C22.9 25.8 22.5 25.9 22.2 25.6C21.8 25.3 21.8 24.5 22.4 24.4ZM23.9 27.5C23.9 27.7 23.6 27.7 23.4 27.8C22.9 27.9 22.4 27.9 22.3 27.3C22.1 26.7 22.6 26.4 23.1 26.3C23.4 26.2 23.6 26.3 23.8 26.5C23.8 26.6 23.9 26.6 23.9 26.7C24 26.7 24 27.4 23.9 27.5ZM24.3 24.8C24.3 24.9 24.3 25 24.3 25C24 24.8 23.9 24.5 24 24.2C24.1 24 24.3 23.9 24.5 23.9C24.4 24.2 24.4 24.5 24.3 24.8ZM24.8 22.7C24.8 22.8 24.6 23.5 24.6 23.5C24.5 23.5 24.3 23.5 24.3 23.5C23.9 23.5 23.5 23.1 23.7 22.7C23.8 22.3 24.1 22.3 24.4 22.3C24.5 22.3 24.8 22.3 24.9 22.4C24.9 22.3 24.8 22.5 24.8 22.7ZM24.4 20.5C24.7 20.9 24.6 21.5 24.1 21.6C23.8 21.6 23.5 21.6 23.3 21.4C23 21 23.1 20.4 23.6 20.3C23.9 20.2 24.3 20.3 24.4 20.5ZM23.7 18.5C24.2 18.7 24.3 19.3 24 19.6C23.8 19.8 23.5 19.7 23.3 19.7C22.9 19.6 22.6 18.9 23 18.6C23.1 18.4 23.5 18.4 23.7 18.5ZM22.8 16.9C23.2 16.9 23.4 17.5 23.2 17.8C23.1 18 22.8 18 22.6 18C22.2 17.9 22 17.5 22.2 17.1C22.3 16.8 22.5 16.9 22.8 16.9ZM21.7 15.3C21.9 15.2 22.1 15.3 22.3 15.4C22.6 15.7 22.5 16.1 22.1 16.2C21.9 16.2 21.7 16.2 21.5 16.1C21.3 16 21.3 15.4 21.7 15.3ZM21.6 17.3C21.8 18 20.6 18.4 20.4 17.7C20.2 17 21.4 16.6 21.6 17.3ZM20.1 14C20.3 13.9 20.6 13.8 20.8 14C21.1 14.2 21 14.7 20.7 14.9C20.5 15 20.2 15.1 20 14.9C19.7 14.6 19.7 14.2 20.1 14ZM19.9 17.2C20.1 17.8 19 18.2 18.8 17.6C18.7 16.9 19.8 16.5 19.9 17.2ZM18.3 16.1C18.1 15.5 19.1 15.2 19.3 15.8C19.5 16.4 18.5 16.7 18.3 16.1ZM18.5 14.3C18.7 14.2 19 14.1 19.2 14.3C19.4 14.5 19.3 14.9 19.1 15C18.9 15.1 18.6 15.1 18.4 14.9C18.2 14.8 18.2 14.5 18.5 14.3ZM17.6 16.7C17.8 16.6 18 16.5 18.2 16.6C18.5 16.7 18.5 17.2 18.3 17.4C18.2 17.5 18 17.6 17.8 17.6C17.4 17.4 17.3 16.9 17.6 16.7ZM17.5 18.4C17.7 18.2 17.9 18.1 18.2 18.2C18.6 18.4 18.6 18.9 18.3 19.2C18.2 19.3 17.9 19.4 17.7 19.4C17.3 19.2 17.2 18.7 17.5 18.4ZM18.7 20.2C19.1 21 17.8 21.8 17.4 21C17.1 20.3 18.2 19.4 18.7 20.2Z" fill="black"/>
<path d="M39.6 13.9C39.5 13.9 39.3 13.9 39.2 13.9C39.1 13.9 39.1 14 39 14V13.9C39 13.7 38.9 13.6 38.8 13.5C38.4 13 39 11.7 38.9 11.6C38.8 11.6 38.6 12.9 38.2 13.5C38.1 13.7 38.1 13.8 38.1 14C38.1 14.2 38.2 14.3 38.3 14.4C38.4 14.5 38.5 14.6 38.6 14.5C38.7 14.5 38.8 14.4 38.8 14.4C38.8 14.5 38.8 14.5 38.8 14.6C38.9 14.7 39 14.8 39.1 14.8C39.2 14.8 39.4 14.8 39.5 14.8C39.6 14.7 39.7 14.6 39.8 14.5C40.1 13.9 41.1 13 41 12.9C41 12.8 40.2 14 39.6 13.9Z" fill="black"/>
<path d="M7.9 42.5C8 42.5 8 42.5 7.9 42.5C6.4 39.6 8.3 35.1 6.5 30.9H6.4C6.3 33.2 4.9 36.7 5.8 39.4C3.6 36.1 1.8 35.4 0.299999 32.5H0.199999C0.0999993 34.5 0.999999 36.2 2 37.7C3.6 39.7 5.7 41.4 7.9 42.5Z" fill="black"/>
<path d="M4.1 35.3C4 31.8 7.1 29.1 6.9 24.9C6.9 24.9 6.8 24.8 6.8 24.9C5.6 27.1 3.5 28.9 3.4 31.8C3 29.5 1.1 27 1 23.7C1 23.6 0.900002 23.6 0.900002 23.7C-0.599998 27.9 1.6 32 4.1 35.3Z" fill="black"/>
<path d="M7.8 15.1C12.1 12 11.8 10.6 14.2 9.1V9C11 9.1 8.7 11.7 7.8 15.1C7.7 15.1 7.8 15.1 7.8 15.1Z" fill="black"/>
<path d="M30.2 4.90001H32.8V3.50001H30.2V1.50001H33V0.100006H28.5V8.00001H30.2V4.90001Z" fill="black"/>
<path d="M39.4 12.6C39.3 12.7 39.2 12.8 39.1 12.9C39.1 13 39.1 13.2 39.1 13.3C39.1 13.4 39.2 13.5 39.3 13.6C39.4 13.7 39.5 13.7 39.6 13.6C39.7 13.5 39.8 13.4 39.9 13.3C40 13.2 40 13 40 12.9C40 12.2 40.8 11.3 40.7 11.2C40.5 11.1 40 12.3 39.4 12.6Z" fill="black"/>
<path d="M20.9 8L22 3.9C22 3.7 22.1 3.4 22.2 3C22.3 2.6 22.3 2.3 22.4 2.1C22.4 2.3 22.5 2.6 22.6 3C22.7 3.4 22.8 3.8 22.8 3.9L23.9 8H25.8L27.8 0.1H26.2L25.2 4.4C25.1 4.7 25.1 5 25 5.4C24.9 5.8 24.9 6.2 24.8 6.4C24.8 6.1 24.7 5.8 24.6 5.4C24.5 5 24.5 4.7 24.4 4.5L23.1 0.1H21.5L20.4 4.5C20.3 4.7 20.3 5.1 20.2 5.5C20.1 5.9 20.1 6.2 20.1 6.4C20 5.8 19.9 5.1 19.7 4.3L18.7 0H17.1L19.1 7.9H20.9V8Z" fill="black"/>
<path d="M31.8 13.7C31.7 14 31.6 14.2 31.7 14.3C31.6 14.3 31.4 14.5 31.3 14.8C31.2 15.1 31.2 15.4 31.2 15.5C31.1 15.5 30.9 15.7 30.8 16.1C30.7 16.4 30.7 16.7 30.8 16.8C30.7 16.8 30.5 17 30.4 17.4C30.3 17.8 30.3 18.1 30.4 18.1C30.3 18.1 30.1 18.4 30 18.7C29.9 19 29.9 19.3 30 19.4C29.9 19.4 29.8 19.7 29.7 20.1C29.6 20.4 29.7 20.7 29.8 20.8C29.7 20.9 29.6 21.1 29.5 21.5C29.5 21.8 29.5 22.1 29.6 22.2C29.5 22.3 29.4 22.5 29.4 22.8C29.4 23.1 29.4 23.3 29.4 23.4C29.3 23.5 29.2 23.8 29.2 24.1C29.2 24.4 29.2 24.6 29.3 24.7C29.2 24.8 29.2 25 29.2 25.2C29.2 25.5 29.2 25.7 29.3 25.8C29.3 26.8 29.3 27.8 29.3 28.8H31.4C31.4 28 31.5 27.2 31.5 26.4C31.6 25.1 31.9 23.7 32.5 22.5V22.4H32.4C31.5 23.5 31.1 24.9 30.8 26.3C30.8 26.6 30.7 26.8 30.7 27.1C30.8 26 30.9 24.9 31.1 23.8C31.4 22.5 32 21.3 33.1 20.6C33.1 20.6 33.2 20.5 33.1 20.5C33.1 20.4 33 20.4 33 20.4C32.9 20.4 32.9 20.5 32.8 20.5C32.7 20.4 32.5 20.5 32.2 20.7C31.9 20.9 31.8 21.1 31.8 21.2C31.7 21.1 31.4 21.3 31.2 21.6C31.1 22.3 31 22.6 31.1 22.7C31 22.7 30.8 22.9 30.7 23.3C30.6 23.6 30.6 23.8 30.6 23.9C30.5 24.2 30.4 24.5 30.4 24.8C30.4 24.4 30.5 23.9 30.5 23.5C30.7 22.2 31.1 21 31.7 20C32.4 18.9 33.3 18.1 34.1 17.1V17H34C33.8 17.2 33.6 17.4 33.4 17.6C33.3 17.6 33.1 17.6 32.9 17.8C32.7 17.9 32.6 18.1 32.6 18.2C32.5 18.2 32.3 18.3 32.1 18.6C31.9 18.8 31.9 19 31.9 19.2C31.8 19.2 31.6 19.4 31.5 19.6C31.4 19.8 31.3 19.9 31.3 20C31.2 20.1 31.1 20.2 31 20.4C30.9 20.6 30.8 20.8 30.8 21C30.8 21.1 30.7 21.1 30.7 21.2V21.1C30.9 19.6 31.2 18.1 31.6 16.6C32 15.2 32.5 13.7 33.4 12.5C33.4 12.4 33.4 12.3 33.4 12.3C33.3 12.2 33.3 12.2 33.2 12.3C32.9 12.6 32.6 13 32.4 13.3C32.2 13.2 32 13.4 31.8 13.7Z" fill="black"/>
<path d="M35.9 5.2H36.6C37.6 5.2 38.3 5 38.9 4.5C39.4 4.1 39.7 3.4 39.7 2.6C39.7 1.8 39.5 1.2 39 0.799996C38.5 0.399996 37.8 0.199997 36.8 0.199997H34.3V8.1H36V5.2H35.9ZM35.9 1.5H36.7C37.2 1.5 37.5 1.6 37.7 1.8C37.9 2 38 2.3 38 2.7C38 3.1 37.9 3.4 37.6 3.6C37.3 3.8 37 3.9 36.5 3.9H36V1.5H35.9Z" fill="black"/>
<path d="M1.3 63.7C1.1 63.7 0.899998 63.8 0.799998 63.9C0.699998 64 0.599998 64.2 0.599998 64.4C0.599998 64.6 0.699998 64.8 0.799998 64.9C0.899998 65 1.1 65.1 1.3 65.1C1.5 65.1 1.7 65 1.8 64.9C1.9 64.8 2 64.6 2 64.3C2 64.1 1.9 63.9 1.8 63.8C1.7 63.8 1.5 63.7 1.3 63.7Z" fill="black"/>
<path d="M2.4 63.9C2.3 64 2.2 64.2 2.2 64.4C2.2 64.6 2.3 64.8 2.4 64.9C2.5 65 2.7 65.1 2.9 65.1C3.1 65.1 3.3 65 3.4 64.9C3.5 64.8 3.6 64.6 3.6 64.3C3.6 64.1 3.5 63.9 3.4 63.8C3.3 63.7 3.1 63.6 2.9 63.6C2.7 63.7 2.6 63.8 2.4 63.9Z" fill="black"/>
<path d="M2 70.6C2.4 70.6 2.7 70.5 3 70.3C3.3 70.7 3.8 70.9 4.4 70.9H5H5.5H6.1C6.6 70.9 7.1 70.7 7.4 70.4C7.8 70 8 69.6 8 68.9V66.3L6.5 67.1V68.9C6.5 69.1 6.5 69.3 6.4 69.4C6.3 69.5 6.2 69.5 5.9 69.5H5.5H5H4.6C4.4 69.5 4.2 69.5 4.1 69.4C4 69.3 4 69.2 4 68.9V65.5L2.5 66.3V66.5C2.3 66.4 2.1 66.4 2 66.4C1.5 66.4 1.1 66.6 0.7 66.9C0.3 67.3 0 67.9 0 68.5C0 69 0.2 69.5 0.5 69.9C0.9 70.4 1.4 70.6 2 70.6ZM1.7 68C1.8 67.9 2 67.8 2.1 67.8C2.3 67.8 2.4 67.8 2.5 67.9V69C2.5 69.1 2.5 69.2 2.5 69.2C2.4 69.3 2.3 69.4 2.1 69.4C1.7 69.4 1.5 69.1 1.5 68.6C1.5 68.3 1.6 68.1 1.7 68Z" fill="black"/>
<path d="M5.5 71.7C5.3 71.7 5.1 71.8 5 71.9C4.9 72 4.8 72.2 4.8 72.4C4.8 72.6 4.9 72.8 5 72.9C5.1 73 5.3 73.1 5.5 73.1C5.7 73.1 5.9 73 6 72.9C6.1 72.8 6.2 72.6 6.2 72.3C6.2 72.1 6.1 71.9 6 71.8C5.9 71.8 5.8 71.7 5.5 71.7Z" fill="black"/>
<path d="M6.7 71.9C6.6 72 6.5 72.2 6.5 72.4C6.5 72.6 6.6 72.8 6.7 72.9C6.8 73 7 73.1 7.2 73.1C7.4 73.1 7.6 73 7.7 72.9C7.8 72.8 7.9 72.6 7.9 72.3C7.9 72.1 7.8 71.9 7.7 71.8C7.6 71.7 7.4 71.6 7.2 71.6C7 71.6 6.8 71.8 6.7 71.9Z" fill="black"/>
<path d="M12.3 70.5C12.6 70.7 13 70.9 13.5 70.9H13.8H14.3H19.3V69.5H17.5C17.1 69.5 16.8 69.4 16.6 69.2C16.4 69 16.3 68.8 16.3 68.4C16.3 67.8 16.6 67.5 17.2 67.5C17.8 67.5 18.3 67.8 18.8 68.3V67C18.3 66.4 17.8 66 17 66C16.5 66 16 66.2 15.6 66.5C15.1 66.9 14.8 67.5 14.8 68.2C14.8 68.6 14.9 68.9 15 69.3H14.2H13.7H13.4C13.1 69.3 12.9 69.2 12.8 69.1C12.7 69 12.6 68.8 12.6 68.5C12.5 67.5 11.9 66.7 10.9 66.1L10.2 67.3C10.9 67.7 11.2 68.2 11.2 68.8C11.2 69.1 11.1 69.3 10.8 69.3H9.3L8.6 70.7H11.1C11.7 70.9 12.1 70.8 12.3 70.5Z" fill="black"/>
<path d="M10.4 64.7C10.4 64.9 10.5 65.1 10.6 65.2C10.7 65.3 10.9 65.4 11.1 65.4C11.3 65.4 11.5 65.3 11.6 65.2C11.7 65.1 11.8 64.9 11.8 64.7C11.8 64.5 11.7 64.3 11.6 64.2C11.5 64.1 11.3 64 11.1 64C10.9 64 10.7 64.1 10.6 64.2C10.5 64.3 10.4 64.5 10.4 64.7Z" fill="black"/>
<path d="M17.7 65.3C17.8 65.2 17.9 65 17.9 64.8C17.9 64.6 17.8 64.4 17.7 64.3C17.6 64.2 17.4 64.1 17.2 64.1C17 64.1 16.8 64.2 16.7 64.3C16.6 64.4 16.5 64.6 16.5 64.8C16.5 65 16.6 65.2 16.7 65.3C16.8 65.4 17 65.5 17.2 65.5C17.4 65.5 17.6 65.4 17.7 65.3Z" fill="black"/>
<path d="M21.5 65.2H23.5L23.8 64.5H22.8C22.7 64.4 22.7 64.3 22.7 64.2C22.7 64 22.8 63.9 23 63.9C23.2 63.9 23.3 64 23.5 64.1V63.5C23.3 63.3 23.1 63.3 22.9 63.3C22.7 63.3 22.5 63.4 22.3 63.5C22.1 63.7 22.1 63.9 22.1 64.1C22.1 64.2 22.1 64.4 22.2 64.5H21.9L21.5 65.2Z" fill="black"/>
<path d="M19.9 70.9H23.8C24.4 70.9 24.9 70.7 25.3 70.3C25.7 69.9 25.9 69.4 25.9 68.7V64.4L24.4 65.2V68.7C24.4 69 24.3 69.2 24.2 69.3C24.1 69.4 23.9 69.5 23.6 69.5H23.2V65.7L21.8 66.5V69.5H20.5L19.9 70.9Z" fill="black"/>
<path d="M27.5 70.9H29V64.4L27.5 65.2V70.9Z" fill="black"/>
<path d="M31.9 69.9C31.4 70.4 31.1 71 31.1 71.9C31.1 72.7 31.3 73.4 31.8 73.9C32.3 74.4 32.9 74.7 33.8 74.7C34.5 74.7 35.2 74.5 35.8 74.1V72.7C35.2 73.1 34.6 73.3 33.9 73.3C33 73.3 32.5 72.8 32.5 72C32.5 71.6 32.6 71.2 32.9 70.9C33.1 70.7 33.6 70.5 34.2 70.4C34.6 70.3 34.8 70.2 35 70.2C35.3 70.5 35.6 70.7 35.9 70.8C36.2 70.9 36.7 71 37.2 71H37.4H38.1H38.6C39 71 39.4 70.9 39.7 70.7C40 70.9 40.5 71 41 71C41.6 71 42 70.8 42.4 70.4C42.8 70 43 69.4 43 68.6C43 68 42.8 67.4 42.5 67C42.1 66.5 41.6 66.3 40.9 66.3C40.4 66.3 39.9 66.5 39.6 66.8C39.2 67.1 39 67.6 39 68.2V69C39 69.2 39 69.4 38.9 69.5C38.8 69.6 38.7 69.6 38.4 69.6H38.1H37.5H37.3C36.8 69.6 36.5 69.5 36.2 69.4C36.3 69.3 36.4 69.1 36.5 69V68.5C36.1 67.8 35.7 67.3 35.2 66.9C34.7 66.5 34.2 66.3 33.7 66.3C33 66.3 32.3 66.6 31.8 67.3V68.6C32.5 68 33.1 67.7 33.6 67.7C34.2 67.7 34.7 68 35.1 68.7C34.9 68.8 34.5 69 33.9 69.1C32.9 69.2 32.2 69.5 31.9 69.9ZM40.5 68.1C40.5 67.8 40.6 67.6 40.9 67.6C41.3 67.6 41.5 67.9 41.5 68.5C41.5 69.2 41.3 69.5 40.9 69.5C40.6 69.5 40.5 69.4 40.5 69.1V68.1Z" fill="black"/>
<path d="M33.5 71.4C33.4 71.5 33.3 71.7 33.3 71.9C33.3 72.1 33.4 72.2 33.5 72.4C33.6 72.5 33.8 72.6 34 72.6C34.2 72.6 34.3 72.5 34.5 72.4C34.7 72.3 34.7 72.1 34.7 71.9C34.7 71.7 34.6 71.6 34.5 71.4C34.4 71.2 34.2 71.2 34 71.2C33.8 71.2 33.6 71.3 33.5 71.4Z" fill="black"/>
<path d="M46.3 70.9H46.9H47.4H48C48.5 70.9 49 70.7 49.3 70.4C49.7 70 49.9 69.6 49.9 68.9V66.3L48.4 67.1V68.9C48.4 69.1 48.4 69.3 48.3 69.4C48.2 69.5 48.1 69.5 47.8 69.5H47.4H46.9H46.5C46.3 69.5 46.1 69.5 46.1 69.4C46 69.3 46 69.2 46 68.9V64.4L44.6 65.2V69C44.6 69.5 44.7 70 45 70.3C45.2 70.7 45.6 70.9 46.3 70.9Z" fill="black"/>
<path d="M49.7 64.2C49.6 64.1 49.4 64 49.2 64C49 64 48.8 64.1 48.7 64.2C48.6 64.3 48.5 64.5 48.5 64.7C48.5 64.9 48.6 65.1 48.7 65.2C48.8 65.3 49 65.4 49.2 65.4C49.4 65.4 49.6 65.3 49.7 65.2C49.8 65.1 49.9 64.9 49.9 64.7C49.9 64.5 49.8 64.3 49.7 64.2Z" fill="black"/>
<path d="M55.9 67.2V69C55.9 69.2 55.9 69.4 55.8 69.5C55.7 69.6 55.6 69.6 55.3 69.6H54.9H54.4H54C53.7 69.6 53.5 69.5 53.4 69.2V66.5L51.9 67.3V70.5C51.9 71.1 51.7 71.5 51.3 71.6C51.2 71.7 51 71.7 50.8 71.7C50.5 71.7 50.1 71.6 49.8 71.4V72.7C50.2 72.9 50.6 73 51.1 73C51.4 73 51.7 72.9 52 72.8C52.7 72.5 53.1 71.9 53.3 71C53.5 71 53.6 71.1 53.8 71.1H54.4H54.9H55.5C56 71.1 56.5 70.9 56.8 70.6C57.2 70.2 57.4 69.8 57.4 69.1V66.5L55.9 67.2Z" fill="black"/>
<path d="M56.8 73C56.9 72.9 57 72.7 57 72.5C57 72.3 56.9 72.1 56.8 72C56.7 71.9 56.5 71.8 56.3 71.8C56.1 71.8 55.9 71.9 55.8 72C55.7 72.1 55.6 72.3 55.6 72.5C55.6 72.7 55.7 72.9 55.8 73C55.9 73.1 56.1 73.2 56.3 73.2C56.5 73.2 56.6 73.2 56.8 73Z" fill="black"/>
<path d="M2.9 83.9C2.7 83.9 2.5 84 2.4 84.1C2.3 84.2 2.1 84.4 2.1 84.7C2.1 84.9 2.2 85.1 2.3 85.2C2.4 85.3 2.6 85.4 2.8 85.4C3 85.4 3.2 85.3 3.3 85.2C3.4 85.1 3.5 84.9 3.5 84.7C3.5 84.5 3.4 84.3 3.3 84.2C3.2 84.1 3.1 83.9 2.9 83.9Z" fill="black"/>
<path d="M4.5 83.9C4.3 83.9 4.1 84 4 84.1C3.9 84.2 3.8 84.4 3.8 84.6C3.8 84.8 3.9 85 4 85.1C4.1 85.2 4.3 85.3 4.5 85.3C4.7 85.3 4.9 85.2 5 85.1C5.1 85 5.2 84.8 5.2 84.6C5.2 84.4 5.1 84.2 5 84.1C4.9 84 4.7 83.9 4.5 83.9Z" fill="black"/>
<path d="M28.4 79.2C28.4 79.5 28.3 79.7 28.2 79.8C28.1 79.9 27.9 80 27.6 80H27.5H27H26.4H25.9H25.4C25.2 80 25 80 25 79.9C24.9 79.8 24.9 79.7 24.9 79.4V79.1C24.9 78.4 24.7 77.9 24.4 77.4C24 76.9 23.5 76.6 22.8 76.6C22.2 76.6 21.7 76.8 21.3 77.2C20.9 77.6 20.7 78.2 20.7 79V79.3C20.7 79.5 20.7 79.7 20.6 79.8C20.5 79.9 20.4 79.9 20.1 79.9H19.6H19.1H18.5H18H17.4H16.9H16.3H15.8H15.2H14.7H14.1H13.6H13H12.5H11.9H11.4H10.8H10.3H9.7H9.2H8.1H7.6H6.9H6.4H5.1L4.4 81.3H5.3C5.1 81.7 4.5 81.9 3.7 81.9C2.5 81.9 1.9 81.3 1.9 80.2C1.9 79.7 2 79.2 2.3 78.8L0.899999 79.1C0.699999 79.5 0.599998 79.9 0.599998 80.5C0.599998 81.2 0.799999 81.8 1.2 82.3C1.8 82.9 2.6 83.3 3.8 83.3C4.6 83.3 5.3 83.2 5.9 82.8C6.5 82.5 6.9 82 7 81.4H7.7H8.1H8.7H9.2H9.8H10.3H10.9H11.4H12H12.5H13.1H13.6H14.2H14.7H15.3H15.8H16.4H16.9H17.5H18H18.6H19.1H19.7C20.1 81.4 20.5 81.3 20.8 81.1C21.1 81.4 21.6 81.6 22.2 81.6C22.8 81.6 23.2 81.4 23.6 81.1C23.9 81.3 24.3 81.4 24.7 81.4H25.3H25.8H26.4H26.9H27.1C27.7 81.4 28.2 81.2 28.6 80.8C29 80.4 29.2 79.9 29.2 79.2V74.9L27.7 75.7V79.2H28.4ZM22.8 80.2C22.4 80.2 22.2 79.8 22.2 79.1C22.2 78.4 22.4 78.1 22.8 78.1C23.2 78.1 23.4 78.4 23.4 79.1C23.4 79.8 23.2 80.2 22.8 80.2Z" fill="black"/>
<path d="M52.9 79.2C52.9 79.5 52.8 79.7 52.7 79.8C52.6 79.9 52.4 80 52.1 80H52H51.5H50.9H50.4H49.8H49.3H48.7H48.2H47.6H47.1H45.6C45.9 79.7 46.2 79.3 46.4 78.8V78.3C46.1 77.8 45.7 77.4 45.2 77.1C44.7 76.8 44.2 76.7 43.8 76.7C43.3 76.7 42.9 76.8 42.4 77.1C41.9 77.4 41.5 77.8 41.2 78.2V78.7C41.5 79.2 41.8 79.5 42 79.9H40.5H40H39.1H38.6H38H37.5H36.9H36.4H35.8H35.1H34.5H34H33.6C33.4 79.9 33.2 79.9 33.2 79.8C33.1 79.7 33.1 79.6 33.1 79.3V74.8L31.7 75.6V79.4C31.7 79.9 31.8 80.4 32.1 80.7C32.4 81.1 32.9 81.3 33.5 81.3H34.1H34.6H35.1H35.6H36.2H36.7H37.3H37.8H38.4H39.1H39.7H40.2H42.5C42.8 81.3 43.2 81.2 43.5 81.1C43.8 81.2 44.2 81.3 44.5 81.3H46.8H47.3H47.9H48.4H49H49.5H50.1H50.6H51.2H51.7H51.9C52.5 81.3 53 81.1 53.4 80.7C53.8 80.3 54 79.8 54 79.1V74.8L52.5 75.6V79.2H52.9ZM43.6 79.7C43.2 79.5 42.9 79.1 42.5 78.5C42.8 78.2 43.2 78 43.6 78C44 78 44.3 78.2 44.7 78.5C44.3 79.1 43.9 79.5 43.6 79.7Z" fill="black"/>
<path d="M55.9 81.4H57.4V74.9L55.9 75.7V81.4Z" fill="black"/>
</svg>
