<svg width="57" height="57" viewBox="0 0 57 57" fill="none" xmlns="http://www.w3.org/2000/svg">
<path fill-rule="evenodd" clip-rule="evenodd" d="M35.956 3.715H36.506C37.021 3.715 37.406 3.614 37.662 3.409C37.917 3.206 38.046 2.909 38.046 2.522C38.046 2.13 37.938 1.84 37.724 1.652C37.51 1.465 37.174 1.37 36.717 1.37H35.956V3.715ZM39.736 2.462C39.736 3.312 39.471 3.962 38.939 4.411C38.408 4.862 37.654 5.086 36.675 5.086H35.955V7.895H34.282V0H36.803C37.761 0 38.489 0.205 38.988 0.618C39.487 1.031 39.736 1.645 39.736 2.462ZM30.147 7.895H28.501V0H33.027V1.37H30.147V3.407H32.827V4.774H30.147V7.894V7.895ZM25.597 7.895H23.692L22.622 3.747C22.5473 3.44368 22.4799 3.13859 22.42 2.832C22.325 2.369 22.27 2.059 22.256 1.9C22.214 2.2143 22.16 2.52686 22.094 2.837C22.007 3.267 21.94 3.575 21.894 3.758L20.83 7.895H18.93L16.915 0H18.562L19.572 4.308C19.748 5.105 19.876 5.794 19.955 6.378C19.976 6.172 20.025 5.855 20.105 5.424C20.181 4.994 20.254 4.66 20.322 4.423L21.472 0H23.055L24.205 4.423C24.3529 5.06933 24.4737 5.72156 24.567 6.378C24.602 6.096 24.661 5.746 24.739 5.327C24.819 4.909 24.891 4.569 24.955 4.308L25.96 0H27.607L25.597 7.895ZM21.504 35.356C18.436 35.356 16.467 36.084 15.93 36.31C15.897 36.324 15.872 36.279 15.895 36.254C19.268 32.75 23.214 32.943 24.163 32.943H35.386C35.951 32.943 36.409 33.483 36.409 34.151C36.409 34.816 35.951 35.356 35.386 35.356H21.504ZM24.031 38.458C20.727 38.458 19.763 36.58 14.761 37.819C14.725 37.829 14.702 37.781 14.731 37.761C17.521 35.848 20.554 36.021 21.781 36.021H35.386C35.951 36.021 36.409 36.561 36.409 37.227C36.409 37.893 35.951 38.433 35.386 38.433C35.386 38.433 26.648 38.458 24.031 38.458ZM24.267 41.511C20.873 41.511 20.602 39.008 15.573 38.444C15.538 38.44 15.533 38.387 15.568 38.379C19.7 37.346 21.238 39.099 23.649 39.099H35.386C35.951 39.099 36.409 39.639 36.409 40.305C36.409 40.971 35.951 41.511 35.386 41.511H24.266H24.267ZM23.53 32.278C20.799 32.278 18.535 33.47 18.005 33.77C17.975 33.787 17.945 33.751 17.965 33.724C18.408 33.072 20.8 29.866 24.913 29.866H35.386C35.951 29.866 36.409 30.406 36.409 31.073C36.409 31.738 35.951 32.278 35.386 32.278H23.53ZM38.552 25.618C38.4304 25.5015 38.2735 25.4287 38.106 25.411C37.9829 25.395 37.8577 25.4102 37.742 25.455C37.7938 25.3509 37.8285 25.2391 37.845 25.124C37.8705 24.9474 37.8408 24.7671 37.76 24.608C37.423 23.868 38.389 22.387 38.267 22.321C38.15 22.256 37.602 23.889 37.069 24.549C36.9561 24.6898 36.8866 24.8604 36.869 25.04C36.8471 25.2167 36.877 25.3959 36.955 25.556C37.029 25.69 37.143 25.783 37.275 25.791C37.311 25.796 37.3477 25.794 37.383 25.785C37.3744 25.8042 37.368 25.8243 37.364 25.845C37.3552 25.9167 37.3636 25.9894 37.3885 26.0572C37.4134 26.125 37.454 26.186 37.507 26.235C37.613 26.346 37.767 26.422 37.95 26.443C38.1212 26.468 38.2958 26.4349 38.446 26.349C39.169 25.954 40.668 25.564 40.636 25.425C40.608 25.287 39.146 26.145 38.552 25.617V25.618ZM39.658 24.538C39.5508 24.4228 39.4047 24.3516 39.248 24.338C39.156 24.3333 39.064 24.348 38.978 24.381C38.992 24.334 39.011 24.295 39.016 24.249C39.0342 24.0873 38.9984 23.9241 38.914 23.785C38.547 23.104 39.504 21.818 39.38 21.755C39.256 21.69 38.73 23.13 38.199 23.699C38.0845 23.8136 38.0138 23.9647 37.999 24.126C37.9825 24.2887 38.0178 24.4525 38.1 24.594C38.1373 24.6543 38.187 24.706 38.2458 24.7456C38.3046 24.7853 38.3711 24.812 38.441 24.824C38.5018 24.8272 38.5626 24.8201 38.621 24.803C38.618 24.811 38.61 24.821 38.612 24.829C38.6066 24.9019 38.6162 24.9751 38.6403 25.044C38.6644 25.113 38.7024 25.1763 38.752 25.23C38.8596 25.342 39.0042 25.4113 39.159 25.425C39.3135 25.4418 39.4688 25.4001 39.594 25.308C40.217 24.858 41.641 24.592 41.604 24.448C41.571 24.308 40.207 25.062 39.658 24.538ZM40.626 23.539C40.5137 23.4564 40.3745 23.4193 40.236 23.435C40.1674 23.4389 40.1002 23.4559 40.038 23.485C40.048 23.455 40.067 23.432 40.077 23.402C40.1145 23.2591 40.1061 23.1079 40.053 22.97C39.82 22.302 40.85 21.314 40.749 21.233C40.649 21.158 39.982 22.356 39.433 22.778C39.3179 22.8668 39.2361 22.9919 39.201 23.133C39.158 23.2744 39.1655 23.4264 39.222 23.563C39.278 23.689 39.367 23.783 39.489 23.82C39.581 23.849 39.673 23.83 39.76 23.793C39.7402 23.8474 39.732 23.9053 39.736 23.963C39.75 24.1 39.816 24.215 39.924 24.295C40.0365 24.3785 40.1757 24.4177 40.3152 24.4054C40.4548 24.393 40.5849 24.3299 40.681 24.228C41.175 23.728 42.404 23.262 42.354 23.141C42.301 23.021 41.196 23.911 40.626 23.539ZM42.531 21.394C42.428 21.242 41.568 22.184 40.931 22.275C40.7953 22.2964 40.6696 22.3593 40.571 22.455C40.4611 22.5498 40.3832 22.6762 40.348 22.817C40.3322 22.8721 40.3291 22.93 40.3388 22.9864C40.3485 23.0428 40.3708 23.0964 40.404 23.143C40.475 23.23 40.584 23.267 40.705 23.253C40.8435 23.2335 40.9722 23.17 41.072 23.072C41.1762 22.9755 41.2508 22.8513 41.287 22.714C41.48 22.067 42.607 21.492 42.531 21.394ZM24.741 22.671C24.715 22.764 24.53 23.491 24.53 23.491C24.478 23.521 24.256 23.471 24.197 23.467C23.773 23.427 23.394 23.057 23.557 22.617C23.689 22.257 23.963 22.219 24.309 22.203C24.452 22.197 24.711 22.231 24.839 22.321C24.839 22.321 24.789 22.487 24.741 22.671ZM24.254 24.864C24.2391 24.9467 24.2258 25.0298 24.214 25.113C23.95 24.947 23.794 24.568 23.921 24.268C24.018 24.041 24.26 23.982 24.438 23.972C24.374 24.268 24.311 24.565 24.254 24.864ZM23.874 27.576C23.839 27.762 23.588 27.786 23.416 27.837C22.917 27.987 22.446 27.923 22.292 27.327C22.126 26.689 22.609 26.422 23.126 26.297C23.409 26.23 23.669 26.285 23.862 26.523C23.911 26.583 23.968 26.636 23.982 26.693C23.982 26.693 23.905 27.4 23.873 27.576H23.874ZM22.303 24.436C22.688 24.344 23.086 24.199 23.382 24.579C23.694 24.976 23.591 25.614 23.089 25.783C22.759 25.895 22.361 25.991 22.079 25.722C21.709 25.369 21.736 24.568 22.303 24.436ZM21.926 22.369C22.332 22.27 22.751 22.121 23.063 22.519C23.388 22.935 23.279 23.609 22.754 23.785C22.407 23.899 21.986 24.001 21.691 23.718C21.303 23.349 21.331 22.508 21.926 22.368V22.369ZM21.549 26.838C21.443 27.21 21.137 27.265 20.815 27.344C20.604 27.084 20.037 26.429 20.027 26.351C20.0243 26.3205 20.0284 26.2897 20.039 26.261C20.065 26.183 20.155 26.109 20.221 26.067C20.414 25.941 20.825 25.847 21.047 25.893C21.445 25.978 21.655 26.465 21.549 26.838ZM19.532 24.928C19.242 23.899 20.968 23.451 21.234 24.46C21.509 25.498 19.767 25.938 19.532 24.929V24.928ZM19.279 22.874C18.983 21.851 20.717 21.402 20.984 22.406C21.258 23.446 19.514 23.886 19.279 22.874ZM19.036 20.854C18.754 19.901 20.382 19.478 20.63 20.418C20.886 21.386 19.258 21.803 19.036 20.854ZM18.871 24.742C18.791 24.789 18.76 24.814 18.734 24.814L17.959 23.972C17.969 23.948 18.208 23.774 18.287 23.728C18.931 23.37 19.461 24.394 18.871 24.742ZM17.401 22.844C17.018 22 18.411 21.084 18.833 21.994C19.221 22.834 17.828 23.765 17.401 22.844ZM18.571 20.17C19.013 20.953 17.685 21.827 17.305 20.984C16.967 20.258 18.148 19.411 18.572 20.17H18.571ZM17.459 18.345C17.654 18.172 17.881 18.079 18.113 18.19C18.485 18.37 18.495 18.927 18.171 19.15C18.023 19.251 17.773 19.377 17.591 19.331C17.192 19.23 17.116 18.649 17.459 18.345ZM17.509 16.667C17.67 16.558 17.884 16.461 18.069 16.537C18.404 16.674 18.392 17.162 18.12 17.357C17.997 17.445 17.773 17.555 17.622 17.515C17.282 17.429 17.197 16.877 17.509 16.667ZM18.401 14.277C18.601 14.169 18.889 14.124 19.068 14.324C19.1172 14.3775 19.1534 14.4416 19.1737 14.5115C19.1939 14.5813 19.1977 14.6548 19.1847 14.7264C19.1717 14.7979 19.1423 14.8654 19.0988 14.9237C19.0553 14.9819 18.9989 15.0293 18.934 15.062C18.72 15.169 18.432 15.209 18.264 15.012C18.2177 14.9573 18.1841 14.893 18.1657 14.8237C18.1474 14.7544 18.1446 14.6819 18.1577 14.6115C18.1709 14.541 18.1995 14.4743 18.2416 14.4163C18.2836 14.3583 18.3381 14.3104 18.401 14.276V14.277ZM18.242 16.093C18.082 15.495 19.089 15.213 19.252 15.82C19.435 16.412 18.403 16.705 18.242 16.093ZM19.868 17.138C20.102 17.784 19.008 18.151 18.793 17.512C18.575 16.865 19.675 16.496 19.868 17.138ZM20.005 13.988C20.214 13.904 20.482 13.815 20.715 13.988C21.005 14.205 20.942 14.693 20.609 14.845C20.389 14.945 20.11 15.011 19.915 14.838C19.667 14.616 19.654 14.129 20.005 13.988ZM19.813 19.398C19.517 19.468 19.207 19.585 18.962 19.331C18.648 19.008 18.739 18.441 19.163 18.287C19.438 18.182 19.785 18.124 20.01 18.353C20.297 18.648 20.266 19.288 19.813 19.398ZM19.818 16.096C19.628 15.455 20.672 15.126 20.873 15.748C21.078 16.388 19.997 16.726 19.818 16.096ZM21.568 17.271C21.812 18.003 20.575 18.393 20.348 17.672C20.118 16.936 21.363 16.544 21.568 17.272V17.271ZM21.633 15.311C21.851 15.252 22.082 15.274 22.248 15.451C22.501 15.724 22.414 16.189 22.038 16.259C21.863 16.291 21.591 16.278 21.453 16.157C21.205 15.938 21.217 15.422 21.633 15.311ZM22.688 16.847C23.086 16.847 23.288 17.432 23.055 17.723C22.915 17.9 22.615 17.91 22.409 17.879C22.029 17.819 21.785 17.331 22.042 16.999C22.197 16.799 22.464 16.847 22.688 16.847ZM20.776 19.257C20.529 18.415 21.96 18.038 22.179 18.874C22.401 19.724 20.963 20.099 20.776 19.257ZM21.652 20.333C22.042 20.293 22.449 20.203 22.688 20.611C22.938 21.044 22.751 21.645 22.246 21.747C21.912 21.816 21.509 21.848 21.271 21.553C20.96 21.164 21.084 20.386 21.651 20.333H21.652ZM23.637 18.459C24.119 18.658 24.282 19.227 23.942 19.545C23.76 19.711 23.427 19.678 23.202 19.633C22.754 19.545 22.461 18.871 22.854 18.551C23.056 18.387 23.417 18.367 23.637 18.459ZM24.395 20.488C24.699 20.86 24.585 21.516 24.055 21.548C23.778 21.565 23.416 21.532 23.229 21.305C22.929 20.942 23.042 20.261 23.572 20.242C23.849 20.232 24.208 20.262 24.395 20.488ZM26.445 13.788C26.4309 13.7665 26.4103 13.7501 26.3862 13.7411C26.3621 13.7321 26.3357 13.731 26.311 13.738C26.247 13.758 26.205 13.828 26.229 13.889C27.441 17.144 25.894 18.746 25.248 21.025C24.472 19.174 27.042 17.432 25.718 14.058C25.7098 14.0364 25.6962 14.0173 25.6785 14.0024C25.6608 13.9876 25.6397 13.9774 25.617 13.973C25.552 13.963 25.488 13.991 25.477 14.079C25.443 14.317 25.287 16.186 23.77 17.282C23.6079 16.8947 23.3672 16.5453 23.063 16.256C22.923 15.626 22.513 14.76 21.646 14.504C21.516 14.178 21.256 13.71 20.755 13.459C20.282 13.224 19.735 13.246 19.129 13.521C18.395 13.606 17.891 13.892 17.625 14.37C17.375 14.821 17.419 15.313 17.503 15.648C16.886 16.308 16.857 17.284 16.873 17.668C16.506 18.548 16.712 19.577 16.828 20.004C16.39 21.202 16.818 22.363 16.988 22.748C16.988 22.852 16.994 22.951 16.999 23.051C15.564 21.479 12.297 19.534 11.049 18.791C11.0205 18.774 10.9872 18.767 10.9542 18.771C10.9213 18.7749 10.8906 18.7897 10.867 18.813C10.8369 18.841 10.8192 18.8798 10.8177 18.9208C10.8162 18.9619 10.831 19.0019 10.859 19.032C13.643 21.747 16.127 25.097 18.512 32.048C19.701 30.81 21.852 29.184 24.913 29.184H28.493C26.219 20.71 29.53 17.678 26.445 13.788ZM43.373 18.169C42.718 17.999 38.539 17.259 33.855 25.874C34.538 22.665 36.615 18.784 37.185 17.656V17.648C37.2013 17.6161 37.206 17.5795 37.1983 17.5445C37.1907 17.5095 37.1711 17.4782 37.143 17.456C37.1283 17.4456 37.1117 17.4383 37.0941 17.4344C37.0765 17.4305 37.0583 17.4302 37.0406 17.4335C37.0229 17.4367 37.0061 17.4435 36.991 17.4534C36.976 17.4633 36.963 17.4761 36.953 17.491C33.857 22.652 32.77 25.625 32.13 29.184H34.068C34.398 25.754 38.731 17.672 43.348 18.274H43.355C43.381 18.279 43.404 18.257 43.407 18.234C43.4096 18.2275 43.4108 18.2206 43.4105 18.2136C43.4102 18.2066 43.4083 18.1998 43.4051 18.1936C43.4019 18.1874 43.3973 18.182 43.3918 18.1778C43.3862 18.1735 43.3798 18.1705 43.373 18.169ZM34.06 46.555L33.013 42.175H31.229C31.512 43.287 31.916 44.418 32.439 45.408C32.472 45.467 32.535 45.503 32.599 45.492C32.683 45.481 32.749 45.392 32.733 45.301C32.612 44.375 32.467 43.48 32.33 42.587C32.707 43.99 33.217 45.36 33.903 46.622C33.921 46.662 33.961 46.68 33.997 46.667C34.047 46.657 34.074 46.603 34.06 46.555ZM35.863 44.567C35.681 43.835 35.491 42.937 35.327 42.176H34.65C34.913 42.988 35.27 43.894 35.586 44.669C35.618 44.744 35.689 44.781 35.758 44.762C35.7973 44.7493 35.8301 44.7219 35.8497 44.6856C35.8693 44.6493 35.874 44.6068 35.863 44.567ZM36.089 47.142L36.084 47.132C35.865 46.519 35.563 45.972 35.322 45.384C35.0609 44.8051 34.8241 44.2156 34.612 43.617C34.44 43.164 34.258 42.647 34.119 42.176H33.464C33.649 42.724 33.889 43.314 34.114 43.843C34.606 45.037 35.176 46.208 35.902 47.254C35.9153 47.2734 35.935 47.2876 35.9576 47.2941C35.9802 47.3007 36.0043 47.2992 36.026 47.29C36.0536 47.2783 36.0756 47.2563 36.0873 47.2287C36.0991 47.2011 36.0997 47.17 36.089 47.142ZM37.069 26.128C37.019 26.053 36.898 26.037 36.839 26.098C35.9782 27.0201 35.2517 28.059 34.681 29.184H35.388C35.741 28.354 36.538 26.886 37.051 26.357L37.056 26.352C37.083 26.3216 37.099 26.2829 37.1014 26.2423C37.1038 26.2016 37.0923 26.1614 37.069 26.128ZM31.687 20.05C32.34 18.976 33.311 18.153 34.135 17.16C34.1491 17.141 34.1561 17.1177 34.1546 17.094C34.1532 17.0704 34.1434 17.0481 34.127 17.031C34.1194 17.023 34.1103 17.0165 34.1002 17.012C34.0901 17.0075 34.0792 17.0051 34.0681 17.0048C34.0571 17.0045 34.0461 17.0064 34.0357 17.0104C34.0254 17.0144 34.016 17.0204 34.008 17.028C33.8205 17.2264 33.626 17.4182 33.425 17.603C33.338 17.56 33.116 17.645 32.892 17.821C32.715 17.961 32.588 18.116 32.543 18.227C32.43 18.201 32.216 18.335 32.024 18.58C31.866 18.787 31.774 19.003 31.775 19.136C31.655 19.146 31.477 19.302 31.328 19.548C31.229 19.711 31.166 19.868 31.145 19.999C31.0195 20.0962 30.9139 20.2168 30.834 20.354C30.699 20.579 30.631 20.806 30.652 20.937C30.62 20.993 30.589 21.047 30.562 21.103L30.578 20.969C30.771 19.449 31.05 17.942 31.475 16.489C31.902 15.04 32.415 13.579 33.293 12.407L33.298 12.401C33.3201 12.3694 33.3306 12.3311 33.3277 12.2926C33.3248 12.2542 33.3086 12.2179 33.282 12.19C33.2693 12.1753 33.2536 12.1634 33.2359 12.1552C33.2183 12.147 33.1991 12.1426 33.1797 12.1423C33.1602 12.1421 33.1409 12.1459 33.1231 12.1536C33.1052 12.1613 33.0892 12.1727 33.076 12.187C32.7791 12.5121 32.5151 12.8658 32.288 13.243C32.188 13.189 31.976 13.387 31.815 13.697C31.668 13.977 31.615 14.236 31.67 14.335C31.67 14.335 31.668 14.344 31.662 14.34C31.557 14.295 31.362 14.53 31.243 14.845C31.127 15.142 31.105 15.415 31.185 15.505C31.18 15.511 31.18 15.514 31.177 15.519C31.058 15.476 30.865 15.746 30.747 16.129C30.649 16.452 30.639 16.731 30.709 16.844C30.715 16.849 30.709 16.864 30.704 16.86C30.583 16.817 30.399 17.095 30.29 17.474C30.182 17.84 30.19 18.164 30.293 18.227C30.174 18.214 30.008 18.492 29.921 18.869C29.841 19.195 29.85 19.475 29.926 19.588C29.809 19.622 29.681 19.894 29.614 20.248C29.551 20.592 29.584 20.878 29.668 20.969C29.559 21.025 29.448 21.305 29.408 21.653C29.369 21.998 29.419 22.28 29.508 22.372C29.419 22.472 29.332 22.714 29.296 23.002C29.259 23.277 29.282 23.515 29.335 23.649C29.237 23.731 29.163 24.009 29.161 24.344C29.153 24.61 29.192 24.837 29.261 24.968C29.208 25.102 29.171 25.297 29.171 25.513C29.166 25.794 29.211 26.033 29.281 26.159C29.2603 27.1676 29.2757 28.1765 29.327 29.184H31.457C31.472 28.414 31.522 27.576 31.599 26.814C31.75 25.458 31.973 24.079 32.652 22.919L32.657 22.911C32.668 22.8908 32.6726 22.8678 32.6703 22.845C32.668 22.8222 32.6588 22.8005 32.644 22.783C32.604 22.748 32.548 22.748 32.512 22.791C31.592 23.86 31.187 25.311 30.95 26.702C30.9085 26.9746 30.8725 27.248 30.842 27.522C30.899 26.406 31.002 25.294 31.258 24.236C31.552 22.948 32.137 21.722 33.253 21.036C33.271 21.024 33.2846 21.0065 33.2918 20.9862C33.299 20.9658 33.2994 20.9436 33.293 20.923C33.2866 20.8998 33.2715 20.8799 33.2508 20.8676C33.2301 20.8553 33.2054 20.8515 33.182 20.857C33.112 20.877 33.045 20.916 32.977 20.945C32.902 20.854 32.631 20.921 32.351 21.1C32.085 21.273 31.908 21.487 31.926 21.605C31.926 21.61 31.913 21.618 31.913 21.607C31.911 21.594 31.908 21.581 31.9 21.573C31.8 21.49 31.53 21.677 31.304 21.995C31.074 22.313 30.984 22.645 31.081 22.73C31.087 22.732 31.084 22.74 31.079 22.74C30.961 22.693 30.763 22.962 30.639 23.34C30.549 23.603 30.527 23.847 30.559 23.986C30.559 23.991 30.555 23.996 30.555 23.996C30.462 24.3 30.385 24.608 30.315 24.92C30.34 24.48 30.38 24.036 30.443 23.598C30.631 22.337 31.011 21.103 31.687 20.05ZM38.386 16.534C38.2319 16.4669 38.0596 16.4535 37.897 16.496C37.7762 16.5269 37.6643 16.5854 37.57 16.667C37.5858 16.5512 37.5797 16.4335 37.552 16.32C37.5171 16.1469 37.4285 15.9891 37.299 15.869C36.723 15.295 37.119 13.565 36.984 13.544C36.852 13.526 36.9 15.249 36.628 16.056C36.5695 16.2276 36.5632 16.4128 36.61 16.588C36.657 16.778 36.752 16.938 36.87 17.041C36.984 17.141 37.122 17.186 37.25 17.146C37.2857 17.1398 37.3193 17.1251 37.348 17.103C37.348 17.125 37.348 17.146 37.351 17.167C37.381 17.309 37.481 17.418 37.618 17.482C37.758 17.549 37.929 17.565 38.108 17.52C38.2762 17.4821 38.4272 17.3901 38.538 17.258C39.079 16.63 40.351 15.735 40.275 15.615C40.199 15.498 39.125 16.817 38.385 16.535L38.386 16.534ZM40.844 14.357C40.763 14.239 39.744 15.427 39.05 15.132C38.9094 15.0626 38.7482 15.0473 38.597 15.089C38.5098 15.1175 38.429 15.1626 38.359 15.222C38.357 15.174 38.359 15.132 38.349 15.089C38.3117 14.9304 38.2214 14.7893 38.093 14.689C37.512 14.181 37.968 12.636 37.832 12.62C37.692 12.604 37.694 14.14 37.393 14.862C37.3259 15.0095 37.3128 15.1758 37.356 15.332C37.398 15.502 37.494 15.645 37.613 15.735C37.6683 15.7783 37.7323 15.8091 37.8007 15.8254C37.8691 15.8416 37.9401 15.8428 38.009 15.829C38.0671 15.8118 38.1215 15.7836 38.169 15.746C38.169 15.754 38.167 15.764 38.169 15.772C38.1892 15.8426 38.2237 15.9084 38.2705 15.965C38.3174 16.0216 38.3754 16.0679 38.441 16.101C38.5812 16.167 38.7404 16.1806 38.8899 16.1396C39.0393 16.0985 39.1692 16.0054 39.256 15.877C39.686 15.233 40.926 14.48 40.844 14.357ZM41.095 12.869C41.005 12.775 40.275 13.999 39.612 13.852C39.4784 13.8148 39.3356 13.8291 39.212 13.892C39.1483 13.9202 39.0907 13.9602 39.042 14.01C39.042 13.98 39.05 13.95 39.05 13.92C39.0374 13.7725 38.977 13.6331 38.878 13.523C38.433 12.978 39.053 11.688 38.935 11.648C38.813 11.613 38.602 12.97 38.233 13.561C38.1537 13.6836 38.1197 13.83 38.137 13.975C38.147 14.132 38.214 14.275 38.307 14.373C38.349 14.4205 38.401 14.458 38.4593 14.4829C38.5176 14.5078 38.5807 14.5194 38.644 14.517C38.7379 14.5094 38.8254 14.4665 38.889 14.397C38.8919 14.4913 38.9251 14.5821 38.9836 14.6562C39.0422 14.7302 39.1229 14.7834 39.214 14.808C39.338 14.848 39.486 14.838 39.617 14.774C39.7436 14.7122 39.8447 14.6082 39.903 14.48C40.193 13.836 41.182 12.962 41.095 12.869ZM40.657 11.169C40.507 11.063 40.03 12.251 39.462 12.561C39.3422 12.6299 39.2458 12.7329 39.185 12.857C39.1169 12.9851 39.0891 13.1308 39.105 13.275C39.1082 13.3322 39.1249 13.3879 39.1535 13.4376C39.1822 13.4873 39.2221 13.5295 39.27 13.561C39.3185 13.5876 39.3731 13.6013 39.4284 13.6008C39.4837 13.6003 39.538 13.5855 39.586 13.558C39.7073 13.4852 39.8055 13.3794 39.8692 13.2531C39.933 13.1267 39.9596 12.9849 39.946 12.844C39.905 12.172 40.763 11.237 40.657 11.169ZM30.243 42.176H24.267C23.895 42.1787 23.5235 42.1479 23.157 42.084C24.14 43.544 25.678 44.65 27.237 45.392C27.477 46.722 27.779 47.954 27.887 48.051C27.997 48.146 29.528 47.706 29.575 47.564C29.619 47.424 28.95 45.144 28.95 45.144C29.754 43.762 30.003 42.948 30.243 42.176ZM45.278 52.4C43.768 52.996 41.8 53.047 40.193 52.62C36.512 51.473 32.425 49.301 28.501 51.104C24.577 49.301 20.491 51.474 16.809 52.619C15.203 53.047 13.234 52.996 11.725 52.4C11.7161 52.3951 11.7056 52.3939 11.6959 52.3967C11.6861 52.3995 11.6779 52.4061 11.673 52.415C11.6681 52.4239 11.6669 52.4344 11.6697 52.4441C11.6725 52.4539 11.6791 52.4621 11.688 52.467C13.859 54.147 16.902 54.92 19.641 53.93C22.271 53.111 24.496 50.325 27.611 51.513C25.145 52.478 22.839 54.257 21.057 55.937L22.353 57C23.971 55.117 25.791 53.234 27.852 52.087C28.134 51.922 28.303 51.855 28.502 51.844C28.699 51.855 28.867 51.922 29.148 52.087C31.211 53.234 33.032 55.117 34.65 57L35.945 55.937C34.164 54.257 31.858 52.477 29.39 51.513C32.507 50.325 34.731 53.111 37.362 53.93C40.101 54.92 43.143 54.147 45.314 52.467C45.348 52.437 45.32 52.384 45.278 52.4ZM21.018 49.862C17.171 48.929 16.118 45.322 12.901 43.757C12.867 43.739 12.83 43.78 12.851 43.811C13.865 45.478 14.413 48.031 17.334 49.606C17.358 49.618 17.345 49.656 17.319 49.648C13.129 48.842 11.369 49.963 6.977 47.978C6.941 47.962 6.901 48.002 6.925 48.038C8.369 50.132 11.793 51.564 16.485 51.168C18.174 51.025 19.397 50.314 21.018 49.935C21.058 49.924 21.058 49.869 21.018 49.862ZM12.96 47.65C11.498 45.735 11.915 41.646 8.614 37.903C8.587 37.873 8.54 37.897 8.548 37.934C9.178 40.691 8.991 43.823 10.717 46.117C10.733 46.141 10.709 46.165 10.685 46.149C7.281 43.469 3.782 42.663 2.225 40.494C2.202 40.464 2.155 40.481 2.159 40.518C2.545 43.326 7.939 47.702 12.93 47.71C12.96 47.71 12.979 47.676 12.96 47.65ZM7.85 42.559C6.282 39.652 8.155 35.217 6.376 30.908C6.358 30.863 6.289 30.874 6.289 30.922C6.236 33.275 4.775 36.789 5.659 39.442C5.669 39.465 5.637 39.478 5.624 39.457C3.373 36.167 1.587 35.481 0.0999959 32.47C0.0799959 32.425 0.00999587 32.437 0.00799587 32.486C-0.0870041 34.532 0.817996 36.2 1.838 37.749C3.4397 39.7922 5.47633 41.4531 7.8 42.611C7.834 42.627 7.865 42.592 7.85 42.558V42.559ZM6.784 24.856C6.781 24.808 6.718 24.792 6.694 24.834C5.499 27.071 3.37 28.85 3.302 31.803C3.299 31.832 3.266 31.834 3.262 31.808C2.873 29.528 0.939996 26.975 0.854996 23.675C0.854996 23.625 0.783996 23.612 0.764996 23.66C-0.825004 27.95 1.463 32.018 3.898 35.38C3.924 35.413 3.976 35.393 3.976 35.347C3.876 31.786 6.963 29.127 6.784 24.857V24.856ZM8.304 19.304C7.174 20.873 4.634 21.982 3.704 24.244C3.692 24.276 3.652 24.268 3.657 24.231C4.027 21.695 3.048 18.751 3.967 15.383C3.979 15.335 3.919 15.303 3.89 15.34C2.502 17.047 2.032 19.048 1.955 21.21C1.861 23.865 2.795 25.801 3.256 27.602C3.266 27.645 3.323 27.642 3.333 27.599C3.998 25.239 7.335 23.817 8.381 19.343C8.394 19.294 8.333 19.264 8.305 19.304H8.304ZM11.368 14.031C9.51 15.487 6.674 16.889 6.063 17.901C6.053 17.923 6.023 17.907 6.027 17.886L6.716 14.581C7.025 13.178 7.291 11.835 8.066 10.579C8.09 10.542 8.046 10.499 8.011 10.526C4.476 13.326 4.993 17.376 4.837 20.691C4.835 20.726 4.877 20.742 4.9 20.718C6.982 18.461 10.376 17.146 11.425 14.076C11.438 14.039 11.399 14.006 11.368 14.031ZM14 8.955C10.876 9.054 8.581 11.685 7.597 15.035C7.591 15.055 7.617 15.07 7.633 15.059C11.937 11.904 11.697 10.552 14.026 9.051C14.069 9.024 14.051 8.955 14 8.955ZM50.022 47.978C45.635 49.963 43.872 48.842 39.682 49.648C39.656 49.656 39.642 49.618 39.667 49.606C42.587 48.032 43.137 45.478 44.15 43.811C44.17 43.78 44.133 43.739 44.1 43.757C40.885 45.323 39.833 48.929 35.983 49.862C35.943 49.869 35.943 49.924 35.983 49.935C37.603 50.314 38.827 51.025 40.516 51.168C45.208 51.564 48.635 50.132 50.076 48.038C50.1 48.002 50.06 47.962 50.022 47.978ZM54.775 40.493C53.219 42.662 49.72 43.469 46.315 46.148C46.295 46.164 46.268 46.14 46.286 46.116C48.01 43.822 47.822 40.69 48.453 37.933C48.461 37.896 48.413 37.873 48.387 37.902C45.089 41.645 45.503 45.734 44.044 47.649C44.025 47.675 44.041 47.709 44.072 47.709C49.065 47.701 54.456 43.325 54.84 40.517C54.846 40.48 54.798 40.464 54.775 40.493ZM56.995 32.486C56.992 32.437 56.923 32.426 56.902 32.47C55.414 35.48 53.627 36.167 51.38 39.456C51.363 39.477 51.335 39.464 51.342 39.44C52.226 36.788 50.767 33.274 50.712 30.921C50.712 30.873 50.642 30.861 50.625 30.907C48.846 35.217 50.719 39.651 49.155 42.558C49.137 42.592 49.168 42.628 49.202 42.611C51.5251 41.4527 53.5613 39.7919 55.163 37.749C56.183 36.199 57.09 34.532 56.994 32.486H56.995ZM56.234 23.66C56.216 23.612 56.144 23.625 56.144 23.675C56.06 26.975 54.126 29.529 53.739 31.808C53.732 31.834 53.701 31.832 53.701 31.803C53.633 28.85 51.501 27.071 50.305 24.834C50.3 24.8252 50.2923 24.8183 50.283 24.8144C50.2737 24.8104 50.2634 24.8096 50.2536 24.8121C50.2438 24.8146 50.2351 24.8203 50.2289 24.8282C50.2226 24.8361 50.2192 24.8459 50.219 24.856C50.039 29.127 53.123 31.786 53.023 35.347C53.023 35.393 53.078 35.413 53.105 35.379C55.537 32.018 57.825 27.95 56.234 23.659V23.66ZM55.044 21.21C54.967 19.048 54.499 17.047 53.11 15.34C53.081 15.303 53.023 15.335 53.034 15.383C53.952 18.751 52.972 21.695 53.345 24.231C53.35 24.268 53.308 24.276 53.295 24.244C52.366 21.982 49.825 20.873 48.695 19.304C48.669 19.264 48.609 19.294 48.619 19.343C49.664 23.817 53.002 25.238 53.666 27.599C53.677 27.642 53.732 27.645 53.744 27.602C54.205 25.802 55.139 23.865 55.044 21.21ZM48.989 10.526C48.954 10.499 48.909 10.542 48.933 10.579C49.709 11.835 49.975 13.179 50.283 14.581L50.973 17.886C50.979 17.906 50.946 17.923 50.936 17.902C50.326 16.889 47.493 15.487 45.632 14.031C45.602 14.007 45.56 14.039 45.574 14.076C46.624 17.146 50.017 18.461 52.1 20.718C52.123 20.742 52.165 20.726 52.163 20.691C52.007 17.376 52.524 13.326 48.989 10.526ZM43 8.956C42.95 8.956 42.933 9.024 42.973 9.051C45.303 10.552 45.063 11.904 49.367 15.059C49.385 15.07 49.409 15.054 49.403 15.035C48.419 11.685 46.123 9.054 43 8.955V8.956Z" fill="white"/>
</svg>
