<svg width="57" height="95" viewBox="0 0 57 95" fill="none" xmlns="http://www.w3.org/2000/svg">
<path fill-rule="evenodd" clip-rule="evenodd" d="M31.949 82.771H30.415V77.148H31.949V82.771ZM31.185 74.945C30.628 74.945 30.35 75.194 30.35 75.694C30.35 76.198 30.628 76.448 31.185 76.448C31.463 76.448 31.672 76.383 31.811 76.25C31.95 76.117 32.02 75.933 32.02 75.695C32.02 75.195 31.741 74.945 31.185 74.945ZM35.588 80.186L36.182 80.165V80.628C36.182 80.967 36.076 81.238 35.863 81.442C35.65 81.647 35.366 81.751 35.01 81.751C34.514 81.751 34.266 81.533 34.266 81.101C34.266 80.799 34.373 80.574 34.593 80.427C34.811 80.279 35.143 80.199 35.588 80.186ZM36.338 82.006L36.634 82.77H37.705V79.023C37.705 78.353 37.504 77.853 37.102 77.525C36.7 77.196 36.121 77.032 35.368 77.032C34.6189 77.0222 33.8789 77.1967 33.213 77.54L33.723 78.576C34.329 78.305 34.857 78.169 35.307 78.169C35.89 78.169 36.182 78.454 36.182 79.023V79.271L35.206 79.301C34.365 79.331 33.736 79.487 33.318 79.771C32.901 80.054 32.692 80.494 32.692 81.091C32.692 81.661 32.847 82.1 33.157 82.408C33.467 82.717 33.892 82.871 34.432 82.871C34.87 82.871 35.227 82.809 35.5 82.683C35.774 82.557 36.039 82.331 36.297 82.006H36.338ZM40.335 82.771H38.801V74.946H40.335V82.771ZM46.811 81.307C46.63 81.536 46.342 81.65 45.95 81.65C45.594 81.65 45.32 81.511 45.13 81.235C44.938 80.958 44.843 80.544 44.843 79.99C44.843 79.437 44.937 79.015 45.127 78.725C45.2094 78.5884 45.3266 78.4761 45.4666 78.3996C45.6067 78.3232 45.7645 78.2854 45.924 78.29C46.344 78.29 46.645 78.421 46.832 78.682C47.018 78.944 47.111 79.377 47.111 79.98V80.146C47.095 80.692 46.994 81.08 46.811 81.307ZM43.854 82.102C44.231 82.615 44.751 82.872 45.411 82.872V82.871C46.126 82.871 46.657 82.595 47.006 82.041H47.071L47.367 82.771H48.546V74.946H47.006V76.746C47.0106 77.1227 47.0491 77.4982 47.121 77.868H47.071C46.699 77.318 46.159 77.043 45.451 77.043C44.777 77.043 44.249 77.3 43.864 77.815C43.48 78.329 43.289 79.047 43.289 79.969C43.289 80.879 43.477 81.589 43.854 82.102ZM51.267 78.443C51.451 78.237 51.706 78.134 52.031 78.134C52.356 78.134 52.616 78.237 52.806 78.443C52.997 78.65 53.095 78.942 53.102 79.321H50.95C50.977 78.942 51.083 78.65 51.267 78.443ZM50.126 82.122C50.635 82.621 51.343 82.871 52.248 82.871C52.6223 82.8771 52.9963 82.8446 53.364 82.774C53.6623 82.7111 53.9513 82.6103 54.224 82.474V81.287C53.895 81.442 53.581 81.554 53.279 81.624C52.978 81.695 52.658 81.73 52.318 81.73C51.883 81.73 51.544 81.608 51.302 81.363C51.06 81.117 50.931 80.778 50.915 80.342H54.541V79.597C54.541 78.799 54.32 78.174 53.877 77.721C53.434 77.269 52.816 77.042 52.021 77.042C51.19 77.042 50.539 77.3 50.067 77.815C49.596 78.329 49.361 79.058 49.361 79.999C49.361 80.915 49.616 81.622 50.126 82.122ZM7.62599 88.362C7.90187 89.2593 8.17987 90.156 8.45999 91.052H8.45899H6.54299C7.066 89.359 7.38299 88.297 7.49299 87.868C7.53182 88.0341 7.57617 88.1989 7.62599 88.362ZM8.83099 92.36L9.36399 94.11H11.044L8.43799 86.727H6.53299L3.93799 94.11H5.61699L6.15099 92.36H8.83099ZM13.089 94.11H11.555V86.284H13.089V94.11ZM15.748 94.11H14.214V94.109V88.486H15.748V94.11ZM14.983 86.284C14.426 86.284 14.148 86.533 14.148 87.033C14.148 87.537 14.426 87.787 14.983 87.787C15.261 87.787 15.47 87.722 15.609 87.589C15.748 87.456 15.818 87.271 15.818 87.034C15.818 86.534 15.54 86.284 14.983 86.284ZM20.372 94.11H21.905V94.109V91.289C21.905 90.705 21.999 90.279 22.184 90.011C22.372 89.743 22.651 89.609 23.029 89.609C23.319 89.609 23.532 89.711 23.669 89.913C23.803 90.116 23.872 90.421 23.872 90.826V94.11H25.411V90.444C25.411 89.723 25.247 89.199 24.921 88.871C24.595 88.546 24.112 88.381 23.475 88.381C23.1315 88.3758 22.7914 88.4497 22.481 88.597C22.188 88.742 21.966 88.945 21.815 89.207H21.679C21.382 88.657 20.811 88.38 19.969 88.38C19.6 88.38 19.274 88.455 18.988 88.6C18.705 88.747 18.486 88.947 18.335 89.207H18.249L18.043 88.487H16.871V94.11H18.405V91.464C18.405 90.804 18.494 90.33 18.672 90.042C18.849 89.753 19.134 89.609 19.526 89.609C19.819 89.609 20.032 89.711 20.169 89.913C20.303 90.116 20.372 90.421 20.372 90.826V94.11ZM28.101 89.782C28.285 89.576 28.54 89.473 28.865 89.473V89.472C29.19 89.472 29.45 89.576 29.64 89.782C29.831 89.989 29.929 90.28 29.936 90.66H27.784C27.811 90.281 27.917 89.989 28.101 89.782ZM26.96 93.46C27.469 93.96 28.177 94.21 29.082 94.21H29.083C29.4573 94.2161 29.8313 94.1836 30.199 94.113C30.4973 94.0501 30.7863 93.9493 31.059 93.813V92.626C30.73 92.781 30.416 92.893 30.114 92.963C29.813 93.034 29.493 93.069 29.153 93.069C28.718 93.069 28.379 92.947 28.137 92.701C27.895 92.456 27.766 92.117 27.75 91.681H31.375V90.936C31.375 90.138 31.154 89.513 30.711 89.06C30.268 88.608 29.65 88.381 28.855 88.381C28.024 88.381 27.373 88.639 26.901 89.154C26.43 89.668 26.195 90.397 26.195 91.338C26.195 92.254 26.45 92.96 26.96 93.46ZM35.876 94.11H37.41V90.444C37.41 89.776 37.24 89.266 36.903 88.912C36.563 88.558 36.067 88.38 35.413 88.38C35.031 88.38 34.689 88.45 34.389 88.59C34.09 88.729 33.854 88.935 33.683 89.207H33.597L33.391 88.487H32.22V94.11H33.754V91.464C33.754 90.799 33.849 90.326 34.041 90.039C34.231 89.753 34.542 89.609 34.971 89.609C35.286 89.609 35.515 89.711 35.66 89.913C35.804 90.116 35.876 90.421 35.876 90.826V94.11ZM41.829 92.811C41.454 92.929 41.132 92.989 40.864 92.989C40.6888 92.9971 40.5166 92.9417 40.379 92.833C40.256 92.729 40.195 92.568 40.195 92.35V89.638H41.769V88.487H40.195V87.29H39.214L38.771 88.477L37.926 88.99V89.638H38.661V92.35C38.661 92.97 38.801 93.435 39.081 93.746C39.361 94.055 39.807 94.21 40.421 94.21C40.977 94.21 41.447 94.124 41.829 93.953V92.811ZM43.979 92.551C43.797 92.266 43.705 91.845 43.705 91.288C43.705 90.728 43.797 90.309 43.977 90.033C44.158 89.758 44.453 89.618 44.863 89.618C45.274 89.618 45.571 89.758 45.753 90.035C45.935 90.314 46.025 90.731 46.025 91.288C46.025 91.848 45.935 92.269 45.755 92.553C45.575 92.837 45.282 92.977 44.872 92.977C44.46 92.977 44.162 92.835 43.979 92.551ZM46.869 93.435C47.351 92.919 47.593 92.203 47.593 91.288C47.593 90.698 47.482 90.184 47.261 89.744C47.04 89.305 46.723 88.968 46.31 88.733C45.898 88.498 45.423 88.381 44.883 88.381C44.014 88.381 43.34 88.636 42.86 89.145C42.382 89.655 42.142 90.369 42.142 91.288C42.142 91.878 42.252 92.394 42.474 92.837C42.6807 93.2644 43.0119 93.6193 43.424 93.855C43.836 94.092 44.312 94.21 44.852 94.21C45.714 94.21 46.386 93.952 46.869 93.435ZM51.763 93.758C52.163 93.456 52.363 93.017 52.363 92.44C52.363 92.161 52.314 91.921 52.217 91.721C52.12 91.52 51.969 91.342 51.764 91.188C51.56 91.034 51.239 90.868 50.799 90.69C50.306 90.492 49.987 90.343 49.842 90.243C49.695 90.142 49.622 90.023 49.622 89.885C49.622 89.64 49.848 89.518 50.301 89.518C50.5554 89.5184 50.8082 89.5572 51.051 89.633C51.3184 89.7198 51.5817 89.8189 51.84 89.93L52.302 88.824C51.6837 88.5336 51.0091 88.3824 50.326 88.381C49.615 88.381 49.066 88.518 48.679 88.791C48.292 89.065 48.098 89.451 48.098 89.951C48.0903 90.2034 48.1374 90.4545 48.236 90.687C48.3376 90.8978 48.4898 91.0803 48.679 91.218C48.883 91.373 49.2 91.54 49.633 91.721C49.8784 91.8225 50.1196 91.9339 50.356 92.055C50.4952 92.122 50.6242 92.2085 50.739 92.312C50.7759 92.3512 50.8047 92.3975 50.8236 92.4479C50.8424 92.4984 50.8511 92.5521 50.849 92.606C50.849 92.928 50.571 93.089 50.014 93.089C49.743 93.089 49.428 93.044 49.071 92.954C48.715 92.863 48.393 92.751 48.108 92.616V93.883C48.3684 93.9934 48.64 94.0752 48.918 94.127C49.206 94.183 49.555 94.211 49.964 94.211C50.763 94.211 51.361 94.058 51.763 93.758ZM36.31 4.196H35.762V4.195V1.864H36.519C36.974 1.864 37.307 1.958 37.521 2.144C37.734 2.331 37.84 2.619 37.84 3.009C37.84 3.394 37.713 3.689 37.46 3.892C37.204 4.094 36.822 4.196 36.31 4.196ZM38.729 4.888C39.257 4.441 39.522 3.795 39.522 2.949V2.95C39.522 2.136 39.274 1.526 38.777 1.116C38.282 0.704 37.557 0.5 36.605 0.5H34.097V8.352H35.762V5.559H36.476C37.45 5.559 38.201 5.337 38.729 4.888ZM28.347 8.353H29.985V5.25H32.649V3.89H29.985V1.863H32.848V0.5H28.347V8.353ZM23.564 8.353H25.46L27.458 0.5H25.821L24.821 4.785C24.757 5.045 24.686 5.383 24.606 5.798C24.527 6.215 24.47 6.563 24.434 6.843C24.395 6.553 24.338 6.207 24.262 5.8C24.187 5.397 24.125 5.096 24.074 4.9L22.93 0.5H21.357L20.212 4.899C20.144 5.135 20.071 5.466 19.994 5.896C19.917 6.323 19.868 6.639 19.846 6.843C19.767 6.263 19.64 5.577 19.465 4.785L18.461 0.5H16.823L18.828 8.353H20.718L21.776 4.239C21.822 4.057 21.888 3.751 21.974 3.322C22.0398 3.01383 22.0938 2.70328 22.136 2.391C22.176 2.70235 22.2304 3.01169 22.299 3.318C22.394 3.778 22.461 4.08 22.501 4.228L23.564 8.353ZM15.844 36.615C16.378 36.39 18.337 35.666 21.387 35.666H35.195C35.757 35.666 36.213 35.129 36.213 34.466C36.213 33.803 35.757 33.266 35.195 33.266H24.033C23.9916 33.266 23.9445 33.2656 23.8919 33.2652C22.7464 33.2562 19.0158 33.227 15.81 36.559C15.786 36.583 15.812 36.629 15.844 36.615ZM20.8622 38.228C21.7711 38.4903 22.6741 38.751 23.902 38.751C26.505 38.751 35.195 38.725 35.195 38.725C35.757 38.725 36.213 38.188 36.213 37.527C36.213 36.865 35.757 36.327 35.195 36.327H21.663C21.5772 36.327 21.4826 36.3261 21.3798 36.3252C20.0201 36.3129 17.231 36.2877 14.652 38.057C14.623 38.077 14.646 38.125 14.68 38.115C17.7972 37.3432 19.338 37.788 20.8622 38.228ZM20.5845 40.5738C21.6279 41.2248 22.5304 41.788 24.135 41.788H35.195C35.757 41.788 36.213 41.251 36.213 40.588C36.213 39.925 35.757 39.388 35.195 39.388H23.521C22.6548 39.388 21.9021 39.1608 21.1004 38.9187C19.6819 38.4904 18.11 38.0158 15.484 38.672C15.45 38.681 15.454 38.732 15.489 38.737C18.1122 39.0312 19.434 39.8559 20.5845 40.5738ZM17.908 34.089C18.435 33.789 20.686 32.605 23.403 32.605H35.195C35.757 32.605 36.213 32.067 36.213 31.405C36.213 30.743 35.757 30.205 35.195 30.205H24.778C20.688 30.205 18.308 33.394 17.868 34.042C17.849 34.069 17.879 34.105 17.908 34.089ZM37.9 25.774C38.0667 25.7915 38.2229 25.864 38.344 25.98C38.7515 26.3412 39.5712 26.0465 40.0488 25.8748C40.2627 25.7979 40.408 25.7456 40.417 25.788C40.4334 25.8592 40.0509 25.9953 39.577 26.164C39.1253 26.3248 38.5904 26.5152 38.239 26.707C38.0893 26.7923 37.9154 26.8251 37.745 26.8C37.5784 26.7843 37.4225 26.7111 37.304 26.593C37.2517 26.5441 37.2117 26.4836 37.1872 26.4164C37.1627 26.3491 37.1544 26.2771 37.163 26.206C37.1661 26.1852 37.1722 26.165 37.181 26.146C37.146 26.1545 37.1097 26.1565 37.074 26.152C36.942 26.145 36.829 26.05 36.756 25.919C36.6783 25.7599 36.6484 25.5817 36.67 25.406C36.6876 25.2267 36.7571 25.0564 36.87 24.916C37.1677 24.5481 37.47 23.8746 37.6983 23.3662C37.8765 22.9693 38.0096 22.6729 38.06 22.701C38.099 22.722 38.0255 22.8892 37.9193 23.131C37.6961 23.639 37.3283 24.476 37.556 24.976C37.6369 25.1333 37.6663 25.3121 37.64 25.487C37.625 25.613 37.585 25.718 37.538 25.817C37.6532 25.7727 37.7776 25.7579 37.9 25.774ZM39.037 24.706C39.1925 24.7201 39.3374 24.791 39.444 24.905C39.8177 25.261 40.5687 25.0241 41.0181 24.8823C41.2264 24.8166 41.3699 24.7713 41.381 24.815C41.3969 24.8788 41.128 24.9663 40.7695 25.083C40.3187 25.2297 39.7264 25.4225 39.381 25.672C39.2561 25.7631 39.1017 25.8044 38.948 25.788C38.787 25.774 38.644 25.701 38.544 25.593C38.4944 25.54 38.4563 25.4772 38.4322 25.4087C38.4081 25.3402 38.3985 25.2674 38.404 25.195C38.4023 25.1882 38.4071 25.1793 38.4104 25.1731C38.411 25.172 38.4115 25.1709 38.412 25.17C38.3546 25.187 38.2948 25.1941 38.235 25.191C38.095 25.172 37.979 25.084 37.895 24.962C37.8133 24.8211 37.7783 24.658 37.795 24.496C37.8091 24.3357 37.8788 24.1854 37.992 24.071C38.2876 23.7559 38.581 23.1707 38.8041 22.7259C38.981 22.3732 39.1136 22.1087 39.168 22.137C39.2074 22.1575 39.1365 22.3026 39.0339 22.5127C38.8162 22.9586 38.4556 23.6968 38.703 24.157C38.788 24.2952 38.8242 24.4578 38.806 24.619C38.8028 24.6488 38.7936 24.6753 38.7841 24.703C38.7789 24.718 38.7736 24.7335 38.769 24.75C38.8543 24.7168 38.9456 24.7018 39.037 24.706ZM40.018 23.808C40.1563 23.7927 40.2952 23.8302 40.407 23.913C40.7916 24.1637 41.4228 23.8355 41.8045 23.6369C41.9845 23.5433 42.109 23.4785 42.126 23.517C42.148 23.5693 41.9237 23.6885 41.6239 23.8479C41.2417 24.051 40.7366 24.3195 40.462 24.598C40.3659 24.6989 40.2364 24.7614 40.0976 24.7737C39.9589 24.7861 39.8203 24.7474 39.708 24.665C39.602 24.585 39.535 24.471 39.522 24.335C39.5179 24.2773 39.5261 24.2193 39.546 24.165C39.459 24.202 39.367 24.221 39.276 24.192C39.2158 24.1713 39.1609 24.1376 39.1151 24.0934C39.0693 24.0491 39.0338 23.9954 39.011 23.936C38.9549 23.8004 38.9474 23.6495 38.99 23.509C39.0251 23.3684 39.106 23.2435 39.22 23.154C39.5243 22.9205 39.8653 22.4471 40.1248 22.0868C40.331 21.8007 40.4857 21.5858 40.53 21.619C40.5621 21.6443 40.4787 21.7626 40.3581 21.9335C40.1028 22.2957 39.6807 22.8942 39.837 23.346C39.8903 23.4831 39.8991 23.6336 39.862 23.776C39.8568 23.7885 39.8505 23.8003 39.8442 23.8121C39.8359 23.8276 39.8277 23.843 39.822 23.86C39.8834 23.8304 39.95 23.8127 40.018 23.808ZM41.8205 22.041C42.0699 21.8539 42.2572 21.7133 42.302 21.779C42.3292 21.8141 42.2027 21.91 42.0203 22.0483C41.6937 22.2957 41.1882 22.6788 41.065 23.092C41.0287 23.2284 40.9541 23.3516 40.85 23.447C40.7516 23.5453 40.6238 23.6088 40.486 23.628C40.4308 23.6372 40.3742 23.632 40.3217 23.6129C40.2691 23.5938 40.2224 23.5614 40.186 23.519C40.1529 23.4725 40.1309 23.419 40.1215 23.3627C40.1121 23.3064 40.1157 23.2487 40.132 23.194C40.1664 23.0542 40.2433 22.9284 40.352 22.834C40.4509 22.7392 40.5766 22.6771 40.712 22.656C41.0689 22.6052 41.497 22.2839 41.8205 22.041ZM24.398 23.865C24.398 23.865 24.581 23.142 24.608 23.049C24.656 22.866 24.706 22.701 24.706 22.701C24.577 22.612 24.32 22.578 24.179 22.583C23.833 22.599 23.562 22.637 23.429 22.995C23.268 23.433 23.644 23.801 24.068 23.841C24.0834 23.8421 24.1106 23.8464 24.1432 23.8516C24.2315 23.8658 24.3593 23.8862 24.398 23.865ZM24.083 25.477L24.122 25.23C24.18 24.933 24.243 24.637 24.306 24.343C24.129 24.352 23.888 24.411 23.791 24.637C23.665 24.936 23.821 25.312 24.083 25.477ZM23.385 28.1622C23.5415 28.1237 23.7167 28.0806 23.744 27.927C23.775 27.753 23.852 27.049 23.852 27.049C23.8419 27.0045 23.8049 26.9625 23.7664 26.9186C23.7555 26.9063 23.7445 26.8938 23.734 26.881C23.542 26.643 23.283 26.588 23.002 26.655C22.487 26.779 22.007 27.046 22.172 27.679C22.324 28.272 22.794 28.337 23.29 28.187C23.3198 28.1783 23.352 28.1704 23.385 28.1622ZM22.2829 24.7802C22.2499 24.7886 22.2169 24.797 22.184 24.805L22.183 24.804C21.618 24.936 21.592 25.733 21.96 26.084C22.241 26.352 22.637 26.255 22.966 26.145C23.464 25.977 23.566 25.341 23.256 24.945C22.9873 24.6014 22.6334 24.6912 22.2829 24.7802ZM21.9102 22.7233C21.8757 22.732 21.8413 22.7407 21.807 22.749C21.217 22.887 21.188 23.724 21.574 24.09C21.868 24.372 22.285 24.27 22.632 24.157C23.154 23.982 23.262 23.311 22.939 22.898C22.6553 22.5356 22.2819 22.6297 21.9102 22.7233ZM20.7474 27.6852C21.0513 27.6131 21.332 27.5465 21.432 27.194L21.433 27.193C21.537 26.822 21.33 26.338 20.933 26.253C20.713 26.209 20.304 26.3 20.112 26.425C20.047 26.469 19.957 26.543 19.931 26.619C19.9202 26.6477 19.9161 26.6785 19.919 26.709C19.9265 26.7671 20.2487 27.1523 20.4967 27.4489C20.5775 27.5454 20.6504 27.6326 20.702 27.696C20.7172 27.6924 20.7323 27.6888 20.7474 27.6852ZM19.427 25.294C19.138 24.27 20.855 23.824 21.12 24.828C21.393 25.86 19.661 26.298 19.427 25.294ZM19.175 23.25C18.881 22.233 20.605 21.787 20.87 22.785C21.143 23.82 19.408 24.258 19.175 23.25ZM20.519 20.808C20.272 19.874 18.653 20.294 18.935 21.241H18.934C19.154 22.186 20.773 21.77 20.519 20.808ZM18.7098 25.1434C18.7257 25.1335 18.7447 25.1217 18.768 25.108V25.109C19.356 24.763 18.829 23.744 18.188 24.101C18.0726 24.1722 17.9635 24.2532 17.862 24.343L18.632 25.18C18.6511 25.18 18.6712 25.1675 18.7098 25.1434ZM17.306 23.221C16.926 22.381 18.312 21.471 18.732 22.376C19.117 23.21 17.732 24.137 17.306 23.221ZM18.472 20.561C18.91 21.341 17.59 22.209 17.212 21.371C16.876 20.65 18.049 19.807 18.472 20.561ZM18.015 18.593C17.785 18.482 17.559 18.575 17.365 18.747C17.023 19.049 17.099 19.627 17.495 19.727C17.677 19.773 17.926 19.647 18.073 19.547C18.396 19.326 18.385 18.77 18.015 18.593ZM17.97 16.947C17.787 16.872 17.575 16.969 17.415 17.077L17.414 17.078C17.105 17.287 17.188 17.836 17.527 17.921C17.677 17.961 17.9 17.852 18.023 17.764C18.293 17.57 18.305 17.084 17.97 16.947ZM18.964 14.749C18.786 14.55 18.5 14.593 18.3 14.7V14.701C18.2376 14.7352 18.1835 14.7828 18.1418 14.8404C18.1 14.8981 18.0716 14.9643 18.0586 15.0342C18.0456 15.1042 18.0483 15.1762 18.0665 15.245C18.0847 15.3138 18.118 15.3777 18.164 15.432C18.332 15.629 18.618 15.589 18.83 15.483C18.8945 15.4504 18.9506 15.4033 18.9939 15.3454C19.0372 15.2875 19.0664 15.2204 19.0794 15.1493C19.0924 15.0782 19.0887 15.0051 19.0687 14.9356C19.0487 14.8661 19.0128 14.8023 18.964 14.749ZM18.143 16.507C17.983 15.912 18.985 15.631 19.148 16.237C19.329 16.824 18.303 17.117 18.143 16.507ZM18.691 17.919C18.904 18.553 19.993 18.19 19.76 17.547H19.761C19.568 16.909 18.473 17.276 18.691 17.919ZM20.602 14.414C20.37 14.24 20.104 14.33 19.896 14.414H19.897C19.547 14.554 19.56 15.039 19.807 15.259C20.001 15.431 20.279 15.364 20.497 15.266C20.827 15.115 20.89 14.63 20.602 14.414ZM19.6064 19.8183C19.639 19.81 19.6716 19.8017 19.704 19.794V19.795C20.156 19.686 20.187 19.049 19.901 18.756C19.679 18.527 19.332 18.585 19.059 18.69C18.636 18.844 18.547 19.406 18.859 19.728C19.077 19.9531 19.3432 19.8853 19.6064 19.8183ZM19.71 16.51C19.521 15.872 20.56 15.545 20.76 16.165C20.964 16.8 19.888 17.138 19.71 16.51ZM20.237 18.079C20.463 18.796 21.694 18.408 21.45 17.68L21.449 17.679C21.247 16.957 20.009 17.344 20.237 18.079ZM22.127 15.87C21.961 15.693 21.732 15.672 21.515 15.73C21.102 15.841 21.09 16.353 21.337 16.571C21.473 16.691 21.743 16.704 21.919 16.673C22.292 16.603 22.379 16.14 22.127 15.87ZM22.93 18.129C23.16 17.839 22.961 17.257 22.565 17.257V17.258C22.529 17.258 22.492 17.2568 22.4545 17.2555C22.2594 17.2489 22.052 17.2419 21.922 17.408C21.667 17.739 21.909 18.225 22.287 18.283C22.491 18.315 22.791 18.303 22.93 18.129ZM22.058 19.274C21.842 18.443 20.418 18.817 20.662 19.655V19.654C20.848 20.49 22.279 20.119 22.058 19.274ZM21.6411 20.7131C21.6051 20.7172 21.569 20.7213 21.533 20.725C20.969 20.777 20.846 21.55 21.156 21.939C21.392 22.231 21.793 22.2 22.125 22.131C22.628 22.03 22.815 21.431 22.565 21.001C22.348 20.6325 21.996 20.6726 21.6411 20.7131ZM23.811 19.941C24.15 19.625 23.988 19.059 23.508 18.861C23.29 18.769 22.931 18.789 22.73 18.952C22.339 19.27 22.631 19.94 23.077 20.028C23.301 20.074 23.631 20.106 23.811 19.941ZM23.925 21.934C24.453 21.902 24.565 21.249 24.263 20.879H24.264C24.076 20.653 23.719 20.623 23.444 20.635C22.917 20.654 22.804 21.331 23.103 21.692C23.289 21.917 23.649 21.949 23.925 21.934ZM26.2438 14.1665C26.2682 14.1755 26.2889 14.1922 26.303 14.214H26.302C27.8965 16.2249 27.7726 18.0056 27.6034 20.4353C27.4471 22.6805 27.2522 25.4798 28.339 29.527H24.777C21.733 29.527 19.594 31.146 18.41 32.376C16.038 25.463 13.57 22.131 10.8 19.431C10.786 19.4162 10.775 19.3988 10.7677 19.3798C10.7605 19.3607 10.7571 19.3404 10.7577 19.32C10.7584 19.2997 10.7631 19.2796 10.7715 19.2611C10.78 19.2425 10.792 19.2259 10.807 19.212C10.8309 19.189 10.8617 19.1746 10.8946 19.171C10.9275 19.1674 10.9607 19.1748 10.989 19.192C12.23 19.93 15.479 21.864 16.907 23.427C16.9063 23.4123 16.9055 23.3977 16.9047 23.3831C16.9003 23.2991 16.896 23.2156 16.896 23.127C16.726 22.743 16.301 21.588 16.736 20.397C16.621 19.972 16.416 18.949 16.781 18.072C16.765 17.693 16.794 16.72 17.409 16.064C17.324 15.732 17.28 15.243 17.529 14.794C17.795 14.319 18.295 14.034 19.025 13.949C19.628 13.676 20.172 13.655 20.641 13.887C21.14 14.137 21.4 14.602 21.528 14.926C22.389 15.181 22.799 16.042 22.938 16.67C23.2404 16.9577 23.4798 17.305 23.641 17.69C25.0689 16.6586 25.2844 14.9386 25.3323 14.5567C25.335 14.5351 25.3372 14.5177 25.339 14.505C25.349 14.417 25.412 14.389 25.478 14.399C25.525 14.406 25.559 14.441 25.578 14.483C26.329 16.3973 25.8206 17.7832 25.3881 18.9623C25.0621 19.8508 24.7792 20.6218 25.111 21.413C25.2752 20.8341 25.4977 20.299 25.718 19.7693C26.3603 18.2248 26.9838 16.7256 26.088 14.316C26.063 14.254 26.105 14.185 26.168 14.164C26.1929 14.1566 26.2195 14.1575 26.2438 14.1665ZM33.671 26.236C38.33 17.667 42.487 18.403 43.137 18.573V18.572C43.1415 18.573 43.1458 18.5746 43.1499 18.5768C43.1518 18.5779 43.1536 18.5791 43.1554 18.5804C43.1609 18.5844 43.1654 18.5896 43.1687 18.5956C43.172 18.6015 43.1741 18.6081 43.1746 18.6149C43.175 18.6192 43.1747 18.6236 43.174 18.6278C43.1735 18.6302 43.1728 18.6326 43.172 18.635C43.169 18.66 43.145 18.681 43.119 18.675H43.115C38.521 18.078 34.212 26.115 33.885 29.528H31.955C32.593 25.988 33.674 23.031 36.752 17.898C36.762 17.8832 36.7749 17.8705 36.7899 17.8607C36.8049 17.8509 36.8217 17.8443 36.8393 17.8411C36.8569 17.8379 36.875 17.8383 36.8925 17.8423C36.9099 17.8462 36.9264 17.8536 36.941 17.864C36.969 17.8859 36.9884 17.9168 36.9961 17.9515C37.0038 17.9861 36.9991 18.0224 36.983 18.054V18.062C36.9358 18.1554 36.8782 18.2678 36.8119 18.3973C36.0817 19.8223 34.2944 23.3107 33.671 26.236ZM32.834 42.45L33.877 46.805H33.876C33.889 46.853 33.863 46.906 33.813 46.916C33.776 46.928 33.737 46.91 33.719 46.872C33.036 45.617 32.53 44.254 32.156 42.859C32.1894 43.0788 32.2234 43.2986 32.2575 43.5189C32.3612 44.189 32.4657 44.8639 32.556 45.557C32.5633 45.5999 32.5532 45.644 32.5281 45.6796C32.503 45.7152 32.4649 45.7394 32.422 45.747C32.359 45.758 32.296 45.722 32.262 45.665C31.742 44.679 31.341 43.555 31.06 42.45H32.834ZM35.1762 42.6367C35.3298 43.3508 35.5036 44.159 35.669 44.828C35.6797 44.8676 35.6748 44.9099 35.6553 44.946C35.6357 44.9821 35.603 45.0093 35.564 45.022C35.495 45.04 35.425 45.004 35.393 44.929C35.078 44.159 34.724 43.258 34.461 42.45H35.136C35.1492 42.5114 35.1626 42.5737 35.1762 42.6367ZM35.889 47.378L35.894 47.388V47.389C35.915 47.448 35.889 47.514 35.831 47.535C35.8096 47.5439 35.7857 47.5453 35.7634 47.5389C35.7411 47.5326 35.7216 47.5188 35.708 47.5C34.986 46.459 34.419 45.295 33.928 44.107C33.705 43.582 33.467 42.994 33.283 42.45H33.935C34.0812 42.933 34.2447 43.4107 34.425 43.882C34.6358 44.4775 34.8714 45.064 35.131 45.64C35.2309 45.8852 35.3421 46.1237 35.4537 46.3629C35.6078 46.6934 35.7625 47.0253 35.889 47.378ZM36.639 26.458C36.698 26.398 36.818 26.414 36.868 26.488C36.918 26.554 36.907 26.652 36.855 26.711L36.849 26.716C36.341 27.242 35.548 28.702 35.196 29.528H34.493C35.0607 28.409 35.7831 27.3755 36.639 26.458ZM33.0347 18.5832C32.4797 19.174 31.9319 19.7571 31.514 20.444V20.443C30.842 21.489 30.465 22.717 30.279 23.972C30.215 24.408 30.176 24.848 30.149 25.286C30.22 24.976 30.296 24.67 30.388 24.368C30.388 24.368 30.393 24.363 30.393 24.358C30.362 24.219 30.383 23.977 30.472 23.715C30.595 23.339 30.792 23.072 30.91 23.119C30.916 23.119 30.918 23.111 30.914 23.109C30.816 23.023 30.905 22.693 31.134 22.377C31.359 22.062 31.627 21.876 31.727 21.957C31.7344 21.9653 31.7366 21.9761 31.7393 21.9887L31.74 21.992C31.74 22.003 31.753 21.995 31.753 21.989C31.736 21.873 31.91 21.659 32.176 21.487C32.454 21.309 32.724 21.243 32.798 21.333C32.817 21.3245 32.8359 21.3154 32.855 21.3063C32.9029 21.2833 32.9514 21.26 33.003 21.245C33.047 21.232 33.099 21.262 33.113 21.312C33.119 21.3324 33.1183 21.3541 33.1111 21.374C33.1039 21.394 33.0906 21.4111 33.073 21.423C31.963 22.106 31.38 23.326 31.089 24.606C30.834 25.658 30.732 26.765 30.674 27.876C30.706 27.603 30.74 27.33 30.782 27.06C31.018 25.675 31.42 24.233 32.337 23.17C32.372 23.126 32.428 23.126 32.467 23.161C32.4818 23.1785 32.491 23.2002 32.4933 23.223C32.4956 23.2458 32.491 23.2688 32.48 23.289L32.475 23.297C31.8 24.45 31.578 25.821 31.428 27.17C31.351 27.927 31.302 28.763 31.286 29.527H29.168C29.115 28.545 29.103 27.501 29.123 26.519C29.053 26.394 29.008 26.156 29.013 25.876C29.0107 25.6918 29.0412 25.5086 29.103 25.335C29.034 25.204 28.995 24.978 29.003 24.713C29.006 24.382 29.079 24.104 29.176 24.022C29.123 23.889 29.1 23.652 29.136 23.379C29.173 23.092 29.26 22.852 29.349 22.752C29.26 22.661 29.21 22.38 29.249 22.037C29.289 21.691 29.399 21.412 29.507 21.357C29.424 21.266 29.391 20.982 29.454 20.639C29.52 20.289 29.648 20.018 29.763 19.984C29.689 19.872 29.679 19.593 29.759 19.268C29.845 18.893 30.011 18.617 30.129 18.631C30.026 18.568 30.018 18.245 30.126 17.881C30.233 17.504 30.418 17.228 30.538 17.271C30.543 17.274 30.548 17.26 30.543 17.254C30.472 17.142 30.483 16.864 30.58 16.542C30.698 16.162 30.889 15.893 31.008 15.936C31.0092 15.934 31.0099 15.9323 31.0106 15.9306C31.0117 15.9282 31.0126 15.926 31.015 15.923C30.937 15.833 30.958 15.561 31.073 15.267C31.191 14.954 31.386 14.72 31.49 14.765C31.496 14.768 31.498 14.759 31.498 14.759C31.443 14.66 31.496 14.403 31.643 14.125C31.803 13.817 32.013 13.619 32.113 13.672C32.3386 13.2967 32.6013 12.945 32.897 12.622C32.9102 12.6079 32.9262 12.5967 32.9441 12.5892C32.9619 12.5817 32.9811 12.578 33.0004 12.5784C33.0197 12.5788 33.0387 12.5832 33.0562 12.5914C33.0738 12.5996 33.0893 12.6114 33.102 12.626C33.1284 12.6539 33.1443 12.69 33.147 12.7283C33.1498 12.7666 33.1392 12.8047 33.117 12.836L33.114 12.842C32.239 14.008 31.729 15.461 31.304 16.902C30.882 18.347 30.603 19.844 30.412 21.358L30.397 21.489C30.4165 21.4461 30.4402 21.4051 30.4654 21.3616C30.4725 21.3493 30.4797 21.3368 30.487 21.324C30.465 21.196 30.532 20.969 30.667 20.746C30.7468 20.6093 30.8521 20.4892 30.977 20.392C30.997 20.263 31.06 20.106 31.157 19.944C31.307 19.699 31.483 19.544 31.603 19.534C31.601 19.401 31.693 19.187 31.85 18.981C32.042 18.737 32.254 18.604 32.367 18.63C32.412 18.519 32.538 18.364 32.714 18.226C32.937 18.051 33.157 17.966 33.244 18.01C33.444 17.823 33.637 17.637 33.824 17.437C33.8318 17.4293 33.8412 17.4232 33.8514 17.4191C33.8617 17.4151 33.8726 17.4132 33.8836 17.4134C33.8946 17.4137 33.9055 17.4162 33.9155 17.4208C33.9255 17.4253 33.9346 17.4319 33.942 17.44C33.9585 17.4568 33.9684 17.4791 33.9697 17.5027C33.9709 17.5262 33.9636 17.5495 33.949 17.568C33.6561 17.9217 33.3443 18.2537 33.0347 18.5832ZM37.692 16.908C37.8537 16.8659 38.0248 16.8793 38.178 16.946C38.685 17.1408 39.3513 16.5746 39.74 16.2443C39.9141 16.0964 40.0325 15.9958 40.056 16.032C40.0953 16.0933 39.7849 16.3552 39.4 16.68C39.0309 16.9914 38.5933 17.3606 38.33 17.666C38.2196 17.7972 38.0693 17.8885 37.902 17.926C37.74 17.9709 37.5674 17.9578 37.414 17.889C37.3481 17.8615 37.2896 17.8186 37.2436 17.764C37.1975 17.7094 37.1651 17.6446 37.149 17.575C37.146 17.554 37.146 17.533 37.146 17.511C37.1177 17.5331 37.0844 17.5479 37.049 17.554C36.921 17.594 36.784 17.55 36.671 17.45C36.5411 17.3295 36.4505 17.1727 36.411 17C36.3653 16.8253 36.3716 16.6412 36.429 16.47C36.581 16.0207 36.6333 15.2839 36.6728 14.7267C36.7038 14.2904 36.7269 13.9641 36.784 13.972C36.827 13.9787 36.8156 14.1601 36.7993 14.4223C36.7647 14.9779 36.7074 15.8964 37.096 16.285C37.2252 16.4039 37.3135 16.5608 37.348 16.733C37.3766 16.8457 37.3827 16.9629 37.366 17.078C37.4602 16.9971 37.5718 16.939 37.692 16.908ZM40.3057 14.9727C40.4786 14.8372 40.5977 14.7439 40.623 14.781H40.624C40.6598 14.8349 40.4392 15.0112 40.1449 15.2464C39.7726 15.5438 39.2825 15.9356 39.044 16.293C38.9584 16.422 38.828 16.5147 38.678 16.553C38.53 16.5947 38.372 16.5815 38.233 16.516C38.1677 16.4832 38.1099 16.4372 38.0632 16.3809C38.0166 16.3246 37.9821 16.2593 37.962 16.189C37.9606 16.1836 37.9611 16.1767 37.9616 16.1704C37.9618 16.1674 37.962 16.1646 37.962 16.162C37.9142 16.1991 37.86 16.2269 37.802 16.244C37.7335 16.2577 37.6628 16.2565 37.5949 16.2405C37.5269 16.2244 37.4631 16.1939 37.408 16.151C37.2804 16.0499 37.1909 15.9085 37.154 15.75C37.1107 15.5945 37.1238 15.4287 37.191 15.282C37.3568 14.8845 37.4297 14.2377 37.4855 13.7431C37.5303 13.3456 37.5641 13.0464 37.626 13.054C37.6698 13.0591 37.6532 13.2194 37.6292 13.4516C37.5781 13.9462 37.4933 14.7673 37.886 15.111C38.014 15.2102 38.104 15.3504 38.141 15.508C38.1486 15.5405 38.1493 15.5725 38.15 15.6068C38.1503 15.6179 38.1505 15.6293 38.151 15.641C38.2201 15.5815 38.3003 15.5363 38.387 15.508C38.5379 15.4669 38.6986 15.4822 38.839 15.551C39.3104 15.7525 39.933 15.2647 40.3057 14.9727ZM40.6141 13.5258C40.7502 13.3751 40.8442 13.2709 40.873 13.301C40.9107 13.3413 40.7432 13.5309 40.5188 13.785C40.2308 14.1111 39.849 14.5433 39.686 14.903C39.6289 15.0308 39.5288 15.1345 39.403 15.196C39.272 15.26 39.125 15.27 39.002 15.23C38.9113 15.2056 38.8308 15.1527 38.7724 15.079C38.7141 15.0054 38.681 14.9149 38.678 14.821C38.6151 14.8903 38.5283 14.9332 38.435 14.941C38.309 14.947 38.193 14.895 38.099 14.797C38.007 14.699 37.941 14.558 37.931 14.4C37.9141 14.2559 37.9473 14.1105 38.025 13.988C38.2301 13.6608 38.3862 13.0965 38.5049 12.6672C38.5991 12.3263 38.6699 12.0705 38.723 12.086C38.761 12.0991 38.7239 12.239 38.6702 12.4411C38.5559 12.8711 38.3669 13.5826 38.669 13.952C38.7668 14.0611 38.8264 14.199 38.839 14.345C38.839 14.3613 38.8369 14.3765 38.8349 14.3915C38.8329 14.406 38.831 14.4202 38.831 14.435C38.8786 14.3852 38.9358 14.3454 38.999 14.318C39.1222 14.2549 39.2647 14.2406 39.398 14.278C39.8455 14.3773 40.3248 13.8463 40.6141 13.5258ZM40.0756 12.0263C40.2447 11.7627 40.3717 11.5648 40.437 11.611C40.4747 11.6343 40.3889 11.7694 40.2654 11.9639C40.0449 12.3112 39.7041 12.8478 39.731 13.276C39.7445 13.4179 39.7174 13.5608 39.653 13.688C39.5926 13.8147 39.494 13.9193 39.371 13.987C39.3233 14.0146 39.2693 14.0293 39.2143 14.0296C39.1592 14.03 39.105 14.016 39.057 13.989C38.965 13.935 38.907 13.829 38.894 13.705C38.8781 13.5619 38.9056 13.4173 38.973 13.29C39.0327 13.1659 39.1286 13.0627 39.248 12.994C39.5664 12.8201 39.8564 12.368 40.0756 12.0263ZM30.0797 42.448H30.08V42.447L30.0797 42.448ZM24.136 42.448H30.0797L30.0737 42.4675C29.8376 43.2304 29.5879 44.0372 28.795 45.4C28.795 45.4 29.461 47.667 29.417 47.807C29.369 47.948 27.847 48.386 27.737 48.29C27.629 48.194 27.331 46.969 27.091 45.647C25.54 44.909 24.011 43.807 23.034 42.357C23.3978 42.4204 23.7667 42.4508 24.136 42.448ZM39.977 52.835C41.575 53.259 43.534 53.21 45.034 52.617V52.616C45.076 52.601 45.105 52.653 45.071 52.682C42.911 54.353 39.886 55.122 37.161 54.138C36.3001 53.8701 35.483 53.3902 34.6635 52.9089C32.9929 51.9278 31.3128 50.941 29.233 51.734C31.687 52.694 33.98 54.464 35.753 56.134L34.463 57.192C32.855 55.318 31.044 53.446 28.992 52.306C28.713 52.141 28.545 52.074 28.348 52.064C28.153 52.074 27.984 52.14 27.703 52.306C25.653 53.446 23.843 55.319 22.235 57.192L20.945 56.134C22.717 54.464 25.01 52.694 27.464 51.735C25.3846 50.941 23.7034 51.9283 22.0316 52.9102C21.2127 53.3911 20.3961 53.8707 19.536 54.139C16.812 55.123 13.786 54.353 11.626 52.683C11.6187 52.6775 11.6137 52.6696 11.6117 52.6607C11.6098 52.6518 11.6112 52.6425 11.6155 52.6345C11.6199 52.6265 11.627 52.6203 11.6355 52.6171C11.644 52.6139 11.6534 52.6139 11.662 52.617C13.163 53.21 15.121 53.259 16.72 52.835C17.3918 52.6256 18.0772 52.3819 18.7727 52.1347C21.8673 51.0344 25.162 49.863 28.348 51.327C31.5344 49.864 34.8295 51.0351 37.9236 52.1347C38.6194 52.382 39.305 52.6257 39.977 52.835ZM16.1901 46.8167C17.4677 48.1935 18.7427 49.5676 20.906 50.091V50.092C20.946 50.099 20.946 50.154 20.906 50.164C20.2739 50.3118 19.7024 50.5104 19.14 50.7058C18.2681 51.0087 17.418 51.3041 16.398 51.391C11.731 51.784 8.32399 50.36 6.88799 48.278C6.865 48.242 6.90499 48.202 6.94099 48.219C9.64503 49.4407 11.3461 49.4784 13.2388 49.5204C14.4027 49.5462 15.6392 49.5736 17.226 49.879C17.253 49.888 17.265 49.849 17.243 49.838C15.0305 48.645 14.186 46.888 13.4641 45.3861C13.2378 44.9152 13.0236 44.4695 12.783 44.074C12.763 44.043 12.799 44.003 12.833 44.021C14.2237 44.6974 15.2076 45.7579 16.1901 46.8167ZM11.7085 44.8105C12.0389 46.0684 12.3219 47.1453 12.891 47.891H12.892C12.909 47.916 12.892 47.951 12.862 47.951C7.89599 47.942 2.53199 43.591 2.14899 40.797C2.14499 40.76 2.19099 40.744 2.21499 40.774C3.07468 41.9719 4.53022 42.7519 6.23478 43.6653C7.59955 44.3967 9.12397 45.2136 10.63 46.399C10.652 46.414 10.676 46.39 10.66 46.367C9.45883 44.7696 9.18959 42.7637 8.92111 40.7633C8.80604 39.906 8.69111 39.0497 8.50299 38.227C8.49499 38.19 8.54199 38.167 8.56799 38.196C10.5659 40.4617 11.1947 42.8548 11.7085 44.8105ZM7.14843 37.766C7.09945 39.6839 7.0548 41.4326 7.80699 42.827V42.828C7.82299 42.861 7.79099 42.897 7.75899 42.881C5.44751 41.7293 3.42174 40.0769 1.82899 38.044C0.812995 36.503 -0.0870053 34.844 0.00899467 32.809C0.00999467 32.762 0.0789947 32.75 0.0989947 32.794C0.919605 34.4541 1.83152 35.404 2.86288 36.4783C3.6916 37.3415 4.59745 38.2851 5.59499 39.742C5.60899 39.763 5.639 39.75 5.62899 39.727C5.05904 38.0165 5.46997 35.9457 5.84356 34.063C6.04612 33.0422 6.23771 32.0767 6.25599 31.254C6.25599 31.205 6.32499 31.195 6.34299 31.239C7.25847 33.4571 7.20097 35.7089 7.14843 37.766ZM6.65999 25.201C6.68399 25.158 6.74699 25.174 6.74999 25.222H6.74899C6.84268 27.4578 6.03661 29.2493 5.2664 30.9611C4.57323 32.5017 3.9091 33.9777 3.95599 35.655C3.95599 35.701 3.90399 35.721 3.87799 35.687C1.45499 32.345 -0.820005 28.298 0.761995 24.031C0.780995 23.984 0.850995 23.997 0.850995 24.047C0.901553 26.023 1.61904 27.7295 2.26648 29.2693C2.69473 30.2878 3.09232 31.2335 3.24599 32.136C3.25099 32.163 3.28299 32.161 3.28499 32.131C3.3331 30.0843 4.37646 28.6037 5.40689 27.1415C5.8546 26.5062 6.29986 25.8743 6.65999 25.201ZM6.45667 21.4356C7.15368 20.8628 7.81704 20.3177 8.26099 19.701C8.28999 19.66 8.34999 19.691 8.33699 19.738C7.72567 22.3569 6.32469 23.924 5.14028 25.2489C4.31168 26.1758 3.58908 26.9841 3.31699 27.951C3.30599 27.993 3.25099 27.997 3.24099 27.953C3.1241 27.4971 2.97665 27.0324 2.82337 26.5492C2.37478 25.1352 1.87619 23.5637 1.94699 21.596C2.02299 19.445 2.48999 17.456 3.86999 15.757C3.89999 15.72 3.95999 15.752 3.94699 15.8C3.4055 17.7875 3.52743 19.6258 3.63974 21.3191C3.7168 22.4809 3.78933 23.5744 3.63999 24.601C3.63499 24.637 3.67399 24.645 3.68699 24.613C4.24572 23.2525 5.39054 22.3117 6.45667 21.4356ZM8.85154 16.1311C9.69109 15.5948 10.5761 15.0294 11.308 14.456C11.34 14.431 11.379 14.463 11.366 14.5C10.6917 16.4719 9.04492 17.7159 7.40518 18.9545C6.50621 19.6336 5.60935 20.311 4.87599 21.106C4.85299 21.131 4.81 21.114 4.81299 21.079C4.83533 20.6038 4.84376 20.1135 4.85234 19.6139C4.9033 16.647 4.95987 13.3535 7.96999 10.969C8.00499 10.942 8.04899 10.985 8.02499 11.022C7.29568 12.2029 7.01974 13.4596 6.73178 14.7711C6.71492 14.8479 6.69803 14.9249 6.68099 15.002L5.99599 18.289C5.99099 18.311 6.02299 18.326 6.03299 18.306C6.39886 17.698 7.57244 16.9483 8.85154 16.1311ZM7.55499 15.454C8.535 12.122 10.817 9.506 13.925 9.406C13.974 9.406 13.993 9.475 13.952 9.502C12.9208 10.1666 12.3954 10.8018 11.7531 11.5783C10.9516 12.5473 9.96797 13.7365 7.59199 15.478C7.57599 15.488 7.54999 15.474 7.55499 15.454ZM43.4528 49.5228C45.3468 49.4807 47.048 49.4428 49.752 48.22C49.789 48.204 49.828 48.244 49.804 48.28C48.372 50.362 44.963 51.786 40.296 51.394C39.2756 51.307 38.4249 51.0115 37.5525 50.7084C36.9904 50.5131 36.4193 50.3147 35.788 50.167C35.748 50.156 35.748 50.101 35.788 50.093C37.9526 49.5694 39.2283 48.1946 40.5063 46.8173C41.4883 45.759 42.4718 44.6991 43.861 44.023C43.894 44.004 43.931 44.044 43.911 44.076C43.6706 44.4715 43.4564 44.9171 43.2303 45.3877C42.5083 46.8903 41.6639 48.6475 39.451 49.84C39.428 49.851 39.441 49.889 39.467 49.881C41.0531 49.5762 42.2893 49.5487 43.4528 49.5228ZM50.4588 43.6677C52.163 42.7542 53.6188 41.9739 54.479 40.776C54.502 40.746 54.55 40.761 54.545 40.799C54.161 43.593 48.8 47.945 43.835 47.953C43.828 47.9532 43.821 47.9514 43.815 47.9478C43.8089 47.9441 43.804 47.9389 43.8009 47.9326C43.7991 47.9291 43.798 47.9254 43.7974 47.9217C43.7969 47.9185 43.7968 47.9153 43.7972 47.9122C43.7975 47.9095 43.798 47.9068 43.7989 47.9042C43.8003 47.9002 43.8023 47.8964 43.805 47.893C44.3732 47.1479 44.656 46.0713 44.9863 44.8137C45.5 42.8579 46.1286 40.4644 48.125 38.199C48.151 38.169 48.199 38.192 48.191 38.229C48.0022 39.0533 47.8871 39.9113 47.7718 40.7704C47.5036 42.769 47.2348 44.773 46.036 46.369C46.017 46.393 46.045 46.417 46.065 46.401C47.5702 45.216 49.0941 44.3991 50.4588 43.6677ZM56.594 32.796C56.616 32.751 56.683 32.764 56.686 32.811C56.78 34.846 55.88 36.506 54.866 38.046C53.2727 40.078 51.247 41.73 48.936 42.882C48.902 42.899 48.87 42.863 48.888 42.829C49.6391 41.4349 49.5943 39.6866 49.5452 37.7692C49.4925 35.7119 49.4349 33.4599 50.35 31.242C50.369 31.196 50.437 31.207 50.437 31.256C50.4563 32.0762 50.6474 33.0387 50.8494 34.0566C51.2236 35.9413 51.6354 38.0157 51.064 39.728C51.056 39.752 51.085 39.765 51.101 39.744C52.0983 38.2851 53.0042 37.341 53.8333 36.4771C54.863 35.404 55.7741 34.4547 56.594 32.796ZM55.841 24.049C55.841 23.998 55.911 23.986 55.93 24.032C57.512 28.3 55.237 32.346 52.817 35.689C52.791 35.723 52.737 35.704 52.737 35.657C52.7844 33.9791 52.1206 32.5027 51.4278 30.9618C50.6582 29.25 49.8528 27.4586 49.947 25.223C49.947 25.175 50.009 25.159 50.033 25.202C50.3934 25.8758 50.8393 26.508 51.2877 27.1438C52.3186 28.6056 53.3626 30.0859 53.41 32.132C53.41 32.161 53.442 32.164 53.447 32.137C53.6006 31.2351 53.9979 30.2897 54.4259 29.2714C55.0731 27.7314 55.7904 26.0247 55.841 24.049ZM52.823 15.759C54.203 17.457 54.67 19.447 54.746 21.597C54.8176 23.567 54.3183 25.1392 53.8691 26.5538C53.7161 27.0356 53.5689 27.4992 53.452 27.954C53.442 27.998 53.387 27.995 53.376 27.952C53.1042 26.9847 52.3814 26.176 51.5525 25.2485C50.3684 23.9237 48.9677 22.3566 48.356 19.739C48.345 19.692 48.406 19.662 48.432 19.702C48.8761 20.3184 49.5393 20.8633 50.2359 21.4357C51.3025 22.3121 52.4477 23.253 53.006 24.614C53.019 24.646 53.061 24.638 53.056 24.601C52.9053 23.5735 52.9776 22.4786 53.0545 21.3153C53.1663 19.6232 53.2876 17.7862 52.746 15.801C52.736 15.754 52.794 15.722 52.823 15.759ZM48.668 11.024C48.645 10.987 48.689 10.944 48.723 10.97V10.971C51.7341 13.3547 51.7907 16.6483 51.8417 19.6159C51.8502 20.1155 51.8587 20.6058 51.881 21.081C51.883 21.116 51.841 21.132 51.818 21.108C51.0842 20.3122 50.1867 19.6343 49.2871 18.9548C47.6478 17.7166 46.0017 16.4732 45.327 14.502C45.315 14.464 45.356 14.432 45.385 14.456C46.1174 15.0293 47.0017 15.5944 47.8405 16.1304C49.1202 16.9482 50.2939 17.6983 50.66 18.306C50.671 18.328 50.702 18.311 50.697 18.291L50.012 15.004C49.9958 14.9305 49.9797 14.8571 49.9637 14.7839C49.6757 13.4683 49.3993 12.2062 48.668 11.024ZM42.742 9.503C42.703 9.477 42.719 9.407 42.768 9.407C45.876 9.506 48.159 12.123 49.138 15.455C49.143 15.474 49.12 15.489 49.102 15.479C46.7267 13.7375 45.7429 12.5482 44.9415 11.5794C44.2989 10.8025 43.7736 10.1674 42.742 9.503ZM7.731 67.54H7.218V67.539V65.356H7.927C8.353 65.356 8.666 65.443 8.865 65.618C9.065 65.792 9.164 66.062 9.164 66.428C9.164 66.79 9.045 67.065 8.807 67.255C8.569 67.444 8.211 67.54 7.731 67.54ZM9.997 68.187C10.491 67.768 10.739 67.163 10.739 66.372L10.74 66.373C10.74 65.612 10.508 65.04 10.043 64.655C9.58 64.271 8.901 64.08 8.01 64.08H5.66V71.432H7.218V68.817H7.887C8.799 68.817 9.502 68.607 9.997 68.187ZM15.148 65.748C15.01 65.719 14.838 65.703 14.63 65.703C14.2859 65.7021 13.9492 65.8026 13.662 65.992C13.365 66.185 13.13 66.439 12.955 66.754H12.88L12.653 65.808H11.493V71.432H13.027V68.57C13.027 68.117 13.163 67.766 13.437 67.514C13.71 67.263 14.091 67.137 14.581 67.137C14.7331 67.134 14.885 67.1505 15.033 67.186L15.148 65.748ZM17.211 69.874C17.027 69.589 16.937 69.168 16.937 68.61V68.611C16.937 68.051 17.027 67.632 17.208 67.356C17.39 67.08 17.684 66.941 18.094 66.941C18.506 66.941 18.803 67.081 18.984 67.358C19.165 67.637 19.255 68.054 19.255 68.611C19.255 69.171 19.166 69.592 18.986 69.876C18.807 70.159 18.513 70.3 18.104 70.3C17.691 70.3 17.394 70.158 17.211 69.874ZM20.101 70.758C20.583 70.241 20.824 69.526 20.824 68.611C20.824 68.021 20.714 67.506 20.492 67.066C20.271 66.628 19.955 66.291 19.542 66.056C19.13 65.821 18.654 65.704 18.114 65.704C17.246 65.704 16.571 65.958 16.092 66.468C15.612 66.978 15.373 67.692 15.373 68.61C15.373 69.2 15.483 69.717 15.705 70.16C15.912 70.5872 16.2431 70.942 16.655 71.178C17.068 71.415 17.543 71.533 18.083 71.533C18.945 71.533 19.618 71.275 20.101 70.758ZM22.987 68.375C22.847 68.197 22.777 67.956 22.777 67.65C22.777 66.973 23.059 66.634 23.622 66.634C24.178 66.634 24.457 66.973 24.457 67.65C24.457 67.955 24.39 68.197 24.256 68.375C24.122 68.551 23.912 68.641 23.622 68.641C23.337 68.641 23.125 68.552 22.987 68.375ZM22.523 72.725C22.32 72.604 22.218 72.437 22.218 72.227C22.2165 72.1224 22.2419 72.0192 22.2918 71.9272C22.3417 71.8353 22.4145 71.7577 22.503 71.702C22.692 71.569 22.928 71.503 23.21 71.503H24.005C24.39 71.503 24.674 71.543 24.859 71.624C25.044 71.704 25.136 71.849 25.136 72.061C25.136 72.323 24.98 72.529 24.669 72.679C24.356 72.831 23.926 72.905 23.376 72.905C23.01 72.905 22.726 72.845 22.523 72.725ZM26.559 66.589V65.809H24.597C24.538 65.796 24.399 65.775 24.183 65.747C23.9971 65.7205 23.8097 65.7061 23.622 65.704C22.882 65.704 22.312 65.872 21.912 66.207C21.514 66.543 21.314 67.016 21.314 67.63C21.3056 67.9798 21.3957 68.325 21.574 68.626C21.7369 68.8992 21.9819 69.1141 22.274 69.24C22.0734 69.3503 21.8917 69.4921 21.736 69.66C21.612 69.802 21.55 69.98 21.55 70.195C21.5524 70.3716 21.6144 70.5421 21.726 70.679C21.8318 70.8235 21.9739 70.9374 22.138 71.009C21.729 71.107 21.42 71.27 21.208 71.497C20.9955 71.7281 20.8821 72.0333 20.892 72.347C20.885 72.5763 20.9386 72.8034 21.0475 73.0053C21.1563 73.2073 21.3166 73.3769 21.512 73.497C21.926 73.77 22.526 73.907 23.31 73.907C24.337 73.907 25.124 73.724 25.672 73.364C26.219 73.002 26.494 72.492 26.494 71.835C26.494 71.322 26.332 70.932 26.008 70.668C25.685 70.403 25.215 70.27 24.597 70.27H23.642C23.079 70.27 22.798 70.16 22.798 69.938C22.798 69.791 22.876 69.656 23.034 69.536L23.26 69.561L23.537 69.577C24.284 69.577 24.869 69.408 25.291 69.071C25.711 68.734 25.921 68.264 25.921 67.661C25.921 67.348 25.84 67.067 25.679 66.815L26.559 66.589ZM30.716 65.748C30.578 65.719 30.405 65.703 30.198 65.703H30.2C29.85 65.703 29.527 65.8 29.23 65.992C28.9348 66.1832 28.6922 66.4451 28.524 66.754H28.448L28.222 65.808H27.06V71.432H28.594V68.57C28.594 68.117 28.73 67.766 29.003 67.514C29.277 67.263 29.658 67.137 30.147 67.137C30.2995 67.134 30.4517 67.1504 30.6 67.186L30.716 65.748ZM33.707 68.847L34.3 68.826H34.301V69.289C34.301 69.628 34.195 69.899 33.982 70.103C33.769 70.308 33.485 70.412 33.129 70.412C32.633 70.412 32.385 70.194 32.385 69.762C32.385 69.46 32.492 69.235 32.712 69.088C32.93 68.94 33.262 68.86 33.707 68.847ZM34.457 70.667L34.753 71.431H35.824V67.684C35.824 67.014 35.623 66.514 35.221 66.186C34.819 65.857 34.24 65.693 33.487 65.693C32.7379 65.6832 31.9979 65.8577 31.332 66.201L31.842 67.237C32.448 66.966 32.976 66.83 33.426 66.83C34.009 66.83 34.301 67.115 34.301 67.684V67.932L33.325 67.962C32.484 67.992 31.855 68.148 31.437 68.432C31.02 68.715 30.811 69.155 30.811 69.752C30.811 70.322 30.966 70.761 31.276 71.069C31.586 71.378 32.011 71.532 32.551 71.532C32.989 71.532 33.346 71.47 33.619 71.344C33.893 71.218 34.158 70.992 34.416 70.667H34.457ZM40.417 71.432H41.951V71.431V68.611C41.951 68.027 42.044 67.601 42.23 67.333C42.417 67.065 42.697 66.931 43.074 66.931C43.364 66.931 43.578 67.033 43.714 67.235C43.849 67.438 43.918 67.743 43.918 68.148V71.432H45.457V67.766C45.457 67.045 45.293 66.521 44.967 66.193C44.64 65.868 44.157 65.703 43.52 65.703C43.151 65.703 42.82 65.776 42.527 65.919C42.248 66.05 42.0153 66.2627 41.86 66.529H41.724C41.427 65.979 40.856 65.702 40.014 65.702C39.646 65.702 39.319 65.777 39.034 65.922C38.749 66.069 38.531 66.269 38.381 66.529H38.295L38.089 65.809H36.917V71.432H38.451V68.786C38.451 68.126 38.54 67.652 38.718 67.364C38.895 67.075 39.18 66.931 39.572 66.931C39.864 66.931 40.078 67.033 40.214 67.235C40.349 67.438 40.417 67.743 40.417 68.148V71.432ZM49.067 68.847L49.661 68.826H49.662V69.289C49.662 69.628 49.555 69.899 49.342 70.103C49.129 70.308 48.845 70.412 48.489 70.412C47.993 70.412 47.745 70.194 47.745 69.762C47.745 69.46 47.853 69.235 48.072 69.088C48.29 68.94 48.622 68.86 49.067 68.847ZM49.817 70.667L50.113 71.431H50.114H51.184V67.684C51.184 67.014 50.983 66.514 50.581 66.186C50.179 65.857 49.6 65.693 48.847 65.693C48.0982 65.6834 47.3586 65.8578 46.693 66.201L47.202 67.237C47.808 66.966 48.337 66.83 48.786 66.83C49.369 66.83 49.661 67.115 49.661 67.684V67.932L48.685 67.962C47.844 67.992 47.215 68.148 46.797 68.432C46.381 68.715 46.171 69.155 46.171 69.752C46.171 70.322 46.326 70.761 46.636 71.069C46.946 71.378 47.371 71.532 47.911 71.532C48.35 71.532 48.706 71.47 48.979 71.344C49.253 71.218 49.518 70.992 49.777 70.667H49.817ZM3.978 77.002L5.749 82.77V82.771H7.177L9.073 77.011H9.119C9.079 77.938 9.056 78.508 9.051 78.721C9.046 78.937 9.043 79.126 9.043 79.291V82.771H10.497V75.418H8.374L6.528 81.041H6.498L4.758 75.418H2.636V82.771H4.029V79.351C4.029 78.958 3.997 78.176 3.934 77.002H3.978ZM15.547 82.052L15.754 82.77V82.771H16.93V77.148H15.397V79.793C15.397 80.458 15.3 80.933 15.11 81.219C14.919 81.506 14.608 81.65 14.18 81.65C13.864 81.65 13.634 81.548 13.491 81.345C13.346 81.142 13.274 80.838 13.274 80.432V77.148H11.739V80.815C11.739 81.478 11.907 81.987 12.242 82.341C12.578 82.695 13.075 82.872 13.737 82.872C14.092 82.878 14.4438 82.8049 14.767 82.658C15.0543 82.5283 15.2975 82.3177 15.467 82.052H15.547ZM21.701 82.77H23.235V79.105C23.235 78.437 23.065 77.927 22.728 77.573C22.388 77.219 21.892 77.041 21.238 77.041C20.856 77.041 20.514 77.111 20.214 77.251C19.915 77.39 19.679 77.596 19.508 77.868H19.422L19.216 77.148H18.045V82.771H19.579V80.125C19.579 79.46 19.674 78.987 19.866 78.7C20.056 78.414 20.367 78.27 20.796 78.27C21.111 78.27 21.34 78.372 21.485 78.574C21.629 78.777 21.701 79.082 21.701 79.487V82.77ZM27.562 81.307C27.38 81.536 27.093 81.65 26.7 81.65H26.701C26.345 81.65 26.071 81.511 25.881 81.235C25.689 80.958 25.594 80.544 25.594 79.99C25.594 79.437 25.688 79.015 25.878 78.725C25.9604 78.5884 26.0776 78.4761 26.2176 78.3996C26.3577 78.3232 26.5155 78.2854 26.675 78.29C27.095 78.29 27.396 78.421 27.583 78.682C27.769 78.944 27.862 79.377 27.862 79.98V80.146C27.846 80.692 27.745 81.08 27.562 81.307ZM24.605 82.102C24.982 82.615 25.502 82.872 26.162 82.872V82.871C26.877 82.871 27.408 82.595 27.757 82.041H27.822L28.118 82.771H29.297V74.946H27.757V76.746C27.7616 77.1227 27.8001 77.4982 27.872 77.868H27.822C27.45 77.318 26.91 77.043 26.202 77.043C25.528 77.043 25 77.3 24.615 77.815C24.231 78.329 24.04 79.047 24.04 79.969C24.04 80.879 24.228 81.589 24.605 82.102Z" fill="black"/>
</svg>
