<?xml version="1.0" encoding="utf-8"?>
<!-- Generated by IcoMoon.io -->
<!DOCTYPE svg PUBLIC "-//W3C//DTD SVG 1.1//EN" "http://www.w3.org/Graphics/SVG/1.1/DTD/svg11.dtd">
<svg version="1.1" xmlns="http://www.w3.org/2000/svg" xmlns:xlink="http://www.w3.org/1999/xlink" width="24" height="24" viewBox="0 0 24 24">
<path fill="#444444" d="M16 11c1.655 0 2.99-1.345 2.99-3s-1.335-3-2.99-3c-1.655 0-3 1.345-3 3s1.345 3 3 3zM8 11c1.655 0 2.99-1.345 2.99-3s-1.335-3-2.99-3c-1.655 0-3 1.345-3 3s1.345 3 3 3zM8 13c-2.335 0-7 1.17-7 3.5v2.5h14v-2.5c0-2.33-4.665-3.5-7-3.5zM16 13c-0.29 0-0.615 0.020-0.965 0.055 1.16 0.835 1.965 1.96 1.965 3.445v2.5h6v-2.5c0-2.33-4.665-3.5-7-3.5z"></path>
</svg>
