<?xml version="1.0" encoding="utf-8"?>
<!-- Generated by IcoMoon.io -->
<!DOCTYPE svg PUBLIC "-//W3C//DTD SVG 1.1//EN" "http://www.w3.org/Graphics/SVG/1.1/DTD/svg11.dtd">
<svg version="1.1" xmlns="http://www.w3.org/2000/svg" xmlns:xlink="http://www.w3.org/1999/xlink" width="24" height="24" viewBox="0 0 24 24">
<path fill="#444444" d="M6.625 10.795c1.44 2.83 3.755 5.145 6.59 6.585l2.2-2.205c0.275-0.275 0.67-0.355 1.015-0.245 1.12 0.37 2.325 0.57 3.57 0.57 0.555 0 1 0.445 1 1v3.5c0 0.555-0.445 1-1 1-9.39 0-17-7.61-17-17 0-0.555 0.45-1 1-1h3.5c0.555 0 1 0.445 1 1 0 1.245 0.2 2.45 0.57 3.57 0.11 0.345 0.030 0.74-0.245 1.015l-2.2 2.21z"></path>
</svg>
