<?xml version="1.0" encoding="utf-8"?>
<!-- Generated by IcoMoon.io -->
<!DOCTYPE svg PUBLIC "-//W3C//DTD SVG 1.1//EN" "http://www.w3.org/Graphics/SVG/1.1/DTD/svg11.dtd">
<svg version="1.1" xmlns="http://www.w3.org/2000/svg" xmlns:xlink="http://www.w3.org/1999/xlink" width="24" height="24" viewBox="0 0 24 24">
<path fill="#444444" d="M20 2h-16c-1.105 0-1.99 0.895-1.99 2l-0.010 18 4-4h14c1.105 0 2-0.895 2-2v-12c0-1.105-0.895-2-2-2zM8 14h-2v-2h2v2zM8 11h-2v-2h2v2zM8 8h-2v-2h2v2zM15 14h-5v-2h5v2zM18 11h-8v-2h8v2zM18 8h-8v-2h8v2z"></path>
</svg>
