<?xml version="1.0" encoding="utf-8"?>
<!-- Generated by IcoMoon.io -->
<!DOCTYPE svg PUBLIC "-//W3C//DTD SVG 1.1//EN" "http://www.w3.org/Graphics/SVG/1.1/DTD/svg11.dtd">
<svg version="1.1" xmlns="http://www.w3.org/2000/svg" xmlns:xlink="http://www.w3.org/1999/xlink" width="24" height="24" viewBox="0 0 24 24">
<path fill="#444444" d="M12 4.5c-5 0-9.27 3.11-11 7.5 1.73 4.39 6 7.5 11 7.5 5.005 0 9.27-3.11 11-7.5-1.73-4.39-5.995-7.5-11-7.5zM12 17c-2.76 0-5-2.24-5-5s2.24-5 5-5 5 2.24 5 5-2.24 5-5 5zM12 9c-1.655 0-3 1.345-3 3s1.345 3 3 3 3-1.345 3-3-1.345-3-3-3z"></path>
</svg>
