<svg width="59" height="87" xmlns="http://www.w3.org/2000/svg"><g fill-rule="evenodd"><path d="M36.847 4.482h.548c.512 0 .895-.101 1.149-.303.254-.202.382-.497.382-.884 0-.39-.107-.678-.32-.864-.213-.186-.547-.28-1.002-.28h-.757v2.331zm3.76-1.246c0 .845-.264 1.492-.793 1.939-.528.448-1.278.672-2.252.672h-.715V8.64h-1.665V.787h2.508c.953 0 1.677.205 2.173.615.496.411.744 1.021.744 1.834zM31.07 8.64h-1.637V.787h4.501v1.364H31.07v2.026h2.665v1.358H31.07V8.64zm-4.525 0h-1.896l-1.063-4.126a18.86 18.86 0 0 1-.202-.91 10.53 10.53 0 0 1-.163-.926c-.022.194-.075.504-.161.932-.086.427-.153.733-.199.915L21.803 8.64h-1.89L17.909.787h1.638l1.004 4.286c.176.791.303 1.477.382 2.057.021-.204.07-.52.148-.947.076-.429.149-.761.217-.997L22.442.787h1.574l1.144 4.399a23.36 23.36 0 0 1 .36 1.944c.035-.279.093-.628.171-1.045.079-.416.151-.754.215-1.012l.999-4.286h1.638L26.545 8.64zm-4.072 27.312c-3.051 0-5.01.725-5.544.949-.032.014-.057-.031-.033-.055 3.353-3.486 7.278-3.293 8.222-3.293H36.28c.562 0 1.018.537 1.018 1.2 0 .662-.456 1.199-1.018 1.199H22.473zm2.514 3.085c-3.287 0-4.245-1.868-9.221-.635-.035.009-.058-.038-.029-.057 2.774-1.904 5.791-1.731 7.012-1.731H36.28c.562 0 1.018.537 1.018 1.199 0 .663-.456 1.2-1.018 1.2 0 0-8.69.024-11.293.024zm.234 3.037c-3.375 0-3.645-2.49-8.647-3.051-.035-.003-.039-.055-.005-.064 4.11-1.027 5.639.716 8.037.716H36.28c.562 0 1.018.537 1.018 1.199 0 .663-.456 1.2-1.018 1.2H25.221zm-.733-9.182c-2.716 0-4.968 1.184-5.495 1.483-.029.017-.059-.019-.04-.046.441-.648 2.82-3.837 6.911-3.837H36.28c.562 0 1.018.537 1.018 1.2 0 .662-.456 1.2-1.018 1.2H24.488zm14.941-6.625a.744.744 0 0 0-.443-.205.733.733 0 0 0-.363.042c.047-.098.087-.204.103-.329a.861.861 0 0 0-.084-.513c-.336-.736.625-2.208.504-2.275-.116-.063-.662 1.56-1.192 2.217a.922.922 0 0 0-.199.488.913.913 0 0 0 .086.513c.074.133.187.226.318.234a.3.3 0 0 0 .108-.005.262.262 0 0 0-.019.058.452.452 0 0 0 .142.388.707.707 0 0 0 .441.207.776.776 0 0 0 .493-.092c.719-.394 2.21-.782 2.178-.92-.028-.138-1.482.715-2.073.192zm1.1-1.074a.63.63 0 0 0-.407-.199.64.64 0 0 0-.268.042c.013-.045.032-.085.037-.13a.727.727 0 0 0-.102-.463c-.365-.677.587-1.955.464-2.019-.123-.064-.646 1.368-1.175 1.934a.684.684 0 0 0-.197.426.768.768 0 0 0 .099.465.5.5 0 0 0 .339.228.512.512 0 0 0 .179-.021c-.003.008-.011.019-.009.026a.53.53 0 0 0 .139.399.635.635 0 0 0 .405.194.613.613 0 0 0 .433-.117c.619-.446 2.036-.712 1.999-.855-.033-.139-1.39.611-1.936.09zm.963-.994a.55.55 0 0 0-.388-.103.535.535 0 0 0-.197.05c.01-.029.029-.053.039-.083a.7.7 0 0 0-.024-.43c-.231-.664.793-1.647.693-1.727-.099-.074-.763 1.116-1.309 1.536a.64.64 0 0 0-.231.354.632.632 0 0 0 .021.427.433.433 0 0 0 .265.255.383.383 0 0 0 .27-.026.408.408 0 0 0-.024.17c.014.135.079.25.187.329.102.08.241.12.386.109a.585.585 0 0 0 .367-.175c.491-.497 1.714-.962 1.664-1.082-.053-.119-1.152.765-1.719.396zm1.895-2.134c-.103-.151-.958.787-1.591.877a.67.67 0 0 0-.359.178.704.704 0 0 0-.221.361.382.382 0 0 0 .055.325.331.331 0 0 0 .3.109.66.66 0 0 0 .365-.181.732.732 0 0 0 .214-.356c.192-.643 1.313-1.214 1.237-1.313zm-17.694 1.27c-.026.094-.21.816-.21.816-.052.03-.273-.018-.331-.024-.422-.04-.799-.406-.637-.845.132-.358.404-.396.748-.411.142-.007.4.027.528.116 0 0-.051.165-.098.348zm-.485 2.182l-.04.247c-.262-.164-.417-.542-.291-.84.097-.225.337-.285.514-.295-.063.295-.126.59-.183.888zm-.378 2.697c-.034.185-.284.21-.455.261-.496.148-.965.085-1.118-.508-.165-.635.315-.901.83-1.026.281-.066.54-.01.732.226.048.059.105.112.118.168 0 0-.076.705-.107.879zm-1.562-3.122c.383-.093.779-.237 1.073.141.31.395.208 1.031-.291 1.198-.328.111-.724.207-1.005-.061-.367-.351-.341-1.148.223-1.278zm-.375-2.057c.404-.098.821-.247 1.131.149.323.415.215 1.084-.307 1.259-.346.115-.764.216-1.058-.066-.386-.367-.357-1.204.234-1.342zm-.375 4.445c-.105.37-.41.426-.73.503-.21-.258-.774-.909-.784-.986a.202.202 0 0 1 .012-.09c.026-.077.116-.152.181-.194.192-.125.601-.218.822-.173.396.085.604.569.499.94zm-2.006-1.899c-.288-1.023 1.428-1.47 1.693-.465.273 1.031-1.459 1.469-1.693.465zm-.252-2.043c-.294-1.018 1.431-1.465 1.696-.466.273 1.034-1.462 1.472-1.696.466zm-.241-2.009c-.281-.949 1.338-1.369 1.585-.433.255.962-1.365 1.376-1.585.433zm-.165 3.866c-.08.047-.11.072-.136.072l-.771-.838c.009-.023.248-.196.327-.241.64-.356 1.167.661.58 1.007zm-1.462-1.887c-.381-.84 1.005-1.751 1.425-.845.386.835-1 1.762-1.425.845zm1.165-2.659c.439.778-.882 1.647-1.26.81-.336-.723.838-1.565 1.26-.81zm-1.107-1.815c.194-.172.42-.266.651-.155.37.179.38.734.057.954-.147.102-.396.226-.577.181-.396-.101-.472-.679-.131-.98zm.05-1.669c.16-.108.373-.205.556-.13.334.136.322.621.052.815-.123.088-.346.197-.496.157-.338-.085-.422-.633-.112-.842zm.887-2.378c.198-.108.485-.152.663.048a.467.467 0 0 1-.133.733c-.213.107-.499.146-.667-.051a.48.48 0 0 1 .137-.73zm-.158 1.806c-.16-.595.842-.876 1.005-.271.181.588-.845.88-1.005.271zm1.617 1.04c.233.643-.856 1.007-1.069.372-.217-.643.877-1.01 1.069-.372zm.136-3.133c.208-.084.474-.173.706 0 .289.216.226.701-.105.853-.218.098-.496.164-.69-.008-.247-.221-.26-.705.089-.845zm-.191 5.381c-.294.068-.602.186-.845-.067-.313-.322-.223-.885.199-1.039.273-.103.619-.162.842.066.286.293.255.931-.196 1.04zm.005-3.285c-.189-.637.85-.964 1.05-.345.204.635-.872.972-1.05.345zm1.74 1.169c.244.728-.987 1.117-1.213.399-.228-.733 1.01-1.121 1.213-.399zm.066-1.95c.216-.058.446-.037.611.141.252.271.165.733-.208.802-.175.032-.445.019-.582-.101-.247-.217-.235-.731.179-.842zm1.049 1.528c.396 0 .596.582.365.872-.139.175-.438.186-.643.154-.378-.059-.619-.545-.365-.875.155-.199.42-.151.643-.151zm-1.902 2.397c-.245-.837 1.178-1.212 1.396-.38.22.845-1.21 1.217-1.396.38zm.871 1.071c.388-.04.793-.131 1.031.276.249.43.063 1.028-.441 1.129-.331.069-.732.101-.968-.191-.31-.388-.186-1.162.378-1.214zm1.975-1.865c.479.198.641.765.303 1.081-.181.165-.512.132-.735.087-.446-.087-.738-.758-.347-1.076.201-.163.56-.182.779-.092zm.754 2.019c.302.369.189 1.022-.338 1.055-.276.015-.636-.016-.822-.242-.299-.362-.186-1.039.341-1.058.276-.01.633.019.819.245zm2.039-6.665a.12.12 0 0 0-.134-.05c-.063.021-.105.091-.081.152 1.205 3.236-.333 4.83-.976 7.097-.772-1.842 1.784-3.574.467-6.93a.137.137 0 0 0-.1-.085c-.065-.008-.128.019-.139.106-.034.237-.189 2.097-1.698 3.186a3.001 3.001 0 0 0-.703-1.02c-.139-.627-.548-1.488-1.409-1.743-.129-.324-.389-.79-.887-1.039-.47-.234-1.014-.213-1.617.061-.73.085-1.231.369-1.496.845-.249.449-.205.938-.121 1.27-.614.656-.643 1.629-.627 2.009-.365.876-.16 1.9-.045 2.325-.435 1.19-.01 2.346.16 2.729 0 .103.006.202.011.3-1.428-1.563-4.677-3.497-5.918-4.235a.148.148 0 0 0-.181.021.152.152 0 0 0-.008.217c2.769 2.7 5.239 6.032 7.611 12.946 1.183-1.23 3.322-2.849 6.367-2.849h3.561c-2.262-8.428 1.032-11.444-2.037-15.313zm16.836 4.358c-.651-.17-4.808-.906-9.466 7.663.679-3.191 2.745-7.052 3.312-8.173v-.008a.155.155 0 0 0-.042-.191.135.135 0 0 0-.189.034c-3.079 5.134-4.16 8.091-4.797 11.63h1.928c.328-3.411 4.637-11.449 9.23-10.851h.006c.026.005.049-.016.052-.04a.048.048 0 0 0-.034-.064zm-9.262 28.233l-1.042-4.356h-1.774c.281 1.106.683 2.23 1.203 3.215a.155.155 0 0 0 .159.083.164.164 0 0 0 .134-.189c-.121-.922-.265-1.812-.401-2.699.375 1.394.882 2.757 1.564 4.012.018.039.058.058.094.045a.087.087 0 0 0 .063-.111zm1.793-1.978c-.181-.727-.37-1.621-.533-2.378h-.674c.262.808.617 1.709.931 2.48.032.074.103.111.171.093a.161.161 0 0 0 .105-.195zm.225 2.562l-.005-.011c-.218-.608-.519-1.153-.758-1.737a22.64 22.64 0 0 1-.706-1.759 21.001 21.001 0 0 1-.491-1.433h-.651c.184.545.423 1.132.646 1.659.49 1.187 1.058 2.351 1.779 3.392a.101.101 0 0 0 .123.035c.058-.021.084-.088.063-.146zm.974-20.901c-.05-.074-.17-.09-.228-.029a13.347 13.347 0 0 0-2.147 3.068h.704c.351-.826 1.144-2.285 1.653-2.81l.005-.006a.18.18 0 0 0 .013-.223zm-5.353-6.045c.65-1.068 1.616-1.887 2.435-2.875a.099.099 0 0 0-.008-.128.083.083 0 0 0-.118-.002c-.186.199-.381.385-.58.571-.087-.043-.307.042-.53.218-.176.138-.302.292-.347.403-.113-.026-.325.107-.516.352-.158.204-.25.42-.248.552-.12.011-.296.165-.445.409a1.327 1.327 0 0 0-.182.449 1.247 1.247 0 0 0-.309.354c-.134.223-.202.449-.181.579-.032.056-.063.109-.09.165l.016-.133c.192-1.512.47-3.011.893-4.456.424-1.44.934-2.893 1.808-4.06l.005-.005a.166.166 0 0 0-.016-.21.138.138 0 0 0-.205-.003c-.301.321-.556.68-.784 1.049-.1-.053-.31.144-.47.452-.147.279-.199.537-.145.636 0 0-.002.007-.007.005-.105-.046-.299.188-.417.502-.116.295-.137.566-.058.656-.005.005-.005.008-.008.013-.118-.042-.31.226-.428.606-.097.322-.107.601-.037.713.006.004 0 .018-.005.015-.121-.042-.304.234-.412.611-.108.364-.1.686.003.749-.118-.013-.284.264-.37.638-.079.324-.071.604.005.715-.116.035-.244.306-.31.656-.063.343-.031.628.053.718-.108.056-.218.335-.258.68-.039.343.011.625.1.715-.089.101-.176.34-.212.627-.037.273-.014.51.039.643-.097.083-.171.359-.173.691-.008.266.031.491.099.622a1.552 1.552 0 0 0-.088.542c-.006.279.039.518.109.643-.021.98-.007 2.025.045 3.007h2.118a30.27 30.27 0 0 1 .142-2.356c.15-1.35.372-2.721 1.047-3.874l.005-.008a.115.115 0 0 0-.013-.128c-.039-.034-.095-.034-.131.008-.916 1.063-1.318 2.506-1.554 3.89-.042.271-.076.545-.107.816.057-1.111.16-2.216.414-3.268.292-1.281.874-2.501 1.984-3.184a.098.098 0 0 0 .04-.111c-.014-.051-.066-.08-.111-.067-.07.022-.136.059-.204.088-.074-.09-.344-.024-.622.154-.265.173-.441.385-.423.502 0 .006-.013.014-.013.003-.002-.013-.005-.027-.013-.034-.1-.083-.367.103-.593.419-.228.316-.318.646-.221.731.006.002.003.011-.002.011-.118-.048-.315.22-.438.595-.09.263-.111.505-.079.643 0 .005-.005.01-.005.01a13.64 13.64 0 0 0-.239.92c.026-.439.065-.88.128-1.315.187-1.255.565-2.482 1.237-3.529zm6.663-3.497a.74.74 0 0 0-.486-.037.8.8 0 0 0-.325.17.924.924 0 0 0-.018-.345.837.837 0 0 0-.252-.45c-.573-.571-.179-2.29-.313-2.311-.131-.019-.084 1.695-.354 2.497a.912.912 0 0 0-.018.529.888.888 0 0 0 .259.452c.113.098.25.143.378.103a.221.221 0 0 0 .097-.042c0 .021 0 .042.003.064.029.14.129.25.265.313a.71.71 0 0 0 .488.037.777.777 0 0 0 .428-.26c.538-.624 1.803-1.515 1.727-1.634-.076-.117-1.144 1.196-1.879.914zm2.446-2.166c-.082-.116-1.095 1.066-1.785.771a.635.635 0 0 0-.451-.043.69.69 0 0 0-.236.133c-.003-.048 0-.09-.011-.133a.706.706 0 0 0-.254-.398c-.578-.505-.124-2.041-.26-2.057-.139-.016-.137 1.512-.436 2.23a.687.687 0 0 0-.037.467.719.719 0 0 0 .255.401.488.488 0 0 0 .394.094.473.473 0 0 0 .159-.083c0 .008-.002.019 0 .027.043.146.142.26.271.327a.64.64 0 0 0 .446.037.634.634 0 0 0 .365-.26c.428-.641 1.661-1.39 1.58-1.513zm.249-1.479c-.089-.093-.816 1.123-1.475.977a.561.561 0 0 0-.399.04.562.562 0 0 0-.168.117c0-.029.008-.058.008-.09a.673.673 0 0 0-.171-.394c-.443-.542.174-1.825.056-1.865-.121-.035-.331 1.316-.698 1.903a.625.625 0 0 0-.095.412.654.654 0 0 0 .168.396c.094.098.21.151.336.143a.37.37 0 0 0 .244-.12c0 .054.01.112.037.168.057.122.16.207.286.242.123.04.27.029.401-.035a.6.6 0 0 0 .284-.292c.289-.641 1.273-1.509 1.186-1.602zm-.436-1.691c-.149-.106-.624 1.077-1.189 1.385a.683.683 0 0 0-.275.295.715.715 0 0 0-.079.414c.013.125.071.232.163.285.094.056.207.053.315-.003a.677.677 0 0 0 .281-.297.747.747 0 0 0 .078-.413c-.042-.669.811-1.599.706-1.666zM31.165 42.735h-5.944a6.256 6.256 0 0 1-1.103-.09c.977 1.451 2.507 2.551 4.058 3.29.239 1.323.538 2.547.645 2.643.111.096 1.633-.343 1.68-.483.044-.141-.622-2.408-.622-2.408.8-1.374 1.047-2.184 1.286-2.952zm14.954 10.169c-1.501.593-3.459.643-5.057.218-3.662-1.14-7.727-3.3-11.629-1.507-3.903-1.793-7.968.367-11.629 1.507-1.598.425-3.556.375-5.057-.218a.039.039 0 0 0-.037.067c2.16 1.671 5.186 2.439 7.91 1.456 2.616-.816 4.829-3.587 7.928-2.405-2.453.959-4.747 2.729-6.519 4.4l1.289 1.057c1.609-1.873 3.419-3.746 5.469-4.885.281-.165.449-.232.646-.242.196.01.364.077.643.242 2.052 1.139 3.863 3.012 5.472 4.885l1.288-1.057c-1.771-1.671-4.065-3.441-6.519-4.4 3.1-1.182 5.312 1.589 7.929 2.405 2.724.983 5.75.215 7.909-1.456.034-.03.006-.082-.036-.067zM21.99 50.38c-3.826-.928-4.874-4.515-8.073-6.071-.034-.019-.07.021-.05.052 1.008 1.659 1.554 4.199 4.459 5.764.024.013.011.051-.016.042-4.167-.802-5.917.313-10.285-1.66-.036-.017-.076.023-.052.058 1.436 2.083 4.842 3.507 9.508 3.115 1.68-.144 2.897-.851 4.509-1.228.039-.011.039-.064 0-.072zm-8.015-2.2c-1.454-1.906-1.04-5.973-4.322-9.696-.027-.029-.074-.005-.066.032.627 2.742.441 5.856 2.157 8.138.016.025-.008.048-.031.033-3.386-2.666-6.866-3.468-8.414-5.625-.024-.03-.071-.014-.066.023.384 2.793 5.748 7.145 10.713 7.153.029 0 .048-.034.029-.058zm-5.083-5.065c-1.56-2.89.304-7.302-1.465-11.588-.018-.045-.087-.034-.087.014-.052 2.341-1.506 5.835-.627 8.474.011.023-.021.037-.034.015-2.239-3.27-4.015-3.954-5.495-6.948-.021-.045-.09-.032-.092.016-.094 2.035.805 3.693 1.821 5.234a17.39 17.39 0 0 0 5.929 4.836c.034.017.065-.019.05-.053zM7.834 25.509c-.003-.048-.066-.064-.089-.021-1.189 2.224-3.307 3.993-3.375 6.93-.003.029-.035.031-.039.005-.387-2.267-2.31-4.807-2.394-8.089 0-.05-.071-.063-.089-.015-1.583 4.267.693 8.314 3.115 11.657.026.034.078.013.078-.033-.099-3.542 2.971-6.185 2.793-10.434zm1.512-5.522c-1.124 1.56-3.651 2.663-4.575 4.913-.013.033-.052.024-.047-.013.367-2.521-.606-5.45.307-8.8.013-.048-.047-.08-.076-.043-1.38 1.698-1.848 3.688-1.924 5.838-.094 2.641.835 4.568 1.294 6.359.01.042.066.039.076-.003.662-2.349 3.981-3.762 5.021-8.213.013-.048-.048-.077-.076-.038zm3.047-5.245c-1.848 1.448-4.669 2.843-5.275 3.851-.011.021-.042.005-.037-.016l.685-3.287c.307-1.395.572-2.732 1.343-3.981.024-.037-.021-.08-.055-.053-3.516 2.785-3.002 6.813-3.157 10.111-.003.034.039.05.063.026 2.071-2.245 5.446-3.553 6.49-6.605.013-.037-.026-.07-.057-.046zm2.616-5.048c-3.107.098-5.39 2.715-6.369 6.047-.006.019.021.035.036.024 4.28-3.138 4.042-4.482 6.359-5.975.042-.027.024-.096-.026-.096zm35.828 38.813c-4.364 1.973-6.117.858-10.285 1.66-.026.009-.039-.029-.015-.042 2.905-1.565 3.451-4.105 4.459-5.764.021-.031-.017-.071-.05-.052-3.197 1.556-4.244 5.143-8.073 6.071-.04.008-.04.061 0 .072 1.611.377 2.829 1.084 4.509 1.228 4.666.392 8.075-1.032 9.508-3.115.024-.035-.016-.075-.053-.058zm4.727-7.445c-1.548 2.157-5.028 2.959-8.414 5.625-.021.015-.047-.008-.029-.033 1.714-2.282 1.527-5.396 2.155-8.138.008-.037-.04-.061-.066-.032-3.28 3.723-2.868 7.79-4.319 9.696a.035.035 0 0 0 .028.058c4.966-.008 10.328-4.36 10.71-7.153.006-.037-.042-.053-.065-.023zm2.207-7.964c-.002-.048-.071-.061-.092-.016-1.48 2.994-3.257 3.678-5.492 6.948-.017.022-.045.008-.038-.015.88-2.639-.571-6.133-.627-8.474 0-.048-.068-.059-.086-.014-1.769 4.286.094 8.698-1.462 11.588-.018.034.013.07.047.053a17.4 17.4 0 0 0 5.929-4.836c1.015-1.541 1.916-3.199 1.821-5.234zm-.756-8.779c-.018-.048-.089-.035-.089.015-.084 3.282-2.008 5.822-2.393 8.089-.006.026-.037.024-.037-.005-.068-2.937-2.189-4.706-3.378-6.93a.045.045 0 0 0-.086.021c-.179 4.249 2.889 6.892 2.789 10.434 0 .046.055.067.082.033 2.419-3.343 4.695-7.39 3.112-11.657zm-1.183-2.437c-.077-2.15-.543-4.14-1.924-5.838-.029-.037-.087-.005-.076.043.913 3.35-.061 6.279.31 8.8.005.037-.037.046-.05.013-.924-2.25-3.451-3.353-4.574-4.913-.027-.039-.087-.01-.077.038 1.039 4.451 4.359 5.864 5.021 8.213.01.042.065.045.076.003.459-1.791 1.388-3.718 1.294-6.359zm-6.023-10.626c-.035-.027-.079.016-.056.053.772 1.249 1.037 2.586 1.344 3.981l.685 3.287c.006.021-.026.037-.036.016-.607-1.008-3.425-2.403-5.276-3.851-.029-.024-.071.009-.057.046 1.044 3.052 4.419 4.36 6.49 6.605.023.024.065.008.063-.026-.155-3.298.359-7.326-3.157-10.111zm-5.955-1.562c-.05 0-.066.069-.026.096 2.317 1.493 2.078 2.837 6.359 5.975.018.011.042-.005.036-.024-.978-3.332-3.262-5.949-6.369-6.047zM4.176 70.364l-.236-1.222c-.112.176-.308.403-.586.68-.14.066-.305.186-.496.362l1.318.18zm2.387 2.112H5.219c-.278 0-.491-.176-.639-.528l-.261-.889c-.061.047-.191.263-.391.653-.183.333-.331.486-.444.459l-2.361-.445c.191-.815.365-1.375.522-1.681.156-.306.399-.569.73-.792.469-.287.944-.574 1.422-.861a2.331 2.331 0 0 1-.13-.416l.782-1.432.066.042c.078.324.2 1.02.365 2.088.148.918.283 1.572.405 1.963.069.213.274.319.612.319h.666v1.52zm-2.348-6.249c-.061.11-.187.286-.379.526-.217.268-.352.402-.404.402-.113 0-.47-.194-1.07-.584a9.356 9.356 0 0 0-.6.556c-.261-.083-.622-.281-1.083-.596.078-.11.335-.421.77-.929.504.387.83.581.978.581-.009 0 .222-.194.692-.581l1.096.625z"/><path d="M6.265 74.373c.209-.318.444-.631.705-.938.513.388.822.584.927.584.061 0 .172-.097.333-.287.161-.191.268-.3.32-.328l1.029.684c-.27.443-.522.762-.757.957l-.978-.61c-.131.123-.326.326-.587.61-.452-.253-.783-.477-.992-.672m3.914-4.066c0 .38-.097 1.103-.287 2.169H6.108v-1.52H9.24c-.165-.502-.435-1.022-.809-1.562l.743-1.368c.67.853 1.005 1.614 1.005 2.281m3.046-3.696a2.995 2.995 0 0 1-.444.458c-.235.204-.405.306-.509.306-.183 0-.487-.245-.913-.735.052-.102.198-.282.437-.541.239-.259.398-.388.476-.388.07 0 .387.301.953.9m2.844 5.865h-1.448c-.088-.038-.166-.162-.236-.375a35.714 35.714 0 0 0-.156-.487c-.035.037-.13.199-.287.487-.122.251-.218.375-.287.375h-2.766c-.191 0-.287-.139-.287-.417 0-.333.057-.773.169-1.32.148-.684.318-1.042.51-1.069a6.69 6.69 0 0 0-.026.639c0 .408.06.611.182.611h2.57l.027-.124-.522-2.251a3.89 3.89 0 0 1 .326-.82c.139-.269.278-.533.417-.792.339 1.517.622 2.668.849 3.449.112.359.212.538.299.538h.666v1.556"/><path d="M19.473 66.741c-.009.157-.335.43-.978.817-.079-.018-.257-.143-.536-.372-.278-.232-.417-.379-.417-.445 0-.082.313-.395.939-.94.096.018.427.333.992.94m2.309 4.215l-.848 1.52h-5.375v-1.52h.965a3.989 3.989 0 0 1 .079-.808c.217-.435.578-.867 1.083-1.294.556-.457 1.043-.683 1.461-.683.435 0 .858.226 1.272.681.413.453.611.911.594 1.373-.496-.464-1.144-.698-1.944-.698-.749 0-1.231.101-1.449.301.392.467.814.843 1.266 1.128h2.896m2.33-5.913a1.93 1.93 0 0 1-.274.434c-.357-.009-.831.177-1.422.559.009-.084.078-.186.209-.307l.313-.251-.339-.112c-.157-.065-.235-.126-.235-.181 0-.252.098-.49.293-.713.196-.223.411-.335.646-.335.078 0 .163.025.255.077.091.052.137.119.137.203 0-.01-.083.111-.248.362-.262-.15-.383-.226-.366-.226-.043 0-.161.06-.352.182.087.205.548.308 1.383.308m2.267 6.095a5.083 5.083 0 0 0-.334-.579 6.316 6.316 0 0 1-.601.551c.231.018.49.028.774.028h.161zm1.982-4.334c.008.037.014.099.019.187.004.089.007.156.007.203 0 .148-.061.321-.182.516-.104.148-.208.302-.312.46a5.596 5.596 0 0 1-.364-.111c-.148.685-.425 1.264-.833 1.736.314.657.47 1.185.47 1.583 0 .232-.035.599-.104 1.098h-3.418c.104-.333.278-.828.522-1.487.347-.13.622-.25.821-.36.409-.204.622-.39.639-.557-.069-.12-.225-.314-.469-.583-.269-.305-.444-.459-.522-.459-.026 0-.081.063-.163.188-.083.125-.141.193-.176.202-.383-.213-.94-.541-1.67-.984-.296-.204-.444-.472-.444-.805 0-.36.183-.893.548-1.595h.039c.417-.009 1.074.416 1.971 1.276.765.749 1.308 1.386 1.63 1.913.218-.334.326-.733.326-1.198 0-.176-.052-.371-.158-.585-.106-.213-.159-.305-.159-.278 0-.13.314-.626.944-1.489a.656.656 0 0 0-.013.125c0 .222.133.428.401.613l.65.391zm2.09 3.418c0 .945-.252 1.732-.757 2.362l-.587-4.475c.165-.508.487-1.115.966-1.82.252 1.807.378 3.118.378 3.933m5.956 2.601c-.365.639-.609.959-.73.959-.044 0-.198-.121-.463-.361-.265-.242-.398-.381-.398-.417 0-.084.095-.253.286-.508.192-.254.331-.382.418-.382.079 0 .244.1.496.299.252.198.382.335.391.41m2.453 1.973c-.444.829-1.358 1.243-2.742 1.243-.792 0-1.441-.185-1.946-.555-.584-.416-.875-1.025-.875-1.831 0-.636.155-1.29.465-1.961.309-.67.704-1.204 1.184-1.601-.105-.074-.374-.112-.809-.112a.96.96 0 0 0-.568.172l-.488.352c.173-.691.291-1.111.352-1.26.208-.497.504-.747.887-.747.252 0 .626.061 1.121.181.497.121.84.181 1.032.181h1.865a31.91 31.91 0 0 1-.561 1.375c-.174.009-.439.033-.796.071a.242.242 0 0 0-.078.184c0 .313.282.468.847.468h1.029v1.52h-1.411c-.357 0-.643-.113-.856-.34-.214-.228-.32-.531-.32-.91 0-.111.033-.259.101-.445a2.15 2.15 0 0 0 .114-.388 4.651 4.651 0 0 0-.459.11c-.463.185-.887.491-1.271.917-.437.481-.656.959-.656 1.431 0 1.306 1.334 1.959 4.002 1.959.192 0 .472-.005.837-.014"/><path d="M41.964 70.447a3 3 0 0 0-.26-.667l-.079-.013c-.166 0-.366.084-.6.25l.939.43zm1.318.388c0 .185-.109.464-.326.835-.166.269-.327.537-.483.806-.017-.093-.731-.417-2.14-.972-.078.046-.188.22-.327.521-.138.3-.256.451-.351.451h-1.1v-1.52h1.23c.061-.055.205-.367.431-.935.139-.353.449-.714.932-1.082.483-.367.899-.551 1.246-.551.184 0 .3.075.353.222.026.158.057.316.091.473.096.297.187.589.274.876.113.353.17.645.17.876zm3.369 1.641h-1.99l-.452-5.447c0-.065.129-.278.391-.638.244-.334.409-.542.496-.626l.157 2.533c.078 1.133.175 1.944.287 2.435.026.149.166.223.418.223h.693v1.52"/><path d="M48.602 66.665c-.044.103-.335.465-.875 1.088-.278-.177-.709-.396-1.291-.655l1.005-1.116c.243.176.63.405 1.161.683m.732 3.769c0 .361-.096 1.042-.286 2.042h-2.951v-1.52h2.322a6.619 6.619 0 0 0-.81-1.574l.746-1.352c.331.473.561.843.692 1.112.191.426.287.856.287 1.292m5.334 2.042h-.953c-.122 0-.292-.055-.509-.166l-.065.083c-.27.5-.54 1.004-.81 1.513-.4.603-.839.904-1.319.904-.322 0-.789-.162-1.403-.487-.613-.324-1.037-.625-1.273-.902v-.181c0-.019.022-.028.066-.028-.026 0 .118.092.43.274.313.183.59.274.834.274.373 0 .92-.257 1.642-.771.72-.513 1.081-.932 1.081-1.256 0-.158-.125-.411-.376-.757-.25-.347-.375-.531-.375-.549 0-.056.106-.269.32-.64.213-.369.354-.6.424-.694l.783 1.261c.297.402.715.602 1.255.602h.248v1.52"/><path d="M56.846 74.244c0 .149-.339.427-1.016.837-.079-.01-.264-.14-.555-.391-.291-.25-.437-.404-.437-.46 0-.056.151-.237.451-.543.299-.308.475-.461.527-.461.052 0 .238.153.554.461.318.306.476.492.476.557m1.068-3.866c0 1.398-.13 2.098-.392 2.098h-3.263v-1.52h2.683c.008 0 .013-.014.013-.041 0-.195-.097-.47-.29-.823-.193-.354-.368-.599-.526-.738l.769-1.436c.305.269.548.635.732 1.098.182.463.274.917.274 1.362M6.652 85.569c0 .047-.138.191-.414.431a9.677 9.677 0 0 1-.527.417l-1.212-.557a60.53 60.53 0 0 0-.653.5c-.149-.009-.564-.189-1.244-.542.053-.101.191-.255.415-.458.159-.138.324-.278.494-.417.606.37.967.556 1.084.556.032 0 .16-.098.383-.292.223-.194.356-.291.399-.291l1.275.653zm12.255-2.752H8.662c-.192.287-.389.573-.591.86-.244.331-.505.571-.781.719-.117.065-.34.153-.67.263-.329.112-.553.166-.669.166.031 0-.165-.09-.59-.27l-.383.385c-.117.092-.309.139-.574.139-.117 0-.271-.069-.463-.207a5.883 5.883 0 0 0-.398-.317c-.394.277-.58.417-.558.417-.064 0-.229-.047-.494-.14-.841-.26-1.261-.77-1.261-1.529 0-.557.25-1.183.75-1.878.468-.658.988-1.158 1.563-1.502h.175c.021.019.032.052.032.098 0 .055-.122.204-.365.444-.307.305-.53.563-.667.776-.244.351-.365.703-.365 1.054 0 .472.281.832.843 1.082.447.193.967.291 1.561.291.733 0 1.604-.135 2.613-.402-.277-.316-.686-.505-1.227-.57l-1.436-.111c.042-.139.356-.573.941-1.305h13.259v1.537z"/><path d="M22.455 81.28v-.301c0-.221-.154-.331-.462-.331-.234 0-.42.047-.558.143.169.096.334.192.494.288.234.124.409.192.526.201m2.456 1.538h-1.18c-.064.055-.141.171-.231.35-.091.179-.2.291-.327.337l-3.094-1.493c-.053.037-.138.199-.255.486-.095.214-.244.32-.447.32h-1.1V81.28h1.642c.075-.046.2-.214.376-.504.175-.291.316-.482.422-.574a4.13 4.13 0 0 1 1.044-.635c.421-.184.805-.276 1.156-.276.171 0 .285.021.343.062.059.042.093.122.104.242-.011.312.08.653.271 1.021.223.444.5.664.829.664h.447v1.538"/><path d="M30.887 77.684l-1.244 1.402.189 1.872c.021.121-.027.417-.143.889-.117.471-.212.749-.287.832-.022.028-.106.074-.255.138h-4.613V81.28h4.165a.243.243 0 0 0 .048-.138c0-.259-.069-.773-.207-1.544-.138-.77-.254-1.257-.35-1.46a2.564 2.564 0 0 1-.492-.429c.414-.758.792-1.297 1.132-1.62l.096.068c.01.186.042.338.095.459.054.12.335.315.846.583.393.212.733.374 1.02.485m9.121 5.133h-7.634l-.561-5.446c0-.064.16-.277.479-.64.298-.333.5-.541.607-.624l.191 2.524c.096 1.129.212 1.936.351 2.428.032.147.203.221.511.221h6.056v1.537"/><path d="M51.713 82.817h-8.071c-.097-.156-.25-.384-.463-.686a16.64 16.64 0 0 1-.51.686h-2.855V81.28h2.679c-.329-.398-.744-.596-1.243-.596-.033 0-.224.021-.575.064.362-.703.638-1.148.829-1.333.351-.324.898-.486 1.643-.486.446 0 .888.128 1.323.384.468.285.702.615.702.991 0 .129-.069.294-.207.495-.107.155-.217.316-.336.481h7.084v1.537"/><path d="M55.22 77.684l-1.244 1.402.189 1.872c.021.121-.027.417-.144.889-.116.471-.212.749-.287.832-.021.028-.105.074-.255.138h-2.118V81.28h1.671a.249.249 0 0 0 .047-.138c0-.259-.069-.773-.206-1.544-.138-.77-.254-1.257-.35-1.46a2.564 2.564 0 0 1-.492-.429c.414-.758.791-1.297 1.132-1.62l.096.068c.01.186.042.338.095.459.053.12.334.315.846.583.393.212.733.374 1.02.485m2.964 2.88c0 .945-.308 1.733-.925 2.362l-.718-4.475c.202-.508.596-1.115 1.18-1.82.309 1.807.463 3.118.463 3.933"/></g></svg>