<?xml version="1.0" encoding="UTF-8"?>
<svg width="152px" height="58px" viewBox="0 0 152 58" version="1.1" xmlns="http://www.w3.org/2000/svg" xmlns:xlink="http://www.w3.org/1999/xlink">
    <!-- Generator: Sketch 48.2 (47327) - http://www.bohemiancoding.com/sketch -->
    <title>standard/ar/wfp-logo-standard-blue-ar</title>
    <desc>Created with Sketch.</desc>
    <defs></defs>
    <g id="Blue" stroke="none" stroke-width="1" fill="none" fill-rule="evenodd" transform="translate(-1078.000000, -614.000000)">
        <g id="standard/ar/wfp-logo-standard-blue-ar" transform="translate(1078.000000, 614.000000)" fill="#0A6EB4">
            <path d="M5.746,22.486 L5.383,20.599 C5.208,20.871 4.906,21.221 4.476,21.65 C4.262,21.75 4.006,21.936 3.711,22.207 L5.746,22.486 Z M9.433,25.747 L7.358,25.747 C6.928,25.747 6.598,25.475 6.37,24.932 C6.236,24.474 6.101,24.017 5.968,23.559 C5.873,23.63 5.672,23.966 5.363,24.567 C5.081,25.082 4.853,25.318 4.678,25.276 L1.032,24.589 C1.326,23.33 1.596,22.465 1.837,21.994 C2.079,21.521 2.455,21.114 2.966,20.77 C3.69,20.327 4.423,19.883 5.161,19.439 C5.067,19.211 5,18.996 4.96,18.797 L6.169,16.587 L6.269,16.651 C6.39,17.152 6.579,18.228 6.834,19.876 C7.062,21.294 7.27,22.304 7.458,22.906 C7.566,23.236 7.881,23.4 8.405,23.4 L9.433,23.4 L9.433,25.747 Z M5.807,16.096 C5.712,16.267 5.518,16.538 5.222,16.91 C4.886,17.324 4.678,17.531 4.597,17.531 C4.423,17.531 3.872,17.231 2.946,16.629 C2.811,16.73 2.502,17.016 2.018,17.487 C1.616,17.359 1.059,17.053 0.347,16.567 C0.467,16.396 0.863,15.918 1.535,15.132 C2.314,15.73 2.818,16.029 3.046,16.029 C3.033,16.029 3.389,15.73 4.114,15.132 L5.807,16.096 Z" id="Fill-1"></path>
            <path d="M8.972,28.676 C9.295,28.186 9.658,27.703 10.061,27.228 C10.854,27.828 11.331,28.128 11.493,28.128 C11.587,28.128 11.758,27.98 12.007,27.687 C12.255,27.391 12.42,27.222 12.501,27.18 L14.09,28.237 C13.673,28.921 13.284,29.413 12.922,29.713 L11.411,28.772 C11.209,28.961 10.907,29.275 10.504,29.713 C9.806,29.324 9.295,28.978 8.972,28.676 M15.016,22.396 C15.016,22.984 14.868,24.101 14.573,25.747 L8.73,25.747 L8.73,23.4 L13.566,23.4 C13.311,22.625 12.895,21.821 12.317,20.987 L13.465,18.875 C14.498,20.193 15.016,21.367 15.016,22.396" id="Fill-2"></path>
            <path d="M19.719,16.691 C19.572,16.892 19.343,17.128 19.035,17.398 C18.671,17.713 18.41,17.87 18.248,17.87 C17.967,17.87 17.496,17.491 16.838,16.735 C16.919,16.578 17.144,16.3 17.513,15.9 C17.882,15.5 18.127,15.3 18.248,15.3 C18.356,15.3 18.847,15.764 19.719,16.691 M24.112,25.747 L21.875,25.747 C21.741,25.689 21.619,25.497 21.512,25.167 C21.431,24.911 21.351,24.661 21.27,24.417 C21.217,24.474 21.069,24.725 20.827,25.167 C20.64,25.555 20.491,25.747 20.384,25.747 L16.113,25.747 C15.818,25.747 15.67,25.532 15.67,25.103 C15.67,24.588 15.757,23.91 15.931,23.066 C16.16,22.007 16.422,21.456 16.718,21.414 C16.69,21.7 16.678,22.028 16.678,22.4 C16.678,23.031 16.771,23.345 16.959,23.345 L20.928,23.345 L20.969,23.152 L20.163,19.676 C20.257,19.304 20.425,18.882 20.666,18.41 C20.881,17.995 21.096,17.588 21.311,17.187 C21.835,19.531 22.271,21.307 22.62,22.514 C22.795,23.068 22.95,23.345 23.084,23.345 L24.112,23.345 L24.112,25.747" id="Fill-3"></path>
            <path d="M29.368,16.892 C29.355,17.135 28.852,17.555 27.857,18.153 C27.736,18.124 27.461,17.933 27.032,17.577 C26.602,17.221 26.387,16.992 26.387,16.892 C26.387,16.765 26.87,16.28 27.837,15.44 C27.985,15.469 28.495,15.953 29.368,16.892 M32.935,23.4 L31.625,25.747 L23.325,25.747 L23.325,23.4 L24.815,23.4 C24.802,23.1 24.842,22.684 24.936,22.154 C25.272,21.479 25.829,20.813 26.609,20.154 C27.468,19.45 28.22,19.099 28.865,19.099 C29.536,19.099 30.191,19.45 30.829,20.15 C31.467,20.85 31.772,21.557 31.746,22.271 C30.981,21.554 29.979,21.194 28.744,21.194 C27.588,21.194 26.843,21.349 26.507,21.658 C27.112,22.378 27.764,22.959 28.462,23.4 L32.935,23.4" id="Fill-4"></path>
            <path d="M36.532,14.269 C36.465,14.441 36.324,14.664 36.109,14.939 C35.558,14.925 34.826,15.213 33.914,15.803 C33.927,15.673 34.034,15.515 34.235,15.328 C34.396,15.199 34.557,15.07 34.719,14.94 C34.544,14.883 34.369,14.825 34.195,14.767 C33.954,14.667 33.833,14.574 33.833,14.488 C33.833,14.099 33.984,13.733 34.285,13.387 C34.588,13.043 34.92,12.87 35.283,12.87 C35.404,12.87 35.535,12.91 35.676,12.988 C35.817,13.068 35.888,13.172 35.888,13.302 C35.888,13.287 35.76,13.474 35.505,13.862 C35.101,13.629 34.914,13.512 34.94,13.512 C34.873,13.512 34.692,13.606 34.396,13.793 C34.531,14.11 35.243,14.269 36.532,14.269" id="Fill-5"></path>
            <path d="M40.032,23.68 C39.936,23.467 39.764,23.17 39.517,22.786 C39.324,22.999 39.015,23.284 38.589,23.639 C38.946,23.666 39.345,23.68 39.785,23.68 L40.032,23.68 Z M43.093,16.988 C43.105,17.045 43.116,17.142 43.123,17.278 C43.129,17.414 43.133,17.519 43.133,17.591 C43.133,17.819 43.039,18.085 42.852,18.387 C42.692,18.616 42.531,18.853 42.37,19.097 C42.156,19.039 41.968,18.982 41.808,18.925 C41.581,19.984 41.152,20.878 40.523,21.607 C41.007,22.622 41.248,23.437 41.248,24.052 C41.248,24.41 41.195,24.975 41.087,25.747 L35.808,25.747 C35.97,25.232 36.239,24.468 36.614,23.452 C37.152,23.251 37.575,23.066 37.884,22.895 C38.515,22.579 38.844,22.293 38.871,22.036 C38.764,21.85 38.522,21.549 38.145,21.135 C37.73,20.663 37.46,20.427 37.34,20.427 C37.299,20.427 37.215,20.523 37.088,20.716 C36.96,20.909 36.869,21.014 36.816,21.028 C36.225,20.7 35.365,20.193 34.237,19.508 C33.78,19.193 33.552,18.78 33.552,18.265 C33.552,17.709 33.834,16.888 34.398,15.803 L34.458,15.803 C35.103,15.789 36.117,16.445 37.501,17.772 C38.682,18.929 39.522,19.913 40.019,20.727 C40.355,20.211 40.523,19.595 40.523,18.877 C40.523,18.605 40.441,18.305 40.278,17.975 C40.114,17.645 40.032,17.502 40.032,17.545 C40.032,17.344 40.518,16.578 41.49,15.244 C41.476,15.316 41.47,15.38 41.47,15.438 C41.47,15.782 41.677,16.098 42.091,16.385 C42.425,16.586 42.759,16.787 43.093,16.988 Z" id="Fill-6"></path>
            <path d="M46.32,22.266 C46.32,23.726 45.931,24.942 45.152,25.914 L44.245,19.004 C44.5,18.219 44.997,17.281 45.737,16.194 C46.126,18.983 46.32,21.008 46.32,22.266" id="Fill-7"></path>
            <path d="M55.518,26.283 C54.954,27.269 54.578,27.764 54.391,27.764 C54.324,27.764 54.085,27.577 53.676,27.205 C53.267,26.833 53.061,26.619 53.061,26.562 C53.061,26.433 53.208,26.171 53.503,25.779 C53.8,25.386 54.014,25.188 54.148,25.188 C54.27,25.188 54.525,25.342 54.914,25.649 C55.304,25.956 55.505,26.168 55.518,26.283 M59.307,29.329 C58.62,30.609 57.209,31.25 55.071,31.25 C53.849,31.25 52.847,30.965 52.067,30.393 C51.166,29.751 50.716,28.809 50.716,27.566 C50.716,26.582 50.955,25.573 51.433,24.537 C51.911,23.502 52.52,22.678 53.263,22.063 C53.1,21.95 52.685,21.892 52.013,21.892 C51.678,21.892 51.385,21.981 51.136,22.158 C50.889,22.336 50.636,22.516 50.381,22.701 C50.649,21.632 50.831,20.984 50.925,20.755 C51.247,19.987 51.704,19.602 52.296,19.602 C52.685,19.602 53.263,19.695 54.027,19.881 C54.793,20.068 55.324,20.161 55.62,20.161 L58.5,20.161 C58.326,20.632 58.037,21.34 57.634,22.283 C57.365,22.298 56.956,22.334 56.406,22.393 C56.325,22.467 56.285,22.561 56.285,22.678 C56.285,23.16 56.72,23.4 57.591,23.4 L59.18,23.4 L59.18,25.747 L57.001,25.747 C56.45,25.747 56.009,25.573 55.68,25.222 C55.351,24.87 55.186,24.403 55.186,23.816 C55.186,23.645 55.237,23.416 55.342,23.13 C55.445,22.844 55.504,22.643 55.518,22.53 C55.356,22.557 55.12,22.615 54.81,22.701 C54.094,22.987 53.44,23.458 52.846,24.116 C52.172,24.86 51.834,25.597 51.834,26.326 C51.834,28.343 53.893,29.351 58.014,29.351 C58.31,29.351 58.742,29.344 59.307,29.329" id="Fill-8"></path>
            <path d="M64.1,22.615 C64.045,22.357 63.912,22.015 63.697,21.585 L63.576,21.564 C63.32,21.564 63.011,21.692 62.649,21.95 L64.1,22.615 Z M66.134,23.214 C66.134,23.5 65.967,23.93 65.631,24.502 C65.375,24.917 65.127,25.331 64.885,25.747 C64.858,25.604 63.757,25.103 61.581,24.245 C61.46,24.317 61.291,24.585 61.076,25.05 C60.862,25.515 60.68,25.747 60.534,25.747 L58.835,25.747 L58.835,23.4 L60.734,23.4 C60.829,23.315 61.051,22.833 61.399,21.957 C61.614,21.411 62.095,20.854 62.84,20.286 C63.585,19.719 64.227,19.434 64.764,19.434 C65.047,19.434 65.227,19.549 65.309,19.778 C65.348,20.02 65.396,20.265 65.45,20.508 C65.597,20.966 65.738,21.417 65.872,21.861 C66.047,22.404 66.134,22.856 66.134,23.214 Z" id="Fill-9"></path>
            <path d="M71.337,25.747 L68.264,25.747 L67.566,17.336 C67.566,17.236 67.766,16.907 68.17,16.349 C68.547,15.834 68.802,15.513 68.936,15.384 C69.017,16.688 69.098,17.992 69.179,19.295 C69.3,21.044 69.448,22.297 69.622,23.057 C69.662,23.286 69.877,23.4 70.268,23.4 L71.337,23.4 L71.337,25.747" id="Fill-10"></path>
            <path d="M74.349,16.773 C74.282,16.932 73.831,17.491 72.998,18.453 C72.569,18.181 71.904,17.844 71.005,17.441 L72.557,15.719 C72.933,15.991 73.53,16.344 74.349,16.773 M75.481,22.593 C75.481,23.151 75.332,24.202 75.038,25.747 L70.482,25.747 L70.482,23.401 L74.067,23.401 C73.785,22.584 73.368,21.772 72.817,20.969 L73.968,18.882 C74.479,19.612 74.835,20.183 75.037,20.599 C75.332,21.257 75.481,21.921 75.481,22.593" id="Fill-11"></path>
            <path d="M83.717,25.747 L82.245,25.747 C82.057,25.747 81.795,25.662 81.459,25.489 L81.358,25.618 C80.942,26.391 80.525,27.17 80.109,27.956 C79.49,28.886 78.812,29.35 78.072,29.35 C77.575,29.35 76.852,29.1 75.905,28.6 C74.958,28.099 74.303,27.634 73.94,27.205 L73.94,26.927 C73.94,26.897 73.974,26.883 74.041,26.883 C74.001,26.883 74.223,27.025 74.704,27.308 C75.188,27.589 75.617,27.73 75.993,27.73 C76.569,27.73 77.414,27.333 78.528,26.539 C79.64,25.747 80.197,25.099 80.197,24.599 C80.197,24.355 80.004,23.966 79.617,23.431 C79.231,22.895 79.037,22.612 79.037,22.583 C79.037,22.497 79.202,22.168 79.532,21.596 C79.861,21.024 80.08,20.667 80.186,20.523 C80.59,21.173 80.994,21.822 81.397,22.47 C81.855,23.091 82.5,23.4 83.334,23.4 L83.717,23.4 L83.717,25.747" id="Fill-12"></path>
            <path d="M87.08,28.477 C87.08,28.707 86.557,29.137 85.511,29.769 C85.39,29.755 85.104,29.554 84.655,29.167 C84.205,28.779 83.98,28.542 83.98,28.456 C83.98,28.369 84.212,28.09 84.675,27.616 C85.138,27.142 85.41,26.905 85.49,26.905 C85.571,26.905 85.856,27.142 86.346,27.616 C86.836,28.09 87.08,28.376 87.08,28.477 M88.729,22.507 C88.729,24.666 88.528,25.747 88.125,25.747 L83.086,25.747 L83.086,23.401 L87.229,23.401 C87.241,23.401 87.248,23.38 87.248,23.336 C87.248,23.035 87.099,22.612 86.801,22.066 C86.503,21.52 86.232,21.141 85.988,20.925 L87.176,18.708 C87.647,19.123 88.023,19.688 88.306,20.403 C88.587,21.119 88.729,21.82 88.729,22.507" id="Fill-13"></path>
            <path d="M9.571,45.967 C9.571,46.038 9.357,46.26 8.93,46.631 C8.569,46.932 8.298,47.146 8.118,47.275 L6.247,46.415 C6.017,46.586 5.68,46.845 5.237,47.187 C5.007,47.173 4.367,46.894 3.316,46.351 C3.398,46.193 3.611,45.958 3.956,45.643 C4.203,45.429 4.457,45.214 4.72,44.999 C5.655,45.571 6.213,45.857 6.394,45.857 C6.443,45.857 6.641,45.707 6.985,45.407 C7.33,45.106 7.535,44.956 7.601,44.956 L9.571,45.967 Z M28.494,41.717 L12.673,41.717 C12.377,42.158 12.074,42.601 11.762,43.043 C11.384,43.556 10.982,43.926 10.556,44.154 C10.375,44.254 10.03,44.39 9.521,44.561 C9.012,44.732 8.667,44.817 8.487,44.817 C8.536,44.817 8.232,44.678 7.576,44.398 C7.378,44.598 7.181,44.797 6.985,44.995 C6.804,45.137 6.509,45.209 6.099,45.209 C5.917,45.209 5.68,45.101 5.385,44.89 C5.187,44.719 4.982,44.555 4.769,44.398 C4.162,44.828 3.874,45.043 3.907,45.043 C3.808,45.043 3.554,44.971 3.144,44.828 C1.846,44.427 1.199,43.64 1.199,42.466 C1.199,41.607 1.584,40.64 2.356,39.566 C3.078,38.55 3.882,37.777 4.769,37.247 L5.04,37.247 C5.072,37.276 5.089,37.326 5.089,37.398 C5.089,37.483 4.901,37.712 4.525,38.083 C4.05,38.555 3.707,38.953 3.494,39.282 C3.118,39.824 2.931,40.368 2.931,40.909 C2.931,41.639 3.365,42.194 4.234,42.58 C4.923,42.88 5.726,43.03 6.644,43.03 C7.776,43.03 9.121,42.822 10.679,42.408 C10.252,41.922 9.62,41.63 8.783,41.529 C8.044,41.473 7.305,41.415 6.566,41.357 C6.632,41.143 7.116,40.473 8.019,39.343 L28.494,39.343 L28.494,41.717 Z" id="Fill-14"></path>
            <path d="M33.973,39.343 L33.973,38.876 C33.973,38.536 33.735,38.365 33.26,38.365 C32.898,38.365 32.611,38.438 32.397,38.587 C32.66,38.735 32.914,38.884 33.16,39.032 C33.521,39.224 33.793,39.327 33.973,39.343 M37.766,41.718 L35.943,41.718 C35.845,41.802 35.726,41.982 35.587,42.258 C35.447,42.534 35.278,42.708 35.081,42.778 L30.305,40.473 C30.222,40.53 30.091,40.78 29.911,41.224 C29.763,41.553 29.533,41.718 29.221,41.718 L27.522,41.718 L27.522,39.343 L30.058,39.343 C30.173,39.272 30.366,39.013 30.637,38.564 C30.908,38.116 31.125,37.82 31.289,37.679 C31.717,37.308 32.254,36.981 32.902,36.697 C33.551,36.413 34.145,36.27 34.687,36.27 C34.951,36.27 35.126,36.303 35.217,36.366 C35.307,36.431 35.36,36.555 35.376,36.74 C35.36,37.223 35.5,37.75 35.796,38.318 C36.14,39.002 36.567,39.343 37.076,39.343 L37.766,39.343 L37.766,41.718" id="Fill-15"></path>
            <path d="M46.994,33.789 L45.073,35.954 L45.365,38.846 C45.398,39.032 45.324,39.489 45.144,40.217 C44.963,40.945 44.816,41.375 44.701,41.502 C44.668,41.546 44.537,41.617 44.307,41.717 L37.183,41.717 L37.183,39.343 L43.615,39.343 C43.664,39.27 43.689,39.2 43.689,39.129 C43.689,38.729 43.582,37.935 43.37,36.745 C43.157,35.557 42.977,34.804 42.83,34.489 C42.585,34.333 42.331,34.112 42.069,33.828 C42.709,32.658 43.292,31.825 43.818,31.326 L43.966,31.433 C43.982,31.719 44.031,31.954 44.113,32.141 C44.195,32.326 44.63,32.627 45.418,33.04 C46.026,33.368 46.551,33.618 46.994,33.789" id="Fill-16"></path>
            <path d="M61.079,41.717 L49.291,41.717 L48.425,33.307 C48.425,33.206 48.671,32.877 49.163,32.319 C49.624,31.805 49.936,31.482 50.101,31.354 C50.199,32.653 50.298,33.953 50.396,35.252 C50.544,36.994 50.724,38.243 50.939,39.001 C50.988,39.228 51.25,39.343 51.727,39.343 L61.079,39.343 L61.079,41.717" id="Fill-17"></path>
            <path d="M79.154,41.717 L66.689,41.717 C66.542,41.476 66.304,41.123 65.976,40.655 C65.812,40.896 65.548,41.249 65.188,41.717 L60.78,41.717 L60.78,39.343 L64.916,39.343 C64.409,38.728 63.768,38.421 62.995,38.421 C62.946,38.421 62.65,38.454 62.108,38.52 C62.667,37.434 63.094,36.748 63.39,36.462 C63.932,35.962 64.776,35.711 65.926,35.711 C66.615,35.711 67.296,35.909 67.969,36.306 C68.692,36.745 69.054,37.255 69.054,37.835 C69.054,38.033 68.946,38.288 68.733,38.599 C68.569,38.84 68.397,39.088 68.215,39.343 L79.154,39.343 L79.154,41.717" id="Fill-18"></path>
            <path d="M84.569,33.789 L82.648,35.954 L82.94,38.846 C82.973,39.032 82.899,39.489 82.719,40.217 C82.538,40.945 82.391,41.375 82.275,41.502 C82.243,41.546 82.112,41.617 81.881,41.717 L78.61,41.717 L78.61,39.343 L81.19,39.343 C81.239,39.27 81.264,39.2 81.264,39.129 C81.264,38.729 81.157,37.935 80.945,36.745 C80.732,35.557 80.552,34.804 80.405,34.489 C80.16,34.333 79.906,34.112 79.644,33.828 C80.284,32.658 80.867,31.825 81.392,31.326 L81.54,31.433 C81.557,31.719 81.606,31.954 81.687,32.141 C81.769,32.326 82.204,32.627 82.994,33.04 C83.601,33.368 84.125,33.618 84.569,33.789" id="Fill-19"></path>
            <path d="M89.146,38.237 C89.146,39.696 88.67,40.912 87.718,41.885 L86.61,34.974 C86.921,34.189 87.529,33.252 88.432,32.164 C88.909,34.954 89.146,36.978 89.146,38.237" id="Fill-20"></path>
            <path d="M130.146,4.664 L130.694,4.664 C131.206,4.664 131.589,4.563 131.844,4.36 C132.098,4.158 132.225,3.863 132.225,3.477 C132.225,3.087 132.118,2.799 131.905,2.612 C131.692,2.426 131.358,2.332 130.904,2.332 L130.146,2.332 L130.146,4.664 Z M133.906,3.418 C133.906,4.263 133.642,4.909 133.114,5.356 C132.585,5.805 131.835,6.028 130.861,6.028 L130.146,6.028 L130.146,8.821 L128.481,8.821 L128.481,0.969 L130.989,0.969 C131.942,0.969 132.666,1.173 133.162,1.584 C133.658,1.994 133.906,2.605 133.906,3.418 Z M124.37,8.821 L122.732,8.821 L122.732,0.969 L127.233,0.969 L127.233,2.332 L124.37,2.332 L124.37,4.358 L127.034,4.358 L127.034,5.717 L124.37,5.717 L124.37,8.821 Z M119.845,8.821 L117.949,8.821 L116.885,4.696 C116.846,4.549 116.779,4.246 116.684,3.786 C116.589,3.325 116.534,3.016 116.52,2.859 C116.498,3.053 116.445,3.364 116.359,3.791 C116.273,4.219 116.206,4.525 116.16,4.707 L115.102,8.821 L113.212,8.821 L111.208,0.969 L112.847,0.969 L113.85,5.254 C114.026,6.046 114.153,6.732 114.232,7.312 C114.253,7.108 114.303,6.792 114.38,6.364 C114.456,5.935 114.529,5.603 114.598,5.368 L115.741,0.969 L117.315,0.969 L118.459,5.368 C118.509,5.564 118.572,5.866 118.647,6.27 C118.722,6.675 118.78,7.022 118.819,7.312 C118.854,7.032 118.912,6.684 118.991,6.267 C119.07,5.85 119.141,5.513 119.205,5.254 L120.204,0.969 L121.843,0.969 L119.845,8.821 Z M115.772,36.134 C112.721,36.134 110.763,36.858 110.228,37.083 C110.196,37.097 110.171,37.052 110.195,37.027 C113.548,33.542 117.473,33.734 118.417,33.734 C119.373,33.734 129.579,33.734 129.579,33.734 C130.141,33.734 130.598,34.271 130.598,34.935 C130.598,35.597 130.141,36.134 129.579,36.134 C129.579,36.134 118.378,36.134 115.772,36.134 Z M118.286,39.219 C114.999,39.219 114.041,37.351 109.065,38.584 C109.031,38.593 109.007,38.546 109.036,38.526 C111.81,36.623 114.828,36.796 116.048,36.796 C117.003,36.796 129.579,36.796 129.579,36.796 C130.141,36.796 130.598,37.333 130.598,37.995 C130.598,38.657 130.141,39.194 129.579,39.194 C129.579,39.194 120.89,39.219 118.286,39.219 Z M118.52,42.256 C115.145,42.256 114.875,39.766 109.873,39.205 C109.838,39.201 109.834,39.149 109.869,39.141 C113.978,38.113 115.507,39.856 117.906,39.856 C118.861,39.856 129.579,39.856 129.579,39.856 C130.141,39.856 130.598,40.393 130.598,41.056 C130.598,41.719 130.141,42.256 129.579,42.256 C129.579,42.256 121.126,42.256 118.52,42.256 Z M117.787,33.073 C115.071,33.073 112.819,34.258 112.292,34.557 C112.263,34.573 112.233,34.538 112.252,34.511 C112.693,33.862 115.073,30.674 119.163,30.674 C120.118,30.674 129.579,30.674 129.579,30.674 C130.141,30.674 130.598,31.211 130.598,31.874 C130.598,32.536 130.141,33.073 129.579,33.073 C129.579,33.073 120.393,33.073 117.787,33.073 Z M132.728,26.448 C132.623,26.342 132.466,26.265 132.285,26.243 C132.151,26.225 132.03,26.246 131.923,26.286 C131.97,26.187 132.009,26.081 132.025,25.956 C132.051,25.763 132.015,25.581 131.941,25.444 C131.605,24.708 132.566,23.235 132.445,23.169 C132.329,23.105 131.784,24.729 131.253,25.385 C131.151,25.505 131.078,25.677 131.054,25.874 C131.036,26.068 131.067,26.251 131.141,26.387 C131.214,26.519 131.327,26.613 131.458,26.621 C131.495,26.626 131.532,26.623 131.566,26.615 C131.558,26.634 131.55,26.655 131.547,26.674 C131.526,26.817 131.581,26.953 131.689,27.062 C131.794,27.173 131.949,27.247 132.13,27.269 C132.316,27.293 132.49,27.256 132.623,27.176 C133.343,26.783 134.833,26.395 134.802,26.257 C134.773,26.119 133.319,26.972 132.728,26.448 Z M133.828,25.374 C133.728,25.266 133.586,25.191 133.421,25.175 C133.327,25.17 133.24,25.186 133.154,25.218 C133.166,25.172 133.185,25.133 133.19,25.087 C133.209,24.912 133.166,24.75 133.088,24.625 C132.723,23.948 133.676,22.669 133.553,22.606 C133.429,22.542 132.907,23.974 132.377,24.54 C132.272,24.641 132.198,24.79 132.18,24.965 C132.164,25.141 132.203,25.306 132.28,25.43 C132.364,25.553 132.479,25.64 132.618,25.659 C132.679,25.664 132.742,25.653 132.797,25.638 C132.794,25.645 132.786,25.656 132.789,25.664 C132.776,25.813 132.83,25.956 132.928,26.062 C133.028,26.169 133.172,26.243 133.332,26.257 C133.497,26.272 133.649,26.227 133.765,26.14 C134.384,25.693 135.802,25.428 135.765,25.284 C135.731,25.146 134.374,25.895 133.828,25.374 Z M134.791,24.381 C134.689,24.304 134.55,24.261 134.403,24.277 C134.332,24.28 134.266,24.301 134.206,24.328 C134.216,24.298 134.235,24.274 134.245,24.245 C134.285,24.094 134.271,23.939 134.222,23.815 C133.991,23.15 135.014,22.167 134.914,22.087 C134.815,22.013 134.151,23.204 133.605,23.623 C133.5,23.701 133.416,23.823 133.374,23.977 C133.329,24.125 133.343,24.282 133.395,24.405 C133.45,24.53 133.539,24.622 133.66,24.66 C133.752,24.689 133.844,24.67 133.931,24.633 C133.912,24.683 133.901,24.742 133.907,24.803 C133.92,24.939 133.985,25.053 134.093,25.133 C134.195,25.212 134.334,25.252 134.479,25.242 C134.628,25.226 134.757,25.162 134.846,25.066 C135.337,24.569 136.56,24.104 136.51,23.985 C136.457,23.865 135.358,24.75 134.791,24.381 Z M136.686,22.247 C136.583,22.096 135.728,23.034 135.096,23.124 C134.977,23.14 134.846,23.198 134.736,23.302 C134.618,23.408 134.542,23.538 134.516,23.663 C134.487,23.786 134.505,23.905 134.571,23.987 C134.641,24.073 134.749,24.11 134.87,24.096 C134.991,24.083 135.117,24.025 135.235,23.915 C135.345,23.812 135.421,23.682 135.45,23.559 C135.641,22.916 136.762,22.345 136.686,22.247 Z M118.992,23.517 C118.966,23.61 118.782,24.333 118.782,24.333 C118.73,24.362 118.509,24.314 118.452,24.309 C118.029,24.269 117.652,23.902 117.814,23.464 C117.946,23.106 118.218,23.068 118.562,23.052 C118.704,23.046 118.962,23.08 119.09,23.169 C119.09,23.169 119.039,23.334 118.992,23.517 Z M118.507,25.699 C118.494,25.781 118.48,25.863 118.467,25.946 C118.205,25.781 118.05,25.404 118.176,25.106 C118.273,24.88 118.514,24.821 118.69,24.811 C118.627,25.106 118.564,25.401 118.507,25.699 Z M118.129,28.395 C118.096,28.58 117.846,28.605 117.675,28.656 C117.179,28.805 116.709,28.741 116.557,28.148 C116.391,27.514 116.872,27.247 117.386,27.123 C117.667,27.057 117.927,27.112 118.119,27.349 C118.166,27.408 118.224,27.461 118.236,27.517 C118.236,27.517 118.16,28.221 118.129,28.395 Z M116.567,25.273 C116.951,25.181 117.347,25.037 117.641,25.414 C117.951,25.81 117.848,26.445 117.349,26.613 C117.021,26.724 116.625,26.82 116.344,26.552 C115.977,26.201 116.003,25.404 116.567,25.273 Z M116.192,23.217 C116.596,23.119 117.014,22.97 117.323,23.366 C117.646,23.78 117.538,24.45 117.016,24.625 C116.67,24.739 116.252,24.84 115.958,24.558 C115.573,24.192 115.601,23.355 116.192,23.217 Z M115.817,27.662 C115.712,28.032 115.407,28.087 115.087,28.164 C114.877,27.907 114.313,27.255 114.304,27.178 C114.3,27.153 114.304,27.124 114.315,27.088 C114.342,27.011 114.431,26.937 114.496,26.894 C114.688,26.769 115.098,26.677 115.318,26.722 C115.714,26.807 115.922,27.29 115.817,27.662 Z M113.811,25.763 C113.523,24.739 115.239,24.293 115.504,25.297 C115.777,26.329 114.045,26.767 113.811,25.763 Z M113.56,23.719 C113.266,22.702 114.99,22.255 115.255,23.254 C115.528,24.287 113.793,24.726 113.56,23.719 Z M113.318,21.71 C113.037,20.762 114.657,20.342 114.903,21.277 C115.158,22.239 113.538,22.654 113.318,21.71 Z M113.153,25.577 C113.073,25.624 113.043,25.649 113.017,25.649 L112.246,24.811 C112.256,24.787 112.494,24.615 112.573,24.569 C113.213,24.213 113.741,25.231 113.153,25.577 Z M111.691,23.69 C111.31,22.85 112.696,21.939 113.116,22.845 C113.502,23.679 112.116,24.606 111.691,23.69 Z M112.856,21.03 C113.295,21.809 111.974,22.678 111.597,21.84 C111.261,21.118 112.434,20.275 112.856,21.03 Z M111.749,19.215 C111.943,19.043 112.169,18.95 112.4,19.061 C112.77,19.239 112.78,19.794 112.457,20.015 C112.31,20.116 112.061,20.241 111.88,20.196 C111.484,20.095 111.408,19.516 111.749,19.215 Z M111.799,17.546 C111.959,17.438 112.172,17.341 112.355,17.416 C112.689,17.553 112.678,18.038 112.408,18.232 C112.284,18.32 112.061,18.429 111.911,18.389 C111.573,18.304 111.49,17.755 111.799,17.546 Z M112.686,15.168 C112.885,15.061 113.171,15.016 113.35,15.216 C113.559,15.451 113.492,15.809 113.216,15.95 C113.003,16.056 112.717,16.096 112.549,15.899 C112.366,15.687 112.403,15.321 112.686,15.168 Z M112.528,16.975 C112.368,16.38 113.371,16.099 113.534,16.704 C113.715,17.291 112.688,17.584 112.528,16.975 Z M114.145,18.014 C114.379,18.657 113.289,19.021 113.077,18.386 C112.859,17.743 113.953,17.376 114.145,18.014 Z M114.282,14.881 C114.489,14.798 114.756,14.708 114.987,14.881 C115.276,15.097 115.213,15.583 114.882,15.734 C114.664,15.833 114.387,15.899 114.192,15.726 C113.946,15.506 113.932,15.021 114.282,14.881 Z M114.09,20.262 C113.796,20.331 113.489,20.448 113.245,20.196 C112.932,19.874 113.022,19.311 113.444,19.157 C113.717,19.053 114.063,18.995 114.286,19.223 C114.573,19.516 114.541,20.153 114.09,20.262 Z M114.095,16.978 C113.906,16.34 114.945,16.013 115.145,16.632 C115.349,17.267 114.273,17.605 114.095,16.978 Z M115.835,18.147 C116.079,18.875 114.848,19.263 114.622,18.546 C114.394,17.812 115.633,17.424 115.835,18.147 Z M115.901,16.197 C116.118,16.139 116.347,16.16 116.512,16.337 C116.764,16.608 116.678,17.071 116.305,17.14 C116.129,17.172 115.859,17.159 115.722,17.039 C115.475,16.821 115.487,16.308 115.901,16.197 Z M116.951,17.725 C117.347,17.725 117.546,18.307 117.315,18.596 C117.176,18.771 116.877,18.782 116.672,18.75 C116.294,18.692 116.053,18.205 116.307,17.876 C116.462,17.677 116.727,17.725 116.951,17.725 Z M115.048,20.121 C114.804,19.284 116.226,18.91 116.444,19.741 C116.664,20.586 115.234,20.958 115.048,20.121 Z M115.919,21.192 C116.307,21.152 116.712,21.062 116.951,21.469 C117.2,21.899 117.014,22.497 116.51,22.598 C116.179,22.667 115.777,22.699 115.541,22.406 C115.231,22.019 115.355,21.245 115.919,21.192 Z M117.894,19.328 C118.373,19.526 118.536,20.092 118.197,20.408 C118.016,20.573 117.685,20.541 117.462,20.496 C117.016,20.408 116.724,19.738 117.116,19.42 C117.316,19.257 117.676,19.237 117.894,19.328 Z M118.648,21.346 C118.95,21.716 118.837,22.369 118.31,22.401 C118.035,22.417 117.675,22.385 117.489,22.159 C117.189,21.798 117.302,21.12 117.829,21.102 C118.105,21.091 118.462,21.12 118.648,21.346 Z M120.687,14.682 C120.659,14.64 120.606,14.616 120.554,14.632 C120.491,14.653 120.449,14.722 120.473,14.783 C121.677,18.02 120.139,19.614 119.496,21.88 C118.724,20.039 121.281,18.307 119.963,14.951 C119.945,14.908 119.911,14.873 119.864,14.866 C119.798,14.857 119.735,14.884 119.724,14.972 C119.69,15.208 119.536,17.068 118.026,18.158 C117.871,17.802 117.643,17.43 117.323,17.137 C117.184,16.51 116.775,15.649 115.914,15.395 C115.785,15.07 115.525,14.605 115.027,14.355 C114.557,14.121 114.014,14.142 113.41,14.416 C112.681,14.501 112.179,14.786 111.914,15.261 C111.665,15.71 111.709,16.199 111.793,16.532 C111.18,17.188 111.15,18.16 111.166,18.541 C110.802,19.417 111.006,20.44 111.121,20.865 C110.686,22.056 111.111,23.211 111.282,23.594 C111.282,23.698 111.287,23.796 111.292,23.894 C109.865,22.332 106.616,20.397 105.374,19.659 C105.316,19.624 105.243,19.632 105.193,19.68 C105.13,19.739 105.127,19.834 105.185,19.898 C107.954,22.598 110.424,25.93 112.796,32.844 C113.98,31.613 116.119,29.995 119.163,29.995 L122.724,29.995 C120.462,21.567 123.756,18.551 120.687,14.682 Z M137.523,19.04 C136.872,18.87 132.715,18.134 128.057,26.703 C128.737,23.512 130.802,19.651 131.369,18.53 L131.369,18.522 C131.403,18.458 131.385,18.375 131.327,18.33 C131.269,18.288 131.182,18.301 131.138,18.365 C128.059,23.498 126.978,26.456 126.341,29.995 L128.269,29.995 C128.598,26.583 132.907,18.546 137.499,19.143 L137.505,19.143 C137.531,19.149 137.555,19.127 137.557,19.104 C137.568,19.074 137.549,19.045 137.523,19.04 Z M128.262,47.272 L127.22,42.917 L125.446,42.917 C125.726,44.022 126.128,45.146 126.648,46.132 C126.682,46.19 126.745,46.225 126.807,46.215 C126.891,46.204 126.957,46.116 126.942,46.025 C126.821,45.103 126.677,44.214 126.54,43.326 C126.915,44.721 127.422,46.084 128.104,47.339 C128.122,47.378 128.162,47.396 128.199,47.384 C128.248,47.373 128.275,47.32 128.262,47.272 Z M130.054,45.295 C129.873,44.567 129.684,43.674 129.521,42.917 L128.847,42.917 C129.109,43.725 129.464,44.626 129.779,45.396 C129.81,45.471 129.881,45.508 129.949,45.489 C130.031,45.465 130.075,45.378 130.054,45.295 Z M130.28,47.856 L130.274,47.846 C130.057,47.237 129.755,46.692 129.516,46.108 C129.262,45.523 129.015,44.949 128.81,44.349 C128.64,43.9 128.458,43.385 128.319,42.917 L127.668,42.917 C127.852,43.462 128.091,44.049 128.314,44.575 C128.805,45.763 129.372,46.927 130.094,47.968 C130.12,48.006 130.17,48.021 130.217,48.003 C130.274,47.981 130.301,47.915 130.28,47.856 Z M131.253,26.956 C131.203,26.881 131.083,26.865 131.025,26.926 C129.842,28.175 129.125,29.504 128.878,29.995 L129.582,29.995 C129.933,29.169 130.726,27.71 131.235,27.184 L131.24,27.179 C131.293,27.12 131.303,27.022 131.253,26.956 Z M125.9,20.911 C126.551,19.842 127.516,19.024 128.335,18.036 C128.364,17.998 128.361,17.94 128.327,17.908 C128.296,17.873 128.243,17.873 128.209,17.905 C128.023,18.104 127.828,18.291 127.629,18.476 C127.542,18.434 127.322,18.519 127.099,18.694 C126.923,18.833 126.797,18.987 126.753,19.098 C126.64,19.072 126.427,19.204 126.236,19.449 C126.078,19.654 125.986,19.869 125.989,20.002 C125.868,20.012 125.692,20.166 125.543,20.411 C125.446,20.573 125.383,20.73 125.362,20.86 C125.265,20.926 125.154,21.051 125.052,21.213 C124.918,21.437 124.85,21.662 124.871,21.792 C124.839,21.849 124.808,21.902 124.782,21.957 C124.787,21.912 124.792,21.87 124.797,21.825 C124.989,20.312 125.267,18.814 125.69,17.369 C126.115,15.928 126.624,14.475 127.498,13.308 L127.503,13.303 C127.548,13.239 127.542,13.152 127.487,13.093 C127.432,13.032 127.34,13.029 127.283,13.09 C126.981,13.412 126.726,13.771 126.498,14.14 C126.398,14.087 126.188,14.284 126.028,14.592 C125.881,14.87 125.829,15.128 125.884,15.227 C125.884,15.227 125.881,15.235 125.876,15.232 C125.771,15.187 125.577,15.421 125.459,15.734 C125.343,16.029 125.322,16.3 125.401,16.391 C125.396,16.396 125.396,16.399 125.393,16.404 C125.275,16.361 125.083,16.63 124.965,17.01 C124.868,17.331 124.858,17.61 124.929,17.722 C124.934,17.727 124.929,17.741 124.923,17.738 C124.803,17.695 124.619,17.972 124.511,18.349 C124.404,18.713 124.411,19.035 124.514,19.098 C124.396,19.085 124.23,19.361 124.144,19.736 C124.065,20.06 124.073,20.339 124.149,20.451 C124.034,20.485 123.905,20.756 123.839,21.107 C123.776,21.45 123.808,21.734 123.892,21.825 C123.785,21.88 123.674,22.159 123.635,22.505 C123.596,22.848 123.645,23.129 123.735,23.22 C123.645,23.32 123.558,23.559 123.522,23.847 C123.485,24.12 123.509,24.357 123.561,24.49 C123.464,24.572 123.391,24.849 123.388,25.181 C123.38,25.446 123.419,25.672 123.488,25.802 C123.435,25.935 123.399,26.129 123.399,26.344 C123.393,26.623 123.438,26.862 123.509,26.987 C123.488,27.968 123.501,29.012 123.554,29.995 L125.671,29.995 C125.687,29.23 125.737,28.395 125.813,27.638 C125.963,26.288 126.186,24.917 126.86,23.764 L126.866,23.756 C126.887,23.714 126.884,23.666 126.852,23.629 C126.813,23.594 126.758,23.594 126.721,23.637 C125.805,24.7 125.404,26.143 125.167,27.527 C125.125,27.798 125.091,28.071 125.06,28.343 C125.118,27.232 125.22,26.126 125.474,25.074 C125.766,23.793 126.349,22.574 127.458,21.891 C127.493,21.87 127.511,21.825 127.498,21.779 C127.485,21.729 127.432,21.7 127.388,21.713 C127.317,21.734 127.251,21.771 127.183,21.801 C127.109,21.71 126.839,21.777 126.561,21.954 C126.296,22.127 126.12,22.34 126.139,22.457 C126.139,22.462 126.125,22.47 126.125,22.459 C126.123,22.446 126.12,22.433 126.112,22.425 C126.013,22.343 125.745,22.529 125.519,22.845 C125.291,23.161 125.202,23.491 125.299,23.576 C125.304,23.578 125.301,23.586 125.296,23.586 C125.178,23.538 124.981,23.807 124.858,24.182 C124.768,24.444 124.747,24.686 124.779,24.825 C124.779,24.829 124.774,24.835 124.774,24.835 C124.682,25.138 124.606,25.444 124.535,25.754 C124.561,25.316 124.6,24.875 124.663,24.439 C124.85,23.185 125.228,21.957 125.9,20.911 Z M132.563,17.413 C132.429,17.35 132.253,17.334 132.078,17.376 C131.946,17.408 131.841,17.472 131.752,17.546 C131.765,17.435 131.765,17.323 131.734,17.201 C131.692,17.01 131.597,16.853 131.482,16.752 C130.91,16.181 131.303,14.461 131.169,14.44 C131.038,14.422 131.085,16.136 130.815,16.938 C130.76,17.087 130.749,17.275 130.797,17.467 C130.844,17.656 130.938,17.815 131.057,17.918 C131.169,18.017 131.306,18.062 131.434,18.022 C131.469,18.017 131.503,18.001 131.532,17.979 C131.532,18.001 131.532,18.022 131.534,18.043 C131.563,18.184 131.663,18.293 131.799,18.357 C131.938,18.423 132.109,18.439 132.287,18.394 C132.469,18.351 132.618,18.253 132.715,18.134 C133.253,17.509 134.518,16.619 134.442,16.5 C134.366,16.383 133.298,17.695 132.563,17.413 Z M135.009,15.248 C134.928,15.131 133.914,16.313 133.224,16.018 C133.093,15.952 132.933,15.933 132.773,15.976 C132.684,16.003 132.608,16.051 132.537,16.109 C132.534,16.061 132.537,16.018 132.526,15.976 C132.484,15.804 132.39,15.668 132.272,15.578 C131.694,15.073 132.148,13.537 132.012,13.521 C131.873,13.505 131.875,15.033 131.576,15.75 C131.513,15.883 131.495,16.048 131.539,16.218 C131.581,16.388 131.676,16.529 131.794,16.619 C131.912,16.704 132.051,16.744 132.188,16.712 C132.248,16.696 132.301,16.664 132.348,16.63 C132.348,16.638 132.345,16.648 132.348,16.656 C132.39,16.803 132.49,16.917 132.618,16.983 C132.749,17.044 132.91,17.065 133.064,17.02 C133.224,16.978 133.35,16.88 133.429,16.76 C133.857,16.12 135.09,15.37 135.009,15.248 Z M135.258,13.768 C135.169,13.675 134.442,14.892 133.784,14.746 C133.66,14.711 133.516,14.719 133.385,14.786 C133.319,14.812 133.264,14.857 133.217,14.903 C133.217,14.873 133.224,14.844 133.224,14.812 C133.209,14.658 133.145,14.515 133.054,14.419 C132.61,13.877 133.227,12.594 133.109,12.554 C132.988,12.519 132.778,13.869 132.411,14.456 C132.337,14.568 132.301,14.711 132.316,14.868 C132.327,15.025 132.392,15.166 132.484,15.264 C132.579,15.362 132.694,15.416 132.82,15.408 C132.915,15.405 132.996,15.354 133.064,15.288 C133.064,15.341 133.075,15.399 133.101,15.455 C133.159,15.578 133.261,15.662 133.387,15.697 C133.511,15.737 133.658,15.726 133.788,15.662 C133.922,15.596 134.019,15.49 134.072,15.37 C134.361,14.73 135.345,13.861 135.258,13.768 Z M134.823,12.078 C134.673,11.972 134.198,13.154 133.634,13.462 C133.529,13.518 133.429,13.619 133.358,13.757 C133.287,13.898 133.261,14.047 133.28,14.172 C133.292,14.297 133.35,14.403 133.442,14.456 C133.536,14.512 133.649,14.509 133.757,14.454 C133.867,14.398 133.964,14.297 134.038,14.156 C134.106,14.018 134.132,13.869 134.117,13.744 C134.075,13.075 134.928,12.144 134.823,12.078 Z M124.464,42.917 L118.52,42.917 C118.116,42.917 117.751,42.885 117.415,42.824 C117.417,42.824 117.417,42.826 117.417,42.826 C118.394,44.277 119.924,45.378 121.475,46.116 C121.714,47.439 122.013,48.664 122.12,48.76 C122.231,48.855 123.753,48.417 123.8,48.276 C123.845,48.136 123.178,45.869 123.178,45.869 C123.978,44.495 124.225,43.684 124.464,42.917 Z M139.418,53.086 C137.917,53.679 135.959,53.728 134.361,53.304 C130.7,52.164 126.635,50.004 122.732,51.797 C118.829,50.004 114.764,52.164 111.103,53.304 C109.505,53.728 107.547,53.679 106.046,53.086 C106.004,53.07 105.973,53.123 106.009,53.152 C108.169,54.823 111.195,55.592 113.919,54.608 C116.536,53.793 118.748,51.021 121.848,52.204 C119.394,53.163 117.1,54.933 115.328,56.603 L116.617,57.661 C118.226,55.788 120.036,53.915 122.086,52.775 C122.367,52.61 122.535,52.544 122.732,52.533 C122.929,52.544 123.097,52.61 123.375,52.775 C125.427,53.915 127.238,55.788 128.847,57.661 L130.136,56.603 C128.364,54.933 126.07,53.163 123.617,52.204 C126.716,51.021 128.928,53.793 131.545,54.608 C134.269,55.592 137.295,54.823 139.454,53.152 C139.489,53.123 139.46,53.07 139.418,53.086 Z M115.289,50.561 C111.463,49.634 110.416,46.047 107.217,44.49 C107.183,44.472 107.146,44.512 107.166,44.543 C108.174,46.201 108.72,48.741 111.625,50.307 C111.649,50.319 111.636,50.357 111.61,50.349 C107.442,49.547 105.692,50.662 101.325,48.688 C101.288,48.672 101.248,48.712 101.272,48.747 C102.708,50.83 106.114,52.254 110.781,51.861 C112.46,51.718 113.678,51.011 115.289,50.634 C115.328,50.623 115.328,50.569 115.289,50.561 Z M107.274,48.361 C105.82,46.456 106.235,42.389 102.952,38.666 C102.926,38.637 102.878,38.66 102.886,38.697 C103.514,41.439 103.327,44.554 105.043,46.836 C105.059,46.86 105.036,46.884 105.012,46.868 C101.626,44.203 98.146,43.4 96.598,41.243 C96.575,41.214 96.527,41.229 96.533,41.267 C96.916,44.059 102.28,48.412 107.245,48.42 C107.274,48.42 107.293,48.386 107.274,48.361 Z M102.191,43.297 C100.632,40.406 102.495,35.995 100.726,31.709 C100.708,31.664 100.64,31.675 100.64,31.723 C100.587,34.063 99.133,37.558 100.013,40.196 C100.023,40.22 99.992,40.233 99.978,40.212 C97.74,36.941 95.963,36.258 94.483,33.264 C94.462,33.219 94.393,33.231 94.391,33.279 C94.297,35.314 95.197,36.973 96.212,38.514 C97.837,40.599 99.929,42.25 102.141,43.35 C102.175,43.366 102.206,43.331 102.191,43.297 Z M101.133,25.691 C101.13,25.643 101.068,25.627 101.044,25.669 C99.855,27.893 97.737,29.663 97.669,32.6 C97.666,32.629 97.635,32.631 97.63,32.604 C97.244,30.338 95.32,27.798 95.236,24.516 C95.236,24.466 95.165,24.453 95.147,24.5 C93.564,28.768 95.84,32.814 98.262,36.157 C98.288,36.191 98.341,36.171 98.341,36.125 C98.241,32.583 101.311,29.939 101.133,25.691 Z M102.645,20.169 C101.521,21.729 98.994,22.832 98.071,25.082 C98.058,25.114 98.018,25.106 98.023,25.069 C98.391,22.547 97.417,19.619 98.33,16.269 C98.344,16.221 98.283,16.189 98.254,16.226 C96.874,17.924 96.407,19.914 96.33,22.064 C96.236,24.705 97.165,26.631 97.624,28.422 C97.635,28.465 97.69,28.462 97.701,28.419 C98.362,26.071 101.682,24.657 102.721,20.206 C102.734,20.159 102.674,20.129 102.645,20.169 Z M105.692,14.924 C103.844,16.372 101.023,17.767 100.417,18.774 C100.406,18.795 100.375,18.779 100.38,18.758 L101.065,15.471 C101.372,14.076 101.637,12.74 102.409,11.491 C102.432,11.454 102.388,11.411 102.353,11.438 C98.837,14.223 99.351,18.25 99.196,21.548 C99.194,21.583 99.236,21.599 99.259,21.575 C101.33,19.329 104.705,18.022 105.749,14.969 C105.763,14.932 105.723,14.9 105.692,14.924 Z M108.308,9.875 C105.201,9.974 102.918,12.591 101.939,15.923 C101.933,15.942 101.96,15.958 101.975,15.947 C106.256,12.809 106.017,11.464 108.334,9.971 C108.376,9.944 108.358,9.875 108.308,9.875 Z M144.137,48.688 C139.772,50.662 138.019,49.547 133.851,50.349 C133.826,50.357 133.812,50.319 133.836,50.307 C136.741,48.741 137.287,46.201 138.295,44.543 C138.316,44.512 138.279,44.472 138.245,44.49 C135.048,46.047 134.001,49.634 130.172,50.561 C130.133,50.569 130.133,50.623 130.172,50.634 C131.784,51.011 133.001,51.718 134.681,51.861 C139.347,52.254 142.756,50.83 144.189,48.747 C144.213,48.712 144.173,48.672 144.137,48.688 Z M148.863,41.243 C147.315,43.4 143.835,44.203 140.449,46.868 C140.428,46.884 140.402,46.86 140.42,46.836 C142.134,44.554 141.948,41.439 142.575,38.697 C142.583,38.66 142.536,38.637 142.51,38.666 C139.229,42.389 139.641,46.456 138.19,48.361 C138.171,48.386 138.187,48.42 138.219,48.42 C143.184,48.412 148.546,44.059 148.929,41.267 C148.934,41.229 148.887,41.214 148.863,41.243 Z M151.07,33.279 C151.068,33.231 150.999,33.219 150.978,33.264 C149.498,36.258 147.722,36.941 145.486,40.212 C145.47,40.233 145.441,40.22 145.449,40.196 C146.328,37.558 144.877,34.063 144.822,31.723 C144.822,31.675 144.753,31.664 144.735,31.709 C142.966,35.995 144.829,40.406 143.273,43.297 C143.255,43.331 143.286,43.366 143.32,43.35 C145.533,42.25 147.624,40.599 149.249,38.514 C150.265,36.973 151.165,35.314 151.07,33.279 Z M150.314,24.5 C150.296,24.453 150.225,24.466 150.225,24.516 C150.141,27.798 148.218,30.338 147.832,32.604 C147.827,32.631 147.795,32.629 147.795,32.6 C147.727,29.663 145.606,27.893 144.417,25.669 C144.394,25.627 144.331,25.643 144.331,25.691 C144.152,29.939 147.22,32.583 147.12,36.125 C147.12,36.171 147.176,36.191 147.202,36.157 C149.621,32.814 151.897,28.768 150.314,24.5 Z M149.131,22.064 C149.055,19.914 148.588,17.924 147.207,16.226 C147.179,16.189 147.12,16.221 147.131,16.269 C148.044,19.619 147.071,22.547 147.441,25.069 C147.446,25.106 147.404,25.114 147.391,25.082 C146.467,22.832 143.94,21.729 142.817,20.169 C142.79,20.129 142.73,20.159 142.741,20.206 C143.78,24.657 147.099,26.071 147.761,28.419 C147.771,28.462 147.827,28.465 147.837,28.422 C148.296,26.631 149.225,24.705 149.131,22.064 Z M143.108,11.438 C143.074,11.411 143.029,11.454 143.053,11.491 C143.824,12.74 144.089,14.076 144.396,15.471 L145.081,18.758 C145.087,18.779 145.055,18.795 145.045,18.774 C144.438,17.767 141.62,16.372 139.77,14.924 C139.741,14.9 139.699,14.932 139.712,14.969 C140.756,18.022 144.131,19.329 146.202,21.575 C146.225,21.599 146.267,21.583 146.265,21.548 C146.11,18.25 146.624,14.223 143.108,11.438 Z M137.153,9.875 C137.103,9.875 137.087,9.944 137.127,9.971 C139.444,11.464 139.205,12.809 143.486,15.947 C143.504,15.958 143.528,15.942 143.522,15.923 C142.544,12.591 140.261,9.974 137.153,9.875 Z" id="Fill-21"></path>
        </g>
    </g>
</svg>