<?xml version="1.0" encoding="utf-8"?>
<!-- Generator: Adobe Illustrator 16.0.0, SVG Export Plug-In . SVG Version: 6.00 Build 0)  -->
<!DOCTYPE svg PUBLIC "-//W3C//DTD SVG 1.1//EN" "http://www.w3.org/Graphics/SVG/1.1/DTD/svg11.dtd">
<svg version="1.1" id="Layer_1" xmlns="http://www.w3.org/2000/svg" xmlns:xlink="http://www.w3.org/1999/xlink" x="0px" y="0px"
	 width="56.693px" height="56.693px" viewBox="0 0 56.693 56.693" enable-background="new 0 0 56.693 56.693" xml:space="preserve">
<path fill="#E20613" d="M33.429,31.249l-4.244,4.933c6.391,7.301,13.218,15.115,13.218,15.115L44,43.313
	C44,43.313,38.693,37.266,33.429,31.249z M37.614,9.801c0,0,0,4.788-3.19,7.979L12.081,43.313l1.598,7.983l22.343-25.538
	c3.19-3.189,3.19-7.979,3.19-7.979L37.614,9.801z M18.467,9.801l-1.598,7.979c0,0,0,4.79,3.191,7.979c0,0,2.099,2.367,2.645,2.996
	l4.339-4.84c-1.967-2.242-5.387-6.136-5.387-6.136C18.467,14.589,18.467,9.801,18.467,9.801z M28.039,5.013
	c-6.382,0-7.979,3.19-7.979,3.19v2.395c0,1.433,0.345,2.744,0.9,3.94c1.736-0.857,4.048-1.545,7.078-1.545s5.346,0.688,7.081,1.545
	c0.556-1.196,0.901-2.508,0.901-3.94V8.203C36.021,8.203,34.424,5.013,28.039,5.013z"/>
</svg>
