<?xml version="1.0" encoding="utf-8"?>
<!-- Generator: Adobe Illustrator 16.0.0, SVG Export Plug-In . SVG Version: 6.00 Build 0)  -->
<!DOCTYPE svg PUBLIC "-//W3C//DTD SVG 1.1//EN" "http://www.w3.org/Graphics/SVG/1.1/DTD/svg11.dtd">
<svg version="1.1" id="Layer_1" xmlns="http://www.w3.org/2000/svg" xmlns:xlink="http://www.w3.org/1999/xlink" x="0px" y="0px"
	 width="56.693px" height="56.692px" viewBox="0 0 56.693 56.692" enable-background="new 0 0 56.693 56.692" xml:space="preserve">
<path fill="#007ABF" d="M28.846,26.629v-4.4c0.348-0.238,0.574-0.637,0.574-1.086c0-0.73-0.598-1.328-1.328-1.328
	s-1.322,0.598-1.322,1.328c0,0.449,0.221,0.842,0.559,1.086v4.367h-8.482c-0.676,0-1.229,0.549-1.229,1.219v20.569
	c0,0.682,0.553,1.225,1.229,1.225h9.723c0.676,0,1.223-0.543,1.223-1.225V27.814C29.791,27.238,29.387,26.758,28.846,26.629z
	 M27.914,37.626c0,0.67-0.547,1.225-1.223,1.225h-6.168c-0.682,0-1.229-0.555-1.229-1.225v-7.258c0-0.682,0.547-1.229,1.229-1.229
	h6.168c0.676,0,1.223,0.548,1.223,1.229V37.626z M40.377,20.623c-0.016-6.65-5.387-12.025-12.035-12.037l0,0
	c-6.645,0.012-12.021,5.387-12.037,12.037l0,0c0,0.41-0.326,0.746-0.748,0.746l0,0c-0.41,0-0.742-0.336-0.742-0.746l0,0
	c0-7.475,6.059-13.537,13.527-13.537l0,0c7.475,0,13.537,6.062,13.537,13.537l0,0c0,0.41-0.338,0.746-0.754,0.746l0,0
	C40.715,21.369,40.377,21.033,40.377,20.623L40.377,20.623z M36.496,20.623c-0.016-4.508-3.648-8.145-8.154-8.15l0,0
	c-4.502,0.006-8.145,3.643-8.156,8.15l0,0c0,0.41-0.326,0.746-0.742,0.746l0,0c-0.414,0-0.748-0.336-0.748-0.746l0,0
	c0-5.326,4.32-9.645,9.646-9.656l0,0c5.332,0.012,9.65,4.33,9.65,9.656l0,0c0,0.41-0.338,0.746-0.748,0.746l0,0
	C36.828,21.369,36.496,21.033,36.496,20.623L36.496,20.623z M33.107,20.623c-0.004-2.637-2.131-4.762-4.766-4.768l0,0
	c-2.625,0.006-4.762,2.131-4.768,4.768l0,0c0,0.41-0.338,0.746-0.748,0.746l0,0c-0.414,0-0.746-0.336-0.746-0.746l0,0
	c0-3.467,2.807-6.262,6.262-6.268l0,0c3.459,0.006,6.256,2.801,6.268,6.268l0,0c0,0.41-0.332,0.746-0.748,0.746l0,0
	C33.445,21.369,33.107,21.033,33.107,20.623L33.107,20.623z"/>
</svg>
