<?xml version="1.0" encoding="utf-8"?>
<!-- Generator: Adobe Illustrator 16.0.0, SVG Export Plug-In . SVG Version: 6.00 Build 0)  -->
<!DOCTYPE svg PUBLIC "-//W3C//DTD SVG 1.1//EN" "http://www.w3.org/Graphics/SVG/1.1/DTD/svg11.dtd">
<svg version="1.1" id="Layer_1" xmlns="http://www.w3.org/2000/svg" xmlns:xlink="http://www.w3.org/1999/xlink" x="0px" y="0px"
	 width="56.693px" height="56.693px" viewBox="0 0 56.693 56.693" enable-background="new 0 0 56.693 56.693" xml:space="preserve">
<path fill="#007ABF" d="M56.693,56.693H0v-5.667c0.902-0.185,3.695-1.846,5.669-5.672c2.588-5.021,5.669-1.417,5.669-1.417
	c-2.45,0.216-1.857,2.904-1.417,4.252c0.526,1.617,1.938,2.619,2.834,2.837h1.415c0.911-0.185,2.284-1.846,4.254-5.672
	c2.592-5.021,5.667-1.417,5.667-1.417c-2.444,0.216-1.86,2.904-1.415,4.252c0.523,1.617,1.936,2.619,2.835,2.837h1.417
	c0.908-0.185,2.281-1.846,4.252-5.672c2.592-5.021,5.67-1.417,5.67-1.417c-2.444,0.216-1.86,2.904-1.418,4.252
	c0.526,1.617,1.936,2.619,2.835,2.837h1.417c0.903-0.185,3.71-1.846,5.67-5.672c2.6-5.021,5.669-1.417,5.669-1.417
	c-2.441,0.216-1.86,2.904-1.417,4.252c0.525,1.617,1.935,2.619,2.837,2.837h4.25V56.693z M48.189,34.017v-8.299v-7.292l1.417,1.417
	l1.417-1.417L37.562,7.087l-13.47,11.338l1.42,1.417l1.417-1.417v15.591h-1.417c-0.899-0.216-2.312-1.218-2.835-2.835
	c-0.445-1.351-1.029-4.036,1.415-4.252c0,0-3.075-3.604-5.667,1.417c-1.971,3.826-3.344,5.486-4.254,5.669h-1.415
	c-0.897-0.216-2.309-1.218-2.834-2.835c-0.44-1.351-1.033-4.036,1.417-4.252c0,0-3.081-3.604-5.669,1.417
	C3.695,32.173,0.902,33.833,0,34.017v8.504c0.902-0.183,3.695-1.841,5.669-5.669c2.588-5.021,5.669-1.417,5.669-1.417
	c-2.45,0.216-1.857,2.901-1.417,4.252c0.526,1.617,1.938,2.622,2.834,2.835h1.415c0.911-0.183,2.284-1.841,4.254-5.669
	c2.592-5.021,5.667-1.417,5.667-1.417c-2.444,0.216-1.86,2.901-1.415,4.252c0.523,1.617,1.936,2.622,2.835,2.835h1.417
	c0.908-0.183,2.281-1.841,4.252-5.669c2.592-5.021,5.67-1.417,5.67-1.417c-2.444,0.216-1.86,2.901-1.418,4.252
	c0.526,1.617,1.936,2.622,2.835,2.835h1.417c0.903-0.183,3.71-1.841,5.67-5.669c2.6-5.021,5.669-1.417,5.669-1.417
	c-2.441,0.216-1.86,2.901-1.417,4.252c0.525,1.617,1.935,2.622,2.837,2.835h4.25v-8.504H48.189z"/>
</svg>
