<?xml version="1.0" encoding="utf-8"?>
<!-- Generator: Adobe Illustrator 16.0.0, SVG Export Plug-In . SVG Version: 6.00 Build 0)  -->
<!DOCTYPE svg PUBLIC "-//W3C//DTD SVG 1.1//EN" "http://www.w3.org/Graphics/SVG/1.1/DTD/svg11.dtd">
<svg version="1.1" id="Layer_1" xmlns="http://www.w3.org/2000/svg" xmlns:xlink="http://www.w3.org/1999/xlink" x="0px" y="0px"
	 width="56.693px" height="56.693px" viewBox="0 0 56.693 56.693" enable-background="new 0 0 56.693 56.693" xml:space="preserve">
<g>
	<path fill="#007BC0" d="M45.354,0H11.339c-6.24,0-11.34,5.1-11.34,11.338v34.018c0,6.235,5.1,11.338,11.34,11.338h34.016
		c6.234,0,11.34-5.103,11.34-11.338V11.338C56.694,5.1,51.589,0,45.354,0z"/>
	<path fill="#FFFFFF" d="M45.028,29.5v3.05h4.57V29.5H45.028z M23.698,27.979v13.708l-3.047,3.05v1.523H13.03v3.049h30.473v-3.049
		h-7.617v-1.523l-3.045-3.05V27.979H23.698z M23.698,18.835v4.573h-3.047v3.046h22.852c0.846,0,1.525,0.682,1.525,1.525h4.57v-1.525
		c0-2.521-2.049-4.57-4.57-4.57H32.841v-3.048H23.698z M20.651,11.22L6.938,17.312v4.572l13.713-6.093V11.22z M26.745,9.693v3.047
		h3.045V9.693H26.745z M28.269,8.169c1.684,0,3.047,1.367,3.047,3.051c0,1.68-1.363,3.044-3.047,3.044
		c-1.682,0-3.045-1.364-3.045-3.044C25.224,9.537,26.587,8.169,28.269,8.169z M25.224,6.647l-3.051,6.093v4.571H34.36V12.74
		l-3.045-6.093H25.224z"/>
	<path fill="#FFFFFF" d="M50.062,35.683l-1.516,3.031c-0.6,0.458-0.994,1.171-0.994,1.981c0,1.391,1.125,2.511,2.51,2.511
		s2.508-1.12,2.508-2.511c0-0.811-0.393-1.523-0.992-1.981L50.062,35.683z"/>
</g>
</svg>
