<?xml version="1.0" encoding="utf-8"?>
<!-- Generator: Adobe Illustrator 16.0.0, SVG Export Plug-In . SVG Version: 6.00 Build 0)  -->
<!DOCTYPE svg PUBLIC "-//W3C//DTD SVG 1.1//EN" "http://www.w3.org/Graphics/SVG/1.1/DTD/svg11.dtd">
<svg version="1.1" id="Layer_1" xmlns="http://www.w3.org/2000/svg" xmlns:xlink="http://www.w3.org/1999/xlink" x="0px" y="0px"
	 width="56.693px" height="56.693px" viewBox="0 0 56.693 56.693" enable-background="new 0 0 56.693 56.693" xml:space="preserve">
<path fill="#007ABF" d="M21.556,41.061c0.454,0.454,1.079,0.57,0.797,0.857l-3.311,2.785c-0.664,0.67-1.478-0.687-1.162-1.008
	l2.812-3.432C20.979,39.97,21.096,40.601,21.556,41.061z M28.403,31.722c1.062,1.063,3.703,0.194,2.303-3.51
	c-1.251-3.305,0.554-4.732,0.554-4.732C30.401,23.762,26.034,29.347,28.403,31.722z M24.987,35.138
	c1.063,1.062,3.703,0.193,2.303-3.516c-1.251-3.299,0.554-4.732,0.554-4.732C26.986,27.172,22.607,32.763,24.987,35.138z
	 M37.714,25.019c-0.83,0.183-7.738,2.989-5.231,5.496C35.002,33.034,37.714,25.019,37.714,25.019z M31.044,35.375
	c-3.704-1.395-4.578,1.251-3.51,2.314c2.374,2.369,7.96-2.004,8.248-2.862C35.782,34.827,34.354,36.626,31.044,35.375z
	 M56.685,11.337v34.02c0,6.232-5.104,11.337-11.337,11.337H11.337C5.098,56.693,0,51.589,0,45.356v-34.02C0,5.102,5.098,0,11.337,0
	h34.011C51.581,0,56.685,5.102,56.685,11.337z M12.698,11.542l5.586,5.203H38.4l5.585-5.203c0,0-2.772-3.884-7.362-4.393
	c-4.473-0.498-6.039,2.253-8.281,2.358c-2.241-0.105-3.797-2.856-8.281-2.358C15.478,7.658,12.698,11.542,12.698,11.542z
	 M39.911,20.089H16.772c0,0-11.104,8.743-7.456,24.857c0,0,1.212,4.655,6.798,4.655h24.462c5.574,0,6.792-4.655,6.792-4.655
	C51.016,28.832,39.911,20.089,39.911,20.089z M27.528,38.896c-3.709-1.4-4.578,1.246-3.51,2.314c2.369,2.369,7.966-2.01,8.243-2.862
	C32.262,38.348,30.827,40.147,27.528,38.896z M23.77,35.143c-1.245-3.305,0.56-4.732,0.56-4.732
	c-0.869,0.287-5.237,5.879-2.862,8.242C22.524,39.721,25.176,38.852,23.77,35.143z M34.47,31.966
	c-3.72-1.401-4.583,1.245-3.521,2.308c2.369,2.369,7.966-1.998,8.254-2.861C39.203,31.412,37.758,33.222,34.47,31.966z"/>
</svg>
