<?xml version="1.0" encoding="utf-8"?>
<!-- Generator: Adobe Illustrator 16.0.0, SVG Export Plug-In . SVG Version: 6.00 Build 0)  -->
<!DOCTYPE svg PUBLIC "-//W3C//DTD SVG 1.1//EN" "http://www.w3.org/Graphics/SVG/1.1/DTD/svg11.dtd">
<svg version="1.1" id="Layer_1" xmlns="http://www.w3.org/2000/svg" xmlns:xlink="http://www.w3.org/1999/xlink" x="0px" y="0px"
	 width="56.693px" height="56.693px" viewBox="0 0 56.693 56.693" enable-background="new 0 0 56.693 56.693" xml:space="preserve">
<path fill="#007ABF" d="M45.354,0.001H11.339C5.1,0.001,0,5.1,0,11.34v34.016c0,6.233,5.1,11.338,11.339,11.338h34.016
	c6.234,0,11.339-5.104,11.339-11.338V11.34C56.693,5.1,51.589,0.001,45.354,0.001z M43.859,14.562c2.696,0,4.873,2.182,4.873,4.866
	c0,2.691-2.177,4.867-4.873,4.867c-2.685,0-4.86-2.176-4.86-4.867C38.999,16.743,41.175,14.562,43.859,14.562z M12.834,14.562
	c2.674,0,4.86,2.182,4.86,4.866c0,2.691-2.187,4.867-4.86,4.867c-2.696,0-4.878-2.176-4.878-4.867
	C7.956,16.743,10.138,14.562,12.834,14.562z M26.266,37.671c-3.649-0.609-6.013-2.004-7.696-3.472v7.934H7.087V29.858
	c0-2.436,1.993-4.423,4.424-4.423h2.635c1.069,0,2.049,0.403,2.812,1.04c0.028,0.022,0.062,0.022,0.083,0.039
	c0.903,0.598,1.584,1.445,2.304,2.337c1.462,1.815,3.155,3.825,7.274,4.611c-0.675,0.697-1.079,1.655-0.963,2.69
	C25.717,36.729,25.955,37.228,26.266,37.671z M49.606,42.133H38.118v-7.906c-1.843,1.634-4.518,3.173-8.853,3.654
	c-0.077,0.006-0.16,0.012-0.238,0.012c-1.057,0-1.971-0.798-2.092-1.877c-0.128-1.157,0.703-2.198,1.865-2.331
	c5.104-0.564,6.938-2.84,8.548-4.833c0.72-0.897,1.396-1.739,2.298-2.337c0.027-0.017,0.061-0.017,0.083-0.039
	c0.77-0.637,1.744-1.04,2.818-1.04h2.63c2.436,0,4.429,1.987,4.429,4.423V42.133z"/>
</svg>
