<?xml version="1.0" encoding="utf-8"?>
<!-- Generator: Adobe Illustrator 16.0.0, SVG Export Plug-In . SVG Version: 6.00 Build 0)  -->
<!DOCTYPE svg PUBLIC "-//W3C//DTD SVG 1.1//EN" "http://www.w3.org/Graphics/SVG/1.1/DTD/svg11.dtd">
<svg version="1.1" id="Layer_1" xmlns="http://www.w3.org/2000/svg" xmlns:xlink="http://www.w3.org/1999/xlink" x="0px" y="0px"
	 width="56.693px" height="56.693px" viewBox="0 0 56.693 56.693" enable-background="new 0 0 56.693 56.693" xml:space="preserve">
<path fill="#007ABF" d="M26.872,10.447c0.354,2.186-1.118,4.246-3.3,4.605c-2.187,0.355-4.252-1.123-4.606-3.305
	c-0.359-2.188,1.118-4.246,3.306-4.607C24.452,6.781,26.518,8.266,26.872,10.447z M25.621,26.33l3.543,5.664
	c0.504,0.797,1.55,1.059,2.358,0.582c0.813-0.482,1.097-1.518,0.643-2.342l-0.897-1.629c-0.78-1.395-1.544-2.789-2.319-4.186
	l-1.584-2.867c-0.177-0.332-0.359-0.703-0.548-1.096c-0.975-2.043-2.491-5.199-5.824-4.912c-2.846,0.25-5.735,1.602-8.581,4.02
	c-3.378,2.658-5.73,6.518-5.824,6.684c-0.111,0.178-0.217,0.344-0.3,0.504c-0.005,0.01-0.011,0.016-0.017,0.021l0,0
	c-0.315,0.598-0.47,1.141-0.077,1.832c0.311,0.543,0.892,0.881,1.517,0.881c0.759,0,1.146-0.354,1.522-0.902l0,0
	c0.006,0,0.006-0.006,0.006-0.012c0.105-0.154,0.211-0.326,0.321-0.504c0.022-0.033,1.999-3.199,5.055-5.807
	c0.941-0.742,1.838-1.252,2.686-1.527l-0.682,8.242c-0.066,0.82-0.326,2.227-0.548,3.012l-1.533,5.377
	c-0.199,0.676-0.775,1.805-1.224,2.354L9.172,44.85c-0.525,0.654-1.124,1.396-0.631,2.414c0.288,0.604,0.902,0.992,1.572,0.992
	c0.803,0,1.234-0.467,1.777-1.053l4.196-4.523c0.747-0.809,1.722-2.209,2.203-3.199l2.082-4.236l7.695,12.934
	c0.377,0.637,0.853,1.428,1.899,1.428l0,0c0.598,0,1.146-0.305,1.467-0.803c0.549-0.848,0.183-1.633-0.138-2.324l-6.224-13.521
	c-0.243-0.525-0.376-1.609-0.271-2.186L25.621,26.33z M32.143,40.404h9.323v2.773l9.269-5.354l-9.269-5.348v2.768h-9.323V40.404z"/>
</svg>
