<?xml version="1.0" encoding="utf-8"?>
<!-- Generator: Adobe Illustrator 16.0.0, SVG Export Plug-In . SVG Version: 6.00 Build 0)  -->
<!DOCTYPE svg PUBLIC "-//W3C//DTD SVG 1.1//EN" "http://www.w3.org/Graphics/SVG/1.1/DTD/svg11.dtd">
<svg version="1.1" id="Layer_1" xmlns="http://www.w3.org/2000/svg" xmlns:xlink="http://www.w3.org/1999/xlink" x="0px" y="0px"
	 width="56.693px" height="56.693px" viewBox="0 0 56.693 56.693" enable-background="new 0 0 56.693 56.693" xml:space="preserve">
<path fill="#007ABF" d="M45.355,0H11.34C5.1,0,0.001,5.104,0.001,11.339v34.016c0,6.239,5.099,11.339,11.339,11.339h34.016
	c6.233,0,11.338-5.1,11.338-11.339V11.339C56.693,5.104,51.589,0,45.355,0z M22.269,7.142c2.181-0.359,4.246,1.124,4.601,3.306
	c0.354,2.187-1.118,4.246-3.3,4.606c-2.187,0.354-4.252-1.124-4.606-3.306C18.604,9.562,20.081,7.502,22.269,7.142z M25.069,32.958
	l6.224,13.521c0.32,0.691,0.687,1.478,0.138,2.325c-0.32,0.498-0.869,0.803-1.467,0.803c-1.046,0-1.522-0.792-1.899-1.429
	l-7.695-12.933l-2.081,4.235c-0.482,0.991-1.457,2.392-2.204,3.2l-4.196,4.522c-0.543,0.587-0.975,1.053-1.777,1.053
	c-0.67,0-1.284-0.388-1.572-0.991c-0.493-1.019,0.105-1.761,0.631-2.414l4.142-5.132c0.448-0.549,1.024-1.678,1.224-2.354
	l1.533-5.376c0.222-0.786,0.481-2.192,0.548-3.012l0.682-8.243c-0.848,0.276-1.744,0.786-2.686,1.527
	c-3.056,2.608-5.032,5.774-5.055,5.808c-0.11,0.178-0.216,0.35-0.321,0.504c0,0.006,0,0.012-0.005,0.012
	c-0.377,0.548-0.765,0.902-1.523,0.902c-0.625,0-1.206-0.338-1.517-0.881c-0.393-0.691-0.238-1.234,0.077-1.832l0,0
	c0.006-0.006,0.012-0.012,0.017-0.022c0.084-0.16,0.188-0.326,0.3-0.504c0.094-0.166,2.446-4.024,5.824-6.683
	c2.846-2.419,5.735-3.77,8.581-4.02c3.333-0.287,4.85,2.868,5.824,4.911c0.188,0.394,0.371,0.764,0.548,1.097l1.584,2.867
	c0.775,1.396,1.539,2.791,2.319,4.186l0.897,1.628c0.454,0.825,0.172,1.86-0.643,2.342c-0.809,0.477-1.854,0.216-2.358-0.581
	l-3.543-5.664l-0.819,4.44C24.693,31.348,24.826,32.433,25.069,32.958z M41.463,43.179v-2.773H32.14v-5.16h9.323v-2.769l9.269,5.349
	L41.463,43.179z"/>
</svg>
