<?xml version="1.0" encoding="utf-8"?>
<!-- Generator: Adobe Illustrator 16.0.0, SVG Export Plug-In . SVG Version: 6.00 Build 0)  -->
<!DOCTYPE svg PUBLIC "-//W3C//DTD SVG 1.1//EN" "http://www.w3.org/Graphics/SVG/1.1/DTD/svg11.dtd">
<svg version="1.1" id="Layer_1" xmlns="http://www.w3.org/2000/svg" xmlns:xlink="http://www.w3.org/1999/xlink" x="0px" y="0px"
	 width="56.693px" height="56.693px" viewBox="0 0 56.693 56.693" enable-background="new 0 0 56.693 56.693" xml:space="preserve">
<g>
	<path fill="#007ABF" d="M38.802,40.201c2.413-0.805,3.985-2.856,4.945-4.646c0.89-1.662,1.254-3.098,1.254-3.098V20.52
		c0.993-0.854,1.547-1.795,1.547-2.784c0-3.845-8.325-6.968-18.588-6.968c-10.262,0-18.592,3.123-18.592,6.968
		c0,0.99,0.556,1.932,1.551,2.786v11.936c0,0,0.363,1.436,1.252,3.098c0.959,1.79,2.53,3.842,4.944,4.646
		c-4.651,0-6.196-4.646-6.196-4.646l-1.551,3.097c0,0,0,7.745,18.592,7.745c18.588,0,18.588-7.745,18.588-7.745l-1.547-3.097
		C45.001,35.555,43.45,40.201,38.802,40.201z M27.96,12.314c4.219,0,8.043,0.591,10.838,1.55c2.868,0.983,4.652,2.354,4.652,3.871
		c0,2.996-6.938,5.425-15.49,5.425s-15.496-2.429-15.496-5.425c0-1.517,1.786-2.888,4.656-3.871
		C19.916,12.905,23.741,12.314,27.96,12.314z"/>
	<path fill="#007ABF" d="M40.353,19.03c0,0-7.744-3.616-12.393-3.616c-4.465,0-11.781,3.332-12.354,3.598
		c0.384,0.08,3.653,2.599,12.354,2.599C37.255,21.61,40.353,19.03,40.353,19.03z"/>
</g>
<g>
	<path fill="#FFFFFF" d="M27.234,28.651l-1.729,6.423h-1.836l-1.148-4.185l-1.123,4.185h-1.832l-1.729-6.423h1.729l0.985,4.421
		l1.186-4.421h1.651l1.125,4.421l1.034-4.421H27.234z"/>
	<path fill="#FFFFFF" d="M32.588,29.894h-2.954v1.195h2.738v1.242h-2.738v2.743h-1.648v-6.423h4.603V29.894z"/>
	<path fill="#FFFFFF" d="M38.68,30.679c0,0.287-0.051,0.568-0.151,0.843c-0.101,0.275-0.244,0.506-0.431,0.692
		c-0.257,0.254-0.542,0.444-0.856,0.574c-0.315,0.129-0.707,0.194-1.176,0.194h-1.031v2.092h-1.656v-6.423h2.727
		c0.408,0,0.753,0.035,1.033,0.105s0.528,0.177,0.744,0.317c0.259,0.17,0.456,0.387,0.593,0.651S38.68,30.308,38.68,30.679z
		 M36.967,30.716c0-0.181-0.049-0.337-0.146-0.467c-0.098-0.131-0.211-0.222-0.341-0.273c-0.173-0.069-0.341-0.107-0.505-0.114
		c-0.163-0.007-0.382-0.011-0.655-0.011h-0.285v1.919h0.475c0.282,0,0.515-0.017,0.697-0.051c0.183-0.035,0.335-0.104,0.459-0.207
		c0.106-0.092,0.184-0.201,0.23-0.329C36.943,31.055,36.967,30.899,36.967,30.716z"/>
</g>
</svg>
