<?xml version="1.0" encoding="utf-8"?>
<!-- Generator: Adobe Illustrator 16.0.0, SVG Export Plug-In . SVG Version: 6.00 Build 0)  -->
<!DOCTYPE svg PUBLIC "-//W3C//DTD SVG 1.1//EN" "http://www.w3.org/Graphics/SVG/1.1/DTD/svg11.dtd">
<svg version="1.1" id="Layer_1" xmlns="http://www.w3.org/2000/svg" xmlns:xlink="http://www.w3.org/1999/xlink" x="0px" y="0px"
	 width="56.693px" height="56.693px" viewBox="0 0 56.693 56.693" enable-background="new 0 0 56.693 56.693" xml:space="preserve">
<path fill="#007ABF" d="M45.354,0H11.339C5.1,0,0,5.102,0,11.339v34.016c0,6.236,5.1,11.339,11.339,11.339h34.016
	c6.234,0,11.339-5.103,11.339-11.339V11.339C56.693,5.102,51.589,0,45.354,0z M36.43,36.579c0,3.983-2.912,7.283-6.716,7.939v2.345
	h2.06v2.743h-6.859v-2.743h2.06v-2.345c-3.804-0.656-6.71-3.956-6.71-7.939v-2.334c0-0.758,0.614-1.373,1.373-1.373
	s1.373,0.615,1.373,1.373v2.334c0,2.942,2.392,5.334,5.334,5.334c2.945,0,5.34-2.392,5.34-5.334v-2.334
	c0-0.758,0.615-1.373,1.373-1.373c0.759,0,1.373,0.615,1.373,1.373V36.579z M31.553,20.205c-0.543-1.287-1.8-2.137-3.192-2.148
	h-0.086c-1.395-0.008-2.668,0.814-3.222,2.104c-0.211,0.489-0.786,0.714-1.284,0.506c-0.487-0.213-0.715-0.783-0.504-1.278
	c0.872-2.013,2.834-3.294,5.021-3.277h0.083c2.182,0.014,4.136,1.328,4.978,3.352c0.047,0.122,0.071,0.247,0.071,0.38
	c-0.005,0.376-0.227,0.733-0.601,0.886C32.322,20.938,31.746,20.7,31.553,20.205z M32.463,26.47v9.439
	c0,2.27-1.844,4.116-4.119,4.116c-2.27,0-4.113-1.847-4.113-4.116V26.47c0-2.281,1.844-4.119,4.113-4.119
	C30.619,22.351,32.463,24.188,32.463,26.47z M28.389,13.343h-0.081c-2.413-0.014-4.628,1.185-5.94,3.217
	c-0.293,0.454-0.896,0.581-1.348,0.288c-0.451-0.288-0.576-0.892-0.285-1.343c1.666-2.594,4.501-4.136,7.59-4.108h0.078
	c3.089,0.017,5.901,1.603,7.529,4.222c0.103,0.158,0.152,0.344,0.152,0.518c-0.003,0.324-0.169,0.637-0.457,0.822
	c-0.459,0.282-1.062,0.146-1.345-0.315C33.009,14.597,30.805,13.362,28.389,13.343z M39.071,14.719
	c-0.466,0.279-1.063,0.122-1.34-0.338c-1.972-3.316-5.459-5.315-9.307-5.351h-0.078c-3.858-0.028-7.374,1.924-9.396,5.215
	c-0.279,0.454-0.88,0.601-1.34,0.321c-0.462-0.288-0.604-0.886-0.32-1.343c2.389-3.875,6.524-6.17,11.062-6.137h0.086
	c4.54,0.03,8.64,2.386,10.965,6.292c0.1,0.166,0.144,0.335,0.144,0.507C39.547,14.215,39.375,14.533,39.071,14.719z"/>
</svg>
