<?xml version="1.0" encoding="utf-8"?>
<!-- Generator: Adobe Illustrator 16.0.0, SVG Export Plug-In . SVG Version: 6.00 Build 0)  -->
<!DOCTYPE svg PUBLIC "-//W3C//DTD SVG 1.1//EN" "http://www.w3.org/Graphics/SVG/1.1/DTD/svg11.dtd">
<svg version="1.1" id="Layer_1" xmlns="http://www.w3.org/2000/svg" xmlns:xlink="http://www.w3.org/1999/xlink" x="0px" y="0px"
	 width="56.693px" height="56.693px" viewBox="0 0 56.693 56.693" enable-background="new 0 0 56.693 56.693" xml:space="preserve">
<g>
	<path fill="#007BC0" d="M45.354,0H11.338C5.102,0,0,5.104,0,11.338v34.018c0,6.239,5.102,11.338,11.338,11.338h34.016
		c6.238,0,11.34-5.099,11.34-11.338V11.338C56.693,5.104,51.592,0,45.354,0z"/>
	<g>
		<path fill="none" d="M24.361,30.669c0-0.078,0.083-0.194,0.221-0.332c-0.074,0.027-0.151,0.05-0.221,0.077V30.669z"/>
		<path fill="none" d="M46.745,36.465c0,0-1.699,4.506-12.262,6.012C34.483,42.477,46.449,42.217,46.745,36.465z"/>
		<path fill="none" d="M29.745,36.869c2.521,0.354,4.824-0.991,5.428-2.979c0.08-0.266,0.116-0.637,0.094-0.908
			C33.949,34.893,32.042,36.105,29.745,36.869z"/>
		<path fill="#FFFFFF" d="M46.973,23.888c-1.005-0.3-1.877,0.166-2.58,0.442c-2.17,0.855-4.133,1.888-5.843,3.211V14.842
			c0-1.512,0-2.502,0-2.558c-7.958-3.504-14.311,0.202-15.113,0.941c-0.006-0.006-0.014-0.012-0.02-0.015
			c-0.005,0.003-0.014,0.009-0.02,0.015c-0.803-0.739-7.157-4.445-15.109-0.941c0,0.056,0,1.046,0,2.558v17.045H19.77
			c-0.685,0.687-1.069,1.434-1.069,2.214c0,0-0.193,5.198,7.23,8.675l0,0c0,0-0.712,0.665,0,1.484
			c0.706,0.819,3.612,1.633,7.442,1.633c3.831,0,6.74-0.813,7.446-1.633c0.64-0.736,0.127-1.352,0.02-1.468
			c3.62-1.6,7.213-1.738,7.213-8.691c0-2.274-3.188-4.257-7.858-5.25l-0.767,0.65c4.091,0.874,6.881,2.607,6.881,4.6
			c0,2.874-5.763,5.204-12.87,5.204c-7.111,0-12.871-2.33-12.871-5.204c0-0.675,0.329-1.322,0.919-1.921
			c0.656-0.664,1.639-1.268,2.876-1.766c0.069-0.027,0.146-0.05,0.221-0.077c2.309-0.886,5.42-1.435,8.855-1.435
			c0.174,0,0.332,0,0.486,0.003c0.562,0.003,1.021,0.022,1.628,0.069l0.676-0.689c-0.922-0.074-1.877-0.11-2.854-0.11
			c-3.401,0-6.523,0.474-9.012,1.254V16.386c0-2.54,3.377-3.902,7.542-3.902c2.002,0,3.82,0.471,5.165,1.245v15.103
			c-0.05,0.05-0.104,0.088-0.152,0.133l-0.777,0.863c-0.551,0.631-1.138,1.257-1.838,1.434c-0.404,0.1-0.783,0.062-1.115,0.111
			c-0.692,0.1-1.307,0.266-1.885,0.515c-0.305,0.133-0.604,0.282-0.895,0.471c-0.988,0.631-1.871,1.527-2.192,2.884
			c-0.263,1.113,0.308,1.987,1.437,2.27c1.423,0.354,2.812-0.055,3.92-0.73c1.173-0.709,2.322-1.799,2.43-3.454
			c0.039-0.51-0.121-0.753-0.024-1.168c0.021-0.095,0.055-0.183,0.094-0.271c0.128-0.277,0.327-0.548,0.487-0.742
			c0.537-0.658,1.237-1.262,1.993-1.805c1.038-0.747,2.181-1.37,3.172-1.799c1.544-0.667,3.075-1.013,5.168-1.201
			c0.631-0.056,1.334-0.213,1.475-0.673C48.605,24.884,47.742,24.111,46.973,23.888z M46.745,36.465
			c-0.296,5.752-12.262,6.012-12.262,6.012C45.046,40.971,46.745,36.465,46.745,36.465z M22.188,30.271
			c-1.249-1.151-6.485-3.654-12.423,0.083V13.729c1.348-0.774,3.161-1.245,5.168-1.245c4.163,0,7.54,1.362,7.54,3.902v13.757
			C22.379,30.188,22.282,30.226,22.188,30.271z M35.173,33.891c-0.604,1.987-2.906,3.333-5.428,2.979
			c2.297-0.764,4.204-1.977,5.521-3.887C35.289,33.254,35.253,33.625,35.173,33.891z"/>
	</g>
</g>
</svg>
