<?xml version="1.0" encoding="utf-8"?>
<!-- Generator: Adobe Illustrator 16.0.0, SVG Export Plug-In . SVG Version: 6.00 Build 0)  -->
<!DOCTYPE svg PUBLIC "-//W3C//DTD SVG 1.1//EN" "http://www.w3.org/Graphics/SVG/1.1/DTD/svg11.dtd">
<svg version="1.1" id="Layer_1" xmlns="http://www.w3.org/2000/svg" xmlns:xlink="http://www.w3.org/1999/xlink" x="0px" y="0px"
	 width="56.693px" height="56.693px" viewBox="0 0 56.693 56.693" enable-background="new 0 0 56.693 56.693" xml:space="preserve">
<g>
	<path fill="#007BC0" d="M46.972,23.888c-1.005-0.3-1.877,0.166-2.579,0.445c-2.171,0.853-4.133,1.885-5.844,3.208V14.842
		c0-1.512,0-2.502,0-2.558c-7.955-3.504-14.311,0.202-15.112,0.941c-0.006-0.006-0.015-0.012-0.018-0.015
		c-0.005,0.003-0.017,0.009-0.021,0.015c-0.803-0.739-7.158-4.445-15.11-0.941c0,0.056,0,1.046,0,2.558v17.045h11.481
		c-0.684,0.687-1.068,1.434-1.068,2.214c0,0-0.194,5.198,7.229,8.675l0,0c0,0-0.711,0.665,0,1.483
		c0.706,0.819,3.612,1.634,7.446,1.634c3.828,0,6.737-0.814,7.442-1.634c0.643-0.735,0.128-1.351,0.02-1.467
		c3.623-1.6,7.216-1.738,7.216-8.691c0-2.274-3.188-4.257-7.86-5.25l-0.765,0.65c4.092,0.874,6.879,2.607,6.879,4.6
		c0,2.873-5.763,5.204-12.871,5.204c-7.11,0-12.871-2.331-12.871-5.204c0-0.675,0.33-1.322,0.919-1.921
		c0.656-0.664,1.639-1.268,2.876-1.766c0.072-0.027,0.149-0.05,0.222-0.077c2.309-0.886,5.42-1.435,8.854-1.435
		c0.175,0,0.332,0,0.487,0.003c0.562,0.003,1.021,0.022,1.63,0.069l0.676-0.689c-0.925-0.074-1.877-0.11-2.854-0.11
		c-3.405,0-6.527,0.474-9.016,1.257V16.389c0-2.541,3.377-3.905,7.543-3.905c2.004,0,3.819,0.471,5.165,1.245v15.103
		c-0.047,0.05-0.105,0.088-0.152,0.133l-0.778,0.863C35.587,30.455,35,31.084,34.3,31.261c-0.403,0.1-0.783,0.062-1.115,0.111
		c-0.691,0.1-1.307,0.266-1.885,0.515c-0.305,0.133-0.604,0.282-0.895,0.471c-0.987,0.631-1.871,1.527-2.191,2.884
		c-0.264,1.113,0.307,1.987,1.437,2.27c1.423,0.354,2.812-0.055,3.919-0.73c1.177-0.709,2.322-1.799,2.434-3.454
		c0.035-0.51-0.125-0.753-0.028-1.168c0.022-0.095,0.056-0.183,0.097-0.271c0.125-0.277,0.324-0.548,0.487-0.742
		c0.537-0.658,1.234-1.262,1.99-1.805c1.038-0.747,2.182-1.37,3.172-1.796c1.548-0.67,3.078-1.016,5.171-1.204
		c0.628-0.056,1.331-0.213,1.473-0.673C48.605,24.884,47.745,24.111,46.972,23.888z M46.746,36.465
		c-0.294,5.752-12.263,6.012-12.263,6.012C45.048,40.971,46.746,36.465,46.746,36.465z M22.473,30.143
		c-0.091,0.045-0.19,0.083-0.285,0.128c-1.248-1.149-6.485-3.654-12.422,0.083V13.729c1.348-0.774,3.163-1.245,5.167-1.245
		c4.163,0,7.54,1.364,7.54,3.905V30.143z M35.172,33.891c-0.604,1.987-2.906,3.333-5.428,2.979c2.298-0.765,4.204-1.977,5.524-3.887
		C35.289,33.254,35.252,33.625,35.172,33.891z"/>
</g>
</svg>
