<?xml version="1.0" encoding="utf-8"?>
<!-- Generator: Adobe Illustrator 16.0.0, SVG Export Plug-In . SVG Version: 6.00 Build 0)  -->
<!DOCTYPE svg PUBLIC "-//W3C//DTD SVG 1.1//EN" "http://www.w3.org/Graphics/SVG/1.1/DTD/svg11.dtd">
<svg version="1.1" id="Layer_1" xmlns="http://www.w3.org/2000/svg" xmlns:xlink="http://www.w3.org/1999/xlink" x="0px" y="0px"
	 width="56.693px" height="56.693px" viewBox="0 0 56.693 56.693" enable-background="new 0 0 56.693 56.693" xml:space="preserve">
<g>
	<path fill="#007ABF" d="M29.873,10.942c6.229,0.542,11.518,4.363,14.153,9.724l3.177,0.596l1.684-2.762
		C45.412,11.282,38.265,6.176,29.873,5.615l1.836,2.548L29.873,10.942z"/>
	<path fill="#007ABF" d="M12.402,21.21c2.426-5.397,7.507-9.339,13.575-10.166l1.85-2.802l-1.86-2.577
		c-8.479,0.882-15.583,6.431-18.712,14.022l3.407-0.904L12.402,21.21z"/>
	<path fill="#007ABF" d="M16.324,41.007c-3.355-3.188-5.462-7.679-5.462-12.66c0-1.142,0.119-2.256,0.329-3.337l-1.841-2.571
		l-3.229,0.857c-0.37,1.627-0.583,3.313-0.583,5.051c0,6.843,3.043,12.976,7.831,17.159l0.251-3.681L16.324,41.007z"/>
	<path fill="#007ABF" d="M50.312,22.299l-1.529,2.512l-3.484-0.654c0.333,1.345,0.529,2.744,0.529,4.19
		c0,4.335-1.596,8.298-4.219,11.356l0.442,2.987l3.359,0.735c3.561-4.024,5.741-9.296,5.741-15.079
		C51.152,26.25,50.846,24.228,50.312,22.299z"/>
	<path fill="#007ABF" d="M38.771,42.347c-2.915,2.177-6.516,3.482-10.425,3.482c-3.236,0-6.261-0.9-8.863-2.439l-2.823,0.855
		l-0.239,3.507c3.475,2.143,7.551,3.401,11.926,3.401c5.411,0,10.383-1.901,14.297-5.062l-3.428-0.748L38.771,42.347z"/>
</g>
<path fill="#007ABF" d="M19.922,21.135v10.487c0.034,0.23,0.24,1.228,1.178,2.441c1.427,1.851,3.915,3.377,7.195,4.426
	c3.287-1.049,5.772-2.575,7.199-4.426c0.938-1.214,1.142-2.211,1.18-2.441v-10.4c-5.726,0.679-6.975-1.752-8.379-3.018
	C26.938,19.428,25.259,22.244,19.922,21.135z"/>
</svg>
