<svg width="57" height="57" xmlns="http://www.w3.org/2000/svg"><path d="M35.956 3.715h.55c.515 0 .9-.101 1.156-.306.255-.203.384-.5.384-.887 0-.392-.108-.682-.322-.87-.214-.187-.55-.282-1.007-.282h-.761v2.345zm3.78-1.253c0 .85-.265 1.5-.797 1.949-.531.451-1.285.675-2.264.675h-.72v2.809h-1.673V0h2.521c.958 0 1.686.205 2.185.618.499.413.748 1.027.748 1.844zm-9.589 5.433h-1.646V0h4.526v1.37h-2.88v2.037h2.68v1.367h-2.68v3.12zm-4.55 0h-1.905l-1.07-4.148a19.26 19.26 0 0 1-.202-.915c-.095-.463-.15-.773-.164-.932a12.35 12.35 0 0 1-.162.937c-.087.43-.154.738-.2.921L20.83 7.895h-1.9L16.915 0h1.647l1.01 4.308c.176.797.304 1.486.383 2.07.021-.206.07-.523.15-.954.076-.43.149-.764.217-1.001L21.472 0h1.583l1.15 4.423a23.745 23.745 0 0 1 .362 1.955c.035-.282.094-.632.172-1.051.08-.418.152-.758.216-1.019L25.96 0h1.647l-2.01 7.895zm-4.093 27.461c-3.068 0-5.037.728-5.574.954-.033.014-.058-.031-.035-.056 3.373-3.504 7.319-3.311 8.268-3.311h11.223c.565 0 1.023.54 1.023 1.208 0 .665-.458 1.205-1.023 1.205H21.504zm2.527 3.102c-3.304 0-4.268-1.878-9.27-.639-.036.01-.059-.038-.03-.058 2.79-1.913 5.823-1.74 7.05-1.74h13.605c.565 0 1.023.54 1.023 1.206 0 .666-.458 1.206-1.023 1.206 0 0-8.738.025-11.355.025zm.236 3.053c-3.394 0-3.665-2.503-8.694-3.067-.035-.004-.04-.057-.005-.065 4.132-1.033 5.67.72 8.081.72h11.737c.565 0 1.023.54 1.023 1.206 0 .666-.458 1.206-1.023 1.206h-11.12zm-.737-9.233c-2.731 0-4.995 1.192-5.525 1.492-.03.017-.06-.019-.04-.046.443-.652 2.835-3.858 6.948-3.858h10.473c.565 0 1.023.54 1.023 1.207 0 .665-.458 1.205-1.023 1.205H23.53zm15.022-6.66a.76.76 0 0 0-.446-.207.743.743 0 0 0-.364.044 1.09 1.09 0 0 0 .103-.331.866.866 0 0 0-.085-.516c-.337-.74.629-2.221.507-2.287-.117-.065-.665 1.568-1.198 2.228a.93.93 0 0 0-.2.491.92.92 0 0 0 .086.516c.074.134.188.227.32.235a.28.28 0 0 0 .108-.006.271.271 0 0 0-.019.06.456.456 0 0 0 .143.39c.106.111.26.187.443.208a.774.774 0 0 0 .496-.094c.723-.395 2.222-.785 2.19-.924-.028-.138-1.49.72-2.084.192zm1.106-1.08a.635.635 0 0 0-.41-.2.66.66 0 0 0-.27.043c.014-.047.033-.086.038-.132a.736.736 0 0 0-.102-.464c-.367-.681.59-1.967.466-2.03-.124-.065-.65 1.375-1.181 1.944a.694.694 0 0 0-.2.427.776.776 0 0 0 .101.468.501.501 0 0 0 .341.23.54.54 0 0 0 .18-.021c-.003.008-.011.018-.009.026a.533.533 0 0 0 .14.401.643.643 0 0 0 .407.195.621.621 0 0 0 .435-.117c.623-.45 2.047-.716 2.01-.86-.033-.14-1.397.614-1.946.09zm.968-.999a.553.553 0 0 0-.39-.104.539.539 0 0 0-.198.05c.01-.03.029-.053.039-.083a.704.704 0 0 0-.024-.432c-.233-.668.797-1.656.696-1.737-.1-.075-.767 1.123-1.316 1.545a.645.645 0 0 0-.232.355.639.639 0 0 0 .021.43c.056.126.145.22.267.257.092.029.184.01.271-.027a.413.413 0 0 0-.024.17c.014.137.08.252.188.332a.572.572 0 0 0 .757-.067c.494-.5 1.723-.966 1.673-1.087-.053-.12-1.158.77-1.728.398zm1.905-2.145c-.103-.152-.963.79-1.6.881a.666.666 0 0 0-.36.18.704.704 0 0 0-.223.362.381.381 0 0 0 .056.326c.071.087.18.124.301.11a.654.654 0 0 0 .367-.181.748.748 0 0 0 .215-.358c.193-.647 1.32-1.222 1.244-1.32zm-17.79 1.277c-.026.093-.211.82-.211.82-.052.03-.274-.02-.333-.024-.424-.04-.803-.41-.64-.85.132-.36.406-.398.752-.414.143-.006.402.028.53.118 0 0-.05.166-.098.35zm-.487 2.193a6.794 6.794 0 0 0-.04.249c-.264-.166-.42-.545-.293-.845.097-.227.339-.286.517-.296-.064.296-.127.593-.184.892zm-.38 2.712c-.035.186-.286.21-.458.261-.499.15-.97.086-1.124-.51-.166-.638.317-.905.834-1.03.283-.067.543-.012.736.226.049.06.106.113.12.17 0 0-.077.707-.109.883zm-1.571-3.14c.385-.092.783-.237 1.079.143.312.397.209 1.035-.293 1.204-.33.112-.728.208-1.01-.061-.37-.353-.343-1.154.224-1.286zm-.377-2.067c.406-.099.825-.248 1.137.15.325.416.216 1.09-.309 1.266-.347.114-.768.216-1.063-.067-.388-.369-.36-1.21.235-1.35zm-.377 4.469c-.106.372-.412.427-.734.506-.211-.26-.778-.915-.788-.993a.206.206 0 0 1 .012-.09c.026-.078.116-.152.182-.194.193-.126.604-.22.826-.174.398.085.608.572.502.945zm-2.017-1.91c-.29-1.029 1.436-1.477 1.702-.468.275 1.038-1.467 1.478-1.702.469zm-.253-2.054c-.296-1.023 1.438-1.472 1.705-.468.274 1.04-1.47 1.48-1.705.468zm-.243-2.02c-.282-.953 1.346-1.376 1.594-.436.256.968-1.372 1.385-1.594.436zm-.165 3.888c-.08.047-.111.072-.137.072l-.775-.842c.01-.024.249-.198.328-.244.644-.358 1.174.666.584 1.014zm-1.47-1.898c-.383-.844 1.01-1.76 1.432-.85.388.84-1.005 1.771-1.432.85zm1.17-2.674c.442.783-.886 1.657-1.266.814-.338-.726.843-1.573 1.267-.814zm-1.112-1.825c.195-.173.422-.266.654-.155.372.18.382.737.058.96-.148.101-.398.227-.58.181-.399-.101-.475-.682-.132-.986zm.05-1.678c.161-.109.375-.206.56-.13.335.137.323.625.051.82-.123.088-.347.198-.498.158-.34-.086-.425-.638-.113-.848zm.892-2.39c.2-.108.488-.153.667.047a.47.47 0 0 1-.134.738c-.214.107-.502.147-.67-.05a.483.483 0 0 1 .137-.736zm-.159 1.816c-.16-.598.847-.88 1.01-.273.183.592-.849.885-1.01.273zm1.626 1.045c.234.646-.86 1.013-1.075.374-.218-.647.882-1.016 1.075-.374zm.137-3.15c.209-.084.477-.173.71 0 .29.217.227.705-.106.857-.22.1-.499.166-.694-.007-.248-.222-.261-.709.09-.85zm-.192 5.41c-.296.07-.606.187-.851-.067-.314-.323-.223-.89.201-1.044.275-.105.622-.163.847.066.287.295.256.935-.197 1.045zm.005-3.302c-.19-.641.854-.97 1.055-.348.205.64-.876.978-1.055.348zm1.75 1.175c.244.732-.993 1.122-1.22.401-.23-.736 1.015-1.128 1.22-.4zm.065-1.96c.218-.059.449-.037.615.14.253.273.166.738-.21.808-.175.032-.447.019-.585-.102-.248-.219-.236-.735.18-.846zm1.055 1.536c.398 0 .6.585.367.876-.14.177-.44.187-.646.156-.38-.06-.624-.548-.367-.88.155-.2.422-.152.646-.152zm-1.912 2.41c-.247-.842 1.184-1.219 1.403-.383.222.85-1.216 1.225-1.403.383zm.876 1.076c.39-.04.797-.13 1.036.278.25.433.063 1.034-.442 1.136-.334.069-.737.101-.975-.194-.311-.389-.187-1.167.38-1.22zm1.985-1.874c.482.199.645.768.305 1.086-.182.166-.515.133-.74.088-.448-.088-.741-.762-.348-1.082.202-.164.563-.184.783-.092zm.758 2.029c.304.372.19 1.028-.34 1.06-.277.017-.639-.016-.826-.243-.3-.363-.187-1.044.343-1.063.277-.01.636.02.823.246zm2.05-6.7a.121.121 0 0 0-.134-.05c-.064.02-.106.09-.082.151 1.212 3.255-.335 4.857-.981 7.136-.776-1.851 1.794-3.593.47-6.967a.136.136 0 0 0-.101-.085c-.065-.01-.129.018-.14.106-.034.238-.19 2.107-1.707 3.203a3.031 3.031 0 0 0-.707-1.026c-.14-.63-.55-1.496-1.417-1.752-.13-.326-.39-.794-.891-1.045-.473-.235-1.02-.213-1.626.062-.734.085-1.238.371-1.504.849-.25.451-.206.943-.122 1.278-.617.66-.646 1.636-.63 2.02-.367.88-.161 1.909-.045 2.336-.438 1.198-.01 2.359.16 2.744 0 .104.006.203.011.303-1.435-1.572-4.702-3.517-5.95-4.26a.15.15 0 0 0-.182.022.155.155 0 0 0-.008.219c2.784 2.715 5.268 6.065 7.653 13.016 1.189-1.238 3.34-2.864 6.401-2.864h3.58c-2.274-8.474 1.037-11.506-2.048-15.396zm16.928 4.381c-.655-.17-4.834-.91-9.518 7.705.683-3.209 2.76-7.09 3.33-8.218v-.008a.155.155 0 0 0-.042-.192.135.135 0 0 0-.19.035c-3.096 5.161-4.183 8.134-4.823 11.693h1.938c.33-3.43 4.663-11.512 9.28-10.91h.007c.026.005.049-.017.052-.04a.048.048 0 0 0-.034-.065zM34.06 46.555l-1.047-4.38h-1.784c.283 1.112.687 2.243 1.21 3.233.033.059.096.095.16.084.084-.011.15-.1.134-.191-.121-.926-.266-1.821-.403-2.714.377 1.403.887 2.773 1.573 4.035.018.04.058.058.094.045.05-.01.077-.064.063-.112zm1.803-1.988c-.182-.732-.372-1.63-.536-2.391h-.677c.263.812.62 1.718.936 2.493.032.075.103.112.172.093a.16.16 0 0 0 .105-.195zm.226 2.575l-.005-.01c-.219-.613-.521-1.16-.762-1.748a22.902 22.902 0 0 1-.71-1.767c-.172-.453-.354-.97-.493-1.441h-.655c.185.548.425 1.138.65 1.667.492 1.194 1.062 2.365 1.788 3.411a.102.102 0 0 0 .124.036.116.116 0 0 0 .063-.148zm.98-21.014c-.05-.075-.171-.091-.23-.03a13.419 13.419 0 0 0-2.158 3.086h.707c.353-.83 1.15-2.298 1.663-2.827l.005-.005a.181.181 0 0 0 .013-.224zm-5.382-6.078c.653-1.074 1.624-1.897 2.448-2.89a.1.1 0 0 0-.008-.129.084.084 0 0 0-.119-.003 11.65 11.65 0 0 1-.583.575c-.087-.043-.309.042-.533.218-.177.14-.304.295-.349.406-.113-.026-.327.108-.519.353-.158.207-.25.423-.249.556-.12.01-.298.166-.447.412-.099.163-.162.32-.183.451a1.234 1.234 0 0 0-.311.355c-.135.225-.203.452-.182.583-.032.056-.063.11-.09.166l.016-.134c.193-1.52.472-3.027.897-4.48.427-1.449.94-2.91 1.818-4.082l.005-.006a.167.167 0 0 0-.016-.211.138.138 0 0 0-.206-.003 6.66 6.66 0 0 0-.788 1.056c-.1-.054-.312.144-.473.454-.147.28-.2.539-.145.638 0 0-.002.009-.008.005-.105-.045-.3.19-.419.505-.116.297-.138.57-.058.66-.005.006-.005.009-.008.014-.119-.043-.312.227-.43.61-.098.323-.108.602-.038.715.006.005 0 .02-.005.016-.121-.043-.305.235-.414.614-.108.366-.1.69.003.753-.119-.013-.285.265-.372.642-.08.326-.071.606.005.719-.117.034-.245.306-.312.66-.063.344-.03.63.054.721-.109.056-.22.336-.26.684-.039.345.011.627.1.719-.089.1-.176.342-.212.63-.037.275-.014.513.039.647-.098.082-.172.36-.174.695-.008.266.031.493.1.624-.053.134-.09.329-.09.545-.005.281.04.52.11.646a42.41 42.41 0 0 0 .046 3.025h2.13c.015-.77.065-1.608.142-2.37.151-1.356.374-2.735 1.053-3.895l.005-.008a.114.114 0 0 0-.013-.128c-.04-.035-.096-.035-.132.008-.92 1.069-1.325 2.52-1.562 3.911a20.57 20.57 0 0 0-.108.82c.057-1.116.16-2.228.416-3.286.294-1.288.879-2.514 1.995-3.2a.1.1 0 0 0 .04-.113.093.093 0 0 0-.111-.066c-.07.02-.137.059-.205.088-.075-.091-.346-.024-.626.155-.266.173-.443.387-.425.505 0 .005-.013.013-.013.002-.002-.013-.005-.026-.013-.034-.1-.083-.37.104-.596.422-.23.318-.32.65-.223.735.006.002.003.01-.002.01-.118-.047-.316.222-.44.6-.09.263-.112.507-.08.646 0 .005-.004.01-.004.01-.093.304-.17.612-.24.924.025-.44.065-.884.128-1.322.188-1.261.568-2.495 1.244-3.548zm6.699-3.516a.75.75 0 0 0-.489-.038.805.805 0 0 0-.327.171.93.93 0 0 0-.018-.347.842.842 0 0 0-.253-.451c-.576-.574-.18-2.304-.315-2.325-.132-.018-.084 1.705-.356 2.512a.916.916 0 0 0-.018.532c.047.19.142.35.26.453.114.1.252.145.38.105a.223.223 0 0 0 .098-.043c0 .022 0 .043.003.064.03.142.13.251.267.315.14.067.311.083.49.038a.787.787 0 0 0 .43-.262c.541-.628 1.813-1.523 1.737-1.643-.076-.117-1.15 1.202-1.89.92zm2.458-2.177c-.081-.118-1.1 1.07-1.794.775a.639.639 0 0 0-.453-.043.707.707 0 0 0-.238.133c-.002-.048 0-.09-.01-.133a.715.715 0 0 0-.256-.4c-.581-.508-.125-2.053-.261-2.069-.14-.016-.138 1.52-.439 2.242a.69.69 0 0 0-.037.47c.042.17.138.313.257.403a.487.487 0 0 0 .396.094.474.474 0 0 0 .16-.083c0 .008-.002.018 0 .026a.532.532 0 0 0 .272.329.65.65 0 0 0 .815-.224c.43-.644 1.67-1.397 1.588-1.52zm.251-1.488c-.09-.094-.82 1.13-1.483.983a.554.554 0 0 0-.4.04.548.548 0 0 0-.17.118c0-.03.008-.06.008-.09a.68.68 0 0 0-.172-.397c-.445-.545.175-1.835.057-1.875-.122-.035-.333 1.322-.702 1.913a.626.626 0 0 0-.096.414c.01.157.077.3.17.398a.428.428 0 0 0 .337.144.373.373 0 0 0 .245-.12.44.44 0 0 0 .325.411c.124.04.272.03.403-.034a.607.607 0 0 0 .286-.294c.29-.644 1.279-1.518 1.192-1.611zm-.438-1.7c-.15-.106-.627 1.082-1.195 1.392a.693.693 0 0 0-.277.296.722.722 0 0 0-.08.418.367.367 0 0 0 .165.286.323.323 0 0 0 .316-.003.749.749 0 0 0 .36-.714c-.041-.672.817-1.607.711-1.675zM30.243 42.176h-5.976a6.192 6.192 0 0 1-1.11-.092c.983 1.46 2.521 2.566 4.08 3.308.24 1.33.542 2.562.65 2.659.11.095 1.641-.345 1.688-.487.044-.14-.625-2.42-.625-2.42.804-1.382 1.053-2.196 1.293-2.968zM45.278 52.4c-1.51.596-3.478.647-5.085.22-3.681-1.147-7.768-3.319-11.692-1.516-3.924-1.803-8.01.37-11.692 1.515-1.606.428-3.575.377-5.084-.219a.038.038 0 0 0-.037.067c2.171 1.68 5.214 2.453 7.953 1.463 2.63-.819 4.855-3.605 7.97-2.417-2.466.965-4.772 2.744-6.554 4.424L22.353 57c1.618-1.883 3.438-3.766 5.499-4.913.282-.165.451-.232.65-.243.197.011.365.078.646.243 2.063 1.147 3.884 3.03 5.502 4.913l1.295-1.063c-1.781-1.68-4.087-3.46-6.555-4.424 3.117-1.188 5.341 1.598 7.972 2.417 2.739.99 5.781.217 7.952-1.463.034-.03.006-.083-.036-.067zm-24.26-2.538c-3.847-.933-4.9-4.54-8.117-6.105-.034-.018-.071.023-.05.054 1.014 1.667 1.562 4.22 4.483 5.795.024.012.011.05-.015.042-4.19-.806-5.95.315-10.342-1.67-.036-.016-.076.024-.052.06 1.444 2.094 4.868 3.526 9.56 3.13 1.689-.143 2.912-.854 4.533-1.233.04-.011.04-.066 0-.073zM12.96 47.65c-1.462-1.915-1.045-6.004-4.346-9.747-.027-.03-.074-.006-.066.031.63 2.757.443 5.889 2.169 8.183.016.024-.008.048-.032.032-3.404-2.68-6.903-3.486-8.46-5.655-.023-.03-.07-.013-.066.024.386 2.808 5.78 7.184 10.771 7.192.03 0 .049-.034.03-.06zm-5.11-5.091c-1.568-2.907.305-7.342-1.474-11.651-.018-.045-.087-.034-.087.014-.053 2.353-1.514 5.867-.63 8.52.01.023-.022.036-.035.015C3.373 36.167 1.587 35.481.1 32.47c-.02-.045-.09-.033-.092.016-.095 2.046.81 3.714 1.83 5.263A17.484 17.484 0 0 0 7.8 42.611c.034.016.065-.019.05-.053zM6.784 24.856c-.003-.048-.066-.064-.09-.022-1.195 2.237-3.324 4.016-3.392 6.969-.003.029-.036.031-.04.005-.389-2.28-2.322-4.833-2.407-8.133 0-.05-.071-.063-.09-.015-1.59 4.29.698 8.358 3.133 11.72.026.033.078.013.078-.033-.1-3.561 2.987-6.22 2.808-10.49zm1.52-5.552c-1.13 1.569-3.67 2.678-4.6 4.94-.012.032-.052.024-.047-.013.37-2.536-.609-5.48.31-8.848.012-.048-.048-.08-.077-.043-1.388 1.707-1.858 3.708-1.935 5.87-.094 2.655.84 4.591 1.301 6.392.01.043.067.04.077-.003.665-2.36 4.002-3.782 5.048-8.256.013-.049-.048-.079-.076-.039zm3.064-5.273c-1.858 1.456-4.694 2.858-5.305 3.87-.01.022-.04.006-.036-.015l.689-3.305c.309-1.403.575-2.746 1.35-4.002.024-.037-.02-.08-.055-.053-3.535 2.8-3.018 6.85-3.174 10.165-.002.035.04.051.063.027 2.082-2.257 5.476-3.572 6.525-6.642.013-.037-.026-.07-.057-.045zM14 8.955c-3.124.099-5.419 2.73-6.403 6.08-.006.02.02.035.036.024 4.304-3.155 4.064-4.507 6.393-6.008.043-.027.025-.096-.026-.096zm36.022 39.023c-4.387 1.985-6.15.864-10.34 1.67-.026.008-.04-.03-.015-.042 2.92-1.574 3.47-4.128 4.483-5.795.02-.031-.017-.072-.05-.054-3.215 1.566-4.267 5.172-8.117 6.105-.04.007-.04.062 0 .073 1.62.379 2.844 1.09 4.533 1.233 4.692.396 8.119-1.036 9.56-3.13.024-.036-.016-.076-.054-.06zm4.753-7.485c-1.556 2.169-5.055 2.976-8.46 5.655-.02.016-.047-.008-.029-.032 1.724-2.294 1.536-5.426 2.167-8.183.008-.037-.04-.06-.066-.031-3.298 3.743-2.884 7.832-4.343 9.747-.019.026-.003.06.028.06 4.993-.008 10.384-4.384 10.768-7.192.006-.037-.042-.053-.065-.024zm2.22-8.007c-.003-.049-.072-.06-.093-.016-1.488 3.01-3.275 3.697-5.522 6.986-.017.021-.045.008-.038-.016.884-2.652-.575-6.166-.63-8.519 0-.048-.07-.06-.087-.014-1.779 4.31.094 8.744-1.47 11.651-.018.034.013.07.047.053a17.494 17.494 0 0 0 5.961-4.862c1.02-1.55 1.927-3.217 1.831-5.263zm-.761-8.826c-.018-.048-.09-.035-.09.015-.084 3.3-2.018 5.854-2.405 8.133-.007.026-.038.024-.038-.005-.068-2.953-2.2-4.732-3.396-6.969a.046.046 0 0 0-.086.022c-.18 4.271 2.904 6.93 2.804 10.491 0 .046.055.066.082.032 2.432-3.361 4.72-7.429 3.129-11.72zm-1.19-2.45c-.077-2.162-.545-4.163-1.934-5.87-.029-.037-.087-.005-.076.043.918 3.368-.062 6.312.311 8.848.005.037-.037.045-.05.013-.929-2.262-3.47-3.371-4.6-4.94-.026-.04-.086-.01-.076.039 1.045 4.474 4.383 5.895 5.047 8.256.011.043.066.046.078.003.461-1.8 1.395-3.737 1.3-6.392zm-6.055-10.684c-.035-.027-.08.016-.056.053.776 1.256 1.042 2.6 1.35 4.002l.69 3.305c.006.02-.027.037-.037.016-.61-1.013-3.443-2.415-5.304-3.871-.03-.024-.072.008-.058.045 1.05 3.07 4.443 4.385 6.526 6.642.023.024.065.008.063-.027-.156-3.315.361-7.365-3.174-10.165zM43 8.956c-.05 0-.067.068-.027.095 2.33 1.501 2.09 2.853 6.394 6.008.018.011.042-.005.036-.024-.984-3.35-3.28-5.981-6.403-6.08z" fill="#0A6EB4" fill-rule="evenodd"/></svg>