<svg xmlns="http://www.w3.org/2000/svg" viewBox="0 0 310.62668 377.94666" height="377.947" width="310.627"><defs><clipPath id="a"><path d="M0 2834.65V0h2329.69v2834.65z" fill="#000000"></path></clipPath></defs><g clip-path="url(#a)" fill="#fff" transform="matrix(.13333 0 0 -.13333 0 377.947)"><path d="M1340.5 2131.16c12.51 27.07 24.09 48.62 40.8 74.31 7.37 11.32 15.69 19.21 23.11 30.67-3.56 1.02-8.73-1.91-10.97-3.5-7.42-5.38-10.77-14.13-16.72-18.8-14.02-11.08-13.62-21.11-20.98-26.28-6.57-4.64-8.46-7.69-13.06-14.9-3.08-4.83-5.34-8.73-8.59-18.23-1.16-3.43-3.45-.4-8.94-7.94-7.18-9.8-10.39-20.38-13.38-32.26-.96-3.9-7.59-5.96-11.84-14.07-5.73-10.92-9.46-21.03-11.93-36.95-.6-3.69-6.83-6.25-11.15-16.53-3.05-7.23-5.22-8.82-7.9-22.45-1.63-8.31-5.43-9.51-9.7-21.57-3.29-9.2-3.42-18.06-4.57-30.08-.27-2.33-4.21-6.95-7.85-13.69-6.09-11.26-5.89-18.78-8.31-30.41-.92-4.2-5.63-9.76-10.17-27.78-3.99-15.99-.34-26.59-1.68-34.46-3.52-20.45-7.05-38.21-5.14-58.35.94-9.85 2.44-20.01 1.78-29.48-1.88-29.7-3.48-54.17-3.32-87.83.1-18.32 1.54-43.41 4.3-64.29 3.05-23.06 7.45-41.06 7.45-41.06h75.14s-2.94 43.44.96 89.19c2.29 27.41 8.83 56.47 14.75 76.88 7.51 26.04 12.18 39.51 26.37 73.85.29.76-.1 3.98-3.85.83-7.84-6.58-14.37-12.37-20.56-21.69-9.47-14.25-15.22-25.99-22.88-40.63-8.95-17.02-13.88-31.84-23.11-52.52-.55 14.92 1.88 29.13 4.89 42.87 3.12 14.04 5.59 25.16 9.99 37.26 7.83 21.35 15.43 39.17 27.98 59.03 7.29 11.47 16.59 21.77 26.02 30.32 11.29 10.33 21.73 19.4 33.55 29.5-12.41 6.4-28.95-6.96-32.26-7.65-17.48-3.41-24.58-19.61-29.95-21.83-7.63-3.19-12.06-7.87-17.38-14.32-4.08-4.86-5.29-12.33-9.58-14.98-7.14-4.45-12.36-11.15-17.26-20.51-2.02-3.86-7.49-22.13-13.6-19.78 10.42 61.93 32.29 120.01 67.37 171.7 22.26 32.77 46.47 60.88 82.12 86.1 4.7 3.33 5.63 4.89-.93 4.66-33.35-4.06-35.38-19.28-40.87-20.71-5.21-1.35-11.65-7.52-15.78-11.53-7.41-7.33-7.27-13.5-10.12-15.43-6.08-4.25-10.67-8.66-14.82-16.02-2.17-3.85-5.85-12.3-9.11-14.24-8.55-4.96-16.85-12.19-20.98-19.99-3.06-5.7-4.27-11.89-8.26-17.49-4.26-6.02-10.24-10.53-15.36-14.88 3.9 26.46 16.37 57.82 24.95 84.87 11.55 36.12 25.54 68.95 41.33 103.07M1417.21 1916.66c28.45 63.86 58.38 111.91 97.26 168.11 5.09 7.37 9.65 14.58 14.09 21.49 1.99 3.11 11.55 16.85 13.55 19.77 13.04 19.68 18.52 25.7 31.87 44.52 3.61 5.12 6.53 9.13 8.07 15.04 2.85 11.01-6.61 18.39-8.77 28.96-2.22 10.79-1.02 22.57 3.94 31.68 3.11 5.7 6.18 7.93 9.32 15.58 6.05 14.73 3.96 46.59 10.87 47.42-1.75-15.12-2.15-32.12.22-46.62 2.77-16.93 13.05-27.19 17.28-45.12 11.42 2.06 23.84 1.57 33.44.74 9.55-.82 21.61 1.83 31.41 5.18 13.26 4.53 24.27 12.78 37.79 15.98-11.5-11.05-27.73-15.2-41.32-23.59-5-3.14-9.71-7.28-13.06-12.45-5.48-8.51-9.79-16.64-18.33-20.37-15.22-6.63-28.25-3.49-45.59-6.71-25.76-26.54-50-62.63-72.38-100.59-56.74-95.96-104.02-195.36-131.54-297.28 9.52 17.73 18.61 34.88 28.91 51.75 11.38 18.74 24.17 37.09 38.13 55.47 32.65 43.05 64.97 80.64 101.16 120.19 29.23 31.96 61.25 58.76 96.97 81.18 47.19 29.57 105.41 50.28 156.57 39.6 5.81-1.36 14.14-2.91 17.77-6.73-64.12 8.97-121.55-13.43-164.4-47.75-33.86-27.08-62.39-54.56-91.4-90.27-14.98-17.21-28.45-36.13-41.84-54.45-14.01-19.27-26.43-39.55-38.77-59.83-41.54-68.61-72.98-141.25-96.09-216.51-.67-2.39-.81-4.78-1.49-7.15 1.12 1.68 2.74 3.52 3.81 5.24 31.14 50.61 68.58 99.45 115.97 132.22 4.13 2.83 8.47 8.26 9.56 12.54 5.15 20.09-10.18 29.74 11.02 57.51 4.85 6.39 11.49 8.71 16.08 14.64 8.68 13.4 15.75 37.41 23.01 43.86-3.64-15.64-12.63-32.14-14.53-48.26-2.03-17.68 2.49-32.14 3.27-50.88 12.53-1.71 22.21-7.01 32.03-10.04 15.28-4.77 24.46-3.56 39.57-2.25 6.46.54 18.15 4.31 25.11 2.89-14.61-7.98-34.34-6.51-49.28-14.14-10.46-5.36-13.5-13.27-27.92-16.05-12.84-2.5-23.63-1.16-31.98 3.12-6.49 3.27-11.57 4.64-17.4 1.85-15.55-7.47-26.17-18.02-38.69-30.65-29.09-29.26-52.82-61.92-74.98-104.75-5.84-11.39-11.11-22.64-16.12-34.24-2.47-5.66-8.59-21.34-8.59-21.34h-75.97s-.21 21.9.51 29.91c1.46 15.94 3.61 27.75 6.72 43.93 4.4 23.27 8.73 44.37 14.75 66.94 5.89 21.96 12.22 42.56 19.74 63.65 15.72 43.96 32.4 86.06 50.67 127.06M682.56 1324.82c27.72 22.67 48.26 35.82 75.948 52.32 11.238 6.72 28.25 14.33 41.336 20.25 47.988 21.69 111.465 37.68 171.27 38.77 1.08 0 1.015-.04 1.015-.04h445.91s-1.68.04 1.55.04c14.18 0 28.24-4.93 36.92-13.12 8.7-8.26 12.86-20.99 15.13-33.63 1.93-10.79.98-20.38-1.53-31.91-1.95-9.1-3.44-14.53-8.5-22.27-3.08-4.7-5.97-7.93-11.67-12.48-5.86-4.68-14.16-6.3-23.69-6.4-.99-.04-3.11-.1-3.04-.08.09.08-521.562.08-521.562.08s-3.25.01-4.87.01c-34.16.12-70.098-1.62-103.848-6.04-25.828-3.52-51.73-7.55-76.707-14.06-31.504-8.22-61.836-19.61-92.13-30.9 16.786 22.31 36.173 41.24 58.466 59.46" fill="#000000"></path><path d="M837.395 1502.23c27.39 19.78 60.652 36.02 90.105 47.31 14.96 5.66 34.824 11.93 50.605 15.86 19.063 4.81 40.965 8.41 58.825 8.94 5.39.15.79.04.79.04l382.46.04s8.18-.44 11.04-.99c7.18-1.55 12.98-4.49 15.4-6.02 5.93-3.8 13.38-11.81 17.27-18.14 9.95-16.36 11.7-34 8.49-52.36-3.68-20.98-19.61-44.88-41.24-45.46-3.76-.1-11.28 0-11.28 0h-414.23s-24.107-.47-35.122-.87c-20.38-.8-42.957-3.12-60.75-5.74-15.227-2.19-30.078-5.07-45.317-9.15-51.06-13.79-95.448-39.7-141.85-59.84 31.25 54.64 73.53 96.49 114.805 126.38M623.438 1242.29c66.484 39.27 146.582 54.77 219.882 57.23 1.746.08 5.227.19 5.227.19l571.743-.04s1.03 0 6.21.04c34.64.04 47.29-34.35 47.14-62.16-.07-9.14-1.62-18.49-4.15-24.77-3.3-8.19-6.96-14.87-12.91-21.32-2.11-2.35-9.79-7.74-13.18-8.57-7.92-1.93-17.66-1.72-17.59-1.72.06 0-425.27-.07-425.27 0 0 0-22.942.93-38.88 2.46-11.465 1.14-20.176 2.34-32.082 4.6-29.285 5.81-53.562 15.36-78.926 23.18-16.914 5.22-34.714 9.12-53.27 11.92-34.14 5.24-71.413 7.62-105.89 5-43.855-3.25-82.847-11.85-124.558-25.08 7.05 11 36.378 27.12 56.504 39.04" fill="#000000"></path><path d="M931.395 1063.01c-19.54 6.89-38.614 15.78-55.72 27.08-22.277 14.75-33.202 26.47-62.003 39.78-24.656 11.39-44.324 22.62-78.7 35.08-16.574 6.02-43.44 14.27-66.476 18.23-32.91 5.58-64.64 8.03-64.64 8.03s6.73 4.18 10.773 5.43c33.593 10.23 63.253 15.22 97.74 17.77 30.247 2.26 58.028-.69 88.353-5.42 12.44-1.97 28.613-5.8 42.668-9.82 45.64-12.98 97.54-33.58 143.55-33.66 2.572 0 2.29.05 2.29.05h426.3c12.88.03 36.95-4.13 46.6-21.21 11.2-19.69 14.68-43.13 5.27-66.6-2.84-7.06-7.56-17.16-14.37-23.29-5.96-5.4-15.66-8.86-21.28-8.86-1.61-.08-4.37 0-4.37 0h-371.7-2.03c-38.01 0-85.857 4.6-122.255 17.41M1100.71 931.16c-10.51 10.8-25.01 27.352-38.14 43.04-25.23 30.09-36.53 57.18-36.53 57.18h247.92s.66-28.61-5.08-61.72c-5.36-30.762-16.72-63.18-28.79-86.672-.45-24.078 9.72-46.468 11.39-70.25-20.37-12.5-42.27-24.886-60.52-42.437-1.16-1.062-3.05-1.062-3.82 1.83-9.78 36.67-14.93 69.358-22.95 105.6-22.6 17.48-43.78 33.032-63.48 53.43M1356.22 951.512c-7.04 12.937-12.26 30.04-20.31 40.207-1.72-9.06.4-14.66-.82-23.33-1.14-7.28-7.1-4.25-8.3-.83-3.47 9.838-7.19 21.98-10.35 32.07-5.29 16.81-6.99 31.69-6.99 31.69l41.24.06s1.59-.39 2.32-4.42c1.97-10.39 1.5-20.52 4.35-32.562 3.64-15.52 8.36-29.68 14.06-44.136 4.94-12.73 11.34-25.57 16.55-38.223.7-1.66 1.05-4.84-.21-6.5-1.54-1.93-4.17-1.68-5.68 0-11.81 13.42-16.58 28.62-25.86 45.972M1420.04 922.02c-7 14.95-16.88 31.76-16.02 48.71 4.58-5.968 6.43-10.27 12.72-13.62 2.87-.91 8.9-.06 7.39 4.96-2.78 9.352-7.08 17.258-11.07 30.078-5.93 18.962-11.67 39.212-11.67 39.212l-42.1.02s2.35-17.08 11.92-43.29c8.38-23.23 21.38-49.79 35.6-74.668 11.59-20.5 22.12-38.363 35.25-53.32 4.51-5.153 15.54-.633 10.77 6.066-12.47 17.633-24.11 37.172-32.79 55.852M1693.4 2344.9c-9.13-3.97-17.21-9.13-21.76-17.91-3.33-6.31-5.55-15.92.78-21.33 11.12-9.49 24.37.22 29.75 9.92 6.79 12.34 5.03 35.95 5.03 35.95s-7.9-4.11-13.8-6.63" fill="#000000"></path><path d="M1703.06 2285.97c4 7.53 12.74 15.67 22.34 21.5 10.84 6.63 22.07 13.07 29.88 17.72 7.81 4.7 9.29 7.99 9.29 7.99s-6.43-2.21-9.96-4.3c-19.26-11.49-40.32-24.55-48.86-28.32-10.8-4.71-25.48-5.62-38.69-7.31-2.11 16.69-6.46 23.62-6.4 38.44.11 7.11 1.84 16.34 3.03 22.77 4.15 21.43 4.96 32.25 4.96 32.25s-3.28-3.05-4.47-12.48c-1.34-8.52-2.3-11.66-4.25-21.73-2.24-11.63-4.54-21.48-11.51-28.74-10.01-10.36-19.29-28.82-11.55-42.96 4.51-8.26 12.03-7.06 14.39-9.19 2.36-2.12 3.78-7.2 10.92-9.57 15.4-5.14 32.83 8.66 40.88 23.93" fill="#000000"></path><path d="M1683.11 2241.89c5.22 8.49 10.59 14.43 18.82 19.49 13.66 8.32 23.79 13.97 32.13 18.23 3.61 1.81 6.63 3.97 7.55 7.83-3.72-1.4-17.84-8.02-31.85-16.35-10.02-5.99-27.26-13.46-38.85-14-4.58-.2-7.99.93-11.74 1.05-7.76.32-17.66-1.55-17.66-1.55s-2.51 10.98-5.81 18.89c-1.67 4.05-4.36 8.21-5.81 15.82-.97 5.08-1.26 12.7-.87 17.25 1.13 13.73 4.84 27.07 4.21 40.97-8.63-17.93-5.12-40-15.24-53.88-4.26-5.83-7.65-10.43-11.02-17.78-5.55-12.06-4.89-24.55 2.62-36.18 4.34-6.63 13.91-6.38 15.56-7.66 2.51-1.86 4.66-8.79 14.01-10.88 16.02-3.59 34.9 3.83 43.95 18.75M1687.59 1891.3c3.72 7.54 6.13 17.42 10.88 24.41-10.75-1.61-12.5-2.84-28.03-4.55-3.38-.32-10.42-3.84-12.72-6.15-6.15-6.21-11.51-11.97-9.14-22.38.93-4.05 4.5-7.02 6.49-7.64 12.92-4.21 26.06 3.48 32.52 16.31" fill="#000000"></path><path d="M1700.71 1870.78c14.69 3.43 31.67 10.64 38.47 8.37-13.78-7.33-31.17-9.99-46.43-14.35-11.66-3.35-19.97-12.16-30.39-20.15-9.53-7.27-22.24-10.22-33.59-4.88-3.82 1.82-7.54 7.99-8.2 11.28-.59 2.63-6.06 5.27-8.89 7.58-2.84 2.36-4.19 8.25-4.26 10.53-.48 20.33 15 28.54 29.9 40.49 11.23 8.99 25.81 47.16 34.7 55.07-1.58-12.3-17.58-35.51-24.54-53.58-5.54-14.39-3.73-25.89-7.29-41.04 10.65-.68 22.53-2.92 33.26-3.09 8.44-.11 18.61 1.72 27.26 3.77" fill="#000000"></path><path d="M1685.23 1839.43c-8.25-1.53-18.34-4.13-25.23-5.59-23.96-5.07-35.4 6.66-54.54 6.44 1.69 21.9-5.91 31.71.35 45.87 5.58 12.6 10.75 25.94 15.55 36.62 3.89 8.56 5.07 15.79 5.07 15.79s-5.81-8.69-22.3-40.86c-5.76-11.22-16.03-13.63-25.17-24.23-10.5-12.12-16.52-37.75 2.9-48.51 3.86-2.12 3.3-8.78 6.11-11.47 12.99-12.21 39.2-10.98 55.59 3.9 13.05 11.89 28.91 13.82 42.41 17.32 7.91 2.05 14.84 5.4 14.84 5.4s-3.75 1.54-15.58-.68M1205.24 1585.19c-.97 0-1.98 0 0 0zm-111.9 315.54c-7.99-10.56-11.68-22.7-20.49-31.92-4.61-4.83-11.63-2.57-15.27 2.99-4.05 6.29-10.6 15.18-5.74 21.4 8.01 10.26 24.75 16.81 39.01 14.96.84-.1 5.43-3.49 2.49-7.43zm-38.33-60.39c-4.47-11.96-17.8-13.25-29.15-15.62-2.12-.46-8.65 0-11.56 2.87-4.91 4.8-9.15 11.35-8.3 19.54.46 5.06 4.68 10.02 9.91 12.03 9.46 3.67 20.69 9.57 30.03 4.33 8.02-4.49 12.23-14.72 9.07-23.15zm-24.56-63.22c-3.26-4.71-11.64 10.95-12.73 18.13-3.13 20.76 15.06 26.06 30.24 25.42.47-12.39-9.13-31.57-17.51-43.55zm-16.38-56.03c-2.98-8.35-4.4-16.04-7.72-23.69-3.23-7.4-16.975-10.04-24.612-7.67-10.898 3.37-20.234 27.83-7.85 37.2 9.48 7.08 19.288 8.22 31.352 9.7 2.17.26 10.28-.23 10.6-.99 2.02-5.07.74-7.61-1.77-14.55zm-18.34-64.58c-2.195-6.43-3.18-13.03-6.01-19.2-1.427-3.12-3.302.98-3.372 1.19-4.286 10.64-6.973 19.66-3.328 29.03 2.058 5.18 9.168 9.95 15.898 10.37-.41-6.67-.883-14.9-3.188-21.39zm-21.66-31.5c-4.91 2.23-4.84 8.55-6.89 12.49-1.946 3.84-6.145 9.12-4.414 14.16 9.492-5.32 13.906-14.83 11.304-26.65zm-16.375 39.32c-11.34 9.31-12.312 24.21-19.863 35.61 8.328 5.33 22.395 4.26 26.7-6.29 3.456-8.48 5.976-20.94-2.618-27.41-.937-.69-3.144-2.81-4.22-1.91zm-42.246 76.84c-1.7 2.43-5.067 9.43-2.5 10.32 20.28 6.98 35.495 7.21 39.823-14.49 3.08-15.48-7.492-28.77-22.324-23.36-4.25 1.58-8.47 18.07-15 27.53zm-29.505 49c-1.425 1.78-2.566 7.17-.79 8.55 10.536 8.48 26.03 9.13 38.01 7.96 15.812-1.44 19.062-16.13 16.413-28.32-3.473-16.04-27.793-18.03-34.683-15.36-6.77 2.6-11.497 17.93-18.95 27.17zm3.45 57.03c13.67 8.85 39.793 15.42 44.152-8.57 1.308-7.23-.5-16.83-10.266-19.97-10.026-3.22-21.842-6.69-31.014-2.97-11.258 4.61-13.49 24.65-2.87 31.51zm-14.16 40.35c1.035 4.61 6.12 6.78 10.41 7.88 11.066 2.73 23.437 6.85 33.574.38 3.97-2.5 4.264-6.04 4.784-11.02.898-8.06-.242-14.65-5.56-17.74-10.776-6.32-21.733-6.89-34.256-4.43-10.157 2-10.985 15.47-8.954 24.93zm-11.34-62.21c-9.46 7.01-13.66 16.91-20.64 26.72-1.685 2.4 0 3.39 1.296 3.76 16.817 4.76 29.266-3.63 26.673-21.96-.48-3.56-2.785-11.85-7.328-8.52zm-46.383 56.61c-6.313 5.45-1.926 14.92 3.562 17.68 9.61 4.77 24.72 5.49 34.696 2.12 6.45-2.16 9.7-11.39 8.54-21.46-.482-4.13-1.732-8.68-3.763-10.02-7.61-5.19-19.387-5.39-28.652-3.47-6.55 1.39-8.887 10.34-14.383 15.15zm-7.258 57.25c6.094 13.25 28.308 13.37 40.398 7.46 9.856-4.85 11.094-23.19.332-30.42-8.582-5.72-22.117-3.62-31.218-1.95-12.942 2.38-13.973 15.1-9.512 24.91zm.488 49.6c9.238 8.79 21.192 4.75 32.305 3.22 2.156-.3 4.72-1.82 6.172-3.27 7.59-7.67 8.19-20.24-.267-26.53-9.742-7.25-21.91-2.54-33.64-1.95-3.165.13-6.64 3.85-7.364 6.23-2.11 7.43-3.388 16.5 2.792 22.3zm5.946 41.5c9.796 4.09 26.632 5.97 33.578-5.03 4.254-6.74 3.015-19.22-3.813-21.04-6.695-1.72-29.46-5.5-34.91 7.09-2.695 6.19-1.555 16.16 5.145 18.98zm30.16 35.26c2.847-1.26 4.605-3.53 5.27-7.01 1.398-7.55-.587-15.75-7.833-17.07-10.887-1.99-27.058-2.62-27 12.77.05 17.18 16.953 16.99 29.563 11.31zm-21.907 31.92c5.79 2.22 15.326 1.72 20.52-.99 2.626-1.37 6.16-5.68 4.67-10.22-1.85-5.93-7.357-8.07-13.638-8.14-6.012-.06-12.906.42-15.347 5.34-2.305 4.65-1.32 12.04 3.796 14.01zm6.76 25.74c5.292 1.93 13.124 1.8 16.984-2.38 5.3-5.79 1.12-15-8.887-14.54-3.527.15-7.695 1.36-9.836 2.58-5.155 2.91-3.444 12.49 1.74 14.34zm23.808 16.59c.683 2.23 4.172 4.85 5.996 5.49 3.965 1.41 8.613 1.7 12.422.19 7.597-3.13 6.562-12.53-1.563-15.83-3.633-1.48-9.218-2.42-11.953-1.48-5.105 1.74-6.53 6.18-4.902 11.63zm23.69-36.77c-8.3-2.42-19.85-2.89-22.323 5.61-4.207 14.42 14.004 16.58 23.437 13.55 6.524-2.06 8.82-16.3-1.113-19.16zm5.49 47.64c2.617 8.93 12.753 13.78 21.92 11.05 7.904-2.31 9.72-13.06 4.388-18.28-2.41-2.36-6.406-4.74-10.703-5.69-9.387-2.09-18.594 3.07-15.605 12.92zm41.25-32.8c-1.485-5.83-5.77-9.84-12.618-11.36-6.797-1.49-16.21-1.9-19.98 2.3-3.606 3.98-5.254 9.57-2.266 13.87 6.035 8.56 17.063 11.56 26.887 9.38 5.595-1.31 9.728-7.05 7.978-14.19zm-3.665 34.31c3.665 8.11 12.954 12.19 21.887 9.47 1.778-.57 5.457-3.45 5.97-6.29 1.06-5.64-.9-10.79-5.6-13.74-6.046-3.84-11.022-6-17.948-3.17-5.203 2.18-6.484 8.94-4.31 13.73zm38.45-22.77c4.062-6.91-2.13-13.84-5.285-15.74-6.993-4.09-16.844-6.6-21.05.32-4.146 6.8-.716 14.86 6.503 17.85 6.903 2.86 14.044 7.2 19.833-2.43zm11.582-26.38c4.55-3.77 8.574-11.7 3.093-17.97-5.132-5.9-11.51-7.66-19.597-8.97-5.448-.93-12.433 3.11-13.3 7.94-.82 4.14-1.57 11.71 2.527 15.2 8.032 6.83 18.79 10.79 27.278 3.8zm9.668 44.98c4.316-1.27 7.07-5.82 4.902-10.22-1.31-2.7-5.176-5.64-7.637-7.16-6.777-4.16-12.566-2.46-14.707 2.52-3.885 9.14 9.22 17.29 17.443 14.86zm16.496-22.79c4.76-.42 6.94-3.73 7.88-7.36 1.22-4.87-.38-9.37-4.49-12.14-4.895-3.25-11-5.17-15.864-5.25-6.6-.1-12.703 9.57-9.14 15.86 3.796 6.73 13.312 9.61 21.613 8.89zm27.29-34.89c2.8-8.28-3.28-12.14-9.66-15.54-6.5-3.47-15.23-6.71-19.745-2.39-5.757 5.43-8.328 14.58-1.902 20.6 8.907 8.37 25.407 14.65 31.307-2.67zm11.77-20.77c10.46-1.33 12.54-16.2 10.43-21.58-2.39-4.62-7.66-8.24-10.43-9.66-7.68-3.95-16.64-5.45-23.68-1.8-6.44 3.33-9.22 13.09-5.72 20.73 4.71 10.34 19.61 13.6 29.4 12.31zm21.51-46.04c3.6-5 2.82-13.88.68-16.66-6.59-9.01-24.95-14.16-32.53-10.47-5.76 2.82-11.44 15.5-4.71 23.11 7.02 7.9 19.23 12.61 30.32 10.3 2.46-.54 4.09-3.27 6.24-6.28zm4.65-28.37c5.03-.54 9.51-6.07 11.94-12.11 3.17-7.8-.03-16.89-2.53-18.59-6.02-4.09-25.07-15.56-37.08-8.69-6.6 3.79-8.42 12.44-8.83 17.55-1.33 16.5 23.72 23.27 36.5 21.84zm-70.39-118.09c-2.577 6.55-4.948 16.24.196 20.22 10.394 8.19 33.904 15.37 42.834 2.97 5.82-8.05 4.11-21.69-6.07-26.92-10.5-5.36-31.04-11.54-36.96 3.73zm-50.417-.72c10.43 5.3 25.47 11.7 36.687 4.46 5.15-3.29 10.442-16.95 6.825-23.01-7.696-12.88-27.965-16.15-40.848-12.85-10.977 2.85-14.27 25.53-2.664 31.4zm-9.375 44.49c12.578 8.86 37.45 14.57 43.418-4.77 1.558-5.02 2.45-10.57-.11-14.62-6.98-11.21-24.668-14.16-36.496-12.49-12.82 1.85-18.855 23.43-6.812 31.88zm-10.598 45.07c12.09 6.86 37.852 15.97 43.938-3.67 2.422-8.03 2.175-17.95-4.7-21.49-9.85-5.16-25.468-10.58-36.804-3.5-9.485 6-10.766 23.89-2.434 28.66zm67.688 81.04c-5.078-4.53-10.215-5.5-16.946-7.79-9.44-3.2-19.316 4.08-20.41 13.1-1.816 15.45 14.746 17.76 25.71 19.69 7.99 1.44 12.943-5.73 14.415-10.56 1.504-4.64 1.313-10.87-2.77-14.44zm20.312-36.37c-7.2-10.72-36.176-17.46-42.558-6.44-4.668 8.06-7.59 19.39 1.19 24.8 9.228 5.66 20.146 9.05 30.858 7.12 10.09-1.77 15.22-18.36 10.51-25.48zm15.44-66.34c4.13-6.55 7-15.38.87-23.52-5.54-7.45-25.36-10.94-35.5-8.48-5.568 1.4-8.204 8.16-9.064 12.73-1.172 6.17-1.738 12.38 3.74 17.41 7.85 7.2 18.344 7.05 28.394 7.05 4.15 0 10-2.7 11.56-5.19zm-5.76 22.26c-6.18-11.34-27.094-12.8-36.496-11.54-6.633.88-11.29 11.56-11.098 20.5.07 4.6 1.508 7.65 4.65 9.33 10.44 5.6 21.143 9.35 32.374 7.53 10.96-1.74 15.22-17.22 10.57-25.82zm-110.07 24.43c-7.122 21.88 20.21 28.77 36.168 25.41 11.105-2.32 14.816-23.66 4.472-30.39-12.77-8.32-35.457-11-40.64 4.98zm-41.21-53.73c8.178 8.44 22.956 8.97 34.506 7.42 7.082-.99 10.13-8.15 11.125-15.92 2.755-21.38-25.948-24.98-39.588-19.98-9.004 3.3-13.692 20.58-6.043 28.48zm-5.794 41.41c8.574 10.08 22.88 12.47 34.746 9.21 7.234-1.97 10.593-10.43 10.41-19.91-.137-5.38-3.81-9.29-7.13-10.65-8.417-3.42-18.163-5.96-27.362-4.84-11.348 1.4-18.223 17.26-10.664 26.19zm1.367 45.11c10.527 4.3 30.144 8.14 33.445-6.89 4.465-20.04-19.168-23.29-31.797-19.81-9.655 2.66-11.49 22.72-1.647 26.7zm75.73 33.09c7.87-4.47 9.516-17.08 4.74-24.39-6.376-9.67-28.146-15.28-39.857-6.81-6.68 4.85-10.27 24.73 3.4 29.5 10.948 3.82 21.424 7.53 31.717 1.7zm-11.16 14.39c-8.926-5.53-21.648-7.73-30.09-3.03-7.35 4.01-7.066 14.75-3.425 20.52 5.988 9.62 20.86 10.66 31.14 7.65 8.852-2.57 12.18-19.04 2.375-25.14zm-72.285 15.67c.906 2.86 2.18 3.68 3.945 4.55 7.52 3.58 15.762 4.54 22.942-.08 5.183-3.35 4.734-11.09.894-15.11-5.634-5.91-17.06-6.15-24.376-2.31-4.707 2.46-4.93 8.29-3.406 12.95zm2.402-31.35c3.32 9.49 15.15 8.96 24.102 7.8 11.016-1.44 13.23-15.56 9.316-21.5-5.41-8.2-17.754-6.63-27.59-5.38-7.988 1.02-8.457 11.6-5.828 19.08zm155.51-285.2c2.71-10.71 0-20.89-9.54-24.3-12.24-4.32-28.802-10.64-38.606-4.05-11.192 7.51-16.582 28.81-3.72 37.16 15.204 9.94 45.446 16.45 51.866-8.81zm-16.506 33.3c-8.242-9.35-21.672-9.04-34.85-12.91-5.103-1.47-11.134 3.02-13.802 7.68-4.863 8.7-9.746 20.36-.402 28.77 7.738 7.05 18.273 6.45 27.753 9.28 4.25 1.28 9.457 2.77 14.622-.72 10.675-7.29 14.835-22.91 6.68-32.1zm87.306 140.15c2.32-6.8 5.44-11.8 2.79-18.58-3.14-8.33-11.22-9.47-18.79-12.21-7.07-2.56-18.86-5.8-24.78.4-6.82 7.04-9.55 21.39-1.41 27.55 10.55 7.86 36.61 18.7 42.19 2.84zm143.29 61.18c6.22 25.39 13.95 51.14 15.89 77.97 2.85 40.08-5.8 81.73-31.5 112.08 2.53-13.08 5.88-24.14 7.64-37.88 2.08-16.59-.26-35.07-4.54-51.77-3.25-12.64-8.93-24.93-14.58-36.67-6.67-13.91-16.64-29.04-26.55-41.45-27.82-34.58-71.14-102.07-71.14-102.07s-3.65.26-5.79.26c-.5 8.4 19.45 37.22 29.51 53.35 22.09 35.35 38.82 54.37 58.04 85.03 12.04 19.33 21.23 42.84 24.18 64.16 5.99 43.43-17.42 95.47-51.1 112.79 7.7-32.44 6.9-78.16-10.36-97.4-32.71-36.42-52.14-63.69-75.46-110.39-.68-1.25-6.12 6.3-10.64 9.24-5.07 3.34-2.23 13.36-4.05 20.1-1.64 5.74-4.34 10.15-5.13 11.15-6.91 8.46-13.59 8.99-15.04 11.53-1.67 2.86-.87 10-6.9 18.14-3.01 4.08-10.67 7.11-13.79 10.96-3.38 4.2-4.91 17.05-14.22 22.32-4.42 2.48-6.472 10.19-10.71 13.97-13.086 11.59-26.153 9.35-28.66 10.08-3.372.91-9.934 9.27-21.633 11.28-11.426 1.95-17.735-5.68-23.66-2.91-14.907 6.88-29.153 7.45-44.993-10.19-4.746-5.24-12.96-.34-23.214-8.18-9-6.86-9.16-13.2-13.75-14.07-8.602-1.61-15.016-8.5-18.348-16.02-1.72-3.88-3.02-11.7-4.016-16.86-1.414-7.12-5.027-13.7-5.094-18.93-.082-7.27 2.223-11.21 1.57-14.47-1.054-4.71-4.862-9.03-5.34-13.44-.33-2.5-.55-9.16 1.27-12.91 2.293-4.62-1.6-8.64-3.632-13.56-1.938-4.58-3.965-12.42-3.364-17.95.832-7.59 5.176-10.37 1.797-16.35-5.535-9.72-12.527-24.88-.26-44.25 2.252-3.54-5.15-10.43-5.556-20.54-.46-11 6.172-19.12 7.984-24 .357-1.75-2.925-1.65-3.034-3.53-29.226 30.9-55.066 59.39-88.945 86.22-20.71 16.36-41.183 30.12-64.12 42.41-61.297 32.87-132.48 54.85-196.992 46.82 24.29-19.56 54.94-33.51 79.89-55.72 23.645-21.06 45.09-39.04 66.62-61.41 33.802-35.1 61.25-70.7 89.864-112.01 8.508-12.23 14.094-20.41 22.024-33.17 7.976-12.76 16.824-26.31 24.102-38.96 36.6-63.58 66.613-122.44 96.972-187.58 8.418-18.02 15.52-36.88 23.77-54.79 2.207-4.85 5.37-1.25 7.605 0 10.98 6.36 22.65 11.66 34.055 17.04 9.082 4.18 17.375 7.05 25.508 10.18 20.547 7.82 40.02 12.08 61.543 16.55 35.92 7.52 100.44 5.98 100.44 5.98l122.35.04h3.33c-1.28 35.06-9.61 69.14-11.63 104.31-1.55 28.5-.61 56.04.41 84.59 2.71 77.36 14.09 160.4 31.38 230.88M395.145 2295.17c-23.875-23.8-30.997-32.56-44.918-58.88-8.207-15.47-18.606-35.33-21.575-60.93 49.063 18.68 89.075 56.78 125.235 98.87 26.75 31.2 47.508 72.6 73.88 103.42-46.458-15.58-95.5-45.51-132.622-82.48" fill="#000000"></path><path d="M254.72 2228.26c18.495 31.24 44.975 65.01 72.436 88.06-12.715-28.57-28.38-56.88-33.765-90.68-10.687-67.26-20.753-114.38-31.913-175.78 30.515 21.76 62.683 55.95 95.04 79.82 24.987 18.36 50.045 30.63 75.75 48.3 15.292 10.54 25.245 24.08 37.96 36.76-15.16-63.83-71.172-128.26-111.282-158.31-50.383-37.79-68.45-43.81-149.425-126.14-10.282 101.66-8.446 207.32 45.2 297.97" fill="#000000"></path><path d="M89.53 1890.61c3.77 52.8 10.11 95.02 22.92 146.51 8.995 35.97 28.35 89.51 56.24 111.47-3.41-13.04-5.206-32.6-6.522-45.79-5.47-54.39 4.94-117.57 6.19-171.91.62-26.71.38-47.31-3.612-72.41-4.148-26.33-.69-58.62-.69-58.62s14.42 16.47 27.31 36.99c28.146 44.7 37.15 57.97 59.833 82.19 28.116 30.05 59.58 57.87 95.11 82.52-4.29-16.7-22.423-49.16-29.915-62.21-10.008-17.46-14.54-33.31-38.22-72.85-33.312-55.55-48.148-63.04-85.128-122.45-8.02-12.92-40.852-62.06-48.817-77.08-17.328 35.86-23.86 67.19-45.11 125.56-13.358 36.68-11.354 73.36-9.59 98.08" fill="#000000"></path><path d="M38.094 1615.93c-20.086 52.09-29.285 100.4-36.102 155.23-4.16 33.55-2.226 78.27 9.754 110.53 3.148-7.88 9.543-27.87 10.41-30.87 8.918-29.96 12.637-44.35 25.09-73.25 9.523-22.16 21.16-39.82 33.633-61.73 11.32-19.99 20.878-46.31 29.08-66.45 26.368-64.56 28.32-125.01 38.4-131.62 7.277 15.54 9.538 30.42 10.35 37.75 7.845 71.45 17.26 136.39 107.228 220.6 8.26-25.07 4.062-71.28-.887-96.03-10.753-54.12-19.445-80.11-43.273-132.56-12.605-27.62-29.422-68.27-34.043-81.73-12.082-35.07-16.21-53.44-23.82-74.2-42.47 70.79-94.754 143.89-125.82 224.33" fill="#000000"></path><path d="M108.125 1290.31c-30.234 42.11-41.27 63.27-60.95 108.07-16.53 37.61-21.284 51.54-30.964 93.64-5.284 22.94-8.28 43.77-4.17 57.35 23.683-42.88 39.835-90.86 70.812-126.41 24.597-28.21 48.27-52.24 67.824-76.05 29.988-36.59 53.61-71.22 82.39-109.3 2.422 19.09 3.36 38.44-.925 69.71-5.85 42.87-2.238 78 5.23 119.5 9.493 52.65 16.446 78.72 34.72 131.98 22.35-43.84 22.265-94.54 27.883-141.02 10.808-90.21-17.407-197.78-22.942-242.6-1.495-11.82.56-40.98 1.146-52.34-42.2 33.25-79.738 66.8-116.137 103.3-16.58 16.55-39.345 43.96-53.915 64.17" fill="#000000"></path><path d="M268.105 959.53c-19.218 13.84-70.84 53.31-95.285 84.36-35.6 45.21-43.445 64.58-66.922 116.59-2.87 6.35-16.17 35.78-17.253 55.77 76.94-92.9 145.828-106.74 219.226-183.83 26.927-28.24 54.513-54.83 69.07-68.158 11.185-10.274 25.052-13.403 25.052-13.403s-1.457 19.812-8.69 33.58c-48.966 93.61-58.212 191.45-50.782 296.46 22.35-27.67 29.406-46.15 43.585-72.9 15.426-29.16 23.297-47.18 30.497-65.13 41.906-104.27 52.812-224.74 78.703-285.358-79.914 26.918-142.844 41.308-227.2 102.02" fill="#000000"></path><path d="M595.84 713.45c-21.63-1.47-64.016-1.33-86.594 2.35-114.39 18.302-220.73 101.212-274.207 192.278 48.483-29.598 83.554-49.348 126.198-64.11 37.98-13.14 74.016-17.02 137.414-35.027 38.274-10.8 76.153-26.13 89.46-31.112 42.423-15.797 60.28-11.898 60.28-11.898s0 6.44-15.853 23.718c-31.57 34.46-43.138 42.71-69.11 69.204-8.528 8.75-28.078 38.476-38 58.226-28.075 55.89-31.192 100.692-56.825 162.072 93.543-54.94 139.13-130.74 188.583-226.322 15.207-29.258 35.78-63.066 54.57-81.656 12.637-12.473 30.437-31.422 30.437-31.422s-13.047-3.078-53.672-9.06c-18.21-2.678-57.046-14.76-92.683-17.24M1049.31 706.18c49.39-8.06 93.28-20.07 138.19-35.48 12.08-4.15 30.44-13.29 43.17-19.72 31.84-16.21 50.16-26.718 77.52-45.54 44.06-30.35 91.4-63.05 134.12-112.67.92-.97 7.82-8.348 3.2-11.96-8.35-6.548-28.97-15.912-35.84-9.84-39.08 34.75-37.11 45.89-84.47 88.768-12.15 10.953-30.48 26.3-52.4 41.293-21.38 14.618-47.22 30.6-71.22 42.45-21.82 10.73-55.42 13.93-74.29 13.93l.25-.13c-8.56.34-57.83.6-69.24-.132-96.796-6.628-92.062-15.296-147.87-30.41-45.926-12.488-95.164-21.398-144.075-27.957-50.078-6.8-94.89-7.62-141.843-2.82-63.653 6.552-133.282 24.29-185.242 57.77 47.515-.79 96.304-9.93 143.574-6.3 19.883 1.54 52.156 4.53 73.992 11.26 43.43 13.33 68.34 18.548 114.324 31.36 39.504 11 79.336 14.802 120.61 19.14 57.097 6.11 109.99 4.74 157.54-3.01M1934.51 2295.17c23.88-23.8 31.04-32.56 44.96-58.88 8.18-15.47 18.6-35.33 21.56-60.93-49.08 18.68-89.06 56.78-125.25 98.87-26.77 31.2-47.49 72.6-73.86 103.42 46.45-15.58 95.49-45.51 132.59-82.48" fill="#000000"></path><path d="M2074.99 2228.26c-18.52 31.24-45 65.01-72.46 88.06 12.85-30.75 31.57-69.05 33.76-90.68 6.82-67.73 20.75-114.38 31.92-175.78-30.5 21.76-62.73 55.95-95.05 79.82-24.96 18.36-50.03 30.63-75.7 48.3-15.34 10.54-25.28 24.08-38 36.76 15.14-63.83 71.17-128.26 111.3-158.31 50.36-37.79 68.42-43.81 149.35-126.14 10.29 101.66 8.47 207.32-45.12 297.97" fill="#000000"></path><path d="M2240.15 1890.61c-3.8 52.8-10.06 95.02-22.92 146.51-8.97 35.97-28.35 89.51-56.29 111.47 3.46-13.04 5.23-32.6 6.57-45.79 5.5-54.39-4.89-117.57-6.19-171.91-.6-26.71-.38-47.31 3.6-72.41 4.15-26.33.71-58.62.71-58.62s-14.4 16.47-27.33 36.99c-28.08 44.7-37.1 57.97-59.84 82.19-28.09 30.05-59.6 57.87-95.13 82.52 4.32-16.7 22.47-49.16 29.96-62.21 10.05-17.46 14.52-33.31 38.22-72.85 33.3-55.55 48.15-63.04 85.11-122.45 7.99-12.92 40.88-62.06 48.83-77.08 17.35 35.86 23.86 67.19 45.13 125.56 13.38 36.68 11.38 73.36 9.57 98.08" fill="#000000"></path><path d="M2291.59 1615.93c20.08 52.09 29.26 100.4 36.11 155.23 4.17 33.55 2.2 78.27-9.75 110.53-3.14-7.88-9.54-27.87-10.41-30.87-8.94-29.96-12.63-44.35-25.06-73.25-9.54-22.16-21.23-39.82-33.66-61.73-11.33-19.99-20.89-46.31-29.14-66.45-26.33-64.56-28.28-125.01-38.36-131.62-7.29 15.54-9.55 30.42-10.35 37.75-7.84 71.45-17.25 136.39-107.21 220.6-8.29-25.07-4.09-71.28.83-96.03 10.81-54.12 19.53-80.11 43.32-132.56 12.61-27.62 29.42-68.27 34.07-81.73 12-35.07 16.17-53.44 23.82-74.2 42.46 70.79 94.72 143.89 125.79 224.33" fill="#000000"></path><path d="M2221.56 1290.31c30.28 42.11 41.28 63.27 60.94 108.07 16.54 37.61 21.27 51.54 30.98 93.64 5.28 22.94 8.27 43.77 4.14 57.35-23.61-42.88-39.86-90.86-70.83-126.41-24.55-28.21-48.23-52.24-67.78-76.05-29.96-36.59-53.64-71.22-82.38-109.3-2.42 19.09-3.39 38.44.88 69.71 5.88 42.87 2.27 78-5.2 119.5-9.49 52.65-16.46 78.72-34.71 131.98-22.32-43.84-22.25-94.54-27.89-141.02-10.85-90.21 17.44-197.78 22.99-242.6 1.45-11.82-.6-40.98-1.19-52.34 42.2 33.25 79.74 66.8 116.14 103.3 16.58 16.55 39.3 43.96 53.91 64.17" fill="#000000"></path><path d="M2061.6 959.53c19.2 13.84 70.84 53.31 95.26 84.36 35.61 45.21 43.45 64.58 66.94 116.59 2.84 6.35 16.17 35.78 17.24 55.77-76.93-92.9-145.83-106.74-219.23-183.83-26.91-28.24-54.49-54.83-69.05-68.158-11.18-10.274-25.05-13.403-25.05-13.403s1.44 19.812 8.66 33.58c48.99 93.61 58.23 191.45 50.77 296.46-22.28-27.67-29.38-46.15-43.55-72.9-15.41-29.16-23.3-47.18-30.48-65.13-41.93-104.27-52.89-224.74-78.76-285.358 79.98 26.918 142.88 41.308 227.25 102.02" fill="#000000"></path><path d="M1733.84 713.45c21.66-1.47 64.02-1.33 86.63 2.35 114.4 18.302 220.69 101.212 274.19 192.278-48.54-29.598-83.61-49.348-126.22-64.11-38.02-13.14-74.01-17.02-137.37-35.027-38.31-10.8-76.17-26.13-89.5-31.112-42.42-15.797-60.28-11.898-60.28-11.898s0 6.44 15.83 23.718c31.6 34.46 43.19 42.71 69.11 69.204 8.55 8.75 28.1 38.476 38.02 58.226 28.08 55.89 31.19 100.692 56.87 162.072-93.56-54.94-139.23-130.74-188.65-226.322-15.18-29.258-35.74-63.066-54.53-81.656-12.6-12.473-30.44-31.422-30.44-31.422s13.03-3.078 53.69-9.06c18.19-2.678 56.99-14.76 92.65-17.24M1280.38 706.18c-49.39-8.06-93.24-20.07-138.18-35.48-12.12-4.15-30.46-13.29-43.19-19.72-31.83-16.21-50.11-26.718-77.51-45.54-44.105-30.35-91.37-63.05-134.13-112.67-.917-.97-7.85-8.348-3.198-11.96 8.38-6.548 29.012-15.912 35.8-9.84 39.11 34.75 37.118 45.89 84.518 88.768 12.1 10.953 30.44 26.3 52.4 41.293 21.41 14.618 47.17 30.6 71.22 42.45 21.78 10.73 55.45 13.93 74.28 13.93l-.28-.13c8.59.34 57.85.6 69.27-.132 96.83-6.628 92.06-15.296 147.85-30.41 45.94-12.488 95.19-21.398 144.09-27.957 50.04-6.8 94.92-7.62 141.85-2.82 63.66 6.552 133.26 24.29 185.22 57.77-47.49-.79-96.25-9.93-143.57-6.3-19.9 1.54-52.14 4.53-73.97 11.26-43.43 13.33-68.37 18.548-114.31 31.36-39.52 11-79.37 14.802-120.59 19.14-57.13 6.11-110.02 4.74-157.57-3.01M1103.64 2834.65l-86.94-322.88h-92.313l-57.746 210.34-56.445-210.34h-92.09l-86.953 322.88h86.914l49.532-222.26 59.57 222.26h83.06l56.53-222.26 52.002 222.26h84.88M1390.52 2772.2h-148.54v-60.07h137.68v-62.45h-137.68v-137.91h-82.83v322.88h231.37v-62.45M1628.38 2730.89c0 9.08-2.46 16.9-7.36 23.47-4.91 6.56-10.63 11.14-17.14 13.74-8.67 3.45-17.13 5.36-25.37 5.72-8.23.36-19.23.55-32.96.55h-14.3v-96.5h23.84c14.18 0 25.85.87 35.02 2.6 9.18 1.73 16.89 5.2 23.1 10.39 5.34 4.61 9.22 10.13 11.61 16.55 2.37 6.41 3.56 14.24 3.56 23.48zm86.1 1.84c0-14.45-2.54-28.58-7.59-42.39-5.07-13.8-12.3-25.41-21.69-34.8-12.87-12.73-27.22-22.34-43.04-28.84-15.83-6.51-35.52-9.75-59.09-9.75h-51.82v-105.18h-83.27v322.88h137.04c20.53 0 37.85-1.77 51.94-5.31 14.09-3.55 26.56-8.86 37.4-15.94 13.01-8.53 22.95-19.44 29.81-32.74 6.87-13.3 10.31-29.27 10.31-47.93M514.453 257.88L456.406 70.57h-63.75l-38.164 126.27-37.707-126.27H252.41l-57.547 187.31h62.99L290 128.78l39.973 129.1h53.21l38-129.1 31.622 129.1h61.648M664.922 286.07h-4.492c-2.676.79-6.133 1.668-10.403 2.668-4.273 1-8.843 1.512-13.726 1.512-11.757 0-19.698-2.11-23.866-6.352-4.164-4.226-6.223-12.386-6.223-24.507v-1.51h46.185v-40.69h-44.192V70.57h-60.215v146.62h-25.703v40.69h25.703v5.17c0 22.91 6.082 40.09 18.274 51.54 12.156 11.46 30.593 17.18 55.28 17.18 8.907 0 16.966-.3 24.188-.918 7.23-.602 13.625-1.41 19.192-2.41V286.07M804.285 165.56c0 18.202-3.1 31.42-9.305 39.64-6.218 8.21-16.054 12.312-29.472 12.312-5.653 0-11.477-.864-17.46-2.582a73.406 73.406 0 0 1-17.15-7.4v-94.1c3.997-1.55 8.262-2.56 12.825-3.008 4.54-.434 9.043-.652 13.472-.652 15.852 0 27.676 4.628 35.45 13.89 7.765 9.28 11.64 23.238 11.64 41.9zm61.887 1.26c0-15.468-2.363-29.53-7.07-42.21-4.727-12.68-10.918-23.122-18.582-31.36-8-8.668-17.05-15.23-27.16-19.668-10.098-4.46-20.926-6.684-32.48-6.684-10.653 0-19.728 1.14-27.15 3.422-7.453 2.282-15.07 5.47-22.832 9.578V1.852h-60.214V257.88h60.214v-19.52c9.22 7.34 18.633 13.288 28.235 17.86 9.605 4.55 20.69 6.83 33.238 6.83 23.32 0 41.458-8.562 54.4-25.69 12.937-17.11 19.402-40.64 19.402-70.54M894.63 70.57h62.39v65.55h-62.39zM1116.41 118.61c3.89 4.78 6.81 10.53 8.76 17.26 1.95 6.732 2.92 16.052 2.92 27.94 0 11.01-1 20.23-3 27.69-2.01 7.45-4.79 13.39-8.34 17.852-3.57 4.546-7.84 7.77-12.84 9.668-5 1.878-10.41 2.84-16.19 2.84-5.79 0-10.92-.778-15.43-2.34-4.51-1.56-8.81-4.668-12.93-9.34-3.66-4.34-6.58-10.29-8.75-17.84-2.17-7.57-3.26-17.07-3.26-28.53 0-10.228.94-19.1 2.85-26.61 1.89-7.5 4.66-13.54 8.33-18.098 3.57-4.332 7.81-7.5 12.77-9.512 4.94-1.988 10.58-2.988 16.92-2.988 5.45 0 10.65.91 15.6 2.75 4.94 1.828 9.15 4.918 12.59 9.257zm73.89 45.53c0-30.8-8.99-55.08-26.94-72.8-17.95-17.738-43.16-26.61-75.64-26.61-32.47 0-57.68 8.872-75.65 26.61-17.95 17.72-26.933 42-26.933 72.8 0 31.02 9.035 55.38 27.113 73.06 18.07 17.68 43.23 26.52 75.47 26.52 32.7 0 57.95-8.888 75.82-26.69 17.84-17.792 26.76-42.08 26.76-72.89M1352.04 200.68h-5.34c-2.55.87-6.65 1.55-12.31 1.992-5.67.45-10.38.668-14.15.668-8.55 0-16.08-.56-22.63-1.668-6.55-1.113-13.6-3-21.14-5.66V70.57h-60.22v187.31h60.22v-27.52c13.19 11.35 24.69 18.878 34.45 22.6 9.77 3.73 18.75 5.6 26.96 5.6 2.11 0 4.5-.06 7.15-.18 2.68-.11 5.01-.27 7.01-.5v-57.2M1490.9 129.61v84.91c-3.43 1.44-7.66 2.582-12.64 3.41-4.99.84-9.5 1.26-13.49 1.26-15.75 0-27.56-4.542-35.44-13.6-7.87-9.06-11.82-21.7-11.82-37.942 0-18.02 3.36-30.59 10.07-37.7 6.71-7.128 16.67-10.678 29.88-10.678 5.99 0 11.87.95 17.63 2.84 5.77 1.89 11.05 4.39 15.81 7.5zm60.22-37.528c0-17.57-2.5-32.35-7.5-44.363-5.01-12.02-12.01-21.41-21.03-28.19-9-6.9-19.87-11.87-32.59-14.94-12.75-3.05-27.11-4.59-43.13-4.59-13.01 0-25.82.79-38.45 2.36-12.61 1.538-23.54 3.43-32.77 5.66v46.87h7.32c7.34-2.902 16.26-5.53 26.81-7.93 10.56-2.378 20-3.58 28.33-3.58 11.1 0 20.13 1.03 27.06 3.09 6.94 2.06 12.24 4.98 15.91 8.76 3.45 3.55 5.95 8.11 7.49 13.668 1.56 5.563 2.33 12.223 2.33 20.024v3.488c-7.21-5.89-15.21-10.55-23.98-14-8.77-3.46-18.56-5.18-29.33-5.18-26.21 0-46.42 7.89-60.64 23.7-14.21 15.79-21.32 39.8-21.32 72.05 0 15.46 2.18 28.79 6.5 40.032 4.34 11.238 10.44 21.02 18.32 29.347 7.34 7.788 16.36 13.85 27.06 18.18 10.74 4.35 21.7 6.51 32.92 6.51 10.11 0 19.29-1.18 27.57-3.58 8.27-2.4 15.8-5.7 22.58-9.93l2.17 8.34h58.37V92.08M1766.39 330.11L1634.11 16.52h-51.19l131.73 313.59h51.74M1922.61 119.56v38.91c-8.12-.67-16.89-1.58-26.35-2.75-9.45-1.16-16.63-2.52-21.52-4.072-5.99-1.878-10.58-4.628-13.75-8.226-3.17-3.602-4.76-8.344-4.76-14.21 0-3.884.34-7.052 1.01-9.482.65-2.43 2.34-4.77 4.99-6.98 2.56-2.22 5.63-3.86 9.17-4.91 3.57-1.05 9.12-1.578 16.69-1.578 6 0 12.09 1.207 18.25 3.66 6.17 2.437 11.6 5.656 16.27 9.637zm0-29.138a620.212 620.212 0 0 0-12-8.852c-4.78-3.44-9.3-6.172-13.52-8.16-5.89-2.68-12-4.648-18.35-5.93-6.33-1.28-13.29-1.92-20.85-1.92-17.79 0-32.68 5.522-44.69 16.522-12.01 11.008-18.02 25.066-18.02 42.188 0 13.68 3.06 24.86 9.18 33.53 6.1 8.68 14.78 15.51 26.02 20.52 11.12 5 24.91 8.56 41.35 10.68 16.47 2.11 33.54 3.672 51.22 4.672v1c0 10.328-4.22 17.476-12.68 21.437-8.45 3.94-20.9 5.91-37.36 5.91-9.91 0-20.46-1.75-31.69-5.258-11.22-3.5-19.29-6.192-24.19-8.09h-5.51v45.22c6.36 1.66 16.66 3.628 30.96 5.91 14.27 2.268 28.59 3.417 42.94 3.417 34.15 0 58.79-5.25 73.98-15.77 15.18-10.5 22.75-26.98 22.75-49.45V70.57h-59.54v19.852M2156.07 200.68h-5.31c-2.56.87-6.67 1.55-12.33 1.992-5.66.45-10.38.668-14.15.668-8.54 0-16.08-.56-22.63-1.668-6.56-1.113-13.61-3-21.15-5.66V70.57h-60.21v187.31h60.21v-27.52c13.22 11.35 24.69 18.878 34.46 22.6 9.76 3.73 18.76 5.6 26.96 5.6 2.11 0 4.5-.06 7.16-.18 2.66-.11 5-.27 6.99-.5v-57.2" fill="#000000"></path></g></svg>