<svg xmlns="http://www.w3.org/2000/svg" viewBox="0 0 1775.8533 378.05334" height="378.053" width="1775.853"><defs><clipPath id="a"><path d="M0 0h13318.9v2835H0z" fill="#000000"></path></clipPath></defs><g clip-path="url(#a)" fill="#fff" transform="matrix(.13333 0 0 -.13333 0 378.053)"><path d="M2831.01 1474.87c0 12.48-3.38 23.22-10.13 32.24-6.75 9.01-14.59 15.31-23.53 18.87-11.91 4.76-23.53 7.38-34.85 7.87-11.31.5-26.41.75-45.27.75h-19.66v-132.55h32.77c19.45 0 35.49 1.19 48.1 3.57s23.18 7.13 31.72 14.26c7.34 6.34 12.66 13.92 15.94 22.74 3.27 8.81 4.91 19.56 4.91 32.25zm118.25 2.54c0-19.86-3.48-39.27-10.43-58.23-6.95-18.96-16.88-34.9-29.78-47.8-17.68-17.48-37.38-30.68-59.12-39.62-21.75-8.93-48.81-13.41-81.17-13.41h-71.19V1173.9H2583.2v443.5h188.24c28.19 0 51.97-2.43 71.34-7.3 19.35-4.86 36.48-12.16 51.38-21.89 17.87-11.72 31.52-26.71 40.95-44.97 9.43-18.28 14.15-40.21 14.15-65.83M3250.3 1406.22h-9.51c-4.56 1.59-11.89 2.78-22 3.58-10.1.79-18.52 1.19-25.25 1.19-15.26 0-28.74-1-40.42-2.98-11.69-1.99-24.28-5.36-37.75-10.13V1173.9h-107.52v334.49h107.52v-49.15c23.58 20.26 44.08 33.71 61.51 40.36 17.44 6.65 33.49 9.98 48.15 9.98 3.77 0 8.03-.1 12.79-.3 4.75-.2 8.91-.5 12.48-.89v-102.17M3504.58 1259.68c6.94 8.54 12.16 18.81 15.63 30.83 3.48 12.01 5.21 28.64 5.21 49.89 0 19.65-1.78 36.14-5.36 49.44-3.57 13.3-8.54 23.93-14.89 31.87-6.36 8.14-14 13.9-22.93 17.28-8.94 3.37-18.57 5.06-28.9 5.06-10.32 0-19.5-1.39-27.55-4.17-8.04-2.78-15.74-8.34-23.08-16.68-6.55-7.74-11.76-18.37-15.64-31.87-3.87-13.5-5.81-30.48-5.81-50.93 0-18.27 1.69-34.11 5.07-47.51 3.37-13.4 8.34-24.18 14.89-32.31 6.35-7.75 13.95-13.41 22.78-16.98 8.84-3.58 18.92-5.36 30.24-5.36 9.72 0 19.01 1.64 27.85 4.91 8.83 3.28 16.33 8.79 22.49 16.53zm131.94 81.31c0-55-16.03-98.34-48.1-130.01-32.07-31.67-77.1-47.51-135.08-47.51-57.98 0-103 15.84-135.07 47.51-32.07 31.67-48.1 75.01-48.1 130.01 0 55.41 16.13 98.89 48.39 130.46 32.27 31.58 77.2 47.36 134.78 47.36 58.38 0 103.51-15.89 135.38-47.65 31.87-31.78 47.8-75.17 47.8-130.17M3914.63 1279.34v151.61c-6.14 2.57-13.67 4.61-22.59 6.1-8.91 1.49-16.94 2.24-24.07 2.24-28.14 0-49.23-8.09-63.3-24.28-14.06-16.19-21.1-38.77-21.1-67.76 0-32.17 6-54.61 17.98-67.31 11.99-12.71 29.77-19.07 53.35-19.07 10.69 0 21.19 1.69 31.49 5.06 10.31 3.38 19.72 7.85 28.24 13.41zm107.52-67.02c0-31.37-4.46-57.78-13.4-79.22-8.94-21.45-21.45-38.23-37.53-50.34-16.08-12.32-35.49-21.19-58.23-26.66-22.74-5.46-48.4-8.2-76.99-8.2-23.24 0-46.12 1.4-68.66 4.18s-42.05 6.16-58.53 10.12v83.7h13.09c13.09-5.16 29.05-9.87 47.89-14.15 18.83-4.27 35.68-6.4 50.56-6.4 19.82 0 35.93 1.84 48.33 5.51 12.39 3.68 21.86 8.89 28.4 15.64 6.15 6.36 10.61 14.49 13.38 24.42 2.78 9.93 4.17 21.85 4.17 35.74v6.26c-12.89-10.52-27.17-18.86-42.84-25.02-15.67-6.16-33.12-9.23-52.36-9.23-46.8 0-82.9 14.1-108.28 42.29-25.39 28.19-38.08 71.08-38.08 128.67 0 27.6 3.87 51.43 11.6 71.49 7.74 20.05 18.64 37.53 32.73 52.42 13.08 13.9 29.2 24.72 48.34 32.46 19.13 7.75 38.72 11.62 58.75 11.62 18.05 0 34.46-2.13 49.24-6.41 14.77-4.26 28.2-10.17 40.3-17.72l3.89 14.9h104.23v-296.07M4349.4 1406.22h-9.5c-4.56 1.59-11.89 2.78-22 3.58-10.11.79-18.52 1.19-25.26 1.19-15.26 0-28.73-1-40.42-2.98-11.69-1.99-24.28-5.36-37.74-10.13V1173.9h-107.53v334.49h107.53v-49.15c23.58 20.26 44.08 33.71 61.51 40.36 17.44 6.65 33.49 9.98 48.15 9.98 3.77 0 8.03-.1 12.78-.3 4.76-.2 8.92-.5 12.48-.89v-102.17M4596.24 1261.39v69.48c-14.5-1.19-30.19-2.83-47.07-4.9-16.88-2.08-29.68-4.5-38.42-7.27-10.72-3.37-18.91-8.28-24.57-14.7-5.66-6.44-8.49-14.89-8.49-25.38 0-6.94.6-12.58 1.79-16.94 1.19-4.35 4.17-8.5 8.93-12.46 4.57-3.96 10.03-6.88 16.38-8.76 6.36-1.88 16.28-2.82 29.79-2.82 10.72 0 21.6 2.18 32.61 6.53 11.03 4.36 20.71 10.09 29.05 17.22zm0-52.04c-5.77-4.38-12.91-9.64-21.45-15.79-8.54-6.15-16.58-11.03-24.13-14.6a152.064 152.064 0 0 0-32.76-10.57c-11.32-2.28-23.73-3.43-37.23-3.43-31.77 0-58.38 9.84-79.83 29.49-21.44 19.67-32.16 44.78-32.16 75.36 0 24.42 5.46 44.38 16.38 59.87 10.92 15.49 26.4 27.7 46.46 36.63 19.86 8.94 44.48 15.3 73.87 19.06 29.39 3.77 59.87 6.56 91.44 8.34v1.79c0 18.47-7.55 31.23-22.64 38.27-15.09 7.05-37.33 10.58-66.71 10.58-17.68 0-36.54-3.13-56.6-9.39-20.05-6.25-34.45-11.06-43.18-14.44h-9.83v80.72c11.31 2.98 29.73 6.5 55.25 10.57 25.51 4.07 51.08 6.11 76.69 6.11 60.96 0 105-9.38 132.1-28.15 27.11-18.76 40.66-48.2 40.66-88.31V1173.9h-106.33v35.45M5111.43 1410.99V1173.9h-107.52v167.09c0 16.29-.4 30.14-1.2 41.55-.79 11.42-2.97 20.71-6.55 27.85-3.57 7.15-8.98 12.37-16.23 15.64-7.25 3.28-17.43 4.92-30.53 4.92-10.53 0-20.75-2.14-30.68-6.41s-18.87-8.78-26.81-13.55V1173.9h-107.52v334.49h107.52v-36.94c18.45 14.5 36.1 25.81 52.96 33.96 16.85 8.14 35.49 12.21 55.92 12.21 22.02 0 41.45-4.91 58.31-14.75 16.85-9.82 30.04-24.27 39.56-43.33 21.41 18.07 42.23 32.27 62.46 42.59 20.22 10.32 40.05 15.49 59.48 15.49 36.09 0 63.5-10.82 82.24-32.46 18.73-21.65 28.11-52.83 28.11-93.53V1173.9h-107.53v167.09c0 16.48-.34 30.39-1.04 41.7-.7 11.33-2.83 20.56-6.4 27.7-3.38 7.15-8.74 12.37-16.09 15.64-7.35 3.28-17.67 4.92-30.97 4.92-8.94 0-17.68-1.54-26.21-4.62-8.54-3.08-18.97-8.19-31.28-15.34M5740.41 1410.99V1173.9h-107.53v167.09c0 16.29-.4 30.14-1.19 41.55-.8 11.42-2.98 20.71-6.55 27.85-3.58 7.15-8.99 12.37-16.23 15.64-7.25 3.28-17.43 4.92-30.54 4.92-10.52 0-20.75-2.14-30.67-6.41-9.94-4.27-18.87-8.78-26.81-13.55V1173.9h-107.53v334.49h107.53v-36.94c18.44 14.5 36.09 25.81 52.95 33.96 16.86 8.14 35.5 12.21 55.93 12.21 22.01 0 41.45-4.91 58.3-14.75 16.86-9.82 30.05-24.27 39.57-43.33 21.41 18.07 42.22 32.27 62.45 42.59 20.23 10.32 40.05 15.49 59.49 15.49 36.08 0 63.5-10.82 82.23-32.46 18.74-21.65 28.11-52.83 28.11-93.53V1173.9H5852.4v167.09c0 16.48-.35 30.39-1.04 41.7-.7 11.33-2.83 20.56-6.41 27.7-3.38 7.15-8.74 12.37-16.08 15.64-7.35 3.28-17.68 4.92-30.98 4.92-8.93 0-17.68-1.54-26.21-4.62-8.54-3.08-18.97-8.19-31.27-15.34M6245.18 1261.39v69.48c-14.5-1.19-30.19-2.83-47.06-4.9-16.88-2.08-29.69-4.5-38.43-7.27-10.72-3.37-18.91-8.28-24.57-14.7-5.66-6.44-8.49-14.89-8.49-25.38 0-6.94.6-12.58 1.79-16.94 1.19-4.35 4.17-8.5 8.93-12.46 4.57-3.96 10.03-6.88 16.39-8.76 6.35-1.88 16.27-2.82 29.78-2.82 10.72 0 21.6 2.18 32.61 6.53 11.03 4.36 20.71 10.09 29.05 17.22zm0-52.04c-5.77-4.38-12.91-9.64-21.45-15.79-8.54-6.15-16.58-11.03-24.13-14.6a152.064 152.064 0 0 0-32.76-10.57c-11.32-2.28-23.73-3.43-37.23-3.43-31.77 0-58.38 9.84-79.82 29.49-21.45 19.67-32.17 44.78-32.17 75.36 0 24.42 5.46 44.38 16.38 59.87 10.92 15.49 26.41 27.7 46.46 36.63 19.86 8.94 44.48 15.3 73.87 19.06 29.39 3.77 59.87 6.56 91.44 8.34v1.79c0 18.47-7.55 31.23-22.64 38.27-15.09 7.05-37.33 10.58-66.71 10.58-17.68 0-36.54-3.13-56.6-9.39-20.05-6.25-34.45-11.06-43.18-14.44h-9.83v80.72c11.32 2.98 29.73 6.5 55.25 10.57 25.51 4.07 51.08 6.11 76.69 6.11 60.96 0 105-9.38 132.1-28.15 27.11-18.76 40.66-48.2 40.66-88.31V1173.9h-106.33v35.45M6864.96 1344.87l-54.57 158.88-54.57-158.88zm176.5-170.97h-118.13l-30.89 89.65h-164.12l-30.88-89.65h-115.28l163.83 443.5h131.64l163.83-443.5M7082.77 1173.9h107.52v463.46h-107.52zM7382.32 1173.9H7274.8v334.49h107.52zm2.97 382.14h-113.48v81.32h113.48v-81.32M7793.57 1410.99V1173.9h-107.54v167.09c0 16.29-.39 30.14-1.19 41.55-.78 11.42-2.97 20.71-6.54 27.85-3.58 7.15-8.99 12.37-16.23 15.64-7.27 3.28-17.43 4.92-30.53 4.92-10.53 0-20.76-2.14-30.69-6.41-9.94-4.27-18.86-8.78-26.81-13.55V1173.9h-107.52v334.49h107.52v-36.94c18.46 14.5 36.09 25.81 52.95 33.96 16.85 8.14 35.51 12.21 55.93 12.21 22.02 0 41.45-4.91 58.31-14.75 16.85-9.82 30.03-24.27 39.57-43.33 21.4 18.07 42.22 32.27 62.44 42.59 20.23 10.32 40.06 15.49 59.49 15.49 36.09 0 63.5-10.82 82.25-32.46 18.73-21.65 28.1-52.83 28.1-93.53V1173.9h-107.52v167.09c0 16.48-.35 30.39-1.05 41.7-.71 11.33-2.84 20.56-6.41 27.7-3.38 7.15-8.73 12.37-16.07 15.64-7.35 3.28-17.68 4.92-30.98 4.92-8.95 0-17.68-1.54-26.21-4.62-8.54-3.08-18.97-8.19-31.27-15.34M8318.59 1384.18c-.61 22.44-6.15 39.32-16.68 50.64s-26.91 16.98-49.16 16.98c-20.65 0-37.62-5.37-50.92-16.09-13.3-10.72-20.76-27.9-22.34-51.53zm106.62-62.84h-245.43c1.6-26.21 11.56-46.27 29.94-60.17 18.36-13.9 45.41-20.84 81.15-20.84 22.64 0 44.59 4.06 65.84 12.2 21.25 8.15 38.03 16.88 50.34 26.21h11.91v-86.07c-24.22-9.74-47.07-16.79-68.52-21.15-21.44-4.37-45.15-6.56-71.17-6.56-67.13 0-118.55 15.09-154.29 45.28-35.75 30.18-53.62 73.17-53.62 128.97 0 55.2 16.94 98.93 50.78 131.2 33.87 32.27 80.28 48.4 139.26 48.4 54.4 0 95.31-13.75 122.72-41.25 27.4-27.5 41.09-67.07 41.09-118.7v-37.52M8820.37 1173.9h-107.52v165.9c0 13.5-.71 26.96-2.09 40.36-1.39 13.41-3.77 23.28-7.15 29.64-3.97 7.34-9.79 12.7-17.42 16.08-7.64 3.38-18.32 5.07-32.02 5.07-9.72 0-19.6-1.6-29.64-4.77-10.02-3.18-20.9-8.24-32.6-15.19V1173.9h-107.54v334.49h107.54v-36.94c19.02 14.9 37.32 26.31 54.86 34.26 17.56 7.94 37.05 11.91 58.46 11.91 36.09 0 64.3-10.53 84.63-31.57 20.33-21.05 30.49-52.53 30.49-94.42V1173.9M9116.36 1176.85c-11.52-2.97-23.73-5.29-36.64-6.98-12.91-1.68-28.69-2.52-47.36-2.52-41.7 0-72.72 8.44-93.07 25.32-20.37 16.87-30.53 45.76-30.53 86.67v156.37h-44.08v72.68h44.08V1604h107.52v-95.61h100.08v-72.68h-100.08v-118.72c0-11.74.1-21.98.3-30.73.19-8.75 1.77-16.61 4.74-23.57 2.78-6.96 7.68-12.47 14.71-16.55 7.03-4.08 17.27-6.12 30.74-6.12 5.53 0 12.81 1.19 21.82 3.58 9 2.38 15.29 4.57 18.87 6.55h8.9v-73.3M9366.46 1261.39v69.48c-14.49-1.19-30.2-2.83-47.07-4.9-16.88-2.08-29.69-4.5-38.42-7.27-10.72-3.37-18.9-8.28-24.57-14.7-5.66-6.44-8.49-14.89-8.49-25.38 0-6.94.6-12.58 1.79-16.94 1.19-4.35 4.16-8.5 8.93-12.46 4.57-3.96 10.04-6.88 16.38-8.76 6.35-1.88 16.29-2.82 29.79-2.82 10.72 0 21.6 2.18 32.62 6.53 11.01 4.36 20.7 10.09 29.04 17.22zm0-52.04c-5.76-4.38-12.91-9.64-21.45-15.79-8.53-6.15-16.58-11.03-24.14-14.6-10.5-4.77-21.44-8.28-32.75-10.57-11.33-2.28-23.73-3.43-37.23-3.43-31.77 0-58.38 9.84-79.82 29.49-21.45 19.67-32.17 44.78-32.17 75.36 0 24.42 5.45 44.38 16.37 59.87 10.94 15.49 26.42 27.7 46.46 36.63 19.87 8.94 44.5 15.3 73.87 19.06 29.4 3.77 59.88 6.56 91.45 8.34v1.79c0 18.47-7.54 31.23-22.64 38.27-15.08 7.05-37.33 10.58-66.72 10.58-17.68 0-36.52-3.13-56.58-9.39-20.06-6.25-34.45-11.06-43.2-14.44h-9.83v80.72c11.33 2.98 29.75 6.5 55.25 10.57 25.51 4.07 51.08 6.11 76.7 6.11 60.96 0 105-9.38 132.09-28.15 27.11-18.76 40.67-48.2 40.67-88.31V1173.9h-106.33v35.45M9797.36 1406.22h-9.51c-4.55 1.59-11.88 2.78-22 3.58-10.09.79-18.51 1.19-25.25 1.19-15.25 0-28.73-1-40.43-2.98-11.68-1.99-24.26-5.36-37.73-10.13V1173.9h-107.52v334.49h107.52v-49.15c23.57 20.26 44.08 33.71 61.52 40.36 17.42 6.65 33.48 9.98 48.14 9.98 3.75 0 8.03-.1 12.78-.3 4.76-.2 8.92-.5 12.48-.89v-102.17M10064.4 1384.18c-.6 22.44-6.1 39.32-16.6 50.64-10.6 11.32-26.9 16.98-49.19 16.98-20.65 0-37.62-5.37-50.92-16.09-13.3-10.72-20.76-27.9-22.34-51.53zm106.7-62.84h-245.46c1.6-26.21 11.56-46.27 29.94-60.17 18.36-13.9 45.42-20.84 81.12-20.84 22.7 0 44.6 4.06 65.9 12.2 21.2 8.15 38 16.88 50.3 26.21h11.9v-86.07c-24.2-9.74-47.1-16.79-68.5-21.15-21.4-4.37-45.2-6.56-71.2-6.56-67.1 0-118.52 15.09-154.27 45.28-35.74 30.18-53.61 73.17-53.61 128.97 0 55.2 16.94 98.93 50.78 131.2 33.87 32.27 80.28 48.4 139.3 48.4 54.4 0 95.3-13.75 122.7-41.25 27.4-27.5 41.1-67.07 41.1-118.7v-37.52M10893.2 1173.9h-113.8v296.96l-82.2-192.71h-78.9l-82.2 192.71V1173.9h-107.9v443.5h132.9l99.8-222.49 99.4 222.49h132.9v-443.5M11193.9 1259.68c7 8.54 12.2 18.81 15.7 30.83 3.4 12.01 5.2 28.64 5.2 49.89 0 19.65-1.8 36.14-5.4 49.44-3.5 13.3-8.5 23.93-14.9 31.87-6.3 8.14-14 13.9-22.9 17.28-8.9 3.37-18.6 5.06-28.9 5.06-10.3 0-19.5-1.39-27.5-4.17-8.1-2.78-15.8-8.34-23.1-16.68-6.6-7.74-11.8-18.37-15.7-31.87-3.8-13.5-5.8-30.48-5.8-50.93 0-18.27 1.7-34.11 5.1-47.51 3.4-13.4 8.3-24.18 14.9-32.31 6.3-7.75 13.9-13.41 22.8-16.98 8.8-3.58 18.9-5.36 30.2-5.36 9.7 0 19 1.64 27.8 4.91 8.9 3.28 16.4 8.79 22.5 16.53zm132 81.31c0-55-16.1-98.34-48.1-130.01-32.1-31.67-77.1-47.51-135.1-47.51s-103 15.84-135.1 47.51c-32 31.67-48.1 75.01-48.1 130.01 0 55.41 16.2 98.89 48.4 130.46 32.3 31.58 77.2 47.36 134.8 47.36 58.4 0 103.5-15.89 135.4-47.65 31.8-31.78 47.8-75.17 47.8-130.17M11722.2 1173.9h-107.5v165.9c0 13.5-.7 26.96-2.1 40.36-1.4 13.41-3.7 23.28-7.1 29.64-4 7.34-9.8 12.7-17.4 16.08-7.7 3.38-18.4 5.07-32.1 5.07-9.7 0-19.6-1.6-29.6-4.77-10-3.18-20.9-8.24-32.6-15.19V1173.9h-107.5v334.49h107.5v-36.94c19 14.9 37.3 26.31 54.9 34.26 17.5 7.94 37 11.91 58.4 11.91 36.1 0 64.3-10.53 84.7-31.57 20.3-21.05 30.4-52.53 30.4-94.42V1173.9M12022.1 1265.97v164.37c-7.6 3.18-15.5 5.46-23.8 6.86-8.3 1.39-15.9 2.09-22.9 2.09-28.1 0-49.2-8.8-63.3-26.41-14-17.59-21.1-42.01-21.1-73.23 0-32.81 5.7-56.63 17-71.44 11.3-14.83 29.4-22.23 54.3-22.23 9.7 0 20.1 1.84 31 5.52 10.8 3.68 20.4 8.5 28.8 14.47zm107.5-92.07h-107.5v34.84c-18.5-15.08-35.7-26.21-51.8-33.36-16-7.14-34.6-10.72-55.6-10.72-40.7 0-73.2 15.7-97.6 47.07-24.4 31.37-36.6 73.66-36.6 126.88 0 28.4 4.1 53.56 12.4 75.51 8.2 21.94 19.4 40.75 33.7 56.44 13.5 14.89 29.9 26.46 49.1 34.7 19.3 8.24 38.5 12.36 57.7 12.36 20.1 0 36.5-2.13 49.3-6.41 12.7-4.26 25.9-9.67 39.4-16.23v142.38h107.5V1173.9M12321.9 1173.9h-107.5v334.49h107.5zm3 382.14h-113.5v81.32h113.5v-81.32M12609 1261.39v69.48c-14.5-1.19-30.2-2.83-47.1-4.9-16.9-2.08-29.7-4.5-38.4-7.27-10.7-3.37-18.9-8.28-24.6-14.7-5.6-6.44-8.5-14.89-8.5-25.38 0-6.94.6-12.58 1.8-16.94 1.2-4.35 4.2-8.5 8.9-12.46 4.6-3.96 10.1-6.88 16.4-8.76 6.4-1.88 16.3-2.82 29.8-2.82 10.7 0 21.6 2.18 32.6 6.53 11.1 4.36 20.7 10.09 29.1 17.22zm0-52.04c-5.8-4.38-13-9.64-21.5-15.79-8.5-6.15-16.6-11.03-24.1-14.6-10.5-4.77-21.5-8.28-32.8-10.57-11.3-2.28-23.7-3.43-37.2-3.43-31.8 0-58.4 9.84-79.8 29.49-21.5 19.67-32.2 44.78-32.2 75.36 0 24.42 5.5 44.38 16.4 59.87 10.9 15.49 26.4 27.7 46.5 36.63 19.8 8.94 44.4 15.3 73.8 19.06 29.4 3.77 59.9 6.56 91.5 8.34v1.79c0 18.47-7.6 31.23-22.7 38.27-15.1 7.05-37.3 10.58-66.7 10.58-17.7 0-36.5-3.13-56.6-9.39-20.1-6.25-34.4-11.06-43.2-14.44h-9.8v80.72c11.3 2.98 29.7 6.5 55.3 10.57 25.5 4.07 51 6.11 76.7 6.11 60.9 0 104.9-9.38 132-28.15 27.2-18.76 40.7-48.2 40.7-88.31V1173.9H12609v35.45M12797.4 1173.9h107.598v463.46H12797.4zM13212.2 1384.18c-.6 22.44-6.1 39.32-16.6 50.64-10.6 11.32-27 16.98-49.2 16.98-20.6 0-37.6-5.37-50.9-16.09-13.3-10.72-20.8-27.9-22.4-51.53zm106.7-62.84h-245.5c1.6-26.21 11.6-46.27 30-60.17 18.3-13.9 45.4-20.84 81.1-20.84 22.7 0 44.6 4.06 65.9 12.2 21.2 8.15 38 16.88 50.3 26.21h11.9v-86.07c-24.2-9.74-47.1-16.79-68.5-21.15-21.4-4.37-45.2-6.56-71.2-6.56-67.1 0-118.5 15.09-154.3 45.28-35.7 30.18-53.6 73.17-53.6 128.97 0 55.2 16.9 98.93 50.8 131.2 33.9 32.27 80.3 48.4 139.3 48.4 54.3 0 95.3-13.75 122.7-41.25 27.4-27.5 41.1-67.07 41.1-118.7v-37.52M1340.5 2131.88c12.51 27.07 24.09 48.62 40.79 74.3 7.37 11.32 15.69 19.22 23.11 30.68-3.54 1.02-8.73-1.91-10.96-3.51-7.42-5.38-10.77-14.12-16.71-18.8-14.03-11.07-13.64-21.1-21-26.28-6.57-4.63-8.45-7.68-13.05-14.9-3.08-4.82-5.35-8.73-8.6-18.23-1.15-3.42-3.45-.39-8.92-7.93-7.19-9.8-10.41-20.39-13.39-32.26-.96-3.9-7.59-5.97-11.86-14.07-5.71-10.92-9.43-21.03-11.9-36.95-.62-3.69-6.86-6.25-11.16-16.53-3.05-7.23-5.24-8.83-7.9-22.45-1.65-8.31-5.43-9.51-9.7-21.57-3.3-9.2-3.43-18.06-4.58-30.08-.27-2.33-4.2-6.95-7.83-13.69-6.1-11.26-5.9-18.78-8.32-30.41-.93-4.2-5.65-9.77-10.18-27.79-3.98-15.98-.33-26.58-1.68-34.45-3.53-20.45-7.03-38.21-5.14-58.35.94-9.85 2.44-20.01 1.78-29.48-1.87-29.7-3.48-54.17-3.32-87.83.11-18.32 1.54-43.41 4.32-64.29 3.04-23.06 7.44-41.07 7.44-41.07h75.14s-2.94 43.45.95 89.19c2.31 27.42 8.83 56.48 14.76 76.89 7.51 26.03 12.18 39.51 26.37 73.85.3.76-.1 3.98-3.85.83-7.84-6.58-14.39-12.37-20.58-21.69-9.45-14.25-15.21-25.99-22.87-40.63-8.95-17.02-13.89-31.84-23.11-52.52-.54 14.92 1.88 29.12 4.91 42.87 3.1 14.04 5.56 25.16 9.98 37.26 7.83 21.35 15.43 39.16 27.99 59.03 7.27 11.47 16.57 21.77 26.01 30.32 11.29 10.32 21.73 19.39 33.55 29.5-12.42 6.4-28.96-6.96-32.27-7.65-17.47-3.4-24.58-19.61-29.93-21.82-7.65-3.2-12.07-7.89-17.38-14.33-4.09-4.85-5.32-12.33-9.59-14.99-7.13-4.44-12.37-11.14-17.27-20.5-2.01-3.86-7.5-22.13-13.59-19.78 10.42 61.93 32.28 120.01 67.38 171.69 22.25 32.78 46.45 60.9 82.12 86.11 4.7 3.33 5.61 4.89-.95 4.66-33.34-4.05-35.38-19.28-40.87-20.71-5.2-1.35-11.65-7.52-15.77-11.54-7.41-7.32-7.28-13.5-10.13-15.42-6.08-4.25-10.66-8.66-14.81-16.02-2.19-3.85-5.86-12.31-9.11-14.24-8.57-4.96-16.86-12.19-20.99-19.99-3.05-5.7-4.27-11.89-8.25-17.49-4.27-6.02-10.23-10.53-15.36-14.88 3.9 26.46 16.37 57.82 24.95 84.87 11.53 36.12 25.54 68.95 41.33 103.07M1417.21 1917.38c28.44 63.85 58.37 111.9 97.26 168.11 5.08 7.37 9.64 14.58 14.08 21.49 2 3.11 11.56 16.85 13.55 19.76 13.04 19.69 18.52 25.71 31.86 44.53 3.62 5.11 6.55 9.13 8.09 15.04 2.84 11.01-6.61 18.4-8.79 28.96-2.2 10.79-.99 22.57 3.96 31.68 3.1 5.69 6.19 7.93 9.31 15.57 6.07 14.73 3.97 46.6 10.87 47.43-1.75-15.12-2.15-32.13.23-46.63 2.76-16.93 13.03-27.18 17.27-45.11 11.43 2.06 23.83 1.57 33.45.74 9.54-.82 21.61 1.83 31.4 5.18 13.26 4.53 24.27 12.78 37.79 15.98-11.5-11.05-27.73-15.2-41.33-23.59-5-3.14-9.71-7.29-13.05-12.45-5.46-8.5-9.78-16.64-18.34-20.37-15.19-6.63-28.24-3.49-45.57-6.72-25.76-26.53-50.01-62.62-72.38-100.57-56.73-95.98-104.04-195.37-131.54-297.29 9.51 17.73 18.6 34.88 28.9 51.75 11.38 18.74 24.18 37.09 38.13 55.47 32.66 43.05 64.97 80.64 101.18 120.19 29.21 31.95 61.24 58.76 96.95 81.18 47.19 29.57 105.41 50.28 156.56 39.6 5.82-1.36 14.14-2.91 17.77-6.74-64.11 8.98-121.54-13.42-164.39-47.75-33.86-27.07-62.39-54.55-91.39-90.26-14.98-17.21-28.45-36.13-41.83-54.45-14.02-19.27-26.45-39.55-38.77-59.83-41.55-68.61-72.99-141.25-96.12-216.51-.66-2.39-.81-4.79-1.46-7.16 1.09 1.69 2.71 3.53 3.81 5.25 31.12 50.61 68.55 99.45 115.96 132.22 4.14 2.82 8.45 8.26 9.57 12.53 5.12 20.09-10.19 29.75 10.99 57.52 4.86 6.38 11.51 8.71 16.1 14.64 8.67 13.4 15.74 37.41 23 43.86-3.65-15.64-12.61-32.15-14.53-48.26-2.03-17.68 2.49-32.14 3.28-50.88 12.52-1.71 22.21-7.01 32.03-10.04 15.28-4.77 24.46-3.56 39.57-2.25 6.45.54 18.15 4.31 25.1 2.89-14.61-7.98-34.33-6.51-49.28-14.14-10.46-5.36-13.49-13.27-27.92-16.05-12.84-2.5-23.64-1.16-31.98 3.12-6.49 3.27-11.56 4.64-17.39 1.85-15.56-7.47-26.18-18.02-38.7-30.65-29.08-29.26-52.81-61.92-74.96-104.75-5.86-11.39-11.13-22.64-16.13-34.25-2.47-5.65-8.6-21.34-8.6-21.34h-75.98s-.19 21.91.52 29.91c1.46 15.95 3.63 27.76 6.72 43.94 4.41 23.26 8.72 44.37 14.76 66.94 5.88 21.96 12.21 42.56 19.74 63.65 15.71 43.96 32.41 86.06 50.67 127.06M682.55 1325.53c27.73 22.68 48.266 35.82 75.958 52.33 11.242 6.72 28.254 14.33 41.336 20.26 47.984 21.68 111.465 37.67 171.27 38.77 1.08 0 1.015-.05 1.015-.05h445.9s-1.66.05 1.56.05c14.19 0 28.22-4.94 36.91-13.15 8.71-8.26 12.87-20.97 15.14-33.62 1.92-10.78.98-20.36-1.53-31.89-1.97-9.11-3.43-14.54-8.51-22.28-3.06-4.71-5.97-7.94-11.68-12.48-5.86-4.68-14.16-6.31-23.67-6.4-1-.04-3.12-.1-3.05-.07.1.07-521.56.07-521.56.07s-3.242.01-4.87.01c-34.15.11-70.094-1.63-103.836-6.03-25.844-3.53-51.743-7.56-76.723-14.06-31.503-8.23-61.835-19.62-92.116-30.91 16.785 22.31 36.16 41.24 58.457 59.45" fill="#000000"></path><path d="M837.383 1502.94c27.398 19.79 60.66 36.04 90.12 47.32 14.954 5.66 34.817 11.93 50.6 15.86 19.06 4.81 40.967 8.42 58.827 8.94 5.39.15.79.04.79.04l382.46.04s8.19-.44 11.03-1c7.19-1.55 12.99-4.48 15.39-6.01 5.94-3.81 13.4-11.81 17.3-18.14 9.93-16.35 11.68-34 8.46-52.37-3.67-20.97-19.61-44.86-41.23-45.45-3.77-.1-11.28 0-11.28 0h-414.23s-24.104-.47-35.116-.87c-20.375-.8-42.965-3.12-60.754-5.74-15.215-2.19-30.078-5.07-45.312-9.15-51.07-13.8-95.446-39.7-141.856-59.84 31.258 54.63 73.54 96.48 114.8 126.37M623.434 1243.01c66.488 39.28 146.582 54.77 219.886 57.23 1.742.08 5.22.19 5.22.19l571.73-.05s1.04 0 6.21.05c34.65.03 47.31-34.35 47.15-62.15-.07-9.16-1.62-18.5-4.16-24.77-3.29-8.19-6.93-14.88-12.89-21.34-2.13-2.34-9.78-7.72-13.17-8.55-7.92-1.94-17.67-1.72-17.61-1.72.08 0-425.26-.08-425.26 0 0 0-22.95.92-38.876 2.45-11.47 1.13-20.176 2.33-32.09 4.6-29.285 5.82-53.562 15.35-78.926 23.17-16.918 5.24-34.714 9.13-53.277 11.94-34.132 5.22-71.413 7.6-105.886 4.99-43.847-3.26-82.847-11.85-124.554-25.08 7.054 10.99 36.37 27.12 56.504 39.04" fill="#000000"></path><path d="M931.39 1063.73c-19.542 6.89-38.613 15.78-55.722 27.07-22.285 14.75-33.207 26.48-62.008 39.79-24.644 11.39-44.324 22.63-78.687 35.08-16.582 6.01-43.446 14.28-66.48 18.22-32.907 5.59-64.638 8.04-64.638 8.04s6.72 4.19 10.774 5.43c33.585 10.22 63.245 15.21 97.737 17.76 30.246 2.27 58.03-.68 88.356-5.42 12.44-1.96 28.613-5.79 42.668-9.8 45.637-12.99 97.524-33.59 143.548-33.67 2.57 0 2.277.04 2.277.04h426.315c12.87.04 36.93-4.13 46.6-21.21 11.2-19.68 14.68-43.12 5.27-66.6-2.85-7.05-7.58-17.16-14.37-23.28-5.97-5.4-15.67-8.87-21.27-8.87-1.62-.08-4.4 0-4.4 0h-371.69-2.03c-38 0-85.847 4.6-122.25 17.42M1100.71 931.89c-10.51 10.79-25.01 27.33-38.15 43.04-25.23 30.07-36.52 57.16-36.52 57.16h247.91s.66-28.6-5.07-61.72c-5.36-30.75-16.72-63.17-28.8-86.66-.44-24.08 9.72-46.472 11.39-70.26-20.36-12.5-42.26-24.872-60.51-42.42-1.17-1.08-3.05-1.08-3.82 1.83-9.77 36.66-14.93 69.34-22.95 105.59-22.6 17.468-43.79 33.038-63.48 53.44M1356.2 952.22c-7.01 12.948-12.24 30.05-20.29 40.22-1.73-9.07.4-14.65-.83-23.33-1.13-7.27-7.09-4.25-8.3-.83-3.48 9.84-7.17 21.99-10.35 32.08-5.29 16.8-6.98 31.68-6.98 31.68l41.24.05s1.59-.39 2.32-4.4c1.97-10.39 1.48-20.54 4.33-32.58 3.66-15.508 8.37-29.67 14.07-44.13 4.96-12.73 11.35-25.57 16.55-38.21.7-1.66 1.04-4.86-.21-6.52-1.53-1.922-4.16-1.68-5.67 0-11.81 13.43-16.57 28.64-25.88 45.97M1420.04 922.738c-7.01 14.953-16.88 31.762-16.02 48.723 4.56-5.99 6.44-10.28 12.72-13.62 2.87-.91 8.89-.06 7.38 4.96-2.77 9.34-7.08 17.25-11.06 30.07-5.92 18.95-11.67 39.2-11.67 39.2l-42.1.02s2.33-17.08 11.9-43.29c8.41-23.21 21.4-49.77 35.62-74.67 11.59-20.482 22.11-38.35 35.25-53.31 4.5-5.148 15.54-.63 10.76 6.07-12.47 17.64-24.11 37.17-32.78 55.848M1693.4 2345.62c-9.14-3.98-17.21-9.13-21.77-17.91-3.32-6.3-5.56-15.92.79-21.33 11.12-9.49 24.38.22 29.75 9.91 6.79 12.35 5.02 35.96 5.02 35.96s-7.89-4.11-13.79-6.63" fill="#000000"></path><path d="M1703.06 2286.68c3.99 7.54 12.74 15.68 22.33 21.51 10.84 6.63 22.07 13.06 29.88 17.72 7.81 4.7 9.3 7.99 9.3 7.99s-6.44-2.22-9.96-4.3c-19.28-11.49-40.31-24.55-48.87-28.32-10.8-4.71-25.47-5.62-38.7-7.31-2.11 16.69-6.44 23.62-6.39 38.44.11 7.11 1.83 16.34 3.04 22.77 4.14 21.43 4.95 32.25 4.95 32.25s-3.27-3.05-4.46-12.48c-1.35-8.52-2.3-11.66-4.26-21.74-2.22-11.62-4.55-21.47-11.5-28.73-10.02-10.37-19.3-28.82-11.56-42.96 4.51-8.26 12.04-7.06 14.4-9.19 2.35-2.12 3.79-7.21 10.92-9.57 15.39-5.14 32.83 8.67 40.88 23.92" fill="#000000"></path><path d="M1683.11 2242.61c5.22 8.48 10.58 14.43 18.81 19.48 13.67 8.33 23.8 13.97 32.13 18.23 3.62 1.82 6.63 3.98 7.55 7.84-3.73-1.4-17.83-8.03-31.83-16.36-10.03-5.98-27.27-13.46-38.85-13.99-4.59-.2-7.99.93-11.74 1.05-7.77.32-17.67-1.56-17.67-1.56s-2.51 10.99-5.83 18.9c-1.66 4.05-4.35 8.21-5.8 15.82-.97 5.08-1.26 12.71-.86 17.25 1.14 13.73 4.84 27.07 4.2 40.97-8.63-17.93-5.1-40.01-15.23-53.88-4.28-5.83-7.66-10.43-11.02-17.78-5.56-12.06-4.9-24.55 2.62-36.18 4.34-6.63 13.91-6.38 15.56-7.67 2.51-1.85 4.65-8.78 14.01-10.86 16.02-3.6 34.9 3.83 43.95 18.74M1687.58 1892.02c3.73 7.53 6.13 17.42 10.89 24.41-10.76-1.61-12.49-2.84-28.04-4.55-3.39-.32-10.4-3.84-12.72-6.15-6.15-6.21-11.52-11.96-9.13-22.38.92-4.05 4.5-7.02 6.49-7.65 12.93-4.2 26.05 3.49 32.51 16.32" fill="#000000"></path><path d="M1700.7 1871.5c14.69 3.43 31.66 10.64 38.48 8.37-13.79-7.33-31.17-10-46.45-14.35-11.65-3.36-19.97-12.16-30.37-20.15-9.55-7.26-22.24-10.22-33.59-4.88-3.83 1.82-7.54 7.99-8.2 11.28-.6 2.63-6.08 5.27-8.89 7.58-2.83 2.36-4.2 8.25-4.26 10.52-.49 20.34 14.98 28.55 29.89 40.49 11.23 9 25.81 47.17 34.7 55.08-1.58-12.3-17.58-35.51-24.55-53.58-5.53-14.39-3.71-25.9-7.28-41.05 10.66-.67 22.54-2.91 33.28-3.08 8.42-.11 18.59 1.72 27.24 3.77" fill="#000000"></path><path d="M1685.22 1840.15c-8.25-1.53-18.34-4.13-25.23-5.59-23.95-5.07-35.4 6.66-54.52 6.44 1.68 21.9-5.93 31.71.33 45.88 5.59 12.59 10.76 25.93 15.56 36.6 3.89 8.57 5.07 15.8 5.07 15.8s-5.8-8.69-22.32-40.86c-5.74-11.22-16.02-13.63-25.15-24.23-10.51-12.12-16.54-37.75 2.9-48.51 3.86-2.12 3.3-8.78 6.11-11.47 12.98-12.21 39.19-10.98 55.58 3.9 13.05 11.89 28.91 13.82 42.43 17.32 7.9 2.04 14.83 5.4 14.83 5.4s-3.75 1.53-15.59-.68M1205.22 1585.9c-.94 0-1.96 0 0 0zm-111.88 315.55c-7.99-10.56-11.69-22.7-20.5-31.92-4.6-4.83-11.63-2.57-15.27 2.99-4.05 6.29-10.59 15.18-5.73 21.39 8.01 10.27 24.76 16.82 39 14.97.84-.1 5.43-3.49 2.5-7.43zm-38.34-60.39c-4.47-11.96-17.8-13.26-29.14-15.62-2.12-.46-8.65 0-11.58 2.87-4.9 4.79-9.14 11.34-8.28 19.54.45 5.05 4.67 10.01 9.9 12.03 9.47 3.67 20.69 9.57 30.03 4.33 8.02-4.48 12.23-14.73 9.07-23.15zm-24.55-63.22c-3.27-4.71-11.65 10.95-12.74 18.12-3.13 20.77 15.08 26.07 30.24 25.43.47-12.39-9.13-31.57-17.5-43.55zm-16.39-56.03c-2.97-8.35-4.4-16.04-7.72-23.69-3.22-7.4-16.977-10.04-24.606-7.67-10.894 3.37-20.242 27.83-7.855 37.2 9.475 7.08 19.288 8.22 31.36 9.7 2.17.26 10.27-.23 10.59-.99 2.02-5.07.74-7.61-1.77-14.55zm-18.333-64.59c-2.207-6.42-3.184-13.02-6.02-19.19-1.422-3.13-3.285.98-3.36 1.19-4.28 10.64-6.984 19.65-3.335 29.02 2.066 5.19 9.168 9.96 15.906 10.38-.418-6.67-.89-14.9-3.19-21.4zm-21.65-31.49c-4.92 2.22-4.847 8.55-6.91 12.48-1.94 3.84-6.132 9.13-4.41 14.17 9.5-5.33 13.903-14.83 11.32-26.65zm-16.386 39.31c-11.335 9.32-12.315 24.22-19.862 35.62 8.332 5.33 22.387 4.26 26.707-6.29 3.457-8.48 5.97-20.94-2.633-27.41-.93-.69-3.136-2.81-4.21-1.92zm-42.245 76.85c-1.7 2.43-5.062 9.43-2.5 10.32 20.282 6.98 35.496 7.21 39.832-14.49 3.067-15.48-7.507-28.77-22.332-23.36-4.25 1.58-8.465 18.07-15 27.53zm-29.5 48.99c-1.418 1.79-2.578 7.18-.804 8.56 10.548 8.48 26.032 9.13 38.02 7.96 15.81-1.44 19.06-16.14 16.418-28.32-3.48-16.04-27.8-18.04-34.69-15.37-6.767 2.6-11.49 17.94-18.943 27.17zm3.446 57.03c13.66 8.86 39.786 15.43 44.14-8.56 1.318-7.23-.483-16.83-10.25-19.97-10.034-3.22-21.85-6.69-31.01-2.97-11.274 4.61-13.493 24.65-2.88 31.5zm-14.163 40.36c1.027 4.61 6.128 6.78 10.418 7.88 11.058 2.73 23.425 6.85 33.578.38 3.96-2.5 4.26-6.04 4.78-11.02.9-8.06-.25-14.66-5.562-17.74-10.772-6.32-21.737-6.89-34.256-4.43-10.157 2.01-10.985 15.47-8.957 24.93zm-11.336-62.21c-9.472 7.01-13.656 16.91-20.636 26.72-1.688 2.4 0 3.38 1.293 3.76 16.805 4.75 29.277-3.64 26.66-21.96-.47-3.56-2.785-11.85-7.316-8.52zm-46.386 56.61c-6.297 5.45-1.918 14.92 3.57 17.68 9.61 4.77 24.707 5.49 34.703 2.12 6.43-2.16 9.684-11.39 8.532-21.47-.486-4.12-1.748-8.67-3.767-10.01-7.613-5.19-19.39-5.4-28.648-3.47-6.55 1.39-8.887 10.34-14.39 15.15zm-7.262 57.25c6.09 13.25 28.31 13.37 40.406 7.46 9.856-4.85 11.094-23.19.332-30.42-8.585-5.72-22.113-3.62-31.218-1.95-12.938 2.38-13.965 15.1-9.52 24.91zm.496 49.6c9.227 8.78 21.188 4.76 32.305 3.22 2.152-.31 4.715-1.82 6.176-3.27 7.59-7.67 8.186-20.24-.267-26.53-9.75-7.25-21.922-2.54-33.64-1.94-3.165.12-6.645 3.84-7.368 6.22-2.11 7.42-3.39 16.49 2.793 22.3zm5.946 41.5c9.8 4.09 26.636 5.96 33.574-5.03 4.262-6.74 3.023-19.22-3.813-21.04-6.695-1.72-29.457-5.5-34.906 7.09-2.7 6.19-1.56 16.16 5.144 18.98zm30.164 35.25c2.836-1.25 4.6-3.52 5.27-7 1.398-7.55-.59-15.75-7.837-17.08-10.89-1.98-27.057-2.61-27 12.78.04 17.17 16.958 16.98 29.568 11.3zm-21.922 31.93c5.797 2.21 15.332 1.71 20.535-.99 2.626-1.37 6.15-5.68 4.67-10.23-1.85-5.92-7.364-8.06-13.63-8.14-6.02-.05-12.926.43-15.355 5.34-2.313 4.66-1.333 12.04 3.78 14.02zm6.77 25.75c5.296 1.92 13.128 1.79 16.98-2.39 5.304-5.79 1.12-15-8.887-14.54-3.52.15-7.696 1.36-9.825 2.57-5.168 2.92-3.457 12.5 1.73 14.36zm23.812 16.58c.68 2.23 4.16 4.85 5.98 5.49 3.973 1.41 8.63 1.7 12.43.18 7.602-3.12 6.555-12.52-1.56-15.82-3.63-1.47-9.213-2.43-11.952-1.47-5.113 1.73-6.535 6.17-4.898 11.62zm23.68-36.76c-8.29-2.43-19.848-2.9-22.325 5.6-4.203 14.42 14.004 16.58 23.45 13.56 6.51-2.07 8.812-16.32-1.125-19.16zm5.492 47.62c2.63 8.94 12.758 13.79 21.93 11.06 7.886-2.31 9.706-13.06 4.382-18.29-2.414-2.34-6.406-4.73-10.703-5.68-9.388-2.1-18.606 3.07-15.61 12.91zm41.254-32.79c-1.485-5.83-5.766-9.83-12.618-11.35-6.808-1.5-16.214-1.92-19.988 2.29-3.598 3.98-5.254 9.57-2.25 13.87 6.024 8.56 17.047 11.55 26.87 9.38 5.607-1.31 9.728-7.05 7.986-14.19zm-3.664 34.31c3.664 8.11 12.957 12.19 21.878 9.47 1.79-.58 5.47-3.45 5.98-6.29 1.06-5.64-.898-10.79-5.608-13.74-6.036-3.85-11.02-6.01-17.95-3.17-5.203 2.18-6.472 8.94-4.3 13.73zm38.437-22.78c4.078-6.9-2.13-13.83-5.277-15.73-6.99-4.09-16.84-6.6-21.05.33-4.142 6.79-.712 14.86 6.51 17.84 6.89 2.86 14.032 7.2 19.817-2.44zm11.59-26.36c4.562-3.78 8.566-11.71 3.098-17.97-5.137-5.91-11.516-7.68-19.59-8.98-5.457-.93-12.438 3.11-13.32 7.93-.81 4.15-1.57 11.72 2.542 15.2 8.024 6.84 18.782 10.8 27.27 3.82zm9.672 44.97c4.307-1.27 7.06-5.83 4.905-10.22-1.313-2.71-5.187-5.64-7.652-7.15-6.762-4.17-12.567-2.46-14.688 2.51-3.894 9.15 9.21 17.28 17.434 14.86zm16.503-22.79c4.747-.42 6.927-3.73 7.867-7.36 1.23-4.87-.38-9.38-4.49-12.14-4.893-3.25-10.987-5.17-15.866-5.25-6.59-.11-12.7 9.57-9.125 15.85 3.785 6.74 13.308 9.62 21.613 8.9zm27.277-34.89c2.81-8.28-3.26-12.14-9.66-15.54-6.5-3.47-15.22-6.71-19.738-2.39-5.766 5.43-8.332 14.58-1.903 20.6 8.91 8.36 25.4 14.65 31.3-2.67zm11.78-20.77c10.46-1.33 12.53-16.2 10.42-21.58-2.39-4.62-7.66-8.24-10.42-9.66-7.68-3.95-16.64-5.45-23.7-1.8-6.42 3.34-9.21 13.09-5.72 20.73 4.73 10.34 19.63 13.59 29.42 12.31zm21.52-46.04c3.58-5 2.79-13.88.67-16.66-6.6-9.01-24.96-14.16-32.54-10.47-5.75 2.82-11.43 15.5-4.69 23.11 7 7.9 19.21 12.61 30.3 10.3 2.47-.55 4.09-3.27 6.26-6.28zm4.64-28.37c5.03-.54 9.51-6.08 11.94-12.11 3.16-7.8-.04-16.89-2.53-18.59-6.02-4.09-25.09-15.57-37.09-8.69-6.6 3.79-8.42 12.44-8.83 17.55-1.32 16.51 23.72 23.27 36.51 21.84zm-70.397-118.09c-2.566 6.55-4.94 16.24.203 20.22 10.394 8.19 33.894 15.37 42.834 2.97 5.81-8.05 4.1-21.7-6.07-26.92-10.51-5.36-31.04-11.54-36.967 3.73zm-50.41-.73c10.43 5.31 25.457 11.71 36.687 4.47 5.137-3.29 10.442-16.96 6.817-23.02-7.7-12.87-27.965-16.15-40.844-12.84-10.97 2.85-14.273 25.53-2.66 31.39zm-9.383 44.5c12.59 8.85 37.44 14.57 43.426-4.77 1.554-5.02 2.437-10.57-.125-14.62-6.972-11.21-24.655-14.16-36.49-12.49-12.806 1.85-18.85 23.43-6.81 31.88zm-10.59 45.08c12.09 6.85 37.856 15.96 43.926-3.68 2.426-8.03 2.184-17.94-4.695-21.49-9.85-5.16-25.456-10.58-36.808-3.5-9.48 6-10.762 23.89-2.422 28.67zm67.676 81.02c-5.063-4.52-10.203-5.49-16.94-7.78-9.443-3.2-19.314 4.07-20.404 13.1-1.816 15.46 14.75 17.76 25.707 19.69 7.988 1.44 12.937-5.73 14.41-10.56 1.503-4.64 1.308-10.87-2.774-14.45zm20.304-36.37c-7.18-10.71-36.16-17.45-42.55-6.43-4.668 8.07-7.574 19.39 1.203 24.8 9.21 5.66 20.137 9.05 30.857 7.12 10.08-1.78 15.21-18.36 10.49-25.49zm15.45-66.33c4.12-6.56 7-15.38.88-23.51-5.55-7.46-25.37-10.95-35.517-8.49-5.566 1.4-8.195 8.16-9.047 12.73-1.176 6.17-1.734 12.38 3.73 17.41 7.852 7.2 18.334 7.04 28.404 7.04 4.14 0 10-2.69 11.55-5.18zm-5.76 22.26c-6.17-11.34-27.084-12.8-36.486-11.55-6.63.89-11.29 11.57-11.098 20.51.07 4.59 1.5 7.64 4.645 9.33 10.446 5.6 21.133 9.35 32.37 7.53 10.96-1.74 15.22-17.22 10.57-25.82zm-110.072 24.42c-7.106 21.89 20.222 28.79 36.176 25.41 11.105-2.31 14.808-23.65 4.476-30.39-12.78-8.31-35.472-10.99-40.652 4.98zm-41.21-53.73c8.186 8.45 22.972 8.98 34.51 7.43 7.087-.99 10.14-8.15 11.126-15.92 2.76-21.38-25.942-24.98-39.598-19.98-8.996 3.29-13.68 20.58-6.04 28.47zm-5.778 41.43c8.558 10.07 22.875 12.46 34.734 9.2 7.238-1.97 10.59-10.43 10.422-19.92-.137-5.37-3.828-9.28-7.137-10.64-8.43-3.42-18.173-5.96-27.368-4.84-11.344 1.4-18.22 17.26-10.652 26.2zm1.36 45.1c10.526 4.29 30.143 8.14 33.448-6.9 4.46-20.02-19.168-23.28-31.797-19.8-9.667 2.65-11.503 22.72-1.65 26.7zm75.725 33.09c7.872-4.47 9.524-17.08 4.73-24.39-6.366-9.67-28.132-15.28-39.843-6.81-6.68 4.85-10.277 24.72 3.41 29.49 10.934 3.83 21.414 7.54 31.703 1.71zm-11.156 14.38c-8.93-5.52-21.657-7.72-30.098-3.02-7.344 4.01-7.063 14.75-3.418 20.52 5.98 9.62 20.85 10.66 31.132 7.64 8.864-2.57 12.18-19.04 2.383-25.14zm-72.282 15.68c.902 2.86 2.172 3.68 3.95 4.55 7.503 3.58 15.745 4.54 22.937-.08 5.18-3.35 4.722-11.1.886-15.11-5.62-5.91-17.045-6.15-24.358-2.31-4.727 2.46-4.945 8.29-3.414 12.95zm2.398-31.35c3.32 9.49 15.145 8.96 24.106 7.8 11.02-1.44 13.226-15.56 9.312-21.5-5.41-8.2-17.757-6.63-27.586-5.38-7.992 1.02-8.464 11.61-5.832 19.08zm155.504-285.2c2.71-10.71 0-20.89-9.53-24.3-12.247-4.32-28.81-10.65-38.602-4.05-11.2 7.51-16.59 28.81-3.723 37.16 15.2 9.94 45.445 16.45 51.855-8.81zm-16.508 33.3c-8.23-9.35-21.664-9.04-34.85-12.91-5.095-1.47-11.134 3.02-13.786 7.68-4.87 8.7-9.754 20.36-.414 28.77 7.734 7.05 18.28 6.45 27.754 9.28 4.25 1.28 9.457 2.77 14.62-.72 10.674-7.29 14.834-22.91 6.676-32.1zm87.308 140.14c2.32-6.8 5.44-11.79 2.8-18.57-3.15-8.33-11.22-9.46-18.8-12.21-7.07-2.56-18.86-5.8-24.78.4-6.8 7.04-9.55 21.39-1.4 27.54 10.55 7.86 36.6 18.71 42.18 2.84zm143.29 61.19c6.23 25.39 13.97 51.14 15.9 77.97 2.84 40.07-5.8 81.73-31.51 112.08 2.53-13.09 5.88-24.15 7.64-37.88 2.09-16.59-.25-35.07-4.53-51.77-3.24-12.64-8.94-24.93-14.59-36.67-6.67-13.91-16.63-29.04-26.55-41.45-27.81-34.58-71.14-102.07-71.14-102.07s-3.63.26-5.78.26c-.51 8.41 19.44 37.22 29.5 53.34 22.1 35.36 38.83 54.38 58.04 85.04 12.04 19.32 21.23 42.84 24.19 64.16 5.99 43.43-17.43 95.47-51.1 112.79 7.7-32.44 6.9-78.17-10.38-97.4-32.69-36.43-52.12-63.69-75.45-110.39-.67-1.25-6.13 6.3-10.64 9.23-5.06 3.36-2.23 13.37-4.04 20.11-1.64 5.73-4.34 10.15-5.14 11.15-6.91 8.46-13.58 8.99-15.04 11.53-1.67 2.86-.87 10-6.89 18.13-3.01 4.1-10.68 7.13-13.8 10.97-3.37 4.2-4.9 17.06-14.21 22.32-4.42 2.48-6.476 10.19-10.718 13.97-13.086 11.59-26.15 9.35-28.652 10.07-3.368.91-9.938 9.28-21.637 11.29-11.438 1.95-17.73-5.68-23.668-2.92-14.895 6.89-29.156 7.45-44.98-10.18-4.75-5.25-12.965-.34-23.215-8.19-8.997-6.85-9.165-13.19-13.75-14.06-8.606-1.61-15.028-8.5-18.348-16.02-1.723-3.87-3.02-11.7-4.024-16.86-1.41-7.13-5.015-13.69-5.082-18.93-.086-7.28 2.215-11.22 1.57-14.47-1.058-4.71-4.874-9.03-5.34-13.44-.347-2.5-.558-9.16 1.26-12.91 2.292-4.62-1.607-8.64-3.634-13.56-1.934-4.58-3.97-12.42-3.348-17.95.82-7.59 5.164-10.37 1.785-16.35-5.536-9.72-12.536-24.88-.266-44.25 2.254-3.54-5.14-10.43-5.555-20.54-.47-11 6.17-19.12 7.987-24 .344-1.75-2.922-1.66-3.043-3.53-29.222 30.9-55.062 59.39-88.95 86.22-20.702 16.36-41.17 30.12-64.108 42.4-61.29 32.87-132.492 54.86-196.992 46.82 24.285-19.55 54.94-33.5 79.89-55.71 23.64-21.06 45.09-39.04 66.62-61.41 33.794-35.11 61.255-70.7 89.868-112.01 8.5-12.23 14.094-20.41 22.012-33.17 7.98-12.76 16.844-26.31 24.106-38.96 36.613-63.58 66.613-122.44 96.98-187.59 8.422-18.01 15.504-36.87 23.762-54.78 2.21-4.86 5.375-1.25 7.61 0 10.976 6.35 22.648 11.66 34.046 17.04 9.098 4.18 17.38 7.06 25.512 10.18 20.54 7.83 40.03 12.08 61.55 16.55 35.91 7.52 100.44 5.97 100.44 5.97l122.33.04h3.34c-1.28 35.07-9.61 69.15-11.64 104.32-1.54 28.5-.59 56.04.41 84.59 2.74 77.36 14.11 160.4 31.39 230.88M395.137 2295.89c-23.87-23.8-30.992-32.57-44.91-58.88-8.2-15.47-18.61-35.33-21.58-60.93 49.052 18.67 89.072 56.78 125.236 98.87 26.754 31.2 47.504 72.6 73.887 103.42-46.47-15.58-95.504-45.51-132.633-82.48" fill="#000000"></path><path d="M254.71 2228.98c18.493 31.24 44.98 65.01 72.442 88.06-12.718-28.58-28.382-56.88-33.77-90.67-10.67-67.27-20.745-114.39-31.905-175.79 30.503 21.76 62.683 55.95 95.03 79.81 24.997 18.37 50.052 30.64 75.76 48.31 15.276 10.54 25.233 24.08 37.944 36.76-15.144-63.84-71.163-128.27-111.272-158.31-50.387-37.79-68.45-43.81-149.422-126.15-10.282 101.67-8.454 207.33 45.195 297.98" fill="#000000"></path><path d="M89.523 1891.32c3.766 52.8 10.102 95.02 22.926 146.52 8.988 35.97 28.34 89.51 56.245 111.47-3.418-13.04-5.215-32.6-6.53-45.79-5.47-54.4 4.944-117.57 6.187-171.91.617-26.72.382-47.31-3.618-72.41-4.136-26.33-.687-58.62-.687-58.62s14.426 16.47 27.305 36.99c28.144 44.7 37.16 57.97 59.836 82.19 28.132 30.05 59.597 57.88 95.124 82.53-4.285-16.7-22.425-49.17-29.92-62.22-10.005-17.45-14.544-33.32-38.216-72.85-33.313-55.55-48.153-63.04-85.14-122.45-8.01-12.92-40.848-62.06-48.806-77.08-17.328 35.86-23.863 67.19-45.12 125.56-13.352 36.68-11.356 73.36-9.587 98.07" fill="#000000"></path><path d="M38.09 1616.65c-20.086 52.08-29.29 100.4-36.098 155.23-4.16 33.55-2.226 78.26 9.746 110.52 3.14-7.87 9.547-27.86 10.414-30.86 8.907-29.96 12.633-44.35 25.082-73.25 9.524-22.16 21.168-39.83 33.63-61.73 11.327-19.99 20.89-46.31 29.085-66.45 26.374-64.57 28.32-125.02 38.413-131.62 7.258 15.54 9.532 30.42 10.344 37.75 7.84 71.45 17.25 136.39 107.227 220.6 8.254-25.07 4.07-71.28-.89-96.03-10.76-54.12-19.446-80.11-43.282-132.56-12.598-27.62-29.418-68.27-34.028-81.73-12.082-35.06-16.218-53.46-23.82-74.19-42.476 70.78-94.758 143.87-125.824 224.32" fill="#000000"></path><path d="M108.12 1291.04c-30.245 42.1-41.265 63.25-60.948 108.07-16.528 37.59-21.28 51.53-30.96 93.63-5.29 22.95-8.278 43.77-4.173 57.34 23.68-42.87 39.84-90.85 70.812-126.41 24.59-28.21 48.277-52.23 67.824-76.04 29.988-36.58 53.6-71.21 82.383-109.3 2.424 19.09 3.362 38.43-.927 69.71-5.856 42.86-2.246 78 5.238 119.49 9.49 52.66 16.446 78.72 34.716 131.99 22.348-43.83 22.262-94.54 27.87-141.03 10.83-90.2-17.39-197.76-22.94-242.6-1.485-11.81.562-40.96 1.16-52.32-42.2 33.23-79.742 66.79-116.14 103.29-16.587 16.54-39.345 43.95-53.915 64.18" fill="#000000"></path><path d="M268.102 960.262c-19.215 13.84-70.844 53.298-95.29 84.348-35.6 45.21-43.437 64.58-66.92 116.59-2.88 6.34-16.17 35.78-17.255 55.78 76.945-92.91 145.832-106.74 219.23-183.84 26.934-28.24 54.516-54.83 69.07-68.16 11.172-10.28 25.043-13.39 25.043-13.39s-1.445 19.8-8.687 33.578c-48.97 93.592-58.21 191.442-50.78 296.452 22.35-27.67 29.4-46.15 43.585-72.91 15.43-29.15 23.297-47.17 30.507-65.11 41.903-104.29 52.805-224.748 78.692-285.37-79.91 26.918-142.84 41.31-227.195 102.032" fill="#000000"></path><path d="M595.824 714.16c-21.613-1.45-63.992-1.32-86.586 2.36-114.394 18.308-220.726 101.21-274.215 192.27 48.497-29.59 83.563-49.34 126.21-64.11 37.986-13.12 74.01-17.012 137.42-35.02 38.26-10.808 76.144-26.12 89.452-31.1 42.418-15.798 60.278-11.92 60.278-11.92s0 6.45-15.844 23.73c-31.58 34.458-43.142 42.7-69.122 69.19-8.53 8.75-28.074 38.48-37.996 58.25-28.074 55.88-31.192 100.67-56.828 162.06 93.554-54.94 139.125-130.75 188.59-226.32 15.21-29.27 35.777-63.08 54.57-81.66 12.637-12.468 30.44-31.42 30.44-31.42s-13.046-3.072-53.663-9.072c-18.22-2.668-57.05-14.757-92.706-17.238M1049.31 706.91c49.39-8.082 93.27-20.082 138.19-35.488 12.07-4.152 30.44-13.28 43.16-19.73 31.84-16.204 50.16-26.723 77.52-45.532 44.07-30.35 91.41-63.05 134.12-112.672.91-.976 7.82-8.36 3.22-11.957-8.37-6.56-29-15.9-35.85-9.85-39.08 34.76-37.11 45.89-84.47 88.78-12.15 10.938-30.49 26.29-52.41 41.278-21.37 14.633-47.21 30.614-71.22 42.453-21.82 10.74-55.42 13.95-74.28 13.95l.25-.14c-8.57.328-57.83.61-69.24-.13-96.808-6.64-92.066-15.3-147.886-30.42-45.906-12.49-95.16-21.38-144.05-27.938-50.09-6.813-94.91-7.633-141.86-2.84-63.65 6.558-133.274 24.297-185.242 57.79 47.515-.802 96.304-9.93 143.57-6.314 19.887 1.532 52.156 4.532 74.008 11.274 43.418 13.328 68.332 18.527 114.312 31.348 39.512 10.992 79.344 14.8 120.606 19.152 57.105 6.11 109.992 4.726 157.552-3.012M1934.52 2295.89c23.87-23.8 31.02-32.57 44.94-58.88 8.2-15.47 18.61-35.33 21.58-60.93-49.09 18.67-89.07 56.78-125.26 98.87-26.78 31.2-47.5 72.6-73.88 103.42 46.48-15.58 95.51-45.51 132.62-82.48" fill="#000000"></path><path d="M2074.98 2228.98c-18.52 31.24-44.99 65.01-72.45 88.06 12.85-30.75 31.57-69.05 33.76-90.67 6.83-67.74 20.75-114.39 31.92-175.79-30.5 21.76-62.72 55.95-95.06 79.81-24.94 18.37-50.02 30.64-75.7 48.31-15.32 10.54-25.27 24.08-37.98 36.76 15.14-63.84 71.16-128.27 111.28-158.31 50.37-37.79 68.43-43.81 149.37-126.15 10.28 101.67 8.46 207.33-45.14 297.98" fill="#000000"></path><path d="M2240.16 1891.32c-3.81 52.8-10.08 95.02-22.93 146.52-8.98 35.97-28.34 89.51-56.29 111.47 3.46-13.04 5.23-32.6 6.56-45.79 5.52-54.4-4.88-117.57-6.17-171.91-.61-26.72-.39-47.31 3.59-72.41 4.15-26.33.72-58.62.72-58.62s-14.42 16.47-27.33 36.99c-28.09 44.7-37.11 57.97-59.85 82.19-28.1 30.05-59.6 57.88-95.13 82.53 4.33-16.7 22.46-49.17 29.96-62.22 10.04-17.45 14.53-33.32 38.22-72.85 33.3-55.55 48.14-63.04 85.1-122.45 8-12.92 40.89-62.06 48.84-77.08 17.35 35.86 23.86 67.19 45.12 125.56 13.39 36.68 11.39 73.36 9.59 98.07" fill="#000000"></path><path d="M2291.59 1616.65c20.08 52.08 29.26 100.4 36.11 155.23 4.16 33.55 2.2 78.26-9.75 110.52-3.14-7.87-9.53-27.86-10.42-30.86-8.93-29.96-12.63-44.35-25.05-73.25-9.54-22.16-21.24-39.83-33.67-61.73-11.32-19.99-20.88-46.31-29.12-66.45-26.34-64.57-28.29-125.02-38.38-131.62-7.28 15.54-9.54 30.42-10.33 37.75-7.85 71.45-17.26 136.39-107.23 220.6-8.28-25.07-4.08-71.28.84-96.03 10.81-54.12 19.54-80.11 43.33-132.56 12.59-27.62 29.42-68.27 34.06-81.73 12.01-35.06 16.17-53.46 23.83-74.19 42.44 70.78 94.72 143.87 125.78 224.32" fill="#000000"></path><path d="M2221.57 1291.04c30.27 42.1 41.26 63.25 60.93 108.07 16.53 37.59 21.26 51.53 30.98 93.63 5.29 22.95 8.26 43.77 4.14 57.34-23.61-42.87-39.86-90.85-70.83-126.41-24.54-28.21-48.23-52.23-67.78-76.04-29.96-36.58-53.64-71.21-82.38-109.3-2.41 19.09-3.38 38.43.87 69.71 5.9 42.86 2.29 78-5.19 119.49-9.49 52.66-16.45 78.72-34.71 131.99-22.32-43.83-22.26-94.54-27.88-141.03-10.86-90.2 17.43-197.76 22.98-242.6 1.45-11.81-.6-40.96-1.19-52.32 42.2 33.23 79.74 66.79 116.13 103.29 16.59 16.54 39.3 43.95 53.93 64.18" fill="#000000"></path><path d="M2061.6 960.262c19.19 13.84 70.83 53.298 95.26 84.348 35.61 45.21 43.46 64.58 66.93 116.59 2.84 6.34 16.18 35.78 17.26 55.78-76.94-92.91-145.84-106.74-219.24-183.84-26.92-28.24-54.48-54.83-69.05-68.16-11.17-10.28-25.04-13.39-25.04-13.39s1.43 19.8 8.65 33.578c48.99 93.592 58.23 191.442 50.76 296.452-22.27-27.67-29.37-46.15-43.54-72.91-15.4-29.15-23.29-47.17-30.48-65.11-41.93-104.29-52.88-224.748-78.76-285.37 79.97 26.918 142.88 41.31 227.25 102.032" fill="#000000"></path><path d="M1733.85 714.16c21.66-1.45 64-1.32 86.62 2.36 114.4 18.308 220.7 101.21 274.19 192.27-48.54-29.59-83.6-49.34-126.22-64.11-38.01-13.12-74-17.012-137.39-35.02-38.3-10.808-76.17-26.12-89.49-31.1-42.41-15.798-60.27-11.92-60.27-11.92s0 6.45 15.84 23.73c31.58 34.458 43.16 42.7 69.1 69.19 8.56 8.75 28.11 38.48 38.02 58.25 28.07 55.88 31.2 100.67 56.87 162.06-93.56-54.94-139.23-130.75-188.66-226.32-15.17-29.27-35.74-63.08-54.51-81.66-12.62-12.468-30.47-31.42-30.47-31.42s13.05-3.072 53.7-9.072c18.2-2.668 57-14.757 92.67-17.238M1280.37 706.91c-49.38-8.082-93.23-20.082-138.18-35.488-12.12-4.152-30.46-13.28-43.18-19.73-31.83-16.204-50.12-26.723-77.51-45.532-44.102-30.35-91.37-63.05-134.12-112.672-.927-.976-7.86-8.36-3.224-11.957 8.387-6.56 29.024-15.9 35.817-9.85 39.097 34.76 37.113 45.89 84.517 88.78 12.1 10.938 30.44 26.29 52.39 41.278 21.42 14.633 47.19 30.614 71.22 42.453 21.79 10.74 55.45 13.95 74.28 13.95l-.27-.14c8.59.328 57.83.61 69.27-.13 96.82-6.64 92.06-15.3 147.85-30.42 45.94-12.49 95.18-21.38 144.08-27.938 50.06-6.813 94.91-7.633 141.86-2.84 63.66 6.558 133.26 24.297 185.21 57.79-47.49-.802-96.25-9.93-143.56-6.314-19.91 1.532-52.13 4.532-73.99 11.274-43.42 13.328-68.35 18.527-114.29 31.348-39.53 10.992-79.36 14.8-120.6 19.152-57.13 6.11-110.01 4.726-157.57-3.012M1103.64 2835.37l-86.96-322.88h-92.305l-57.738 210.33-56.457-210.33h-92.082l-86.95 322.88h86.903l49.532-222.26 59.586 222.26h83.05l56.528-222.26 52.004 222.26h84.89M1390.51 2772.92h-148.54v-60.07h137.7v-62.45h-137.7v-137.91h-82.81v322.88h231.35v-62.45M1628.38 2731.61c0 9.08-2.46 16.9-7.36 23.46-4.93 6.57-10.63 11.14-17.13 13.74-8.68 3.46-17.13 5.37-25.37 5.73-8.25.36-19.24.55-32.97.55h-14.31v-96.5h23.85c14.17 0 25.84.87 35.03 2.6 9.18 1.73 16.87 5.2 23.08 10.38 5.35 4.61 9.22 10.14 11.6 16.56 2.39 6.41 3.58 14.24 3.58 23.48zm86.09 1.85c0-14.46-2.54-28.59-7.59-42.4-5.06-13.81-12.29-25.41-21.68-34.79-12.88-12.73-27.22-22.34-43.05-28.85-15.82-6.51-35.53-9.76-59.08-9.76h-51.83v-105.17h-83.27v322.88h137.05c20.53 0 37.83-1.77 51.92-5.31 14.1-3.55 26.58-8.86 37.42-15.95 13-8.52 22.94-19.43 29.81-32.73 6.87-13.31 10.3-29.28 10.3-47.92M555.395 259.46L496.988 70.99h-64.133L394.45 198.03 356.515 70.99h-64.778L233.84 259.46h63.38l32.35-129.9 40.203 129.9h53.543l38.23-129.9 31.82 129.9h62.03" fill="#000000"></path><path d="M696.47 287.828h-4.517c-2.68.78-6.168 1.684-10.46 2.684-4.298 1.008-8.9 1.508-13.805 1.508-11.83 0-19.836-2.122-24.016-6.38-4.184-4.25-6.274-12.468-6.274-24.67v-1.51h46.485v-40.948H639.41V70.988h-60.586v147.524H552.98v40.95h25.844v5.198c0 23.05 6.125 40.328 18.38 51.86 12.25 11.52 30.792 17.29 55.632 17.29 8.95 0 17.062-.31 24.336-.93 7.27-.61 13.703-1.42 19.297-2.43v-42.622M836.703 166.57c0 18.32-3.125 31.61-9.375 39.88-6.254 8.26-16.133 12.39-29.637 12.39-5.694 0-11.557-.86-17.585-2.602a72.648 72.648 0 0 1-17.246-7.45v-94.667c4.02-1.57 8.316-2.57 12.898-3.018a137.23 137.23 0 0 1 13.558-.672c15.96 0 27.852 4.66 35.668 13.992 7.813 9.316 11.72 23.38 11.72 42.148zm62.266 1.258c0-15.558-2.376-29.707-7.122-42.457-4.754-12.76-10.985-23.28-18.696-31.56-8.04-8.72-17.152-15.33-27.316-19.798-10.172-4.473-21.066-6.71-32.69-6.71-10.728 0-19.834 1.147-27.322 3.436-7.488 2.293-15.144 5.5-22.965 9.64V1.853h-60.587v257.61h60.586v-19.63c9.273 7.38 18.745 13.367 28.41 17.95 9.668 4.59 20.816 6.878 33.44 6.878 23.47 0 41.712-8.61 54.73-25.84 13.017-17.23 19.53-40.898 19.53-70.992M927.602 70.988h62.77v65.96H927.6zM1150.74 119.32c3.92 4.81 6.86 10.61 8.82 17.37 1.95 6.77 2.93 16.15 2.93 28.12 0 11.07-1.01 20.362-3.02 27.862-2.01 7.488-4.81 13.476-8.39 17.95-3.58 4.59-7.89 7.827-12.93 9.737-5.02 1.902-10.45 2.85-16.27 2.85s-10.99-.78-15.52-2.35c-4.53-1.57-8.87-4.7-13.01-9.4-3.69-4.37-6.63-10.35-8.81-17.96-2.19-7.61-3.28-17.172-3.28-28.69 0-10.298.95-19.22 2.86-26.77 1.9-7.56 4.7-13.618 8.39-18.208 3.58-4.37 7.86-7.55 12.84-9.57 4.98-2.012 10.66-3.024 17.03-3.024 5.48 0 10.72.934 15.7 2.774 4.97 1.847 9.2 4.95 12.66 9.308zm74.36 45.82c0-31-9.05-55.41-27.11-73.25-18.07-17.85-43.44-26.77-76.11-26.77s-58.04 8.92-76.11 26.77c-18.07 17.84-27.1 42.25-27.1 73.25 0 31.22 9.08 55.72 27.27 73.508 18.18 17.793 43.49 26.692 75.94 26.692 32.9 0 58.32-8.96 76.27-26.86 17.96-17.902 26.95-42.35 26.95-73.34M1387.82 201.898h-5.36c-2.57.89-6.7 1.563-12.39 2.012-5.69.45-10.44.668-14.24.668-8.59 0-16.18-.558-22.77-1.68-6.59-1.117-13.68-3.02-21.26-5.7V70.99h-60.59V259.46h60.59v-27.69c13.28 11.41 24.83 18.992 34.66 22.742 9.82 3.75 18.86 5.617 27.12 5.617 2.12 0 4.53-.06 7.2-.17 2.69-.108 5.03-.28 7.04-.5V201.9M1527.55 130.398v85.422c-3.46 1.46-7.71 2.598-12.73 3.442-5.02.84-9.54 1.258-13.56 1.258-15.85 0-27.74-4.56-35.66-13.668-7.93-9.122-11.89-21.852-11.89-38.184 0-18.13 3.37-30.777 10.13-37.93 6.75-7.156 16.77-10.75 30.06-10.75 6.02 0 11.94.953 17.74 2.864 5.81 1.898 11.1 4.418 15.91 7.546zm60.58-37.757c0-17.68-2.51-32.562-7.54-44.64-5.04-12.09-12.09-21.54-21.16-28.37-9.06-6.93-20-11.94-32.8-15.02-12.81-3.07-27.27-4.61-43.39-4.61-13.08 0-25.98.79-38.68 2.352-12.7 1.57-23.69 3.457-32.98 5.7v47.167h7.38c7.37-2.91 16.36-5.572 26.98-7.982 10.61-2.398 20.1-3.597 28.48-3.597 11.18 0 20.26 1.028 27.24 3.098 6.98 2.07 12.31 5.012 16.01 8.813 3.45 3.58 5.97 8.16 7.54 13.76 1.56 5.6 2.34 12.31 2.34 20.14v3.52c-7.27-5.93-15.31-10.618-24.14-14.09-8.82-3.482-18.65-5.2-29.5-5.2-26.37 0-46.71 7.94-61.01 23.82-14.31 15.89-21.45 40.06-21.45 72.5 0 15.56 2.17 28.988 6.53 40.29 4.35 11.3 10.51 21.14 18.44 29.542 7.37 7.816 16.45 13.918 27.23 18.29 10.78 4.358 21.83 6.538 33.11 6.538 10.17 0 19.42-1.2 27.74-3.6 8.32-2.412 15.9-5.74 22.72-9.99l2.18 8.39h58.73V92.64M1804.74 332.13l-133.1-315.51h-51.51l132.55 315.51h52.06M1908.39 70.988h-60.59V259.46h60.59zm1.67 215.32h-63.94v45.82h63.94v-45.82M2068.6 72.648c-6.5-1.668-13.37-2.98-20.65-3.937-7.27-.93-16.17-1.41-26.69-1.41-23.49 0-40.97 4.75-52.44 14.27-11.47 9.5-17.2 25.782-17.2 48.828v88.114h-24.84v40.95h24.84v53.866h60.58V259.46h56.4v-40.948h-56.4v-66.89c0-6.622.06-12.392.18-17.32.11-4.93.99-9.353 2.67-13.282 1.57-3.93 4.32-7.032 8.28-9.33 3.96-2.292 9.74-3.44 17.32-3.44 3.12 0 7.23.672 12.29 2.012 5.08 1.347 8.63 2.578 10.64 3.687h5.02V72.647" fill="#000000"></path></g></svg>