<svg xmlns="http://www.w3.org/2000/svg" viewBox="0 0 846.93335 378.05334" height="378.053" width="846.933"><defs><clipPath id="a"><path d="M0 0h6351.95v2835H0z" fill="#000000"></path></clipPath></defs><g clip-path="url(#a)" fill="#fff" transform="matrix(.13333 0 0 -.13333 0 378.053)"><path d="M1340.5 2131.88c12.5 27.07 24.08 48.62 40.78 74.3 7.39 11.32 15.71 19.22 23.13 30.68-3.56 1.02-8.73-1.91-10.98-3.51-7.42-5.38-10.76-14.12-16.7-18.8-14.04-11.07-13.65-21.1-20.99-26.28-6.58-4.63-8.46-7.68-13.07-14.9-3.07-4.82-5.33-8.73-8.59-18.23-1.16-3.42-3.44-.39-8.93-7.93-7.19-9.8-10.41-20.39-13.38-32.26-.95-3.9-7.6-5.97-11.85-14.07-5.73-10.92-9.44-21.03-11.92-36.95-.6-3.69-6.85-6.25-11.15-16.53-3.05-7.23-5.23-8.83-7.91-22.45-1.64-8.31-5.43-9.51-9.69-21.57-3.3-9.2-3.43-18.06-4.59-30.08-.25-2.33-4.2-6.95-7.83-13.69-6.09-11.26-5.9-18.78-8.32-30.41-.92-4.21-5.64-9.77-10.18-27.79-3.98-15.98-.33-26.57-1.67-34.45-3.52-20.44-7.04-38.21-5.14-58.35.94-9.85 2.44-20.01 1.78-29.48-1.88-29.7-3.48-54.17-3.32-87.83.11-18.32 1.54-43.41 4.31-64.29 3.05-23.06 7.44-41.07 7.44-41.07h75.14s-2.93 43.45.96 89.19c2.3 27.42 8.83 56.49 14.76 76.9 7.5 26.02 12.17 39.5 26.37 73.84.29.76-.1 3.98-3.85.83-7.85-6.59-14.39-12.37-20.58-21.69-9.46-14.25-15.22-25.99-22.87-40.63-8.95-17.02-13.89-31.85-23.11-52.52-.55 14.92 1.87 29.12 4.9 42.87 3.11 14.04 5.57 25.16 9.98 37.26 7.83 21.34 15.43 39.16 27.99 59.02 7.29 11.48 16.58 21.78 26.02 30.33 11.29 10.31 21.73 19.39 33.55 29.49-12.42 6.41-28.96-6.95-32.26-7.63-17.48-3.42-24.59-19.61-29.95-21.84-7.63-3.19-12.07-7.87-17.38-14.32-4.08-4.86-5.31-12.34-9.59-14.99-7.13-4.44-12.36-11.14-17.26-20.49-2.02-3.87-7.5-22.13-13.6-19.79 10.43 61.93 32.29 120 67.38 171.69 22.25 32.78 46.45 60.9 82.13 86.11 4.69 3.33 5.61 4.89-.95 4.66-33.34-4.05-35.37-19.28-40.86-20.71-5.22-1.35-11.66-7.52-15.78-11.54-7.41-7.32-7.29-13.5-10.12-15.42-6.09-4.25-10.67-8.66-14.83-16.02-2.18-3.85-5.85-12.31-9.1-14.24-8.57-4.96-16.85-12.19-20.99-19.99-3.05-5.7-4.26-11.88-8.25-17.49-4.27-6.02-10.23-10.52-15.37-14.88 3.91 26.46 16.37 57.82 24.96 84.87 11.53 36.12 25.53 68.95 41.33 103.07M1417.2 1917.38c28.46 63.85 58.38 111.9 97.27 168.11 5.08 7.37 9.65 14.58 14.08 21.49 1.99 3.11 11.56 16.85 13.55 19.76 13.03 19.69 18.52 25.71 31.86 44.53 3.61 5.11 6.54 9.13 8.09 15.04 2.85 11.01-6.61 18.4-8.79 28.96-2.19 10.79-1 22.57 3.96 31.68 3.11 5.69 6.19 7.93 9.32 15.57 6.05 14.73 3.96 46.6 10.86 47.43-1.74-15.12-2.15-32.13.23-46.63 2.76-16.93 13.03-27.18 17.27-45.11 11.42 2.06 23.83 1.57 33.45.74 9.54-.82 21.61 1.83 31.39 5.18 13.26 4.53 24.28 12.78 37.79 15.98-11.48-11.05-27.71-15.2-41.32-23.59-5-3.14-9.71-7.29-13.05-12.45-5.47-8.5-9.79-16.64-18.34-20.37-15.2-6.63-28.24-3.49-45.57-6.72-25.76-26.53-50.02-62.62-72.38-100.57-56.74-95.98-104.04-195.37-131.54-297.29 9.51 17.73 18.59 34.88 28.9 51.75 11.37 18.74 24.18 37.09 38.13 55.47 32.65 43.05 64.98 80.64 101.17 120.19 29.22 31.95 61.25 58.76 96.95 81.18 47.19 29.57 105.41 50.28 156.57 39.6 5.82-1.36 14.14-2.91 17.77-6.74-64.1 8.98-121.54-13.42-164.4-47.75-33.84-27.07-62.38-54.55-91.38-90.26-14.98-17.21-28.46-36.12-41.84-54.45-14-19.27-26.44-39.55-38.77-59.84-41.54-68.6-72.99-141.24-96.11-216.5-.66-2.38-.8-4.78-1.47-7.16 1.1 1.69 2.72 3.53 3.81 5.25 31.14 50.6 68.56 99.45 115.96 132.22 4.14 2.82 8.46 8.26 9.57 12.53 5.14 20.09-10.18 29.75 11 57.52 4.86 6.38 11.5 8.7 16.09 14.64 8.67 13.4 15.74 37.41 23.01 43.86-3.65-15.64-12.62-32.14-14.53-48.25-2.03-17.69 2.5-32.15 3.28-50.89 12.52-1.71 22.21-7 32.03-10.04 15.27-4.78 24.45-3.56 39.57-2.26 6.44.55 18.14 4.32 25.1 2.9-14.61-7.98-34.34-6.51-49.28-14.15-10.47-5.35-13.5-13.26-27.91-16.04-12.85-2.5-23.65-1.16-31.99 3.12-6.49 3.27-11.56 4.64-17.39 1.85-15.56-7.47-26.19-18.02-38.71-30.65-29.08-29.26-52.81-61.93-74.96-104.74a553.834 553.834 0 0 1-16.13-34.26c-2.46-5.65-8.59-21.34-8.59-21.34h-75.98s-.2 21.91.53 29.91c1.44 15.94 3.61 27.76 6.72 43.93 4.39 23.27 8.71 44.38 14.74 66.95 5.88 21.96 12.23 42.56 19.75 63.65 15.7 43.96 32.4 86.06 50.66 127.06M682.555 1325.53c27.734 22.68 48.26 35.82 75.957 52.33 11.238 6.72 28.25 14.33 41.328 20.26 47.988 21.68 111.465 37.67 171.27 38.77 1.093 0 1.015-.05 1.015-.05h445.895s-1.66.05 1.56.05c14.2 0 28.23-4.94 36.92-13.15 8.71-8.26 12.87-20.97 15.14-33.62 1.93-10.78.97-20.36-1.53-31.89-1.97-9.11-3.44-14.54-8.51-22.28-3.07-4.71-5.98-7.94-11.68-12.48-5.86-4.68-14.16-6.31-23.67-6.4-1-.04-3.13-.1-3.05-.07.1.07-521.563.07-521.563.07s-3.242.01-4.864.01c-34.152.11-70.097-1.63-103.84-6.03-25.847-3.53-51.745-7.56-76.726-14.06-31.504-8.23-61.836-19.62-92.11-30.91 16.778 22.31 36.153 41.24 58.458 59.45" fill="#000000"></path><path d="M837.38 1502.94c27.4 19.79 60.663 36.04 90.124 47.32 14.953 5.66 34.816 11.93 50.598 15.86 19.062 4.81 40.968 8.42 58.828 8.94 5.39.15.8.04.8.04l382.44.04s8.2-.44 11.04-1c7.18-1.55 12.98-4.48 15.39-6.01 5.93-3.81 13.4-11.81 17.3-18.14 9.92-16.35 11.68-34 8.46-52.37-3.67-20.97-19.61-44.86-41.23-45.45-3.77-.1-11.27 0-11.27 0h-414.24s-24.1-.47-35.116-.87c-20.37-.8-42.97-3.12-60.754-5.74-15.215-2.19-30.078-5.07-45.312-9.15-51.063-13.8-95.438-39.7-141.856-59.84 31.262 54.63 73.547 96.48 114.797 126.37M623.434 1243.01c66.484 39.28 146.582 54.77 219.882 57.23 1.746.08 5.223.19 5.223.19l571.73-.05s1.03 0 6.21.05c34.65.03 47.3-34.35 47.15-62.15-.06-9.16-1.62-18.5-4.16-24.77-3.28-8.19-6.94-14.88-12.89-21.34-2.13-2.34-9.79-7.72-13.17-8.55-7.93-1.94-17.67-1.72-17.61-1.72.07 0-425.26-.08-425.26 0 0 0-22.946.92-38.876 2.45-11.473 1.13-20.176 2.33-32.09 4.6-29.285 5.82-53.562 15.35-78.926 23.17-16.92 5.24-34.714 9.13-53.27 11.94-34.14 5.22-71.425 7.6-105.898 4.99-43.847-3.26-82.843-11.85-124.55-25.08 7.054 10.99 36.37 27.12 56.504 39.04" fill="#000000"></path><path d="M931.39 1063.73c-19.538 6.89-38.613 15.78-55.722 27.07-22.285 14.75-33.21 26.48-62 39.79-24.648 11.39-44.336 22.63-78.69 35.08-16.583 6.01-43.45 14.28-66.486 18.22-32.91 5.59-64.637 8.04-64.637 8.04s6.72 4.19 10.774 5.43c33.59 10.22 63.245 15.21 97.737 17.76 30.246 2.27 58.04-.68 88.352-5.42 12.44-1.96 28.612-5.79 42.675-9.8 45.632-12.99 97.52-33.59 143.543-33.67 2.57 0 2.277.04 2.277.04h426.305c12.87.04 36.94-4.13 46.6-21.21 11.21-19.68 14.69-43.12 5.28-66.6-2.85-7.05-7.58-17.16-14.38-23.28-5.95-5.4-15.66-8.87-21.27-8.87-1.62-.08-4.39 0-4.39 0h-371.69-2.02c-38.01 0-85.86 4.6-122.26 17.42M1100.71 931.89c-10.52 10.79-25.01 27.33-38.16 43.04-25.21 30.07-36.52 57.16-36.52 57.16h247.91s.66-28.6-5.06-61.72c-5.37-30.75-16.72-63.17-28.81-86.66-.43-24.08 9.73-46.472 11.41-70.26-20.37-12.5-42.27-24.872-60.53-42.42-1.15-1.08-3.04-1.08-3.81 1.83-9.77 36.66-14.93 69.34-22.95 105.59-22.59 17.468-43.79 33.038-63.48 53.44M1356.21 952.22c-7.02 12.948-12.25 30.05-20.3 40.22-1.74-9.07.39-14.65-.84-23.33-1.13-7.27-7.09-4.25-8.3-.83-3.47 9.84-7.17 21.99-10.35 32.08-5.27 16.8-6.97 31.68-6.97 31.68l41.25.05s1.58-.39 2.3-4.4c1.98-10.39 1.49-20.54 4.34-32.58 3.65-15.508 8.38-29.67 14.06-44.13 4.96-12.73 11.37-25.57 16.56-38.21.71-1.66 1.04-4.86-.21-6.52-1.52-1.922-4.16-1.68-5.67 0-11.81 13.43-16.58 28.64-25.87 45.97M1420.03 922.738c-7.01 14.953-16.87 31.762-16.01 48.723 4.57-5.99 6.44-10.28 12.71-13.62 2.87-.91 8.91-.06 7.39 4.96-2.78 9.34-7.07 17.25-11.06 30.07-5.92 18.95-11.68 39.2-11.68 39.2l-42.09.02s2.33-17.08 11.9-43.29c8.41-23.21 21.4-49.77 35.62-74.67 11.58-20.482 22.11-38.35 35.26-53.31 4.49-5.148 15.52-.63 10.76 6.07-12.48 17.64-24.12 37.17-32.8 55.848M1693.39 2345.62c-9.14-3.98-17.2-9.13-21.75-17.91-3.32-6.3-5.57-15.92.78-21.33 11.11-9.49 24.37.22 29.74 9.91 6.8 12.35 5.02 35.96 5.02 35.96s-7.89-4.11-13.79-6.63" fill="#000000"></path><path d="M1703.06 2286.68c3.99 7.54 12.74 15.68 22.33 21.51 10.84 6.63 22.07 13.06 29.88 17.72 7.81 4.7 9.3 7.99 9.3 7.99s-6.43-2.22-9.97-4.3c-19.27-11.49-40.31-24.55-48.86-28.32-10.8-4.71-25.47-5.62-38.69-7.31-2.11 16.69-6.45 23.62-6.39 38.44.1 7.11 1.82 16.34 3.03 22.77 4.14 21.43 4.96 32.25 4.96 32.25s-3.28-3.05-4.48-12.48c-1.34-8.52-2.3-11.66-4.25-21.74-2.23-11.62-4.55-21.47-11.51-28.73-10.02-10.37-19.29-28.82-11.56-42.96 4.51-8.26 12.05-7.06 14.41-9.19 2.35-2.12 3.79-7.21 10.92-9.57 15.39-5.14 32.83 8.67 40.88 23.92" fill="#000000"></path><path d="M1683.1 2242.61c5.23 8.48 10.59 14.43 18.83 19.48 13.65 8.33 23.79 13.97 32.13 18.23 3.61 1.82 6.62 3.98 7.54 7.84-3.73-1.4-17.84-8.03-31.84-16.36-10.02-5.98-27.26-13.46-38.85-13.99-4.59-.2-7.99.93-11.74 1.05-7.77.32-17.65-1.56-17.65-1.56s-2.52 10.99-5.84 18.9c-1.66 4.05-4.36 8.21-5.8 15.82-.98 5.08-1.25 12.71-.86 17.25 1.13 13.73 4.84 27.07 4.2 40.97-8.64-17.93-5.1-40.01-15.24-53.88-4.27-5.83-7.65-10.43-11.01-17.78-5.57-12.06-4.9-24.55 2.61-36.18 4.34-6.63 13.91-6.38 15.57-7.67 2.5-1.85 4.65-8.78 14.01-10.86 16.01-3.6 34.9 3.83 43.94 18.74M1687.57 1892.02c3.73 7.53 6.14 17.43 10.9 24.41-10.76-1.61-12.5-2.84-28.05-4.54-3.37-.33-10.39-3.85-12.71-6.16-6.15-6.21-11.52-11.96-9.12-22.38.92-4.05 4.49-7.03 6.48-7.65 12.93-4.2 26.06 3.49 32.5 16.32" fill="#000000"></path><path d="M1700.7 1871.5c14.69 3.43 31.66 10.64 38.47 8.37-13.78-7.34-31.17-9.99-46.44-14.35-11.64-3.36-19.96-12.16-30.37-20.16-9.55-7.26-22.25-10.21-33.6-4.87-3.82 1.82-7.53 7.99-8.2 11.28-.58 2.64-6.07 5.27-8.89 7.58-2.83 2.36-4.19 8.25-4.25 10.53-.49 20.33 14.98 28.54 29.9 40.48 11.23 9 25.8 47.17 34.69 55.08-1.59-12.3-17.58-35.51-24.55-53.57-5.53-14.4-3.71-25.9-7.29-41.06 10.66-.68 22.56-2.91 33.28-3.08 8.42-.11 18.6 1.72 27.25 3.77" fill="#000000"></path><path d="M1685.23 1840.15c-8.26-1.53-18.36-4.13-25.23-5.59-23.97-5.07-35.42 6.66-54.54 6.44 1.68 21.9-5.91 31.71.34 45.87 5.58 12.6 10.76 25.94 15.56 36.62 3.89 8.56 5.06 15.79 5.06 15.79s-5.8-8.69-22.3-40.86c-5.75-11.22-16.04-13.63-25.16-24.23-10.51-12.13-16.54-37.75 2.89-48.51 3.87-2.11 3.3-8.78 6.11-11.47 12.99-12.2 39.2-10.98 55.59 3.9 13.05 11.89 28.91 13.82 42.42 17.32 7.91 2.04 14.85 5.4 14.85 5.4s-3.75 1.53-15.59-.68M1205.23 1585.9c-.96 0-1.97 0 0 0zm-111.9 315.55c-7.98-10.56-11.67-22.71-20.49-31.93-4.6-4.82-11.63-2.56-15.27 3-4.05 6.28-10.59 15.19-5.73 21.4 8.01 10.26 24.76 16.81 39 14.96.84-.1 5.43-3.49 2.49-7.43zm-38.33-60.39c-4.48-11.96-17.8-13.25-29.15-15.62-2.11-.47-8.64 0-11.57 2.87-4.89 4.79-9.14 11.34-8.29 19.54.46 5.05 4.69 10.01 9.9 12.03 9.48 3.67 20.71 9.57 30.04 4.33 8.02-4.49 12.23-14.73 9.07-23.15zm-24.56-63.21c-3.26-4.72-11.64 10.93-12.73 18.11-3.13 20.77 15.08 26.07 30.24 25.42.47-12.38-9.13-31.56-17.51-43.53zm-16.38-56.04c-2.97-8.36-4.4-16.03-7.72-23.69-3.22-7.4-16.97-10.04-24.606-7.67-10.898 3.37-20.234 27.83-7.85 37.2 9.47 7.08 19.284 8.22 31.356 9.7 2.17.26 10.27-.23 10.59-.99 2.02-5.08.75-7.62-1.77-14.55zm-18.333-64.59c-2.207-6.42-3.184-13.03-6.024-19.2-1.418-3.12-3.28 1-3.36 1.19-4.277 10.65-6.972 19.66-3.33 29.03 2.06 5.19 9.17 9.96 15.91 10.38-.423-6.67-.9-14.9-3.196-21.4zm-21.65-31.49c-4.92 2.22-4.843 8.55-6.913 12.49-1.934 3.83-6.133 9.12-4.406 14.16 9.504-5.33 13.898-14.83 11.32-26.65zm-16.386 39.31c-11.327 9.32-12.315 24.21-19.862 35.62 8.34 5.33 22.383 4.26 26.707-6.29 3.457-8.48 5.97-20.94-2.625-27.41-.937-.69-3.144-2.81-4.22-1.92zm-42.245 76.85c-1.7 2.42-5.058 9.43-2.5 10.32 20.282 6.98 35.496 7.21 39.832-14.48 3.067-15.49-7.507-28.78-22.332-23.36-4.25 1.56-8.457 18.06-15 27.52zm-29.492 48.99c-1.426 1.79-2.578 7.18-.812 8.57 10.548 8.47 26.028 9.12 38.02 7.95 15.81-1.45 19.063-16.14 16.426-28.32-3.488-16.04-27.813-18.03-34.7-15.37-6.765 2.6-11.49 17.94-18.933 27.17zm3.438 57.03c13.66 8.86 39.786 15.43 44.14-8.56 1.318-7.23-.487-16.83-10.253-19.97-10.03-3.21-21.847-6.69-31.007-2.97-11.278 4.62-13.485 24.65-2.88 31.5zm-14.16 40.36c1.024 4.61 6.133 6.78 10.41 7.87 11.063 2.74 23.438 6.86 33.583.4 3.957-2.51 4.27-6.06 4.777-11.03.898-8.06-.246-14.66-5.56-17.74-10.768-6.32-21.737-6.9-34.256-4.43-10.157 2.01-10.985 15.46-8.954 24.93zm-11.34-62.2c-9.472 6.99-13.66 16.89-20.632 26.71-1.692 2.4 0 3.38 1.29 3.76 16.804 4.75 29.276-3.64 26.66-21.96-.47-3.55-2.786-11.85-7.317-8.51zm-46.386 56.6c-6.297 5.45-1.922 14.92 3.566 17.68 9.61 4.77 24.707 5.49 34.707 2.12 6.426-2.16 9.688-11.39 8.535-21.46-.488-4.13-1.75-8.67-3.77-10.02-7.616-5.19-19.394-5.39-28.65-3.47-6.544 1.39-8.888 10.34-14.388 15.15zm-7.254 57.24c6.082 13.27 28.3 13.38 40.398 7.47 9.856-4.85 11.094-23.19.332-30.42-8.582-5.72-22.117-3.62-31.218-1.94-12.93 2.37-13.965 15.09-9.512 24.89zm.488 49.61c9.227 8.78 21.192 4.76 32.305 3.22 2.148-.31 4.715-1.82 6.172-3.27 7.597-7.67 8.19-20.24-.254-26.53-9.757-7.24-21.933-2.54-33.65-1.95-3.165.13-6.642 3.85-7.365 6.23-2.11 7.42-3.39 16.49 2.793 22.3zm5.946 41.5c9.796 4.09 26.632 5.96 33.574-5.03 4.27-6.74 3.02-19.22-3.817-21.04-6.69-1.72-29.452-5.5-34.9 7.09-2.696 6.19-1.563 16.16 5.144 18.98zm30.168 35.25c2.832-1.25 4.597-3.52 5.273-7 1.387-7.55-.598-15.75-7.844-17.08-10.885-1.98-27.057-2.61-27 12.78.04 17.17 16.954 16.98 29.572 11.3zm-21.926 31.93c5.793 2.21 15.332 1.71 20.54-.99 2.616-1.37 6.15-5.68 4.667-10.23-1.856-5.92-7.363-8.06-13.633-8.14-6.016-.05-12.93.43-15.352 5.34-2.316 4.66-1.328 12.04 3.778 14.02zm6.77 25.75c5.292 1.92 13.124 1.79 16.98-2.39 5.304-5.79 1.125-15-8.887-14.54-3.524.15-7.696 1.36-9.825 2.57-5.164 2.92-3.457 12.5 1.73 14.36zm23.808 16.58c.684 2.23 4.16 4.85 5.984 5.49 3.977 1.41 8.625 1.7 12.434.18 7.598-3.12 6.55-12.52-1.563-15.82-3.633-1.47-9.22-2.43-11.954-1.47-5.117 1.73-6.535 6.17-4.902 11.62zm23.69-36.76c-8.3-2.43-19.854-2.9-22.323 5.6-4.21 14.42 14.005 16.58 23.44 13.56 6.522-2.07 8.815-16.32-1.115-19.16zm5.49 47.62c2.625 8.94 12.754 13.79 21.933 11.06 7.88-2.31 9.707-13.06 4.375-18.29-2.414-2.34-6.406-4.73-10.703-5.68-9.388-2.1-18.606 3.07-15.606 12.91zm41.25-32.79c-1.485-5.83-5.762-9.83-12.618-11.35-6.808-1.5-16.21-1.92-19.98 2.29-3.606 3.98-5.254 9.57-2.258 13.87 6.027 8.56 17.043 11.55 26.867 9.38 5.606-1.31 9.727-7.05 7.99-14.19zm-3.664 34.31c3.664 8.11 12.96 12.19 21.886 9.47 1.778-.58 5.47-3.45 5.977-6.29 1.055-5.64-.9-10.79-5.606-13.74-6.035-3.85-11.027-6.01-17.95-3.17-5.214 2.18-6.483 8.94-4.307 13.73zm38.437-22.78c4.074-6.9-2.13-13.83-5.28-15.73-6.986-4.09-16.837-6.6-21.048.33-4.142 6.79-.712 14.86 6.515 17.84 6.894 2.86 14.023 7.2 19.812-2.44zm11.594-26.36c4.56-3.78 8.563-11.71 3.095-17.97-5.137-5.91-11.512-7.68-19.59-8.98-5.457-.93-12.43 3.11-13.32 7.93-.81 4.15-1.57 11.72 2.55 15.2 8.016 6.84 18.77 10.8 27.266 3.82zm9.67 44.97c4.315-1.27 7.07-5.83 4.9-10.22-1.308-2.71-5.175-5.64-7.647-7.15-6.766-4.17-12.567-2.46-14.688 2.51-3.894 9.15 9.21 17.28 17.434 14.86zm16.503-22.79c4.747-.42 6.937-3.73 7.867-7.36 1.23-4.87-.38-9.38-4.49-12.14-4.893-3.25-10.987-5.17-15.858-5.25-6.6-.11-12.707 9.57-9.133 15.85 3.78 6.74 13.312 9.62 21.613 8.9zm27.287-34.89c2.8-8.28-3.27-12.14-9.67-15.54-6.51-3.47-15.22-6.71-19.738-2.39-5.77 5.43-8.33 14.58-1.903 20.6 8.91 8.36 25.41 14.65 31.31-2.67zm11.77-20.77c10.45-1.33 12.53-16.2 10.42-21.58-2.39-4.62-7.66-8.24-10.42-9.66-7.67-3.95-16.64-5.45-23.7-1.8-6.42 3.34-9.21 13.09-5.72 20.73 4.74 10.34 19.64 13.59 29.42 12.31zm21.52-46.04c3.58-5 2.79-13.88.67-16.66-6.6-9.01-24.96-14.16-32.54-10.47-5.76 2.82-11.43 15.5-4.69 23.11 7 7.9 19.21 12.61 30.3 10.3 2.47-.55 4.1-3.27 6.26-6.28zm4.64-28.37c5.04-.54 9.51-6.08 11.94-12.11 3.15-7.8-.04-16.89-2.53-18.59-6.02-4.09-25.09-15.57-37.09-8.69-6.6 3.79-8.42 12.44-8.83 17.55-1.33 16.51 23.72 23.27 36.51 21.84zm-70.393-118.09c-2.57 6.55-4.942 16.24.195 20.21 10.388 8.2 33.898 15.38 42.828 2.98 5.82-8.05 4.11-21.7-6.06-26.92-10.51-5.36-31.045-11.54-36.963 3.73zm-50.41-.73c10.43 5.31 25.45 11.71 36.68 4.48 5.136-3.31 10.45-16.97 6.816-23.03-7.695-12.87-27.96-16.15-40.84-12.83-10.97 2.84-14.277 25.52-2.656 31.38zm-9.387 44.5c12.59 8.85 37.44 14.56 43.43-4.77 1.55-5.02 2.44-10.57-.13-14.62-6.972-11.21-24.655-14.17-36.49-12.49-12.806 1.86-18.85 23.43-6.81 31.88zm-10.594 45.08c12.09 6.85 37.86 15.96 43.926-3.68 2.43-8.03 2.188-17.94-4.687-21.48-9.856-5.18-25.46-10.59-36.817-3.51-9.473 6-10.762 23.9-2.422 28.67zm67.676 81.02c-5.06-4.52-10.195-5.49-16.934-7.78-9.445-3.2-19.316 4.07-20.41 13.1-1.816 15.46 14.754 17.76 25.71 19.69 7.99 1.44 12.943-5.73 14.407-10.56 1.504-4.64 1.31-10.87-2.773-14.45zm20.308-36.37c-7.18-10.71-36.16-17.45-42.554-6.43-4.668 8.07-7.57 19.39 1.21 24.8 9.208 5.66 20.138 9.05 30.864 7.12 10.07-1.78 15.2-18.36 10.48-25.49zm15.45-66.34c4.12-6.55 7-15.37.88-23.51-5.55-7.45-25.37-10.94-35.517-8.48-5.566 1.41-8.19 8.16-9.05 12.73-1.173 6.17-1.73 12.38 3.73 17.41 7.85 7.2 18.337 7.04 28.417 7.04 4.13 0 9.98-2.69 11.54-5.19zm-5.76 22.27c-6.17-11.34-27.088-12.79-36.482-11.54-6.633.88-11.29 11.56-11.094 20.5.058 4.59 1.492 7.64 4.637 9.33 10.442 5.6 21.133 9.35 32.37 7.53 10.96-1.74 15.22-17.22 10.57-25.82zm-110.076 24.42c-7.102 21.89 20.234 28.79 36.18 25.41 11.105-2.31 14.816-23.65 4.484-30.39-12.793-8.31-35.48-10.99-40.664 4.98zm-41.21-53.73c8.19 8.45 22.976 8.98 34.51 7.43 7.09-.99 10.145-8.15 11.134-15.92 2.753-21.38-25.938-24.97-39.602-19.97-8.992 3.28-13.68 20.57-6.043 28.46zm-5.774 41.43c8.566 10.07 22.882 12.46 34.738 9.2 7.234-1.97 10.586-10.43 10.418-19.92-.137-5.37-3.828-9.27-7.137-10.64-8.43-3.42-18.165-5.96-27.364-4.84-11.348 1.4-18.223 17.26-10.656 26.2zm1.36 45.1c10.526 4.29 30.143 8.14 33.456-6.9 4.453-20.02-19.18-23.28-31.797-19.8-9.67 2.65-11.505 22.72-1.66 26.7zm75.722 33.09c7.87-4.47 9.53-17.08 4.734-24.39-6.367-9.67-28.133-15.28-39.844-6.81-6.68 4.85-10.28 24.72 3.41 29.49 10.938 3.83 21.414 7.54 31.7 1.71zm-11.153 14.38c-8.927-5.52-21.66-7.72-30.098-3.02-7.344 4.01-7.063 14.75-3.418 20.52 5.976 9.62 20.86 10.66 31.132 7.64 8.868-2.57 12.188-19.04 2.383-25.14zm-72.286 15.68c.906 2.86 2.176 3.68 3.953 4.55 7.512 3.58 15.754 4.54 22.942-.08 5.174-3.35 4.725-11.1.878-15.11-5.618-5.91-17.043-6.15-24.356-2.31-4.727 2.46-4.94 8.29-3.418 12.95zm2.402-31.35c3.32 9.49 15.145 8.96 24.102 7.8 11.023-1.44 13.23-15.56 9.316-21.5-5.41-8.2-17.754-6.63-27.578-5.38-8 1.02-8.476 11.61-5.84 19.08zm155.504-285.19c2.72-10.72 0-20.9-9.53-24.32-12.243-4.31-28.806-10.64-38.602-4.04-11.2 7.51-16.59 28.81-3.72 37.16 15.196 9.94 45.442 16.45 51.852-8.8zm-16.5 33.3c-8.242-9.36-21.672-9.05-34.863-12.91-5.09-1.49-11.133 3.01-13.78 7.67-4.872 8.7-9.755 20.36-.42 28.77 7.735 7.05 18.282 6.45 27.755 9.28 4.258 1.28 9.46 2.77 14.63-.72 10.668-7.29 14.828-22.91 6.678-32.09zm87.3 140.13c2.33-6.79 5.44-11.79 2.8-18.57-3.15-8.33-11.21-9.47-18.79-12.21-7.07-2.56-18.87-5.8-24.79.4-6.8 7.04-9.55 21.39-1.4 27.54 10.55 7.87 36.6 18.71 42.18 2.84zm143.29 61.19c6.23 25.39 13.96 51.14 15.89 77.97 2.86 40.07-5.8 81.73-31.5 112.08 2.54-13.09 5.88-24.15 7.64-37.88 2.09-16.59-.26-35.07-4.53-51.77-3.25-12.64-8.93-24.93-14.59-36.67-6.66-13.91-16.63-29.04-26.55-41.45-27.81-34.58-71.13-102.08-71.13-102.08s-3.64.27-5.79.27c-.52 8.41 19.44 37.22 29.5 53.34 22.09 35.36 38.83 54.38 58.05 85.04 12.03 19.32 21.23 42.84 24.18 64.16 5.99 43.43-17.42 95.47-51.1 112.79 7.7-32.44 6.9-78.17-10.38-97.4-32.68-36.43-52.12-63.69-75.46-110.39-.66-1.25-6.12 6.3-10.62 9.23-5.08 3.36-2.24 13.37-4.05 20.11-1.64 5.73-4.34 10.15-5.14 11.15-6.91 8.46-13.58 8.99-15.03 11.53-1.68 2.86-.88 10-6.9 18.13-3 4.1-10.68 7.13-13.8 10.97-3.37 4.2-4.91 17.06-14.21 22.32-4.425 2.48-6.476 10.19-10.714 13.97-13.086 11.59-26.153 9.35-28.653 10.07-3.37.91-9.94 9.28-21.64 11.29-11.438 1.95-17.735-5.68-23.672-2.92-14.882 6.89-29.15 7.45-44.98-10.18-4.746-5.25-12.96-.34-23.203-8.19-9.004-6.85-9.172-13.19-13.75-14.06-8.613-1.61-15.04-8.5-18.36-16.02-1.718-3.87-3.007-11.7-4.022-16.86-1.407-7.13-5.012-13.69-5.08-18.93-.077-7.28 2.216-11.22 1.572-14.47-1.063-4.71-4.87-9.03-5.34-13.44-.352-2.5-.56-9.16 1.258-12.91 2.297-4.62-1.61-8.64-3.633-13.56-1.934-4.58-3.973-12.42-3.348-17.95.82-7.59 5.164-10.37 1.785-16.35-5.536-9.72-12.528-24.88-.262-44.25 2.246-3.54-5.137-10.43-5.56-20.54-.468-11.01 6.173-19.13 7.99-24 .343-1.75-2.92-1.66-3.036-3.53-29.23 30.9-55.07 59.39-88.957 86.22-20.703 16.36-41.172 30.12-64.11 42.4-61.288 32.87-132.49 54.86-196.99 46.82 24.284-19.55 54.94-33.5 79.89-55.71 23.64-21.06 45.09-39.04 66.62-61.41 33.8-35.11 61.262-70.7 89.875-112.01 8.496-12.23 14.082-20.41 22.012-33.16 7.97-12.77 16.836-26.32 24.102-38.97 36.61-63.57 66.61-122.44 96.972-187.59 8.426-18.01 15.508-36.87 23.77-54.78 2.207-4.86 5.37-1.25 7.605 0 10.978 6.35 22.65 11.66 34.056 17.04 9.09 4.18 17.37 7.06 25.508 10.18 20.535 7.83 40.027 12.08 61.543 16.55 35.913 7.52 100.443 5.97 100.443 5.97l122.33.04h3.34c-1.27 35.07-9.61 69.15-11.64 104.33-1.54 28.49-.59 56.03.41 84.59 2.73 77.34 14.1 160.39 31.39 230.87M395.137 2295.89c-23.87-23.8-30.992-32.57-44.91-58.88-8.2-15.47-18.61-35.33-21.58-60.93 49.052 18.67 89.072 56.78 125.236 98.87 26.754 31.2 47.504 72.6 73.887 103.42-46.47-15.58-95.504-45.51-132.633-82.48" fill="#000000"></path><path d="M254.71 2228.98c18.493 31.24 44.98 65.01 72.442 88.06-12.718-28.58-28.382-56.88-33.77-90.67-10.67-67.27-20.745-114.39-31.905-175.79 30.503 21.76 62.683 55.95 95.03 79.81 24.997 18.37 50.052 30.64 75.76 48.31 15.276 10.54 25.233 24.08 37.944 36.76-15.144-63.84-71.163-128.27-111.272-158.31-50.387-37.79-68.45-43.81-149.422-126.14-10.282 101.66-8.454 207.32 45.195 297.97" fill="#000000"></path><path d="M89.523 1891.32c3.766 52.79 10.102 95.02 22.926 146.52 8.988 35.97 28.34 89.51 56.245 111.47-3.418-13.04-5.215-32.6-6.53-45.79-5.47-54.4 4.944-117.57 6.187-171.91.617-26.72.382-47.31-3.618-72.42-4.136-26.32-.687-58.61-.687-58.61s14.426 16.47 27.305 36.99c28.144 44.71 37.16 57.97 59.836 82.19 28.132 30.05 59.597 57.88 95.124 82.53-4.285-16.7-22.425-49.17-29.92-62.22-10.005-17.46-14.544-33.32-38.216-72.85-33.313-55.55-48.153-63.05-85.14-122.45-8.01-12.92-40.848-62.06-48.806-77.08-17.328 35.86-23.863 67.19-45.12 125.57-13.352 36.67-11.356 73.35-9.587 98.06" fill="#000000"></path><path d="M38.09 1616.65c-20.086 52.08-29.29 100.39-36.098 155.23-4.16 33.54-2.226 78.27 9.746 110.51 3.14-7.87 9.547-27.85 10.414-30.85 8.907-29.96 12.633-44.35 25.082-73.25 9.524-22.16 21.168-39.83 33.63-61.73 11.327-19.99 20.89-46.31 29.085-66.45 26.374-64.57 28.32-125.02 38.413-131.62 7.258 15.54 9.532 30.42 10.344 37.75 7.84 71.45 17.25 136.39 107.227 220.6 8.254-25.07 4.07-71.28-.89-96.03-10.76-54.12-19.446-80.11-43.282-132.56-12.598-27.62-29.418-68.27-34.028-81.73-12.082-35.06-16.218-53.46-23.82-74.19-42.476 70.78-94.758 143.87-125.824 224.32" fill="#000000"></path><path d="M108.12 1291.04c-30.245 42.1-41.265 63.25-60.948 108.07-16.528 37.59-21.28 51.53-30.96 93.63-5.29 22.95-8.278 43.77-4.173 57.34 23.68-42.87 39.84-90.85 70.812-126.41 24.59-28.21 48.277-52.23 67.824-76.04 29.988-36.58 53.6-71.21 82.383-109.3 2.424 19.09 3.362 38.43-.927 69.71-5.856 42.86-2.246 78 5.238 119.49 9.49 52.66 16.446 78.72 34.716 131.99 22.348-43.83 22.262-94.54 27.87-141.03 10.83-90.2-17.39-197.76-22.94-242.6-1.485-11.81.562-40.96 1.16-52.32-42.2 33.23-79.742 66.79-116.14 103.29-16.587 16.54-39.345 43.95-53.915 64.18" fill="#000000"></path><path d="M268.102 960.262c-19.215 13.84-70.844 53.298-95.29 84.348-35.6 45.21-43.437 64.58-66.92 116.59-2.88 6.34-16.17 35.78-17.255 55.78 76.945-92.91 145.832-106.74 219.23-183.84 26.934-28.24 54.516-54.83 69.07-68.16 11.172-10.28 25.043-13.39 25.043-13.39s-1.445 19.8-8.687 33.578c-48.97 93.592-58.21 191.442-50.78 296.452 22.35-27.67 29.4-46.15 43.585-72.91 15.43-29.15 23.297-47.17 30.507-65.11 41.903-104.29 52.805-224.748 78.692-285.37-79.91 26.918-142.84 41.31-227.195 102.032" fill="#000000"></path><path d="M595.824 714.16c-21.613-1.45-63.992-1.32-86.586 2.36-114.394 18.308-220.726 101.21-274.215 192.27 48.497-29.59 83.563-49.34 126.21-64.11 37.986-13.12 74.01-17.012 137.42-35.02 38.26-10.808 76.144-26.12 89.452-31.1 42.418-15.798 60.278-11.92 60.278-11.92s0 6.45-15.848 23.73c-31.574 34.458-43.137 42.7-69.117 69.19-8.53 8.75-28.074 38.48-37.996 58.25-28.074 55.88-31.192 100.67-56.828 162.06 93.554-54.94 139.125-130.75 188.59-226.32 15.214-29.27 35.78-63.08 54.57-81.66 12.637-12.468 30.45-31.42 30.45-31.42s-13.048-3.072-53.673-9.072c-18.22-2.668-57.05-14.757-92.706-17.238M1049.31 706.91c49.39-8.082 93.27-20.082 138.19-35.488 12.07-4.152 30.44-13.28 43.16-19.73 31.84-16.204 50.16-26.723 77.52-45.532 44.06-30.35 91.4-63.05 134.12-112.672.92-.976 7.81-8.36 3.22-11.957-8.38-6.56-29-15.9-35.86-9.85-39.08 34.76-37.11 45.89-84.47 88.78-12.15 10.938-30.49 26.29-52.4 41.278-21.37 14.633-47.21 30.614-71.21 42.453-21.84 10.74-55.43 13.95-74.3 13.95l.26-.14c-8.56.328-57.84.61-69.24-.13-96.8-6.64-92.066-15.3-147.886-30.42-45.906-12.49-95.164-21.38-144.05-27.938-50.09-6.813-94.903-7.633-141.856-2.84-63.653 6.558-133.278 24.297-185.246 57.79 47.515-.802 96.304-9.93 143.57-6.314 19.887 1.532 52.164 4.532 74.008 11.274 43.418 13.328 68.332 18.527 114.308 31.348 39.512 10.992 79.356 14.8 120.606 19.152 57.11 6.11 109.996 4.726 157.556-3.012M1934.52 2295.89c23.87-23.8 31.02-32.57 44.94-58.88 8.2-15.47 18.61-35.33 21.58-60.93-49.09 18.67-89.07 56.78-125.26 98.87-26.78 31.2-47.5 72.6-73.87 103.42 46.46-15.58 95.5-45.51 132.61-82.48" fill="#000000"></path><path d="M2074.98 2228.98c-18.52 31.24-44.99 65.01-72.45 88.06 12.85-30.75 31.57-69.05 33.76-90.67 6.83-67.74 20.75-114.39 31.92-175.79-30.5 21.76-62.72 55.95-95.06 79.81-24.94 18.37-50.02 30.64-75.7 48.31-15.32 10.54-25.27 24.08-37.98 36.76 15.14-63.84 71.16-128.27 111.28-158.31 50.37-37.79 68.43-43.81 149.37-126.14 10.28 101.66 8.46 207.32-45.14 297.97" fill="#000000"></path><path d="M2240.16 1891.32c-3.81 52.79-10.08 95.02-22.93 146.52-8.98 35.97-28.34 89.51-56.29 111.47 3.46-13.04 5.23-32.6 6.56-45.79 5.52-54.4-4.88-117.57-6.17-171.91-.61-26.72-.39-47.31 3.59-72.42 4.15-26.32.72-58.61.72-58.61s-14.42 16.47-27.33 36.99c-28.09 44.71-37.11 57.97-59.85 82.19-28.1 30.05-59.6 57.88-95.13 82.53 4.33-16.7 22.46-49.17 29.96-62.22 10.04-17.46 14.53-33.32 38.22-72.85 33.3-55.55 48.14-63.05 85.1-122.45 8-12.92 40.89-62.06 48.84-77.08 17.35 35.86 23.86 67.19 45.12 125.57 13.39 36.67 11.39 73.35 9.59 98.06" fill="#000000"></path><path d="M2291.59 1616.65c20.08 52.08 29.26 100.39 36.11 155.23 4.16 33.54 2.2 78.27-9.75 110.51-3.14-7.87-9.53-27.85-10.42-30.85-8.93-29.96-12.63-44.35-25.05-73.25-9.54-22.16-21.24-39.83-33.67-61.73-11.32-19.99-20.88-46.31-29.12-66.45-26.34-64.57-28.29-125.02-38.38-131.62-7.28 15.54-9.54 30.42-10.33 37.75-7.85 71.45-17.26 136.39-107.23 220.6-8.28-25.07-4.08-71.28.84-96.03 10.81-54.12 19.54-80.11 43.33-132.56 12.59-27.62 29.42-68.27 34.06-81.73 12.01-35.06 16.17-53.46 23.83-74.19 42.44 70.78 94.72 143.87 125.78 224.32" fill="#000000"></path><path d="M2221.57 1291.04c30.27 42.1 41.26 63.25 60.93 108.07 16.53 37.59 21.26 51.53 30.98 93.63 5.29 22.95 8.26 43.77 4.14 57.34-23.61-42.87-39.86-90.85-70.83-126.41-24.54-28.21-48.23-52.23-67.78-76.04-29.96-36.58-53.64-71.21-82.38-109.3-2.41 19.09-3.38 38.43.87 69.71 5.9 42.86 2.29 78-5.19 119.49-9.49 52.66-16.45 78.72-34.71 131.99-22.32-43.83-22.26-94.54-27.88-141.03-10.86-90.2 17.43-197.76 22.98-242.6 1.45-11.81-.6-40.96-1.19-52.32 42.2 33.23 79.74 66.79 116.13 103.29 16.59 16.54 39.3 43.95 53.93 64.18" fill="#000000"></path><path d="M2061.6 960.262c19.19 13.84 70.83 53.298 95.26 84.348 35.61 45.21 43.46 64.58 66.93 116.59 2.84 6.34 16.18 35.78 17.26 55.78-76.94-92.91-145.84-106.74-219.24-183.84-26.92-28.24-54.48-54.83-69.05-68.16-11.17-10.28-25.04-13.39-25.04-13.39s1.43 19.8 8.65 33.578c48.99 93.592 58.23 191.442 50.76 296.452-22.27-27.67-29.37-46.15-43.54-72.91-15.4-29.15-23.29-47.17-30.48-65.11-41.93-104.29-52.88-224.748-78.76-285.37 79.97 26.918 142.88 41.31 227.25 102.032" fill="#000000"></path><path d="M1733.84 714.16c21.66-1.45 64.01-1.32 86.62 2.36 114.41 18.308 220.71 101.21 274.2 192.27-48.54-29.59-83.6-49.34-126.22-64.11-38.01-13.12-74-17.012-137.39-35.02-38.3-10.808-76.17-26.12-89.49-31.1-42.4-15.798-60.28-11.92-60.28-11.92s0 6.45 15.84 23.73c31.59 34.458 43.17 42.7 69.11 69.19 8.55 8.75 28.1 38.48 38.02 58.25 28.07 55.88 31.19 100.67 56.87 162.06-93.57-54.94-139.23-130.75-188.66-226.32-15.18-29.27-35.75-63.08-54.52-81.66-12.61-12.468-30.46-31.42-30.46-31.42s13.04-3.072 53.71-9.072c18.18-2.668 56.99-14.757 92.65-17.238M1280.37 706.91c-49.38-8.082-93.23-20.082-138.19-35.488-12.11-4.152-30.45-13.28-43.16-19.73-31.84-16.204-50.13-26.723-77.52-45.532-44.102-30.35-91.367-63.05-134.12-112.672-.92-.976-7.853-8.36-3.224-11.957 8.387-6.56 29.024-15.9 35.82-9.85 39.102 34.76 37.11 45.89 84.514 88.78 12.1 10.938 30.44 26.29 52.4 41.278 21.41 14.633 47.18 30.614 71.21 42.453 21.79 10.74 55.45 13.95 74.28 13.95l-.28-.14c8.6.328 57.84.61 69.28-.13 96.82-6.64 92.05-15.3 147.85-30.42 45.94-12.49 95.18-21.38 144.09-27.938 50.05-6.813 94.9-7.633 141.85-2.84 63.65 6.558 133.26 24.297 185.21 57.79-47.49-.802-96.24-9.93-143.57-6.314-19.9 1.532-52.13 4.532-73.98 11.274-43.42 13.328-68.34 18.527-114.3 31.348-39.51 10.992-79.36 14.8-120.59 19.152-57.12 6.11-110.02 4.726-157.57-3.012M1103.65 2835.37l-86.97-322.88h-92.31l-57.733 210.33-56.457-210.33h-92.078l-86.954 322.88h86.903l49.532-222.26 59.582 222.26h83.055l56.534-222.26 51.996 222.26h84.9M1390.5 2772.92h-148.53v-60.07h137.69v-62.45h-137.69v-137.91h-82.81v322.88h231.34v-62.45M1628.37 2731.61c0 9.08-2.46 16.9-7.36 23.46-4.92 6.57-10.62 11.14-17.13 13.74-8.67 3.46-17.13 5.37-25.37 5.73-8.24.36-19.24.55-32.97.55h-14.29v-96.5h23.84c14.16 0 25.84.87 35.02 2.6 9.18 1.73 16.88 5.2 23.09 10.38 5.35 4.61 9.22 10.14 11.6 16.56 2.38 6.41 3.57 14.24 3.57 23.48zm86.1 1.85c0-14.46-2.54-28.59-7.6-42.4-5.06-13.81-12.29-25.41-21.68-34.79-12.87-12.73-27.21-22.34-43.05-28.85-15.82-6.51-35.52-9.76-59.08-9.76h-51.81v-105.17h-83.29v322.88h137.05c20.53 0 37.84-1.77 51.94-5.31 14.08-3.55 26.56-8.86 37.4-15.95 13.01-8.52 22.95-19.43 29.82-32.73 6.86-13.31 10.3-29.28 10.3-47.92M555.395 259.46L496.988 70.99h-64.133L394.45 198.03 356.515 70.99h-64.778L233.84 259.46h63.38l32.35-129.9 40.203 129.9h53.543l38.23-129.9 31.82 129.9h62.03" fill="#000000"></path><path d="M696.47 287.828h-4.52c-2.677.78-6.165 1.684-10.45 2.684-4.297 1.008-8.906 1.508-13.81 1.508-11.835 0-19.842-2.122-24.022-6.38-4.18-4.25-6.27-12.468-6.27-24.67v-1.51h46.485v-40.948H639.41V70.988h-60.586v147.524H552.98v40.95h25.844v5.198c0 23.05 6.125 40.328 18.38 51.86 12.25 11.52 30.8 17.29 55.632 17.29 8.957 0 17.062-.31 24.336-.93 7.277-.61 13.703-1.42 19.297-2.43v-42.622M836.703 166.57c0 18.32-3.125 31.61-9.375 39.88-6.258 8.26-16.133 12.39-29.637 12.39-5.694 0-11.56-.86-17.577-2.602a72.438 72.438 0 0 1-17.246-7.45v-94.667c4.012-1.57 8.31-2.57 12.89-3.018 4.57-.454 9.102-.672 13.555-.672 15.965 0 27.852 4.66 35.672 13.992 7.813 9.316 11.72 23.38 11.72 42.148zm62.266 1.258c0-15.558-2.372-29.707-7.118-42.457-4.758-12.76-10.99-23.28-18.692-31.56-8.047-8.72-17.16-15.33-27.324-19.798-10.176-4.473-21.066-6.71-32.695-6.71-10.722 0-19.824 1.147-27.316 3.436-7.488 2.293-15.144 5.5-22.957 9.64V1.853H702.28v257.61h60.587v-19.63c9.266 7.38 18.738 13.367 28.4 17.95 9.667 4.59 20.82 6.878 33.444 6.878 23.47 0 41.712-8.61 54.74-25.84 13.007-17.23 19.52-40.898 19.52-70.992M927.602 70.988h62.766v65.96h-62.766zM1150.74 119.32c3.92 4.81 6.85 10.61 8.83 17.37 1.95 6.77 2.93 16.15 2.93 28.12 0 11.07-1.02 20.362-3.03 27.862-2.01 7.488-4.81 13.476-8.38 17.95-3.59 4.59-7.89 7.827-12.93 9.737-5.04 1.902-10.47 2.85-16.28 2.85-5.82 0-10.99-.78-15.52-2.35-4.53-1.57-8.87-4.7-13.01-9.4-3.69-4.37-6.64-10.35-8.81-17.96-2.18-7.61-3.28-17.172-3.28-28.69 0-10.298.95-19.22 2.86-26.77 1.9-7.56 4.7-13.618 8.39-18.208 3.58-4.37 7.86-7.55 12.84-9.57 4.98-2.012 10.66-3.024 17.03-3.024 5.49 0 10.72.934 15.7 2.774 4.96 1.847 9.2 4.95 12.66 9.308zm74.35 45.82c0-31-9.04-55.41-27.11-73.25-18.06-17.85-43.43-26.77-76.1-26.77-32.67 0-58.04 8.92-76.1 26.77-18.08 17.84-27.11 42.25-27.11 73.25 0 31.22 9.08 55.72 27.26 73.508 18.19 17.793 43.5 26.692 75.95 26.692 32.9 0 58.31-8.96 76.28-26.86 17.95-17.902 26.93-42.35 26.93-73.34M1387.83 201.898h-5.37c-2.56.89-6.7 1.563-12.39 2.012-5.7.45-10.45.668-14.24.668-8.59 0-16.19-.558-22.77-1.68-6.58-1.117-13.67-3.02-21.27-5.7V70.99h-60.58V259.46h60.58v-27.69c13.28 11.41 24.85 18.992 34.67 22.742s18.87 5.617 27.13 5.617c2.11 0 4.51-.06 7.19-.17 2.69-.108 5.04-.28 7.05-.5V201.9M1527.55 130.398v85.422c-3.45 1.46-7.71 2.598-12.73 3.442-5.02.84-9.53 1.258-13.56 1.258-15.85 0-27.75-4.56-35.66-13.668-7.93-9.122-11.89-21.852-11.89-38.184 0-18.13 3.37-30.777 10.13-37.93 6.74-7.156 16.76-10.75 30.06-10.75 6.02 0 11.93.953 17.74 2.864 5.82 1.898 11.11 4.418 15.91 7.546zm60.59-37.757c0-17.68-2.52-32.562-7.56-44.64-5.04-12.09-12.09-21.54-21.15-28.37-9.06-6.93-20-11.94-32.79-15.02-12.82-3.07-27.29-4.61-43.4-4.61-13.09 0-25.98.79-38.67 2.352-12.72 1.57-23.7 3.457-32.99 5.7v47.167h7.38c7.36-2.91 16.37-5.572 26.97-7.982 10.63-2.398 20.12-3.597 28.5-3.597 11.17 0 20.25 1.028 27.23 3.098 6.99 2.07 12.32 5.012 16.01 8.813 3.46 3.58 5.98 8.16 7.54 13.76 1.56 5.6 2.34 12.31 2.34 20.14v3.52c-7.26-5.93-15.31-10.618-24.14-14.09-8.83-3.482-18.65-5.2-29.51-5.2-26.37 0-46.7 7.94-60.99 23.82-14.32 15.89-21.47 40.06-21.47 72.5 0 15.56 2.19 28.988 6.54 40.29 4.36 11.3 10.51 21.14 18.44 29.542 7.36 7.816 16.45 13.918 27.23 18.29 10.78 4.358 21.83 6.538 33.1 6.538 10.18 0 19.44-1.2 27.76-3.6 8.32-2.412 15.9-5.74 22.71-9.99l2.19 8.39h58.73V92.64M1804.74 332.13l-133.1-315.51h-51.51l132.54 315.51h52.07M1908.39 70.988h-60.58V259.46h60.58zm1.67 215.32h-63.93v45.82h63.93v-45.82M2068.6 72.648c-6.5-1.668-13.37-2.98-20.65-3.937-7.27-.93-16.17-1.41-26.69-1.41-23.49 0-40.97 4.75-52.44 14.27-11.47 9.5-17.2 25.782-17.2 48.828v88.114h-24.84v40.95h24.84v53.866h60.58V259.46h56.4v-40.948h-56.4v-66.89c0-6.622.06-12.392.18-17.32.11-4.93.99-9.353 2.67-13.282 1.57-3.93 4.32-7.032 8.28-9.33 3.96-2.292 9.74-3.44 17.32-3.44 3.12 0 7.23.672 12.29 2.012 5.08 1.347 8.63 2.578 10.64 3.687h5.02V72.647M2831.46 2053.56c0 12.48-3.38 23.23-10.13 32.24-6.75 9.02-14.6 15.31-23.53 18.88-11.92 4.75-23.53 7.38-34.85 7.87-11.32.5-26.41.75-45.27.75h-19.66v-132.55h32.76c19.46 0 35.49 1.19 48.11 3.57 12.6 2.38 23.18 7.13 31.72 14.26 7.34 6.34 12.65 13.92 15.93 22.74 3.27 8.8 4.92 19.56 4.92 32.24zm118.25 2.55c0-19.86-3.48-39.27-10.43-58.23-6.96-18.97-16.88-34.9-29.79-47.8-17.67-17.48-37.38-30.69-59.12-39.62-21.75-8.94-48.8-13.41-81.17-13.41h-71.18V1752.6h-114.38v443.49h188.24c28.2 0 51.98-2.43 71.34-7.29 19.36-4.87 36.49-12.16 51.38-21.89 17.87-11.71 31.52-26.71 40.96-44.98 9.42-18.27 14.15-40.21 14.15-65.82M3250.74 1984.92h-9.51c-4.56 1.59-11.88 2.78-21.99 3.58-10.11.79-18.53 1.19-25.27 1.19-15.25 0-28.72-1-40.42-2.98-11.68-1.98-24.26-5.36-37.73-10.13V1752.6h-107.53v334.49h107.53v-49.15c23.57 20.25 44.08 33.7 61.51 40.36 17.44 6.65 33.49 9.98 48.15 9.98 3.76 0 8.03-.11 12.78-.3 4.76-.2 8.92-.5 12.48-.89v-102.17M3505.02 1838.38c6.94 8.53 12.16 18.81 15.63 30.83 3.47 12.01 5.21 28.64 5.21 49.89 0 19.65-1.78 36.13-5.35 49.44-3.58 13.3-8.55 23.93-14.9 31.87-6.35 8.14-14 13.89-22.93 17.27-8.94 3.38-18.57 5.07-28.89 5.07-10.33 0-19.51-1.39-27.56-4.18-8.04-2.77-15.73-8.34-23.09-16.68-6.54-7.73-11.75-18.35-15.63-31.86-3.87-13.51-5.81-30.48-5.81-50.93 0-18.27 1.69-34.11 5.07-47.51 3.38-13.41 8.34-24.18 14.89-32.31 6.36-7.76 13.95-13.41 22.78-16.99 8.84-3.57 18.92-5.36 30.24-5.36 9.72 0 19.01 1.64 27.85 4.91 8.83 3.29 16.33 8.79 22.49 16.54zm131.94 81.31c0-55-16.03-98.34-48.1-130.01-32.07-31.67-77.09-47.51-135.07-47.51-57.99 0-103.02 15.84-135.08 47.51-32.07 31.67-48.1 75.01-48.1 130.01 0 55.41 16.13 98.88 48.39 130.47 32.27 31.56 77.2 47.35 134.79 47.35 58.38 0 103.5-15.89 135.37-47.66 31.87-31.76 47.8-75.15 47.8-130.16M3915.07 1858.04v151.61c-6.14 2.58-13.67 4.61-22.58 6.1-8.92 1.48-16.94 2.24-24.07 2.24-28.14 0-49.24-8.1-63.3-24.28-14.07-16.19-21.11-38.77-21.11-67.76 0-32.17 6-54.61 17.98-67.32 11.99-12.7 29.78-19.06 53.35-19.06 10.7 0 21.19 1.69 31.5 5.06 10.3 3.38 19.71 7.85 28.23 13.41zm107.53-67.03c0-31.36-4.47-57.77-13.41-79.21-8.93-21.45-21.45-38.24-37.52-50.35-16.09-12.31-35.5-21.19-58.23-26.66-22.75-5.46-48.41-8.19-77-8.19-23.23 0-46.12 1.4-68.66 4.18-22.54 2.77-42.04 6.15-58.52 10.12v83.7h13.08c13.09-5.17 29.05-9.87 47.88-14.15 18.84-4.27 35.7-6.41 50.57-6.41 19.83 0 35.94 1.85 48.33 5.52 12.39 3.67 21.86 8.89 28.4 15.63 6.15 6.36 10.61 14.5 13.39 24.43 2.77 9.93 4.16 21.84 4.16 35.74v6.26c-12.89-10.53-27.17-18.87-42.83-25.02-15.67-6.16-33.12-9.24-52.37-9.24-46.79 0-82.9 14.1-108.28 42.3-25.38 28.19-38.07 71.08-38.07 128.67 0 27.6 3.86 51.42 11.6 71.48 7.73 20.06 18.64 37.53 32.72 52.42 13.09 13.9 29.2 24.72 48.34 32.48 19.13 7.73 38.72 11.61 58.75 11.61 18.06 0 34.46-2.14 49.24-6.41 14.78-4.27 28.2-10.18 40.31-17.72l3.88 14.9h104.24v-296.08M4349.84 1984.92h-9.51c-4.56 1.59-11.88 2.78-21.99 3.58-10.11.79-18.53 1.19-25.26 1.19-15.26 0-28.72-1-40.42-2.98-11.69-1.98-24.27-5.36-37.74-10.13V1752.6h-107.53v334.49h107.53v-49.15c23.58 20.25 44.08 33.7 61.52 40.36 17.43 6.65 33.48 9.98 48.14 9.98 3.76 0 8.03-.11 12.78-.3 4.76-.2 8.92-.5 12.48-.89v-102.17M4596.68 1840.09v69.48c-14.49-1.19-30.19-2.83-47.06-4.9-16.88-2.08-29.69-4.51-38.42-7.28-10.72-3.37-18.91-8.27-24.58-14.69-5.65-6.44-8.49-14.9-8.49-25.39 0-6.93.6-12.58 1.79-16.93 1.19-4.36 4.17-8.51 8.94-12.46 4.57-3.97 10.03-6.89 16.38-8.76 6.35-1.89 16.28-2.82 29.79-2.82 10.72 0 21.59 2.17 32.61 6.53s20.7 10.09 29.04 17.22zm0-52.04c-5.76-4.38-12.91-9.64-21.45-15.8-8.53-6.15-16.58-11.02-24.13-14.59a151.43 151.43 0 0 0-32.75-10.57c-11.33-2.29-23.73-3.43-37.24-3.43-31.76 0-58.38 9.83-79.82 29.48-21.45 19.67-32.17 44.79-32.17 75.36 0 24.43 5.46 44.39 16.38 59.88 10.93 15.49 26.41 27.69 46.46 36.63 19.87 8.94 44.49 15.29 73.87 19.06 29.39 3.77 59.87 6.55 91.45 8.34v1.79c0 18.46-7.55 31.22-22.64 38.27-15.09 7.05-37.34 10.58-66.72 10.58-17.68 0-36.53-3.13-56.59-9.39-20.06-6.25-34.45-11.06-43.2-14.44h-9.82v80.72c11.32 2.97 29.74 6.49 55.25 10.57 25.51 4.07 51.08 6.11 76.7 6.11 60.96 0 104.99-9.39 132.09-28.16 27.11-18.75 40.67-48.2 40.67-88.3V1752.6h-106.34v35.45M5111.88 1989.69V1752.6h-107.53v167.09c0 16.29-.4 30.13-1.2 41.55-.79 11.42-2.97 20.7-6.55 27.85-3.57 7.15-8.98 12.36-16.23 15.64-7.25 3.28-17.42 4.92-30.53 4.92-10.52 0-20.75-2.14-30.68-6.41-9.93-4.28-18.87-8.79-26.81-13.55V1752.6h-107.53v334.49h107.53v-36.93c18.45 14.49 36.1 25.8 52.95 33.94 16.86 8.15 35.5 12.22 55.93 12.22 22.01 0 41.45-4.91 58.31-14.75 16.86-9.82 30.04-24.27 39.56-43.33 21.41 18.07 42.23 32.27 62.45 42.59 20.23 10.32 40.06 15.49 59.49 15.49 36.09 0 63.5-10.82 82.24-32.47 18.73-21.64 28.11-52.81 28.11-93.52V1752.6h-107.52v167.09c0 16.48-.35 30.39-1.05 41.7-.7 11.32-2.83 20.55-6.4 27.7-3.38 7.15-8.74 12.36-16.09 15.64-7.34 3.28-17.67 4.92-30.97 4.92-8.94 0-17.68-1.54-26.22-4.62-8.53-3.09-18.96-8.19-31.26-15.34M5740.85 1989.69V1752.6h-107.53v167.09c0 16.29-.4 30.13-1.19 41.55-.79 11.42-2.98 20.7-6.55 27.85-3.58 7.15-8.99 12.36-16.23 15.64-7.26 3.28-17.43 4.92-30.53 4.92-10.53 0-20.75-2.14-30.69-6.41-9.93-4.28-18.86-8.79-26.8-13.55V1752.6H5413.8v334.49h107.53v-36.93c18.45 14.49 36.09 25.8 52.95 33.94 16.85 8.15 35.5 12.22 55.93 12.22 22.01 0 41.44-4.91 58.31-14.75 16.85-9.82 30.03-24.27 39.56-43.33 21.4 18.07 42.22 32.27 62.45 42.59 20.22 10.32 40.06 15.49 59.49 15.49 36.08 0 63.5-10.82 82.24-32.47 18.73-21.64 28.1-52.81 28.1-93.52V1752.6h-107.52v167.09c0 16.48-.35 30.39-1.04 41.7-.71 11.32-2.84 20.55-6.41 27.7-3.38 7.15-8.74 12.36-16.08 15.64-7.35 3.28-17.68 4.92-30.98 4.92-8.94 0-17.68-1.54-26.21-4.62-8.54-3.09-18.97-8.19-31.27-15.34M6245.62 1840.09v69.48c-14.5-1.19-30.19-2.83-47.07-4.9-16.87-2.08-29.68-4.51-38.41-7.28-10.73-3.37-18.92-8.27-24.58-14.69-5.66-6.44-8.49-14.9-8.49-25.39 0-6.93.6-12.58 1.79-16.93 1.19-4.36 4.17-8.51 8.93-12.46 4.57-3.97 10.03-6.89 16.39-8.76 6.35-1.89 16.28-2.82 29.78-2.82 10.73 0 21.6 2.17 32.61 6.53 11.03 4.36 20.71 10.09 29.05 17.22zm0-52.04c-5.77-4.38-12.91-9.64-21.45-15.8-8.54-6.15-16.58-11.02-24.13-14.59a151.785 151.785 0 0 0-32.75-10.57c-11.33-2.29-23.74-3.43-37.24-3.43-31.77 0-58.38 9.83-79.83 29.48-21.44 19.67-32.16 44.79-32.16 75.36 0 24.43 5.46 44.39 16.37 59.88 10.93 15.49 26.42 27.69 46.47 36.63 19.86 8.94 44.48 15.29 73.87 19.06 29.39 3.77 59.87 6.55 91.44 8.34v1.79c0 18.46-7.55 31.22-22.64 38.27-15.08 7.05-37.33 10.58-66.71 10.58-17.68 0-36.54-3.13-56.6-9.39-20.05-6.25-34.45-11.06-43.19-14.44h-9.82v80.72c11.31 2.97 29.73 6.49 55.25 10.57 25.51 4.07 51.07 6.11 76.7 6.11 60.96 0 104.99-9.39 132.09-28.16 27.11-18.75 40.66-48.2 40.66-88.3V1752.6h-106.33v35.45M2816.98 1343.57l-54.56 158.88-54.57-158.88zm176.51-170.98h-118.12l-30.9 89.65h-164.11l-30.9-89.65H2534.2l163.82 443.5h131.65l163.82-443.5M3034.79 1172.59h107.53v463.46h-107.53zM3334.36 1172.59h-107.53v334.5h107.53zm2.96 382.15h-113.47v81.31h113.47v-81.31M3745.6 1409.69v-237.1h-107.53v167.09c0 16.29-.4 30.14-1.19 41.56-.8 11.41-2.98 20.71-6.56 27.85-3.57 7.15-8.98 12.36-16.23 15.64-7.25 3.28-17.42 4.92-30.53 4.92-10.52 0-20.75-2.14-30.68-6.41-9.93-4.28-18.87-8.79-26.81-13.55v-237.1h-107.53v334.5h107.53v-36.93c18.45 14.49 36.1 25.81 52.95 33.94 16.86 8.14 35.5 12.22 55.93 12.22 22.01 0 41.45-4.91 58.31-14.75 16.86-9.82 30.04-24.27 39.56-43.33 21.41 18.07 42.23 32.27 62.45 42.59 20.23 10.32 40.06 15.49 59.5 15.49 36.08 0 63.49-10.82 82.23-32.47 18.73-21.64 28.11-52.82 28.11-93.52v-217.74h-107.52v167.09c0 16.49-.35 30.39-1.05 41.7-.7 11.33-2.83 20.57-6.4 27.71-3.38 7.15-8.74 12.36-16.09 15.64-7.34 3.28-17.67 4.92-30.97 4.92-8.94 0-17.68-1.55-26.21-4.62-8.54-3.09-18.97-8.2-31.27-15.34M4270.62 1382.88c-.6 22.44-6.16 39.32-16.68 50.63-10.53 11.32-26.91 16.98-49.15 16.98-20.65 0-37.63-5.35-50.93-16.08-13.3-10.72-20.75-27.9-22.34-51.53zm106.63-62.85h-245.43c1.59-26.21 11.56-46.27 29.93-60.17 18.37-13.89 45.42-20.84 81.16-20.84 22.64 0 44.58 4.06 65.83 12.2 21.25 8.15 38.03 16.88 50.34 26.22H4371v-86.08c-24.23-9.73-47.07-16.78-68.52-21.15-21.44-4.36-45.17-6.54-71.18-6.54-67.12 0-118.55 15.07-154.29 45.27-35.74 30.18-53.61 73.16-53.61 128.96 0 55.2 16.92 98.93 50.78 131.21 33.86 32.27 80.27 48.4 139.25 48.4 54.4 0 95.31-13.75 122.71-41.25 27.4-27.51 41.11-67.07 41.11-118.71v-37.52M4772.41 1172.59h-107.53v165.9c0 13.52-.69 26.97-2.08 40.37-1.38 13.4-3.77 23.28-7.15 29.63-3.97 7.35-9.78 12.71-17.42 16.09-7.64 3.38-18.32 5.07-32.02 5.07-9.73 0-19.61-1.59-29.64-4.77-10.03-3.18-20.9-8.24-32.61-15.19v-237.1h-107.52v334.5h107.52v-36.93c19.04 14.88 37.33 26.3 54.88 34.24 17.55 7.94 37.04 11.92 58.45 11.92 36.09 0 64.3-10.53 84.63-31.58 20.33-21.04 30.49-52.51 30.49-94.41v-217.74M5068.39 1175.54c-11.51-2.97-23.73-5.29-36.64-6.97-12.9-1.68-28.69-2.52-47.36-2.52-41.69 0-72.72 8.44-93.07 25.31-20.36 16.88-30.53 45.76-30.53 86.68v156.37h-44.08v72.68h44.08v95.6h107.52v-95.6h100.08v-72.68h-100.08v-118.73c0-11.74.1-21.98.29-30.73.21-8.75 1.79-16.6 4.76-23.57 2.77-6.95 7.67-12.46 14.7-16.54 7.03-4.08 17.27-6.12 30.74-6.12 5.54 0 12.81 1.2 21.82 3.58s15.3 4.57 18.86 6.54h8.91v-73.3M5318.5 1260.09v69.47c-14.5-1.19-30.19-2.83-47.06-4.9-16.88-2.07-29.69-4.49-38.42-7.26-10.73-3.38-18.92-8.28-24.58-14.71-5.66-6.43-8.49-14.88-8.49-25.37 0-6.94.6-12.58 1.79-16.94 1.19-4.35 4.17-8.51 8.93-12.46 4.57-3.96 10.03-6.89 16.39-8.77 6.35-1.87 16.28-2.81 29.79-2.81 10.72 0 21.59 2.17 32.6 6.53 11.03 4.35 20.71 10.09 29.05 17.22zm0-52.05c-5.77-4.37-12.91-9.63-21.45-15.78-8.53-6.15-16.58-11.04-24.13-14.61-10.52-4.77-21.45-8.28-32.75-10.57-11.33-2.28-23.73-3.41-37.24-3.41-31.77 0-58.38 9.82-79.82 29.47-21.45 19.67-32.17 44.78-32.17 75.37 0 24.41 5.46 44.37 16.37 59.86 10.93 15.49 26.42 27.7 46.47 36.64 19.86 8.93 44.48 15.3 73.87 19.07 29.39 3.77 59.87 6.54 91.44 8.34v1.77c0 18.47-7.55 31.23-22.63 38.28-15.09 7.05-37.34 10.58-66.72 10.58-17.68 0-36.54-3.13-56.6-9.39-20.05-6.25-34.45-11.06-43.19-14.44h-9.82v80.72c11.32 2.97 29.73 6.49 55.25 10.57 25.51 4.07 51.08 6.11 76.7 6.11 60.96 0 104.99-9.38 132.09-28.15 27.11-18.76 40.66-48.21 40.66-88.32v-227.56H5318.5v35.45M5749.39 1404.92h-9.51c-4.56 1.59-11.88 2.78-21.99 3.57-10.11.8-18.52 1.2-25.26 1.2-15.26 0-28.72-1-40.42-2.98-11.69-1.98-24.27-5.37-37.74-10.13v-223.99h-107.53v334.5h107.53v-49.15c23.58 20.25 44.08 33.7 61.52 40.36 17.43 6.65 33.48 9.98 48.14 9.98 3.76 0 8.03-.11 12.78-.3 4.76-.2 8.92-.5 12.48-.89v-102.17M6016.48 1382.88c-.59 22.44-6.15 39.32-16.68 50.63-10.52 11.32-26.9 16.98-49.15 16.98-20.64 0-37.62-5.35-50.92-16.08-13.3-10.72-20.76-27.9-22.34-51.53zm106.64-62.85h-245.43c1.59-26.21 11.56-46.27 29.93-60.17 18.37-13.89 45.42-20.84 81.16-20.84 22.64 0 44.58 4.06 65.83 12.2 21.25 8.15 38.03 16.88 50.34 26.22h11.92v-86.08c-24.23-9.73-47.08-16.78-68.52-21.15-21.45-4.36-45.17-6.54-71.18-6.54-67.12 0-118.55 15.07-154.29 45.27-35.74 30.18-53.61 73.16-53.61 128.96 0 55.2 16.92 98.93 50.78 131.21 33.86 32.27 80.27 48.4 139.25 48.4 54.4 0 95.31-13.75 122.71-41.25 27.4-27.51 41.11-67.07 41.11-118.71v-37.52M3048.59 592.59H2934.8v296.95l-82.2-192.688h-78.93l-82.21 192.687V592.59h-107.82v443.5h132.84l99.78-222.48 99.48 222.48h132.85v-443.5M3349.34 678.37c6.94 8.54 12.15 18.81 15.63 30.84 3.47 12.01 5.21 28.642 5.21 49.892 0 19.636-1.78 36.128-5.36 49.43-3.57 13.32-8.54 23.937-14.9 31.866-6.35 8.153-13.99 13.91-22.93 17.293-8.93 3.38-18.56 5.06-28.88 5.06-10.34 0-19.52-1.39-27.56-4.18-8.04-2.78-15.74-8.34-23.09-16.68-6.54-7.742-11.76-18.36-15.63-31.86-3.87-13.51-5.81-30.49-5.81-50.928 0-18.274 1.69-34.114 5.06-47.5 3.38-13.422 8.34-24.18 14.9-32.332 6.35-7.75 13.94-13.4 22.78-16.97 8.84-3.58 18.92-5.37 30.23-5.37 9.73 0 19.02 1.64 27.86 4.922 8.82 3.277 16.32 8.79 22.49 16.52zm131.94 81.31c0-55-16.04-98.34-48.11-130-32.07-31.68-77.09-47.52-135.06-47.52-57.99 0-103.02 15.84-135.08 47.52-32.07 31.66-48.11 75-48.11 130 0 55.41 16.13 98.89 48.4 130.468 32.27 31.563 77.2 47.364 134.79 47.364 58.37 0 103.49-15.89 135.37-47.653 31.86-31.782 47.8-75.16 47.8-130.18M3877.63 592.59H3770.1v165.898c0 13.524-.7 26.973-2.08 40.37-1.39 13.404-3.77 23.283-7.15 29.63-3.98 7.34-9.79 12.71-17.42 16.09-7.65 3.383-18.32 5.063-32.02 5.063-9.73 0-19.61-1.58-29.64-4.76-10.03-3.19-20.9-8.25-32.61-15.2V592.59h-107.53v334.488h107.53v-36.93c19.03 14.883 37.32 26.313 54.87 34.262 17.55 7.93 37.04 11.91 58.46 11.91 36.08 0 64.3-10.53 84.63-31.582 20.32-21.04 30.49-52.52 30.49-94.41V592.59M4177.47 684.66v164.38c-7.53 3.18-15.45 5.472-23.77 6.85-8.32 1.39-15.95 2.09-22.88 2.09-28.13 0-49.24-8.808-63.3-26.402-14.06-17.598-21.1-42.02-21.1-73.226 0-32.813 5.65-56.64 16.94-71.442 11.29-14.832 29.42-22.23 54.38-22.23 9.71 0 20.01 1.84 30.91 5.51 10.89 3.69 20.5 8.51 28.82 14.47zM4285 592.59h-107.53v34.85c-18.45-15.08-35.69-26.22-51.76-33.362-16.06-7.148-34.61-10.726-55.63-10.726-40.66 0-73.18 15.707-97.57 47.07-24.39 31.367-36.59 73.68-36.59 126.88 0 28.397 4.11 53.57 12.34 75.507 8.22 21.952 19.48 40.76 33.77 56.44 13.48 14.898 29.84 26.47 49.08 34.71 19.24 8.24 38.47 12.36 57.71 12.36 20.04 0 36.44-2.148 49.24-6.398 12.79-4.28 25.92-9.692 39.41-16.23v142.358H4285V592.59M4477.33 592.59H4369.8v334.488h107.53zm2.97 382.148h-113.47v81.312h113.47v-81.312M4764.37 680.09v69.47c-14.5-1.19-30.19-2.83-47.07-4.9-16.87-2.07-29.68-4.488-38.41-7.262-10.73-3.378-18.92-8.277-24.58-14.707-5.66-6.428-8.49-14.88-8.49-25.37 0-6.94.6-12.582 1.79-16.94 1.19-4.35 4.17-8.51 8.93-12.458 4.57-3.96 10.03-6.89 16.39-8.774 6.35-1.867 16.28-2.808 29.78-2.808 10.73 0 21.6 2.172 32.61 6.53 11.03 4.35 20.71 10.09 29.05 17.22zm0-52.05c-5.77-4.368-12.91-9.63-21.45-15.778-8.54-6.153-16.58-11.043-24.13-14.614-10.52-4.77-21.45-8.277-32.75-10.57-11.33-2.277-23.74-3.406-37.24-3.406-31.77 0-58.38 9.816-79.83 29.47-21.44 19.667-32.16 44.78-32.16 75.37 0 24.41 5.46 44.367 16.37 59.86 10.93 15.487 26.42 27.698 46.47 36.64 19.86 8.93 44.48 15.297 73.87 19.066 29.39 3.774 59.87 6.543 91.44 8.344v1.77c0 18.476-7.55 31.23-22.64 38.277-15.08 7.06-37.33 10.57-66.71 10.57-17.68 0-36.54-3.118-56.6-9.368-20.05-6.25-34.45-11.082-43.19-14.46H4566v80.73c11.31 2.956 29.73 6.5 55.25 10.558 25.51 4.078 51.07 6.12 76.7 6.12 60.96 0 104.99-9.382 132.09-28.15 27.11-18.77 40.66-48.2 40.66-88.322V592.59h-106.33v35.45M4952.82 592.59h107.53v463.46h-107.53zM5367.64 802.88c-.6 22.448-6.16 39.32-16.68 50.632-10.53 11.328-26.91 16.968-49.15 16.968-20.65 0-37.63-5.35-50.93-16.07-13.3-10.72-20.75-27.89-22.34-51.53zm106.63-62.85h-245.43c1.59-26.21 11.56-46.268 29.93-60.17 18.37-13.89 45.42-20.84 81.16-20.84 22.64 0 44.58 4.058 65.83 12.2 21.25 8.15 38.03 16.882 50.34 26.22h11.92v-86.08c-24.23-9.73-47.07-16.782-68.52-21.15-21.44-4.358-45.16-6.538-71.18-6.538-67.12 0-118.54 15.066-154.29 45.27-35.74 30.18-53.61 73.16-53.61 128.956 0 55.204 16.92 98.93 50.78 131.223 33.86 32.26 80.27 48.392 139.25 48.392 54.4 0 95.31-13.75 122.71-41.25 27.41-27.524 41.11-67.07 41.11-118.71v-37.52" fill="#000000"></path></g></svg>