<svg xmlns="http://www.w3.org/2000/svg" viewBox="0 0 310.62668 377.95999" height="377.96" width="310.627"><defs><clipPath id="a"><path d="M0 2834.66V0h2329.67v2834.66z" fill="#000000"></path></clipPath></defs><g clip-path="url(#a)" fill="#fff" transform="matrix(.13333 0 0 -.13333 0 377.96)"><path d="M1340.5 2134.12c12.42 27.11 24.02 48.65 40.72 74.35 7.41 11.32 15.79 19.2 23.14 30.63-3.6 1.01-8.74-1.92-10.94-3.49-7.48-5.38-10.77-14.13-16.71-18.77-14.1-11.09-13.63-21.16-21.04-26.29-6.5-4.67-8.38-7.7-13.02-14.93-3.06-4.83-5.4-8.74-8.62-18.21-1.12-3.43-3.38-.41-8.92-7.92-7.14-9.8-10.43-20.4-13.41-32.26-.96-3.9-7.5-6.01-11.83-14.07-5.73-10.96-9.48-21.04-11.9-36.98-.64-3.65-6.83-6.26-11.11-16.54-3.14-7.2-5.29-8.82-8-22.45-1.55-8.31-5.36-9.48-9.69-21.55-3.27-9.21-3.38-18.07-4.51-30.05-.23-2.34-4.28-6.99-7.84-13.71-6.06-11.3-5.89-18.79-8.37-30.43-.93-4.17-5.66-9.77-10.12-27.8-3.98-15.93-.41-26.54-1.71-34.41-3.57-20.45-7.03-38.25-5.11-58.38.94-9.84 2.37-20.01 1.8-29.46-1.89-29.71-3.54-54.17-3.4-87.83.1-18.32 1.6-43.42 4.38-64.32 3.04-23.04 7.38-41.04 7.38-41.04h75.14s-2.94 43.44.96 89.19c2.37 27.41 8.83 56.5 14.74 76.86 7.54 26.08 12.24 39.52 26.37 73.9.38.73-.09 3.97-3.86.79-7.83-6.56-14.28-12.36-20.55-21.66-9.39-14.25-15.15-25.98-22.82-40.62-8.94-17.03-13.87-31.89-23.16-52.55-.49 14.95 1.9 29.14 4.89 42.88 3.1 14.06 5.62 25.13 9.96 37.24 7.84 21.37 15.45 39.16 28.03 59.04 7.35 11.5 16.58 21.79 26.06 30.32 11.22 10.3 21.7 19.4 33.5 29.52-12.44 6.4-28.99-7-32.25-7.66-17.48-3.41-24.57-19.6-29.98-21.84-7.54-3.17-12.03-7.87-17.29-14.31-4.18-4.85-5.37-12.31-9.61-15-7.1-4.44-12.4-11.17-17.3-20.5-2-3.87-7.53-22.11-13.61-19.76 10.46 61.94 32.29 120.02 67.39 171.66 22.27 32.76 46.5 60.9 82.11 86.14 4.7 3.31 5.64 4.88-.95 4.63-33.34-4.04-35.36-19.25-40.78-20.69-5.28-1.36-11.65-7.56-15.87-11.56-7.34-7.32-7.22-13.46-10.08-15.39-6.05-4.26-10.67-8.67-14.79-16.03-2.15-3.85-5.86-12.29-9.19-14.22-8.46-4.96-16.83-12.2-20.93-20-3.04-5.71-4.22-11.93-8.21-17.5-4.33-6.01-10.29-10.55-15.38-14.91 3.9 26.51 16.39 57.85 24.89 84.87 11.56 36.13 25.51 68.95 41.4 103.07M1417.14 1919.64c28.44 63.87 58.41 111.9 97.32 168.1 5.06 7.35 9.65 14.58 14.03 21.48 1.99 3.15 11.57 16.89 13.57 19.8 12.99 19.67 18.52 25.67 31.91 44.51 3.53 5.09 6.45 9.15 8.04 15.05 2.86 10.98-6.64 18.36-8.78 28.95-2.18 10.78-1.01 22.55 3.94 31.68 3.09 5.72 6.15 7.91 9.38 15.58 6.03 14.72 3.94 46.57 10.85 47.42-1.77-15.13-2.13-32.14.2-46.66 2.78-16.89 13-27.14 17.31-45.09 11.34 2.05 23.79 1.56 33.42.77 9.57-.83 21.59 1.79 31.38 5.15 13.31 4.57 24.29 12.77 37.82 16-11.52-11.08-27.79-15.2-41.4-23.58-4.98-3.17-9.72-7.29-13.01-12.48-5.4-8.48-9.79-16.64-18.36-20.39-15.14-6.59-28.25-3.48-45.51-6.66-25.83-26.58-50.09-62.67-72.36-100.59-56.85-95.99-104.08-195.35-131.57-297.29 9.54 17.71 18.59 34.86 28.83 51.76 11.42 18.72 24.2 37.09 38.13 55.43 32.72 43.1 65.02 80.68 101.21 120.23 29.23 31.94 61.28 58.74 96.93 81.17 47.27 29.54 105.42 50.29 156.65 39.6 5.82-1.37 14.08-2.92 17.75-6.76-64.17 9.02-121.62-13.39-164.38-47.75-33.88-27.05-62.39-54.52-91.43-90.23-14.94-17.25-28.43-36.12-41.86-54.46-13.97-19.26-26.42-39.55-38.8-59.86-41.48-68.58-72.9-141.24-96.05-216.49-.7-2.39-.83-4.79-1.54-7.17 1.21 1.72 2.76 3.57 3.82 5.26 31.15 50.63 68.66 99.47 116 132.23 4.1 2.84 8.5 8.26 9.58 12.56 5.11 20.07-10.23 29.72 10.98 57.47 4.86 6.37 11.53 8.71 16.15 14.63 8.69 13.44 15.73 37.43 22.94 43.87-3.66-15.63-12.63-32.15-14.54-48.26-2.02-17.67 2.54-32.1 3.35-50.87 12.55-1.68 22.12-6.99 32.04-10.01 15.21-4.78 24.47-3.6 39.52-2.27 6.5.53 18.2 4.32 25.15 2.9-14.62-7.97-34.33-6.5-49.36-14.15-10.37-5.36-13.5-13.26-27.84-16.06-12.82-2.49-23.73-1.14-32.01 3.11-6.54 3.28-11.58 4.66-17.42 1.86-15.56-7.46-26.2-18.03-38.72-30.66-29.01-29.22-52.83-61.89-74.9-104.73-5.85-11.37-11.19-22.62-16.18-34.24-2.41-5.68-8.62-21.34-8.62-21.34h-75.88s-.29 21.9.46 29.88c1.51 15.97 3.64 27.77 6.72 43.93 4.47 23.29 8.74 44.38 14.74 66.94 5.89 21.96 12.28 42.61 19.72 63.68 15.71 43.96 32.5 86.05 50.68 127.05M682.527 1327.81c27.75 22.66 48.285 35.86 75.93 52.37 11.246 6.62 28.266 14.26 41.355 20.18 47.97 21.66 111.45 37.71 171.282 38.8 1.07 0 1.01-.04 1.01-.04h445.886s-1.71.04 1.6.04c14.13 0 28.25-4.93 36.83-13.08 8.7-8.32 12.96-21.04 15.19-33.69 1.93-10.78.98-20.39-1.59-31.94-1.95-9.07-3.36-14.44-8.41-22.19-3.06-4.72-5.96-7.95-11.68-12.5-5.86-4.71-14.22-6.37-23.77-6.45-1-.04-3.1-.09-3.04-.07.09.07-521.48.07-521.48.07s-3.26.01-4.87.01c-34.153.1-70.125-1.55-103.856-6.01-25.848-3.46-51.742-7.59-76.715-14.02-31.532-8.3-61.86-19.61-92.138-30.94 16.79 22.32 36.157 41.21 58.465 59.46" fill="#000000"></path><path d="M837.363 1505.24c27.387 19.78 60.645 36.03 90.15 47.29 14.91 5.67 34.788 11.94 50.55 15.88 19.062 4.76 40.977 8.39 58.857 8.91 5.38.16.78.06.78.06l382.4.03s8.27-.45 11.13-.99c7.14-1.55 12.94-4.48 15.31-6.01 5.93-3.8 13.42-11.81 17.31-18.13 9.92-16.37 11.7-34.02 8.53-52.4-3.71-20.94-19.61-44.88-41.34-45.4-3.65-.09-11.21 0-11.21 0h-414.21s-24.14-.53-35.124-.89c-20.39-.81-42.957-3.1-60.777-5.74-15.208-2.17-30.048-5.05-45.325-9.22-51.036-13.79-95.418-39.63-141.833-59.81 31.262 54.64 73.508 96.51 114.8 126.42M623.418 1245.23c66.48 39.37 146.57 54.87 219.875 57.28 1.766.07 5.23.16 5.23.16l571.677-.04s1.04 0 6.29.04c34.58.03 47.25-34.32 47.11-62.08-.06-9.22-1.66-18.5-4.12-24.84-3.38-8.15-6.94-14.85-12.88-21.35-2.21-2.3-9.79-7.74-13.24-8.48-7.91-1.93-17.65-1.73-17.59-1.73.06 0-425.27-.08-425.27 0 0 0-22.945.91-38.895 2.39-11.437 1.23-20.152 2.4-32.04 4.64-29.292 5.81-53.585 15.38-78.952 23.2-16.937 5.19-34.707 9.08-53.265 11.91-34.14 5.18-71.403 7.62-105.9 4.98-43.854-3.23-82.862-11.84-124.546-25.12 7.082 11.08 36.4 27.15 56.516 39.04" fill="#000000"></path><path d="M931.34 1066.02c-19.547 6.88-38.61 15.75-55.72 27.11-22.24 14.73-33.202 26.46-62.007 39.69-24.62 11.43-44.277 22.61-78.68 35.09-16.58 5.99-43.445 14.32-66.472 18.27-32.878 5.61-64.612 8.01-64.612 8.01s6.68 4.15 10.77 5.47c33.6 10.17 63.214 15.15 97.73 17.75 30.246 2.23 58.043-.72 88.355-5.48 12.41-1.96 28.582-5.79 42.65-9.79 45.667-12.95 97.538-33.55 143.542-33.62 2.554 0 2.293.04 2.293.04h426.362c12.86.03 36.85-4.1 46.52-21.24 11.26-19.67 14.67-43.1 5.34-66.58-2.85-7.03-7.6-17.21-14.41-23.3-5.95-5.33-15.65-8.86-21.3-8.86-1.66-.07-4.31 0-4.31 0h-371.75-2.02c-38.01 0-85.862 4.64-122.28 17.44M1100.67 934.19c-10.51 10.79-24.97 27.33-38.14 43.01-25.24 30.11-36.53 57.11-36.53 57.11h247.97s.59-28.57-5.17-61.7c-5.3-30.68-16.7-63.08-28.73-86.56-.51-24.12 9.72-46.52 11.43-70.26-20.38-12.528-42.35-24.938-60.53-42.5-1.26-1.06-3.15-1.06-3.82 1.84-9.78 36.722-15.02 69.35-23.01 105.58-22.59 17.49-43.8 33.06-63.47 53.48M1356.2 954.54c-7.01 12.92-12.31 29.952-20.33 40.18-1.73-9.03.37-14.638-.84-23.34-1.12-7.2-7.07-4.2-8.24-.85-3.52 9.84-7.25 22.052-10.39 32.09-5.24 16.79-6.97 31.64-6.97 31.64l41.21.05s1.64-.34 2.28-4.34c2.07-10.44 1.55-20.54 4.41-32.54 3.67-15.52 8.3-29.74 14.01-44.22 4.94-12.722 11.39-25.55 16.56-38.19.73-1.59 1.03-4.86-.19-6.438-1.59-1.934-4.13-1.71-5.69 0-11.8 13.34-16.59 28.59-25.82 45.957M1419.99 924.97c-6.99 15.03-16.85 31.8-15.98 48.71 4.5-5.97 6.38-10.21 12.72-13.62 2.88-.81 8.89-.04 7.32 5.05-2.79 9.288-7.05 17.19-11.03 29.992-5.92 19.028-11.67 39.188-11.67 39.188l-42.09.02s2.3-17.02 11.89-43.25c8.44-23.228 21.4-49.77 35.67-74.61 11.5-20.49 22.04-38.438 35.24-53.36 4.44-5.11 15.55-.668 10.77 6.05-12.5 17.622-24.15 37.16-32.84 55.83M1693.35 2347.88c-9.09-3.97-17.25-9.15-21.72-17.93-3.4-6.31-5.59-15.89.8-21.3 11.07-9.52 24.37.2 29.7 9.9 6.79 12.33 5.01 35.98 5.01 35.98s-7.89-4.14-13.79-6.65" fill="#000000"></path><path d="M1703.03 2288.92c3.99 7.57 12.74 15.67 22.35 21.51 10.83 6.65 22 13.07 29.81 17.75 7.81 4.67 9.35 7.97 9.35 7.97s-6.48-2.21-9.94-4.3c-19.29-11.46-40.4-24.54-48.85-28.33-10.79-4.67-25.47-5.59-38.74-7.31-2.09 16.68-6.5 23.66-6.33 38.45.1 7.15 1.73 16.32 3.02 22.8 4.12 21.4 4.95 32.24 4.95 32.24s-3.36-3.09-4.52-12.5c-1.3-8.5-2.26-11.67-4.21-21.7-2.2-11.64-4.59-21.48-11.54-28.75-9.98-10.35-19.32-28.82-11.57-42.96 4.55-8.27 11.99-7.09 14.43-9.19 2.31-2.1 3.79-7.23 10.89-9.6 15.42-5.11 32.88 8.68 40.9 23.92" fill="#000000"></path><path d="M1683.13 2244.87c5.18 8.46 10.49 14.45 18.79 19.48 13.65 8.32 23.75 14 32.14 18.22 3.52 1.82 6.53 4 7.46 7.83-3.62-1.42-17.79-8-31.77-16.33-9.99-5.97-27.27-13.49-38.88-14.02-4.62-.17-7.96.94-11.73 1.04-7.78.34-17.66-1.54-17.66-1.54s-2.56 11.01-5.81 18.91c-1.71 4.04-4.42 8.23-5.82 15.81-.97 5.11-1.22 12.69-.88 17.28 1.11 13.72 4.84 27.05 4.17 40.95-8.53-17.92-5.09-39.98-15.17-53.89-4.33-5.84-7.67-10.41-10.98-17.75-5.6-12.08-4.9-24.56 2.55-36.18 4.39-6.65 13.86-6.37 15.55-7.68 2.57-1.87 4.69-8.79 13.98-10.86 16.08-3.63 34.92 3.84 44.06 18.73M1687.53 1894.29c3.75 7.55 6.11 17.42 10.87 24.39-10.74-1.59-12.52-2.84-27.96-4.52-3.43-.34-10.44-3.85-12.7-6.18-6.23-6.21-11.54-11.93-9.22-22.38.93-4.04 4.55-7 6.53-7.61 12.9-4.22 25.98 3.48 32.48 16.3" fill="#000000"></path><path d="M1700.73 1873.77c14.68 3.42 31.61 10.65 38.43 8.35-13.78-7.32-31.19-9.96-46.49-14.32-11.67-3.37-19.92-12.17-30.38-20.14-9.55-7.27-22.15-10.22-33.54-4.87-3.83 1.77-7.58 7.96-8.27 11.27-.52 2.61-6.05 5.22-8.87 7.54-2.86 2.38-4.17 8.27-4.23 10.56-.42 20.29 14.95 28.51 29.94 40.49 11.17 8.97 25.76 47.12 34.64 55.03-1.52-12.29-17.58-35.48-24.53-53.54-5.57-14.42-3.73-25.89-7.23-41.04 10.56-.71 22.53-2.91 33.25-3.12 8.37-.1 18.61 1.75 27.28 3.79" fill="#000000"></path><path d="M1685.23 1842.43c-8.32-1.53-18.37-4.16-25.25-5.62-24.02-5.06-35.37 6.68-54.56 6.48 1.72 21.85-5.9 31.72.31 45.88 5.61 12.54 10.75 25.92 15.55 36.59 3.9 8.55 5.05 15.79 5.05 15.79s-5.7-8.7-22.2-40.88c-5.77-11.22-16.1-13.63-25.19-24.19-10.54-12.13-16.54-37.79 2.9-48.54 3.87-2.1 3.25-8.79 6.08-11.45 12.95-12.21 39.18-11.01 55.6 3.9 13.01 11.88 28.95 13.81 42.36 17.3 8.02 2.03 14.94 5.39 14.94 5.39s-3.77 1.53-15.59-.65M1205.18 1588.17c-.97 0-1.97 0 0 0zm-111.84 315.52c-8.04-10.53-11.7-22.67-20.51-31.89-4.61-4.84-11.64-2.56-15.28 2.98-4.03 6.29-10.61 15.18-5.74 21.4 8.02 10.26 24.74 16.78 39.01 14.98.85-.14 5.46-3.54 2.52-7.47zm-38.37-60.35c-4.48-11.99-17.8-13.25-29.14-15.62-2.1-.46-8.66 0-11.59 2.88-4.9 4.75-9.1 11.33-8.29 19.54.46 5.03 4.7 9.98 9.94 11.98 9.45 3.71 20.67 9.61 30.01 4.35 8-4.47 12.25-14.72 9.07-23.13zm-24.57-63.25c-3.22-4.67-11.65 10.98-12.73 18.12-3.1 20.79 15.09 26.1 30.25 25.41.48-12.35-9.09-31.52-17.52-43.53zm-16.35-56.04c-2.97-8.35-4.41-15.99-7.74-23.66-3.24-7.4-16.99-10.07-24.58-7.69-10.937 3.38-20.27 27.83-7.906 37.19 9.504 7.11 19.317 8.23 31.396 9.71 2.15.28 10.27-.2 10.56-.99 2.07-5.05.77-7.58-1.73-14.56zm-18.366-64.57c-2.172-6.41-3.15-12.98-6-19.18-1.426-3.12-3.305.98-3.372 1.17-4.292 10.65-6.96 19.69-3.34 29.05 2.05 5.16 9.176 9.94 15.923 10.36-.422-6.68-.89-14.87-3.21-21.4zm-21.63-31.47c-4.917 2.2-4.855 8.52-6.902 12.46-1.94 3.84-6.156 9.14-4.41 14.16 9.477-5.33 13.88-14.81 11.313-26.62zm-16.413 39.29c-11.324 9.31-12.304 24.23-19.82 35.61 8.328 5.34 22.36 4.28 26.668-6.29 3.45-8.46 6.008-20.94-2.613-27.4-.934-.66-3.113-2.83-4.234-1.92zm-42.21 76.88c-1.73 2.43-5.102 9.41-2.492 10.31 20.246 6.97 35.457 7.22 39.792-14.51 3.11-15.5-7.488-28.77-22.28-23.36-4.266 1.56-8.5 18.06-15.02 27.56zm-29.532 48.98c-1.367 1.8-2.558 7.19-.765 8.52 10.508 8.52 26.012 9.15 38.02 8 15.792-1.45 19.054-16.13 16.39-28.33-3.48-16.04-27.81-18.03-34.688-15.39-6.78 2.65-11.46 17.95-18.957 27.2zm3.442 57.03c13.664 8.86 39.816 15.4 44.176-8.59 1.328-7.24-.49-16.79-10.254-19.98-10.06-3.18-21.86-6.64-31.04-2.96-11.265 4.65-13.452 24.68-2.882 31.53zm-14.168 40.33c1.082 4.62 6.156 6.78 10.457 7.93 11.018 2.68 23.432 6.84 33.593.33 3.957-2.49 4.222-6.02 4.738-10.98.903-8.1-.222-14.66-5.538-17.79-10.777-6.32-21.774-6.88-34.25-4.42-10.168 2-11.02 15.48-9 24.93zm-11.32-62.19c-9.45 6.98-13.66 16.93-20.625 26.73-1.657 2.41 0 3.39 1.316 3.73 16.785 4.76 29.273-3.62 26.625-21.97-.477-3.54-2.738-11.83-7.316-8.49zm-46.387 56.61c-6.31 5.44-1.922 14.93 3.61 17.67 9.57 4.78 24.67 5.47 34.695 2.1 6.42-2.14 9.64-11.37 8.503-21.41-.484-4.16-1.707-8.69-3.78-10.04-7.57-5.22-19.345-5.4-28.602-3.46-6.585 1.39-8.882 10.32-14.425 15.14zm-7.27 57.23c6.12 13.25 28.313 13.4 40.418 7.45 9.848-4.8 11.11-23.17.356-30.41-8.61-5.74-22.103-3.59-31.228-1.95-12.96 2.39-13.984 15.11-9.547 24.91zm.493 49.63c9.238 8.78 21.226 4.77 32.355 3.18 2.13-.27 4.676-1.77 6.137-3.23 7.617-7.69 8.207-20.27-.23-26.57-9.755-7.25-21.93-2.52-33.645-1.95-3.2.18-6.672 3.86-7.367 6.25-2.145 7.41-3.39 16.5 2.75 22.32zm5.996 41.5c9.796 4.07 26.61 5.95 33.53-5.08 4.278-6.69 3.067-19.19-3.77-21.02-6.71-1.7-29.49-5.5-34.928 7.1-2.727 6.21-1.55 16.16 5.168 19zm30.117 35.24c2.848-1.28 4.64-3.51 5.286-6.99 1.406-7.58-.578-15.79-7.84-17.07-10.867-1.98-27.027-2.66-26.98 12.77.04 17.16 16.914 16.99 29.535 11.29zm-21.92 31.9c5.8 2.24 15.358 1.75 20.58-.99 2.606-1.32 6.122-5.64 4.638-10.22-1.86-5.92-7.36-8.04-13.633-8.11-6-.04-12.895.43-15.332 5.35-2.32 4.63-1.336 12 3.746 13.97zm6.768 25.76c5.31 1.94 13.14 1.82 17-2.39 5.313-5.81 1.098-15.01-8.878-14.56-3.508.2-7.708 1.38-9.813 2.62-5.2 2.92-3.453 12.46 1.69 14.33zm23.832 16.59c.653 2.26 4.188 4.85 5.965 5.48 3.965 1.42 8.65 1.73 12.46.22 7.572-3.16 6.533-12.56-1.546-15.86-3.67-1.47-9.223-2.43-11.985-1.47-5.086 1.76-6.508 6.19-4.895 11.63zm23.708-36.75c-8.29-2.42-19.872-2.9-22.336 5.58-4.23 14.45 14.023 16.59 23.44 13.57 6.493-2.05 8.813-16.29-1.104-19.15zm5.476 47.6c2.606 8.98 12.754 13.83 21.938 11.08 7.878-2.33 9.71-13.08 4.382-18.32-2.414-2.3-6.398-4.69-10.71-5.65-9.368-2.07-18.594 3.05-15.61 12.89zm41.23-32.78c-1.484-5.83-5.777-9.84-12.632-11.34-6.746-1.5-16.2-1.92-19.934 2.3-3.633 3.97-5.262 9.54-2.27 13.86 6.004 8.57 17.05 11.57 26.872 9.36 5.578-1.32 9.726-7.02 7.965-14.18zm-3.636 34.29c3.637 8.13 12.918 12.19 21.887 9.51 1.75-.57 5.457-3.45 5.96-6.3 1.05-5.67-.906-10.79-5.632-13.74-6.016-3.85-10.99-6.04-17.903-3.19-5.226 2.21-6.515 8.98-4.312 13.72zm38.45-22.74c4.054-6.9-2.17-13.87-5.294-15.72-7.02-4.12-16.867-6.63-21.04.28-4.17 6.81-.74 14.9 6.485 17.88 6.89 2.87 14.046 7.2 19.847-2.44zm11.542-26.37c4.602-3.79 8.594-11.7 3.137-17.98-5.16-5.9-11.543-7.68-19.64-8.96-5.45-.92-12.41 3.1-13.302 7.93-.773 4.11-1.554 11.72 2.532 15.19 8.054 6.84 18.808 10.78 27.273 3.82zm9.684 44.97c4.32-1.29 7.097-5.83 4.902-10.22-1.328-2.73-5.2-5.67-7.664-7.17-6.723-4.15-12.527-2.46-14.684 2.5-3.902 9.16 9.21 17.32 17.446 14.89zm16.51-22.8c4.776-.44 6.926-3.7 7.866-7.37 1.25-4.87-.39-9.36-4.48-12.14-4.892-3.22-11.014-5.13-15.89-5.27-6.565-.09-12.702 9.59-9.088 15.89 3.746 6.75 13.293 9.63 21.593 8.89zm27.296-34.87c2.78-8.28-3.28-12.15-9.67-15.55-6.49-3.47-15.22-6.72-19.758-2.4-5.738 5.43-8.347 14.59-1.874 20.59 8.902 8.36 25.402 14.65 31.302-2.64zm11.76-20.8c10.45-1.34 12.52-16.2 10.42-21.57-2.39-4.59-7.66-8.24-10.42-9.67-7.68-3.95-16.63-5.44-23.72-1.76-6.41 3.28-9.21 13.04-5.67 20.71 4.68 10.32 19.61 13.6 29.39 12.29zm21.5-46.02c3.59-4.99 2.82-13.91.68-16.66-6.58-9.04-24.95-14.16-32.5-10.5-5.77 2.84-11.48 15.52-4.72 23.16 6.98 7.88 19.21 12.55 30.3 10.28 2.48-.53 4.08-3.28 6.24-6.28zm4.64-28.36c5.05-.54 9.53-6.11 11.95-12.13 3.18-7.8-.04-16.91-2.5-18.58-6.04-4.07-25.12-15.57-37.09-8.71-6.62 3.81-8.46 12.47-8.82 17.56-1.35 16.51 23.69 23.29 36.46 21.86zm-70.394-118.11c-2.547 6.54-4.934 16.24.234 20.2 10.38 8.21 33.88 15.4 42.8 2.97 5.82-8.03 4.13-21.67-6.05-26.92-10.52-5.35-31.066-11.49-36.984 3.75zm-50.398-.74c10.41 5.31 25.453 11.7 36.683 4.51 5.165-3.3 10.482-16.97 6.818-23.07-7.71-12.85-27.95-16.14-40.86-12.82-10.937 2.86-14.258 25.51-2.64 31.38zm-9.364 44.53c12.602 8.85 37.4 14.53 43.426-4.78 1.543-5.01 2.442-10.59-.168-14.62-6.957-11.21-24.63-14.15-36.45-12.52-12.78 1.88-18.862 23.44-6.808 31.92zm-10.6 45.06c12.096 6.85 37.874 15.98 43.917-3.7 2.43-8 2.22-17.9-4.714-21.49-9.844-5.13-25.445-10.54-36.78-3.49-9.462 5.99-10.76 23.9-2.423 28.68zm67.69 81.04c-5.1-4.51-10.215-5.48-16.96-7.79-9.42-3.22-19.34 4.05-20.415 13.11-1.837 15.42 14.738 17.74 25.726 19.67 7.97 1.45 12.906-5.75 14.38-10.58 1.5-4.61 1.327-10.85-2.732-14.41zm20.266-36.4c-7.14-10.73-36.152-17.42-42.54-6.43-4.632 8.09-7.542 19.41 1.235 24.81 9.16 5.69 20.12 9.03 30.845 7.14 10.04-1.79 15.21-18.38 10.46-25.52zm15.48-66.34c4.1-6.54 6.98-15.35.89-23.52-5.58-7.44-25.38-10.91-35.534-8.46-5.543 1.41-8.207 8.19-9.078 12.73-1.15 6.19-1.703 12.36 3.75 17.43 7.85 7.15 18.362 7.02 28.402 7.02 4.17 0 10.03-2.66 11.57-5.2zm-5.76 22.28c-6.15-11.33-27.08-12.79-36.52-11.57-6.6.89-11.286 11.59-11.052 20.5.06 4.64 1.492 7.67 4.614 9.38 10.48 5.59 21.113 9.35 32.358 7.51 10.99-1.76 15.26-17.2 10.6-25.82zm-110.056 24.42c-7.137 21.89 20.187 28.78 36.16 25.4 11.117-2.32 14.797-23.62 4.47-30.37-12.775-8.31-35.49-11.02-40.63 4.97zm-41.25-53.73c8.203 8.43 22.97 8.95 34.53 7.41 7.114-.98 10.157-8.1 11.138-15.88 2.723-21.39-25.934-24.97-39.594-19.99-9.027 3.26-13.68 20.58-6.074 28.46zm-5.785 41.43c8.585 10.1 22.882 12.44 34.776 9.21 7.2-1.97 10.555-10.46 10.406-19.92-.117-5.38-3.84-9.28-7.16-10.66-8.41-3.42-18.152-5.95-27.367-4.84-11.32 1.4-18.195 17.3-10.656 26.21zm1.37 45.08c10.55 4.31 30.16 8.16 33.476-6.88 4.454-20.03-19.183-23.31-31.79-19.77-9.674 2.62-11.526 22.68-1.686 26.65zm75.72 33.11c7.862-4.46 9.545-17.08 4.745-24.39-6.36-9.69-28.153-15.26-39.86-6.82-6.644 4.85-10.277 24.75 3.403 29.53 10.972 3.78 21.425 7.51 31.71 1.68zm-11.107 14.36c-8.97-5.51-21.695-7.68-30.12-3.01-7.34 4.02-7.09 14.73-3.415 20.51 5.97 9.64 20.867 10.67 31.148 7.67 8.852-2.55 12.18-19.05 2.387-25.17zm-72.34 15.73c.914 2.81 2.203 3.64 4.004 4.52 7.488 3.56 15.738 4.53 22.942-.06 5.14-3.37 4.678-11.12.838-15.11-5.597-5.91-17.05-6.18-24.37-2.34-4.684 2.47-4.938 8.3-3.415 12.99zm2.403-31.4c3.336 9.52 15.148 9 24.144 7.8 10.988-1.44 13.227-15.57 9.31-21.5-5.408-8.15-17.798-6.6-27.615-5.38-7.968 1.02-8.445 11.62-5.84 19.08zm155.534-285.19c2.68-10.71 0-20.86-9.56-24.26-12.244-4.33-28.81-10.65-38.6-4.09-11.202 7.55-16.593 28.81-3.687 37.16 15.192 9.97 45.437 16.46 51.847-8.81zm-16.515 33.34c-8.246-9.39-21.648-9.07-34.836-12.93-5.126-1.48-11.14 3-13.833 7.68-4.867 8.72-9.75 20.37-.36 28.78 7.684 7.02 18.25 6.44 27.704 9.28 4.27 1.25 9.493 2.73 14.622-.75 10.688-7.29 14.878-22.91 6.703-32.06zm87.315 140.14c2.31-6.8 5.41-11.84 2.81-18.63-3.14-8.32-11.24-9.44-18.8-12.21-7.08-2.54-18.9-5.74-24.81.41-6.81 7.08-9.53 21.41-1.4 27.58 10.58 7.85 36.59 18.69 42.2 2.85zm143.32 61.18c6.18 25.38 13.92 51.15 15.85 77.92 2.86 40.13-5.8 81.77-31.46 112.11 2.46-13.1 5.88-24.12 7.54-37.91 2.19-16.59-.23-35.02-4.46-51.76-3.21-12.6-8.92-24.93-14.59-36.67-6.69-13.88-16.63-29.01-26.53-41.45-27.86-34.54-71.14-102.08-71.14-102.08s-3.68.3-5.81.3c-.54 8.38 19.45 37.2 29.49 53.32 22.13 35.39 38.84 54.42 58.1 85.02 12 19.36 21.14 42.87 24.09 64.2 6.09 43.44-17.33 95.45-51.06 112.8 7.71-32.48 6.89-78.17-10.42-97.43-32.63-36.39-52.07-63.67-75.41-110.39-.67-1.22-6.1 6.3-10.62 9.24-5.07 3.36-2.23 13.34-4.06 20.1-1.64 5.75-4.33 10.15-5.11 11.15-6.9 8.45-13.6 9.03-15.05 11.56-1.65 2.86-.87 9.97-6.89 18.13-3 4.06-10.68 7.08-13.78 10.93-3.38 4.23-4.96 17.06-14.27 22.34-4.416 2.47-6.455 10.2-10.666 13.99-13.094 11.55-26.172 9.35-28.668 10.04-3.37.92-9.973 9.28-21.672 11.28-11.414 1.95-17.71-5.65-23.633-2.92-14.862 6.94-29.174 7.5-44.975-10.13-4.77-5.26-12.988-.36-23.242-8.2-8.977-6.85-9.118-13.19-13.743-14.08-8.566-1.59-15.04-8.47-18.312-16.03-1.75-3.88-3.066-11.7-4.066-16.83-1.372-7.15-5-13.69-5.06-18.95-.073-7.28 2.243-11.21 1.556-14.48-1.047-4.68-4.875-9.01-5.34-13.41-.31-2.5-.555-9.18 1.285-12.95 2.31-4.59-1.594-8.59-3.668-13.54-1.934-4.59-3.96-12.42-3.3-17.94.78-7.61 5.128-10.38 1.75-16.37-5.516-9.73-12.493-24.89-.24-44.22 2.224-3.59-5.163-10.47-5.59-20.54-.468-11.02 6.193-19.17 8.028-24.05.3-1.71-2.925-1.62-3.085-3.51-29.168 30.89-55.02 59.41-88.942 86.24-20.68 16.33-41.152 30.13-64.098 42.42-61.312 32.85-132.46 54.83-196.957 46.8 24.248-19.59 54.912-33.5 79.857-55.74 23.676-21.05 45.062-39.05 66.648-61.37 33.785-35.11 61.23-70.71 89.867-112.04 8.473-12.23 14.04-20.42 22.008-33.17 7.96-12.75 16.813-26.32 24.078-38.92 36.618-63.62 66.59-122.45 97.008-187.62 8.406-18.03 15.457-36.85 23.72-54.75 2.24-4.86 5.378-1.27 7.632 0 10.953 6.33 22.633 11.66 34.066 17.02 9.063 4.19 17.344 7.03 25.492 10.17 20.536 7.83 40.032 12.11 61.543 16.57 35.89 7.5 100.43 5.97 100.43 5.97l122.39.04h3.28c-1.24 35.06-9.62 69.15-11.63 104.32-1.5 28.47-.55 56.06.47 84.58 2.62 77.33 14.04 160.37 31.37 230.89M395.102 2298.13c-23.875-23.81-30.965-32.58-44.91-58.84-8.215-15.49-18.606-35.37-21.57-60.94 49.077 18.66 89.05 56.76 125.27 98.85 26.706 31.19 47.48 72.6 73.862 103.42-46.46-15.58-95.527-45.5-132.652-82.49" fill="#000000"></path><path d="M254.71 2231.23c18.497 31.24 44.978 65 72.42 88.06-12.716-28.57-28.368-56.87-33.755-90.65-10.684-67.28-20.777-114.38-31.895-175.79 30.485 21.73 62.665 55.92 95 79.79 24.985 18.39 50.08 30.65 75.747 48.31 15.324 10.57 25.257 24.06 37.964 36.75-15.14-63.8-71.174-128.24-111.28-158.31-50.375-37.76-68.437-43.76-149.422-126.12-10.273 101.66-8.43 207.32 45.223 297.96" fill="#000000"></path><path d="M89.488 1893.61c3.785 52.79 10.12 94.98 22.934 146.51 9.02 35.93 28.336 89.49 56.23 111.45-3.418-13.06-5.172-32.61-6.507-45.8-5.46-54.38 4.933-117.59 6.2-171.91.608-26.73.4-47.31-3.65-72.39-4.11-26.33-.656-58.61-.656-58.61s14.444 16.49 27.3 37.01c28.156 44.67 37.152 57.92 59.805 82.16 28.152 30.01 59.593 57.85 95.132 82.52-4.3-16.68-22.43-49.18-29.906-62.24-10.03-17.42-14.554-33.31-38.194-72.84-33.364-55.5-48.18-63.04-85.18-122.46-7.976-12.89-40.805-62.06-48.808-77.03-17.293 35.83-23.868 67.16-45.09 125.55-13.336 36.67-11.344 73.35-9.61 98.08" fill="#000000"></path><path d="M38.078 1618.91c-20.082 52.11-29.293 100.42-36.105 155.24-4.125 33.56-2.192 78.24 9.746 110.49 3.12-7.85 9.57-27.85 10.393-30.84 8.957-29.95 12.645-44.36 25.12-73.25 9.494-22.14 21.15-39.8 33.642-61.71 11.313-20 20.84-46.31 29.05-66.45 26.368-64.6 28.32-125.03 38.43-131.6 7.27 15.49 9.5 30.39 10.336 37.7 7.837 71.48 17.228 136.42 107.244 220.61 8.265-25.06 4.05-71.29-.9-95.99-10.753-54.13-19.452-80.17-43.3-132.59-12.61-27.62-29.398-68.28-34.046-81.75-12.036-35.09-16.204-53.38-23.774-74.21-42.473 70.84-94.754 143.92-125.836 224.35" fill="#000000"></path><path d="M108.082 1293.36c-30.246 42.09-41.238 63.16-60.906 107.98-16.532 37.66-21.3 51.57-30.996 93.66-5.29 22.97-8.274 43.79-4.133 57.37 23.648-42.89 39.805-90.86 70.805-126.47 24.574-28.11 48.285-52.18 67.832-75.95 29.964-36.64 53.554-71.22 82.34-109.31 2.42 19.02 3.363 38.39-.934 69.67-5.856 42.87-2.21 78.01 5.254 119.45 9.52 52.68 16.465 78.77 34.707 132.03 22.364-43.82 22.286-94.51 27.868-141.03 10.82-90.17-17.356-197.73-22.94-242.56-1.486-11.81.55-40.98 1.198-52.38-42.238 33.24-79.785 66.86-116.145 103.32-16.585 16.55-39.37 43.95-53.948 64.22" fill="#000000"></path><path d="M268.082 962.54c-19.2 13.812-70.848 53.23-95.277 84.3-35.61 45.31-43.446 64.57-66.926 116.67-2.876 6.28-16.157 35.71-17.228 55.76 76.91-92.89 145.782-106.82 219.164-183.8 26.985-28.26 54.54-54.94 69.102-68.19 11.184-10.33 25.03-13.42 25.03-13.42s-1.452 19.76-8.702 33.53c-48.95 93.62-58.195 191.44-50.785 296.5 22.368-27.62 29.454-46.12 43.634-72.95 15.394-29.17 23.258-47.13 30.476-65.03 41.914-104.31 52.8-224.72 78.684-285.45-79.867 26.97-142.81 41.392-227.172 102.08" fill="#000000"></path><path d="M595.785 716.45c-21.6-1.51-63.988-1.278-86.562 2.32-114.375 18.332-220.727 101.25-274.24 192.28 48.537-29.562 83.552-49.28 126.247-64.03 37.99-13.188 73.97-17.08 137.387-35.04 38.297-10.8 76.145-26.148 89.442-31.12 42.42-15.778 60.303-11.89 60.303-11.89s0 6.37-15.88 23.69c-31.538 34.43-43.112 42.73-69.085 69.21-8.554 8.75-28.1 38.43-38 58.17-28.043 55.96-31.2 100.77-56.804 162.06 93.515-54.92 139.125-130.65 188.57-226.22 15.2-29.278 35.762-63.13 54.582-81.708 12.645-12.492 30.426-31.402 30.426-31.402s-13.067-3.06-53.676-9.028c-18.2-2.71-57.058-14.87-92.71-17.293M1049.27 709.13c49.4-8.04 93.28-20.01 138.2-35.44 12.03-4.12 30.41-13.22 43.13-19.71 31.9-16.25 50.23-26.68 77.6-45.57 44.05-30.35 91.34-62.98 134.07-112.63.93-.98 7.82-8.41 3.18-11.94-8.29-6.578-28.89-15.98-35.76-9.828-39.2 34.687-37.11 45.886-84.53 88.79-12.1 10.917-30.46 26.178-52.44 41.25-21.39 14.628-47.18 30.57-71.23 42.397-21.78 10.722-55.34 14.02-74.25 14.02l.31-.24c-8.59.418-57.87.66-69.28-.12-96.81-6.65-92.055-15.212-147.848-30.39-45.97-12.52-95.172-21.4-144.055-27.88-50.113-6.8-94.945-7.64-141.89-2.84-63.625 6.48-133.27 24.19-185.215 57.762 47.5-.82 96.297-9.91 143.566-6.37 19.848 1.588 52.11 4.577 73.973 11.327 43.43 13.25 68.34 18.53 114.31 31.33 39.515 10.97 79.374 14.79 120.605 19.192 57.097 6.09 110.035 4.637 157.555-3.113M1934.47 2298.13c23.83-23.81 31.06-32.58 44.95-58.84 8.14-15.49 18.6-35.37 21.56-60.94-49.05 18.66-89.04 56.76-125.23 98.85-26.82 31.19-47.52 72.6-73.89 103.42 46.5-15.58 95.51-45.5 132.61-82.49" fill="#000000"></path><path d="M2074.96 2231.23c-18.52 31.24-44.99 65-72.43 88.06 12.83-30.72 31.53-69.04 33.7-90.65 6.82-67.76 20.71-114.38 31.95-175.79-30.48 21.73-62.7 55.92-95.01 79.79-25.01 18.39-50.12 30.65-75.76 48.31-15.35 10.57-25.28 24.06-38.01 36.75 15.21-63.8 71.18-128.24 111.3-158.31 50.42-37.76 68.43-43.76 149.36-126.12 10.35 101.66 8.51 207.32-45.1 297.96" fill="#000000"></path><path d="M2240.11 1893.61c-3.81 52.79-10.03 94.98-22.99 146.51-8.95 35.93-28.34 89.49-56.21 111.45 3.4-13.06 5.19-32.61 6.61-45.8 5.42-54.38-4.9-117.59-6.27-171.91-.53-26.73-.34-47.31 3.63-72.39 4.12-26.33.75-58.61.75-58.61s-14.43 16.49-27.33 37.01c-28.11 44.67-37.1 57.92-59.93 82.16-28 30.01-59.6 57.85-95.08 82.52 4.27-16.68 22.46-49.18 30-62.24 10.02-17.42 14.41-33.31 38.2-72.84 33.29-55.5 48.11-63.04 85.09-122.46 7.98-12.89 40.91-62.06 48.84-77.03 17.37 35.83 23.8 67.16 45.1 125.55 13.41 36.67 11.42 73.35 9.59 98.08" fill="#000000"></path><path d="M2291.59 1618.91c20.02 52.11 29.26 100.42 36.11 155.24 4.14 33.56 2.17 78.24-9.75 110.49-3.23-7.85-9.56-27.85-10.45-30.84-8.92-29.95-12.64-44.36-25.1-73.25-9.46-22.14-21.15-39.8-33.61-61.71-11.37-20-20.95-46.31-29.15-66.45-26.33-64.6-28.29-125.03-38.33-131.6-7.36 15.49-9.58 30.39-10.4 37.7-7.84 71.48-17.29 136.42-107.23 220.61-8.24-25.06-4.07-71.29.85-95.99 10.8-54.13 19.53-80.17 43.28-132.59 12.61-27.62 29.52-68.28 34.07-81.75 12.09-35.09 16.22-53.38 23.9-74.21 42.39 70.84 94.72 143.92 125.81 224.35" fill="#000000"></path><path d="M2221.53 1293.36c30.27 42.09 41.24 63.16 60.9 107.98 16.53 37.66 21.29 51.57 31 93.66 5.24 22.97 8.22 43.79 4.11 57.37-23.59-42.89-39.88-90.86-70.77-126.47-24.53-28.11-48.3-52.18-67.85-75.95-29.88-36.64-53.64-71.22-82.33-109.31-2.47 19.02-3.33 38.39.9 69.67 5.87 42.87 2.22 78.01-5.18 119.45-9.52 52.68-16.47 78.77-34.76 132.03-22.33-43.82-22.27-94.51-27.94-141.03-10.84-90.17 17.47-197.73 23.04-242.56 1.4-11.81-.63-40.98-1.16-52.38 42.17 33.24 79.67 66.86 116.15 103.32 16.59 16.55 39.27 43.95 53.89 64.22" fill="#000000"></path><path d="M2061.54 962.54c19.24 13.812 70.9 53.23 95.31 84.3 35.56 45.31 43.4 64.57 66.89 116.67 2.84 6.28 16.21 35.71 17.27 55.76-76.96-92.89-145.8-106.82-219.29-183.8-26.85-28.26-54.39-54.94-68.97-68.19-11.24-10.33-25.09-13.42-25.09-13.42s1.39 19.76 8.68 33.53c48.97 93.62 58.16 191.44 50.77 296.5-22.31-27.62-29.37-46.12-43.6-72.95-15.43-29.17-23.31-47.13-30.45-65.03-41.94-104.31-52.86-224.72-78.8-285.45 79.99 26.97 142.96 41.392 227.28 102.08" fill="#000000"></path><path d="M1733.75 716.45c21.75-1.51 64.07-1.278 86.67 2.32 114.36 18.332 220.68 101.25 274.2 192.28-48.57-29.562-83.65-49.28-126.19-64.03-38.02-13.188-74.04-17.08-137.4-35.04-38.29-10.8-76.17-26.148-89.55-31.12-42.36-15.778-60.19-11.89-60.19-11.89s0 6.37 15.81 23.69c31.56 34.43 43.16 42.73 69.14 69.21 8.46 8.75 28 38.43 38.02 58.17 27.99 55.96 31.19 100.77 56.84 162.06-93.58-54.92-139.27-130.65-188.63-226.22-15.23-29.278-35.78-63.13-54.54-81.708-12.62-12.492-30.43-31.402-30.43-31.402s13-3.06 53.7-9.028c18.11-2.71 56.95-14.87 92.55-17.293M1280.33 709.13c-49.33-8.04-93.18-20.01-138.14-35.44-12.18-4.12-30.51-13.22-43.23-19.71-31.78-16.25-50.1-26.68-77.49-45.57-44.087-30.35-91.365-62.98-134.134-112.63-.93-.98-7.856-8.41-3.19-11.94 8.377-6.578 29-15.98 35.795-9.828 39.09 34.687 37.11 45.886 84.51 88.79 12.11 10.917 30.47 26.178 52.39 41.25 21.42 14.628 47.23 30.57 71.22 42.397 21.73 10.722 55.46 14.02 74.26 14.02l-.24-.24c8.61.418 57.81.66 69.27-.12 96.81-6.65 92.03-15.212 147.81-30.39 45.93-12.52 95.25-21.4 144.14-27.88 50.02-6.8 94.89-7.64 141.82-2.84 63.64 6.48 133.32 24.19 185.25 57.762-47.52-.82-96.29-9.91-143.56-6.37-19.97 1.588-52.21 4.577-74 11.327-43.38 13.25-68.37 18.53-114.3 31.33-39.59 10.97-79.34 14.79-120.65 19.192-57.08 6.09-109.94 4.637-157.53-3.113M1106.73 2834.66l-86.92-322.86h-92.298l-57.79 210.34-56.41-210.34H721.2l-86.946 322.86h86.906l49.504-222.25 59.578 222.25h83.11l56.476-222.25 52.042 222.25h84.86M1393.6 2772.2h-148.52v-60.06h137.69v-62.46h-137.69V2511.8h-82.85v322.86h231.37v-62.46M1631.52 2730.91c0 9.06-2.52 16.88-7.42 23.48-4.92 6.54-10.64 11.09-17.07 13.73-8.69 3.46-17.18 5.37-25.36 5.68-8.32.38-19.28.61-33 .61h-14.36v-96.52h23.92c14.11 0 25.79.88 35.04 2.57 9.14 1.76 16.85 5.22 23.02 10.43 5.41 4.59 9.28 10.09 11.62 16.5 2.33 6.47 3.61 14.29 3.61 23.52zm86.07 1.82c0-14.42-2.58-28.56-7.61-42.4-5.04-13.79-12.34-25.41-21.67-34.79-12.85-12.72-27.22-22.34-43.03-28.83-15.81-6.49-35.6-9.76-59.14-9.76h-51.83V2511.8h-83.23v322.86h137.01c20.52 0 37.86-1.8 51.91-5.32 14.16-3.53 26.66-8.84 37.48-15.95 12.97-8.51 22.9-19.4 29.76-32.75 6.86-13.28 10.35-29.23 10.35-47.91M410.453 255.59l-57.53-185.66h-63.18L251.91 195.082 214.535 69.93h-63.808L93.69 255.59h62.43l31.872-127.97 39.61 127.97h52.742l37.664-127.97 31.347 127.97h61.098M566.355 283.53h-4.445c-2.64.77-6.074 1.65-10.308 2.65-4.23.98-8.766 1.48-13.598 1.48-11.652 0-19.535-2.09-23.656-6.28-4.12-4.19-6.184-12.29-6.184-24.298v-1.492h45.797v-40.34h-43.815V69.93h-59.68v145.32h-25.46v40.34h25.46v5.13c0 22.69 6.035 39.73 18.105 51.08 12.067 11.348 30.336 17.032 54.805 17.032 8.816 0 16.805-.312 23.97-.91 7.167-.613 13.5-1.41 19.01-2.402v-41.99M721.438 164.082c0 18.047-3.083 31.137-9.243 39.29-6.156 8.14-15.89 12.21-29.19 12.21-5.61 0-11.388-.863-17.32-2.562-5.943-1.7-11.603-4.16-16.994-7.34v-93.27c3.962-1.54 8.197-2.53 12.7-2.97 4.512-.44 8.965-.66 13.368-.66 15.722 0 27.433 4.6 35.13 13.79 7.702 9.18 11.55 23.02 11.55 41.512zm61.335 1.238c0-15.32-2.343-29.26-7.01-41.828-4.69-12.57-10.822-22.933-18.42-31.082-7.925-8.59-16.898-15.1-26.913-19.5-10.02-4.418-20.75-6.61-32.203-6.61-10.567 0-19.54 1.122-26.915 3.38-7.374 2.26-14.917 5.422-22.62 9.51V1.81h-59.684v253.78h59.683v-19.34c9.138 7.27 18.466 13.172 27.99 17.68 9.52 4.52 20.504 6.79 32.945 6.79 23.113 0 41.082-8.5 53.91-25.47 12.813-16.97 19.238-40.28 19.238-69.93M827.898 69.93h61.836v64.968h-61.836zM1064.65 117.55c3.86 4.73 6.75 10.442 8.68 17.11 1.92 6.672 2.89 15.89 2.89 27.692 0 10.91-.99 20.058-2.97 27.437-1.99 7.382-4.74 13.28-8.27 17.69-3.52 4.52-7.77 7.71-12.72 9.59-4.97 1.87-10.32 2.81-16.05 2.81s-10.82-.77-15.29-2.31c-4.46-1.55-8.73-4.63-12.81-9.26-3.64-4.298-6.53-10.2-8.676-17.7-2.15-7.49-3.235-16.91-3.235-28.258 0-10.153.94-18.942 2.816-26.383 1.874-7.44 4.624-13.41 8.274-17.94 3.52-4.292 7.74-7.428 12.64-9.42 4.9-1.98 10.5-2.97 16.78-2.97 5.4 0 10.56.91 15.46 2.73 4.9 1.81 9.06 4.88 12.48 9.18zm73.24 45.122c0-30.524-8.91-54.582-26.7-72.16-17.8-17.582-42.79-26.37-74.98-26.37-32.18 0-57.18 8.788-74.972 26.37-17.8 17.578-26.695 41.636-26.695 72.16 0 30.75 8.953 54.898 26.863 72.41 17.91 17.527 42.844 26.29 74.804 26.29 32.41 0 57.45-8.813 75.15-26.442 17.68-17.64 26.53-41.72 26.53-72.258M1315.12 198.88h-5.28c-2.53.882-6.6 1.55-12.21 1.99-5.61.44-10.28.66-14.02.66-8.47 0-15.95-.56-22.43-1.65-6.5-1.1-13.48-2.982-20.95-5.63V69.93h-59.69v185.66h59.69v-27.28c13.09 11.25 24.46 18.71 34.14 22.4 9.68 3.688 18.58 5.54 26.73 5.54 2.08 0 4.45-.05 7.09-.16 2.64-.12 4.95-.28 6.93-.5v-56.71M1469.69 128.45V212.6c-3.41 1.437-7.59 2.558-12.53 3.39-4.95.828-9.4 1.238-13.36 1.238-15.62 0-27.33-4.488-35.13-13.468-7.82-8.992-11.72-21.52-11.72-37.614 0-17.847 3.33-30.308 9.98-37.36 6.65-7.058 16.52-10.59 29.61-10.59 5.94 0 11.77.943 17.49 2.814 5.71 1.88 10.94 4.36 15.66 7.437zm59.69-37.188c0-17.43-2.48-32.07-7.44-43.98-4.96-11.903-11.91-21.223-20.83-27.942-8.93-6.828-19.71-11.758-32.33-14.8C1456.17 1.51 1441.92 0 1426.05 0c-12.89 0-25.6.77-38.11 2.31-12.51 1.542-23.34 3.42-32.49 5.62v46.46h7.27c7.27-2.87 16.12-5.488 26.58-7.86 10.45-2.358 19.81-3.538 28.06-3.538 11 0 19.95 1.008 26.83 3.047 6.88 2.042 12.13 4.93 15.77 8.67 3.4 3.54 5.88 8.052 7.43 13.57 1.53 5.51 2.3 12.118 2.3 19.83v3.48c-7.15-5.848-15.08-10.48-23.78-13.89-8.69-3.42-18.38-5.118-29.05-5.118-25.99 0-46.02 7.816-60.11 23.47-14.09 15.647-21.13 39.448-21.13 71.417 0 15.32 2.14 28.542 6.44 39.678 4.29 11.133 10.35 20.844 18.16 29.102 7.27 7.71 16.21 13.72 26.84 18.012 10.61 4.297 21.49 6.457 32.6 6.457 10.02 0 19.13-1.19 27.34-3.56 8.19-2.37 15.65-5.648 22.37-9.84l2.15 8.27h57.86V91.262M1759.68 327.172L1628.57 16.36h-50.75l130.57 310.812h51.29M2016.1 69.93h-69.28l-52.04 80.73-16.06-19.78V69.93h-59.69v257.242h59.69V173.738l63.92 81.852h68.66l-66.71-80.02 71.51-105.64M2162.74 117.55c3.86 4.73 6.75 10.442 8.68 17.11 1.92 6.672 2.89 15.89 2.89 27.692 0 10.91-.98 20.058-2.97 27.437-1.99 7.382-4.74 13.28-8.27 17.69-3.52 4.52-7.77 7.71-12.72 9.59-4.96 1.87-10.32 2.81-16.05 2.81s-10.82-.77-15.29-2.31c-4.46-1.55-8.73-4.63-12.81-9.26-3.64-4.298-6.53-10.2-8.68-17.7-2.14-7.49-3.23-16.91-3.23-28.258 0-10.153.94-18.942 2.81-26.383 1.88-7.44 4.63-13.41 8.28-17.94 3.52-4.292 7.74-7.428 12.64-9.42 4.9-1.98 10.5-2.97 16.78-2.97 5.4 0 10.56.91 15.46 2.73 4.9 1.81 9.06 4.88 12.48 9.18zm73.24 45.122c0-30.524-8.9-54.582-26.7-72.16-17.8-17.582-42.79-26.37-74.98-26.37-32.18 0-57.18 8.788-74.97 26.37-17.8 17.578-26.7 41.636-26.7 72.16 0 30.75 8.96 54.898 26.87 72.41 17.91 17.527 42.84 26.29 74.8 26.29 32.41 0 57.45-8.813 75.15-26.442 17.68-17.64 26.53-41.72 26.53-72.258" fill="#000000"></path></g></svg>