<svg xmlns="http://www.w3.org/2000/svg" viewBox="0 0 858.46667 378.94666" height="378.947" width="858.467"><g fill="#fff"><path d="M426.248 161.44l-16.053 59.605h-17.043l-10.66-38.83-10.42 38.83h-17l-16.055-59.606h16.044l9.147 41.03 10.998-41.03h15.334l10.435 41.03 9.6-41.03h15.673M461.46 209.515c.932-1.146 1.633-2.527 2.1-4.143.467-1.615.7-3.848.7-6.705 0-2.642-.24-4.856-.72-6.646-.48-1.785-1.148-3.213-2.003-4.28-.853-1.095-1.88-1.87-3.084-2.324-1.198-.452-2.494-.68-3.88-.68-1.39 0-2.622.188-3.705.56-1.08.375-2.115 1.123-3.1 2.243-.88 1.04-1.583 2.468-2.103 4.283-.52 1.814-.78 4.096-.78 6.844 0 2.456.226 4.584.68 6.385.452 1.8 1.12 3.25 2.003 4.343.853 1.042 1.873 1.802 3.06 2.282 1.19.48 2.544.72 4.065.72 1.307 0 2.555-.218 3.744-.66 1.184-.44 2.192-1.18 3.022-2.222zm17.732-10.928c0 7.393-2.155 13.217-6.464 17.473-4.312 4.26-10.363 6.385-18.155 6.385-7.793 0-13.846-2.126-18.156-6.385-4.308-4.256-6.465-10.08-6.465-17.473 0-7.447 2.168-13.29 6.504-17.534 4.34-4.242 10.376-6.364 18.117-6.364 7.847 0 13.912 2.134 18.195 6.403 4.28 4.27 6.424 10.1 6.424 17.494M522.107 189.82h-1.278c-.614-.212-1.6-.373-2.957-.48-1.36-.105-2.49-.16-3.397-.16-2.05 0-3.86.133-5.43.4-1.573.268-3.263.72-5.074 1.36v30.105H489.52V176.09h14.452v6.605c3.17-2.723 5.925-4.53 8.268-5.424 2.344-.893 4.5-1.34 6.47-1.34.506 0 1.08.013 1.718.04.64.026 1.2.066 1.68.12v13.73M530.273 221.045h14.45v-62.29h-14.45zM587.56 208.67v-22.09a14.094 14.094 0 0 0-3.195-.92 18.53 18.53 0 0 0-3.077-.283c-3.783 0-6.616 1.182-8.508 3.55-1.89 2.362-2.836 5.644-2.836 9.84 0 4.412.76 7.613 2.28 9.604 1.515 1.993 3.95 2.987 7.308 2.987 1.304 0 2.688-.248 4.153-.742 1.464-.494 2.758-1.142 3.875-1.944zm14.45 12.375h-14.45v-4.684c-2.48 2.03-4.8 3.524-6.956 4.484-2.16.96-4.655 1.44-7.48 1.44-5.463 0-9.836-2.105-13.112-6.324-3.28-4.216-4.92-9.9-4.92-17.053 0-3.815.555-7.198 1.66-10.147 1.105-2.95 2.62-5.477 4.537-7.587 1.814-2 4.013-3.556 6.6-4.664 2.583-1.107 5.17-1.66 7.755-1.66 2.69 0 4.9.285 6.616.86a44.54 44.54 0 0 1 5.3 2.18v-19.134h14.45v62.29M689.208 172.968h-27.42v11.088h25.42v11.53h-25.42v25.46h-15.29v-59.607h42.71v11.528M727.24 209.515c.932-1.146 1.633-2.527 2.103-4.143.464-1.615.7-3.848.7-6.705 0-2.642-.242-4.856-.72-6.646-.483-1.785-1.15-3.213-2.003-4.28-.856-1.095-1.88-1.87-3.083-2.324-1.198-.452-2.494-.68-3.884-.68-1.388 0-2.62.188-3.7.56-1.08.375-2.117 1.123-3.104 2.243-.882 1.04-1.58 2.468-2.102 4.283-.52 1.814-.78 4.096-.78 6.844 0 2.456.227 4.584.68 6.385.453 1.8 1.12 3.25 2 4.343.853 1.042 1.876 1.802 3.065 2.282 1.186.48 2.54.72 4.06.72 1.307 0 2.556-.218 3.744-.66 1.188-.44 2.196-1.18 3.022-2.222zm17.736-10.928c0 7.393-2.157 13.217-6.468 17.473-4.308 4.26-10.36 6.385-18.155 6.385-7.792 0-13.842-2.126-18.154-6.385-4.31-4.256-6.465-10.08-6.465-17.473 0-7.447 2.166-13.29 6.505-17.534 4.336-4.242 10.375-6.364 18.113-6.364 7.847 0 13.912 2.134 18.195 6.403 4.285 4.27 6.428 10.1 6.428 17.494M783.524 209.515c.933-1.146 1.635-2.527 2.104-4.143.464-1.615.7-3.848.7-6.705 0-2.642-.243-4.856-.72-6.646-.483-1.785-1.15-3.213-2.003-4.28-.856-1.095-1.882-1.87-3.082-2.324-1.2-.452-2.495-.68-3.884-.68-1.39 0-2.623.188-3.703.56-1.08.375-2.116 1.123-3.104 2.243-.88 1.04-1.578 2.468-2.1 4.283-.52 1.814-.78 4.096-.78 6.844 0 2.456.226 4.584.68 6.385.454 1.8 1.12 3.25 2 4.343.854 1.042 1.876 1.802 3.064 2.282 1.186.48 2.542.72 4.062.72 1.305 0 2.555-.218 3.74-.66 1.19-.44 2.2-1.18 3.024-2.222zm17.737-10.928c0 7.393-2.156 13.217-6.467 17.473-4.308 4.26-10.36 6.385-18.154 6.385-7.793 0-13.844-2.126-18.156-6.385-4.31-4.256-6.464-10.08-6.464-17.473 0-7.447 2.167-13.29 6.505-17.534 4.336-4.242 10.375-6.364 18.114-6.364 7.845 0 13.912 2.134 18.193 6.403 4.284 4.27 6.428 10.1 6.428 17.494M840.85 208.67v-22.09a14.074 14.074 0 0 0-3.194-.92 18.51 18.51 0 0 0-3.075-.283c-3.78 0-6.617 1.182-8.51 3.55-1.887 2.362-2.833 5.644-2.833 9.84 0 4.412.758 7.613 2.278 9.604 1.517 1.993 3.953 2.987 7.308 2.987 1.304 0 2.69-.248 4.153-.742 1.467-.494 2.755-1.142 3.875-1.944zm14.45 12.375h-14.45v-4.684c-2.48 2.03-4.795 3.524-6.957 4.484-2.16.96-4.65 1.44-7.474 1.44-5.47 0-9.837-2.105-13.117-6.324-3.28-4.216-4.916-9.9-4.916-17.053 0-3.815.553-7.198 1.657-10.147 1.107-2.95 2.62-5.477 4.54-7.587 1.81-2 4.01-3.556 6.595-4.664 2.584-1.107 5.17-1.66 7.755-1.66 2.693 0 4.898.285 6.62.86a44.51 44.51 0 0 1 5.296 2.18v-19.134h14.45v62.29M377.288 258.025c0-1.677-.455-3.123-1.36-4.33-.91-1.213-1.963-2.06-3.164-2.54-1.6-.64-3.163-.992-4.684-1.058-1.52-.065-3.55-.1-6.084-.1h-2.643v17.814h4.403c2.616 0 4.77-.157 6.467-.478 1.693-.32 3.114-.96 4.262-1.916a7.4 7.4 0 0 0 2.142-3.056c.44-1.185.66-2.63.66-4.335zm15.893-.342c0 2.67-.467 5.278-1.4 7.826-.935 2.55-2.27 4.69-4.004 6.425-2.376 2.348-5.024 4.122-7.945 5.325-2.922 1.2-6.56 1.8-10.91 1.8h-9.567v19.416H343.98v-59.608h25.3c3.79 0 6.987.328 9.59.98 2.602.655 4.903 1.637 6.905 2.943 2.4 1.577 4.236 3.592 5.504 6.046 1.267 2.456 1.9 5.404 1.9 8.847M434.296 267.252h-1.277c-.612-.215-1.6-.375-2.957-.48-1.36-.108-2.49-.16-3.395-.16-2.05 0-3.86.132-5.432.4-1.572.265-3.263.72-5.073 1.36v30.104h-14.45V253.52h14.45v6.605c3.17-2.723 5.925-4.53 8.268-5.424 2.345-.892 4.502-1.34 6.473-1.34.505 0 1.077.015 1.717.04.64.027 1.197.066 1.676.12v13.732M469.128 286.945c.933-1.145 1.635-2.525 2.104-4.143.464-1.613.7-3.847.7-6.703 0-2.644-.243-4.86-.72-6.648-.483-1.787-1.15-3.215-2.003-4.283-.857-1.095-1.882-1.87-3.083-2.322-1.2-.453-2.496-.682-3.884-.682s-2.622.19-3.702.56c-1.08.375-2.115 1.123-3.1 2.243-.883 1.04-1.583 2.47-2.103 4.283-.52 1.815-.78 4.096-.78 6.846 0 2.453.226 4.582.678 6.384.456 1.8 1.122 3.248 2.002 4.343.854 1.04 1.876 1.8 3.064 2.28 1.187.482 2.54.722 4.063.722 1.306 0 2.556-.22 3.744-.662 1.186-.44 2.196-1.18 3.02-2.223zm17.737-10.928c0 7.394-2.157 13.218-6.468 17.477-4.308 4.255-10.362 6.383-18.154 6.383-7.794 0-13.844-2.128-18.155-6.383-4.31-4.26-6.464-10.083-6.464-17.477 0-7.445 2.167-13.29 6.505-17.533 4.335-4.244 10.374-6.365 18.113-6.365 7.846 0 13.912 2.136 18.194 6.404 4.286 4.27 6.428 10.103 6.428 17.493M524.9 284.305V263.93c-.828-.347-1.843-.622-3.04-.822-1.195-.2-2.276-.3-3.233-.3-3.783 0-6.618 1.087-8.508 3.263-1.893 2.177-2.84 5.21-2.84 9.106 0 4.324.807 7.34 2.42 9.048 1.61 1.71 4 2.56 7.17 2.56 1.437 0 2.85-.224 4.23-.677a16.028 16.028 0 0 0 3.8-1.802zm14.45 9.008c0 4.216-.602 7.765-1.802 10.647-1.2 2.883-2.88 5.14-5.047 6.765-2.16 1.657-4.768 2.85-7.823 3.584-3.056.733-6.506 1.1-10.348 1.1-3.125 0-6.2-.187-9.23-.56-3.028-.374-5.65-.83-7.864-1.362v-11.25h1.757c1.76.697 3.904 1.328 6.438 1.903 2.53.575 4.797.86 6.795.86 2.664 0 4.83-.245 6.498-.74 1.664-.492 2.936-1.194 3.814-2.1.827-.856 1.428-1.95 1.8-3.283.374-1.334.562-2.936.562-4.804v-.84a21.386 21.386 0 0 1-5.76 3.362c-2.105.828-4.452 1.24-7.036 1.24-6.29 0-11.143-1.894-14.556-5.683-3.412-3.79-5.117-9.555-5.117-17.295 0-3.71.52-6.912 1.56-9.608 1.04-2.695 2.505-5.043 4.4-7.046 1.758-1.868 3.925-3.322 6.495-4.364 2.574-1.04 5.204-1.562 7.896-1.562 2.43 0 4.635.287 6.62.863 1.987.575 3.79 1.368 5.42 2.383l.52-2.003h14.01v39.793M583.988 267.252h-1.277c-.61-.215-1.6-.375-2.957-.48-1.358-.108-2.49-.16-3.393-.16-2.05 0-3.86.132-5.43.4-1.575.265-3.266.72-5.077 1.36v30.104h-14.45V253.52h14.45v6.605c3.17-2.723 5.924-4.53 8.268-5.424 2.344-.892 4.5-1.34 6.475-1.34a46.8 46.8 0 0 1 1.717.04c.637.027 1.196.066 1.676.12v13.732M617.817 286.72v-9.34a158.5 158.5 0 0 0-6.322.66c-2.272.277-3.994.603-5.166.976-1.442.452-2.545 1.11-3.305 1.976-.76.864-1.138 2.002-1.138 3.41 0 .93.08 1.69.237 2.274.163.588.564 1.147 1.204 1.677.613.532 1.347.924 2.2 1.178.856.253 2.19.38 4.004.38 1.44 0 2.903-.294 4.383-.878 1.48-.585 2.784-1.357 3.902-2.313zm0 6.993a152.07 152.07 0 0 1-2.88 2.12c-1.148.828-2.23 1.483-3.245 1.962a20.373 20.373 0 0 1-4.403 1.422c-1.52.307-3.19.46-5.003.46-4.27 0-7.846-1.32-10.728-3.962-2.887-2.643-4.325-6.02-4.325-10.128 0-3.283.733-5.967 2.202-8.047 1.466-2.08 3.55-3.723 6.242-4.925 2.668-1.2 5.98-2.054 9.93-2.562a172.99 172.99 0 0 1 12.287-1.12v-.24c0-2.482-1.013-4.197-3.042-5.144-2.028-.95-5.016-1.423-8.966-1.423-2.377 0-4.91.42-7.607 1.26-2.696.842-4.63 1.49-5.806 1.942h-1.318V254.48c1.517-.402 3.993-.875 7.42-1.423 3.43-.547 6.87-.82 10.31-.82 8.194 0 14.113 1.26 17.755 3.783 3.642 2.522 5.464 6.477 5.464 11.87v30.583h-14.293v-4.763M687.72 266.61v31.866h-14.455v-22.46c0-2.187-.054-4.047-.158-5.58-.108-1.537-.402-2.784-.882-3.746a4.405 4.405 0 0 0-2.18-2.1c-.976-.442-2.344-.66-4.105-.66-1.416 0-2.79.286-4.124.858a30.498 30.498 0 0 0-3.603 1.823v31.866h-14.45V253.52h14.45v4.964c2.48-1.947 4.852-3.47 7.12-4.564 2.264-1.093 4.768-1.642 7.515-1.642 2.957 0 5.57.662 7.835 1.983 2.265 1.323 4.04 3.263 5.317 5.827 2.88-2.428 5.676-4.34 8.393-5.726 2.72-1.387 5.384-2.082 7.996-2.082 4.85 0 8.535 1.457 11.054 4.366 2.516 2.908 3.777 7.1 3.777 12.57v29.262h-14.45v-22.46c0-2.212-.047-4.08-.14-5.603-.093-1.52-.38-2.76-.862-3.723-.452-.96-1.173-1.66-2.16-2.1-.99-.442-2.377-.66-4.164-.66a10.29 10.29 0 0 0-3.524.62c-1.147.414-2.547 1.1-4.2 2.06M772.91 266.61v31.866h-14.454v-22.46c0-2.187-.053-4.047-.16-5.58-.105-1.537-.4-2.784-.877-3.746a4.405 4.405 0 0 0-2.184-2.1c-.975-.442-2.343-.66-4.105-.66-1.414 0-2.79.286-4.123.858a30.706 30.706 0 0 0-3.603 1.823v31.866h-14.45V253.52h14.45v4.964c2.48-1.947 4.855-3.47 7.12-4.564 2.264-1.093 4.77-1.642 7.517-1.642 2.957 0 5.57.662 7.835 1.983 2.265 1.323 4.04 3.263 5.317 5.827 2.88-2.428 5.677-4.34 8.395-5.726 2.72-1.387 5.382-2.082 7.996-2.082 4.85 0 8.533 1.457 11.053 4.366 2.517 2.908 3.777 7.1 3.777 12.57v29.262h-14.45v-22.46c0-2.212-.048-4.08-.14-5.603-.095-1.52-.38-2.76-.863-3.723-.452-.96-1.173-1.66-2.16-2.1-.988-.442-2.376-.66-4.163-.66-1.202 0-2.376.205-3.526.62-1.145.414-2.546 1.1-4.2 2.06M844.13 270.215c-.08-3.018-.83-5.286-2.24-6.807-1.417-1.52-3.618-2.283-6.61-2.283-2.772 0-5.056.722-6.84 2.163-1.79 1.44-2.79 3.75-3.003 6.927zm14.33 8.446h-32.984c.212 3.524 1.553 6.218 4.023 8.088 2.467 1.867 6.105 2.803 10.908 2.803 3.043 0 5.99-.55 8.845-1.642 2.858-1.095 5.112-2.268 6.767-3.523h1.6v11.568c-3.255 1.31-6.323 2.258-9.207 2.843-2.882.588-6.073.88-9.568.88-9.018 0-15.932-2.027-20.736-6.082-4.805-4.058-7.207-9.835-7.207-17.335 0-7.42 2.276-13.3 6.825-17.636 4.55-4.336 10.79-6.505 18.716-6.505 7.313 0 12.81 1.848 16.493 5.543 3.684 3.698 5.524 9.013 5.524 15.953v5.045M178.733 93.795c1.668-3.61 3.212-6.483 5.44-9.908.982-1.51 2.09-2.562 3.08-4.088-.472-.14-1.164.252-1.46.465-.99.718-1.437 1.883-2.23 2.506-1.87 1.48-1.818 2.815-2.8 3.505-.875.618-1.126 1.025-1.74 1.988-.41.642-.712 1.164-1.146 2.43-.153.456-.46.052-1.19 1.058-.958 1.307-1.387 2.72-1.784 4.302-.128.52-1.012.796-1.582 1.876-.76 1.456-1.256 2.804-1.585 4.927-.083.492-.915.833-1.488 2.204-.407.963-.7 1.176-1.054 2.992-.22 1.11-.724 1.268-1.293 2.876-.44 1.227-.457 2.408-.61 4.01-.037.31-.56.927-1.045 1.825-.813 1.502-.786 2.505-1.11 4.056-.123.56-.752 1.3-1.356 3.704-.532 2.13-.045 3.544-.225 4.593-.47 2.727-.938 5.095-.686 7.78.125 1.314.325 2.668.237 3.93-.25 3.96-.464 7.224-.443 11.712.015 2.44.205 5.787.576 8.57.405 3.075.992 5.477.992 5.477h10.02s-.393-5.794.125-11.892c.308-3.656 1.178-7.53 1.968-10.252 1.002-3.47 1.624-5.268 3.516-9.847.04-.1-.012-.53-.512-.11-1.045.877-1.92 1.65-2.744 2.89-1.26 1.9-2.028 3.467-3.05 5.42-1.193 2.268-1.85 4.244-3.08 7-.073-1.988.25-3.88.654-5.715.413-1.87.74-3.353 1.33-4.967 1.045-2.846 2.058-5.22 3.733-7.87.97-1.53 2.21-2.903 3.47-4.043a172.19 172.19 0 0 1 4.472-3.933c-1.656-.854-3.86.928-4.303 1.02-2.33.454-3.278 2.614-3.99 2.91-1.02.426-1.61 1.05-2.32 1.91-.544.646-.708 1.645-1.277 1.997-.95.593-1.65 1.487-2.303 2.735-.268.513-1 2.95-1.812 2.636 1.39-8.257 4.304-16 8.984-22.893 2.967-4.37 6.193-8.118 10.95-11.48.626-.444.747-.652-.127-.622-4.446.543-4.718 2.572-5.45 2.764-.693.18-1.553 1-2.102 1.536-.988.977-.97 1.8-1.35 2.057-.812.567-1.422 1.155-1.976 2.136-.292.514-.78 1.642-1.214 1.9-1.143.66-2.248 1.624-2.8 2.664-.406.76-.568 1.586-1.1 2.332-.568.802-1.363 1.403-2.047 1.983.52-3.528 2.183-7.71 3.327-11.316 1.537-4.816 3.405-9.193 5.51-13.742M188.96 122.395c3.793-8.515 7.784-14.92 12.97-22.415.677-.983 1.285-1.944 1.877-2.864.266-.416 1.54-2.248 1.806-2.636 1.74-2.625 2.47-3.428 4.248-5.94.484-.68.875-1.215 1.08-2.003.38-1.468-.88-2.452-1.172-3.86-.293-1.44-.132-3.01.528-4.225.413-.76.825-1.057 1.24-2.077.81-1.964.53-6.212 1.45-6.323-.233 2.016-.286 4.283.03 6.216.37 2.257 1.74 3.625 2.304 6.016 1.524-.275 3.177-.21 4.46-.1 1.272.11 2.88-.243 4.187-.69 1.768-.603 3.236-1.703 5.038-2.13-1.533 1.473-3.697 2.027-5.51 3.145-.667.418-1.295.97-1.74 1.66-.728 1.134-1.304 2.218-2.446 2.715-2.026.884-3.766.466-6.077.895-3.434 3.54-6.668 8.35-9.65 13.412-7.564 12.796-13.872 26.048-17.54 39.637 1.27-2.365 2.48-4.65 3.854-6.9 1.518-2.5 3.224-4.946 5.084-7.397 4.356-5.74 8.664-10.75 13.492-16.025 3.895-4.26 8.165-7.835 12.927-10.824 6.29-3.943 14.053-6.704 20.873-5.28.776.18 1.886.388 2.37.9-8.548-1.2-16.206 1.788-21.92 6.364-4.514 3.61-8.318 7.275-12.184 12.036-2 2.295-3.795 4.816-5.58 7.26-1.868 2.57-3.525 5.273-5.168 7.977-5.54 9.15-9.732 18.835-12.816 28.87-.088.318-.108.638-.195.954.147-.225.363-.47.51-.7 4.15-6.748 9.14-13.26 15.46-17.63.553-.375 1.127-1.1 1.277-1.67.682-2.68-1.36-3.967 1.465-7.67.648-.85 1.535-1.16 2.147-1.95 1.155-1.788 2.097-4.99 3.065-5.85-.486 2.086-1.68 4.286-1.937 6.435-.27 2.357.332 4.285.437 6.783 1.67.228 2.962.935 4.27 1.34 2.038.635 3.262.474 5.277.3.86-.073 2.42-.576 3.347-.386-1.95 1.064-4.58.868-6.572 1.885-1.395.715-1.8 1.77-3.723 2.14-1.712.333-3.152.155-4.264-.416-.864-.436-1.54-.62-2.317-.247-2.075.995-3.49 2.402-5.16 4.086-3.878 3.9-7.042 8.256-9.995 13.967a73.09 73.09 0 0 0-2.15 4.566c-.33.753-1.147 2.845-1.147 2.845h-10.13s-.025-2.922.07-3.988c.194-2.127.483-3.702.895-5.86.588-3.1 1.163-5.915 1.968-8.924a107.686 107.686 0 0 1 2.632-8.487c2.095-5.86 4.322-11.475 6.756-16.94M91.007 201.308c3.697-3.024 6.435-4.776 10.127-6.977 1.5-.895 3.768-1.91 5.512-2.7 6.398-2.89 14.862-5.023 22.836-5.17.144 0 .135.007.135.007h59.454s-.22-.007.21-.007c1.89 0 3.76.66 4.92 1.752 1.16 1.1 1.716 2.797 2.02 4.484.255 1.437.13 2.715-.205 4.252-.263 1.215-.458 1.94-1.135 2.97-.408.63-.796 1.06-1.557 1.665-.782.624-1.888.84-3.156.853a8.475 8.475 0 0 1-.407.01c.013-.01-69.54-.01-69.54-.01h-.65c-4.554-.016-9.347.216-13.845.803-3.446.47-6.9 1.007-10.23 1.873-4.2 1.098-8.245 2.616-12.282 4.122 2.238-2.975 4.82-5.5 7.794-7.927" fill="#000000"></path><path d="M111.65 177.653c3.654-2.638 8.09-4.805 12.017-6.31a65.86 65.86 0 0 1 6.747-2.114c2.54-.642 5.462-1.123 7.843-1.193.72-.02.106-.005.106-.005l50.994-.005s1.092.058 1.47.133c.96.207 1.733.597 2.053.8.792.51 1.787 1.576 2.307 2.42 1.324 2.18 1.557 4.533 1.128 6.983-.49 2.796-2.615 5.98-5.498 6.06-.502.013-1.504 0-1.504 0h-55.23s-3.214.062-4.682.116c-2.716.105-5.728.415-8.1.764-2.03.292-4.01.676-6.042 1.22-6.81 1.84-12.726 5.293-18.914 7.98 4.168-7.285 9.805-12.865 15.307-16.85M83.125 212.31c8.865-5.237 19.544-7.302 29.318-7.63.232-.01.696-.025.696-.025l76.23.006.827-.005c4.62-.004 6.308 4.58 6.287 8.286-.01 1.223-.216 2.468-.555 3.304-.44 1.092-.925 1.984-1.72 2.845-.283.31-1.303 1.03-1.755 1.14-1.056.258-2.356.23-2.348.23.01 0-56.702.01-56.702 0 0 0-3.06-.124-5.183-.328-1.53-.15-2.69-.31-4.28-.613-3.903-.777-7.14-2.048-10.522-3.09-2.256-.7-4.63-1.218-7.104-1.593-4.55-.696-9.522-1.013-14.118-.665-5.846.435-11.046 1.58-16.607 3.344.94-1.465 4.85-3.616 7.535-5.205" fill="#000000"></path><path d="M124.185 236.215c-2.605-.92-5.148-2.104-7.43-3.61-2.97-1.966-4.427-3.53-8.267-5.305-3.286-1.52-5.91-3.017-10.492-4.677-2.21-.802-5.792-1.904-8.864-2.43-4.387-.745-8.618-1.072-8.618-1.072s.896-.557 1.437-.723c4.48-1.362 8.433-2.028 13.032-2.368 4.033-.303 7.738.09 11.78.722 1.66.26 3.816.772 5.69 1.307 6.085 1.73 13.003 4.477 19.14 4.488.342 0 .303-.005.303-.005h56.842c1.716-.006 4.924.55 6.214 2.828 1.494 2.625 1.958 5.75.703 8.88-.38.94-1.01 2.29-1.916 3.105-.796.72-2.09 1.182-2.836 1.182-.215.01-.585 0-.585 0h-49.56-.27c-5.066 0-11.446-.613-16.3-2.322M146.76 253.794c-1.4-1.44-3.333-3.645-5.085-5.74-3.364-4.01-4.87-7.62-4.87-7.62h33.055s.088 3.813-.676 8.23c-.715 4.1-2.23 8.42-3.84 11.553-.06 3.21 1.296 6.196 1.52 9.368-2.716 1.667-5.636 3.316-8.07 5.656-.155.145-.406.145-.51-.243-1.3-4.888-1.99-9.245-3.06-14.078-3.012-2.33-5.837-4.407-8.463-7.126M180.827 251.083c-.935-1.727-1.632-4.007-2.706-5.363-.23 1.21.055 1.953-.11 3.11-.15.97-.945.567-1.106.11-.464-1.31-.956-2.93-1.38-4.276-.705-2.24-.93-4.224-.93-4.224l5.498-.007s.212.052.31.587c.262 1.385.197 2.74.577 4.344.487 2.068 1.115 3.956 1.875 5.884.66 1.697 1.513 3.41 2.206 5.095.095.22.14.647-.027.87-.204.255-.554.223-.756 0-1.574-1.792-2.21-3.82-3.45-6.13M189.34 255.013c-.936-1.993-2.252-4.235-2.137-6.496.608.8.858 1.37 1.696 1.816.38.122 1.184.008.983-.66-.37-1.246-.944-2.3-1.475-4.01-.79-2.527-1.556-5.227-1.556-5.227l-5.613-.003s.31 2.278 1.585 5.772c1.122 3.095 2.854 6.636 4.75 9.956 1.545 2.732 2.948 5.115 4.7 7.11.6.686 2.072.083 1.434-.81-1.663-2.352-3.215-4.956-4.37-7.447M225.787 65.296c-1.22.53-2.295 1.217-2.903 2.388-.443.84-.74 2.123.105 2.844 1.482 1.265 3.25-.03 3.966-1.32.905-1.648.67-4.796.67-4.796s-1.053.548-1.84.884" fill="#000000"></path><path d="M227.075 73.155c.532-1.006 1.698-2.09 2.977-2.868 1.445-.884 2.943-1.743 3.984-2.363 1.04-.627 1.24-1.065 1.24-1.065s-.86.295-1.328.572c-2.57 1.53-5.375 3.273-6.516 3.776-1.44.628-3.396.75-5.16.975-.28-2.226-.86-3.15-.852-5.126.015-.95.244-2.178.405-3.037.552-2.856.66-4.3.66-4.3s-.436.408-.594 1.665c-.18 1.136-.306 1.555-.567 2.9-.296 1.548-.607 2.862-1.534 3.83-1.337 1.38-2.574 3.842-1.542 5.728.6 1.1 1.605.94 1.92 1.225.313.283.505.96 1.456 1.276 2.052.685 4.377-1.155 5.45-3.19" fill="#000000"></path><path d="M224.415 79.03c.696-1.13 1.41-1.923 2.508-2.598 1.822-1.11 3.173-1.86 4.284-2.43.482-.242.884-.53 1.006-1.045-.497.187-2.377 1.07-4.244 2.18-1.338.8-3.637 1.795-5.18 1.867-.613.027-1.066-.124-1.566-.14-1.036-.04-2.356.208-2.356.208s-.335-1.465-.777-2.52c-.22-.54-.58-1.095-.773-2.11a9.907 9.907 0 0 1-.114-2.3c.152-1.83.645-3.61.56-5.462-1.15 2.39-.68 5.335-2.03 7.184-.572.777-1.022 1.39-1.47 2.37-.742 1.61-.654 3.274.35 4.825.578.88 1.854.85 2.074 1.02.334.248.62 1.172 1.868 1.45 2.136.48 4.653-.51 5.86-2.5M225.01 125.776c.498-1.005.818-2.323 1.453-3.255-1.435.216-1.666.38-3.74.608-.45.043-1.386.512-1.695.82-.82.828-1.536 1.596-1.217 2.984.123.54.6.936.866 1.02 1.724.56 3.473-.465 4.335-2.176" fill="#000000"></path><path d="M226.76 128.512c1.96-.457 4.22-1.42 5.13-1.116-1.838.977-4.155 1.333-6.193 1.913-1.553.447-2.662 1.62-4.05 2.686-1.272.97-2.964 1.363-4.478.65-.51-.242-1.006-1.065-1.094-1.503-.08-.35-.81-.703-1.185-1.01-.377-.316-.56-1.1-.567-1.404-.066-2.713 1.997-3.807 3.985-5.4 1.497-1.2 3.44-6.29 4.627-7.343-.21 1.64-2.344 4.734-3.274 7.144-.736 1.92-.493 3.453-.97 5.474 1.422.09 3.006.388 4.438.41 1.123.015 2.48-.23 3.632-.502" fill="#000000"></path><path d="M224.696 132.692c-1.1.204-2.445.55-3.364.745-3.193.676-4.72-.888-7.27-.858.225-2.92-.79-4.23.045-6.117.745-1.68 1.434-3.46 2.074-4.883.52-1.14.677-2.105.677-2.105s-.773 1.158-2.976 5.448c-.764 1.496-2.135 1.817-3.352 3.23-1.4 1.616-2.205 5.034.387 6.468.514.284.44 1.172.814 1.53 1.73 1.63 5.225 1.465 7.41-.52 1.74-1.585 3.855-1.842 5.657-2.31a12.012 12.012 0 0 0 1.978-.72s-.5-.203-2.08.092M160.696 166.592c-.125 0-.26 0 0 0zM145.78 124.52c-1.067 1.407-1.56 3.025-2.735 4.255-.613.644-1.55.342-2.036-.4-.54-.838-1.413-2.023-.765-2.852 1.068-1.368 3.302-2.24 5.2-1.995.112.013.724.465.334.99zm-5.113 8.05c-.596 1.595-2.374 1.77-3.886 2.083-.28.062-1.152 0-1.543-.382-.653-.638-1.218-1.51-1.104-2.605.06-.673.623-1.334 1.32-1.604 1.263-.488 2.76-1.275 4.004-.576 1.07.6 1.63 1.963 1.21 3.087zm-3.274 8.43c-.436.628-1.553-1.46-1.698-2.416-.418-2.77 2.01-3.476 4.032-3.39.062 1.65-1.218 4.21-2.334 5.806zm-2.185 7.47c-.396 1.114-.587 2.14-1.03 3.16-.43.986-2.263 1.338-3.28 1.022-1.453-.45-2.7-3.71-1.047-4.96 1.264-.944 2.572-1.096 4.182-1.293.29-.036 1.37.03 1.412.13.27.677.1 1.015-.236 1.94zm-2.444 8.613c-.295.856-.425 1.736-.803 2.558-.19.42-.437-.13-.447-.157-.57-1.42-.93-2.62-.445-3.87.276-.692 1.223-1.328 2.12-1.384-.055.89-.118 1.986-.424 2.853zm-2.887 4.198c-.656-.295-.646-1.14-.92-1.663-.26-.512-.82-1.217-.59-1.89 1.267.712 1.854 1.978 1.51 3.554zm-2.185-5.24c-1.51-1.243-1.642-3.23-2.648-4.75 1.11-.71 2.985-.567 3.56.84.462 1.13.797 2.79-.35 3.654-.124.092-.42.375-.562.256zm-5.633-10.247c-.227-.324-.676-1.257-.334-1.376 2.704-.93 4.733-.96 5.31 1.932.41 2.063-1 3.835-2.977 3.114-.567-.21-1.13-2.41-2-3.67zm-3.934-6.532c-.19-.237-.344-.956-.107-1.14 1.405-1.13 3.47-1.217 5.068-1.06 2.108.19 2.54 2.15 2.19 3.775-.465 2.138-3.708 2.405-4.626 2.05-.903-.348-1.532-2.393-2.526-3.624zm.46-7.604c1.82-1.18 5.304-2.057 5.885 1.143.176.963-.064 2.243-1.366 2.66-1.338.43-2.913.893-4.135.397-1.504-.614-1.8-3.286-.385-4.2zm-1.89-5.38c.138-.615.818-.904 1.39-1.05 1.474-.365 3.123-.914 4.477-.05.528.332.568.804.638 1.468.12 1.075-.033 1.955-.74 2.365-1.438.842-2.9.918-4.57.59-1.353-.268-1.463-2.063-1.193-3.324zm-1.51 8.295c-1.264-.934-1.82-2.254-2.752-3.562-.225-.32 0-.452.172-.5 2.24-.635 3.904.484 3.555 2.927-.062.474-.37 1.58-.975 1.136zM109 127.024c-.84-.727-.255-1.99.477-2.358 1.28-.636 3.294-.733 4.627-.282.857.288 1.29 1.518 1.137 2.86-.063.552-.232 1.158-.5 1.337-1.016.692-2.586.72-3.82.46-.874-.183-1.186-1.376-1.92-2.017zm-.968-7.634c.812-1.767 3.775-1.783 5.388-.995 1.314.646 1.48 3.092.044 4.056-1.145.763-2.948.482-4.162.26-1.725-.317-1.862-2.013-1.27-3.32zm.066-6.615c1.23-1.17 2.825-.634 4.308-.428.287.04.628.242.823.436 1.01 1.022 1.09 2.698-.036 3.537-1.3.967-2.923.34-4.486.26-.422-.017-.886-.513-.982-.83-.28-.99-.452-2.2.372-2.975zm.793-5.534c1.308-.543 3.553-.793 4.478.673.568.9.403 2.563-.51 2.806-.89.228-3.926.732-4.653-.947-.36-.824-.208-2.154.686-2.532zm4.023-4.7c.378.168.614.472.703.936.186 1.007-.08 2.1-1.045 2.277-1.45.264-3.607.348-3.6-1.704.006-2.29 2.262-2.265 3.943-1.51zm-2.923-4.255c.773-.296 2.044-.23 2.738.132.35.182.82.758.623 1.363-.246.79-.98 1.076-1.817 1.087-.802.006-1.723-.058-2.047-.712-.308-.622-.178-1.606.504-1.87zm.903-3.432c.706-.257 1.75-.24 2.264.318.707.773.15 2-1.185 1.94-.47-.02-1.026-.182-1.31-.345-.69-.388-.46-1.665.23-1.912zm3.175-2.212c.09-.296.554-.645.797-.73.53-.19 1.15-.227 1.657-.025 1.014.416.874 1.67-.207 2.11-.485.197-1.23.324-1.594.197-.68-.232-.87-.824-.652-1.55zm3.157 4.904c-1.105.323-2.646.385-2.977-.748-.56-1.923 1.868-2.21 3.127-1.807.868.274 1.175 2.173-.15 2.554zm.732-6.35c.35-1.193 1.7-1.84 2.924-1.475 1.053.307 1.295 1.74.586 2.436a3.11 3.11 0 0 1-1.427.76c-1.253.28-2.482-.41-2.083-1.723zm5.5 4.37c-.197.78-.768 1.313-1.682 1.516-.907.2-2.16.255-2.665-.307-.48-.53-.7-1.277-.3-1.85.804-1.14 2.273-1.54 3.583-1.25.748.175 1.297.94 1.065 1.892zm-.488-4.573c.488-1.08 1.727-1.625 2.916-1.262.24.076.73.46.798.84.14.75-.12 1.437-.748 1.83-.805.513-1.47.802-2.393.423-.694-.29-.863-1.19-.574-1.83zm5.124 3.038c.544.92-.284 1.844-.703 2.097-.93.546-2.245.88-2.806-.042-.552-.907-.095-1.982.868-2.38.92-.382 1.87-.96 2.642.325zm1.546 3.516c.608.503 1.142 1.56.413 2.396-.685.787-1.536 1.023-2.612 1.196-.727.124-1.658-.415-1.775-1.057-.108-.555-.21-1.564.34-2.028 1.068-.912 2.503-1.44 3.635-.508zm1.29-5.997c.574.17.94.776.653 1.362-.175.36-.69.75-1.02.954-.902.555-1.676.328-1.958-.336-.52-1.22 1.228-2.305 2.324-1.98zm2.2 3.038c.633.056.923.498 1.05.982.163.65-.052 1.25-.6 1.618-.652.434-1.465.69-2.115.7-.88.015-1.694-1.276-1.217-2.114.505-.897 1.774-1.28 2.882-1.185zm3.637 4.652c.374 1.104-.435 1.62-1.288 2.072-.868.462-2.03.894-2.633.318-.77-.724-1.11-1.944-.254-2.747 1.188-1.115 3.387-1.952 4.174.357zm1.57 2.77c1.395.177 1.67 2.16 1.39 2.877-.32.616-1.022 1.1-1.39 1.288-1.024.527-2.218.727-3.16.24-.856-.444-1.228-1.745-.762-2.764.63-1.38 2.617-1.813 3.922-1.64zm2.87 6.138c.477.667.372 1.85.09 2.222-.88 1.2-3.33 1.888-4.34 1.396-.766-.376-1.524-2.067-.625-3.082.933-1.052 2.56-1.68 4.04-1.372.33.072.545.436.835.837zm.618 3.783c.67.072 1.268.81 1.592 1.615.422 1.04-.005 2.252-.337 2.478-.803.547-3.345 2.076-4.945 1.16-.88-.505-1.123-1.66-1.178-2.34-.176-2.2 3.163-3.103 4.868-2.912zm-9.386 15.745c-.343-.873-.66-2.165.026-2.696 1.386-1.092 4.52-2.05 5.71-.396.776 1.075.548 2.895-.808 3.59-1.4.715-4.14 1.538-4.93-.497zm-6.722.098c1.39-.707 3.394-1.56 4.89-.595.686.438 1.394 2.26.91 3.07-1.026 1.715-3.728 2.152-5.446 1.71-1.462-.38-1.903-3.403-.354-4.184zm-1.25-5.933c1.677-1.18 4.99-1.942 5.79.636.206.67.324 1.41-.018 1.95-.93 1.494-3.287 1.888-4.865 1.665-1.708-.247-2.514-3.124-.908-4.25zm-1.413-6.01c1.612-.914 5.047-2.128 5.856.49.325 1.07.293 2.394-.625 2.866-1.313.688-3.394 1.41-4.907.466-1.264-.8-1.435-3.186-.323-3.822zm9.023-10.804c-.675.604-1.36.733-2.26 1.038-1.258.428-2.574-.54-2.72-1.745-.24-2.062 1.968-2.368 3.43-2.626 1.064-.194 1.724.763 1.92 1.406.2.62.174 1.45-.37 1.927zm2.707 4.85c-.957 1.428-4.82 2.327-5.673.858-.622-1.074-1.01-2.585.16-3.306 1.23-.755 2.685-1.207 4.115-.95 1.344.238 2.028 2.45 1.398 3.4zm2.06 8.844c.55.875.934 2.05.118 3.136-.74.994-3.383 1.46-4.736 1.13-.742-.186-1.093-1.087-1.206-1.696-.156-.823-.23-1.65.498-2.322 1.047-.96 2.445-.938 3.787-.938.552 0 1.334.358 1.54.69zm-.768-2.968c-.822 1.51-3.61 1.706-4.864 1.54-.884-.12-1.506-1.543-1.48-2.735.01-.614.2-1.02.62-1.244 1.392-.746 2.817-1.246 4.315-1.003 1.46.232 2.03 2.296 1.41 3.442zm-14.676-3.257c-.946-2.918 2.697-3.837 4.825-3.388 1.48.308 1.974 3.154.596 4.05-1.703 1.11-4.728 1.468-5.42-.662zm-5.494 7.163c1.092-1.125 3.063-1.196 4.602-.99.945.133 1.352 1.087 1.483 2.123.37 2.85-3.458 3.33-5.28 2.663-1.198-.438-1.823-2.745-.804-3.797zm-.77-5.52c1.14-1.345 3.05-1.663 4.63-1.23.966.263 1.413 1.39 1.39 2.655a1.612 1.612 0 0 1-.95 1.42c-1.125.457-2.424.796-3.65.647-1.512-.187-2.43-2.302-1.42-3.492zm.18-6.016c1.405-.573 4.02-1.085 4.46.92.596 2.67-2.555 3.104-4.24 2.64-1.288-.353-1.532-3.03-.22-3.56zm10.098-4.412c1.05.596 1.27 2.277.63 3.252-.848 1.29-3.75 2.037-5.312.908-.89-.647-1.37-3.296.455-3.933 1.458-.51 2.855-1.004 4.227-.227zm-1.487-1.917c-1.19.737-2.888 1.03-4.013.403-.98-.534-.942-1.966-.456-2.736.797-1.282 2.78-1.42 4.15-1.02 1.183.343 1.625 2.54.32 3.354zm-9.638-2.09c.12-.38.29-.49.526-.607 1-.477 2.1-.605 3.058.01.69.448.63 1.48.118 2.016-.75.787-2.273.82-3.248.307-.63-.328-.66-1.106-.455-1.727zm.32 4.18c.442-1.264 2.018-1.195 3.213-1.04 1.47.192 1.763 2.075 1.242 2.867-.722 1.093-2.368.884-3.68.717-1.064-.136-1.127-1.547-.776-2.544zm20.733 38.027c.36 1.428 0 2.785-1.27 3.24-1.634.576-3.842 1.42-5.148.54-1.493-1.002-2.212-3.842-.496-4.955 2.025-1.325 6.058-2.193 6.913 1.175zm-2.2-4.44c-1.1 1.246-2.89 1.205-4.648 1.72-.68.197-1.485-.402-1.838-1.023-.65-1.16-1.3-2.715-.055-3.836 1.03-.94 2.437-.86 3.7-1.237.567-.17 1.26-.37 1.95.097 1.423.972 1.977 3.054.89 4.28zm11.64-18.687c.31.907.725 1.573.373 2.477-.42 1.11-1.496 1.263-2.507 1.628-.943.342-2.515.774-3.305-.053-.906-.94-1.273-2.852-.186-3.672 1.405-1.048 4.88-2.495 5.623-.38zm19.105-8.157c.83-3.386 1.863-6.82 2.12-10.396.38-5.344-.773-10.898-4.2-14.944.336 1.745.783 3.218 1.017 5.05.28 2.212-.033 4.676-.604 6.903-.43 1.685-1.19 3.324-1.944 4.89-.89 1.854-2.217 3.87-3.54 5.526-3.708 4.61-9.485 13.61-9.485 13.61s-.483-.035-.77-.035c-.068-1.12 2.592-4.963 3.933-7.114 2.947-4.713 5.178-7.25 7.74-11.337 1.604-2.576 2.83-5.712 3.224-8.555.8-5.79-2.324-12.728-6.813-15.037 1.027 4.325.92 10.42-1.384 12.986-4.36 4.855-6.95 8.49-10.06 14.718-.09.167-.817-.84-1.42-1.232-.673-.445-.296-1.78-.537-2.68-.22-.765-.58-1.353-.686-1.487-.92-1.13-1.81-1.2-2.005-1.538-.223-.38-.116-1.333-.92-2.417-.4-.546-1.423-.95-1.84-1.463-.448-.56-.652-2.273-1.893-2.976-.59-.33-.865-1.36-1.43-1.863-1.745-1.545-3.487-1.246-3.82-1.344-.45-.122-1.326-1.237-2.886-1.505-1.525-.26-2.364.758-3.155.39-1.987-.92-3.89-.995-6 1.357-.632.7-1.727.045-3.094 1.09-1.2.915-1.222 1.76-1.833 1.877-1.148.213-2.004 1.132-2.447 2.135-.23.517-.402 1.56-.536 2.248-.188.95-.67 1.825-.678 2.524-.01.97.295 1.494.21 1.93-.142.627-.65 1.203-.712 1.79-.047.334-.075 1.222.167 1.722.306.615-.214 1.15-.484 1.807-.258.61-.53 1.656-.446 2.394.11 1.013.688 1.383.238 2.182-.738 1.295-1.672 3.316-.036 5.9.3.47-.686 1.39-.74 2.737-.064 1.466.82 2.55 1.064 3.2.045.233-.39.22-.406.47-3.896-4.12-7.342-7.92-11.86-11.496-2.76-2.18-5.49-4.016-8.548-5.655-8.172-4.382-17.665-7.314-26.265-6.243 3.238 2.61 7.325 4.468 10.652 7.43 3.152 2.807 6.012 5.204 8.882 8.187 4.505 4.68 8.167 9.427 11.982 14.935 1.133 1.63 1.88 2.72 2.935 4.42 1.064 1.703 2.245 3.51 3.214 5.196 4.882 8.477 8.882 16.325 12.93 25.012 1.124 2.4 2.07 4.916 3.17 7.304.294.648.716.167 1.014 0 1.464-.847 3.02-1.555 4.54-2.272 1.213-.557 2.317-.94 3.4-1.357 2.74-1.044 5.34-1.61 8.208-2.207 4.788-1.003 13.392-.796 13.392-.796l16.31-.005h.446c-.17-4.676-1.28-9.22-1.552-13.91-.205-3.8-.08-7.472.055-11.278.365-10.315 1.88-21.387 4.185-30.784M52.685 71.927c-3.183 3.173-4.132 4.34-5.988 7.85-1.093 2.063-2.48 4.712-2.877 8.124 6.54-2.49 11.876-7.57 16.698-13.18 3.567-4.16 6.334-9.68 9.85-13.79-6.195 2.077-12.733 6.067-17.683 10.997" fill="#000000"></path><path d="M33.96 80.848c2.467-4.165 6-8.668 9.66-11.74-1.695 3.808-3.784 7.583-4.502 12.09-1.423 8.967-2.766 15.25-4.254 23.437 4.067-2.902 8.357-7.46 12.67-10.643 3.333-2.448 6.674-4.084 10.1-6.44 2.038-1.405 3.366-3.21 5.06-4.9-2.02 8.51-9.488 17.1-14.836 21.107-6.718 5.037-9.126 5.84-19.923 16.817-1.37-13.554-1.127-27.642 6.026-39.73" fill="#000000"></path><path d="M11.936 125.87c.503-7.04 1.347-12.67 3.057-19.537 1.2-4.796 3.78-11.934 7.5-14.862-.456 1.74-.696 4.347-.87 6.107-.73 7.25.658 15.675.824 22.92.082 3.562.05 6.308-.482 9.655-.552 3.51-.092 7.816-.092 7.816s1.923-2.196 3.64-4.932c3.753-5.96 4.955-7.73 7.98-10.96 3.75-4.005 7.945-7.715 12.682-11-.57 2.225-2.99 6.553-3.99 8.293-1.333 2.326-1.94 4.442-5.095 9.713-4.442 7.406-6.42 8.405-11.352 16.326-1.068 1.722-5.446 8.274-6.507 10.277-2.31-4.782-3.18-8.96-6.015-16.742-1.78-4.89-1.514-9.782-1.28-13.076" fill="#000000"></path><path d="M5.08 162.492c-2.68-6.944-3.907-13.387-4.814-20.697-.555-4.474-.297-10.436 1.3-14.736.418 1.048 1.272 3.713 1.388 4.113 1.187 3.995 1.684 5.914 3.344 9.767 1.27 2.955 2.822 5.31 4.484 8.23 1.51 2.666 2.785 6.175 3.878 8.86 3.517 8.61 3.776 16.67 5.122 17.55.967-2.072 1.27-4.056 1.38-5.033 1.044-9.527 2.3-18.186 14.296-29.414 1.1 3.343.543 9.504-.12 12.804-1.433 7.216-2.592 10.682-5.77 17.675-1.68 3.683-3.922 9.103-4.537 10.897-1.61 4.675-2.16 7.126-3.175 9.89-5.663-9.436-12.634-19.18-16.776-29.908" fill="#000000"></path><path d="M14.416 205.907c-4.033-5.614-5.502-8.434-8.126-14.41-2.204-5.012-2.838-6.87-4.13-12.484-.704-3.06-1.102-5.836-.555-7.645 3.158 5.716 5.312 12.113 9.442 16.855 3.278 3.76 6.437 6.964 9.043 10.138 4 4.88 7.147 9.496 10.985 14.575.323-2.546.448-5.124-.124-9.295-.78-5.715-.298-10.4.7-15.933 1.265-7.02 2.192-10.495 4.628-17.598 2.98 5.843 2.968 12.605 3.716 18.803 1.444 12.027-2.32 26.368-3.06 32.347-.197 1.575.076 5.46.156 6.976a170.62 170.62 0 0 1-15.485-13.772c-2.212-2.205-5.246-5.86-7.19-8.557" fill="#000000"></path><path d="M35.747 250.01c-2.562-1.845-9.446-7.106-12.705-11.246-4.747-6.028-5.792-8.61-8.923-15.545-.385-.847-2.157-4.772-2.302-7.44 10.26 12.39 19.445 14.233 29.23 24.513 3.592 3.766 7.27 7.31 9.21 9.09 1.49 1.37 3.34 1.783 3.34 1.783s-.193-2.64-1.16-4.477c-6.528-12.48-7.76-25.526-6.77-39.527 2.98 3.69 3.92 6.153 5.812 9.72 2.057 3.888 3.106 6.29 4.067 8.682 5.587 13.906 7.04 29.967 10.493 38.05-10.655-3.59-19.046-5.508-30.293-13.604" fill="#000000"></path><path d="M79.443 282.824c-2.882.193-8.532.176-11.545-.315-15.252-2.442-29.43-13.495-36.562-25.637 6.467 3.946 11.142 6.58 16.83 8.548 5.063 1.75 9.866 2.27 18.32 4.67 5.103 1.442 10.154 3.483 11.928 4.147 5.656 2.107 8.037 1.59 8.037 1.59s0-.86-2.11-3.164c-4.212-4.595-5.754-5.694-9.218-9.226-1.137-1.166-3.743-5.13-5.066-7.766-3.743-7.45-4.16-13.422-7.577-21.607 12.473 7.325 18.55 17.433 25.145 30.176 2.028 3.9 4.77 8.41 7.276 10.887 1.685 1.662 4.06 4.19 4.06 4.19s-1.74.408-7.156 1.208c-2.43.357-7.607 1.97-12.36 2.3M139.908 283.79c6.585 1.078 12.436 2.678 18.425 4.733 1.61.553 4.06 1.77 5.755 2.63 4.245 2.16 6.688 3.563 10.336 6.07 5.876 4.048 12.188 8.408 17.883 15.024.12.13 1.042 1.114.43 1.594-1.117.876-3.868 2.12-4.78 1.315-5.212-4.635-4.95-6.12-11.264-11.838a68.19 68.19 0 0 0-6.988-5.504c-2.85-1.95-6.294-4.08-9.496-5.66-2.91-1.432-7.39-1.86-9.905-1.86l.034.02c-1.144-.045-7.712-.082-9.233.016-12.908.885-12.276 2.04-19.718 4.055-6.122 1.666-12.69 2.85-19.208 3.726-6.68.91-12.655 1.018-18.915.38-8.486-.875-17.77-3.24-24.7-7.706 6.337.106 12.842 1.324 19.144.84 2.653-.203 6.955-.603 9.87-1.5 5.788-1.78 9.11-2.472 15.24-4.18 5.27-1.467 10.58-1.975 16.08-2.555 7.615-.815 14.667-.63 21.008.4M257.935 71.927c3.184 3.173 4.137 4.34 5.992 7.85 1.094 2.063 2.482 4.712 2.878 8.124-6.546-2.49-11.877-7.57-16.702-13.18-3.57-4.16-6.332-9.68-9.85-13.79 6.198 2.077 12.734 6.067 17.682 10.997" fill="#000000"></path><path d="M276.663 80.848c-2.468-4.165-6-8.668-9.66-11.74 1.713 4.1 4.21 9.205 4.502 12.09.91 9.03 2.766 15.25 4.255 23.437-4.065-2.902-8.36-7.46-12.675-10.643-3.325-2.448-6.668-4.084-10.093-6.44-2.04-1.405-3.368-3.21-5.064-4.9 2.02 8.51 9.49 17.1 14.837 21.107 6.716 5.037 9.126 5.84 19.918 16.817 1.37-13.554 1.126-27.642-6.02-39.73" fill="#000000"></path><path d="M298.688 125.87c-.508-7.04-1.344-12.67-3.057-19.537-1.198-4.796-3.778-11.934-7.505-14.862.46 1.74.696 4.347.875 6.107.736 7.25-.65 15.675-.823 22.92-.082 3.562-.052 6.308.478 9.655.553 3.51.096 7.816.096 7.816s-1.922-2.196-3.643-4.932c-3.746-5.96-4.948-7.73-7.98-10.96-3.747-4.005-7.946-7.715-12.684-11 .578 2.225 2.994 6.553 3.994 8.293 1.34 2.326 1.938 4.442 5.096 9.713 4.44 7.406 6.42 8.405 11.347 16.326 1.068 1.722 5.453 8.274 6.513 10.277 2.312-4.782 3.182-8.96 6.016-16.742 1.785-4.89 1.517-9.782 1.278-13.076" fill="#000000"></path><path d="M305.544 162.492c2.677-6.944 3.903-13.387 4.816-20.697.555-4.474.292-10.436-1.3-14.736-.42 1.048-1.27 3.713-1.39 4.113-1.19 3.995-1.685 5.914-3.34 9.767-1.27 2.955-2.833 5.31-4.49 8.23-1.51 2.666-2.783 6.175-3.88 8.86-3.513 8.61-3.773 16.67-5.12 17.55-.97-2.072-1.27-4.056-1.376-5.033-1.047-9.527-2.303-18.186-14.297-29.414-1.104 3.343-.544 9.504.112 12.804 1.44 7.216 2.603 10.682 5.775 17.675 1.68 3.683 3.922 9.103 4.54 10.897 1.602 4.675 2.157 7.126 3.178 9.89 5.66-9.436 12.63-19.18 16.77-29.908" fill="#000000"></path><path d="M296.208 205.907c4.037-5.614 5.5-8.434 8.125-14.41 2.203-5.012 2.835-6.87 4.13-12.484.706-3.06 1.102-5.836.553-7.645-3.15 5.716-5.316 12.113-9.444 16.855-3.272 3.76-6.432 6.964-9.04 10.138-3.993 4.88-7.15 9.496-10.983 14.575-.32-2.546-.45-5.124.117-9.295.786-5.715.305-10.4-.694-15.933-1.265-7.02-2.192-10.495-4.626-17.598-2.978 5.843-2.97 12.605-3.718 18.803-1.45 12.027 2.323 26.368 3.063 32.347.192 1.575-.08 5.46-.16 6.976a170.438 170.438 0 0 0 15.486-13.772c2.21-2.205 5.237-5.86 7.188-8.557" fill="#000000"></path><path d="M274.88 250.01c2.557-1.845 9.443-7.106 12.7-11.246 4.748-6.028 5.795-8.61 8.925-15.545.378-.847 2.156-4.772 2.3-7.44-10.258 12.39-19.444 14.233-29.23 24.513-3.59 3.766-7.266 7.31-9.208 9.09-1.49 1.37-3.34 1.783-3.34 1.783s.192-2.64 1.156-4.477c6.53-12.48 7.764-25.526 6.768-39.527-2.97 3.69-3.917 6.153-5.806 9.72-2.053 3.888-3.105 6.29-4.063 8.682-5.59 13.906-7.05 29.967-10.5 38.05 10.663-3.59 19.05-5.508 30.3-13.604" fill="#000000"></path><path d="M231.18 282.824c2.888.193 8.533.176 11.55-.315 15.25-2.442 29.425-13.495 36.558-25.637-6.473 3.946-11.148 6.58-16.83 8.548-5.067 1.75-9.867 2.27-18.318 4.67-5.107 1.442-10.156 3.483-11.932 4.147-5.655 2.107-8.036 1.59-8.036 1.59s0-.86 2.112-3.164c4.21-4.595 5.755-5.694 9.213-9.226 1.142-1.166 3.748-5.13 5.07-7.766 3.742-7.45 4.16-13.422 7.58-21.607-12.472 7.325-18.562 17.433-25.152 30.176-2.023 3.9-4.766 8.41-7.268 10.887-1.683 1.662-4.063 4.19-4.063 4.19s1.74.408 7.16 1.208c2.427.357 7.6 1.97 12.356 2.3M170.716 283.79c-6.584 1.078-12.43 2.678-18.424 4.733-1.616.553-4.06 1.77-5.757 2.63-4.244 2.16-6.683 3.563-10.335 6.07-5.88 4.048-12.183 8.408-17.883 15.024-.123.13-1.048 1.114-.43 1.594 1.12.876 3.87 2.12 4.776 1.315 5.213-4.635 4.948-6.12 11.27-11.838a66.95 66.95 0 0 1 6.984-5.504c2.856-1.95 6.292-4.08 9.496-5.66 2.906-1.432 7.394-1.86 9.904-1.86l-.036.02c1.147-.045 7.712-.082 9.237.016 12.91.885 12.275 2.04 19.714 4.055 6.126 1.666 12.69 2.85 19.21 3.726 6.676.91 12.656 1.018 18.916.38 8.488-.875 17.768-3.24 24.693-7.706-6.33.106-12.833 1.324-19.14.84-2.655-.203-6.95-.603-9.866-1.5-5.79-1.78-9.113-2.472-15.24-4.18-5.27-1.467-10.58-1.975-16.08-2.555-7.616-.815-14.667-.63-21.008.4M147.152-.004l-11.595 43.05H123.25l-7.698-28.045-7.528 28.047H95.746L84.153-.003H95.74l6.604 29.634L110.29-.003h11.073L128.9 29.63l6.933-29.634h11.32M185.4 8.323h-19.804v8.01h18.36v8.326h-18.36v18.387h-11.04V-.003H185.4v8.326M217.117 13.83c0-1.21-.328-2.253-.98-3.127-.658-.876-1.418-1.487-2.285-1.832-1.157-.462-2.284-.717-3.383-.763a105.42 105.42 0 0 0-4.397-.074h-1.908V20.9h3.18c1.89 0 3.446-.116 4.67-.347 1.225-.23 2.25-.692 3.078-1.385a5.317 5.317 0 0 0 1.547-2.207c.32-.853.477-1.897.477-3.13zm11.48-.245c0 1.927-.34 3.81-1.013 5.652-.675 1.84-1.64 3.388-2.89 4.64-1.718 1.698-3.63 2.98-5.74 3.846-2.11.868-4.738 1.3-7.878 1.3h-6.91v14.024h-11.103V-.003h18.273c2.737 0 5.044.235 6.923.707 1.88.473 3.543 1.18 4.988 2.125 1.733 1.137 3.06 2.59 3.975 4.365.916 1.773 1.373 3.904 1.373 6.39M72.005 344.25l-7.81 25.203h-8.577l-5.137-16.99-5.072 16.99h-8.66L29 344.25h8.477l4.325 17.37 5.377-17.37h7.16l5.113 17.37 4.255-17.37h8.295" fill="#000000"></path><path d="M90.87 340.456h-.604a26.9 26.9 0 0 0-1.4-.357 7.984 7.984 0 0 0-1.846-.205c-1.58 0-2.65.285-3.21.853-.56.57-.84 1.67-.84 3.3v.2h6.217v5.477H83.24v19.728h-8.103v-19.728h-3.455v-5.476h3.455v-.697c0-3.08.82-5.392 2.46-6.934 1.637-1.543 4.116-2.312 7.44-2.312 1.194 0 2.28.04 3.252.123.973.083 1.832.19 2.58.326v5.7M109.625 356.672c0-2.45-.42-4.228-1.256-5.333-.837-1.107-2.157-1.658-3.963-1.658-.762 0-1.546.115-2.352.346a9.948 9.948 0 0 0-2.306.997v12.662a6.45 6.45 0 0 0 1.723.403c.612.06 1.217.088 1.814.088 2.134 0 3.726-.622 4.77-1.87 1.044-1.247 1.568-3.125 1.568-5.636zm8.325-.17c0 2.082-.318 3.974-.953 5.68-.634 1.705-1.468 3.113-2.498 4.22-1.078 1.166-2.295 2.05-3.656 2.65-1.36.596-2.816.895-4.37.895-1.435 0-2.653-.153-3.654-.46-1.002-.307-2.026-.736-3.07-1.29V378.7h-8.104v-34.45h8.103v2.626c1.24-.988 2.505-1.788 3.8-2.4 1.29-.615 2.78-.923 4.47-.923 3.138 0 5.578 1.154 7.32 3.456 1.74 2.305 2.61 5.468 2.61 9.492M121.78 369.453h8.394v-8.82h-8.393zM151.62 362.99c.524-.643.916-1.418 1.18-2.324.26-.903.392-2.158.392-3.758 0-1.48-.136-2.724-.404-3.726-.27-1.002-.644-1.802-1.12-2.402-.48-.614-1.057-1.047-1.73-1.302a6.102 6.102 0 0 0-2.178-.38c-.78 0-1.47.104-2.076.314-.607.21-1.185.628-1.74 1.256-.493.584-.885 1.384-1.177 2.4-.292 1.02-.438 2.298-.438 3.84 0 1.376.125 2.57.38 3.58.255 1.01.627 1.82 1.123 2.435.48.582 1.05 1.01 1.716 1.28.666.268 1.425.404 2.278.404.732 0 1.432-.124 2.1-.372a3.835 3.835 0 0 0 1.692-1.245zm9.943-6.127c0 4.144-1.208 7.41-3.624 9.797-2.42 2.387-5.81 3.58-10.18 3.58s-7.76-1.193-10.177-3.58c-2.416-2.387-3.626-5.653-3.626-9.797 0-4.175 1.216-7.45 3.648-9.83 2.43-2.378 5.816-3.57 10.155-3.57 4.4 0 7.8 1.2 10.2 3.592 2.403 2.394 3.603 5.664 3.603 9.808M183.325 351.947h-.716c-.345-.118-.898-.208-1.66-.27-.76-.058-1.394-.088-1.902-.088-1.15 0-2.165.073-3.047.223-.88.15-1.828.404-2.84.763v16.877h-8.104V344.25h8.103v3.702c1.775-1.525 3.32-2.54 4.633-3.04 1.314-.5 2.523-.752 3.628-.752a21.21 21.21 0 0 1 1.905.09v7.697M202.01 361.508v-11.423c-.462-.195-1.03-.348-1.702-.46a11.132 11.132 0 0 0-1.813-.17c-2.12 0-3.71.61-4.77 1.83-1.06 1.22-1.59 2.923-1.59 5.105 0 2.426.452 4.117 1.354 5.074.902.957 2.242 1.436 4.018 1.436.807 0 1.6-.127 2.375-.38a8.907 8.907 0 0 0 2.126-1.012zm8.102 5.05c0 2.365-.336 4.354-1.01 5.97-.673 1.616-1.615 2.88-2.827 3.793-1.214.93-2.675 1.6-4.388 2.01-1.715.41-3.648.617-5.802.617a42.23 42.23 0 0 1-5.173-.314c-1.7-.21-3.17-.465-4.41-.762v-6.307h.986c.985.39 2.188.745 3.608 1.066 1.42.32 2.688.482 3.81.482 1.493 0 2.707-.14 3.642-.415.933-.277 1.647-.67 2.14-1.178.463-.48.8-1.093 1.008-1.843.21-.746.313-1.645.313-2.692v-.472a11.975 11.975 0 0 1-3.23 1.886c-1.177.463-2.493.695-3.944.695-3.525 0-6.245-1.063-8.16-3.187-1.91-2.125-2.868-5.356-2.868-9.696 0-2.08.292-3.876.875-5.385.582-1.512 1.404-2.83 2.465-3.95.987-1.048 2.2-1.865 3.643-2.448a11.69 11.69 0 0 1 4.43-.877c1.357 0 2.595.163 3.708.484 1.113.322 2.125.767 3.037 1.335l.292-1.123h7.855v22.307M239.077 334.532l-17.798 42.193h-6.89l17.726-42.193h6.96M270.152 369.453h-8.1v-12.5c0-1.017-.053-2.032-.157-3.04-.107-1.012-.284-1.754-.54-2.235a2.69 2.69 0 0 0-1.312-1.212c-.575-.253-1.38-.38-2.414-.38-.733 0-1.478.12-2.233.358-.756.24-1.576.62-2.458 1.145v17.863h-8.103V344.25h8.102v2.783c1.433-1.122 2.81-1.982 4.135-2.582 1.322-.597 2.79-.897 4.402-.897 2.722 0 4.847.794 6.38 2.38 1.53 1.586 2.295 3.957 2.295 7.115v16.405M275.283 369.453h8.103v-34.92h-8.103z" fill="#000000"></path></g></svg>