<svg xmlns="http://www.w3.org/2000/svg" viewBox="0 0 656.20001 377.94666" height="377.947" width="656.2"><defs><clipPath id="a"><path d="M0 2834.64V0h4921.51v2834.64z" fill="#000000"></path></clipPath></defs><g clip-path="url(#a)" fill="#fff" transform="matrix(.13333 0 0 -.13333 0 377.947)"><path d="M1340.5 2131.15c12.51 27.07 24.09 48.62 40.79 74.3 7.37 11.32 15.69 19.22 23.11 30.67-3.54 1.02-8.73-1.91-10.96-3.5-7.42-5.38-10.77-14.12-16.71-18.8-14.03-11.08-13.64-21.1-21-26.27-6.57-4.64-8.45-7.69-13.05-14.91-3.08-4.82-5.35-8.73-8.6-18.22-1.15-3.44-3.45-.4-8.92-7.94-7.19-9.8-10.41-20.39-13.39-32.25-.96-3.91-7.59-5.98-11.86-14.08-5.71-10.92-9.43-21.03-11.9-36.95-.62-3.69-6.86-6.25-11.16-16.54-3.05-7.22-5.24-8.82-7.9-22.45-1.65-8.3-5.43-9.5-9.7-21.56-3.3-9.2-3.43-18.05-4.58-30.08-.27-2.33-4.2-6.95-7.83-13.69-6.1-11.26-5.9-18.77-8.32-30.41-.93-4.2-5.65-9.77-10.18-27.79-3.98-15.98-.33-26.57-1.68-34.45-3.53-20.44-7.03-38.21-5.14-58.35.94-9.85 2.44-20.01 1.78-29.48-1.87-29.7-3.48-54.17-3.32-87.83.11-18.32 1.54-43.41 4.32-64.29 3.04-23.06 7.44-41.07 7.44-41.07h75.14s-2.94 43.45.95 89.19c2.31 27.42 8.83 56.49 14.76 76.9 7.51 26.02 12.18 39.5 26.37 73.84.3.76-.1 3.98-3.85.83-7.84-6.59-14.39-12.37-20.58-21.69-9.45-14.25-15.21-25.99-22.87-40.63-8.95-17.02-13.89-31.85-23.11-52.52-.54 14.92 1.88 29.12 4.91 42.87 3.1 14.04 5.56 25.16 9.98 37.26 7.83 21.34 15.43 39.16 27.99 59.02 7.27 11.49 16.57 21.78 26.01 30.33 11.29 10.32 21.73 19.4 33.55 29.5-12.42 6.4-28.96-6.96-32.27-7.64-17.47-3.42-24.58-19.61-29.93-21.84-7.65-3.19-12.07-7.87-17.38-14.33-4.09-4.85-5.32-12.33-9.59-14.98-7.13-4.44-12.37-11.14-17.27-20.49-2.01-3.87-7.5-22.13-13.59-19.79 10.42 61.92 32.28 120 67.38 171.7 22.25 32.78 46.45 60.88 82.12 86.1 4.7 3.34 5.61 4.89-.95 4.66-33.34-4.06-35.38-19.27-40.87-20.72-5.2-1.34-11.65-7.51-15.77-11.52-7.41-7.33-7.28-13.5-10.13-15.43-6.08-4.24-10.66-8.65-14.81-16.02-2.19-3.85-5.86-12.3-9.11-14.24-8.57-4.96-16.86-12.18-20.99-19.99-3.05-5.7-4.27-11.88-8.25-17.49-4.27-6.02-10.23-10.52-15.36-14.88 3.9 26.47 16.37 57.81 24.95 84.86 11.53 36.13 25.54 68.96 41.33 103.08M1417.21 1916.65c28.44 63.85 58.37 111.9 97.26 168.11 5.08 7.36 9.64 14.58 14.08 21.49 2 3.11 11.56 16.85 13.55 19.76 13.04 19.69 18.52 25.72 31.86 44.53 3.62 5.11 6.55 9.14 8.09 15.03 2.84 11.02-6.61 18.41-8.79 28.97-2.2 10.79-.99 22.57 3.96 31.68 3.1 5.69 6.19 7.93 9.31 15.57 6.07 14.73 3.97 46.6 10.87 47.44-1.75-15.13-2.15-32.13.23-46.64 2.76-16.93 13.03-27.18 17.27-45.11 11.43 2.06 23.83 1.57 33.45.74 9.54-.82 21.61 1.83 31.4 5.18 13.26 4.53 24.27 12.78 37.79 15.98-11.5-11.05-27.73-15.2-41.33-23.59-5-3.14-9.71-7.29-13.05-12.45-5.46-8.51-9.78-16.64-18.34-20.38-15.19-6.62-28.24-3.48-45.57-6.7-25.76-26.55-50.01-62.63-72.38-100.59-56.73-95.97-104.04-195.36-131.54-297.28 9.51 17.73 18.6 34.88 28.9 51.75 11.38 18.74 24.18 37.09 38.13 55.47 32.66 43.05 64.97 80.64 101.18 120.19 29.21 31.96 61.24 58.76 96.95 81.18 47.19 29.57 105.41 50.28 156.56 39.6 5.82-1.36 14.14-2.91 17.77-6.74-64.11 8.98-121.54-13.42-164.39-47.74-33.86-27.07-62.39-54.56-91.39-90.28-14.98-17.2-28.45-36.11-41.83-54.44-14.02-19.27-26.45-39.55-38.77-59.83-41.55-68.61-72.99-141.25-96.12-216.51-.66-2.38-.81-4.78-1.46-7.16 1.09 1.69 2.71 3.53 3.81 5.25 31.12 50.6 68.55 99.45 115.96 132.22 4.14 2.82 8.45 8.26 9.57 12.53 5.12 20.09-10.19 29.75 10.99 57.52 4.86 6.38 11.51 8.71 16.1 14.64 8.67 13.4 15.74 37.41 23 43.86-3.65-15.63-12.61-32.14-14.53-48.25-2.03-17.69 2.49-32.15 3.28-50.89 12.52-1.71 22.21-7 32.03-10.04 15.28-4.78 24.46-3.56 39.57-2.26 6.45.55 18.15 4.32 25.1 2.9-14.61-7.98-34.33-6.51-49.28-14.15-10.46-5.35-13.49-13.26-27.92-16.04-12.84-2.5-23.64-1.16-31.98 3.12-6.49 3.27-11.56 4.64-17.39 1.85-15.56-7.47-26.18-18.02-38.7-30.65-29.08-29.26-52.81-61.93-74.96-104.74a553.834 553.834 0 0 1-16.13-34.26c-2.47-5.65-8.6-21.34-8.6-21.34h-75.98s-.19 21.91.52 29.91c1.46 15.94 3.63 27.76 6.72 43.93 4.41 23.27 8.72 44.38 14.76 66.95 5.88 21.96 12.21 42.56 19.74 63.65 15.71 43.96 32.41 86.06 50.67 127.06M682.55 1324.8c27.73 22.68 48.262 35.82 75.958 52.33 11.25 6.72 28.262 14.33 41.336 20.26 47.976 21.68 111.465 37.67 171.27 38.77 1.08 0 1.015-.05 1.015-.05h445.9s-1.66.05 1.56.05c14.19 0 28.22-4.94 36.91-13.15 8.71-8.26 12.87-20.97 15.14-33.62 1.92-10.78.98-20.36-1.53-31.89-1.97-9.11-3.43-14.54-8.51-22.28-3.06-4.71-5.97-7.94-11.68-12.48-5.86-4.68-14.16-6.31-23.67-6.4-1-.04-3.12-.1-3.05-.07.1.07-521.56.07-521.56.07s-3.242.01-4.87.01c-34.14.11-70.098-1.63-103.832-6.03-25.848-3.53-51.747-7.56-76.727-14.06-31.503-8.23-61.835-19.62-92.116-30.91 16.785 22.31 36.16 41.24 58.457 59.45" fill="#000000"></path><path d="M837.383 1502.21c27.39 19.79 60.652 36.04 90.13 47.32 14.936 5.66 34.8 11.93 50.585 15.86 19.058 4.81 40.972 8.42 58.832 8.94 5.38.15.79.04.79.04l382.46.04s8.19-.44 11.03-1c7.19-1.55 12.99-4.48 15.39-6.01 5.94-3.81 13.4-11.81 17.3-18.14 9.93-16.35 11.68-34 8.46-52.37-3.67-20.97-19.61-44.86-41.23-45.45-3.77-.1-11.28 0-11.28 0h-414.23s-24.104-.47-35.124-.87c-20.367-.8-42.957-3.12-60.738-5.74-15.215-2.19-30.078-5.07-45.317-9.15-51.073-13.8-95.448-39.7-141.85-59.84 31.25 54.63 73.53 96.48 114.793 126.37M623.43 1242.28c66.492 39.28 146.582 54.77 219.89 57.23 1.746.08 5.227.19 5.227.19l571.723-.05s1.04 0 6.21.05c34.65.03 47.31-34.35 47.15-62.15-.07-9.16-1.62-18.5-4.16-24.77-3.29-8.19-6.93-14.88-12.89-21.34-2.13-2.34-9.78-7.72-13.17-8.55-7.92-1.94-17.67-1.72-17.61-1.72.08 0-425.26-.08-425.26 0 0 0-22.95.92-38.868 2.45-11.477 1.13-20.18 2.33-32.094 4.6-29.297 5.82-53.57 15.35-78.926 23.17-16.922 5.24-34.722 9.13-53.28 11.94-34.142 5.22-71.415 7.6-105.888 4.99-43.847-3.26-82.84-11.85-124.558-25.08 7.058 10.99 36.375 27.12 56.504 39.04" fill="#000000"></path><path d="M931.395 1063c-19.547 6.89-38.614 15.78-55.72 27.07-22.284 14.75-33.214 26.48-62.015 39.79-24.644 11.39-44.324 22.63-78.687 35.08-16.582 6.01-43.442 14.28-66.49 18.22-32.897 5.59-64.628 8.04-64.628 8.04s6.72 4.19 10.774 5.43c33.585 10.22 63.253 15.21 97.74 17.76 30.235 2.27 58.028-.68 88.353-5.42 12.44-1.96 28.613-5.79 42.668-9.8 45.64-12.99 97.516-33.59 143.55-33.67 2.564 0 2.27.04 2.27.04h426.32c12.87.04 36.93-4.13 46.6-21.21 11.2-19.68 14.68-43.12 5.27-66.6-2.85-7.05-7.58-17.16-14.37-23.28-5.97-5.4-15.67-8.87-21.27-8.87-1.62-.08-4.4 0-4.4 0h-371.69-2.03c-38.01 0-85.847 4.6-122.245 17.42M1100.71 931.16c-10.51 10.79-25.02 27.328-38.15 43.04-25.23 30.07-36.52 57.16-36.52 57.16h247.91s.66-28.6-5.07-61.72c-5.36-30.75-16.72-63.17-28.8-86.66-.44-24.082 9.72-46.468 11.39-70.26-20.36-12.5-42.26-24.868-60.51-42.42-1.17-1.08-3.05-1.08-3.82 1.83-9.77 36.66-14.92 69.34-22.95 105.59-22.6 17.47-43.79 33.042-63.48 53.44M1356.2 951.488c-7.01 12.953-12.24 30.05-20.29 40.223-1.73-9.07.4-14.65-.83-23.33-1.13-7.27-7.09-4.25-8.3-.83-3.48 9.84-7.17 21.99-10.35 32.08-5.29 16.8-6.98 31.68-6.98 31.68l41.24.05s1.59-.39 2.32-4.4c1.97-10.39 1.48-20.54 4.33-32.58 3.66-15.51 8.37-29.67 14.07-44.13 4.96-12.73 11.35-25.57 16.55-38.21.7-1.66 1.04-4.86-.21-6.52-1.53-1.918-4.16-1.68-5.67 0-11.81 13.43-16.57 28.64-25.88 45.968M1420.04 922.012c-7.01 14.95-16.88 31.758-16.02 48.718 4.56-5.992 6.44-10.28 12.72-13.62 2.87-.91 8.89-.06 7.38 4.96-2.77 9.34-7.08 17.25-11.06 30.07-5.92 18.95-11.67 39.2-11.67 39.2l-42.1.02s2.33-17.08 11.9-43.29c8.41-23.21 21.4-49.77 35.62-74.672 11.59-20.476 22.11-38.347 35.25-53.308 4.5-5.15 15.54-.63 10.76 6.07-12.47 17.64-24.11 37.168-32.78 55.852M1693.4 2344.89c-9.14-3.98-17.21-9.13-21.77-17.91-3.32-6.3-5.56-15.92.79-21.34 11.12-9.48 24.38.23 29.75 9.92 6.79 12.35 5.02 35.96 5.02 35.96s-7.89-4.11-13.79-6.63" fill="#000000"></path><path d="M1703.06 2285.95c3.99 7.54 12.74 15.68 22.33 21.51 10.84 6.63 22.07 13.06 29.88 17.72 7.81 4.7 9.3 7.99 9.3 7.99s-6.44-2.22-9.96-4.29c-19.28-11.5-40.31-24.56-48.87-28.33-10.8-4.71-25.47-5.62-38.7-7.31-2.11 16.69-6.44 23.62-6.39 38.44.11 7.12 1.83 16.34 3.04 22.77 4.14 21.43 4.95 32.25 4.95 32.25s-3.27-3.05-4.46-12.49c-1.35-8.51-2.3-11.66-4.26-21.73-2.22-11.62-4.55-21.47-11.5-28.73-10.02-10.36-19.3-28.82-11.56-42.96 4.51-8.26 12.04-7.06 14.4-9.19 2.35-2.12 3.79-7.21 10.92-9.57 15.39-5.14 32.83 8.67 40.88 23.92" fill="#000000"></path><path d="M1683.11 2241.88c5.22 8.48 10.58 14.43 18.81 19.48 13.67 8.33 23.8 13.97 32.13 18.24 3.62 1.81 6.63 3.97 7.55 7.83-3.73-1.4-17.83-8.03-31.83-16.36-10.03-5.98-27.27-13.46-38.85-13.99-4.59-.2-7.99.93-11.74 1.04-7.77.33-17.67-1.55-17.67-1.55s-2.51 10.98-5.83 18.89c-1.66 4.06-4.35 8.22-5.8 15.83-.97 5.08-1.26 12.71-.86 17.25 1.14 13.73 4.84 27.07 4.2 40.97-8.63-17.93-5.1-40.01-15.23-53.88-4.28-5.83-7.66-10.43-11.02-17.78-5.56-12.06-4.9-24.55 2.62-36.18 4.34-6.62 13.91-6.38 15.56-7.67 2.51-1.85 4.65-8.78 14.01-10.86 16.02-3.6 34.9 3.82 43.95 18.74M1687.58 1891.3c3.73 7.52 6.13 17.42 10.89 24.4-10.76-1.61-12.49-2.84-28.04-4.54-3.39-.33-10.4-3.85-12.72-6.16-6.15-6.2-11.52-11.96-9.13-22.38.92-4.05 4.5-7.03 6.49-7.65 12.93-4.2 26.05 3.49 32.51 16.33" fill="#000000"></path><path d="M1700.7 1870.77c14.69 3.43 31.66 10.64 38.48 8.37-13.79-7.34-31.17-9.99-46.45-14.35-11.65-3.36-19.97-12.16-30.37-20.15-9.55-7.27-22.24-10.22-33.59-4.88-3.83 1.82-7.54 7.99-8.2 11.28-.6 2.64-6.08 5.26-8.89 7.58-2.83 2.36-4.2 8.25-4.26 10.53-.49 20.33 14.98 28.54 29.89 40.49 11.23 8.99 25.81 47.16 34.7 55.07-1.58-12.3-17.58-35.51-24.55-53.57-5.53-14.4-3.71-25.9-7.28-41.05 10.66-.69 22.54-2.91 33.28-3.09 8.42-.11 18.59 1.72 27.24 3.77" fill="#000000"></path><path d="M1685.22 1839.42c-8.25-1.53-18.34-4.13-25.23-5.59-23.95-5.07-35.4 6.66-54.52 6.44 1.68 21.91-5.93 31.71.33 45.87 5.59 12.6 10.76 25.94 15.56 36.62 3.89 8.56 5.07 15.79 5.07 15.79s-5.8-8.69-22.32-40.86c-5.74-11.22-16.02-13.63-25.15-24.23-10.51-12.12-16.54-37.75 2.9-48.51 3.86-2.11 3.3-8.78 6.11-11.47 12.98-12.2 39.19-10.98 55.58 3.9 13.05 11.89 28.91 13.82 42.43 17.32 7.9 2.04 14.83 5.41 14.83 5.41s-3.75 1.52-15.59-.69M1205.22 1585.17c-.94 0-1.96 0 0 0zm-111.88 315.55c-7.99-10.56-11.69-22.7-20.5-31.92-4.61-4.83-11.63-2.57-15.27 2.99-4.04 6.28-10.59 15.19-5.72 21.4 8 10.26 24.74 16.81 39 14.96.84-.1 5.43-3.49 2.49-7.43zm-38.35-60.39c-4.46-11.96-17.79-13.25-29.13-15.62-2.12-.47-8.64 0-11.57 2.87-4.91 4.79-9.14 11.34-8.29 19.54.46 5.06 4.67 10.02 9.9 12.03 9.46 3.67 20.69 9.57 30.03 4.33 8.03-4.49 12.23-14.72 9.06-23.15zm-24.54-63.21c-3.27-4.72-11.65 10.93-12.74 18.11-3.13 20.77 15.07 26.07 30.25 25.42.47-12.38-9.14-31.56-17.51-43.53zm-16.39-56.04c-2.98-8.36-4.4-16.03-7.72-23.69-3.22-7.4-16.977-10.04-24.61-7.67-10.89 3.37-20.238 27.83-7.85 37.2 9.472 7.08 19.296 8.22 31.36 9.7 2.17.26 10.28-.23 10.59-.99 2.02-5.08.74-7.62-1.77-14.55zm-18.33-64.59c-2.207-6.42-3.18-13.03-6.023-19.2-1.414-3.12-3.29 1-3.36 1.19-4.285 10.65-6.984 19.66-3.327 29.03 2.058 5.19 9.16 9.96 15.898 10.38-.41-6.67-.89-14.9-3.188-21.4zM974.07 1625c-4.922 2.22-4.84 8.55-6.902 12.49-1.94 3.83-6.133 9.12-4.402 14.16 9.492-5.33 13.894-14.83 11.304-26.65zm-16.382 39.31c-11.333 9.32-12.305 24.21-19.868 35.62 8.34 5.33 22.395 4.26 26.723-6.29 3.453-8.48 5.953-20.94-2.64-27.41-.934-.69-3.14-2.81-4.215-1.92zm-42.25 76.85c-1.7 2.42-5.055 9.43-2.5 10.32 20.292 6.98 35.507 7.21 39.843-14.48 3.072-15.49-7.514-28.78-22.342-23.36-4.24 1.56-8.458 18.06-15 27.52zm-29.493 48.99c-1.425 1.79-2.578 7.18-.8 8.57 10.546 8.47 26.027 9.12 38.007 7.95 15.825-1.45 19.067-16.14 16.426-28.32-3.473-16.04-27.8-18.03-34.683-15.37-6.782 2.6-11.497 17.94-18.95 27.17zm3.442 57.03c13.672 8.86 39.785 15.43 44.136-8.56 1.332-7.23-.476-16.83-10.242-19.97-10.026-3.21-21.842-6.69-31.007-2.97-11.277 4.62-13.496 24.65-2.886 31.5zm-14.16 40.37c1.035 4.59 6.128 6.77 10.418 7.86 11.066 2.74 23.425 6.86 33.585.4 3.954-2.51 4.254-6.06 4.774-11.03.898-8.07-.242-14.66-5.56-17.74-10.776-6.32-21.733-6.9-34.256-4.43-10.157 2.01-10.997 15.46-8.96 24.94zm-11.332-62.21c-9.47 6.99-13.66 16.89-20.64 26.71-1.685 2.4 0 3.39 1.288 3.76 16.812 4.75 29.273-3.63 26.656-21.96-.47-3.55-2.77-11.85-7.305-8.51zm-46.383 56.6c-6.313 5.45-1.926 14.92 3.562 17.68 9.61 4.77 24.707 5.49 34.696 2.12 6.437-2.16 9.69-11.39 8.54-21.46-.494-4.13-1.744-8.67-3.775-10.02-7.605-5.19-19.383-5.39-28.64-3.47-6.55 1.39-8.887 10.35-14.383 15.15zm-7.27 57.25c6.098 13.26 28.305 13.36 40.41 7.46 9.844-4.85 11.094-23.19.332-30.42-8.59-5.71-22.117-3.62-31.226-1.94-12.934 2.37-13.965 15.09-9.516 24.9zm.488 49.61c9.243 8.77 21.196 4.74 32.305 3.21 2.16-.31 4.73-1.82 6.184-3.27 7.59-7.67 8.19-20.24-.267-26.53-9.742-7.24-21.922-2.53-33.64-1.95-3.165.14-6.653 3.85-7.375 6.23-2.11 7.42-3.376 16.49 2.792 22.31zm5.958 41.5c9.796 4.08 26.632 5.96 33.578-5.04 4.254-6.74 3.015-19.22-3.82-21.03-6.688-1.72-29.466-5.51-34.915 7.07-2.69 6.2-1.55 16.17 5.158 19zm30.16 35.24c2.832-1.25 4.605-3.52 5.27-7 1.398-7.56-.587-15.75-7.833-17.08-10.894-1.98-27.066-2.6-27.012 12.78.04 17.17 16.965 16.98 29.575 11.3zm-21.914 31.93c5.79 2.21 15.332 1.72 20.527-.99 2.626-1.37 6.15-5.67 4.67-10.22-1.85-5.93-7.364-8.07-13.638-8.15-6.012-.06-12.918.43-15.347 5.34-2.305 4.66-1.333 12.04 3.79 14.02zm6.754 25.74c5.304 1.93 13.136 1.8 16.996-2.38 5.293-5.79 1.113-15-8.887-14.54-3.527.14-7.695 1.35-9.824 2.57-5.176 2.93-3.457 12.5 1.715 14.35zm23.82 16.59c.676 2.24 4.16 4.84 5.984 5.49 3.97 1.41 8.625 1.71 12.426.19 7.598-3.13 6.562-12.53-1.563-15.82-3.632-1.49-9.21-2.44-11.957-1.49-5.105 1.74-6.52 6.17-4.89 11.63zm23.68-36.76c-8.29-2.43-19.84-2.9-22.325 5.6-4.195 14.42 14.004 16.58 23.45 13.56 6.51-2.08 8.82-16.31-1.125-19.16zm5.492 47.62c2.632 8.94 12.754 13.79 21.93 11.07 7.894-2.32 9.706-13.07 4.374-18.3-2.398-2.35-6.406-4.73-10.703-5.68-9.374-2.1-18.592 3.08-15.6 12.91zm41.25-32.78c-1.49-5.84-5.762-9.84-12.618-11.37-6.796-1.49-16.21-1.91-19.984 2.29-3.594 3.98-5.254 9.59-2.242 13.88 6.016 8.56 17.04 11.55 26.863 9.38 5.605-1.31 9.726-7.05 7.98-14.18zm-3.657 34.3c3.657 8.1 12.954 12.19 21.875 9.47 1.79-.57 5.47-3.45 5.98-6.29 1.056-5.65-.898-10.79-5.608-13.74-6.036-3.84-11.012-6.01-17.95-3.17-5.203 2.18-6.472 8.94-4.297 13.73zm38.442-22.78c4.07-6.9-2.13-13.83-5.285-15.73-6.985-4.09-16.844-6.6-21.043.32-4.145 6.8-.727 14.87 6.504 17.85 6.89 2.86 14.032 7.2 19.825-2.44zm11.582-26.36c4.566-3.77 8.57-11.7 3.1-17.97-5.13-5.91-11.518-7.68-19.585-8.98-5.468-.93-12.445 3.11-13.324 7.93-.816 4.15-1.582 11.73 2.54 15.21 8.03 6.83 18.78 10.79 27.27 3.81zm9.668 44.98c4.312-1.28 7.066-5.84 4.91-10.23-1.316-2.7-5.187-5.65-7.645-7.16-6.77-4.16-12.582-2.46-14.687 2.52-3.906 9.14 9.195 17.29 17.422 14.87zm16.504-22.8c4.75-.42 6.93-3.73 7.87-7.36 1.23-4.87-.37-9.38-4.49-12.14-4.885-3.25-10.983-5.17-15.866-5.24-6.59-.12-12.69 9.56-9.12 15.84 3.78 6.74 13.304 9.63 21.605 8.9zm27.28-34.89c2.81-8.27-3.26-12.14-9.66-15.54-6.5-3.47-15.22-6.71-19.735-2.39-5.77 5.44-8.335 14.58-1.914 20.59 8.93 8.37 25.41 14.65 31.31-2.66zm11.78-20.77c10.46-1.33 12.54-16.2 10.43-21.58-2.4-4.62-7.67-8.24-10.43-9.65-7.68-3.97-16.64-5.46-23.69-1.81-6.43 3.33-9.22 13.09-5.72 20.73 4.72 10.34 19.62 13.6 29.41 12.31zm21.52-46.04c3.58-5 2.8-13.88.67-16.66-6.6-9.01-24.96-14.16-32.54-10.47-5.75 2.81-11.43 15.5-4.69 23.11 7 7.9 19.22 12.62 30.3 10.3 2.47-.55 4.09-3.27 6.26-6.28zm4.63-28.37c5.04-.54 9.51-6.08 11.95-12.11 3.16-7.8-.03-16.89-2.53-18.59-6.02-4.09-25.08-15.57-37.09-8.69-6.6 3.79-8.42 12.44-8.83 17.55-1.32 16.5 23.73 23.27 36.5 21.84zm-70.387-118.09c-2.563 6.55-4.94 16.24.203 20.21 10.394 8.21 33.894 15.38 42.834 2.98 5.81-8.05 4.11-21.7-6.07-26.92-10.5-5.37-31.04-11.54-36.967 3.73zm-50.41-.72c10.43 5.3 25.457 11.7 36.687 4.47 5.137-3.3 10.442-16.97 6.817-23.03-7.703-12.87-27.957-16.15-40.852-12.83-10.957 2.84-14.265 25.53-2.652 31.39zm-9.375 44.49c12.578 8.85 37.437 14.57 43.418-4.77 1.558-5.02 2.437-10.57-.117-14.62-6.974-11.21-24.67-14.17-36.505-12.49-12.793 1.86-18.852 23.43-6.797 31.88zm-10.598 45.08c12.09 6.85 37.86 15.95 43.926-3.68 2.434-8.03 2.18-17.94-4.695-21.48-9.843-5.18-25.452-10.59-36.808-3.51-9.48 6-10.762 23.9-2.422 28.67zm67.676 81.03c-5.066-4.53-10.203-5.5-16.94-7.79-9.435-3.2-19.322 4.08-20.404 13.1-1.816 15.45 14.754 17.76 25.71 19.69 7.99 1.45 12.935-5.73 14.407-10.56 1.503-4.64 1.308-10.86-2.774-14.44zm20.304-36.38c-7.19-10.71-36.156-17.45-42.55-6.43-4.668 8.07-7.57 19.39 1.203 24.8 9.22 5.67 20.137 9.05 30.857 7.12 10.08-1.78 15.22-18.37 10.49-25.49zm15.45-66.33c4.12-6.56 7.01-15.37.88-23.52-5.55-7.45-25.37-10.94-35.51-8.48-5.565 1.41-8.202 8.17-9.054 12.73-1.18 6.17-1.726 12.38 3.73 17.41 7.852 7.2 18.334 7.04 28.404 7.04 4.15 0 10-2.68 11.55-5.18zm-5.76 22.26c-6.18-11.34-27.084-12.79-36.486-11.54-6.62.88-11.29 11.56-11.098 20.5.07 4.6 1.508 7.64 4.65 9.32 10.44 5.61 21.13 9.36 32.364 7.54 10.96-1.74 15.22-17.22 10.57-25.82zm-110.072 24.42c-7.102 21.89 20.222 28.79 36.18 25.41 11.093-2.31 14.804-23.65 4.472-30.39-12.78-8.31-35.47-10.99-40.652 4.98zm-41.21-53.73c8.19 8.45 22.975 8.98 34.51 7.43 7.083-.99 10.145-8.15 11.126-15.92 2.76-21.38-25.942-24.97-39.59-19.97-9.004 3.28-13.696 20.57-6.047 28.46zm-5.775 41.42c8.555 10.08 22.872 12.46 34.73 9.21 7.243-1.97 10.587-10.43 10.43-19.91-.136-5.38-3.828-9.28-7.152-10.65-8.417-3.41-18.163-5.96-27.358-4.84-11.352 1.39-18.227 17.27-10.65 26.19zm1.348 45.11c10.528 4.29 30.157 8.13 33.458-6.9 4.453-20.02-19.168-23.29-31.797-19.8-9.667 2.65-11.503 22.72-1.66 26.7zm75.735 33.09c7.872-4.47 9.524-17.09 4.74-24.39-6.368-9.67-28.15-15.27-39.85-6.82-6.68 4.86-10.28 24.73 3.4 29.5 10.94 3.82 21.425 7.53 31.71 1.71zm-11.164 14.38c-8.92-5.52-21.647-7.72-30.092-3.02-7.344 4.02-7.05 14.75-3.418 20.52 5.984 9.62 20.855 10.66 31.132 7.64 8.868-2.56 12.184-19.04 2.38-25.14zm-72.272 15.68c.906 2.86 2.18 3.68 3.953 4.55 7.5 3.58 15.743 4.54 22.935-.07 5.175-3.36 4.722-11.1.886-15.12-5.616-5.9-17.042-6.15-24.366-2.31-4.722 2.47-4.937 8.29-3.406 12.95zm2.394-31.34c3.32 9.48 15.157 8.95 24.11 7.79 11.023-1.44 13.23-15.56 9.308-21.51-5.414-8.19-17.753-6.62-27.582-5.37-7.988 1.02-8.464 11.61-5.836 19.09zm155.508-285.2c2.71-10.72 0-20.9-9.53-24.32-12.247-4.31-28.81-10.64-38.6-4.04-11.21 7.51-16.596 28.81-3.725 37.16 15.19 9.94 45.445 16.45 51.855-8.8zm-16.508 33.3c-8.23-9.36-21.66-9.05-34.85-12.91-5.09-1.49-11.134 3.01-13.778 7.67-4.883 8.7-9.766 20.36-.422 28.77 7.734 7.05 18.28 6.45 27.754 9.28 4.25 1.28 9.464 2.77 14.62-.72 10.684-7.29 14.844-22.91 6.676-32.09zm87.308 140.14c2.32-6.8 5.45-11.8 2.79-18.58-3.14-8.33-11.21-9.47-18.79-12.2-7.07-2.57-18.86-5.8-24.78.39-6.8 7.04-9.55 21.39-1.41 27.54 10.57 7.87 36.6 18.71 42.19 2.85zm143.29 61.19c6.23 25.39 13.97 51.13 15.9 77.96 2.84 40.07-5.8 81.73-31.51 112.08 2.53-13.09 5.88-24.14 7.64-37.88 2.09-16.59-.25-35.07-4.53-51.77-3.24-12.64-8.94-24.93-14.59-36.67-6.67-13.92-16.63-29.03-26.55-41.45-27.81-34.58-71.14-102.08-71.14-102.08s-3.63.27-5.78.27c-.51 8.41 19.44 37.22 29.5 53.35 22.1 35.35 38.82 54.37 58.04 85.03 12.04 19.32 21.23 42.84 24.19 64.16 5.99 43.43-17.43 95.48-51.1 112.79 7.69-32.44 6.89-78.17-10.37-97.39-32.7-36.43-52.13-63.69-75.46-110.4-.67-1.25-6.12 6.29-10.64 9.23-5.06 3.36-2.22 13.37-4.04 20.11-1.64 5.73-4.34 10.15-5.14 11.16-6.91 8.45-13.59 8.98-15.04 11.52-1.67 2.86-.87 10-6.89 18.13-3.01 4.1-10.68 7.12-13.8 10.97-3.37 4.2-4.9 17.05-14.21 22.32-4.42 2.49-6.484 10.19-10.718 13.97-13.086 11.59-26.152 9.35-28.652 10.08-3.364.9-9.946 9.27-21.64 11.29-11.43 1.94-17.728-5.69-23.665-2.93-14.895 6.89-29.153 7.46-44.98-10.18-4.755-5.25-12.962-.34-23.215-8.18-9-6.86-9.16-13.2-13.75-14.06-8.614-1.62-15.028-8.5-18.348-16.02-1.73-3.89-3.02-11.7-4.024-16.88-1.418-7.12-5.007-13.69-5.086-18.92-.082-7.28 2.223-11.21 1.583-14.47-1.067-4.71-4.883-9.03-5.352-13.44-.344-2.5-.55-9.16 1.27-12.91 2.285-4.62-1.614-8.63-3.633-13.56-1.938-4.59-3.977-12.42-3.364-17.95.825-7.59 5.176-10.37 1.797-16.35-5.547-9.72-12.54-24.88-.27-44.25 2.255-3.54-5.14-10.43-5.546-20.54-.473-11 6.172-19.13 7.984-24 .333-1.75-2.925-1.65-3.046-3.53-29.214 30.9-55.054 59.39-88.94 86.21-20.704 16.37-41.177 30.13-64.122 42.41-61.29 32.87-132.484 54.86-196.992 46.83 24.297-19.57 54.937-33.52 79.898-55.72 23.637-21.06 45.078-39.05 66.62-61.41 33.79-35.11 61.25-70.7 89.864-112.01 8.5-12.23 14.094-20.41 22.012-33.16 7.98-12.77 16.836-26.32 24.106-38.97 36.62-63.57 66.62-122.44 96.98-187.59 8.43-18.01 15.496-36.87 23.762-54.78 2.207-4.86 5.37-1.25 7.613 0 10.98 6.35 22.64 11.66 34.043 17.04 9.106 4.18 17.387 7.06 25.512 10.18 20.547 7.83 40.04 12.08 61.55 16.55 35.91 7.52 100.44 5.97 100.44 5.97l122.33.04h3.34c-1.28 35.07-9.61 69.15-11.64 104.33-1.54 28.49-.59 56.03.41 84.59 2.74 77.34 14.11 160.39 31.39 230.88M395.137 2295.16c-23.875-23.8-30.99-32.57-44.91-58.88-8.207-15.47-18.618-35.33-21.582-60.93 49.058 18.68 89.082 56.78 125.234 98.87 26.757 31.2 47.507 72.6 73.886 103.42-46.465-15.58-95.5-45.52-132.63-82.48" fill="#000000"></path><path d="M254.72 2228.25c18.483 31.24 44.975 65.01 72.436 88.05-12.722-28.57-28.386-56.87-33.765-90.66-10.687-67.27-20.753-114.39-31.913-175.79 30.503 21.76 62.683 55.95 95.04 79.81 24.987 18.38 50.038 30.64 75.75 48.3 15.284 10.55 25.233 24.09 37.936 36.77-15.137-63.84-71.148-128.27-111.265-158.31-50.39-37.78-68.45-43.81-149.418-126.14-10.29 101.66-8.458 207.33 45.2 297.97" fill="#000000"></path><path d="M89.523 1890.59c3.766 52.8 10.094 95.02 22.926 146.53 8.988 35.96 28.34 89.5 56.25 111.46-3.42-13.04-5.216-32.6-6.544-45.8-5.468-54.39 4.953-117.56 6.196-171.89.625-26.73.386-47.32-3.618-72.43-4.136-26.32-.68-58.61-.68-58.61s14.415 16.47 27.3 36.99c28.15 44.71 37.154 57.97 59.83 82.19 28.14 30.05 59.605 57.87 95.132 82.52-4.296-16.7-22.43-49.16-29.92-62.21-10.01-17.46-14.548-33.32-38.22-72.85-33.313-55.55-48.15-63.05-85.14-122.45-8.01-12.92-40.848-62.06-48.806-77.08-17.328 35.86-23.87 67.19-45.12 125.57-13.356 36.67-11.356 73.36-9.587 98.06" fill="#000000"></path><path d="M38.094 1615.92C17.996 1668 8.8 1716.31 1.992 1771.15c-4.16 33.54-2.226 78.27 9.746 110.51 3.133-7.86 9.543-27.86 10.418-30.85 8.91-29.96 12.63-44.35 25.078-73.25 9.524-22.16 21.172-39.83 33.633-61.73 11.332-19.99 20.88-46.31 29.082-66.45 26.366-64.57 28.32-125.02 38.417-131.62 7.246 15.54 9.53 30.42 10.332 37.75 7.855 71.45 17.257 136.39 107.23 220.6 8.258-25.07 4.082-71.28-.88-96.03-10.765-54.12-19.452-80.11-43.28-132.56-12.598-27.62-29.426-68.27-34.036-81.73-12.082-35.06-16.218-53.46-23.82-74.19-42.476 70.78-94.762 143.87-125.82 224.32" fill="#000000"></path><path d="M108.113 1290.31c-30.23 42.1-41.258 63.25-60.937 108.07-16.532 37.59-21.285 51.53-30.965 93.63-5.284 22.95-8.272 43.77-4.17 57.34 23.675-42.87 39.847-90.85 70.812-126.41 24.59-28.21 48.27-52.23 67.824-76.04 29.988-36.58 53.6-71.21 82.383-109.3 2.42 19.09 3.354 38.43-.92 69.71-5.863 42.86-2.245 78 5.23 119.49 9.493 52.66 16.446 78.72 34.708 131.99 22.356-43.83 22.27-94.54 27.87-141.03 10.84-90.2-17.382-197.76-22.928-242.6-1.485-11.81.558-40.96 1.156-52.32-42.2 33.23-79.746 66.79-116.137 103.29-16.59 16.54-39.352 43.95-53.927 64.18" fill="#000000"></path><path d="M268.098 959.53c-19.21 13.84-70.84 53.3-95.286 84.35-35.593 45.21-43.437 64.58-66.92 116.59-2.872 6.34-16.173 35.78-17.247 55.78 76.93-92.91 145.82-106.74 219.214-183.84 26.937-28.24 54.523-54.832 69.08-68.16 11.173-10.28 25.04-13.39 25.04-13.39s-1.445 19.8-8.687 33.58c-48.97 93.59-58.203 191.44-50.78 296.45 22.35-27.67 29.4-46.15 43.592-72.91 15.426-29.15 23.29-47.17 30.504-65.11 41.898-104.29 52.792-224.75 78.695-285.37-79.922 26.922-142.856 41.31-227.207 102.03" fill="#000000"></path><path d="M595.828 713.43c-21.617-1.45-64.004-1.32-86.59 2.36C394.844 734.1 288.508 817 235.028 908.06c48.495-29.59 83.558-49.34 126.21-64.11 37.98-13.122 74.004-17.01 137.414-35.02 38.262-10.81 76.145-26.12 89.453-31.102 42.415-15.797 60.286-11.918 60.286-11.918s0 6.45-15.85 23.73c-31.57 34.462-43.138 42.7-69.122 69.188-8.523 8.75-28.074 38.48-37.996 58.25-28.067 55.883-31.192 100.672-56.828 162.062 93.554-54.94 139.133-130.75 188.586-226.32 15.215-29.27 35.78-63.082 54.566-81.66 12.64-12.47 30.45-31.422 30.45-31.422s-13.048-3.066-53.673-9.066c-18.218-2.672-57.046-14.762-92.695-17.242M1049.31 706.18c49.39-8.078 93.28-20.078 138.19-35.49 12.07-4.15 30.44-13.28 43.16-19.73 31.84-16.198 50.16-26.722 77.52-45.53 44.07-30.352 91.41-63.05 134.12-112.668.91-.98 7.82-8.364 3.22-11.96-8.37-6.564-29-15.904-35.85-9.853-39.08 34.76-37.11 45.89-84.47 88.78-12.15 10.942-30.49 26.29-52.41 41.282-21.37 14.63-47.21 30.61-71.22 42.45-21.82 10.737-55.42 13.948-74.28 13.948l.26-.14c-8.58.332-57.84.61-69.25-.13-96.808-6.64-92.062-15.3-147.878-30.42-45.918-12.49-95.168-21.38-144.067-27.94-50.078-6.81-94.902-7.632-141.85-2.84-63.653 6.56-133.275 24.298-185.235 57.79 47.507-.8 96.296-9.93 143.562-6.308 19.895 1.527 52.156 4.527 74.016 11.27 43.418 13.328 68.32 18.527 114.304 31.347 39.512 10.99 79.344 14.8 120.606 19.15 57.097 6.11 109.992 4.732 157.552-3.01M1934.51 2295.16c23.88-23.8 31.03-32.57 44.94-58.88 8.21-15.47 18.62-35.33 21.59-60.93-49.1 18.68-89.08 56.78-125.27 98.87-26.77 31.2-47.49 72.6-73.87 103.42 46.48-15.58 95.5-45.52 132.61-82.48" fill="#000000"></path><path d="M2074.97 2228.25c-18.51 31.24-44.99 65.01-72.44 88.05 12.84-30.74 31.56-69.04 33.76-90.66 6.83-67.74 20.74-114.39 31.91-175.79-30.49 21.76-62.71 55.95-95.06 79.81-24.94 18.38-50.01 30.64-75.7 48.3-15.31 10.55-25.26 24.09-37.98 36.77 15.15-63.84 71.17-128.27 111.28-158.31 50.37-37.78 68.44-43.81 149.38-126.14 10.27 101.66 8.45 207.33-45.15 297.97" fill="#000000"></path><path d="M2240.16 1890.59c-3.81 52.8-10.08 95.02-22.93 146.53-8.99 35.96-28.34 89.5-56.29 111.46 3.45-13.04 5.22-32.6 6.56-45.8 5.52-54.39-4.88-117.56-6.17-171.89-.62-26.73-.39-47.32 3.58-72.43 4.15-26.32.72-58.61.72-58.61s-14.42 16.47-27.33 36.99c-28.09 44.71-37.11 57.97-59.84 82.19-28.11 30.05-59.6 57.87-95.14 82.52 4.34-16.7 22.46-49.16 29.96-62.21 10.05-17.46 14.53-33.32 38.22-72.85 33.3-55.55 48.15-63.05 85.1-122.45 8.01-12.92 40.9-62.06 48.85-77.08 17.34 35.86 23.86 67.19 45.12 125.57 13.39 36.67 11.38 73.36 9.59 98.06" fill="#000000"></path><path d="M2291.58 1615.92c20.08 52.08 29.27 100.39 36.12 155.23 4.16 33.54 2.19 78.27-9.75 110.51-3.15-7.86-9.53-27.86-10.42-30.85-8.94-29.96-12.64-44.35-25.06-73.25-9.53-22.16-21.24-39.83-33.66-61.73-11.33-19.99-20.88-46.31-29.12-66.45-26.34-64.57-28.29-125.02-38.38-131.62-7.29 15.54-9.54 30.42-10.33 37.75-7.85 71.45-17.27 136.39-107.23 220.6-8.28-25.07-4.08-71.28.84-96.03 10.8-54.12 19.53-80.11 43.32-132.56 12.6-27.62 29.42-68.27 34.06-81.73 12.01-35.06 16.17-53.46 23.83-74.19 42.44 70.78 94.73 143.87 125.78 224.32" fill="#000000"></path><path d="M2221.56 1290.31c30.28 42.1 41.26 63.25 60.94 108.07 16.52 37.59 21.26 51.53 30.98 93.63 5.29 22.95 8.26 43.77 4.14 57.34-23.62-42.87-39.87-90.85-70.83-126.41-24.54-28.21-48.24-52.23-67.79-76.04-29.96-36.58-53.64-71.21-82.38-109.3-2.4 19.09-3.38 38.43.88 69.71 5.9 42.86 2.29 78-5.2 119.49-9.49 52.66-16.44 78.72-34.7 131.99-22.33-43.83-22.27-94.54-27.88-141.03-10.86-90.2 17.43-197.76 22.98-242.6 1.44-11.81-.6-40.96-1.2-52.32 42.2 33.23 79.75 66.79 116.14 103.29 16.59 16.54 39.29 43.95 53.92 64.18" fill="#000000"></path><path d="M2061.59 959.53c19.19 13.84 70.83 53.3 95.27 84.35 35.6 45.21 43.45 64.58 66.93 116.59 2.83 6.34 16.17 35.78 17.25 55.78-76.94-92.91-145.83-106.74-219.23-183.84-26.93-28.24-54.49-54.832-69.06-68.16-11.17-10.28-25.04-13.39-25.04-13.39s1.43 19.8 8.66 33.58c48.98 93.59 58.23 191.44 50.76 296.45-22.28-27.67-29.38-46.15-43.55-72.91-15.4-29.15-23.29-47.17-30.47-65.11-41.94-104.29-52.89-224.75-78.76-285.37 79.97 26.922 142.88 41.31 227.24 102.03" fill="#000000"></path><path d="M1733.85 713.43c21.66-1.45 64-1.32 86.62 2.36C1934.86 734.1 2041.16 817 2094.66 908.06c-48.55-29.59-83.61-49.34-126.22-64.11-38.01-13.122-74.01-17.01-137.39-35.02-38.3-10.81-76.17-26.12-89.49-31.102-42.41-15.797-60.27-11.918-60.27-11.918s0 6.45 15.84 23.73c31.58 34.462 43.16 42.7 69.1 69.188 8.56 8.75 28.11 38.48 38.02 58.25 28.07 55.883 31.2 100.672 56.86 162.062-93.55-54.94-139.22-130.75-188.65-226.32-15.17-29.27-35.74-63.082-54.51-81.66-12.62-12.47-30.47-31.422-30.47-31.422s13.05-3.066 53.7-9.066c18.2-2.672 57-14.762 92.67-17.242M1280.37 706.18c-49.38-8.078-93.23-20.078-138.18-35.49-12.12-4.15-30.46-13.28-43.18-19.73-31.83-16.198-50.11-26.722-77.51-45.53-44.105-30.352-91.37-63.05-134.13-112.668-.917-.98-7.85-8.364-3.222-11.96 8.403-6.564 29.028-15.904 35.825-9.853 39.097 34.76 37.105 45.89 84.517 88.78 12.1 10.942 30.44 26.29 52.39 41.282 21.42 14.63 47.19 30.61 71.22 42.45 21.79 10.737 55.45 13.948 74.28 13.948l-.27-.14c8.59.332 57.83.61 69.27-.13 96.82-6.64 92.06-15.3 147.85-30.42 45.94-12.49 95.18-21.38 144.08-27.94 50.06-6.81 94.91-7.632 141.86-2.84 63.66 6.56 133.26 24.298 185.2 57.79-47.48-.8-96.24-9.93-143.55-6.308-19.91 1.527-52.13 4.527-73.99 11.27-43.42 13.328-68.35 18.527-114.29 31.347-39.53 10.99-79.36 14.8-120.6 19.15-57.13 6.11-110.01 4.732-157.57-3.01M1103.64 2834.64l-86.95-322.87h-92.315l-57.742 210.33-56.445-210.33h-92.09l-86.953 322.87h86.914l49.53-222.26 59.578 222.26h83.06l56.518-222.26 52.014 222.26h84.88M1390.51 2772.2h-148.54v-60.08h137.7v-62.44h-137.7v-137.91h-82.82v322.87h231.36v-62.44M1628.38 2730.88c0 9.08-2.46 16.9-7.36 23.46-4.93 6.57-10.63 11.14-17.13 13.74-8.68 3.46-17.13 5.37-25.37 5.74-8.25.35-19.24.54-32.97.54h-14.31v-96.5h23.85c14.17 0 25.84.87 35.03 2.6 9.18 1.73 16.87 5.2 23.08 10.39 5.35 4.6 9.22 10.13 11.6 16.55 2.39 6.41 3.58 14.24 3.58 23.48zm86.09 1.85c0-14.46-2.54-28.59-7.59-42.4-5.06-13.81-12.29-25.41-21.68-34.79-12.88-12.74-27.22-22.34-43.05-28.85-15.82-6.51-35.53-9.76-59.08-9.76h-51.83v-105.16h-83.27v322.87h137.05c20.53 0 37.83-1.77 51.92-5.31 14.1-3.55 26.58-8.85 37.42-15.94 13-8.53 22.94-19.44 29.81-32.75 6.87-13.3 10.3-29.26 10.3-47.91M499.31 257.87L441.26 70.55H377.52l-38.172 126.27-37.7-126.27h-64.382L179.72 257.87h62.983l32.16-129.09 39.973 129.09h53.2l38-129.09 31.632 129.09h61.64M649.773 286.06h-4.492c-2.663.78-6.132 1.67-10.397 2.67-4.27.99-8.836 1.5-13.723 1.5-11.758 0-19.707-2.11-23.863-6.34-4.16-4.23-6.235-12.402-6.235-24.52v-1.5h46.196V217.17h-44.2V70.55h-60.214V217.17h-25.688v40.703h25.688v5.17c0 22.9 6.094 40.08 18.26 51.55 12.19 11.45 30.607 17.172 55.29 17.172 8.91 0 16.965-.3 24.192-.91 7.226-.614 13.625-1.422 19.187-2.422v-42.37M789.148 165.54c0 18.21-3.1 31.43-9.312 39.64-6.215 8.21-16.035 12.332-29.465 12.332-5.65 0-11.483-.87-17.472-2.59-5.996-1.71-11.7-4.184-17.144-7.402v-94.102c3.992-1.56 8.27-2.547 12.82-2.996 4.54-.442 9.03-.672 13.477-.672 15.872 0 27.684 4.64 35.45 13.91 7.766 9.27 11.648 23.23 11.648 41.88zm61.875 1.26c0-15.46-2.363-29.52-7.07-42.198-4.723-12.68-10.918-23.133-18.57-31.352-8-8.672-17.055-15.25-27.16-19.69-10.11-4.45-20.938-6.67-32.493-6.67-10.664 0-19.714 1.14-27.144 3.42-7.44 2.268-15.063 5.48-22.832 9.58V1.83h-60.22V257.87h60.22v-19.51c9.22 7.33 18.633 13.28 28.238 17.85 9.613 4.56 20.688 6.83 33.242 6.83 23.325 0 41.45-8.56 54.387-25.68 12.942-17.13 19.403-40.64 19.403-70.56M879.48 70.55h62.395v65.56H879.48zM1101.28 118.602c3.89 4.777 6.8 10.54 8.75 17.257 1.93 6.718 2.91 16.038 2.91 27.94 0 11-1 20.23-2.99 27.68-2.01 7.45-4.78 13.4-8.34 17.848-3.57 4.563-7.85 7.793-12.85 9.684-5 1.88-10.4 2.828-16.18 2.828-5.78 0-10.93-.78-15.43-2.328-4.5-1.55-8.82-4.68-12.92-9.352-3.67-4.32-6.59-10.27-8.77-17.84-2.17-7.558-3.24-17.07-3.24-28.52 0-10.24.93-19.11 2.83-26.61 1.89-7.51 4.67-13.53 8.34-18.1 3.55-4.328 7.81-7.488 12.76-9.5 4.94-2.012 10.59-3 16.93-3 5.45 0 10.65.91 15.6 2.75 4.94 1.832 9.14 4.91 12.6 9.262zm73.88 45.54c0-30.814-8.99-55.083-26.94-72.822-17.97-17.73-43.17-26.6-75.64-26.6s-57.69 8.87-75.646 26.6c-17.957 17.74-26.946 42.008-26.946 72.82 0 31.008 9.043 55.372 27.114 73.04 18.068 17.69 43.218 26.54 75.478 26.54 32.7 0 57.96-8.9 75.8-26.7 17.85-17.79 26.78-42.08 26.78-72.88M1336.89 200.66h-5.33c-2.56.89-6.66 1.56-12.32 2-5.66.442-10.37.668-14.14.668-8.55 0-16.09-.558-22.64-1.668-6.54-1.12-13.59-3-21.13-5.672V70.55h-60.22v187.32h60.22v-27.518c13.2 11.347 24.69 18.867 34.44 22.61 9.77 3.718 18.76 5.577 26.96 5.577 2.11 0 4.5-.06 7.17-.16 2.66-.118 4.99-.29 6.99-.51v-57.21M1475.76 129.61v84.902c-3.44 1.43-7.65 2.578-12.65 3.41-4.99.84-9.49 1.258-13.48 1.258-15.76 0-27.58-4.54-35.45-13.61-7.87-9.05-11.82-21.7-11.82-37.94 0-18 3.36-30.57 10.08-37.69 6.7-7.12 16.66-10.69 29.86-10.69 6 0 11.88.95 17.64 2.852 5.77 1.878 11.06 4.378 15.82 7.507zm60.22-37.54c0-17.558-2.5-32.36-7.51-44.36-5.01-12.02-12.01-21.41-21.03-28.19-9-6.91-19.86-11.88-32.6-14.93-12.73-3.06-27.11-4.59-43.12-4.59-13.01 0-25.82.78-38.44 2.34-12.63 1.55-23.55 3.45-32.78 5.66v46.88h7.33c7.33-2.892 16.26-5.528 26.82-7.92 10.55-2.39 19.98-3.59 28.31-3.59 11.1 0 20.13 1.028 27.07 3.08 6.94 2.062 12.24 4.98 15.9 8.76 3.45 3.57 5.95 8.118 7.49 13.67 1.56 5.57 2.34 12.24 2.34 20.018v3.512c-7.22-5.898-15.21-10.57-23.99-14.012-8.77-3.45-18.55-5.167-29.32-5.167-26.22 0-46.43 7.89-60.64 23.692-14.22 15.777-21.32 39.797-21.32 72.047 0 15.452 2.17 28.8 6.49 40.03 4.33 11.23 10.44 21.02 18.32 29.36 7.34 7.78 16.36 13.84 27.07 18.17 10.72 4.35 21.69 6.51 32.91 6.51 10.11 0 19.3-1.188 27.57-3.58 8.27-2.4 15.8-5.69 22.58-9.93l2.17 8.34h58.38V92.07M1751.25 330.102l-132.29-313.59h-51.19l131.74 313.59h51.74M1871.26 65.57c-16.28 0-31.15 1.942-44.61 5.81-13.46 3.882-25.17 9.858-35.14 17.94-9.86 8.09-17.5 18.282-22.93 30.578-5.43 12.293-8.14 26.692-8.14 43.192 0 17.39 2.91 32.398 8.73 45.03 5.82 12.63 13.93 23.09 24.34 31.4 10.07 7.86 21.7 13.62 34.89 17.27 13.17 3.67 26.85 5.49 41.03 5.49 12.74 0 24.49-1.39 35.23-4.15 10.74-2.77 20.76-6.38 30.07-10.798V196.32h-8.46c-2.32 2-5.12 4.32-8.39 6.98-3.26 2.66-7.26 5.26-12.02 7.81-4.53 2.43-9.51 4.45-14.93 6.058-5.41 1.613-11.72 2.422-18.91 2.422-15.94 0-28.18-5.07-36.75-15.21-8.57-10.142-12.86-23.9-12.86-41.29 0-17.942 4.4-31.56 13.2-40.87 8.78-9.298 21.26-13.95 37.41-13.95 7.52 0 14.29.86 20.31 2.582 6.04 1.707 11.04 3.726 15.02 6.058 3.76 2.21 7.07 4.54 9.96 6.97a179.74 179.74 0 0 1 7.96 7.15h8.46v-51c-9.42-4.44-19.25-7.952-29.49-10.56-10.25-2.6-21.58-3.9-33.98-3.9M2144.66 70.55h-59.97v92.54c0 7.53-.39 15.04-1.16 22.512-.79 7.476-2.11 12.988-3.99 16.54-2.23 4.096-5.46 7.077-9.73 8.967-4.25 1.878-10.21 2.82-17.85 2.82-5.43 0-10.93-.89-16.53-2.65-5.6-1.78-11.66-4.6-18.19-8.48V70.55h-59.98v186.58h59.98v-20.6c10.61 8.31 20.82 14.68 30.6 19.1 9.8 4.43 20.67 6.65 32.61 6.65 20.13 0 35.87-5.87 47.21-17.612 11.33-11.738 17-29.297 17-52.668V70.55M2934.76 1526.38h-100.05v-144.24h100.05zm50.94 47.27c54.83.81 98.21 2.66 130.12 5.52v-58.31c-31.91 2.86-75.29 4.7-130.12 5.52v-193.35c-25.78 2.46-61.69 3.69-107.72 3.69-46.04 0-77.44-1.23-94.22-3.69v193.35h-87.77v-262.7h251.04c51.55 0 90.43 1.42 116.62 4.29v-55.24c-31.91 2.46-70.39 3.68-115.39 3.68h-308.75c3.69 26.19 5.53 56.88 5.53 92.07v217.29c-29.87-.82-58.93-2.45-87.16-4.91v58.31c28.23-2.45 57.29-4.1 87.16-4.91 0 60.55-1.64 104.35-4.91 131.35 14.32-1.64 29.66-2.45 46.03-2.45l19.65.62c4.49 0 6.75-1.45 6.75-4.3 0-2.87-2.77-6.14-8.29-9.83-5.52-3.68-8.28-11.66-8.28-23.93v-92.07h87.77c0 92.07-2.26 146.08-6.75 162.04 14.32-1.64 29.66-2.45 46.03-2.45l20.88.6c6.53 0 9.81-1.64 9.81-4.9 0-3.28-3.17-6.25-9.51-8.9-6.35-2.67-9.51-8.5-9.51-17.49v-128.9h100.05c0 90.43-1.45 143.02-4.3 157.74 13.91-1.64 25.87-2.45 35.91-2.45 10.02 0 16.97.2 20.87.61 3.87.41 6.02.61 6.44.61 4.08 0 6.13-1.43 6.13-4.29 0-2.87-1.74-5.83-5.21-8.9-3.49-3.07-5.83-6.05-7.06-8.9-1.23-2.87-1.84-7.37-1.84-13.5v-120.92M3563.8 1507.97v66.29h-124.61v-66.29zm0 106.8v64.45h-124.61v-64.45zm-173.71-106.8v66.29h-122.15v-66.29zm0 106.8v64.45h-122.15v-64.45zm-20.87-147.31c-18.41-21.28-38.88-40.92-61.38-58.93 11.45-1.64 27.62-2.45 48.49-2.45 5.72 0 8.59-.72 8.59-2.15s-1.23-3.17-3.68-5.21c-5.32-4.1-9.21-24.15-11.66-60.16-2.46-36.01-14.23-66.4-35.29-91.15-21.09-24.75-53.71-46.34-97.9-64.76-10.24 21.7-23.54 37.66-39.91 47.88 57.29 16.37 92.99 35.6 107.11 57.7 14.12 22.1 21.38 61.58 21.79 118.47-27.83-22.51-70.38-47.27-127.67-74.28-9.82 17.19-21.89 31.09-36.21 41.74 64.24 20.05 123.16 51.15 176.77 93.3-37.64.82-71.81 0-102.5-2.45 2.04 29.04 3.07 69.66 3.07 121.83 0 52.18-1.03 97.7-3.07 136.57 37.64-2.05 108.33-3.06 212.07-3.06 103.73 0 166.44 1.01 188.13 3.06-2.05-38.46-3.07-84.19-3.07-137.18 0-53 1.02-93.4 3.07-121.22-30.7 1.63-68.96 2.45-114.78 2.45 37.23-38.47 98.82-61.59 184.75-69.36-11.46-16.79-20.05-37.44-25.78-61.99-39.28 9.81-78.77 27.62-118.46 53.4-3.28-4.1-4.91-15.35-4.91-33.76v-83.48c0-27.41 2.04-56.87 6.14-88.39h-62.61c3.68 30.7 5.52 60.16 5.52 88.39v59.54c0 29.87-1.84 54.83-5.52 74.89 14.73-2.47 28.43-3.9 41.13-4.3-29.47 22.09-51.98 43.78-67.52 65.06h-84.71M4165.93 1700.7l-55.24-25.17c-6.14 22.5-15.55 43.79-28.24 63.84l53.41 19.64c11.44-18.82 21.47-38.26 30.07-58.31zm46.03-222.19v59.53h-165.72v-59.53zm0 97.59v55.24h-165.72v-55.24zm-32.53-225.88c35.61 37.24 53.4 58.93 53.4 65.07 15.14-13.92 31.31-24.97 48.5-33.15 3.27-1.64 4.91-3.48 4.91-5.52 0-2.05-2.36-3.07-7.06-3.07-4.71 0-10.96-2.66-18.72-7.98-7.78-5.33-26.19-20.26-55.25-44.81 30.7-29.05 62-48.09 93.91-57.08-14.33-13.91-25.16-32.12-32.53-54.63-42.56 22.92-78.16 54.63-106.8 95.14-28.65 40.51-45.01 85.51-49.1 135.03h-64.45V1273.5c20.87 14.73 41.12 31.51 60.76 50.33l15.97-45.43-62.61-49.71c-18.02-14.32-31.31-27.62-39.9-39.89-8.19 13.91-21.28 27.21-39.28 39.89 6.95 5.74 11.86 12.27 14.73 19.65 2.86 7.36 4.3 22.29 4.3 44.8v326.54c0 20.04-.62 39.28-1.85 57.7 28.64-3.68 71.71-5.53 129.21-5.53 57.49 0 100.97 1.85 130.43 5.53-.82-11.47-1.22-30.69-1.22-57.7v-111.1c0-32.74.4-56.46 1.22-71.2-14.73 1.23-50.95 1.84-108.64 1.84 4.09-32.33 14.12-61.99 30.07-89zm-251.66 342.5c9.42-2.45 18.82-3.79 28.25-3.98 9.4-.22 16.57-.32 21.47-.32 4.91 0 7.37-.91 7.37-2.76 0-1.84-1.84-3.98-5.52-6.44-3.69-2.46-6.86-9.31-9.52-20.56-2.66-11.26-6.66-36.12-11.97-74.58-11.87 4.09-26.6 6.14-44.19 6.14 11.45 35.19 16.16 69.36 14.11 102.5zm62-303.21l-44.19-23.94c-12.28 30.69-26.2 56.67-41.74 77.95l34.99 21.49c15.96-22.1 32.93-47.27 50.94-75.5zm-169.41 198.25l-41.74-3.07c0 33.15-2.25 64.24-6.74 93.3l42.95 3.69c3.69-33.98 5.53-65.28 5.53-93.92zm20.87-79.18c-33.96 0-61.8-.82-83.48-2.45v45.42c29.06-2.05 59.33-3.07 90.84-3.07v113.56c0 41.74-1.22 69.14-3.68 82.24 13.51-2.05 26.59-3.06 39.29-3.06l15.96.6c6.13 0 9.21-1.33 9.21-3.98 0-2.67-2.06-5.64-6.15-8.9-6.55-5.32-9.81-13.31-9.81-23.94v-156.52c31.5 0 59.73 1.02 84.7 3.07v-45.42c-17.6 1.63-45.83 2.45-84.7 2.45v-213.6c0-37.65 1.63-70.37 4.9-98.21h-54.01c2.86 24.15 4.29 56.88 4.29 98.21v141.18c-19.63-52.79-43.57-102.31-71.81-148.55-6.14 16.78-16.78 33.76-31.92 50.95 41.33 43.78 73.45 100.45 96.37 170.02M4664.95 1596.35l-65.67-13.49c-2.06 16.36-6.97 32.12-14.74 47.25l65.67 14.74c6.15-22.1 11.06-38.27 14.74-48.5zm60.15-301.98c40.92 26.59 73.44 49.72 97.6 69.36 8.99-11.88 20.04-21.69 33.14-29.47 2.86-1.64 4.3-3.17 4.3-4.6 0-1.44-1.84-2.56-5.53-3.37-9.82-2.06-37.85-19.04-84.08-50.95 42.55-18.83 73.65-33.15 93.29-42.97l-31.92-41.74c-62.2 36.43-149.36 76.32-261.48 119.7l33.14 31.91c61.79-24.15 102.3-40.1 121.54-47.87zm27.01 104.95v50.95h-246.75v-50.95zm0 86.56v47.25h-246.75v-47.25zm-118.47 220.35c-39.69-49.51-83.88-93.51-132.58-131.97 33.55-1.64 76.42-2.46 128.6-2.46 52.17 0 99.73 1.02 142.7 3.07-65.48 42.15-111.71 85.94-138.72 131.36zm-174.93-163.89c-23.32-15.56-46.44-29.05-69.35-40.51-9.43 13.09-22.72 25.57-39.91 37.44 53.2 20.46 105.06 54.42 155.61 101.9 50.53 47.46 81.93 88.58 94.22 123.37 19.64-8.6 42.75-15.96 69.35-22.1 5.73-1.22 8.6-3.37 8.6-6.45 0-3.06-3.9-5.42-11.66-7.05 18.4-32.74 54.41-65.07 108.02-96.98 53.61-31.92 102.91-49.93 147.92-54.01-17.17-14.34-28.23-33.98-33.14-58.93-25.77 8.59-53.81 21.06-84.09 37.44-.82-6.96-1.22-19.64-1.22-38.06v-101.27c0-18.83 1.42-38.06 4.29-57.7-7.37 1.23-69.36 1.85-185.98 1.85h-116.01V1251.4c56.88 9.83 95.75 17.81 116.62 23.94-4.09-11.88-6.13-21.28-6.13-28.23 0-6.96.61-12.28 1.84-15.96l-76.73-15.96c-38.88-7.77-66.29-18.01-82.25-30.69-6.13 20.87-12.68 36.82-19.64 47.87 13.09 7.78 19.64 30.9 19.64 69.36v240.61M2974.03 920.22c58.11.4 105.78 2.25 143.02 5.53v-61.39c-47.87 3.27-95.55 4.91-143.02 4.91v-217.9c0-34.358 1.85-71.198 5.53-110.48h-68.13c3.68 37.65 5.52 74.48 5.52 110.48v218.52c-68.34-.41-123.17-2.26-164.5-5.53v61.39c42.15-3.28 96.98-5.13 164.5-5.53v93.92c0 43.78-2.25 75.08-6.74 93.9 10.22-2.05 20.03-3.47 29.46-4.29 9.4-.82 17.38-1.23 23.93-1.23l17.19.61c6.95 0 10.43-1.33 10.43-3.98 0-2.67-2.26-5.33-6.75-7.98-4.51-2.67-7.36-6.96-8.59-12.89-1.23-5.94-1.85-17.09-1.85-33.46zm-244.28 80.41l-55.25-31.92c-14.32 33.96-34.58 68.53-60.76 103.74l51.55 28.85c20.87-37.25 42.36-70.81 64.46-100.67zm56.46-310.58l-71.2-70.59c-17.6-16.78-36.01-39.48-55.23-68.14-14.34 20.47-28.66 37.25-42.97 50.34 7.36 8.59 12.67 17.578 15.95 27.012 3.28 9.398 4.92 21.88 4.92 37.437v199.48c-33.98 0-62-1.43-84.1-4.29v59.54c19.23-2.87 42.14-4.3 68.75-4.3 26.6 0 51.76 1.43 75.49 4.3-5.32-23.328-7.98-49.942-7.98-79.8V661.81c30.7 31.51 54.63 60.56 71.82 87.16 5.72-22.92 13.91-42.56 24.55-58.92M3910.82 1090.86c6.95-1.64 14.42-2.87 22.41-3.69 7.98-.82 14.82-1.23 20.55-1.23l15.96.62c5.31 0 7.98-.92 7.98-2.76 0-1.84-1.94-4.91-5.83-9.2-3.89-4.3-5.83-10.13-5.83-17.5V616.39c0-16.77-1.94-29.16-5.83-37.14-3.9-7.97-12.58-14.422-26.08-19.328-13.51-4.91-35.61-9.41-66.29-13.5-2.87 27-13.3 48.7-31.31 65.058 19.23-2.05 34.68-3.07 46.35-3.07 11.66 0 20.25 1.43 25.77 4.3 5.52 2.85 8.29 9.41 8.29 19.642V992.04c0 52.37-2.05 85.31-6.14 98.82zm-101.27-68.13c13.49-4.1 31.91-6.14 55.23-6.14 5.31 0 7.98-1.44 7.98-4.3 0-2.87-1.84-5.43-5.52-7.67-3.68-2.25-5.53-7.67-5.53-16.26V745.897c0-28.648 1.23-54.007 3.69-76.11h-54.63c2.46 23.732 3.68 49.103 3.68 76.11v208.704c0 29.046-1.63 51.748-4.9 68.128zm-68.14-20.26l-50.33-27.618c-13.11 27.408-29.68 52.368-49.72 74.878l47.87 23.94c17.19-28.23 34.58-51.97 52.18-71.2zm-109.87-245.52c38.88 41.33 65.47 80.61 79.79 117.85 19.64-14.74 35.19-23.53 46.65-26.402 4.92-1.218 7.37-2.86 7.37-4.91 0-2.047-1.44-4.09-4.3-6.13-8.18-5.32-19.02-18.53-32.53-39.588-13.51-21.08-38.67-50.442-75.5-88.09 20.46-31.91 36.93-55.54 49.42-70.88 12.47-15.35 21.78-23.02 27.93-23.02 6.13 0 10.63 5.11 13.49 15.34 2.86 10.22 4.71 26.4 5.53 48.5 11.04-21.292 27.41-35.21 49.1-41.74-6.13-27.01-12.68-47.27-19.64-60.77-6.96-13.508-15.76-20.258-26.39-20.258-23.73 0-45.83 10.238-66.29 30.7-20.47 20.436-42.36 50.327-65.68 89.596-39.28-38.867-78.16-69.57-116.62-92.07-11.46 18.012-28.04 31.512-49.71 40.524 44.59 13.5 92.47 45.617 143.62 96.367-19.64 46.23-32.94 97.792-39.89 154.67-29.88-5.742-57.5-12.69-82.87-20.87l-12.27 54.02c24.95 1.628 55.23 5.312 90.84 11.05-4.09 50.332-7.58 111.5-10.44 183.52 12.68-2.87 28.24-4.3 46.65-4.3l20.87.62c4.09 0 6.14-.92 6.14-2.76 0-1.85-2.46-5.63-7.37-11.36-7.36-9.42-11.05-28.64-11.05-57.7 0-29.06 1.02-62.4 3.07-100.05l97.6 16.58c29.46 4.5 55.86 10.84 79.18 19.02l11.04-52.172c-36.41-3.277-64.24-6.547-83.47-9.816l-100.66-17.192c5.31-49.51 14.11-92.27 26.39-128.28M4806.12 983.44v58.93h-87.16v-58.93zm-127.67 0v58.93h-82.86v-58.93zm96.37-338.202h-243.07V604.73h243.07zm-243.07 33.153h243.07v33.14h-243.07zm23.33 305.05v58.93h-85.93v-58.93zm302.6-39.28c-65.06 3.68-138.01 5.52-218.82 5.52-80.82 0-153.76-1.84-218.82-5.52 3.69 20.46 5.52 43.88 5.52 70.28s-1.83 49.2-5.52 68.44c56.06-3.68 129.41-5.53 220.05-5.53 90.63 0 163.17 1.85 217.59 5.53-4.09-17.19-6.13-40.41-6.13-69.67 0-29.26 2.04-52.28 6.13-69.05zm-231.41-155.3c-123.58-.82-208.28-2.66-254.11-5.508V830c58.93-4.11 133.2-6.148 222.82-6.148v44.2c-69.16 0-119.5-1.443-151-4.29v42.34c37.65-3.274 87.77-4.903 150.38-4.903 0 13.902-1.03 25.77-3.07 35.59 15.55-2.052 33.15-3.06 52.79-3.06 5.73 0 8.59-.832 8.59-2.46 0-1.64-2.05-3.48-6.13-5.52-4.1-2.87-6.55-11.06-7.37-24.55 42.55.402 74.67 2.038 96.36 4.902v-42.96c-28.64 2.846-60.76 4.487-96.36 4.91v-44.2h54.62c52.38 31.507 94.94 66.5 127.68 104.957 11.86-13.1 25.36-23.322 40.51-30.69 4.08-2.05 6.14-3.89 6.14-5.518 0-1.64-2.87-2.872-8.59-3.684-7.79-1.637-41.74-23.328-101.9-65.066 56.06.82 106.19 2.867 150.38 6.148v-46.648c-48.29 3.27-116 5.097-203.16 5.507-22.51-12.27-53-26.38-91.46-42.34h109.25c50.33 0 85.94 1.43 106.81 4.3-2.87-9.832-4.3-25.78-4.3-47.88v-87.78c0-27 1.43-50.53 4.3-70.582h-54.63v27.613h-243.07V544.58h-51.56c3.69 22.102 5.53 45.633 5.53 70.582v84.71c-32.33-10.65-65.06-20.25-98.21-28.85-5.32 15.55-13.5 30.69-24.56 45.42 39.69 4.49 79.59 11.87 119.7 22.1l-1.84 12.28c14.73-1.64 26.39-2.672 34.99-3.082 36.41 10.64 73.24 24.352 110.47 41.12" fill="#000000"></path></g></svg>