<svg width="835" height="455" viewBox="0 0 835 455" fill="none" xmlns="http://www.w3.org/2000/svg">
<path d="M834.7 135.1V134.8C834.703 131.582 834.071 128.395 832.84 125.421C831.61 122.447 829.806 119.746 827.53 117.47C825.254 115.194 822.553 113.39 819.579 112.16C816.605 110.929 813.418 110.297 810.2 110.3H640.2C636.982 110.303 633.795 109.671 630.821 108.44C627.847 107.21 625.146 105.406 622.87 103.13C620.594 100.854 618.79 98.1525 617.56 95.1789C616.329 92.2052 615.697 89.0181 615.7 85.8C615.697 82.5819 616.329 79.3948 617.56 76.4212C618.79 73.4475 620.594 70.7456 622.87 68.47C625.146 66.1945 627.847 64.3899 630.821 63.1596C633.795 61.9293 636.982 61.2974 640.2 61.3H715.8C719.018 61.3026 722.205 60.6707 725.179 59.4404C728.153 58.2101 730.854 56.4056 733.13 54.13C735.406 51.8544 737.21 49.1525 738.44 46.1789C739.671 43.2052 740.303 40.0181 740.3 36.8V36.5C740.303 33.2819 739.671 30.0948 738.44 27.1211C737.21 24.1475 735.406 21.4456 733.13 19.17C730.854 16.8945 728.153 15.0899 725.179 13.8596C722.205 12.6293 719.018 11.9974 715.8 12H170.6C167.382 11.9974 164.195 12.6293 161.221 13.8596C158.247 15.0899 155.546 16.8945 153.27 19.17C150.994 21.4456 149.19 24.1475 147.96 27.1211C146.729 30.0948 146.097 33.2819 146.1 36.5V36.8C146.097 40.0181 146.729 43.2052 147.96 46.1789C149.19 49.1525 150.994 51.8544 153.27 54.13C155.546 56.4056 158.247 58.2101 161.221 59.4404C164.195 60.6707 167.382 61.3026 170.6 61.3H278.3C281.518 61.2974 284.705 61.9293 287.679 63.1596C290.653 64.3899 293.354 66.1945 295.63 68.47C297.906 70.7456 299.71 73.4475 300.94 76.4212C302.171 79.3948 302.803 82.5819 302.8 85.8C302.803 89.0181 302.171 92.2052 300.94 95.1789C299.71 98.1525 297.906 100.854 295.63 103.13C293.354 105.406 290.653 107.21 287.679 108.44C284.705 109.671 281.518 110.303 278.3 110.3H24.5C21.2819 110.297 18.0948 110.929 15.1212 112.16C12.1475 113.39 9.44559 115.194 7.17003 117.47C4.89447 119.746 3.08991 122.447 1.8596 125.421C0.629294 128.395 -0.00262209 131.582 8.17737e-06 134.8V135.1C-0.00262209 138.318 0.629294 141.505 1.8596 144.479C3.08991 147.453 4.89447 150.154 7.17003 152.43C9.44559 154.706 12.1475 156.51 15.1212 157.74C18.0948 158.971 21.2819 159.603 24.5 159.6H193.5C196.718 159.597 199.905 160.229 202.879 161.46C205.853 162.69 208.554 164.494 210.83 166.77C213.106 169.046 214.91 171.747 216.14 174.721C217.371 177.695 218.003 180.882 218 184.1C218.003 187.318 217.371 190.505 216.14 193.479C214.91 196.453 213.106 199.154 210.83 201.43C208.554 203.706 205.853 205.51 202.879 206.74C199.905 207.971 196.718 208.603 193.5 208.6H91.9C88.6819 208.597 85.4948 209.229 82.5211 210.46C79.5475 211.69 76.8456 213.494 74.57 215.77C72.2945 218.046 70.4899 220.747 69.2596 223.721C68.0293 226.695 67.3974 229.882 67.4 233.1V233.4C67.3974 236.618 68.0293 239.805 69.2596 242.779C70.4899 245.753 72.2945 248.454 74.57 250.73C76.8456 253.006 79.5475 254.81 82.5211 256.04C85.4948 257.271 88.6819 257.903 91.9 257.9H252.1C255.318 257.897 258.505 258.529 261.479 259.76C264.453 260.99 267.154 262.794 269.43 265.07C271.706 267.346 273.51 270.047 274.74 273.021C275.971 275.995 276.603 279.182 276.6 282.4C276.603 285.618 275.971 288.805 274.74 291.779C273.51 294.753 271.706 297.454 269.43 299.73C267.154 302.006 264.453 303.81 261.479 305.04C258.505 306.271 255.318 306.903 252.1 306.9H145.8C142.582 306.897 139.395 307.529 136.421 308.76C133.447 309.99 130.746 311.794 128.47 314.07C126.194 316.346 124.39 319.047 123.16 322.021C121.929 324.995 121.297 328.182 121.3 331.4V331.7C121.291 334.922 121.918 338.115 123.145 341.094C124.373 344.074 126.176 346.781 128.452 349.062C130.729 351.343 133.433 353.152 136.41 354.386C139.387 355.619 142.578 356.253 145.8 356.25H280.8C284.018 356.247 287.205 356.879 290.179 358.11C293.153 359.34 295.854 361.144 298.13 363.42C300.406 365.696 302.21 368.397 303.44 371.371C304.671 374.345 305.303 377.532 305.3 380.75C305.303 383.968 304.671 387.155 303.44 390.129C302.21 393.103 300.406 395.804 298.13 398.08C295.854 400.356 293.153 402.16 290.179 403.39C287.205 404.621 284.018 405.253 280.8 405.25H47.7C44.4819 405.247 41.2948 405.879 38.3212 407.11C35.3475 408.34 32.6456 410.144 30.37 412.42C28.0945 414.696 26.2899 417.397 25.0596 420.371C23.8293 423.345 23.1974 426.532 23.2 429.75V430.05C23.1974 433.268 23.8293 436.455 25.0596 439.429C26.2899 442.402 28.0945 445.104 30.37 447.38C32.6456 449.656 35.3475 451.46 38.3212 452.69C41.2948 453.921 44.4819 454.553 47.7 454.55H718.9C722.118 454.553 725.305 453.921 728.279 452.69C731.253 451.46 733.954 449.656 736.23 447.38C738.506 445.104 740.31 442.402 741.54 439.429C742.771 436.455 743.403 433.268 743.4 430.05V429.75C743.403 426.532 742.771 423.345 741.54 420.371C740.31 417.397 738.506 414.696 736.23 412.42C733.954 410.144 731.253 408.34 728.279 407.11C725.305 405.879 722.118 405.247 718.9 405.25H617C613.782 405.253 610.595 404.621 607.621 403.39C604.647 402.16 601.946 400.356 599.67 398.08C597.394 395.804 595.59 393.103 594.36 390.129C593.129 387.155 592.497 383.968 592.5 380.75C592.497 377.532 593.129 374.345 594.36 371.371C595.59 368.397 597.394 365.696 599.67 363.42C601.946 361.144 604.647 359.34 607.621 358.11C610.595 356.879 613.782 356.247 617 356.25H740.6C743.818 356.253 747.005 355.621 749.979 354.39C752.953 353.16 755.654 351.356 757.93 349.08C760.206 346.804 762.01 344.103 763.24 341.129C764.471 338.155 765.103 334.968 765.1 331.75V331.15C765.103 327.932 764.471 324.745 763.24 321.771C762.01 318.797 760.206 316.096 757.93 313.82C755.654 311.544 752.953 309.74 749.979 308.51C747.005 307.279 743.818 306.647 740.6 306.65H664.3C661.082 306.653 657.895 306.021 654.921 304.79C651.947 303.56 649.246 301.756 646.97 299.48C644.694 297.204 642.89 294.503 641.66 291.529C640.429 288.555 639.797 285.368 639.8 282.15C639.797 278.932 640.429 275.745 641.66 272.771C642.89 269.797 644.694 267.096 646.97 264.82C649.246 262.544 651.947 260.74 654.921 259.51C657.895 258.279 661.082 257.647 664.3 257.65H710.8C714.018 257.653 717.205 257.021 720.179 255.79C723.153 254.56 725.854 252.756 728.13 250.48C730.406 248.204 732.21 245.503 733.44 242.529C734.671 239.555 735.303 236.368 735.3 233.15V232.85C735.303 229.632 734.671 226.445 733.44 223.471C732.21 220.497 730.406 217.796 728.13 215.52C725.854 213.244 723.153 211.44 720.179 210.21C717.205 208.979 714.018 208.347 710.8 208.35H593.3C590.082 208.353 586.895 207.721 583.921 206.49C580.947 205.26 578.246 203.456 575.97 201.18C573.694 198.904 571.89 196.203 570.66 193.229C569.429 190.255 568.797 187.068 568.8 183.85C568.797 180.632 569.429 177.445 570.66 174.471C571.89 171.497 573.694 168.796 575.97 166.52C578.246 164.244 580.947 162.44 583.921 161.21C586.895 159.979 590.082 159.347 593.3 159.35H810.2C813.415 159.417 816.61 158.838 819.597 157.646C822.583 156.454 825.299 154.675 827.585 152.413C829.87 150.151 831.677 147.453 832.9 144.479C834.122 141.505 834.734 138.315 834.7 135.1Z" fill="#C2DBEC"/>
<path d="M83.6002 12.25H66.3002C63.0689 12.2474 59.8689 12.8819 56.8831 14.1172C53.8973 15.3525 51.1844 17.1645 48.8995 19.4493C46.6147 21.7342 44.8027 24.4471 43.5674 27.4329C42.3321 30.4187 41.6976 33.6188 41.7002 36.85C41.6976 40.0813 42.3321 43.2813 43.5674 46.2671C44.8027 49.2529 46.6147 51.9659 48.8995 54.2507C51.1844 56.5355 53.8973 58.3475 56.8831 59.5828C59.8689 60.8181 63.0689 61.4526 66.3002 61.45H83.6002C86.8315 61.4526 90.0315 60.8181 93.0173 59.5828C96.0031 58.3475 98.7161 56.5355 101.001 54.2507C103.286 51.9659 105.098 49.2529 106.333 46.2671C107.568 43.2813 108.203 40.0813 108.2 36.85C108.187 30.3297 105.591 24.0803 100.98 19.4698C96.3699 14.8592 90.1205 12.2632 83.6002 12.25Z" fill="#C2DBEC"/>
<path d="M534.104 27.5354C414.331 21.6204 246.336 408.847 514.629 422.097C778.131 435.11 678.411 22.9164 534.104 27.5354Z" fill="#F6AA8A" stroke="#07074E" stroke-width="22"/>
<path d="M550.121 103.051C563.305 117.046 572.387 127.636 582.699 145.76M599.99 173.836C610.755 193.584 626.515 241.868 622.737 285.984" stroke="#07074E" stroke-width="22" stroke-linecap="round" stroke-linejoin="round"/>
<path d="M306.789 12.2689C177.25 12.2689 16.6206 439 306.789 439C591.775 439 462.236 -0.403471 306.789 12.2689Z" fill="#FAC695" stroke="#07074E" stroke-width="22"/>
<path d="M328.091 92.8906C343.06 107.288 353.423 118.23 365.513 137.234M385.664 166.604C398.33 187.336 417.905 238.59 416.178 286.389" stroke="#07074E" stroke-width="22" stroke-linecap="round" stroke-linejoin="round"/>
</svg>
