<svg width="715" height="778" viewBox="0 0 715 778" fill="none" xmlns="http://www.w3.org/2000/svg">
<path d="M531.34 770.69H10.2599C9.22632 770.687 8.23589 770.276 7.50507 769.545C6.77425 768.814 6.3625 767.823 6.35986 766.79V40.53C6.35986 39.4947 6.77045 38.5017 7.50156 37.7687C8.23266 37.0358 9.22459 36.6226 10.2599 36.62H531.34C532.375 36.6226 533.367 37.0358 534.098 37.7687C534.829 38.5017 535.24 39.4947 535.24 40.53V766.79C535.237 767.823 534.826 768.814 534.095 769.545C533.364 770.276 532.373 770.687 531.34 770.69Z" fill="#F2F6F7"/>
<path d="M531.34 777.04H10.26C7.53967 777.037 4.93155 775.956 3.008 774.032C1.08445 772.109 0.0026475 769.5 0 766.78V40.53C0.00264197 37.8088 1.08412 35.1996 3.00739 33.2745C4.93065 31.3493 7.53875 30.2653 10.26 30.26H531.34C534.061 30.2653 536.669 31.3493 538.593 33.2745C540.516 35.1996 541.597 37.8088 541.6 40.53V766.79C541.595 769.509 540.512 772.114 538.589 774.036C536.665 775.957 534.059 777.037 531.34 777.04ZM12.73 764.33H528.88V43.04H12.73V764.33Z" fill="#07074E"/>
<path d="M84.7 96.27C79.2153 96.27 73.9553 94.0912 70.0771 90.213C66.1988 86.3347 64.02 81.0747 64.02 75.59V27.04C64.0306 21.5623 66.2141 16.3125 70.0912 12.4429C73.9683 8.57327 79.2223 6.39998 84.7 6.39999C90.1778 6.39998 95.4318 8.57327 99.3089 12.4429C103.186 16.3125 105.369 21.5623 105.38 27.04V75.59C105.38 78.3057 104.845 80.9949 103.806 83.5039C102.767 86.0129 101.243 88.2926 99.323 90.213C97.4027 92.1333 95.1229 93.6566 92.6139 94.6958C90.1049 95.7351 87.4157 96.27 84.7 96.27Z" fill="#C2C4C6"/>
<path d="M208.77 96.27C206.054 96.27 203.365 95.7351 200.856 94.6958C198.347 93.6566 196.067 92.1333 194.147 90.213C192.227 88.2926 190.704 86.0129 189.664 83.5039C188.625 80.9949 188.09 78.3057 188.09 75.59V27.04C188.101 21.5623 190.284 16.3125 194.161 12.4429C198.038 8.57327 203.292 6.39998 208.77 6.39999C214.248 6.39998 219.502 8.57327 223.379 12.4429C227.256 16.3125 229.439 21.5623 229.45 27.04V75.59C229.45 78.3057 228.915 80.9949 227.876 83.5039C226.837 86.0129 225.313 88.2926 223.393 90.213C221.473 92.1333 219.193 93.6566 216.684 94.6958C214.175 95.7351 211.486 96.27 208.77 96.27Z" fill="#C2C4C6"/>
<path d="M332.84 96.27C327.355 96.27 322.095 94.0912 318.217 90.213C314.339 86.3347 312.16 81.0747 312.16 75.59V27.04C312.171 21.564 314.353 16.3157 318.228 12.4464C322.103 8.57709 327.354 6.40263 332.83 6.4C338.31 6.39734 343.566 8.56945 347.445 12.4393C351.325 16.3092 353.51 21.5605 353.52 27.04V75.59C353.521 78.3061 352.987 80.9958 351.949 83.5054C350.91 86.015 349.387 88.2953 347.466 90.2159C345.545 92.1365 343.265 93.6597 340.756 94.6985C338.246 95.7373 335.556 96.2713 332.84 96.27Z" fill="#C2C4C6"/>
<path d="M456.9 96.27C451.415 96.27 446.155 94.0912 442.277 90.213C438.399 86.3347 436.22 81.0747 436.22 75.59V27.04C436.231 21.5623 438.414 16.3125 442.291 12.4429C446.168 8.57327 451.422 6.39998 456.9 6.39999C462.378 6.39998 467.632 8.57327 471.509 12.4429C475.386 16.3125 477.569 21.5623 477.58 27.04V75.59C477.58 78.3057 477.045 80.9949 476.006 83.5039C474.967 86.0129 473.443 88.2926 471.523 90.213C469.603 92.1333 467.323 93.6566 464.814 94.6958C462.305 95.7351 459.616 96.27 456.9 96.27Z" fill="#C2C4C6"/>
<path d="M84.7 102.63C77.5448 102.612 70.688 99.7609 65.6285 94.7015C60.569 89.642 57.7184 82.7852 57.7 75.63V27.04C57.7 19.8685 60.5488 12.9908 65.6198 7.91983C70.6908 2.84885 77.5685 0 84.74 0C91.9114 0 98.7892 2.84885 103.86 7.91983C108.931 12.9908 111.78 19.8685 111.78 27.04V75.59C111.772 82.7659 108.915 89.6451 103.837 94.7155C98.7593 99.7859 91.8759 102.633 84.7 102.63ZM84.7 12.76C80.9123 12.7679 77.2816 14.274 74.6006 16.9494C71.9195 19.6249 70.4058 23.2524 70.39 27.04V75.59C70.3394 77.5017 70.6723 79.4042 71.369 81.1851C72.0657 82.9661 73.112 84.5895 74.4463 85.9595C75.7806 87.3295 77.3757 88.4184 79.1376 89.1618C80.8996 89.9053 82.7926 90.2884 84.705 90.2884C86.6173 90.2884 88.5103 89.9053 90.2723 89.1618C92.0342 88.4184 93.6294 87.3295 94.9636 85.9595C96.2979 84.5895 97.3442 82.9661 98.0409 81.1851C98.7376 79.4042 99.0705 77.5017 99.02 75.59V27.04C99.0041 23.2507 97.4891 19.6216 94.8058 16.9459C92.1226 14.2702 88.4893 12.7653 84.7 12.76Z" fill="#07074E"/>
<path d="M208.77 102.63C201.615 102.612 194.758 99.7609 189.699 94.7015C184.639 89.642 181.788 82.7852 181.77 75.63V27.04C181.77 19.8685 184.619 12.9908 189.69 7.91983C194.761 2.84885 201.639 0 208.81 0C215.981 0 222.859 2.84885 227.93 7.91983C233.001 12.9908 235.85 19.8685 235.85 27.04V75.59C235.842 82.7659 232.985 89.6451 227.907 94.7155C222.829 99.7859 215.946 102.633 208.77 102.63ZM208.77 12.76C204.981 12.7653 201.347 14.2702 198.664 16.9459C195.981 19.6216 194.466 23.2507 194.45 27.04V75.59C194.399 77.5017 194.732 79.4042 195.429 81.1851C196.126 82.9661 197.172 84.5895 198.506 85.9595C199.841 87.3295 201.436 88.4184 203.198 89.1618C204.96 89.9053 206.853 90.2884 208.765 90.2884C210.677 90.2884 212.57 89.9053 214.332 89.1618C216.094 88.4184 217.689 87.3295 219.024 85.9595C220.358 84.5895 221.404 82.9661 222.101 81.1851C222.798 79.4042 223.131 77.5017 223.08 75.59V27.04C223.064 23.2524 221.55 19.6249 218.869 16.9494C216.188 14.274 212.558 12.7679 208.77 12.76Z" fill="#07074E"/>
<path d="M332.84 102.63C325.685 102.612 318.828 99.7609 313.769 94.7015C308.709 89.642 305.859 82.7852 305.84 75.63V27.04C305.84 19.8685 308.689 12.9908 313.76 7.91983C318.831 2.84885 325.709 0 332.88 0C340.052 0 346.929 2.84885 352 7.91983C357.071 12.9908 359.92 19.8685 359.92 27.04V75.59C359.912 82.7659 357.055 89.6451 351.977 94.7155C346.899 99.7859 340.016 102.633 332.84 102.63ZM332.84 12.76C329.051 12.7653 325.417 14.2702 322.734 16.9459C320.051 19.6216 318.536 23.2507 318.52 27.04V75.59C318.47 77.5017 318.802 79.4042 319.499 81.1851C320.196 82.9661 321.242 84.5895 322.576 85.9595C323.911 87.3295 325.506 88.4184 327.268 89.1618C329.03 89.9053 330.923 90.2884 332.835 90.2884C334.747 90.2884 336.64 89.9053 338.402 89.1618C340.164 88.4184 341.759 87.3295 343.094 85.9595C344.428 84.5895 345.474 82.9661 346.171 81.1851C346.868 79.4042 347.201 77.5017 347.15 75.59V27.04C347.134 23.2524 345.621 19.6249 342.939 16.9494C340.258 14.274 336.628 12.7679 332.84 12.76Z" fill="#07074E"/>
<path d="M456.9 102.63C449.745 102.612 442.888 99.7609 437.828 94.7015C432.769 89.642 429.918 82.7852 429.9 75.63V27.04C429.9 19.8685 432.749 12.9908 437.82 7.91983C442.891 2.84885 449.768 0 456.94 0C464.111 0 470.989 2.84885 476.06 7.91983C481.131 12.9908 483.98 19.8685 483.98 27.04V75.59C483.972 82.7659 481.115 89.6451 476.037 94.7155C470.959 99.7859 464.076 102.633 456.9 102.63ZM456.9 12.76C453.112 12.7679 449.482 14.274 446.8 16.9494C444.119 19.6249 442.606 23.2524 442.59 27.04V75.59C442.539 77.5017 442.872 79.4042 443.569 81.1851C444.266 82.9661 445.312 84.5895 446.646 85.9595C447.981 87.3295 449.576 88.4184 451.338 89.1618C453.1 89.9053 454.993 90.2884 456.905 90.2884C458.817 90.2884 460.71 89.9053 462.472 89.1618C464.234 88.4184 465.829 87.3295 467.164 85.9595C468.498 84.5895 469.544 82.9661 470.241 81.1851C470.938 79.4042 471.27 77.5017 471.22 75.59V27.04C471.204 23.2507 469.689 19.6216 467.006 16.9459C464.323 14.2702 460.689 12.7653 456.9 12.76Z" fill="#07074E"/>
<path d="M468.03 177.39H200.81V190.11H468.03V177.39Z" fill="#07074E"/>
<path d="M130.86 177.39H73.5701V190.11H130.86V177.39Z" fill="#07074E"/>
<path d="M468.04 295.1H73.5701V307.82H468.04V295.1Z" fill="#07074E"/>
<path d="M468.04 412.8H334.43V425.52H468.04V412.8Z" fill="#07074E"/>
<path d="M289.36 412.8H73.5701V425.52H289.36V412.8Z" fill="#07074E"/>
<path d="M468.04 530.51H73.5701V543.23H468.04V530.51Z" fill="#07074E"/>
<path d="M468.04 648.21H208.77V660.93H468.04V648.21Z" fill="#07074E"/>
<path d="M157.87 648.21H73.5701V660.93H157.87V648.21Z" fill="#07074E"/>
<path d="M639.927 269.795L410.978 587.125L461.29 623.424L690.239 306.095L639.927 269.795Z" fill="#FFDA61"/>
<path d="M461.23 629.83C459.893 629.829 458.591 629.406 457.51 628.62L407.2 592.33C405.832 591.34 404.913 589.848 404.645 588.181C404.377 586.514 404.782 584.809 405.77 583.44L634.77 266.13C635.258 265.452 635.876 264.877 636.586 264.438C637.297 263.999 638.087 263.704 638.912 263.57C639.736 263.437 640.579 263.467 641.392 263.659C642.205 263.851 642.972 264.201 643.65 264.69L693.95 300.99C694.628 301.478 695.203 302.096 695.642 302.806C696.081 303.517 696.376 304.307 696.51 305.132C696.643 305.956 696.613 306.799 696.421 307.612C696.229 308.425 695.879 309.192 695.39 309.87L466.39 627.19C465.399 628.552 463.912 629.468 462.25 629.74C461.913 629.8 461.572 629.83 461.23 629.83ZM419.81 585.73L459.81 614.58L681.31 307.58L641.31 278.73L419.81 585.73Z" fill="#07074E"/>
<path d="M695.74 245.43C692.438 243.045 688.698 241.333 684.735 240.394C680.771 239.455 676.661 239.306 672.639 239.956C668.618 240.606 664.764 242.042 661.298 244.183C657.832 246.323 654.822 249.126 652.44 252.43L639.87 269.84L690.18 306.14L702.74 288.72C705.124 285.418 706.834 281.679 707.772 277.716C708.711 273.754 708.859 269.645 708.209 265.625C707.559 261.605 706.123 257.752 703.984 254.287C701.844 250.822 699.043 247.812 695.74 245.43Z" fill="#F087A9"/>
<path d="M690.18 312.51C688.845 312.508 687.544 312.089 686.46 311.31L636.15 275.04C635.472 274.552 634.897 273.934 634.458 273.223C634.019 272.512 633.725 271.722 633.592 270.897C633.459 270.072 633.49 269.229 633.684 268.416C633.878 267.603 634.23 266.836 634.72 266.16L647.28 248.74C650.152 244.759 653.779 241.383 657.956 238.804C662.132 236.225 666.776 234.494 671.622 233.711C676.467 232.927 681.42 233.105 686.197 234.236C690.973 235.367 695.48 237.427 699.46 240.3C707.492 246.106 712.891 254.861 714.473 264.644C716.056 274.427 713.692 284.438 707.9 292.48L695.34 309.9C694.354 311.268 692.865 312.188 691.2 312.46C690.862 312.501 690.521 312.518 690.18 312.51ZM648.76 268.41L688.76 297.26L697.59 285.04C701.407 279.734 702.964 273.131 701.92 266.679C700.876 260.226 697.316 254.452 692.02 250.62C686.715 246.801 680.111 245.242 673.658 246.286C667.205 247.331 661.43 250.892 657.6 256.19L648.76 268.41Z" fill="#07074E"/>
<path d="M461.23 623.46L410.93 587.17L401.93 651.29L461.23 623.46Z" fill="#F2F5F8"/>
<path d="M401.93 657.65C401.02 657.649 400.121 657.452 399.293 657.074C398.465 656.696 397.728 656.145 397.131 655.458C396.534 654.771 396.091 653.964 395.832 653.092C395.573 652.219 395.504 651.301 395.63 650.4L404.63 586.28C404.782 585.197 405.211 584.171 405.876 583.303C406.541 582.434 407.419 581.752 408.425 581.322C409.431 580.893 410.53 580.73 411.618 580.851C412.705 580.971 413.742 581.371 414.63 582.01L464.94 618.3C465.84 618.946 466.555 619.816 467.016 620.824C467.476 621.832 467.665 622.943 467.564 624.046C467.463 625.149 467.075 626.207 466.44 627.115C465.804 628.022 464.942 628.748 463.94 629.22L404.63 657.04C403.787 657.442 402.864 657.651 401.93 657.65ZM415.76 598.5L409.86 640.5L448.74 622.26L415.76 598.5Z" fill="#07074E"/>
<path d="M644.251 306.572L451.752 573.773L462.073 581.208L654.571 314.008L644.251 306.572Z" fill="#07074E"/>
</svg>
