<svg width="835" height="744" viewBox="0 0 835 744" fill="none" xmlns="http://www.w3.org/2000/svg">
<path d="M834.7 294.1V293.8C834.703 290.582 834.071 287.395 832.84 284.421C831.61 281.447 829.806 278.746 827.53 276.47C825.254 274.194 822.553 272.39 819.579 271.16C816.605 269.929 813.418 269.297 810.2 269.3H640.2C636.982 269.303 633.795 268.671 630.821 267.44C627.847 266.21 625.146 264.406 622.87 262.13C620.594 259.854 618.79 257.153 617.56 254.179C616.329 251.205 615.697 248.018 615.7 244.8C615.697 241.582 616.329 238.395 617.56 235.421C618.79 232.447 620.594 229.746 622.87 227.47C625.146 225.194 627.847 223.39 630.821 222.16C633.795 220.929 636.982 220.297 640.2 220.3H715.8C719.018 220.303 722.205 219.671 725.179 218.44C728.153 217.21 730.854 215.406 733.13 213.13C735.406 210.854 737.21 208.153 738.44 205.179C739.671 202.205 740.303 199.018 740.3 195.8V195.5C740.303 192.282 739.671 189.095 738.44 186.121C737.21 183.147 735.406 180.446 733.13 178.17C730.854 175.894 728.153 174.09 725.179 172.86C722.205 171.629 719.018 170.997 715.8 171H170.6C167.382 170.997 164.195 171.629 161.221 172.86C158.247 174.09 155.546 175.894 153.27 178.17C150.994 180.446 149.19 183.147 147.96 186.121C146.729 189.095 146.097 192.282 146.1 195.5V195.8C146.097 199.018 146.729 202.205 147.96 205.179C149.19 208.153 150.994 210.854 153.27 213.13C155.546 215.406 158.247 217.21 161.221 218.44C164.195 219.671 167.382 220.303 170.6 220.3H278.3C281.518 220.297 284.705 220.929 287.679 222.16C290.653 223.39 293.354 225.194 295.63 227.47C297.906 229.746 299.71 232.447 300.94 235.421C302.171 238.395 302.803 241.582 302.8 244.8C302.803 248.018 302.171 251.205 300.94 254.179C299.71 257.153 297.906 259.854 295.63 262.13C293.354 264.406 290.653 266.21 287.679 267.44C284.705 268.671 281.518 269.303 278.3 269.3H24.5C21.2819 269.297 18.0948 269.929 15.1212 271.16C12.1475 272.39 9.44559 274.194 7.17003 276.47C4.89447 278.746 3.08991 281.447 1.8596 284.421C0.629294 287.395 -0.00262209 290.582 8.17737e-06 293.8V294.1C-0.00262209 297.318 0.629294 300.505 1.8596 303.479C3.08991 306.453 4.89447 309.154 7.17003 311.43C9.44559 313.706 12.1475 315.51 15.1212 316.74C18.0948 317.971 21.2819 318.603 24.5 318.6H193.5C196.718 318.597 199.905 319.229 202.879 320.46C205.853 321.69 208.554 323.494 210.83 325.77C213.106 328.046 214.91 330.747 216.14 333.721C217.371 336.695 218.003 339.882 218 343.1C218.003 346.318 217.371 349.505 216.14 352.479C214.91 355.453 213.106 358.154 210.83 360.43C208.554 362.706 205.853 364.51 202.879 365.74C199.905 366.971 196.718 367.603 193.5 367.6H91.9C88.6819 367.597 85.4948 368.229 82.5211 369.46C79.5475 370.69 76.8456 372.494 74.57 374.77C72.2945 377.046 70.4899 379.747 69.2596 382.721C68.0293 385.695 67.3974 388.882 67.4 392.1V392.4C67.3974 395.618 68.0293 398.805 69.2596 401.779C70.4899 404.753 72.2945 407.454 74.57 409.73C76.8456 412.006 79.5475 413.81 82.5211 415.04C85.4948 416.271 88.6819 416.903 91.9 416.9H252.1C255.318 416.897 258.505 417.529 261.479 418.76C264.453 419.99 267.154 421.794 269.43 424.07C271.706 426.346 273.51 429.047 274.74 432.021C275.971 434.995 276.603 438.182 276.6 441.4C276.603 444.618 275.971 447.805 274.74 450.779C273.51 453.753 271.706 456.454 269.43 458.73C267.154 461.006 264.453 462.81 261.479 464.04C258.505 465.271 255.318 465.903 252.1 465.9H145.8C142.582 465.897 139.395 466.529 136.421 467.76C133.447 468.99 130.746 470.794 128.47 473.07C126.194 475.346 124.39 478.047 123.16 481.021C121.929 483.995 121.297 487.182 121.3 490.4V490.7C121.291 493.922 121.918 497.115 123.145 500.094C124.373 503.074 126.176 505.781 128.452 508.062C130.729 510.343 133.433 512.152 136.41 513.386C139.387 514.619 142.578 515.253 145.8 515.25H280.8C284.018 515.247 287.205 515.879 290.179 517.11C293.153 518.34 295.854 520.144 298.13 522.42C300.406 524.696 302.21 527.397 303.44 530.371C304.671 533.345 305.303 536.532 305.3 539.75C305.303 542.968 304.671 546.155 303.44 549.129C302.21 552.103 300.406 554.804 298.13 557.08C295.854 559.356 293.153 561.16 290.179 562.39C287.205 563.621 284.018 564.253 280.8 564.25H47.7C44.4819 564.247 41.2948 564.879 38.3212 566.11C35.3475 567.34 32.6456 569.144 30.37 571.42C28.0945 573.696 26.2899 576.397 25.0596 579.371C23.8293 582.345 23.1974 585.532 23.2 588.75V589.05C23.1974 592.268 23.8293 595.455 25.0596 598.429C26.2899 601.402 28.0945 604.104 30.37 606.38C32.6456 608.656 35.3475 610.46 38.3212 611.69C41.2948 612.921 44.4819 613.553 47.7 613.55H718.9C722.118 613.553 725.305 612.921 728.279 611.69C731.253 610.46 733.954 608.656 736.23 606.38C738.506 604.104 740.31 601.402 741.54 598.429C742.771 595.455 743.403 592.268 743.4 589.05V588.75C743.403 585.532 742.771 582.345 741.54 579.371C740.31 576.397 738.506 573.696 736.23 571.42C733.954 569.144 731.253 567.34 728.279 566.11C725.305 564.879 722.118 564.247 718.9 564.25H617C613.782 564.253 610.595 563.621 607.621 562.39C604.647 561.16 601.946 559.356 599.67 557.08C597.394 554.804 595.59 552.103 594.36 549.129C593.129 546.155 592.497 542.968 592.5 539.75C592.497 536.532 593.129 533.345 594.36 530.371C595.59 527.397 597.394 524.696 599.67 522.42C601.946 520.144 604.647 518.34 607.621 517.11C610.595 515.879 613.782 515.247 617 515.25H740.6C743.818 515.253 747.005 514.621 749.979 513.39C752.953 512.16 755.654 510.356 757.93 508.08C760.206 505.804 762.01 503.103 763.24 500.129C764.471 497.155 765.103 493.968 765.1 490.75V490.15C765.103 486.932 764.471 483.745 763.24 480.771C762.01 477.797 760.206 475.096 757.93 472.82C755.654 470.544 752.953 468.74 749.979 467.51C747.005 466.279 743.818 465.647 740.6 465.65H664.3C661.082 465.653 657.895 465.021 654.921 463.79C651.947 462.56 649.246 460.756 646.97 458.48C644.694 456.204 642.89 453.503 641.66 450.529C640.429 447.555 639.797 444.368 639.8 441.15C639.797 437.932 640.429 434.745 641.66 431.771C642.89 428.797 644.694 426.096 646.97 423.82C649.246 421.544 651.947 419.74 654.921 418.51C657.895 417.279 661.082 416.647 664.3 416.65H710.8C714.018 416.653 717.205 416.021 720.179 414.79C723.153 413.56 725.854 411.756 728.13 409.48C730.406 407.204 732.21 404.503 733.44 401.529C734.671 398.555 735.303 395.368 735.3 392.15V391.85C735.303 388.632 734.671 385.445 733.44 382.471C732.21 379.497 730.406 376.796 728.13 374.52C725.854 372.244 723.153 370.44 720.179 369.21C717.205 367.979 714.018 367.347 710.8 367.35H593.3C590.082 367.353 586.895 366.721 583.921 365.49C580.947 364.26 578.246 362.456 575.97 360.18C573.694 357.904 571.89 355.203 570.66 352.229C569.429 349.255 568.797 346.068 568.8 342.85C568.797 339.632 569.429 336.445 570.66 333.471C571.89 330.497 573.694 327.796 575.97 325.52C578.246 323.244 580.947 321.44 583.921 320.21C586.895 318.979 590.082 318.347 593.3 318.35H810.2C813.415 318.417 816.61 317.838 819.597 316.646C822.583 315.454 825.299 313.675 827.585 311.413C829.87 309.151 831.677 306.453 832.9 303.479C834.122 300.505 834.734 297.315 834.7 294.1Z" fill="#C2DBEC"/>
<path d="M83.6002 171.25H66.3002C63.0689 171.247 59.8689 171.882 56.8831 173.117C53.8973 174.353 51.1844 176.164 48.8995 178.449C46.6147 180.734 44.8027 183.447 43.5674 186.433C42.3321 189.419 41.6976 192.619 41.7002 195.85C41.6976 199.081 42.3321 202.281 43.5674 205.267C44.8027 208.253 46.6147 210.966 48.8995 213.251C51.1844 215.536 53.8973 217.347 56.8831 218.583C59.8689 219.818 63.0689 220.453 66.3002 220.45H83.6002C86.8315 220.453 90.0315 219.818 93.0173 218.583C96.0031 217.347 98.7161 215.536 101.001 213.251C103.286 210.966 105.098 208.253 106.333 205.267C107.568 202.281 108.203 199.081 108.2 195.85C108.187 189.33 105.591 183.08 100.98 178.47C96.3699 173.859 90.1205 171.263 83.6002 171.25Z" fill="#C2DBEC"/>
<rect x="269.04" y="513.043" width="295.98" height="213.327" fill="#007DBC"/>
<path fill-rule="evenodd" clip-rule="evenodd" d="M671.283 231.3C664.532 111.794 553.675 16.748 417.911 16.748C283.317 16.748 173.204 110.162 164.737 228.214C179.446 213.011 199.635 203.63 221.912 203.63C248.046 203.63 271.306 216.541 286.217 236.616C301.128 216.541 324.388 203.63 350.522 203.63C377.981 203.63 402.268 217.883 417.03 239.723C431.792 217.883 456.079 203.63 483.537 203.63C509.416 203.63 532.476 216.289 547.402 236.029C562.328 216.289 585.389 203.63 611.267 203.63C635.014 203.63 656.389 214.29 671.283 231.3Z" fill="white"/>
<rect x="372.104" y="513.043" width="89.8512" height="60.8246" fill="white"/>
<path d="M471.764 512.874C470.744 512.874 469.723 512.729 468.752 512.388C463.358 510.735 460.345 504.997 462.046 499.599L514.429 330.911C523.176 302.658 530.611 274.016 536.733 249.703C544.994 216.733 574.539 193.732 608.554 193.732C626.242 193.732 643.444 200.054 657.098 211.481C670.656 222.86 679.743 238.567 682.658 255.684C682.756 256.267 682.804 256.802 682.804 257.386C682.804 263.027 678.237 267.598 672.6 267.598C667.497 267.598 663.221 263.805 662.492 258.893C658.07 233.364 634.891 214.156 608.554 214.156C583.917 214.156 562.536 230.835 556.559 254.711C550.388 279.268 542.856 308.25 533.964 336.989L481.58 505.678C480.171 510.054 476.138 512.874 471.764 512.874Z" fill="#07074E"/>
<path d="M417 278.052C411.363 278.052 406.796 273.481 406.796 267.841C406.796 238.227 382.742 214.156 353.149 214.156C325.839 214.156 302.904 234.628 299.842 261.762C299.21 267.354 294.157 271.39 288.569 270.758C282.98 270.126 278.947 265.069 279.579 259.477C283.806 221.985 315.441 193.732 353.149 193.732C380.312 193.732 404.123 208.418 417 230.3C429.877 208.418 453.688 193.732 480.851 193.732C499.268 193.732 516.956 200.54 530.611 212.94C544.168 225.243 552.623 241.971 554.519 260.109C554.567 260.449 554.567 260.79 554.567 261.179C554.567 266.819 549.999 271.39 544.363 271.39C539.017 271.39 534.644 267.306 534.207 262.103C531.291 234.774 508.404 214.156 480.9 214.156C451.307 214.156 427.253 238.227 427.253 267.841C427.205 273.481 422.637 278.052 417 278.052Z" fill="#07074E"/>
<path d="M362.236 512.874C357.862 512.874 353.829 510.054 352.517 505.678L313.254 379.246C300.377 337.864 288.715 295.461 277.441 254.42L277.198 253.544C270.832 230.349 249.548 214.156 225.495 214.156C199.157 214.156 175.979 233.412 171.557 258.942C170.828 263.853 166.6 267.598 161.449 267.598C155.812 267.598 151.245 263.027 151.245 257.386C151.245 256.802 151.293 256.219 151.39 255.684C154.306 238.567 163.393 222.909 176.95 211.481C190.556 200.054 207.807 193.732 225.446 193.732C258.684 193.732 288.034 216.101 296.83 248.147L297.073 249.022C308.298 289.869 319.911 332.126 332.691 373.216L371.954 499.648C373.607 505.045 370.642 510.735 365.249 512.437C364.228 512.729 363.208 512.874 362.236 512.874Z" fill="#07074E"/>
<path d="M526.966 512.874C525.12 512.874 523.273 512.388 521.572 511.318C516.81 508.352 515.352 502.03 518.317 497.265L655.009 278.052C660.597 269.104 663.221 258.504 662.395 248.195C652.482 120.45 544.703 20.4235 417 20.4235C289.297 20.4235 181.518 120.45 171.556 248.195C170.73 258.504 173.403 269.104 178.942 278.052L315.635 497.265C318.599 502.03 317.141 508.352 312.379 511.318C307.617 514.284 301.3 512.825 298.336 508.06L161.643 288.847C153.771 276.253 150.078 261.227 151.196 246.59C156.395 179.533 186.28 117.387 235.359 71.5797C284.73 25.4322 349.261 0 417 0C484.739 0 549.27 25.4322 598.641 71.5797C647.671 117.387 677.556 179.581 682.804 246.59C683.922 261.227 680.229 276.204 672.357 288.847L535.664 508.06C533.721 511.172 530.368 512.874 526.966 512.874Z" fill="#07074E"/>
<path d="M417 512.875C411.363 512.875 406.795 508.304 406.795 502.663V267.841C406.795 262.2 411.363 257.629 417 257.629C422.637 257.629 427.205 262.2 427.205 267.841V502.663C427.205 508.304 422.637 512.875 417 512.875Z" fill="#07074E"/>
<path d="M565.889 743.999H268.111C262.474 743.999 257.906 739.428 257.906 733.787V502.661C257.906 497.02 262.474 492.449 268.111 492.449H565.889C571.526 492.449 576.094 497.02 576.094 502.661V733.787C576.094 739.428 571.526 743.999 565.889 743.999ZM278.315 723.576H555.685V512.873H278.315V723.576Z" fill="#07074E"/>
<path d="M458.838 576.013H375.161C369.524 576.013 364.957 571.442 364.957 565.801V502.661C364.957 497.02 369.524 492.449 375.161 492.449H458.838C464.475 492.449 469.043 497.02 469.043 502.661V565.801C469.043 571.442 464.475 576.013 458.838 576.013ZM385.366 555.589H448.634V512.873H385.366V555.589Z" fill="#07074E"/>
<path fill-rule="evenodd" clip-rule="evenodd" d="M485.941 651.552H490.91C495.558 651.552 499.037 650.631 501.349 648.788C503.66 646.946 504.814 644.269 504.811 640.757C504.811 637.207 503.844 634.587 501.91 632.897C499.971 631.201 496.946 630.347 492.813 630.347H485.941V651.552ZM520.095 640.216C520.095 647.902 517.696 653.778 512.9 657.845C508.103 661.912 501.278 663.942 492.423 663.935H485.941V689.331H470.818V617.943H493.582C502.246 617.943 508.831 619.81 513.337 623.544C517.842 627.278 520.095 632.835 520.095 640.216ZM434.606 689.346H419.764V617.943H460.635V630.347H434.642V648.768H458.805V661.124H434.606V689.346ZM392.384 689.346H375.167L365.508 651.839C365.161 650.506 364.553 647.747 363.683 643.563C362.813 639.378 362.318 636.57 362.197 635.141C361.999 636.9 361.51 639.725 360.731 643.615C360.19 646.391 359.589 649.167 358.927 651.943L349.315 689.346H332.16L313.965 617.943H328.843L337.967 656.919C339.557 664.116 340.711 670.351 341.429 675.626C341.621 673.773 342.068 670.894 342.77 667.011C343.472 663.128 344.127 660.089 344.745 657.949L355.142 617.943H369.433L379.83 657.949C380.28 659.736 380.849 662.471 381.535 666.153C382.221 669.834 382.741 672.992 383.094 675.626C383.412 673.08 383.937 669.9 384.654 666.127C385.222 663.038 385.874 659.969 386.609 656.919L395.675 617.943H410.553L392.384 689.346Z" fill="white"/>
</svg>
