<?xml version="1.0" standalone="no"?>
<!DOCTYPE svg PUBLIC "-//W3C//DTD SVG 1.1//EN" "http://www.w3.org/Graphics/SVG/1.1/DTD/svg11.dtd">
<svg xmlns="http://www.w3.org/2000/svg">
<defs >
<font id="Tajawal" horiz-adv-x="421" ><font-face
    font-family="Tajawal"
    units-per-em="1000"
    panose-1="0 0 5 0 0 0 0 0 0 0"
    ascent="643"
    descent="-357"
    alphabetic="0" />
<glyph unicode=" " glyph-name="space" horiz-adv-x="240" />
<glyph unicode="!" glyph-name="exclam" horiz-adv-x="216" d="M73 149V633H140V149H73ZM150 36Q150 35 150 34Q150 -9 109 -9Q66 -9 66 35Q68 76 109 76Q150 76 150 36Z" />
<glyph unicode="&quot;" glyph-name="quotedbl" horiz-adv-x="276" d="M70 485V618L120 645V512L70 485ZM155 485V618L206 645V512L155 485Z" />
<glyph unicode="#" glyph-name="numbersign" horiz-adv-x="497" d="M343 147L313 0H260L290 147H145L114 0H61L92 147H15V202H103L144 399H49V454H155L188 609H241L208 454H354L386 609H439L407 454H482V399H395L355 202H449V147H343ZM197 399L156 202H302L342 399H197Z" />
<glyph unicode="$" glyph-name="dollar" horiz-adv-x="532" d="M287 700V644Q368 640 440 593L407 548Q350 578 287 581V368Q383 330 423 284T464 166Q464 92 416 44T287 -11V-74H252V-11Q157 -8 68 51L100 96Q170 56 248 55H252V308Q156 342 114 383T72 485Q72
553 121 596T252 645V700H287ZM287 294V56Q387 71 387 168Q387 249 287 294ZM252 383V580Q151 570 151 488Q151 425 252 383Z" />
<glyph unicode="%" glyph-name="percent" horiz-adv-x="700" d="M178 0L469 565H527L236 0H178ZM278 412Q278 342 248 300T166 258Q112 258 81 299T50 411Q50 479 81 518T166 557Q215 557 246 517T278 412ZM230 410Q230 455 211 485T164 515Q135 515 116 486T97
410Q97 361 115 331T164 300Q193 300 211 331T230 410ZM650 156Q650 86 619 44T537 2Q483 2 453 42T422 155Q422 222 453 261T537 301Q587 301 618 261T650 156ZM601 154Q601 199 583 229T535 259Q506 259 488 230T469 154Q469 105 487 75T535 44Q564 44 582 74T601
154Z" />
<glyph unicode="&amp;" glyph-name="ampersand" horiz-adv-x="561" d="M417 329H489V290Q489 166 451 108L546 0H463L415 54Q358 -12 256 -12Q166 -12 109 45Q60 95 60 167Q60 219 87 267T161 344L148 359Q76 439 76 503Q76 566 120 605T235 645Q302 645 369 599L340
553Q287 581 234 581Q195 581 172 560T148 506Q148 454 219 373L403 163Q417 192 417 275V329ZM199 303Q173 285 155 250T137 181Q137 123 171 88T262 53Q329 53 369 105L199 303Z" />
<glyph unicode="&apos;" glyph-name="quotesingle" horiz-adv-x="190" d="M70 485V618L120 645V512L70 485Z" />
<glyph unicode="(" glyph-name="parenleft" horiz-adv-x="368" d="M232 645H292Q161 459 161 254Q161 38 292 -140H232Q172 -80 132 34T91 254Q91 359 131 470T232 645Z" />
<glyph unicode=")" glyph-name="parenright" horiz-adv-x="368" d="M74 645H134Q194 582 234 471T275 254Q275 119 216 -10Q177 -97 134 -140H74Q205 38 205 254Q205 459 74 645Z" />
<glyph unicode="*" glyph-name="asterisk" horiz-adv-x="332" d="M164 646L237 625L186 520L298 548L304 476L187 490L249 390L181 364L159 477L83 387L36 446L140 502L29 546L71 608L155 527L164 646Z" />
<glyph unicode="+" glyph-name="plus" horiz-adv-x="518" d="M228 200H42V255H228V454H290V255H476V200H290V0H228V200Z" />
<glyph unicode="," glyph-name="comma" horiz-adv-x="196" d="M65 -74Q103 -44 103 -11Q103 -7 101 1Q91 -6 83 -6Q68 -6 57 7T45 37Q45 56 57 68T89 81Q142 81 142 9Q142 -63 76 -98L65 -74Z" />
<glyph unicode="-" glyph-name="hyphen" horiz-adv-x="276" d="M251 212H25V267H251V212Z" />
<glyph unicode="." glyph-name="period" horiz-adv-x="264" d="M174 40Q174 39 174 38Q174 -5 133 -5Q90 -5 90 39Q92 80 133 80Q174 80 174 40Z" />
<glyph unicode="/" glyph-name="slash" horiz-adv-x="327" d="M354 633L38 -30H-25L292 633H354Z" />
<glyph unicode="0" glyph-name="zero" horiz-adv-x="552" d="M502 315Q502 158 433 68Q373 -12 275 -12Q162 -12 100 91Q48 179 48 315Q48 467 117 560Q179 645 275 645Q384 645 448 537Q502 446 502 315ZM274 581Q205 581 166 512T127 321Q127 191 169 119Q208
53 274 53Q343 53 383 124T423 321Q423 449 379 518Q340 581 274 581Z" />
<glyph unicode="1" glyph-name="one" horiz-adv-x="375" d="M268 633V0H194V554L67 482L30 535L194 633H268Z" />
<glyph unicode="2" glyph-name="two" horiz-adv-x="480" d="M50 0V66L227 260Q292 332 318 378T344 472Q344 521 311 551T222 581Q156 581 92 539L61 583Q144 646 239 646Q323 646 375 593Q423 545 423 472Q423 419 395 369T288 231L137 63H411V0H50Z" />
<glyph unicode="3" glyph-name="three" horiz-adv-x="496" d="M85 538L55 582Q126 645 225 645Q306 645 359 597Q408 552 408 482Q408 432 378 394T299 343Q362 328 398 285T434 181Q434 80 358 27Q302 -11 226 -11Q130 -11 47 55L79 98Q142 54 217 54Q279 54
317 89T355 182Q355 305 208 305H126V368H208Q264 368 296 397T329 477Q329 582 212 582Q151 582 85 538Z" />
<glyph unicode="4" glyph-name="four" horiz-adv-x="553" d="M35 198L319 633H397V198H513V135H397V0H324V135H35V198ZM109 198H324V531L109 198Z" />
<glyph unicode="5" glyph-name="five" horiz-adv-x="515" d="M410 570H168V392Q198 397 238 397Q339 397 398 341Q453 288 453 198Q453 99 382 38Q324 -12 244 -12Q139 -12 62 54L91 97Q154 54 228 54Q297 54 336 91T375 197Q375 264 333 301T216 338Q166 338
94 325V633H410V570Z" />
<glyph unicode="6" glyph-name="six" horiz-adv-x="523" d="M438 595L412 553Q359 581 297 581Q230 581 188 520T142 356Q196 412 271 412Q351 412 404 360Q462 304 462 203Q462 113 404 49Q350 -12 268 -12Q158 -12 104 93Q62 174 62 294Q62 464 132 560Q194
645 293 645Q375 645 438 595ZM138 287Q139 172 176 108Q210 51 267 51Q319 51 351 92T383 203Q383 275 350 314T258 353Q183 353 138 287Z" />
<glyph unicode="7" glyph-name="seven" horiz-adv-x="423" d="M42 570V633H388V565L144 0H66L314 570H42Z" />
<glyph unicode="8" glyph-name="eight" horiz-adv-x="536" d="M196 339Q83 382 83 481Q83 558 140 605Q191 647 269 647Q355 647 408 593Q455 546 455 479Q455 432 425 395T341 338Q402 319 437 275T472 172Q472 86 405 33Q347 -12 266 -12Q173 -12 114 46Q62
97 62 171Q62 231 99 277T196 339ZM268 363Q319 375 348 407T378 482Q378 527 348 555T269 583Q219 583 190 557T160 485Q160 395 268 363ZM266 314Q213 308 177 268T141 174Q141 120 176 86T266 51Q322 51 357 85T393 173Q393 228 357 268T266 314Z" />
<glyph unicode="9" glyph-name="nine" horiz-adv-x="523" d="M91 39L117 81Q170 53 232 53Q298 53 340 113T387 277Q333 221 258 221Q178 221 125 273Q67 329 67 430Q67 520 124 584Q179 645 261 645Q370 645 425 540Q467 459 467 339Q467 169 396 73Q335 -12
236 -12Q153 -12 91 39ZM391 347Q389 461 352 525Q318 583 262 583Q209 583 178 541T146 430Q146 358 178 319T271 280Q346 280 391 347Z" />
<glyph unicode=":" glyph-name="colon" horiz-adv-x="224" d="M174 280Q174 279 174 278Q174 235 133 235Q90 235 90 279Q92 320 133 320Q174 320 174 280ZM174 40Q174 39 174 38Q174 -5 133 -5Q90 -5 90 39Q92 80 133 80Q174 80 174 40Z" />
<glyph unicode=";" glyph-name="semicolon" horiz-adv-x="186" d="M65 -74Q102 -44 102 -11Q102 -7 101 1Q91 -6 83 -6Q67 -6 56 7T45 37Q45 56 57 68T89 81Q142 81 142 9Q142 -63 76 -98L65 -74ZM86 230Q42 233 42 276Q42 294 55 307T86 320Q105 320 118 308T132
276Q133 232 86 230Z" />
<glyph unicode="&lt;" glyph-name="less" horiz-adv-x="517" d="M466 416L88 240L466 48V-12L42 202V279L466 477V416Z" />
<glyph unicode="=" glyph-name="equal" horiz-adv-x="509" d="M467 272H42V327H467V272ZM467 127H42V182H467V127Z" />
<glyph unicode="&gt;" glyph-name="greater" horiz-adv-x="517" d="M430 240L52 416V477L476 278V201L52 -13V48L430 240Z" />
<glyph unicode="?" glyph-name="question" horiz-adv-x="386" d="M186 145H118V231Q118 271 129 290T180 343Q269 415 269 485Q269 531 242 558T168 585Q117 585 65 556L42 596Q109 645 187 645Q255 645 297 603T339 494Q339 399 256 330Q249 325 239 316Q204
287 195 271T186 219V145ZM152 -12Q131 -12 118 2T105 38Q105 57 118 71T152 85Q172 85 186 71T201 38Q201 16 187 2T152 -12Z" />
<glyph unicode="@" glyph-name="at" horiz-adv-x="698" d="M430 49Q400 -12 328 -12Q273 -12 239 27T204 130Q204 209 250 254Q287 291 340 291Q384 291 420 265L430 292H474V107Q474 35 523 35Q556 35 575 72T594 175Q594 300 508 366Q444 416 359 416Q243 416
172 337Q106 264 106 145Q106 -1 203 -74Q273 -127 369 -127Q383 -127 396 -126L410 -124V-172L397 -173Q383 -174 370 -174Q231 -174 139 -86Q48 1 48 142Q48 300 151 391Q236 466 359 466Q487 466 571 380Q650 299 650 175Q650 101 618 48Q582 -12 515 -12Q484
-12 461 5T430 49ZM416 218Q387 243 345 243Q266 243 266 139Q266 38 341 38Q416 38 416 142V218Z" />
<glyph unicode="A" glyph-name="A" horiz-adv-x="561" d="M242 633H319L546 0H470L419 148H144L92 0H15L242 633ZM280 550L164 210H397L280 550Z" />
<glyph unicode="B" glyph-name="B" horiz-adv-x="536" d="M90 1V633Q171 645 253 645Q368 645 423 590Q466 546 466 474Q466 424 436 387T355 338V337Q416 327 451 282T486 167Q486 76 415 29Q354 -12 253 -12Q179 -12 90 1ZM164 579V366H268Q322 366 355 393T389
467Q389 586 251 586Q198 586 164 579ZM164 304V54Q206 48 262 48Q407 48 407 168Q407 232 371 268T268 304H164Z" />
<glyph unicode="C" glyph-name="C" horiz-adv-x="556" d="M498 582L468 539Q401 581 331 581Q235 581 180 502Q129 430 129 310Q129 185 195 115Q251 54 339 54Q411 54 476 101L506 56Q428 -12 329 -12Q192 -12 114 94Q50 181 50 310Q50 454 128 552Q202 645 317
645Q419 645 498 582Z" />
<glyph unicode="D" glyph-name="D" horiz-adv-x="615" d="M90 1V633Q174 645 242 645Q404 645 490 547Q565 462 565 323Q565 154 472 66Q390 -12 247 -12Q176 -12 90 1ZM164 579V54Q201 48 247 48Q366 48 429 124Q486 194 486 319Q486 454 407 527Q343 586 244
586Q193 586 164 579Z" />
<glyph unicode="E" glyph-name="E" horiz-adv-x="526" d="M86 633H458V570H160V361H411V298H160V63H471V0H86V633Z" />
<glyph unicode="F" glyph-name="F" horiz-adv-x="513" d="M86 0V633H458V570H160V360H411V297H160V0H86Z" />
<glyph unicode="G" glyph-name="G" horiz-adv-x="594" d="M498 582L468 539Q400 581 328 581Q237 581 181 503Q129 430 129 311Q129 183 192 113Q246 53 332 53Q396 53 452 77V271H339V336H525V45Q430 -12 323 -12Q181 -12 107 102Q50 190 50 315Q50 455 128 552Q203
645 320 645Q420 645 498 582Z" />
<glyph unicode="H" glyph-name="H" horiz-adv-x="649" d="M164 0H90V633H164V361H485V633H559V0H485V298H164V0Z" />
<glyph unicode="I" glyph-name="I" horiz-adv-x="254" d="M164 633V0H90V633H164Z" />
<glyph unicode="J" glyph-name="J" horiz-adv-x="238" d="M148 633V-37Q148 -168 32 -168Q-26 -168 -85 -129L-59 -90Q-23 -110 12 -110Q74 -110 74 -30V633H148Z" />
<glyph unicode="K" glyph-name="K" horiz-adv-x="517" d="M90 0V633H163V354L397 633H486L234 335L496 0H401L163 313V314V0H90Z" />
<glyph unicode="L" glyph-name="L" horiz-adv-x="468" d="M90 0V633H164V63H413V0H90Z" />
<glyph unicode="M" glyph-name="M" horiz-adv-x="772" d="M164 526V0H90V633H182Q250 476 353 171Q374 107 386 75Q398 111 407 137Q519 466 592 633H682V0H608V527Q556 359 420 0H353Q234 292 164 526Z" />
<glyph unicode="N" glyph-name="N" horiz-adv-x="638" d="M164 0H90V633H157Q248 496 474 117V633H548V0H479Q425 81 259 350Q189 464 164 506V0Z" />
<glyph unicode="O" glyph-name="O" horiz-adv-x="644" d="M322 -12Q185 -12 109 101Q50 189 50 315Q50 461 128 555Q202 645 322 645Q459 645 535 531Q594 441 594 315Q594 169 516 76Q442 -12 322 -12ZM129 315Q129 189 184 118Q235 53 322 53Q422 53 473 137Q515
206 515 315Q515 441 460 513Q409 581 322 581Q223 581 171 494Q129 424 129 315Z" />
<glyph unicode="P" glyph-name="P" horiz-adv-x="518" d="M90 0V633Q179 645 244 645Q468 645 468 453Q468 356 405 304Q348 258 252 258Q209 258 164 264V0H90ZM164 579V324Q200 318 248 318Q390 318 390 453Q390 586 244 586Q198 586 164 579Z" />
<glyph unicode="Q" glyph-name="Q" horiz-adv-x="644" d="M450 20L573 -109H487L388 -3Q354 -12 322 -12Q185 -12 109 100Q50 189 50 315Q50 462 128 556Q203 645 322 645Q459 645 535 530Q594 440 594 315Q594 215 556 137T450 20ZM129 315Q129 188 184 118Q235
53 322 53Q422 53 473 136Q515 205 515 315Q515 441 460 513Q409 581 322 581Q223 581 171 494Q129 424 129 315Z" />
<glyph unicode="R" glyph-name="R" horiz-adv-x="521" d="M90 0V633Q179 645 244 645Q468 645 468 453Q468 322 356 277L483 0H408L291 259L290 260Q273 258 248 258Q209 258 164 264V0H90ZM164 579V324Q200 318 244 318Q390 318 390 453Q390 586 244 586Q198
586 164 579Z" />
<glyph unicode="S" glyph-name="S" horiz-adv-x="506" d="M51 52L83 97Q156 55 238 55Q301 55 337 84T373 168Q373 260 252 302Q149 337 103 380T57 485Q57 559 115 604Q168 645 254 645Q348 645 425 593L392 548Q330 581 259 581Q201 581 167 556T133 488Q133
421 237 382Q355 337 402 290T450 166Q450 79 383 29Q328 -12 249 -12Q150 -12 51 52Z" />
<glyph unicode="T" glyph-name="T" horiz-adv-x="526" d="M25 570V633H501V570H292V0H218V570H25Z" />
<glyph unicode="U" glyph-name="U" horiz-adv-x="632" d="M90 633H165V242Q165 53 316 53Q466 53 466 242V633H542V264Q542 -12 316 -12Q90 -12 90 264V633Z" />
<glyph unicode="V" glyph-name="V" horiz-adv-x="547" d="M95 633L274 108L451 633H531L303 0H243L15 633H95Z" />
<glyph unicode="W" glyph-name="W" horiz-adv-x="872" d="M395 633H477L623 108L777 633H857L658 0H590Q521 222 436 527Q351 223 283 0H216L15 633H95L250 108L395 633Z" />
<glyph unicode="X" glyph-name="X" horiz-adv-x="564" d="M541 633L333 329L549 0H463L288 278L100 0H15L247 328L49 633H134L293 386L456 633H541Z" />
<glyph unicode="Y" glyph-name="Y" horiz-adv-x="530" d="M15 633H93L265 313L437 633H515L302 248V0H229V248L15 633Z" />
<glyph unicode="Z" glyph-name="Z" horiz-adv-x="465" d="M433 566L111 63H440V0H25V60L354 570H34V633H433V566Z" />
<glyph unicode="[" glyph-name="bracketleft" horiz-adv-x="349" d="M277 -140H91V645H277V588H157V-82H277V-140Z" />
<glyph unicode="\" glyph-name="backslash" horiz-adv-x="327" d="M279 -30L-38 633H24L341 -30H279Z" />
<glyph unicode="]" glyph-name="bracketright" horiz-adv-x="349" d="M72 645H258V-140H72V-82H193V588H72V645Z" />
<glyph unicode="^" glyph-name="asciicircum" horiz-adv-x="407" d="M175 609H232L372 318H311L203 545L202 544L99 318H35L175 609Z" />
<glyph unicode="_" glyph-name="underscore" horiz-adv-x="394" d="M389 -85H5V-30H389V-85Z" />
<glyph unicode="`" glyph-name="grave" horiz-adv-x="177" d="M110 543L25 655H98L152 543H110Z" />
<glyph unicode="a" glyph-name="a" horiz-adv-x="487" d="M411 0H361L351 49Q290 -12 199 -12Q130 -12 89 26T48 129Q48 285 276 285H345V291Q345 410 229 410Q163 410 102 366L80 403Q149 466 248 466Q327 466 369 417T411 276V0ZM345 236H284Q120 236 120 135Q120
92 145 68T217 43Q257 43 294 63T345 113V236Z" />
<glyph unicode="b" glyph-name="b" horiz-adv-x="533" d="M129 0H78V609L145 645V407Q192 466 276 466Q379 466 436 392Q485 330 485 236Q485 112 414 44Q357 -12 273 -12Q185 -12 138 48L129 0ZM145 332V115Q158 83 191 63T265 43Q330 43 371 93T413 226Q413
318 367 368Q328 411 267 411Q228 411 194 389T145 332Z" />
<glyph unicode="c" glyph-name="c" horiz-adv-x="471" d="M421 418L399 380Q348 412 288 412Q206 412 160 352Q120 300 120 222Q120 139 171 89Q218 43 294 43Q358 43 407 80L429 40Q373 -12 279 -12Q169 -12 104 62Q48 127 48 225Q48 335 121 405Q184 466 273
466Q360 466 421 418Z" />
<glyph unicode="d" glyph-name="d" horiz-adv-x="533" d="M405 0L394 48Q346 -12 255 -12Q156 -12 98 62Q48 126 48 221Q48 341 118 409Q176 466 261 466Q341 466 389 413V607L455 644V0H405ZM389 121V338Q376 369 342 390T270 412Q204 412 162 361T120 228Q120
136 166 85Q206 43 266 43Q306 43 339 64T389 121Z" />
<glyph unicode="e" glyph-name="e" horiz-adv-x="495" d="M447 204H123Q127 131 173 87T294 43Q356 43 415 80L438 40Q372 -12 279 -12Q171 -12 107 59Q48 123 48 225Q48 331 111 402Q168 466 252 466Q353 466 406 384Q447 320 447 226V204ZM122 258H378Q375 331
343 372T253 413Q199 413 163 370T122 258Z" />
<glyph unicode="f" glyph-name="f" horiz-adv-x="336" d="M42 454H107V520Q107 579 136 612T218 645Q272 645 321 611L297 574Q264 591 232 591Q173 591 173 517V454H287V400H173V0H107V400H42V454Z" />
<glyph unicode="g" glyph-name="g" horiz-adv-x="538" d="M398 408L408 454H460V37Q460 -191 261 -191Q167 -191 95 -128L118 -91Q180 -134 250 -134Q324 -134 359 -93T394 37V46Q345 -12 260 -12Q161 -12 103 62Q53 126 53 221Q53 341 123 409Q181 466 266 466Q304
466 341 450T398 408ZM394 121V338Q381 369 347 390T275 412Q209 412 167 361T125 228Q125 136 171 85Q211 43 271 43Q311 43 344 64T394 121Z" />
<glyph unicode="h" glyph-name="h" horiz-adv-x="533" d="M460 0H394V266Q394 408 268 408Q234 408 198 391T145 348V0H78V610L145 645V406Q207 466 289 466Q460 466 460 271V0Z" />
<glyph unicode="i" glyph-name="i" horiz-adv-x="232" d="M149 454V0H83V454H149ZM73 602Q73 619 86 632T117 645Q135 645 148 632T161 602Q161 583 148 571T117 558Q98 558 86 570T73 602Z" />
<glyph unicode="j" glyph-name="j" horiz-adv-x="235" d="M150 454V-66Q150 -125 121 -158T39 -191Q-16 -191 -64 -156L-40 -119Q-9 -137 25 -137Q84 -137 84 -63V454H150ZM72 602Q72 619 85 632T116 645Q134 645 147 632T160 602Q160 583 147 571T116 558Q97
558 85 570T72 602Z" />
<glyph unicode="k" glyph-name="k" horiz-adv-x="446" d="M402 454L201 277L426 0H345L145 252V0H78V609L145 645V302L309 454H402Z" />
<glyph unicode="l" glyph-name="l" horiz-adv-x="223" d="M145 645V0H78V609L145 645Z" />
<glyph unicode="m" glyph-name="m" horiz-adv-x="830" d="M757 0H690V260Q690 408 566 408Q499 408 442 350Q452 315 452 272V0H386V264Q386 408 265 408Q233 408 199 391T145 347V0H78V454H134L140 407H143Q206 466 288 466Q386 466 425 393Q491 466 590 466Q672
466 716 413Q757 363 757 272V0Z" />
<glyph unicode="n" glyph-name="n" horiz-adv-x="533" d="M460 0H394V266Q394 408 270 408Q234 408 199 391T145 348V0H78V454H134L140 406H143Q202 466 291 466Q460 466 460 271V0Z" />
<glyph unicode="o" glyph-name="o" horiz-adv-x="533" d="M485 226Q485 118 417 49Q356 -12 267 -12Q164 -12 101 66Q48 132 48 226Q48 336 114 404Q174 466 267 466Q372 466 434 387Q485 321 485 226ZM120 226Q120 139 165 88Q205 43 266 43Q332 43 372 93T413
226Q413 312 369 364Q329 412 267 412Q201 412 161 361T120 226Z" />
<glyph unicode="p" glyph-name="p" horiz-adv-x="539" d="M78 454H131L140 405Q196 466 288 466Q386 466 443 392Q491 329 491 236Q491 113 421 44Q364 -12 283 -12Q195 -12 145 42V-182H78V454ZM145 331V116Q157 85 192 64T266 43Q335 43 377 93T419 226Q419
319 373 369Q335 411 273 411Q234 411 197 388T145 331Z" />
<glyph unicode="q" glyph-name="q" horiz-adv-x="538" d="M409 454H460V-185H394V48Q339 -12 252 -12Q156 -12 98 62Q48 125 48 220Q48 342 119 410Q176 466 260 466Q352 466 398 408L409 454ZM394 123V337Q380 369 345 390T271 412Q204 412 163 361T121 228Q121
135 167 85Q205 43 264 43Q305 43 342 65T394 123Z" />
<glyph unicode="r" glyph-name="r" horiz-adv-x="392" d="M374 415L319 377Q285 407 246 407Q189 407 145 348V0H78V454H135L141 406H143Q202 466 264 466Q337 466 374 415Z" />
<glyph unicode="s" glyph-name="s" horiz-adv-x="415" d="M316 386Q266 412 207 412Q167 412 145 395T122 347Q122 315 142 298T221 263Q303 238 335 207T367 120Q367 61 323 25T208 -12Q116 -12 48 38Q51 43 58 55Q65 68 70 75Q128 43 195 43Q300 43 300 122Q300
154 278 172T194 206Q52 246 52 345Q52 398 93 432T200 466Q277 466 338 423L316 386Z" />
<glyph unicode="t" glyph-name="t" horiz-adv-x="367" d="M178 399L177 115Q177 42 236 42Q269 42 301 59L325 22Q276 -12 222 -12Q169 -12 140 21T111 113V399H42V454H112V553L178 587V454H317V399H178Z" />
<glyph unicode="u" glyph-name="u" horiz-adv-x="522" d="M444 454V0H392L386 52L383 51Q322 -12 235 -12Q162 -12 120 39T78 182V454H145V194Q145 47 255 47Q289 47 323 64T378 108V454H444Z" />
<glyph unicode="v" glyph-name="v" horiz-adv-x="441" d="M254 0H186L15 454H87L221 79L354 454H426L254 0Z" />
<glyph unicode="w" glyph-name="w" horiz-adv-x="692" d="M237 0H165L15 454H87L201 78L310 454H387L491 78L605 454H677L526 0H454L348 373L237 0Z" />
<glyph unicode="x" glyph-name="x" horiz-adv-x="427" d="M407 454L256 237L414 0H340L216 188L88 0H13L178 234L37 454H111L217 285L333 454H407Z" />
<glyph unicode="y" glyph-name="y" horiz-adv-x="457" d="M442 454L244 -69Q199 -191 120 -191Q70 -191 20 -155L42 -119Q76 -137 102 -137Q152 -137 189 -44L207 0H190L15 454H86L230 69L370 454H442Z" />
<glyph unicode="z" glyph-name="z" horiz-adv-x="410" d="M385 0H25V58L300 399H42V454H379V396L105 55H385V0Z" />
<glyph unicode="{" glyph-name="braceleft" horiz-adv-x="377" d="M48 226V284Q97 287 125 326T154 429V477Q154 572 185 608T300 645H320V587H300Q250 587 235 566T220 477V429Q220 302 117 254Q172 229 196 189T220 79V29Q220 -40 235 -61T300 -82H320V-139H300Q208
-139 178 -93Q154 -57 154 29V79Q154 141 125 180T48 226Z" />
<glyph unicode="|" glyph-name="bar" horiz-adv-x="242" d="M152 662V-179H90V662H152Z" />
<glyph unicode="}" glyph-name="braceright" horiz-adv-x="377" d="M329 284V226Q280 220 252 181T223 79V29Q223 -67 192 -103T77 -139H57V-82H77Q127 -82 142 -61T157 29V79Q157 148 180 188T260 254Q157 302 157 429V477Q157 545 142 566T77 587H57V645H77Q168
645 199 599Q223 563 223 477V429Q223 365 251 326T329 284Z" />
<glyph unicode="~" glyph-name="asciitilde" horiz-adv-x="483" d="M68 199L42 217Q71 305 141 305Q177 305 255 270Q317 242 344 242Q391 242 413 293L441 275Q417 188 353 188Q319 188 244 220Q237 223 221 230Q174 251 143 251Q98 251 68 199Z" />
<glyph unicode="&#xa0;" glyph-name="space" horiz-adv-x="240" />
<glyph unicode="&#xa1;" glyph-name="exclamdown" horiz-adv-x="216" d="M73 315H140V-169H73V315ZM150 428Q150 388 109 388Q68 388 66 429Q66 473 109 473Q150 473 150 430Q150 429 150 428Z" />
<glyph unicode="&#xa2;" glyph-name="cent" horiz-adv-x="474" d="M294 -11V-52H258V-11Q157 -4 99 68Q48 132 48 225Q48 330 115 400Q174 460 258 466V512H294V465Q365 461 421 418L399 380Q350 410 294 412V43H295Q358 43 407 80L429 40Q379 -7 294 -11ZM258
47V408Q195 398 158 348T120 222Q120 152 157 105T258 47Z" />
<glyph unicode="&#xa3;" glyph-name="sterling" horiz-adv-x="474" d="M349 313H188V63H430V0H44V63H114V313H42V370H114V429Q114 645 290 645Q372 645 446 584L415 539Q354 580 299 580Q188 580 188 437V370H349V313Z" />
<glyph unicode="&#xa4;" glyph-name="currency" horiz-adv-x="482" d="M431 96L349 176Q308 147 248 147Q187 147 147 176L68 98Q66 97 64 97Q56 97 43 111T29 134Q29 136 30 136L107 211Q73 256 73 315Q73 373 109 419L30 497Q28 498 28 501Q28 510 41 523T63
536Q65 536 67 534L147 454Q191 483 248 483Q304 483 349 454L430 533Q431 535 435 535Q444 535 456 524T468 503Q468 500 466 498L388 420Q421 375 421 315Q421 257 388 212L467 135Q469 134 469 131Q469 121 457 108T435 94Q432 94 431 96ZM249 203Q299 203 327
233T356 316Q356 368 328 398T249 428Q200 428 170 397T138 316Q138 265 168 234T249 203Z" />
<glyph unicode="&#xa5;" glyph-name="yen" horiz-adv-x="530" d="M302 0H229V132H51V187H229V248L219 266H51V321H188L15 633H93L261 321H269L437 633H515L342 321H475V266H311L302 248V187H475V132H302V0Z" />
<glyph unicode="&#xa6;" glyph-name="brokenbar" horiz-adv-x="230" d="M84 222H146V-186H84V222ZM146 669V296H84V669H146Z" />
<glyph unicode="&#xa7;" glyph-name="section" horiz-adv-x="449" d="M67 -93L88 -58Q141 -83 202 -83Q318 -83 318 10Q318 79 212 113Q50 163 50 268Q50 354 136 394Q70 440 70 510Q70 571 112 608T225 645Q304 645 366 602L343 567Q293 592 235 592Q191 592
165 572T139 516Q139 447 258 404Q334 376 366 340T399 244Q399 169 325 130Q387 90 387 11Q387 -56 340 -98T220 -140Q134 -140 67 -93ZM168 374Q117 339 117 283Q119 239 146 213T238 166Q257 160 286 149Q288 149 289 150Q335 181 335 236Q335 309 244 342Q191
361 168 374Z" />
<glyph unicode="&#xa8;" glyph-name="dieresis" horiz-adv-x="308" d="M34 602Q34 620 47 632T78 645Q96 645 109 632T122 602Q122 583 109 571T78 558Q59 558 47 570T34 602ZM185 602Q185 619 198 632T229 645Q247 645 260 632T273 602Q273 583 260 571T229 558Q210
558 198 570T185 602Z" />
<glyph unicode="&#xa9;" glyph-name="copyright" horiz-adv-x="699" d="M481 459L466 427Q421 455 367 455Q310 455 275 415T239 308Q239 248 276 210T373 171Q428 171 469 202L487 167Q436 123 359 123Q274 123 222 183Q178 235 178 311Q178 397 235 453Q286
502 358 502Q429 502 481 459ZM48 315Q48 448 148 539Q234 617 349 617Q482 617 573 517Q651 431 651 315Q651 182 551 92Q464 14 349 14Q216 14 126 114Q48 200 48 315ZM102 315Q102 202 183 128Q253 64 351 64Q463 64 536 146Q600 217 600 315Q600 427 518 501Q447
565 349 565Q236 565 164 483Q102 413 102 315Z" />
<glyph unicode="&#xaa;" glyph-name="ordfeminine" horiz-adv-x="268" d="M231 406H191L186 441Q161 400 113 400Q78 400 56 420T33 473Q33 552 155 552H182V554Q182 607 129 607Q98 607 62 581L46 611Q89 645 138 645Q231 645 231 544V406ZM181 521H161Q83 521
83 476Q83 440 123 440Q168 440 181 485V521Z" />
<glyph unicode="&#xab;" glyph-name="guillemotleft" horiz-adv-x="502" d="M260 18Q201 32 143 90T50 230Q85 311 143 369T260 442V382Q167 336 118 230Q167 123 260 77V18ZM462 18Q403 32 346 90T253 230Q288 311 345 369T462 442V382Q371 336 320 230Q371 122
462 78V18Z" />
<glyph unicode="&#xac;" glyph-name="logicalnot" horiz-adv-x="467" d="M42 158V224H425V0H350V158H42Z" />
<glyph unicode="&#xae;" glyph-name="registered" horiz-adv-x="414" d="M204 470H185V410H152V567H208Q265 567 265 520Q265 488 237 476L272 410H233L204 470ZM185 541V497H204Q232 497 232 518Q232 541 204 541H185ZM207 322Q135 322 87 376Q45 422 45 484Q45
555 99 604Q145 645 207 645Q279 645 327 592Q369 546 369 484Q369 412 315 364Q269 322 207 322ZM207 611Q154 611 118 574T81 484Q81 430 117 393T207 356Q260 356 297 393T334 484Q334 536 297 573T207 611Z" />
<glyph unicode="&#xaf;" glyph-name="overscore" horiz-adv-x="231" d="M215 581H16V633H215V581Z" />
<glyph unicode="&#xb0;" glyph-name="degree" horiz-adv-x="278" d="M25 538Q25 587 57 619T139 652Q188 652 220 620T253 538Q253 489 221 457T139 424Q90 424 58 456T25 538ZM61 538Q61 504 82 482T139 460Q174 460 196 481T218 538Q218 573 196 595T139 617Q104
617 83 595T61 538Z" />
<glyph unicode="&#xb1;" glyph-name="plusminus" horiz-adv-x="509" d="M223 251H42V306H223V454H285V306H467V251H285V103H223V251ZM467 0H42V55H467V0Z" />
<glyph unicode="&#xb2;" glyph-name="twosuperior" horiz-adv-x="354" d="M62 316V368L166 456Q227 507 227 541Q227 594 164 594Q126 594 84 565L58 596Q113 645 173 645Q223 645 254 618T285 545Q285 487 215 425L149 368H284V316H62Z" />
<glyph unicode="&#xb3;" glyph-name="threesuperior" horiz-adv-x="371" d="M141 463V514H181Q238 514 238 553Q238 594 181 594Q143 594 101 571L76 599Q128 645 190 645Q240 645 268 622T297 559Q297 536 282 517T244 491Q303 474 303 409Q303 367 269 341T183
314Q127 314 76 359L103 389Q140 366 178 366Q243 366 243 413Q243 463 180 463H141Z" />
<glyph unicode="&#xb4;" glyph-name="acute" horiz-adv-x="177" d="M152 655L67 543H25L79 655H152Z" />
<glyph unicode="&#xb5;" glyph-name="mu" horiz-adv-x="557" d="M146 -178H78V454H146V186Q146 50 251 50Q286 50 318 67T368 114V454H435V101Q435 43 474 43Q491 43 512 57L533 23Q498 -13 456 -13Q382 -13 370 58Q347 27 309 8T233 -12Q178 -12 146 17V-178Z" />
<glyph unicode="&#xb6;" glyph-name="paragraph" horiz-adv-x="445" d="M355 0H318V633H355V0ZM250 0V365H207Q46 365 46 496Q46 558 88 595T202 633H288V0H250Z" />
<glyph unicode="&#xb7;" glyph-name="middot" horiz-adv-x="175" d="M86 308Q66 308 53 322T39 358Q39 377 53 391T86 405Q107 405 121 391T136 358Q136 336 122 322T86 308Z" />
<glyph unicode="&#xb8;" glyph-name="cedilla" horiz-adv-x="213" d="M72 10H118L106 -30Q115 -28 126 -28Q188 -28 188 -86Q188 -118 163 -139T97 -160Q61 -160 25 -144L37 -108Q66 -121 93 -121Q138 -121 138 -87Q138 -53 91 -53Q74 -53 56 -55L72 10Z" />
<glyph unicode="&#xb9;" glyph-name="onesuperior" horiz-adv-x="280" d="M191 633V318H136V563L69 505L32 543L132 633H191Z" />
<glyph unicode="&#xba;" glyph-name="ordmasculine" horiz-adv-x="290" d="M145 400Q97 400 65 435T33 522Q33 577 64 611T145 645Q194 645 225 611T257 522Q257 470 225 435T145 400ZM145 609Q85 609 85 522Q85 484 101 461T145 437Q206 437 206 522Q206 561
190 585T145 609Z" />
<glyph unicode="&#xbb;" glyph-name="guillemotright" horiz-adv-x="502" d="M40 18V78Q133 123 182 230Q133 335 40 382V442Q99 427 157 369T250 230Q215 149 157 91T40 18ZM243 18V78Q334 122 385 230Q334 336 243 382V442Q302 427 359 369T452 230Q417 149
360 91T243 18Z" />
<glyph unicode="&#xbc;" glyph-name="onequarter" horiz-adv-x="820" d="M474 119L640 318H696V116H756V65H696V0H641V65H474V119ZM540 116H641V243L540 116ZM235 633V318H180V563L113 505L76 543L176 633H235ZM617 633L233 -30H180L564 633H617Z" />
<glyph unicode="&#xbd;" glyph-name="onehalf" horiz-adv-x="831" d="M235 633V318H180V563L113 505L76 543L176 633H235ZM529 0V52L633 140Q694 191 694 225Q694 278 631 278Q593 278 551 249L525 280Q580 329 640 329Q690 329 721 302T752 229Q752 171 682 109L616
52H751V0H529ZM610 633L226 -30H173L557 633H610Z" />
<glyph unicode="&#xbe;" glyph-name="threequarters" horiz-adv-x="858" d="M502 119L669 318H724V116H784V65H724V0H669V65H502V119ZM568 116H669V243L568 116ZM141 463V514H181Q238 514 238 553Q238 594 181 594Q143 594 101 571L76 599Q128 645 190 645Q240
645 268 622T297 559Q297 536 282 517T244 491Q303 474 303 409Q303 367 269 341T183 314Q127 314 76 359L103 389Q140 366 178 366Q243 366 243 413Q243 463 180 463H141ZM643 633L259 -30H206L590 633H643Z" />
<glyph unicode="&#xbf;" glyph-name="questiondown" horiz-adv-x="392" d="M203 309H271V222Q271 182 260 163T208 110Q120 38 120 -32Q120 -78 147 -104T221 -131Q272 -131 324 -102L347 -142Q279 -192 202 -192Q134 -192 92 -150T50 -40Q50 53 133 123Q137 127
147 135L149 137Q185 166 194 182T203 234V309ZM237 465Q257 465 270 451T284 416Q284 396 270 383T237 369Q216 369 202 382T188 416Q188 437 201 451T237 465Z" />
<glyph unicode="&#xc0;" glyph-name="Agrave" horiz-adv-x="576" d="M242 633H319L546 0H470L419 148H144L92 0H15L242 633ZM280 550L164 210H397L280 550ZM246 711L162 823H234L288 711H246Z" />
<glyph unicode="&#xc1;" glyph-name="Aacute" horiz-adv-x="576" d="M242 633H319L546 0H470L419 148H144L92 0H15L242 633ZM280 550L164 210H397L280 550ZM388 823L303 711H261L315 823H388Z" />
<glyph unicode="&#xc2;" glyph-name="Acircumflex" horiz-adv-x="576" d="M242 633H319L546 0H470L419 148H144L92 0H15L242 633ZM280 550L164 210H397L280 550ZM257 823H304L382 711H327L281 779L279 778L232 711H178L257 823Z" />
<glyph unicode="&#xc3;" glyph-name="Atilde" horiz-adv-x="576" d="M242 633H319L546 0H470L419 148H144L92 0H15L242 633ZM280 550L164 210H397L280 550ZM174 714L147 731Q171 807 230 807Q258 807 298 782Q330 763 344 763Q371 763 394 808L421 790Q396 714
342 714Q321 714 284 734Q282 735 277 738L275 739Q245 757 230 757Q213 757 197 744T174 714Z" />
<glyph unicode="&#xc4;" glyph-name="Adieresis" horiz-adv-x="576" d="M242 633H319L546 0H470L419 148H144L92 0H15L242 633ZM280 550L164 210H397L280 550ZM161 770Q161 788 174 800T205 813Q223 813 236 800T249 770Q249 751 236 739T205 726Q186 726 174
738T161 770ZM312 770Q312 787 325 800T356 813Q374 813 387 800T400 770Q400 751 387 739T356 726Q337 726 325 738T312 770Z" />
<glyph unicode="&#xc5;" glyph-name="Aring" horiz-adv-x="576" d="M242 633H319L546 0H470L419 148H144L92 0H15L242 633ZM280 550L164 210H397L280 550ZM218 763Q218 789 236 807T281 826Q307 826 325 808T344 763Q344 737 326 719T281 700Q254 700 236 718T218
763ZM248 763Q248 731 280 731Q294 731 304 740T314 763Q314 776 304 786T280 796Q248 796 248 763Z" />
<glyph unicode="&#xc6;" glyph-name="AE" horiz-adv-x="785" d="M723 633V570H425V361H676V298H425V63H736V0H351V152H153L92 0H15L290 633H723ZM330 569L179 214H351V569H330Z" />
<glyph unicode="&#xc7;" glyph-name="Ccedilla" horiz-adv-x="566" d="M496 582L466 539Q399 581 329 581Q233 581 178 502Q127 430 127 310Q127 185 193 115Q249 54 337 54Q409 54 474 101L504 56Q433 -6 341 -11L336 -30Q345 -28 356 -28Q418 -28 418 -86Q418
-118 393 -139T327 -160Q291 -160 255 -144L267 -108Q296 -121 323 -121Q368 -121 368 -87Q368 -53 321 -53Q304 -53 286 -55L297 -10Q173 1 105 104Q48 189 48 310Q48 454 126 552Q200 645 315 645Q417 645 496 582Z" />
<glyph unicode="&#xc8;" glyph-name="Egrave" horiz-adv-x="526" d="M82 633H454V570H156V361H407V298H156V63H467V0H82V633ZM262 712L177 824H250L304 712H262Z" />
<glyph unicode="&#xc9;" glyph-name="Eacute" horiz-adv-x="526" d="M82 633H454V570H156V361H407V298H156V63H467V0H82V633ZM348 819L263 707H221L275 819H348Z" />
<glyph unicode="&#xca;" glyph-name="Ecircumflex" horiz-adv-x="526" d="M82 633H454V570H156V361H407V298H156V63H467V0H82V633ZM244 823H292L369 711H314L269 779L267 778L220 711H166L244 823Z" />
<glyph unicode="&#xcb;" glyph-name="Edieresis" horiz-adv-x="526" d="M82 633H454V570H156V361H407V298H156V63H467V0H82V633ZM150 770Q150 788 163 800T194 813Q212 813 225 800T238 770Q238 751 225 739T194 726Q175 726 163 738T150 770ZM301 770Q301 787
314 800T345 813Q363 813 376 800T389 770Q389 751 376 739T345 726Q326 726 314 738T301 770Z" />
<glyph unicode="&#xcc;" glyph-name="Igrave" horiz-adv-x="272" d="M164 633V0H91V633H164ZM106 711L21 823H94L148 711H106Z" />
<glyph unicode="&#xcd;" glyph-name="Iacute" horiz-adv-x="272" d="M164 633V0H90V633H164ZM235 823L151 711H109L163 823H235Z" />
<glyph unicode="&#xce;" glyph-name="Icircumflex" horiz-adv-x="272" d="M164 633V0H91V633H164ZM106 834H153L231 722H176L130 790L128 789L81 722H27L106 834Z" />
<glyph unicode="&#xcf;" glyph-name="Idieresis" horiz-adv-x="272" d="M164 633V0H91V633H164ZM8 770Q8 788 21 800T52 813Q70 813 83 800T96 770Q96 751 83 739T52 726Q33 726 21 738T8 770ZM159 770Q159 787 172 800T203 813Q221 813 234 800T247 770Q247 751
234 739T203 726Q184 726 172 738T159 770Z" />
<glyph unicode="&#xd0;" glyph-name="Eth" horiz-adv-x="655" d="M119 299H41V356H119V634Q205 645 271 645Q434 645 520 547Q594 462 594 323Q594 154 501 66Q419 -12 277 -12Q209 -12 119 0V299ZM193 575V356H345V299H193V58Q235 49 277 49Q396 49 458 125Q515
194 515 319Q515 454 436 526Q372 584 274 584Q232 584 193 575Z" />
<glyph unicode="&#xd1;" glyph-name="Ntilde" horiz-adv-x="675" d="M164 0H90V633H157Q248 496 474 117V633H548V0H479Q425 81 259 350Q189 464 164 506V0ZM210 705L183 722Q208 798 266 798Q294 798 335 773Q367 754 381 754Q408 754 430 799L458 781Q432 705
379 705Q357 705 321 725Q318 726 312 730Q282 748 266 748Q250 748 233 735T210 705Z" />
<glyph unicode="&#xd2;" glyph-name="Ograve" horiz-adv-x="654" d="M322 -12Q185 -12 109 101Q50 189 50 315Q50 461 128 555Q202 645 322 645Q459 645 535 531Q594 441 594 315Q594 169 516 76Q442 -12 322 -12ZM129 315Q129 189 184 118Q235 53 322 53Q422
53 473 137Q515 206 515 315Q515 441 460 513Q409 581 322 581Q223 581 171 494Q129 424 129 315ZM310 710L225 822H298L352 710H310Z" />
<glyph unicode="&#xd3;" glyph-name="Oacute" horiz-adv-x="654" d="M322 -12Q185 -12 109 101Q50 189 50 315Q50 461 128 555Q202 645 322 645Q459 645 535 531Q594 441 594 315Q594 169 516 76Q442 -12 322 -12ZM129 315Q129 189 184 118Q235 53 322 53Q422
53 473 137Q515 206 515 315Q515 441 460 513Q409 581 322 581Q223 581 171 494Q129 424 129 315ZM424 822L340 710H298L352 822H424Z" />
<glyph unicode="&#xd4;" glyph-name="Ocircumflex" horiz-adv-x="654" d="M322 -12Q185 -12 109 101Q50 189 50 315Q50 461 128 555Q202 645 322 645Q459 645 535 531Q594 441 594 315Q594 169 516 76Q442 -12 322 -12ZM129 315Q129 189 184 118Q235 53 322 53Q422
53 473 137Q515 206 515 315Q515 441 460 513Q409 581 322 581Q223 581 171 494Q129 424 129 315ZM302 822H349L427 710H372L326 778L324 777L277 710H223L302 822Z" />
<glyph unicode="&#xd5;" glyph-name="Otilde" horiz-adv-x="654" d="M322 -12Q185 -12 109 101Q50 189 50 315Q50 461 128 555Q202 645 322 645Q459 645 535 531Q594 441 594 315Q594 169 516 76Q442 -12 322 -12ZM129 315Q129 189 184 118Q235 53 322 53Q422
53 473 137Q515 206 515 315Q515 441 460 513Q409 581 322 581Q223 581 171 494Q129 424 129 315ZM214 714L187 731Q212 807 270 807Q298 807 339 782Q371 763 385 763Q412 763 434 808L462 790Q436 714 383 714Q361 714 325 734Q322 735 316 739Q286 757 270 757Q254
757 237 744T214 714Z" />
<glyph unicode="&#xd6;" glyph-name="Odieresis" horiz-adv-x="654" d="M322 -12Q185 -12 109 101Q50 189 50 315Q50 461 128 555Q202 645 322 645Q459 645 535 531Q594 441 594 315Q594 169 516 76Q442 -12 322 -12ZM129 315Q129 189 184 118Q235 53 322 53Q422
53 473 137Q515 206 515 315Q515 441 460 513Q409 581 322 581Q223 581 171 494Q129 424 129 315ZM205 770Q205 788 217 800T249 813Q266 813 279 800T292 770Q292 751 280 739T249 726Q230 726 218 738T205 770ZM356 770Q356 787 368 800T399 813Q417 813 430
800T443 770Q443 751 431 739T399 726Q381 726 369 738T356 770Z" />
<glyph unicode="&#xd7;" glyph-name="multiply" horiz-adv-x="501" d="M81 5Q69 16 50 35Q41 44 36 50L216 232L104 351L48 410Q56 418 63 425Q80 441 90 452L254 273Q281 302 332 356L344 369Q396 425 423 453L466 410L295 231Q317 206 369 149Q433 80 463 46L422
5L257 190L81 5Z" />
<glyph unicode="&#xd8;" glyph-name="Oslash" horiz-adv-x="644" d="M216 10L197 -30H134L167 38Q50 128 50 315Q50 461 128 555Q202 645 322 645Q392 645 449 612L465 645H527L494 579Q594 485 594 315Q594 169 516 76Q442 -12 322 -12Q265 -12 216 10ZM198 102L419
552Q377 581 322 581Q223 581 171 494Q129 424 129 315Q129 171 198 102ZM245 69Q280 53 322 53Q422 53 473 137Q515 206 515 315Q515 439 461 511L245 69Z" />
<glyph unicode="&#xd9;" glyph-name="Ugrave" horiz-adv-x="644" d="M90 633H165V242Q165 53 316 53Q466 53 466 242V633H542V264Q542 -12 316 -12Q90 -12 90 264V633ZM301 710L216 822H289L343 710H301Z" />
<glyph unicode="&#xda;" glyph-name="Uacute" horiz-adv-x="644" d="M90 633H165V242Q165 53 316 53Q466 53 466 242V633H542V264Q542 -12 316 -12Q90 -12 90 264V633ZM405 822L320 710H278L332 822H405Z" />
<glyph unicode="&#xdb;" glyph-name="Ucircumflex" horiz-adv-x="644" d="M90 633H165V242Q165 53 316 53Q466 53 466 242V633H542V264Q542 -12 316 -12Q90 -12 90 264V633ZM292 822H340L417 710H362L317 778L315 777L268 710H214L292 822Z" />
<glyph unicode="&#xdc;" glyph-name="Udieresis" horiz-adv-x="644" d="M90 633H165V242Q165 53 316 53Q466 53 466 242V633H542V264Q542 -12 316 -12Q90 -12 90 264V633ZM197 771Q197 789 210 801T241 814Q259 814 272 801T285 771Q285 752 272 740T241 727Q222
727 210 739T197 771ZM348 771Q348 788 361 801T392 814Q410 814 423 801T436 771Q436 752 423 740T392 727Q373 727 361 739T348 771Z" />
<glyph unicode="&#xdd;" glyph-name="Yacute" horiz-adv-x="530" d="M15 633H93L265 313L437 633H515L302 248V0H229V248L15 633ZM366 818L281 706H239L293 818H366Z" />
<glyph unicode="&#xde;" glyph-name="Thorn" horiz-adv-x="533" d="M90 0V633H163V520Q204 531 244 531Q469 531 469 340Q469 236 400 183Q344 139 256 139Q215 139 164 148V0H90ZM164 460V210Q206 201 256 201Q390 201 390 340Q390 470 247 470Q197 470 164 460Z" />
<glyph unicode="&#xdf;" glyph-name="germandbls" horiz-adv-x="500" d="M189 9L205 55Q241 43 270 43Q316 43 345 78T375 168Q375 303 249 303H224V361H246Q294 361 323 394T353 483Q353 531 323 561T245 592Q199 592 172 563T145 483V0H78V469Q78 646 246 646Q333
646 384 592Q426 547 426 484Q426 429 394 390T309 338Q451 306 451 166Q451 72 385 22Q339 -12 283 -12Q234 -12 189 9Z" />
<glyph unicode="&#xe0;" glyph-name="agrave" horiz-adv-x="495" d="M411 0H361L351 49Q290 -12 199 -12Q130 -12 89 26T48 129Q48 285 276 285H345V291Q345 410 229 410Q163 410 102 366L80 403Q149 466 248 466Q327 466 369 417T411 276V0ZM345 236H284Q120
236 120 135Q120 92 145 68T217 43Q257 43 294 63T345 113V236ZM235 538L151 650H223L277 538H235Z" />
<glyph unicode="&#xe1;" glyph-name="aacute" horiz-adv-x="495" d="M411 0H361L351 49Q290 -12 199 -12Q130 -12 89 26T48 129Q48 285 276 285H345V291Q345 410 229 410Q163 410 102 366L80 403Q149 466 248 466Q327 466 369 417T411 276V0ZM345 236H284Q120
236 120 135Q120 92 145 68T217 43Q257 43 294 63T345 113V236ZM335 650L250 538H208L262 650H335Z" />
<glyph unicode="&#xe2;" glyph-name="acircumflex" horiz-adv-x="495" d="M411 0H361L351 49Q290 -12 199 -12Q130 -12 89 26T48 129Q48 285 276 285H345V291Q345 410 229 410Q163 410 102 366L80 403Q149 466 248 466Q327 466 369 417T411 276V0ZM345 236H284Q120
236 120 135Q120 92 145 68T217 43Q257 43 294 63T345 113V236ZM221 655H269L346 543H291L246 611L244 610L197 543H143L221 655Z" />
<glyph unicode="&#xe3;" glyph-name="atilde" horiz-adv-x="495" d="M411 0H361L351 49Q290 -12 199 -12Q130 -12 89 26T48 129Q48 285 276 285H345V291Q345 410 229 410Q163 410 102 366L80 403Q149 466 248 466Q327 466 369 417T411 276V0ZM345 236H284Q120
236 120 135Q120 92 145 68T217 43Q257 43 294 63T345 113V236ZM136 548L109 565Q134 641 192 641Q220 641 261 616Q293 597 307 597Q334 597 356 642L384 624Q358 548 305 548Q283 548 247 568Q244 569 238 573Q208 591 192 591Q176 591 159 578T136 548Z" />
<glyph unicode="&#xe4;" glyph-name="adieresis" horiz-adv-x="495" d="M411 0H361L351 49Q290 -12 199 -12Q130 -12 89 26T48 129Q48 285 276 285H345V291Q345 410 229 410Q163 410 102 366L80 403Q149 466 248 466Q327 466 369 417T411 276V0ZM345 236H284Q120
236 120 135Q120 92 145 68T217 43Q257 43 294 63T345 113V236ZM130 602Q130 620 142 632T174 645Q191 645 204 632T217 602Q217 583 205 571T174 558Q155 558 143 570T130 602ZM281 602Q281 619 293 632T324 645Q342 645 355 632T368 602Q368 583 356 571T324
558Q306 558 294 570T281 602Z" />
<glyph unicode="&#xe5;" glyph-name="aring" horiz-adv-x="495" d="M411 0H361L351 49Q290 -12 199 -12Q130 -12 89 26T48 129Q48 285 276 285H345V291Q345 410 229 410Q163 410 102 366L80 403Q149 466 248 466Q327 466 369 417T411 276V0ZM345 236H284Q120 236
120 135Q120 92 145 68T217 43Q257 43 294 63T345 113V236ZM182 594Q182 620 200 638T245 657Q271 657 289 639T308 594Q308 568 290 550T245 531Q218 531 200 549T182 594ZM212 594Q212 562 244 562Q258 562 268 571T278 594Q278 607 268 617T244 627Q212 627
212 594Z" />
<glyph unicode="&#xe6;" glyph-name="ae" horiz-adv-x="795" d="M741 204H418L420 188Q428 122 473 83T588 43Q651 43 710 80L732 40Q667 -12 573 -12Q445 -12 384 81H383Q338 30 297 9T199 -12Q130 -12 89 26T48 129Q48 285 276 285H345V291Q345 410 229 410Q163
410 102 366L80 403Q149 466 248 466Q353 466 391 379Q448 466 547 466Q648 466 700 384Q741 320 741 226V204ZM345 236H284Q120 236 120 135Q120 92 145 68T217 43Q257 43 294 63T345 113V236ZM416 258H672Q670 331 638 372T548 413Q493 413 457 370T416 258Z"
/>
<glyph unicode="&#xe7;" glyph-name="ccedilla" horiz-adv-x="481" d="M230 -55L241 -9Q147 4 94 74Q48 136 48 225Q48 335 121 405Q184 466 273 466Q360 466 421 418L399 380Q348 412 288 412Q206 412 160 352Q120 300 120 222Q120 139 171 89Q218 43 294 43Q358
43 407 80L429 40Q377 -8 292 -11H285L280 -30Q289 -28 300 -28Q362 -28 362 -86Q362 -118 337 -139T271 -160Q235 -160 199 -144L211 -108Q240 -121 267 -121Q312 -121 312 -87Q312 -53 265 -53Q248 -53 230 -55Z" />
<glyph unicode="&#xe8;" glyph-name="egrave" horiz-adv-x="512" d="M447 204H123Q127 131 173 87T294 43Q356 43 415 80L438 40Q372 -12 279 -12Q171 -12 107 59Q48 123 48 225Q48 331 111 402Q168 466 252 466Q353 466 406 384Q447 320 447 226V204ZM122 258H378Q375
331 343 372T253 413Q199 413 163 370T122 258ZM233 543L148 655H221L275 543H233Z" />
<glyph unicode="&#xe9;" glyph-name="eacute" horiz-adv-x="512" d="M447 204H123Q127 131 173 87T294 43Q356 43 415 80L438 40Q372 -12 279 -12Q171 -12 107 59Q48 123 48 225Q48 331 111 402Q168 466 252 466Q353 466 406 384Q447 320 447 226V204ZM122 258H378Q375
331 343 372T253 413Q199 413 163 370T122 258ZM358 655L274 543H232L286 655H358Z" />
<glyph unicode="&#xea;" glyph-name="ecircumflex" horiz-adv-x="512" d="M447 204H123Q127 131 173 87T294 43Q356 43 415 80L438 40Q372 -12 279 -12Q171 -12 107 59Q48 123 48 225Q48 331 111 402Q168 466 252 466Q353 466 406 384Q447 320 447 226V204ZM122
258H378Q375 331 343 372T253 413Q199 413 163 370T122 258ZM228 655H275L353 543H298L252 611L250 610L203 543H149L228 655Z" />
<glyph unicode="&#xeb;" glyph-name="edieresis" horiz-adv-x="512" d="M447 204H123Q127 131 173 87T294 43Q356 43 415 80L438 40Q372 -12 279 -12Q171 -12 107 59Q48 123 48 225Q48 331 111 402Q168 466 252 466Q353 466 406 384Q447 320 447 226V204ZM122
258H378Q375 331 343 372T253 413Q199 413 163 370T122 258ZM134 602Q134 620 147 632T178 645Q196 645 209 632T222 602Q222 583 209 571T178 558Q159 558 147 570T134 602ZM285 602Q285 619 298 632T329 645Q347 645 360 632T373 602Q373 583 360 571T329 558Q310
558 298 570T285 602Z" />
<glyph unicode="&#xec;" glyph-name="igrave" horiz-adv-x="281" d="M169 454V0H102V454H169ZM112 543L27 655H100L154 543H112Z" />
<glyph unicode="&#xed;" glyph-name="iacute" horiz-adv-x="273" d="M243 655L158 543H116L170 655H243ZM171 454V0H104V454H171Z" />
<glyph unicode="&#xee;" glyph-name="icircumflex" horiz-adv-x="281" d="M175 454V0H108V454H175ZM119 655H166L244 543H189L143 611L141 610L94 543H40L119 655Z" />
<glyph unicode="&#xef;" glyph-name="idieresis" horiz-adv-x="281" d="M168 454V0H101V454H168ZM16 602Q16 620 29 632T60 645Q78 645 91 632T104 602Q104 583 91 571T60 558Q41 558 29 570T16 602ZM167 602Q167 619 180 632T211 645Q229 645 242 632T255 602Q255
583 242 571T211 558Q192 558 180 570T167 602Z" />
<glyph unicode="&#xf0;" glyph-name="eth" horiz-adv-x="503" d="M153 621L189 645Q257 633 316 589L421 644Q427 638 431 634Q446 620 455 612L353 559Q454 457 454 285Q454 154 400 73Q343 -12 240 -12Q144 -12 89 67Q48 126 48 196Q48 316 120 372Q171 411
243 411Q324 411 376 356Q362 468 299 532L179 471L146 505L264 565Q224 598 153 621ZM377 296Q332 355 254 355Q193 355 159 315T124 203Q124 129 153 87T236 45Q304 45 341 102T378 262Q378 278 377 296Z" />
<glyph unicode="&#xf1;" glyph-name="ntilde" horiz-adv-x="545" d="M460 0H394V266Q394 408 270 408Q234 408 199 391T145 348V0H78V454H134L140 406H143Q202 466 291 466Q460 466 460 271V0ZM163 562L136 579Q160 655 219 655Q247 655 287 630Q319 611 333 611Q360
611 383 656L410 638Q385 562 331 562Q310 562 273 582Q271 583 266 586L264 587Q234 605 219 605Q202 605 186 592T163 562Z" />
<glyph unicode="&#xf2;" glyph-name="ograve" horiz-adv-x="538" d="M485 226Q485 118 417 49Q356 -12 267 -12Q164 -12 101 66Q48 132 48 226Q48 336 114 404Q174 466 267 466Q372 466 434 387Q485 321 485 226ZM120 226Q120 139 165 88Q205 43 266 43Q332 43
372 93T413 226Q413 312 369 364Q329 412 267 412Q201 412 161 361T120 226ZM250 543L165 655H238L292 543H250Z" />
<glyph unicode="&#xf3;" glyph-name="oacute" horiz-adv-x="538" d="M485 226Q485 118 417 49Q356 -12 267 -12Q164 -12 101 66Q48 132 48 226Q48 336 114 404Q174 466 267 466Q372 466 434 387Q485 321 485 226ZM120 226Q120 139 165 88Q205 43 266 43Q332 43
372 93T413 226Q413 312 369 364Q329 412 267 412Q201 412 161 361T120 226ZM367 655L282 543H240L294 655H367Z" />
<glyph unicode="&#xf4;" glyph-name="ocircumflex" horiz-adv-x="538" d="M485 226Q485 118 417 49Q356 -12 267 -12Q164 -12 101 66Q48 132 48 226Q48 336 114 404Q174 466 267 466Q372 466 434 387Q485 321 485 226ZM120 226Q120 139 165 88Q205 43 266 43Q332
43 372 93T413 226Q413 312 369 364Q329 412 267 412Q201 412 161 361T120 226ZM245 655H293L370 543H315L270 611L268 610L221 543H167L245 655Z" />
<glyph unicode="&#xf5;" glyph-name="otilde" horiz-adv-x="538" d="M485 226Q485 118 417 49Q356 -12 267 -12Q164 -12 101 66Q48 132 48 226Q48 336 114 404Q174 466 267 466Q372 466 434 387Q485 321 485 226ZM120 226Q120 139 165 88Q205 43 266 43Q332 43
372 93T413 226Q413 312 369 364Q329 412 267 412Q201 412 161 361T120 226ZM154 562L127 579Q152 655 210 655Q238 655 279 630Q311 611 325 611Q352 611 374 656L402 638Q376 562 323 562Q301 562 265 582Q262 583 256 587Q226 605 210 605Q194 605 177 592T154
562Z" />
<glyph unicode="&#xf6;" glyph-name="odieresis" horiz-adv-x="538" d="M485 226Q485 118 417 49Q356 -12 267 -12Q164 -12 101 66Q48 132 48 226Q48 336 114 404Q174 466 267 466Q372 466 434 387Q485 321 485 226ZM120 226Q120 139 165 88Q205 43 266 43Q332
43 372 93T413 226Q413 312 369 364Q329 412 267 412Q201 412 161 361T120 226ZM150 602Q150 620 163 632T194 645Q212 645 225 632T238 602Q238 583 225 571T194 558Q175 558 163 570T150 602ZM301 602Q301 619 314 632T345 645Q363 645 376 632T389 602Q389 583
376 571T345 558Q326 558 314 570T301 602Z" />
<glyph unicode="&#xf7;" glyph-name="divide" horiz-adv-x="390" d="M195 286Q155 286 155 327Q155 368 195 368Q235 368 235 327Q235 286 195 286ZM45 181V243H345V181H45ZM195 48Q155 48 155 89Q155 129 195 129Q235 129 235 89Q235 48 195 48Z" />
<glyph unicode="&#xf8;" glyph-name="oslash" horiz-adv-x="533" d="M189 2L175 -30H117L142 27Q48 94 48 226Q48 336 114 404Q174 466 267 466Q301 466 336 455L352 490H411L384 432Q485 366 485 226Q485 118 417 49Q356 -12 267 -12Q229 -12 189 2ZM358 375L213
54Q237 43 266 43Q332 43 372 93T413 226Q413 323 358 375ZM312 404Q290 412 267 412Q201 412 161 361T120 226Q120 136 169 86L312 404Z" />
<glyph unicode="&#xf9;" glyph-name="ugrave" horiz-adv-x="534" d="M444 454V0H392L386 52L383 51Q322 -12 235 -12Q162 -12 120 39T78 182V454H145V194Q145 47 255 47Q289 47 323 64T378 108V454H444ZM240 543L155 655H228L282 543H240Z" />
<glyph unicode="&#xfa;" glyph-name="uacute" horiz-adv-x="534" d="M444 454V0H392L386 52L383 51Q322 -12 235 -12Q162 -12 120 39T78 182V454H145V194Q145 47 255 47Q289 47 323 64T378 108V454H444ZM357 655L272 543H230L284 655H357Z" />
<glyph unicode="&#xfb;" glyph-name="ucircumflex" horiz-adv-x="534" d="M444 454V0H392L386 52L383 51Q322 -12 235 -12Q162 -12 120 39T78 182V454H145V194Q145 47 255 47Q289 47 323 64T378 108V454H444ZM238 655H286L363 543H308L263 611L261 610L214 543H160L238
655Z" />
<glyph unicode="&#xfc;" glyph-name="udieresis" horiz-adv-x="534" d="M444 454V0H392L386 52L383 51Q322 -12 235 -12Q162 -12 120 39T78 182V454H145V194Q145 47 255 47Q289 47 323 64T378 108V454H444ZM143 602Q143 620 155 632T187 645Q204 645 217 632T230
602Q230 583 218 571T187 558Q168 558 156 570T143 602ZM294 602Q294 619 306 632T337 645Q355 645 368 632T381 602Q381 583 369 571T337 558Q319 558 307 570T294 602Z" />
<glyph unicode="&#xfd;" glyph-name="yacute" horiz-adv-x="457" d="M442 454L244 -69Q199 -191 120 -191Q70 -191 20 -155L42 -119Q76 -137 102 -137Q152 -137 189 -44L207 0H190L15 454H86L230 69L370 454H442ZM326 650L241 538H199L253 650H326Z" />
<glyph unicode="&#xfe;" glyph-name="thorn" horiz-adv-x="541" d="M78 609L146 644V397Q199 466 289 466Q388 466 444 392Q492 330 492 236Q492 112 422 44Q366 -12 284 -12Q200 -12 146 44V-185H78V609ZM146 318V127Q155 92 191 68T267 43Q335 43 377 93T419
226Q419 319 374 369Q335 411 274 411Q233 411 193 382T146 318Z" />
<glyph unicode="&#xff;" glyph-name="ydieresis" horiz-adv-x="457" d="M442 454L244 -69Q199 -191 120 -191Q70 -191 20 -155L42 -119Q76 -137 102 -137Q152 -137 189 -44L207 0H190L15 454H86L230 69L370 454H442ZM111 602Q111 620 123 632T155 645Q172 645
185 632T198 602Q198 583 186 571T155 558Q136 558 124 570T111 602ZM262 602Q262 619 274 632T305 645Q323 645 336 632T349 602Q349 583 337 571T305 558Q287 558 275 570T262 602Z" />
<glyph unicode="&#x2013;" glyph-name="endash" horiz-adv-x="381" d="M70 171V233H311V171H70Z" />
<glyph unicode="&#x2014;" glyph-name="emdash" horiz-adv-x="622" d="M70 171V233H552V171H70Z" />
<glyph unicode="&#x2018;" glyph-name="quoteleft" horiz-adv-x="229" d="M123 547Q168 547 168 502V501V500Q168 478 155 465T120 451Q70 451 70 514V619L101 631V547H123Z" />
<glyph unicode="&#x2019;" glyph-name="quoteright" horiz-adv-x="229" d="M106 543Q61 543 61 588Q61 589 61 590Q61 612 74 625T109 639Q159 639 159 576V471L128 459V543H106Z" />
<glyph unicode="&#x201a;" glyph-name="quotesinglbase" horiz-adv-x="229" d="M106 -1Q61 -1 61 44Q61 45 61 46Q61 67 74 81T109 95Q159 95 159 32V-73L128 -85V-1H106Z" />
<glyph unicode="&#x201c;" glyph-name="quotedblleft" horiz-adv-x="358" d="M123 547Q168 547 168 502V501V500Q168 478 155 465T120 451Q70 451 70 514V619L101 631V547H123ZM252 547Q297 547 297 502V501V500Q297 478 284 465T249 451Q199 451 199 514V619L230
631V547H252Z" />
<glyph unicode="&#x201d;" glyph-name="quotedblright" horiz-adv-x="359" d="M106 543Q61 543 61 588Q61 589 61 590Q61 612 74 625T109 639Q159 639 159 576V471L128 459V543H106ZM236 543Q191 543 191 588Q191 589 191 590Q191 612 204 625T239 639Q289 639
289 576V471L258 459V543H236Z" />
<glyph unicode="&#x201e;" glyph-name="quotedblbase" horiz-adv-x="359" d="M106 0Q61 0 61 45V47Q61 68 74 82T109 96Q159 96 159 33V-72L128 -84V0H106ZM236 0Q191 0 191 45V47Q191 68 204 82T239 96Q289 96 289 33V-72L258 -84V0H236Z" />
<glyph unicode="&#x2022;" glyph-name="bullet" horiz-adv-x="287" d="M144 150Q70 150 70 225Q70 300 144 300Q217 300 217 225Q217 150 144 150Z" />
<glyph unicode="&#x2039;" glyph-name="guilsinglleft" horiz-adv-x="300" d="M260 18Q201 32 143 90T50 230Q85 311 143 369T260 442V382Q166 336 118 230Q167 123 260 77V18Z" />
<glyph unicode="&#x203a;" glyph-name="guilsinglright" horiz-adv-x="300" d="M40 18V77Q134 124 182 230Q134 335 40 382V442Q99 427 157 369T250 230Q215 149 157 91T40 18Z" />
</font>
</defs>
</svg>
