<?xml version="1.0" standalone="no"?>
<!DOCTYPE svg PUBLIC "-//W3C//DTD SVG 1.1//EN" "http://www.w3.org/Graphics/SVG/1.1/DTD/svg11.dtd">
<svg xmlns="http://www.w3.org/2000/svg">
<defs >
<font id="Tajawal" horiz-adv-x="840" ><font-face
    font-family="Tajawal Black"
    units-per-em="1000"
    panose-1="0 0 5 0 0 0 0 0 0 0"
    ascent="643"
    descent="-357"
    alphabetic="0" />
<glyph unicode=" " glyph-name="space" horiz-adv-x="253" />
<glyph unicode="!" glyph-name="exclam" horiz-adv-x="323" d="M75 196V633H240V196H75ZM259 64Q259 63 259 62Q259 21 233 -4T164 -30Q121 -30 95 -4T68 65Q68 68 68 69Q71 108 97 132T164 156Q206 156 232 130T259 64Z" />
<glyph unicode="&quot;" glyph-name="quotedbl" horiz-adv-x="409" d="M70 399V582L187 645V462L70 399ZM222 399V582L339 645V462L222 399Z" />
<glyph unicode="#" glyph-name="numbersign" horiz-adv-x="470" d="M237 450H297L330 609H430L397 450H469V332H372L354 244H436V124H329L303 0H204L230 124H169L143 0H44L70 124H2V244H95L113 332H30V450H137L170 609H270L237 450ZM212 332L194 244H255L273 332H212Z" />
<glyph unicode="$" glyph-name="dollar" horiz-adv-x="557" d="M245 643V700H299V644Q393 640 489 577L423 480Q347 512 297 517Q297 489 297 461Q297 428 297 398L346 373Q430 331 466 289T502 189V186Q500 87 438 38Q383 -5 299 -11V-74H245V-11Q156 0 54 62L121
152Q185 127 242 127Q244 127 245 127V268Q149 310 109 355T69 469Q69 540 115 586T245 643ZM247 419Q248 441 248 467Q248 492 247 515Q211 503 211 466Q211 433 247 419ZM299 131Q341 139 341 191Q341 226 299 247V131Z" />
<glyph unicode="%" glyph-name="percent" horiz-adv-x="783" d="M303 412Q303 338 269 294T178 250Q118 250 84 293T50 411Q50 482 84 523T178 565Q233 565 268 523T303 412ZM218 410Q218 442 206 464T176 487Q158 487 146 465T134 410Q134 373 146 350T176 327Q194
327 206 350T218 410ZM190 0L481 565H598L307 0H190ZM733 156Q733 82 699 38T608 -6Q548 -6 514 37T480 155Q480 226 514 267T608 309Q663 309 698 267T733 156ZM648 154Q648 186 636 208T606 231Q588 231 576 209T564 154Q564 117 576 94T606 71Q624 71 636 94T648
154Z" />
<glyph unicode="&amp;" glyph-name="ampersand" horiz-adv-x="578" d="M368 329H515V290Q515 210 461 125Q508 70 577 0H408L385 29Q336 -12 235 -12Q134 -12 84 51Q47 98 47 163Q47 264 135 341Q99 390 87 417T75 480Q75 557 119 601T240 646Q332 646 416 574L360
487Q296 519 246 519H241Q194 519 194 471Q194 439 259 359L356 240Q368 260 368 302V303V329ZM297 134L207 249Q197 216 197 184Q197 120 252 120Q284 120 297 134Z" />
<glyph unicode="&apos;" glyph-name="quotesingle" horiz-adv-x="257" d="M70 399V582L187 645V462L70 399Z" />
<glyph unicode="(" glyph-name="parenleft" horiz-adv-x="422" d="M359 645Q298 572 258 463T217 262Q217 81 340 -129L347 -140H227L222 -135Q161 -87 120 28T78 262Q78 365 119 470T227 645H359Z" />
<glyph unicode=")" glyph-name="parenright" horiz-adv-x="422" d="M61 645H192Q259 576 300 471T342 262Q342 52 222 -109Q209 -126 192 -140H72L82 -126Q203 56 203 262Q203 354 163 463T61 645Z" />
<glyph unicode="*" glyph-name="asterisk" horiz-adv-x="321" d="M144 548L141 646Q162 642 211 629Q234 623 250 619Q242 608 227 584Q205 547 190 528L294 573L306 445Q299 447 282 452L276 454Q223 470 198 476Q211 462 234 436Q254 414 268 398Q246 390 204
372Q169 357 152 350Q151 363 151 379Q151 391 152 418Q152 441 152 454Q142 440 133 428Q107 390 94 370L21 463Q40 471 82 485Q104 492 119 498Q104 502 80 509Q37 521 15 529L84 629Q92 617 108 597Q133 564 144 548Z" />
<glyph unicode="+" glyph-name="plus" horiz-adv-x="491" d="M176 166H29V284H176V454H315V284H463V166H315V0H176V166Z" />
<glyph unicode="," glyph-name="comma" horiz-adv-x="286" d="M47 -27Q71 -20 88 -4Q54 16 54 66Q54 104 80 129T149 154Q186 154 212 124T239 49Q239 -28 189 -76Q160 -104 99 -122L47 -27Z" />
<glyph unicode="-" glyph-name="hyphen" horiz-adv-x="308" d="M297 178H12V296H297V178Z" />
<glyph unicode="." glyph-name="period" horiz-adv-x="331" d="M283 89Q283 88 283 87Q283 46 257 21T188 -5Q145 -5 119 21T92 90Q92 93 92 94Q95 133 121 157T188 181Q230 181 256 155T283 89Z" />
<glyph unicode="/" glyph-name="slash" horiz-adv-x="347" d="M387 633L75 -30H-38L271 633H387Z" />
<glyph unicode="0" glyph-name="zero" horiz-adv-x="572" d="M283 645Q401 645 475 533Q535 441 535 315Q535 164 458 71Q389 -12 283 -12Q161 -12 92 95Q35 184 35 315Q35 462 111 558Q180 645 283 645ZM286 514Q237 514 216 469T194 321Q194 224 220 167Q244
116 282 116Q326 116 351 170T376 321Q376 423 355 468T286 514Z" />
<glyph unicode="1" glyph-name="one" horiz-adv-x="420" d="M326 633V0H173V456Q160 447 136 433Q103 412 88 401Q70 432 37 487L22 512L17 521Q50 546 118 594L128 601Q157 622 173 633H326Z" />
<glyph unicode="2" glyph-name="two" horiz-adv-x="495" d="M49 0V129L177 279Q257 373 274 401T292 461Q292 484 274 500T229 516Q172 516 102 466L37 560Q144 646 262 646Q350 646 400 601Q451 556 451 470Q451 385 375 282Q345 240 238 122H448V0H49Z" />
<glyph unicode="3" glyph-name="three" horiz-adv-x="516" d="M134 274V397H224Q259 397 272 409T286 454Q286 482 270 499T228 517Q165 517 101 457L46 557Q134 645 241 645Q332 645 390 595Q445 547 445 468Q445 416 432 392T380 347Q467 307 467 203Q467 78
386 25Q330 -11 242 -11Q197 -11 133 17T34 80L95 174Q145 123 233 123Q308 123 308 199Q308 274 224 274H134Z" />
<glyph unicode="4" glyph-name="four" horiz-adv-x="556" d="M22 240Q153 440 281 633H430V240H529V118H430V0H277V118H22V240ZM151 240H277V439L151 240Z" />
<glyph unicode="5" glyph-name="five" horiz-adv-x="550" d="M461 511H249V407Q258 409 267 409Q501 409 501 205Q501 111 429 46Q363 -12 270 -12Q211 -12 151 14T48 83L112 183Q190 123 257 123Q345 123 345 195Q345 288 216 288Q161 288 96 269V633H461V511Z" />
<glyph unicode="6" glyph-name="six" horiz-adv-x="546" d="M474 578L422 480Q348 514 300 514Q257 514 230 483T202 401Q202 399 202 394Q250 415 294 415Q497 415 497 206Q497 118 441 55Q380 -12 272 -12Q48 -12 48 286Q48 645 296 645Q344 645 395 626T474
578ZM203 291V284V268Q203 259 203 253Q203 173 218 140T270 106Q296 106 317 136T338 206Q338 309 257 309Q227 309 203 291Z" />
<glyph unicode="7" glyph-name="seven" horiz-adv-x="438" d="M246 511H30V633H416V522L207 0H45L246 511Z" />
<glyph unicode="8" glyph-name="eight" horiz-adv-x="568" d="M185 316Q135 331 106 369T76 457Q76 550 149 603Q207 645 287 645Q379 645 438 589Q494 535 494 450Q494 403 464 367T386 319Q517 283 517 155Q517 67 440 23Q379 -12 284 -12Q175 -12 110 35Q48
80 48 157Q48 217 85 261T185 316ZM287 368Q309 375 327 402T345 455Q345 488 330 508T289 529Q262 529 244 508T226 455Q226 428 243 403T287 368ZM290 264Q207 234 207 169Q207 143 229 125T284 106Q358 106 358 166Q358 232 290 264Z" />
<glyph unicode="9" glyph-name="nine" horiz-adv-x="546" d="M76 55L128 153Q202 119 251 119Q294 119 321 150T348 232Q348 234 348 239Q301 218 257 218Q53 218 53 427Q53 515 110 578Q171 645 278 645Q502 645 502 347Q502 -12 255 -12Q206 -12 155 7T76 55ZM351
345Q351 527 278 527Q253 527 233 497T213 427Q213 324 293 324Q327 324 351 345Z" />
<glyph unicode=":" glyph-name="colon" horiz-adv-x="331" d="M283 329Q283 328 283 327Q283 286 257 261T188 235Q145 235 119 261T92 330Q92 333 92 334Q95 373 121 397T188 421Q230 421 256 395T283 329ZM283 89Q283 88 283 87Q283 46 257 21T188 -5Q145 -5
119 21T92 90Q92 93 92 94Q95 133 121 157T188 181Q230 181 256 155T283 89Z" />
<glyph unicode=";" glyph-name="semicolon" horiz-adv-x="286" d="M51 327Q54 369 78 394T142 419Q178 419 204 392T230 326Q230 291 204 266T142 240Q104 240 79 264T51 327ZM47 -27Q71 -20 88 -4Q54 16 54 66Q54 104 80 129T149 154Q186 154 212 124T239 49Q239
-28 189 -76Q160 -104 99 -122L47 -27Z" />
<glyph unicode="&lt;" glyph-name="less" horiz-adv-x="529" d="M491 -16L29 146V321L491 480V360L132 234L491 107V-16Z" />
<glyph unicode="=" glyph-name="equal" horiz-adv-x="520" d="M492 254H29V372H492V254ZM492 82H29V202H492V82Z" />
<glyph unicode="&gt;" glyph-name="greater" horiz-adv-x="529" d="M38 -16V107L397 234L38 360V480L500 321V146L38 -16Z" />
<glyph unicode="?" glyph-name="question" horiz-adv-x="410" d="M247 166H107V222Q107 226 107 234Q107 240 107 243Q107 286 121 312T177 369Q239 415 239 477Q239 502 222 518T177 535Q155 535 127 521T86 491L29 573Q96 645 208 645Q295 645 342 583Q376 538
376 477Q376 371 301 313Q247 271 247 219V166ZM104 61Q104 94 126 117T182 140Q212 140 234 117T256 61Q256 31 234 10T182 -12Q149 -12 127 9T104 61Z" />
<glyph unicode="@" glyph-name="at" horiz-adv-x="694" d="M431 -78L435 -172Q393 -176 359 -176H355Q210 -173 118 -74Q35 16 35 152Q35 303 139 392Q227 466 354 466Q486 466 576 381Q660 302 660 183Q660 105 621 50Q577 -12 497 -12Q455 -12 429 3T402 44Q377
8 359 -2T302 -12Q252 -12 216 31T180 135Q180 221 237 271Q281 310 335 310Q367 310 379 299L389 311H486V122V119Q486 84 500 84Q545 84 545 183Q545 276 474 330Q420 370 354 370Q258 370 203 306Q154 249 154 155Q154 20 249 -40Q310 -78 398 -81H399Q400 -81
401 -81Q417 -81 431 -78ZM365 218Q347 220 340 220Q306 220 306 149Q306 87 336 87Q354 87 359 97T365 137V218Z" />
<glyph unicode="A" glyph-name="A" horiz-adv-x="597" d="M237 633H361L596 0H440Q417 78 402 125H194Q165 39 155 0H2L237 633ZM301 427Q272 349 239 252H359Q338 316 301 427Z" />
<glyph unicode="B" glyph-name="B" horiz-adv-x="564" d="M77 1V632Q150 645 269 645Q398 645 462 584Q512 536 512 457Q512 413 472 376T387 338Q384 338 380 338V337Q448 330 488 288T528 178Q528 82 445 32Q373 -12 250 -12Q146 -12 77 1ZM231 518V395H293Q331
395 346 409T362 457Q362 523 276 523Q253 523 231 518ZM231 273V117Q256 106 285 106Q369 106 369 179Q369 273 284 273H231Z" />
<glyph unicode="C" glyph-name="C" horiz-adv-x="580" d="M535 557L476 458Q402 514 347 514Q278 514 237 459T196 310Q196 241 234 186Q279 123 360 123Q408 123 484 170L543 77Q461 -12 341 -12Q170 -12 90 113Q37 197 37 310Q37 468 115 556Q194 645 342 645Q434
645 535 557Z" />
<glyph unicode="D" glyph-name="D" horiz-adv-x="639" d="M77 1V632Q87 636 150 640T258 645Q432 645 525 544Q602 460 602 323Q602 152 501 66Q410 -12 242 -12Q139 -12 77 1ZM231 518V112Q249 108 266 108H268Q442 111 442 319Q442 423 384 478Q337 521 265
521Q250 521 231 518Z" />
<glyph unicode="E" glyph-name="E" horiz-adv-x="558" d="M73 633H504V511H227V386H457V264H227V122H517V0H73V633Z" />
<glyph unicode="F" glyph-name="F" horiz-adv-x="545" d="M73 0V633H504V511H227V385H457V263H227V0H73Z" />
<glyph unicode="G" glyph-name="G" horiz-adv-x="614" d="M535 557L476 458Q402 514 336 514Q277 514 237 455T196 311Q196 221 253 164Q299 118 356 118Q395 118 414 126V232H301V365H558V56Q480 14 436 1T324 -12Q168 -12 92 106Q37 191 37 315Q37 465 124 559Q204
645 328 645Q384 645 440 621T535 557Z" />
<glyph unicode="H" glyph-name="H" horiz-adv-x="711" d="M77 0V633H228V386H480V633H634V0H480V264H228V0H77Z" />
<glyph unicode="I" glyph-name="I" horiz-adv-x="305" d="M228 633V0H77V633H228Z" />
<glyph unicode="J" glyph-name="J" horiz-adv-x="283" d="M206 633V-20Q206 -168 61 -168Q-28 -168 -98 -112L-47 -27Q-4 -55 33 -55Q55 -55 55 -13V633H206Z" />
<glyph unicode="K" glyph-name="K" horiz-adv-x="656" d="M221 633V379L222 381L397 633H586L368 335Q503 177 648 0H443Q353 120 226 289H221V0H77V633H221Z" />
<glyph unicode="L" glyph-name="L" horiz-adv-x="504" d="M77 0V633H231V122H463V0H77Z" />
<glyph unicode="M" glyph-name="M" horiz-adv-x="865" d="M788 633V0H633V510Q581 256 496 0H364Q353 42 319 151Q233 432 228 503V0H77V633H297Q390 338 428 180Q450 268 492 411Q532 545 556 633H788Z" />
<glyph unicode="N" glyph-name="N" horiz-adv-x="749" d="M77 0V633H203Q431 345 519 228V633H673V0H543Q376 195 228 391V0H77Z" />
<glyph unicode="O" glyph-name="O" horiz-adv-x="659" d="M330 645Q479 645 560 528Q623 436 623 307Q623 158 541 70Q463 -12 330 -12Q178 -12 99 94Q37 178 37 307Q37 458 119 553Q198 645 330 645ZM330 116Q463 116 463 307Q463 409 424 464Q389 514 330 514Q266
514 231 460T196 307Q196 116 330 116Z" />
<glyph unicode="P" glyph-name="P" horiz-adv-x="550" d="M77 0V632Q84 635 155 640T265 645Q514 645 514 445Q514 310 422 251Q366 216 298 216Q281 216 254 220Q229 223 231 225V0H77ZM231 349Q254 339 285 339Q314 339 333 365T352 432Q352 520 285 521H281Q248
521 231 514V349Z" />
<glyph unicode="Q" glyph-name="Q" horiz-adv-x="674" d="M508 37Q566 -30 637 -107H457L377 -11Q360 -12 330 -12Q178 -12 99 92Q37 174 37 301Q37 462 123 558Q202 645 330 645Q480 645 560 526Q623 433 623 301Q623 126 508 37ZM196 301Q196 116 330 116Q463
116 463 301Q463 407 424 463Q389 514 330 514Q265 514 231 459T196 301Z" />
<glyph unicode="R" glyph-name="R" horiz-adv-x="582" d="M77 0V632Q84 635 155 640T265 645Q514 645 514 445Q514 334 437 260Q478 161 558 0H403Q355 112 302 219Q286 216 278 216Q249 216 231 223V0H77ZM231 349Q256 339 290 339Q352 339 352 445Q352 521 286
521Q231 521 231 514V349Z" />
<glyph unicode="S" glyph-name="S" horiz-adv-x="546" d="M37 69L106 164Q161 125 251 125Q345 125 345 196Q345 239 227 279Q63 336 63 468Q63 550 124 599Q181 645 277 645Q386 645 486 576Q465 544 420 481Q329 516 273 516Q207 516 207 467Q207 430 314 386Q413
345 457 298T502 187Q502 85 426 32Q365 -12 272 -12Q164 -12 37 69Z" />
<glyph unicode="T" glyph-name="T" horiz-adv-x="550" d="M191 511H12V633H538V511H346V0H191V511Z" />
<glyph unicode="U" glyph-name="U" horiz-adv-x="656" d="M77 633H232V250Q232 116 328 116Q428 116 428 250V633H579V267Q579 -12 328 -12Q77 -12 77 267V633Z" />
<glyph unicode="V" glyph-name="V" horiz-adv-x="583" d="M290 252L424 633H581L349 0H233L2 633H158L290 252Z" />
<glyph unicode="W" glyph-name="W" horiz-adv-x="770" d="M464 633Q509 446 560 251L613 633H768L628 0H504Q456 181 384 409Q308 167 262 0H136L2 633H156L206 251Q274 507 306 633H464Z" />
<glyph unicode="X" glyph-name="X" horiz-adv-x="634" d="M630 633Q545 506 424 321Q490 214 624 0H449L317 244Q252 127 184 0H5L213 324Q108 503 27 633H206Q255 542 325 419Q372 497 451 633H630Z" />
<glyph unicode="Y" glyph-name="Y" horiz-adv-x="592" d="M2 633H168Q233 497 298 363L424 633H590L375 251V0H220V251Q105 451 2 633Z" />
<glyph unicode="Z" glyph-name="Z" horiz-adv-x="493" d="M475 633V507L211 122H482V0H12V106L293 511H21V633H475Z" />
<glyph unicode="[" glyph-name="bracketleft" horiz-adv-x="385" d="M327 -140H78V645H327V532H221V-32H327V-140Z" />
<glyph unicode="\" glyph-name="backslash" horiz-adv-x="347" d="M-51 633H66L374 -30H261L-51 633Z" />
<glyph unicode="]" glyph-name="bracketright" horiz-adv-x="387" d="M59 645H310V-140H59V-32H163V532H59V645Z" />
<glyph unicode="^" glyph-name="asciicircum" horiz-adv-x="469" d="M447 295H311L232 426L170 295H22L179 609H290L447 295Z" />
<glyph unicode="_" glyph-name="underscore" horiz-adv-x="409" d="M418 -150H-8V-30H418V-150Z" />
<glyph unicode="`" glyph-name="grave" horiz-adv-x="247" d="M12 655H156L236 495H131L12 655Z" />
<glyph unicode="a" glyph-name="a" horiz-adv-x="506" d="M444 0H323L313 41Q263 -12 186 -12Q35 -12 35 137Q35 210 97 250Q164 293 297 293H298V294Q298 331 286 342T233 354Q163 354 109 312Q88 347 66 390Q125 433 171 449T279 466Q356 466 400 411Q444 357
444 262V0ZM293 205Q245 205 215 187T184 140V139Q187 94 221 93H223Q251 93 271 112T293 159V205Z" />
<glyph unicode="b" glyph-name="b" horiz-adv-x="580" d="M65 0V559L215 645V401Q237 438 280 456Q306 468 338 468Q439 468 494 401Q546 341 546 236Q546 102 470 37Q413 -12 326 -12Q246 -12 198 44L188 0H65ZM215 182Q216 142 241 116T302 89Q386 89 386 226Q386
289 365 325T308 361Q258 361 237 336T215 249V182Z" />
<glyph unicode="c" glyph-name="c" horiz-adv-x="486" d="M454 393L408 313Q357 363 300 363Q250 363 219 324T187 222Q187 165 217 129T294 92Q360 92 405 146L458 65Q379 -12 283 -12Q164 -12 95 62Q35 126 35 225Q35 335 112 405Q179 466 277 466Q396 466 454 393Z" />
<glyph unicode="d" glyph-name="d" horiz-adv-x="574" d="M359 434V560L509 643V0H388L367 48Q353 23 318 6T246 -12Q136 -12 80 58Q35 115 35 207Q35 343 113 414Q171 466 248 466Q314 466 359 434ZM359 286Q344 362 282 362Q237 362 212 327T187 228Q187 93
264 93Q312 93 341 140Q359 169 359 191V286Z" />
<glyph unicode="e" glyph-name="e" horiz-adv-x="540" d="M505 179H198Q201 145 230 119T294 93H301Q361 93 436 135L471 57Q441 28 386 8T283 -12Q164 -12 98 52Q35 114 35 225Q35 332 107 402Q174 466 277 466Q387 466 449 397Q505 335 505 234V179ZM189 282H357Q352
363 274 363Q200 363 189 282Z" />
<glyph unicode="f" glyph-name="f" horiz-adv-x="396" d="M29 333V454H102V512Q102 582 132 613T228 645Q319 645 395 583L339 505Q295 535 277 535Q252 535 252 494V454H378V333H252V0H102V333H29Z" />
<glyph unicode="g" glyph-name="g" horiz-adv-x="580" d="M364 59Q319 -12 238 -12Q139 -12 85 58Q40 116 40 207Q40 343 119 414Q177 466 253 466Q318 466 363 435Q391 415 391 404L401 454H516V49Q516 -61 459 -125Q400 -191 292 -191Q173 -191 96 -115L132
-41Q192 -79 269 -79Q320 -79 342 -47T364 60V59ZM364 286Q361 317 339 339T287 362Q243 362 218 327T193 228Q193 93 272 93Q312 93 338 123T365 199Q365 205 364 210V286Z" />
<glyph unicode="h" glyph-name="h" horiz-adv-x="560" d="M65 562L215 645V398Q218 409 238 426T279 454Q310 468 335 468Q424 468 462 421T501 265V0H351V260Q351 341 281 341Q234 341 215 317V0H65V562Z" />
<glyph unicode="i" glyph-name="i" horiz-adv-x="296" d="M60 582V584Q60 621 85 647T146 674Q184 674 210 648T237 584V582Q237 498 146 494Q60 500 60 582ZM226 454V0H74V454H226Z" />
<glyph unicode="j" glyph-name="j" horiz-adv-x="299" d="M59 582V584Q60 621 85 647T145 674H146Q184 674 210 648T236 584V582Q236 498 145 494Q59 500 59 582ZM225 454V-58Q225 -128 198 -158Q167 -191 93 -191Q-1 -191 -77 -131L-28 -56Q19 -83 53 -83H54Q75
-83 75 -42V454H225Z" />
<glyph unicode="k" glyph-name="k" horiz-adv-x="537" d="M531 454L310 269Q435 68 479 0H313Q249 134 215 202V0H65V567L215 645V361Q265 398 333 454H531Z" />
<glyph unicode="l" glyph-name="l" horiz-adv-x="279" d="M215 645V0H65V567L215 645Z" />
<glyph unicode="m" glyph-name="m" horiz-adv-x="911" d="M203 411Q245 444 274 455T347 466Q408 466 455 440T521 371Q540 412 589 439T692 466Q775 466 813 420T852 272V0H700V229Q700 291 682 316T619 342Q564 342 530 298L526 0H376V247Q376 301 358 322T292
343Q238 343 215 322V0H65V454H193L203 411Z" />
<glyph unicode="n" glyph-name="n" horiz-adv-x="562" d="M209 411Q227 432 267 449T342 466Q430 466 466 421T502 265V0H351V260Q351 341 279 341Q231 341 215 322V0H65V454H193L209 411Z" />
<glyph unicode="o" glyph-name="o" horiz-adv-x="527" d="M264 466Q378 466 441 387Q493 322 493 226Q493 114 412 44Q347 -12 263 -12Q167 -12 98 61Q35 128 35 226Q35 337 102 404Q164 466 264 466ZM187 226Q187 98 265 98Q341 98 341 226Q341 362 264 362Q187
362 187 226Z" />
<glyph unicode="p" glyph-name="p" horiz-adv-x="554" d="M212 17V-177H65V454H177L190 413Q228 466 300 466Q409 466 469 393Q520 332 520 236Q520 110 442 41Q382 -12 299 -12Q266 -12 233 4Q223 9 216 14Q211 17 212 17ZM212 179Q212 139 230 114T278 89Q316
89 340 127T364 226Q364 287 343 324T285 361Q212 361 212 255V179Z" />
<glyph unicode="q" glyph-name="q" horiz-adv-x="558" d="M342 -176V46Q330 22 299 5T234 -12Q129 -12 77 61Q35 119 35 212Q35 339 108 410Q166 466 246 466Q291 466 314 454T368 404L373 454H493V-176H342ZM342 285Q342 317 321 339T269 362Q185 362 185 228Q185
93 269 93Q342 93 342 209V285Z" />
<glyph unicode="r" glyph-name="r" horiz-adv-x="440" d="M192 454L205 419Q210 435 239 450T293 466Q389 466 437 367L310 301Q281 342 247 342Q220 342 212 315V0H65V454H192Z" />
<glyph unicode="s" glyph-name="s" horiz-adv-x="435" d="M35 55L91 138Q134 93 216 93Q236 93 250 104T264 133Q264 171 208 178Q134 188 93 228T52 328Q52 387 100 426T221 466Q322 466 396 406L341 327Q294 362 228 362Q195 362 195 330V329V327Q195 300 246
288Q328 269 358 244Q400 208 400 131Q400 65 354 27T229 -12Q113 -12 35 55Z" />
<glyph unicode="t" glyph-name="t" horiz-adv-x="420" d="M343 122L392 47Q311 -18 212 -18Q147 -18 119 13T90 117V334H29V454H91V528Q151 560 242 608V454H367V334H241V139Q241 137 240 132Q240 129 240 127Q240 92 264 92Q290 92 343 122Z" />
<glyph unicode="u" glyph-name="u" horiz-adv-x="546" d="M357 52Q351 27 310 8T224 -12Q134 -12 100 30T65 182V454H212V223Q212 157 226 134T280 110Q293 110 311 117T331 129V454H481V0H371L357 52Z" />
<glyph unicode="v" glyph-name="v" horiz-adv-x="482" d="M291 0H181L2 454H151L233 184L324 454H480Q402 273 291 0Z" />
<glyph unicode="w" glyph-name="w" horiz-adv-x="699" d="M287 0H160L2 454H151L222 183Q247 318 272 454H420Q437 351 470 183L544 454H698L530 0H402Q363 174 343 254Q310 105 287 0Z" />
<glyph unicode="x" glyph-name="x" horiz-adv-x="496" d="M491 454Q439 379 332 226L496 0H332L253 121L161 0H-1Q114 139 183 223Q139 291 28 454H187Q221 393 258 333Q305 409 332 454H491Z" />
<glyph unicode="y" glyph-name="y" horiz-adv-x="489" d="M488 454L300 -65Q254 -191 166 -191Q92 -191 15 -126Q39 -87 54 -56Q93 -82 123 -82Q139 -82 156 -59T182 0H154L2 454H149Q185 328 234 174L340 454H488Z" />
<glyph unicode="z" glyph-name="z" horiz-adv-x="430" d="M418 0H12V121L231 334H25V454H412V331L189 118H418V0Z" />
<glyph unicode="{" glyph-name="braceleft" horiz-adv-x="405" d="M362 -29V-139H309Q196 -139 163 -99Q133 -63 133 37V100Q133 155 113 175T35 195V301Q133 301 133 404V468Q133 581 173 615Q209 644 309 644H362V534H336Q333 534 327 534Q321 534 319 534Q292
534 283 521T274 468V404Q274 276 215 248Q248 234 261 201T274 100V37Q274 -3 283 -16T319 -29Q321 -29 328 -29Q333 -29 336 -29H362Z" />
<glyph unicode="|" glyph-name="bar" horiz-adv-x="293" d="M216 662V-179H77V662H216Z" />
<glyph unicode="}" glyph-name="braceright" horiz-adv-x="405" d="M44 536V646H96Q209 646 243 606Q273 570 273 469V405Q273 302 371 302V197Q314 197 294 177T273 102V39Q273 -74 232 -108Q197 -137 96 -137H44V-27H69Q72 -27 79 -27Q84 -28 87 -28Q114 -28
122 -15T131 39V102Q131 170 144 203T191 250Q131 277 131 405V469Q131 509 123 522T87 536Q84 536 78 536Q72 536 69 536H44Z" />
<glyph unicode="~" glyph-name="asciitilde" horiz-adv-x="544" d="M442 330L515 275Q484 163 364 163Q331 163 246 198Q193 221 175 221Q129 221 105 161L29 217Q57 326 163 326Q189 326 256 302Q264 299 268 298Q352 268 376 268Q398 268 411 281T442 330Z" />
<glyph unicode="&#xa0;" glyph-name="space" horiz-adv-x="253" />
<glyph unicode="&#xa1;" glyph-name="exclamdown" horiz-adv-x="323" d="M75 268H240V-169H75V268ZM259 400Q259 360 233 334T164 308Q124 308 98 332T68 395Q68 397 68 400Q68 442 94 468T164 494Q206 494 232 469T259 402V400Z" />
<glyph unicode="&#xa2;" glyph-name="cent" horiz-adv-x="489" d="M289 -15V-52H237V-11Q137 3 82 75Q35 137 35 225Q35 320 98 388Q153 448 237 462V512H289V464Q374 458 454 393L424 313Q360 362 291 362H289V93H291Q355 93 415 149L458 65Q391 -7 289 -15ZM237
105V352Q187 318 187 222Q187 142 237 105Z" />
<glyph unicode="&#xa3;" glyph-name="sterling" horiz-adv-x="542" d="M391 271H246V122H459V0H31V122H93V271H29V381H93L92 426V427Q92 645 311 645Q365 645 408 626T527 550L469 458Q379 517 324 517Q246 517 246 431V381H391V271Z" />
<glyph unicode="&#xa4;" glyph-name="currency" horiz-adv-x="476" d="M412 82L339 153Q298 131 246 131Q192 131 155 152L84 82Q81 79 77 79Q65 79 48 97T30 127Q30 130 32 132L99 198Q65 246 65 302Q65 362 98 404L32 469Q30 471 30 474Q30 486 47 504T77 522Q81
522 84 519L153 451Q194 474 246 474Q300 474 343 451L412 519Q415 522 419 522Q431 522 448 504T466 474Q466 471 464 469L396 402Q426 359 426 302Q426 248 394 201L464 132Q466 130 466 127Q466 115 449 97T419 79Q415 79 412 82ZM166 302Q166 265 188 242T247
218Q281 218 303 242T325 305Q324 342 303 365T247 388Q212 388 190 365T166 304Q166 303 166 302Z" />
<glyph unicode="&#xa5;" glyph-name="yen" horiz-adv-x="592" d="M2 633H168Q217 527 294 372H303L424 633H590L443 372H530V254H377L375 251V202H530V82H375V0H220V82H67V202H220V251Q219 251 219 254H67V372H151L2 633Z" />
<glyph unicode="&#xa6;" glyph-name="brokenbar" horiz-adv-x="279" d="M71 239H209V-178H71V239ZM209 662V277H71V662H209Z" />
<glyph unicode="&#xa7;" glyph-name="section" horiz-adv-x="469" d="M50 -79L104 -4Q152 -40 218 -40Q248 -40 267 -24T286 18Q286 43 272 57T218 90Q208 94 186 101L183 103Q174 106 169 108Q98 135 74 157Q37 192 37 255Q37 294 59 330T115 380Q52 419 52 498Q52
562 104 603T237 645Q327 645 400 588L352 509Q306 544 236 544Q186 544 186 497Q186 440 302 398Q433 351 433 231Q433 165 380 129Q406 100 413 79T421 15Q421 -52 364 -97Q311 -140 232 -140Q119 -140 50 -79ZM301 177Q307 190 307 218Q307 259 287 282T214
323Q198 329 192 332Q169 297 169 267Q169 209 261 191L301 177Z" />
<glyph unicode="&#xa8;" glyph-name="dieresis" horiz-adv-x="393" d="M21 568Q21 600 43 622T99 645Q127 645 149 622T172 568Q172 536 151 514T99 491Q63 491 42 512T21 568ZM218 568Q218 599 240 622T293 645Q325 645 348 622T371 568Q371 534 349 513T293
491Q261 491 240 513T218 568Z" />
<glyph unicode="&#xa9;" glyph-name="copyright" horiz-adv-x="672" d="M468 459L439 402Q391 430 351 430Q312 430 288 396T264 308Q264 256 290 224T360 191Q402 191 445 224L474 173Q427 122 352 122Q262 122 209 170Q157 219 157 307Q157 396 219 453Q272
502 345 502Q401 502 468 459ZM35 315Q35 448 135 539Q221 617 336 617Q470 617 560 517Q638 431 638 315Q638 182 538 92Q452 14 336 14Q203 14 113 114Q35 200 35 315ZM117 312Q117 214 189 148Q252 90 340 90Q438 90 508 164Q570 228 570 312Q570 412 495 481Q430
540 346 540Q245 540 176 464Q117 399 117 312Z" />
<glyph unicode="&#xaa;" glyph-name="ordfeminine" horiz-adv-x="262" d="M239 406H178L174 436Q148 400 90 400Q61 400 41 422T20 473Q20 510 55 535T142 560H169V562Q169 586 135 586Q97 586 62 568L48 611Q90 645 146 645Q239 645 239 544V406ZM168 518H149Q87
518 87 476Q87 449 121 449Q168 449 168 491V518Z" />
<glyph unicode="&#xab;" glyph-name="guillemotleft" horiz-adv-x="718" d="M357 -10Q351 -10 344 -10Q251 -10 163 70Q87 139 50 238Q93 353 184 424Q263 486 344 486Q351 486 357 486V341Q258 309 221 238Q258 167 357 135V-10ZM678 -10Q672 -10 665 -10Q572
-10 484 70Q408 139 371 238Q414 353 505 424Q584 486 665 486Q672 486 678 486V341Q579 309 542 238Q579 167 678 135V-10Z" />
<glyph unicode="&#xac;" glyph-name="logicalnot" horiz-adv-x="482" d="M303 0V135H29V253H454V0H303Z" />
<glyph unicode="&#xae;" glyph-name="registered" horiz-adv-x="383" d="M191 470H185V410H134V567H213Q265 567 265 520Q265 496 237 477L278 410H219L191 470ZM185 524V501H188H196Q217 501 217 512Q217 524 191 524H185ZM194 322Q122 322 74 376Q32 422 32
484Q32 556 86 604Q132 647 194 647Q265 647 312 593Q352 546 352 484Q352 412 300 364Q256 322 194 322ZM194 608Q140 608 108 575T75 484Q75 428 107 395T194 361Q249 361 280 394T312 484Q312 538 279 573T194 608Z" />
<glyph unicode="&#xaf;" glyph-name="overscore" horiz-adv-x="267" d="M265 525H3V633H265V525Z" />
<glyph unicode="&#xb0;" glyph-name="degree" horiz-adv-x="264" d="M12 543Q16 596 49 629T133 663Q181 663 217 627T253 543Q253 494 217 458T133 421Q84 421 50 455T12 543ZM90 544Q93 501 133 501Q150 501 163 514T176 544Q176 561 163 574T133 587Q93 587 90 544Z" />
<glyph unicode="&#xb1;" glyph-name="plusminus" horiz-adv-x="520" d="M193 226H29V343H193V454H331V343H492V226H331V125H193V226ZM492 0H29V113H492V0Z" />
<glyph unicode="&#xb2;" glyph-name="twosuperior" horiz-adv-x="392" d="M49 316V400Q216 460 216 521Q216 556 169 556Q136 556 96 526L44 580Q107 645 197 645Q274 645 308 594Q328 564 328 528V527Q327 488 300 454T228 401H321V316H49Z" />
<glyph unicode="&#xb3;" glyph-name="threesuperior" horiz-adv-x="394" d="M140 520H173Q216 520 216 539Q216 558 193 558Q159 558 114 532L62 582Q125 645 205 645Q263 645 298 622T333 561Q333 502 251 487Q291 483 314 461T338 405Q338 362 309 338T226 314H222Q120
314 62 376Q102 413 120 430Q165 400 197 400Q221 400 221 420Q221 440 166 440H140V520Z" />
<glyph unicode="&#xb4;" glyph-name="acute" horiz-adv-x="247" d="M236 655L117 495H12L91 655H236Z" />
<glyph unicode="&#xb5;" glyph-name="mu" horiz-adv-x="614" d="M65 -182V454H210V241Q210 162 227 129T286 96Q319 96 363 113V454H510V123Q510 100 523 100Q537 100 556 112L604 44Q580 19 539 3T459 -13Q428 -13 414 -6T382 27Q330 -12 282 -12Q235 -12 210
26V-182H65Z" />
<glyph unicode="&#xb6;" glyph-name="paragraph" horiz-adv-x="574" d="M498 0H385V633H498V0ZM357 633V0H244V356H201Q113 356 73 388T33 491Q33 559 74 596T190 633H357Z" />
<glyph unicode="&#xb7;" glyph-name="middot" horiz-adv-x="204" d="M26 376Q26 409 48 432T104 455Q134 455 156 432T178 376Q178 346 156 325T104 303Q71 303 49 324T26 376Z" />
<glyph unicode="&#xb8;" glyph-name="cedilla" horiz-adv-x="232" d="M62 10H169L157 -22L165 -23Q221 -31 221 -86Q221 -168 110 -168Q58 -168 12 -152L27 -95Q54 -103 79 -103Q116 -103 116 -80Q116 -53 70 -53Q53 -53 39 -55L62 10Z" />
<glyph unicode="&#xb9;" glyph-name="onesuperior" horiz-adv-x="348" d="M278 633V318H162V501L92 439L26 519L144 633H278Z" />
<glyph unicode="&#xba;" glyph-name="ordmasculine" horiz-adv-x="290" d="M150 645Q204 645 237 611T271 522Q271 468 238 434T151 400Q92 400 56 433T20 522Q20 578 55 611T150 645ZM174 522Q174 578 146 578Q116 578 116 522Q116 466 145 466Q174 466 174 522Z" />
<glyph unicode="&#xbb;" glyph-name="guillemotright" horiz-adv-x="718" d="M40 -10V135Q139 167 176 238Q139 309 40 341V486Q46 486 53 486Q146 486 234 406Q310 337 347 238Q304 123 213 52Q134 -10 53 -10Q46 -10 40 -10ZM361 -10V135Q460 167 497 238Q460
309 361 341V486Q367 486 374 486Q467 486 555 406Q631 337 668 238Q625 123 534 52Q455 -10 374 -10Q367 -10 361 -10Z" />
<glyph unicode="&#xbc;" glyph-name="onequarter" horiz-adv-x="965" d="M740 318H860V141H914V51H860V0H744V51H596V150L740 318ZM698 142H750V215L698 142ZM776 633Q634 393 387 -30H300L684 633H776ZM316 633V318H199V498L128 438L62 517L182 633H316Z" />
<glyph unicode="&#xbd;" glyph-name="onehalf" horiz-adv-x="906" d="M316 633V318H199V498L128 438L62 517L182 633H316ZM674 633L288 -30H201L585 633H674ZM556 -1V83Q723 143 723 204Q723 239 676 239Q643 239 602 209L551 263Q614 328 704 328Q781 328 815
277Q835 247 835 211V210Q834 171 807 137T735 84H828V-1H556Z" />
<glyph unicode="&#xbe;" glyph-name="threequarters" horiz-adv-x="942" d="M708 633L322 -30H234L618 633H708ZM144 520H173Q216 520 216 539Q216 558 193 558Q159 558 114 532L62 582Q125 645 205 645Q263 645 298 622T333 561Q333 502 251 487Q291 483 314
461T338 405Q338 362 309 338T226 314H222Q120 314 62 376Q102 413 120 430Q165 400 197 400Q221 400 221 420Q221 440 166 440H144V520ZM705 318H826V141H879V51H826V0H710V51H562V150L705 318ZM663 142H716V215L663 142Z" />
<glyph unicode="&#xbf;" glyph-name="questiondown" horiz-adv-x="416" d="M167 292H308V211Q308 163 295 138T236 80Q174 34 174 -25Q174 -47 193 -65T237 -83Q257 -83 286 -69T328 -40L384 -122Q317 -194 206 -194Q119 -194 72 -132Q37 -87 37 -28Q37 68 115
133Q167 176 167 222V292ZM315 390Q315 357 293 334T237 311Q207 311 185 334T163 390Q163 420 185 441T237 463Q270 463 292 442T315 390Z" />
<glyph unicode="&#xc0;" glyph-name="Agrave" horiz-adv-x="597" d="M122 823H266L345 663H240L122 823ZM237 633H361L596 0H440Q417 78 402 125H194Q165 39 155 0H2L237 633ZM301 427Q272 349 239 252H359Q338 316 301 427Z" />
<glyph unicode="&#xc1;" glyph-name="Aacute" horiz-adv-x="597" d="M468 823L349 663H244L323 823H468ZM237 633H361L596 0H440Q417 78 402 125H194Q165 39 155 0H2L237 633ZM301 427Q272 349 239 252H359Q338 316 301 427Z" />
<glyph unicode="&#xc2;" glyph-name="Acircumflex" horiz-adv-x="597" d="M254 823H347Q360 803 389 761Q434 695 455 663H349L303 740L304 738L250 663H146L254 823ZM237 633H361L596 0H440Q417 78 402 125H194Q165 39 155 0H2L237 633ZM301 427Q272 349 239
252H359Q338 316 301 427Z" />
<glyph unicode="&#xc3;" glyph-name="Atilde" horiz-adv-x="597" d="M204 655L152 692Q170 807 246 807Q271 807 304 782Q333 760 353 760Q365 760 372 768T399 816L452 776Q434 664 356 664Q325 664 293 683Q262 701 246 701Q226 701 209 666Q207 661 204 655ZM237
633H361L596 0H440Q417 78 402 125H194Q165 39 155 0H2L237 633ZM301 427Q272 349 239 252H359Q338 316 301 427Z" />
<glyph unicode="&#xc4;" glyph-name="Adieresis" horiz-adv-x="597" d="M127 736Q127 768 149 790T205 813Q233 813 255 790T278 736Q278 704 257 682T205 659Q170 659 149 680T127 736ZM324 736Q324 767 346 790T399 813Q431 813 454 790T477 736Q477 702 456
681T399 659Q367 659 346 681T324 736ZM237 633H361L596 0H440Q417 78 402 125H194Q165 39 155 0H2L237 633ZM301 427Q272 349 239 252H359Q338 316 301 427Z" />
<glyph unicode="&#xc5;" glyph-name="Aring" horiz-adv-x="597" d="M298 850Q338 850 365 822T393 755Q393 716 366 689T298 661Q259 661 232 688T204 755Q204 794 231 822T298 850ZM298 796Q257 793 257 755Q257 738 269 726T298 714Q316 714 328 726T340 755Q340
794 298 796ZM237 633H361L596 0H440Q417 78 402 125H194Q165 39 155 0H2L237 633ZM301 427Q272 349 239 252H359Q338 316 301 427Z" />
<glyph unicode="&#xc6;" glyph-name="AE" horiz-adv-x="888" d="M840 633V511H565V386H793V264H565V122H853V0H409V113H203L156 0H2L260 633H840ZM254 239H409V513H355Q306 385 254 239Z" />
<glyph unicode="&#xc7;" glyph-name="Ccedilla" horiz-adv-x="590" d="M236 -55L254 -4Q131 26 74 139Q35 216 35 310Q35 468 113 556Q192 645 340 645Q432 645 533 557L474 458Q400 514 345 514Q276 514 235 459T194 310Q194 241 232 186Q277 123 358 123Q406
123 482 170L541 77Q477 -3 359 -11L355 -22L364 -23Q419 -31 419 -86Q419 -168 309 -168Q256 -168 210 -152L225 -95Q227 -96 233 -97H234Q269 -103 278 -103Q314 -103 314 -80Q314 -53 269 -53Q250 -53 236 -55Z" />
<glyph unicode="&#xc8;" glyph-name="Egrave" horiz-adv-x="558" d="M69 633H500V511H223V386H453V264H223V122H513V0H69V633ZM131 826H276L355 666H250L131 826Z" />
<glyph unicode="&#xc9;" glyph-name="Eacute" horiz-adv-x="558" d="M69 633H500V511H223V386H453V264H223V122H513V0H69V633ZM434 819L316 659H211L290 819H434Z" />
<glyph unicode="&#xca;" glyph-name="Ecircumflex" horiz-adv-x="558" d="M69 633H500V511H223V386H453V264H223V122H513V0H69V633ZM237 823H330Q343 803 372 761Q417 695 437 663H332L286 740L287 738L233 663H128L237 823Z" />
<glyph unicode="&#xcb;" glyph-name="Edieresis" horiz-adv-x="558" d="M69 633H500V511H223V386H453V264H223V122H513V0H69V633ZM111 748Q111 780 133 802T189 824Q217 824 239 801T262 748Q262 715 241 693T189 670Q154 670 133 691T111 748ZM308 748Q308 778
330 801T383 824Q415 824 438 802T461 748Q461 713 440 692T383 670Q351 670 330 692T308 748Z" />
<glyph unicode="&#xcc;" glyph-name="Igrave" horiz-adv-x="305" d="M-16 825H128L208 665H103L-16 825ZM228 633V0H77V633H228Z" />
<glyph unicode="&#xcd;" glyph-name="Iacute" horiz-adv-x="305" d="M324 823L205 663H100L179 823H324ZM228 633V0H77V633H228Z" />
<glyph unicode="&#xce;" glyph-name="Icircumflex" horiz-adv-x="305" d="M106 834H200Q213 814 241 772Q287 706 307 674H202L156 751V749L102 674H-2L106 834ZM228 633V0H77V633H228Z" />
<glyph unicode="&#xcf;" glyph-name="Idieresis" horiz-adv-x="305" d="M-23 736Q-23 768 -1 790T55 813Q83 813 105 790T128 736Q128 704 107 682T55 659Q19 659 -2 680T-23 736ZM174 736Q174 767 196 790T249 813Q281 813 304 790T327 736Q327 702 305 681T249
659Q217 659 196 681T174 736ZM228 633V0H77V633H228Z" />
<glyph unicode="&#xd0;" glyph-name="Eth" horiz-adv-x="675" d="M102 268H28V381H102V626Q102 630 174 637T283 645Q455 645 548 544Q627 459 627 323Q627 154 528 66Q441 -12 289 -12Q249 -12 167 -5Q99 1 102 4V268ZM256 527V381H399V268H256V104Q273 104 289
104Q380 104 427 165Q468 220 468 319Q468 424 409 481Q360 528 286 528H283Q271 528 256 527Z" />
<glyph unicode="&#xd1;" glyph-name="Ntilde" horiz-adv-x="749" d="M265 680L213 716Q232 832 307 832Q332 832 365 806Q394 784 414 784Q427 784 434 793T460 841L513 800Q495 688 417 688Q387 688 354 707Q324 725 307 725Q287 725 270 690Q268 685 265 680ZM77
0V633H203Q431 345 519 228V633H673V0H543Q376 195 228 391V0H77Z" />
<glyph unicode="&#xd2;" glyph-name="Ograve" horiz-adv-x="659" d="M163 820H308L387 661H282L163 820ZM330 645Q479 645 560 528Q623 436 623 307Q623 158 541 70Q463 -12 330 -12Q178 -12 99 94Q37 178 37 307Q37 458 119 553Q198 645 330 645ZM330 116Q463
116 463 307Q463 409 424 464Q389 514 330 514Q266 514 231 460T196 307Q196 116 330 116Z" />
<glyph unicode="&#xd3;" glyph-name="Oacute" horiz-adv-x="659" d="M494 824L376 664H271L350 824H494ZM330 645Q479 645 560 528Q623 436 623 307Q623 158 541 70Q463 -12 330 -12Q178 -12 99 94Q37 178 37 307Q37 458 119 553Q198 645 330 645ZM330 116Q463
116 463 307Q463 409 424 464Q389 514 330 514Q266 514 231 460T196 307Q196 116 330 116Z" />
<glyph unicode="&#xd4;" glyph-name="Ocircumflex" horiz-adv-x="659" d="M287 827H380Q393 807 422 765Q467 699 487 667H382L336 743V742L283 667H178L287 827ZM330 645Q479 645 560 528Q623 436 623 307Q623 158 541 70Q463 -12 330 -12Q178 -12 99 94Q37 178
37 307Q37 458 119 553Q198 645 330 645ZM330 116Q463 116 463 307Q463 409 424 464Q389 514 330 514Q266 514 231 460T196 307Q196 116 330 116Z" />
<glyph unicode="&#xd5;" glyph-name="Otilde" horiz-adv-x="659" d="M233 655L181 692Q200 807 275 807Q300 807 334 782Q363 760 382 760Q395 760 402 768T428 816L481 776Q464 664 386 664Q355 664 323 683Q292 701 275 701Q256 701 239 666Q236 661 233 655ZM330
645Q479 645 560 528Q623 436 623 307Q623 158 541 70Q463 -12 330 -12Q178 -12 99 94Q37 178 37 307Q37 458 119 553Q198 645 330 645ZM330 116Q463 116 463 307Q463 409 424 464Q389 514 330 514Q266 514 231 460T196 307Q196 116 330 116Z" />
<glyph unicode="&#xd6;" glyph-name="Odieresis" horiz-adv-x="659" d="M161 746Q161 778 183 800T238 823Q266 823 289 799T312 746Q312 714 291 691T238 668Q203 668 182 689T161 746ZM358 746Q358 777 380 800T433 823Q464 823 487 800T511 746Q511 712 489
690T433 668Q400 668 379 690T358 746ZM330 645Q479 645 560 528Q623 436 623 307Q623 158 541 70Q463 -12 330 -12Q178 -12 99 94Q37 178 37 307Q37 458 119 553Q198 645 330 645ZM330 116Q463 116 463 307Q463 409 424 464Q389 514 330 514Q266 514 231 460T196
307Q196 116 330 116Z" />
<glyph unicode="&#xd7;" glyph-name="multiply" horiz-adv-x="530" d="M273 140L114 -18L22 71L183 232L31 385L123 473L270 323L417 478L507 385L357 231L505 67L416 -18L273 140Z" />
<glyph unicode="&#xd8;" glyph-name="Oslash" horiz-adv-x="659" d="M167 30Q90 80 57 175Q40 227 37 307Q37 458 119 553Q198 645 330 645Q404 642 452 620L465 645H583L539 554Q587 500 608 421Q620 376 623 307Q623 158 541 70Q463 -12 330 -12Q286 -10 264
-6L253 -30H138L167 30ZM324 116H330Q463 116 463 307Q461 356 455 388L324 116ZM392 496V496Q366 513 330 514Q266 514 231 460T196 307Q198 205 231 161Q316 342 392 496Z" />
<glyph unicode="&#xd9;" glyph-name="Ugrave" horiz-adv-x="656" d="M154 822H298L377 662H272L154 822ZM77 633H232V250Q232 116 328 116Q428 116 428 250V633H579V267Q579 -12 328 -12Q77 -12 77 267V633Z" />
<glyph unicode="&#xda;" glyph-name="Uacute" horiz-adv-x="656" d="M503 822L384 662H279L359 822H503ZM77 633H232V250Q232 116 328 116Q428 116 428 250V633H579V267Q579 -12 328 -12Q77 -12 77 267V633Z" />
<glyph unicode="&#xdb;" glyph-name="Ucircumflex" horiz-adv-x="656" d="M278 822H372Q385 802 413 760Q459 694 479 662H374L328 739V737L274 662H170L278 822ZM77 633H232V250Q232 116 328 116Q428 116 428 250V633H579V267Q579 -12 328 -12Q77 -12 77 267V633Z" />
<glyph unicode="&#xdc;" glyph-name="Udieresis" horiz-adv-x="656" d="M154 745Q154 777 176 799T232 822Q260 822 282 799T305 745Q305 713 284 691T232 668Q197 668 176 689T154 745ZM351 745Q351 776 373 799T426 822Q458 822 481 799T504 745Q504 711 483
690T426 668Q394 668 373 690T351 745ZM77 633H232V250Q232 116 328 116Q428 116 428 250V633H579V267Q579 -12 328 -12Q77 -12 77 267V633Z" />
<glyph unicode="&#xdd;" glyph-name="Yacute" horiz-adv-x="592" d="M443 818L324 658H219L298 818H443ZM2 633H168Q233 497 298 363L424 633H590L375 251V0H220V251Q105 451 2 633Z" />
<glyph unicode="&#xde;" glyph-name="Thorn" horiz-adv-x="561" d="M77 0V633H230V541H267Q511 541 511 334Q511 225 438 170Q379 125 287 125H285H231V0H77ZM231 426V243H285Q352 243 352 334Q352 377 333 401T279 426H278H231Z" />
<glyph unicode="&#xdf;" glyph-name="germandbls" horiz-adv-x="520" d="M236 7L262 93Q275 89 283 89Q309 89 309 176Q309 210 297 231T264 253H228V386H258Q283 386 292 404T302 470Q302 536 257 536Q212 536 212 470V0H65V455Q65 642 258 642Q356 642 412 585Q459
538 459 470Q459 414 425 373T342 330Q484 314 484 174Q484 -12 319 -12Q272 -12 236 7Z" />
<glyph unicode="&#xe0;" glyph-name="agrave" horiz-adv-x="506" d="M111 655H256L335 495H230L111 655ZM444 0H323L313 41Q263 -12 186 -12Q35 -12 35 137Q35 210 97 250Q164 293 297 293H298V294Q298 331 286 342T233 354Q163 354 109 312Q88 347 66 390Q125
433 171 449T279 466Q356 466 400 411Q444 357 444 262V0ZM293 205Q245 205 215 187T184 140V139Q187 94 221 93H223Q251 93 271 112T293 159V205Z" />
<glyph unicode="&#xe1;" glyph-name="aacute" horiz-adv-x="506" d="M414 655L296 495H191L270 655H414ZM444 0H323L313 41Q263 -12 186 -12Q35 -12 35 137Q35 210 97 250Q164 293 297 293H298V294Q298 331 286 342T233 354Q163 354 109 312Q88 347 66 390Q125
433 171 449T279 466Q356 466 400 411Q444 357 444 262V0ZM293 205Q245 205 215 187T184 140V139Q187 94 221 93H223Q251 93 271 112T293 159V205Z" />
<glyph unicode="&#xe2;" glyph-name="acircumflex" horiz-adv-x="506" d="M224 655H317Q330 635 359 593Q404 527 425 495H319L273 572L274 570L220 495H116L224 655ZM444 0H323L313 41Q263 -12 186 -12Q35 -12 35 137Q35 210 97 250Q164 293 297 293H298V294Q298
331 286 342T233 354Q163 354 109 312Q88 347 66 390Q125 433 171 449T279 466Q356 466 400 411Q444 357 444 262V0ZM293 205Q245 205 215 187T184 140V139Q187 94 221 93H223Q251 93 271 112T293 159V205Z" />
<glyph unicode="&#xe3;" glyph-name="atilde" horiz-adv-x="506" d="M157 500L104 536Q123 651 198 651Q224 651 257 626Q286 604 306 604Q318 604 325 613T351 661L405 620Q387 508 309 508Q278 508 246 527Q215 545 198 545Q179 545 162 510Q159 505 157 500ZM444
0H323L313 41Q263 -12 186 -12Q35 -12 35 137Q35 210 97 250Q164 293 297 293H298V294Q298 331 286 342T233 354Q163 354 109 312Q88 347 66 390Q125 433 171 449T279 466Q356 466 400 411Q444 357 444 262V0ZM293 205Q245 205 215 187T184 140V139Q187 94 221
93H223Q251 93 271 112T293 159V205Z" />
<glyph unicode="&#xe4;" glyph-name="adieresis" horiz-adv-x="506" d="M93 568Q93 600 115 622T171 645Q199 645 221 622T244 568Q244 536 223 514T171 491Q136 491 115 512T93 568ZM290 568Q290 599 312 622T365 645Q397 645 420 622T443 568Q443 534 422 513T365
491Q333 491 312 513T290 568ZM444 0H323L313 41Q263 -12 186 -12Q35 -12 35 137Q35 210 97 250Q164 293 297 293H298V294Q298 331 286 342T233 354Q163 354 109 312Q88 347 66 390Q125 433 171 449T279 466Q356 466 400 411Q444 357 444 262V0ZM293 205Q245 205
215 187T184 140V139Q187 94 221 93H223Q251 93 271 112T293 159V205Z" />
<glyph unicode="&#xe5;" glyph-name="aring" horiz-adv-x="506" d="M444 0H323L313 41Q263 -12 186 -12Q35 -12 35 137Q35 210 97 250Q164 293 297 293H298V294Q298 331 286 342T233 354Q163 354 109 312Q88 347 66 390Q125 433 171 449T279 466Q356 466 400 411Q444
357 444 262V0ZM293 205Q245 205 215 187T184 140V139Q187 94 221 93H223Q251 93 271 112T293 159V205ZM266 677Q305 677 332 650T360 583Q360 544 333 516T266 488Q226 488 199 516T171 583Q171 622 198 649T266 677ZM266 624Q224 621 224 583Q224 566 236 554T266
542Q283 542 295 554T307 583Q307 621 266 624Z" />
<glyph unicode="&#xe6;" glyph-name="ae" horiz-adv-x="806" d="M766 179H458Q462 93 561 93Q621 93 696 135L732 57Q702 28 647 8T543 -12Q486 -12 436 14T362 82Q302 -12 186 -12Q35 -12 35 137Q35 210 97 250Q164 293 297 293H298V294Q298 329 285 340T229
351Q164 351 110 310Q89 348 71 386Q140 436 180 451T285 466Q353 466 394 428Q457 466 538 466Q766 466 766 179ZM293 205Q247 205 216 187T184 143Q184 93 220 93Q250 93 271 112T293 159V205ZM449 287H617Q612 363 534 363Q461 363 449 287Z" />
<glyph unicode="&#xe7;" glyph-name="ccedilla" horiz-adv-x="486" d="M198 -55L214 -5Q126 16 78 84Q35 143 35 225Q35 335 112 405Q179 466 277 466Q396 466 454 393L408 313Q357 363 300 363Q250 363 219 324T187 222Q187 165 217 129T294 92Q360 92 405 146L458
65Q392 2 322 -9L317 -22L326 -23Q381 -31 381 -86Q381 -168 271 -168Q218 -168 172 -152L187 -95Q189 -96 195 -97H196Q231 -103 240 -103Q276 -103 276 -80Q276 -53 231 -53Q212 -53 198 -55Z" />
<glyph unicode="&#xe8;" glyph-name="egrave" horiz-adv-x="540" d="M111 655H255L335 495H230L111 655ZM505 179H198Q201 145 230 119T294 93H301Q361 93 436 135L471 57Q441 28 386 8T283 -12Q164 -12 98 52Q35 114 35 225Q35 332 107 402Q174 466 277 466Q387
466 449 397Q505 335 505 234V179ZM189 282H357Q352 363 274 363Q200 363 189 282Z" />
<glyph unicode="&#xe9;" glyph-name="eacute" horiz-adv-x="540" d="M434 655L316 495H211L290 655H434ZM505 179H198Q201 145 230 119T294 93H301Q361 93 436 135L471 57Q441 28 386 8T283 -12Q164 -12 98 52Q35 114 35 225Q35 332 107 402Q174 466 277 466Q387
466 449 397Q505 335 505 234V179ZM189 282H357Q352 363 274 363Q200 363 189 282Z" />
<glyph unicode="&#xea;" glyph-name="ecircumflex" horiz-adv-x="540" d="M226 655H320Q333 635 361 593Q407 527 427 495H322L276 572V570L222 495H118L226 655ZM505 179H198Q201 145 230 119T294 93H301Q361 93 436 135L471 57Q441 28 386 8T283 -12Q164 -12
98 52Q35 114 35 225Q35 332 107 402Q174 466 277 466Q387 466 449 397Q505 335 505 234V179ZM189 282H357Q352 363 274 363Q200 363 189 282Z" />
<glyph unicode="&#xeb;" glyph-name="edieresis" horiz-adv-x="540" d="M93 568Q93 600 115 622T170 645Q198 645 221 622T244 568Q244 536 223 514T170 491Q135 491 114 512T93 568ZM290 568Q290 599 312 622T365 645Q396 645 419 622T443 568Q443 534 421 513T365
491Q332 491 311 513T290 568ZM505 179H198Q201 145 230 119T294 93H301Q361 93 436 135L471 57Q441 28 386 8T283 -12Q164 -12 98 52Q35 114 35 225Q35 332 107 402Q174 466 277 466Q387 466 449 397Q505 335 505 234V179ZM189 282H357Q352 363 274 363Q200 363
189 282Z" />
<glyph unicode="&#xec;" glyph-name="igrave" horiz-adv-x="302" d="M-14 655H130L210 495H105L-14 655ZM229 454V0H78V454H229Z" />
<glyph unicode="&#xed;" glyph-name="iacute" horiz-adv-x="302" d="M325 655L206 495H101L180 655H325ZM230 454V0H78V454H230Z" />
<glyph unicode="&#xee;" glyph-name="icircumflex" horiz-adv-x="296" d="M102 655H196Q209 635 237 593Q283 527 303 495H198L152 572V570L98 495H-6L102 655ZM227 454V0H75V454H227Z" />
<glyph unicode="&#xef;" glyph-name="idieresis" horiz-adv-x="296" d="M-26 568Q-26 600 -4 622T52 645Q80 645 102 622T125 568Q125 536 104 514T52 491Q16 491 -5 512T-26 568ZM171 568Q171 599 193 622T246 645Q278 645 301 622T324 568Q324 534 302 513T246
491Q214 491 193 513T171 568ZM226 454V0H74V454H226Z" />
<glyph unicode="&#xf0;" glyph-name="eth" horiz-adv-x="531" d="M115 590L187 645Q267 625 315 611L421 661L497 581L409 542Q483 452 483 319Q483 164 423 76Q361 -12 248 -12Q138 -12 79 73Q35 139 35 230Q35 317 97 370Q150 416 226 416Q296 416 329 369Q330
382 330 398Q330 470 306 486L198 433L119 505L217 557Q182 570 115 590ZM330 271Q303 309 257 309Q224 309 206 282T187 207Q187 104 246 104Q286 104 303 138T330 271Z" />
<glyph unicode="&#xf1;" glyph-name="ntilde" horiz-adv-x="562" d="M189 497L136 534Q155 649 230 649Q256 649 289 624Q318 602 338 602Q350 602 357 610T383 658L437 618Q419 506 341 506Q310 506 278 525Q247 543 230 543Q211 543 194 508Q191 503 189 497ZM209
411Q227 432 267 449T342 466Q430 466 466 421T502 265V0H351V260Q351 341 279 341Q231 341 215 322V0H65V454H193L209 411Z" />
<glyph unicode="&#xf2;" glyph-name="ograve" horiz-adv-x="527" d="M105 655H250L329 495H224L105 655ZM264 466Q378 466 441 387Q493 322 493 226Q493 114 412 44Q347 -12 263 -12Q167 -12 98 61Q35 128 35 226Q35 337 102 404Q164 466 264 466ZM187 226Q187
98 265 98Q341 98 341 226Q341 362 264 362Q187 362 187 226Z" />
<glyph unicode="&#xf3;" glyph-name="oacute" horiz-adv-x="527" d="M422 655L303 495H198L278 655H422ZM264 466Q378 466 441 387Q493 322 493 226Q493 114 412 44Q347 -12 263 -12Q167 -12 98 61Q35 128 35 226Q35 337 102 404Q164 466 264 466ZM187 226Q187
98 265 98Q341 98 341 226Q341 362 264 362Q187 362 187 226Z" />
<glyph unicode="&#xf4;" glyph-name="ocircumflex" horiz-adv-x="527" d="M219 655H312Q325 635 354 593Q399 527 420 495H314L268 572L269 570L215 495H111L219 655ZM264 466Q378 466 441 387Q493 322 493 226Q493 114 412 44Q347 -12 263 -12Q167 -12 98 61Q35
128 35 226Q35 337 102 404Q164 466 264 466ZM187 226Q187 98 265 98Q341 98 341 226Q341 362 264 362Q187 362 187 226Z" />
<glyph unicode="&#xf5;" glyph-name="otilde" horiz-adv-x="527" d="M169 497L117 534Q135 649 211 649Q236 649 269 624Q298 602 318 602Q330 602 337 610T364 658L417 618Q399 506 321 506Q290 506 258 525Q227 543 211 543Q191 543 174 508Q172 503 169 497ZM264
466Q378 466 441 387Q493 322 493 226Q493 114 412 44Q347 -12 263 -12Q167 -12 98 61Q35 128 35 226Q35 337 102 404Q164 466 264 466ZM187 226Q187 98 265 98Q341 98 341 226Q341 362 264 362Q187 362 187 226Z" />
<glyph unicode="&#xf6;" glyph-name="odieresis" horiz-adv-x="527" d="M97 568Q97 600 120 622T175 645Q203 645 225 622T248 568Q248 536 227 514T175 491Q140 491 119 512T97 568ZM295 568Q295 599 317 622T370 645Q401 645 424 622T447 568Q447 534 426 513T370
491Q337 491 316 513T295 568ZM264 466Q378 466 441 387Q493 322 493 226Q493 114 412 44Q347 -12 263 -12Q167 -12 98 61Q35 128 35 226Q35 337 102 404Q164 466 264 466ZM187 226Q187 98 265 98Q341 98 341 226Q341 362 264 362Q187 362 187 226Z" />
<glyph unicode="&#xf7;" glyph-name="divide" horiz-adv-x="488" d="M460 178H29V296H460V178ZM166 61Q166 94 188 117T244 140Q275 140 296 117T318 61Q318 31 296 10T244 -12Q212 -12 189 9T166 61ZM168 405Q168 438 190 461T245 484Q276 484 298 461T320 405Q320
375 298 354T245 332Q213 332 191 353T168 405Z" />
<glyph unicode="&#xf8;" glyph-name="oslash" horiz-adv-x="527" d="M126 35Q90 64 67 103Q38 154 35 226Q35 337 102 404Q164 466 264 466Q297 465 318 461L330 488H416L391 432Q440 400 466 347Q490 298 493 226Q493 114 412 44Q347 -12 263 -12Q228 -11 200
-2L188 -30H95L126 35ZM273 361Q267 362 264 362Q187 362 187 226Q188 193 190 177L273 361ZM333 301L244 100Q253 98 265 98Q341 98 341 226Q340 274 333 301Z" />
<glyph unicode="&#xf9;" glyph-name="ugrave" horiz-adv-x="546" d="M107 655H251L331 495H226L107 655ZM357 52Q351 27 310 8T224 -12Q134 -12 100 30T65 182V454H212V223Q212 157 226 134T280 110Q293 110 311 117T331 129V454H481V0H371L357 52Z" />
<glyph unicode="&#xfa;" glyph-name="uacute" horiz-adv-x="546" d="M447 655L328 495H223L302 655H447ZM357 52Q351 27 310 8T224 -12Q134 -12 100 30T65 182V454H212V223Q212 157 226 134T280 110Q293 110 311 117T331 129V454H481V0H371L357 52Z" />
<glyph unicode="&#xfb;" glyph-name="ucircumflex" horiz-adv-x="546" d="M231 655H325Q338 635 366 593Q412 527 432 495H327L281 572V570L227 495H123L231 655ZM357 52Q351 27 310 8T224 -12Q134 -12 100 30T65 182V454H212V223Q212 157 226 134T280 110Q293
110 311 117T331 129V454H481V0H371L357 52Z" />
<glyph unicode="&#xfc;" glyph-name="udieresis" horiz-adv-x="546" d="M105 568Q105 600 127 622T183 645Q211 645 233 622T256 568Q256 536 235 514T183 491Q147 491 126 512T105 568ZM302 568Q302 599 324 622T377 645Q409 645 432 622T455 568Q455 534 433
513T377 491Q345 491 324 513T302 568ZM357 52Q351 27 310 8T224 -12Q134 -12 100 30T65 182V454H212V223Q212 157 226 134T280 110Q293 110 311 117T331 129V454H481V0H371L357 52Z" />
<glyph unicode="&#xfd;" glyph-name="yacute" horiz-adv-x="489" d="M407 652L289 492H184L263 652H407ZM488 454L300 -65Q254 -191 166 -191Q92 -191 15 -126Q39 -87 54 -56Q93 -82 123 -82Q139 -82 156 -59T182 0H154L2 454H149Q185 328 234 174L340 454H488Z" />
<glyph unicode="&#xfe;" glyph-name="thorn" horiz-adv-x="552" d="M65 570L210 647V439Q239 466 293 466Q400 466 463 392Q517 330 517 236Q517 113 439 44Q376 -12 288 -12Q259 -12 230 -2Q208 7 210 10V-177H65V570ZM210 295V144V142Q210 121 230 105T275 89Q312
89 338 128T364 226Q364 288 342 324T282 361Q233 361 210 295Z" />
<glyph unicode="&#xff;" glyph-name="ydieresis" horiz-adv-x="489" d="M64 568Q64 601 86 623T142 645Q172 645 195 622T219 568Q219 535 197 513T142 491Q106 491 85 512T64 568ZM262 568Q262 599 285 622T338 645Q369 645 392 622T416 568Q416 535 394 513T338
491Q305 491 284 513T262 568ZM488 454L300 -65Q254 -191 166 -191Q92 -191 15 -126Q39 -87 54 -56Q93 -82 123 -82Q139 -82 156 -59T182 0H154L2 454H149Q185 328 234 174L340 454H488Z" />
<glyph unicode="&#x2013;" glyph-name="endash" horiz-adv-x="409" d="M418 166H-8V284H418V166Z" />
<glyph unicode="&#x2014;" glyph-name="emdash" horiz-adv-x="590" d="M599 166H-8V284H599V166Z" />
<glyph unicode="&#x2018;" glyph-name="quoteleft" horiz-adv-x="361" d="M201 504Q246 504 273 475T301 399Q301 347 268 313T184 279Q133 279 102 313T70 404V634L159 646V504H201Z" />
<glyph unicode="&#x2019;" glyph-name="quoteright" horiz-adv-x="361" d="M160 421Q115 421 88 450T60 526Q60 578 93 612T177 646Q228 646 259 612T291 521V291L202 279V421H160Z" />
<glyph unicode="&#x201a;" glyph-name="quotesinglbase" horiz-adv-x="361" d="M160 -1Q115 -1 88 28T60 104Q60 155 93 189T177 224Q228 224 259 190T291 99V-131L202 -143V-1H160Z" />
<glyph unicode="&#x201c;" glyph-name="quotedblleft" horiz-adv-x="620" d="M201 504Q246 504 273 475T301 399Q301 347 268 313T184 279Q133 279 102 313T70 404V634L159 646V504H201ZM460 504Q505 504 532 475T560 399Q560 347 527 313T443 279Q392 279 361
313T329 404V634L418 646V504H460Z" />
<glyph unicode="&#x201d;" glyph-name="quotedblright" horiz-adv-x="626" d="M160 421Q115 421 88 450T60 526Q60 578 93 612T177 646Q228 646 259 612T291 521V291L202 279V421H160ZM425 421Q380 421 353 450T325 526Q325 578 358 612T442 646Q493 646 524 612T556
521V291L467 279V421H425Z" />
<glyph unicode="&#x201e;" glyph-name="quotedblbase" horiz-adv-x="626" d="M160 -4Q115 -4 88 25T60 101Q60 153 93 187T177 221Q228 221 259 187T291 96V-134L202 -146V-4H160ZM425 -4Q380 -4 353 25T325 101Q325 153 358 187T442 221Q493 221 524 187T556
96V-134L467 -146V-4H425Z" />
<glyph unicode="&#x2022;" glyph-name="bullet" horiz-adv-x="420" d="M211 150Q70 150 70 292Q70 433 211 433Q350 433 350 292Q350 150 211 150Z" />
<glyph unicode="&#x2039;" glyph-name="guilsinglleft" horiz-adv-x="397" d="M357 -10Q351 -10 344 -10Q251 -10 163 70Q87 139 50 238Q93 353 184 424Q263 486 344 486Q351 486 357 486V341Q258 309 221 238Q258 167 357 135V-10Z" />
<glyph unicode="&#x203a;" glyph-name="guilsinglright" horiz-adv-x="397" d="M40 -10V135Q139 167 176 238Q139 309 40 341V486Q46 486 53 486Q146 486 234 406Q310 337 347 238Q304 123 213 52Q134 -10 53 -10Q46 -10 40 -10Z" />
</font>
</defs>
</svg>
