<?xml version="1.0" standalone="no"?>
<!DOCTYPE svg PUBLIC "-//W3C//DTD SVG 1.1//EN" "http://www.w3.org/Graphics/SVG/1.1/DTD/svg11.dtd">
<svg xmlns="http://www.w3.org/2000/svg">
<defs >
<font id="Tajawal" horiz-adv-x="481" ><font-face
    font-family="Tajawal ExtraLight"
    units-per-em="1000"
    panose-1="0 0 4 0 0 0 0 0 0 0"
    ascent="645"
    descent="-355"
    alphabetic="0" />
<glyph unicode=" " glyph-name="space" horiz-adv-x="213" />
<glyph unicode="!" glyph-name="exclam" horiz-adv-x="174" d="M73 131V633H100V131H73ZM87 -1Q66 -1 66 21Q66 44 87 44Q108 44 108 22Q108 -1 87 -1Z" />
<glyph unicode="&quot;" glyph-name="quotedbl" horiz-adv-x="222" d="M70 519V632L94 645V532L70 519ZM129 519V632L152 645V532L129 519Z" />
<glyph unicode="#" glyph-name="numbersign" horiz-adv-x="497" d="M344 158L312 0H285L316 158H128L96 0H68L101 158H15V180H106L156 432H51V454H160L192 609H219L188 454H377L408 609H436L404 454H482V432H400L350 180H447V158H344ZM184 432L133 180H323L373 432H184Z" />
<glyph unicode="$" glyph-name="dollar" horiz-adv-x="493" d="M244 644V700H271V643Q328 640 399 601L383 580Q314 615 271 616V347Q357 310 392 270T428 169Q428 88 379 43Q339 7 271 -9V-74H244V-11Q239 -11 237 -11Q153 -11 62 44L76 63Q175 15 229 15Q236
15 244 16V328Q240 330 229 334L223 336Q136 366 101 395Q60 428 58 493Q59 572 127 615Q173 644 244 644ZM244 617Q179 615 138 588Q85 553 85 491Q85 432 138 400Q159 387 244 355V617ZM271 19Q387 35 401 152Q401 158 401 166Q401 273 271 318V19Z" />
<glyph unicode="%" glyph-name="percent" horiz-adv-x="666" d="M173 0L466 565H499L205 0H173ZM616 156Q616 88 587 47T509 6Q457 6 428 45T398 155Q398 221 427 259T509 297Q557 297 586 258T616 156ZM425 153Q425 98 448 63T507 28Q543 28 566 63T589 152V154Q589
207 566 241T507 275Q471 275 448 241T425 154V153ZM268 412Q268 343 239 303T161 262Q109 262 80 301T50 411Q50 477 79 515T161 553Q209 553 238 514T268 412ZM77 409Q77 354 100 319T159 284Q195 284 218 319T241 408V410Q240 463 217 497T159 531Q123 531 100
497T77 410V409Z" />
<glyph unicode="&amp;" glyph-name="ampersand" horiz-adv-x="572" d="M449 329H476V292Q476 182 451 95L521 0H491L436 69Q379 -12 279 -12H275Q183 -11 128 45Q80 94 78 167Q78 169 78 173Q78 224 102 262T190 346L176 364Q136 416 124 443T111 508Q111 509
111 511Q111 512 111 513Q112 573 148 609T243 646H247Q299 646 366 610L355 590Q293 624 252 624Q249 624 242 624Q196 621 167 593T138 523Q139 468 162 429Q176 406 218 357L431 111Q449 175 449 274V329ZM208 331Q151 289 129 254T105 172V170Q105 97 160 50Q208
10 276 10Q280 10 282 10Q331 11 359 26T420 86L208 331Z" />
<glyph unicode="&apos;" glyph-name="quotesingle" horiz-adv-x="164" d="M70 519V632L94 645V532L70 519Z" />
<glyph unicode="(" glyph-name="parenleft" horiz-adv-x="368" d="M229 645H250Q171 517 145 438T118 250Q118 143 144 66T250 -142H229Q148 -24 120 57T91 250Q91 363 119 445T229 645Z" />
<glyph unicode=")" glyph-name="parenright" horiz-adv-x="368" d="M112 645H131Q270 459 270 252V250Q269 139 237 49T131 -142H112Q187 -22 215 61T243 250Q243 358 215 443T112 645Z" />
<glyph unicode="*" glyph-name="asterisk" horiz-adv-x="339" d="M181 643L223 629L173 508L299 533L302 493L174 497L236 383L197 371L164 494L74 399L46 433L157 502L37 557L62 594L165 509L181 643Z" />
<glyph unicode="+" glyph-name="plus" horiz-adv-x="516" d="M245 216H42V238H245V454H272V238H474V216H272V0H245V216Z" />
<glyph unicode="," glyph-name="comma" horiz-adv-x="182" d="M86 -75L74 -66Q102 -40 102 -10Q102 -5 101 5V6Q93 -10 78 -9Q56 -9 56 19Q56 45 82 45Q114 45 115 2Q115 1 115 0Q115 -1 115 -2Q115 -44 86 -75Z" />
<glyph unicode="-" glyph-name="hyphen" horiz-adv-x="245" d="M220 230H25V252H220V230Z" />
<glyph unicode="." glyph-name="period" horiz-adv-x="222" d="M111 -5Q90 -5 90 17Q90 40 111 40Q132 40 132 18Q132 -5 111 -5Z" />
<glyph unicode="/" glyph-name="slash" horiz-adv-x="327" d="M328 633L9 -30H-22L299 633H328Z" />
<glyph unicode="0" glyph-name="zero" horiz-adv-x="523" d="M477 315Q477 156 414 67Q357 -12 265 -12Q156 -12 98 90Q48 176 48 315Q48 469 114 562Q173 645 265 645Q368 645 427 538Q477 448 477 315ZM263 623H261Q169 622 120 530Q76 450 75 317Q75 316 75
313Q75 311 75 310Q75 163 132 81Q182 10 262 10Q355 10 406 104Q450 186 450 319V321Q450 468 392 551Q342 623 263 623Z" />
<glyph unicode="1" glyph-name="one" horiz-adv-x="375" d="M233 633V0H206V601L54 518L38 539L207 633H233Z" />
<glyph unicode="2" glyph-name="two" horiz-adv-x="480" d="M52 0V20L261 247Q340 333 360 369T380 458Q380 463 380 466Q379 533 339 572T231 611H230Q169 611 86 563L72 580Q151 633 227 633Q235 633 241 633Q321 630 367 577Q407 531 407 462V460Q406 395 386
362T245 195L88 22H399V0H52Z" />
<glyph unicode="3" glyph-name="three" horiz-adv-x="496" d="M69 572L55 590Q129 640 208 640H211Q291 640 340 593Q382 552 383 492V489Q383 380 255 340Q337 319 373 280T411 174V172Q411 89 349 38Q294 -6 212 -8Q205 -8 202 -8Q123 -8 48 47L62 64Q143 14
204 14H206Q290 14 340 64Q384 108 384 172V174Q383 243 333 284T195 325H128V347H195Q266 347 314 393Q356 434 356 490V492Q355 549 314 583T203 618H199Q143 618 69 572Z" />
<glyph unicode="4" glyph-name="four" horiz-adv-x="547" d="M35 163L341 633H370V171H497V149H370V0H343V149H35V163ZM71 171H343V592L71 171Z" />
<glyph unicode="5" glyph-name="five" horiz-adv-x="539" d="M409 611H148V397Q201 404 246 404Q346 404 404 341Q454 287 454 202Q454 197 453 195Q451 103 391 49Q338 2 258 0Q254 -1 247 -1Q168 -1 90 50L101 69Q176 22 241 22H243Q336 22 384 73Q426 118 426
196V199Q426 290 369 339Q318 382 232 382Q197 382 121 369V633H409V611Z" />
<glyph unicode="6" glyph-name="six" horiz-adv-x="547" d="M437 603L424 585Q368 623 322 623Q210 623 156 509Q120 432 118 322Q204 410 287 410Q372 409 420 346Q461 292 461 205V201Q461 102 404 41Q354 -12 282 -12Q188 -12 133 86Q86 171 86 298Q87 456
157 555Q218 641 308 645Q313 645 319 645Q378 645 437 603ZM118 285Q121 167 154 99Q198 11 290 10Q351 11 392 65T434 200V204Q434 289 389 341Q350 386 290 388H288Q246 388 198 359T118 285Z" />
<glyph unicode="7" glyph-name="seven" horiz-adv-x="404" d="M42 611V633H370V616L109 0H81L342 611H42Z" />
<glyph unicode="8" glyph-name="eight" horiz-adv-x="560" d="M231 349Q161 384 132 418T103 499Q103 568 158 612Q206 650 275 650H276Q360 650 408 596Q446 554 446 499V498Q446 450 416 416T314 347Q460 290 462 179Q462 94 402 38Q348 -12 271 -12Q188 -11
134 51Q86 104 86 176V177Q86 235 120 275T231 349ZM276 356Q353 386 386 419T419 501V503V504Q418 557 378 592T277 628H276Q216 627 173 592T130 504V502Q130 411 276 356ZM270 338Q188 313 151 275T113 176V174Q113 105 167 54Q214 10 274 10Q343 10 393 65Q436
112 436 172Q436 175 435 176Q432 291 270 338Z" />
<glyph unicode="9" glyph-name="nine" horiz-adv-x="547" d="M105 32L118 52Q177 9 226 9Q233 9 240 10Q318 17 359 84T416 297Q340 225 263 225Q259 225 257 226Q185 226 133 281Q80 338 80 432Q80 528 140 591Q192 645 259 645Q354 645 404 549Q446 468 446
336V334Q446 167 383 73Q329 -9 241 -12Q236 -12 231 -12Q163 -12 105 32ZM418 336V338Q418 479 367 557Q324 623 256 623Q195 623 149 559Q109 503 107 433Q107 431 107 428Q107 349 158 295Q202 248 260 248Q348 248 418 336Z" />
<glyph unicode=":" glyph-name="colon" horiz-adv-x="182" d="M111 235Q90 235 90 257Q90 280 111 280Q132 280 132 258Q132 235 111 235ZM111 -5Q90 -5 90 17Q90 40 111 40Q132 40 132 18Q132 -5 111 -5Z" />
<glyph unicode=";" glyph-name="semicolon" horiz-adv-x="163" d="M87 -75L74 -66Q103 -40 103 -10Q103 -5 101 5V6Q94 -10 79 -9Q56 -9 56 19Q56 45 82 45Q114 45 115 2Q115 1 115 0Q115 -1 115 -2Q115 -44 87 -75ZM74 282Q100 278 100 256Q100 231 75 231Q49
231 49 256Q49 278 74 282Z" />
<glyph unicode="&lt;" glyph-name="less" horiz-adv-x="517" d="M446 445L71 242L446 17V-10L42 229V255L446 473V445Z" />
<glyph unicode="=" glyph-name="equal" horiz-adv-x="489" d="M447 295H42V317H447V295ZM447 138H42V160H447V138Z" />
<glyph unicode="&gt;" glyph-name="greater" horiz-adv-x="517" d="M446 241L71 443V472L475 253V228L71 -12V16L446 241Z" />
<glyph unicode="?" glyph-name="question" horiz-adv-x="349" d="M135 51Q165 49 165 22Q165 -8 135 -8Q106 -8 106 22Q106 49 135 51ZM148 154H121V223Q121 267 129 283T174 330Q186 340 199 351Q280 423 283 495Q283 497 283 501Q283 556 252 588T167 622H165Q164
622 163 622Q121 622 56 583L45 601Q110 644 169 644Q233 644 271 605T310 499Q310 449 290 414T213 327L200 315Q161 280 155 268T148 219V154Z" />
<glyph unicode="@" glyph-name="at" horiz-adv-x="685" d="M439 49Q399 -12 334 -12H333Q279 -12 246 26T212 128V130Q212 197 246 237T337 278H340Q383 278 432 244L442 277H458V96Q458 58 475 33T521 7H523Q562 8 586 53T611 168V169Q611 298 531 375Q462 441
358 441H355Q229 440 146 340Q75 254 75 136Q75 2 162 -81Q238 -154 351 -156Q353 -156 358 -156Q375 -156 390 -154V-176Q374 -178 353 -178H350Q216 -177 127 -76Q50 12 48 133Q48 135 48 140Q48 286 148 381Q234 463 355 463H356Q488 463 568 369Q638 288 638
168Q638 79 601 29Q569 -15 519 -15H517Q467 -14 439 49ZM431 217Q381 254 339 255H337Q294 255 267 222T239 134Q239 77 265 44T334 10H335Q376 10 403 41T431 118V217Z" />
<glyph unicode="A" glyph-name="A" horiz-adv-x="528" d="M244 633H286L508 0H481L424 161H105L48 0H21L244 633ZM264 615L113 183H417L264 615Z" />
<glyph unicode="B" glyph-name="B" horiz-adv-x="509" d="M90 6V628Q168 640 235 640Q334 640 385 593Q430 553 430 483Q430 480 429 478Q428 424 404 394T317 337L323 336Q452 302 452 168Q452 167 452 165Q452 164 452 163Q449 -5 235 -7H228Q173 -7 90 6ZM117
605V346H243Q315 346 359 384T403 484Q403 613 234 618Q226 618 218 618Q176 618 117 605ZM117 324V28Q184 15 222 15Q226 15 238 15Q422 20 425 163V167Q425 240 378 282T250 324H117Z" />
<glyph unicode="C" glyph-name="C" horiz-adv-x="531" d="M472 594L460 574Q380 623 320 623Q314 623 310 623Q197 619 133 526Q77 444 77 319V315Q78 167 154 82Q219 11 318 10H320Q388 10 466 65L480 46Q404 -12 316 -12H315Q188 -12 114 88Q50 176 50 310Q50
468 132 562Q203 644 310 645H315Q396 645 472 594Z" />
<glyph unicode="D" glyph-name="D" horiz-adv-x="588" d="M90 1V633Q176 645 224 645Q378 645 459 549Q530 465 531 323V318Q531 151 441 65Q363 -11 228 -12H223Q176 -12 90 1ZM117 610V23Q188 10 220 10H225Q367 12 440 101Q504 180 504 311Q504 317 504 319Q502
471 418 552Q344 622 223 623H221Q182 623 117 610Z" />
<glyph unicode="E" glyph-name="E" horiz-adv-x="526" d="M94 633H437V611H121V341H388V319H121V22H450V0H94V633Z" />
<glyph unicode="F" glyph-name="F" horiz-adv-x="507" d="M94 0V633H437V611H121V342H388V320H121V0H94Z" />
<glyph unicode="G" glyph-name="G" horiz-adv-x="592" d="M479 588L468 571Q388 618 327 618Q325 618 318 618Q199 614 134 524Q77 445 77 320Q77 314 77 311Q80 167 153 88Q218 19 322 16Q328 15 334 15Q395 15 473 57V294H350V316H500V45Q410 -6 327 -6H324Q192
-6 116 93Q50 180 50 315Q50 470 133 560Q204 639 313 640H315Q401 640 479 588Z" />
<glyph unicode="H" glyph-name="H" horiz-adv-x="605" d="M117 0H90V633H117V341H488V633H515V0H488V319H117V0Z" />
<glyph unicode="I" glyph-name="I" horiz-adv-x="215" d="M125 633V0H98V633H125Z" />
<glyph unicode="J" glyph-name="J" horiz-adv-x="201" d="M110 633V-45Q110 -168 15 -168H14Q-26 -168 -78 -139L-64 -119Q-19 -146 12 -146Q83 -146 83 -39V633H110Z" />
<glyph unicode="K" glyph-name="K" horiz-adv-x="448" d="M90 0V633H117V338L382 633H417L146 333L398 0H366L117 329V0H90Z" />
<glyph unicode="L" glyph-name="L" horiz-adv-x="447" d="M90 0V633H117V22H382V0H90Z" />
<glyph unicode="M" glyph-name="M" horiz-adv-x="713" d="M117 568V0H90V633H120Q164 523 223 375Q297 192 357 33Q414 184 490 373Q550 521 595 633H623V0H596V567Q525 381 431 157Q394 68 366 0H348Q325 57 285 152L277 171Q185 391 117 568Z" />
<glyph unicode="N" glyph-name="N" horiz-adv-x="559" d="M117 0H90V633H116Q308 292 442 48V633H469V0H443Q315 226 117 581V0Z" />
<glyph unicode="O" glyph-name="O" horiz-adv-x="623" d="M314 645Q444 645 516 531Q573 442 573 319Q573 174 498 79Q426 -12 312 -12Q183 -12 109 104Q50 195 50 319Q50 462 124 554Q195 644 312 645H314ZM77 320V319Q77 173 151 86Q215 11 312 10H313Q424 10
489 106Q546 190 546 318V319Q546 468 474 551Q412 623 313 623H312Q198 622 133 528Q77 446 77 320Z" />
<glyph unicode="P" glyph-name="P" horiz-adv-x="489" d="M90 0V631Q179 645 227 645Q329 645 384 590Q432 542 432 464Q432 461 431 456Q429 366 364 319Q308 277 217 277H214Q170 278 117 291V0H90ZM117 610V313Q165 300 205 299H207Q400 299 404 455Q405 461
405 464Q405 622 219 623H216Q172 623 117 610Z" />
<glyph unicode="Q" glyph-name="Q" horiz-adv-x="623" d="M407 7L532 -109H499L387 0Q355 -10 312 -12Q183 -12 109 104Q50 195 50 319Q50 462 124 554Q195 644 312 645H314Q444 645 516 531Q573 442 573 319Q571 250 558 204Q545 155 522 115Q478 38 407 7ZM77
320V319Q77 173 151 86Q215 11 312 10H313Q424 10 489 106Q546 190 546 318V319Q546 468 474 551Q412 623 313 623H312Q198 622 133 528Q77 446 77 320Z" />
<glyph unicode="R" glyph-name="R" horiz-adv-x="503" d="M299 290L431 0H401L272 284Q238 277 203 277Q165 277 117 289V0H90V633Q178 645 224 645Q330 645 384 588Q431 539 431 456Q431 392 396 348T299 290ZM117 613V312Q166 299 205 299Q404 299 404 455Q404
623 219 623Q172 623 117 613Z" />
<glyph unicode="S" glyph-name="S" horiz-adv-x="458" d="M50 44L62 63Q160 18 221 18H223Q295 18 338 53T388 152Q389 161 389 170Q389 227 351 263T225 329Q136 358 97 388Q45 430 45 495Q45 561 96 603T229 645Q308 645 385 601L370 580Q297 615 237 615Q233
615 230 615Q158 614 115 582T72 496Q72 494 72 491Q74 446 109 417T227 360Q330 326 373 284T416 175Q416 165 415 154Q409 78 360 34T229 -12Q227 -12 222 -12Q139 -12 50 44Z" />
<glyph unicode="T" glyph-name="T" horiz-adv-x="485" d="M25 611V633H474V611H255V0H228V611H25Z" />
<glyph unicode="U" glyph-name="U" horiz-adv-x="605" d="M90 634L117 633V243Q117 10 304 10Q489 10 489 243V633H516V253Q516 -12 304 -12Q90 -12 90 254V634Z" />
<glyph unicode="V" glyph-name="V" horiz-adv-x="516" d="M50 633L258 35L464 633H494L268 0H247L21 633H50Z" />
<glyph unicode="W" glyph-name="W" horiz-adv-x="910" d="M438 633H470L645 31L859 633H888L658 0H629L455 603L281 0H254L21 633H50L267 32L438 633Z" />
<glyph unicode="X" glyph-name="X" horiz-adv-x="518" d="M266 353L454 633H484L280 331L498 0H466L267 311L49 0H19L250 331L58 633H86L266 353Z" />
<glyph unicode="Y" glyph-name="Y" horiz-adv-x="486" d="M22 633H51L242 279L434 633H463L255 254V0H228V253L22 633Z" />
<glyph unicode="Z" glyph-name="Z" horiz-adv-x="441" d="M408 612L58 22H413V0H27V19L379 611H36V633H408V612Z" />
<glyph unicode="[" glyph-name="bracketleft" horiz-adv-x="349" d="M246 -140H91V645H246V623H118V-118H246V-140Z" />
<glyph unicode="\" glyph-name="backslash" horiz-adv-x="327" d="M285 -30L-35 633H-6L315 -30H285Z" />
<glyph unicode="]" glyph-name="bracketright" horiz-adv-x="349" d="M104 645H259V-140H104V-118H232V623H104V645Z" />
<glyph unicode="^" glyph-name="asciicircum" horiz-adv-x="363" d="M164 609H198L329 329H301L182 588L61 329H34L164 609Z" />
<glyph unicode="_" glyph-name="underscore" horiz-adv-x="373" d="M368 -52H5V-30H368V-52Z" />
<glyph unicode="`" glyph-name="grave" horiz-adv-x="127" d="M90 565L23 655H61L106 565H90Z" />
<glyph unicode="a" glyph-name="a" horiz-adv-x="470" d="M386 0H365L361 57Q286 -12 198 -12Q130 -12 90 24T50 123Q50 277 255 277H359V288Q359 443 223 443Q159 443 93 391L79 409Q151 465 224 465Q386 465 386 282V0ZM359 255H259Q166 255 119 218Q77 185
77 127Q77 73 112 42T206 10Q289 10 359 85V255Z" />
<glyph unicode="b" glyph-name="b" horiz-adv-x="504" d="M97 0H78V627L105 642V403Q170 465 250 465Q351 465 406 396Q453 335 453 236Q453 118 390 52Q334 -6 243 -6Q169 -6 103 52L97 0ZM105 81Q168 16 245 16Q335 16 384 83Q426 140 426 232Q426 338 373 394Q327
443 250 443Q171 443 105 375V81Z" />
<glyph unicode="c" glyph-name="c" horiz-adv-x="450" d="M394 430L383 409Q322 444 259 444Q175 444 122 372Q75 310 75 222Q75 120 137 61Q191 10 274 10Q329 10 396 46L408 26Q345 -12 269 -12Q165 -12 102 62Q48 127 48 225Q48 335 117 405Q177 466 263 466Q326
466 394 430Z" />
<glyph unicode="d" glyph-name="d" horiz-adv-x="502" d="M406 0L399 52Q338 -12 257 -12Q152 -12 96 64Q48 129 48 236Q48 349 113 412Q170 466 258 466Q339 466 397 405V630L424 643V0H406ZM397 82V374Q333 444 258 444Q168 444 118 377Q75 319 75 226Q75 119
130 61Q179 10 257 10Q333 10 397 82Z" />
<glyph unicode="e" glyph-name="e" horiz-adv-x="458" d="M410 217H75Q77 175 87 143Q128 13 273 13Q341 13 399 54L412 35Q349 -9 270 -9Q161 -9 101 63Q48 126 48 225Q48 335 108 405Q160 466 235 466Q321 466 369 393Q410 328 410 225V217ZM77 239H383Q380
332 342 389Q305 444 234 444Q171 444 129 392Q83 333 77 239Z" />
<glyph unicode="f" glyph-name="f" horiz-adv-x="286" d="M42 453H101V523Q101 642 201 644H204Q232 644 271 623L259 601Q226 622 203 622H202Q128 621 128 525V453H225V431H128V0H101V431H42V453Z" />
<glyph unicode="g" glyph-name="g" horiz-adv-x="517" d="M411 408L419 454H439V24Q439 -191 253 -191Q176 -191 100 -134L116 -114Q182 -169 254 -169Q412 -169 412 24V42Q344 -12 267 -12Q170 -12 113 64Q63 129 63 227Q63 340 130 407Q188 466 276 466Q315
466 343 454T411 408ZM412 74V373Q347 444 271 444Q185 444 134 375Q90 315 90 225Q90 122 147 63Q197 10 273 10Q351 10 412 74Z" />
<glyph unicode="h" glyph-name="h" horiz-adv-x="508" d="M435 0H408V268Q408 353 369 398T255 444Q174 444 105 362V0H78V630L105 643V397Q183 466 256 466Q346 466 394 408Q435 358 435 273V0Z" />
<glyph unicode="i" glyph-name="i" horiz-adv-x="203" d="M113 454V0H86V454H113ZM74 617Q74 645 102 645Q129 645 129 617Q129 590 102 590Q74 590 74 617Z" />
<glyph unicode="j" glyph-name="j" horiz-adv-x="203" d="M110 454V-70Q110 -191 9 -191H8Q-23 -191 -61 -171L-51 -151Q-20 -169 4 -169H6Q83 -168 83 -73V454H110ZM72 617Q72 645 100 645Q127 645 127 617Q127 590 100 590Q72 590 72 617Z" />
<glyph unicode="k" glyph-name="k" horiz-adv-x="426" d="M105 279L289 454H327L133 273L391 0H354L105 267V0H78V630L105 645V279Z" />
<glyph unicode="l" glyph-name="l" horiz-adv-x="187" d="M105 645V0H78V630L105 645Z" />
<glyph unicode="m" glyph-name="m" horiz-adv-x="780" d="M707 0H680V275Q680 355 643 399T536 444Q535 444 534 444Q532 444 531 444Q469 444 391 386Q411 334 411 273V0H384V272Q384 441 255 444Q254 444 253 444Q251 444 250 444Q212 444 181 427T105 366V0H78V454H98L105
402Q154 441 183 453T252 466H253Q295 466 321 454T379 409Q465 466 532 466H535Q707 464 707 272V0Z" />
<glyph unicode="n" glyph-name="n" horiz-adv-x="508" d="M435 0H408V268Q408 444 258 444Q213 444 179 426T105 360V0H78V454H98L105 396Q179 466 262 466Q435 466 435 273V0Z" />
<glyph unicode="o" glyph-name="o" horiz-adv-x="523" d="M475 226Q475 119 411 51Q353 -12 261 -12Q156 -12 97 68Q48 133 48 226Q48 335 113 404Q172 466 261 466Q362 466 423 387Q475 320 475 226ZM75 226Q75 128 136 65Q188 10 262 10Q346 10 401 80Q448 141
448 226Q448 327 386 390Q334 444 261 444Q175 444 122 375Q75 314 75 226Z" />
<glyph unicode="p" glyph-name="p" horiz-adv-x="523" d="M78 454H98L105 397Q149 436 186 451T274 466Q371 466 425 395Q471 334 471 236Q471 118 408 49Q351 -12 263 -12Q182 -12 105 53V-188H78V454ZM105 85Q182 10 257 10Q348 10 400 77Q444 136 444 231Q444
339 391 395Q344 444 264 444Q179 444 105 364V85Z" />
<glyph unicode="q" glyph-name="q" horiz-adv-x="518" d="M441 453V-198H414V51Q338 -12 251 -12Q153 -12 96 67Q48 134 48 235Q48 344 111 409Q165 466 248 466Q340 466 414 396L421 453H441ZM414 85V364Q335 444 255 444Q165 444 117 377Q75 319 75 227Q75 119
130 61Q179 10 258 10Q348 10 414 85Z" />
<glyph unicode="r" glyph-name="r" horiz-adv-x="363" d="M338 436L318 416Q276 444 244 444H243Q207 444 178 426T105 359V0H78V454H98L105 395Q147 436 176 451T244 466H246Q288 466 338 436Z" />
<glyph unicode="s" glyph-name="s" horiz-adv-x="392" d="M299 408Q235 444 184 444Q132 444 102 420T71 354Q71 318 97 295T199 244Q283 213 313 186T344 116Q344 58 302 23T189 -12Q121 -12 47 26L55 49Q129 10 181 10Q244 10 280 38T317 114Q317 149 289 172T185
223Q105 252 75 279T44 352Q44 403 82 434T182 466Q240 466 310 431L299 408Z" />
<glyph unicode="t" glyph-name="t" horiz-adv-x="326" d="M141 431V107Q141 12 218 12Q246 12 274 27L284 9Q248 -10 214 -10Q114 -10 114 110V431H42V453H114V563L141 575V453H286V431H141Z" />
<glyph unicode="u" glyph-name="u" horiz-adv-x="497" d="M419 454V0H401L393 56Q323 -12 236 -12Q78 -12 78 182V454H105V184Q105 10 238 10Q325 10 392 89V454H419Z" />
<glyph unicode="v" glyph-name="v" horiz-adv-x="407" d="M224 0H185L17 454H43L205 18L363 454H390L224 0Z" />
<glyph unicode="w" glyph-name="w" horiz-adv-x="674" d="M200 0H166L16 454H43L182 23L326 454H360L493 23L631 454H658L510 0H477L342 430L200 0Z" />
<glyph unicode="x" glyph-name="x" horiz-adv-x="388" d="M196 259L331 454H362L211 239L372 0H341L196 219L50 0H18L181 239L37 454H68L196 259Z" />
<glyph unicode="y" glyph-name="y" horiz-adv-x="426" d="M411 454L211 -72Q186 -137 159 -164T89 -191Q55 -191 15 -173L28 -152Q54 -169 87 -169Q125 -169 149 -138T203 -22L211 0H200L16 454H46L219 13L383 454H411Z" />
<glyph unicode="z" glyph-name="z" horiz-adv-x="394" d="M366 0H29V22L330 432H47V454H360V429L59 22H366V0Z" />
<glyph unicode="{" glyph-name="braceleft" horiz-adv-x="348" d="M48 239V275Q109 296 134 334T159 442V482Q159 575 186 608T292 644H291V615H292Q283 616 279 616Q224 616 205 589T186 482V442Q186 369 158 327T64 257Q132 223 159 182T186 69V25Q186 -56 205
-83T280 -111Q283 -111 292 -110H291V-139H292Q213 -137 186 -103T159 25V69Q159 132 134 171T48 239Z" />
<glyph unicode="|" glyph-name="bar" horiz-adv-x="203" d="M113 662V-179H86V662H113Z" />
<glyph unicode="}" glyph-name="braceright" horiz-adv-x="348" d="M300 239Q236 205 213 169T189 69V25Q189 -69 162 -102T56 -139H57V-111H56Q64 -111 70 -111Q125 -111 143 -83T162 25V69Q162 141 187 179T283 257Q213 290 188 329T162 442V482Q162 561 143
588T70 616Q64 616 56 616H57V644H56Q135 641 162 608T189 482V442Q189 371 212 337T300 275V239Z" />
<glyph unicode="~" glyph-name="asciitilde" horiz-adv-x="460" d="M44 220L28 230Q71 295 124 295H126Q161 294 235 258L245 252Q304 223 338 223Q368 223 384 233T418 273L436 263Q414 227 395 214T343 201H341H340Q298 201 227 238Q220 241 217 243Q161 273
129 273Q82 273 44 220Z" />
<glyph unicode="&#xa0;" glyph-name="space" horiz-adv-x="213" />
<glyph unicode="&#xa1;" glyph-name="exclamdown" horiz-adv-x="174" d="M73 327H100V-175H73V327ZM87 459Q108 459 108 436Q108 414 87 414Q66 414 66 437Q66 459 87 459Z" />
<glyph unicode="&#xa2;" glyph-name="cent" horiz-adv-x="459" d="M287 -11V-52H260V-10Q154 2 99 69Q50 128 50 222Q50 289 77 344Q115 420 187 449Q216 461 260 464V512H287V465Q339 457 392 430L381 409Q330 430 287 436V17Q336 21 394 47L406 26Q350 -5 287
-11ZM260 439Q176 429 131 378Q77 316 77 224Q77 129 131 74Q178 26 260 16V439Z" />
<glyph unicode="&#xa3;" glyph-name="sterling" horiz-adv-x="455" d="M322 338H148V22H407V0H44V22H121V338H42V360H121V442Q121 641 276 641Q339 641 397 594L382 575Q332 619 278 619Q210 619 179 575T148 435V360H322V338Z" />
<glyph unicode="&#xa4;" glyph-name="currency" horiz-adv-x="454" d="M417 104L335 183Q288 149 233 149Q177 149 128 184L50 107L40 118L32 127L107 205Q74 251 74 302Q74 352 111 401L31 486L49 506L131 423Q182 457 231 457H233Q282 457 331 423L414 505Q416
506 418 506Q423 506 428 500T434 489Q434 487 433 486L354 404Q388 354 388 302Q388 252 353 205L434 127Q436 125 436 122Q436 106 417 104ZM101 301Q101 241 136 206T233 171Q294 171 327 205T361 302Q361 364 327 399T233 435Q174 435 138 399T101 302V301Z"
/>
<glyph unicode="&#xa5;" glyph-name="yen" horiz-adv-x="486" d="M256 0H229V154H35V176H229V247L216 273H35V295H206L20 633H50L235 295H250L437 633H467L279 295H440V273H269L256 247V176H440V154H256V0Z" />
<glyph unicode="&#xa6;" glyph-name="brokenbar" horiz-adv-x="216" d="M92 207H119V-199H92V207ZM119 684V315H92V684H119Z" />
<glyph unicode="&#xa7;" glyph-name="section" horiz-adv-x="420" d="M66 -104L75 -86Q142 -118 199 -118Q257 -118 293 -90T331 -14Q331 -10 331 -8Q331 35 302 64T201 120Q119 151 91 177Q50 213 50 273Q50 353 139 406Q73 456 72 518V520Q72 576 110 610T212
645H213Q273 645 338 613L328 595Q265 623 214 623Q163 623 131 596T99 525V524Q100 479 130 451T243 391Q313 363 341 332T370 251Q370 248 370 246Q369 207 350 180T281 122Q324 94 341 66T358 -3V-4Q358 -66 316 -103T202 -140H201Q136 -140 66 -104ZM157 396Q77
340 77 276Q77 233 108 203T213 147Q248 134 260 130Q307 161 324 183T343 236Q343 238 343 241Q343 318 245 359L198 379L157 396Z" />
<glyph unicode="&#xa8;" glyph-name="dieresis" horiz-adv-x="249" d="M34 617Q34 645 61 645Q89 645 89 617Q89 590 61 590Q34 590 34 617ZM162 617Q162 645 190 645Q217 645 217 617Q217 590 190 590Q162 590 162 617Z" />
<glyph unicode="&#xa9;" glyph-name="copyright" horiz-adv-x="697" d="M480 460L466 436Q406 480 361 480Q292 480 250 435T208 316V315Q208 235 256 188Q298 148 363 148Q411 148 476 188L485 171Q417 126 361 126H358Q276 126 225 187Q181 240 181 314Q181
400 238 454Q287 501 358 502Q359 502 361 502Q362 502 363 502Q415 502 480 460ZM48 315Q48 450 145 539Q230 617 349 617Q481 617 572 517Q649 431 649 315Q649 182 550 92Q464 14 349 14Q214 14 125 114Q48 200 48 315ZM75 315Q75 189 165 107Q242 36 350 36Q474
36 554 127Q622 205 622 315Q622 443 533 524Q456 595 347 595Q223 595 144 504Q75 426 75 315Z" />
<glyph unicode="&#xaa;" glyph-name="ordfeminine" horiz-adv-x="268" d="M221 406H201L196 448Q165 400 117 400Q87 400 67 420T46 471V473Q48 549 168 549H197V550Q197 582 179 603T133 624Q104 624 68 593L51 614Q93 646 134 646Q221 645 221 545V406ZM194
527H166Q75 527 73 472V470Q73 449 87 436T124 422H125Q126 422 127 422Q172 424 194 480V527Z" />
<glyph unicode="&#xab;" glyph-name="guillemotleft" horiz-adv-x="416" d="M221 29Q122 75 50 226Q121 377 221 424V399Q128 345 76 226Q129 106 221 54V29ZM376 29Q279 74 205 226Q279 378 376 424V398Q285 348 232 226Q286 104 376 55V29Z" />
<glyph unicode="&#xac;" glyph-name="logicalnot" horiz-adv-x="446" d="M42 187V209H404V0H377V187H42Z" />
<glyph unicode="&#xae;" glyph-name="registered" horiz-adv-x="413" d="M201 473H180V410H156V567H198Q259 567 259 520Q259 489 228 476L265 410H236L201 473ZM180 547V493H204Q234 493 234 518Q234 547 204 547H180ZM207 322Q135 322 87 376Q45 422 45 484Q45
555 99 604Q145 645 207 645Q279 645 327 592Q370 546 370 484Q370 412 316 364Q269 322 207 322ZM207 620Q151 620 112 580T72 484Q72 427 111 387T207 347Q263 347 302 387T342 484Q342 541 303 580T207 620Z" />
<glyph unicode="&#xaf;" glyph-name="overscore" horiz-adv-x="200" d="M184 611H16V633H184V611Z" />
<glyph unicode="&#xb0;" glyph-name="degree" horiz-adv-x="274" d="M25 541Q25 585 59 618T137 652Q181 652 215 618T249 541Q249 495 216 462T137 428Q93 428 59 462T25 541ZM138 630Q104 630 78 603T52 541Q52 505 78 478T138 450Q172 450 197 477T222 542Q222
577 197 603T138 630Z" />
<glyph unicode="&#xb1;" glyph-name="plusminus" horiz-adv-x="489" d="M229 271H42V293H229V454H256V293H447V271H256V109H229V271ZM447 0H42V22H447V0Z" />
<glyph unicode="&#xb2;" glyph-name="twosuperior" horiz-adv-x="306" d="M62 316V344L155 434Q227 505 227 550Q227 580 208 598T156 617Q118 617 70 579L60 600Q113 637 155 639Q156 639 158 639Q201 639 227 613T254 545Q254 516 241 495T178 422L97 338H259V316H62Z" />
<glyph unicode="&#xb3;" glyph-name="threesuperior" horiz-adv-x="321" d="M136 481V503H156Q239 503 239 562Q239 619 169 620Q168 620 166 620Q165 620 164 620Q127 620 81 588L69 606Q123 641 169 642H171Q214 642 239 620T266 561V560Q266 518 223 493Q272
467 272 412Q272 370 245 344T173 317Q170 317 169 317Q124 318 69 352L82 371Q127 339 171 339Q245 339 245 407V408Q245 481 158 481H136Z" />
<glyph unicode="&#xb4;" glyph-name="acute" horiz-adv-x="131" d="M42 565H21L68 660H112L42 565Z" />
<glyph unicode="&#xb5;" glyph-name="mu" horiz-adv-x="513" d="M105 -177H78V454H105V144Q105 86 138 48T222 10Q313 10 363 115V454H390V92Q390 56 406 33T447 10Q468 10 483 24L493 5Q472 -12 445 -12Q418 -12 398 7Q372 31 367 76Q306 -12 221 -12Q145 -12
105 52V-177Z" />
<glyph unicode="&#xb6;" glyph-name="paragraph" horiz-adv-x="380" d="M298 0H280V633H298V0ZM240 0V376H197Q131 376 89 411T46 501Q46 557 90 595T198 633H257V0H240Z" />
<glyph unicode="&#xb7;" glyph-name="middot" horiz-adv-x="148" d="M76 308Q61 308 50 318T39 342Q39 357 50 367T76 378Q89 378 99 367T109 342Q109 329 99 319T76 308Z" />
<glyph unicode="&#xb8;" glyph-name="cedilla" horiz-adv-x="200" d="M83 -35Q98 -32 109 -32Q138 -32 156 -49T175 -93Q175 -123 151 -141T87 -160Q55 -160 25 -145L34 -120Q57 -138 88 -138Q148 -138 148 -94Q148 -53 90 -53H88Q73 -53 50 -56L68 14L89 10L83 -35Z" />
<glyph unicode="&#xb9;" glyph-name="onesuperior" horiz-adv-x="204" d="M116 633V318H89V599L47 568L28 587L89 633H116Z" />
<glyph unicode="&#xba;" glyph-name="ordmasculine" horiz-adv-x="286" d="M145 400Q97 400 65 435T33 522Q33 577 64 611T145 645Q193 645 223 611T253 522Q253 470 222 435T145 400ZM226 521V522Q226 567 204 595T145 623Q109 623 85 595T60 523V522Q60 479
85 451T147 422Q182 422 204 449T226 521Z" />
<glyph unicode="&#xbb;" glyph-name="guillemotright" horiz-adv-x="416" d="M40 29V55Q130 104 184 226Q131 348 40 398V424Q137 378 211 226Q137 74 40 29ZM195 29V55Q287 105 340 226Q287 348 195 398V424Q295 377 366 226Q294 75 195 29Z" />
<glyph unicode="&#xbc;" glyph-name="onequarter" horiz-adv-x="732" d="M431 98L608 318H631V101H695V79H632V0H605V79H431V98ZM469 101H604V270L469 101ZM536 633L154 -30H122L506 633H536ZM158 633V318H131V599L89 568L70 587L131 633H158Z" />
<glyph unicode="&#xbd;" glyph-name="onehalf" horiz-adv-x="766" d="M538 633L155 -30H123L508 633H538ZM158 633V318H131V599L89 568L70 587L131 633H158ZM494 3V31L587 122Q657 190 659 234Q659 235 659 238Q659 268 640 286T588 304Q550 304 502 266L492 287Q544
325 586 326Q588 326 590 326Q632 326 659 300T686 232Q686 203 673 182T610 109L529 25H691V3H494Z" />
<glyph unicode="&#xbe;" glyph-name="threequarters" horiz-adv-x="782" d="M477 98L654 318H677V101H740V79H677V0H650V79H477V98ZM515 101H650V270L515 101ZM613 633L231 -30H197L582 633H613ZM136 481V503H156Q238 503 239 561V562Q239 619 169 620Q168 620
166 620Q165 620 164 620Q127 620 81 588L69 606Q123 641 169 642H171Q214 642 239 620T266 561V560Q266 518 223 493Q272 467 272 412Q272 370 245 344T173 317Q170 317 169 317Q124 318 69 352L82 371Q127 339 171 339Q245 339 245 407V408Q245 481 158 481H136Z"
/>
<glyph unicode="&#xbf;" glyph-name="questiondown" horiz-adv-x="367" d="M228 465Q259 465 259 434Q259 404 228 404Q198 404 198 434Q198 465 228 465ZM212 298H239V229Q239 185 231 169T187 122Q174 112 162 101Q80 29 78 -43Q78 -45 78 -49Q78 -104 109 -136T193
-170Q194 -170 195 -170H197Q240 -170 305 -131L316 -149Q250 -192 191 -192Q127 -192 89 -153T51 -47Q51 3 71 38T148 125L160 137Q199 172 205 184T212 233V298Z" />
<glyph unicode="&#xc0;" glyph-name="Agrave" horiz-adv-x="528" d="M182 818H226L267 728H249L182 818ZM244 633H286L508 0H481L424 161H105L48 0H21L244 633ZM264 615L113 183H417L264 615Z" />
<glyph unicode="&#xc1;" glyph-name="Aacute" horiz-adv-x="528" d="M339 818L272 728H254L296 818H339ZM244 633H286L508 0H481L424 161H105L48 0H21L244 633ZM264 615L113 183H417L264 615Z" />
<glyph unicode="&#xc2;" glyph-name="Acircumflex" horiz-adv-x="528" d="M278 818L340 728H307L265 790L218 728H187L250 818H278ZM244 633H286L508 0H481L424 161H105L48 0H21L244 633ZM264 615L113 183H417L264 615Z" />
<glyph unicode="&#xc3;" glyph-name="Atilde" horiz-adv-x="528" d="M163 732L143 744Q177 805 223 805Q242 805 287 780L291 778Q334 751 341 751Q364 752 391 804L410 790Q375 729 339 729Q319 729 281 754L273 760Q241 783 223 783H222Q188 783 163 732ZM244
633H286L508 0H481L424 161H105L48 0H21L244 633ZM264 615L113 183H417L264 615Z" />
<glyph unicode="&#xc4;" glyph-name="Adieresis" horiz-adv-x="528" d="M176 784Q178 813 204 813Q234 813 234 784Q234 755 204 755Q178 755 176 784ZM304 784Q306 813 333 813Q361 813 361 784Q361 755 333 755Q306 755 304 784ZM244 633H286L508 0H481L424
161H105L48 0H21L244 633ZM264 615L113 183H417L264 615Z" />
<glyph unicode="&#xc5;" glyph-name="Aring" horiz-adv-x="528" d="M207 761Q207 790 225 808T271 826Q298 826 317 807T336 761Q336 735 317 716T271 697Q243 697 225 715T207 761ZM233 761Q233 723 270 723Q286 723 297 734T309 761Q309 777 298 788T270 800Q233
800 233 761ZM244 633H286L508 0H481L424 161H105L48 0H21L244 633ZM264 615L113 183H417L264 615Z" />
<glyph unicode="&#xc6;" glyph-name="AE" horiz-adv-x="727" d="M658 633V611H345V341H609V319H345V28H671V6H318V175H126L50 6H20L302 633H658ZM313 608L137 197H318V608H313Z" />
<glyph unicode="&#xc7;" glyph-name="Ccedilla" horiz-adv-x="566" d="M313 -11L309 -35Q324 -32 335 -32Q364 -32 382 -49T401 -93Q401 -123 377 -141T313 -160Q281 -160 251 -145L260 -120Q284 -138 314 -138Q374 -138 374 -94Q374 -53 316 -53H315Q299 -53
276 -56L289 -8Q203 11 156 47T79 155Q51 220 50 311Q50 314 50 318Q50 470 133 563Q205 644 310 645H313Q396 645 472 594L460 574Q380 623 320 623Q314 623 310 623Q197 619 133 526Q77 444 77 319Q77 318 77 316V315Q78 168 150 88Q213 19 316 19Q388 19 466
65L480 46Q403 -11 327 -11Q321 -11 317 -11H313Z" />
<glyph unicode="&#xc8;" glyph-name="Egrave" horiz-adv-x="526" d="M94 633H437V611H121V341H388V319H121V22H450V0H94V633ZM186 818H230L271 728H253L186 818Z" />
<glyph unicode="&#xc9;" glyph-name="Eacute" horiz-adv-x="526" d="M94 633H437V611H121V341H388V319H121V22H450V0H94V633ZM325 818L258 728H241L282 818H325Z" />
<glyph unicode="&#xca;" glyph-name="Ecircumflex" horiz-adv-x="526" d="M94 633H437V611H121V341H388V319H121V22H450V0H94V633ZM279 818L341 728H309L266 790L220 728H189L252 818H279Z" />
<glyph unicode="&#xcb;" glyph-name="Edieresis" horiz-adv-x="526" d="M94 633H437V611H121V341H388V319H121V22H450V0H94V633ZM159 784Q161 813 187 813Q216 813 216 784Q216 755 187 755Q161 755 159 784ZM286 784Q288 813 316 813Q344 813 344 784Q344 755
316 755Q289 755 286 784Z" />
<glyph unicode="&#xcc;" glyph-name="Igrave" horiz-adv-x="215" d="M125 633V0H98V633H125ZM31 818H74L116 728H98L31 818Z" />
<glyph unicode="&#xcd;" glyph-name="Iacute" horiz-adv-x="215" d="M125 633V0H98V633H125ZM190 818L123 728H105L147 818H190Z" />
<glyph unicode="&#xce;" glyph-name="Icircumflex" horiz-adv-x="215" d="M125 633V0H98V633H125ZM123 818L184 728H152L110 790L63 728H32L95 818H123Z" />
<glyph unicode="&#xcf;" glyph-name="Idieresis" horiz-adv-x="215" d="M125 633V0H98V633H125ZM14 784Q16 813 43 813Q72 813 72 784Q72 755 43 755Q16 755 14 784ZM142 784Q144 813 171 813Q200 813 200 784Q200 755 171 755Q144 755 142 784Z" />
<glyph unicode="&#xd0;" glyph-name="Eth" horiz-adv-x="620" d="M123 340V629Q211 641 255 641H258Q415 641 498 546Q570 464 571 323V318Q571 153 479 68Q399 -7 262 -8Q259 -8 254 -8Q212 -8 123 7V318H41V340H123ZM150 340H311V318H150V24Q223 14 251 14Q256
14 259 14Q404 16 479 104Q544 181 544 310Q544 316 544 319Q541 469 456 549Q381 618 257 619H253Q217 619 150 606V340Z" />
<glyph unicode="&#xd1;" glyph-name="Ntilde" horiz-adv-x="559" d="M117 0H90V633H113L442 53V633H469V0H447L117 576V0ZM169 732L151 743Q183 805 230 805H231Q261 805 295 782L300 778Q327 760 348 760Q374 760 399 803L417 791Q384 729 345 729H344Q328 730
288 751Q284 753 280 756Q247 776 229 776Q191 776 169 732Z" />
<glyph unicode="&#xd2;" glyph-name="Ograve" horiz-adv-x="623" d="M314 645Q444 645 516 531Q573 442 573 319Q573 174 498 79Q426 -12 312 -12Q183 -12 109 104Q50 195 50 319Q50 462 124 554Q195 644 312 645H314ZM77 320V319Q77 173 151 86Q215 11 312 10H313Q424
10 489 106Q546 190 546 318V319Q546 468 474 551Q412 623 313 623H312Q198 622 133 528Q77 446 77 320ZM230 818H273L314 728H296L230 818Z" />
<glyph unicode="&#xd3;" glyph-name="Oacute" horiz-adv-x="623" d="M314 645Q444 645 516 531Q573 442 573 319Q573 174 498 79Q426 -12 312 -12Q183 -12 109 104Q50 195 50 319Q50 462 124 554Q195 644 312 645H314ZM77 320V319Q77 173 151 86Q215 11 312 10H313Q424
10 489 106Q546 190 546 318V319Q546 468 474 551Q412 623 313 623H312Q198 622 133 528Q77 446 77 320ZM375 818L309 728H291L332 818H375Z" />
<glyph unicode="&#xd4;" glyph-name="Ocircumflex" horiz-adv-x="623" d="M314 645Q444 645 516 531Q573 442 573 319Q573 174 498 79Q426 -12 312 -12Q183 -12 109 104Q50 195 50 319Q50 462 124 554Q195 644 312 645H314ZM77 320V319Q77 173 151 86Q215 11 312
10H313Q424 10 489 106Q546 190 546 318V319Q546 468 474 551Q412 623 313 623H312Q198 622 133 528Q77 446 77 320ZM327 818L388 728H356L314 790L267 728H236L299 818H327Z" />
<glyph unicode="&#xd5;" glyph-name="Otilde" horiz-adv-x="623" d="M314 645Q444 645 516 531Q573 442 573 319Q573 174 498 79Q426 -12 312 -12Q183 -12 109 104Q50 195 50 319Q50 462 124 554Q195 644 312 645H314ZM77 320V319Q77 173 151 86Q215 11 312 10H313Q424
10 489 106Q546 190 546 318V319Q546 468 474 551Q412 623 313 623H312Q198 622 133 528Q77 446 77 320ZM198 732L179 743Q211 805 258 805H259Q289 805 323 782L328 778Q355 760 376 760Q402 760 427 803L445 791Q412 729 373 729H372Q356 730 317 751Q312 753
308 756Q275 776 257 776Q219 776 198 732Z" />
<glyph unicode="&#xd6;" glyph-name="Odieresis" horiz-adv-x="623" d="M314 645Q444 645 516 531Q573 442 573 319Q573 174 498 79Q426 -12 312 -12Q183 -12 109 104Q50 195 50 319Q50 462 124 554Q195 644 312 645H314ZM77 320V319Q77 173 151 86Q215 11 312
10H313Q424 10 489 106Q546 190 546 318V319Q546 468 474 551Q412 623 313 623H312Q198 622 133 528Q77 446 77 320ZM219 784Q221 813 247 813Q277 813 277 784Q277 755 247 755Q221 755 219 784ZM347 784Q349 813 376 813Q404 813 404 784Q404 755 376 755Q349
755 347 784Z" />
<glyph unicode="&#xd7;" glyph-name="multiply" horiz-adv-x="501" d="M253 215L69 21L51 37L238 231L64 423L81 439L253 249L434 437L452 423L269 231L449 33L432 16L253 215Z" />
<glyph unicode="&#xd8;" glyph-name="Oslash" horiz-adv-x="623" d="M441 604L459 645H488L460 588Q524 527 550 456Q571 395 573 317Q573 311 573 308Q573 163 490 69Q418 -12 318 -12Q315 -12 313 -12Q247 -11 186 29L158 -30H130L168 45Q92 117 66 207Q51 258
50 322Q50 325 50 331Q50 474 133 566Q206 645 308 645H310Q377 644 441 604ZM431 583Q372 622 310 623H307Q199 623 134 529Q77 448 77 329V321Q79 215 117 143Q138 103 178 66L431 583ZM196 50Q255 11 313 10H315Q316 10 317 10Q424 10 489 105Q546 188 546 309Q546
314 546 317Q544 425 507 495Q487 533 449 568L196 50Z" />
<glyph unicode="&#xd9;" glyph-name="Ugrave" horiz-adv-x="605" d="M90 634L117 633V241Q117 10 304 10Q489 10 489 241V633H516V259Q516 -11 304 -12H303Q90 -12 90 260V634ZM243 818H286L327 728H310L243 818Z" />
<glyph unicode="&#xda;" glyph-name="Uacute" horiz-adv-x="605" d="M90 634L117 633V241Q117 10 304 10Q489 10 489 241V633H516V259Q516 -11 304 -12H303Q90 -12 90 260V634ZM357 818L290 728H272L314 818H357Z" />
<glyph unicode="&#xdb;" glyph-name="Ucircumflex" horiz-adv-x="605" d="M90 634L117 633V241Q117 10 304 10Q489 10 489 241V633H516V259Q516 -11 304 -12H303Q90 -12 90 260V634ZM317 818L379 728H346L304 790L257 728H226L289 818H317Z" />
<glyph unicode="&#xdc;" glyph-name="Udieresis" horiz-adv-x="605" d="M90 634L117 633V241Q117 10 304 10Q489 10 489 241V633H516V259Q516 -11 304 -12H303Q90 -12 90 260V634ZM215 784Q217 813 243 813Q272 813 272 784Q272 755 243 755Q217 755 215 784ZM343
784Q345 813 372 813Q400 813 400 784Q400 755 372 755Q345 755 343 784Z" />
<glyph unicode="&#xdd;" glyph-name="Yacute" horiz-adv-x="486" d="M24 633H49L242 276L436 633H462L256 257V0H229V256L24 633ZM320 818L253 728H235L277 818H320Z" />
<glyph unicode="&#xde;" glyph-name="Thorn" horiz-adv-x="533" d="M90 0V633H117V505Q159 524 221 527Q229 527 235 527Q333 527 386 471Q433 422 433 342Q433 244 370 191Q316 145 226 145Q186 145 117 163V0H90ZM117 482V186Q182 167 231 167Q406 167 406 339V343Q404
505 233 505Q230 505 223 505Q176 504 117 482Z" />
<glyph unicode="&#xdf;" glyph-name="germandbls" horiz-adv-x="479" d="M174 9L182 30Q225 10 264 10H265Q322 10 361 53T401 160Q401 233 348 283Q303 325 242 325H231V348H240Q294 348 334 391T374 493Q374 550 335 587T234 625Q175 625 140 588T105 487V0H78V481Q78
647 232 647H233Q313 646 360 597Q401 554 401 489V487Q401 375 283 339Q361 317 394 277T428 165V162Q427 81 379 32Q337 -12 276 -12H274Q232 -12 174 9Z" />
<glyph unicode="&#xe0;" glyph-name="agrave" horiz-adv-x="470" d="M162 655H205L247 565H229L162 655ZM386 0H365L361 57Q286 -12 198 -12Q130 -12 90 24T50 123Q50 277 255 277H359V288Q359 443 223 443Q159 443 93 391L79 409Q151 465 224 465Q386 465 386
282V0ZM359 255H259Q166 255 119 218Q77 185 77 127Q77 73 112 42T206 10Q289 10 359 85V255Z" />
<glyph unicode="&#xe1;" glyph-name="aacute" horiz-adv-x="470" d="M296 655L229 565H212L253 655H296ZM386 0H365L361 57Q286 -12 198 -12Q130 -12 90 24T50 123Q50 277 255 277H359V288Q359 443 223 443Q159 443 93 391L79 409Q151 465 224 465Q386 465 386
282V0ZM359 255H259Q166 255 119 218Q77 185 77 127Q77 73 112 42T206 10Q289 10 359 85V255Z" />
<glyph unicode="&#xe2;" glyph-name="acircumflex" horiz-adv-x="470" d="M238 655L299 565H267L225 627L178 565H147L210 655H238ZM386 0H365L361 57Q286 -12 198 -12Q130 -12 90 24T50 123Q50 277 255 277H359V288Q359 443 223 443Q159 443 93 391L79 409Q151
465 224 465Q386 465 386 282V0ZM359 255H259Q166 255 119 218Q77 185 77 127Q77 73 112 42T206 10Q289 10 359 85V255Z" />
<glyph unicode="&#xe3;" glyph-name="atilde" horiz-adv-x="470" d="M125 571L108 581Q142 643 185 643Q203 643 226 634L253 617Q291 589 310 589Q326 589 355 640L373 631Q338 568 302 568Q283 568 244 593Q241 595 237 597L236 598Q202 621 184 621Q150 621
125 571ZM386 0H365L361 57Q286 -12 198 -12Q130 -12 90 24T50 123Q50 277 255 277H359V288Q359 443 223 443Q159 443 93 391L79 409Q151 465 224 465Q386 465 386 282V0ZM359 255H259Q166 255 119 218Q77 185 77 127Q77 73 112 42T206 10Q289 10 359 85V255Z"
/>
<glyph unicode="&#xe4;" glyph-name="adieresis" horiz-adv-x="470" d="M133 619Q135 648 162 648Q191 648 191 619Q191 590 162 590Q136 590 133 619ZM261 619Q263 648 290 648Q319 648 319 619Q319 590 290 590Q264 590 261 619ZM386 0H365L361 57Q286 -12 198
-12Q130 -12 90 24T50 123Q50 277 255 277H359V288Q359 443 223 443Q159 443 93 391L79 409Q151 465 224 465Q386 465 386 282V0ZM359 255H259Q166 255 119 218Q77 185 77 127Q77 73 112 42T206 10Q289 10 359 85V255Z" />
<glyph unicode="&#xe5;" glyph-name="aring" horiz-adv-x="470" d="M171 595Q171 623 189 641T236 659Q263 659 281 641T300 595Q300 568 282 550T236 531Q208 531 190 549T171 595ZM198 595Q198 556 234 556Q251 556 262 567T274 595Q274 611 263 622T234 634Q198
634 198 595ZM386 0H365L361 57Q286 -12 198 -12Q130 -12 90 24T50 123Q50 277 255 277H359V288Q359 443 223 443Q159 443 93 391L79 409Q151 465 224 465Q386 465 386 282V0ZM359 255H259Q166 255 119 218Q77 185 77 127Q77 73 112 42T206 10Q289 10 359 85V255Z"
/>
<glyph unicode="&#xe6;" glyph-name="ae" horiz-adv-x="766" d="M379 340Q400 386 427 414Q474 465 542 465Q615 465 661 413Q717 348 717 226V217H386Q387 182 391 157Q416 13 574 13Q636 13 709 53L720 35Q647 -9 572 -9Q493 -9 438 31Q407 53 382 91Q328 36
286 14T194 -9Q127 -9 87 27T46 125Q46 277 251 277H355V292Q355 443 221 443Q160 443 88 393L76 408Q146 465 222 465Q295 465 334 428Q365 398 379 340ZM386 239H691Q686 348 641 400Q604 443 542 443Q483 443 442 394Q392 334 386 239ZM355 255H251Q162 255
115 217Q73 184 73 129Q73 78 108 46T200 13Q279 13 355 99V255Z" />
<glyph unicode="&#xe7;" glyph-name="ccedilla" horiz-adv-x="450" d="M214 -6Q139 15 97 69Q51 129 48 225Q48 335 117 405Q177 466 263 466Q326 466 394 430L383 409Q322 444 259 444Q175 444 122 372Q75 310 75 222Q79 120 133 65Q184 13 274 10Q329 10 396
46L408 26Q345 -12 269 -12Q249 -11 238 -10H237L234 -35Q249 -32 260 -32Q288 -32 307 -49T326 -93Q326 -123 302 -141T238 -160Q206 -160 176 -145L185 -120Q208 -138 239 -138Q299 -138 299 -94Q299 -53 241 -53H239Q224 -53 201 -56L214 -6Z" />
<glyph unicode="&#xe8;" glyph-name="egrave" horiz-adv-x="458" d="M162 655H205L247 565H229L162 655ZM410 217H75Q77 175 87 143Q128 13 273 13Q341 13 399 54L412 35Q349 -9 270 -9Q161 -9 101 63Q48 126 48 225Q48 335 108 405Q160 466 235 466Q321 466 369
393Q410 328 410 225V217ZM77 239H383Q380 332 342 389Q305 444 234 444Q171 444 129 392Q83 333 77 239Z" />
<glyph unicode="&#xe9;" glyph-name="eacute" horiz-adv-x="458" d="M321 655L254 565H236L278 655H321ZM410 217H75Q77 175 87 143Q128 13 273 13Q341 13 399 54L412 35Q349 -9 270 -9Q161 -9 101 63Q48 126 48 225Q48 335 108 405Q160 466 235 466Q321 466 369
393Q410 328 410 225V217ZM77 239H383Q380 332 342 389Q305 444 234 444Q171 444 129 392Q83 333 77 239Z" />
<glyph unicode="&#xea;" glyph-name="ecircumflex" horiz-adv-x="458" d="M259 655L320 565H288L246 627L199 565H168L231 655H259ZM410 217H75Q77 175 87 143Q128 13 273 13Q341 13 399 54L412 35Q349 -9 270 -9Q161 -9 101 63Q48 126 48 225Q48 335 108 405Q160
466 235 466Q321 466 369 393Q410 328 410 225V217ZM77 239H383Q380 332 342 389Q305 444 234 444Q171 444 129 392Q83 333 77 239Z" />
<glyph unicode="&#xeb;" glyph-name="edieresis" horiz-adv-x="458" d="M147 619Q149 648 176 648Q205 648 205 619Q205 590 176 590Q150 590 147 619ZM275 619Q277 648 304 648Q333 648 333 619Q333 590 304 590Q278 590 275 619ZM410 217H75Q77 175 87 143Q128
13 273 13Q341 13 399 54L412 35Q349 -9 270 -9Q161 -9 101 63Q48 126 48 225Q48 335 108 405Q160 466 235 466Q321 466 369 393Q410 328 410 225V217ZM77 239H383Q380 332 342 389Q305 444 234 444Q171 444 129 392Q83 333 77 239Z" />
<glyph unicode="&#xec;" glyph-name="igrave" horiz-adv-x="203" d="M114 454V0H87V454H114ZM26 655H69L111 565H93L26 655Z" />
<glyph unicode="&#xed;" glyph-name="iacute" horiz-adv-x="203" d="M114 454V0H87V454H114ZM178 655L112 565H94L135 655H178Z" />
<glyph unicode="&#xee;" glyph-name="icircumflex" horiz-adv-x="203" d="M114 454V0H87V454H114ZM118 655L179 565H147L105 627L58 565H27L90 655H118Z" />
<glyph unicode="&#xef;" glyph-name="idieresis" horiz-adv-x="203" d="M117 454V0H90V454H117ZM7 621Q9 653 38 653Q70 653 70 621Q70 590 38 590Q10 590 7 621ZM135 621Q137 653 167 653Q198 653 198 621Q198 590 167 590Q138 590 135 621Z" />
<glyph unicode="&#xf0;" glyph-name="eth" horiz-adv-x="503" d="M271 570Q232 602 166 635L185 646Q245 621 293 581L406 638L423 622L312 564Q328 548 343 528Q427 416 427 278Q427 268 427 257Q420 126 382 63Q335 -12 234 -12Q140 -12 87 65Q48 123 48 192Q48
314 119 370Q169 409 245 409Q288 409 331 386Q365 369 399 337Q381 440 320 520Q306 539 290 553L162 487L145 507L271 570ZM403 307Q361 347 325 366Q285 387 244 387Q163 387 119 337T75 194Q75 111 125 57Q168 10 230 10Q342 10 380 116Q403 178 403 295Q403
297 403 301Q403 305 403 307Z" />
<glyph unicode="&#xf1;" glyph-name="ntilde" horiz-adv-x="508" d="M147 589L128 600Q160 658 208 658H210Q243 658 272 638L277 635Q312 612 326 612Q351 612 377 660L395 648Q362 586 323 586H321Q306 586 266 607Q261 610 258 612Q224 632 207 632Q168 632
147 589ZM435 0H408V268Q408 444 258 444Q213 444 179 426T105 360V0H78V454H98L105 396Q179 466 262 466Q435 466 435 273V0Z" />
<glyph unicode="&#xf2;" glyph-name="ograve" horiz-adv-x="523" d="M189 655H232L274 565H256L189 655ZM475 226Q475 119 411 51Q353 -12 261 -12Q156 -12 97 68Q48 133 48 226Q48 335 113 404Q172 466 261 466Q362 466 423 387Q475 320 475 226ZM75 226Q75 128
136 65Q188 10 262 10Q346 10 401 80Q448 141 448 226Q448 327 386 390Q334 444 261 444Q175 444 122 375Q75 314 75 226Z" />
<glyph unicode="&#xf3;" glyph-name="oacute" horiz-adv-x="523" d="M329 655L262 565H244L286 655H329ZM475 226Q475 119 411 51Q353 -12 261 -12Q156 -12 97 68Q48 133 48 226Q48 335 113 404Q172 466 261 466Q362 466 423 387Q475 320 475 226ZM75 226Q75 128
136 65Q188 10 262 10Q346 10 401 80Q448 141 448 226Q448 327 386 390Q334 444 261 444Q175 444 122 375Q75 314 75 226Z" />
<glyph unicode="&#xf4;" glyph-name="ocircumflex" horiz-adv-x="523" d="M282 655L344 565H312L269 627L223 565H192L254 655H282ZM475 226Q475 119 411 51Q353 -12 261 -12Q156 -12 97 68Q48 133 48 226Q48 335 113 404Q172 466 261 466Q362 466 423 387Q475
320 475 226ZM75 226Q75 128 136 65Q188 10 262 10Q346 10 401 80Q448 141 448 226Q448 327 386 390Q334 444 261 444Q175 444 122 375Q75 314 75 226Z" />
<glyph unicode="&#xf5;" glyph-name="otilde" horiz-adv-x="523" d="M121 600Q154 662 203 663H204Q235 663 268 640Q269 639 271 638Q272 636 273 636Q301 617 321 617Q347 617 372 661L392 648Q357 586 318 586H316Q302 586 261 608Q257 610 253 612Q219 632
203 632Q162 633 142 588L121 600ZM475 226Q475 119 411 51Q353 -12 261 -12Q156 -12 97 68Q48 133 48 226Q48 335 113 404Q172 466 261 466Q362 466 423 387Q475 320 475 226ZM75 226Q75 128 136 65Q188 10 262 10Q346 10 401 80Q448 141 448 226Q448 327 386
390Q334 444 261 444Q175 444 122 375Q75 314 75 226Z" />
<glyph unicode="&#xf6;" glyph-name="odieresis" horiz-adv-x="523" d="M168 619Q170 648 196 648Q225 648 225 619Q225 590 196 590Q170 590 168 619ZM296 619Q297 648 325 648Q353 648 353 619Q353 590 325 590Q298 590 296 619ZM475 226Q475 119 411 51Q353
-12 261 -12Q156 -12 97 68Q48 133 48 226Q48 335 113 404Q172 466 261 466Q362 466 423 387Q475 320 475 226ZM75 226Q75 128 136 65Q188 10 262 10Q346 10 401 80Q448 141 448 226Q448 327 386 390Q334 444 261 444Q175 444 122 375Q75 314 75 226Z" />
<glyph unicode="&#xf7;" glyph-name="divide" horiz-adv-x="356" d="M45 201V223H311V201H45ZM179 272Q155 272 155 297Q155 321 179 321Q201 321 201 297Q201 272 179 272ZM179 92Q155 92 155 117Q155 141 179 141Q201 141 201 117Q201 92 179 92Z" />
<glyph unicode="&#xf8;" glyph-name="oslash" horiz-adv-x="523" d="M176 5L160 -30H134L154 16Q103 47 75 104Q51 154 48 226Q48 335 113 404Q172 466 261 466Q312 464 349 447L368 490H396L371 435Q421 402 447 348Q472 298 475 226Q475 119 411 51Q353 -12
261 -12Q213 -10 176 5ZM186 28Q218 12 262 10Q346 10 401 80Q448 141 448 226Q445 301 416 351Q394 388 360 412L186 28ZM339 425Q306 442 261 444Q175 444 122 375Q75 314 75 226Q78 153 106 104Q128 65 165 40L339 425Z" />
<glyph unicode="&#xf9;" glyph-name="ugrave" horiz-adv-x="497" d="M171 655H214L255 565H237L171 655ZM419 454V0H401L393 56Q323 -12 236 -12Q78 -12 78 182V454H105V184Q105 10 238 10Q325 10 392 89V454H419Z" />
<glyph unicode="&#xfa;" glyph-name="uacute" horiz-adv-x="497" d="M304 655L238 565H220L261 655H304ZM419 454V0H401L393 56Q323 -12 236 -12Q78 -12 78 182V454H105V184Q105 10 238 10Q325 10 392 89V454H419Z" />
<glyph unicode="&#xfb;" glyph-name="ucircumflex" horiz-adv-x="497" d="M265 655L326 565H294L252 627L205 565H174L237 655H265ZM419 454V0H401L393 56Q323 -12 236 -12Q78 -12 78 182V454H105V184Q105 10 238 10Q325 10 392 89V454H419Z" />
<glyph unicode="&#xfc;" glyph-name="udieresis" horiz-adv-x="497" d="M159 619Q161 648 187 648Q216 648 216 619Q216 590 187 590Q161 590 159 619ZM287 619Q289 648 316 648Q344 648 344 619Q344 590 316 590Q289 590 287 619ZM419 454V0H401L393 56Q323 -12
236 -12Q78 -12 78 182V454H105V184Q105 10 238 10Q325 10 392 89V454H419Z" />
<glyph unicode="&#xfd;" glyph-name="yacute" horiz-adv-x="426" d="M280 655L213 565H195L236 655H280ZM411 454L211 -72Q186 -137 159 -164T89 -191Q55 -191 15 -173L28 -152Q54 -169 87 -169Q125 -169 149 -138T203 -22L211 0H200L16 454H46L219 13L383 454H411Z" />
<glyph unicode="&#xfe;" glyph-name="thorn" horiz-adv-x="527" d="M78 621L105 635V378Q149 428 186 447T274 466Q371 466 425 395Q471 334 471 236Q471 118 408 49Q351 -12 263 -12Q175 -12 105 64V-197H78V621ZM105 96Q175 10 257 10Q348 10 400 77Q444 136
444 231Q444 339 391 395Q344 444 264 444Q174 444 105 346V96Z" />
<glyph unicode="&#xff;" glyph-name="ydieresis" horiz-adv-x="426" d="M122 621Q125 653 153 653Q185 653 185 621Q185 590 153 590Q125 590 122 621ZM250 621Q252 653 282 653Q313 653 313 621Q313 590 282 590Q253 590 250 621ZM411 454L211 -72Q186 -137 159
-164T89 -191Q55 -191 15 -173L28 -152Q54 -169 87 -169Q125 -169 149 -138T203 -22L211 0H200L16 454H46L219 13L383 454H411Z" />
<glyph unicode="&#x2013;" glyph-name="endash" horiz-adv-x="381" d="M70 211V233H311V211H70Z" />
<glyph unicode="&#x2014;" glyph-name="emdash" horiz-adv-x="622" d="M70 211V233H552V211H70Z" />
<glyph unicode="&#x2018;" glyph-name="quoteleft" horiz-adv-x="176" d="M92 563Q116 563 116 540Q116 519 94 519Q70 519 70 558V612L78 624L79 563H92Z" />
<glyph unicode="&#x2019;" glyph-name="quoteright" horiz-adv-x="176" d="M85 593Q61 593 61 616Q61 637 83 637Q107 637 107 598V544L99 532L98 593H85Z" />
<glyph unicode="&#x201a;" glyph-name="quotesinglbase" horiz-adv-x="170" d="M85 0Q61 0 61 23Q61 44 83 44Q107 44 107 5V-49L99 -61L98 0H85Z" />
<glyph unicode="&#x201c;" glyph-name="quotedblleft" horiz-adv-x="253" d="M92 563Q116 563 116 540Q116 519 94 519Q70 519 70 558V612L78 624L79 563H92ZM169 563Q193 563 193 540Q193 519 171 519Q147 519 147 558V612L155 624L156 563H169Z" />
<glyph unicode="&#x201d;" glyph-name="quotedblright" horiz-adv-x="252" d="M85 593Q61 593 61 616Q61 637 83 637Q107 637 107 598V544L99 532L98 593H85ZM161 593Q137 593 137 616Q137 637 159 637Q183 637 183 598V544L175 532L174 593H161Z" />
<glyph unicode="&#x201e;" glyph-name="quotedblbase" horiz-adv-x="252" d="M78 0Q54 0 54 23Q54 44 76 44Q100 44 100 5V-49L92 -61L91 0H78ZM154 0Q130 0 130 23Q130 44 152 44Q176 44 176 5V-49L168 -61L167 0H154Z" />
<glyph unicode="&#x2022;" glyph-name="bullet" horiz-adv-x="233" d="M118 150Q70 150 70 199Q70 246 118 246Q163 246 163 199Q163 150 118 150Z" />
<glyph unicode="&#x2039;" glyph-name="guilsinglleft" horiz-adv-x="261" d="M221 29Q122 75 50 226Q121 377 221 424V399Q128 345 76 226Q129 106 221 54V29Z" />
<glyph unicode="&#x203a;" glyph-name="guilsinglright" horiz-adv-x="261" d="M40 29V54Q131 105 184 226Q132 346 40 399V424Q137 378 211 226Q137 74 40 29Z" />
</font>
</defs>
</svg>
