<?xml version="1.0" encoding="UTF-8"?>
<svg width="57px" height="95px" viewBox="0 0 57 95" version="1.1" xmlns="http://www.w3.org/2000/svg" xmlns:xlink="http://www.w3.org/1999/xlink">
    <!-- Generator: Sketch 48.2 (47327) - http://www.bohemiancoding.com/sketch -->
    <title>vertical/fr/wfp-logo-vertical-white-fr</title>
    <desc>Created with Sketch.</desc>
    <defs></defs>
    <g id="White" stroke="none" stroke-width="1" fill="none" fill-rule="evenodd" transform="translate(-688.000000, -218.000000)">
        <g id="vertical/fr/wfp-logo-vertical-white-fr" transform="translate(688.000000, 218.000000)" fill="#FFFFFF">
            <path d="M12.912,94.333 L11.142,88.564 L11.097,88.564 C11.16,89.738 11.192,90.521 11.192,90.913 L11.192,94.333 L9.799,94.333 L9.799,86.98 L11.922,86.98 L13.662,92.603 L13.692,92.603 L15.538,86.98 L17.66,86.98 L17.66,94.333 L16.206,94.333 L16.206,90.853 C16.206,90.689 16.209,90.499 16.214,90.284 C16.219,90.07 16.242,89.5 16.282,88.574 L16.237,88.574 L14.341,94.333 L12.912,94.333" id="Fill-1"></path>
            <path d="M20.191,91.512 C20.191,92.068 20.283,92.489 20.467,92.774 C20.648,93.059 20.947,93.201 21.359,93.201 C21.767,93.201 22.062,93.06 22.242,92.776 C22.422,92.493 22.511,92.071 22.511,91.512 C22.511,90.955 22.42,90.538 22.24,90.259 C22.058,89.982 21.761,89.842 21.349,89.842 C20.939,89.842 20.644,89.98 20.465,90.257 C20.283,90.533 20.191,90.952 20.191,91.512 Z M24.08,91.512 C24.08,92.427 23.838,93.143 23.355,93.659 C22.873,94.176 22.201,94.434 21.34,94.434 C20.799,94.434 20.322,94.315 19.91,94.079 C19.498,93.843 19.181,93.503 18.96,93.061 C18.739,92.618 18.628,92.102 18.628,91.512 C18.628,90.593 18.868,89.879 19.347,89.369 C19.826,88.859 20.5,88.604 21.369,88.604 C21.908,88.604 22.385,88.722 22.797,88.957 C23.209,89.191 23.527,89.528 23.748,89.968 C23.969,90.407 24.08,90.922 24.08,91.512 Z" id="Fill-2"></path>
            <path d="M30.085,94.333 L28.551,94.333 L28.551,91.049 C28.551,90.644 28.478,90.339 28.335,90.136 C28.19,89.934 27.961,89.832 27.645,89.832 C27.217,89.832 26.906,89.976 26.715,90.262 C26.524,90.549 26.429,91.023 26.429,91.688 L26.429,94.333 L24.894,94.333 L24.894,88.71 L26.066,88.71 L26.272,89.43 L26.358,89.43 C26.529,89.158 26.764,88.952 27.064,88.813 C27.364,88.674 27.706,88.604 28.088,88.604 C28.742,88.604 29.238,88.781 29.577,89.135 C29.915,89.489 30.085,89.999 30.085,90.667 L30.085,94.333" id="Fill-3"></path>
            <path d="M33.55,93.212 C33.942,93.212 34.229,93.098 34.412,92.869 C34.594,92.642 34.695,92.254 34.712,91.708 L34.712,91.542 C34.712,90.938 34.619,90.506 34.432,90.244 C34.246,89.982 33.944,89.852 33.524,89.852 C33.182,89.852 32.917,89.997 32.727,90.287 C32.538,90.577 32.443,90.999 32.443,91.552 C32.443,92.105 32.539,92.52 32.73,92.797 C32.921,93.073 33.194,93.212 33.55,93.212 Z M33.012,94.434 C32.351,94.434 31.832,94.177 31.455,93.664 C31.078,93.151 30.889,92.44 30.889,91.531 C30.889,90.609 31.081,89.892 31.465,89.377 C31.849,88.862 32.378,88.604 33.051,88.604 C33.76,88.604 34.3,88.88 34.672,89.43 L34.722,89.43 C34.644,89.011 34.606,88.637 34.606,88.308 L34.606,86.508 L36.145,86.508 L36.145,94.333 L34.968,94.333 L34.672,93.604 L34.606,93.604 C34.258,94.157 33.725,94.434 33.012,94.434 Z" id="Fill-4"></path>
            <path d="M37.264,94.333 L38.798,94.333 L38.798,88.71 L37.264,88.71 L37.264,94.333 Z M37.199,87.257 C37.199,86.757 37.477,86.508 38.034,86.508 C38.591,86.508 38.869,86.757 38.869,87.257 C38.869,87.495 38.8,87.68 38.66,87.812 C38.521,87.945 38.312,88.011 38.034,88.011 C37.477,88.011 37.199,87.76 37.199,87.257 Z" id="Fill-5"></path>
            <path d="M43.031,91.728 L42.437,91.748 C41.992,91.762 41.66,91.842 41.442,91.989 C41.223,92.137 41.115,92.361 41.115,92.663 C41.115,93.096 41.363,93.313 41.859,93.313 C42.215,93.313 42.499,93.21 42.712,93.005 C42.925,92.801 43.031,92.529 43.031,92.191 L43.031,91.728 Z M43.483,94.333 L43.187,93.568 L43.146,93.568 C42.889,93.894 42.623,94.119 42.349,94.245 C42.076,94.371 41.72,94.434 41.281,94.434 C40.741,94.434 40.316,94.279 40.006,93.971 C39.696,93.662 39.541,93.224 39.541,92.653 C39.541,92.057 39.75,91.616 40.167,91.333 C40.585,91.05 41.214,90.893 42.055,90.862 L43.031,90.833 L43.031,90.586 C43.031,90.017 42.739,89.731 42.156,89.731 C41.707,89.731 41.178,89.867 40.572,90.139 L40.063,89.103 C40.711,88.764 41.429,88.595 42.217,88.595 C42.971,88.595 43.549,88.759 43.951,89.088 C44.353,89.416 44.554,89.916 44.554,90.586 L44.554,94.333 L43.483,94.333 Z" id="Fill-6"></path>
            <polygon id="Fill-7" points="45.65 94.333 47.184 94.333 47.184 86.508 45.65 86.508"></polygon>
            <path d="M4.672,79.937 C4.179,78.351 3.901,77.453 3.839,77.246 C3.777,77.038 3.733,76.873 3.706,76.753 C3.595,77.182 3.279,78.243 2.755,79.937 L4.672,79.937 Z M5.577,82.994 L5.044,81.244 L2.363,81.244 L1.83,82.994 L0.15,82.994 L2.745,75.611 L4.651,75.611 L7.257,82.994 L5.577,82.994 Z" id="Fill-8"></path>
            <polygon id="Fill-9" points="7.768 82.994 9.302 82.994 9.302 75.169 7.768 75.169"></polygon>
            <path d="M10.426,82.994 L11.96,82.994 L11.96,77.371 L10.426,77.371 L10.426,82.994 Z M10.361,75.918 C10.361,75.418 10.639,75.169 11.196,75.169 C11.752,75.169 12.03,75.418 12.03,75.918 C12.03,76.156 11.961,76.341 11.822,76.474 C11.682,76.606 11.474,76.672 11.196,76.672 C10.639,76.672 10.361,76.421 10.361,75.918 Z" id="Fill-10"></path>
            <path d="M18.118,82.994 L16.585,82.994 L16.585,79.71 C16.585,79.305 16.517,79 16.381,78.797 C16.245,78.595 16.031,78.493 15.739,78.493 C15.347,78.493 15.062,78.637 14.885,78.926 C14.707,79.214 14.618,79.688 14.618,80.349 L14.618,82.994 L13.084,82.994 L13.084,77.371 L14.256,77.371 L14.462,78.091 L14.548,78.091 C14.698,77.832 14.917,77.631 15.201,77.484 C15.487,77.339 15.813,77.266 16.182,77.266 C17.024,77.266 17.594,77.541 17.892,78.091 L18.028,78.091 C18.179,77.829 18.401,77.626 18.695,77.482 C18.988,77.338 19.319,77.266 19.687,77.266 C20.324,77.266 20.806,77.43 21.135,77.756 C21.461,78.083 21.625,78.607 21.625,79.328 L21.625,82.994 L20.086,82.994 L20.086,79.71 C20.086,79.305 20.017,79 19.881,78.797 C19.746,78.595 19.532,78.493 19.24,78.493 C18.864,78.493 18.584,78.627 18.398,78.895 C18.212,79.163 18.118,79.589 18.118,80.173 L18.118,82.994" id="Fill-11"></path>
            <path d="M25.078,78.357 C24.753,78.357 24.498,78.46 24.314,78.666 C24.13,78.873 24.024,79.165 23.997,79.544 L26.149,79.544 C26.142,79.165 26.044,78.873 25.853,78.666 C25.662,78.46 25.403,78.357 25.078,78.357 Z M25.295,83.095 C24.389,83.095 23.681,82.845 23.173,82.346 C22.663,81.846 22.408,81.139 22.408,80.223 C22.408,79.281 22.643,78.553 23.114,78.038 C23.586,77.523 24.237,77.266 25.068,77.266 C25.863,77.266 26.481,77.492 26.924,77.944 C27.367,78.398 27.588,79.022 27.588,79.82 L27.588,80.566 L23.962,80.566 C23.978,81.001 24.107,81.341 24.349,81.586 C24.591,81.831 24.93,81.953 25.365,81.953 C25.704,81.953 26.024,81.918 26.326,81.848 C26.628,81.777 26.942,81.665 27.271,81.511 L27.271,82.697 C27.003,82.832 26.717,82.932 26.411,82.997 C26.106,83.063 25.734,83.095 25.295,83.095 Z" id="Fill-12"></path>
            <path d="M33.623,82.994 L32.089,82.994 L32.089,79.71 C32.089,79.305 32.016,79 31.873,78.797 C31.728,78.595 31.499,78.493 31.183,78.493 C30.755,78.493 30.444,78.637 30.253,78.923 C30.062,79.21 29.967,79.685 29.967,80.349 L29.967,82.994 L28.432,82.994 L28.432,77.371 L29.604,77.371 L29.81,78.091 L29.896,78.091 C30.067,77.819 30.302,77.613 30.602,77.475 C30.902,77.335 31.244,77.266 31.626,77.266 C32.28,77.266 32.776,77.442 33.115,77.796 C33.453,78.15 33.623,78.66 33.623,79.328 L33.623,82.994" id="Fill-13"></path>
            <path d="M37.077,81.873 C37.345,81.873 37.667,81.814 38.042,81.696 L38.042,82.838 C37.66,83.009 37.19,83.095 36.634,83.095 C36.02,83.095 35.574,82.939 35.294,82.63 C35.014,82.319 34.874,81.854 34.874,81.234 L34.874,78.524 L34.139,78.524 L34.139,77.874 L34.984,77.361 L35.426,76.175 L36.408,76.175 L36.408,77.371 L37.982,77.371 L37.982,78.524 L36.408,78.524 L36.408,81.234 C36.408,81.452 36.468,81.613 36.592,81.717 C36.714,81.82 36.876,81.873 37.077,81.873" id="Fill-14"></path>
            <path d="M41.948,80.389 L41.354,80.409 C40.909,80.423 40.577,80.503 40.359,80.65 C40.14,80.798 40.032,81.023 40.032,81.324 C40.032,81.757 40.28,81.974 40.776,81.974 C41.132,81.974 41.416,81.871 41.629,81.666 C41.842,81.462 41.948,81.19 41.948,80.852 L41.948,80.389 Z M42.4,82.994 L42.104,82.229 L42.063,82.229 C41.806,82.555 41.54,82.78 41.266,82.906 C40.993,83.032 40.638,83.095 40.198,83.095 C39.658,83.095 39.233,82.94 38.923,82.632 C38.613,82.323 38.458,81.885 38.458,81.314 C38.458,80.718 38.667,80.277 39.084,79.994 C39.502,79.711 40.131,79.554 40.972,79.523 L41.948,79.494 L41.948,79.247 C41.948,78.678 41.656,78.393 41.073,78.393 C40.624,78.393 40.096,78.528 39.489,78.8 L38.98,77.764 C39.628,77.425 40.346,77.256 41.134,77.256 C41.887,77.256 42.466,77.42 42.868,77.749 C43.27,78.077 43.472,78.577 43.472,79.247 L43.472,82.994 L42.4,82.994 Z" id="Fill-15"></path>
            <path d="M44.556,82.994 L46.09,82.994 L46.09,77.371 L44.556,77.371 L44.556,82.994 Z M44.491,75.918 C44.491,75.418 44.769,75.169 45.326,75.169 C45.883,75.169 46.161,75.418 46.161,75.918 C46.161,76.156 46.092,76.341 45.952,76.474 C45.813,76.606 45.604,76.672 45.326,76.672 C44.769,76.672 44.491,76.421 44.491,75.918 Z" id="Fill-16"></path>
            <path d="M50.353,77.266 C50.56,77.266 50.733,77.281 50.871,77.311 L50.756,78.749 C50.632,78.716 50.48,78.699 50.303,78.699 C49.813,78.699 49.431,78.825 49.158,79.076 C48.885,79.328 48.749,79.68 48.749,80.133 L48.749,82.994 L47.215,82.994 L47.215,77.371 L48.377,77.371 L48.602,78.316 L48.678,78.316 C48.852,78.002 49.088,77.748 49.385,77.555 C49.681,77.362 50.004,77.266 50.353,77.266" id="Fill-17"></path>
            <path d="M53.76,78.357 C53.435,78.357 53.181,78.46 52.997,78.666 C52.812,78.873 52.707,79.165 52.68,79.544 L54.832,79.544 C54.825,79.165 54.726,78.873 54.536,78.666 C54.345,78.46 54.086,78.357 53.76,78.357 Z M53.977,83.095 C53.072,83.095 52.364,82.845 51.855,82.346 C51.346,81.846 51.091,81.139 51.091,80.223 C51.091,79.281 51.326,78.553 51.797,78.038 C52.268,77.523 52.92,77.266 53.751,77.266 C54.546,77.266 55.164,77.492 55.606,77.944 C56.05,78.398 56.27,79.022 56.27,79.82 L56.27,80.566 L52.644,80.566 C52.661,81.001 52.79,81.341 53.032,81.586 C53.273,81.831 53.612,81.953 54.048,81.953 C54.387,81.953 54.707,81.918 55.009,81.848 C55.31,81.777 55.625,81.665 55.954,81.511 L55.954,82.697 C55.685,82.832 55.399,82.932 55.093,82.997 C54.789,83.063 54.417,83.095 53.977,83.095 Z" id="Fill-18"></path>
            <path d="M2.535,67.764 L3.048,67.764 C3.528,67.764 3.886,67.669 4.124,67.479 C4.362,67.29 4.481,67.015 4.481,66.652 C4.481,66.287 4.382,66.017 4.182,65.843 C3.983,65.668 3.67,65.581 3.244,65.581 L2.535,65.581 L2.535,67.764 Z M6.056,66.597 C6.056,67.388 5.808,67.993 5.314,68.412 C4.819,68.831 4.116,69.041 3.204,69.041 L2.535,69.041 L2.535,71.656 L0.976,71.656 L0.976,64.304 L3.325,64.304 C4.217,64.304 4.895,64.495 5.359,64.879 C5.823,65.264 6.056,65.836 6.056,66.597 Z" id="Fill-19"></path>
            <path d="M9.947,65.928 C10.155,65.928 10.327,65.943 10.465,65.973 L10.349,67.411 C10.225,67.378 10.074,67.361 9.897,67.361 C9.407,67.361 9.026,67.487 8.753,67.738 C8.479,67.99 8.343,68.342 8.343,68.795 L8.343,71.656 L6.809,71.656 L6.809,66.033 L7.97,66.033 L8.197,66.979 L8.272,66.979 C8.447,66.664 8.682,66.41 8.979,66.217 C9.276,66.025 9.598,65.928 9.947,65.928" id="Fill-20"></path>
            <path d="M12.253,68.835 C12.253,69.392 12.344,69.813 12.527,70.098 C12.71,70.382 13.008,70.525 13.42,70.525 C13.829,70.525 14.123,70.383 14.302,70.1 C14.482,69.816 14.572,69.395 14.572,68.835 C14.572,68.278 14.481,67.861 14.3,67.582 C14.119,67.305 13.822,67.165 13.41,67.165 C13.001,67.165 12.706,67.304 12.525,67.58 C12.344,67.856 12.253,68.275 12.253,68.835 Z M16.141,68.835 C16.141,69.75 15.899,70.466 15.417,70.983 C14.934,71.499 14.261,71.757 13.4,71.757 C12.86,71.757 12.384,71.639 11.971,71.402 C11.559,71.166 11.242,70.826 11.021,70.384 C10.8,69.941 10.689,69.425 10.689,68.835 C10.689,67.916 10.928,67.202 11.408,66.692 C11.887,66.183 12.562,65.928 13.43,65.928 C13.97,65.928 14.446,66.045 14.858,66.28 C15.271,66.515 15.588,66.852 15.809,67.291 C16.03,67.731 16.141,68.245 16.141,68.835 Z" id="Fill-21"></path>
            <path d="M18.094,67.874 C18.094,68.18 18.164,68.421 18.303,68.599 C18.442,68.776 18.654,68.865 18.939,68.865 C19.227,68.865 19.439,68.776 19.573,68.599 C19.707,68.421 19.773,68.18 19.773,67.874 C19.773,67.197 19.495,66.858 18.939,66.858 C18.376,66.858 18.094,67.197 18.094,67.874 Z M17.536,72.451 C17.536,72.662 17.638,72.828 17.84,72.949 C18.043,73.069 18.327,73.13 18.693,73.13 C19.243,73.13 19.674,73.055 19.985,72.903 C20.297,72.753 20.453,72.547 20.453,72.285 C20.453,72.073 20.361,71.928 20.176,71.848 C19.992,71.767 19.707,71.727 19.322,71.727 L18.527,71.727 C18.245,71.727 18.01,71.793 17.82,71.926 C17.631,72.058 17.536,72.232 17.536,72.451 Z M21.877,66.033 L21.877,66.814 L20.996,67.039 C21.156,67.291 21.238,67.572 21.238,67.885 C21.238,68.488 21.027,68.958 20.607,69.295 C20.185,69.632 19.601,69.801 18.854,69.801 L18.577,69.785 L18.351,69.76 C18.193,69.881 18.114,70.015 18.114,70.162 C18.114,70.384 18.396,70.494 18.959,70.494 L19.915,70.494 C20.531,70.494 21.002,70.627 21.326,70.892 C21.648,71.156 21.81,71.546 21.81,72.059 C21.81,72.716 21.537,73.226 20.988,73.588 C20.441,73.949 19.653,74.131 18.627,74.131 C17.843,74.131 17.243,73.994 16.829,73.721 C16.415,73.447 16.208,73.064 16.208,72.571 C16.208,72.232 16.314,71.949 16.525,71.722 C16.736,71.494 17.046,71.331 17.455,71.233 C17.298,71.167 17.16,71.057 17.043,70.904 C16.926,70.752 16.867,70.59 16.867,70.419 C16.867,70.204 16.929,70.026 17.053,69.884 C17.177,69.741 17.357,69.601 17.591,69.464 C17.296,69.336 17.062,69.132 16.889,68.85 C16.717,68.568 16.631,68.236 16.631,67.854 C16.631,67.24 16.83,66.767 17.229,66.431 C17.628,66.096 18.198,65.928 18.939,65.928 C19.097,65.928 19.283,65.942 19.5,65.971 C19.717,65.999 19.854,66.021 19.915,66.033 L21.877,66.033 Z" id="Fill-22"></path>
            <path d="M25.514,65.928 C25.722,65.928 25.894,65.943 26.032,65.973 L25.917,67.411 C25.793,67.378 25.641,67.361 25.464,67.361 C24.974,67.361 24.593,67.487 24.319,67.738 C24.047,67.99 23.91,68.342 23.91,68.795 L23.91,71.656 L22.376,71.656 L22.376,66.033 L23.538,66.033 L23.763,66.979 L23.84,66.979 C24.014,66.664 24.249,66.41 24.546,66.217 C24.843,66.025 25.165,65.928 25.514,65.928" id="Fill-23"></path>
            <path d="M29.617,69.051 L29.023,69.071 C28.578,69.085 28.246,69.165 28.028,69.312 C27.809,69.46 27.701,69.685 27.701,69.986 C27.701,70.419 27.949,70.636 28.445,70.636 C28.801,70.636 29.085,70.533 29.298,70.328 C29.511,70.124 29.617,69.853 29.617,69.514 L29.617,69.051 Z M30.069,71.656 L29.773,70.892 L29.732,70.892 C29.474,71.217 29.209,71.442 28.935,71.568 C28.662,71.694 28.306,71.757 27.867,71.757 C27.327,71.757 26.902,71.603 26.592,71.294 C26.282,70.985 26.127,70.547 26.127,69.977 C26.127,69.38 26.336,68.939 26.753,68.656 C27.171,68.373 27.8,68.216 28.641,68.186 L29.617,68.156 L29.617,67.909 C29.617,67.34 29.325,67.055 28.742,67.055 C28.293,67.055 27.764,67.19 27.158,67.462 L26.649,66.426 C27.297,66.087 28.014,65.918 28.802,65.918 C29.556,65.918 30.135,66.082 30.537,66.411 C30.939,66.739 31.14,67.239 31.14,67.909 L31.14,71.656 L30.069,71.656 Z" id="Fill-24"></path>
            <path d="M37.267,71.656 L35.733,71.656 L35.733,68.372 C35.733,67.967 35.666,67.662 35.53,67.459 C35.394,67.257 35.181,67.155 34.889,67.155 C34.497,67.155 34.212,67.299 34.034,67.588 C33.856,67.876 33.767,68.351 33.767,69.011 L33.767,71.656 L32.233,71.656 L32.233,66.033 L33.405,66.033 L33.611,66.753 L33.697,66.753 C33.847,66.494 34.065,66.293 34.35,66.146 C34.635,66.001 34.963,65.928 35.331,65.928 C36.173,65.928 36.743,66.203 37.041,66.753 L37.176,66.753 C37.328,66.491 37.55,66.288 37.843,66.145 C38.136,66 38.468,65.928 38.837,65.928 C39.473,65.928 39.956,66.092 40.283,66.418 C40.609,66.745 40.773,67.27 40.773,67.99 L40.773,71.656 L39.234,71.656 L39.234,68.372 C39.234,67.967 39.166,67.662 39.03,67.459 C38.894,67.257 38.68,67.155 38.389,67.155 C38.014,67.155 37.733,67.289 37.547,67.558 C37.36,67.825 37.267,68.251 37.267,68.835 L37.267,71.656" id="Fill-25"></path>
            <path d="M46.899,71.656 L45.365,71.656 L45.365,68.372 C45.365,67.967 45.298,67.662 45.162,67.459 C45.026,67.257 44.812,67.155 44.52,67.155 C44.129,67.155 43.843,67.299 43.666,67.588 C43.488,67.876 43.399,68.351 43.399,69.011 L43.399,71.656 L41.865,71.656 L41.865,66.033 L43.037,66.033 L43.243,66.753 L43.329,66.753 C43.479,66.494 43.697,66.293 43.982,66.146 C44.267,66.001 44.595,65.928 44.963,65.928 C45.804,65.928 46.375,66.203 46.673,66.753 L46.808,66.753 C46.96,66.491 47.181,66.288 47.475,66.145 C47.768,66 48.099,65.928 48.468,65.928 C49.105,65.928 49.588,66.092 49.915,66.418 C50.241,66.745 50.405,67.27 50.405,67.99 L50.405,71.656 L48.866,71.656 L48.866,68.372 C48.866,67.967 48.798,67.662 48.662,67.459 C48.526,67.257 48.312,67.155 48.021,67.155 C47.645,67.155 47.365,67.289 47.178,67.558 C46.992,67.825 46.899,68.251 46.899,68.835 L46.899,71.656" id="Fill-26"></path>
            <path d="M53.859,67.02 C53.534,67.02 53.279,67.122 53.095,67.328 C52.911,67.535 52.806,67.827 52.778,68.206 L54.93,68.206 C54.924,67.827 54.825,67.535 54.635,67.328 C54.443,67.122 54.184,67.02 53.859,67.02 Z M54.076,71.757 C53.171,71.757 52.463,71.507 51.954,71.008 C51.444,70.508 51.189,69.801 51.189,68.885 C51.189,67.943 51.425,67.215 51.895,66.7 C52.367,66.186 53.018,65.928 53.849,65.928 C54.644,65.928 55.262,66.154 55.705,66.606 C56.148,67.06 56.369,67.685 56.369,68.482 L56.369,69.228 L52.743,69.228 C52.76,69.663 52.889,70.003 53.131,70.248 C53.372,70.493 53.711,70.615 54.146,70.615 C54.485,70.615 54.806,70.58 55.107,70.51 C55.409,70.439 55.723,70.327 56.053,70.173 L56.053,71.359 C55.784,71.494 55.498,71.594 55.192,71.659 C54.887,71.725 54.515,71.757 54.076,71.757 Z" id="Fill-27"></path>
            <path d="M35.847,4.482 L36.395,4.482 C36.907,4.482 37.29,4.381 37.544,4.179 C37.798,3.977 37.926,3.682 37.926,3.295 C37.926,2.905 37.819,2.617 37.606,2.431 C37.393,2.245 37.059,2.151 36.604,2.151 L35.847,2.151 L35.847,4.482 Z M39.607,3.236 C39.607,4.081 39.343,4.728 38.814,5.175 C38.286,5.623 37.535,5.847 36.561,5.847 L35.847,5.847 L35.847,8.64 L34.182,8.64 L34.182,0.787 L36.69,0.787 C37.642,0.787 38.367,0.992 38.863,1.402 C39.359,1.813 39.607,2.423 39.607,3.236 Z M30.071,8.64 L28.433,8.64 L28.433,0.787 L32.933,0.787 L32.933,2.151 L30.071,2.151 L30.071,4.177 L32.735,4.177 L32.735,5.535 L30.071,5.535 L30.071,8.64 Z M25.546,8.64 L23.65,8.64 L22.586,4.514 C22.546,4.368 22.479,4.064 22.385,3.604 C22.289,3.144 22.235,2.835 22.221,2.678 C22.199,2.872 22.145,3.182 22.06,3.61 C21.974,4.037 21.907,4.343 21.861,4.525 L20.803,8.64 L18.912,8.64 L16.909,0.787 L18.547,0.787 L19.551,5.073 C19.727,5.864 19.854,6.55 19.933,7.13 C19.954,6.926 20.003,6.61 20.08,6.183 C20.157,5.754 20.23,5.422 20.298,5.186 L21.442,0.787 L23.015,0.787 L24.16,5.186 C24.21,5.383 24.273,5.684 24.348,6.088 C24.423,6.493 24.48,6.84 24.52,7.13 C24.555,6.851 24.613,6.502 24.691,6.085 C24.77,5.669 24.842,5.331 24.906,5.073 L25.905,0.787 L27.543,0.787 L25.546,8.64 Z M21.473,35.952 C18.422,35.952 16.463,36.677 15.929,36.901 C15.897,36.915 15.872,36.87 15.896,36.846 C19.249,33.36 23.174,33.553 24.118,33.553 C25.074,33.553 35.28,33.553 35.28,33.553 C35.842,33.553 36.298,34.09 36.298,34.753 C36.298,35.415 35.842,35.952 35.28,35.952 C35.28,35.952 24.079,35.952 21.473,35.952 Z M23.987,39.037 C20.7,39.037 19.741,37.169 14.765,38.402 C14.731,38.411 14.708,38.364 14.738,38.345 C17.511,36.441 20.529,36.614 21.748,36.614 C22.704,36.614 35.28,36.614 35.28,36.614 C35.842,36.614 36.298,37.151 36.298,37.813 C36.298,38.476 35.842,39.013 35.28,39.013 C35.28,39.013 26.591,39.037 23.987,39.037 Z M24.221,42.074 C20.846,42.074 20.576,39.584 15.574,39.023 C15.539,39.02 15.535,38.968 15.57,38.959 C19.678,37.932 21.207,39.675 23.607,39.675 C24.562,39.675 35.28,39.675 35.28,39.675 C35.842,39.675 36.298,40.212 36.298,40.874 C36.298,41.537 35.842,42.074 35.28,42.074 C35.28,42.074 26.826,42.074 24.221,42.074 Z M23.489,32.892 C20.772,32.892 18.52,34.076 17.993,34.375 C17.964,34.392 17.934,34.356 17.953,34.329 C18.394,33.681 20.773,30.492 24.864,30.492 C25.819,30.492 35.28,30.492 35.28,30.492 C35.842,30.492 36.298,31.029 36.298,31.692 C36.298,32.354 35.842,32.892 35.28,32.892 C35.28,32.892 26.095,32.892 23.489,32.892 Z M38.429,26.267 C38.324,26.16 38.167,26.083 37.986,26.062 C37.852,26.043 37.731,26.064 37.623,26.104 C37.671,26.006 37.71,25.9 37.726,25.775 C37.752,25.581 37.715,25.4 37.642,25.262 C37.306,24.526 38.266,23.054 38.146,22.987 C38.03,22.924 37.484,24.547 36.954,25.204 C36.852,25.323 36.779,25.496 36.755,25.692 C36.737,25.886 36.768,26.07 36.842,26.205 C36.915,26.338 37.028,26.431 37.159,26.439 C37.196,26.444 37.232,26.442 37.266,26.434 C37.259,26.452 37.251,26.474 37.248,26.492 C37.227,26.636 37.283,26.771 37.39,26.88 C37.495,26.992 37.65,27.066 37.831,27.087 C38.017,27.111 38.19,27.074 38.324,26.995 C39.043,26.601 40.534,26.213 40.502,26.075 C40.473,25.937 39.02,26.79 38.429,26.267 Z M39.529,25.193 C39.429,25.084 39.287,25.01 39.122,24.994 C39.028,24.988 38.941,25.004 38.854,25.036 C38.868,24.991 38.886,24.951 38.891,24.906 C38.91,24.73 38.868,24.568 38.789,24.443 C38.424,23.766 39.377,22.488 39.253,22.424 C39.13,22.36 38.608,23.792 38.077,24.358 C37.972,24.459 37.899,24.608 37.881,24.784 C37.865,24.959 37.904,25.124 37.98,25.249 C38.064,25.371 38.18,25.458 38.319,25.477 C38.379,25.482 38.442,25.472 38.497,25.456 C38.495,25.464 38.487,25.475 38.489,25.482 C38.476,25.631 38.532,25.775 38.629,25.881 C38.728,25.987 38.873,26.062 39.033,26.075 C39.198,26.091 39.35,26.046 39.466,25.958 C40.085,25.512 41.502,25.246 41.466,25.103 C41.431,24.964 40.075,25.714 39.529,25.193 Z M40.492,24.199 C40.389,24.122 40.25,24.08 40.103,24.096 C40.033,24.098 39.967,24.12 39.907,24.146 C39.917,24.117 39.935,24.093 39.946,24.063 C39.986,23.912 39.972,23.758 39.923,23.633 C39.692,22.969 40.715,21.986 40.616,21.906 C40.515,21.832 39.851,23.022 39.306,23.442 C39.201,23.519 39.117,23.641 39.075,23.796 C39.03,23.944 39.043,24.101 39.096,24.223 C39.151,24.348 39.24,24.441 39.361,24.478 C39.452,24.507 39.545,24.489 39.631,24.452 C39.613,24.502 39.602,24.561 39.608,24.622 C39.621,24.757 39.686,24.872 39.794,24.951 C39.896,25.031 40.035,25.071 40.179,25.06 C40.329,25.044 40.458,24.98 40.547,24.885 C41.038,24.388 42.261,23.923 42.211,23.803 C42.159,23.684 41.059,24.568 40.492,24.199 Z M42.387,22.065 C42.285,21.914 41.429,22.852 40.796,22.942 C40.678,22.958 40.547,23.017 40.437,23.12 C40.319,23.227 40.243,23.357 40.217,23.481 C40.187,23.604 40.206,23.724 40.271,23.806 C40.343,23.891 40.45,23.928 40.571,23.915 C40.691,23.901 40.817,23.843 40.935,23.734 C41.046,23.63 41.122,23.501 41.151,23.378 C41.342,22.735 42.463,22.164 42.387,22.065 Z M24.693,23.335 C24.667,23.429 24.483,24.151 24.483,24.151 C24.431,24.181 24.21,24.133 24.152,24.127 C23.73,24.087 23.352,23.721 23.514,23.282 C23.647,22.924 23.918,22.886 24.263,22.871 C24.405,22.864 24.662,22.898 24.791,22.987 C24.791,22.987 24.74,23.152 24.693,23.335 Z M24.207,25.517 C24.195,25.6 24.181,25.682 24.168,25.764 C23.906,25.6 23.751,25.222 23.877,24.924 C23.974,24.699 24.215,24.639 24.391,24.629 C24.328,24.924 24.265,25.219 24.207,25.517 Z M23.829,28.214 C23.797,28.399 23.546,28.424 23.376,28.475 C22.88,28.623 22.41,28.56 22.258,27.967 C22.092,27.332 22.573,27.066 23.087,26.941 C23.368,26.875 23.628,26.931 23.819,27.167 C23.867,27.226 23.924,27.279 23.937,27.335 C23.937,27.335 23.861,28.04 23.829,28.214 Z M22.268,25.092 C22.651,24.999 23.048,24.855 23.342,25.233 C23.651,25.628 23.549,26.264 23.05,26.431 C22.722,26.542 22.326,26.638 22.045,26.37 C21.677,26.019 21.704,25.222 22.268,25.092 Z M21.893,23.035 C22.297,22.937 22.714,22.788 23.024,23.184 C23.347,23.599 23.239,24.268 22.717,24.443 C22.37,24.558 21.953,24.659 21.659,24.377 C21.273,24.01 21.302,23.173 21.893,23.035 Z M21.517,27.48 C21.412,27.85 21.108,27.906 20.788,27.983 C20.578,27.725 20.014,27.074 20.005,26.997 C20.001,26.971 20.005,26.942 20.016,26.907 C20.043,26.83 20.132,26.755 20.197,26.713 C20.389,26.588 20.798,26.495 21.019,26.54 C21.415,26.625 21.622,27.109 21.517,27.48 Z M19.513,25.581 C19.224,24.558 20.94,24.111 21.205,25.116 C21.478,26.147 19.746,26.585 19.513,25.581 Z M19.26,23.538 C18.967,22.52 20.691,22.073 20.956,23.072 C21.229,24.106 19.494,24.544 19.26,23.538 Z M19.019,21.529 C18.738,20.58 20.358,20.16 20.604,21.096 C20.859,22.058 19.239,22.472 19.019,21.529 Z M18.854,25.395 C18.774,25.442 18.744,25.467 18.718,25.467 L17.947,24.629 C17.956,24.606 18.195,24.433 18.274,24.388 C18.914,24.032 19.442,25.049 18.854,25.395 Z M17.392,23.508 C17.011,22.668 18.397,21.757 18.817,22.663 C19.203,23.498 17.817,24.425 17.392,23.508 Z M18.557,20.849 C18.995,21.627 17.676,22.496 17.298,21.659 C16.962,20.936 18.135,20.094 18.557,20.849 Z M17.449,19.034 C17.644,18.862 17.869,18.768 18.1,18.879 C18.471,19.058 18.481,19.613 18.158,19.833 C18.011,19.935 17.762,20.059 17.581,20.014 C17.184,19.913 17.109,19.335 17.449,19.034 Z M17.499,17.365 C17.659,17.257 17.872,17.16 18.056,17.235 C18.39,17.371 18.379,17.856 18.108,18.05 C17.985,18.138 17.762,18.247 17.613,18.207 C17.274,18.122 17.191,17.574 17.499,17.365 Z M18.386,14.987 C18.585,14.879 18.872,14.835 19.051,15.035 C19.26,15.27 19.192,15.627 18.917,15.768 C18.704,15.875 18.418,15.914 18.25,15.717 C18.066,15.505 18.104,15.14 18.386,14.987 Z M18.229,16.793 C18.069,16.198 19.072,15.917 19.234,16.522 C19.415,17.11 18.389,17.402 18.229,16.793 Z M19.846,17.833 C20.079,18.476 18.99,18.84 18.778,18.205 C18.56,17.562 19.654,17.195 19.846,17.833 Z M19.982,14.7 C20.19,14.616 20.456,14.527 20.688,14.7 C20.977,14.916 20.914,15.401 20.583,15.553 C20.365,15.651 20.087,15.717 19.893,15.545 C19.646,15.324 19.633,14.84 19.982,14.7 Z M19.791,20.081 C19.497,20.149 19.19,20.267 18.946,20.014 C18.633,19.692 18.722,19.129 19.145,18.975 C19.418,18.872 19.764,18.813 19.988,19.041 C20.274,19.334 20.242,19.972 19.791,20.081 Z M19.796,16.796 C19.607,16.159 20.646,15.832 20.846,16.451 C21.05,17.086 19.974,17.423 19.796,16.796 Z M21.536,17.965 C21.78,18.693 20.549,19.082 20.323,18.364 C20.095,17.631 21.334,17.243 21.536,17.965 Z M21.601,16.015 C21.818,15.957 22.048,15.978 22.213,16.156 C22.465,16.427 22.378,16.889 22.006,16.958 C21.83,16.99 21.559,16.977 21.423,16.857 C21.176,16.64 21.188,16.126 21.601,16.015 Z M22.651,17.543 C23.048,17.543 23.247,18.125 23.016,18.415 C22.877,18.59 22.578,18.601 22.373,18.569 C21.995,18.51 21.754,18.024 22.008,17.694 C22.163,17.495 22.428,17.543 22.651,17.543 Z M20.748,19.94 C20.505,19.103 21.927,18.728 22.145,19.56 C22.365,20.405 20.935,20.777 20.748,19.94 Z M21.62,21.011 C22.008,20.971 22.412,20.88 22.651,21.287 C22.901,21.717 22.714,22.315 22.21,22.416 C21.88,22.485 21.478,22.517 21.242,22.225 C20.932,21.837 21.055,21.063 21.62,21.011 Z M23.594,19.146 C24.074,19.344 24.237,19.911 23.898,20.227 C23.717,20.392 23.386,20.359 23.163,20.314 C22.717,20.227 22.426,19.556 22.817,19.238 C23.017,19.075 23.376,19.056 23.594,19.146 Z M24.349,21.165 C24.651,21.534 24.538,22.187 24.011,22.22 C23.735,22.235 23.376,22.204 23.189,21.978 C22.89,21.616 23.003,20.939 23.53,20.92 C23.806,20.91 24.163,20.939 24.349,21.165 Z M26.389,14.5 C26.36,14.458 26.307,14.434 26.255,14.45 C26.192,14.471 26.15,14.541 26.173,14.602 C27.378,17.838 25.84,19.432 25.197,21.699 C24.425,19.857 26.982,18.125 25.664,14.769 C25.646,14.727 25.612,14.692 25.564,14.684 C25.499,14.676 25.436,14.703 25.425,14.79 C25.391,15.027 25.236,16.887 23.727,17.976 C23.573,17.62 23.344,17.248 23.024,16.956 C22.885,16.329 22.475,15.468 21.615,15.213 C21.486,14.889 21.226,14.423 20.727,14.174 C20.258,13.94 19.715,13.961 19.111,14.235 C18.381,14.32 17.88,14.604 17.615,15.08 C17.365,15.529 17.41,16.018 17.494,16.35 C16.88,17.006 16.851,17.979 16.867,18.359 C16.502,19.235 16.707,20.259 16.822,20.684 C16.387,21.874 16.812,23.03 16.983,23.413 C16.983,23.516 16.988,23.615 16.993,23.713 C15.565,22.15 12.316,20.216 11.075,19.478 C11.017,19.443 10.944,19.451 10.894,19.499 C10.831,19.557 10.828,19.653 10.886,19.716 C13.655,22.416 16.124,25.748 18.497,32.662 C19.681,31.432 21.819,29.813 24.864,29.813 L28.425,29.813 C26.163,21.385 29.456,18.369 26.389,14.5 Z M43.224,18.858 C42.573,18.688 38.416,17.952 33.758,26.521 C34.437,23.33 36.503,19.469 37.07,18.348 L37.07,18.34 C37.104,18.276 37.085,18.194 37.028,18.149 C36.97,18.106 36.884,18.12 36.839,18.183 C33.761,23.317 32.679,26.274 32.041,29.813 L33.971,29.813 C34.298,26.402 38.608,18.364 43.201,18.962 L43.205,18.962 C43.232,18.967 43.256,18.946 43.258,18.922 C43.268,18.893 43.25,18.864 43.224,18.858 Z M33.962,47.091 L32.921,42.735 L31.146,42.735 C31.427,43.841 31.829,44.965 32.348,45.95 C32.383,46.009 32.446,46.044 32.509,46.033 C32.593,46.022 32.658,45.935 32.642,45.844 C32.522,44.922 32.377,44.032 32.241,43.145 C32.616,44.539 33.122,45.902 33.805,47.157 C33.824,47.196 33.863,47.215 33.899,47.202 C33.95,47.191 33.975,47.139 33.962,47.091 Z M35.755,45.113 C35.574,44.386 35.385,43.492 35.222,42.735 L34.548,42.735 C34.81,43.543 35.164,44.444 35.479,45.215 C35.511,45.289 35.582,45.326 35.65,45.308 C35.731,45.283 35.776,45.196 35.755,45.113 Z M35.981,47.675 L35.975,47.664 C35.758,47.056 35.456,46.511 35.217,45.927 C34.962,45.342 34.716,44.768 34.511,44.168 C34.34,43.719 34.16,43.203 34.02,42.735 L33.369,42.735 C33.553,43.28 33.792,43.867 34.015,44.394 C34.506,45.581 35.072,46.745 35.794,47.786 C35.821,47.824 35.87,47.84 35.918,47.821 C35.975,47.8 36.002,47.733 35.981,47.675 Z M36.954,26.774 C36.905,26.7 36.784,26.684 36.726,26.745 C35.542,27.994 34.826,29.322 34.579,29.813 L35.283,29.813 C35.634,28.987 36.426,27.528 36.936,27.003 L36.941,26.997 C36.993,26.938 37.004,26.84 36.954,26.774 Z M31.6,20.729 C32.251,19.661 33.217,18.842 34.036,17.854 C34.065,17.816 34.062,17.758 34.028,17.726 C33.996,17.692 33.944,17.692 33.91,17.724 C33.723,17.923 33.53,18.109 33.33,18.295 C33.243,18.252 33.023,18.337 32.8,18.513 C32.624,18.651 32.498,18.805 32.453,18.916 C32.341,18.89 32.128,19.023 31.936,19.268 C31.779,19.472 31.687,19.688 31.69,19.82 C31.569,19.831 31.393,19.985 31.243,20.229 C31.146,20.392 31.083,20.548 31.062,20.678 C30.966,20.745 30.855,20.87 30.753,21.032 C30.619,21.255 30.551,21.481 30.572,21.611 C30.54,21.667 30.509,21.72 30.483,21.776 C30.488,21.73 30.493,21.688 30.498,21.643 C30.69,20.131 30.968,18.632 31.39,17.187 C31.816,15.747 32.325,14.294 33.198,13.127 L33.204,13.122 C33.249,13.058 33.243,12.97 33.188,12.912 C33.133,12.851 33.041,12.848 32.984,12.909 C32.682,13.23 32.427,13.589 32.199,13.958 C32.099,13.905 31.889,14.102 31.729,14.41 C31.582,14.689 31.53,14.947 31.585,15.046 C31.585,15.046 31.582,15.053 31.577,15.051 C31.472,15.005 31.278,15.239 31.16,15.553 C31.044,15.848 31.023,16.119 31.102,16.209 C31.097,16.214 31.097,16.217 31.094,16.222 C30.976,16.18 30.785,16.448 30.666,16.828 C30.569,17.15 30.558,17.429 30.629,17.541 C30.635,17.545 30.629,17.559 30.624,17.556 C30.503,17.514 30.32,17.79 30.212,18.167 C30.104,18.531 30.113,18.853 30.215,18.916 C30.096,18.903 29.931,19.18 29.845,19.554 C29.766,19.878 29.774,20.158 29.85,20.269 C29.735,20.304 29.606,20.575 29.54,20.925 C29.477,21.268 29.509,21.553 29.593,21.643 C29.485,21.699 29.375,21.978 29.336,22.323 C29.296,22.666 29.346,22.948 29.435,23.038 C29.346,23.139 29.26,23.378 29.223,23.665 C29.186,23.938 29.21,24.175 29.262,24.308 C29.165,24.391 29.092,24.667 29.089,24.999 C29.081,25.265 29.12,25.49 29.189,25.621 C29.136,25.753 29.099,25.948 29.099,26.163 C29.094,26.442 29.139,26.681 29.21,26.806 C29.189,27.786 29.202,28.831 29.254,29.813 L31.372,29.813 C31.388,29.048 31.438,28.214 31.514,27.457 C31.663,26.107 31.887,24.736 32.561,23.583 L32.566,23.575 C32.587,23.532 32.585,23.484 32.553,23.447 C32.514,23.413 32.459,23.413 32.422,23.455 C31.506,24.518 31.104,25.961 30.868,27.345 C30.826,27.616 30.792,27.89 30.761,28.161 C30.818,27.05 30.921,25.945 31.175,24.893 C31.467,23.612 32.049,22.392 33.159,21.709 C33.194,21.688 33.212,21.643 33.198,21.598 C33.186,21.547 33.133,21.518 33.089,21.531 C33.018,21.553 32.952,21.59 32.884,21.619 C32.81,21.529 32.54,21.595 32.262,21.773 C31.997,21.946 31.821,22.158 31.839,22.275 C31.839,22.281 31.826,22.289 31.826,22.278 C31.824,22.265 31.821,22.251 31.813,22.244 C31.713,22.161 31.446,22.347 31.22,22.663 C30.992,22.979 30.902,23.309 30.999,23.394 C31.005,23.396 31.002,23.405 30.997,23.405 C30.879,23.357 30.682,23.625 30.558,24 C30.469,24.263 30.449,24.505 30.48,24.643 C30.48,24.648 30.474,24.653 30.474,24.653 C30.383,24.957 30.306,25.262 30.236,25.573 C30.262,25.134 30.301,24.693 30.364,24.258 C30.551,23.003 30.929,21.776 31.6,20.729 Z M38.264,17.232 C38.13,17.168 37.954,17.152 37.778,17.195 C37.647,17.227 37.542,17.291 37.453,17.365 C37.466,17.253 37.466,17.142 37.434,17.02 C37.392,16.828 37.298,16.671 37.182,16.57 C36.611,15.999 37.004,14.28 36.87,14.259 C36.739,14.24 36.786,15.954 36.516,16.756 C36.461,16.905 36.451,17.094 36.497,17.285 C36.545,17.474 36.639,17.633 36.758,17.737 C36.87,17.835 37.007,17.88 37.135,17.84 C37.169,17.835 37.203,17.819 37.232,17.798 C37.232,17.819 37.232,17.84 37.235,17.862 C37.264,18.002 37.364,18.112 37.5,18.175 C37.639,18.242 37.81,18.258 37.988,18.212 C38.169,18.17 38.319,18.072 38.416,17.952 C38.954,17.328 40.219,16.437 40.143,16.318 C40.067,16.201 38.999,17.514 38.264,17.232 Z M40.71,15.066 C40.628,14.95 39.616,16.132 38.925,15.837 C38.794,15.77 38.634,15.752 38.474,15.794 C38.385,15.821 38.308,15.869 38.238,15.927 C38.235,15.879 38.238,15.837 38.227,15.794 C38.185,15.622 38.091,15.486 37.972,15.396 C37.395,14.891 37.849,13.355 37.713,13.339 C37.574,13.323 37.576,14.851 37.277,15.569 C37.214,15.702 37.196,15.866 37.241,16.036 C37.283,16.207 37.377,16.347 37.495,16.437 C37.613,16.522 37.752,16.562 37.889,16.531 C37.949,16.515 38.001,16.483 38.049,16.448 C38.049,16.456 38.046,16.467 38.049,16.475 C38.091,16.621 38.19,16.735 38.319,16.802 C38.45,16.863 38.61,16.884 38.765,16.839 C38.925,16.796 39.051,16.698 39.13,16.579 C39.557,15.938 40.791,15.189 40.71,15.066 Z M40.959,13.587 C40.87,13.494 40.143,14.71 39.484,14.564 C39.361,14.53 39.217,14.538 39.085,14.604 C39.02,14.631 38.965,14.676 38.917,14.721 C38.917,14.692 38.925,14.663 38.925,14.631 C38.91,14.477 38.847,14.333 38.755,14.237 C38.311,13.695 38.928,12.412 38.81,12.372 C38.689,12.337 38.479,13.688 38.112,14.275 C38.038,14.386 38.001,14.53 38.017,14.687 C38.028,14.843 38.093,14.984 38.185,15.083 C38.28,15.181 38.395,15.234 38.521,15.226 C38.615,15.223 38.697,15.173 38.765,15.106 C38.765,15.16 38.776,15.218 38.802,15.274 C38.86,15.396 38.962,15.481 39.088,15.516 C39.211,15.556 39.358,15.545 39.489,15.481 C39.623,15.415 39.721,15.308 39.773,15.189 C40.061,14.548 41.046,13.68 40.959,13.587 Z M40.523,11.896 C40.374,11.79 39.899,12.973 39.335,13.281 C39.23,13.337 39.13,13.438 39.059,13.576 C38.988,13.717 38.962,13.865 38.98,13.99 C38.993,14.115 39.051,14.222 39.143,14.275 C39.238,14.331 39.35,14.328 39.458,14.272 C39.568,14.216 39.665,14.115 39.739,13.975 C39.807,13.837 39.833,13.688 39.818,13.562 C39.776,12.893 40.628,11.963 40.523,11.896 Z M30.165,42.735 L24.221,42.735 C23.816,42.735 23.451,42.703 23.115,42.643 C23.118,42.643 23.118,42.645 23.118,42.645 C24.094,44.096 25.625,45.196 27.176,45.935 C27.414,47.258 27.714,48.482 27.822,48.578 C27.931,48.674 29.454,48.235 29.501,48.095 C29.546,47.954 28.879,45.687 28.879,45.687 C29.68,44.313 29.926,43.503 30.165,42.735 Z M45.119,52.904 C43.618,53.497 41.66,53.547 40.061,53.122 C36.401,51.982 32.335,49.822 28.433,51.615 C24.53,49.822 20.465,51.982 16.804,53.122 C15.206,53.547 13.248,53.497 11.747,52.904 C11.705,52.889 11.673,52.941 11.71,52.971 C13.87,54.642 16.896,55.41 19.62,54.427 C22.237,53.611 24.449,50.84 27.549,52.022 C25.095,52.981 22.801,54.751 21.03,56.422 L22.318,57.479 C23.926,55.606 25.738,53.733 27.787,52.594 C28.068,52.429 28.236,52.362 28.433,52.352 C28.63,52.362 28.798,52.429 29.076,52.594 C31.128,53.733 32.939,55.606 34.548,57.479 L35.836,56.422 C34.065,54.751 31.771,52.981 29.317,52.022 C32.417,50.84 34.629,53.611 37.245,54.427 C39.97,55.41 42.995,54.642 45.155,52.971 C45.19,52.941 45.161,52.889 45.119,52.904 Z M20.99,50.38 C17.163,49.452 16.117,45.865 12.917,44.309 C12.883,44.29 12.846,44.33 12.868,44.361 C13.875,46.02 14.421,48.56 17.326,50.125 C17.35,50.138 17.337,50.176 17.31,50.167 C13.143,49.365 11.392,50.48 7.026,48.507 C6.989,48.49 6.949,48.53 6.973,48.565 C8.408,50.648 11.815,52.072 16.481,51.68 C18.161,51.536 19.379,50.829 20.99,50.452 C21.03,50.441 21.03,50.388 20.99,50.38 Z M12.975,48.18 C11.521,46.274 11.936,42.207 8.653,38.484 C8.626,38.455 8.579,38.479 8.587,38.516 C9.214,41.258 9.028,44.372 10.744,46.654 C10.76,46.679 10.737,46.702 10.713,46.687 C7.327,44.021 3.847,43.219 2.299,41.062 C2.275,41.032 2.228,41.048 2.233,41.085 C2.616,43.878 7.981,48.23 12.946,48.238 C12.975,48.238 12.993,48.204 12.975,48.18 Z M7.891,43.115 C6.333,40.225 8.196,35.813 6.427,31.527 C6.409,31.482 6.341,31.493 6.341,31.541 C6.288,33.882 4.834,37.376 5.713,40.015 C5.724,40.038 5.692,40.052 5.679,40.03 C3.441,36.76 1.664,36.076 0.184,33.082 C0.163,33.037 0.095,33.05 0.092,33.098 C-0.003,35.133 0.898,36.791 1.913,38.332 C3.538,40.418 5.629,42.068 7.842,43.168 C7.876,43.185 7.907,43.149 7.891,43.115 Z M6.834,25.509 C6.831,25.461 6.768,25.445 6.745,25.488 C5.556,27.712 3.438,29.481 3.37,32.418 C3.367,32.447 3.336,32.449 3.33,32.423 C2.945,30.156 1.021,27.616 0.937,24.334 C0.937,24.284 0.866,24.271 0.847,24.319 C-0.735,28.586 1.54,32.633 3.963,35.976 C3.989,36.01 4.042,35.989 4.042,35.943 C3.942,32.401 7.012,29.758 6.834,25.509 Z M8.345,19.987 C7.222,21.547 4.695,22.65 3.771,24.9 C3.758,24.933 3.719,24.924 3.724,24.887 C4.092,22.366 3.118,19.437 4.031,16.087 C4.044,16.039 3.984,16.007 3.955,16.044 C2.574,17.742 2.107,19.732 2.032,21.882 C1.937,24.523 2.866,26.45 3.325,28.241 C3.336,28.283 3.391,28.28 3.401,28.238 C4.063,25.889 7.383,24.476 8.422,20.025 C8.435,19.977 8.374,19.948 8.345,19.987 Z M11.392,14.742 C9.545,16.19 6.724,17.585 6.118,18.593 C6.107,18.614 6.075,18.598 6.081,18.577 L6.766,15.29 C7.072,13.895 7.338,12.558 8.11,11.309 C8.133,11.272 8.088,11.229 8.054,11.256 C4.537,14.041 5.052,18.069 4.897,21.367 C4.894,21.401 4.936,21.417 4.96,21.393 C7.031,19.148 10.406,17.84 11.45,14.788 C11.463,14.751 11.424,14.718 11.392,14.742 Z M14.009,9.694 C10.902,9.792 8.618,12.409 7.639,15.741 C7.635,15.76 7.66,15.776 7.677,15.765 C11.957,12.627 11.718,11.283 14.035,9.79 C14.077,9.763 14.059,9.694 14.009,9.694 Z M49.838,48.507 C45.473,50.48 43.72,49.365 39.553,50.167 C39.526,50.176 39.513,50.138 39.537,50.125 C42.442,48.56 42.988,46.02 43.995,44.361 C44.016,44.33 43.98,44.29 43.946,44.309 C40.749,45.865 39.702,49.452 35.873,50.38 C35.834,50.388 35.834,50.441 35.873,50.452 C37.484,50.829 38.702,51.536 40.382,51.68 C45.048,52.072 48.457,50.648 49.89,48.565 C49.913,48.53 49.874,48.49 49.838,48.507 Z M54.564,41.062 C53.015,43.219 49.535,44.021 46.15,46.687 C46.129,46.702 46.103,46.679 46.121,46.654 C47.835,44.372 47.649,41.258 48.276,38.516 C48.284,38.479 48.237,38.455 48.21,38.484 C44.93,42.207 45.342,46.274 43.89,48.18 C43.872,48.204 43.888,48.238 43.919,48.238 C48.885,48.23 54.246,43.878 54.63,41.085 C54.635,41.048 54.588,41.032 54.564,41.062 Z M56.771,33.098 C56.768,33.05 56.7,33.037 56.679,33.082 C55.199,36.076 53.422,36.76 51.186,40.03 C51.171,40.052 51.142,40.038 51.15,40.015 C52.029,37.376 50.577,33.882 50.522,31.541 C50.522,31.493 50.454,31.482 50.436,31.527 C48.667,35.813 50.53,40.225 48.974,43.115 C48.956,43.149 48.987,43.185 49.021,43.168 C51.234,42.068 53.326,40.418 54.95,38.332 C55.966,36.791 56.865,35.133 56.771,33.098 Z M56.015,24.319 C55.997,24.271 55.926,24.284 55.926,24.334 C55.842,27.616 53.918,30.156 53.533,32.423 C53.527,32.449 53.496,32.447 53.496,32.418 C53.428,29.481 51.307,27.712 50.118,25.488 C50.095,25.445 50.032,25.461 50.032,25.509 C49.853,29.758 52.921,32.401 52.822,35.943 C52.822,35.989 52.876,36.01 52.903,35.976 C55.322,32.633 57.598,28.586 56.015,24.319 Z M54.832,21.882 C54.756,19.732 54.288,17.742 52.908,16.044 C52.879,16.007 52.822,16.039 52.832,16.087 C53.745,19.437 52.771,22.366 53.141,24.887 C53.147,24.924 53.105,24.933 53.092,24.9 C52.168,22.65 49.64,21.547 48.517,19.987 C48.491,19.948 48.431,19.977 48.441,20.025 C49.48,24.476 52.801,25.889 53.462,28.238 C53.472,28.28 53.527,28.283 53.538,28.241 C53.997,26.45 54.926,24.523 54.832,21.882 Z M48.809,11.256 C48.775,11.229 48.73,11.272 48.754,11.309 C49.525,12.558 49.79,13.895 50.097,15.29 L50.782,18.577 C50.787,18.598 50.756,18.614 50.745,18.593 C50.139,17.585 47.321,16.19 45.47,14.742 C45.442,14.718 45.4,14.751 45.413,14.788 C46.457,17.84 49.832,19.148 51.903,21.393 C51.926,21.417 51.968,21.401 51.966,21.367 C51.811,18.069 52.326,14.041 48.809,11.256 Z M42.854,9.694 C42.804,9.694 42.788,9.763 42.827,9.79 C45.145,11.283 44.906,12.627 49.187,15.765 C49.205,15.776 49.229,15.76 49.223,15.741 C48.244,12.409 45.961,9.792 42.854,9.694 Z" id="Fill-28"></path>
        </g>
    </g>
</svg>