<svg width="132" height="58" xmlns="http://www.w3.org/2000/svg"><path d="M35.934 4.664h.548c.511 0 .895-.101 1.149-.304.254-.202.381-.497.381-.883 0-.39-.107-.678-.319-.865-.214-.186-.547-.28-1.002-.28h-.757v2.332zm3.76-1.246c0 .845-.265 1.491-.793 1.938-.528.449-1.279.672-2.253.672h-.714v2.793h-1.665V.969h2.508c.952 0 1.676.204 2.172.615.496.41.745 1.021.745 1.834zm-9.537 5.403h-1.638V.969h4.501v1.363h-2.863v2.026h2.664v1.359h-2.664v3.104zm-4.525 0h-1.896l-1.063-4.125c-.04-.147-.107-.45-.202-.91a10.34 10.34 0 0 1-.164-.927c-.021.194-.075.505-.16.932-.087.428-.153.734-.199.916l-1.059 4.114h-1.89L16.995.969h1.639l1.004 4.285c.176.792.302 1.478.381 2.058.022-.204.071-.52.148-.948.077-.429.15-.761.218-.996L21.529.969h1.573l1.144 4.399a23.19 23.19 0 0 1 .36 1.944c.036-.28.093-.628.172-1.045.079-.417.15-.754.215-1.013l.999-4.285h1.638l-1.998 7.852zm-4.073 27.313c-3.051 0-5.009.724-5.544.949-.031.014-.057-.031-.032-.056 3.352-3.485 7.277-3.293 8.222-3.293h11.161c.563 0 1.019.537 1.019 1.201 0 .662-.456 1.199-1.019 1.199H21.559zm2.515 3.085c-3.288 0-4.246-1.868-9.222-.635-.034.009-.057-.038-.028-.058 2.774-1.903 5.791-1.73 7.011-1.73h13.531c.563 0 1.019.537 1.019 1.199s-.456 1.199-1.019 1.199c0 0-8.689.025-11.292.025zm.233 3.037c-3.374 0-3.644-2.49-8.646-3.051-.035-.004-.039-.056-.005-.064 4.109-1.028 5.638.715 8.037.715h11.673c.563 0 1.019.537 1.019 1.2 0 .663-.456 1.2-1.019 1.2H24.307zm-.732-9.183c-2.716 0-4.968 1.185-5.495 1.484-.03.016-.059-.019-.04-.046.441-.649 2.82-3.837 6.91-3.837h10.416c.563 0 1.019.537 1.019 1.2 0 .662-.456 1.199-1.019 1.199H23.575zm14.941-6.625a.753.753 0 0 0-.444-.205.74.74 0 0 0-.362.043c.047-.099.087-.205.102-.33a.85.85 0 0 0-.083-.512c-.336-.736.624-2.209.503-2.275-.115-.064-.661 1.56-1.191 2.216a.934.934 0 0 0-.2.489.923.923 0 0 0 .087.513c.074.132.186.226.318.234a.295.295 0 0 0 .107-.006.266.266 0 0 0-.018.059.453.453 0 0 0 .142.388.718.718 0 0 0 .441.207.77.77 0 0 0 .493-.093c.719-.393 2.21-.781 2.178-.919-.029-.138-1.483.715-2.073.191zm1.099-1.074a.63.63 0 0 0-.406-.199.657.657 0 0 0-.268.043c.013-.046.031-.085.037-.131a.726.726 0 0 0-.103-.462c-.365-.677.588-1.956.465-2.019-.123-.064-.646 1.368-1.176 1.934a.69.69 0 0 0-.197.425.765.765 0 0 0 .1.465c.084.123.199.21.338.229a.53.53 0 0 0 .179-.021c-.003.007-.011.018-.008.026a.524.524 0 0 0 .139.398c.1.107.244.181.404.195a.62.62 0 0 0 .433-.117c.62-.447 2.037-.712 2-.856-.034-.138-1.391.611-1.937.09zm.964-.993a.552.552 0 0 0-.389-.104.541.541 0 0 0-.197.051c.011-.03.029-.054.04-.083a.7.7 0 0 0-.024-.43c-.231-.665.792-1.648.693-1.728-.1-.074-.764 1.117-1.31 1.536a.648.648 0 0 0-.231.354.648.648 0 0 0 .021.428.438.438 0 0 0 .265.255c.092.029.184.01.271-.027a.393.393 0 0 0-.024.17c.013.136.079.25.187.33a.567.567 0 0 0 .752-.067c.491-.497 1.714-.962 1.665-1.081-.053-.12-1.152.765-1.719.396zm1.894-2.134c-.102-.151-.958.787-1.59.877a.66.66 0 0 0-.359.178.684.684 0 0 0-.221.361.38.38 0 0 0 .055.324.325.325 0 0 0 .299.109.64.64 0 0 0 .365-.181.73.73 0 0 0 .215-.356c.192-.643 1.312-1.214 1.236-1.312zm-17.694 1.27c-.025.093-.21.816-.21.816-.052.029-.272-.019-.33-.024-.422-.04-.8-.407-.638-.845.133-.358.404-.396.748-.412.143-.006.4.028.529.117 0 0-.051.165-.099.348zm-.485 2.182l-.039.247c-.263-.165-.417-.542-.291-.84.097-.226.337-.285.514-.295a49.8 49.8 0 0 0-.184.888zm-.378 2.696c-.033.185-.283.21-.454.261-.496.149-.966.085-1.118-.508-.165-.634.315-.901.83-1.025.28-.066.54-.011.732.226.048.059.105.112.118.168 0 0-.077.704-.108.878zm-1.561-3.122c.383-.092.779-.236 1.073.141.31.396.207 1.031-.291 1.199-.328.111-.725.207-1.005-.061-.368-.351-.341-1.148.223-1.279zm-.375-2.056c.403-.098.821-.247 1.131.149.322.414.215 1.084-.308 1.259-.346.114-.763.215-1.057-.067-.386-.366-.357-1.203.234-1.341zm-.376 4.445c-.105.37-.41.425-.729.502-.21-.257-.774-.909-.784-.986a.205.205 0 0 1 .012-.09c.026-.077.115-.151.181-.194.192-.125.601-.217.822-.172.396.085.603.568.498.94zm-2.005-1.899c-.289-1.024 1.428-1.47 1.693-.466.273 1.032-1.459 1.47-1.693.466zm-.252-2.044c-.294-1.017 1.431-1.464 1.696-.465.273 1.033-1.462 1.472-1.696.465zm-.241-2.009c-.281-.948 1.338-1.368 1.585-.433.254.962-1.365 1.377-1.585.433zm-.166 3.867c-.079.047-.109.072-.136.072l-.77-.838c.009-.024.247-.196.327-.242.64-.356 1.167.662.579 1.008zm-1.461-1.887c-.381-.84 1.005-1.751 1.425-.845.385.834-1.001 1.761-1.425.845zm1.165-2.66c.438.779-.882 1.648-1.26.81-.336-.722.837-1.565 1.26-.81zm-1.108-1.815c.195-.172.42-.265.651-.154.37.178.381.733.058.954-.147.101-.396.226-.577.181-.397-.101-.473-.68-.132-.981zm.05-1.669c.16-.108.373-.205.557-.13.334.137.322.622.052.816-.124.088-.346.197-.496.157-.338-.085-.421-.634-.113-.843zm.887-2.378c.199-.107.486-.152.664.048a.468.468 0 0 1-.134.734c-.212.106-.498.146-.666-.051a.48.48 0 0 1 .136-.731zm-.157 1.807c-.161-.595.842-.876 1.005-.271.181.587-.845.88-1.005.271zm1.616 1.039c.234.643-.855 1.007-1.068.372-.217-.643.877-1.01 1.068-.372zm.137-3.133c.208-.083.474-.173.706 0 .289.216.226.702-.105.853-.218.099-.496.165-.69-.008-.247-.22-.261-.705.089-.845zm-.192 5.381c-.294.069-.601.186-.845-.066-.312-.322-.223-.885.2-1.039.273-.104.619-.162.842.066.286.293.255.93-.197 1.039zm.005-3.284c-.188-.638.851-.965 1.05-.346.205.635-.871.973-1.05.346zm1.74 1.169c.244.728-.986 1.116-1.212.399-.228-.734 1.011-1.122 1.212-.399zm.066-1.95c.217-.058.446-.037.611.14.252.271.166.734-.207.803-.175.032-.446.019-.583-.101-.246-.218-.234-.731.179-.842zm1.05 1.528c.396 0 .596.582.365.871-.139.175-.439.186-.643.154-.378-.058-.62-.545-.365-.874.155-.199.42-.151.643-.151zm-1.903 2.396c-.244-.837 1.178-1.211 1.396-.38.221.845-1.209 1.217-1.396.38zm.872 1.071c.388-.04.792-.13 1.031.277.249.43.063 1.028-.441 1.129-.331.069-.732.101-.968-.192-.31-.387-.187-1.161.378-1.214zm1.974-1.864c.48.198.642.764.304 1.08-.182.165-.512.133-.735.088-.447-.088-.738-.758-.347-1.076.201-.163.56-.183.778-.092zm.755 2.018c.301.37.189 1.023-.339 1.055-.275.016-.635-.016-.821-.242-.299-.361-.186-1.039.341-1.057.276-.011.633.018.819.244zm2.039-6.664a.12.12 0 0 0-.134-.05c-.063.021-.105.09-.081.151 1.205 3.237-.334 4.831-.977 7.097-.771-1.841 1.785-3.573.468-6.929-.019-.043-.053-.078-.1-.085-.066-.009-.129.018-.139.106-.034.236-.189 2.096-1.698 3.186a3.015 3.015 0 0 0-.703-1.021c-.14-.627-.549-1.488-1.41-1.742-.129-.325-.388-.79-.887-1.04-.47-.234-1.013-.213-1.617.061-.729.085-1.231.37-1.495.845-.25.449-.205.938-.121 1.271-.614.656-.643 1.628-.627 2.009-.365.876-.16 1.899-.045 2.324-.436 1.191-.01 2.346.16 2.729 0 .104.005.202.011.3-1.428-1.562-4.677-3.497-5.918-4.235a.148.148 0 0 0-.181.021.154.154 0 0 0-.008.218c2.768 2.7 5.238 6.032 7.61 12.946 1.184-1.231 3.323-2.849 6.367-2.849h3.561c-2.262-8.428 1.032-11.444-2.036-15.313zm16.836 4.358c-.651-.17-4.808-.906-9.467 7.663.68-3.191 2.746-7.052 3.312-8.173v-.008a.153.153 0 0 0-.042-.192.136.136 0 0 0-.189.035c-3.078 5.133-4.159 8.091-4.797 11.63h1.929c.328-3.412 4.637-11.449 9.23-10.852h.005c.027.006.05-.016.053-.039.01-.03-.008-.059-.034-.064zm-9.262 28.232l-1.042-4.355h-1.774c.281 1.105.682 2.229 1.202 3.215a.16.16 0 0 0 .16.083.165.165 0 0 0 .134-.19c-.121-.922-.265-1.811-.402-2.699.376 1.395.882 2.758 1.565 4.013.018.039.057.057.094.045.05-.011.076-.064.063-.112zm1.793-1.977c-.182-.728-.371-1.621-.533-2.378h-.675c.263.808.617 1.709.932 2.479.031.075.102.112.17.093a.16.16 0 0 0 .106-.194zm.225 2.561l-.005-.01c-.218-.609-.52-1.154-.759-1.738a23.462 23.462 0 0 1-.706-1.759c-.17-.449-.351-.964-.49-1.432h-.651c.184.545.423 1.132.646 1.658.49 1.188 1.057 2.352 1.779 3.393a.103.103 0 0 0 .123.035c.058-.022.084-.088.063-.147zm.974-20.9c-.05-.075-.171-.091-.228-.03a13.313 13.313 0 0 0-2.147 3.069h.703c.352-.826 1.144-2.285 1.654-2.811l.005-.005a.183.183 0 0 0 .013-.223zm-5.354-6.045c.651-1.069 1.617-1.887 2.436-2.875a.097.097 0 0 0-.009-.128.08.08 0 0 0-.117-.003c-.187.199-.381.386-.58.571-.087-.042-.307.043-.531.218-.175.139-.301.293-.346.404-.113-.026-.325.106-.517.351-.158.205-.249.42-.247.553-.121.01-.296.164-.446.409-.097.162-.16.319-.181.449a1.227 1.227 0 0 0-.309.353c-.134.224-.203.449-.182.579-.031.057-.063.11-.089.165l.016-.132c.192-1.513.469-3.011.892-4.456.425-1.441.934-2.894 1.808-4.061l.006-.005a.168.168 0 0 0-.016-.21.138.138 0 0 0-.205-.003 6.631 6.631 0 0 0-.785 1.05c-.099-.053-.309.144-.469.452-.147.278-.2.536-.144.635 0 0-.003.008-.009.005-.105-.045-.299.189-.417.502-.115.295-.136.566-.057.657-.006.005-.006.008-.009.013-.117-.043-.309.226-.427.606-.098.321-.108.6-.037.712.005.005 0 .019-.005.016-.121-.043-.305.234-.412.611-.108.364-.1.686.002.749-.118-.013-.283.263-.37.638-.078.324-.07.603.006.715-.116.034-.244.305-.31.656-.063.343-.032.627.052.718-.107.055-.217.334-.257.68-.039.343.011.624.1.715-.089.1-.176.339-.213.627-.036.273-.013.51.04.643-.097.082-.171.359-.174.691-.007.265.032.491.1.621a1.554 1.554 0 0 0-.089.542c-.005.279.039.518.11.643-.021.981-.008 2.025.045 3.008h2.118c.015-.765.066-1.6.141-2.357.15-1.35.373-2.721 1.048-3.874l.005-.008a.114.114 0 0 0-.013-.127c-.04-.035-.095-.035-.132.008-.916 1.063-1.317 2.506-1.553 3.89-.042.271-.076.544-.108.816.058-1.111.16-2.217.415-3.269.291-1.281.874-2.5 1.984-3.183a.097.097 0 0 0 .039-.112.091.091 0 0 0-.11-.066c-.071.021-.136.058-.205.088-.073-.091-.343-.024-.622.153-.265.173-.441.386-.422.503 0 .005-.013.013-.013.002a.08.08 0 0 0-.013-.034c-.1-.082-.368.104-.594.42-.228.316-.317.646-.22.731.005.002.003.01-.002.01-.119-.048-.315.221-.439.596-.089.262-.11.504-.078.643 0 .004-.006.01-.006.01-.092.303-.168.609-.239.919.027-.438.066-.879.129-1.315.186-1.254.564-2.482 1.236-3.528zm6.663-3.498a.75.75 0 0 0-.485-.037.811.811 0 0 0-.326.17.925.925 0 0 0-.018-.345.838.838 0 0 0-.252-.449c-.572-.571-.179-2.291-.312-2.312-.131-.018-.084 1.696-.354 2.498a.92.92 0 0 0-.019.529.889.889 0 0 0 .26.451c.113.099.249.144.378.104a.217.217 0 0 0 .097-.043c0 .022 0 .043.002.064.03.141.129.25.266.314a.722.722 0 0 0 .488.037.792.792 0 0 0 .428-.26c.538-.625 1.803-1.515 1.727-1.634-.077-.117-1.145 1.195-1.88.913zm2.447-2.165c-.082-.117-1.095 1.065-1.785.77a.638.638 0 0 0-.452-.042.69.69 0 0 0-.236.133c-.003-.048 0-.091-.01-.133a.707.707 0 0 0-.255-.398c-.577-.505-.123-2.041-.26-2.057-.139-.016-.136 1.512-.436 2.229a.684.684 0 0 0-.036.468c.042.17.137.311.255.401a.482.482 0 0 0 .393.093.495.495 0 0 0 .16-.082c0 .008-.003.018 0 .026a.53.53 0 0 0 .27.327.643.643 0 0 0 .447.037.626.626 0 0 0 .365-.26c.427-.64 1.661-1.39 1.58-1.512zm.249-1.48c-.09-.093-.816 1.124-1.475.978a.55.55 0 0 0-.399.04.517.517 0 0 0-.168.117c0-.03.008-.059.008-.091a.676.676 0 0 0-.171-.393c-.443-.542.173-1.825.055-1.865-.12-.035-.33 1.315-.698 1.902a.632.632 0 0 0-.094.412c.01.157.076.298.168.396.094.098.21.152.336.144a.377.377 0 0 0 .244-.12c0 .053.01.111.036.167a.444.444 0 0 0 .286.242c.124.04.271.029.402-.035a.595.595 0 0 0 .284-.292c.288-.64 1.272-1.509 1.186-1.602zm-.436-1.69c-.149-.106-.624 1.076-1.189 1.384a.683.683 0 0 0-.275.295.718.718 0 0 0-.079.415c.013.125.071.231.163.284a.319.319 0 0 0 .315-.002.668.668 0 0 0 .28-.298.737.737 0 0 0 .079-.412c-.042-.669.811-1.6.706-1.666zM30.252 42.917h-5.945c-.404 0-.769-.032-1.105-.093.003 0 .003.002.003.002.976 1.451 2.506 2.552 4.057 3.29.239 1.323.538 2.548.646 2.644.11.095 1.632-.343 1.68-.484.044-.14-.623-2.407-.623-2.407.801-1.374 1.048-2.185 1.287-2.952zm14.953 10.169c-1.501.593-3.459.642-5.057.218-3.661-1.14-7.726-3.3-11.629-1.507-3.902-1.793-7.967.367-11.628 1.507-1.598.424-3.556.375-5.057-.218a.038.038 0 0 0-.037.066c2.16 1.671 5.186 2.44 7.91 1.456 2.616-.815 4.829-3.587 7.928-2.404-2.454.959-4.748 2.729-6.519 4.399l1.288 1.058c1.609-1.873 3.42-3.746 5.47-4.886.28-.165.448-.231.645-.242.198.011.365.077.643.242 2.053 1.14 3.864 3.013 5.472 4.886l1.289-1.058c-1.771-1.67-4.065-3.44-6.519-4.399 3.099-1.183 5.312 1.589 7.928 2.404 2.724.984 5.75.215 7.91-1.456.034-.029.005-.082-.037-.066zm-24.129-2.525c-3.826-.927-4.873-4.514-8.072-6.071-.034-.018-.071.022-.05.053 1.008 1.658 1.554 4.198 4.459 5.764.024.012.011.05-.016.042-4.167-.802-5.918.313-10.285-1.661-.037-.016-.076.024-.052.059 1.435 2.083 4.841 3.507 9.508 3.114 1.68-.143 2.897-.85 4.508-1.227.04-.011.04-.065 0-.073zm-8.014-2.2c-1.454-1.905-1.04-5.972-4.323-9.695-.026-.029-.073-.006-.065.031.627 2.742.44 5.857 2.157 8.139.016.024-.008.048-.032.032-3.385-2.665-6.865-3.468-8.414-5.625-.023-.029-.07-.014-.065.024.383 2.792 5.747 7.145 10.713 7.153.029 0 .047-.034.029-.059zm-5.084-5.064c-1.559-2.891.304-7.302-1.464-11.588-.019-.045-.087-.034-.087.014-.052 2.34-1.506 5.835-.627 8.473.01.024-.021.037-.034.016-2.239-3.271-4.015-3.954-5.496-6.948-.021-.045-.089-.033-.092.015C.084 35.314.984 36.973 2 38.514a17.398 17.398 0 0 0 5.928 4.836c.035.016.066-.019.05-.053zM6.921 25.691c-.003-.048-.066-.064-.09-.022-1.189 2.224-3.306 3.994-3.375 6.931-.002.029-.034.031-.039.004-.386-2.266-2.309-4.806-2.393-8.088 0-.05-.071-.063-.09-.016-1.582 4.268.693 8.314 3.115 11.657.027.034.079.014.079-.032-.099-3.542 2.971-6.186 2.793-10.434zm1.511-5.522c-1.123 1.56-3.65 2.663-4.574 4.913-.013.032-.053.024-.047-.013.367-2.522-.607-5.45.307-8.8.013-.048-.047-.08-.076-.043-1.381 1.698-1.848 3.688-1.924 5.838-.094 2.641.834 4.567 1.294 6.358.01.043.065.04.076-.003.661-2.348 3.981-3.762 5.02-8.213.014-.047-.047-.077-.076-.037zm3.047-5.245c-1.847 1.448-4.669 2.843-5.275 3.85-.01.021-.042.005-.037-.016l.685-3.287c.307-1.395.572-2.731 1.344-3.98.024-.037-.021-.08-.055-.053-3.517 2.785-3.003 6.812-3.158 10.11-.002.035.04.051.064.027 2.07-2.246 5.445-3.553 6.49-6.606.013-.037-.027-.069-.058-.045zm2.617-5.049c-3.108.099-5.391 2.716-6.37 6.048-.005.019.021.035.037.024 4.281-3.138 4.041-4.483 6.359-5.976.042-.027.024-.096-.026-.096zm35.828 38.813c-4.364 1.974-6.117.859-10.285 1.661-.026.008-.039-.03-.016-.042 2.905-1.566 3.451-4.106 4.459-5.764.021-.031-.015-.071-.05-.053-3.196 1.557-4.243 5.144-8.072 6.071-.04.008-.04.062 0 .073 1.611.377 2.829 1.084 4.508 1.227 4.666.393 8.076-1.031 9.509-3.114.023-.035-.016-.075-.053-.059zm4.726-7.445c-1.548 2.157-5.028 2.96-8.413 5.625-.021.016-.047-.008-.029-.032 1.714-2.282 1.527-5.397 2.154-8.139.008-.037-.039-.06-.065-.031-3.281 3.723-2.869 7.79-4.32 9.695-.018.025-.003.059.029.059 4.965-.008 10.327-4.361 10.71-7.153.005-.038-.042-.053-.066-.024zm2.208-7.964c-.003-.048-.071-.06-.092-.015-1.48 2.994-3.257 3.677-5.493 6.948-.016.021-.045.008-.036-.016.878-2.638-.573-6.133-.628-8.473 0-.048-.068-.059-.086-.014-1.769 4.286.094 8.697-1.462 11.588-.019.034.013.069.047.053a17.389 17.389 0 0 0 5.928-4.836c1.016-1.541 1.916-3.2 1.822-5.235zm-.756-8.779c-.018-.047-.089-.034-.089.016-.084 3.282-2.008 5.822-2.394 8.088-.005.027-.036.025-.036-.004-.069-2.937-2.189-4.707-3.378-6.931-.024-.042-.087-.026-.087.022-.178 4.248 2.89 6.892 2.79 10.434 0 .046.055.066.081.032 2.42-3.343 4.695-7.389 3.113-11.657zm-1.184-2.436c-.076-2.15-.543-4.14-1.923-5.838-.029-.037-.087-.005-.076.043.913 3.35-.061 6.278.309 8.8.005.037-.036.045-.05.013-.923-2.25-3.451-3.353-4.574-4.913-.026-.04-.087-.01-.076.037 1.039 4.451 4.359 5.865 5.021 8.213.01.043.065.046.076.003.459-1.791 1.388-3.717 1.293-6.358zm-6.023-10.626c-.034-.027-.078.016-.055.053.772 1.249 1.037 2.585 1.344 3.98l.685 3.287c.005.021-.027.037-.037.016-.606-1.007-3.425-2.402-5.275-3.85-.029-.024-.071.008-.058.045 1.045 3.053 4.42 4.36 6.49 6.606.024.024.066.008.063-.027-.154-3.298.36-7.325-3.157-10.11zm-5.954-1.563c-.05 0-.066.069-.027.096 2.318 1.493 2.079 2.838 6.359 5.976.019.011.042-.005.037-.024-.979-3.332-3.262-5.949-6.369-6.048zm28.225 19.572h-2.232l-1.253-4.857c-.046-.173-.125-.53-.237-1.072a12.245 12.245 0 0 1-.193-1.091c-.025.227-.088.593-.189 1.097-.102.504-.18.864-.235 1.079l-1.245 4.844h-2.227l-2.359-9.246h1.929l1.183 5.047c.207.932.356 1.739.449 2.422.025-.24.083-.612.174-1.116.09-.504.176-.895.256-1.173l1.347-5.18h1.853l1.347 5.18c.059.231.133.586.222 1.062.088.477.156.885.202 1.227.042-.329.109-.738.203-1.231.092-.49.177-.887.253-1.191l1.176-5.047h1.929l-2.353 9.246m4.578-3.548c0 .701.114 1.229.345 1.587.229.359.603.538 1.122.538.514 0 .884-.178 1.11-.534.226-.356.338-.887.338-1.591 0-.7-.113-1.224-.341-1.575-.228-.349-.601-.524-1.12-.524-.514 0-.885.174-1.113.521-.227.348-.341.874-.341 1.578zm4.888 0c0 1.151-.303 2.051-.91 2.701-.607.649-1.453.974-2.536.974-.679 0-1.278-.149-1.796-.446a2.959 2.959 0 0 1-1.195-1.281c-.279-.556-.418-1.206-.418-1.948 0-1.155.301-2.053.904-2.694s1.451-.962 2.543-.962c.678 0 1.277.149 1.796.443.519.295.917.719 1.195 1.272.278.552.417 1.199.417 1.941zm5.376-3.656c.262 0 .479.02.652.058l-.146 1.808a2.208 2.208 0 0 0-.569-.063c-.615 0-1.095.158-1.438.474-.344.317-.516.759-.516 1.329v3.598h-1.929v-7.071h1.461l.284 1.189h.095c.22-.396.516-.715.889-.958a2.194 2.194 0 0 1 1.217-.364m1.749 7.204h1.929v-9.841h-1.929zm6.76-1.41c.493 0 .855-.144 1.085-.431.23-.286.355-.773.376-1.461v-.208c0-.759-.117-1.303-.351-1.631-.234-.33-.615-.494-1.142-.494-.43 0-.764.182-1.002.547-.238.365-.357.895-.357 1.591 0 .695.12 1.217.36 1.565.241.348.584.522 1.031.522zm-.677 1.537c-.831 0-1.483-.323-1.957-.968-.475-.645-.711-1.539-.711-2.681 0-1.16.241-2.064.724-2.71.482-.648 1.148-.972 1.995-.972.889 0 1.569.346 2.036 1.038h.064a7.897 7.897 0 0 1-.146-1.411v-2.264h1.935v9.841H96.3l-.373-.917h-.082c-.438.695-1.107 1.044-2.005 1.044zm11.17-.127h-1.929v-9.246h5.3v1.607h-3.371v2.383h3.137v1.601h-3.137v3.655m6.379-3.548c0 .701.115 1.229.345 1.587.229.359.604.538 1.122.538.514 0 .884-.178 1.11-.534.226-.356.338-.887.338-1.591 0-.7-.113-1.224-.341-1.575-.228-.349-.601-.524-1.12-.524-.514 0-.885.174-1.113.521-.227.348-.341.874-.341 1.578zm4.888 0c0 1.151-.303 2.051-.91 2.701-.607.649-1.453.974-2.536.974-.679 0-1.278-.149-1.796-.446a2.959 2.959 0 0 1-1.195-1.281c-.279-.556-.418-1.206-.418-1.948 0-1.155.301-2.053.904-2.694s1.451-.962 2.543-.962c.679 0 1.277.149 1.796.443.519.295.917.719 1.195 1.272.278.552.417 1.199.417 1.941zm3.01 0c0 .701.115 1.229.344 1.587.23.359.604.538 1.123.538.514 0 .884-.178 1.11-.534.225-.356.338-.887.338-1.591 0-.7-.113-1.224-.341-1.575-.228-.349-.601-.524-1.12-.524-.514 0-.885.174-1.113.521-.227.348-.341.874-.341 1.578zm4.888 0c0 1.151-.303 2.051-.91 2.701-.607.649-1.453.974-2.536.974-.679 0-1.278-.149-1.796-.446a2.967 2.967 0 0 1-1.196-1.281c-.278-.556-.417-1.206-.417-1.948 0-1.155.301-2.053.904-2.694s1.45-.962 2.543-.962c.678 0 1.277.149 1.796.443.519.295.917.719 1.195 1.272.278.552.417 1.199.417 1.941zm4.418 2.138c.493 0 .854-.144 1.084-.431.23-.286.355-.773.377-1.461v-.208c0-.759-.117-1.303-.351-1.631-.234-.33-.615-.494-1.142-.494-.43 0-.764.182-1.002.547-.239.365-.358.895-.358 1.591 0 .695.12 1.217.361 1.565.24.348.584.522 1.031.522zm-.677 1.537c-.831 0-1.483-.323-1.957-.968-.475-.645-.712-1.539-.712-2.681 0-1.16.241-2.064.724-2.71.483-.648 1.148-.972 1.995-.972.89 0 1.569.346 2.037 1.038h.064a7.805 7.805 0 0 1-.146-1.411v-2.264h1.935v9.841h-1.48l-.373-.917h-.082c-.438.695-1.107 1.044-2.005 1.044zM64.157 37.78h.645c.603 0 1.054-.119 1.354-.357.299-.238.449-.585.449-1.04 0-.46-.126-.799-.377-1.019-.251-.219-.643-.328-1.179-.328h-.892v2.744zm4.428-1.467c0 .995-.312 1.756-.933 2.284-.622.527-1.507.79-2.653.79h-.842v3.289h-1.96V33.43h2.953c1.122 0 1.975.241 2.559.723.584.484.876 1.203.876 2.16zm4.886-.841c.262 0 .479.019.653.057l-.146 1.809a2.215 2.215 0 0 0-.569-.064c-.616 0-1.096.159-1.44.475-.343.316-.514.759-.514 1.328v3.599h-1.93v-7.072h1.461l.285 1.19h.095c.219-.397.516-.716.889-.958a2.191 2.191 0 0 1 1.216-.364m2.905 3.656c0 .7.115 1.228.344 1.587.23.358.604.538 1.122.538.515 0 .885-.179 1.111-.534.225-.357.339-.887.339-1.591 0-.7-.115-1.225-.342-1.575-.228-.35-.601-.525-1.119-.525-.515 0-.886.174-1.114.522-.227.347-.341.874-.341 1.578zm4.888 0c0 1.15-.303 2.051-.91 2.7s-1.453.975-2.536.975c-.68 0-1.278-.15-1.797-.447a2.965 2.965 0 0 1-1.195-1.281c-.278-.555-.417-1.205-.417-1.947 0-1.155.301-2.054.904-2.694.603-.641 1.45-.962 2.542-.962.68 0 1.278.148 1.797.443a2.95 2.95 0 0 1 1.195 1.271c.279.552.417 1.2.417 1.942zm2.459-1.208c0 .384.088.687.263.91.175.224.441.336.801.336.362 0 .628-.112.797-.336.168-.223.253-.526.253-.91 0-.852-.351-1.278-1.05-1.278-.709 0-1.064.426-1.064 1.278zm-.701 5.755c0 .265.127.474.382.626.256.152.613.228 1.072.228.692 0 1.234-.096 1.626-.285.392-.189.588-.449.588-.777 0-.266-.116-.45-.348-.551-.232-.102-.59-.151-1.075-.151h-1c-.353 0-.65.083-.887.249-.239.167-.358.387-.358.661zm5.458-8.071v.981l-1.107.285c.203.316.303.67.303 1.063 0 .758-.264 1.349-.794 1.773-.528.424-1.263.636-2.204.636l-.347-.019-.284-.032c-.199.152-.298.321-.298.507 0 .277.354.417 1.062.417h1.202c.776 0 1.368.167 1.775.5.406.333.61.822.61 1.467 0 .826-.345 1.467-1.034 1.922-.69.455-1.68.683-2.97.683-.986 0-1.74-.172-2.261-.515-.521-.343-.781-.826-.781-1.445 0-.426.133-.782.399-1.069.265-.286.655-.492 1.17-.614a1.278 1.278 0 0 1-.519-.414.988.988 0 0 1-.222-.61c0-.27.078-.494.235-.674.156-.179.382-.355.677-.528a1.89 1.89 0 0 1-.883-.772c-.217-.353-.326-.771-.326-1.252 0-.771.251-1.368.753-1.79.501-.421 1.218-.632 2.151-.632.197 0 .432.018.705.053.271.036.445.063.521.079h2.467zm4.577-.132c.262 0 .479.019.653.057l-.146 1.809a2.215 2.215 0 0 0-.569-.064c-.616 0-1.096.159-1.44.475-.343.316-.514.759-.514 1.328v3.599h-1.93v-7.072h1.461l.285 1.19h.095c.219-.397.515-.716.888-.958a2.197 2.197 0 0 1 1.217-.364m5.159 3.927l-.747.026c-.56.016-.977.118-1.252.303-.274.186-.411.468-.411.848 0 .544.313.815.937.815.446 0 .804-.127 1.071-.385.268-.257.402-.599.402-1.025v-.582zm.569 3.277l-.373-.961h-.05c-.325.408-.659.692-1.003.85-.344.159-.792.238-1.344.238-.678 0-1.214-.195-1.603-.582-.39-.388-.585-.941-.585-1.658 0-.751.263-1.303.787-1.66.525-.356 1.316-.554 2.375-.592l1.227-.038v-.309c0-.717-.367-1.075-1.1-1.075-.566 0-1.23.17-1.992.512l-.639-1.302c.813-.426 1.716-.64 2.706-.64.949 0 1.677.207 2.183.62.506.413.758 1.042.758 1.885v4.712h-1.347zm9.053 0h-1.929v-4.13c0-.51-.086-.893-.257-1.149-.17-.255-.439-.381-.806-.381-.493 0-.851.18-1.075.544-.223.362-.335.958-.335 1.789v3.327h-1.93v-7.072h1.474l.26.906h.107c.19-.326.464-.579.823-.763a2.66 2.66 0 0 1 1.233-.275c1.058 0 1.774.345 2.15 1.038h.17c.191-.329.47-.584.839-.766a2.782 2.782 0 0 1 1.249-.272c.801 0 1.407.206 1.819.617.411.411.616 1.069.616 1.976v4.611h-1.936v-4.13c0-.51-.085-.893-.256-1.149-.171-.255-.439-.381-.806-.381-.472 0-.825.168-1.059.505-.234.337-.351.872-.351 1.607v3.548m12.114 0h-1.929v-4.13c0-.51-.086-.893-.257-1.149-.17-.255-.439-.381-.805-.381-.494 0-.852.18-1.076.544-.223.362-.335.958-.335 1.789v3.327h-1.929v-7.072h1.473l.26.906h.108c.189-.326.463-.579.822-.763a2.66 2.66 0 0 1 1.233-.275c1.058 0 1.775.345 2.151 1.038h.17c.19-.329.469-.584.838-.766a2.788 2.788 0 0 1 1.249-.272c.801 0 1.408.206 1.819.617.411.411.616 1.069.616 1.976v4.611h-1.936v-4.13c0-.51-.085-.893-.255-1.149-.171-.255-.44-.381-.807-.381-.472 0-.825.168-1.059.505-.234.337-.351.872-.351 1.607v3.548m8.755-5.831c-.409 0-.73.13-.962.388-.232.26-.364.627-.399 1.104h2.707c-.007-.477-.132-.844-.373-1.104-.24-.258-.564-.388-.973-.388zm.271 5.958c-1.138 0-2.028-.315-2.669-.943-.64-.629-.961-1.518-.961-2.669 0-1.185.296-2.101.889-2.748.592-.647 1.411-.971 2.457-.971.999 0 1.777.285 2.334.854.557.569.834 1.356.834 2.359v.936h-4.56c.022.548.184.977.488 1.284.303.308.729.461 1.277.461a5.28 5.28 0 0 0 1.208-.133c.38-.088.775-.229 1.189-.424v1.494a4.499 4.499 0 0 1-1.082.376 6.82 6.82 0 0 1-1.404.124z" fill="#0A6EB4" fill-rule="evenodd"/></svg>